<?xml version="1.0" encoding="UTF-8"?>
<!DOCTYPE svg PUBLIC "-//W3C//DTD SVG 1.1//EN" "http://www.w3.org/Graphics/SVG/1.1/DTD/svg11.dtd">
<svg xmlns="http://www.w3.org/2000/svg" version="1.1" viewBox="0 0 113 113" stroke="none">
	<rect width="100%" height="100%" fill="#FFFFFF"/>
	<path d="M4,4h1v1h-1z M5,4h1v1h-1z M6,4h1v1h-1z M7,4h1v1h-1z M8,4h1v1h-1z M9,4h1v1h-1z M10,4h1v1h-1z M12,4h1v1h-1z M14,4h1v1h-1z M15,4h1v1h-1z M16,4h1v1h-1z M18,4h1v1h-1z M20,4h1v1h-1z M21,4h1v1h-1z M24,4h1v1h-1z M26,4h1v1h-1z M27,4h1v1h-1z M28,4h1v1h-1z M29,4h1v1h-1z M30,4h1v1h-1z M31,4h1v1h-1z M35,4h1v1h-1z M36,4h1v1h-1z M40,4h1v1h-1z M41,4h1v1h-1z M45,4h1v1h-1z M49,4h1v1h-1z M50,4h1v1h-1z M52,4h1v1h-1z M54,4h1v1h-1z M56,4h1v1h-1z M57,4h1v1h-1z M60,4h1v1h-1z M61,4h1v1h-1z M62,4h1v1h-1z M63,4h1v1h-1z M65,4h1v1h-1z M66,4h1v1h-1z M68,4h1v1h-1z M70,4h1v1h-1z M72,4h1v1h-1z M75,4h1v1h-1z M76,4h1v1h-1z M77,4h1v1h-1z M80,4h1v1h-1z M81,4h1v1h-1z M82,4h1v1h-1z M83,4h1v1h-1z M84,4h1v1h-1z M85,4h1v1h-1z M87,4h1v1h-1z M89,4h1v1h-1z M92,4h1v1h-1z M96,4h1v1h-1z M97,4h1v1h-1z M98,4h1v1h-1z M102,4h1v1h-1z M103,4h1v1h-1z M104,4h1v1h-1z M105,4h1v1h-1z M106,4h1v1h-1z M107,4h1v1h-1z M108,4h1v1h-1z M4,5h1v1h-1z M10,5h1v1h-1z M12,5h1v1h-1z M17,5h1v1h-1z M19,5h1v1h-1z M21,5h1v1h-1z M22,5h1v1h-1z M23,5h1v1h-1z M24,5h1v1h-1z M27,5h1v1h-1z M28,5h1v1h-1z M30,5h1v1h-1z M34,5h1v1h-1z M37,5h1v1h-1z M39,5h1v1h-1z M42,5h1v1h-1z M43,5h1v1h-1z M45,5h1v1h-1z M46,5h1v1h-1z M47,5h1v1h-1z M49,5h1v1h-1z M54,5h1v1h-1z M55,5h1v1h-1z M57,5h1v1h-1z M58,5h1v1h-1z M59,5h1v1h-1z M61,5h1v1h-1z M64,5h1v1h-1z M66,5h1v1h-1z M67,5h1v1h-1z M69,5h1v1h-1z M70,5h1v1h-1z M73,5h1v1h-1z M78,5h1v1h-1z M79,5h1v1h-1z M81,5h1v1h-1z M82,5h1v1h-1z M84,5h1v1h-1z M85,5h1v1h-1z M88,5h1v1h-1z M90,5h1v1h-1z M91,5h1v1h-1z M92,5h1v1h-1z M93,5h1v1h-1z M94,5h1v1h-1z M97,5h1v1h-1z M98,5h1v1h-1z M102,5h1v1h-1z M108,5h1v1h-1z M4,6h1v1h-1z M6,6h1v1h-1z M7,6h1v1h-1z M8,6h1v1h-1z M10,6h1v1h-1z M12,6h1v1h-1z M13,6h1v1h-1z M14,6h1v1h-1z M16,6h1v1h-1z M18,6h1v1h-1z M19,6h1v1h-1z M20,6h1v1h-1z M23,6h1v1h-1z M24,6h1v1h-1z M25,6h1v1h-1z M26,6h1v1h-1z M29,6h1v1h-1z M30,6h1v1h-1z M32,6h1v1h-1z M34,6h1v1h-1z M35,6h1v1h-1z M38,6h1v1h-1z M44,6h1v1h-1z M45,6h1v1h-1z M49,6h1v1h-1z M50,6h1v1h-1z M51,6h1v1h-1z M53,6h1v1h-1z M54,6h1v1h-1z M56,6h1v1h-1z M58,6h1v1h-1z M59,6h1v1h-1z M61,6h1v1h-1z M66,6h1v1h-1z M68,6h1v1h-1z M69,6h1v1h-1z M70,6h1v1h-1z M71,6h1v1h-1z M73,6h1v1h-1z M75,6h1v1h-1z M78,6h1v1h-1z M80,6h1v1h-1z M82,6h1v1h-1z M83,6h1v1h-1z M86,6h1v1h-1z M92,6h1v1h-1z M94,6h1v1h-1z M98,6h1v1h-1z M99,6h1v1h-1z M102,6h1v1h-1z M104,6h1v1h-1z M105,6h1v1h-1z M106,6h1v1h-1z M108,6h1v1h-1z M4,7h1v1h-1z M6,7h1v1h-1z M7,7h1v1h-1z M8,7h1v1h-1z M10,7h1v1h-1z M12,7h1v1h-1z M13,7h1v1h-1z M15,7h1v1h-1z M16,7h1v1h-1z M18,7h1v1h-1z M19,7h1v1h-1z M22,7h1v1h-1z M23,7h1v1h-1z M24,7h1v1h-1z M25,7h1v1h-1z M28,7h1v1h-1z M29,7h1v1h-1z M30,7h1v1h-1z M34,7h1v1h-1z M35,7h1v1h-1z M36,7h1v1h-1z M37,7h1v1h-1z M42,7h1v1h-1z M45,7h1v1h-1z M46,7h1v1h-1z M47,7h1v1h-1z M48,7h1v1h-1z M53,7h1v1h-1z M56,7h1v1h-1z M60,7h1v1h-1z M62,7h1v1h-1z M63,7h1v1h-1z M64,7h1v1h-1z M65,7h1v1h-1z M66,7h1v1h-1z M70,7h1v1h-1z M73,7h1v1h-1z M80,7h1v1h-1z M85,7h1v1h-1z M86,7h1v1h-1z M87,7h1v1h-1z M90,7h1v1h-1z M91,7h1v1h-1z M93,7h1v1h-1z M95,7h1v1h-1z M96,7h1v1h-1z M100,7h1v1h-1z M102,7h1v1h-1z M104,7h1v1h-1z M105,7h1v1h-1z M106,7h1v1h-1z M108,7h1v1h-1z M4,8h1v1h-1z M6,8h1v1h-1z M7,8h1v1h-1z M8,8h1v1h-1z M10,8h1v1h-1z M14,8h1v1h-1z M16,8h1v1h-1z M19,8h1v1h-1z M20,8h1v1h-1z M21,8h1v1h-1z M27,8h1v1h-1z M28,8h1v1h-1z M29,8h1v1h-1z M30,8h1v1h-1z M31,8h1v1h-1z M32,8h1v1h-1z M36,8h1v1h-1z M37,8h1v1h-1z M38,8h1v1h-1z M39,8h1v1h-1z M42,8h1v1h-1z M43,8h1v1h-1z M46,8h1v1h-1z M48,8h1v1h-1z M52,8h1v1h-1z M53,8h1v1h-1z M54,8h1v1h-1z M55,8h1v1h-1z M56,8h1v1h-1z M57,8h1v1h-1z M59,8h1v1h-1z M60,8h1v1h-1z M61,8h1v1h-1z M62,8h1v1h-1z M64,8h1v1h-1z M65,8h1v1h-1z M66,8h1v1h-1z M67,8h1v1h-1z M75,8h1v1h-1z M76,8h1v1h-1z M77,8h1v1h-1z M78,8h1v1h-1z M79,8h1v1h-1z M80,8h1v1h-1z M81,8h1v1h-1z M82,8h1v1h-1z M83,8h1v1h-1z M85,8h1v1h-1z M87,8h1v1h-1z M88,8h1v1h-1z M90,8h1v1h-1z M91,8h1v1h-1z M93,8h1v1h-1z M94,8h1v1h-1z M96,8h1v1h-1z M99,8h1v1h-1z M100,8h1v1h-1z M102,8h1v1h-1z M104,8h1v1h-1z M105,8h1v1h-1z M106,8h1v1h-1z M108,8h1v1h-1z M4,9h1v1h-1z M10,9h1v1h-1z M12,9h1v1h-1z M13,9h1v1h-1z M14,9h1v1h-1z M15,9h1v1h-1z M17,9h1v1h-1z M20,9h1v1h-1z M21,9h1v1h-1z M23,9h1v1h-1z M25,9h1v1h-1z M28,9h1v1h-1z M32,9h1v1h-1z M33,9h1v1h-1z M34,9h1v1h-1z M35,9h1v1h-1z M39,9h1v1h-1z M40,9h1v1h-1z M42,9h1v1h-1z M45,9h1v1h-1z M46,9h1v1h-1z M47,9h1v1h-1z M48,9h1v1h-1z M49,9h1v1h-1z M52,9h1v1h-1z M56,9h1v1h-1z M58,9h1v1h-1z M61,9h1v1h-1z M63,9h1v1h-1z M66,9h1v1h-1z M67,9h1v1h-1z M68,9h1v1h-1z M69,9h1v1h-1z M70,9h1v1h-1z M71,9h1v1h-1z M72,9h1v1h-1z M73,9h1v1h-1z M76,9h1v1h-1z M80,9h1v1h-1z M81,9h1v1h-1z M82,9h1v1h-1z M83,9h1v1h-1z M84,9h1v1h-1z M85,9h1v1h-1z M87,9h1v1h-1z M89,9h1v1h-1z M90,9h1v1h-1z M92,9h1v1h-1z M93,9h1v1h-1z M94,9h1v1h-1z M96,9h1v1h-1z M97,9h1v1h-1z M99,9h1v1h-1z M102,9h1v1h-1z M108,9h1v1h-1z M4,10h1v1h-1z M5,10h1v1h-1z M6,10h1v1h-1z M7,10h1v1h-1z M8,10h1v1h-1z M9,10h1v1h-1z M10,10h1v1h-1z M12,10h1v1h-1z M14,10h1v1h-1z M16,10h1v1h-1z M18,10h1v1h-1z M20,10h1v1h-1z M22,10h1v1h-1z M24,10h1v1h-1z M26,10h1v1h-1z M28,10h1v1h-1z M30,10h1v1h-1z M32,10h1v1h-1z M34,10h1v1h-1z M36,10h1v1h-1z M38,10h1v1h-1z M40,10h1v1h-1z M42,10h1v1h-1z M44,10h1v1h-1z M46,10h1v1h-1z M48,10h1v1h-1z M50,10h1v1h-1z M52,10h1v1h-1z M54,10h1v1h-1z M56,10h1v1h-1z M58,10h1v1h-1z M60,10h1v1h-1z M62,10h1v1h-1z M64,10h1v1h-1z M66,10h1v1h-1z M68,10h1v1h-1z M70,10h1v1h-1z M72,10h1v1h-1z M74,10h1v1h-1z M76,10h1v1h-1z M78,10h1v1h-1z M80,10h1v1h-1z M82,10h1v1h-1z M84,10h1v1h-1z M86,10h1v1h-1z M88,10h1v1h-1z M90,10h1v1h-1z M92,10h1v1h-1z M94,10h1v1h-1z M96,10h1v1h-1z M98,10h1v1h-1z M100,10h1v1h-1z M102,10h1v1h-1z M103,10h1v1h-1z M104,10h1v1h-1z M105,10h1v1h-1z M106,10h1v1h-1z M107,10h1v1h-1z M108,10h1v1h-1z M16,11h1v1h-1z M18,11h1v1h-1z M21,11h1v1h-1z M23,11h1v1h-1z M24,11h1v1h-1z M26,11h1v1h-1z M28,11h1v1h-1z M32,11h1v1h-1z M35,11h1v1h-1z M41,11h1v1h-1z M42,11h1v1h-1z M44,11h1v1h-1z M46,11h1v1h-1z M47,11h1v1h-1z M49,11h1v1h-1z M52,11h1v1h-1z M56,11h1v1h-1z M57,11h1v1h-1z M58,11h1v1h-1z M59,11h1v1h-1z M62,11h1v1h-1z M66,11h1v1h-1z M68,11h1v1h-1z M70,11h1v1h-1z M71,11h1v1h-1z M74,11h1v1h-1z M76,11h1v1h-1z M80,11h1v1h-1z M81,11h1v1h-1z M82,11h1v1h-1z M83,11h1v1h-1z M85,11h1v1h-1z M87,11h1v1h-1z M89,11h1v1h-1z M90,11h1v1h-1z M92,11h1v1h-1z M93,11h1v1h-1z M95,11h1v1h-1z M97,11h1v1h-1z M100,11h1v1h-1z M4,12h1v1h-1z M5,12h1v1h-1z M8,12h1v1h-1z M9,12h1v1h-1z M10,12h1v1h-1z M15,12h1v1h-1z M16,12h1v1h-1z M17,12h1v1h-1z M24,12h1v1h-1z M27,12h1v1h-1z M28,12h1v1h-1z M29,12h1v1h-1z M30,12h1v1h-1z M31,12h1v1h-1z M32,12h1v1h-1z M33,12h1v1h-1z M34,12h1v1h-1z M35,12h1v1h-1z M37,12h1v1h-1z M38,12h1v1h-1z M39,12h1v1h-1z M40,12h1v1h-1z M42,12h1v1h-1z M48,12h1v1h-1z M49,12h1v1h-1z M51,12h1v1h-1z M52,12h1v1h-1z M53,12h1v1h-1z M54,12h1v1h-1z M55,12h1v1h-1z M56,12h1v1h-1z M57,12h1v1h-1z M58,12h1v1h-1z M59,12h1v1h-1z M60,12h1v1h-1z M61,12h1v1h-1z M64,12h1v1h-1z M66,12h1v1h-1z M67,12h1v1h-1z M68,12h1v1h-1z M69,12h1v1h-1z M73,12h1v1h-1z M75,12h1v1h-1z M76,12h1v1h-1z M77,12h1v1h-1z M78,12h1v1h-1z M79,12h1v1h-1z M80,12h1v1h-1z M82,12h1v1h-1z M85,12h1v1h-1z M88,12h1v1h-1z M90,12h1v1h-1z M93,12h1v1h-1z M94,12h1v1h-1z M97,12h1v1h-1z M100,12h1v1h-1z M103,12h1v1h-1z M105,12h1v1h-1z M106,12h1v1h-1z M107,12h1v1h-1z M108,12h1v1h-1z M8,13h1v1h-1z M9,13h1v1h-1z M11,13h1v1h-1z M12,13h1v1h-1z M13,13h1v1h-1z M15,13h1v1h-1z M18,13h1v1h-1z M21,13h1v1h-1z M22,13h1v1h-1z M27,13h1v1h-1z M28,13h1v1h-1z M31,13h1v1h-1z M33,13h1v1h-1z M34,13h1v1h-1z M35,13h1v1h-1z M36,13h1v1h-1z M37,13h1v1h-1z M38,13h1v1h-1z M40,13h1v1h-1z M41,13h1v1h-1z M43,13h1v1h-1z M46,13h1v1h-1z M48,13h1v1h-1z M50,13h1v1h-1z M51,13h1v1h-1z M52,13h1v1h-1z M54,13h1v1h-1z M55,13h1v1h-1z M57,13h1v1h-1z M60,13h1v1h-1z M65,13h1v1h-1z M66,13h1v1h-1z M67,13h1v1h-1z M68,13h1v1h-1z M69,13h1v1h-1z M70,13h1v1h-1z M71,13h1v1h-1z M75,13h1v1h-1z M76,13h1v1h-1z M77,13h1v1h-1z M78,13h1v1h-1z M82,13h1v1h-1z M83,13h1v1h-1z M84,13h1v1h-1z M85,13h1v1h-1z M87,13h1v1h-1z M88,13h1v1h-1z M89,13h1v1h-1z M90,13h1v1h-1z M92,13h1v1h-1z M94,13h1v1h-1z M95,13h1v1h-1z M96,13h1v1h-1z M100,13h1v1h-1z M103,13h1v1h-1z M104,13h1v1h-1z M107,13h1v1h-1z M6,14h1v1h-1z M7,14h1v1h-1z M8,14h1v1h-1z M10,14h1v1h-1z M11,14h1v1h-1z M13,14h1v1h-1z M19,14h1v1h-1z M23,14h1v1h-1z M24,14h1v1h-1z M26,14h1v1h-1z M28,14h1v1h-1z M29,14h1v1h-1z M35,14h1v1h-1z M36,14h1v1h-1z M38,14h1v1h-1z M39,14h1v1h-1z M50,14h1v1h-1z M57,14h1v1h-1z M62,14h1v1h-1z M63,14h1v1h-1z M64,14h1v1h-1z M65,14h1v1h-1z M67,14h1v1h-1z M72,14h1v1h-1z M74,14h1v1h-1z M76,14h1v1h-1z M83,14h1v1h-1z M86,14h1v1h-1z M87,14h1v1h-1z M89,14h1v1h-1z M93,14h1v1h-1z M95,14h1v1h-1z M96,14h1v1h-1z M97,14h1v1h-1z M98,14h1v1h-1z M99,14h1v1h-1z M100,14h1v1h-1z M101,14h1v1h-1z M102,14h1v1h-1z M104,14h1v1h-1z M106,14h1v1h-1z M107,14h1v1h-1z M4,15h1v1h-1z M7,15h1v1h-1z M8,15h1v1h-1z M11,15h1v1h-1z M13,15h1v1h-1z M16,15h1v1h-1z M17,15h1v1h-1z M18,15h1v1h-1z M20,15h1v1h-1z M21,15h1v1h-1z M24,15h1v1h-1z M26,15h1v1h-1z M27,15h1v1h-1z M28,15h1v1h-1z M29,15h1v1h-1z M31,15h1v1h-1z M32,15h1v1h-1z M33,15h1v1h-1z M35,15h1v1h-1z M37,15h1v1h-1z M38,15h1v1h-1z M41,15h1v1h-1z M42,15h1v1h-1z M43,15h1v1h-1z M44,15h1v1h-1z M45,15h1v1h-1z M46,15h1v1h-1z M47,15h1v1h-1z M49,15h1v1h-1z M51,15h1v1h-1z M53,15h1v1h-1z M54,15h1v1h-1z M56,15h1v1h-1z M58,15h1v1h-1z M59,15h1v1h-1z M65,15h1v1h-1z M66,15h1v1h-1z M68,15h1v1h-1z M69,15h1v1h-1z M70,15h1v1h-1z M73,15h1v1h-1z M75,15h1v1h-1z M76,15h1v1h-1z M78,15h1v1h-1z M80,15h1v1h-1z M81,15h1v1h-1z M82,15h1v1h-1z M83,15h1v1h-1z M85,15h1v1h-1z M86,15h1v1h-1z M91,15h1v1h-1z M92,15h1v1h-1z M94,15h1v1h-1z M95,15h1v1h-1z M100,15h1v1h-1z M101,15h1v1h-1z M104,15h1v1h-1z M105,15h1v1h-1z M108,15h1v1h-1z M8,16h1v1h-1z M10,16h1v1h-1z M11,16h1v1h-1z M12,16h1v1h-1z M18,16h1v1h-1z M19,16h1v1h-1z M21,16h1v1h-1z M30,16h1v1h-1z M32,16h1v1h-1z M34,16h1v1h-1z M37,16h1v1h-1z M42,16h1v1h-1z M48,16h1v1h-1z M49,16h1v1h-1z M51,16h1v1h-1z M57,16h1v1h-1z M58,16h1v1h-1z M59,16h1v1h-1z M60,16h1v1h-1z M61,16h1v1h-1z M63,16h1v1h-1z M65,16h1v1h-1z M66,16h1v1h-1z M70,16h1v1h-1z M71,16h1v1h-1z M73,16h1v1h-1z M75,16h1v1h-1z M78,16h1v1h-1z M79,16h1v1h-1z M82,16h1v1h-1z M83,16h1v1h-1z M84,16h1v1h-1z M88,16h1v1h-1z M90,16h1v1h-1z M91,16h1v1h-1z M92,16h1v1h-1z M93,16h1v1h-1z M94,16h1v1h-1z M96,16h1v1h-1z M97,16h1v1h-1z M100,16h1v1h-1z M101,16h1v1h-1z M102,16h1v1h-1z M103,16h1v1h-1z M105,16h1v1h-1z M107,16h1v1h-1z M6,17h1v1h-1z M7,17h1v1h-1z M9,17h1v1h-1z M11,17h1v1h-1z M15,17h1v1h-1z M16,17h1v1h-1z M17,17h1v1h-1z M19,17h1v1h-1z M20,17h1v1h-1z M23,17h1v1h-1z M25,17h1v1h-1z M26,17h1v1h-1z M27,17h1v1h-1z M28,17h1v1h-1z M30,17h1v1h-1z M31,17h1v1h-1z M35,17h1v1h-1z M36,17h1v1h-1z M37,17h1v1h-1z M38,17h1v1h-1z M39,17h1v1h-1z M41,17h1v1h-1z M44,17h1v1h-1z M45,17h1v1h-1z M46,17h1v1h-1z M48,17h1v1h-1z M52,17h1v1h-1z M54,17h1v1h-1z M56,17h1v1h-1z M64,17h1v1h-1z M65,17h1v1h-1z M68,17h1v1h-1z M71,17h1v1h-1z M72,17h1v1h-1z M73,17h1v1h-1z M74,17h1v1h-1z M75,17h1v1h-1z M76,17h1v1h-1z M80,17h1v1h-1z M81,17h1v1h-1z M84,17h1v1h-1z M89,17h1v1h-1z M91,17h1v1h-1z M92,17h1v1h-1z M96,17h1v1h-1z M97,17h1v1h-1z M98,17h1v1h-1z M102,17h1v1h-1z M103,17h1v1h-1z M104,17h1v1h-1z M105,17h1v1h-1z M106,17h1v1h-1z M107,17h1v1h-1z M108,17h1v1h-1z M4,18h1v1h-1z M5,18h1v1h-1z M7,18h1v1h-1z M10,18h1v1h-1z M11,18h1v1h-1z M12,18h1v1h-1z M13,18h1v1h-1z M14,18h1v1h-1z M20,18h1v1h-1z M26,18h1v1h-1z M35,18h1v1h-1z M38,18h1v1h-1z M41,18h1v1h-1z M43,18h1v1h-1z M44,18h1v1h-1z M47,18h1v1h-1z M48,18h1v1h-1z M50,18h1v1h-1z M51,18h1v1h-1z M53,18h1v1h-1z M59,18h1v1h-1z M60,18h1v1h-1z M62,18h1v1h-1z M63,18h1v1h-1z M64,18h1v1h-1z M65,18h1v1h-1z M67,18h1v1h-1z M68,18h1v1h-1z M69,18h1v1h-1z M73,18h1v1h-1z M74,18h1v1h-1z M75,18h1v1h-1z M77,18h1v1h-1z M79,18h1v1h-1z M80,18h1v1h-1z M83,18h1v1h-1z M84,18h1v1h-1z M86,18h1v1h-1z M87,18h1v1h-1z M89,18h1v1h-1z M92,18h1v1h-1z M95,18h1v1h-1z M96,18h1v1h-1z M98,18h1v1h-1z M101,18h1v1h-1z M102,18h1v1h-1z M104,18h1v1h-1z M107,18h1v1h-1z M4,19h1v1h-1z M5,19h1v1h-1z M7,19h1v1h-1z M9,19h1v1h-1z M11,19h1v1h-1z M13,19h1v1h-1z M14,19h1v1h-1z M15,19h1v1h-1z M17,19h1v1h-1z M20,19h1v1h-1z M21,19h1v1h-1z M23,19h1v1h-1z M25,19h1v1h-1z M26,19h1v1h-1z M29,19h1v1h-1z M30,19h1v1h-1z M32,19h1v1h-1z M34,19h1v1h-1z M35,19h1v1h-1z M37,19h1v1h-1z M38,19h1v1h-1z M44,19h1v1h-1z M45,19h1v1h-1z M46,19h1v1h-1z M47,19h1v1h-1z M49,19h1v1h-1z M50,19h1v1h-1z M51,19h1v1h-1z M55,19h1v1h-1z M56,19h1v1h-1z M57,19h1v1h-1z M58,19h1v1h-1z M68,19h1v1h-1z M70,19h1v1h-1z M71,19h1v1h-1z M75,19h1v1h-1z M77,19h1v1h-1z M78,19h1v1h-1z M80,19h1v1h-1z M81,19h1v1h-1z M82,19h1v1h-1z M92,19h1v1h-1z M94,19h1v1h-1z M99,19h1v1h-1z M103,19h1v1h-1z M104,19h1v1h-1z M105,19h1v1h-1z M107,19h1v1h-1z M5,20h1v1h-1z M7,20h1v1h-1z M8,20h1v1h-1z M10,20h1v1h-1z M11,20h1v1h-1z M14,20h1v1h-1z M16,20h1v1h-1z M17,20h1v1h-1z M19,20h1v1h-1z M20,20h1v1h-1z M22,20h1v1h-1z M23,20h1v1h-1z M24,20h1v1h-1z M25,20h1v1h-1z M26,20h1v1h-1z M27,20h1v1h-1z M29,20h1v1h-1z M32,20h1v1h-1z M33,20h1v1h-1z M34,20h1v1h-1z M39,20h1v1h-1z M40,20h1v1h-1z M42,20h1v1h-1z M43,20h1v1h-1z M49,20h1v1h-1z M52,20h1v1h-1z M54,20h1v1h-1z M55,20h1v1h-1z M64,20h1v1h-1z M65,20h1v1h-1z M66,20h1v1h-1z M70,20h1v1h-1z M71,20h1v1h-1z M72,20h1v1h-1z M76,20h1v1h-1z M77,20h1v1h-1z M80,20h1v1h-1z M81,20h1v1h-1z M82,20h1v1h-1z M83,20h1v1h-1z M88,20h1v1h-1z M90,20h1v1h-1z M92,20h1v1h-1z M95,20h1v1h-1z M96,20h1v1h-1z M98,20h1v1h-1z M99,20h1v1h-1z M100,20h1v1h-1z M107,20h1v1h-1z M5,21h1v1h-1z M6,21h1v1h-1z M9,21h1v1h-1z M11,21h1v1h-1z M13,21h1v1h-1z M17,21h1v1h-1z M18,21h1v1h-1z M22,21h1v1h-1z M23,21h1v1h-1z M26,21h1v1h-1z M27,21h1v1h-1z M28,21h1v1h-1z M35,21h1v1h-1z M39,21h1v1h-1z M40,21h1v1h-1z M43,21h1v1h-1z M45,21h1v1h-1z M48,21h1v1h-1z M51,21h1v1h-1z M52,21h1v1h-1z M56,21h1v1h-1z M58,21h1v1h-1z M59,21h1v1h-1z M61,21h1v1h-1z M64,21h1v1h-1z M66,21h1v1h-1z M67,21h1v1h-1z M71,21h1v1h-1z M72,21h1v1h-1z M74,21h1v1h-1z M75,21h1v1h-1z M76,21h1v1h-1z M78,21h1v1h-1z M83,21h1v1h-1z M84,21h1v1h-1z M86,21h1v1h-1z M87,21h1v1h-1z M88,21h1v1h-1z M95,21h1v1h-1z M97,21h1v1h-1z M99,21h1v1h-1z M103,21h1v1h-1z M105,21h1v1h-1z M106,21h1v1h-1z M107,21h1v1h-1z M4,22h1v1h-1z M8,22h1v1h-1z M10,22h1v1h-1z M13,22h1v1h-1z M14,22h1v1h-1z M16,22h1v1h-1z M17,22h1v1h-1z M18,22h1v1h-1z M19,22h1v1h-1z M22,22h1v1h-1z M24,22h1v1h-1z M26,22h1v1h-1z M27,22h1v1h-1z M32,22h1v1h-1z M35,22h1v1h-1z M37,22h1v1h-1z M38,22h1v1h-1z M40,22h1v1h-1z M41,22h1v1h-1z M43,22h1v1h-1z M49,22h1v1h-1z M50,22h1v1h-1z M53,22h1v1h-1z M59,22h1v1h-1z M60,22h1v1h-1z M62,22h1v1h-1z M63,22h1v1h-1z M64,22h1v1h-1z M65,22h1v1h-1z M73,22h1v1h-1z M74,22h1v1h-1z M76,22h1v1h-1z M77,22h1v1h-1z M79,22h1v1h-1z M86,22h1v1h-1z M88,22h1v1h-1z M89,22h1v1h-1z M95,22h1v1h-1z M98,22h1v1h-1z M102,22h1v1h-1z M104,22h1v1h-1z M105,22h1v1h-1z M107,22h1v1h-1z M4,23h1v1h-1z M5,23h1v1h-1z M11,23h1v1h-1z M13,23h1v1h-1z M14,23h1v1h-1z M16,23h1v1h-1z M23,23h1v1h-1z M24,23h1v1h-1z M26,23h1v1h-1z M28,23h1v1h-1z M30,23h1v1h-1z M32,23h1v1h-1z M33,23h1v1h-1z M34,23h1v1h-1z M35,23h1v1h-1z M41,23h1v1h-1z M42,23h1v1h-1z M44,23h1v1h-1z M46,23h1v1h-1z M47,23h1v1h-1z M49,23h1v1h-1z M51,23h1v1h-1z M52,23h1v1h-1z M54,23h1v1h-1z M56,23h1v1h-1z M58,23h1v1h-1z M59,23h1v1h-1z M62,23h1v1h-1z M65,23h1v1h-1z M66,23h1v1h-1z M67,23h1v1h-1z M68,23h1v1h-1z M69,23h1v1h-1z M70,23h1v1h-1z M71,23h1v1h-1z M75,23h1v1h-1z M77,23h1v1h-1z M79,23h1v1h-1z M80,23h1v1h-1z M81,23h1v1h-1z M82,23h1v1h-1z M83,23h1v1h-1z M85,23h1v1h-1z M86,23h1v1h-1z M89,23h1v1h-1z M90,23h1v1h-1z M92,23h1v1h-1z M93,23h1v1h-1z M94,23h1v1h-1z M95,23h1v1h-1z M98,23h1v1h-1z M99,23h1v1h-1z M101,23h1v1h-1z M103,23h1v1h-1z M107,23h1v1h-1z M10,24h1v1h-1z M14,24h1v1h-1z M16,24h1v1h-1z M20,24h1v1h-1z M23,24h1v1h-1z M25,24h1v1h-1z M27,24h1v1h-1z M29,24h1v1h-1z M30,24h1v1h-1z M32,24h1v1h-1z M34,24h1v1h-1z M36,24h1v1h-1z M46,24h1v1h-1z M48,24h1v1h-1z M49,24h1v1h-1z M51,24h1v1h-1z M55,24h1v1h-1z M60,24h1v1h-1z M61,24h1v1h-1z M62,24h1v1h-1z M63,24h1v1h-1z M64,24h1v1h-1z M66,24h1v1h-1z M67,24h1v1h-1z M68,24h1v1h-1z M69,24h1v1h-1z M70,24h1v1h-1z M73,24h1v1h-1z M74,24h1v1h-1z M79,24h1v1h-1z M80,24h1v1h-1z M82,24h1v1h-1z M85,24h1v1h-1z M90,24h1v1h-1z M91,24h1v1h-1z M92,24h1v1h-1z M93,24h1v1h-1z M94,24h1v1h-1z M95,24h1v1h-1z M99,24h1v1h-1z M100,24h1v1h-1z M101,24h1v1h-1z M102,24h1v1h-1z M105,24h1v1h-1z M108,24h1v1h-1z M6,25h1v1h-1z M7,25h1v1h-1z M11,25h1v1h-1z M14,25h1v1h-1z M15,25h1v1h-1z M16,25h1v1h-1z M19,25h1v1h-1z M22,25h1v1h-1z M23,25h1v1h-1z M24,25h1v1h-1z M27,25h1v1h-1z M28,25h1v1h-1z M30,25h1v1h-1z M34,25h1v1h-1z M35,25h1v1h-1z M39,25h1v1h-1z M40,25h1v1h-1z M43,25h1v1h-1z M45,25h1v1h-1z M46,25h1v1h-1z M48,25h1v1h-1z M49,25h1v1h-1z M50,25h1v1h-1z M51,25h1v1h-1z M52,25h1v1h-1z M57,25h1v1h-1z M58,25h1v1h-1z M59,25h1v1h-1z M60,25h1v1h-1z M65,25h1v1h-1z M68,25h1v1h-1z M69,25h1v1h-1z M72,25h1v1h-1z M74,25h1v1h-1z M75,25h1v1h-1z M76,25h1v1h-1z M86,25h1v1h-1z M88,25h1v1h-1z M89,25h1v1h-1z M90,25h1v1h-1z M95,25h1v1h-1z M96,25h1v1h-1z M97,25h1v1h-1z M99,25h1v1h-1z M106,25h1v1h-1z M107,25h1v1h-1z M5,26h1v1h-1z M6,26h1v1h-1z M7,26h1v1h-1z M8,26h1v1h-1z M9,26h1v1h-1z M10,26h1v1h-1z M12,26h1v1h-1z M14,26h1v1h-1z M19,26h1v1h-1z M22,26h1v1h-1z M24,26h1v1h-1z M26,26h1v1h-1z M29,26h1v1h-1z M35,26h1v1h-1z M36,26h1v1h-1z M38,26h1v1h-1z M40,26h1v1h-1z M43,26h1v1h-1z M45,26h1v1h-1z M47,26h1v1h-1z M50,26h1v1h-1z M51,26h1v1h-1z M52,26h1v1h-1z M53,26h1v1h-1z M55,26h1v1h-1z M62,26h1v1h-1z M64,26h1v1h-1z M65,26h1v1h-1z M71,26h1v1h-1z M74,26h1v1h-1z M75,26h1v1h-1z M77,26h1v1h-1z M79,26h1v1h-1z M80,26h1v1h-1z M81,26h1v1h-1z M83,26h1v1h-1z M84,26h1v1h-1z M86,26h1v1h-1z M88,26h1v1h-1z M89,26h1v1h-1z M91,26h1v1h-1z M92,26h1v1h-1z M95,26h1v1h-1z M98,26h1v1h-1z M102,26h1v1h-1z M104,26h1v1h-1z M105,26h1v1h-1z M106,26h1v1h-1z M107,26h1v1h-1z M5,27h1v1h-1z M6,27h1v1h-1z M14,27h1v1h-1z M15,27h1v1h-1z M18,27h1v1h-1z M19,27h1v1h-1z M22,27h1v1h-1z M25,27h1v1h-1z M29,27h1v1h-1z M30,27h1v1h-1z M31,27h1v1h-1z M32,27h1v1h-1z M35,27h1v1h-1z M37,27h1v1h-1z M38,27h1v1h-1z M39,27h1v1h-1z M41,27h1v1h-1z M42,27h1v1h-1z M44,27h1v1h-1z M46,27h1v1h-1z M47,27h1v1h-1z M49,27h1v1h-1z M50,27h1v1h-1z M52,27h1v1h-1z M54,27h1v1h-1z M56,27h1v1h-1z M57,27h1v1h-1z M58,27h1v1h-1z M59,27h1v1h-1z M61,27h1v1h-1z M66,27h1v1h-1z M68,27h1v1h-1z M69,27h1v1h-1z M71,27h1v1h-1z M75,27h1v1h-1z M76,27h1v1h-1z M80,27h1v1h-1z M81,27h1v1h-1z M82,27h1v1h-1z M83,27h1v1h-1z M89,27h1v1h-1z M90,27h1v1h-1z M92,27h1v1h-1z M93,27h1v1h-1z M95,27h1v1h-1z M98,27h1v1h-1z M100,27h1v1h-1z M101,27h1v1h-1z M105,27h1v1h-1z M6,28h1v1h-1z M8,28h1v1h-1z M9,28h1v1h-1z M10,28h1v1h-1z M11,28h1v1h-1z M12,28h1v1h-1z M13,28h1v1h-1z M14,28h1v1h-1z M15,28h1v1h-1z M16,28h1v1h-1z M19,28h1v1h-1z M21,28h1v1h-1z M23,28h1v1h-1z M24,28h1v1h-1z M27,28h1v1h-1z M28,28h1v1h-1z M29,28h1v1h-1z M30,28h1v1h-1z M31,28h1v1h-1z M32,28h1v1h-1z M33,28h1v1h-1z M34,28h1v1h-1z M35,28h1v1h-1z M37,28h1v1h-1z M38,28h1v1h-1z M39,28h1v1h-1z M42,28h1v1h-1z M43,28h1v1h-1z M44,28h1v1h-1z M52,28h1v1h-1z M53,28h1v1h-1z M54,28h1v1h-1z M55,28h1v1h-1z M56,28h1v1h-1z M57,28h1v1h-1z M61,28h1v1h-1z M62,28h1v1h-1z M65,28h1v1h-1z M66,28h1v1h-1z M68,28h1v1h-1z M71,28h1v1h-1z M74,28h1v1h-1z M75,28h1v1h-1z M76,28h1v1h-1z M77,28h1v1h-1z M78,28h1v1h-1z M79,28h1v1h-1z M80,28h1v1h-1z M81,28h1v1h-1z M82,28h1v1h-1z M83,28h1v1h-1z M84,28h1v1h-1z M85,28h1v1h-1z M87,28h1v1h-1z M88,28h1v1h-1z M89,28h1v1h-1z M90,28h1v1h-1z M91,28h1v1h-1z M92,28h1v1h-1z M93,28h1v1h-1z M94,28h1v1h-1z M95,28h1v1h-1z M96,28h1v1h-1z M98,28h1v1h-1z M100,28h1v1h-1z M101,28h1v1h-1z M102,28h1v1h-1z M103,28h1v1h-1z M104,28h1v1h-1z M105,28h1v1h-1z M107,28h1v1h-1z M4,29h1v1h-1z M5,29h1v1h-1z M6,29h1v1h-1z M8,29h1v1h-1z M12,29h1v1h-1z M14,29h1v1h-1z M15,29h1v1h-1z M16,29h1v1h-1z M18,29h1v1h-1z M23,29h1v1h-1z M25,29h1v1h-1z M26,29h1v1h-1z M27,29h1v1h-1z M28,29h1v1h-1z M32,29h1v1h-1z M34,29h1v1h-1z M36,29h1v1h-1z M37,29h1v1h-1z M38,29h1v1h-1z M46,29h1v1h-1z M47,29h1v1h-1z M48,29h1v1h-1z M51,29h1v1h-1z M52,29h1v1h-1z M56,29h1v1h-1z M57,29h1v1h-1z M59,29h1v1h-1z M60,29h1v1h-1z M64,29h1v1h-1z M66,29h1v1h-1z M67,29h1v1h-1z M69,29h1v1h-1z M73,29h1v1h-1z M76,29h1v1h-1z M80,29h1v1h-1z M82,29h1v1h-1z M83,29h1v1h-1z M84,29h1v1h-1z M86,29h1v1h-1z M87,29h1v1h-1z M88,29h1v1h-1z M92,29h1v1h-1z M94,29h1v1h-1z M96,29h1v1h-1z M97,29h1v1h-1z M100,29h1v1h-1z M104,29h1v1h-1z M106,29h1v1h-1z M4,30h1v1h-1z M5,30h1v1h-1z M7,30h1v1h-1z M8,30h1v1h-1z M10,30h1v1h-1z M12,30h1v1h-1z M13,30h1v1h-1z M14,30h1v1h-1z M15,30h1v1h-1z M16,30h1v1h-1z M17,30h1v1h-1z M18,30h1v1h-1z M19,30h1v1h-1z M20,30h1v1h-1z M21,30h1v1h-1z M22,30h1v1h-1z M24,30h1v1h-1z M26,30h1v1h-1z M27,30h1v1h-1z M28,30h1v1h-1z M30,30h1v1h-1z M32,30h1v1h-1z M36,30h1v1h-1z M37,30h1v1h-1z M38,30h1v1h-1z M39,30h1v1h-1z M40,30h1v1h-1z M41,30h1v1h-1z M45,30h1v1h-1z M47,30h1v1h-1z M49,30h1v1h-1z M50,30h1v1h-1z M52,30h1v1h-1z M54,30h1v1h-1z M56,30h1v1h-1z M57,30h1v1h-1z M62,30h1v1h-1z M63,30h1v1h-1z M65,30h1v1h-1z M67,30h1v1h-1z M73,30h1v1h-1z M74,30h1v1h-1z M76,30h1v1h-1z M78,30h1v1h-1z M80,30h1v1h-1z M83,30h1v1h-1z M84,30h1v1h-1z M86,30h1v1h-1z M89,30h1v1h-1z M95,30h1v1h-1z M96,30h1v1h-1z M98,30h1v1h-1z M99,30h1v1h-1z M100,30h1v1h-1z M102,30h1v1h-1z M104,30h1v1h-1z M105,30h1v1h-1z M107,30h1v1h-1z M7,31h1v1h-1z M8,31h1v1h-1z M12,31h1v1h-1z M14,31h1v1h-1z M15,31h1v1h-1z M16,31h1v1h-1z M18,31h1v1h-1z M19,31h1v1h-1z M23,31h1v1h-1z M26,31h1v1h-1z M27,31h1v1h-1z M28,31h1v1h-1z M32,31h1v1h-1z M33,31h1v1h-1z M35,31h1v1h-1z M42,31h1v1h-1z M44,31h1v1h-1z M46,31h1v1h-1z M47,31h1v1h-1z M51,31h1v1h-1z M52,31h1v1h-1z M56,31h1v1h-1z M58,31h1v1h-1z M59,31h1v1h-1z M68,31h1v1h-1z M69,31h1v1h-1z M70,31h1v1h-1z M71,31h1v1h-1z M73,31h1v1h-1z M75,31h1v1h-1z M76,31h1v1h-1z M80,31h1v1h-1z M82,31h1v1h-1z M83,31h1v1h-1z M85,31h1v1h-1z M89,31h1v1h-1z M91,31h1v1h-1z M92,31h1v1h-1z M95,31h1v1h-1z M97,31h1v1h-1z M98,31h1v1h-1z M99,31h1v1h-1z M100,31h1v1h-1z M104,31h1v1h-1z M105,31h1v1h-1z M108,31h1v1h-1z M4,32h1v1h-1z M5,32h1v1h-1z M7,32h1v1h-1z M8,32h1v1h-1z M9,32h1v1h-1z M10,32h1v1h-1z M11,32h1v1h-1z M12,32h1v1h-1z M14,32h1v1h-1z M15,32h1v1h-1z M16,32h1v1h-1z M17,32h1v1h-1z M19,32h1v1h-1z M20,32h1v1h-1z M21,32h1v1h-1z M23,32h1v1h-1z M24,32h1v1h-1z M25,32h1v1h-1z M26,32h1v1h-1z M28,32h1v1h-1z M29,32h1v1h-1z M30,32h1v1h-1z M31,32h1v1h-1z M32,32h1v1h-1z M36,32h1v1h-1z M39,32h1v1h-1z M40,32h1v1h-1z M44,32h1v1h-1z M45,32h1v1h-1z M46,32h1v1h-1z M47,32h1v1h-1z M48,32h1v1h-1z M49,32h1v1h-1z M51,32h1v1h-1z M52,32h1v1h-1z M53,32h1v1h-1z M54,32h1v1h-1z M55,32h1v1h-1z M56,32h1v1h-1z M58,32h1v1h-1z M59,32h1v1h-1z M62,32h1v1h-1z M64,32h1v1h-1z M65,32h1v1h-1z M67,32h1v1h-1z M68,32h1v1h-1z M69,32h1v1h-1z M70,32h1v1h-1z M72,32h1v1h-1z M73,32h1v1h-1z M76,32h1v1h-1z M77,32h1v1h-1z M78,32h1v1h-1z M79,32h1v1h-1z M80,32h1v1h-1z M81,32h1v1h-1z M83,32h1v1h-1z M85,32h1v1h-1z M87,32h1v1h-1z M88,32h1v1h-1z M90,32h1v1h-1z M92,32h1v1h-1z M94,32h1v1h-1z M95,32h1v1h-1z M96,32h1v1h-1z M97,32h1v1h-1z M99,32h1v1h-1z M100,32h1v1h-1z M101,32h1v1h-1z M102,32h1v1h-1z M103,32h1v1h-1z M104,32h1v1h-1z M105,32h1v1h-1z M108,32h1v1h-1z M5,33h1v1h-1z M6,33h1v1h-1z M7,33h1v1h-1z M8,33h1v1h-1z M15,33h1v1h-1z M26,33h1v1h-1z M28,33h1v1h-1z M30,33h1v1h-1z M31,33h1v1h-1z M32,33h1v1h-1z M35,33h1v1h-1z M36,33h1v1h-1z M37,33h1v1h-1z M38,33h1v1h-1z M39,33h1v1h-1z M40,33h1v1h-1z M42,33h1v1h-1z M43,33h1v1h-1z M46,33h1v1h-1z M47,33h1v1h-1z M49,33h1v1h-1z M50,33h1v1h-1z M52,33h1v1h-1z M53,33h1v1h-1z M55,33h1v1h-1z M56,33h1v1h-1z M57,33h1v1h-1z M59,33h1v1h-1z M60,33h1v1h-1z M62,33h1v1h-1z M63,33h1v1h-1z M65,33h1v1h-1z M66,33h1v1h-1z M67,33h1v1h-1z M71,33h1v1h-1z M72,33h1v1h-1z M73,33h1v1h-1z M74,33h1v1h-1z M75,33h1v1h-1z M76,33h1v1h-1z M81,33h1v1h-1z M84,33h1v1h-1z M85,33h1v1h-1z M93,33h1v1h-1z M94,33h1v1h-1z M95,33h1v1h-1z M102,33h1v1h-1z M104,33h1v1h-1z M105,33h1v1h-1z M106,33h1v1h-1z M107,33h1v1h-1z M4,34h1v1h-1z M5,34h1v1h-1z M7,34h1v1h-1z M8,34h1v1h-1z M9,34h1v1h-1z M10,34h1v1h-1z M11,34h1v1h-1z M12,34h1v1h-1z M13,34h1v1h-1z M14,34h1v1h-1z M17,34h1v1h-1z M19,34h1v1h-1z M20,34h1v1h-1z M22,34h1v1h-1z M24,34h1v1h-1z M28,34h1v1h-1z M32,34h1v1h-1z M36,34h1v1h-1z M38,34h1v1h-1z M39,34h1v1h-1z M40,34h1v1h-1z M41,34h1v1h-1z M43,34h1v1h-1z M49,34h1v1h-1z M50,34h1v1h-1z M51,34h1v1h-1z M55,34h1v1h-1z M56,34h1v1h-1z M59,34h1v1h-1z M60,34h1v1h-1z M62,34h1v1h-1z M64,34h1v1h-1z M65,34h1v1h-1z M67,34h1v1h-1z M72,34h1v1h-1z M73,34h1v1h-1z M74,34h1v1h-1z M75,34h1v1h-1z M76,34h1v1h-1z M77,34h1v1h-1z M78,34h1v1h-1z M80,34h1v1h-1z M83,34h1v1h-1z M84,34h1v1h-1z M86,34h1v1h-1z M87,34h1v1h-1z M88,34h1v1h-1z M89,34h1v1h-1z M92,34h1v1h-1z M95,34h1v1h-1z M96,34h1v1h-1z M97,34h1v1h-1z M98,34h1v1h-1z M102,34h1v1h-1z M103,34h1v1h-1z M104,34h1v1h-1z M105,34h1v1h-1z M107,34h1v1h-1z M5,35h1v1h-1z M6,35h1v1h-1z M8,35h1v1h-1z M12,35h1v1h-1z M15,35h1v1h-1z M19,35h1v1h-1z M21,35h1v1h-1z M22,35h1v1h-1z M23,35h1v1h-1z M25,35h1v1h-1z M26,35h1v1h-1z M29,35h1v1h-1z M31,35h1v1h-1z M35,35h1v1h-1z M37,35h1v1h-1z M39,35h1v1h-1z M44,35h1v1h-1z M47,35h1v1h-1z M52,35h1v1h-1z M53,35h1v1h-1z M55,35h1v1h-1z M57,35h1v1h-1z M61,35h1v1h-1z M62,35h1v1h-1z M63,35h1v1h-1z M68,35h1v1h-1z M70,35h1v1h-1z M71,35h1v1h-1z M73,35h1v1h-1z M77,35h1v1h-1z M80,35h1v1h-1z M81,35h1v1h-1z M83,35h1v1h-1z M85,35h1v1h-1z M86,35h1v1h-1z M90,35h1v1h-1z M92,35h1v1h-1z M95,35h1v1h-1z M97,35h1v1h-1z M99,35h1v1h-1z M100,35h1v1h-1z M101,35h1v1h-1z M102,35h1v1h-1z M104,35h1v1h-1z M105,35h1v1h-1z M108,35h1v1h-1z M5,36h1v1h-1z M10,36h1v1h-1z M12,36h1v1h-1z M13,36h1v1h-1z M14,36h1v1h-1z M16,36h1v1h-1z M18,36h1v1h-1z M21,36h1v1h-1z M23,36h1v1h-1z M34,36h1v1h-1z M36,36h1v1h-1z M39,36h1v1h-1z M40,36h1v1h-1z M41,36h1v1h-1z M44,36h1v1h-1z M45,36h1v1h-1z M47,36h1v1h-1z M48,36h1v1h-1z M49,36h1v1h-1z M50,36h1v1h-1z M53,36h1v1h-1z M54,36h1v1h-1z M55,36h1v1h-1z M59,36h1v1h-1z M60,36h1v1h-1z M61,36h1v1h-1z M62,36h1v1h-1z M63,36h1v1h-1z M64,36h1v1h-1z M66,36h1v1h-1z M67,36h1v1h-1z M68,36h1v1h-1z M73,36h1v1h-1z M74,36h1v1h-1z M76,36h1v1h-1z M78,36h1v1h-1z M79,36h1v1h-1z M82,36h1v1h-1z M83,36h1v1h-1z M85,36h1v1h-1z M86,36h1v1h-1z M88,36h1v1h-1z M90,36h1v1h-1z M91,36h1v1h-1z M92,36h1v1h-1z M94,36h1v1h-1z M95,36h1v1h-1z M97,36h1v1h-1z M99,36h1v1h-1z M101,36h1v1h-1z M102,36h1v1h-1z M104,36h1v1h-1z M105,36h1v1h-1z M107,36h1v1h-1z M4,37h1v1h-1z M6,37h1v1h-1z M9,37h1v1h-1z M12,37h1v1h-1z M15,37h1v1h-1z M16,37h1v1h-1z M17,37h1v1h-1z M18,37h1v1h-1z M20,37h1v1h-1z M23,37h1v1h-1z M25,37h1v1h-1z M26,37h1v1h-1z M27,37h1v1h-1z M28,37h1v1h-1z M29,37h1v1h-1z M30,37h1v1h-1z M32,37h1v1h-1z M36,37h1v1h-1z M38,37h1v1h-1z M39,37h1v1h-1z M40,37h1v1h-1z M42,37h1v1h-1z M45,37h1v1h-1z M47,37h1v1h-1z M48,37h1v1h-1z M49,37h1v1h-1z M50,37h1v1h-1z M51,37h1v1h-1z M53,37h1v1h-1z M55,37h1v1h-1z M56,37h1v1h-1z M58,37h1v1h-1z M60,37h1v1h-1z M61,37h1v1h-1z M62,37h1v1h-1z M64,37h1v1h-1z M68,37h1v1h-1z M70,37h1v1h-1z M72,37h1v1h-1z M73,37h1v1h-1z M74,37h1v1h-1z M76,37h1v1h-1z M77,37h1v1h-1z M80,37h1v1h-1z M81,37h1v1h-1z M83,37h1v1h-1z M84,37h1v1h-1z M85,37h1v1h-1z M87,37h1v1h-1z M89,37h1v1h-1z M92,37h1v1h-1z M93,37h1v1h-1z M95,37h1v1h-1z M96,37h1v1h-1z M99,37h1v1h-1z M105,37h1v1h-1z M108,37h1v1h-1z M4,38h1v1h-1z M5,38h1v1h-1z M6,38h1v1h-1z M7,38h1v1h-1z M9,38h1v1h-1z M10,38h1v1h-1z M11,38h1v1h-1z M12,38h1v1h-1z M16,38h1v1h-1z M17,38h1v1h-1z M18,38h1v1h-1z M19,38h1v1h-1z M22,38h1v1h-1z M27,38h1v1h-1z M28,38h1v1h-1z M29,38h1v1h-1z M30,38h1v1h-1z M32,38h1v1h-1z M35,38h1v1h-1z M36,38h1v1h-1z M38,38h1v1h-1z M40,38h1v1h-1z M41,38h1v1h-1z M43,38h1v1h-1z M45,38h1v1h-1z M49,38h1v1h-1z M50,38h1v1h-1z M51,38h1v1h-1z M59,38h1v1h-1z M60,38h1v1h-1z M62,38h1v1h-1z M63,38h1v1h-1z M64,38h1v1h-1z M65,38h1v1h-1z M69,38h1v1h-1z M71,38h1v1h-1z M72,38h1v1h-1z M74,38h1v1h-1z M75,38h1v1h-1z M80,38h1v1h-1z M86,38h1v1h-1z M87,38h1v1h-1z M91,38h1v1h-1z M92,38h1v1h-1z M95,38h1v1h-1z M97,38h1v1h-1z M98,38h1v1h-1z M99,38h1v1h-1z M100,38h1v1h-1z M101,38h1v1h-1z M102,38h1v1h-1z M103,38h1v1h-1z M104,38h1v1h-1z M105,38h1v1h-1z M106,38h1v1h-1z M107,38h1v1h-1z M4,39h1v1h-1z M9,39h1v1h-1z M13,39h1v1h-1z M14,39h1v1h-1z M18,39h1v1h-1z M19,39h1v1h-1z M27,39h1v1h-1z M28,39h1v1h-1z M29,39h1v1h-1z M38,39h1v1h-1z M44,39h1v1h-1z M46,39h1v1h-1z M47,39h1v1h-1z M52,39h1v1h-1z M53,39h1v1h-1z M55,39h1v1h-1z M59,39h1v1h-1z M61,39h1v1h-1z M62,39h1v1h-1z M63,39h1v1h-1z M65,39h1v1h-1z M66,39h1v1h-1z M67,39h1v1h-1z M68,39h1v1h-1z M69,39h1v1h-1z M70,39h1v1h-1z M76,39h1v1h-1z M77,39h1v1h-1z M79,39h1v1h-1z M82,39h1v1h-1z M83,39h1v1h-1z M85,39h1v1h-1z M86,39h1v1h-1z M89,39h1v1h-1z M90,39h1v1h-1z M92,39h1v1h-1z M93,39h1v1h-1z M95,39h1v1h-1z M99,39h1v1h-1z M104,39h1v1h-1z M107,39h1v1h-1z M108,39h1v1h-1z M4,40h1v1h-1z M6,40h1v1h-1z M10,40h1v1h-1z M11,40h1v1h-1z M12,40h1v1h-1z M14,40h1v1h-1z M15,40h1v1h-1z M16,40h1v1h-1z M17,40h1v1h-1z M18,40h1v1h-1z M19,40h1v1h-1z M23,40h1v1h-1z M26,40h1v1h-1z M28,40h1v1h-1z M30,40h1v1h-1z M34,40h1v1h-1z M35,40h1v1h-1z M36,40h1v1h-1z M37,40h1v1h-1z M39,40h1v1h-1z M40,40h1v1h-1z M41,40h1v1h-1z M42,40h1v1h-1z M44,40h1v1h-1z M49,40h1v1h-1z M54,40h1v1h-1z M55,40h1v1h-1z M58,40h1v1h-1z M59,40h1v1h-1z M62,40h1v1h-1z M65,40h1v1h-1z M68,40h1v1h-1z M73,40h1v1h-1z M76,40h1v1h-1z M77,40h1v1h-1z M79,40h1v1h-1z M82,40h1v1h-1z M83,40h1v1h-1z M84,40h1v1h-1z M88,40h1v1h-1z M94,40h1v1h-1z M95,40h1v1h-1z M98,40h1v1h-1z M100,40h1v1h-1z M102,40h1v1h-1z M105,40h1v1h-1z M106,40h1v1h-1z M107,40h1v1h-1z M108,40h1v1h-1z M5,41h1v1h-1z M6,41h1v1h-1z M8,41h1v1h-1z M11,41h1v1h-1z M12,41h1v1h-1z M13,41h1v1h-1z M14,41h1v1h-1z M15,41h1v1h-1z M16,41h1v1h-1z M18,41h1v1h-1z M19,41h1v1h-1z M20,41h1v1h-1z M21,41h1v1h-1z M24,41h1v1h-1z M25,41h1v1h-1z M26,41h1v1h-1z M27,41h1v1h-1z M28,41h1v1h-1z M29,41h1v1h-1z M31,41h1v1h-1z M33,41h1v1h-1z M36,41h1v1h-1z M37,41h1v1h-1z M40,41h1v1h-1z M42,41h1v1h-1z M43,41h1v1h-1z M47,41h1v1h-1z M50,41h1v1h-1z M51,41h1v1h-1z M52,41h1v1h-1z M54,41h1v1h-1z M55,41h1v1h-1z M56,41h1v1h-1z M58,41h1v1h-1z M60,41h1v1h-1z M62,41h1v1h-1z M63,41h1v1h-1z M64,41h1v1h-1z M65,41h1v1h-1z M66,41h1v1h-1z M68,41h1v1h-1z M70,41h1v1h-1z M71,41h1v1h-1z M72,41h1v1h-1z M73,41h1v1h-1z M74,41h1v1h-1z M75,41h1v1h-1z M76,41h1v1h-1z M77,41h1v1h-1z M79,41h1v1h-1z M80,41h1v1h-1z M83,41h1v1h-1z M85,41h1v1h-1z M86,41h1v1h-1z M89,41h1v1h-1z M92,41h1v1h-1z M94,41h1v1h-1z M95,41h1v1h-1z M96,41h1v1h-1z M99,41h1v1h-1z M101,41h1v1h-1z M103,41h1v1h-1z M105,41h1v1h-1z M106,41h1v1h-1z M107,41h1v1h-1z M5,42h1v1h-1z M10,42h1v1h-1z M13,42h1v1h-1z M14,42h1v1h-1z M16,42h1v1h-1z M19,42h1v1h-1z M21,42h1v1h-1z M22,42h1v1h-1z M23,42h1v1h-1z M24,42h1v1h-1z M26,42h1v1h-1z M31,42h1v1h-1z M32,42h1v1h-1z M33,42h1v1h-1z M36,42h1v1h-1z M38,42h1v1h-1z M39,42h1v1h-1z M40,42h1v1h-1z M41,42h1v1h-1z M47,42h1v1h-1z M50,42h1v1h-1z M51,42h1v1h-1z M52,42h1v1h-1z M55,42h1v1h-1z M56,42h1v1h-1z M59,42h1v1h-1z M60,42h1v1h-1z M62,42h1v1h-1z M63,42h1v1h-1z M72,42h1v1h-1z M74,42h1v1h-1z M76,42h1v1h-1z M79,42h1v1h-1z M83,42h1v1h-1z M84,42h1v1h-1z M86,42h1v1h-1z M87,42h1v1h-1z M89,42h1v1h-1z M93,42h1v1h-1z M95,42h1v1h-1z M96,42h1v1h-1z M98,42h1v1h-1z M99,42h1v1h-1z M100,42h1v1h-1z M103,42h1v1h-1z M104,42h1v1h-1z M105,42h1v1h-1z M107,42h1v1h-1z M8,43h1v1h-1z M9,43h1v1h-1z M11,43h1v1h-1z M15,43h1v1h-1z M16,43h1v1h-1z M18,43h1v1h-1z M22,43h1v1h-1z M23,43h1v1h-1z M24,43h1v1h-1z M29,43h1v1h-1z M31,43h1v1h-1z M34,43h1v1h-1z M35,43h1v1h-1z M37,43h1v1h-1z M38,43h1v1h-1z M41,43h1v1h-1z M43,43h1v1h-1z M44,43h1v1h-1z M47,43h1v1h-1z M52,43h1v1h-1z M58,43h1v1h-1z M59,43h1v1h-1z M62,43h1v1h-1z M66,43h1v1h-1z M68,43h1v1h-1z M69,43h1v1h-1z M71,43h1v1h-1z M73,43h1v1h-1z M74,43h1v1h-1z M75,43h1v1h-1z M76,43h1v1h-1z M82,43h1v1h-1z M83,43h1v1h-1z M85,43h1v1h-1z M90,43h1v1h-1z M92,43h1v1h-1z M94,43h1v1h-1z M97,43h1v1h-1z M99,43h1v1h-1z M100,43h1v1h-1z M101,43h1v1h-1z M102,43h1v1h-1z M104,43h1v1h-1z M107,43h1v1h-1z M4,44h1v1h-1z M5,44h1v1h-1z M6,44h1v1h-1z M8,44h1v1h-1z M10,44h1v1h-1z M13,44h1v1h-1z M15,44h1v1h-1z M18,44h1v1h-1z M20,44h1v1h-1z M21,44h1v1h-1z M22,44h1v1h-1z M23,44h1v1h-1z M25,44h1v1h-1z M26,44h1v1h-1z M29,44h1v1h-1z M33,44h1v1h-1z M34,44h1v1h-1z M36,44h1v1h-1z M40,44h1v1h-1z M41,44h1v1h-1z M42,44h1v1h-1z M43,44h1v1h-1z M44,44h1v1h-1z M48,44h1v1h-1z M49,44h1v1h-1z M52,44h1v1h-1z M59,44h1v1h-1z M61,44h1v1h-1z M63,44h1v1h-1z M65,44h1v1h-1z M66,44h1v1h-1z M69,44h1v1h-1z M70,44h1v1h-1z M72,44h1v1h-1z M73,44h1v1h-1z M76,44h1v1h-1z M81,44h1v1h-1z M82,44h1v1h-1z M83,44h1v1h-1z M87,44h1v1h-1z M89,44h1v1h-1z M100,44h1v1h-1z M102,44h1v1h-1z M104,44h1v1h-1z M105,44h1v1h-1z M108,44h1v1h-1z M4,45h1v1h-1z M6,45h1v1h-1z M7,45h1v1h-1z M8,45h1v1h-1z M9,45h1v1h-1z M11,45h1v1h-1z M13,45h1v1h-1z M14,45h1v1h-1z M19,45h1v1h-1z M20,45h1v1h-1z M21,45h1v1h-1z M22,45h1v1h-1z M24,45h1v1h-1z M26,45h1v1h-1z M28,45h1v1h-1z M31,45h1v1h-1z M34,45h1v1h-1z M35,45h1v1h-1z M36,45h1v1h-1z M38,45h1v1h-1z M44,45h1v1h-1z M45,45h1v1h-1z M46,45h1v1h-1z M47,45h1v1h-1z M50,45h1v1h-1z M52,45h1v1h-1z M53,45h1v1h-1z M56,45h1v1h-1z M57,45h1v1h-1z M59,45h1v1h-1z M62,45h1v1h-1z M63,45h1v1h-1z M64,45h1v1h-1z M71,45h1v1h-1z M72,45h1v1h-1z M73,45h1v1h-1z M74,45h1v1h-1z M75,45h1v1h-1z M76,45h1v1h-1z M77,45h1v1h-1z M78,45h1v1h-1z M79,45h1v1h-1z M84,45h1v1h-1z M86,45h1v1h-1z M88,45h1v1h-1z M89,45h1v1h-1z M90,45h1v1h-1z M92,45h1v1h-1z M93,45h1v1h-1z M95,45h1v1h-1z M97,45h1v1h-1z M100,45h1v1h-1z M101,45h1v1h-1z M103,45h1v1h-1z M105,45h1v1h-1z M107,45h1v1h-1z M5,46h1v1h-1z M6,46h1v1h-1z M7,46h1v1h-1z M8,46h1v1h-1z M10,46h1v1h-1z M11,46h1v1h-1z M13,46h1v1h-1z M14,46h1v1h-1z M17,46h1v1h-1z M18,46h1v1h-1z M20,46h1v1h-1z M21,46h1v1h-1z M22,46h1v1h-1z M24,46h1v1h-1z M25,46h1v1h-1z M26,46h1v1h-1z M32,46h1v1h-1z M35,46h1v1h-1z M38,46h1v1h-1z M39,46h1v1h-1z M41,46h1v1h-1z M43,46h1v1h-1z M47,46h1v1h-1z M48,46h1v1h-1z M50,46h1v1h-1z M53,46h1v1h-1z M56,46h1v1h-1z M60,46h1v1h-1z M61,46h1v1h-1z M62,46h1v1h-1z M63,46h1v1h-1z M65,46h1v1h-1z M67,46h1v1h-1z M69,46h1v1h-1z M74,46h1v1h-1z M75,46h1v1h-1z M76,46h1v1h-1z M79,46h1v1h-1z M80,46h1v1h-1z M83,46h1v1h-1z M84,46h1v1h-1z M86,46h1v1h-1z M89,46h1v1h-1z M92,46h1v1h-1z M93,46h1v1h-1z M96,46h1v1h-1z M98,46h1v1h-1z M100,46h1v1h-1z M101,46h1v1h-1z M104,46h1v1h-1z M106,46h1v1h-1z M6,47h1v1h-1z M7,47h1v1h-1z M8,47h1v1h-1z M9,47h1v1h-1z M11,47h1v1h-1z M12,47h1v1h-1z M14,47h1v1h-1z M16,47h1v1h-1z M24,47h1v1h-1z M25,47h1v1h-1z M27,47h1v1h-1z M28,47h1v1h-1z M29,47h1v1h-1z M33,47h1v1h-1z M35,47h1v1h-1z M37,47h1v1h-1z M38,47h1v1h-1z M44,47h1v1h-1z M47,47h1v1h-1z M49,47h1v1h-1z M51,47h1v1h-1z M52,47h1v1h-1z M53,47h1v1h-1z M57,47h1v1h-1z M59,47h1v1h-1z M61,47h1v1h-1z M65,47h1v1h-1z M68,47h1v1h-1z M70,47h1v1h-1z M71,47h1v1h-1z M73,47h1v1h-1z M75,47h1v1h-1z M76,47h1v1h-1z M77,47h1v1h-1z M79,47h1v1h-1z M82,47h1v1h-1z M85,47h1v1h-1z M86,47h1v1h-1z M89,47h1v1h-1z M92,47h1v1h-1z M93,47h1v1h-1z M94,47h1v1h-1z M95,47h1v1h-1z M98,47h1v1h-1z M99,47h1v1h-1z M100,47h1v1h-1z M101,47h1v1h-1z M102,47h1v1h-1z M104,47h1v1h-1z M108,47h1v1h-1z M4,48h1v1h-1z M6,48h1v1h-1z M9,48h1v1h-1z M10,48h1v1h-1z M14,48h1v1h-1z M17,48h1v1h-1z M18,48h1v1h-1z M21,48h1v1h-1z M24,48h1v1h-1z M26,48h1v1h-1z M30,48h1v1h-1z M31,48h1v1h-1z M33,48h1v1h-1z M35,48h1v1h-1z M41,48h1v1h-1z M43,48h1v1h-1z M44,48h1v1h-1z M46,48h1v1h-1z M47,48h1v1h-1z M50,48h1v1h-1z M52,48h1v1h-1z M57,48h1v1h-1z M58,48h1v1h-1z M60,48h1v1h-1z M61,48h1v1h-1z M66,48h1v1h-1z M68,48h1v1h-1z M72,48h1v1h-1z M73,48h1v1h-1z M79,48h1v1h-1z M83,48h1v1h-1z M84,48h1v1h-1z M85,48h1v1h-1z M88,48h1v1h-1z M90,48h1v1h-1z M92,48h1v1h-1z M93,48h1v1h-1z M94,48h1v1h-1z M95,48h1v1h-1z M96,48h1v1h-1z M97,48h1v1h-1z M102,48h1v1h-1z M104,48h1v1h-1z M106,48h1v1h-1z M107,48h1v1h-1z M108,48h1v1h-1z M4,49h1v1h-1z M7,49h1v1h-1z M12,49h1v1h-1z M17,49h1v1h-1z M18,49h1v1h-1z M22,49h1v1h-1z M24,49h1v1h-1z M25,49h1v1h-1z M26,49h1v1h-1z M30,49h1v1h-1z M31,49h1v1h-1z M32,49h1v1h-1z M33,49h1v1h-1z M36,49h1v1h-1z M38,49h1v1h-1z M39,49h1v1h-1z M41,49h1v1h-1z M42,49h1v1h-1z M44,49h1v1h-1z M47,49h1v1h-1z M48,49h1v1h-1z M52,49h1v1h-1z M53,49h1v1h-1z M54,49h1v1h-1z M55,49h1v1h-1z M56,49h1v1h-1z M57,49h1v1h-1z M58,49h1v1h-1z M59,49h1v1h-1z M60,49h1v1h-1z M67,49h1v1h-1z M69,49h1v1h-1z M70,49h1v1h-1z M71,49h1v1h-1z M74,49h1v1h-1z M75,49h1v1h-1z M77,49h1v1h-1z M78,49h1v1h-1z M79,49h1v1h-1z M80,49h1v1h-1z M81,49h1v1h-1z M83,49h1v1h-1z M86,49h1v1h-1z M87,49h1v1h-1z M88,49h1v1h-1z M89,49h1v1h-1z M90,49h1v1h-1z M92,49h1v1h-1z M93,49h1v1h-1z M96,49h1v1h-1z M101,49h1v1h-1z M106,49h1v1h-1z M107,49h1v1h-1z M108,49h1v1h-1z M8,50h1v1h-1z M10,50h1v1h-1z M13,50h1v1h-1z M14,50h1v1h-1z M16,50h1v1h-1z M21,50h1v1h-1z M23,50h1v1h-1z M24,50h1v1h-1z M26,50h1v1h-1z M27,50h1v1h-1z M31,50h1v1h-1z M32,50h1v1h-1z M38,50h1v1h-1z M39,50h1v1h-1z M43,50h1v1h-1z M44,50h1v1h-1z M47,50h1v1h-1z M48,50h1v1h-1z M50,50h1v1h-1z M53,50h1v1h-1z M54,50h1v1h-1z M56,50h1v1h-1z M60,50h1v1h-1z M61,50h1v1h-1z M62,50h1v1h-1z M63,50h1v1h-1z M65,50h1v1h-1z M71,50h1v1h-1z M72,50h1v1h-1z M74,50h1v1h-1z M75,50h1v1h-1z M77,50h1v1h-1z M79,50h1v1h-1z M80,50h1v1h-1z M83,50h1v1h-1z M84,50h1v1h-1z M86,50h1v1h-1z M91,50h1v1h-1z M92,50h1v1h-1z M95,50h1v1h-1z M97,50h1v1h-1z M98,50h1v1h-1z M103,50h1v1h-1z M104,50h1v1h-1z M105,50h1v1h-1z M106,50h1v1h-1z M107,50h1v1h-1z M6,51h1v1h-1z M9,51h1v1h-1z M12,51h1v1h-1z M14,51h1v1h-1z M16,51h1v1h-1z M18,51h1v1h-1z M20,51h1v1h-1z M21,51h1v1h-1z M23,51h1v1h-1z M27,51h1v1h-1z M28,51h1v1h-1z M31,51h1v1h-1z M33,51h1v1h-1z M35,51h1v1h-1z M38,51h1v1h-1z M42,51h1v1h-1z M44,51h1v1h-1z M46,51h1v1h-1z M47,51h1v1h-1z M50,51h1v1h-1z M52,51h1v1h-1z M53,51h1v1h-1z M58,51h1v1h-1z M59,51h1v1h-1z M67,51h1v1h-1z M68,51h1v1h-1z M69,51h1v1h-1z M70,51h1v1h-1z M71,51h1v1h-1z M73,51h1v1h-1z M74,51h1v1h-1z M75,51h1v1h-1z M76,51h1v1h-1z M77,51h1v1h-1z M81,51h1v1h-1z M82,51h1v1h-1z M83,51h1v1h-1z M85,51h1v1h-1z M89,51h1v1h-1z M90,51h1v1h-1z M92,51h1v1h-1z M93,51h1v1h-1z M94,51h1v1h-1z M95,51h1v1h-1z M99,51h1v1h-1z M101,51h1v1h-1z M104,51h1v1h-1z M107,51h1v1h-1z M108,51h1v1h-1z M4,52h1v1h-1z M5,52h1v1h-1z M8,52h1v1h-1z M9,52h1v1h-1z M10,52h1v1h-1z M11,52h1v1h-1z M12,52h1v1h-1z M15,52h1v1h-1z M17,52h1v1h-1z M19,52h1v1h-1z M21,52h1v1h-1z M23,52h1v1h-1z M24,52h1v1h-1z M25,52h1v1h-1z M28,52h1v1h-1z M29,52h1v1h-1z M30,52h1v1h-1z M31,52h1v1h-1z M32,52h1v1h-1z M33,52h1v1h-1z M34,52h1v1h-1z M40,52h1v1h-1z M43,52h1v1h-1z M44,52h1v1h-1z M45,52h1v1h-1z M47,52h1v1h-1z M49,52h1v1h-1z M50,52h1v1h-1z M52,52h1v1h-1z M53,52h1v1h-1z M54,52h1v1h-1z M55,52h1v1h-1z M56,52h1v1h-1z M58,52h1v1h-1z M61,52h1v1h-1z M66,52h1v1h-1z M68,52h1v1h-1z M70,52h1v1h-1z M71,52h1v1h-1z M72,52h1v1h-1z M76,52h1v1h-1z M77,52h1v1h-1z M78,52h1v1h-1z M79,52h1v1h-1z M80,52h1v1h-1z M81,52h1v1h-1z M82,52h1v1h-1z M83,52h1v1h-1z M85,52h1v1h-1z M90,52h1v1h-1z M91,52h1v1h-1z M92,52h1v1h-1z M93,52h1v1h-1z M94,52h1v1h-1z M97,52h1v1h-1z M100,52h1v1h-1z M101,52h1v1h-1z M102,52h1v1h-1z M103,52h1v1h-1z M104,52h1v1h-1z M106,52h1v1h-1z M107,52h1v1h-1z M108,52h1v1h-1z M7,53h1v1h-1z M8,53h1v1h-1z M12,53h1v1h-1z M16,53h1v1h-1z M17,53h1v1h-1z M20,53h1v1h-1z M21,53h1v1h-1z M26,53h1v1h-1z M27,53h1v1h-1z M28,53h1v1h-1z M32,53h1v1h-1z M35,53h1v1h-1z M37,53h1v1h-1z M38,53h1v1h-1z M40,53h1v1h-1z M41,53h1v1h-1z M44,53h1v1h-1z M46,53h1v1h-1z M48,53h1v1h-1z M50,53h1v1h-1z M52,53h1v1h-1z M56,53h1v1h-1z M57,53h1v1h-1z M58,53h1v1h-1z M64,53h1v1h-1z M65,53h1v1h-1z M66,53h1v1h-1z M67,53h1v1h-1z M68,53h1v1h-1z M69,53h1v1h-1z M70,53h1v1h-1z M71,53h1v1h-1z M72,53h1v1h-1z M73,53h1v1h-1z M75,53h1v1h-1z M76,53h1v1h-1z M80,53h1v1h-1z M83,53h1v1h-1z M84,53h1v1h-1z M85,53h1v1h-1z M87,53h1v1h-1z M89,53h1v1h-1z M93,53h1v1h-1z M95,53h1v1h-1z M96,53h1v1h-1z M100,53h1v1h-1z M104,53h1v1h-1z M105,53h1v1h-1z M4,54h1v1h-1z M6,54h1v1h-1z M8,54h1v1h-1z M10,54h1v1h-1z M12,54h1v1h-1z M14,54h1v1h-1z M15,54h1v1h-1z M16,54h1v1h-1z M17,54h1v1h-1z M18,54h1v1h-1z M22,54h1v1h-1z M23,54h1v1h-1z M24,54h1v1h-1z M25,54h1v1h-1z M28,54h1v1h-1z M30,54h1v1h-1z M32,54h1v1h-1z M36,54h1v1h-1z M38,54h1v1h-1z M39,54h1v1h-1z M40,54h1v1h-1z M41,54h1v1h-1z M43,54h1v1h-1z M47,54h1v1h-1z M48,54h1v1h-1z M50,54h1v1h-1z M51,54h1v1h-1z M52,54h1v1h-1z M54,54h1v1h-1z M56,54h1v1h-1z M60,54h1v1h-1z M62,54h1v1h-1z M65,54h1v1h-1z M71,54h1v1h-1z M72,54h1v1h-1z M74,54h1v1h-1z M75,54h1v1h-1z M76,54h1v1h-1z M78,54h1v1h-1z M80,54h1v1h-1z M84,54h1v1h-1z M86,54h1v1h-1z M87,54h1v1h-1z M89,54h1v1h-1z M95,54h1v1h-1z M98,54h1v1h-1z M99,54h1v1h-1z M100,54h1v1h-1z M102,54h1v1h-1z M104,54h1v1h-1z M106,54h1v1h-1z M4,55h1v1h-1z M6,55h1v1h-1z M7,55h1v1h-1z M8,55h1v1h-1z M12,55h1v1h-1z M14,55h1v1h-1z M16,55h1v1h-1z M17,55h1v1h-1z M18,55h1v1h-1z M19,55h1v1h-1z M20,55h1v1h-1z M21,55h1v1h-1z M23,55h1v1h-1z M25,55h1v1h-1z M27,55h1v1h-1z M28,55h1v1h-1z M32,55h1v1h-1z M34,55h1v1h-1z M38,55h1v1h-1z M42,55h1v1h-1z M44,55h1v1h-1z M45,55h1v1h-1z M46,55h1v1h-1z M47,55h1v1h-1z M52,55h1v1h-1z M56,55h1v1h-1z M58,55h1v1h-1z M59,55h1v1h-1z M61,55h1v1h-1z M65,55h1v1h-1z M66,55h1v1h-1z M67,55h1v1h-1z M68,55h1v1h-1z M70,55h1v1h-1z M73,55h1v1h-1z M76,55h1v1h-1z M80,55h1v1h-1z M81,55h1v1h-1z M82,55h1v1h-1z M83,55h1v1h-1z M85,55h1v1h-1z M86,55h1v1h-1z M92,55h1v1h-1z M93,55h1v1h-1z M95,55h1v1h-1z M98,55h1v1h-1z M100,55h1v1h-1z M104,55h1v1h-1z M107,55h1v1h-1z M108,55h1v1h-1z M4,56h1v1h-1z M7,56h1v1h-1z M8,56h1v1h-1z M9,56h1v1h-1z M10,56h1v1h-1z M11,56h1v1h-1z M12,56h1v1h-1z M15,56h1v1h-1z M17,56h1v1h-1z M23,56h1v1h-1z M25,56h1v1h-1z M27,56h1v1h-1z M28,56h1v1h-1z M29,56h1v1h-1z M30,56h1v1h-1z M31,56h1v1h-1z M32,56h1v1h-1z M34,56h1v1h-1z M35,56h1v1h-1z M36,56h1v1h-1z M39,56h1v1h-1z M41,56h1v1h-1z M42,56h1v1h-1z M43,56h1v1h-1z M45,56h1v1h-1z M46,56h1v1h-1z M50,56h1v1h-1z M51,56h1v1h-1z M52,56h1v1h-1z M53,56h1v1h-1z M54,56h1v1h-1z M55,56h1v1h-1z M56,56h1v1h-1z M57,56h1v1h-1z M58,56h1v1h-1z M64,56h1v1h-1z M65,56h1v1h-1z M66,56h1v1h-1z M67,56h1v1h-1z M68,56h1v1h-1z M70,56h1v1h-1z M71,56h1v1h-1z M72,56h1v1h-1z M73,56h1v1h-1z M75,56h1v1h-1z M76,56h1v1h-1z M77,56h1v1h-1z M78,56h1v1h-1z M79,56h1v1h-1z M80,56h1v1h-1z M81,56h1v1h-1z M82,56h1v1h-1z M83,56h1v1h-1z M84,56h1v1h-1z M86,56h1v1h-1z M88,56h1v1h-1z M89,56h1v1h-1z M90,56h1v1h-1z M99,56h1v1h-1z M100,56h1v1h-1z M101,56h1v1h-1z M102,56h1v1h-1z M103,56h1v1h-1z M104,56h1v1h-1z M105,56h1v1h-1z M106,56h1v1h-1z M108,56h1v1h-1z M5,57h1v1h-1z M6,57h1v1h-1z M7,57h1v1h-1z M9,57h1v1h-1z M12,57h1v1h-1z M13,57h1v1h-1z M14,57h1v1h-1z M17,57h1v1h-1z M18,57h1v1h-1z M19,57h1v1h-1z M22,57h1v1h-1z M26,57h1v1h-1z M31,57h1v1h-1z M33,57h1v1h-1z M36,57h1v1h-1z M37,57h1v1h-1z M38,57h1v1h-1z M41,57h1v1h-1z M42,57h1v1h-1z M43,57h1v1h-1z M46,57h1v1h-1z M47,57h1v1h-1z M48,57h1v1h-1z M49,57h1v1h-1z M50,57h1v1h-1z M51,57h1v1h-1z M54,57h1v1h-1z M57,57h1v1h-1z M58,57h1v1h-1z M60,57h1v1h-1z M61,57h1v1h-1z M67,57h1v1h-1z M71,57h1v1h-1z M72,57h1v1h-1z M73,57h1v1h-1z M74,57h1v1h-1z M75,57h1v1h-1z M76,57h1v1h-1z M78,57h1v1h-1z M82,57h1v1h-1z M84,57h1v1h-1z M86,57h1v1h-1z M90,57h1v1h-1z M91,57h1v1h-1z M94,57h1v1h-1z M100,57h1v1h-1z M102,57h1v1h-1z M103,57h1v1h-1z M104,57h1v1h-1z M105,57h1v1h-1z M106,57h1v1h-1z M107,57h1v1h-1z M6,58h1v1h-1z M7,58h1v1h-1z M8,58h1v1h-1z M9,58h1v1h-1z M10,58h1v1h-1z M12,58h1v1h-1z M18,58h1v1h-1z M19,58h1v1h-1z M20,58h1v1h-1z M22,58h1v1h-1z M23,58h1v1h-1z M29,58h1v1h-1z M31,58h1v1h-1z M32,58h1v1h-1z M35,58h1v1h-1z M37,58h1v1h-1z M38,58h1v1h-1z M39,58h1v1h-1z M41,58h1v1h-1z M47,58h1v1h-1z M48,58h1v1h-1z M50,58h1v1h-1z M53,58h1v1h-1z M55,58h1v1h-1z M60,58h1v1h-1z M62,58h1v1h-1z M65,58h1v1h-1z M67,58h1v1h-1z M71,58h1v1h-1z M72,58h1v1h-1z M73,58h1v1h-1z M74,58h1v1h-1z M77,58h1v1h-1z M78,58h1v1h-1z M79,58h1v1h-1z M81,58h1v1h-1z M84,58h1v1h-1z M86,58h1v1h-1z M87,58h1v1h-1z M98,58h1v1h-1z M99,58h1v1h-1z M101,58h1v1h-1z M102,58h1v1h-1z M103,58h1v1h-1z M105,58h1v1h-1z M107,58h1v1h-1z M5,59h1v1h-1z M8,59h1v1h-1z M9,59h1v1h-1z M11,59h1v1h-1z M12,59h1v1h-1z M13,59h1v1h-1z M15,59h1v1h-1z M16,59h1v1h-1z M18,59h1v1h-1z M21,59h1v1h-1z M22,59h1v1h-1z M24,59h1v1h-1z M28,59h1v1h-1z M29,59h1v1h-1z M33,59h1v1h-1z M35,59h1v1h-1z M41,59h1v1h-1z M43,59h1v1h-1z M44,59h1v1h-1z M45,59h1v1h-1z M46,59h1v1h-1z M47,59h1v1h-1z M52,59h1v1h-1z M55,59h1v1h-1z M56,59h1v1h-1z M57,59h1v1h-1z M58,59h1v1h-1z M59,59h1v1h-1z M62,59h1v1h-1z M66,59h1v1h-1z M67,59h1v1h-1z M68,59h1v1h-1z M69,59h1v1h-1z M71,59h1v1h-1z M76,59h1v1h-1z M77,59h1v1h-1z M78,59h1v1h-1z M80,59h1v1h-1z M81,59h1v1h-1z M82,59h1v1h-1z M83,59h1v1h-1z M86,59h1v1h-1z M89,59h1v1h-1z M90,59h1v1h-1z M92,59h1v1h-1z M95,59h1v1h-1z M97,59h1v1h-1z M99,59h1v1h-1z M103,59h1v1h-1z M104,59h1v1h-1z M105,59h1v1h-1z M107,59h1v1h-1z M108,59h1v1h-1z M4,60h1v1h-1z M7,60h1v1h-1z M8,60h1v1h-1z M10,60h1v1h-1z M11,60h1v1h-1z M13,60h1v1h-1z M14,60h1v1h-1z M15,60h1v1h-1z M16,60h1v1h-1z M18,60h1v1h-1z M19,60h1v1h-1z M20,60h1v1h-1z M24,60h1v1h-1z M26,60h1v1h-1z M27,60h1v1h-1z M30,60h1v1h-1z M31,60h1v1h-1z M32,60h1v1h-1z M33,60h1v1h-1z M34,60h1v1h-1z M35,60h1v1h-1z M36,60h1v1h-1z M37,60h1v1h-1z M38,60h1v1h-1z M39,60h1v1h-1z M41,60h1v1h-1z M42,60h1v1h-1z M43,60h1v1h-1z M45,60h1v1h-1z M46,60h1v1h-1z M49,60h1v1h-1z M51,60h1v1h-1z M52,60h1v1h-1z M53,60h1v1h-1z M54,60h1v1h-1z M58,60h1v1h-1z M62,60h1v1h-1z M64,60h1v1h-1z M65,60h1v1h-1z M66,60h1v1h-1z M69,60h1v1h-1z M70,60h1v1h-1z M73,60h1v1h-1z M76,60h1v1h-1z M78,60h1v1h-1z M79,60h1v1h-1z M80,60h1v1h-1z M87,60h1v1h-1z M89,60h1v1h-1z M91,60h1v1h-1z M92,60h1v1h-1z M93,60h1v1h-1z M101,60h1v1h-1z M103,60h1v1h-1z M105,60h1v1h-1z M107,60h1v1h-1z M108,60h1v1h-1z M4,61h1v1h-1z M5,61h1v1h-1z M6,61h1v1h-1z M8,61h1v1h-1z M9,61h1v1h-1z M12,61h1v1h-1z M13,61h1v1h-1z M14,61h1v1h-1z M15,61h1v1h-1z M16,61h1v1h-1z M17,61h1v1h-1z M18,61h1v1h-1z M19,61h1v1h-1z M21,61h1v1h-1z M29,61h1v1h-1z M31,61h1v1h-1z M34,61h1v1h-1z M36,61h1v1h-1z M38,61h1v1h-1z M42,61h1v1h-1z M43,61h1v1h-1z M45,61h1v1h-1z M49,61h1v1h-1z M51,61h1v1h-1z M55,61h1v1h-1z M57,61h1v1h-1z M62,61h1v1h-1z M64,61h1v1h-1z M65,61h1v1h-1z M67,61h1v1h-1z M75,61h1v1h-1z M76,61h1v1h-1z M81,61h1v1h-1z M85,61h1v1h-1z M87,61h1v1h-1z M88,61h1v1h-1z M89,61h1v1h-1z M90,61h1v1h-1z M91,61h1v1h-1z M92,61h1v1h-1z M93,61h1v1h-1z M94,61h1v1h-1z M95,61h1v1h-1z M96,61h1v1h-1z M99,61h1v1h-1z M100,61h1v1h-1z M102,61h1v1h-1z M104,61h1v1h-1z M105,61h1v1h-1z M106,61h1v1h-1z M107,61h1v1h-1z M7,62h1v1h-1z M8,62h1v1h-1z M10,62h1v1h-1z M11,62h1v1h-1z M14,62h1v1h-1z M16,62h1v1h-1z M21,62h1v1h-1z M23,62h1v1h-1z M25,62h1v1h-1z M26,62h1v1h-1z M30,62h1v1h-1z M32,62h1v1h-1z M33,62h1v1h-1z M35,62h1v1h-1z M38,62h1v1h-1z M39,62h1v1h-1z M40,62h1v1h-1z M41,62h1v1h-1z M45,62h1v1h-1z M48,62h1v1h-1z M50,62h1v1h-1z M51,62h1v1h-1z M55,62h1v1h-1z M62,62h1v1h-1z M64,62h1v1h-1z M65,62h1v1h-1z M67,62h1v1h-1z M68,62h1v1h-1z M73,62h1v1h-1z M74,62h1v1h-1z M77,62h1v1h-1z M83,62h1v1h-1z M84,62h1v1h-1z M86,62h1v1h-1z M89,62h1v1h-1z M91,62h1v1h-1z M95,62h1v1h-1z M96,62h1v1h-1z M98,62h1v1h-1z M99,62h1v1h-1z M100,62h1v1h-1z M103,62h1v1h-1z M105,62h1v1h-1z M106,62h1v1h-1z M107,62h1v1h-1z M4,63h1v1h-1z M5,63h1v1h-1z M6,63h1v1h-1z M8,63h1v1h-1z M9,63h1v1h-1z M12,63h1v1h-1z M13,63h1v1h-1z M14,63h1v1h-1z M15,63h1v1h-1z M16,63h1v1h-1z M17,63h1v1h-1z M20,63h1v1h-1z M22,63h1v1h-1z M23,63h1v1h-1z M24,63h1v1h-1z M25,63h1v1h-1z M29,63h1v1h-1z M32,63h1v1h-1z M33,63h1v1h-1z M34,63h1v1h-1z M35,63h1v1h-1z M38,63h1v1h-1z M39,63h1v1h-1z M43,63h1v1h-1z M44,63h1v1h-1z M46,63h1v1h-1z M47,63h1v1h-1z M49,63h1v1h-1z M51,63h1v1h-1z M52,63h1v1h-1z M54,63h1v1h-1z M56,63h1v1h-1z M57,63h1v1h-1z M58,63h1v1h-1z M59,63h1v1h-1z M62,63h1v1h-1z M68,63h1v1h-1z M69,63h1v1h-1z M71,63h1v1h-1z M75,63h1v1h-1z M79,63h1v1h-1z M81,63h1v1h-1z M82,63h1v1h-1z M83,63h1v1h-1z M85,63h1v1h-1z M89,63h1v1h-1z M90,63h1v1h-1z M91,63h1v1h-1z M92,63h1v1h-1z M95,63h1v1h-1z M98,63h1v1h-1z M100,63h1v1h-1z M101,63h1v1h-1z M4,64h1v1h-1z M5,64h1v1h-1z M6,64h1v1h-1z M7,64h1v1h-1z M10,64h1v1h-1z M11,64h1v1h-1z M12,64h1v1h-1z M13,64h1v1h-1z M14,64h1v1h-1z M20,64h1v1h-1z M21,64h1v1h-1z M22,64h1v1h-1z M28,64h1v1h-1z M29,64h1v1h-1z M30,64h1v1h-1z M33,64h1v1h-1z M35,64h1v1h-1z M36,64h1v1h-1z M39,64h1v1h-1z M40,64h1v1h-1z M41,64h1v1h-1z M43,64h1v1h-1z M46,64h1v1h-1z M47,64h1v1h-1z M48,64h1v1h-1z M54,64h1v1h-1z M55,64h1v1h-1z M56,64h1v1h-1z M58,64h1v1h-1z M59,64h1v1h-1z M60,64h1v1h-1z M61,64h1v1h-1z M63,64h1v1h-1z M64,64h1v1h-1z M65,64h1v1h-1z M66,64h1v1h-1z M67,64h1v1h-1z M68,64h1v1h-1z M69,64h1v1h-1z M71,64h1v1h-1z M73,64h1v1h-1z M74,64h1v1h-1z M75,64h1v1h-1z M78,64h1v1h-1z M79,64h1v1h-1z M81,64h1v1h-1z M82,64h1v1h-1z M83,64h1v1h-1z M89,64h1v1h-1z M91,64h1v1h-1z M93,64h1v1h-1z M94,64h1v1h-1z M95,64h1v1h-1z M96,64h1v1h-1z M97,64h1v1h-1z M99,64h1v1h-1z M101,64h1v1h-1z M105,64h1v1h-1z M106,64h1v1h-1z M107,64h1v1h-1z M108,64h1v1h-1z M7,65h1v1h-1z M11,65h1v1h-1z M13,65h1v1h-1z M16,65h1v1h-1z M17,65h1v1h-1z M19,65h1v1h-1z M22,65h1v1h-1z M23,65h1v1h-1z M24,65h1v1h-1z M26,65h1v1h-1z M27,65h1v1h-1z M31,65h1v1h-1z M33,65h1v1h-1z M35,65h1v1h-1z M37,65h1v1h-1z M39,65h1v1h-1z M40,65h1v1h-1z M41,65h1v1h-1z M42,65h1v1h-1z M43,65h1v1h-1z M46,65h1v1h-1z M47,65h1v1h-1z M48,65h1v1h-1z M50,65h1v1h-1z M52,65h1v1h-1z M53,65h1v1h-1z M54,65h1v1h-1z M57,65h1v1h-1z M60,65h1v1h-1z M62,65h1v1h-1z M63,65h1v1h-1z M64,65h1v1h-1z M68,65h1v1h-1z M70,65h1v1h-1z M71,65h1v1h-1z M72,65h1v1h-1z M73,65h1v1h-1z M74,65h1v1h-1z M75,65h1v1h-1z M76,65h1v1h-1z M77,65h1v1h-1z M78,65h1v1h-1z M79,65h1v1h-1z M81,65h1v1h-1z M82,65h1v1h-1z M83,65h1v1h-1z M84,65h1v1h-1z M85,65h1v1h-1z M88,65h1v1h-1z M89,65h1v1h-1z M90,65h1v1h-1z M92,65h1v1h-1z M93,65h1v1h-1z M94,65h1v1h-1z M95,65h1v1h-1z M97,65h1v1h-1z M98,65h1v1h-1z M99,65h1v1h-1z M100,65h1v1h-1z M102,65h1v1h-1z M103,65h1v1h-1z M104,65h1v1h-1z M105,65h1v1h-1z M106,65h1v1h-1z M107,65h1v1h-1z M4,66h1v1h-1z M5,66h1v1h-1z M6,66h1v1h-1z M8,66h1v1h-1z M9,66h1v1h-1z M10,66h1v1h-1z M14,66h1v1h-1z M15,66h1v1h-1z M16,66h1v1h-1z M19,66h1v1h-1z M25,66h1v1h-1z M29,66h1v1h-1z M30,66h1v1h-1z M38,66h1v1h-1z M50,66h1v1h-1z M55,66h1v1h-1z M56,66h1v1h-1z M59,66h1v1h-1z M62,66h1v1h-1z M63,66h1v1h-1z M64,66h1v1h-1z M65,66h1v1h-1z M71,66h1v1h-1z M72,66h1v1h-1z M74,66h1v1h-1z M79,66h1v1h-1z M80,66h1v1h-1z M84,66h1v1h-1z M86,66h1v1h-1z M89,66h1v1h-1z M95,66h1v1h-1z M96,66h1v1h-1z M97,66h1v1h-1z M98,66h1v1h-1z M99,66h1v1h-1z M100,66h1v1h-1z M104,66h1v1h-1z M106,66h1v1h-1z M107,66h1v1h-1z M5,67h1v1h-1z M6,67h1v1h-1z M12,67h1v1h-1z M19,67h1v1h-1z M22,67h1v1h-1z M23,67h1v1h-1z M24,67h1v1h-1z M25,67h1v1h-1z M28,67h1v1h-1z M29,67h1v1h-1z M30,67h1v1h-1z M31,67h1v1h-1z M32,67h1v1h-1z M33,67h1v1h-1z M35,67h1v1h-1z M37,67h1v1h-1z M38,67h1v1h-1z M41,67h1v1h-1z M42,67h1v1h-1z M43,67h1v1h-1z M44,67h1v1h-1z M47,67h1v1h-1z M51,67h1v1h-1z M54,67h1v1h-1z M56,67h1v1h-1z M57,67h1v1h-1z M58,67h1v1h-1z M59,67h1v1h-1z M61,67h1v1h-1z M65,67h1v1h-1z M66,67h1v1h-1z M68,67h1v1h-1z M73,67h1v1h-1z M74,67h1v1h-1z M75,67h1v1h-1z M76,67h1v1h-1z M77,67h1v1h-1z M80,67h1v1h-1z M81,67h1v1h-1z M83,67h1v1h-1z M85,67h1v1h-1z M90,67h1v1h-1z M92,67h1v1h-1z M93,67h1v1h-1z M95,67h1v1h-1z M100,67h1v1h-1z M101,67h1v1h-1z M105,67h1v1h-1z M4,68h1v1h-1z M7,68h1v1h-1z M9,68h1v1h-1z M10,68h1v1h-1z M11,68h1v1h-1z M14,68h1v1h-1z M15,68h1v1h-1z M16,68h1v1h-1z M17,68h1v1h-1z M19,68h1v1h-1z M21,68h1v1h-1z M23,68h1v1h-1z M24,68h1v1h-1z M25,68h1v1h-1z M26,68h1v1h-1z M30,68h1v1h-1z M31,68h1v1h-1z M35,68h1v1h-1z M36,68h1v1h-1z M38,68h1v1h-1z M41,68h1v1h-1z M47,68h1v1h-1z M51,68h1v1h-1z M52,68h1v1h-1z M53,68h1v1h-1z M54,68h1v1h-1z M56,68h1v1h-1z M57,68h1v1h-1z M58,68h1v1h-1z M59,68h1v1h-1z M60,68h1v1h-1z M61,68h1v1h-1z M63,68h1v1h-1z M64,68h1v1h-1z M65,68h1v1h-1z M66,68h1v1h-1z M67,68h1v1h-1z M69,68h1v1h-1z M70,68h1v1h-1z M74,68h1v1h-1z M76,68h1v1h-1z M78,68h1v1h-1z M80,68h1v1h-1z M81,68h1v1h-1z M83,68h1v1h-1z M84,68h1v1h-1z M86,68h1v1h-1z M87,68h1v1h-1z M90,68h1v1h-1z M93,68h1v1h-1z M94,68h1v1h-1z M98,68h1v1h-1z M99,68h1v1h-1z M100,68h1v1h-1z M102,68h1v1h-1z M105,68h1v1h-1z M107,68h1v1h-1z M4,69h1v1h-1z M5,69h1v1h-1z M8,69h1v1h-1z M12,69h1v1h-1z M13,69h1v1h-1z M17,69h1v1h-1z M18,69h1v1h-1z M25,69h1v1h-1z M26,69h1v1h-1z M27,69h1v1h-1z M30,69h1v1h-1z M31,69h1v1h-1z M36,69h1v1h-1z M37,69h1v1h-1z M38,69h1v1h-1z M39,69h1v1h-1z M42,69h1v1h-1z M46,69h1v1h-1z M47,69h1v1h-1z M48,69h1v1h-1z M49,69h1v1h-1z M50,69h1v1h-1z M51,69h1v1h-1z M53,69h1v1h-1z M55,69h1v1h-1z M60,69h1v1h-1z M61,69h1v1h-1z M62,69h1v1h-1z M68,69h1v1h-1z M70,69h1v1h-1z M72,69h1v1h-1z M73,69h1v1h-1z M74,69h1v1h-1z M75,69h1v1h-1z M78,69h1v1h-1z M79,69h1v1h-1z M84,69h1v1h-1z M87,69h1v1h-1z M88,69h1v1h-1z M89,69h1v1h-1z M90,69h1v1h-1z M92,69h1v1h-1z M93,69h1v1h-1z M94,69h1v1h-1z M96,69h1v1h-1z M97,69h1v1h-1z M98,69h1v1h-1z M99,69h1v1h-1z M100,69h1v1h-1z M102,69h1v1h-1z M103,69h1v1h-1z M104,69h1v1h-1z M106,69h1v1h-1z M107,69h1v1h-1z M4,70h1v1h-1z M7,70h1v1h-1z M8,70h1v1h-1z M10,70h1v1h-1z M12,70h1v1h-1z M13,70h1v1h-1z M14,70h1v1h-1z M16,70h1v1h-1z M19,70h1v1h-1z M22,70h1v1h-1z M24,70h1v1h-1z M25,70h1v1h-1z M27,70h1v1h-1z M31,70h1v1h-1z M36,70h1v1h-1z M38,70h1v1h-1z M39,70h1v1h-1z M40,70h1v1h-1z M41,70h1v1h-1z M43,70h1v1h-1z M44,70h1v1h-1z M47,70h1v1h-1z M48,70h1v1h-1z M50,70h1v1h-1z M53,70h1v1h-1z M59,70h1v1h-1z M60,70h1v1h-1z M62,70h1v1h-1z M65,70h1v1h-1z M67,70h1v1h-1z M71,70h1v1h-1z M74,70h1v1h-1z M78,70h1v1h-1z M79,70h1v1h-1z M80,70h1v1h-1z M83,70h1v1h-1z M84,70h1v1h-1z M86,70h1v1h-1z M87,70h1v1h-1z M89,70h1v1h-1z M91,70h1v1h-1z M92,70h1v1h-1z M95,70h1v1h-1z M96,70h1v1h-1z M98,70h1v1h-1z M99,70h1v1h-1z M100,70h1v1h-1z M102,70h1v1h-1z M104,70h1v1h-1z M107,70h1v1h-1z M108,70h1v1h-1z M5,71h1v1h-1z M12,71h1v1h-1z M14,71h1v1h-1z M15,71h1v1h-1z M18,71h1v1h-1z M19,71h1v1h-1z M20,71h1v1h-1z M22,71h1v1h-1z M24,71h1v1h-1z M26,71h1v1h-1z M27,71h1v1h-1z M31,71h1v1h-1z M32,71h1v1h-1z M35,71h1v1h-1z M37,71h1v1h-1z M38,71h1v1h-1z M41,71h1v1h-1z M42,71h1v1h-1z M44,71h1v1h-1z M45,71h1v1h-1z M46,71h1v1h-1z M49,71h1v1h-1z M50,71h1v1h-1z M51,71h1v1h-1z M52,71h1v1h-1z M54,71h1v1h-1z M58,71h1v1h-1z M61,71h1v1h-1z M62,71h1v1h-1z M65,71h1v1h-1z M67,71h1v1h-1z M68,71h1v1h-1z M69,71h1v1h-1z M71,71h1v1h-1z M73,71h1v1h-1z M74,71h1v1h-1z M77,71h1v1h-1z M79,71h1v1h-1z M82,71h1v1h-1z M83,71h1v1h-1z M90,71h1v1h-1z M92,71h1v1h-1z M97,71h1v1h-1z M98,71h1v1h-1z M101,71h1v1h-1z M103,71h1v1h-1z M107,71h1v1h-1z M108,71h1v1h-1z M4,72h1v1h-1z M6,72h1v1h-1z M8,72h1v1h-1z M9,72h1v1h-1z M10,72h1v1h-1z M11,72h1v1h-1z M14,72h1v1h-1z M16,72h1v1h-1z M18,72h1v1h-1z M19,72h1v1h-1z M22,72h1v1h-1z M23,72h1v1h-1z M27,72h1v1h-1z M28,72h1v1h-1z M30,72h1v1h-1z M33,72h1v1h-1z M34,72h1v1h-1z M35,72h1v1h-1z M37,72h1v1h-1z M41,72h1v1h-1z M42,72h1v1h-1z M43,72h1v1h-1z M45,72h1v1h-1z M46,72h1v1h-1z M47,72h1v1h-1z M50,72h1v1h-1z M52,72h1v1h-1z M54,72h1v1h-1z M55,72h1v1h-1z M56,72h1v1h-1z M57,72h1v1h-1z M58,72h1v1h-1z M60,72h1v1h-1z M61,72h1v1h-1z M65,72h1v1h-1z M66,72h1v1h-1z M68,72h1v1h-1z M78,72h1v1h-1z M79,72h1v1h-1z M80,72h1v1h-1z M81,72h1v1h-1z M82,72h1v1h-1z M83,72h1v1h-1z M84,72h1v1h-1z M87,72h1v1h-1z M88,72h1v1h-1z M90,72h1v1h-1z M91,72h1v1h-1z M95,72h1v1h-1z M100,72h1v1h-1z M102,72h1v1h-1z M103,72h1v1h-1z M106,72h1v1h-1z M107,72h1v1h-1z M108,72h1v1h-1z M5,73h1v1h-1z M7,73h1v1h-1z M13,73h1v1h-1z M14,73h1v1h-1z M16,73h1v1h-1z M17,73h1v1h-1z M20,73h1v1h-1z M21,73h1v1h-1z M22,73h1v1h-1z M25,73h1v1h-1z M26,73h1v1h-1z M27,73h1v1h-1z M31,73h1v1h-1z M33,73h1v1h-1z M34,73h1v1h-1z M38,73h1v1h-1z M39,73h1v1h-1z M40,73h1v1h-1z M42,73h1v1h-1z M43,73h1v1h-1z M45,73h1v1h-1z M46,73h1v1h-1z M49,73h1v1h-1z M51,73h1v1h-1z M53,73h1v1h-1z M55,73h1v1h-1z M57,73h1v1h-1z M59,73h1v1h-1z M60,73h1v1h-1z M61,73h1v1h-1z M64,73h1v1h-1z M65,73h1v1h-1z M67,73h1v1h-1z M69,73h1v1h-1z M73,73h1v1h-1z M74,73h1v1h-1z M75,73h1v1h-1z M77,73h1v1h-1z M78,73h1v1h-1z M79,73h1v1h-1z M81,73h1v1h-1z M82,73h1v1h-1z M83,73h1v1h-1z M86,73h1v1h-1z M87,73h1v1h-1z M88,73h1v1h-1z M92,73h1v1h-1z M94,73h1v1h-1z M95,73h1v1h-1z M96,73h1v1h-1z M99,73h1v1h-1z M100,73h1v1h-1z M102,73h1v1h-1z M103,73h1v1h-1z M104,73h1v1h-1z M4,74h1v1h-1z M5,74h1v1h-1z M6,74h1v1h-1z M9,74h1v1h-1z M10,74h1v1h-1z M13,74h1v1h-1z M16,74h1v1h-1z M18,74h1v1h-1z M20,74h1v1h-1z M21,74h1v1h-1z M24,74h1v1h-1z M27,74h1v1h-1z M29,74h1v1h-1z M32,74h1v1h-1z M35,74h1v1h-1z M38,74h1v1h-1z M39,74h1v1h-1z M40,74h1v1h-1z M43,74h1v1h-1z M48,74h1v1h-1z M50,74h1v1h-1z M51,74h1v1h-1z M53,74h1v1h-1z M56,74h1v1h-1z M59,74h1v1h-1z M62,74h1v1h-1z M65,74h1v1h-1z M67,74h1v1h-1z M71,74h1v1h-1z M72,74h1v1h-1z M74,74h1v1h-1z M83,74h1v1h-1z M84,74h1v1h-1z M86,74h1v1h-1z M88,74h1v1h-1z M95,74h1v1h-1z M98,74h1v1h-1z M100,74h1v1h-1z M101,74h1v1h-1z M102,74h1v1h-1z M103,74h1v1h-1z M104,74h1v1h-1z M105,74h1v1h-1z M4,75h1v1h-1z M6,75h1v1h-1z M11,75h1v1h-1z M14,75h1v1h-1z M15,75h1v1h-1z M16,75h1v1h-1z M19,75h1v1h-1z M20,75h1v1h-1z M21,75h1v1h-1z M24,75h1v1h-1z M27,75h1v1h-1z M29,75h1v1h-1z M33,75h1v1h-1z M35,75h1v1h-1z M37,75h1v1h-1z M38,75h1v1h-1z M41,75h1v1h-1z M42,75h1v1h-1z M44,75h1v1h-1z M45,75h1v1h-1z M46,75h1v1h-1z M50,75h1v1h-1z M51,75h1v1h-1z M55,75h1v1h-1z M56,75h1v1h-1z M57,75h1v1h-1z M58,75h1v1h-1z M59,75h1v1h-1z M61,75h1v1h-1z M62,75h1v1h-1z M65,75h1v1h-1z M68,75h1v1h-1z M79,75h1v1h-1z M80,75h1v1h-1z M81,75h1v1h-1z M82,75h1v1h-1z M85,75h1v1h-1z M87,75h1v1h-1z M89,75h1v1h-1z M90,75h1v1h-1z M92,75h1v1h-1z M95,75h1v1h-1z M100,75h1v1h-1z M101,75h1v1h-1z M103,75h1v1h-1z M104,75h1v1h-1z M105,75h1v1h-1z M107,75h1v1h-1z M108,75h1v1h-1z M5,76h1v1h-1z M6,76h1v1h-1z M7,76h1v1h-1z M8,76h1v1h-1z M9,76h1v1h-1z M10,76h1v1h-1z M11,76h1v1h-1z M12,76h1v1h-1z M13,76h1v1h-1z M14,76h1v1h-1z M15,76h1v1h-1z M17,76h1v1h-1z M23,76h1v1h-1z M24,76h1v1h-1z M28,76h1v1h-1z M29,76h1v1h-1z M30,76h1v1h-1z M31,76h1v1h-1z M32,76h1v1h-1z M38,76h1v1h-1z M41,76h1v1h-1z M42,76h1v1h-1z M46,76h1v1h-1z M51,76h1v1h-1z M52,76h1v1h-1z M53,76h1v1h-1z M54,76h1v1h-1z M55,76h1v1h-1z M56,76h1v1h-1z M57,76h1v1h-1z M58,76h1v1h-1z M60,76h1v1h-1z M61,76h1v1h-1z M67,76h1v1h-1z M70,76h1v1h-1z M71,76h1v1h-1z M72,76h1v1h-1z M73,76h1v1h-1z M74,76h1v1h-1z M75,76h1v1h-1z M76,76h1v1h-1z M77,76h1v1h-1z M78,76h1v1h-1z M79,76h1v1h-1z M80,76h1v1h-1z M83,76h1v1h-1z M85,76h1v1h-1z M86,76h1v1h-1z M87,76h1v1h-1z M90,76h1v1h-1z M91,76h1v1h-1z M94,76h1v1h-1z M95,76h1v1h-1z M96,76h1v1h-1z M97,76h1v1h-1z M100,76h1v1h-1z M101,76h1v1h-1z M102,76h1v1h-1z M103,76h1v1h-1z M104,76h1v1h-1z M105,76h1v1h-1z M107,76h1v1h-1z M108,76h1v1h-1z M4,77h1v1h-1z M8,77h1v1h-1z M12,77h1v1h-1z M13,77h1v1h-1z M15,77h1v1h-1z M17,77h1v1h-1z M20,77h1v1h-1z M24,77h1v1h-1z M25,77h1v1h-1z M26,77h1v1h-1z M28,77h1v1h-1z M32,77h1v1h-1z M33,77h1v1h-1z M34,77h1v1h-1z M36,77h1v1h-1z M40,77h1v1h-1z M44,77h1v1h-1z M45,77h1v1h-1z M46,77h1v1h-1z M48,77h1v1h-1z M52,77h1v1h-1z M56,77h1v1h-1z M59,77h1v1h-1z M63,77h1v1h-1z M64,77h1v1h-1z M68,77h1v1h-1z M69,77h1v1h-1z M71,77h1v1h-1z M72,77h1v1h-1z M73,77h1v1h-1z M74,77h1v1h-1z M76,77h1v1h-1z M80,77h1v1h-1z M82,77h1v1h-1z M84,77h1v1h-1z M87,77h1v1h-1z M88,77h1v1h-1z M90,77h1v1h-1z M93,77h1v1h-1z M95,77h1v1h-1z M96,77h1v1h-1z M98,77h1v1h-1z M99,77h1v1h-1z M100,77h1v1h-1z M104,77h1v1h-1z M105,77h1v1h-1z M106,77h1v1h-1z M107,77h1v1h-1z M108,77h1v1h-1z M4,78h1v1h-1z M5,78h1v1h-1z M8,78h1v1h-1z M10,78h1v1h-1z M12,78h1v1h-1z M13,78h1v1h-1z M17,78h1v1h-1z M18,78h1v1h-1z M20,78h1v1h-1z M21,78h1v1h-1z M24,78h1v1h-1z M25,78h1v1h-1z M26,78h1v1h-1z M28,78h1v1h-1z M30,78h1v1h-1z M32,78h1v1h-1z M35,78h1v1h-1z M36,78h1v1h-1z M38,78h1v1h-1z M39,78h1v1h-1z M41,78h1v1h-1z M43,78h1v1h-1z M44,78h1v1h-1z M50,78h1v1h-1z M51,78h1v1h-1z M52,78h1v1h-1z M54,78h1v1h-1z M56,78h1v1h-1z M57,78h1v1h-1z M60,78h1v1h-1z M62,78h1v1h-1z M64,78h1v1h-1z M65,78h1v1h-1z M69,78h1v1h-1z M74,78h1v1h-1z M75,78h1v1h-1z M76,78h1v1h-1z M78,78h1v1h-1z M80,78h1v1h-1z M83,78h1v1h-1z M86,78h1v1h-1z M87,78h1v1h-1z M88,78h1v1h-1z M89,78h1v1h-1z M91,78h1v1h-1z M96,78h1v1h-1z M98,78h1v1h-1z M100,78h1v1h-1z M102,78h1v1h-1z M104,78h1v1h-1z M105,78h1v1h-1z M107,78h1v1h-1z M5,79h1v1h-1z M6,79h1v1h-1z M7,79h1v1h-1z M8,79h1v1h-1z M12,79h1v1h-1z M13,79h1v1h-1z M15,79h1v1h-1z M16,79h1v1h-1z M17,79h1v1h-1z M19,79h1v1h-1z M22,79h1v1h-1z M27,79h1v1h-1z M28,79h1v1h-1z M32,79h1v1h-1z M34,79h1v1h-1z M35,79h1v1h-1z M41,79h1v1h-1z M42,79h1v1h-1z M44,79h1v1h-1z M46,79h1v1h-1z M47,79h1v1h-1z M49,79h1v1h-1z M50,79h1v1h-1z M51,79h1v1h-1z M52,79h1v1h-1z M56,79h1v1h-1z M57,79h1v1h-1z M58,79h1v1h-1z M59,79h1v1h-1z M61,79h1v1h-1z M62,79h1v1h-1z M65,79h1v1h-1z M66,79h1v1h-1z M67,79h1v1h-1z M68,79h1v1h-1z M70,79h1v1h-1z M71,79h1v1h-1z M76,79h1v1h-1z M80,79h1v1h-1z M81,79h1v1h-1z M83,79h1v1h-1z M85,79h1v1h-1z M89,79h1v1h-1z M90,79h1v1h-1z M92,79h1v1h-1z M94,79h1v1h-1z M95,79h1v1h-1z M97,79h1v1h-1z M98,79h1v1h-1z M99,79h1v1h-1z M100,79h1v1h-1z M104,79h1v1h-1z M105,79h1v1h-1z M108,79h1v1h-1z M4,80h1v1h-1z M5,80h1v1h-1z M7,80h1v1h-1z M8,80h1v1h-1z M9,80h1v1h-1z M10,80h1v1h-1z M11,80h1v1h-1z M12,80h1v1h-1z M13,80h1v1h-1z M17,80h1v1h-1z M18,80h1v1h-1z M19,80h1v1h-1z M20,80h1v1h-1z M26,80h1v1h-1z M27,80h1v1h-1z M28,80h1v1h-1z M29,80h1v1h-1z M30,80h1v1h-1z M31,80h1v1h-1z M32,80h1v1h-1z M34,80h1v1h-1z M36,80h1v1h-1z M38,80h1v1h-1z M41,80h1v1h-1z M43,80h1v1h-1z M44,80h1v1h-1z M47,80h1v1h-1z M49,80h1v1h-1z M51,80h1v1h-1z M52,80h1v1h-1z M53,80h1v1h-1z M54,80h1v1h-1z M55,80h1v1h-1z M56,80h1v1h-1z M57,80h1v1h-1z M61,80h1v1h-1z M62,80h1v1h-1z M63,80h1v1h-1z M66,80h1v1h-1z M68,80h1v1h-1z M70,80h1v1h-1z M71,80h1v1h-1z M73,80h1v1h-1z M74,80h1v1h-1z M75,80h1v1h-1z M76,80h1v1h-1z M77,80h1v1h-1z M78,80h1v1h-1z M79,80h1v1h-1z M80,80h1v1h-1z M81,80h1v1h-1z M82,80h1v1h-1z M83,80h1v1h-1z M85,80h1v1h-1z M89,80h1v1h-1z M90,80h1v1h-1z M91,80h1v1h-1z M92,80h1v1h-1z M93,80h1v1h-1z M95,80h1v1h-1z M97,80h1v1h-1z M100,80h1v1h-1z M101,80h1v1h-1z M102,80h1v1h-1z M103,80h1v1h-1z M104,80h1v1h-1z M105,80h1v1h-1z M107,80h1v1h-1z M108,80h1v1h-1z M5,81h1v1h-1z M6,81h1v1h-1z M8,81h1v1h-1z M9,81h1v1h-1z M13,81h1v1h-1z M16,81h1v1h-1z M17,81h1v1h-1z M18,81h1v1h-1z M20,81h1v1h-1z M21,81h1v1h-1z M22,81h1v1h-1z M25,81h1v1h-1z M26,81h1v1h-1z M28,81h1v1h-1z M30,81h1v1h-1z M31,81h1v1h-1z M32,81h1v1h-1z M33,81h1v1h-1z M36,81h1v1h-1z M37,81h1v1h-1z M38,81h1v1h-1z M39,81h1v1h-1z M42,81h1v1h-1z M43,81h1v1h-1z M46,81h1v1h-1z M48,81h1v1h-1z M50,81h1v1h-1z M52,81h1v1h-1z M54,81h1v1h-1z M56,81h1v1h-1z M59,81h1v1h-1z M60,81h1v1h-1z M61,81h1v1h-1z M62,81h1v1h-1z M63,81h1v1h-1z M66,81h1v1h-1z M67,81h1v1h-1z M68,81h1v1h-1z M69,81h1v1h-1z M72,81h1v1h-1z M78,81h1v1h-1z M79,81h1v1h-1z M80,81h1v1h-1z M81,81h1v1h-1z M84,81h1v1h-1z M85,81h1v1h-1z M87,81h1v1h-1z M88,81h1v1h-1z M91,81h1v1h-1z M92,81h1v1h-1z M93,81h1v1h-1z M95,81h1v1h-1z M96,81h1v1h-1z M97,81h1v1h-1z M101,81h1v1h-1z M102,81h1v1h-1z M103,81h1v1h-1z M105,81h1v1h-1z M107,81h1v1h-1z M6,82h1v1h-1z M7,82h1v1h-1z M10,82h1v1h-1z M11,82h1v1h-1z M12,82h1v1h-1z M13,82h1v1h-1z M15,82h1v1h-1z M16,82h1v1h-1z M17,82h1v1h-1z M18,82h1v1h-1z M21,82h1v1h-1z M24,82h1v1h-1z M25,82h1v1h-1z M28,82h1v1h-1z M29,82h1v1h-1z M30,82h1v1h-1z M31,82h1v1h-1z M32,82h1v1h-1z M36,82h1v1h-1z M38,82h1v1h-1z M39,82h1v1h-1z M40,82h1v1h-1z M43,82h1v1h-1z M47,82h1v1h-1z M50,82h1v1h-1z M51,82h1v1h-1z M56,82h1v1h-1z M59,82h1v1h-1z M60,82h1v1h-1z M62,82h1v1h-1z M63,82h1v1h-1z M65,82h1v1h-1z M74,82h1v1h-1z M76,82h1v1h-1z M79,82h1v1h-1z M80,82h1v1h-1z M81,82h1v1h-1z M83,82h1v1h-1z M84,82h1v1h-1z M86,82h1v1h-1z M87,82h1v1h-1z M88,82h1v1h-1z M89,82h1v1h-1z M91,82h1v1h-1z M92,82h1v1h-1z M96,82h1v1h-1z M97,82h1v1h-1z M98,82h1v1h-1z M99,82h1v1h-1z M100,82h1v1h-1z M101,82h1v1h-1z M106,82h1v1h-1z M107,82h1v1h-1z M4,83h1v1h-1z M5,83h1v1h-1z M12,83h1v1h-1z M14,83h1v1h-1z M15,83h1v1h-1z M17,83h1v1h-1z M20,83h1v1h-1z M21,83h1v1h-1z M25,83h1v1h-1z M27,83h1v1h-1z M31,83h1v1h-1z M32,83h1v1h-1z M34,83h1v1h-1z M35,83h1v1h-1z M41,83h1v1h-1z M42,83h1v1h-1z M43,83h1v1h-1z M44,83h1v1h-1z M45,83h1v1h-1z M47,83h1v1h-1z M52,83h1v1h-1z M53,83h1v1h-1z M55,83h1v1h-1z M56,83h1v1h-1z M57,83h1v1h-1z M58,83h1v1h-1z M59,83h1v1h-1z M61,83h1v1h-1z M68,83h1v1h-1z M69,83h1v1h-1z M71,83h1v1h-1z M76,83h1v1h-1z M78,83h1v1h-1z M79,83h1v1h-1z M80,83h1v1h-1z M82,83h1v1h-1z M83,83h1v1h-1z M86,83h1v1h-1z M92,83h1v1h-1z M93,83h1v1h-1z M94,83h1v1h-1z M95,83h1v1h-1z M100,83h1v1h-1z M101,83h1v1h-1z M103,83h1v1h-1z M105,83h1v1h-1z M107,83h1v1h-1z M4,84h1v1h-1z M5,84h1v1h-1z M8,84h1v1h-1z M9,84h1v1h-1z M10,84h1v1h-1z M11,84h1v1h-1z M12,84h1v1h-1z M13,84h1v1h-1z M14,84h1v1h-1z M15,84h1v1h-1z M16,84h1v1h-1z M17,84h1v1h-1z M19,84h1v1h-1z M20,84h1v1h-1z M23,84h1v1h-1z M25,84h1v1h-1z M29,84h1v1h-1z M30,84h1v1h-1z M31,84h1v1h-1z M34,84h1v1h-1z M36,84h1v1h-1z M38,84h1v1h-1z M41,84h1v1h-1z M43,84h1v1h-1z M45,84h1v1h-1z M46,84h1v1h-1z M50,84h1v1h-1z M51,84h1v1h-1z M52,84h1v1h-1z M54,84h1v1h-1z M58,84h1v1h-1z M61,84h1v1h-1z M63,84h1v1h-1z M69,84h1v1h-1z M71,84h1v1h-1z M72,84h1v1h-1z M73,84h1v1h-1z M74,84h1v1h-1z M75,84h1v1h-1z M77,84h1v1h-1z M78,84h1v1h-1z M80,84h1v1h-1z M82,84h1v1h-1z M89,84h1v1h-1z M90,84h1v1h-1z M91,84h1v1h-1z M93,84h1v1h-1z M94,84h1v1h-1z M96,84h1v1h-1z M98,84h1v1h-1z M100,84h1v1h-1z M102,84h1v1h-1z M103,84h1v1h-1z M104,84h1v1h-1z M105,84h1v1h-1z M107,84h1v1h-1z M9,85h1v1h-1z M12,85h1v1h-1z M14,85h1v1h-1z M16,85h1v1h-1z M17,85h1v1h-1z M21,85h1v1h-1z M22,85h1v1h-1z M26,85h1v1h-1z M28,85h1v1h-1z M29,85h1v1h-1z M30,85h1v1h-1z M35,85h1v1h-1z M36,85h1v1h-1z M40,85h1v1h-1z M44,85h1v1h-1z M47,85h1v1h-1z M48,85h1v1h-1z M52,85h1v1h-1z M54,85h1v1h-1z M57,85h1v1h-1z M58,85h1v1h-1z M60,85h1v1h-1z M62,85h1v1h-1z M63,85h1v1h-1z M64,85h1v1h-1z M67,85h1v1h-1z M69,85h1v1h-1z M70,85h1v1h-1z M71,85h1v1h-1z M77,85h1v1h-1z M78,85h1v1h-1z M80,85h1v1h-1z M84,85h1v1h-1z M85,85h1v1h-1z M89,85h1v1h-1z M91,85h1v1h-1z M93,85h1v1h-1z M94,85h1v1h-1z M95,85h1v1h-1z M97,85h1v1h-1z M100,85h1v1h-1z M103,85h1v1h-1z M106,85h1v1h-1z M4,86h1v1h-1z M6,86h1v1h-1z M7,86h1v1h-1z M8,86h1v1h-1z M9,86h1v1h-1z M10,86h1v1h-1z M12,86h1v1h-1z M14,86h1v1h-1z M16,86h1v1h-1z M17,86h1v1h-1z M19,86h1v1h-1z M20,86h1v1h-1z M22,86h1v1h-1z M24,86h1v1h-1z M26,86h1v1h-1z M27,86h1v1h-1z M28,86h1v1h-1z M29,86h1v1h-1z M30,86h1v1h-1z M32,86h1v1h-1z M38,86h1v1h-1z M40,86h1v1h-1z M43,86h1v1h-1z M45,86h1v1h-1z M47,86h1v1h-1z M48,86h1v1h-1z M49,86h1v1h-1z M50,86h1v1h-1z M51,86h1v1h-1z M53,86h1v1h-1z M56,86h1v1h-1z M62,86h1v1h-1z M64,86h1v1h-1z M65,86h1v1h-1z M67,86h1v1h-1z M68,86h1v1h-1z M71,86h1v1h-1z M72,86h1v1h-1z M74,86h1v1h-1z M76,86h1v1h-1z M77,86h1v1h-1z M78,86h1v1h-1z M80,86h1v1h-1z M84,86h1v1h-1z M86,86h1v1h-1z M87,86h1v1h-1z M88,86h1v1h-1z M93,86h1v1h-1z M95,86h1v1h-1z M96,86h1v1h-1z M98,86h1v1h-1z M99,86h1v1h-1z M100,86h1v1h-1z M101,86h1v1h-1z M104,86h1v1h-1z M4,87h1v1h-1z M5,87h1v1h-1z M7,87h1v1h-1z M11,87h1v1h-1z M13,87h1v1h-1z M14,87h1v1h-1z M16,87h1v1h-1z M17,87h1v1h-1z M18,87h1v1h-1z M19,87h1v1h-1z M22,87h1v1h-1z M24,87h1v1h-1z M27,87h1v1h-1z M29,87h1v1h-1z M31,87h1v1h-1z M32,87h1v1h-1z M35,87h1v1h-1z M39,87h1v1h-1z M41,87h1v1h-1z M42,87h1v1h-1z M44,87h1v1h-1z M45,87h1v1h-1z M46,87h1v1h-1z M49,87h1v1h-1z M52,87h1v1h-1z M54,87h1v1h-1z M55,87h1v1h-1z M56,87h1v1h-1z M57,87h1v1h-1z M58,87h1v1h-1z M59,87h1v1h-1z M61,87h1v1h-1z M66,87h1v1h-1z M68,87h1v1h-1z M69,87h1v1h-1z M70,87h1v1h-1z M75,87h1v1h-1z M76,87h1v1h-1z M79,87h1v1h-1z M80,87h1v1h-1z M83,87h1v1h-1z M86,87h1v1h-1z M90,87h1v1h-1z M92,87h1v1h-1z M94,87h1v1h-1z M95,87h1v1h-1z M97,87h1v1h-1z M98,87h1v1h-1z M99,87h1v1h-1z M100,87h1v1h-1z M103,87h1v1h-1z M104,87h1v1h-1z M4,88h1v1h-1z M7,88h1v1h-1z M8,88h1v1h-1z M10,88h1v1h-1z M12,88h1v1h-1z M13,88h1v1h-1z M16,88h1v1h-1z M17,88h1v1h-1z M20,88h1v1h-1z M21,88h1v1h-1z M27,88h1v1h-1z M29,88h1v1h-1z M32,88h1v1h-1z M33,88h1v1h-1z M34,88h1v1h-1z M35,88h1v1h-1z M36,88h1v1h-1z M37,88h1v1h-1z M39,88h1v1h-1z M40,88h1v1h-1z M42,88h1v1h-1z M43,88h1v1h-1z M49,88h1v1h-1z M51,88h1v1h-1z M52,88h1v1h-1z M53,88h1v1h-1z M54,88h1v1h-1z M55,88h1v1h-1z M58,88h1v1h-1z M59,88h1v1h-1z M60,88h1v1h-1z M62,88h1v1h-1z M63,88h1v1h-1z M64,88h1v1h-1z M66,88h1v1h-1z M70,88h1v1h-1z M71,88h1v1h-1z M72,88h1v1h-1z M75,88h1v1h-1z M76,88h1v1h-1z M77,88h1v1h-1z M80,88h1v1h-1z M81,88h1v1h-1z M82,88h1v1h-1z M83,88h1v1h-1z M84,88h1v1h-1z M87,88h1v1h-1z M93,88h1v1h-1z M94,88h1v1h-1z M95,88h1v1h-1z M96,88h1v1h-1z M106,88h1v1h-1z M4,89h1v1h-1z M7,89h1v1h-1z M8,89h1v1h-1z M9,89h1v1h-1z M11,89h1v1h-1z M12,89h1v1h-1z M15,89h1v1h-1z M17,89h1v1h-1z M24,89h1v1h-1z M25,89h1v1h-1z M26,89h1v1h-1z M28,89h1v1h-1z M30,89h1v1h-1z M32,89h1v1h-1z M35,89h1v1h-1z M37,89h1v1h-1z M40,89h1v1h-1z M45,89h1v1h-1z M52,89h1v1h-1z M54,89h1v1h-1z M56,89h1v1h-1z M58,89h1v1h-1z M61,89h1v1h-1z M65,89h1v1h-1z M67,89h1v1h-1z M72,89h1v1h-1z M73,89h1v1h-1z M76,89h1v1h-1z M78,89h1v1h-1z M79,89h1v1h-1z M80,89h1v1h-1z M83,89h1v1h-1z M85,89h1v1h-1z M87,89h1v1h-1z M89,89h1v1h-1z M90,89h1v1h-1z M92,89h1v1h-1z M95,89h1v1h-1z M98,89h1v1h-1z M99,89h1v1h-1z M100,89h1v1h-1z M103,89h1v1h-1z M5,90h1v1h-1z M6,90h1v1h-1z M9,90h1v1h-1z M10,90h1v1h-1z M12,90h1v1h-1z M13,90h1v1h-1z M14,90h1v1h-1z M16,90h1v1h-1z M17,90h1v1h-1z M18,90h1v1h-1z M19,90h1v1h-1z M24,90h1v1h-1z M26,90h1v1h-1z M27,90h1v1h-1z M28,90h1v1h-1z M32,90h1v1h-1z M33,90h1v1h-1z M35,90h1v1h-1z M36,90h1v1h-1z M38,90h1v1h-1z M39,90h1v1h-1z M40,90h1v1h-1z M41,90h1v1h-1z M44,90h1v1h-1z M47,90h1v1h-1z M48,90h1v1h-1z M50,90h1v1h-1z M51,90h1v1h-1z M54,90h1v1h-1z M56,90h1v1h-1z M57,90h1v1h-1z M59,90h1v1h-1z M60,90h1v1h-1z M62,90h1v1h-1z M64,90h1v1h-1z M71,90h1v1h-1z M72,90h1v1h-1z M74,90h1v1h-1z M75,90h1v1h-1z M77,90h1v1h-1z M78,90h1v1h-1z M79,90h1v1h-1z M80,90h1v1h-1z M83,90h1v1h-1z M86,90h1v1h-1z M88,90h1v1h-1z M89,90h1v1h-1z M91,90h1v1h-1z M92,90h1v1h-1z M96,90h1v1h-1z M97,90h1v1h-1z M98,90h1v1h-1z M100,90h1v1h-1z M101,90h1v1h-1z M103,90h1v1h-1z M105,90h1v1h-1z M4,91h1v1h-1z M6,91h1v1h-1z M7,91h1v1h-1z M9,91h1v1h-1z M11,91h1v1h-1z M13,91h1v1h-1z M16,91h1v1h-1z M17,91h1v1h-1z M19,91h1v1h-1z M20,91h1v1h-1z M22,91h1v1h-1z M25,91h1v1h-1z M27,91h1v1h-1z M30,91h1v1h-1z M31,91h1v1h-1z M32,91h1v1h-1z M34,91h1v1h-1z M38,91h1v1h-1z M39,91h1v1h-1z M41,91h1v1h-1z M44,91h1v1h-1z M45,91h1v1h-1z M51,91h1v1h-1z M55,91h1v1h-1z M58,91h1v1h-1z M59,91h1v1h-1z M63,91h1v1h-1z M65,91h1v1h-1z M66,91h1v1h-1z M67,91h1v1h-1z M68,91h1v1h-1z M70,91h1v1h-1z M71,91h1v1h-1z M73,91h1v1h-1z M74,91h1v1h-1z M75,91h1v1h-1z M77,91h1v1h-1z M81,91h1v1h-1z M83,91h1v1h-1z M85,91h1v1h-1z M86,91h1v1h-1z M87,91h1v1h-1z M92,91h1v1h-1z M93,91h1v1h-1z M100,91h1v1h-1z M101,91h1v1h-1z M102,91h1v1h-1z M104,91h1v1h-1z M107,91h1v1h-1z M6,92h1v1h-1z M10,92h1v1h-1z M11,92h1v1h-1z M12,92h1v1h-1z M13,92h1v1h-1z M14,92h1v1h-1z M16,92h1v1h-1z M22,92h1v1h-1z M23,92h1v1h-1z M26,92h1v1h-1z M27,92h1v1h-1z M28,92h1v1h-1z M30,92h1v1h-1z M32,92h1v1h-1z M33,92h1v1h-1z M36,92h1v1h-1z M38,92h1v1h-1z M41,92h1v1h-1z M44,92h1v1h-1z M45,92h1v1h-1z M46,92h1v1h-1z M47,92h1v1h-1z M48,92h1v1h-1z M49,92h1v1h-1z M51,92h1v1h-1z M53,92h1v1h-1z M54,92h1v1h-1z M55,92h1v1h-1z M57,92h1v1h-1z M60,92h1v1h-1z M61,92h1v1h-1z M63,92h1v1h-1z M66,92h1v1h-1z M68,92h1v1h-1z M70,92h1v1h-1z M71,92h1v1h-1z M72,92h1v1h-1z M74,92h1v1h-1z M75,92h1v1h-1z M81,92h1v1h-1z M83,92h1v1h-1z M85,92h1v1h-1z M89,92h1v1h-1z M90,92h1v1h-1z M91,92h1v1h-1z M92,92h1v1h-1z M93,92h1v1h-1z M94,92h1v1h-1z M96,92h1v1h-1z M97,92h1v1h-1z M98,92h1v1h-1z M100,92h1v1h-1z M101,92h1v1h-1z M106,92h1v1h-1z M108,92h1v1h-1z M11,93h1v1h-1z M13,93h1v1h-1z M16,93h1v1h-1z M21,93h1v1h-1z M22,93h1v1h-1z M26,93h1v1h-1z M30,93h1v1h-1z M31,93h1v1h-1z M32,93h1v1h-1z M33,93h1v1h-1z M36,93h1v1h-1z M37,93h1v1h-1z M39,93h1v1h-1z M40,93h1v1h-1z M41,93h1v1h-1z M42,93h1v1h-1z M43,93h1v1h-1z M45,93h1v1h-1z M47,93h1v1h-1z M49,93h1v1h-1z M54,93h1v1h-1z M56,93h1v1h-1z M58,93h1v1h-1z M59,93h1v1h-1z M60,93h1v1h-1z M62,93h1v1h-1z M64,93h1v1h-1z M65,93h1v1h-1z M67,93h1v1h-1z M69,93h1v1h-1z M70,93h1v1h-1z M71,93h1v1h-1z M77,93h1v1h-1z M78,93h1v1h-1z M79,93h1v1h-1z M80,93h1v1h-1z M81,93h1v1h-1z M83,93h1v1h-1z M84,93h1v1h-1z M85,93h1v1h-1z M87,93h1v1h-1z M92,93h1v1h-1z M93,93h1v1h-1z M94,93h1v1h-1z M95,93h1v1h-1z M99,93h1v1h-1z M101,93h1v1h-1z M102,93h1v1h-1z M103,93h1v1h-1z M107,93h1v1h-1z M5,94h1v1h-1z M6,94h1v1h-1z M10,94h1v1h-1z M11,94h1v1h-1z M12,94h1v1h-1z M13,94h1v1h-1z M15,94h1v1h-1z M17,94h1v1h-1z M20,94h1v1h-1z M25,94h1v1h-1z M26,94h1v1h-1z M27,94h1v1h-1z M28,94h1v1h-1z M31,94h1v1h-1z M32,94h1v1h-1z M33,94h1v1h-1z M35,94h1v1h-1z M36,94h1v1h-1z M37,94h1v1h-1z M38,94h1v1h-1z M39,94h1v1h-1z M41,94h1v1h-1z M43,94h1v1h-1z M44,94h1v1h-1z M50,94h1v1h-1z M51,94h1v1h-1z M52,94h1v1h-1z M53,94h1v1h-1z M56,94h1v1h-1z M60,94h1v1h-1z M62,94h1v1h-1z M64,94h1v1h-1z M72,94h1v1h-1z M74,94h1v1h-1z M76,94h1v1h-1z M78,94h1v1h-1z M80,94h1v1h-1z M81,94h1v1h-1z M86,94h1v1h-1z M88,94h1v1h-1z M91,94h1v1h-1z M96,94h1v1h-1z M97,94h1v1h-1z M98,94h1v1h-1z M99,94h1v1h-1z M100,94h1v1h-1z M101,94h1v1h-1z M103,94h1v1h-1z M107,94h1v1h-1z M4,95h1v1h-1z M5,95h1v1h-1z M6,95h1v1h-1z M8,95h1v1h-1z M9,95h1v1h-1z M11,95h1v1h-1z M12,95h1v1h-1z M13,95h1v1h-1z M17,95h1v1h-1z M18,95h1v1h-1z M21,95h1v1h-1z M23,95h1v1h-1z M24,95h1v1h-1z M25,95h1v1h-1z M26,95h1v1h-1z M27,95h1v1h-1z M30,95h1v1h-1z M32,95h1v1h-1z M34,95h1v1h-1z M44,95h1v1h-1z M45,95h1v1h-1z M47,95h1v1h-1z M49,95h1v1h-1z M50,95h1v1h-1z M51,95h1v1h-1z M52,95h1v1h-1z M53,95h1v1h-1z M56,95h1v1h-1z M58,95h1v1h-1z M61,95h1v1h-1z M63,95h1v1h-1z M65,95h1v1h-1z M66,95h1v1h-1z M67,95h1v1h-1z M68,95h1v1h-1z M70,95h1v1h-1z M73,95h1v1h-1z M75,95h1v1h-1z M76,95h1v1h-1z M80,95h1v1h-1z M82,95h1v1h-1z M83,95h1v1h-1z M85,95h1v1h-1z M90,95h1v1h-1z M91,95h1v1h-1z M92,95h1v1h-1z M95,95h1v1h-1z M103,95h1v1h-1z M104,95h1v1h-1z M105,95h1v1h-1z M108,95h1v1h-1z M4,96h1v1h-1z M5,96h1v1h-1z M9,96h1v1h-1z M10,96h1v1h-1z M12,96h1v1h-1z M16,96h1v1h-1z M17,96h1v1h-1z M21,96h1v1h-1z M22,96h1v1h-1z M23,96h1v1h-1z M25,96h1v1h-1z M26,96h1v1h-1z M27,96h1v1h-1z M30,96h1v1h-1z M35,96h1v1h-1z M38,96h1v1h-1z M41,96h1v1h-1z M43,96h1v1h-1z M44,96h1v1h-1z M46,96h1v1h-1z M49,96h1v1h-1z M50,96h1v1h-1z M51,96h1v1h-1z M54,96h1v1h-1z M55,96h1v1h-1z M58,96h1v1h-1z M59,96h1v1h-1z M66,96h1v1h-1z M69,96h1v1h-1z M70,96h1v1h-1z M71,96h1v1h-1z M72,96h1v1h-1z M74,96h1v1h-1z M75,96h1v1h-1z M76,96h1v1h-1z M78,96h1v1h-1z M80,96h1v1h-1z M81,96h1v1h-1z M84,96h1v1h-1z M85,96h1v1h-1z M87,96h1v1h-1z M90,96h1v1h-1z M91,96h1v1h-1z M94,96h1v1h-1z M98,96h1v1h-1z M100,96h1v1h-1z M102,96h1v1h-1z M104,96h1v1h-1z M108,96h1v1h-1z M4,97h1v1h-1z M5,97h1v1h-1z M6,97h1v1h-1z M8,97h1v1h-1z M9,97h1v1h-1z M12,97h1v1h-1z M13,97h1v1h-1z M14,97h1v1h-1z M19,97h1v1h-1z M21,97h1v1h-1z M24,97h1v1h-1z M26,97h1v1h-1z M28,97h1v1h-1z M30,97h1v1h-1z M32,97h1v1h-1z M33,97h1v1h-1z M35,97h1v1h-1z M36,97h1v1h-1z M40,97h1v1h-1z M43,97h1v1h-1z M44,97h1v1h-1z M49,97h1v1h-1z M50,97h1v1h-1z M52,97h1v1h-1z M54,97h1v1h-1z M55,97h1v1h-1z M56,97h1v1h-1z M61,97h1v1h-1z M62,97h1v1h-1z M63,97h1v1h-1z M67,97h1v1h-1z M68,97h1v1h-1z M70,97h1v1h-1z M71,97h1v1h-1z M73,97h1v1h-1z M76,97h1v1h-1z M78,97h1v1h-1z M79,97h1v1h-1z M83,97h1v1h-1z M84,97h1v1h-1z M85,97h1v1h-1z M86,97h1v1h-1z M87,97h1v1h-1z M91,97h1v1h-1z M95,97h1v1h-1z M96,97h1v1h-1z M100,97h1v1h-1z M102,97h1v1h-1z M4,98h1v1h-1z M5,98h1v1h-1z M6,98h1v1h-1z M10,98h1v1h-1z M11,98h1v1h-1z M12,98h1v1h-1z M14,98h1v1h-1z M15,98h1v1h-1z M17,98h1v1h-1z M18,98h1v1h-1z M22,98h1v1h-1z M29,98h1v1h-1z M32,98h1v1h-1z M35,98h1v1h-1z M36,98h1v1h-1z M38,98h1v1h-1z M41,98h1v1h-1z M47,98h1v1h-1z M50,98h1v1h-1z M53,98h1v1h-1z M54,98h1v1h-1z M56,98h1v1h-1z M59,98h1v1h-1z M62,98h1v1h-1z M65,98h1v1h-1z M67,98h1v1h-1z M68,98h1v1h-1z M73,98h1v1h-1z M74,98h1v1h-1z M77,98h1v1h-1z M78,98h1v1h-1z M80,98h1v1h-1z M83,98h1v1h-1z M84,98h1v1h-1z M86,98h1v1h-1z M87,98h1v1h-1z M88,98h1v1h-1z M89,98h1v1h-1z M93,98h1v1h-1z M95,98h1v1h-1z M96,98h1v1h-1z M97,98h1v1h-1z M98,98h1v1h-1z M99,98h1v1h-1z M101,98h1v1h-1z M6,99h1v1h-1z M8,99h1v1h-1z M9,99h1v1h-1z M14,99h1v1h-1z M17,99h1v1h-1z M19,99h1v1h-1z M21,99h1v1h-1z M24,99h1v1h-1z M26,99h1v1h-1z M27,99h1v1h-1z M29,99h1v1h-1z M31,99h1v1h-1z M33,99h1v1h-1z M34,99h1v1h-1z M35,99h1v1h-1z M37,99h1v1h-1z M38,99h1v1h-1z M42,99h1v1h-1z M44,99h1v1h-1z M45,99h1v1h-1z M47,99h1v1h-1z M49,99h1v1h-1z M51,99h1v1h-1z M59,99h1v1h-1z M61,99h1v1h-1z M62,99h1v1h-1z M65,99h1v1h-1z M66,99h1v1h-1z M68,99h1v1h-1z M70,99h1v1h-1z M71,99h1v1h-1z M75,99h1v1h-1z M81,99h1v1h-1z M85,99h1v1h-1z M86,99h1v1h-1z M91,99h1v1h-1z M92,99h1v1h-1z M94,99h1v1h-1z M95,99h1v1h-1z M99,99h1v1h-1z M100,99h1v1h-1z M102,99h1v1h-1z M104,99h1v1h-1z M7,100h1v1h-1z M8,100h1v1h-1z M10,100h1v1h-1z M17,100h1v1h-1z M18,100h1v1h-1z M20,100h1v1h-1z M22,100h1v1h-1z M23,100h1v1h-1z M28,100h1v1h-1z M29,100h1v1h-1z M30,100h1v1h-1z M31,100h1v1h-1z M32,100h1v1h-1z M36,100h1v1h-1z M37,100h1v1h-1z M38,100h1v1h-1z M39,100h1v1h-1z M42,100h1v1h-1z M43,100h1v1h-1z M45,100h1v1h-1z M46,100h1v1h-1z M47,100h1v1h-1z M48,100h1v1h-1z M50,100h1v1h-1z M51,100h1v1h-1z M52,100h1v1h-1z M53,100h1v1h-1z M54,100h1v1h-1z M55,100h1v1h-1z M56,100h1v1h-1z M57,100h1v1h-1z M58,100h1v1h-1z M59,100h1v1h-1z M60,100h1v1h-1z M61,100h1v1h-1z M66,100h1v1h-1z M67,100h1v1h-1z M68,100h1v1h-1z M70,100h1v1h-1z M74,100h1v1h-1z M76,100h1v1h-1z M77,100h1v1h-1z M78,100h1v1h-1z M79,100h1v1h-1z M80,100h1v1h-1z M84,100h1v1h-1z M88,100h1v1h-1z M90,100h1v1h-1z M93,100h1v1h-1z M94,100h1v1h-1z M95,100h1v1h-1z M100,100h1v1h-1z M101,100h1v1h-1z M102,100h1v1h-1z M103,100h1v1h-1z M104,100h1v1h-1z M105,100h1v1h-1z M106,100h1v1h-1z M108,100h1v1h-1z M12,101h1v1h-1z M13,101h1v1h-1z M17,101h1v1h-1z M20,101h1v1h-1z M23,101h1v1h-1z M24,101h1v1h-1z M25,101h1v1h-1z M27,101h1v1h-1z M28,101h1v1h-1z M32,101h1v1h-1z M36,101h1v1h-1z M37,101h1v1h-1z M39,101h1v1h-1z M40,101h1v1h-1z M43,101h1v1h-1z M44,101h1v1h-1z M47,101h1v1h-1z M49,101h1v1h-1z M51,101h1v1h-1z M52,101h1v1h-1z M56,101h1v1h-1z M59,101h1v1h-1z M62,101h1v1h-1z M63,101h1v1h-1z M65,101h1v1h-1z M66,101h1v1h-1z M67,101h1v1h-1z M70,101h1v1h-1z M72,101h1v1h-1z M75,101h1v1h-1z M76,101h1v1h-1z M80,101h1v1h-1z M81,101h1v1h-1z M84,101h1v1h-1z M86,101h1v1h-1z M89,101h1v1h-1z M91,101h1v1h-1z M93,101h1v1h-1z M95,101h1v1h-1z M96,101h1v1h-1z M98,101h1v1h-1z M100,101h1v1h-1z M104,101h1v1h-1z M105,101h1v1h-1z M106,101h1v1h-1z M108,101h1v1h-1z M4,102h1v1h-1z M5,102h1v1h-1z M6,102h1v1h-1z M7,102h1v1h-1z M8,102h1v1h-1z M9,102h1v1h-1z M10,102h1v1h-1z M13,102h1v1h-1z M15,102h1v1h-1z M17,102h1v1h-1z M18,102h1v1h-1z M19,102h1v1h-1z M20,102h1v1h-1z M22,102h1v1h-1z M24,102h1v1h-1z M26,102h1v1h-1z M27,102h1v1h-1z M28,102h1v1h-1z M30,102h1v1h-1z M32,102h1v1h-1z M33,102h1v1h-1z M35,102h1v1h-1z M36,102h1v1h-1z M38,102h1v1h-1z M39,102h1v1h-1z M41,102h1v1h-1z M44,102h1v1h-1z M48,102h1v1h-1z M50,102h1v1h-1z M51,102h1v1h-1z M52,102h1v1h-1z M54,102h1v1h-1z M56,102h1v1h-1z M57,102h1v1h-1z M62,102h1v1h-1z M65,102h1v1h-1z M74,102h1v1h-1z M75,102h1v1h-1z M76,102h1v1h-1z M78,102h1v1h-1z M80,102h1v1h-1z M83,102h1v1h-1z M85,102h1v1h-1z M86,102h1v1h-1z M88,102h1v1h-1z M92,102h1v1h-1z M93,102h1v1h-1z M95,102h1v1h-1z M98,102h1v1h-1z M99,102h1v1h-1z M100,102h1v1h-1z M102,102h1v1h-1z M104,102h1v1h-1z M107,102h1v1h-1z M4,103h1v1h-1z M10,103h1v1h-1z M12,103h1v1h-1z M16,103h1v1h-1z M18,103h1v1h-1z M19,103h1v1h-1z M20,103h1v1h-1z M21,103h1v1h-1z M22,103h1v1h-1z M23,103h1v1h-1z M25,103h1v1h-1z M26,103h1v1h-1z M27,103h1v1h-1z M28,103h1v1h-1z M32,103h1v1h-1z M34,103h1v1h-1z M38,103h1v1h-1z M42,103h1v1h-1z M44,103h1v1h-1z M46,103h1v1h-1z M47,103h1v1h-1z M50,103h1v1h-1z M52,103h1v1h-1z M56,103h1v1h-1z M57,103h1v1h-1z M58,103h1v1h-1z M59,103h1v1h-1z M61,103h1v1h-1z M67,103h1v1h-1z M68,103h1v1h-1z M69,103h1v1h-1z M70,103h1v1h-1z M71,103h1v1h-1z M73,103h1v1h-1z M76,103h1v1h-1z M80,103h1v1h-1z M81,103h1v1h-1z M83,103h1v1h-1z M87,103h1v1h-1z M89,103h1v1h-1z M90,103h1v1h-1z M92,103h1v1h-1z M93,103h1v1h-1z M94,103h1v1h-1z M95,103h1v1h-1z M97,103h1v1h-1z M98,103h1v1h-1z M100,103h1v1h-1z M104,103h1v1h-1z M4,104h1v1h-1z M6,104h1v1h-1z M7,104h1v1h-1z M8,104h1v1h-1z M10,104h1v1h-1z M12,104h1v1h-1z M13,104h1v1h-1z M14,104h1v1h-1z M15,104h1v1h-1z M16,104h1v1h-1z M20,104h1v1h-1z M23,104h1v1h-1z M24,104h1v1h-1z M25,104h1v1h-1z M28,104h1v1h-1z M29,104h1v1h-1z M30,104h1v1h-1z M31,104h1v1h-1z M32,104h1v1h-1z M33,104h1v1h-1z M34,104h1v1h-1z M35,104h1v1h-1z M37,104h1v1h-1z M38,104h1v1h-1z M40,104h1v1h-1z M41,104h1v1h-1z M42,104h1v1h-1z M45,104h1v1h-1z M46,104h1v1h-1z M48,104h1v1h-1z M50,104h1v1h-1z M51,104h1v1h-1z M52,104h1v1h-1z M53,104h1v1h-1z M54,104h1v1h-1z M55,104h1v1h-1z M56,104h1v1h-1z M58,104h1v1h-1z M59,104h1v1h-1z M61,104h1v1h-1z M62,104h1v1h-1z M64,104h1v1h-1z M66,104h1v1h-1z M69,104h1v1h-1z M71,104h1v1h-1z M72,104h1v1h-1z M74,104h1v1h-1z M76,104h1v1h-1z M77,104h1v1h-1z M78,104h1v1h-1z M79,104h1v1h-1z M80,104h1v1h-1z M82,104h1v1h-1z M83,104h1v1h-1z M85,104h1v1h-1z M87,104h1v1h-1z M90,104h1v1h-1z M93,104h1v1h-1z M94,104h1v1h-1z M95,104h1v1h-1z M97,104h1v1h-1z M98,104h1v1h-1z M100,104h1v1h-1z M101,104h1v1h-1z M102,104h1v1h-1z M103,104h1v1h-1z M104,104h1v1h-1z M106,104h1v1h-1z M108,104h1v1h-1z M4,105h1v1h-1z M6,105h1v1h-1z M7,105h1v1h-1z M8,105h1v1h-1z M10,105h1v1h-1z M14,105h1v1h-1z M17,105h1v1h-1z M18,105h1v1h-1z M21,105h1v1h-1z M22,105h1v1h-1z M23,105h1v1h-1z M27,105h1v1h-1z M28,105h1v1h-1z M29,105h1v1h-1z M30,105h1v1h-1z M31,105h1v1h-1z M36,105h1v1h-1z M39,105h1v1h-1z M40,105h1v1h-1z M41,105h1v1h-1z M42,105h1v1h-1z M43,105h1v1h-1z M47,105h1v1h-1z M48,105h1v1h-1z M50,105h1v1h-1z M51,105h1v1h-1z M53,105h1v1h-1z M56,105h1v1h-1z M57,105h1v1h-1z M58,105h1v1h-1z M60,105h1v1h-1z M61,105h1v1h-1z M62,105h1v1h-1z M63,105h1v1h-1z M64,105h1v1h-1z M71,105h1v1h-1z M72,105h1v1h-1z M73,105h1v1h-1z M75,105h1v1h-1z M76,105h1v1h-1z M77,105h1v1h-1z M78,105h1v1h-1z M80,105h1v1h-1z M84,105h1v1h-1z M86,105h1v1h-1z M87,105h1v1h-1z M88,105h1v1h-1z M90,105h1v1h-1z M93,105h1v1h-1z M94,105h1v1h-1z M95,105h1v1h-1z M97,105h1v1h-1z M98,105h1v1h-1z M104,105h1v1h-1z M106,105h1v1h-1z M107,105h1v1h-1z M108,105h1v1h-1z M4,106h1v1h-1z M6,106h1v1h-1z M7,106h1v1h-1z M8,106h1v1h-1z M10,106h1v1h-1z M14,106h1v1h-1z M16,106h1v1h-1z M17,106h1v1h-1z M18,106h1v1h-1z M20,106h1v1h-1z M21,106h1v1h-1z M22,106h1v1h-1z M27,106h1v1h-1z M29,106h1v1h-1z M31,106h1v1h-1z M36,106h1v1h-1z M38,106h1v1h-1z M40,106h1v1h-1z M41,106h1v1h-1z M45,106h1v1h-1z M49,106h1v1h-1z M50,106h1v1h-1z M51,106h1v1h-1z M52,106h1v1h-1z M53,106h1v1h-1z M60,106h1v1h-1z M62,106h1v1h-1z M64,106h1v1h-1z M69,106h1v1h-1z M72,106h1v1h-1z M74,106h1v1h-1z M77,106h1v1h-1z M79,106h1v1h-1z M80,106h1v1h-1z M83,106h1v1h-1z M84,106h1v1h-1z M86,106h1v1h-1z M89,106h1v1h-1z M93,106h1v1h-1z M95,106h1v1h-1z M98,106h1v1h-1z M104,106h1v1h-1z M4,107h1v1h-1z M10,107h1v1h-1z M12,107h1v1h-1z M17,107h1v1h-1z M18,107h1v1h-1z M20,107h1v1h-1z M23,107h1v1h-1z M32,107h1v1h-1z M33,107h1v1h-1z M34,107h1v1h-1z M35,107h1v1h-1z M39,107h1v1h-1z M44,107h1v1h-1z M46,107h1v1h-1z M47,107h1v1h-1z M53,107h1v1h-1z M54,107h1v1h-1z M55,107h1v1h-1z M56,107h1v1h-1z M58,107h1v1h-1z M59,107h1v1h-1z M65,107h1v1h-1z M66,107h1v1h-1z M67,107h1v1h-1z M68,107h1v1h-1z M70,107h1v1h-1z M71,107h1v1h-1z M74,107h1v1h-1z M78,107h1v1h-1z M80,107h1v1h-1z M83,107h1v1h-1z M89,107h1v1h-1z M90,107h1v1h-1z M91,107h1v1h-1z M92,107h1v1h-1z M94,107h1v1h-1z M95,107h1v1h-1z M98,107h1v1h-1z M101,107h1v1h-1z M104,107h1v1h-1z M105,107h1v1h-1z M4,108h1v1h-1z M5,108h1v1h-1z M6,108h1v1h-1z M7,108h1v1h-1z M8,108h1v1h-1z M9,108h1v1h-1z M10,108h1v1h-1z M12,108h1v1h-1z M13,108h1v1h-1z M14,108h1v1h-1z M15,108h1v1h-1z M18,108h1v1h-1z M20,108h1v1h-1z M21,108h1v1h-1z M23,108h1v1h-1z M25,108h1v1h-1z M28,108h1v1h-1z M29,108h1v1h-1z M33,108h1v1h-1z M34,108h1v1h-1z M37,108h1v1h-1z M38,108h1v1h-1z M39,108h1v1h-1z M40,108h1v1h-1z M41,108h1v1h-1z M43,108h1v1h-1z M45,108h1v1h-1z M49,108h1v1h-1z M52,108h1v1h-1z M55,108h1v1h-1z M57,108h1v1h-1z M60,108h1v1h-1z M62,108h1v1h-1z M65,108h1v1h-1z M73,108h1v1h-1z M77,108h1v1h-1z M78,108h1v1h-1z M79,108h1v1h-1z M80,108h1v1h-1z M81,108h1v1h-1z M83,108h1v1h-1z M84,108h1v1h-1z M85,108h1v1h-1z M88,108h1v1h-1z M90,108h1v1h-1z M91,108h1v1h-1z M93,108h1v1h-1z M94,108h1v1h-1z M95,108h1v1h-1z M99,108h1v1h-1z M100,108h1v1h-1z M102,108h1v1h-1z M103,108h1v1h-1z M105,108h1v1h-1z M108,108h1v1h-1z" fill="#000000"/>
</svg>
