<?xml version="1.0" encoding="UTF-8"?>
<!DOCTYPE svg PUBLIC "-//W3C//DTD SVG 1.1//EN" "http://www.w3.org/Graphics/SVG/1.1/DTD/svg11.dtd">
<svg xmlns="http://www.w3.org/2000/svg" version="1.1" viewBox="0 0 113 113" stroke="none">
	<rect width="100%" height="100%" fill="#FFFFFF"/>
	<path d="M4,4h1v1h-1z M5,4h1v1h-1z M6,4h1v1h-1z M7,4h1v1h-1z M8,4h1v1h-1z M9,4h1v1h-1z M10,4h1v1h-1z M12,4h1v1h-1z M13,4h1v1h-1z M14,4h1v1h-1z M15,4h1v1h-1z M17,4h1v1h-1z M21,4h1v1h-1z M22,4h1v1h-1z M23,4h1v1h-1z M24,4h1v1h-1z M26,4h1v1h-1z M27,4h1v1h-1z M28,4h1v1h-1z M29,4h1v1h-1z M34,4h1v1h-1z M35,4h1v1h-1z M36,4h1v1h-1z M40,4h1v1h-1z M42,4h1v1h-1z M44,4h1v1h-1z M45,4h1v1h-1z M50,4h1v1h-1z M51,4h1v1h-1z M52,4h1v1h-1z M53,4h1v1h-1z M54,4h1v1h-1z M55,4h1v1h-1z M57,4h1v1h-1z M59,4h1v1h-1z M60,4h1v1h-1z M61,4h1v1h-1z M62,4h1v1h-1z M64,4h1v1h-1z M65,4h1v1h-1z M66,4h1v1h-1z M67,4h1v1h-1z M69,4h1v1h-1z M70,4h1v1h-1z M72,4h1v1h-1z M73,4h1v1h-1z M79,4h1v1h-1z M84,4h1v1h-1z M86,4h1v1h-1z M87,4h1v1h-1z M88,4h1v1h-1z M90,4h1v1h-1z M93,4h1v1h-1z M94,4h1v1h-1z M96,4h1v1h-1z M98,4h1v1h-1z M102,4h1v1h-1z M103,4h1v1h-1z M104,4h1v1h-1z M105,4h1v1h-1z M106,4h1v1h-1z M107,4h1v1h-1z M108,4h1v1h-1z M4,5h1v1h-1z M10,5h1v1h-1z M12,5h1v1h-1z M13,5h1v1h-1z M14,5h1v1h-1z M15,5h1v1h-1z M17,5h1v1h-1z M18,5h1v1h-1z M19,5h1v1h-1z M23,5h1v1h-1z M29,5h1v1h-1z M30,5h1v1h-1z M31,5h1v1h-1z M34,5h1v1h-1z M35,5h1v1h-1z M36,5h1v1h-1z M37,5h1v1h-1z M40,5h1v1h-1z M42,5h1v1h-1z M44,5h1v1h-1z M45,5h1v1h-1z M46,5h1v1h-1z M47,5h1v1h-1z M49,5h1v1h-1z M54,5h1v1h-1z M57,5h1v1h-1z M58,5h1v1h-1z M59,5h1v1h-1z M60,5h1v1h-1z M66,5h1v1h-1z M67,5h1v1h-1z M70,5h1v1h-1z M73,5h1v1h-1z M75,5h1v1h-1z M78,5h1v1h-1z M79,5h1v1h-1z M80,5h1v1h-1z M81,5h1v1h-1z M82,5h1v1h-1z M83,5h1v1h-1z M85,5h1v1h-1z M87,5h1v1h-1z M88,5h1v1h-1z M90,5h1v1h-1z M93,5h1v1h-1z M94,5h1v1h-1z M95,5h1v1h-1z M96,5h1v1h-1z M97,5h1v1h-1z M98,5h1v1h-1z M102,5h1v1h-1z M108,5h1v1h-1z M4,6h1v1h-1z M6,6h1v1h-1z M7,6h1v1h-1z M8,6h1v1h-1z M10,6h1v1h-1z M12,6h1v1h-1z M14,6h1v1h-1z M19,6h1v1h-1z M20,6h1v1h-1z M21,6h1v1h-1z M22,6h1v1h-1z M23,6h1v1h-1z M24,6h1v1h-1z M25,6h1v1h-1z M26,6h1v1h-1z M29,6h1v1h-1z M30,6h1v1h-1z M32,6h1v1h-1z M34,6h1v1h-1z M35,6h1v1h-1z M38,6h1v1h-1z M41,6h1v1h-1z M42,6h1v1h-1z M44,6h1v1h-1z M53,6h1v1h-1z M54,6h1v1h-1z M56,6h1v1h-1z M58,6h1v1h-1z M59,6h1v1h-1z M68,6h1v1h-1z M69,6h1v1h-1z M70,6h1v1h-1z M73,6h1v1h-1z M80,6h1v1h-1z M81,6h1v1h-1z M82,6h1v1h-1z M83,6h1v1h-1z M85,6h1v1h-1z M89,6h1v1h-1z M92,6h1v1h-1z M94,6h1v1h-1z M95,6h1v1h-1z M98,6h1v1h-1z M99,6h1v1h-1z M102,6h1v1h-1z M104,6h1v1h-1z M105,6h1v1h-1z M106,6h1v1h-1z M108,6h1v1h-1z M4,7h1v1h-1z M6,7h1v1h-1z M7,7h1v1h-1z M8,7h1v1h-1z M10,7h1v1h-1z M12,7h1v1h-1z M14,7h1v1h-1z M15,7h1v1h-1z M16,7h1v1h-1z M17,7h1v1h-1z M20,7h1v1h-1z M21,7h1v1h-1z M25,7h1v1h-1z M27,7h1v1h-1z M28,7h1v1h-1z M29,7h1v1h-1z M30,7h1v1h-1z M31,7h1v1h-1z M38,7h1v1h-1z M40,7h1v1h-1z M42,7h1v1h-1z M43,7h1v1h-1z M44,7h1v1h-1z M45,7h1v1h-1z M47,7h1v1h-1z M50,7h1v1h-1z M52,7h1v1h-1z M53,7h1v1h-1z M61,7h1v1h-1z M62,7h1v1h-1z M63,7h1v1h-1z M68,7h1v1h-1z M69,7h1v1h-1z M70,7h1v1h-1z M71,7h1v1h-1z M72,7h1v1h-1z M73,7h1v1h-1z M75,7h1v1h-1z M76,7h1v1h-1z M78,7h1v1h-1z M79,7h1v1h-1z M82,7h1v1h-1z M83,7h1v1h-1z M85,7h1v1h-1z M88,7h1v1h-1z M91,7h1v1h-1z M92,7h1v1h-1z M93,7h1v1h-1z M96,7h1v1h-1z M100,7h1v1h-1z M102,7h1v1h-1z M104,7h1v1h-1z M105,7h1v1h-1z M106,7h1v1h-1z M108,7h1v1h-1z M4,8h1v1h-1z M6,8h1v1h-1z M7,8h1v1h-1z M8,8h1v1h-1z M10,8h1v1h-1z M16,8h1v1h-1z M18,8h1v1h-1z M19,8h1v1h-1z M21,8h1v1h-1z M22,8h1v1h-1z M24,8h1v1h-1z M25,8h1v1h-1z M26,8h1v1h-1z M28,8h1v1h-1z M29,8h1v1h-1z M30,8h1v1h-1z M31,8h1v1h-1z M32,8h1v1h-1z M33,8h1v1h-1z M35,8h1v1h-1z M41,8h1v1h-1z M42,8h1v1h-1z M44,8h1v1h-1z M45,8h1v1h-1z M50,8h1v1h-1z M51,8h1v1h-1z M52,8h1v1h-1z M53,8h1v1h-1z M54,8h1v1h-1z M55,8h1v1h-1z M56,8h1v1h-1z M60,8h1v1h-1z M61,8h1v1h-1z M62,8h1v1h-1z M64,8h1v1h-1z M70,8h1v1h-1z M72,8h1v1h-1z M76,8h1v1h-1z M77,8h1v1h-1z M78,8h1v1h-1z M79,8h1v1h-1z M80,8h1v1h-1z M83,8h1v1h-1z M84,8h1v1h-1z M85,8h1v1h-1z M87,8h1v1h-1z M92,8h1v1h-1z M93,8h1v1h-1z M95,8h1v1h-1z M99,8h1v1h-1z M100,8h1v1h-1z M102,8h1v1h-1z M104,8h1v1h-1z M105,8h1v1h-1z M106,8h1v1h-1z M108,8h1v1h-1z M4,9h1v1h-1z M10,9h1v1h-1z M12,9h1v1h-1z M13,9h1v1h-1z M14,9h1v1h-1z M15,9h1v1h-1z M18,9h1v1h-1z M19,9h1v1h-1z M21,9h1v1h-1z M23,9h1v1h-1z M24,9h1v1h-1z M27,9h1v1h-1z M28,9h1v1h-1z M32,9h1v1h-1z M33,9h1v1h-1z M34,9h1v1h-1z M35,9h1v1h-1z M37,9h1v1h-1z M39,9h1v1h-1z M42,9h1v1h-1z M44,9h1v1h-1z M45,9h1v1h-1z M46,9h1v1h-1z M52,9h1v1h-1z M56,9h1v1h-1z M57,9h1v1h-1z M58,9h1v1h-1z M60,9h1v1h-1z M61,9h1v1h-1z M63,9h1v1h-1z M66,9h1v1h-1z M67,9h1v1h-1z M68,9h1v1h-1z M69,9h1v1h-1z M70,9h1v1h-1z M71,9h1v1h-1z M73,9h1v1h-1z M76,9h1v1h-1z M80,9h1v1h-1z M81,9h1v1h-1z M82,9h1v1h-1z M83,9h1v1h-1z M85,9h1v1h-1z M87,9h1v1h-1z M88,9h1v1h-1z M90,9h1v1h-1z M92,9h1v1h-1z M93,9h1v1h-1z M94,9h1v1h-1z M97,9h1v1h-1z M99,9h1v1h-1z M102,9h1v1h-1z M108,9h1v1h-1z M4,10h1v1h-1z M5,10h1v1h-1z M6,10h1v1h-1z M7,10h1v1h-1z M8,10h1v1h-1z M9,10h1v1h-1z M10,10h1v1h-1z M12,10h1v1h-1z M14,10h1v1h-1z M16,10h1v1h-1z M18,10h1v1h-1z M20,10h1v1h-1z M22,10h1v1h-1z M24,10h1v1h-1z M26,10h1v1h-1z M28,10h1v1h-1z M30,10h1v1h-1z M32,10h1v1h-1z M34,10h1v1h-1z M36,10h1v1h-1z M38,10h1v1h-1z M40,10h1v1h-1z M42,10h1v1h-1z M44,10h1v1h-1z M46,10h1v1h-1z M48,10h1v1h-1z M50,10h1v1h-1z M52,10h1v1h-1z M54,10h1v1h-1z M56,10h1v1h-1z M58,10h1v1h-1z M60,10h1v1h-1z M62,10h1v1h-1z M64,10h1v1h-1z M66,10h1v1h-1z M68,10h1v1h-1z M70,10h1v1h-1z M72,10h1v1h-1z M74,10h1v1h-1z M76,10h1v1h-1z M78,10h1v1h-1z M80,10h1v1h-1z M82,10h1v1h-1z M84,10h1v1h-1z M86,10h1v1h-1z M88,10h1v1h-1z M90,10h1v1h-1z M92,10h1v1h-1z M94,10h1v1h-1z M96,10h1v1h-1z M98,10h1v1h-1z M100,10h1v1h-1z M102,10h1v1h-1z M103,10h1v1h-1z M104,10h1v1h-1z M105,10h1v1h-1z M106,10h1v1h-1z M107,10h1v1h-1z M108,10h1v1h-1z M14,11h1v1h-1z M15,11h1v1h-1z M16,11h1v1h-1z M19,11h1v1h-1z M20,11h1v1h-1z M22,11h1v1h-1z M24,11h1v1h-1z M28,11h1v1h-1z M32,11h1v1h-1z M33,11h1v1h-1z M34,11h1v1h-1z M35,11h1v1h-1z M39,11h1v1h-1z M42,11h1v1h-1z M44,11h1v1h-1z M46,11h1v1h-1z M47,11h1v1h-1z M51,11h1v1h-1z M52,11h1v1h-1z M56,11h1v1h-1z M57,11h1v1h-1z M59,11h1v1h-1z M65,11h1v1h-1z M68,11h1v1h-1z M69,11h1v1h-1z M71,11h1v1h-1z M73,11h1v1h-1z M75,11h1v1h-1z M76,11h1v1h-1z M80,11h1v1h-1z M81,11h1v1h-1z M83,11h1v1h-1z M89,11h1v1h-1z M90,11h1v1h-1z M92,11h1v1h-1z M93,11h1v1h-1z M94,11h1v1h-1z M100,11h1v1h-1z M4,12h1v1h-1z M5,12h1v1h-1z M8,12h1v1h-1z M9,12h1v1h-1z M10,12h1v1h-1z M13,12h1v1h-1z M14,12h1v1h-1z M18,12h1v1h-1z M20,12h1v1h-1z M21,12h1v1h-1z M24,12h1v1h-1z M26,12h1v1h-1z M27,12h1v1h-1z M28,12h1v1h-1z M29,12h1v1h-1z M30,12h1v1h-1z M31,12h1v1h-1z M32,12h1v1h-1z M33,12h1v1h-1z M44,12h1v1h-1z M45,12h1v1h-1z M46,12h1v1h-1z M47,12h1v1h-1z M50,12h1v1h-1z M51,12h1v1h-1z M52,12h1v1h-1z M53,12h1v1h-1z M54,12h1v1h-1z M55,12h1v1h-1z M56,12h1v1h-1z M60,12h1v1h-1z M61,12h1v1h-1z M62,12h1v1h-1z M64,12h1v1h-1z M65,12h1v1h-1z M66,12h1v1h-1z M68,12h1v1h-1z M69,12h1v1h-1z M70,12h1v1h-1z M71,12h1v1h-1z M75,12h1v1h-1z M76,12h1v1h-1z M77,12h1v1h-1z M78,12h1v1h-1z M79,12h1v1h-1z M80,12h1v1h-1z M82,12h1v1h-1z M83,12h1v1h-1z M84,12h1v1h-1z M85,12h1v1h-1z M87,12h1v1h-1z M90,12h1v1h-1z M92,12h1v1h-1z M95,12h1v1h-1z M96,12h1v1h-1z M97,12h1v1h-1z M98,12h1v1h-1z M100,12h1v1h-1z M103,12h1v1h-1z M105,12h1v1h-1z M106,12h1v1h-1z M107,12h1v1h-1z M108,12h1v1h-1z M5,13h1v1h-1z M6,13h1v1h-1z M7,13h1v1h-1z M11,13h1v1h-1z M15,13h1v1h-1z M18,13h1v1h-1z M20,13h1v1h-1z M21,13h1v1h-1z M23,13h1v1h-1z M25,13h1v1h-1z M26,13h1v1h-1z M28,13h1v1h-1z M30,13h1v1h-1z M33,13h1v1h-1z M39,13h1v1h-1z M41,13h1v1h-1z M42,13h1v1h-1z M43,13h1v1h-1z M45,13h1v1h-1z M48,13h1v1h-1z M52,13h1v1h-1z M54,13h1v1h-1z M56,13h1v1h-1z M57,13h1v1h-1z M58,13h1v1h-1z M59,13h1v1h-1z M60,13h1v1h-1z M61,13h1v1h-1z M62,13h1v1h-1z M63,13h1v1h-1z M66,13h1v1h-1z M67,13h1v1h-1z M70,13h1v1h-1z M73,13h1v1h-1z M75,13h1v1h-1z M76,13h1v1h-1z M78,13h1v1h-1z M79,13h1v1h-1z M81,13h1v1h-1z M83,13h1v1h-1z M84,13h1v1h-1z M85,13h1v1h-1z M86,13h1v1h-1z M87,13h1v1h-1z M88,13h1v1h-1z M89,13h1v1h-1z M91,13h1v1h-1z M94,13h1v1h-1z M96,13h1v1h-1z M97,13h1v1h-1z M98,13h1v1h-1z M99,13h1v1h-1z M100,13h1v1h-1z M101,13h1v1h-1z M102,13h1v1h-1z M106,13h1v1h-1z M108,13h1v1h-1z M4,14h1v1h-1z M5,14h1v1h-1z M6,14h1v1h-1z M8,14h1v1h-1z M9,14h1v1h-1z M10,14h1v1h-1z M11,14h1v1h-1z M14,14h1v1h-1z M16,14h1v1h-1z M17,14h1v1h-1z M19,14h1v1h-1z M21,14h1v1h-1z M23,14h1v1h-1z M24,14h1v1h-1z M25,14h1v1h-1z M26,14h1v1h-1z M27,14h1v1h-1z M29,14h1v1h-1z M31,14h1v1h-1z M32,14h1v1h-1z M35,14h1v1h-1z M38,14h1v1h-1z M39,14h1v1h-1z M41,14h1v1h-1z M43,14h1v1h-1z M47,14h1v1h-1z M48,14h1v1h-1z M50,14h1v1h-1z M51,14h1v1h-1z M52,14h1v1h-1z M53,14h1v1h-1z M59,14h1v1h-1z M60,14h1v1h-1z M62,14h1v1h-1z M63,14h1v1h-1z M64,14h1v1h-1z M67,14h1v1h-1z M74,14h1v1h-1z M75,14h1v1h-1z M77,14h1v1h-1z M79,14h1v1h-1z M84,14h1v1h-1z M85,14h1v1h-1z M86,14h1v1h-1z M88,14h1v1h-1z M89,14h1v1h-1z M91,14h1v1h-1z M96,14h1v1h-1z M98,14h1v1h-1z M99,14h1v1h-1z M102,14h1v1h-1z M104,14h1v1h-1z M105,14h1v1h-1z M107,14h1v1h-1z M4,15h1v1h-1z M6,15h1v1h-1z M9,15h1v1h-1z M11,15h1v1h-1z M13,15h1v1h-1z M16,15h1v1h-1z M17,15h1v1h-1z M19,15h1v1h-1z M20,15h1v1h-1z M21,15h1v1h-1z M24,15h1v1h-1z M32,15h1v1h-1z M33,15h1v1h-1z M34,15h1v1h-1z M35,15h1v1h-1z M37,15h1v1h-1z M38,15h1v1h-1z M44,15h1v1h-1z M49,15h1v1h-1z M50,15h1v1h-1z M54,15h1v1h-1z M55,15h1v1h-1z M56,15h1v1h-1z M61,15h1v1h-1z M65,15h1v1h-1z M66,15h1v1h-1z M68,15h1v1h-1z M70,15h1v1h-1z M71,15h1v1h-1z M75,15h1v1h-1z M76,15h1v1h-1z M77,15h1v1h-1z M78,15h1v1h-1z M79,15h1v1h-1z M80,15h1v1h-1z M82,15h1v1h-1z M83,15h1v1h-1z M85,15h1v1h-1z M92,15h1v1h-1z M93,15h1v1h-1z M94,15h1v1h-1z M97,15h1v1h-1z M99,15h1v1h-1z M101,15h1v1h-1z M107,15h1v1h-1z M108,15h1v1h-1z M4,16h1v1h-1z M5,16h1v1h-1z M7,16h1v1h-1z M8,16h1v1h-1z M9,16h1v1h-1z M10,16h1v1h-1z M22,16h1v1h-1z M23,16h1v1h-1z M24,16h1v1h-1z M27,16h1v1h-1z M28,16h1v1h-1z M29,16h1v1h-1z M30,16h1v1h-1z M33,16h1v1h-1z M34,16h1v1h-1z M35,16h1v1h-1z M38,16h1v1h-1z M40,16h1v1h-1z M41,16h1v1h-1z M42,16h1v1h-1z M46,16h1v1h-1z M49,16h1v1h-1z M51,16h1v1h-1z M54,16h1v1h-1z M59,16h1v1h-1z M63,16h1v1h-1z M65,16h1v1h-1z M67,16h1v1h-1z M70,16h1v1h-1z M72,16h1v1h-1z M73,16h1v1h-1z M79,16h1v1h-1z M83,16h1v1h-1z M88,16h1v1h-1z M89,16h1v1h-1z M90,16h1v1h-1z M94,16h1v1h-1z M97,16h1v1h-1z M99,16h1v1h-1z M100,16h1v1h-1z M103,16h1v1h-1z M104,16h1v1h-1z M105,16h1v1h-1z M107,16h1v1h-1z M108,16h1v1h-1z M4,17h1v1h-1z M5,17h1v1h-1z M8,17h1v1h-1z M9,17h1v1h-1z M11,17h1v1h-1z M12,17h1v1h-1z M13,17h1v1h-1z M14,17h1v1h-1z M15,17h1v1h-1z M16,17h1v1h-1z M18,17h1v1h-1z M20,17h1v1h-1z M22,17h1v1h-1z M23,17h1v1h-1z M26,17h1v1h-1z M27,17h1v1h-1z M28,17h1v1h-1z M34,17h1v1h-1z M35,17h1v1h-1z M36,17h1v1h-1z M39,17h1v1h-1z M43,17h1v1h-1z M44,17h1v1h-1z M45,17h1v1h-1z M46,17h1v1h-1z M48,17h1v1h-1z M51,17h1v1h-1z M52,17h1v1h-1z M53,17h1v1h-1z M54,17h1v1h-1z M58,17h1v1h-1z M60,17h1v1h-1z M63,17h1v1h-1z M64,17h1v1h-1z M65,17h1v1h-1z M66,17h1v1h-1z M69,17h1v1h-1z M72,17h1v1h-1z M75,17h1v1h-1z M76,17h1v1h-1z M79,17h1v1h-1z M83,17h1v1h-1z M84,17h1v1h-1z M86,17h1v1h-1z M89,17h1v1h-1z M92,17h1v1h-1z M93,17h1v1h-1z M95,17h1v1h-1z M96,17h1v1h-1z M98,17h1v1h-1z M102,17h1v1h-1z M103,17h1v1h-1z M104,17h1v1h-1z M105,17h1v1h-1z M106,17h1v1h-1z M4,18h1v1h-1z M5,18h1v1h-1z M6,18h1v1h-1z M9,18h1v1h-1z M10,18h1v1h-1z M11,18h1v1h-1z M13,18h1v1h-1z M16,18h1v1h-1z M20,18h1v1h-1z M23,18h1v1h-1z M25,18h1v1h-1z M26,18h1v1h-1z M27,18h1v1h-1z M29,18h1v1h-1z M33,18h1v1h-1z M35,18h1v1h-1z M36,18h1v1h-1z M38,18h1v1h-1z M40,18h1v1h-1z M50,18h1v1h-1z M52,18h1v1h-1z M53,18h1v1h-1z M60,18h1v1h-1z M61,18h1v1h-1z M62,18h1v1h-1z M65,18h1v1h-1z M74,18h1v1h-1z M75,18h1v1h-1z M76,18h1v1h-1z M77,18h1v1h-1z M79,18h1v1h-1z M80,18h1v1h-1z M81,18h1v1h-1z M85,18h1v1h-1z M86,18h1v1h-1z M87,18h1v1h-1z M88,18h1v1h-1z M89,18h1v1h-1z M95,18h1v1h-1z M96,18h1v1h-1z M98,18h1v1h-1z M99,18h1v1h-1z M101,18h1v1h-1z M102,18h1v1h-1z M104,18h1v1h-1z M105,18h1v1h-1z M107,18h1v1h-1z M5,19h1v1h-1z M6,19h1v1h-1z M7,19h1v1h-1z M8,19h1v1h-1z M9,19h1v1h-1z M13,19h1v1h-1z M17,19h1v1h-1z M18,19h1v1h-1z M19,19h1v1h-1z M20,19h1v1h-1z M22,19h1v1h-1z M25,19h1v1h-1z M27,19h1v1h-1z M28,19h1v1h-1z M29,19h1v1h-1z M32,19h1v1h-1z M34,19h1v1h-1z M35,19h1v1h-1z M38,19h1v1h-1z M41,19h1v1h-1z M42,19h1v1h-1z M43,19h1v1h-1z M44,19h1v1h-1z M45,19h1v1h-1z M46,19h1v1h-1z M47,19h1v1h-1z M49,19h1v1h-1z M50,19h1v1h-1z M52,19h1v1h-1z M53,19h1v1h-1z M55,19h1v1h-1z M56,19h1v1h-1z M59,19h1v1h-1z M61,19h1v1h-1z M67,19h1v1h-1z M68,19h1v1h-1z M69,19h1v1h-1z M70,19h1v1h-1z M71,19h1v1h-1z M73,19h1v1h-1z M75,19h1v1h-1z M76,19h1v1h-1z M78,19h1v1h-1z M80,19h1v1h-1z M82,19h1v1h-1z M83,19h1v1h-1z M90,19h1v1h-1z M92,19h1v1h-1z M93,19h1v1h-1z M95,19h1v1h-1z M97,19h1v1h-1z M99,19h1v1h-1z M101,19h1v1h-1z M103,19h1v1h-1z M104,19h1v1h-1z M105,19h1v1h-1z M108,19h1v1h-1z M5,20h1v1h-1z M7,20h1v1h-1z M8,20h1v1h-1z M9,20h1v1h-1z M10,20h1v1h-1z M13,20h1v1h-1z M14,20h1v1h-1z M16,20h1v1h-1z M18,20h1v1h-1z M21,20h1v1h-1z M22,20h1v1h-1z M23,20h1v1h-1z M24,20h1v1h-1z M25,20h1v1h-1z M27,20h1v1h-1z M29,20h1v1h-1z M30,20h1v1h-1z M31,20h1v1h-1z M32,20h1v1h-1z M33,20h1v1h-1z M34,20h1v1h-1z M35,20h1v1h-1z M36,20h1v1h-1z M37,20h1v1h-1z M39,20h1v1h-1z M41,20h1v1h-1z M42,20h1v1h-1z M43,20h1v1h-1z M44,20h1v1h-1z M46,20h1v1h-1z M47,20h1v1h-1z M48,20h1v1h-1z M49,20h1v1h-1z M50,20h1v1h-1z M51,20h1v1h-1z M56,20h1v1h-1z M62,20h1v1h-1z M66,20h1v1h-1z M68,20h1v1h-1z M69,20h1v1h-1z M71,20h1v1h-1z M72,20h1v1h-1z M73,20h1v1h-1z M74,20h1v1h-1z M75,20h1v1h-1z M78,20h1v1h-1z M79,20h1v1h-1z M81,20h1v1h-1z M82,20h1v1h-1z M83,20h1v1h-1z M84,20h1v1h-1z M85,20h1v1h-1z M86,20h1v1h-1z M90,20h1v1h-1z M91,20h1v1h-1z M93,20h1v1h-1z M95,20h1v1h-1z M96,20h1v1h-1z M97,20h1v1h-1z M99,20h1v1h-1z M100,20h1v1h-1z M101,20h1v1h-1z M103,20h1v1h-1z M105,20h1v1h-1z M6,21h1v1h-1z M11,21h1v1h-1z M14,21h1v1h-1z M16,21h1v1h-1z M18,21h1v1h-1z M20,21h1v1h-1z M22,21h1v1h-1z M23,21h1v1h-1z M24,21h1v1h-1z M26,21h1v1h-1z M28,21h1v1h-1z M30,21h1v1h-1z M31,21h1v1h-1z M33,21h1v1h-1z M35,21h1v1h-1z M37,21h1v1h-1z M38,21h1v1h-1z M39,21h1v1h-1z M41,21h1v1h-1z M43,21h1v1h-1z M47,21h1v1h-1z M48,21h1v1h-1z M49,21h1v1h-1z M50,21h1v1h-1z M51,21h1v1h-1z M52,21h1v1h-1z M56,21h1v1h-1z M57,21h1v1h-1z M58,21h1v1h-1z M60,21h1v1h-1z M63,21h1v1h-1z M64,21h1v1h-1z M66,21h1v1h-1z M71,21h1v1h-1z M72,21h1v1h-1z M74,21h1v1h-1z M76,21h1v1h-1z M80,21h1v1h-1z M88,21h1v1h-1z M89,21h1v1h-1z M91,21h1v1h-1z M94,21h1v1h-1z M95,21h1v1h-1z M97,21h1v1h-1z M99,21h1v1h-1z M101,21h1v1h-1z M102,21h1v1h-1z M103,21h1v1h-1z M104,21h1v1h-1z M106,21h1v1h-1z M107,21h1v1h-1z M108,21h1v1h-1z M4,22h1v1h-1z M5,22h1v1h-1z M8,22h1v1h-1z M10,22h1v1h-1z M12,22h1v1h-1z M13,22h1v1h-1z M15,22h1v1h-1z M16,22h1v1h-1z M20,22h1v1h-1z M21,22h1v1h-1z M22,22h1v1h-1z M23,22h1v1h-1z M26,22h1v1h-1z M28,22h1v1h-1z M29,22h1v1h-1z M32,22h1v1h-1z M35,22h1v1h-1z M36,22h1v1h-1z M38,22h1v1h-1z M40,22h1v1h-1z M41,22h1v1h-1z M43,22h1v1h-1z M45,22h1v1h-1z M47,22h1v1h-1z M50,22h1v1h-1z M52,22h1v1h-1z M55,22h1v1h-1z M56,22h1v1h-1z M57,22h1v1h-1z M59,22h1v1h-1z M62,22h1v1h-1z M64,22h1v1h-1z M67,22h1v1h-1z M68,22h1v1h-1z M74,22h1v1h-1z M75,22h1v1h-1z M76,22h1v1h-1z M86,22h1v1h-1z M87,22h1v1h-1z M88,22h1v1h-1z M89,22h1v1h-1z M92,22h1v1h-1z M96,22h1v1h-1z M98,22h1v1h-1z M99,22h1v1h-1z M100,22h1v1h-1z M102,22h1v1h-1z M104,22h1v1h-1z M107,22h1v1h-1z M4,23h1v1h-1z M6,23h1v1h-1z M7,23h1v1h-1z M8,23h1v1h-1z M11,23h1v1h-1z M17,23h1v1h-1z M18,23h1v1h-1z M21,23h1v1h-1z M22,23h1v1h-1z M25,23h1v1h-1z M32,23h1v1h-1z M33,23h1v1h-1z M34,23h1v1h-1z M37,23h1v1h-1z M42,23h1v1h-1z M44,23h1v1h-1z M46,23h1v1h-1z M47,23h1v1h-1z M49,23h1v1h-1z M51,23h1v1h-1z M52,23h1v1h-1z M54,23h1v1h-1z M56,23h1v1h-1z M58,23h1v1h-1z M59,23h1v1h-1z M62,23h1v1h-1z M65,23h1v1h-1z M66,23h1v1h-1z M68,23h1v1h-1z M70,23h1v1h-1z M71,23h1v1h-1z M77,23h1v1h-1z M78,23h1v1h-1z M80,23h1v1h-1z M83,23h1v1h-1z M85,23h1v1h-1z M86,23h1v1h-1z M89,23h1v1h-1z M92,23h1v1h-1z M93,23h1v1h-1z M94,23h1v1h-1z M95,23h1v1h-1z M98,23h1v1h-1z M101,23h1v1h-1z M103,23h1v1h-1z M104,23h1v1h-1z M105,23h1v1h-1z M107,23h1v1h-1z M108,23h1v1h-1z M6,24h1v1h-1z M10,24h1v1h-1z M12,24h1v1h-1z M13,24h1v1h-1z M14,24h1v1h-1z M15,24h1v1h-1z M18,24h1v1h-1z M19,24h1v1h-1z M21,24h1v1h-1z M23,24h1v1h-1z M24,24h1v1h-1z M25,24h1v1h-1z M29,24h1v1h-1z M30,24h1v1h-1z M31,24h1v1h-1z M34,24h1v1h-1z M36,24h1v1h-1z M40,24h1v1h-1z M41,24h1v1h-1z M42,24h1v1h-1z M43,24h1v1h-1z M44,24h1v1h-1z M45,24h1v1h-1z M46,24h1v1h-1z M47,24h1v1h-1z M54,24h1v1h-1z M59,24h1v1h-1z M62,24h1v1h-1z M63,24h1v1h-1z M64,24h1v1h-1z M65,24h1v1h-1z M66,24h1v1h-1z M67,24h1v1h-1z M68,24h1v1h-1z M72,24h1v1h-1z M76,24h1v1h-1z M77,24h1v1h-1z M78,24h1v1h-1z M79,24h1v1h-1z M80,24h1v1h-1z M81,24h1v1h-1z M82,24h1v1h-1z M83,24h1v1h-1z M86,24h1v1h-1z M87,24h1v1h-1z M88,24h1v1h-1z M89,24h1v1h-1z M90,24h1v1h-1z M91,24h1v1h-1z M93,24h1v1h-1z M94,24h1v1h-1z M98,24h1v1h-1z M99,24h1v1h-1z M100,24h1v1h-1z M102,24h1v1h-1z M103,24h1v1h-1z M107,24h1v1h-1z M4,25h1v1h-1z M5,25h1v1h-1z M6,25h1v1h-1z M8,25h1v1h-1z M9,25h1v1h-1z M11,25h1v1h-1z M12,25h1v1h-1z M13,25h1v1h-1z M15,25h1v1h-1z M16,25h1v1h-1z M17,25h1v1h-1z M19,25h1v1h-1z M22,25h1v1h-1z M23,25h1v1h-1z M24,25h1v1h-1z M28,25h1v1h-1z M29,25h1v1h-1z M32,25h1v1h-1z M36,25h1v1h-1z M40,25h1v1h-1z M42,25h1v1h-1z M43,25h1v1h-1z M46,25h1v1h-1z M48,25h1v1h-1z M50,25h1v1h-1z M51,25h1v1h-1z M52,25h1v1h-1z M53,25h1v1h-1z M54,25h1v1h-1z M55,25h1v1h-1z M60,25h1v1h-1z M63,25h1v1h-1z M64,25h1v1h-1z M69,25h1v1h-1z M71,25h1v1h-1z M73,25h1v1h-1z M75,25h1v1h-1z M76,25h1v1h-1z M78,25h1v1h-1z M79,25h1v1h-1z M80,25h1v1h-1z M82,25h1v1h-1z M84,25h1v1h-1z M86,25h1v1h-1z M87,25h1v1h-1z M88,25h1v1h-1z M95,25h1v1h-1z M96,25h1v1h-1z M97,25h1v1h-1z M99,25h1v1h-1z M102,25h1v1h-1z M103,25h1v1h-1z M104,25h1v1h-1z M105,25h1v1h-1z M108,25h1v1h-1z M5,26h1v1h-1z M6,26h1v1h-1z M7,26h1v1h-1z M8,26h1v1h-1z M10,26h1v1h-1z M11,26h1v1h-1z M12,26h1v1h-1z M14,26h1v1h-1z M16,26h1v1h-1z M19,26h1v1h-1z M22,26h1v1h-1z M23,26h1v1h-1z M26,26h1v1h-1z M27,26h1v1h-1z M28,26h1v1h-1z M32,26h1v1h-1z M35,26h1v1h-1z M38,26h1v1h-1z M40,26h1v1h-1z M41,26h1v1h-1z M47,26h1v1h-1z M48,26h1v1h-1z M50,26h1v1h-1z M52,26h1v1h-1z M53,26h1v1h-1z M57,26h1v1h-1z M62,26h1v1h-1z M64,26h1v1h-1z M65,26h1v1h-1z M68,26h1v1h-1z M69,26h1v1h-1z M72,26h1v1h-1z M74,26h1v1h-1z M76,26h1v1h-1z M77,26h1v1h-1z M84,26h1v1h-1z M86,26h1v1h-1z M88,26h1v1h-1z M89,26h1v1h-1z M96,26h1v1h-1z M98,26h1v1h-1z M99,26h1v1h-1z M102,26h1v1h-1z M103,26h1v1h-1z M104,26h1v1h-1z M107,26h1v1h-1z M4,27h1v1h-1z M5,27h1v1h-1z M6,27h1v1h-1z M9,27h1v1h-1z M12,27h1v1h-1z M14,27h1v1h-1z M15,27h1v1h-1z M16,27h1v1h-1z M17,27h1v1h-1z M19,27h1v1h-1z M22,27h1v1h-1z M30,27h1v1h-1z M32,27h1v1h-1z M33,27h1v1h-1z M34,27h1v1h-1z M35,27h1v1h-1z M37,27h1v1h-1z M41,27h1v1h-1z M42,27h1v1h-1z M43,27h1v1h-1z M44,27h1v1h-1z M46,27h1v1h-1z M47,27h1v1h-1z M49,27h1v1h-1z M50,27h1v1h-1z M54,27h1v1h-1z M55,27h1v1h-1z M56,27h1v1h-1z M58,27h1v1h-1z M59,27h1v1h-1z M63,27h1v1h-1z M66,27h1v1h-1z M68,27h1v1h-1z M70,27h1v1h-1z M71,27h1v1h-1z M73,27h1v1h-1z M74,27h1v1h-1z M77,27h1v1h-1z M78,27h1v1h-1z M79,27h1v1h-1z M80,27h1v1h-1z M83,27h1v1h-1z M85,27h1v1h-1z M87,27h1v1h-1z M90,27h1v1h-1z M92,27h1v1h-1z M95,27h1v1h-1z M97,27h1v1h-1z M98,27h1v1h-1z M101,27h1v1h-1z M104,27h1v1h-1z M108,27h1v1h-1z M4,28h1v1h-1z M5,28h1v1h-1z M7,28h1v1h-1z M8,28h1v1h-1z M9,28h1v1h-1z M10,28h1v1h-1z M11,28h1v1h-1z M12,28h1v1h-1z M13,28h1v1h-1z M16,28h1v1h-1z M17,28h1v1h-1z M18,28h1v1h-1z M19,28h1v1h-1z M20,28h1v1h-1z M21,28h1v1h-1z M22,28h1v1h-1z M25,28h1v1h-1z M28,28h1v1h-1z M29,28h1v1h-1z M30,28h1v1h-1z M31,28h1v1h-1z M32,28h1v1h-1z M33,28h1v1h-1z M34,28h1v1h-1z M35,28h1v1h-1z M36,28h1v1h-1z M37,28h1v1h-1z M38,28h1v1h-1z M40,28h1v1h-1z M43,28h1v1h-1z M44,28h1v1h-1z M46,28h1v1h-1z M47,28h1v1h-1z M49,28h1v1h-1z M52,28h1v1h-1z M53,28h1v1h-1z M54,28h1v1h-1z M55,28h1v1h-1z M56,28h1v1h-1z M57,28h1v1h-1z M58,28h1v1h-1z M61,28h1v1h-1z M65,28h1v1h-1z M66,28h1v1h-1z M70,28h1v1h-1z M73,28h1v1h-1z M76,28h1v1h-1z M77,28h1v1h-1z M78,28h1v1h-1z M79,28h1v1h-1z M80,28h1v1h-1z M85,28h1v1h-1z M87,28h1v1h-1z M90,28h1v1h-1z M92,28h1v1h-1z M98,28h1v1h-1z M99,28h1v1h-1z M100,28h1v1h-1z M101,28h1v1h-1z M102,28h1v1h-1z M103,28h1v1h-1z M104,28h1v1h-1z M108,28h1v1h-1z M4,29h1v1h-1z M5,29h1v1h-1z M6,29h1v1h-1z M8,29h1v1h-1z M12,29h1v1h-1z M13,29h1v1h-1z M15,29h1v1h-1z M18,29h1v1h-1z M19,29h1v1h-1z M22,29h1v1h-1z M23,29h1v1h-1z M24,29h1v1h-1z M25,29h1v1h-1z M27,29h1v1h-1z M28,29h1v1h-1z M32,29h1v1h-1z M34,29h1v1h-1z M35,29h1v1h-1z M45,29h1v1h-1z M48,29h1v1h-1z M49,29h1v1h-1z M50,29h1v1h-1z M51,29h1v1h-1z M52,29h1v1h-1z M56,29h1v1h-1z M57,29h1v1h-1z M58,29h1v1h-1z M59,29h1v1h-1z M60,29h1v1h-1z M63,29h1v1h-1z M65,29h1v1h-1z M69,29h1v1h-1z M70,29h1v1h-1z M72,29h1v1h-1z M74,29h1v1h-1z M76,29h1v1h-1z M80,29h1v1h-1z M81,29h1v1h-1z M82,29h1v1h-1z M84,29h1v1h-1z M87,29h1v1h-1z M88,29h1v1h-1z M90,29h1v1h-1z M91,29h1v1h-1z M92,29h1v1h-1z M93,29h1v1h-1z M95,29h1v1h-1z M96,29h1v1h-1z M100,29h1v1h-1z M104,29h1v1h-1z M4,30h1v1h-1z M8,30h1v1h-1z M10,30h1v1h-1z M12,30h1v1h-1z M14,30h1v1h-1z M17,30h1v1h-1z M21,30h1v1h-1z M22,30h1v1h-1z M26,30h1v1h-1z M27,30h1v1h-1z M28,30h1v1h-1z M30,30h1v1h-1z M32,30h1v1h-1z M33,30h1v1h-1z M38,30h1v1h-1z M40,30h1v1h-1z M41,30h1v1h-1z M43,30h1v1h-1z M47,30h1v1h-1z M48,30h1v1h-1z M50,30h1v1h-1z M52,30h1v1h-1z M54,30h1v1h-1z M56,30h1v1h-1z M57,30h1v1h-1z M59,30h1v1h-1z M62,30h1v1h-1z M63,30h1v1h-1z M64,30h1v1h-1z M67,30h1v1h-1z M71,30h1v1h-1z M73,30h1v1h-1z M74,30h1v1h-1z M76,30h1v1h-1z M78,30h1v1h-1z M80,30h1v1h-1z M83,30h1v1h-1z M84,30h1v1h-1z M86,30h1v1h-1z M87,30h1v1h-1z M89,30h1v1h-1z M91,30h1v1h-1z M93,30h1v1h-1z M95,30h1v1h-1z M96,30h1v1h-1z M98,30h1v1h-1z M100,30h1v1h-1z M102,30h1v1h-1z M104,30h1v1h-1z M107,30h1v1h-1z M4,31h1v1h-1z M7,31h1v1h-1z M8,31h1v1h-1z M12,31h1v1h-1z M19,31h1v1h-1z M21,31h1v1h-1z M25,31h1v1h-1z M26,31h1v1h-1z M27,31h1v1h-1z M28,31h1v1h-1z M32,31h1v1h-1z M34,31h1v1h-1z M35,31h1v1h-1z M37,31h1v1h-1z M42,31h1v1h-1z M44,31h1v1h-1z M47,31h1v1h-1z M49,31h1v1h-1z M50,31h1v1h-1z M51,31h1v1h-1z M52,31h1v1h-1z M56,31h1v1h-1z M58,31h1v1h-1z M59,31h1v1h-1z M61,31h1v1h-1z M63,31h1v1h-1z M65,31h1v1h-1z M66,31h1v1h-1z M68,31h1v1h-1z M69,31h1v1h-1z M70,31h1v1h-1z M71,31h1v1h-1z M73,31h1v1h-1z M75,31h1v1h-1z M76,31h1v1h-1z M80,31h1v1h-1z M82,31h1v1h-1z M85,31h1v1h-1z M90,31h1v1h-1z M92,31h1v1h-1z M94,31h1v1h-1z M97,31h1v1h-1z M98,31h1v1h-1z M100,31h1v1h-1z M104,31h1v1h-1z M107,31h1v1h-1z M108,31h1v1h-1z M6,32h1v1h-1z M7,32h1v1h-1z M8,32h1v1h-1z M9,32h1v1h-1z M10,32h1v1h-1z M11,32h1v1h-1z M12,32h1v1h-1z M15,32h1v1h-1z M17,32h1v1h-1z M20,32h1v1h-1z M21,32h1v1h-1z M22,32h1v1h-1z M23,32h1v1h-1z M24,32h1v1h-1z M25,32h1v1h-1z M26,32h1v1h-1z M27,32h1v1h-1z M28,32h1v1h-1z M29,32h1v1h-1z M30,32h1v1h-1z M31,32h1v1h-1z M32,32h1v1h-1z M36,32h1v1h-1z M37,32h1v1h-1z M41,32h1v1h-1z M42,32h1v1h-1z M44,32h1v1h-1z M46,32h1v1h-1z M48,32h1v1h-1z M49,32h1v1h-1z M50,32h1v1h-1z M52,32h1v1h-1z M53,32h1v1h-1z M54,32h1v1h-1z M55,32h1v1h-1z M56,32h1v1h-1z M57,32h1v1h-1z M58,32h1v1h-1z M59,32h1v1h-1z M60,32h1v1h-1z M63,32h1v1h-1z M64,32h1v1h-1z M65,32h1v1h-1z M66,32h1v1h-1z M67,32h1v1h-1z M68,32h1v1h-1z M69,32h1v1h-1z M70,32h1v1h-1z M71,32h1v1h-1z M72,32h1v1h-1z M76,32h1v1h-1z M77,32h1v1h-1z M78,32h1v1h-1z M79,32h1v1h-1z M80,32h1v1h-1z M82,32h1v1h-1z M83,32h1v1h-1z M86,32h1v1h-1z M88,32h1v1h-1z M95,32h1v1h-1z M97,32h1v1h-1z M99,32h1v1h-1z M100,32h1v1h-1z M101,32h1v1h-1z M102,32h1v1h-1z M103,32h1v1h-1z M104,32h1v1h-1z M105,32h1v1h-1z M106,32h1v1h-1z M108,32h1v1h-1z M4,33h1v1h-1z M8,33h1v1h-1z M9,33h1v1h-1z M11,33h1v1h-1z M14,33h1v1h-1z M20,33h1v1h-1z M23,33h1v1h-1z M24,33h1v1h-1z M26,33h1v1h-1z M27,33h1v1h-1z M28,33h1v1h-1z M30,33h1v1h-1z M34,33h1v1h-1z M36,33h1v1h-1z M37,33h1v1h-1z M39,33h1v1h-1z M40,33h1v1h-1z M42,33h1v1h-1z M44,33h1v1h-1z M46,33h1v1h-1z M47,33h1v1h-1z M48,33h1v1h-1z M49,33h1v1h-1z M50,33h1v1h-1z M53,33h1v1h-1z M55,33h1v1h-1z M60,33h1v1h-1z M61,33h1v1h-1z M62,33h1v1h-1z M64,33h1v1h-1z M66,33h1v1h-1z M67,33h1v1h-1z M68,33h1v1h-1z M69,33h1v1h-1z M70,33h1v1h-1z M71,33h1v1h-1z M72,33h1v1h-1z M73,33h1v1h-1z M74,33h1v1h-1z M78,33h1v1h-1z M79,33h1v1h-1z M84,33h1v1h-1z M85,33h1v1h-1z M87,33h1v1h-1z M88,33h1v1h-1z M89,33h1v1h-1z M90,33h1v1h-1z M92,33h1v1h-1z M93,33h1v1h-1z M94,33h1v1h-1z M95,33h1v1h-1z M96,33h1v1h-1z M98,33h1v1h-1z M101,33h1v1h-1z M107,33h1v1h-1z M108,33h1v1h-1z M4,34h1v1h-1z M6,34h1v1h-1z M7,34h1v1h-1z M9,34h1v1h-1z M10,34h1v1h-1z M11,34h1v1h-1z M13,34h1v1h-1z M14,34h1v1h-1z M15,34h1v1h-1z M17,34h1v1h-1z M18,34h1v1h-1z M19,34h1v1h-1z M21,34h1v1h-1z M23,34h1v1h-1z M24,34h1v1h-1z M27,34h1v1h-1z M28,34h1v1h-1z M30,34h1v1h-1z M31,34h1v1h-1z M32,34h1v1h-1z M38,34h1v1h-1z M39,34h1v1h-1z M41,34h1v1h-1z M47,34h1v1h-1z M48,34h1v1h-1z M49,34h1v1h-1z M50,34h1v1h-1z M53,34h1v1h-1z M55,34h1v1h-1z M56,34h1v1h-1z M59,34h1v1h-1z M62,34h1v1h-1z M63,34h1v1h-1z M71,34h1v1h-1z M74,34h1v1h-1z M75,34h1v1h-1z M80,34h1v1h-1z M84,34h1v1h-1z M86,34h1v1h-1z M87,34h1v1h-1z M89,34h1v1h-1z M98,34h1v1h-1z M100,34h1v1h-1z M107,34h1v1h-1z M5,35h1v1h-1z M8,35h1v1h-1z M9,35h1v1h-1z M11,35h1v1h-1z M12,35h1v1h-1z M14,35h1v1h-1z M15,35h1v1h-1z M21,35h1v1h-1z M23,35h1v1h-1z M24,35h1v1h-1z M25,35h1v1h-1z M26,35h1v1h-1z M29,35h1v1h-1z M33,35h1v1h-1z M34,35h1v1h-1z M35,35h1v1h-1z M38,35h1v1h-1z M41,35h1v1h-1z M44,35h1v1h-1z M45,35h1v1h-1z M49,35h1v1h-1z M52,35h1v1h-1z M55,35h1v1h-1z M57,35h1v1h-1z M58,35h1v1h-1z M59,35h1v1h-1z M61,35h1v1h-1z M62,35h1v1h-1z M66,35h1v1h-1z M67,35h1v1h-1z M68,35h1v1h-1z M69,35h1v1h-1z M70,35h1v1h-1z M71,35h1v1h-1z M74,35h1v1h-1z M76,35h1v1h-1z M77,35h1v1h-1z M81,35h1v1h-1z M83,35h1v1h-1z M86,35h1v1h-1z M91,35h1v1h-1z M92,35h1v1h-1z M94,35h1v1h-1z M95,35h1v1h-1z M97,35h1v1h-1z M99,35h1v1h-1z M100,35h1v1h-1z M101,35h1v1h-1z M102,35h1v1h-1z M104,35h1v1h-1z M108,35h1v1h-1z M6,36h1v1h-1z M8,36h1v1h-1z M10,36h1v1h-1z M11,36h1v1h-1z M12,36h1v1h-1z M13,36h1v1h-1z M14,36h1v1h-1z M17,36h1v1h-1z M18,36h1v1h-1z M19,36h1v1h-1z M21,36h1v1h-1z M22,36h1v1h-1z M24,36h1v1h-1z M25,36h1v1h-1z M26,36h1v1h-1z M28,36h1v1h-1z M29,36h1v1h-1z M31,36h1v1h-1z M33,36h1v1h-1z M34,36h1v1h-1z M35,36h1v1h-1z M39,36h1v1h-1z M40,36h1v1h-1z M41,36h1v1h-1z M43,36h1v1h-1z M45,36h1v1h-1z M47,36h1v1h-1z M49,36h1v1h-1z M52,36h1v1h-1z M55,36h1v1h-1z M57,36h1v1h-1z M58,36h1v1h-1z M59,36h1v1h-1z M60,36h1v1h-1z M62,36h1v1h-1z M64,36h1v1h-1z M65,36h1v1h-1z M66,36h1v1h-1z M67,36h1v1h-1z M70,36h1v1h-1z M71,36h1v1h-1z M77,36h1v1h-1z M81,36h1v1h-1z M86,36h1v1h-1z M87,36h1v1h-1z M88,36h1v1h-1z M89,36h1v1h-1z M90,36h1v1h-1z M91,36h1v1h-1z M94,36h1v1h-1z M95,36h1v1h-1z M96,36h1v1h-1z M97,36h1v1h-1z M98,36h1v1h-1z M99,36h1v1h-1z M100,36h1v1h-1z M102,36h1v1h-1z M103,36h1v1h-1z M107,36h1v1h-1z M4,37h1v1h-1z M5,37h1v1h-1z M6,37h1v1h-1z M7,37h1v1h-1z M8,37h1v1h-1z M13,37h1v1h-1z M14,37h1v1h-1z M15,37h1v1h-1z M16,37h1v1h-1z M17,37h1v1h-1z M18,37h1v1h-1z M19,37h1v1h-1z M22,37h1v1h-1z M26,37h1v1h-1z M27,37h1v1h-1z M28,37h1v1h-1z M30,37h1v1h-1z M32,37h1v1h-1z M34,37h1v1h-1z M35,37h1v1h-1z M36,37h1v1h-1z M38,37h1v1h-1z M42,37h1v1h-1z M44,37h1v1h-1z M45,37h1v1h-1z M47,37h1v1h-1z M48,37h1v1h-1z M49,37h1v1h-1z M52,37h1v1h-1z M53,37h1v1h-1z M54,37h1v1h-1z M56,37h1v1h-1z M57,37h1v1h-1z M60,37h1v1h-1z M61,37h1v1h-1z M65,37h1v1h-1z M66,37h1v1h-1z M67,37h1v1h-1z M70,37h1v1h-1z M72,37h1v1h-1z M73,37h1v1h-1z M74,37h1v1h-1z M75,37h1v1h-1z M78,37h1v1h-1z M81,37h1v1h-1z M84,37h1v1h-1z M87,37h1v1h-1z M88,37h1v1h-1z M89,37h1v1h-1z M91,37h1v1h-1z M96,37h1v1h-1z M98,37h1v1h-1z M99,37h1v1h-1z M101,37h1v1h-1z M103,37h1v1h-1z M105,37h1v1h-1z M106,37h1v1h-1z M107,37h1v1h-1z M108,37h1v1h-1z M4,38h1v1h-1z M6,38h1v1h-1z M8,38h1v1h-1z M9,38h1v1h-1z M10,38h1v1h-1z M11,38h1v1h-1z M12,38h1v1h-1z M13,38h1v1h-1z M17,38h1v1h-1z M18,38h1v1h-1z M19,38h1v1h-1z M20,38h1v1h-1z M21,38h1v1h-1z M22,38h1v1h-1z M25,38h1v1h-1z M26,38h1v1h-1z M27,38h1v1h-1z M30,38h1v1h-1z M31,38h1v1h-1z M32,38h1v1h-1z M35,38h1v1h-1z M38,38h1v1h-1z M40,38h1v1h-1z M41,38h1v1h-1z M45,38h1v1h-1z M48,38h1v1h-1z M50,38h1v1h-1z M52,38h1v1h-1z M56,38h1v1h-1z M59,38h1v1h-1z M60,38h1v1h-1z M62,38h1v1h-1z M64,38h1v1h-1z M71,38h1v1h-1z M72,38h1v1h-1z M74,38h1v1h-1z M76,38h1v1h-1z M77,38h1v1h-1z M78,38h1v1h-1z M80,38h1v1h-1z M81,38h1v1h-1z M83,38h1v1h-1z M84,38h1v1h-1z M86,38h1v1h-1z M89,38h1v1h-1z M91,38h1v1h-1z M92,38h1v1h-1z M93,38h1v1h-1z M95,38h1v1h-1z M98,38h1v1h-1z M99,38h1v1h-1z M100,38h1v1h-1z M101,38h1v1h-1z M103,38h1v1h-1z M106,38h1v1h-1z M107,38h1v1h-1z M5,39h1v1h-1z M6,39h1v1h-1z M13,39h1v1h-1z M16,39h1v1h-1z M17,39h1v1h-1z M20,39h1v1h-1z M22,39h1v1h-1z M23,39h1v1h-1z M24,39h1v1h-1z M25,39h1v1h-1z M26,39h1v1h-1z M29,39h1v1h-1z M35,39h1v1h-1z M38,39h1v1h-1z M39,39h1v1h-1z M43,39h1v1h-1z M44,39h1v1h-1z M46,39h1v1h-1z M49,39h1v1h-1z M50,39h1v1h-1z M52,39h1v1h-1z M57,39h1v1h-1z M58,39h1v1h-1z M61,39h1v1h-1z M62,39h1v1h-1z M63,39h1v1h-1z M65,39h1v1h-1z M66,39h1v1h-1z M68,39h1v1h-1z M69,39h1v1h-1z M71,39h1v1h-1z M73,39h1v1h-1z M74,39h1v1h-1z M77,39h1v1h-1z M79,39h1v1h-1z M82,39h1v1h-1z M85,39h1v1h-1z M92,39h1v1h-1z M94,39h1v1h-1z M95,39h1v1h-1z M99,39h1v1h-1z M100,39h1v1h-1z M101,39h1v1h-1z M102,39h1v1h-1z M104,39h1v1h-1z M107,39h1v1h-1z M108,39h1v1h-1z M4,40h1v1h-1z M7,40h1v1h-1z M9,40h1v1h-1z M10,40h1v1h-1z M12,40h1v1h-1z M13,40h1v1h-1z M16,40h1v1h-1z M18,40h1v1h-1z M20,40h1v1h-1z M21,40h1v1h-1z M23,40h1v1h-1z M28,40h1v1h-1z M29,40h1v1h-1z M33,40h1v1h-1z M34,40h1v1h-1z M36,40h1v1h-1z M40,40h1v1h-1z M42,40h1v1h-1z M44,40h1v1h-1z M45,40h1v1h-1z M46,40h1v1h-1z M52,40h1v1h-1z M55,40h1v1h-1z M57,40h1v1h-1z M58,40h1v1h-1z M59,40h1v1h-1z M60,40h1v1h-1z M64,40h1v1h-1z M65,40h1v1h-1z M69,40h1v1h-1z M72,40h1v1h-1z M73,40h1v1h-1z M74,40h1v1h-1z M77,40h1v1h-1z M78,40h1v1h-1z M79,40h1v1h-1z M81,40h1v1h-1z M82,40h1v1h-1z M83,40h1v1h-1z M84,40h1v1h-1z M85,40h1v1h-1z M86,40h1v1h-1z M88,40h1v1h-1z M90,40h1v1h-1z M91,40h1v1h-1z M93,40h1v1h-1z M94,40h1v1h-1z M95,40h1v1h-1z M96,40h1v1h-1z M99,40h1v1h-1z M100,40h1v1h-1z M102,40h1v1h-1z M103,40h1v1h-1z M104,40h1v1h-1z M108,40h1v1h-1z M5,41h1v1h-1z M12,41h1v1h-1z M13,41h1v1h-1z M15,41h1v1h-1z M16,41h1v1h-1z M19,41h1v1h-1z M21,41h1v1h-1z M22,41h1v1h-1z M23,41h1v1h-1z M26,41h1v1h-1z M28,41h1v1h-1z M30,41h1v1h-1z M31,41h1v1h-1z M32,41h1v1h-1z M33,41h1v1h-1z M35,41h1v1h-1z M41,41h1v1h-1z M50,41h1v1h-1z M53,41h1v1h-1z M54,41h1v1h-1z M55,41h1v1h-1z M56,41h1v1h-1z M57,41h1v1h-1z M60,41h1v1h-1z M67,41h1v1h-1z M68,41h1v1h-1z M69,41h1v1h-1z M72,41h1v1h-1z M73,41h1v1h-1z M74,41h1v1h-1z M76,41h1v1h-1z M79,41h1v1h-1z M82,41h1v1h-1z M83,41h1v1h-1z M84,41h1v1h-1z M85,41h1v1h-1z M86,41h1v1h-1z M89,41h1v1h-1z M91,41h1v1h-1z M92,41h1v1h-1z M94,41h1v1h-1z M95,41h1v1h-1z M96,41h1v1h-1z M97,41h1v1h-1z M100,41h1v1h-1z M101,41h1v1h-1z M103,41h1v1h-1z M106,41h1v1h-1z M107,41h1v1h-1z M108,41h1v1h-1z M4,42h1v1h-1z M5,42h1v1h-1z M8,42h1v1h-1z M9,42h1v1h-1z M10,42h1v1h-1z M11,42h1v1h-1z M12,42h1v1h-1z M15,42h1v1h-1z M22,42h1v1h-1z M23,42h1v1h-1z M25,42h1v1h-1z M29,42h1v1h-1z M30,42h1v1h-1z M31,42h1v1h-1z M32,42h1v1h-1z M36,42h1v1h-1z M38,42h1v1h-1z M39,42h1v1h-1z M40,42h1v1h-1z M41,42h1v1h-1z M44,42h1v1h-1z M45,42h1v1h-1z M48,42h1v1h-1z M50,42h1v1h-1z M51,42h1v1h-1z M52,42h1v1h-1z M53,42h1v1h-1z M54,42h1v1h-1z M56,42h1v1h-1z M62,42h1v1h-1z M64,42h1v1h-1z M65,42h1v1h-1z M67,42h1v1h-1z M68,42h1v1h-1z M69,42h1v1h-1z M74,42h1v1h-1z M75,42h1v1h-1z M77,42h1v1h-1z M78,42h1v1h-1z M79,42h1v1h-1z M81,42h1v1h-1z M83,42h1v1h-1z M84,42h1v1h-1z M86,42h1v1h-1z M87,42h1v1h-1z M88,42h1v1h-1z M89,42h1v1h-1z M91,42h1v1h-1z M98,42h1v1h-1z M100,42h1v1h-1z M101,42h1v1h-1z M105,42h1v1h-1z M107,42h1v1h-1z M5,43h1v1h-1z M6,43h1v1h-1z M8,43h1v1h-1z M9,43h1v1h-1z M11,43h1v1h-1z M13,43h1v1h-1z M14,43h1v1h-1z M16,43h1v1h-1z M17,43h1v1h-1z M18,43h1v1h-1z M22,43h1v1h-1z M26,43h1v1h-1z M31,43h1v1h-1z M32,43h1v1h-1z M35,43h1v1h-1z M37,43h1v1h-1z M39,43h1v1h-1z M42,43h1v1h-1z M44,43h1v1h-1z M46,43h1v1h-1z M47,43h1v1h-1z M51,43h1v1h-1z M52,43h1v1h-1z M55,43h1v1h-1z M58,43h1v1h-1z M59,43h1v1h-1z M61,43h1v1h-1z M62,43h1v1h-1z M65,43h1v1h-1z M68,43h1v1h-1z M70,43h1v1h-1z M71,43h1v1h-1z M76,43h1v1h-1z M77,43h1v1h-1z M81,43h1v1h-1z M82,43h1v1h-1z M83,43h1v1h-1z M89,43h1v1h-1z M90,43h1v1h-1z M92,43h1v1h-1z M94,43h1v1h-1z M95,43h1v1h-1z M99,43h1v1h-1z M100,43h1v1h-1z M101,43h1v1h-1z M102,43h1v1h-1z M104,43h1v1h-1z M108,43h1v1h-1z M4,44h1v1h-1z M5,44h1v1h-1z M7,44h1v1h-1z M8,44h1v1h-1z M10,44h1v1h-1z M12,44h1v1h-1z M13,44h1v1h-1z M14,44h1v1h-1z M15,44h1v1h-1z M16,44h1v1h-1z M17,44h1v1h-1z M19,44h1v1h-1z M20,44h1v1h-1z M22,44h1v1h-1z M23,44h1v1h-1z M25,44h1v1h-1z M26,44h1v1h-1z M31,44h1v1h-1z M33,44h1v1h-1z M38,44h1v1h-1z M39,44h1v1h-1z M41,44h1v1h-1z M42,44h1v1h-1z M44,44h1v1h-1z M46,44h1v1h-1z M47,44h1v1h-1z M49,44h1v1h-1z M52,44h1v1h-1z M55,44h1v1h-1z M57,44h1v1h-1z M59,44h1v1h-1z M61,44h1v1h-1z M65,44h1v1h-1z M70,44h1v1h-1z M71,44h1v1h-1z M72,44h1v1h-1z M73,44h1v1h-1z M76,44h1v1h-1z M78,44h1v1h-1z M86,44h1v1h-1z M88,44h1v1h-1z M89,44h1v1h-1z M92,44h1v1h-1z M93,44h1v1h-1z M96,44h1v1h-1z M100,44h1v1h-1z M101,44h1v1h-1z M102,44h1v1h-1z M103,44h1v1h-1z M107,44h1v1h-1z M108,44h1v1h-1z M6,45h1v1h-1z M7,45h1v1h-1z M9,45h1v1h-1z M12,45h1v1h-1z M14,45h1v1h-1z M16,45h1v1h-1z M18,45h1v1h-1z M22,45h1v1h-1z M23,45h1v1h-1z M24,45h1v1h-1z M25,45h1v1h-1z M26,45h1v1h-1z M27,45h1v1h-1z M30,45h1v1h-1z M31,45h1v1h-1z M36,45h1v1h-1z M37,45h1v1h-1z M42,45h1v1h-1z M43,45h1v1h-1z M46,45h1v1h-1z M48,45h1v1h-1z M51,45h1v1h-1z M52,45h1v1h-1z M54,45h1v1h-1z M55,45h1v1h-1z M57,45h1v1h-1z M60,45h1v1h-1z M63,45h1v1h-1z M64,45h1v1h-1z M65,45h1v1h-1z M66,45h1v1h-1z M68,45h1v1h-1z M69,45h1v1h-1z M70,45h1v1h-1z M72,45h1v1h-1z M78,45h1v1h-1z M81,45h1v1h-1z M82,45h1v1h-1z M83,45h1v1h-1z M84,45h1v1h-1z M88,45h1v1h-1z M89,45h1v1h-1z M90,45h1v1h-1z M91,45h1v1h-1z M94,45h1v1h-1z M95,45h1v1h-1z M97,45h1v1h-1z M99,45h1v1h-1z M100,45h1v1h-1z M106,45h1v1h-1z M108,45h1v1h-1z M8,46h1v1h-1z M10,46h1v1h-1z M13,46h1v1h-1z M15,46h1v1h-1z M20,46h1v1h-1z M21,46h1v1h-1z M22,46h1v1h-1z M23,46h1v1h-1z M26,46h1v1h-1z M27,46h1v1h-1z M29,46h1v1h-1z M30,46h1v1h-1z M31,46h1v1h-1z M36,46h1v1h-1z M38,46h1v1h-1z M39,46h1v1h-1z M40,46h1v1h-1z M41,46h1v1h-1z M44,46h1v1h-1z M45,46h1v1h-1z M50,46h1v1h-1z M51,46h1v1h-1z M52,46h1v1h-1z M55,46h1v1h-1z M56,46h1v1h-1z M62,46h1v1h-1z M63,46h1v1h-1z M64,46h1v1h-1z M65,46h1v1h-1z M67,46h1v1h-1z M72,46h1v1h-1z M74,46h1v1h-1z M75,46h1v1h-1z M77,46h1v1h-1z M78,46h1v1h-1z M79,46h1v1h-1z M83,46h1v1h-1z M84,46h1v1h-1z M86,46h1v1h-1z M89,46h1v1h-1z M96,46h1v1h-1z M98,46h1v1h-1z M100,46h1v1h-1z M101,46h1v1h-1z M107,46h1v1h-1z M5,47h1v1h-1z M8,47h1v1h-1z M9,47h1v1h-1z M11,47h1v1h-1z M12,47h1v1h-1z M14,47h1v1h-1z M15,47h1v1h-1z M17,47h1v1h-1z M18,47h1v1h-1z M20,47h1v1h-1z M23,47h1v1h-1z M24,47h1v1h-1z M25,47h1v1h-1z M27,47h1v1h-1z M28,47h1v1h-1z M29,47h1v1h-1z M31,47h1v1h-1z M38,47h1v1h-1z M44,47h1v1h-1z M46,47h1v1h-1z M47,47h1v1h-1z M49,47h1v1h-1z M50,47h1v1h-1z M53,47h1v1h-1z M56,47h1v1h-1z M57,47h1v1h-1z M59,47h1v1h-1z M62,47h1v1h-1z M68,47h1v1h-1z M69,47h1v1h-1z M71,47h1v1h-1z M73,47h1v1h-1z M74,47h1v1h-1z M75,47h1v1h-1z M76,47h1v1h-1z M77,47h1v1h-1z M79,47h1v1h-1z M81,47h1v1h-1z M82,47h1v1h-1z M83,47h1v1h-1z M86,47h1v1h-1z M89,47h1v1h-1z M90,47h1v1h-1z M91,47h1v1h-1z M92,47h1v1h-1z M94,47h1v1h-1z M95,47h1v1h-1z M97,47h1v1h-1z M98,47h1v1h-1z M99,47h1v1h-1z M100,47h1v1h-1z M101,47h1v1h-1z M102,47h1v1h-1z M103,47h1v1h-1z M104,47h1v1h-1z M107,47h1v1h-1z M4,48h1v1h-1z M5,48h1v1h-1z M6,48h1v1h-1z M7,48h1v1h-1z M8,48h1v1h-1z M10,48h1v1h-1z M11,48h1v1h-1z M12,48h1v1h-1z M14,48h1v1h-1z M16,48h1v1h-1z M17,48h1v1h-1z M18,48h1v1h-1z M19,48h1v1h-1z M20,48h1v1h-1z M21,48h1v1h-1z M24,48h1v1h-1z M25,48h1v1h-1z M28,48h1v1h-1z M29,48h1v1h-1z M30,48h1v1h-1z M31,48h1v1h-1z M33,48h1v1h-1z M40,48h1v1h-1z M41,48h1v1h-1z M42,48h1v1h-1z M44,48h1v1h-1z M45,48h1v1h-1z M46,48h1v1h-1z M48,48h1v1h-1z M52,48h1v1h-1z M55,48h1v1h-1z M58,48h1v1h-1z M60,48h1v1h-1z M62,48h1v1h-1z M63,48h1v1h-1z M64,48h1v1h-1z M65,48h1v1h-1z M66,48h1v1h-1z M69,48h1v1h-1z M70,48h1v1h-1z M74,48h1v1h-1z M77,48h1v1h-1z M79,48h1v1h-1z M81,48h1v1h-1z M82,48h1v1h-1z M83,48h1v1h-1z M84,48h1v1h-1z M85,48h1v1h-1z M86,48h1v1h-1z M87,48h1v1h-1z M88,48h1v1h-1z M90,48h1v1h-1z M91,48h1v1h-1z M92,48h1v1h-1z M93,48h1v1h-1z M94,48h1v1h-1z M96,48h1v1h-1z M99,48h1v1h-1z M100,48h1v1h-1z M102,48h1v1h-1z M103,48h1v1h-1z M104,48h1v1h-1z M107,48h1v1h-1z M108,48h1v1h-1z M8,49h1v1h-1z M11,49h1v1h-1z M12,49h1v1h-1z M13,49h1v1h-1z M14,49h1v1h-1z M18,49h1v1h-1z M20,49h1v1h-1z M25,49h1v1h-1z M27,49h1v1h-1z M28,49h1v1h-1z M30,49h1v1h-1z M33,49h1v1h-1z M36,49h1v1h-1z M38,49h1v1h-1z M39,49h1v1h-1z M40,49h1v1h-1z M41,49h1v1h-1z M45,49h1v1h-1z M47,49h1v1h-1z M48,49h1v1h-1z M49,49h1v1h-1z M50,49h1v1h-1z M51,49h1v1h-1z M53,49h1v1h-1z M54,49h1v1h-1z M57,49h1v1h-1z M59,49h1v1h-1z M62,49h1v1h-1z M64,49h1v1h-1z M67,49h1v1h-1z M72,49h1v1h-1z M75,49h1v1h-1z M78,49h1v1h-1z M81,49h1v1h-1z M84,49h1v1h-1z M85,49h1v1h-1z M86,49h1v1h-1z M89,49h1v1h-1z M95,49h1v1h-1z M97,49h1v1h-1z M98,49h1v1h-1z M100,49h1v1h-1z M101,49h1v1h-1z M102,49h1v1h-1z M4,50h1v1h-1z M6,50h1v1h-1z M7,50h1v1h-1z M10,50h1v1h-1z M11,50h1v1h-1z M12,50h1v1h-1z M13,50h1v1h-1z M18,50h1v1h-1z M21,50h1v1h-1z M22,50h1v1h-1z M24,50h1v1h-1z M27,50h1v1h-1z M28,50h1v1h-1z M29,50h1v1h-1z M31,50h1v1h-1z M32,50h1v1h-1z M35,50h1v1h-1z M36,50h1v1h-1z M38,50h1v1h-1z M39,50h1v1h-1z M40,50h1v1h-1z M43,50h1v1h-1z M47,50h1v1h-1z M48,50h1v1h-1z M50,50h1v1h-1z M51,50h1v1h-1z M53,50h1v1h-1z M54,50h1v1h-1z M56,50h1v1h-1z M57,50h1v1h-1z M60,50h1v1h-1z M62,50h1v1h-1z M64,50h1v1h-1z M69,50h1v1h-1z M72,50h1v1h-1z M73,50h1v1h-1z M74,50h1v1h-1z M75,50h1v1h-1z M76,50h1v1h-1z M80,50h1v1h-1z M86,50h1v1h-1z M89,50h1v1h-1z M95,50h1v1h-1z M96,50h1v1h-1z M98,50h1v1h-1z M100,50h1v1h-1z M101,50h1v1h-1z M102,50h1v1h-1z M105,50h1v1h-1z M107,50h1v1h-1z M5,51h1v1h-1z M8,51h1v1h-1z M11,51h1v1h-1z M14,51h1v1h-1z M18,51h1v1h-1z M19,51h1v1h-1z M21,51h1v1h-1z M24,51h1v1h-1z M25,51h1v1h-1z M26,51h1v1h-1z M33,51h1v1h-1z M34,51h1v1h-1z M35,51h1v1h-1z M41,51h1v1h-1z M42,51h1v1h-1z M44,51h1v1h-1z M46,51h1v1h-1z M47,51h1v1h-1z M49,51h1v1h-1z M50,51h1v1h-1z M52,51h1v1h-1z M53,51h1v1h-1z M55,51h1v1h-1z M56,51h1v1h-1z M58,51h1v1h-1z M59,51h1v1h-1z M62,51h1v1h-1z M63,51h1v1h-1z M65,51h1v1h-1z M66,51h1v1h-1z M68,51h1v1h-1z M70,51h1v1h-1z M71,51h1v1h-1z M81,51h1v1h-1z M82,51h1v1h-1z M83,51h1v1h-1z M85,51h1v1h-1z M89,51h1v1h-1z M91,51h1v1h-1z M92,51h1v1h-1z M93,51h1v1h-1z M94,51h1v1h-1z M97,51h1v1h-1z M98,51h1v1h-1z M99,51h1v1h-1z M101,51h1v1h-1z M102,51h1v1h-1z M104,51h1v1h-1z M105,51h1v1h-1z M108,51h1v1h-1z M7,52h1v1h-1z M8,52h1v1h-1z M9,52h1v1h-1z M10,52h1v1h-1z M11,52h1v1h-1z M12,52h1v1h-1z M14,52h1v1h-1z M15,52h1v1h-1z M21,52h1v1h-1z M22,52h1v1h-1z M23,52h1v1h-1z M28,52h1v1h-1z M29,52h1v1h-1z M30,52h1v1h-1z M31,52h1v1h-1z M32,52h1v1h-1z M34,52h1v1h-1z M35,52h1v1h-1z M36,52h1v1h-1z M37,52h1v1h-1z M39,52h1v1h-1z M40,52h1v1h-1z M41,52h1v1h-1z M42,52h1v1h-1z M43,52h1v1h-1z M44,52h1v1h-1z M45,52h1v1h-1z M48,52h1v1h-1z M50,52h1v1h-1z M52,52h1v1h-1z M53,52h1v1h-1z M54,52h1v1h-1z M55,52h1v1h-1z M56,52h1v1h-1z M58,52h1v1h-1z M60,52h1v1h-1z M61,52h1v1h-1z M62,52h1v1h-1z M63,52h1v1h-1z M66,52h1v1h-1z M68,52h1v1h-1z M72,52h1v1h-1z M73,52h1v1h-1z M76,52h1v1h-1z M77,52h1v1h-1z M78,52h1v1h-1z M79,52h1v1h-1z M80,52h1v1h-1z M81,52h1v1h-1z M82,52h1v1h-1z M84,52h1v1h-1z M88,52h1v1h-1z M89,52h1v1h-1z M91,52h1v1h-1z M94,52h1v1h-1z M96,52h1v1h-1z M97,52h1v1h-1z M99,52h1v1h-1z M100,52h1v1h-1z M101,52h1v1h-1z M102,52h1v1h-1z M103,52h1v1h-1z M104,52h1v1h-1z M105,52h1v1h-1z M107,52h1v1h-1z M108,52h1v1h-1z M4,53h1v1h-1z M5,53h1v1h-1z M6,53h1v1h-1z M8,53h1v1h-1z M12,53h1v1h-1z M14,53h1v1h-1z M15,53h1v1h-1z M17,53h1v1h-1z M18,53h1v1h-1z M19,53h1v1h-1z M22,53h1v1h-1z M23,53h1v1h-1z M24,53h1v1h-1z M28,53h1v1h-1z M32,53h1v1h-1z M33,53h1v1h-1z M34,53h1v1h-1z M36,53h1v1h-1z M38,53h1v1h-1z M39,53h1v1h-1z M40,53h1v1h-1z M42,53h1v1h-1z M47,53h1v1h-1z M48,53h1v1h-1z M49,53h1v1h-1z M50,53h1v1h-1z M52,53h1v1h-1z M56,53h1v1h-1z M57,53h1v1h-1z M58,53h1v1h-1z M60,53h1v1h-1z M61,53h1v1h-1z M62,53h1v1h-1z M65,53h1v1h-1z M69,53h1v1h-1z M71,53h1v1h-1z M74,53h1v1h-1z M76,53h1v1h-1z M80,53h1v1h-1z M86,53h1v1h-1z M87,53h1v1h-1z M88,53h1v1h-1z M89,53h1v1h-1z M96,53h1v1h-1z M99,53h1v1h-1z M100,53h1v1h-1z M104,53h1v1h-1z M105,53h1v1h-1z M106,53h1v1h-1z M107,53h1v1h-1z M108,53h1v1h-1z M4,54h1v1h-1z M5,54h1v1h-1z M6,54h1v1h-1z M8,54h1v1h-1z M10,54h1v1h-1z M12,54h1v1h-1z M13,54h1v1h-1z M14,54h1v1h-1z M18,54h1v1h-1z M21,54h1v1h-1z M22,54h1v1h-1z M25,54h1v1h-1z M26,54h1v1h-1z M28,54h1v1h-1z M30,54h1v1h-1z M32,54h1v1h-1z M38,54h1v1h-1z M39,54h1v1h-1z M40,54h1v1h-1z M41,54h1v1h-1z M43,54h1v1h-1z M44,54h1v1h-1z M47,54h1v1h-1z M48,54h1v1h-1z M50,54h1v1h-1z M52,54h1v1h-1z M54,54h1v1h-1z M56,54h1v1h-1z M57,54h1v1h-1z M62,54h1v1h-1z M64,54h1v1h-1z M65,54h1v1h-1z M67,54h1v1h-1z M71,54h1v1h-1z M72,54h1v1h-1z M74,54h1v1h-1z M76,54h1v1h-1z M78,54h1v1h-1z M80,54h1v1h-1z M84,54h1v1h-1z M85,54h1v1h-1z M86,54h1v1h-1z M87,54h1v1h-1z M88,54h1v1h-1z M89,54h1v1h-1z M92,54h1v1h-1z M96,54h1v1h-1z M97,54h1v1h-1z M98,54h1v1h-1z M99,54h1v1h-1z M100,54h1v1h-1z M102,54h1v1h-1z M104,54h1v1h-1z M106,54h1v1h-1z M107,54h1v1h-1z M8,55h1v1h-1z M12,55h1v1h-1z M14,55h1v1h-1z M15,55h1v1h-1z M16,55h1v1h-1z M18,55h1v1h-1z M19,55h1v1h-1z M21,55h1v1h-1z M22,55h1v1h-1z M24,55h1v1h-1z M26,55h1v1h-1z M28,55h1v1h-1z M32,55h1v1h-1z M34,55h1v1h-1z M35,55h1v1h-1z M39,55h1v1h-1z M44,55h1v1h-1z M45,55h1v1h-1z M46,55h1v1h-1z M47,55h1v1h-1z M49,55h1v1h-1z M52,55h1v1h-1z M56,55h1v1h-1z M57,55h1v1h-1z M58,55h1v1h-1z M59,55h1v1h-1z M61,55h1v1h-1z M65,55h1v1h-1z M68,55h1v1h-1z M70,55h1v1h-1z M71,55h1v1h-1z M73,55h1v1h-1z M75,55h1v1h-1z M76,55h1v1h-1z M80,55h1v1h-1z M81,55h1v1h-1z M83,55h1v1h-1z M89,55h1v1h-1z M90,55h1v1h-1z M92,55h1v1h-1z M95,55h1v1h-1z M100,55h1v1h-1z M104,55h1v1h-1z M108,55h1v1h-1z M4,56h1v1h-1z M6,56h1v1h-1z M7,56h1v1h-1z M8,56h1v1h-1z M9,56h1v1h-1z M10,56h1v1h-1z M11,56h1v1h-1z M12,56h1v1h-1z M13,56h1v1h-1z M14,56h1v1h-1z M16,56h1v1h-1z M18,56h1v1h-1z M19,56h1v1h-1z M21,56h1v1h-1z M23,56h1v1h-1z M24,56h1v1h-1z M25,56h1v1h-1z M26,56h1v1h-1z M28,56h1v1h-1z M29,56h1v1h-1z M30,56h1v1h-1z M31,56h1v1h-1z M32,56h1v1h-1z M33,56h1v1h-1z M35,56h1v1h-1z M37,56h1v1h-1z M38,56h1v1h-1z M41,56h1v1h-1z M42,56h1v1h-1z M45,56h1v1h-1z M46,56h1v1h-1z M47,56h1v1h-1z M48,56h1v1h-1z M49,56h1v1h-1z M52,56h1v1h-1z M53,56h1v1h-1z M54,56h1v1h-1z M55,56h1v1h-1z M56,56h1v1h-1z M58,56h1v1h-1z M65,56h1v1h-1z M66,56h1v1h-1z M70,56h1v1h-1z M73,56h1v1h-1z M76,56h1v1h-1z M77,56h1v1h-1z M78,56h1v1h-1z M79,56h1v1h-1z M80,56h1v1h-1z M82,56h1v1h-1z M84,56h1v1h-1z M86,56h1v1h-1z M88,56h1v1h-1z M90,56h1v1h-1z M92,56h1v1h-1z M94,56h1v1h-1z M98,56h1v1h-1z M99,56h1v1h-1z M100,56h1v1h-1z M101,56h1v1h-1z M102,56h1v1h-1z M103,56h1v1h-1z M104,56h1v1h-1z M105,56h1v1h-1z M106,56h1v1h-1z M107,56h1v1h-1z M5,57h1v1h-1z M6,57h1v1h-1z M9,57h1v1h-1z M11,57h1v1h-1z M12,57h1v1h-1z M15,57h1v1h-1z M17,57h1v1h-1z M18,57h1v1h-1z M19,57h1v1h-1z M21,57h1v1h-1z M24,57h1v1h-1z M25,57h1v1h-1z M26,57h1v1h-1z M27,57h1v1h-1z M31,57h1v1h-1z M36,57h1v1h-1z M37,57h1v1h-1z M38,57h1v1h-1z M40,57h1v1h-1z M41,57h1v1h-1z M44,57h1v1h-1z M46,57h1v1h-1z M47,57h1v1h-1z M49,57h1v1h-1z M53,57h1v1h-1z M54,57h1v1h-1z M55,57h1v1h-1z M57,57h1v1h-1z M58,57h1v1h-1z M59,57h1v1h-1z M62,57h1v1h-1z M64,57h1v1h-1z M65,57h1v1h-1z M69,57h1v1h-1z M70,57h1v1h-1z M72,57h1v1h-1z M73,57h1v1h-1z M75,57h1v1h-1z M79,57h1v1h-1z M81,57h1v1h-1z M82,57h1v1h-1z M84,57h1v1h-1z M85,57h1v1h-1z M86,57h1v1h-1z M87,57h1v1h-1z M88,57h1v1h-1z M89,57h1v1h-1z M91,57h1v1h-1z M93,57h1v1h-1z M95,57h1v1h-1z M96,57h1v1h-1z M97,57h1v1h-1z M100,57h1v1h-1z M102,57h1v1h-1z M103,57h1v1h-1z M104,57h1v1h-1z M105,57h1v1h-1z M107,57h1v1h-1z M108,57h1v1h-1z M6,58h1v1h-1z M8,58h1v1h-1z M10,58h1v1h-1z M17,58h1v1h-1z M18,58h1v1h-1z M22,58h1v1h-1z M23,58h1v1h-1z M25,58h1v1h-1z M29,58h1v1h-1z M35,58h1v1h-1z M38,58h1v1h-1z M40,58h1v1h-1z M50,58h1v1h-1z M51,58h1v1h-1z M53,58h1v1h-1z M54,58h1v1h-1z M62,58h1v1h-1z M64,58h1v1h-1z M65,58h1v1h-1z M68,58h1v1h-1z M72,58h1v1h-1z M74,58h1v1h-1z M77,58h1v1h-1z M84,58h1v1h-1z M85,58h1v1h-1z M86,58h1v1h-1z M87,58h1v1h-1z M88,58h1v1h-1z M89,58h1v1h-1z M92,58h1v1h-1z M95,58h1v1h-1z M98,58h1v1h-1z M100,58h1v1h-1z M102,58h1v1h-1z M103,58h1v1h-1z M104,58h1v1h-1z M106,58h1v1h-1z M107,58h1v1h-1z M8,59h1v1h-1z M11,59h1v1h-1z M12,59h1v1h-1z M13,59h1v1h-1z M14,59h1v1h-1z M15,59h1v1h-1z M25,59h1v1h-1z M27,59h1v1h-1z M30,59h1v1h-1z M31,59h1v1h-1z M32,59h1v1h-1z M33,59h1v1h-1z M35,59h1v1h-1z M39,59h1v1h-1z M42,59h1v1h-1z M43,59h1v1h-1z M44,59h1v1h-1z M47,59h1v1h-1z M51,59h1v1h-1z M53,59h1v1h-1z M55,59h1v1h-1z M56,59h1v1h-1z M57,59h1v1h-1z M59,59h1v1h-1z M62,59h1v1h-1z M65,59h1v1h-1z M66,59h1v1h-1z M68,59h1v1h-1z M69,59h1v1h-1z M70,59h1v1h-1z M71,59h1v1h-1z M73,59h1v1h-1z M76,59h1v1h-1z M77,59h1v1h-1z M78,59h1v1h-1z M81,59h1v1h-1z M82,59h1v1h-1z M83,59h1v1h-1z M85,59h1v1h-1z M89,59h1v1h-1z M92,59h1v1h-1z M93,59h1v1h-1z M95,59h1v1h-1z M97,59h1v1h-1z M98,59h1v1h-1z M99,59h1v1h-1z M101,59h1v1h-1z M103,59h1v1h-1z M107,59h1v1h-1z M4,60h1v1h-1z M5,60h1v1h-1z M6,60h1v1h-1z M7,60h1v1h-1z M10,60h1v1h-1z M11,60h1v1h-1z M12,60h1v1h-1z M14,60h1v1h-1z M15,60h1v1h-1z M16,60h1v1h-1z M17,60h1v1h-1z M19,60h1v1h-1z M28,60h1v1h-1z M30,60h1v1h-1z M31,60h1v1h-1z M32,60h1v1h-1z M35,60h1v1h-1z M36,60h1v1h-1z M38,60h1v1h-1z M39,60h1v1h-1z M41,60h1v1h-1z M42,60h1v1h-1z M45,60h1v1h-1z M46,60h1v1h-1z M48,60h1v1h-1z M50,60h1v1h-1z M52,60h1v1h-1z M53,60h1v1h-1z M54,60h1v1h-1z M55,60h1v1h-1z M58,60h1v1h-1z M63,60h1v1h-1z M67,60h1v1h-1z M68,60h1v1h-1z M69,60h1v1h-1z M70,60h1v1h-1z M76,60h1v1h-1z M78,60h1v1h-1z M80,60h1v1h-1z M82,60h1v1h-1z M83,60h1v1h-1z M84,60h1v1h-1z M87,60h1v1h-1z M88,60h1v1h-1z M90,60h1v1h-1z M91,60h1v1h-1z M92,60h1v1h-1z M94,60h1v1h-1z M95,60h1v1h-1z M96,60h1v1h-1z M97,60h1v1h-1z M98,60h1v1h-1z M101,60h1v1h-1z M102,60h1v1h-1z M105,60h1v1h-1z M108,60h1v1h-1z M4,61h1v1h-1z M11,61h1v1h-1z M13,61h1v1h-1z M14,61h1v1h-1z M15,61h1v1h-1z M16,61h1v1h-1z M17,61h1v1h-1z M18,61h1v1h-1z M21,61h1v1h-1z M24,61h1v1h-1z M26,61h1v1h-1z M29,61h1v1h-1z M30,61h1v1h-1z M35,61h1v1h-1z M36,61h1v1h-1z M37,61h1v1h-1z M40,61h1v1h-1z M41,61h1v1h-1z M42,61h1v1h-1z M43,61h1v1h-1z M48,61h1v1h-1z M50,61h1v1h-1z M55,61h1v1h-1z M58,61h1v1h-1z M59,61h1v1h-1z M63,61h1v1h-1z M68,61h1v1h-1z M70,61h1v1h-1z M72,61h1v1h-1z M73,61h1v1h-1z M74,61h1v1h-1z M75,61h1v1h-1z M76,61h1v1h-1z M79,61h1v1h-1z M83,61h1v1h-1z M86,61h1v1h-1z M88,61h1v1h-1z M89,61h1v1h-1z M91,61h1v1h-1z M93,61h1v1h-1z M94,61h1v1h-1z M95,61h1v1h-1z M100,61h1v1h-1z M101,61h1v1h-1z M102,61h1v1h-1z M104,61h1v1h-1z M105,61h1v1h-1z M106,61h1v1h-1z M4,62h1v1h-1z M5,62h1v1h-1z M10,62h1v1h-1z M13,62h1v1h-1z M14,62h1v1h-1z M16,62h1v1h-1z M17,62h1v1h-1z M18,62h1v1h-1z M19,62h1v1h-1z M20,62h1v1h-1z M22,62h1v1h-1z M23,62h1v1h-1z M24,62h1v1h-1z M25,62h1v1h-1z M32,62h1v1h-1z M35,62h1v1h-1z M36,62h1v1h-1z M38,62h1v1h-1z M40,62h1v1h-1z M44,62h1v1h-1z M47,62h1v1h-1z M50,62h1v1h-1z M51,62h1v1h-1z M53,62h1v1h-1z M55,62h1v1h-1z M56,62h1v1h-1z M57,62h1v1h-1z M59,62h1v1h-1z M60,62h1v1h-1z M62,62h1v1h-1z M63,62h1v1h-1z M65,62h1v1h-1z M69,62h1v1h-1z M71,62h1v1h-1z M72,62h1v1h-1z M74,62h1v1h-1z M83,62h1v1h-1z M84,62h1v1h-1z M86,62h1v1h-1z M87,62h1v1h-1z M89,62h1v1h-1z M91,62h1v1h-1z M93,62h1v1h-1z M95,62h1v1h-1z M96,62h1v1h-1z M98,62h1v1h-1z M101,62h1v1h-1z M102,62h1v1h-1z M103,62h1v1h-1z M104,62h1v1h-1z M106,62h1v1h-1z M4,63h1v1h-1z M5,63h1v1h-1z M6,63h1v1h-1z M7,63h1v1h-1z M8,63h1v1h-1z M9,63h1v1h-1z M11,63h1v1h-1z M12,63h1v1h-1z M13,63h1v1h-1z M14,63h1v1h-1z M15,63h1v1h-1z M16,63h1v1h-1z M17,63h1v1h-1z M18,63h1v1h-1z M22,63h1v1h-1z M26,63h1v1h-1z M28,63h1v1h-1z M29,63h1v1h-1z M30,63h1v1h-1z M31,63h1v1h-1z M32,63h1v1h-1z M34,63h1v1h-1z M37,63h1v1h-1z M41,63h1v1h-1z M42,63h1v1h-1z M44,63h1v1h-1z M45,63h1v1h-1z M46,63h1v1h-1z M47,63h1v1h-1z M49,63h1v1h-1z M51,63h1v1h-1z M54,63h1v1h-1z M55,63h1v1h-1z M56,63h1v1h-1z M58,63h1v1h-1z M62,63h1v1h-1z M66,63h1v1h-1z M68,63h1v1h-1z M70,63h1v1h-1z M71,63h1v1h-1z M73,63h1v1h-1z M74,63h1v1h-1z M76,63h1v1h-1z M77,63h1v1h-1z M80,63h1v1h-1z M82,63h1v1h-1z M90,63h1v1h-1z M92,63h1v1h-1z M94,63h1v1h-1z M95,63h1v1h-1z M98,63h1v1h-1z M101,63h1v1h-1z M103,63h1v1h-1z M104,63h1v1h-1z M4,64h1v1h-1z M5,64h1v1h-1z M6,64h1v1h-1z M7,64h1v1h-1z M8,64h1v1h-1z M9,64h1v1h-1z M10,64h1v1h-1z M15,64h1v1h-1z M17,64h1v1h-1z M20,64h1v1h-1z M24,64h1v1h-1z M25,64h1v1h-1z M27,64h1v1h-1z M28,64h1v1h-1z M30,64h1v1h-1z M31,64h1v1h-1z M35,64h1v1h-1z M36,64h1v1h-1z M37,64h1v1h-1z M40,64h1v1h-1z M42,64h1v1h-1z M43,64h1v1h-1z M46,64h1v1h-1z M47,64h1v1h-1z M48,64h1v1h-1z M51,64h1v1h-1z M52,64h1v1h-1z M54,64h1v1h-1z M56,64h1v1h-1z M58,64h1v1h-1z M59,64h1v1h-1z M60,64h1v1h-1z M61,64h1v1h-1z M63,64h1v1h-1z M65,64h1v1h-1z M66,64h1v1h-1z M67,64h1v1h-1z M69,64h1v1h-1z M74,64h1v1h-1z M76,64h1v1h-1z M78,64h1v1h-1z M79,64h1v1h-1z M81,64h1v1h-1z M82,64h1v1h-1z M84,64h1v1h-1z M86,64h1v1h-1z M88,64h1v1h-1z M91,64h1v1h-1z M92,64h1v1h-1z M94,64h1v1h-1z M95,64h1v1h-1z M97,64h1v1h-1z M99,64h1v1h-1z M101,64h1v1h-1z M103,64h1v1h-1z M105,64h1v1h-1z M107,64h1v1h-1z M108,64h1v1h-1z M7,65h1v1h-1z M8,65h1v1h-1z M11,65h1v1h-1z M13,65h1v1h-1z M15,65h1v1h-1z M16,65h1v1h-1z M18,65h1v1h-1z M21,65h1v1h-1z M22,65h1v1h-1z M23,65h1v1h-1z M24,65h1v1h-1z M26,65h1v1h-1z M27,65h1v1h-1z M29,65h1v1h-1z M31,65h1v1h-1z M33,65h1v1h-1z M34,65h1v1h-1z M35,65h1v1h-1z M38,65h1v1h-1z M45,65h1v1h-1z M50,65h1v1h-1z M55,65h1v1h-1z M57,65h1v1h-1z M58,65h1v1h-1z M60,65h1v1h-1z M61,65h1v1h-1z M63,65h1v1h-1z M64,65h1v1h-1z M65,65h1v1h-1z M66,65h1v1h-1z M68,65h1v1h-1z M69,65h1v1h-1z M73,65h1v1h-1z M74,65h1v1h-1z M77,65h1v1h-1z M78,65h1v1h-1z M79,65h1v1h-1z M82,65h1v1h-1z M83,65h1v1h-1z M86,65h1v1h-1z M88,65h1v1h-1z M89,65h1v1h-1z M92,65h1v1h-1z M93,65h1v1h-1z M94,65h1v1h-1z M97,65h1v1h-1z M100,65h1v1h-1z M102,65h1v1h-1z M106,65h1v1h-1z M7,66h1v1h-1z M10,66h1v1h-1z M11,66h1v1h-1z M12,66h1v1h-1z M15,66h1v1h-1z M20,66h1v1h-1z M23,66h1v1h-1z M25,66h1v1h-1z M27,66h1v1h-1z M29,66h1v1h-1z M30,66h1v1h-1z M32,66h1v1h-1z M35,66h1v1h-1z M38,66h1v1h-1z M41,66h1v1h-1z M44,66h1v1h-1z M47,66h1v1h-1z M48,66h1v1h-1z M50,66h1v1h-1z M54,66h1v1h-1z M55,66h1v1h-1z M56,66h1v1h-1z M62,66h1v1h-1z M63,66h1v1h-1z M64,66h1v1h-1z M65,66h1v1h-1z M67,66h1v1h-1z M71,66h1v1h-1z M74,66h1v1h-1z M80,66h1v1h-1z M86,66h1v1h-1z M88,66h1v1h-1z M89,66h1v1h-1z M91,66h1v1h-1z M92,66h1v1h-1z M95,66h1v1h-1z M96,66h1v1h-1z M98,66h1v1h-1z M100,66h1v1h-1z M104,66h1v1h-1z M106,66h1v1h-1z M107,66h1v1h-1z M4,67h1v1h-1z M6,67h1v1h-1z M9,67h1v1h-1z M11,67h1v1h-1z M13,67h1v1h-1z M15,67h1v1h-1z M18,67h1v1h-1z M20,67h1v1h-1z M25,67h1v1h-1z M27,67h1v1h-1z M28,67h1v1h-1z M30,67h1v1h-1z M32,67h1v1h-1z M33,67h1v1h-1z M34,67h1v1h-1z M35,67h1v1h-1z M37,67h1v1h-1z M42,67h1v1h-1z M44,67h1v1h-1z M45,67h1v1h-1z M49,67h1v1h-1z M52,67h1v1h-1z M53,67h1v1h-1z M54,67h1v1h-1z M56,67h1v1h-1z M58,67h1v1h-1z M59,67h1v1h-1z M68,67h1v1h-1z M69,67h1v1h-1z M70,67h1v1h-1z M71,67h1v1h-1z M73,67h1v1h-1z M75,67h1v1h-1z M79,67h1v1h-1z M81,67h1v1h-1z M83,67h1v1h-1z M87,67h1v1h-1z M89,67h1v1h-1z M90,67h1v1h-1z M92,67h1v1h-1z M93,67h1v1h-1z M94,67h1v1h-1z M97,67h1v1h-1z M99,67h1v1h-1z M100,67h1v1h-1z M101,67h1v1h-1z M103,67h1v1h-1z M104,67h1v1h-1z M9,68h1v1h-1z M10,68h1v1h-1z M11,68h1v1h-1z M15,68h1v1h-1z M16,68h1v1h-1z M17,68h1v1h-1z M18,68h1v1h-1z M19,68h1v1h-1z M20,68h1v1h-1z M22,68h1v1h-1z M23,68h1v1h-1z M24,68h1v1h-1z M25,68h1v1h-1z M28,68h1v1h-1z M30,68h1v1h-1z M31,68h1v1h-1z M33,68h1v1h-1z M34,68h1v1h-1z M35,68h1v1h-1z M36,68h1v1h-1z M38,68h1v1h-1z M39,68h1v1h-1z M40,68h1v1h-1z M41,68h1v1h-1z M42,68h1v1h-1z M43,68h1v1h-1z M44,68h1v1h-1z M45,68h1v1h-1z M47,68h1v1h-1z M49,68h1v1h-1z M50,68h1v1h-1z M51,68h1v1h-1z M52,68h1v1h-1z M54,68h1v1h-1z M55,68h1v1h-1z M56,68h1v1h-1z M58,68h1v1h-1z M59,68h1v1h-1z M61,68h1v1h-1z M63,68h1v1h-1z M67,68h1v1h-1z M68,68h1v1h-1z M69,68h1v1h-1z M71,68h1v1h-1z M72,68h1v1h-1z M76,68h1v1h-1z M78,68h1v1h-1z M80,68h1v1h-1z M84,68h1v1h-1z M85,68h1v1h-1z M89,68h1v1h-1z M90,68h1v1h-1z M91,68h1v1h-1z M92,68h1v1h-1z M95,68h1v1h-1z M97,68h1v1h-1z M99,68h1v1h-1z M101,68h1v1h-1z M102,68h1v1h-1z M103,68h1v1h-1z M106,68h1v1h-1z M107,68h1v1h-1z M108,68h1v1h-1z M4,69h1v1h-1z M7,69h1v1h-1z M8,69h1v1h-1z M9,69h1v1h-1z M11,69h1v1h-1z M12,69h1v1h-1z M13,69h1v1h-1z M15,69h1v1h-1z M16,69h1v1h-1z M17,69h1v1h-1z M18,69h1v1h-1z M19,69h1v1h-1z M20,69h1v1h-1z M23,69h1v1h-1z M26,69h1v1h-1z M27,69h1v1h-1z M31,69h1v1h-1z M33,69h1v1h-1z M35,69h1v1h-1z M36,69h1v1h-1z M37,69h1v1h-1z M40,69h1v1h-1z M42,69h1v1h-1z M43,69h1v1h-1z M45,69h1v1h-1z M48,69h1v1h-1z M49,69h1v1h-1z M50,69h1v1h-1z M52,69h1v1h-1z M53,69h1v1h-1z M55,69h1v1h-1z M60,69h1v1h-1z M64,69h1v1h-1z M67,69h1v1h-1z M69,69h1v1h-1z M70,69h1v1h-1z M71,69h1v1h-1z M72,69h1v1h-1z M73,69h1v1h-1z M74,69h1v1h-1z M75,69h1v1h-1z M82,69h1v1h-1z M83,69h1v1h-1z M84,69h1v1h-1z M86,69h1v1h-1z M88,69h1v1h-1z M94,69h1v1h-1z M95,69h1v1h-1z M96,69h1v1h-1z M97,69h1v1h-1z M100,69h1v1h-1z M102,69h1v1h-1z M103,69h1v1h-1z M106,69h1v1h-1z M107,69h1v1h-1z M5,70h1v1h-1z M6,70h1v1h-1z M9,70h1v1h-1z M10,70h1v1h-1z M11,70h1v1h-1z M12,70h1v1h-1z M16,70h1v1h-1z M17,70h1v1h-1z M18,70h1v1h-1z M19,70h1v1h-1z M21,70h1v1h-1z M22,70h1v1h-1z M23,70h1v1h-1z M25,70h1v1h-1z M26,70h1v1h-1z M27,70h1v1h-1z M29,70h1v1h-1z M30,70h1v1h-1z M31,70h1v1h-1z M32,70h1v1h-1z M36,70h1v1h-1z M37,70h1v1h-1z M38,70h1v1h-1z M41,70h1v1h-1z M43,70h1v1h-1z M45,70h1v1h-1z M48,70h1v1h-1z M50,70h1v1h-1z M53,70h1v1h-1z M54,70h1v1h-1z M56,70h1v1h-1z M59,70h1v1h-1z M60,70h1v1h-1z M62,70h1v1h-1z M63,70h1v1h-1z M64,70h1v1h-1z M65,70h1v1h-1z M67,70h1v1h-1z M71,70h1v1h-1z M74,70h1v1h-1z M75,70h1v1h-1z M77,70h1v1h-1z M83,70h1v1h-1z M84,70h1v1h-1z M86,70h1v1h-1z M87,70h1v1h-1z M88,70h1v1h-1z M89,70h1v1h-1z M92,70h1v1h-1z M93,70h1v1h-1z M95,70h1v1h-1z M96,70h1v1h-1z M98,70h1v1h-1z M100,70h1v1h-1z M101,70h1v1h-1z M103,70h1v1h-1z M104,70h1v1h-1z M107,70h1v1h-1z M108,70h1v1h-1z M4,71h1v1h-1z M5,71h1v1h-1z M8,71h1v1h-1z M9,71h1v1h-1z M11,71h1v1h-1z M12,71h1v1h-1z M15,71h1v1h-1z M16,71h1v1h-1z M17,71h1v1h-1z M18,71h1v1h-1z M22,71h1v1h-1z M23,71h1v1h-1z M27,71h1v1h-1z M29,71h1v1h-1z M30,71h1v1h-1z M32,71h1v1h-1z M35,71h1v1h-1z M42,71h1v1h-1z M44,71h1v1h-1z M46,71h1v1h-1z M47,71h1v1h-1z M50,71h1v1h-1z M51,71h1v1h-1z M52,71h1v1h-1z M53,71h1v1h-1z M54,71h1v1h-1z M55,71h1v1h-1z M56,71h1v1h-1z M57,71h1v1h-1z M58,71h1v1h-1z M68,71h1v1h-1z M69,71h1v1h-1z M71,71h1v1h-1z M77,71h1v1h-1z M78,71h1v1h-1z M79,71h1v1h-1z M85,71h1v1h-1z M89,71h1v1h-1z M92,71h1v1h-1z M94,71h1v1h-1z M101,71h1v1h-1z M103,71h1v1h-1z M107,71h1v1h-1z M108,71h1v1h-1z M5,72h1v1h-1z M6,72h1v1h-1z M9,72h1v1h-1z M10,72h1v1h-1z M15,72h1v1h-1z M19,72h1v1h-1z M27,72h1v1h-1z M28,72h1v1h-1z M30,72h1v1h-1z M31,72h1v1h-1z M32,72h1v1h-1z M33,72h1v1h-1z M34,72h1v1h-1z M35,72h1v1h-1z M37,72h1v1h-1z M40,72h1v1h-1z M44,72h1v1h-1z M46,72h1v1h-1z M48,72h1v1h-1z M49,72h1v1h-1z M50,72h1v1h-1z M52,72h1v1h-1z M54,72h1v1h-1z M56,72h1v1h-1z M59,72h1v1h-1z M60,72h1v1h-1z M61,72h1v1h-1z M64,72h1v1h-1z M66,72h1v1h-1z M67,72h1v1h-1z M68,72h1v1h-1z M69,72h1v1h-1z M70,72h1v1h-1z M71,72h1v1h-1z M72,72h1v1h-1z M73,72h1v1h-1z M74,72h1v1h-1z M76,72h1v1h-1z M78,72h1v1h-1z M79,72h1v1h-1z M80,72h1v1h-1z M81,72h1v1h-1z M82,72h1v1h-1z M86,72h1v1h-1z M90,72h1v1h-1z M92,72h1v1h-1z M94,72h1v1h-1z M95,72h1v1h-1z M100,72h1v1h-1z M101,72h1v1h-1z M102,72h1v1h-1z M103,72h1v1h-1z M105,72h1v1h-1z M106,72h1v1h-1z M107,72h1v1h-1z M108,72h1v1h-1z M4,73h1v1h-1z M5,73h1v1h-1z M6,73h1v1h-1z M7,73h1v1h-1z M9,73h1v1h-1z M11,73h1v1h-1z M12,73h1v1h-1z M13,73h1v1h-1z M14,73h1v1h-1z M16,73h1v1h-1z M17,73h1v1h-1z M18,73h1v1h-1z M19,73h1v1h-1z M20,73h1v1h-1z M21,73h1v1h-1z M23,73h1v1h-1z M25,73h1v1h-1z M26,73h1v1h-1z M29,73h1v1h-1z M36,73h1v1h-1z M37,73h1v1h-1z M38,73h1v1h-1z M40,73h1v1h-1z M45,73h1v1h-1z M47,73h1v1h-1z M48,73h1v1h-1z M49,73h1v1h-1z M50,73h1v1h-1z M53,73h1v1h-1z M54,73h1v1h-1z M55,73h1v1h-1z M57,73h1v1h-1z M59,73h1v1h-1z M60,73h1v1h-1z M61,73h1v1h-1z M63,73h1v1h-1z M64,73h1v1h-1z M66,73h1v1h-1z M67,73h1v1h-1z M72,73h1v1h-1z M74,73h1v1h-1z M77,73h1v1h-1z M84,73h1v1h-1z M86,73h1v1h-1z M87,73h1v1h-1z M88,73h1v1h-1z M89,73h1v1h-1z M91,73h1v1h-1z M93,73h1v1h-1z M95,73h1v1h-1z M96,73h1v1h-1z M97,73h1v1h-1z M99,73h1v1h-1z M100,73h1v1h-1z M102,73h1v1h-1z M103,73h1v1h-1z M105,73h1v1h-1z M4,74h1v1h-1z M5,74h1v1h-1z M9,74h1v1h-1z M10,74h1v1h-1z M18,74h1v1h-1z M19,74h1v1h-1z M20,74h1v1h-1z M22,74h1v1h-1z M24,74h1v1h-1z M25,74h1v1h-1z M26,74h1v1h-1z M32,74h1v1h-1z M36,74h1v1h-1z M38,74h1v1h-1z M39,74h1v1h-1z M40,74h1v1h-1z M41,74h1v1h-1z M45,74h1v1h-1z M48,74h1v1h-1z M50,74h1v1h-1z M54,74h1v1h-1z M55,74h1v1h-1z M62,74h1v1h-1z M63,74h1v1h-1z M64,74h1v1h-1z M65,74h1v1h-1z M67,74h1v1h-1z M72,74h1v1h-1z M74,74h1v1h-1z M75,74h1v1h-1z M78,74h1v1h-1z M79,74h1v1h-1z M80,74h1v1h-1z M83,74h1v1h-1z M84,74h1v1h-1z M85,74h1v1h-1z M86,74h1v1h-1z M88,74h1v1h-1z M89,74h1v1h-1z M91,74h1v1h-1z M92,74h1v1h-1z M93,74h1v1h-1z M95,74h1v1h-1z M96,74h1v1h-1z M98,74h1v1h-1z M99,74h1v1h-1z M102,74h1v1h-1z M103,74h1v1h-1z M107,74h1v1h-1z M4,75h1v1h-1z M6,75h1v1h-1z M12,75h1v1h-1z M17,75h1v1h-1z M18,75h1v1h-1z M19,75h1v1h-1z M20,75h1v1h-1z M21,75h1v1h-1z M22,75h1v1h-1z M23,75h1v1h-1z M24,75h1v1h-1z M26,75h1v1h-1z M27,75h1v1h-1z M28,75h1v1h-1z M30,75h1v1h-1z M31,75h1v1h-1z M32,75h1v1h-1z M33,75h1v1h-1z M35,75h1v1h-1z M41,75h1v1h-1z M42,75h1v1h-1z M43,75h1v1h-1z M44,75h1v1h-1z M45,75h1v1h-1z M46,75h1v1h-1z M47,75h1v1h-1z M49,75h1v1h-1z M50,75h1v1h-1z M51,75h1v1h-1z M52,75h1v1h-1z M58,75h1v1h-1z M59,75h1v1h-1z M66,75h1v1h-1z M68,75h1v1h-1z M69,75h1v1h-1z M70,75h1v1h-1z M71,75h1v1h-1z M75,75h1v1h-1z M76,75h1v1h-1z M77,75h1v1h-1z M79,75h1v1h-1z M81,75h1v1h-1z M90,75h1v1h-1z M92,75h1v1h-1z M94,75h1v1h-1z M97,75h1v1h-1z M99,75h1v1h-1z M100,75h1v1h-1z M101,75h1v1h-1z M103,75h1v1h-1z M104,75h1v1h-1z M105,75h1v1h-1z M107,75h1v1h-1z M108,75h1v1h-1z M5,76h1v1h-1z M7,76h1v1h-1z M8,76h1v1h-1z M9,76h1v1h-1z M10,76h1v1h-1z M11,76h1v1h-1z M12,76h1v1h-1z M16,76h1v1h-1z M19,76h1v1h-1z M20,76h1v1h-1z M22,76h1v1h-1z M23,76h1v1h-1z M24,76h1v1h-1z M25,76h1v1h-1z M27,76h1v1h-1z M28,76h1v1h-1z M29,76h1v1h-1z M30,76h1v1h-1z M31,76h1v1h-1z M32,76h1v1h-1z M33,76h1v1h-1z M34,76h1v1h-1z M35,76h1v1h-1z M39,76h1v1h-1z M43,76h1v1h-1z M45,76h1v1h-1z M46,76h1v1h-1z M47,76h1v1h-1z M49,76h1v1h-1z M51,76h1v1h-1z M52,76h1v1h-1z M53,76h1v1h-1z M54,76h1v1h-1z M55,76h1v1h-1z M56,76h1v1h-1z M58,76h1v1h-1z M62,76h1v1h-1z M63,76h1v1h-1z M64,76h1v1h-1z M66,76h1v1h-1z M67,76h1v1h-1z M68,76h1v1h-1z M70,76h1v1h-1z M71,76h1v1h-1z M73,76h1v1h-1z M76,76h1v1h-1z M77,76h1v1h-1z M78,76h1v1h-1z M79,76h1v1h-1z M80,76h1v1h-1z M81,76h1v1h-1z M83,76h1v1h-1z M89,76h1v1h-1z M90,76h1v1h-1z M92,76h1v1h-1z M94,76h1v1h-1z M100,76h1v1h-1z M101,76h1v1h-1z M102,76h1v1h-1z M103,76h1v1h-1z M104,76h1v1h-1z M105,76h1v1h-1z M5,77h1v1h-1z M8,77h1v1h-1z M12,77h1v1h-1z M13,77h1v1h-1z M15,77h1v1h-1z M16,77h1v1h-1z M19,77h1v1h-1z M20,77h1v1h-1z M21,77h1v1h-1z M23,77h1v1h-1z M24,77h1v1h-1z M26,77h1v1h-1z M28,77h1v1h-1z M32,77h1v1h-1z M34,77h1v1h-1z M35,77h1v1h-1z M36,77h1v1h-1z M38,77h1v1h-1z M40,77h1v1h-1z M44,77h1v1h-1z M46,77h1v1h-1z M47,77h1v1h-1z M52,77h1v1h-1z M56,77h1v1h-1z M57,77h1v1h-1z M58,77h1v1h-1z M64,77h1v1h-1z M65,77h1v1h-1z M67,77h1v1h-1z M70,77h1v1h-1z M71,77h1v1h-1z M75,77h1v1h-1z M76,77h1v1h-1z M80,77h1v1h-1z M81,77h1v1h-1z M84,77h1v1h-1z M86,77h1v1h-1z M87,77h1v1h-1z M88,77h1v1h-1z M90,77h1v1h-1z M91,77h1v1h-1z M94,77h1v1h-1z M96,77h1v1h-1z M98,77h1v1h-1z M99,77h1v1h-1z M100,77h1v1h-1z M104,77h1v1h-1z M106,77h1v1h-1z M4,78h1v1h-1z M7,78h1v1h-1z M8,78h1v1h-1z M10,78h1v1h-1z M12,78h1v1h-1z M13,78h1v1h-1z M14,78h1v1h-1z M16,78h1v1h-1z M17,78h1v1h-1z M19,78h1v1h-1z M20,78h1v1h-1z M21,78h1v1h-1z M22,78h1v1h-1z M25,78h1v1h-1z M28,78h1v1h-1z M30,78h1v1h-1z M32,78h1v1h-1z M35,78h1v1h-1z M36,78h1v1h-1z M38,78h1v1h-1z M39,78h1v1h-1z M40,78h1v1h-1z M41,78h1v1h-1z M49,78h1v1h-1z M50,78h1v1h-1z M52,78h1v1h-1z M54,78h1v1h-1z M56,78h1v1h-1z M57,78h1v1h-1z M59,78h1v1h-1z M60,78h1v1h-1z M62,78h1v1h-1z M65,78h1v1h-1z M69,78h1v1h-1z M74,78h1v1h-1z M75,78h1v1h-1z M76,78h1v1h-1z M78,78h1v1h-1z M80,78h1v1h-1z M81,78h1v1h-1z M85,78h1v1h-1z M86,78h1v1h-1z M88,78h1v1h-1z M89,78h1v1h-1z M92,78h1v1h-1z M93,78h1v1h-1z M98,78h1v1h-1z M100,78h1v1h-1z M102,78h1v1h-1z M104,78h1v1h-1z M106,78h1v1h-1z M6,79h1v1h-1z M8,79h1v1h-1z M12,79h1v1h-1z M13,79h1v1h-1z M14,79h1v1h-1z M15,79h1v1h-1z M18,79h1v1h-1z M21,79h1v1h-1z M25,79h1v1h-1z M26,79h1v1h-1z M27,79h1v1h-1z M28,79h1v1h-1z M32,79h1v1h-1z M33,79h1v1h-1z M34,79h1v1h-1z M35,79h1v1h-1z M37,79h1v1h-1z M38,79h1v1h-1z M39,79h1v1h-1z M41,79h1v1h-1z M42,79h1v1h-1z M44,79h1v1h-1z M47,79h1v1h-1z M52,79h1v1h-1z M56,79h1v1h-1z M58,79h1v1h-1z M59,79h1v1h-1z M61,79h1v1h-1z M65,79h1v1h-1z M66,79h1v1h-1z M67,79h1v1h-1z M68,79h1v1h-1z M70,79h1v1h-1z M71,79h1v1h-1z M73,79h1v1h-1z M74,79h1v1h-1z M76,79h1v1h-1z M80,79h1v1h-1z M82,79h1v1h-1z M83,79h1v1h-1z M85,79h1v1h-1z M87,79h1v1h-1z M90,79h1v1h-1z M92,79h1v1h-1z M94,79h1v1h-1z M95,79h1v1h-1z M99,79h1v1h-1z M100,79h1v1h-1z M104,79h1v1h-1z M107,79h1v1h-1z M4,80h1v1h-1z M5,80h1v1h-1z M8,80h1v1h-1z M9,80h1v1h-1z M10,80h1v1h-1z M11,80h1v1h-1z M12,80h1v1h-1z M13,80h1v1h-1z M15,80h1v1h-1z M17,80h1v1h-1z M18,80h1v1h-1z M21,80h1v1h-1z M22,80h1v1h-1z M26,80h1v1h-1z M27,80h1v1h-1z M28,80h1v1h-1z M29,80h1v1h-1z M30,80h1v1h-1z M31,80h1v1h-1z M32,80h1v1h-1z M33,80h1v1h-1z M34,80h1v1h-1z M35,80h1v1h-1z M37,80h1v1h-1z M39,80h1v1h-1z M40,80h1v1h-1z M41,80h1v1h-1z M43,80h1v1h-1z M44,80h1v1h-1z M45,80h1v1h-1z M46,80h1v1h-1z M51,80h1v1h-1z M52,80h1v1h-1z M53,80h1v1h-1z M54,80h1v1h-1z M55,80h1v1h-1z M56,80h1v1h-1z M58,80h1v1h-1z M60,80h1v1h-1z M61,80h1v1h-1z M63,80h1v1h-1z M64,80h1v1h-1z M65,80h1v1h-1z M66,80h1v1h-1z M69,80h1v1h-1z M70,80h1v1h-1z M71,80h1v1h-1z M73,80h1v1h-1z M74,80h1v1h-1z M75,80h1v1h-1z M76,80h1v1h-1z M77,80h1v1h-1z M78,80h1v1h-1z M79,80h1v1h-1z M80,80h1v1h-1z M83,80h1v1h-1z M87,80h1v1h-1z M90,80h1v1h-1z M93,80h1v1h-1z M94,80h1v1h-1z M96,80h1v1h-1z M97,80h1v1h-1z M98,80h1v1h-1z M100,80h1v1h-1z M101,80h1v1h-1z M102,80h1v1h-1z M103,80h1v1h-1z M104,80h1v1h-1z M105,80h1v1h-1z M106,80h1v1h-1z M107,80h1v1h-1z M108,80h1v1h-1z M7,81h1v1h-1z M11,81h1v1h-1z M13,81h1v1h-1z M14,81h1v1h-1z M16,81h1v1h-1z M18,81h1v1h-1z M19,81h1v1h-1z M20,81h1v1h-1z M22,81h1v1h-1z M23,81h1v1h-1z M26,81h1v1h-1z M28,81h1v1h-1z M29,81h1v1h-1z M30,81h1v1h-1z M31,81h1v1h-1z M32,81h1v1h-1z M33,81h1v1h-1z M35,81h1v1h-1z M36,81h1v1h-1z M38,81h1v1h-1z M39,81h1v1h-1z M41,81h1v1h-1z M43,81h1v1h-1z M45,81h1v1h-1z M47,81h1v1h-1z M49,81h1v1h-1z M52,81h1v1h-1z M54,81h1v1h-1z M56,81h1v1h-1z M57,81h1v1h-1z M59,81h1v1h-1z M62,81h1v1h-1z M64,81h1v1h-1z M69,81h1v1h-1z M72,81h1v1h-1z M74,81h1v1h-1z M78,81h1v1h-1z M82,81h1v1h-1z M83,81h1v1h-1z M85,81h1v1h-1z M87,81h1v1h-1z M88,81h1v1h-1z M89,81h1v1h-1z M90,81h1v1h-1z M91,81h1v1h-1z M93,81h1v1h-1z M94,81h1v1h-1z M95,81h1v1h-1z M96,81h1v1h-1z M100,81h1v1h-1z M103,81h1v1h-1z M108,81h1v1h-1z M6,82h1v1h-1z M7,82h1v1h-1z M9,82h1v1h-1z M10,82h1v1h-1z M12,82h1v1h-1z M20,82h1v1h-1z M22,82h1v1h-1z M23,82h1v1h-1z M25,82h1v1h-1z M26,82h1v1h-1z M27,82h1v1h-1z M28,82h1v1h-1z M29,82h1v1h-1z M30,82h1v1h-1z M32,82h1v1h-1z M36,82h1v1h-1z M38,82h1v1h-1z M40,82h1v1h-1z M41,82h1v1h-1z M45,82h1v1h-1z M48,82h1v1h-1z M49,82h1v1h-1z M50,82h1v1h-1z M52,82h1v1h-1z M54,82h1v1h-1z M56,82h1v1h-1z M57,82h1v1h-1z M59,82h1v1h-1z M62,82h1v1h-1z M63,82h1v1h-1z M65,82h1v1h-1z M71,82h1v1h-1z M72,82h1v1h-1z M73,82h1v1h-1z M74,82h1v1h-1z M76,82h1v1h-1z M78,82h1v1h-1z M80,82h1v1h-1z M83,82h1v1h-1z M84,82h1v1h-1z M86,82h1v1h-1z M87,82h1v1h-1z M88,82h1v1h-1z M89,82h1v1h-1z M92,82h1v1h-1z M95,82h1v1h-1z M96,82h1v1h-1z M98,82h1v1h-1z M100,82h1v1h-1z M101,82h1v1h-1z M103,82h1v1h-1z M104,82h1v1h-1z M105,82h1v1h-1z M107,82h1v1h-1z M4,83h1v1h-1z M5,83h1v1h-1z M12,83h1v1h-1z M15,83h1v1h-1z M16,83h1v1h-1z M17,83h1v1h-1z M18,83h1v1h-1z M20,83h1v1h-1z M23,83h1v1h-1z M24,83h1v1h-1z M25,83h1v1h-1z M27,83h1v1h-1z M28,83h1v1h-1z M31,83h1v1h-1z M32,83h1v1h-1z M33,83h1v1h-1z M34,83h1v1h-1z M35,83h1v1h-1z M39,83h1v1h-1z M41,83h1v1h-1z M42,83h1v1h-1z M44,83h1v1h-1z M46,83h1v1h-1z M47,83h1v1h-1z M56,83h1v1h-1z M58,83h1v1h-1z M59,83h1v1h-1z M65,83h1v1h-1z M66,83h1v1h-1z M67,83h1v1h-1z M68,83h1v1h-1z M69,83h1v1h-1z M70,83h1v1h-1z M73,83h1v1h-1z M75,83h1v1h-1z M76,83h1v1h-1z M78,83h1v1h-1z M80,83h1v1h-1z M81,83h1v1h-1z M89,83h1v1h-1z M92,83h1v1h-1z M93,83h1v1h-1z M94,83h1v1h-1z M98,83h1v1h-1z M99,83h1v1h-1z M100,83h1v1h-1z M101,83h1v1h-1z M103,83h1v1h-1z M107,83h1v1h-1z M5,84h1v1h-1z M8,84h1v1h-1z M10,84h1v1h-1z M11,84h1v1h-1z M12,84h1v1h-1z M14,84h1v1h-1z M17,84h1v1h-1z M18,84h1v1h-1z M19,84h1v1h-1z M20,84h1v1h-1z M22,84h1v1h-1z M23,84h1v1h-1z M24,84h1v1h-1z M29,84h1v1h-1z M32,84h1v1h-1z M33,84h1v1h-1z M34,84h1v1h-1z M36,84h1v1h-1z M40,84h1v1h-1z M42,84h1v1h-1z M43,84h1v1h-1z M44,84h1v1h-1z M46,84h1v1h-1z M48,84h1v1h-1z M50,84h1v1h-1z M51,84h1v1h-1z M57,84h1v1h-1z M58,84h1v1h-1z M60,84h1v1h-1z M61,84h1v1h-1z M65,84h1v1h-1z M66,84h1v1h-1z M70,84h1v1h-1z M72,84h1v1h-1z M74,84h1v1h-1z M75,84h1v1h-1z M80,84h1v1h-1z M81,84h1v1h-1z M84,84h1v1h-1z M85,84h1v1h-1z M87,84h1v1h-1z M88,84h1v1h-1z M89,84h1v1h-1z M90,84h1v1h-1z M93,84h1v1h-1z M97,84h1v1h-1z M98,84h1v1h-1z M103,84h1v1h-1z M104,84h1v1h-1z M107,84h1v1h-1z M108,84h1v1h-1z M4,85h1v1h-1z M5,85h1v1h-1z M6,85h1v1h-1z M9,85h1v1h-1z M13,85h1v1h-1z M14,85h1v1h-1z M15,85h1v1h-1z M16,85h1v1h-1z M17,85h1v1h-1z M18,85h1v1h-1z M19,85h1v1h-1z M21,85h1v1h-1z M22,85h1v1h-1z M24,85h1v1h-1z M25,85h1v1h-1z M28,85h1v1h-1z M30,85h1v1h-1z M31,85h1v1h-1z M33,85h1v1h-1z M34,85h1v1h-1z M36,85h1v1h-1z M38,85h1v1h-1z M39,85h1v1h-1z M40,85h1v1h-1z M41,85h1v1h-1z M43,85h1v1h-1z M48,85h1v1h-1z M54,85h1v1h-1z M56,85h1v1h-1z M57,85h1v1h-1z M60,85h1v1h-1z M63,85h1v1h-1z M64,85h1v1h-1z M65,85h1v1h-1z M70,85h1v1h-1z M71,85h1v1h-1z M72,85h1v1h-1z M73,85h1v1h-1z M78,85h1v1h-1z M82,85h1v1h-1z M84,85h1v1h-1z M86,85h1v1h-1z M87,85h1v1h-1z M91,85h1v1h-1z M92,85h1v1h-1z M94,85h1v1h-1z M95,85h1v1h-1z M96,85h1v1h-1z M98,85h1v1h-1z M99,85h1v1h-1z M101,85h1v1h-1z M106,85h1v1h-1z M6,86h1v1h-1z M7,86h1v1h-1z M8,86h1v1h-1z M10,86h1v1h-1z M12,86h1v1h-1z M13,86h1v1h-1z M15,86h1v1h-1z M17,86h1v1h-1z M18,86h1v1h-1z M21,86h1v1h-1z M23,86h1v1h-1z M25,86h1v1h-1z M26,86h1v1h-1z M28,86h1v1h-1z M32,86h1v1h-1z M33,86h1v1h-1z M35,86h1v1h-1z M36,86h1v1h-1z M38,86h1v1h-1z M39,86h1v1h-1z M41,86h1v1h-1z M43,86h1v1h-1z M44,86h1v1h-1z M47,86h1v1h-1z M48,86h1v1h-1z M50,86h1v1h-1z M53,86h1v1h-1z M54,86h1v1h-1z M56,86h1v1h-1z M59,86h1v1h-1z M62,86h1v1h-1z M63,86h1v1h-1z M71,86h1v1h-1z M72,86h1v1h-1z M73,86h1v1h-1z M74,86h1v1h-1z M75,86h1v1h-1z M77,86h1v1h-1z M80,86h1v1h-1z M84,86h1v1h-1z M86,86h1v1h-1z M88,86h1v1h-1z M91,86h1v1h-1z M92,86h1v1h-1z M96,86h1v1h-1z M98,86h1v1h-1z M99,86h1v1h-1z M100,86h1v1h-1z M101,86h1v1h-1z M106,86h1v1h-1z M4,87h1v1h-1z M5,87h1v1h-1z M6,87h1v1h-1z M8,87h1v1h-1z M11,87h1v1h-1z M13,87h1v1h-1z M14,87h1v1h-1z M16,87h1v1h-1z M18,87h1v1h-1z M19,87h1v1h-1z M20,87h1v1h-1z M23,87h1v1h-1z M25,87h1v1h-1z M26,87h1v1h-1z M27,87h1v1h-1z M33,87h1v1h-1z M34,87h1v1h-1z M38,87h1v1h-1z M44,87h1v1h-1z M45,87h1v1h-1z M46,87h1v1h-1z M49,87h1v1h-1z M51,87h1v1h-1z M52,87h1v1h-1z M54,87h1v1h-1z M55,87h1v1h-1z M57,87h1v1h-1z M58,87h1v1h-1z M59,87h1v1h-1z M61,87h1v1h-1z M62,87h1v1h-1z M65,87h1v1h-1z M66,87h1v1h-1z M68,87h1v1h-1z M70,87h1v1h-1z M76,87h1v1h-1z M78,87h1v1h-1z M79,87h1v1h-1z M81,87h1v1h-1z M83,87h1v1h-1z M85,87h1v1h-1z M86,87h1v1h-1z M89,87h1v1h-1z M90,87h1v1h-1z M92,87h1v1h-1z M93,87h1v1h-1z M94,87h1v1h-1z M95,87h1v1h-1z M100,87h1v1h-1z M103,87h1v1h-1z M104,87h1v1h-1z M107,87h1v1h-1z M108,87h1v1h-1z M4,88h1v1h-1z M5,88h1v1h-1z M7,88h1v1h-1z M10,88h1v1h-1z M13,88h1v1h-1z M14,88h1v1h-1z M21,88h1v1h-1z M24,88h1v1h-1z M25,88h1v1h-1z M26,88h1v1h-1z M27,88h1v1h-1z M29,88h1v1h-1z M35,88h1v1h-1z M40,88h1v1h-1z M42,88h1v1h-1z M47,88h1v1h-1z M48,88h1v1h-1z M49,88h1v1h-1z M51,88h1v1h-1z M54,88h1v1h-1z M57,88h1v1h-1z M59,88h1v1h-1z M60,88h1v1h-1z M62,88h1v1h-1z M64,88h1v1h-1z M66,88h1v1h-1z M67,88h1v1h-1z M68,88h1v1h-1z M70,88h1v1h-1z M71,88h1v1h-1z M75,88h1v1h-1z M77,88h1v1h-1z M78,88h1v1h-1z M80,88h1v1h-1z M85,88h1v1h-1z M89,88h1v1h-1z M90,88h1v1h-1z M91,88h1v1h-1z M96,88h1v1h-1z M101,88h1v1h-1z M102,88h1v1h-1z M106,88h1v1h-1z M4,89h1v1h-1z M5,89h1v1h-1z M6,89h1v1h-1z M7,89h1v1h-1z M8,89h1v1h-1z M11,89h1v1h-1z M12,89h1v1h-1z M13,89h1v1h-1z M15,89h1v1h-1z M16,89h1v1h-1z M17,89h1v1h-1z M21,89h1v1h-1z M24,89h1v1h-1z M25,89h1v1h-1z M28,89h1v1h-1z M30,89h1v1h-1z M31,89h1v1h-1z M32,89h1v1h-1z M34,89h1v1h-1z M35,89h1v1h-1z M36,89h1v1h-1z M37,89h1v1h-1z M40,89h1v1h-1z M41,89h1v1h-1z M44,89h1v1h-1z M46,89h1v1h-1z M47,89h1v1h-1z M50,89h1v1h-1z M52,89h1v1h-1z M54,89h1v1h-1z M55,89h1v1h-1z M56,89h1v1h-1z M57,89h1v1h-1z M59,89h1v1h-1z M61,89h1v1h-1z M63,89h1v1h-1z M64,89h1v1h-1z M65,89h1v1h-1z M72,89h1v1h-1z M74,89h1v1h-1z M78,89h1v1h-1z M80,89h1v1h-1z M81,89h1v1h-1z M83,89h1v1h-1z M85,89h1v1h-1z M95,89h1v1h-1z M97,89h1v1h-1z M101,89h1v1h-1z M103,89h1v1h-1z M105,89h1v1h-1z M106,89h1v1h-1z M107,89h1v1h-1z M108,89h1v1h-1z M6,90h1v1h-1z M7,90h1v1h-1z M8,90h1v1h-1z M9,90h1v1h-1z M10,90h1v1h-1z M11,90h1v1h-1z M12,90h1v1h-1z M13,90h1v1h-1z M16,90h1v1h-1z M18,90h1v1h-1z M19,90h1v1h-1z M21,90h1v1h-1z M22,90h1v1h-1z M23,90h1v1h-1z M24,90h1v1h-1z M25,90h1v1h-1z M31,90h1v1h-1z M32,90h1v1h-1z M35,90h1v1h-1z M36,90h1v1h-1z M38,90h1v1h-1z M40,90h1v1h-1z M41,90h1v1h-1z M44,90h1v1h-1z M47,90h1v1h-1z M48,90h1v1h-1z M49,90h1v1h-1z M50,90h1v1h-1z M54,90h1v1h-1z M56,90h1v1h-1z M62,90h1v1h-1z M64,90h1v1h-1z M65,90h1v1h-1z M68,90h1v1h-1z M72,90h1v1h-1z M74,90h1v1h-1z M76,90h1v1h-1z M80,90h1v1h-1z M83,90h1v1h-1z M84,90h1v1h-1z M86,90h1v1h-1z M88,90h1v1h-1z M89,90h1v1h-1z M92,90h1v1h-1z M95,90h1v1h-1z M96,90h1v1h-1z M98,90h1v1h-1z M99,90h1v1h-1z M100,90h1v1h-1z M105,90h1v1h-1z M106,90h1v1h-1z M107,90h1v1h-1z M6,91h1v1h-1z M7,91h1v1h-1z M15,91h1v1h-1z M16,91h1v1h-1z M19,91h1v1h-1z M20,91h1v1h-1z M27,91h1v1h-1z M29,91h1v1h-1z M33,91h1v1h-1z M37,91h1v1h-1z M39,91h1v1h-1z M44,91h1v1h-1z M46,91h1v1h-1z M47,91h1v1h-1z M51,91h1v1h-1z M52,91h1v1h-1z M55,91h1v1h-1z M59,91h1v1h-1z M61,91h1v1h-1z M65,91h1v1h-1z M66,91h1v1h-1z M68,91h1v1h-1z M70,91h1v1h-1z M71,91h1v1h-1z M75,91h1v1h-1z M76,91h1v1h-1z M77,91h1v1h-1z M79,91h1v1h-1z M80,91h1v1h-1z M87,91h1v1h-1z M89,91h1v1h-1z M90,91h1v1h-1z M92,91h1v1h-1z M93,91h1v1h-1z M94,91h1v1h-1z M97,91h1v1h-1z M98,91h1v1h-1z M99,91h1v1h-1z M100,91h1v1h-1z M101,91h1v1h-1z M102,91h1v1h-1z M104,91h1v1h-1z M105,91h1v1h-1z M108,91h1v1h-1z M5,92h1v1h-1z M6,92h1v1h-1z M7,92h1v1h-1z M8,92h1v1h-1z M9,92h1v1h-1z M10,92h1v1h-1z M16,92h1v1h-1z M18,92h1v1h-1z M23,92h1v1h-1z M25,92h1v1h-1z M26,92h1v1h-1z M27,92h1v1h-1z M29,92h1v1h-1z M32,92h1v1h-1z M34,92h1v1h-1z M35,92h1v1h-1z M36,92h1v1h-1z M44,92h1v1h-1z M45,92h1v1h-1z M46,92h1v1h-1z M47,92h1v1h-1z M48,92h1v1h-1z M49,92h1v1h-1z M54,92h1v1h-1z M57,92h1v1h-1z M58,92h1v1h-1z M61,92h1v1h-1z M63,92h1v1h-1z M65,92h1v1h-1z M66,92h1v1h-1z M67,92h1v1h-1z M69,92h1v1h-1z M71,92h1v1h-1z M72,92h1v1h-1z M73,92h1v1h-1z M74,92h1v1h-1z M75,92h1v1h-1z M77,92h1v1h-1z M78,92h1v1h-1z M79,92h1v1h-1z M81,92h1v1h-1z M82,92h1v1h-1z M83,92h1v1h-1z M84,92h1v1h-1z M85,92h1v1h-1z M86,92h1v1h-1z M87,92h1v1h-1z M88,92h1v1h-1z M89,92h1v1h-1z M90,92h1v1h-1z M97,92h1v1h-1z M100,92h1v1h-1z M101,92h1v1h-1z M103,92h1v1h-1z M104,92h1v1h-1z M105,92h1v1h-1z M107,92h1v1h-1z M108,92h1v1h-1z M5,93h1v1h-1z M7,93h1v1h-1z M8,93h1v1h-1z M11,93h1v1h-1z M12,93h1v1h-1z M14,93h1v1h-1z M15,93h1v1h-1z M16,93h1v1h-1z M18,93h1v1h-1z M21,93h1v1h-1z M22,93h1v1h-1z M23,93h1v1h-1z M25,93h1v1h-1z M26,93h1v1h-1z M28,93h1v1h-1z M30,93h1v1h-1z M31,93h1v1h-1z M33,93h1v1h-1z M35,93h1v1h-1z M40,93h1v1h-1z M43,93h1v1h-1z M45,93h1v1h-1z M46,93h1v1h-1z M47,93h1v1h-1z M48,93h1v1h-1z M50,93h1v1h-1z M54,93h1v1h-1z M56,93h1v1h-1z M59,93h1v1h-1z M60,93h1v1h-1z M63,93h1v1h-1z M64,93h1v1h-1z M66,93h1v1h-1z M67,93h1v1h-1z M72,93h1v1h-1z M74,93h1v1h-1z M76,93h1v1h-1z M78,93h1v1h-1z M79,93h1v1h-1z M80,93h1v1h-1z M81,93h1v1h-1z M82,93h1v1h-1z M83,93h1v1h-1z M85,93h1v1h-1z M86,93h1v1h-1z M88,93h1v1h-1z M89,93h1v1h-1z M90,93h1v1h-1z M92,93h1v1h-1z M93,93h1v1h-1z M96,93h1v1h-1z M97,93h1v1h-1z M99,93h1v1h-1z M101,93h1v1h-1z M102,93h1v1h-1z M106,93h1v1h-1z M4,94h1v1h-1z M6,94h1v1h-1z M7,94h1v1h-1z M8,94h1v1h-1z M10,94h1v1h-1z M11,94h1v1h-1z M12,94h1v1h-1z M13,94h1v1h-1z M19,94h1v1h-1z M21,94h1v1h-1z M22,94h1v1h-1z M24,94h1v1h-1z M25,94h1v1h-1z M26,94h1v1h-1z M27,94h1v1h-1z M32,94h1v1h-1z M35,94h1v1h-1z M36,94h1v1h-1z M37,94h1v1h-1z M38,94h1v1h-1z M40,94h1v1h-1z M41,94h1v1h-1z M48,94h1v1h-1z M50,94h1v1h-1z M56,94h1v1h-1z M60,94h1v1h-1z M62,94h1v1h-1z M63,94h1v1h-1z M64,94h1v1h-1z M65,94h1v1h-1z M67,94h1v1h-1z M74,94h1v1h-1z M75,94h1v1h-1z M77,94h1v1h-1z M79,94h1v1h-1z M80,94h1v1h-1z M81,94h1v1h-1z M83,94h1v1h-1z M86,94h1v1h-1z M89,94h1v1h-1z M91,94h1v1h-1z M92,94h1v1h-1z M93,94h1v1h-1z M95,94h1v1h-1z M96,94h1v1h-1z M97,94h1v1h-1z M98,94h1v1h-1z M99,94h1v1h-1z M100,94h1v1h-1z M103,94h1v1h-1z M105,94h1v1h-1z M107,94h1v1h-1z M4,95h1v1h-1z M6,95h1v1h-1z M7,95h1v1h-1z M8,95h1v1h-1z M9,95h1v1h-1z M11,95h1v1h-1z M12,95h1v1h-1z M14,95h1v1h-1z M15,95h1v1h-1z M16,95h1v1h-1z M21,95h1v1h-1z M22,95h1v1h-1z M23,95h1v1h-1z M24,95h1v1h-1z M26,95h1v1h-1z M28,95h1v1h-1z M29,95h1v1h-1z M31,95h1v1h-1z M32,95h1v1h-1z M33,95h1v1h-1z M34,95h1v1h-1z M35,95h1v1h-1z M41,95h1v1h-1z M43,95h1v1h-1z M44,95h1v1h-1z M46,95h1v1h-1z M47,95h1v1h-1z M49,95h1v1h-1z M51,95h1v1h-1z M52,95h1v1h-1z M53,95h1v1h-1z M54,95h1v1h-1z M56,95h1v1h-1z M58,95h1v1h-1z M59,95h1v1h-1z M62,95h1v1h-1z M63,95h1v1h-1z M66,95h1v1h-1z M68,95h1v1h-1z M69,95h1v1h-1z M71,95h1v1h-1z M73,95h1v1h-1z M77,95h1v1h-1z M82,95h1v1h-1z M83,95h1v1h-1z M85,95h1v1h-1z M86,95h1v1h-1z M90,95h1v1h-1z M92,95h1v1h-1z M94,95h1v1h-1z M99,95h1v1h-1z M100,95h1v1h-1z M101,95h1v1h-1z M102,95h1v1h-1z M103,95h1v1h-1z M104,95h1v1h-1z M108,95h1v1h-1z M4,96h1v1h-1z M5,96h1v1h-1z M7,96h1v1h-1z M10,96h1v1h-1z M11,96h1v1h-1z M12,96h1v1h-1z M14,96h1v1h-1z M15,96h1v1h-1z M16,96h1v1h-1z M19,96h1v1h-1z M25,96h1v1h-1z M26,96h1v1h-1z M27,96h1v1h-1z M28,96h1v1h-1z M29,96h1v1h-1z M30,96h1v1h-1z M31,96h1v1h-1z M32,96h1v1h-1z M35,96h1v1h-1z M36,96h1v1h-1z M37,96h1v1h-1z M38,96h1v1h-1z M41,96h1v1h-1z M42,96h1v1h-1z M44,96h1v1h-1z M45,96h1v1h-1z M46,96h1v1h-1z M47,96h1v1h-1z M51,96h1v1h-1z M52,96h1v1h-1z M58,96h1v1h-1z M61,96h1v1h-1z M63,96h1v1h-1z M64,96h1v1h-1z M66,96h1v1h-1z M70,96h1v1h-1z M71,96h1v1h-1z M78,96h1v1h-1z M80,96h1v1h-1z M82,96h1v1h-1z M83,96h1v1h-1z M88,96h1v1h-1z M89,96h1v1h-1z M91,96h1v1h-1z M92,96h1v1h-1z M93,96h1v1h-1z M94,96h1v1h-1z M95,96h1v1h-1z M96,96h1v1h-1z M97,96h1v1h-1z M100,96h1v1h-1z M102,96h1v1h-1z M103,96h1v1h-1z M104,96h1v1h-1z M105,96h1v1h-1z M106,96h1v1h-1z M108,96h1v1h-1z M4,97h1v1h-1z M5,97h1v1h-1z M9,97h1v1h-1z M11,97h1v1h-1z M12,97h1v1h-1z M13,97h1v1h-1z M14,97h1v1h-1z M23,97h1v1h-1z M24,97h1v1h-1z M26,97h1v1h-1z M28,97h1v1h-1z M30,97h1v1h-1z M31,97h1v1h-1z M33,97h1v1h-1z M34,97h1v1h-1z M36,97h1v1h-1z M40,97h1v1h-1z M42,97h1v1h-1z M44,97h1v1h-1z M47,97h1v1h-1z M48,97h1v1h-1z M49,97h1v1h-1z M50,97h1v1h-1z M54,97h1v1h-1z M55,97h1v1h-1z M56,97h1v1h-1z M57,97h1v1h-1z M60,97h1v1h-1z M65,97h1v1h-1z M69,97h1v1h-1z M70,97h1v1h-1z M72,97h1v1h-1z M74,97h1v1h-1z M76,97h1v1h-1z M78,97h1v1h-1z M80,97h1v1h-1z M84,97h1v1h-1z M88,97h1v1h-1z M92,97h1v1h-1z M94,97h1v1h-1z M96,97h1v1h-1z M98,97h1v1h-1z M100,97h1v1h-1z M106,97h1v1h-1z M4,98h1v1h-1z M5,98h1v1h-1z M6,98h1v1h-1z M10,98h1v1h-1z M19,98h1v1h-1z M23,98h1v1h-1z M24,98h1v1h-1z M28,98h1v1h-1z M29,98h1v1h-1z M32,98h1v1h-1z M35,98h1v1h-1z M38,98h1v1h-1z M41,98h1v1h-1z M43,98h1v1h-1z M50,98h1v1h-1z M53,98h1v1h-1z M54,98h1v1h-1z M56,98h1v1h-1z M59,98h1v1h-1z M60,98h1v1h-1z M61,98h1v1h-1z M62,98h1v1h-1z M65,98h1v1h-1z M72,98h1v1h-1z M74,98h1v1h-1z M75,98h1v1h-1z M78,98h1v1h-1z M79,98h1v1h-1z M80,98h1v1h-1z M86,98h1v1h-1z M88,98h1v1h-1z M89,98h1v1h-1z M91,98h1v1h-1z M96,98h1v1h-1z M98,98h1v1h-1z M100,98h1v1h-1z M101,98h1v1h-1z M103,98h1v1h-1z M6,99h1v1h-1z M8,99h1v1h-1z M9,99h1v1h-1z M18,99h1v1h-1z M20,99h1v1h-1z M23,99h1v1h-1z M24,99h1v1h-1z M30,99h1v1h-1z M31,99h1v1h-1z M35,99h1v1h-1z M44,99h1v1h-1z M45,99h1v1h-1z M47,99h1v1h-1z M52,99h1v1h-1z M57,99h1v1h-1z M59,99h1v1h-1z M66,99h1v1h-1z M68,99h1v1h-1z M70,99h1v1h-1z M71,99h1v1h-1z M74,99h1v1h-1z M76,99h1v1h-1z M77,99h1v1h-1z M79,99h1v1h-1z M80,99h1v1h-1z M83,99h1v1h-1z M86,99h1v1h-1z M91,99h1v1h-1z M92,99h1v1h-1z M93,99h1v1h-1z M95,99h1v1h-1z M99,99h1v1h-1z M100,99h1v1h-1z M101,99h1v1h-1z M102,99h1v1h-1z M103,99h1v1h-1z M104,99h1v1h-1z M7,100h1v1h-1z M8,100h1v1h-1z M10,100h1v1h-1z M12,100h1v1h-1z M13,100h1v1h-1z M14,100h1v1h-1z M15,100h1v1h-1z M17,100h1v1h-1z M19,100h1v1h-1z M24,100h1v1h-1z M25,100h1v1h-1z M28,100h1v1h-1z M29,100h1v1h-1z M30,100h1v1h-1z M31,100h1v1h-1z M32,100h1v1h-1z M33,100h1v1h-1z M34,100h1v1h-1z M41,100h1v1h-1z M45,100h1v1h-1z M46,100h1v1h-1z M47,100h1v1h-1z M48,100h1v1h-1z M51,100h1v1h-1z M52,100h1v1h-1z M53,100h1v1h-1z M54,100h1v1h-1z M55,100h1v1h-1z M56,100h1v1h-1z M59,100h1v1h-1z M60,100h1v1h-1z M61,100h1v1h-1z M64,100h1v1h-1z M65,100h1v1h-1z M68,100h1v1h-1z M70,100h1v1h-1z M73,100h1v1h-1z M74,100h1v1h-1z M75,100h1v1h-1z M76,100h1v1h-1z M77,100h1v1h-1z M78,100h1v1h-1z M79,100h1v1h-1z M80,100h1v1h-1z M83,100h1v1h-1z M84,100h1v1h-1z M85,100h1v1h-1z M89,100h1v1h-1z M91,100h1v1h-1z M92,100h1v1h-1z M97,100h1v1h-1z M98,100h1v1h-1z M100,100h1v1h-1z M101,100h1v1h-1z M102,100h1v1h-1z M103,100h1v1h-1z M104,100h1v1h-1z M106,100h1v1h-1z M108,100h1v1h-1z M12,101h1v1h-1z M14,101h1v1h-1z M16,101h1v1h-1z M18,101h1v1h-1z M21,101h1v1h-1z M23,101h1v1h-1z M26,101h1v1h-1z M27,101h1v1h-1z M28,101h1v1h-1z M32,101h1v1h-1z M36,101h1v1h-1z M38,101h1v1h-1z M40,101h1v1h-1z M42,101h1v1h-1z M43,101h1v1h-1z M45,101h1v1h-1z M48,101h1v1h-1z M49,101h1v1h-1z M50,101h1v1h-1z M51,101h1v1h-1z M52,101h1v1h-1z M56,101h1v1h-1z M58,101h1v1h-1z M59,101h1v1h-1z M60,101h1v1h-1z M61,101h1v1h-1z M62,101h1v1h-1z M65,101h1v1h-1z M66,101h1v1h-1z M67,101h1v1h-1z M68,101h1v1h-1z M69,101h1v1h-1z M76,101h1v1h-1z M80,101h1v1h-1z M81,101h1v1h-1z M82,101h1v1h-1z M84,101h1v1h-1z M85,101h1v1h-1z M87,101h1v1h-1z M88,101h1v1h-1z M90,101h1v1h-1z M91,101h1v1h-1z M94,101h1v1h-1z M95,101h1v1h-1z M96,101h1v1h-1z M97,101h1v1h-1z M98,101h1v1h-1z M100,101h1v1h-1z M104,101h1v1h-1z M108,101h1v1h-1z M4,102h1v1h-1z M5,102h1v1h-1z M6,102h1v1h-1z M7,102h1v1h-1z M8,102h1v1h-1z M9,102h1v1h-1z M10,102h1v1h-1z M14,102h1v1h-1z M15,102h1v1h-1z M20,102h1v1h-1z M21,102h1v1h-1z M24,102h1v1h-1z M27,102h1v1h-1z M28,102h1v1h-1z M30,102h1v1h-1z M32,102h1v1h-1z M33,102h1v1h-1z M35,102h1v1h-1z M36,102h1v1h-1z M37,102h1v1h-1z M38,102h1v1h-1z M41,102h1v1h-1z M48,102h1v1h-1z M50,102h1v1h-1z M51,102h1v1h-1z M52,102h1v1h-1z M54,102h1v1h-1z M56,102h1v1h-1z M60,102h1v1h-1z M61,102h1v1h-1z M62,102h1v1h-1z M64,102h1v1h-1z M65,102h1v1h-1z M67,102h1v1h-1z M71,102h1v1h-1z M72,102h1v1h-1z M74,102h1v1h-1z M75,102h1v1h-1z M76,102h1v1h-1z M78,102h1v1h-1z M80,102h1v1h-1z M81,102h1v1h-1z M86,102h1v1h-1z M88,102h1v1h-1z M89,102h1v1h-1z M95,102h1v1h-1z M96,102h1v1h-1z M98,102h1v1h-1z M99,102h1v1h-1z M100,102h1v1h-1z M102,102h1v1h-1z M104,102h1v1h-1z M105,102h1v1h-1z M107,102h1v1h-1z M4,103h1v1h-1z M10,103h1v1h-1z M12,103h1v1h-1z M14,103h1v1h-1z M16,103h1v1h-1z M18,103h1v1h-1z M19,103h1v1h-1z M20,103h1v1h-1z M22,103h1v1h-1z M24,103h1v1h-1z M25,103h1v1h-1z M27,103h1v1h-1z M28,103h1v1h-1z M32,103h1v1h-1z M34,103h1v1h-1z M42,103h1v1h-1z M43,103h1v1h-1z M44,103h1v1h-1z M46,103h1v1h-1z M47,103h1v1h-1z M49,103h1v1h-1z M50,103h1v1h-1z M51,103h1v1h-1z M52,103h1v1h-1z M56,103h1v1h-1z M59,103h1v1h-1z M65,103h1v1h-1z M68,103h1v1h-1z M71,103h1v1h-1z M73,103h1v1h-1z M75,103h1v1h-1z M76,103h1v1h-1z M80,103h1v1h-1z M81,103h1v1h-1z M82,103h1v1h-1z M83,103h1v1h-1z M87,103h1v1h-1z M89,103h1v1h-1z M90,103h1v1h-1z M91,103h1v1h-1z M92,103h1v1h-1z M94,103h1v1h-1z M95,103h1v1h-1z M97,103h1v1h-1z M99,103h1v1h-1z M100,103h1v1h-1z M104,103h1v1h-1z M107,103h1v1h-1z M108,103h1v1h-1z M4,104h1v1h-1z M6,104h1v1h-1z M7,104h1v1h-1z M8,104h1v1h-1z M10,104h1v1h-1z M12,104h1v1h-1z M14,104h1v1h-1z M15,104h1v1h-1z M17,104h1v1h-1z M19,104h1v1h-1z M22,104h1v1h-1z M23,104h1v1h-1z M24,104h1v1h-1z M25,104h1v1h-1z M26,104h1v1h-1z M27,104h1v1h-1z M28,104h1v1h-1z M29,104h1v1h-1z M30,104h1v1h-1z M31,104h1v1h-1z M32,104h1v1h-1z M33,104h1v1h-1z M34,104h1v1h-1z M35,104h1v1h-1z M36,104h1v1h-1z M40,104h1v1h-1z M42,104h1v1h-1z M43,104h1v1h-1z M46,104h1v1h-1z M47,104h1v1h-1z M48,104h1v1h-1z M49,104h1v1h-1z M51,104h1v1h-1z M52,104h1v1h-1z M53,104h1v1h-1z M54,104h1v1h-1z M55,104h1v1h-1z M56,104h1v1h-1z M57,104h1v1h-1z M59,104h1v1h-1z M62,104h1v1h-1z M64,104h1v1h-1z M66,104h1v1h-1z M76,104h1v1h-1z M77,104h1v1h-1z M78,104h1v1h-1z M79,104h1v1h-1z M80,104h1v1h-1z M81,104h1v1h-1z M82,104h1v1h-1z M86,104h1v1h-1z M87,104h1v1h-1z M88,104h1v1h-1z M89,104h1v1h-1z M90,104h1v1h-1z M92,104h1v1h-1z M96,104h1v1h-1z M97,104h1v1h-1z M99,104h1v1h-1z M100,104h1v1h-1z M101,104h1v1h-1z M102,104h1v1h-1z M103,104h1v1h-1z M104,104h1v1h-1z M106,104h1v1h-1z M4,105h1v1h-1z M6,105h1v1h-1z M7,105h1v1h-1z M8,105h1v1h-1z M10,105h1v1h-1z M13,105h1v1h-1z M17,105h1v1h-1z M18,105h1v1h-1z M21,105h1v1h-1z M22,105h1v1h-1z M23,105h1v1h-1z M24,105h1v1h-1z M26,105h1v1h-1z M27,105h1v1h-1z M28,105h1v1h-1z M29,105h1v1h-1z M32,105h1v1h-1z M36,105h1v1h-1z M42,105h1v1h-1z M43,105h1v1h-1z M45,105h1v1h-1z M48,105h1v1h-1z M49,105h1v1h-1z M50,105h1v1h-1z M53,105h1v1h-1z M57,105h1v1h-1z M60,105h1v1h-1z M64,105h1v1h-1z M65,105h1v1h-1z M66,105h1v1h-1z M67,105h1v1h-1z M69,105h1v1h-1z M70,105h1v1h-1z M73,105h1v1h-1z M80,105h1v1h-1z M82,105h1v1h-1z M85,105h1v1h-1z M86,105h1v1h-1z M87,105h1v1h-1z M89,105h1v1h-1z M90,105h1v1h-1z M93,105h1v1h-1z M94,105h1v1h-1z M95,105h1v1h-1z M97,105h1v1h-1z M101,105h1v1h-1z M102,105h1v1h-1z M104,105h1v1h-1z M106,105h1v1h-1z M107,105h1v1h-1z M108,105h1v1h-1z M4,106h1v1h-1z M6,106h1v1h-1z M7,106h1v1h-1z M8,106h1v1h-1z M10,106h1v1h-1z M14,106h1v1h-1z M17,106h1v1h-1z M18,106h1v1h-1z M22,106h1v1h-1z M23,106h1v1h-1z M27,106h1v1h-1z M29,106h1v1h-1z M31,106h1v1h-1z M35,106h1v1h-1z M36,106h1v1h-1z M38,106h1v1h-1z M40,106h1v1h-1z M44,106h1v1h-1z M48,106h1v1h-1z M50,106h1v1h-1z M51,106h1v1h-1z M53,106h1v1h-1z M59,106h1v1h-1z M60,106h1v1h-1z M61,106h1v1h-1z M62,106h1v1h-1z M65,106h1v1h-1z M71,106h1v1h-1z M72,106h1v1h-1z M74,106h1v1h-1z M77,106h1v1h-1z M81,106h1v1h-1z M83,106h1v1h-1z M84,106h1v1h-1z M85,106h1v1h-1z M86,106h1v1h-1z M88,106h1v1h-1z M89,106h1v1h-1z M96,106h1v1h-1z M98,106h1v1h-1z M99,106h1v1h-1z M101,106h1v1h-1z M102,106h1v1h-1z M104,106h1v1h-1z M4,107h1v1h-1z M10,107h1v1h-1z M12,107h1v1h-1z M13,107h1v1h-1z M15,107h1v1h-1z M16,107h1v1h-1z M17,107h1v1h-1z M20,107h1v1h-1z M24,107h1v1h-1z M25,107h1v1h-1z M30,107h1v1h-1z M32,107h1v1h-1z M39,107h1v1h-1z M41,107h1v1h-1z M42,107h1v1h-1z M44,107h1v1h-1z M46,107h1v1h-1z M47,107h1v1h-1z M49,107h1v1h-1z M55,107h1v1h-1z M56,107h1v1h-1z M57,107h1v1h-1z M58,107h1v1h-1z M59,107h1v1h-1z M61,107h1v1h-1z M67,107h1v1h-1z M68,107h1v1h-1z M77,107h1v1h-1z M78,107h1v1h-1z M79,107h1v1h-1z M80,107h1v1h-1z M82,107h1v1h-1z M87,107h1v1h-1z M89,107h1v1h-1z M90,107h1v1h-1z M91,107h1v1h-1z M92,107h1v1h-1z M93,107h1v1h-1z M95,107h1v1h-1z M97,107h1v1h-1z M98,107h1v1h-1z M103,107h1v1h-1z M105,107h1v1h-1z M4,108h1v1h-1z M5,108h1v1h-1z M6,108h1v1h-1z M7,108h1v1h-1z M8,108h1v1h-1z M9,108h1v1h-1z M10,108h1v1h-1z M12,108h1v1h-1z M13,108h1v1h-1z M15,108h1v1h-1z M16,108h1v1h-1z M17,108h1v1h-1z M18,108h1v1h-1z M21,108h1v1h-1z M22,108h1v1h-1z M25,108h1v1h-1z M26,108h1v1h-1z M27,108h1v1h-1z M31,108h1v1h-1z M34,108h1v1h-1z M35,108h1v1h-1z M36,108h1v1h-1z M37,108h1v1h-1z M42,108h1v1h-1z M43,108h1v1h-1z M44,108h1v1h-1z M45,108h1v1h-1z M50,108h1v1h-1z M54,108h1v1h-1z M57,108h1v1h-1z M58,108h1v1h-1z M60,108h1v1h-1z M61,108h1v1h-1z M66,108h1v1h-1z M68,108h1v1h-1z M70,108h1v1h-1z M72,108h1v1h-1z M75,108h1v1h-1z M76,108h1v1h-1z M77,108h1v1h-1z M79,108h1v1h-1z M81,108h1v1h-1z M82,108h1v1h-1z M83,108h1v1h-1z M88,108h1v1h-1z M90,108h1v1h-1z M92,108h1v1h-1z M94,108h1v1h-1z M95,108h1v1h-1z M103,108h1v1h-1z M105,108h1v1h-1z M108,108h1v1h-1z" fill="#000000"/>
</svg>
