<?xml version="1.0" encoding="UTF-8"?>
<!DOCTYPE svg PUBLIC "-//W3C//DTD SVG 1.1//EN" "http://www.w3.org/Graphics/SVG/1.1/DTD/svg11.dtd">
<svg xmlns="http://www.w3.org/2000/svg" version="1.1" viewBox="0 0 113 113" stroke="none">
	<rect width="100%" height="100%" fill="#FFFFFF"/>
	<path d="M4,4h1v1h-1z M5,4h1v1h-1z M6,4h1v1h-1z M7,4h1v1h-1z M8,4h1v1h-1z M9,4h1v1h-1z M10,4h1v1h-1z M12,4h1v1h-1z M16,4h1v1h-1z M17,4h1v1h-1z M19,4h1v1h-1z M20,4h1v1h-1z M23,4h1v1h-1z M24,4h1v1h-1z M29,4h1v1h-1z M30,4h1v1h-1z M33,4h1v1h-1z M41,4h1v1h-1z M42,4h1v1h-1z M44,4h1v1h-1z M46,4h1v1h-1z M48,4h1v1h-1z M49,4h1v1h-1z M52,4h1v1h-1z M57,4h1v1h-1z M59,4h1v1h-1z M61,4h1v1h-1z M62,4h1v1h-1z M64,4h1v1h-1z M65,4h1v1h-1z M66,4h1v1h-1z M68,4h1v1h-1z M72,4h1v1h-1z M74,4h1v1h-1z M77,4h1v1h-1z M79,4h1v1h-1z M81,4h1v1h-1z M86,4h1v1h-1z M98,4h1v1h-1z M102,4h1v1h-1z M103,4h1v1h-1z M104,4h1v1h-1z M105,4h1v1h-1z M106,4h1v1h-1z M107,4h1v1h-1z M108,4h1v1h-1z M4,5h1v1h-1z M10,5h1v1h-1z M12,5h1v1h-1z M16,5h1v1h-1z M22,5h1v1h-1z M24,5h1v1h-1z M30,5h1v1h-1z M33,5h1v1h-1z M34,5h1v1h-1z M37,5h1v1h-1z M39,5h1v1h-1z M42,5h1v1h-1z M44,5h1v1h-1z M46,5h1v1h-1z M47,5h1v1h-1z M49,5h1v1h-1z M52,5h1v1h-1z M54,5h1v1h-1z M55,5h1v1h-1z M57,5h1v1h-1z M58,5h1v1h-1z M60,5h1v1h-1z M61,5h1v1h-1z M64,5h1v1h-1z M66,5h1v1h-1z M67,5h1v1h-1z M69,5h1v1h-1z M70,5h1v1h-1z M77,5h1v1h-1z M78,5h1v1h-1z M79,5h1v1h-1z M80,5h1v1h-1z M82,5h1v1h-1z M83,5h1v1h-1z M85,5h1v1h-1z M87,5h1v1h-1z M90,5h1v1h-1z M91,5h1v1h-1z M92,5h1v1h-1z M94,5h1v1h-1z M95,5h1v1h-1z M98,5h1v1h-1z M102,5h1v1h-1z M108,5h1v1h-1z M4,6h1v1h-1z M6,6h1v1h-1z M7,6h1v1h-1z M8,6h1v1h-1z M10,6h1v1h-1z M12,6h1v1h-1z M13,6h1v1h-1z M18,6h1v1h-1z M25,6h1v1h-1z M26,6h1v1h-1z M32,6h1v1h-1z M33,6h1v1h-1z M37,6h1v1h-1z M41,6h1v1h-1z M42,6h1v1h-1z M44,6h1v1h-1z M46,6h1v1h-1z M49,6h1v1h-1z M54,6h1v1h-1z M56,6h1v1h-1z M57,6h1v1h-1z M58,6h1v1h-1z M59,6h1v1h-1z M65,6h1v1h-1z M68,6h1v1h-1z M69,6h1v1h-1z M73,6h1v1h-1z M77,6h1v1h-1z M78,6h1v1h-1z M79,6h1v1h-1z M80,6h1v1h-1z M82,6h1v1h-1z M85,6h1v1h-1z M86,6h1v1h-1z M91,6h1v1h-1z M92,6h1v1h-1z M93,6h1v1h-1z M94,6h1v1h-1z M95,6h1v1h-1z M98,6h1v1h-1z M99,6h1v1h-1z M102,6h1v1h-1z M104,6h1v1h-1z M105,6h1v1h-1z M106,6h1v1h-1z M108,6h1v1h-1z M4,7h1v1h-1z M6,7h1v1h-1z M7,7h1v1h-1z M8,7h1v1h-1z M10,7h1v1h-1z M12,7h1v1h-1z M13,7h1v1h-1z M14,7h1v1h-1z M16,7h1v1h-1z M18,7h1v1h-1z M19,7h1v1h-1z M20,7h1v1h-1z M22,7h1v1h-1z M23,7h1v1h-1z M27,7h1v1h-1z M29,7h1v1h-1z M31,7h1v1h-1z M32,7h1v1h-1z M35,7h1v1h-1z M36,7h1v1h-1z M38,7h1v1h-1z M39,7h1v1h-1z M40,7h1v1h-1z M41,7h1v1h-1z M43,7h1v1h-1z M45,7h1v1h-1z M47,7h1v1h-1z M48,7h1v1h-1z M49,7h1v1h-1z M50,7h1v1h-1z M52,7h1v1h-1z M55,7h1v1h-1z M59,7h1v1h-1z M60,7h1v1h-1z M61,7h1v1h-1z M62,7h1v1h-1z M63,7h1v1h-1z M67,7h1v1h-1z M68,7h1v1h-1z M69,7h1v1h-1z M70,7h1v1h-1z M71,7h1v1h-1z M73,7h1v1h-1z M74,7h1v1h-1z M76,7h1v1h-1z M77,7h1v1h-1z M79,7h1v1h-1z M81,7h1v1h-1z M85,7h1v1h-1z M87,7h1v1h-1z M89,7h1v1h-1z M91,7h1v1h-1z M92,7h1v1h-1z M95,7h1v1h-1z M96,7h1v1h-1z M97,7h1v1h-1z M100,7h1v1h-1z M102,7h1v1h-1z M104,7h1v1h-1z M105,7h1v1h-1z M106,7h1v1h-1z M108,7h1v1h-1z M4,8h1v1h-1z M6,8h1v1h-1z M7,8h1v1h-1z M8,8h1v1h-1z M10,8h1v1h-1z M13,8h1v1h-1z M14,8h1v1h-1z M16,8h1v1h-1z M17,8h1v1h-1z M18,8h1v1h-1z M19,8h1v1h-1z M21,8h1v1h-1z M23,8h1v1h-1z M27,8h1v1h-1z M28,8h1v1h-1z M29,8h1v1h-1z M30,8h1v1h-1z M31,8h1v1h-1z M32,8h1v1h-1z M35,8h1v1h-1z M36,8h1v1h-1z M37,8h1v1h-1z M38,8h1v1h-1z M40,8h1v1h-1z M41,8h1v1h-1z M44,8h1v1h-1z M45,8h1v1h-1z M46,8h1v1h-1z M49,8h1v1h-1z M50,8h1v1h-1z M52,8h1v1h-1z M53,8h1v1h-1z M54,8h1v1h-1z M55,8h1v1h-1z M56,8h1v1h-1z M58,8h1v1h-1z M60,8h1v1h-1z M61,8h1v1h-1z M62,8h1v1h-1z M67,8h1v1h-1z M68,8h1v1h-1z M70,8h1v1h-1z M73,8h1v1h-1z M74,8h1v1h-1z M76,8h1v1h-1z M77,8h1v1h-1z M78,8h1v1h-1z M79,8h1v1h-1z M80,8h1v1h-1z M81,8h1v1h-1z M83,8h1v1h-1z M84,8h1v1h-1z M90,8h1v1h-1z M92,8h1v1h-1z M94,8h1v1h-1z M96,8h1v1h-1z M99,8h1v1h-1z M100,8h1v1h-1z M102,8h1v1h-1z M104,8h1v1h-1z M105,8h1v1h-1z M106,8h1v1h-1z M108,8h1v1h-1z M4,9h1v1h-1z M10,9h1v1h-1z M12,9h1v1h-1z M14,9h1v1h-1z M17,9h1v1h-1z M20,9h1v1h-1z M21,9h1v1h-1z M22,9h1v1h-1z M23,9h1v1h-1z M24,9h1v1h-1z M25,9h1v1h-1z M28,9h1v1h-1z M32,9h1v1h-1z M33,9h1v1h-1z M34,9h1v1h-1z M35,9h1v1h-1z M36,9h1v1h-1z M37,9h1v1h-1z M39,9h1v1h-1z M41,9h1v1h-1z M42,9h1v1h-1z M43,9h1v1h-1z M44,9h1v1h-1z M46,9h1v1h-1z M47,9h1v1h-1z M49,9h1v1h-1z M51,9h1v1h-1z M52,9h1v1h-1z M56,9h1v1h-1z M57,9h1v1h-1z M58,9h1v1h-1z M59,9h1v1h-1z M60,9h1v1h-1z M61,9h1v1h-1z M63,9h1v1h-1z M66,9h1v1h-1z M68,9h1v1h-1z M70,9h1v1h-1z M73,9h1v1h-1z M76,9h1v1h-1z M80,9h1v1h-1z M81,9h1v1h-1z M82,9h1v1h-1z M83,9h1v1h-1z M84,9h1v1h-1z M85,9h1v1h-1z M87,9h1v1h-1z M90,9h1v1h-1z M93,9h1v1h-1z M94,9h1v1h-1z M96,9h1v1h-1z M99,9h1v1h-1z M102,9h1v1h-1z M108,9h1v1h-1z M4,10h1v1h-1z M5,10h1v1h-1z M6,10h1v1h-1z M7,10h1v1h-1z M8,10h1v1h-1z M9,10h1v1h-1z M10,10h1v1h-1z M12,10h1v1h-1z M14,10h1v1h-1z M16,10h1v1h-1z M18,10h1v1h-1z M20,10h1v1h-1z M22,10h1v1h-1z M24,10h1v1h-1z M26,10h1v1h-1z M28,10h1v1h-1z M30,10h1v1h-1z M32,10h1v1h-1z M34,10h1v1h-1z M36,10h1v1h-1z M38,10h1v1h-1z M40,10h1v1h-1z M42,10h1v1h-1z M44,10h1v1h-1z M46,10h1v1h-1z M48,10h1v1h-1z M50,10h1v1h-1z M52,10h1v1h-1z M54,10h1v1h-1z M56,10h1v1h-1z M58,10h1v1h-1z M60,10h1v1h-1z M62,10h1v1h-1z M64,10h1v1h-1z M66,10h1v1h-1z M68,10h1v1h-1z M70,10h1v1h-1z M72,10h1v1h-1z M74,10h1v1h-1z M76,10h1v1h-1z M78,10h1v1h-1z M80,10h1v1h-1z M82,10h1v1h-1z M84,10h1v1h-1z M86,10h1v1h-1z M88,10h1v1h-1z M90,10h1v1h-1z M92,10h1v1h-1z M94,10h1v1h-1z M96,10h1v1h-1z M98,10h1v1h-1z M100,10h1v1h-1z M102,10h1v1h-1z M103,10h1v1h-1z M104,10h1v1h-1z M105,10h1v1h-1z M106,10h1v1h-1z M107,10h1v1h-1z M108,10h1v1h-1z M13,11h1v1h-1z M14,11h1v1h-1z M18,11h1v1h-1z M19,11h1v1h-1z M20,11h1v1h-1z M21,11h1v1h-1z M22,11h1v1h-1z M25,11h1v1h-1z M26,11h1v1h-1z M27,11h1v1h-1z M28,11h1v1h-1z M32,11h1v1h-1z M33,11h1v1h-1z M34,11h1v1h-1z M35,11h1v1h-1z M37,11h1v1h-1z M38,11h1v1h-1z M41,11h1v1h-1z M42,11h1v1h-1z M44,11h1v1h-1z M46,11h1v1h-1z M47,11h1v1h-1z M49,11h1v1h-1z M51,11h1v1h-1z M52,11h1v1h-1z M56,11h1v1h-1z M59,11h1v1h-1z M62,11h1v1h-1z M66,11h1v1h-1z M68,11h1v1h-1z M70,11h1v1h-1z M73,11h1v1h-1z M76,11h1v1h-1z M80,11h1v1h-1z M82,11h1v1h-1z M83,11h1v1h-1z M85,11h1v1h-1z M92,11h1v1h-1z M93,11h1v1h-1z M94,11h1v1h-1z M95,11h1v1h-1z M100,11h1v1h-1z M4,12h1v1h-1z M5,12h1v1h-1z M8,12h1v1h-1z M9,12h1v1h-1z M10,12h1v1h-1z M14,12h1v1h-1z M16,12h1v1h-1z M24,12h1v1h-1z M25,12h1v1h-1z M26,12h1v1h-1z M27,12h1v1h-1z M28,12h1v1h-1z M29,12h1v1h-1z M30,12h1v1h-1z M31,12h1v1h-1z M32,12h1v1h-1z M34,12h1v1h-1z M35,12h1v1h-1z M39,12h1v1h-1z M41,12h1v1h-1z M42,12h1v1h-1z M44,12h1v1h-1z M45,12h1v1h-1z M51,12h1v1h-1z M52,12h1v1h-1z M53,12h1v1h-1z M54,12h1v1h-1z M55,12h1v1h-1z M56,12h1v1h-1z M57,12h1v1h-1z M58,12h1v1h-1z M59,12h1v1h-1z M62,12h1v1h-1z M63,12h1v1h-1z M64,12h1v1h-1z M66,12h1v1h-1z M69,12h1v1h-1z M70,12h1v1h-1z M72,12h1v1h-1z M73,12h1v1h-1z M75,12h1v1h-1z M76,12h1v1h-1z M77,12h1v1h-1z M78,12h1v1h-1z M79,12h1v1h-1z M80,12h1v1h-1z M82,12h1v1h-1z M84,12h1v1h-1z M85,12h1v1h-1z M87,12h1v1h-1z M88,12h1v1h-1z M90,12h1v1h-1z M91,12h1v1h-1z M93,12h1v1h-1z M95,12h1v1h-1z M96,12h1v1h-1z M97,12h1v1h-1z M99,12h1v1h-1z M100,12h1v1h-1z M103,12h1v1h-1z M105,12h1v1h-1z M106,12h1v1h-1z M107,12h1v1h-1z M108,12h1v1h-1z M6,13h1v1h-1z M9,13h1v1h-1z M12,13h1v1h-1z M13,13h1v1h-1z M15,13h1v1h-1z M17,13h1v1h-1z M19,13h1v1h-1z M20,13h1v1h-1z M22,13h1v1h-1z M27,13h1v1h-1z M28,13h1v1h-1z M30,13h1v1h-1z M31,13h1v1h-1z M34,13h1v1h-1z M36,13h1v1h-1z M37,13h1v1h-1z M40,13h1v1h-1z M41,13h1v1h-1z M42,13h1v1h-1z M45,13h1v1h-1z M47,13h1v1h-1z M48,13h1v1h-1z M50,13h1v1h-1z M51,13h1v1h-1z M52,13h1v1h-1z M53,13h1v1h-1z M54,13h1v1h-1z M57,13h1v1h-1z M58,13h1v1h-1z M59,13h1v1h-1z M60,13h1v1h-1z M61,13h1v1h-1z M63,13h1v1h-1z M65,13h1v1h-1z M66,13h1v1h-1z M67,13h1v1h-1z M69,13h1v1h-1z M72,13h1v1h-1z M76,13h1v1h-1z M79,13h1v1h-1z M83,13h1v1h-1z M86,13h1v1h-1z M88,13h1v1h-1z M89,13h1v1h-1z M91,13h1v1h-1z M93,13h1v1h-1z M95,13h1v1h-1z M98,13h1v1h-1z M99,13h1v1h-1z M102,13h1v1h-1z M107,13h1v1h-1z M108,13h1v1h-1z M4,14h1v1h-1z M5,14h1v1h-1z M6,14h1v1h-1z M7,14h1v1h-1z M8,14h1v1h-1z M9,14h1v1h-1z M10,14h1v1h-1z M11,14h1v1h-1z M12,14h1v1h-1z M13,14h1v1h-1z M14,14h1v1h-1z M15,14h1v1h-1z M17,14h1v1h-1z M18,14h1v1h-1z M19,14h1v1h-1z M20,14h1v1h-1z M26,14h1v1h-1z M27,14h1v1h-1z M29,14h1v1h-1z M38,14h1v1h-1z M39,14h1v1h-1z M40,14h1v1h-1z M45,14h1v1h-1z M50,14h1v1h-1z M52,14h1v1h-1z M53,14h1v1h-1z M56,14h1v1h-1z M59,14h1v1h-1z M62,14h1v1h-1z M64,14h1v1h-1z M67,14h1v1h-1z M69,14h1v1h-1z M72,14h1v1h-1z M74,14h1v1h-1z M75,14h1v1h-1z M76,14h1v1h-1z M79,14h1v1h-1z M80,14h1v1h-1z M81,14h1v1h-1z M83,14h1v1h-1z M84,14h1v1h-1z M86,14h1v1h-1z M88,14h1v1h-1z M89,14h1v1h-1z M92,14h1v1h-1z M95,14h1v1h-1z M98,14h1v1h-1z M101,14h1v1h-1z M102,14h1v1h-1z M104,14h1v1h-1z M106,14h1v1h-1z M107,14h1v1h-1z M4,15h1v1h-1z M7,15h1v1h-1z M9,15h1v1h-1z M11,15h1v1h-1z M12,15h1v1h-1z M14,15h1v1h-1z M15,15h1v1h-1z M17,15h1v1h-1z M18,15h1v1h-1z M20,15h1v1h-1z M22,15h1v1h-1z M24,15h1v1h-1z M27,15h1v1h-1z M28,15h1v1h-1z M31,15h1v1h-1z M32,15h1v1h-1z M34,15h1v1h-1z M35,15h1v1h-1z M37,15h1v1h-1z M41,15h1v1h-1z M42,15h1v1h-1z M44,15h1v1h-1z M46,15h1v1h-1z M47,15h1v1h-1z M50,15h1v1h-1z M52,15h1v1h-1z M53,15h1v1h-1z M54,15h1v1h-1z M56,15h1v1h-1z M58,15h1v1h-1z M59,15h1v1h-1z M65,15h1v1h-1z M66,15h1v1h-1z M67,15h1v1h-1z M68,15h1v1h-1z M70,15h1v1h-1z M71,15h1v1h-1z M73,15h1v1h-1z M74,15h1v1h-1z M75,15h1v1h-1z M78,15h1v1h-1z M80,15h1v1h-1z M82,15h1v1h-1z M85,15h1v1h-1z M87,15h1v1h-1z M89,15h1v1h-1z M90,15h1v1h-1z M92,15h1v1h-1z M93,15h1v1h-1z M95,15h1v1h-1z M100,15h1v1h-1z M101,15h1v1h-1z M105,15h1v1h-1z M4,16h1v1h-1z M6,16h1v1h-1z M10,16h1v1h-1z M12,16h1v1h-1z M13,16h1v1h-1z M14,16h1v1h-1z M17,16h1v1h-1z M18,16h1v1h-1z M20,16h1v1h-1z M24,16h1v1h-1z M25,16h1v1h-1z M26,16h1v1h-1z M27,16h1v1h-1z M29,16h1v1h-1z M34,16h1v1h-1z M36,16h1v1h-1z M38,16h1v1h-1z M40,16h1v1h-1z M42,16h1v1h-1z M46,16h1v1h-1z M53,16h1v1h-1z M55,16h1v1h-1z M56,16h1v1h-1z M58,16h1v1h-1z M59,16h1v1h-1z M62,16h1v1h-1z M63,16h1v1h-1z M64,16h1v1h-1z M65,16h1v1h-1z M66,16h1v1h-1z M74,16h1v1h-1z M75,16h1v1h-1z M77,16h1v1h-1z M78,16h1v1h-1z M82,16h1v1h-1z M88,16h1v1h-1z M89,16h1v1h-1z M92,16h1v1h-1z M95,16h1v1h-1z M98,16h1v1h-1z M99,16h1v1h-1z M100,16h1v1h-1z M101,16h1v1h-1z M102,16h1v1h-1z M103,16h1v1h-1z M104,16h1v1h-1z M108,16h1v1h-1z M4,17h1v1h-1z M6,17h1v1h-1z M12,17h1v1h-1z M14,17h1v1h-1z M15,17h1v1h-1z M16,17h1v1h-1z M18,17h1v1h-1z M19,17h1v1h-1z M21,17h1v1h-1z M24,17h1v1h-1z M25,17h1v1h-1z M26,17h1v1h-1z M28,17h1v1h-1z M30,17h1v1h-1z M36,17h1v1h-1z M37,17h1v1h-1z M39,17h1v1h-1z M41,17h1v1h-1z M42,17h1v1h-1z M45,17h1v1h-1z M46,17h1v1h-1z M47,17h1v1h-1z M48,17h1v1h-1z M50,17h1v1h-1z M51,17h1v1h-1z M52,17h1v1h-1z M53,17h1v1h-1z M57,17h1v1h-1z M58,17h1v1h-1z M60,17h1v1h-1z M61,17h1v1h-1z M62,17h1v1h-1z M63,17h1v1h-1z M64,17h1v1h-1z M69,17h1v1h-1z M70,17h1v1h-1z M72,17h1v1h-1z M73,17h1v1h-1z M75,17h1v1h-1z M76,17h1v1h-1z M79,17h1v1h-1z M81,17h1v1h-1z M82,17h1v1h-1z M84,17h1v1h-1z M87,17h1v1h-1z M88,17h1v1h-1z M89,17h1v1h-1z M94,17h1v1h-1z M95,17h1v1h-1z M96,17h1v1h-1z M101,17h1v1h-1z M102,17h1v1h-1z M103,17h1v1h-1z M104,17h1v1h-1z M105,17h1v1h-1z M106,17h1v1h-1z M107,17h1v1h-1z M6,18h1v1h-1z M8,18h1v1h-1z M10,18h1v1h-1z M11,18h1v1h-1z M13,18h1v1h-1z M17,18h1v1h-1z M19,18h1v1h-1z M20,18h1v1h-1z M21,18h1v1h-1z M22,18h1v1h-1z M26,18h1v1h-1z M29,18h1v1h-1z M36,18h1v1h-1z M38,18h1v1h-1z M40,18h1v1h-1z M41,18h1v1h-1z M44,18h1v1h-1z M50,18h1v1h-1z M55,18h1v1h-1z M57,18h1v1h-1z M59,18h1v1h-1z M60,18h1v1h-1z M62,18h1v1h-1z M64,18h1v1h-1z M65,18h1v1h-1z M67,18h1v1h-1z M71,18h1v1h-1z M72,18h1v1h-1z M74,18h1v1h-1z M77,18h1v1h-1z M83,18h1v1h-1z M84,18h1v1h-1z M86,18h1v1h-1z M87,18h1v1h-1z M88,18h1v1h-1z M89,18h1v1h-1z M91,18h1v1h-1z M92,18h1v1h-1z M96,18h1v1h-1z M98,18h1v1h-1z M101,18h1v1h-1z M102,18h1v1h-1z M104,18h1v1h-1z M105,18h1v1h-1z M106,18h1v1h-1z M107,18h1v1h-1z M4,19h1v1h-1z M5,19h1v1h-1z M6,19h1v1h-1z M7,19h1v1h-1z M9,19h1v1h-1z M11,19h1v1h-1z M13,19h1v1h-1z M14,19h1v1h-1z M15,19h1v1h-1z M18,19h1v1h-1z M19,19h1v1h-1z M20,19h1v1h-1z M24,19h1v1h-1z M25,19h1v1h-1z M27,19h1v1h-1z M31,19h1v1h-1z M32,19h1v1h-1z M34,19h1v1h-1z M35,19h1v1h-1z M38,19h1v1h-1z M41,19h1v1h-1z M42,19h1v1h-1z M44,19h1v1h-1z M45,19h1v1h-1z M47,19h1v1h-1z M49,19h1v1h-1z M53,19h1v1h-1z M54,19h1v1h-1z M56,19h1v1h-1z M58,19h1v1h-1z M63,19h1v1h-1z M65,19h1v1h-1z M66,19h1v1h-1z M68,19h1v1h-1z M70,19h1v1h-1z M71,19h1v1h-1z M77,19h1v1h-1z M79,19h1v1h-1z M80,19h1v1h-1z M82,19h1v1h-1z M83,19h1v1h-1z M86,19h1v1h-1z M89,19h1v1h-1z M92,19h1v1h-1z M93,19h1v1h-1z M94,19h1v1h-1z M95,19h1v1h-1z M97,19h1v1h-1z M98,19h1v1h-1z M100,19h1v1h-1z M101,19h1v1h-1z M107,19h1v1h-1z M108,19h1v1h-1z M4,20h1v1h-1z M7,20h1v1h-1z M9,20h1v1h-1z M10,20h1v1h-1z M11,20h1v1h-1z M12,20h1v1h-1z M19,20h1v1h-1z M21,20h1v1h-1z M26,20h1v1h-1z M28,20h1v1h-1z M29,20h1v1h-1z M31,20h1v1h-1z M32,20h1v1h-1z M34,20h1v1h-1z M35,20h1v1h-1z M36,20h1v1h-1z M37,20h1v1h-1z M39,20h1v1h-1z M41,20h1v1h-1z M42,20h1v1h-1z M46,20h1v1h-1z M47,20h1v1h-1z M48,20h1v1h-1z M51,20h1v1h-1z M54,20h1v1h-1z M55,20h1v1h-1z M56,20h1v1h-1z M58,20h1v1h-1z M60,20h1v1h-1z M61,20h1v1h-1z M62,20h1v1h-1z M64,20h1v1h-1z M65,20h1v1h-1z M68,20h1v1h-1z M70,20h1v1h-1z M75,20h1v1h-1z M76,20h1v1h-1z M80,20h1v1h-1z M81,20h1v1h-1z M82,20h1v1h-1z M84,20h1v1h-1z M86,20h1v1h-1z M87,20h1v1h-1z M88,20h1v1h-1z M93,20h1v1h-1z M94,20h1v1h-1z M99,20h1v1h-1z M100,20h1v1h-1z M101,20h1v1h-1z M103,20h1v1h-1z M105,20h1v1h-1z M107,20h1v1h-1z M108,20h1v1h-1z M7,21h1v1h-1z M8,21h1v1h-1z M11,21h1v1h-1z M13,21h1v1h-1z M16,21h1v1h-1z M20,21h1v1h-1z M23,21h1v1h-1z M24,21h1v1h-1z M27,21h1v1h-1z M28,21h1v1h-1z M31,21h1v1h-1z M33,21h1v1h-1z M34,21h1v1h-1z M35,21h1v1h-1z M37,21h1v1h-1z M38,21h1v1h-1z M40,21h1v1h-1z M41,21h1v1h-1z M42,21h1v1h-1z M45,21h1v1h-1z M46,21h1v1h-1z M50,21h1v1h-1z M52,21h1v1h-1z M55,21h1v1h-1z M56,21h1v1h-1z M59,21h1v1h-1z M61,21h1v1h-1z M62,21h1v1h-1z M64,21h1v1h-1z M66,21h1v1h-1z M67,21h1v1h-1z M70,21h1v1h-1z M71,21h1v1h-1z M72,21h1v1h-1z M74,21h1v1h-1z M75,21h1v1h-1z M76,21h1v1h-1z M77,21h1v1h-1z M85,21h1v1h-1z M86,21h1v1h-1z M88,21h1v1h-1z M89,21h1v1h-1z M90,21h1v1h-1z M92,21h1v1h-1z M96,21h1v1h-1z M98,21h1v1h-1z M102,21h1v1h-1z M104,21h1v1h-1z M106,21h1v1h-1z M107,21h1v1h-1z M108,21h1v1h-1z M4,22h1v1h-1z M5,22h1v1h-1z M8,22h1v1h-1z M10,22h1v1h-1z M11,22h1v1h-1z M13,22h1v1h-1z M14,22h1v1h-1z M15,22h1v1h-1z M16,22h1v1h-1z M17,22h1v1h-1z M19,22h1v1h-1z M20,22h1v1h-1z M21,22h1v1h-1z M24,22h1v1h-1z M26,22h1v1h-1z M29,22h1v1h-1z M31,22h1v1h-1z M35,22h1v1h-1z M36,22h1v1h-1z M38,22h1v1h-1z M40,22h1v1h-1z M44,22h1v1h-1z M47,22h1v1h-1z M50,22h1v1h-1z M51,22h1v1h-1z M52,22h1v1h-1z M56,22h1v1h-1z M57,22h1v1h-1z M59,22h1v1h-1z M60,22h1v1h-1z M62,22h1v1h-1z M63,22h1v1h-1z M64,22h1v1h-1z M71,22h1v1h-1z M72,22h1v1h-1z M74,22h1v1h-1z M77,22h1v1h-1z M81,22h1v1h-1z M83,22h1v1h-1z M86,22h1v1h-1z M87,22h1v1h-1z M88,22h1v1h-1z M89,22h1v1h-1z M91,22h1v1h-1z M95,22h1v1h-1z M96,22h1v1h-1z M98,22h1v1h-1z M99,22h1v1h-1z M102,22h1v1h-1z M104,22h1v1h-1z M107,22h1v1h-1z M4,23h1v1h-1z M5,23h1v1h-1z M7,23h1v1h-1z M8,23h1v1h-1z M11,23h1v1h-1z M12,23h1v1h-1z M16,23h1v1h-1z M17,23h1v1h-1z M19,23h1v1h-1z M20,23h1v1h-1z M22,23h1v1h-1z M23,23h1v1h-1z M25,23h1v1h-1z M26,23h1v1h-1z M27,23h1v1h-1z M29,23h1v1h-1z M31,23h1v1h-1z M32,23h1v1h-1z M34,23h1v1h-1z M35,23h1v1h-1z M37,23h1v1h-1z M39,23h1v1h-1z M41,23h1v1h-1z M42,23h1v1h-1z M44,23h1v1h-1z M45,23h1v1h-1z M47,23h1v1h-1z M49,23h1v1h-1z M50,23h1v1h-1z M53,23h1v1h-1z M54,23h1v1h-1z M56,23h1v1h-1z M58,23h1v1h-1z M63,23h1v1h-1z M65,23h1v1h-1z M66,23h1v1h-1z M67,23h1v1h-1z M68,23h1v1h-1z M70,23h1v1h-1z M71,23h1v1h-1z M73,23h1v1h-1z M77,23h1v1h-1z M78,23h1v1h-1z M80,23h1v1h-1z M82,23h1v1h-1z M83,23h1v1h-1z M86,23h1v1h-1z M87,23h1v1h-1z M90,23h1v1h-1z M92,23h1v1h-1z M95,23h1v1h-1z M99,23h1v1h-1z M101,23h1v1h-1z M107,23h1v1h-1z M4,24h1v1h-1z M5,24h1v1h-1z M7,24h1v1h-1z M9,24h1v1h-1z M10,24h1v1h-1z M14,24h1v1h-1z M15,24h1v1h-1z M17,24h1v1h-1z M18,24h1v1h-1z M19,24h1v1h-1z M20,24h1v1h-1z M23,24h1v1h-1z M29,24h1v1h-1z M31,24h1v1h-1z M34,24h1v1h-1z M36,24h1v1h-1z M39,24h1v1h-1z M42,24h1v1h-1z M44,24h1v1h-1z M45,24h1v1h-1z M46,24h1v1h-1z M48,24h1v1h-1z M49,24h1v1h-1z M53,24h1v1h-1z M56,24h1v1h-1z M58,24h1v1h-1z M63,24h1v1h-1z M64,24h1v1h-1z M66,24h1v1h-1z M68,24h1v1h-1z M70,24h1v1h-1z M71,24h1v1h-1z M75,24h1v1h-1z M76,24h1v1h-1z M77,24h1v1h-1z M79,24h1v1h-1z M80,24h1v1h-1z M81,24h1v1h-1z M82,24h1v1h-1z M87,24h1v1h-1z M89,24h1v1h-1z M95,24h1v1h-1z M97,24h1v1h-1z M99,24h1v1h-1z M100,24h1v1h-1z M101,24h1v1h-1z M103,24h1v1h-1z M104,24h1v1h-1z M105,24h1v1h-1z M106,24h1v1h-1z M107,24h1v1h-1z M108,24h1v1h-1z M5,25h1v1h-1z M6,25h1v1h-1z M7,25h1v1h-1z M11,25h1v1h-1z M12,25h1v1h-1z M13,25h1v1h-1z M14,25h1v1h-1z M16,25h1v1h-1z M17,25h1v1h-1z M18,25h1v1h-1z M19,25h1v1h-1z M21,25h1v1h-1z M22,25h1v1h-1z M23,25h1v1h-1z M26,25h1v1h-1z M27,25h1v1h-1z M28,25h1v1h-1z M30,25h1v1h-1z M31,25h1v1h-1z M35,25h1v1h-1z M38,25h1v1h-1z M39,25h1v1h-1z M40,25h1v1h-1z M41,25h1v1h-1z M43,25h1v1h-1z M47,25h1v1h-1z M48,25h1v1h-1z M49,25h1v1h-1z M51,25h1v1h-1z M52,25h1v1h-1z M54,25h1v1h-1z M55,25h1v1h-1z M58,25h1v1h-1z M60,25h1v1h-1z M64,25h1v1h-1z M65,25h1v1h-1z M68,25h1v1h-1z M70,25h1v1h-1z M72,25h1v1h-1z M73,25h1v1h-1z M74,25h1v1h-1z M75,25h1v1h-1z M76,25h1v1h-1z M78,25h1v1h-1z M79,25h1v1h-1z M81,25h1v1h-1z M83,25h1v1h-1z M84,25h1v1h-1z M85,25h1v1h-1z M88,25h1v1h-1z M89,25h1v1h-1z M92,25h1v1h-1z M93,25h1v1h-1z M94,25h1v1h-1z M95,25h1v1h-1z M96,25h1v1h-1z M97,25h1v1h-1z M98,25h1v1h-1z M99,25h1v1h-1z M100,25h1v1h-1z M101,25h1v1h-1z M102,25h1v1h-1z M103,25h1v1h-1z M104,25h1v1h-1z M106,25h1v1h-1z M108,25h1v1h-1z M4,26h1v1h-1z M5,26h1v1h-1z M10,26h1v1h-1z M12,26h1v1h-1z M13,26h1v1h-1z M15,26h1v1h-1z M17,26h1v1h-1z M18,26h1v1h-1z M21,26h1v1h-1z M22,26h1v1h-1z M24,26h1v1h-1z M25,26h1v1h-1z M26,26h1v1h-1z M29,26h1v1h-1z M31,26h1v1h-1z M38,26h1v1h-1z M39,26h1v1h-1z M40,26h1v1h-1z M43,26h1v1h-1z M44,26h1v1h-1z M47,26h1v1h-1z M48,26h1v1h-1z M50,26h1v1h-1z M51,26h1v1h-1z M52,26h1v1h-1z M53,26h1v1h-1z M56,26h1v1h-1z M59,26h1v1h-1z M62,26h1v1h-1z M63,26h1v1h-1z M69,26h1v1h-1z M71,26h1v1h-1z M74,26h1v1h-1z M76,26h1v1h-1z M77,26h1v1h-1z M84,26h1v1h-1z M86,26h1v1h-1z M88,26h1v1h-1z M89,26h1v1h-1z M91,26h1v1h-1z M92,26h1v1h-1z M98,26h1v1h-1z M100,26h1v1h-1z M101,26h1v1h-1z M102,26h1v1h-1z M103,26h1v1h-1z M104,26h1v1h-1z M105,26h1v1h-1z M106,26h1v1h-1z M107,26h1v1h-1z M4,27h1v1h-1z M5,27h1v1h-1z M7,27h1v1h-1z M8,27h1v1h-1z M11,27h1v1h-1z M13,27h1v1h-1z M16,27h1v1h-1z M17,27h1v1h-1z M18,27h1v1h-1z M21,27h1v1h-1z M22,27h1v1h-1z M24,27h1v1h-1z M27,27h1v1h-1z M29,27h1v1h-1z M32,27h1v1h-1z M33,27h1v1h-1z M34,27h1v1h-1z M35,27h1v1h-1z M37,27h1v1h-1z M41,27h1v1h-1z M42,27h1v1h-1z M44,27h1v1h-1z M45,27h1v1h-1z M46,27h1v1h-1z M47,27h1v1h-1z M49,27h1v1h-1z M51,27h1v1h-1z M52,27h1v1h-1z M53,27h1v1h-1z M56,27h1v1h-1z M57,27h1v1h-1z M58,27h1v1h-1z M59,27h1v1h-1z M65,27h1v1h-1z M66,27h1v1h-1z M67,27h1v1h-1z M68,27h1v1h-1z M70,27h1v1h-1z M71,27h1v1h-1z M76,27h1v1h-1z M77,27h1v1h-1z M79,27h1v1h-1z M80,27h1v1h-1z M82,27h1v1h-1z M83,27h1v1h-1z M86,27h1v1h-1z M89,27h1v1h-1z M92,27h1v1h-1z M95,27h1v1h-1z M98,27h1v1h-1z M100,27h1v1h-1z M101,27h1v1h-1z M104,27h1v1h-1z M105,27h1v1h-1z M107,27h1v1h-1z M5,28h1v1h-1z M7,28h1v1h-1z M8,28h1v1h-1z M9,28h1v1h-1z M10,28h1v1h-1z M11,28h1v1h-1z M12,28h1v1h-1z M15,28h1v1h-1z M17,28h1v1h-1z M19,28h1v1h-1z M20,28h1v1h-1z M22,28h1v1h-1z M26,28h1v1h-1z M28,28h1v1h-1z M29,28h1v1h-1z M30,28h1v1h-1z M31,28h1v1h-1z M32,28h1v1h-1z M34,28h1v1h-1z M35,28h1v1h-1z M37,28h1v1h-1z M42,28h1v1h-1z M44,28h1v1h-1z M47,28h1v1h-1z M48,28h1v1h-1z M49,28h1v1h-1z M50,28h1v1h-1z M51,28h1v1h-1z M52,28h1v1h-1z M53,28h1v1h-1z M54,28h1v1h-1z M55,28h1v1h-1z M56,28h1v1h-1z M60,28h1v1h-1z M61,28h1v1h-1z M63,28h1v1h-1z M64,28h1v1h-1z M70,28h1v1h-1z M71,28h1v1h-1z M72,28h1v1h-1z M76,28h1v1h-1z M77,28h1v1h-1z M78,28h1v1h-1z M79,28h1v1h-1z M80,28h1v1h-1z M81,28h1v1h-1z M82,28h1v1h-1z M83,28h1v1h-1z M86,28h1v1h-1z M87,28h1v1h-1z M88,28h1v1h-1z M90,28h1v1h-1z M91,28h1v1h-1z M95,28h1v1h-1z M97,28h1v1h-1z M99,28h1v1h-1z M100,28h1v1h-1z M101,28h1v1h-1z M102,28h1v1h-1z M103,28h1v1h-1z M104,28h1v1h-1z M105,28h1v1h-1z M107,28h1v1h-1z M8,29h1v1h-1z M12,29h1v1h-1z M15,29h1v1h-1z M17,29h1v1h-1z M20,29h1v1h-1z M21,29h1v1h-1z M22,29h1v1h-1z M25,29h1v1h-1z M28,29h1v1h-1z M32,29h1v1h-1z M33,29h1v1h-1z M35,29h1v1h-1z M36,29h1v1h-1z M38,29h1v1h-1z M40,29h1v1h-1z M41,29h1v1h-1z M43,29h1v1h-1z M45,29h1v1h-1z M49,29h1v1h-1z M51,29h1v1h-1z M52,29h1v1h-1z M56,29h1v1h-1z M58,29h1v1h-1z M60,29h1v1h-1z M61,29h1v1h-1z M68,29h1v1h-1z M69,29h1v1h-1z M71,29h1v1h-1z M73,29h1v1h-1z M74,29h1v1h-1z M75,29h1v1h-1z M76,29h1v1h-1z M80,29h1v1h-1z M84,29h1v1h-1z M88,29h1v1h-1z M91,29h1v1h-1z M92,29h1v1h-1z M94,29h1v1h-1z M98,29h1v1h-1z M100,29h1v1h-1z M104,29h1v1h-1z M106,29h1v1h-1z M4,30h1v1h-1z M5,30h1v1h-1z M7,30h1v1h-1z M8,30h1v1h-1z M10,30h1v1h-1z M12,30h1v1h-1z M14,30h1v1h-1z M18,30h1v1h-1z M22,30h1v1h-1z M23,30h1v1h-1z M24,30h1v1h-1z M26,30h1v1h-1z M28,30h1v1h-1z M30,30h1v1h-1z M32,30h1v1h-1z M33,30h1v1h-1z M35,30h1v1h-1z M37,30h1v1h-1z M38,30h1v1h-1z M39,30h1v1h-1z M40,30h1v1h-1z M41,30h1v1h-1z M50,30h1v1h-1z M52,30h1v1h-1z M54,30h1v1h-1z M56,30h1v1h-1z M59,30h1v1h-1z M60,30h1v1h-1z M61,30h1v1h-1z M62,30h1v1h-1z M64,30h1v1h-1z M65,30h1v1h-1z M67,30h1v1h-1z M68,30h1v1h-1z M71,30h1v1h-1z M74,30h1v1h-1z M76,30h1v1h-1z M78,30h1v1h-1z M80,30h1v1h-1z M83,30h1v1h-1z M84,30h1v1h-1z M86,30h1v1h-1z M89,30h1v1h-1z M91,30h1v1h-1z M92,30h1v1h-1z M93,30h1v1h-1z M96,30h1v1h-1z M97,30h1v1h-1z M98,30h1v1h-1z M100,30h1v1h-1z M102,30h1v1h-1z M104,30h1v1h-1z M5,31h1v1h-1z M6,31h1v1h-1z M7,31h1v1h-1z M8,31h1v1h-1z M12,31h1v1h-1z M13,31h1v1h-1z M14,31h1v1h-1z M18,31h1v1h-1z M19,31h1v1h-1z M20,31h1v1h-1z M21,31h1v1h-1z M22,31h1v1h-1z M24,31h1v1h-1z M26,31h1v1h-1z M27,31h1v1h-1z M28,31h1v1h-1z M32,31h1v1h-1z M34,31h1v1h-1z M35,31h1v1h-1z M42,31h1v1h-1z M44,31h1v1h-1z M47,31h1v1h-1z M49,31h1v1h-1z M50,31h1v1h-1z M51,31h1v1h-1z M52,31h1v1h-1z M56,31h1v1h-1z M57,31h1v1h-1z M58,31h1v1h-1z M59,31h1v1h-1z M63,31h1v1h-1z M65,31h1v1h-1z M66,31h1v1h-1z M68,31h1v1h-1z M70,31h1v1h-1z M71,31h1v1h-1z M73,31h1v1h-1z M75,31h1v1h-1z M76,31h1v1h-1z M80,31h1v1h-1z M81,31h1v1h-1z M82,31h1v1h-1z M85,31h1v1h-1z M92,31h1v1h-1z M94,31h1v1h-1z M100,31h1v1h-1z M104,31h1v1h-1z M107,31h1v1h-1z M108,31h1v1h-1z M4,32h1v1h-1z M5,32h1v1h-1z M6,32h1v1h-1z M7,32h1v1h-1z M8,32h1v1h-1z M9,32h1v1h-1z M10,32h1v1h-1z M11,32h1v1h-1z M12,32h1v1h-1z M14,32h1v1h-1z M16,32h1v1h-1z M18,32h1v1h-1z M19,32h1v1h-1z M20,32h1v1h-1z M22,32h1v1h-1z M23,32h1v1h-1z M24,32h1v1h-1z M25,32h1v1h-1z M26,32h1v1h-1z M28,32h1v1h-1z M29,32h1v1h-1z M30,32h1v1h-1z M31,32h1v1h-1z M32,32h1v1h-1z M33,32h1v1h-1z M36,32h1v1h-1z M37,32h1v1h-1z M42,32h1v1h-1z M47,32h1v1h-1z M48,32h1v1h-1z M52,32h1v1h-1z M53,32h1v1h-1z M54,32h1v1h-1z M55,32h1v1h-1z M56,32h1v1h-1z M59,32h1v1h-1z M60,32h1v1h-1z M62,32h1v1h-1z M64,32h1v1h-1z M66,32h1v1h-1z M70,32h1v1h-1z M74,32h1v1h-1z M76,32h1v1h-1z M77,32h1v1h-1z M78,32h1v1h-1z M79,32h1v1h-1z M80,32h1v1h-1z M81,32h1v1h-1z M84,32h1v1h-1z M91,32h1v1h-1z M92,32h1v1h-1z M93,32h1v1h-1z M94,32h1v1h-1z M95,32h1v1h-1z M98,32h1v1h-1z M99,32h1v1h-1z M100,32h1v1h-1z M101,32h1v1h-1z M102,32h1v1h-1z M103,32h1v1h-1z M104,32h1v1h-1z M107,32h1v1h-1z M108,32h1v1h-1z M4,33h1v1h-1z M7,33h1v1h-1z M13,33h1v1h-1z M15,33h1v1h-1z M16,33h1v1h-1z M26,33h1v1h-1z M27,33h1v1h-1z M28,33h1v1h-1z M32,33h1v1h-1z M33,33h1v1h-1z M34,33h1v1h-1z M35,33h1v1h-1z M36,33h1v1h-1z M37,33h1v1h-1z M38,33h1v1h-1z M46,33h1v1h-1z M48,33h1v1h-1z M49,33h1v1h-1z M51,33h1v1h-1z M53,33h1v1h-1z M55,33h1v1h-1z M56,33h1v1h-1z M57,33h1v1h-1z M60,33h1v1h-1z M64,33h1v1h-1z M67,33h1v1h-1z M69,33h1v1h-1z M75,33h1v1h-1z M77,33h1v1h-1z M78,33h1v1h-1z M79,33h1v1h-1z M80,33h1v1h-1z M81,33h1v1h-1z M83,33h1v1h-1z M84,33h1v1h-1z M88,33h1v1h-1z M89,33h1v1h-1z M90,33h1v1h-1z M92,33h1v1h-1z M96,33h1v1h-1z M105,33h1v1h-1z M106,33h1v1h-1z M4,34h1v1h-1z M5,34h1v1h-1z M6,34h1v1h-1z M7,34h1v1h-1z M9,34h1v1h-1z M10,34h1v1h-1z M11,34h1v1h-1z M12,34h1v1h-1z M17,34h1v1h-1z M19,34h1v1h-1z M24,34h1v1h-1z M27,34h1v1h-1z M29,34h1v1h-1z M30,34h1v1h-1z M32,34h1v1h-1z M38,34h1v1h-1z M40,34h1v1h-1z M41,34h1v1h-1z M43,34h1v1h-1z M45,34h1v1h-1z M47,34h1v1h-1z M48,34h1v1h-1z M50,34h1v1h-1z M51,34h1v1h-1z M52,34h1v1h-1z M56,34h1v1h-1z M59,34h1v1h-1z M62,34h1v1h-1z M63,34h1v1h-1z M64,34h1v1h-1z M65,34h1v1h-1z M71,34h1v1h-1z M72,34h1v1h-1z M74,34h1v1h-1z M75,34h1v1h-1z M76,34h1v1h-1z M78,34h1v1h-1z M80,34h1v1h-1z M83,34h1v1h-1z M84,34h1v1h-1z M86,34h1v1h-1z M87,34h1v1h-1z M89,34h1v1h-1z M91,34h1v1h-1z M92,34h1v1h-1z M95,34h1v1h-1z M96,34h1v1h-1z M98,34h1v1h-1z M105,34h1v1h-1z M107,34h1v1h-1z M4,35h1v1h-1z M6,35h1v1h-1z M7,35h1v1h-1z M9,35h1v1h-1z M12,35h1v1h-1z M14,35h1v1h-1z M17,35h1v1h-1z M22,35h1v1h-1z M25,35h1v1h-1z M26,35h1v1h-1z M29,35h1v1h-1z M31,35h1v1h-1z M33,35h1v1h-1z M35,35h1v1h-1z M37,35h1v1h-1z M42,35h1v1h-1z M44,35h1v1h-1z M45,35h1v1h-1z M46,35h1v1h-1z M47,35h1v1h-1z M52,35h1v1h-1z M53,35h1v1h-1z M58,35h1v1h-1z M59,35h1v1h-1z M62,35h1v1h-1z M68,35h1v1h-1z M69,35h1v1h-1z M70,35h1v1h-1z M71,35h1v1h-1z M73,35h1v1h-1z M76,35h1v1h-1z M77,35h1v1h-1z M79,35h1v1h-1z M81,35h1v1h-1z M86,35h1v1h-1z M89,35h1v1h-1z M92,35h1v1h-1z M93,35h1v1h-1z M94,35h1v1h-1z M98,35h1v1h-1z M99,35h1v1h-1z M104,35h1v1h-1z M105,35h1v1h-1z M108,35h1v1h-1z M4,36h1v1h-1z M5,36h1v1h-1z M7,36h1v1h-1z M8,36h1v1h-1z M9,36h1v1h-1z M10,36h1v1h-1z M11,36h1v1h-1z M13,36h1v1h-1z M16,36h1v1h-1z M18,36h1v1h-1z M19,36h1v1h-1z M20,36h1v1h-1z M21,36h1v1h-1z M23,36h1v1h-1z M24,36h1v1h-1z M25,36h1v1h-1z M26,36h1v1h-1z M30,36h1v1h-1z M31,36h1v1h-1z M34,36h1v1h-1z M36,36h1v1h-1z M37,36h1v1h-1z M41,36h1v1h-1z M42,36h1v1h-1z M44,36h1v1h-1z M48,36h1v1h-1z M50,36h1v1h-1z M53,36h1v1h-1z M58,36h1v1h-1z M59,36h1v1h-1z M60,36h1v1h-1z M61,36h1v1h-1z M62,36h1v1h-1z M66,36h1v1h-1z M70,36h1v1h-1z M71,36h1v1h-1z M74,36h1v1h-1z M78,36h1v1h-1z M79,36h1v1h-1z M81,36h1v1h-1z M86,36h1v1h-1z M88,36h1v1h-1z M89,36h1v1h-1z M90,36h1v1h-1z M91,36h1v1h-1z M92,36h1v1h-1z M93,36h1v1h-1z M94,36h1v1h-1z M95,36h1v1h-1z M97,36h1v1h-1z M100,36h1v1h-1z M101,36h1v1h-1z M102,36h1v1h-1z M103,36h1v1h-1z M104,36h1v1h-1z M105,36h1v1h-1z M107,36h1v1h-1z M13,37h1v1h-1z M15,37h1v1h-1z M17,37h1v1h-1z M20,37h1v1h-1z M28,37h1v1h-1z M30,37h1v1h-1z M34,37h1v1h-1z M36,37h1v1h-1z M39,37h1v1h-1z M40,37h1v1h-1z M45,37h1v1h-1z M47,37h1v1h-1z M50,37h1v1h-1z M51,37h1v1h-1z M52,37h1v1h-1z M53,37h1v1h-1z M56,37h1v1h-1z M57,37h1v1h-1z M60,37h1v1h-1z M61,37h1v1h-1z M63,37h1v1h-1z M64,37h1v1h-1z M65,37h1v1h-1z M66,37h1v1h-1z M67,37h1v1h-1z M68,37h1v1h-1z M69,37h1v1h-1z M71,37h1v1h-1z M72,37h1v1h-1z M76,37h1v1h-1z M77,37h1v1h-1z M79,37h1v1h-1z M81,37h1v1h-1z M83,37h1v1h-1z M84,37h1v1h-1z M85,37h1v1h-1z M87,37h1v1h-1z M88,37h1v1h-1z M89,37h1v1h-1z M91,37h1v1h-1z M93,37h1v1h-1z M96,37h1v1h-1z M98,37h1v1h-1z M103,37h1v1h-1z M106,37h1v1h-1z M5,38h1v1h-1z M7,38h1v1h-1z M10,38h1v1h-1z M14,38h1v1h-1z M15,38h1v1h-1z M16,38h1v1h-1z M18,38h1v1h-1z M20,38h1v1h-1z M22,38h1v1h-1z M25,38h1v1h-1z M26,38h1v1h-1z M29,38h1v1h-1z M32,38h1v1h-1z M33,38h1v1h-1z M36,38h1v1h-1z M37,38h1v1h-1z M38,38h1v1h-1z M40,38h1v1h-1z M41,38h1v1h-1z M47,38h1v1h-1z M48,38h1v1h-1z M49,38h1v1h-1z M50,38h1v1h-1z M51,38h1v1h-1z M52,38h1v1h-1z M53,38h1v1h-1z M55,38h1v1h-1z M60,38h1v1h-1z M62,38h1v1h-1z M65,38h1v1h-1z M71,38h1v1h-1z M72,38h1v1h-1z M73,38h1v1h-1z M74,38h1v1h-1z M76,38h1v1h-1z M77,38h1v1h-1z M79,38h1v1h-1z M84,38h1v1h-1z M86,38h1v1h-1z M88,38h1v1h-1z M91,38h1v1h-1z M97,38h1v1h-1z M98,38h1v1h-1z M107,38h1v1h-1z M6,39h1v1h-1z M8,39h1v1h-1z M11,39h1v1h-1z M16,39h1v1h-1z M17,39h1v1h-1z M18,39h1v1h-1z M19,39h1v1h-1z M20,39h1v1h-1z M24,39h1v1h-1z M29,39h1v1h-1z M32,39h1v1h-1z M34,39h1v1h-1z M35,39h1v1h-1z M39,39h1v1h-1z M41,39h1v1h-1z M44,39h1v1h-1z M45,39h1v1h-1z M49,39h1v1h-1z M52,39h1v1h-1z M53,39h1v1h-1z M55,39h1v1h-1z M56,39h1v1h-1z M57,39h1v1h-1z M61,39h1v1h-1z M62,39h1v1h-1z M65,39h1v1h-1z M66,39h1v1h-1z M68,39h1v1h-1z M69,39h1v1h-1z M70,39h1v1h-1z M71,39h1v1h-1z M75,39h1v1h-1z M76,39h1v1h-1z M77,39h1v1h-1z M79,39h1v1h-1z M83,39h1v1h-1z M86,39h1v1h-1z M89,39h1v1h-1z M90,39h1v1h-1z M92,39h1v1h-1z M94,39h1v1h-1z M95,39h1v1h-1z M97,39h1v1h-1z M99,39h1v1h-1z M103,39h1v1h-1z M104,39h1v1h-1z M8,40h1v1h-1z M9,40h1v1h-1z M10,40h1v1h-1z M11,40h1v1h-1z M14,40h1v1h-1z M15,40h1v1h-1z M16,40h1v1h-1z M17,40h1v1h-1z M19,40h1v1h-1z M21,40h1v1h-1z M22,40h1v1h-1z M24,40h1v1h-1z M25,40h1v1h-1z M28,40h1v1h-1z M29,40h1v1h-1z M30,40h1v1h-1z M31,40h1v1h-1z M35,40h1v1h-1z M36,40h1v1h-1z M37,40h1v1h-1z M42,40h1v1h-1z M43,40h1v1h-1z M44,40h1v1h-1z M45,40h1v1h-1z M46,40h1v1h-1z M48,40h1v1h-1z M49,40h1v1h-1z M52,40h1v1h-1z M53,40h1v1h-1z M54,40h1v1h-1z M55,40h1v1h-1z M57,40h1v1h-1z M58,40h1v1h-1z M60,40h1v1h-1z M61,40h1v1h-1z M64,40h1v1h-1z M66,40h1v1h-1z M67,40h1v1h-1z M68,40h1v1h-1z M69,40h1v1h-1z M70,40h1v1h-1z M71,40h1v1h-1z M73,40h1v1h-1z M74,40h1v1h-1z M79,40h1v1h-1z M83,40h1v1h-1z M84,40h1v1h-1z M85,40h1v1h-1z M86,40h1v1h-1z M87,40h1v1h-1z M89,40h1v1h-1z M93,40h1v1h-1z M96,40h1v1h-1z M100,40h1v1h-1z M101,40h1v1h-1z M102,40h1v1h-1z M103,40h1v1h-1z M104,40h1v1h-1z M4,41h1v1h-1z M8,41h1v1h-1z M9,41h1v1h-1z M11,41h1v1h-1z M12,41h1v1h-1z M16,41h1v1h-1z M17,41h1v1h-1z M20,41h1v1h-1z M21,41h1v1h-1z M23,41h1v1h-1z M24,41h1v1h-1z M30,41h1v1h-1z M32,41h1v1h-1z M33,41h1v1h-1z M35,41h1v1h-1z M37,41h1v1h-1z M39,41h1v1h-1z M41,41h1v1h-1z M43,41h1v1h-1z M46,41h1v1h-1z M47,41h1v1h-1z M48,41h1v1h-1z M52,41h1v1h-1z M53,41h1v1h-1z M54,41h1v1h-1z M55,41h1v1h-1z M56,41h1v1h-1z M60,41h1v1h-1z M64,41h1v1h-1z M65,41h1v1h-1z M66,41h1v1h-1z M67,41h1v1h-1z M70,41h1v1h-1z M71,41h1v1h-1z M72,41h1v1h-1z M73,41h1v1h-1z M74,41h1v1h-1z M76,41h1v1h-1z M79,41h1v1h-1z M81,41h1v1h-1z M82,41h1v1h-1z M83,41h1v1h-1z M85,41h1v1h-1z M86,41h1v1h-1z M87,41h1v1h-1z M92,41h1v1h-1z M93,41h1v1h-1z M95,41h1v1h-1z M97,41h1v1h-1z M101,41h1v1h-1z M103,41h1v1h-1z M105,41h1v1h-1z M108,41h1v1h-1z M6,42h1v1h-1z M7,42h1v1h-1z M8,42h1v1h-1z M10,42h1v1h-1z M12,42h1v1h-1z M13,42h1v1h-1z M14,42h1v1h-1z M16,42h1v1h-1z M18,42h1v1h-1z M19,42h1v1h-1z M20,42h1v1h-1z M21,42h1v1h-1z M24,42h1v1h-1z M25,42h1v1h-1z M27,42h1v1h-1z M30,42h1v1h-1z M31,42h1v1h-1z M32,42h1v1h-1z M37,42h1v1h-1z M38,42h1v1h-1z M41,42h1v1h-1z M43,42h1v1h-1z M44,42h1v1h-1z M50,42h1v1h-1z M56,42h1v1h-1z M62,42h1v1h-1z M64,42h1v1h-1z M65,42h1v1h-1z M67,42h1v1h-1z M68,42h1v1h-1z M72,42h1v1h-1z M74,42h1v1h-1z M75,42h1v1h-1z M76,42h1v1h-1z M79,42h1v1h-1z M83,42h1v1h-1z M84,42h1v1h-1z M86,42h1v1h-1z M88,42h1v1h-1z M89,42h1v1h-1z M91,42h1v1h-1z M92,42h1v1h-1z M98,42h1v1h-1z M99,42h1v1h-1z M100,42h1v1h-1z M107,42h1v1h-1z M4,43h1v1h-1z M6,43h1v1h-1z M7,43h1v1h-1z M8,43h1v1h-1z M9,43h1v1h-1z M12,43h1v1h-1z M14,43h1v1h-1z M16,43h1v1h-1z M17,43h1v1h-1z M18,43h1v1h-1z M19,43h1v1h-1z M21,43h1v1h-1z M23,43h1v1h-1z M29,43h1v1h-1z M32,43h1v1h-1z M35,43h1v1h-1z M37,43h1v1h-1z M42,43h1v1h-1z M44,43h1v1h-1z M45,43h1v1h-1z M46,43h1v1h-1z M47,43h1v1h-1z M50,43h1v1h-1z M51,43h1v1h-1z M52,43h1v1h-1z M53,43h1v1h-1z M59,43h1v1h-1z M61,43h1v1h-1z M63,43h1v1h-1z M65,43h1v1h-1z M66,43h1v1h-1z M68,43h1v1h-1z M69,43h1v1h-1z M70,43h1v1h-1z M71,43h1v1h-1z M73,43h1v1h-1z M74,43h1v1h-1z M76,43h1v1h-1z M77,43h1v1h-1z M79,43h1v1h-1z M82,43h1v1h-1z M83,43h1v1h-1z M85,43h1v1h-1z M86,43h1v1h-1z M89,43h1v1h-1z M90,43h1v1h-1z M92,43h1v1h-1z M94,43h1v1h-1z M95,43h1v1h-1z M97,43h1v1h-1z M99,43h1v1h-1z M102,43h1v1h-1z M103,43h1v1h-1z M104,43h1v1h-1z M4,44h1v1h-1z M5,44h1v1h-1z M6,44h1v1h-1z M10,44h1v1h-1z M11,44h1v1h-1z M15,44h1v1h-1z M17,44h1v1h-1z M21,44h1v1h-1z M22,44h1v1h-1z M28,44h1v1h-1z M29,44h1v1h-1z M31,44h1v1h-1z M36,44h1v1h-1z M40,44h1v1h-1z M42,44h1v1h-1z M46,44h1v1h-1z M47,44h1v1h-1z M48,44h1v1h-1z M49,44h1v1h-1z M53,44h1v1h-1z M54,44h1v1h-1z M57,44h1v1h-1z M58,44h1v1h-1z M60,44h1v1h-1z M62,44h1v1h-1z M66,44h1v1h-1z M67,44h1v1h-1z M69,44h1v1h-1z M70,44h1v1h-1z M72,44h1v1h-1z M73,44h1v1h-1z M74,44h1v1h-1z M77,44h1v1h-1z M79,44h1v1h-1z M82,44h1v1h-1z M84,44h1v1h-1z M85,44h1v1h-1z M88,44h1v1h-1z M91,44h1v1h-1z M92,44h1v1h-1z M95,44h1v1h-1z M96,44h1v1h-1z M98,44h1v1h-1z M102,44h1v1h-1z M104,44h1v1h-1z M107,44h1v1h-1z M6,45h1v1h-1z M7,45h1v1h-1z M12,45h1v1h-1z M13,45h1v1h-1z M14,45h1v1h-1z M16,45h1v1h-1z M17,45h1v1h-1z M19,45h1v1h-1z M20,45h1v1h-1z M22,45h1v1h-1z M24,45h1v1h-1z M25,45h1v1h-1z M26,45h1v1h-1z M30,45h1v1h-1z M31,45h1v1h-1z M33,45h1v1h-1z M34,45h1v1h-1z M38,45h1v1h-1z M39,45h1v1h-1z M42,45h1v1h-1z M44,45h1v1h-1z M45,45h1v1h-1z M46,45h1v1h-1z M48,45h1v1h-1z M49,45h1v1h-1z M52,45h1v1h-1z M54,45h1v1h-1z M55,45h1v1h-1z M56,45h1v1h-1z M58,45h1v1h-1z M59,45h1v1h-1z M61,45h1v1h-1z M63,45h1v1h-1z M65,45h1v1h-1z M67,45h1v1h-1z M68,45h1v1h-1z M69,45h1v1h-1z M70,45h1v1h-1z M73,45h1v1h-1z M75,45h1v1h-1z M78,45h1v1h-1z M79,45h1v1h-1z M82,45h1v1h-1z M83,45h1v1h-1z M84,45h1v1h-1z M86,45h1v1h-1z M90,45h1v1h-1z M91,45h1v1h-1z M93,45h1v1h-1z M95,45h1v1h-1z M103,45h1v1h-1z M107,45h1v1h-1z M4,46h1v1h-1z M5,46h1v1h-1z M6,46h1v1h-1z M7,46h1v1h-1z M8,46h1v1h-1z M10,46h1v1h-1z M12,46h1v1h-1z M13,46h1v1h-1z M15,46h1v1h-1z M16,46h1v1h-1z M17,46h1v1h-1z M20,46h1v1h-1z M22,46h1v1h-1z M23,46h1v1h-1z M26,46h1v1h-1z M30,46h1v1h-1z M35,46h1v1h-1z M36,46h1v1h-1z M38,46h1v1h-1z M40,46h1v1h-1z M49,46h1v1h-1z M50,46h1v1h-1z M51,46h1v1h-1z M56,46h1v1h-1z M59,46h1v1h-1z M60,46h1v1h-1z M61,46h1v1h-1z M62,46h1v1h-1z M63,46h1v1h-1z M64,46h1v1h-1z M68,46h1v1h-1z M71,46h1v1h-1z M72,46h1v1h-1z M73,46h1v1h-1z M74,46h1v1h-1z M80,46h1v1h-1z M81,46h1v1h-1z M83,46h1v1h-1z M84,46h1v1h-1z M85,46h1v1h-1z M86,46h1v1h-1z M88,46h1v1h-1z M89,46h1v1h-1z M92,46h1v1h-1z M96,46h1v1h-1z M97,46h1v1h-1z M98,46h1v1h-1z M100,46h1v1h-1z M105,46h1v1h-1z M106,46h1v1h-1z M6,47h1v1h-1z M8,47h1v1h-1z M14,47h1v1h-1z M16,47h1v1h-1z M18,47h1v1h-1z M19,47h1v1h-1z M22,47h1v1h-1z M24,47h1v1h-1z M27,47h1v1h-1z M28,47h1v1h-1z M29,47h1v1h-1z M37,47h1v1h-1z M39,47h1v1h-1z M41,47h1v1h-1z M42,47h1v1h-1z M43,47h1v1h-1z M44,47h1v1h-1z M46,47h1v1h-1z M47,47h1v1h-1z M49,47h1v1h-1z M53,47h1v1h-1z M57,47h1v1h-1z M58,47h1v1h-1z M65,47h1v1h-1z M66,47h1v1h-1z M68,47h1v1h-1z M70,47h1v1h-1z M71,47h1v1h-1z M75,47h1v1h-1z M76,47h1v1h-1z M77,47h1v1h-1z M82,47h1v1h-1z M87,47h1v1h-1z M90,47h1v1h-1z M92,47h1v1h-1z M93,47h1v1h-1z M94,47h1v1h-1z M95,47h1v1h-1z M99,47h1v1h-1z M100,47h1v1h-1z M104,47h1v1h-1z M107,47h1v1h-1z M108,47h1v1h-1z M10,48h1v1h-1z M11,48h1v1h-1z M12,48h1v1h-1z M13,48h1v1h-1z M14,48h1v1h-1z M15,48h1v1h-1z M18,48h1v1h-1z M22,48h1v1h-1z M23,48h1v1h-1z M26,48h1v1h-1z M29,48h1v1h-1z M31,48h1v1h-1z M33,48h1v1h-1z M34,48h1v1h-1z M35,48h1v1h-1z M37,48h1v1h-1z M40,48h1v1h-1z M41,48h1v1h-1z M45,48h1v1h-1z M46,48h1v1h-1z M47,48h1v1h-1z M48,48h1v1h-1z M49,48h1v1h-1z M52,48h1v1h-1z M54,48h1v1h-1z M55,48h1v1h-1z M58,48h1v1h-1z M60,48h1v1h-1z M61,48h1v1h-1z M63,48h1v1h-1z M65,48h1v1h-1z M66,48h1v1h-1z M69,48h1v1h-1z M70,48h1v1h-1z M71,48h1v1h-1z M72,48h1v1h-1z M74,48h1v1h-1z M76,48h1v1h-1z M77,48h1v1h-1z M78,48h1v1h-1z M79,48h1v1h-1z M82,48h1v1h-1z M83,48h1v1h-1z M85,48h1v1h-1z M86,48h1v1h-1z M87,48h1v1h-1z M88,48h1v1h-1z M89,48h1v1h-1z M90,48h1v1h-1z M91,48h1v1h-1z M94,48h1v1h-1z M95,48h1v1h-1z M96,48h1v1h-1z M99,48h1v1h-1z M100,48h1v1h-1z M102,48h1v1h-1z M104,48h1v1h-1z M108,48h1v1h-1z M4,49h1v1h-1z M5,49h1v1h-1z M7,49h1v1h-1z M12,49h1v1h-1z M15,49h1v1h-1z M16,49h1v1h-1z M20,49h1v1h-1z M21,49h1v1h-1z M25,49h1v1h-1z M29,49h1v1h-1z M31,49h1v1h-1z M35,49h1v1h-1z M36,49h1v1h-1z M37,49h1v1h-1z M38,49h1v1h-1z M41,49h1v1h-1z M42,49h1v1h-1z M47,49h1v1h-1z M55,49h1v1h-1z M56,49h1v1h-1z M58,49h1v1h-1z M60,49h1v1h-1z M62,49h1v1h-1z M63,49h1v1h-1z M65,49h1v1h-1z M67,49h1v1h-1z M68,49h1v1h-1z M69,49h1v1h-1z M71,49h1v1h-1z M73,49h1v1h-1z M77,49h1v1h-1z M79,49h1v1h-1z M80,49h1v1h-1z M84,49h1v1h-1z M85,49h1v1h-1z M86,49h1v1h-1z M87,49h1v1h-1z M88,49h1v1h-1z M89,49h1v1h-1z M91,49h1v1h-1z M92,49h1v1h-1z M93,49h1v1h-1z M94,49h1v1h-1z M96,49h1v1h-1z M107,49h1v1h-1z M108,49h1v1h-1z M7,50h1v1h-1z M8,50h1v1h-1z M9,50h1v1h-1z M10,50h1v1h-1z M13,50h1v1h-1z M15,50h1v1h-1z M16,50h1v1h-1z M19,50h1v1h-1z M22,50h1v1h-1z M23,50h1v1h-1z M24,50h1v1h-1z M26,50h1v1h-1z M27,50h1v1h-1z M28,50h1v1h-1z M31,50h1v1h-1z M35,50h1v1h-1z M36,50h1v1h-1z M37,50h1v1h-1z M38,50h1v1h-1z M39,50h1v1h-1z M41,50h1v1h-1z M44,50h1v1h-1z M45,50h1v1h-1z M47,50h1v1h-1z M50,50h1v1h-1z M51,50h1v1h-1z M53,50h1v1h-1z M54,50h1v1h-1z M56,50h1v1h-1z M62,50h1v1h-1z M63,50h1v1h-1z M64,50h1v1h-1z M65,50h1v1h-1z M69,50h1v1h-1z M71,50h1v1h-1z M72,50h1v1h-1z M73,50h1v1h-1z M74,50h1v1h-1z M75,50h1v1h-1z M76,50h1v1h-1z M77,50h1v1h-1z M81,50h1v1h-1z M83,50h1v1h-1z M86,50h1v1h-1z M89,50h1v1h-1z M91,50h1v1h-1z M92,50h1v1h-1z M95,50h1v1h-1z M96,50h1v1h-1z M97,50h1v1h-1z M98,50h1v1h-1z M99,50h1v1h-1z M100,50h1v1h-1z M102,50h1v1h-1z M106,50h1v1h-1z M107,50h1v1h-1z M4,51h1v1h-1z M6,51h1v1h-1z M8,51h1v1h-1z M11,51h1v1h-1z M12,51h1v1h-1z M13,51h1v1h-1z M16,51h1v1h-1z M18,51h1v1h-1z M21,51h1v1h-1z M22,51h1v1h-1z M23,51h1v1h-1z M25,51h1v1h-1z M26,51h1v1h-1z M27,51h1v1h-1z M28,51h1v1h-1z M29,51h1v1h-1z M35,51h1v1h-1z M42,51h1v1h-1z M44,51h1v1h-1z M45,51h1v1h-1z M46,51h1v1h-1z M47,51h1v1h-1z M49,51h1v1h-1z M50,51h1v1h-1z M51,51h1v1h-1z M52,51h1v1h-1z M53,51h1v1h-1z M57,51h1v1h-1z M58,51h1v1h-1z M59,51h1v1h-1z M61,51h1v1h-1z M62,51h1v1h-1z M65,51h1v1h-1z M66,51h1v1h-1z M68,51h1v1h-1z M70,51h1v1h-1z M82,51h1v1h-1z M83,51h1v1h-1z M85,51h1v1h-1z M86,51h1v1h-1z M92,51h1v1h-1z M93,51h1v1h-1z M95,51h1v1h-1z M99,51h1v1h-1z M100,51h1v1h-1z M101,51h1v1h-1z M102,51h1v1h-1z M104,51h1v1h-1z M107,51h1v1h-1z M5,52h1v1h-1z M7,52h1v1h-1z M8,52h1v1h-1z M9,52h1v1h-1z M10,52h1v1h-1z M11,52h1v1h-1z M12,52h1v1h-1z M14,52h1v1h-1z M15,52h1v1h-1z M20,52h1v1h-1z M21,52h1v1h-1z M22,52h1v1h-1z M23,52h1v1h-1z M28,52h1v1h-1z M29,52h1v1h-1z M30,52h1v1h-1z M31,52h1v1h-1z M32,52h1v1h-1z M33,52h1v1h-1z M34,52h1v1h-1z M36,52h1v1h-1z M42,52h1v1h-1z M43,52h1v1h-1z M46,52h1v1h-1z M47,52h1v1h-1z M48,52h1v1h-1z M49,52h1v1h-1z M52,52h1v1h-1z M53,52h1v1h-1z M54,52h1v1h-1z M55,52h1v1h-1z M56,52h1v1h-1z M59,52h1v1h-1z M61,52h1v1h-1z M63,52h1v1h-1z M64,52h1v1h-1z M66,52h1v1h-1z M67,52h1v1h-1z M69,52h1v1h-1z M70,52h1v1h-1z M71,52h1v1h-1z M72,52h1v1h-1z M73,52h1v1h-1z M76,52h1v1h-1z M77,52h1v1h-1z M78,52h1v1h-1z M79,52h1v1h-1z M80,52h1v1h-1z M82,52h1v1h-1z M85,52h1v1h-1z M87,52h1v1h-1z M89,52h1v1h-1z M90,52h1v1h-1z M94,52h1v1h-1z M95,52h1v1h-1z M99,52h1v1h-1z M100,52h1v1h-1z M101,52h1v1h-1z M102,52h1v1h-1z M103,52h1v1h-1z M104,52h1v1h-1z M106,52h1v1h-1z M4,53h1v1h-1z M5,53h1v1h-1z M6,53h1v1h-1z M8,53h1v1h-1z M12,53h1v1h-1z M13,53h1v1h-1z M14,53h1v1h-1z M15,53h1v1h-1z M18,53h1v1h-1z M19,53h1v1h-1z M22,53h1v1h-1z M25,53h1v1h-1z M26,53h1v1h-1z M28,53h1v1h-1z M32,53h1v1h-1z M34,53h1v1h-1z M36,53h1v1h-1z M39,53h1v1h-1z M40,53h1v1h-1z M41,53h1v1h-1z M44,53h1v1h-1z M45,53h1v1h-1z M48,53h1v1h-1z M50,53h1v1h-1z M52,53h1v1h-1z M56,53h1v1h-1z M57,53h1v1h-1z M58,53h1v1h-1z M60,53h1v1h-1z M64,53h1v1h-1z M67,53h1v1h-1z M69,53h1v1h-1z M70,53h1v1h-1z M71,53h1v1h-1z M72,53h1v1h-1z M76,53h1v1h-1z M80,53h1v1h-1z M82,53h1v1h-1z M83,53h1v1h-1z M88,53h1v1h-1z M95,53h1v1h-1z M96,53h1v1h-1z M97,53h1v1h-1z M100,53h1v1h-1z M104,53h1v1h-1z M105,53h1v1h-1z M106,53h1v1h-1z M107,53h1v1h-1z M8,54h1v1h-1z M10,54h1v1h-1z M12,54h1v1h-1z M13,54h1v1h-1z M14,54h1v1h-1z M15,54h1v1h-1z M17,54h1v1h-1z M19,54h1v1h-1z M20,54h1v1h-1z M24,54h1v1h-1z M25,54h1v1h-1z M26,54h1v1h-1z M28,54h1v1h-1z M30,54h1v1h-1z M32,54h1v1h-1z M35,54h1v1h-1z M38,54h1v1h-1z M41,54h1v1h-1z M50,54h1v1h-1z M51,54h1v1h-1z M52,54h1v1h-1z M54,54h1v1h-1z M56,54h1v1h-1z M59,54h1v1h-1z M61,54h1v1h-1z M62,54h1v1h-1z M64,54h1v1h-1z M67,54h1v1h-1z M71,54h1v1h-1z M72,54h1v1h-1z M74,54h1v1h-1z M76,54h1v1h-1z M78,54h1v1h-1z M80,54h1v1h-1z M86,54h1v1h-1z M88,54h1v1h-1z M98,54h1v1h-1z M100,54h1v1h-1z M102,54h1v1h-1z M104,54h1v1h-1z M106,54h1v1h-1z M107,54h1v1h-1z M6,55h1v1h-1z M8,55h1v1h-1z M12,55h1v1h-1z M14,55h1v1h-1z M18,55h1v1h-1z M19,55h1v1h-1z M21,55h1v1h-1z M22,55h1v1h-1z M25,55h1v1h-1z M26,55h1v1h-1z M28,55h1v1h-1z M32,55h1v1h-1z M35,55h1v1h-1z M42,55h1v1h-1z M43,55h1v1h-1z M44,55h1v1h-1z M45,55h1v1h-1z M46,55h1v1h-1z M47,55h1v1h-1z M49,55h1v1h-1z M52,55h1v1h-1z M56,55h1v1h-1z M57,55h1v1h-1z M59,55h1v1h-1z M65,55h1v1h-1z M66,55h1v1h-1z M68,55h1v1h-1z M69,55h1v1h-1z M73,55h1v1h-1z M74,55h1v1h-1z M75,55h1v1h-1z M76,55h1v1h-1z M80,55h1v1h-1z M83,55h1v1h-1z M85,55h1v1h-1z M87,55h1v1h-1z M89,55h1v1h-1z M90,55h1v1h-1z M92,55h1v1h-1z M95,55h1v1h-1z M97,55h1v1h-1z M98,55h1v1h-1z M100,55h1v1h-1z M104,55h1v1h-1z M8,56h1v1h-1z M9,56h1v1h-1z M10,56h1v1h-1z M11,56h1v1h-1z M12,56h1v1h-1z M16,56h1v1h-1z M19,56h1v1h-1z M21,56h1v1h-1z M22,56h1v1h-1z M28,56h1v1h-1z M29,56h1v1h-1z M30,56h1v1h-1z M31,56h1v1h-1z M32,56h1v1h-1z M34,56h1v1h-1z M35,56h1v1h-1z M36,56h1v1h-1z M39,56h1v1h-1z M41,56h1v1h-1z M42,56h1v1h-1z M44,56h1v1h-1z M46,56h1v1h-1z M48,56h1v1h-1z M49,56h1v1h-1z M52,56h1v1h-1z M53,56h1v1h-1z M54,56h1v1h-1z M55,56h1v1h-1z M56,56h1v1h-1z M57,56h1v1h-1z M58,56h1v1h-1z M59,56h1v1h-1z M61,56h1v1h-1z M65,56h1v1h-1z M67,56h1v1h-1z M68,56h1v1h-1z M71,56h1v1h-1z M74,56h1v1h-1z M76,56h1v1h-1z M77,56h1v1h-1z M78,56h1v1h-1z M79,56h1v1h-1z M80,56h1v1h-1z M81,56h1v1h-1z M82,56h1v1h-1z M86,56h1v1h-1z M87,56h1v1h-1z M89,56h1v1h-1z M90,56h1v1h-1z M92,56h1v1h-1z M93,56h1v1h-1z M94,56h1v1h-1z M97,56h1v1h-1z M100,56h1v1h-1z M101,56h1v1h-1z M102,56h1v1h-1z M103,56h1v1h-1z M104,56h1v1h-1z M105,56h1v1h-1z M108,56h1v1h-1z M4,57h1v1h-1z M5,57h1v1h-1z M7,57h1v1h-1z M11,57h1v1h-1z M12,57h1v1h-1z M16,57h1v1h-1z M17,57h1v1h-1z M21,57h1v1h-1z M22,57h1v1h-1z M23,57h1v1h-1z M24,57h1v1h-1z M25,57h1v1h-1z M28,57h1v1h-1z M29,57h1v1h-1z M30,57h1v1h-1z M33,57h1v1h-1z M34,57h1v1h-1z M35,57h1v1h-1z M38,57h1v1h-1z M40,57h1v1h-1z M44,57h1v1h-1z M48,57h1v1h-1z M50,57h1v1h-1z M51,57h1v1h-1z M54,57h1v1h-1z M55,57h1v1h-1z M57,57h1v1h-1z M60,57h1v1h-1z M61,57h1v1h-1z M62,57h1v1h-1z M64,57h1v1h-1z M65,57h1v1h-1z M66,57h1v1h-1z M70,57h1v1h-1z M71,57h1v1h-1z M72,57h1v1h-1z M74,57h1v1h-1z M76,57h1v1h-1z M77,57h1v1h-1z M82,57h1v1h-1z M83,57h1v1h-1z M86,57h1v1h-1z M87,57h1v1h-1z M91,57h1v1h-1z M94,57h1v1h-1z M95,57h1v1h-1z M96,57h1v1h-1z M97,57h1v1h-1z M98,57h1v1h-1z M99,57h1v1h-1z M100,57h1v1h-1z M102,57h1v1h-1z M103,57h1v1h-1z M104,57h1v1h-1z M105,57h1v1h-1z M106,57h1v1h-1z M107,57h1v1h-1z M4,58h1v1h-1z M9,58h1v1h-1z M10,58h1v1h-1z M11,58h1v1h-1z M13,58h1v1h-1z M14,58h1v1h-1z M16,58h1v1h-1z M18,58h1v1h-1z M20,58h1v1h-1z M22,58h1v1h-1z M23,58h1v1h-1z M26,58h1v1h-1z M29,58h1v1h-1z M30,58h1v1h-1z M31,58h1v1h-1z M35,58h1v1h-1z M38,58h1v1h-1z M39,58h1v1h-1z M40,58h1v1h-1z M41,58h1v1h-1z M43,58h1v1h-1z M48,58h1v1h-1z M50,58h1v1h-1z M57,58h1v1h-1z M60,58h1v1h-1z M62,58h1v1h-1z M63,58h1v1h-1z M64,58h1v1h-1z M65,58h1v1h-1z M68,58h1v1h-1z M72,58h1v1h-1z M73,58h1v1h-1z M74,58h1v1h-1z M78,58h1v1h-1z M85,58h1v1h-1z M86,58h1v1h-1z M88,58h1v1h-1z M89,58h1v1h-1z M95,58h1v1h-1z M98,58h1v1h-1z M100,58h1v1h-1z M107,58h1v1h-1z M4,59h1v1h-1z M5,59h1v1h-1z M6,59h1v1h-1z M7,59h1v1h-1z M8,59h1v1h-1z M9,59h1v1h-1z M13,59h1v1h-1z M15,59h1v1h-1z M16,59h1v1h-1z M18,59h1v1h-1z M19,59h1v1h-1z M20,59h1v1h-1z M21,59h1v1h-1z M22,59h1v1h-1z M25,59h1v1h-1z M26,59h1v1h-1z M31,59h1v1h-1z M32,59h1v1h-1z M33,59h1v1h-1z M35,59h1v1h-1z M37,59h1v1h-1z M41,59h1v1h-1z M42,59h1v1h-1z M44,59h1v1h-1z M46,59h1v1h-1z M47,59h1v1h-1z M50,59h1v1h-1z M54,59h1v1h-1z M56,59h1v1h-1z M58,59h1v1h-1z M59,59h1v1h-1z M61,59h1v1h-1z M62,59h1v1h-1z M68,59h1v1h-1z M69,59h1v1h-1z M71,59h1v1h-1z M77,59h1v1h-1z M78,59h1v1h-1z M79,59h1v1h-1z M80,59h1v1h-1z M82,59h1v1h-1z M83,59h1v1h-1z M85,59h1v1h-1z M87,59h1v1h-1z M90,59h1v1h-1z M91,59h1v1h-1z M92,59h1v1h-1z M94,59h1v1h-1z M95,59h1v1h-1z M97,59h1v1h-1z M98,59h1v1h-1z M99,59h1v1h-1z M103,59h1v1h-1z M104,59h1v1h-1z M105,59h1v1h-1z M108,59h1v1h-1z M4,60h1v1h-1z M6,60h1v1h-1z M7,60h1v1h-1z M8,60h1v1h-1z M9,60h1v1h-1z M10,60h1v1h-1z M11,60h1v1h-1z M13,60h1v1h-1z M14,60h1v1h-1z M15,60h1v1h-1z M18,60h1v1h-1z M19,60h1v1h-1z M20,60h1v1h-1z M21,60h1v1h-1z M22,60h1v1h-1z M23,60h1v1h-1z M25,60h1v1h-1z M26,60h1v1h-1z M28,60h1v1h-1z M30,60h1v1h-1z M31,60h1v1h-1z M32,60h1v1h-1z M33,60h1v1h-1z M34,60h1v1h-1z M35,60h1v1h-1z M37,60h1v1h-1z M40,60h1v1h-1z M41,60h1v1h-1z M42,60h1v1h-1z M46,60h1v1h-1z M47,60h1v1h-1z M50,60h1v1h-1z M54,60h1v1h-1z M55,60h1v1h-1z M56,60h1v1h-1z M59,60h1v1h-1z M64,60h1v1h-1z M65,60h1v1h-1z M67,60h1v1h-1z M70,60h1v1h-1z M73,60h1v1h-1z M75,60h1v1h-1z M76,60h1v1h-1z M78,60h1v1h-1z M79,60h1v1h-1z M80,60h1v1h-1z M82,60h1v1h-1z M86,60h1v1h-1z M87,60h1v1h-1z M88,60h1v1h-1z M89,60h1v1h-1z M90,60h1v1h-1z M91,60h1v1h-1z M92,60h1v1h-1z M94,60h1v1h-1z M95,60h1v1h-1z M96,60h1v1h-1z M99,60h1v1h-1z M101,60h1v1h-1z M103,60h1v1h-1z M105,60h1v1h-1z M107,60h1v1h-1z M108,60h1v1h-1z M4,61h1v1h-1z M7,61h1v1h-1z M9,61h1v1h-1z M12,61h1v1h-1z M13,61h1v1h-1z M17,61h1v1h-1z M19,61h1v1h-1z M20,61h1v1h-1z M21,61h1v1h-1z M23,61h1v1h-1z M24,61h1v1h-1z M26,61h1v1h-1z M28,61h1v1h-1z M30,61h1v1h-1z M34,61h1v1h-1z M35,61h1v1h-1z M36,61h1v1h-1z M37,61h1v1h-1z M39,61h1v1h-1z M40,61h1v1h-1z M43,61h1v1h-1z M45,61h1v1h-1z M46,61h1v1h-1z M48,61h1v1h-1z M50,61h1v1h-1z M54,61h1v1h-1z M55,61h1v1h-1z M58,61h1v1h-1z M60,61h1v1h-1z M64,61h1v1h-1z M65,61h1v1h-1z M66,61h1v1h-1z M69,61h1v1h-1z M71,61h1v1h-1z M72,61h1v1h-1z M73,61h1v1h-1z M77,61h1v1h-1z M79,61h1v1h-1z M81,61h1v1h-1z M82,61h1v1h-1z M84,61h1v1h-1z M85,61h1v1h-1z M88,61h1v1h-1z M91,61h1v1h-1z M93,61h1v1h-1z M95,61h1v1h-1z M100,61h1v1h-1z M102,61h1v1h-1z M103,61h1v1h-1z M105,61h1v1h-1z M106,61h1v1h-1z M108,61h1v1h-1z M10,62h1v1h-1z M11,62h1v1h-1z M12,62h1v1h-1z M13,62h1v1h-1z M15,62h1v1h-1z M16,62h1v1h-1z M17,62h1v1h-1z M18,62h1v1h-1z M19,62h1v1h-1z M20,62h1v1h-1z M21,62h1v1h-1z M22,62h1v1h-1z M23,62h1v1h-1z M30,62h1v1h-1z M35,62h1v1h-1z M36,62h1v1h-1z M37,62h1v1h-1z M38,62h1v1h-1z M40,62h1v1h-1z M41,62h1v1h-1z M43,62h1v1h-1z M44,62h1v1h-1z M45,62h1v1h-1z M50,62h1v1h-1z M54,62h1v1h-1z M56,62h1v1h-1z M57,62h1v1h-1z M59,62h1v1h-1z M62,62h1v1h-1z M63,62h1v1h-1z M65,62h1v1h-1z M67,62h1v1h-1z M68,62h1v1h-1z M72,62h1v1h-1z M74,62h1v1h-1z M77,62h1v1h-1z M79,62h1v1h-1z M80,62h1v1h-1z M83,62h1v1h-1z M86,62h1v1h-1z M88,62h1v1h-1z M91,62h1v1h-1z M98,62h1v1h-1z M101,62h1v1h-1z M102,62h1v1h-1z M104,62h1v1h-1z M105,62h1v1h-1z M107,62h1v1h-1z M6,63h1v1h-1z M8,63h1v1h-1z M9,63h1v1h-1z M15,63h1v1h-1z M18,63h1v1h-1z M19,63h1v1h-1z M21,63h1v1h-1z M23,63h1v1h-1z M25,63h1v1h-1z M28,63h1v1h-1z M31,63h1v1h-1z M33,63h1v1h-1z M34,63h1v1h-1z M37,63h1v1h-1z M42,63h1v1h-1z M44,63h1v1h-1z M46,63h1v1h-1z M47,63h1v1h-1z M49,63h1v1h-1z M50,63h1v1h-1z M51,63h1v1h-1z M55,63h1v1h-1z M58,63h1v1h-1z M59,63h1v1h-1z M62,63h1v1h-1z M68,63h1v1h-1z M70,63h1v1h-1z M71,63h1v1h-1z M73,63h1v1h-1z M74,63h1v1h-1z M76,63h1v1h-1z M77,63h1v1h-1z M79,63h1v1h-1z M82,63h1v1h-1z M83,63h1v1h-1z M87,63h1v1h-1z M89,63h1v1h-1z M90,63h1v1h-1z M92,63h1v1h-1z M95,63h1v1h-1z M99,63h1v1h-1z M101,63h1v1h-1z M103,63h1v1h-1z M104,63h1v1h-1z M4,64h1v1h-1z M7,64h1v1h-1z M10,64h1v1h-1z M11,64h1v1h-1z M12,64h1v1h-1z M13,64h1v1h-1z M19,64h1v1h-1z M20,64h1v1h-1z M22,64h1v1h-1z M25,64h1v1h-1z M27,64h1v1h-1z M29,64h1v1h-1z M30,64h1v1h-1z M34,64h1v1h-1z M37,64h1v1h-1z M39,64h1v1h-1z M40,64h1v1h-1z M41,64h1v1h-1z M43,64h1v1h-1z M44,64h1v1h-1z M45,64h1v1h-1z M46,64h1v1h-1z M47,64h1v1h-1z M48,64h1v1h-1z M50,64h1v1h-1z M51,64h1v1h-1z M52,64h1v1h-1z M54,64h1v1h-1z M56,64h1v1h-1z M58,64h1v1h-1z M59,64h1v1h-1z M63,64h1v1h-1z M66,64h1v1h-1z M67,64h1v1h-1z M68,64h1v1h-1z M69,64h1v1h-1z M70,64h1v1h-1z M71,64h1v1h-1z M73,64h1v1h-1z M76,64h1v1h-1z M78,64h1v1h-1z M79,64h1v1h-1z M80,64h1v1h-1z M81,64h1v1h-1z M82,64h1v1h-1z M90,64h1v1h-1z M91,64h1v1h-1z M94,64h1v1h-1z M100,64h1v1h-1z M102,64h1v1h-1z M103,64h1v1h-1z M105,64h1v1h-1z M106,64h1v1h-1z M108,64h1v1h-1z M4,65h1v1h-1z M5,65h1v1h-1z M6,65h1v1h-1z M7,65h1v1h-1z M8,65h1v1h-1z M9,65h1v1h-1z M15,65h1v1h-1z M16,65h1v1h-1z M18,65h1v1h-1z M19,65h1v1h-1z M20,65h1v1h-1z M23,65h1v1h-1z M24,65h1v1h-1z M28,65h1v1h-1z M31,65h1v1h-1z M33,65h1v1h-1z M34,65h1v1h-1z M35,65h1v1h-1z M36,65h1v1h-1z M38,65h1v1h-1z M40,65h1v1h-1z M42,65h1v1h-1z M43,65h1v1h-1z M45,65h1v1h-1z M46,65h1v1h-1z M48,65h1v1h-1z M49,65h1v1h-1z M50,65h1v1h-1z M54,65h1v1h-1z M59,65h1v1h-1z M62,65h1v1h-1z M67,65h1v1h-1z M69,65h1v1h-1z M70,65h1v1h-1z M71,65h1v1h-1z M73,65h1v1h-1z M74,65h1v1h-1z M78,65h1v1h-1z M82,65h1v1h-1z M83,65h1v1h-1z M84,65h1v1h-1z M85,65h1v1h-1z M86,65h1v1h-1z M88,65h1v1h-1z M91,65h1v1h-1z M95,65h1v1h-1z M99,65h1v1h-1z M100,65h1v1h-1z M101,65h1v1h-1z M102,65h1v1h-1z M103,65h1v1h-1z M104,65h1v1h-1z M106,65h1v1h-1z M107,65h1v1h-1z M108,65h1v1h-1z M4,66h1v1h-1z M6,66h1v1h-1z M7,66h1v1h-1z M8,66h1v1h-1z M9,66h1v1h-1z M10,66h1v1h-1z M13,66h1v1h-1z M15,66h1v1h-1z M16,66h1v1h-1z M20,66h1v1h-1z M21,66h1v1h-1z M22,66h1v1h-1z M23,66h1v1h-1z M24,66h1v1h-1z M29,66h1v1h-1z M32,66h1v1h-1z M36,66h1v1h-1z M38,66h1v1h-1z M39,66h1v1h-1z M40,66h1v1h-1z M41,66h1v1h-1z M44,66h1v1h-1z M45,66h1v1h-1z M47,66h1v1h-1z M48,66h1v1h-1z M50,66h1v1h-1z M53,66h1v1h-1z M56,66h1v1h-1z M61,66h1v1h-1z M62,66h1v1h-1z M65,66h1v1h-1z M72,66h1v1h-1z M74,66h1v1h-1z M75,66h1v1h-1z M80,66h1v1h-1z M84,66h1v1h-1z M86,66h1v1h-1z M87,66h1v1h-1z M88,66h1v1h-1z M89,66h1v1h-1z M91,66h1v1h-1z M96,66h1v1h-1z M98,66h1v1h-1z M99,66h1v1h-1z M102,66h1v1h-1z M104,66h1v1h-1z M107,66h1v1h-1z M6,67h1v1h-1z M7,67h1v1h-1z M9,67h1v1h-1z M11,67h1v1h-1z M12,67h1v1h-1z M14,67h1v1h-1z M15,67h1v1h-1z M17,67h1v1h-1z M18,67h1v1h-1z M19,67h1v1h-1z M21,67h1v1h-1z M23,67h1v1h-1z M27,67h1v1h-1z M32,67h1v1h-1z M33,67h1v1h-1z M34,67h1v1h-1z M35,67h1v1h-1z M37,67h1v1h-1z M41,67h1v1h-1z M42,67h1v1h-1z M44,67h1v1h-1z M46,67h1v1h-1z M47,67h1v1h-1z M51,67h1v1h-1z M52,67h1v1h-1z M55,67h1v1h-1z M56,67h1v1h-1z M57,67h1v1h-1z M58,67h1v1h-1z M59,67h1v1h-1z M68,67h1v1h-1z M69,67h1v1h-1z M71,67h1v1h-1z M76,67h1v1h-1z M78,67h1v1h-1z M80,67h1v1h-1z M83,67h1v1h-1z M86,67h1v1h-1z M89,67h1v1h-1z M90,67h1v1h-1z M92,67h1v1h-1z M94,67h1v1h-1z M95,67h1v1h-1z M99,67h1v1h-1z M100,67h1v1h-1z M102,67h1v1h-1z M103,67h1v1h-1z M105,67h1v1h-1z M107,67h1v1h-1z M108,67h1v1h-1z M9,68h1v1h-1z M10,68h1v1h-1z M12,68h1v1h-1z M14,68h1v1h-1z M16,68h1v1h-1z M17,68h1v1h-1z M21,68h1v1h-1z M22,68h1v1h-1z M23,68h1v1h-1z M25,68h1v1h-1z M27,68h1v1h-1z M28,68h1v1h-1z M29,68h1v1h-1z M30,68h1v1h-1z M31,68h1v1h-1z M32,68h1v1h-1z M34,68h1v1h-1z M36,68h1v1h-1z M37,68h1v1h-1z M38,68h1v1h-1z M39,68h1v1h-1z M40,68h1v1h-1z M41,68h1v1h-1z M43,68h1v1h-1z M44,68h1v1h-1z M45,68h1v1h-1z M48,68h1v1h-1z M49,68h1v1h-1z M51,68h1v1h-1z M54,68h1v1h-1z M57,68h1v1h-1z M58,68h1v1h-1z M60,68h1v1h-1z M63,68h1v1h-1z M64,68h1v1h-1z M67,68h1v1h-1z M68,68h1v1h-1z M72,68h1v1h-1z M75,68h1v1h-1z M77,68h1v1h-1z M78,68h1v1h-1z M81,68h1v1h-1z M82,68h1v1h-1z M83,68h1v1h-1z M84,68h1v1h-1z M87,68h1v1h-1z M88,68h1v1h-1z M90,68h1v1h-1z M94,68h1v1h-1z M95,68h1v1h-1z M96,68h1v1h-1z M99,68h1v1h-1z M100,68h1v1h-1z M105,68h1v1h-1z M4,69h1v1h-1z M5,69h1v1h-1z M7,69h1v1h-1z M14,69h1v1h-1z M19,69h1v1h-1z M20,69h1v1h-1z M21,69h1v1h-1z M23,69h1v1h-1z M24,69h1v1h-1z M25,69h1v1h-1z M26,69h1v1h-1z M27,69h1v1h-1z M33,69h1v1h-1z M35,69h1v1h-1z M36,69h1v1h-1z M37,69h1v1h-1z M40,69h1v1h-1z M43,69h1v1h-1z M45,69h1v1h-1z M47,69h1v1h-1z M51,69h1v1h-1z M52,69h1v1h-1z M55,69h1v1h-1z M58,69h1v1h-1z M59,69h1v1h-1z M61,69h1v1h-1z M62,69h1v1h-1z M66,69h1v1h-1z M68,69h1v1h-1z M70,69h1v1h-1z M71,69h1v1h-1z M73,69h1v1h-1z M74,69h1v1h-1z M76,69h1v1h-1z M79,69h1v1h-1z M83,69h1v1h-1z M84,69h1v1h-1z M85,69h1v1h-1z M88,69h1v1h-1z M89,69h1v1h-1z M90,69h1v1h-1z M92,69h1v1h-1z M93,69h1v1h-1z M96,69h1v1h-1z M97,69h1v1h-1z M99,69h1v1h-1z M100,69h1v1h-1z M102,69h1v1h-1z M105,69h1v1h-1z M106,69h1v1h-1z M107,69h1v1h-1z M4,70h1v1h-1z M8,70h1v1h-1z M10,70h1v1h-1z M11,70h1v1h-1z M13,70h1v1h-1z M14,70h1v1h-1z M18,70h1v1h-1z M19,70h1v1h-1z M20,70h1v1h-1z M21,70h1v1h-1z M23,70h1v1h-1z M24,70h1v1h-1z M26,70h1v1h-1z M27,70h1v1h-1z M29,70h1v1h-1z M37,70h1v1h-1z M38,70h1v1h-1z M41,70h1v1h-1z M43,70h1v1h-1z M47,70h1v1h-1z M50,70h1v1h-1z M53,70h1v1h-1z M60,70h1v1h-1z M61,70h1v1h-1z M62,70h1v1h-1z M63,70h1v1h-1z M64,70h1v1h-1z M65,70h1v1h-1z M67,70h1v1h-1z M71,70h1v1h-1z M72,70h1v1h-1z M74,70h1v1h-1z M77,70h1v1h-1z M79,70h1v1h-1z M83,70h1v1h-1z M84,70h1v1h-1z M85,70h1v1h-1z M86,70h1v1h-1z M88,70h1v1h-1z M95,70h1v1h-1z M96,70h1v1h-1z M98,70h1v1h-1z M99,70h1v1h-1z M100,70h1v1h-1z M102,70h1v1h-1z M103,70h1v1h-1z M107,70h1v1h-1z M108,70h1v1h-1z M4,71h1v1h-1z M11,71h1v1h-1z M12,71h1v1h-1z M13,71h1v1h-1z M16,71h1v1h-1z M17,71h1v1h-1z M21,71h1v1h-1z M22,71h1v1h-1z M23,71h1v1h-1z M24,71h1v1h-1z M25,71h1v1h-1z M26,71h1v1h-1z M30,71h1v1h-1z M35,71h1v1h-1z M42,71h1v1h-1z M44,71h1v1h-1z M45,71h1v1h-1z M47,71h1v1h-1z M49,71h1v1h-1z M50,71h1v1h-1z M51,71h1v1h-1z M52,71h1v1h-1z M54,71h1v1h-1z M57,71h1v1h-1z M58,71h1v1h-1z M59,71h1v1h-1z M65,71h1v1h-1z M68,71h1v1h-1z M69,71h1v1h-1z M70,71h1v1h-1z M71,71h1v1h-1z M73,71h1v1h-1z M75,71h1v1h-1z M76,71h1v1h-1z M79,71h1v1h-1z M80,71h1v1h-1z M83,71h1v1h-1z M89,71h1v1h-1z M90,71h1v1h-1z M92,71h1v1h-1z M93,71h1v1h-1z M98,71h1v1h-1z M101,71h1v1h-1z M107,71h1v1h-1z M108,71h1v1h-1z M4,72h1v1h-1z M5,72h1v1h-1z M7,72h1v1h-1z M8,72h1v1h-1z M9,72h1v1h-1z M10,72h1v1h-1z M12,72h1v1h-1z M17,72h1v1h-1z M18,72h1v1h-1z M20,72h1v1h-1z M21,72h1v1h-1z M24,72h1v1h-1z M30,72h1v1h-1z M31,72h1v1h-1z M32,72h1v1h-1z M34,72h1v1h-1z M35,72h1v1h-1z M36,72h1v1h-1z M40,72h1v1h-1z M41,72h1v1h-1z M42,72h1v1h-1z M43,72h1v1h-1z M45,72h1v1h-1z M46,72h1v1h-1z M50,72h1v1h-1z M51,72h1v1h-1z M52,72h1v1h-1z M54,72h1v1h-1z M55,72h1v1h-1z M56,72h1v1h-1z M57,72h1v1h-1z M58,72h1v1h-1z M59,72h1v1h-1z M62,72h1v1h-1z M64,72h1v1h-1z M65,72h1v1h-1z M66,72h1v1h-1z M67,72h1v1h-1z M69,72h1v1h-1z M70,72h1v1h-1z M73,72h1v1h-1z M75,72h1v1h-1z M76,72h1v1h-1z M77,72h1v1h-1z M78,72h1v1h-1z M79,72h1v1h-1z M80,72h1v1h-1z M81,72h1v1h-1z M82,72h1v1h-1z M87,72h1v1h-1z M88,72h1v1h-1z M89,72h1v1h-1z M90,72h1v1h-1z M91,72h1v1h-1z M94,72h1v1h-1z M95,72h1v1h-1z M96,72h1v1h-1z M97,72h1v1h-1z M98,72h1v1h-1z M99,72h1v1h-1z M101,72h1v1h-1z M102,72h1v1h-1z M103,72h1v1h-1z M107,72h1v1h-1z M108,72h1v1h-1z M4,73h1v1h-1z M5,73h1v1h-1z M6,73h1v1h-1z M8,73h1v1h-1z M12,73h1v1h-1z M13,73h1v1h-1z M15,73h1v1h-1z M17,73h1v1h-1z M22,73h1v1h-1z M23,73h1v1h-1z M24,73h1v1h-1z M25,73h1v1h-1z M27,73h1v1h-1z M29,73h1v1h-1z M31,73h1v1h-1z M34,73h1v1h-1z M36,73h1v1h-1z M37,73h1v1h-1z M38,73h1v1h-1z M39,73h1v1h-1z M47,73h1v1h-1z M48,73h1v1h-1z M49,73h1v1h-1z M50,73h1v1h-1z M51,73h1v1h-1z M53,73h1v1h-1z M59,73h1v1h-1z M60,73h1v1h-1z M61,73h1v1h-1z M62,73h1v1h-1z M66,73h1v1h-1z M74,73h1v1h-1z M82,73h1v1h-1z M83,73h1v1h-1z M84,73h1v1h-1z M85,73h1v1h-1z M91,73h1v1h-1z M93,73h1v1h-1z M94,73h1v1h-1z M96,73h1v1h-1z M97,73h1v1h-1z M98,73h1v1h-1z M99,73h1v1h-1z M100,73h1v1h-1z M102,73h1v1h-1z M103,73h1v1h-1z M104,73h1v1h-1z M107,73h1v1h-1z M108,73h1v1h-1z M6,74h1v1h-1z M7,74h1v1h-1z M9,74h1v1h-1z M10,74h1v1h-1z M12,74h1v1h-1z M14,74h1v1h-1z M15,74h1v1h-1z M16,74h1v1h-1z M18,74h1v1h-1z M22,74h1v1h-1z M25,74h1v1h-1z M27,74h1v1h-1z M30,74h1v1h-1z M31,74h1v1h-1z M35,74h1v1h-1z M36,74h1v1h-1z M37,74h1v1h-1z M38,74h1v1h-1z M39,74h1v1h-1z M40,74h1v1h-1z M41,74h1v1h-1z M47,74h1v1h-1z M48,74h1v1h-1z M49,74h1v1h-1z M50,74h1v1h-1z M51,74h1v1h-1z M55,74h1v1h-1z M56,74h1v1h-1z M59,74h1v1h-1z M62,74h1v1h-1z M64,74h1v1h-1z M65,74h1v1h-1z M68,74h1v1h-1z M71,74h1v1h-1z M72,74h1v1h-1z M73,74h1v1h-1z M74,74h1v1h-1z M80,74h1v1h-1z M81,74h1v1h-1z M84,74h1v1h-1z M86,74h1v1h-1z M87,74h1v1h-1z M88,74h1v1h-1z M89,74h1v1h-1z M95,74h1v1h-1z M96,74h1v1h-1z M98,74h1v1h-1z M99,74h1v1h-1z M100,74h1v1h-1z M102,74h1v1h-1z M103,74h1v1h-1z M104,74h1v1h-1z M105,74h1v1h-1z M106,74h1v1h-1z M107,74h1v1h-1z M5,75h1v1h-1z M9,75h1v1h-1z M16,75h1v1h-1z M17,75h1v1h-1z M18,75h1v1h-1z M20,75h1v1h-1z M21,75h1v1h-1z M22,75h1v1h-1z M23,75h1v1h-1z M24,75h1v1h-1z M25,75h1v1h-1z M26,75h1v1h-1z M27,75h1v1h-1z M28,75h1v1h-1z M32,75h1v1h-1z M33,75h1v1h-1z M34,75h1v1h-1z M35,75h1v1h-1z M41,75h1v1h-1z M44,75h1v1h-1z M47,75h1v1h-1z M49,75h1v1h-1z M51,75h1v1h-1z M54,75h1v1h-1z M55,75h1v1h-1z M57,75h1v1h-1z M58,75h1v1h-1z M59,75h1v1h-1z M65,75h1v1h-1z M68,75h1v1h-1z M69,75h1v1h-1z M70,75h1v1h-1z M71,75h1v1h-1z M75,75h1v1h-1z M76,75h1v1h-1z M77,75h1v1h-1z M79,75h1v1h-1z M80,75h1v1h-1z M82,75h1v1h-1z M83,75h1v1h-1z M85,75h1v1h-1z M86,75h1v1h-1z M87,75h1v1h-1z M89,75h1v1h-1z M90,75h1v1h-1z M91,75h1v1h-1z M92,75h1v1h-1z M97,75h1v1h-1z M98,75h1v1h-1z M103,75h1v1h-1z M107,75h1v1h-1z M5,76h1v1h-1z M6,76h1v1h-1z M7,76h1v1h-1z M8,76h1v1h-1z M9,76h1v1h-1z M10,76h1v1h-1z M11,76h1v1h-1z M12,76h1v1h-1z M17,76h1v1h-1z M18,76h1v1h-1z M21,76h1v1h-1z M22,76h1v1h-1z M23,76h1v1h-1z M24,76h1v1h-1z M25,76h1v1h-1z M26,76h1v1h-1z M27,76h1v1h-1z M28,76h1v1h-1z M29,76h1v1h-1z M30,76h1v1h-1z M31,76h1v1h-1z M32,76h1v1h-1z M33,76h1v1h-1z M34,76h1v1h-1z M35,76h1v1h-1z M36,76h1v1h-1z M38,76h1v1h-1z M39,76h1v1h-1z M42,76h1v1h-1z M44,76h1v1h-1z M45,76h1v1h-1z M48,76h1v1h-1z M52,76h1v1h-1z M53,76h1v1h-1z M54,76h1v1h-1z M55,76h1v1h-1z M56,76h1v1h-1z M58,76h1v1h-1z M60,76h1v1h-1z M61,76h1v1h-1z M63,76h1v1h-1z M64,76h1v1h-1z M65,76h1v1h-1z M66,76h1v1h-1z M67,76h1v1h-1z M68,76h1v1h-1z M69,76h1v1h-1z M70,76h1v1h-1z M72,76h1v1h-1z M75,76h1v1h-1z M76,76h1v1h-1z M77,76h1v1h-1z M78,76h1v1h-1z M79,76h1v1h-1z M80,76h1v1h-1z M81,76h1v1h-1z M82,76h1v1h-1z M85,76h1v1h-1z M86,76h1v1h-1z M90,76h1v1h-1z M91,76h1v1h-1z M94,76h1v1h-1z M96,76h1v1h-1z M97,76h1v1h-1z M99,76h1v1h-1z M100,76h1v1h-1z M101,76h1v1h-1z M102,76h1v1h-1z M103,76h1v1h-1z M104,76h1v1h-1z M108,76h1v1h-1z M6,77h1v1h-1z M7,77h1v1h-1z M8,77h1v1h-1z M12,77h1v1h-1z M13,77h1v1h-1z M14,77h1v1h-1z M16,77h1v1h-1z M17,77h1v1h-1z M19,77h1v1h-1z M21,77h1v1h-1z M23,77h1v1h-1z M26,77h1v1h-1z M28,77h1v1h-1z M32,77h1v1h-1z M36,77h1v1h-1z M37,77h1v1h-1z M38,77h1v1h-1z M39,77h1v1h-1z M40,77h1v1h-1z M41,77h1v1h-1z M42,77h1v1h-1z M43,77h1v1h-1z M46,77h1v1h-1z M47,77h1v1h-1z M52,77h1v1h-1z M56,77h1v1h-1z M57,77h1v1h-1z M58,77h1v1h-1z M59,77h1v1h-1z M60,77h1v1h-1z M64,77h1v1h-1z M65,77h1v1h-1z M69,77h1v1h-1z M70,77h1v1h-1z M72,77h1v1h-1z M73,77h1v1h-1z M76,77h1v1h-1z M80,77h1v1h-1z M83,77h1v1h-1z M84,77h1v1h-1z M86,77h1v1h-1z M88,77h1v1h-1z M89,77h1v1h-1z M90,77h1v1h-1z M91,77h1v1h-1z M94,77h1v1h-1z M95,77h1v1h-1z M100,77h1v1h-1z M104,77h1v1h-1z M105,77h1v1h-1z M4,78h1v1h-1z M5,78h1v1h-1z M6,78h1v1h-1z M8,78h1v1h-1z M10,78h1v1h-1z M12,78h1v1h-1z M15,78h1v1h-1z M18,78h1v1h-1z M19,78h1v1h-1z M22,78h1v1h-1z M23,78h1v1h-1z M28,78h1v1h-1z M30,78h1v1h-1z M32,78h1v1h-1z M33,78h1v1h-1z M38,78h1v1h-1z M39,78h1v1h-1z M40,78h1v1h-1z M41,78h1v1h-1z M43,78h1v1h-1z M44,78h1v1h-1z M48,78h1v1h-1z M50,78h1v1h-1z M52,78h1v1h-1z M54,78h1v1h-1z M56,78h1v1h-1z M57,78h1v1h-1z M59,78h1v1h-1z M60,78h1v1h-1z M62,78h1v1h-1z M63,78h1v1h-1z M64,78h1v1h-1z M67,78h1v1h-1z M72,78h1v1h-1z M74,78h1v1h-1z M76,78h1v1h-1z M78,78h1v1h-1z M80,78h1v1h-1z M86,78h1v1h-1z M87,78h1v1h-1z M89,78h1v1h-1z M92,78h1v1h-1z M95,78h1v1h-1z M96,78h1v1h-1z M98,78h1v1h-1z M100,78h1v1h-1z M102,78h1v1h-1z M104,78h1v1h-1z M107,78h1v1h-1z M4,79h1v1h-1z M7,79h1v1h-1z M8,79h1v1h-1z M12,79h1v1h-1z M13,79h1v1h-1z M14,79h1v1h-1z M16,79h1v1h-1z M17,79h1v1h-1z M19,79h1v1h-1z M20,79h1v1h-1z M22,79h1v1h-1z M23,79h1v1h-1z M24,79h1v1h-1z M25,79h1v1h-1z M26,79h1v1h-1z M28,79h1v1h-1z M32,79h1v1h-1z M34,79h1v1h-1z M35,79h1v1h-1z M37,79h1v1h-1z M38,79h1v1h-1z M44,79h1v1h-1z M47,79h1v1h-1z M49,79h1v1h-1z M51,79h1v1h-1z M52,79h1v1h-1z M56,79h1v1h-1z M58,79h1v1h-1z M65,79h1v1h-1z M66,79h1v1h-1z M68,79h1v1h-1z M70,79h1v1h-1z M71,79h1v1h-1z M73,79h1v1h-1z M74,79h1v1h-1z M76,79h1v1h-1z M80,79h1v1h-1z M81,79h1v1h-1z M83,79h1v1h-1z M85,79h1v1h-1z M89,79h1v1h-1z M90,79h1v1h-1z M92,79h1v1h-1z M94,79h1v1h-1z M99,79h1v1h-1z M100,79h1v1h-1z M104,79h1v1h-1z M105,79h1v1h-1z M107,79h1v1h-1z M4,80h1v1h-1z M8,80h1v1h-1z M9,80h1v1h-1z M10,80h1v1h-1z M11,80h1v1h-1z M12,80h1v1h-1z M13,80h1v1h-1z M17,80h1v1h-1z M19,80h1v1h-1z M22,80h1v1h-1z M24,80h1v1h-1z M25,80h1v1h-1z M27,80h1v1h-1z M28,80h1v1h-1z M29,80h1v1h-1z M30,80h1v1h-1z M31,80h1v1h-1z M32,80h1v1h-1z M33,80h1v1h-1z M34,80h1v1h-1z M36,80h1v1h-1z M38,80h1v1h-1z M41,80h1v1h-1z M43,80h1v1h-1z M44,80h1v1h-1z M45,80h1v1h-1z M46,80h1v1h-1z M47,80h1v1h-1z M50,80h1v1h-1z M51,80h1v1h-1z M52,80h1v1h-1z M53,80h1v1h-1z M54,80h1v1h-1z M55,80h1v1h-1z M56,80h1v1h-1z M57,80h1v1h-1z M58,80h1v1h-1z M59,80h1v1h-1z M62,80h1v1h-1z M63,80h1v1h-1z M65,80h1v1h-1z M66,80h1v1h-1z M67,80h1v1h-1z M70,80h1v1h-1z M72,80h1v1h-1z M76,80h1v1h-1z M77,80h1v1h-1z M78,80h1v1h-1z M79,80h1v1h-1z M80,80h1v1h-1z M82,80h1v1h-1z M84,80h1v1h-1z M88,80h1v1h-1z M90,80h1v1h-1z M91,80h1v1h-1z M92,80h1v1h-1z M93,80h1v1h-1z M98,80h1v1h-1z M100,80h1v1h-1z M101,80h1v1h-1z M102,80h1v1h-1z M103,80h1v1h-1z M104,80h1v1h-1z M105,80h1v1h-1z M107,80h1v1h-1z M108,80h1v1h-1z M5,81h1v1h-1z M7,81h1v1h-1z M8,81h1v1h-1z M9,81h1v1h-1z M15,81h1v1h-1z M16,81h1v1h-1z M17,81h1v1h-1z M18,81h1v1h-1z M28,81h1v1h-1z M30,81h1v1h-1z M35,81h1v1h-1z M37,81h1v1h-1z M38,81h1v1h-1z M40,81h1v1h-1z M42,81h1v1h-1z M43,81h1v1h-1z M46,81h1v1h-1z M47,81h1v1h-1z M48,81h1v1h-1z M49,81h1v1h-1z M50,81h1v1h-1z M52,81h1v1h-1z M54,81h1v1h-1z M55,81h1v1h-1z M56,81h1v1h-1z M59,81h1v1h-1z M65,81h1v1h-1z M67,81h1v1h-1z M70,81h1v1h-1z M71,81h1v1h-1z M72,81h1v1h-1z M73,81h1v1h-1z M77,81h1v1h-1z M78,81h1v1h-1z M79,81h1v1h-1z M82,81h1v1h-1z M83,81h1v1h-1z M84,81h1v1h-1z M85,81h1v1h-1z M86,81h1v1h-1z M88,81h1v1h-1z M91,81h1v1h-1z M92,81h1v1h-1z M93,81h1v1h-1z M95,81h1v1h-1z M96,81h1v1h-1z M99,81h1v1h-1z M100,81h1v1h-1z M101,81h1v1h-1z M102,81h1v1h-1z M103,81h1v1h-1z M105,81h1v1h-1z M106,81h1v1h-1z M5,82h1v1h-1z M7,82h1v1h-1z M9,82h1v1h-1z M10,82h1v1h-1z M11,82h1v1h-1z M12,82h1v1h-1z M13,82h1v1h-1z M16,82h1v1h-1z M18,82h1v1h-1z M19,82h1v1h-1z M20,82h1v1h-1z M25,82h1v1h-1z M26,82h1v1h-1z M27,82h1v1h-1z M28,82h1v1h-1z M29,82h1v1h-1z M32,82h1v1h-1z M36,82h1v1h-1z M38,82h1v1h-1z M45,82h1v1h-1z M47,82h1v1h-1z M48,82h1v1h-1z M50,82h1v1h-1z M51,82h1v1h-1z M54,82h1v1h-1z M56,82h1v1h-1z M60,82h1v1h-1z M62,82h1v1h-1z M63,82h1v1h-1z M64,82h1v1h-1z M67,82h1v1h-1z M68,82h1v1h-1z M71,82h1v1h-1z M72,82h1v1h-1z M74,82h1v1h-1z M77,82h1v1h-1z M78,82h1v1h-1z M80,82h1v1h-1z M81,82h1v1h-1z M83,82h1v1h-1z M84,82h1v1h-1z M85,82h1v1h-1z M86,82h1v1h-1z M89,82h1v1h-1z M91,82h1v1h-1z M92,82h1v1h-1z M95,82h1v1h-1z M96,82h1v1h-1z M98,82h1v1h-1z M99,82h1v1h-1z M100,82h1v1h-1z M101,82h1v1h-1z M104,82h1v1h-1z M4,83h1v1h-1z M6,83h1v1h-1z M7,83h1v1h-1z M8,83h1v1h-1z M13,83h1v1h-1z M17,83h1v1h-1z M18,83h1v1h-1z M19,83h1v1h-1z M20,83h1v1h-1z M21,83h1v1h-1z M22,83h1v1h-1z M24,83h1v1h-1z M25,83h1v1h-1z M26,83h1v1h-1z M27,83h1v1h-1z M30,83h1v1h-1z M34,83h1v1h-1z M35,83h1v1h-1z M41,83h1v1h-1z M42,83h1v1h-1z M44,83h1v1h-1z M46,83h1v1h-1z M50,83h1v1h-1z M52,83h1v1h-1z M53,83h1v1h-1z M54,83h1v1h-1z M58,83h1v1h-1z M59,83h1v1h-1z M61,83h1v1h-1z M63,83h1v1h-1z M66,83h1v1h-1z M68,83h1v1h-1z M73,83h1v1h-1z M74,83h1v1h-1z M75,83h1v1h-1z M79,83h1v1h-1z M80,83h1v1h-1z M81,83h1v1h-1z M82,83h1v1h-1z M83,83h1v1h-1z M89,83h1v1h-1z M90,83h1v1h-1z M92,83h1v1h-1z M93,83h1v1h-1z M94,83h1v1h-1z M95,83h1v1h-1z M97,83h1v1h-1z M100,83h1v1h-1z M101,83h1v1h-1z M102,83h1v1h-1z M108,83h1v1h-1z M4,84h1v1h-1z M7,84h1v1h-1z M8,84h1v1h-1z M9,84h1v1h-1z M10,84h1v1h-1z M13,84h1v1h-1z M15,84h1v1h-1z M16,84h1v1h-1z M17,84h1v1h-1z M18,84h1v1h-1z M19,84h1v1h-1z M20,84h1v1h-1z M21,84h1v1h-1z M22,84h1v1h-1z M26,84h1v1h-1z M29,84h1v1h-1z M30,84h1v1h-1z M32,84h1v1h-1z M35,84h1v1h-1z M36,84h1v1h-1z M37,84h1v1h-1z M40,84h1v1h-1z M41,84h1v1h-1z M42,84h1v1h-1z M44,84h1v1h-1z M45,84h1v1h-1z M51,84h1v1h-1z M54,84h1v1h-1z M55,84h1v1h-1z M56,84h1v1h-1z M58,84h1v1h-1z M60,84h1v1h-1z M61,84h1v1h-1z M65,84h1v1h-1z M67,84h1v1h-1z M68,84h1v1h-1z M69,84h1v1h-1z M70,84h1v1h-1z M71,84h1v1h-1z M73,84h1v1h-1z M75,84h1v1h-1z M76,84h1v1h-1z M82,84h1v1h-1z M88,84h1v1h-1z M89,84h1v1h-1z M90,84h1v1h-1z M91,84h1v1h-1z M92,84h1v1h-1z M93,84h1v1h-1z M94,84h1v1h-1z M95,84h1v1h-1z M96,84h1v1h-1z M100,84h1v1h-1z M105,84h1v1h-1z M107,84h1v1h-1z M108,84h1v1h-1z M5,85h1v1h-1z M7,85h1v1h-1z M9,85h1v1h-1z M11,85h1v1h-1z M12,85h1v1h-1z M14,85h1v1h-1z M15,85h1v1h-1z M16,85h1v1h-1z M18,85h1v1h-1z M21,85h1v1h-1z M22,85h1v1h-1z M24,85h1v1h-1z M26,85h1v1h-1z M28,85h1v1h-1z M30,85h1v1h-1z M31,85h1v1h-1z M32,85h1v1h-1z M34,85h1v1h-1z M35,85h1v1h-1z M38,85h1v1h-1z M39,85h1v1h-1z M40,85h1v1h-1z M43,85h1v1h-1z M45,85h1v1h-1z M47,85h1v1h-1z M49,85h1v1h-1z M50,85h1v1h-1z M52,85h1v1h-1z M54,85h1v1h-1z M55,85h1v1h-1z M56,85h1v1h-1z M57,85h1v1h-1z M58,85h1v1h-1z M60,85h1v1h-1z M62,85h1v1h-1z M65,85h1v1h-1z M66,85h1v1h-1z M67,85h1v1h-1z M70,85h1v1h-1z M71,85h1v1h-1z M72,85h1v1h-1z M73,85h1v1h-1z M74,85h1v1h-1z M78,85h1v1h-1z M79,85h1v1h-1z M80,85h1v1h-1z M81,85h1v1h-1z M82,85h1v1h-1z M84,85h1v1h-1z M86,85h1v1h-1z M88,85h1v1h-1z M92,85h1v1h-1z M94,85h1v1h-1z M95,85h1v1h-1z M96,85h1v1h-1z M97,85h1v1h-1z M98,85h1v1h-1z M100,85h1v1h-1z M103,85h1v1h-1z M106,85h1v1h-1z M107,85h1v1h-1z M108,85h1v1h-1z M4,86h1v1h-1z M6,86h1v1h-1z M7,86h1v1h-1z M8,86h1v1h-1z M9,86h1v1h-1z M10,86h1v1h-1z M12,86h1v1h-1z M14,86h1v1h-1z M15,86h1v1h-1z M16,86h1v1h-1z M17,86h1v1h-1z M19,86h1v1h-1z M21,86h1v1h-1z M22,86h1v1h-1z M26,86h1v1h-1z M29,86h1v1h-1z M32,86h1v1h-1z M33,86h1v1h-1z M35,86h1v1h-1z M36,86h1v1h-1z M38,86h1v1h-1z M39,86h1v1h-1z M41,86h1v1h-1z M48,86h1v1h-1z M50,86h1v1h-1z M51,86h1v1h-1z M52,86h1v1h-1z M53,86h1v1h-1z M56,86h1v1h-1z M57,86h1v1h-1z M60,86h1v1h-1z M62,86h1v1h-1z M63,86h1v1h-1z M64,86h1v1h-1z M71,86h1v1h-1z M73,86h1v1h-1z M74,86h1v1h-1z M75,86h1v1h-1z M76,86h1v1h-1z M79,86h1v1h-1z M80,86h1v1h-1z M86,86h1v1h-1z M88,86h1v1h-1z M89,86h1v1h-1z M93,86h1v1h-1z M95,86h1v1h-1z M98,86h1v1h-1z M100,86h1v1h-1z M101,86h1v1h-1z M103,86h1v1h-1z M107,86h1v1h-1z M6,87h1v1h-1z M9,87h1v1h-1z M11,87h1v1h-1z M12,87h1v1h-1z M13,87h1v1h-1z M17,87h1v1h-1z M18,87h1v1h-1z M21,87h1v1h-1z M23,87h1v1h-1z M26,87h1v1h-1z M28,87h1v1h-1z M30,87h1v1h-1z M34,87h1v1h-1z M35,87h1v1h-1z M37,87h1v1h-1z M38,87h1v1h-1z M43,87h1v1h-1z M44,87h1v1h-1z M47,87h1v1h-1z M49,87h1v1h-1z M50,87h1v1h-1z M51,87h1v1h-1z M53,87h1v1h-1z M58,87h1v1h-1z M59,87h1v1h-1z M61,87h1v1h-1z M62,87h1v1h-1z M65,87h1v1h-1z M66,87h1v1h-1z M68,87h1v1h-1z M69,87h1v1h-1z M71,87h1v1h-1z M75,87h1v1h-1z M76,87h1v1h-1z M77,87h1v1h-1z M81,87h1v1h-1z M82,87h1v1h-1z M83,87h1v1h-1z M87,87h1v1h-1z M92,87h1v1h-1z M94,87h1v1h-1z M95,87h1v1h-1z M97,87h1v1h-1z M98,87h1v1h-1z M101,87h1v1h-1z M103,87h1v1h-1z M104,87h1v1h-1z M4,88h1v1h-1z M9,88h1v1h-1z M10,88h1v1h-1z M11,88h1v1h-1z M12,88h1v1h-1z M18,88h1v1h-1z M20,88h1v1h-1z M21,88h1v1h-1z M22,88h1v1h-1z M23,88h1v1h-1z M24,88h1v1h-1z M27,88h1v1h-1z M33,88h1v1h-1z M34,88h1v1h-1z M35,88h1v1h-1z M37,88h1v1h-1z M40,88h1v1h-1z M44,88h1v1h-1z M45,88h1v1h-1z M47,88h1v1h-1z M49,88h1v1h-1z M51,88h1v1h-1z M54,88h1v1h-1z M55,88h1v1h-1z M56,88h1v1h-1z M57,88h1v1h-1z M58,88h1v1h-1z M65,88h1v1h-1z M66,88h1v1h-1z M67,88h1v1h-1z M68,88h1v1h-1z M70,88h1v1h-1z M72,88h1v1h-1z M73,88h1v1h-1z M74,88h1v1h-1z M75,88h1v1h-1z M78,88h1v1h-1z M79,88h1v1h-1z M82,88h1v1h-1z M84,88h1v1h-1z M87,88h1v1h-1z M88,88h1v1h-1z M89,88h1v1h-1z M90,88h1v1h-1z M95,88h1v1h-1z M96,88h1v1h-1z M98,88h1v1h-1z M100,88h1v1h-1z M101,88h1v1h-1z M102,88h1v1h-1z M103,88h1v1h-1z M108,88h1v1h-1z M6,89h1v1h-1z M7,89h1v1h-1z M9,89h1v1h-1z M11,89h1v1h-1z M12,89h1v1h-1z M13,89h1v1h-1z M14,89h1v1h-1z M19,89h1v1h-1z M21,89h1v1h-1z M22,89h1v1h-1z M24,89h1v1h-1z M25,89h1v1h-1z M26,89h1v1h-1z M28,89h1v1h-1z M30,89h1v1h-1z M34,89h1v1h-1z M38,89h1v1h-1z M39,89h1v1h-1z M41,89h1v1h-1z M47,89h1v1h-1z M49,89h1v1h-1z M50,89h1v1h-1z M52,89h1v1h-1z M54,89h1v1h-1z M56,89h1v1h-1z M63,89h1v1h-1z M64,89h1v1h-1z M65,89h1v1h-1z M67,89h1v1h-1z M69,89h1v1h-1z M71,89h1v1h-1z M72,89h1v1h-1z M73,89h1v1h-1z M74,89h1v1h-1z M77,89h1v1h-1z M78,89h1v1h-1z M79,89h1v1h-1z M80,89h1v1h-1z M81,89h1v1h-1z M82,89h1v1h-1z M84,89h1v1h-1z M86,89h1v1h-1z M87,89h1v1h-1z M88,89h1v1h-1z M90,89h1v1h-1z M92,89h1v1h-1z M93,89h1v1h-1z M94,89h1v1h-1z M100,89h1v1h-1z M101,89h1v1h-1z M103,89h1v1h-1z M106,89h1v1h-1z M107,89h1v1h-1z M108,89h1v1h-1z M4,90h1v1h-1z M6,90h1v1h-1z M8,90h1v1h-1z M9,90h1v1h-1z M10,90h1v1h-1z M12,90h1v1h-1z M19,90h1v1h-1z M20,90h1v1h-1z M24,90h1v1h-1z M25,90h1v1h-1z M26,90h1v1h-1z M27,90h1v1h-1z M28,90h1v1h-1z M29,90h1v1h-1z M32,90h1v1h-1z M36,90h1v1h-1z M38,90h1v1h-1z M39,90h1v1h-1z M40,90h1v1h-1z M41,90h1v1h-1z M43,90h1v1h-1z M47,90h1v1h-1z M48,90h1v1h-1z M50,90h1v1h-1z M52,90h1v1h-1z M54,90h1v1h-1z M56,90h1v1h-1z M59,90h1v1h-1z M60,90h1v1h-1z M61,90h1v1h-1z M62,90h1v1h-1z M65,90h1v1h-1z M72,90h1v1h-1z M73,90h1v1h-1z M74,90h1v1h-1z M77,90h1v1h-1z M78,90h1v1h-1z M80,90h1v1h-1z M81,90h1v1h-1z M84,90h1v1h-1z M86,90h1v1h-1z M87,90h1v1h-1z M92,90h1v1h-1z M95,90h1v1h-1z M98,90h1v1h-1z M99,90h1v1h-1z M101,90h1v1h-1z M103,90h1v1h-1z M104,90h1v1h-1z M105,90h1v1h-1z M106,90h1v1h-1z M107,90h1v1h-1z M5,91h1v1h-1z M6,91h1v1h-1z M13,91h1v1h-1z M14,91h1v1h-1z M15,91h1v1h-1z M16,91h1v1h-1z M20,91h1v1h-1z M24,91h1v1h-1z M27,91h1v1h-1z M29,91h1v1h-1z M31,91h1v1h-1z M33,91h1v1h-1z M35,91h1v1h-1z M41,91h1v1h-1z M42,91h1v1h-1z M44,91h1v1h-1z M46,91h1v1h-1z M47,91h1v1h-1z M49,91h1v1h-1z M51,91h1v1h-1z M52,91h1v1h-1z M54,91h1v1h-1z M55,91h1v1h-1z M57,91h1v1h-1z M58,91h1v1h-1z M65,91h1v1h-1z M66,91h1v1h-1z M68,91h1v1h-1z M69,91h1v1h-1z M70,91h1v1h-1z M71,91h1v1h-1z M73,91h1v1h-1z M75,91h1v1h-1z M78,91h1v1h-1z M79,91h1v1h-1z M80,91h1v1h-1z M82,91h1v1h-1z M83,91h1v1h-1z M85,91h1v1h-1z M86,91h1v1h-1z M89,91h1v1h-1z M90,91h1v1h-1z M92,91h1v1h-1z M93,91h1v1h-1z M94,91h1v1h-1z M95,91h1v1h-1z M97,91h1v1h-1z M98,91h1v1h-1z M99,91h1v1h-1z M100,91h1v1h-1z M102,91h1v1h-1z M105,91h1v1h-1z M107,91h1v1h-1z M108,91h1v1h-1z M4,92h1v1h-1z M6,92h1v1h-1z M7,92h1v1h-1z M8,92h1v1h-1z M10,92h1v1h-1z M11,92h1v1h-1z M13,92h1v1h-1z M14,92h1v1h-1z M15,92h1v1h-1z M16,92h1v1h-1z M17,92h1v1h-1z M18,92h1v1h-1z M20,92h1v1h-1z M21,92h1v1h-1z M25,92h1v1h-1z M26,92h1v1h-1z M29,92h1v1h-1z M30,92h1v1h-1z M31,92h1v1h-1z M37,92h1v1h-1z M39,92h1v1h-1z M42,92h1v1h-1z M45,92h1v1h-1z M46,92h1v1h-1z M48,92h1v1h-1z M49,92h1v1h-1z M51,92h1v1h-1z M52,92h1v1h-1z M54,92h1v1h-1z M55,92h1v1h-1z M58,92h1v1h-1z M60,92h1v1h-1z M68,92h1v1h-1z M70,92h1v1h-1z M73,92h1v1h-1z M79,92h1v1h-1z M82,92h1v1h-1z M84,92h1v1h-1z M86,92h1v1h-1z M87,92h1v1h-1z M90,92h1v1h-1z M92,92h1v1h-1z M95,92h1v1h-1z M96,92h1v1h-1z M97,92h1v1h-1z M101,92h1v1h-1z M102,92h1v1h-1z M103,92h1v1h-1z M105,92h1v1h-1z M107,92h1v1h-1z M108,92h1v1h-1z M4,93h1v1h-1z M5,93h1v1h-1z M7,93h1v1h-1z M8,93h1v1h-1z M12,93h1v1h-1z M13,93h1v1h-1z M14,93h1v1h-1z M15,93h1v1h-1z M16,93h1v1h-1z M19,93h1v1h-1z M21,93h1v1h-1z M22,93h1v1h-1z M23,93h1v1h-1z M28,93h1v1h-1z M30,93h1v1h-1z M32,93h1v1h-1z M33,93h1v1h-1z M36,93h1v1h-1z M40,93h1v1h-1z M43,93h1v1h-1z M45,93h1v1h-1z M46,93h1v1h-1z M48,93h1v1h-1z M50,93h1v1h-1z M52,93h1v1h-1z M54,93h1v1h-1z M56,93h1v1h-1z M57,93h1v1h-1z M58,93h1v1h-1z M59,93h1v1h-1z M61,93h1v1h-1z M64,93h1v1h-1z M65,93h1v1h-1z M66,93h1v1h-1z M68,93h1v1h-1z M69,93h1v1h-1z M74,93h1v1h-1z M76,93h1v1h-1z M78,93h1v1h-1z M80,93h1v1h-1z M81,93h1v1h-1z M82,93h1v1h-1z M83,93h1v1h-1z M85,93h1v1h-1z M86,93h1v1h-1z M88,93h1v1h-1z M90,93h1v1h-1z M94,93h1v1h-1z M96,93h1v1h-1z M98,93h1v1h-1z M100,93h1v1h-1z M101,93h1v1h-1z M103,93h1v1h-1z M105,93h1v1h-1z M106,93h1v1h-1z M5,94h1v1h-1z M7,94h1v1h-1z M8,94h1v1h-1z M9,94h1v1h-1z M10,94h1v1h-1z M12,94h1v1h-1z M13,94h1v1h-1z M14,94h1v1h-1z M19,94h1v1h-1z M20,94h1v1h-1z M22,94h1v1h-1z M23,94h1v1h-1z M26,94h1v1h-1z M27,94h1v1h-1z M28,94h1v1h-1z M29,94h1v1h-1z M32,94h1v1h-1z M36,94h1v1h-1z M38,94h1v1h-1z M40,94h1v1h-1z M41,94h1v1h-1z M50,94h1v1h-1z M56,94h1v1h-1z M57,94h1v1h-1z M59,94h1v1h-1z M60,94h1v1h-1z M61,94h1v1h-1z M62,94h1v1h-1z M64,94h1v1h-1z M65,94h1v1h-1z M74,94h1v1h-1z M77,94h1v1h-1z M79,94h1v1h-1z M80,94h1v1h-1z M84,94h1v1h-1z M86,94h1v1h-1z M87,94h1v1h-1z M88,94h1v1h-1z M89,94h1v1h-1z M95,94h1v1h-1z M96,94h1v1h-1z M98,94h1v1h-1z M100,94h1v1h-1z M103,94h1v1h-1z M104,94h1v1h-1z M105,94h1v1h-1z M106,94h1v1h-1z M107,94h1v1h-1z M4,95h1v1h-1z M5,95h1v1h-1z M7,95h1v1h-1z M9,95h1v1h-1z M11,95h1v1h-1z M15,95h1v1h-1z M17,95h1v1h-1z M18,95h1v1h-1z M19,95h1v1h-1z M20,95h1v1h-1z M21,95h1v1h-1z M22,95h1v1h-1z M23,95h1v1h-1z M25,95h1v1h-1z M26,95h1v1h-1z M27,95h1v1h-1z M29,95h1v1h-1z M30,95h1v1h-1z M31,95h1v1h-1z M33,95h1v1h-1z M35,95h1v1h-1z M37,95h1v1h-1z M38,95h1v1h-1z M42,95h1v1h-1z M43,95h1v1h-1z M44,95h1v1h-1z M47,95h1v1h-1z M49,95h1v1h-1z M51,95h1v1h-1z M52,95h1v1h-1z M53,95h1v1h-1z M55,95h1v1h-1z M57,95h1v1h-1z M58,95h1v1h-1z M61,95h1v1h-1z M68,95h1v1h-1z M69,95h1v1h-1z M71,95h1v1h-1z M75,95h1v1h-1z M76,95h1v1h-1z M78,95h1v1h-1z M83,95h1v1h-1z M85,95h1v1h-1z M89,95h1v1h-1z M90,95h1v1h-1z M92,95h1v1h-1z M94,95h1v1h-1z M97,95h1v1h-1z M98,95h1v1h-1z M101,95h1v1h-1z M102,95h1v1h-1z M104,95h1v1h-1z M107,95h1v1h-1z M4,96h1v1h-1z M5,96h1v1h-1z M6,96h1v1h-1z M7,96h1v1h-1z M9,96h1v1h-1z M10,96h1v1h-1z M12,96h1v1h-1z M14,96h1v1h-1z M15,96h1v1h-1z M17,96h1v1h-1z M21,96h1v1h-1z M23,96h1v1h-1z M24,96h1v1h-1z M26,96h1v1h-1z M29,96h1v1h-1z M30,96h1v1h-1z M33,96h1v1h-1z M34,96h1v1h-1z M36,96h1v1h-1z M37,96h1v1h-1z M38,96h1v1h-1z M39,96h1v1h-1z M41,96h1v1h-1z M46,96h1v1h-1z M48,96h1v1h-1z M49,96h1v1h-1z M51,96h1v1h-1z M52,96h1v1h-1z M55,96h1v1h-1z M58,96h1v1h-1z M62,96h1v1h-1z M65,96h1v1h-1z M66,96h1v1h-1z M67,96h1v1h-1z M69,96h1v1h-1z M70,96h1v1h-1z M72,96h1v1h-1z M75,96h1v1h-1z M76,96h1v1h-1z M80,96h1v1h-1z M82,96h1v1h-1z M83,96h1v1h-1z M84,96h1v1h-1z M90,96h1v1h-1z M92,96h1v1h-1z M94,96h1v1h-1z M95,96h1v1h-1z M102,96h1v1h-1z M104,96h1v1h-1z M108,96h1v1h-1z M4,97h1v1h-1z M5,97h1v1h-1z M6,97h1v1h-1z M8,97h1v1h-1z M9,97h1v1h-1z M12,97h1v1h-1z M13,97h1v1h-1z M14,97h1v1h-1z M20,97h1v1h-1z M21,97h1v1h-1z M22,97h1v1h-1z M24,97h1v1h-1z M25,97h1v1h-1z M28,97h1v1h-1z M30,97h1v1h-1z M32,97h1v1h-1z M33,97h1v1h-1z M34,97h1v1h-1z M35,97h1v1h-1z M36,97h1v1h-1z M37,97h1v1h-1z M38,97h1v1h-1z M41,97h1v1h-1z M42,97h1v1h-1z M43,97h1v1h-1z M45,97h1v1h-1z M46,97h1v1h-1z M48,97h1v1h-1z M50,97h1v1h-1z M52,97h1v1h-1z M53,97h1v1h-1z M54,97h1v1h-1z M56,97h1v1h-1z M57,97h1v1h-1z M59,97h1v1h-1z M63,97h1v1h-1z M64,97h1v1h-1z M66,97h1v1h-1z M67,97h1v1h-1z M69,97h1v1h-1z M71,97h1v1h-1z M73,97h1v1h-1z M78,97h1v1h-1z M79,97h1v1h-1z M80,97h1v1h-1z M81,97h1v1h-1z M82,97h1v1h-1z M84,97h1v1h-1z M85,97h1v1h-1z M87,97h1v1h-1z M88,97h1v1h-1z M89,97h1v1h-1z M90,97h1v1h-1z M94,97h1v1h-1z M95,97h1v1h-1z M99,97h1v1h-1z M4,98h1v1h-1z M5,98h1v1h-1z M6,98h1v1h-1z M10,98h1v1h-1z M11,98h1v1h-1z M12,98h1v1h-1z M13,98h1v1h-1z M16,98h1v1h-1z M17,98h1v1h-1z M18,98h1v1h-1z M19,98h1v1h-1z M20,98h1v1h-1z M22,98h1v1h-1z M23,98h1v1h-1z M25,98h1v1h-1z M26,98h1v1h-1z M29,98h1v1h-1z M30,98h1v1h-1z M32,98h1v1h-1z M35,98h1v1h-1z M38,98h1v1h-1z M41,98h1v1h-1z M43,98h1v1h-1z M44,98h1v1h-1z M47,98h1v1h-1z M48,98h1v1h-1z M50,98h1v1h-1z M53,98h1v1h-1z M54,98h1v1h-1z M56,98h1v1h-1z M61,98h1v1h-1z M62,98h1v1h-1z M63,98h1v1h-1z M64,98h1v1h-1z M65,98h1v1h-1z M69,98h1v1h-1z M71,98h1v1h-1z M72,98h1v1h-1z M74,98h1v1h-1z M76,98h1v1h-1z M79,98h1v1h-1z M80,98h1v1h-1z M83,98h1v1h-1z M84,98h1v1h-1z M85,98h1v1h-1z M86,98h1v1h-1z M88,98h1v1h-1z M91,98h1v1h-1z M96,98h1v1h-1z M98,98h1v1h-1z M99,98h1v1h-1z M100,98h1v1h-1z M101,98h1v1h-1z M103,98h1v1h-1z M104,98h1v1h-1z M6,99h1v1h-1z M8,99h1v1h-1z M9,99h1v1h-1z M11,99h1v1h-1z M12,99h1v1h-1z M15,99h1v1h-1z M16,99h1v1h-1z M18,99h1v1h-1z M19,99h1v1h-1z M20,99h1v1h-1z M21,99h1v1h-1z M22,99h1v1h-1z M23,99h1v1h-1z M25,99h1v1h-1z M26,99h1v1h-1z M27,99h1v1h-1z M29,99h1v1h-1z M31,99h1v1h-1z M34,99h1v1h-1z M35,99h1v1h-1z M37,99h1v1h-1z M38,99h1v1h-1z M41,99h1v1h-1z M42,99h1v1h-1z M44,99h1v1h-1z M45,99h1v1h-1z M46,99h1v1h-1z M47,99h1v1h-1z M49,99h1v1h-1z M50,99h1v1h-1z M51,99h1v1h-1z M52,99h1v1h-1z M54,99h1v1h-1z M55,99h1v1h-1z M56,99h1v1h-1z M57,99h1v1h-1z M58,99h1v1h-1z M59,99h1v1h-1z M63,99h1v1h-1z M65,99h1v1h-1z M66,99h1v1h-1z M67,99h1v1h-1z M68,99h1v1h-1z M70,99h1v1h-1z M71,99h1v1h-1z M75,99h1v1h-1z M76,99h1v1h-1z M78,99h1v1h-1z M79,99h1v1h-1z M80,99h1v1h-1z M81,99h1v1h-1z M82,99h1v1h-1z M83,99h1v1h-1z M89,99h1v1h-1z M90,99h1v1h-1z M92,99h1v1h-1z M93,99h1v1h-1z M94,99h1v1h-1z M95,99h1v1h-1z M98,99h1v1h-1z M101,99h1v1h-1z M102,99h1v1h-1z M104,99h1v1h-1z M107,99h1v1h-1z M108,99h1v1h-1z M7,100h1v1h-1z M8,100h1v1h-1z M10,100h1v1h-1z M12,100h1v1h-1z M14,100h1v1h-1z M18,100h1v1h-1z M19,100h1v1h-1z M20,100h1v1h-1z M22,100h1v1h-1z M24,100h1v1h-1z M25,100h1v1h-1z M27,100h1v1h-1z M28,100h1v1h-1z M29,100h1v1h-1z M30,100h1v1h-1z M31,100h1v1h-1z M32,100h1v1h-1z M34,100h1v1h-1z M35,100h1v1h-1z M40,100h1v1h-1z M41,100h1v1h-1z M42,100h1v1h-1z M43,100h1v1h-1z M46,100h1v1h-1z M47,100h1v1h-1z M49,100h1v1h-1z M51,100h1v1h-1z M52,100h1v1h-1z M53,100h1v1h-1z M54,100h1v1h-1z M55,100h1v1h-1z M56,100h1v1h-1z M57,100h1v1h-1z M58,100h1v1h-1z M60,100h1v1h-1z M63,100h1v1h-1z M65,100h1v1h-1z M66,100h1v1h-1z M67,100h1v1h-1z M68,100h1v1h-1z M70,100h1v1h-1z M71,100h1v1h-1z M75,100h1v1h-1z M76,100h1v1h-1z M77,100h1v1h-1z M78,100h1v1h-1z M79,100h1v1h-1z M80,100h1v1h-1z M82,100h1v1h-1z M84,100h1v1h-1z M85,100h1v1h-1z M87,100h1v1h-1z M88,100h1v1h-1z M90,100h1v1h-1z M91,100h1v1h-1z M92,100h1v1h-1z M93,100h1v1h-1z M94,100h1v1h-1z M95,100h1v1h-1z M96,100h1v1h-1z M98,100h1v1h-1z M100,100h1v1h-1z M101,100h1v1h-1z M102,100h1v1h-1z M103,100h1v1h-1z M104,100h1v1h-1z M105,100h1v1h-1z M106,100h1v1h-1z M12,101h1v1h-1z M13,101h1v1h-1z M14,101h1v1h-1z M18,101h1v1h-1z M20,101h1v1h-1z M21,101h1v1h-1z M23,101h1v1h-1z M24,101h1v1h-1z M28,101h1v1h-1z M32,101h1v1h-1z M35,101h1v1h-1z M36,101h1v1h-1z M38,101h1v1h-1z M42,101h1v1h-1z M44,101h1v1h-1z M45,101h1v1h-1z M47,101h1v1h-1z M48,101h1v1h-1z M52,101h1v1h-1z M56,101h1v1h-1z M57,101h1v1h-1z M58,101h1v1h-1z M61,101h1v1h-1z M62,101h1v1h-1z M66,101h1v1h-1z M67,101h1v1h-1z M69,101h1v1h-1z M70,101h1v1h-1z M73,101h1v1h-1z M75,101h1v1h-1z M76,101h1v1h-1z M80,101h1v1h-1z M82,101h1v1h-1z M83,101h1v1h-1z M86,101h1v1h-1z M88,101h1v1h-1z M89,101h1v1h-1z M90,101h1v1h-1z M93,101h1v1h-1z M96,101h1v1h-1z M97,101h1v1h-1z M100,101h1v1h-1z M104,101h1v1h-1z M105,101h1v1h-1z M106,101h1v1h-1z M107,101h1v1h-1z M108,101h1v1h-1z M4,102h1v1h-1z M5,102h1v1h-1z M6,102h1v1h-1z M7,102h1v1h-1z M8,102h1v1h-1z M9,102h1v1h-1z M10,102h1v1h-1z M14,102h1v1h-1z M15,102h1v1h-1z M17,102h1v1h-1z M20,102h1v1h-1z M22,102h1v1h-1z M23,102h1v1h-1z M24,102h1v1h-1z M25,102h1v1h-1z M27,102h1v1h-1z M28,102h1v1h-1z M30,102h1v1h-1z M32,102h1v1h-1z M35,102h1v1h-1z M36,102h1v1h-1z M37,102h1v1h-1z M38,102h1v1h-1z M39,102h1v1h-1z M40,102h1v1h-1z M43,102h1v1h-1z M45,102h1v1h-1z M48,102h1v1h-1z M50,102h1v1h-1z M51,102h1v1h-1z M52,102h1v1h-1z M54,102h1v1h-1z M56,102h1v1h-1z M60,102h1v1h-1z M62,102h1v1h-1z M64,102h1v1h-1z M67,102h1v1h-1z M68,102h1v1h-1z M71,102h1v1h-1z M74,102h1v1h-1z M75,102h1v1h-1z M76,102h1v1h-1z M78,102h1v1h-1z M80,102h1v1h-1z M83,102h1v1h-1z M84,102h1v1h-1z M86,102h1v1h-1z M89,102h1v1h-1z M98,102h1v1h-1z M100,102h1v1h-1z M102,102h1v1h-1z M104,102h1v1h-1z M106,102h1v1h-1z M107,102h1v1h-1z M4,103h1v1h-1z M10,103h1v1h-1z M12,103h1v1h-1z M15,103h1v1h-1z M21,103h1v1h-1z M23,103h1v1h-1z M26,103h1v1h-1z M28,103h1v1h-1z M32,103h1v1h-1z M33,103h1v1h-1z M41,103h1v1h-1z M42,103h1v1h-1z M44,103h1v1h-1z M46,103h1v1h-1z M47,103h1v1h-1z M49,103h1v1h-1z M52,103h1v1h-1z M56,103h1v1h-1z M57,103h1v1h-1z M59,103h1v1h-1z M61,103h1v1h-1z M63,103h1v1h-1z M66,103h1v1h-1z M68,103h1v1h-1z M69,103h1v1h-1z M70,103h1v1h-1z M71,103h1v1h-1z M73,103h1v1h-1z M74,103h1v1h-1z M75,103h1v1h-1z M76,103h1v1h-1z M80,103h1v1h-1z M81,103h1v1h-1z M82,103h1v1h-1z M83,103h1v1h-1z M85,103h1v1h-1z M89,103h1v1h-1z M91,103h1v1h-1z M92,103h1v1h-1z M93,103h1v1h-1z M94,103h1v1h-1z M95,103h1v1h-1z M97,103h1v1h-1z M98,103h1v1h-1z M100,103h1v1h-1z M104,103h1v1h-1z M107,103h1v1h-1z M108,103h1v1h-1z M4,104h1v1h-1z M6,104h1v1h-1z M7,104h1v1h-1z M8,104h1v1h-1z M10,104h1v1h-1z M12,104h1v1h-1z M13,104h1v1h-1z M15,104h1v1h-1z M18,104h1v1h-1z M23,104h1v1h-1z M26,104h1v1h-1z M27,104h1v1h-1z M28,104h1v1h-1z M29,104h1v1h-1z M30,104h1v1h-1z M31,104h1v1h-1z M32,104h1v1h-1z M40,104h1v1h-1z M43,104h1v1h-1z M44,104h1v1h-1z M45,104h1v1h-1z M46,104h1v1h-1z M47,104h1v1h-1z M48,104h1v1h-1z M49,104h1v1h-1z M52,104h1v1h-1z M53,104h1v1h-1z M54,104h1v1h-1z M55,104h1v1h-1z M56,104h1v1h-1z M57,104h1v1h-1z M58,104h1v1h-1z M59,104h1v1h-1z M60,104h1v1h-1z M64,104h1v1h-1z M66,104h1v1h-1z M67,104h1v1h-1z M69,104h1v1h-1z M70,104h1v1h-1z M73,104h1v1h-1z M76,104h1v1h-1z M77,104h1v1h-1z M78,104h1v1h-1z M79,104h1v1h-1z M80,104h1v1h-1z M85,104h1v1h-1z M89,104h1v1h-1z M90,104h1v1h-1z M96,104h1v1h-1z M97,104h1v1h-1z M100,104h1v1h-1z M101,104h1v1h-1z M102,104h1v1h-1z M103,104h1v1h-1z M104,104h1v1h-1z M106,104h1v1h-1z M107,104h1v1h-1z M4,105h1v1h-1z M6,105h1v1h-1z M7,105h1v1h-1z M8,105h1v1h-1z M10,105h1v1h-1z M13,105h1v1h-1z M14,105h1v1h-1z M17,105h1v1h-1z M19,105h1v1h-1z M20,105h1v1h-1z M25,105h1v1h-1z M26,105h1v1h-1z M27,105h1v1h-1z M28,105h1v1h-1z M29,105h1v1h-1z M30,105h1v1h-1z M31,105h1v1h-1z M34,105h1v1h-1z M35,105h1v1h-1z M36,105h1v1h-1z M37,105h1v1h-1z M39,105h1v1h-1z M43,105h1v1h-1z M45,105h1v1h-1z M46,105h1v1h-1z M49,105h1v1h-1z M52,105h1v1h-1z M53,105h1v1h-1z M54,105h1v1h-1z M55,105h1v1h-1z M58,105h1v1h-1z M59,105h1v1h-1z M61,105h1v1h-1z M62,105h1v1h-1z M63,105h1v1h-1z M64,105h1v1h-1z M65,105h1v1h-1z M67,105h1v1h-1z M69,105h1v1h-1z M71,105h1v1h-1z M74,105h1v1h-1z M77,105h1v1h-1z M79,105h1v1h-1z M82,105h1v1h-1z M88,105h1v1h-1z M92,105h1v1h-1z M93,105h1v1h-1z M95,105h1v1h-1z M96,105h1v1h-1z M98,105h1v1h-1z M99,105h1v1h-1z M101,105h1v1h-1z M102,105h1v1h-1z M103,105h1v1h-1z M105,105h1v1h-1z M107,105h1v1h-1z M108,105h1v1h-1z M4,106h1v1h-1z M6,106h1v1h-1z M7,106h1v1h-1z M8,106h1v1h-1z M10,106h1v1h-1z M14,106h1v1h-1z M15,106h1v1h-1z M17,106h1v1h-1z M18,106h1v1h-1z M19,106h1v1h-1z M22,106h1v1h-1z M25,106h1v1h-1z M28,106h1v1h-1z M31,106h1v1h-1z M38,106h1v1h-1z M39,106h1v1h-1z M41,106h1v1h-1z M48,106h1v1h-1z M50,106h1v1h-1z M51,106h1v1h-1z M52,106h1v1h-1z M53,106h1v1h-1z M55,106h1v1h-1z M60,106h1v1h-1z M62,106h1v1h-1z M65,106h1v1h-1z M67,106h1v1h-1z M68,106h1v1h-1z M72,106h1v1h-1z M74,106h1v1h-1z M75,106h1v1h-1z M76,106h1v1h-1z M77,106h1v1h-1z M86,106h1v1h-1z M98,106h1v1h-1z M99,106h1v1h-1z M102,106h1v1h-1z M104,106h1v1h-1z M106,106h1v1h-1z M4,107h1v1h-1z M10,107h1v1h-1z M12,107h1v1h-1z M13,107h1v1h-1z M14,107h1v1h-1z M15,107h1v1h-1z M17,107h1v1h-1z M20,107h1v1h-1z M21,107h1v1h-1z M23,107h1v1h-1z M24,107h1v1h-1z M25,107h1v1h-1z M27,107h1v1h-1z M29,107h1v1h-1z M30,107h1v1h-1z M32,107h1v1h-1z M35,107h1v1h-1z M37,107h1v1h-1z M41,107h1v1h-1z M44,107h1v1h-1z M45,107h1v1h-1z M46,107h1v1h-1z M47,107h1v1h-1z M50,107h1v1h-1z M56,107h1v1h-1z M57,107h1v1h-1z M58,107h1v1h-1z M59,107h1v1h-1z M62,107h1v1h-1z M66,107h1v1h-1z M68,107h1v1h-1z M69,107h1v1h-1z M73,107h1v1h-1z M75,107h1v1h-1z M78,107h1v1h-1z M80,107h1v1h-1z M83,107h1v1h-1z M86,107h1v1h-1z M89,107h1v1h-1z M90,107h1v1h-1z M92,107h1v1h-1z M95,107h1v1h-1z M100,107h1v1h-1z M101,107h1v1h-1z M4,108h1v1h-1z M5,108h1v1h-1z M6,108h1v1h-1z M7,108h1v1h-1z M8,108h1v1h-1z M9,108h1v1h-1z M10,108h1v1h-1z M12,108h1v1h-1z M13,108h1v1h-1z M18,108h1v1h-1z M19,108h1v1h-1z M23,108h1v1h-1z M26,108h1v1h-1z M28,108h1v1h-1z M29,108h1v1h-1z M30,108h1v1h-1z M31,108h1v1h-1z M34,108h1v1h-1z M35,108h1v1h-1z M37,108h1v1h-1z M39,108h1v1h-1z M40,108h1v1h-1z M41,108h1v1h-1z M42,108h1v1h-1z M43,108h1v1h-1z M44,108h1v1h-1z M45,108h1v1h-1z M46,108h1v1h-1z M49,108h1v1h-1z M50,108h1v1h-1z M52,108h1v1h-1z M53,108h1v1h-1z M54,108h1v1h-1z M57,108h1v1h-1z M59,108h1v1h-1z M60,108h1v1h-1z M61,108h1v1h-1z M64,108h1v1h-1z M66,108h1v1h-1z M68,108h1v1h-1z M70,108h1v1h-1z M73,108h1v1h-1z M75,108h1v1h-1z M76,108h1v1h-1z M78,108h1v1h-1z M79,108h1v1h-1z M80,108h1v1h-1z M82,108h1v1h-1z M86,108h1v1h-1z M88,108h1v1h-1z M89,108h1v1h-1z M94,108h1v1h-1z M96,108h1v1h-1z M99,108h1v1h-1z M101,108h1v1h-1z M102,108h1v1h-1z M105,108h1v1h-1z M106,108h1v1h-1z M108,108h1v1h-1z" fill="#000000"/>
</svg>
