<?xml version="1.0" encoding="UTF-8"?>
<!DOCTYPE svg PUBLIC "-//W3C//DTD SVG 1.1//EN" "http://www.w3.org/Graphics/SVG/1.1/DTD/svg11.dtd">
<svg xmlns="http://www.w3.org/2000/svg" version="1.1" viewBox="0 0 113 113" stroke="none">
	<rect width="100%" height="100%" fill="#FFFFFF"/>
	<path d="M4,4h1v1h-1z M5,4h1v1h-1z M6,4h1v1h-1z M7,4h1v1h-1z M8,4h1v1h-1z M9,4h1v1h-1z M10,4h1v1h-1z M12,4h1v1h-1z M15,4h1v1h-1z M21,4h1v1h-1z M24,4h1v1h-1z M25,4h1v1h-1z M28,4h1v1h-1z M32,4h1v1h-1z M33,4h1v1h-1z M34,4h1v1h-1z M35,4h1v1h-1z M38,4h1v1h-1z M42,4h1v1h-1z M44,4h1v1h-1z M46,4h1v1h-1z M48,4h1v1h-1z M49,4h1v1h-1z M53,4h1v1h-1z M57,4h1v1h-1z M59,4h1v1h-1z M60,4h1v1h-1z M62,4h1v1h-1z M63,4h1v1h-1z M64,4h1v1h-1z M65,4h1v1h-1z M66,4h1v1h-1z M67,4h1v1h-1z M70,4h1v1h-1z M71,4h1v1h-1z M72,4h1v1h-1z M73,4h1v1h-1z M74,4h1v1h-1z M76,4h1v1h-1z M77,4h1v1h-1z M78,4h1v1h-1z M79,4h1v1h-1z M80,4h1v1h-1z M81,4h1v1h-1z M83,4h1v1h-1z M84,4h1v1h-1z M87,4h1v1h-1z M88,4h1v1h-1z M89,4h1v1h-1z M90,4h1v1h-1z M94,4h1v1h-1z M96,4h1v1h-1z M98,4h1v1h-1z M102,4h1v1h-1z M103,4h1v1h-1z M104,4h1v1h-1z M105,4h1v1h-1z M106,4h1v1h-1z M107,4h1v1h-1z M108,4h1v1h-1z M4,5h1v1h-1z M10,5h1v1h-1z M12,5h1v1h-1z M15,5h1v1h-1z M16,5h1v1h-1z M17,5h1v1h-1z M20,5h1v1h-1z M22,5h1v1h-1z M23,5h1v1h-1z M28,5h1v1h-1z M30,5h1v1h-1z M32,5h1v1h-1z M34,5h1v1h-1z M37,5h1v1h-1z M40,5h1v1h-1z M42,5h1v1h-1z M44,5h1v1h-1z M45,5h1v1h-1z M46,5h1v1h-1z M47,5h1v1h-1z M48,5h1v1h-1z M51,5h1v1h-1z M54,5h1v1h-1z M55,5h1v1h-1z M56,5h1v1h-1z M58,5h1v1h-1z M61,5h1v1h-1z M64,5h1v1h-1z M66,5h1v1h-1z M67,5h1v1h-1z M68,5h1v1h-1z M69,5h1v1h-1z M70,5h1v1h-1z M73,5h1v1h-1z M78,5h1v1h-1z M79,5h1v1h-1z M80,5h1v1h-1z M81,5h1v1h-1z M82,5h1v1h-1z M85,5h1v1h-1z M90,5h1v1h-1z M91,5h1v1h-1z M92,5h1v1h-1z M93,5h1v1h-1z M94,5h1v1h-1z M98,5h1v1h-1z M102,5h1v1h-1z M108,5h1v1h-1z M4,6h1v1h-1z M6,6h1v1h-1z M7,6h1v1h-1z M8,6h1v1h-1z M10,6h1v1h-1z M12,6h1v1h-1z M13,6h1v1h-1z M15,6h1v1h-1z M19,6h1v1h-1z M20,6h1v1h-1z M22,6h1v1h-1z M23,6h1v1h-1z M24,6h1v1h-1z M25,6h1v1h-1z M26,6h1v1h-1z M32,6h1v1h-1z M34,6h1v1h-1z M37,6h1v1h-1z M38,6h1v1h-1z M41,6h1v1h-1z M44,6h1v1h-1z M45,6h1v1h-1z M46,6h1v1h-1z M47,6h1v1h-1z M54,6h1v1h-1z M55,6h1v1h-1z M56,6h1v1h-1z M57,6h1v1h-1z M58,6h1v1h-1z M62,6h1v1h-1z M67,6h1v1h-1z M68,6h1v1h-1z M69,6h1v1h-1z M70,6h1v1h-1z M77,6h1v1h-1z M80,6h1v1h-1z M81,6h1v1h-1z M83,6h1v1h-1z M87,6h1v1h-1z M92,6h1v1h-1z M93,6h1v1h-1z M95,6h1v1h-1z M98,6h1v1h-1z M99,6h1v1h-1z M102,6h1v1h-1z M104,6h1v1h-1z M105,6h1v1h-1z M106,6h1v1h-1z M108,6h1v1h-1z M4,7h1v1h-1z M6,7h1v1h-1z M7,7h1v1h-1z M8,7h1v1h-1z M10,7h1v1h-1z M12,7h1v1h-1z M13,7h1v1h-1z M14,7h1v1h-1z M17,7h1v1h-1z M19,7h1v1h-1z M20,7h1v1h-1z M22,7h1v1h-1z M23,7h1v1h-1z M24,7h1v1h-1z M26,7h1v1h-1z M28,7h1v1h-1z M29,7h1v1h-1z M31,7h1v1h-1z M33,7h1v1h-1z M36,7h1v1h-1z M38,7h1v1h-1z M39,7h1v1h-1z M43,7h1v1h-1z M44,7h1v1h-1z M47,7h1v1h-1z M48,7h1v1h-1z M49,7h1v1h-1z M50,7h1v1h-1z M51,7h1v1h-1z M54,7h1v1h-1z M55,7h1v1h-1z M59,7h1v1h-1z M60,7h1v1h-1z M63,7h1v1h-1z M64,7h1v1h-1z M65,7h1v1h-1z M68,7h1v1h-1z M71,7h1v1h-1z M74,7h1v1h-1z M75,7h1v1h-1z M79,7h1v1h-1z M81,7h1v1h-1z M84,7h1v1h-1z M85,7h1v1h-1z M87,7h1v1h-1z M90,7h1v1h-1z M91,7h1v1h-1z M92,7h1v1h-1z M93,7h1v1h-1z M100,7h1v1h-1z M102,7h1v1h-1z M104,7h1v1h-1z M105,7h1v1h-1z M106,7h1v1h-1z M108,7h1v1h-1z M4,8h1v1h-1z M6,8h1v1h-1z M7,8h1v1h-1z M8,8h1v1h-1z M10,8h1v1h-1z M14,8h1v1h-1z M17,8h1v1h-1z M19,8h1v1h-1z M20,8h1v1h-1z M22,8h1v1h-1z M24,8h1v1h-1z M25,8h1v1h-1z M28,8h1v1h-1z M29,8h1v1h-1z M30,8h1v1h-1z M31,8h1v1h-1z M32,8h1v1h-1z M33,8h1v1h-1z M35,8h1v1h-1z M36,8h1v1h-1z M40,8h1v1h-1z M41,8h1v1h-1z M43,8h1v1h-1z M46,8h1v1h-1z M48,8h1v1h-1z M50,8h1v1h-1z M51,8h1v1h-1z M52,8h1v1h-1z M53,8h1v1h-1z M54,8h1v1h-1z M55,8h1v1h-1z M56,8h1v1h-1z M58,8h1v1h-1z M59,8h1v1h-1z M64,8h1v1h-1z M69,8h1v1h-1z M71,8h1v1h-1z M72,8h1v1h-1z M74,8h1v1h-1z M76,8h1v1h-1z M77,8h1v1h-1z M78,8h1v1h-1z M79,8h1v1h-1z M80,8h1v1h-1z M81,8h1v1h-1z M82,8h1v1h-1z M83,8h1v1h-1z M84,8h1v1h-1z M85,8h1v1h-1z M86,8h1v1h-1z M90,8h1v1h-1z M91,8h1v1h-1z M94,8h1v1h-1z M96,8h1v1h-1z M99,8h1v1h-1z M100,8h1v1h-1z M102,8h1v1h-1z M104,8h1v1h-1z M105,8h1v1h-1z M106,8h1v1h-1z M108,8h1v1h-1z M4,9h1v1h-1z M10,9h1v1h-1z M12,9h1v1h-1z M17,9h1v1h-1z M19,9h1v1h-1z M20,9h1v1h-1z M21,9h1v1h-1z M24,9h1v1h-1z M25,9h1v1h-1z M28,9h1v1h-1z M32,9h1v1h-1z M33,9h1v1h-1z M34,9h1v1h-1z M36,9h1v1h-1z M37,9h1v1h-1z M40,9h1v1h-1z M42,9h1v1h-1z M44,9h1v1h-1z M45,9h1v1h-1z M46,9h1v1h-1z M52,9h1v1h-1z M56,9h1v1h-1z M57,9h1v1h-1z M58,9h1v1h-1z M61,9h1v1h-1z M66,9h1v1h-1z M67,9h1v1h-1z M68,9h1v1h-1z M69,9h1v1h-1z M70,9h1v1h-1z M72,9h1v1h-1z M73,9h1v1h-1z M75,9h1v1h-1z M76,9h1v1h-1z M80,9h1v1h-1z M81,9h1v1h-1z M82,9h1v1h-1z M85,9h1v1h-1z M90,9h1v1h-1z M92,9h1v1h-1z M93,9h1v1h-1z M94,9h1v1h-1z M95,9h1v1h-1z M96,9h1v1h-1z M97,9h1v1h-1z M99,9h1v1h-1z M102,9h1v1h-1z M108,9h1v1h-1z M4,10h1v1h-1z M5,10h1v1h-1z M6,10h1v1h-1z M7,10h1v1h-1z M8,10h1v1h-1z M9,10h1v1h-1z M10,10h1v1h-1z M12,10h1v1h-1z M14,10h1v1h-1z M16,10h1v1h-1z M18,10h1v1h-1z M20,10h1v1h-1z M22,10h1v1h-1z M24,10h1v1h-1z M26,10h1v1h-1z M28,10h1v1h-1z M30,10h1v1h-1z M32,10h1v1h-1z M34,10h1v1h-1z M36,10h1v1h-1z M38,10h1v1h-1z M40,10h1v1h-1z M42,10h1v1h-1z M44,10h1v1h-1z M46,10h1v1h-1z M48,10h1v1h-1z M50,10h1v1h-1z M52,10h1v1h-1z M54,10h1v1h-1z M56,10h1v1h-1z M58,10h1v1h-1z M60,10h1v1h-1z M62,10h1v1h-1z M64,10h1v1h-1z M66,10h1v1h-1z M68,10h1v1h-1z M70,10h1v1h-1z M72,10h1v1h-1z M74,10h1v1h-1z M76,10h1v1h-1z M78,10h1v1h-1z M80,10h1v1h-1z M82,10h1v1h-1z M84,10h1v1h-1z M86,10h1v1h-1z M88,10h1v1h-1z M90,10h1v1h-1z M92,10h1v1h-1z M94,10h1v1h-1z M96,10h1v1h-1z M98,10h1v1h-1z M100,10h1v1h-1z M102,10h1v1h-1z M103,10h1v1h-1z M104,10h1v1h-1z M105,10h1v1h-1z M106,10h1v1h-1z M107,10h1v1h-1z M108,10h1v1h-1z M13,11h1v1h-1z M14,11h1v1h-1z M16,11h1v1h-1z M21,11h1v1h-1z M22,11h1v1h-1z M23,11h1v1h-1z M25,11h1v1h-1z M27,11h1v1h-1z M28,11h1v1h-1z M32,11h1v1h-1z M33,11h1v1h-1z M34,11h1v1h-1z M35,11h1v1h-1z M37,11h1v1h-1z M41,11h1v1h-1z M42,11h1v1h-1z M44,11h1v1h-1z M45,11h1v1h-1z M47,11h1v1h-1z M51,11h1v1h-1z M52,11h1v1h-1z M56,11h1v1h-1z M57,11h1v1h-1z M58,11h1v1h-1z M65,11h1v1h-1z M67,11h1v1h-1z M68,11h1v1h-1z M69,11h1v1h-1z M70,11h1v1h-1z M71,11h1v1h-1z M74,11h1v1h-1z M75,11h1v1h-1z M76,11h1v1h-1z M80,11h1v1h-1z M81,11h1v1h-1z M82,11h1v1h-1z M87,11h1v1h-1z M90,11h1v1h-1z M92,11h1v1h-1z M94,11h1v1h-1z M95,11h1v1h-1z M100,11h1v1h-1z M4,12h1v1h-1z M5,12h1v1h-1z M8,12h1v1h-1z M9,12h1v1h-1z M10,12h1v1h-1z M14,12h1v1h-1z M15,12h1v1h-1z M16,12h1v1h-1z M18,12h1v1h-1z M20,12h1v1h-1z M22,12h1v1h-1z M23,12h1v1h-1z M24,12h1v1h-1z M25,12h1v1h-1z M26,12h1v1h-1z M28,12h1v1h-1z M29,12h1v1h-1z M30,12h1v1h-1z M31,12h1v1h-1z M32,12h1v1h-1z M34,12h1v1h-1z M35,12h1v1h-1z M36,12h1v1h-1z M38,12h1v1h-1z M40,12h1v1h-1z M41,12h1v1h-1z M43,12h1v1h-1z M44,12h1v1h-1z M46,12h1v1h-1z M48,12h1v1h-1z M50,12h1v1h-1z M52,12h1v1h-1z M53,12h1v1h-1z M54,12h1v1h-1z M55,12h1v1h-1z M56,12h1v1h-1z M58,12h1v1h-1z M64,12h1v1h-1z M66,12h1v1h-1z M67,12h1v1h-1z M68,12h1v1h-1z M69,12h1v1h-1z M70,12h1v1h-1z M73,12h1v1h-1z M74,12h1v1h-1z M76,12h1v1h-1z M77,12h1v1h-1z M78,12h1v1h-1z M79,12h1v1h-1z M80,12h1v1h-1z M81,12h1v1h-1z M82,12h1v1h-1z M83,12h1v1h-1z M84,12h1v1h-1z M86,12h1v1h-1z M88,12h1v1h-1z M89,12h1v1h-1z M90,12h1v1h-1z M92,12h1v1h-1z M93,12h1v1h-1z M94,12h1v1h-1z M98,12h1v1h-1z M99,12h1v1h-1z M100,12h1v1h-1z M103,12h1v1h-1z M105,12h1v1h-1z M106,12h1v1h-1z M107,12h1v1h-1z M108,12h1v1h-1z M4,13h1v1h-1z M6,13h1v1h-1z M9,13h1v1h-1z M11,13h1v1h-1z M12,13h1v1h-1z M13,13h1v1h-1z M18,13h1v1h-1z M19,13h1v1h-1z M21,13h1v1h-1z M22,13h1v1h-1z M23,13h1v1h-1z M24,13h1v1h-1z M27,13h1v1h-1z M28,13h1v1h-1z M29,13h1v1h-1z M30,13h1v1h-1z M31,13h1v1h-1z M36,13h1v1h-1z M41,13h1v1h-1z M42,13h1v1h-1z M45,13h1v1h-1z M47,13h1v1h-1z M48,13h1v1h-1z M50,13h1v1h-1z M51,13h1v1h-1z M52,13h1v1h-1z M53,13h1v1h-1z M54,13h1v1h-1z M65,13h1v1h-1z M67,13h1v1h-1z M69,13h1v1h-1z M74,13h1v1h-1z M75,13h1v1h-1z M76,13h1v1h-1z M79,13h1v1h-1z M81,13h1v1h-1z M83,13h1v1h-1z M84,13h1v1h-1z M87,13h1v1h-1z M88,13h1v1h-1z M89,13h1v1h-1z M90,13h1v1h-1z M94,13h1v1h-1z M95,13h1v1h-1z M96,13h1v1h-1z M97,13h1v1h-1z M99,13h1v1h-1z M103,13h1v1h-1z M104,13h1v1h-1z M106,13h1v1h-1z M107,13h1v1h-1z M10,14h1v1h-1z M11,14h1v1h-1z M12,14h1v1h-1z M13,14h1v1h-1z M14,14h1v1h-1z M15,14h1v1h-1z M17,14h1v1h-1z M26,14h1v1h-1z M27,14h1v1h-1z M29,14h1v1h-1z M33,14h1v1h-1z M38,14h1v1h-1z M40,14h1v1h-1z M43,14h1v1h-1z M44,14h1v1h-1z M48,14h1v1h-1z M49,14h1v1h-1z M50,14h1v1h-1z M53,14h1v1h-1z M55,14h1v1h-1z M57,14h1v1h-1z M59,14h1v1h-1z M60,14h1v1h-1z M61,14h1v1h-1z M62,14h1v1h-1z M63,14h1v1h-1z M64,14h1v1h-1z M65,14h1v1h-1z M67,14h1v1h-1z M74,14h1v1h-1z M75,14h1v1h-1z M77,14h1v1h-1z M79,14h1v1h-1z M80,14h1v1h-1z M83,14h1v1h-1z M86,14h1v1h-1z M88,14h1v1h-1z M95,14h1v1h-1z M96,14h1v1h-1z M98,14h1v1h-1z M100,14h1v1h-1z M101,14h1v1h-1z M102,14h1v1h-1z M104,14h1v1h-1z M105,14h1v1h-1z M107,14h1v1h-1z M5,15h1v1h-1z M8,15h1v1h-1z M12,15h1v1h-1z M13,15h1v1h-1z M17,15h1v1h-1z M20,15h1v1h-1z M22,15h1v1h-1z M24,15h1v1h-1z M25,15h1v1h-1z M26,15h1v1h-1z M29,15h1v1h-1z M31,15h1v1h-1z M32,15h1v1h-1z M33,15h1v1h-1z M34,15h1v1h-1z M35,15h1v1h-1z M39,15h1v1h-1z M41,15h1v1h-1z M42,15h1v1h-1z M44,15h1v1h-1z M45,15h1v1h-1z M46,15h1v1h-1z M47,15h1v1h-1z M51,15h1v1h-1z M52,15h1v1h-1z M55,15h1v1h-1z M56,15h1v1h-1z M58,15h1v1h-1z M59,15h1v1h-1z M63,15h1v1h-1z M65,15h1v1h-1z M68,15h1v1h-1z M69,15h1v1h-1z M70,15h1v1h-1z M71,15h1v1h-1z M77,15h1v1h-1z M80,15h1v1h-1z M81,15h1v1h-1z M82,15h1v1h-1z M83,15h1v1h-1z M85,15h1v1h-1z M87,15h1v1h-1z M89,15h1v1h-1z M90,15h1v1h-1z M91,15h1v1h-1z M92,15h1v1h-1z M93,15h1v1h-1z M94,15h1v1h-1z M95,15h1v1h-1z M97,15h1v1h-1z M98,15h1v1h-1z M99,15h1v1h-1z M100,15h1v1h-1z M101,15h1v1h-1z M103,15h1v1h-1z M104,15h1v1h-1z M105,15h1v1h-1z M108,15h1v1h-1z M5,16h1v1h-1z M6,16h1v1h-1z M9,16h1v1h-1z M10,16h1v1h-1z M12,16h1v1h-1z M15,16h1v1h-1z M17,16h1v1h-1z M18,16h1v1h-1z M19,16h1v1h-1z M20,16h1v1h-1z M21,16h1v1h-1z M24,16h1v1h-1z M25,16h1v1h-1z M27,16h1v1h-1z M31,16h1v1h-1z M32,16h1v1h-1z M39,16h1v1h-1z M40,16h1v1h-1z M41,16h1v1h-1z M43,16h1v1h-1z M44,16h1v1h-1z M45,16h1v1h-1z M46,16h1v1h-1z M47,16h1v1h-1z M48,16h1v1h-1z M49,16h1v1h-1z M55,16h1v1h-1z M56,16h1v1h-1z M57,16h1v1h-1z M58,16h1v1h-1z M59,16h1v1h-1z M60,16h1v1h-1z M64,16h1v1h-1z M65,16h1v1h-1z M67,16h1v1h-1z M69,16h1v1h-1z M70,16h1v1h-1z M71,16h1v1h-1z M72,16h1v1h-1z M74,16h1v1h-1z M75,16h1v1h-1z M79,16h1v1h-1z M83,16h1v1h-1z M85,16h1v1h-1z M86,16h1v1h-1z M88,16h1v1h-1z M89,16h1v1h-1z M90,16h1v1h-1z M92,16h1v1h-1z M94,16h1v1h-1z M97,16h1v1h-1z M99,16h1v1h-1z M100,16h1v1h-1z M102,16h1v1h-1z M103,16h1v1h-1z M105,16h1v1h-1z M107,16h1v1h-1z M108,16h1v1h-1z M6,17h1v1h-1z M7,17h1v1h-1z M8,17h1v1h-1z M11,17h1v1h-1z M14,17h1v1h-1z M16,17h1v1h-1z M17,17h1v1h-1z M18,17h1v1h-1z M19,17h1v1h-1z M20,17h1v1h-1z M21,17h1v1h-1z M22,17h1v1h-1z M23,17h1v1h-1z M24,17h1v1h-1z M26,17h1v1h-1z M27,17h1v1h-1z M28,17h1v1h-1z M30,17h1v1h-1z M31,17h1v1h-1z M33,17h1v1h-1z M34,17h1v1h-1z M36,17h1v1h-1z M37,17h1v1h-1z M40,17h1v1h-1z M41,17h1v1h-1z M42,17h1v1h-1z M48,17h1v1h-1z M51,17h1v1h-1z M52,17h1v1h-1z M53,17h1v1h-1z M56,17h1v1h-1z M58,17h1v1h-1z M59,17h1v1h-1z M61,17h1v1h-1z M62,17h1v1h-1z M63,17h1v1h-1z M64,17h1v1h-1z M68,17h1v1h-1z M70,17h1v1h-1z M71,17h1v1h-1z M74,17h1v1h-1z M75,17h1v1h-1z M76,17h1v1h-1z M77,17h1v1h-1z M80,17h1v1h-1z M81,17h1v1h-1z M82,17h1v1h-1z M84,17h1v1h-1z M85,17h1v1h-1z M86,17h1v1h-1z M88,17h1v1h-1z M90,17h1v1h-1z M91,17h1v1h-1z M93,17h1v1h-1z M94,17h1v1h-1z M96,17h1v1h-1z M97,17h1v1h-1z M98,17h1v1h-1z M99,17h1v1h-1z M100,17h1v1h-1z M101,17h1v1h-1z M104,17h1v1h-1z M105,17h1v1h-1z M106,17h1v1h-1z M107,17h1v1h-1z M108,17h1v1h-1z M4,18h1v1h-1z M5,18h1v1h-1z M6,18h1v1h-1z M8,18h1v1h-1z M10,18h1v1h-1z M11,18h1v1h-1z M14,18h1v1h-1z M17,18h1v1h-1z M18,18h1v1h-1z M19,18h1v1h-1z M20,18h1v1h-1z M22,18h1v1h-1z M23,18h1v1h-1z M26,18h1v1h-1z M27,18h1v1h-1z M31,18h1v1h-1z M35,18h1v1h-1z M36,18h1v1h-1z M38,18h1v1h-1z M40,18h1v1h-1z M41,18h1v1h-1z M43,18h1v1h-1z M44,18h1v1h-1z M50,18h1v1h-1z M53,18h1v1h-1z M60,18h1v1h-1z M62,18h1v1h-1z M63,18h1v1h-1z M65,18h1v1h-1z M68,18h1v1h-1z M69,18h1v1h-1z M71,18h1v1h-1z M72,18h1v1h-1z M73,18h1v1h-1z M74,18h1v1h-1z M77,18h1v1h-1z M79,18h1v1h-1z M83,18h1v1h-1z M86,18h1v1h-1z M87,18h1v1h-1z M88,18h1v1h-1z M89,18h1v1h-1z M92,18h1v1h-1z M95,18h1v1h-1z M96,18h1v1h-1z M98,18h1v1h-1z M99,18h1v1h-1z M100,18h1v1h-1z M104,18h1v1h-1z M107,18h1v1h-1z M4,19h1v1h-1z M6,19h1v1h-1z M7,19h1v1h-1z M14,19h1v1h-1z M15,19h1v1h-1z M21,19h1v1h-1z M22,19h1v1h-1z M23,19h1v1h-1z M25,19h1v1h-1z M27,19h1v1h-1z M30,19h1v1h-1z M32,19h1v1h-1z M34,19h1v1h-1z M35,19h1v1h-1z M37,19h1v1h-1z M38,19h1v1h-1z M39,19h1v1h-1z M41,19h1v1h-1z M44,19h1v1h-1z M45,19h1v1h-1z M46,19h1v1h-1z M47,19h1v1h-1z M54,19h1v1h-1z M55,19h1v1h-1z M56,19h1v1h-1z M58,19h1v1h-1z M59,19h1v1h-1z M62,19h1v1h-1z M68,19h1v1h-1z M70,19h1v1h-1z M71,19h1v1h-1z M73,19h1v1h-1z M75,19h1v1h-1z M78,19h1v1h-1z M80,19h1v1h-1z M81,19h1v1h-1z M83,19h1v1h-1z M92,19h1v1h-1z M94,19h1v1h-1z M95,19h1v1h-1z M97,19h1v1h-1z M101,19h1v1h-1z M103,19h1v1h-1z M104,19h1v1h-1z M105,19h1v1h-1z M107,19h1v1h-1z M4,20h1v1h-1z M5,20h1v1h-1z M7,20h1v1h-1z M8,20h1v1h-1z M10,20h1v1h-1z M14,20h1v1h-1z M16,20h1v1h-1z M18,20h1v1h-1z M19,20h1v1h-1z M21,20h1v1h-1z M22,20h1v1h-1z M26,20h1v1h-1z M27,20h1v1h-1z M29,20h1v1h-1z M31,20h1v1h-1z M34,20h1v1h-1z M35,20h1v1h-1z M38,20h1v1h-1z M40,20h1v1h-1z M41,20h1v1h-1z M42,20h1v1h-1z M43,20h1v1h-1z M45,20h1v1h-1z M46,20h1v1h-1z M50,20h1v1h-1z M51,20h1v1h-1z M53,20h1v1h-1z M54,20h1v1h-1z M56,20h1v1h-1z M58,20h1v1h-1z M60,20h1v1h-1z M62,20h1v1h-1z M64,20h1v1h-1z M66,20h1v1h-1z M70,20h1v1h-1z M72,20h1v1h-1z M74,20h1v1h-1z M75,20h1v1h-1z M77,20h1v1h-1z M78,20h1v1h-1z M80,20h1v1h-1z M82,20h1v1h-1z M83,20h1v1h-1z M88,20h1v1h-1z M90,20h1v1h-1z M92,20h1v1h-1z M94,20h1v1h-1z M95,20h1v1h-1z M96,20h1v1h-1z M97,20h1v1h-1z M99,20h1v1h-1z M100,20h1v1h-1z M101,20h1v1h-1z M103,20h1v1h-1z M105,20h1v1h-1z M107,20h1v1h-1z M108,20h1v1h-1z M6,21h1v1h-1z M7,21h1v1h-1z M11,21h1v1h-1z M12,21h1v1h-1z M16,21h1v1h-1z M17,21h1v1h-1z M18,21h1v1h-1z M19,21h1v1h-1z M24,21h1v1h-1z M27,21h1v1h-1z M28,21h1v1h-1z M29,21h1v1h-1z M30,21h1v1h-1z M31,21h1v1h-1z M36,21h1v1h-1z M39,21h1v1h-1z M40,21h1v1h-1z M41,21h1v1h-1z M42,21h1v1h-1z M45,21h1v1h-1z M47,21h1v1h-1z M48,21h1v1h-1z M49,21h1v1h-1z M52,21h1v1h-1z M54,21h1v1h-1z M55,21h1v1h-1z M56,21h1v1h-1z M59,21h1v1h-1z M61,21h1v1h-1z M64,21h1v1h-1z M68,21h1v1h-1z M69,21h1v1h-1z M70,21h1v1h-1z M71,21h1v1h-1z M72,21h1v1h-1z M73,21h1v1h-1z M75,21h1v1h-1z M76,21h1v1h-1z M78,21h1v1h-1z M79,21h1v1h-1z M81,21h1v1h-1z M85,21h1v1h-1z M86,21h1v1h-1z M87,21h1v1h-1z M88,21h1v1h-1z M89,21h1v1h-1z M90,21h1v1h-1z M91,21h1v1h-1z M96,21h1v1h-1z M98,21h1v1h-1z M100,21h1v1h-1z M101,21h1v1h-1z M105,21h1v1h-1z M106,21h1v1h-1z M107,21h1v1h-1z M108,21h1v1h-1z M5,22h1v1h-1z M6,22h1v1h-1z M8,22h1v1h-1z M10,22h1v1h-1z M11,22h1v1h-1z M14,22h1v1h-1z M15,22h1v1h-1z M17,22h1v1h-1z M18,22h1v1h-1z M19,22h1v1h-1z M20,22h1v1h-1z M26,22h1v1h-1z M27,22h1v1h-1z M28,22h1v1h-1z M29,22h1v1h-1z M31,22h1v1h-1z M36,22h1v1h-1z M38,22h1v1h-1z M39,22h1v1h-1z M40,22h1v1h-1z M41,22h1v1h-1z M44,22h1v1h-1z M47,22h1v1h-1z M48,22h1v1h-1z M50,22h1v1h-1z M51,22h1v1h-1z M52,22h1v1h-1z M53,22h1v1h-1z M59,22h1v1h-1z M60,22h1v1h-1z M61,22h1v1h-1z M62,22h1v1h-1z M63,22h1v1h-1z M65,22h1v1h-1z M67,22h1v1h-1z M68,22h1v1h-1z M74,22h1v1h-1z M77,22h1v1h-1z M83,22h1v1h-1z M84,22h1v1h-1z M85,22h1v1h-1z M86,22h1v1h-1z M95,22h1v1h-1z M96,22h1v1h-1z M98,22h1v1h-1z M99,22h1v1h-1z M100,22h1v1h-1z M104,22h1v1h-1z M105,22h1v1h-1z M106,22h1v1h-1z M107,22h1v1h-1z M9,23h1v1h-1z M11,23h1v1h-1z M14,23h1v1h-1z M15,23h1v1h-1z M16,23h1v1h-1z M17,23h1v1h-1z M18,23h1v1h-1z M19,23h1v1h-1z M22,23h1v1h-1z M23,23h1v1h-1z M24,23h1v1h-1z M26,23h1v1h-1z M29,23h1v1h-1z M30,23h1v1h-1z M32,23h1v1h-1z M35,23h1v1h-1z M38,23h1v1h-1z M42,23h1v1h-1z M44,23h1v1h-1z M45,23h1v1h-1z M51,23h1v1h-1z M52,23h1v1h-1z M55,23h1v1h-1z M56,23h1v1h-1z M58,23h1v1h-1z M61,23h1v1h-1z M66,23h1v1h-1z M68,23h1v1h-1z M69,23h1v1h-1z M71,23h1v1h-1z M73,23h1v1h-1z M75,23h1v1h-1z M76,23h1v1h-1z M77,23h1v1h-1z M78,23h1v1h-1z M79,23h1v1h-1z M80,23h1v1h-1z M81,23h1v1h-1z M82,23h1v1h-1z M83,23h1v1h-1z M89,23h1v1h-1z M90,23h1v1h-1z M92,23h1v1h-1z M94,23h1v1h-1z M95,23h1v1h-1z M97,23h1v1h-1z M98,23h1v1h-1z M99,23h1v1h-1z M100,23h1v1h-1z M101,23h1v1h-1z M104,23h1v1h-1z M107,23h1v1h-1z M108,23h1v1h-1z M4,24h1v1h-1z M5,24h1v1h-1z M7,24h1v1h-1z M9,24h1v1h-1z M10,24h1v1h-1z M12,24h1v1h-1z M13,24h1v1h-1z M15,24h1v1h-1z M16,24h1v1h-1z M20,24h1v1h-1z M21,24h1v1h-1z M22,24h1v1h-1z M24,24h1v1h-1z M25,24h1v1h-1z M26,24h1v1h-1z M30,24h1v1h-1z M31,24h1v1h-1z M33,24h1v1h-1z M34,24h1v1h-1z M35,24h1v1h-1z M38,24h1v1h-1z M44,24h1v1h-1z M47,24h1v1h-1z M49,24h1v1h-1z M51,24h1v1h-1z M56,24h1v1h-1z M62,24h1v1h-1z M63,24h1v1h-1z M65,24h1v1h-1z M67,24h1v1h-1z M68,24h1v1h-1z M70,24h1v1h-1z M71,24h1v1h-1z M72,24h1v1h-1z M74,24h1v1h-1z M77,24h1v1h-1z M79,24h1v1h-1z M83,24h1v1h-1z M84,24h1v1h-1z M87,24h1v1h-1z M88,24h1v1h-1z M89,24h1v1h-1z M91,24h1v1h-1z M92,24h1v1h-1z M93,24h1v1h-1z M94,24h1v1h-1z M99,24h1v1h-1z M100,24h1v1h-1z M101,24h1v1h-1z M102,24h1v1h-1z M104,24h1v1h-1z M106,24h1v1h-1z M4,25h1v1h-1z M5,25h1v1h-1z M11,25h1v1h-1z M12,25h1v1h-1z M13,25h1v1h-1z M14,25h1v1h-1z M16,25h1v1h-1z M21,25h1v1h-1z M22,25h1v1h-1z M24,25h1v1h-1z M25,25h1v1h-1z M27,25h1v1h-1z M28,25h1v1h-1z M29,25h1v1h-1z M35,25h1v1h-1z M36,25h1v1h-1z M37,25h1v1h-1z M39,25h1v1h-1z M40,25h1v1h-1z M43,25h1v1h-1z M47,25h1v1h-1z M48,25h1v1h-1z M52,25h1v1h-1z M55,25h1v1h-1z M56,25h1v1h-1z M58,25h1v1h-1z M59,25h1v1h-1z M60,25h1v1h-1z M61,25h1v1h-1z M63,25h1v1h-1z M65,25h1v1h-1z M66,25h1v1h-1z M68,25h1v1h-1z M72,25h1v1h-1z M73,25h1v1h-1z M75,25h1v1h-1z M76,25h1v1h-1z M77,25h1v1h-1z M78,25h1v1h-1z M80,25h1v1h-1z M84,25h1v1h-1z M86,25h1v1h-1z M88,25h1v1h-1z M90,25h1v1h-1z M91,25h1v1h-1z M94,25h1v1h-1z M95,25h1v1h-1z M97,25h1v1h-1z M98,25h1v1h-1z M100,25h1v1h-1z M102,25h1v1h-1z M107,25h1v1h-1z M5,26h1v1h-1z M8,26h1v1h-1z M9,26h1v1h-1z M10,26h1v1h-1z M11,26h1v1h-1z M15,26h1v1h-1z M17,26h1v1h-1z M18,26h1v1h-1z M20,26h1v1h-1z M21,26h1v1h-1z M22,26h1v1h-1z M24,26h1v1h-1z M26,26h1v1h-1z M29,26h1v1h-1z M31,26h1v1h-1z M33,26h1v1h-1z M38,26h1v1h-1z M39,26h1v1h-1z M48,26h1v1h-1z M49,26h1v1h-1z M50,26h1v1h-1z M53,26h1v1h-1z M55,26h1v1h-1z M56,26h1v1h-1z M59,26h1v1h-1z M61,26h1v1h-1z M62,26h1v1h-1z M64,26h1v1h-1z M65,26h1v1h-1z M67,26h1v1h-1z M69,26h1v1h-1z M74,26h1v1h-1z M76,26h1v1h-1z M77,26h1v1h-1z M79,26h1v1h-1z M86,26h1v1h-1z M87,26h1v1h-1z M88,26h1v1h-1z M89,26h1v1h-1z M91,26h1v1h-1z M95,26h1v1h-1z M98,26h1v1h-1z M104,26h1v1h-1z M106,26h1v1h-1z M107,26h1v1h-1z M9,27h1v1h-1z M11,27h1v1h-1z M12,27h1v1h-1z M13,27h1v1h-1z M17,27h1v1h-1z M18,27h1v1h-1z M19,27h1v1h-1z M20,27h1v1h-1z M24,27h1v1h-1z M26,27h1v1h-1z M27,27h1v1h-1z M28,27h1v1h-1z M29,27h1v1h-1z M30,27h1v1h-1z M32,27h1v1h-1z M34,27h1v1h-1z M35,27h1v1h-1z M37,27h1v1h-1z M38,27h1v1h-1z M41,27h1v1h-1z M42,27h1v1h-1z M43,27h1v1h-1z M44,27h1v1h-1z M45,27h1v1h-1z M47,27h1v1h-1z M51,27h1v1h-1z M54,27h1v1h-1z M56,27h1v1h-1z M58,27h1v1h-1z M59,27h1v1h-1z M61,27h1v1h-1z M67,27h1v1h-1z M68,27h1v1h-1z M70,27h1v1h-1z M71,27h1v1h-1z M74,27h1v1h-1z M78,27h1v1h-1z M80,27h1v1h-1z M83,27h1v1h-1z M85,27h1v1h-1z M87,27h1v1h-1z M92,27h1v1h-1z M94,27h1v1h-1z M95,27h1v1h-1z M97,27h1v1h-1z M98,27h1v1h-1z M101,27h1v1h-1z M103,27h1v1h-1z M107,27h1v1h-1z M4,28h1v1h-1z M5,28h1v1h-1z M6,28h1v1h-1z M7,28h1v1h-1z M8,28h1v1h-1z M9,28h1v1h-1z M10,28h1v1h-1z M11,28h1v1h-1z M12,28h1v1h-1z M13,28h1v1h-1z M15,28h1v1h-1z M18,28h1v1h-1z M19,28h1v1h-1z M23,28h1v1h-1z M24,28h1v1h-1z M25,28h1v1h-1z M27,28h1v1h-1z M28,28h1v1h-1z M29,28h1v1h-1z M30,28h1v1h-1z M31,28h1v1h-1z M32,28h1v1h-1z M34,28h1v1h-1z M35,28h1v1h-1z M36,28h1v1h-1z M37,28h1v1h-1z M46,28h1v1h-1z M51,28h1v1h-1z M52,28h1v1h-1z M53,28h1v1h-1z M54,28h1v1h-1z M55,28h1v1h-1z M56,28h1v1h-1z M57,28h1v1h-1z M58,28h1v1h-1z M59,28h1v1h-1z M60,28h1v1h-1z M61,28h1v1h-1z M62,28h1v1h-1z M66,28h1v1h-1z M68,28h1v1h-1z M71,28h1v1h-1z M76,28h1v1h-1z M77,28h1v1h-1z M78,28h1v1h-1z M79,28h1v1h-1z M80,28h1v1h-1z M83,28h1v1h-1z M85,28h1v1h-1z M88,28h1v1h-1z M90,28h1v1h-1z M91,28h1v1h-1z M95,28h1v1h-1z M96,28h1v1h-1z M97,28h1v1h-1z M99,28h1v1h-1z M100,28h1v1h-1z M101,28h1v1h-1z M102,28h1v1h-1z M103,28h1v1h-1z M104,28h1v1h-1z M105,28h1v1h-1z M107,28h1v1h-1z M108,28h1v1h-1z M5,29h1v1h-1z M7,29h1v1h-1z M8,29h1v1h-1z M12,29h1v1h-1z M13,29h1v1h-1z M17,29h1v1h-1z M18,29h1v1h-1z M19,29h1v1h-1z M21,29h1v1h-1z M24,29h1v1h-1z M25,29h1v1h-1z M26,29h1v1h-1z M27,29h1v1h-1z M28,29h1v1h-1z M32,29h1v1h-1z M36,29h1v1h-1z M41,29h1v1h-1z M49,29h1v1h-1z M52,29h1v1h-1z M56,29h1v1h-1z M57,29h1v1h-1z M58,29h1v1h-1z M59,29h1v1h-1z M61,29h1v1h-1z M62,29h1v1h-1z M65,29h1v1h-1z M69,29h1v1h-1z M71,29h1v1h-1z M72,29h1v1h-1z M76,29h1v1h-1z M80,29h1v1h-1z M82,29h1v1h-1z M84,29h1v1h-1z M88,29h1v1h-1z M94,29h1v1h-1z M95,29h1v1h-1z M100,29h1v1h-1z M104,29h1v1h-1z M108,29h1v1h-1z M4,30h1v1h-1z M5,30h1v1h-1z M6,30h1v1h-1z M8,30h1v1h-1z M10,30h1v1h-1z M12,30h1v1h-1z M14,30h1v1h-1z M17,30h1v1h-1z M19,30h1v1h-1z M21,30h1v1h-1z M23,30h1v1h-1z M24,30h1v1h-1z M26,30h1v1h-1z M27,30h1v1h-1z M28,30h1v1h-1z M30,30h1v1h-1z M32,30h1v1h-1z M35,30h1v1h-1z M36,30h1v1h-1z M38,30h1v1h-1z M39,30h1v1h-1z M43,30h1v1h-1z M47,30h1v1h-1z M48,30h1v1h-1z M49,30h1v1h-1z M50,30h1v1h-1z M52,30h1v1h-1z M54,30h1v1h-1z M56,30h1v1h-1z M61,30h1v1h-1z M62,30h1v1h-1z M65,30h1v1h-1z M67,30h1v1h-1z M68,30h1v1h-1z M71,30h1v1h-1z M72,30h1v1h-1z M74,30h1v1h-1z M76,30h1v1h-1z M78,30h1v1h-1z M80,30h1v1h-1z M83,30h1v1h-1z M84,30h1v1h-1z M85,30h1v1h-1z M86,30h1v1h-1z M87,30h1v1h-1z M89,30h1v1h-1z M93,30h1v1h-1z M95,30h1v1h-1z M96,30h1v1h-1z M98,30h1v1h-1z M100,30h1v1h-1z M102,30h1v1h-1z M104,30h1v1h-1z M105,30h1v1h-1z M107,30h1v1h-1z M4,31h1v1h-1z M5,31h1v1h-1z M8,31h1v1h-1z M12,31h1v1h-1z M14,31h1v1h-1z M16,31h1v1h-1z M19,31h1v1h-1z M21,31h1v1h-1z M24,31h1v1h-1z M25,31h1v1h-1z M26,31h1v1h-1z M27,31h1v1h-1z M28,31h1v1h-1z M32,31h1v1h-1z M37,31h1v1h-1z M41,31h1v1h-1z M42,31h1v1h-1z M44,31h1v1h-1z M47,31h1v1h-1z M51,31h1v1h-1z M52,31h1v1h-1z M56,31h1v1h-1z M57,31h1v1h-1z M58,31h1v1h-1z M59,31h1v1h-1z M68,31h1v1h-1z M69,31h1v1h-1z M75,31h1v1h-1z M76,31h1v1h-1z M80,31h1v1h-1z M81,31h1v1h-1z M89,31h1v1h-1z M91,31h1v1h-1z M92,31h1v1h-1z M93,31h1v1h-1z M94,31h1v1h-1z M97,31h1v1h-1z M98,31h1v1h-1z M99,31h1v1h-1z M100,31h1v1h-1z M104,31h1v1h-1z M108,31h1v1h-1z M4,32h1v1h-1z M5,32h1v1h-1z M6,32h1v1h-1z M8,32h1v1h-1z M9,32h1v1h-1z M10,32h1v1h-1z M11,32h1v1h-1z M12,32h1v1h-1z M13,32h1v1h-1z M15,32h1v1h-1z M16,32h1v1h-1z M19,32h1v1h-1z M20,32h1v1h-1z M24,32h1v1h-1z M25,32h1v1h-1z M26,32h1v1h-1z M28,32h1v1h-1z M29,32h1v1h-1z M30,32h1v1h-1z M31,32h1v1h-1z M32,32h1v1h-1z M35,32h1v1h-1z M39,32h1v1h-1z M41,32h1v1h-1z M42,32h1v1h-1z M45,32h1v1h-1z M46,32h1v1h-1z M47,32h1v1h-1z M49,32h1v1h-1z M50,32h1v1h-1z M51,32h1v1h-1z M52,32h1v1h-1z M53,32h1v1h-1z M54,32h1v1h-1z M55,32h1v1h-1z M56,32h1v1h-1z M57,32h1v1h-1z M58,32h1v1h-1z M60,32h1v1h-1z M64,32h1v1h-1z M66,32h1v1h-1z M74,32h1v1h-1z M75,32h1v1h-1z M76,32h1v1h-1z M77,32h1v1h-1z M78,32h1v1h-1z M79,32h1v1h-1z M80,32h1v1h-1z M81,32h1v1h-1z M82,32h1v1h-1z M84,32h1v1h-1z M85,32h1v1h-1z M86,32h1v1h-1z M87,32h1v1h-1z M88,32h1v1h-1z M89,32h1v1h-1z M90,32h1v1h-1z M92,32h1v1h-1z M93,32h1v1h-1z M94,32h1v1h-1z M95,32h1v1h-1z M96,32h1v1h-1z M100,32h1v1h-1z M101,32h1v1h-1z M102,32h1v1h-1z M103,32h1v1h-1z M104,32h1v1h-1z M105,32h1v1h-1z M4,33h1v1h-1z M6,33h1v1h-1z M7,33h1v1h-1z M11,33h1v1h-1z M17,33h1v1h-1z M18,33h1v1h-1z M22,33h1v1h-1z M23,33h1v1h-1z M26,33h1v1h-1z M27,33h1v1h-1z M30,33h1v1h-1z M33,33h1v1h-1z M34,33h1v1h-1z M35,33h1v1h-1z M36,33h1v1h-1z M37,33h1v1h-1z M38,33h1v1h-1z M42,33h1v1h-1z M43,33h1v1h-1z M45,33h1v1h-1z M46,33h1v1h-1z M48,33h1v1h-1z M50,33h1v1h-1z M53,33h1v1h-1z M54,33h1v1h-1z M55,33h1v1h-1z M57,33h1v1h-1z M59,33h1v1h-1z M61,33h1v1h-1z M62,33h1v1h-1z M63,33h1v1h-1z M64,33h1v1h-1z M65,33h1v1h-1z M66,33h1v1h-1z M67,33h1v1h-1z M72,33h1v1h-1z M73,33h1v1h-1z M74,33h1v1h-1z M76,33h1v1h-1z M77,33h1v1h-1z M79,33h1v1h-1z M80,33h1v1h-1z M81,33h1v1h-1z M83,33h1v1h-1z M85,33h1v1h-1z M86,33h1v1h-1z M88,33h1v1h-1z M89,33h1v1h-1z M94,33h1v1h-1z M95,33h1v1h-1z M96,33h1v1h-1z M97,33h1v1h-1z M100,33h1v1h-1z M102,33h1v1h-1z M105,33h1v1h-1z M107,33h1v1h-1z M108,33h1v1h-1z M5,34h1v1h-1z M6,34h1v1h-1z M8,34h1v1h-1z M9,34h1v1h-1z M10,34h1v1h-1z M11,34h1v1h-1z M12,34h1v1h-1z M13,34h1v1h-1z M15,34h1v1h-1z M16,34h1v1h-1z M18,34h1v1h-1z M21,34h1v1h-1z M22,34h1v1h-1z M24,34h1v1h-1z M27,34h1v1h-1z M29,34h1v1h-1z M31,34h1v1h-1z M33,34h1v1h-1z M35,34h1v1h-1z M36,34h1v1h-1z M38,34h1v1h-1z M39,34h1v1h-1z M40,34h1v1h-1z M49,34h1v1h-1z M50,34h1v1h-1z M51,34h1v1h-1z M54,34h1v1h-1z M55,34h1v1h-1z M57,34h1v1h-1z M59,34h1v1h-1z M60,34h1v1h-1z M62,34h1v1h-1z M63,34h1v1h-1z M65,34h1v1h-1z M71,34h1v1h-1z M74,34h1v1h-1z M81,34h1v1h-1z M85,34h1v1h-1z M86,34h1v1h-1z M87,34h1v1h-1z M88,34h1v1h-1z M89,34h1v1h-1z M91,34h1v1h-1z M95,34h1v1h-1z M96,34h1v1h-1z M98,34h1v1h-1z M99,34h1v1h-1z M100,34h1v1h-1z M107,34h1v1h-1z M8,35h1v1h-1z M12,35h1v1h-1z M13,35h1v1h-1z M14,35h1v1h-1z M18,35h1v1h-1z M20,35h1v1h-1z M22,35h1v1h-1z M24,35h1v1h-1z M25,35h1v1h-1z M26,35h1v1h-1z M28,35h1v1h-1z M34,35h1v1h-1z M35,35h1v1h-1z M37,35h1v1h-1z M38,35h1v1h-1z M41,35h1v1h-1z M42,35h1v1h-1z M44,35h1v1h-1z M45,35h1v1h-1z M47,35h1v1h-1z M51,35h1v1h-1z M52,35h1v1h-1z M53,35h1v1h-1z M58,35h1v1h-1z M59,35h1v1h-1z M61,35h1v1h-1z M62,35h1v1h-1z M66,35h1v1h-1z M67,35h1v1h-1z M68,35h1v1h-1z M69,35h1v1h-1z M70,35h1v1h-1z M71,35h1v1h-1z M73,35h1v1h-1z M75,35h1v1h-1z M76,35h1v1h-1z M77,35h1v1h-1z M79,35h1v1h-1z M80,35h1v1h-1z M81,35h1v1h-1z M82,35h1v1h-1z M83,35h1v1h-1z M92,35h1v1h-1z M93,35h1v1h-1z M95,35h1v1h-1z M99,35h1v1h-1z M102,35h1v1h-1z M104,35h1v1h-1z M105,35h1v1h-1z M108,35h1v1h-1z M4,36h1v1h-1z M5,36h1v1h-1z M7,36h1v1h-1z M10,36h1v1h-1z M11,36h1v1h-1z M13,36h1v1h-1z M14,36h1v1h-1z M15,36h1v1h-1z M17,36h1v1h-1z M18,36h1v1h-1z M19,36h1v1h-1z M23,36h1v1h-1z M24,36h1v1h-1z M26,36h1v1h-1z M29,36h1v1h-1z M34,36h1v1h-1z M36,36h1v1h-1z M39,36h1v1h-1z M40,36h1v1h-1z M41,36h1v1h-1z M43,36h1v1h-1z M45,36h1v1h-1z M46,36h1v1h-1z M47,36h1v1h-1z M49,36h1v1h-1z M58,36h1v1h-1z M59,36h1v1h-1z M60,36h1v1h-1z M62,36h1v1h-1z M64,36h1v1h-1z M65,36h1v1h-1z M66,36h1v1h-1z M67,36h1v1h-1z M68,36h1v1h-1z M70,36h1v1h-1z M73,36h1v1h-1z M74,36h1v1h-1z M78,36h1v1h-1z M79,36h1v1h-1z M81,36h1v1h-1z M82,36h1v1h-1z M83,36h1v1h-1z M84,36h1v1h-1z M86,36h1v1h-1z M87,36h1v1h-1z M90,36h1v1h-1z M91,36h1v1h-1z M92,36h1v1h-1z M94,36h1v1h-1z M95,36h1v1h-1z M97,36h1v1h-1z M99,36h1v1h-1z M100,36h1v1h-1z M102,36h1v1h-1z M105,36h1v1h-1z M107,36h1v1h-1z M6,37h1v1h-1z M7,37h1v1h-1z M11,37h1v1h-1z M14,37h1v1h-1z M16,37h1v1h-1z M17,37h1v1h-1z M18,37h1v1h-1z M20,37h1v1h-1z M22,37h1v1h-1z M23,37h1v1h-1z M24,37h1v1h-1z M26,37h1v1h-1z M27,37h1v1h-1z M32,37h1v1h-1z M37,37h1v1h-1z M39,37h1v1h-1z M40,37h1v1h-1z M45,37h1v1h-1z M48,37h1v1h-1z M49,37h1v1h-1z M51,37h1v1h-1z M53,37h1v1h-1z M54,37h1v1h-1z M55,37h1v1h-1z M56,37h1v1h-1z M58,37h1v1h-1z M61,37h1v1h-1z M64,37h1v1h-1z M67,37h1v1h-1z M68,37h1v1h-1z M73,37h1v1h-1z M74,37h1v1h-1z M75,37h1v1h-1z M78,37h1v1h-1z M81,37h1v1h-1z M82,37h1v1h-1z M83,37h1v1h-1z M85,37h1v1h-1z M86,37h1v1h-1z M90,37h1v1h-1z M93,37h1v1h-1z M94,37h1v1h-1z M96,37h1v1h-1z M98,37h1v1h-1z M102,37h1v1h-1z M105,37h1v1h-1z M106,37h1v1h-1z M4,38h1v1h-1z M5,38h1v1h-1z M6,38h1v1h-1z M9,38h1v1h-1z M10,38h1v1h-1z M13,38h1v1h-1z M15,38h1v1h-1z M16,38h1v1h-1z M17,38h1v1h-1z M20,38h1v1h-1z M21,38h1v1h-1z M24,38h1v1h-1z M25,38h1v1h-1z M27,38h1v1h-1z M30,38h1v1h-1z M32,38h1v1h-1z M33,38h1v1h-1z M35,38h1v1h-1z M36,38h1v1h-1z M38,38h1v1h-1z M39,38h1v1h-1z M41,38h1v1h-1z M45,38h1v1h-1z M48,38h1v1h-1z M50,38h1v1h-1z M51,38h1v1h-1z M52,38h1v1h-1z M55,38h1v1h-1z M56,38h1v1h-1z M60,38h1v1h-1z M62,38h1v1h-1z M65,38h1v1h-1z M67,38h1v1h-1z M69,38h1v1h-1z M71,38h1v1h-1z M72,38h1v1h-1z M74,38h1v1h-1z M75,38h1v1h-1z M76,38h1v1h-1z M78,38h1v1h-1z M84,38h1v1h-1z M86,38h1v1h-1z M88,38h1v1h-1z M89,38h1v1h-1z M93,38h1v1h-1z M98,38h1v1h-1z M102,38h1v1h-1z M105,38h1v1h-1z M106,38h1v1h-1z M5,39h1v1h-1z M6,39h1v1h-1z M9,39h1v1h-1z M11,39h1v1h-1z M13,39h1v1h-1z M19,39h1v1h-1z M20,39h1v1h-1z M22,39h1v1h-1z M24,39h1v1h-1z M26,39h1v1h-1z M28,39h1v1h-1z M29,39h1v1h-1z M31,39h1v1h-1z M34,39h1v1h-1z M37,39h1v1h-1z M43,39h1v1h-1z M44,39h1v1h-1z M45,39h1v1h-1z M46,39h1v1h-1z M47,39h1v1h-1z M49,39h1v1h-1z M50,39h1v1h-1z M53,39h1v1h-1z M55,39h1v1h-1z M56,39h1v1h-1z M58,39h1v1h-1z M59,39h1v1h-1z M61,39h1v1h-1z M62,39h1v1h-1z M68,39h1v1h-1z M70,39h1v1h-1z M71,39h1v1h-1z M74,39h1v1h-1z M76,39h1v1h-1z M77,39h1v1h-1z M79,39h1v1h-1z M80,39h1v1h-1z M83,39h1v1h-1z M86,39h1v1h-1z M87,39h1v1h-1z M91,39h1v1h-1z M92,39h1v1h-1z M94,39h1v1h-1z M95,39h1v1h-1z M97,39h1v1h-1z M99,39h1v1h-1z M100,39h1v1h-1z M104,39h1v1h-1z M107,39h1v1h-1z M4,40h1v1h-1z M6,40h1v1h-1z M8,40h1v1h-1z M10,40h1v1h-1z M11,40h1v1h-1z M12,40h1v1h-1z M13,40h1v1h-1z M14,40h1v1h-1z M15,40h1v1h-1z M16,40h1v1h-1z M17,40h1v1h-1z M18,40h1v1h-1z M19,40h1v1h-1z M24,40h1v1h-1z M26,40h1v1h-1z M28,40h1v1h-1z M31,40h1v1h-1z M35,40h1v1h-1z M36,40h1v1h-1z M37,40h1v1h-1z M39,40h1v1h-1z M40,40h1v1h-1z M42,40h1v1h-1z M45,40h1v1h-1z M46,40h1v1h-1z M52,40h1v1h-1z M54,40h1v1h-1z M55,40h1v1h-1z M59,40h1v1h-1z M60,40h1v1h-1z M67,40h1v1h-1z M70,40h1v1h-1z M71,40h1v1h-1z M72,40h1v1h-1z M73,40h1v1h-1z M77,40h1v1h-1z M78,40h1v1h-1z M79,40h1v1h-1z M81,40h1v1h-1z M83,40h1v1h-1z M86,40h1v1h-1z M87,40h1v1h-1z M90,40h1v1h-1z M91,40h1v1h-1z M92,40h1v1h-1z M93,40h1v1h-1z M94,40h1v1h-1z M95,40h1v1h-1z M99,40h1v1h-1z M102,40h1v1h-1z M108,40h1v1h-1z M5,41h1v1h-1z M8,41h1v1h-1z M9,41h1v1h-1z M13,41h1v1h-1z M17,41h1v1h-1z M19,41h1v1h-1z M21,41h1v1h-1z M22,41h1v1h-1z M24,41h1v1h-1z M27,41h1v1h-1z M29,41h1v1h-1z M30,41h1v1h-1z M31,41h1v1h-1z M34,41h1v1h-1z M36,41h1v1h-1z M37,41h1v1h-1z M38,41h1v1h-1z M43,41h1v1h-1z M45,41h1v1h-1z M47,41h1v1h-1z M48,41h1v1h-1z M49,41h1v1h-1z M50,41h1v1h-1z M51,41h1v1h-1z M52,41h1v1h-1z M53,41h1v1h-1z M57,41h1v1h-1z M60,41h1v1h-1z M61,41h1v1h-1z M63,41h1v1h-1z M64,41h1v1h-1z M66,41h1v1h-1z M67,41h1v1h-1z M69,41h1v1h-1z M72,41h1v1h-1z M77,41h1v1h-1z M80,41h1v1h-1z M84,41h1v1h-1z M85,41h1v1h-1z M92,41h1v1h-1z M93,41h1v1h-1z M96,41h1v1h-1z M100,41h1v1h-1z M104,41h1v1h-1z M105,41h1v1h-1z M107,41h1v1h-1z M108,41h1v1h-1z M4,42h1v1h-1z M8,42h1v1h-1z M10,42h1v1h-1z M11,42h1v1h-1z M12,42h1v1h-1z M13,42h1v1h-1z M14,42h1v1h-1z M15,42h1v1h-1z M17,42h1v1h-1z M20,42h1v1h-1z M23,42h1v1h-1z M25,42h1v1h-1z M26,42h1v1h-1z M27,42h1v1h-1z M36,42h1v1h-1z M38,42h1v1h-1z M40,42h1v1h-1z M41,42h1v1h-1z M47,42h1v1h-1z M48,42h1v1h-1z M50,42h1v1h-1z M53,42h1v1h-1z M54,42h1v1h-1z M56,42h1v1h-1z M60,42h1v1h-1z M62,42h1v1h-1z M64,42h1v1h-1z M65,42h1v1h-1z M71,42h1v1h-1z M72,42h1v1h-1z M74,42h1v1h-1z M77,42h1v1h-1z M79,42h1v1h-1z M80,42h1v1h-1z M83,42h1v1h-1z M86,42h1v1h-1z M88,42h1v1h-1z M93,42h1v1h-1z M95,42h1v1h-1z M96,42h1v1h-1z M98,42h1v1h-1z M100,42h1v1h-1z M101,42h1v1h-1z M102,42h1v1h-1z M105,42h1v1h-1z M106,42h1v1h-1z M107,42h1v1h-1z M5,43h1v1h-1z M8,43h1v1h-1z M11,43h1v1h-1z M12,43h1v1h-1z M14,43h1v1h-1z M17,43h1v1h-1z M20,43h1v1h-1z M21,43h1v1h-1z M23,43h1v1h-1z M25,43h1v1h-1z M26,43h1v1h-1z M27,43h1v1h-1z M28,43h1v1h-1z M32,43h1v1h-1z M33,43h1v1h-1z M35,43h1v1h-1z M39,43h1v1h-1z M43,43h1v1h-1z M44,43h1v1h-1z M45,43h1v1h-1z M46,43h1v1h-1z M47,43h1v1h-1z M49,43h1v1h-1z M50,43h1v1h-1z M51,43h1v1h-1z M52,43h1v1h-1z M53,43h1v1h-1z M55,43h1v1h-1z M56,43h1v1h-1z M57,43h1v1h-1z M58,43h1v1h-1z M59,43h1v1h-1z M61,43h1v1h-1z M62,43h1v1h-1z M67,43h1v1h-1z M68,43h1v1h-1z M74,43h1v1h-1z M75,43h1v1h-1z M76,43h1v1h-1z M79,43h1v1h-1z M81,43h1v1h-1z M83,43h1v1h-1z M85,43h1v1h-1z M86,43h1v1h-1z M90,43h1v1h-1z M91,43h1v1h-1z M92,43h1v1h-1z M94,43h1v1h-1z M99,43h1v1h-1z M101,43h1v1h-1z M102,43h1v1h-1z M103,43h1v1h-1z M104,43h1v1h-1z M107,43h1v1h-1z M4,44h1v1h-1z M6,44h1v1h-1z M7,44h1v1h-1z M10,44h1v1h-1z M11,44h1v1h-1z M13,44h1v1h-1z M19,44h1v1h-1z M23,44h1v1h-1z M28,44h1v1h-1z M31,44h1v1h-1z M33,44h1v1h-1z M35,44h1v1h-1z M36,44h1v1h-1z M37,44h1v1h-1z M39,44h1v1h-1z M40,44h1v1h-1z M42,44h1v1h-1z M44,44h1v1h-1z M45,44h1v1h-1z M46,44h1v1h-1z M47,44h1v1h-1z M53,44h1v1h-1z M54,44h1v1h-1z M55,44h1v1h-1z M57,44h1v1h-1z M61,44h1v1h-1z M63,44h1v1h-1z M64,44h1v1h-1z M66,44h1v1h-1z M69,44h1v1h-1z M74,44h1v1h-1z M79,44h1v1h-1z M84,44h1v1h-1z M85,44h1v1h-1z M87,44h1v1h-1z M91,44h1v1h-1z M94,44h1v1h-1z M95,44h1v1h-1z M100,44h1v1h-1z M102,44h1v1h-1z M107,44h1v1h-1z M108,44h1v1h-1z M6,45h1v1h-1z M8,45h1v1h-1z M18,45h1v1h-1z M20,45h1v1h-1z M24,45h1v1h-1z M25,45h1v1h-1z M26,45h1v1h-1z M27,45h1v1h-1z M29,45h1v1h-1z M31,45h1v1h-1z M32,45h1v1h-1z M33,45h1v1h-1z M36,45h1v1h-1z M38,45h1v1h-1z M39,45h1v1h-1z M41,45h1v1h-1z M42,45h1v1h-1z M48,45h1v1h-1z M49,45h1v1h-1z M52,45h1v1h-1z M53,45h1v1h-1z M54,45h1v1h-1z M56,45h1v1h-1z M60,45h1v1h-1z M63,45h1v1h-1z M64,45h1v1h-1z M67,45h1v1h-1z M71,45h1v1h-1z M75,45h1v1h-1z M76,45h1v1h-1z M78,45h1v1h-1z M79,45h1v1h-1z M80,45h1v1h-1z M81,45h1v1h-1z M82,45h1v1h-1z M83,45h1v1h-1z M85,45h1v1h-1z M87,45h1v1h-1z M88,45h1v1h-1z M90,45h1v1h-1z M91,45h1v1h-1z M96,45h1v1h-1z M97,45h1v1h-1z M98,45h1v1h-1z M99,45h1v1h-1z M100,45h1v1h-1z M102,45h1v1h-1z M105,45h1v1h-1z M106,45h1v1h-1z M4,46h1v1h-1z M8,46h1v1h-1z M9,46h1v1h-1z M10,46h1v1h-1z M11,46h1v1h-1z M13,46h1v1h-1z M15,46h1v1h-1z M19,46h1v1h-1z M21,46h1v1h-1z M22,46h1v1h-1z M24,46h1v1h-1z M25,46h1v1h-1z M27,46h1v1h-1z M30,46h1v1h-1z M31,46h1v1h-1z M32,46h1v1h-1z M35,46h1v1h-1z M36,46h1v1h-1z M38,46h1v1h-1z M39,46h1v1h-1z M40,46h1v1h-1z M44,46h1v1h-1z M50,46h1v1h-1z M51,46h1v1h-1z M52,46h1v1h-1z M56,46h1v1h-1z M60,46h1v1h-1z M62,46h1v1h-1z M63,46h1v1h-1z M65,46h1v1h-1z M68,46h1v1h-1z M72,46h1v1h-1z M74,46h1v1h-1z M77,46h1v1h-1z M78,46h1v1h-1z M79,46h1v1h-1z M80,46h1v1h-1z M83,46h1v1h-1z M84,46h1v1h-1z M86,46h1v1h-1z M87,46h1v1h-1z M96,46h1v1h-1z M97,46h1v1h-1z M98,46h1v1h-1z M99,46h1v1h-1z M100,46h1v1h-1z M101,46h1v1h-1z M102,46h1v1h-1z M5,47h1v1h-1z M7,47h1v1h-1z M8,47h1v1h-1z M9,47h1v1h-1z M13,47h1v1h-1z M14,47h1v1h-1z M16,47h1v1h-1z M19,47h1v1h-1z M20,47h1v1h-1z M21,47h1v1h-1z M27,47h1v1h-1z M28,47h1v1h-1z M31,47h1v1h-1z M32,47h1v1h-1z M35,47h1v1h-1z M37,47h1v1h-1z M38,47h1v1h-1z M42,47h1v1h-1z M44,47h1v1h-1z M45,47h1v1h-1z M47,47h1v1h-1z M49,47h1v1h-1z M51,47h1v1h-1z M52,47h1v1h-1z M59,47h1v1h-1z M68,47h1v1h-1z M69,47h1v1h-1z M70,47h1v1h-1z M73,47h1v1h-1z M74,47h1v1h-1z M75,47h1v1h-1z M76,47h1v1h-1z M77,47h1v1h-1z M79,47h1v1h-1z M80,47h1v1h-1z M83,47h1v1h-1z M89,47h1v1h-1z M90,47h1v1h-1z M92,47h1v1h-1z M94,47h1v1h-1z M95,47h1v1h-1z M99,47h1v1h-1z M100,47h1v1h-1z M101,47h1v1h-1z M103,47h1v1h-1z M104,47h1v1h-1z M105,47h1v1h-1z M107,47h1v1h-1z M6,48h1v1h-1z M9,48h1v1h-1z M10,48h1v1h-1z M14,48h1v1h-1z M17,48h1v1h-1z M19,48h1v1h-1z M21,48h1v1h-1z M22,48h1v1h-1z M23,48h1v1h-1z M24,48h1v1h-1z M25,48h1v1h-1z M26,48h1v1h-1z M28,48h1v1h-1z M31,48h1v1h-1z M40,48h1v1h-1z M41,48h1v1h-1z M43,48h1v1h-1z M46,48h1v1h-1z M47,48h1v1h-1z M48,48h1v1h-1z M49,48h1v1h-1z M52,48h1v1h-1z M53,48h1v1h-1z M55,48h1v1h-1z M59,48h1v1h-1z M63,48h1v1h-1z M66,48h1v1h-1z M71,48h1v1h-1z M76,48h1v1h-1z M77,48h1v1h-1z M78,48h1v1h-1z M79,48h1v1h-1z M82,48h1v1h-1z M83,48h1v1h-1z M84,48h1v1h-1z M85,48h1v1h-1z M87,48h1v1h-1z M89,48h1v1h-1z M92,48h1v1h-1z M93,48h1v1h-1z M94,48h1v1h-1z M96,48h1v1h-1z M97,48h1v1h-1z M99,48h1v1h-1z M100,48h1v1h-1z M102,48h1v1h-1z M105,48h1v1h-1z M107,48h1v1h-1z M108,48h1v1h-1z M4,49h1v1h-1z M5,49h1v1h-1z M6,49h1v1h-1z M8,49h1v1h-1z M12,49h1v1h-1z M15,49h1v1h-1z M17,49h1v1h-1z M19,49h1v1h-1z M21,49h1v1h-1z M24,49h1v1h-1z M25,49h1v1h-1z M26,49h1v1h-1z M27,49h1v1h-1z M28,49h1v1h-1z M30,49h1v1h-1z M31,49h1v1h-1z M33,49h1v1h-1z M38,49h1v1h-1z M40,49h1v1h-1z M42,49h1v1h-1z M44,49h1v1h-1z M48,49h1v1h-1z M49,49h1v1h-1z M53,49h1v1h-1z M55,49h1v1h-1z M57,49h1v1h-1z M58,49h1v1h-1z M60,49h1v1h-1z M61,49h1v1h-1z M64,49h1v1h-1z M68,49h1v1h-1z M69,49h1v1h-1z M71,49h1v1h-1z M72,49h1v1h-1z M73,49h1v1h-1z M77,49h1v1h-1z M84,49h1v1h-1z M86,49h1v1h-1z M87,49h1v1h-1z M88,49h1v1h-1z M90,49h1v1h-1z M91,49h1v1h-1z M95,49h1v1h-1z M100,49h1v1h-1z M101,49h1v1h-1z M102,49h1v1h-1z M104,49h1v1h-1z M106,49h1v1h-1z M107,49h1v1h-1z M108,49h1v1h-1z M6,50h1v1h-1z M8,50h1v1h-1z M9,50h1v1h-1z M10,50h1v1h-1z M12,50h1v1h-1z M14,50h1v1h-1z M17,50h1v1h-1z M19,50h1v1h-1z M22,50h1v1h-1z M24,50h1v1h-1z M25,50h1v1h-1z M26,50h1v1h-1z M28,50h1v1h-1z M29,50h1v1h-1z M30,50h1v1h-1z M31,50h1v1h-1z M32,50h1v1h-1z M33,50h1v1h-1z M35,50h1v1h-1z M36,50h1v1h-1z M37,50h1v1h-1z M38,50h1v1h-1z M44,50h1v1h-1z M47,50h1v1h-1z M48,50h1v1h-1z M50,50h1v1h-1z M52,50h1v1h-1z M53,50h1v1h-1z M55,50h1v1h-1z M60,50h1v1h-1z M61,50h1v1h-1z M62,50h1v1h-1z M64,50h1v1h-1z M67,50h1v1h-1z M69,50h1v1h-1z M74,50h1v1h-1z M75,50h1v1h-1z M77,50h1v1h-1z M80,50h1v1h-1z M85,50h1v1h-1z M86,50h1v1h-1z M89,50h1v1h-1z M91,50h1v1h-1z M93,50h1v1h-1z M98,50h1v1h-1z M100,50h1v1h-1z M101,50h1v1h-1z M103,50h1v1h-1z M104,50h1v1h-1z M105,50h1v1h-1z M106,50h1v1h-1z M107,50h1v1h-1z M4,51h1v1h-1z M5,51h1v1h-1z M7,51h1v1h-1z M12,51h1v1h-1z M14,51h1v1h-1z M15,51h1v1h-1z M19,51h1v1h-1z M20,51h1v1h-1z M21,51h1v1h-1z M22,51h1v1h-1z M23,51h1v1h-1z M24,51h1v1h-1z M25,51h1v1h-1z M28,51h1v1h-1z M29,51h1v1h-1z M31,51h1v1h-1z M34,51h1v1h-1z M35,51h1v1h-1z M37,51h1v1h-1z M42,51h1v1h-1z M44,51h1v1h-1z M49,51h1v1h-1z M50,51h1v1h-1z M53,51h1v1h-1z M57,51h1v1h-1z M58,51h1v1h-1z M59,51h1v1h-1z M63,51h1v1h-1z M66,51h1v1h-1z M68,51h1v1h-1z M70,51h1v1h-1z M71,51h1v1h-1z M76,51h1v1h-1z M81,51h1v1h-1z M82,51h1v1h-1z M83,51h1v1h-1z M89,51h1v1h-1z M90,51h1v1h-1z M92,51h1v1h-1z M94,51h1v1h-1z M95,51h1v1h-1z M99,51h1v1h-1z M101,51h1v1h-1z M104,51h1v1h-1z M105,51h1v1h-1z M5,52h1v1h-1z M7,52h1v1h-1z M8,52h1v1h-1z M9,52h1v1h-1z M10,52h1v1h-1z M11,52h1v1h-1z M12,52h1v1h-1z M14,52h1v1h-1z M18,52h1v1h-1z M23,52h1v1h-1z M26,52h1v1h-1z M28,52h1v1h-1z M29,52h1v1h-1z M30,52h1v1h-1z M31,52h1v1h-1z M32,52h1v1h-1z M34,52h1v1h-1z M35,52h1v1h-1z M36,52h1v1h-1z M37,52h1v1h-1z M40,52h1v1h-1z M41,52h1v1h-1z M42,52h1v1h-1z M44,52h1v1h-1z M46,52h1v1h-1z M49,52h1v1h-1z M52,52h1v1h-1z M53,52h1v1h-1z M54,52h1v1h-1z M55,52h1v1h-1z M56,52h1v1h-1z M58,52h1v1h-1z M60,52h1v1h-1z M61,52h1v1h-1z M64,52h1v1h-1z M70,52h1v1h-1z M71,52h1v1h-1z M73,52h1v1h-1z M74,52h1v1h-1z M76,52h1v1h-1z M77,52h1v1h-1z M78,52h1v1h-1z M79,52h1v1h-1z M80,52h1v1h-1z M83,52h1v1h-1z M84,52h1v1h-1z M85,52h1v1h-1z M89,52h1v1h-1z M91,52h1v1h-1z M93,52h1v1h-1z M94,52h1v1h-1z M98,52h1v1h-1z M99,52h1v1h-1z M100,52h1v1h-1z M101,52h1v1h-1z M102,52h1v1h-1z M103,52h1v1h-1z M104,52h1v1h-1z M105,52h1v1h-1z M107,52h1v1h-1z M6,53h1v1h-1z M7,53h1v1h-1z M8,53h1v1h-1z M12,53h1v1h-1z M13,53h1v1h-1z M15,53h1v1h-1z M16,53h1v1h-1z M17,53h1v1h-1z M19,53h1v1h-1z M21,53h1v1h-1z M22,53h1v1h-1z M26,53h1v1h-1z M27,53h1v1h-1z M28,53h1v1h-1z M32,53h1v1h-1z M33,53h1v1h-1z M35,53h1v1h-1z M36,53h1v1h-1z M38,53h1v1h-1z M41,53h1v1h-1z M43,53h1v1h-1z M47,53h1v1h-1z M52,53h1v1h-1z M56,53h1v1h-1z M58,53h1v1h-1z M59,53h1v1h-1z M60,53h1v1h-1z M63,53h1v1h-1z M64,53h1v1h-1z M67,53h1v1h-1z M71,53h1v1h-1z M72,53h1v1h-1z M73,53h1v1h-1z M74,53h1v1h-1z M75,53h1v1h-1z M76,53h1v1h-1z M80,53h1v1h-1z M82,53h1v1h-1z M84,53h1v1h-1z M85,53h1v1h-1z M86,53h1v1h-1z M88,53h1v1h-1z M90,53h1v1h-1z M91,53h1v1h-1z M94,53h1v1h-1z M97,53h1v1h-1z M99,53h1v1h-1z M100,53h1v1h-1z M104,53h1v1h-1z M5,54h1v1h-1z M8,54h1v1h-1z M10,54h1v1h-1z M12,54h1v1h-1z M14,54h1v1h-1z M16,54h1v1h-1z M17,54h1v1h-1z M19,54h1v1h-1z M20,54h1v1h-1z M21,54h1v1h-1z M24,54h1v1h-1z M25,54h1v1h-1z M26,54h1v1h-1z M28,54h1v1h-1z M30,54h1v1h-1z M32,54h1v1h-1z M33,54h1v1h-1z M36,54h1v1h-1z M38,54h1v1h-1z M40,54h1v1h-1z M41,54h1v1h-1z M49,54h1v1h-1z M50,54h1v1h-1z M51,54h1v1h-1z M52,54h1v1h-1z M54,54h1v1h-1z M56,54h1v1h-1z M60,54h1v1h-1z M62,54h1v1h-1z M64,54h1v1h-1z M65,54h1v1h-1z M67,54h1v1h-1z M71,54h1v1h-1z M74,54h1v1h-1z M76,54h1v1h-1z M78,54h1v1h-1z M80,54h1v1h-1z M84,54h1v1h-1z M86,54h1v1h-1z M87,54h1v1h-1z M89,54h1v1h-1z M95,54h1v1h-1z M96,54h1v1h-1z M97,54h1v1h-1z M98,54h1v1h-1z M100,54h1v1h-1z M102,54h1v1h-1z M104,54h1v1h-1z M6,55h1v1h-1z M7,55h1v1h-1z M8,55h1v1h-1z M12,55h1v1h-1z M15,55h1v1h-1z M18,55h1v1h-1z M19,55h1v1h-1z M20,55h1v1h-1z M22,55h1v1h-1z M23,55h1v1h-1z M25,55h1v1h-1z M27,55h1v1h-1z M28,55h1v1h-1z M32,55h1v1h-1z M34,55h1v1h-1z M35,55h1v1h-1z M37,55h1v1h-1z M42,55h1v1h-1z M43,55h1v1h-1z M44,55h1v1h-1z M45,55h1v1h-1z M47,55h1v1h-1z M49,55h1v1h-1z M52,55h1v1h-1z M56,55h1v1h-1z M59,55h1v1h-1z M62,55h1v1h-1z M63,55h1v1h-1z M68,55h1v1h-1z M69,55h1v1h-1z M70,55h1v1h-1z M71,55h1v1h-1z M76,55h1v1h-1z M80,55h1v1h-1z M83,55h1v1h-1z M85,55h1v1h-1z M86,55h1v1h-1z M91,55h1v1h-1z M92,55h1v1h-1z M100,55h1v1h-1z M104,55h1v1h-1z M108,55h1v1h-1z M4,56h1v1h-1z M6,56h1v1h-1z M8,56h1v1h-1z M9,56h1v1h-1z M10,56h1v1h-1z M11,56h1v1h-1z M12,56h1v1h-1z M13,56h1v1h-1z M14,56h1v1h-1z M15,56h1v1h-1z M16,56h1v1h-1z M20,56h1v1h-1z M21,56h1v1h-1z M22,56h1v1h-1z M23,56h1v1h-1z M27,56h1v1h-1z M28,56h1v1h-1z M29,56h1v1h-1z M30,56h1v1h-1z M31,56h1v1h-1z M32,56h1v1h-1z M34,56h1v1h-1z M35,56h1v1h-1z M36,56h1v1h-1z M41,56h1v1h-1z M42,56h1v1h-1z M52,56h1v1h-1z M53,56h1v1h-1z M54,56h1v1h-1z M55,56h1v1h-1z M56,56h1v1h-1z M57,56h1v1h-1z M58,56h1v1h-1z M59,56h1v1h-1z M61,56h1v1h-1z M62,56h1v1h-1z M63,56h1v1h-1z M64,56h1v1h-1z M65,56h1v1h-1z M67,56h1v1h-1z M69,56h1v1h-1z M70,56h1v1h-1z M73,56h1v1h-1z M74,56h1v1h-1z M76,56h1v1h-1z M77,56h1v1h-1z M78,56h1v1h-1z M79,56h1v1h-1z M80,56h1v1h-1z M81,56h1v1h-1z M82,56h1v1h-1z M84,56h1v1h-1z M87,56h1v1h-1z M89,56h1v1h-1z M90,56h1v1h-1z M92,56h1v1h-1z M94,56h1v1h-1z M95,56h1v1h-1z M97,56h1v1h-1z M98,56h1v1h-1z M100,56h1v1h-1z M101,56h1v1h-1z M102,56h1v1h-1z M103,56h1v1h-1z M104,56h1v1h-1z M105,56h1v1h-1z M106,56h1v1h-1z M108,56h1v1h-1z M4,57h1v1h-1z M5,57h1v1h-1z M6,57h1v1h-1z M7,57h1v1h-1z M11,57h1v1h-1z M14,57h1v1h-1z M15,57h1v1h-1z M17,57h1v1h-1z M18,57h1v1h-1z M20,57h1v1h-1z M21,57h1v1h-1z M23,57h1v1h-1z M27,57h1v1h-1z M29,57h1v1h-1z M30,57h1v1h-1z M31,57h1v1h-1z M33,57h1v1h-1z M34,57h1v1h-1z M35,57h1v1h-1z M40,57h1v1h-1z M41,57h1v1h-1z M44,57h1v1h-1z M48,57h1v1h-1z M49,57h1v1h-1z M50,57h1v1h-1z M51,57h1v1h-1z M55,57h1v1h-1z M57,57h1v1h-1z M58,57h1v1h-1z M60,57h1v1h-1z M61,57h1v1h-1z M62,57h1v1h-1z M64,57h1v1h-1z M65,57h1v1h-1z M67,57h1v1h-1z M69,57h1v1h-1z M70,57h1v1h-1z M71,57h1v1h-1z M72,57h1v1h-1z M73,57h1v1h-1z M76,57h1v1h-1z M79,57h1v1h-1z M82,57h1v1h-1z M84,57h1v1h-1z M85,57h1v1h-1z M87,57h1v1h-1z M88,57h1v1h-1z M89,57h1v1h-1z M90,57h1v1h-1z M93,57h1v1h-1z M94,57h1v1h-1z M95,57h1v1h-1z M96,57h1v1h-1z M97,57h1v1h-1z M99,57h1v1h-1z M100,57h1v1h-1z M101,57h1v1h-1z M102,57h1v1h-1z M103,57h1v1h-1z M107,57h1v1h-1z M5,58h1v1h-1z M10,58h1v1h-1z M11,58h1v1h-1z M15,58h1v1h-1z M16,58h1v1h-1z M17,58h1v1h-1z M18,58h1v1h-1z M19,58h1v1h-1z M22,58h1v1h-1z M24,58h1v1h-1z M26,58h1v1h-1z M27,58h1v1h-1z M29,58h1v1h-1z M32,58h1v1h-1z M35,58h1v1h-1z M36,58h1v1h-1z M38,58h1v1h-1z M40,58h1v1h-1z M41,58h1v1h-1z M43,58h1v1h-1z M44,58h1v1h-1z M45,58h1v1h-1z M48,58h1v1h-1z M50,58h1v1h-1z M53,58h1v1h-1z M54,58h1v1h-1z M55,58h1v1h-1z M56,58h1v1h-1z M57,58h1v1h-1z M59,58h1v1h-1z M62,58h1v1h-1z M63,58h1v1h-1z M64,58h1v1h-1z M67,58h1v1h-1z M68,58h1v1h-1z M69,58h1v1h-1z M71,58h1v1h-1z M73,58h1v1h-1z M74,58h1v1h-1z M78,58h1v1h-1z M84,58h1v1h-1z M86,58h1v1h-1z M87,58h1v1h-1z M88,58h1v1h-1z M89,58h1v1h-1z M91,58h1v1h-1z M92,58h1v1h-1z M98,58h1v1h-1z M99,58h1v1h-1z M100,58h1v1h-1z M101,58h1v1h-1z M102,58h1v1h-1z M104,58h1v1h-1z M106,58h1v1h-1z M6,59h1v1h-1z M7,59h1v1h-1z M12,59h1v1h-1z M15,59h1v1h-1z M17,59h1v1h-1z M20,59h1v1h-1z M22,59h1v1h-1z M23,59h1v1h-1z M25,59h1v1h-1z M26,59h1v1h-1z M27,59h1v1h-1z M28,59h1v1h-1z M29,59h1v1h-1z M31,59h1v1h-1z M32,59h1v1h-1z M33,59h1v1h-1z M38,59h1v1h-1z M39,59h1v1h-1z M41,59h1v1h-1z M42,59h1v1h-1z M44,59h1v1h-1z M46,59h1v1h-1z M47,59h1v1h-1z M49,59h1v1h-1z M50,59h1v1h-1z M51,59h1v1h-1z M55,59h1v1h-1z M58,59h1v1h-1z M59,59h1v1h-1z M61,59h1v1h-1z M62,59h1v1h-1z M63,59h1v1h-1z M65,59h1v1h-1z M66,59h1v1h-1z M68,59h1v1h-1z M70,59h1v1h-1z M71,59h1v1h-1z M75,59h1v1h-1z M76,59h1v1h-1z M78,59h1v1h-1z M80,59h1v1h-1z M82,59h1v1h-1z M83,59h1v1h-1z M89,59h1v1h-1z M90,59h1v1h-1z M92,59h1v1h-1z M93,59h1v1h-1z M94,59h1v1h-1z M95,59h1v1h-1z M97,59h1v1h-1z M104,59h1v1h-1z M107,59h1v1h-1z M108,59h1v1h-1z M5,60h1v1h-1z M10,60h1v1h-1z M11,60h1v1h-1z M12,60h1v1h-1z M14,60h1v1h-1z M17,60h1v1h-1z M18,60h1v1h-1z M19,60h1v1h-1z M20,60h1v1h-1z M22,60h1v1h-1z M23,60h1v1h-1z M24,60h1v1h-1z M25,60h1v1h-1z M27,60h1v1h-1z M28,60h1v1h-1z M30,60h1v1h-1z M31,60h1v1h-1z M34,60h1v1h-1z M38,60h1v1h-1z M39,60h1v1h-1z M40,60h1v1h-1z M41,60h1v1h-1z M42,60h1v1h-1z M45,60h1v1h-1z M46,60h1v1h-1z M47,60h1v1h-1z M48,60h1v1h-1z M50,60h1v1h-1z M52,60h1v1h-1z M54,60h1v1h-1z M56,60h1v1h-1z M57,60h1v1h-1z M58,60h1v1h-1z M59,60h1v1h-1z M60,60h1v1h-1z M61,60h1v1h-1z M62,60h1v1h-1z M63,60h1v1h-1z M64,60h1v1h-1z M66,60h1v1h-1z M67,60h1v1h-1z M68,60h1v1h-1z M69,60h1v1h-1z M70,60h1v1h-1z M73,60h1v1h-1z M76,60h1v1h-1z M77,60h1v1h-1z M78,60h1v1h-1z M79,60h1v1h-1z M80,60h1v1h-1z M85,60h1v1h-1z M87,60h1v1h-1z M90,60h1v1h-1z M93,60h1v1h-1z M94,60h1v1h-1z M99,60h1v1h-1z M102,60h1v1h-1z M103,60h1v1h-1z M105,60h1v1h-1z M106,60h1v1h-1z M107,60h1v1h-1z M108,60h1v1h-1z M5,61h1v1h-1z M7,61h1v1h-1z M8,61h1v1h-1z M9,61h1v1h-1z M14,61h1v1h-1z M15,61h1v1h-1z M16,61h1v1h-1z M18,61h1v1h-1z M19,61h1v1h-1z M23,61h1v1h-1z M25,61h1v1h-1z M26,61h1v1h-1z M27,61h1v1h-1z M28,61h1v1h-1z M29,61h1v1h-1z M31,61h1v1h-1z M33,61h1v1h-1z M36,61h1v1h-1z M37,61h1v1h-1z M40,61h1v1h-1z M42,61h1v1h-1z M45,61h1v1h-1z M47,61h1v1h-1z M48,61h1v1h-1z M49,61h1v1h-1z M53,61h1v1h-1z M54,61h1v1h-1z M59,61h1v1h-1z M61,61h1v1h-1z M62,61h1v1h-1z M64,61h1v1h-1z M65,61h1v1h-1z M74,61h1v1h-1z M75,61h1v1h-1z M82,61h1v1h-1z M86,61h1v1h-1z M88,61h1v1h-1z M90,61h1v1h-1z M91,61h1v1h-1z M92,61h1v1h-1z M97,61h1v1h-1z M100,61h1v1h-1z M102,61h1v1h-1z M103,61h1v1h-1z M105,61h1v1h-1z M106,61h1v1h-1z M4,62h1v1h-1z M7,62h1v1h-1z M10,62h1v1h-1z M12,62h1v1h-1z M13,62h1v1h-1z M15,62h1v1h-1z M19,62h1v1h-1z M20,62h1v1h-1z M22,62h1v1h-1z M23,62h1v1h-1z M24,62h1v1h-1z M25,62h1v1h-1z M29,62h1v1h-1z M30,62h1v1h-1z M31,62h1v1h-1z M37,62h1v1h-1z M38,62h1v1h-1z M39,62h1v1h-1z M40,62h1v1h-1z M41,62h1v1h-1z M48,62h1v1h-1z M49,62h1v1h-1z M50,62h1v1h-1z M53,62h1v1h-1z M60,62h1v1h-1z M62,62h1v1h-1z M63,62h1v1h-1z M64,62h1v1h-1z M65,62h1v1h-1z M69,62h1v1h-1z M74,62h1v1h-1z M78,62h1v1h-1z M79,62h1v1h-1z M83,62h1v1h-1z M86,62h1v1h-1z M88,62h1v1h-1z M89,62h1v1h-1z M96,62h1v1h-1z M98,62h1v1h-1z M99,62h1v1h-1z M101,62h1v1h-1z M103,62h1v1h-1z M104,62h1v1h-1z M105,62h1v1h-1z M107,62h1v1h-1z M5,63h1v1h-1z M6,63h1v1h-1z M7,63h1v1h-1z M8,63h1v1h-1z M9,63h1v1h-1z M11,63h1v1h-1z M12,63h1v1h-1z M13,63h1v1h-1z M14,63h1v1h-1z M15,63h1v1h-1z M17,63h1v1h-1z M18,63h1v1h-1z M19,63h1v1h-1z M20,63h1v1h-1z M24,63h1v1h-1z M25,63h1v1h-1z M27,63h1v1h-1z M28,63h1v1h-1z M29,63h1v1h-1z M30,63h1v1h-1z M32,63h1v1h-1z M33,63h1v1h-1z M35,63h1v1h-1z M37,63h1v1h-1z M41,63h1v1h-1z M44,63h1v1h-1z M51,63h1v1h-1z M52,63h1v1h-1z M53,63h1v1h-1z M54,63h1v1h-1z M58,63h1v1h-1z M59,63h1v1h-1z M61,63h1v1h-1z M65,63h1v1h-1z M68,63h1v1h-1z M70,63h1v1h-1z M71,63h1v1h-1z M76,63h1v1h-1z M83,63h1v1h-1z M85,63h1v1h-1z M86,63h1v1h-1z M87,63h1v1h-1z M89,63h1v1h-1z M91,63h1v1h-1z M92,63h1v1h-1z M94,63h1v1h-1z M95,63h1v1h-1z M97,63h1v1h-1z M99,63h1v1h-1z M100,63h1v1h-1z M104,63h1v1h-1z M107,63h1v1h-1z M108,63h1v1h-1z M4,64h1v1h-1z M5,64h1v1h-1z M8,64h1v1h-1z M10,64h1v1h-1z M11,64h1v1h-1z M13,64h1v1h-1z M16,64h1v1h-1z M17,64h1v1h-1z M19,64h1v1h-1z M22,64h1v1h-1z M23,64h1v1h-1z M24,64h1v1h-1z M25,64h1v1h-1z M26,64h1v1h-1z M28,64h1v1h-1z M30,64h1v1h-1z M37,64h1v1h-1z M39,64h1v1h-1z M42,64h1v1h-1z M43,64h1v1h-1z M45,64h1v1h-1z M46,64h1v1h-1z M49,64h1v1h-1z M51,64h1v1h-1z M52,64h1v1h-1z M54,64h1v1h-1z M56,64h1v1h-1z M59,64h1v1h-1z M60,64h1v1h-1z M64,64h1v1h-1z M66,64h1v1h-1z M71,64h1v1h-1z M73,64h1v1h-1z M75,64h1v1h-1z M78,64h1v1h-1z M80,64h1v1h-1z M81,64h1v1h-1z M82,64h1v1h-1z M85,64h1v1h-1z M87,64h1v1h-1z M88,64h1v1h-1z M90,64h1v1h-1z M91,64h1v1h-1z M92,64h1v1h-1z M95,64h1v1h-1z M96,64h1v1h-1z M97,64h1v1h-1z M98,64h1v1h-1z M99,64h1v1h-1z M103,64h1v1h-1z M108,64h1v1h-1z M4,65h1v1h-1z M6,65h1v1h-1z M7,65h1v1h-1z M9,65h1v1h-1z M15,65h1v1h-1z M17,65h1v1h-1z M18,65h1v1h-1z M19,65h1v1h-1z M20,65h1v1h-1z M21,65h1v1h-1z M22,65h1v1h-1z M23,65h1v1h-1z M24,65h1v1h-1z M26,65h1v1h-1z M27,65h1v1h-1z M28,65h1v1h-1z M29,65h1v1h-1z M31,65h1v1h-1z M34,65h1v1h-1z M35,65h1v1h-1z M37,65h1v1h-1z M38,65h1v1h-1z M40,65h1v1h-1z M44,65h1v1h-1z M45,65h1v1h-1z M46,65h1v1h-1z M49,65h1v1h-1z M50,65h1v1h-1z M51,65h1v1h-1z M53,65h1v1h-1z M54,65h1v1h-1z M55,65h1v1h-1z M58,65h1v1h-1z M59,65h1v1h-1z M60,65h1v1h-1z M62,65h1v1h-1z M63,65h1v1h-1z M64,65h1v1h-1z M66,65h1v1h-1z M68,65h1v1h-1z M69,65h1v1h-1z M71,65h1v1h-1z M72,65h1v1h-1z M75,65h1v1h-1z M77,65h1v1h-1z M79,65h1v1h-1z M82,65h1v1h-1z M84,65h1v1h-1z M87,65h1v1h-1z M88,65h1v1h-1z M91,65h1v1h-1z M93,65h1v1h-1z M95,65h1v1h-1z M96,65h1v1h-1z M97,65h1v1h-1z M98,65h1v1h-1z M99,65h1v1h-1z M100,65h1v1h-1z M102,65h1v1h-1z M103,65h1v1h-1z M104,65h1v1h-1z M106,65h1v1h-1z M107,65h1v1h-1z M4,66h1v1h-1z M6,66h1v1h-1z M7,66h1v1h-1z M10,66h1v1h-1z M11,66h1v1h-1z M17,66h1v1h-1z M18,66h1v1h-1z M23,66h1v1h-1z M25,66h1v1h-1z M26,66h1v1h-1z M30,66h1v1h-1z M31,66h1v1h-1z M32,66h1v1h-1z M36,66h1v1h-1z M38,66h1v1h-1z M39,66h1v1h-1z M40,66h1v1h-1z M41,66h1v1h-1z M43,66h1v1h-1z M45,66h1v1h-1z M47,66h1v1h-1z M48,66h1v1h-1z M50,66h1v1h-1z M51,66h1v1h-1z M54,66h1v1h-1z M56,66h1v1h-1z M60,66h1v1h-1z M62,66h1v1h-1z M64,66h1v1h-1z M68,66h1v1h-1z M71,66h1v1h-1z M72,66h1v1h-1z M73,66h1v1h-1z M74,66h1v1h-1z M84,66h1v1h-1z M86,66h1v1h-1z M87,66h1v1h-1z M88,66h1v1h-1z M89,66h1v1h-1z M93,66h1v1h-1z M95,66h1v1h-1z M97,66h1v1h-1z M98,66h1v1h-1z M102,66h1v1h-1z M107,66h1v1h-1z M4,67h1v1h-1z M5,67h1v1h-1z M6,67h1v1h-1z M7,67h1v1h-1z M8,67h1v1h-1z M13,67h1v1h-1z M15,67h1v1h-1z M17,67h1v1h-1z M18,67h1v1h-1z M19,67h1v1h-1z M20,67h1v1h-1z M22,67h1v1h-1z M24,67h1v1h-1z M26,67h1v1h-1z M32,67h1v1h-1z M33,67h1v1h-1z M35,67h1v1h-1z M38,67h1v1h-1z M42,67h1v1h-1z M44,67h1v1h-1z M46,67h1v1h-1z M50,67h1v1h-1z M51,67h1v1h-1z M53,67h1v1h-1z M54,67h1v1h-1z M56,67h1v1h-1z M58,67h1v1h-1z M59,67h1v1h-1z M62,67h1v1h-1z M65,67h1v1h-1z M66,67h1v1h-1z M68,67h1v1h-1z M69,67h1v1h-1z M70,67h1v1h-1z M71,67h1v1h-1z M75,67h1v1h-1z M76,67h1v1h-1z M78,67h1v1h-1z M82,67h1v1h-1z M83,67h1v1h-1z M85,67h1v1h-1z M86,67h1v1h-1z M92,67h1v1h-1z M94,67h1v1h-1z M95,67h1v1h-1z M99,67h1v1h-1z M104,67h1v1h-1z M107,67h1v1h-1z M108,67h1v1h-1z M4,68h1v1h-1z M6,68h1v1h-1z M7,68h1v1h-1z M9,68h1v1h-1z M10,68h1v1h-1z M11,68h1v1h-1z M17,68h1v1h-1z M18,68h1v1h-1z M19,68h1v1h-1z M21,68h1v1h-1z M22,68h1v1h-1z M24,68h1v1h-1z M26,68h1v1h-1z M27,68h1v1h-1z M28,68h1v1h-1z M30,68h1v1h-1z M31,68h1v1h-1z M32,68h1v1h-1z M34,68h1v1h-1z M38,68h1v1h-1z M39,68h1v1h-1z M41,68h1v1h-1z M42,68h1v1h-1z M43,68h1v1h-1z M45,68h1v1h-1z M47,68h1v1h-1z M48,68h1v1h-1z M49,68h1v1h-1z M52,68h1v1h-1z M54,68h1v1h-1z M56,68h1v1h-1z M59,68h1v1h-1z M62,68h1v1h-1z M63,68h1v1h-1z M66,68h1v1h-1z M68,68h1v1h-1z M71,68h1v1h-1z M72,68h1v1h-1z M73,68h1v1h-1z M74,68h1v1h-1z M78,68h1v1h-1z M79,68h1v1h-1z M80,68h1v1h-1z M81,68h1v1h-1z M83,68h1v1h-1z M84,68h1v1h-1z M92,68h1v1h-1z M93,68h1v1h-1z M94,68h1v1h-1z M95,68h1v1h-1z M96,68h1v1h-1z M99,68h1v1h-1z M102,68h1v1h-1z M103,68h1v1h-1z M107,68h1v1h-1z M108,68h1v1h-1z M4,69h1v1h-1z M5,69h1v1h-1z M7,69h1v1h-1z M8,69h1v1h-1z M9,69h1v1h-1z M16,69h1v1h-1z M19,69h1v1h-1z M20,69h1v1h-1z M22,69h1v1h-1z M28,69h1v1h-1z M29,69h1v1h-1z M31,69h1v1h-1z M34,69h1v1h-1z M35,69h1v1h-1z M36,69h1v1h-1z M39,69h1v1h-1z M40,69h1v1h-1z M41,69h1v1h-1z M45,69h1v1h-1z M47,69h1v1h-1z M50,69h1v1h-1z M52,69h1v1h-1z M53,69h1v1h-1z M55,69h1v1h-1z M57,69h1v1h-1z M58,69h1v1h-1z M59,69h1v1h-1z M60,69h1v1h-1z M64,69h1v1h-1z M65,69h1v1h-1z M66,69h1v1h-1z M67,69h1v1h-1z M69,69h1v1h-1z M70,69h1v1h-1z M71,69h1v1h-1z M73,69h1v1h-1z M75,69h1v1h-1z M76,69h1v1h-1z M77,69h1v1h-1z M81,69h1v1h-1z M83,69h1v1h-1z M84,69h1v1h-1z M85,69h1v1h-1z M93,69h1v1h-1z M94,69h1v1h-1z M95,69h1v1h-1z M96,69h1v1h-1z M98,69h1v1h-1z M99,69h1v1h-1z M100,69h1v1h-1z M102,69h1v1h-1z M103,69h1v1h-1z M105,69h1v1h-1z M106,69h1v1h-1z M107,69h1v1h-1z M4,70h1v1h-1z M5,70h1v1h-1z M6,70h1v1h-1z M10,70h1v1h-1z M14,70h1v1h-1z M15,70h1v1h-1z M16,70h1v1h-1z M21,70h1v1h-1z M22,70h1v1h-1z M25,70h1v1h-1z M26,70h1v1h-1z M31,70h1v1h-1z M32,70h1v1h-1z M36,70h1v1h-1z M38,70h1v1h-1z M39,70h1v1h-1z M41,70h1v1h-1z M45,70h1v1h-1z M47,70h1v1h-1z M48,70h1v1h-1z M49,70h1v1h-1z M50,70h1v1h-1z M57,70h1v1h-1z M62,70h1v1h-1z M64,70h1v1h-1z M65,70h1v1h-1z M67,70h1v1h-1z M72,70h1v1h-1z M74,70h1v1h-1z M78,70h1v1h-1z M79,70h1v1h-1z M80,70h1v1h-1z M83,70h1v1h-1z M84,70h1v1h-1z M86,70h1v1h-1z M87,70h1v1h-1z M89,70h1v1h-1z M95,70h1v1h-1z M98,70h1v1h-1z M102,70h1v1h-1z M103,70h1v1h-1z M104,70h1v1h-1z M105,70h1v1h-1z M107,70h1v1h-1z M108,70h1v1h-1z M4,71h1v1h-1z M5,71h1v1h-1z M6,71h1v1h-1z M7,71h1v1h-1z M11,71h1v1h-1z M13,71h1v1h-1z M14,71h1v1h-1z M16,71h1v1h-1z M17,71h1v1h-1z M19,71h1v1h-1z M20,71h1v1h-1z M21,71h1v1h-1z M22,71h1v1h-1z M23,71h1v1h-1z M24,71h1v1h-1z M25,71h1v1h-1z M26,71h1v1h-1z M27,71h1v1h-1z M30,71h1v1h-1z M32,71h1v1h-1z M33,71h1v1h-1z M34,71h1v1h-1z M35,71h1v1h-1z M37,71h1v1h-1z M44,71h1v1h-1z M45,71h1v1h-1z M46,71h1v1h-1z M52,71h1v1h-1z M53,71h1v1h-1z M58,71h1v1h-1z M59,71h1v1h-1z M61,71h1v1h-1z M62,71h1v1h-1z M63,71h1v1h-1z M65,71h1v1h-1z M67,71h1v1h-1z M68,71h1v1h-1z M70,71h1v1h-1z M71,71h1v1h-1z M77,71h1v1h-1z M80,71h1v1h-1z M81,71h1v1h-1z M85,71h1v1h-1z M90,71h1v1h-1z M91,71h1v1h-1z M92,71h1v1h-1z M94,71h1v1h-1z M95,71h1v1h-1z M97,71h1v1h-1z M99,71h1v1h-1z M107,71h1v1h-1z M108,71h1v1h-1z M5,72h1v1h-1z M6,72h1v1h-1z M7,72h1v1h-1z M9,72h1v1h-1z M10,72h1v1h-1z M12,72h1v1h-1z M13,72h1v1h-1z M16,72h1v1h-1z M18,72h1v1h-1z M21,72h1v1h-1z M23,72h1v1h-1z M25,72h1v1h-1z M27,72h1v1h-1z M28,72h1v1h-1z M29,72h1v1h-1z M30,72h1v1h-1z M31,72h1v1h-1z M33,72h1v1h-1z M34,72h1v1h-1z M36,72h1v1h-1z M38,72h1v1h-1z M39,72h1v1h-1z M40,72h1v1h-1z M41,72h1v1h-1z M45,72h1v1h-1z M51,72h1v1h-1z M52,72h1v1h-1z M54,72h1v1h-1z M55,72h1v1h-1z M58,72h1v1h-1z M63,72h1v1h-1z M65,72h1v1h-1z M67,72h1v1h-1z M72,72h1v1h-1z M78,72h1v1h-1z M80,72h1v1h-1z M82,72h1v1h-1z M83,72h1v1h-1z M84,72h1v1h-1z M88,72h1v1h-1z M89,72h1v1h-1z M91,72h1v1h-1z M92,72h1v1h-1z M93,72h1v1h-1z M94,72h1v1h-1z M98,72h1v1h-1z M102,72h1v1h-1z M106,72h1v1h-1z M107,72h1v1h-1z M108,72h1v1h-1z M7,73h1v1h-1z M16,73h1v1h-1z M18,73h1v1h-1z M21,73h1v1h-1z M24,73h1v1h-1z M26,73h1v1h-1z M28,73h1v1h-1z M31,73h1v1h-1z M38,73h1v1h-1z M40,73h1v1h-1z M44,73h1v1h-1z M45,73h1v1h-1z M48,73h1v1h-1z M49,73h1v1h-1z M50,73h1v1h-1z M51,73h1v1h-1z M55,73h1v1h-1z M59,73h1v1h-1z M60,73h1v1h-1z M61,73h1v1h-1z M62,73h1v1h-1z M65,73h1v1h-1z M66,73h1v1h-1z M70,73h1v1h-1z M71,73h1v1h-1z M76,73h1v1h-1z M81,73h1v1h-1z M83,73h1v1h-1z M84,73h1v1h-1z M88,73h1v1h-1z M89,73h1v1h-1z M92,73h1v1h-1z M95,73h1v1h-1z M96,73h1v1h-1z M98,73h1v1h-1z M99,73h1v1h-1z M100,73h1v1h-1z M102,73h1v1h-1z M105,73h1v1h-1z M108,73h1v1h-1z M4,74h1v1h-1z M5,74h1v1h-1z M6,74h1v1h-1z M9,74h1v1h-1z M10,74h1v1h-1z M13,74h1v1h-1z M16,74h1v1h-1z M17,74h1v1h-1z M19,74h1v1h-1z M20,74h1v1h-1z M21,74h1v1h-1z M23,74h1v1h-1z M24,74h1v1h-1z M25,74h1v1h-1z M30,74h1v1h-1z M31,74h1v1h-1z M33,74h1v1h-1z M35,74h1v1h-1z M36,74h1v1h-1z M38,74h1v1h-1z M41,74h1v1h-1z M44,74h1v1h-1z M50,74h1v1h-1z M54,74h1v1h-1z M56,74h1v1h-1z M57,74h1v1h-1z M59,74h1v1h-1z M60,74h1v1h-1z M62,74h1v1h-1z M63,74h1v1h-1z M65,74h1v1h-1z M71,74h1v1h-1z M72,74h1v1h-1z M73,74h1v1h-1z M74,74h1v1h-1z M77,74h1v1h-1z M83,74h1v1h-1z M84,74h1v1h-1z M86,74h1v1h-1z M87,74h1v1h-1z M88,74h1v1h-1z M89,74h1v1h-1z M91,74h1v1h-1z M95,74h1v1h-1z M96,74h1v1h-1z M98,74h1v1h-1z M103,74h1v1h-1z M104,74h1v1h-1z M105,74h1v1h-1z M107,74h1v1h-1z M6,75h1v1h-1z M7,75h1v1h-1z M9,75h1v1h-1z M16,75h1v1h-1z M17,75h1v1h-1z M20,75h1v1h-1z M24,75h1v1h-1z M26,75h1v1h-1z M27,75h1v1h-1z M28,75h1v1h-1z M29,75h1v1h-1z M30,75h1v1h-1z M32,75h1v1h-1z M34,75h1v1h-1z M38,75h1v1h-1z M44,75h1v1h-1z M47,75h1v1h-1z M49,75h1v1h-1z M52,75h1v1h-1z M53,75h1v1h-1z M56,75h1v1h-1z M58,75h1v1h-1z M59,75h1v1h-1z M66,75h1v1h-1z M67,75h1v1h-1z M68,75h1v1h-1z M69,75h1v1h-1z M70,75h1v1h-1z M78,75h1v1h-1z M83,75h1v1h-1z M92,75h1v1h-1z M93,75h1v1h-1z M94,75h1v1h-1z M97,75h1v1h-1z M101,75h1v1h-1z M108,75h1v1h-1z M4,76h1v1h-1z M7,76h1v1h-1z M8,76h1v1h-1z M9,76h1v1h-1z M10,76h1v1h-1z M11,76h1v1h-1z M12,76h1v1h-1z M18,76h1v1h-1z M19,76h1v1h-1z M22,76h1v1h-1z M23,76h1v1h-1z M25,76h1v1h-1z M27,76h1v1h-1z M28,76h1v1h-1z M29,76h1v1h-1z M30,76h1v1h-1z M31,76h1v1h-1z M32,76h1v1h-1z M35,76h1v1h-1z M39,76h1v1h-1z M43,76h1v1h-1z M44,76h1v1h-1z M47,76h1v1h-1z M48,76h1v1h-1z M50,76h1v1h-1z M51,76h1v1h-1z M52,76h1v1h-1z M53,76h1v1h-1z M54,76h1v1h-1z M55,76h1v1h-1z M56,76h1v1h-1z M58,76h1v1h-1z M60,76h1v1h-1z M61,76h1v1h-1z M63,76h1v1h-1z M64,76h1v1h-1z M65,76h1v1h-1z M66,76h1v1h-1z M67,76h1v1h-1z M68,76h1v1h-1z M70,76h1v1h-1z M71,76h1v1h-1z M72,76h1v1h-1z M74,76h1v1h-1z M75,76h1v1h-1z M76,76h1v1h-1z M77,76h1v1h-1z M78,76h1v1h-1z M79,76h1v1h-1z M80,76h1v1h-1z M82,76h1v1h-1z M84,76h1v1h-1z M92,76h1v1h-1z M94,76h1v1h-1z M95,76h1v1h-1z M99,76h1v1h-1z M100,76h1v1h-1z M101,76h1v1h-1z M102,76h1v1h-1z M103,76h1v1h-1z M104,76h1v1h-1z M105,76h1v1h-1z M106,76h1v1h-1z M107,76h1v1h-1z M5,77h1v1h-1z M6,77h1v1h-1z M8,77h1v1h-1z M12,77h1v1h-1z M14,77h1v1h-1z M16,77h1v1h-1z M18,77h1v1h-1z M24,77h1v1h-1z M26,77h1v1h-1z M28,77h1v1h-1z M32,77h1v1h-1z M33,77h1v1h-1z M36,77h1v1h-1z M37,77h1v1h-1z M39,77h1v1h-1z M41,77h1v1h-1z M46,77h1v1h-1z M47,77h1v1h-1z M50,77h1v1h-1z M52,77h1v1h-1z M56,77h1v1h-1z M57,77h1v1h-1z M58,77h1v1h-1z M59,77h1v1h-1z M62,77h1v1h-1z M69,77h1v1h-1z M70,77h1v1h-1z M72,77h1v1h-1z M73,77h1v1h-1z M76,77h1v1h-1z M80,77h1v1h-1z M83,77h1v1h-1z M84,77h1v1h-1z M85,77h1v1h-1z M86,77h1v1h-1z M87,77h1v1h-1z M91,77h1v1h-1z M93,77h1v1h-1z M94,77h1v1h-1z M96,77h1v1h-1z M97,77h1v1h-1z M98,77h1v1h-1z M100,77h1v1h-1z M104,77h1v1h-1z M105,77h1v1h-1z M106,77h1v1h-1z M108,77h1v1h-1z M4,78h1v1h-1z M6,78h1v1h-1z M7,78h1v1h-1z M8,78h1v1h-1z M10,78h1v1h-1z M12,78h1v1h-1z M13,78h1v1h-1z M14,78h1v1h-1z M15,78h1v1h-1z M17,78h1v1h-1z M18,78h1v1h-1z M21,78h1v1h-1z M22,78h1v1h-1z M23,78h1v1h-1z M25,78h1v1h-1z M28,78h1v1h-1z M30,78h1v1h-1z M32,78h1v1h-1z M35,78h1v1h-1z M38,78h1v1h-1z M39,78h1v1h-1z M40,78h1v1h-1z M41,78h1v1h-1z M47,78h1v1h-1z M49,78h1v1h-1z M50,78h1v1h-1z M51,78h1v1h-1z M52,78h1v1h-1z M54,78h1v1h-1z M56,78h1v1h-1z M57,78h1v1h-1z M59,78h1v1h-1z M61,78h1v1h-1z M62,78h1v1h-1z M63,78h1v1h-1z M64,78h1v1h-1z M65,78h1v1h-1z M68,78h1v1h-1z M74,78h1v1h-1z M75,78h1v1h-1z M76,78h1v1h-1z M78,78h1v1h-1z M80,78h1v1h-1z M83,78h1v1h-1z M86,78h1v1h-1z M89,78h1v1h-1z M91,78h1v1h-1z M95,78h1v1h-1z M96,78h1v1h-1z M98,78h1v1h-1z M100,78h1v1h-1z M102,78h1v1h-1z M104,78h1v1h-1z M105,78h1v1h-1z M106,78h1v1h-1z M107,78h1v1h-1z M5,79h1v1h-1z M7,79h1v1h-1z M8,79h1v1h-1z M12,79h1v1h-1z M18,79h1v1h-1z M20,79h1v1h-1z M21,79h1v1h-1z M22,79h1v1h-1z M24,79h1v1h-1z M26,79h1v1h-1z M27,79h1v1h-1z M28,79h1v1h-1z M32,79h1v1h-1z M34,79h1v1h-1z M35,79h1v1h-1z M42,79h1v1h-1z M43,79h1v1h-1z M44,79h1v1h-1z M46,79h1v1h-1z M47,79h1v1h-1z M49,79h1v1h-1z M51,79h1v1h-1z M52,79h1v1h-1z M56,79h1v1h-1z M58,79h1v1h-1z M59,79h1v1h-1z M65,79h1v1h-1z M68,79h1v1h-1z M69,79h1v1h-1z M70,79h1v1h-1z M71,79h1v1h-1z M74,79h1v1h-1z M75,79h1v1h-1z M76,79h1v1h-1z M80,79h1v1h-1z M81,79h1v1h-1z M83,79h1v1h-1z M89,79h1v1h-1z M90,79h1v1h-1z M92,79h1v1h-1z M93,79h1v1h-1z M97,79h1v1h-1z M99,79h1v1h-1z M100,79h1v1h-1z M104,79h1v1h-1z M105,79h1v1h-1z M4,80h1v1h-1z M8,80h1v1h-1z M9,80h1v1h-1z M10,80h1v1h-1z M11,80h1v1h-1z M12,80h1v1h-1z M14,80h1v1h-1z M15,80h1v1h-1z M19,80h1v1h-1z M20,80h1v1h-1z M21,80h1v1h-1z M25,80h1v1h-1z M27,80h1v1h-1z M28,80h1v1h-1z M29,80h1v1h-1z M30,80h1v1h-1z M31,80h1v1h-1z M32,80h1v1h-1z M35,80h1v1h-1z M36,80h1v1h-1z M38,80h1v1h-1z M41,80h1v1h-1z M43,80h1v1h-1z M44,80h1v1h-1z M46,80h1v1h-1z M47,80h1v1h-1z M50,80h1v1h-1z M51,80h1v1h-1z M52,80h1v1h-1z M53,80h1v1h-1z M54,80h1v1h-1z M55,80h1v1h-1z M56,80h1v1h-1z M58,80h1v1h-1z M61,80h1v1h-1z M63,80h1v1h-1z M66,80h1v1h-1z M67,80h1v1h-1z M70,80h1v1h-1z M74,80h1v1h-1z M75,80h1v1h-1z M76,80h1v1h-1z M77,80h1v1h-1z M78,80h1v1h-1z M79,80h1v1h-1z M80,80h1v1h-1z M82,80h1v1h-1z M83,80h1v1h-1z M86,80h1v1h-1z M88,80h1v1h-1z M89,80h1v1h-1z M90,80h1v1h-1z M92,80h1v1h-1z M93,80h1v1h-1z M94,80h1v1h-1z M95,80h1v1h-1z M96,80h1v1h-1z M99,80h1v1h-1z M100,80h1v1h-1z M101,80h1v1h-1z M102,80h1v1h-1z M103,80h1v1h-1z M104,80h1v1h-1z M105,80h1v1h-1z M108,80h1v1h-1z M4,81h1v1h-1z M6,81h1v1h-1z M7,81h1v1h-1z M8,81h1v1h-1z M9,81h1v1h-1z M12,81h1v1h-1z M13,81h1v1h-1z M14,81h1v1h-1z M17,81h1v1h-1z M20,81h1v1h-1z M22,81h1v1h-1z M28,81h1v1h-1z M30,81h1v1h-1z M32,81h1v1h-1z M35,81h1v1h-1z M36,81h1v1h-1z M39,81h1v1h-1z M40,81h1v1h-1z M43,81h1v1h-1z M44,81h1v1h-1z M45,81h1v1h-1z M47,81h1v1h-1z M48,81h1v1h-1z M49,81h1v1h-1z M50,81h1v1h-1z M52,81h1v1h-1z M54,81h1v1h-1z M61,81h1v1h-1z M64,81h1v1h-1z M72,81h1v1h-1z M73,81h1v1h-1z M74,81h1v1h-1z M78,81h1v1h-1z M81,81h1v1h-1z M82,81h1v1h-1z M84,81h1v1h-1z M88,81h1v1h-1z M91,81h1v1h-1z M92,81h1v1h-1z M96,81h1v1h-1z M98,81h1v1h-1z M99,81h1v1h-1z M105,81h1v1h-1z M106,81h1v1h-1z M4,82h1v1h-1z M9,82h1v1h-1z M10,82h1v1h-1z M11,82h1v1h-1z M14,82h1v1h-1z M16,82h1v1h-1z M19,82h1v1h-1z M20,82h1v1h-1z M21,82h1v1h-1z M22,82h1v1h-1z M24,82h1v1h-1z M26,82h1v1h-1z M27,82h1v1h-1z M28,82h1v1h-1z M32,82h1v1h-1z M36,82h1v1h-1z M37,82h1v1h-1z M38,82h1v1h-1z M40,82h1v1h-1z M45,82h1v1h-1z M47,82h1v1h-1z M50,82h1v1h-1z M51,82h1v1h-1z M52,82h1v1h-1z M56,82h1v1h-1z M59,82h1v1h-1z M62,82h1v1h-1z M63,82h1v1h-1z M64,82h1v1h-1z M67,82h1v1h-1z M71,82h1v1h-1z M72,82h1v1h-1z M73,82h1v1h-1z M74,82h1v1h-1z M75,82h1v1h-1z M76,82h1v1h-1z M78,82h1v1h-1z M80,82h1v1h-1z M83,82h1v1h-1z M84,82h1v1h-1z M86,82h1v1h-1z M88,82h1v1h-1z M89,82h1v1h-1z M95,82h1v1h-1z M96,82h1v1h-1z M97,82h1v1h-1z M98,82h1v1h-1z M101,82h1v1h-1z M103,82h1v1h-1z M104,82h1v1h-1z M105,82h1v1h-1z M106,82h1v1h-1z M4,83h1v1h-1z M6,83h1v1h-1z M13,83h1v1h-1z M15,83h1v1h-1z M17,83h1v1h-1z M18,83h1v1h-1z M19,83h1v1h-1z M20,83h1v1h-1z M21,83h1v1h-1z M22,83h1v1h-1z M25,83h1v1h-1z M26,83h1v1h-1z M27,83h1v1h-1z M28,83h1v1h-1z M30,83h1v1h-1z M32,83h1v1h-1z M33,83h1v1h-1z M34,83h1v1h-1z M41,83h1v1h-1z M42,83h1v1h-1z M43,83h1v1h-1z M44,83h1v1h-1z M46,83h1v1h-1z M47,83h1v1h-1z M49,83h1v1h-1z M50,83h1v1h-1z M51,83h1v1h-1z M54,83h1v1h-1z M55,83h1v1h-1z M57,83h1v1h-1z M59,83h1v1h-1z M61,83h1v1h-1z M65,83h1v1h-1z M66,83h1v1h-1z M68,83h1v1h-1z M70,83h1v1h-1z M71,83h1v1h-1z M75,83h1v1h-1z M77,83h1v1h-1z M82,83h1v1h-1z M83,83h1v1h-1z M85,83h1v1h-1z M86,83h1v1h-1z M90,83h1v1h-1z M91,83h1v1h-1z M92,83h1v1h-1z M97,83h1v1h-1z M99,83h1v1h-1z M100,83h1v1h-1z M101,83h1v1h-1z M102,83h1v1h-1z M104,83h1v1h-1z M107,83h1v1h-1z M108,83h1v1h-1z M4,84h1v1h-1z M7,84h1v1h-1z M10,84h1v1h-1z M11,84h1v1h-1z M15,84h1v1h-1z M17,84h1v1h-1z M18,84h1v1h-1z M19,84h1v1h-1z M21,84h1v1h-1z M23,84h1v1h-1z M26,84h1v1h-1z M27,84h1v1h-1z M28,84h1v1h-1z M29,84h1v1h-1z M30,84h1v1h-1z M35,84h1v1h-1z M36,84h1v1h-1z M38,84h1v1h-1z M40,84h1v1h-1z M41,84h1v1h-1z M46,84h1v1h-1z M48,84h1v1h-1z M49,84h1v1h-1z M50,84h1v1h-1z M51,84h1v1h-1z M54,84h1v1h-1z M57,84h1v1h-1z M59,84h1v1h-1z M60,84h1v1h-1z M64,84h1v1h-1z M65,84h1v1h-1z M73,84h1v1h-1z M79,84h1v1h-1z M80,84h1v1h-1z M81,84h1v1h-1z M82,84h1v1h-1z M84,84h1v1h-1z M87,84h1v1h-1z M90,84h1v1h-1z M93,84h1v1h-1z M94,84h1v1h-1z M96,84h1v1h-1z M97,84h1v1h-1z M102,84h1v1h-1z M103,84h1v1h-1z M104,84h1v1h-1z M106,84h1v1h-1z M107,84h1v1h-1z M108,84h1v1h-1z M5,85h1v1h-1z M6,85h1v1h-1z M9,85h1v1h-1z M13,85h1v1h-1z M14,85h1v1h-1z M16,85h1v1h-1z M17,85h1v1h-1z M18,85h1v1h-1z M19,85h1v1h-1z M21,85h1v1h-1z M22,85h1v1h-1z M23,85h1v1h-1z M26,85h1v1h-1z M28,85h1v1h-1z M29,85h1v1h-1z M30,85h1v1h-1z M32,85h1v1h-1z M33,85h1v1h-1z M34,85h1v1h-1z M35,85h1v1h-1z M37,85h1v1h-1z M38,85h1v1h-1z M40,85h1v1h-1z M45,85h1v1h-1z M46,85h1v1h-1z M48,85h1v1h-1z M49,85h1v1h-1z M54,85h1v1h-1z M55,85h1v1h-1z M56,85h1v1h-1z M59,85h1v1h-1z M64,85h1v1h-1z M68,85h1v1h-1z M69,85h1v1h-1z M70,85h1v1h-1z M72,85h1v1h-1z M74,85h1v1h-1z M78,85h1v1h-1z M80,85h1v1h-1z M81,85h1v1h-1z M82,85h1v1h-1z M83,85h1v1h-1z M84,85h1v1h-1z M87,85h1v1h-1z M90,85h1v1h-1z M92,85h1v1h-1z M93,85h1v1h-1z M94,85h1v1h-1z M95,85h1v1h-1z M96,85h1v1h-1z M101,85h1v1h-1z M102,85h1v1h-1z M103,85h1v1h-1z M105,85h1v1h-1z M106,85h1v1h-1z M107,85h1v1h-1z M108,85h1v1h-1z M4,86h1v1h-1z M5,86h1v1h-1z M8,86h1v1h-1z M9,86h1v1h-1z M10,86h1v1h-1z M13,86h1v1h-1z M14,86h1v1h-1z M15,86h1v1h-1z M16,86h1v1h-1z M17,86h1v1h-1z M18,86h1v1h-1z M19,86h1v1h-1z M22,86h1v1h-1z M23,86h1v1h-1z M24,86h1v1h-1z M26,86h1v1h-1z M27,86h1v1h-1z M30,86h1v1h-1z M32,86h1v1h-1z M35,86h1v1h-1z M36,86h1v1h-1z M38,86h1v1h-1z M39,86h1v1h-1z M40,86h1v1h-1z M41,86h1v1h-1z M44,86h1v1h-1z M50,86h1v1h-1z M52,86h1v1h-1z M53,86h1v1h-1z M56,86h1v1h-1z M57,86h1v1h-1z M59,86h1v1h-1z M60,86h1v1h-1z M62,86h1v1h-1z M67,86h1v1h-1z M71,86h1v1h-1z M72,86h1v1h-1z M74,86h1v1h-1z M75,86h1v1h-1z M76,86h1v1h-1z M78,86h1v1h-1z M80,86h1v1h-1z M83,86h1v1h-1z M86,86h1v1h-1z M88,86h1v1h-1z M89,86h1v1h-1z M93,86h1v1h-1z M96,86h1v1h-1z M97,86h1v1h-1z M98,86h1v1h-1z M99,86h1v1h-1z M101,86h1v1h-1z M106,86h1v1h-1z M107,86h1v1h-1z M5,87h1v1h-1z M8,87h1v1h-1z M12,87h1v1h-1z M13,87h1v1h-1z M16,87h1v1h-1z M17,87h1v1h-1z M18,87h1v1h-1z M22,87h1v1h-1z M23,87h1v1h-1z M29,87h1v1h-1z M31,87h1v1h-1z M33,87h1v1h-1z M37,87h1v1h-1z M38,87h1v1h-1z M44,87h1v1h-1z M47,87h1v1h-1z M49,87h1v1h-1z M50,87h1v1h-1z M53,87h1v1h-1z M54,87h1v1h-1z M58,87h1v1h-1z M59,87h1v1h-1z M65,87h1v1h-1z M66,87h1v1h-1z M68,87h1v1h-1z M69,87h1v1h-1z M74,87h1v1h-1z M76,87h1v1h-1z M78,87h1v1h-1z M79,87h1v1h-1z M81,87h1v1h-1z M83,87h1v1h-1z M87,87h1v1h-1z M89,87h1v1h-1z M90,87h1v1h-1z M91,87h1v1h-1z M92,87h1v1h-1z M93,87h1v1h-1z M94,87h1v1h-1z M97,87h1v1h-1z M99,87h1v1h-1z M100,87h1v1h-1z M102,87h1v1h-1z M103,87h1v1h-1z M104,87h1v1h-1z M107,87h1v1h-1z M108,87h1v1h-1z M4,88h1v1h-1z M6,88h1v1h-1z M7,88h1v1h-1z M8,88h1v1h-1z M9,88h1v1h-1z M10,88h1v1h-1z M15,88h1v1h-1z M16,88h1v1h-1z M18,88h1v1h-1z M19,88h1v1h-1z M20,88h1v1h-1z M23,88h1v1h-1z M24,88h1v1h-1z M25,88h1v1h-1z M26,88h1v1h-1z M27,88h1v1h-1z M29,88h1v1h-1z M31,88h1v1h-1z M34,88h1v1h-1z M36,88h1v1h-1z M41,88h1v1h-1z M43,88h1v1h-1z M44,88h1v1h-1z M46,88h1v1h-1z M47,88h1v1h-1z M49,88h1v1h-1z M50,88h1v1h-1z M53,88h1v1h-1z M57,88h1v1h-1z M58,88h1v1h-1z M59,88h1v1h-1z M60,88h1v1h-1z M61,88h1v1h-1z M64,88h1v1h-1z M65,88h1v1h-1z M67,88h1v1h-1z M69,88h1v1h-1z M72,88h1v1h-1z M73,88h1v1h-1z M75,88h1v1h-1z M77,88h1v1h-1z M78,88h1v1h-1z M79,88h1v1h-1z M88,88h1v1h-1z M92,88h1v1h-1z M94,88h1v1h-1z M96,88h1v1h-1z M97,88h1v1h-1z M101,88h1v1h-1z M102,88h1v1h-1z M103,88h1v1h-1z M107,88h1v1h-1z M108,88h1v1h-1z M4,89h1v1h-1z M5,89h1v1h-1z M6,89h1v1h-1z M7,89h1v1h-1z M9,89h1v1h-1z M12,89h1v1h-1z M17,89h1v1h-1z M18,89h1v1h-1z M22,89h1v1h-1z M30,89h1v1h-1z M31,89h1v1h-1z M33,89h1v1h-1z M34,89h1v1h-1z M36,89h1v1h-1z M37,89h1v1h-1z M40,89h1v1h-1z M42,89h1v1h-1z M43,89h1v1h-1z M44,89h1v1h-1z M45,89h1v1h-1z M48,89h1v1h-1z M49,89h1v1h-1z M50,89h1v1h-1z M54,89h1v1h-1z M55,89h1v1h-1z M56,89h1v1h-1z M58,89h1v1h-1z M59,89h1v1h-1z M61,89h1v1h-1z M62,89h1v1h-1z M67,89h1v1h-1z M68,89h1v1h-1z M69,89h1v1h-1z M71,89h1v1h-1z M72,89h1v1h-1z M74,89h1v1h-1z M78,89h1v1h-1z M80,89h1v1h-1z M81,89h1v1h-1z M82,89h1v1h-1z M86,89h1v1h-1z M92,89h1v1h-1z M94,89h1v1h-1z M95,89h1v1h-1z M96,89h1v1h-1z M97,89h1v1h-1z M99,89h1v1h-1z M103,89h1v1h-1z M105,89h1v1h-1z M106,89h1v1h-1z M108,89h1v1h-1z M4,90h1v1h-1z M7,90h1v1h-1z M8,90h1v1h-1z M9,90h1v1h-1z M10,90h1v1h-1z M12,90h1v1h-1z M13,90h1v1h-1z M14,90h1v1h-1z M15,90h1v1h-1z M18,90h1v1h-1z M19,90h1v1h-1z M20,90h1v1h-1z M21,90h1v1h-1z M22,90h1v1h-1z M24,90h1v1h-1z M32,90h1v1h-1z M33,90h1v1h-1z M35,90h1v1h-1z M38,90h1v1h-1z M39,90h1v1h-1z M40,90h1v1h-1z M41,90h1v1h-1z M43,90h1v1h-1z M47,90h1v1h-1z M48,90h1v1h-1z M50,90h1v1h-1z M51,90h1v1h-1z M52,90h1v1h-1z M54,90h1v1h-1z M56,90h1v1h-1z M59,90h1v1h-1z M60,90h1v1h-1z M62,90h1v1h-1z M63,90h1v1h-1z M64,90h1v1h-1z M65,90h1v1h-1z M67,90h1v1h-1z M71,90h1v1h-1z M74,90h1v1h-1z M80,90h1v1h-1z M86,90h1v1h-1z M88,90h1v1h-1z M89,90h1v1h-1z M95,90h1v1h-1z M98,90h1v1h-1z M99,90h1v1h-1z M101,90h1v1h-1z M104,90h1v1h-1z M105,90h1v1h-1z M107,90h1v1h-1z M5,91h1v1h-1z M8,91h1v1h-1z M11,91h1v1h-1z M12,91h1v1h-1z M13,91h1v1h-1z M14,91h1v1h-1z M15,91h1v1h-1z M16,91h1v1h-1z M18,91h1v1h-1z M19,91h1v1h-1z M21,91h1v1h-1z M25,91h1v1h-1z M29,91h1v1h-1z M32,91h1v1h-1z M34,91h1v1h-1z M35,91h1v1h-1z M38,91h1v1h-1z M42,91h1v1h-1z M44,91h1v1h-1z M45,91h1v1h-1z M46,91h1v1h-1z M49,91h1v1h-1z M50,91h1v1h-1z M51,91h1v1h-1z M52,91h1v1h-1z M53,91h1v1h-1z M54,91h1v1h-1z M55,91h1v1h-1z M56,91h1v1h-1z M57,91h1v1h-1z M59,91h1v1h-1z M61,91h1v1h-1z M65,91h1v1h-1z M66,91h1v1h-1z M68,91h1v1h-1z M71,91h1v1h-1z M73,91h1v1h-1z M74,91h1v1h-1z M76,91h1v1h-1z M77,91h1v1h-1z M79,91h1v1h-1z M83,91h1v1h-1z M87,91h1v1h-1z M89,91h1v1h-1z M90,91h1v1h-1z M91,91h1v1h-1z M92,91h1v1h-1z M93,91h1v1h-1z M94,91h1v1h-1z M95,91h1v1h-1z M98,91h1v1h-1z M99,91h1v1h-1z M100,91h1v1h-1z M101,91h1v1h-1z M102,91h1v1h-1z M104,91h1v1h-1z M105,91h1v1h-1z M107,91h1v1h-1z M6,92h1v1h-1z M7,92h1v1h-1z M8,92h1v1h-1z M9,92h1v1h-1z M10,92h1v1h-1z M12,92h1v1h-1z M13,92h1v1h-1z M18,92h1v1h-1z M19,92h1v1h-1z M20,92h1v1h-1z M21,92h1v1h-1z M23,92h1v1h-1z M27,92h1v1h-1z M29,92h1v1h-1z M30,92h1v1h-1z M33,92h1v1h-1z M34,92h1v1h-1z M35,92h1v1h-1z M36,92h1v1h-1z M38,92h1v1h-1z M40,92h1v1h-1z M41,92h1v1h-1z M43,92h1v1h-1z M44,92h1v1h-1z M46,92h1v1h-1z M48,92h1v1h-1z M50,92h1v1h-1z M51,92h1v1h-1z M55,92h1v1h-1z M58,92h1v1h-1z M59,92h1v1h-1z M61,92h1v1h-1z M62,92h1v1h-1z M65,92h1v1h-1z M66,92h1v1h-1z M69,92h1v1h-1z M70,92h1v1h-1z M75,92h1v1h-1z M76,92h1v1h-1z M78,92h1v1h-1z M79,92h1v1h-1z M82,92h1v1h-1z M83,92h1v1h-1z M85,92h1v1h-1z M87,92h1v1h-1z M90,92h1v1h-1z M92,92h1v1h-1z M93,92h1v1h-1z M94,92h1v1h-1z M95,92h1v1h-1z M98,92h1v1h-1z M102,92h1v1h-1z M105,92h1v1h-1z M107,92h1v1h-1z M4,93h1v1h-1z M5,93h1v1h-1z M9,93h1v1h-1z M11,93h1v1h-1z M13,93h1v1h-1z M14,93h1v1h-1z M16,93h1v1h-1z M17,93h1v1h-1z M18,93h1v1h-1z M20,93h1v1h-1z M21,93h1v1h-1z M22,93h1v1h-1z M23,93h1v1h-1z M24,93h1v1h-1z M25,93h1v1h-1z M29,93h1v1h-1z M30,93h1v1h-1z M32,93h1v1h-1z M33,93h1v1h-1z M35,93h1v1h-1z M36,93h1v1h-1z M37,93h1v1h-1z M41,93h1v1h-1z M42,93h1v1h-1z M43,93h1v1h-1z M45,93h1v1h-1z M48,93h1v1h-1z M54,93h1v1h-1z M55,93h1v1h-1z M64,93h1v1h-1z M66,93h1v1h-1z M69,93h1v1h-1z M74,93h1v1h-1z M78,93h1v1h-1z M79,93h1v1h-1z M80,93h1v1h-1z M81,93h1v1h-1z M82,93h1v1h-1z M83,93h1v1h-1z M84,93h1v1h-1z M87,93h1v1h-1z M88,93h1v1h-1z M89,93h1v1h-1z M90,93h1v1h-1z M93,93h1v1h-1z M95,93h1v1h-1z M97,93h1v1h-1z M98,93h1v1h-1z M101,93h1v1h-1z M103,93h1v1h-1z M106,93h1v1h-1z M6,94h1v1h-1z M7,94h1v1h-1z M8,94h1v1h-1z M9,94h1v1h-1z M10,94h1v1h-1z M11,94h1v1h-1z M12,94h1v1h-1z M15,94h1v1h-1z M18,94h1v1h-1z M19,94h1v1h-1z M21,94h1v1h-1z M22,94h1v1h-1z M23,94h1v1h-1z M28,94h1v1h-1z M29,94h1v1h-1z M30,94h1v1h-1z M32,94h1v1h-1z M33,94h1v1h-1z M38,94h1v1h-1z M40,94h1v1h-1z M41,94h1v1h-1z M47,94h1v1h-1z M48,94h1v1h-1z M50,94h1v1h-1z M56,94h1v1h-1z M57,94h1v1h-1z M60,94h1v1h-1z M62,94h1v1h-1z M63,94h1v1h-1z M64,94h1v1h-1z M67,94h1v1h-1z M74,94h1v1h-1z M75,94h1v1h-1z M80,94h1v1h-1z M81,94h1v1h-1z M84,94h1v1h-1z M85,94h1v1h-1z M86,94h1v1h-1z M87,94h1v1h-1z M88,94h1v1h-1z M89,94h1v1h-1z M91,94h1v1h-1z M92,94h1v1h-1z M97,94h1v1h-1z M98,94h1v1h-1z M99,94h1v1h-1z M100,94h1v1h-1z M101,94h1v1h-1z M103,94h1v1h-1z M104,94h1v1h-1z M107,94h1v1h-1z M7,95h1v1h-1z M9,95h1v1h-1z M14,95h1v1h-1z M17,95h1v1h-1z M21,95h1v1h-1z M23,95h1v1h-1z M27,95h1v1h-1z M31,95h1v1h-1z M32,95h1v1h-1z M34,95h1v1h-1z M35,95h1v1h-1z M37,95h1v1h-1z M38,95h1v1h-1z M41,95h1v1h-1z M42,95h1v1h-1z M44,95h1v1h-1z M45,95h1v1h-1z M50,95h1v1h-1z M52,95h1v1h-1z M58,95h1v1h-1z M59,95h1v1h-1z M61,95h1v1h-1z M62,95h1v1h-1z M65,95h1v1h-1z M66,95h1v1h-1z M68,95h1v1h-1z M69,95h1v1h-1z M71,95h1v1h-1z M75,95h1v1h-1z M76,95h1v1h-1z M77,95h1v1h-1z M79,95h1v1h-1z M80,95h1v1h-1z M81,95h1v1h-1z M82,95h1v1h-1z M83,95h1v1h-1z M85,95h1v1h-1z M92,95h1v1h-1z M93,95h1v1h-1z M94,95h1v1h-1z M95,95h1v1h-1z M100,95h1v1h-1z M103,95h1v1h-1z M108,95h1v1h-1z M4,96h1v1h-1z M5,96h1v1h-1z M6,96h1v1h-1z M10,96h1v1h-1z M11,96h1v1h-1z M12,96h1v1h-1z M13,96h1v1h-1z M14,96h1v1h-1z M15,96h1v1h-1z M20,96h1v1h-1z M21,96h1v1h-1z M22,96h1v1h-1z M23,96h1v1h-1z M24,96h1v1h-1z M27,96h1v1h-1z M32,96h1v1h-1z M33,96h1v1h-1z M34,96h1v1h-1z M37,96h1v1h-1z M38,96h1v1h-1z M41,96h1v1h-1z M42,96h1v1h-1z M44,96h1v1h-1z M46,96h1v1h-1z M47,96h1v1h-1z M50,96h1v1h-1z M51,96h1v1h-1z M53,96h1v1h-1z M58,96h1v1h-1z M62,96h1v1h-1z M63,96h1v1h-1z M64,96h1v1h-1z M66,96h1v1h-1z M67,96h1v1h-1z M71,96h1v1h-1z M77,96h1v1h-1z M80,96h1v1h-1z M81,96h1v1h-1z M82,96h1v1h-1z M85,96h1v1h-1z M88,96h1v1h-1z M90,96h1v1h-1z M91,96h1v1h-1z M92,96h1v1h-1z M94,96h1v1h-1z M97,96h1v1h-1z M100,96h1v1h-1z M102,96h1v1h-1z M104,96h1v1h-1z M105,96h1v1h-1z M106,96h1v1h-1z M108,96h1v1h-1z M4,97h1v1h-1z M5,97h1v1h-1z M9,97h1v1h-1z M12,97h1v1h-1z M13,97h1v1h-1z M16,97h1v1h-1z M17,97h1v1h-1z M21,97h1v1h-1z M22,97h1v1h-1z M24,97h1v1h-1z M28,97h1v1h-1z M30,97h1v1h-1z M31,97h1v1h-1z M32,97h1v1h-1z M33,97h1v1h-1z M36,97h1v1h-1z M37,97h1v1h-1z M38,97h1v1h-1z M39,97h1v1h-1z M41,97h1v1h-1z M42,97h1v1h-1z M43,97h1v1h-1z M46,97h1v1h-1z M47,97h1v1h-1z M48,97h1v1h-1z M54,97h1v1h-1z M56,97h1v1h-1z M60,97h1v1h-1z M69,97h1v1h-1z M70,97h1v1h-1z M71,97h1v1h-1z M72,97h1v1h-1z M73,97h1v1h-1z M76,97h1v1h-1z M78,97h1v1h-1z M79,97h1v1h-1z M81,97h1v1h-1z M82,97h1v1h-1z M84,97h1v1h-1z M85,97h1v1h-1z M87,97h1v1h-1z M88,97h1v1h-1z M90,97h1v1h-1z M91,97h1v1h-1z M92,97h1v1h-1z M93,97h1v1h-1z M94,97h1v1h-1z M95,97h1v1h-1z M98,97h1v1h-1z M99,97h1v1h-1z M101,97h1v1h-1z M102,97h1v1h-1z M103,97h1v1h-1z M106,97h1v1h-1z M4,98h1v1h-1z M5,98h1v1h-1z M6,98h1v1h-1z M10,98h1v1h-1z M11,98h1v1h-1z M15,98h1v1h-1z M18,98h1v1h-1z M21,98h1v1h-1z M22,98h1v1h-1z M26,98h1v1h-1z M28,98h1v1h-1z M29,98h1v1h-1z M30,98h1v1h-1z M32,98h1v1h-1z M38,98h1v1h-1z M40,98h1v1h-1z M41,98h1v1h-1z M43,98h1v1h-1z M50,98h1v1h-1z M51,98h1v1h-1z M52,98h1v1h-1z M53,98h1v1h-1z M56,98h1v1h-1z M59,98h1v1h-1z M62,98h1v1h-1z M64,98h1v1h-1z M65,98h1v1h-1z M68,98h1v1h-1z M69,98h1v1h-1z M71,98h1v1h-1z M73,98h1v1h-1z M74,98h1v1h-1z M77,98h1v1h-1z M80,98h1v1h-1z M83,98h1v1h-1z M84,98h1v1h-1z M86,98h1v1h-1z M88,98h1v1h-1z M91,98h1v1h-1z M92,98h1v1h-1z M95,98h1v1h-1z M96,98h1v1h-1z M97,98h1v1h-1z M98,98h1v1h-1z M99,98h1v1h-1z M100,98h1v1h-1z M101,98h1v1h-1z M103,98h1v1h-1z M104,98h1v1h-1z M105,98h1v1h-1z M106,98h1v1h-1z M6,99h1v1h-1z M8,99h1v1h-1z M9,99h1v1h-1z M12,99h1v1h-1z M15,99h1v1h-1z M16,99h1v1h-1z M17,99h1v1h-1z M20,99h1v1h-1z M24,99h1v1h-1z M27,99h1v1h-1z M30,99h1v1h-1z M31,99h1v1h-1z M33,99h1v1h-1z M35,99h1v1h-1z M37,99h1v1h-1z M39,99h1v1h-1z M41,99h1v1h-1z M42,99h1v1h-1z M44,99h1v1h-1z M46,99h1v1h-1z M47,99h1v1h-1z M49,99h1v1h-1z M51,99h1v1h-1z M52,99h1v1h-1z M53,99h1v1h-1z M54,99h1v1h-1z M55,99h1v1h-1z M59,99h1v1h-1z M61,99h1v1h-1z M65,99h1v1h-1z M68,99h1v1h-1z M70,99h1v1h-1z M71,99h1v1h-1z M75,99h1v1h-1z M79,99h1v1h-1z M81,99h1v1h-1z M87,99h1v1h-1z M90,99h1v1h-1z M92,99h1v1h-1z M95,99h1v1h-1z M101,99h1v1h-1z M102,99h1v1h-1z M104,99h1v1h-1z M105,99h1v1h-1z M108,99h1v1h-1z M7,100h1v1h-1z M8,100h1v1h-1z M10,100h1v1h-1z M13,100h1v1h-1z M14,100h1v1h-1z M17,100h1v1h-1z M21,100h1v1h-1z M25,100h1v1h-1z M28,100h1v1h-1z M29,100h1v1h-1z M30,100h1v1h-1z M31,100h1v1h-1z M32,100h1v1h-1z M33,100h1v1h-1z M34,100h1v1h-1z M35,100h1v1h-1z M36,100h1v1h-1z M37,100h1v1h-1z M39,100h1v1h-1z M41,100h1v1h-1z M45,100h1v1h-1z M46,100h1v1h-1z M50,100h1v1h-1z M51,100h1v1h-1z M52,100h1v1h-1z M53,100h1v1h-1z M54,100h1v1h-1z M55,100h1v1h-1z M56,100h1v1h-1z M58,100h1v1h-1z M59,100h1v1h-1z M60,100h1v1h-1z M62,100h1v1h-1z M64,100h1v1h-1z M66,100h1v1h-1z M69,100h1v1h-1z M72,100h1v1h-1z M75,100h1v1h-1z M76,100h1v1h-1z M77,100h1v1h-1z M78,100h1v1h-1z M79,100h1v1h-1z M80,100h1v1h-1z M81,100h1v1h-1z M82,100h1v1h-1z M85,100h1v1h-1z M86,100h1v1h-1z M89,100h1v1h-1z M93,100h1v1h-1z M94,100h1v1h-1z M100,100h1v1h-1z M101,100h1v1h-1z M102,100h1v1h-1z M103,100h1v1h-1z M104,100h1v1h-1z M105,100h1v1h-1z M108,100h1v1h-1z M12,101h1v1h-1z M14,101h1v1h-1z M15,101h1v1h-1z M16,101h1v1h-1z M20,101h1v1h-1z M22,101h1v1h-1z M24,101h1v1h-1z M26,101h1v1h-1z M27,101h1v1h-1z M28,101h1v1h-1z M32,101h1v1h-1z M33,101h1v1h-1z M34,101h1v1h-1z M35,101h1v1h-1z M38,101h1v1h-1z M40,101h1v1h-1z M41,101h1v1h-1z M45,101h1v1h-1z M49,101h1v1h-1z M51,101h1v1h-1z M52,101h1v1h-1z M56,101h1v1h-1z M59,101h1v1h-1z M61,101h1v1h-1z M64,101h1v1h-1z M65,101h1v1h-1z M66,101h1v1h-1z M69,101h1v1h-1z M70,101h1v1h-1z M72,101h1v1h-1z M73,101h1v1h-1z M74,101h1v1h-1z M76,101h1v1h-1z M80,101h1v1h-1z M82,101h1v1h-1z M87,101h1v1h-1z M88,101h1v1h-1z M89,101h1v1h-1z M91,101h1v1h-1z M93,101h1v1h-1z M94,101h1v1h-1z M98,101h1v1h-1z M100,101h1v1h-1z M104,101h1v1h-1z M105,101h1v1h-1z M106,101h1v1h-1z M108,101h1v1h-1z M4,102h1v1h-1z M5,102h1v1h-1z M6,102h1v1h-1z M7,102h1v1h-1z M8,102h1v1h-1z M9,102h1v1h-1z M10,102h1v1h-1z M13,102h1v1h-1z M18,102h1v1h-1z M20,102h1v1h-1z M24,102h1v1h-1z M27,102h1v1h-1z M28,102h1v1h-1z M30,102h1v1h-1z M32,102h1v1h-1z M35,102h1v1h-1z M38,102h1v1h-1z M45,102h1v1h-1z M47,102h1v1h-1z M50,102h1v1h-1z M51,102h1v1h-1z M52,102h1v1h-1z M54,102h1v1h-1z M56,102h1v1h-1z M57,102h1v1h-1z M62,102h1v1h-1z M63,102h1v1h-1z M65,102h1v1h-1z M74,102h1v1h-1z M75,102h1v1h-1z M76,102h1v1h-1z M78,102h1v1h-1z M80,102h1v1h-1z M81,102h1v1h-1z M83,102h1v1h-1z M86,102h1v1h-1z M87,102h1v1h-1z M88,102h1v1h-1z M89,102h1v1h-1z M92,102h1v1h-1z M95,102h1v1h-1z M96,102h1v1h-1z M97,102h1v1h-1z M98,102h1v1h-1z M100,102h1v1h-1z M102,102h1v1h-1z M104,102h1v1h-1z M105,102h1v1h-1z M107,102h1v1h-1z M4,103h1v1h-1z M10,103h1v1h-1z M12,103h1v1h-1z M13,103h1v1h-1z M15,103h1v1h-1z M16,103h1v1h-1z M17,103h1v1h-1z M21,103h1v1h-1z M22,103h1v1h-1z M23,103h1v1h-1z M24,103h1v1h-1z M25,103h1v1h-1z M27,103h1v1h-1z M28,103h1v1h-1z M32,103h1v1h-1z M33,103h1v1h-1z M34,103h1v1h-1z M35,103h1v1h-1z M41,103h1v1h-1z M42,103h1v1h-1z M44,103h1v1h-1z M45,103h1v1h-1z M46,103h1v1h-1z M47,103h1v1h-1z M49,103h1v1h-1z M52,103h1v1h-1z M56,103h1v1h-1z M57,103h1v1h-1z M58,103h1v1h-1z M59,103h1v1h-1z M61,103h1v1h-1z M68,103h1v1h-1z M71,103h1v1h-1z M76,103h1v1h-1z M80,103h1v1h-1z M82,103h1v1h-1z M83,103h1v1h-1z M86,103h1v1h-1z M89,103h1v1h-1z M90,103h1v1h-1z M92,103h1v1h-1z M93,103h1v1h-1z M94,103h1v1h-1z M100,103h1v1h-1z M104,103h1v1h-1z M4,104h1v1h-1z M6,104h1v1h-1z M7,104h1v1h-1z M8,104h1v1h-1z M10,104h1v1h-1z M12,104h1v1h-1z M14,104h1v1h-1z M15,104h1v1h-1z M16,104h1v1h-1z M17,104h1v1h-1z M18,104h1v1h-1z M19,104h1v1h-1z M20,104h1v1h-1z M21,104h1v1h-1z M22,104h1v1h-1z M24,104h1v1h-1z M25,104h1v1h-1z M28,104h1v1h-1z M29,104h1v1h-1z M30,104h1v1h-1z M31,104h1v1h-1z M32,104h1v1h-1z M33,104h1v1h-1z M34,104h1v1h-1z M36,104h1v1h-1z M37,104h1v1h-1z M39,104h1v1h-1z M44,104h1v1h-1z M49,104h1v1h-1z M51,104h1v1h-1z M52,104h1v1h-1z M53,104h1v1h-1z M54,104h1v1h-1z M55,104h1v1h-1z M56,104h1v1h-1z M59,104h1v1h-1z M61,104h1v1h-1z M62,104h1v1h-1z M64,104h1v1h-1z M66,104h1v1h-1z M67,104h1v1h-1z M70,104h1v1h-1z M71,104h1v1h-1z M73,104h1v1h-1z M76,104h1v1h-1z M77,104h1v1h-1z M78,104h1v1h-1z M79,104h1v1h-1z M80,104h1v1h-1z M82,104h1v1h-1z M83,104h1v1h-1z M84,104h1v1h-1z M85,104h1v1h-1z M90,104h1v1h-1z M94,104h1v1h-1z M98,104h1v1h-1z M99,104h1v1h-1z M100,104h1v1h-1z M101,104h1v1h-1z M102,104h1v1h-1z M103,104h1v1h-1z M104,104h1v1h-1z M105,104h1v1h-1z M108,104h1v1h-1z M4,105h1v1h-1z M6,105h1v1h-1z M7,105h1v1h-1z M8,105h1v1h-1z M10,105h1v1h-1z M13,105h1v1h-1z M14,105h1v1h-1z M15,105h1v1h-1z M16,105h1v1h-1z M17,105h1v1h-1z M19,105h1v1h-1z M22,105h1v1h-1z M29,105h1v1h-1z M33,105h1v1h-1z M35,105h1v1h-1z M39,105h1v1h-1z M41,105h1v1h-1z M45,105h1v1h-1z M47,105h1v1h-1z M49,105h1v1h-1z M50,105h1v1h-1z M51,105h1v1h-1z M54,105h1v1h-1z M57,105h1v1h-1z M58,105h1v1h-1z M60,105h1v1h-1z M65,105h1v1h-1z M67,105h1v1h-1z M69,105h1v1h-1z M70,105h1v1h-1z M72,105h1v1h-1z M74,105h1v1h-1z M75,105h1v1h-1z M76,105h1v1h-1z M80,105h1v1h-1z M81,105h1v1h-1z M82,105h1v1h-1z M84,105h1v1h-1z M85,105h1v1h-1z M86,105h1v1h-1z M87,105h1v1h-1z M88,105h1v1h-1z M89,105h1v1h-1z M90,105h1v1h-1z M91,105h1v1h-1z M96,105h1v1h-1z M97,105h1v1h-1z M101,105h1v1h-1z M102,105h1v1h-1z M106,105h1v1h-1z M107,105h1v1h-1z M108,105h1v1h-1z M4,106h1v1h-1z M6,106h1v1h-1z M7,106h1v1h-1z M8,106h1v1h-1z M10,106h1v1h-1z M17,106h1v1h-1z M21,106h1v1h-1z M23,106h1v1h-1z M24,106h1v1h-1z M25,106h1v1h-1z M26,106h1v1h-1z M28,106h1v1h-1z M31,106h1v1h-1z M32,106h1v1h-1z M38,106h1v1h-1z M43,106h1v1h-1z M44,106h1v1h-1z M45,106h1v1h-1z M48,106h1v1h-1z M50,106h1v1h-1z M52,106h1v1h-1z M53,106h1v1h-1z M55,106h1v1h-1z M56,106h1v1h-1z M59,106h1v1h-1z M62,106h1v1h-1z M63,106h1v1h-1z M64,106h1v1h-1z M69,106h1v1h-1z M71,106h1v1h-1z M73,106h1v1h-1z M74,106h1v1h-1z M75,106h1v1h-1z M76,106h1v1h-1z M77,106h1v1h-1z M79,106h1v1h-1z M83,106h1v1h-1z M85,106h1v1h-1z M86,106h1v1h-1z M88,106h1v1h-1z M89,106h1v1h-1z M91,106h1v1h-1z M93,106h1v1h-1z M98,106h1v1h-1z M101,106h1v1h-1z M102,106h1v1h-1z M104,106h1v1h-1z M106,106h1v1h-1z M4,107h1v1h-1z M10,107h1v1h-1z M12,107h1v1h-1z M14,107h1v1h-1z M15,107h1v1h-1z M17,107h1v1h-1z M18,107h1v1h-1z M19,107h1v1h-1z M21,107h1v1h-1z M23,107h1v1h-1z M26,107h1v1h-1z M27,107h1v1h-1z M29,107h1v1h-1z M30,107h1v1h-1z M32,107h1v1h-1z M34,107h1v1h-1z M35,107h1v1h-1z M42,107h1v1h-1z M44,107h1v1h-1z M46,107h1v1h-1z M47,107h1v1h-1z M49,107h1v1h-1z M50,107h1v1h-1z M54,107h1v1h-1z M56,107h1v1h-1z M58,107h1v1h-1z M59,107h1v1h-1z M61,107h1v1h-1z M62,107h1v1h-1z M65,107h1v1h-1z M66,107h1v1h-1z M68,107h1v1h-1z M70,107h1v1h-1z M71,107h1v1h-1z M77,107h1v1h-1z M80,107h1v1h-1z M81,107h1v1h-1z M83,107h1v1h-1z M91,107h1v1h-1z M92,107h1v1h-1z M94,107h1v1h-1z M95,107h1v1h-1z M97,107h1v1h-1z M99,107h1v1h-1z M101,107h1v1h-1z M103,107h1v1h-1z M104,107h1v1h-1z M105,107h1v1h-1z M4,108h1v1h-1z M5,108h1v1h-1z M6,108h1v1h-1z M7,108h1v1h-1z M8,108h1v1h-1z M9,108h1v1h-1z M10,108h1v1h-1z M12,108h1v1h-1z M14,108h1v1h-1z M15,108h1v1h-1z M17,108h1v1h-1z M20,108h1v1h-1z M22,108h1v1h-1z M23,108h1v1h-1z M26,108h1v1h-1z M30,108h1v1h-1z M33,108h1v1h-1z M34,108h1v1h-1z M36,108h1v1h-1z M38,108h1v1h-1z M42,108h1v1h-1z M45,108h1v1h-1z M46,108h1v1h-1z M48,108h1v1h-1z M49,108h1v1h-1z M52,108h1v1h-1z M54,108h1v1h-1z M58,108h1v1h-1z M59,108h1v1h-1z M62,108h1v1h-1z M65,108h1v1h-1z M69,108h1v1h-1z M70,108h1v1h-1z M72,108h1v1h-1z M77,108h1v1h-1z M82,108h1v1h-1z M89,108h1v1h-1z M92,108h1v1h-1z M93,108h1v1h-1z M95,108h1v1h-1z M96,108h1v1h-1z M98,108h1v1h-1z M99,108h1v1h-1z M104,108h1v1h-1z M108,108h1v1h-1z" fill="#000000"/>
</svg>
