<?xml version="1.0" encoding="UTF-8"?>
<!DOCTYPE svg PUBLIC "-//W3C//DTD SVG 1.1//EN" "http://www.w3.org/Graphics/SVG/1.1/DTD/svg11.dtd">
<svg xmlns="http://www.w3.org/2000/svg" version="1.1" viewBox="0 0 113 113" stroke="none">
	<rect width="100%" height="100%" fill="#FFFFFF"/>
	<path d="M4,4h1v1h-1z M5,4h1v1h-1z M6,4h1v1h-1z M7,4h1v1h-1z M8,4h1v1h-1z M9,4h1v1h-1z M10,4h1v1h-1z M12,4h1v1h-1z M14,4h1v1h-1z M16,4h1v1h-1z M17,4h1v1h-1z M19,4h1v1h-1z M26,4h1v1h-1z M27,4h1v1h-1z M28,4h1v1h-1z M31,4h1v1h-1z M34,4h1v1h-1z M37,4h1v1h-1z M38,4h1v1h-1z M39,4h1v1h-1z M41,4h1v1h-1z M45,4h1v1h-1z M46,4h1v1h-1z M47,4h1v1h-1z M48,4h1v1h-1z M50,4h1v1h-1z M51,4h1v1h-1z M55,4h1v1h-1z M57,4h1v1h-1z M59,4h1v1h-1z M60,4h1v1h-1z M63,4h1v1h-1z M64,4h1v1h-1z M66,4h1v1h-1z M67,4h1v1h-1z M70,4h1v1h-1z M72,4h1v1h-1z M73,4h1v1h-1z M78,4h1v1h-1z M81,4h1v1h-1z M85,4h1v1h-1z M88,4h1v1h-1z M90,4h1v1h-1z M93,4h1v1h-1z M94,4h1v1h-1z M95,4h1v1h-1z M96,4h1v1h-1z M97,4h1v1h-1z M98,4h1v1h-1z M102,4h1v1h-1z M103,4h1v1h-1z M104,4h1v1h-1z M105,4h1v1h-1z M106,4h1v1h-1z M107,4h1v1h-1z M108,4h1v1h-1z M4,5h1v1h-1z M10,5h1v1h-1z M12,5h1v1h-1z M14,5h1v1h-1z M16,5h1v1h-1z M18,5h1v1h-1z M21,5h1v1h-1z M22,5h1v1h-1z M27,5h1v1h-1z M29,5h1v1h-1z M30,5h1v1h-1z M31,5h1v1h-1z M32,5h1v1h-1z M33,5h1v1h-1z M34,5h1v1h-1z M35,5h1v1h-1z M40,5h1v1h-1z M41,5h1v1h-1z M42,5h1v1h-1z M44,5h1v1h-1z M45,5h1v1h-1z M46,5h1v1h-1z M48,5h1v1h-1z M49,5h1v1h-1z M53,5h1v1h-1z M54,5h1v1h-1z M55,5h1v1h-1z M57,5h1v1h-1z M58,5h1v1h-1z M61,5h1v1h-1z M63,5h1v1h-1z M66,5h1v1h-1z M67,5h1v1h-1z M69,5h1v1h-1z M70,5h1v1h-1z M73,5h1v1h-1z M76,5h1v1h-1z M78,5h1v1h-1z M80,5h1v1h-1z M82,5h1v1h-1z M83,5h1v1h-1z M87,5h1v1h-1z M89,5h1v1h-1z M90,5h1v1h-1z M91,5h1v1h-1z M92,5h1v1h-1z M93,5h1v1h-1z M94,5h1v1h-1z M96,5h1v1h-1z M98,5h1v1h-1z M102,5h1v1h-1z M108,5h1v1h-1z M4,6h1v1h-1z M6,6h1v1h-1z M7,6h1v1h-1z M8,6h1v1h-1z M10,6h1v1h-1z M12,6h1v1h-1z M14,6h1v1h-1z M16,6h1v1h-1z M17,6h1v1h-1z M18,6h1v1h-1z M20,6h1v1h-1z M21,6h1v1h-1z M25,6h1v1h-1z M26,6h1v1h-1z M29,6h1v1h-1z M30,6h1v1h-1z M32,6h1v1h-1z M33,6h1v1h-1z M35,6h1v1h-1z M41,6h1v1h-1z M42,6h1v1h-1z M43,6h1v1h-1z M44,6h1v1h-1z M45,6h1v1h-1z M46,6h1v1h-1z M47,6h1v1h-1z M53,6h1v1h-1z M54,6h1v1h-1z M56,6h1v1h-1z M59,6h1v1h-1z M62,6h1v1h-1z M63,6h1v1h-1z M65,6h1v1h-1z M66,6h1v1h-1z M68,6h1v1h-1z M69,6h1v1h-1z M73,6h1v1h-1z M80,6h1v1h-1z M82,6h1v1h-1z M83,6h1v1h-1z M90,6h1v1h-1z M91,6h1v1h-1z M92,6h1v1h-1z M95,6h1v1h-1z M97,6h1v1h-1z M98,6h1v1h-1z M99,6h1v1h-1z M102,6h1v1h-1z M104,6h1v1h-1z M105,6h1v1h-1z M106,6h1v1h-1z M108,6h1v1h-1z M4,7h1v1h-1z M6,7h1v1h-1z M7,7h1v1h-1z M8,7h1v1h-1z M10,7h1v1h-1z M12,7h1v1h-1z M13,7h1v1h-1z M14,7h1v1h-1z M16,7h1v1h-1z M17,7h1v1h-1z M18,7h1v1h-1z M23,7h1v1h-1z M26,7h1v1h-1z M27,7h1v1h-1z M28,7h1v1h-1z M29,7h1v1h-1z M32,7h1v1h-1z M33,7h1v1h-1z M36,7h1v1h-1z M39,7h1v1h-1z M40,7h1v1h-1z M41,7h1v1h-1z M42,7h1v1h-1z M45,7h1v1h-1z M47,7h1v1h-1z M52,7h1v1h-1z M54,7h1v1h-1z M55,7h1v1h-1z M57,7h1v1h-1z M58,7h1v1h-1z M62,7h1v1h-1z M63,7h1v1h-1z M64,7h1v1h-1z M66,7h1v1h-1z M74,7h1v1h-1z M75,7h1v1h-1z M77,7h1v1h-1z M79,7h1v1h-1z M80,7h1v1h-1z M81,7h1v1h-1z M82,7h1v1h-1z M83,7h1v1h-1z M85,7h1v1h-1z M86,7h1v1h-1z M89,7h1v1h-1z M90,7h1v1h-1z M93,7h1v1h-1z M100,7h1v1h-1z M102,7h1v1h-1z M104,7h1v1h-1z M105,7h1v1h-1z M106,7h1v1h-1z M108,7h1v1h-1z M4,8h1v1h-1z M6,8h1v1h-1z M7,8h1v1h-1z M8,8h1v1h-1z M10,8h1v1h-1z M14,8h1v1h-1z M15,8h1v1h-1z M16,8h1v1h-1z M18,8h1v1h-1z M19,8h1v1h-1z M20,8h1v1h-1z M21,8h1v1h-1z M22,8h1v1h-1z M23,8h1v1h-1z M24,8h1v1h-1z M25,8h1v1h-1z M27,8h1v1h-1z M28,8h1v1h-1z M29,8h1v1h-1z M30,8h1v1h-1z M31,8h1v1h-1z M32,8h1v1h-1z M33,8h1v1h-1z M35,8h1v1h-1z M37,8h1v1h-1z M38,8h1v1h-1z M39,8h1v1h-1z M40,8h1v1h-1z M43,8h1v1h-1z M44,8h1v1h-1z M47,8h1v1h-1z M48,8h1v1h-1z M52,8h1v1h-1z M53,8h1v1h-1z M54,8h1v1h-1z M55,8h1v1h-1z M56,8h1v1h-1z M58,8h1v1h-1z M59,8h1v1h-1z M63,8h1v1h-1z M64,8h1v1h-1z M66,8h1v1h-1z M71,8h1v1h-1z M72,8h1v1h-1z M73,8h1v1h-1z M76,8h1v1h-1z M77,8h1v1h-1z M78,8h1v1h-1z M79,8h1v1h-1z M80,8h1v1h-1z M81,8h1v1h-1z M85,8h1v1h-1z M88,8h1v1h-1z M93,8h1v1h-1z M94,8h1v1h-1z M95,8h1v1h-1z M96,8h1v1h-1z M99,8h1v1h-1z M100,8h1v1h-1z M102,8h1v1h-1z M104,8h1v1h-1z M105,8h1v1h-1z M106,8h1v1h-1z M108,8h1v1h-1z M4,9h1v1h-1z M10,9h1v1h-1z M12,9h1v1h-1z M14,9h1v1h-1z M16,9h1v1h-1z M18,9h1v1h-1z M22,9h1v1h-1z M24,9h1v1h-1z M25,9h1v1h-1z M27,9h1v1h-1z M28,9h1v1h-1z M32,9h1v1h-1z M33,9h1v1h-1z M34,9h1v1h-1z M35,9h1v1h-1z M37,9h1v1h-1z M39,9h1v1h-1z M42,9h1v1h-1z M43,9h1v1h-1z M44,9h1v1h-1z M45,9h1v1h-1z M46,9h1v1h-1z M49,9h1v1h-1z M52,9h1v1h-1z M56,9h1v1h-1z M57,9h1v1h-1z M58,9h1v1h-1z M59,9h1v1h-1z M60,9h1v1h-1z M61,9h1v1h-1z M63,9h1v1h-1z M66,9h1v1h-1z M67,9h1v1h-1z M69,9h1v1h-1z M70,9h1v1h-1z M71,9h1v1h-1z M72,9h1v1h-1z M73,9h1v1h-1z M76,9h1v1h-1z M80,9h1v1h-1z M81,9h1v1h-1z M82,9h1v1h-1z M88,9h1v1h-1z M90,9h1v1h-1z M92,9h1v1h-1z M93,9h1v1h-1z M94,9h1v1h-1z M96,9h1v1h-1z M97,9h1v1h-1z M99,9h1v1h-1z M102,9h1v1h-1z M108,9h1v1h-1z M4,10h1v1h-1z M5,10h1v1h-1z M6,10h1v1h-1z M7,10h1v1h-1z M8,10h1v1h-1z M9,10h1v1h-1z M10,10h1v1h-1z M12,10h1v1h-1z M14,10h1v1h-1z M16,10h1v1h-1z M18,10h1v1h-1z M20,10h1v1h-1z M22,10h1v1h-1z M24,10h1v1h-1z M26,10h1v1h-1z M28,10h1v1h-1z M30,10h1v1h-1z M32,10h1v1h-1z M34,10h1v1h-1z M36,10h1v1h-1z M38,10h1v1h-1z M40,10h1v1h-1z M42,10h1v1h-1z M44,10h1v1h-1z M46,10h1v1h-1z M48,10h1v1h-1z M50,10h1v1h-1z M52,10h1v1h-1z M54,10h1v1h-1z M56,10h1v1h-1z M58,10h1v1h-1z M60,10h1v1h-1z M62,10h1v1h-1z M64,10h1v1h-1z M66,10h1v1h-1z M68,10h1v1h-1z M70,10h1v1h-1z M72,10h1v1h-1z M74,10h1v1h-1z M76,10h1v1h-1z M78,10h1v1h-1z M80,10h1v1h-1z M82,10h1v1h-1z M84,10h1v1h-1z M86,10h1v1h-1z M88,10h1v1h-1z M90,10h1v1h-1z M92,10h1v1h-1z M94,10h1v1h-1z M96,10h1v1h-1z M98,10h1v1h-1z M100,10h1v1h-1z M102,10h1v1h-1z M103,10h1v1h-1z M104,10h1v1h-1z M105,10h1v1h-1z M106,10h1v1h-1z M107,10h1v1h-1z M108,10h1v1h-1z M15,11h1v1h-1z M16,11h1v1h-1z M19,11h1v1h-1z M21,11h1v1h-1z M23,11h1v1h-1z M24,11h1v1h-1z M25,11h1v1h-1z M27,11h1v1h-1z M28,11h1v1h-1z M32,11h1v1h-1z M33,11h1v1h-1z M37,11h1v1h-1z M38,11h1v1h-1z M42,11h1v1h-1z M44,11h1v1h-1z M45,11h1v1h-1z M49,11h1v1h-1z M51,11h1v1h-1z M52,11h1v1h-1z M56,11h1v1h-1z M59,11h1v1h-1z M61,11h1v1h-1z M66,11h1v1h-1z M68,11h1v1h-1z M70,11h1v1h-1z M71,11h1v1h-1z M76,11h1v1h-1z M80,11h1v1h-1z M82,11h1v1h-1z M90,11h1v1h-1z M92,11h1v1h-1z M93,11h1v1h-1z M95,11h1v1h-1z M99,11h1v1h-1z M4,12h1v1h-1z M5,12h1v1h-1z M8,12h1v1h-1z M9,12h1v1h-1z M10,12h1v1h-1z M14,12h1v1h-1z M15,12h1v1h-1z M16,12h1v1h-1z M18,12h1v1h-1z M19,12h1v1h-1z M20,12h1v1h-1z M21,12h1v1h-1z M23,12h1v1h-1z M27,12h1v1h-1z M28,12h1v1h-1z M29,12h1v1h-1z M30,12h1v1h-1z M31,12h1v1h-1z M32,12h1v1h-1z M34,12h1v1h-1z M35,12h1v1h-1z M36,12h1v1h-1z M38,12h1v1h-1z M40,12h1v1h-1z M44,12h1v1h-1z M46,12h1v1h-1z M48,12h1v1h-1z M52,12h1v1h-1z M53,12h1v1h-1z M54,12h1v1h-1z M55,12h1v1h-1z M56,12h1v1h-1z M57,12h1v1h-1z M58,12h1v1h-1z M60,12h1v1h-1z M61,12h1v1h-1z M64,12h1v1h-1z M67,12h1v1h-1z M68,12h1v1h-1z M69,12h1v1h-1z M70,12h1v1h-1z M71,12h1v1h-1z M73,12h1v1h-1z M74,12h1v1h-1z M75,12h1v1h-1z M76,12h1v1h-1z M77,12h1v1h-1z M78,12h1v1h-1z M79,12h1v1h-1z M80,12h1v1h-1z M82,12h1v1h-1z M84,12h1v1h-1z M85,12h1v1h-1z M86,12h1v1h-1z M87,12h1v1h-1z M88,12h1v1h-1z M92,12h1v1h-1z M97,12h1v1h-1z M98,12h1v1h-1z M99,12h1v1h-1z M100,12h1v1h-1z M103,12h1v1h-1z M105,12h1v1h-1z M106,12h1v1h-1z M107,12h1v1h-1z M108,12h1v1h-1z M4,13h1v1h-1z M6,13h1v1h-1z M8,13h1v1h-1z M12,13h1v1h-1z M13,13h1v1h-1z M16,13h1v1h-1z M17,13h1v1h-1z M19,13h1v1h-1z M22,13h1v1h-1z M23,13h1v1h-1z M24,13h1v1h-1z M25,13h1v1h-1z M27,13h1v1h-1z M28,13h1v1h-1z M30,13h1v1h-1z M32,13h1v1h-1z M34,13h1v1h-1z M36,13h1v1h-1z M37,13h1v1h-1z M38,13h1v1h-1z M40,13h1v1h-1z M44,13h1v1h-1z M47,13h1v1h-1z M48,13h1v1h-1z M49,13h1v1h-1z M51,13h1v1h-1z M52,13h1v1h-1z M54,13h1v1h-1z M57,13h1v1h-1z M59,13h1v1h-1z M60,13h1v1h-1z M61,13h1v1h-1z M62,13h1v1h-1z M63,13h1v1h-1z M64,13h1v1h-1z M65,13h1v1h-1z M66,13h1v1h-1z M67,13h1v1h-1z M72,13h1v1h-1z M76,13h1v1h-1z M77,13h1v1h-1z M78,13h1v1h-1z M80,13h1v1h-1z M82,13h1v1h-1z M83,13h1v1h-1z M85,13h1v1h-1z M87,13h1v1h-1z M88,13h1v1h-1z M89,13h1v1h-1z M92,13h1v1h-1z M94,13h1v1h-1z M97,13h1v1h-1z M98,13h1v1h-1z M99,13h1v1h-1z M102,13h1v1h-1z M104,13h1v1h-1z M105,13h1v1h-1z M107,13h1v1h-1z M108,13h1v1h-1z M4,14h1v1h-1z M5,14h1v1h-1z M7,14h1v1h-1z M10,14h1v1h-1z M15,14h1v1h-1z M16,14h1v1h-1z M17,14h1v1h-1z M21,14h1v1h-1z M22,14h1v1h-1z M23,14h1v1h-1z M25,14h1v1h-1z M26,14h1v1h-1z M29,14h1v1h-1z M35,14h1v1h-1z M38,14h1v1h-1z M40,14h1v1h-1z M41,14h1v1h-1z M50,14h1v1h-1z M52,14h1v1h-1z M53,14h1v1h-1z M55,14h1v1h-1z M56,14h1v1h-1z M59,14h1v1h-1z M60,14h1v1h-1z M62,14h1v1h-1z M65,14h1v1h-1z M67,14h1v1h-1z M73,14h1v1h-1z M74,14h1v1h-1z M76,14h1v1h-1z M77,14h1v1h-1z M79,14h1v1h-1z M84,14h1v1h-1z M86,14h1v1h-1z M89,14h1v1h-1z M92,14h1v1h-1z M95,14h1v1h-1z M96,14h1v1h-1z M98,14h1v1h-1z M99,14h1v1h-1z M103,14h1v1h-1z M104,14h1v1h-1z M105,14h1v1h-1z M107,14h1v1h-1z M5,15h1v1h-1z M6,15h1v1h-1z M7,15h1v1h-1z M12,15h1v1h-1z M13,15h1v1h-1z M14,15h1v1h-1z M15,15h1v1h-1z M16,15h1v1h-1z M17,15h1v1h-1z M20,15h1v1h-1z M21,15h1v1h-1z M23,15h1v1h-1z M24,15h1v1h-1z M31,15h1v1h-1z M32,15h1v1h-1z M33,15h1v1h-1z M35,15h1v1h-1z M37,15h1v1h-1z M38,15h1v1h-1z M39,15h1v1h-1z M41,15h1v1h-1z M43,15h1v1h-1z M44,15h1v1h-1z M45,15h1v1h-1z M47,15h1v1h-1z M49,15h1v1h-1z M50,15h1v1h-1z M51,15h1v1h-1z M52,15h1v1h-1z M54,15h1v1h-1z M56,15h1v1h-1z M59,15h1v1h-1z M61,15h1v1h-1z M62,15h1v1h-1z M66,15h1v1h-1z M68,15h1v1h-1z M69,15h1v1h-1z M70,15h1v1h-1z M71,15h1v1h-1z M80,15h1v1h-1z M81,15h1v1h-1z M83,15h1v1h-1z M85,15h1v1h-1z M90,15h1v1h-1z M92,15h1v1h-1z M93,15h1v1h-1z M94,15h1v1h-1z M95,15h1v1h-1z M98,15h1v1h-1z M100,15h1v1h-1z M103,15h1v1h-1z M4,16h1v1h-1z M6,16h1v1h-1z M7,16h1v1h-1z M8,16h1v1h-1z M10,16h1v1h-1z M12,16h1v1h-1z M16,16h1v1h-1z M17,16h1v1h-1z M18,16h1v1h-1z M20,16h1v1h-1z M22,16h1v1h-1z M23,16h1v1h-1z M27,16h1v1h-1z M30,16h1v1h-1z M32,16h1v1h-1z M34,16h1v1h-1z M35,16h1v1h-1z M37,16h1v1h-1z M40,16h1v1h-1z M41,16h1v1h-1z M42,16h1v1h-1z M45,16h1v1h-1z M46,16h1v1h-1z M51,16h1v1h-1z M53,16h1v1h-1z M54,16h1v1h-1z M56,16h1v1h-1z M59,16h1v1h-1z M61,16h1v1h-1z M63,16h1v1h-1z M69,16h1v1h-1z M70,16h1v1h-1z M74,16h1v1h-1z M78,16h1v1h-1z M82,16h1v1h-1z M85,16h1v1h-1z M89,16h1v1h-1z M93,16h1v1h-1z M94,16h1v1h-1z M96,16h1v1h-1z M98,16h1v1h-1z M100,16h1v1h-1z M101,16h1v1h-1z M7,17h1v1h-1z M8,17h1v1h-1z M9,17h1v1h-1z M17,17h1v1h-1z M21,17h1v1h-1z M28,17h1v1h-1z M29,17h1v1h-1z M33,17h1v1h-1z M35,17h1v1h-1z M36,17h1v1h-1z M38,17h1v1h-1z M41,17h1v1h-1z M43,17h1v1h-1z M49,17h1v1h-1z M51,17h1v1h-1z M52,17h1v1h-1z M54,17h1v1h-1z M59,17h1v1h-1z M60,17h1v1h-1z M62,17h1v1h-1z M63,17h1v1h-1z M64,17h1v1h-1z M72,17h1v1h-1z M73,17h1v1h-1z M74,17h1v1h-1z M75,17h1v1h-1z M76,17h1v1h-1z M79,17h1v1h-1z M84,17h1v1h-1z M87,17h1v1h-1z M88,17h1v1h-1z M89,17h1v1h-1z M91,17h1v1h-1z M93,17h1v1h-1z M95,17h1v1h-1z M96,17h1v1h-1z M97,17h1v1h-1z M101,17h1v1h-1z M102,17h1v1h-1z M105,17h1v1h-1z M106,17h1v1h-1z M107,17h1v1h-1z M108,17h1v1h-1z M4,18h1v1h-1z M5,18h1v1h-1z M8,18h1v1h-1z M9,18h1v1h-1z M10,18h1v1h-1z M11,18h1v1h-1z M14,18h1v1h-1z M15,18h1v1h-1z M17,18h1v1h-1z M21,18h1v1h-1z M22,18h1v1h-1z M23,18h1v1h-1z M26,18h1v1h-1z M27,18h1v1h-1z M29,18h1v1h-1z M31,18h1v1h-1z M35,18h1v1h-1z M38,18h1v1h-1z M40,18h1v1h-1z M41,18h1v1h-1z M48,18h1v1h-1z M50,18h1v1h-1z M53,18h1v1h-1z M57,18h1v1h-1z M60,18h1v1h-1z M62,18h1v1h-1z M63,18h1v1h-1z M64,18h1v1h-1z M65,18h1v1h-1z M67,18h1v1h-1z M72,18h1v1h-1z M73,18h1v1h-1z M74,18h1v1h-1z M77,18h1v1h-1z M79,18h1v1h-1z M80,18h1v1h-1z M86,18h1v1h-1z M88,18h1v1h-1z M89,18h1v1h-1z M91,18h1v1h-1z M95,18h1v1h-1z M98,18h1v1h-1z M99,18h1v1h-1z M104,18h1v1h-1z M105,18h1v1h-1z M106,18h1v1h-1z M107,18h1v1h-1z M4,19h1v1h-1z M5,19h1v1h-1z M6,19h1v1h-1z M11,19h1v1h-1z M12,19h1v1h-1z M13,19h1v1h-1z M17,19h1v1h-1z M19,19h1v1h-1z M20,19h1v1h-1z M21,19h1v1h-1z M22,19h1v1h-1z M23,19h1v1h-1z M24,19h1v1h-1z M25,19h1v1h-1z M27,19h1v1h-1z M31,19h1v1h-1z M32,19h1v1h-1z M33,19h1v1h-1z M35,19h1v1h-1z M38,19h1v1h-1z M41,19h1v1h-1z M42,19h1v1h-1z M44,19h1v1h-1z M45,19h1v1h-1z M47,19h1v1h-1z M49,19h1v1h-1z M51,19h1v1h-1z M52,19h1v1h-1z M53,19h1v1h-1z M56,19h1v1h-1z M58,19h1v1h-1z M59,19h1v1h-1z M61,19h1v1h-1z M62,19h1v1h-1z M68,19h1v1h-1z M69,19h1v1h-1z M70,19h1v1h-1z M75,19h1v1h-1z M78,19h1v1h-1z M80,19h1v1h-1z M81,19h1v1h-1z M82,19h1v1h-1z M83,19h1v1h-1z M86,19h1v1h-1z M87,19h1v1h-1z M90,19h1v1h-1z M92,19h1v1h-1z M94,19h1v1h-1z M95,19h1v1h-1z M97,19h1v1h-1z M98,19h1v1h-1z M101,19h1v1h-1z M103,19h1v1h-1z M107,19h1v1h-1z M5,20h1v1h-1z M7,20h1v1h-1z M10,20h1v1h-1z M12,20h1v1h-1z M14,20h1v1h-1z M17,20h1v1h-1z M18,20h1v1h-1z M19,20h1v1h-1z M20,20h1v1h-1z M21,20h1v1h-1z M22,20h1v1h-1z M24,20h1v1h-1z M27,20h1v1h-1z M28,20h1v1h-1z M30,20h1v1h-1z M32,20h1v1h-1z M33,20h1v1h-1z M36,20h1v1h-1z M39,20h1v1h-1z M40,20h1v1h-1z M42,20h1v1h-1z M43,20h1v1h-1z M44,20h1v1h-1z M45,20h1v1h-1z M46,20h1v1h-1z M48,20h1v1h-1z M49,20h1v1h-1z M52,20h1v1h-1z M55,20h1v1h-1z M59,20h1v1h-1z M61,20h1v1h-1z M63,20h1v1h-1z M65,20h1v1h-1z M72,20h1v1h-1z M75,20h1v1h-1z M78,20h1v1h-1z M80,20h1v1h-1z M82,20h1v1h-1z M83,20h1v1h-1z M84,20h1v1h-1z M88,20h1v1h-1z M89,20h1v1h-1z M93,20h1v1h-1z M94,20h1v1h-1z M98,20h1v1h-1z M99,20h1v1h-1z M100,20h1v1h-1z M101,20h1v1h-1z M105,20h1v1h-1z M106,20h1v1h-1z M107,20h1v1h-1z M108,20h1v1h-1z M8,21h1v1h-1z M13,21h1v1h-1z M14,21h1v1h-1z M15,21h1v1h-1z M16,21h1v1h-1z M17,21h1v1h-1z M18,21h1v1h-1z M19,21h1v1h-1z M21,21h1v1h-1z M23,21h1v1h-1z M24,21h1v1h-1z M27,21h1v1h-1z M28,21h1v1h-1z M29,21h1v1h-1z M30,21h1v1h-1z M35,21h1v1h-1z M38,21h1v1h-1z M39,21h1v1h-1z M40,21h1v1h-1z M48,21h1v1h-1z M50,21h1v1h-1z M51,21h1v1h-1z M52,21h1v1h-1z M60,21h1v1h-1z M61,21h1v1h-1z M62,21h1v1h-1z M64,21h1v1h-1z M65,21h1v1h-1z M70,21h1v1h-1z M71,21h1v1h-1z M72,21h1v1h-1z M73,21h1v1h-1z M74,21h1v1h-1z M75,21h1v1h-1z M76,21h1v1h-1z M83,21h1v1h-1z M84,21h1v1h-1z M85,21h1v1h-1z M86,21h1v1h-1z M90,21h1v1h-1z M92,21h1v1h-1z M93,21h1v1h-1z M96,21h1v1h-1z M100,21h1v1h-1z M101,21h1v1h-1z M103,21h1v1h-1z M106,21h1v1h-1z M4,22h1v1h-1z M5,22h1v1h-1z M6,22h1v1h-1z M9,22h1v1h-1z M10,22h1v1h-1z M11,22h1v1h-1z M13,22h1v1h-1z M14,22h1v1h-1z M15,22h1v1h-1z M16,22h1v1h-1z M17,22h1v1h-1z M18,22h1v1h-1z M19,22h1v1h-1z M20,22h1v1h-1z M21,22h1v1h-1z M23,22h1v1h-1z M26,22h1v1h-1z M28,22h1v1h-1z M37,22h1v1h-1z M38,22h1v1h-1z M39,22h1v1h-1z M40,22h1v1h-1z M41,22h1v1h-1z M44,22h1v1h-1z M47,22h1v1h-1z M48,22h1v1h-1z M50,22h1v1h-1z M53,22h1v1h-1z M55,22h1v1h-1z M59,22h1v1h-1z M61,22h1v1h-1z M62,22h1v1h-1z M63,22h1v1h-1z M65,22h1v1h-1z M67,22h1v1h-1z M72,22h1v1h-1z M74,22h1v1h-1z M75,22h1v1h-1z M76,22h1v1h-1z M77,22h1v1h-1z M79,22h1v1h-1z M80,22h1v1h-1z M81,22h1v1h-1z M83,22h1v1h-1z M86,22h1v1h-1z M88,22h1v1h-1z M89,22h1v1h-1z M93,22h1v1h-1z M97,22h1v1h-1z M98,22h1v1h-1z M99,22h1v1h-1z M100,22h1v1h-1z M101,22h1v1h-1z M104,22h1v1h-1z M106,22h1v1h-1z M107,22h1v1h-1z M6,23h1v1h-1z M8,23h1v1h-1z M9,23h1v1h-1z M12,23h1v1h-1z M14,23h1v1h-1z M16,23h1v1h-1z M19,23h1v1h-1z M27,23h1v1h-1z M30,23h1v1h-1z M31,23h1v1h-1z M32,23h1v1h-1z M34,23h1v1h-1z M35,23h1v1h-1z M41,23h1v1h-1z M42,23h1v1h-1z M44,23h1v1h-1z M53,23h1v1h-1z M56,23h1v1h-1z M57,23h1v1h-1z M58,23h1v1h-1z M59,23h1v1h-1z M61,23h1v1h-1z M65,23h1v1h-1z M66,23h1v1h-1z M68,23h1v1h-1z M69,23h1v1h-1z M70,23h1v1h-1z M71,23h1v1h-1z M74,23h1v1h-1z M75,23h1v1h-1z M77,23h1v1h-1z M80,23h1v1h-1z M82,23h1v1h-1z M83,23h1v1h-1z M86,23h1v1h-1z M91,23h1v1h-1z M92,23h1v1h-1z M94,23h1v1h-1z M95,23h1v1h-1z M100,23h1v1h-1z M101,23h1v1h-1z M103,23h1v1h-1z M4,24h1v1h-1z M7,24h1v1h-1z M10,24h1v1h-1z M11,24h1v1h-1z M12,24h1v1h-1z M15,24h1v1h-1z M16,24h1v1h-1z M18,24h1v1h-1z M20,24h1v1h-1z M21,24h1v1h-1z M24,24h1v1h-1z M26,24h1v1h-1z M27,24h1v1h-1z M30,24h1v1h-1z M31,24h1v1h-1z M32,24h1v1h-1z M33,24h1v1h-1z M34,24h1v1h-1z M36,24h1v1h-1z M37,24h1v1h-1z M41,24h1v1h-1z M44,24h1v1h-1z M47,24h1v1h-1z M48,24h1v1h-1z M49,24h1v1h-1z M50,24h1v1h-1z M51,24h1v1h-1z M52,24h1v1h-1z M53,24h1v1h-1z M56,24h1v1h-1z M57,24h1v1h-1z M62,24h1v1h-1z M63,24h1v1h-1z M64,24h1v1h-1z M66,24h1v1h-1z M67,24h1v1h-1z M69,24h1v1h-1z M71,24h1v1h-1z M72,24h1v1h-1z M75,24h1v1h-1z M76,24h1v1h-1z M77,24h1v1h-1z M78,24h1v1h-1z M79,24h1v1h-1z M80,24h1v1h-1z M81,24h1v1h-1z M89,24h1v1h-1z M91,24h1v1h-1z M92,24h1v1h-1z M94,24h1v1h-1z M97,24h1v1h-1z M99,24h1v1h-1z M100,24h1v1h-1z M101,24h1v1h-1z M102,24h1v1h-1z M105,24h1v1h-1z M107,24h1v1h-1z M4,25h1v1h-1z M5,25h1v1h-1z M7,25h1v1h-1z M9,25h1v1h-1z M13,25h1v1h-1z M14,25h1v1h-1z M16,25h1v1h-1z M17,25h1v1h-1z M19,25h1v1h-1z M20,25h1v1h-1z M21,25h1v1h-1z M22,25h1v1h-1z M23,25h1v1h-1z M28,25h1v1h-1z M33,25h1v1h-1z M36,25h1v1h-1z M37,25h1v1h-1z M38,25h1v1h-1z M39,25h1v1h-1z M41,25h1v1h-1z M42,25h1v1h-1z M44,25h1v1h-1z M46,25h1v1h-1z M47,25h1v1h-1z M51,25h1v1h-1z M52,25h1v1h-1z M54,25h1v1h-1z M55,25h1v1h-1z M57,25h1v1h-1z M58,25h1v1h-1z M60,25h1v1h-1z M61,25h1v1h-1z M62,25h1v1h-1z M65,25h1v1h-1z M66,25h1v1h-1z M67,25h1v1h-1z M68,25h1v1h-1z M69,25h1v1h-1z M71,25h1v1h-1z M74,25h1v1h-1z M75,25h1v1h-1z M76,25h1v1h-1z M79,25h1v1h-1z M82,25h1v1h-1z M83,25h1v1h-1z M84,25h1v1h-1z M85,25h1v1h-1z M86,25h1v1h-1z M87,25h1v1h-1z M90,25h1v1h-1z M93,25h1v1h-1z M94,25h1v1h-1z M96,25h1v1h-1z M98,25h1v1h-1z M100,25h1v1h-1z M102,25h1v1h-1z M103,25h1v1h-1z M104,25h1v1h-1z M105,25h1v1h-1z M106,25h1v1h-1z M4,26h1v1h-1z M6,26h1v1h-1z M10,26h1v1h-1z M12,26h1v1h-1z M13,26h1v1h-1z M15,26h1v1h-1z M16,26h1v1h-1z M17,26h1v1h-1z M18,26h1v1h-1z M21,26h1v1h-1z M22,26h1v1h-1z M26,26h1v1h-1z M28,26h1v1h-1z M35,26h1v1h-1z M36,26h1v1h-1z M38,26h1v1h-1z M39,26h1v1h-1z M40,26h1v1h-1z M48,26h1v1h-1z M50,26h1v1h-1z M51,26h1v1h-1z M52,26h1v1h-1z M53,26h1v1h-1z M57,26h1v1h-1z M60,26h1v1h-1z M62,26h1v1h-1z M64,26h1v1h-1z M67,26h1v1h-1z M71,26h1v1h-1z M72,26h1v1h-1z M74,26h1v1h-1z M77,26h1v1h-1z M80,26h1v1h-1z M83,26h1v1h-1z M84,26h1v1h-1z M85,26h1v1h-1z M86,26h1v1h-1z M88,26h1v1h-1z M89,26h1v1h-1z M95,26h1v1h-1z M98,26h1v1h-1z M99,26h1v1h-1z M100,26h1v1h-1z M101,26h1v1h-1z M104,26h1v1h-1z M105,26h1v1h-1z M106,26h1v1h-1z M107,26h1v1h-1z M6,27h1v1h-1z M7,27h1v1h-1z M8,27h1v1h-1z M11,27h1v1h-1z M12,27h1v1h-1z M14,27h1v1h-1z M15,27h1v1h-1z M18,27h1v1h-1z M19,27h1v1h-1z M20,27h1v1h-1z M21,27h1v1h-1z M23,27h1v1h-1z M24,27h1v1h-1z M26,27h1v1h-1z M27,27h1v1h-1z M29,27h1v1h-1z M30,27h1v1h-1z M32,27h1v1h-1z M33,27h1v1h-1z M38,27h1v1h-1z M41,27h1v1h-1z M42,27h1v1h-1z M43,27h1v1h-1z M44,27h1v1h-1z M45,27h1v1h-1z M46,27h1v1h-1z M47,27h1v1h-1z M50,27h1v1h-1z M51,27h1v1h-1z M52,27h1v1h-1z M54,27h1v1h-1z M56,27h1v1h-1z M58,27h1v1h-1z M59,27h1v1h-1z M63,27h1v1h-1z M66,27h1v1h-1z M67,27h1v1h-1z M68,27h1v1h-1z M70,27h1v1h-1z M74,27h1v1h-1z M75,27h1v1h-1z M78,27h1v1h-1z M80,27h1v1h-1z M81,27h1v1h-1z M82,27h1v1h-1z M83,27h1v1h-1z M85,27h1v1h-1z M89,27h1v1h-1z M90,27h1v1h-1z M92,27h1v1h-1z M93,27h1v1h-1z M94,27h1v1h-1z M95,27h1v1h-1z M97,27h1v1h-1z M100,27h1v1h-1z M101,27h1v1h-1z M103,27h1v1h-1z M104,27h1v1h-1z M4,28h1v1h-1z M6,28h1v1h-1z M8,28h1v1h-1z M9,28h1v1h-1z M10,28h1v1h-1z M11,28h1v1h-1z M12,28h1v1h-1z M13,28h1v1h-1z M17,28h1v1h-1z M18,28h1v1h-1z M23,28h1v1h-1z M24,28h1v1h-1z M25,28h1v1h-1z M27,28h1v1h-1z M28,28h1v1h-1z M29,28h1v1h-1z M30,28h1v1h-1z M31,28h1v1h-1z M32,28h1v1h-1z M33,28h1v1h-1z M34,28h1v1h-1z M35,28h1v1h-1z M36,28h1v1h-1z M38,28h1v1h-1z M42,28h1v1h-1z M43,28h1v1h-1z M45,28h1v1h-1z M46,28h1v1h-1z M48,28h1v1h-1z M49,28h1v1h-1z M51,28h1v1h-1z M52,28h1v1h-1z M53,28h1v1h-1z M54,28h1v1h-1z M55,28h1v1h-1z M56,28h1v1h-1z M60,28h1v1h-1z M64,28h1v1h-1z M65,28h1v1h-1z M70,28h1v1h-1z M71,28h1v1h-1z M73,28h1v1h-1z M76,28h1v1h-1z M77,28h1v1h-1z M78,28h1v1h-1z M79,28h1v1h-1z M80,28h1v1h-1z M81,28h1v1h-1z M82,28h1v1h-1z M83,28h1v1h-1z M85,28h1v1h-1z M88,28h1v1h-1z M89,28h1v1h-1z M92,28h1v1h-1z M93,28h1v1h-1z M94,28h1v1h-1z M95,28h1v1h-1z M98,28h1v1h-1z M99,28h1v1h-1z M100,28h1v1h-1z M101,28h1v1h-1z M102,28h1v1h-1z M103,28h1v1h-1z M104,28h1v1h-1z M105,28h1v1h-1z M106,28h1v1h-1z M107,28h1v1h-1z M5,29h1v1h-1z M8,29h1v1h-1z M12,29h1v1h-1z M14,29h1v1h-1z M16,29h1v1h-1z M18,29h1v1h-1z M25,29h1v1h-1z M27,29h1v1h-1z M28,29h1v1h-1z M32,29h1v1h-1z M33,29h1v1h-1z M40,29h1v1h-1z M45,29h1v1h-1z M46,29h1v1h-1z M47,29h1v1h-1z M50,29h1v1h-1z M52,29h1v1h-1z M56,29h1v1h-1z M58,29h1v1h-1z M59,29h1v1h-1z M60,29h1v1h-1z M67,29h1v1h-1z M71,29h1v1h-1z M72,29h1v1h-1z M74,29h1v1h-1z M75,29h1v1h-1z M76,29h1v1h-1z M80,29h1v1h-1z M81,29h1v1h-1z M82,29h1v1h-1z M84,29h1v1h-1z M85,29h1v1h-1z M86,29h1v1h-1z M87,29h1v1h-1z M88,29h1v1h-1z M89,29h1v1h-1z M93,29h1v1h-1z M94,29h1v1h-1z M96,29h1v1h-1z M97,29h1v1h-1z M100,29h1v1h-1z M104,29h1v1h-1z M105,29h1v1h-1z M107,29h1v1h-1z M4,30h1v1h-1z M5,30h1v1h-1z M7,30h1v1h-1z M8,30h1v1h-1z M10,30h1v1h-1z M12,30h1v1h-1z M13,30h1v1h-1z M16,30h1v1h-1z M21,30h1v1h-1z M23,30h1v1h-1z M24,30h1v1h-1z M26,30h1v1h-1z M28,30h1v1h-1z M30,30h1v1h-1z M32,30h1v1h-1z M33,30h1v1h-1z M35,30h1v1h-1z M36,30h1v1h-1z M38,30h1v1h-1z M39,30h1v1h-1z M40,30h1v1h-1z M41,30h1v1h-1z M43,30h1v1h-1z M45,30h1v1h-1z M48,30h1v1h-1z M50,30h1v1h-1z M52,30h1v1h-1z M54,30h1v1h-1z M56,30h1v1h-1z M60,30h1v1h-1z M61,30h1v1h-1z M62,30h1v1h-1z M64,30h1v1h-1z M65,30h1v1h-1z M67,30h1v1h-1z M68,30h1v1h-1z M72,30h1v1h-1z M73,30h1v1h-1z M74,30h1v1h-1z M75,30h1v1h-1z M76,30h1v1h-1z M78,30h1v1h-1z M80,30h1v1h-1z M83,30h1v1h-1z M84,30h1v1h-1z M85,30h1v1h-1z M86,30h1v1h-1z M87,30h1v1h-1z M88,30h1v1h-1z M89,30h1v1h-1z M91,30h1v1h-1z M98,30h1v1h-1z M100,30h1v1h-1z M102,30h1v1h-1z M104,30h1v1h-1z M106,30h1v1h-1z M4,31h1v1h-1z M5,31h1v1h-1z M8,31h1v1h-1z M12,31h1v1h-1z M14,31h1v1h-1z M15,31h1v1h-1z M17,31h1v1h-1z M18,31h1v1h-1z M19,31h1v1h-1z M20,31h1v1h-1z M26,31h1v1h-1z M27,31h1v1h-1z M28,31h1v1h-1z M32,31h1v1h-1z M33,31h1v1h-1z M34,31h1v1h-1z M35,31h1v1h-1z M37,31h1v1h-1z M39,31h1v1h-1z M43,31h1v1h-1z M44,31h1v1h-1z M46,31h1v1h-1z M47,31h1v1h-1z M51,31h1v1h-1z M52,31h1v1h-1z M56,31h1v1h-1z M57,31h1v1h-1z M59,31h1v1h-1z M63,31h1v1h-1z M65,31h1v1h-1z M68,31h1v1h-1z M69,31h1v1h-1z M71,31h1v1h-1z M73,31h1v1h-1z M75,31h1v1h-1z M76,31h1v1h-1z M80,31h1v1h-1z M83,31h1v1h-1z M85,31h1v1h-1z M89,31h1v1h-1z M90,31h1v1h-1z M92,31h1v1h-1z M94,31h1v1h-1z M95,31h1v1h-1z M100,31h1v1h-1z M104,31h1v1h-1z M107,31h1v1h-1z M108,31h1v1h-1z M4,32h1v1h-1z M6,32h1v1h-1z M7,32h1v1h-1z M8,32h1v1h-1z M9,32h1v1h-1z M10,32h1v1h-1z M11,32h1v1h-1z M12,32h1v1h-1z M16,32h1v1h-1z M17,32h1v1h-1z M19,32h1v1h-1z M23,32h1v1h-1z M24,32h1v1h-1z M25,32h1v1h-1z M26,32h1v1h-1z M27,32h1v1h-1z M28,32h1v1h-1z M29,32h1v1h-1z M30,32h1v1h-1z M31,32h1v1h-1z M32,32h1v1h-1z M33,32h1v1h-1z M35,32h1v1h-1z M37,32h1v1h-1z M42,32h1v1h-1z M44,32h1v1h-1z M47,32h1v1h-1z M50,32h1v1h-1z M51,32h1v1h-1z M52,32h1v1h-1z M53,32h1v1h-1z M54,32h1v1h-1z M55,32h1v1h-1z M56,32h1v1h-1z M58,32h1v1h-1z M61,32h1v1h-1z M63,32h1v1h-1z M64,32h1v1h-1z M66,32h1v1h-1z M68,32h1v1h-1z M72,32h1v1h-1z M75,32h1v1h-1z M76,32h1v1h-1z M77,32h1v1h-1z M78,32h1v1h-1z M79,32h1v1h-1z M80,32h1v1h-1z M81,32h1v1h-1z M82,32h1v1h-1z M83,32h1v1h-1z M86,32h1v1h-1z M87,32h1v1h-1z M91,32h1v1h-1z M93,32h1v1h-1z M94,32h1v1h-1z M95,32h1v1h-1z M96,32h1v1h-1z M100,32h1v1h-1z M101,32h1v1h-1z M102,32h1v1h-1z M103,32h1v1h-1z M104,32h1v1h-1z M108,32h1v1h-1z M5,33h1v1h-1z M6,33h1v1h-1z M7,33h1v1h-1z M8,33h1v1h-1z M9,33h1v1h-1z M11,33h1v1h-1z M14,33h1v1h-1z M15,33h1v1h-1z M18,33h1v1h-1z M19,33h1v1h-1z M20,33h1v1h-1z M21,33h1v1h-1z M22,33h1v1h-1z M24,33h1v1h-1z M26,33h1v1h-1z M28,33h1v1h-1z M30,33h1v1h-1z M33,33h1v1h-1z M35,33h1v1h-1z M36,33h1v1h-1z M38,33h1v1h-1z M40,33h1v1h-1z M44,33h1v1h-1z M46,33h1v1h-1z M47,33h1v1h-1z M49,33h1v1h-1z M51,33h1v1h-1z M52,33h1v1h-1z M54,33h1v1h-1z M56,33h1v1h-1z M57,33h1v1h-1z M63,33h1v1h-1z M65,33h1v1h-1z M67,33h1v1h-1z M68,33h1v1h-1z M74,33h1v1h-1z M79,33h1v1h-1z M80,33h1v1h-1z M82,33h1v1h-1z M83,33h1v1h-1z M86,33h1v1h-1z M87,33h1v1h-1z M88,33h1v1h-1z M91,33h1v1h-1z M94,33h1v1h-1z M95,33h1v1h-1z M96,33h1v1h-1z M97,33h1v1h-1z M99,33h1v1h-1z M100,33h1v1h-1z M108,33h1v1h-1z M4,34h1v1h-1z M5,34h1v1h-1z M6,34h1v1h-1z M7,34h1v1h-1z M8,34h1v1h-1z M9,34h1v1h-1z M10,34h1v1h-1z M11,34h1v1h-1z M13,34h1v1h-1z M15,34h1v1h-1z M17,34h1v1h-1z M21,34h1v1h-1z M24,34h1v1h-1z M27,34h1v1h-1z M30,34h1v1h-1z M36,34h1v1h-1z M38,34h1v1h-1z M39,34h1v1h-1z M40,34h1v1h-1z M41,34h1v1h-1z M43,34h1v1h-1z M47,34h1v1h-1z M48,34h1v1h-1z M49,34h1v1h-1z M50,34h1v1h-1z M51,34h1v1h-1z M54,34h1v1h-1z M56,34h1v1h-1z M57,34h1v1h-1z M59,34h1v1h-1z M60,34h1v1h-1z M62,34h1v1h-1z M64,34h1v1h-1z M65,34h1v1h-1z M69,34h1v1h-1z M72,34h1v1h-1z M73,34h1v1h-1z M74,34h1v1h-1z M75,34h1v1h-1z M78,34h1v1h-1z M79,34h1v1h-1z M84,34h1v1h-1z M86,34h1v1h-1z M88,34h1v1h-1z M89,34h1v1h-1z M91,34h1v1h-1z M92,34h1v1h-1z M96,34h1v1h-1z M98,34h1v1h-1z M100,34h1v1h-1z M101,34h1v1h-1z M104,34h1v1h-1z M105,34h1v1h-1z M106,34h1v1h-1z M107,34h1v1h-1z M4,35h1v1h-1z M7,35h1v1h-1z M8,35h1v1h-1z M16,35h1v1h-1z M17,35h1v1h-1z M20,35h1v1h-1z M21,35h1v1h-1z M23,35h1v1h-1z M24,35h1v1h-1z M25,35h1v1h-1z M26,35h1v1h-1z M27,35h1v1h-1z M28,35h1v1h-1z M29,35h1v1h-1z M33,35h1v1h-1z M35,35h1v1h-1z M37,35h1v1h-1z M38,35h1v1h-1z M42,35h1v1h-1z M43,35h1v1h-1z M44,35h1v1h-1z M46,35h1v1h-1z M47,35h1v1h-1z M51,35h1v1h-1z M52,35h1v1h-1z M53,35h1v1h-1z M55,35h1v1h-1z M56,35h1v1h-1z M57,35h1v1h-1z M58,35h1v1h-1z M59,35h1v1h-1z M61,35h1v1h-1z M62,35h1v1h-1z M63,35h1v1h-1z M65,35h1v1h-1z M66,35h1v1h-1z M67,35h1v1h-1z M68,35h1v1h-1z M69,35h1v1h-1z M70,35h1v1h-1z M71,35h1v1h-1z M73,35h1v1h-1z M76,35h1v1h-1z M77,35h1v1h-1z M81,35h1v1h-1z M87,35h1v1h-1z M90,35h1v1h-1z M92,35h1v1h-1z M93,35h1v1h-1z M94,35h1v1h-1z M95,35h1v1h-1z M99,35h1v1h-1z M101,35h1v1h-1z M102,35h1v1h-1z M104,35h1v1h-1z M108,35h1v1h-1z M5,36h1v1h-1z M6,36h1v1h-1z M10,36h1v1h-1z M11,36h1v1h-1z M12,36h1v1h-1z M13,36h1v1h-1z M14,36h1v1h-1z M16,36h1v1h-1z M18,36h1v1h-1z M19,36h1v1h-1z M20,36h1v1h-1z M21,36h1v1h-1z M26,36h1v1h-1z M28,36h1v1h-1z M29,36h1v1h-1z M30,36h1v1h-1z M33,36h1v1h-1z M34,36h1v1h-1z M35,36h1v1h-1z M36,36h1v1h-1z M37,36h1v1h-1z M38,36h1v1h-1z M43,36h1v1h-1z M46,36h1v1h-1z M47,36h1v1h-1z M49,36h1v1h-1z M53,36h1v1h-1z M55,36h1v1h-1z M59,36h1v1h-1z M61,36h1v1h-1z M64,36h1v1h-1z M65,36h1v1h-1z M68,36h1v1h-1z M70,36h1v1h-1z M76,36h1v1h-1z M77,36h1v1h-1z M79,36h1v1h-1z M82,36h1v1h-1z M83,36h1v1h-1z M84,36h1v1h-1z M86,36h1v1h-1z M87,36h1v1h-1z M89,36h1v1h-1z M92,36h1v1h-1z M93,36h1v1h-1z M94,36h1v1h-1z M96,36h1v1h-1z M99,36h1v1h-1z M100,36h1v1h-1z M102,36h1v1h-1z M104,36h1v1h-1z M105,36h1v1h-1z M107,36h1v1h-1z M4,37h1v1h-1z M5,37h1v1h-1z M9,37h1v1h-1z M11,37h1v1h-1z M12,37h1v1h-1z M13,37h1v1h-1z M14,37h1v1h-1z M15,37h1v1h-1z M16,37h1v1h-1z M17,37h1v1h-1z M19,37h1v1h-1z M21,37h1v1h-1z M22,37h1v1h-1z M23,37h1v1h-1z M24,37h1v1h-1z M25,37h1v1h-1z M28,37h1v1h-1z M29,37h1v1h-1z M31,37h1v1h-1z M32,37h1v1h-1z M33,37h1v1h-1z M36,37h1v1h-1z M37,37h1v1h-1z M38,37h1v1h-1z M39,37h1v1h-1z M40,37h1v1h-1z M46,37h1v1h-1z M50,37h1v1h-1z M51,37h1v1h-1z M54,37h1v1h-1z M55,37h1v1h-1z M56,37h1v1h-1z M59,37h1v1h-1z M61,37h1v1h-1z M64,37h1v1h-1z M65,37h1v1h-1z M67,37h1v1h-1z M69,37h1v1h-1z M71,37h1v1h-1z M73,37h1v1h-1z M75,37h1v1h-1z M77,37h1v1h-1z M78,37h1v1h-1z M79,37h1v1h-1z M80,37h1v1h-1z M81,37h1v1h-1z M83,37h1v1h-1z M84,37h1v1h-1z M85,37h1v1h-1z M87,37h1v1h-1z M89,37h1v1h-1z M90,37h1v1h-1z M91,37h1v1h-1z M93,37h1v1h-1z M94,37h1v1h-1z M96,37h1v1h-1z M97,37h1v1h-1z M98,37h1v1h-1z M99,37h1v1h-1z M100,37h1v1h-1z M102,37h1v1h-1z M106,37h1v1h-1z M4,38h1v1h-1z M7,38h1v1h-1z M10,38h1v1h-1z M12,38h1v1h-1z M13,38h1v1h-1z M14,38h1v1h-1z M16,38h1v1h-1z M17,38h1v1h-1z M18,38h1v1h-1z M24,38h1v1h-1z M26,38h1v1h-1z M27,38h1v1h-1z M29,38h1v1h-1z M30,38h1v1h-1z M32,38h1v1h-1z M33,38h1v1h-1z M38,38h1v1h-1z M39,38h1v1h-1z M40,38h1v1h-1z M43,38h1v1h-1z M44,38h1v1h-1z M47,38h1v1h-1z M50,38h1v1h-1z M51,38h1v1h-1z M53,38h1v1h-1z M54,38h1v1h-1z M55,38h1v1h-1z M56,38h1v1h-1z M59,38h1v1h-1z M62,38h1v1h-1z M63,38h1v1h-1z M65,38h1v1h-1z M71,38h1v1h-1z M74,38h1v1h-1z M75,38h1v1h-1z M78,38h1v1h-1z M84,38h1v1h-1z M85,38h1v1h-1z M86,38h1v1h-1z M88,38h1v1h-1z M89,38h1v1h-1z M91,38h1v1h-1z M92,38h1v1h-1z M96,38h1v1h-1z M98,38h1v1h-1z M100,38h1v1h-1z M101,38h1v1h-1z M105,38h1v1h-1z M107,38h1v1h-1z M4,39h1v1h-1z M11,39h1v1h-1z M12,39h1v1h-1z M13,39h1v1h-1z M14,39h1v1h-1z M17,39h1v1h-1z M19,39h1v1h-1z M26,39h1v1h-1z M27,39h1v1h-1z M28,39h1v1h-1z M29,39h1v1h-1z M34,39h1v1h-1z M35,39h1v1h-1z M37,39h1v1h-1z M38,39h1v1h-1z M41,39h1v1h-1z M42,39h1v1h-1z M44,39h1v1h-1z M45,39h1v1h-1z M46,39h1v1h-1z M47,39h1v1h-1z M49,39h1v1h-1z M52,39h1v1h-1z M53,39h1v1h-1z M57,39h1v1h-1z M58,39h1v1h-1z M59,39h1v1h-1z M61,39h1v1h-1z M65,39h1v1h-1z M68,39h1v1h-1z M71,39h1v1h-1z M73,39h1v1h-1z M74,39h1v1h-1z M76,39h1v1h-1z M77,39h1v1h-1z M85,39h1v1h-1z M87,39h1v1h-1z M92,39h1v1h-1z M93,39h1v1h-1z M95,39h1v1h-1z M99,39h1v1h-1z M100,39h1v1h-1z M101,39h1v1h-1z M102,39h1v1h-1z M103,39h1v1h-1z M104,39h1v1h-1z M105,39h1v1h-1z M108,39h1v1h-1z M4,40h1v1h-1z M5,40h1v1h-1z M10,40h1v1h-1z M17,40h1v1h-1z M18,40h1v1h-1z M23,40h1v1h-1z M25,40h1v1h-1z M26,40h1v1h-1z M29,40h1v1h-1z M31,40h1v1h-1z M36,40h1v1h-1z M39,40h1v1h-1z M41,40h1v1h-1z M42,40h1v1h-1z M43,40h1v1h-1z M46,40h1v1h-1z M52,40h1v1h-1z M58,40h1v1h-1z M59,40h1v1h-1z M60,40h1v1h-1z M62,40h1v1h-1z M63,40h1v1h-1z M64,40h1v1h-1z M66,40h1v1h-1z M67,40h1v1h-1z M68,40h1v1h-1z M70,40h1v1h-1z M72,40h1v1h-1z M74,40h1v1h-1z M76,40h1v1h-1z M78,40h1v1h-1z M82,40h1v1h-1z M83,40h1v1h-1z M91,40h1v1h-1z M92,40h1v1h-1z M93,40h1v1h-1z M94,40h1v1h-1z M96,40h1v1h-1z M98,40h1v1h-1z M99,40h1v1h-1z M100,40h1v1h-1z M102,40h1v1h-1z M103,40h1v1h-1z M105,40h1v1h-1z M107,40h1v1h-1z M108,40h1v1h-1z M5,41h1v1h-1z M7,41h1v1h-1z M12,41h1v1h-1z M13,41h1v1h-1z M14,41h1v1h-1z M15,41h1v1h-1z M16,41h1v1h-1z M17,41h1v1h-1z M18,41h1v1h-1z M21,41h1v1h-1z M22,41h1v1h-1z M23,41h1v1h-1z M24,41h1v1h-1z M25,41h1v1h-1z M26,41h1v1h-1z M30,41h1v1h-1z M32,41h1v1h-1z M34,41h1v1h-1z M35,41h1v1h-1z M36,41h1v1h-1z M37,41h1v1h-1z M38,41h1v1h-1z M39,41h1v1h-1z M48,41h1v1h-1z M49,41h1v1h-1z M50,41h1v1h-1z M52,41h1v1h-1z M55,41h1v1h-1z M57,41h1v1h-1z M59,41h1v1h-1z M64,41h1v1h-1z M66,41h1v1h-1z M67,41h1v1h-1z M68,41h1v1h-1z M69,41h1v1h-1z M70,41h1v1h-1z M72,41h1v1h-1z M73,41h1v1h-1z M74,41h1v1h-1z M75,41h1v1h-1z M76,41h1v1h-1z M78,41h1v1h-1z M82,41h1v1h-1z M84,41h1v1h-1z M93,41h1v1h-1z M94,41h1v1h-1z M96,41h1v1h-1z M98,41h1v1h-1z M99,41h1v1h-1z M100,41h1v1h-1z M101,41h1v1h-1z M106,41h1v1h-1z M108,41h1v1h-1z M6,42h1v1h-1z M7,42h1v1h-1z M8,42h1v1h-1z M9,42h1v1h-1z M10,42h1v1h-1z M12,42h1v1h-1z M13,42h1v1h-1z M14,42h1v1h-1z M16,42h1v1h-1z M17,42h1v1h-1z M20,42h1v1h-1z M21,42h1v1h-1z M23,42h1v1h-1z M25,42h1v1h-1z M26,42h1v1h-1z M27,42h1v1h-1z M30,42h1v1h-1z M31,42h1v1h-1z M35,42h1v1h-1z M38,42h1v1h-1z M41,42h1v1h-1z M43,42h1v1h-1z M48,42h1v1h-1z M49,42h1v1h-1z M50,42h1v1h-1z M53,42h1v1h-1z M55,42h1v1h-1z M59,42h1v1h-1z M62,42h1v1h-1z M63,42h1v1h-1z M64,42h1v1h-1z M67,42h1v1h-1z M68,42h1v1h-1z M71,42h1v1h-1z M72,42h1v1h-1z M74,42h1v1h-1z M77,42h1v1h-1z M80,42h1v1h-1z M85,42h1v1h-1z M86,42h1v1h-1z M87,42h1v1h-1z M88,42h1v1h-1z M95,42h1v1h-1z M98,42h1v1h-1z M99,42h1v1h-1z M100,42h1v1h-1z M102,42h1v1h-1z M106,42h1v1h-1z M107,42h1v1h-1z M5,43h1v1h-1z M6,43h1v1h-1z M7,43h1v1h-1z M11,43h1v1h-1z M13,43h1v1h-1z M14,43h1v1h-1z M16,43h1v1h-1z M17,43h1v1h-1z M19,43h1v1h-1z M20,43h1v1h-1z M21,43h1v1h-1z M22,43h1v1h-1z M23,43h1v1h-1z M26,43h1v1h-1z M27,43h1v1h-1z M28,43h1v1h-1z M33,43h1v1h-1z M34,43h1v1h-1z M35,43h1v1h-1z M37,43h1v1h-1z M38,43h1v1h-1z M42,43h1v1h-1z M43,43h1v1h-1z M44,43h1v1h-1z M45,43h1v1h-1z M46,43h1v1h-1z M47,43h1v1h-1z M51,43h1v1h-1z M52,43h1v1h-1z M57,43h1v1h-1z M59,43h1v1h-1z M62,43h1v1h-1z M66,43h1v1h-1z M68,43h1v1h-1z M70,43h1v1h-1z M71,43h1v1h-1z M74,43h1v1h-1z M75,43h1v1h-1z M76,43h1v1h-1z M77,43h1v1h-1z M81,43h1v1h-1z M83,43h1v1h-1z M85,43h1v1h-1z M89,43h1v1h-1z M90,43h1v1h-1z M92,43h1v1h-1z M93,43h1v1h-1z M94,43h1v1h-1z M95,43h1v1h-1z M97,43h1v1h-1z M98,43h1v1h-1z M99,43h1v1h-1z M102,43h1v1h-1z M104,43h1v1h-1z M107,43h1v1h-1z M6,44h1v1h-1z M7,44h1v1h-1z M9,44h1v1h-1z M10,44h1v1h-1z M11,44h1v1h-1z M13,44h1v1h-1z M14,44h1v1h-1z M16,44h1v1h-1z M17,44h1v1h-1z M20,44h1v1h-1z M21,44h1v1h-1z M22,44h1v1h-1z M24,44h1v1h-1z M25,44h1v1h-1z M26,44h1v1h-1z M27,44h1v1h-1z M31,44h1v1h-1z M33,44h1v1h-1z M37,44h1v1h-1z M38,44h1v1h-1z M41,44h1v1h-1z M43,44h1v1h-1z M44,44h1v1h-1z M48,44h1v1h-1z M52,44h1v1h-1z M57,44h1v1h-1z M58,44h1v1h-1z M59,44h1v1h-1z M61,44h1v1h-1z M62,44h1v1h-1z M63,44h1v1h-1z M64,44h1v1h-1z M65,44h1v1h-1z M66,44h1v1h-1z M67,44h1v1h-1z M68,44h1v1h-1z M71,44h1v1h-1z M73,44h1v1h-1z M76,44h1v1h-1z M78,44h1v1h-1z M84,44h1v1h-1z M87,44h1v1h-1z M90,44h1v1h-1z M91,44h1v1h-1z M94,44h1v1h-1z M97,44h1v1h-1z M100,44h1v1h-1z M102,44h1v1h-1z M103,44h1v1h-1z M106,44h1v1h-1z M107,44h1v1h-1z M5,45h1v1h-1z M7,45h1v1h-1z M9,45h1v1h-1z M11,45h1v1h-1z M13,45h1v1h-1z M15,45h1v1h-1z M16,45h1v1h-1z M17,45h1v1h-1z M18,45h1v1h-1z M19,45h1v1h-1z M21,45h1v1h-1z M22,45h1v1h-1z M23,45h1v1h-1z M25,45h1v1h-1z M27,45h1v1h-1z M28,45h1v1h-1z M30,45h1v1h-1z M33,45h1v1h-1z M36,45h1v1h-1z M40,45h1v1h-1z M43,45h1v1h-1z M45,45h1v1h-1z M46,45h1v1h-1z M48,45h1v1h-1z M50,45h1v1h-1z M51,45h1v1h-1z M53,45h1v1h-1z M54,45h1v1h-1z M55,45h1v1h-1z M57,45h1v1h-1z M59,45h1v1h-1z M61,45h1v1h-1z M65,45h1v1h-1z M67,45h1v1h-1z M72,45h1v1h-1z M73,45h1v1h-1z M74,45h1v1h-1z M78,45h1v1h-1z M84,45h1v1h-1z M87,45h1v1h-1z M88,45h1v1h-1z M89,45h1v1h-1z M90,45h1v1h-1z M93,45h1v1h-1z M95,45h1v1h-1z M96,45h1v1h-1z M97,45h1v1h-1z M99,45h1v1h-1z M100,45h1v1h-1z M102,45h1v1h-1z M105,45h1v1h-1z M106,45h1v1h-1z M107,45h1v1h-1z M108,45h1v1h-1z M5,46h1v1h-1z M9,46h1v1h-1z M10,46h1v1h-1z M11,46h1v1h-1z M12,46h1v1h-1z M14,46h1v1h-1z M19,46h1v1h-1z M20,46h1v1h-1z M21,46h1v1h-1z M22,46h1v1h-1z M23,46h1v1h-1z M26,46h1v1h-1z M27,46h1v1h-1z M30,46h1v1h-1z M31,46h1v1h-1z M38,46h1v1h-1z M40,46h1v1h-1z M41,46h1v1h-1z M44,46h1v1h-1z M47,46h1v1h-1z M50,46h1v1h-1z M51,46h1v1h-1z M52,46h1v1h-1z M57,46h1v1h-1z M60,46h1v1h-1z M62,46h1v1h-1z M65,46h1v1h-1z M71,46h1v1h-1z M74,46h1v1h-1z M75,46h1v1h-1z M76,46h1v1h-1z M78,46h1v1h-1z M79,46h1v1h-1z M83,46h1v1h-1z M84,46h1v1h-1z M86,46h1v1h-1z M88,46h1v1h-1z M89,46h1v1h-1z M91,46h1v1h-1z M96,46h1v1h-1z M98,46h1v1h-1z M99,46h1v1h-1z M100,46h1v1h-1z M105,46h1v1h-1z M107,46h1v1h-1z M7,47h1v1h-1z M9,47h1v1h-1z M14,47h1v1h-1z M15,47h1v1h-1z M16,47h1v1h-1z M17,47h1v1h-1z M21,47h1v1h-1z M25,47h1v1h-1z M28,47h1v1h-1z M29,47h1v1h-1z M34,47h1v1h-1z M35,47h1v1h-1z M37,47h1v1h-1z M38,47h1v1h-1z M41,47h1v1h-1z M44,47h1v1h-1z M45,47h1v1h-1z M47,47h1v1h-1z M49,47h1v1h-1z M50,47h1v1h-1z M53,47h1v1h-1z M56,47h1v1h-1z M58,47h1v1h-1z M59,47h1v1h-1z M61,47h1v1h-1z M67,47h1v1h-1z M68,47h1v1h-1z M69,47h1v1h-1z M70,47h1v1h-1z M71,47h1v1h-1z M73,47h1v1h-1z M76,47h1v1h-1z M77,47h1v1h-1z M79,47h1v1h-1z M85,47h1v1h-1z M86,47h1v1h-1z M90,47h1v1h-1z M92,47h1v1h-1z M93,47h1v1h-1z M97,47h1v1h-1z M99,47h1v1h-1z M102,47h1v1h-1z M103,47h1v1h-1z M104,47h1v1h-1z M108,47h1v1h-1z M4,48h1v1h-1z M7,48h1v1h-1z M9,48h1v1h-1z M10,48h1v1h-1z M11,48h1v1h-1z M12,48h1v1h-1z M14,48h1v1h-1z M16,48h1v1h-1z M17,48h1v1h-1z M18,48h1v1h-1z M20,48h1v1h-1z M22,48h1v1h-1z M23,48h1v1h-1z M26,48h1v1h-1z M30,48h1v1h-1z M31,48h1v1h-1z M36,48h1v1h-1z M38,48h1v1h-1z M41,48h1v1h-1z M42,48h1v1h-1z M43,48h1v1h-1z M44,48h1v1h-1z M46,48h1v1h-1z M48,48h1v1h-1z M49,48h1v1h-1z M50,48h1v1h-1z M52,48h1v1h-1z M53,48h1v1h-1z M54,48h1v1h-1z M55,48h1v1h-1z M57,48h1v1h-1z M58,48h1v1h-1z M62,48h1v1h-1z M65,48h1v1h-1z M67,48h1v1h-1z M68,48h1v1h-1z M69,48h1v1h-1z M71,48h1v1h-1z M72,48h1v1h-1z M73,48h1v1h-1z M76,48h1v1h-1z M78,48h1v1h-1z M79,48h1v1h-1z M81,48h1v1h-1z M83,48h1v1h-1z M85,48h1v1h-1z M88,48h1v1h-1z M90,48h1v1h-1z M92,48h1v1h-1z M93,48h1v1h-1z M94,48h1v1h-1z M95,48h1v1h-1z M96,48h1v1h-1z M97,48h1v1h-1z M99,48h1v1h-1z M100,48h1v1h-1z M102,48h1v1h-1z M103,48h1v1h-1z M108,48h1v1h-1z M4,49h1v1h-1z M6,49h1v1h-1z M11,49h1v1h-1z M12,49h1v1h-1z M13,49h1v1h-1z M14,49h1v1h-1z M15,49h1v1h-1z M16,49h1v1h-1z M19,49h1v1h-1z M20,49h1v1h-1z M21,49h1v1h-1z M23,49h1v1h-1z M25,49h1v1h-1z M27,49h1v1h-1z M29,49h1v1h-1z M32,49h1v1h-1z M33,49h1v1h-1z M34,49h1v1h-1z M35,49h1v1h-1z M36,49h1v1h-1z M37,49h1v1h-1z M40,49h1v1h-1z M41,49h1v1h-1z M45,49h1v1h-1z M46,49h1v1h-1z M48,49h1v1h-1z M49,49h1v1h-1z M50,49h1v1h-1z M54,49h1v1h-1z M61,49h1v1h-1z M62,49h1v1h-1z M64,49h1v1h-1z M65,49h1v1h-1z M66,49h1v1h-1z M68,49h1v1h-1z M72,49h1v1h-1z M73,49h1v1h-1z M74,49h1v1h-1z M76,49h1v1h-1z M78,49h1v1h-1z M80,49h1v1h-1z M81,49h1v1h-1z M83,49h1v1h-1z M84,49h1v1h-1z M85,49h1v1h-1z M87,49h1v1h-1z M88,49h1v1h-1z M89,49h1v1h-1z M90,49h1v1h-1z M91,49h1v1h-1z M92,49h1v1h-1z M95,49h1v1h-1z M96,49h1v1h-1z M99,49h1v1h-1z M103,49h1v1h-1z M107,49h1v1h-1z M108,49h1v1h-1z M4,50h1v1h-1z M5,50h1v1h-1z M6,50h1v1h-1z M7,50h1v1h-1z M8,50h1v1h-1z M10,50h1v1h-1z M11,50h1v1h-1z M13,50h1v1h-1z M17,50h1v1h-1z M19,50h1v1h-1z M22,50h1v1h-1z M23,50h1v1h-1z M25,50h1v1h-1z M28,50h1v1h-1z M31,50h1v1h-1z M35,50h1v1h-1z M36,50h1v1h-1z M38,50h1v1h-1z M41,50h1v1h-1z M44,50h1v1h-1z M50,50h1v1h-1z M53,50h1v1h-1z M56,50h1v1h-1z M59,50h1v1h-1z M62,50h1v1h-1z M64,50h1v1h-1z M65,50h1v1h-1z M71,50h1v1h-1z M73,50h1v1h-1z M74,50h1v1h-1z M76,50h1v1h-1z M77,50h1v1h-1z M78,50h1v1h-1z M83,50h1v1h-1z M84,50h1v1h-1z M85,50h1v1h-1z M86,50h1v1h-1z M87,50h1v1h-1z M89,50h1v1h-1z M95,50h1v1h-1z M96,50h1v1h-1z M98,50h1v1h-1z M99,50h1v1h-1z M100,50h1v1h-1z M102,50h1v1h-1z M103,50h1v1h-1z M104,50h1v1h-1z M106,50h1v1h-1z M107,50h1v1h-1z M4,51h1v1h-1z M11,51h1v1h-1z M12,51h1v1h-1z M16,51h1v1h-1z M19,51h1v1h-1z M21,51h1v1h-1z M23,51h1v1h-1z M27,51h1v1h-1z M28,51h1v1h-1z M29,51h1v1h-1z M31,51h1v1h-1z M32,51h1v1h-1z M37,51h1v1h-1z M38,51h1v1h-1z M44,51h1v1h-1z M45,51h1v1h-1z M47,51h1v1h-1z M49,51h1v1h-1z M50,51h1v1h-1z M51,51h1v1h-1z M52,51h1v1h-1z M55,51h1v1h-1z M56,51h1v1h-1z M57,51h1v1h-1z M59,51h1v1h-1z M61,51h1v1h-1z M63,51h1v1h-1z M66,51h1v1h-1z M68,51h1v1h-1z M69,51h1v1h-1z M71,51h1v1h-1z M77,51h1v1h-1z M80,51h1v1h-1z M83,51h1v1h-1z M90,51h1v1h-1z M92,51h1v1h-1z M93,51h1v1h-1z M94,51h1v1h-1z M97,51h1v1h-1z M99,51h1v1h-1z M100,51h1v1h-1z M101,51h1v1h-1z M102,51h1v1h-1z M104,51h1v1h-1z M108,51h1v1h-1z M5,52h1v1h-1z M7,52h1v1h-1z M8,52h1v1h-1z M9,52h1v1h-1z M10,52h1v1h-1z M11,52h1v1h-1z M12,52h1v1h-1z M13,52h1v1h-1z M16,52h1v1h-1z M19,52h1v1h-1z M23,52h1v1h-1z M28,52h1v1h-1z M29,52h1v1h-1z M30,52h1v1h-1z M31,52h1v1h-1z M32,52h1v1h-1z M33,52h1v1h-1z M34,52h1v1h-1z M35,52h1v1h-1z M39,52h1v1h-1z M42,52h1v1h-1z M43,52h1v1h-1z M47,52h1v1h-1z M48,52h1v1h-1z M49,52h1v1h-1z M50,52h1v1h-1z M52,52h1v1h-1z M53,52h1v1h-1z M54,52h1v1h-1z M55,52h1v1h-1z M56,52h1v1h-1z M58,52h1v1h-1z M59,52h1v1h-1z M60,52h1v1h-1z M61,52h1v1h-1z M62,52h1v1h-1z M63,52h1v1h-1z M64,52h1v1h-1z M69,52h1v1h-1z M70,52h1v1h-1z M71,52h1v1h-1z M73,52h1v1h-1z M76,52h1v1h-1z M77,52h1v1h-1z M78,52h1v1h-1z M79,52h1v1h-1z M80,52h1v1h-1z M82,52h1v1h-1z M84,52h1v1h-1z M85,52h1v1h-1z M87,52h1v1h-1z M88,52h1v1h-1z M91,52h1v1h-1z M92,52h1v1h-1z M94,52h1v1h-1z M95,52h1v1h-1z M97,52h1v1h-1z M98,52h1v1h-1z M99,52h1v1h-1z M100,52h1v1h-1z M101,52h1v1h-1z M102,52h1v1h-1z M103,52h1v1h-1z M104,52h1v1h-1z M108,52h1v1h-1z M4,53h1v1h-1z M5,53h1v1h-1z M8,53h1v1h-1z M12,53h1v1h-1z M17,53h1v1h-1z M18,53h1v1h-1z M23,53h1v1h-1z M28,53h1v1h-1z M32,53h1v1h-1z M33,53h1v1h-1z M34,53h1v1h-1z M37,53h1v1h-1z M38,53h1v1h-1z M40,53h1v1h-1z M42,53h1v1h-1z M44,53h1v1h-1z M45,53h1v1h-1z M48,53h1v1h-1z M51,53h1v1h-1z M52,53h1v1h-1z M56,53h1v1h-1z M60,53h1v1h-1z M61,53h1v1h-1z M62,53h1v1h-1z M63,53h1v1h-1z M64,53h1v1h-1z M65,53h1v1h-1z M66,53h1v1h-1z M67,53h1v1h-1z M69,53h1v1h-1z M71,53h1v1h-1z M72,53h1v1h-1z M74,53h1v1h-1z M75,53h1v1h-1z M76,53h1v1h-1z M80,53h1v1h-1z M83,53h1v1h-1z M84,53h1v1h-1z M86,53h1v1h-1z M88,53h1v1h-1z M89,53h1v1h-1z M91,53h1v1h-1z M92,53h1v1h-1z M93,53h1v1h-1z M96,53h1v1h-1z M97,53h1v1h-1z M98,53h1v1h-1z M99,53h1v1h-1z M100,53h1v1h-1z M104,53h1v1h-1z M105,53h1v1h-1z M106,53h1v1h-1z M107,53h1v1h-1z M108,53h1v1h-1z M4,54h1v1h-1z M6,54h1v1h-1z M8,54h1v1h-1z M10,54h1v1h-1z M12,54h1v1h-1z M13,54h1v1h-1z M16,54h1v1h-1z M18,54h1v1h-1z M19,54h1v1h-1z M22,54h1v1h-1z M23,54h1v1h-1z M24,54h1v1h-1z M26,54h1v1h-1z M28,54h1v1h-1z M30,54h1v1h-1z M32,54h1v1h-1z M35,54h1v1h-1z M36,54h1v1h-1z M38,54h1v1h-1z M41,54h1v1h-1z M43,54h1v1h-1z M44,54h1v1h-1z M47,54h1v1h-1z M48,54h1v1h-1z M50,54h1v1h-1z M51,54h1v1h-1z M52,54h1v1h-1z M54,54h1v1h-1z M56,54h1v1h-1z M60,54h1v1h-1z M62,54h1v1h-1z M63,54h1v1h-1z M64,54h1v1h-1z M65,54h1v1h-1z M74,54h1v1h-1z M76,54h1v1h-1z M78,54h1v1h-1z M80,54h1v1h-1z M83,54h1v1h-1z M84,54h1v1h-1z M85,54h1v1h-1z M86,54h1v1h-1z M88,54h1v1h-1z M89,54h1v1h-1z M96,54h1v1h-1z M98,54h1v1h-1z M99,54h1v1h-1z M100,54h1v1h-1z M102,54h1v1h-1z M104,54h1v1h-1z M105,54h1v1h-1z M106,54h1v1h-1z M107,54h1v1h-1z M4,55h1v1h-1z M5,55h1v1h-1z M6,55h1v1h-1z M8,55h1v1h-1z M12,55h1v1h-1z M15,55h1v1h-1z M16,55h1v1h-1z M17,55h1v1h-1z M21,55h1v1h-1z M23,55h1v1h-1z M27,55h1v1h-1z M28,55h1v1h-1z M32,55h1v1h-1z M33,55h1v1h-1z M34,55h1v1h-1z M35,55h1v1h-1z M38,55h1v1h-1z M42,55h1v1h-1z M44,55h1v1h-1z M45,55h1v1h-1z M46,55h1v1h-1z M50,55h1v1h-1z M52,55h1v1h-1z M56,55h1v1h-1z M58,55h1v1h-1z M59,55h1v1h-1z M61,55h1v1h-1z M66,55h1v1h-1z M67,55h1v1h-1z M68,55h1v1h-1z M69,55h1v1h-1z M71,55h1v1h-1z M73,55h1v1h-1z M74,55h1v1h-1z M75,55h1v1h-1z M76,55h1v1h-1z M80,55h1v1h-1z M81,55h1v1h-1z M83,55h1v1h-1z M87,55h1v1h-1z M92,55h1v1h-1z M95,55h1v1h-1z M100,55h1v1h-1z M104,55h1v1h-1z M105,55h1v1h-1z M107,55h1v1h-1z M4,56h1v1h-1z M5,56h1v1h-1z M8,56h1v1h-1z M9,56h1v1h-1z M10,56h1v1h-1z M11,56h1v1h-1z M12,56h1v1h-1z M18,56h1v1h-1z M19,56h1v1h-1z M20,56h1v1h-1z M28,56h1v1h-1z M29,56h1v1h-1z M30,56h1v1h-1z M31,56h1v1h-1z M32,56h1v1h-1z M41,56h1v1h-1z M43,56h1v1h-1z M44,56h1v1h-1z M45,56h1v1h-1z M46,56h1v1h-1z M48,56h1v1h-1z M51,56h1v1h-1z M52,56h1v1h-1z M53,56h1v1h-1z M54,56h1v1h-1z M55,56h1v1h-1z M56,56h1v1h-1z M58,56h1v1h-1z M60,56h1v1h-1z M62,56h1v1h-1z M65,56h1v1h-1z M66,56h1v1h-1z M72,56h1v1h-1z M73,56h1v1h-1z M76,56h1v1h-1z M77,56h1v1h-1z M78,56h1v1h-1z M79,56h1v1h-1z M80,56h1v1h-1z M82,56h1v1h-1z M83,56h1v1h-1z M86,56h1v1h-1z M89,56h1v1h-1z M91,56h1v1h-1z M92,56h1v1h-1z M94,56h1v1h-1z M95,56h1v1h-1z M100,56h1v1h-1z M101,56h1v1h-1z M102,56h1v1h-1z M103,56h1v1h-1z M104,56h1v1h-1z M105,56h1v1h-1z M107,56h1v1h-1z M4,57h1v1h-1z M5,57h1v1h-1z M6,57h1v1h-1z M9,57h1v1h-1z M12,57h1v1h-1z M16,57h1v1h-1z M19,57h1v1h-1z M21,57h1v1h-1z M22,57h1v1h-1z M23,57h1v1h-1z M25,57h1v1h-1z M27,57h1v1h-1z M28,57h1v1h-1z M29,57h1v1h-1z M30,57h1v1h-1z M31,57h1v1h-1z M33,57h1v1h-1z M34,57h1v1h-1z M35,57h1v1h-1z M36,57h1v1h-1z M37,57h1v1h-1z M38,57h1v1h-1z M40,57h1v1h-1z M42,57h1v1h-1z M43,57h1v1h-1z M45,57h1v1h-1z M46,57h1v1h-1z M47,57h1v1h-1z M50,57h1v1h-1z M51,57h1v1h-1z M55,57h1v1h-1z M57,57h1v1h-1z M61,57h1v1h-1z M62,57h1v1h-1z M72,57h1v1h-1z M73,57h1v1h-1z M77,57h1v1h-1z M78,57h1v1h-1z M79,57h1v1h-1z M81,57h1v1h-1z M83,57h1v1h-1z M85,57h1v1h-1z M94,57h1v1h-1z M96,57h1v1h-1z M97,57h1v1h-1z M99,57h1v1h-1z M100,57h1v1h-1z M102,57h1v1h-1z M103,57h1v1h-1z M106,57h1v1h-1z M107,57h1v1h-1z M5,58h1v1h-1z M6,58h1v1h-1z M8,58h1v1h-1z M10,58h1v1h-1z M14,58h1v1h-1z M17,58h1v1h-1z M19,58h1v1h-1z M22,58h1v1h-1z M25,58h1v1h-1z M26,58h1v1h-1z M29,58h1v1h-1z M31,58h1v1h-1z M33,58h1v1h-1z M35,58h1v1h-1z M38,58h1v1h-1z M39,58h1v1h-1z M40,58h1v1h-1z M41,58h1v1h-1z M50,58h1v1h-1z M51,58h1v1h-1z M53,58h1v1h-1z M55,58h1v1h-1z M56,58h1v1h-1z M57,58h1v1h-1z M59,58h1v1h-1z M60,58h1v1h-1z M62,58h1v1h-1z M64,58h1v1h-1z M65,58h1v1h-1z M67,58h1v1h-1z M68,58h1v1h-1z M74,58h1v1h-1z M78,58h1v1h-1z M79,58h1v1h-1z M83,58h1v1h-1z M84,58h1v1h-1z M86,58h1v1h-1z M87,58h1v1h-1z M93,58h1v1h-1z M96,58h1v1h-1z M98,58h1v1h-1z M99,58h1v1h-1z M101,58h1v1h-1z M105,58h1v1h-1z M106,58h1v1h-1z M107,58h1v1h-1z M6,59h1v1h-1z M7,59h1v1h-1z M9,59h1v1h-1z M12,59h1v1h-1z M13,59h1v1h-1z M14,59h1v1h-1z M16,59h1v1h-1z M17,59h1v1h-1z M20,59h1v1h-1z M23,59h1v1h-1z M26,59h1v1h-1z M27,59h1v1h-1z M32,59h1v1h-1z M34,59h1v1h-1z M35,59h1v1h-1z M37,59h1v1h-1z M42,59h1v1h-1z M44,59h1v1h-1z M46,59h1v1h-1z M47,59h1v1h-1z M49,59h1v1h-1z M50,59h1v1h-1z M51,59h1v1h-1z M55,59h1v1h-1z M56,59h1v1h-1z M58,59h1v1h-1z M61,59h1v1h-1z M68,59h1v1h-1z M70,59h1v1h-1z M71,59h1v1h-1z M73,59h1v1h-1z M75,59h1v1h-1z M77,59h1v1h-1z M80,59h1v1h-1z M81,59h1v1h-1z M83,59h1v1h-1z M86,59h1v1h-1z M90,59h1v1h-1z M91,59h1v1h-1z M92,59h1v1h-1z M94,59h1v1h-1z M95,59h1v1h-1z M98,59h1v1h-1z M101,59h1v1h-1z M102,59h1v1h-1z M104,59h1v1h-1z M107,59h1v1h-1z M108,59h1v1h-1z M5,60h1v1h-1z M7,60h1v1h-1z M10,60h1v1h-1z M11,60h1v1h-1z M13,60h1v1h-1z M14,60h1v1h-1z M15,60h1v1h-1z M16,60h1v1h-1z M17,60h1v1h-1z M18,60h1v1h-1z M20,60h1v1h-1z M22,60h1v1h-1z M23,60h1v1h-1z M25,60h1v1h-1z M28,60h1v1h-1z M30,60h1v1h-1z M32,60h1v1h-1z M33,60h1v1h-1z M35,60h1v1h-1z M42,60h1v1h-1z M46,60h1v1h-1z M47,60h1v1h-1z M48,60h1v1h-1z M49,60h1v1h-1z M51,60h1v1h-1z M52,60h1v1h-1z M54,60h1v1h-1z M55,60h1v1h-1z M56,60h1v1h-1z M57,60h1v1h-1z M58,60h1v1h-1z M60,60h1v1h-1z M63,60h1v1h-1z M68,60h1v1h-1z M72,60h1v1h-1z M75,60h1v1h-1z M76,60h1v1h-1z M78,60h1v1h-1z M79,60h1v1h-1z M80,60h1v1h-1z M81,60h1v1h-1z M83,60h1v1h-1z M84,60h1v1h-1z M85,60h1v1h-1z M86,60h1v1h-1z M89,60h1v1h-1z M90,60h1v1h-1z M91,60h1v1h-1z M95,60h1v1h-1z M96,60h1v1h-1z M97,60h1v1h-1z M98,60h1v1h-1z M99,60h1v1h-1z M100,60h1v1h-1z M103,60h1v1h-1z M106,60h1v1h-1z M4,61h1v1h-1z M8,61h1v1h-1z M11,61h1v1h-1z M12,61h1v1h-1z M14,61h1v1h-1z M16,61h1v1h-1z M17,61h1v1h-1z M20,61h1v1h-1z M23,61h1v1h-1z M24,61h1v1h-1z M26,61h1v1h-1z M27,61h1v1h-1z M30,61h1v1h-1z M31,61h1v1h-1z M33,61h1v1h-1z M34,61h1v1h-1z M37,61h1v1h-1z M40,61h1v1h-1z M45,61h1v1h-1z M46,61h1v1h-1z M47,61h1v1h-1z M50,61h1v1h-1z M53,61h1v1h-1z M54,61h1v1h-1z M57,61h1v1h-1z M59,61h1v1h-1z M60,61h1v1h-1z M61,61h1v1h-1z M62,61h1v1h-1z M64,61h1v1h-1z M68,61h1v1h-1z M69,61h1v1h-1z M70,61h1v1h-1z M72,61h1v1h-1z M76,61h1v1h-1z M79,61h1v1h-1z M81,61h1v1h-1z M82,61h1v1h-1z M83,61h1v1h-1z M84,61h1v1h-1z M85,61h1v1h-1z M86,61h1v1h-1z M87,61h1v1h-1z M88,61h1v1h-1z M89,61h1v1h-1z M91,61h1v1h-1z M93,61h1v1h-1z M94,61h1v1h-1z M99,61h1v1h-1z M100,61h1v1h-1z M102,61h1v1h-1z M103,61h1v1h-1z M104,61h1v1h-1z M106,61h1v1h-1z M5,62h1v1h-1z M10,62h1v1h-1z M12,62h1v1h-1z M13,62h1v1h-1z M15,62h1v1h-1z M18,62h1v1h-1z M19,62h1v1h-1z M21,62h1v1h-1z M23,62h1v1h-1z M24,62h1v1h-1z M25,62h1v1h-1z M29,62h1v1h-1z M30,62h1v1h-1z M31,62h1v1h-1z M36,62h1v1h-1z M37,62h1v1h-1z M38,62h1v1h-1z M40,62h1v1h-1z M41,62h1v1h-1z M49,62h1v1h-1z M50,62h1v1h-1z M53,62h1v1h-1z M55,62h1v1h-1z M60,62h1v1h-1z M62,62h1v1h-1z M63,62h1v1h-1z M65,62h1v1h-1z M67,62h1v1h-1z M68,62h1v1h-1z M71,62h1v1h-1z M74,62h1v1h-1z M77,62h1v1h-1z M78,62h1v1h-1z M79,62h1v1h-1z M83,62h1v1h-1z M86,62h1v1h-1z M87,62h1v1h-1z M88,62h1v1h-1z M89,62h1v1h-1z M92,62h1v1h-1z M95,62h1v1h-1z M98,62h1v1h-1z M100,62h1v1h-1z M101,62h1v1h-1z M103,62h1v1h-1z M104,62h1v1h-1z M106,62h1v1h-1z M107,62h1v1h-1z M4,63h1v1h-1z M5,63h1v1h-1z M6,63h1v1h-1z M7,63h1v1h-1z M8,63h1v1h-1z M11,63h1v1h-1z M14,63h1v1h-1z M15,63h1v1h-1z M16,63h1v1h-1z M17,63h1v1h-1z M19,63h1v1h-1z M20,63h1v1h-1z M21,63h1v1h-1z M22,63h1v1h-1z M23,63h1v1h-1z M25,63h1v1h-1z M29,63h1v1h-1z M30,63h1v1h-1z M32,63h1v1h-1z M33,63h1v1h-1z M34,63h1v1h-1z M35,63h1v1h-1z M41,63h1v1h-1z M43,63h1v1h-1z M44,63h1v1h-1z M45,63h1v1h-1z M46,63h1v1h-1z M47,63h1v1h-1z M52,63h1v1h-1z M53,63h1v1h-1z M54,63h1v1h-1z M55,63h1v1h-1z M57,63h1v1h-1z M58,63h1v1h-1z M59,63h1v1h-1z M65,63h1v1h-1z M68,63h1v1h-1z M71,63h1v1h-1z M73,63h1v1h-1z M74,63h1v1h-1z M75,63h1v1h-1z M76,63h1v1h-1z M82,63h1v1h-1z M83,63h1v1h-1z M85,63h1v1h-1z M89,63h1v1h-1z M92,63h1v1h-1z M94,63h1v1h-1z M95,63h1v1h-1z M97,63h1v1h-1z M101,63h1v1h-1z M104,63h1v1h-1z M105,63h1v1h-1z M108,63h1v1h-1z M4,64h1v1h-1z M5,64h1v1h-1z M6,64h1v1h-1z M8,64h1v1h-1z M10,64h1v1h-1z M11,64h1v1h-1z M12,64h1v1h-1z M14,64h1v1h-1z M15,64h1v1h-1z M18,64h1v1h-1z M19,64h1v1h-1z M20,64h1v1h-1z M21,64h1v1h-1z M23,64h1v1h-1z M25,64h1v1h-1z M26,64h1v1h-1z M28,64h1v1h-1z M30,64h1v1h-1z M31,64h1v1h-1z M39,64h1v1h-1z M40,64h1v1h-1z M41,64h1v1h-1z M43,64h1v1h-1z M44,64h1v1h-1z M46,64h1v1h-1z M53,64h1v1h-1z M54,64h1v1h-1z M57,64h1v1h-1z M58,64h1v1h-1z M59,64h1v1h-1z M60,64h1v1h-1z M61,64h1v1h-1z M66,64h1v1h-1z M67,64h1v1h-1z M68,64h1v1h-1z M71,64h1v1h-1z M74,64h1v1h-1z M75,64h1v1h-1z M78,64h1v1h-1z M80,64h1v1h-1z M81,64h1v1h-1z M82,64h1v1h-1z M83,64h1v1h-1z M85,64h1v1h-1z M86,64h1v1h-1z M89,64h1v1h-1z M90,64h1v1h-1z M96,64h1v1h-1z M97,64h1v1h-1z M99,64h1v1h-1z M101,64h1v1h-1z M102,64h1v1h-1z M103,64h1v1h-1z M105,64h1v1h-1z M107,64h1v1h-1z M108,64h1v1h-1z M4,65h1v1h-1z M5,65h1v1h-1z M6,65h1v1h-1z M9,65h1v1h-1z M12,65h1v1h-1z M14,65h1v1h-1z M17,65h1v1h-1z M18,65h1v1h-1z M19,65h1v1h-1z M26,65h1v1h-1z M28,65h1v1h-1z M30,65h1v1h-1z M31,65h1v1h-1z M33,65h1v1h-1z M35,65h1v1h-1z M37,65h1v1h-1z M44,65h1v1h-1z M47,65h1v1h-1z M48,65h1v1h-1z M52,65h1v1h-1z M55,65h1v1h-1z M57,65h1v1h-1z M58,65h1v1h-1z M61,65h1v1h-1z M62,65h1v1h-1z M64,65h1v1h-1z M65,65h1v1h-1z M66,65h1v1h-1z M68,65h1v1h-1z M70,65h1v1h-1z M73,65h1v1h-1z M74,65h1v1h-1z M75,65h1v1h-1z M76,65h1v1h-1z M79,65h1v1h-1z M81,65h1v1h-1z M84,65h1v1h-1z M85,65h1v1h-1z M86,65h1v1h-1z M88,65h1v1h-1z M89,65h1v1h-1z M91,65h1v1h-1z M94,65h1v1h-1z M95,65h1v1h-1z M97,65h1v1h-1z M98,65h1v1h-1z M99,65h1v1h-1z M100,65h1v1h-1z M102,65h1v1h-1z M106,65h1v1h-1z M107,65h1v1h-1z M108,65h1v1h-1z M4,66h1v1h-1z M7,66h1v1h-1z M9,66h1v1h-1z M10,66h1v1h-1z M13,66h1v1h-1z M14,66h1v1h-1z M15,66h1v1h-1z M16,66h1v1h-1z M18,66h1v1h-1z M19,66h1v1h-1z M20,66h1v1h-1z M23,66h1v1h-1z M26,66h1v1h-1z M30,66h1v1h-1z M31,66h1v1h-1z M32,66h1v1h-1z M37,66h1v1h-1z M38,66h1v1h-1z M41,66h1v1h-1z M44,66h1v1h-1z M50,66h1v1h-1z M54,66h1v1h-1z M56,66h1v1h-1z M60,66h1v1h-1z M62,66h1v1h-1z M63,66h1v1h-1z M64,66h1v1h-1z M67,66h1v1h-1z M68,66h1v1h-1z M72,66h1v1h-1z M74,66h1v1h-1z M77,66h1v1h-1z M83,66h1v1h-1z M84,66h1v1h-1z M86,66h1v1h-1z M87,66h1v1h-1z M88,66h1v1h-1z M89,66h1v1h-1z M91,66h1v1h-1z M95,66h1v1h-1z M96,66h1v1h-1z M97,66h1v1h-1z M98,66h1v1h-1z M102,66h1v1h-1z M103,66h1v1h-1z M104,66h1v1h-1z M105,66h1v1h-1z M106,66h1v1h-1z M107,66h1v1h-1z M6,67h1v1h-1z M7,67h1v1h-1z M8,67h1v1h-1z M11,67h1v1h-1z M12,67h1v1h-1z M13,67h1v1h-1z M15,67h1v1h-1z M17,67h1v1h-1z M19,67h1v1h-1z M20,67h1v1h-1z M22,67h1v1h-1z M23,67h1v1h-1z M24,67h1v1h-1z M25,67h1v1h-1z M27,67h1v1h-1z M28,67h1v1h-1z M29,67h1v1h-1z M30,67h1v1h-1z M31,67h1v1h-1z M33,67h1v1h-1z M34,67h1v1h-1z M35,67h1v1h-1z M37,67h1v1h-1z M41,67h1v1h-1z M42,67h1v1h-1z M44,67h1v1h-1z M46,67h1v1h-1z M47,67h1v1h-1z M49,67h1v1h-1z M50,67h1v1h-1z M51,67h1v1h-1z M54,67h1v1h-1z M56,67h1v1h-1z M57,67h1v1h-1z M58,67h1v1h-1z M61,67h1v1h-1z M65,67h1v1h-1z M66,67h1v1h-1z M68,67h1v1h-1z M69,67h1v1h-1z M70,67h1v1h-1z M71,67h1v1h-1z M73,67h1v1h-1z M76,67h1v1h-1z M77,67h1v1h-1z M78,67h1v1h-1z M79,67h1v1h-1z M81,67h1v1h-1z M83,67h1v1h-1z M85,67h1v1h-1z M92,67h1v1h-1z M93,67h1v1h-1z M94,67h1v1h-1z M95,67h1v1h-1z M102,67h1v1h-1z M105,67h1v1h-1z M108,67h1v1h-1z M8,68h1v1h-1z M9,68h1v1h-1z M10,68h1v1h-1z M17,68h1v1h-1z M19,68h1v1h-1z M20,68h1v1h-1z M21,68h1v1h-1z M22,68h1v1h-1z M23,68h1v1h-1z M24,68h1v1h-1z M26,68h1v1h-1z M27,68h1v1h-1z M29,68h1v1h-1z M30,68h1v1h-1z M31,68h1v1h-1z M32,68h1v1h-1z M34,68h1v1h-1z M36,68h1v1h-1z M39,68h1v1h-1z M42,68h1v1h-1z M43,68h1v1h-1z M44,68h1v1h-1z M45,68h1v1h-1z M46,68h1v1h-1z M47,68h1v1h-1z M48,68h1v1h-1z M49,68h1v1h-1z M52,68h1v1h-1z M53,68h1v1h-1z M54,68h1v1h-1z M55,68h1v1h-1z M56,68h1v1h-1z M60,68h1v1h-1z M62,68h1v1h-1z M64,68h1v1h-1z M65,68h1v1h-1z M66,68h1v1h-1z M68,68h1v1h-1z M73,68h1v1h-1z M74,68h1v1h-1z M77,68h1v1h-1z M78,68h1v1h-1z M79,68h1v1h-1z M80,68h1v1h-1z M89,68h1v1h-1z M90,68h1v1h-1z M95,68h1v1h-1z M98,68h1v1h-1z M101,68h1v1h-1z M102,68h1v1h-1z M103,68h1v1h-1z M107,68h1v1h-1z M108,68h1v1h-1z M4,69h1v1h-1z M5,69h1v1h-1z M9,69h1v1h-1z M11,69h1v1h-1z M14,69h1v1h-1z M18,69h1v1h-1z M19,69h1v1h-1z M21,69h1v1h-1z M26,69h1v1h-1z M28,69h1v1h-1z M33,69h1v1h-1z M34,69h1v1h-1z M35,69h1v1h-1z M38,69h1v1h-1z M40,69h1v1h-1z M43,69h1v1h-1z M46,69h1v1h-1z M48,69h1v1h-1z M50,69h1v1h-1z M51,69h1v1h-1z M52,69h1v1h-1z M57,69h1v1h-1z M60,69h1v1h-1z M61,69h1v1h-1z M63,69h1v1h-1z M65,69h1v1h-1z M66,69h1v1h-1z M69,69h1v1h-1z M71,69h1v1h-1z M72,69h1v1h-1z M73,69h1v1h-1z M74,69h1v1h-1z M76,69h1v1h-1z M82,69h1v1h-1z M83,69h1v1h-1z M84,69h1v1h-1z M85,69h1v1h-1z M90,69h1v1h-1z M92,69h1v1h-1z M100,69h1v1h-1z M102,69h1v1h-1z M103,69h1v1h-1z M107,69h1v1h-1z M4,70h1v1h-1z M5,70h1v1h-1z M6,70h1v1h-1z M10,70h1v1h-1z M11,70h1v1h-1z M12,70h1v1h-1z M13,70h1v1h-1z M15,70h1v1h-1z M17,70h1v1h-1z M18,70h1v1h-1z M20,70h1v1h-1z M26,70h1v1h-1z M32,70h1v1h-1z M35,70h1v1h-1z M36,70h1v1h-1z M38,70h1v1h-1z M41,70h1v1h-1z M45,70h1v1h-1z M48,70h1v1h-1z M50,70h1v1h-1z M56,70h1v1h-1z M57,70h1v1h-1z M62,70h1v1h-1z M64,70h1v1h-1z M65,70h1v1h-1z M67,70h1v1h-1z M68,70h1v1h-1z M74,70h1v1h-1z M77,70h1v1h-1z M79,70h1v1h-1z M80,70h1v1h-1z M83,70h1v1h-1z M84,70h1v1h-1z M86,70h1v1h-1z M87,70h1v1h-1z M88,70h1v1h-1z M89,70h1v1h-1z M92,70h1v1h-1z M95,70h1v1h-1z M96,70h1v1h-1z M97,70h1v1h-1z M98,70h1v1h-1z M99,70h1v1h-1z M102,70h1v1h-1z M103,70h1v1h-1z M104,70h1v1h-1z M105,70h1v1h-1z M107,70h1v1h-1z M108,70h1v1h-1z M7,71h1v1h-1z M8,71h1v1h-1z M9,71h1v1h-1z M11,71h1v1h-1z M12,71h1v1h-1z M13,71h1v1h-1z M15,71h1v1h-1z M16,71h1v1h-1z M19,71h1v1h-1z M20,71h1v1h-1z M22,71h1v1h-1z M23,71h1v1h-1z M25,71h1v1h-1z M27,71h1v1h-1z M31,71h1v1h-1z M33,71h1v1h-1z M37,71h1v1h-1z M38,71h1v1h-1z M43,71h1v1h-1z M44,71h1v1h-1z M45,71h1v1h-1z M46,71h1v1h-1z M47,71h1v1h-1z M49,71h1v1h-1z M52,71h1v1h-1z M53,71h1v1h-1z M55,71h1v1h-1z M56,71h1v1h-1z M58,71h1v1h-1z M59,71h1v1h-1z M61,71h1v1h-1z M65,71h1v1h-1z M68,71h1v1h-1z M69,71h1v1h-1z M70,71h1v1h-1z M71,71h1v1h-1z M73,71h1v1h-1z M75,71h1v1h-1z M76,71h1v1h-1z M78,71h1v1h-1z M79,71h1v1h-1z M81,71h1v1h-1z M82,71h1v1h-1z M83,71h1v1h-1z M92,71h1v1h-1z M94,71h1v1h-1z M95,71h1v1h-1z M107,71h1v1h-1z M108,71h1v1h-1z M4,72h1v1h-1z M6,72h1v1h-1z M7,72h1v1h-1z M8,72h1v1h-1z M10,72h1v1h-1z M12,72h1v1h-1z M14,72h1v1h-1z M16,72h1v1h-1z M18,72h1v1h-1z M20,72h1v1h-1z M23,72h1v1h-1z M24,72h1v1h-1z M25,72h1v1h-1z M26,72h1v1h-1z M30,72h1v1h-1z M32,72h1v1h-1z M34,72h1v1h-1z M35,72h1v1h-1z M36,72h1v1h-1z M37,72h1v1h-1z M38,72h1v1h-1z M39,72h1v1h-1z M40,72h1v1h-1z M41,72h1v1h-1z M43,72h1v1h-1z M45,72h1v1h-1z M46,72h1v1h-1z M48,72h1v1h-1z M49,72h1v1h-1z M50,72h1v1h-1z M51,72h1v1h-1z M52,72h1v1h-1z M54,72h1v1h-1z M56,72h1v1h-1z M57,72h1v1h-1z M58,72h1v1h-1z M59,72h1v1h-1z M65,72h1v1h-1z M66,72h1v1h-1z M67,72h1v1h-1z M69,72h1v1h-1z M70,72h1v1h-1z M72,72h1v1h-1z M74,72h1v1h-1z M75,72h1v1h-1z M76,72h1v1h-1z M78,72h1v1h-1z M80,72h1v1h-1z M81,72h1v1h-1z M82,72h1v1h-1z M83,72h1v1h-1z M84,72h1v1h-1z M86,72h1v1h-1z M88,72h1v1h-1z M90,72h1v1h-1z M91,72h1v1h-1z M93,72h1v1h-1z M95,72h1v1h-1z M99,72h1v1h-1z M100,72h1v1h-1z M103,72h1v1h-1z M107,72h1v1h-1z M108,72h1v1h-1z M4,73h1v1h-1z M5,73h1v1h-1z M12,73h1v1h-1z M14,73h1v1h-1z M15,73h1v1h-1z M16,73h1v1h-1z M19,73h1v1h-1z M20,73h1v1h-1z M21,73h1v1h-1z M22,73h1v1h-1z M23,73h1v1h-1z M24,73h1v1h-1z M25,73h1v1h-1z M27,73h1v1h-1z M29,73h1v1h-1z M30,73h1v1h-1z M31,73h1v1h-1z M34,73h1v1h-1z M36,73h1v1h-1z M40,73h1v1h-1z M42,73h1v1h-1z M45,73h1v1h-1z M46,73h1v1h-1z M47,73h1v1h-1z M48,73h1v1h-1z M49,73h1v1h-1z M51,73h1v1h-1z M54,73h1v1h-1z M55,73h1v1h-1z M58,73h1v1h-1z M60,73h1v1h-1z M61,73h1v1h-1z M63,73h1v1h-1z M64,73h1v1h-1z M66,73h1v1h-1z M67,73h1v1h-1z M69,73h1v1h-1z M70,73h1v1h-1z M72,73h1v1h-1z M74,73h1v1h-1z M75,73h1v1h-1z M76,73h1v1h-1z M79,73h1v1h-1z M83,73h1v1h-1z M84,73h1v1h-1z M85,73h1v1h-1z M86,73h1v1h-1z M87,73h1v1h-1z M88,73h1v1h-1z M90,73h1v1h-1z M91,73h1v1h-1z M96,73h1v1h-1z M97,73h1v1h-1z M98,73h1v1h-1z M99,73h1v1h-1z M100,73h1v1h-1z M102,73h1v1h-1z M103,73h1v1h-1z M104,73h1v1h-1z M106,73h1v1h-1z M107,73h1v1h-1z M4,74h1v1h-1z M5,74h1v1h-1z M7,74h1v1h-1z M10,74h1v1h-1z M11,74h1v1h-1z M13,74h1v1h-1z M14,74h1v1h-1z M16,74h1v1h-1z M17,74h1v1h-1z M22,74h1v1h-1z M24,74h1v1h-1z M25,74h1v1h-1z M26,74h1v1h-1z M27,74h1v1h-1z M29,74h1v1h-1z M31,74h1v1h-1z M35,74h1v1h-1z M36,74h1v1h-1z M38,74h1v1h-1z M39,74h1v1h-1z M40,74h1v1h-1z M41,74h1v1h-1z M43,74h1v1h-1z M44,74h1v1h-1z M47,74h1v1h-1z M48,74h1v1h-1z M50,74h1v1h-1z M53,74h1v1h-1z M56,74h1v1h-1z M59,74h1v1h-1z M60,74h1v1h-1z M61,74h1v1h-1z M62,74h1v1h-1z M63,74h1v1h-1z M65,74h1v1h-1z M67,74h1v1h-1z M69,74h1v1h-1z M71,74h1v1h-1z M74,74h1v1h-1z M78,74h1v1h-1z M80,74h1v1h-1z M83,74h1v1h-1z M84,74h1v1h-1z M86,74h1v1h-1z M87,74h1v1h-1z M89,74h1v1h-1z M98,74h1v1h-1z M101,74h1v1h-1z M103,74h1v1h-1z M104,74h1v1h-1z M106,74h1v1h-1z M107,74h1v1h-1z M5,75h1v1h-1z M7,75h1v1h-1z M11,75h1v1h-1z M12,75h1v1h-1z M14,75h1v1h-1z M16,75h1v1h-1z M17,75h1v1h-1z M18,75h1v1h-1z M19,75h1v1h-1z M24,75h1v1h-1z M25,75h1v1h-1z M26,75h1v1h-1z M27,75h1v1h-1z M28,75h1v1h-1z M31,75h1v1h-1z M35,75h1v1h-1z M37,75h1v1h-1z M38,75h1v1h-1z M44,75h1v1h-1z M49,75h1v1h-1z M51,75h1v1h-1z M52,75h1v1h-1z M56,75h1v1h-1z M57,75h1v1h-1z M66,75h1v1h-1z M67,75h1v1h-1z M68,75h1v1h-1z M70,75h1v1h-1z M71,75h1v1h-1z M76,75h1v1h-1z M77,75h1v1h-1z M79,75h1v1h-1z M81,75h1v1h-1z M83,75h1v1h-1z M89,75h1v1h-1z M91,75h1v1h-1z M92,75h1v1h-1z M93,75h1v1h-1z M94,75h1v1h-1z M95,75h1v1h-1z M97,75h1v1h-1z M99,75h1v1h-1z M100,75h1v1h-1z M102,75h1v1h-1z M103,75h1v1h-1z M107,75h1v1h-1z M4,76h1v1h-1z M8,76h1v1h-1z M9,76h1v1h-1z M10,76h1v1h-1z M11,76h1v1h-1z M12,76h1v1h-1z M13,76h1v1h-1z M14,76h1v1h-1z M16,76h1v1h-1z M17,76h1v1h-1z M18,76h1v1h-1z M20,76h1v1h-1z M22,76h1v1h-1z M23,76h1v1h-1z M25,76h1v1h-1z M28,76h1v1h-1z M29,76h1v1h-1z M30,76h1v1h-1z M31,76h1v1h-1z M32,76h1v1h-1z M33,76h1v1h-1z M37,76h1v1h-1z M39,76h1v1h-1z M40,76h1v1h-1z M42,76h1v1h-1z M43,76h1v1h-1z M44,76h1v1h-1z M45,76h1v1h-1z M51,76h1v1h-1z M52,76h1v1h-1z M53,76h1v1h-1z M54,76h1v1h-1z M55,76h1v1h-1z M56,76h1v1h-1z M57,76h1v1h-1z M62,76h1v1h-1z M63,76h1v1h-1z M76,76h1v1h-1z M77,76h1v1h-1z M78,76h1v1h-1z M79,76h1v1h-1z M80,76h1v1h-1z M83,76h1v1h-1z M84,76h1v1h-1z M85,76h1v1h-1z M86,76h1v1h-1z M87,76h1v1h-1z M89,76h1v1h-1z M91,76h1v1h-1z M93,76h1v1h-1z M94,76h1v1h-1z M100,76h1v1h-1z M101,76h1v1h-1z M102,76h1v1h-1z M103,76h1v1h-1z M104,76h1v1h-1z M106,76h1v1h-1z M108,76h1v1h-1z M6,77h1v1h-1z M8,77h1v1h-1z M12,77h1v1h-1z M13,77h1v1h-1z M14,77h1v1h-1z M15,77h1v1h-1z M16,77h1v1h-1z M18,77h1v1h-1z M19,77h1v1h-1z M22,77h1v1h-1z M23,77h1v1h-1z M26,77h1v1h-1z M28,77h1v1h-1z M32,77h1v1h-1z M33,77h1v1h-1z M34,77h1v1h-1z M35,77h1v1h-1z M36,77h1v1h-1z M41,77h1v1h-1z M47,77h1v1h-1z M48,77h1v1h-1z M49,77h1v1h-1z M50,77h1v1h-1z M52,77h1v1h-1z M56,77h1v1h-1z M60,77h1v1h-1z M64,77h1v1h-1z M67,77h1v1h-1z M72,77h1v1h-1z M73,77h1v1h-1z M75,77h1v1h-1z M76,77h1v1h-1z M80,77h1v1h-1z M81,77h1v1h-1z M83,77h1v1h-1z M85,77h1v1h-1z M86,77h1v1h-1z M88,77h1v1h-1z M90,77h1v1h-1z M91,77h1v1h-1z M95,77h1v1h-1z M98,77h1v1h-1z M99,77h1v1h-1z M100,77h1v1h-1z M104,77h1v1h-1z M105,77h1v1h-1z M5,78h1v1h-1z M6,78h1v1h-1z M7,78h1v1h-1z M8,78h1v1h-1z M10,78h1v1h-1z M12,78h1v1h-1z M13,78h1v1h-1z M15,78h1v1h-1z M17,78h1v1h-1z M18,78h1v1h-1z M21,78h1v1h-1z M24,78h1v1h-1z M27,78h1v1h-1z M28,78h1v1h-1z M30,78h1v1h-1z M32,78h1v1h-1z M35,78h1v1h-1z M37,78h1v1h-1z M38,78h1v1h-1z M40,78h1v1h-1z M41,78h1v1h-1z M43,78h1v1h-1z M44,78h1v1h-1z M47,78h1v1h-1z M48,78h1v1h-1z M50,78h1v1h-1z M52,78h1v1h-1z M54,78h1v1h-1z M56,78h1v1h-1z M60,78h1v1h-1z M62,78h1v1h-1z M64,78h1v1h-1z M65,78h1v1h-1z M72,78h1v1h-1z M74,78h1v1h-1z M76,78h1v1h-1z M78,78h1v1h-1z M80,78h1v1h-1z M83,78h1v1h-1z M86,78h1v1h-1z M88,78h1v1h-1z M89,78h1v1h-1z M92,78h1v1h-1z M95,78h1v1h-1z M98,78h1v1h-1z M99,78h1v1h-1z M100,78h1v1h-1z M102,78h1v1h-1z M104,78h1v1h-1z M106,78h1v1h-1z M4,79h1v1h-1z M6,79h1v1h-1z M7,79h1v1h-1z M8,79h1v1h-1z M12,79h1v1h-1z M14,79h1v1h-1z M15,79h1v1h-1z M17,79h1v1h-1z M18,79h1v1h-1z M19,79h1v1h-1z M21,79h1v1h-1z M23,79h1v1h-1z M24,79h1v1h-1z M27,79h1v1h-1z M28,79h1v1h-1z M32,79h1v1h-1z M33,79h1v1h-1z M35,79h1v1h-1z M39,79h1v1h-1z M42,79h1v1h-1z M44,79h1v1h-1z M45,79h1v1h-1z M47,79h1v1h-1z M50,79h1v1h-1z M52,79h1v1h-1z M56,79h1v1h-1z M57,79h1v1h-1z M58,79h1v1h-1z M59,79h1v1h-1z M61,79h1v1h-1z M66,79h1v1h-1z M68,79h1v1h-1z M69,79h1v1h-1z M70,79h1v1h-1z M71,79h1v1h-1z M74,79h1v1h-1z M75,79h1v1h-1z M76,79h1v1h-1z M80,79h1v1h-1z M81,79h1v1h-1z M83,79h1v1h-1z M85,79h1v1h-1z M86,79h1v1h-1z M92,79h1v1h-1z M93,79h1v1h-1z M95,79h1v1h-1z M97,79h1v1h-1z M99,79h1v1h-1z M100,79h1v1h-1z M104,79h1v1h-1z M105,79h1v1h-1z M108,79h1v1h-1z M6,80h1v1h-1z M7,80h1v1h-1z M8,80h1v1h-1z M9,80h1v1h-1z M10,80h1v1h-1z M11,80h1v1h-1z M12,80h1v1h-1z M14,80h1v1h-1z M20,80h1v1h-1z M27,80h1v1h-1z M28,80h1v1h-1z M29,80h1v1h-1z M30,80h1v1h-1z M31,80h1v1h-1z M32,80h1v1h-1z M36,80h1v1h-1z M39,80h1v1h-1z M41,80h1v1h-1z M42,80h1v1h-1z M45,80h1v1h-1z M52,80h1v1h-1z M53,80h1v1h-1z M54,80h1v1h-1z M55,80h1v1h-1z M56,80h1v1h-1z M57,80h1v1h-1z M58,80h1v1h-1z M59,80h1v1h-1z M60,80h1v1h-1z M61,80h1v1h-1z M62,80h1v1h-1z M65,80h1v1h-1z M67,80h1v1h-1z M68,80h1v1h-1z M70,80h1v1h-1z M71,80h1v1h-1z M72,80h1v1h-1z M73,80h1v1h-1z M74,80h1v1h-1z M75,80h1v1h-1z M76,80h1v1h-1z M77,80h1v1h-1z M78,80h1v1h-1z M79,80h1v1h-1z M80,80h1v1h-1z M84,80h1v1h-1z M86,80h1v1h-1z M88,80h1v1h-1z M91,80h1v1h-1z M96,80h1v1h-1z M97,80h1v1h-1z M100,80h1v1h-1z M101,80h1v1h-1z M102,80h1v1h-1z M103,80h1v1h-1z M104,80h1v1h-1z M105,80h1v1h-1z M107,80h1v1h-1z M4,81h1v1h-1z M6,81h1v1h-1z M8,81h1v1h-1z M12,81h1v1h-1z M13,81h1v1h-1z M14,81h1v1h-1z M15,81h1v1h-1z M17,81h1v1h-1z M18,81h1v1h-1z M26,81h1v1h-1z M28,81h1v1h-1z M30,81h1v1h-1z M31,81h1v1h-1z M33,81h1v1h-1z M34,81h1v1h-1z M35,81h1v1h-1z M36,81h1v1h-1z M38,81h1v1h-1z M39,81h1v1h-1z M40,81h1v1h-1z M41,81h1v1h-1z M45,81h1v1h-1z M47,81h1v1h-1z M50,81h1v1h-1z M52,81h1v1h-1z M53,81h1v1h-1z M54,81h1v1h-1z M56,81h1v1h-1z M58,81h1v1h-1z M60,81h1v1h-1z M61,81h1v1h-1z M63,81h1v1h-1z M64,81h1v1h-1z M65,81h1v1h-1z M66,81h1v1h-1z M67,81h1v1h-1z M68,81h1v1h-1z M69,81h1v1h-1z M72,81h1v1h-1z M76,81h1v1h-1z M78,81h1v1h-1z M85,81h1v1h-1z M89,81h1v1h-1z M90,81h1v1h-1z M94,81h1v1h-1z M95,81h1v1h-1z M96,81h1v1h-1z M98,81h1v1h-1z M101,81h1v1h-1z M102,81h1v1h-1z M103,81h1v1h-1z M105,81h1v1h-1z M107,81h1v1h-1z M108,81h1v1h-1z M4,82h1v1h-1z M6,82h1v1h-1z M10,82h1v1h-1z M12,82h1v1h-1z M13,82h1v1h-1z M15,82h1v1h-1z M16,82h1v1h-1z M17,82h1v1h-1z M20,82h1v1h-1z M22,82h1v1h-1z M26,82h1v1h-1z M27,82h1v1h-1z M29,82h1v1h-1z M30,82h1v1h-1z M32,82h1v1h-1z M35,82h1v1h-1z M36,82h1v1h-1z M38,82h1v1h-1z M39,82h1v1h-1z M40,82h1v1h-1z M43,82h1v1h-1z M44,82h1v1h-1z M48,82h1v1h-1z M50,82h1v1h-1z M52,82h1v1h-1z M54,82h1v1h-1z M56,82h1v1h-1z M57,82h1v1h-1z M62,82h1v1h-1z M65,82h1v1h-1z M67,82h1v1h-1z M71,82h1v1h-1z M74,82h1v1h-1z M75,82h1v1h-1z M76,82h1v1h-1z M78,82h1v1h-1z M80,82h1v1h-1z M81,82h1v1h-1z M83,82h1v1h-1z M85,82h1v1h-1z M86,82h1v1h-1z M89,82h1v1h-1z M91,82h1v1h-1z M92,82h1v1h-1z M93,82h1v1h-1z M95,82h1v1h-1z M96,82h1v1h-1z M98,82h1v1h-1z M99,82h1v1h-1z M101,82h1v1h-1z M103,82h1v1h-1z M104,82h1v1h-1z M107,82h1v1h-1z M5,83h1v1h-1z M7,83h1v1h-1z M9,83h1v1h-1z M12,83h1v1h-1z M13,83h1v1h-1z M15,83h1v1h-1z M16,83h1v1h-1z M18,83h1v1h-1z M19,83h1v1h-1z M21,83h1v1h-1z M22,83h1v1h-1z M23,83h1v1h-1z M24,83h1v1h-1z M25,83h1v1h-1z M28,83h1v1h-1z M30,83h1v1h-1z M31,83h1v1h-1z M32,83h1v1h-1z M33,83h1v1h-1z M34,83h1v1h-1z M35,83h1v1h-1z M42,83h1v1h-1z M44,83h1v1h-1z M47,83h1v1h-1z M49,83h1v1h-1z M50,83h1v1h-1z M51,83h1v1h-1z M52,83h1v1h-1z M54,83h1v1h-1z M55,83h1v1h-1z M56,83h1v1h-1z M58,83h1v1h-1z M59,83h1v1h-1z M62,83h1v1h-1z M68,83h1v1h-1z M71,83h1v1h-1z M75,83h1v1h-1z M76,83h1v1h-1z M77,83h1v1h-1z M79,83h1v1h-1z M82,83h1v1h-1z M83,83h1v1h-1z M89,83h1v1h-1z M92,83h1v1h-1z M93,83h1v1h-1z M94,83h1v1h-1z M98,83h1v1h-1z M100,83h1v1h-1z M102,83h1v1h-1z M5,84h1v1h-1z M7,84h1v1h-1z M9,84h1v1h-1z M10,84h1v1h-1z M12,84h1v1h-1z M13,84h1v1h-1z M15,84h1v1h-1z M16,84h1v1h-1z M18,84h1v1h-1z M20,84h1v1h-1z M21,84h1v1h-1z M22,84h1v1h-1z M23,84h1v1h-1z M25,84h1v1h-1z M31,84h1v1h-1z M34,84h1v1h-1z M35,84h1v1h-1z M42,84h1v1h-1z M44,84h1v1h-1z M45,84h1v1h-1z M47,84h1v1h-1z M48,84h1v1h-1z M54,84h1v1h-1z M55,84h1v1h-1z M57,84h1v1h-1z M58,84h1v1h-1z M59,84h1v1h-1z M60,84h1v1h-1z M63,84h1v1h-1z M65,84h1v1h-1z M66,84h1v1h-1z M67,84h1v1h-1z M68,84h1v1h-1z M72,84h1v1h-1z M75,84h1v1h-1z M81,84h1v1h-1z M82,84h1v1h-1z M83,84h1v1h-1z M85,84h1v1h-1z M91,84h1v1h-1z M94,84h1v1h-1z M95,84h1v1h-1z M97,84h1v1h-1z M98,84h1v1h-1z M101,84h1v1h-1z M104,84h1v1h-1z M106,84h1v1h-1z M108,84h1v1h-1z M5,85h1v1h-1z M6,85h1v1h-1z M9,85h1v1h-1z M11,85h1v1h-1z M13,85h1v1h-1z M16,85h1v1h-1z M19,85h1v1h-1z M22,85h1v1h-1z M25,85h1v1h-1z M29,85h1v1h-1z M30,85h1v1h-1z M32,85h1v1h-1z M34,85h1v1h-1z M35,85h1v1h-1z M36,85h1v1h-1z M37,85h1v1h-1z M38,85h1v1h-1z M39,85h1v1h-1z M45,85h1v1h-1z M46,85h1v1h-1z M48,85h1v1h-1z M50,85h1v1h-1z M52,85h1v1h-1z M54,85h1v1h-1z M55,85h1v1h-1z M59,85h1v1h-1z M62,85h1v1h-1z M63,85h1v1h-1z M66,85h1v1h-1z M67,85h1v1h-1z M68,85h1v1h-1z M69,85h1v1h-1z M71,85h1v1h-1z M72,85h1v1h-1z M74,85h1v1h-1z M76,85h1v1h-1z M78,85h1v1h-1z M80,85h1v1h-1z M82,85h1v1h-1z M84,85h1v1h-1z M85,85h1v1h-1z M86,85h1v1h-1z M88,85h1v1h-1z M90,85h1v1h-1z M93,85h1v1h-1z M100,85h1v1h-1z M103,85h1v1h-1z M108,85h1v1h-1z M4,86h1v1h-1z M8,86h1v1h-1z M10,86h1v1h-1z M12,86h1v1h-1z M13,86h1v1h-1z M14,86h1v1h-1z M15,86h1v1h-1z M16,86h1v1h-1z M17,86h1v1h-1z M19,86h1v1h-1z M20,86h1v1h-1z M22,86h1v1h-1z M26,86h1v1h-1z M28,86h1v1h-1z M29,86h1v1h-1z M30,86h1v1h-1z M32,86h1v1h-1z M36,86h1v1h-1z M38,86h1v1h-1z M39,86h1v1h-1z M40,86h1v1h-1z M41,86h1v1h-1z M48,86h1v1h-1z M50,86h1v1h-1z M51,86h1v1h-1z M56,86h1v1h-1z M57,86h1v1h-1z M62,86h1v1h-1z M63,86h1v1h-1z M64,86h1v1h-1z M69,86h1v1h-1z M71,86h1v1h-1z M72,86h1v1h-1z M74,86h1v1h-1z M80,86h1v1h-1z M83,86h1v1h-1z M84,86h1v1h-1z M85,86h1v1h-1z M86,86h1v1h-1z M88,86h1v1h-1z M89,86h1v1h-1z M91,86h1v1h-1z M92,86h1v1h-1z M95,86h1v1h-1z M98,86h1v1h-1z M99,86h1v1h-1z M100,86h1v1h-1z M101,86h1v1h-1z M106,86h1v1h-1z M107,86h1v1h-1z M6,87h1v1h-1z M7,87h1v1h-1z M8,87h1v1h-1z M16,87h1v1h-1z M17,87h1v1h-1z M20,87h1v1h-1z M24,87h1v1h-1z M27,87h1v1h-1z M32,87h1v1h-1z M33,87h1v1h-1z M34,87h1v1h-1z M35,87h1v1h-1z M37,87h1v1h-1z M38,87h1v1h-1z M41,87h1v1h-1z M42,87h1v1h-1z M43,87h1v1h-1z M44,87h1v1h-1z M45,87h1v1h-1z M47,87h1v1h-1z M49,87h1v1h-1z M51,87h1v1h-1z M53,87h1v1h-1z M55,87h1v1h-1z M58,87h1v1h-1z M59,87h1v1h-1z M61,87h1v1h-1z M62,87h1v1h-1z M65,87h1v1h-1z M66,87h1v1h-1z M68,87h1v1h-1z M70,87h1v1h-1z M71,87h1v1h-1z M75,87h1v1h-1z M76,87h1v1h-1z M80,87h1v1h-1z M81,87h1v1h-1z M82,87h1v1h-1z M89,87h1v1h-1z M92,87h1v1h-1z M93,87h1v1h-1z M95,87h1v1h-1z M97,87h1v1h-1z M98,87h1v1h-1z M99,87h1v1h-1z M100,87h1v1h-1z M101,87h1v1h-1z M102,87h1v1h-1z M103,87h1v1h-1z M104,87h1v1h-1z M107,87h1v1h-1z M108,87h1v1h-1z M4,88h1v1h-1z M5,88h1v1h-1z M7,88h1v1h-1z M9,88h1v1h-1z M10,88h1v1h-1z M11,88h1v1h-1z M12,88h1v1h-1z M13,88h1v1h-1z M14,88h1v1h-1z M17,88h1v1h-1z M23,88h1v1h-1z M25,88h1v1h-1z M26,88h1v1h-1z M27,88h1v1h-1z M28,88h1v1h-1z M30,88h1v1h-1z M31,88h1v1h-1z M32,88h1v1h-1z M33,88h1v1h-1z M37,88h1v1h-1z M40,88h1v1h-1z M42,88h1v1h-1z M43,88h1v1h-1z M45,88h1v1h-1z M47,88h1v1h-1z M48,88h1v1h-1z M49,88h1v1h-1z M53,88h1v1h-1z M55,88h1v1h-1z M58,88h1v1h-1z M62,88h1v1h-1z M64,88h1v1h-1z M66,88h1v1h-1z M68,88h1v1h-1z M70,88h1v1h-1z M72,88h1v1h-1z M80,88h1v1h-1z M81,88h1v1h-1z M83,88h1v1h-1z M84,88h1v1h-1z M87,88h1v1h-1z M91,88h1v1h-1z M98,88h1v1h-1z M100,88h1v1h-1z M101,88h1v1h-1z M106,88h1v1h-1z M108,88h1v1h-1z M4,89h1v1h-1z M6,89h1v1h-1z M12,89h1v1h-1z M13,89h1v1h-1z M14,89h1v1h-1z M15,89h1v1h-1z M16,89h1v1h-1z M18,89h1v1h-1z M19,89h1v1h-1z M20,89h1v1h-1z M21,89h1v1h-1z M22,89h1v1h-1z M23,89h1v1h-1z M25,89h1v1h-1z M28,89h1v1h-1z M29,89h1v1h-1z M30,89h1v1h-1z M33,89h1v1h-1z M36,89h1v1h-1z M37,89h1v1h-1z M38,89h1v1h-1z M39,89h1v1h-1z M40,89h1v1h-1z M41,89h1v1h-1z M42,89h1v1h-1z M45,89h1v1h-1z M47,89h1v1h-1z M48,89h1v1h-1z M50,89h1v1h-1z M53,89h1v1h-1z M54,89h1v1h-1z M56,89h1v1h-1z M57,89h1v1h-1z M58,89h1v1h-1z M60,89h1v1h-1z M62,89h1v1h-1z M63,89h1v1h-1z M64,89h1v1h-1z M71,89h1v1h-1z M74,89h1v1h-1z M78,89h1v1h-1z M79,89h1v1h-1z M81,89h1v1h-1z M83,89h1v1h-1z M84,89h1v1h-1z M85,89h1v1h-1z M86,89h1v1h-1z M87,89h1v1h-1z M90,89h1v1h-1z M91,89h1v1h-1z M93,89h1v1h-1z M94,89h1v1h-1z M96,89h1v1h-1z M98,89h1v1h-1z M100,89h1v1h-1z M101,89h1v1h-1z M102,89h1v1h-1z M103,89h1v1h-1z M105,89h1v1h-1z M106,89h1v1h-1z M107,89h1v1h-1z M5,90h1v1h-1z M7,90h1v1h-1z M8,90h1v1h-1z M10,90h1v1h-1z M13,90h1v1h-1z M17,90h1v1h-1z M19,90h1v1h-1z M20,90h1v1h-1z M22,90h1v1h-1z M26,90h1v1h-1z M29,90h1v1h-1z M30,90h1v1h-1z M32,90h1v1h-1z M35,90h1v1h-1z M36,90h1v1h-1z M38,90h1v1h-1z M40,90h1v1h-1z M41,90h1v1h-1z M44,90h1v1h-1z M45,90h1v1h-1z M48,90h1v1h-1z M50,90h1v1h-1z M51,90h1v1h-1z M53,90h1v1h-1z M54,90h1v1h-1z M56,90h1v1h-1z M60,90h1v1h-1z M62,90h1v1h-1z M64,90h1v1h-1z M65,90h1v1h-1z M68,90h1v1h-1z M74,90h1v1h-1z M77,90h1v1h-1z M80,90h1v1h-1z M85,90h1v1h-1z M86,90h1v1h-1z M88,90h1v1h-1z M89,90h1v1h-1z M91,90h1v1h-1z M92,90h1v1h-1z M96,90h1v1h-1z M97,90h1v1h-1z M98,90h1v1h-1z M105,90h1v1h-1z M107,90h1v1h-1z M6,91h1v1h-1z M9,91h1v1h-1z M13,91h1v1h-1z M14,91h1v1h-1z M15,91h1v1h-1z M18,91h1v1h-1z M19,91h1v1h-1z M20,91h1v1h-1z M21,91h1v1h-1z M22,91h1v1h-1z M23,91h1v1h-1z M24,91h1v1h-1z M25,91h1v1h-1z M27,91h1v1h-1z M29,91h1v1h-1z M31,91h1v1h-1z M33,91h1v1h-1z M34,91h1v1h-1z M35,91h1v1h-1z M42,91h1v1h-1z M44,91h1v1h-1z M46,91h1v1h-1z M47,91h1v1h-1z M49,91h1v1h-1z M53,91h1v1h-1z M54,91h1v1h-1z M58,91h1v1h-1z M59,91h1v1h-1z M62,91h1v1h-1z M65,91h1v1h-1z M68,91h1v1h-1z M71,91h1v1h-1z M74,91h1v1h-1z M76,91h1v1h-1z M82,91h1v1h-1z M83,91h1v1h-1z M90,91h1v1h-1z M92,91h1v1h-1z M94,91h1v1h-1z M95,91h1v1h-1z M100,91h1v1h-1z M101,91h1v1h-1z M102,91h1v1h-1z M4,92h1v1h-1z M5,92h1v1h-1z M6,92h1v1h-1z M7,92h1v1h-1z M8,92h1v1h-1z M9,92h1v1h-1z M10,92h1v1h-1z M13,92h1v1h-1z M14,92h1v1h-1z M15,92h1v1h-1z M17,92h1v1h-1z M18,92h1v1h-1z M19,92h1v1h-1z M20,92h1v1h-1z M22,92h1v1h-1z M23,92h1v1h-1z M24,92h1v1h-1z M27,92h1v1h-1z M32,92h1v1h-1z M33,92h1v1h-1z M34,92h1v1h-1z M36,92h1v1h-1z M38,92h1v1h-1z M43,92h1v1h-1z M47,92h1v1h-1z M48,92h1v1h-1z M50,92h1v1h-1z M51,92h1v1h-1z M55,92h1v1h-1z M58,92h1v1h-1z M60,92h1v1h-1z M62,92h1v1h-1z M63,92h1v1h-1z M65,92h1v1h-1z M66,92h1v1h-1z M69,92h1v1h-1z M70,92h1v1h-1z M71,92h1v1h-1z M73,92h1v1h-1z M75,92h1v1h-1z M76,92h1v1h-1z M78,92h1v1h-1z M80,92h1v1h-1z M82,92h1v1h-1z M83,92h1v1h-1z M87,92h1v1h-1z M88,92h1v1h-1z M94,92h1v1h-1z M97,92h1v1h-1z M100,92h1v1h-1z M102,92h1v1h-1z M105,92h1v1h-1z M107,92h1v1h-1z M108,92h1v1h-1z M4,93h1v1h-1z M5,93h1v1h-1z M7,93h1v1h-1z M12,93h1v1h-1z M15,93h1v1h-1z M16,93h1v1h-1z M17,93h1v1h-1z M18,93h1v1h-1z M22,93h1v1h-1z M24,93h1v1h-1z M25,93h1v1h-1z M28,93h1v1h-1z M30,93h1v1h-1z M32,93h1v1h-1z M36,93h1v1h-1z M37,93h1v1h-1z M38,93h1v1h-1z M39,93h1v1h-1z M40,93h1v1h-1z M42,93h1v1h-1z M43,93h1v1h-1z M45,93h1v1h-1z M46,93h1v1h-1z M47,93h1v1h-1z M49,93h1v1h-1z M54,93h1v1h-1z M56,93h1v1h-1z M58,93h1v1h-1z M59,93h1v1h-1z M60,93h1v1h-1z M61,93h1v1h-1z M63,93h1v1h-1z M64,93h1v1h-1z M66,93h1v1h-1z M70,93h1v1h-1z M71,93h1v1h-1z M76,93h1v1h-1z M78,93h1v1h-1z M81,93h1v1h-1z M84,93h1v1h-1z M88,93h1v1h-1z M91,93h1v1h-1z M95,93h1v1h-1z M96,93h1v1h-1z M98,93h1v1h-1z M99,93h1v1h-1z M100,93h1v1h-1z M101,93h1v1h-1z M103,93h1v1h-1z M105,93h1v1h-1z M107,93h1v1h-1z M108,93h1v1h-1z M4,94h1v1h-1z M5,94h1v1h-1z M6,94h1v1h-1z M7,94h1v1h-1z M8,94h1v1h-1z M9,94h1v1h-1z M10,94h1v1h-1z M11,94h1v1h-1z M12,94h1v1h-1z M14,94h1v1h-1z M15,94h1v1h-1z M20,94h1v1h-1z M22,94h1v1h-1z M23,94h1v1h-1z M24,94h1v1h-1z M26,94h1v1h-1z M28,94h1v1h-1z M32,94h1v1h-1z M36,94h1v1h-1z M37,94h1v1h-1z M38,94h1v1h-1z M40,94h1v1h-1z M41,94h1v1h-1z M44,94h1v1h-1z M47,94h1v1h-1z M48,94h1v1h-1z M50,94h1v1h-1z M52,94h1v1h-1z M53,94h1v1h-1z M54,94h1v1h-1z M56,94h1v1h-1z M60,94h1v1h-1z M62,94h1v1h-1z M64,94h1v1h-1z M65,94h1v1h-1z M67,94h1v1h-1z M72,94h1v1h-1z M74,94h1v1h-1z M75,94h1v1h-1z M76,94h1v1h-1z M77,94h1v1h-1z M80,94h1v1h-1z M83,94h1v1h-1z M84,94h1v1h-1z M85,94h1v1h-1z M86,94h1v1h-1z M98,94h1v1h-1z M99,94h1v1h-1z M101,94h1v1h-1z M107,94h1v1h-1z M4,95h1v1h-1z M6,95h1v1h-1z M9,95h1v1h-1z M12,95h1v1h-1z M13,95h1v1h-1z M17,95h1v1h-1z M20,95h1v1h-1z M22,95h1v1h-1z M23,95h1v1h-1z M27,95h1v1h-1z M28,95h1v1h-1z M29,95h1v1h-1z M30,95h1v1h-1z M32,95h1v1h-1z M33,95h1v1h-1z M35,95h1v1h-1z M42,95h1v1h-1z M44,95h1v1h-1z M46,95h1v1h-1z M50,95h1v1h-1z M52,95h1v1h-1z M55,95h1v1h-1z M56,95h1v1h-1z M58,95h1v1h-1z M59,95h1v1h-1z M66,95h1v1h-1z M68,95h1v1h-1z M70,95h1v1h-1z M71,95h1v1h-1z M73,95h1v1h-1z M75,95h1v1h-1z M78,95h1v1h-1z M80,95h1v1h-1z M81,95h1v1h-1z M82,95h1v1h-1z M90,95h1v1h-1z M92,95h1v1h-1z M93,95h1v1h-1z M95,95h1v1h-1z M97,95h1v1h-1z M98,95h1v1h-1z M100,95h1v1h-1z M101,95h1v1h-1z M102,95h1v1h-1z M107,95h1v1h-1z M108,95h1v1h-1z M4,96h1v1h-1z M5,96h1v1h-1z M6,96h1v1h-1z M10,96h1v1h-1z M12,96h1v1h-1z M13,96h1v1h-1z M14,96h1v1h-1z M17,96h1v1h-1z M18,96h1v1h-1z M20,96h1v1h-1z M23,96h1v1h-1z M24,96h1v1h-1z M25,96h1v1h-1z M26,96h1v1h-1z M29,96h1v1h-1z M31,96h1v1h-1z M32,96h1v1h-1z M34,96h1v1h-1z M35,96h1v1h-1z M37,96h1v1h-1z M40,96h1v1h-1z M41,96h1v1h-1z M43,96h1v1h-1z M44,96h1v1h-1z M45,96h1v1h-1z M46,96h1v1h-1z M51,96h1v1h-1z M52,96h1v1h-1z M53,96h1v1h-1z M55,96h1v1h-1z M58,96h1v1h-1z M60,96h1v1h-1z M62,96h1v1h-1z M65,96h1v1h-1z M66,96h1v1h-1z M67,96h1v1h-1z M73,96h1v1h-1z M74,96h1v1h-1z M77,96h1v1h-1z M80,96h1v1h-1z M81,96h1v1h-1z M82,96h1v1h-1z M83,96h1v1h-1z M86,96h1v1h-1z M87,96h1v1h-1z M88,96h1v1h-1z M89,96h1v1h-1z M90,96h1v1h-1z M92,96h1v1h-1z M93,96h1v1h-1z M94,96h1v1h-1z M95,96h1v1h-1z M97,96h1v1h-1z M100,96h1v1h-1z M101,96h1v1h-1z M102,96h1v1h-1z M104,96h1v1h-1z M106,96h1v1h-1z M108,96h1v1h-1z M4,97h1v1h-1z M5,97h1v1h-1z M8,97h1v1h-1z M13,97h1v1h-1z M14,97h1v1h-1z M18,97h1v1h-1z M21,97h1v1h-1z M23,97h1v1h-1z M25,97h1v1h-1z M28,97h1v1h-1z M30,97h1v1h-1z M31,97h1v1h-1z M35,97h1v1h-1z M36,97h1v1h-1z M41,97h1v1h-1z M42,97h1v1h-1z M43,97h1v1h-1z M46,97h1v1h-1z M48,97h1v1h-1z M53,97h1v1h-1z M54,97h1v1h-1z M55,97h1v1h-1z M57,97h1v1h-1z M58,97h1v1h-1z M64,97h1v1h-1z M65,97h1v1h-1z M66,97h1v1h-1z M69,97h1v1h-1z M70,97h1v1h-1z M71,97h1v1h-1z M72,97h1v1h-1z M76,97h1v1h-1z M78,97h1v1h-1z M79,97h1v1h-1z M82,97h1v1h-1z M83,97h1v1h-1z M84,97h1v1h-1z M86,97h1v1h-1z M87,97h1v1h-1z M88,97h1v1h-1z M89,97h1v1h-1z M90,97h1v1h-1z M91,97h1v1h-1z M92,97h1v1h-1z M94,97h1v1h-1z M97,97h1v1h-1z M98,97h1v1h-1z M99,97h1v1h-1z M100,97h1v1h-1z M101,97h1v1h-1z M103,97h1v1h-1z M106,97h1v1h-1z M107,97h1v1h-1z M108,97h1v1h-1z M4,98h1v1h-1z M5,98h1v1h-1z M6,98h1v1h-1z M10,98h1v1h-1z M11,98h1v1h-1z M12,98h1v1h-1z M13,98h1v1h-1z M15,98h1v1h-1z M21,98h1v1h-1z M22,98h1v1h-1z M24,98h1v1h-1z M27,98h1v1h-1z M29,98h1v1h-1z M32,98h1v1h-1z M36,98h1v1h-1z M38,98h1v1h-1z M41,98h1v1h-1z M43,98h1v1h-1z M48,98h1v1h-1z M50,98h1v1h-1z M52,98h1v1h-1z M53,98h1v1h-1z M54,98h1v1h-1z M56,98h1v1h-1z M62,98h1v1h-1z M63,98h1v1h-1z M64,98h1v1h-1z M67,98h1v1h-1z M69,98h1v1h-1z M72,98h1v1h-1z M74,98h1v1h-1z M75,98h1v1h-1z M78,98h1v1h-1z M80,98h1v1h-1z M86,98h1v1h-1z M88,98h1v1h-1z M89,98h1v1h-1z M95,98h1v1h-1z M96,98h1v1h-1z M98,98h1v1h-1z M100,98h1v1h-1z M101,98h1v1h-1z M103,98h1v1h-1z M104,98h1v1h-1z M107,98h1v1h-1z M6,99h1v1h-1z M8,99h1v1h-1z M9,99h1v1h-1z M12,99h1v1h-1z M13,99h1v1h-1z M14,99h1v1h-1z M16,99h1v1h-1z M17,99h1v1h-1z M18,99h1v1h-1z M19,99h1v1h-1z M23,99h1v1h-1z M25,99h1v1h-1z M26,99h1v1h-1z M29,99h1v1h-1z M31,99h1v1h-1z M33,99h1v1h-1z M38,99h1v1h-1z M44,99h1v1h-1z M47,99h1v1h-1z M51,99h1v1h-1z M53,99h1v1h-1z M54,99h1v1h-1z M58,99h1v1h-1z M59,99h1v1h-1z M61,99h1v1h-1z M62,99h1v1h-1z M66,99h1v1h-1z M67,99h1v1h-1z M68,99h1v1h-1z M69,99h1v1h-1z M70,99h1v1h-1z M71,99h1v1h-1z M74,99h1v1h-1z M75,99h1v1h-1z M77,99h1v1h-1z M81,99h1v1h-1z M83,99h1v1h-1z M85,99h1v1h-1z M86,99h1v1h-1z M89,99h1v1h-1z M90,99h1v1h-1z M91,99h1v1h-1z M92,99h1v1h-1z M94,99h1v1h-1z M95,99h1v1h-1z M97,99h1v1h-1z M103,99h1v1h-1z M7,100h1v1h-1z M8,100h1v1h-1z M10,100h1v1h-1z M13,100h1v1h-1z M14,100h1v1h-1z M16,100h1v1h-1z M17,100h1v1h-1z M19,100h1v1h-1z M22,100h1v1h-1z M23,100h1v1h-1z M24,100h1v1h-1z M25,100h1v1h-1z M26,100h1v1h-1z M27,100h1v1h-1z M28,100h1v1h-1z M29,100h1v1h-1z M30,100h1v1h-1z M31,100h1v1h-1z M32,100h1v1h-1z M33,100h1v1h-1z M35,100h1v1h-1z M38,100h1v1h-1z M39,100h1v1h-1z M41,100h1v1h-1z M42,100h1v1h-1z M44,100h1v1h-1z M45,100h1v1h-1z M46,100h1v1h-1z M47,100h1v1h-1z M51,100h1v1h-1z M52,100h1v1h-1z M53,100h1v1h-1z M54,100h1v1h-1z M55,100h1v1h-1z M56,100h1v1h-1z M57,100h1v1h-1z M58,100h1v1h-1z M60,100h1v1h-1z M61,100h1v1h-1z M63,100h1v1h-1z M64,100h1v1h-1z M66,100h1v1h-1z M70,100h1v1h-1z M71,100h1v1h-1z M73,100h1v1h-1z M74,100h1v1h-1z M76,100h1v1h-1z M77,100h1v1h-1z M78,100h1v1h-1z M79,100h1v1h-1z M80,100h1v1h-1z M81,100h1v1h-1z M82,100h1v1h-1z M87,100h1v1h-1z M88,100h1v1h-1z M90,100h1v1h-1z M91,100h1v1h-1z M92,100h1v1h-1z M94,100h1v1h-1z M96,100h1v1h-1z M100,100h1v1h-1z M101,100h1v1h-1z M102,100h1v1h-1z M103,100h1v1h-1z M104,100h1v1h-1z M105,100h1v1h-1z M108,100h1v1h-1z M12,101h1v1h-1z M13,101h1v1h-1z M15,101h1v1h-1z M23,101h1v1h-1z M24,101h1v1h-1z M25,101h1v1h-1z M26,101h1v1h-1z M27,101h1v1h-1z M28,101h1v1h-1z M32,101h1v1h-1z M33,101h1v1h-1z M34,101h1v1h-1z M36,101h1v1h-1z M37,101h1v1h-1z M38,101h1v1h-1z M41,101h1v1h-1z M44,101h1v1h-1z M47,101h1v1h-1z M49,101h1v1h-1z M51,101h1v1h-1z M52,101h1v1h-1z M56,101h1v1h-1z M57,101h1v1h-1z M58,101h1v1h-1z M60,101h1v1h-1z M62,101h1v1h-1z M64,101h1v1h-1z M66,101h1v1h-1z M69,101h1v1h-1z M71,101h1v1h-1z M72,101h1v1h-1z M73,101h1v1h-1z M75,101h1v1h-1z M76,101h1v1h-1z M80,101h1v1h-1z M84,101h1v1h-1z M86,101h1v1h-1z M89,101h1v1h-1z M90,101h1v1h-1z M91,101h1v1h-1z M92,101h1v1h-1z M93,101h1v1h-1z M94,101h1v1h-1z M95,101h1v1h-1z M98,101h1v1h-1z M99,101h1v1h-1z M100,101h1v1h-1z M104,101h1v1h-1z M107,101h1v1h-1z M4,102h1v1h-1z M5,102h1v1h-1z M6,102h1v1h-1z M7,102h1v1h-1z M8,102h1v1h-1z M9,102h1v1h-1z M10,102h1v1h-1z M13,102h1v1h-1z M17,102h1v1h-1z M18,102h1v1h-1z M20,102h1v1h-1z M21,102h1v1h-1z M24,102h1v1h-1z M25,102h1v1h-1z M26,102h1v1h-1z M27,102h1v1h-1z M28,102h1v1h-1z M30,102h1v1h-1z M32,102h1v1h-1z M35,102h1v1h-1z M36,102h1v1h-1z M38,102h1v1h-1z M41,102h1v1h-1z M48,102h1v1h-1z M50,102h1v1h-1z M51,102h1v1h-1z M52,102h1v1h-1z M54,102h1v1h-1z M56,102h1v1h-1z M60,102h1v1h-1z M62,102h1v1h-1z M63,102h1v1h-1z M65,102h1v1h-1z M69,102h1v1h-1z M71,102h1v1h-1z M72,102h1v1h-1z M74,102h1v1h-1z M75,102h1v1h-1z M76,102h1v1h-1z M78,102h1v1h-1z M80,102h1v1h-1z M83,102h1v1h-1z M84,102h1v1h-1z M86,102h1v1h-1z M89,102h1v1h-1z M91,102h1v1h-1z M93,102h1v1h-1z M98,102h1v1h-1z M99,102h1v1h-1z M100,102h1v1h-1z M102,102h1v1h-1z M104,102h1v1h-1z M106,102h1v1h-1z M107,102h1v1h-1z M4,103h1v1h-1z M10,103h1v1h-1z M12,103h1v1h-1z M13,103h1v1h-1z M14,103h1v1h-1z M17,103h1v1h-1z M18,103h1v1h-1z M20,103h1v1h-1z M21,103h1v1h-1z M24,103h1v1h-1z M25,103h1v1h-1z M26,103h1v1h-1z M27,103h1v1h-1z M28,103h1v1h-1z M32,103h1v1h-1z M34,103h1v1h-1z M38,103h1v1h-1z M43,103h1v1h-1z M44,103h1v1h-1z M47,103h1v1h-1z M49,103h1v1h-1z M51,103h1v1h-1z M52,103h1v1h-1z M56,103h1v1h-1z M58,103h1v1h-1z M59,103h1v1h-1z M66,103h1v1h-1z M67,103h1v1h-1z M68,103h1v1h-1z M69,103h1v1h-1z M70,103h1v1h-1z M76,103h1v1h-1z M80,103h1v1h-1z M81,103h1v1h-1z M82,103h1v1h-1z M83,103h1v1h-1z M85,103h1v1h-1z M92,103h1v1h-1z M94,103h1v1h-1z M95,103h1v1h-1z M98,103h1v1h-1z M99,103h1v1h-1z M100,103h1v1h-1z M104,103h1v1h-1z M105,103h1v1h-1z M107,103h1v1h-1z M108,103h1v1h-1z M4,104h1v1h-1z M6,104h1v1h-1z M7,104h1v1h-1z M8,104h1v1h-1z M10,104h1v1h-1z M12,104h1v1h-1z M13,104h1v1h-1z M18,104h1v1h-1z M20,104h1v1h-1z M21,104h1v1h-1z M22,104h1v1h-1z M24,104h1v1h-1z M28,104h1v1h-1z M29,104h1v1h-1z M30,104h1v1h-1z M31,104h1v1h-1z M32,104h1v1h-1z M34,104h1v1h-1z M35,104h1v1h-1z M36,104h1v1h-1z M38,104h1v1h-1z M39,104h1v1h-1z M40,104h1v1h-1z M41,104h1v1h-1z M43,104h1v1h-1z M45,104h1v1h-1z M47,104h1v1h-1z M48,104h1v1h-1z M49,104h1v1h-1z M52,104h1v1h-1z M53,104h1v1h-1z M54,104h1v1h-1z M55,104h1v1h-1z M56,104h1v1h-1z M57,104h1v1h-1z M58,104h1v1h-1z M60,104h1v1h-1z M64,104h1v1h-1z M66,104h1v1h-1z M68,104h1v1h-1z M71,104h1v1h-1z M72,104h1v1h-1z M73,104h1v1h-1z M76,104h1v1h-1z M77,104h1v1h-1z M78,104h1v1h-1z M79,104h1v1h-1z M80,104h1v1h-1z M82,104h1v1h-1z M86,104h1v1h-1z M93,104h1v1h-1z M94,104h1v1h-1z M96,104h1v1h-1z M97,104h1v1h-1z M100,104h1v1h-1z M101,104h1v1h-1z M102,104h1v1h-1z M103,104h1v1h-1z M104,104h1v1h-1z M105,104h1v1h-1z M107,104h1v1h-1z M108,104h1v1h-1z M4,105h1v1h-1z M6,105h1v1h-1z M7,105h1v1h-1z M8,105h1v1h-1z M10,105h1v1h-1z M13,105h1v1h-1z M17,105h1v1h-1z M18,105h1v1h-1z M19,105h1v1h-1z M20,105h1v1h-1z M21,105h1v1h-1z M22,105h1v1h-1z M24,105h1v1h-1z M26,105h1v1h-1z M27,105h1v1h-1z M28,105h1v1h-1z M31,105h1v1h-1z M32,105h1v1h-1z M33,105h1v1h-1z M35,105h1v1h-1z M36,105h1v1h-1z M40,105h1v1h-1z M42,105h1v1h-1z M45,105h1v1h-1z M47,105h1v1h-1z M48,105h1v1h-1z M49,105h1v1h-1z M52,105h1v1h-1z M53,105h1v1h-1z M55,105h1v1h-1z M56,105h1v1h-1z M57,105h1v1h-1z M59,105h1v1h-1z M60,105h1v1h-1z M61,105h1v1h-1z M63,105h1v1h-1z M66,105h1v1h-1z M67,105h1v1h-1z M68,105h1v1h-1z M69,105h1v1h-1z M70,105h1v1h-1z M71,105h1v1h-1z M72,105h1v1h-1z M75,105h1v1h-1z M76,105h1v1h-1z M78,105h1v1h-1z M79,105h1v1h-1z M80,105h1v1h-1z M81,105h1v1h-1z M83,105h1v1h-1z M86,105h1v1h-1z M87,105h1v1h-1z M88,105h1v1h-1z M89,105h1v1h-1z M92,105h1v1h-1z M94,105h1v1h-1z M96,105h1v1h-1z M98,105h1v1h-1z M99,105h1v1h-1z M101,105h1v1h-1z M103,105h1v1h-1z M104,105h1v1h-1z M105,105h1v1h-1z M107,105h1v1h-1z M108,105h1v1h-1z M4,106h1v1h-1z M6,106h1v1h-1z M7,106h1v1h-1z M8,106h1v1h-1z M10,106h1v1h-1z M13,106h1v1h-1z M14,106h1v1h-1z M15,106h1v1h-1z M16,106h1v1h-1z M19,106h1v1h-1z M26,106h1v1h-1z M27,106h1v1h-1z M28,106h1v1h-1z M29,106h1v1h-1z M35,106h1v1h-1z M36,106h1v1h-1z M37,106h1v1h-1z M38,106h1v1h-1z M40,106h1v1h-1z M43,106h1v1h-1z M44,106h1v1h-1z M47,106h1v1h-1z M48,106h1v1h-1z M49,106h1v1h-1z M50,106h1v1h-1z M53,106h1v1h-1z M56,106h1v1h-1z M59,106h1v1h-1z M60,106h1v1h-1z M62,106h1v1h-1z M64,106h1v1h-1z M69,106h1v1h-1z M71,106h1v1h-1z M72,106h1v1h-1z M73,106h1v1h-1z M74,106h1v1h-1z M75,106h1v1h-1z M76,106h1v1h-1z M77,106h1v1h-1z M79,106h1v1h-1z M80,106h1v1h-1z M81,106h1v1h-1z M83,106h1v1h-1z M86,106h1v1h-1z M87,106h1v1h-1z M88,106h1v1h-1z M89,106h1v1h-1z M95,106h1v1h-1z M98,106h1v1h-1z M102,106h1v1h-1z M104,106h1v1h-1z M4,107h1v1h-1z M10,107h1v1h-1z M12,107h1v1h-1z M14,107h1v1h-1z M15,107h1v1h-1z M17,107h1v1h-1z M19,107h1v1h-1z M20,107h1v1h-1z M23,107h1v1h-1z M24,107h1v1h-1z M25,107h1v1h-1z M30,107h1v1h-1z M32,107h1v1h-1z M35,107h1v1h-1z M39,107h1v1h-1z M41,107h1v1h-1z M42,107h1v1h-1z M44,107h1v1h-1z M56,107h1v1h-1z M57,107h1v1h-1z M58,107h1v1h-1z M59,107h1v1h-1z M62,107h1v1h-1z M63,107h1v1h-1z M65,107h1v1h-1z M66,107h1v1h-1z M67,107h1v1h-1z M68,107h1v1h-1z M70,107h1v1h-1z M71,107h1v1h-1z M77,107h1v1h-1z M78,107h1v1h-1z M80,107h1v1h-1z M81,107h1v1h-1z M82,107h1v1h-1z M83,107h1v1h-1z M89,107h1v1h-1z M91,107h1v1h-1z M92,107h1v1h-1z M94,107h1v1h-1z M95,107h1v1h-1z M97,107h1v1h-1z M99,107h1v1h-1z M100,107h1v1h-1z M101,107h1v1h-1z M103,107h1v1h-1z M104,107h1v1h-1z M4,108h1v1h-1z M5,108h1v1h-1z M6,108h1v1h-1z M7,108h1v1h-1z M8,108h1v1h-1z M9,108h1v1h-1z M10,108h1v1h-1z M12,108h1v1h-1z M13,108h1v1h-1z M17,108h1v1h-1z M18,108h1v1h-1z M19,108h1v1h-1z M20,108h1v1h-1z M21,108h1v1h-1z M22,108h1v1h-1z M23,108h1v1h-1z M24,108h1v1h-1z M26,108h1v1h-1z M30,108h1v1h-1z M32,108h1v1h-1z M33,108h1v1h-1z M34,108h1v1h-1z M35,108h1v1h-1z M36,108h1v1h-1z M38,108h1v1h-1z M39,108h1v1h-1z M40,108h1v1h-1z M42,108h1v1h-1z M45,108h1v1h-1z M46,108h1v1h-1z M47,108h1v1h-1z M49,108h1v1h-1z M51,108h1v1h-1z M54,108h1v1h-1z M55,108h1v1h-1z M58,108h1v1h-1z M60,108h1v1h-1z M61,108h1v1h-1z M67,108h1v1h-1z M68,108h1v1h-1z M70,108h1v1h-1z M72,108h1v1h-1z M73,108h1v1h-1z M75,108h1v1h-1z M77,108h1v1h-1z M78,108h1v1h-1z M79,108h1v1h-1z M81,108h1v1h-1z M82,108h1v1h-1z M84,108h1v1h-1z M87,108h1v1h-1z M89,108h1v1h-1z M90,108h1v1h-1z M91,108h1v1h-1z M95,108h1v1h-1z M96,108h1v1h-1z M97,108h1v1h-1z M102,108h1v1h-1z M103,108h1v1h-1z M105,108h1v1h-1z M108,108h1v1h-1z" fill="#000000"/>
</svg>
