<?xml version="1.0" encoding="UTF-8"?>
<!DOCTYPE svg PUBLIC "-//W3C//DTD SVG 1.1//EN" "http://www.w3.org/Graphics/SVG/1.1/DTD/svg11.dtd">
<svg xmlns="http://www.w3.org/2000/svg" version="1.1" viewBox="0 0 113 113" stroke="none">
	<rect width="100%" height="100%" fill="#FFFFFF"/>
	<path d="M4,4h1v1h-1z M5,4h1v1h-1z M6,4h1v1h-1z M7,4h1v1h-1z M8,4h1v1h-1z M9,4h1v1h-1z M10,4h1v1h-1z M15,4h1v1h-1z M18,4h1v1h-1z M19,4h1v1h-1z M23,4h1v1h-1z M25,4h1v1h-1z M27,4h1v1h-1z M29,4h1v1h-1z M31,4h1v1h-1z M33,4h1v1h-1z M39,4h1v1h-1z M40,4h1v1h-1z M41,4h1v1h-1z M42,4h1v1h-1z M43,4h1v1h-1z M45,4h1v1h-1z M52,4h1v1h-1z M53,4h1v1h-1z M59,4h1v1h-1z M61,4h1v1h-1z M63,4h1v1h-1z M64,4h1v1h-1z M65,4h1v1h-1z M67,4h1v1h-1z M68,4h1v1h-1z M69,4h1v1h-1z M71,4h1v1h-1z M74,4h1v1h-1z M75,4h1v1h-1z M78,4h1v1h-1z M80,4h1v1h-1z M81,4h1v1h-1z M83,4h1v1h-1z M84,4h1v1h-1z M85,4h1v1h-1z M91,4h1v1h-1z M92,4h1v1h-1z M96,4h1v1h-1z M97,4h1v1h-1z M98,4h1v1h-1z M102,4h1v1h-1z M103,4h1v1h-1z M104,4h1v1h-1z M105,4h1v1h-1z M106,4h1v1h-1z M107,4h1v1h-1z M108,4h1v1h-1z M4,5h1v1h-1z M10,5h1v1h-1z M12,5h1v1h-1z M15,5h1v1h-1z M17,5h1v1h-1z M18,5h1v1h-1z M22,5h1v1h-1z M23,5h1v1h-1z M24,5h1v1h-1z M25,5h1v1h-1z M27,5h1v1h-1z M28,5h1v1h-1z M31,5h1v1h-1z M33,5h1v1h-1z M34,5h1v1h-1z M39,5h1v1h-1z M41,5h1v1h-1z M43,5h1v1h-1z M44,5h1v1h-1z M46,5h1v1h-1z M48,5h1v1h-1z M49,5h1v1h-1z M53,5h1v1h-1z M55,5h1v1h-1z M56,5h1v1h-1z M57,5h1v1h-1z M58,5h1v1h-1z M60,5h1v1h-1z M63,5h1v1h-1z M68,5h1v1h-1z M70,5h1v1h-1z M71,5h1v1h-1z M72,5h1v1h-1z M76,5h1v1h-1z M77,5h1v1h-1z M79,5h1v1h-1z M82,5h1v1h-1z M83,5h1v1h-1z M84,5h1v1h-1z M88,5h1v1h-1z M89,5h1v1h-1z M94,5h1v1h-1z M95,5h1v1h-1z M97,5h1v1h-1z M98,5h1v1h-1z M102,5h1v1h-1z M108,5h1v1h-1z M4,6h1v1h-1z M6,6h1v1h-1z M7,6h1v1h-1z M8,6h1v1h-1z M10,6h1v1h-1z M15,6h1v1h-1z M17,6h1v1h-1z M18,6h1v1h-1z M24,6h1v1h-1z M25,6h1v1h-1z M27,6h1v1h-1z M28,6h1v1h-1z M29,6h1v1h-1z M30,6h1v1h-1z M33,6h1v1h-1z M34,6h1v1h-1z M35,6h1v1h-1z M38,6h1v1h-1z M39,6h1v1h-1z M40,6h1v1h-1z M41,6h1v1h-1z M42,6h1v1h-1z M45,6h1v1h-1z M47,6h1v1h-1z M50,6h1v1h-1z M51,6h1v1h-1z M52,6h1v1h-1z M54,6h1v1h-1z M55,6h1v1h-1z M58,6h1v1h-1z M59,6h1v1h-1z M61,6h1v1h-1z M63,6h1v1h-1z M64,6h1v1h-1z M65,6h1v1h-1z M66,6h1v1h-1z M69,6h1v1h-1z M71,6h1v1h-1z M73,6h1v1h-1z M75,6h1v1h-1z M76,6h1v1h-1z M81,6h1v1h-1z M87,6h1v1h-1z M88,6h1v1h-1z M90,6h1v1h-1z M93,6h1v1h-1z M95,6h1v1h-1z M98,6h1v1h-1z M99,6h1v1h-1z M102,6h1v1h-1z M104,6h1v1h-1z M105,6h1v1h-1z M106,6h1v1h-1z M108,6h1v1h-1z M4,7h1v1h-1z M6,7h1v1h-1z M7,7h1v1h-1z M8,7h1v1h-1z M10,7h1v1h-1z M12,7h1v1h-1z M14,7h1v1h-1z M15,7h1v1h-1z M16,7h1v1h-1z M17,7h1v1h-1z M19,7h1v1h-1z M22,7h1v1h-1z M23,7h1v1h-1z M25,7h1v1h-1z M30,7h1v1h-1z M37,7h1v1h-1z M38,7h1v1h-1z M39,7h1v1h-1z M42,7h1v1h-1z M43,7h1v1h-1z M44,7h1v1h-1z M46,7h1v1h-1z M47,7h1v1h-1z M52,7h1v1h-1z M53,7h1v1h-1z M54,7h1v1h-1z M55,7h1v1h-1z M57,7h1v1h-1z M58,7h1v1h-1z M60,7h1v1h-1z M61,7h1v1h-1z M63,7h1v1h-1z M66,7h1v1h-1z M68,7h1v1h-1z M70,7h1v1h-1z M72,7h1v1h-1z M73,7h1v1h-1z M74,7h1v1h-1z M81,7h1v1h-1z M82,7h1v1h-1z M83,7h1v1h-1z M84,7h1v1h-1z M85,7h1v1h-1z M87,7h1v1h-1z M90,7h1v1h-1z M91,7h1v1h-1z M93,7h1v1h-1z M94,7h1v1h-1z M96,7h1v1h-1z M100,7h1v1h-1z M102,7h1v1h-1z M104,7h1v1h-1z M105,7h1v1h-1z M106,7h1v1h-1z M108,7h1v1h-1z M4,8h1v1h-1z M6,8h1v1h-1z M7,8h1v1h-1z M8,8h1v1h-1z M10,8h1v1h-1z M14,8h1v1h-1z M15,8h1v1h-1z M17,8h1v1h-1z M20,8h1v1h-1z M21,8h1v1h-1z M22,8h1v1h-1z M24,8h1v1h-1z M28,8h1v1h-1z M29,8h1v1h-1z M30,8h1v1h-1z M31,8h1v1h-1z M32,8h1v1h-1z M35,8h1v1h-1z M36,8h1v1h-1z M40,8h1v1h-1z M42,8h1v1h-1z M45,8h1v1h-1z M47,8h1v1h-1z M48,8h1v1h-1z M50,8h1v1h-1z M51,8h1v1h-1z M52,8h1v1h-1z M53,8h1v1h-1z M54,8h1v1h-1z M55,8h1v1h-1z M56,8h1v1h-1z M57,8h1v1h-1z M59,8h1v1h-1z M64,8h1v1h-1z M66,8h1v1h-1z M67,8h1v1h-1z M72,8h1v1h-1z M74,8h1v1h-1z M76,8h1v1h-1z M77,8h1v1h-1z M78,8h1v1h-1z M79,8h1v1h-1z M80,8h1v1h-1z M82,8h1v1h-1z M83,8h1v1h-1z M84,8h1v1h-1z M85,8h1v1h-1z M86,8h1v1h-1z M87,8h1v1h-1z M88,8h1v1h-1z M90,8h1v1h-1z M93,8h1v1h-1z M94,8h1v1h-1z M96,8h1v1h-1z M97,8h1v1h-1z M99,8h1v1h-1z M100,8h1v1h-1z M102,8h1v1h-1z M104,8h1v1h-1z M105,8h1v1h-1z M106,8h1v1h-1z M108,8h1v1h-1z M4,9h1v1h-1z M10,9h1v1h-1z M12,9h1v1h-1z M14,9h1v1h-1z M17,9h1v1h-1z M18,9h1v1h-1z M23,9h1v1h-1z M24,9h1v1h-1z M27,9h1v1h-1z M28,9h1v1h-1z M32,9h1v1h-1z M33,9h1v1h-1z M34,9h1v1h-1z M35,9h1v1h-1z M36,9h1v1h-1z M37,9h1v1h-1z M39,9h1v1h-1z M41,9h1v1h-1z M43,9h1v1h-1z M46,9h1v1h-1z M47,9h1v1h-1z M49,9h1v1h-1z M52,9h1v1h-1z M56,9h1v1h-1z M57,9h1v1h-1z M58,9h1v1h-1z M59,9h1v1h-1z M60,9h1v1h-1z M63,9h1v1h-1z M65,9h1v1h-1z M68,9h1v1h-1z M69,9h1v1h-1z M70,9h1v1h-1z M71,9h1v1h-1z M72,9h1v1h-1z M75,9h1v1h-1z M76,9h1v1h-1z M80,9h1v1h-1z M81,9h1v1h-1z M82,9h1v1h-1z M83,9h1v1h-1z M84,9h1v1h-1z M87,9h1v1h-1z M88,9h1v1h-1z M89,9h1v1h-1z M92,9h1v1h-1z M94,9h1v1h-1z M99,9h1v1h-1z M102,9h1v1h-1z M108,9h1v1h-1z M4,10h1v1h-1z M5,10h1v1h-1z M6,10h1v1h-1z M7,10h1v1h-1z M8,10h1v1h-1z M9,10h1v1h-1z M10,10h1v1h-1z M12,10h1v1h-1z M14,10h1v1h-1z M16,10h1v1h-1z M18,10h1v1h-1z M20,10h1v1h-1z M22,10h1v1h-1z M24,10h1v1h-1z M26,10h1v1h-1z M28,10h1v1h-1z M30,10h1v1h-1z M32,10h1v1h-1z M34,10h1v1h-1z M36,10h1v1h-1z M38,10h1v1h-1z M40,10h1v1h-1z M42,10h1v1h-1z M44,10h1v1h-1z M46,10h1v1h-1z M48,10h1v1h-1z M50,10h1v1h-1z M52,10h1v1h-1z M54,10h1v1h-1z M56,10h1v1h-1z M58,10h1v1h-1z M60,10h1v1h-1z M62,10h1v1h-1z M64,10h1v1h-1z M66,10h1v1h-1z M68,10h1v1h-1z M70,10h1v1h-1z M72,10h1v1h-1z M74,10h1v1h-1z M76,10h1v1h-1z M78,10h1v1h-1z M80,10h1v1h-1z M82,10h1v1h-1z M84,10h1v1h-1z M86,10h1v1h-1z M88,10h1v1h-1z M90,10h1v1h-1z M92,10h1v1h-1z M94,10h1v1h-1z M96,10h1v1h-1z M98,10h1v1h-1z M100,10h1v1h-1z M102,10h1v1h-1z M103,10h1v1h-1z M104,10h1v1h-1z M105,10h1v1h-1z M106,10h1v1h-1z M107,10h1v1h-1z M108,10h1v1h-1z M14,11h1v1h-1z M15,11h1v1h-1z M16,11h1v1h-1z M17,11h1v1h-1z M22,11h1v1h-1z M25,11h1v1h-1z M26,11h1v1h-1z M28,11h1v1h-1z M32,11h1v1h-1z M33,11h1v1h-1z M34,11h1v1h-1z M38,11h1v1h-1z M39,11h1v1h-1z M40,11h1v1h-1z M42,11h1v1h-1z M45,11h1v1h-1z M47,11h1v1h-1z M50,11h1v1h-1z M52,11h1v1h-1z M56,11h1v1h-1z M57,11h1v1h-1z M61,11h1v1h-1z M63,11h1v1h-1z M64,11h1v1h-1z M65,11h1v1h-1z M66,11h1v1h-1z M67,11h1v1h-1z M70,11h1v1h-1z M74,11h1v1h-1z M75,11h1v1h-1z M76,11h1v1h-1z M80,11h1v1h-1z M81,11h1v1h-1z M83,11h1v1h-1z M85,11h1v1h-1z M87,11h1v1h-1z M88,11h1v1h-1z M90,11h1v1h-1z M93,11h1v1h-1z M95,11h1v1h-1z M99,11h1v1h-1z M100,11h1v1h-1z M4,12h1v1h-1z M5,12h1v1h-1z M6,12h1v1h-1z M7,12h1v1h-1z M8,12h1v1h-1z M10,12h1v1h-1z M11,12h1v1h-1z M12,12h1v1h-1z M18,12h1v1h-1z M19,12h1v1h-1z M20,12h1v1h-1z M22,12h1v1h-1z M23,12h1v1h-1z M26,12h1v1h-1z M27,12h1v1h-1z M28,12h1v1h-1z M29,12h1v1h-1z M30,12h1v1h-1z M31,12h1v1h-1z M32,12h1v1h-1z M35,12h1v1h-1z M39,12h1v1h-1z M40,12h1v1h-1z M42,12h1v1h-1z M43,12h1v1h-1z M46,12h1v1h-1z M48,12h1v1h-1z M51,12h1v1h-1z M52,12h1v1h-1z M53,12h1v1h-1z M54,12h1v1h-1z M55,12h1v1h-1z M56,12h1v1h-1z M57,12h1v1h-1z M58,12h1v1h-1z M59,12h1v1h-1z M60,12h1v1h-1z M61,12h1v1h-1z M62,12h1v1h-1z M64,12h1v1h-1z M65,12h1v1h-1z M67,12h1v1h-1z M69,12h1v1h-1z M70,12h1v1h-1z M72,12h1v1h-1z M73,12h1v1h-1z M74,12h1v1h-1z M76,12h1v1h-1z M77,12h1v1h-1z M78,12h1v1h-1z M79,12h1v1h-1z M80,12h1v1h-1z M81,12h1v1h-1z M82,12h1v1h-1z M83,12h1v1h-1z M85,12h1v1h-1z M86,12h1v1h-1z M88,12h1v1h-1z M89,12h1v1h-1z M92,12h1v1h-1z M93,12h1v1h-1z M94,12h1v1h-1z M96,12h1v1h-1z M97,12h1v1h-1z M98,12h1v1h-1z M99,12h1v1h-1z M100,12h1v1h-1z M101,12h1v1h-1z M103,12h1v1h-1z M105,12h1v1h-1z M107,12h1v1h-1z M5,13h1v1h-1z M9,13h1v1h-1z M14,13h1v1h-1z M15,13h1v1h-1z M16,13h1v1h-1z M18,13h1v1h-1z M19,13h1v1h-1z M20,13h1v1h-1z M22,13h1v1h-1z M24,13h1v1h-1z M25,13h1v1h-1z M26,13h1v1h-1z M28,13h1v1h-1z M29,13h1v1h-1z M30,13h1v1h-1z M33,13h1v1h-1z M36,13h1v1h-1z M37,13h1v1h-1z M38,13h1v1h-1z M41,13h1v1h-1z M42,13h1v1h-1z M43,13h1v1h-1z M44,13h1v1h-1z M45,13h1v1h-1z M51,13h1v1h-1z M52,13h1v1h-1z M54,13h1v1h-1z M55,13h1v1h-1z M58,13h1v1h-1z M59,13h1v1h-1z M60,13h1v1h-1z M62,13h1v1h-1z M65,13h1v1h-1z M66,13h1v1h-1z M69,13h1v1h-1z M70,13h1v1h-1z M71,13h1v1h-1z M75,13h1v1h-1z M76,13h1v1h-1z M78,13h1v1h-1z M79,13h1v1h-1z M80,13h1v1h-1z M85,13h1v1h-1z M87,13h1v1h-1z M88,13h1v1h-1z M89,13h1v1h-1z M91,13h1v1h-1z M94,13h1v1h-1z M95,13h1v1h-1z M96,13h1v1h-1z M98,13h1v1h-1z M99,13h1v1h-1z M100,13h1v1h-1z M101,13h1v1h-1z M104,13h1v1h-1z M105,13h1v1h-1z M108,13h1v1h-1z M4,14h1v1h-1z M7,14h1v1h-1z M8,14h1v1h-1z M9,14h1v1h-1z M10,14h1v1h-1z M11,14h1v1h-1z M12,14h1v1h-1z M18,14h1v1h-1z M20,14h1v1h-1z M21,14h1v1h-1z M22,14h1v1h-1z M23,14h1v1h-1z M27,14h1v1h-1z M29,14h1v1h-1z M31,14h1v1h-1z M33,14h1v1h-1z M34,14h1v1h-1z M35,14h1v1h-1z M39,14h1v1h-1z M40,14h1v1h-1z M41,14h1v1h-1z M44,14h1v1h-1z M46,14h1v1h-1z M49,14h1v1h-1z M53,14h1v1h-1z M55,14h1v1h-1z M57,14h1v1h-1z M58,14h1v1h-1z M59,14h1v1h-1z M60,14h1v1h-1z M63,14h1v1h-1z M65,14h1v1h-1z M67,14h1v1h-1z M68,14h1v1h-1z M69,14h1v1h-1z M70,14h1v1h-1z M72,14h1v1h-1z M81,14h1v1h-1z M82,14h1v1h-1z M83,14h1v1h-1z M84,14h1v1h-1z M88,14h1v1h-1z M89,14h1v1h-1z M91,14h1v1h-1z M92,14h1v1h-1z M93,14h1v1h-1z M94,14h1v1h-1z M96,14h1v1h-1z M100,14h1v1h-1z M101,14h1v1h-1z M102,14h1v1h-1z M107,14h1v1h-1z M4,15h1v1h-1z M6,15h1v1h-1z M8,15h1v1h-1z M11,15h1v1h-1z M13,15h1v1h-1z M14,15h1v1h-1z M15,15h1v1h-1z M18,15h1v1h-1z M20,15h1v1h-1z M22,15h1v1h-1z M23,15h1v1h-1z M24,15h1v1h-1z M27,15h1v1h-1z M28,15h1v1h-1z M30,15h1v1h-1z M35,15h1v1h-1z M39,15h1v1h-1z M40,15h1v1h-1z M45,15h1v1h-1z M47,15h1v1h-1z M50,15h1v1h-1z M51,15h1v1h-1z M52,15h1v1h-1z M54,15h1v1h-1z M57,15h1v1h-1z M59,15h1v1h-1z M61,15h1v1h-1z M62,15h1v1h-1z M63,15h1v1h-1z M64,15h1v1h-1z M66,15h1v1h-1z M70,15h1v1h-1z M71,15h1v1h-1z M74,15h1v1h-1z M75,15h1v1h-1z M76,15h1v1h-1z M77,15h1v1h-1z M78,15h1v1h-1z M85,15h1v1h-1z M86,15h1v1h-1z M87,15h1v1h-1z M88,15h1v1h-1z M97,15h1v1h-1z M98,15h1v1h-1z M99,15h1v1h-1z M104,15h1v1h-1z M106,15h1v1h-1z M107,15h1v1h-1z M108,15h1v1h-1z M5,16h1v1h-1z M6,16h1v1h-1z M10,16h1v1h-1z M11,16h1v1h-1z M15,16h1v1h-1z M16,16h1v1h-1z M18,16h1v1h-1z M19,16h1v1h-1z M22,16h1v1h-1z M23,16h1v1h-1z M24,16h1v1h-1z M28,16h1v1h-1z M29,16h1v1h-1z M30,16h1v1h-1z M32,16h1v1h-1z M33,16h1v1h-1z M34,16h1v1h-1z M38,16h1v1h-1z M39,16h1v1h-1z M42,16h1v1h-1z M45,16h1v1h-1z M46,16h1v1h-1z M47,16h1v1h-1z M50,16h1v1h-1z M51,16h1v1h-1z M56,16h1v1h-1z M58,16h1v1h-1z M59,16h1v1h-1z M60,16h1v1h-1z M63,16h1v1h-1z M64,16h1v1h-1z M65,16h1v1h-1z M68,16h1v1h-1z M70,16h1v1h-1z M73,16h1v1h-1z M74,16h1v1h-1z M77,16h1v1h-1z M81,16h1v1h-1z M82,16h1v1h-1z M87,16h1v1h-1z M89,16h1v1h-1z M90,16h1v1h-1z M91,16h1v1h-1z M96,16h1v1h-1z M97,16h1v1h-1z M100,16h1v1h-1z M101,16h1v1h-1z M102,16h1v1h-1z M103,16h1v1h-1z M105,16h1v1h-1z M4,17h1v1h-1z M5,17h1v1h-1z M8,17h1v1h-1z M9,17h1v1h-1z M11,17h1v1h-1z M13,17h1v1h-1z M16,17h1v1h-1z M19,17h1v1h-1z M20,17h1v1h-1z M21,17h1v1h-1z M24,17h1v1h-1z M25,17h1v1h-1z M27,17h1v1h-1z M28,17h1v1h-1z M30,17h1v1h-1z M31,17h1v1h-1z M32,17h1v1h-1z M35,17h1v1h-1z M37,17h1v1h-1z M38,17h1v1h-1z M39,17h1v1h-1z M40,17h1v1h-1z M41,17h1v1h-1z M42,17h1v1h-1z M43,17h1v1h-1z M46,17h1v1h-1z M47,17h1v1h-1z M48,17h1v1h-1z M50,17h1v1h-1z M51,17h1v1h-1z M52,17h1v1h-1z M53,17h1v1h-1z M54,17h1v1h-1z M55,17h1v1h-1z M59,17h1v1h-1z M61,17h1v1h-1z M62,17h1v1h-1z M64,17h1v1h-1z M65,17h1v1h-1z M70,17h1v1h-1z M72,17h1v1h-1z M73,17h1v1h-1z M75,17h1v1h-1z M76,17h1v1h-1z M78,17h1v1h-1z M79,17h1v1h-1z M80,17h1v1h-1z M81,17h1v1h-1z M82,17h1v1h-1z M85,17h1v1h-1z M86,17h1v1h-1z M89,17h1v1h-1z M93,17h1v1h-1z M96,17h1v1h-1z M99,17h1v1h-1z M101,17h1v1h-1z M107,17h1v1h-1z M5,18h1v1h-1z M6,18h1v1h-1z M7,18h1v1h-1z M9,18h1v1h-1z M10,18h1v1h-1z M11,18h1v1h-1z M17,18h1v1h-1z M20,18h1v1h-1z M24,18h1v1h-1z M27,18h1v1h-1z M28,18h1v1h-1z M29,18h1v1h-1z M31,18h1v1h-1z M32,18h1v1h-1z M33,18h1v1h-1z M34,18h1v1h-1z M35,18h1v1h-1z M36,18h1v1h-1z M39,18h1v1h-1z M41,18h1v1h-1z M43,18h1v1h-1z M45,18h1v1h-1z M46,18h1v1h-1z M49,18h1v1h-1z M52,18h1v1h-1z M53,18h1v1h-1z M57,18h1v1h-1z M58,18h1v1h-1z M59,18h1v1h-1z M60,18h1v1h-1z M63,18h1v1h-1z M64,18h1v1h-1z M65,18h1v1h-1z M68,18h1v1h-1z M69,18h1v1h-1z M70,18h1v1h-1z M72,18h1v1h-1z M75,18h1v1h-1z M77,18h1v1h-1z M81,18h1v1h-1z M82,18h1v1h-1z M83,18h1v1h-1z M84,18h1v1h-1z M85,18h1v1h-1z M87,18h1v1h-1z M89,18h1v1h-1z M92,18h1v1h-1z M94,18h1v1h-1z M106,18h1v1h-1z M107,18h1v1h-1z M5,19h1v1h-1z M11,19h1v1h-1z M13,19h1v1h-1z M20,19h1v1h-1z M21,19h1v1h-1z M22,19h1v1h-1z M23,19h1v1h-1z M24,19h1v1h-1z M25,19h1v1h-1z M26,19h1v1h-1z M28,19h1v1h-1z M33,19h1v1h-1z M34,19h1v1h-1z M35,19h1v1h-1z M39,19h1v1h-1z M40,19h1v1h-1z M41,19h1v1h-1z M46,19h1v1h-1z M47,19h1v1h-1z M49,19h1v1h-1z M50,19h1v1h-1z M51,19h1v1h-1z M59,19h1v1h-1z M62,19h1v1h-1z M63,19h1v1h-1z M64,19h1v1h-1z M66,19h1v1h-1z M67,19h1v1h-1z M69,19h1v1h-1z M70,19h1v1h-1z M71,19h1v1h-1z M75,19h1v1h-1z M76,19h1v1h-1z M77,19h1v1h-1z M78,19h1v1h-1z M82,19h1v1h-1z M83,19h1v1h-1z M86,19h1v1h-1z M88,19h1v1h-1z M89,19h1v1h-1z M93,19h1v1h-1z M95,19h1v1h-1z M104,19h1v1h-1z M106,19h1v1h-1z M107,19h1v1h-1z M5,20h1v1h-1z M9,20h1v1h-1z M10,20h1v1h-1z M12,20h1v1h-1z M17,20h1v1h-1z M19,20h1v1h-1z M21,20h1v1h-1z M22,20h1v1h-1z M28,20h1v1h-1z M30,20h1v1h-1z M31,20h1v1h-1z M32,20h1v1h-1z M33,20h1v1h-1z M34,20h1v1h-1z M36,20h1v1h-1z M40,20h1v1h-1z M41,20h1v1h-1z M43,20h1v1h-1z M46,20h1v1h-1z M48,20h1v1h-1z M49,20h1v1h-1z M52,20h1v1h-1z M54,20h1v1h-1z M56,20h1v1h-1z M59,20h1v1h-1z M60,20h1v1h-1z M61,20h1v1h-1z M65,20h1v1h-1z M68,20h1v1h-1z M69,20h1v1h-1z M70,20h1v1h-1z M72,20h1v1h-1z M73,20h1v1h-1z M74,20h1v1h-1z M75,20h1v1h-1z M77,20h1v1h-1z M78,20h1v1h-1z M80,20h1v1h-1z M81,20h1v1h-1z M82,20h1v1h-1z M84,20h1v1h-1z M85,20h1v1h-1z M86,20h1v1h-1z M87,20h1v1h-1z M91,20h1v1h-1z M94,20h1v1h-1z M96,20h1v1h-1z M99,20h1v1h-1z M100,20h1v1h-1z M101,20h1v1h-1z M102,20h1v1h-1z M103,20h1v1h-1z M104,20h1v1h-1z M105,20h1v1h-1z M107,20h1v1h-1z M4,21h1v1h-1z M5,21h1v1h-1z M6,21h1v1h-1z M7,21h1v1h-1z M9,21h1v1h-1z M11,21h1v1h-1z M13,21h1v1h-1z M15,21h1v1h-1z M21,21h1v1h-1z M23,21h1v1h-1z M24,21h1v1h-1z M25,21h1v1h-1z M27,21h1v1h-1z M28,21h1v1h-1z M29,21h1v1h-1z M30,21h1v1h-1z M31,21h1v1h-1z M32,21h1v1h-1z M37,21h1v1h-1z M38,21h1v1h-1z M42,21h1v1h-1z M43,21h1v1h-1z M45,21h1v1h-1z M49,21h1v1h-1z M50,21h1v1h-1z M51,21h1v1h-1z M52,21h1v1h-1z M59,21h1v1h-1z M62,21h1v1h-1z M67,21h1v1h-1z M73,21h1v1h-1z M74,21h1v1h-1z M76,21h1v1h-1z M77,21h1v1h-1z M79,21h1v1h-1z M80,21h1v1h-1z M81,21h1v1h-1z M82,21h1v1h-1z M83,21h1v1h-1z M88,21h1v1h-1z M91,21h1v1h-1z M92,21h1v1h-1z M93,21h1v1h-1z M94,21h1v1h-1z M98,21h1v1h-1z M99,21h1v1h-1z M100,21h1v1h-1z M101,21h1v1h-1z M103,21h1v1h-1z M104,21h1v1h-1z M105,21h1v1h-1z M107,21h1v1h-1z M4,22h1v1h-1z M7,22h1v1h-1z M10,22h1v1h-1z M17,22h1v1h-1z M18,22h1v1h-1z M19,22h1v1h-1z M20,22h1v1h-1z M21,22h1v1h-1z M22,22h1v1h-1z M23,22h1v1h-1z M24,22h1v1h-1z M28,22h1v1h-1z M29,22h1v1h-1z M31,22h1v1h-1z M32,22h1v1h-1z M33,22h1v1h-1z M34,22h1v1h-1z M37,22h1v1h-1z M39,22h1v1h-1z M41,22h1v1h-1z M45,22h1v1h-1z M46,22h1v1h-1z M48,22h1v1h-1z M49,22h1v1h-1z M51,22h1v1h-1z M53,22h1v1h-1z M55,22h1v1h-1z M56,22h1v1h-1z M57,22h1v1h-1z M58,22h1v1h-1z M63,22h1v1h-1z M65,22h1v1h-1z M67,22h1v1h-1z M70,22h1v1h-1z M71,22h1v1h-1z M72,22h1v1h-1z M73,22h1v1h-1z M75,22h1v1h-1z M76,22h1v1h-1z M77,22h1v1h-1z M80,22h1v1h-1z M81,22h1v1h-1z M82,22h1v1h-1z M92,22h1v1h-1z M93,22h1v1h-1z M94,22h1v1h-1z M101,22h1v1h-1z M107,22h1v1h-1z M5,23h1v1h-1z M8,23h1v1h-1z M14,23h1v1h-1z M16,23h1v1h-1z M18,23h1v1h-1z M20,23h1v1h-1z M25,23h1v1h-1z M26,23h1v1h-1z M27,23h1v1h-1z M28,23h1v1h-1z M30,23h1v1h-1z M31,23h1v1h-1z M34,23h1v1h-1z M35,23h1v1h-1z M37,23h1v1h-1z M38,23h1v1h-1z M39,23h1v1h-1z M40,23h1v1h-1z M41,23h1v1h-1z M45,23h1v1h-1z M46,23h1v1h-1z M47,23h1v1h-1z M50,23h1v1h-1z M52,23h1v1h-1z M59,23h1v1h-1z M63,23h1v1h-1z M64,23h1v1h-1z M65,23h1v1h-1z M66,23h1v1h-1z M71,23h1v1h-1z M74,23h1v1h-1z M75,23h1v1h-1z M76,23h1v1h-1z M77,23h1v1h-1z M81,23h1v1h-1z M82,23h1v1h-1z M83,23h1v1h-1z M86,23h1v1h-1z M87,23h1v1h-1z M88,23h1v1h-1z M89,23h1v1h-1z M90,23h1v1h-1z M94,23h1v1h-1z M95,23h1v1h-1z M98,23h1v1h-1z M99,23h1v1h-1z M101,23h1v1h-1z M104,23h1v1h-1z M105,23h1v1h-1z M106,23h1v1h-1z M107,23h1v1h-1z M108,23h1v1h-1z M4,24h1v1h-1z M7,24h1v1h-1z M9,24h1v1h-1z M10,24h1v1h-1z M11,24h1v1h-1z M21,24h1v1h-1z M22,24h1v1h-1z M24,24h1v1h-1z M26,24h1v1h-1z M28,24h1v1h-1z M29,24h1v1h-1z M31,24h1v1h-1z M32,24h1v1h-1z M33,24h1v1h-1z M34,24h1v1h-1z M37,24h1v1h-1z M38,24h1v1h-1z M40,24h1v1h-1z M42,24h1v1h-1z M44,24h1v1h-1z M45,24h1v1h-1z M46,24h1v1h-1z M47,24h1v1h-1z M49,24h1v1h-1z M52,24h1v1h-1z M54,24h1v1h-1z M55,24h1v1h-1z M56,24h1v1h-1z M58,24h1v1h-1z M59,24h1v1h-1z M60,24h1v1h-1z M61,24h1v1h-1z M62,24h1v1h-1z M64,24h1v1h-1z M67,24h1v1h-1z M68,24h1v1h-1z M69,24h1v1h-1z M70,24h1v1h-1z M71,24h1v1h-1z M72,24h1v1h-1z M75,24h1v1h-1z M76,24h1v1h-1z M82,24h1v1h-1z M85,24h1v1h-1z M86,24h1v1h-1z M87,24h1v1h-1z M93,24h1v1h-1z M94,24h1v1h-1z M96,24h1v1h-1z M97,24h1v1h-1z M98,24h1v1h-1z M99,24h1v1h-1z M100,24h1v1h-1z M101,24h1v1h-1z M102,24h1v1h-1z M105,24h1v1h-1z M107,24h1v1h-1z M108,24h1v1h-1z M4,25h1v1h-1z M5,25h1v1h-1z M7,25h1v1h-1z M12,25h1v1h-1z M13,25h1v1h-1z M15,25h1v1h-1z M16,25h1v1h-1z M20,25h1v1h-1z M21,25h1v1h-1z M22,25h1v1h-1z M23,25h1v1h-1z M26,25h1v1h-1z M27,25h1v1h-1z M28,25h1v1h-1z M29,25h1v1h-1z M33,25h1v1h-1z M35,25h1v1h-1z M39,25h1v1h-1z M40,25h1v1h-1z M42,25h1v1h-1z M43,25h1v1h-1z M48,25h1v1h-1z M51,25h1v1h-1z M52,25h1v1h-1z M58,25h1v1h-1z M59,25h1v1h-1z M60,25h1v1h-1z M61,25h1v1h-1z M64,25h1v1h-1z M67,25h1v1h-1z M70,25h1v1h-1z M71,25h1v1h-1z M75,25h1v1h-1z M76,25h1v1h-1z M83,25h1v1h-1z M84,25h1v1h-1z M89,25h1v1h-1z M91,25h1v1h-1z M94,25h1v1h-1z M95,25h1v1h-1z M99,25h1v1h-1z M100,25h1v1h-1z M103,25h1v1h-1z M104,25h1v1h-1z M105,25h1v1h-1z M106,25h1v1h-1z M108,25h1v1h-1z M4,26h1v1h-1z M6,26h1v1h-1z M7,26h1v1h-1z M10,26h1v1h-1z M11,26h1v1h-1z M15,26h1v1h-1z M17,26h1v1h-1z M19,26h1v1h-1z M21,26h1v1h-1z M22,26h1v1h-1z M25,26h1v1h-1z M27,26h1v1h-1z M32,26h1v1h-1z M33,26h1v1h-1z M34,26h1v1h-1z M37,26h1v1h-1z M41,26h1v1h-1z M43,26h1v1h-1z M45,26h1v1h-1z M46,26h1v1h-1z M47,26h1v1h-1z M51,26h1v1h-1z M52,26h1v1h-1z M53,26h1v1h-1z M56,26h1v1h-1z M57,26h1v1h-1z M58,26h1v1h-1z M59,26h1v1h-1z M63,26h1v1h-1z M67,26h1v1h-1z M68,26h1v1h-1z M69,26h1v1h-1z M70,26h1v1h-1z M71,26h1v1h-1z M77,26h1v1h-1z M81,26h1v1h-1z M82,26h1v1h-1z M83,26h1v1h-1z M84,26h1v1h-1z M87,26h1v1h-1z M91,26h1v1h-1z M93,26h1v1h-1z M94,26h1v1h-1z M96,26h1v1h-1z M102,26h1v1h-1z M105,26h1v1h-1z M107,26h1v1h-1z M4,27h1v1h-1z M6,27h1v1h-1z M7,27h1v1h-1z M11,27h1v1h-1z M12,27h1v1h-1z M13,27h1v1h-1z M14,27h1v1h-1z M15,27h1v1h-1z M16,27h1v1h-1z M18,27h1v1h-1z M20,27h1v1h-1z M21,27h1v1h-1z M22,27h1v1h-1z M23,27h1v1h-1z M26,27h1v1h-1z M28,27h1v1h-1z M29,27h1v1h-1z M30,27h1v1h-1z M33,27h1v1h-1z M34,27h1v1h-1z M35,27h1v1h-1z M38,27h1v1h-1z M39,27h1v1h-1z M40,27h1v1h-1z M46,27h1v1h-1z M47,27h1v1h-1z M49,27h1v1h-1z M50,27h1v1h-1z M52,27h1v1h-1z M53,27h1v1h-1z M55,27h1v1h-1z M58,27h1v1h-1z M59,27h1v1h-1z M61,27h1v1h-1z M63,27h1v1h-1z M64,27h1v1h-1z M66,27h1v1h-1z M70,27h1v1h-1z M71,27h1v1h-1z M77,27h1v1h-1z M78,27h1v1h-1z M83,27h1v1h-1z M87,27h1v1h-1z M88,27h1v1h-1z M89,27h1v1h-1z M90,27h1v1h-1z M93,27h1v1h-1z M94,27h1v1h-1z M97,27h1v1h-1z M99,27h1v1h-1z M101,27h1v1h-1z M104,27h1v1h-1z M105,27h1v1h-1z M106,27h1v1h-1z M107,27h1v1h-1z M108,27h1v1h-1z M4,28h1v1h-1z M5,28h1v1h-1z M6,28h1v1h-1z M7,28h1v1h-1z M8,28h1v1h-1z M9,28h1v1h-1z M10,28h1v1h-1z M11,28h1v1h-1z M12,28h1v1h-1z M13,28h1v1h-1z M15,28h1v1h-1z M19,28h1v1h-1z M21,28h1v1h-1z M22,28h1v1h-1z M23,28h1v1h-1z M24,28h1v1h-1z M25,28h1v1h-1z M27,28h1v1h-1z M28,28h1v1h-1z M29,28h1v1h-1z M30,28h1v1h-1z M31,28h1v1h-1z M32,28h1v1h-1z M33,28h1v1h-1z M34,28h1v1h-1z M36,28h1v1h-1z M37,28h1v1h-1z M38,28h1v1h-1z M40,28h1v1h-1z M43,28h1v1h-1z M46,28h1v1h-1z M47,28h1v1h-1z M48,28h1v1h-1z M52,28h1v1h-1z M53,28h1v1h-1z M54,28h1v1h-1z M55,28h1v1h-1z M56,28h1v1h-1z M57,28h1v1h-1z M58,28h1v1h-1z M59,28h1v1h-1z M60,28h1v1h-1z M61,28h1v1h-1z M63,28h1v1h-1z M71,28h1v1h-1z M75,28h1v1h-1z M76,28h1v1h-1z M77,28h1v1h-1z M78,28h1v1h-1z M79,28h1v1h-1z M80,28h1v1h-1z M81,28h1v1h-1z M82,28h1v1h-1z M88,28h1v1h-1z M89,28h1v1h-1z M92,28h1v1h-1z M97,28h1v1h-1z M98,28h1v1h-1z M99,28h1v1h-1z M100,28h1v1h-1z M101,28h1v1h-1z M102,28h1v1h-1z M103,28h1v1h-1z M104,28h1v1h-1z M108,28h1v1h-1z M7,29h1v1h-1z M8,29h1v1h-1z M12,29h1v1h-1z M13,29h1v1h-1z M14,29h1v1h-1z M15,29h1v1h-1z M16,29h1v1h-1z M17,29h1v1h-1z M18,29h1v1h-1z M19,29h1v1h-1z M22,29h1v1h-1z M23,29h1v1h-1z M24,29h1v1h-1z M26,29h1v1h-1z M27,29h1v1h-1z M28,29h1v1h-1z M32,29h1v1h-1z M33,29h1v1h-1z M37,29h1v1h-1z M39,29h1v1h-1z M40,29h1v1h-1z M42,29h1v1h-1z M44,29h1v1h-1z M47,29h1v1h-1z M48,29h1v1h-1z M49,29h1v1h-1z M50,29h1v1h-1z M52,29h1v1h-1z M56,29h1v1h-1z M57,29h1v1h-1z M58,29h1v1h-1z M59,29h1v1h-1z M60,29h1v1h-1z M61,29h1v1h-1z M62,29h1v1h-1z M66,29h1v1h-1z M69,29h1v1h-1z M70,29h1v1h-1z M73,29h1v1h-1z M74,29h1v1h-1z M75,29h1v1h-1z M76,29h1v1h-1z M80,29h1v1h-1z M83,29h1v1h-1z M84,29h1v1h-1z M86,29h1v1h-1z M87,29h1v1h-1z M88,29h1v1h-1z M90,29h1v1h-1z M91,29h1v1h-1z M93,29h1v1h-1z M95,29h1v1h-1z M97,29h1v1h-1z M98,29h1v1h-1z M100,29h1v1h-1z M104,29h1v1h-1z M105,29h1v1h-1z M106,29h1v1h-1z M108,29h1v1h-1z M4,30h1v1h-1z M8,30h1v1h-1z M10,30h1v1h-1z M12,30h1v1h-1z M15,30h1v1h-1z M16,30h1v1h-1z M18,30h1v1h-1z M19,30h1v1h-1z M21,30h1v1h-1z M22,30h1v1h-1z M27,30h1v1h-1z M28,30h1v1h-1z M30,30h1v1h-1z M32,30h1v1h-1z M33,30h1v1h-1z M34,30h1v1h-1z M37,30h1v1h-1z M39,30h1v1h-1z M41,30h1v1h-1z M43,30h1v1h-1z M44,30h1v1h-1z M45,30h1v1h-1z M46,30h1v1h-1z M47,30h1v1h-1z M51,30h1v1h-1z M52,30h1v1h-1z M54,30h1v1h-1z M56,30h1v1h-1z M57,30h1v1h-1z M58,30h1v1h-1z M59,30h1v1h-1z M65,30h1v1h-1z M68,30h1v1h-1z M69,30h1v1h-1z M70,30h1v1h-1z M71,30h1v1h-1z M75,30h1v1h-1z M76,30h1v1h-1z M78,30h1v1h-1z M80,30h1v1h-1z M81,30h1v1h-1z M82,30h1v1h-1z M84,30h1v1h-1z M87,30h1v1h-1z M89,30h1v1h-1z M91,30h1v1h-1z M92,30h1v1h-1z M93,30h1v1h-1z M94,30h1v1h-1z M95,30h1v1h-1z M96,30h1v1h-1z M99,30h1v1h-1z M100,30h1v1h-1z M102,30h1v1h-1z M104,30h1v1h-1z M107,30h1v1h-1z M6,31h1v1h-1z M7,31h1v1h-1z M8,31h1v1h-1z M12,31h1v1h-1z M13,31h1v1h-1z M16,31h1v1h-1z M18,31h1v1h-1z M19,31h1v1h-1z M21,31h1v1h-1z M24,31h1v1h-1z M25,31h1v1h-1z M26,31h1v1h-1z M28,31h1v1h-1z M32,31h1v1h-1z M33,31h1v1h-1z M35,31h1v1h-1z M38,31h1v1h-1z M40,31h1v1h-1z M43,31h1v1h-1z M46,31h1v1h-1z M47,31h1v1h-1z M49,31h1v1h-1z M50,31h1v1h-1z M52,31h1v1h-1z M56,31h1v1h-1z M57,31h1v1h-1z M58,31h1v1h-1z M59,31h1v1h-1z M61,31h1v1h-1z M62,31h1v1h-1z M63,31h1v1h-1z M64,31h1v1h-1z M66,31h1v1h-1z M71,31h1v1h-1z M73,31h1v1h-1z M76,31h1v1h-1z M80,31h1v1h-1z M83,31h1v1h-1z M85,31h1v1h-1z M88,31h1v1h-1z M95,31h1v1h-1z M97,31h1v1h-1z M99,31h1v1h-1z M100,31h1v1h-1z M104,31h1v1h-1z M105,31h1v1h-1z M106,31h1v1h-1z M4,32h1v1h-1z M5,32h1v1h-1z M6,32h1v1h-1z M7,32h1v1h-1z M8,32h1v1h-1z M9,32h1v1h-1z M10,32h1v1h-1z M11,32h1v1h-1z M12,32h1v1h-1z M18,32h1v1h-1z M19,32h1v1h-1z M21,32h1v1h-1z M23,32h1v1h-1z M24,32h1v1h-1z M26,32h1v1h-1z M28,32h1v1h-1z M29,32h1v1h-1z M30,32h1v1h-1z M31,32h1v1h-1z M32,32h1v1h-1z M33,32h1v1h-1z M34,32h1v1h-1z M39,32h1v1h-1z M40,32h1v1h-1z M42,32h1v1h-1z M46,32h1v1h-1z M47,32h1v1h-1z M48,32h1v1h-1z M51,32h1v1h-1z M52,32h1v1h-1z M53,32h1v1h-1z M54,32h1v1h-1z M55,32h1v1h-1z M56,32h1v1h-1z M57,32h1v1h-1z M58,32h1v1h-1z M61,32h1v1h-1z M63,32h1v1h-1z M64,32h1v1h-1z M68,32h1v1h-1z M71,32h1v1h-1z M72,32h1v1h-1z M73,32h1v1h-1z M74,32h1v1h-1z M76,32h1v1h-1z M77,32h1v1h-1z M78,32h1v1h-1z M79,32h1v1h-1z M80,32h1v1h-1z M82,32h1v1h-1z M83,32h1v1h-1z M85,32h1v1h-1z M86,32h1v1h-1z M87,32h1v1h-1z M88,32h1v1h-1z M89,32h1v1h-1z M94,32h1v1h-1z M97,32h1v1h-1z M100,32h1v1h-1z M101,32h1v1h-1z M102,32h1v1h-1z M103,32h1v1h-1z M104,32h1v1h-1z M106,32h1v1h-1z M4,33h1v1h-1z M11,33h1v1h-1z M12,33h1v1h-1z M15,33h1v1h-1z M16,33h1v1h-1z M19,33h1v1h-1z M21,33h1v1h-1z M22,33h1v1h-1z M23,33h1v1h-1z M25,33h1v1h-1z M26,33h1v1h-1z M27,33h1v1h-1z M30,33h1v1h-1z M33,33h1v1h-1z M34,33h1v1h-1z M36,33h1v1h-1z M39,33h1v1h-1z M40,33h1v1h-1z M41,33h1v1h-1z M42,33h1v1h-1z M46,33h1v1h-1z M49,33h1v1h-1z M50,33h1v1h-1z M51,33h1v1h-1z M55,33h1v1h-1z M56,33h1v1h-1z M60,33h1v1h-1z M61,33h1v1h-1z M62,33h1v1h-1z M64,33h1v1h-1z M70,33h1v1h-1z M71,33h1v1h-1z M72,33h1v1h-1z M75,33h1v1h-1z M79,33h1v1h-1z M80,33h1v1h-1z M84,33h1v1h-1z M87,33h1v1h-1z M90,33h1v1h-1z M97,33h1v1h-1z M98,33h1v1h-1z M100,33h1v1h-1z M103,33h1v1h-1z M106,33h1v1h-1z M107,33h1v1h-1z M4,34h1v1h-1z M5,34h1v1h-1z M10,34h1v1h-1z M12,34h1v1h-1z M13,34h1v1h-1z M14,34h1v1h-1z M15,34h1v1h-1z M18,34h1v1h-1z M19,34h1v1h-1z M20,34h1v1h-1z M21,34h1v1h-1z M22,34h1v1h-1z M23,34h1v1h-1z M26,34h1v1h-1z M27,34h1v1h-1z M29,34h1v1h-1z M30,34h1v1h-1z M33,34h1v1h-1z M34,34h1v1h-1z M40,34h1v1h-1z M41,34h1v1h-1z M44,34h1v1h-1z M46,34h1v1h-1z M47,34h1v1h-1z M53,34h1v1h-1z M54,34h1v1h-1z M55,34h1v1h-1z M57,34h1v1h-1z M58,34h1v1h-1z M59,34h1v1h-1z M60,34h1v1h-1z M61,34h1v1h-1z M63,34h1v1h-1z M65,34h1v1h-1z M67,34h1v1h-1z M68,34h1v1h-1z M69,34h1v1h-1z M70,34h1v1h-1z M71,34h1v1h-1z M73,34h1v1h-1z M77,34h1v1h-1z M81,34h1v1h-1z M82,34h1v1h-1z M84,34h1v1h-1z M87,34h1v1h-1z M88,34h1v1h-1z M89,34h1v1h-1z M91,34h1v1h-1z M92,34h1v1h-1z M93,34h1v1h-1z M94,34h1v1h-1z M96,34h1v1h-1z M101,34h1v1h-1z M103,34h1v1h-1z M104,34h1v1h-1z M107,34h1v1h-1z M4,35h1v1h-1z M11,35h1v1h-1z M14,35h1v1h-1z M16,35h1v1h-1z M17,35h1v1h-1z M18,35h1v1h-1z M23,35h1v1h-1z M25,35h1v1h-1z M27,35h1v1h-1z M28,35h1v1h-1z M29,35h1v1h-1z M31,35h1v1h-1z M34,35h1v1h-1z M35,35h1v1h-1z M37,35h1v1h-1z M39,35h1v1h-1z M40,35h1v1h-1z M45,35h1v1h-1z M47,35h1v1h-1z M50,35h1v1h-1z M51,35h1v1h-1z M53,35h1v1h-1z M56,35h1v1h-1z M57,35h1v1h-1z M58,35h1v1h-1z M59,35h1v1h-1z M62,35h1v1h-1z M64,35h1v1h-1z M65,35h1v1h-1z M66,35h1v1h-1z M70,35h1v1h-1z M71,35h1v1h-1z M74,35h1v1h-1z M75,35h1v1h-1z M76,35h1v1h-1z M77,35h1v1h-1z M79,35h1v1h-1z M80,35h1v1h-1z M82,35h1v1h-1z M83,35h1v1h-1z M85,35h1v1h-1z M86,35h1v1h-1z M87,35h1v1h-1z M88,35h1v1h-1z M90,35h1v1h-1z M94,35h1v1h-1z M95,35h1v1h-1z M98,35h1v1h-1z M102,35h1v1h-1z M106,35h1v1h-1z M108,35h1v1h-1z M10,36h1v1h-1z M11,36h1v1h-1z M14,36h1v1h-1z M16,36h1v1h-1z M17,36h1v1h-1z M18,36h1v1h-1z M19,36h1v1h-1z M23,36h1v1h-1z M26,36h1v1h-1z M33,36h1v1h-1z M37,36h1v1h-1z M38,36h1v1h-1z M39,36h1v1h-1z M40,36h1v1h-1z M41,36h1v1h-1z M42,36h1v1h-1z M44,36h1v1h-1z M47,36h1v1h-1z M50,36h1v1h-1z M58,36h1v1h-1z M59,36h1v1h-1z M60,36h1v1h-1z M61,36h1v1h-1z M62,36h1v1h-1z M64,36h1v1h-1z M65,36h1v1h-1z M67,36h1v1h-1z M68,36h1v1h-1z M71,36h1v1h-1z M72,36h1v1h-1z M77,36h1v1h-1z M78,36h1v1h-1z M81,36h1v1h-1z M82,36h1v1h-1z M85,36h1v1h-1z M86,36h1v1h-1z M87,36h1v1h-1z M88,36h1v1h-1z M90,36h1v1h-1z M91,36h1v1h-1z M92,36h1v1h-1z M94,36h1v1h-1z M95,36h1v1h-1z M100,36h1v1h-1z M101,36h1v1h-1z M104,36h1v1h-1z M105,36h1v1h-1z M108,36h1v1h-1z M5,37h1v1h-1z M6,37h1v1h-1z M8,37h1v1h-1z M9,37h1v1h-1z M12,37h1v1h-1z M14,37h1v1h-1z M15,37h1v1h-1z M16,37h1v1h-1z M17,37h1v1h-1z M21,37h1v1h-1z M24,37h1v1h-1z M26,37h1v1h-1z M27,37h1v1h-1z M30,37h1v1h-1z M31,37h1v1h-1z M32,37h1v1h-1z M33,37h1v1h-1z M35,37h1v1h-1z M40,37h1v1h-1z M43,37h1v1h-1z M45,37h1v1h-1z M46,37h1v1h-1z M49,37h1v1h-1z M50,37h1v1h-1z M51,37h1v1h-1z M52,37h1v1h-1z M53,37h1v1h-1z M55,37h1v1h-1z M57,37h1v1h-1z M58,37h1v1h-1z M61,37h1v1h-1z M62,37h1v1h-1z M63,37h1v1h-1z M64,37h1v1h-1z M68,37h1v1h-1z M75,37h1v1h-1z M80,37h1v1h-1z M81,37h1v1h-1z M82,37h1v1h-1z M83,37h1v1h-1z M84,37h1v1h-1z M87,37h1v1h-1z M88,37h1v1h-1z M91,37h1v1h-1z M92,37h1v1h-1z M98,37h1v1h-1z M106,37h1v1h-1z M108,37h1v1h-1z M5,38h1v1h-1z M6,38h1v1h-1z M8,38h1v1h-1z M9,38h1v1h-1z M10,38h1v1h-1z M13,38h1v1h-1z M14,38h1v1h-1z M16,38h1v1h-1z M17,38h1v1h-1z M22,38h1v1h-1z M23,38h1v1h-1z M24,38h1v1h-1z M25,38h1v1h-1z M28,38h1v1h-1z M30,38h1v1h-1z M31,38h1v1h-1z M33,38h1v1h-1z M34,38h1v1h-1z M36,38h1v1h-1z M41,38h1v1h-1z M43,38h1v1h-1z M44,38h1v1h-1z M45,38h1v1h-1z M46,38h1v1h-1z M47,38h1v1h-1z M51,38h1v1h-1z M52,38h1v1h-1z M55,38h1v1h-1z M57,38h1v1h-1z M58,38h1v1h-1z M59,38h1v1h-1z M60,38h1v1h-1z M63,38h1v1h-1z M65,38h1v1h-1z M67,38h1v1h-1z M69,38h1v1h-1z M70,38h1v1h-1z M76,38h1v1h-1z M77,38h1v1h-1z M79,38h1v1h-1z M82,38h1v1h-1z M84,38h1v1h-1z M88,38h1v1h-1z M89,38h1v1h-1z M93,38h1v1h-1z M94,38h1v1h-1z M96,38h1v1h-1z M101,38h1v1h-1z M104,38h1v1h-1z M106,38h1v1h-1z M107,38h1v1h-1z M5,39h1v1h-1z M6,39h1v1h-1z M7,39h1v1h-1z M12,39h1v1h-1z M13,39h1v1h-1z M18,39h1v1h-1z M19,39h1v1h-1z M20,39h1v1h-1z M24,39h1v1h-1z M25,39h1v1h-1z M29,39h1v1h-1z M31,39h1v1h-1z M35,39h1v1h-1z M37,39h1v1h-1z M38,39h1v1h-1z M39,39h1v1h-1z M40,39h1v1h-1z M42,39h1v1h-1z M47,39h1v1h-1z M50,39h1v1h-1z M53,39h1v1h-1z M56,39h1v1h-1z M58,39h1v1h-1z M59,39h1v1h-1z M63,39h1v1h-1z M64,39h1v1h-1z M65,39h1v1h-1z M71,39h1v1h-1z M73,39h1v1h-1z M74,39h1v1h-1z M75,39h1v1h-1z M76,39h1v1h-1z M77,39h1v1h-1z M81,39h1v1h-1z M83,39h1v1h-1z M87,39h1v1h-1z M88,39h1v1h-1z M90,39h1v1h-1z M95,39h1v1h-1z M97,39h1v1h-1z M102,39h1v1h-1z M105,39h1v1h-1z M106,39h1v1h-1z M5,40h1v1h-1z M8,40h1v1h-1z M10,40h1v1h-1z M11,40h1v1h-1z M13,40h1v1h-1z M16,40h1v1h-1z M17,40h1v1h-1z M19,40h1v1h-1z M30,40h1v1h-1z M33,40h1v1h-1z M34,40h1v1h-1z M36,40h1v1h-1z M39,40h1v1h-1z M40,40h1v1h-1z M42,40h1v1h-1z M45,40h1v1h-1z M46,40h1v1h-1z M54,40h1v1h-1z M55,40h1v1h-1z M57,40h1v1h-1z M58,40h1v1h-1z M63,40h1v1h-1z M64,40h1v1h-1z M67,40h1v1h-1z M70,40h1v1h-1z M76,40h1v1h-1z M78,40h1v1h-1z M81,40h1v1h-1z M82,40h1v1h-1z M84,40h1v1h-1z M85,40h1v1h-1z M86,40h1v1h-1z M87,40h1v1h-1z M91,40h1v1h-1z M94,40h1v1h-1z M96,40h1v1h-1z M97,40h1v1h-1z M99,40h1v1h-1z M100,40h1v1h-1z M101,40h1v1h-1z M104,40h1v1h-1z M106,40h1v1h-1z M6,41h1v1h-1z M7,41h1v1h-1z M8,41h1v1h-1z M11,41h1v1h-1z M12,41h1v1h-1z M13,41h1v1h-1z M15,41h1v1h-1z M16,41h1v1h-1z M17,41h1v1h-1z M18,41h1v1h-1z M19,41h1v1h-1z M21,41h1v1h-1z M23,41h1v1h-1z M24,41h1v1h-1z M25,41h1v1h-1z M27,41h1v1h-1z M28,41h1v1h-1z M29,41h1v1h-1z M30,41h1v1h-1z M33,41h1v1h-1z M34,41h1v1h-1z M35,41h1v1h-1z M37,41h1v1h-1z M38,41h1v1h-1z M44,41h1v1h-1z M46,41h1v1h-1z M48,41h1v1h-1z M50,41h1v1h-1z M51,41h1v1h-1z M54,41h1v1h-1z M55,41h1v1h-1z M56,41h1v1h-1z M58,41h1v1h-1z M59,41h1v1h-1z M61,41h1v1h-1z M62,41h1v1h-1z M69,41h1v1h-1z M71,41h1v1h-1z M73,41h1v1h-1z M74,41h1v1h-1z M75,41h1v1h-1z M83,41h1v1h-1z M85,41h1v1h-1z M87,41h1v1h-1z M88,41h1v1h-1z M90,41h1v1h-1z M91,41h1v1h-1z M92,41h1v1h-1z M93,41h1v1h-1z M94,41h1v1h-1z M95,41h1v1h-1z M97,41h1v1h-1z M100,41h1v1h-1z M101,41h1v1h-1z M102,41h1v1h-1z M104,41h1v1h-1z M106,41h1v1h-1z M107,41h1v1h-1z M108,41h1v1h-1z M4,42h1v1h-1z M6,42h1v1h-1z M8,42h1v1h-1z M9,42h1v1h-1z M10,42h1v1h-1z M11,42h1v1h-1z M13,42h1v1h-1z M15,42h1v1h-1z M18,42h1v1h-1z M19,42h1v1h-1z M21,42h1v1h-1z M22,42h1v1h-1z M26,42h1v1h-1z M28,42h1v1h-1z M30,42h1v1h-1z M31,42h1v1h-1z M33,42h1v1h-1z M34,42h1v1h-1z M36,42h1v1h-1z M40,42h1v1h-1z M41,42h1v1h-1z M44,42h1v1h-1z M46,42h1v1h-1z M49,42h1v1h-1z M51,42h1v1h-1z M52,42h1v1h-1z M53,42h1v1h-1z M57,42h1v1h-1z M58,42h1v1h-1z M61,42h1v1h-1z M63,42h1v1h-1z M65,42h1v1h-1z M68,42h1v1h-1z M69,42h1v1h-1z M70,42h1v1h-1z M72,42h1v1h-1z M75,42h1v1h-1z M76,42h1v1h-1z M77,42h1v1h-1z M78,42h1v1h-1z M81,42h1v1h-1z M82,42h1v1h-1z M88,42h1v1h-1z M89,42h1v1h-1z M92,42h1v1h-1z M93,42h1v1h-1z M94,42h1v1h-1z M95,42h1v1h-1z M96,42h1v1h-1z M99,42h1v1h-1z M100,42h1v1h-1z M101,42h1v1h-1z M102,42h1v1h-1z M105,42h1v1h-1z M107,42h1v1h-1z M5,43h1v1h-1z M9,43h1v1h-1z M16,43h1v1h-1z M17,43h1v1h-1z M18,43h1v1h-1z M20,43h1v1h-1z M24,43h1v1h-1z M25,43h1v1h-1z M26,43h1v1h-1z M29,43h1v1h-1z M31,43h1v1h-1z M33,43h1v1h-1z M35,43h1v1h-1z M37,43h1v1h-1z M38,43h1v1h-1z M39,43h1v1h-1z M40,43h1v1h-1z M41,43h1v1h-1z M42,43h1v1h-1z M47,43h1v1h-1z M49,43h1v1h-1z M50,43h1v1h-1z M51,43h1v1h-1z M53,43h1v1h-1z M55,43h1v1h-1z M59,43h1v1h-1z M62,43h1v1h-1z M64,43h1v1h-1z M66,43h1v1h-1z M69,43h1v1h-1z M70,43h1v1h-1z M71,43h1v1h-1z M75,43h1v1h-1z M76,43h1v1h-1z M79,43h1v1h-1z M83,43h1v1h-1z M87,43h1v1h-1z M88,43h1v1h-1z M93,43h1v1h-1z M95,43h1v1h-1z M100,43h1v1h-1z M101,43h1v1h-1z M102,43h1v1h-1z M105,43h1v1h-1z M106,43h1v1h-1z M107,43h1v1h-1z M108,43h1v1h-1z M5,44h1v1h-1z M6,44h1v1h-1z M8,44h1v1h-1z M9,44h1v1h-1z M10,44h1v1h-1z M11,44h1v1h-1z M13,44h1v1h-1z M18,44h1v1h-1z M21,44h1v1h-1z M22,44h1v1h-1z M27,44h1v1h-1z M28,44h1v1h-1z M30,44h1v1h-1z M33,44h1v1h-1z M34,44h1v1h-1z M35,44h1v1h-1z M41,44h1v1h-1z M46,44h1v1h-1z M48,44h1v1h-1z M49,44h1v1h-1z M61,44h1v1h-1z M64,44h1v1h-1z M66,44h1v1h-1z M68,44h1v1h-1z M69,44h1v1h-1z M70,44h1v1h-1z M72,44h1v1h-1z M77,44h1v1h-1z M78,44h1v1h-1z M81,44h1v1h-1z M82,44h1v1h-1z M83,44h1v1h-1z M84,44h1v1h-1z M87,44h1v1h-1z M88,44h1v1h-1z M90,44h1v1h-1z M91,44h1v1h-1z M92,44h1v1h-1z M94,44h1v1h-1z M99,44h1v1h-1z M101,44h1v1h-1z M104,44h1v1h-1z M105,44h1v1h-1z M5,45h1v1h-1z M9,45h1v1h-1z M11,45h1v1h-1z M12,45h1v1h-1z M13,45h1v1h-1z M14,45h1v1h-1z M15,45h1v1h-1z M20,45h1v1h-1z M21,45h1v1h-1z M22,45h1v1h-1z M24,45h1v1h-1z M27,45h1v1h-1z M30,45h1v1h-1z M32,45h1v1h-1z M33,45h1v1h-1z M34,45h1v1h-1z M39,45h1v1h-1z M40,45h1v1h-1z M43,45h1v1h-1z M44,45h1v1h-1z M49,45h1v1h-1z M52,45h1v1h-1z M53,45h1v1h-1z M54,45h1v1h-1z M56,45h1v1h-1z M57,45h1v1h-1z M58,45h1v1h-1z M59,45h1v1h-1z M63,45h1v1h-1z M64,45h1v1h-1z M65,45h1v1h-1z M69,45h1v1h-1z M70,45h1v1h-1z M73,45h1v1h-1z M74,45h1v1h-1z M75,45h1v1h-1z M76,45h1v1h-1z M80,45h1v1h-1z M81,45h1v1h-1z M82,45h1v1h-1z M88,45h1v1h-1z M89,45h1v1h-1z M91,45h1v1h-1z M95,45h1v1h-1z M97,45h1v1h-1z M98,45h1v1h-1z M102,45h1v1h-1z M108,45h1v1h-1z M4,46h1v1h-1z M5,46h1v1h-1z M6,46h1v1h-1z M8,46h1v1h-1z M10,46h1v1h-1z M13,46h1v1h-1z M14,46h1v1h-1z M16,46h1v1h-1z M19,46h1v1h-1z M20,46h1v1h-1z M25,46h1v1h-1z M26,46h1v1h-1z M27,46h1v1h-1z M28,46h1v1h-1z M31,46h1v1h-1z M33,46h1v1h-1z M34,46h1v1h-1z M35,46h1v1h-1z M39,46h1v1h-1z M40,46h1v1h-1z M41,46h1v1h-1z M44,46h1v1h-1z M45,46h1v1h-1z M46,46h1v1h-1z M53,46h1v1h-1z M54,46h1v1h-1z M57,46h1v1h-1z M58,46h1v1h-1z M60,46h1v1h-1z M65,46h1v1h-1z M68,46h1v1h-1z M69,46h1v1h-1z M70,46h1v1h-1z M71,46h1v1h-1z M72,46h1v1h-1z M73,46h1v1h-1z M75,46h1v1h-1z M77,46h1v1h-1z M78,46h1v1h-1z M82,46h1v1h-1z M83,46h1v1h-1z M84,46h1v1h-1z M87,46h1v1h-1z M89,46h1v1h-1z M92,46h1v1h-1z M93,46h1v1h-1z M94,46h1v1h-1z M96,46h1v1h-1z M99,46h1v1h-1z M102,46h1v1h-1z M103,46h1v1h-1z M106,46h1v1h-1z M107,46h1v1h-1z M5,47h1v1h-1z M6,47h1v1h-1z M7,47h1v1h-1z M8,47h1v1h-1z M11,47h1v1h-1z M12,47h1v1h-1z M13,47h1v1h-1z M18,47h1v1h-1z M19,47h1v1h-1z M20,47h1v1h-1z M23,47h1v1h-1z M24,47h1v1h-1z M25,47h1v1h-1z M26,47h1v1h-1z M27,47h1v1h-1z M29,47h1v1h-1z M31,47h1v1h-1z M32,47h1v1h-1z M35,47h1v1h-1z M37,47h1v1h-1z M39,47h1v1h-1z M40,47h1v1h-1z M41,47h1v1h-1z M42,47h1v1h-1z M45,47h1v1h-1z M47,47h1v1h-1z M49,47h1v1h-1z M57,47h1v1h-1z M59,47h1v1h-1z M62,47h1v1h-1z M63,47h1v1h-1z M64,47h1v1h-1z M66,47h1v1h-1z M71,47h1v1h-1z M74,47h1v1h-1z M77,47h1v1h-1z M79,47h1v1h-1z M81,47h1v1h-1z M83,47h1v1h-1z M85,47h1v1h-1z M86,47h1v1h-1z M88,47h1v1h-1z M90,47h1v1h-1z M91,47h1v1h-1z M94,47h1v1h-1z M95,47h1v1h-1z M98,47h1v1h-1z M102,47h1v1h-1z M105,47h1v1h-1z M106,47h1v1h-1z M107,47h1v1h-1z M4,48h1v1h-1z M5,48h1v1h-1z M8,48h1v1h-1z M10,48h1v1h-1z M12,48h1v1h-1z M15,48h1v1h-1z M18,48h1v1h-1z M20,48h1v1h-1z M21,48h1v1h-1z M22,48h1v1h-1z M23,48h1v1h-1z M24,48h1v1h-1z M26,48h1v1h-1z M28,48h1v1h-1z M30,48h1v1h-1z M33,48h1v1h-1z M34,48h1v1h-1z M35,48h1v1h-1z M37,48h1v1h-1z M40,48h1v1h-1z M41,48h1v1h-1z M43,48h1v1h-1z M45,48h1v1h-1z M46,48h1v1h-1z M48,48h1v1h-1z M49,48h1v1h-1z M52,48h1v1h-1z M53,48h1v1h-1z M54,48h1v1h-1z M58,48h1v1h-1z M59,48h1v1h-1z M60,48h1v1h-1z M63,48h1v1h-1z M64,48h1v1h-1z M66,48h1v1h-1z M67,48h1v1h-1z M69,48h1v1h-1z M72,48h1v1h-1z M76,48h1v1h-1z M83,48h1v1h-1z M89,48h1v1h-1z M90,48h1v1h-1z M92,48h1v1h-1z M95,48h1v1h-1z M99,48h1v1h-1z M103,48h1v1h-1z M4,49h1v1h-1z M6,49h1v1h-1z M7,49h1v1h-1z M8,49h1v1h-1z M9,49h1v1h-1z M11,49h1v1h-1z M16,49h1v1h-1z M17,49h1v1h-1z M18,49h1v1h-1z M19,49h1v1h-1z M23,49h1v1h-1z M24,49h1v1h-1z M28,49h1v1h-1z M32,49h1v1h-1z M33,49h1v1h-1z M36,49h1v1h-1z M37,49h1v1h-1z M41,49h1v1h-1z M42,49h1v1h-1z M43,49h1v1h-1z M44,49h1v1h-1z M48,49h1v1h-1z M49,49h1v1h-1z M50,49h1v1h-1z M52,49h1v1h-1z M54,49h1v1h-1z M56,49h1v1h-1z M61,49h1v1h-1z M65,49h1v1h-1z M66,49h1v1h-1z M68,49h1v1h-1z M69,49h1v1h-1z M70,49h1v1h-1z M71,49h1v1h-1z M73,49h1v1h-1z M74,49h1v1h-1z M75,49h1v1h-1z M76,49h1v1h-1z M78,49h1v1h-1z M80,49h1v1h-1z M81,49h1v1h-1z M83,49h1v1h-1z M86,49h1v1h-1z M87,49h1v1h-1z M89,49h1v1h-1z M90,49h1v1h-1z M92,49h1v1h-1z M94,49h1v1h-1z M95,49h1v1h-1z M96,49h1v1h-1z M100,49h1v1h-1z M101,49h1v1h-1z M102,49h1v1h-1z M103,49h1v1h-1z M7,50h1v1h-1z M10,50h1v1h-1z M11,50h1v1h-1z M12,50h1v1h-1z M13,50h1v1h-1z M15,50h1v1h-1z M16,50h1v1h-1z M17,50h1v1h-1z M19,50h1v1h-1z M22,50h1v1h-1z M25,50h1v1h-1z M27,50h1v1h-1z M28,50h1v1h-1z M29,50h1v1h-1z M30,50h1v1h-1z M33,50h1v1h-1z M34,50h1v1h-1z M35,50h1v1h-1z M36,50h1v1h-1z M39,50h1v1h-1z M43,50h1v1h-1z M45,50h1v1h-1z M46,50h1v1h-1z M48,50h1v1h-1z M49,50h1v1h-1z M51,50h1v1h-1z M53,50h1v1h-1z M54,50h1v1h-1z M55,50h1v1h-1z M56,50h1v1h-1z M57,50h1v1h-1z M58,50h1v1h-1z M60,50h1v1h-1z M63,50h1v1h-1z M65,50h1v1h-1z M69,50h1v1h-1z M70,50h1v1h-1z M72,50h1v1h-1z M73,50h1v1h-1z M76,50h1v1h-1z M77,50h1v1h-1z M79,50h1v1h-1z M81,50h1v1h-1z M82,50h1v1h-1z M83,50h1v1h-1z M84,50h1v1h-1z M89,50h1v1h-1z M92,50h1v1h-1z M94,50h1v1h-1z M104,50h1v1h-1z M105,50h1v1h-1z M106,50h1v1h-1z M107,50h1v1h-1z M11,51h1v1h-1z M14,51h1v1h-1z M20,51h1v1h-1z M22,51h1v1h-1z M26,51h1v1h-1z M27,51h1v1h-1z M29,51h1v1h-1z M31,51h1v1h-1z M32,51h1v1h-1z M34,51h1v1h-1z M35,51h1v1h-1z M37,51h1v1h-1z M38,51h1v1h-1z M39,51h1v1h-1z M40,51h1v1h-1z M41,51h1v1h-1z M42,51h1v1h-1z M47,51h1v1h-1z M50,51h1v1h-1z M51,51h1v1h-1z M53,51h1v1h-1z M56,51h1v1h-1z M57,51h1v1h-1z M58,51h1v1h-1z M59,51h1v1h-1z M62,51h1v1h-1z M63,51h1v1h-1z M64,51h1v1h-1z M69,51h1v1h-1z M70,51h1v1h-1z M71,51h1v1h-1z M74,51h1v1h-1z M75,51h1v1h-1z M77,51h1v1h-1z M79,51h1v1h-1z M81,51h1v1h-1z M83,51h1v1h-1z M88,51h1v1h-1z M89,51h1v1h-1z M93,51h1v1h-1z M95,51h1v1h-1z M97,51h1v1h-1z M100,51h1v1h-1z M102,51h1v1h-1z M103,51h1v1h-1z M105,51h1v1h-1z M106,51h1v1h-1z M5,52h1v1h-1z M6,52h1v1h-1z M7,52h1v1h-1z M8,52h1v1h-1z M9,52h1v1h-1z M10,52h1v1h-1z M11,52h1v1h-1z M12,52h1v1h-1z M15,52h1v1h-1z M16,52h1v1h-1z M18,52h1v1h-1z M19,52h1v1h-1z M20,52h1v1h-1z M21,52h1v1h-1z M26,52h1v1h-1z M28,52h1v1h-1z M29,52h1v1h-1z M30,52h1v1h-1z M31,52h1v1h-1z M32,52h1v1h-1z M37,52h1v1h-1z M38,52h1v1h-1z M39,52h1v1h-1z M41,52h1v1h-1z M43,52h1v1h-1z M44,52h1v1h-1z M46,52h1v1h-1z M48,52h1v1h-1z M49,52h1v1h-1z M50,52h1v1h-1z M52,52h1v1h-1z M53,52h1v1h-1z M54,52h1v1h-1z M55,52h1v1h-1z M56,52h1v1h-1z M61,52h1v1h-1z M64,52h1v1h-1z M65,52h1v1h-1z M66,52h1v1h-1z M68,52h1v1h-1z M72,52h1v1h-1z M73,52h1v1h-1z M76,52h1v1h-1z M77,52h1v1h-1z M78,52h1v1h-1z M79,52h1v1h-1z M80,52h1v1h-1z M83,52h1v1h-1z M85,52h1v1h-1z M87,52h1v1h-1z M88,52h1v1h-1z M89,52h1v1h-1z M92,52h1v1h-1z M94,52h1v1h-1z M95,52h1v1h-1z M96,52h1v1h-1z M97,52h1v1h-1z M100,52h1v1h-1z M101,52h1v1h-1z M102,52h1v1h-1z M103,52h1v1h-1z M104,52h1v1h-1z M4,53h1v1h-1z M5,53h1v1h-1z M6,53h1v1h-1z M7,53h1v1h-1z M8,53h1v1h-1z M12,53h1v1h-1z M14,53h1v1h-1z M15,53h1v1h-1z M16,53h1v1h-1z M17,53h1v1h-1z M24,53h1v1h-1z M25,53h1v1h-1z M28,53h1v1h-1z M32,53h1v1h-1z M36,53h1v1h-1z M37,53h1v1h-1z M38,53h1v1h-1z M40,53h1v1h-1z M42,53h1v1h-1z M43,53h1v1h-1z M44,53h1v1h-1z M45,53h1v1h-1z M46,53h1v1h-1z M48,53h1v1h-1z M50,53h1v1h-1z M51,53h1v1h-1z M52,53h1v1h-1z M56,53h1v1h-1z M57,53h1v1h-1z M60,53h1v1h-1z M61,53h1v1h-1z M66,53h1v1h-1z M70,53h1v1h-1z M74,53h1v1h-1z M76,53h1v1h-1z M80,53h1v1h-1z M81,53h1v1h-1z M83,53h1v1h-1z M84,53h1v1h-1z M85,53h1v1h-1z M87,53h1v1h-1z M88,53h1v1h-1z M89,53h1v1h-1z M90,53h1v1h-1z M91,53h1v1h-1z M92,53h1v1h-1z M96,53h1v1h-1z M100,53h1v1h-1z M104,53h1v1h-1z M105,53h1v1h-1z M106,53h1v1h-1z M107,53h1v1h-1z M108,53h1v1h-1z M4,54h1v1h-1z M8,54h1v1h-1z M10,54h1v1h-1z M12,54h1v1h-1z M13,54h1v1h-1z M14,54h1v1h-1z M15,54h1v1h-1z M16,54h1v1h-1z M17,54h1v1h-1z M18,54h1v1h-1z M19,54h1v1h-1z M20,54h1v1h-1z M21,54h1v1h-1z M23,54h1v1h-1z M26,54h1v1h-1z M28,54h1v1h-1z M30,54h1v1h-1z M32,54h1v1h-1z M33,54h1v1h-1z M34,54h1v1h-1z M39,54h1v1h-1z M41,54h1v1h-1z M44,54h1v1h-1z M45,54h1v1h-1z M46,54h1v1h-1z M47,54h1v1h-1z M51,54h1v1h-1z M52,54h1v1h-1z M54,54h1v1h-1z M56,54h1v1h-1z M57,54h1v1h-1z M58,54h1v1h-1z M59,54h1v1h-1z M64,54h1v1h-1z M65,54h1v1h-1z M67,54h1v1h-1z M70,54h1v1h-1z M75,54h1v1h-1z M76,54h1v1h-1z M78,54h1v1h-1z M80,54h1v1h-1z M81,54h1v1h-1z M82,54h1v1h-1z M84,54h1v1h-1z M89,54h1v1h-1z M92,54h1v1h-1z M93,54h1v1h-1z M94,54h1v1h-1z M96,54h1v1h-1z M100,54h1v1h-1z M102,54h1v1h-1z M104,54h1v1h-1z M105,54h1v1h-1z M106,54h1v1h-1z M107,54h1v1h-1z M5,55h1v1h-1z M7,55h1v1h-1z M8,55h1v1h-1z M12,55h1v1h-1z M15,55h1v1h-1z M19,55h1v1h-1z M20,55h1v1h-1z M24,55h1v1h-1z M25,55h1v1h-1z M27,55h1v1h-1z M28,55h1v1h-1z M32,55h1v1h-1z M34,55h1v1h-1z M35,55h1v1h-1z M39,55h1v1h-1z M40,55h1v1h-1z M43,55h1v1h-1z M47,55h1v1h-1z M49,55h1v1h-1z M51,55h1v1h-1z M52,55h1v1h-1z M56,55h1v1h-1z M58,55h1v1h-1z M59,55h1v1h-1z M63,55h1v1h-1z M64,55h1v1h-1z M66,55h1v1h-1z M69,55h1v1h-1z M71,55h1v1h-1z M73,55h1v1h-1z M75,55h1v1h-1z M76,55h1v1h-1z M80,55h1v1h-1z M81,55h1v1h-1z M83,55h1v1h-1z M87,55h1v1h-1z M88,55h1v1h-1z M89,55h1v1h-1z M91,55h1v1h-1z M94,55h1v1h-1z M95,55h1v1h-1z M97,55h1v1h-1z M98,55h1v1h-1z M100,55h1v1h-1z M104,55h1v1h-1z M105,55h1v1h-1z M106,55h1v1h-1z M107,55h1v1h-1z M5,56h1v1h-1z M6,56h1v1h-1z M8,56h1v1h-1z M9,56h1v1h-1z M10,56h1v1h-1z M11,56h1v1h-1z M12,56h1v1h-1z M13,56h1v1h-1z M14,56h1v1h-1z M17,56h1v1h-1z M19,56h1v1h-1z M20,56h1v1h-1z M28,56h1v1h-1z M29,56h1v1h-1z M30,56h1v1h-1z M31,56h1v1h-1z M32,56h1v1h-1z M38,56h1v1h-1z M40,56h1v1h-1z M41,56h1v1h-1z M43,56h1v1h-1z M44,56h1v1h-1z M45,56h1v1h-1z M46,56h1v1h-1z M47,56h1v1h-1z M52,56h1v1h-1z M53,56h1v1h-1z M54,56h1v1h-1z M55,56h1v1h-1z M56,56h1v1h-1z M57,56h1v1h-1z M58,56h1v1h-1z M60,56h1v1h-1z M61,56h1v1h-1z M63,56h1v1h-1z M65,56h1v1h-1z M67,56h1v1h-1z M68,56h1v1h-1z M69,56h1v1h-1z M72,56h1v1h-1z M73,56h1v1h-1z M76,56h1v1h-1z M77,56h1v1h-1z M78,56h1v1h-1z M79,56h1v1h-1z M80,56h1v1h-1z M85,56h1v1h-1z M88,56h1v1h-1z M92,56h1v1h-1z M97,56h1v1h-1z M99,56h1v1h-1z M100,56h1v1h-1z M101,56h1v1h-1z M102,56h1v1h-1z M103,56h1v1h-1z M104,56h1v1h-1z M105,56h1v1h-1z M5,57h1v1h-1z M6,57h1v1h-1z M7,57h1v1h-1z M8,57h1v1h-1z M9,57h1v1h-1z M11,57h1v1h-1z M13,57h1v1h-1z M14,57h1v1h-1z M15,57h1v1h-1z M18,57h1v1h-1z M21,57h1v1h-1z M23,57h1v1h-1z M24,57h1v1h-1z M25,57h1v1h-1z M26,57h1v1h-1z M27,57h1v1h-1z M28,57h1v1h-1z M30,57h1v1h-1z M35,57h1v1h-1z M38,57h1v1h-1z M41,57h1v1h-1z M42,57h1v1h-1z M43,57h1v1h-1z M46,57h1v1h-1z M47,57h1v1h-1z M53,57h1v1h-1z M55,57h1v1h-1z M57,57h1v1h-1z M58,57h1v1h-1z M59,57h1v1h-1z M61,57h1v1h-1z M63,57h1v1h-1z M64,57h1v1h-1z M66,57h1v1h-1z M69,57h1v1h-1z M73,57h1v1h-1z M75,57h1v1h-1z M77,57h1v1h-1z M81,57h1v1h-1z M82,57h1v1h-1z M84,57h1v1h-1z M86,57h1v1h-1z M88,57h1v1h-1z M89,57h1v1h-1z M94,57h1v1h-1z M96,57h1v1h-1z M97,57h1v1h-1z M98,57h1v1h-1z M100,57h1v1h-1z M101,57h1v1h-1z M103,57h1v1h-1z M104,57h1v1h-1z M105,57h1v1h-1z M106,57h1v1h-1z M108,57h1v1h-1z M4,58h1v1h-1z M7,58h1v1h-1z M8,58h1v1h-1z M10,58h1v1h-1z M13,58h1v1h-1z M14,58h1v1h-1z M15,58h1v1h-1z M16,58h1v1h-1z M17,58h1v1h-1z M19,58h1v1h-1z M21,58h1v1h-1z M22,58h1v1h-1z M23,58h1v1h-1z M25,58h1v1h-1z M27,58h1v1h-1z M28,58h1v1h-1z M29,58h1v1h-1z M33,58h1v1h-1z M34,58h1v1h-1z M35,58h1v1h-1z M36,58h1v1h-1z M39,58h1v1h-1z M44,58h1v1h-1z M45,58h1v1h-1z M46,58h1v1h-1z M47,58h1v1h-1z M48,58h1v1h-1z M51,58h1v1h-1z M52,58h1v1h-1z M54,58h1v1h-1z M58,58h1v1h-1z M63,58h1v1h-1z M64,58h1v1h-1z M68,58h1v1h-1z M70,58h1v1h-1z M72,58h1v1h-1z M76,58h1v1h-1z M79,58h1v1h-1z M80,58h1v1h-1z M81,58h1v1h-1z M82,58h1v1h-1z M88,58h1v1h-1z M91,58h1v1h-1z M93,58h1v1h-1z M94,58h1v1h-1z M95,58h1v1h-1z M97,58h1v1h-1z M99,58h1v1h-1z M100,58h1v1h-1z M101,58h1v1h-1z M103,58h1v1h-1z M104,58h1v1h-1z M4,59h1v1h-1z M5,59h1v1h-1z M11,59h1v1h-1z M12,59h1v1h-1z M13,59h1v1h-1z M15,59h1v1h-1z M16,59h1v1h-1z M17,59h1v1h-1z M18,59h1v1h-1z M21,59h1v1h-1z M27,59h1v1h-1z M29,59h1v1h-1z M30,59h1v1h-1z M31,59h1v1h-1z M35,59h1v1h-1z M37,59h1v1h-1z M39,59h1v1h-1z M40,59h1v1h-1z M41,59h1v1h-1z M42,59h1v1h-1z M47,59h1v1h-1z M49,59h1v1h-1z M50,59h1v1h-1z M51,59h1v1h-1z M52,59h1v1h-1z M53,59h1v1h-1z M55,59h1v1h-1z M57,59h1v1h-1z M59,59h1v1h-1z M61,59h1v1h-1z M62,59h1v1h-1z M63,59h1v1h-1z M64,59h1v1h-1z M65,59h1v1h-1z M66,59h1v1h-1z M67,59h1v1h-1z M69,59h1v1h-1z M71,59h1v1h-1z M73,59h1v1h-1z M74,59h1v1h-1z M75,59h1v1h-1z M78,59h1v1h-1z M79,59h1v1h-1z M82,59h1v1h-1z M83,59h1v1h-1z M85,59h1v1h-1z M87,59h1v1h-1z M88,59h1v1h-1z M89,59h1v1h-1z M90,59h1v1h-1z M95,59h1v1h-1z M97,59h1v1h-1z M98,59h1v1h-1z M100,59h1v1h-1z M103,59h1v1h-1z M104,59h1v1h-1z M105,59h1v1h-1z M106,59h1v1h-1z M107,59h1v1h-1z M6,60h1v1h-1z M7,60h1v1h-1z M9,60h1v1h-1z M10,60h1v1h-1z M13,60h1v1h-1z M14,60h1v1h-1z M15,60h1v1h-1z M18,60h1v1h-1z M19,60h1v1h-1z M20,60h1v1h-1z M21,60h1v1h-1z M23,60h1v1h-1z M24,60h1v1h-1z M26,60h1v1h-1z M31,60h1v1h-1z M32,60h1v1h-1z M33,60h1v1h-1z M34,60h1v1h-1z M35,60h1v1h-1z M37,60h1v1h-1z M40,60h1v1h-1z M41,60h1v1h-1z M43,60h1v1h-1z M46,60h1v1h-1z M47,60h1v1h-1z M51,60h1v1h-1z M52,60h1v1h-1z M56,60h1v1h-1z M57,60h1v1h-1z M58,60h1v1h-1z M59,60h1v1h-1z M60,60h1v1h-1z M61,60h1v1h-1z M62,60h1v1h-1z M66,60h1v1h-1z M69,60h1v1h-1z M71,60h1v1h-1z M77,60h1v1h-1z M79,60h1v1h-1z M82,60h1v1h-1z M84,60h1v1h-1z M85,60h1v1h-1z M87,60h1v1h-1z M88,60h1v1h-1z M90,60h1v1h-1z M95,60h1v1h-1z M98,60h1v1h-1z M100,60h1v1h-1z M102,60h1v1h-1z M107,60h1v1h-1z M5,61h1v1h-1z M6,61h1v1h-1z M8,61h1v1h-1z M9,61h1v1h-1z M11,61h1v1h-1z M17,61h1v1h-1z M18,61h1v1h-1z M19,61h1v1h-1z M21,61h1v1h-1z M23,61h1v1h-1z M27,61h1v1h-1z M29,61h1v1h-1z M30,61h1v1h-1z M33,61h1v1h-1z M37,61h1v1h-1z M38,61h1v1h-1z M39,61h1v1h-1z M40,61h1v1h-1z M41,61h1v1h-1z M42,61h1v1h-1z M45,61h1v1h-1z M47,61h1v1h-1z M52,61h1v1h-1z M53,61h1v1h-1z M54,61h1v1h-1z M58,61h1v1h-1z M59,61h1v1h-1z M61,61h1v1h-1z M62,61h1v1h-1z M63,61h1v1h-1z M64,61h1v1h-1z M65,61h1v1h-1z M66,61h1v1h-1z M67,61h1v1h-1z M69,61h1v1h-1z M70,61h1v1h-1z M72,61h1v1h-1z M73,61h1v1h-1z M77,61h1v1h-1z M78,61h1v1h-1z M81,61h1v1h-1z M85,61h1v1h-1z M87,61h1v1h-1z M89,61h1v1h-1z M91,61h1v1h-1z M93,61h1v1h-1z M94,61h1v1h-1z M99,61h1v1h-1z M100,61h1v1h-1z M101,61h1v1h-1z M104,61h1v1h-1z M105,61h1v1h-1z M108,61h1v1h-1z M5,62h1v1h-1z M7,62h1v1h-1z M9,62h1v1h-1z M10,62h1v1h-1z M11,62h1v1h-1z M13,62h1v1h-1z M15,62h1v1h-1z M20,62h1v1h-1z M22,62h1v1h-1z M25,62h1v1h-1z M28,62h1v1h-1z M32,62h1v1h-1z M33,62h1v1h-1z M34,62h1v1h-1z M35,62h1v1h-1z M36,62h1v1h-1z M40,62h1v1h-1z M43,62h1v1h-1z M44,62h1v1h-1z M45,62h1v1h-1z M46,62h1v1h-1z M48,62h1v1h-1z M49,62h1v1h-1z M51,62h1v1h-1z M52,62h1v1h-1z M53,62h1v1h-1z M54,62h1v1h-1z M55,62h1v1h-1z M58,62h1v1h-1z M60,62h1v1h-1z M64,62h1v1h-1z M65,62h1v1h-1z M67,62h1v1h-1z M69,62h1v1h-1z M70,62h1v1h-1z M72,62h1v1h-1z M75,62h1v1h-1z M76,62h1v1h-1z M78,62h1v1h-1z M79,62h1v1h-1z M81,62h1v1h-1z M82,62h1v1h-1z M84,62h1v1h-1z M87,62h1v1h-1z M89,62h1v1h-1z M91,62h1v1h-1z M93,62h1v1h-1z M94,62h1v1h-1z M96,62h1v1h-1z M101,62h1v1h-1z M103,62h1v1h-1z M104,62h1v1h-1z M105,62h1v1h-1z M106,62h1v1h-1z M107,62h1v1h-1z M5,63h1v1h-1z M9,63h1v1h-1z M14,63h1v1h-1z M20,63h1v1h-1z M23,63h1v1h-1z M25,63h1v1h-1z M27,63h1v1h-1z M29,63h1v1h-1z M30,63h1v1h-1z M31,63h1v1h-1z M32,63h1v1h-1z M35,63h1v1h-1z M37,63h1v1h-1z M39,63h1v1h-1z M40,63h1v1h-1z M42,63h1v1h-1z M49,63h1v1h-1z M50,63h1v1h-1z M53,63h1v1h-1z M61,63h1v1h-1z M63,63h1v1h-1z M64,63h1v1h-1z M65,63h1v1h-1z M69,63h1v1h-1z M70,63h1v1h-1z M71,63h1v1h-1z M79,63h1v1h-1z M80,63h1v1h-1z M83,63h1v1h-1z M85,63h1v1h-1z M87,63h1v1h-1z M88,63h1v1h-1z M90,63h1v1h-1z M95,63h1v1h-1z M98,63h1v1h-1z M100,63h1v1h-1z M102,63h1v1h-1z M103,63h1v1h-1z M104,63h1v1h-1z M105,63h1v1h-1z M106,63h1v1h-1z M107,63h1v1h-1z M108,63h1v1h-1z M4,64h1v1h-1z M6,64h1v1h-1z M7,64h1v1h-1z M9,64h1v1h-1z M10,64h1v1h-1z M11,64h1v1h-1z M12,64h1v1h-1z M13,64h1v1h-1z M14,64h1v1h-1z M15,64h1v1h-1z M16,64h1v1h-1z M17,64h1v1h-1z M18,64h1v1h-1z M19,64h1v1h-1z M20,64h1v1h-1z M23,64h1v1h-1z M24,64h1v1h-1z M26,64h1v1h-1z M27,64h1v1h-1z M28,64h1v1h-1z M29,64h1v1h-1z M33,64h1v1h-1z M34,64h1v1h-1z M36,64h1v1h-1z M37,64h1v1h-1z M39,64h1v1h-1z M41,64h1v1h-1z M49,64h1v1h-1z M50,64h1v1h-1z M51,64h1v1h-1z M52,64h1v1h-1z M53,64h1v1h-1z M58,64h1v1h-1z M60,64h1v1h-1z M64,64h1v1h-1z M65,64h1v1h-1z M69,64h1v1h-1z M70,64h1v1h-1z M72,64h1v1h-1z M75,64h1v1h-1z M76,64h1v1h-1z M77,64h1v1h-1z M79,64h1v1h-1z M82,64h1v1h-1z M83,64h1v1h-1z M84,64h1v1h-1z M87,64h1v1h-1z M89,64h1v1h-1z M90,64h1v1h-1z M91,64h1v1h-1z M92,64h1v1h-1z M93,64h1v1h-1z M95,64h1v1h-1z M97,64h1v1h-1z M99,64h1v1h-1z M101,64h1v1h-1z M105,64h1v1h-1z M107,64h1v1h-1z M6,65h1v1h-1z M9,65h1v1h-1z M11,65h1v1h-1z M14,65h1v1h-1z M22,65h1v1h-1z M24,65h1v1h-1z M25,65h1v1h-1z M27,65h1v1h-1z M34,65h1v1h-1z M35,65h1v1h-1z M38,65h1v1h-1z M40,65h1v1h-1z M43,65h1v1h-1z M44,65h1v1h-1z M45,65h1v1h-1z M46,65h1v1h-1z M48,65h1v1h-1z M51,65h1v1h-1z M52,65h1v1h-1z M54,65h1v1h-1z M58,65h1v1h-1z M59,65h1v1h-1z M62,65h1v1h-1z M63,65h1v1h-1z M64,65h1v1h-1z M68,65h1v1h-1z M69,65h1v1h-1z M71,65h1v1h-1z M75,65h1v1h-1z M86,65h1v1h-1z M88,65h1v1h-1z M89,65h1v1h-1z M91,65h1v1h-1z M96,65h1v1h-1z M97,65h1v1h-1z M98,65h1v1h-1z M99,65h1v1h-1z M100,65h1v1h-1z M101,65h1v1h-1z M103,65h1v1h-1z M105,65h1v1h-1z M106,65h1v1h-1z M107,65h1v1h-1z M108,65h1v1h-1z M4,66h1v1h-1z M7,66h1v1h-1z M8,66h1v1h-1z M10,66h1v1h-1z M11,66h1v1h-1z M12,66h1v1h-1z M15,66h1v1h-1z M17,66h1v1h-1z M18,66h1v1h-1z M20,66h1v1h-1z M23,66h1v1h-1z M24,66h1v1h-1z M28,66h1v1h-1z M30,66h1v1h-1z M33,66h1v1h-1z M34,66h1v1h-1z M36,66h1v1h-1z M39,66h1v1h-1z M40,66h1v1h-1z M41,66h1v1h-1z M43,66h1v1h-1z M44,66h1v1h-1z M45,66h1v1h-1z M46,66h1v1h-1z M47,66h1v1h-1z M48,66h1v1h-1z M49,66h1v1h-1z M51,66h1v1h-1z M52,66h1v1h-1z M53,66h1v1h-1z M57,66h1v1h-1z M58,66h1v1h-1z M63,66h1v1h-1z M65,66h1v1h-1z M69,66h1v1h-1z M70,66h1v1h-1z M72,66h1v1h-1z M75,66h1v1h-1z M76,66h1v1h-1z M77,66h1v1h-1z M79,66h1v1h-1z M80,66h1v1h-1z M82,66h1v1h-1z M85,66h1v1h-1z M88,66h1v1h-1z M89,66h1v1h-1z M92,66h1v1h-1z M93,66h1v1h-1z M94,66h1v1h-1z M95,66h1v1h-1z M100,66h1v1h-1z M101,66h1v1h-1z M102,66h1v1h-1z M104,66h1v1h-1z M105,66h1v1h-1z M106,66h1v1h-1z M8,67h1v1h-1z M13,67h1v1h-1z M14,67h1v1h-1z M19,67h1v1h-1z M20,67h1v1h-1z M23,67h1v1h-1z M25,67h1v1h-1z M27,67h1v1h-1z M28,67h1v1h-1z M30,67h1v1h-1z M31,67h1v1h-1z M33,67h1v1h-1z M35,67h1v1h-1z M38,67h1v1h-1z M39,67h1v1h-1z M40,67h1v1h-1z M45,67h1v1h-1z M50,67h1v1h-1z M51,67h1v1h-1z M55,67h1v1h-1z M57,67h1v1h-1z M58,67h1v1h-1z M59,67h1v1h-1z M61,67h1v1h-1z M62,67h1v1h-1z M63,67h1v1h-1z M64,67h1v1h-1z M66,67h1v1h-1z M70,67h1v1h-1z M73,67h1v1h-1z M76,67h1v1h-1z M77,67h1v1h-1z M78,67h1v1h-1z M79,67h1v1h-1z M80,67h1v1h-1z M81,67h1v1h-1z M83,67h1v1h-1z M86,67h1v1h-1z M87,67h1v1h-1z M88,67h1v1h-1z M89,67h1v1h-1z M91,67h1v1h-1z M94,67h1v1h-1z M95,67h1v1h-1z M97,67h1v1h-1z M98,67h1v1h-1z M99,67h1v1h-1z M102,67h1v1h-1z M104,67h1v1h-1z M106,67h1v1h-1z M107,67h1v1h-1z M7,68h1v1h-1z M8,68h1v1h-1z M9,68h1v1h-1z M10,68h1v1h-1z M13,68h1v1h-1z M14,68h1v1h-1z M16,68h1v1h-1z M17,68h1v1h-1z M18,68h1v1h-1z M19,68h1v1h-1z M21,68h1v1h-1z M22,68h1v1h-1z M23,68h1v1h-1z M25,68h1v1h-1z M28,68h1v1h-1z M29,68h1v1h-1z M32,68h1v1h-1z M33,68h1v1h-1z M36,68h1v1h-1z M37,68h1v1h-1z M38,68h1v1h-1z M39,68h1v1h-1z M41,68h1v1h-1z M44,68h1v1h-1z M53,68h1v1h-1z M56,68h1v1h-1z M57,68h1v1h-1z M58,68h1v1h-1z M59,68h1v1h-1z M61,68h1v1h-1z M64,68h1v1h-1z M66,68h1v1h-1z M68,68h1v1h-1z M70,68h1v1h-1z M77,68h1v1h-1z M81,68h1v1h-1z M82,68h1v1h-1z M83,68h1v1h-1z M85,68h1v1h-1z M87,68h1v1h-1z M89,68h1v1h-1z M90,68h1v1h-1z M91,68h1v1h-1z M92,68h1v1h-1z M94,68h1v1h-1z M96,68h1v1h-1z M99,68h1v1h-1z M4,69h1v1h-1z M5,69h1v1h-1z M6,69h1v1h-1z M7,69h1v1h-1z M11,69h1v1h-1z M12,69h1v1h-1z M13,69h1v1h-1z M15,69h1v1h-1z M18,69h1v1h-1z M21,69h1v1h-1z M22,69h1v1h-1z M25,69h1v1h-1z M26,69h1v1h-1z M28,69h1v1h-1z M31,69h1v1h-1z M34,69h1v1h-1z M35,69h1v1h-1z M36,69h1v1h-1z M37,69h1v1h-1z M38,69h1v1h-1z M39,69h1v1h-1z M40,69h1v1h-1z M42,69h1v1h-1z M45,69h1v1h-1z M46,69h1v1h-1z M48,69h1v1h-1z M49,69h1v1h-1z M50,69h1v1h-1z M51,69h1v1h-1z M55,69h1v1h-1z M61,69h1v1h-1z M62,69h1v1h-1z M63,69h1v1h-1z M69,69h1v1h-1z M70,69h1v1h-1z M73,69h1v1h-1z M76,69h1v1h-1z M78,69h1v1h-1z M83,69h1v1h-1z M85,69h1v1h-1z M86,69h1v1h-1z M87,69h1v1h-1z M88,69h1v1h-1z M89,69h1v1h-1z M91,69h1v1h-1z M92,69h1v1h-1z M93,69h1v1h-1z M98,69h1v1h-1z M99,69h1v1h-1z M100,69h1v1h-1z M101,69h1v1h-1z M106,69h1v1h-1z M108,69h1v1h-1z M4,70h1v1h-1z M7,70h1v1h-1z M8,70h1v1h-1z M9,70h1v1h-1z M10,70h1v1h-1z M14,70h1v1h-1z M18,70h1v1h-1z M19,70h1v1h-1z M20,70h1v1h-1z M22,70h1v1h-1z M23,70h1v1h-1z M26,70h1v1h-1z M27,70h1v1h-1z M28,70h1v1h-1z M30,70h1v1h-1z M31,70h1v1h-1z M32,70h1v1h-1z M33,70h1v1h-1z M34,70h1v1h-1z M35,70h1v1h-1z M37,70h1v1h-1z M41,70h1v1h-1z M45,70h1v1h-1z M46,70h1v1h-1z M49,70h1v1h-1z M51,70h1v1h-1z M52,70h1v1h-1z M53,70h1v1h-1z M55,70h1v1h-1z M56,70h1v1h-1z M57,70h1v1h-1z M58,70h1v1h-1z M59,70h1v1h-1z M60,70h1v1h-1z M65,70h1v1h-1z M67,70h1v1h-1z M68,70h1v1h-1z M69,70h1v1h-1z M70,70h1v1h-1z M75,70h1v1h-1z M76,70h1v1h-1z M77,70h1v1h-1z M81,70h1v1h-1z M82,70h1v1h-1z M84,70h1v1h-1z M87,70h1v1h-1z M89,70h1v1h-1z M91,70h1v1h-1z M92,70h1v1h-1z M93,70h1v1h-1z M94,70h1v1h-1z M95,70h1v1h-1z M96,70h1v1h-1z M99,70h1v1h-1z M102,70h1v1h-1z M103,70h1v1h-1z M106,70h1v1h-1z M107,70h1v1h-1z M108,70h1v1h-1z M4,71h1v1h-1z M5,71h1v1h-1z M8,71h1v1h-1z M9,71h1v1h-1z M12,71h1v1h-1z M14,71h1v1h-1z M17,71h1v1h-1z M18,71h1v1h-1z M19,71h1v1h-1z M20,71h1v1h-1z M21,71h1v1h-1z M22,71h1v1h-1z M24,71h1v1h-1z M25,71h1v1h-1z M27,71h1v1h-1z M28,71h1v1h-1z M29,71h1v1h-1z M31,71h1v1h-1z M34,71h1v1h-1z M35,71h1v1h-1z M37,71h1v1h-1z M38,71h1v1h-1z M39,71h1v1h-1z M40,71h1v1h-1z M41,71h1v1h-1z M45,71h1v1h-1z M46,71h1v1h-1z M47,71h1v1h-1z M50,71h1v1h-1z M52,71h1v1h-1z M57,71h1v1h-1z M61,71h1v1h-1z M63,71h1v1h-1z M64,71h1v1h-1z M66,71h1v1h-1z M69,71h1v1h-1z M70,71h1v1h-1z M71,71h1v1h-1z M73,71h1v1h-1z M76,71h1v1h-1z M77,71h1v1h-1z M78,71h1v1h-1z M79,71h1v1h-1z M82,71h1v1h-1z M83,71h1v1h-1z M88,71h1v1h-1z M89,71h1v1h-1z M93,71h1v1h-1z M94,71h1v1h-1z M95,71h1v1h-1z M97,71h1v1h-1z M98,71h1v1h-1z M100,71h1v1h-1z M101,71h1v1h-1z M104,71h1v1h-1z M105,71h1v1h-1z M106,71h1v1h-1z M107,71h1v1h-1z M108,71h1v1h-1z M4,72h1v1h-1z M7,72h1v1h-1z M8,72h1v1h-1z M9,72h1v1h-1z M10,72h1v1h-1z M11,72h1v1h-1z M13,72h1v1h-1z M14,72h1v1h-1z M18,72h1v1h-1z M19,72h1v1h-1z M21,72h1v1h-1z M24,72h1v1h-1z M25,72h1v1h-1z M26,72h1v1h-1z M29,72h1v1h-1z M32,72h1v1h-1z M33,72h1v1h-1z M37,72h1v1h-1z M40,72h1v1h-1z M42,72h1v1h-1z M48,72h1v1h-1z M49,72h1v1h-1z M53,72h1v1h-1z M65,72h1v1h-1z M67,72h1v1h-1z M68,72h1v1h-1z M70,72h1v1h-1z M72,72h1v1h-1z M74,72h1v1h-1z M76,72h1v1h-1z M77,72h1v1h-1z M79,72h1v1h-1z M81,72h1v1h-1z M82,72h1v1h-1z M84,72h1v1h-1z M85,72h1v1h-1z M90,72h1v1h-1z M95,72h1v1h-1z M99,72h1v1h-1z M100,72h1v1h-1z M103,72h1v1h-1z M105,72h1v1h-1z M6,73h1v1h-1z M7,73h1v1h-1z M8,73h1v1h-1z M9,73h1v1h-1z M11,73h1v1h-1z M13,73h1v1h-1z M14,73h1v1h-1z M16,73h1v1h-1z M18,73h1v1h-1z M19,73h1v1h-1z M21,73h1v1h-1z M22,73h1v1h-1z M28,73h1v1h-1z M33,73h1v1h-1z M34,73h1v1h-1z M36,73h1v1h-1z M38,73h1v1h-1z M39,73h1v1h-1z M41,73h1v1h-1z M42,73h1v1h-1z M43,73h1v1h-1z M44,73h1v1h-1z M50,73h1v1h-1z M52,73h1v1h-1z M53,73h1v1h-1z M59,73h1v1h-1z M64,73h1v1h-1z M65,73h1v1h-1z M66,73h1v1h-1z M67,73h1v1h-1z M69,73h1v1h-1z M75,73h1v1h-1z M77,73h1v1h-1z M78,73h1v1h-1z M85,73h1v1h-1z M86,73h1v1h-1z M89,73h1v1h-1z M91,73h1v1h-1z M92,73h1v1h-1z M93,73h1v1h-1z M97,73h1v1h-1z M98,73h1v1h-1z M99,73h1v1h-1z M100,73h1v1h-1z M101,73h1v1h-1z M104,73h1v1h-1z M105,73h1v1h-1z M106,73h1v1h-1z M107,73h1v1h-1z M4,74h1v1h-1z M6,74h1v1h-1z M10,74h1v1h-1z M12,74h1v1h-1z M18,74h1v1h-1z M19,74h1v1h-1z M23,74h1v1h-1z M25,74h1v1h-1z M26,74h1v1h-1z M27,74h1v1h-1z M28,74h1v1h-1z M29,74h1v1h-1z M33,74h1v1h-1z M34,74h1v1h-1z M39,74h1v1h-1z M41,74h1v1h-1z M43,74h1v1h-1z M46,74h1v1h-1z M47,74h1v1h-1z M48,74h1v1h-1z M49,74h1v1h-1z M51,74h1v1h-1z M52,74h1v1h-1z M56,74h1v1h-1z M58,74h1v1h-1z M60,74h1v1h-1z M63,74h1v1h-1z M65,74h1v1h-1z M67,74h1v1h-1z M69,74h1v1h-1z M70,74h1v1h-1z M71,74h1v1h-1z M72,74h1v1h-1z M76,74h1v1h-1z M80,74h1v1h-1z M81,74h1v1h-1z M82,74h1v1h-1z M83,74h1v1h-1z M84,74h1v1h-1z M87,74h1v1h-1z M88,74h1v1h-1z M89,74h1v1h-1z M91,74h1v1h-1z M93,74h1v1h-1z M94,74h1v1h-1z M96,74h1v1h-1z M101,74h1v1h-1z M102,74h1v1h-1z M104,74h1v1h-1z M107,74h1v1h-1z M5,75h1v1h-1z M6,75h1v1h-1z M13,75h1v1h-1z M14,75h1v1h-1z M16,75h1v1h-1z M19,75h1v1h-1z M20,75h1v1h-1z M22,75h1v1h-1z M23,75h1v1h-1z M26,75h1v1h-1z M29,75h1v1h-1z M30,75h1v1h-1z M31,75h1v1h-1z M34,75h1v1h-1z M35,75h1v1h-1z M40,75h1v1h-1z M42,75h1v1h-1z M45,75h1v1h-1z M47,75h1v1h-1z M50,75h1v1h-1z M52,75h1v1h-1z M54,75h1v1h-1z M55,75h1v1h-1z M57,75h1v1h-1z M59,75h1v1h-1z M61,75h1v1h-1z M62,75h1v1h-1z M63,75h1v1h-1z M64,75h1v1h-1z M69,75h1v1h-1z M70,75h1v1h-1z M71,75h1v1h-1z M74,75h1v1h-1z M77,75h1v1h-1z M79,75h1v1h-1z M83,75h1v1h-1z M87,75h1v1h-1z M88,75h1v1h-1z M90,75h1v1h-1z M95,75h1v1h-1z M97,75h1v1h-1z M98,75h1v1h-1z M99,75h1v1h-1z M101,75h1v1h-1z M103,75h1v1h-1z M105,75h1v1h-1z M106,75h1v1h-1z M4,76h1v1h-1z M5,76h1v1h-1z M6,76h1v1h-1z M8,76h1v1h-1z M9,76h1v1h-1z M10,76h1v1h-1z M11,76h1v1h-1z M12,76h1v1h-1z M13,76h1v1h-1z M14,76h1v1h-1z M15,76h1v1h-1z M17,76h1v1h-1z M18,76h1v1h-1z M26,76h1v1h-1z M28,76h1v1h-1z M29,76h1v1h-1z M30,76h1v1h-1z M31,76h1v1h-1z M32,76h1v1h-1z M34,76h1v1h-1z M39,76h1v1h-1z M41,76h1v1h-1z M43,76h1v1h-1z M44,76h1v1h-1z M47,76h1v1h-1z M48,76h1v1h-1z M50,76h1v1h-1z M51,76h1v1h-1z M52,76h1v1h-1z M53,76h1v1h-1z M54,76h1v1h-1z M55,76h1v1h-1z M56,76h1v1h-1z M58,76h1v1h-1z M59,76h1v1h-1z M60,76h1v1h-1z M61,76h1v1h-1z M62,76h1v1h-1z M63,76h1v1h-1z M65,76h1v1h-1z M66,76h1v1h-1z M68,76h1v1h-1z M69,76h1v1h-1z M70,76h1v1h-1z M71,76h1v1h-1z M75,76h1v1h-1z M76,76h1v1h-1z M77,76h1v1h-1z M78,76h1v1h-1z M79,76h1v1h-1z M80,76h1v1h-1z M81,76h1v1h-1z M82,76h1v1h-1z M83,76h1v1h-1z M84,76h1v1h-1z M85,76h1v1h-1z M86,76h1v1h-1z M89,76h1v1h-1z M91,76h1v1h-1z M93,76h1v1h-1z M94,76h1v1h-1z M96,76h1v1h-1z M97,76h1v1h-1z M98,76h1v1h-1z M100,76h1v1h-1z M101,76h1v1h-1z M102,76h1v1h-1z M103,76h1v1h-1z M104,76h1v1h-1z M105,76h1v1h-1z M106,76h1v1h-1z M107,76h1v1h-1z M108,76h1v1h-1z M4,77h1v1h-1z M6,77h1v1h-1z M7,77h1v1h-1z M8,77h1v1h-1z M12,77h1v1h-1z M13,77h1v1h-1z M17,77h1v1h-1z M18,77h1v1h-1z M21,77h1v1h-1z M28,77h1v1h-1z M32,77h1v1h-1z M35,77h1v1h-1z M38,77h1v1h-1z M40,77h1v1h-1z M41,77h1v1h-1z M42,77h1v1h-1z M43,77h1v1h-1z M44,77h1v1h-1z M45,77h1v1h-1z M50,77h1v1h-1z M52,77h1v1h-1z M56,77h1v1h-1z M59,77h1v1h-1z M61,77h1v1h-1z M63,77h1v1h-1z M65,77h1v1h-1z M70,77h1v1h-1z M74,77h1v1h-1z M75,77h1v1h-1z M76,77h1v1h-1z M80,77h1v1h-1z M82,77h1v1h-1z M83,77h1v1h-1z M85,77h1v1h-1z M86,77h1v1h-1z M89,77h1v1h-1z M90,77h1v1h-1z M91,77h1v1h-1z M92,77h1v1h-1z M94,77h1v1h-1z M95,77h1v1h-1z M96,77h1v1h-1z M97,77h1v1h-1z M99,77h1v1h-1z M100,77h1v1h-1z M104,77h1v1h-1z M106,77h1v1h-1z M107,77h1v1h-1z M108,77h1v1h-1z M4,78h1v1h-1z M5,78h1v1h-1z M6,78h1v1h-1z M7,78h1v1h-1z M8,78h1v1h-1z M10,78h1v1h-1z M12,78h1v1h-1z M15,78h1v1h-1z M16,78h1v1h-1z M17,78h1v1h-1z M19,78h1v1h-1z M20,78h1v1h-1z M22,78h1v1h-1z M25,78h1v1h-1z M26,78h1v1h-1z M27,78h1v1h-1z M28,78h1v1h-1z M30,78h1v1h-1z M32,78h1v1h-1z M33,78h1v1h-1z M34,78h1v1h-1z M36,78h1v1h-1z M44,78h1v1h-1z M45,78h1v1h-1z M46,78h1v1h-1z M48,78h1v1h-1z M52,78h1v1h-1z M54,78h1v1h-1z M56,78h1v1h-1z M57,78h1v1h-1z M58,78h1v1h-1z M59,78h1v1h-1z M60,78h1v1h-1z M63,78h1v1h-1z M64,78h1v1h-1z M70,78h1v1h-1z M71,78h1v1h-1z M76,78h1v1h-1z M78,78h1v1h-1z M80,78h1v1h-1z M81,78h1v1h-1z M82,78h1v1h-1z M83,78h1v1h-1z M87,78h1v1h-1z M89,78h1v1h-1z M91,78h1v1h-1z M93,78h1v1h-1z M94,78h1v1h-1z M99,78h1v1h-1z M100,78h1v1h-1z M102,78h1v1h-1z M104,78h1v1h-1z M106,78h1v1h-1z M5,79h1v1h-1z M8,79h1v1h-1z M12,79h1v1h-1z M13,79h1v1h-1z M15,79h1v1h-1z M16,79h1v1h-1z M17,79h1v1h-1z M19,79h1v1h-1z M22,79h1v1h-1z M23,79h1v1h-1z M24,79h1v1h-1z M27,79h1v1h-1z M28,79h1v1h-1z M32,79h1v1h-1z M35,79h1v1h-1z M39,79h1v1h-1z M40,79h1v1h-1z M41,79h1v1h-1z M42,79h1v1h-1z M43,79h1v1h-1z M46,79h1v1h-1z M47,79h1v1h-1z M49,79h1v1h-1z M50,79h1v1h-1z M52,79h1v1h-1z M56,79h1v1h-1z M58,79h1v1h-1z M61,79h1v1h-1z M62,79h1v1h-1z M63,79h1v1h-1z M64,79h1v1h-1z M65,79h1v1h-1z M66,79h1v1h-1z M69,79h1v1h-1z M71,79h1v1h-1z M74,79h1v1h-1z M76,79h1v1h-1z M80,79h1v1h-1z M82,79h1v1h-1z M83,79h1v1h-1z M85,79h1v1h-1z M88,79h1v1h-1z M94,79h1v1h-1z M95,79h1v1h-1z M98,79h1v1h-1z M100,79h1v1h-1z M104,79h1v1h-1z M105,79h1v1h-1z M106,79h1v1h-1z M107,79h1v1h-1z M4,80h1v1h-1z M6,80h1v1h-1z M8,80h1v1h-1z M9,80h1v1h-1z M10,80h1v1h-1z M11,80h1v1h-1z M12,80h1v1h-1z M15,80h1v1h-1z M16,80h1v1h-1z M22,80h1v1h-1z M23,80h1v1h-1z M24,80h1v1h-1z M25,80h1v1h-1z M27,80h1v1h-1z M28,80h1v1h-1z M29,80h1v1h-1z M30,80h1v1h-1z M31,80h1v1h-1z M32,80h1v1h-1z M33,80h1v1h-1z M35,80h1v1h-1z M37,80h1v1h-1z M41,80h1v1h-1z M50,80h1v1h-1z M51,80h1v1h-1z M52,80h1v1h-1z M53,80h1v1h-1z M54,80h1v1h-1z M55,80h1v1h-1z M56,80h1v1h-1z M58,80h1v1h-1z M60,80h1v1h-1z M61,80h1v1h-1z M67,80h1v1h-1z M68,80h1v1h-1z M69,80h1v1h-1z M70,80h1v1h-1z M71,80h1v1h-1z M73,80h1v1h-1z M75,80h1v1h-1z M76,80h1v1h-1z M77,80h1v1h-1z M78,80h1v1h-1z M79,80h1v1h-1z M80,80h1v1h-1z M82,80h1v1h-1z M84,80h1v1h-1z M89,80h1v1h-1z M92,80h1v1h-1z M95,80h1v1h-1z M96,80h1v1h-1z M99,80h1v1h-1z M100,80h1v1h-1z M101,80h1v1h-1z M102,80h1v1h-1z M103,80h1v1h-1z M104,80h1v1h-1z M5,81h1v1h-1z M8,81h1v1h-1z M9,81h1v1h-1z M14,81h1v1h-1z M15,81h1v1h-1z M17,81h1v1h-1z M19,81h1v1h-1z M20,81h1v1h-1z M21,81h1v1h-1z M22,81h1v1h-1z M25,81h1v1h-1z M26,81h1v1h-1z M28,81h1v1h-1z M29,81h1v1h-1z M33,81h1v1h-1z M34,81h1v1h-1z M38,81h1v1h-1z M41,81h1v1h-1z M42,81h1v1h-1z M43,81h1v1h-1z M48,81h1v1h-1z M50,81h1v1h-1z M52,81h1v1h-1z M53,81h1v1h-1z M56,81h1v1h-1z M57,81h1v1h-1z M58,81h1v1h-1z M61,81h1v1h-1z M62,81h1v1h-1z M63,81h1v1h-1z M64,81h1v1h-1z M65,81h1v1h-1z M66,81h1v1h-1z M67,81h1v1h-1z M70,81h1v1h-1z M71,81h1v1h-1z M72,81h1v1h-1z M73,81h1v1h-1z M76,81h1v1h-1z M77,81h1v1h-1z M79,81h1v1h-1z M80,81h1v1h-1z M81,81h1v1h-1z M86,81h1v1h-1z M88,81h1v1h-1z M89,81h1v1h-1z M90,81h1v1h-1z M92,81h1v1h-1z M93,81h1v1h-1z M94,81h1v1h-1z M97,81h1v1h-1z M100,81h1v1h-1z M101,81h1v1h-1z M107,81h1v1h-1z M4,82h1v1h-1z M5,82h1v1h-1z M9,82h1v1h-1z M10,82h1v1h-1z M11,82h1v1h-1z M12,82h1v1h-1z M15,82h1v1h-1z M19,82h1v1h-1z M20,82h1v1h-1z M21,82h1v1h-1z M22,82h1v1h-1z M23,82h1v1h-1z M25,82h1v1h-1z M28,82h1v1h-1z M33,82h1v1h-1z M34,82h1v1h-1z M35,82h1v1h-1z M36,82h1v1h-1z M41,82h1v1h-1z M44,82h1v1h-1z M45,82h1v1h-1z M46,82h1v1h-1z M47,82h1v1h-1z M48,82h1v1h-1z M49,82h1v1h-1z M51,82h1v1h-1z M52,82h1v1h-1z M57,82h1v1h-1z M58,82h1v1h-1z M59,82h1v1h-1z M60,82h1v1h-1z M65,82h1v1h-1z M67,82h1v1h-1z M69,82h1v1h-1z M70,82h1v1h-1z M71,82h1v1h-1z M72,82h1v1h-1z M73,82h1v1h-1z M78,82h1v1h-1z M82,82h1v1h-1z M83,82h1v1h-1z M84,82h1v1h-1z M85,82h1v1h-1z M89,82h1v1h-1z M91,82h1v1h-1z M93,82h1v1h-1z M94,82h1v1h-1z M96,82h1v1h-1z M99,82h1v1h-1z M101,82h1v1h-1z M104,82h1v1h-1z M106,82h1v1h-1z M107,82h1v1h-1z M4,83h1v1h-1z M5,83h1v1h-1z M6,83h1v1h-1z M9,83h1v1h-1z M12,83h1v1h-1z M13,83h1v1h-1z M14,83h1v1h-1z M16,83h1v1h-1z M18,83h1v1h-1z M19,83h1v1h-1z M20,83h1v1h-1z M22,83h1v1h-1z M27,83h1v1h-1z M28,83h1v1h-1z M31,83h1v1h-1z M32,83h1v1h-1z M35,83h1v1h-1z M37,83h1v1h-1z M39,83h1v1h-1z M40,83h1v1h-1z M41,83h1v1h-1z M45,83h1v1h-1z M47,83h1v1h-1z M49,83h1v1h-1z M50,83h1v1h-1z M53,83h1v1h-1z M58,83h1v1h-1z M59,83h1v1h-1z M62,83h1v1h-1z M63,83h1v1h-1z M64,83h1v1h-1z M66,83h1v1h-1z M69,83h1v1h-1z M71,83h1v1h-1z M74,83h1v1h-1z M76,83h1v1h-1z M78,83h1v1h-1z M79,83h1v1h-1z M81,83h1v1h-1z M83,83h1v1h-1z M86,83h1v1h-1z M87,83h1v1h-1z M88,83h1v1h-1z M93,83h1v1h-1z M94,83h1v1h-1z M95,83h1v1h-1z M97,83h1v1h-1z M98,83h1v1h-1z M103,83h1v1h-1z M106,83h1v1h-1z M8,84h1v1h-1z M9,84h1v1h-1z M10,84h1v1h-1z M12,84h1v1h-1z M13,84h1v1h-1z M18,84h1v1h-1z M19,84h1v1h-1z M21,84h1v1h-1z M23,84h1v1h-1z M25,84h1v1h-1z M29,84h1v1h-1z M30,84h1v1h-1z M31,84h1v1h-1z M32,84h1v1h-1z M33,84h1v1h-1z M40,84h1v1h-1z M43,84h1v1h-1z M44,84h1v1h-1z M45,84h1v1h-1z M48,84h1v1h-1z M49,84h1v1h-1z M50,84h1v1h-1z M51,84h1v1h-1z M52,84h1v1h-1z M54,84h1v1h-1z M55,84h1v1h-1z M56,84h1v1h-1z M57,84h1v1h-1z M58,84h1v1h-1z M59,84h1v1h-1z M60,84h1v1h-1z M64,84h1v1h-1z M65,84h1v1h-1z M68,84h1v1h-1z M70,84h1v1h-1z M72,84h1v1h-1z M73,84h1v1h-1z M74,84h1v1h-1z M75,84h1v1h-1z M76,84h1v1h-1z M77,84h1v1h-1z M80,84h1v1h-1z M85,84h1v1h-1z M87,84h1v1h-1z M89,84h1v1h-1z M91,84h1v1h-1z M93,84h1v1h-1z M94,84h1v1h-1z M95,84h1v1h-1z M97,84h1v1h-1z M101,84h1v1h-1z M103,84h1v1h-1z M104,84h1v1h-1z M105,84h1v1h-1z M107,84h1v1h-1z M108,84h1v1h-1z M4,85h1v1h-1z M5,85h1v1h-1z M7,85h1v1h-1z M9,85h1v1h-1z M13,85h1v1h-1z M16,85h1v1h-1z M17,85h1v1h-1z M18,85h1v1h-1z M21,85h1v1h-1z M23,85h1v1h-1z M24,85h1v1h-1z M29,85h1v1h-1z M32,85h1v1h-1z M35,85h1v1h-1z M37,85h1v1h-1z M38,85h1v1h-1z M39,85h1v1h-1z M40,85h1v1h-1z M41,85h1v1h-1z M43,85h1v1h-1z M47,85h1v1h-1z M52,85h1v1h-1z M53,85h1v1h-1z M56,85h1v1h-1z M58,85h1v1h-1z M60,85h1v1h-1z M61,85h1v1h-1z M62,85h1v1h-1z M63,85h1v1h-1z M64,85h1v1h-1z M66,85h1v1h-1z M67,85h1v1h-1z M68,85h1v1h-1z M69,85h1v1h-1z M70,85h1v1h-1z M72,85h1v1h-1z M73,85h1v1h-1z M76,85h1v1h-1z M77,85h1v1h-1z M81,85h1v1h-1z M82,85h1v1h-1z M83,85h1v1h-1z M85,85h1v1h-1z M87,85h1v1h-1z M92,85h1v1h-1z M93,85h1v1h-1z M94,85h1v1h-1z M95,85h1v1h-1z M97,85h1v1h-1z M98,85h1v1h-1z M100,85h1v1h-1z M102,85h1v1h-1z M105,85h1v1h-1z M107,85h1v1h-1z M108,85h1v1h-1z M4,86h1v1h-1z M10,86h1v1h-1z M11,86h1v1h-1z M12,86h1v1h-1z M15,86h1v1h-1z M16,86h1v1h-1z M20,86h1v1h-1z M22,86h1v1h-1z M23,86h1v1h-1z M26,86h1v1h-1z M31,86h1v1h-1z M33,86h1v1h-1z M34,86h1v1h-1z M35,86h1v1h-1z M36,86h1v1h-1z M39,86h1v1h-1z M41,86h1v1h-1z M43,86h1v1h-1z M46,86h1v1h-1z M51,86h1v1h-1z M53,86h1v1h-1z M58,86h1v1h-1z M60,86h1v1h-1z M64,86h1v1h-1z M65,86h1v1h-1z M68,86h1v1h-1z M69,86h1v1h-1z M70,86h1v1h-1z M71,86h1v1h-1z M75,86h1v1h-1z M81,86h1v1h-1z M82,86h1v1h-1z M84,86h1v1h-1z M87,86h1v1h-1z M89,86h1v1h-1z M91,86h1v1h-1z M93,86h1v1h-1z M94,86h1v1h-1z M96,86h1v1h-1z M99,86h1v1h-1z M104,86h1v1h-1z M106,86h1v1h-1z M107,86h1v1h-1z M4,87h1v1h-1z M7,87h1v1h-1z M12,87h1v1h-1z M13,87h1v1h-1z M14,87h1v1h-1z M16,87h1v1h-1z M17,87h1v1h-1z M18,87h1v1h-1z M21,87h1v1h-1z M23,87h1v1h-1z M32,87h1v1h-1z M33,87h1v1h-1z M34,87h1v1h-1z M35,87h1v1h-1z M38,87h1v1h-1z M40,87h1v1h-1z M42,87h1v1h-1z M45,87h1v1h-1z M47,87h1v1h-1z M49,87h1v1h-1z M50,87h1v1h-1z M54,87h1v1h-1z M57,87h1v1h-1z M59,87h1v1h-1z M61,87h1v1h-1z M63,87h1v1h-1z M64,87h1v1h-1z M65,87h1v1h-1z M67,87h1v1h-1z M71,87h1v1h-1z M74,87h1v1h-1z M77,87h1v1h-1z M79,87h1v1h-1z M82,87h1v1h-1z M83,87h1v1h-1z M85,87h1v1h-1z M88,87h1v1h-1z M93,87h1v1h-1z M99,87h1v1h-1z M101,87h1v1h-1z M102,87h1v1h-1z M103,87h1v1h-1z M106,87h1v1h-1z M107,87h1v1h-1z M5,88h1v1h-1z M6,88h1v1h-1z M10,88h1v1h-1z M11,88h1v1h-1z M13,88h1v1h-1z M15,88h1v1h-1z M16,88h1v1h-1z M17,88h1v1h-1z M18,88h1v1h-1z M19,88h1v1h-1z M25,88h1v1h-1z M26,88h1v1h-1z M30,88h1v1h-1z M34,88h1v1h-1z M36,88h1v1h-1z M39,88h1v1h-1z M45,88h1v1h-1z M48,88h1v1h-1z M49,88h1v1h-1z M50,88h1v1h-1z M51,88h1v1h-1z M53,88h1v1h-1z M55,88h1v1h-1z M56,88h1v1h-1z M59,88h1v1h-1z M61,88h1v1h-1z M64,88h1v1h-1z M66,88h1v1h-1z M67,88h1v1h-1z M68,88h1v1h-1z M69,88h1v1h-1z M70,88h1v1h-1z M73,88h1v1h-1z M75,88h1v1h-1z M82,88h1v1h-1z M83,88h1v1h-1z M85,88h1v1h-1z M89,88h1v1h-1z M93,88h1v1h-1z M95,88h1v1h-1z M98,88h1v1h-1z M100,88h1v1h-1z M108,88h1v1h-1z M4,89h1v1h-1z M6,89h1v1h-1z M8,89h1v1h-1z M9,89h1v1h-1z M11,89h1v1h-1z M12,89h1v1h-1z M15,89h1v1h-1z M17,89h1v1h-1z M18,89h1v1h-1z M19,89h1v1h-1z M20,89h1v1h-1z M21,89h1v1h-1z M22,89h1v1h-1z M24,89h1v1h-1z M25,89h1v1h-1z M28,89h1v1h-1z M29,89h1v1h-1z M33,89h1v1h-1z M34,89h1v1h-1z M35,89h1v1h-1z M38,89h1v1h-1z M40,89h1v1h-1z M41,89h1v1h-1z M43,89h1v1h-1z M44,89h1v1h-1z M46,89h1v1h-1z M47,89h1v1h-1z M50,89h1v1h-1z M52,89h1v1h-1z M53,89h1v1h-1z M56,89h1v1h-1z M57,89h1v1h-1z M58,89h1v1h-1z M59,89h1v1h-1z M62,89h1v1h-1z M67,89h1v1h-1z M68,89h1v1h-1z M69,89h1v1h-1z M71,89h1v1h-1z M74,89h1v1h-1z M77,89h1v1h-1z M79,89h1v1h-1z M81,89h1v1h-1z M82,89h1v1h-1z M84,89h1v1h-1z M86,89h1v1h-1z M87,89h1v1h-1z M88,89h1v1h-1z M96,89h1v1h-1z M97,89h1v1h-1z M100,89h1v1h-1z M101,89h1v1h-1z M106,89h1v1h-1z M108,89h1v1h-1z M5,90h1v1h-1z M6,90h1v1h-1z M8,90h1v1h-1z M10,90h1v1h-1z M12,90h1v1h-1z M14,90h1v1h-1z M17,90h1v1h-1z M18,90h1v1h-1z M19,90h1v1h-1z M21,90h1v1h-1z M23,90h1v1h-1z M29,90h1v1h-1z M34,90h1v1h-1z M35,90h1v1h-1z M36,90h1v1h-1z M37,90h1v1h-1z M40,90h1v1h-1z M45,90h1v1h-1z M46,90h1v1h-1z M48,90h1v1h-1z M51,90h1v1h-1z M52,90h1v1h-1z M53,90h1v1h-1z M57,90h1v1h-1z M58,90h1v1h-1z M60,90h1v1h-1z M65,90h1v1h-1z M67,90h1v1h-1z M69,90h1v1h-1z M70,90h1v1h-1z M72,90h1v1h-1z M75,90h1v1h-1z M76,90h1v1h-1z M77,90h1v1h-1z M81,90h1v1h-1z M82,90h1v1h-1z M83,90h1v1h-1z M84,90h1v1h-1z M87,90h1v1h-1z M88,90h1v1h-1z M89,90h1v1h-1z M93,90h1v1h-1z M94,90h1v1h-1z M95,90h1v1h-1z M96,90h1v1h-1z M101,90h1v1h-1z M104,90h1v1h-1z M107,90h1v1h-1z M4,91h1v1h-1z M5,91h1v1h-1z M7,91h1v1h-1z M13,91h1v1h-1z M14,91h1v1h-1z M16,91h1v1h-1z M20,91h1v1h-1z M21,91h1v1h-1z M22,91h1v1h-1z M25,91h1v1h-1z M26,91h1v1h-1z M27,91h1v1h-1z M30,91h1v1h-1z M32,91h1v1h-1z M33,91h1v1h-1z M38,91h1v1h-1z M39,91h1v1h-1z M40,91h1v1h-1z M41,91h1v1h-1z M42,91h1v1h-1z M47,91h1v1h-1z M50,91h1v1h-1z M51,91h1v1h-1z M52,91h1v1h-1z M53,91h1v1h-1z M56,91h1v1h-1z M57,91h1v1h-1z M59,91h1v1h-1z M61,91h1v1h-1z M63,91h1v1h-1z M64,91h1v1h-1z M65,91h1v1h-1z M70,91h1v1h-1z M71,91h1v1h-1z M73,91h1v1h-1z M76,91h1v1h-1z M77,91h1v1h-1z M80,91h1v1h-1z M82,91h1v1h-1z M85,91h1v1h-1z M87,91h1v1h-1z M88,91h1v1h-1z M89,91h1v1h-1z M97,91h1v1h-1z M99,91h1v1h-1z M101,91h1v1h-1z M103,91h1v1h-1z M104,91h1v1h-1z M105,91h1v1h-1z M106,91h1v1h-1z M4,92h1v1h-1z M5,92h1v1h-1z M7,92h1v1h-1z M8,92h1v1h-1z M10,92h1v1h-1z M11,92h1v1h-1z M12,92h1v1h-1z M15,92h1v1h-1z M16,92h1v1h-1z M17,92h1v1h-1z M23,92h1v1h-1z M24,92h1v1h-1z M27,92h1v1h-1z M30,92h1v1h-1z M31,92h1v1h-1z M34,92h1v1h-1z M35,92h1v1h-1z M37,92h1v1h-1z M46,92h1v1h-1z M48,92h1v1h-1z M50,92h1v1h-1z M53,92h1v1h-1z M54,92h1v1h-1z M55,92h1v1h-1z M57,92h1v1h-1z M58,92h1v1h-1z M59,92h1v1h-1z M60,92h1v1h-1z M61,92h1v1h-1z M63,92h1v1h-1z M64,92h1v1h-1z M65,92h1v1h-1z M68,92h1v1h-1z M71,92h1v1h-1z M75,92h1v1h-1z M78,92h1v1h-1z M80,92h1v1h-1z M82,92h1v1h-1z M84,92h1v1h-1z M86,92h1v1h-1z M87,92h1v1h-1z M88,92h1v1h-1z M89,92h1v1h-1z M92,92h1v1h-1z M94,92h1v1h-1z M95,92h1v1h-1z M98,92h1v1h-1z M100,92h1v1h-1z M104,92h1v1h-1z M105,92h1v1h-1z M106,92h1v1h-1z M4,93h1v1h-1z M5,93h1v1h-1z M8,93h1v1h-1z M11,93h1v1h-1z M12,93h1v1h-1z M13,93h1v1h-1z M15,93h1v1h-1z M18,93h1v1h-1z M19,93h1v1h-1z M20,93h1v1h-1z M31,93h1v1h-1z M33,93h1v1h-1z M34,93h1v1h-1z M36,93h1v1h-1z M39,93h1v1h-1z M40,93h1v1h-1z M41,93h1v1h-1z M43,93h1v1h-1z M50,93h1v1h-1z M53,93h1v1h-1z M55,93h1v1h-1z M56,93h1v1h-1z M58,93h1v1h-1z M59,93h1v1h-1z M60,93h1v1h-1z M61,93h1v1h-1z M62,93h1v1h-1z M68,93h1v1h-1z M69,93h1v1h-1z M70,93h1v1h-1z M71,93h1v1h-1z M74,93h1v1h-1z M76,93h1v1h-1z M77,93h1v1h-1z M79,93h1v1h-1z M80,93h1v1h-1z M81,93h1v1h-1z M86,93h1v1h-1z M88,93h1v1h-1z M90,93h1v1h-1z M92,93h1v1h-1z M93,93h1v1h-1z M94,93h1v1h-1z M95,93h1v1h-1z M96,93h1v1h-1z M98,93h1v1h-1z M99,93h1v1h-1z M107,93h1v1h-1z M108,93h1v1h-1z M4,94h1v1h-1z M6,94h1v1h-1z M8,94h1v1h-1z M10,94h1v1h-1z M11,94h1v1h-1z M13,94h1v1h-1z M14,94h1v1h-1z M15,94h1v1h-1z M16,94h1v1h-1z M19,94h1v1h-1z M20,94h1v1h-1z M26,94h1v1h-1z M27,94h1v1h-1z M28,94h1v1h-1z M29,94h1v1h-1z M30,94h1v1h-1z M33,94h1v1h-1z M34,94h1v1h-1z M36,94h1v1h-1z M39,94h1v1h-1z M40,94h1v1h-1z M43,94h1v1h-1z M44,94h1v1h-1z M45,94h1v1h-1z M46,94h1v1h-1z M47,94h1v1h-1z M48,94h1v1h-1z M51,94h1v1h-1z M52,94h1v1h-1z M53,94h1v1h-1z M57,94h1v1h-1z M58,94h1v1h-1z M63,94h1v1h-1z M64,94h1v1h-1z M65,94h1v1h-1z M69,94h1v1h-1z M70,94h1v1h-1z M72,94h1v1h-1z M75,94h1v1h-1z M77,94h1v1h-1z M78,94h1v1h-1z M81,94h1v1h-1z M82,94h1v1h-1z M84,94h1v1h-1z M88,94h1v1h-1z M89,94h1v1h-1z M91,94h1v1h-1z M92,94h1v1h-1z M93,94h1v1h-1z M94,94h1v1h-1z M95,94h1v1h-1z M96,94h1v1h-1z M101,94h1v1h-1z M105,94h1v1h-1z M106,94h1v1h-1z M4,95h1v1h-1z M11,95h1v1h-1z M14,95h1v1h-1z M15,95h1v1h-1z M19,95h1v1h-1z M20,95h1v1h-1z M24,95h1v1h-1z M27,95h1v1h-1z M28,95h1v1h-1z M31,95h1v1h-1z M33,95h1v1h-1z M35,95h1v1h-1z M37,95h1v1h-1z M39,95h1v1h-1z M40,95h1v1h-1z M41,95h1v1h-1z M42,95h1v1h-1z M45,95h1v1h-1z M46,95h1v1h-1z M47,95h1v1h-1z M49,95h1v1h-1z M51,95h1v1h-1z M52,95h1v1h-1z M54,95h1v1h-1z M59,95h1v1h-1z M61,95h1v1h-1z M63,95h1v1h-1z M64,95h1v1h-1z M70,95h1v1h-1z M71,95h1v1h-1z M74,95h1v1h-1z M75,95h1v1h-1z M76,95h1v1h-1z M77,95h1v1h-1z M83,95h1v1h-1z M85,95h1v1h-1z M86,95h1v1h-1z M87,95h1v1h-1z M88,95h1v1h-1z M90,95h1v1h-1z M93,95h1v1h-1z M95,95h1v1h-1z M98,95h1v1h-1z M99,95h1v1h-1z M100,95h1v1h-1z M102,95h1v1h-1z M103,95h1v1h-1z M104,95h1v1h-1z M105,95h1v1h-1z M106,95h1v1h-1z M108,95h1v1h-1z M4,96h1v1h-1z M8,96h1v1h-1z M9,96h1v1h-1z M10,96h1v1h-1z M12,96h1v1h-1z M13,96h1v1h-1z M14,96h1v1h-1z M16,96h1v1h-1z M19,96h1v1h-1z M20,96h1v1h-1z M23,96h1v1h-1z M24,96h1v1h-1z M27,96h1v1h-1z M29,96h1v1h-1z M32,96h1v1h-1z M33,96h1v1h-1z M34,96h1v1h-1z M35,96h1v1h-1z M36,96h1v1h-1z M37,96h1v1h-1z M38,96h1v1h-1z M39,96h1v1h-1z M41,96h1v1h-1z M42,96h1v1h-1z M44,96h1v1h-1z M45,96h1v1h-1z M46,96h1v1h-1z M48,96h1v1h-1z M49,96h1v1h-1z M50,96h1v1h-1z M54,96h1v1h-1z M57,96h1v1h-1z M60,96h1v1h-1z M63,96h1v1h-1z M64,96h1v1h-1z M67,96h1v1h-1z M68,96h1v1h-1z M69,96h1v1h-1z M70,96h1v1h-1z M73,96h1v1h-1z M74,96h1v1h-1z M77,96h1v1h-1z M78,96h1v1h-1z M79,96h1v1h-1z M80,96h1v1h-1z M81,96h1v1h-1z M82,96h1v1h-1z M83,96h1v1h-1z M88,96h1v1h-1z M90,96h1v1h-1z M91,96h1v1h-1z M95,96h1v1h-1z M96,96h1v1h-1z M97,96h1v1h-1z M98,96h1v1h-1z M100,96h1v1h-1z M105,96h1v1h-1z M106,96h1v1h-1z M107,96h1v1h-1z M4,97h1v1h-1z M6,97h1v1h-1z M7,97h1v1h-1z M12,97h1v1h-1z M15,97h1v1h-1z M17,97h1v1h-1z M18,97h1v1h-1z M22,97h1v1h-1z M25,97h1v1h-1z M26,97h1v1h-1z M28,97h1v1h-1z M29,97h1v1h-1z M32,97h1v1h-1z M33,97h1v1h-1z M34,97h1v1h-1z M35,97h1v1h-1z M37,97h1v1h-1z M38,97h1v1h-1z M40,97h1v1h-1z M41,97h1v1h-1z M42,97h1v1h-1z M43,97h1v1h-1z M45,97h1v1h-1z M46,97h1v1h-1z M47,97h1v1h-1z M50,97h1v1h-1z M53,97h1v1h-1z M56,97h1v1h-1z M57,97h1v1h-1z M61,97h1v1h-1z M62,97h1v1h-1z M64,97h1v1h-1z M67,97h1v1h-1z M72,97h1v1h-1z M77,97h1v1h-1z M80,97h1v1h-1z M81,97h1v1h-1z M84,97h1v1h-1z M85,97h1v1h-1z M87,97h1v1h-1z M90,97h1v1h-1z M91,97h1v1h-1z M93,97h1v1h-1z M94,97h1v1h-1z M95,97h1v1h-1z M97,97h1v1h-1z M98,97h1v1h-1z M100,97h1v1h-1z M101,97h1v1h-1z M102,97h1v1h-1z M106,97h1v1h-1z M107,97h1v1h-1z M108,97h1v1h-1z M4,98h1v1h-1z M5,98h1v1h-1z M6,98h1v1h-1z M10,98h1v1h-1z M12,98h1v1h-1z M13,98h1v1h-1z M14,98h1v1h-1z M15,98h1v1h-1z M17,98h1v1h-1z M20,98h1v1h-1z M21,98h1v1h-1z M22,98h1v1h-1z M27,98h1v1h-1z M29,98h1v1h-1z M33,98h1v1h-1z M34,98h1v1h-1z M35,98h1v1h-1z M36,98h1v1h-1z M39,98h1v1h-1z M41,98h1v1h-1z M44,98h1v1h-1z M46,98h1v1h-1z M48,98h1v1h-1z M57,98h1v1h-1z M58,98h1v1h-1z M59,98h1v1h-1z M60,98h1v1h-1z M63,98h1v1h-1z M64,98h1v1h-1z M65,98h1v1h-1z M67,98h1v1h-1z M68,98h1v1h-1z M70,98h1v1h-1z M78,98h1v1h-1z M79,98h1v1h-1z M81,98h1v1h-1z M82,98h1v1h-1z M83,98h1v1h-1z M92,98h1v1h-1z M93,98h1v1h-1z M94,98h1v1h-1z M95,98h1v1h-1z M96,98h1v1h-1z M100,98h1v1h-1z M101,98h1v1h-1z M106,98h1v1h-1z M6,99h1v1h-1z M8,99h1v1h-1z M9,99h1v1h-1z M12,99h1v1h-1z M13,99h1v1h-1z M14,99h1v1h-1z M15,99h1v1h-1z M16,99h1v1h-1z M18,99h1v1h-1z M20,99h1v1h-1z M21,99h1v1h-1z M23,99h1v1h-1z M24,99h1v1h-1z M25,99h1v1h-1z M26,99h1v1h-1z M29,99h1v1h-1z M31,99h1v1h-1z M33,99h1v1h-1z M35,99h1v1h-1z M38,99h1v1h-1z M39,99h1v1h-1z M40,99h1v1h-1z M41,99h1v1h-1z M42,99h1v1h-1z M45,99h1v1h-1z M47,99h1v1h-1z M52,99h1v1h-1z M53,99h1v1h-1z M61,99h1v1h-1z M63,99h1v1h-1z M64,99h1v1h-1z M65,99h1v1h-1z M66,99h1v1h-1z M71,99h1v1h-1z M73,99h1v1h-1z M76,99h1v1h-1z M78,99h1v1h-1z M80,99h1v1h-1z M82,99h1v1h-1z M83,99h1v1h-1z M85,99h1v1h-1z M87,99h1v1h-1z M88,99h1v1h-1z M90,99h1v1h-1z M97,99h1v1h-1z M98,99h1v1h-1z M99,99h1v1h-1z M103,99h1v1h-1z M104,99h1v1h-1z M105,99h1v1h-1z M106,99h1v1h-1z M7,100h1v1h-1z M8,100h1v1h-1z M10,100h1v1h-1z M11,100h1v1h-1z M12,100h1v1h-1z M16,100h1v1h-1z M17,100h1v1h-1z M18,100h1v1h-1z M25,100h1v1h-1z M26,100h1v1h-1z M28,100h1v1h-1z M29,100h1v1h-1z M30,100h1v1h-1z M31,100h1v1h-1z M32,100h1v1h-1z M33,100h1v1h-1z M34,100h1v1h-1z M36,100h1v1h-1z M37,100h1v1h-1z M40,100h1v1h-1z M41,100h1v1h-1z M42,100h1v1h-1z M43,100h1v1h-1z M46,100h1v1h-1z M47,100h1v1h-1z M48,100h1v1h-1z M49,100h1v1h-1z M52,100h1v1h-1z M53,100h1v1h-1z M54,100h1v1h-1z M55,100h1v1h-1z M56,100h1v1h-1z M57,100h1v1h-1z M58,100h1v1h-1z M61,100h1v1h-1z M63,100h1v1h-1z M73,100h1v1h-1z M76,100h1v1h-1z M77,100h1v1h-1z M78,100h1v1h-1z M79,100h1v1h-1z M80,100h1v1h-1z M81,100h1v1h-1z M82,100h1v1h-1z M83,100h1v1h-1z M85,100h1v1h-1z M89,100h1v1h-1z M93,100h1v1h-1z M94,100h1v1h-1z M95,100h1v1h-1z M98,100h1v1h-1z M100,100h1v1h-1z M101,100h1v1h-1z M102,100h1v1h-1z M103,100h1v1h-1z M104,100h1v1h-1z M106,100h1v1h-1z M107,100h1v1h-1z M12,101h1v1h-1z M13,101h1v1h-1z M14,101h1v1h-1z M17,101h1v1h-1z M24,101h1v1h-1z M25,101h1v1h-1z M26,101h1v1h-1z M27,101h1v1h-1z M28,101h1v1h-1z M32,101h1v1h-1z M33,101h1v1h-1z M34,101h1v1h-1z M35,101h1v1h-1z M37,101h1v1h-1z M39,101h1v1h-1z M40,101h1v1h-1z M41,101h1v1h-1z M43,101h1v1h-1z M44,101h1v1h-1z M47,101h1v1h-1z M48,101h1v1h-1z M49,101h1v1h-1z M50,101h1v1h-1z M51,101h1v1h-1z M52,101h1v1h-1z M56,101h1v1h-1z M58,101h1v1h-1z M60,101h1v1h-1z M64,101h1v1h-1z M65,101h1v1h-1z M67,101h1v1h-1z M68,101h1v1h-1z M69,101h1v1h-1z M71,101h1v1h-1z M73,101h1v1h-1z M74,101h1v1h-1z M75,101h1v1h-1z M76,101h1v1h-1z M80,101h1v1h-1z M82,101h1v1h-1z M83,101h1v1h-1z M85,101h1v1h-1z M87,101h1v1h-1z M90,101h1v1h-1z M91,101h1v1h-1z M92,101h1v1h-1z M93,101h1v1h-1z M94,101h1v1h-1z M95,101h1v1h-1z M97,101h1v1h-1z M98,101h1v1h-1z M99,101h1v1h-1z M100,101h1v1h-1z M104,101h1v1h-1z M105,101h1v1h-1z M107,101h1v1h-1z M4,102h1v1h-1z M5,102h1v1h-1z M6,102h1v1h-1z M7,102h1v1h-1z M8,102h1v1h-1z M9,102h1v1h-1z M10,102h1v1h-1z M12,102h1v1h-1z M13,102h1v1h-1z M15,102h1v1h-1z M16,102h1v1h-1z M18,102h1v1h-1z M21,102h1v1h-1z M28,102h1v1h-1z M30,102h1v1h-1z M32,102h1v1h-1z M34,102h1v1h-1z M36,102h1v1h-1z M39,102h1v1h-1z M40,102h1v1h-1z M41,102h1v1h-1z M44,102h1v1h-1z M45,102h1v1h-1z M46,102h1v1h-1z M48,102h1v1h-1z M52,102h1v1h-1z M54,102h1v1h-1z M56,102h1v1h-1z M57,102h1v1h-1z M58,102h1v1h-1z M59,102h1v1h-1z M60,102h1v1h-1z M65,102h1v1h-1z M68,102h1v1h-1z M69,102h1v1h-1z M70,102h1v1h-1z M71,102h1v1h-1z M72,102h1v1h-1z M76,102h1v1h-1z M78,102h1v1h-1z M80,102h1v1h-1z M81,102h1v1h-1z M82,102h1v1h-1z M87,102h1v1h-1z M88,102h1v1h-1z M89,102h1v1h-1z M91,102h1v1h-1z M92,102h1v1h-1z M93,102h1v1h-1z M94,102h1v1h-1z M95,102h1v1h-1z M96,102h1v1h-1z M99,102h1v1h-1z M100,102h1v1h-1z M102,102h1v1h-1z M104,102h1v1h-1z M105,102h1v1h-1z M107,102h1v1h-1z M4,103h1v1h-1z M10,103h1v1h-1z M13,103h1v1h-1z M14,103h1v1h-1z M15,103h1v1h-1z M17,103h1v1h-1z M18,103h1v1h-1z M20,103h1v1h-1z M21,103h1v1h-1z M23,103h1v1h-1z M24,103h1v1h-1z M27,103h1v1h-1z M28,103h1v1h-1z M32,103h1v1h-1z M33,103h1v1h-1z M35,103h1v1h-1z M37,103h1v1h-1z M38,103h1v1h-1z M39,103h1v1h-1z M40,103h1v1h-1z M42,103h1v1h-1z M43,103h1v1h-1z M45,103h1v1h-1z M46,103h1v1h-1z M47,103h1v1h-1z M49,103h1v1h-1z M51,103h1v1h-1z M52,103h1v1h-1z M56,103h1v1h-1z M61,103h1v1h-1z M62,103h1v1h-1z M63,103h1v1h-1z M64,103h1v1h-1z M66,103h1v1h-1z M69,103h1v1h-1z M73,103h1v1h-1z M74,103h1v1h-1z M75,103h1v1h-1z M76,103h1v1h-1z M80,103h1v1h-1z M82,103h1v1h-1z M83,103h1v1h-1z M86,103h1v1h-1z M87,103h1v1h-1z M88,103h1v1h-1z M89,103h1v1h-1z M90,103h1v1h-1z M97,103h1v1h-1z M98,103h1v1h-1z M100,103h1v1h-1z M104,103h1v1h-1z M106,103h1v1h-1z M107,103h1v1h-1z M4,104h1v1h-1z M6,104h1v1h-1z M7,104h1v1h-1z M8,104h1v1h-1z M10,104h1v1h-1z M12,104h1v1h-1z M13,104h1v1h-1z M14,104h1v1h-1z M16,104h1v1h-1z M17,104h1v1h-1z M19,104h1v1h-1z M21,104h1v1h-1z M26,104h1v1h-1z M28,104h1v1h-1z M29,104h1v1h-1z M30,104h1v1h-1z M31,104h1v1h-1z M32,104h1v1h-1z M33,104h1v1h-1z M34,104h1v1h-1z M38,104h1v1h-1z M40,104h1v1h-1z M41,104h1v1h-1z M43,104h1v1h-1z M44,104h1v1h-1z M45,104h1v1h-1z M46,104h1v1h-1z M48,104h1v1h-1z M49,104h1v1h-1z M52,104h1v1h-1z M53,104h1v1h-1z M54,104h1v1h-1z M55,104h1v1h-1z M56,104h1v1h-1z M61,104h1v1h-1z M62,104h1v1h-1z M63,104h1v1h-1z M64,104h1v1h-1z M68,104h1v1h-1z M69,104h1v1h-1z M70,104h1v1h-1z M72,104h1v1h-1z M73,104h1v1h-1z M75,104h1v1h-1z M76,104h1v1h-1z M77,104h1v1h-1z M78,104h1v1h-1z M79,104h1v1h-1z M80,104h1v1h-1z M83,104h1v1h-1z M85,104h1v1h-1z M87,104h1v1h-1z M88,104h1v1h-1z M89,104h1v1h-1z M93,104h1v1h-1z M94,104h1v1h-1z M97,104h1v1h-1z M99,104h1v1h-1z M100,104h1v1h-1z M101,104h1v1h-1z M102,104h1v1h-1z M103,104h1v1h-1z M104,104h1v1h-1z M105,104h1v1h-1z M4,105h1v1h-1z M6,105h1v1h-1z M7,105h1v1h-1z M8,105h1v1h-1z M10,105h1v1h-1z M12,105h1v1h-1z M13,105h1v1h-1z M16,105h1v1h-1z M17,105h1v1h-1z M18,105h1v1h-1z M24,105h1v1h-1z M27,105h1v1h-1z M30,105h1v1h-1z M38,105h1v1h-1z M40,105h1v1h-1z M43,105h1v1h-1z M44,105h1v1h-1z M48,105h1v1h-1z M52,105h1v1h-1z M55,105h1v1h-1z M57,105h1v1h-1z M58,105h1v1h-1z M60,105h1v1h-1z M61,105h1v1h-1z M64,105h1v1h-1z M66,105h1v1h-1z M67,105h1v1h-1z M70,105h1v1h-1z M72,105h1v1h-1z M74,105h1v1h-1z M75,105h1v1h-1z M77,105h1v1h-1z M80,105h1v1h-1z M82,105h1v1h-1z M84,105h1v1h-1z M87,105h1v1h-1z M89,105h1v1h-1z M91,105h1v1h-1z M94,105h1v1h-1z M96,105h1v1h-1z M97,105h1v1h-1z M98,105h1v1h-1z M101,105h1v1h-1z M103,105h1v1h-1z M104,105h1v1h-1z M106,105h1v1h-1z M4,106h1v1h-1z M6,106h1v1h-1z M7,106h1v1h-1z M8,106h1v1h-1z M10,106h1v1h-1z M12,106h1v1h-1z M15,106h1v1h-1z M17,106h1v1h-1z M20,106h1v1h-1z M26,106h1v1h-1z M27,106h1v1h-1z M31,106h1v1h-1z M32,106h1v1h-1z M33,106h1v1h-1z M34,106h1v1h-1z M40,106h1v1h-1z M41,106h1v1h-1z M45,106h1v1h-1z M46,106h1v1h-1z M49,106h1v1h-1z M53,106h1v1h-1z M56,106h1v1h-1z M57,106h1v1h-1z M58,106h1v1h-1z M59,106h1v1h-1z M64,106h1v1h-1z M65,106h1v1h-1z M69,106h1v1h-1z M70,106h1v1h-1z M72,106h1v1h-1z M75,106h1v1h-1z M80,106h1v1h-1z M81,106h1v1h-1z M82,106h1v1h-1z M83,106h1v1h-1z M84,106h1v1h-1z M87,106h1v1h-1z M88,106h1v1h-1z M89,106h1v1h-1z M94,106h1v1h-1z M95,106h1v1h-1z M99,106h1v1h-1z M100,106h1v1h-1z M102,106h1v1h-1z M106,106h1v1h-1z M4,107h1v1h-1z M10,107h1v1h-1z M12,107h1v1h-1z M13,107h1v1h-1z M14,107h1v1h-1z M15,107h1v1h-1z M19,107h1v1h-1z M20,107h1v1h-1z M21,107h1v1h-1z M22,107h1v1h-1z M23,107h1v1h-1z M24,107h1v1h-1z M25,107h1v1h-1z M28,107h1v1h-1z M29,107h1v1h-1z M30,107h1v1h-1z M33,107h1v1h-1z M35,107h1v1h-1z M38,107h1v1h-1z M39,107h1v1h-1z M40,107h1v1h-1z M42,107h1v1h-1z M45,107h1v1h-1z M47,107h1v1h-1z M50,107h1v1h-1z M51,107h1v1h-1z M52,107h1v1h-1z M57,107h1v1h-1z M59,107h1v1h-1z M61,107h1v1h-1z M62,107h1v1h-1z M63,107h1v1h-1z M64,107h1v1h-1z M66,107h1v1h-1z M71,107h1v1h-1z M74,107h1v1h-1z M75,107h1v1h-1z M76,107h1v1h-1z M77,107h1v1h-1z M78,107h1v1h-1z M79,107h1v1h-1z M82,107h1v1h-1z M87,107h1v1h-1z M88,107h1v1h-1z M93,107h1v1h-1z M95,107h1v1h-1z M97,107h1v1h-1z M101,107h1v1h-1z M103,107h1v1h-1z M104,107h1v1h-1z M105,107h1v1h-1z M106,107h1v1h-1z M4,108h1v1h-1z M5,108h1v1h-1z M6,108h1v1h-1z M7,108h1v1h-1z M8,108h1v1h-1z M9,108h1v1h-1z M10,108h1v1h-1z M12,108h1v1h-1z M13,108h1v1h-1z M15,108h1v1h-1z M16,108h1v1h-1z M17,108h1v1h-1z M20,108h1v1h-1z M21,108h1v1h-1z M22,108h1v1h-1z M23,108h1v1h-1z M24,108h1v1h-1z M27,108h1v1h-1z M30,108h1v1h-1z M31,108h1v1h-1z M37,108h1v1h-1z M38,108h1v1h-1z M39,108h1v1h-1z M40,108h1v1h-1z M42,108h1v1h-1z M46,108h1v1h-1z M47,108h1v1h-1z M48,108h1v1h-1z M51,108h1v1h-1z M59,108h1v1h-1z M61,108h1v1h-1z M62,108h1v1h-1z M64,108h1v1h-1z M65,108h1v1h-1z M67,108h1v1h-1z M71,108h1v1h-1z M75,108h1v1h-1z M76,108h1v1h-1z M77,108h1v1h-1z M78,108h1v1h-1z M79,108h1v1h-1z M81,108h1v1h-1z M82,108h1v1h-1z M83,108h1v1h-1z M84,108h1v1h-1z M85,108h1v1h-1z M90,108h1v1h-1z M95,108h1v1h-1z M96,108h1v1h-1z M100,108h1v1h-1z M101,108h1v1h-1z M102,108h1v1h-1z M107,108h1v1h-1z" fill="#000000"/>
</svg>
