<?xml version="1.0" encoding="UTF-8"?>
<!DOCTYPE svg PUBLIC "-//W3C//DTD SVG 1.1//EN" "http://www.w3.org/Graphics/SVG/1.1/DTD/svg11.dtd">
<svg xmlns="http://www.w3.org/2000/svg" version="1.1" viewBox="0 0 113 113" stroke="none">
	<rect width="100%" height="100%" fill="#FFFFFF"/>
	<path d="M4,4h1v1h-1z M5,4h1v1h-1z M6,4h1v1h-1z M7,4h1v1h-1z M8,4h1v1h-1z M9,4h1v1h-1z M10,4h1v1h-1z M15,4h1v1h-1z M16,4h1v1h-1z M18,4h1v1h-1z M19,4h1v1h-1z M21,4h1v1h-1z M22,4h1v1h-1z M23,4h1v1h-1z M28,4h1v1h-1z M31,4h1v1h-1z M32,4h1v1h-1z M33,4h1v1h-1z M35,4h1v1h-1z M36,4h1v1h-1z M38,4h1v1h-1z M39,4h1v1h-1z M50,4h1v1h-1z M51,4h1v1h-1z M53,4h1v1h-1z M55,4h1v1h-1z M56,4h1v1h-1z M57,4h1v1h-1z M58,4h1v1h-1z M61,4h1v1h-1z M62,4h1v1h-1z M63,4h1v1h-1z M65,4h1v1h-1z M67,4h1v1h-1z M68,4h1v1h-1z M70,4h1v1h-1z M71,4h1v1h-1z M72,4h1v1h-1z M78,4h1v1h-1z M79,4h1v1h-1z M83,4h1v1h-1z M87,4h1v1h-1z M88,4h1v1h-1z M90,4h1v1h-1z M93,4h1v1h-1z M98,4h1v1h-1z M102,4h1v1h-1z M103,4h1v1h-1z M104,4h1v1h-1z M105,4h1v1h-1z M106,4h1v1h-1z M107,4h1v1h-1z M108,4h1v1h-1z M4,5h1v1h-1z M10,5h1v1h-1z M12,5h1v1h-1z M14,5h1v1h-1z M15,5h1v1h-1z M17,5h1v1h-1z M18,5h1v1h-1z M20,5h1v1h-1z M22,5h1v1h-1z M23,5h1v1h-1z M24,5h1v1h-1z M25,5h1v1h-1z M31,5h1v1h-1z M32,5h1v1h-1z M33,5h1v1h-1z M34,5h1v1h-1z M35,5h1v1h-1z M36,5h1v1h-1z M39,5h1v1h-1z M41,5h1v1h-1z M44,5h1v1h-1z M45,5h1v1h-1z M46,5h1v1h-1z M47,5h1v1h-1z M49,5h1v1h-1z M51,5h1v1h-1z M52,5h1v1h-1z M53,5h1v1h-1z M56,5h1v1h-1z M58,5h1v1h-1z M59,5h1v1h-1z M65,5h1v1h-1z M67,5h1v1h-1z M68,5h1v1h-1z M69,5h1v1h-1z M70,5h1v1h-1z M71,5h1v1h-1z M72,5h1v1h-1z M79,5h1v1h-1z M81,5h1v1h-1z M82,5h1v1h-1z M83,5h1v1h-1z M84,5h1v1h-1z M85,5h1v1h-1z M87,5h1v1h-1z M88,5h1v1h-1z M89,5h1v1h-1z M92,5h1v1h-1z M93,5h1v1h-1z M94,5h1v1h-1z M96,5h1v1h-1z M98,5h1v1h-1z M102,5h1v1h-1z M108,5h1v1h-1z M4,6h1v1h-1z M6,6h1v1h-1z M7,6h1v1h-1z M8,6h1v1h-1z M10,6h1v1h-1z M14,6h1v1h-1z M19,6h1v1h-1z M23,6h1v1h-1z M24,6h1v1h-1z M25,6h1v1h-1z M27,6h1v1h-1z M28,6h1v1h-1z M29,6h1v1h-1z M30,6h1v1h-1z M37,6h1v1h-1z M38,6h1v1h-1z M40,6h1v1h-1z M41,6h1v1h-1z M43,6h1v1h-1z M47,6h1v1h-1z M50,6h1v1h-1z M51,6h1v1h-1z M52,6h1v1h-1z M54,6h1v1h-1z M57,6h1v1h-1z M59,6h1v1h-1z M62,6h1v1h-1z M64,6h1v1h-1z M66,6h1v1h-1z M70,6h1v1h-1z M71,6h1v1h-1z M73,6h1v1h-1z M75,6h1v1h-1z M76,6h1v1h-1z M77,6h1v1h-1z M78,6h1v1h-1z M82,6h1v1h-1z M86,6h1v1h-1z M87,6h1v1h-1z M88,6h1v1h-1z M91,6h1v1h-1z M95,6h1v1h-1z M97,6h1v1h-1z M98,6h1v1h-1z M99,6h1v1h-1z M102,6h1v1h-1z M104,6h1v1h-1z M105,6h1v1h-1z M106,6h1v1h-1z M108,6h1v1h-1z M4,7h1v1h-1z M6,7h1v1h-1z M7,7h1v1h-1z M8,7h1v1h-1z M10,7h1v1h-1z M12,7h1v1h-1z M16,7h1v1h-1z M18,7h1v1h-1z M19,7h1v1h-1z M21,7h1v1h-1z M22,7h1v1h-1z M26,7h1v1h-1z M27,7h1v1h-1z M28,7h1v1h-1z M35,7h1v1h-1z M36,7h1v1h-1z M41,7h1v1h-1z M43,7h1v1h-1z M48,7h1v1h-1z M49,7h1v1h-1z M51,7h1v1h-1z M52,7h1v1h-1z M54,7h1v1h-1z M55,7h1v1h-1z M56,7h1v1h-1z M58,7h1v1h-1z M60,7h1v1h-1z M61,7h1v1h-1z M63,7h1v1h-1z M64,7h1v1h-1z M67,7h1v1h-1z M68,7h1v1h-1z M70,7h1v1h-1z M73,7h1v1h-1z M76,7h1v1h-1z M80,7h1v1h-1z M81,7h1v1h-1z M83,7h1v1h-1z M85,7h1v1h-1z M87,7h1v1h-1z M88,7h1v1h-1z M89,7h1v1h-1z M91,7h1v1h-1z M94,7h1v1h-1z M95,7h1v1h-1z M96,7h1v1h-1z M97,7h1v1h-1z M100,7h1v1h-1z M102,7h1v1h-1z M104,7h1v1h-1z M105,7h1v1h-1z M106,7h1v1h-1z M108,7h1v1h-1z M4,8h1v1h-1z M6,8h1v1h-1z M7,8h1v1h-1z M8,8h1v1h-1z M10,8h1v1h-1z M13,8h1v1h-1z M15,8h1v1h-1z M16,8h1v1h-1z M17,8h1v1h-1z M18,8h1v1h-1z M19,8h1v1h-1z M20,8h1v1h-1z M21,8h1v1h-1z M24,8h1v1h-1z M26,8h1v1h-1z M28,8h1v1h-1z M29,8h1v1h-1z M30,8h1v1h-1z M31,8h1v1h-1z M32,8h1v1h-1z M34,8h1v1h-1z M38,8h1v1h-1z M40,8h1v1h-1z M45,8h1v1h-1z M51,8h1v1h-1z M52,8h1v1h-1z M53,8h1v1h-1z M54,8h1v1h-1z M55,8h1v1h-1z M56,8h1v1h-1z M57,8h1v1h-1z M58,8h1v1h-1z M59,8h1v1h-1z M60,8h1v1h-1z M62,8h1v1h-1z M64,8h1v1h-1z M67,8h1v1h-1z M70,8h1v1h-1z M76,8h1v1h-1z M77,8h1v1h-1z M78,8h1v1h-1z M79,8h1v1h-1z M80,8h1v1h-1z M82,8h1v1h-1z M85,8h1v1h-1z M86,8h1v1h-1z M88,8h1v1h-1z M89,8h1v1h-1z M91,8h1v1h-1z M93,8h1v1h-1z M94,8h1v1h-1z M95,8h1v1h-1z M97,8h1v1h-1z M99,8h1v1h-1z M100,8h1v1h-1z M102,8h1v1h-1z M104,8h1v1h-1z M105,8h1v1h-1z M106,8h1v1h-1z M108,8h1v1h-1z M4,9h1v1h-1z M10,9h1v1h-1z M12,9h1v1h-1z M13,9h1v1h-1z M15,9h1v1h-1z M17,9h1v1h-1z M20,9h1v1h-1z M21,9h1v1h-1z M22,9h1v1h-1z M23,9h1v1h-1z M24,9h1v1h-1z M28,9h1v1h-1z M32,9h1v1h-1z M33,9h1v1h-1z M34,9h1v1h-1z M35,9h1v1h-1z M36,9h1v1h-1z M41,9h1v1h-1z M44,9h1v1h-1z M45,9h1v1h-1z M46,9h1v1h-1z M51,9h1v1h-1z M52,9h1v1h-1z M56,9h1v1h-1z M57,9h1v1h-1z M58,9h1v1h-1z M59,9h1v1h-1z M60,9h1v1h-1z M61,9h1v1h-1z M63,9h1v1h-1z M64,9h1v1h-1z M68,9h1v1h-1z M70,9h1v1h-1z M71,9h1v1h-1z M72,9h1v1h-1z M75,9h1v1h-1z M76,9h1v1h-1z M80,9h1v1h-1z M81,9h1v1h-1z M82,9h1v1h-1z M84,9h1v1h-1z M87,9h1v1h-1z M92,9h1v1h-1z M94,9h1v1h-1z M96,9h1v1h-1z M99,9h1v1h-1z M102,9h1v1h-1z M108,9h1v1h-1z M4,10h1v1h-1z M5,10h1v1h-1z M6,10h1v1h-1z M7,10h1v1h-1z M8,10h1v1h-1z M9,10h1v1h-1z M10,10h1v1h-1z M12,10h1v1h-1z M14,10h1v1h-1z M16,10h1v1h-1z M18,10h1v1h-1z M20,10h1v1h-1z M22,10h1v1h-1z M24,10h1v1h-1z M26,10h1v1h-1z M28,10h1v1h-1z M30,10h1v1h-1z M32,10h1v1h-1z M34,10h1v1h-1z M36,10h1v1h-1z M38,10h1v1h-1z M40,10h1v1h-1z M42,10h1v1h-1z M44,10h1v1h-1z M46,10h1v1h-1z M48,10h1v1h-1z M50,10h1v1h-1z M52,10h1v1h-1z M54,10h1v1h-1z M56,10h1v1h-1z M58,10h1v1h-1z M60,10h1v1h-1z M62,10h1v1h-1z M64,10h1v1h-1z M66,10h1v1h-1z M68,10h1v1h-1z M70,10h1v1h-1z M72,10h1v1h-1z M74,10h1v1h-1z M76,10h1v1h-1z M78,10h1v1h-1z M80,10h1v1h-1z M82,10h1v1h-1z M84,10h1v1h-1z M86,10h1v1h-1z M88,10h1v1h-1z M90,10h1v1h-1z M92,10h1v1h-1z M94,10h1v1h-1z M96,10h1v1h-1z M98,10h1v1h-1z M100,10h1v1h-1z M102,10h1v1h-1z M103,10h1v1h-1z M104,10h1v1h-1z M105,10h1v1h-1z M106,10h1v1h-1z M107,10h1v1h-1z M108,10h1v1h-1z M13,11h1v1h-1z M17,11h1v1h-1z M18,11h1v1h-1z M20,11h1v1h-1z M22,11h1v1h-1z M24,11h1v1h-1z M25,11h1v1h-1z M26,11h1v1h-1z M27,11h1v1h-1z M28,11h1v1h-1z M32,11h1v1h-1z M34,11h1v1h-1z M35,11h1v1h-1z M37,11h1v1h-1z M38,11h1v1h-1z M40,11h1v1h-1z M41,11h1v1h-1z M42,11h1v1h-1z M47,11h1v1h-1z M49,11h1v1h-1z M52,11h1v1h-1z M56,11h1v1h-1z M61,11h1v1h-1z M62,11h1v1h-1z M63,11h1v1h-1z M64,11h1v1h-1z M65,11h1v1h-1z M66,11h1v1h-1z M67,11h1v1h-1z M69,11h1v1h-1z M73,11h1v1h-1z M74,11h1v1h-1z M75,11h1v1h-1z M76,11h1v1h-1z M80,11h1v1h-1z M83,11h1v1h-1z M88,11h1v1h-1z M90,11h1v1h-1z M91,11h1v1h-1z M93,11h1v1h-1z M95,11h1v1h-1z M98,11h1v1h-1z M99,11h1v1h-1z M4,12h1v1h-1z M5,12h1v1h-1z M6,12h1v1h-1z M7,12h1v1h-1z M8,12h1v1h-1z M10,12h1v1h-1z M11,12h1v1h-1z M12,12h1v1h-1z M13,12h1v1h-1z M16,12h1v1h-1z M17,12h1v1h-1z M18,12h1v1h-1z M20,12h1v1h-1z M22,12h1v1h-1z M23,12h1v1h-1z M24,12h1v1h-1z M27,12h1v1h-1z M28,12h1v1h-1z M29,12h1v1h-1z M30,12h1v1h-1z M31,12h1v1h-1z M32,12h1v1h-1z M33,12h1v1h-1z M34,12h1v1h-1z M36,12h1v1h-1z M37,12h1v1h-1z M38,12h1v1h-1z M39,12h1v1h-1z M40,12h1v1h-1z M43,12h1v1h-1z M44,12h1v1h-1z M49,12h1v1h-1z M52,12h1v1h-1z M53,12h1v1h-1z M54,12h1v1h-1z M55,12h1v1h-1z M56,12h1v1h-1z M57,12h1v1h-1z M59,12h1v1h-1z M60,12h1v1h-1z M65,12h1v1h-1z M66,12h1v1h-1z M67,12h1v1h-1z M68,12h1v1h-1z M71,12h1v1h-1z M72,12h1v1h-1z M73,12h1v1h-1z M74,12h1v1h-1z M76,12h1v1h-1z M77,12h1v1h-1z M78,12h1v1h-1z M79,12h1v1h-1z M80,12h1v1h-1z M82,12h1v1h-1z M83,12h1v1h-1z M84,12h1v1h-1z M85,12h1v1h-1z M86,12h1v1h-1z M87,12h1v1h-1z M88,12h1v1h-1z M89,12h1v1h-1z M91,12h1v1h-1z M92,12h1v1h-1z M93,12h1v1h-1z M94,12h1v1h-1z M95,12h1v1h-1z M97,12h1v1h-1z M98,12h1v1h-1z M100,12h1v1h-1z M101,12h1v1h-1z M103,12h1v1h-1z M105,12h1v1h-1z M107,12h1v1h-1z M5,13h1v1h-1z M6,13h1v1h-1z M7,13h1v1h-1z M8,13h1v1h-1z M12,13h1v1h-1z M15,13h1v1h-1z M16,13h1v1h-1z M21,13h1v1h-1z M22,13h1v1h-1z M28,13h1v1h-1z M31,13h1v1h-1z M35,13h1v1h-1z M37,13h1v1h-1z M38,13h1v1h-1z M39,13h1v1h-1z M42,13h1v1h-1z M43,13h1v1h-1z M47,13h1v1h-1z M49,13h1v1h-1z M50,13h1v1h-1z M51,13h1v1h-1z M52,13h1v1h-1z M55,13h1v1h-1z M58,13h1v1h-1z M59,13h1v1h-1z M61,13h1v1h-1z M63,13h1v1h-1z M64,13h1v1h-1z M66,13h1v1h-1z M67,13h1v1h-1z M70,13h1v1h-1z M71,13h1v1h-1z M73,13h1v1h-1z M74,13h1v1h-1z M75,13h1v1h-1z M76,13h1v1h-1z M78,13h1v1h-1z M79,13h1v1h-1z M83,13h1v1h-1z M85,13h1v1h-1z M87,13h1v1h-1z M88,13h1v1h-1z M94,13h1v1h-1z M95,13h1v1h-1z M99,13h1v1h-1z M101,13h1v1h-1z M103,13h1v1h-1z M104,13h1v1h-1z M106,13h1v1h-1z M107,13h1v1h-1z M5,14h1v1h-1z M6,14h1v1h-1z M9,14h1v1h-1z M10,14h1v1h-1z M17,14h1v1h-1z M18,14h1v1h-1z M21,14h1v1h-1z M24,14h1v1h-1z M25,14h1v1h-1z M27,14h1v1h-1z M29,14h1v1h-1z M31,14h1v1h-1z M33,14h1v1h-1z M34,14h1v1h-1z M35,14h1v1h-1z M36,14h1v1h-1z M39,14h1v1h-1z M41,14h1v1h-1z M44,14h1v1h-1z M45,14h1v1h-1z M46,14h1v1h-1z M51,14h1v1h-1z M53,14h1v1h-1z M57,14h1v1h-1z M58,14h1v1h-1z M60,14h1v1h-1z M63,14h1v1h-1z M65,14h1v1h-1z M68,14h1v1h-1z M69,14h1v1h-1z M70,14h1v1h-1z M71,14h1v1h-1z M77,14h1v1h-1z M79,14h1v1h-1z M81,14h1v1h-1z M82,14h1v1h-1z M83,14h1v1h-1z M84,14h1v1h-1z M88,14h1v1h-1z M89,14h1v1h-1z M91,14h1v1h-1z M93,14h1v1h-1z M94,14h1v1h-1z M95,14h1v1h-1z M100,14h1v1h-1z M103,14h1v1h-1z M107,14h1v1h-1z M9,15h1v1h-1z M11,15h1v1h-1z M12,15h1v1h-1z M16,15h1v1h-1z M18,15h1v1h-1z M20,15h1v1h-1z M24,15h1v1h-1z M26,15h1v1h-1z M28,15h1v1h-1z M29,15h1v1h-1z M30,15h1v1h-1z M33,15h1v1h-1z M37,15h1v1h-1z M40,15h1v1h-1z M42,15h1v1h-1z M43,15h1v1h-1z M46,15h1v1h-1z M47,15h1v1h-1z M50,15h1v1h-1z M51,15h1v1h-1z M52,15h1v1h-1z M54,15h1v1h-1z M57,15h1v1h-1z M58,15h1v1h-1z M59,15h1v1h-1z M61,15h1v1h-1z M64,15h1v1h-1z M65,15h1v1h-1z M66,15h1v1h-1z M67,15h1v1h-1z M71,15h1v1h-1z M73,15h1v1h-1z M74,15h1v1h-1z M77,15h1v1h-1z M78,15h1v1h-1z M81,15h1v1h-1z M86,15h1v1h-1z M87,15h1v1h-1z M88,15h1v1h-1z M90,15h1v1h-1z M95,15h1v1h-1z M97,15h1v1h-1z M98,15h1v1h-1z M99,15h1v1h-1z M101,15h1v1h-1z M105,15h1v1h-1z M106,15h1v1h-1z M108,15h1v1h-1z M5,16h1v1h-1z M7,16h1v1h-1z M9,16h1v1h-1z M10,16h1v1h-1z M15,16h1v1h-1z M18,16h1v1h-1z M19,16h1v1h-1z M20,16h1v1h-1z M21,16h1v1h-1z M22,16h1v1h-1z M23,16h1v1h-1z M24,16h1v1h-1z M25,16h1v1h-1z M27,16h1v1h-1z M29,16h1v1h-1z M30,16h1v1h-1z M34,16h1v1h-1z M35,16h1v1h-1z M36,16h1v1h-1z M37,16h1v1h-1z M39,16h1v1h-1z M41,16h1v1h-1z M42,16h1v1h-1z M44,16h1v1h-1z M45,16h1v1h-1z M46,16h1v1h-1z M47,16h1v1h-1z M48,16h1v1h-1z M49,16h1v1h-1z M52,16h1v1h-1z M53,16h1v1h-1z M54,16h1v1h-1z M55,16h1v1h-1z M56,16h1v1h-1z M57,16h1v1h-1z M58,16h1v1h-1z M59,16h1v1h-1z M60,16h1v1h-1z M61,16h1v1h-1z M62,16h1v1h-1z M63,16h1v1h-1z M64,16h1v1h-1z M65,16h1v1h-1z M66,16h1v1h-1z M67,16h1v1h-1z M69,16h1v1h-1z M70,16h1v1h-1z M71,16h1v1h-1z M72,16h1v1h-1z M73,16h1v1h-1z M77,16h1v1h-1z M78,16h1v1h-1z M79,16h1v1h-1z M80,16h1v1h-1z M82,16h1v1h-1z M84,16h1v1h-1z M85,16h1v1h-1z M86,16h1v1h-1z M90,16h1v1h-1z M91,16h1v1h-1z M92,16h1v1h-1z M93,16h1v1h-1z M95,16h1v1h-1z M97,16h1v1h-1z M100,16h1v1h-1z M101,16h1v1h-1z M102,16h1v1h-1z M105,16h1v1h-1z M106,16h1v1h-1z M4,17h1v1h-1z M5,17h1v1h-1z M6,17h1v1h-1z M9,17h1v1h-1z M12,17h1v1h-1z M13,17h1v1h-1z M15,17h1v1h-1z M16,17h1v1h-1z M17,17h1v1h-1z M19,17h1v1h-1z M20,17h1v1h-1z M21,17h1v1h-1z M22,17h1v1h-1z M24,17h1v1h-1z M26,17h1v1h-1z M28,17h1v1h-1z M29,17h1v1h-1z M30,17h1v1h-1z M34,17h1v1h-1z M35,17h1v1h-1z M36,17h1v1h-1z M37,17h1v1h-1z M39,17h1v1h-1z M40,17h1v1h-1z M43,17h1v1h-1z M45,17h1v1h-1z M46,17h1v1h-1z M47,17h1v1h-1z M48,17h1v1h-1z M50,17h1v1h-1z M51,17h1v1h-1z M52,17h1v1h-1z M53,17h1v1h-1z M54,17h1v1h-1z M58,17h1v1h-1z M59,17h1v1h-1z M61,17h1v1h-1z M64,17h1v1h-1z M65,17h1v1h-1z M66,17h1v1h-1z M67,17h1v1h-1z M68,17h1v1h-1z M69,17h1v1h-1z M75,17h1v1h-1z M76,17h1v1h-1z M77,17h1v1h-1z M78,17h1v1h-1z M80,17h1v1h-1z M82,17h1v1h-1z M89,17h1v1h-1z M92,17h1v1h-1z M96,17h1v1h-1z M97,17h1v1h-1z M98,17h1v1h-1z M99,17h1v1h-1z M103,17h1v1h-1z M104,17h1v1h-1z M105,17h1v1h-1z M5,18h1v1h-1z M6,18h1v1h-1z M9,18h1v1h-1z M10,18h1v1h-1z M12,18h1v1h-1z M13,18h1v1h-1z M16,18h1v1h-1z M17,18h1v1h-1z M18,18h1v1h-1z M20,18h1v1h-1z M21,18h1v1h-1z M23,18h1v1h-1z M24,18h1v1h-1z M25,18h1v1h-1z M28,18h1v1h-1z M29,18h1v1h-1z M31,18h1v1h-1z M32,18h1v1h-1z M33,18h1v1h-1z M34,18h1v1h-1z M35,18h1v1h-1z M36,18h1v1h-1z M40,18h1v1h-1z M41,18h1v1h-1z M43,18h1v1h-1z M44,18h1v1h-1z M45,18h1v1h-1z M46,18h1v1h-1z M47,18h1v1h-1z M48,18h1v1h-1z M52,18h1v1h-1z M53,18h1v1h-1z M56,18h1v1h-1z M57,18h1v1h-1z M58,18h1v1h-1z M60,18h1v1h-1z M63,18h1v1h-1z M65,18h1v1h-1z M68,18h1v1h-1z M69,18h1v1h-1z M70,18h1v1h-1z M77,18h1v1h-1z M79,18h1v1h-1z M80,18h1v1h-1z M81,18h1v1h-1z M82,18h1v1h-1z M83,18h1v1h-1z M84,18h1v1h-1z M87,18h1v1h-1z M93,18h1v1h-1z M94,18h1v1h-1z M95,18h1v1h-1z M97,18h1v1h-1z M99,18h1v1h-1z M100,18h1v1h-1z M105,18h1v1h-1z M107,18h1v1h-1z M4,19h1v1h-1z M6,19h1v1h-1z M11,19h1v1h-1z M13,19h1v1h-1z M15,19h1v1h-1z M16,19h1v1h-1z M17,19h1v1h-1z M19,19h1v1h-1z M20,19h1v1h-1z M22,19h1v1h-1z M23,19h1v1h-1z M26,19h1v1h-1z M28,19h1v1h-1z M30,19h1v1h-1z M33,19h1v1h-1z M34,19h1v1h-1z M35,19h1v1h-1z M39,19h1v1h-1z M40,19h1v1h-1z M41,19h1v1h-1z M42,19h1v1h-1z M47,19h1v1h-1z M49,19h1v1h-1z M50,19h1v1h-1z M52,19h1v1h-1z M53,19h1v1h-1z M55,19h1v1h-1z M57,19h1v1h-1z M58,19h1v1h-1z M59,19h1v1h-1z M61,19h1v1h-1z M62,19h1v1h-1z M64,19h1v1h-1z M65,19h1v1h-1z M66,19h1v1h-1z M67,19h1v1h-1z M71,19h1v1h-1z M74,19h1v1h-1z M75,19h1v1h-1z M76,19h1v1h-1z M88,19h1v1h-1z M90,19h1v1h-1z M94,19h1v1h-1z M95,19h1v1h-1z M98,19h1v1h-1z M99,19h1v1h-1z M100,19h1v1h-1z M103,19h1v1h-1z M104,19h1v1h-1z M105,19h1v1h-1z M106,19h1v1h-1z M108,19h1v1h-1z M4,20h1v1h-1z M5,20h1v1h-1z M7,20h1v1h-1z M10,20h1v1h-1z M12,20h1v1h-1z M13,20h1v1h-1z M14,20h1v1h-1z M16,20h1v1h-1z M21,20h1v1h-1z M22,20h1v1h-1z M23,20h1v1h-1z M27,20h1v1h-1z M32,20h1v1h-1z M34,20h1v1h-1z M35,20h1v1h-1z M36,20h1v1h-1z M37,20h1v1h-1z M38,20h1v1h-1z M41,20h1v1h-1z M45,20h1v1h-1z M47,20h1v1h-1z M48,20h1v1h-1z M52,20h1v1h-1z M54,20h1v1h-1z M56,20h1v1h-1z M57,20h1v1h-1z M58,20h1v1h-1z M59,20h1v1h-1z M60,20h1v1h-1z M61,20h1v1h-1z M62,20h1v1h-1z M70,20h1v1h-1z M71,20h1v1h-1z M73,20h1v1h-1z M75,20h1v1h-1z M77,20h1v1h-1z M79,20h1v1h-1z M80,20h1v1h-1z M81,20h1v1h-1z M82,20h1v1h-1z M84,20h1v1h-1z M85,20h1v1h-1z M88,20h1v1h-1z M93,20h1v1h-1z M95,20h1v1h-1z M98,20h1v1h-1z M99,20h1v1h-1z M100,20h1v1h-1z M101,20h1v1h-1z M102,20h1v1h-1z M105,20h1v1h-1z M107,20h1v1h-1z M108,20h1v1h-1z M5,21h1v1h-1z M6,21h1v1h-1z M11,21h1v1h-1z M13,21h1v1h-1z M15,21h1v1h-1z M17,21h1v1h-1z M19,21h1v1h-1z M20,21h1v1h-1z M21,21h1v1h-1z M23,21h1v1h-1z M24,21h1v1h-1z M25,21h1v1h-1z M28,21h1v1h-1z M29,21h1v1h-1z M30,21h1v1h-1z M31,21h1v1h-1z M34,21h1v1h-1z M35,21h1v1h-1z M38,21h1v1h-1z M44,21h1v1h-1z M46,21h1v1h-1z M47,21h1v1h-1z M48,21h1v1h-1z M49,21h1v1h-1z M50,21h1v1h-1z M51,21h1v1h-1z M52,21h1v1h-1z M53,21h1v1h-1z M58,21h1v1h-1z M59,21h1v1h-1z M61,21h1v1h-1z M63,21h1v1h-1z M64,21h1v1h-1z M66,21h1v1h-1z M67,21h1v1h-1z M69,21h1v1h-1z M70,21h1v1h-1z M72,21h1v1h-1z M73,21h1v1h-1z M74,21h1v1h-1z M76,21h1v1h-1z M77,21h1v1h-1z M78,21h1v1h-1z M79,21h1v1h-1z M80,21h1v1h-1z M82,21h1v1h-1z M84,21h1v1h-1z M85,21h1v1h-1z M86,21h1v1h-1z M87,21h1v1h-1z M88,21h1v1h-1z M90,21h1v1h-1z M91,21h1v1h-1z M92,21h1v1h-1z M96,21h1v1h-1z M97,21h1v1h-1z M101,21h1v1h-1z M104,21h1v1h-1z M4,22h1v1h-1z M7,22h1v1h-1z M8,22h1v1h-1z M9,22h1v1h-1z M10,22h1v1h-1z M13,22h1v1h-1z M16,22h1v1h-1z M22,22h1v1h-1z M24,22h1v1h-1z M33,22h1v1h-1z M34,22h1v1h-1z M35,22h1v1h-1z M40,22h1v1h-1z M44,22h1v1h-1z M45,22h1v1h-1z M46,22h1v1h-1z M49,22h1v1h-1z M52,22h1v1h-1z M55,22h1v1h-1z M57,22h1v1h-1z M58,22h1v1h-1z M60,22h1v1h-1z M63,22h1v1h-1z M65,22h1v1h-1z M68,22h1v1h-1z M69,22h1v1h-1z M70,22h1v1h-1z M72,22h1v1h-1z M75,22h1v1h-1z M77,22h1v1h-1z M80,22h1v1h-1z M81,22h1v1h-1z M82,22h1v1h-1z M83,22h1v1h-1z M84,22h1v1h-1z M87,22h1v1h-1z M94,22h1v1h-1z M96,22h1v1h-1z M99,22h1v1h-1z M102,22h1v1h-1z M103,22h1v1h-1z M105,22h1v1h-1z M106,22h1v1h-1z M107,22h1v1h-1z M4,23h1v1h-1z M6,23h1v1h-1z M8,23h1v1h-1z M9,23h1v1h-1z M12,23h1v1h-1z M13,23h1v1h-1z M14,23h1v1h-1z M15,23h1v1h-1z M17,23h1v1h-1z M22,23h1v1h-1z M23,23h1v1h-1z M28,23h1v1h-1z M29,23h1v1h-1z M30,23h1v1h-1z M33,23h1v1h-1z M35,23h1v1h-1z M38,23h1v1h-1z M39,23h1v1h-1z M40,23h1v1h-1z M41,23h1v1h-1z M42,23h1v1h-1z M45,23h1v1h-1z M46,23h1v1h-1z M47,23h1v1h-1z M50,23h1v1h-1z M51,23h1v1h-1z M52,23h1v1h-1z M54,23h1v1h-1z M59,23h1v1h-1z M62,23h1v1h-1z M64,23h1v1h-1z M66,23h1v1h-1z M69,23h1v1h-1z M71,23h1v1h-1z M76,23h1v1h-1z M77,23h1v1h-1z M78,23h1v1h-1z M83,23h1v1h-1z M86,23h1v1h-1z M88,23h1v1h-1z M89,23h1v1h-1z M90,23h1v1h-1z M93,23h1v1h-1z M95,23h1v1h-1z M97,23h1v1h-1z M98,23h1v1h-1z M99,23h1v1h-1z M101,23h1v1h-1z M103,23h1v1h-1z M104,23h1v1h-1z M106,23h1v1h-1z M107,23h1v1h-1z M108,23h1v1h-1z M5,24h1v1h-1z M7,24h1v1h-1z M8,24h1v1h-1z M10,24h1v1h-1z M11,24h1v1h-1z M12,24h1v1h-1z M15,24h1v1h-1z M18,24h1v1h-1z M19,24h1v1h-1z M20,24h1v1h-1z M21,24h1v1h-1z M23,24h1v1h-1z M24,24h1v1h-1z M25,24h1v1h-1z M28,24h1v1h-1z M30,24h1v1h-1z M31,24h1v1h-1z M34,24h1v1h-1z M37,24h1v1h-1z M38,24h1v1h-1z M42,24h1v1h-1z M44,24h1v1h-1z M46,24h1v1h-1z M48,24h1v1h-1z M51,24h1v1h-1z M56,24h1v1h-1z M57,24h1v1h-1z M58,24h1v1h-1z M59,24h1v1h-1z M60,24h1v1h-1z M64,24h1v1h-1z M66,24h1v1h-1z M69,24h1v1h-1z M70,24h1v1h-1z M72,24h1v1h-1z M73,24h1v1h-1z M74,24h1v1h-1z M76,24h1v1h-1z M80,24h1v1h-1z M81,24h1v1h-1z M82,24h1v1h-1z M84,24h1v1h-1z M87,24h1v1h-1z M89,24h1v1h-1z M91,24h1v1h-1z M92,24h1v1h-1z M94,24h1v1h-1z M95,24h1v1h-1z M99,24h1v1h-1z M100,24h1v1h-1z M103,24h1v1h-1z M105,24h1v1h-1z M107,24h1v1h-1z M108,24h1v1h-1z M6,25h1v1h-1z M7,25h1v1h-1z M9,25h1v1h-1z M13,25h1v1h-1z M15,25h1v1h-1z M16,25h1v1h-1z M19,25h1v1h-1z M20,25h1v1h-1z M21,25h1v1h-1z M23,25h1v1h-1z M25,25h1v1h-1z M26,25h1v1h-1z M27,25h1v1h-1z M28,25h1v1h-1z M29,25h1v1h-1z M31,25h1v1h-1z M32,25h1v1h-1z M36,25h1v1h-1z M38,25h1v1h-1z M39,25h1v1h-1z M40,25h1v1h-1z M42,25h1v1h-1z M43,25h1v1h-1z M44,25h1v1h-1z M47,25h1v1h-1z M49,25h1v1h-1z M52,25h1v1h-1z M54,25h1v1h-1z M55,25h1v1h-1z M59,25h1v1h-1z M60,25h1v1h-1z M67,25h1v1h-1z M68,25h1v1h-1z M69,25h1v1h-1z M70,25h1v1h-1z M75,25h1v1h-1z M76,25h1v1h-1z M80,25h1v1h-1z M81,25h1v1h-1z M83,25h1v1h-1z M87,25h1v1h-1z M88,25h1v1h-1z M90,25h1v1h-1z M91,25h1v1h-1z M93,25h1v1h-1z M94,25h1v1h-1z M95,25h1v1h-1z M97,25h1v1h-1z M99,25h1v1h-1z M101,25h1v1h-1z M102,25h1v1h-1z M103,25h1v1h-1z M104,25h1v1h-1z M105,25h1v1h-1z M108,25h1v1h-1z M4,26h1v1h-1z M5,26h1v1h-1z M6,26h1v1h-1z M7,26h1v1h-1z M10,26h1v1h-1z M17,26h1v1h-1z M18,26h1v1h-1z M21,26h1v1h-1z M23,26h1v1h-1z M25,26h1v1h-1z M28,26h1v1h-1z M31,26h1v1h-1z M33,26h1v1h-1z M34,26h1v1h-1z M35,26h1v1h-1z M36,26h1v1h-1z M37,26h1v1h-1z M39,26h1v1h-1z M41,26h1v1h-1z M43,26h1v1h-1z M46,26h1v1h-1z M51,26h1v1h-1z M53,26h1v1h-1z M56,26h1v1h-1z M57,26h1v1h-1z M58,26h1v1h-1z M61,26h1v1h-1z M65,26h1v1h-1z M67,26h1v1h-1z M68,26h1v1h-1z M69,26h1v1h-1z M70,26h1v1h-1z M71,26h1v1h-1z M73,26h1v1h-1z M75,26h1v1h-1z M77,26h1v1h-1z M80,26h1v1h-1z M81,26h1v1h-1z M82,26h1v1h-1z M83,26h1v1h-1z M84,26h1v1h-1z M87,26h1v1h-1z M89,26h1v1h-1z M91,26h1v1h-1z M93,26h1v1h-1z M94,26h1v1h-1z M96,26h1v1h-1z M97,26h1v1h-1z M100,26h1v1h-1z M107,26h1v1h-1z M4,27h1v1h-1z M8,27h1v1h-1z M9,27h1v1h-1z M12,27h1v1h-1z M14,27h1v1h-1z M15,27h1v1h-1z M18,27h1v1h-1z M20,27h1v1h-1z M22,27h1v1h-1z M24,27h1v1h-1z M26,27h1v1h-1z M29,27h1v1h-1z M30,27h1v1h-1z M33,27h1v1h-1z M35,27h1v1h-1z M38,27h1v1h-1z M40,27h1v1h-1z M41,27h1v1h-1z M45,27h1v1h-1z M47,27h1v1h-1z M52,27h1v1h-1z M53,27h1v1h-1z M54,27h1v1h-1z M55,27h1v1h-1z M59,27h1v1h-1z M62,27h1v1h-1z M63,27h1v1h-1z M64,27h1v1h-1z M66,27h1v1h-1z M69,27h1v1h-1z M71,27h1v1h-1z M73,27h1v1h-1z M74,27h1v1h-1z M75,27h1v1h-1z M78,27h1v1h-1z M79,27h1v1h-1z M83,27h1v1h-1z M87,27h1v1h-1z M88,27h1v1h-1z M89,27h1v1h-1z M90,27h1v1h-1z M93,27h1v1h-1z M94,27h1v1h-1z M95,27h1v1h-1z M98,27h1v1h-1z M100,27h1v1h-1z M101,27h1v1h-1z M103,27h1v1h-1z M104,27h1v1h-1z M105,27h1v1h-1z M106,27h1v1h-1z M108,27h1v1h-1z M4,28h1v1h-1z M5,28h1v1h-1z M6,28h1v1h-1z M7,28h1v1h-1z M8,28h1v1h-1z M9,28h1v1h-1z M10,28h1v1h-1z M11,28h1v1h-1z M12,28h1v1h-1z M13,28h1v1h-1z M17,28h1v1h-1z M20,28h1v1h-1z M21,28h1v1h-1z M23,28h1v1h-1z M24,28h1v1h-1z M26,28h1v1h-1z M28,28h1v1h-1z M29,28h1v1h-1z M30,28h1v1h-1z M31,28h1v1h-1z M32,28h1v1h-1z M33,28h1v1h-1z M34,28h1v1h-1z M39,28h1v1h-1z M40,28h1v1h-1z M41,28h1v1h-1z M44,28h1v1h-1z M45,28h1v1h-1z M46,28h1v1h-1z M49,28h1v1h-1z M50,28h1v1h-1z M51,28h1v1h-1z M52,28h1v1h-1z M53,28h1v1h-1z M54,28h1v1h-1z M55,28h1v1h-1z M56,28h1v1h-1z M57,28h1v1h-1z M58,28h1v1h-1z M63,28h1v1h-1z M64,28h1v1h-1z M67,28h1v1h-1z M71,28h1v1h-1z M76,28h1v1h-1z M77,28h1v1h-1z M78,28h1v1h-1z M79,28h1v1h-1z M80,28h1v1h-1z M81,28h1v1h-1z M82,28h1v1h-1z M86,28h1v1h-1z M89,28h1v1h-1z M92,28h1v1h-1z M94,28h1v1h-1z M95,28h1v1h-1z M96,28h1v1h-1z M97,28h1v1h-1z M99,28h1v1h-1z M100,28h1v1h-1z M101,28h1v1h-1z M102,28h1v1h-1z M103,28h1v1h-1z M104,28h1v1h-1z M105,28h1v1h-1z M106,28h1v1h-1z M107,28h1v1h-1z M5,29h1v1h-1z M6,29h1v1h-1z M8,29h1v1h-1z M12,29h1v1h-1z M13,29h1v1h-1z M14,29h1v1h-1z M18,29h1v1h-1z M19,29h1v1h-1z M22,29h1v1h-1z M23,29h1v1h-1z M24,29h1v1h-1z M25,29h1v1h-1z M27,29h1v1h-1z M28,29h1v1h-1z M32,29h1v1h-1z M34,29h1v1h-1z M36,29h1v1h-1z M37,29h1v1h-1z M38,29h1v1h-1z M43,29h1v1h-1z M44,29h1v1h-1z M48,29h1v1h-1z M49,29h1v1h-1z M52,29h1v1h-1z M56,29h1v1h-1z M58,29h1v1h-1z M59,29h1v1h-1z M60,29h1v1h-1z M65,29h1v1h-1z M66,29h1v1h-1z M70,29h1v1h-1z M73,29h1v1h-1z M74,29h1v1h-1z M76,29h1v1h-1z M80,29h1v1h-1z M84,29h1v1h-1z M86,29h1v1h-1z M91,29h1v1h-1z M96,29h1v1h-1z M97,29h1v1h-1z M98,29h1v1h-1z M100,29h1v1h-1z M104,29h1v1h-1z M105,29h1v1h-1z M108,29h1v1h-1z M4,30h1v1h-1z M5,30h1v1h-1z M7,30h1v1h-1z M8,30h1v1h-1z M10,30h1v1h-1z M12,30h1v1h-1z M15,30h1v1h-1z M17,30h1v1h-1z M18,30h1v1h-1z M21,30h1v1h-1z M22,30h1v1h-1z M23,30h1v1h-1z M28,30h1v1h-1z M30,30h1v1h-1z M32,30h1v1h-1z M33,30h1v1h-1z M34,30h1v1h-1z M40,30h1v1h-1z M43,30h1v1h-1z M45,30h1v1h-1z M46,30h1v1h-1z M49,30h1v1h-1z M51,30h1v1h-1z M52,30h1v1h-1z M54,30h1v1h-1z M56,30h1v1h-1z M58,30h1v1h-1z M60,30h1v1h-1z M63,30h1v1h-1z M65,30h1v1h-1z M67,30h1v1h-1z M68,30h1v1h-1z M69,30h1v1h-1z M70,30h1v1h-1z M72,30h1v1h-1z M75,30h1v1h-1z M76,30h1v1h-1z M78,30h1v1h-1z M80,30h1v1h-1z M81,30h1v1h-1z M82,30h1v1h-1z M83,30h1v1h-1z M88,30h1v1h-1z M89,30h1v1h-1z M93,30h1v1h-1z M94,30h1v1h-1z M100,30h1v1h-1z M102,30h1v1h-1z M104,30h1v1h-1z M105,30h1v1h-1z M106,30h1v1h-1z M107,30h1v1h-1z M5,31h1v1h-1z M7,31h1v1h-1z M8,31h1v1h-1z M12,31h1v1h-1z M13,31h1v1h-1z M14,31h1v1h-1z M15,31h1v1h-1z M17,31h1v1h-1z M18,31h1v1h-1z M19,31h1v1h-1z M21,31h1v1h-1z M23,31h1v1h-1z M24,31h1v1h-1z M26,31h1v1h-1z M28,31h1v1h-1z M32,31h1v1h-1z M35,31h1v1h-1z M37,31h1v1h-1z M39,31h1v1h-1z M40,31h1v1h-1z M41,31h1v1h-1z M42,31h1v1h-1z M46,31h1v1h-1z M47,31h1v1h-1z M50,31h1v1h-1z M52,31h1v1h-1z M56,31h1v1h-1z M57,31h1v1h-1z M59,31h1v1h-1z M61,31h1v1h-1z M63,31h1v1h-1z M64,31h1v1h-1z M65,31h1v1h-1z M66,31h1v1h-1z M70,31h1v1h-1z M71,31h1v1h-1z M73,31h1v1h-1z M76,31h1v1h-1z M80,31h1v1h-1z M83,31h1v1h-1z M86,31h1v1h-1z M87,31h1v1h-1z M88,31h1v1h-1z M90,31h1v1h-1z M95,31h1v1h-1z M99,31h1v1h-1z M100,31h1v1h-1z M104,31h1v1h-1z M105,31h1v1h-1z M106,31h1v1h-1z M107,31h1v1h-1z M108,31h1v1h-1z M4,32h1v1h-1z M8,32h1v1h-1z M9,32h1v1h-1z M10,32h1v1h-1z M11,32h1v1h-1z M12,32h1v1h-1z M19,32h1v1h-1z M21,32h1v1h-1z M24,32h1v1h-1z M26,32h1v1h-1z M28,32h1v1h-1z M29,32h1v1h-1z M30,32h1v1h-1z M31,32h1v1h-1z M32,32h1v1h-1z M34,32h1v1h-1z M35,32h1v1h-1z M36,32h1v1h-1z M37,32h1v1h-1z M38,32h1v1h-1z M39,32h1v1h-1z M40,32h1v1h-1z M41,32h1v1h-1z M44,32h1v1h-1z M45,32h1v1h-1z M46,32h1v1h-1z M50,32h1v1h-1z M52,32h1v1h-1z M53,32h1v1h-1z M54,32h1v1h-1z M55,32h1v1h-1z M56,32h1v1h-1z M57,32h1v1h-1z M58,32h1v1h-1z M61,32h1v1h-1z M63,32h1v1h-1z M64,32h1v1h-1z M65,32h1v1h-1z M70,32h1v1h-1z M73,32h1v1h-1z M75,32h1v1h-1z M76,32h1v1h-1z M77,32h1v1h-1z M78,32h1v1h-1z M79,32h1v1h-1z M80,32h1v1h-1z M81,32h1v1h-1z M83,32h1v1h-1z M87,32h1v1h-1z M88,32h1v1h-1z M91,32h1v1h-1z M94,32h1v1h-1z M95,32h1v1h-1z M96,32h1v1h-1z M97,32h1v1h-1z M99,32h1v1h-1z M100,32h1v1h-1z M101,32h1v1h-1z M102,32h1v1h-1z M103,32h1v1h-1z M104,32h1v1h-1z M105,32h1v1h-1z M107,32h1v1h-1z M4,33h1v1h-1z M6,33h1v1h-1z M9,33h1v1h-1z M11,33h1v1h-1z M12,33h1v1h-1z M15,33h1v1h-1z M18,33h1v1h-1z M23,33h1v1h-1z M24,33h1v1h-1z M25,33h1v1h-1z M26,33h1v1h-1z M28,33h1v1h-1z M30,33h1v1h-1z M38,33h1v1h-1z M39,33h1v1h-1z M40,33h1v1h-1z M42,33h1v1h-1z M43,33h1v1h-1z M45,33h1v1h-1z M46,33h1v1h-1z M47,33h1v1h-1z M49,33h1v1h-1z M50,33h1v1h-1z M57,33h1v1h-1z M58,33h1v1h-1z M59,33h1v1h-1z M64,33h1v1h-1z M70,33h1v1h-1z M71,33h1v1h-1z M74,33h1v1h-1z M76,33h1v1h-1z M78,33h1v1h-1z M79,33h1v1h-1z M82,33h1v1h-1z M83,33h1v1h-1z M84,33h1v1h-1z M85,33h1v1h-1z M87,33h1v1h-1z M88,33h1v1h-1z M89,33h1v1h-1z M95,33h1v1h-1z M97,33h1v1h-1z M100,33h1v1h-1z M101,33h1v1h-1z M108,33h1v1h-1z M7,34h1v1h-1z M9,34h1v1h-1z M10,34h1v1h-1z M12,34h1v1h-1z M13,34h1v1h-1z M14,34h1v1h-1z M17,34h1v1h-1z M18,34h1v1h-1z M19,34h1v1h-1z M20,34h1v1h-1z M22,34h1v1h-1z M23,34h1v1h-1z M24,34h1v1h-1z M26,34h1v1h-1z M31,34h1v1h-1z M32,34h1v1h-1z M33,34h1v1h-1z M34,34h1v1h-1z M36,34h1v1h-1z M39,34h1v1h-1z M40,34h1v1h-1z M45,34h1v1h-1z M46,34h1v1h-1z M48,34h1v1h-1z M53,34h1v1h-1z M54,34h1v1h-1z M58,34h1v1h-1z M63,34h1v1h-1z M68,34h1v1h-1z M69,34h1v1h-1z M70,34h1v1h-1z M71,34h1v1h-1z M72,34h1v1h-1z M76,34h1v1h-1z M81,34h1v1h-1z M82,34h1v1h-1z M84,34h1v1h-1z M87,34h1v1h-1z M93,34h1v1h-1z M94,34h1v1h-1z M96,34h1v1h-1z M97,34h1v1h-1z M99,34h1v1h-1z M101,34h1v1h-1z M102,34h1v1h-1z M103,34h1v1h-1z M107,34h1v1h-1z M4,35h1v1h-1z M5,35h1v1h-1z M12,35h1v1h-1z M14,35h1v1h-1z M15,35h1v1h-1z M17,35h1v1h-1z M20,35h1v1h-1z M21,35h1v1h-1z M25,35h1v1h-1z M27,35h1v1h-1z M29,35h1v1h-1z M31,35h1v1h-1z M33,35h1v1h-1z M35,35h1v1h-1z M39,35h1v1h-1z M40,35h1v1h-1z M41,35h1v1h-1z M42,35h1v1h-1z M45,35h1v1h-1z M50,35h1v1h-1z M51,35h1v1h-1z M52,35h1v1h-1z M56,35h1v1h-1z M57,35h1v1h-1z M59,35h1v1h-1z M61,35h1v1h-1z M62,35h1v1h-1z M64,35h1v1h-1z M66,35h1v1h-1z M69,35h1v1h-1z M71,35h1v1h-1z M75,35h1v1h-1z M77,35h1v1h-1z M79,35h1v1h-1z M80,35h1v1h-1z M83,35h1v1h-1z M85,35h1v1h-1z M87,35h1v1h-1z M88,35h1v1h-1z M89,35h1v1h-1z M90,35h1v1h-1z M94,35h1v1h-1z M95,35h1v1h-1z M98,35h1v1h-1z M101,35h1v1h-1z M105,35h1v1h-1z M106,35h1v1h-1z M108,35h1v1h-1z M4,36h1v1h-1z M7,36h1v1h-1z M8,36h1v1h-1z M9,36h1v1h-1z M10,36h1v1h-1z M11,36h1v1h-1z M12,36h1v1h-1z M14,36h1v1h-1z M15,36h1v1h-1z M18,36h1v1h-1z M25,36h1v1h-1z M26,36h1v1h-1z M34,36h1v1h-1z M35,36h1v1h-1z M37,36h1v1h-1z M38,36h1v1h-1z M39,36h1v1h-1z M40,36h1v1h-1z M41,36h1v1h-1z M43,36h1v1h-1z M45,36h1v1h-1z M46,36h1v1h-1z M53,36h1v1h-1z M54,36h1v1h-1z M55,36h1v1h-1z M61,36h1v1h-1z M62,36h1v1h-1z M63,36h1v1h-1z M64,36h1v1h-1z M65,36h1v1h-1z M71,36h1v1h-1z M72,36h1v1h-1z M73,36h1v1h-1z M76,36h1v1h-1z M82,36h1v1h-1z M83,36h1v1h-1z M89,36h1v1h-1z M91,36h1v1h-1z M93,36h1v1h-1z M94,36h1v1h-1z M96,36h1v1h-1z M99,36h1v1h-1z M100,36h1v1h-1z M101,36h1v1h-1z M105,36h1v1h-1z M108,36h1v1h-1z M4,37h1v1h-1z M8,37h1v1h-1z M11,37h1v1h-1z M13,37h1v1h-1z M14,37h1v1h-1z M16,37h1v1h-1z M17,37h1v1h-1z M19,37h1v1h-1z M20,37h1v1h-1z M22,37h1v1h-1z M23,37h1v1h-1z M28,37h1v1h-1z M29,37h1v1h-1z M31,37h1v1h-1z M32,37h1v1h-1z M33,37h1v1h-1z M35,37h1v1h-1z M40,37h1v1h-1z M41,37h1v1h-1z M42,37h1v1h-1z M43,37h1v1h-1z M46,37h1v1h-1z M47,37h1v1h-1z M51,37h1v1h-1z M52,37h1v1h-1z M56,37h1v1h-1z M57,37h1v1h-1z M58,37h1v1h-1z M59,37h1v1h-1z M62,37h1v1h-1z M64,37h1v1h-1z M66,37h1v1h-1z M70,37h1v1h-1z M71,37h1v1h-1z M72,37h1v1h-1z M73,37h1v1h-1z M74,37h1v1h-1z M78,37h1v1h-1z M79,37h1v1h-1z M82,37h1v1h-1z M83,37h1v1h-1z M87,37h1v1h-1z M90,37h1v1h-1z M91,37h1v1h-1z M94,37h1v1h-1z M97,37h1v1h-1z M99,37h1v1h-1z M101,37h1v1h-1z M103,37h1v1h-1z M106,37h1v1h-1z M107,37h1v1h-1z M7,38h1v1h-1z M9,38h1v1h-1z M10,38h1v1h-1z M14,38h1v1h-1z M16,38h1v1h-1z M18,38h1v1h-1z M25,38h1v1h-1z M26,38h1v1h-1z M28,38h1v1h-1z M31,38h1v1h-1z M33,38h1v1h-1z M34,38h1v1h-1z M36,38h1v1h-1z M43,38h1v1h-1z M45,38h1v1h-1z M46,38h1v1h-1z M47,38h1v1h-1z M53,38h1v1h-1z M55,38h1v1h-1z M56,38h1v1h-1z M58,38h1v1h-1z M59,38h1v1h-1z M61,38h1v1h-1z M65,38h1v1h-1z M68,38h1v1h-1z M69,38h1v1h-1z M70,38h1v1h-1z M73,38h1v1h-1z M76,38h1v1h-1z M77,38h1v1h-1z M81,38h1v1h-1z M82,38h1v1h-1z M83,38h1v1h-1z M89,38h1v1h-1z M91,38h1v1h-1z M93,38h1v1h-1z M94,38h1v1h-1z M95,38h1v1h-1z M99,38h1v1h-1z M100,38h1v1h-1z M101,38h1v1h-1z M102,38h1v1h-1z M103,38h1v1h-1z M107,38h1v1h-1z M4,39h1v1h-1z M9,39h1v1h-1z M11,39h1v1h-1z M12,39h1v1h-1z M13,39h1v1h-1z M16,39h1v1h-1z M20,39h1v1h-1z M22,39h1v1h-1z M26,39h1v1h-1z M29,39h1v1h-1z M31,39h1v1h-1z M32,39h1v1h-1z M33,39h1v1h-1z M35,39h1v1h-1z M37,39h1v1h-1z M39,39h1v1h-1z M40,39h1v1h-1z M42,39h1v1h-1z M46,39h1v1h-1z M47,39h1v1h-1z M49,39h1v1h-1z M50,39h1v1h-1z M51,39h1v1h-1z M53,39h1v1h-1z M55,39h1v1h-1z M56,39h1v1h-1z M57,39h1v1h-1z M59,39h1v1h-1z M61,39h1v1h-1z M62,39h1v1h-1z M63,39h1v1h-1z M64,39h1v1h-1z M65,39h1v1h-1z M66,39h1v1h-1z M67,39h1v1h-1z M69,39h1v1h-1z M70,39h1v1h-1z M71,39h1v1h-1z M74,39h1v1h-1z M75,39h1v1h-1z M77,39h1v1h-1z M79,39h1v1h-1z M80,39h1v1h-1z M82,39h1v1h-1z M83,39h1v1h-1z M85,39h1v1h-1z M87,39h1v1h-1z M88,39h1v1h-1z M90,39h1v1h-1z M93,39h1v1h-1z M94,39h1v1h-1z M95,39h1v1h-1z M97,39h1v1h-1z M100,39h1v1h-1z M101,39h1v1h-1z M102,39h1v1h-1z M105,39h1v1h-1z M106,39h1v1h-1z M107,39h1v1h-1z M108,39h1v1h-1z M4,40h1v1h-1z M5,40h1v1h-1z M6,40h1v1h-1z M7,40h1v1h-1z M8,40h1v1h-1z M9,40h1v1h-1z M10,40h1v1h-1z M13,40h1v1h-1z M21,40h1v1h-1z M23,40h1v1h-1z M38,40h1v1h-1z M40,40h1v1h-1z M43,40h1v1h-1z M44,40h1v1h-1z M45,40h1v1h-1z M46,40h1v1h-1z M47,40h1v1h-1z M49,40h1v1h-1z M52,40h1v1h-1z M53,40h1v1h-1z M54,40h1v1h-1z M55,40h1v1h-1z M58,40h1v1h-1z M59,40h1v1h-1z M61,40h1v1h-1z M64,40h1v1h-1z M65,40h1v1h-1z M67,40h1v1h-1z M69,40h1v1h-1z M72,40h1v1h-1z M73,40h1v1h-1z M76,40h1v1h-1z M77,40h1v1h-1z M79,40h1v1h-1z M81,40h1v1h-1z M84,40h1v1h-1z M85,40h1v1h-1z M86,40h1v1h-1z M89,40h1v1h-1z M91,40h1v1h-1z M92,40h1v1h-1z M96,40h1v1h-1z M97,40h1v1h-1z M98,40h1v1h-1z M100,40h1v1h-1z M101,40h1v1h-1z M104,40h1v1h-1z M105,40h1v1h-1z M106,40h1v1h-1z M107,40h1v1h-1z M4,41h1v1h-1z M7,41h1v1h-1z M12,41h1v1h-1z M13,41h1v1h-1z M15,41h1v1h-1z M18,41h1v1h-1z M19,41h1v1h-1z M20,41h1v1h-1z M22,41h1v1h-1z M26,41h1v1h-1z M28,41h1v1h-1z M31,41h1v1h-1z M33,41h1v1h-1z M35,41h1v1h-1z M37,41h1v1h-1z M38,41h1v1h-1z M39,41h1v1h-1z M42,41h1v1h-1z M43,41h1v1h-1z M45,41h1v1h-1z M49,41h1v1h-1z M50,41h1v1h-1z M52,41h1v1h-1z M55,41h1v1h-1z M57,41h1v1h-1z M58,41h1v1h-1z M60,41h1v1h-1z M61,41h1v1h-1z M63,41h1v1h-1z M64,41h1v1h-1z M65,41h1v1h-1z M69,41h1v1h-1z M70,41h1v1h-1z M74,41h1v1h-1z M80,41h1v1h-1z M87,41h1v1h-1z M88,41h1v1h-1z M90,41h1v1h-1z M91,41h1v1h-1z M93,41h1v1h-1z M94,41h1v1h-1z M97,41h1v1h-1z M100,41h1v1h-1z M102,41h1v1h-1z M103,41h1v1h-1z M105,41h1v1h-1z M106,41h1v1h-1z M4,42h1v1h-1z M8,42h1v1h-1z M10,42h1v1h-1z M11,42h1v1h-1z M14,42h1v1h-1z M18,42h1v1h-1z M19,42h1v1h-1z M24,42h1v1h-1z M25,42h1v1h-1z M28,42h1v1h-1z M29,42h1v1h-1z M31,42h1v1h-1z M32,42h1v1h-1z M34,42h1v1h-1z M35,42h1v1h-1z M36,42h1v1h-1z M37,42h1v1h-1z M39,42h1v1h-1z M43,42h1v1h-1z M45,42h1v1h-1z M46,42h1v1h-1z M47,42h1v1h-1z M48,42h1v1h-1z M52,42h1v1h-1z M53,42h1v1h-1z M54,42h1v1h-1z M57,42h1v1h-1z M58,42h1v1h-1z M64,42h1v1h-1z M65,42h1v1h-1z M67,42h1v1h-1z M68,42h1v1h-1z M70,42h1v1h-1z M71,42h1v1h-1z M72,42h1v1h-1z M76,42h1v1h-1z M78,42h1v1h-1z M81,42h1v1h-1z M82,42h1v1h-1z M84,42h1v1h-1z M87,42h1v1h-1z M88,42h1v1h-1z M89,42h1v1h-1z M92,42h1v1h-1z M93,42h1v1h-1z M94,42h1v1h-1z M95,42h1v1h-1z M96,42h1v1h-1z M99,42h1v1h-1z M103,42h1v1h-1z M104,42h1v1h-1z M105,42h1v1h-1z M107,42h1v1h-1z M7,43h1v1h-1z M8,43h1v1h-1z M9,43h1v1h-1z M11,43h1v1h-1z M15,43h1v1h-1z M17,43h1v1h-1z M21,43h1v1h-1z M22,43h1v1h-1z M23,43h1v1h-1z M27,43h1v1h-1z M28,43h1v1h-1z M32,43h1v1h-1z M33,43h1v1h-1z M38,43h1v1h-1z M39,43h1v1h-1z M40,43h1v1h-1z M41,43h1v1h-1z M42,43h1v1h-1z M46,43h1v1h-1z M47,43h1v1h-1z M53,43h1v1h-1z M55,43h1v1h-1z M57,43h1v1h-1z M59,43h1v1h-1z M62,43h1v1h-1z M63,43h1v1h-1z M64,43h1v1h-1z M69,43h1v1h-1z M73,43h1v1h-1z M74,43h1v1h-1z M75,43h1v1h-1z M77,43h1v1h-1z M80,43h1v1h-1z M81,43h1v1h-1z M82,43h1v1h-1z M83,43h1v1h-1z M87,43h1v1h-1z M88,43h1v1h-1z M91,43h1v1h-1z M93,43h1v1h-1z M94,43h1v1h-1z M98,43h1v1h-1z M100,43h1v1h-1z M101,43h1v1h-1z M102,43h1v1h-1z M105,43h1v1h-1z M106,43h1v1h-1z M107,43h1v1h-1z M108,43h1v1h-1z M4,44h1v1h-1z M5,44h1v1h-1z M7,44h1v1h-1z M10,44h1v1h-1z M11,44h1v1h-1z M12,44h1v1h-1z M13,44h1v1h-1z M14,44h1v1h-1z M15,44h1v1h-1z M17,44h1v1h-1z M21,44h1v1h-1z M24,44h1v1h-1z M27,44h1v1h-1z M28,44h1v1h-1z M29,44h1v1h-1z M30,44h1v1h-1z M31,44h1v1h-1z M35,44h1v1h-1z M37,44h1v1h-1z M38,44h1v1h-1z M40,44h1v1h-1z M41,44h1v1h-1z M44,44h1v1h-1z M45,44h1v1h-1z M48,44h1v1h-1z M50,44h1v1h-1z M53,44h1v1h-1z M59,44h1v1h-1z M61,44h1v1h-1z M62,44h1v1h-1z M67,44h1v1h-1z M68,44h1v1h-1z M70,44h1v1h-1z M72,44h1v1h-1z M76,44h1v1h-1z M77,44h1v1h-1z M78,44h1v1h-1z M79,44h1v1h-1z M82,44h1v1h-1z M84,44h1v1h-1z M85,44h1v1h-1z M88,44h1v1h-1z M89,44h1v1h-1z M90,44h1v1h-1z M95,44h1v1h-1z M99,44h1v1h-1z M104,44h1v1h-1z M107,44h1v1h-1z M108,44h1v1h-1z M6,45h1v1h-1z M7,45h1v1h-1z M8,45h1v1h-1z M12,45h1v1h-1z M14,45h1v1h-1z M15,45h1v1h-1z M17,45h1v1h-1z M19,45h1v1h-1z M26,45h1v1h-1z M28,45h1v1h-1z M29,45h1v1h-1z M31,45h1v1h-1z M32,45h1v1h-1z M33,45h1v1h-1z M34,45h1v1h-1z M40,45h1v1h-1z M41,45h1v1h-1z M42,45h1v1h-1z M47,45h1v1h-1z M50,45h1v1h-1z M52,45h1v1h-1z M54,45h1v1h-1z M55,45h1v1h-1z M56,45h1v1h-1z M58,45h1v1h-1z M59,45h1v1h-1z M62,45h1v1h-1z M64,45h1v1h-1z M69,45h1v1h-1z M70,45h1v1h-1z M75,45h1v1h-1z M77,45h1v1h-1z M79,45h1v1h-1z M80,45h1v1h-1z M83,45h1v1h-1z M84,45h1v1h-1z M86,45h1v1h-1z M87,45h1v1h-1z M88,45h1v1h-1z M89,45h1v1h-1z M90,45h1v1h-1z M94,45h1v1h-1z M98,45h1v1h-1z M100,45h1v1h-1z M102,45h1v1h-1z M103,45h1v1h-1z M106,45h1v1h-1z M108,45h1v1h-1z M4,46h1v1h-1z M7,46h1v1h-1z M8,46h1v1h-1z M10,46h1v1h-1z M11,46h1v1h-1z M15,46h1v1h-1z M16,46h1v1h-1z M19,46h1v1h-1z M20,46h1v1h-1z M21,46h1v1h-1z M24,46h1v1h-1z M25,46h1v1h-1z M26,46h1v1h-1z M27,46h1v1h-1z M29,46h1v1h-1z M31,46h1v1h-1z M33,46h1v1h-1z M34,46h1v1h-1z M36,46h1v1h-1z M41,46h1v1h-1z M44,46h1v1h-1z M46,46h1v1h-1z M47,46h1v1h-1z M49,46h1v1h-1z M51,46h1v1h-1z M52,46h1v1h-1z M54,46h1v1h-1z M55,46h1v1h-1z M56,46h1v1h-1z M57,46h1v1h-1z M58,46h1v1h-1z M59,46h1v1h-1z M60,46h1v1h-1z M64,46h1v1h-1z M68,46h1v1h-1z M69,46h1v1h-1z M70,46h1v1h-1z M71,46h1v1h-1z M75,46h1v1h-1z M77,46h1v1h-1z M78,46h1v1h-1z M81,46h1v1h-1z M82,46h1v1h-1z M83,46h1v1h-1z M85,46h1v1h-1z M87,46h1v1h-1z M91,46h1v1h-1z M92,46h1v1h-1z M93,46h1v1h-1z M94,46h1v1h-1z M99,46h1v1h-1z M105,46h1v1h-1z M106,46h1v1h-1z M107,46h1v1h-1z M7,47h1v1h-1z M8,47h1v1h-1z M11,47h1v1h-1z M19,47h1v1h-1z M21,47h1v1h-1z M22,47h1v1h-1z M23,47h1v1h-1z M26,47h1v1h-1z M27,47h1v1h-1z M32,47h1v1h-1z M33,47h1v1h-1z M34,47h1v1h-1z M35,47h1v1h-1z M39,47h1v1h-1z M40,47h1v1h-1z M41,47h1v1h-1z M42,47h1v1h-1z M43,47h1v1h-1z M45,47h1v1h-1z M47,47h1v1h-1z M50,47h1v1h-1z M53,47h1v1h-1z M56,47h1v1h-1z M57,47h1v1h-1z M63,47h1v1h-1z M64,47h1v1h-1z M65,47h1v1h-1z M66,47h1v1h-1z M70,47h1v1h-1z M71,47h1v1h-1z M74,47h1v1h-1z M77,47h1v1h-1z M80,47h1v1h-1z M81,47h1v1h-1z M82,47h1v1h-1z M83,47h1v1h-1z M86,47h1v1h-1z M88,47h1v1h-1z M90,47h1v1h-1z M95,47h1v1h-1z M97,47h1v1h-1z M101,47h1v1h-1z M102,47h1v1h-1z M105,47h1v1h-1z M106,47h1v1h-1z M108,47h1v1h-1z M4,48h1v1h-1z M5,48h1v1h-1z M6,48h1v1h-1z M7,48h1v1h-1z M10,48h1v1h-1z M11,48h1v1h-1z M13,48h1v1h-1z M20,48h1v1h-1z M21,48h1v1h-1z M22,48h1v1h-1z M25,48h1v1h-1z M28,48h1v1h-1z M30,48h1v1h-1z M31,48h1v1h-1z M34,48h1v1h-1z M35,48h1v1h-1z M36,48h1v1h-1z M37,48h1v1h-1z M39,48h1v1h-1z M40,48h1v1h-1z M42,48h1v1h-1z M44,48h1v1h-1z M45,48h1v1h-1z M52,48h1v1h-1z M54,48h1v1h-1z M55,48h1v1h-1z M57,48h1v1h-1z M58,48h1v1h-1z M59,48h1v1h-1z M61,48h1v1h-1z M62,48h1v1h-1z M64,48h1v1h-1z M67,48h1v1h-1z M68,48h1v1h-1z M72,48h1v1h-1z M76,48h1v1h-1z M79,48h1v1h-1z M81,48h1v1h-1z M82,48h1v1h-1z M84,48h1v1h-1z M90,48h1v1h-1z M92,48h1v1h-1z M93,48h1v1h-1z M96,48h1v1h-1z M97,48h1v1h-1z M98,48h1v1h-1z M100,48h1v1h-1z M101,48h1v1h-1z M103,48h1v1h-1z M104,48h1v1h-1z M105,48h1v1h-1z M106,48h1v1h-1z M108,48h1v1h-1z M4,49h1v1h-1z M5,49h1v1h-1z M6,49h1v1h-1z M7,49h1v1h-1z M11,49h1v1h-1z M12,49h1v1h-1z M13,49h1v1h-1z M14,49h1v1h-1z M15,49h1v1h-1z M19,49h1v1h-1z M20,49h1v1h-1z M21,49h1v1h-1z M23,49h1v1h-1z M25,49h1v1h-1z M26,49h1v1h-1z M27,49h1v1h-1z M28,49h1v1h-1z M30,49h1v1h-1z M31,49h1v1h-1z M32,49h1v1h-1z M34,49h1v1h-1z M36,49h1v1h-1z M37,49h1v1h-1z M38,49h1v1h-1z M39,49h1v1h-1z M40,49h1v1h-1z M41,49h1v1h-1z M43,49h1v1h-1z M44,49h1v1h-1z M45,49h1v1h-1z M47,49h1v1h-1z M49,49h1v1h-1z M50,49h1v1h-1z M52,49h1v1h-1z M55,49h1v1h-1z M56,49h1v1h-1z M59,49h1v1h-1z M62,49h1v1h-1z M66,49h1v1h-1z M67,49h1v1h-1z M69,49h1v1h-1z M70,49h1v1h-1z M71,49h1v1h-1z M75,49h1v1h-1z M82,49h1v1h-1z M83,49h1v1h-1z M84,49h1v1h-1z M87,49h1v1h-1z M88,49h1v1h-1z M89,49h1v1h-1z M91,49h1v1h-1z M93,49h1v1h-1z M94,49h1v1h-1z M95,49h1v1h-1z M96,49h1v1h-1z M98,49h1v1h-1z M105,49h1v1h-1z M106,49h1v1h-1z M108,49h1v1h-1z M5,50h1v1h-1z M10,50h1v1h-1z M12,50h1v1h-1z M13,50h1v1h-1z M14,50h1v1h-1z M16,50h1v1h-1z M17,50h1v1h-1z M18,50h1v1h-1z M20,50h1v1h-1z M21,50h1v1h-1z M26,50h1v1h-1z M28,50h1v1h-1z M31,50h1v1h-1z M33,50h1v1h-1z M34,50h1v1h-1z M36,50h1v1h-1z M41,50h1v1h-1z M44,50h1v1h-1z M46,50h1v1h-1z M51,50h1v1h-1z M52,50h1v1h-1z M53,50h1v1h-1z M54,50h1v1h-1z M57,50h1v1h-1z M58,50h1v1h-1z M59,50h1v1h-1z M60,50h1v1h-1z M65,50h1v1h-1z M69,50h1v1h-1z M70,50h1v1h-1z M71,50h1v1h-1z M72,50h1v1h-1z M76,50h1v1h-1z M77,50h1v1h-1z M80,50h1v1h-1z M81,50h1v1h-1z M82,50h1v1h-1z M88,50h1v1h-1z M89,50h1v1h-1z M91,50h1v1h-1z M92,50h1v1h-1z M93,50h1v1h-1z M94,50h1v1h-1z M95,50h1v1h-1z M96,50h1v1h-1z M99,50h1v1h-1z M100,50h1v1h-1z M101,50h1v1h-1z M102,50h1v1h-1z M104,50h1v1h-1z M105,50h1v1h-1z M107,50h1v1h-1z M6,51h1v1h-1z M8,51h1v1h-1z M14,51h1v1h-1z M15,51h1v1h-1z M18,51h1v1h-1z M21,51h1v1h-1z M26,51h1v1h-1z M27,51h1v1h-1z M29,51h1v1h-1z M32,51h1v1h-1z M34,51h1v1h-1z M35,51h1v1h-1z M37,51h1v1h-1z M39,51h1v1h-1z M40,51h1v1h-1z M41,51h1v1h-1z M43,51h1v1h-1z M45,51h1v1h-1z M47,51h1v1h-1z M50,51h1v1h-1z M53,51h1v1h-1z M56,51h1v1h-1z M61,51h1v1h-1z M62,51h1v1h-1z M63,51h1v1h-1z M64,51h1v1h-1z M66,51h1v1h-1z M70,51h1v1h-1z M74,51h1v1h-1z M75,51h1v1h-1z M77,51h1v1h-1z M80,51h1v1h-1z M82,51h1v1h-1z M83,51h1v1h-1z M85,51h1v1h-1z M87,51h1v1h-1z M88,51h1v1h-1z M89,51h1v1h-1z M94,51h1v1h-1z M97,51h1v1h-1z M101,51h1v1h-1z M102,51h1v1h-1z M103,51h1v1h-1z M105,51h1v1h-1z M106,51h1v1h-1z M5,52h1v1h-1z M7,52h1v1h-1z M8,52h1v1h-1z M9,52h1v1h-1z M10,52h1v1h-1z M11,52h1v1h-1z M12,52h1v1h-1z M13,52h1v1h-1z M16,52h1v1h-1z M17,52h1v1h-1z M18,52h1v1h-1z M20,52h1v1h-1z M22,52h1v1h-1z M26,52h1v1h-1z M28,52h1v1h-1z M29,52h1v1h-1z M30,52h1v1h-1z M31,52h1v1h-1z M32,52h1v1h-1z M33,52h1v1h-1z M34,52h1v1h-1z M35,52h1v1h-1z M37,52h1v1h-1z M41,52h1v1h-1z M43,52h1v1h-1z M47,52h1v1h-1z M48,52h1v1h-1z M50,52h1v1h-1z M52,52h1v1h-1z M53,52h1v1h-1z M54,52h1v1h-1z M55,52h1v1h-1z M56,52h1v1h-1z M58,52h1v1h-1z M60,52h1v1h-1z M62,52h1v1h-1z M64,52h1v1h-1z M67,52h1v1h-1z M68,52h1v1h-1z M69,52h1v1h-1z M71,52h1v1h-1z M72,52h1v1h-1z M73,52h1v1h-1z M76,52h1v1h-1z M77,52h1v1h-1z M78,52h1v1h-1z M79,52h1v1h-1z M80,52h1v1h-1z M81,52h1v1h-1z M82,52h1v1h-1z M85,52h1v1h-1z M89,52h1v1h-1z M90,52h1v1h-1z M94,52h1v1h-1z M95,52h1v1h-1z M99,52h1v1h-1z M100,52h1v1h-1z M101,52h1v1h-1z M102,52h1v1h-1z M103,52h1v1h-1z M104,52h1v1h-1z M105,52h1v1h-1z M106,52h1v1h-1z M108,52h1v1h-1z M4,53h1v1h-1z M6,53h1v1h-1z M8,53h1v1h-1z M12,53h1v1h-1z M15,53h1v1h-1z M16,53h1v1h-1z M17,53h1v1h-1z M20,53h1v1h-1z M22,53h1v1h-1z M28,53h1v1h-1z M32,53h1v1h-1z M34,53h1v1h-1z M36,53h1v1h-1z M38,53h1v1h-1z M40,53h1v1h-1z M41,53h1v1h-1z M42,53h1v1h-1z M43,53h1v1h-1z M44,53h1v1h-1z M48,53h1v1h-1z M51,53h1v1h-1z M52,53h1v1h-1z M56,53h1v1h-1z M59,53h1v1h-1z M61,53h1v1h-1z M63,53h1v1h-1z M71,53h1v1h-1z M72,53h1v1h-1z M75,53h1v1h-1z M76,53h1v1h-1z M80,53h1v1h-1z M81,53h1v1h-1z M83,53h1v1h-1z M85,53h1v1h-1z M87,53h1v1h-1z M88,53h1v1h-1z M89,53h1v1h-1z M90,53h1v1h-1z M93,53h1v1h-1z M95,53h1v1h-1z M97,53h1v1h-1z M98,53h1v1h-1z M100,53h1v1h-1z M104,53h1v1h-1z M4,54h1v1h-1z M7,54h1v1h-1z M8,54h1v1h-1z M10,54h1v1h-1z M12,54h1v1h-1z M14,54h1v1h-1z M15,54h1v1h-1z M16,54h1v1h-1z M17,54h1v1h-1z M20,54h1v1h-1z M21,54h1v1h-1z M22,54h1v1h-1z M24,54h1v1h-1z M25,54h1v1h-1z M27,54h1v1h-1z M28,54h1v1h-1z M30,54h1v1h-1z M32,54h1v1h-1z M33,54h1v1h-1z M34,54h1v1h-1z M36,54h1v1h-1z M37,54h1v1h-1z M39,54h1v1h-1z M40,54h1v1h-1z M41,54h1v1h-1z M43,54h1v1h-1z M44,54h1v1h-1z M45,54h1v1h-1z M46,54h1v1h-1z M48,54h1v1h-1z M52,54h1v1h-1z M54,54h1v1h-1z M56,54h1v1h-1z M57,54h1v1h-1z M58,54h1v1h-1z M59,54h1v1h-1z M60,54h1v1h-1z M68,54h1v1h-1z M69,54h1v1h-1z M70,54h1v1h-1z M71,54h1v1h-1z M76,54h1v1h-1z M78,54h1v1h-1z M80,54h1v1h-1z M81,54h1v1h-1z M82,54h1v1h-1z M87,54h1v1h-1z M89,54h1v1h-1z M93,54h1v1h-1z M94,54h1v1h-1z M99,54h1v1h-1z M100,54h1v1h-1z M102,54h1v1h-1z M104,54h1v1h-1z M106,54h1v1h-1z M107,54h1v1h-1z M6,55h1v1h-1z M8,55h1v1h-1z M12,55h1v1h-1z M13,55h1v1h-1z M15,55h1v1h-1z M16,55h1v1h-1z M21,55h1v1h-1z M22,55h1v1h-1z M23,55h1v1h-1z M24,55h1v1h-1z M25,55h1v1h-1z M27,55h1v1h-1z M28,55h1v1h-1z M32,55h1v1h-1z M33,55h1v1h-1z M35,55h1v1h-1z M38,55h1v1h-1z M39,55h1v1h-1z M40,55h1v1h-1z M42,55h1v1h-1z M45,55h1v1h-1z M47,55h1v1h-1z M49,55h1v1h-1z M52,55h1v1h-1z M56,55h1v1h-1z M58,55h1v1h-1z M61,55h1v1h-1z M62,55h1v1h-1z M63,55h1v1h-1z M64,55h1v1h-1z M65,55h1v1h-1z M66,55h1v1h-1z M69,55h1v1h-1z M71,55h1v1h-1z M73,55h1v1h-1z M76,55h1v1h-1z M80,55h1v1h-1z M82,55h1v1h-1z M83,55h1v1h-1z M85,55h1v1h-1z M86,55h1v1h-1z M88,55h1v1h-1z M95,55h1v1h-1z M100,55h1v1h-1z M104,55h1v1h-1z M105,55h1v1h-1z M106,55h1v1h-1z M107,55h1v1h-1z M108,55h1v1h-1z M7,56h1v1h-1z M8,56h1v1h-1z M9,56h1v1h-1z M10,56h1v1h-1z M11,56h1v1h-1z M12,56h1v1h-1z M14,56h1v1h-1z M16,56h1v1h-1z M17,56h1v1h-1z M19,56h1v1h-1z M20,56h1v1h-1z M21,56h1v1h-1z M28,56h1v1h-1z M29,56h1v1h-1z M30,56h1v1h-1z M31,56h1v1h-1z M32,56h1v1h-1z M33,56h1v1h-1z M34,56h1v1h-1z M35,56h1v1h-1z M36,56h1v1h-1z M37,56h1v1h-1z M38,56h1v1h-1z M40,56h1v1h-1z M43,56h1v1h-1z M45,56h1v1h-1z M46,56h1v1h-1z M48,56h1v1h-1z M49,56h1v1h-1z M51,56h1v1h-1z M52,56h1v1h-1z M53,56h1v1h-1z M54,56h1v1h-1z M55,56h1v1h-1z M56,56h1v1h-1z M59,56h1v1h-1z M60,56h1v1h-1z M61,56h1v1h-1z M63,56h1v1h-1z M68,56h1v1h-1z M71,56h1v1h-1z M72,56h1v1h-1z M73,56h1v1h-1z M74,56h1v1h-1z M75,56h1v1h-1z M76,56h1v1h-1z M77,56h1v1h-1z M78,56h1v1h-1z M79,56h1v1h-1z M80,56h1v1h-1z M81,56h1v1h-1z M82,56h1v1h-1z M83,56h1v1h-1z M85,56h1v1h-1z M86,56h1v1h-1z M87,56h1v1h-1z M90,56h1v1h-1z M91,56h1v1h-1z M92,56h1v1h-1z M93,56h1v1h-1z M94,56h1v1h-1z M97,56h1v1h-1z M100,56h1v1h-1z M101,56h1v1h-1z M102,56h1v1h-1z M103,56h1v1h-1z M104,56h1v1h-1z M105,56h1v1h-1z M108,56h1v1h-1z M5,57h1v1h-1z M8,57h1v1h-1z M9,57h1v1h-1z M13,57h1v1h-1z M18,57h1v1h-1z M20,57h1v1h-1z M26,57h1v1h-1z M27,57h1v1h-1z M28,57h1v1h-1z M29,57h1v1h-1z M33,57h1v1h-1z M34,57h1v1h-1z M35,57h1v1h-1z M41,57h1v1h-1z M43,57h1v1h-1z M44,57h1v1h-1z M47,57h1v1h-1z M51,57h1v1h-1z M53,57h1v1h-1z M55,57h1v1h-1z M57,57h1v1h-1z M58,57h1v1h-1z M59,57h1v1h-1z M62,57h1v1h-1z M63,57h1v1h-1z M64,57h1v1h-1z M65,57h1v1h-1z M67,57h1v1h-1z M68,57h1v1h-1z M69,57h1v1h-1z M70,57h1v1h-1z M71,57h1v1h-1z M73,57h1v1h-1z M79,57h1v1h-1z M83,57h1v1h-1z M84,57h1v1h-1z M85,57h1v1h-1z M87,57h1v1h-1z M88,57h1v1h-1z M89,57h1v1h-1z M91,57h1v1h-1z M92,57h1v1h-1z M93,57h1v1h-1z M94,57h1v1h-1z M96,57h1v1h-1z M99,57h1v1h-1z M100,57h1v1h-1z M101,57h1v1h-1z M103,57h1v1h-1z M106,57h1v1h-1z M4,58h1v1h-1z M10,58h1v1h-1z M11,58h1v1h-1z M14,58h1v1h-1z M15,58h1v1h-1z M17,58h1v1h-1z M18,58h1v1h-1z M19,58h1v1h-1z M20,58h1v1h-1z M22,58h1v1h-1z M25,58h1v1h-1z M27,58h1v1h-1z M28,58h1v1h-1z M30,58h1v1h-1z M32,58h1v1h-1z M33,58h1v1h-1z M34,58h1v1h-1z M35,58h1v1h-1z M36,58h1v1h-1z M40,58h1v1h-1z M43,58h1v1h-1z M44,58h1v1h-1z M45,58h1v1h-1z M46,58h1v1h-1z M51,58h1v1h-1z M52,58h1v1h-1z M54,58h1v1h-1z M55,58h1v1h-1z M57,58h1v1h-1z M58,58h1v1h-1z M60,58h1v1h-1z M63,58h1v1h-1z M65,58h1v1h-1z M68,58h1v1h-1z M69,58h1v1h-1z M70,58h1v1h-1z M71,58h1v1h-1z M75,58h1v1h-1z M76,58h1v1h-1z M77,58h1v1h-1z M79,58h1v1h-1z M81,58h1v1h-1z M82,58h1v1h-1z M87,58h1v1h-1z M89,58h1v1h-1z M93,58h1v1h-1z M94,58h1v1h-1z M100,58h1v1h-1z M101,58h1v1h-1z M102,58h1v1h-1z M107,58h1v1h-1z M6,59h1v1h-1z M7,59h1v1h-1z M8,59h1v1h-1z M16,59h1v1h-1z M17,59h1v1h-1z M18,59h1v1h-1z M21,59h1v1h-1z M22,59h1v1h-1z M24,59h1v1h-1z M26,59h1v1h-1z M27,59h1v1h-1z M28,59h1v1h-1z M34,59h1v1h-1z M39,59h1v1h-1z M40,59h1v1h-1z M42,59h1v1h-1z M45,59h1v1h-1z M46,59h1v1h-1z M47,59h1v1h-1z M49,59h1v1h-1z M51,59h1v1h-1z M52,59h1v1h-1z M53,59h1v1h-1z M54,59h1v1h-1z M57,59h1v1h-1z M63,59h1v1h-1z M64,59h1v1h-1z M66,59h1v1h-1z M67,59h1v1h-1z M71,59h1v1h-1z M73,59h1v1h-1z M76,59h1v1h-1z M77,59h1v1h-1z M78,59h1v1h-1z M79,59h1v1h-1z M83,59h1v1h-1z M86,59h1v1h-1z M87,59h1v1h-1z M88,59h1v1h-1z M89,59h1v1h-1z M90,59h1v1h-1z M95,59h1v1h-1z M98,59h1v1h-1z M100,59h1v1h-1z M103,59h1v1h-1z M104,59h1v1h-1z M105,59h1v1h-1z M106,59h1v1h-1z M107,59h1v1h-1z M108,59h1v1h-1z M4,60h1v1h-1z M5,60h1v1h-1z M7,60h1v1h-1z M10,60h1v1h-1z M12,60h1v1h-1z M15,60h1v1h-1z M16,60h1v1h-1z M19,60h1v1h-1z M21,60h1v1h-1z M22,60h1v1h-1z M25,60h1v1h-1z M29,60h1v1h-1z M35,60h1v1h-1z M36,60h1v1h-1z M37,60h1v1h-1z M39,60h1v1h-1z M47,60h1v1h-1z M49,60h1v1h-1z M50,60h1v1h-1z M51,60h1v1h-1z M53,60h1v1h-1z M55,60h1v1h-1z M59,60h1v1h-1z M61,60h1v1h-1z M62,60h1v1h-1z M64,60h1v1h-1z M67,60h1v1h-1z M69,60h1v1h-1z M70,60h1v1h-1z M72,60h1v1h-1z M74,60h1v1h-1z M79,60h1v1h-1z M81,60h1v1h-1z M83,60h1v1h-1z M84,60h1v1h-1z M87,60h1v1h-1z M88,60h1v1h-1z M91,60h1v1h-1z M93,60h1v1h-1z M94,60h1v1h-1z M95,60h1v1h-1z M97,60h1v1h-1z M98,60h1v1h-1z M100,60h1v1h-1z M106,60h1v1h-1z M108,60h1v1h-1z M5,61h1v1h-1z M6,61h1v1h-1z M8,61h1v1h-1z M9,61h1v1h-1z M14,61h1v1h-1z M17,61h1v1h-1z M19,61h1v1h-1z M23,61h1v1h-1z M24,61h1v1h-1z M25,61h1v1h-1z M26,61h1v1h-1z M29,61h1v1h-1z M30,61h1v1h-1z M37,61h1v1h-1z M40,61h1v1h-1z M44,61h1v1h-1z M45,61h1v1h-1z M46,61h1v1h-1z M47,61h1v1h-1z M49,61h1v1h-1z M51,61h1v1h-1z M54,61h1v1h-1z M59,61h1v1h-1z M63,61h1v1h-1z M66,61h1v1h-1z M67,61h1v1h-1z M69,61h1v1h-1z M70,61h1v1h-1z M74,61h1v1h-1z M75,61h1v1h-1z M77,61h1v1h-1z M78,61h1v1h-1z M81,61h1v1h-1z M82,61h1v1h-1z M84,61h1v1h-1z M86,61h1v1h-1z M88,61h1v1h-1z M93,61h1v1h-1z M97,61h1v1h-1z M99,61h1v1h-1z M100,61h1v1h-1z M101,61h1v1h-1z M105,61h1v1h-1z M106,61h1v1h-1z M107,61h1v1h-1z M108,61h1v1h-1z M6,62h1v1h-1z M9,62h1v1h-1z M10,62h1v1h-1z M12,62h1v1h-1z M13,62h1v1h-1z M14,62h1v1h-1z M15,62h1v1h-1z M18,62h1v1h-1z M19,62h1v1h-1z M21,62h1v1h-1z M22,62h1v1h-1z M26,62h1v1h-1z M27,62h1v1h-1z M28,62h1v1h-1z M29,62h1v1h-1z M30,62h1v1h-1z M31,62h1v1h-1z M33,62h1v1h-1z M34,62h1v1h-1z M35,62h1v1h-1z M36,62h1v1h-1z M39,62h1v1h-1z M40,62h1v1h-1z M41,62h1v1h-1z M43,62h1v1h-1z M44,62h1v1h-1z M45,62h1v1h-1z M46,62h1v1h-1z M51,62h1v1h-1z M52,62h1v1h-1z M53,62h1v1h-1z M57,62h1v1h-1z M58,62h1v1h-1z M60,62h1v1h-1z M63,62h1v1h-1z M64,62h1v1h-1z M65,62h1v1h-1z M68,62h1v1h-1z M69,62h1v1h-1z M70,62h1v1h-1z M71,62h1v1h-1z M72,62h1v1h-1z M76,62h1v1h-1z M77,62h1v1h-1z M81,62h1v1h-1z M82,62h1v1h-1z M83,62h1v1h-1z M87,62h1v1h-1z M88,62h1v1h-1z M94,62h1v1h-1z M96,62h1v1h-1z M99,62h1v1h-1z M100,62h1v1h-1z M101,62h1v1h-1z M103,62h1v1h-1z M106,62h1v1h-1z M4,63h1v1h-1z M5,63h1v1h-1z M6,63h1v1h-1z M11,63h1v1h-1z M12,63h1v1h-1z M13,63h1v1h-1z M14,63h1v1h-1z M16,63h1v1h-1z M17,63h1v1h-1z M20,63h1v1h-1z M21,63h1v1h-1z M22,63h1v1h-1z M26,63h1v1h-1z M29,63h1v1h-1z M33,63h1v1h-1z M34,63h1v1h-1z M35,63h1v1h-1z M39,63h1v1h-1z M40,63h1v1h-1z M42,63h1v1h-1z M46,63h1v1h-1z M47,63h1v1h-1z M52,63h1v1h-1z M54,63h1v1h-1z M55,63h1v1h-1z M56,63h1v1h-1z M59,63h1v1h-1z M61,63h1v1h-1z M62,63h1v1h-1z M63,63h1v1h-1z M64,63h1v1h-1z M67,63h1v1h-1z M70,63h1v1h-1z M73,63h1v1h-1z M80,63h1v1h-1z M83,63h1v1h-1z M85,63h1v1h-1z M87,63h1v1h-1z M88,63h1v1h-1z M89,63h1v1h-1z M90,63h1v1h-1z M97,63h1v1h-1z M100,63h1v1h-1z M101,63h1v1h-1z M105,63h1v1h-1z M106,63h1v1h-1z M6,64h1v1h-1z M9,64h1v1h-1z M10,64h1v1h-1z M11,64h1v1h-1z M13,64h1v1h-1z M15,64h1v1h-1z M16,64h1v1h-1z M17,64h1v1h-1z M18,64h1v1h-1z M24,64h1v1h-1z M27,64h1v1h-1z M29,64h1v1h-1z M31,64h1v1h-1z M33,64h1v1h-1z M35,64h1v1h-1z M36,64h1v1h-1z M37,64h1v1h-1z M38,64h1v1h-1z M40,64h1v1h-1z M43,64h1v1h-1z M44,64h1v1h-1z M45,64h1v1h-1z M46,64h1v1h-1z M47,64h1v1h-1z M53,64h1v1h-1z M55,64h1v1h-1z M63,64h1v1h-1z M64,64h1v1h-1z M65,64h1v1h-1z M68,64h1v1h-1z M70,64h1v1h-1z M71,64h1v1h-1z M72,64h1v1h-1z M75,64h1v1h-1z M76,64h1v1h-1z M79,64h1v1h-1z M82,64h1v1h-1z M84,64h1v1h-1z M85,64h1v1h-1z M87,64h1v1h-1z M88,64h1v1h-1z M89,64h1v1h-1z M96,64h1v1h-1z M97,64h1v1h-1z M98,64h1v1h-1z M99,64h1v1h-1z M100,64h1v1h-1z M105,64h1v1h-1z M7,65h1v1h-1z M9,65h1v1h-1z M11,65h1v1h-1z M12,65h1v1h-1z M13,65h1v1h-1z M14,65h1v1h-1z M17,65h1v1h-1z M18,65h1v1h-1z M19,65h1v1h-1z M26,65h1v1h-1z M28,65h1v1h-1z M30,65h1v1h-1z M33,65h1v1h-1z M34,65h1v1h-1z M35,65h1v1h-1z M39,65h1v1h-1z M40,65h1v1h-1z M42,65h1v1h-1z M43,65h1v1h-1z M46,65h1v1h-1z M48,65h1v1h-1z M49,65h1v1h-1z M51,65h1v1h-1z M54,65h1v1h-1z M58,65h1v1h-1z M59,65h1v1h-1z M61,65h1v1h-1z M64,65h1v1h-1z M65,65h1v1h-1z M66,65h1v1h-1z M69,65h1v1h-1z M76,65h1v1h-1z M77,65h1v1h-1z M78,65h1v1h-1z M81,65h1v1h-1z M82,65h1v1h-1z M83,65h1v1h-1z M85,65h1v1h-1z M86,65h1v1h-1z M90,65h1v1h-1z M91,65h1v1h-1z M92,65h1v1h-1z M97,65h1v1h-1z M99,65h1v1h-1z M100,65h1v1h-1z M101,65h1v1h-1z M104,65h1v1h-1z M105,65h1v1h-1z M106,65h1v1h-1z M107,65h1v1h-1z M5,66h1v1h-1z M7,66h1v1h-1z M8,66h1v1h-1z M10,66h1v1h-1z M11,66h1v1h-1z M13,66h1v1h-1z M19,66h1v1h-1z M21,66h1v1h-1z M24,66h1v1h-1z M27,66h1v1h-1z M28,66h1v1h-1z M31,66h1v1h-1z M32,66h1v1h-1z M33,66h1v1h-1z M34,66h1v1h-1z M35,66h1v1h-1z M39,66h1v1h-1z M41,66h1v1h-1z M44,66h1v1h-1z M45,66h1v1h-1z M46,66h1v1h-1z M47,66h1v1h-1z M48,66h1v1h-1z M51,66h1v1h-1z M52,66h1v1h-1z M53,66h1v1h-1z M54,66h1v1h-1z M55,66h1v1h-1z M57,66h1v1h-1z M58,66h1v1h-1z M59,66h1v1h-1z M60,66h1v1h-1z M63,66h1v1h-1z M69,66h1v1h-1z M70,66h1v1h-1z M71,66h1v1h-1z M72,66h1v1h-1z M75,66h1v1h-1z M76,66h1v1h-1z M79,66h1v1h-1z M80,66h1v1h-1z M82,66h1v1h-1z M84,66h1v1h-1z M89,66h1v1h-1z M92,66h1v1h-1z M93,66h1v1h-1z M94,66h1v1h-1z M95,66h1v1h-1z M96,66h1v1h-1z M97,66h1v1h-1z M99,66h1v1h-1z M103,66h1v1h-1z M105,66h1v1h-1z M107,66h1v1h-1z M4,67h1v1h-1z M5,67h1v1h-1z M7,67h1v1h-1z M8,67h1v1h-1z M9,67h1v1h-1z M11,67h1v1h-1z M15,67h1v1h-1z M20,67h1v1h-1z M21,67h1v1h-1z M23,67h1v1h-1z M25,67h1v1h-1z M27,67h1v1h-1z M31,67h1v1h-1z M33,67h1v1h-1z M35,67h1v1h-1z M37,67h1v1h-1z M38,67h1v1h-1z M40,67h1v1h-1z M42,67h1v1h-1z M45,67h1v1h-1z M46,67h1v1h-1z M47,67h1v1h-1z M51,67h1v1h-1z M52,67h1v1h-1z M53,67h1v1h-1z M54,67h1v1h-1z M56,67h1v1h-1z M61,67h1v1h-1z M62,67h1v1h-1z M63,67h1v1h-1z M64,67h1v1h-1z M65,67h1v1h-1z M66,67h1v1h-1z M74,67h1v1h-1z M75,67h1v1h-1z M76,67h1v1h-1z M79,67h1v1h-1z M80,67h1v1h-1z M81,67h1v1h-1z M83,67h1v1h-1z M85,67h1v1h-1z M86,67h1v1h-1z M87,67h1v1h-1z M88,67h1v1h-1z M90,67h1v1h-1z M95,67h1v1h-1z M98,67h1v1h-1z M100,67h1v1h-1z M104,67h1v1h-1z M106,67h1v1h-1z M108,67h1v1h-1z M4,68h1v1h-1z M5,68h1v1h-1z M6,68h1v1h-1z M7,68h1v1h-1z M8,68h1v1h-1z M10,68h1v1h-1z M11,68h1v1h-1z M12,68h1v1h-1z M13,68h1v1h-1z M14,68h1v1h-1z M15,68h1v1h-1z M17,68h1v1h-1z M18,68h1v1h-1z M19,68h1v1h-1z M20,68h1v1h-1z M21,68h1v1h-1z M22,68h1v1h-1z M23,68h1v1h-1z M25,68h1v1h-1z M27,68h1v1h-1z M29,68h1v1h-1z M31,68h1v1h-1z M32,68h1v1h-1z M36,68h1v1h-1z M39,68h1v1h-1z M40,68h1v1h-1z M43,68h1v1h-1z M46,68h1v1h-1z M47,68h1v1h-1z M49,68h1v1h-1z M52,68h1v1h-1z M53,68h1v1h-1z M56,68h1v1h-1z M57,68h1v1h-1z M58,68h1v1h-1z M64,68h1v1h-1z M66,68h1v1h-1z M67,68h1v1h-1z M68,68h1v1h-1z M70,68h1v1h-1z M76,68h1v1h-1z M77,68h1v1h-1z M79,68h1v1h-1z M80,68h1v1h-1z M81,68h1v1h-1z M82,68h1v1h-1z M83,68h1v1h-1z M84,68h1v1h-1z M87,68h1v1h-1z M88,68h1v1h-1z M89,68h1v1h-1z M92,68h1v1h-1z M93,68h1v1h-1z M94,68h1v1h-1z M95,68h1v1h-1z M96,68h1v1h-1z M99,68h1v1h-1z M101,68h1v1h-1z M102,68h1v1h-1z M103,68h1v1h-1z M105,68h1v1h-1z M108,68h1v1h-1z M5,69h1v1h-1z M6,69h1v1h-1z M7,69h1v1h-1z M9,69h1v1h-1z M12,69h1v1h-1z M13,69h1v1h-1z M14,69h1v1h-1z M16,69h1v1h-1z M18,69h1v1h-1z M25,69h1v1h-1z M26,69h1v1h-1z M27,69h1v1h-1z M30,69h1v1h-1z M33,69h1v1h-1z M34,69h1v1h-1z M38,69h1v1h-1z M40,69h1v1h-1z M51,69h1v1h-1z M52,69h1v1h-1z M54,69h1v1h-1z M55,69h1v1h-1z M57,69h1v1h-1z M59,69h1v1h-1z M61,69h1v1h-1z M64,69h1v1h-1z M65,69h1v1h-1z M66,69h1v1h-1z M72,69h1v1h-1z M73,69h1v1h-1z M74,69h1v1h-1z M77,69h1v1h-1z M82,69h1v1h-1z M84,69h1v1h-1z M86,69h1v1h-1z M88,69h1v1h-1z M94,69h1v1h-1z M96,69h1v1h-1z M97,69h1v1h-1z M100,69h1v1h-1z M101,69h1v1h-1z M104,69h1v1h-1z M105,69h1v1h-1z M106,69h1v1h-1z M108,69h1v1h-1z M5,70h1v1h-1z M6,70h1v1h-1z M8,70h1v1h-1z M9,70h1v1h-1z M10,70h1v1h-1z M11,70h1v1h-1z M13,70h1v1h-1z M14,70h1v1h-1z M15,70h1v1h-1z M16,70h1v1h-1z M17,70h1v1h-1z M19,70h1v1h-1z M20,70h1v1h-1z M21,70h1v1h-1z M23,70h1v1h-1z M25,70h1v1h-1z M26,70h1v1h-1z M28,70h1v1h-1z M33,70h1v1h-1z M34,70h1v1h-1z M39,70h1v1h-1z M41,70h1v1h-1z M45,70h1v1h-1z M46,70h1v1h-1z M48,70h1v1h-1z M51,70h1v1h-1z M52,70h1v1h-1z M53,70h1v1h-1z M55,70h1v1h-1z M58,70h1v1h-1z M63,70h1v1h-1z M65,70h1v1h-1z M70,70h1v1h-1z M72,70h1v1h-1z M73,70h1v1h-1z M75,70h1v1h-1z M76,70h1v1h-1z M78,70h1v1h-1z M81,70h1v1h-1z M82,70h1v1h-1z M88,70h1v1h-1z M89,70h1v1h-1z M92,70h1v1h-1z M93,70h1v1h-1z M94,70h1v1h-1z M97,70h1v1h-1z M100,70h1v1h-1z M107,70h1v1h-1z M108,70h1v1h-1z M4,71h1v1h-1z M5,71h1v1h-1z M14,71h1v1h-1z M15,71h1v1h-1z M16,71h1v1h-1z M17,71h1v1h-1z M18,71h1v1h-1z M19,71h1v1h-1z M20,71h1v1h-1z M25,71h1v1h-1z M26,71h1v1h-1z M27,71h1v1h-1z M29,71h1v1h-1z M30,71h1v1h-1z M31,71h1v1h-1z M32,71h1v1h-1z M34,71h1v1h-1z M35,71h1v1h-1z M37,71h1v1h-1z M38,71h1v1h-1z M39,71h1v1h-1z M40,71h1v1h-1z M42,71h1v1h-1z M46,71h1v1h-1z M47,71h1v1h-1z M49,71h1v1h-1z M52,71h1v1h-1z M59,71h1v1h-1z M61,71h1v1h-1z M62,71h1v1h-1z M63,71h1v1h-1z M64,71h1v1h-1z M71,71h1v1h-1z M74,71h1v1h-1z M76,71h1v1h-1z M80,71h1v1h-1z M81,71h1v1h-1z M83,71h1v1h-1z M85,71h1v1h-1z M87,71h1v1h-1z M88,71h1v1h-1z M89,71h1v1h-1z M90,71h1v1h-1z M91,71h1v1h-1z M93,71h1v1h-1z M95,71h1v1h-1z M98,71h1v1h-1z M100,71h1v1h-1z M106,71h1v1h-1z M107,71h1v1h-1z M108,71h1v1h-1z M4,72h1v1h-1z M5,72h1v1h-1z M6,72h1v1h-1z M8,72h1v1h-1z M10,72h1v1h-1z M11,72h1v1h-1z M12,72h1v1h-1z M15,72h1v1h-1z M17,72h1v1h-1z M19,72h1v1h-1z M21,72h1v1h-1z M22,72h1v1h-1z M23,72h1v1h-1z M25,72h1v1h-1z M29,72h1v1h-1z M31,72h1v1h-1z M32,72h1v1h-1z M33,72h1v1h-1z M34,72h1v1h-1z M35,72h1v1h-1z M36,72h1v1h-1z M37,72h1v1h-1z M39,72h1v1h-1z M40,72h1v1h-1z M41,72h1v1h-1z M42,72h1v1h-1z M44,72h1v1h-1z M47,72h1v1h-1z M48,72h1v1h-1z M51,72h1v1h-1z M57,72h1v1h-1z M58,72h1v1h-1z M62,72h1v1h-1z M63,72h1v1h-1z M64,72h1v1h-1z M68,72h1v1h-1z M70,72h1v1h-1z M72,72h1v1h-1z M77,72h1v1h-1z M80,72h1v1h-1z M81,72h1v1h-1z M82,72h1v1h-1z M84,72h1v1h-1z M87,72h1v1h-1z M89,72h1v1h-1z M92,72h1v1h-1z M94,72h1v1h-1z M98,72h1v1h-1z M102,72h1v1h-1z M105,72h1v1h-1z M5,73h1v1h-1z M8,73h1v1h-1z M11,73h1v1h-1z M12,73h1v1h-1z M14,73h1v1h-1z M15,73h1v1h-1z M16,73h1v1h-1z M17,73h1v1h-1z M25,73h1v1h-1z M26,73h1v1h-1z M27,73h1v1h-1z M33,73h1v1h-1z M36,73h1v1h-1z M41,73h1v1h-1z M42,73h1v1h-1z M43,73h1v1h-1z M46,73h1v1h-1z M47,73h1v1h-1z M50,73h1v1h-1z M52,73h1v1h-1z M53,73h1v1h-1z M54,73h1v1h-1z M57,73h1v1h-1z M58,73h1v1h-1z M59,73h1v1h-1z M62,73h1v1h-1z M65,73h1v1h-1z M66,73h1v1h-1z M71,73h1v1h-1z M72,73h1v1h-1z M74,73h1v1h-1z M75,73h1v1h-1z M77,73h1v1h-1z M78,73h1v1h-1z M79,73h1v1h-1z M81,73h1v1h-1z M83,73h1v1h-1z M84,73h1v1h-1z M88,73h1v1h-1z M94,73h1v1h-1z M96,73h1v1h-1z M97,73h1v1h-1z M98,73h1v1h-1z M99,73h1v1h-1z M100,73h1v1h-1z M101,73h1v1h-1z M104,73h1v1h-1z M105,73h1v1h-1z M106,73h1v1h-1z M10,74h1v1h-1z M13,74h1v1h-1z M14,74h1v1h-1z M15,74h1v1h-1z M17,74h1v1h-1z M19,74h1v1h-1z M23,74h1v1h-1z M25,74h1v1h-1z M26,74h1v1h-1z M28,74h1v1h-1z M30,74h1v1h-1z M31,74h1v1h-1z M33,74h1v1h-1z M34,74h1v1h-1z M35,74h1v1h-1z M36,74h1v1h-1z M43,74h1v1h-1z M45,74h1v1h-1z M46,74h1v1h-1z M47,74h1v1h-1z M48,74h1v1h-1z M51,74h1v1h-1z M52,74h1v1h-1z M56,74h1v1h-1z M57,74h1v1h-1z M58,74h1v1h-1z M60,74h1v1h-1z M63,74h1v1h-1z M65,74h1v1h-1z M69,74h1v1h-1z M70,74h1v1h-1z M71,74h1v1h-1z M76,74h1v1h-1z M77,74h1v1h-1z M78,74h1v1h-1z M79,74h1v1h-1z M80,74h1v1h-1z M81,74h1v1h-1z M82,74h1v1h-1z M83,74h1v1h-1z M84,74h1v1h-1z M85,74h1v1h-1z M88,74h1v1h-1z M89,74h1v1h-1z M91,74h1v1h-1z M92,74h1v1h-1z M93,74h1v1h-1z M94,74h1v1h-1z M95,74h1v1h-1z M100,74h1v1h-1z M102,74h1v1h-1z M105,74h1v1h-1z M107,74h1v1h-1z M4,75h1v1h-1z M7,75h1v1h-1z M8,75h1v1h-1z M13,75h1v1h-1z M14,75h1v1h-1z M16,75h1v1h-1z M18,75h1v1h-1z M19,75h1v1h-1z M20,75h1v1h-1z M21,75h1v1h-1z M22,75h1v1h-1z M23,75h1v1h-1z M24,75h1v1h-1z M25,75h1v1h-1z M28,75h1v1h-1z M29,75h1v1h-1z M31,75h1v1h-1z M32,75h1v1h-1z M33,75h1v1h-1z M35,75h1v1h-1z M37,75h1v1h-1z M39,75h1v1h-1z M40,75h1v1h-1z M41,75h1v1h-1z M42,75h1v1h-1z M45,75h1v1h-1z M47,75h1v1h-1z M49,75h1v1h-1z M53,75h1v1h-1z M54,75h1v1h-1z M58,75h1v1h-1z M59,75h1v1h-1z M62,75h1v1h-1z M63,75h1v1h-1z M64,75h1v1h-1z M69,75h1v1h-1z M71,75h1v1h-1z M74,75h1v1h-1z M77,75h1v1h-1z M81,75h1v1h-1z M82,75h1v1h-1z M83,75h1v1h-1z M86,75h1v1h-1z M87,75h1v1h-1z M88,75h1v1h-1z M89,75h1v1h-1z M90,75h1v1h-1z M94,75h1v1h-1z M95,75h1v1h-1z M97,75h1v1h-1z M99,75h1v1h-1z M100,75h1v1h-1z M101,75h1v1h-1z M103,75h1v1h-1z M104,75h1v1h-1z M105,75h1v1h-1z M106,75h1v1h-1z M6,76h1v1h-1z M8,76h1v1h-1z M9,76h1v1h-1z M10,76h1v1h-1z M11,76h1v1h-1z M12,76h1v1h-1z M13,76h1v1h-1z M15,76h1v1h-1z M16,76h1v1h-1z M17,76h1v1h-1z M18,76h1v1h-1z M22,76h1v1h-1z M24,76h1v1h-1z M25,76h1v1h-1z M27,76h1v1h-1z M28,76h1v1h-1z M29,76h1v1h-1z M30,76h1v1h-1z M31,76h1v1h-1z M32,76h1v1h-1z M34,76h1v1h-1z M36,76h1v1h-1z M39,76h1v1h-1z M40,76h1v1h-1z M42,76h1v1h-1z M44,76h1v1h-1z M46,76h1v1h-1z M47,76h1v1h-1z M51,76h1v1h-1z M52,76h1v1h-1z M53,76h1v1h-1z M54,76h1v1h-1z M55,76h1v1h-1z M56,76h1v1h-1z M59,76h1v1h-1z M60,76h1v1h-1z M63,76h1v1h-1z M67,76h1v1h-1z M68,76h1v1h-1z M71,76h1v1h-1z M72,76h1v1h-1z M76,76h1v1h-1z M77,76h1v1h-1z M78,76h1v1h-1z M79,76h1v1h-1z M80,76h1v1h-1z M82,76h1v1h-1z M83,76h1v1h-1z M84,76h1v1h-1z M85,76h1v1h-1z M87,76h1v1h-1z M88,76h1v1h-1z M89,76h1v1h-1z M90,76h1v1h-1z M91,76h1v1h-1z M93,76h1v1h-1z M94,76h1v1h-1z M96,76h1v1h-1z M97,76h1v1h-1z M99,76h1v1h-1z M100,76h1v1h-1z M101,76h1v1h-1z M102,76h1v1h-1z M103,76h1v1h-1z M104,76h1v1h-1z M105,76h1v1h-1z M108,76h1v1h-1z M4,77h1v1h-1z M5,77h1v1h-1z M6,77h1v1h-1z M7,77h1v1h-1z M8,77h1v1h-1z M12,77h1v1h-1z M15,77h1v1h-1z M18,77h1v1h-1z M19,77h1v1h-1z M20,77h1v1h-1z M22,77h1v1h-1z M23,77h1v1h-1z M24,77h1v1h-1z M25,77h1v1h-1z M28,77h1v1h-1z M32,77h1v1h-1z M34,77h1v1h-1z M35,77h1v1h-1z M40,77h1v1h-1z M45,77h1v1h-1z M49,77h1v1h-1z M52,77h1v1h-1z M56,77h1v1h-1z M57,77h1v1h-1z M58,77h1v1h-1z M61,77h1v1h-1z M65,77h1v1h-1z M66,77h1v1h-1z M68,77h1v1h-1z M69,77h1v1h-1z M70,77h1v1h-1z M73,77h1v1h-1z M74,77h1v1h-1z M75,77h1v1h-1z M76,77h1v1h-1z M80,77h1v1h-1z M82,77h1v1h-1z M83,77h1v1h-1z M85,77h1v1h-1z M87,77h1v1h-1z M88,77h1v1h-1z M90,77h1v1h-1z M97,77h1v1h-1z M99,77h1v1h-1z M100,77h1v1h-1z M104,77h1v1h-1z M105,77h1v1h-1z M5,78h1v1h-1z M7,78h1v1h-1z M8,78h1v1h-1z M10,78h1v1h-1z M12,78h1v1h-1z M13,78h1v1h-1z M14,78h1v1h-1z M19,78h1v1h-1z M20,78h1v1h-1z M21,78h1v1h-1z M26,78h1v1h-1z M28,78h1v1h-1z M30,78h1v1h-1z M32,78h1v1h-1z M33,78h1v1h-1z M34,78h1v1h-1z M35,78h1v1h-1z M36,78h1v1h-1z M37,78h1v1h-1z M39,78h1v1h-1z M41,78h1v1h-1z M43,78h1v1h-1z M44,78h1v1h-1z M45,78h1v1h-1z M46,78h1v1h-1z M47,78h1v1h-1z M51,78h1v1h-1z M52,78h1v1h-1z M54,78h1v1h-1z M56,78h1v1h-1z M57,78h1v1h-1z M58,78h1v1h-1z M59,78h1v1h-1z M60,78h1v1h-1z M67,78h1v1h-1z M68,78h1v1h-1z M69,78h1v1h-1z M70,78h1v1h-1z M71,78h1v1h-1z M72,78h1v1h-1z M75,78h1v1h-1z M76,78h1v1h-1z M78,78h1v1h-1z M80,78h1v1h-1z M81,78h1v1h-1z M82,78h1v1h-1z M85,78h1v1h-1z M88,78h1v1h-1z M89,78h1v1h-1z M91,78h1v1h-1z M93,78h1v1h-1z M94,78h1v1h-1z M96,78h1v1h-1z M99,78h1v1h-1z M100,78h1v1h-1z M102,78h1v1h-1z M104,78h1v1h-1z M107,78h1v1h-1z M4,79h1v1h-1z M5,79h1v1h-1z M7,79h1v1h-1z M8,79h1v1h-1z M12,79h1v1h-1z M13,79h1v1h-1z M14,79h1v1h-1z M16,79h1v1h-1z M19,79h1v1h-1z M22,79h1v1h-1z M23,79h1v1h-1z M25,79h1v1h-1z M26,79h1v1h-1z M28,79h1v1h-1z M32,79h1v1h-1z M34,79h1v1h-1z M38,79h1v1h-1z M39,79h1v1h-1z M40,79h1v1h-1z M41,79h1v1h-1z M45,79h1v1h-1z M47,79h1v1h-1z M50,79h1v1h-1z M51,79h1v1h-1z M52,79h1v1h-1z M56,79h1v1h-1z M58,79h1v1h-1z M59,79h1v1h-1z M62,79h1v1h-1z M63,79h1v1h-1z M64,79h1v1h-1z M65,79h1v1h-1z M66,79h1v1h-1z M70,79h1v1h-1z M71,79h1v1h-1z M73,79h1v1h-1z M74,79h1v1h-1z M75,79h1v1h-1z M76,79h1v1h-1z M80,79h1v1h-1z M82,79h1v1h-1z M83,79h1v1h-1z M86,79h1v1h-1z M87,79h1v1h-1z M88,79h1v1h-1z M94,79h1v1h-1z M95,79h1v1h-1z M98,79h1v1h-1z M100,79h1v1h-1z M104,79h1v1h-1z M105,79h1v1h-1z M106,79h1v1h-1z M108,79h1v1h-1z M6,80h1v1h-1z M7,80h1v1h-1z M8,80h1v1h-1z M9,80h1v1h-1z M10,80h1v1h-1z M11,80h1v1h-1z M12,80h1v1h-1z M15,80h1v1h-1z M16,80h1v1h-1z M17,80h1v1h-1z M18,80h1v1h-1z M19,80h1v1h-1z M21,80h1v1h-1z M22,80h1v1h-1z M23,80h1v1h-1z M27,80h1v1h-1z M28,80h1v1h-1z M29,80h1v1h-1z M30,80h1v1h-1z M31,80h1v1h-1z M32,80h1v1h-1z M33,80h1v1h-1z M34,80h1v1h-1z M36,80h1v1h-1z M37,80h1v1h-1z M40,80h1v1h-1z M41,80h1v1h-1z M46,80h1v1h-1z M47,80h1v1h-1z M48,80h1v1h-1z M49,80h1v1h-1z M51,80h1v1h-1z M52,80h1v1h-1z M53,80h1v1h-1z M54,80h1v1h-1z M55,80h1v1h-1z M56,80h1v1h-1z M60,80h1v1h-1z M61,80h1v1h-1z M63,80h1v1h-1z M64,80h1v1h-1z M69,80h1v1h-1z M71,80h1v1h-1z M72,80h1v1h-1z M73,80h1v1h-1z M75,80h1v1h-1z M76,80h1v1h-1z M77,80h1v1h-1z M78,80h1v1h-1z M79,80h1v1h-1z M80,80h1v1h-1z M83,80h1v1h-1z M84,80h1v1h-1z M85,80h1v1h-1z M87,80h1v1h-1z M88,80h1v1h-1z M89,80h1v1h-1z M90,80h1v1h-1z M91,80h1v1h-1z M96,80h1v1h-1z M97,80h1v1h-1z M98,80h1v1h-1z M99,80h1v1h-1z M100,80h1v1h-1z M101,80h1v1h-1z M102,80h1v1h-1z M103,80h1v1h-1z M104,80h1v1h-1z M105,80h1v1h-1z M107,80h1v1h-1z M4,81h1v1h-1z M5,81h1v1h-1z M7,81h1v1h-1z M9,81h1v1h-1z M11,81h1v1h-1z M14,81h1v1h-1z M17,81h1v1h-1z M20,81h1v1h-1z M21,81h1v1h-1z M23,81h1v1h-1z M25,81h1v1h-1z M28,81h1v1h-1z M29,81h1v1h-1z M31,81h1v1h-1z M33,81h1v1h-1z M37,81h1v1h-1z M39,81h1v1h-1z M41,81h1v1h-1z M42,81h1v1h-1z M43,81h1v1h-1z M46,81h1v1h-1z M47,81h1v1h-1z M50,81h1v1h-1z M53,81h1v1h-1z M55,81h1v1h-1z M56,81h1v1h-1z M58,81h1v1h-1z M59,81h1v1h-1z M61,81h1v1h-1z M65,81h1v1h-1z M66,81h1v1h-1z M67,81h1v1h-1z M68,81h1v1h-1z M69,81h1v1h-1z M71,81h1v1h-1z M73,81h1v1h-1z M76,81h1v1h-1z M77,81h1v1h-1z M79,81h1v1h-1z M82,81h1v1h-1z M83,81h1v1h-1z M86,81h1v1h-1z M89,81h1v1h-1z M90,81h1v1h-1z M93,81h1v1h-1z M95,81h1v1h-1z M100,81h1v1h-1z M101,81h1v1h-1z M105,81h1v1h-1z M106,81h1v1h-1z M107,81h1v1h-1z M4,82h1v1h-1z M5,82h1v1h-1z M9,82h1v1h-1z M10,82h1v1h-1z M11,82h1v1h-1z M13,82h1v1h-1z M14,82h1v1h-1z M18,82h1v1h-1z M24,82h1v1h-1z M28,82h1v1h-1z M34,82h1v1h-1z M41,82h1v1h-1z M43,82h1v1h-1z M46,82h1v1h-1z M53,82h1v1h-1z M54,82h1v1h-1z M58,82h1v1h-1z M59,82h1v1h-1z M61,82h1v1h-1z M65,82h1v1h-1z M67,82h1v1h-1z M68,82h1v1h-1z M69,82h1v1h-1z M70,82h1v1h-1z M71,82h1v1h-1z M75,82h1v1h-1z M76,82h1v1h-1z M78,82h1v1h-1z M82,82h1v1h-1z M84,82h1v1h-1z M92,82h1v1h-1z M93,82h1v1h-1z M94,82h1v1h-1z M97,82h1v1h-1z M101,82h1v1h-1z M103,82h1v1h-1z M107,82h1v1h-1z M4,83h1v1h-1z M5,83h1v1h-1z M6,83h1v1h-1z M7,83h1v1h-1z M9,83h1v1h-1z M15,83h1v1h-1z M16,83h1v1h-1z M17,83h1v1h-1z M18,83h1v1h-1z M19,83h1v1h-1z M27,83h1v1h-1z M28,83h1v1h-1z M30,83h1v1h-1z M32,83h1v1h-1z M33,83h1v1h-1z M35,83h1v1h-1z M38,83h1v1h-1z M39,83h1v1h-1z M40,83h1v1h-1z M41,83h1v1h-1z M42,83h1v1h-1z M45,83h1v1h-1z M47,83h1v1h-1z M50,83h1v1h-1z M51,83h1v1h-1z M52,83h1v1h-1z M55,83h1v1h-1z M57,83h1v1h-1z M59,83h1v1h-1z M62,83h1v1h-1z M63,83h1v1h-1z M64,83h1v1h-1z M65,83h1v1h-1z M71,83h1v1h-1z M74,83h1v1h-1z M76,83h1v1h-1z M79,83h1v1h-1z M80,83h1v1h-1z M83,83h1v1h-1z M85,83h1v1h-1z M86,83h1v1h-1z M87,83h1v1h-1z M88,83h1v1h-1z M89,83h1v1h-1z M90,83h1v1h-1z M95,83h1v1h-1z M98,83h1v1h-1z M99,83h1v1h-1z M101,83h1v1h-1z M103,83h1v1h-1z M105,83h1v1h-1z M106,83h1v1h-1z M108,83h1v1h-1z M4,84h1v1h-1z M5,84h1v1h-1z M6,84h1v1h-1z M7,84h1v1h-1z M9,84h1v1h-1z M10,84h1v1h-1z M13,84h1v1h-1z M14,84h1v1h-1z M15,84h1v1h-1z M16,84h1v1h-1z M19,84h1v1h-1z M20,84h1v1h-1z M26,84h1v1h-1z M30,84h1v1h-1z M31,84h1v1h-1z M32,84h1v1h-1z M35,84h1v1h-1z M37,84h1v1h-1z M43,84h1v1h-1z M44,84h1v1h-1z M46,84h1v1h-1z M48,84h1v1h-1z M49,84h1v1h-1z M50,84h1v1h-1z M51,84h1v1h-1z M55,84h1v1h-1z M59,84h1v1h-1z M61,84h1v1h-1z M63,84h1v1h-1z M64,84h1v1h-1z M66,84h1v1h-1z M67,84h1v1h-1z M71,84h1v1h-1z M72,84h1v1h-1z M73,84h1v1h-1z M75,84h1v1h-1z M77,84h1v1h-1z M82,84h1v1h-1z M83,84h1v1h-1z M84,84h1v1h-1z M86,84h1v1h-1z M88,84h1v1h-1z M89,84h1v1h-1z M92,84h1v1h-1z M93,84h1v1h-1z M94,84h1v1h-1z M95,84h1v1h-1z M100,84h1v1h-1z M102,84h1v1h-1z M105,84h1v1h-1z M108,84h1v1h-1z M5,85h1v1h-1z M8,85h1v1h-1z M11,85h1v1h-1z M12,85h1v1h-1z M13,85h1v1h-1z M18,85h1v1h-1z M19,85h1v1h-1z M20,85h1v1h-1z M22,85h1v1h-1z M25,85h1v1h-1z M26,85h1v1h-1z M28,85h1v1h-1z M29,85h1v1h-1z M31,85h1v1h-1z M32,85h1v1h-1z M33,85h1v1h-1z M34,85h1v1h-1z M38,85h1v1h-1z M39,85h1v1h-1z M40,85h1v1h-1z M41,85h1v1h-1z M42,85h1v1h-1z M48,85h1v1h-1z M49,85h1v1h-1z M50,85h1v1h-1z M52,85h1v1h-1z M53,85h1v1h-1z M56,85h1v1h-1z M59,85h1v1h-1z M61,85h1v1h-1z M62,85h1v1h-1z M63,85h1v1h-1z M65,85h1v1h-1z M66,85h1v1h-1z M67,85h1v1h-1z M69,85h1v1h-1z M73,85h1v1h-1z M80,85h1v1h-1z M85,85h1v1h-1z M86,85h1v1h-1z M92,85h1v1h-1z M94,85h1v1h-1z M95,85h1v1h-1z M97,85h1v1h-1z M98,85h1v1h-1z M100,85h1v1h-1z M102,85h1v1h-1z M106,85h1v1h-1z M107,85h1v1h-1z M108,85h1v1h-1z M4,86h1v1h-1z M10,86h1v1h-1z M11,86h1v1h-1z M17,86h1v1h-1z M19,86h1v1h-1z M23,86h1v1h-1z M25,86h1v1h-1z M27,86h1v1h-1z M30,86h1v1h-1z M34,86h1v1h-1z M37,86h1v1h-1z M39,86h1v1h-1z M40,86h1v1h-1z M43,86h1v1h-1z M45,86h1v1h-1z M46,86h1v1h-1z M48,86h1v1h-1z M49,86h1v1h-1z M53,86h1v1h-1z M54,86h1v1h-1z M57,86h1v1h-1z M58,86h1v1h-1z M59,86h1v1h-1z M61,86h1v1h-1z M65,86h1v1h-1z M68,86h1v1h-1z M69,86h1v1h-1z M70,86h1v1h-1z M76,86h1v1h-1z M77,86h1v1h-1z M78,86h1v1h-1z M81,86h1v1h-1z M82,86h1v1h-1z M85,86h1v1h-1z M87,86h1v1h-1z M92,86h1v1h-1z M93,86h1v1h-1z M94,86h1v1h-1z M96,86h1v1h-1z M99,86h1v1h-1z M101,86h1v1h-1z M103,86h1v1h-1z M105,86h1v1h-1z M106,86h1v1h-1z M4,87h1v1h-1z M5,87h1v1h-1z M6,87h1v1h-1z M9,87h1v1h-1z M11,87h1v1h-1z M12,87h1v1h-1z M15,87h1v1h-1z M16,87h1v1h-1z M18,87h1v1h-1z M19,87h1v1h-1z M20,87h1v1h-1z M21,87h1v1h-1z M22,87h1v1h-1z M24,87h1v1h-1z M25,87h1v1h-1z M26,87h1v1h-1z M28,87h1v1h-1z M33,87h1v1h-1z M35,87h1v1h-1z M38,87h1v1h-1z M39,87h1v1h-1z M40,87h1v1h-1z M41,87h1v1h-1z M42,87h1v1h-1z M46,87h1v1h-1z M49,87h1v1h-1z M50,87h1v1h-1z M56,87h1v1h-1z M58,87h1v1h-1z M59,87h1v1h-1z M62,87h1v1h-1z M63,87h1v1h-1z M64,87h1v1h-1z M66,87h1v1h-1z M69,87h1v1h-1z M70,87h1v1h-1z M71,87h1v1h-1z M74,87h1v1h-1z M75,87h1v1h-1z M78,87h1v1h-1z M79,87h1v1h-1z M80,87h1v1h-1z M81,87h1v1h-1z M82,87h1v1h-1z M83,87h1v1h-1z M86,87h1v1h-1z M87,87h1v1h-1z M88,87h1v1h-1z M89,87h1v1h-1z M90,87h1v1h-1z M91,87h1v1h-1z M94,87h1v1h-1z M95,87h1v1h-1z M99,87h1v1h-1z M103,87h1v1h-1z M105,87h1v1h-1z M106,87h1v1h-1z M107,87h1v1h-1z M5,88h1v1h-1z M6,88h1v1h-1z M7,88h1v1h-1z M10,88h1v1h-1z M13,88h1v1h-1z M16,88h1v1h-1z M17,88h1v1h-1z M19,88h1v1h-1z M21,88h1v1h-1z M26,88h1v1h-1z M31,88h1v1h-1z M32,88h1v1h-1z M34,88h1v1h-1z M37,88h1v1h-1z M41,88h1v1h-1z M43,88h1v1h-1z M48,88h1v1h-1z M51,88h1v1h-1z M52,88h1v1h-1z M53,88h1v1h-1z M56,88h1v1h-1z M59,88h1v1h-1z M60,88h1v1h-1z M61,88h1v1h-1z M63,88h1v1h-1z M64,88h1v1h-1z M67,88h1v1h-1z M71,88h1v1h-1z M72,88h1v1h-1z M75,88h1v1h-1z M77,88h1v1h-1z M84,88h1v1h-1z M85,88h1v1h-1z M86,88h1v1h-1z M87,88h1v1h-1z M88,88h1v1h-1z M90,88h1v1h-1z M92,88h1v1h-1z M100,88h1v1h-1z M101,88h1v1h-1z M102,88h1v1h-1z M105,88h1v1h-1z M108,88h1v1h-1z M4,89h1v1h-1z M6,89h1v1h-1z M11,89h1v1h-1z M16,89h1v1h-1z M17,89h1v1h-1z M20,89h1v1h-1z M24,89h1v1h-1z M28,89h1v1h-1z M32,89h1v1h-1z M34,89h1v1h-1z M35,89h1v1h-1z M37,89h1v1h-1z M39,89h1v1h-1z M40,89h1v1h-1z M42,89h1v1h-1z M43,89h1v1h-1z M46,89h1v1h-1z M47,89h1v1h-1z M49,89h1v1h-1z M50,89h1v1h-1z M53,89h1v1h-1z M55,89h1v1h-1z M56,89h1v1h-1z M59,89h1v1h-1z M63,89h1v1h-1z M64,89h1v1h-1z M65,89h1v1h-1z M66,89h1v1h-1z M73,89h1v1h-1z M77,89h1v1h-1z M81,89h1v1h-1z M84,89h1v1h-1z M85,89h1v1h-1z M87,89h1v1h-1z M88,89h1v1h-1z M92,89h1v1h-1z M94,89h1v1h-1z M95,89h1v1h-1z M97,89h1v1h-1z M98,89h1v1h-1z M100,89h1v1h-1z M101,89h1v1h-1z M102,89h1v1h-1z M106,89h1v1h-1z M108,89h1v1h-1z M5,90h1v1h-1z M6,90h1v1h-1z M7,90h1v1h-1z M8,90h1v1h-1z M10,90h1v1h-1z M12,90h1v1h-1z M13,90h1v1h-1z M14,90h1v1h-1z M17,90h1v1h-1z M19,90h1v1h-1z M20,90h1v1h-1z M21,90h1v1h-1z M22,90h1v1h-1z M24,90h1v1h-1z M25,90h1v1h-1z M26,90h1v1h-1z M27,90h1v1h-1z M29,90h1v1h-1z M30,90h1v1h-1z M33,90h1v1h-1z M34,90h1v1h-1z M35,90h1v1h-1z M36,90h1v1h-1z M37,90h1v1h-1z M39,90h1v1h-1z M41,90h1v1h-1z M43,90h1v1h-1z M44,90h1v1h-1z M45,90h1v1h-1z M46,90h1v1h-1z M51,90h1v1h-1z M54,90h1v1h-1z M58,90h1v1h-1z M60,90h1v1h-1z M61,90h1v1h-1z M63,90h1v1h-1z M67,90h1v1h-1z M69,90h1v1h-1z M70,90h1v1h-1z M71,90h1v1h-1z M72,90h1v1h-1z M76,90h1v1h-1z M81,90h1v1h-1z M82,90h1v1h-1z M87,90h1v1h-1z M88,90h1v1h-1z M89,90h1v1h-1z M91,90h1v1h-1z M92,90h1v1h-1z M93,90h1v1h-1z M94,90h1v1h-1z M95,90h1v1h-1z M96,90h1v1h-1z M97,90h1v1h-1z M99,90h1v1h-1z M100,90h1v1h-1z M101,90h1v1h-1z M103,90h1v1h-1z M105,90h1v1h-1z M107,90h1v1h-1z M6,91h1v1h-1z M11,91h1v1h-1z M13,91h1v1h-1z M15,91h1v1h-1z M16,91h1v1h-1z M17,91h1v1h-1z M18,91h1v1h-1z M20,91h1v1h-1z M21,91h1v1h-1z M23,91h1v1h-1z M24,91h1v1h-1z M27,91h1v1h-1z M29,91h1v1h-1z M30,91h1v1h-1z M31,91h1v1h-1z M32,91h1v1h-1z M35,91h1v1h-1z M38,91h1v1h-1z M39,91h1v1h-1z M40,91h1v1h-1z M41,91h1v1h-1z M42,91h1v1h-1z M46,91h1v1h-1z M47,91h1v1h-1z M49,91h1v1h-1z M50,91h1v1h-1z M52,91h1v1h-1z M53,91h1v1h-1z M59,91h1v1h-1z M62,91h1v1h-1z M64,91h1v1h-1z M65,91h1v1h-1z M66,91h1v1h-1z M69,91h1v1h-1z M76,91h1v1h-1z M79,91h1v1h-1z M81,91h1v1h-1z M82,91h1v1h-1z M83,91h1v1h-1z M87,91h1v1h-1z M88,91h1v1h-1z M93,91h1v1h-1z M94,91h1v1h-1z M98,91h1v1h-1z M99,91h1v1h-1z M100,91h1v1h-1z M103,91h1v1h-1z M105,91h1v1h-1z M106,91h1v1h-1z M4,92h1v1h-1z M5,92h1v1h-1z M7,92h1v1h-1z M8,92h1v1h-1z M9,92h1v1h-1z M10,92h1v1h-1z M14,92h1v1h-1z M15,92h1v1h-1z M16,92h1v1h-1z M17,92h1v1h-1z M18,92h1v1h-1z M19,92h1v1h-1z M20,92h1v1h-1z M22,92h1v1h-1z M23,92h1v1h-1z M26,92h1v1h-1z M29,92h1v1h-1z M30,92h1v1h-1z M31,92h1v1h-1z M33,92h1v1h-1z M34,92h1v1h-1z M35,92h1v1h-1z M36,92h1v1h-1z M37,92h1v1h-1z M39,92h1v1h-1z M40,92h1v1h-1z M42,92h1v1h-1z M46,92h1v1h-1z M47,92h1v1h-1z M48,92h1v1h-1z M49,92h1v1h-1z M50,92h1v1h-1z M53,92h1v1h-1z M54,92h1v1h-1z M58,92h1v1h-1z M63,92h1v1h-1z M65,92h1v1h-1z M66,92h1v1h-1z M67,92h1v1h-1z M69,92h1v1h-1z M71,92h1v1h-1z M73,92h1v1h-1z M74,92h1v1h-1z M77,92h1v1h-1z M78,92h1v1h-1z M79,92h1v1h-1z M80,92h1v1h-1z M82,92h1v1h-1z M85,92h1v1h-1z M89,92h1v1h-1z M91,92h1v1h-1z M92,92h1v1h-1z M94,92h1v1h-1z M95,92h1v1h-1z M97,92h1v1h-1z M102,92h1v1h-1z M103,92h1v1h-1z M105,92h1v1h-1z M108,92h1v1h-1z M4,93h1v1h-1z M5,93h1v1h-1z M6,93h1v1h-1z M7,93h1v1h-1z M8,93h1v1h-1z M12,93h1v1h-1z M13,93h1v1h-1z M14,93h1v1h-1z M15,93h1v1h-1z M17,93h1v1h-1z M21,93h1v1h-1z M24,93h1v1h-1z M32,93h1v1h-1z M33,93h1v1h-1z M39,93h1v1h-1z M40,93h1v1h-1z M41,93h1v1h-1z M42,93h1v1h-1z M43,93h1v1h-1z M48,93h1v1h-1z M49,93h1v1h-1z M53,93h1v1h-1z M56,93h1v1h-1z M57,93h1v1h-1z M58,93h1v1h-1z M64,93h1v1h-1z M67,93h1v1h-1z M68,93h1v1h-1z M70,93h1v1h-1z M73,93h1v1h-1z M79,93h1v1h-1z M80,93h1v1h-1z M83,93h1v1h-1z M85,93h1v1h-1z M90,93h1v1h-1z M96,93h1v1h-1z M97,93h1v1h-1z M98,93h1v1h-1z M101,93h1v1h-1z M102,93h1v1h-1z M105,93h1v1h-1z M106,93h1v1h-1z M108,93h1v1h-1z M6,94h1v1h-1z M7,94h1v1h-1z M8,94h1v1h-1z M9,94h1v1h-1z M10,94h1v1h-1z M11,94h1v1h-1z M12,94h1v1h-1z M13,94h1v1h-1z M14,94h1v1h-1z M15,94h1v1h-1z M19,94h1v1h-1z M20,94h1v1h-1z M21,94h1v1h-1z M22,94h1v1h-1z M23,94h1v1h-1z M25,94h1v1h-1z M27,94h1v1h-1z M29,94h1v1h-1z M30,94h1v1h-1z M34,94h1v1h-1z M35,94h1v1h-1z M36,94h1v1h-1z M40,94h1v1h-1z M41,94h1v1h-1z M43,94h1v1h-1z M44,94h1v1h-1z M46,94h1v1h-1z M48,94h1v1h-1z M51,94h1v1h-1z M54,94h1v1h-1z M55,94h1v1h-1z M58,94h1v1h-1z M65,94h1v1h-1z M68,94h1v1h-1z M69,94h1v1h-1z M70,94h1v1h-1z M77,94h1v1h-1z M78,94h1v1h-1z M82,94h1v1h-1z M88,94h1v1h-1z M89,94h1v1h-1z M92,94h1v1h-1z M94,94h1v1h-1z M96,94h1v1h-1z M97,94h1v1h-1z M103,94h1v1h-1z M106,94h1v1h-1z M5,95h1v1h-1z M11,95h1v1h-1z M13,95h1v1h-1z M15,95h1v1h-1z M16,95h1v1h-1z M17,95h1v1h-1z M18,95h1v1h-1z M19,95h1v1h-1z M20,95h1v1h-1z M21,95h1v1h-1z M24,95h1v1h-1z M29,95h1v1h-1z M38,95h1v1h-1z M39,95h1v1h-1z M40,95h1v1h-1z M41,95h1v1h-1z M45,95h1v1h-1z M47,95h1v1h-1z M49,95h1v1h-1z M50,95h1v1h-1z M52,95h1v1h-1z M56,95h1v1h-1z M57,95h1v1h-1z M59,95h1v1h-1z M61,95h1v1h-1z M63,95h1v1h-1z M64,95h1v1h-1z M66,95h1v1h-1z M69,95h1v1h-1z M70,95h1v1h-1z M71,95h1v1h-1z M74,95h1v1h-1z M75,95h1v1h-1z M76,95h1v1h-1z M77,95h1v1h-1z M78,95h1v1h-1z M80,95h1v1h-1z M81,95h1v1h-1z M83,95h1v1h-1z M87,95h1v1h-1z M88,95h1v1h-1z M90,95h1v1h-1z M95,95h1v1h-1z M98,95h1v1h-1z M99,95h1v1h-1z M101,95h1v1h-1z M102,95h1v1h-1z M103,95h1v1h-1z M106,95h1v1h-1z M108,95h1v1h-1z M4,96h1v1h-1z M7,96h1v1h-1z M8,96h1v1h-1z M10,96h1v1h-1z M11,96h1v1h-1z M12,96h1v1h-1z M14,96h1v1h-1z M15,96h1v1h-1z M16,96h1v1h-1z M17,96h1v1h-1z M21,96h1v1h-1z M23,96h1v1h-1z M27,96h1v1h-1z M28,96h1v1h-1z M29,96h1v1h-1z M31,96h1v1h-1z M33,96h1v1h-1z M34,96h1v1h-1z M35,96h1v1h-1z M36,96h1v1h-1z M39,96h1v1h-1z M45,96h1v1h-1z M47,96h1v1h-1z M48,96h1v1h-1z M49,96h1v1h-1z M50,96h1v1h-1z M51,96h1v1h-1z M53,96h1v1h-1z M54,96h1v1h-1z M55,96h1v1h-1z M59,96h1v1h-1z M60,96h1v1h-1z M61,96h1v1h-1z M63,96h1v1h-1z M67,96h1v1h-1z M68,96h1v1h-1z M70,96h1v1h-1z M73,96h1v1h-1z M74,96h1v1h-1z M78,96h1v1h-1z M79,96h1v1h-1z M80,96h1v1h-1z M81,96h1v1h-1z M87,96h1v1h-1z M88,96h1v1h-1z M91,96h1v1h-1z M92,96h1v1h-1z M95,96h1v1h-1z M98,96h1v1h-1z M101,96h1v1h-1z M104,96h1v1h-1z M105,96h1v1h-1z M108,96h1v1h-1z M4,97h1v1h-1z M6,97h1v1h-1z M14,97h1v1h-1z M15,97h1v1h-1z M16,97h1v1h-1z M17,97h1v1h-1z M19,97h1v1h-1z M20,97h1v1h-1z M25,97h1v1h-1z M29,97h1v1h-1z M32,97h1v1h-1z M33,97h1v1h-1z M34,97h1v1h-1z M40,97h1v1h-1z M42,97h1v1h-1z M45,97h1v1h-1z M48,97h1v1h-1z M52,97h1v1h-1z M53,97h1v1h-1z M56,97h1v1h-1z M57,97h1v1h-1z M59,97h1v1h-1z M62,97h1v1h-1z M63,97h1v1h-1z M65,97h1v1h-1z M72,97h1v1h-1z M73,97h1v1h-1z M77,97h1v1h-1z M80,97h1v1h-1z M81,97h1v1h-1z M82,97h1v1h-1z M84,97h1v1h-1z M88,97h1v1h-1z M89,97h1v1h-1z M90,97h1v1h-1z M91,97h1v1h-1z M92,97h1v1h-1z M93,97h1v1h-1z M96,97h1v1h-1z M100,97h1v1h-1z M102,97h1v1h-1z M103,97h1v1h-1z M105,97h1v1h-1z M106,97h1v1h-1z M107,97h1v1h-1z M108,97h1v1h-1z M4,98h1v1h-1z M5,98h1v1h-1z M6,98h1v1h-1z M10,98h1v1h-1z M11,98h1v1h-1z M13,98h1v1h-1z M16,98h1v1h-1z M17,98h1v1h-1z M20,98h1v1h-1z M21,98h1v1h-1z M22,98h1v1h-1z M25,98h1v1h-1z M26,98h1v1h-1z M27,98h1v1h-1z M29,98h1v1h-1z M30,98h1v1h-1z M33,98h1v1h-1z M34,98h1v1h-1z M37,98h1v1h-1z M39,98h1v1h-1z M41,98h1v1h-1z M44,98h1v1h-1z M45,98h1v1h-1z M46,98h1v1h-1z M47,98h1v1h-1z M48,98h1v1h-1z M53,98h1v1h-1z M55,98h1v1h-1z M57,98h1v1h-1z M58,98h1v1h-1z M59,98h1v1h-1z M60,98h1v1h-1z M63,98h1v1h-1z M64,98h1v1h-1z M65,98h1v1h-1z M68,98h1v1h-1z M69,98h1v1h-1z M70,98h1v1h-1z M71,98h1v1h-1z M75,98h1v1h-1z M76,98h1v1h-1z M77,98h1v1h-1z M78,98h1v1h-1z M79,98h1v1h-1z M82,98h1v1h-1z M83,98h1v1h-1z M84,98h1v1h-1z M87,98h1v1h-1z M88,98h1v1h-1z M89,98h1v1h-1z M92,98h1v1h-1z M94,98h1v1h-1z M95,98h1v1h-1z M96,98h1v1h-1z M99,98h1v1h-1z M101,98h1v1h-1z M103,98h1v1h-1z M6,99h1v1h-1z M8,99h1v1h-1z M9,99h1v1h-1z M11,99h1v1h-1z M13,99h1v1h-1z M16,99h1v1h-1z M17,99h1v1h-1z M18,99h1v1h-1z M22,99h1v1h-1z M23,99h1v1h-1z M24,99h1v1h-1z M26,99h1v1h-1z M27,99h1v1h-1z M28,99h1v1h-1z M29,99h1v1h-1z M33,99h1v1h-1z M34,99h1v1h-1z M35,99h1v1h-1z M38,99h1v1h-1z M39,99h1v1h-1z M40,99h1v1h-1z M42,99h1v1h-1z M43,99h1v1h-1z M46,99h1v1h-1z M47,99h1v1h-1z M49,99h1v1h-1z M50,99h1v1h-1z M52,99h1v1h-1z M54,99h1v1h-1z M56,99h1v1h-1z M63,99h1v1h-1z M64,99h1v1h-1z M66,99h1v1h-1z M67,99h1v1h-1z M69,99h1v1h-1z M70,99h1v1h-1z M71,99h1v1h-1z M73,99h1v1h-1z M81,99h1v1h-1z M83,99h1v1h-1z M85,99h1v1h-1z M87,99h1v1h-1z M88,99h1v1h-1z M91,99h1v1h-1z M99,99h1v1h-1z M100,99h1v1h-1z M101,99h1v1h-1z M102,99h1v1h-1z M105,99h1v1h-1z M106,99h1v1h-1z M7,100h1v1h-1z M8,100h1v1h-1z M10,100h1v1h-1z M11,100h1v1h-1z M12,100h1v1h-1z M16,100h1v1h-1z M17,100h1v1h-1z M21,100h1v1h-1z M23,100h1v1h-1z M24,100h1v1h-1z M27,100h1v1h-1z M28,100h1v1h-1z M29,100h1v1h-1z M30,100h1v1h-1z M31,100h1v1h-1z M32,100h1v1h-1z M34,100h1v1h-1z M36,100h1v1h-1z M37,100h1v1h-1z M40,100h1v1h-1z M41,100h1v1h-1z M42,100h1v1h-1z M43,100h1v1h-1z M45,100h1v1h-1z M46,100h1v1h-1z M47,100h1v1h-1z M49,100h1v1h-1z M50,100h1v1h-1z M51,100h1v1h-1z M52,100h1v1h-1z M53,100h1v1h-1z M54,100h1v1h-1z M55,100h1v1h-1z M56,100h1v1h-1z M59,100h1v1h-1z M60,100h1v1h-1z M61,100h1v1h-1z M62,100h1v1h-1z M64,100h1v1h-1z M68,100h1v1h-1z M73,100h1v1h-1z M76,100h1v1h-1z M77,100h1v1h-1z M78,100h1v1h-1z M79,100h1v1h-1z M80,100h1v1h-1z M81,100h1v1h-1z M82,100h1v1h-1z M84,100h1v1h-1z M86,100h1v1h-1z M87,100h1v1h-1z M88,100h1v1h-1z M89,100h1v1h-1z M94,100h1v1h-1z M96,100h1v1h-1z M100,100h1v1h-1z M101,100h1v1h-1z M102,100h1v1h-1z M103,100h1v1h-1z M104,100h1v1h-1z M12,101h1v1h-1z M13,101h1v1h-1z M16,101h1v1h-1z M19,101h1v1h-1z M20,101h1v1h-1z M21,101h1v1h-1z M26,101h1v1h-1z M27,101h1v1h-1z M28,101h1v1h-1z M32,101h1v1h-1z M35,101h1v1h-1z M40,101h1v1h-1z M41,101h1v1h-1z M48,101h1v1h-1z M51,101h1v1h-1z M52,101h1v1h-1z M56,101h1v1h-1z M57,101h1v1h-1z M64,101h1v1h-1z M66,101h1v1h-1z M68,101h1v1h-1z M70,101h1v1h-1z M72,101h1v1h-1z M75,101h1v1h-1z M76,101h1v1h-1z M80,101h1v1h-1z M81,101h1v1h-1z M83,101h1v1h-1z M89,101h1v1h-1z M93,101h1v1h-1z M94,101h1v1h-1z M98,101h1v1h-1z M100,101h1v1h-1z M104,101h1v1h-1z M106,101h1v1h-1z M4,102h1v1h-1z M5,102h1v1h-1z M6,102h1v1h-1z M7,102h1v1h-1z M8,102h1v1h-1z M9,102h1v1h-1z M10,102h1v1h-1z M12,102h1v1h-1z M13,102h1v1h-1z M15,102h1v1h-1z M16,102h1v1h-1z M20,102h1v1h-1z M21,102h1v1h-1z M24,102h1v1h-1z M25,102h1v1h-1z M28,102h1v1h-1z M30,102h1v1h-1z M32,102h1v1h-1z M34,102h1v1h-1z M36,102h1v1h-1z M39,102h1v1h-1z M41,102h1v1h-1z M44,102h1v1h-1z M45,102h1v1h-1z M46,102h1v1h-1z M47,102h1v1h-1z M52,102h1v1h-1z M54,102h1v1h-1z M56,102h1v1h-1z M58,102h1v1h-1z M59,102h1v1h-1z M60,102h1v1h-1z M61,102h1v1h-1z M63,102h1v1h-1z M65,102h1v1h-1z M68,102h1v1h-1z M69,102h1v1h-1z M70,102h1v1h-1z M73,102h1v1h-1z M76,102h1v1h-1z M78,102h1v1h-1z M80,102h1v1h-1z M81,102h1v1h-1z M82,102h1v1h-1z M84,102h1v1h-1z M88,102h1v1h-1z M89,102h1v1h-1z M91,102h1v1h-1z M92,102h1v1h-1z M93,102h1v1h-1z M94,102h1v1h-1z M96,102h1v1h-1z M100,102h1v1h-1z M102,102h1v1h-1z M104,102h1v1h-1z M106,102h1v1h-1z M107,102h1v1h-1z M4,103h1v1h-1z M10,103h1v1h-1z M13,103h1v1h-1z M17,103h1v1h-1z M19,103h1v1h-1z M22,103h1v1h-1z M23,103h1v1h-1z M27,103h1v1h-1z M28,103h1v1h-1z M32,103h1v1h-1z M33,103h1v1h-1z M35,103h1v1h-1z M38,103h1v1h-1z M40,103h1v1h-1z M42,103h1v1h-1z M47,103h1v1h-1z M52,103h1v1h-1z M56,103h1v1h-1z M57,103h1v1h-1z M62,103h1v1h-1z M63,103h1v1h-1z M64,103h1v1h-1z M65,103h1v1h-1z M66,103h1v1h-1z M69,103h1v1h-1z M70,103h1v1h-1z M71,103h1v1h-1z M74,103h1v1h-1z M76,103h1v1h-1z M80,103h1v1h-1z M85,103h1v1h-1z M86,103h1v1h-1z M87,103h1v1h-1z M88,103h1v1h-1z M89,103h1v1h-1z M90,103h1v1h-1z M93,103h1v1h-1z M95,103h1v1h-1z M99,103h1v1h-1z M100,103h1v1h-1z M104,103h1v1h-1z M105,103h1v1h-1z M106,103h1v1h-1z M4,104h1v1h-1z M6,104h1v1h-1z M7,104h1v1h-1z M8,104h1v1h-1z M10,104h1v1h-1z M12,104h1v1h-1z M13,104h1v1h-1z M14,104h1v1h-1z M15,104h1v1h-1z M17,104h1v1h-1z M19,104h1v1h-1z M24,104h1v1h-1z M28,104h1v1h-1z M29,104h1v1h-1z M30,104h1v1h-1z M31,104h1v1h-1z M32,104h1v1h-1z M33,104h1v1h-1z M37,104h1v1h-1z M40,104h1v1h-1z M42,104h1v1h-1z M43,104h1v1h-1z M44,104h1v1h-1z M45,104h1v1h-1z M46,104h1v1h-1z M49,104h1v1h-1z M50,104h1v1h-1z M51,104h1v1h-1z M52,104h1v1h-1z M53,104h1v1h-1z M54,104h1v1h-1z M55,104h1v1h-1z M56,104h1v1h-1z M57,104h1v1h-1z M61,104h1v1h-1z M62,104h1v1h-1z M63,104h1v1h-1z M64,104h1v1h-1z M65,104h1v1h-1z M68,104h1v1h-1z M69,104h1v1h-1z M71,104h1v1h-1z M72,104h1v1h-1z M73,104h1v1h-1z M76,104h1v1h-1z M77,104h1v1h-1z M78,104h1v1h-1z M79,104h1v1h-1z M80,104h1v1h-1z M82,104h1v1h-1z M86,104h1v1h-1z M87,104h1v1h-1z M88,104h1v1h-1z M91,104h1v1h-1z M93,104h1v1h-1z M94,104h1v1h-1z M95,104h1v1h-1z M100,104h1v1h-1z M101,104h1v1h-1z M102,104h1v1h-1z M103,104h1v1h-1z M104,104h1v1h-1z M105,104h1v1h-1z M108,104h1v1h-1z M4,105h1v1h-1z M6,105h1v1h-1z M7,105h1v1h-1z M8,105h1v1h-1z M10,105h1v1h-1z M12,105h1v1h-1z M13,105h1v1h-1z M15,105h1v1h-1z M16,105h1v1h-1z M19,105h1v1h-1z M21,105h1v1h-1z M23,105h1v1h-1z M26,105h1v1h-1z M31,105h1v1h-1z M34,105h1v1h-1z M35,105h1v1h-1z M38,105h1v1h-1z M40,105h1v1h-1z M42,105h1v1h-1z M45,105h1v1h-1z M47,105h1v1h-1z M51,105h1v1h-1z M53,105h1v1h-1z M54,105h1v1h-1z M55,105h1v1h-1z M57,105h1v1h-1z M59,105h1v1h-1z M64,105h1v1h-1z M65,105h1v1h-1z M66,105h1v1h-1z M68,105h1v1h-1z M69,105h1v1h-1z M74,105h1v1h-1z M78,105h1v1h-1z M79,105h1v1h-1z M81,105h1v1h-1z M82,105h1v1h-1z M84,105h1v1h-1z M87,105h1v1h-1z M88,105h1v1h-1z M89,105h1v1h-1z M92,105h1v1h-1z M94,105h1v1h-1z M96,105h1v1h-1z M97,105h1v1h-1z M100,105h1v1h-1z M101,105h1v1h-1z M104,105h1v1h-1z M4,106h1v1h-1z M6,106h1v1h-1z M7,106h1v1h-1z M8,106h1v1h-1z M10,106h1v1h-1z M12,106h1v1h-1z M15,106h1v1h-1z M18,106h1v1h-1z M20,106h1v1h-1z M21,106h1v1h-1z M23,106h1v1h-1z M29,106h1v1h-1z M31,106h1v1h-1z M32,106h1v1h-1z M33,106h1v1h-1z M34,106h1v1h-1z M36,106h1v1h-1z M39,106h1v1h-1z M40,106h1v1h-1z M41,106h1v1h-1z M44,106h1v1h-1z M45,106h1v1h-1z M46,106h1v1h-1z M48,106h1v1h-1z M51,106h1v1h-1z M52,106h1v1h-1z M53,106h1v1h-1z M57,106h1v1h-1z M58,106h1v1h-1z M65,106h1v1h-1z M69,106h1v1h-1z M70,106h1v1h-1z M75,106h1v1h-1z M76,106h1v1h-1z M77,106h1v1h-1z M79,106h1v1h-1z M80,106h1v1h-1z M81,106h1v1h-1z M82,106h1v1h-1z M84,106h1v1h-1z M87,106h1v1h-1z M89,106h1v1h-1z M91,106h1v1h-1z M93,106h1v1h-1z M94,106h1v1h-1z M96,106h1v1h-1z M99,106h1v1h-1z M100,106h1v1h-1z M101,106h1v1h-1z M102,106h1v1h-1z M106,106h1v1h-1z M4,107h1v1h-1z M10,107h1v1h-1z M12,107h1v1h-1z M13,107h1v1h-1z M17,107h1v1h-1z M18,107h1v1h-1z M19,107h1v1h-1z M22,107h1v1h-1z M23,107h1v1h-1z M24,107h1v1h-1z M25,107h1v1h-1z M26,107h1v1h-1z M28,107h1v1h-1z M39,107h1v1h-1z M40,107h1v1h-1z M43,107h1v1h-1z M46,107h1v1h-1z M47,107h1v1h-1z M50,107h1v1h-1z M51,107h1v1h-1z M52,107h1v1h-1z M58,107h1v1h-1z M59,107h1v1h-1z M61,107h1v1h-1z M62,107h1v1h-1z M63,107h1v1h-1z M64,107h1v1h-1z M71,107h1v1h-1z M74,107h1v1h-1z M75,107h1v1h-1z M76,107h1v1h-1z M77,107h1v1h-1z M78,107h1v1h-1z M81,107h1v1h-1z M82,107h1v1h-1z M83,107h1v1h-1z M85,107h1v1h-1z M86,107h1v1h-1z M87,107h1v1h-1z M88,107h1v1h-1z M89,107h1v1h-1z M90,107h1v1h-1z M93,107h1v1h-1z M94,107h1v1h-1z M95,107h1v1h-1z M97,107h1v1h-1z M98,107h1v1h-1z M100,107h1v1h-1z M103,107h1v1h-1z M105,107h1v1h-1z M106,107h1v1h-1z M4,108h1v1h-1z M5,108h1v1h-1z M6,108h1v1h-1z M7,108h1v1h-1z M8,108h1v1h-1z M9,108h1v1h-1z M10,108h1v1h-1z M12,108h1v1h-1z M14,108h1v1h-1z M15,108h1v1h-1z M16,108h1v1h-1z M18,108h1v1h-1z M19,108h1v1h-1z M25,108h1v1h-1z M27,108h1v1h-1z M29,108h1v1h-1z M31,108h1v1h-1z M34,108h1v1h-1z M35,108h1v1h-1z M36,108h1v1h-1z M40,108h1v1h-1z M41,108h1v1h-1z M50,108h1v1h-1z M52,108h1v1h-1z M54,108h1v1h-1z M56,108h1v1h-1z M57,108h1v1h-1z M59,108h1v1h-1z M60,108h1v1h-1z M64,108h1v1h-1z M65,108h1v1h-1z M71,108h1v1h-1z M72,108h1v1h-1z M73,108h1v1h-1z M75,108h1v1h-1z M76,108h1v1h-1z M78,108h1v1h-1z M79,108h1v1h-1z M80,108h1v1h-1z M81,108h1v1h-1z M82,108h1v1h-1z M83,108h1v1h-1z M84,108h1v1h-1z M88,108h1v1h-1z M89,108h1v1h-1z M91,108h1v1h-1z M93,108h1v1h-1z M94,108h1v1h-1z M99,108h1v1h-1z M100,108h1v1h-1z M101,108h1v1h-1z M102,108h1v1h-1z M105,108h1v1h-1z M107,108h1v1h-1z" fill="#000000"/>
</svg>
