<?xml version="1.0" encoding="UTF-8"?>
<!DOCTYPE svg PUBLIC "-//W3C//DTD SVG 1.1//EN" "http://www.w3.org/Graphics/SVG/1.1/DTD/svg11.dtd">
<svg xmlns="http://www.w3.org/2000/svg" version="1.1" viewBox="0 0 113 113" stroke="none">
	<rect width="100%" height="100%" fill="#FFFFFF"/>
	<path d="M4,4h1v1h-1z M5,4h1v1h-1z M6,4h1v1h-1z M7,4h1v1h-1z M8,4h1v1h-1z M9,4h1v1h-1z M10,4h1v1h-1z M12,4h1v1h-1z M13,4h1v1h-1z M15,4h1v1h-1z M16,4h1v1h-1z M17,4h1v1h-1z M18,4h1v1h-1z M20,4h1v1h-1z M24,4h1v1h-1z M26,4h1v1h-1z M27,4h1v1h-1z M28,4h1v1h-1z M29,4h1v1h-1z M31,4h1v1h-1z M35,4h1v1h-1z M36,4h1v1h-1z M37,4h1v1h-1z M38,4h1v1h-1z M39,4h1v1h-1z M40,4h1v1h-1z M41,4h1v1h-1z M42,4h1v1h-1z M45,4h1v1h-1z M46,4h1v1h-1z M47,4h1v1h-1z M48,4h1v1h-1z M49,4h1v1h-1z M50,4h1v1h-1z M53,4h1v1h-1z M55,4h1v1h-1z M57,4h1v1h-1z M58,4h1v1h-1z M61,4h1v1h-1z M66,4h1v1h-1z M69,4h1v1h-1z M70,4h1v1h-1z M72,4h1v1h-1z M74,4h1v1h-1z M75,4h1v1h-1z M76,4h1v1h-1z M78,4h1v1h-1z M80,4h1v1h-1z M89,4h1v1h-1z M90,4h1v1h-1z M91,4h1v1h-1z M94,4h1v1h-1z M95,4h1v1h-1z M98,4h1v1h-1z M102,4h1v1h-1z M103,4h1v1h-1z M104,4h1v1h-1z M105,4h1v1h-1z M106,4h1v1h-1z M107,4h1v1h-1z M108,4h1v1h-1z M4,5h1v1h-1z M10,5h1v1h-1z M12,5h1v1h-1z M13,5h1v1h-1z M14,5h1v1h-1z M17,5h1v1h-1z M18,5h1v1h-1z M20,5h1v1h-1z M21,5h1v1h-1z M24,5h1v1h-1z M28,5h1v1h-1z M30,5h1v1h-1z M31,5h1v1h-1z M32,5h1v1h-1z M33,5h1v1h-1z M34,5h1v1h-1z M37,5h1v1h-1z M40,5h1v1h-1z M42,5h1v1h-1z M45,5h1v1h-1z M46,5h1v1h-1z M47,5h1v1h-1z M49,5h1v1h-1z M51,5h1v1h-1z M54,5h1v1h-1z M55,5h1v1h-1z M57,5h1v1h-1z M58,5h1v1h-1z M59,5h1v1h-1z M63,5h1v1h-1z M66,5h1v1h-1z M68,5h1v1h-1z M70,5h1v1h-1z M71,5h1v1h-1z M72,5h1v1h-1z M75,5h1v1h-1z M76,5h1v1h-1z M78,5h1v1h-1z M79,5h1v1h-1z M81,5h1v1h-1z M82,5h1v1h-1z M85,5h1v1h-1z M87,5h1v1h-1z M89,5h1v1h-1z M90,5h1v1h-1z M91,5h1v1h-1z M92,5h1v1h-1z M93,5h1v1h-1z M94,5h1v1h-1z M95,5h1v1h-1z M96,5h1v1h-1z M97,5h1v1h-1z M98,5h1v1h-1z M102,5h1v1h-1z M108,5h1v1h-1z M4,6h1v1h-1z M6,6h1v1h-1z M7,6h1v1h-1z M8,6h1v1h-1z M10,6h1v1h-1z M12,6h1v1h-1z M17,6h1v1h-1z M21,6h1v1h-1z M22,6h1v1h-1z M23,6h1v1h-1z M25,6h1v1h-1z M26,6h1v1h-1z M31,6h1v1h-1z M32,6h1v1h-1z M33,6h1v1h-1z M34,6h1v1h-1z M35,6h1v1h-1z M38,6h1v1h-1z M42,6h1v1h-1z M44,6h1v1h-1z M45,6h1v1h-1z M46,6h1v1h-1z M49,6h1v1h-1z M51,6h1v1h-1z M56,6h1v1h-1z M57,6h1v1h-1z M59,6h1v1h-1z M66,6h1v1h-1z M68,6h1v1h-1z M70,6h1v1h-1z M71,6h1v1h-1z M73,6h1v1h-1z M77,6h1v1h-1z M80,6h1v1h-1z M81,6h1v1h-1z M82,6h1v1h-1z M86,6h1v1h-1z M87,6h1v1h-1z M89,6h1v1h-1z M90,6h1v1h-1z M91,6h1v1h-1z M92,6h1v1h-1z M95,6h1v1h-1z M97,6h1v1h-1z M98,6h1v1h-1z M99,6h1v1h-1z M102,6h1v1h-1z M104,6h1v1h-1z M105,6h1v1h-1z M106,6h1v1h-1z M108,6h1v1h-1z M4,7h1v1h-1z M6,7h1v1h-1z M7,7h1v1h-1z M8,7h1v1h-1z M10,7h1v1h-1z M12,7h1v1h-1z M13,7h1v1h-1z M15,7h1v1h-1z M18,7h1v1h-1z M19,7h1v1h-1z M22,7h1v1h-1z M26,7h1v1h-1z M29,7h1v1h-1z M31,7h1v1h-1z M33,7h1v1h-1z M34,7h1v1h-1z M36,7h1v1h-1z M37,7h1v1h-1z M38,7h1v1h-1z M39,7h1v1h-1z M42,7h1v1h-1z M46,7h1v1h-1z M47,7h1v1h-1z M49,7h1v1h-1z M50,7h1v1h-1z M52,7h1v1h-1z M53,7h1v1h-1z M57,7h1v1h-1z M58,7h1v1h-1z M59,7h1v1h-1z M62,7h1v1h-1z M63,7h1v1h-1z M66,7h1v1h-1z M67,7h1v1h-1z M68,7h1v1h-1z M69,7h1v1h-1z M71,7h1v1h-1z M74,7h1v1h-1z M75,7h1v1h-1z M77,7h1v1h-1z M79,7h1v1h-1z M82,7h1v1h-1z M83,7h1v1h-1z M85,7h1v1h-1z M86,7h1v1h-1z M90,7h1v1h-1z M91,7h1v1h-1z M94,7h1v1h-1z M96,7h1v1h-1z M97,7h1v1h-1z M100,7h1v1h-1z M102,7h1v1h-1z M104,7h1v1h-1z M105,7h1v1h-1z M106,7h1v1h-1z M108,7h1v1h-1z M4,8h1v1h-1z M6,8h1v1h-1z M7,8h1v1h-1z M8,8h1v1h-1z M10,8h1v1h-1z M13,8h1v1h-1z M14,8h1v1h-1z M15,8h1v1h-1z M17,8h1v1h-1z M22,8h1v1h-1z M25,8h1v1h-1z M27,8h1v1h-1z M28,8h1v1h-1z M29,8h1v1h-1z M30,8h1v1h-1z M31,8h1v1h-1z M32,8h1v1h-1z M34,8h1v1h-1z M35,8h1v1h-1z M37,8h1v1h-1z M42,8h1v1h-1z M45,8h1v1h-1z M46,8h1v1h-1z M47,8h1v1h-1z M48,8h1v1h-1z M49,8h1v1h-1z M50,8h1v1h-1z M52,8h1v1h-1z M53,8h1v1h-1z M54,8h1v1h-1z M55,8h1v1h-1z M56,8h1v1h-1z M58,8h1v1h-1z M59,8h1v1h-1z M60,8h1v1h-1z M61,8h1v1h-1z M64,8h1v1h-1z M65,8h1v1h-1z M66,8h1v1h-1z M68,8h1v1h-1z M70,8h1v1h-1z M71,8h1v1h-1z M74,8h1v1h-1z M76,8h1v1h-1z M77,8h1v1h-1z M78,8h1v1h-1z M79,8h1v1h-1z M80,8h1v1h-1z M82,8h1v1h-1z M86,8h1v1h-1z M88,8h1v1h-1z M90,8h1v1h-1z M91,8h1v1h-1z M94,8h1v1h-1z M95,8h1v1h-1z M96,8h1v1h-1z M99,8h1v1h-1z M100,8h1v1h-1z M102,8h1v1h-1z M104,8h1v1h-1z M105,8h1v1h-1z M106,8h1v1h-1z M108,8h1v1h-1z M4,9h1v1h-1z M10,9h1v1h-1z M12,9h1v1h-1z M13,9h1v1h-1z M14,9h1v1h-1z M16,9h1v1h-1z M17,9h1v1h-1z M20,9h1v1h-1z M21,9h1v1h-1z M23,9h1v1h-1z M25,9h1v1h-1z M28,9h1v1h-1z M32,9h1v1h-1z M34,9h1v1h-1z M37,9h1v1h-1z M41,9h1v1h-1z M42,9h1v1h-1z M46,9h1v1h-1z M48,9h1v1h-1z M49,9h1v1h-1z M52,9h1v1h-1z M56,9h1v1h-1z M57,9h1v1h-1z M58,9h1v1h-1z M60,9h1v1h-1z M61,9h1v1h-1z M63,9h1v1h-1z M66,9h1v1h-1z M67,9h1v1h-1z M69,9h1v1h-1z M70,9h1v1h-1z M71,9h1v1h-1z M72,9h1v1h-1z M73,9h1v1h-1z M76,9h1v1h-1z M80,9h1v1h-1z M81,9h1v1h-1z M82,9h1v1h-1z M83,9h1v1h-1z M85,9h1v1h-1z M90,9h1v1h-1z M91,9h1v1h-1z M93,9h1v1h-1z M94,9h1v1h-1z M97,9h1v1h-1z M99,9h1v1h-1z M102,9h1v1h-1z M108,9h1v1h-1z M4,10h1v1h-1z M5,10h1v1h-1z M6,10h1v1h-1z M7,10h1v1h-1z M8,10h1v1h-1z M9,10h1v1h-1z M10,10h1v1h-1z M12,10h1v1h-1z M14,10h1v1h-1z M16,10h1v1h-1z M18,10h1v1h-1z M20,10h1v1h-1z M22,10h1v1h-1z M24,10h1v1h-1z M26,10h1v1h-1z M28,10h1v1h-1z M30,10h1v1h-1z M32,10h1v1h-1z M34,10h1v1h-1z M36,10h1v1h-1z M38,10h1v1h-1z M40,10h1v1h-1z M42,10h1v1h-1z M44,10h1v1h-1z M46,10h1v1h-1z M48,10h1v1h-1z M50,10h1v1h-1z M52,10h1v1h-1z M54,10h1v1h-1z M56,10h1v1h-1z M58,10h1v1h-1z M60,10h1v1h-1z M62,10h1v1h-1z M64,10h1v1h-1z M66,10h1v1h-1z M68,10h1v1h-1z M70,10h1v1h-1z M72,10h1v1h-1z M74,10h1v1h-1z M76,10h1v1h-1z M78,10h1v1h-1z M80,10h1v1h-1z M82,10h1v1h-1z M84,10h1v1h-1z M86,10h1v1h-1z M88,10h1v1h-1z M90,10h1v1h-1z M92,10h1v1h-1z M94,10h1v1h-1z M96,10h1v1h-1z M98,10h1v1h-1z M100,10h1v1h-1z M102,10h1v1h-1z M103,10h1v1h-1z M104,10h1v1h-1z M105,10h1v1h-1z M106,10h1v1h-1z M107,10h1v1h-1z M108,10h1v1h-1z M17,11h1v1h-1z M18,11h1v1h-1z M19,11h1v1h-1z M20,11h1v1h-1z M23,11h1v1h-1z M24,11h1v1h-1z M26,11h1v1h-1z M28,11h1v1h-1z M32,11h1v1h-1z M34,11h1v1h-1z M35,11h1v1h-1z M38,11h1v1h-1z M41,11h1v1h-1z M42,11h1v1h-1z M44,11h1v1h-1z M46,11h1v1h-1z M47,11h1v1h-1z M50,11h1v1h-1z M51,11h1v1h-1z M52,11h1v1h-1z M56,11h1v1h-1z M57,11h1v1h-1z M59,11h1v1h-1z M61,11h1v1h-1z M62,11h1v1h-1z M68,11h1v1h-1z M69,11h1v1h-1z M71,11h1v1h-1z M73,11h1v1h-1z M76,11h1v1h-1z M80,11h1v1h-1z M83,11h1v1h-1z M86,11h1v1h-1z M89,11h1v1h-1z M90,11h1v1h-1z M92,11h1v1h-1z M93,11h1v1h-1z M94,11h1v1h-1z M95,11h1v1h-1z M97,11h1v1h-1z M99,11h1v1h-1z M4,12h1v1h-1z M5,12h1v1h-1z M8,12h1v1h-1z M9,12h1v1h-1z M10,12h1v1h-1z M13,12h1v1h-1z M14,12h1v1h-1z M15,12h1v1h-1z M19,12h1v1h-1z M23,12h1v1h-1z M24,12h1v1h-1z M26,12h1v1h-1z M27,12h1v1h-1z M28,12h1v1h-1z M29,12h1v1h-1z M30,12h1v1h-1z M31,12h1v1h-1z M32,12h1v1h-1z M33,12h1v1h-1z M34,12h1v1h-1z M35,12h1v1h-1z M37,12h1v1h-1z M38,12h1v1h-1z M40,12h1v1h-1z M42,12h1v1h-1z M43,12h1v1h-1z M44,12h1v1h-1z M45,12h1v1h-1z M46,12h1v1h-1z M49,12h1v1h-1z M51,12h1v1h-1z M52,12h1v1h-1z M53,12h1v1h-1z M54,12h1v1h-1z M55,12h1v1h-1z M56,12h1v1h-1z M58,12h1v1h-1z M61,12h1v1h-1z M64,12h1v1h-1z M65,12h1v1h-1z M66,12h1v1h-1z M68,12h1v1h-1z M69,12h1v1h-1z M70,12h1v1h-1z M72,12h1v1h-1z M74,12h1v1h-1z M76,12h1v1h-1z M77,12h1v1h-1z M78,12h1v1h-1z M79,12h1v1h-1z M80,12h1v1h-1z M81,12h1v1h-1z M82,12h1v1h-1z M84,12h1v1h-1z M85,12h1v1h-1z M90,12h1v1h-1z M92,12h1v1h-1z M94,12h1v1h-1z M98,12h1v1h-1z M99,12h1v1h-1z M100,12h1v1h-1z M103,12h1v1h-1z M105,12h1v1h-1z M106,12h1v1h-1z M107,12h1v1h-1z M108,12h1v1h-1z M5,13h1v1h-1z M7,13h1v1h-1z M8,13h1v1h-1z M14,13h1v1h-1z M18,13h1v1h-1z M20,13h1v1h-1z M21,13h1v1h-1z M26,13h1v1h-1z M27,13h1v1h-1z M28,13h1v1h-1z M29,13h1v1h-1z M31,13h1v1h-1z M33,13h1v1h-1z M35,13h1v1h-1z M36,13h1v1h-1z M38,13h1v1h-1z M40,13h1v1h-1z M41,13h1v1h-1z M43,13h1v1h-1z M44,13h1v1h-1z M45,13h1v1h-1z M46,13h1v1h-1z M47,13h1v1h-1z M48,13h1v1h-1z M50,13h1v1h-1z M51,13h1v1h-1z M52,13h1v1h-1z M53,13h1v1h-1z M59,13h1v1h-1z M60,13h1v1h-1z M62,13h1v1h-1z M65,13h1v1h-1z M68,13h1v1h-1z M69,13h1v1h-1z M70,13h1v1h-1z M71,13h1v1h-1z M72,13h1v1h-1z M75,13h1v1h-1z M76,13h1v1h-1z M78,13h1v1h-1z M83,13h1v1h-1z M86,13h1v1h-1z M88,13h1v1h-1z M89,13h1v1h-1z M91,13h1v1h-1z M94,13h1v1h-1z M96,13h1v1h-1z M97,13h1v1h-1z M102,13h1v1h-1z M103,13h1v1h-1z M104,13h1v1h-1z M4,14h1v1h-1z M8,14h1v1h-1z M10,14h1v1h-1z M11,14h1v1h-1z M12,14h1v1h-1z M14,14h1v1h-1z M16,14h1v1h-1z M18,14h1v1h-1z M21,14h1v1h-1z M22,14h1v1h-1z M23,14h1v1h-1z M24,14h1v1h-1z M26,14h1v1h-1z M27,14h1v1h-1z M29,14h1v1h-1z M38,14h1v1h-1z M41,14h1v1h-1z M43,14h1v1h-1z M44,14h1v1h-1z M48,14h1v1h-1z M50,14h1v1h-1z M51,14h1v1h-1z M53,14h1v1h-1z M56,14h1v1h-1z M57,14h1v1h-1z M59,14h1v1h-1z M60,14h1v1h-1z M61,14h1v1h-1z M62,14h1v1h-1z M63,14h1v1h-1z M64,14h1v1h-1z M65,14h1v1h-1z M67,14h1v1h-1z M68,14h1v1h-1z M69,14h1v1h-1z M71,14h1v1h-1z M74,14h1v1h-1z M76,14h1v1h-1z M77,14h1v1h-1z M79,14h1v1h-1z M80,14h1v1h-1z M83,14h1v1h-1z M86,14h1v1h-1z M88,14h1v1h-1z M89,14h1v1h-1z M91,14h1v1h-1z M92,14h1v1h-1z M98,14h1v1h-1z M99,14h1v1h-1z M103,14h1v1h-1z M104,14h1v1h-1z M105,14h1v1h-1z M106,14h1v1h-1z M5,15h1v1h-1z M7,15h1v1h-1z M8,15h1v1h-1z M9,15h1v1h-1z M12,15h1v1h-1z M16,15h1v1h-1z M17,15h1v1h-1z M20,15h1v1h-1z M22,15h1v1h-1z M23,15h1v1h-1z M29,15h1v1h-1z M30,15h1v1h-1z M32,15h1v1h-1z M34,15h1v1h-1z M35,15h1v1h-1z M37,15h1v1h-1z M38,15h1v1h-1z M41,15h1v1h-1z M42,15h1v1h-1z M44,15h1v1h-1z M46,15h1v1h-1z M47,15h1v1h-1z M50,15h1v1h-1z M51,15h1v1h-1z M53,15h1v1h-1z M54,15h1v1h-1z M56,15h1v1h-1z M58,15h1v1h-1z M68,15h1v1h-1z M70,15h1v1h-1z M71,15h1v1h-1z M73,15h1v1h-1z M74,15h1v1h-1z M75,15h1v1h-1z M77,15h1v1h-1z M80,15h1v1h-1z M82,15h1v1h-1z M83,15h1v1h-1z M87,15h1v1h-1z M92,15h1v1h-1z M95,15h1v1h-1z M97,15h1v1h-1z M99,15h1v1h-1z M100,15h1v1h-1z M101,15h1v1h-1z M104,15h1v1h-1z M105,15h1v1h-1z M107,15h1v1h-1z M108,15h1v1h-1z M4,16h1v1h-1z M7,16h1v1h-1z M9,16h1v1h-1z M10,16h1v1h-1z M11,16h1v1h-1z M13,16h1v1h-1z M15,16h1v1h-1z M17,16h1v1h-1z M18,16h1v1h-1z M20,16h1v1h-1z M27,16h1v1h-1z M29,16h1v1h-1z M30,16h1v1h-1z M31,16h1v1h-1z M32,16h1v1h-1z M35,16h1v1h-1z M37,16h1v1h-1z M43,16h1v1h-1z M45,16h1v1h-1z M46,16h1v1h-1z M47,16h1v1h-1z M48,16h1v1h-1z M51,16h1v1h-1z M52,16h1v1h-1z M53,16h1v1h-1z M54,16h1v1h-1z M61,16h1v1h-1z M63,16h1v1h-1z M64,16h1v1h-1z M66,16h1v1h-1z M67,16h1v1h-1z M68,16h1v1h-1z M75,16h1v1h-1z M78,16h1v1h-1z M81,16h1v1h-1z M83,16h1v1h-1z M90,16h1v1h-1z M91,16h1v1h-1z M92,16h1v1h-1z M94,16h1v1h-1z M96,16h1v1h-1z M97,16h1v1h-1z M99,16h1v1h-1z M100,16h1v1h-1z M102,16h1v1h-1z M105,16h1v1h-1z M107,16h1v1h-1z M5,17h1v1h-1z M6,17h1v1h-1z M7,17h1v1h-1z M8,17h1v1h-1z M9,17h1v1h-1z M15,17h1v1h-1z M16,17h1v1h-1z M17,17h1v1h-1z M18,17h1v1h-1z M19,17h1v1h-1z M21,17h1v1h-1z M25,17h1v1h-1z M26,17h1v1h-1z M28,17h1v1h-1z M29,17h1v1h-1z M33,17h1v1h-1z M36,17h1v1h-1z M37,17h1v1h-1z M40,17h1v1h-1z M46,17h1v1h-1z M48,17h1v1h-1z M49,17h1v1h-1z M51,17h1v1h-1z M52,17h1v1h-1z M54,17h1v1h-1z M56,17h1v1h-1z M57,17h1v1h-1z M59,17h1v1h-1z M60,17h1v1h-1z M64,17h1v1h-1z M65,17h1v1h-1z M66,17h1v1h-1z M68,17h1v1h-1z M71,17h1v1h-1z M72,17h1v1h-1z M73,17h1v1h-1z M76,17h1v1h-1z M80,17h1v1h-1z M84,17h1v1h-1z M85,17h1v1h-1z M88,17h1v1h-1z M89,17h1v1h-1z M90,17h1v1h-1z M92,17h1v1h-1z M93,17h1v1h-1z M95,17h1v1h-1z M97,17h1v1h-1z M98,17h1v1h-1z M99,17h1v1h-1z M101,17h1v1h-1z M104,17h1v1h-1z M105,17h1v1h-1z M10,18h1v1h-1z M12,18h1v1h-1z M13,18h1v1h-1z M18,18h1v1h-1z M21,18h1v1h-1z M26,18h1v1h-1z M27,18h1v1h-1z M31,18h1v1h-1z M32,18h1v1h-1z M36,18h1v1h-1z M37,18h1v1h-1z M38,18h1v1h-1z M41,18h1v1h-1z M50,18h1v1h-1z M51,18h1v1h-1z M52,18h1v1h-1z M53,18h1v1h-1z M62,18h1v1h-1z M64,18h1v1h-1z M65,18h1v1h-1z M67,18h1v1h-1z M73,18h1v1h-1z M74,18h1v1h-1z M75,18h1v1h-1z M76,18h1v1h-1z M77,18h1v1h-1z M79,18h1v1h-1z M80,18h1v1h-1z M83,18h1v1h-1z M86,18h1v1h-1z M91,18h1v1h-1z M95,18h1v1h-1z M96,18h1v1h-1z M98,18h1v1h-1z M99,18h1v1h-1z M101,18h1v1h-1z M103,18h1v1h-1z M104,18h1v1h-1z M105,18h1v1h-1z M106,18h1v1h-1z M107,18h1v1h-1z M4,19h1v1h-1z M5,19h1v1h-1z M13,19h1v1h-1z M17,19h1v1h-1z M21,19h1v1h-1z M22,19h1v1h-1z M23,19h1v1h-1z M27,19h1v1h-1z M30,19h1v1h-1z M32,19h1v1h-1z M35,19h1v1h-1z M41,19h1v1h-1z M42,19h1v1h-1z M44,19h1v1h-1z M47,19h1v1h-1z M49,19h1v1h-1z M50,19h1v1h-1z M51,19h1v1h-1z M56,19h1v1h-1z M59,19h1v1h-1z M66,19h1v1h-1z M68,19h1v1h-1z M71,19h1v1h-1z M75,19h1v1h-1z M78,19h1v1h-1z M80,19h1v1h-1z M81,19h1v1h-1z M82,19h1v1h-1z M83,19h1v1h-1z M85,19h1v1h-1z M89,19h1v1h-1z M90,19h1v1h-1z M92,19h1v1h-1z M95,19h1v1h-1z M98,19h1v1h-1z M99,19h1v1h-1z M101,19h1v1h-1z M105,19h1v1h-1z M107,19h1v1h-1z M108,19h1v1h-1z M5,20h1v1h-1z M6,20h1v1h-1z M8,20h1v1h-1z M10,20h1v1h-1z M12,20h1v1h-1z M17,20h1v1h-1z M21,20h1v1h-1z M22,20h1v1h-1z M23,20h1v1h-1z M24,20h1v1h-1z M26,20h1v1h-1z M27,20h1v1h-1z M30,20h1v1h-1z M32,20h1v1h-1z M35,20h1v1h-1z M36,20h1v1h-1z M37,20h1v1h-1z M38,20h1v1h-1z M39,20h1v1h-1z M40,20h1v1h-1z M41,20h1v1h-1z M43,20h1v1h-1z M45,20h1v1h-1z M50,20h1v1h-1z M51,20h1v1h-1z M52,20h1v1h-1z M55,20h1v1h-1z M56,20h1v1h-1z M60,20h1v1h-1z M61,20h1v1h-1z M63,20h1v1h-1z M64,20h1v1h-1z M66,20h1v1h-1z M67,20h1v1h-1z M68,20h1v1h-1z M70,20h1v1h-1z M72,20h1v1h-1z M74,20h1v1h-1z M75,20h1v1h-1z M78,20h1v1h-1z M81,20h1v1h-1z M82,20h1v1h-1z M84,20h1v1h-1z M85,20h1v1h-1z M87,20h1v1h-1z M89,20h1v1h-1z M91,20h1v1h-1z M92,20h1v1h-1z M99,20h1v1h-1z M100,20h1v1h-1z M101,20h1v1h-1z M103,20h1v1h-1z M105,20h1v1h-1z M108,20h1v1h-1z M4,21h1v1h-1z M11,21h1v1h-1z M13,21h1v1h-1z M16,21h1v1h-1z M17,21h1v1h-1z M19,21h1v1h-1z M21,21h1v1h-1z M22,21h1v1h-1z M23,21h1v1h-1z M25,21h1v1h-1z M28,21h1v1h-1z M30,21h1v1h-1z M33,21h1v1h-1z M34,21h1v1h-1z M36,21h1v1h-1z M39,21h1v1h-1z M40,21h1v1h-1z M44,21h1v1h-1z M48,21h1v1h-1z M49,21h1v1h-1z M51,21h1v1h-1z M52,21h1v1h-1z M54,21h1v1h-1z M57,21h1v1h-1z M59,21h1v1h-1z M61,21h1v1h-1z M62,21h1v1h-1z M63,21h1v1h-1z M64,21h1v1h-1z M65,21h1v1h-1z M66,21h1v1h-1z M67,21h1v1h-1z M71,21h1v1h-1z M73,21h1v1h-1z M75,21h1v1h-1z M76,21h1v1h-1z M80,21h1v1h-1z M82,21h1v1h-1z M84,21h1v1h-1z M85,21h1v1h-1z M86,21h1v1h-1z M87,21h1v1h-1z M89,21h1v1h-1z M90,21h1v1h-1z M96,21h1v1h-1z M97,21h1v1h-1z M100,21h1v1h-1z M102,21h1v1h-1z M103,21h1v1h-1z M104,21h1v1h-1z M105,21h1v1h-1z M107,21h1v1h-1z M108,21h1v1h-1z M4,22h1v1h-1z M5,22h1v1h-1z M7,22h1v1h-1z M10,22h1v1h-1z M11,22h1v1h-1z M12,22h1v1h-1z M13,22h1v1h-1z M15,22h1v1h-1z M16,22h1v1h-1z M20,22h1v1h-1z M24,22h1v1h-1z M26,22h1v1h-1z M29,22h1v1h-1z M31,22h1v1h-1z M32,22h1v1h-1z M38,22h1v1h-1z M39,22h1v1h-1z M40,22h1v1h-1z M43,22h1v1h-1z M44,22h1v1h-1z M45,22h1v1h-1z M49,22h1v1h-1z M50,22h1v1h-1z M53,22h1v1h-1z M55,22h1v1h-1z M56,22h1v1h-1z M60,22h1v1h-1z M62,22h1v1h-1z M64,22h1v1h-1z M65,22h1v1h-1z M68,22h1v1h-1z M71,22h1v1h-1z M72,22h1v1h-1z M74,22h1v1h-1z M77,22h1v1h-1z M79,22h1v1h-1z M85,22h1v1h-1z M86,22h1v1h-1z M87,22h1v1h-1z M88,22h1v1h-1z M89,22h1v1h-1z M91,22h1v1h-1z M93,22h1v1h-1z M96,22h1v1h-1z M98,22h1v1h-1z M100,22h1v1h-1z M104,22h1v1h-1z M105,22h1v1h-1z M106,22h1v1h-1z M107,22h1v1h-1z M6,23h1v1h-1z M11,23h1v1h-1z M12,23h1v1h-1z M15,23h1v1h-1z M19,23h1v1h-1z M20,23h1v1h-1z M21,23h1v1h-1z M22,23h1v1h-1z M25,23h1v1h-1z M26,23h1v1h-1z M27,23h1v1h-1z M29,23h1v1h-1z M30,23h1v1h-1z M32,23h1v1h-1z M33,23h1v1h-1z M34,23h1v1h-1z M35,23h1v1h-1z M38,23h1v1h-1z M41,23h1v1h-1z M42,23h1v1h-1z M44,23h1v1h-1z M46,23h1v1h-1z M47,23h1v1h-1z M51,23h1v1h-1z M52,23h1v1h-1z M54,23h1v1h-1z M56,23h1v1h-1z M57,23h1v1h-1z M59,23h1v1h-1z M61,23h1v1h-1z M62,23h1v1h-1z M63,23h1v1h-1z M66,23h1v1h-1z M68,23h1v1h-1z M71,23h1v1h-1z M75,23h1v1h-1z M76,23h1v1h-1z M77,23h1v1h-1z M80,23h1v1h-1z M82,23h1v1h-1z M83,23h1v1h-1z M90,23h1v1h-1z M92,23h1v1h-1z M94,23h1v1h-1z M95,23h1v1h-1z M100,23h1v1h-1z M101,23h1v1h-1z M107,23h1v1h-1z M4,24h1v1h-1z M5,24h1v1h-1z M8,24h1v1h-1z M10,24h1v1h-1z M12,24h1v1h-1z M13,24h1v1h-1z M14,24h1v1h-1z M15,24h1v1h-1z M19,24h1v1h-1z M20,24h1v1h-1z M21,24h1v1h-1z M28,24h1v1h-1z M29,24h1v1h-1z M32,24h1v1h-1z M34,24h1v1h-1z M35,24h1v1h-1z M37,24h1v1h-1z M40,24h1v1h-1z M42,24h1v1h-1z M46,24h1v1h-1z M47,24h1v1h-1z M49,24h1v1h-1z M51,24h1v1h-1z M58,24h1v1h-1z M59,24h1v1h-1z M60,24h1v1h-1z M61,24h1v1h-1z M63,24h1v1h-1z M64,24h1v1h-1z M67,24h1v1h-1z M69,24h1v1h-1z M75,24h1v1h-1z M77,24h1v1h-1z M78,24h1v1h-1z M79,24h1v1h-1z M81,24h1v1h-1z M82,24h1v1h-1z M87,24h1v1h-1z M89,24h1v1h-1z M91,24h1v1h-1z M93,24h1v1h-1z M94,24h1v1h-1z M97,24h1v1h-1z M98,24h1v1h-1z M100,24h1v1h-1z M101,24h1v1h-1z M104,24h1v1h-1z M105,24h1v1h-1z M107,24h1v1h-1z M108,24h1v1h-1z M7,25h1v1h-1z M8,25h1v1h-1z M13,25h1v1h-1z M14,25h1v1h-1z M17,25h1v1h-1z M18,25h1v1h-1z M21,25h1v1h-1z M23,25h1v1h-1z M25,25h1v1h-1z M27,25h1v1h-1z M28,25h1v1h-1z M29,25h1v1h-1z M30,25h1v1h-1z M31,25h1v1h-1z M33,25h1v1h-1z M34,25h1v1h-1z M36,25h1v1h-1z M37,25h1v1h-1z M42,25h1v1h-1z M43,25h1v1h-1z M49,25h1v1h-1z M51,25h1v1h-1z M52,25h1v1h-1z M53,25h1v1h-1z M54,25h1v1h-1z M57,25h1v1h-1z M58,25h1v1h-1z M60,25h1v1h-1z M62,25h1v1h-1z M66,25h1v1h-1z M67,25h1v1h-1z M69,25h1v1h-1z M72,25h1v1h-1z M73,25h1v1h-1z M76,25h1v1h-1z M79,25h1v1h-1z M81,25h1v1h-1z M82,25h1v1h-1z M84,25h1v1h-1z M86,25h1v1h-1z M88,25h1v1h-1z M89,25h1v1h-1z M90,25h1v1h-1z M92,25h1v1h-1z M94,25h1v1h-1z M95,25h1v1h-1z M98,25h1v1h-1z M99,25h1v1h-1z M101,25h1v1h-1z M102,25h1v1h-1z M106,25h1v1h-1z M107,25h1v1h-1z M108,25h1v1h-1z M4,26h1v1h-1z M5,26h1v1h-1z M7,26h1v1h-1z M10,26h1v1h-1z M11,26h1v1h-1z M13,26h1v1h-1z M15,26h1v1h-1z M17,26h1v1h-1z M19,26h1v1h-1z M20,26h1v1h-1z M23,26h1v1h-1z M26,26h1v1h-1z M27,26h1v1h-1z M28,26h1v1h-1z M29,26h1v1h-1z M31,26h1v1h-1z M32,26h1v1h-1z M36,26h1v1h-1z M38,26h1v1h-1z M39,26h1v1h-1z M40,26h1v1h-1z M41,26h1v1h-1z M43,26h1v1h-1z M44,26h1v1h-1z M47,26h1v1h-1z M48,26h1v1h-1z M50,26h1v1h-1z M53,26h1v1h-1z M55,26h1v1h-1z M60,26h1v1h-1z M61,26h1v1h-1z M62,26h1v1h-1z M63,26h1v1h-1z M65,26h1v1h-1z M69,26h1v1h-1z M71,26h1v1h-1z M74,26h1v1h-1z M77,26h1v1h-1z M79,26h1v1h-1z M80,26h1v1h-1z M81,26h1v1h-1z M86,26h1v1h-1z M92,26h1v1h-1z M95,26h1v1h-1z M96,26h1v1h-1z M98,26h1v1h-1z M100,26h1v1h-1z M101,26h1v1h-1z M102,26h1v1h-1z M104,26h1v1h-1z M107,26h1v1h-1z M4,27h1v1h-1z M8,27h1v1h-1z M11,27h1v1h-1z M12,27h1v1h-1z M14,27h1v1h-1z M15,27h1v1h-1z M17,27h1v1h-1z M19,27h1v1h-1z M20,27h1v1h-1z M23,27h1v1h-1z M26,27h1v1h-1z M28,27h1v1h-1z M32,27h1v1h-1z M33,27h1v1h-1z M34,27h1v1h-1z M35,27h1v1h-1z M41,27h1v1h-1z M42,27h1v1h-1z M44,27h1v1h-1z M45,27h1v1h-1z M49,27h1v1h-1z M52,27h1v1h-1z M54,27h1v1h-1z M56,27h1v1h-1z M57,27h1v1h-1z M58,27h1v1h-1z M66,27h1v1h-1z M67,27h1v1h-1z M68,27h1v1h-1z M70,27h1v1h-1z M71,27h1v1h-1z M73,27h1v1h-1z M77,27h1v1h-1z M80,27h1v1h-1z M82,27h1v1h-1z M83,27h1v1h-1z M85,27h1v1h-1z M89,27h1v1h-1z M90,27h1v1h-1z M92,27h1v1h-1z M93,27h1v1h-1z M97,27h1v1h-1z M99,27h1v1h-1z M101,27h1v1h-1z M104,27h1v1h-1z M105,27h1v1h-1z M107,27h1v1h-1z M108,27h1v1h-1z M5,28h1v1h-1z M6,28h1v1h-1z M7,28h1v1h-1z M8,28h1v1h-1z M9,28h1v1h-1z M10,28h1v1h-1z M11,28h1v1h-1z M12,28h1v1h-1z M13,28h1v1h-1z M14,28h1v1h-1z M15,28h1v1h-1z M16,28h1v1h-1z M20,28h1v1h-1z M23,28h1v1h-1z M24,28h1v1h-1z M28,28h1v1h-1z M29,28h1v1h-1z M30,28h1v1h-1z M31,28h1v1h-1z M32,28h1v1h-1z M33,28h1v1h-1z M34,28h1v1h-1z M35,28h1v1h-1z M38,28h1v1h-1z M39,28h1v1h-1z M40,28h1v1h-1z M42,28h1v1h-1z M43,28h1v1h-1z M46,28h1v1h-1z M48,28h1v1h-1z M51,28h1v1h-1z M52,28h1v1h-1z M53,28h1v1h-1z M54,28h1v1h-1z M55,28h1v1h-1z M56,28h1v1h-1z M57,28h1v1h-1z M58,28h1v1h-1z M61,28h1v1h-1z M62,28h1v1h-1z M64,28h1v1h-1z M66,28h1v1h-1z M68,28h1v1h-1z M69,28h1v1h-1z M70,28h1v1h-1z M73,28h1v1h-1z M75,28h1v1h-1z M76,28h1v1h-1z M77,28h1v1h-1z M78,28h1v1h-1z M79,28h1v1h-1z M80,28h1v1h-1z M87,28h1v1h-1z M90,28h1v1h-1z M92,28h1v1h-1z M97,28h1v1h-1z M99,28h1v1h-1z M100,28h1v1h-1z M101,28h1v1h-1z M102,28h1v1h-1z M103,28h1v1h-1z M104,28h1v1h-1z M105,28h1v1h-1z M107,28h1v1h-1z M4,29h1v1h-1z M5,29h1v1h-1z M8,29h1v1h-1z M12,29h1v1h-1z M13,29h1v1h-1z M15,29h1v1h-1z M17,29h1v1h-1z M18,29h1v1h-1z M21,29h1v1h-1z M22,29h1v1h-1z M24,29h1v1h-1z M25,29h1v1h-1z M26,29h1v1h-1z M27,29h1v1h-1z M28,29h1v1h-1z M32,29h1v1h-1z M37,29h1v1h-1z M40,29h1v1h-1z M41,29h1v1h-1z M42,29h1v1h-1z M44,29h1v1h-1z M45,29h1v1h-1z M48,29h1v1h-1z M52,29h1v1h-1z M56,29h1v1h-1z M60,29h1v1h-1z M63,29h1v1h-1z M68,29h1v1h-1z M71,29h1v1h-1z M75,29h1v1h-1z M76,29h1v1h-1z M80,29h1v1h-1z M82,29h1v1h-1z M83,29h1v1h-1z M87,29h1v1h-1z M88,29h1v1h-1z M91,29h1v1h-1z M93,29h1v1h-1z M97,29h1v1h-1z M100,29h1v1h-1z M104,29h1v1h-1z M105,29h1v1h-1z M107,29h1v1h-1z M4,30h1v1h-1z M5,30h1v1h-1z M6,30h1v1h-1z M7,30h1v1h-1z M8,30h1v1h-1z M10,30h1v1h-1z M12,30h1v1h-1z M13,30h1v1h-1z M16,30h1v1h-1z M20,30h1v1h-1z M22,30h1v1h-1z M26,30h1v1h-1z M28,30h1v1h-1z M30,30h1v1h-1z M32,30h1v1h-1z M36,30h1v1h-1z M38,30h1v1h-1z M39,30h1v1h-1z M41,30h1v1h-1z M47,30h1v1h-1z M50,30h1v1h-1z M52,30h1v1h-1z M54,30h1v1h-1z M56,30h1v1h-1z M59,30h1v1h-1z M60,30h1v1h-1z M61,30h1v1h-1z M62,30h1v1h-1z M65,30h1v1h-1z M71,30h1v1h-1z M72,30h1v1h-1z M74,30h1v1h-1z M76,30h1v1h-1z M78,30h1v1h-1z M80,30h1v1h-1z M83,30h1v1h-1z M85,30h1v1h-1z M86,30h1v1h-1z M87,30h1v1h-1z M88,30h1v1h-1z M89,30h1v1h-1z M91,30h1v1h-1z M92,30h1v1h-1z M95,30h1v1h-1z M96,30h1v1h-1z M98,30h1v1h-1z M100,30h1v1h-1z M102,30h1v1h-1z M104,30h1v1h-1z M106,30h1v1h-1z M107,30h1v1h-1z M4,31h1v1h-1z M8,31h1v1h-1z M12,31h1v1h-1z M14,31h1v1h-1z M15,31h1v1h-1z M19,31h1v1h-1z M25,31h1v1h-1z M27,31h1v1h-1z M28,31h1v1h-1z M32,31h1v1h-1z M35,31h1v1h-1z M37,31h1v1h-1z M43,31h1v1h-1z M44,31h1v1h-1z M45,31h1v1h-1z M46,31h1v1h-1z M47,31h1v1h-1z M50,31h1v1h-1z M51,31h1v1h-1z M52,31h1v1h-1z M56,31h1v1h-1z M58,31h1v1h-1z M67,31h1v1h-1z M68,31h1v1h-1z M69,31h1v1h-1z M71,31h1v1h-1z M73,31h1v1h-1z M75,31h1v1h-1z M76,31h1v1h-1z M80,31h1v1h-1z M82,31h1v1h-1z M83,31h1v1h-1z M85,31h1v1h-1z M89,31h1v1h-1z M90,31h1v1h-1z M92,31h1v1h-1z M94,31h1v1h-1z M97,31h1v1h-1z M98,31h1v1h-1z M100,31h1v1h-1z M104,31h1v1h-1z M108,31h1v1h-1z M6,32h1v1h-1z M7,32h1v1h-1z M8,32h1v1h-1z M9,32h1v1h-1z M10,32h1v1h-1z M11,32h1v1h-1z M12,32h1v1h-1z M13,32h1v1h-1z M17,32h1v1h-1z M18,32h1v1h-1z M19,32h1v1h-1z M22,32h1v1h-1z M23,32h1v1h-1z M25,32h1v1h-1z M26,32h1v1h-1z M27,32h1v1h-1z M28,32h1v1h-1z M29,32h1v1h-1z M30,32h1v1h-1z M31,32h1v1h-1z M32,32h1v1h-1z M34,32h1v1h-1z M37,32h1v1h-1z M39,32h1v1h-1z M41,32h1v1h-1z M42,32h1v1h-1z M45,32h1v1h-1z M46,32h1v1h-1z M49,32h1v1h-1z M51,32h1v1h-1z M52,32h1v1h-1z M53,32h1v1h-1z M54,32h1v1h-1z M55,32h1v1h-1z M56,32h1v1h-1z M59,32h1v1h-1z M63,32h1v1h-1z M64,32h1v1h-1z M66,32h1v1h-1z M67,32h1v1h-1z M69,32h1v1h-1z M76,32h1v1h-1z M77,32h1v1h-1z M78,32h1v1h-1z M79,32h1v1h-1z M80,32h1v1h-1z M81,32h1v1h-1z M83,32h1v1h-1z M86,32h1v1h-1z M88,32h1v1h-1z M90,32h1v1h-1z M91,32h1v1h-1z M93,32h1v1h-1z M94,32h1v1h-1z M97,32h1v1h-1z M99,32h1v1h-1z M100,32h1v1h-1z M101,32h1v1h-1z M102,32h1v1h-1z M103,32h1v1h-1z M104,32h1v1h-1z M106,32h1v1h-1z M8,33h1v1h-1z M12,33h1v1h-1z M13,33h1v1h-1z M18,33h1v1h-1z M21,33h1v1h-1z M23,33h1v1h-1z M26,33h1v1h-1z M27,33h1v1h-1z M28,33h1v1h-1z M29,33h1v1h-1z M31,33h1v1h-1z M32,33h1v1h-1z M33,33h1v1h-1z M35,33h1v1h-1z M38,33h1v1h-1z M39,33h1v1h-1z M42,33h1v1h-1z M46,33h1v1h-1z M48,33h1v1h-1z M50,33h1v1h-1z M51,33h1v1h-1z M52,33h1v1h-1z M53,33h1v1h-1z M54,33h1v1h-1z M56,33h1v1h-1z M59,33h1v1h-1z M60,33h1v1h-1z M64,33h1v1h-1z M67,33h1v1h-1z M70,33h1v1h-1z M72,33h1v1h-1z M77,33h1v1h-1z M79,33h1v1h-1z M80,33h1v1h-1z M82,33h1v1h-1z M83,33h1v1h-1z M84,33h1v1h-1z M85,33h1v1h-1z M87,33h1v1h-1z M88,33h1v1h-1z M89,33h1v1h-1z M94,33h1v1h-1z M100,33h1v1h-1z M102,33h1v1h-1z M103,33h1v1h-1z M4,34h1v1h-1z M5,34h1v1h-1z M6,34h1v1h-1z M7,34h1v1h-1z M10,34h1v1h-1z M11,34h1v1h-1z M12,34h1v1h-1z M15,34h1v1h-1z M17,34h1v1h-1z M19,34h1v1h-1z M20,34h1v1h-1z M22,34h1v1h-1z M23,34h1v1h-1z M27,34h1v1h-1z M28,34h1v1h-1z M30,34h1v1h-1z M38,34h1v1h-1z M39,34h1v1h-1z M41,34h1v1h-1z M43,34h1v1h-1z M44,34h1v1h-1z M50,34h1v1h-1z M51,34h1v1h-1z M52,34h1v1h-1z M53,34h1v1h-1z M54,34h1v1h-1z M56,34h1v1h-1z M59,34h1v1h-1z M60,34h1v1h-1z M62,34h1v1h-1z M64,34h1v1h-1z M68,34h1v1h-1z M71,34h1v1h-1z M74,34h1v1h-1z M75,34h1v1h-1z M79,34h1v1h-1z M80,34h1v1h-1z M81,34h1v1h-1z M86,34h1v1h-1z M91,34h1v1h-1z M96,34h1v1h-1z M98,34h1v1h-1z M99,34h1v1h-1z M100,34h1v1h-1z M101,34h1v1h-1z M102,34h1v1h-1z M103,34h1v1h-1z M106,34h1v1h-1z M107,34h1v1h-1z M4,35h1v1h-1z M5,35h1v1h-1z M7,35h1v1h-1z M9,35h1v1h-1z M13,35h1v1h-1z M14,35h1v1h-1z M16,35h1v1h-1z M18,35h1v1h-1z M19,35h1v1h-1z M21,35h1v1h-1z M23,35h1v1h-1z M25,35h1v1h-1z M26,35h1v1h-1z M29,35h1v1h-1z M31,35h1v1h-1z M32,35h1v1h-1z M34,35h1v1h-1z M35,35h1v1h-1z M44,35h1v1h-1z M45,35h1v1h-1z M47,35h1v1h-1z M49,35h1v1h-1z M50,35h1v1h-1z M52,35h1v1h-1z M53,35h1v1h-1z M55,35h1v1h-1z M56,35h1v1h-1z M57,35h1v1h-1z M58,35h1v1h-1z M59,35h1v1h-1z M61,35h1v1h-1z M63,35h1v1h-1z M65,35h1v1h-1z M66,35h1v1h-1z M68,35h1v1h-1z M69,35h1v1h-1z M70,35h1v1h-1z M71,35h1v1h-1z M76,35h1v1h-1z M77,35h1v1h-1z M80,35h1v1h-1z M82,35h1v1h-1z M83,35h1v1h-1z M85,35h1v1h-1z M86,35h1v1h-1z M89,35h1v1h-1z M90,35h1v1h-1z M92,35h1v1h-1z M95,35h1v1h-1z M99,35h1v1h-1z M101,35h1v1h-1z M102,35h1v1h-1z M103,35h1v1h-1z M104,35h1v1h-1z M108,35h1v1h-1z M4,36h1v1h-1z M5,36h1v1h-1z M7,36h1v1h-1z M9,36h1v1h-1z M10,36h1v1h-1z M12,36h1v1h-1z M13,36h1v1h-1z M14,36h1v1h-1z M17,36h1v1h-1z M18,36h1v1h-1z M20,36h1v1h-1z M22,36h1v1h-1z M25,36h1v1h-1z M28,36h1v1h-1z M29,36h1v1h-1z M30,36h1v1h-1z M31,36h1v1h-1z M39,36h1v1h-1z M40,36h1v1h-1z M43,36h1v1h-1z M44,36h1v1h-1z M45,36h1v1h-1z M48,36h1v1h-1z M49,36h1v1h-1z M52,36h1v1h-1z M55,36h1v1h-1z M57,36h1v1h-1z M59,36h1v1h-1z M60,36h1v1h-1z M62,36h1v1h-1z M65,36h1v1h-1z M70,36h1v1h-1z M72,36h1v1h-1z M73,36h1v1h-1z M76,36h1v1h-1z M77,36h1v1h-1z M79,36h1v1h-1z M82,36h1v1h-1z M83,36h1v1h-1z M84,36h1v1h-1z M87,36h1v1h-1z M88,36h1v1h-1z M89,36h1v1h-1z M92,36h1v1h-1z M93,36h1v1h-1z M96,36h1v1h-1z M97,36h1v1h-1z M98,36h1v1h-1z M99,36h1v1h-1z M100,36h1v1h-1z M102,36h1v1h-1z M103,36h1v1h-1z M104,36h1v1h-1z M107,36h1v1h-1z M4,37h1v1h-1z M7,37h1v1h-1z M8,37h1v1h-1z M12,37h1v1h-1z M13,37h1v1h-1z M14,37h1v1h-1z M15,37h1v1h-1z M16,37h1v1h-1z M17,37h1v1h-1z M20,37h1v1h-1z M21,37h1v1h-1z M22,37h1v1h-1z M25,37h1v1h-1z M26,37h1v1h-1z M28,37h1v1h-1z M29,37h1v1h-1z M30,37h1v1h-1z M31,37h1v1h-1z M34,37h1v1h-1z M35,37h1v1h-1z M36,37h1v1h-1z M37,37h1v1h-1z M41,37h1v1h-1z M45,37h1v1h-1z M47,37h1v1h-1z M52,37h1v1h-1z M53,37h1v1h-1z M55,37h1v1h-1z M58,37h1v1h-1z M59,37h1v1h-1z M60,37h1v1h-1z M64,37h1v1h-1z M72,37h1v1h-1z M75,37h1v1h-1z M76,37h1v1h-1z M77,37h1v1h-1z M78,37h1v1h-1z M84,37h1v1h-1z M90,37h1v1h-1z M91,37h1v1h-1z M92,37h1v1h-1z M93,37h1v1h-1z M95,37h1v1h-1z M96,37h1v1h-1z M98,37h1v1h-1z M101,37h1v1h-1z M102,37h1v1h-1z M104,37h1v1h-1z M105,37h1v1h-1z M107,37h1v1h-1z M4,38h1v1h-1z M5,38h1v1h-1z M9,38h1v1h-1z M10,38h1v1h-1z M11,38h1v1h-1z M12,38h1v1h-1z M14,38h1v1h-1z M15,38h1v1h-1z M17,38h1v1h-1z M19,38h1v1h-1z M22,38h1v1h-1z M23,38h1v1h-1z M26,38h1v1h-1z M28,38h1v1h-1z M29,38h1v1h-1z M30,38h1v1h-1z M31,38h1v1h-1z M33,38h1v1h-1z M35,38h1v1h-1z M36,38h1v1h-1z M37,38h1v1h-1z M38,38h1v1h-1z M40,38h1v1h-1z M47,38h1v1h-1z M50,38h1v1h-1z M51,38h1v1h-1z M52,38h1v1h-1z M56,38h1v1h-1z M60,38h1v1h-1z M61,38h1v1h-1z M62,38h1v1h-1z M65,38h1v1h-1z M67,38h1v1h-1z M68,38h1v1h-1z M71,38h1v1h-1z M72,38h1v1h-1z M74,38h1v1h-1z M76,38h1v1h-1z M77,38h1v1h-1z M78,38h1v1h-1z M80,38h1v1h-1z M84,38h1v1h-1z M86,38h1v1h-1z M87,38h1v1h-1z M89,38h1v1h-1z M95,38h1v1h-1z M96,38h1v1h-1z M98,38h1v1h-1z M100,38h1v1h-1z M103,38h1v1h-1z M107,38h1v1h-1z M4,39h1v1h-1z M6,39h1v1h-1z M7,39h1v1h-1z M9,39h1v1h-1z M14,39h1v1h-1z M16,39h1v1h-1z M17,39h1v1h-1z M20,39h1v1h-1z M23,39h1v1h-1z M24,39h1v1h-1z M26,39h1v1h-1z M28,39h1v1h-1z M29,39h1v1h-1z M34,39h1v1h-1z M35,39h1v1h-1z M37,39h1v1h-1z M41,39h1v1h-1z M42,39h1v1h-1z M43,39h1v1h-1z M44,39h1v1h-1z M45,39h1v1h-1z M46,39h1v1h-1z M47,39h1v1h-1z M49,39h1v1h-1z M50,39h1v1h-1z M51,39h1v1h-1z M52,39h1v1h-1z M55,39h1v1h-1z M56,39h1v1h-1z M59,39h1v1h-1z M65,39h1v1h-1z M66,39h1v1h-1z M68,39h1v1h-1z M69,39h1v1h-1z M70,39h1v1h-1z M71,39h1v1h-1z M73,39h1v1h-1z M74,39h1v1h-1z M75,39h1v1h-1z M76,39h1v1h-1z M77,39h1v1h-1z M83,39h1v1h-1z M85,39h1v1h-1z M92,39h1v1h-1z M97,39h1v1h-1z M98,39h1v1h-1z M99,39h1v1h-1z M102,39h1v1h-1z M104,39h1v1h-1z M107,39h1v1h-1z M7,40h1v1h-1z M8,40h1v1h-1z M9,40h1v1h-1z M10,40h1v1h-1z M12,40h1v1h-1z M13,40h1v1h-1z M14,40h1v1h-1z M18,40h1v1h-1z M24,40h1v1h-1z M25,40h1v1h-1z M35,40h1v1h-1z M37,40h1v1h-1z M39,40h1v1h-1z M41,40h1v1h-1z M42,40h1v1h-1z M43,40h1v1h-1z M44,40h1v1h-1z M45,40h1v1h-1z M50,40h1v1h-1z M55,40h1v1h-1z M57,40h1v1h-1z M58,40h1v1h-1z M59,40h1v1h-1z M60,40h1v1h-1z M63,40h1v1h-1z M64,40h1v1h-1z M66,40h1v1h-1z M68,40h1v1h-1z M69,40h1v1h-1z M70,40h1v1h-1z M74,40h1v1h-1z M78,40h1v1h-1z M83,40h1v1h-1z M85,40h1v1h-1z M87,40h1v1h-1z M90,40h1v1h-1z M93,40h1v1h-1z M94,40h1v1h-1z M96,40h1v1h-1z M97,40h1v1h-1z M99,40h1v1h-1z M101,40h1v1h-1z M102,40h1v1h-1z M103,40h1v1h-1z M108,40h1v1h-1z M14,41h1v1h-1z M15,41h1v1h-1z M17,41h1v1h-1z M18,41h1v1h-1z M19,41h1v1h-1z M24,41h1v1h-1z M28,41h1v1h-1z M29,41h1v1h-1z M30,41h1v1h-1z M32,41h1v1h-1z M35,41h1v1h-1z M36,41h1v1h-1z M38,41h1v1h-1z M40,41h1v1h-1z M44,41h1v1h-1z M47,41h1v1h-1z M48,41h1v1h-1z M50,41h1v1h-1z M51,41h1v1h-1z M52,41h1v1h-1z M53,41h1v1h-1z M54,41h1v1h-1z M59,41h1v1h-1z M62,41h1v1h-1z M63,41h1v1h-1z M64,41h1v1h-1z M67,41h1v1h-1z M69,41h1v1h-1z M70,41h1v1h-1z M71,41h1v1h-1z M72,41h1v1h-1z M73,41h1v1h-1z M74,41h1v1h-1z M75,41h1v1h-1z M78,41h1v1h-1z M80,41h1v1h-1z M84,41h1v1h-1z M87,41h1v1h-1z M89,41h1v1h-1z M90,41h1v1h-1z M92,41h1v1h-1z M93,41h1v1h-1z M94,41h1v1h-1z M95,41h1v1h-1z M96,41h1v1h-1z M97,41h1v1h-1z M98,41h1v1h-1z M103,41h1v1h-1z M106,41h1v1h-1z M107,41h1v1h-1z M108,41h1v1h-1z M5,42h1v1h-1z M8,42h1v1h-1z M9,42h1v1h-1z M10,42h1v1h-1z M13,42h1v1h-1z M14,42h1v1h-1z M15,42h1v1h-1z M16,42h1v1h-1z M19,42h1v1h-1z M20,42h1v1h-1z M21,42h1v1h-1z M22,42h1v1h-1z M25,42h1v1h-1z M29,42h1v1h-1z M30,42h1v1h-1z M31,42h1v1h-1z M32,42h1v1h-1z M38,42h1v1h-1z M40,42h1v1h-1z M41,42h1v1h-1z M47,42h1v1h-1z M50,42h1v1h-1z M51,42h1v1h-1z M53,42h1v1h-1z M55,42h1v1h-1z M56,42h1v1h-1z M59,42h1v1h-1z M60,42h1v1h-1z M62,42h1v1h-1z M65,42h1v1h-1z M74,42h1v1h-1z M75,42h1v1h-1z M76,42h1v1h-1z M79,42h1v1h-1z M84,42h1v1h-1z M86,42h1v1h-1z M88,42h1v1h-1z M91,42h1v1h-1z M92,42h1v1h-1z M95,42h1v1h-1z M96,42h1v1h-1z M98,42h1v1h-1z M101,42h1v1h-1z M104,42h1v1h-1z M105,42h1v1h-1z M107,42h1v1h-1z M4,43h1v1h-1z M5,43h1v1h-1z M7,43h1v1h-1z M9,43h1v1h-1z M11,43h1v1h-1z M12,43h1v1h-1z M15,43h1v1h-1z M16,43h1v1h-1z M17,43h1v1h-1z M19,43h1v1h-1z M22,43h1v1h-1z M25,43h1v1h-1z M28,43h1v1h-1z M29,43h1v1h-1z M33,43h1v1h-1z M34,43h1v1h-1z M35,43h1v1h-1z M37,43h1v1h-1z M38,43h1v1h-1z M39,43h1v1h-1z M42,43h1v1h-1z M44,43h1v1h-1z M45,43h1v1h-1z M46,43h1v1h-1z M47,43h1v1h-1z M49,43h1v1h-1z M50,43h1v1h-1z M61,43h1v1h-1z M67,43h1v1h-1z M68,43h1v1h-1z M69,43h1v1h-1z M70,43h1v1h-1z M71,43h1v1h-1z M74,43h1v1h-1z M75,43h1v1h-1z M76,43h1v1h-1z M77,43h1v1h-1z M80,43h1v1h-1z M81,43h1v1h-1z M82,43h1v1h-1z M83,43h1v1h-1z M89,43h1v1h-1z M90,43h1v1h-1z M92,43h1v1h-1z M93,43h1v1h-1z M98,43h1v1h-1z M99,43h1v1h-1z M104,43h1v1h-1z M107,43h1v1h-1z M10,44h1v1h-1z M13,44h1v1h-1z M14,44h1v1h-1z M17,44h1v1h-1z M22,44h1v1h-1z M23,44h1v1h-1z M27,44h1v1h-1z M29,44h1v1h-1z M31,44h1v1h-1z M33,44h1v1h-1z M34,44h1v1h-1z M35,44h1v1h-1z M40,44h1v1h-1z M41,44h1v1h-1z M43,44h1v1h-1z M44,44h1v1h-1z M46,44h1v1h-1z M47,44h1v1h-1z M48,44h1v1h-1z M52,44h1v1h-1z M55,44h1v1h-1z M58,44h1v1h-1z M59,44h1v1h-1z M61,44h1v1h-1z M66,44h1v1h-1z M67,44h1v1h-1z M69,44h1v1h-1z M71,44h1v1h-1z M73,44h1v1h-1z M74,44h1v1h-1z M76,44h1v1h-1z M77,44h1v1h-1z M78,44h1v1h-1z M79,44h1v1h-1z M82,44h1v1h-1z M87,44h1v1h-1z M89,44h1v1h-1z M90,44h1v1h-1z M91,44h1v1h-1z M97,44h1v1h-1z M102,44h1v1h-1z M104,44h1v1h-1z M105,44h1v1h-1z M107,44h1v1h-1z M108,44h1v1h-1z M5,45h1v1h-1z M7,45h1v1h-1z M13,45h1v1h-1z M14,45h1v1h-1z M15,45h1v1h-1z M19,45h1v1h-1z M21,45h1v1h-1z M23,45h1v1h-1z M24,45h1v1h-1z M25,45h1v1h-1z M26,45h1v1h-1z M28,45h1v1h-1z M29,45h1v1h-1z M32,45h1v1h-1z M33,45h1v1h-1z M34,45h1v1h-1z M36,45h1v1h-1z M37,45h1v1h-1z M40,45h1v1h-1z M41,45h1v1h-1z M42,45h1v1h-1z M44,45h1v1h-1z M45,45h1v1h-1z M47,45h1v1h-1z M48,45h1v1h-1z M50,45h1v1h-1z M52,45h1v1h-1z M54,45h1v1h-1z M56,45h1v1h-1z M60,45h1v1h-1z M63,45h1v1h-1z M64,45h1v1h-1z M66,45h1v1h-1z M67,45h1v1h-1z M69,45h1v1h-1z M70,45h1v1h-1z M71,45h1v1h-1z M72,45h1v1h-1z M73,45h1v1h-1z M74,45h1v1h-1z M76,45h1v1h-1z M78,45h1v1h-1z M79,45h1v1h-1z M81,45h1v1h-1z M82,45h1v1h-1z M84,45h1v1h-1z M85,45h1v1h-1z M86,45h1v1h-1z M88,45h1v1h-1z M89,45h1v1h-1z M90,45h1v1h-1z M92,45h1v1h-1z M97,45h1v1h-1z M98,45h1v1h-1z M102,45h1v1h-1z M103,45h1v1h-1z M107,45h1v1h-1z M108,45h1v1h-1z M6,46h1v1h-1z M7,46h1v1h-1z M8,46h1v1h-1z M9,46h1v1h-1z M10,46h1v1h-1z M12,46h1v1h-1z M13,46h1v1h-1z M16,46h1v1h-1z M18,46h1v1h-1z M20,46h1v1h-1z M21,46h1v1h-1z M22,46h1v1h-1z M24,46h1v1h-1z M25,46h1v1h-1z M27,46h1v1h-1z M28,46h1v1h-1z M32,46h1v1h-1z M35,46h1v1h-1z M37,46h1v1h-1z M38,46h1v1h-1z M40,46h1v1h-1z M41,46h1v1h-1z M43,46h1v1h-1z M47,46h1v1h-1z M48,46h1v1h-1z M50,46h1v1h-1z M51,46h1v1h-1z M52,46h1v1h-1z M53,46h1v1h-1z M56,46h1v1h-1z M57,46h1v1h-1z M59,46h1v1h-1z M60,46h1v1h-1z M62,46h1v1h-1z M65,46h1v1h-1z M67,46h1v1h-1z M68,46h1v1h-1z M73,46h1v1h-1z M74,46h1v1h-1z M76,46h1v1h-1z M81,46h1v1h-1z M83,46h1v1h-1z M84,46h1v1h-1z M86,46h1v1h-1z M88,46h1v1h-1z M89,46h1v1h-1z M91,46h1v1h-1z M92,46h1v1h-1z M96,46h1v1h-1z M98,46h1v1h-1z M100,46h1v1h-1z M102,46h1v1h-1z M103,46h1v1h-1z M104,46h1v1h-1z M105,46h1v1h-1z M107,46h1v1h-1z M5,47h1v1h-1z M7,47h1v1h-1z M9,47h1v1h-1z M13,47h1v1h-1z M14,47h1v1h-1z M15,47h1v1h-1z M16,47h1v1h-1z M17,47h1v1h-1z M18,47h1v1h-1z M19,47h1v1h-1z M20,47h1v1h-1z M21,47h1v1h-1z M23,47h1v1h-1z M26,47h1v1h-1z M28,47h1v1h-1z M35,47h1v1h-1z M39,47h1v1h-1z M42,47h1v1h-1z M43,47h1v1h-1z M44,47h1v1h-1z M45,47h1v1h-1z M50,47h1v1h-1z M52,47h1v1h-1z M53,47h1v1h-1z M55,47h1v1h-1z M58,47h1v1h-1z M59,47h1v1h-1z M61,47h1v1h-1z M66,47h1v1h-1z M68,47h1v1h-1z M69,47h1v1h-1z M71,47h1v1h-1z M76,47h1v1h-1z M82,47h1v1h-1z M85,47h1v1h-1z M89,47h1v1h-1z M90,47h1v1h-1z M92,47h1v1h-1z M94,47h1v1h-1z M95,47h1v1h-1z M99,47h1v1h-1z M100,47h1v1h-1z M101,47h1v1h-1z M102,47h1v1h-1z M104,47h1v1h-1z M107,47h1v1h-1z M4,48h1v1h-1z M5,48h1v1h-1z M8,48h1v1h-1z M9,48h1v1h-1z M10,48h1v1h-1z M12,48h1v1h-1z M13,48h1v1h-1z M14,48h1v1h-1z M17,48h1v1h-1z M19,48h1v1h-1z M20,48h1v1h-1z M21,48h1v1h-1z M22,48h1v1h-1z M23,48h1v1h-1z M24,48h1v1h-1z M26,48h1v1h-1z M29,48h1v1h-1z M31,48h1v1h-1z M36,48h1v1h-1z M39,48h1v1h-1z M40,48h1v1h-1z M41,48h1v1h-1z M42,48h1v1h-1z M45,48h1v1h-1z M46,48h1v1h-1z M48,48h1v1h-1z M49,48h1v1h-1z M52,48h1v1h-1z M53,48h1v1h-1z M54,48h1v1h-1z M55,48h1v1h-1z M58,48h1v1h-1z M59,48h1v1h-1z M60,48h1v1h-1z M61,48h1v1h-1z M67,48h1v1h-1z M70,48h1v1h-1z M81,48h1v1h-1z M82,48h1v1h-1z M83,48h1v1h-1z M84,48h1v1h-1z M85,48h1v1h-1z M87,48h1v1h-1z M88,48h1v1h-1z M95,48h1v1h-1z M96,48h1v1h-1z M99,48h1v1h-1z M100,48h1v1h-1z M101,48h1v1h-1z M102,48h1v1h-1z M104,48h1v1h-1z M105,48h1v1h-1z M108,48h1v1h-1z M4,49h1v1h-1z M5,49h1v1h-1z M6,49h1v1h-1z M8,49h1v1h-1z M9,49h1v1h-1z M12,49h1v1h-1z M14,49h1v1h-1z M15,49h1v1h-1z M17,49h1v1h-1z M18,49h1v1h-1z M19,49h1v1h-1z M20,49h1v1h-1z M23,49h1v1h-1z M24,49h1v1h-1z M25,49h1v1h-1z M26,49h1v1h-1z M30,49h1v1h-1z M32,49h1v1h-1z M33,49h1v1h-1z M34,49h1v1h-1z M38,49h1v1h-1z M40,49h1v1h-1z M43,49h1v1h-1z M46,49h1v1h-1z M48,49h1v1h-1z M49,49h1v1h-1z M50,49h1v1h-1z M51,49h1v1h-1z M54,49h1v1h-1z M57,49h1v1h-1z M62,49h1v1h-1z M63,49h1v1h-1z M64,49h1v1h-1z M67,49h1v1h-1z M69,49h1v1h-1z M70,49h1v1h-1z M74,49h1v1h-1z M77,49h1v1h-1z M78,49h1v1h-1z M79,49h1v1h-1z M80,49h1v1h-1z M81,49h1v1h-1z M83,49h1v1h-1z M84,49h1v1h-1z M86,49h1v1h-1z M92,49h1v1h-1z M93,49h1v1h-1z M94,49h1v1h-1z M96,49h1v1h-1z M97,49h1v1h-1z M98,49h1v1h-1z M106,49h1v1h-1z M107,49h1v1h-1z M4,50h1v1h-1z M8,50h1v1h-1z M9,50h1v1h-1z M10,50h1v1h-1z M12,50h1v1h-1z M17,50h1v1h-1z M18,50h1v1h-1z M19,50h1v1h-1z M22,50h1v1h-1z M23,50h1v1h-1z M24,50h1v1h-1z M27,50h1v1h-1z M30,50h1v1h-1z M35,50h1v1h-1z M36,50h1v1h-1z M37,50h1v1h-1z M38,50h1v1h-1z M40,50h1v1h-1z M41,50h1v1h-1z M43,50h1v1h-1z M44,50h1v1h-1z M47,50h1v1h-1z M48,50h1v1h-1z M50,50h1v1h-1z M51,50h1v1h-1z M52,50h1v1h-1z M54,50h1v1h-1z M59,50h1v1h-1z M61,50h1v1h-1z M62,50h1v1h-1z M64,50h1v1h-1z M65,50h1v1h-1z M67,50h1v1h-1z M71,50h1v1h-1z M72,50h1v1h-1z M74,50h1v1h-1z M77,50h1v1h-1z M78,50h1v1h-1z M83,50h1v1h-1z M84,50h1v1h-1z M86,50h1v1h-1z M88,50h1v1h-1z M91,50h1v1h-1z M92,50h1v1h-1z M98,50h1v1h-1z M100,50h1v1h-1z M101,50h1v1h-1z M106,50h1v1h-1z M107,50h1v1h-1z M5,51h1v1h-1z M6,51h1v1h-1z M9,51h1v1h-1z M11,51h1v1h-1z M13,51h1v1h-1z M14,51h1v1h-1z M16,51h1v1h-1z M20,51h1v1h-1z M23,51h1v1h-1z M25,51h1v1h-1z M28,51h1v1h-1z M34,51h1v1h-1z M35,51h1v1h-1z M39,51h1v1h-1z M42,51h1v1h-1z M44,51h1v1h-1z M46,51h1v1h-1z M53,51h1v1h-1z M55,51h1v1h-1z M57,51h1v1h-1z M59,51h1v1h-1z M65,51h1v1h-1z M66,51h1v1h-1z M67,51h1v1h-1z M68,51h1v1h-1z M74,51h1v1h-1z M75,51h1v1h-1z M76,51h1v1h-1z M77,51h1v1h-1z M80,51h1v1h-1z M83,51h1v1h-1z M85,51h1v1h-1z M90,51h1v1h-1z M92,51h1v1h-1z M93,51h1v1h-1z M94,51h1v1h-1z M95,51h1v1h-1z M98,51h1v1h-1z M99,51h1v1h-1z M101,51h1v1h-1z M102,51h1v1h-1z M103,51h1v1h-1z M104,51h1v1h-1z M108,51h1v1h-1z M4,52h1v1h-1z M5,52h1v1h-1z M6,52h1v1h-1z M8,52h1v1h-1z M9,52h1v1h-1z M10,52h1v1h-1z M11,52h1v1h-1z M12,52h1v1h-1z M13,52h1v1h-1z M14,52h1v1h-1z M15,52h1v1h-1z M17,52h1v1h-1z M18,52h1v1h-1z M19,52h1v1h-1z M22,52h1v1h-1z M23,52h1v1h-1z M24,52h1v1h-1z M25,52h1v1h-1z M28,52h1v1h-1z M29,52h1v1h-1z M30,52h1v1h-1z M31,52h1v1h-1z M32,52h1v1h-1z M33,52h1v1h-1z M34,52h1v1h-1z M35,52h1v1h-1z M36,52h1v1h-1z M38,52h1v1h-1z M39,52h1v1h-1z M40,52h1v1h-1z M41,52h1v1h-1z M42,52h1v1h-1z M43,52h1v1h-1z M44,52h1v1h-1z M45,52h1v1h-1z M46,52h1v1h-1z M48,52h1v1h-1z M52,52h1v1h-1z M53,52h1v1h-1z M54,52h1v1h-1z M55,52h1v1h-1z M56,52h1v1h-1z M59,52h1v1h-1z M66,52h1v1h-1z M68,52h1v1h-1z M70,52h1v1h-1z M71,52h1v1h-1z M72,52h1v1h-1z M76,52h1v1h-1z M77,52h1v1h-1z M78,52h1v1h-1z M79,52h1v1h-1z M80,52h1v1h-1z M82,52h1v1h-1z M84,52h1v1h-1z M85,52h1v1h-1z M86,52h1v1h-1z M87,52h1v1h-1z M90,52h1v1h-1z M91,52h1v1h-1z M92,52h1v1h-1z M93,52h1v1h-1z M94,52h1v1h-1z M96,52h1v1h-1z M100,52h1v1h-1z M101,52h1v1h-1z M102,52h1v1h-1z M103,52h1v1h-1z M104,52h1v1h-1z M105,52h1v1h-1z M106,52h1v1h-1z M4,53h1v1h-1z M7,53h1v1h-1z M8,53h1v1h-1z M12,53h1v1h-1z M13,53h1v1h-1z M15,53h1v1h-1z M16,53h1v1h-1z M17,53h1v1h-1z M20,53h1v1h-1z M21,53h1v1h-1z M27,53h1v1h-1z M28,53h1v1h-1z M32,53h1v1h-1z M35,53h1v1h-1z M37,53h1v1h-1z M41,53h1v1h-1z M42,53h1v1h-1z M43,53h1v1h-1z M44,53h1v1h-1z M47,53h1v1h-1z M48,53h1v1h-1z M49,53h1v1h-1z M50,53h1v1h-1z M52,53h1v1h-1z M56,53h1v1h-1z M58,53h1v1h-1z M59,53h1v1h-1z M60,53h1v1h-1z M62,53h1v1h-1z M64,53h1v1h-1z M65,53h1v1h-1z M66,53h1v1h-1z M70,53h1v1h-1z M71,53h1v1h-1z M73,53h1v1h-1z M76,53h1v1h-1z M80,53h1v1h-1z M81,53h1v1h-1z M84,53h1v1h-1z M85,53h1v1h-1z M86,53h1v1h-1z M87,53h1v1h-1z M89,53h1v1h-1z M90,53h1v1h-1z M91,53h1v1h-1z M93,53h1v1h-1z M94,53h1v1h-1z M100,53h1v1h-1z M104,53h1v1h-1z M108,53h1v1h-1z M6,54h1v1h-1z M7,54h1v1h-1z M8,54h1v1h-1z M10,54h1v1h-1z M12,54h1v1h-1z M13,54h1v1h-1z M15,54h1v1h-1z M16,54h1v1h-1z M17,54h1v1h-1z M18,54h1v1h-1z M22,54h1v1h-1z M23,54h1v1h-1z M25,54h1v1h-1z M27,54h1v1h-1z M28,54h1v1h-1z M30,54h1v1h-1z M32,54h1v1h-1z M35,54h1v1h-1z M36,54h1v1h-1z M38,54h1v1h-1z M40,54h1v1h-1z M47,54h1v1h-1z M48,54h1v1h-1z M50,54h1v1h-1z M52,54h1v1h-1z M54,54h1v1h-1z M56,54h1v1h-1z M57,54h1v1h-1z M62,54h1v1h-1z M63,54h1v1h-1z M65,54h1v1h-1z M68,54h1v1h-1z M71,54h1v1h-1z M72,54h1v1h-1z M74,54h1v1h-1z M75,54h1v1h-1z M76,54h1v1h-1z M78,54h1v1h-1z M80,54h1v1h-1z M83,54h1v1h-1z M86,54h1v1h-1z M87,54h1v1h-1z M89,54h1v1h-1z M92,54h1v1h-1z M96,54h1v1h-1z M98,54h1v1h-1z M99,54h1v1h-1z M100,54h1v1h-1z M102,54h1v1h-1z M104,54h1v1h-1z M107,54h1v1h-1z M7,55h1v1h-1z M8,55h1v1h-1z M12,55h1v1h-1z M15,55h1v1h-1z M16,55h1v1h-1z M17,55h1v1h-1z M18,55h1v1h-1z M21,55h1v1h-1z M22,55h1v1h-1z M28,55h1v1h-1z M32,55h1v1h-1z M33,55h1v1h-1z M35,55h1v1h-1z M37,55h1v1h-1z M38,55h1v1h-1z M39,55h1v1h-1z M42,55h1v1h-1z M43,55h1v1h-1z M44,55h1v1h-1z M45,55h1v1h-1z M46,55h1v1h-1z M47,55h1v1h-1z M50,55h1v1h-1z M52,55h1v1h-1z M56,55h1v1h-1z M58,55h1v1h-1z M59,55h1v1h-1z M62,55h1v1h-1z M66,55h1v1h-1z M68,55h1v1h-1z M70,55h1v1h-1z M76,55h1v1h-1z M80,55h1v1h-1z M82,55h1v1h-1z M83,55h1v1h-1z M85,55h1v1h-1z M90,55h1v1h-1z M92,55h1v1h-1z M94,55h1v1h-1z M95,55h1v1h-1z M97,55h1v1h-1z M100,55h1v1h-1z M104,55h1v1h-1z M108,55h1v1h-1z M6,56h1v1h-1z M8,56h1v1h-1z M9,56h1v1h-1z M10,56h1v1h-1z M11,56h1v1h-1z M12,56h1v1h-1z M13,56h1v1h-1z M17,56h1v1h-1z M18,56h1v1h-1z M27,56h1v1h-1z M28,56h1v1h-1z M29,56h1v1h-1z M30,56h1v1h-1z M31,56h1v1h-1z M32,56h1v1h-1z M35,56h1v1h-1z M36,56h1v1h-1z M38,56h1v1h-1z M39,56h1v1h-1z M40,56h1v1h-1z M41,56h1v1h-1z M42,56h1v1h-1z M43,56h1v1h-1z M52,56h1v1h-1z M53,56h1v1h-1z M54,56h1v1h-1z M55,56h1v1h-1z M56,56h1v1h-1z M57,56h1v1h-1z M58,56h1v1h-1z M62,56h1v1h-1z M65,56h1v1h-1z M69,56h1v1h-1z M70,56h1v1h-1z M71,56h1v1h-1z M72,56h1v1h-1z M74,56h1v1h-1z M75,56h1v1h-1z M76,56h1v1h-1z M77,56h1v1h-1z M78,56h1v1h-1z M79,56h1v1h-1z M80,56h1v1h-1z M81,56h1v1h-1z M82,56h1v1h-1z M83,56h1v1h-1z M84,56h1v1h-1z M87,56h1v1h-1z M88,56h1v1h-1z M90,56h1v1h-1z M91,56h1v1h-1z M93,56h1v1h-1z M94,56h1v1h-1z M96,56h1v1h-1z M98,56h1v1h-1z M100,56h1v1h-1z M101,56h1v1h-1z M102,56h1v1h-1z M103,56h1v1h-1z M104,56h1v1h-1z M105,56h1v1h-1z M107,56h1v1h-1z M108,56h1v1h-1z M4,57h1v1h-1z M9,57h1v1h-1z M11,57h1v1h-1z M14,57h1v1h-1z M17,57h1v1h-1z M18,57h1v1h-1z M20,57h1v1h-1z M22,57h1v1h-1z M23,57h1v1h-1z M26,57h1v1h-1z M27,57h1v1h-1z M31,57h1v1h-1z M33,57h1v1h-1z M35,57h1v1h-1z M37,57h1v1h-1z M39,57h1v1h-1z M41,57h1v1h-1z M42,57h1v1h-1z M44,57h1v1h-1z M46,57h1v1h-1z M47,57h1v1h-1z M48,57h1v1h-1z M49,57h1v1h-1z M50,57h1v1h-1z M51,57h1v1h-1z M53,57h1v1h-1z M55,57h1v1h-1z M59,57h1v1h-1z M63,57h1v1h-1z M64,57h1v1h-1z M66,57h1v1h-1z M67,57h1v1h-1z M69,57h1v1h-1z M70,57h1v1h-1z M72,57h1v1h-1z M75,57h1v1h-1z M77,57h1v1h-1z M79,57h1v1h-1z M82,57h1v1h-1z M84,57h1v1h-1z M88,57h1v1h-1z M89,57h1v1h-1z M95,57h1v1h-1z M99,57h1v1h-1z M100,57h1v1h-1z M102,57h1v1h-1z M105,57h1v1h-1z M106,57h1v1h-1z M107,57h1v1h-1z M108,57h1v1h-1z M5,58h1v1h-1z M6,58h1v1h-1z M10,58h1v1h-1z M15,58h1v1h-1z M16,58h1v1h-1z M18,58h1v1h-1z M21,58h1v1h-1z M24,58h1v1h-1z M25,58h1v1h-1z M26,58h1v1h-1z M27,58h1v1h-1z M30,58h1v1h-1z M31,58h1v1h-1z M36,58h1v1h-1z M38,58h1v1h-1z M40,58h1v1h-1z M41,58h1v1h-1z M43,58h1v1h-1z M49,58h1v1h-1z M50,58h1v1h-1z M55,58h1v1h-1z M59,58h1v1h-1z M60,58h1v1h-1z M62,58h1v1h-1z M64,58h1v1h-1z M65,58h1v1h-1z M67,58h1v1h-1z M72,58h1v1h-1z M74,58h1v1h-1z M77,58h1v1h-1z M79,58h1v1h-1z M80,58h1v1h-1z M81,58h1v1h-1z M84,58h1v1h-1z M85,58h1v1h-1z M86,58h1v1h-1z M87,58h1v1h-1z M88,58h1v1h-1z M89,58h1v1h-1z M96,58h1v1h-1z M98,58h1v1h-1z M104,58h1v1h-1z M105,58h1v1h-1z M106,58h1v1h-1z M107,58h1v1h-1z M5,59h1v1h-1z M6,59h1v1h-1z M7,59h1v1h-1z M8,59h1v1h-1z M9,59h1v1h-1z M11,59h1v1h-1z M12,59h1v1h-1z M13,59h1v1h-1z M16,59h1v1h-1z M18,59h1v1h-1z M19,59h1v1h-1z M21,59h1v1h-1z M27,59h1v1h-1z M28,59h1v1h-1z M32,59h1v1h-1z M35,59h1v1h-1z M37,59h1v1h-1z M38,59h1v1h-1z M42,59h1v1h-1z M44,59h1v1h-1z M47,59h1v1h-1z M51,59h1v1h-1z M52,59h1v1h-1z M56,59h1v1h-1z M59,59h1v1h-1z M61,59h1v1h-1z M65,59h1v1h-1z M66,59h1v1h-1z M68,59h1v1h-1z M69,59h1v1h-1z M71,59h1v1h-1z M74,59h1v1h-1z M77,59h1v1h-1z M78,59h1v1h-1z M80,59h1v1h-1z M82,59h1v1h-1z M83,59h1v1h-1z M90,59h1v1h-1z M91,59h1v1h-1z M92,59h1v1h-1z M93,59h1v1h-1z M95,59h1v1h-1z M97,59h1v1h-1z M98,59h1v1h-1z M103,59h1v1h-1z M104,59h1v1h-1z M107,59h1v1h-1z M108,59h1v1h-1z M4,60h1v1h-1z M6,60h1v1h-1z M7,60h1v1h-1z M8,60h1v1h-1z M9,60h1v1h-1z M10,60h1v1h-1z M12,60h1v1h-1z M13,60h1v1h-1z M16,60h1v1h-1z M17,60h1v1h-1z M19,60h1v1h-1z M20,60h1v1h-1z M22,60h1v1h-1z M24,60h1v1h-1z M26,60h1v1h-1z M27,60h1v1h-1z M28,60h1v1h-1z M30,60h1v1h-1z M33,60h1v1h-1z M34,60h1v1h-1z M35,60h1v1h-1z M38,60h1v1h-1z M39,60h1v1h-1z M42,60h1v1h-1z M46,60h1v1h-1z M47,60h1v1h-1z M52,60h1v1h-1z M54,60h1v1h-1z M57,60h1v1h-1z M58,60h1v1h-1z M59,60h1v1h-1z M62,60h1v1h-1z M64,60h1v1h-1z M65,60h1v1h-1z M66,60h1v1h-1z M67,60h1v1h-1z M70,60h1v1h-1z M71,60h1v1h-1z M72,60h1v1h-1z M73,60h1v1h-1z M76,60h1v1h-1z M77,60h1v1h-1z M78,60h1v1h-1z M80,60h1v1h-1z M82,60h1v1h-1z M83,60h1v1h-1z M90,60h1v1h-1z M92,60h1v1h-1z M97,60h1v1h-1z M102,60h1v1h-1z M103,60h1v1h-1z M105,60h1v1h-1z M107,60h1v1h-1z M4,61h1v1h-1z M5,61h1v1h-1z M6,61h1v1h-1z M8,61h1v1h-1z M12,61h1v1h-1z M16,61h1v1h-1z M17,61h1v1h-1z M20,61h1v1h-1z M22,61h1v1h-1z M26,61h1v1h-1z M30,61h1v1h-1z M31,61h1v1h-1z M34,61h1v1h-1z M35,61h1v1h-1z M36,61h1v1h-1z M40,61h1v1h-1z M42,61h1v1h-1z M43,61h1v1h-1z M45,61h1v1h-1z M48,61h1v1h-1z M50,61h1v1h-1z M53,61h1v1h-1z M55,61h1v1h-1z M57,61h1v1h-1z M58,61h1v1h-1z M60,61h1v1h-1z M63,61h1v1h-1z M64,61h1v1h-1z M65,61h1v1h-1z M67,61h1v1h-1z M68,61h1v1h-1z M69,61h1v1h-1z M70,61h1v1h-1z M71,61h1v1h-1z M72,61h1v1h-1z M75,61h1v1h-1z M79,61h1v1h-1z M82,61h1v1h-1z M85,61h1v1h-1z M86,61h1v1h-1z M87,61h1v1h-1z M89,61h1v1h-1z M91,61h1v1h-1z M92,61h1v1h-1z M94,61h1v1h-1z M96,61h1v1h-1z M98,61h1v1h-1z M99,61h1v1h-1z M100,61h1v1h-1z M101,61h1v1h-1z M102,61h1v1h-1z M104,61h1v1h-1z M106,61h1v1h-1z M107,61h1v1h-1z M108,61h1v1h-1z M5,62h1v1h-1z M6,62h1v1h-1z M7,62h1v1h-1z M8,62h1v1h-1z M9,62h1v1h-1z M10,62h1v1h-1z M12,62h1v1h-1z M14,62h1v1h-1z M15,62h1v1h-1z M16,62h1v1h-1z M18,62h1v1h-1z M19,62h1v1h-1z M20,62h1v1h-1z M23,62h1v1h-1z M25,62h1v1h-1z M29,62h1v1h-1z M30,62h1v1h-1z M32,62h1v1h-1z M36,62h1v1h-1z M38,62h1v1h-1z M39,62h1v1h-1z M40,62h1v1h-1z M41,62h1v1h-1z M47,62h1v1h-1z M48,62h1v1h-1z M50,62h1v1h-1z M55,62h1v1h-1z M57,62h1v1h-1z M62,62h1v1h-1z M63,62h1v1h-1z M64,62h1v1h-1z M65,62h1v1h-1z M67,62h1v1h-1z M68,62h1v1h-1z M72,62h1v1h-1z M73,62h1v1h-1z M74,62h1v1h-1z M77,62h1v1h-1z M78,62h1v1h-1z M79,62h1v1h-1z M84,62h1v1h-1z M85,62h1v1h-1z M86,62h1v1h-1z M87,62h1v1h-1z M89,62h1v1h-1z M91,62h1v1h-1z M96,62h1v1h-1z M97,62h1v1h-1z M98,62h1v1h-1z M101,62h1v1h-1z M102,62h1v1h-1z M103,62h1v1h-1z M104,62h1v1h-1z M105,62h1v1h-1z M107,62h1v1h-1z M4,63h1v1h-1z M5,63h1v1h-1z M7,63h1v1h-1z M17,63h1v1h-1z M18,63h1v1h-1z M19,63h1v1h-1z M23,63h1v1h-1z M24,63h1v1h-1z M25,63h1v1h-1z M26,63h1v1h-1z M27,63h1v1h-1z M28,63h1v1h-1z M29,63h1v1h-1z M30,63h1v1h-1z M31,63h1v1h-1z M34,63h1v1h-1z M35,63h1v1h-1z M41,63h1v1h-1z M43,63h1v1h-1z M44,63h1v1h-1z M45,63h1v1h-1z M46,63h1v1h-1z M49,63h1v1h-1z M53,63h1v1h-1z M54,63h1v1h-1z M58,63h1v1h-1z M59,63h1v1h-1z M65,63h1v1h-1z M66,63h1v1h-1z M68,63h1v1h-1z M69,63h1v1h-1z M70,63h1v1h-1z M73,63h1v1h-1z M77,63h1v1h-1z M79,63h1v1h-1z M81,63h1v1h-1z M82,63h1v1h-1z M90,63h1v1h-1z M92,63h1v1h-1z M94,63h1v1h-1z M99,63h1v1h-1z M102,63h1v1h-1z M5,64h1v1h-1z M6,64h1v1h-1z M7,64h1v1h-1z M8,64h1v1h-1z M10,64h1v1h-1z M13,64h1v1h-1z M14,64h1v1h-1z M17,64h1v1h-1z M24,64h1v1h-1z M27,64h1v1h-1z M28,64h1v1h-1z M30,64h1v1h-1z M31,64h1v1h-1z M37,64h1v1h-1z M38,64h1v1h-1z M39,64h1v1h-1z M42,64h1v1h-1z M43,64h1v1h-1z M44,64h1v1h-1z M45,64h1v1h-1z M46,64h1v1h-1z M47,64h1v1h-1z M49,64h1v1h-1z M52,64h1v1h-1z M54,64h1v1h-1z M58,64h1v1h-1z M60,64h1v1h-1z M63,64h1v1h-1z M68,64h1v1h-1z M69,64h1v1h-1z M73,64h1v1h-1z M75,64h1v1h-1z M76,64h1v1h-1z M78,64h1v1h-1z M79,64h1v1h-1z M80,64h1v1h-1z M82,64h1v1h-1z M83,64h1v1h-1z M85,64h1v1h-1z M86,64h1v1h-1z M87,64h1v1h-1z M88,64h1v1h-1z M90,64h1v1h-1z M94,64h1v1h-1z M95,64h1v1h-1z M100,64h1v1h-1z M102,64h1v1h-1z M105,64h1v1h-1z M106,64h1v1h-1z M107,64h1v1h-1z M6,65h1v1h-1z M7,65h1v1h-1z M11,65h1v1h-1z M13,65h1v1h-1z M14,65h1v1h-1z M16,65h1v1h-1z M19,65h1v1h-1z M20,65h1v1h-1z M21,65h1v1h-1z M23,65h1v1h-1z M26,65h1v1h-1z M28,65h1v1h-1z M29,65h1v1h-1z M30,65h1v1h-1z M31,65h1v1h-1z M33,65h1v1h-1z M34,65h1v1h-1z M37,65h1v1h-1z M39,65h1v1h-1z M40,65h1v1h-1z M43,65h1v1h-1z M47,65h1v1h-1z M48,65h1v1h-1z M50,65h1v1h-1z M52,65h1v1h-1z M53,65h1v1h-1z M55,65h1v1h-1z M58,65h1v1h-1z M59,65h1v1h-1z M60,65h1v1h-1z M63,65h1v1h-1z M65,65h1v1h-1z M67,65h1v1h-1z M71,65h1v1h-1z M72,65h1v1h-1z M74,65h1v1h-1z M77,65h1v1h-1z M78,65h1v1h-1z M79,65h1v1h-1z M83,65h1v1h-1z M84,65h1v1h-1z M85,65h1v1h-1z M86,65h1v1h-1z M88,65h1v1h-1z M89,65h1v1h-1z M90,65h1v1h-1z M91,65h1v1h-1z M95,65h1v1h-1z M96,65h1v1h-1z M98,65h1v1h-1z M99,65h1v1h-1z M100,65h1v1h-1z M102,65h1v1h-1z M104,65h1v1h-1z M105,65h1v1h-1z M107,65h1v1h-1z M4,66h1v1h-1z M6,66h1v1h-1z M7,66h1v1h-1z M8,66h1v1h-1z M9,66h1v1h-1z M10,66h1v1h-1z M11,66h1v1h-1z M12,66h1v1h-1z M15,66h1v1h-1z M16,66h1v1h-1z M17,66h1v1h-1z M18,66h1v1h-1z M19,66h1v1h-1z M20,66h1v1h-1z M21,66h1v1h-1z M22,66h1v1h-1z M23,66h1v1h-1z M24,66h1v1h-1z M26,66h1v1h-1z M32,66h1v1h-1z M36,66h1v1h-1z M38,66h1v1h-1z M39,66h1v1h-1z M40,66h1v1h-1z M41,66h1v1h-1z M44,66h1v1h-1z M50,66h1v1h-1z M54,66h1v1h-1z M55,66h1v1h-1z M59,66h1v1h-1z M60,66h1v1h-1z M62,66h1v1h-1z M63,66h1v1h-1z M65,66h1v1h-1z M67,66h1v1h-1z M74,66h1v1h-1z M79,66h1v1h-1z M80,66h1v1h-1z M81,66h1v1h-1z M86,66h1v1h-1z M98,66h1v1h-1z M100,66h1v1h-1z M102,66h1v1h-1z M103,66h1v1h-1z M104,66h1v1h-1z M106,66h1v1h-1z M107,66h1v1h-1z M4,67h1v1h-1z M7,67h1v1h-1z M9,67h1v1h-1z M12,67h1v1h-1z M14,67h1v1h-1z M15,67h1v1h-1z M16,67h1v1h-1z M17,67h1v1h-1z M19,67h1v1h-1z M22,67h1v1h-1z M25,67h1v1h-1z M27,67h1v1h-1z M28,67h1v1h-1z M29,67h1v1h-1z M31,67h1v1h-1z M32,67h1v1h-1z M35,67h1v1h-1z M37,67h1v1h-1z M44,67h1v1h-1z M45,67h1v1h-1z M47,67h1v1h-1z M50,67h1v1h-1z M53,67h1v1h-1z M54,67h1v1h-1z M55,67h1v1h-1z M56,67h1v1h-1z M57,67h1v1h-1z M61,67h1v1h-1z M65,67h1v1h-1z M66,67h1v1h-1z M68,67h1v1h-1z M69,67h1v1h-1z M71,67h1v1h-1z M74,67h1v1h-1z M76,67h1v1h-1z M77,67h1v1h-1z M78,67h1v1h-1z M79,67h1v1h-1z M82,67h1v1h-1z M83,67h1v1h-1z M89,67h1v1h-1z M90,67h1v1h-1z M91,67h1v1h-1z M92,67h1v1h-1z M93,67h1v1h-1z M95,67h1v1h-1z M97,67h1v1h-1z M98,67h1v1h-1z M99,67h1v1h-1z M100,67h1v1h-1z M103,67h1v1h-1z M104,67h1v1h-1z M105,67h1v1h-1z M6,68h1v1h-1z M9,68h1v1h-1z M10,68h1v1h-1z M11,68h1v1h-1z M12,68h1v1h-1z M13,68h1v1h-1z M14,68h1v1h-1z M16,68h1v1h-1z M21,68h1v1h-1z M23,68h1v1h-1z M25,68h1v1h-1z M30,68h1v1h-1z M34,68h1v1h-1z M35,68h1v1h-1z M37,68h1v1h-1z M39,68h1v1h-1z M40,68h1v1h-1z M42,68h1v1h-1z M43,68h1v1h-1z M46,68h1v1h-1z M47,68h1v1h-1z M48,68h1v1h-1z M49,68h1v1h-1z M51,68h1v1h-1z M52,68h1v1h-1z M53,68h1v1h-1z M54,68h1v1h-1z M55,68h1v1h-1z M57,68h1v1h-1z M58,68h1v1h-1z M59,68h1v1h-1z M60,68h1v1h-1z M62,68h1v1h-1z M63,68h1v1h-1z M64,68h1v1h-1z M65,68h1v1h-1z M67,68h1v1h-1z M68,68h1v1h-1z M70,68h1v1h-1z M72,68h1v1h-1z M73,68h1v1h-1z M76,68h1v1h-1z M78,68h1v1h-1z M86,68h1v1h-1z M88,68h1v1h-1z M89,68h1v1h-1z M90,68h1v1h-1z M92,68h1v1h-1z M95,68h1v1h-1z M97,68h1v1h-1z M99,68h1v1h-1z M102,68h1v1h-1z M103,68h1v1h-1z M107,68h1v1h-1z M108,68h1v1h-1z M8,69h1v1h-1z M9,69h1v1h-1z M11,69h1v1h-1z M12,69h1v1h-1z M13,69h1v1h-1z M14,69h1v1h-1z M16,69h1v1h-1z M17,69h1v1h-1z M18,69h1v1h-1z M20,69h1v1h-1z M22,69h1v1h-1z M24,69h1v1h-1z M25,69h1v1h-1z M27,69h1v1h-1z M28,69h1v1h-1z M30,69h1v1h-1z M31,69h1v1h-1z M35,69h1v1h-1z M36,69h1v1h-1z M37,69h1v1h-1z M40,69h1v1h-1z M45,69h1v1h-1z M46,69h1v1h-1z M48,69h1v1h-1z M50,69h1v1h-1z M55,69h1v1h-1z M58,69h1v1h-1z M59,69h1v1h-1z M60,69h1v1h-1z M61,69h1v1h-1z M62,69h1v1h-1z M64,69h1v1h-1z M66,69h1v1h-1z M67,69h1v1h-1z M69,69h1v1h-1z M72,69h1v1h-1z M73,69h1v1h-1z M79,69h1v1h-1z M81,69h1v1h-1z M82,69h1v1h-1z M84,69h1v1h-1z M85,69h1v1h-1z M86,69h1v1h-1z M87,69h1v1h-1z M88,69h1v1h-1z M90,69h1v1h-1z M94,69h1v1h-1z M96,69h1v1h-1z M97,69h1v1h-1z M99,69h1v1h-1z M100,69h1v1h-1z M102,69h1v1h-1z M103,69h1v1h-1z M106,69h1v1h-1z M107,69h1v1h-1z M7,70h1v1h-1z M10,70h1v1h-1z M11,70h1v1h-1z M12,70h1v1h-1z M13,70h1v1h-1z M15,70h1v1h-1z M19,70h1v1h-1z M21,70h1v1h-1z M22,70h1v1h-1z M24,70h1v1h-1z M36,70h1v1h-1z M38,70h1v1h-1z M40,70h1v1h-1z M41,70h1v1h-1z M47,70h1v1h-1z M49,70h1v1h-1z M50,70h1v1h-1z M54,70h1v1h-1z M55,70h1v1h-1z M56,70h1v1h-1z M57,70h1v1h-1z M59,70h1v1h-1z M60,70h1v1h-1z M62,70h1v1h-1z M71,70h1v1h-1z M74,70h1v1h-1z M80,70h1v1h-1z M83,70h1v1h-1z M84,70h1v1h-1z M86,70h1v1h-1z M88,70h1v1h-1z M89,70h1v1h-1z M91,70h1v1h-1z M95,70h1v1h-1z M97,70h1v1h-1z M98,70h1v1h-1z M99,70h1v1h-1z M101,70h1v1h-1z M102,70h1v1h-1z M104,70h1v1h-1z M105,70h1v1h-1z M106,70h1v1h-1z M107,70h1v1h-1z M108,70h1v1h-1z M7,71h1v1h-1z M8,71h1v1h-1z M9,71h1v1h-1z M11,71h1v1h-1z M12,71h1v1h-1z M13,71h1v1h-1z M14,71h1v1h-1z M15,71h1v1h-1z M16,71h1v1h-1z M17,71h1v1h-1z M18,71h1v1h-1z M19,71h1v1h-1z M22,71h1v1h-1z M23,71h1v1h-1z M26,71h1v1h-1z M27,71h1v1h-1z M28,71h1v1h-1z M29,71h1v1h-1z M30,71h1v1h-1z M32,71h1v1h-1z M34,71h1v1h-1z M35,71h1v1h-1z M38,71h1v1h-1z M41,71h1v1h-1z M42,71h1v1h-1z M44,71h1v1h-1z M47,71h1v1h-1z M51,71h1v1h-1z M52,71h1v1h-1z M54,71h1v1h-1z M55,71h1v1h-1z M58,71h1v1h-1z M59,71h1v1h-1z M61,71h1v1h-1z M65,71h1v1h-1z M66,71h1v1h-1z M68,71h1v1h-1z M69,71h1v1h-1z M70,71h1v1h-1z M71,71h1v1h-1z M75,71h1v1h-1z M78,71h1v1h-1z M79,71h1v1h-1z M81,71h1v1h-1z M82,71h1v1h-1z M85,71h1v1h-1z M87,71h1v1h-1z M92,71h1v1h-1z M95,71h1v1h-1z M97,71h1v1h-1z M100,71h1v1h-1z M102,71h1v1h-1z M103,71h1v1h-1z M107,71h1v1h-1z M108,71h1v1h-1z M4,72h1v1h-1z M5,72h1v1h-1z M6,72h1v1h-1z M7,72h1v1h-1z M9,72h1v1h-1z M10,72h1v1h-1z M11,72h1v1h-1z M15,72h1v1h-1z M16,72h1v1h-1z M17,72h1v1h-1z M18,72h1v1h-1z M19,72h1v1h-1z M23,72h1v1h-1z M27,72h1v1h-1z M28,72h1v1h-1z M30,72h1v1h-1z M32,72h1v1h-1z M33,72h1v1h-1z M34,72h1v1h-1z M35,72h1v1h-1z M37,72h1v1h-1z M38,72h1v1h-1z M39,72h1v1h-1z M40,72h1v1h-1z M42,72h1v1h-1z M43,72h1v1h-1z M44,72h1v1h-1z M46,72h1v1h-1z M47,72h1v1h-1z M48,72h1v1h-1z M49,72h1v1h-1z M51,72h1v1h-1z M52,72h1v1h-1z M54,72h1v1h-1z M56,72h1v1h-1z M57,72h1v1h-1z M58,72h1v1h-1z M59,72h1v1h-1z M61,72h1v1h-1z M64,72h1v1h-1z M65,72h1v1h-1z M67,72h1v1h-1z M69,72h1v1h-1z M71,72h1v1h-1z M73,72h1v1h-1z M74,72h1v1h-1z M75,72h1v1h-1z M78,72h1v1h-1z M80,72h1v1h-1z M81,72h1v1h-1z M82,72h1v1h-1z M84,72h1v1h-1z M85,72h1v1h-1z M91,72h1v1h-1z M92,72h1v1h-1z M95,72h1v1h-1z M97,72h1v1h-1z M98,72h1v1h-1z M99,72h1v1h-1z M101,72h1v1h-1z M103,72h1v1h-1z M105,72h1v1h-1z M107,72h1v1h-1z M108,72h1v1h-1z M9,73h1v1h-1z M11,73h1v1h-1z M12,73h1v1h-1z M16,73h1v1h-1z M17,73h1v1h-1z M19,73h1v1h-1z M21,73h1v1h-1z M22,73h1v1h-1z M23,73h1v1h-1z M26,73h1v1h-1z M27,73h1v1h-1z M33,73h1v1h-1z M34,73h1v1h-1z M35,73h1v1h-1z M36,73h1v1h-1z M37,73h1v1h-1z M38,73h1v1h-1z M39,73h1v1h-1z M41,73h1v1h-1z M43,73h1v1h-1z M45,73h1v1h-1z M46,73h1v1h-1z M47,73h1v1h-1z M50,73h1v1h-1z M51,73h1v1h-1z M55,73h1v1h-1z M57,73h1v1h-1z M60,73h1v1h-1z M61,73h1v1h-1z M62,73h1v1h-1z M64,73h1v1h-1z M66,73h1v1h-1z M68,73h1v1h-1z M72,73h1v1h-1z M74,73h1v1h-1z M79,73h1v1h-1z M81,73h1v1h-1z M83,73h1v1h-1z M84,73h1v1h-1z M85,73h1v1h-1z M86,73h1v1h-1z M91,73h1v1h-1z M92,73h1v1h-1z M93,73h1v1h-1z M94,73h1v1h-1z M96,73h1v1h-1z M100,73h1v1h-1z M102,73h1v1h-1z M103,73h1v1h-1z M104,73h1v1h-1z M105,73h1v1h-1z M106,73h1v1h-1z M107,73h1v1h-1z M108,73h1v1h-1z M6,74h1v1h-1z M10,74h1v1h-1z M12,74h1v1h-1z M13,74h1v1h-1z M14,74h1v1h-1z M16,74h1v1h-1z M17,74h1v1h-1z M18,74h1v1h-1z M20,74h1v1h-1z M22,74h1v1h-1z M23,74h1v1h-1z M24,74h1v1h-1z M29,74h1v1h-1z M31,74h1v1h-1z M32,74h1v1h-1z M36,74h1v1h-1z M37,74h1v1h-1z M38,74h1v1h-1z M40,74h1v1h-1z M41,74h1v1h-1z M43,74h1v1h-1z M44,74h1v1h-1z M47,74h1v1h-1z M50,74h1v1h-1z M53,74h1v1h-1z M55,74h1v1h-1z M59,74h1v1h-1z M60,74h1v1h-1z M61,74h1v1h-1z M62,74h1v1h-1z M65,74h1v1h-1z M67,74h1v1h-1z M71,74h1v1h-1z M73,74h1v1h-1z M74,74h1v1h-1z M84,74h1v1h-1z M85,74h1v1h-1z M86,74h1v1h-1z M87,74h1v1h-1z M88,74h1v1h-1z M91,74h1v1h-1z M92,74h1v1h-1z M98,74h1v1h-1z M102,74h1v1h-1z M103,74h1v1h-1z M107,74h1v1h-1z M5,75h1v1h-1z M7,75h1v1h-1z M8,75h1v1h-1z M9,75h1v1h-1z M16,75h1v1h-1z M19,75h1v1h-1z M22,75h1v1h-1z M23,75h1v1h-1z M25,75h1v1h-1z M27,75h1v1h-1z M29,75h1v1h-1z M31,75h1v1h-1z M32,75h1v1h-1z M33,75h1v1h-1z M35,75h1v1h-1z M42,75h1v1h-1z M44,75h1v1h-1z M47,75h1v1h-1z M53,75h1v1h-1z M56,75h1v1h-1z M59,75h1v1h-1z M68,75h1v1h-1z M69,75h1v1h-1z M71,75h1v1h-1z M75,75h1v1h-1z M76,75h1v1h-1z M78,75h1v1h-1z M79,75h1v1h-1z M80,75h1v1h-1z M83,75h1v1h-1z M89,75h1v1h-1z M90,75h1v1h-1z M92,75h1v1h-1z M93,75h1v1h-1z M94,75h1v1h-1z M95,75h1v1h-1z M97,75h1v1h-1z M101,75h1v1h-1z M103,75h1v1h-1z M104,75h1v1h-1z M107,75h1v1h-1z M4,76h1v1h-1z M5,76h1v1h-1z M8,76h1v1h-1z M9,76h1v1h-1z M10,76h1v1h-1z M11,76h1v1h-1z M12,76h1v1h-1z M13,76h1v1h-1z M15,76h1v1h-1z M16,76h1v1h-1z M20,76h1v1h-1z M21,76h1v1h-1z M26,76h1v1h-1z M27,76h1v1h-1z M28,76h1v1h-1z M29,76h1v1h-1z M30,76h1v1h-1z M31,76h1v1h-1z M32,76h1v1h-1z M34,76h1v1h-1z M35,76h1v1h-1z M36,76h1v1h-1z M37,76h1v1h-1z M38,76h1v1h-1z M41,76h1v1h-1z M43,76h1v1h-1z M44,76h1v1h-1z M45,76h1v1h-1z M46,76h1v1h-1z M47,76h1v1h-1z M50,76h1v1h-1z M52,76h1v1h-1z M53,76h1v1h-1z M54,76h1v1h-1z M55,76h1v1h-1z M56,76h1v1h-1z M58,76h1v1h-1z M61,76h1v1h-1z M62,76h1v1h-1z M65,76h1v1h-1z M69,76h1v1h-1z M70,76h1v1h-1z M72,76h1v1h-1z M74,76h1v1h-1z M75,76h1v1h-1z M76,76h1v1h-1z M77,76h1v1h-1z M78,76h1v1h-1z M79,76h1v1h-1z M80,76h1v1h-1z M82,76h1v1h-1z M83,76h1v1h-1z M84,76h1v1h-1z M85,76h1v1h-1z M87,76h1v1h-1z M90,76h1v1h-1z M91,76h1v1h-1z M97,76h1v1h-1z M100,76h1v1h-1z M101,76h1v1h-1z M102,76h1v1h-1z M103,76h1v1h-1z M104,76h1v1h-1z M106,76h1v1h-1z M107,76h1v1h-1z M108,76h1v1h-1z M4,77h1v1h-1z M7,77h1v1h-1z M8,77h1v1h-1z M12,77h1v1h-1z M20,77h1v1h-1z M21,77h1v1h-1z M22,77h1v1h-1z M25,77h1v1h-1z M27,77h1v1h-1z M28,77h1v1h-1z M32,77h1v1h-1z M33,77h1v1h-1z M34,77h1v1h-1z M36,77h1v1h-1z M37,77h1v1h-1z M39,77h1v1h-1z M41,77h1v1h-1z M42,77h1v1h-1z M43,77h1v1h-1z M45,77h1v1h-1z M48,77h1v1h-1z M49,77h1v1h-1z M52,77h1v1h-1z M56,77h1v1h-1z M58,77h1v1h-1z M59,77h1v1h-1z M67,77h1v1h-1z M71,77h1v1h-1z M72,77h1v1h-1z M73,77h1v1h-1z M76,77h1v1h-1z M80,77h1v1h-1z M81,77h1v1h-1z M82,77h1v1h-1z M84,77h1v1h-1z M86,77h1v1h-1z M88,77h1v1h-1z M89,77h1v1h-1z M90,77h1v1h-1z M92,77h1v1h-1z M93,77h1v1h-1z M96,77h1v1h-1z M97,77h1v1h-1z M100,77h1v1h-1z M104,77h1v1h-1z M106,77h1v1h-1z M8,78h1v1h-1z M10,78h1v1h-1z M12,78h1v1h-1z M16,78h1v1h-1z M18,78h1v1h-1z M19,78h1v1h-1z M20,78h1v1h-1z M21,78h1v1h-1z M22,78h1v1h-1z M23,78h1v1h-1z M24,78h1v1h-1z M25,78h1v1h-1z M27,78h1v1h-1z M28,78h1v1h-1z M30,78h1v1h-1z M32,78h1v1h-1z M35,78h1v1h-1z M38,78h1v1h-1z M41,78h1v1h-1z M43,78h1v1h-1z M44,78h1v1h-1z M47,78h1v1h-1z M49,78h1v1h-1z M50,78h1v1h-1z M52,78h1v1h-1z M54,78h1v1h-1z M56,78h1v1h-1z M59,78h1v1h-1z M62,78h1v1h-1z M65,78h1v1h-1z M67,78h1v1h-1z M68,78h1v1h-1z M71,78h1v1h-1z M74,78h1v1h-1z M75,78h1v1h-1z M76,78h1v1h-1z M78,78h1v1h-1z M80,78h1v1h-1z M83,78h1v1h-1z M84,78h1v1h-1z M86,78h1v1h-1z M87,78h1v1h-1z M89,78h1v1h-1z M91,78h1v1h-1z M92,78h1v1h-1z M93,78h1v1h-1z M96,78h1v1h-1z M97,78h1v1h-1z M98,78h1v1h-1z M100,78h1v1h-1z M102,78h1v1h-1z M104,78h1v1h-1z M105,78h1v1h-1z M106,78h1v1h-1z M107,78h1v1h-1z M6,79h1v1h-1z M7,79h1v1h-1z M8,79h1v1h-1z M12,79h1v1h-1z M16,79h1v1h-1z M17,79h1v1h-1z M23,79h1v1h-1z M24,79h1v1h-1z M25,79h1v1h-1z M26,79h1v1h-1z M28,79h1v1h-1z M32,79h1v1h-1z M33,79h1v1h-1z M35,79h1v1h-1z M42,79h1v1h-1z M44,79h1v1h-1z M46,79h1v1h-1z M47,79h1v1h-1z M49,79h1v1h-1z M51,79h1v1h-1z M52,79h1v1h-1z M56,79h1v1h-1z M57,79h1v1h-1z M59,79h1v1h-1z M65,79h1v1h-1z M66,79h1v1h-1z M68,79h1v1h-1z M69,79h1v1h-1z M70,79h1v1h-1z M71,79h1v1h-1z M73,79h1v1h-1z M74,79h1v1h-1z M76,79h1v1h-1z M80,79h1v1h-1z M82,79h1v1h-1z M83,79h1v1h-1z M89,79h1v1h-1z M92,79h1v1h-1z M94,79h1v1h-1z M99,79h1v1h-1z M100,79h1v1h-1z M104,79h1v1h-1z M107,79h1v1h-1z M5,80h1v1h-1z M6,80h1v1h-1z M7,80h1v1h-1z M8,80h1v1h-1z M9,80h1v1h-1z M10,80h1v1h-1z M11,80h1v1h-1z M12,80h1v1h-1z M13,80h1v1h-1z M14,80h1v1h-1z M15,80h1v1h-1z M16,80h1v1h-1z M17,80h1v1h-1z M20,80h1v1h-1z M21,80h1v1h-1z M24,80h1v1h-1z M26,80h1v1h-1z M27,80h1v1h-1z M28,80h1v1h-1z M29,80h1v1h-1z M30,80h1v1h-1z M31,80h1v1h-1z M32,80h1v1h-1z M37,80h1v1h-1z M43,80h1v1h-1z M44,80h1v1h-1z M45,80h1v1h-1z M46,80h1v1h-1z M47,80h1v1h-1z M51,80h1v1h-1z M52,80h1v1h-1z M53,80h1v1h-1z M54,80h1v1h-1z M55,80h1v1h-1z M56,80h1v1h-1z M57,80h1v1h-1z M58,80h1v1h-1z M59,80h1v1h-1z M62,80h1v1h-1z M64,80h1v1h-1z M65,80h1v1h-1z M71,80h1v1h-1z M72,80h1v1h-1z M75,80h1v1h-1z M76,80h1v1h-1z M77,80h1v1h-1z M78,80h1v1h-1z M79,80h1v1h-1z M80,80h1v1h-1z M82,80h1v1h-1z M84,80h1v1h-1z M85,80h1v1h-1z M89,80h1v1h-1z M90,80h1v1h-1z M93,80h1v1h-1z M94,80h1v1h-1z M95,80h1v1h-1z M96,80h1v1h-1z M99,80h1v1h-1z M100,80h1v1h-1z M101,80h1v1h-1z M102,80h1v1h-1z M103,80h1v1h-1z M104,80h1v1h-1z M105,80h1v1h-1z M108,80h1v1h-1z M5,81h1v1h-1z M6,81h1v1h-1z M9,81h1v1h-1z M14,81h1v1h-1z M16,81h1v1h-1z M17,81h1v1h-1z M18,81h1v1h-1z M19,81h1v1h-1z M28,81h1v1h-1z M30,81h1v1h-1z M31,81h1v1h-1z M32,81h1v1h-1z M36,81h1v1h-1z M39,81h1v1h-1z M42,81h1v1h-1z M43,81h1v1h-1z M47,81h1v1h-1z M48,81h1v1h-1z M49,81h1v1h-1z M50,81h1v1h-1z M52,81h1v1h-1z M54,81h1v1h-1z M55,81h1v1h-1z M56,81h1v1h-1z M59,81h1v1h-1z M60,81h1v1h-1z M62,81h1v1h-1z M63,81h1v1h-1z M64,81h1v1h-1z M66,81h1v1h-1z M67,81h1v1h-1z M68,81h1v1h-1z M69,81h1v1h-1z M70,81h1v1h-1z M76,81h1v1h-1z M78,81h1v1h-1z M79,81h1v1h-1z M80,81h1v1h-1z M81,81h1v1h-1z M82,81h1v1h-1z M83,81h1v1h-1z M85,81h1v1h-1z M87,81h1v1h-1z M91,81h1v1h-1z M94,81h1v1h-1z M96,81h1v1h-1z M97,81h1v1h-1z M98,81h1v1h-1z M99,81h1v1h-1z M100,81h1v1h-1z M102,81h1v1h-1z M103,81h1v1h-1z M106,81h1v1h-1z M4,82h1v1h-1z M5,82h1v1h-1z M6,82h1v1h-1z M7,82h1v1h-1z M10,82h1v1h-1z M11,82h1v1h-1z M17,82h1v1h-1z M18,82h1v1h-1z M19,82h1v1h-1z M27,82h1v1h-1z M28,82h1v1h-1z M30,82h1v1h-1z M32,82h1v1h-1z M37,82h1v1h-1z M38,82h1v1h-1z M41,82h1v1h-1z M43,82h1v1h-1z M44,82h1v1h-1z M48,82h1v1h-1z M50,82h1v1h-1z M56,82h1v1h-1z M60,82h1v1h-1z M62,82h1v1h-1z M64,82h1v1h-1z M67,82h1v1h-1z M68,82h1v1h-1z M72,82h1v1h-1z M74,82h1v1h-1z M75,82h1v1h-1z M77,82h1v1h-1z M79,82h1v1h-1z M80,82h1v1h-1z M83,82h1v1h-1z M86,82h1v1h-1z M87,82h1v1h-1z M88,82h1v1h-1z M89,82h1v1h-1z M91,82h1v1h-1z M92,82h1v1h-1z M93,82h1v1h-1z M95,82h1v1h-1z M98,82h1v1h-1z M100,82h1v1h-1z M103,82h1v1h-1z M104,82h1v1h-1z M105,82h1v1h-1z M107,82h1v1h-1z M4,83h1v1h-1z M6,83h1v1h-1z M8,83h1v1h-1z M9,83h1v1h-1z M12,83h1v1h-1z M13,83h1v1h-1z M14,83h1v1h-1z M15,83h1v1h-1z M20,83h1v1h-1z M22,83h1v1h-1z M23,83h1v1h-1z M24,83h1v1h-1z M26,83h1v1h-1z M34,83h1v1h-1z M35,83h1v1h-1z M44,83h1v1h-1z M45,83h1v1h-1z M47,83h1v1h-1z M49,83h1v1h-1z M51,83h1v1h-1z M52,83h1v1h-1z M53,83h1v1h-1z M55,83h1v1h-1z M57,83h1v1h-1z M58,83h1v1h-1z M59,83h1v1h-1z M62,83h1v1h-1z M65,83h1v1h-1z M66,83h1v1h-1z M68,83h1v1h-1z M69,83h1v1h-1z M70,83h1v1h-1z M73,83h1v1h-1z M74,83h1v1h-1z M77,83h1v1h-1z M82,83h1v1h-1z M83,83h1v1h-1z M90,83h1v1h-1z M92,83h1v1h-1z M94,83h1v1h-1z M95,83h1v1h-1z M97,83h1v1h-1z M98,83h1v1h-1z M101,83h1v1h-1z M102,83h1v1h-1z M104,83h1v1h-1z M107,83h1v1h-1z M108,83h1v1h-1z M5,84h1v1h-1z M7,84h1v1h-1z M9,84h1v1h-1z M10,84h1v1h-1z M13,84h1v1h-1z M14,84h1v1h-1z M15,84h1v1h-1z M16,84h1v1h-1z M17,84h1v1h-1z M19,84h1v1h-1z M20,84h1v1h-1z M24,84h1v1h-1z M26,84h1v1h-1z M30,84h1v1h-1z M31,84h1v1h-1z M33,84h1v1h-1z M34,84h1v1h-1z M35,84h1v1h-1z M37,84h1v1h-1z M39,84h1v1h-1z M40,84h1v1h-1z M41,84h1v1h-1z M43,84h1v1h-1z M46,84h1v1h-1z M48,84h1v1h-1z M49,84h1v1h-1z M51,84h1v1h-1z M52,84h1v1h-1z M53,84h1v1h-1z M57,84h1v1h-1z M58,84h1v1h-1z M59,84h1v1h-1z M61,84h1v1h-1z M63,84h1v1h-1z M65,84h1v1h-1z M68,84h1v1h-1z M70,84h1v1h-1z M71,84h1v1h-1z M75,84h1v1h-1z M79,84h1v1h-1z M81,84h1v1h-1z M82,84h1v1h-1z M86,84h1v1h-1z M88,84h1v1h-1z M89,84h1v1h-1z M91,84h1v1h-1z M92,84h1v1h-1z M97,84h1v1h-1z M100,84h1v1h-1z M101,84h1v1h-1z M103,84h1v1h-1z M7,85h1v1h-1z M8,85h1v1h-1z M9,85h1v1h-1z M11,85h1v1h-1z M12,85h1v1h-1z M14,85h1v1h-1z M15,85h1v1h-1z M18,85h1v1h-1z M19,85h1v1h-1z M22,85h1v1h-1z M23,85h1v1h-1z M28,85h1v1h-1z M30,85h1v1h-1z M31,85h1v1h-1z M34,85h1v1h-1z M35,85h1v1h-1z M39,85h1v1h-1z M40,85h1v1h-1z M42,85h1v1h-1z M44,85h1v1h-1z M45,85h1v1h-1z M46,85h1v1h-1z M48,85h1v1h-1z M50,85h1v1h-1z M52,85h1v1h-1z M54,85h1v1h-1z M55,85h1v1h-1z M56,85h1v1h-1z M57,85h1v1h-1z M59,85h1v1h-1z M60,85h1v1h-1z M61,85h1v1h-1z M63,85h1v1h-1z M66,85h1v1h-1z M67,85h1v1h-1z M70,85h1v1h-1z M72,85h1v1h-1z M74,85h1v1h-1z M77,85h1v1h-1z M78,85h1v1h-1z M80,85h1v1h-1z M81,85h1v1h-1z M82,85h1v1h-1z M83,85h1v1h-1z M84,85h1v1h-1z M85,85h1v1h-1z M87,85h1v1h-1z M88,85h1v1h-1z M91,85h1v1h-1z M92,85h1v1h-1z M93,85h1v1h-1z M97,85h1v1h-1z M98,85h1v1h-1z M99,85h1v1h-1z M100,85h1v1h-1z M101,85h1v1h-1z M102,85h1v1h-1z M103,85h1v1h-1z M105,85h1v1h-1z M106,85h1v1h-1z M107,85h1v1h-1z M108,85h1v1h-1z M5,86h1v1h-1z M7,86h1v1h-1z M8,86h1v1h-1z M10,86h1v1h-1z M12,86h1v1h-1z M14,86h1v1h-1z M16,86h1v1h-1z M17,86h1v1h-1z M24,86h1v1h-1z M27,86h1v1h-1z M29,86h1v1h-1z M30,86h1v1h-1z M32,86h1v1h-1z M38,86h1v1h-1z M39,86h1v1h-1z M41,86h1v1h-1z M43,86h1v1h-1z M48,86h1v1h-1z M50,86h1v1h-1z M51,86h1v1h-1z M53,86h1v1h-1z M55,86h1v1h-1z M56,86h1v1h-1z M59,86h1v1h-1z M60,86h1v1h-1z M62,86h1v1h-1z M65,86h1v1h-1z M67,86h1v1h-1z M68,86h1v1h-1z M71,86h1v1h-1z M72,86h1v1h-1z M74,86h1v1h-1z M76,86h1v1h-1z M77,86h1v1h-1z M78,86h1v1h-1z M80,86h1v1h-1z M84,86h1v1h-1z M86,86h1v1h-1z M87,86h1v1h-1z M88,86h1v1h-1z M89,86h1v1h-1z M91,86h1v1h-1z M92,86h1v1h-1z M96,86h1v1h-1z M98,86h1v1h-1z M101,86h1v1h-1z M105,86h1v1h-1z M106,86h1v1h-1z M107,86h1v1h-1z M6,87h1v1h-1z M7,87h1v1h-1z M9,87h1v1h-1z M11,87h1v1h-1z M14,87h1v1h-1z M15,87h1v1h-1z M18,87h1v1h-1z M20,87h1v1h-1z M21,87h1v1h-1z M22,87h1v1h-1z M25,87h1v1h-1z M26,87h1v1h-1z M27,87h1v1h-1z M28,87h1v1h-1z M33,87h1v1h-1z M34,87h1v1h-1z M35,87h1v1h-1z M37,87h1v1h-1z M41,87h1v1h-1z M43,87h1v1h-1z M44,87h1v1h-1z M46,87h1v1h-1z M47,87h1v1h-1z M50,87h1v1h-1z M51,87h1v1h-1z M52,87h1v1h-1z M56,87h1v1h-1z M59,87h1v1h-1z M61,87h1v1h-1z M62,87h1v1h-1z M68,87h1v1h-1z M69,87h1v1h-1z M70,87h1v1h-1z M71,87h1v1h-1z M74,87h1v1h-1z M75,87h1v1h-1z M78,87h1v1h-1z M79,87h1v1h-1z M80,87h1v1h-1z M81,87h1v1h-1z M82,87h1v1h-1z M83,87h1v1h-1z M92,87h1v1h-1z M93,87h1v1h-1z M95,87h1v1h-1z M97,87h1v1h-1z M98,87h1v1h-1z M99,87h1v1h-1z M100,87h1v1h-1z M102,87h1v1h-1z M104,87h1v1h-1z M107,87h1v1h-1z M108,87h1v1h-1z M4,88h1v1h-1z M5,88h1v1h-1z M7,88h1v1h-1z M8,88h1v1h-1z M9,88h1v1h-1z M10,88h1v1h-1z M11,88h1v1h-1z M14,88h1v1h-1z M20,88h1v1h-1z M21,88h1v1h-1z M23,88h1v1h-1z M24,88h1v1h-1z M29,88h1v1h-1z M31,88h1v1h-1z M33,88h1v1h-1z M34,88h1v1h-1z M35,88h1v1h-1z M36,88h1v1h-1z M37,88h1v1h-1z M39,88h1v1h-1z M41,88h1v1h-1z M46,88h1v1h-1z M47,88h1v1h-1z M48,88h1v1h-1z M51,88h1v1h-1z M54,88h1v1h-1z M55,88h1v1h-1z M57,88h1v1h-1z M58,88h1v1h-1z M60,88h1v1h-1z M61,88h1v1h-1z M68,88h1v1h-1z M73,88h1v1h-1z M79,88h1v1h-1z M80,88h1v1h-1z M82,88h1v1h-1z M84,88h1v1h-1z M85,88h1v1h-1z M87,88h1v1h-1z M88,88h1v1h-1z M91,88h1v1h-1z M93,88h1v1h-1z M94,88h1v1h-1z M96,88h1v1h-1z M101,88h1v1h-1z M102,88h1v1h-1z M103,88h1v1h-1z M104,88h1v1h-1z M105,88h1v1h-1z M108,88h1v1h-1z M5,89h1v1h-1z M6,89h1v1h-1z M7,89h1v1h-1z M8,89h1v1h-1z M11,89h1v1h-1z M15,89h1v1h-1z M16,89h1v1h-1z M17,89h1v1h-1z M18,89h1v1h-1z M22,89h1v1h-1z M24,89h1v1h-1z M26,89h1v1h-1z M28,89h1v1h-1z M29,89h1v1h-1z M30,89h1v1h-1z M32,89h1v1h-1z M35,89h1v1h-1z M39,89h1v1h-1z M40,89h1v1h-1z M44,89h1v1h-1z M45,89h1v1h-1z M46,89h1v1h-1z M47,89h1v1h-1z M48,89h1v1h-1z M54,89h1v1h-1z M55,89h1v1h-1z M58,89h1v1h-1z M60,89h1v1h-1z M61,89h1v1h-1z M62,89h1v1h-1z M65,89h1v1h-1z M66,89h1v1h-1z M67,89h1v1h-1z M71,89h1v1h-1z M72,89h1v1h-1z M73,89h1v1h-1z M74,89h1v1h-1z M76,89h1v1h-1z M78,89h1v1h-1z M83,89h1v1h-1z M84,89h1v1h-1z M85,89h1v1h-1z M88,89h1v1h-1z M89,89h1v1h-1z M90,89h1v1h-1z M91,89h1v1h-1z M93,89h1v1h-1z M95,89h1v1h-1z M98,89h1v1h-1z M99,89h1v1h-1z M100,89h1v1h-1z M101,89h1v1h-1z M102,89h1v1h-1z M103,89h1v1h-1z M105,89h1v1h-1z M106,89h1v1h-1z M107,89h1v1h-1z M4,90h1v1h-1z M9,90h1v1h-1z M10,90h1v1h-1z M14,90h1v1h-1z M16,90h1v1h-1z M17,90h1v1h-1z M18,90h1v1h-1z M20,90h1v1h-1z M25,90h1v1h-1z M27,90h1v1h-1z M29,90h1v1h-1z M30,90h1v1h-1z M32,90h1v1h-1z M35,90h1v1h-1z M36,90h1v1h-1z M37,90h1v1h-1z M38,90h1v1h-1z M39,90h1v1h-1z M41,90h1v1h-1z M44,90h1v1h-1z M47,90h1v1h-1z M48,90h1v1h-1z M50,90h1v1h-1z M53,90h1v1h-1z M54,90h1v1h-1z M56,90h1v1h-1z M57,90h1v1h-1z M60,90h1v1h-1z M62,90h1v1h-1z M63,90h1v1h-1z M64,90h1v1h-1z M65,90h1v1h-1z M71,90h1v1h-1z M72,90h1v1h-1z M74,90h1v1h-1z M77,90h1v1h-1z M80,90h1v1h-1z M83,90h1v1h-1z M86,90h1v1h-1z M87,90h1v1h-1z M96,90h1v1h-1z M98,90h1v1h-1z M99,90h1v1h-1z M100,90h1v1h-1z M101,90h1v1h-1z M104,90h1v1h-1z M107,90h1v1h-1z M8,91h1v1h-1z M13,91h1v1h-1z M14,91h1v1h-1z M15,91h1v1h-1z M16,91h1v1h-1z M17,91h1v1h-1z M18,91h1v1h-1z M19,91h1v1h-1z M20,91h1v1h-1z M21,91h1v1h-1z M23,91h1v1h-1z M25,91h1v1h-1z M26,91h1v1h-1z M27,91h1v1h-1z M29,91h1v1h-1z M30,91h1v1h-1z M32,91h1v1h-1z M33,91h1v1h-1z M34,91h1v1h-1z M35,91h1v1h-1z M41,91h1v1h-1z M44,91h1v1h-1z M49,91h1v1h-1z M51,91h1v1h-1z M53,91h1v1h-1z M58,91h1v1h-1z M59,91h1v1h-1z M62,91h1v1h-1z M66,91h1v1h-1z M68,91h1v1h-1z M70,91h1v1h-1z M75,91h1v1h-1z M77,91h1v1h-1z M79,91h1v1h-1z M80,91h1v1h-1z M81,91h1v1h-1z M82,91h1v1h-1z M83,91h1v1h-1z M85,91h1v1h-1z M89,91h1v1h-1z M90,91h1v1h-1z M91,91h1v1h-1z M92,91h1v1h-1z M94,91h1v1h-1z M95,91h1v1h-1z M100,91h1v1h-1z M102,91h1v1h-1z M104,91h1v1h-1z M4,92h1v1h-1z M7,92h1v1h-1z M8,92h1v1h-1z M10,92h1v1h-1z M13,92h1v1h-1z M14,92h1v1h-1z M15,92h1v1h-1z M16,92h1v1h-1z M18,92h1v1h-1z M20,92h1v1h-1z M23,92h1v1h-1z M24,92h1v1h-1z M26,92h1v1h-1z M27,92h1v1h-1z M33,92h1v1h-1z M34,92h1v1h-1z M35,92h1v1h-1z M36,92h1v1h-1z M37,92h1v1h-1z M39,92h1v1h-1z M42,92h1v1h-1z M45,92h1v1h-1z M46,92h1v1h-1z M47,92h1v1h-1z M49,92h1v1h-1z M54,92h1v1h-1z M58,92h1v1h-1z M60,92h1v1h-1z M63,92h1v1h-1z M65,92h1v1h-1z M72,92h1v1h-1z M75,92h1v1h-1z M79,92h1v1h-1z M82,92h1v1h-1z M84,92h1v1h-1z M85,92h1v1h-1z M87,92h1v1h-1z M88,92h1v1h-1z M89,92h1v1h-1z M91,92h1v1h-1z M93,92h1v1h-1z M95,92h1v1h-1z M101,92h1v1h-1z M102,92h1v1h-1z M103,92h1v1h-1z M104,92h1v1h-1z M105,92h1v1h-1z M106,92h1v1h-1z M108,92h1v1h-1z M5,93h1v1h-1z M7,93h1v1h-1z M8,93h1v1h-1z M11,93h1v1h-1z M18,93h1v1h-1z M19,93h1v1h-1z M20,93h1v1h-1z M21,93h1v1h-1z M25,93h1v1h-1z M28,93h1v1h-1z M30,93h1v1h-1z M32,93h1v1h-1z M33,93h1v1h-1z M35,93h1v1h-1z M36,93h1v1h-1z M38,93h1v1h-1z M39,93h1v1h-1z M40,93h1v1h-1z M41,93h1v1h-1z M42,93h1v1h-1z M46,93h1v1h-1z M50,93h1v1h-1z M54,93h1v1h-1z M58,93h1v1h-1z M59,93h1v1h-1z M60,93h1v1h-1z M62,93h1v1h-1z M64,93h1v1h-1z M65,93h1v1h-1z M68,93h1v1h-1z M70,93h1v1h-1z M71,93h1v1h-1z M72,93h1v1h-1z M78,93h1v1h-1z M81,93h1v1h-1z M82,93h1v1h-1z M85,93h1v1h-1z M87,93h1v1h-1z M88,93h1v1h-1z M90,93h1v1h-1z M93,93h1v1h-1z M95,93h1v1h-1z M96,93h1v1h-1z M98,93h1v1h-1z M99,93h1v1h-1z M100,93h1v1h-1z M101,93h1v1h-1z M103,93h1v1h-1z M105,93h1v1h-1z M106,93h1v1h-1z M107,93h1v1h-1z M108,93h1v1h-1z M6,94h1v1h-1z M7,94h1v1h-1z M8,94h1v1h-1z M10,94h1v1h-1z M11,94h1v1h-1z M12,94h1v1h-1z M13,94h1v1h-1z M14,94h1v1h-1z M20,94h1v1h-1z M22,94h1v1h-1z M23,94h1v1h-1z M24,94h1v1h-1z M25,94h1v1h-1z M26,94h1v1h-1z M30,94h1v1h-1z M32,94h1v1h-1z M36,94h1v1h-1z M38,94h1v1h-1z M40,94h1v1h-1z M41,94h1v1h-1z M43,94h1v1h-1z M50,94h1v1h-1z M53,94h1v1h-1z M54,94h1v1h-1z M56,94h1v1h-1z M62,94h1v1h-1z M63,94h1v1h-1z M64,94h1v1h-1z M65,94h1v1h-1z M67,94h1v1h-1z M68,94h1v1h-1z M69,94h1v1h-1z M71,94h1v1h-1z M72,94h1v1h-1z M74,94h1v1h-1z M76,94h1v1h-1z M77,94h1v1h-1z M78,94h1v1h-1z M80,94h1v1h-1z M81,94h1v1h-1z M86,94h1v1h-1z M87,94h1v1h-1z M89,94h1v1h-1z M91,94h1v1h-1z M92,94h1v1h-1z M93,94h1v1h-1z M95,94h1v1h-1z M98,94h1v1h-1z M99,94h1v1h-1z M100,94h1v1h-1z M101,94h1v1h-1z M104,94h1v1h-1z M105,94h1v1h-1z M106,94h1v1h-1z M107,94h1v1h-1z M4,95h1v1h-1z M8,95h1v1h-1z M9,95h1v1h-1z M13,95h1v1h-1z M14,95h1v1h-1z M16,95h1v1h-1z M17,95h1v1h-1z M20,95h1v1h-1z M23,95h1v1h-1z M27,95h1v1h-1z M31,95h1v1h-1z M33,95h1v1h-1z M35,95h1v1h-1z M37,95h1v1h-1z M44,95h1v1h-1z M47,95h1v1h-1z M55,95h1v1h-1z M57,95h1v1h-1z M58,95h1v1h-1z M59,95h1v1h-1z M61,95h1v1h-1z M62,95h1v1h-1z M66,95h1v1h-1z M68,95h1v1h-1z M70,95h1v1h-1z M73,95h1v1h-1z M74,95h1v1h-1z M75,95h1v1h-1z M77,95h1v1h-1z M80,95h1v1h-1z M82,95h1v1h-1z M83,95h1v1h-1z M90,95h1v1h-1z M92,95h1v1h-1z M94,95h1v1h-1z M95,95h1v1h-1z M98,95h1v1h-1z M99,95h1v1h-1z M100,95h1v1h-1z M108,95h1v1h-1z M4,96h1v1h-1z M5,96h1v1h-1z M6,96h1v1h-1z M7,96h1v1h-1z M8,96h1v1h-1z M10,96h1v1h-1z M13,96h1v1h-1z M14,96h1v1h-1z M15,96h1v1h-1z M16,96h1v1h-1z M19,96h1v1h-1z M21,96h1v1h-1z M25,96h1v1h-1z M26,96h1v1h-1z M27,96h1v1h-1z M33,96h1v1h-1z M34,96h1v1h-1z M35,96h1v1h-1z M38,96h1v1h-1z M40,96h1v1h-1z M41,96h1v1h-1z M42,96h1v1h-1z M44,96h1v1h-1z M45,96h1v1h-1z M47,96h1v1h-1z M48,96h1v1h-1z M49,96h1v1h-1z M54,96h1v1h-1z M55,96h1v1h-1z M57,96h1v1h-1z M58,96h1v1h-1z M60,96h1v1h-1z M63,96h1v1h-1z M65,96h1v1h-1z M66,96h1v1h-1z M68,96h1v1h-1z M69,96h1v1h-1z M70,96h1v1h-1z M73,96h1v1h-1z M74,96h1v1h-1z M78,96h1v1h-1z M79,96h1v1h-1z M83,96h1v1h-1z M84,96h1v1h-1z M86,96h1v1h-1z M87,96h1v1h-1z M88,96h1v1h-1z M90,96h1v1h-1z M91,96h1v1h-1z M94,96h1v1h-1z M95,96h1v1h-1z M97,96h1v1h-1z M101,96h1v1h-1z M102,96h1v1h-1z M103,96h1v1h-1z M104,96h1v1h-1z M105,96h1v1h-1z M106,96h1v1h-1z M107,96h1v1h-1z M4,97h1v1h-1z M5,97h1v1h-1z M6,97h1v1h-1z M7,97h1v1h-1z M9,97h1v1h-1z M12,97h1v1h-1z M13,97h1v1h-1z M15,97h1v1h-1z M16,97h1v1h-1z M17,97h1v1h-1z M18,97h1v1h-1z M19,97h1v1h-1z M20,97h1v1h-1z M21,97h1v1h-1z M23,97h1v1h-1z M24,97h1v1h-1z M28,97h1v1h-1z M30,97h1v1h-1z M34,97h1v1h-1z M35,97h1v1h-1z M37,97h1v1h-1z M39,97h1v1h-1z M40,97h1v1h-1z M41,97h1v1h-1z M42,97h1v1h-1z M45,97h1v1h-1z M46,97h1v1h-1z M48,97h1v1h-1z M50,97h1v1h-1z M52,97h1v1h-1z M54,97h1v1h-1z M55,97h1v1h-1z M56,97h1v1h-1z M58,97h1v1h-1z M60,97h1v1h-1z M66,97h1v1h-1z M71,97h1v1h-1z M72,97h1v1h-1z M73,97h1v1h-1z M74,97h1v1h-1z M76,97h1v1h-1z M78,97h1v1h-1z M80,97h1v1h-1z M84,97h1v1h-1z M85,97h1v1h-1z M88,97h1v1h-1z M89,97h1v1h-1z M91,97h1v1h-1z M94,97h1v1h-1z M95,97h1v1h-1z M99,97h1v1h-1z M100,97h1v1h-1z M102,97h1v1h-1z M106,97h1v1h-1z M4,98h1v1h-1z M5,98h1v1h-1z M6,98h1v1h-1z M10,98h1v1h-1z M11,98h1v1h-1z M16,98h1v1h-1z M20,98h1v1h-1z M21,98h1v1h-1z M23,98h1v1h-1z M24,98h1v1h-1z M25,98h1v1h-1z M26,98h1v1h-1z M32,98h1v1h-1z M33,98h1v1h-1z M36,98h1v1h-1z M38,98h1v1h-1z M39,98h1v1h-1z M40,98h1v1h-1z M41,98h1v1h-1z M43,98h1v1h-1z M44,98h1v1h-1z M48,98h1v1h-1z M50,98h1v1h-1z M51,98h1v1h-1z M54,98h1v1h-1z M55,98h1v1h-1z M56,98h1v1h-1z M59,98h1v1h-1z M60,98h1v1h-1z M62,98h1v1h-1z M63,98h1v1h-1z M64,98h1v1h-1z M65,98h1v1h-1z M68,98h1v1h-1z M71,98h1v1h-1z M72,98h1v1h-1z M74,98h1v1h-1z M75,98h1v1h-1z M77,98h1v1h-1z M78,98h1v1h-1z M80,98h1v1h-1z M83,98h1v1h-1z M86,98h1v1h-1z M87,98h1v1h-1z M89,98h1v1h-1z M91,98h1v1h-1z M93,98h1v1h-1z M95,98h1v1h-1z M96,98h1v1h-1z M97,98h1v1h-1z M98,98h1v1h-1z M99,98h1v1h-1z M101,98h1v1h-1z M103,98h1v1h-1z M104,98h1v1h-1z M106,98h1v1h-1z M107,98h1v1h-1z M6,99h1v1h-1z M8,99h1v1h-1z M9,99h1v1h-1z M11,99h1v1h-1z M12,99h1v1h-1z M16,99h1v1h-1z M17,99h1v1h-1z M20,99h1v1h-1z M25,99h1v1h-1z M27,99h1v1h-1z M31,99h1v1h-1z M32,99h1v1h-1z M34,99h1v1h-1z M35,99h1v1h-1z M41,99h1v1h-1z M42,99h1v1h-1z M44,99h1v1h-1z M46,99h1v1h-1z M47,99h1v1h-1z M52,99h1v1h-1z M54,99h1v1h-1z M55,99h1v1h-1z M56,99h1v1h-1z M57,99h1v1h-1z M68,99h1v1h-1z M69,99h1v1h-1z M70,99h1v1h-1z M77,99h1v1h-1z M79,99h1v1h-1z M80,99h1v1h-1z M83,99h1v1h-1z M85,99h1v1h-1z M86,99h1v1h-1z M89,99h1v1h-1z M92,99h1v1h-1z M93,99h1v1h-1z M94,99h1v1h-1z M97,99h1v1h-1z M99,99h1v1h-1z M100,99h1v1h-1z M102,99h1v1h-1z M104,99h1v1h-1z M108,99h1v1h-1z M7,100h1v1h-1z M8,100h1v1h-1z M10,100h1v1h-1z M11,100h1v1h-1z M15,100h1v1h-1z M17,100h1v1h-1z M18,100h1v1h-1z M20,100h1v1h-1z M21,100h1v1h-1z M23,100h1v1h-1z M24,100h1v1h-1z M25,100h1v1h-1z M28,100h1v1h-1z M29,100h1v1h-1z M30,100h1v1h-1z M31,100h1v1h-1z M32,100h1v1h-1z M33,100h1v1h-1z M34,100h1v1h-1z M35,100h1v1h-1z M36,100h1v1h-1z M38,100h1v1h-1z M40,100h1v1h-1z M41,100h1v1h-1z M42,100h1v1h-1z M44,100h1v1h-1z M46,100h1v1h-1z M47,100h1v1h-1z M49,100h1v1h-1z M51,100h1v1h-1z M52,100h1v1h-1z M53,100h1v1h-1z M54,100h1v1h-1z M55,100h1v1h-1z M56,100h1v1h-1z M60,100h1v1h-1z M64,100h1v1h-1z M65,100h1v1h-1z M66,100h1v1h-1z M67,100h1v1h-1z M69,100h1v1h-1z M72,100h1v1h-1z M76,100h1v1h-1z M77,100h1v1h-1z M78,100h1v1h-1z M79,100h1v1h-1z M80,100h1v1h-1z M81,100h1v1h-1z M82,100h1v1h-1z M83,100h1v1h-1z M84,100h1v1h-1z M85,100h1v1h-1z M88,100h1v1h-1z M90,100h1v1h-1z M91,100h1v1h-1z M92,100h1v1h-1z M93,100h1v1h-1z M94,100h1v1h-1z M97,100h1v1h-1z M98,100h1v1h-1z M100,100h1v1h-1z M101,100h1v1h-1z M102,100h1v1h-1z M103,100h1v1h-1z M104,100h1v1h-1z M106,100h1v1h-1z M107,100h1v1h-1z M108,100h1v1h-1z M12,101h1v1h-1z M13,101h1v1h-1z M16,101h1v1h-1z M19,101h1v1h-1z M20,101h1v1h-1z M21,101h1v1h-1z M24,101h1v1h-1z M25,101h1v1h-1z M26,101h1v1h-1z M27,101h1v1h-1z M28,101h1v1h-1z M32,101h1v1h-1z M33,101h1v1h-1z M35,101h1v1h-1z M36,101h1v1h-1z M39,101h1v1h-1z M40,101h1v1h-1z M41,101h1v1h-1z M43,101h1v1h-1z M45,101h1v1h-1z M49,101h1v1h-1z M50,101h1v1h-1z M51,101h1v1h-1z M52,101h1v1h-1z M56,101h1v1h-1z M57,101h1v1h-1z M58,101h1v1h-1z M59,101h1v1h-1z M60,101h1v1h-1z M61,101h1v1h-1z M62,101h1v1h-1z M65,101h1v1h-1z M67,101h1v1h-1z M68,101h1v1h-1z M69,101h1v1h-1z M71,101h1v1h-1z M75,101h1v1h-1z M76,101h1v1h-1z M80,101h1v1h-1z M82,101h1v1h-1z M84,101h1v1h-1z M87,101h1v1h-1z M89,101h1v1h-1z M91,101h1v1h-1z M97,101h1v1h-1z M98,101h1v1h-1z M99,101h1v1h-1z M100,101h1v1h-1z M104,101h1v1h-1z M4,102h1v1h-1z M5,102h1v1h-1z M6,102h1v1h-1z M7,102h1v1h-1z M8,102h1v1h-1z M9,102h1v1h-1z M10,102h1v1h-1z M14,102h1v1h-1z M15,102h1v1h-1z M16,102h1v1h-1z M19,102h1v1h-1z M21,102h1v1h-1z M25,102h1v1h-1z M26,102h1v1h-1z M27,102h1v1h-1z M28,102h1v1h-1z M30,102h1v1h-1z M32,102h1v1h-1z M33,102h1v1h-1z M35,102h1v1h-1z M37,102h1v1h-1z M38,102h1v1h-1z M39,102h1v1h-1z M40,102h1v1h-1z M41,102h1v1h-1z M43,102h1v1h-1z M44,102h1v1h-1z M47,102h1v1h-1z M50,102h1v1h-1z M51,102h1v1h-1z M52,102h1v1h-1z M54,102h1v1h-1z M56,102h1v1h-1z M57,102h1v1h-1z M59,102h1v1h-1z M60,102h1v1h-1z M62,102h1v1h-1z M63,102h1v1h-1z M65,102h1v1h-1z M71,102h1v1h-1z M74,102h1v1h-1z M75,102h1v1h-1z M76,102h1v1h-1z M78,102h1v1h-1z M80,102h1v1h-1z M84,102h1v1h-1z M86,102h1v1h-1z M87,102h1v1h-1z M88,102h1v1h-1z M89,102h1v1h-1z M91,102h1v1h-1z M95,102h1v1h-1z M97,102h1v1h-1z M98,102h1v1h-1z M99,102h1v1h-1z M100,102h1v1h-1z M102,102h1v1h-1z M104,102h1v1h-1z M106,102h1v1h-1z M4,103h1v1h-1z M10,103h1v1h-1z M12,103h1v1h-1z M13,103h1v1h-1z M14,103h1v1h-1z M15,103h1v1h-1z M19,103h1v1h-1z M22,103h1v1h-1z M23,103h1v1h-1z M24,103h1v1h-1z M25,103h1v1h-1z M26,103h1v1h-1z M27,103h1v1h-1z M28,103h1v1h-1z M32,103h1v1h-1z M34,103h1v1h-1z M35,103h1v1h-1z M44,103h1v1h-1z M46,103h1v1h-1z M47,103h1v1h-1z M49,103h1v1h-1z M50,103h1v1h-1z M52,103h1v1h-1z M56,103h1v1h-1z M58,103h1v1h-1z M59,103h1v1h-1z M62,103h1v1h-1z M65,103h1v1h-1z M67,103h1v1h-1z M68,103h1v1h-1z M69,103h1v1h-1z M70,103h1v1h-1z M71,103h1v1h-1z M73,103h1v1h-1z M74,103h1v1h-1z M75,103h1v1h-1z M76,103h1v1h-1z M80,103h1v1h-1z M83,103h1v1h-1z M90,103h1v1h-1z M92,103h1v1h-1z M93,103h1v1h-1z M94,103h1v1h-1z M95,103h1v1h-1z M100,103h1v1h-1z M104,103h1v1h-1z M107,103h1v1h-1z M4,104h1v1h-1z M6,104h1v1h-1z M7,104h1v1h-1z M8,104h1v1h-1z M10,104h1v1h-1z M12,104h1v1h-1z M13,104h1v1h-1z M14,104h1v1h-1z M15,104h1v1h-1z M16,104h1v1h-1z M17,104h1v1h-1z M19,104h1v1h-1z M22,104h1v1h-1z M23,104h1v1h-1z M25,104h1v1h-1z M26,104h1v1h-1z M27,104h1v1h-1z M28,104h1v1h-1z M29,104h1v1h-1z M30,104h1v1h-1z M31,104h1v1h-1z M32,104h1v1h-1z M33,104h1v1h-1z M34,104h1v1h-1z M36,104h1v1h-1z M41,104h1v1h-1z M42,104h1v1h-1z M45,104h1v1h-1z M46,104h1v1h-1z M49,104h1v1h-1z M52,104h1v1h-1z M53,104h1v1h-1z M54,104h1v1h-1z M55,104h1v1h-1z M56,104h1v1h-1z M57,104h1v1h-1z M58,104h1v1h-1z M60,104h1v1h-1z M61,104h1v1h-1z M62,104h1v1h-1z M65,104h1v1h-1z M68,104h1v1h-1z M71,104h1v1h-1z M72,104h1v1h-1z M74,104h1v1h-1z M75,104h1v1h-1z M76,104h1v1h-1z M77,104h1v1h-1z M78,104h1v1h-1z M79,104h1v1h-1z M80,104h1v1h-1z M81,104h1v1h-1z M83,104h1v1h-1z M84,104h1v1h-1z M85,104h1v1h-1z M90,104h1v1h-1z M93,104h1v1h-1z M94,104h1v1h-1z M96,104h1v1h-1z M97,104h1v1h-1z M98,104h1v1h-1z M100,104h1v1h-1z M101,104h1v1h-1z M102,104h1v1h-1z M103,104h1v1h-1z M104,104h1v1h-1z M106,104h1v1h-1z M107,104h1v1h-1z M108,104h1v1h-1z M4,105h1v1h-1z M6,105h1v1h-1z M7,105h1v1h-1z M8,105h1v1h-1z M10,105h1v1h-1z M15,105h1v1h-1z M16,105h1v1h-1z M17,105h1v1h-1z M21,105h1v1h-1z M22,105h1v1h-1z M23,105h1v1h-1z M25,105h1v1h-1z M26,105h1v1h-1z M32,105h1v1h-1z M34,105h1v1h-1z M35,105h1v1h-1z M36,105h1v1h-1z M44,105h1v1h-1z M45,105h1v1h-1z M47,105h1v1h-1z M49,105h1v1h-1z M52,105h1v1h-1z M54,105h1v1h-1z M56,105h1v1h-1z M57,105h1v1h-1z M59,105h1v1h-1z M60,105h1v1h-1z M61,105h1v1h-1z M64,105h1v1h-1z M66,105h1v1h-1z M67,105h1v1h-1z M70,105h1v1h-1z M71,105h1v1h-1z M76,105h1v1h-1z M77,105h1v1h-1z M79,105h1v1h-1z M84,105h1v1h-1z M85,105h1v1h-1z M86,105h1v1h-1z M87,105h1v1h-1z M88,105h1v1h-1z M89,105h1v1h-1z M90,105h1v1h-1z M92,105h1v1h-1z M95,105h1v1h-1z M97,105h1v1h-1z M98,105h1v1h-1z M100,105h1v1h-1z M101,105h1v1h-1z M102,105h1v1h-1z M103,105h1v1h-1z M104,105h1v1h-1z M106,105h1v1h-1z M107,105h1v1h-1z M108,105h1v1h-1z M4,106h1v1h-1z M6,106h1v1h-1z M7,106h1v1h-1z M8,106h1v1h-1z M10,106h1v1h-1z M13,106h1v1h-1z M14,106h1v1h-1z M15,106h1v1h-1z M18,106h1v1h-1z M20,106h1v1h-1z M23,106h1v1h-1z M26,106h1v1h-1z M27,106h1v1h-1z M29,106h1v1h-1z M31,106h1v1h-1z M35,106h1v1h-1z M38,106h1v1h-1z M39,106h1v1h-1z M41,106h1v1h-1z M50,106h1v1h-1z M51,106h1v1h-1z M52,106h1v1h-1z M53,106h1v1h-1z M55,106h1v1h-1z M56,106h1v1h-1z M62,106h1v1h-1z M65,106h1v1h-1z M67,106h1v1h-1z M68,106h1v1h-1z M71,106h1v1h-1z M72,106h1v1h-1z M74,106h1v1h-1z M76,106h1v1h-1z M77,106h1v1h-1z M79,106h1v1h-1z M80,106h1v1h-1z M84,106h1v1h-1z M86,106h1v1h-1z M87,106h1v1h-1z M88,106h1v1h-1z M89,106h1v1h-1z M91,106h1v1h-1z M98,106h1v1h-1z M101,106h1v1h-1z M103,106h1v1h-1z M104,106h1v1h-1z M4,107h1v1h-1z M10,107h1v1h-1z M12,107h1v1h-1z M18,107h1v1h-1z M19,107h1v1h-1z M21,107h1v1h-1z M22,107h1v1h-1z M26,107h1v1h-1z M29,107h1v1h-1z M30,107h1v1h-1z M32,107h1v1h-1z M33,107h1v1h-1z M34,107h1v1h-1z M35,107h1v1h-1z M38,107h1v1h-1z M43,107h1v1h-1z M44,107h1v1h-1z M46,107h1v1h-1z M47,107h1v1h-1z M49,107h1v1h-1z M50,107h1v1h-1z M53,107h1v1h-1z M56,107h1v1h-1z M57,107h1v1h-1z M58,107h1v1h-1z M59,107h1v1h-1z M61,107h1v1h-1z M62,107h1v1h-1z M66,107h1v1h-1z M68,107h1v1h-1z M73,107h1v1h-1z M74,107h1v1h-1z M78,107h1v1h-1z M80,107h1v1h-1z M81,107h1v1h-1z M83,107h1v1h-1z M85,107h1v1h-1z M89,107h1v1h-1z M92,107h1v1h-1z M93,107h1v1h-1z M95,107h1v1h-1z M100,107h1v1h-1z M101,107h1v1h-1z M104,107h1v1h-1z M4,108h1v1h-1z M5,108h1v1h-1z M6,108h1v1h-1z M7,108h1v1h-1z M8,108h1v1h-1z M9,108h1v1h-1z M10,108h1v1h-1z M12,108h1v1h-1z M13,108h1v1h-1z M14,108h1v1h-1z M15,108h1v1h-1z M18,108h1v1h-1z M19,108h1v1h-1z M21,108h1v1h-1z M22,108h1v1h-1z M25,108h1v1h-1z M28,108h1v1h-1z M30,108h1v1h-1z M31,108h1v1h-1z M36,108h1v1h-1z M38,108h1v1h-1z M40,108h1v1h-1z M42,108h1v1h-1z M48,108h1v1h-1z M49,108h1v1h-1z M51,108h1v1h-1z M52,108h1v1h-1z M53,108h1v1h-1z M55,108h1v1h-1z M57,108h1v1h-1z M58,108h1v1h-1z M59,108h1v1h-1z M60,108h1v1h-1z M61,108h1v1h-1z M63,108h1v1h-1z M65,108h1v1h-1z M67,108h1v1h-1z M68,108h1v1h-1z M75,108h1v1h-1z M76,108h1v1h-1z M79,108h1v1h-1z M81,108h1v1h-1z M82,108h1v1h-1z M84,108h1v1h-1z M86,108h1v1h-1z M88,108h1v1h-1z M90,108h1v1h-1z M91,108h1v1h-1z M92,108h1v1h-1z M94,108h1v1h-1z M99,108h1v1h-1z M100,108h1v1h-1z M101,108h1v1h-1z M104,108h1v1h-1z M105,108h1v1h-1z M106,108h1v1h-1z M108,108h1v1h-1z" fill="#000000"/>
</svg>
