<?xml version="1.0" encoding="UTF-8"?>
<!DOCTYPE svg PUBLIC "-//W3C//DTD SVG 1.1//EN" "http://www.w3.org/Graphics/SVG/1.1/DTD/svg11.dtd">
<svg xmlns="http://www.w3.org/2000/svg" version="1.1" viewBox="0 0 113 113" stroke="none">
	<rect width="100%" height="100%" fill="#FFFFFF"/>
	<path d="M4,4h1v1h-1z M5,4h1v1h-1z M6,4h1v1h-1z M7,4h1v1h-1z M8,4h1v1h-1z M9,4h1v1h-1z M10,4h1v1h-1z M13,4h1v1h-1z M15,4h1v1h-1z M16,4h1v1h-1z M21,4h1v1h-1z M24,4h1v1h-1z M25,4h1v1h-1z M27,4h1v1h-1z M28,4h1v1h-1z M30,4h1v1h-1z M34,4h1v1h-1z M35,4h1v1h-1z M37,4h1v1h-1z M40,4h1v1h-1z M45,4h1v1h-1z M49,4h1v1h-1z M50,4h1v1h-1z M52,4h1v1h-1z M53,4h1v1h-1z M55,4h1v1h-1z M56,4h1v1h-1z M58,4h1v1h-1z M60,4h1v1h-1z M62,4h1v1h-1z M63,4h1v1h-1z M65,4h1v1h-1z M67,4h1v1h-1z M75,4h1v1h-1z M76,4h1v1h-1z M78,4h1v1h-1z M79,4h1v1h-1z M80,4h1v1h-1z M81,4h1v1h-1z M87,4h1v1h-1z M88,4h1v1h-1z M89,4h1v1h-1z M90,4h1v1h-1z M94,4h1v1h-1z M95,4h1v1h-1z M98,4h1v1h-1z M102,4h1v1h-1z M103,4h1v1h-1z M104,4h1v1h-1z M105,4h1v1h-1z M106,4h1v1h-1z M107,4h1v1h-1z M108,4h1v1h-1z M4,5h1v1h-1z M10,5h1v1h-1z M12,5h1v1h-1z M14,5h1v1h-1z M15,5h1v1h-1z M16,5h1v1h-1z M19,5h1v1h-1z M25,5h1v1h-1z M28,5h1v1h-1z M31,5h1v1h-1z M34,5h1v1h-1z M35,5h1v1h-1z M37,5h1v1h-1z M39,5h1v1h-1z M40,5h1v1h-1z M41,5h1v1h-1z M44,5h1v1h-1z M45,5h1v1h-1z M46,5h1v1h-1z M48,5h1v1h-1z M51,5h1v1h-1z M53,5h1v1h-1z M55,5h1v1h-1z M56,5h1v1h-1z M57,5h1v1h-1z M58,5h1v1h-1z M63,5h1v1h-1z M65,5h1v1h-1z M68,5h1v1h-1z M69,5h1v1h-1z M70,5h1v1h-1z M71,5h1v1h-1z M72,5h1v1h-1z M75,5h1v1h-1z M77,5h1v1h-1z M80,5h1v1h-1z M81,5h1v1h-1z M82,5h1v1h-1z M83,5h1v1h-1z M87,5h1v1h-1z M89,5h1v1h-1z M92,5h1v1h-1z M93,5h1v1h-1z M94,5h1v1h-1z M98,5h1v1h-1z M102,5h1v1h-1z M108,5h1v1h-1z M4,6h1v1h-1z M6,6h1v1h-1z M7,6h1v1h-1z M8,6h1v1h-1z M10,6h1v1h-1z M16,6h1v1h-1z M17,6h1v1h-1z M18,6h1v1h-1z M20,6h1v1h-1z M23,6h1v1h-1z M24,6h1v1h-1z M25,6h1v1h-1z M27,6h1v1h-1z M28,6h1v1h-1z M29,6h1v1h-1z M30,6h1v1h-1z M33,6h1v1h-1z M35,6h1v1h-1z M38,6h1v1h-1z M39,6h1v1h-1z M40,6h1v1h-1z M41,6h1v1h-1z M42,6h1v1h-1z M43,6h1v1h-1z M47,6h1v1h-1z M49,6h1v1h-1z M52,6h1v1h-1z M59,6h1v1h-1z M62,6h1v1h-1z M64,6h1v1h-1z M65,6h1v1h-1z M67,6h1v1h-1z M69,6h1v1h-1z M70,6h1v1h-1z M71,6h1v1h-1z M74,6h1v1h-1z M76,6h1v1h-1z M81,6h1v1h-1z M83,6h1v1h-1z M85,6h1v1h-1z M87,6h1v1h-1z M88,6h1v1h-1z M90,6h1v1h-1z M91,6h1v1h-1z M95,6h1v1h-1z M98,6h1v1h-1z M99,6h1v1h-1z M102,6h1v1h-1z M104,6h1v1h-1z M105,6h1v1h-1z M106,6h1v1h-1z M108,6h1v1h-1z M4,7h1v1h-1z M6,7h1v1h-1z M7,7h1v1h-1z M8,7h1v1h-1z M10,7h1v1h-1z M12,7h1v1h-1z M13,7h1v1h-1z M14,7h1v1h-1z M16,7h1v1h-1z M17,7h1v1h-1z M18,7h1v1h-1z M20,7h1v1h-1z M22,7h1v1h-1z M24,7h1v1h-1z M28,7h1v1h-1z M29,7h1v1h-1z M33,7h1v1h-1z M34,7h1v1h-1z M35,7h1v1h-1z M36,7h1v1h-1z M41,7h1v1h-1z M42,7h1v1h-1z M45,7h1v1h-1z M46,7h1v1h-1z M49,7h1v1h-1z M50,7h1v1h-1z M51,7h1v1h-1z M52,7h1v1h-1z M53,7h1v1h-1z M56,7h1v1h-1z M57,7h1v1h-1z M58,7h1v1h-1z M60,7h1v1h-1z M61,7h1v1h-1z M62,7h1v1h-1z M66,7h1v1h-1z M67,7h1v1h-1z M70,7h1v1h-1z M71,7h1v1h-1z M73,7h1v1h-1z M74,7h1v1h-1z M75,7h1v1h-1z M76,7h1v1h-1z M78,7h1v1h-1z M79,7h1v1h-1z M80,7h1v1h-1z M82,7h1v1h-1z M85,7h1v1h-1z M88,7h1v1h-1z M90,7h1v1h-1z M91,7h1v1h-1z M92,7h1v1h-1z M95,7h1v1h-1z M96,7h1v1h-1z M100,7h1v1h-1z M102,7h1v1h-1z M104,7h1v1h-1z M105,7h1v1h-1z M106,7h1v1h-1z M108,7h1v1h-1z M4,8h1v1h-1z M6,8h1v1h-1z M7,8h1v1h-1z M8,8h1v1h-1z M10,8h1v1h-1z M18,8h1v1h-1z M19,8h1v1h-1z M21,8h1v1h-1z M25,8h1v1h-1z M26,8h1v1h-1z M27,8h1v1h-1z M28,8h1v1h-1z M29,8h1v1h-1z M30,8h1v1h-1z M31,8h1v1h-1z M32,8h1v1h-1z M34,8h1v1h-1z M35,8h1v1h-1z M37,8h1v1h-1z M38,8h1v1h-1z M41,8h1v1h-1z M42,8h1v1h-1z M43,8h1v1h-1z M46,8h1v1h-1z M47,8h1v1h-1z M49,8h1v1h-1z M52,8h1v1h-1z M53,8h1v1h-1z M54,8h1v1h-1z M55,8h1v1h-1z M56,8h1v1h-1z M57,8h1v1h-1z M64,8h1v1h-1z M65,8h1v1h-1z M66,8h1v1h-1z M69,8h1v1h-1z M70,8h1v1h-1z M74,8h1v1h-1z M76,8h1v1h-1z M77,8h1v1h-1z M78,8h1v1h-1z M79,8h1v1h-1z M80,8h1v1h-1z M81,8h1v1h-1z M82,8h1v1h-1z M86,8h1v1h-1z M88,8h1v1h-1z M89,8h1v1h-1z M91,8h1v1h-1z M95,8h1v1h-1z M97,8h1v1h-1z M99,8h1v1h-1z M100,8h1v1h-1z M102,8h1v1h-1z M104,8h1v1h-1z M105,8h1v1h-1z M106,8h1v1h-1z M108,8h1v1h-1z M4,9h1v1h-1z M10,9h1v1h-1z M12,9h1v1h-1z M13,9h1v1h-1z M15,9h1v1h-1z M17,9h1v1h-1z M19,9h1v1h-1z M20,9h1v1h-1z M22,9h1v1h-1z M24,9h1v1h-1z M28,9h1v1h-1z M32,9h1v1h-1z M34,9h1v1h-1z M35,9h1v1h-1z M36,9h1v1h-1z M40,9h1v1h-1z M41,9h1v1h-1z M43,9h1v1h-1z M45,9h1v1h-1z M46,9h1v1h-1z M51,9h1v1h-1z M52,9h1v1h-1z M56,9h1v1h-1z M58,9h1v1h-1z M60,9h1v1h-1z M61,9h1v1h-1z M65,9h1v1h-1z M69,9h1v1h-1z M70,9h1v1h-1z M71,9h1v1h-1z M72,9h1v1h-1z M75,9h1v1h-1z M76,9h1v1h-1z M80,9h1v1h-1z M81,9h1v1h-1z M82,9h1v1h-1z M83,9h1v1h-1z M84,9h1v1h-1z M87,9h1v1h-1z M88,9h1v1h-1z M89,9h1v1h-1z M92,9h1v1h-1z M93,9h1v1h-1z M94,9h1v1h-1z M95,9h1v1h-1z M96,9h1v1h-1z M99,9h1v1h-1z M102,9h1v1h-1z M108,9h1v1h-1z M4,10h1v1h-1z M5,10h1v1h-1z M6,10h1v1h-1z M7,10h1v1h-1z M8,10h1v1h-1z M9,10h1v1h-1z M10,10h1v1h-1z M12,10h1v1h-1z M14,10h1v1h-1z M16,10h1v1h-1z M18,10h1v1h-1z M20,10h1v1h-1z M22,10h1v1h-1z M24,10h1v1h-1z M26,10h1v1h-1z M28,10h1v1h-1z M30,10h1v1h-1z M32,10h1v1h-1z M34,10h1v1h-1z M36,10h1v1h-1z M38,10h1v1h-1z M40,10h1v1h-1z M42,10h1v1h-1z M44,10h1v1h-1z M46,10h1v1h-1z M48,10h1v1h-1z M50,10h1v1h-1z M52,10h1v1h-1z M54,10h1v1h-1z M56,10h1v1h-1z M58,10h1v1h-1z M60,10h1v1h-1z M62,10h1v1h-1z M64,10h1v1h-1z M66,10h1v1h-1z M68,10h1v1h-1z M70,10h1v1h-1z M72,10h1v1h-1z M74,10h1v1h-1z M76,10h1v1h-1z M78,10h1v1h-1z M80,10h1v1h-1z M82,10h1v1h-1z M84,10h1v1h-1z M86,10h1v1h-1z M88,10h1v1h-1z M90,10h1v1h-1z M92,10h1v1h-1z M94,10h1v1h-1z M96,10h1v1h-1z M98,10h1v1h-1z M100,10h1v1h-1z M102,10h1v1h-1z M103,10h1v1h-1z M104,10h1v1h-1z M105,10h1v1h-1z M106,10h1v1h-1z M107,10h1v1h-1z M108,10h1v1h-1z M19,11h1v1h-1z M23,11h1v1h-1z M24,11h1v1h-1z M25,11h1v1h-1z M28,11h1v1h-1z M32,11h1v1h-1z M33,11h1v1h-1z M35,11h1v1h-1z M38,11h1v1h-1z M39,11h1v1h-1z M40,11h1v1h-1z M45,11h1v1h-1z M46,11h1v1h-1z M47,11h1v1h-1z M49,11h1v1h-1z M50,11h1v1h-1z M52,11h1v1h-1z M56,11h1v1h-1z M57,11h1v1h-1z M59,11h1v1h-1z M61,11h1v1h-1z M62,11h1v1h-1z M63,11h1v1h-1z M64,11h1v1h-1z M65,11h1v1h-1z M66,11h1v1h-1z M70,11h1v1h-1z M71,11h1v1h-1z M73,11h1v1h-1z M76,11h1v1h-1z M80,11h1v1h-1z M87,11h1v1h-1z M88,11h1v1h-1z M89,11h1v1h-1z M94,11h1v1h-1z M95,11h1v1h-1z M97,11h1v1h-1z M98,11h1v1h-1z M4,12h1v1h-1z M5,12h1v1h-1z M6,12h1v1h-1z M7,12h1v1h-1z M8,12h1v1h-1z M10,12h1v1h-1z M11,12h1v1h-1z M12,12h1v1h-1z M13,12h1v1h-1z M15,12h1v1h-1z M17,12h1v1h-1z M18,12h1v1h-1z M19,12h1v1h-1z M22,12h1v1h-1z M24,12h1v1h-1z M25,12h1v1h-1z M26,12h1v1h-1z M28,12h1v1h-1z M29,12h1v1h-1z M30,12h1v1h-1z M31,12h1v1h-1z M32,12h1v1h-1z M34,12h1v1h-1z M37,12h1v1h-1z M39,12h1v1h-1z M40,12h1v1h-1z M42,12h1v1h-1z M44,12h1v1h-1z M48,12h1v1h-1z M49,12h1v1h-1z M51,12h1v1h-1z M52,12h1v1h-1z M53,12h1v1h-1z M54,12h1v1h-1z M55,12h1v1h-1z M56,12h1v1h-1z M61,12h1v1h-1z M64,12h1v1h-1z M65,12h1v1h-1z M68,12h1v1h-1z M70,12h1v1h-1z M73,12h1v1h-1z M75,12h1v1h-1z M76,12h1v1h-1z M77,12h1v1h-1z M78,12h1v1h-1z M79,12h1v1h-1z M80,12h1v1h-1z M81,12h1v1h-1z M82,12h1v1h-1z M83,12h1v1h-1z M84,12h1v1h-1z M85,12h1v1h-1z M87,12h1v1h-1z M88,12h1v1h-1z M89,12h1v1h-1z M91,12h1v1h-1z M92,12h1v1h-1z M93,12h1v1h-1z M94,12h1v1h-1z M95,12h1v1h-1z M96,12h1v1h-1z M99,12h1v1h-1z M100,12h1v1h-1z M101,12h1v1h-1z M103,12h1v1h-1z M105,12h1v1h-1z M107,12h1v1h-1z M5,13h1v1h-1z M11,13h1v1h-1z M12,13h1v1h-1z M14,13h1v1h-1z M17,13h1v1h-1z M18,13h1v1h-1z M21,13h1v1h-1z M22,13h1v1h-1z M24,13h1v1h-1z M25,13h1v1h-1z M26,13h1v1h-1z M27,13h1v1h-1z M28,13h1v1h-1z M29,13h1v1h-1z M33,13h1v1h-1z M38,13h1v1h-1z M40,13h1v1h-1z M41,13h1v1h-1z M43,13h1v1h-1z M47,13h1v1h-1z M50,13h1v1h-1z M51,13h1v1h-1z M52,13h1v1h-1z M53,13h1v1h-1z M55,13h1v1h-1z M56,13h1v1h-1z M58,13h1v1h-1z M59,13h1v1h-1z M61,13h1v1h-1z M62,13h1v1h-1z M64,13h1v1h-1z M65,13h1v1h-1z M66,13h1v1h-1z M67,13h1v1h-1z M69,13h1v1h-1z M70,13h1v1h-1z M71,13h1v1h-1z M74,13h1v1h-1z M75,13h1v1h-1z M76,13h1v1h-1z M79,13h1v1h-1z M80,13h1v1h-1z M82,13h1v1h-1z M84,13h1v1h-1z M86,13h1v1h-1z M88,13h1v1h-1z M90,13h1v1h-1z M91,13h1v1h-1z M92,13h1v1h-1z M93,13h1v1h-1z M94,13h1v1h-1z M95,13h1v1h-1z M97,13h1v1h-1z M99,13h1v1h-1z M100,13h1v1h-1z M101,13h1v1h-1z M102,13h1v1h-1z M104,13h1v1h-1z M106,13h1v1h-1z M107,13h1v1h-1z M108,13h1v1h-1z M4,14h1v1h-1z M6,14h1v1h-1z M8,14h1v1h-1z M10,14h1v1h-1z M14,14h1v1h-1z M15,14h1v1h-1z M18,14h1v1h-1z M20,14h1v1h-1z M21,14h1v1h-1z M22,14h1v1h-1z M24,14h1v1h-1z M25,14h1v1h-1z M27,14h1v1h-1z M29,14h1v1h-1z M32,14h1v1h-1z M33,14h1v1h-1z M34,14h1v1h-1z M35,14h1v1h-1z M36,14h1v1h-1z M39,14h1v1h-1z M41,14h1v1h-1z M43,14h1v1h-1z M45,14h1v1h-1z M46,14h1v1h-1z M48,14h1v1h-1z M51,14h1v1h-1z M53,14h1v1h-1z M57,14h1v1h-1z M58,14h1v1h-1z M65,14h1v1h-1z M68,14h1v1h-1z M69,14h1v1h-1z M70,14h1v1h-1z M71,14h1v1h-1z M76,14h1v1h-1z M77,14h1v1h-1z M80,14h1v1h-1z M82,14h1v1h-1z M83,14h1v1h-1z M84,14h1v1h-1z M85,14h1v1h-1z M88,14h1v1h-1z M91,14h1v1h-1z M93,14h1v1h-1z M94,14h1v1h-1z M95,14h1v1h-1z M96,14h1v1h-1z M99,14h1v1h-1z M100,14h1v1h-1z M101,14h1v1h-1z M102,14h1v1h-1z M107,14h1v1h-1z M5,15h1v1h-1z M9,15h1v1h-1z M11,15h1v1h-1z M12,15h1v1h-1z M13,15h1v1h-1z M16,15h1v1h-1z M19,15h1v1h-1z M21,15h1v1h-1z M22,15h1v1h-1z M24,15h1v1h-1z M26,15h1v1h-1z M27,15h1v1h-1z M34,15h1v1h-1z M38,15h1v1h-1z M39,15h1v1h-1z M40,15h1v1h-1z M41,15h1v1h-1z M46,15h1v1h-1z M49,15h1v1h-1z M52,15h1v1h-1z M54,15h1v1h-1z M57,15h1v1h-1z M58,15h1v1h-1z M59,15h1v1h-1z M61,15h1v1h-1z M63,15h1v1h-1z M64,15h1v1h-1z M65,15h1v1h-1z M67,15h1v1h-1z M69,15h1v1h-1z M71,15h1v1h-1z M74,15h1v1h-1z M75,15h1v1h-1z M76,15h1v1h-1z M78,15h1v1h-1z M81,15h1v1h-1z M83,15h1v1h-1z M86,15h1v1h-1z M87,15h1v1h-1z M88,15h1v1h-1z M89,15h1v1h-1z M90,15h1v1h-1z M94,15h1v1h-1z M95,15h1v1h-1z M100,15h1v1h-1z M101,15h1v1h-1z M104,15h1v1h-1z M106,15h1v1h-1z M4,16h1v1h-1z M7,16h1v1h-1z M8,16h1v1h-1z M9,16h1v1h-1z M10,16h1v1h-1z M11,16h1v1h-1z M13,16h1v1h-1z M15,16h1v1h-1z M16,16h1v1h-1z M17,16h1v1h-1z M18,16h1v1h-1z M21,16h1v1h-1z M23,16h1v1h-1z M25,16h1v1h-1z M27,16h1v1h-1z M29,16h1v1h-1z M31,16h1v1h-1z M32,16h1v1h-1z M33,16h1v1h-1z M35,16h1v1h-1z M37,16h1v1h-1z M38,16h1v1h-1z M40,16h1v1h-1z M41,16h1v1h-1z M44,16h1v1h-1z M45,16h1v1h-1z M47,16h1v1h-1z M49,16h1v1h-1z M50,16h1v1h-1z M53,16h1v1h-1z M55,16h1v1h-1z M58,16h1v1h-1z M59,16h1v1h-1z M60,16h1v1h-1z M61,16h1v1h-1z M67,16h1v1h-1z M75,16h1v1h-1z M77,16h1v1h-1z M81,16h1v1h-1z M82,16h1v1h-1z M83,16h1v1h-1z M84,16h1v1h-1z M87,16h1v1h-1z M88,16h1v1h-1z M89,16h1v1h-1z M91,16h1v1h-1z M97,16h1v1h-1z M99,16h1v1h-1z M100,16h1v1h-1z M101,16h1v1h-1z M104,16h1v1h-1z M105,16h1v1h-1z M108,16h1v1h-1z M5,17h1v1h-1z M6,17h1v1h-1z M8,17h1v1h-1z M12,17h1v1h-1z M13,17h1v1h-1z M14,17h1v1h-1z M18,17h1v1h-1z M21,17h1v1h-1z M23,17h1v1h-1z M24,17h1v1h-1z M25,17h1v1h-1z M26,17h1v1h-1z M28,17h1v1h-1z M29,17h1v1h-1z M30,17h1v1h-1z M31,17h1v1h-1z M35,17h1v1h-1z M37,17h1v1h-1z M38,17h1v1h-1z M39,17h1v1h-1z M40,17h1v1h-1z M41,17h1v1h-1z M42,17h1v1h-1z M44,17h1v1h-1z M45,17h1v1h-1z M46,17h1v1h-1z M47,17h1v1h-1z M51,17h1v1h-1z M52,17h1v1h-1z M53,17h1v1h-1z M54,17h1v1h-1z M55,17h1v1h-1z M57,17h1v1h-1z M58,17h1v1h-1z M60,17h1v1h-1z M61,17h1v1h-1z M62,17h1v1h-1z M64,17h1v1h-1z M69,17h1v1h-1z M73,17h1v1h-1z M74,17h1v1h-1z M76,17h1v1h-1z M77,17h1v1h-1z M78,17h1v1h-1z M79,17h1v1h-1z M81,17h1v1h-1z M83,17h1v1h-1z M85,17h1v1h-1z M90,17h1v1h-1z M93,17h1v1h-1z M94,17h1v1h-1z M95,17h1v1h-1z M98,17h1v1h-1z M99,17h1v1h-1z M104,17h1v1h-1z M107,17h1v1h-1z M108,17h1v1h-1z M4,18h1v1h-1z M5,18h1v1h-1z M7,18h1v1h-1z M10,18h1v1h-1z M13,18h1v1h-1z M17,18h1v1h-1z M23,18h1v1h-1z M29,18h1v1h-1z M32,18h1v1h-1z M34,18h1v1h-1z M40,18h1v1h-1z M41,18h1v1h-1z M44,18h1v1h-1z M46,18h1v1h-1z M48,18h1v1h-1z M53,18h1v1h-1z M55,18h1v1h-1z M58,18h1v1h-1z M60,18h1v1h-1z M63,18h1v1h-1z M64,18h1v1h-1z M65,18h1v1h-1z M69,18h1v1h-1z M70,18h1v1h-1z M75,18h1v1h-1z M77,18h1v1h-1z M79,18h1v1h-1z M81,18h1v1h-1z M82,18h1v1h-1z M84,18h1v1h-1z M87,18h1v1h-1z M92,18h1v1h-1z M93,18h1v1h-1z M94,18h1v1h-1z M95,18h1v1h-1z M99,18h1v1h-1z M100,18h1v1h-1z M102,18h1v1h-1z M103,18h1v1h-1z M107,18h1v1h-1z M7,19h1v1h-1z M8,19h1v1h-1z M9,19h1v1h-1z M12,19h1v1h-1z M13,19h1v1h-1z M15,19h1v1h-1z M16,19h1v1h-1z M20,19h1v1h-1z M21,19h1v1h-1z M22,19h1v1h-1z M23,19h1v1h-1z M26,19h1v1h-1z M27,19h1v1h-1z M28,19h1v1h-1z M30,19h1v1h-1z M31,19h1v1h-1z M35,19h1v1h-1z M37,19h1v1h-1z M38,19h1v1h-1z M39,19h1v1h-1z M40,19h1v1h-1z M42,19h1v1h-1z M45,19h1v1h-1z M47,19h1v1h-1z M51,19h1v1h-1z M52,19h1v1h-1z M54,19h1v1h-1z M57,19h1v1h-1z M59,19h1v1h-1z M61,19h1v1h-1z M63,19h1v1h-1z M64,19h1v1h-1z M65,19h1v1h-1z M71,19h1v1h-1z M74,19h1v1h-1z M78,19h1v1h-1z M81,19h1v1h-1z M83,19h1v1h-1z M86,19h1v1h-1z M87,19h1v1h-1z M88,19h1v1h-1z M89,19h1v1h-1z M90,19h1v1h-1z M91,19h1v1h-1z M94,19h1v1h-1z M95,19h1v1h-1z M98,19h1v1h-1z M101,19h1v1h-1z M103,19h1v1h-1z M105,19h1v1h-1z M106,19h1v1h-1z M107,19h1v1h-1z M108,19h1v1h-1z M4,20h1v1h-1z M5,20h1v1h-1z M7,20h1v1h-1z M10,20h1v1h-1z M13,20h1v1h-1z M14,20h1v1h-1z M15,20h1v1h-1z M18,20h1v1h-1z M20,20h1v1h-1z M22,20h1v1h-1z M23,20h1v1h-1z M24,20h1v1h-1z M27,20h1v1h-1z M29,20h1v1h-1z M31,20h1v1h-1z M32,20h1v1h-1z M33,20h1v1h-1z M34,20h1v1h-1z M35,20h1v1h-1z M36,20h1v1h-1z M37,20h1v1h-1z M39,20h1v1h-1z M40,20h1v1h-1z M45,20h1v1h-1z M46,20h1v1h-1z M48,20h1v1h-1z M52,20h1v1h-1z M53,20h1v1h-1z M55,20h1v1h-1z M56,20h1v1h-1z M58,20h1v1h-1z M60,20h1v1h-1z M61,20h1v1h-1z M63,20h1v1h-1z M64,20h1v1h-1z M68,20h1v1h-1z M73,20h1v1h-1z M74,20h1v1h-1z M75,20h1v1h-1z M80,20h1v1h-1z M81,20h1v1h-1z M82,20h1v1h-1z M84,20h1v1h-1z M85,20h1v1h-1z M87,20h1v1h-1z M88,20h1v1h-1z M89,20h1v1h-1z M91,20h1v1h-1z M92,20h1v1h-1z M94,20h1v1h-1z M97,20h1v1h-1z M98,20h1v1h-1z M100,20h1v1h-1z M103,20h1v1h-1z M104,20h1v1h-1z M106,20h1v1h-1z M7,21h1v1h-1z M9,21h1v1h-1z M11,21h1v1h-1z M12,21h1v1h-1z M13,21h1v1h-1z M16,21h1v1h-1z M17,21h1v1h-1z M18,21h1v1h-1z M19,21h1v1h-1z M28,21h1v1h-1z M31,21h1v1h-1z M32,21h1v1h-1z M34,21h1v1h-1z M37,21h1v1h-1z M42,21h1v1h-1z M49,21h1v1h-1z M51,21h1v1h-1z M52,21h1v1h-1z M55,21h1v1h-1z M57,21h1v1h-1z M59,21h1v1h-1z M61,21h1v1h-1z M62,21h1v1h-1z M65,21h1v1h-1z M66,21h1v1h-1z M67,21h1v1h-1z M68,21h1v1h-1z M70,21h1v1h-1z M74,21h1v1h-1z M75,21h1v1h-1z M76,21h1v1h-1z M77,21h1v1h-1z M78,21h1v1h-1z M79,21h1v1h-1z M81,21h1v1h-1z M82,21h1v1h-1z M85,21h1v1h-1z M86,21h1v1h-1z M87,21h1v1h-1z M90,21h1v1h-1z M92,21h1v1h-1z M94,21h1v1h-1z M96,21h1v1h-1z M97,21h1v1h-1z M98,21h1v1h-1z M99,21h1v1h-1z M100,21h1v1h-1z M101,21h1v1h-1z M102,21h1v1h-1z M106,21h1v1h-1z M108,21h1v1h-1z M5,22h1v1h-1z M8,22h1v1h-1z M10,22h1v1h-1z M11,22h1v1h-1z M12,22h1v1h-1z M13,22h1v1h-1z M23,22h1v1h-1z M24,22h1v1h-1z M28,22h1v1h-1z M29,22h1v1h-1z M32,22h1v1h-1z M33,22h1v1h-1z M34,22h1v1h-1z M35,22h1v1h-1z M36,22h1v1h-1z M39,22h1v1h-1z M41,22h1v1h-1z M44,22h1v1h-1z M45,22h1v1h-1z M46,22h1v1h-1z M47,22h1v1h-1z M53,22h1v1h-1z M55,22h1v1h-1z M56,22h1v1h-1z M57,22h1v1h-1z M58,22h1v1h-1z M59,22h1v1h-1z M60,22h1v1h-1z M65,22h1v1h-1z M67,22h1v1h-1z M70,22h1v1h-1z M72,22h1v1h-1z M75,22h1v1h-1z M77,22h1v1h-1z M81,22h1v1h-1z M82,22h1v1h-1z M83,22h1v1h-1z M85,22h1v1h-1z M88,22h1v1h-1z M89,22h1v1h-1z M93,22h1v1h-1z M94,22h1v1h-1z M95,22h1v1h-1z M96,22h1v1h-1z M99,22h1v1h-1z M101,22h1v1h-1z M102,22h1v1h-1z M5,23h1v1h-1z M7,23h1v1h-1z M8,23h1v1h-1z M9,23h1v1h-1z M15,23h1v1h-1z M17,23h1v1h-1z M20,23h1v1h-1z M21,23h1v1h-1z M22,23h1v1h-1z M25,23h1v1h-1z M26,23h1v1h-1z M27,23h1v1h-1z M28,23h1v1h-1z M33,23h1v1h-1z M37,23h1v1h-1z M40,23h1v1h-1z M41,23h1v1h-1z M42,23h1v1h-1z M46,23h1v1h-1z M47,23h1v1h-1z M53,23h1v1h-1z M54,23h1v1h-1z M55,23h1v1h-1z M57,23h1v1h-1z M58,23h1v1h-1z M59,23h1v1h-1z M63,23h1v1h-1z M64,23h1v1h-1z M71,23h1v1h-1z M75,23h1v1h-1z M76,23h1v1h-1z M82,23h1v1h-1z M83,23h1v1h-1z M86,23h1v1h-1z M87,23h1v1h-1z M88,23h1v1h-1z M89,23h1v1h-1z M90,23h1v1h-1z M97,23h1v1h-1z M99,23h1v1h-1z M100,23h1v1h-1z M101,23h1v1h-1z M103,23h1v1h-1z M104,23h1v1h-1z M106,23h1v1h-1z M108,23h1v1h-1z M4,24h1v1h-1z M6,24h1v1h-1z M10,24h1v1h-1z M11,24h1v1h-1z M16,24h1v1h-1z M17,24h1v1h-1z M22,24h1v1h-1z M23,24h1v1h-1z M28,24h1v1h-1z M31,24h1v1h-1z M33,24h1v1h-1z M34,24h1v1h-1z M38,24h1v1h-1z M39,24h1v1h-1z M44,24h1v1h-1z M45,24h1v1h-1z M47,24h1v1h-1z M51,24h1v1h-1z M54,24h1v1h-1z M56,24h1v1h-1z M57,24h1v1h-1z M58,24h1v1h-1z M59,24h1v1h-1z M61,24h1v1h-1z M66,24h1v1h-1z M67,24h1v1h-1z M68,24h1v1h-1z M69,24h1v1h-1z M70,24h1v1h-1z M71,24h1v1h-1z M73,24h1v1h-1z M74,24h1v1h-1z M77,24h1v1h-1z M79,24h1v1h-1z M80,24h1v1h-1z M81,24h1v1h-1z M82,24h1v1h-1z M83,24h1v1h-1z M84,24h1v1h-1z M85,24h1v1h-1z M87,24h1v1h-1z M88,24h1v1h-1z M90,24h1v1h-1z M92,24h1v1h-1z M93,24h1v1h-1z M94,24h1v1h-1z M95,24h1v1h-1z M96,24h1v1h-1z M97,24h1v1h-1z M99,24h1v1h-1z M100,24h1v1h-1z M103,24h1v1h-1z M105,24h1v1h-1z M107,24h1v1h-1z M4,25h1v1h-1z M6,25h1v1h-1z M7,25h1v1h-1z M9,25h1v1h-1z M12,25h1v1h-1z M13,25h1v1h-1z M14,25h1v1h-1z M16,25h1v1h-1z M17,25h1v1h-1z M18,25h1v1h-1z M19,25h1v1h-1z M21,25h1v1h-1z M22,25h1v1h-1z M23,25h1v1h-1z M25,25h1v1h-1z M27,25h1v1h-1z M28,25h1v1h-1z M29,25h1v1h-1z M31,25h1v1h-1z M32,25h1v1h-1z M33,25h1v1h-1z M35,25h1v1h-1z M38,25h1v1h-1z M40,25h1v1h-1z M43,25h1v1h-1z M45,25h1v1h-1z M46,25h1v1h-1z M47,25h1v1h-1z M48,25h1v1h-1z M50,25h1v1h-1z M51,25h1v1h-1z M52,25h1v1h-1z M54,25h1v1h-1z M57,25h1v1h-1z M60,25h1v1h-1z M62,25h1v1h-1z M64,25h1v1h-1z M67,25h1v1h-1z M68,25h1v1h-1z M69,25h1v1h-1z M71,25h1v1h-1z M76,25h1v1h-1z M77,25h1v1h-1z M80,25h1v1h-1z M82,25h1v1h-1z M83,25h1v1h-1z M85,25h1v1h-1z M86,25h1v1h-1z M88,25h1v1h-1z M89,25h1v1h-1z M91,25h1v1h-1z M92,25h1v1h-1z M95,25h1v1h-1z M99,25h1v1h-1z M101,25h1v1h-1z M102,25h1v1h-1z M103,25h1v1h-1z M105,25h1v1h-1z M106,25h1v1h-1z M107,25h1v1h-1z M108,25h1v1h-1z M4,26h1v1h-1z M6,26h1v1h-1z M9,26h1v1h-1z M10,26h1v1h-1z M15,26h1v1h-1z M18,26h1v1h-1z M19,26h1v1h-1z M20,26h1v1h-1z M21,26h1v1h-1z M27,26h1v1h-1z M28,26h1v1h-1z M29,26h1v1h-1z M31,26h1v1h-1z M33,26h1v1h-1z M34,26h1v1h-1z M36,26h1v1h-1z M39,26h1v1h-1z M40,26h1v1h-1z M41,26h1v1h-1z M43,26h1v1h-1z M44,26h1v1h-1z M45,26h1v1h-1z M46,26h1v1h-1z M48,26h1v1h-1z M49,26h1v1h-1z M51,26h1v1h-1z M52,26h1v1h-1z M55,26h1v1h-1z M57,26h1v1h-1z M58,26h1v1h-1z M60,26h1v1h-1z M63,26h1v1h-1z M64,26h1v1h-1z M65,26h1v1h-1z M69,26h1v1h-1z M70,26h1v1h-1z M72,26h1v1h-1z M73,26h1v1h-1z M75,26h1v1h-1z M76,26h1v1h-1z M77,26h1v1h-1z M79,26h1v1h-1z M80,26h1v1h-1z M81,26h1v1h-1z M82,26h1v1h-1z M83,26h1v1h-1z M87,26h1v1h-1z M88,26h1v1h-1z M89,26h1v1h-1z M91,26h1v1h-1z M93,26h1v1h-1z M94,26h1v1h-1z M95,26h1v1h-1z M96,26h1v1h-1z M97,26h1v1h-1z M99,26h1v1h-1z M100,26h1v1h-1z M102,26h1v1h-1z M105,26h1v1h-1z M106,26h1v1h-1z M107,26h1v1h-1z M6,27h1v1h-1z M8,27h1v1h-1z M9,27h1v1h-1z M11,27h1v1h-1z M14,27h1v1h-1z M16,27h1v1h-1z M17,27h1v1h-1z M19,27h1v1h-1z M21,27h1v1h-1z M22,27h1v1h-1z M23,27h1v1h-1z M25,27h1v1h-1z M27,27h1v1h-1z M28,27h1v1h-1z M30,27h1v1h-1z M33,27h1v1h-1z M34,27h1v1h-1z M35,27h1v1h-1z M38,27h1v1h-1z M39,27h1v1h-1z M40,27h1v1h-1z M41,27h1v1h-1z M45,27h1v1h-1z M46,27h1v1h-1z M47,27h1v1h-1z M50,27h1v1h-1z M51,27h1v1h-1z M52,27h1v1h-1z M53,27h1v1h-1z M54,27h1v1h-1z M59,27h1v1h-1z M62,27h1v1h-1z M63,27h1v1h-1z M64,27h1v1h-1z M66,27h1v1h-1z M70,27h1v1h-1z M74,27h1v1h-1z M77,27h1v1h-1z M78,27h1v1h-1z M81,27h1v1h-1z M83,27h1v1h-1z M85,27h1v1h-1z M87,27h1v1h-1z M88,27h1v1h-1z M90,27h1v1h-1z M95,27h1v1h-1z M98,27h1v1h-1z M99,27h1v1h-1z M100,27h1v1h-1z M101,27h1v1h-1z M103,27h1v1h-1z M105,27h1v1h-1z M106,27h1v1h-1z M107,27h1v1h-1z M5,28h1v1h-1z M7,28h1v1h-1z M8,28h1v1h-1z M9,28h1v1h-1z M10,28h1v1h-1z M11,28h1v1h-1z M12,28h1v1h-1z M13,28h1v1h-1z M14,28h1v1h-1z M15,28h1v1h-1z M16,28h1v1h-1z M22,28h1v1h-1z M25,28h1v1h-1z M27,28h1v1h-1z M28,28h1v1h-1z M29,28h1v1h-1z M30,28h1v1h-1z M31,28h1v1h-1z M32,28h1v1h-1z M33,28h1v1h-1z M34,28h1v1h-1z M35,28h1v1h-1z M36,28h1v1h-1z M37,28h1v1h-1z M39,28h1v1h-1z M40,28h1v1h-1z M41,28h1v1h-1z M51,28h1v1h-1z M52,28h1v1h-1z M53,28h1v1h-1z M54,28h1v1h-1z M55,28h1v1h-1z M56,28h1v1h-1z M58,28h1v1h-1z M60,28h1v1h-1z M61,28h1v1h-1z M64,28h1v1h-1z M65,28h1v1h-1z M67,28h1v1h-1z M68,28h1v1h-1z M70,28h1v1h-1z M72,28h1v1h-1z M73,28h1v1h-1z M75,28h1v1h-1z M76,28h1v1h-1z M77,28h1v1h-1z M78,28h1v1h-1z M79,28h1v1h-1z M80,28h1v1h-1z M81,28h1v1h-1z M82,28h1v1h-1z M84,28h1v1h-1z M85,28h1v1h-1z M93,28h1v1h-1z M94,28h1v1h-1z M96,28h1v1h-1z M97,28h1v1h-1z M99,28h1v1h-1z M100,28h1v1h-1z M101,28h1v1h-1z M102,28h1v1h-1z M103,28h1v1h-1z M104,28h1v1h-1z M106,28h1v1h-1z M108,28h1v1h-1z M4,29h1v1h-1z M5,29h1v1h-1z M7,29h1v1h-1z M8,29h1v1h-1z M12,29h1v1h-1z M15,29h1v1h-1z M16,29h1v1h-1z M17,29h1v1h-1z M25,29h1v1h-1z M26,29h1v1h-1z M28,29h1v1h-1z M32,29h1v1h-1z M34,29h1v1h-1z M36,29h1v1h-1z M43,29h1v1h-1z M45,29h1v1h-1z M48,29h1v1h-1z M49,29h1v1h-1z M52,29h1v1h-1z M56,29h1v1h-1z M57,29h1v1h-1z M60,29h1v1h-1z M61,29h1v1h-1z M62,29h1v1h-1z M66,29h1v1h-1z M67,29h1v1h-1z M69,29h1v1h-1z M70,29h1v1h-1z M71,29h1v1h-1z M73,29h1v1h-1z M76,29h1v1h-1z M80,29h1v1h-1z M82,29h1v1h-1z M83,29h1v1h-1z M88,29h1v1h-1z M89,29h1v1h-1z M91,29h1v1h-1z M92,29h1v1h-1z M100,29h1v1h-1z M104,29h1v1h-1z M105,29h1v1h-1z M106,29h1v1h-1z M108,29h1v1h-1z M7,30h1v1h-1z M8,30h1v1h-1z M10,30h1v1h-1z M12,30h1v1h-1z M13,30h1v1h-1z M15,30h1v1h-1z M16,30h1v1h-1z M18,30h1v1h-1z M20,30h1v1h-1z M22,30h1v1h-1z M24,30h1v1h-1z M27,30h1v1h-1z M28,30h1v1h-1z M30,30h1v1h-1z M32,30h1v1h-1z M33,30h1v1h-1z M34,30h1v1h-1z M35,30h1v1h-1z M36,30h1v1h-1z M40,30h1v1h-1z M41,30h1v1h-1z M44,30h1v1h-1z M45,30h1v1h-1z M46,30h1v1h-1z M48,30h1v1h-1z M51,30h1v1h-1z M52,30h1v1h-1z M54,30h1v1h-1z M56,30h1v1h-1z M57,30h1v1h-1z M58,30h1v1h-1z M60,30h1v1h-1z M61,30h1v1h-1z M63,30h1v1h-1z M68,30h1v1h-1z M69,30h1v1h-1z M70,30h1v1h-1z M71,30h1v1h-1z M75,30h1v1h-1z M76,30h1v1h-1z M78,30h1v1h-1z M80,30h1v1h-1z M82,30h1v1h-1z M83,30h1v1h-1z M84,30h1v1h-1z M87,30h1v1h-1z M89,30h1v1h-1z M92,30h1v1h-1z M93,30h1v1h-1z M94,30h1v1h-1z M95,30h1v1h-1z M96,30h1v1h-1z M97,30h1v1h-1z M100,30h1v1h-1z M102,30h1v1h-1z M104,30h1v1h-1z M106,30h1v1h-1z M107,30h1v1h-1z M4,31h1v1h-1z M8,31h1v1h-1z M12,31h1v1h-1z M14,31h1v1h-1z M15,31h1v1h-1z M17,31h1v1h-1z M23,31h1v1h-1z M28,31h1v1h-1z M32,31h1v1h-1z M33,31h1v1h-1z M34,31h1v1h-1z M35,31h1v1h-1z M37,31h1v1h-1z M38,31h1v1h-1z M39,31h1v1h-1z M40,31h1v1h-1z M41,31h1v1h-1z M42,31h1v1h-1z M46,31h1v1h-1z M47,31h1v1h-1z M49,31h1v1h-1z M52,31h1v1h-1z M56,31h1v1h-1z M59,31h1v1h-1z M61,31h1v1h-1z M62,31h1v1h-1z M64,31h1v1h-1z M65,31h1v1h-1z M66,31h1v1h-1z M69,31h1v1h-1z M70,31h1v1h-1z M71,31h1v1h-1z M76,31h1v1h-1z M80,31h1v1h-1z M81,31h1v1h-1z M83,31h1v1h-1z M87,31h1v1h-1z M88,31h1v1h-1z M90,31h1v1h-1z M91,31h1v1h-1z M95,31h1v1h-1z M98,31h1v1h-1z M99,31h1v1h-1z M100,31h1v1h-1z M104,31h1v1h-1z M105,31h1v1h-1z M106,31h1v1h-1z M107,31h1v1h-1z M7,32h1v1h-1z M8,32h1v1h-1z M9,32h1v1h-1z M10,32h1v1h-1z M11,32h1v1h-1z M12,32h1v1h-1z M13,32h1v1h-1z M15,32h1v1h-1z M17,32h1v1h-1z M18,32h1v1h-1z M20,32h1v1h-1z M22,32h1v1h-1z M26,32h1v1h-1z M28,32h1v1h-1z M29,32h1v1h-1z M30,32h1v1h-1z M31,32h1v1h-1z M32,32h1v1h-1z M35,32h1v1h-1z M39,32h1v1h-1z M42,32h1v1h-1z M43,32h1v1h-1z M44,32h1v1h-1z M47,32h1v1h-1z M48,32h1v1h-1z M49,32h1v1h-1z M52,32h1v1h-1z M53,32h1v1h-1z M54,32h1v1h-1z M55,32h1v1h-1z M56,32h1v1h-1z M57,32h1v1h-1z M59,32h1v1h-1z M61,32h1v1h-1z M63,32h1v1h-1z M64,32h1v1h-1z M66,32h1v1h-1z M68,32h1v1h-1z M70,32h1v1h-1z M72,32h1v1h-1z M73,32h1v1h-1z M76,32h1v1h-1z M77,32h1v1h-1z M78,32h1v1h-1z M79,32h1v1h-1z M80,32h1v1h-1z M81,32h1v1h-1z M82,32h1v1h-1z M83,32h1v1h-1z M84,32h1v1h-1z M87,32h1v1h-1z M88,32h1v1h-1z M89,32h1v1h-1z M91,32h1v1h-1z M92,32h1v1h-1z M98,32h1v1h-1z M100,32h1v1h-1z M101,32h1v1h-1z M102,32h1v1h-1z M103,32h1v1h-1z M104,32h1v1h-1z M4,33h1v1h-1z M5,33h1v1h-1z M6,33h1v1h-1z M11,33h1v1h-1z M12,33h1v1h-1z M14,33h1v1h-1z M15,33h1v1h-1z M17,33h1v1h-1z M18,33h1v1h-1z M21,33h1v1h-1z M22,33h1v1h-1z M23,33h1v1h-1z M25,33h1v1h-1z M26,33h1v1h-1z M31,33h1v1h-1z M32,33h1v1h-1z M34,33h1v1h-1z M36,33h1v1h-1z M38,33h1v1h-1z M40,33h1v1h-1z M47,33h1v1h-1z M48,33h1v1h-1z M50,33h1v1h-1z M51,33h1v1h-1z M53,33h1v1h-1z M54,33h1v1h-1z M56,33h1v1h-1z M60,33h1v1h-1z M61,33h1v1h-1z M62,33h1v1h-1z M63,33h1v1h-1z M64,33h1v1h-1z M65,33h1v1h-1z M69,33h1v1h-1z M72,33h1v1h-1z M73,33h1v1h-1z M74,33h1v1h-1z M75,33h1v1h-1z M76,33h1v1h-1z M78,33h1v1h-1z M79,33h1v1h-1z M81,33h1v1h-1z M82,33h1v1h-1z M83,33h1v1h-1z M84,33h1v1h-1z M88,33h1v1h-1z M90,33h1v1h-1z M91,33h1v1h-1z M95,33h1v1h-1z M98,33h1v1h-1z M100,33h1v1h-1z M101,33h1v1h-1z M104,33h1v1h-1z M106,33h1v1h-1z M108,33h1v1h-1z M7,34h1v1h-1z M10,34h1v1h-1z M11,34h1v1h-1z M12,34h1v1h-1z M16,34h1v1h-1z M17,34h1v1h-1z M18,34h1v1h-1z M20,34h1v1h-1z M23,34h1v1h-1z M26,34h1v1h-1z M30,34h1v1h-1z M33,34h1v1h-1z M34,34h1v1h-1z M35,34h1v1h-1z M37,34h1v1h-1z M39,34h1v1h-1z M40,34h1v1h-1z M41,34h1v1h-1z M43,34h1v1h-1z M44,34h1v1h-1z M45,34h1v1h-1z M46,34h1v1h-1z M47,34h1v1h-1z M48,34h1v1h-1z M53,34h1v1h-1z M54,34h1v1h-1z M57,34h1v1h-1z M58,34h1v1h-1z M59,34h1v1h-1z M65,34h1v1h-1z M67,34h1v1h-1z M69,34h1v1h-1z M70,34h1v1h-1z M71,34h1v1h-1z M72,34h1v1h-1z M75,34h1v1h-1z M76,34h1v1h-1z M81,34h1v1h-1z M82,34h1v1h-1z M83,34h1v1h-1z M87,34h1v1h-1z M92,34h1v1h-1z M93,34h1v1h-1z M94,34h1v1h-1z M104,34h1v1h-1z M107,34h1v1h-1z M4,35h1v1h-1z M8,35h1v1h-1z M11,35h1v1h-1z M13,35h1v1h-1z M14,35h1v1h-1z M15,35h1v1h-1z M19,35h1v1h-1z M24,35h1v1h-1z M25,35h1v1h-1z M29,35h1v1h-1z M32,35h1v1h-1z M33,35h1v1h-1z M34,35h1v1h-1z M35,35h1v1h-1z M38,35h1v1h-1z M39,35h1v1h-1z M40,35h1v1h-1z M43,35h1v1h-1z M46,35h1v1h-1z M47,35h1v1h-1z M49,35h1v1h-1z M53,35h1v1h-1z M57,35h1v1h-1z M59,35h1v1h-1z M61,35h1v1h-1z M63,35h1v1h-1z M64,35h1v1h-1z M70,35h1v1h-1z M73,35h1v1h-1z M74,35h1v1h-1z M77,35h1v1h-1z M80,35h1v1h-1z M81,35h1v1h-1z M83,35h1v1h-1z M85,35h1v1h-1z M88,35h1v1h-1z M89,35h1v1h-1z M90,35h1v1h-1z M93,35h1v1h-1z M94,35h1v1h-1z M95,35h1v1h-1z M100,35h1v1h-1z M103,35h1v1h-1z M105,35h1v1h-1z M106,35h1v1h-1z M108,35h1v1h-1z M7,36h1v1h-1z M8,36h1v1h-1z M10,36h1v1h-1z M13,36h1v1h-1z M18,36h1v1h-1z M19,36h1v1h-1z M20,36h1v1h-1z M24,36h1v1h-1z M25,36h1v1h-1z M28,36h1v1h-1z M35,36h1v1h-1z M36,36h1v1h-1z M37,36h1v1h-1z M39,36h1v1h-1z M41,36h1v1h-1z M43,36h1v1h-1z M44,36h1v1h-1z M46,36h1v1h-1z M47,36h1v1h-1z M49,36h1v1h-1z M60,36h1v1h-1z M68,36h1v1h-1z M69,36h1v1h-1z M70,36h1v1h-1z M73,36h1v1h-1z M76,36h1v1h-1z M81,36h1v1h-1z M82,36h1v1h-1z M84,36h1v1h-1z M85,36h1v1h-1z M86,36h1v1h-1z M87,36h1v1h-1z M88,36h1v1h-1z M89,36h1v1h-1z M91,36h1v1h-1z M92,36h1v1h-1z M95,36h1v1h-1z M99,36h1v1h-1z M100,36h1v1h-1z M101,36h1v1h-1z M108,36h1v1h-1z M4,37h1v1h-1z M7,37h1v1h-1z M8,37h1v1h-1z M11,37h1v1h-1z M14,37h1v1h-1z M15,37h1v1h-1z M16,37h1v1h-1z M20,37h1v1h-1z M25,37h1v1h-1z M27,37h1v1h-1z M34,37h1v1h-1z M37,37h1v1h-1z M38,37h1v1h-1z M40,37h1v1h-1z M41,37h1v1h-1z M42,37h1v1h-1z M43,37h1v1h-1z M45,37h1v1h-1z M47,37h1v1h-1z M49,37h1v1h-1z M50,37h1v1h-1z M51,37h1v1h-1z M52,37h1v1h-1z M54,37h1v1h-1z M55,37h1v1h-1z M61,37h1v1h-1z M62,37h1v1h-1z M63,37h1v1h-1z M64,37h1v1h-1z M66,37h1v1h-1z M69,37h1v1h-1z M71,37h1v1h-1z M74,37h1v1h-1z M75,37h1v1h-1z M77,37h1v1h-1z M83,37h1v1h-1z M85,37h1v1h-1z M86,37h1v1h-1z M89,37h1v1h-1z M90,37h1v1h-1z M91,37h1v1h-1z M93,37h1v1h-1z M96,37h1v1h-1z M99,37h1v1h-1z M101,37h1v1h-1z M102,37h1v1h-1z M107,37h1v1h-1z M108,37h1v1h-1z M4,38h1v1h-1z M5,38h1v1h-1z M6,38h1v1h-1z M7,38h1v1h-1z M8,38h1v1h-1z M9,38h1v1h-1z M10,38h1v1h-1z M11,38h1v1h-1z M13,38h1v1h-1z M14,38h1v1h-1z M15,38h1v1h-1z M16,38h1v1h-1z M17,38h1v1h-1z M20,38h1v1h-1z M21,38h1v1h-1z M22,38h1v1h-1z M23,38h1v1h-1z M28,38h1v1h-1z M30,38h1v1h-1z M33,38h1v1h-1z M34,38h1v1h-1z M35,38h1v1h-1z M36,38h1v1h-1z M39,38h1v1h-1z M41,38h1v1h-1z M44,38h1v1h-1z M45,38h1v1h-1z M46,38h1v1h-1z M48,38h1v1h-1z M51,38h1v1h-1z M55,38h1v1h-1z M57,38h1v1h-1z M58,38h1v1h-1z M60,38h1v1h-1z M65,38h1v1h-1z M70,38h1v1h-1z M72,38h1v1h-1z M75,38h1v1h-1z M76,38h1v1h-1z M79,38h1v1h-1z M80,38h1v1h-1z M81,38h1v1h-1z M82,38h1v1h-1z M84,38h1v1h-1z M88,38h1v1h-1z M89,38h1v1h-1z M92,38h1v1h-1z M93,38h1v1h-1z M94,38h1v1h-1z M95,38h1v1h-1z M96,38h1v1h-1z M101,38h1v1h-1z M103,38h1v1h-1z M104,38h1v1h-1z M105,38h1v1h-1z M4,39h1v1h-1z M6,39h1v1h-1z M8,39h1v1h-1z M9,39h1v1h-1z M11,39h1v1h-1z M12,39h1v1h-1z M14,39h1v1h-1z M16,39h1v1h-1z M18,39h1v1h-1z M19,39h1v1h-1z M21,39h1v1h-1z M22,39h1v1h-1z M23,39h1v1h-1z M29,39h1v1h-1z M35,39h1v1h-1z M39,39h1v1h-1z M40,39h1v1h-1z M42,39h1v1h-1z M46,39h1v1h-1z M47,39h1v1h-1z M49,39h1v1h-1z M51,39h1v1h-1z M52,39h1v1h-1z M53,39h1v1h-1z M55,39h1v1h-1z M59,39h1v1h-1z M63,39h1v1h-1z M64,39h1v1h-1z M66,39h1v1h-1z M69,39h1v1h-1z M71,39h1v1h-1z M73,39h1v1h-1z M77,39h1v1h-1z M80,39h1v1h-1z M81,39h1v1h-1z M82,39h1v1h-1z M83,39h1v1h-1z M86,39h1v1h-1z M87,39h1v1h-1z M88,39h1v1h-1z M91,39h1v1h-1z M97,39h1v1h-1z M98,39h1v1h-1z M100,39h1v1h-1z M102,39h1v1h-1z M105,39h1v1h-1z M106,39h1v1h-1z M5,40h1v1h-1z M6,40h1v1h-1z M7,40h1v1h-1z M10,40h1v1h-1z M13,40h1v1h-1z M14,40h1v1h-1z M16,40h1v1h-1z M18,40h1v1h-1z M19,40h1v1h-1z M21,40h1v1h-1z M23,40h1v1h-1z M24,40h1v1h-1z M26,40h1v1h-1z M29,40h1v1h-1z M33,40h1v1h-1z M34,40h1v1h-1z M35,40h1v1h-1z M37,40h1v1h-1z M38,40h1v1h-1z M39,40h1v1h-1z M41,40h1v1h-1z M43,40h1v1h-1z M44,40h1v1h-1z M45,40h1v1h-1z M46,40h1v1h-1z M47,40h1v1h-1z M49,40h1v1h-1z M50,40h1v1h-1z M52,40h1v1h-1z M57,40h1v1h-1z M59,40h1v1h-1z M61,40h1v1h-1z M63,40h1v1h-1z M66,40h1v1h-1z M71,40h1v1h-1z M72,40h1v1h-1z M81,40h1v1h-1z M82,40h1v1h-1z M83,40h1v1h-1z M87,40h1v1h-1z M90,40h1v1h-1z M92,40h1v1h-1z M96,40h1v1h-1z M98,40h1v1h-1z M101,40h1v1h-1z M103,40h1v1h-1z M104,40h1v1h-1z M106,40h1v1h-1z M5,41h1v1h-1z M7,41h1v1h-1z M8,41h1v1h-1z M9,41h1v1h-1z M14,41h1v1h-1z M18,41h1v1h-1z M19,41h1v1h-1z M25,41h1v1h-1z M26,41h1v1h-1z M27,41h1v1h-1z M28,41h1v1h-1z M31,41h1v1h-1z M32,41h1v1h-1z M34,41h1v1h-1z M35,41h1v1h-1z M36,41h1v1h-1z M40,41h1v1h-1z M42,41h1v1h-1z M43,41h1v1h-1z M48,41h1v1h-1z M50,41h1v1h-1z M52,41h1v1h-1z M53,41h1v1h-1z M55,41h1v1h-1z M58,41h1v1h-1z M60,41h1v1h-1z M61,41h1v1h-1z M64,41h1v1h-1z M68,41h1v1h-1z M74,41h1v1h-1z M75,41h1v1h-1z M76,41h1v1h-1z M80,41h1v1h-1z M81,41h1v1h-1z M82,41h1v1h-1z M85,41h1v1h-1z M87,41h1v1h-1z M94,41h1v1h-1z M98,41h1v1h-1z M102,41h1v1h-1z M103,41h1v1h-1z M104,41h1v1h-1z M106,41h1v1h-1z M107,41h1v1h-1z M108,41h1v1h-1z M4,42h1v1h-1z M5,42h1v1h-1z M8,42h1v1h-1z M10,42h1v1h-1z M12,42h1v1h-1z M14,42h1v1h-1z M15,42h1v1h-1z M17,42h1v1h-1z M18,42h1v1h-1z M19,42h1v1h-1z M20,42h1v1h-1z M24,42h1v1h-1z M25,42h1v1h-1z M26,42h1v1h-1z M27,42h1v1h-1z M28,42h1v1h-1z M31,42h1v1h-1z M33,42h1v1h-1z M34,42h1v1h-1z M36,42h1v1h-1z M40,42h1v1h-1z M41,42h1v1h-1z M43,42h1v1h-1z M45,42h1v1h-1z M46,42h1v1h-1z M54,42h1v1h-1z M55,42h1v1h-1z M57,42h1v1h-1z M58,42h1v1h-1z M61,42h1v1h-1z M63,42h1v1h-1z M65,42h1v1h-1z M68,42h1v1h-1z M69,42h1v1h-1z M70,42h1v1h-1z M72,42h1v1h-1z M78,42h1v1h-1z M81,42h1v1h-1z M82,42h1v1h-1z M83,42h1v1h-1z M87,42h1v1h-1z M89,42h1v1h-1z M92,42h1v1h-1z M93,42h1v1h-1z M94,42h1v1h-1z M99,42h1v1h-1z M102,42h1v1h-1z M103,42h1v1h-1z M104,42h1v1h-1z M107,42h1v1h-1z M9,43h1v1h-1z M11,43h1v1h-1z M14,43h1v1h-1z M16,43h1v1h-1z M17,43h1v1h-1z M29,43h1v1h-1z M32,43h1v1h-1z M35,43h1v1h-1z M37,43h1v1h-1z M38,43h1v1h-1z M39,43h1v1h-1z M40,43h1v1h-1z M42,43h1v1h-1z M47,43h1v1h-1z M51,43h1v1h-1z M52,43h1v1h-1z M53,43h1v1h-1z M56,43h1v1h-1z M59,43h1v1h-1z M62,43h1v1h-1z M64,43h1v1h-1z M65,43h1v1h-1z M67,43h1v1h-1z M70,43h1v1h-1z M71,43h1v1h-1z M73,43h1v1h-1z M75,43h1v1h-1z M77,43h1v1h-1z M79,43h1v1h-1z M83,43h1v1h-1z M85,43h1v1h-1z M86,43h1v1h-1z M88,43h1v1h-1z M89,43h1v1h-1z M91,43h1v1h-1z M94,43h1v1h-1z M95,43h1v1h-1z M100,43h1v1h-1z M101,43h1v1h-1z M106,43h1v1h-1z M107,43h1v1h-1z M4,44h1v1h-1z M6,44h1v1h-1z M9,44h1v1h-1z M10,44h1v1h-1z M11,44h1v1h-1z M12,44h1v1h-1z M20,44h1v1h-1z M21,44h1v1h-1z M22,44h1v1h-1z M23,44h1v1h-1z M25,44h1v1h-1z M26,44h1v1h-1z M27,44h1v1h-1z M29,44h1v1h-1z M30,44h1v1h-1z M35,44h1v1h-1z M37,44h1v1h-1z M40,44h1v1h-1z M41,44h1v1h-1z M42,44h1v1h-1z M43,44h1v1h-1z M46,44h1v1h-1z M47,44h1v1h-1z M48,44h1v1h-1z M49,44h1v1h-1z M52,44h1v1h-1z M53,44h1v1h-1z M55,44h1v1h-1z M59,44h1v1h-1z M61,44h1v1h-1z M62,44h1v1h-1z M64,44h1v1h-1z M67,44h1v1h-1z M68,44h1v1h-1z M71,44h1v1h-1z M72,44h1v1h-1z M76,44h1v1h-1z M77,44h1v1h-1z M78,44h1v1h-1z M81,44h1v1h-1z M83,44h1v1h-1z M84,44h1v1h-1z M85,44h1v1h-1z M86,44h1v1h-1z M87,44h1v1h-1z M88,44h1v1h-1z M93,44h1v1h-1z M94,44h1v1h-1z M95,44h1v1h-1z M96,44h1v1h-1z M98,44h1v1h-1z M103,44h1v1h-1z M6,45h1v1h-1z M7,45h1v1h-1z M11,45h1v1h-1z M14,45h1v1h-1z M17,45h1v1h-1z M19,45h1v1h-1z M20,45h1v1h-1z M21,45h1v1h-1z M23,45h1v1h-1z M24,45h1v1h-1z M25,45h1v1h-1z M26,45h1v1h-1z M27,45h1v1h-1z M28,45h1v1h-1z M31,45h1v1h-1z M32,45h1v1h-1z M33,45h1v1h-1z M34,45h1v1h-1z M36,45h1v1h-1z M37,45h1v1h-1z M43,45h1v1h-1z M44,45h1v1h-1z M46,45h1v1h-1z M51,45h1v1h-1z M52,45h1v1h-1z M53,45h1v1h-1z M54,45h1v1h-1z M55,45h1v1h-1z M56,45h1v1h-1z M58,45h1v1h-1z M62,45h1v1h-1z M63,45h1v1h-1z M64,45h1v1h-1z M65,45h1v1h-1z M70,45h1v1h-1z M71,45h1v1h-1z M72,45h1v1h-1z M73,45h1v1h-1z M76,45h1v1h-1z M77,45h1v1h-1z M80,45h1v1h-1z M83,45h1v1h-1z M84,45h1v1h-1z M85,45h1v1h-1z M89,45h1v1h-1z M91,45h1v1h-1z M94,45h1v1h-1z M96,45h1v1h-1z M97,45h1v1h-1z M100,45h1v1h-1z M101,45h1v1h-1z M102,45h1v1h-1z M103,45h1v1h-1z M105,45h1v1h-1z M106,45h1v1h-1z M107,45h1v1h-1z M108,45h1v1h-1z M4,46h1v1h-1z M8,46h1v1h-1z M9,46h1v1h-1z M10,46h1v1h-1z M13,46h1v1h-1z M14,46h1v1h-1z M15,46h1v1h-1z M16,46h1v1h-1z M20,46h1v1h-1z M25,46h1v1h-1z M26,46h1v1h-1z M29,46h1v1h-1z M30,46h1v1h-1z M32,46h1v1h-1z M34,46h1v1h-1z M35,46h1v1h-1z M36,46h1v1h-1z M39,46h1v1h-1z M41,46h1v1h-1z M43,46h1v1h-1z M44,46h1v1h-1z M46,46h1v1h-1z M48,46h1v1h-1z M53,46h1v1h-1z M54,46h1v1h-1z M55,46h1v1h-1z M57,46h1v1h-1z M58,46h1v1h-1z M60,46h1v1h-1z M63,46h1v1h-1z M64,46h1v1h-1z M65,46h1v1h-1z M68,46h1v1h-1z M69,46h1v1h-1z M70,46h1v1h-1z M71,46h1v1h-1z M72,46h1v1h-1z M77,46h1v1h-1z M78,46h1v1h-1z M81,46h1v1h-1z M82,46h1v1h-1z M84,46h1v1h-1z M89,46h1v1h-1z M91,46h1v1h-1z M92,46h1v1h-1z M93,46h1v1h-1z M94,46h1v1h-1z M95,46h1v1h-1z M96,46h1v1h-1z M99,46h1v1h-1z M100,46h1v1h-1z M104,46h1v1h-1z M106,46h1v1h-1z M4,47h1v1h-1z M6,47h1v1h-1z M7,47h1v1h-1z M11,47h1v1h-1z M12,47h1v1h-1z M14,47h1v1h-1z M15,47h1v1h-1z M16,47h1v1h-1z M18,47h1v1h-1z M19,47h1v1h-1z M20,47h1v1h-1z M23,47h1v1h-1z M24,47h1v1h-1z M27,47h1v1h-1z M29,47h1v1h-1z M38,47h1v1h-1z M40,47h1v1h-1z M42,47h1v1h-1z M45,47h1v1h-1z M47,47h1v1h-1z M49,47h1v1h-1z M50,47h1v1h-1z M51,47h1v1h-1z M52,47h1v1h-1z M53,47h1v1h-1z M59,47h1v1h-1z M63,47h1v1h-1z M64,47h1v1h-1z M65,47h1v1h-1z M67,47h1v1h-1z M70,47h1v1h-1z M71,47h1v1h-1z M74,47h1v1h-1z M75,47h1v1h-1z M79,47h1v1h-1z M81,47h1v1h-1z M85,47h1v1h-1z M87,47h1v1h-1z M88,47h1v1h-1z M89,47h1v1h-1z M94,47h1v1h-1z M95,47h1v1h-1z M97,47h1v1h-1z M98,47h1v1h-1z M100,47h1v1h-1z M102,47h1v1h-1z M103,47h1v1h-1z M105,47h1v1h-1z M106,47h1v1h-1z M107,47h1v1h-1z M108,47h1v1h-1z M7,48h1v1h-1z M8,48h1v1h-1z M10,48h1v1h-1z M11,48h1v1h-1z M16,48h1v1h-1z M19,48h1v1h-1z M20,48h1v1h-1z M21,48h1v1h-1z M23,48h1v1h-1z M25,48h1v1h-1z M30,48h1v1h-1z M33,48h1v1h-1z M40,48h1v1h-1z M41,48h1v1h-1z M44,48h1v1h-1z M49,48h1v1h-1z M52,48h1v1h-1z M57,48h1v1h-1z M58,48h1v1h-1z M59,48h1v1h-1z M61,48h1v1h-1z M62,48h1v1h-1z M63,48h1v1h-1z M64,48h1v1h-1z M67,48h1v1h-1z M68,48h1v1h-1z M73,48h1v1h-1z M74,48h1v1h-1z M76,48h1v1h-1z M77,48h1v1h-1z M78,48h1v1h-1z M81,48h1v1h-1z M82,48h1v1h-1z M89,48h1v1h-1z M92,48h1v1h-1z M93,48h1v1h-1z M94,48h1v1h-1z M97,48h1v1h-1z M98,48h1v1h-1z M99,48h1v1h-1z M104,48h1v1h-1z M107,48h1v1h-1z M5,49h1v1h-1z M6,49h1v1h-1z M8,49h1v1h-1z M9,49h1v1h-1z M15,49h1v1h-1z M16,49h1v1h-1z M18,49h1v1h-1z M20,49h1v1h-1z M26,49h1v1h-1z M27,49h1v1h-1z M31,49h1v1h-1z M35,49h1v1h-1z M37,49h1v1h-1z M39,49h1v1h-1z M40,49h1v1h-1z M42,49h1v1h-1z M43,49h1v1h-1z M45,49h1v1h-1z M49,49h1v1h-1z M50,49h1v1h-1z M51,49h1v1h-1z M53,49h1v1h-1z M54,49h1v1h-1z M56,49h1v1h-1z M59,49h1v1h-1z M60,49h1v1h-1z M62,49h1v1h-1z M64,49h1v1h-1z M71,49h1v1h-1z M76,49h1v1h-1z M79,49h1v1h-1z M80,49h1v1h-1z M82,49h1v1h-1z M83,49h1v1h-1z M87,49h1v1h-1z M88,49h1v1h-1z M89,49h1v1h-1z M90,49h1v1h-1z M92,49h1v1h-1z M93,49h1v1h-1z M96,49h1v1h-1z M97,49h1v1h-1z M99,49h1v1h-1z M102,49h1v1h-1z M103,49h1v1h-1z M105,49h1v1h-1z M106,49h1v1h-1z M5,50h1v1h-1z M6,50h1v1h-1z M7,50h1v1h-1z M8,50h1v1h-1z M10,50h1v1h-1z M17,50h1v1h-1z M18,50h1v1h-1z M20,50h1v1h-1z M21,50h1v1h-1z M24,50h1v1h-1z M28,50h1v1h-1z M30,50h1v1h-1z M31,50h1v1h-1z M32,50h1v1h-1z M33,50h1v1h-1z M34,50h1v1h-1z M35,50h1v1h-1z M36,50h1v1h-1z M39,50h1v1h-1z M41,50h1v1h-1z M43,50h1v1h-1z M44,50h1v1h-1z M45,50h1v1h-1z M46,50h1v1h-1z M47,50h1v1h-1z M48,50h1v1h-1z M51,50h1v1h-1z M57,50h1v1h-1z M58,50h1v1h-1z M60,50h1v1h-1z M65,50h1v1h-1z M68,50h1v1h-1z M69,50h1v1h-1z M70,50h1v1h-1z M71,50h1v1h-1z M72,50h1v1h-1z M78,50h1v1h-1z M79,50h1v1h-1z M81,50h1v1h-1z M82,50h1v1h-1z M83,50h1v1h-1z M84,50h1v1h-1z M89,50h1v1h-1z M92,50h1v1h-1z M93,50h1v1h-1z M94,50h1v1h-1z M96,50h1v1h-1z M99,50h1v1h-1z M103,50h1v1h-1z M104,50h1v1h-1z M106,50h1v1h-1z M107,50h1v1h-1z M6,51h1v1h-1z M9,51h1v1h-1z M11,51h1v1h-1z M12,51h1v1h-1z M16,51h1v1h-1z M17,51h1v1h-1z M21,51h1v1h-1z M22,51h1v1h-1z M27,51h1v1h-1z M28,51h1v1h-1z M29,51h1v1h-1z M32,51h1v1h-1z M33,51h1v1h-1z M37,51h1v1h-1z M40,51h1v1h-1z M41,51h1v1h-1z M42,51h1v1h-1z M43,51h1v1h-1z M45,51h1v1h-1z M46,51h1v1h-1z M47,51h1v1h-1z M51,51h1v1h-1z M52,51h1v1h-1z M53,51h1v1h-1z M55,51h1v1h-1z M59,51h1v1h-1z M63,51h1v1h-1z M64,51h1v1h-1z M66,51h1v1h-1z M69,51h1v1h-1z M70,51h1v1h-1z M75,51h1v1h-1z M76,51h1v1h-1z M77,51h1v1h-1z M79,51h1v1h-1z M82,51h1v1h-1z M85,51h1v1h-1z M87,51h1v1h-1z M88,51h1v1h-1z M89,51h1v1h-1z M94,51h1v1h-1z M95,51h1v1h-1z M98,51h1v1h-1z M103,51h1v1h-1z M105,51h1v1h-1z M106,51h1v1h-1z M108,51h1v1h-1z M6,52h1v1h-1z M7,52h1v1h-1z M8,52h1v1h-1z M9,52h1v1h-1z M10,52h1v1h-1z M11,52h1v1h-1z M12,52h1v1h-1z M15,52h1v1h-1z M18,52h1v1h-1z M19,52h1v1h-1z M22,52h1v1h-1z M23,52h1v1h-1z M24,52h1v1h-1z M26,52h1v1h-1z M28,52h1v1h-1z M29,52h1v1h-1z M30,52h1v1h-1z M31,52h1v1h-1z M32,52h1v1h-1z M33,52h1v1h-1z M36,52h1v1h-1z M40,52h1v1h-1z M46,52h1v1h-1z M48,52h1v1h-1z M52,52h1v1h-1z M53,52h1v1h-1z M54,52h1v1h-1z M55,52h1v1h-1z M56,52h1v1h-1z M58,52h1v1h-1z M59,52h1v1h-1z M60,52h1v1h-1z M61,52h1v1h-1z M62,52h1v1h-1z M64,52h1v1h-1z M65,52h1v1h-1z M68,52h1v1h-1z M69,52h1v1h-1z M73,52h1v1h-1z M76,52h1v1h-1z M77,52h1v1h-1z M78,52h1v1h-1z M79,52h1v1h-1z M80,52h1v1h-1z M81,52h1v1h-1z M82,52h1v1h-1z M83,52h1v1h-1z M89,52h1v1h-1z M95,52h1v1h-1z M100,52h1v1h-1z M101,52h1v1h-1z M102,52h1v1h-1z M103,52h1v1h-1z M104,52h1v1h-1z M107,52h1v1h-1z M4,53h1v1h-1z M6,53h1v1h-1z M7,53h1v1h-1z M8,53h1v1h-1z M12,53h1v1h-1z M13,53h1v1h-1z M15,53h1v1h-1z M16,53h1v1h-1z M18,53h1v1h-1z M19,53h1v1h-1z M20,53h1v1h-1z M21,53h1v1h-1z M23,53h1v1h-1z M24,53h1v1h-1z M27,53h1v1h-1z M28,53h1v1h-1z M32,53h1v1h-1z M33,53h1v1h-1z M35,53h1v1h-1z M41,53h1v1h-1z M42,53h1v1h-1z M43,53h1v1h-1z M45,53h1v1h-1z M46,53h1v1h-1z M47,53h1v1h-1z M50,53h1v1h-1z M52,53h1v1h-1z M56,53h1v1h-1z M58,53h1v1h-1z M59,53h1v1h-1z M61,53h1v1h-1z M67,53h1v1h-1z M68,53h1v1h-1z M69,53h1v1h-1z M70,53h1v1h-1z M74,53h1v1h-1z M75,53h1v1h-1z M76,53h1v1h-1z M80,53h1v1h-1z M82,53h1v1h-1z M83,53h1v1h-1z M85,53h1v1h-1z M86,53h1v1h-1z M87,53h1v1h-1z M88,53h1v1h-1z M90,53h1v1h-1z M91,53h1v1h-1z M92,53h1v1h-1z M94,53h1v1h-1z M95,53h1v1h-1z M97,53h1v1h-1z M100,53h1v1h-1z M104,53h1v1h-1z M105,53h1v1h-1z M106,53h1v1h-1z M107,53h1v1h-1z M5,54h1v1h-1z M6,54h1v1h-1z M8,54h1v1h-1z M10,54h1v1h-1z M12,54h1v1h-1z M13,54h1v1h-1z M16,54h1v1h-1z M17,54h1v1h-1z M18,54h1v1h-1z M19,54h1v1h-1z M20,54h1v1h-1z M23,54h1v1h-1z M24,54h1v1h-1z M28,54h1v1h-1z M30,54h1v1h-1z M32,54h1v1h-1z M33,54h1v1h-1z M34,54h1v1h-1z M35,54h1v1h-1z M40,54h1v1h-1z M41,54h1v1h-1z M44,54h1v1h-1z M45,54h1v1h-1z M46,54h1v1h-1z M49,54h1v1h-1z M51,54h1v1h-1z M52,54h1v1h-1z M54,54h1v1h-1z M56,54h1v1h-1z M58,54h1v1h-1z M59,54h1v1h-1z M60,54h1v1h-1z M63,54h1v1h-1z M64,54h1v1h-1z M65,54h1v1h-1z M67,54h1v1h-1z M69,54h1v1h-1z M70,54h1v1h-1z M71,54h1v1h-1z M72,54h1v1h-1z M76,54h1v1h-1z M78,54h1v1h-1z M80,54h1v1h-1z M81,54h1v1h-1z M82,54h1v1h-1z M83,54h1v1h-1z M84,54h1v1h-1z M85,54h1v1h-1z M89,54h1v1h-1z M91,54h1v1h-1z M93,54h1v1h-1z M94,54h1v1h-1z M95,54h1v1h-1z M96,54h1v1h-1z M99,54h1v1h-1z M100,54h1v1h-1z M102,54h1v1h-1z M104,54h1v1h-1z M105,54h1v1h-1z M106,54h1v1h-1z M107,54h1v1h-1z M5,55h1v1h-1z M8,55h1v1h-1z M12,55h1v1h-1z M13,55h1v1h-1z M15,55h1v1h-1z M16,55h1v1h-1z M17,55h1v1h-1z M24,55h1v1h-1z M26,55h1v1h-1z M27,55h1v1h-1z M28,55h1v1h-1z M32,55h1v1h-1z M35,55h1v1h-1z M37,55h1v1h-1z M38,55h1v1h-1z M39,55h1v1h-1z M40,55h1v1h-1z M41,55h1v1h-1z M42,55h1v1h-1z M43,55h1v1h-1z M46,55h1v1h-1z M47,55h1v1h-1z M50,55h1v1h-1z M52,55h1v1h-1z M56,55h1v1h-1z M57,55h1v1h-1z M59,55h1v1h-1z M62,55h1v1h-1z M63,55h1v1h-1z M64,55h1v1h-1z M69,55h1v1h-1z M70,55h1v1h-1z M71,55h1v1h-1z M73,55h1v1h-1z M74,55h1v1h-1z M75,55h1v1h-1z M76,55h1v1h-1z M80,55h1v1h-1z M81,55h1v1h-1z M82,55h1v1h-1z M86,55h1v1h-1z M87,55h1v1h-1z M88,55h1v1h-1z M89,55h1v1h-1z M90,55h1v1h-1z M94,55h1v1h-1z M95,55h1v1h-1z M99,55h1v1h-1z M100,55h1v1h-1z M104,55h1v1h-1z M105,55h1v1h-1z M106,55h1v1h-1z M107,55h1v1h-1z M108,55h1v1h-1z M4,56h1v1h-1z M5,56h1v1h-1z M6,56h1v1h-1z M7,56h1v1h-1z M8,56h1v1h-1z M9,56h1v1h-1z M10,56h1v1h-1z M11,56h1v1h-1z M12,56h1v1h-1z M13,56h1v1h-1z M14,56h1v1h-1z M16,56h1v1h-1z M19,56h1v1h-1z M20,56h1v1h-1z M28,56h1v1h-1z M29,56h1v1h-1z M30,56h1v1h-1z M31,56h1v1h-1z M32,56h1v1h-1z M34,56h1v1h-1z M35,56h1v1h-1z M36,56h1v1h-1z M38,56h1v1h-1z M41,56h1v1h-1z M45,56h1v1h-1z M46,56h1v1h-1z M47,56h1v1h-1z M48,56h1v1h-1z M49,56h1v1h-1z M52,56h1v1h-1z M53,56h1v1h-1z M54,56h1v1h-1z M55,56h1v1h-1z M56,56h1v1h-1z M58,56h1v1h-1z M59,56h1v1h-1z M61,56h1v1h-1z M63,56h1v1h-1z M64,56h1v1h-1z M66,56h1v1h-1z M71,56h1v1h-1z M76,56h1v1h-1z M77,56h1v1h-1z M78,56h1v1h-1z M79,56h1v1h-1z M80,56h1v1h-1z M81,56h1v1h-1z M82,56h1v1h-1z M83,56h1v1h-1z M84,56h1v1h-1z M85,56h1v1h-1z M86,56h1v1h-1z M87,56h1v1h-1z M89,56h1v1h-1z M95,56h1v1h-1z M96,56h1v1h-1z M99,56h1v1h-1z M100,56h1v1h-1z M101,56h1v1h-1z M102,56h1v1h-1z M103,56h1v1h-1z M104,56h1v1h-1z M5,57h1v1h-1z M6,57h1v1h-1z M7,57h1v1h-1z M12,57h1v1h-1z M17,57h1v1h-1z M20,57h1v1h-1z M24,57h1v1h-1z M26,57h1v1h-1z M27,57h1v1h-1z M29,57h1v1h-1z M34,57h1v1h-1z M38,57h1v1h-1z M41,57h1v1h-1z M43,57h1v1h-1z M44,57h1v1h-1z M46,57h1v1h-1z M47,57h1v1h-1z M49,57h1v1h-1z M51,57h1v1h-1z M53,57h1v1h-1z M57,57h1v1h-1z M64,57h1v1h-1z M65,57h1v1h-1z M66,57h1v1h-1z M67,57h1v1h-1z M68,57h1v1h-1z M69,57h1v1h-1z M71,57h1v1h-1z M73,57h1v1h-1z M74,57h1v1h-1z M81,57h1v1h-1z M83,57h1v1h-1z M88,57h1v1h-1z M89,57h1v1h-1z M90,57h1v1h-1z M91,57h1v1h-1z M94,57h1v1h-1z M97,57h1v1h-1z M100,57h1v1h-1z M103,57h1v1h-1z M106,57h1v1h-1z M107,57h1v1h-1z M108,57h1v1h-1z M4,58h1v1h-1z M5,58h1v1h-1z M9,58h1v1h-1z M10,58h1v1h-1z M11,58h1v1h-1z M13,58h1v1h-1z M14,58h1v1h-1z M15,58h1v1h-1z M19,58h1v1h-1z M20,58h1v1h-1z M23,58h1v1h-1z M24,58h1v1h-1z M28,58h1v1h-1z M29,58h1v1h-1z M30,58h1v1h-1z M33,58h1v1h-1z M34,58h1v1h-1z M35,58h1v1h-1z M36,58h1v1h-1z M39,58h1v1h-1z M40,58h1v1h-1z M41,58h1v1h-1z M44,58h1v1h-1z M45,58h1v1h-1z M46,58h1v1h-1z M51,58h1v1h-1z M52,58h1v1h-1z M54,58h1v1h-1z M56,58h1v1h-1z M57,58h1v1h-1z M58,58h1v1h-1z M59,58h1v1h-1z M63,58h1v1h-1z M64,58h1v1h-1z M65,58h1v1h-1z M67,58h1v1h-1z M70,58h1v1h-1z M71,58h1v1h-1z M72,58h1v1h-1z M75,58h1v1h-1z M76,58h1v1h-1z M77,58h1v1h-1z M79,58h1v1h-1z M80,58h1v1h-1z M81,58h1v1h-1z M82,58h1v1h-1z M83,58h1v1h-1z M84,58h1v1h-1z M89,58h1v1h-1z M91,58h1v1h-1z M93,58h1v1h-1z M94,58h1v1h-1z M99,58h1v1h-1z M100,58h1v1h-1z M101,58h1v1h-1z M102,58h1v1h-1z M103,58h1v1h-1z M4,59h1v1h-1z M5,59h1v1h-1z M7,59h1v1h-1z M8,59h1v1h-1z M13,59h1v1h-1z M18,59h1v1h-1z M22,59h1v1h-1z M26,59h1v1h-1z M28,59h1v1h-1z M29,59h1v1h-1z M30,59h1v1h-1z M31,59h1v1h-1z M32,59h1v1h-1z M39,59h1v1h-1z M40,59h1v1h-1z M42,59h1v1h-1z M43,59h1v1h-1z M47,59h1v1h-1z M54,59h1v1h-1z M55,59h1v1h-1z M57,59h1v1h-1z M58,59h1v1h-1z M59,59h1v1h-1z M61,59h1v1h-1z M63,59h1v1h-1z M64,59h1v1h-1z M65,59h1v1h-1z M71,59h1v1h-1z M73,59h1v1h-1z M78,59h1v1h-1z M80,59h1v1h-1z M81,59h1v1h-1z M82,59h1v1h-1z M86,59h1v1h-1z M87,59h1v1h-1z M88,59h1v1h-1z M90,59h1v1h-1z M93,59h1v1h-1z M94,59h1v1h-1z M95,59h1v1h-1z M97,59h1v1h-1z M98,59h1v1h-1z M99,59h1v1h-1z M100,59h1v1h-1z M101,59h1v1h-1z M103,59h1v1h-1z M104,59h1v1h-1z M105,59h1v1h-1z M106,59h1v1h-1z M108,59h1v1h-1z M4,60h1v1h-1z M6,60h1v1h-1z M7,60h1v1h-1z M8,60h1v1h-1z M10,60h1v1h-1z M11,60h1v1h-1z M13,60h1v1h-1z M16,60h1v1h-1z M17,60h1v1h-1z M18,60h1v1h-1z M19,60h1v1h-1z M22,60h1v1h-1z M24,60h1v1h-1z M27,60h1v1h-1z M28,60h1v1h-1z M31,60h1v1h-1z M36,60h1v1h-1z M37,60h1v1h-1z M38,60h1v1h-1z M42,60h1v1h-1z M46,60h1v1h-1z M47,60h1v1h-1z M49,60h1v1h-1z M51,60h1v1h-1z M52,60h1v1h-1z M53,60h1v1h-1z M58,60h1v1h-1z M59,60h1v1h-1z M61,60h1v1h-1z M62,60h1v1h-1z M63,60h1v1h-1z M64,60h1v1h-1z M65,60h1v1h-1z M69,60h1v1h-1z M70,60h1v1h-1z M71,60h1v1h-1z M73,60h1v1h-1z M74,60h1v1h-1z M75,60h1v1h-1z M76,60h1v1h-1z M77,60h1v1h-1z M80,60h1v1h-1z M82,60h1v1h-1z M83,60h1v1h-1z M86,60h1v1h-1z M87,60h1v1h-1z M88,60h1v1h-1z M89,60h1v1h-1z M94,60h1v1h-1z M95,60h1v1h-1z M96,60h1v1h-1z M97,60h1v1h-1z M102,60h1v1h-1z M105,60h1v1h-1z M4,61h1v1h-1z M6,61h1v1h-1z M8,61h1v1h-1z M9,61h1v1h-1z M11,61h1v1h-1z M12,61h1v1h-1z M19,61h1v1h-1z M20,61h1v1h-1z M24,61h1v1h-1z M27,61h1v1h-1z M29,61h1v1h-1z M30,61h1v1h-1z M36,61h1v1h-1z M42,61h1v1h-1z M45,61h1v1h-1z M48,61h1v1h-1z M49,61h1v1h-1z M50,61h1v1h-1z M51,61h1v1h-1z M52,61h1v1h-1z M57,61h1v1h-1z M59,61h1v1h-1z M63,61h1v1h-1z M64,61h1v1h-1z M66,61h1v1h-1z M67,61h1v1h-1z M69,61h1v1h-1z M70,61h1v1h-1z M72,61h1v1h-1z M76,61h1v1h-1z M77,61h1v1h-1z M78,61h1v1h-1z M81,61h1v1h-1z M82,61h1v1h-1z M85,61h1v1h-1z M86,61h1v1h-1z M88,61h1v1h-1z M91,61h1v1h-1z M92,61h1v1h-1z M93,61h1v1h-1z M95,61h1v1h-1z M99,61h1v1h-1z M100,61h1v1h-1z M101,61h1v1h-1z M103,61h1v1h-1z M104,61h1v1h-1z M106,61h1v1h-1z M108,61h1v1h-1z M4,62h1v1h-1z M5,62h1v1h-1z M6,62h1v1h-1z M7,62h1v1h-1z M9,62h1v1h-1z M10,62h1v1h-1z M15,62h1v1h-1z M16,62h1v1h-1z M17,62h1v1h-1z M19,62h1v1h-1z M22,62h1v1h-1z M23,62h1v1h-1z M25,62h1v1h-1z M26,62h1v1h-1z M28,62h1v1h-1z M29,62h1v1h-1z M30,62h1v1h-1z M32,62h1v1h-1z M33,62h1v1h-1z M34,62h1v1h-1z M36,62h1v1h-1z M40,62h1v1h-1z M41,62h1v1h-1z M43,62h1v1h-1z M45,62h1v1h-1z M46,62h1v1h-1z M51,62h1v1h-1z M52,62h1v1h-1z M53,62h1v1h-1z M54,62h1v1h-1z M55,62h1v1h-1z M57,62h1v1h-1z M58,62h1v1h-1z M60,62h1v1h-1z M63,62h1v1h-1z M65,62h1v1h-1z M68,62h1v1h-1z M69,62h1v1h-1z M70,62h1v1h-1z M72,62h1v1h-1z M75,62h1v1h-1z M76,62h1v1h-1z M77,62h1v1h-1z M78,62h1v1h-1z M80,62h1v1h-1z M81,62h1v1h-1z M82,62h1v1h-1z M83,62h1v1h-1z M84,62h1v1h-1z M87,62h1v1h-1z M88,62h1v1h-1z M89,62h1v1h-1z M91,62h1v1h-1z M93,62h1v1h-1z M94,62h1v1h-1z M95,62h1v1h-1z M96,62h1v1h-1z M99,62h1v1h-1z M101,62h1v1h-1z M107,62h1v1h-1z M4,63h1v1h-1z M5,63h1v1h-1z M6,63h1v1h-1z M7,63h1v1h-1z M13,63h1v1h-1z M14,63h1v1h-1z M15,63h1v1h-1z M16,63h1v1h-1z M17,63h1v1h-1z M18,63h1v1h-1z M19,63h1v1h-1z M21,63h1v1h-1z M22,63h1v1h-1z M23,63h1v1h-1z M27,63h1v1h-1z M28,63h1v1h-1z M29,63h1v1h-1z M31,63h1v1h-1z M32,63h1v1h-1z M33,63h1v1h-1z M34,63h1v1h-1z M39,63h1v1h-1z M40,63h1v1h-1z M45,63h1v1h-1z M46,63h1v1h-1z M47,63h1v1h-1z M49,63h1v1h-1z M52,63h1v1h-1z M53,63h1v1h-1z M55,63h1v1h-1z M56,63h1v1h-1z M57,63h1v1h-1z M59,63h1v1h-1z M61,63h1v1h-1z M62,63h1v1h-1z M64,63h1v1h-1z M67,63h1v1h-1z M69,63h1v1h-1z M71,63h1v1h-1z M73,63h1v1h-1z M74,63h1v1h-1z M75,63h1v1h-1z M76,63h1v1h-1z M77,63h1v1h-1z M78,63h1v1h-1z M79,63h1v1h-1z M83,63h1v1h-1z M87,63h1v1h-1z M88,63h1v1h-1z M90,63h1v1h-1z M94,63h1v1h-1z M97,63h1v1h-1z M99,63h1v1h-1z M100,63h1v1h-1z M103,63h1v1h-1z M104,63h1v1h-1z M105,63h1v1h-1z M106,63h1v1h-1z M108,63h1v1h-1z M7,64h1v1h-1z M9,64h1v1h-1z M10,64h1v1h-1z M12,64h1v1h-1z M13,64h1v1h-1z M14,64h1v1h-1z M15,64h1v1h-1z M16,64h1v1h-1z M17,64h1v1h-1z M20,64h1v1h-1z M21,64h1v1h-1z M22,64h1v1h-1z M23,64h1v1h-1z M24,64h1v1h-1z M25,64h1v1h-1z M26,64h1v1h-1z M27,64h1v1h-1z M28,64h1v1h-1z M29,64h1v1h-1z M31,64h1v1h-1z M34,64h1v1h-1z M35,64h1v1h-1z M36,64h1v1h-1z M37,64h1v1h-1z M40,64h1v1h-1z M41,64h1v1h-1z M43,64h1v1h-1z M45,64h1v1h-1z M46,64h1v1h-1z M48,64h1v1h-1z M50,64h1v1h-1z M51,64h1v1h-1z M52,64h1v1h-1z M53,64h1v1h-1z M55,64h1v1h-1z M57,64h1v1h-1z M62,64h1v1h-1z M65,64h1v1h-1z M67,64h1v1h-1z M69,64h1v1h-1z M70,64h1v1h-1z M72,64h1v1h-1z M73,64h1v1h-1z M77,64h1v1h-1z M80,64h1v1h-1z M82,64h1v1h-1z M84,64h1v1h-1z M85,64h1v1h-1z M87,64h1v1h-1z M89,64h1v1h-1z M92,64h1v1h-1z M93,64h1v1h-1z M94,64h1v1h-1z M95,64h1v1h-1z M102,64h1v1h-1z M105,64h1v1h-1z M106,64h1v1h-1z M107,64h1v1h-1z M7,65h1v1h-1z M9,65h1v1h-1z M13,65h1v1h-1z M14,65h1v1h-1z M16,65h1v1h-1z M18,65h1v1h-1z M20,65h1v1h-1z M22,65h1v1h-1z M23,65h1v1h-1z M24,65h1v1h-1z M29,65h1v1h-1z M30,65h1v1h-1z M33,65h1v1h-1z M35,65h1v1h-1z M39,65h1v1h-1z M41,65h1v1h-1z M42,65h1v1h-1z M43,65h1v1h-1z M44,65h1v1h-1z M45,65h1v1h-1z M47,65h1v1h-1z M49,65h1v1h-1z M51,65h1v1h-1z M52,65h1v1h-1z M59,65h1v1h-1z M62,65h1v1h-1z M64,65h1v1h-1z M65,65h1v1h-1z M66,65h1v1h-1z M70,65h1v1h-1z M71,65h1v1h-1z M75,65h1v1h-1z M76,65h1v1h-1z M78,65h1v1h-1z M79,65h1v1h-1z M82,65h1v1h-1z M86,65h1v1h-1z M91,65h1v1h-1z M92,65h1v1h-1z M95,65h1v1h-1z M97,65h1v1h-1z M99,65h1v1h-1z M100,65h1v1h-1z M103,65h1v1h-1z M108,65h1v1h-1z M4,66h1v1h-1z M5,66h1v1h-1z M6,66h1v1h-1z M7,66h1v1h-1z M10,66h1v1h-1z M11,66h1v1h-1z M14,66h1v1h-1z M15,66h1v1h-1z M16,66h1v1h-1z M17,66h1v1h-1z M18,66h1v1h-1z M19,66h1v1h-1z M20,66h1v1h-1z M23,66h1v1h-1z M24,66h1v1h-1z M25,66h1v1h-1z M26,66h1v1h-1z M27,66h1v1h-1z M28,66h1v1h-1z M29,66h1v1h-1z M30,66h1v1h-1z M31,66h1v1h-1z M33,66h1v1h-1z M34,66h1v1h-1z M35,66h1v1h-1z M36,66h1v1h-1z M37,66h1v1h-1z M39,66h1v1h-1z M40,66h1v1h-1z M46,66h1v1h-1z M48,66h1v1h-1z M49,66h1v1h-1z M51,66h1v1h-1z M52,66h1v1h-1z M55,66h1v1h-1z M57,66h1v1h-1z M58,66h1v1h-1z M59,66h1v1h-1z M63,66h1v1h-1z M67,66h1v1h-1z M69,66h1v1h-1z M70,66h1v1h-1z M71,66h1v1h-1z M75,66h1v1h-1z M76,66h1v1h-1z M78,66h1v1h-1z M80,66h1v1h-1z M81,66h1v1h-1z M82,66h1v1h-1z M84,66h1v1h-1z M87,66h1v1h-1z M88,66h1v1h-1z M92,66h1v1h-1z M93,66h1v1h-1z M94,66h1v1h-1z M95,66h1v1h-1z M97,66h1v1h-1z M102,66h1v1h-1z M103,66h1v1h-1z M104,66h1v1h-1z M106,66h1v1h-1z M107,66h1v1h-1z M6,67h1v1h-1z M7,67h1v1h-1z M8,67h1v1h-1z M11,67h1v1h-1z M13,67h1v1h-1z M14,67h1v1h-1z M17,67h1v1h-1z M18,67h1v1h-1z M19,67h1v1h-1z M20,67h1v1h-1z M22,67h1v1h-1z M23,67h1v1h-1z M27,67h1v1h-1z M28,67h1v1h-1z M29,67h1v1h-1z M30,67h1v1h-1z M32,67h1v1h-1z M33,67h1v1h-1z M38,67h1v1h-1z M39,67h1v1h-1z M40,67h1v1h-1z M42,67h1v1h-1z M45,67h1v1h-1z M47,67h1v1h-1z M50,67h1v1h-1z M52,67h1v1h-1z M54,67h1v1h-1z M56,67h1v1h-1z M57,67h1v1h-1z M59,67h1v1h-1z M61,67h1v1h-1z M62,67h1v1h-1z M63,67h1v1h-1z M64,67h1v1h-1z M65,67h1v1h-1z M66,67h1v1h-1z M69,67h1v1h-1z M70,67h1v1h-1z M71,67h1v1h-1z M75,67h1v1h-1z M78,67h1v1h-1z M81,67h1v1h-1z M87,67h1v1h-1z M88,67h1v1h-1z M90,67h1v1h-1z M91,67h1v1h-1z M94,67h1v1h-1z M95,67h1v1h-1z M98,67h1v1h-1z M102,67h1v1h-1z M103,67h1v1h-1z M104,67h1v1h-1z M106,67h1v1h-1z M107,67h1v1h-1z M4,68h1v1h-1z M5,68h1v1h-1z M6,68h1v1h-1z M7,68h1v1h-1z M8,68h1v1h-1z M9,68h1v1h-1z M10,68h1v1h-1z M13,68h1v1h-1z M14,68h1v1h-1z M15,68h1v1h-1z M16,68h1v1h-1z M17,68h1v1h-1z M18,68h1v1h-1z M19,68h1v1h-1z M21,68h1v1h-1z M22,68h1v1h-1z M23,68h1v1h-1z M24,68h1v1h-1z M28,68h1v1h-1z M29,68h1v1h-1z M33,68h1v1h-1z M34,68h1v1h-1z M37,68h1v1h-1z M42,68h1v1h-1z M44,68h1v1h-1z M46,68h1v1h-1z M48,68h1v1h-1z M50,68h1v1h-1z M52,68h1v1h-1z M53,68h1v1h-1z M56,68h1v1h-1z M58,68h1v1h-1z M59,68h1v1h-1z M63,68h1v1h-1z M64,68h1v1h-1z M65,68h1v1h-1z M66,68h1v1h-1z M68,68h1v1h-1z M69,68h1v1h-1z M72,68h1v1h-1z M73,68h1v1h-1z M74,68h1v1h-1z M77,68h1v1h-1z M79,68h1v1h-1z M80,68h1v1h-1z M84,68h1v1h-1z M85,68h1v1h-1z M87,68h1v1h-1z M88,68h1v1h-1z M91,68h1v1h-1z M93,68h1v1h-1z M94,68h1v1h-1z M96,68h1v1h-1z M97,68h1v1h-1z M99,68h1v1h-1z M100,68h1v1h-1z M105,68h1v1h-1z M107,68h1v1h-1z M5,69h1v1h-1z M6,69h1v1h-1z M7,69h1v1h-1z M8,69h1v1h-1z M9,69h1v1h-1z M15,69h1v1h-1z M18,69h1v1h-1z M20,69h1v1h-1z M21,69h1v1h-1z M22,69h1v1h-1z M25,69h1v1h-1z M26,69h1v1h-1z M27,69h1v1h-1z M30,69h1v1h-1z M34,69h1v1h-1z M36,69h1v1h-1z M40,69h1v1h-1z M42,69h1v1h-1z M45,69h1v1h-1z M46,69h1v1h-1z M49,69h1v1h-1z M50,69h1v1h-1z M52,69h1v1h-1z M53,69h1v1h-1z M54,69h1v1h-1z M55,69h1v1h-1z M62,69h1v1h-1z M63,69h1v1h-1z M64,69h1v1h-1z M68,69h1v1h-1z M69,69h1v1h-1z M70,69h1v1h-1z M71,69h1v1h-1z M72,69h1v1h-1z M73,69h1v1h-1z M74,69h1v1h-1z M76,69h1v1h-1z M77,69h1v1h-1z M81,69h1v1h-1z M82,69h1v1h-1z M83,69h1v1h-1z M91,69h1v1h-1z M93,69h1v1h-1z M95,69h1v1h-1z M99,69h1v1h-1z M100,69h1v1h-1z M101,69h1v1h-1z M103,69h1v1h-1z M105,69h1v1h-1z M108,69h1v1h-1z M4,70h1v1h-1z M5,70h1v1h-1z M8,70h1v1h-1z M10,70h1v1h-1z M12,70h1v1h-1z M14,70h1v1h-1z M15,70h1v1h-1z M16,70h1v1h-1z M18,70h1v1h-1z M19,70h1v1h-1z M20,70h1v1h-1z M24,70h1v1h-1z M25,70h1v1h-1z M26,70h1v1h-1z M27,70h1v1h-1z M28,70h1v1h-1z M31,70h1v1h-1z M32,70h1v1h-1z M33,70h1v1h-1z M34,70h1v1h-1z M35,70h1v1h-1z M36,70h1v1h-1z M39,70h1v1h-1z M41,70h1v1h-1z M45,70h1v1h-1z M46,70h1v1h-1z M48,70h1v1h-1z M51,70h1v1h-1z M52,70h1v1h-1z M53,70h1v1h-1z M55,70h1v1h-1z M57,70h1v1h-1z M58,70h1v1h-1z M59,70h1v1h-1z M60,70h1v1h-1z M61,70h1v1h-1z M65,70h1v1h-1z M67,70h1v1h-1z M69,70h1v1h-1z M70,70h1v1h-1z M71,70h1v1h-1z M72,70h1v1h-1z M75,70h1v1h-1z M76,70h1v1h-1z M77,70h1v1h-1z M80,70h1v1h-1z M81,70h1v1h-1z M82,70h1v1h-1z M83,70h1v1h-1z M84,70h1v1h-1z M87,70h1v1h-1z M89,70h1v1h-1z M91,70h1v1h-1z M93,70h1v1h-1z M94,70h1v1h-1z M95,70h1v1h-1z M96,70h1v1h-1z M99,70h1v1h-1z M100,70h1v1h-1z M101,70h1v1h-1z M102,70h1v1h-1z M105,70h1v1h-1z M106,70h1v1h-1z M107,70h1v1h-1z M108,70h1v1h-1z M5,71h1v1h-1z M7,71h1v1h-1z M8,71h1v1h-1z M9,71h1v1h-1z M16,71h1v1h-1z M17,71h1v1h-1z M21,71h1v1h-1z M23,71h1v1h-1z M24,71h1v1h-1z M26,71h1v1h-1z M27,71h1v1h-1z M30,71h1v1h-1z M31,71h1v1h-1z M33,71h1v1h-1z M34,71h1v1h-1z M35,71h1v1h-1z M37,71h1v1h-1z M39,71h1v1h-1z M40,71h1v1h-1z M41,71h1v1h-1z M45,71h1v1h-1z M47,71h1v1h-1z M49,71h1v1h-1z M50,71h1v1h-1z M52,71h1v1h-1z M53,71h1v1h-1z M54,71h1v1h-1z M55,71h1v1h-1z M62,71h1v1h-1z M63,71h1v1h-1z M64,71h1v1h-1z M65,71h1v1h-1z M75,71h1v1h-1z M76,71h1v1h-1z M77,71h1v1h-1z M80,71h1v1h-1z M82,71h1v1h-1z M83,71h1v1h-1z M85,71h1v1h-1z M88,71h1v1h-1z M89,71h1v1h-1z M90,71h1v1h-1z M94,71h1v1h-1z M95,71h1v1h-1z M97,71h1v1h-1z M101,71h1v1h-1z M103,71h1v1h-1z M104,71h1v1h-1z M105,71h1v1h-1z M106,71h1v1h-1z M107,71h1v1h-1z M108,71h1v1h-1z M7,72h1v1h-1z M9,72h1v1h-1z M10,72h1v1h-1z M13,72h1v1h-1z M14,72h1v1h-1z M20,72h1v1h-1z M21,72h1v1h-1z M24,72h1v1h-1z M25,72h1v1h-1z M29,72h1v1h-1z M31,72h1v1h-1z M32,72h1v1h-1z M34,72h1v1h-1z M36,72h1v1h-1z M37,72h1v1h-1z M40,72h1v1h-1z M41,72h1v1h-1z M43,72h1v1h-1z M44,72h1v1h-1z M48,72h1v1h-1z M50,72h1v1h-1z M51,72h1v1h-1z M52,72h1v1h-1z M55,72h1v1h-1z M58,72h1v1h-1z M59,72h1v1h-1z M60,72h1v1h-1z M61,72h1v1h-1z M62,72h1v1h-1z M65,72h1v1h-1z M66,72h1v1h-1z M67,72h1v1h-1z M68,72h1v1h-1z M70,72h1v1h-1z M71,72h1v1h-1z M74,72h1v1h-1z M75,72h1v1h-1z M76,72h1v1h-1z M77,72h1v1h-1z M79,72h1v1h-1z M80,72h1v1h-1z M82,72h1v1h-1z M85,72h1v1h-1z M88,72h1v1h-1z M89,72h1v1h-1z M91,72h1v1h-1z M92,72h1v1h-1z M97,72h1v1h-1z M99,72h1v1h-1z M100,72h1v1h-1z M101,72h1v1h-1z M102,72h1v1h-1z M105,72h1v1h-1z M4,73h1v1h-1z M5,73h1v1h-1z M6,73h1v1h-1z M8,73h1v1h-1z M9,73h1v1h-1z M12,73h1v1h-1z M13,73h1v1h-1z M14,73h1v1h-1z M17,73h1v1h-1z M20,73h1v1h-1z M24,73h1v1h-1z M27,73h1v1h-1z M33,73h1v1h-1z M34,73h1v1h-1z M35,73h1v1h-1z M36,73h1v1h-1z M38,73h1v1h-1z M42,73h1v1h-1z M46,73h1v1h-1z M47,73h1v1h-1z M48,73h1v1h-1z M50,73h1v1h-1z M53,73h1v1h-1z M54,73h1v1h-1z M63,73h1v1h-1z M64,73h1v1h-1z M65,73h1v1h-1z M71,73h1v1h-1z M73,73h1v1h-1z M82,73h1v1h-1z M83,73h1v1h-1z M85,73h1v1h-1z M87,73h1v1h-1z M88,73h1v1h-1z M94,73h1v1h-1z M95,73h1v1h-1z M97,73h1v1h-1z M98,73h1v1h-1z M99,73h1v1h-1z M100,73h1v1h-1z M101,73h1v1h-1z M103,73h1v1h-1z M104,73h1v1h-1z M105,73h1v1h-1z M106,73h1v1h-1z M107,73h1v1h-1z M108,73h1v1h-1z M5,74h1v1h-1z M6,74h1v1h-1z M7,74h1v1h-1z M9,74h1v1h-1z M10,74h1v1h-1z M12,74h1v1h-1z M15,74h1v1h-1z M16,74h1v1h-1z M19,74h1v1h-1z M21,74h1v1h-1z M23,74h1v1h-1z M27,74h1v1h-1z M28,74h1v1h-1z M30,74h1v1h-1z M31,74h1v1h-1z M33,74h1v1h-1z M34,74h1v1h-1z M37,74h1v1h-1z M40,74h1v1h-1z M41,74h1v1h-1z M43,74h1v1h-1z M44,74h1v1h-1z M45,74h1v1h-1z M46,74h1v1h-1z M47,74h1v1h-1z M48,74h1v1h-1z M51,74h1v1h-1z M52,74h1v1h-1z M53,74h1v1h-1z M54,74h1v1h-1z M57,74h1v1h-1z M58,74h1v1h-1z M63,74h1v1h-1z M64,74h1v1h-1z M65,74h1v1h-1z M67,74h1v1h-1z M69,74h1v1h-1z M70,74h1v1h-1z M72,74h1v1h-1z M75,74h1v1h-1z M76,74h1v1h-1z M77,74h1v1h-1z M80,74h1v1h-1z M81,74h1v1h-1z M82,74h1v1h-1z M83,74h1v1h-1z M89,74h1v1h-1z M92,74h1v1h-1z M93,74h1v1h-1z M94,74h1v1h-1z M95,74h1v1h-1z M96,74h1v1h-1z M97,74h1v1h-1z M99,74h1v1h-1z M101,74h1v1h-1z M102,74h1v1h-1z M105,74h1v1h-1z M107,74h1v1h-1z M4,75h1v1h-1z M5,75h1v1h-1z M6,75h1v1h-1z M7,75h1v1h-1z M8,75h1v1h-1z M12,75h1v1h-1z M15,75h1v1h-1z M16,75h1v1h-1z M17,75h1v1h-1z M18,75h1v1h-1z M20,75h1v1h-1z M21,75h1v1h-1z M23,75h1v1h-1z M27,75h1v1h-1z M28,75h1v1h-1z M29,75h1v1h-1z M34,75h1v1h-1z M35,75h1v1h-1z M38,75h1v1h-1z M39,75h1v1h-1z M40,75h1v1h-1z M41,75h1v1h-1z M47,75h1v1h-1z M56,75h1v1h-1z M59,75h1v1h-1z M61,75h1v1h-1z M62,75h1v1h-1z M63,75h1v1h-1z M64,75h1v1h-1z M66,75h1v1h-1z M71,75h1v1h-1z M73,75h1v1h-1z M76,75h1v1h-1z M77,75h1v1h-1z M78,75h1v1h-1z M79,75h1v1h-1z M80,75h1v1h-1z M82,75h1v1h-1z M83,75h1v1h-1z M85,75h1v1h-1z M86,75h1v1h-1z M87,75h1v1h-1z M88,75h1v1h-1z M90,75h1v1h-1z M91,75h1v1h-1z M97,75h1v1h-1z M98,75h1v1h-1z M99,75h1v1h-1z M100,75h1v1h-1z M105,75h1v1h-1z M106,75h1v1h-1z M107,75h1v1h-1z M108,75h1v1h-1z M4,76h1v1h-1z M5,76h1v1h-1z M6,76h1v1h-1z M7,76h1v1h-1z M8,76h1v1h-1z M9,76h1v1h-1z M10,76h1v1h-1z M11,76h1v1h-1z M12,76h1v1h-1z M14,76h1v1h-1z M15,76h1v1h-1z M16,76h1v1h-1z M19,76h1v1h-1z M20,76h1v1h-1z M21,76h1v1h-1z M23,76h1v1h-1z M24,76h1v1h-1z M25,76h1v1h-1z M26,76h1v1h-1z M28,76h1v1h-1z M29,76h1v1h-1z M30,76h1v1h-1z M31,76h1v1h-1z M32,76h1v1h-1z M33,76h1v1h-1z M35,76h1v1h-1z M37,76h1v1h-1z M38,76h1v1h-1z M42,76h1v1h-1z M43,76h1v1h-1z M46,76h1v1h-1z M47,76h1v1h-1z M52,76h1v1h-1z M53,76h1v1h-1z M54,76h1v1h-1z M55,76h1v1h-1z M56,76h1v1h-1z M57,76h1v1h-1z M59,76h1v1h-1z M60,76h1v1h-1z M63,76h1v1h-1z M64,76h1v1h-1z M65,76h1v1h-1z M67,76h1v1h-1z M68,76h1v1h-1z M70,76h1v1h-1z M71,76h1v1h-1z M76,76h1v1h-1z M77,76h1v1h-1z M78,76h1v1h-1z M79,76h1v1h-1z M80,76h1v1h-1z M83,76h1v1h-1z M85,76h1v1h-1z M90,76h1v1h-1z M91,76h1v1h-1z M93,76h1v1h-1z M94,76h1v1h-1z M96,76h1v1h-1z M97,76h1v1h-1z M98,76h1v1h-1z M100,76h1v1h-1z M101,76h1v1h-1z M102,76h1v1h-1z M103,76h1v1h-1z M104,76h1v1h-1z M106,76h1v1h-1z M107,76h1v1h-1z M4,77h1v1h-1z M7,77h1v1h-1z M8,77h1v1h-1z M12,77h1v1h-1z M14,77h1v1h-1z M17,77h1v1h-1z M19,77h1v1h-1z M20,77h1v1h-1z M21,77h1v1h-1z M22,77h1v1h-1z M24,77h1v1h-1z M28,77h1v1h-1z M32,77h1v1h-1z M35,77h1v1h-1z M37,77h1v1h-1z M39,77h1v1h-1z M40,77h1v1h-1z M41,77h1v1h-1z M50,77h1v1h-1z M52,77h1v1h-1z M56,77h1v1h-1z M58,77h1v1h-1z M60,77h1v1h-1z M62,77h1v1h-1z M65,77h1v1h-1z M67,77h1v1h-1z M68,77h1v1h-1z M69,77h1v1h-1z M70,77h1v1h-1z M72,77h1v1h-1z M76,77h1v1h-1z M80,77h1v1h-1z M82,77h1v1h-1z M84,77h1v1h-1z M87,77h1v1h-1z M88,77h1v1h-1z M94,77h1v1h-1z M96,77h1v1h-1z M97,77h1v1h-1z M98,77h1v1h-1z M100,77h1v1h-1z M104,77h1v1h-1z M105,77h1v1h-1z M107,77h1v1h-1z M7,78h1v1h-1z M8,78h1v1h-1z M10,78h1v1h-1z M12,78h1v1h-1z M15,78h1v1h-1z M16,78h1v1h-1z M17,78h1v1h-1z M18,78h1v1h-1z M19,78h1v1h-1z M21,78h1v1h-1z M23,78h1v1h-1z M25,78h1v1h-1z M28,78h1v1h-1z M30,78h1v1h-1z M32,78h1v1h-1z M33,78h1v1h-1z M34,78h1v1h-1z M41,78h1v1h-1z M44,78h1v1h-1z M46,78h1v1h-1z M47,78h1v1h-1z M48,78h1v1h-1z M51,78h1v1h-1z M52,78h1v1h-1z M54,78h1v1h-1z M56,78h1v1h-1z M57,78h1v1h-1z M58,78h1v1h-1z M59,78h1v1h-1z M63,78h1v1h-1z M65,78h1v1h-1z M68,78h1v1h-1z M69,78h1v1h-1z M70,78h1v1h-1z M72,78h1v1h-1z M73,78h1v1h-1z M75,78h1v1h-1z M76,78h1v1h-1z M78,78h1v1h-1z M80,78h1v1h-1z M81,78h1v1h-1z M82,78h1v1h-1z M87,78h1v1h-1z M88,78h1v1h-1z M89,78h1v1h-1z M92,78h1v1h-1z M93,78h1v1h-1z M94,78h1v1h-1z M96,78h1v1h-1z M99,78h1v1h-1z M100,78h1v1h-1z M102,78h1v1h-1z M104,78h1v1h-1z M105,78h1v1h-1z M107,78h1v1h-1z M6,79h1v1h-1z M7,79h1v1h-1z M8,79h1v1h-1z M12,79h1v1h-1z M14,79h1v1h-1z M15,79h1v1h-1z M16,79h1v1h-1z M19,79h1v1h-1z M20,79h1v1h-1z M23,79h1v1h-1z M25,79h1v1h-1z M26,79h1v1h-1z M28,79h1v1h-1z M32,79h1v1h-1z M34,79h1v1h-1z M35,79h1v1h-1z M39,79h1v1h-1z M40,79h1v1h-1z M42,79h1v1h-1z M45,79h1v1h-1z M51,79h1v1h-1z M52,79h1v1h-1z M56,79h1v1h-1z M58,79h1v1h-1z M59,79h1v1h-1z M61,79h1v1h-1z M62,79h1v1h-1z M64,79h1v1h-1z M67,79h1v1h-1z M70,79h1v1h-1z M74,79h1v1h-1z M75,79h1v1h-1z M76,79h1v1h-1z M80,79h1v1h-1z M82,79h1v1h-1z M83,79h1v1h-1z M86,79h1v1h-1z M87,79h1v1h-1z M88,79h1v1h-1z M89,79h1v1h-1z M90,79h1v1h-1z M91,79h1v1h-1z M100,79h1v1h-1z M104,79h1v1h-1z M105,79h1v1h-1z M106,79h1v1h-1z M107,79h1v1h-1z M4,80h1v1h-1z M5,80h1v1h-1z M6,80h1v1h-1z M7,80h1v1h-1z M8,80h1v1h-1z M9,80h1v1h-1z M10,80h1v1h-1z M11,80h1v1h-1z M12,80h1v1h-1z M13,80h1v1h-1z M14,80h1v1h-1z M15,80h1v1h-1z M17,80h1v1h-1z M18,80h1v1h-1z M19,80h1v1h-1z M21,80h1v1h-1z M25,80h1v1h-1z M26,80h1v1h-1z M27,80h1v1h-1z M28,80h1v1h-1z M29,80h1v1h-1z M30,80h1v1h-1z M31,80h1v1h-1z M32,80h1v1h-1z M35,80h1v1h-1z M37,80h1v1h-1z M40,80h1v1h-1z M41,80h1v1h-1z M43,80h1v1h-1z M46,80h1v1h-1z M47,80h1v1h-1z M52,80h1v1h-1z M53,80h1v1h-1z M54,80h1v1h-1z M55,80h1v1h-1z M56,80h1v1h-1z M58,80h1v1h-1z M59,80h1v1h-1z M60,80h1v1h-1z M61,80h1v1h-1z M62,80h1v1h-1z M63,80h1v1h-1z M64,80h1v1h-1z M66,80h1v1h-1z M68,80h1v1h-1z M73,80h1v1h-1z M76,80h1v1h-1z M77,80h1v1h-1z M78,80h1v1h-1z M79,80h1v1h-1z M80,80h1v1h-1z M82,80h1v1h-1z M83,80h1v1h-1z M85,80h1v1h-1z M87,80h1v1h-1z M88,80h1v1h-1z M89,80h1v1h-1z M93,80h1v1h-1z M96,80h1v1h-1z M97,80h1v1h-1z M98,80h1v1h-1z M99,80h1v1h-1z M100,80h1v1h-1z M101,80h1v1h-1z M102,80h1v1h-1z M103,80h1v1h-1z M104,80h1v1h-1z M106,80h1v1h-1z M4,81h1v1h-1z M5,81h1v1h-1z M7,81h1v1h-1z M8,81h1v1h-1z M9,81h1v1h-1z M12,81h1v1h-1z M14,81h1v1h-1z M17,81h1v1h-1z M18,81h1v1h-1z M21,81h1v1h-1z M23,81h1v1h-1z M25,81h1v1h-1z M26,81h1v1h-1z M29,81h1v1h-1z M31,81h1v1h-1z M32,81h1v1h-1z M33,81h1v1h-1z M35,81h1v1h-1z M36,81h1v1h-1z M41,81h1v1h-1z M42,81h1v1h-1z M43,81h1v1h-1z M47,81h1v1h-1z M48,81h1v1h-1z M53,81h1v1h-1z M56,81h1v1h-1z M57,81h1v1h-1z M58,81h1v1h-1z M59,81h1v1h-1z M60,81h1v1h-1z M61,81h1v1h-1z M63,81h1v1h-1z M64,81h1v1h-1z M65,81h1v1h-1z M68,81h1v1h-1z M70,81h1v1h-1z M71,81h1v1h-1z M73,81h1v1h-1z M74,81h1v1h-1z M76,81h1v1h-1z M79,81h1v1h-1z M82,81h1v1h-1z M86,81h1v1h-1z M88,81h1v1h-1z M91,81h1v1h-1z M93,81h1v1h-1z M94,81h1v1h-1z M95,81h1v1h-1z M96,81h1v1h-1z M98,81h1v1h-1z M99,81h1v1h-1z M102,81h1v1h-1z M108,81h1v1h-1z M4,82h1v1h-1z M6,82h1v1h-1z M7,82h1v1h-1z M8,82h1v1h-1z M9,82h1v1h-1z M10,82h1v1h-1z M11,82h1v1h-1z M13,82h1v1h-1z M14,82h1v1h-1z M15,82h1v1h-1z M16,82h1v1h-1z M20,82h1v1h-1z M21,82h1v1h-1z M23,82h1v1h-1z M24,82h1v1h-1z M25,82h1v1h-1z M28,82h1v1h-1z M33,82h1v1h-1z M34,82h1v1h-1z M36,82h1v1h-1z M39,82h1v1h-1z M41,82h1v1h-1z M45,82h1v1h-1z M46,82h1v1h-1z M47,82h1v1h-1z M49,82h1v1h-1z M51,82h1v1h-1z M58,82h1v1h-1z M60,82h1v1h-1z M63,82h1v1h-1z M65,82h1v1h-1z M68,82h1v1h-1z M69,82h1v1h-1z M70,82h1v1h-1z M71,82h1v1h-1z M75,82h1v1h-1z M77,82h1v1h-1z M78,82h1v1h-1z M82,82h1v1h-1z M83,82h1v1h-1z M84,82h1v1h-1z M87,82h1v1h-1z M89,82h1v1h-1z M91,82h1v1h-1z M92,82h1v1h-1z M93,82h1v1h-1z M94,82h1v1h-1z M97,82h1v1h-1z M99,82h1v1h-1z M101,82h1v1h-1z M106,82h1v1h-1z M107,82h1v1h-1z M4,83h1v1h-1z M6,83h1v1h-1z M7,83h1v1h-1z M12,83h1v1h-1z M14,83h1v1h-1z M15,83h1v1h-1z M16,83h1v1h-1z M18,83h1v1h-1z M19,83h1v1h-1z M20,83h1v1h-1z M21,83h1v1h-1z M22,83h1v1h-1z M25,83h1v1h-1z M26,83h1v1h-1z M31,83h1v1h-1z M32,83h1v1h-1z M34,83h1v1h-1z M35,83h1v1h-1z M37,83h1v1h-1z M38,83h1v1h-1z M40,83h1v1h-1z M42,83h1v1h-1z M47,83h1v1h-1z M49,83h1v1h-1z M50,83h1v1h-1z M53,83h1v1h-1z M55,83h1v1h-1z M57,83h1v1h-1z M59,83h1v1h-1z M62,83h1v1h-1z M64,83h1v1h-1z M65,83h1v1h-1z M66,83h1v1h-1z M71,83h1v1h-1z M74,83h1v1h-1z M77,83h1v1h-1z M78,83h1v1h-1z M79,83h1v1h-1z M80,83h1v1h-1z M85,83h1v1h-1z M86,83h1v1h-1z M88,83h1v1h-1z M90,83h1v1h-1z M91,83h1v1h-1z M93,83h1v1h-1z M94,83h1v1h-1z M95,83h1v1h-1z M97,83h1v1h-1z M98,83h1v1h-1z M105,83h1v1h-1z M106,83h1v1h-1z M107,83h1v1h-1z M6,84h1v1h-1z M8,84h1v1h-1z M9,84h1v1h-1z M10,84h1v1h-1z M13,84h1v1h-1z M14,84h1v1h-1z M17,84h1v1h-1z M18,84h1v1h-1z M20,84h1v1h-1z M23,84h1v1h-1z M24,84h1v1h-1z M25,84h1v1h-1z M26,84h1v1h-1z M27,84h1v1h-1z M28,84h1v1h-1z M32,84h1v1h-1z M34,84h1v1h-1z M35,84h1v1h-1z M39,84h1v1h-1z M41,84h1v1h-1z M43,84h1v1h-1z M44,84h1v1h-1z M45,84h1v1h-1z M46,84h1v1h-1z M48,84h1v1h-1z M49,84h1v1h-1z M50,84h1v1h-1z M51,84h1v1h-1z M54,84h1v1h-1z M59,84h1v1h-1z M60,84h1v1h-1z M63,84h1v1h-1z M67,84h1v1h-1z M68,84h1v1h-1z M71,84h1v1h-1z M72,84h1v1h-1z M78,84h1v1h-1z M80,84h1v1h-1z M81,84h1v1h-1z M82,84h1v1h-1z M84,84h1v1h-1z M90,84h1v1h-1z M92,84h1v1h-1z M95,84h1v1h-1z M97,84h1v1h-1z M100,84h1v1h-1z M101,84h1v1h-1z M106,84h1v1h-1z M107,84h1v1h-1z M108,84h1v1h-1z M4,85h1v1h-1z M5,85h1v1h-1z M6,85h1v1h-1z M7,85h1v1h-1z M9,85h1v1h-1z M12,85h1v1h-1z M13,85h1v1h-1z M14,85h1v1h-1z M18,85h1v1h-1z M19,85h1v1h-1z M22,85h1v1h-1z M25,85h1v1h-1z M29,85h1v1h-1z M32,85h1v1h-1z M33,85h1v1h-1z M34,85h1v1h-1z M38,85h1v1h-1z M39,85h1v1h-1z M40,85h1v1h-1z M43,85h1v1h-1z M45,85h1v1h-1z M47,85h1v1h-1z M49,85h1v1h-1z M52,85h1v1h-1z M53,85h1v1h-1z M58,85h1v1h-1z M59,85h1v1h-1z M60,85h1v1h-1z M61,85h1v1h-1z M62,85h1v1h-1z M63,85h1v1h-1z M66,85h1v1h-1z M70,85h1v1h-1z M71,85h1v1h-1z M72,85h1v1h-1z M74,85h1v1h-1z M77,85h1v1h-1z M80,85h1v1h-1z M83,85h1v1h-1z M85,85h1v1h-1z M89,85h1v1h-1z M92,85h1v1h-1z M94,85h1v1h-1z M97,85h1v1h-1z M100,85h1v1h-1z M101,85h1v1h-1z M106,85h1v1h-1z M107,85h1v1h-1z M108,85h1v1h-1z M6,86h1v1h-1z M7,86h1v1h-1z M9,86h1v1h-1z M10,86h1v1h-1z M13,86h1v1h-1z M15,86h1v1h-1z M18,86h1v1h-1z M20,86h1v1h-1z M22,86h1v1h-1z M23,86h1v1h-1z M25,86h1v1h-1z M26,86h1v1h-1z M28,86h1v1h-1z M31,86h1v1h-1z M34,86h1v1h-1z M36,86h1v1h-1z M39,86h1v1h-1z M41,86h1v1h-1z M44,86h1v1h-1z M45,86h1v1h-1z M46,86h1v1h-1z M47,86h1v1h-1z M48,86h1v1h-1z M57,86h1v1h-1z M58,86h1v1h-1z M60,86h1v1h-1z M63,86h1v1h-1z M67,86h1v1h-1z M70,86h1v1h-1z M71,86h1v1h-1z M72,86h1v1h-1z M75,86h1v1h-1z M76,86h1v1h-1z M77,86h1v1h-1z M78,86h1v1h-1z M81,86h1v1h-1z M82,86h1v1h-1z M83,86h1v1h-1z M89,86h1v1h-1z M91,86h1v1h-1z M92,86h1v1h-1z M93,86h1v1h-1z M94,86h1v1h-1z M97,86h1v1h-1z M100,86h1v1h-1z M101,86h1v1h-1z M103,86h1v1h-1z M104,86h1v1h-1z M105,86h1v1h-1z M107,86h1v1h-1z M4,87h1v1h-1z M5,87h1v1h-1z M8,87h1v1h-1z M11,87h1v1h-1z M12,87h1v1h-1z M13,87h1v1h-1z M15,87h1v1h-1z M16,87h1v1h-1z M18,87h1v1h-1z M20,87h1v1h-1z M22,87h1v1h-1z M25,87h1v1h-1z M27,87h1v1h-1z M29,87h1v1h-1z M31,87h1v1h-1z M33,87h1v1h-1z M35,87h1v1h-1z M37,87h1v1h-1z M38,87h1v1h-1z M39,87h1v1h-1z M40,87h1v1h-1z M41,87h1v1h-1z M43,87h1v1h-1z M46,87h1v1h-1z M52,87h1v1h-1z M53,87h1v1h-1z M59,87h1v1h-1z M62,87h1v1h-1z M63,87h1v1h-1z M64,87h1v1h-1z M65,87h1v1h-1z M66,87h1v1h-1z M69,87h1v1h-1z M73,87h1v1h-1z M77,87h1v1h-1z M79,87h1v1h-1z M81,87h1v1h-1z M83,87h1v1h-1z M86,87h1v1h-1z M87,87h1v1h-1z M88,87h1v1h-1z M89,87h1v1h-1z M90,87h1v1h-1z M95,87h1v1h-1z M97,87h1v1h-1z M98,87h1v1h-1z M103,87h1v1h-1z M106,87h1v1h-1z M108,87h1v1h-1z M6,88h1v1h-1z M8,88h1v1h-1z M9,88h1v1h-1z M10,88h1v1h-1z M11,88h1v1h-1z M15,88h1v1h-1z M16,88h1v1h-1z M17,88h1v1h-1z M19,88h1v1h-1z M20,88h1v1h-1z M24,88h1v1h-1z M25,88h1v1h-1z M26,88h1v1h-1z M31,88h1v1h-1z M32,88h1v1h-1z M34,88h1v1h-1z M36,88h1v1h-1z M38,88h1v1h-1z M39,88h1v1h-1z M40,88h1v1h-1z M46,88h1v1h-1z M48,88h1v1h-1z M51,88h1v1h-1z M54,88h1v1h-1z M55,88h1v1h-1z M58,88h1v1h-1z M59,88h1v1h-1z M63,88h1v1h-1z M64,88h1v1h-1z M66,88h1v1h-1z M69,88h1v1h-1z M70,88h1v1h-1z M71,88h1v1h-1z M72,88h1v1h-1z M74,88h1v1h-1z M75,88h1v1h-1z M78,88h1v1h-1z M82,88h1v1h-1z M84,88h1v1h-1z M85,88h1v1h-1z M90,88h1v1h-1z M91,88h1v1h-1z M93,88h1v1h-1z M94,88h1v1h-1z M95,88h1v1h-1z M100,88h1v1h-1z M104,88h1v1h-1z M105,88h1v1h-1z M5,89h1v1h-1z M6,89h1v1h-1z M7,89h1v1h-1z M9,89h1v1h-1z M11,89h1v1h-1z M13,89h1v1h-1z M16,89h1v1h-1z M18,89h1v1h-1z M20,89h1v1h-1z M22,89h1v1h-1z M23,89h1v1h-1z M25,89h1v1h-1z M26,89h1v1h-1z M31,89h1v1h-1z M32,89h1v1h-1z M33,89h1v1h-1z M34,89h1v1h-1z M35,89h1v1h-1z M39,89h1v1h-1z M40,89h1v1h-1z M41,89h1v1h-1z M43,89h1v1h-1z M44,89h1v1h-1z M45,89h1v1h-1z M46,89h1v1h-1z M47,89h1v1h-1z M50,89h1v1h-1z M53,89h1v1h-1z M55,89h1v1h-1z M56,89h1v1h-1z M58,89h1v1h-1z M62,89h1v1h-1z M63,89h1v1h-1z M64,89h1v1h-1z M66,89h1v1h-1z M69,89h1v1h-1z M73,89h1v1h-1z M74,89h1v1h-1z M77,89h1v1h-1z M80,89h1v1h-1z M82,89h1v1h-1z M85,89h1v1h-1z M86,89h1v1h-1z M88,89h1v1h-1z M92,89h1v1h-1z M95,89h1v1h-1z M97,89h1v1h-1z M98,89h1v1h-1z M99,89h1v1h-1z M102,89h1v1h-1z M103,89h1v1h-1z M105,89h1v1h-1z M108,89h1v1h-1z M4,90h1v1h-1z M5,90h1v1h-1z M6,90h1v1h-1z M7,90h1v1h-1z M9,90h1v1h-1z M10,90h1v1h-1z M14,90h1v1h-1z M17,90h1v1h-1z M18,90h1v1h-1z M20,90h1v1h-1z M21,90h1v1h-1z M23,90h1v1h-1z M25,90h1v1h-1z M26,90h1v1h-1z M27,90h1v1h-1z M29,90h1v1h-1z M30,90h1v1h-1z M33,90h1v1h-1z M34,90h1v1h-1z M35,90h1v1h-1z M36,90h1v1h-1z M41,90h1v1h-1z M43,90h1v1h-1z M44,90h1v1h-1z M45,90h1v1h-1z M46,90h1v1h-1z M47,90h1v1h-1z M48,90h1v1h-1z M49,90h1v1h-1z M51,90h1v1h-1z M53,90h1v1h-1z M54,90h1v1h-1z M57,90h1v1h-1z M58,90h1v1h-1z M60,90h1v1h-1z M64,90h1v1h-1z M65,90h1v1h-1z M68,90h1v1h-1z M69,90h1v1h-1z M70,90h1v1h-1z M72,90h1v1h-1z M75,90h1v1h-1z M76,90h1v1h-1z M77,90h1v1h-1z M78,90h1v1h-1z M81,90h1v1h-1z M82,90h1v1h-1z M88,90h1v1h-1z M89,90h1v1h-1z M93,90h1v1h-1z M94,90h1v1h-1z M95,90h1v1h-1z M96,90h1v1h-1z M97,90h1v1h-1z M103,90h1v1h-1z M106,90h1v1h-1z M107,90h1v1h-1z M4,91h1v1h-1z M8,91h1v1h-1z M11,91h1v1h-1z M14,91h1v1h-1z M15,91h1v1h-1z M16,91h1v1h-1z M17,91h1v1h-1z M20,91h1v1h-1z M21,91h1v1h-1z M24,91h1v1h-1z M26,91h1v1h-1z M29,91h1v1h-1z M30,91h1v1h-1z M31,91h1v1h-1z M33,91h1v1h-1z M39,91h1v1h-1z M40,91h1v1h-1z M42,91h1v1h-1z M47,91h1v1h-1z M49,91h1v1h-1z M50,91h1v1h-1z M51,91h1v1h-1z M54,91h1v1h-1z M55,91h1v1h-1z M56,91h1v1h-1z M57,91h1v1h-1z M58,91h1v1h-1z M59,91h1v1h-1z M61,91h1v1h-1z M62,91h1v1h-1z M63,91h1v1h-1z M64,91h1v1h-1z M70,91h1v1h-1z M71,91h1v1h-1z M74,91h1v1h-1z M77,91h1v1h-1z M79,91h1v1h-1z M82,91h1v1h-1z M83,91h1v1h-1z M85,91h1v1h-1z M87,91h1v1h-1z M88,91h1v1h-1z M90,91h1v1h-1z M93,91h1v1h-1z M98,91h1v1h-1z M99,91h1v1h-1z M101,91h1v1h-1z M102,91h1v1h-1z M105,91h1v1h-1z M106,91h1v1h-1z M4,92h1v1h-1z M5,92h1v1h-1z M6,92h1v1h-1z M7,92h1v1h-1z M10,92h1v1h-1z M14,92h1v1h-1z M18,92h1v1h-1z M20,92h1v1h-1z M25,92h1v1h-1z M30,92h1v1h-1z M34,92h1v1h-1z M35,92h1v1h-1z M37,92h1v1h-1z M40,92h1v1h-1z M41,92h1v1h-1z M43,92h1v1h-1z M44,92h1v1h-1z M45,92h1v1h-1z M46,92h1v1h-1z M47,92h1v1h-1z M48,92h1v1h-1z M49,92h1v1h-1z M51,92h1v1h-1z M52,92h1v1h-1z M53,92h1v1h-1z M54,92h1v1h-1z M55,92h1v1h-1z M57,92h1v1h-1z M58,92h1v1h-1z M60,92h1v1h-1z M63,92h1v1h-1z M67,92h1v1h-1z M68,92h1v1h-1z M69,92h1v1h-1z M71,92h1v1h-1z M74,92h1v1h-1z M79,92h1v1h-1z M82,92h1v1h-1z M83,92h1v1h-1z M84,92h1v1h-1z M85,92h1v1h-1z M87,92h1v1h-1z M88,92h1v1h-1z M90,92h1v1h-1z M91,92h1v1h-1z M92,92h1v1h-1z M93,92h1v1h-1z M94,92h1v1h-1z M95,92h1v1h-1z M96,92h1v1h-1z M97,92h1v1h-1z M98,92h1v1h-1z M102,92h1v1h-1z M105,92h1v1h-1z M106,92h1v1h-1z M108,92h1v1h-1z M4,93h1v1h-1z M11,93h1v1h-1z M14,93h1v1h-1z M15,93h1v1h-1z M17,93h1v1h-1z M18,93h1v1h-1z M20,93h1v1h-1z M22,93h1v1h-1z M24,93h1v1h-1z M25,93h1v1h-1z M29,93h1v1h-1z M31,93h1v1h-1z M33,93h1v1h-1z M34,93h1v1h-1z M39,93h1v1h-1z M42,93h1v1h-1z M43,93h1v1h-1z M44,93h1v1h-1z M47,93h1v1h-1z M48,93h1v1h-1z M50,93h1v1h-1z M56,93h1v1h-1z M59,93h1v1h-1z M60,93h1v1h-1z M61,93h1v1h-1z M62,93h1v1h-1z M64,93h1v1h-1z M65,93h1v1h-1z M66,93h1v1h-1z M67,93h1v1h-1z M69,93h1v1h-1z M76,93h1v1h-1z M80,93h1v1h-1z M83,93h1v1h-1z M86,93h1v1h-1z M89,93h1v1h-1z M90,93h1v1h-1z M91,93h1v1h-1z M92,93h1v1h-1z M94,93h1v1h-1z M97,93h1v1h-1z M98,93h1v1h-1z M99,93h1v1h-1z M100,93h1v1h-1z M101,93h1v1h-1z M102,93h1v1h-1z M105,93h1v1h-1z M106,93h1v1h-1z M107,93h1v1h-1z M108,93h1v1h-1z M7,94h1v1h-1z M9,94h1v1h-1z M10,94h1v1h-1z M12,94h1v1h-1z M13,94h1v1h-1z M15,94h1v1h-1z M17,94h1v1h-1z M18,94h1v1h-1z M19,94h1v1h-1z M20,94h1v1h-1z M24,94h1v1h-1z M26,94h1v1h-1z M27,94h1v1h-1z M28,94h1v1h-1z M29,94h1v1h-1z M30,94h1v1h-1z M33,94h1v1h-1z M34,94h1v1h-1z M36,94h1v1h-1z M41,94h1v1h-1z M43,94h1v1h-1z M45,94h1v1h-1z M46,94h1v1h-1z M47,94h1v1h-1z M48,94h1v1h-1z M52,94h1v1h-1z M53,94h1v1h-1z M54,94h1v1h-1z M55,94h1v1h-1z M58,94h1v1h-1z M59,94h1v1h-1z M65,94h1v1h-1z M69,94h1v1h-1z M70,94h1v1h-1z M71,94h1v1h-1z M72,94h1v1h-1z M76,94h1v1h-1z M77,94h1v1h-1z M78,94h1v1h-1z M81,94h1v1h-1z M82,94h1v1h-1z M83,94h1v1h-1z M88,94h1v1h-1z M89,94h1v1h-1z M93,94h1v1h-1z M94,94h1v1h-1z M99,94h1v1h-1z M100,94h1v1h-1z M103,94h1v1h-1z M104,94h1v1h-1z M105,94h1v1h-1z M5,95h1v1h-1z M8,95h1v1h-1z M11,95h1v1h-1z M12,95h1v1h-1z M17,95h1v1h-1z M18,95h1v1h-1z M20,95h1v1h-1z M22,95h1v1h-1z M25,95h1v1h-1z M27,95h1v1h-1z M28,95h1v1h-1z M32,95h1v1h-1z M34,95h1v1h-1z M35,95h1v1h-1z M37,95h1v1h-1z M38,95h1v1h-1z M39,95h1v1h-1z M40,95h1v1h-1z M41,95h1v1h-1z M42,95h1v1h-1z M46,95h1v1h-1z M50,95h1v1h-1z M51,95h1v1h-1z M53,95h1v1h-1z M57,95h1v1h-1z M59,95h1v1h-1z M63,95h1v1h-1z M64,95h1v1h-1z M66,95h1v1h-1z M70,95h1v1h-1z M73,95h1v1h-1z M76,95h1v1h-1z M78,95h1v1h-1z M80,95h1v1h-1z M83,95h1v1h-1z M85,95h1v1h-1z M86,95h1v1h-1z M87,95h1v1h-1z M88,95h1v1h-1z M94,95h1v1h-1z M95,95h1v1h-1z M102,95h1v1h-1z M103,95h1v1h-1z M104,95h1v1h-1z M105,95h1v1h-1z M106,95h1v1h-1z M107,95h1v1h-1z M4,96h1v1h-1z M8,96h1v1h-1z M10,96h1v1h-1z M12,96h1v1h-1z M14,96h1v1h-1z M16,96h1v1h-1z M21,96h1v1h-1z M22,96h1v1h-1z M23,96h1v1h-1z M24,96h1v1h-1z M25,96h1v1h-1z M26,96h1v1h-1z M27,96h1v1h-1z M31,96h1v1h-1z M32,96h1v1h-1z M34,96h1v1h-1z M36,96h1v1h-1z M37,96h1v1h-1z M42,96h1v1h-1z M43,96h1v1h-1z M44,96h1v1h-1z M47,96h1v1h-1z M50,96h1v1h-1z M51,96h1v1h-1z M54,96h1v1h-1z M55,96h1v1h-1z M58,96h1v1h-1z M59,96h1v1h-1z M60,96h1v1h-1z M62,96h1v1h-1z M63,96h1v1h-1z M64,96h1v1h-1z M65,96h1v1h-1z M67,96h1v1h-1z M70,96h1v1h-1z M71,96h1v1h-1z M74,96h1v1h-1z M77,96h1v1h-1z M78,96h1v1h-1z M79,96h1v1h-1z M80,96h1v1h-1z M81,96h1v1h-1z M82,96h1v1h-1z M88,96h1v1h-1z M92,96h1v1h-1z M93,96h1v1h-1z M95,96h1v1h-1z M96,96h1v1h-1z M97,96h1v1h-1z M100,96h1v1h-1z M101,96h1v1h-1z M105,96h1v1h-1z M106,96h1v1h-1z M4,97h1v1h-1z M11,97h1v1h-1z M12,97h1v1h-1z M13,97h1v1h-1z M14,97h1v1h-1z M19,97h1v1h-1z M21,97h1v1h-1z M22,97h1v1h-1z M25,97h1v1h-1z M29,97h1v1h-1z M31,97h1v1h-1z M32,97h1v1h-1z M33,97h1v1h-1z M34,97h1v1h-1z M35,97h1v1h-1z M36,97h1v1h-1z M41,97h1v1h-1z M44,97h1v1h-1z M45,97h1v1h-1z M46,97h1v1h-1z M48,97h1v1h-1z M49,97h1v1h-1z M52,97h1v1h-1z M53,97h1v1h-1z M56,97h1v1h-1z M59,97h1v1h-1z M61,97h1v1h-1z M62,97h1v1h-1z M65,97h1v1h-1z M67,97h1v1h-1z M68,97h1v1h-1z M69,97h1v1h-1z M70,97h1v1h-1z M71,97h1v1h-1z M73,97h1v1h-1z M79,97h1v1h-1z M80,97h1v1h-1z M82,97h1v1h-1z M83,97h1v1h-1z M85,97h1v1h-1z M88,97h1v1h-1z M89,97h1v1h-1z M90,97h1v1h-1z M91,97h1v1h-1z M93,97h1v1h-1z M96,97h1v1h-1z M98,97h1v1h-1z M99,97h1v1h-1z M107,97h1v1h-1z M108,97h1v1h-1z M4,98h1v1h-1z M5,98h1v1h-1z M6,98h1v1h-1z M10,98h1v1h-1z M11,98h1v1h-1z M12,98h1v1h-1z M16,98h1v1h-1z M18,98h1v1h-1z M22,98h1v1h-1z M23,98h1v1h-1z M24,98h1v1h-1z M25,98h1v1h-1z M30,98h1v1h-1z M33,98h1v1h-1z M34,98h1v1h-1z M41,98h1v1h-1z M44,98h1v1h-1z M45,98h1v1h-1z M46,98h1v1h-1z M47,98h1v1h-1z M52,98h1v1h-1z M53,98h1v1h-1z M54,98h1v1h-1z M57,98h1v1h-1z M58,98h1v1h-1z M59,98h1v1h-1z M60,98h1v1h-1z M63,98h1v1h-1z M64,98h1v1h-1z M65,98h1v1h-1z M67,98h1v1h-1z M70,98h1v1h-1z M72,98h1v1h-1z M77,98h1v1h-1z M78,98h1v1h-1z M81,98h1v1h-1z M82,98h1v1h-1z M83,98h1v1h-1z M84,98h1v1h-1z M88,98h1v1h-1z M89,98h1v1h-1z M91,98h1v1h-1z M93,98h1v1h-1z M94,98h1v1h-1z M105,98h1v1h-1z M106,98h1v1h-1z M107,98h1v1h-1z M6,99h1v1h-1z M8,99h1v1h-1z M9,99h1v1h-1z M11,99h1v1h-1z M12,99h1v1h-1z M13,99h1v1h-1z M15,99h1v1h-1z M17,99h1v1h-1z M19,99h1v1h-1z M20,99h1v1h-1z M21,99h1v1h-1z M24,99h1v1h-1z M25,99h1v1h-1z M26,99h1v1h-1z M33,99h1v1h-1z M35,99h1v1h-1z M39,99h1v1h-1z M40,99h1v1h-1z M41,99h1v1h-1z M43,99h1v1h-1z M45,99h1v1h-1z M47,99h1v1h-1z M53,99h1v1h-1z M55,99h1v1h-1z M56,99h1v1h-1z M59,99h1v1h-1z M61,99h1v1h-1z M62,99h1v1h-1z M63,99h1v1h-1z M64,99h1v1h-1z M69,99h1v1h-1z M71,99h1v1h-1z M73,99h1v1h-1z M74,99h1v1h-1z M76,99h1v1h-1z M80,99h1v1h-1z M82,99h1v1h-1z M83,99h1v1h-1z M86,99h1v1h-1z M87,99h1v1h-1z M88,99h1v1h-1z M90,99h1v1h-1z M95,99h1v1h-1z M97,99h1v1h-1z M98,99h1v1h-1z M101,99h1v1h-1z M102,99h1v1h-1z M103,99h1v1h-1z M105,99h1v1h-1z M106,99h1v1h-1z M7,100h1v1h-1z M8,100h1v1h-1z M10,100h1v1h-1z M11,100h1v1h-1z M14,100h1v1h-1z M16,100h1v1h-1z M17,100h1v1h-1z M22,100h1v1h-1z M23,100h1v1h-1z M24,100h1v1h-1z M25,100h1v1h-1z M26,100h1v1h-1z M28,100h1v1h-1z M29,100h1v1h-1z M30,100h1v1h-1z M31,100h1v1h-1z M32,100h1v1h-1z M37,100h1v1h-1z M38,100h1v1h-1z M40,100h1v1h-1z M41,100h1v1h-1z M42,100h1v1h-1z M43,100h1v1h-1z M44,100h1v1h-1z M46,100h1v1h-1z M47,100h1v1h-1z M48,100h1v1h-1z M51,100h1v1h-1z M52,100h1v1h-1z M53,100h1v1h-1z M54,100h1v1h-1z M55,100h1v1h-1z M56,100h1v1h-1z M61,100h1v1h-1z M62,100h1v1h-1z M63,100h1v1h-1z M64,100h1v1h-1z M66,100h1v1h-1z M68,100h1v1h-1z M69,100h1v1h-1z M70,100h1v1h-1z M71,100h1v1h-1z M72,100h1v1h-1z M73,100h1v1h-1z M76,100h1v1h-1z M77,100h1v1h-1z M78,100h1v1h-1z M79,100h1v1h-1z M80,100h1v1h-1z M82,100h1v1h-1z M85,100h1v1h-1z M88,100h1v1h-1z M89,100h1v1h-1z M90,100h1v1h-1z M91,100h1v1h-1z M95,100h1v1h-1z M96,100h1v1h-1z M100,100h1v1h-1z M101,100h1v1h-1z M102,100h1v1h-1z M103,100h1v1h-1z M104,100h1v1h-1z M106,100h1v1h-1z M108,100h1v1h-1z M12,101h1v1h-1z M15,101h1v1h-1z M16,101h1v1h-1z M17,101h1v1h-1z M18,101h1v1h-1z M19,101h1v1h-1z M20,101h1v1h-1z M21,101h1v1h-1z M23,101h1v1h-1z M24,101h1v1h-1z M25,101h1v1h-1z M27,101h1v1h-1z M28,101h1v1h-1z M32,101h1v1h-1z M34,101h1v1h-1z M35,101h1v1h-1z M36,101h1v1h-1z M37,101h1v1h-1z M41,101h1v1h-1z M42,101h1v1h-1z M45,101h1v1h-1z M46,101h1v1h-1z M48,101h1v1h-1z M52,101h1v1h-1z M56,101h1v1h-1z M57,101h1v1h-1z M58,101h1v1h-1z M59,101h1v1h-1z M65,101h1v1h-1z M68,101h1v1h-1z M69,101h1v1h-1z M73,101h1v1h-1z M75,101h1v1h-1z M76,101h1v1h-1z M80,101h1v1h-1z M82,101h1v1h-1z M84,101h1v1h-1z M85,101h1v1h-1z M86,101h1v1h-1z M87,101h1v1h-1z M88,101h1v1h-1z M89,101h1v1h-1z M90,101h1v1h-1z M93,101h1v1h-1z M94,101h1v1h-1z M96,101h1v1h-1z M98,101h1v1h-1z M100,101h1v1h-1z M104,101h1v1h-1z M105,101h1v1h-1z M106,101h1v1h-1z M107,101h1v1h-1z M108,101h1v1h-1z M4,102h1v1h-1z M5,102h1v1h-1z M6,102h1v1h-1z M7,102h1v1h-1z M8,102h1v1h-1z M9,102h1v1h-1z M10,102h1v1h-1z M12,102h1v1h-1z M13,102h1v1h-1z M15,102h1v1h-1z M16,102h1v1h-1z M19,102h1v1h-1z M20,102h1v1h-1z M21,102h1v1h-1z M23,102h1v1h-1z M28,102h1v1h-1z M30,102h1v1h-1z M32,102h1v1h-1z M33,102h1v1h-1z M34,102h1v1h-1z M35,102h1v1h-1z M36,102h1v1h-1z M39,102h1v1h-1z M41,102h1v1h-1z M44,102h1v1h-1z M45,102h1v1h-1z M46,102h1v1h-1z M47,102h1v1h-1z M52,102h1v1h-1z M54,102h1v1h-1z M56,102h1v1h-1z M57,102h1v1h-1z M58,102h1v1h-1z M60,102h1v1h-1z M65,102h1v1h-1z M67,102h1v1h-1z M68,102h1v1h-1z M69,102h1v1h-1z M70,102h1v1h-1z M76,102h1v1h-1z M78,102h1v1h-1z M80,102h1v1h-1z M82,102h1v1h-1z M83,102h1v1h-1z M84,102h1v1h-1z M85,102h1v1h-1z M87,102h1v1h-1z M89,102h1v1h-1z M92,102h1v1h-1z M93,102h1v1h-1z M94,102h1v1h-1z M95,102h1v1h-1z M99,102h1v1h-1z M100,102h1v1h-1z M102,102h1v1h-1z M104,102h1v1h-1z M105,102h1v1h-1z M107,102h1v1h-1z M4,103h1v1h-1z M10,103h1v1h-1z M14,103h1v1h-1z M15,103h1v1h-1z M17,103h1v1h-1z M20,103h1v1h-1z M22,103h1v1h-1z M24,103h1v1h-1z M28,103h1v1h-1z M32,103h1v1h-1z M34,103h1v1h-1z M35,103h1v1h-1z M37,103h1v1h-1z M38,103h1v1h-1z M40,103h1v1h-1z M41,103h1v1h-1z M43,103h1v1h-1z M45,103h1v1h-1z M47,103h1v1h-1z M49,103h1v1h-1z M52,103h1v1h-1z M56,103h1v1h-1z M57,103h1v1h-1z M59,103h1v1h-1z M61,103h1v1h-1z M63,103h1v1h-1z M64,103h1v1h-1z M65,103h1v1h-1z M66,103h1v1h-1z M71,103h1v1h-1z M73,103h1v1h-1z M76,103h1v1h-1z M80,103h1v1h-1z M83,103h1v1h-1z M86,103h1v1h-1z M87,103h1v1h-1z M88,103h1v1h-1z M91,103h1v1h-1z M93,103h1v1h-1z M95,103h1v1h-1z M97,103h1v1h-1z M98,103h1v1h-1z M99,103h1v1h-1z M100,103h1v1h-1z M104,103h1v1h-1z M106,103h1v1h-1z M4,104h1v1h-1z M6,104h1v1h-1z M7,104h1v1h-1z M8,104h1v1h-1z M10,104h1v1h-1z M12,104h1v1h-1z M13,104h1v1h-1z M14,104h1v1h-1z M17,104h1v1h-1z M22,104h1v1h-1z M24,104h1v1h-1z M25,104h1v1h-1z M26,104h1v1h-1z M27,104h1v1h-1z M28,104h1v1h-1z M29,104h1v1h-1z M30,104h1v1h-1z M31,104h1v1h-1z M32,104h1v1h-1z M33,104h1v1h-1z M34,104h1v1h-1z M40,104h1v1h-1z M41,104h1v1h-1z M44,104h1v1h-1z M46,104h1v1h-1z M47,104h1v1h-1z M49,104h1v1h-1z M50,104h1v1h-1z M52,104h1v1h-1z M53,104h1v1h-1z M54,104h1v1h-1z M55,104h1v1h-1z M56,104h1v1h-1z M58,104h1v1h-1z M61,104h1v1h-1z M62,104h1v1h-1z M65,104h1v1h-1z M68,104h1v1h-1z M71,104h1v1h-1z M72,104h1v1h-1z M73,104h1v1h-1z M74,104h1v1h-1z M75,104h1v1h-1z M76,104h1v1h-1z M77,104h1v1h-1z M78,104h1v1h-1z M79,104h1v1h-1z M80,104h1v1h-1z M84,104h1v1h-1z M87,104h1v1h-1z M90,104h1v1h-1z M91,104h1v1h-1z M100,104h1v1h-1z M101,104h1v1h-1z M102,104h1v1h-1z M103,104h1v1h-1z M104,104h1v1h-1z M105,104h1v1h-1z M108,104h1v1h-1z M4,105h1v1h-1z M6,105h1v1h-1z M7,105h1v1h-1z M8,105h1v1h-1z M10,105h1v1h-1z M12,105h1v1h-1z M14,105h1v1h-1z M17,105h1v1h-1z M24,105h1v1h-1z M25,105h1v1h-1z M26,105h1v1h-1z M27,105h1v1h-1z M30,105h1v1h-1z M32,105h1v1h-1z M33,105h1v1h-1z M34,105h1v1h-1z M35,105h1v1h-1z M37,105h1v1h-1z M39,105h1v1h-1z M41,105h1v1h-1z M42,105h1v1h-1z M43,105h1v1h-1z M46,105h1v1h-1z M47,105h1v1h-1z M49,105h1v1h-1z M51,105h1v1h-1z M52,105h1v1h-1z M56,105h1v1h-1z M57,105h1v1h-1z M58,105h1v1h-1z M59,105h1v1h-1z M63,105h1v1h-1z M66,105h1v1h-1z M67,105h1v1h-1z M68,105h1v1h-1z M69,105h1v1h-1z M71,105h1v1h-1z M76,105h1v1h-1z M77,105h1v1h-1z M83,105h1v1h-1z M86,105h1v1h-1z M87,105h1v1h-1z M88,105h1v1h-1z M91,105h1v1h-1z M92,105h1v1h-1z M94,105h1v1h-1z M95,105h1v1h-1z M97,105h1v1h-1z M99,105h1v1h-1z M100,105h1v1h-1z M101,105h1v1h-1z M103,105h1v1h-1z M106,105h1v1h-1z M4,106h1v1h-1z M6,106h1v1h-1z M7,106h1v1h-1z M8,106h1v1h-1z M10,106h1v1h-1z M12,106h1v1h-1z M14,106h1v1h-1z M16,106h1v1h-1z M17,106h1v1h-1z M20,106h1v1h-1z M22,106h1v1h-1z M25,106h1v1h-1z M27,106h1v1h-1z M29,106h1v1h-1z M31,106h1v1h-1z M32,106h1v1h-1z M33,106h1v1h-1z M34,106h1v1h-1z M36,106h1v1h-1z M39,106h1v1h-1z M41,106h1v1h-1z M43,106h1v1h-1z M44,106h1v1h-1z M45,106h1v1h-1z M46,106h1v1h-1z M51,106h1v1h-1z M53,106h1v1h-1z M55,106h1v1h-1z M56,106h1v1h-1z M57,106h1v1h-1z M58,106h1v1h-1z M59,106h1v1h-1z M64,106h1v1h-1z M65,106h1v1h-1z M67,106h1v1h-1z M68,106h1v1h-1z M69,106h1v1h-1z M70,106h1v1h-1z M71,106h1v1h-1z M73,106h1v1h-1z M77,106h1v1h-1z M80,106h1v1h-1z M81,106h1v1h-1z M82,106h1v1h-1z M83,106h1v1h-1z M85,106h1v1h-1z M87,106h1v1h-1z M89,106h1v1h-1z M93,106h1v1h-1z M94,106h1v1h-1z M95,106h1v1h-1z M96,106h1v1h-1z M99,106h1v1h-1z M100,106h1v1h-1z M102,106h1v1h-1z M4,107h1v1h-1z M10,107h1v1h-1z M12,107h1v1h-1z M18,107h1v1h-1z M19,107h1v1h-1z M21,107h1v1h-1z M25,107h1v1h-1z M26,107h1v1h-1z M27,107h1v1h-1z M28,107h1v1h-1z M34,107h1v1h-1z M35,107h1v1h-1z M38,107h1v1h-1z M40,107h1v1h-1z M41,107h1v1h-1z M42,107h1v1h-1z M45,107h1v1h-1z M47,107h1v1h-1z M49,107h1v1h-1z M50,107h1v1h-1z M52,107h1v1h-1z M53,107h1v1h-1z M58,107h1v1h-1z M59,107h1v1h-1z M61,107h1v1h-1z M62,107h1v1h-1z M63,107h1v1h-1z M64,107h1v1h-1z M65,107h1v1h-1z M70,107h1v1h-1z M71,107h1v1h-1z M74,107h1v1h-1z M76,107h1v1h-1z M77,107h1v1h-1z M78,107h1v1h-1z M83,107h1v1h-1z M86,107h1v1h-1z M87,107h1v1h-1z M88,107h1v1h-1z M89,107h1v1h-1z M97,107h1v1h-1z M99,107h1v1h-1z M104,107h1v1h-1z M106,107h1v1h-1z M4,108h1v1h-1z M5,108h1v1h-1z M6,108h1v1h-1z M7,108h1v1h-1z M8,108h1v1h-1z M9,108h1v1h-1z M10,108h1v1h-1z M12,108h1v1h-1z M14,108h1v1h-1z M15,108h1v1h-1z M20,108h1v1h-1z M21,108h1v1h-1z M22,108h1v1h-1z M28,108h1v1h-1z M29,108h1v1h-1z M32,108h1v1h-1z M37,108h1v1h-1z M40,108h1v1h-1z M41,108h1v1h-1z M44,108h1v1h-1z M46,108h1v1h-1z M49,108h1v1h-1z M51,108h1v1h-1z M55,108h1v1h-1z M60,108h1v1h-1z M61,108h1v1h-1z M65,108h1v1h-1z M66,108h1v1h-1z M67,108h1v1h-1z M69,108h1v1h-1z M71,108h1v1h-1z M74,108h1v1h-1z M75,108h1v1h-1z M76,108h1v1h-1z M79,108h1v1h-1z M81,108h1v1h-1z M82,108h1v1h-1z M83,108h1v1h-1z M85,108h1v1h-1z M94,108h1v1h-1z M95,108h1v1h-1z M96,108h1v1h-1z M97,108h1v1h-1z M98,108h1v1h-1z M99,108h1v1h-1z M101,108h1v1h-1z M102,108h1v1h-1z M103,108h1v1h-1z M104,108h1v1h-1z M105,108h1v1h-1z M107,108h1v1h-1z" fill="#000000"/>
</svg>
