<?xml version="1.0" encoding="UTF-8"?>
<!DOCTYPE svg PUBLIC "-//W3C//DTD SVG 1.1//EN" "http://www.w3.org/Graphics/SVG/1.1/DTD/svg11.dtd">
<svg xmlns="http://www.w3.org/2000/svg" version="1.1" viewBox="0 0 113 113" stroke="none">
	<rect width="100%" height="100%" fill="#FFFFFF"/>
	<path d="M4,4h1v1h-1z M5,4h1v1h-1z M6,4h1v1h-1z M7,4h1v1h-1z M8,4h1v1h-1z M9,4h1v1h-1z M10,4h1v1h-1z M12,4h1v1h-1z M13,4h1v1h-1z M31,4h1v1h-1z M32,4h1v1h-1z M33,4h1v1h-1z M36,4h1v1h-1z M39,4h1v1h-1z M40,4h1v1h-1z M41,4h1v1h-1z M45,4h1v1h-1z M46,4h1v1h-1z M48,4h1v1h-1z M49,4h1v1h-1z M52,4h1v1h-1z M53,4h1v1h-1z M54,4h1v1h-1z M55,4h1v1h-1z M57,4h1v1h-1z M58,4h1v1h-1z M59,4h1v1h-1z M61,4h1v1h-1z M63,4h1v1h-1z M64,4h1v1h-1z M65,4h1v1h-1z M66,4h1v1h-1z M68,4h1v1h-1z M70,4h1v1h-1z M72,4h1v1h-1z M74,4h1v1h-1z M75,4h1v1h-1z M76,4h1v1h-1z M77,4h1v1h-1z M80,4h1v1h-1z M81,4h1v1h-1z M82,4h1v1h-1z M83,4h1v1h-1z M84,4h1v1h-1z M86,4h1v1h-1z M88,4h1v1h-1z M90,4h1v1h-1z M92,4h1v1h-1z M98,4h1v1h-1z M102,4h1v1h-1z M103,4h1v1h-1z M104,4h1v1h-1z M105,4h1v1h-1z M106,4h1v1h-1z M107,4h1v1h-1z M108,4h1v1h-1z M4,5h1v1h-1z M10,5h1v1h-1z M12,5h1v1h-1z M15,5h1v1h-1z M16,5h1v1h-1z M17,5h1v1h-1z M19,5h1v1h-1z M22,5h1v1h-1z M24,5h1v1h-1z M30,5h1v1h-1z M31,5h1v1h-1z M32,5h1v1h-1z M33,5h1v1h-1z M34,5h1v1h-1z M35,5h1v1h-1z M42,5h1v1h-1z M43,5h1v1h-1z M44,5h1v1h-1z M45,5h1v1h-1z M46,5h1v1h-1z M47,5h1v1h-1z M48,5h1v1h-1z M49,5h1v1h-1z M52,5h1v1h-1z M53,5h1v1h-1z M54,5h1v1h-1z M55,5h1v1h-1z M56,5h1v1h-1z M57,5h1v1h-1z M58,5h1v1h-1z M61,5h1v1h-1z M64,5h1v1h-1z M65,5h1v1h-1z M66,5h1v1h-1z M68,5h1v1h-1z M69,5h1v1h-1z M70,5h1v1h-1z M73,5h1v1h-1z M78,5h1v1h-1z M79,5h1v1h-1z M80,5h1v1h-1z M81,5h1v1h-1z M82,5h1v1h-1z M83,5h1v1h-1z M85,5h1v1h-1z M88,5h1v1h-1z M89,5h1v1h-1z M90,5h1v1h-1z M91,5h1v1h-1z M93,5h1v1h-1z M94,5h1v1h-1z M98,5h1v1h-1z M102,5h1v1h-1z M108,5h1v1h-1z M4,6h1v1h-1z M6,6h1v1h-1z M7,6h1v1h-1z M8,6h1v1h-1z M10,6h1v1h-1z M12,6h1v1h-1z M15,6h1v1h-1z M16,6h1v1h-1z M17,6h1v1h-1z M25,6h1v1h-1z M26,6h1v1h-1z M27,6h1v1h-1z M29,6h1v1h-1z M30,6h1v1h-1z M32,6h1v1h-1z M33,6h1v1h-1z M34,6h1v1h-1z M35,6h1v1h-1z M39,6h1v1h-1z M42,6h1v1h-1z M44,6h1v1h-1z M47,6h1v1h-1z M49,6h1v1h-1z M50,6h1v1h-1z M53,6h1v1h-1z M54,6h1v1h-1z M55,6h1v1h-1z M56,6h1v1h-1z M58,6h1v1h-1z M62,6h1v1h-1z M66,6h1v1h-1z M68,6h1v1h-1z M71,6h1v1h-1z M73,6h1v1h-1z M74,6h1v1h-1z M77,6h1v1h-1z M80,6h1v1h-1z M81,6h1v1h-1z M83,6h1v1h-1z M85,6h1v1h-1z M89,6h1v1h-1z M90,6h1v1h-1z M92,6h1v1h-1z M93,6h1v1h-1z M95,6h1v1h-1z M97,6h1v1h-1z M98,6h1v1h-1z M99,6h1v1h-1z M102,6h1v1h-1z M104,6h1v1h-1z M105,6h1v1h-1z M106,6h1v1h-1z M108,6h1v1h-1z M4,7h1v1h-1z M6,7h1v1h-1z M7,7h1v1h-1z M8,7h1v1h-1z M10,7h1v1h-1z M12,7h1v1h-1z M16,7h1v1h-1z M18,7h1v1h-1z M21,7h1v1h-1z M22,7h1v1h-1z M24,7h1v1h-1z M26,7h1v1h-1z M28,7h1v1h-1z M29,7h1v1h-1z M31,7h1v1h-1z M35,7h1v1h-1z M38,7h1v1h-1z M39,7h1v1h-1z M42,7h1v1h-1z M45,7h1v1h-1z M46,7h1v1h-1z M47,7h1v1h-1z M49,7h1v1h-1z M50,7h1v1h-1z M52,7h1v1h-1z M54,7h1v1h-1z M55,7h1v1h-1z M56,7h1v1h-1z M59,7h1v1h-1z M60,7h1v1h-1z M61,7h1v1h-1z M64,7h1v1h-1z M67,7h1v1h-1z M69,7h1v1h-1z M71,7h1v1h-1z M74,7h1v1h-1z M80,7h1v1h-1z M81,7h1v1h-1z M83,7h1v1h-1z M85,7h1v1h-1z M86,7h1v1h-1z M89,7h1v1h-1z M91,7h1v1h-1z M93,7h1v1h-1z M94,7h1v1h-1z M95,7h1v1h-1z M96,7h1v1h-1z M100,7h1v1h-1z M102,7h1v1h-1z M104,7h1v1h-1z M105,7h1v1h-1z M106,7h1v1h-1z M108,7h1v1h-1z M4,8h1v1h-1z M6,8h1v1h-1z M7,8h1v1h-1z M8,8h1v1h-1z M10,8h1v1h-1z M16,8h1v1h-1z M18,8h1v1h-1z M19,8h1v1h-1z M20,8h1v1h-1z M21,8h1v1h-1z M23,8h1v1h-1z M24,8h1v1h-1z M28,8h1v1h-1z M29,8h1v1h-1z M30,8h1v1h-1z M31,8h1v1h-1z M32,8h1v1h-1z M34,8h1v1h-1z M38,8h1v1h-1z M41,8h1v1h-1z M42,8h1v1h-1z M44,8h1v1h-1z M45,8h1v1h-1z M46,8h1v1h-1z M47,8h1v1h-1z M48,8h1v1h-1z M49,8h1v1h-1z M52,8h1v1h-1z M53,8h1v1h-1z M54,8h1v1h-1z M55,8h1v1h-1z M56,8h1v1h-1z M58,8h1v1h-1z M59,8h1v1h-1z M60,8h1v1h-1z M64,8h1v1h-1z M66,8h1v1h-1z M67,8h1v1h-1z M69,8h1v1h-1z M70,8h1v1h-1z M71,8h1v1h-1z M74,8h1v1h-1z M76,8h1v1h-1z M77,8h1v1h-1z M78,8h1v1h-1z M79,8h1v1h-1z M80,8h1v1h-1z M82,8h1v1h-1z M84,8h1v1h-1z M85,8h1v1h-1z M87,8h1v1h-1z M88,8h1v1h-1z M90,8h1v1h-1z M92,8h1v1h-1z M94,8h1v1h-1z M95,8h1v1h-1z M96,8h1v1h-1z M99,8h1v1h-1z M100,8h1v1h-1z M102,8h1v1h-1z M104,8h1v1h-1z M105,8h1v1h-1z M106,8h1v1h-1z M108,8h1v1h-1z M4,9h1v1h-1z M10,9h1v1h-1z M12,9h1v1h-1z M13,9h1v1h-1z M15,9h1v1h-1z M17,9h1v1h-1z M21,9h1v1h-1z M24,9h1v1h-1z M25,9h1v1h-1z M27,9h1v1h-1z M28,9h1v1h-1z M32,9h1v1h-1z M34,9h1v1h-1z M36,9h1v1h-1z M37,9h1v1h-1z M40,9h1v1h-1z M42,9h1v1h-1z M45,9h1v1h-1z M46,9h1v1h-1z M51,9h1v1h-1z M52,9h1v1h-1z M56,9h1v1h-1z M57,9h1v1h-1z M58,9h1v1h-1z M61,9h1v1h-1z M64,9h1v1h-1z M65,9h1v1h-1z M66,9h1v1h-1z M67,9h1v1h-1z M68,9h1v1h-1z M70,9h1v1h-1z M73,9h1v1h-1z M75,9h1v1h-1z M76,9h1v1h-1z M80,9h1v1h-1z M82,9h1v1h-1z M83,9h1v1h-1z M87,9h1v1h-1z M89,9h1v1h-1z M90,9h1v1h-1z M92,9h1v1h-1z M93,9h1v1h-1z M94,9h1v1h-1z M95,9h1v1h-1z M96,9h1v1h-1z M97,9h1v1h-1z M99,9h1v1h-1z M102,9h1v1h-1z M108,9h1v1h-1z M4,10h1v1h-1z M5,10h1v1h-1z M6,10h1v1h-1z M7,10h1v1h-1z M8,10h1v1h-1z M9,10h1v1h-1z M10,10h1v1h-1z M12,10h1v1h-1z M14,10h1v1h-1z M16,10h1v1h-1z M18,10h1v1h-1z M20,10h1v1h-1z M22,10h1v1h-1z M24,10h1v1h-1z M26,10h1v1h-1z M28,10h1v1h-1z M30,10h1v1h-1z M32,10h1v1h-1z M34,10h1v1h-1z M36,10h1v1h-1z M38,10h1v1h-1z M40,10h1v1h-1z M42,10h1v1h-1z M44,10h1v1h-1z M46,10h1v1h-1z M48,10h1v1h-1z M50,10h1v1h-1z M52,10h1v1h-1z M54,10h1v1h-1z M56,10h1v1h-1z M58,10h1v1h-1z M60,10h1v1h-1z M62,10h1v1h-1z M64,10h1v1h-1z M66,10h1v1h-1z M68,10h1v1h-1z M70,10h1v1h-1z M72,10h1v1h-1z M74,10h1v1h-1z M76,10h1v1h-1z M78,10h1v1h-1z M80,10h1v1h-1z M82,10h1v1h-1z M84,10h1v1h-1z M86,10h1v1h-1z M88,10h1v1h-1z M90,10h1v1h-1z M92,10h1v1h-1z M94,10h1v1h-1z M96,10h1v1h-1z M98,10h1v1h-1z M100,10h1v1h-1z M102,10h1v1h-1z M103,10h1v1h-1z M104,10h1v1h-1z M105,10h1v1h-1z M106,10h1v1h-1z M107,10h1v1h-1z M108,10h1v1h-1z M13,11h1v1h-1z M14,11h1v1h-1z M16,11h1v1h-1z M17,11h1v1h-1z M18,11h1v1h-1z M19,11h1v1h-1z M20,11h1v1h-1z M21,11h1v1h-1z M22,11h1v1h-1z M24,11h1v1h-1z M25,11h1v1h-1z M28,11h1v1h-1z M32,11h1v1h-1z M34,11h1v1h-1z M35,11h1v1h-1z M38,11h1v1h-1z M42,11h1v1h-1z M44,11h1v1h-1z M46,11h1v1h-1z M52,11h1v1h-1z M56,11h1v1h-1z M57,11h1v1h-1z M61,11h1v1h-1z M65,11h1v1h-1z M66,11h1v1h-1z M67,11h1v1h-1z M68,11h1v1h-1z M70,11h1v1h-1z M73,11h1v1h-1z M74,11h1v1h-1z M76,11h1v1h-1z M80,11h1v1h-1z M82,11h1v1h-1z M83,11h1v1h-1z M87,11h1v1h-1z M90,11h1v1h-1z M92,11h1v1h-1z M95,11h1v1h-1z M97,11h1v1h-1z M98,11h1v1h-1z M100,11h1v1h-1z M4,12h1v1h-1z M5,12h1v1h-1z M8,12h1v1h-1z M9,12h1v1h-1z M10,12h1v1h-1z M13,12h1v1h-1z M15,12h1v1h-1z M19,12h1v1h-1z M21,12h1v1h-1z M23,12h1v1h-1z M24,12h1v1h-1z M25,12h1v1h-1z M26,12h1v1h-1z M28,12h1v1h-1z M29,12h1v1h-1z M30,12h1v1h-1z M31,12h1v1h-1z M32,12h1v1h-1z M34,12h1v1h-1z M40,12h1v1h-1z M42,12h1v1h-1z M43,12h1v1h-1z M44,12h1v1h-1z M46,12h1v1h-1z M49,12h1v1h-1z M50,12h1v1h-1z M51,12h1v1h-1z M52,12h1v1h-1z M53,12h1v1h-1z M54,12h1v1h-1z M55,12h1v1h-1z M56,12h1v1h-1z M62,12h1v1h-1z M64,12h1v1h-1z M65,12h1v1h-1z M66,12h1v1h-1z M67,12h1v1h-1z M71,12h1v1h-1z M73,12h1v1h-1z M76,12h1v1h-1z M77,12h1v1h-1z M78,12h1v1h-1z M79,12h1v1h-1z M80,12h1v1h-1z M82,12h1v1h-1z M83,12h1v1h-1z M85,12h1v1h-1z M87,12h1v1h-1z M88,12h1v1h-1z M89,12h1v1h-1z M90,12h1v1h-1z M91,12h1v1h-1z M93,12h1v1h-1z M95,12h1v1h-1z M96,12h1v1h-1z M97,12h1v1h-1z M100,12h1v1h-1z M103,12h1v1h-1z M105,12h1v1h-1z M106,12h1v1h-1z M107,12h1v1h-1z M108,12h1v1h-1z M5,13h1v1h-1z M9,13h1v1h-1z M11,13h1v1h-1z M15,13h1v1h-1z M16,13h1v1h-1z M17,13h1v1h-1z M18,13h1v1h-1z M22,13h1v1h-1z M25,13h1v1h-1z M26,13h1v1h-1z M27,13h1v1h-1z M28,13h1v1h-1z M33,13h1v1h-1z M36,13h1v1h-1z M39,13h1v1h-1z M40,13h1v1h-1z M42,13h1v1h-1z M43,13h1v1h-1z M45,13h1v1h-1z M47,13h1v1h-1z M48,13h1v1h-1z M50,13h1v1h-1z M52,13h1v1h-1z M53,13h1v1h-1z M54,13h1v1h-1z M57,13h1v1h-1z M59,13h1v1h-1z M61,13h1v1h-1z M66,13h1v1h-1z M67,13h1v1h-1z M69,13h1v1h-1z M70,13h1v1h-1z M72,13h1v1h-1z M73,13h1v1h-1z M74,13h1v1h-1z M75,13h1v1h-1z M76,13h1v1h-1z M77,13h1v1h-1z M78,13h1v1h-1z M80,13h1v1h-1z M82,13h1v1h-1z M86,13h1v1h-1z M90,13h1v1h-1z M95,13h1v1h-1z M99,13h1v1h-1z M101,13h1v1h-1z M103,13h1v1h-1z M104,13h1v1h-1z M106,13h1v1h-1z M107,13h1v1h-1z M7,14h1v1h-1z M9,14h1v1h-1z M10,14h1v1h-1z M11,14h1v1h-1z M13,14h1v1h-1z M15,14h1v1h-1z M16,14h1v1h-1z M18,14h1v1h-1z M19,14h1v1h-1z M21,14h1v1h-1z M22,14h1v1h-1z M23,14h1v1h-1z M24,14h1v1h-1z M26,14h1v1h-1z M29,14h1v1h-1z M31,14h1v1h-1z M32,14h1v1h-1z M35,14h1v1h-1z M36,14h1v1h-1z M38,14h1v1h-1z M39,14h1v1h-1z M40,14h1v1h-1z M41,14h1v1h-1z M43,14h1v1h-1z M47,14h1v1h-1z M48,14h1v1h-1z M49,14h1v1h-1z M50,14h1v1h-1z M51,14h1v1h-1z M52,14h1v1h-1z M55,14h1v1h-1z M56,14h1v1h-1z M62,14h1v1h-1z M65,14h1v1h-1z M71,14h1v1h-1z M72,14h1v1h-1z M73,14h1v1h-1z M74,14h1v1h-1z M84,14h1v1h-1z M86,14h1v1h-1z M88,14h1v1h-1z M89,14h1v1h-1z M93,14h1v1h-1z M96,14h1v1h-1z M98,14h1v1h-1z M99,14h1v1h-1z M101,14h1v1h-1z M104,14h1v1h-1z M106,14h1v1h-1z M107,14h1v1h-1z M5,15h1v1h-1z M6,15h1v1h-1z M11,15h1v1h-1z M12,15h1v1h-1z M14,15h1v1h-1z M16,15h1v1h-1z M18,15h1v1h-1z M20,15h1v1h-1z M23,15h1v1h-1z M24,15h1v1h-1z M26,15h1v1h-1z M29,15h1v1h-1z M32,15h1v1h-1z M37,15h1v1h-1z M38,15h1v1h-1z M44,15h1v1h-1z M45,15h1v1h-1z M46,15h1v1h-1z M53,15h1v1h-1z M54,15h1v1h-1z M56,15h1v1h-1z M58,15h1v1h-1z M59,15h1v1h-1z M68,15h1v1h-1z M69,15h1v1h-1z M70,15h1v1h-1z M75,15h1v1h-1z M77,15h1v1h-1z M78,15h1v1h-1z M80,15h1v1h-1z M82,15h1v1h-1z M83,15h1v1h-1z M85,15h1v1h-1z M86,15h1v1h-1z M87,15h1v1h-1z M91,15h1v1h-1z M92,15h1v1h-1z M94,15h1v1h-1z M95,15h1v1h-1z M98,15h1v1h-1z M100,15h1v1h-1z M101,15h1v1h-1z M104,15h1v1h-1z M107,15h1v1h-1z M7,16h1v1h-1z M8,16h1v1h-1z M10,16h1v1h-1z M12,16h1v1h-1z M13,16h1v1h-1z M16,16h1v1h-1z M20,16h1v1h-1z M25,16h1v1h-1z M28,16h1v1h-1z M30,16h1v1h-1z M31,16h1v1h-1z M33,16h1v1h-1z M34,16h1v1h-1z M35,16h1v1h-1z M39,16h1v1h-1z M40,16h1v1h-1z M42,16h1v1h-1z M43,16h1v1h-1z M45,16h1v1h-1z M47,16h1v1h-1z M48,16h1v1h-1z M49,16h1v1h-1z M51,16h1v1h-1z M53,16h1v1h-1z M54,16h1v1h-1z M55,16h1v1h-1z M56,16h1v1h-1z M57,16h1v1h-1z M58,16h1v1h-1z M60,16h1v1h-1z M62,16h1v1h-1z M63,16h1v1h-1z M65,16h1v1h-1z M66,16h1v1h-1z M67,16h1v1h-1z M69,16h1v1h-1z M70,16h1v1h-1z M72,16h1v1h-1z M76,16h1v1h-1z M77,16h1v1h-1z M78,16h1v1h-1z M80,16h1v1h-1z M84,16h1v1h-1z M86,16h1v1h-1z M87,16h1v1h-1z M90,16h1v1h-1z M91,16h1v1h-1z M92,16h1v1h-1z M93,16h1v1h-1z M96,16h1v1h-1z M98,16h1v1h-1z M100,16h1v1h-1z M101,16h1v1h-1z M104,16h1v1h-1z M105,16h1v1h-1z M106,16h1v1h-1z M107,16h1v1h-1z M6,17h1v1h-1z M9,17h1v1h-1z M11,17h1v1h-1z M13,17h1v1h-1z M15,17h1v1h-1z M16,17h1v1h-1z M17,17h1v1h-1z M18,17h1v1h-1z M20,17h1v1h-1z M21,17h1v1h-1z M23,17h1v1h-1z M24,17h1v1h-1z M26,17h1v1h-1z M27,17h1v1h-1z M28,17h1v1h-1z M29,17h1v1h-1z M30,17h1v1h-1z M35,17h1v1h-1z M39,17h1v1h-1z M40,17h1v1h-1z M42,17h1v1h-1z M45,17h1v1h-1z M48,17h1v1h-1z M49,17h1v1h-1z M50,17h1v1h-1z M51,17h1v1h-1z M52,17h1v1h-1z M53,17h1v1h-1z M54,17h1v1h-1z M56,17h1v1h-1z M59,17h1v1h-1z M63,17h1v1h-1z M64,17h1v1h-1z M66,17h1v1h-1z M68,17h1v1h-1z M72,17h1v1h-1z M73,17h1v1h-1z M74,17h1v1h-1z M75,17h1v1h-1z M76,17h1v1h-1z M77,17h1v1h-1z M79,17h1v1h-1z M80,17h1v1h-1z M82,17h1v1h-1z M83,17h1v1h-1z M84,17h1v1h-1z M85,17h1v1h-1z M86,17h1v1h-1z M88,17h1v1h-1z M89,17h1v1h-1z M90,17h1v1h-1z M93,17h1v1h-1z M95,17h1v1h-1z M98,17h1v1h-1z M100,17h1v1h-1z M101,17h1v1h-1z M104,17h1v1h-1z M107,17h1v1h-1z M108,17h1v1h-1z M4,18h1v1h-1z M8,18h1v1h-1z M9,18h1v1h-1z M10,18h1v1h-1z M13,18h1v1h-1z M14,18h1v1h-1z M16,18h1v1h-1z M17,18h1v1h-1z M19,18h1v1h-1z M20,18h1v1h-1z M22,18h1v1h-1z M24,18h1v1h-1z M26,18h1v1h-1z M29,18h1v1h-1z M35,18h1v1h-1z M36,18h1v1h-1z M38,18h1v1h-1z M41,18h1v1h-1z M43,18h1v1h-1z M44,18h1v1h-1z M47,18h1v1h-1z M50,18h1v1h-1z M51,18h1v1h-1z M52,18h1v1h-1z M53,18h1v1h-1z M55,18h1v1h-1z M56,18h1v1h-1z M59,18h1v1h-1z M60,18h1v1h-1z M62,18h1v1h-1z M64,18h1v1h-1z M65,18h1v1h-1z M67,18h1v1h-1z M68,18h1v1h-1z M69,18h1v1h-1z M71,18h1v1h-1z M74,18h1v1h-1z M75,18h1v1h-1z M76,18h1v1h-1z M77,18h1v1h-1z M79,18h1v1h-1z M84,18h1v1h-1z M86,18h1v1h-1z M89,18h1v1h-1z M91,18h1v1h-1z M92,18h1v1h-1z M98,18h1v1h-1z M99,18h1v1h-1z M100,18h1v1h-1z M104,18h1v1h-1z M105,18h1v1h-1z M106,18h1v1h-1z M107,18h1v1h-1z M4,19h1v1h-1z M5,19h1v1h-1z M7,19h1v1h-1z M8,19h1v1h-1z M9,19h1v1h-1z M12,19h1v1h-1z M13,19h1v1h-1z M14,19h1v1h-1z M16,19h1v1h-1z M19,19h1v1h-1z M20,19h1v1h-1z M23,19h1v1h-1z M24,19h1v1h-1z M25,19h1v1h-1z M32,19h1v1h-1z M33,19h1v1h-1z M34,19h1v1h-1z M37,19h1v1h-1z M38,19h1v1h-1z M41,19h1v1h-1z M44,19h1v1h-1z M45,19h1v1h-1z M46,19h1v1h-1z M47,19h1v1h-1z M50,19h1v1h-1z M53,19h1v1h-1z M54,19h1v1h-1z M56,19h1v1h-1z M57,19h1v1h-1z M65,19h1v1h-1z M68,19h1v1h-1z M70,19h1v1h-1z M71,19h1v1h-1z M73,19h1v1h-1z M77,19h1v1h-1z M78,19h1v1h-1z M80,19h1v1h-1z M81,19h1v1h-1z M83,19h1v1h-1z M85,19h1v1h-1z M89,19h1v1h-1z M90,19h1v1h-1z M92,19h1v1h-1z M95,19h1v1h-1z M97,19h1v1h-1z M101,19h1v1h-1z M103,19h1v1h-1z M104,19h1v1h-1z M107,19h1v1h-1z M5,20h1v1h-1z M7,20h1v1h-1z M8,20h1v1h-1z M10,20h1v1h-1z M11,20h1v1h-1z M13,20h1v1h-1z M17,20h1v1h-1z M20,20h1v1h-1z M22,20h1v1h-1z M23,20h1v1h-1z M24,20h1v1h-1z M26,20h1v1h-1z M27,20h1v1h-1z M28,20h1v1h-1z M29,20h1v1h-1z M34,20h1v1h-1z M35,20h1v1h-1z M37,20h1v1h-1z M39,20h1v1h-1z M40,20h1v1h-1z M42,20h1v1h-1z M44,20h1v1h-1z M45,20h1v1h-1z M46,20h1v1h-1z M48,20h1v1h-1z M50,20h1v1h-1z M51,20h1v1h-1z M52,20h1v1h-1z M53,20h1v1h-1z M54,20h1v1h-1z M56,20h1v1h-1z M58,20h1v1h-1z M59,20h1v1h-1z M61,20h1v1h-1z M62,20h1v1h-1z M64,20h1v1h-1z M65,20h1v1h-1z M67,20h1v1h-1z M69,20h1v1h-1z M70,20h1v1h-1z M72,20h1v1h-1z M73,20h1v1h-1z M76,20h1v1h-1z M77,20h1v1h-1z M80,20h1v1h-1z M87,20h1v1h-1z M88,20h1v1h-1z M90,20h1v1h-1z M91,20h1v1h-1z M94,20h1v1h-1z M97,20h1v1h-1z M99,20h1v1h-1z M100,20h1v1h-1z M101,20h1v1h-1z M102,20h1v1h-1z M103,20h1v1h-1z M4,21h1v1h-1z M5,21h1v1h-1z M6,21h1v1h-1z M8,21h1v1h-1z M12,21h1v1h-1z M13,21h1v1h-1z M15,21h1v1h-1z M17,21h1v1h-1z M18,21h1v1h-1z M19,21h1v1h-1z M24,21h1v1h-1z M26,21h1v1h-1z M27,21h1v1h-1z M28,21h1v1h-1z M30,21h1v1h-1z M31,21h1v1h-1z M34,21h1v1h-1z M35,21h1v1h-1z M36,21h1v1h-1z M38,21h1v1h-1z M39,21h1v1h-1z M41,21h1v1h-1z M46,21h1v1h-1z M48,21h1v1h-1z M49,21h1v1h-1z M51,21h1v1h-1z M52,21h1v1h-1z M57,21h1v1h-1z M58,21h1v1h-1z M59,21h1v1h-1z M60,21h1v1h-1z M61,21h1v1h-1z M62,21h1v1h-1z M63,21h1v1h-1z M66,21h1v1h-1z M67,21h1v1h-1z M69,21h1v1h-1z M70,21h1v1h-1z M71,21h1v1h-1z M72,21h1v1h-1z M73,21h1v1h-1z M74,21h1v1h-1z M75,21h1v1h-1z M76,21h1v1h-1z M77,21h1v1h-1z M78,21h1v1h-1z M82,21h1v1h-1z M83,21h1v1h-1z M84,21h1v1h-1z M85,21h1v1h-1z M89,21h1v1h-1z M90,21h1v1h-1z M94,21h1v1h-1z M95,21h1v1h-1z M97,21h1v1h-1z M98,21h1v1h-1z M99,21h1v1h-1z M100,21h1v1h-1z M102,21h1v1h-1z M104,21h1v1h-1z M105,21h1v1h-1z M106,21h1v1h-1z M107,21h1v1h-1z M4,22h1v1h-1z M6,22h1v1h-1z M9,22h1v1h-1z M10,22h1v1h-1z M12,22h1v1h-1z M14,22h1v1h-1z M15,22h1v1h-1z M18,22h1v1h-1z M22,22h1v1h-1z M24,22h1v1h-1z M26,22h1v1h-1z M29,22h1v1h-1z M31,22h1v1h-1z M35,22h1v1h-1z M36,22h1v1h-1z M38,22h1v1h-1z M45,22h1v1h-1z M47,22h1v1h-1z M50,22h1v1h-1z M53,22h1v1h-1z M55,22h1v1h-1z M57,22h1v1h-1z M60,22h1v1h-1z M62,22h1v1h-1z M63,22h1v1h-1z M64,22h1v1h-1z M65,22h1v1h-1z M71,22h1v1h-1z M72,22h1v1h-1z M74,22h1v1h-1z M76,22h1v1h-1z M77,22h1v1h-1z M80,22h1v1h-1z M83,22h1v1h-1z M86,22h1v1h-1z M87,22h1v1h-1z M95,22h1v1h-1z M96,22h1v1h-1z M98,22h1v1h-1z M101,22h1v1h-1z M104,22h1v1h-1z M105,22h1v1h-1z M107,22h1v1h-1z M4,23h1v1h-1z M14,23h1v1h-1z M15,23h1v1h-1z M16,23h1v1h-1z M17,23h1v1h-1z M20,23h1v1h-1z M21,23h1v1h-1z M22,23h1v1h-1z M23,23h1v1h-1z M24,23h1v1h-1z M26,23h1v1h-1z M27,23h1v1h-1z M29,23h1v1h-1z M32,23h1v1h-1z M41,23h1v1h-1z M42,23h1v1h-1z M43,23h1v1h-1z M44,23h1v1h-1z M45,23h1v1h-1z M46,23h1v1h-1z M47,23h1v1h-1z M50,23h1v1h-1z M51,23h1v1h-1z M53,23h1v1h-1z M56,23h1v1h-1z M58,23h1v1h-1z M59,23h1v1h-1z M63,23h1v1h-1z M66,23h1v1h-1z M68,23h1v1h-1z M70,23h1v1h-1z M71,23h1v1h-1z M80,23h1v1h-1z M83,23h1v1h-1z M85,23h1v1h-1z M86,23h1v1h-1z M89,23h1v1h-1z M90,23h1v1h-1z M92,23h1v1h-1z M93,23h1v1h-1z M94,23h1v1h-1z M95,23h1v1h-1z M97,23h1v1h-1z M100,23h1v1h-1z M101,23h1v1h-1z M105,23h1v1h-1z M4,24h1v1h-1z M6,24h1v1h-1z M7,24h1v1h-1z M8,24h1v1h-1z M10,24h1v1h-1z M12,24h1v1h-1z M13,24h1v1h-1z M15,24h1v1h-1z M18,24h1v1h-1z M21,24h1v1h-1z M22,24h1v1h-1z M23,24h1v1h-1z M24,24h1v1h-1z M25,24h1v1h-1z M28,24h1v1h-1z M29,24h1v1h-1z M30,24h1v1h-1z M31,24h1v1h-1z M34,24h1v1h-1z M38,24h1v1h-1z M39,24h1v1h-1z M42,24h1v1h-1z M46,24h1v1h-1z M48,24h1v1h-1z M51,24h1v1h-1z M53,24h1v1h-1z M54,24h1v1h-1z M58,24h1v1h-1z M59,24h1v1h-1z M60,24h1v1h-1z M62,24h1v1h-1z M63,24h1v1h-1z M65,24h1v1h-1z M70,24h1v1h-1z M71,24h1v1h-1z M72,24h1v1h-1z M76,24h1v1h-1z M78,24h1v1h-1z M79,24h1v1h-1z M80,24h1v1h-1z M84,24h1v1h-1z M89,24h1v1h-1z M90,24h1v1h-1z M93,24h1v1h-1z M95,24h1v1h-1z M96,24h1v1h-1z M97,24h1v1h-1z M100,24h1v1h-1z M101,24h1v1h-1z M102,24h1v1h-1z M105,24h1v1h-1z M107,24h1v1h-1z M108,24h1v1h-1z M4,25h1v1h-1z M6,25h1v1h-1z M8,25h1v1h-1z M9,25h1v1h-1z M11,25h1v1h-1z M13,25h1v1h-1z M14,25h1v1h-1z M15,25h1v1h-1z M16,25h1v1h-1z M17,25h1v1h-1z M18,25h1v1h-1z M19,25h1v1h-1z M23,25h1v1h-1z M24,25h1v1h-1z M27,25h1v1h-1z M28,25h1v1h-1z M32,25h1v1h-1z M33,25h1v1h-1z M34,25h1v1h-1z M35,25h1v1h-1z M36,25h1v1h-1z M37,25h1v1h-1z M40,25h1v1h-1z M41,25h1v1h-1z M45,25h1v1h-1z M46,25h1v1h-1z M47,25h1v1h-1z M52,25h1v1h-1z M53,25h1v1h-1z M56,25h1v1h-1z M57,25h1v1h-1z M60,25h1v1h-1z M63,25h1v1h-1z M64,25h1v1h-1z M66,25h1v1h-1z M67,25h1v1h-1z M71,25h1v1h-1z M72,25h1v1h-1z M74,25h1v1h-1z M75,25h1v1h-1z M76,25h1v1h-1z M77,25h1v1h-1z M82,25h1v1h-1z M84,25h1v1h-1z M87,25h1v1h-1z M88,25h1v1h-1z M90,25h1v1h-1z M92,25h1v1h-1z M93,25h1v1h-1z M96,25h1v1h-1z M97,25h1v1h-1z M101,25h1v1h-1z M102,25h1v1h-1z M103,25h1v1h-1z M104,25h1v1h-1z M106,25h1v1h-1z M107,25h1v1h-1z M108,25h1v1h-1z M4,26h1v1h-1z M5,26h1v1h-1z M9,26h1v1h-1z M10,26h1v1h-1z M11,26h1v1h-1z M12,26h1v1h-1z M13,26h1v1h-1z M15,26h1v1h-1z M16,26h1v1h-1z M17,26h1v1h-1z M19,26h1v1h-1z M21,26h1v1h-1z M24,26h1v1h-1z M26,26h1v1h-1z M27,26h1v1h-1z M28,26h1v1h-1z M29,26h1v1h-1z M31,26h1v1h-1z M32,26h1v1h-1z M38,26h1v1h-1z M40,26h1v1h-1z M41,26h1v1h-1z M45,26h1v1h-1z M48,26h1v1h-1z M50,26h1v1h-1z M52,26h1v1h-1z M53,26h1v1h-1z M55,26h1v1h-1z M59,26h1v1h-1z M62,26h1v1h-1z M65,26h1v1h-1z M72,26h1v1h-1z M74,26h1v1h-1z M75,26h1v1h-1z M76,26h1v1h-1z M77,26h1v1h-1z M79,26h1v1h-1z M80,26h1v1h-1z M83,26h1v1h-1z M85,26h1v1h-1z M86,26h1v1h-1z M87,26h1v1h-1z M91,26h1v1h-1z M93,26h1v1h-1z M98,26h1v1h-1z M101,26h1v1h-1z M102,26h1v1h-1z M104,26h1v1h-1z M105,26h1v1h-1z M107,26h1v1h-1z M4,27h1v1h-1z M5,27h1v1h-1z M6,27h1v1h-1z M11,27h1v1h-1z M13,27h1v1h-1z M16,27h1v1h-1z M19,27h1v1h-1z M22,27h1v1h-1z M24,27h1v1h-1z M26,27h1v1h-1z M27,27h1v1h-1z M29,27h1v1h-1z M32,27h1v1h-1z M33,27h1v1h-1z M35,27h1v1h-1z M37,27h1v1h-1z M44,27h1v1h-1z M46,27h1v1h-1z M51,27h1v1h-1z M52,27h1v1h-1z M56,27h1v1h-1z M57,27h1v1h-1z M59,27h1v1h-1z M61,27h1v1h-1z M68,27h1v1h-1z M69,27h1v1h-1z M70,27h1v1h-1z M71,27h1v1h-1z M73,27h1v1h-1z M74,27h1v1h-1z M76,27h1v1h-1z M80,27h1v1h-1z M81,27h1v1h-1z M83,27h1v1h-1z M89,27h1v1h-1z M90,27h1v1h-1z M92,27h1v1h-1z M93,27h1v1h-1z M94,27h1v1h-1z M95,27h1v1h-1z M97,27h1v1h-1z M99,27h1v1h-1z M103,27h1v1h-1z M107,27h1v1h-1z M108,27h1v1h-1z M6,28h1v1h-1z M8,28h1v1h-1z M9,28h1v1h-1z M10,28h1v1h-1z M11,28h1v1h-1z M12,28h1v1h-1z M13,28h1v1h-1z M15,28h1v1h-1z M20,28h1v1h-1z M25,28h1v1h-1z M26,28h1v1h-1z M28,28h1v1h-1z M29,28h1v1h-1z M30,28h1v1h-1z M31,28h1v1h-1z M32,28h1v1h-1z M35,28h1v1h-1z M38,28h1v1h-1z M39,28h1v1h-1z M40,28h1v1h-1z M41,28h1v1h-1z M42,28h1v1h-1z M48,28h1v1h-1z M52,28h1v1h-1z M53,28h1v1h-1z M54,28h1v1h-1z M55,28h1v1h-1z M56,28h1v1h-1z M57,28h1v1h-1z M59,28h1v1h-1z M60,28h1v1h-1z M61,28h1v1h-1z M64,28h1v1h-1z M65,28h1v1h-1z M66,28h1v1h-1z M67,28h1v1h-1z M70,28h1v1h-1z M73,28h1v1h-1z M74,28h1v1h-1z M75,28h1v1h-1z M76,28h1v1h-1z M77,28h1v1h-1z M78,28h1v1h-1z M79,28h1v1h-1z M80,28h1v1h-1z M81,28h1v1h-1z M82,28h1v1h-1z M83,28h1v1h-1z M84,28h1v1h-1z M85,28h1v1h-1z M88,28h1v1h-1z M89,28h1v1h-1z M90,28h1v1h-1z M92,28h1v1h-1z M93,28h1v1h-1z M94,28h1v1h-1z M95,28h1v1h-1z M96,28h1v1h-1z M98,28h1v1h-1z M99,28h1v1h-1z M100,28h1v1h-1z M101,28h1v1h-1z M102,28h1v1h-1z M103,28h1v1h-1z M104,28h1v1h-1z M107,28h1v1h-1z M108,28h1v1h-1z M4,29h1v1h-1z M7,29h1v1h-1z M8,29h1v1h-1z M12,29h1v1h-1z M19,29h1v1h-1z M20,29h1v1h-1z M21,29h1v1h-1z M22,29h1v1h-1z M23,29h1v1h-1z M24,29h1v1h-1z M25,29h1v1h-1z M26,29h1v1h-1z M27,29h1v1h-1z M28,29h1v1h-1z M32,29h1v1h-1z M33,29h1v1h-1z M34,29h1v1h-1z M36,29h1v1h-1z M37,29h1v1h-1z M42,29h1v1h-1z M43,29h1v1h-1z M46,29h1v1h-1z M47,29h1v1h-1z M49,29h1v1h-1z M51,29h1v1h-1z M52,29h1v1h-1z M56,29h1v1h-1z M59,29h1v1h-1z M63,29h1v1h-1z M64,29h1v1h-1z M71,29h1v1h-1z M73,29h1v1h-1z M75,29h1v1h-1z M76,29h1v1h-1z M80,29h1v1h-1z M82,29h1v1h-1z M83,29h1v1h-1z M84,29h1v1h-1z M85,29h1v1h-1z M86,29h1v1h-1z M87,29h1v1h-1z M88,29h1v1h-1z M89,29h1v1h-1z M91,29h1v1h-1z M92,29h1v1h-1z M96,29h1v1h-1z M100,29h1v1h-1z M104,29h1v1h-1z M106,29h1v1h-1z M6,30h1v1h-1z M8,30h1v1h-1z M10,30h1v1h-1z M12,30h1v1h-1z M14,30h1v1h-1z M16,30h1v1h-1z M18,30h1v1h-1z M20,30h1v1h-1z M21,30h1v1h-1z M22,30h1v1h-1z M26,30h1v1h-1z M28,30h1v1h-1z M30,30h1v1h-1z M32,30h1v1h-1z M35,30h1v1h-1z M38,30h1v1h-1z M40,30h1v1h-1z M41,30h1v1h-1z M44,30h1v1h-1z M47,30h1v1h-1z M50,30h1v1h-1z M52,30h1v1h-1z M54,30h1v1h-1z M56,30h1v1h-1z M62,30h1v1h-1z M64,30h1v1h-1z M65,30h1v1h-1z M69,30h1v1h-1z M71,30h1v1h-1z M72,30h1v1h-1z M74,30h1v1h-1z M76,30h1v1h-1z M78,30h1v1h-1z M80,30h1v1h-1z M83,30h1v1h-1z M84,30h1v1h-1z M86,30h1v1h-1z M87,30h1v1h-1z M88,30h1v1h-1z M89,30h1v1h-1z M92,30h1v1h-1z M96,30h1v1h-1z M98,30h1v1h-1z M99,30h1v1h-1z M100,30h1v1h-1z M102,30h1v1h-1z M104,30h1v1h-1z M105,30h1v1h-1z M107,30h1v1h-1z M5,31h1v1h-1z M6,31h1v1h-1z M7,31h1v1h-1z M8,31h1v1h-1z M12,31h1v1h-1z M15,31h1v1h-1z M20,31h1v1h-1z M23,31h1v1h-1z M24,31h1v1h-1z M25,31h1v1h-1z M26,31h1v1h-1z M27,31h1v1h-1z M28,31h1v1h-1z M32,31h1v1h-1z M34,31h1v1h-1z M35,31h1v1h-1z M37,31h1v1h-1z M38,31h1v1h-1z M44,31h1v1h-1z M47,31h1v1h-1z M49,31h1v1h-1z M51,31h1v1h-1z M52,31h1v1h-1z M56,31h1v1h-1z M58,31h1v1h-1z M59,31h1v1h-1z M62,31h1v1h-1z M63,31h1v1h-1z M65,31h1v1h-1z M68,31h1v1h-1z M69,31h1v1h-1z M70,31h1v1h-1z M75,31h1v1h-1z M76,31h1v1h-1z M80,31h1v1h-1z M82,31h1v1h-1z M83,31h1v1h-1z M85,31h1v1h-1z M86,31h1v1h-1z M92,31h1v1h-1z M94,31h1v1h-1z M95,31h1v1h-1z M97,31h1v1h-1z M98,31h1v1h-1z M99,31h1v1h-1z M100,31h1v1h-1z M104,31h1v1h-1z M108,31h1v1h-1z M4,32h1v1h-1z M8,32h1v1h-1z M9,32h1v1h-1z M10,32h1v1h-1z M11,32h1v1h-1z M12,32h1v1h-1z M13,32h1v1h-1z M16,32h1v1h-1z M17,32h1v1h-1z M19,32h1v1h-1z M25,32h1v1h-1z M26,32h1v1h-1z M28,32h1v1h-1z M29,32h1v1h-1z M30,32h1v1h-1z M31,32h1v1h-1z M32,32h1v1h-1z M34,32h1v1h-1z M36,32h1v1h-1z M37,32h1v1h-1z M38,32h1v1h-1z M39,32h1v1h-1z M44,32h1v1h-1z M45,32h1v1h-1z M46,32h1v1h-1z M47,32h1v1h-1z M52,32h1v1h-1z M53,32h1v1h-1z M54,32h1v1h-1z M55,32h1v1h-1z M56,32h1v1h-1z M64,32h1v1h-1z M66,32h1v1h-1z M68,32h1v1h-1z M69,32h1v1h-1z M70,32h1v1h-1z M73,32h1v1h-1z M75,32h1v1h-1z M76,32h1v1h-1z M77,32h1v1h-1z M78,32h1v1h-1z M79,32h1v1h-1z M80,32h1v1h-1z M83,32h1v1h-1z M85,32h1v1h-1z M87,32h1v1h-1z M88,32h1v1h-1z M90,32h1v1h-1z M91,32h1v1h-1z M93,32h1v1h-1z M97,32h1v1h-1z M99,32h1v1h-1z M100,32h1v1h-1z M101,32h1v1h-1z M102,32h1v1h-1z M103,32h1v1h-1z M104,32h1v1h-1z M105,32h1v1h-1z M106,32h1v1h-1z M107,32h1v1h-1z M108,32h1v1h-1z M4,33h1v1h-1z M5,33h1v1h-1z M6,33h1v1h-1z M7,33h1v1h-1z M9,33h1v1h-1z M13,33h1v1h-1z M14,33h1v1h-1z M15,33h1v1h-1z M17,33h1v1h-1z M19,33h1v1h-1z M21,33h1v1h-1z M24,33h1v1h-1z M26,33h1v1h-1z M29,33h1v1h-1z M32,33h1v1h-1z M34,33h1v1h-1z M36,33h1v1h-1z M37,33h1v1h-1z M38,33h1v1h-1z M39,33h1v1h-1z M42,33h1v1h-1z M43,33h1v1h-1z M44,33h1v1h-1z M45,33h1v1h-1z M46,33h1v1h-1z M47,33h1v1h-1z M48,33h1v1h-1z M51,33h1v1h-1z M52,33h1v1h-1z M56,33h1v1h-1z M58,33h1v1h-1z M61,33h1v1h-1z M65,33h1v1h-1z M67,33h1v1h-1z M68,33h1v1h-1z M69,33h1v1h-1z M72,33h1v1h-1z M73,33h1v1h-1z M74,33h1v1h-1z M75,33h1v1h-1z M77,33h1v1h-1z M78,33h1v1h-1z M81,33h1v1h-1z M83,33h1v1h-1z M86,33h1v1h-1z M88,33h1v1h-1z M89,33h1v1h-1z M91,33h1v1h-1z M95,33h1v1h-1z M96,33h1v1h-1z M98,33h1v1h-1z M99,33h1v1h-1z M101,33h1v1h-1z M103,33h1v1h-1z M104,33h1v1h-1z M105,33h1v1h-1z M106,33h1v1h-1z M108,33h1v1h-1z M5,34h1v1h-1z M7,34h1v1h-1z M8,34h1v1h-1z M10,34h1v1h-1z M13,34h1v1h-1z M14,34h1v1h-1z M17,34h1v1h-1z M18,34h1v1h-1z M20,34h1v1h-1z M21,34h1v1h-1z M22,34h1v1h-1z M23,34h1v1h-1z M28,34h1v1h-1z M32,34h1v1h-1z M35,34h1v1h-1z M38,34h1v1h-1z M40,34h1v1h-1z M41,34h1v1h-1z M47,34h1v1h-1z M48,34h1v1h-1z M49,34h1v1h-1z M50,34h1v1h-1z M55,34h1v1h-1z M56,34h1v1h-1z M59,34h1v1h-1z M60,34h1v1h-1z M62,34h1v1h-1z M64,34h1v1h-1z M65,34h1v1h-1z M67,34h1v1h-1z M68,34h1v1h-1z M69,34h1v1h-1z M74,34h1v1h-1z M79,34h1v1h-1z M80,34h1v1h-1z M83,34h1v1h-1z M84,34h1v1h-1z M86,34h1v1h-1z M88,34h1v1h-1z M92,34h1v1h-1z M93,34h1v1h-1z M95,34h1v1h-1z M96,34h1v1h-1z M98,34h1v1h-1z M102,34h1v1h-1z M107,34h1v1h-1z M4,35h1v1h-1z M5,35h1v1h-1z M11,35h1v1h-1z M12,35h1v1h-1z M15,35h1v1h-1z M18,35h1v1h-1z M20,35h1v1h-1z M21,35h1v1h-1z M22,35h1v1h-1z M23,35h1v1h-1z M25,35h1v1h-1z M26,35h1v1h-1z M28,35h1v1h-1z M29,35h1v1h-1z M31,35h1v1h-1z M33,35h1v1h-1z M35,35h1v1h-1z M38,35h1v1h-1z M43,35h1v1h-1z M44,35h1v1h-1z M47,35h1v1h-1z M49,35h1v1h-1z M51,35h1v1h-1z M52,35h1v1h-1z M53,35h1v1h-1z M55,35h1v1h-1z M58,35h1v1h-1z M59,35h1v1h-1z M62,35h1v1h-1z M66,35h1v1h-1z M68,35h1v1h-1z M70,35h1v1h-1z M71,35h1v1h-1z M75,35h1v1h-1z M76,35h1v1h-1z M77,35h1v1h-1z M80,35h1v1h-1z M81,35h1v1h-1z M83,35h1v1h-1z M85,35h1v1h-1z M90,35h1v1h-1z M92,35h1v1h-1z M94,35h1v1h-1z M97,35h1v1h-1z M99,35h1v1h-1z M101,35h1v1h-1z M103,35h1v1h-1z M104,35h1v1h-1z M108,35h1v1h-1z M4,36h1v1h-1z M6,36h1v1h-1z M9,36h1v1h-1z M10,36h1v1h-1z M11,36h1v1h-1z M13,36h1v1h-1z M15,36h1v1h-1z M18,36h1v1h-1z M22,36h1v1h-1z M24,36h1v1h-1z M25,36h1v1h-1z M31,36h1v1h-1z M33,36h1v1h-1z M34,36h1v1h-1z M35,36h1v1h-1z M36,36h1v1h-1z M38,36h1v1h-1z M39,36h1v1h-1z M41,36h1v1h-1z M42,36h1v1h-1z M45,36h1v1h-1z M47,36h1v1h-1z M48,36h1v1h-1z M52,36h1v1h-1z M53,36h1v1h-1z M54,36h1v1h-1z M55,36h1v1h-1z M60,36h1v1h-1z M61,36h1v1h-1z M64,36h1v1h-1z M67,36h1v1h-1z M72,36h1v1h-1z M76,36h1v1h-1z M77,36h1v1h-1z M79,36h1v1h-1z M81,36h1v1h-1z M83,36h1v1h-1z M85,36h1v1h-1z M86,36h1v1h-1z M87,36h1v1h-1z M90,36h1v1h-1z M92,36h1v1h-1z M93,36h1v1h-1z M94,36h1v1h-1z M95,36h1v1h-1z M99,36h1v1h-1z M102,36h1v1h-1z M104,36h1v1h-1z M106,36h1v1h-1z M107,36h1v1h-1z M5,37h1v1h-1z M6,37h1v1h-1z M7,37h1v1h-1z M8,37h1v1h-1z M9,37h1v1h-1z M14,37h1v1h-1z M18,37h1v1h-1z M21,37h1v1h-1z M22,37h1v1h-1z M23,37h1v1h-1z M25,37h1v1h-1z M26,37h1v1h-1z M27,37h1v1h-1z M29,37h1v1h-1z M30,37h1v1h-1z M31,37h1v1h-1z M35,37h1v1h-1z M36,37h1v1h-1z M37,37h1v1h-1z M38,37h1v1h-1z M40,37h1v1h-1z M41,37h1v1h-1z M43,37h1v1h-1z M45,37h1v1h-1z M46,37h1v1h-1z M47,37h1v1h-1z M48,37h1v1h-1z M50,37h1v1h-1z M51,37h1v1h-1z M54,37h1v1h-1z M57,37h1v1h-1z M58,37h1v1h-1z M59,37h1v1h-1z M62,37h1v1h-1z M63,37h1v1h-1z M64,37h1v1h-1z M65,37h1v1h-1z M66,37h1v1h-1z M67,37h1v1h-1z M68,37h1v1h-1z M69,37h1v1h-1z M70,37h1v1h-1z M71,37h1v1h-1z M73,37h1v1h-1z M74,37h1v1h-1z M75,37h1v1h-1z M76,37h1v1h-1z M77,37h1v1h-1z M79,37h1v1h-1z M80,37h1v1h-1z M81,37h1v1h-1z M82,37h1v1h-1z M83,37h1v1h-1z M84,37h1v1h-1z M85,37h1v1h-1z M86,37h1v1h-1z M87,37h1v1h-1z M88,37h1v1h-1z M89,37h1v1h-1z M93,37h1v1h-1z M96,37h1v1h-1z M97,37h1v1h-1z M98,37h1v1h-1z M100,37h1v1h-1z M101,37h1v1h-1z M103,37h1v1h-1z M104,37h1v1h-1z M107,37h1v1h-1z M5,38h1v1h-1z M6,38h1v1h-1z M9,38h1v1h-1z M10,38h1v1h-1z M12,38h1v1h-1z M14,38h1v1h-1z M15,38h1v1h-1z M17,38h1v1h-1z M20,38h1v1h-1z M21,38h1v1h-1z M26,38h1v1h-1z M27,38h1v1h-1z M29,38h1v1h-1z M30,38h1v1h-1z M31,38h1v1h-1z M35,38h1v1h-1z M38,38h1v1h-1z M40,38h1v1h-1z M41,38h1v1h-1z M47,38h1v1h-1z M48,38h1v1h-1z M50,38h1v1h-1z M52,38h1v1h-1z M56,38h1v1h-1z M60,38h1v1h-1z M62,38h1v1h-1z M65,38h1v1h-1z M71,38h1v1h-1z M72,38h1v1h-1z M74,38h1v1h-1z M75,38h1v1h-1z M77,38h1v1h-1z M79,38h1v1h-1z M80,38h1v1h-1z M81,38h1v1h-1z M84,38h1v1h-1z M86,38h1v1h-1z M88,38h1v1h-1z M91,38h1v1h-1z M96,38h1v1h-1z M98,38h1v1h-1z M100,38h1v1h-1z M103,38h1v1h-1z M104,38h1v1h-1z M105,38h1v1h-1z M107,38h1v1h-1z M4,39h1v1h-1z M8,39h1v1h-1z M9,39h1v1h-1z M13,39h1v1h-1z M14,39h1v1h-1z M16,39h1v1h-1z M17,39h1v1h-1z M20,39h1v1h-1z M22,39h1v1h-1z M23,39h1v1h-1z M28,39h1v1h-1z M29,39h1v1h-1z M31,39h1v1h-1z M35,39h1v1h-1z M38,39h1v1h-1z M39,39h1v1h-1z M43,39h1v1h-1z M44,39h1v1h-1z M45,39h1v1h-1z M47,39h1v1h-1z M49,39h1v1h-1z M51,39h1v1h-1z M52,39h1v1h-1z M57,39h1v1h-1z M58,39h1v1h-1z M59,39h1v1h-1z M61,39h1v1h-1z M66,39h1v1h-1z M68,39h1v1h-1z M70,39h1v1h-1z M71,39h1v1h-1z M74,39h1v1h-1z M75,39h1v1h-1z M76,39h1v1h-1z M77,39h1v1h-1z M79,39h1v1h-1z M81,39h1v1h-1z M82,39h1v1h-1z M83,39h1v1h-1z M85,39h1v1h-1z M86,39h1v1h-1z M89,39h1v1h-1z M90,39h1v1h-1z M92,39h1v1h-1z M93,39h1v1h-1z M94,39h1v1h-1z M95,39h1v1h-1z M99,39h1v1h-1z M102,39h1v1h-1z M104,39h1v1h-1z M107,39h1v1h-1z M108,39h1v1h-1z M4,40h1v1h-1z M5,40h1v1h-1z M6,40h1v1h-1z M8,40h1v1h-1z M10,40h1v1h-1z M13,40h1v1h-1z M14,40h1v1h-1z M15,40h1v1h-1z M18,40h1v1h-1z M19,40h1v1h-1z M21,40h1v1h-1z M22,40h1v1h-1z M23,40h1v1h-1z M24,40h1v1h-1z M25,40h1v1h-1z M26,40h1v1h-1z M28,40h1v1h-1z M29,40h1v1h-1z M31,40h1v1h-1z M35,40h1v1h-1z M39,40h1v1h-1z M40,40h1v1h-1z M41,40h1v1h-1z M43,40h1v1h-1z M44,40h1v1h-1z M46,40h1v1h-1z M48,40h1v1h-1z M49,40h1v1h-1z M50,40h1v1h-1z M55,40h1v1h-1z M57,40h1v1h-1z M58,40h1v1h-1z M59,40h1v1h-1z M60,40h1v1h-1z M64,40h1v1h-1z M65,40h1v1h-1z M68,40h1v1h-1z M71,40h1v1h-1z M74,40h1v1h-1z M76,40h1v1h-1z M78,40h1v1h-1z M79,40h1v1h-1z M83,40h1v1h-1z M85,40h1v1h-1z M88,40h1v1h-1z M90,40h1v1h-1z M92,40h1v1h-1z M93,40h1v1h-1z M95,40h1v1h-1z M96,40h1v1h-1z M98,40h1v1h-1z M99,40h1v1h-1z M100,40h1v1h-1z M102,40h1v1h-1z M103,40h1v1h-1z M104,40h1v1h-1z M106,40h1v1h-1z M107,40h1v1h-1z M108,40h1v1h-1z M7,41h1v1h-1z M11,41h1v1h-1z M14,41h1v1h-1z M16,41h1v1h-1z M18,41h1v1h-1z M21,41h1v1h-1z M23,41h1v1h-1z M24,41h1v1h-1z M28,41h1v1h-1z M33,41h1v1h-1z M36,41h1v1h-1z M39,41h1v1h-1z M40,41h1v1h-1z M41,41h1v1h-1z M43,41h1v1h-1z M44,41h1v1h-1z M45,41h1v1h-1z M46,41h1v1h-1z M47,41h1v1h-1z M49,41h1v1h-1z M51,41h1v1h-1z M52,41h1v1h-1z M54,41h1v1h-1z M56,41h1v1h-1z M58,41h1v1h-1z M59,41h1v1h-1z M61,41h1v1h-1z M63,41h1v1h-1z M64,41h1v1h-1z M67,41h1v1h-1z M68,41h1v1h-1z M70,41h1v1h-1z M71,41h1v1h-1z M72,41h1v1h-1z M73,41h1v1h-1z M74,41h1v1h-1z M76,41h1v1h-1z M77,41h1v1h-1z M78,41h1v1h-1z M79,41h1v1h-1z M80,41h1v1h-1z M82,41h1v1h-1z M83,41h1v1h-1z M87,41h1v1h-1z M88,41h1v1h-1z M90,41h1v1h-1z M91,41h1v1h-1z M93,41h1v1h-1z M94,41h1v1h-1z M96,41h1v1h-1z M97,41h1v1h-1z M100,41h1v1h-1z M102,41h1v1h-1z M106,41h1v1h-1z M107,41h1v1h-1z M4,42h1v1h-1z M5,42h1v1h-1z M9,42h1v1h-1z M10,42h1v1h-1z M12,42h1v1h-1z M13,42h1v1h-1z M14,42h1v1h-1z M17,42h1v1h-1z M21,42h1v1h-1z M22,42h1v1h-1z M23,42h1v1h-1z M29,42h1v1h-1z M30,42h1v1h-1z M31,42h1v1h-1z M33,42h1v1h-1z M38,42h1v1h-1z M40,42h1v1h-1z M41,42h1v1h-1z M43,42h1v1h-1z M47,42h1v1h-1z M48,42h1v1h-1z M50,42h1v1h-1z M51,42h1v1h-1z M55,42h1v1h-1z M57,42h1v1h-1z M60,42h1v1h-1z M62,42h1v1h-1z M64,42h1v1h-1z M65,42h1v1h-1z M72,42h1v1h-1z M73,42h1v1h-1z M74,42h1v1h-1z M76,42h1v1h-1z M78,42h1v1h-1z M86,42h1v1h-1z M89,42h1v1h-1z M91,42h1v1h-1z M92,42h1v1h-1z M95,42h1v1h-1z M96,42h1v1h-1z M98,42h1v1h-1z M99,42h1v1h-1z M100,42h1v1h-1z M104,42h1v1h-1z M106,42h1v1h-1z M107,42h1v1h-1z M5,43h1v1h-1z M6,43h1v1h-1z M8,43h1v1h-1z M11,43h1v1h-1z M12,43h1v1h-1z M14,43h1v1h-1z M16,43h1v1h-1z M17,43h1v1h-1z M18,43h1v1h-1z M20,43h1v1h-1z M27,43h1v1h-1z M28,43h1v1h-1z M29,43h1v1h-1z M34,43h1v1h-1z M35,43h1v1h-1z M42,43h1v1h-1z M44,43h1v1h-1z M47,43h1v1h-1z M49,43h1v1h-1z M51,43h1v1h-1z M52,43h1v1h-1z M53,43h1v1h-1z M55,43h1v1h-1z M56,43h1v1h-1z M58,43h1v1h-1z M59,43h1v1h-1z M61,43h1v1h-1z M62,43h1v1h-1z M63,43h1v1h-1z M67,43h1v1h-1z M68,43h1v1h-1z M70,43h1v1h-1z M71,43h1v1h-1z M75,43h1v1h-1z M76,43h1v1h-1z M77,43h1v1h-1z M81,43h1v1h-1z M82,43h1v1h-1z M83,43h1v1h-1z M89,43h1v1h-1z M92,43h1v1h-1z M93,43h1v1h-1z M94,43h1v1h-1z M97,43h1v1h-1z M99,43h1v1h-1z M100,43h1v1h-1z M102,43h1v1h-1z M104,43h1v1h-1z M107,43h1v1h-1z M4,44h1v1h-1z M5,44h1v1h-1z M7,44h1v1h-1z M10,44h1v1h-1z M11,44h1v1h-1z M15,44h1v1h-1z M17,44h1v1h-1z M19,44h1v1h-1z M21,44h1v1h-1z M22,44h1v1h-1z M25,44h1v1h-1z M26,44h1v1h-1z M27,44h1v1h-1z M28,44h1v1h-1z M29,44h1v1h-1z M30,44h1v1h-1z M34,44h1v1h-1z M37,44h1v1h-1z M40,44h1v1h-1z M44,44h1v1h-1z M46,44h1v1h-1z M47,44h1v1h-1z M48,44h1v1h-1z M55,44h1v1h-1z M57,44h1v1h-1z M62,44h1v1h-1z M65,44h1v1h-1z M67,44h1v1h-1z M70,44h1v1h-1z M71,44h1v1h-1z M72,44h1v1h-1z M74,44h1v1h-1z M77,44h1v1h-1z M82,44h1v1h-1z M83,44h1v1h-1z M85,44h1v1h-1z M87,44h1v1h-1z M91,44h1v1h-1z M92,44h1v1h-1z M94,44h1v1h-1z M98,44h1v1h-1z M99,44h1v1h-1z M100,44h1v1h-1z M102,44h1v1h-1z M103,44h1v1h-1z M106,44h1v1h-1z M4,45h1v1h-1z M6,45h1v1h-1z M8,45h1v1h-1z M13,45h1v1h-1z M16,45h1v1h-1z M17,45h1v1h-1z M20,45h1v1h-1z M22,45h1v1h-1z M23,45h1v1h-1z M26,45h1v1h-1z M28,45h1v1h-1z M29,45h1v1h-1z M33,45h1v1h-1z M36,45h1v1h-1z M37,45h1v1h-1z M41,45h1v1h-1z M42,45h1v1h-1z M43,45h1v1h-1z M45,45h1v1h-1z M46,45h1v1h-1z M47,45h1v1h-1z M48,45h1v1h-1z M51,45h1v1h-1z M53,45h1v1h-1z M54,45h1v1h-1z M56,45h1v1h-1z M58,45h1v1h-1z M59,45h1v1h-1z M60,45h1v1h-1z M64,45h1v1h-1z M66,45h1v1h-1z M69,45h1v1h-1z M72,45h1v1h-1z M73,45h1v1h-1z M74,45h1v1h-1z M76,45h1v1h-1z M77,45h1v1h-1z M79,45h1v1h-1z M80,45h1v1h-1z M83,45h1v1h-1z M85,45h1v1h-1z M86,45h1v1h-1z M88,45h1v1h-1z M91,45h1v1h-1z M93,45h1v1h-1z M95,45h1v1h-1z M98,45h1v1h-1z M102,45h1v1h-1z M104,45h1v1h-1z M105,45h1v1h-1z M106,45h1v1h-1z M5,46h1v1h-1z M6,46h1v1h-1z M7,46h1v1h-1z M9,46h1v1h-1z M10,46h1v1h-1z M14,46h1v1h-1z M15,46h1v1h-1z M16,46h1v1h-1z M20,46h1v1h-1z M21,46h1v1h-1z M23,46h1v1h-1z M27,46h1v1h-1z M31,46h1v1h-1z M33,46h1v1h-1z M37,46h1v1h-1z M38,46h1v1h-1z M40,46h1v1h-1z M44,46h1v1h-1z M50,46h1v1h-1z M51,46h1v1h-1z M53,46h1v1h-1z M54,46h1v1h-1z M55,46h1v1h-1z M60,46h1v1h-1z M62,46h1v1h-1z M64,46h1v1h-1z M65,46h1v1h-1z M71,46h1v1h-1z M72,46h1v1h-1z M74,46h1v1h-1z M75,46h1v1h-1z M76,46h1v1h-1z M77,46h1v1h-1z M79,46h1v1h-1z M80,46h1v1h-1z M84,46h1v1h-1z M86,46h1v1h-1z M88,46h1v1h-1z M89,46h1v1h-1z M91,46h1v1h-1z M92,46h1v1h-1z M95,46h1v1h-1z M96,46h1v1h-1z M97,46h1v1h-1z M98,46h1v1h-1z M101,46h1v1h-1z M104,46h1v1h-1z M105,46h1v1h-1z M4,47h1v1h-1z M6,47h1v1h-1z M8,47h1v1h-1z M12,47h1v1h-1z M15,47h1v1h-1z M16,47h1v1h-1z M19,47h1v1h-1z M20,47h1v1h-1z M21,47h1v1h-1z M24,47h1v1h-1z M26,47h1v1h-1z M29,47h1v1h-1z M31,47h1v1h-1z M34,47h1v1h-1z M35,47h1v1h-1z M39,47h1v1h-1z M41,47h1v1h-1z M42,47h1v1h-1z M44,47h1v1h-1z M47,47h1v1h-1z M50,47h1v1h-1z M53,47h1v1h-1z M55,47h1v1h-1z M56,47h1v1h-1z M58,47h1v1h-1z M59,47h1v1h-1z M63,47h1v1h-1z M67,47h1v1h-1z M68,47h1v1h-1z M75,47h1v1h-1z M76,47h1v1h-1z M77,47h1v1h-1z M79,47h1v1h-1z M80,47h1v1h-1z M82,47h1v1h-1z M83,47h1v1h-1z M85,47h1v1h-1z M87,47h1v1h-1z M89,47h1v1h-1z M90,47h1v1h-1z M92,47h1v1h-1z M93,47h1v1h-1z M94,47h1v1h-1z M99,47h1v1h-1z M100,47h1v1h-1z M102,47h1v1h-1z M104,47h1v1h-1z M105,47h1v1h-1z M108,47h1v1h-1z M5,48h1v1h-1z M7,48h1v1h-1z M8,48h1v1h-1z M10,48h1v1h-1z M16,48h1v1h-1z M20,48h1v1h-1z M21,48h1v1h-1z M23,48h1v1h-1z M26,48h1v1h-1z M33,48h1v1h-1z M34,48h1v1h-1z M36,48h1v1h-1z M38,48h1v1h-1z M40,48h1v1h-1z M44,48h1v1h-1z M45,48h1v1h-1z M47,48h1v1h-1z M49,48h1v1h-1z M52,48h1v1h-1z M53,48h1v1h-1z M55,48h1v1h-1z M57,48h1v1h-1z M58,48h1v1h-1z M59,48h1v1h-1z M61,48h1v1h-1z M66,48h1v1h-1z M67,48h1v1h-1z M68,48h1v1h-1z M70,48h1v1h-1z M71,48h1v1h-1z M72,48h1v1h-1z M76,48h1v1h-1z M77,48h1v1h-1z M78,48h1v1h-1z M79,48h1v1h-1z M81,48h1v1h-1z M82,48h1v1h-1z M84,48h1v1h-1z M87,48h1v1h-1z M88,48h1v1h-1z M91,48h1v1h-1z M92,48h1v1h-1z M95,48h1v1h-1z M96,48h1v1h-1z M97,48h1v1h-1z M100,48h1v1h-1z M102,48h1v1h-1z M103,48h1v1h-1z M105,48h1v1h-1z M107,48h1v1h-1z M4,49h1v1h-1z M6,49h1v1h-1z M7,49h1v1h-1z M11,49h1v1h-1z M12,49h1v1h-1z M14,49h1v1h-1z M15,49h1v1h-1z M17,49h1v1h-1z M18,49h1v1h-1z M20,49h1v1h-1z M22,49h1v1h-1z M23,49h1v1h-1z M25,49h1v1h-1z M26,49h1v1h-1z M27,49h1v1h-1z M28,49h1v1h-1z M30,49h1v1h-1z M31,49h1v1h-1z M32,49h1v1h-1z M35,49h1v1h-1z M39,49h1v1h-1z M40,49h1v1h-1z M42,49h1v1h-1z M48,49h1v1h-1z M49,49h1v1h-1z M50,49h1v1h-1z M51,49h1v1h-1z M52,49h1v1h-1z M53,49h1v1h-1z M55,49h1v1h-1z M56,49h1v1h-1z M57,49h1v1h-1z M58,49h1v1h-1z M59,49h1v1h-1z M60,49h1v1h-1z M61,49h1v1h-1z M62,49h1v1h-1z M63,49h1v1h-1z M64,49h1v1h-1z M65,49h1v1h-1z M67,49h1v1h-1z M68,49h1v1h-1z M69,49h1v1h-1z M70,49h1v1h-1z M71,49h1v1h-1z M72,49h1v1h-1z M73,49h1v1h-1z M74,49h1v1h-1z M75,49h1v1h-1z M76,49h1v1h-1z M78,49h1v1h-1z M79,49h1v1h-1z M82,49h1v1h-1z M83,49h1v1h-1z M85,49h1v1h-1z M86,49h1v1h-1z M87,49h1v1h-1z M88,49h1v1h-1z M89,49h1v1h-1z M91,49h1v1h-1z M92,49h1v1h-1z M93,49h1v1h-1z M94,49h1v1h-1z M97,49h1v1h-1z M98,49h1v1h-1z M103,49h1v1h-1z M104,49h1v1h-1z M105,49h1v1h-1z M106,49h1v1h-1z M8,50h1v1h-1z M9,50h1v1h-1z M10,50h1v1h-1z M11,50h1v1h-1z M12,50h1v1h-1z M18,50h1v1h-1z M20,50h1v1h-1z M21,50h1v1h-1z M23,50h1v1h-1z M26,50h1v1h-1z M27,50h1v1h-1z M29,50h1v1h-1z M30,50h1v1h-1z M32,50h1v1h-1z M38,50h1v1h-1z M41,50h1v1h-1z M43,50h1v1h-1z M47,50h1v1h-1z M49,50h1v1h-1z M50,50h1v1h-1z M52,50h1v1h-1z M53,50h1v1h-1z M59,50h1v1h-1z M60,50h1v1h-1z M62,50h1v1h-1z M65,50h1v1h-1z M69,50h1v1h-1z M71,50h1v1h-1z M72,50h1v1h-1z M74,50h1v1h-1z M75,50h1v1h-1z M77,50h1v1h-1z M78,50h1v1h-1z M80,50h1v1h-1z M83,50h1v1h-1z M84,50h1v1h-1z M86,50h1v1h-1z M87,50h1v1h-1z M93,50h1v1h-1z M96,50h1v1h-1z M98,50h1v1h-1z M99,50h1v1h-1z M100,50h1v1h-1z M103,50h1v1h-1z M105,50h1v1h-1z M5,51h1v1h-1z M8,51h1v1h-1z M11,51h1v1h-1z M12,51h1v1h-1z M15,51h1v1h-1z M16,51h1v1h-1z M17,51h1v1h-1z M19,51h1v1h-1z M21,51h1v1h-1z M23,51h1v1h-1z M24,51h1v1h-1z M27,51h1v1h-1z M28,51h1v1h-1z M29,51h1v1h-1z M31,51h1v1h-1z M34,51h1v1h-1z M35,51h1v1h-1z M38,51h1v1h-1z M41,51h1v1h-1z M42,51h1v1h-1z M44,51h1v1h-1z M46,51h1v1h-1z M47,51h1v1h-1z M56,51h1v1h-1z M59,51h1v1h-1z M65,51h1v1h-1z M67,51h1v1h-1z M68,51h1v1h-1z M70,51h1v1h-1z M71,51h1v1h-1z M73,51h1v1h-1z M75,51h1v1h-1z M76,51h1v1h-1z M83,51h1v1h-1z M85,51h1v1h-1z M86,51h1v1h-1z M89,51h1v1h-1z M90,51h1v1h-1z M91,51h1v1h-1z M92,51h1v1h-1z M94,51h1v1h-1z M95,51h1v1h-1z M99,51h1v1h-1z M100,51h1v1h-1z M101,51h1v1h-1z M102,51h1v1h-1z M104,51h1v1h-1z M107,51h1v1h-1z M108,51h1v1h-1z M4,52h1v1h-1z M6,52h1v1h-1z M8,52h1v1h-1z M9,52h1v1h-1z M10,52h1v1h-1z M11,52h1v1h-1z M12,52h1v1h-1z M13,52h1v1h-1z M14,52h1v1h-1z M15,52h1v1h-1z M16,52h1v1h-1z M17,52h1v1h-1z M19,52h1v1h-1z M21,52h1v1h-1z M23,52h1v1h-1z M24,52h1v1h-1z M25,52h1v1h-1z M26,52h1v1h-1z M28,52h1v1h-1z M29,52h1v1h-1z M30,52h1v1h-1z M31,52h1v1h-1z M32,52h1v1h-1z M37,52h1v1h-1z M38,52h1v1h-1z M40,52h1v1h-1z M41,52h1v1h-1z M42,52h1v1h-1z M43,52h1v1h-1z M45,52h1v1h-1z M47,52h1v1h-1z M49,52h1v1h-1z M52,52h1v1h-1z M53,52h1v1h-1z M54,52h1v1h-1z M55,52h1v1h-1z M56,52h1v1h-1z M57,52h1v1h-1z M59,52h1v1h-1z M61,52h1v1h-1z M63,52h1v1h-1z M66,52h1v1h-1z M67,52h1v1h-1z M70,52h1v1h-1z M72,52h1v1h-1z M73,52h1v1h-1z M74,52h1v1h-1z M76,52h1v1h-1z M77,52h1v1h-1z M78,52h1v1h-1z M79,52h1v1h-1z M80,52h1v1h-1z M81,52h1v1h-1z M82,52h1v1h-1z M83,52h1v1h-1z M84,52h1v1h-1z M87,52h1v1h-1z M88,52h1v1h-1z M89,52h1v1h-1z M91,52h1v1h-1z M92,52h1v1h-1z M94,52h1v1h-1z M95,52h1v1h-1z M100,52h1v1h-1z M101,52h1v1h-1z M102,52h1v1h-1z M103,52h1v1h-1z M104,52h1v1h-1z M4,53h1v1h-1z M6,53h1v1h-1z M8,53h1v1h-1z M12,53h1v1h-1z M14,53h1v1h-1z M16,53h1v1h-1z M17,53h1v1h-1z M18,53h1v1h-1z M19,53h1v1h-1z M22,53h1v1h-1z M28,53h1v1h-1z M32,53h1v1h-1z M34,53h1v1h-1z M37,53h1v1h-1z M39,53h1v1h-1z M40,53h1v1h-1z M47,53h1v1h-1z M48,53h1v1h-1z M51,53h1v1h-1z M52,53h1v1h-1z M56,53h1v1h-1z M59,53h1v1h-1z M61,53h1v1h-1z M62,53h1v1h-1z M64,53h1v1h-1z M65,53h1v1h-1z M66,53h1v1h-1z M67,53h1v1h-1z M70,53h1v1h-1z M72,53h1v1h-1z M73,53h1v1h-1z M74,53h1v1h-1z M75,53h1v1h-1z M76,53h1v1h-1z M80,53h1v1h-1z M84,53h1v1h-1z M85,53h1v1h-1z M86,53h1v1h-1z M89,53h1v1h-1z M90,53h1v1h-1z M93,53h1v1h-1z M95,53h1v1h-1z M96,53h1v1h-1z M97,53h1v1h-1z M100,53h1v1h-1z M104,53h1v1h-1z M106,53h1v1h-1z M107,53h1v1h-1z M108,53h1v1h-1z M4,54h1v1h-1z M7,54h1v1h-1z M8,54h1v1h-1z M10,54h1v1h-1z M12,54h1v1h-1z M14,54h1v1h-1z M15,54h1v1h-1z M19,54h1v1h-1z M20,54h1v1h-1z M21,54h1v1h-1z M24,54h1v1h-1z M25,54h1v1h-1z M28,54h1v1h-1z M30,54h1v1h-1z M32,54h1v1h-1z M38,54h1v1h-1z M39,54h1v1h-1z M41,54h1v1h-1z M43,54h1v1h-1z M44,54h1v1h-1z M48,54h1v1h-1z M50,54h1v1h-1z M52,54h1v1h-1z M54,54h1v1h-1z M56,54h1v1h-1z M59,54h1v1h-1z M60,54h1v1h-1z M62,54h1v1h-1z M63,54h1v1h-1z M64,54h1v1h-1z M65,54h1v1h-1z M67,54h1v1h-1z M68,54h1v1h-1z M69,54h1v1h-1z M72,54h1v1h-1z M74,54h1v1h-1z M75,54h1v1h-1z M76,54h1v1h-1z M78,54h1v1h-1z M80,54h1v1h-1z M83,54h1v1h-1z M84,54h1v1h-1z M86,54h1v1h-1z M88,54h1v1h-1z M96,54h1v1h-1z M98,54h1v1h-1z M99,54h1v1h-1z M100,54h1v1h-1z M102,54h1v1h-1z M104,54h1v1h-1z M107,54h1v1h-1z M7,55h1v1h-1z M8,55h1v1h-1z M12,55h1v1h-1z M14,55h1v1h-1z M15,55h1v1h-1z M16,55h1v1h-1z M17,55h1v1h-1z M19,55h1v1h-1z M20,55h1v1h-1z M24,55h1v1h-1z M26,55h1v1h-1z M27,55h1v1h-1z M28,55h1v1h-1z M32,55h1v1h-1z M33,55h1v1h-1z M35,55h1v1h-1z M37,55h1v1h-1z M44,55h1v1h-1z M45,55h1v1h-1z M46,55h1v1h-1z M47,55h1v1h-1z M52,55h1v1h-1z M56,55h1v1h-1z M57,55h1v1h-1z M59,55h1v1h-1z M65,55h1v1h-1z M66,55h1v1h-1z M68,55h1v1h-1z M70,55h1v1h-1z M71,55h1v1h-1z M74,55h1v1h-1z M75,55h1v1h-1z M76,55h1v1h-1z M80,55h1v1h-1z M86,55h1v1h-1z M89,55h1v1h-1z M90,55h1v1h-1z M92,55h1v1h-1z M99,55h1v1h-1z M100,55h1v1h-1z M104,55h1v1h-1z M108,55h1v1h-1z M5,56h1v1h-1z M6,56h1v1h-1z M8,56h1v1h-1z M9,56h1v1h-1z M10,56h1v1h-1z M11,56h1v1h-1z M12,56h1v1h-1z M13,56h1v1h-1z M14,56h1v1h-1z M15,56h1v1h-1z M16,56h1v1h-1z M17,56h1v1h-1z M19,56h1v1h-1z M22,56h1v1h-1z M23,56h1v1h-1z M24,56h1v1h-1z M26,56h1v1h-1z M28,56h1v1h-1z M29,56h1v1h-1z M30,56h1v1h-1z M31,56h1v1h-1z M32,56h1v1h-1z M35,56h1v1h-1z M37,56h1v1h-1z M40,56h1v1h-1z M42,56h1v1h-1z M43,56h1v1h-1z M45,56h1v1h-1z M47,56h1v1h-1z M49,56h1v1h-1z M52,56h1v1h-1z M53,56h1v1h-1z M54,56h1v1h-1z M55,56h1v1h-1z M56,56h1v1h-1z M57,56h1v1h-1z M58,56h1v1h-1z M61,56h1v1h-1z M65,56h1v1h-1z M66,56h1v1h-1z M67,56h1v1h-1z M70,56h1v1h-1z M72,56h1v1h-1z M73,56h1v1h-1z M75,56h1v1h-1z M76,56h1v1h-1z M77,56h1v1h-1z M78,56h1v1h-1z M79,56h1v1h-1z M80,56h1v1h-1z M82,56h1v1h-1z M85,56h1v1h-1z M87,56h1v1h-1z M89,56h1v1h-1z M91,56h1v1h-1z M98,56h1v1h-1z M99,56h1v1h-1z M100,56h1v1h-1z M101,56h1v1h-1z M102,56h1v1h-1z M103,56h1v1h-1z M104,56h1v1h-1z M105,56h1v1h-1z M107,56h1v1h-1z M108,56h1v1h-1z M6,57h1v1h-1z M7,57h1v1h-1z M8,57h1v1h-1z M9,57h1v1h-1z M12,57h1v1h-1z M16,57h1v1h-1z M18,57h1v1h-1z M23,57h1v1h-1z M25,57h1v1h-1z M26,57h1v1h-1z M27,57h1v1h-1z M31,57h1v1h-1z M36,57h1v1h-1z M38,57h1v1h-1z M39,57h1v1h-1z M40,57h1v1h-1z M41,57h1v1h-1z M42,57h1v1h-1z M45,57h1v1h-1z M48,57h1v1h-1z M49,57h1v1h-1z M50,57h1v1h-1z M51,57h1v1h-1z M52,57h1v1h-1z M53,57h1v1h-1z M55,57h1v1h-1z M57,57h1v1h-1z M60,57h1v1h-1z M61,57h1v1h-1z M62,57h1v1h-1z M63,57h1v1h-1z M68,57h1v1h-1z M69,57h1v1h-1z M70,57h1v1h-1z M71,57h1v1h-1z M72,57h1v1h-1z M73,57h1v1h-1z M75,57h1v1h-1z M81,57h1v1h-1z M82,57h1v1h-1z M84,57h1v1h-1z M86,57h1v1h-1z M88,57h1v1h-1z M89,57h1v1h-1z M90,57h1v1h-1z M92,57h1v1h-1z M94,57h1v1h-1z M95,57h1v1h-1z M97,57h1v1h-1z M98,57h1v1h-1z M99,57h1v1h-1z M100,57h1v1h-1z M102,57h1v1h-1z M103,57h1v1h-1z M106,57h1v1h-1z M5,58h1v1h-1z M10,58h1v1h-1z M11,58h1v1h-1z M15,58h1v1h-1z M18,58h1v1h-1z M19,58h1v1h-1z M20,58h1v1h-1z M21,58h1v1h-1z M22,58h1v1h-1z M25,58h1v1h-1z M26,58h1v1h-1z M30,58h1v1h-1z M35,58h1v1h-1z M36,58h1v1h-1z M38,58h1v1h-1z M39,58h1v1h-1z M47,58h1v1h-1z M48,58h1v1h-1z M50,58h1v1h-1z M54,58h1v1h-1z M57,58h1v1h-1z M59,58h1v1h-1z M60,58h1v1h-1z M62,58h1v1h-1z M63,58h1v1h-1z M64,58h1v1h-1z M65,58h1v1h-1z M71,58h1v1h-1z M72,58h1v1h-1z M73,58h1v1h-1z M74,58h1v1h-1z M75,58h1v1h-1z M80,58h1v1h-1z M83,58h1v1h-1z M84,58h1v1h-1z M86,58h1v1h-1z M88,58h1v1h-1z M89,58h1v1h-1z M92,58h1v1h-1z M95,58h1v1h-1z M96,58h1v1h-1z M97,58h1v1h-1z M98,58h1v1h-1z M99,58h1v1h-1z M100,58h1v1h-1z M103,58h1v1h-1z M104,58h1v1h-1z M106,58h1v1h-1z M107,58h1v1h-1z M4,59h1v1h-1z M5,59h1v1h-1z M6,59h1v1h-1z M8,59h1v1h-1z M12,59h1v1h-1z M13,59h1v1h-1z M15,59h1v1h-1z M16,59h1v1h-1z M17,59h1v1h-1z M18,59h1v1h-1z M19,59h1v1h-1z M22,59h1v1h-1z M24,59h1v1h-1z M26,59h1v1h-1z M29,59h1v1h-1z M33,59h1v1h-1z M41,59h1v1h-1z M42,59h1v1h-1z M44,59h1v1h-1z M50,59h1v1h-1z M52,59h1v1h-1z M55,59h1v1h-1z M58,59h1v1h-1z M59,59h1v1h-1z M61,59h1v1h-1z M62,59h1v1h-1z M66,59h1v1h-1z M68,59h1v1h-1z M69,59h1v1h-1z M70,59h1v1h-1z M75,59h1v1h-1z M79,59h1v1h-1z M80,59h1v1h-1z M81,59h1v1h-1z M82,59h1v1h-1z M83,59h1v1h-1z M86,59h1v1h-1z M87,59h1v1h-1z M89,59h1v1h-1z M90,59h1v1h-1z M92,59h1v1h-1z M95,59h1v1h-1z M101,59h1v1h-1z M102,59h1v1h-1z M7,60h1v1h-1z M8,60h1v1h-1z M10,60h1v1h-1z M19,60h1v1h-1z M22,60h1v1h-1z M26,60h1v1h-1z M30,60h1v1h-1z M33,60h1v1h-1z M34,60h1v1h-1z M36,60h1v1h-1z M37,60h1v1h-1z M38,60h1v1h-1z M40,60h1v1h-1z M41,60h1v1h-1z M43,60h1v1h-1z M44,60h1v1h-1z M46,60h1v1h-1z M47,60h1v1h-1z M51,60h1v1h-1z M52,60h1v1h-1z M54,60h1v1h-1z M59,60h1v1h-1z M65,60h1v1h-1z M72,60h1v1h-1z M73,60h1v1h-1z M77,60h1v1h-1z M78,60h1v1h-1z M86,60h1v1h-1z M88,60h1v1h-1z M89,60h1v1h-1z M91,60h1v1h-1z M98,60h1v1h-1z M99,60h1v1h-1z M102,60h1v1h-1z M106,60h1v1h-1z M107,60h1v1h-1z M4,61h1v1h-1z M5,61h1v1h-1z M6,61h1v1h-1z M9,61h1v1h-1z M15,61h1v1h-1z M16,61h1v1h-1z M17,61h1v1h-1z M18,61h1v1h-1z M20,61h1v1h-1z M21,61h1v1h-1z M22,61h1v1h-1z M26,61h1v1h-1z M27,61h1v1h-1z M28,61h1v1h-1z M29,61h1v1h-1z M31,61h1v1h-1z M34,61h1v1h-1z M36,61h1v1h-1z M38,61h1v1h-1z M43,61h1v1h-1z M45,61h1v1h-1z M47,61h1v1h-1z M48,61h1v1h-1z M51,61h1v1h-1z M53,61h1v1h-1z M54,61h1v1h-1z M55,61h1v1h-1z M60,61h1v1h-1z M61,61h1v1h-1z M62,61h1v1h-1z M64,61h1v1h-1z M68,61h1v1h-1z M71,61h1v1h-1z M72,61h1v1h-1z M75,61h1v1h-1z M79,61h1v1h-1z M81,61h1v1h-1z M83,61h1v1h-1z M84,61h1v1h-1z M88,61h1v1h-1z M90,61h1v1h-1z M91,61h1v1h-1z M93,61h1v1h-1z M100,61h1v1h-1z M101,61h1v1h-1z M102,61h1v1h-1z M105,61h1v1h-1z M106,61h1v1h-1z M107,61h1v1h-1z M108,61h1v1h-1z M4,62h1v1h-1z M6,62h1v1h-1z M9,62h1v1h-1z M10,62h1v1h-1z M11,62h1v1h-1z M13,62h1v1h-1z M14,62h1v1h-1z M17,62h1v1h-1z M18,62h1v1h-1z M20,62h1v1h-1z M23,62h1v1h-1z M25,62h1v1h-1z M26,62h1v1h-1z M29,62h1v1h-1z M32,62h1v1h-1z M35,62h1v1h-1z M38,62h1v1h-1z M39,62h1v1h-1z M45,62h1v1h-1z M47,62h1v1h-1z M48,62h1v1h-1z M49,62h1v1h-1z M50,62h1v1h-1z M53,62h1v1h-1z M55,62h1v1h-1z M59,62h1v1h-1z M60,62h1v1h-1z M62,62h1v1h-1z M67,62h1v1h-1z M68,62h1v1h-1z M73,62h1v1h-1z M74,62h1v1h-1z M75,62h1v1h-1z M77,62h1v1h-1z M80,62h1v1h-1z M83,62h1v1h-1z M86,62h1v1h-1z M87,62h1v1h-1z M88,62h1v1h-1z M89,62h1v1h-1z M91,62h1v1h-1z M93,62h1v1h-1z M95,62h1v1h-1z M96,62h1v1h-1z M98,62h1v1h-1z M101,62h1v1h-1z M102,62h1v1h-1z M104,62h1v1h-1z M105,62h1v1h-1z M106,62h1v1h-1z M107,62h1v1h-1z M6,63h1v1h-1z M7,63h1v1h-1z M12,63h1v1h-1z M13,63h1v1h-1z M15,63h1v1h-1z M17,63h1v1h-1z M18,63h1v1h-1z M20,63h1v1h-1z M21,63h1v1h-1z M23,63h1v1h-1z M27,63h1v1h-1z M28,63h1v1h-1z M29,63h1v1h-1z M30,63h1v1h-1z M31,63h1v1h-1z M32,63h1v1h-1z M35,63h1v1h-1z M37,63h1v1h-1z M41,63h1v1h-1z M42,63h1v1h-1z M43,63h1v1h-1z M44,63h1v1h-1z M46,63h1v1h-1z M54,63h1v1h-1z M56,63h1v1h-1z M57,63h1v1h-1z M59,63h1v1h-1z M65,63h1v1h-1z M66,63h1v1h-1z M68,63h1v1h-1z M70,63h1v1h-1z M71,63h1v1h-1z M76,63h1v1h-1z M77,63h1v1h-1z M78,63h1v1h-1z M79,63h1v1h-1z M80,63h1v1h-1z M83,63h1v1h-1z M85,63h1v1h-1z M86,63h1v1h-1z M90,63h1v1h-1z M92,63h1v1h-1z M94,63h1v1h-1z M98,63h1v1h-1z M99,63h1v1h-1z M102,63h1v1h-1z M5,64h1v1h-1z M7,64h1v1h-1z M10,64h1v1h-1z M11,64h1v1h-1z M15,64h1v1h-1z M16,64h1v1h-1z M17,64h1v1h-1z M18,64h1v1h-1z M19,64h1v1h-1z M20,64h1v1h-1z M21,64h1v1h-1z M28,64h1v1h-1z M30,64h1v1h-1z M31,64h1v1h-1z M35,64h1v1h-1z M36,64h1v1h-1z M37,64h1v1h-1z M41,64h1v1h-1z M44,64h1v1h-1z M45,64h1v1h-1z M46,64h1v1h-1z M49,64h1v1h-1z M52,64h1v1h-1z M53,64h1v1h-1z M54,64h1v1h-1z M55,64h1v1h-1z M57,64h1v1h-1z M58,64h1v1h-1z M60,64h1v1h-1z M62,64h1v1h-1z M63,64h1v1h-1z M64,64h1v1h-1z M65,64h1v1h-1z M66,64h1v1h-1z M67,64h1v1h-1z M68,64h1v1h-1z M71,64h1v1h-1z M72,64h1v1h-1z M73,64h1v1h-1z M77,64h1v1h-1z M78,64h1v1h-1z M79,64h1v1h-1z M80,64h1v1h-1z M83,64h1v1h-1z M84,64h1v1h-1z M85,64h1v1h-1z M86,64h1v1h-1z M87,64h1v1h-1z M89,64h1v1h-1z M92,64h1v1h-1z M93,64h1v1h-1z M94,64h1v1h-1z M101,64h1v1h-1z M103,64h1v1h-1z M105,64h1v1h-1z M107,64h1v1h-1z M4,65h1v1h-1z M7,65h1v1h-1z M9,65h1v1h-1z M11,65h1v1h-1z M12,65h1v1h-1z M13,65h1v1h-1z M14,65h1v1h-1z M15,65h1v1h-1z M16,65h1v1h-1z M18,65h1v1h-1z M22,65h1v1h-1z M24,65h1v1h-1z M26,65h1v1h-1z M29,65h1v1h-1z M30,65h1v1h-1z M31,65h1v1h-1z M34,65h1v1h-1z M35,65h1v1h-1z M38,65h1v1h-1z M40,65h1v1h-1z M41,65h1v1h-1z M42,65h1v1h-1z M48,65h1v1h-1z M55,65h1v1h-1z M58,65h1v1h-1z M69,65h1v1h-1z M76,65h1v1h-1z M82,65h1v1h-1z M84,65h1v1h-1z M88,65h1v1h-1z M89,65h1v1h-1z M90,65h1v1h-1z M92,65h1v1h-1z M96,65h1v1h-1z M97,65h1v1h-1z M99,65h1v1h-1z M100,65h1v1h-1z M102,65h1v1h-1z M103,65h1v1h-1z M104,65h1v1h-1z M106,65h1v1h-1z M108,65h1v1h-1z M4,66h1v1h-1z M7,66h1v1h-1z M10,66h1v1h-1z M11,66h1v1h-1z M12,66h1v1h-1z M14,66h1v1h-1z M15,66h1v1h-1z M17,66h1v1h-1z M18,66h1v1h-1z M19,66h1v1h-1z M20,66h1v1h-1z M21,66h1v1h-1z M22,66h1v1h-1z M24,66h1v1h-1z M26,66h1v1h-1z M29,66h1v1h-1z M31,66h1v1h-1z M32,66h1v1h-1z M35,66h1v1h-1z M36,66h1v1h-1z M38,66h1v1h-1z M39,66h1v1h-1z M40,66h1v1h-1z M41,66h1v1h-1z M43,66h1v1h-1z M50,66h1v1h-1z M53,66h1v1h-1z M55,66h1v1h-1z M56,66h1v1h-1z M60,66h1v1h-1z M62,66h1v1h-1z M63,66h1v1h-1z M64,66h1v1h-1z M65,66h1v1h-1z M67,66h1v1h-1z M68,66h1v1h-1z M69,66h1v1h-1z M71,66h1v1h-1z M72,66h1v1h-1z M74,66h1v1h-1z M77,66h1v1h-1z M78,66h1v1h-1z M79,66h1v1h-1z M84,66h1v1h-1z M86,66h1v1h-1z M87,66h1v1h-1z M88,66h1v1h-1z M89,66h1v1h-1z M93,66h1v1h-1z M98,66h1v1h-1z M99,66h1v1h-1z M100,66h1v1h-1z M102,66h1v1h-1z M103,66h1v1h-1z M104,66h1v1h-1z M107,66h1v1h-1z M4,67h1v1h-1z M7,67h1v1h-1z M8,67h1v1h-1z M9,67h1v1h-1z M11,67h1v1h-1z M12,67h1v1h-1z M13,67h1v1h-1z M16,67h1v1h-1z M18,67h1v1h-1z M19,67h1v1h-1z M25,67h1v1h-1z M27,67h1v1h-1z M28,67h1v1h-1z M29,67h1v1h-1z M35,67h1v1h-1z M37,67h1v1h-1z M41,67h1v1h-1z M44,67h1v1h-1z M45,67h1v1h-1z M46,67h1v1h-1z M47,67h1v1h-1z M49,67h1v1h-1z M50,67h1v1h-1z M51,67h1v1h-1z M53,67h1v1h-1z M54,67h1v1h-1z M57,67h1v1h-1z M58,67h1v1h-1z M59,67h1v1h-1z M61,67h1v1h-1z M62,67h1v1h-1z M66,67h1v1h-1z M68,67h1v1h-1z M70,67h1v1h-1z M73,67h1v1h-1z M74,67h1v1h-1z M76,67h1v1h-1z M80,67h1v1h-1z M83,67h1v1h-1z M86,67h1v1h-1z M90,67h1v1h-1z M92,67h1v1h-1z M94,67h1v1h-1z M95,67h1v1h-1z M98,67h1v1h-1z M99,67h1v1h-1z M100,67h1v1h-1z M4,68h1v1h-1z M5,68h1v1h-1z M6,68h1v1h-1z M9,68h1v1h-1z M10,68h1v1h-1z M14,68h1v1h-1z M15,68h1v1h-1z M16,68h1v1h-1z M17,68h1v1h-1z M21,68h1v1h-1z M22,68h1v1h-1z M24,68h1v1h-1z M27,68h1v1h-1z M30,68h1v1h-1z M33,68h1v1h-1z M36,68h1v1h-1z M39,68h1v1h-1z M41,68h1v1h-1z M43,68h1v1h-1z M44,68h1v1h-1z M45,68h1v1h-1z M46,68h1v1h-1z M49,68h1v1h-1z M50,68h1v1h-1z M51,68h1v1h-1z M52,68h1v1h-1z M54,68h1v1h-1z M56,68h1v1h-1z M58,68h1v1h-1z M60,68h1v1h-1z M64,68h1v1h-1z M65,68h1v1h-1z M66,68h1v1h-1z M70,68h1v1h-1z M75,68h1v1h-1z M76,68h1v1h-1z M78,68h1v1h-1z M80,68h1v1h-1z M84,68h1v1h-1z M85,68h1v1h-1z M92,68h1v1h-1z M93,68h1v1h-1z M94,68h1v1h-1z M95,68h1v1h-1z M100,68h1v1h-1z M101,68h1v1h-1z M103,68h1v1h-1z M108,68h1v1h-1z M4,69h1v1h-1z M5,69h1v1h-1z M6,69h1v1h-1z M7,69h1v1h-1z M8,69h1v1h-1z M9,69h1v1h-1z M18,69h1v1h-1z M21,69h1v1h-1z M22,69h1v1h-1z M24,69h1v1h-1z M25,69h1v1h-1z M26,69h1v1h-1z M28,69h1v1h-1z M29,69h1v1h-1z M31,69h1v1h-1z M37,69h1v1h-1z M38,69h1v1h-1z M40,69h1v1h-1z M43,69h1v1h-1z M46,69h1v1h-1z M48,69h1v1h-1z M49,69h1v1h-1z M50,69h1v1h-1z M52,69h1v1h-1z M53,69h1v1h-1z M54,69h1v1h-1z M55,69h1v1h-1z M57,69h1v1h-1z M59,69h1v1h-1z M60,69h1v1h-1z M63,69h1v1h-1z M64,69h1v1h-1z M68,69h1v1h-1z M70,69h1v1h-1z M72,69h1v1h-1z M73,69h1v1h-1z M77,69h1v1h-1z M78,69h1v1h-1z M79,69h1v1h-1z M81,69h1v1h-1z M82,69h1v1h-1z M83,69h1v1h-1z M84,69h1v1h-1z M86,69h1v1h-1z M87,69h1v1h-1z M88,69h1v1h-1z M91,69h1v1h-1z M93,69h1v1h-1z M95,69h1v1h-1z M96,69h1v1h-1z M97,69h1v1h-1z M99,69h1v1h-1z M100,69h1v1h-1z M102,69h1v1h-1z M105,69h1v1h-1z M107,69h1v1h-1z M4,70h1v1h-1z M5,70h1v1h-1z M6,70h1v1h-1z M8,70h1v1h-1z M9,70h1v1h-1z M10,70h1v1h-1z M12,70h1v1h-1z M13,70h1v1h-1z M14,70h1v1h-1z M15,70h1v1h-1z M17,70h1v1h-1z M19,70h1v1h-1z M20,70h1v1h-1z M24,70h1v1h-1z M26,70h1v1h-1z M32,70h1v1h-1z M33,70h1v1h-1z M35,70h1v1h-1z M36,70h1v1h-1z M38,70h1v1h-1z M41,70h1v1h-1z M47,70h1v1h-1z M48,70h1v1h-1z M50,70h1v1h-1z M53,70h1v1h-1z M54,70h1v1h-1z M55,70h1v1h-1z M60,70h1v1h-1z M62,70h1v1h-1z M63,70h1v1h-1z M64,70h1v1h-1z M65,70h1v1h-1z M67,70h1v1h-1z M68,70h1v1h-1z M69,70h1v1h-1z M74,70h1v1h-1z M77,70h1v1h-1z M78,70h1v1h-1z M79,70h1v1h-1z M83,70h1v1h-1z M84,70h1v1h-1z M86,70h1v1h-1z M88,70h1v1h-1z M95,70h1v1h-1z M96,70h1v1h-1z M98,70h1v1h-1z M99,70h1v1h-1z M100,70h1v1h-1z M104,70h1v1h-1z M105,70h1v1h-1z M107,70h1v1h-1z M108,70h1v1h-1z M4,71h1v1h-1z M5,71h1v1h-1z M6,71h1v1h-1z M9,71h1v1h-1z M11,71h1v1h-1z M12,71h1v1h-1z M13,71h1v1h-1z M15,71h1v1h-1z M19,71h1v1h-1z M22,71h1v1h-1z M24,71h1v1h-1z M27,71h1v1h-1z M28,71h1v1h-1z M29,71h1v1h-1z M30,71h1v1h-1z M31,71h1v1h-1z M33,71h1v1h-1z M34,71h1v1h-1z M38,71h1v1h-1z M42,71h1v1h-1z M43,71h1v1h-1z M44,71h1v1h-1z M46,71h1v1h-1z M47,71h1v1h-1z M49,71h1v1h-1z M51,71h1v1h-1z M52,71h1v1h-1z M53,71h1v1h-1z M55,71h1v1h-1z M57,71h1v1h-1z M58,71h1v1h-1z M59,71h1v1h-1z M66,71h1v1h-1z M68,71h1v1h-1z M70,71h1v1h-1z M71,71h1v1h-1z M75,71h1v1h-1z M76,71h1v1h-1z M77,71h1v1h-1z M78,71h1v1h-1z M79,71h1v1h-1z M85,71h1v1h-1z M89,71h1v1h-1z M90,71h1v1h-1z M92,71h1v1h-1z M93,71h1v1h-1z M94,71h1v1h-1z M95,71h1v1h-1z M97,71h1v1h-1z M99,71h1v1h-1z M100,71h1v1h-1z M101,71h1v1h-1z M102,71h1v1h-1z M103,71h1v1h-1z M104,71h1v1h-1z M107,71h1v1h-1z M108,71h1v1h-1z M4,72h1v1h-1z M8,72h1v1h-1z M9,72h1v1h-1z M10,72h1v1h-1z M11,72h1v1h-1z M12,72h1v1h-1z M13,72h1v1h-1z M14,72h1v1h-1z M15,72h1v1h-1z M20,72h1v1h-1z M23,72h1v1h-1z M24,72h1v1h-1z M25,72h1v1h-1z M28,72h1v1h-1z M30,72h1v1h-1z M32,72h1v1h-1z M33,72h1v1h-1z M34,72h1v1h-1z M35,72h1v1h-1z M36,72h1v1h-1z M37,72h1v1h-1z M41,72h1v1h-1z M43,72h1v1h-1z M45,72h1v1h-1z M46,72h1v1h-1z M48,72h1v1h-1z M50,72h1v1h-1z M51,72h1v1h-1z M52,72h1v1h-1z M54,72h1v1h-1z M57,72h1v1h-1z M58,72h1v1h-1z M59,72h1v1h-1z M60,72h1v1h-1z M61,72h1v1h-1z M63,72h1v1h-1z M65,72h1v1h-1z M66,72h1v1h-1z M68,72h1v1h-1z M74,72h1v1h-1z M75,72h1v1h-1z M76,72h1v1h-1z M78,72h1v1h-1z M79,72h1v1h-1z M80,72h1v1h-1z M81,72h1v1h-1z M83,72h1v1h-1z M84,72h1v1h-1z M87,72h1v1h-1z M89,72h1v1h-1z M90,72h1v1h-1z M92,72h1v1h-1z M93,72h1v1h-1z M94,72h1v1h-1z M95,72h1v1h-1z M99,72h1v1h-1z M100,72h1v1h-1z M103,72h1v1h-1z M105,72h1v1h-1z M106,72h1v1h-1z M107,72h1v1h-1z M108,72h1v1h-1z M5,73h1v1h-1z M6,73h1v1h-1z M12,73h1v1h-1z M13,73h1v1h-1z M15,73h1v1h-1z M16,73h1v1h-1z M20,73h1v1h-1z M21,73h1v1h-1z M22,73h1v1h-1z M23,73h1v1h-1z M24,73h1v1h-1z M27,73h1v1h-1z M28,73h1v1h-1z M29,73h1v1h-1z M30,73h1v1h-1z M31,73h1v1h-1z M33,73h1v1h-1z M34,73h1v1h-1z M35,73h1v1h-1z M36,73h1v1h-1z M37,73h1v1h-1z M38,73h1v1h-1z M39,73h1v1h-1z M40,73h1v1h-1z M42,73h1v1h-1z M46,73h1v1h-1z M52,73h1v1h-1z M53,73h1v1h-1z M54,73h1v1h-1z M55,73h1v1h-1z M57,73h1v1h-1z M59,73h1v1h-1z M64,73h1v1h-1z M67,73h1v1h-1z M70,73h1v1h-1z M71,73h1v1h-1z M72,73h1v1h-1z M74,73h1v1h-1z M75,73h1v1h-1z M78,73h1v1h-1z M79,73h1v1h-1z M81,73h1v1h-1z M83,73h1v1h-1z M84,73h1v1h-1z M86,73h1v1h-1z M87,73h1v1h-1z M88,73h1v1h-1z M90,73h1v1h-1z M93,73h1v1h-1z M95,73h1v1h-1z M96,73h1v1h-1z M99,73h1v1h-1z M100,73h1v1h-1z M102,73h1v1h-1z M103,73h1v1h-1z M104,73h1v1h-1z M106,73h1v1h-1z M107,73h1v1h-1z M108,73h1v1h-1z M5,74h1v1h-1z M7,74h1v1h-1z M8,74h1v1h-1z M10,74h1v1h-1z M12,74h1v1h-1z M13,74h1v1h-1z M14,74h1v1h-1z M16,74h1v1h-1z M18,74h1v1h-1z M20,74h1v1h-1z M22,74h1v1h-1z M23,74h1v1h-1z M26,74h1v1h-1z M29,74h1v1h-1z M32,74h1v1h-1z M38,74h1v1h-1z M40,74h1v1h-1z M41,74h1v1h-1z M43,74h1v1h-1z M47,74h1v1h-1z M48,74h1v1h-1z M50,74h1v1h-1z M54,74h1v1h-1z M55,74h1v1h-1z M60,74h1v1h-1z M61,74h1v1h-1z M62,74h1v1h-1z M65,74h1v1h-1z M67,74h1v1h-1z M68,74h1v1h-1z M69,74h1v1h-1z M71,74h1v1h-1z M72,74h1v1h-1z M74,74h1v1h-1z M75,74h1v1h-1z M77,74h1v1h-1z M80,74h1v1h-1z M84,74h1v1h-1z M85,74h1v1h-1z M86,74h1v1h-1z M88,74h1v1h-1z M89,74h1v1h-1z M95,74h1v1h-1z M96,74h1v1h-1z M98,74h1v1h-1z M99,74h1v1h-1z M104,74h1v1h-1z M106,74h1v1h-1z M107,74h1v1h-1z M5,75h1v1h-1z M7,75h1v1h-1z M8,75h1v1h-1z M12,75h1v1h-1z M14,75h1v1h-1z M15,75h1v1h-1z M16,75h1v1h-1z M17,75h1v1h-1z M18,75h1v1h-1z M24,75h1v1h-1z M25,75h1v1h-1z M26,75h1v1h-1z M27,75h1v1h-1z M29,75h1v1h-1z M30,75h1v1h-1z M31,75h1v1h-1z M33,75h1v1h-1z M34,75h1v1h-1z M35,75h1v1h-1z M37,75h1v1h-1z M38,75h1v1h-1z M39,75h1v1h-1z M43,75h1v1h-1z M44,75h1v1h-1z M47,75h1v1h-1z M50,75h1v1h-1z M51,75h1v1h-1z M52,75h1v1h-1z M53,75h1v1h-1z M54,75h1v1h-1z M56,75h1v1h-1z M58,75h1v1h-1z M59,75h1v1h-1z M65,75h1v1h-1z M68,75h1v1h-1z M70,75h1v1h-1z M71,75h1v1h-1z M75,75h1v1h-1z M76,75h1v1h-1z M77,75h1v1h-1z M82,75h1v1h-1z M83,75h1v1h-1z M90,75h1v1h-1z M91,75h1v1h-1z M92,75h1v1h-1z M99,75h1v1h-1z M100,75h1v1h-1z M102,75h1v1h-1z M103,75h1v1h-1z M104,75h1v1h-1z M105,75h1v1h-1z M107,75h1v1h-1z M108,75h1v1h-1z M5,76h1v1h-1z M6,76h1v1h-1z M7,76h1v1h-1z M8,76h1v1h-1z M9,76h1v1h-1z M10,76h1v1h-1z M11,76h1v1h-1z M12,76h1v1h-1z M15,76h1v1h-1z M16,76h1v1h-1z M21,76h1v1h-1z M25,76h1v1h-1z M28,76h1v1h-1z M29,76h1v1h-1z M30,76h1v1h-1z M31,76h1v1h-1z M32,76h1v1h-1z M34,76h1v1h-1z M36,76h1v1h-1z M40,76h1v1h-1z M41,76h1v1h-1z M43,76h1v1h-1z M44,76h1v1h-1z M45,76h1v1h-1z M46,76h1v1h-1z M49,76h1v1h-1z M50,76h1v1h-1z M52,76h1v1h-1z M53,76h1v1h-1z M54,76h1v1h-1z M55,76h1v1h-1z M56,76h1v1h-1z M57,76h1v1h-1z M58,76h1v1h-1z M61,76h1v1h-1z M62,76h1v1h-1z M65,76h1v1h-1z M66,76h1v1h-1z M68,76h1v1h-1z M70,76h1v1h-1z M71,76h1v1h-1z M73,76h1v1h-1z M76,76h1v1h-1z M77,76h1v1h-1z M78,76h1v1h-1z M79,76h1v1h-1z M80,76h1v1h-1z M82,76h1v1h-1z M83,76h1v1h-1z M87,76h1v1h-1z M89,76h1v1h-1z M90,76h1v1h-1z M91,76h1v1h-1z M92,76h1v1h-1z M94,76h1v1h-1z M95,76h1v1h-1z M98,76h1v1h-1z M99,76h1v1h-1z M100,76h1v1h-1z M101,76h1v1h-1z M102,76h1v1h-1z M103,76h1v1h-1z M104,76h1v1h-1z M105,76h1v1h-1z M107,76h1v1h-1z M5,77h1v1h-1z M6,77h1v1h-1z M8,77h1v1h-1z M12,77h1v1h-1z M14,77h1v1h-1z M15,77h1v1h-1z M16,77h1v1h-1z M17,77h1v1h-1z M18,77h1v1h-1z M19,77h1v1h-1z M22,77h1v1h-1z M28,77h1v1h-1z M32,77h1v1h-1z M34,77h1v1h-1z M35,77h1v1h-1z M38,77h1v1h-1z M42,77h1v1h-1z M45,77h1v1h-1z M46,77h1v1h-1z M47,77h1v1h-1z M48,77h1v1h-1z M49,77h1v1h-1z M50,77h1v1h-1z M52,77h1v1h-1z M56,77h1v1h-1z M57,77h1v1h-1z M58,77h1v1h-1z M60,77h1v1h-1z M61,77h1v1h-1z M62,77h1v1h-1z M68,77h1v1h-1z M71,77h1v1h-1z M72,77h1v1h-1z M73,77h1v1h-1z M74,77h1v1h-1z M75,77h1v1h-1z M76,77h1v1h-1z M80,77h1v1h-1z M84,77h1v1h-1z M85,77h1v1h-1z M86,77h1v1h-1z M87,77h1v1h-1z M88,77h1v1h-1z M92,77h1v1h-1z M93,77h1v1h-1z M95,77h1v1h-1z M96,77h1v1h-1z M98,77h1v1h-1z M99,77h1v1h-1z M100,77h1v1h-1z M104,77h1v1h-1z M107,77h1v1h-1z M108,77h1v1h-1z M4,78h1v1h-1z M5,78h1v1h-1z M6,78h1v1h-1z M8,78h1v1h-1z M10,78h1v1h-1z M12,78h1v1h-1z M13,78h1v1h-1z M14,78h1v1h-1z M15,78h1v1h-1z M19,78h1v1h-1z M20,78h1v1h-1z M23,78h1v1h-1z M26,78h1v1h-1z M27,78h1v1h-1z M28,78h1v1h-1z M30,78h1v1h-1z M32,78h1v1h-1z M33,78h1v1h-1z M36,78h1v1h-1z M38,78h1v1h-1z M41,78h1v1h-1z M43,78h1v1h-1z M44,78h1v1h-1z M47,78h1v1h-1z M48,78h1v1h-1z M50,78h1v1h-1z M52,78h1v1h-1z M54,78h1v1h-1z M56,78h1v1h-1z M59,78h1v1h-1z M62,78h1v1h-1z M64,78h1v1h-1z M65,78h1v1h-1z M69,78h1v1h-1z M74,78h1v1h-1z M76,78h1v1h-1z M78,78h1v1h-1z M80,78h1v1h-1z M84,78h1v1h-1z M86,78h1v1h-1z M87,78h1v1h-1z M88,78h1v1h-1z M89,78h1v1h-1z M91,78h1v1h-1z M92,78h1v1h-1z M98,78h1v1h-1z M100,78h1v1h-1z M102,78h1v1h-1z M104,78h1v1h-1z M105,78h1v1h-1z M107,78h1v1h-1z M4,79h1v1h-1z M7,79h1v1h-1z M8,79h1v1h-1z M12,79h1v1h-1z M13,79h1v1h-1z M14,79h1v1h-1z M23,79h1v1h-1z M25,79h1v1h-1z M28,79h1v1h-1z M32,79h1v1h-1z M34,79h1v1h-1z M35,79h1v1h-1z M41,79h1v1h-1z M42,79h1v1h-1z M44,79h1v1h-1z M45,79h1v1h-1z M46,79h1v1h-1z M50,79h1v1h-1z M51,79h1v1h-1z M52,79h1v1h-1z M56,79h1v1h-1z M57,79h1v1h-1z M59,79h1v1h-1z M61,79h1v1h-1z M66,79h1v1h-1z M68,79h1v1h-1z M70,79h1v1h-1z M71,79h1v1h-1z M73,79h1v1h-1z M76,79h1v1h-1z M80,79h1v1h-1z M81,79h1v1h-1z M82,79h1v1h-1z M83,79h1v1h-1z M85,79h1v1h-1z M86,79h1v1h-1z M89,79h1v1h-1z M90,79h1v1h-1z M92,79h1v1h-1z M93,79h1v1h-1z M94,79h1v1h-1z M95,79h1v1h-1z M97,79h1v1h-1z M99,79h1v1h-1z M100,79h1v1h-1z M104,79h1v1h-1z M107,79h1v1h-1z M108,79h1v1h-1z M5,80h1v1h-1z M6,80h1v1h-1z M8,80h1v1h-1z M9,80h1v1h-1z M10,80h1v1h-1z M11,80h1v1h-1z M12,80h1v1h-1z M15,80h1v1h-1z M16,80h1v1h-1z M18,80h1v1h-1z M19,80h1v1h-1z M23,80h1v1h-1z M24,80h1v1h-1z M25,80h1v1h-1z M26,80h1v1h-1z M27,80h1v1h-1z M28,80h1v1h-1z M29,80h1v1h-1z M30,80h1v1h-1z M31,80h1v1h-1z M32,80h1v1h-1z M33,80h1v1h-1z M34,80h1v1h-1z M36,80h1v1h-1z M37,80h1v1h-1z M41,80h1v1h-1z M42,80h1v1h-1z M43,80h1v1h-1z M45,80h1v1h-1z M46,80h1v1h-1z M48,80h1v1h-1z M49,80h1v1h-1z M51,80h1v1h-1z M52,80h1v1h-1z M53,80h1v1h-1z M54,80h1v1h-1z M55,80h1v1h-1z M56,80h1v1h-1z M58,80h1v1h-1z M61,80h1v1h-1z M67,80h1v1h-1z M70,80h1v1h-1z M71,80h1v1h-1z M76,80h1v1h-1z M77,80h1v1h-1z M78,80h1v1h-1z M79,80h1v1h-1z M80,80h1v1h-1z M82,80h1v1h-1z M84,80h1v1h-1z M89,80h1v1h-1z M90,80h1v1h-1z M91,80h1v1h-1z M92,80h1v1h-1z M93,80h1v1h-1z M95,80h1v1h-1z M96,80h1v1h-1z M99,80h1v1h-1z M100,80h1v1h-1z M101,80h1v1h-1z M102,80h1v1h-1z M103,80h1v1h-1z M104,80h1v1h-1z M105,80h1v1h-1z M107,80h1v1h-1z M108,80h1v1h-1z M6,81h1v1h-1z M7,81h1v1h-1z M8,81h1v1h-1z M9,81h1v1h-1z M11,81h1v1h-1z M12,81h1v1h-1z M13,81h1v1h-1z M16,81h1v1h-1z M17,81h1v1h-1z M20,81h1v1h-1z M22,81h1v1h-1z M30,81h1v1h-1z M32,81h1v1h-1z M33,81h1v1h-1z M35,81h1v1h-1z M36,81h1v1h-1z M37,81h1v1h-1z M39,81h1v1h-1z M43,81h1v1h-1z M47,81h1v1h-1z M48,81h1v1h-1z M52,81h1v1h-1z M54,81h1v1h-1z M56,81h1v1h-1z M57,81h1v1h-1z M58,81h1v1h-1z M59,81h1v1h-1z M60,81h1v1h-1z M64,81h1v1h-1z M67,81h1v1h-1z M70,81h1v1h-1z M71,81h1v1h-1z M72,81h1v1h-1z M73,81h1v1h-1z M74,81h1v1h-1z M76,81h1v1h-1z M78,81h1v1h-1z M80,81h1v1h-1z M83,81h1v1h-1z M85,81h1v1h-1z M86,81h1v1h-1z M87,81h1v1h-1z M88,81h1v1h-1z M90,81h1v1h-1z M92,81h1v1h-1z M96,81h1v1h-1z M97,81h1v1h-1z M98,81h1v1h-1z M99,81h1v1h-1z M100,81h1v1h-1z M103,81h1v1h-1z M107,81h1v1h-1z M108,81h1v1h-1z M4,82h1v1h-1z M6,82h1v1h-1z M7,82h1v1h-1z M10,82h1v1h-1z M11,82h1v1h-1z M15,82h1v1h-1z M18,82h1v1h-1z M19,82h1v1h-1z M20,82h1v1h-1z M21,82h1v1h-1z M23,82h1v1h-1z M25,82h1v1h-1z M26,82h1v1h-1z M32,82h1v1h-1z M36,82h1v1h-1z M38,82h1v1h-1z M40,82h1v1h-1z M41,82h1v1h-1z M49,82h1v1h-1z M50,82h1v1h-1z M56,82h1v1h-1z M57,82h1v1h-1z M59,82h1v1h-1z M60,82h1v1h-1z M62,82h1v1h-1z M64,82h1v1h-1z M65,82h1v1h-1z M67,82h1v1h-1z M68,82h1v1h-1z M69,82h1v1h-1z M71,82h1v1h-1z M72,82h1v1h-1z M74,82h1v1h-1z M75,82h1v1h-1z M78,82h1v1h-1z M80,82h1v1h-1z M83,82h1v1h-1z M84,82h1v1h-1z M86,82h1v1h-1z M88,82h1v1h-1z M89,82h1v1h-1z M91,82h1v1h-1z M96,82h1v1h-1z M98,82h1v1h-1z M99,82h1v1h-1z M100,82h1v1h-1z M101,82h1v1h-1z M105,82h1v1h-1z M107,82h1v1h-1z M8,83h1v1h-1z M11,83h1v1h-1z M13,83h1v1h-1z M14,83h1v1h-1z M17,83h1v1h-1z M18,83h1v1h-1z M19,83h1v1h-1z M22,83h1v1h-1z M23,83h1v1h-1z M26,83h1v1h-1z M28,83h1v1h-1z M31,83h1v1h-1z M32,83h1v1h-1z M33,83h1v1h-1z M34,83h1v1h-1z M35,83h1v1h-1z M37,83h1v1h-1z M39,83h1v1h-1z M43,83h1v1h-1z M44,83h1v1h-1z M45,83h1v1h-1z M47,83h1v1h-1z M51,83h1v1h-1z M53,83h1v1h-1z M56,83h1v1h-1z M58,83h1v1h-1z M62,83h1v1h-1z M65,83h1v1h-1z M66,83h1v1h-1z M68,83h1v1h-1z M70,83h1v1h-1z M71,83h1v1h-1z M73,83h1v1h-1z M74,83h1v1h-1z M76,83h1v1h-1z M78,83h1v1h-1z M80,83h1v1h-1z M81,83h1v1h-1z M82,83h1v1h-1z M85,83h1v1h-1z M89,83h1v1h-1z M90,83h1v1h-1z M92,83h1v1h-1z M93,83h1v1h-1z M95,83h1v1h-1z M97,83h1v1h-1z M98,83h1v1h-1z M99,83h1v1h-1z M100,83h1v1h-1z M102,83h1v1h-1z M103,83h1v1h-1z M107,83h1v1h-1z M108,83h1v1h-1z M4,84h1v1h-1z M5,84h1v1h-1z M6,84h1v1h-1z M7,84h1v1h-1z M9,84h1v1h-1z M10,84h1v1h-1z M11,84h1v1h-1z M13,84h1v1h-1z M19,84h1v1h-1z M20,84h1v1h-1z M21,84h1v1h-1z M22,84h1v1h-1z M23,84h1v1h-1z M25,84h1v1h-1z M26,84h1v1h-1z M27,84h1v1h-1z M30,84h1v1h-1z M31,84h1v1h-1z M34,84h1v1h-1z M35,84h1v1h-1z M36,84h1v1h-1z M38,84h1v1h-1z M40,84h1v1h-1z M41,84h1v1h-1z M43,84h1v1h-1z M44,84h1v1h-1z M47,84h1v1h-1z M48,84h1v1h-1z M49,84h1v1h-1z M51,84h1v1h-1z M53,84h1v1h-1z M54,84h1v1h-1z M58,84h1v1h-1z M59,84h1v1h-1z M60,84h1v1h-1z M61,84h1v1h-1z M64,84h1v1h-1z M65,84h1v1h-1z M67,84h1v1h-1z M68,84h1v1h-1z M69,84h1v1h-1z M70,84h1v1h-1z M73,84h1v1h-1z M77,84h1v1h-1z M78,84h1v1h-1z M82,84h1v1h-1z M83,84h1v1h-1z M85,84h1v1h-1z M86,84h1v1h-1z M87,84h1v1h-1z M89,84h1v1h-1z M90,84h1v1h-1z M92,84h1v1h-1z M93,84h1v1h-1z M94,84h1v1h-1z M95,84h1v1h-1z M97,84h1v1h-1z M102,84h1v1h-1z M104,84h1v1h-1z M105,84h1v1h-1z M108,84h1v1h-1z M4,85h1v1h-1z M8,85h1v1h-1z M9,85h1v1h-1z M11,85h1v1h-1z M12,85h1v1h-1z M13,85h1v1h-1z M16,85h1v1h-1z M19,85h1v1h-1z M20,85h1v1h-1z M21,85h1v1h-1z M22,85h1v1h-1z M25,85h1v1h-1z M28,85h1v1h-1z M30,85h1v1h-1z M31,85h1v1h-1z M32,85h1v1h-1z M33,85h1v1h-1z M35,85h1v1h-1z M36,85h1v1h-1z M40,85h1v1h-1z M41,85h1v1h-1z M43,85h1v1h-1z M44,85h1v1h-1z M45,85h1v1h-1z M46,85h1v1h-1z M48,85h1v1h-1z M49,85h1v1h-1z M50,85h1v1h-1z M54,85h1v1h-1z M58,85h1v1h-1z M59,85h1v1h-1z M61,85h1v1h-1z M62,85h1v1h-1z M63,85h1v1h-1z M65,85h1v1h-1z M66,85h1v1h-1z M68,85h1v1h-1z M69,85h1v1h-1z M70,85h1v1h-1z M71,85h1v1h-1z M72,85h1v1h-1z M74,85h1v1h-1z M77,85h1v1h-1z M78,85h1v1h-1z M80,85h1v1h-1z M81,85h1v1h-1z M82,85h1v1h-1z M83,85h1v1h-1z M84,85h1v1h-1z M86,85h1v1h-1z M89,85h1v1h-1z M90,85h1v1h-1z M91,85h1v1h-1z M92,85h1v1h-1z M94,85h1v1h-1z M95,85h1v1h-1z M97,85h1v1h-1z M100,85h1v1h-1z M101,85h1v1h-1z M102,85h1v1h-1z M103,85h1v1h-1z M107,85h1v1h-1z M108,85h1v1h-1z M10,86h1v1h-1z M13,86h1v1h-1z M14,86h1v1h-1z M15,86h1v1h-1z M16,86h1v1h-1z M21,86h1v1h-1z M22,86h1v1h-1z M23,86h1v1h-1z M25,86h1v1h-1z M27,86h1v1h-1z M29,86h1v1h-1z M30,86h1v1h-1z M32,86h1v1h-1z M36,86h1v1h-1z M37,86h1v1h-1z M38,86h1v1h-1z M39,86h1v1h-1z M40,86h1v1h-1z M41,86h1v1h-1z M43,86h1v1h-1z M47,86h1v1h-1z M48,86h1v1h-1z M50,86h1v1h-1z M52,86h1v1h-1z M53,86h1v1h-1z M56,86h1v1h-1z M59,86h1v1h-1z M60,86h1v1h-1z M62,86h1v1h-1z M65,86h1v1h-1z M71,86h1v1h-1z M74,86h1v1h-1z M77,86h1v1h-1z M78,86h1v1h-1z M79,86h1v1h-1z M80,86h1v1h-1z M81,86h1v1h-1z M83,86h1v1h-1z M84,86h1v1h-1z M86,86h1v1h-1z M87,86h1v1h-1z M88,86h1v1h-1z M89,86h1v1h-1z M95,86h1v1h-1z M96,86h1v1h-1z M97,86h1v1h-1z M98,86h1v1h-1z M99,86h1v1h-1z M101,86h1v1h-1z M104,86h1v1h-1z M107,86h1v1h-1z M4,87h1v1h-1z M6,87h1v1h-1z M8,87h1v1h-1z M9,87h1v1h-1z M14,87h1v1h-1z M15,87h1v1h-1z M16,87h1v1h-1z M18,87h1v1h-1z M20,87h1v1h-1z M26,87h1v1h-1z M28,87h1v1h-1z M31,87h1v1h-1z M33,87h1v1h-1z M34,87h1v1h-1z M35,87h1v1h-1z M41,87h1v1h-1z M44,87h1v1h-1z M45,87h1v1h-1z M47,87h1v1h-1z M49,87h1v1h-1z M51,87h1v1h-1z M53,87h1v1h-1z M55,87h1v1h-1z M56,87h1v1h-1z M57,87h1v1h-1z M58,87h1v1h-1z M59,87h1v1h-1z M61,87h1v1h-1z M65,87h1v1h-1z M67,87h1v1h-1z M68,87h1v1h-1z M69,87h1v1h-1z M71,87h1v1h-1z M73,87h1v1h-1z M74,87h1v1h-1z M75,87h1v1h-1z M77,87h1v1h-1z M79,87h1v1h-1z M80,87h1v1h-1z M82,87h1v1h-1z M85,87h1v1h-1z M91,87h1v1h-1z M92,87h1v1h-1z M94,87h1v1h-1z M95,87h1v1h-1z M100,87h1v1h-1z M102,87h1v1h-1z M107,87h1v1h-1z M108,87h1v1h-1z M4,88h1v1h-1z M7,88h1v1h-1z M8,88h1v1h-1z M10,88h1v1h-1z M14,88h1v1h-1z M16,88h1v1h-1z M21,88h1v1h-1z M22,88h1v1h-1z M27,88h1v1h-1z M28,88h1v1h-1z M30,88h1v1h-1z M31,88h1v1h-1z M32,88h1v1h-1z M33,88h1v1h-1z M34,88h1v1h-1z M38,88h1v1h-1z M39,88h1v1h-1z M40,88h1v1h-1z M41,88h1v1h-1z M42,88h1v1h-1z M44,88h1v1h-1z M48,88h1v1h-1z M49,88h1v1h-1z M57,88h1v1h-1z M59,88h1v1h-1z M63,88h1v1h-1z M64,88h1v1h-1z M66,88h1v1h-1z M68,88h1v1h-1z M69,88h1v1h-1z M70,88h1v1h-1z M72,88h1v1h-1z M73,88h1v1h-1z M75,88h1v1h-1z M78,88h1v1h-1z M80,88h1v1h-1z M84,88h1v1h-1z M86,88h1v1h-1z M87,88h1v1h-1z M90,88h1v1h-1z M91,88h1v1h-1z M95,88h1v1h-1z M102,88h1v1h-1z M104,88h1v1h-1z M105,88h1v1h-1z M7,89h1v1h-1z M8,89h1v1h-1z M9,89h1v1h-1z M12,89h1v1h-1z M13,89h1v1h-1z M14,89h1v1h-1z M15,89h1v1h-1z M16,89h1v1h-1z M17,89h1v1h-1z M19,89h1v1h-1z M22,89h1v1h-1z M28,89h1v1h-1z M30,89h1v1h-1z M31,89h1v1h-1z M32,89h1v1h-1z M34,89h1v1h-1z M36,89h1v1h-1z M39,89h1v1h-1z M42,89h1v1h-1z M45,89h1v1h-1z M46,89h1v1h-1z M48,89h1v1h-1z M54,89h1v1h-1z M57,89h1v1h-1z M60,89h1v1h-1z M62,89h1v1h-1z M66,89h1v1h-1z M67,89h1v1h-1z M69,89h1v1h-1z M73,89h1v1h-1z M74,89h1v1h-1z M78,89h1v1h-1z M79,89h1v1h-1z M80,89h1v1h-1z M82,89h1v1h-1z M83,89h1v1h-1z M84,89h1v1h-1z M85,89h1v1h-1z M88,89h1v1h-1z M90,89h1v1h-1z M94,89h1v1h-1z M95,89h1v1h-1z M96,89h1v1h-1z M98,89h1v1h-1z M99,89h1v1h-1z M101,89h1v1h-1z M103,89h1v1h-1z M106,89h1v1h-1z M5,90h1v1h-1z M6,90h1v1h-1z M8,90h1v1h-1z M10,90h1v1h-1z M11,90h1v1h-1z M13,90h1v1h-1z M14,90h1v1h-1z M15,90h1v1h-1z M18,90h1v1h-1z M20,90h1v1h-1z M21,90h1v1h-1z M22,90h1v1h-1z M23,90h1v1h-1z M25,90h1v1h-1z M26,90h1v1h-1z M30,90h1v1h-1z M32,90h1v1h-1z M35,90h1v1h-1z M36,90h1v1h-1z M38,90h1v1h-1z M40,90h1v1h-1z M41,90h1v1h-1z M44,90h1v1h-1z M47,90h1v1h-1z M50,90h1v1h-1z M52,90h1v1h-1z M53,90h1v1h-1z M54,90h1v1h-1z M56,90h1v1h-1z M62,90h1v1h-1z M63,90h1v1h-1z M64,90h1v1h-1z M65,90h1v1h-1z M67,90h1v1h-1z M68,90h1v1h-1z M71,90h1v1h-1z M72,90h1v1h-1z M74,90h1v1h-1z M75,90h1v1h-1z M76,90h1v1h-1z M77,90h1v1h-1z M80,90h1v1h-1z M84,90h1v1h-1z M86,90h1v1h-1z M87,90h1v1h-1z M88,90h1v1h-1z M89,90h1v1h-1z M98,90h1v1h-1z M99,90h1v1h-1z M100,90h1v1h-1z M101,90h1v1h-1z M103,90h1v1h-1z M104,90h1v1h-1z M106,90h1v1h-1z M107,90h1v1h-1z M5,91h1v1h-1z M6,91h1v1h-1z M7,91h1v1h-1z M8,91h1v1h-1z M9,91h1v1h-1z M11,91h1v1h-1z M13,91h1v1h-1z M14,91h1v1h-1z M15,91h1v1h-1z M16,91h1v1h-1z M19,91h1v1h-1z M20,91h1v1h-1z M21,91h1v1h-1z M23,91h1v1h-1z M24,91h1v1h-1z M26,91h1v1h-1z M27,91h1v1h-1z M28,91h1v1h-1z M29,91h1v1h-1z M31,91h1v1h-1z M33,91h1v1h-1z M34,91h1v1h-1z M38,91h1v1h-1z M44,91h1v1h-1z M46,91h1v1h-1z M47,91h1v1h-1z M51,91h1v1h-1z M53,91h1v1h-1z M55,91h1v1h-1z M58,91h1v1h-1z M59,91h1v1h-1z M61,91h1v1h-1z M65,91h1v1h-1z M68,91h1v1h-1z M73,91h1v1h-1z M75,91h1v1h-1z M80,91h1v1h-1z M81,91h1v1h-1z M83,91h1v1h-1z M85,91h1v1h-1z M91,91h1v1h-1z M92,91h1v1h-1z M95,91h1v1h-1z M98,91h1v1h-1z M102,91h1v1h-1z M104,91h1v1h-1z M107,91h1v1h-1z M108,91h1v1h-1z M9,92h1v1h-1z M10,92h1v1h-1z M11,92h1v1h-1z M14,92h1v1h-1z M16,92h1v1h-1z M19,92h1v1h-1z M22,92h1v1h-1z M24,92h1v1h-1z M26,92h1v1h-1z M31,92h1v1h-1z M32,92h1v1h-1z M33,92h1v1h-1z M34,92h1v1h-1z M37,92h1v1h-1z M41,92h1v1h-1z M44,92h1v1h-1z M45,92h1v1h-1z M46,92h1v1h-1z M48,92h1v1h-1z M50,92h1v1h-1z M54,92h1v1h-1z M56,92h1v1h-1z M64,92h1v1h-1z M68,92h1v1h-1z M70,92h1v1h-1z M72,92h1v1h-1z M75,92h1v1h-1z M77,92h1v1h-1z M80,92h1v1h-1z M81,92h1v1h-1z M86,92h1v1h-1z M88,92h1v1h-1z M89,92h1v1h-1z M90,92h1v1h-1z M91,92h1v1h-1z M94,92h1v1h-1z M97,92h1v1h-1z M100,92h1v1h-1z M101,92h1v1h-1z M106,92h1v1h-1z M108,92h1v1h-1z M6,93h1v1h-1z M7,93h1v1h-1z M11,93h1v1h-1z M13,93h1v1h-1z M14,93h1v1h-1z M15,93h1v1h-1z M17,93h1v1h-1z M18,93h1v1h-1z M19,93h1v1h-1z M20,93h1v1h-1z M23,93h1v1h-1z M26,93h1v1h-1z M28,93h1v1h-1z M30,93h1v1h-1z M31,93h1v1h-1z M32,93h1v1h-1z M35,93h1v1h-1z M36,93h1v1h-1z M41,93h1v1h-1z M42,93h1v1h-1z M46,93h1v1h-1z M47,93h1v1h-1z M53,93h1v1h-1z M54,93h1v1h-1z M56,93h1v1h-1z M57,93h1v1h-1z M58,93h1v1h-1z M60,93h1v1h-1z M61,93h1v1h-1z M62,93h1v1h-1z M64,93h1v1h-1z M66,93h1v1h-1z M68,93h1v1h-1z M69,93h1v1h-1z M70,93h1v1h-1z M71,93h1v1h-1z M73,93h1v1h-1z M76,93h1v1h-1z M77,93h1v1h-1z M78,93h1v1h-1z M79,93h1v1h-1z M80,93h1v1h-1z M82,93h1v1h-1z M83,93h1v1h-1z M85,93h1v1h-1z M87,93h1v1h-1z M88,93h1v1h-1z M91,93h1v1h-1z M93,93h1v1h-1z M94,93h1v1h-1z M95,93h1v1h-1z M96,93h1v1h-1z M99,93h1v1h-1z M100,93h1v1h-1z M101,93h1v1h-1z M102,93h1v1h-1z M103,93h1v1h-1z M105,93h1v1h-1z M106,93h1v1h-1z M107,93h1v1h-1z M108,93h1v1h-1z M4,94h1v1h-1z M6,94h1v1h-1z M10,94h1v1h-1z M12,94h1v1h-1z M13,94h1v1h-1z M14,94h1v1h-1z M16,94h1v1h-1z M21,94h1v1h-1z M24,94h1v1h-1z M25,94h1v1h-1z M30,94h1v1h-1z M31,94h1v1h-1z M32,94h1v1h-1z M36,94h1v1h-1z M38,94h1v1h-1z M40,94h1v1h-1z M41,94h1v1h-1z M43,94h1v1h-1z M44,94h1v1h-1z M48,94h1v1h-1z M50,94h1v1h-1z M51,94h1v1h-1z M52,94h1v1h-1z M53,94h1v1h-1z M54,94h1v1h-1z M56,94h1v1h-1z M59,94h1v1h-1z M62,94h1v1h-1z M63,94h1v1h-1z M64,94h1v1h-1z M65,94h1v1h-1z M72,94h1v1h-1z M74,94h1v1h-1z M76,94h1v1h-1z M77,94h1v1h-1z M78,94h1v1h-1z M79,94h1v1h-1z M80,94h1v1h-1z M83,94h1v1h-1z M85,94h1v1h-1z M86,94h1v1h-1z M88,94h1v1h-1z M89,94h1v1h-1z M91,94h1v1h-1z M93,94h1v1h-1z M96,94h1v1h-1z M97,94h1v1h-1z M98,94h1v1h-1z M100,94h1v1h-1z M103,94h1v1h-1z M107,94h1v1h-1z M4,95h1v1h-1z M5,95h1v1h-1z M6,95h1v1h-1z M7,95h1v1h-1z M9,95h1v1h-1z M11,95h1v1h-1z M13,95h1v1h-1z M14,95h1v1h-1z M16,95h1v1h-1z M17,95h1v1h-1z M19,95h1v1h-1z M20,95h1v1h-1z M21,95h1v1h-1z M26,95h1v1h-1z M30,95h1v1h-1z M31,95h1v1h-1z M34,95h1v1h-1z M35,95h1v1h-1z M37,95h1v1h-1z M38,95h1v1h-1z M42,95h1v1h-1z M44,95h1v1h-1z M45,95h1v1h-1z M47,95h1v1h-1z M49,95h1v1h-1z M50,95h1v1h-1z M52,95h1v1h-1z M54,95h1v1h-1z M56,95h1v1h-1z M57,95h1v1h-1z M58,95h1v1h-1z M59,95h1v1h-1z M61,95h1v1h-1z M68,95h1v1h-1z M69,95h1v1h-1z M70,95h1v1h-1z M71,95h1v1h-1z M73,95h1v1h-1z M74,95h1v1h-1z M76,95h1v1h-1z M79,95h1v1h-1z M83,95h1v1h-1z M87,95h1v1h-1z M89,95h1v1h-1z M90,95h1v1h-1z M92,95h1v1h-1z M94,95h1v1h-1z M101,95h1v1h-1z M102,95h1v1h-1z M103,95h1v1h-1z M104,95h1v1h-1z M108,95h1v1h-1z M4,96h1v1h-1z M5,96h1v1h-1z M6,96h1v1h-1z M8,96h1v1h-1z M10,96h1v1h-1z M13,96h1v1h-1z M14,96h1v1h-1z M17,96h1v1h-1z M19,96h1v1h-1z M20,96h1v1h-1z M22,96h1v1h-1z M24,96h1v1h-1z M26,96h1v1h-1z M27,96h1v1h-1z M29,96h1v1h-1z M30,96h1v1h-1z M31,96h1v1h-1z M32,96h1v1h-1z M33,96h1v1h-1z M34,96h1v1h-1z M36,96h1v1h-1z M40,96h1v1h-1z M41,96h1v1h-1z M47,96h1v1h-1z M49,96h1v1h-1z M59,96h1v1h-1z M60,96h1v1h-1z M63,96h1v1h-1z M64,96h1v1h-1z M65,96h1v1h-1z M66,96h1v1h-1z M67,96h1v1h-1z M71,96h1v1h-1z M74,96h1v1h-1z M78,96h1v1h-1z M80,96h1v1h-1z M82,96h1v1h-1z M83,96h1v1h-1z M85,96h1v1h-1z M86,96h1v1h-1z M87,96h1v1h-1z M88,96h1v1h-1z M89,96h1v1h-1z M90,96h1v1h-1z M94,96h1v1h-1z M95,96h1v1h-1z M96,96h1v1h-1z M97,96h1v1h-1z M100,96h1v1h-1z M101,96h1v1h-1z M103,96h1v1h-1z M108,96h1v1h-1z M4,97h1v1h-1z M5,97h1v1h-1z M6,97h1v1h-1z M7,97h1v1h-1z M11,97h1v1h-1z M18,97h1v1h-1z M19,97h1v1h-1z M23,97h1v1h-1z M26,97h1v1h-1z M30,97h1v1h-1z M32,97h1v1h-1z M33,97h1v1h-1z M34,97h1v1h-1z M35,97h1v1h-1z M38,97h1v1h-1z M39,97h1v1h-1z M40,97h1v1h-1z M42,97h1v1h-1z M43,97h1v1h-1z M44,97h1v1h-1z M46,97h1v1h-1z M47,97h1v1h-1z M48,97h1v1h-1z M50,97h1v1h-1z M52,97h1v1h-1z M54,97h1v1h-1z M56,97h1v1h-1z M58,97h1v1h-1z M59,97h1v1h-1z M67,97h1v1h-1z M68,97h1v1h-1z M69,97h1v1h-1z M70,97h1v1h-1z M71,97h1v1h-1z M72,97h1v1h-1z M76,97h1v1h-1z M78,97h1v1h-1z M79,97h1v1h-1z M80,97h1v1h-1z M81,97h1v1h-1z M83,97h1v1h-1z M91,97h1v1h-1z M96,97h1v1h-1z M97,97h1v1h-1z M98,97h1v1h-1z M99,97h1v1h-1z M103,97h1v1h-1z M105,97h1v1h-1z M106,97h1v1h-1z M107,97h1v1h-1z M108,97h1v1h-1z M4,98h1v1h-1z M5,98h1v1h-1z M6,98h1v1h-1z M10,98h1v1h-1z M14,98h1v1h-1z M15,98h1v1h-1z M17,98h1v1h-1z M19,98h1v1h-1z M22,98h1v1h-1z M23,98h1v1h-1z M24,98h1v1h-1z M29,98h1v1h-1z M30,98h1v1h-1z M31,98h1v1h-1z M32,98h1v1h-1z M35,98h1v1h-1z M36,98h1v1h-1z M37,98h1v1h-1z M38,98h1v1h-1z M40,98h1v1h-1z M41,98h1v1h-1z M47,98h1v1h-1z M48,98h1v1h-1z M50,98h1v1h-1z M55,98h1v1h-1z M56,98h1v1h-1z M62,98h1v1h-1z M64,98h1v1h-1z M65,98h1v1h-1z M68,98h1v1h-1z M72,98h1v1h-1z M74,98h1v1h-1z M75,98h1v1h-1z M79,98h1v1h-1z M80,98h1v1h-1z M83,98h1v1h-1z M84,98h1v1h-1z M86,98h1v1h-1z M87,98h1v1h-1z M89,98h1v1h-1z M92,98h1v1h-1z M95,98h1v1h-1z M96,98h1v1h-1z M98,98h1v1h-1z M99,98h1v1h-1z M100,98h1v1h-1z M101,98h1v1h-1z M103,98h1v1h-1z M106,98h1v1h-1z M107,98h1v1h-1z M6,99h1v1h-1z M8,99h1v1h-1z M9,99h1v1h-1z M11,99h1v1h-1z M12,99h1v1h-1z M14,99h1v1h-1z M15,99h1v1h-1z M16,99h1v1h-1z M17,99h1v1h-1z M18,99h1v1h-1z M19,99h1v1h-1z M21,99h1v1h-1z M22,99h1v1h-1z M23,99h1v1h-1z M24,99h1v1h-1z M26,99h1v1h-1z M28,99h1v1h-1z M29,99h1v1h-1z M30,99h1v1h-1z M32,99h1v1h-1z M39,99h1v1h-1z M41,99h1v1h-1z M43,99h1v1h-1z M44,99h1v1h-1z M45,99h1v1h-1z M49,99h1v1h-1z M50,99h1v1h-1z M51,99h1v1h-1z M52,99h1v1h-1z M53,99h1v1h-1z M54,99h1v1h-1z M55,99h1v1h-1z M56,99h1v1h-1z M57,99h1v1h-1z M58,99h1v1h-1z M59,99h1v1h-1z M61,99h1v1h-1z M62,99h1v1h-1z M66,99h1v1h-1z M68,99h1v1h-1z M69,99h1v1h-1z M70,99h1v1h-1z M71,99h1v1h-1z M73,99h1v1h-1z M74,99h1v1h-1z M75,99h1v1h-1z M77,99h1v1h-1z M79,99h1v1h-1z M81,99h1v1h-1z M92,99h1v1h-1z M93,99h1v1h-1z M100,99h1v1h-1z M101,99h1v1h-1z M103,99h1v1h-1z M104,99h1v1h-1z M107,99h1v1h-1z M7,100h1v1h-1z M8,100h1v1h-1z M10,100h1v1h-1z M11,100h1v1h-1z M12,100h1v1h-1z M15,100h1v1h-1z M21,100h1v1h-1z M22,100h1v1h-1z M23,100h1v1h-1z M24,100h1v1h-1z M27,100h1v1h-1z M28,100h1v1h-1z M29,100h1v1h-1z M30,100h1v1h-1z M31,100h1v1h-1z M32,100h1v1h-1z M34,100h1v1h-1z M35,100h1v1h-1z M37,100h1v1h-1z M38,100h1v1h-1z M39,100h1v1h-1z M41,100h1v1h-1z M42,100h1v1h-1z M43,100h1v1h-1z M52,100h1v1h-1z M53,100h1v1h-1z M54,100h1v1h-1z M55,100h1v1h-1z M56,100h1v1h-1z M59,100h1v1h-1z M61,100h1v1h-1z M62,100h1v1h-1z M64,100h1v1h-1z M65,100h1v1h-1z M69,100h1v1h-1z M70,100h1v1h-1z M72,100h1v1h-1z M73,100h1v1h-1z M75,100h1v1h-1z M76,100h1v1h-1z M77,100h1v1h-1z M78,100h1v1h-1z M79,100h1v1h-1z M80,100h1v1h-1z M84,100h1v1h-1z M85,100h1v1h-1z M87,100h1v1h-1z M90,100h1v1h-1z M91,100h1v1h-1z M92,100h1v1h-1z M93,100h1v1h-1z M94,100h1v1h-1z M95,100h1v1h-1z M97,100h1v1h-1z M100,100h1v1h-1z M101,100h1v1h-1z M102,100h1v1h-1z M103,100h1v1h-1z M104,100h1v1h-1z M106,100h1v1h-1z M107,100h1v1h-1z M108,100h1v1h-1z M12,101h1v1h-1z M13,101h1v1h-1z M15,101h1v1h-1z M16,101h1v1h-1z M18,101h1v1h-1z M25,101h1v1h-1z M26,101h1v1h-1z M27,101h1v1h-1z M28,101h1v1h-1z M32,101h1v1h-1z M33,101h1v1h-1z M34,101h1v1h-1z M35,101h1v1h-1z M39,101h1v1h-1z M40,101h1v1h-1z M43,101h1v1h-1z M45,101h1v1h-1z M46,101h1v1h-1z M47,101h1v1h-1z M48,101h1v1h-1z M50,101h1v1h-1z M51,101h1v1h-1z M52,101h1v1h-1z M56,101h1v1h-1z M57,101h1v1h-1z M58,101h1v1h-1z M60,101h1v1h-1z M68,101h1v1h-1z M69,101h1v1h-1z M73,101h1v1h-1z M75,101h1v1h-1z M76,101h1v1h-1z M80,101h1v1h-1z M82,101h1v1h-1z M84,101h1v1h-1z M87,101h1v1h-1z M88,101h1v1h-1z M89,101h1v1h-1z M92,101h1v1h-1z M93,101h1v1h-1z M95,101h1v1h-1z M98,101h1v1h-1z M100,101h1v1h-1z M104,101h1v1h-1z M106,101h1v1h-1z M108,101h1v1h-1z M4,102h1v1h-1z M5,102h1v1h-1z M6,102h1v1h-1z M7,102h1v1h-1z M8,102h1v1h-1z M9,102h1v1h-1z M10,102h1v1h-1z M13,102h1v1h-1z M16,102h1v1h-1z M18,102h1v1h-1z M19,102h1v1h-1z M20,102h1v1h-1z M21,102h1v1h-1z M22,102h1v1h-1z M23,102h1v1h-1z M24,102h1v1h-1z M25,102h1v1h-1z M27,102h1v1h-1z M28,102h1v1h-1z M30,102h1v1h-1z M32,102h1v1h-1z M36,102h1v1h-1z M38,102h1v1h-1z M39,102h1v1h-1z M41,102h1v1h-1z M47,102h1v1h-1z M48,102h1v1h-1z M50,102h1v1h-1z M51,102h1v1h-1z M52,102h1v1h-1z M54,102h1v1h-1z M56,102h1v1h-1z M59,102h1v1h-1z M60,102h1v1h-1z M62,102h1v1h-1z M63,102h1v1h-1z M64,102h1v1h-1z M65,102h1v1h-1z M71,102h1v1h-1z M72,102h1v1h-1z M74,102h1v1h-1z M75,102h1v1h-1z M76,102h1v1h-1z M78,102h1v1h-1z M80,102h1v1h-1z M86,102h1v1h-1z M88,102h1v1h-1z M92,102h1v1h-1z M93,102h1v1h-1z M95,102h1v1h-1z M98,102h1v1h-1z M99,102h1v1h-1z M100,102h1v1h-1z M102,102h1v1h-1z M104,102h1v1h-1z M105,102h1v1h-1z M106,102h1v1h-1z M107,102h1v1h-1z M4,103h1v1h-1z M10,103h1v1h-1z M12,103h1v1h-1z M15,103h1v1h-1z M16,103h1v1h-1z M19,103h1v1h-1z M22,103h1v1h-1z M25,103h1v1h-1z M26,103h1v1h-1z M28,103h1v1h-1z M32,103h1v1h-1z M35,103h1v1h-1z M37,103h1v1h-1z M38,103h1v1h-1z M42,103h1v1h-1z M44,103h1v1h-1z M45,103h1v1h-1z M46,103h1v1h-1z M47,103h1v1h-1z M50,103h1v1h-1z M51,103h1v1h-1z M52,103h1v1h-1z M56,103h1v1h-1z M57,103h1v1h-1z M59,103h1v1h-1z M62,103h1v1h-1z M68,103h1v1h-1z M69,103h1v1h-1z M76,103h1v1h-1z M80,103h1v1h-1z M81,103h1v1h-1z M83,103h1v1h-1z M86,103h1v1h-1z M87,103h1v1h-1z M89,103h1v1h-1z M90,103h1v1h-1z M92,103h1v1h-1z M93,103h1v1h-1z M94,103h1v1h-1z M95,103h1v1h-1z M98,103h1v1h-1z M100,103h1v1h-1z M104,103h1v1h-1z M108,103h1v1h-1z M4,104h1v1h-1z M6,104h1v1h-1z M7,104h1v1h-1z M8,104h1v1h-1z M10,104h1v1h-1z M12,104h1v1h-1z M13,104h1v1h-1z M14,104h1v1h-1z M15,104h1v1h-1z M16,104h1v1h-1z M17,104h1v1h-1z M20,104h1v1h-1z M22,104h1v1h-1z M23,104h1v1h-1z M24,104h1v1h-1z M25,104h1v1h-1z M26,104h1v1h-1z M27,104h1v1h-1z M28,104h1v1h-1z M29,104h1v1h-1z M30,104h1v1h-1z M31,104h1v1h-1z M32,104h1v1h-1z M36,104h1v1h-1z M38,104h1v1h-1z M42,104h1v1h-1z M43,104h1v1h-1z M45,104h1v1h-1z M46,104h1v1h-1z M48,104h1v1h-1z M50,104h1v1h-1z M52,104h1v1h-1z M53,104h1v1h-1z M54,104h1v1h-1z M55,104h1v1h-1z M56,104h1v1h-1z M58,104h1v1h-1z M60,104h1v1h-1z M62,104h1v1h-1z M65,104h1v1h-1z M66,104h1v1h-1z M68,104h1v1h-1z M69,104h1v1h-1z M70,104h1v1h-1z M73,104h1v1h-1z M76,104h1v1h-1z M77,104h1v1h-1z M78,104h1v1h-1z M79,104h1v1h-1z M80,104h1v1h-1z M81,104h1v1h-1z M82,104h1v1h-1z M86,104h1v1h-1z M88,104h1v1h-1z M89,104h1v1h-1z M90,104h1v1h-1z M91,104h1v1h-1z M93,104h1v1h-1z M95,104h1v1h-1z M96,104h1v1h-1z M98,104h1v1h-1z M100,104h1v1h-1z M101,104h1v1h-1z M102,104h1v1h-1z M103,104h1v1h-1z M104,104h1v1h-1z M107,104h1v1h-1z M4,105h1v1h-1z M6,105h1v1h-1z M7,105h1v1h-1z M8,105h1v1h-1z M10,105h1v1h-1z M14,105h1v1h-1z M15,105h1v1h-1z M17,105h1v1h-1z M21,105h1v1h-1z M22,105h1v1h-1z M25,105h1v1h-1z M32,105h1v1h-1z M33,105h1v1h-1z M35,105h1v1h-1z M36,105h1v1h-1z M41,105h1v1h-1z M42,105h1v1h-1z M44,105h1v1h-1z M47,105h1v1h-1z M51,105h1v1h-1z M54,105h1v1h-1z M55,105h1v1h-1z M57,105h1v1h-1z M59,105h1v1h-1z M63,105h1v1h-1z M71,105h1v1h-1z M73,105h1v1h-1z M74,105h1v1h-1z M76,105h1v1h-1z M77,105h1v1h-1z M78,105h1v1h-1z M83,105h1v1h-1z M86,105h1v1h-1z M87,105h1v1h-1z M88,105h1v1h-1z M90,105h1v1h-1z M91,105h1v1h-1z M92,105h1v1h-1z M93,105h1v1h-1z M100,105h1v1h-1z M102,105h1v1h-1z M103,105h1v1h-1z M104,105h1v1h-1z M105,105h1v1h-1z M106,105h1v1h-1z M107,105h1v1h-1z M108,105h1v1h-1z M4,106h1v1h-1z M6,106h1v1h-1z M7,106h1v1h-1z M8,106h1v1h-1z M10,106h1v1h-1z M13,106h1v1h-1z M18,106h1v1h-1z M19,106h1v1h-1z M20,106h1v1h-1z M24,106h1v1h-1z M27,106h1v1h-1z M29,106h1v1h-1z M35,106h1v1h-1z M36,106h1v1h-1z M38,106h1v1h-1z M39,106h1v1h-1z M41,106h1v1h-1z M43,106h1v1h-1z M44,106h1v1h-1z M45,106h1v1h-1z M48,106h1v1h-1z M49,106h1v1h-1z M50,106h1v1h-1z M52,106h1v1h-1z M53,106h1v1h-1z M55,106h1v1h-1z M56,106h1v1h-1z M60,106h1v1h-1z M62,106h1v1h-1z M63,106h1v1h-1z M64,106h1v1h-1z M65,106h1v1h-1z M68,106h1v1h-1z M72,106h1v1h-1z M73,106h1v1h-1z M74,106h1v1h-1z M75,106h1v1h-1z M76,106h1v1h-1z M77,106h1v1h-1z M80,106h1v1h-1z M83,106h1v1h-1z M84,106h1v1h-1z M86,106h1v1h-1z M88,106h1v1h-1z M89,106h1v1h-1z M91,106h1v1h-1z M95,106h1v1h-1z M98,106h1v1h-1z M104,106h1v1h-1z M105,106h1v1h-1z M4,107h1v1h-1z M10,107h1v1h-1z M12,107h1v1h-1z M14,107h1v1h-1z M15,107h1v1h-1z M16,107h1v1h-1z M20,107h1v1h-1z M22,107h1v1h-1z M23,107h1v1h-1z M30,107h1v1h-1z M31,107h1v1h-1z M32,107h1v1h-1z M33,107h1v1h-1z M34,107h1v1h-1z M38,107h1v1h-1z M41,107h1v1h-1z M44,107h1v1h-1z M46,107h1v1h-1z M47,107h1v1h-1z M51,107h1v1h-1z M54,107h1v1h-1z M56,107h1v1h-1z M57,107h1v1h-1z M59,107h1v1h-1z M66,107h1v1h-1z M68,107h1v1h-1z M71,107h1v1h-1z M77,107h1v1h-1z M78,107h1v1h-1z M80,107h1v1h-1z M81,107h1v1h-1z M89,107h1v1h-1z M90,107h1v1h-1z M92,107h1v1h-1z M93,107h1v1h-1z M95,107h1v1h-1z M98,107h1v1h-1z M99,107h1v1h-1z M100,107h1v1h-1z M101,107h1v1h-1z M103,107h1v1h-1z M104,107h1v1h-1z M4,108h1v1h-1z M5,108h1v1h-1z M6,108h1v1h-1z M7,108h1v1h-1z M8,108h1v1h-1z M9,108h1v1h-1z M10,108h1v1h-1z M12,108h1v1h-1z M15,108h1v1h-1z M16,108h1v1h-1z M18,108h1v1h-1z M19,108h1v1h-1z M21,108h1v1h-1z M22,108h1v1h-1z M24,108h1v1h-1z M26,108h1v1h-1z M31,108h1v1h-1z M32,108h1v1h-1z M38,108h1v1h-1z M42,108h1v1h-1z M43,108h1v1h-1z M48,108h1v1h-1z M51,108h1v1h-1z M54,108h1v1h-1z M60,108h1v1h-1z M62,108h1v1h-1z M66,108h1v1h-1z M70,108h1v1h-1z M71,108h1v1h-1z M72,108h1v1h-1z M77,108h1v1h-1z M78,108h1v1h-1z M82,108h1v1h-1z M83,108h1v1h-1z M84,108h1v1h-1z M85,108h1v1h-1z M90,108h1v1h-1z M91,108h1v1h-1z M93,108h1v1h-1z M94,108h1v1h-1z M105,108h1v1h-1z M106,108h1v1h-1z M108,108h1v1h-1z" fill="#000000"/>
</svg>
