<?xml version="1.0" encoding="UTF-8"?>
<!DOCTYPE svg PUBLIC "-//W3C//DTD SVG 1.1//EN" "http://www.w3.org/Graphics/SVG/1.1/DTD/svg11.dtd">
<svg xmlns="http://www.w3.org/2000/svg" version="1.1" viewBox="0 0 113 113" stroke="none">
	<rect width="100%" height="100%" fill="#FFFFFF"/>
	<path d="M4,4h1v1h-1z M5,4h1v1h-1z M6,4h1v1h-1z M7,4h1v1h-1z M8,4h1v1h-1z M9,4h1v1h-1z M10,4h1v1h-1z M12,4h1v1h-1z M13,4h1v1h-1z M15,4h1v1h-1z M16,4h1v1h-1z M17,4h1v1h-1z M18,4h1v1h-1z M20,4h1v1h-1z M21,4h1v1h-1z M30,4h1v1h-1z M31,4h1v1h-1z M34,4h1v1h-1z M36,4h1v1h-1z M37,4h1v1h-1z M38,4h1v1h-1z M39,4h1v1h-1z M40,4h1v1h-1z M42,4h1v1h-1z M45,4h1v1h-1z M47,4h1v1h-1z M48,4h1v1h-1z M49,4h1v1h-1z M50,4h1v1h-1z M53,4h1v1h-1z M54,4h1v1h-1z M55,4h1v1h-1z M56,4h1v1h-1z M57,4h1v1h-1z M58,4h1v1h-1z M60,4h1v1h-1z M62,4h1v1h-1z M64,4h1v1h-1z M65,4h1v1h-1z M67,4h1v1h-1z M72,4h1v1h-1z M73,4h1v1h-1z M74,4h1v1h-1z M77,4h1v1h-1z M78,4h1v1h-1z M80,4h1v1h-1z M81,4h1v1h-1z M83,4h1v1h-1z M85,4h1v1h-1z M93,4h1v1h-1z M96,4h1v1h-1z M98,4h1v1h-1z M102,4h1v1h-1z M103,4h1v1h-1z M104,4h1v1h-1z M105,4h1v1h-1z M106,4h1v1h-1z M107,4h1v1h-1z M108,4h1v1h-1z M4,5h1v1h-1z M10,5h1v1h-1z M12,5h1v1h-1z M13,5h1v1h-1z M14,5h1v1h-1z M16,5h1v1h-1z M17,5h1v1h-1z M20,5h1v1h-1z M21,5h1v1h-1z M22,5h1v1h-1z M24,5h1v1h-1z M28,5h1v1h-1z M30,5h1v1h-1z M31,5h1v1h-1z M33,5h1v1h-1z M34,5h1v1h-1z M37,5h1v1h-1z M39,5h1v1h-1z M40,5h1v1h-1z M42,5h1v1h-1z M43,5h1v1h-1z M44,5h1v1h-1z M45,5h1v1h-1z M46,5h1v1h-1z M51,5h1v1h-1z M54,5h1v1h-1z M55,5h1v1h-1z M56,5h1v1h-1z M57,5h1v1h-1z M58,5h1v1h-1z M59,5h1v1h-1z M60,5h1v1h-1z M61,5h1v1h-1z M63,5h1v1h-1z M64,5h1v1h-1z M66,5h1v1h-1z M69,5h1v1h-1z M70,5h1v1h-1z M72,5h1v1h-1z M78,5h1v1h-1z M79,5h1v1h-1z M81,5h1v1h-1z M82,5h1v1h-1z M85,5h1v1h-1z M87,5h1v1h-1z M90,5h1v1h-1z M91,5h1v1h-1z M94,5h1v1h-1z M95,5h1v1h-1z M98,5h1v1h-1z M102,5h1v1h-1z M108,5h1v1h-1z M4,6h1v1h-1z M6,6h1v1h-1z M7,6h1v1h-1z M8,6h1v1h-1z M10,6h1v1h-1z M12,6h1v1h-1z M13,6h1v1h-1z M15,6h1v1h-1z M17,6h1v1h-1z M21,6h1v1h-1z M22,6h1v1h-1z M23,6h1v1h-1z M24,6h1v1h-1z M25,6h1v1h-1z M26,6h1v1h-1z M29,6h1v1h-1z M32,6h1v1h-1z M33,6h1v1h-1z M35,6h1v1h-1z M37,6h1v1h-1z M38,6h1v1h-1z M43,6h1v1h-1z M44,6h1v1h-1z M45,6h1v1h-1z M47,6h1v1h-1z M53,6h1v1h-1z M56,6h1v1h-1z M59,6h1v1h-1z M66,6h1v1h-1z M68,6h1v1h-1z M71,6h1v1h-1z M73,6h1v1h-1z M75,6h1v1h-1z M78,6h1v1h-1z M80,6h1v1h-1z M83,6h1v1h-1z M85,6h1v1h-1z M86,6h1v1h-1z M87,6h1v1h-1z M92,6h1v1h-1z M94,6h1v1h-1z M95,6h1v1h-1z M97,6h1v1h-1z M98,6h1v1h-1z M99,6h1v1h-1z M102,6h1v1h-1z M104,6h1v1h-1z M105,6h1v1h-1z M106,6h1v1h-1z M108,6h1v1h-1z M4,7h1v1h-1z M6,7h1v1h-1z M7,7h1v1h-1z M8,7h1v1h-1z M10,7h1v1h-1z M12,7h1v1h-1z M13,7h1v1h-1z M14,7h1v1h-1z M15,7h1v1h-1z M17,7h1v1h-1z M19,7h1v1h-1z M23,7h1v1h-1z M27,7h1v1h-1z M28,7h1v1h-1z M29,7h1v1h-1z M30,7h1v1h-1z M31,7h1v1h-1z M32,7h1v1h-1z M33,7h1v1h-1z M34,7h1v1h-1z M35,7h1v1h-1z M36,7h1v1h-1z M37,7h1v1h-1z M38,7h1v1h-1z M40,7h1v1h-1z M41,7h1v1h-1z M42,7h1v1h-1z M43,7h1v1h-1z M49,7h1v1h-1z M50,7h1v1h-1z M51,7h1v1h-1z M53,7h1v1h-1z M55,7h1v1h-1z M56,7h1v1h-1z M58,7h1v1h-1z M59,7h1v1h-1z M62,7h1v1h-1z M63,7h1v1h-1z M64,7h1v1h-1z M67,7h1v1h-1z M68,7h1v1h-1z M69,7h1v1h-1z M72,7h1v1h-1z M73,7h1v1h-1z M74,7h1v1h-1z M76,7h1v1h-1z M80,7h1v1h-1z M81,7h1v1h-1z M83,7h1v1h-1z M84,7h1v1h-1z M85,7h1v1h-1z M88,7h1v1h-1z M89,7h1v1h-1z M90,7h1v1h-1z M91,7h1v1h-1z M92,7h1v1h-1z M95,7h1v1h-1z M96,7h1v1h-1z M100,7h1v1h-1z M102,7h1v1h-1z M104,7h1v1h-1z M105,7h1v1h-1z M106,7h1v1h-1z M108,7h1v1h-1z M4,8h1v1h-1z M6,8h1v1h-1z M7,8h1v1h-1z M8,8h1v1h-1z M10,8h1v1h-1z M15,8h1v1h-1z M18,8h1v1h-1z M19,8h1v1h-1z M20,8h1v1h-1z M23,8h1v1h-1z M28,8h1v1h-1z M29,8h1v1h-1z M30,8h1v1h-1z M31,8h1v1h-1z M32,8h1v1h-1z M33,8h1v1h-1z M34,8h1v1h-1z M36,8h1v1h-1z M40,8h1v1h-1z M45,8h1v1h-1z M48,8h1v1h-1z M49,8h1v1h-1z M52,8h1v1h-1z M53,8h1v1h-1z M54,8h1v1h-1z M55,8h1v1h-1z M56,8h1v1h-1z M57,8h1v1h-1z M58,8h1v1h-1z M59,8h1v1h-1z M61,8h1v1h-1z M62,8h1v1h-1z M64,8h1v1h-1z M65,8h1v1h-1z M66,8h1v1h-1z M70,8h1v1h-1z M71,8h1v1h-1z M74,8h1v1h-1z M76,8h1v1h-1z M77,8h1v1h-1z M78,8h1v1h-1z M79,8h1v1h-1z M80,8h1v1h-1z M88,8h1v1h-1z M90,8h1v1h-1z M96,8h1v1h-1z M99,8h1v1h-1z M100,8h1v1h-1z M102,8h1v1h-1z M104,8h1v1h-1z M105,8h1v1h-1z M106,8h1v1h-1z M108,8h1v1h-1z M4,9h1v1h-1z M10,9h1v1h-1z M12,9h1v1h-1z M16,9h1v1h-1z M19,9h1v1h-1z M23,9h1v1h-1z M24,9h1v1h-1z M25,9h1v1h-1z M27,9h1v1h-1z M28,9h1v1h-1z M32,9h1v1h-1z M34,9h1v1h-1z M35,9h1v1h-1z M37,9h1v1h-1z M39,9h1v1h-1z M40,9h1v1h-1z M42,9h1v1h-1z M43,9h1v1h-1z M44,9h1v1h-1z M45,9h1v1h-1z M46,9h1v1h-1z M47,9h1v1h-1z M49,9h1v1h-1z M51,9h1v1h-1z M52,9h1v1h-1z M56,9h1v1h-1z M57,9h1v1h-1z M58,9h1v1h-1z M60,9h1v1h-1z M61,9h1v1h-1z M64,9h1v1h-1z M66,9h1v1h-1z M70,9h1v1h-1z M73,9h1v1h-1z M76,9h1v1h-1z M80,9h1v1h-1z M81,9h1v1h-1z M82,9h1v1h-1z M83,9h1v1h-1z M85,9h1v1h-1z M87,9h1v1h-1z M88,9h1v1h-1z M90,9h1v1h-1z M93,9h1v1h-1z M94,9h1v1h-1z M95,9h1v1h-1z M97,9h1v1h-1z M99,9h1v1h-1z M102,9h1v1h-1z M108,9h1v1h-1z M4,10h1v1h-1z M5,10h1v1h-1z M6,10h1v1h-1z M7,10h1v1h-1z M8,10h1v1h-1z M9,10h1v1h-1z M10,10h1v1h-1z M12,10h1v1h-1z M14,10h1v1h-1z M16,10h1v1h-1z M18,10h1v1h-1z M20,10h1v1h-1z M22,10h1v1h-1z M24,10h1v1h-1z M26,10h1v1h-1z M28,10h1v1h-1z M30,10h1v1h-1z M32,10h1v1h-1z M34,10h1v1h-1z M36,10h1v1h-1z M38,10h1v1h-1z M40,10h1v1h-1z M42,10h1v1h-1z M44,10h1v1h-1z M46,10h1v1h-1z M48,10h1v1h-1z M50,10h1v1h-1z M52,10h1v1h-1z M54,10h1v1h-1z M56,10h1v1h-1z M58,10h1v1h-1z M60,10h1v1h-1z M62,10h1v1h-1z M64,10h1v1h-1z M66,10h1v1h-1z M68,10h1v1h-1z M70,10h1v1h-1z M72,10h1v1h-1z M74,10h1v1h-1z M76,10h1v1h-1z M78,10h1v1h-1z M80,10h1v1h-1z M82,10h1v1h-1z M84,10h1v1h-1z M86,10h1v1h-1z M88,10h1v1h-1z M90,10h1v1h-1z M92,10h1v1h-1z M94,10h1v1h-1z M96,10h1v1h-1z M98,10h1v1h-1z M100,10h1v1h-1z M102,10h1v1h-1z M103,10h1v1h-1z M104,10h1v1h-1z M105,10h1v1h-1z M106,10h1v1h-1z M107,10h1v1h-1z M108,10h1v1h-1z M15,11h1v1h-1z M16,11h1v1h-1z M18,11h1v1h-1z M20,11h1v1h-1z M21,11h1v1h-1z M22,11h1v1h-1z M24,11h1v1h-1z M25,11h1v1h-1z M26,11h1v1h-1z M27,11h1v1h-1z M28,11h1v1h-1z M32,11h1v1h-1z M34,11h1v1h-1z M35,11h1v1h-1z M38,11h1v1h-1z M41,11h1v1h-1z M42,11h1v1h-1z M43,11h1v1h-1z M44,11h1v1h-1z M45,11h1v1h-1z M49,11h1v1h-1z M50,11h1v1h-1z M51,11h1v1h-1z M52,11h1v1h-1z M56,11h1v1h-1z M57,11h1v1h-1z M58,11h1v1h-1z M59,11h1v1h-1z M61,11h1v1h-1z M62,11h1v1h-1z M68,11h1v1h-1z M70,11h1v1h-1z M76,11h1v1h-1z M80,11h1v1h-1z M81,11h1v1h-1z M83,11h1v1h-1z M86,11h1v1h-1z M90,11h1v1h-1z M92,11h1v1h-1z M95,11h1v1h-1z M97,11h1v1h-1z M98,11h1v1h-1z M100,11h1v1h-1z M4,12h1v1h-1z M5,12h1v1h-1z M8,12h1v1h-1z M9,12h1v1h-1z M10,12h1v1h-1z M14,12h1v1h-1z M17,12h1v1h-1z M18,12h1v1h-1z M20,12h1v1h-1z M21,12h1v1h-1z M22,12h1v1h-1z M23,12h1v1h-1z M27,12h1v1h-1z M28,12h1v1h-1z M29,12h1v1h-1z M30,12h1v1h-1z M31,12h1v1h-1z M32,12h1v1h-1z M34,12h1v1h-1z M36,12h1v1h-1z M40,12h1v1h-1z M41,12h1v1h-1z M42,12h1v1h-1z M43,12h1v1h-1z M46,12h1v1h-1z M49,12h1v1h-1z M51,12h1v1h-1z M52,12h1v1h-1z M53,12h1v1h-1z M54,12h1v1h-1z M55,12h1v1h-1z M56,12h1v1h-1z M57,12h1v1h-1z M58,12h1v1h-1z M60,12h1v1h-1z M62,12h1v1h-1z M64,12h1v1h-1z M66,12h1v1h-1z M67,12h1v1h-1z M68,12h1v1h-1z M70,12h1v1h-1z M74,12h1v1h-1z M75,12h1v1h-1z M76,12h1v1h-1z M77,12h1v1h-1z M78,12h1v1h-1z M79,12h1v1h-1z M80,12h1v1h-1z M82,12h1v1h-1z M84,12h1v1h-1z M85,12h1v1h-1z M90,12h1v1h-1z M97,12h1v1h-1z M98,12h1v1h-1z M100,12h1v1h-1z M103,12h1v1h-1z M105,12h1v1h-1z M106,12h1v1h-1z M107,12h1v1h-1z M108,12h1v1h-1z M6,13h1v1h-1z M8,13h1v1h-1z M11,13h1v1h-1z M12,13h1v1h-1z M13,13h1v1h-1z M14,13h1v1h-1z M15,13h1v1h-1z M16,13h1v1h-1z M18,13h1v1h-1z M21,13h1v1h-1z M22,13h1v1h-1z M24,13h1v1h-1z M25,13h1v1h-1z M27,13h1v1h-1z M28,13h1v1h-1z M29,13h1v1h-1z M30,13h1v1h-1z M32,13h1v1h-1z M34,13h1v1h-1z M39,13h1v1h-1z M40,13h1v1h-1z M42,13h1v1h-1z M43,13h1v1h-1z M44,13h1v1h-1z M45,13h1v1h-1z M47,13h1v1h-1z M48,13h1v1h-1z M51,13h1v1h-1z M52,13h1v1h-1z M53,13h1v1h-1z M54,13h1v1h-1z M58,13h1v1h-1z M60,13h1v1h-1z M62,13h1v1h-1z M64,13h1v1h-1z M67,13h1v1h-1z M68,13h1v1h-1z M73,13h1v1h-1z M74,13h1v1h-1z M76,13h1v1h-1z M77,13h1v1h-1z M79,13h1v1h-1z M81,13h1v1h-1z M84,13h1v1h-1z M86,13h1v1h-1z M87,13h1v1h-1z M88,13h1v1h-1z M91,13h1v1h-1z M93,13h1v1h-1z M95,13h1v1h-1z M96,13h1v1h-1z M97,13h1v1h-1z M99,13h1v1h-1z M100,13h1v1h-1z M102,13h1v1h-1z M103,13h1v1h-1z M104,13h1v1h-1z M108,13h1v1h-1z M4,14h1v1h-1z M5,14h1v1h-1z M10,14h1v1h-1z M15,14h1v1h-1z M17,14h1v1h-1z M21,14h1v1h-1z M24,14h1v1h-1z M26,14h1v1h-1z M27,14h1v1h-1z M29,14h1v1h-1z M31,14h1v1h-1z M33,14h1v1h-1z M35,14h1v1h-1z M36,14h1v1h-1z M37,14h1v1h-1z M38,14h1v1h-1z M40,14h1v1h-1z M41,14h1v1h-1z M47,14h1v1h-1z M48,14h1v1h-1z M50,14h1v1h-1z M51,14h1v1h-1z M53,14h1v1h-1z M55,14h1v1h-1z M57,14h1v1h-1z M60,14h1v1h-1z M62,14h1v1h-1z M67,14h1v1h-1z M68,14h1v1h-1z M69,14h1v1h-1z M71,14h1v1h-1z M72,14h1v1h-1z M74,14h1v1h-1z M75,14h1v1h-1z M76,14h1v1h-1z M77,14h1v1h-1z M80,14h1v1h-1z M83,14h1v1h-1z M84,14h1v1h-1z M86,14h1v1h-1z M88,14h1v1h-1z M89,14h1v1h-1z M98,14h1v1h-1z M101,14h1v1h-1z M102,14h1v1h-1z M103,14h1v1h-1z M104,14h1v1h-1z M105,14h1v1h-1z M106,14h1v1h-1z M107,14h1v1h-1z M7,15h1v1h-1z M11,15h1v1h-1z M13,15h1v1h-1z M14,15h1v1h-1z M17,15h1v1h-1z M18,15h1v1h-1z M22,15h1v1h-1z M23,15h1v1h-1z M24,15h1v1h-1z M25,15h1v1h-1z M26,15h1v1h-1z M27,15h1v1h-1z M28,15h1v1h-1z M32,15h1v1h-1z M34,15h1v1h-1z M35,15h1v1h-1z M39,15h1v1h-1z M42,15h1v1h-1z M43,15h1v1h-1z M44,15h1v1h-1z M49,15h1v1h-1z M53,15h1v1h-1z M54,15h1v1h-1z M56,15h1v1h-1z M58,15h1v1h-1z M59,15h1v1h-1z M62,15h1v1h-1z M66,15h1v1h-1z M68,15h1v1h-1z M70,15h1v1h-1z M71,15h1v1h-1z M73,15h1v1h-1z M74,15h1v1h-1z M75,15h1v1h-1z M78,15h1v1h-1z M80,15h1v1h-1z M82,15h1v1h-1z M83,15h1v1h-1z M85,15h1v1h-1z M87,15h1v1h-1z M90,15h1v1h-1z M91,15h1v1h-1z M92,15h1v1h-1z M93,15h1v1h-1z M94,15h1v1h-1z M95,15h1v1h-1z M98,15h1v1h-1z M100,15h1v1h-1z M101,15h1v1h-1z M104,15h1v1h-1z M105,15h1v1h-1z M4,16h1v1h-1z M5,16h1v1h-1z M7,16h1v1h-1z M10,16h1v1h-1z M13,16h1v1h-1z M18,16h1v1h-1z M20,16h1v1h-1z M21,16h1v1h-1z M22,16h1v1h-1z M26,16h1v1h-1z M29,16h1v1h-1z M39,16h1v1h-1z M41,16h1v1h-1z M44,16h1v1h-1z M49,16h1v1h-1z M52,16h1v1h-1z M54,16h1v1h-1z M55,16h1v1h-1z M56,16h1v1h-1z M58,16h1v1h-1z M60,16h1v1h-1z M63,16h1v1h-1z M65,16h1v1h-1z M66,16h1v1h-1z M69,16h1v1h-1z M70,16h1v1h-1z M71,16h1v1h-1z M72,16h1v1h-1z M73,16h1v1h-1z M77,16h1v1h-1z M78,16h1v1h-1z M80,16h1v1h-1z M82,16h1v1h-1z M86,16h1v1h-1z M90,16h1v1h-1z M92,16h1v1h-1z M94,16h1v1h-1z M96,16h1v1h-1z M97,16h1v1h-1z M98,16h1v1h-1z M100,16h1v1h-1z M102,16h1v1h-1z M105,16h1v1h-1z M108,16h1v1h-1z M5,17h1v1h-1z M6,17h1v1h-1z M7,17h1v1h-1z M9,17h1v1h-1z M11,17h1v1h-1z M13,17h1v1h-1z M19,17h1v1h-1z M20,17h1v1h-1z M22,17h1v1h-1z M24,17h1v1h-1z M27,17h1v1h-1z M28,17h1v1h-1z M29,17h1v1h-1z M31,17h1v1h-1z M34,17h1v1h-1z M36,17h1v1h-1z M37,17h1v1h-1z M39,17h1v1h-1z M40,17h1v1h-1z M42,17h1v1h-1z M44,17h1v1h-1z M48,17h1v1h-1z M50,17h1v1h-1z M51,17h1v1h-1z M52,17h1v1h-1z M55,17h1v1h-1z M62,17h1v1h-1z M64,17h1v1h-1z M65,17h1v1h-1z M68,17h1v1h-1z M71,17h1v1h-1z M72,17h1v1h-1z M76,17h1v1h-1z M78,17h1v1h-1z M81,17h1v1h-1z M82,17h1v1h-1z M83,17h1v1h-1z M84,17h1v1h-1z M85,17h1v1h-1z M88,17h1v1h-1z M90,17h1v1h-1z M93,17h1v1h-1z M94,17h1v1h-1z M95,17h1v1h-1z M98,17h1v1h-1z M99,17h1v1h-1z M100,17h1v1h-1z M101,17h1v1h-1z M102,17h1v1h-1z M106,17h1v1h-1z M4,18h1v1h-1z M5,18h1v1h-1z M6,18h1v1h-1z M10,18h1v1h-1z M12,18h1v1h-1z M13,18h1v1h-1z M24,18h1v1h-1z M26,18h1v1h-1z M27,18h1v1h-1z M28,18h1v1h-1z M29,18h1v1h-1z M31,18h1v1h-1z M32,18h1v1h-1z M35,18h1v1h-1z M36,18h1v1h-1z M38,18h1v1h-1z M39,18h1v1h-1z M40,18h1v1h-1z M47,18h1v1h-1z M48,18h1v1h-1z M50,18h1v1h-1z M52,18h1v1h-1z M55,18h1v1h-1z M56,18h1v1h-1z M60,18h1v1h-1z M62,18h1v1h-1z M64,18h1v1h-1z M67,18h1v1h-1z M69,18h1v1h-1z M74,18h1v1h-1z M75,18h1v1h-1z M76,18h1v1h-1z M77,18h1v1h-1z M79,18h1v1h-1z M80,18h1v1h-1z M81,18h1v1h-1z M84,18h1v1h-1z M85,18h1v1h-1z M86,18h1v1h-1z M87,18h1v1h-1z M89,18h1v1h-1z M96,18h1v1h-1z M98,18h1v1h-1z M99,18h1v1h-1z M100,18h1v1h-1z M101,18h1v1h-1z M102,18h1v1h-1z M104,18h1v1h-1z M106,18h1v1h-1z M5,19h1v1h-1z M6,19h1v1h-1z M9,19h1v1h-1z M12,19h1v1h-1z M14,19h1v1h-1z M16,19h1v1h-1z M17,19h1v1h-1z M19,19h1v1h-1z M20,19h1v1h-1z M24,19h1v1h-1z M25,19h1v1h-1z M26,19h1v1h-1z M27,19h1v1h-1z M28,19h1v1h-1z M29,19h1v1h-1z M32,19h1v1h-1z M33,19h1v1h-1z M34,19h1v1h-1z M38,19h1v1h-1z M41,19h1v1h-1z M42,19h1v1h-1z M43,19h1v1h-1z M44,19h1v1h-1z M45,19h1v1h-1z M50,19h1v1h-1z M52,19h1v1h-1z M53,19h1v1h-1z M54,19h1v1h-1z M56,19h1v1h-1z M59,19h1v1h-1z M61,19h1v1h-1z M62,19h1v1h-1z M63,19h1v1h-1z M65,19h1v1h-1z M66,19h1v1h-1z M68,19h1v1h-1z M70,19h1v1h-1z M71,19h1v1h-1z M73,19h1v1h-1z M74,19h1v1h-1z M75,19h1v1h-1z M80,19h1v1h-1z M81,19h1v1h-1z M82,19h1v1h-1z M83,19h1v1h-1z M90,19h1v1h-1z M91,19h1v1h-1z M92,19h1v1h-1z M95,19h1v1h-1z M97,19h1v1h-1z M103,19h1v1h-1z M104,19h1v1h-1z M108,19h1v1h-1z M5,20h1v1h-1z M6,20h1v1h-1z M8,20h1v1h-1z M10,20h1v1h-1z M11,20h1v1h-1z M12,20h1v1h-1z M15,20h1v1h-1z M18,20h1v1h-1z M20,20h1v1h-1z M21,20h1v1h-1z M22,20h1v1h-1z M23,20h1v1h-1z M25,20h1v1h-1z M26,20h1v1h-1z M27,20h1v1h-1z M29,20h1v1h-1z M30,20h1v1h-1z M31,20h1v1h-1z M32,20h1v1h-1z M39,20h1v1h-1z M41,20h1v1h-1z M45,20h1v1h-1z M46,20h1v1h-1z M49,20h1v1h-1z M51,20h1v1h-1z M53,20h1v1h-1z M54,20h1v1h-1z M55,20h1v1h-1z M56,20h1v1h-1z M57,20h1v1h-1z M58,20h1v1h-1z M59,20h1v1h-1z M61,20h1v1h-1z M66,20h1v1h-1z M70,20h1v1h-1z M72,20h1v1h-1z M76,20h1v1h-1z M78,20h1v1h-1z M80,20h1v1h-1z M82,20h1v1h-1z M85,20h1v1h-1z M86,20h1v1h-1z M87,20h1v1h-1z M88,20h1v1h-1z M91,20h1v1h-1z M95,20h1v1h-1z M96,20h1v1h-1z M97,20h1v1h-1z M99,20h1v1h-1z M100,20h1v1h-1z M101,20h1v1h-1z M103,20h1v1h-1z M105,20h1v1h-1z M106,20h1v1h-1z M108,20h1v1h-1z M4,21h1v1h-1z M9,21h1v1h-1z M12,21h1v1h-1z M13,21h1v1h-1z M14,21h1v1h-1z M15,21h1v1h-1z M17,21h1v1h-1z M18,21h1v1h-1z M21,21h1v1h-1z M22,21h1v1h-1z M25,21h1v1h-1z M28,21h1v1h-1z M29,21h1v1h-1z M32,21h1v1h-1z M33,21h1v1h-1z M34,21h1v1h-1z M37,21h1v1h-1z M38,21h1v1h-1z M39,21h1v1h-1z M40,21h1v1h-1z M41,21h1v1h-1z M42,21h1v1h-1z M45,21h1v1h-1z M46,21h1v1h-1z M50,21h1v1h-1z M51,21h1v1h-1z M52,21h1v1h-1z M53,21h1v1h-1z M54,21h1v1h-1z M56,21h1v1h-1z M57,21h1v1h-1z M58,21h1v1h-1z M59,21h1v1h-1z M60,21h1v1h-1z M64,21h1v1h-1z M65,21h1v1h-1z M68,21h1v1h-1z M73,21h1v1h-1z M75,21h1v1h-1z M76,21h1v1h-1z M78,21h1v1h-1z M83,21h1v1h-1z M84,21h1v1h-1z M85,21h1v1h-1z M88,21h1v1h-1z M89,21h1v1h-1z M90,21h1v1h-1z M94,21h1v1h-1z M99,21h1v1h-1z M100,21h1v1h-1z M102,21h1v1h-1z M105,21h1v1h-1z M106,21h1v1h-1z M8,22h1v1h-1z M10,22h1v1h-1z M14,22h1v1h-1z M17,22h1v1h-1z M19,22h1v1h-1z M20,22h1v1h-1z M21,22h1v1h-1z M22,22h1v1h-1z M23,22h1v1h-1z M24,22h1v1h-1z M26,22h1v1h-1z M27,22h1v1h-1z M31,22h1v1h-1z M32,22h1v1h-1z M35,22h1v1h-1z M36,22h1v1h-1z M38,22h1v1h-1z M39,22h1v1h-1z M40,22h1v1h-1z M41,22h1v1h-1z M43,22h1v1h-1z M44,22h1v1h-1z M47,22h1v1h-1z M48,22h1v1h-1z M50,22h1v1h-1z M51,22h1v1h-1z M53,22h1v1h-1z M55,22h1v1h-1z M59,22h1v1h-1z M60,22h1v1h-1z M62,22h1v1h-1z M63,22h1v1h-1z M64,22h1v1h-1z M65,22h1v1h-1z M74,22h1v1h-1z M75,22h1v1h-1z M76,22h1v1h-1z M81,22h1v1h-1z M83,22h1v1h-1z M86,22h1v1h-1z M87,22h1v1h-1z M89,22h1v1h-1z M91,22h1v1h-1z M92,22h1v1h-1z M95,22h1v1h-1z M96,22h1v1h-1z M98,22h1v1h-1z M104,22h1v1h-1z M105,22h1v1h-1z M107,22h1v1h-1z M4,23h1v1h-1z M8,23h1v1h-1z M9,23h1v1h-1z M13,23h1v1h-1z M15,23h1v1h-1z M16,23h1v1h-1z M17,23h1v1h-1z M20,23h1v1h-1z M21,23h1v1h-1z M22,23h1v1h-1z M25,23h1v1h-1z M27,23h1v1h-1z M28,23h1v1h-1z M29,23h1v1h-1z M30,23h1v1h-1z M32,23h1v1h-1z M34,23h1v1h-1z M35,23h1v1h-1z M37,23h1v1h-1z M41,23h1v1h-1z M44,23h1v1h-1z M45,23h1v1h-1z M50,23h1v1h-1z M51,23h1v1h-1z M56,23h1v1h-1z M57,23h1v1h-1z M62,23h1v1h-1z M65,23h1v1h-1z M67,23h1v1h-1z M68,23h1v1h-1z M69,23h1v1h-1z M71,23h1v1h-1z M74,23h1v1h-1z M75,23h1v1h-1z M77,23h1v1h-1z M78,23h1v1h-1z M80,23h1v1h-1z M82,23h1v1h-1z M83,23h1v1h-1z M85,23h1v1h-1z M86,23h1v1h-1z M92,23h1v1h-1z M93,23h1v1h-1z M94,23h1v1h-1z M97,23h1v1h-1z M98,23h1v1h-1z M100,23h1v1h-1z M101,23h1v1h-1z M103,23h1v1h-1z M5,24h1v1h-1z M7,24h1v1h-1z M10,24h1v1h-1z M12,24h1v1h-1z M13,24h1v1h-1z M14,24h1v1h-1z M16,24h1v1h-1z M17,24h1v1h-1z M18,24h1v1h-1z M22,24h1v1h-1z M25,24h1v1h-1z M27,24h1v1h-1z M28,24h1v1h-1z M30,24h1v1h-1z M34,24h1v1h-1z M35,24h1v1h-1z M36,24h1v1h-1z M40,24h1v1h-1z M42,24h1v1h-1z M44,24h1v1h-1z M46,24h1v1h-1z M47,24h1v1h-1z M48,24h1v1h-1z M50,24h1v1h-1z M51,24h1v1h-1z M54,24h1v1h-1z M58,24h1v1h-1z M63,24h1v1h-1z M64,24h1v1h-1z M66,24h1v1h-1z M67,24h1v1h-1z M68,24h1v1h-1z M70,24h1v1h-1z M74,24h1v1h-1z M76,24h1v1h-1z M78,24h1v1h-1z M81,24h1v1h-1z M82,24h1v1h-1z M83,24h1v1h-1z M87,24h1v1h-1z M90,24h1v1h-1z M91,24h1v1h-1z M92,24h1v1h-1z M93,24h1v1h-1z M97,24h1v1h-1z M100,24h1v1h-1z M101,24h1v1h-1z M102,24h1v1h-1z M104,24h1v1h-1z M7,25h1v1h-1z M9,25h1v1h-1z M13,25h1v1h-1z M14,25h1v1h-1z M16,25h1v1h-1z M18,25h1v1h-1z M19,25h1v1h-1z M27,25h1v1h-1z M28,25h1v1h-1z M29,25h1v1h-1z M34,25h1v1h-1z M35,25h1v1h-1z M37,25h1v1h-1z M39,25h1v1h-1z M41,25h1v1h-1z M44,25h1v1h-1z M51,25h1v1h-1z M52,25h1v1h-1z M54,25h1v1h-1z M57,25h1v1h-1z M58,25h1v1h-1z M60,25h1v1h-1z M62,25h1v1h-1z M64,25h1v1h-1z M65,25h1v1h-1z M66,25h1v1h-1z M69,25h1v1h-1z M71,25h1v1h-1z M72,25h1v1h-1z M73,25h1v1h-1z M74,25h1v1h-1z M75,25h1v1h-1z M76,25h1v1h-1z M78,25h1v1h-1z M79,25h1v1h-1z M82,25h1v1h-1z M83,25h1v1h-1z M84,25h1v1h-1z M85,25h1v1h-1z M87,25h1v1h-1z M89,25h1v1h-1z M93,25h1v1h-1z M94,25h1v1h-1z M95,25h1v1h-1z M96,25h1v1h-1z M99,25h1v1h-1z M100,25h1v1h-1z M105,25h1v1h-1z M107,25h1v1h-1z M108,25h1v1h-1z M5,26h1v1h-1z M9,26h1v1h-1z M10,26h1v1h-1z M12,26h1v1h-1z M13,26h1v1h-1z M16,26h1v1h-1z M18,26h1v1h-1z M23,26h1v1h-1z M26,26h1v1h-1z M27,26h1v1h-1z M28,26h1v1h-1z M29,26h1v1h-1z M32,26h1v1h-1z M35,26h1v1h-1z M36,26h1v1h-1z M38,26h1v1h-1z M40,26h1v1h-1z M41,26h1v1h-1z M50,26h1v1h-1z M52,26h1v1h-1z M53,26h1v1h-1z M55,26h1v1h-1z M56,26h1v1h-1z M59,26h1v1h-1z M60,26h1v1h-1z M62,26h1v1h-1z M64,26h1v1h-1z M65,26h1v1h-1z M67,26h1v1h-1z M71,26h1v1h-1z M74,26h1v1h-1z M75,26h1v1h-1z M77,26h1v1h-1z M79,26h1v1h-1z M80,26h1v1h-1z M83,26h1v1h-1z M86,26h1v1h-1z M88,26h1v1h-1z M89,26h1v1h-1z M92,26h1v1h-1z M93,26h1v1h-1z M97,26h1v1h-1z M98,26h1v1h-1z M99,26h1v1h-1z M100,26h1v1h-1z M102,26h1v1h-1z M104,26h1v1h-1z M107,26h1v1h-1z M6,27h1v1h-1z M7,27h1v1h-1z M8,27h1v1h-1z M11,27h1v1h-1z M12,27h1v1h-1z M14,27h1v1h-1z M15,27h1v1h-1z M16,27h1v1h-1z M21,27h1v1h-1z M24,27h1v1h-1z M25,27h1v1h-1z M26,27h1v1h-1z M28,27h1v1h-1z M32,27h1v1h-1z M33,27h1v1h-1z M37,27h1v1h-1z M38,27h1v1h-1z M41,27h1v1h-1z M44,27h1v1h-1z M45,27h1v1h-1z M47,27h1v1h-1z M50,27h1v1h-1z M56,27h1v1h-1z M57,27h1v1h-1z M58,27h1v1h-1z M63,27h1v1h-1z M68,27h1v1h-1z M71,27h1v1h-1z M73,27h1v1h-1z M74,27h1v1h-1z M80,27h1v1h-1z M82,27h1v1h-1z M83,27h1v1h-1z M85,27h1v1h-1z M86,27h1v1h-1z M87,27h1v1h-1z M89,27h1v1h-1z M90,27h1v1h-1z M92,27h1v1h-1z M94,27h1v1h-1z M95,27h1v1h-1z M97,27h1v1h-1z M99,27h1v1h-1z M100,27h1v1h-1z M101,27h1v1h-1z M108,27h1v1h-1z M5,28h1v1h-1z M8,28h1v1h-1z M9,28h1v1h-1z M10,28h1v1h-1z M11,28h1v1h-1z M12,28h1v1h-1z M13,28h1v1h-1z M14,28h1v1h-1z M15,28h1v1h-1z M18,28h1v1h-1z M19,28h1v1h-1z M20,28h1v1h-1z M21,28h1v1h-1z M22,28h1v1h-1z M23,28h1v1h-1z M25,28h1v1h-1z M26,28h1v1h-1z M28,28h1v1h-1z M29,28h1v1h-1z M30,28h1v1h-1z M31,28h1v1h-1z M32,28h1v1h-1z M35,28h1v1h-1z M36,28h1v1h-1z M38,28h1v1h-1z M42,28h1v1h-1z M43,28h1v1h-1z M44,28h1v1h-1z M48,28h1v1h-1z M50,28h1v1h-1z M52,28h1v1h-1z M53,28h1v1h-1z M54,28h1v1h-1z M55,28h1v1h-1z M56,28h1v1h-1z M60,28h1v1h-1z M63,28h1v1h-1z M64,28h1v1h-1z M65,28h1v1h-1z M66,28h1v1h-1z M67,28h1v1h-1z M68,28h1v1h-1z M69,28h1v1h-1z M70,28h1v1h-1z M72,28h1v1h-1z M74,28h1v1h-1z M76,28h1v1h-1z M77,28h1v1h-1z M78,28h1v1h-1z M79,28h1v1h-1z M80,28h1v1h-1z M83,28h1v1h-1z M86,28h1v1h-1z M87,28h1v1h-1z M90,28h1v1h-1z M91,28h1v1h-1z M95,28h1v1h-1z M96,28h1v1h-1z M99,28h1v1h-1z M100,28h1v1h-1z M101,28h1v1h-1z M102,28h1v1h-1z M103,28h1v1h-1z M104,28h1v1h-1z M107,28h1v1h-1z M108,28h1v1h-1z M5,29h1v1h-1z M8,29h1v1h-1z M12,29h1v1h-1z M15,29h1v1h-1z M16,29h1v1h-1z M20,29h1v1h-1z M22,29h1v1h-1z M24,29h1v1h-1z M25,29h1v1h-1z M27,29h1v1h-1z M28,29h1v1h-1z M32,29h1v1h-1z M35,29h1v1h-1z M37,29h1v1h-1z M39,29h1v1h-1z M46,29h1v1h-1z M47,29h1v1h-1z M48,29h1v1h-1z M49,29h1v1h-1z M52,29h1v1h-1z M56,29h1v1h-1z M57,29h1v1h-1z M59,29h1v1h-1z M60,29h1v1h-1z M62,29h1v1h-1z M63,29h1v1h-1z M64,29h1v1h-1z M65,29h1v1h-1z M69,29h1v1h-1z M70,29h1v1h-1z M71,29h1v1h-1z M72,29h1v1h-1z M73,29h1v1h-1z M74,29h1v1h-1z M76,29h1v1h-1z M80,29h1v1h-1z M82,29h1v1h-1z M83,29h1v1h-1z M84,29h1v1h-1z M85,29h1v1h-1z M88,29h1v1h-1z M90,29h1v1h-1z M91,29h1v1h-1z M93,29h1v1h-1z M94,29h1v1h-1z M95,29h1v1h-1z M98,29h1v1h-1z M100,29h1v1h-1z M104,29h1v1h-1z M4,30h1v1h-1z M6,30h1v1h-1z M8,30h1v1h-1z M10,30h1v1h-1z M12,30h1v1h-1z M13,30h1v1h-1z M15,30h1v1h-1z M16,30h1v1h-1z M17,30h1v1h-1z M21,30h1v1h-1z M22,30h1v1h-1z M23,30h1v1h-1z M26,30h1v1h-1z M28,30h1v1h-1z M30,30h1v1h-1z M32,30h1v1h-1z M35,30h1v1h-1z M36,30h1v1h-1z M38,30h1v1h-1z M40,30h1v1h-1z M41,30h1v1h-1z M49,30h1v1h-1z M50,30h1v1h-1z M52,30h1v1h-1z M54,30h1v1h-1z M56,30h1v1h-1z M62,30h1v1h-1z M63,30h1v1h-1z M64,30h1v1h-1z M67,30h1v1h-1z M68,30h1v1h-1z M69,30h1v1h-1z M71,30h1v1h-1z M72,30h1v1h-1z M74,30h1v1h-1z M76,30h1v1h-1z M78,30h1v1h-1z M80,30h1v1h-1z M84,30h1v1h-1z M85,30h1v1h-1z M86,30h1v1h-1z M88,30h1v1h-1z M89,30h1v1h-1z M91,30h1v1h-1z M98,30h1v1h-1z M100,30h1v1h-1z M102,30h1v1h-1z M104,30h1v1h-1z M6,31h1v1h-1z M8,31h1v1h-1z M12,31h1v1h-1z M13,31h1v1h-1z M15,31h1v1h-1z M16,31h1v1h-1z M17,31h1v1h-1z M20,31h1v1h-1z M24,31h1v1h-1z M27,31h1v1h-1z M28,31h1v1h-1z M32,31h1v1h-1z M33,31h1v1h-1z M34,31h1v1h-1z M35,31h1v1h-1z M42,31h1v1h-1z M43,31h1v1h-1z M44,31h1v1h-1z M45,31h1v1h-1z M47,31h1v1h-1z M51,31h1v1h-1z M52,31h1v1h-1z M56,31h1v1h-1z M58,31h1v1h-1z M59,31h1v1h-1z M61,31h1v1h-1z M65,31h1v1h-1z M66,31h1v1h-1z M68,31h1v1h-1z M70,31h1v1h-1z M71,31h1v1h-1z M73,31h1v1h-1z M74,31h1v1h-1z M75,31h1v1h-1z M76,31h1v1h-1z M80,31h1v1h-1z M82,31h1v1h-1z M83,31h1v1h-1z M87,31h1v1h-1z M89,31h1v1h-1z M92,31h1v1h-1z M93,31h1v1h-1z M94,31h1v1h-1z M95,31h1v1h-1z M99,31h1v1h-1z M100,31h1v1h-1z M104,31h1v1h-1z M5,32h1v1h-1z M8,32h1v1h-1z M9,32h1v1h-1z M10,32h1v1h-1z M11,32h1v1h-1z M12,32h1v1h-1z M13,32h1v1h-1z M18,32h1v1h-1z M20,32h1v1h-1z M23,32h1v1h-1z M24,32h1v1h-1z M25,32h1v1h-1z M26,32h1v1h-1z M28,32h1v1h-1z M29,32h1v1h-1z M30,32h1v1h-1z M31,32h1v1h-1z M32,32h1v1h-1z M33,32h1v1h-1z M36,32h1v1h-1z M40,32h1v1h-1z M41,32h1v1h-1z M42,32h1v1h-1z M43,32h1v1h-1z M44,32h1v1h-1z M47,32h1v1h-1z M48,32h1v1h-1z M50,32h1v1h-1z M51,32h1v1h-1z M52,32h1v1h-1z M53,32h1v1h-1z M54,32h1v1h-1z M55,32h1v1h-1z M56,32h1v1h-1z M57,32h1v1h-1z M58,32h1v1h-1z M60,32h1v1h-1z M62,32h1v1h-1z M63,32h1v1h-1z M67,32h1v1h-1z M69,32h1v1h-1z M70,32h1v1h-1z M74,32h1v1h-1z M75,32h1v1h-1z M76,32h1v1h-1z M77,32h1v1h-1z M78,32h1v1h-1z M79,32h1v1h-1z M80,32h1v1h-1z M81,32h1v1h-1z M82,32h1v1h-1z M83,32h1v1h-1z M84,32h1v1h-1z M90,32h1v1h-1z M93,32h1v1h-1z M94,32h1v1h-1z M95,32h1v1h-1z M96,32h1v1h-1z M97,32h1v1h-1z M100,32h1v1h-1z M101,32h1v1h-1z M102,32h1v1h-1z M103,32h1v1h-1z M104,32h1v1h-1z M105,32h1v1h-1z M108,32h1v1h-1z M7,33h1v1h-1z M8,33h1v1h-1z M11,33h1v1h-1z M16,33h1v1h-1z M17,33h1v1h-1z M18,33h1v1h-1z M19,33h1v1h-1z M20,33h1v1h-1z M23,33h1v1h-1z M24,33h1v1h-1z M26,33h1v1h-1z M28,33h1v1h-1z M29,33h1v1h-1z M30,33h1v1h-1z M31,33h1v1h-1z M32,33h1v1h-1z M33,33h1v1h-1z M34,33h1v1h-1z M35,33h1v1h-1z M36,33h1v1h-1z M37,33h1v1h-1z M40,33h1v1h-1z M41,33h1v1h-1z M42,33h1v1h-1z M44,33h1v1h-1z M45,33h1v1h-1z M48,33h1v1h-1z M49,33h1v1h-1z M50,33h1v1h-1z M52,33h1v1h-1z M53,33h1v1h-1z M55,33h1v1h-1z M60,33h1v1h-1z M61,33h1v1h-1z M62,33h1v1h-1z M63,33h1v1h-1z M64,33h1v1h-1z M72,33h1v1h-1z M75,33h1v1h-1z M78,33h1v1h-1z M79,33h1v1h-1z M80,33h1v1h-1z M81,33h1v1h-1z M82,33h1v1h-1z M83,33h1v1h-1z M85,33h1v1h-1z M87,33h1v1h-1z M88,33h1v1h-1z M93,33h1v1h-1z M94,33h1v1h-1z M95,33h1v1h-1z M96,33h1v1h-1z M98,33h1v1h-1z M99,33h1v1h-1z M100,33h1v1h-1z M101,33h1v1h-1z M104,33h1v1h-1z M107,33h1v1h-1z M108,33h1v1h-1z M7,34h1v1h-1z M8,34h1v1h-1z M10,34h1v1h-1z M13,34h1v1h-1z M16,34h1v1h-1z M17,34h1v1h-1z M18,34h1v1h-1z M20,34h1v1h-1z M21,34h1v1h-1z M23,34h1v1h-1z M30,34h1v1h-1z M32,34h1v1h-1z M36,34h1v1h-1z M38,34h1v1h-1z M40,34h1v1h-1z M43,34h1v1h-1z M50,34h1v1h-1z M51,34h1v1h-1z M60,34h1v1h-1z M61,34h1v1h-1z M62,34h1v1h-1z M64,34h1v1h-1z M68,34h1v1h-1z M71,34h1v1h-1z M72,34h1v1h-1z M74,34h1v1h-1z M80,34h1v1h-1z M83,34h1v1h-1z M84,34h1v1h-1z M86,34h1v1h-1z M87,34h1v1h-1z M89,34h1v1h-1z M91,34h1v1h-1z M95,34h1v1h-1z M96,34h1v1h-1z M98,34h1v1h-1z M100,34h1v1h-1z M102,34h1v1h-1z M103,34h1v1h-1z M104,34h1v1h-1z M105,34h1v1h-1z M107,34h1v1h-1z M4,35h1v1h-1z M5,35h1v1h-1z M6,35h1v1h-1z M9,35h1v1h-1z M12,35h1v1h-1z M13,35h1v1h-1z M15,35h1v1h-1z M16,35h1v1h-1z M18,35h1v1h-1z M19,35h1v1h-1z M20,35h1v1h-1z M21,35h1v1h-1z M22,35h1v1h-1z M23,35h1v1h-1z M25,35h1v1h-1z M26,35h1v1h-1z M27,35h1v1h-1z M28,35h1v1h-1z M32,35h1v1h-1z M35,35h1v1h-1z M38,35h1v1h-1z M41,35h1v1h-1z M42,35h1v1h-1z M43,35h1v1h-1z M44,35h1v1h-1z M45,35h1v1h-1z M46,35h1v1h-1z M47,35h1v1h-1z M50,35h1v1h-1z M51,35h1v1h-1z M52,35h1v1h-1z M53,35h1v1h-1z M57,35h1v1h-1z M59,35h1v1h-1z M65,35h1v1h-1z M66,35h1v1h-1z M68,35h1v1h-1z M73,35h1v1h-1z M74,35h1v1h-1z M75,35h1v1h-1z M76,35h1v1h-1z M77,35h1v1h-1z M81,35h1v1h-1z M92,35h1v1h-1z M94,35h1v1h-1z M95,35h1v1h-1z M99,35h1v1h-1z M100,35h1v1h-1z M101,35h1v1h-1z M104,35h1v1h-1z M108,35h1v1h-1z M6,36h1v1h-1z M8,36h1v1h-1z M10,36h1v1h-1z M12,36h1v1h-1z M13,36h1v1h-1z M15,36h1v1h-1z M16,36h1v1h-1z M17,36h1v1h-1z M18,36h1v1h-1z M21,36h1v1h-1z M22,36h1v1h-1z M24,36h1v1h-1z M28,36h1v1h-1z M31,36h1v1h-1z M37,36h1v1h-1z M40,36h1v1h-1z M41,36h1v1h-1z M42,36h1v1h-1z M50,36h1v1h-1z M52,36h1v1h-1z M53,36h1v1h-1z M54,36h1v1h-1z M55,36h1v1h-1z M57,36h1v1h-1z M62,36h1v1h-1z M63,36h1v1h-1z M67,36h1v1h-1z M73,36h1v1h-1z M74,36h1v1h-1z M76,36h1v1h-1z M77,36h1v1h-1z M84,36h1v1h-1z M88,36h1v1h-1z M89,36h1v1h-1z M91,36h1v1h-1z M92,36h1v1h-1z M93,36h1v1h-1z M94,36h1v1h-1z M98,36h1v1h-1z M100,36h1v1h-1z M102,36h1v1h-1z M103,36h1v1h-1z M104,36h1v1h-1z M105,36h1v1h-1z M107,36h1v1h-1z M4,37h1v1h-1z M5,37h1v1h-1z M6,37h1v1h-1z M8,37h1v1h-1z M9,37h1v1h-1z M11,37h1v1h-1z M14,37h1v1h-1z M16,37h1v1h-1z M21,37h1v1h-1z M24,37h1v1h-1z M26,37h1v1h-1z M31,37h1v1h-1z M32,37h1v1h-1z M34,37h1v1h-1z M36,37h1v1h-1z M38,37h1v1h-1z M39,37h1v1h-1z M40,37h1v1h-1z M42,37h1v1h-1z M44,37h1v1h-1z M46,37h1v1h-1z M47,37h1v1h-1z M48,37h1v1h-1z M49,37h1v1h-1z M53,37h1v1h-1z M55,37h1v1h-1z M56,37h1v1h-1z M58,37h1v1h-1z M60,37h1v1h-1z M61,37h1v1h-1z M63,37h1v1h-1z M65,37h1v1h-1z M68,37h1v1h-1z M69,37h1v1h-1z M70,37h1v1h-1z M72,37h1v1h-1z M73,37h1v1h-1z M74,37h1v1h-1z M75,37h1v1h-1z M76,37h1v1h-1z M77,37h1v1h-1z M79,37h1v1h-1z M83,37h1v1h-1z M89,37h1v1h-1z M91,37h1v1h-1z M94,37h1v1h-1z M96,37h1v1h-1z M100,37h1v1h-1z M102,37h1v1h-1z M104,37h1v1h-1z M106,37h1v1h-1z M107,37h1v1h-1z M108,37h1v1h-1z M8,38h1v1h-1z M10,38h1v1h-1z M11,38h1v1h-1z M13,38h1v1h-1z M16,38h1v1h-1z M17,38h1v1h-1z M23,38h1v1h-1z M25,38h1v1h-1z M27,38h1v1h-1z M29,38h1v1h-1z M31,38h1v1h-1z M32,38h1v1h-1z M36,38h1v1h-1z M37,38h1v1h-1z M38,38h1v1h-1z M39,38h1v1h-1z M43,38h1v1h-1z M44,38h1v1h-1z M47,38h1v1h-1z M50,38h1v1h-1z M51,38h1v1h-1z M53,38h1v1h-1z M56,38h1v1h-1z M59,38h1v1h-1z M60,38h1v1h-1z M62,38h1v1h-1z M63,38h1v1h-1z M65,38h1v1h-1z M67,38h1v1h-1z M68,38h1v1h-1z M71,38h1v1h-1z M72,38h1v1h-1z M74,38h1v1h-1z M75,38h1v1h-1z M76,38h1v1h-1z M78,38h1v1h-1z M80,38h1v1h-1z M81,38h1v1h-1z M85,38h1v1h-1z M86,38h1v1h-1z M89,38h1v1h-1z M93,38h1v1h-1z M95,38h1v1h-1z M97,38h1v1h-1z M98,38h1v1h-1z M99,38h1v1h-1z M100,38h1v1h-1z M103,38h1v1h-1z M105,38h1v1h-1z M107,38h1v1h-1z M4,39h1v1h-1z M5,39h1v1h-1z M8,39h1v1h-1z M9,39h1v1h-1z M11,39h1v1h-1z M12,39h1v1h-1z M14,39h1v1h-1z M15,39h1v1h-1z M18,39h1v1h-1z M19,39h1v1h-1z M20,39h1v1h-1z M22,39h1v1h-1z M24,39h1v1h-1z M25,39h1v1h-1z M27,39h1v1h-1z M28,39h1v1h-1z M29,39h1v1h-1z M31,39h1v1h-1z M32,39h1v1h-1z M34,39h1v1h-1z M35,39h1v1h-1z M42,39h1v1h-1z M44,39h1v1h-1z M45,39h1v1h-1z M47,39h1v1h-1z M51,39h1v1h-1z M52,39h1v1h-1z M53,39h1v1h-1z M57,39h1v1h-1z M61,39h1v1h-1z M65,39h1v1h-1z M66,39h1v1h-1z M68,39h1v1h-1z M69,39h1v1h-1z M70,39h1v1h-1z M71,39h1v1h-1z M74,39h1v1h-1z M76,39h1v1h-1z M77,39h1v1h-1z M79,39h1v1h-1z M82,39h1v1h-1z M83,39h1v1h-1z M89,39h1v1h-1z M91,39h1v1h-1z M92,39h1v1h-1z M93,39h1v1h-1z M94,39h1v1h-1z M95,39h1v1h-1z M99,39h1v1h-1z M100,39h1v1h-1z M101,39h1v1h-1z M102,39h1v1h-1z M104,39h1v1h-1z M108,39h1v1h-1z M4,40h1v1h-1z M7,40h1v1h-1z M8,40h1v1h-1z M10,40h1v1h-1z M12,40h1v1h-1z M17,40h1v1h-1z M21,40h1v1h-1z M23,40h1v1h-1z M25,40h1v1h-1z M30,40h1v1h-1z M31,40h1v1h-1z M33,40h1v1h-1z M34,40h1v1h-1z M35,40h1v1h-1z M36,40h1v1h-1z M37,40h1v1h-1z M38,40h1v1h-1z M39,40h1v1h-1z M42,40h1v1h-1z M43,40h1v1h-1z M44,40h1v1h-1z M45,40h1v1h-1z M47,40h1v1h-1z M48,40h1v1h-1z M49,40h1v1h-1z M52,40h1v1h-1z M54,40h1v1h-1z M55,40h1v1h-1z M63,40h1v1h-1z M66,40h1v1h-1z M68,40h1v1h-1z M70,40h1v1h-1z M71,40h1v1h-1z M73,40h1v1h-1z M74,40h1v1h-1z M76,40h1v1h-1z M77,40h1v1h-1z M79,40h1v1h-1z M81,40h1v1h-1z M82,40h1v1h-1z M83,40h1v1h-1z M86,40h1v1h-1z M87,40h1v1h-1z M88,40h1v1h-1z M90,40h1v1h-1z M91,40h1v1h-1z M92,40h1v1h-1z M94,40h1v1h-1z M95,40h1v1h-1z M97,40h1v1h-1z M99,40h1v1h-1z M100,40h1v1h-1z M102,40h1v1h-1z M103,40h1v1h-1z M105,40h1v1h-1z M106,40h1v1h-1z M107,40h1v1h-1z M8,41h1v1h-1z M9,41h1v1h-1z M13,41h1v1h-1z M17,41h1v1h-1z M18,41h1v1h-1z M20,41h1v1h-1z M21,41h1v1h-1z M23,41h1v1h-1z M26,41h1v1h-1z M29,41h1v1h-1z M31,41h1v1h-1z M32,41h1v1h-1z M34,41h1v1h-1z M36,41h1v1h-1z M38,41h1v1h-1z M40,41h1v1h-1z M41,41h1v1h-1z M42,41h1v1h-1z M43,41h1v1h-1z M44,41h1v1h-1z M45,41h1v1h-1z M46,41h1v1h-1z M49,41h1v1h-1z M52,41h1v1h-1z M54,41h1v1h-1z M57,41h1v1h-1z M58,41h1v1h-1z M60,41h1v1h-1z M61,41h1v1h-1z M62,41h1v1h-1z M63,41h1v1h-1z M64,41h1v1h-1z M65,41h1v1h-1z M68,41h1v1h-1z M69,41h1v1h-1z M72,41h1v1h-1z M73,41h1v1h-1z M74,41h1v1h-1z M75,41h1v1h-1z M76,41h1v1h-1z M78,41h1v1h-1z M79,41h1v1h-1z M83,41h1v1h-1z M84,41h1v1h-1z M86,41h1v1h-1z M87,41h1v1h-1z M88,41h1v1h-1z M89,41h1v1h-1z M92,41h1v1h-1z M93,41h1v1h-1z M94,41h1v1h-1z M96,41h1v1h-1z M97,41h1v1h-1z M99,41h1v1h-1z M100,41h1v1h-1z M101,41h1v1h-1z M102,41h1v1h-1z M105,41h1v1h-1z M106,41h1v1h-1z M5,42h1v1h-1z M6,42h1v1h-1z M7,42h1v1h-1z M10,42h1v1h-1z M11,42h1v1h-1z M13,42h1v1h-1z M14,42h1v1h-1z M15,42h1v1h-1z M16,42h1v1h-1z M17,42h1v1h-1z M22,42h1v1h-1z M24,42h1v1h-1z M25,42h1v1h-1z M26,42h1v1h-1z M27,42h1v1h-1z M32,42h1v1h-1z M33,42h1v1h-1z M36,42h1v1h-1z M38,42h1v1h-1z M39,42h1v1h-1z M43,42h1v1h-1z M48,42h1v1h-1z M50,42h1v1h-1z M53,42h1v1h-1z M54,42h1v1h-1z M55,42h1v1h-1z M62,42h1v1h-1z M64,42h1v1h-1z M74,42h1v1h-1z M77,42h1v1h-1z M79,42h1v1h-1z M84,42h1v1h-1z M85,42h1v1h-1z M86,42h1v1h-1z M87,42h1v1h-1z M89,42h1v1h-1z M95,42h1v1h-1z M96,42h1v1h-1z M98,42h1v1h-1z M99,42h1v1h-1z M100,42h1v1h-1z M102,42h1v1h-1z M103,42h1v1h-1z M105,42h1v1h-1z M106,42h1v1h-1z M107,42h1v1h-1z M5,43h1v1h-1z M7,43h1v1h-1z M9,43h1v1h-1z M11,43h1v1h-1z M13,43h1v1h-1z M14,43h1v1h-1z M16,43h1v1h-1z M18,43h1v1h-1z M19,43h1v1h-1z M20,43h1v1h-1z M21,43h1v1h-1z M22,43h1v1h-1z M23,43h1v1h-1z M25,43h1v1h-1z M26,43h1v1h-1z M28,43h1v1h-1z M29,43h1v1h-1z M31,43h1v1h-1z M34,43h1v1h-1z M35,43h1v1h-1z M37,43h1v1h-1z M38,43h1v1h-1z M41,43h1v1h-1z M42,43h1v1h-1z M44,43h1v1h-1z M45,43h1v1h-1z M47,43h1v1h-1z M50,43h1v1h-1z M51,43h1v1h-1z M52,43h1v1h-1z M53,43h1v1h-1z M56,43h1v1h-1z M57,43h1v1h-1z M59,43h1v1h-1z M63,43h1v1h-1z M65,43h1v1h-1z M66,43h1v1h-1z M67,43h1v1h-1z M68,43h1v1h-1z M69,43h1v1h-1z M70,43h1v1h-1z M71,43h1v1h-1z M73,43h1v1h-1z M75,43h1v1h-1z M76,43h1v1h-1z M77,43h1v1h-1z M81,43h1v1h-1z M89,43h1v1h-1z M91,43h1v1h-1z M92,43h1v1h-1z M93,43h1v1h-1z M97,43h1v1h-1z M98,43h1v1h-1z M99,43h1v1h-1z M101,43h1v1h-1z M102,43h1v1h-1z M104,43h1v1h-1z M105,43h1v1h-1z M4,44h1v1h-1z M8,44h1v1h-1z M9,44h1v1h-1z M10,44h1v1h-1z M11,44h1v1h-1z M12,44h1v1h-1z M15,44h1v1h-1z M16,44h1v1h-1z M21,44h1v1h-1z M22,44h1v1h-1z M23,44h1v1h-1z M24,44h1v1h-1z M25,44h1v1h-1z M26,44h1v1h-1z M30,44h1v1h-1z M31,44h1v1h-1z M34,44h1v1h-1z M37,44h1v1h-1z M39,44h1v1h-1z M40,44h1v1h-1z M42,44h1v1h-1z M43,44h1v1h-1z M46,44h1v1h-1z M47,44h1v1h-1z M48,44h1v1h-1z M49,44h1v1h-1z M52,44h1v1h-1z M53,44h1v1h-1z M55,44h1v1h-1z M57,44h1v1h-1z M58,44h1v1h-1z M63,44h1v1h-1z M64,44h1v1h-1z M66,44h1v1h-1z M67,44h1v1h-1z M68,44h1v1h-1z M70,44h1v1h-1z M72,44h1v1h-1z M76,44h1v1h-1z M77,44h1v1h-1z M78,44h1v1h-1z M81,44h1v1h-1z M82,44h1v1h-1z M84,44h1v1h-1z M86,44h1v1h-1z M88,44h1v1h-1z M96,44h1v1h-1z M97,44h1v1h-1z M99,44h1v1h-1z M100,44h1v1h-1z M102,44h1v1h-1z M103,44h1v1h-1z M105,44h1v1h-1z M107,44h1v1h-1z M5,45h1v1h-1z M7,45h1v1h-1z M9,45h1v1h-1z M12,45h1v1h-1z M15,45h1v1h-1z M17,45h1v1h-1z M22,45h1v1h-1z M25,45h1v1h-1z M26,45h1v1h-1z M28,45h1v1h-1z M30,45h1v1h-1z M33,45h1v1h-1z M35,45h1v1h-1z M36,45h1v1h-1z M37,45h1v1h-1z M45,45h1v1h-1z M46,45h1v1h-1z M47,45h1v1h-1z M49,45h1v1h-1z M51,45h1v1h-1z M53,45h1v1h-1z M54,45h1v1h-1z M55,45h1v1h-1z M56,45h1v1h-1z M61,45h1v1h-1z M62,45h1v1h-1z M64,45h1v1h-1z M65,45h1v1h-1z M66,45h1v1h-1z M67,45h1v1h-1z M71,45h1v1h-1z M72,45h1v1h-1z M75,45h1v1h-1z M77,45h1v1h-1z M80,45h1v1h-1z M82,45h1v1h-1z M83,45h1v1h-1z M84,45h1v1h-1z M85,45h1v1h-1z M90,45h1v1h-1z M91,45h1v1h-1z M92,45h1v1h-1z M94,45h1v1h-1z M95,45h1v1h-1z M96,45h1v1h-1z M98,45h1v1h-1z M101,45h1v1h-1z M102,45h1v1h-1z M106,45h1v1h-1z M108,45h1v1h-1z M5,46h1v1h-1z M6,46h1v1h-1z M9,46h1v1h-1z M10,46h1v1h-1z M11,46h1v1h-1z M12,46h1v1h-1z M13,46h1v1h-1z M14,46h1v1h-1z M18,46h1v1h-1z M19,46h1v1h-1z M21,46h1v1h-1z M22,46h1v1h-1z M24,46h1v1h-1z M25,46h1v1h-1z M26,46h1v1h-1z M30,46h1v1h-1z M31,46h1v1h-1z M36,46h1v1h-1z M38,46h1v1h-1z M39,46h1v1h-1z M41,46h1v1h-1z M43,46h1v1h-1z M44,46h1v1h-1z M45,46h1v1h-1z M47,46h1v1h-1z M48,46h1v1h-1z M49,46h1v1h-1z M50,46h1v1h-1z M51,46h1v1h-1z M53,46h1v1h-1z M59,46h1v1h-1z M60,46h1v1h-1z M62,46h1v1h-1z M64,46h1v1h-1z M67,46h1v1h-1z M68,46h1v1h-1z M72,46h1v1h-1z M73,46h1v1h-1z M74,46h1v1h-1z M75,46h1v1h-1z M76,46h1v1h-1z M78,46h1v1h-1z M79,46h1v1h-1z M80,46h1v1h-1z M83,46h1v1h-1z M84,46h1v1h-1z M86,46h1v1h-1z M87,46h1v1h-1z M91,46h1v1h-1z M96,46h1v1h-1z M98,46h1v1h-1z M100,46h1v1h-1z M101,46h1v1h-1z M102,46h1v1h-1z M105,46h1v1h-1z M106,46h1v1h-1z M107,46h1v1h-1z M4,47h1v1h-1z M6,47h1v1h-1z M8,47h1v1h-1z M9,47h1v1h-1z M13,47h1v1h-1z M14,47h1v1h-1z M15,47h1v1h-1z M18,47h1v1h-1z M20,47h1v1h-1z M22,47h1v1h-1z M25,47h1v1h-1z M26,47h1v1h-1z M28,47h1v1h-1z M29,47h1v1h-1z M35,47h1v1h-1z M37,47h1v1h-1z M44,47h1v1h-1z M46,47h1v1h-1z M51,47h1v1h-1z M52,47h1v1h-1z M55,47h1v1h-1z M56,47h1v1h-1z M57,47h1v1h-1z M58,47h1v1h-1z M59,47h1v1h-1z M62,47h1v1h-1z M63,47h1v1h-1z M65,47h1v1h-1z M66,47h1v1h-1z M68,47h1v1h-1z M71,47h1v1h-1z M77,47h1v1h-1z M81,47h1v1h-1z M85,47h1v1h-1z M86,47h1v1h-1z M89,47h1v1h-1z M90,47h1v1h-1z M92,47h1v1h-1z M94,47h1v1h-1z M95,47h1v1h-1z M97,47h1v1h-1z M99,47h1v1h-1z M100,47h1v1h-1z M101,47h1v1h-1z M103,47h1v1h-1z M104,47h1v1h-1z M108,47h1v1h-1z M5,48h1v1h-1z M6,48h1v1h-1z M10,48h1v1h-1z M12,48h1v1h-1z M17,48h1v1h-1z M21,48h1v1h-1z M23,48h1v1h-1z M31,48h1v1h-1z M33,48h1v1h-1z M34,48h1v1h-1z M36,48h1v1h-1z M40,48h1v1h-1z M41,48h1v1h-1z M42,48h1v1h-1z M43,48h1v1h-1z M44,48h1v1h-1z M46,48h1v1h-1z M47,48h1v1h-1z M49,48h1v1h-1z M55,48h1v1h-1z M58,48h1v1h-1z M62,48h1v1h-1z M63,48h1v1h-1z M64,48h1v1h-1z M65,48h1v1h-1z M67,48h1v1h-1z M70,48h1v1h-1z M73,48h1v1h-1z M74,48h1v1h-1z M78,48h1v1h-1z M82,48h1v1h-1z M83,48h1v1h-1z M90,48h1v1h-1z M91,48h1v1h-1z M93,48h1v1h-1z M94,48h1v1h-1z M96,48h1v1h-1z M97,48h1v1h-1z M99,48h1v1h-1z M100,48h1v1h-1z M102,48h1v1h-1z M105,48h1v1h-1z M106,48h1v1h-1z M108,48h1v1h-1z M5,49h1v1h-1z M7,49h1v1h-1z M9,49h1v1h-1z M11,49h1v1h-1z M13,49h1v1h-1z M16,49h1v1h-1z M17,49h1v1h-1z M22,49h1v1h-1z M23,49h1v1h-1z M24,49h1v1h-1z M26,49h1v1h-1z M27,49h1v1h-1z M28,49h1v1h-1z M29,49h1v1h-1z M30,49h1v1h-1z M32,49h1v1h-1z M34,49h1v1h-1z M36,49h1v1h-1z M37,49h1v1h-1z M38,49h1v1h-1z M40,49h1v1h-1z M45,49h1v1h-1z M47,49h1v1h-1z M50,49h1v1h-1z M52,49h1v1h-1z M54,49h1v1h-1z M57,49h1v1h-1z M58,49h1v1h-1z M60,49h1v1h-1z M63,49h1v1h-1z M68,49h1v1h-1z M69,49h1v1h-1z M70,49h1v1h-1z M74,49h1v1h-1z M76,49h1v1h-1z M77,49h1v1h-1z M78,49h1v1h-1z M80,49h1v1h-1z M81,49h1v1h-1z M82,49h1v1h-1z M86,49h1v1h-1z M87,49h1v1h-1z M88,49h1v1h-1z M89,49h1v1h-1z M91,49h1v1h-1z M92,49h1v1h-1z M94,49h1v1h-1z M95,49h1v1h-1z M96,49h1v1h-1z M97,49h1v1h-1z M99,49h1v1h-1z M103,49h1v1h-1z M108,49h1v1h-1z M5,50h1v1h-1z M8,50h1v1h-1z M9,50h1v1h-1z M10,50h1v1h-1z M22,50h1v1h-1z M25,50h1v1h-1z M28,50h1v1h-1z M31,50h1v1h-1z M35,50h1v1h-1z M36,50h1v1h-1z M38,50h1v1h-1z M40,50h1v1h-1z M41,50h1v1h-1z M44,50h1v1h-1z M47,50h1v1h-1z M48,50h1v1h-1z M50,50h1v1h-1z M53,50h1v1h-1z M55,50h1v1h-1z M62,50h1v1h-1z M65,50h1v1h-1z M71,50h1v1h-1z M72,50h1v1h-1z M73,50h1v1h-1z M74,50h1v1h-1z M75,50h1v1h-1z M77,50h1v1h-1z M78,50h1v1h-1z M79,50h1v1h-1z M83,50h1v1h-1z M84,50h1v1h-1z M86,50h1v1h-1z M89,50h1v1h-1z M91,50h1v1h-1z M98,50h1v1h-1z M103,50h1v1h-1z M107,50h1v1h-1z M4,51h1v1h-1z M8,51h1v1h-1z M9,51h1v1h-1z M11,51h1v1h-1z M13,51h1v1h-1z M14,51h1v1h-1z M15,51h1v1h-1z M18,51h1v1h-1z M19,51h1v1h-1z M20,51h1v1h-1z M22,51h1v1h-1z M23,51h1v1h-1z M27,51h1v1h-1z M28,51h1v1h-1z M29,51h1v1h-1z M31,51h1v1h-1z M32,51h1v1h-1z M33,51h1v1h-1z M37,51h1v1h-1z M38,51h1v1h-1z M39,51h1v1h-1z M44,51h1v1h-1z M45,51h1v1h-1z M46,51h1v1h-1z M50,51h1v1h-1z M51,51h1v1h-1z M52,51h1v1h-1z M56,51h1v1h-1z M58,51h1v1h-1z M59,51h1v1h-1z M61,51h1v1h-1z M65,51h1v1h-1z M67,51h1v1h-1z M68,51h1v1h-1z M69,51h1v1h-1z M70,51h1v1h-1z M76,51h1v1h-1z M77,51h1v1h-1z M81,51h1v1h-1z M82,51h1v1h-1z M85,51h1v1h-1z M89,51h1v1h-1z M90,51h1v1h-1z M92,51h1v1h-1z M93,51h1v1h-1z M94,51h1v1h-1z M95,51h1v1h-1z M99,51h1v1h-1z M102,51h1v1h-1z M104,51h1v1h-1z M108,51h1v1h-1z M4,52h1v1h-1z M6,52h1v1h-1z M7,52h1v1h-1z M8,52h1v1h-1z M9,52h1v1h-1z M10,52h1v1h-1z M11,52h1v1h-1z M12,52h1v1h-1z M13,52h1v1h-1z M14,52h1v1h-1z M19,52h1v1h-1z M22,52h1v1h-1z M24,52h1v1h-1z M28,52h1v1h-1z M29,52h1v1h-1z M30,52h1v1h-1z M31,52h1v1h-1z M32,52h1v1h-1z M33,52h1v1h-1z M34,52h1v1h-1z M35,52h1v1h-1z M36,52h1v1h-1z M39,52h1v1h-1z M40,52h1v1h-1z M41,52h1v1h-1z M42,52h1v1h-1z M44,52h1v1h-1z M45,52h1v1h-1z M52,52h1v1h-1z M53,52h1v1h-1z M54,52h1v1h-1z M55,52h1v1h-1z M56,52h1v1h-1z M58,52h1v1h-1z M60,52h1v1h-1z M63,52h1v1h-1z M65,52h1v1h-1z M66,52h1v1h-1z M67,52h1v1h-1z M68,52h1v1h-1z M69,52h1v1h-1z M70,52h1v1h-1z M74,52h1v1h-1z M76,52h1v1h-1z M77,52h1v1h-1z M78,52h1v1h-1z M79,52h1v1h-1z M80,52h1v1h-1z M81,52h1v1h-1z M83,52h1v1h-1z M86,52h1v1h-1z M88,52h1v1h-1z M89,52h1v1h-1z M91,52h1v1h-1z M93,52h1v1h-1z M94,52h1v1h-1z M96,52h1v1h-1z M97,52h1v1h-1z M100,52h1v1h-1z M101,52h1v1h-1z M102,52h1v1h-1z M103,52h1v1h-1z M104,52h1v1h-1z M106,52h1v1h-1z M107,52h1v1h-1z M108,52h1v1h-1z M6,53h1v1h-1z M7,53h1v1h-1z M8,53h1v1h-1z M12,53h1v1h-1z M14,53h1v1h-1z M15,53h1v1h-1z M19,53h1v1h-1z M20,53h1v1h-1z M21,53h1v1h-1z M22,53h1v1h-1z M24,53h1v1h-1z M25,53h1v1h-1z M28,53h1v1h-1z M32,53h1v1h-1z M34,53h1v1h-1z M35,53h1v1h-1z M37,53h1v1h-1z M40,53h1v1h-1z M45,53h1v1h-1z M49,53h1v1h-1z M52,53h1v1h-1z M56,53h1v1h-1z M59,53h1v1h-1z M60,53h1v1h-1z M62,53h1v1h-1z M63,53h1v1h-1z M64,53h1v1h-1z M66,53h1v1h-1z M67,53h1v1h-1z M69,53h1v1h-1z M70,53h1v1h-1z M72,53h1v1h-1z M73,53h1v1h-1z M75,53h1v1h-1z M76,53h1v1h-1z M80,53h1v1h-1z M81,53h1v1h-1z M83,53h1v1h-1z M84,53h1v1h-1z M87,53h1v1h-1z M88,53h1v1h-1z M91,53h1v1h-1z M94,53h1v1h-1z M97,53h1v1h-1z M99,53h1v1h-1z M100,53h1v1h-1z M104,53h1v1h-1z M106,53h1v1h-1z M107,53h1v1h-1z M5,54h1v1h-1z M6,54h1v1h-1z M7,54h1v1h-1z M8,54h1v1h-1z M10,54h1v1h-1z M12,54h1v1h-1z M14,54h1v1h-1z M17,54h1v1h-1z M18,54h1v1h-1z M21,54h1v1h-1z M23,54h1v1h-1z M24,54h1v1h-1z M25,54h1v1h-1z M28,54h1v1h-1z M30,54h1v1h-1z M32,54h1v1h-1z M36,54h1v1h-1z M37,54h1v1h-1z M38,54h1v1h-1z M40,54h1v1h-1z M41,54h1v1h-1z M50,54h1v1h-1z M51,54h1v1h-1z M52,54h1v1h-1z M54,54h1v1h-1z M56,54h1v1h-1z M61,54h1v1h-1z M62,54h1v1h-1z M64,54h1v1h-1z M65,54h1v1h-1z M74,54h1v1h-1z M76,54h1v1h-1z M78,54h1v1h-1z M80,54h1v1h-1z M83,54h1v1h-1z M86,54h1v1h-1z M88,54h1v1h-1z M91,54h1v1h-1z M92,54h1v1h-1z M96,54h1v1h-1z M98,54h1v1h-1z M99,54h1v1h-1z M100,54h1v1h-1z M102,54h1v1h-1z M104,54h1v1h-1z M105,54h1v1h-1z M107,54h1v1h-1z M5,55h1v1h-1z M6,55h1v1h-1z M8,55h1v1h-1z M12,55h1v1h-1z M14,55h1v1h-1z M17,55h1v1h-1z M20,55h1v1h-1z M23,55h1v1h-1z M24,55h1v1h-1z M25,55h1v1h-1z M27,55h1v1h-1z M28,55h1v1h-1z M32,55h1v1h-1z M34,55h1v1h-1z M37,55h1v1h-1z M39,55h1v1h-1z M41,55h1v1h-1z M42,55h1v1h-1z M44,55h1v1h-1z M45,55h1v1h-1z M47,55h1v1h-1z M49,55h1v1h-1z M50,55h1v1h-1z M51,55h1v1h-1z M52,55h1v1h-1z M56,55h1v1h-1z M58,55h1v1h-1z M59,55h1v1h-1z M61,55h1v1h-1z M68,55h1v1h-1z M71,55h1v1h-1z M73,55h1v1h-1z M75,55h1v1h-1z M76,55h1v1h-1z M80,55h1v1h-1z M83,55h1v1h-1z M85,55h1v1h-1z M86,55h1v1h-1z M87,55h1v1h-1z M89,55h1v1h-1z M90,55h1v1h-1z M92,55h1v1h-1z M95,55h1v1h-1z M98,55h1v1h-1z M99,55h1v1h-1z M100,55h1v1h-1z M104,55h1v1h-1z M107,55h1v1h-1z M108,55h1v1h-1z M7,56h1v1h-1z M8,56h1v1h-1z M9,56h1v1h-1z M10,56h1v1h-1z M11,56h1v1h-1z M12,56h1v1h-1z M16,56h1v1h-1z M17,56h1v1h-1z M18,56h1v1h-1z M20,56h1v1h-1z M21,56h1v1h-1z M22,56h1v1h-1z M28,56h1v1h-1z M29,56h1v1h-1z M30,56h1v1h-1z M31,56h1v1h-1z M32,56h1v1h-1z M35,56h1v1h-1z M36,56h1v1h-1z M39,56h1v1h-1z M41,56h1v1h-1z M43,56h1v1h-1z M44,56h1v1h-1z M48,56h1v1h-1z M51,56h1v1h-1z M52,56h1v1h-1z M53,56h1v1h-1z M54,56h1v1h-1z M55,56h1v1h-1z M56,56h1v1h-1z M59,56h1v1h-1z M60,56h1v1h-1z M62,56h1v1h-1z M65,56h1v1h-1z M68,56h1v1h-1z M69,56h1v1h-1z M71,56h1v1h-1z M72,56h1v1h-1z M73,56h1v1h-1z M75,56h1v1h-1z M76,56h1v1h-1z M77,56h1v1h-1z M78,56h1v1h-1z M79,56h1v1h-1z M80,56h1v1h-1z M82,56h1v1h-1z M84,56h1v1h-1z M85,56h1v1h-1z M87,56h1v1h-1z M88,56h1v1h-1z M90,56h1v1h-1z M92,56h1v1h-1z M94,56h1v1h-1z M96,56h1v1h-1z M98,56h1v1h-1z M100,56h1v1h-1z M101,56h1v1h-1z M102,56h1v1h-1z M103,56h1v1h-1z M104,56h1v1h-1z M106,56h1v1h-1z M107,56h1v1h-1z M108,56h1v1h-1z M6,57h1v1h-1z M7,57h1v1h-1z M11,57h1v1h-1z M12,57h1v1h-1z M13,57h1v1h-1z M15,57h1v1h-1z M17,57h1v1h-1z M18,57h1v1h-1z M22,57h1v1h-1z M23,57h1v1h-1z M25,57h1v1h-1z M26,57h1v1h-1z M27,57h1v1h-1z M31,57h1v1h-1z M33,57h1v1h-1z M34,57h1v1h-1z M36,57h1v1h-1z M38,57h1v1h-1z M39,57h1v1h-1z M41,57h1v1h-1z M43,57h1v1h-1z M44,57h1v1h-1z M45,57h1v1h-1z M46,57h1v1h-1z M47,57h1v1h-1z M48,57h1v1h-1z M49,57h1v1h-1z M50,57h1v1h-1z M55,57h1v1h-1z M60,57h1v1h-1z M65,57h1v1h-1z M67,57h1v1h-1z M69,57h1v1h-1z M70,57h1v1h-1z M72,57h1v1h-1z M74,57h1v1h-1z M77,57h1v1h-1z M78,57h1v1h-1z M81,57h1v1h-1z M83,57h1v1h-1z M86,57h1v1h-1z M88,57h1v1h-1z M92,57h1v1h-1z M93,57h1v1h-1z M95,57h1v1h-1z M96,57h1v1h-1z M97,57h1v1h-1z M98,57h1v1h-1z M99,57h1v1h-1z M100,57h1v1h-1z M102,57h1v1h-1z M107,57h1v1h-1z M108,57h1v1h-1z M4,58h1v1h-1z M5,58h1v1h-1z M6,58h1v1h-1z M10,58h1v1h-1z M13,58h1v1h-1z M14,58h1v1h-1z M16,58h1v1h-1z M19,58h1v1h-1z M22,58h1v1h-1z M25,58h1v1h-1z M26,58h1v1h-1z M31,58h1v1h-1z M32,58h1v1h-1z M38,58h1v1h-1z M39,58h1v1h-1z M40,58h1v1h-1z M41,58h1v1h-1z M43,58h1v1h-1z M44,58h1v1h-1z M50,58h1v1h-1z M51,58h1v1h-1z M53,58h1v1h-1z M56,58h1v1h-1z M59,58h1v1h-1z M60,58h1v1h-1z M62,58h1v1h-1z M63,58h1v1h-1z M64,58h1v1h-1z M65,58h1v1h-1z M71,58h1v1h-1z M72,58h1v1h-1z M74,58h1v1h-1z M77,58h1v1h-1z M78,58h1v1h-1z M79,58h1v1h-1z M83,58h1v1h-1z M84,58h1v1h-1z M85,58h1v1h-1z M86,58h1v1h-1z M87,58h1v1h-1z M88,58h1v1h-1z M89,58h1v1h-1z M95,58h1v1h-1z M96,58h1v1h-1z M97,58h1v1h-1z M98,58h1v1h-1z M100,58h1v1h-1z M101,58h1v1h-1z M107,58h1v1h-1z M4,59h1v1h-1z M6,59h1v1h-1z M7,59h1v1h-1z M8,59h1v1h-1z M11,59h1v1h-1z M12,59h1v1h-1z M13,59h1v1h-1z M14,59h1v1h-1z M15,59h1v1h-1z M17,59h1v1h-1z M18,59h1v1h-1z M22,59h1v1h-1z M23,59h1v1h-1z M24,59h1v1h-1z M25,59h1v1h-1z M26,59h1v1h-1z M29,59h1v1h-1z M32,59h1v1h-1z M33,59h1v1h-1z M35,59h1v1h-1z M38,59h1v1h-1z M41,59h1v1h-1z M42,59h1v1h-1z M44,59h1v1h-1z M45,59h1v1h-1z M47,59h1v1h-1z M52,59h1v1h-1z M56,59h1v1h-1z M57,59h1v1h-1z M67,59h1v1h-1z M68,59h1v1h-1z M69,59h1v1h-1z M70,59h1v1h-1z M77,59h1v1h-1z M78,59h1v1h-1z M80,59h1v1h-1z M81,59h1v1h-1z M83,59h1v1h-1z M90,59h1v1h-1z M92,59h1v1h-1z M94,59h1v1h-1z M99,59h1v1h-1z M101,59h1v1h-1z M104,59h1v1h-1z M105,59h1v1h-1z M108,59h1v1h-1z M5,60h1v1h-1z M6,60h1v1h-1z M7,60h1v1h-1z M9,60h1v1h-1z M10,60h1v1h-1z M11,60h1v1h-1z M12,60h1v1h-1z M13,60h1v1h-1z M17,60h1v1h-1z M20,60h1v1h-1z M21,60h1v1h-1z M22,60h1v1h-1z M23,60h1v1h-1z M24,60h1v1h-1z M25,60h1v1h-1z M30,60h1v1h-1z M33,60h1v1h-1z M34,60h1v1h-1z M35,60h1v1h-1z M36,60h1v1h-1z M38,60h1v1h-1z M42,60h1v1h-1z M43,60h1v1h-1z M44,60h1v1h-1z M45,60h1v1h-1z M46,60h1v1h-1z M48,60h1v1h-1z M49,60h1v1h-1z M54,60h1v1h-1z M55,60h1v1h-1z M56,60h1v1h-1z M58,60h1v1h-1z M59,60h1v1h-1z M61,60h1v1h-1z M64,60h1v1h-1z M66,60h1v1h-1z M68,60h1v1h-1z M72,60h1v1h-1z M73,60h1v1h-1z M75,60h1v1h-1z M76,60h1v1h-1z M78,60h1v1h-1z M82,60h1v1h-1z M83,60h1v1h-1z M85,60h1v1h-1z M87,60h1v1h-1z M89,60h1v1h-1z M90,60h1v1h-1z M91,60h1v1h-1z M93,60h1v1h-1z M94,60h1v1h-1z M95,60h1v1h-1z M97,60h1v1h-1z M98,60h1v1h-1z M100,60h1v1h-1z M101,60h1v1h-1z M102,60h1v1h-1z M103,60h1v1h-1z M105,60h1v1h-1z M107,60h1v1h-1z M4,61h1v1h-1z M5,61h1v1h-1z M7,61h1v1h-1z M9,61h1v1h-1z M11,61h1v1h-1z M12,61h1v1h-1z M16,61h1v1h-1z M21,61h1v1h-1z M22,61h1v1h-1z M24,61h1v1h-1z M25,61h1v1h-1z M27,61h1v1h-1z M31,61h1v1h-1z M33,61h1v1h-1z M34,61h1v1h-1z M36,61h1v1h-1z M38,61h1v1h-1z M39,61h1v1h-1z M40,61h1v1h-1z M41,61h1v1h-1z M43,61h1v1h-1z M44,61h1v1h-1z M45,61h1v1h-1z M46,61h1v1h-1z M47,61h1v1h-1z M49,61h1v1h-1z M50,61h1v1h-1z M51,61h1v1h-1z M57,61h1v1h-1z M58,61h1v1h-1z M59,61h1v1h-1z M60,61h1v1h-1z M61,61h1v1h-1z M62,61h1v1h-1z M63,61h1v1h-1z M64,61h1v1h-1z M70,61h1v1h-1z M71,61h1v1h-1z M73,61h1v1h-1z M74,61h1v1h-1z M75,61h1v1h-1z M77,61h1v1h-1z M78,61h1v1h-1z M79,61h1v1h-1z M81,61h1v1h-1z M83,61h1v1h-1z M84,61h1v1h-1z M85,61h1v1h-1z M88,61h1v1h-1z M89,61h1v1h-1z M90,61h1v1h-1z M92,61h1v1h-1z M93,61h1v1h-1z M97,61h1v1h-1z M98,61h1v1h-1z M99,61h1v1h-1z M100,61h1v1h-1z M102,61h1v1h-1z M103,61h1v1h-1z M105,61h1v1h-1z M106,61h1v1h-1z M4,62h1v1h-1z M5,62h1v1h-1z M6,62h1v1h-1z M8,62h1v1h-1z M9,62h1v1h-1z M10,62h1v1h-1z M11,62h1v1h-1z M12,62h1v1h-1z M13,62h1v1h-1z M14,62h1v1h-1z M15,62h1v1h-1z M17,62h1v1h-1z M21,62h1v1h-1z M25,62h1v1h-1z M27,62h1v1h-1z M29,62h1v1h-1z M31,62h1v1h-1z M35,62h1v1h-1z M36,62h1v1h-1z M38,62h1v1h-1z M39,62h1v1h-1z M47,62h1v1h-1z M48,62h1v1h-1z M50,62h1v1h-1z M56,62h1v1h-1z M59,62h1v1h-1z M60,62h1v1h-1z M62,62h1v1h-1z M65,62h1v1h-1z M67,62h1v1h-1z M71,62h1v1h-1z M72,62h1v1h-1z M74,62h1v1h-1z M75,62h1v1h-1z M77,62h1v1h-1z M78,62h1v1h-1z M79,62h1v1h-1z M83,62h1v1h-1z M84,62h1v1h-1z M86,62h1v1h-1z M88,62h1v1h-1z M89,62h1v1h-1z M92,62h1v1h-1z M93,62h1v1h-1z M98,62h1v1h-1z M100,62h1v1h-1z M101,62h1v1h-1z M105,62h1v1h-1z M106,62h1v1h-1z M5,63h1v1h-1z M6,63h1v1h-1z M7,63h1v1h-1z M8,63h1v1h-1z M12,63h1v1h-1z M14,63h1v1h-1z M16,63h1v1h-1z M17,63h1v1h-1z M19,63h1v1h-1z M20,63h1v1h-1z M23,63h1v1h-1z M24,63h1v1h-1z M26,63h1v1h-1z M27,63h1v1h-1z M28,63h1v1h-1z M29,63h1v1h-1z M32,63h1v1h-1z M35,63h1v1h-1z M37,63h1v1h-1z M38,63h1v1h-1z M41,63h1v1h-1z M42,63h1v1h-1z M44,63h1v1h-1z M45,63h1v1h-1z M46,63h1v1h-1z M49,63h1v1h-1z M51,63h1v1h-1z M52,63h1v1h-1z M54,63h1v1h-1z M55,63h1v1h-1z M56,63h1v1h-1z M57,63h1v1h-1z M58,63h1v1h-1z M59,63h1v1h-1z M62,63h1v1h-1z M68,63h1v1h-1z M73,63h1v1h-1z M75,63h1v1h-1z M76,63h1v1h-1z M78,63h1v1h-1z M79,63h1v1h-1z M81,63h1v1h-1z M83,63h1v1h-1z M87,63h1v1h-1z M89,63h1v1h-1z M90,63h1v1h-1z M92,63h1v1h-1z M94,63h1v1h-1z M95,63h1v1h-1z M97,63h1v1h-1z M99,63h1v1h-1z M100,63h1v1h-1z M101,63h1v1h-1z M102,63h1v1h-1z M103,63h1v1h-1z M108,63h1v1h-1z M6,64h1v1h-1z M10,64h1v1h-1z M11,64h1v1h-1z M15,64h1v1h-1z M17,64h1v1h-1z M18,64h1v1h-1z M20,64h1v1h-1z M21,64h1v1h-1z M22,64h1v1h-1z M23,64h1v1h-1z M26,64h1v1h-1z M28,64h1v1h-1z M30,64h1v1h-1z M32,64h1v1h-1z M35,64h1v1h-1z M39,64h1v1h-1z M42,64h1v1h-1z M43,64h1v1h-1z M44,64h1v1h-1z M46,64h1v1h-1z M50,64h1v1h-1z M51,64h1v1h-1z M52,64h1v1h-1z M54,64h1v1h-1z M58,64h1v1h-1z M59,64h1v1h-1z M61,64h1v1h-1z M62,64h1v1h-1z M63,64h1v1h-1z M64,64h1v1h-1z M65,64h1v1h-1z M66,64h1v1h-1z M67,64h1v1h-1z M68,64h1v1h-1z M70,64h1v1h-1z M71,64h1v1h-1z M72,64h1v1h-1z M73,64h1v1h-1z M75,64h1v1h-1z M76,64h1v1h-1z M78,64h1v1h-1z M81,64h1v1h-1z M82,64h1v1h-1z M83,64h1v1h-1z M84,64h1v1h-1z M88,64h1v1h-1z M90,64h1v1h-1z M91,64h1v1h-1z M92,64h1v1h-1z M94,64h1v1h-1z M96,64h1v1h-1z M97,64h1v1h-1z M99,64h1v1h-1z M100,64h1v1h-1z M103,64h1v1h-1z M105,64h1v1h-1z M106,64h1v1h-1z M5,65h1v1h-1z M6,65h1v1h-1z M11,65h1v1h-1z M17,65h1v1h-1z M19,65h1v1h-1z M21,65h1v1h-1z M23,65h1v1h-1z M24,65h1v1h-1z M25,65h1v1h-1z M28,65h1v1h-1z M34,65h1v1h-1z M35,65h1v1h-1z M36,65h1v1h-1z M37,65h1v1h-1z M40,65h1v1h-1z M42,65h1v1h-1z M43,65h1v1h-1z M44,65h1v1h-1z M45,65h1v1h-1z M47,65h1v1h-1z M48,65h1v1h-1z M52,65h1v1h-1z M55,65h1v1h-1z M63,65h1v1h-1z M64,65h1v1h-1z M66,65h1v1h-1z M68,65h1v1h-1z M69,65h1v1h-1z M71,65h1v1h-1z M72,65h1v1h-1z M73,65h1v1h-1z M74,65h1v1h-1z M75,65h1v1h-1z M77,65h1v1h-1z M78,65h1v1h-1z M79,65h1v1h-1z M82,65h1v1h-1z M84,65h1v1h-1z M86,65h1v1h-1z M90,65h1v1h-1z M95,65h1v1h-1z M96,65h1v1h-1z M99,65h1v1h-1z M100,65h1v1h-1z M102,65h1v1h-1z M104,65h1v1h-1z M107,65h1v1h-1z M4,66h1v1h-1z M5,66h1v1h-1z M6,66h1v1h-1z M7,66h1v1h-1z M8,66h1v1h-1z M9,66h1v1h-1z M10,66h1v1h-1z M14,66h1v1h-1z M15,66h1v1h-1z M17,66h1v1h-1z M18,66h1v1h-1z M19,66h1v1h-1z M20,66h1v1h-1z M22,66h1v1h-1z M23,66h1v1h-1z M24,66h1v1h-1z M35,66h1v1h-1z M36,66h1v1h-1z M37,66h1v1h-1z M38,66h1v1h-1z M40,66h1v1h-1z M41,66h1v1h-1z M43,66h1v1h-1z M47,66h1v1h-1z M50,66h1v1h-1z M56,66h1v1h-1z M59,66h1v1h-1z M62,66h1v1h-1z M65,66h1v1h-1z M67,66h1v1h-1z M69,66h1v1h-1z M72,66h1v1h-1z M74,66h1v1h-1z M75,66h1v1h-1z M77,66h1v1h-1z M80,66h1v1h-1z M86,66h1v1h-1z M92,66h1v1h-1z M95,66h1v1h-1z M96,66h1v1h-1z M98,66h1v1h-1z M104,66h1v1h-1z M107,66h1v1h-1z M4,67h1v1h-1z M7,67h1v1h-1z M11,67h1v1h-1z M12,67h1v1h-1z M14,67h1v1h-1z M17,67h1v1h-1z M19,67h1v1h-1z M23,67h1v1h-1z M24,67h1v1h-1z M25,67h1v1h-1z M26,67h1v1h-1z M28,67h1v1h-1z M29,67h1v1h-1z M32,67h1v1h-1z M34,67h1v1h-1z M42,67h1v1h-1z M43,67h1v1h-1z M44,67h1v1h-1z M46,67h1v1h-1z M47,67h1v1h-1z M50,67h1v1h-1z M53,67h1v1h-1z M55,67h1v1h-1z M56,67h1v1h-1z M58,67h1v1h-1z M59,67h1v1h-1z M65,67h1v1h-1z M66,67h1v1h-1z M68,67h1v1h-1z M69,67h1v1h-1z M70,67h1v1h-1z M71,67h1v1h-1z M73,67h1v1h-1z M74,67h1v1h-1z M76,67h1v1h-1z M78,67h1v1h-1z M81,67h1v1h-1z M83,67h1v1h-1z M85,67h1v1h-1z M86,67h1v1h-1z M90,67h1v1h-1z M92,67h1v1h-1z M93,67h1v1h-1z M97,67h1v1h-1z M98,67h1v1h-1z M99,67h1v1h-1z M100,67h1v1h-1z M101,67h1v1h-1z M104,67h1v1h-1z M5,68h1v1h-1z M10,68h1v1h-1z M12,68h1v1h-1z M15,68h1v1h-1z M16,68h1v1h-1z M18,68h1v1h-1z M19,68h1v1h-1z M22,68h1v1h-1z M23,68h1v1h-1z M27,68h1v1h-1z M28,68h1v1h-1z M29,68h1v1h-1z M30,68h1v1h-1z M31,68h1v1h-1z M32,68h1v1h-1z M34,68h1v1h-1z M35,68h1v1h-1z M36,68h1v1h-1z M37,68h1v1h-1z M39,68h1v1h-1z M40,68h1v1h-1z M41,68h1v1h-1z M42,68h1v1h-1z M44,68h1v1h-1z M52,68h1v1h-1z M54,68h1v1h-1z M55,68h1v1h-1z M56,68h1v1h-1z M57,68h1v1h-1z M58,68h1v1h-1z M60,68h1v1h-1z M66,68h1v1h-1z M71,68h1v1h-1z M73,68h1v1h-1z M74,68h1v1h-1z M76,68h1v1h-1z M78,68h1v1h-1z M79,68h1v1h-1z M81,68h1v1h-1z M87,68h1v1h-1z M89,68h1v1h-1z M93,68h1v1h-1z M94,68h1v1h-1z M96,68h1v1h-1z M99,68h1v1h-1z M100,68h1v1h-1z M102,68h1v1h-1z M103,68h1v1h-1z M105,68h1v1h-1z M106,68h1v1h-1z M108,68h1v1h-1z M7,69h1v1h-1z M11,69h1v1h-1z M12,69h1v1h-1z M13,69h1v1h-1z M15,69h1v1h-1z M16,69h1v1h-1z M17,69h1v1h-1z M18,69h1v1h-1z M22,69h1v1h-1z M23,69h1v1h-1z M27,69h1v1h-1z M33,69h1v1h-1z M36,69h1v1h-1z M39,69h1v1h-1z M40,69h1v1h-1z M41,69h1v1h-1z M43,69h1v1h-1z M45,69h1v1h-1z M46,69h1v1h-1z M49,69h1v1h-1z M53,69h1v1h-1z M54,69h1v1h-1z M55,69h1v1h-1z M58,69h1v1h-1z M59,69h1v1h-1z M60,69h1v1h-1z M61,69h1v1h-1z M63,69h1v1h-1z M64,69h1v1h-1z M66,69h1v1h-1z M67,69h1v1h-1z M69,69h1v1h-1z M70,69h1v1h-1z M71,69h1v1h-1z M73,69h1v1h-1z M77,69h1v1h-1z M79,69h1v1h-1z M81,69h1v1h-1z M83,69h1v1h-1z M84,69h1v1h-1z M86,69h1v1h-1z M87,69h1v1h-1z M88,69h1v1h-1z M89,69h1v1h-1z M90,69h1v1h-1z M92,69h1v1h-1z M93,69h1v1h-1z M95,69h1v1h-1z M99,69h1v1h-1z M100,69h1v1h-1z M102,69h1v1h-1z M103,69h1v1h-1z M105,69h1v1h-1z M106,69h1v1h-1z M107,69h1v1h-1z M4,70h1v1h-1z M5,70h1v1h-1z M6,70h1v1h-1z M7,70h1v1h-1z M8,70h1v1h-1z M10,70h1v1h-1z M12,70h1v1h-1z M13,70h1v1h-1z M15,70h1v1h-1z M19,70h1v1h-1z M20,70h1v1h-1z M26,70h1v1h-1z M30,70h1v1h-1z M32,70h1v1h-1z M37,70h1v1h-1z M38,70h1v1h-1z M39,70h1v1h-1z M40,70h1v1h-1z M41,70h1v1h-1z M48,70h1v1h-1z M50,70h1v1h-1z M53,70h1v1h-1z M55,70h1v1h-1z M56,70h1v1h-1z M61,70h1v1h-1z M62,70h1v1h-1z M63,70h1v1h-1z M64,70h1v1h-1z M65,70h1v1h-1z M71,70h1v1h-1z M72,70h1v1h-1z M74,70h1v1h-1z M75,70h1v1h-1z M77,70h1v1h-1z M79,70h1v1h-1z M80,70h1v1h-1z M83,70h1v1h-1z M86,70h1v1h-1z M89,70h1v1h-1z M92,70h1v1h-1z M93,70h1v1h-1z M95,70h1v1h-1z M97,70h1v1h-1z M98,70h1v1h-1z M99,70h1v1h-1z M100,70h1v1h-1z M102,70h1v1h-1z M104,70h1v1h-1z M105,70h1v1h-1z M106,70h1v1h-1z M107,70h1v1h-1z M108,70h1v1h-1z M5,71h1v1h-1z M6,71h1v1h-1z M8,71h1v1h-1z M13,71h1v1h-1z M14,71h1v1h-1z M16,71h1v1h-1z M17,71h1v1h-1z M20,71h1v1h-1z M23,71h1v1h-1z M24,71h1v1h-1z M26,71h1v1h-1z M27,71h1v1h-1z M29,71h1v1h-1z M31,71h1v1h-1z M32,71h1v1h-1z M35,71h1v1h-1z M41,71h1v1h-1z M44,71h1v1h-1z M45,71h1v1h-1z M46,71h1v1h-1z M47,71h1v1h-1z M49,71h1v1h-1z M55,71h1v1h-1z M57,71h1v1h-1z M59,71h1v1h-1z M63,71h1v1h-1z M65,71h1v1h-1z M67,71h1v1h-1z M68,71h1v1h-1z M73,71h1v1h-1z M74,71h1v1h-1z M75,71h1v1h-1z M77,71h1v1h-1z M78,71h1v1h-1z M80,71h1v1h-1z M83,71h1v1h-1z M85,71h1v1h-1z M86,71h1v1h-1z M90,71h1v1h-1z M92,71h1v1h-1z M93,71h1v1h-1z M94,71h1v1h-1z M95,71h1v1h-1z M103,71h1v1h-1z M105,71h1v1h-1z M107,71h1v1h-1z M108,71h1v1h-1z M8,72h1v1h-1z M10,72h1v1h-1z M12,72h1v1h-1z M14,72h1v1h-1z M16,72h1v1h-1z M19,72h1v1h-1z M20,72h1v1h-1z M26,72h1v1h-1z M27,72h1v1h-1z M28,72h1v1h-1z M29,72h1v1h-1z M30,72h1v1h-1z M32,72h1v1h-1z M36,72h1v1h-1z M40,72h1v1h-1z M41,72h1v1h-1z M44,72h1v1h-1z M45,72h1v1h-1z M46,72h1v1h-1z M50,72h1v1h-1z M54,72h1v1h-1z M57,72h1v1h-1z M60,72h1v1h-1z M61,72h1v1h-1z M62,72h1v1h-1z M63,72h1v1h-1z M65,72h1v1h-1z M66,72h1v1h-1z M67,72h1v1h-1z M68,72h1v1h-1z M70,72h1v1h-1z M71,72h1v1h-1z M75,72h1v1h-1z M78,72h1v1h-1z M79,72h1v1h-1z M82,72h1v1h-1z M84,72h1v1h-1z M87,72h1v1h-1z M89,72h1v1h-1z M91,72h1v1h-1z M92,72h1v1h-1z M93,72h1v1h-1z M95,72h1v1h-1z M96,72h1v1h-1z M99,72h1v1h-1z M101,72h1v1h-1z M105,72h1v1h-1z M107,72h1v1h-1z M108,72h1v1h-1z M4,73h1v1h-1z M5,73h1v1h-1z M6,73h1v1h-1z M7,73h1v1h-1z M8,73h1v1h-1z M9,73h1v1h-1z M11,73h1v1h-1z M14,73h1v1h-1z M15,73h1v1h-1z M17,73h1v1h-1z M22,73h1v1h-1z M25,73h1v1h-1z M26,73h1v1h-1z M27,73h1v1h-1z M31,73h1v1h-1z M33,73h1v1h-1z M34,73h1v1h-1z M36,73h1v1h-1z M37,73h1v1h-1z M38,73h1v1h-1z M39,73h1v1h-1z M40,73h1v1h-1z M43,73h1v1h-1z M44,73h1v1h-1z M47,73h1v1h-1z M48,73h1v1h-1z M52,73h1v1h-1z M55,73h1v1h-1z M57,73h1v1h-1z M58,73h1v1h-1z M59,73h1v1h-1z M61,73h1v1h-1z M64,73h1v1h-1z M66,73h1v1h-1z M67,73h1v1h-1z M68,73h1v1h-1z M72,73h1v1h-1z M74,73h1v1h-1z M75,73h1v1h-1z M76,73h1v1h-1z M79,73h1v1h-1z M83,73h1v1h-1z M85,73h1v1h-1z M86,73h1v1h-1z M89,73h1v1h-1z M91,73h1v1h-1z M93,73h1v1h-1z M96,73h1v1h-1z M97,73h1v1h-1z M99,73h1v1h-1z M100,73h1v1h-1z M102,73h1v1h-1z M103,73h1v1h-1z M107,73h1v1h-1z M108,73h1v1h-1z M5,74h1v1h-1z M6,74h1v1h-1z M8,74h1v1h-1z M10,74h1v1h-1z M11,74h1v1h-1z M12,74h1v1h-1z M13,74h1v1h-1z M16,74h1v1h-1z M18,74h1v1h-1z M20,74h1v1h-1z M24,74h1v1h-1z M30,74h1v1h-1z M31,74h1v1h-1z M38,74h1v1h-1z M41,74h1v1h-1z M43,74h1v1h-1z M48,74h1v1h-1z M50,74h1v1h-1z M56,74h1v1h-1z M59,74h1v1h-1z M60,74h1v1h-1z M62,74h1v1h-1z M63,74h1v1h-1z M64,74h1v1h-1z M65,74h1v1h-1z M67,74h1v1h-1z M68,74h1v1h-1z M71,74h1v1h-1z M72,74h1v1h-1z M74,74h1v1h-1z M78,74h1v1h-1z M83,74h1v1h-1z M86,74h1v1h-1z M91,74h1v1h-1z M98,74h1v1h-1z M99,74h1v1h-1z M102,74h1v1h-1z M103,74h1v1h-1z M104,74h1v1h-1z M105,74h1v1h-1z M106,74h1v1h-1z M107,74h1v1h-1z M5,75h1v1h-1z M8,75h1v1h-1z M9,75h1v1h-1z M11,75h1v1h-1z M12,75h1v1h-1z M15,75h1v1h-1z M16,75h1v1h-1z M22,75h1v1h-1z M23,75h1v1h-1z M24,75h1v1h-1z M26,75h1v1h-1z M29,75h1v1h-1z M31,75h1v1h-1z M32,75h1v1h-1z M33,75h1v1h-1z M35,75h1v1h-1z M37,75h1v1h-1z M38,75h1v1h-1z M42,75h1v1h-1z M43,75h1v1h-1z M44,75h1v1h-1z M45,75h1v1h-1z M46,75h1v1h-1z M47,75h1v1h-1z M51,75h1v1h-1z M52,75h1v1h-1z M53,75h1v1h-1z M54,75h1v1h-1z M55,75h1v1h-1z M57,75h1v1h-1z M58,75h1v1h-1z M61,75h1v1h-1z M62,75h1v1h-1z M65,75h1v1h-1z M66,75h1v1h-1z M68,75h1v1h-1z M69,75h1v1h-1z M70,75h1v1h-1z M74,75h1v1h-1z M76,75h1v1h-1z M78,75h1v1h-1z M82,75h1v1h-1z M83,75h1v1h-1z M85,75h1v1h-1z M86,75h1v1h-1z M89,75h1v1h-1z M90,75h1v1h-1z M91,75h1v1h-1z M92,75h1v1h-1z M94,75h1v1h-1z M95,75h1v1h-1z M97,75h1v1h-1z M102,75h1v1h-1z M103,75h1v1h-1z M107,75h1v1h-1z M4,76h1v1h-1z M8,76h1v1h-1z M9,76h1v1h-1z M10,76h1v1h-1z M11,76h1v1h-1z M12,76h1v1h-1z M13,76h1v1h-1z M18,76h1v1h-1z M21,76h1v1h-1z M22,76h1v1h-1z M28,76h1v1h-1z M29,76h1v1h-1z M30,76h1v1h-1z M31,76h1v1h-1z M32,76h1v1h-1z M34,76h1v1h-1z M35,76h1v1h-1z M37,76h1v1h-1z M39,76h1v1h-1z M40,76h1v1h-1z M41,76h1v1h-1z M42,76h1v1h-1z M44,76h1v1h-1z M48,76h1v1h-1z M50,76h1v1h-1z M51,76h1v1h-1z M52,76h1v1h-1z M53,76h1v1h-1z M54,76h1v1h-1z M55,76h1v1h-1z M56,76h1v1h-1z M57,76h1v1h-1z M59,76h1v1h-1z M60,76h1v1h-1z M64,76h1v1h-1z M66,76h1v1h-1z M67,76h1v1h-1z M69,76h1v1h-1z M72,76h1v1h-1z M74,76h1v1h-1z M76,76h1v1h-1z M77,76h1v1h-1z M78,76h1v1h-1z M79,76h1v1h-1z M80,76h1v1h-1z M83,76h1v1h-1z M84,76h1v1h-1z M86,76h1v1h-1z M88,76h1v1h-1z M89,76h1v1h-1z M93,76h1v1h-1z M94,76h1v1h-1z M96,76h1v1h-1z M97,76h1v1h-1z M98,76h1v1h-1z M100,76h1v1h-1z M101,76h1v1h-1z M102,76h1v1h-1z M103,76h1v1h-1z M104,76h1v1h-1z M106,76h1v1h-1z M107,76h1v1h-1z M4,77h1v1h-1z M6,77h1v1h-1z M8,77h1v1h-1z M12,77h1v1h-1z M13,77h1v1h-1z M15,77h1v1h-1z M18,77h1v1h-1z M21,77h1v1h-1z M22,77h1v1h-1z M23,77h1v1h-1z M25,77h1v1h-1z M27,77h1v1h-1z M28,77h1v1h-1z M32,77h1v1h-1z M33,77h1v1h-1z M36,77h1v1h-1z M38,77h1v1h-1z M40,77h1v1h-1z M41,77h1v1h-1z M43,77h1v1h-1z M45,77h1v1h-1z M48,77h1v1h-1z M52,77h1v1h-1z M56,77h1v1h-1z M61,77h1v1h-1z M65,77h1v1h-1z M71,77h1v1h-1z M72,77h1v1h-1z M76,77h1v1h-1z M80,77h1v1h-1z M81,77h1v1h-1z M82,77h1v1h-1z M84,77h1v1h-1z M85,77h1v1h-1z M88,77h1v1h-1z M89,77h1v1h-1z M90,77h1v1h-1z M92,77h1v1h-1z M93,77h1v1h-1z M94,77h1v1h-1z M95,77h1v1h-1z M98,77h1v1h-1z M99,77h1v1h-1z M100,77h1v1h-1z M104,77h1v1h-1z M105,77h1v1h-1z M106,77h1v1h-1z M4,78h1v1h-1z M5,78h1v1h-1z M6,78h1v1h-1z M7,78h1v1h-1z M8,78h1v1h-1z M10,78h1v1h-1z M12,78h1v1h-1z M13,78h1v1h-1z M16,78h1v1h-1z M18,78h1v1h-1z M20,78h1v1h-1z M21,78h1v1h-1z M22,78h1v1h-1z M24,78h1v1h-1z M27,78h1v1h-1z M28,78h1v1h-1z M30,78h1v1h-1z M32,78h1v1h-1z M38,78h1v1h-1z M40,78h1v1h-1z M41,78h1v1h-1z M44,78h1v1h-1z M48,78h1v1h-1z M50,78h1v1h-1z M52,78h1v1h-1z M54,78h1v1h-1z M56,78h1v1h-1z M57,78h1v1h-1z M60,78h1v1h-1z M62,78h1v1h-1z M65,78h1v1h-1z M67,78h1v1h-1z M68,78h1v1h-1z M72,78h1v1h-1z M74,78h1v1h-1z M75,78h1v1h-1z M76,78h1v1h-1z M78,78h1v1h-1z M80,78h1v1h-1z M84,78h1v1h-1z M85,78h1v1h-1z M86,78h1v1h-1z M88,78h1v1h-1z M89,78h1v1h-1z M91,78h1v1h-1z M96,78h1v1h-1z M98,78h1v1h-1z M100,78h1v1h-1z M102,78h1v1h-1z M104,78h1v1h-1z M105,78h1v1h-1z M5,79h1v1h-1z M8,79h1v1h-1z M12,79h1v1h-1z M13,79h1v1h-1z M15,79h1v1h-1z M16,79h1v1h-1z M17,79h1v1h-1z M18,79h1v1h-1z M20,79h1v1h-1z M22,79h1v1h-1z M23,79h1v1h-1z M26,79h1v1h-1z M27,79h1v1h-1z M28,79h1v1h-1z M32,79h1v1h-1z M34,79h1v1h-1z M35,79h1v1h-1z M41,79h1v1h-1z M42,79h1v1h-1z M44,79h1v1h-1z M46,79h1v1h-1z M47,79h1v1h-1z M49,79h1v1h-1z M50,79h1v1h-1z M52,79h1v1h-1z M56,79h1v1h-1z M58,79h1v1h-1z M59,79h1v1h-1z M62,79h1v1h-1z M65,79h1v1h-1z M68,79h1v1h-1z M71,79h1v1h-1z M73,79h1v1h-1z M76,79h1v1h-1z M80,79h1v1h-1z M83,79h1v1h-1z M89,79h1v1h-1z M92,79h1v1h-1z M94,79h1v1h-1z M95,79h1v1h-1z M99,79h1v1h-1z M100,79h1v1h-1z M104,79h1v1h-1z M4,80h1v1h-1z M5,80h1v1h-1z M6,80h1v1h-1z M7,80h1v1h-1z M8,80h1v1h-1z M9,80h1v1h-1z M10,80h1v1h-1z M11,80h1v1h-1z M12,80h1v1h-1z M13,80h1v1h-1z M14,80h1v1h-1z M16,80h1v1h-1z M17,80h1v1h-1z M19,80h1v1h-1z M20,80h1v1h-1z M26,80h1v1h-1z M27,80h1v1h-1z M28,80h1v1h-1z M29,80h1v1h-1z M30,80h1v1h-1z M31,80h1v1h-1z M32,80h1v1h-1z M36,80h1v1h-1z M37,80h1v1h-1z M38,80h1v1h-1z M41,80h1v1h-1z M42,80h1v1h-1z M46,80h1v1h-1z M47,80h1v1h-1z M48,80h1v1h-1z M52,80h1v1h-1z M53,80h1v1h-1z M54,80h1v1h-1z M55,80h1v1h-1z M56,80h1v1h-1z M57,80h1v1h-1z M58,80h1v1h-1z M60,80h1v1h-1z M62,80h1v1h-1z M63,80h1v1h-1z M64,80h1v1h-1z M66,80h1v1h-1z M68,80h1v1h-1z M70,80h1v1h-1z M73,80h1v1h-1z M75,80h1v1h-1z M76,80h1v1h-1z M77,80h1v1h-1z M78,80h1v1h-1z M79,80h1v1h-1z M80,80h1v1h-1z M82,80h1v1h-1z M85,80h1v1h-1z M87,80h1v1h-1z M90,80h1v1h-1z M91,80h1v1h-1z M92,80h1v1h-1z M93,80h1v1h-1z M94,80h1v1h-1z M95,80h1v1h-1z M96,80h1v1h-1z M97,80h1v1h-1z M99,80h1v1h-1z M100,80h1v1h-1z M101,80h1v1h-1z M102,80h1v1h-1z M103,80h1v1h-1z M104,80h1v1h-1z M105,80h1v1h-1z M106,80h1v1h-1z M108,80h1v1h-1z M7,81h1v1h-1z M11,81h1v1h-1z M12,81h1v1h-1z M13,81h1v1h-1z M14,81h1v1h-1z M16,81h1v1h-1z M18,81h1v1h-1z M19,81h1v1h-1z M22,81h1v1h-1z M23,81h1v1h-1z M25,81h1v1h-1z M26,81h1v1h-1z M28,81h1v1h-1z M30,81h1v1h-1z M32,81h1v1h-1z M33,81h1v1h-1z M34,81h1v1h-1z M35,81h1v1h-1z M38,81h1v1h-1z M39,81h1v1h-1z M40,81h1v1h-1z M42,81h1v1h-1z M43,81h1v1h-1z M45,81h1v1h-1z M52,81h1v1h-1z M54,81h1v1h-1z M57,81h1v1h-1z M59,81h1v1h-1z M61,81h1v1h-1z M63,81h1v1h-1z M64,81h1v1h-1z M66,81h1v1h-1z M67,81h1v1h-1z M68,81h1v1h-1z M69,81h1v1h-1z M74,81h1v1h-1z M76,81h1v1h-1z M78,81h1v1h-1z M80,81h1v1h-1z M81,81h1v1h-1z M82,81h1v1h-1z M83,81h1v1h-1z M85,81h1v1h-1z M86,81h1v1h-1z M88,81h1v1h-1z M89,81h1v1h-1z M91,81h1v1h-1z M93,81h1v1h-1z M95,81h1v1h-1z M97,81h1v1h-1z M98,81h1v1h-1z M99,81h1v1h-1z M101,81h1v1h-1z M103,81h1v1h-1z M105,81h1v1h-1z M106,81h1v1h-1z M6,82h1v1h-1z M10,82h1v1h-1z M14,82h1v1h-1z M16,82h1v1h-1z M19,82h1v1h-1z M20,82h1v1h-1z M21,82h1v1h-1z M24,82h1v1h-1z M25,82h1v1h-1z M27,82h1v1h-1z M32,82h1v1h-1z M33,82h1v1h-1z M38,82h1v1h-1z M43,82h1v1h-1z M44,82h1v1h-1z M50,82h1v1h-1z M51,82h1v1h-1z M53,82h1v1h-1z M54,82h1v1h-1z M56,82h1v1h-1z M59,82h1v1h-1z M60,82h1v1h-1z M62,82h1v1h-1z M63,82h1v1h-1z M67,82h1v1h-1z M68,82h1v1h-1z M72,82h1v1h-1z M74,82h1v1h-1z M75,82h1v1h-1z M76,82h1v1h-1z M78,82h1v1h-1z M80,82h1v1h-1z M81,82h1v1h-1z M84,82h1v1h-1z M86,82h1v1h-1z M88,82h1v1h-1z M89,82h1v1h-1z M91,82h1v1h-1z M92,82h1v1h-1z M96,82h1v1h-1z M98,82h1v1h-1z M101,82h1v1h-1z M104,82h1v1h-1z M107,82h1v1h-1z M5,83h1v1h-1z M8,83h1v1h-1z M9,83h1v1h-1z M12,83h1v1h-1z M15,83h1v1h-1z M21,83h1v1h-1z M24,83h1v1h-1z M25,83h1v1h-1z M27,83h1v1h-1z M28,83h1v1h-1z M29,83h1v1h-1z M32,83h1v1h-1z M34,83h1v1h-1z M35,83h1v1h-1z M37,83h1v1h-1z M41,83h1v1h-1z M42,83h1v1h-1z M44,83h1v1h-1z M45,83h1v1h-1z M47,83h1v1h-1z M49,83h1v1h-1z M50,83h1v1h-1z M51,83h1v1h-1z M52,83h1v1h-1z M55,83h1v1h-1z M56,83h1v1h-1z M59,83h1v1h-1z M65,83h1v1h-1z M66,83h1v1h-1z M68,83h1v1h-1z M75,83h1v1h-1z M82,83h1v1h-1z M83,83h1v1h-1z M85,83h1v1h-1z M87,83h1v1h-1z M89,83h1v1h-1z M92,83h1v1h-1z M94,83h1v1h-1z M95,83h1v1h-1z M98,83h1v1h-1z M100,83h1v1h-1z M102,83h1v1h-1z M103,83h1v1h-1z M105,83h1v1h-1z M107,83h1v1h-1z M108,83h1v1h-1z M4,84h1v1h-1z M5,84h1v1h-1z M8,84h1v1h-1z M10,84h1v1h-1z M11,84h1v1h-1z M13,84h1v1h-1z M14,84h1v1h-1z M20,84h1v1h-1z M21,84h1v1h-1z M22,84h1v1h-1z M23,84h1v1h-1z M26,84h1v1h-1z M27,84h1v1h-1z M28,84h1v1h-1z M30,84h1v1h-1z M34,84h1v1h-1z M37,84h1v1h-1z M39,84h1v1h-1z M43,84h1v1h-1z M45,84h1v1h-1z M51,84h1v1h-1z M52,84h1v1h-1z M56,84h1v1h-1z M58,84h1v1h-1z M59,84h1v1h-1z M60,84h1v1h-1z M61,84h1v1h-1z M62,84h1v1h-1z M63,84h1v1h-1z M64,84h1v1h-1z M65,84h1v1h-1z M66,84h1v1h-1z M67,84h1v1h-1z M69,84h1v1h-1z M70,84h1v1h-1z M71,84h1v1h-1z M72,84h1v1h-1z M73,84h1v1h-1z M78,84h1v1h-1z M79,84h1v1h-1z M81,84h1v1h-1z M83,84h1v1h-1z M85,84h1v1h-1z M89,84h1v1h-1z M90,84h1v1h-1z M91,84h1v1h-1z M93,84h1v1h-1z M94,84h1v1h-1z M95,84h1v1h-1z M97,84h1v1h-1z M102,84h1v1h-1z M103,84h1v1h-1z M104,84h1v1h-1z M4,85h1v1h-1z M6,85h1v1h-1z M7,85h1v1h-1z M9,85h1v1h-1z M12,85h1v1h-1z M13,85h1v1h-1z M16,85h1v1h-1z M17,85h1v1h-1z M18,85h1v1h-1z M20,85h1v1h-1z M21,85h1v1h-1z M24,85h1v1h-1z M30,85h1v1h-1z M33,85h1v1h-1z M34,85h1v1h-1z M35,85h1v1h-1z M37,85h1v1h-1z M38,85h1v1h-1z M40,85h1v1h-1z M41,85h1v1h-1z M47,85h1v1h-1z M50,85h1v1h-1z M52,85h1v1h-1z M53,85h1v1h-1z M54,85h1v1h-1z M55,85h1v1h-1z M56,85h1v1h-1z M65,85h1v1h-1z M69,85h1v1h-1z M70,85h1v1h-1z M72,85h1v1h-1z M73,85h1v1h-1z M74,85h1v1h-1z M76,85h1v1h-1z M78,85h1v1h-1z M79,85h1v1h-1z M80,85h1v1h-1z M81,85h1v1h-1z M82,85h1v1h-1z M84,85h1v1h-1z M85,85h1v1h-1z M86,85h1v1h-1z M88,85h1v1h-1z M89,85h1v1h-1z M90,85h1v1h-1z M91,85h1v1h-1z M96,85h1v1h-1z M99,85h1v1h-1z M103,85h1v1h-1z M105,85h1v1h-1z M106,85h1v1h-1z M4,86h1v1h-1z M5,86h1v1h-1z M6,86h1v1h-1z M9,86h1v1h-1z M10,86h1v1h-1z M13,86h1v1h-1z M15,86h1v1h-1z M16,86h1v1h-1z M18,86h1v1h-1z M19,86h1v1h-1z M21,86h1v1h-1z M24,86h1v1h-1z M25,86h1v1h-1z M32,86h1v1h-1z M33,86h1v1h-1z M38,86h1v1h-1z M39,86h1v1h-1z M40,86h1v1h-1z M41,86h1v1h-1z M44,86h1v1h-1z M48,86h1v1h-1z M50,86h1v1h-1z M52,86h1v1h-1z M53,86h1v1h-1z M54,86h1v1h-1z M56,86h1v1h-1z M57,86h1v1h-1z M59,86h1v1h-1z M60,86h1v1h-1z M62,86h1v1h-1z M64,86h1v1h-1z M65,86h1v1h-1z M68,86h1v1h-1z M74,86h1v1h-1z M80,86h1v1h-1z M84,86h1v1h-1z M86,86h1v1h-1z M88,86h1v1h-1z M89,86h1v1h-1z M93,86h1v1h-1z M96,86h1v1h-1z M98,86h1v1h-1z M99,86h1v1h-1z M101,86h1v1h-1z M103,86h1v1h-1z M104,86h1v1h-1z M105,86h1v1h-1z M106,86h1v1h-1z M107,86h1v1h-1z M4,87h1v1h-1z M14,87h1v1h-1z M20,87h1v1h-1z M22,87h1v1h-1z M25,87h1v1h-1z M27,87h1v1h-1z M29,87h1v1h-1z M32,87h1v1h-1z M34,87h1v1h-1z M35,87h1v1h-1z M37,87h1v1h-1z M41,87h1v1h-1z M42,87h1v1h-1z M44,87h1v1h-1z M45,87h1v1h-1z M46,87h1v1h-1z M52,87h1v1h-1z M55,87h1v1h-1z M58,87h1v1h-1z M59,87h1v1h-1z M65,87h1v1h-1z M66,87h1v1h-1z M68,87h1v1h-1z M69,87h1v1h-1z M70,87h1v1h-1z M71,87h1v1h-1z M73,87h1v1h-1z M74,87h1v1h-1z M81,87h1v1h-1z M83,87h1v1h-1z M86,87h1v1h-1z M92,87h1v1h-1z M94,87h1v1h-1z M95,87h1v1h-1z M97,87h1v1h-1z M101,87h1v1h-1z M105,87h1v1h-1z M108,87h1v1h-1z M6,88h1v1h-1z M7,88h1v1h-1z M9,88h1v1h-1z M10,88h1v1h-1z M14,88h1v1h-1z M19,88h1v1h-1z M23,88h1v1h-1z M27,88h1v1h-1z M28,88h1v1h-1z M29,88h1v1h-1z M30,88h1v1h-1z M31,88h1v1h-1z M32,88h1v1h-1z M34,88h1v1h-1z M37,88h1v1h-1z M38,88h1v1h-1z M39,88h1v1h-1z M41,88h1v1h-1z M43,88h1v1h-1z M44,88h1v1h-1z M45,88h1v1h-1z M49,88h1v1h-1z M50,88h1v1h-1z M51,88h1v1h-1z M52,88h1v1h-1z M53,88h1v1h-1z M55,88h1v1h-1z M57,88h1v1h-1z M58,88h1v1h-1z M59,88h1v1h-1z M60,88h1v1h-1z M62,88h1v1h-1z M63,88h1v1h-1z M64,88h1v1h-1z M66,88h1v1h-1z M70,88h1v1h-1z M72,88h1v1h-1z M73,88h1v1h-1z M77,88h1v1h-1z M80,88h1v1h-1z M81,88h1v1h-1z M82,88h1v1h-1z M83,88h1v1h-1z M87,88h1v1h-1z M89,88h1v1h-1z M94,88h1v1h-1z M96,88h1v1h-1z M100,88h1v1h-1z M102,88h1v1h-1z M103,88h1v1h-1z M104,88h1v1h-1z M105,88h1v1h-1z M5,89h1v1h-1z M6,89h1v1h-1z M7,89h1v1h-1z M13,89h1v1h-1z M14,89h1v1h-1z M15,89h1v1h-1z M16,89h1v1h-1z M17,89h1v1h-1z M21,89h1v1h-1z M22,89h1v1h-1z M26,89h1v1h-1z M29,89h1v1h-1z M30,89h1v1h-1z M31,89h1v1h-1z M33,89h1v1h-1z M35,89h1v1h-1z M36,89h1v1h-1z M37,89h1v1h-1z M38,89h1v1h-1z M39,89h1v1h-1z M40,89h1v1h-1z M41,89h1v1h-1z M42,89h1v1h-1z M43,89h1v1h-1z M44,89h1v1h-1z M45,89h1v1h-1z M46,89h1v1h-1z M47,89h1v1h-1z M49,89h1v1h-1z M50,89h1v1h-1z M54,89h1v1h-1z M57,89h1v1h-1z M58,89h1v1h-1z M60,89h1v1h-1z M61,89h1v1h-1z M62,89h1v1h-1z M63,89h1v1h-1z M65,89h1v1h-1z M66,89h1v1h-1z M68,89h1v1h-1z M69,89h1v1h-1z M70,89h1v1h-1z M72,89h1v1h-1z M73,89h1v1h-1z M74,89h1v1h-1z M76,89h1v1h-1z M78,89h1v1h-1z M79,89h1v1h-1z M82,89h1v1h-1z M83,89h1v1h-1z M84,89h1v1h-1z M85,89h1v1h-1z M86,89h1v1h-1z M88,89h1v1h-1z M89,89h1v1h-1z M90,89h1v1h-1z M91,89h1v1h-1z M93,89h1v1h-1z M95,89h1v1h-1z M97,89h1v1h-1z M99,89h1v1h-1z M100,89h1v1h-1z M102,89h1v1h-1z M105,89h1v1h-1z M106,89h1v1h-1z M7,90h1v1h-1z M10,90h1v1h-1z M11,90h1v1h-1z M12,90h1v1h-1z M13,90h1v1h-1z M14,90h1v1h-1z M16,90h1v1h-1z M19,90h1v1h-1z M20,90h1v1h-1z M21,90h1v1h-1z M22,90h1v1h-1z M23,90h1v1h-1z M24,90h1v1h-1z M25,90h1v1h-1z M26,90h1v1h-1z M27,90h1v1h-1z M29,90h1v1h-1z M30,90h1v1h-1z M32,90h1v1h-1z M38,90h1v1h-1z M39,90h1v1h-1z M41,90h1v1h-1z M43,90h1v1h-1z M50,90h1v1h-1z M52,90h1v1h-1z M54,90h1v1h-1z M56,90h1v1h-1z M59,90h1v1h-1z M62,90h1v1h-1z M63,90h1v1h-1z M65,90h1v1h-1z M71,90h1v1h-1z M72,90h1v1h-1z M74,90h1v1h-1z M75,90h1v1h-1z M76,90h1v1h-1z M80,90h1v1h-1z M84,90h1v1h-1z M86,90h1v1h-1z M89,90h1v1h-1z M95,90h1v1h-1z M96,90h1v1h-1z M98,90h1v1h-1z M99,90h1v1h-1z M100,90h1v1h-1z M103,90h1v1h-1z M104,90h1v1h-1z M107,90h1v1h-1z M4,91h1v1h-1z M6,91h1v1h-1z M7,91h1v1h-1z M9,91h1v1h-1z M11,91h1v1h-1z M12,91h1v1h-1z M14,91h1v1h-1z M15,91h1v1h-1z M18,91h1v1h-1z M19,91h1v1h-1z M20,91h1v1h-1z M21,91h1v1h-1z M25,91h1v1h-1z M26,91h1v1h-1z M27,91h1v1h-1z M29,91h1v1h-1z M32,91h1v1h-1z M33,91h1v1h-1z M34,91h1v1h-1z M35,91h1v1h-1z M42,91h1v1h-1z M44,91h1v1h-1z M47,91h1v1h-1z M49,91h1v1h-1z M51,91h1v1h-1z M52,91h1v1h-1z M56,91h1v1h-1z M57,91h1v1h-1z M58,91h1v1h-1z M59,91h1v1h-1z M61,91h1v1h-1z M62,91h1v1h-1z M65,91h1v1h-1z M68,91h1v1h-1z M70,91h1v1h-1z M71,91h1v1h-1z M73,91h1v1h-1z M75,91h1v1h-1z M77,91h1v1h-1z M81,91h1v1h-1z M82,91h1v1h-1z M83,91h1v1h-1z M86,91h1v1h-1z M89,91h1v1h-1z M92,91h1v1h-1z M93,91h1v1h-1z M95,91h1v1h-1z M97,91h1v1h-1z M99,91h1v1h-1z M100,91h1v1h-1z M101,91h1v1h-1z M102,91h1v1h-1z M104,91h1v1h-1z M6,92h1v1h-1z M8,92h1v1h-1z M9,92h1v1h-1z M10,92h1v1h-1z M11,92h1v1h-1z M12,92h1v1h-1z M19,92h1v1h-1z M20,92h1v1h-1z M21,92h1v1h-1z M23,92h1v1h-1z M25,92h1v1h-1z M26,92h1v1h-1z M30,92h1v1h-1z M31,92h1v1h-1z M37,92h1v1h-1z M42,92h1v1h-1z M44,92h1v1h-1z M45,92h1v1h-1z M47,92h1v1h-1z M48,92h1v1h-1z M51,92h1v1h-1z M52,92h1v1h-1z M53,92h1v1h-1z M56,92h1v1h-1z M57,92h1v1h-1z M58,92h1v1h-1z M59,92h1v1h-1z M60,92h1v1h-1z M63,92h1v1h-1z M64,92h1v1h-1z M66,92h1v1h-1z M71,92h1v1h-1z M72,92h1v1h-1z M77,92h1v1h-1z M79,92h1v1h-1z M82,92h1v1h-1z M85,92h1v1h-1z M92,92h1v1h-1z M93,92h1v1h-1z M94,92h1v1h-1z M95,92h1v1h-1z M100,92h1v1h-1z M101,92h1v1h-1z M104,92h1v1h-1z M108,92h1v1h-1z M7,93h1v1h-1z M11,93h1v1h-1z M17,93h1v1h-1z M19,93h1v1h-1z M21,93h1v1h-1z M22,93h1v1h-1z M24,93h1v1h-1z M26,93h1v1h-1z M30,93h1v1h-1z M32,93h1v1h-1z M33,93h1v1h-1z M36,93h1v1h-1z M37,93h1v1h-1z M38,93h1v1h-1z M40,93h1v1h-1z M41,93h1v1h-1z M42,93h1v1h-1z M44,93h1v1h-1z M45,93h1v1h-1z M54,93h1v1h-1z M55,93h1v1h-1z M58,93h1v1h-1z M59,93h1v1h-1z M63,93h1v1h-1z M64,93h1v1h-1z M67,93h1v1h-1z M70,93h1v1h-1z M71,93h1v1h-1z M73,93h1v1h-1z M77,93h1v1h-1z M78,93h1v1h-1z M80,93h1v1h-1z M81,93h1v1h-1z M82,93h1v1h-1z M84,93h1v1h-1z M88,93h1v1h-1z M89,93h1v1h-1z M92,93h1v1h-1z M94,93h1v1h-1z M95,93h1v1h-1z M96,93h1v1h-1z M97,93h1v1h-1z M99,93h1v1h-1z M100,93h1v1h-1z M101,93h1v1h-1z M103,93h1v1h-1z M105,93h1v1h-1z M106,93h1v1h-1z M108,93h1v1h-1z M5,94h1v1h-1z M6,94h1v1h-1z M7,94h1v1h-1z M9,94h1v1h-1z M10,94h1v1h-1z M11,94h1v1h-1z M12,94h1v1h-1z M15,94h1v1h-1z M16,94h1v1h-1z M19,94h1v1h-1z M20,94h1v1h-1z M21,94h1v1h-1z M22,94h1v1h-1z M24,94h1v1h-1z M28,94h1v1h-1z M29,94h1v1h-1z M32,94h1v1h-1z M35,94h1v1h-1z M36,94h1v1h-1z M37,94h1v1h-1z M38,94h1v1h-1z M40,94h1v1h-1z M41,94h1v1h-1z M43,94h1v1h-1z M44,94h1v1h-1z M45,94h1v1h-1z M48,94h1v1h-1z M49,94h1v1h-1z M50,94h1v1h-1z M51,94h1v1h-1z M52,94h1v1h-1z M53,94h1v1h-1z M56,94h1v1h-1z M59,94h1v1h-1z M60,94h1v1h-1z M62,94h1v1h-1z M64,94h1v1h-1z M65,94h1v1h-1z M67,94h1v1h-1z M68,94h1v1h-1z M69,94h1v1h-1z M72,94h1v1h-1z M74,94h1v1h-1z M75,94h1v1h-1z M77,94h1v1h-1z M78,94h1v1h-1z M80,94h1v1h-1z M81,94h1v1h-1z M83,94h1v1h-1z M84,94h1v1h-1z M86,94h1v1h-1z M89,94h1v1h-1z M98,94h1v1h-1z M101,94h1v1h-1z M107,94h1v1h-1z M5,95h1v1h-1z M6,95h1v1h-1z M9,95h1v1h-1z M11,95h1v1h-1z M12,95h1v1h-1z M13,95h1v1h-1z M14,95h1v1h-1z M15,95h1v1h-1z M16,95h1v1h-1z M19,95h1v1h-1z M20,95h1v1h-1z M24,95h1v1h-1z M25,95h1v1h-1z M28,95h1v1h-1z M32,95h1v1h-1z M33,95h1v1h-1z M34,95h1v1h-1z M39,95h1v1h-1z M42,95h1v1h-1z M44,95h1v1h-1z M45,95h1v1h-1z M46,95h1v1h-1z M47,95h1v1h-1z M49,95h1v1h-1z M51,95h1v1h-1z M54,95h1v1h-1z M62,95h1v1h-1z M66,95h1v1h-1z M68,95h1v1h-1z M70,95h1v1h-1z M71,95h1v1h-1z M75,95h1v1h-1z M76,95h1v1h-1z M82,95h1v1h-1z M85,95h1v1h-1z M91,95h1v1h-1z M92,95h1v1h-1z M94,95h1v1h-1z M95,95h1v1h-1z M100,95h1v1h-1z M102,95h1v1h-1z M107,95h1v1h-1z M4,96h1v1h-1z M5,96h1v1h-1z M6,96h1v1h-1z M8,96h1v1h-1z M10,96h1v1h-1z M20,96h1v1h-1z M27,96h1v1h-1z M28,96h1v1h-1z M30,96h1v1h-1z M32,96h1v1h-1z M34,96h1v1h-1z M36,96h1v1h-1z M37,96h1v1h-1z M39,96h1v1h-1z M40,96h1v1h-1z M41,96h1v1h-1z M45,96h1v1h-1z M48,96h1v1h-1z M49,96h1v1h-1z M50,96h1v1h-1z M51,96h1v1h-1z M52,96h1v1h-1z M53,96h1v1h-1z M54,96h1v1h-1z M58,96h1v1h-1z M59,96h1v1h-1z M64,96h1v1h-1z M65,96h1v1h-1z M70,96h1v1h-1z M74,96h1v1h-1z M77,96h1v1h-1z M79,96h1v1h-1z M81,96h1v1h-1z M84,96h1v1h-1z M87,96h1v1h-1z M89,96h1v1h-1z M94,96h1v1h-1z M101,96h1v1h-1z M105,96h1v1h-1z M106,96h1v1h-1z M4,97h1v1h-1z M5,97h1v1h-1z M6,97h1v1h-1z M8,97h1v1h-1z M9,97h1v1h-1z M12,97h1v1h-1z M13,97h1v1h-1z M14,97h1v1h-1z M16,97h1v1h-1z M17,97h1v1h-1z M19,97h1v1h-1z M22,97h1v1h-1z M23,97h1v1h-1z M25,97h1v1h-1z M26,97h1v1h-1z M28,97h1v1h-1z M30,97h1v1h-1z M32,97h1v1h-1z M40,97h1v1h-1z M41,97h1v1h-1z M42,97h1v1h-1z M43,97h1v1h-1z M46,97h1v1h-1z M48,97h1v1h-1z M49,97h1v1h-1z M52,97h1v1h-1z M54,97h1v1h-1z M55,97h1v1h-1z M56,97h1v1h-1z M60,97h1v1h-1z M62,97h1v1h-1z M65,97h1v1h-1z M67,97h1v1h-1z M68,97h1v1h-1z M69,97h1v1h-1z M71,97h1v1h-1z M73,97h1v1h-1z M76,97h1v1h-1z M77,97h1v1h-1z M78,97h1v1h-1z M80,97h1v1h-1z M83,97h1v1h-1z M87,97h1v1h-1z M88,97h1v1h-1z M89,97h1v1h-1z M92,97h1v1h-1z M93,97h1v1h-1z M94,97h1v1h-1z M95,97h1v1h-1z M98,97h1v1h-1z M99,97h1v1h-1z M101,97h1v1h-1z M103,97h1v1h-1z M105,97h1v1h-1z M106,97h1v1h-1z M107,97h1v1h-1z M108,97h1v1h-1z M4,98h1v1h-1z M5,98h1v1h-1z M6,98h1v1h-1z M10,98h1v1h-1z M14,98h1v1h-1z M15,98h1v1h-1z M18,98h1v1h-1z M21,98h1v1h-1z M23,98h1v1h-1z M25,98h1v1h-1z M26,98h1v1h-1z M28,98h1v1h-1z M29,98h1v1h-1z M32,98h1v1h-1z M35,98h1v1h-1z M36,98h1v1h-1z M38,98h1v1h-1z M40,98h1v1h-1z M41,98h1v1h-1z M43,98h1v1h-1z M47,98h1v1h-1z M48,98h1v1h-1z M49,98h1v1h-1z M50,98h1v1h-1z M51,98h1v1h-1z M54,98h1v1h-1z M56,98h1v1h-1z M57,98h1v1h-1z M62,98h1v1h-1z M67,98h1v1h-1z M71,98h1v1h-1z M72,98h1v1h-1z M74,98h1v1h-1z M76,98h1v1h-1z M77,98h1v1h-1z M78,98h1v1h-1z M80,98h1v1h-1z M85,98h1v1h-1z M86,98h1v1h-1z M89,98h1v1h-1z M91,98h1v1h-1z M92,98h1v1h-1z M95,98h1v1h-1z M98,98h1v1h-1z M101,98h1v1h-1z M105,98h1v1h-1z M106,98h1v1h-1z M107,98h1v1h-1z M6,99h1v1h-1z M8,99h1v1h-1z M9,99h1v1h-1z M11,99h1v1h-1z M13,99h1v1h-1z M14,99h1v1h-1z M16,99h1v1h-1z M17,99h1v1h-1z M18,99h1v1h-1z M20,99h1v1h-1z M21,99h1v1h-1z M22,99h1v1h-1z M23,99h1v1h-1z M25,99h1v1h-1z M27,99h1v1h-1z M28,99h1v1h-1z M33,99h1v1h-1z M34,99h1v1h-1z M35,99h1v1h-1z M37,99h1v1h-1z M42,99h1v1h-1z M43,99h1v1h-1z M44,99h1v1h-1z M45,99h1v1h-1z M49,99h1v1h-1z M55,99h1v1h-1z M58,99h1v1h-1z M59,99h1v1h-1z M61,99h1v1h-1z M65,99h1v1h-1z M66,99h1v1h-1z M67,99h1v1h-1z M68,99h1v1h-1z M69,99h1v1h-1z M71,99h1v1h-1z M73,99h1v1h-1z M75,99h1v1h-1z M76,99h1v1h-1z M77,99h1v1h-1z M78,99h1v1h-1z M79,99h1v1h-1z M80,99h1v1h-1z M81,99h1v1h-1z M82,99h1v1h-1z M83,99h1v1h-1z M90,99h1v1h-1z M92,99h1v1h-1z M93,99h1v1h-1z M94,99h1v1h-1z M95,99h1v1h-1z M97,99h1v1h-1z M98,99h1v1h-1z M99,99h1v1h-1z M100,99h1v1h-1z M102,99h1v1h-1z M104,99h1v1h-1z M107,99h1v1h-1z M108,99h1v1h-1z M7,100h1v1h-1z M8,100h1v1h-1z M10,100h1v1h-1z M12,100h1v1h-1z M14,100h1v1h-1z M16,100h1v1h-1z M18,100h1v1h-1z M19,100h1v1h-1z M20,100h1v1h-1z M21,100h1v1h-1z M22,100h1v1h-1z M27,100h1v1h-1z M28,100h1v1h-1z M29,100h1v1h-1z M30,100h1v1h-1z M31,100h1v1h-1z M32,100h1v1h-1z M33,100h1v1h-1z M34,100h1v1h-1z M35,100h1v1h-1z M37,100h1v1h-1z M39,100h1v1h-1z M40,100h1v1h-1z M41,100h1v1h-1z M43,100h1v1h-1z M46,100h1v1h-1z M47,100h1v1h-1z M48,100h1v1h-1z M49,100h1v1h-1z M51,100h1v1h-1z M52,100h1v1h-1z M53,100h1v1h-1z M54,100h1v1h-1z M55,100h1v1h-1z M56,100h1v1h-1z M57,100h1v1h-1z M58,100h1v1h-1z M60,100h1v1h-1z M61,100h1v1h-1z M64,100h1v1h-1z M65,100h1v1h-1z M68,100h1v1h-1z M71,100h1v1h-1z M73,100h1v1h-1z M74,100h1v1h-1z M75,100h1v1h-1z M76,100h1v1h-1z M77,100h1v1h-1z M78,100h1v1h-1z M79,100h1v1h-1z M80,100h1v1h-1z M81,100h1v1h-1z M82,100h1v1h-1z M83,100h1v1h-1z M86,100h1v1h-1z M87,100h1v1h-1z M88,100h1v1h-1z M93,100h1v1h-1z M95,100h1v1h-1z M96,100h1v1h-1z M97,100h1v1h-1z M98,100h1v1h-1z M100,100h1v1h-1z M101,100h1v1h-1z M102,100h1v1h-1z M103,100h1v1h-1z M104,100h1v1h-1z M12,101h1v1h-1z M13,101h1v1h-1z M15,101h1v1h-1z M20,101h1v1h-1z M22,101h1v1h-1z M24,101h1v1h-1z M25,101h1v1h-1z M27,101h1v1h-1z M28,101h1v1h-1z M32,101h1v1h-1z M34,101h1v1h-1z M36,101h1v1h-1z M42,101h1v1h-1z M44,101h1v1h-1z M51,101h1v1h-1z M52,101h1v1h-1z M56,101h1v1h-1z M57,101h1v1h-1z M58,101h1v1h-1z M59,101h1v1h-1z M63,101h1v1h-1z M64,101h1v1h-1z M66,101h1v1h-1z M67,101h1v1h-1z M69,101h1v1h-1z M71,101h1v1h-1z M74,101h1v1h-1z M76,101h1v1h-1z M80,101h1v1h-1z M82,101h1v1h-1z M83,101h1v1h-1z M85,101h1v1h-1z M86,101h1v1h-1z M87,101h1v1h-1z M88,101h1v1h-1z M92,101h1v1h-1z M93,101h1v1h-1z M96,101h1v1h-1z M98,101h1v1h-1z M99,101h1v1h-1z M100,101h1v1h-1z M104,101h1v1h-1z M106,101h1v1h-1z M107,101h1v1h-1z M4,102h1v1h-1z M5,102h1v1h-1z M6,102h1v1h-1z M7,102h1v1h-1z M8,102h1v1h-1z M9,102h1v1h-1z M10,102h1v1h-1z M13,102h1v1h-1z M15,102h1v1h-1z M16,102h1v1h-1z M18,102h1v1h-1z M20,102h1v1h-1z M22,102h1v1h-1z M23,102h1v1h-1z M24,102h1v1h-1z M25,102h1v1h-1z M26,102h1v1h-1z M27,102h1v1h-1z M28,102h1v1h-1z M30,102h1v1h-1z M32,102h1v1h-1z M35,102h1v1h-1z M38,102h1v1h-1z M39,102h1v1h-1z M41,102h1v1h-1z M50,102h1v1h-1z M51,102h1v1h-1z M52,102h1v1h-1z M54,102h1v1h-1z M56,102h1v1h-1z M59,102h1v1h-1z M62,102h1v1h-1z M63,102h1v1h-1z M65,102h1v1h-1z M67,102h1v1h-1z M68,102h1v1h-1z M71,102h1v1h-1z M74,102h1v1h-1z M75,102h1v1h-1z M76,102h1v1h-1z M78,102h1v1h-1z M80,102h1v1h-1z M84,102h1v1h-1z M86,102h1v1h-1z M88,102h1v1h-1z M89,102h1v1h-1z M91,102h1v1h-1z M95,102h1v1h-1z M96,102h1v1h-1z M97,102h1v1h-1z M98,102h1v1h-1z M100,102h1v1h-1z M102,102h1v1h-1z M104,102h1v1h-1z M105,102h1v1h-1z M107,102h1v1h-1z M4,103h1v1h-1z M10,103h1v1h-1z M12,103h1v1h-1z M13,103h1v1h-1z M14,103h1v1h-1z M17,103h1v1h-1z M18,103h1v1h-1z M19,103h1v1h-1z M20,103h1v1h-1z M21,103h1v1h-1z M27,103h1v1h-1z M28,103h1v1h-1z M32,103h1v1h-1z M35,103h1v1h-1z M38,103h1v1h-1z M41,103h1v1h-1z M42,103h1v1h-1z M43,103h1v1h-1z M44,103h1v1h-1z M47,103h1v1h-1z M49,103h1v1h-1z M50,103h1v1h-1z M51,103h1v1h-1z M52,103h1v1h-1z M56,103h1v1h-1z M58,103h1v1h-1z M59,103h1v1h-1z M61,103h1v1h-1z M62,103h1v1h-1z M65,103h1v1h-1z M66,103h1v1h-1z M68,103h1v1h-1z M69,103h1v1h-1z M70,103h1v1h-1z M71,103h1v1h-1z M73,103h1v1h-1z M75,103h1v1h-1z M76,103h1v1h-1z M80,103h1v1h-1z M81,103h1v1h-1z M82,103h1v1h-1z M83,103h1v1h-1z M85,103h1v1h-1z M86,103h1v1h-1z M87,103h1v1h-1z M89,103h1v1h-1z M90,103h1v1h-1z M92,103h1v1h-1z M93,103h1v1h-1z M95,103h1v1h-1z M100,103h1v1h-1z M104,103h1v1h-1z M107,103h1v1h-1z M4,104h1v1h-1z M6,104h1v1h-1z M7,104h1v1h-1z M8,104h1v1h-1z M10,104h1v1h-1z M12,104h1v1h-1z M14,104h1v1h-1z M15,104h1v1h-1z M16,104h1v1h-1z M17,104h1v1h-1z M19,104h1v1h-1z M23,104h1v1h-1z M26,104h1v1h-1z M27,104h1v1h-1z M28,104h1v1h-1z M29,104h1v1h-1z M30,104h1v1h-1z M31,104h1v1h-1z M32,104h1v1h-1z M34,104h1v1h-1z M36,104h1v1h-1z M37,104h1v1h-1z M39,104h1v1h-1z M41,104h1v1h-1z M42,104h1v1h-1z M43,104h1v1h-1z M45,104h1v1h-1z M48,104h1v1h-1z M50,104h1v1h-1z M51,104h1v1h-1z M52,104h1v1h-1z M53,104h1v1h-1z M54,104h1v1h-1z M55,104h1v1h-1z M56,104h1v1h-1z M57,104h1v1h-1z M59,104h1v1h-1z M61,104h1v1h-1z M65,104h1v1h-1z M66,104h1v1h-1z M69,104h1v1h-1z M70,104h1v1h-1z M73,104h1v1h-1z M74,104h1v1h-1z M75,104h1v1h-1z M76,104h1v1h-1z M77,104h1v1h-1z M78,104h1v1h-1z M79,104h1v1h-1z M80,104h1v1h-1z M81,104h1v1h-1z M82,104h1v1h-1z M83,104h1v1h-1z M86,104h1v1h-1z M90,104h1v1h-1z M91,104h1v1h-1z M93,104h1v1h-1z M95,104h1v1h-1z M96,104h1v1h-1z M99,104h1v1h-1z M100,104h1v1h-1z M101,104h1v1h-1z M102,104h1v1h-1z M103,104h1v1h-1z M104,104h1v1h-1z M106,104h1v1h-1z M108,104h1v1h-1z M4,105h1v1h-1z M6,105h1v1h-1z M7,105h1v1h-1z M8,105h1v1h-1z M10,105h1v1h-1z M13,105h1v1h-1z M14,105h1v1h-1z M16,105h1v1h-1z M18,105h1v1h-1z M19,105h1v1h-1z M20,105h1v1h-1z M21,105h1v1h-1z M22,105h1v1h-1z M25,105h1v1h-1z M26,105h1v1h-1z M28,105h1v1h-1z M29,105h1v1h-1z M30,105h1v1h-1z M35,105h1v1h-1z M36,105h1v1h-1z M39,105h1v1h-1z M40,105h1v1h-1z M43,105h1v1h-1z M51,105h1v1h-1z M52,105h1v1h-1z M53,105h1v1h-1z M54,105h1v1h-1z M57,105h1v1h-1z M59,105h1v1h-1z M60,105h1v1h-1z M62,105h1v1h-1z M65,105h1v1h-1z M66,105h1v1h-1z M67,105h1v1h-1z M72,105h1v1h-1z M74,105h1v1h-1z M75,105h1v1h-1z M76,105h1v1h-1z M77,105h1v1h-1z M81,105h1v1h-1z M82,105h1v1h-1z M84,105h1v1h-1z M85,105h1v1h-1z M87,105h1v1h-1z M88,105h1v1h-1z M89,105h1v1h-1z M93,105h1v1h-1z M95,105h1v1h-1z M97,105h1v1h-1z M100,105h1v1h-1z M101,105h1v1h-1z M102,105h1v1h-1z M106,105h1v1h-1z M107,105h1v1h-1z M108,105h1v1h-1z M4,106h1v1h-1z M6,106h1v1h-1z M7,106h1v1h-1z M8,106h1v1h-1z M10,106h1v1h-1z M14,106h1v1h-1z M15,106h1v1h-1z M16,106h1v1h-1z M19,106h1v1h-1z M21,106h1v1h-1z M24,106h1v1h-1z M25,106h1v1h-1z M29,106h1v1h-1z M31,106h1v1h-1z M32,106h1v1h-1z M38,106h1v1h-1z M39,106h1v1h-1z M41,106h1v1h-1z M43,106h1v1h-1z M47,106h1v1h-1z M50,106h1v1h-1z M52,106h1v1h-1z M53,106h1v1h-1z M55,106h1v1h-1z M56,106h1v1h-1z M59,106h1v1h-1z M60,106h1v1h-1z M62,106h1v1h-1z M63,106h1v1h-1z M64,106h1v1h-1z M65,106h1v1h-1z M67,106h1v1h-1z M68,106h1v1h-1z M71,106h1v1h-1z M72,106h1v1h-1z M74,106h1v1h-1z M75,106h1v1h-1z M77,106h1v1h-1z M80,106h1v1h-1z M86,106h1v1h-1z M87,106h1v1h-1z M88,106h1v1h-1z M89,106h1v1h-1z M95,106h1v1h-1z M96,106h1v1h-1z M98,106h1v1h-1z M101,106h1v1h-1z M102,106h1v1h-1z M104,106h1v1h-1z M105,106h1v1h-1z M4,107h1v1h-1z M10,107h1v1h-1z M12,107h1v1h-1z M13,107h1v1h-1z M16,107h1v1h-1z M19,107h1v1h-1z M20,107h1v1h-1z M22,107h1v1h-1z M23,107h1v1h-1z M24,107h1v1h-1z M29,107h1v1h-1z M30,107h1v1h-1z M32,107h1v1h-1z M35,107h1v1h-1z M38,107h1v1h-1z M41,107h1v1h-1z M44,107h1v1h-1z M45,107h1v1h-1z M46,107h1v1h-1z M47,107h1v1h-1z M56,107h1v1h-1z M57,107h1v1h-1z M59,107h1v1h-1z M61,107h1v1h-1z M62,107h1v1h-1z M66,107h1v1h-1z M68,107h1v1h-1z M69,107h1v1h-1z M70,107h1v1h-1z M78,107h1v1h-1z M80,107h1v1h-1z M81,107h1v1h-1z M82,107h1v1h-1z M83,107h1v1h-1z M85,107h1v1h-1z M86,107h1v1h-1z M87,107h1v1h-1z M89,107h1v1h-1z M90,107h1v1h-1z M92,107h1v1h-1z M93,107h1v1h-1z M95,107h1v1h-1z M101,107h1v1h-1z M105,107h1v1h-1z M4,108h1v1h-1z M5,108h1v1h-1z M6,108h1v1h-1z M7,108h1v1h-1z M8,108h1v1h-1z M9,108h1v1h-1z M10,108h1v1h-1z M12,108h1v1h-1z M17,108h1v1h-1z M19,108h1v1h-1z M20,108h1v1h-1z M21,108h1v1h-1z M22,108h1v1h-1z M24,108h1v1h-1z M25,108h1v1h-1z M27,108h1v1h-1z M28,108h1v1h-1z M29,108h1v1h-1z M31,108h1v1h-1z M33,108h1v1h-1z M34,108h1v1h-1z M37,108h1v1h-1z M38,108h1v1h-1z M43,108h1v1h-1z M46,108h1v1h-1z M47,108h1v1h-1z M48,108h1v1h-1z M50,108h1v1h-1z M53,108h1v1h-1z M54,108h1v1h-1z M55,108h1v1h-1z M58,108h1v1h-1z M61,108h1v1h-1z M66,108h1v1h-1z M67,108h1v1h-1z M69,108h1v1h-1z M70,108h1v1h-1z M75,108h1v1h-1z M76,108h1v1h-1z M77,108h1v1h-1z M83,108h1v1h-1z M84,108h1v1h-1z M86,108h1v1h-1z M88,108h1v1h-1z M90,108h1v1h-1z M92,108h1v1h-1z M93,108h1v1h-1z M94,108h1v1h-1z M95,108h1v1h-1z M96,108h1v1h-1z M97,108h1v1h-1z M100,108h1v1h-1z M103,108h1v1h-1z M105,108h1v1h-1z M108,108h1v1h-1z" fill="#000000"/>
</svg>
