<?xml version="1.0" encoding="UTF-8"?>
<!DOCTYPE svg PUBLIC "-//W3C//DTD SVG 1.1//EN" "http://www.w3.org/Graphics/SVG/1.1/DTD/svg11.dtd">
<svg xmlns="http://www.w3.org/2000/svg" version="1.1" viewBox="0 0 113 113" stroke="none">
	<rect width="100%" height="100%" fill="#FFFFFF"/>
	<path d="M4,4h1v1h-1z M5,4h1v1h-1z M6,4h1v1h-1z M7,4h1v1h-1z M8,4h1v1h-1z M9,4h1v1h-1z M10,4h1v1h-1z M12,4h1v1h-1z M14,4h1v1h-1z M17,4h1v1h-1z M18,4h1v1h-1z M22,4h1v1h-1z M23,4h1v1h-1z M30,4h1v1h-1z M31,4h1v1h-1z M34,4h1v1h-1z M35,4h1v1h-1z M38,4h1v1h-1z M45,4h1v1h-1z M46,4h1v1h-1z M47,4h1v1h-1z M48,4h1v1h-1z M49,4h1v1h-1z M51,4h1v1h-1z M52,4h1v1h-1z M57,4h1v1h-1z M58,4h1v1h-1z M59,4h1v1h-1z M65,4h1v1h-1z M70,4h1v1h-1z M71,4h1v1h-1z M74,4h1v1h-1z M77,4h1v1h-1z M84,4h1v1h-1z M85,4h1v1h-1z M87,4h1v1h-1z M89,4h1v1h-1z M93,4h1v1h-1z M94,4h1v1h-1z M95,4h1v1h-1z M96,4h1v1h-1z M98,4h1v1h-1z M102,4h1v1h-1z M103,4h1v1h-1z M104,4h1v1h-1z M105,4h1v1h-1z M106,4h1v1h-1z M107,4h1v1h-1z M108,4h1v1h-1z M4,5h1v1h-1z M10,5h1v1h-1z M12,5h1v1h-1z M13,5h1v1h-1z M14,5h1v1h-1z M16,5h1v1h-1z M17,5h1v1h-1z M18,5h1v1h-1z M22,5h1v1h-1z M23,5h1v1h-1z M27,5h1v1h-1z M30,5h1v1h-1z M33,5h1v1h-1z M34,5h1v1h-1z M35,5h1v1h-1z M36,5h1v1h-1z M37,5h1v1h-1z M40,5h1v1h-1z M41,5h1v1h-1z M42,5h1v1h-1z M46,5h1v1h-1z M48,5h1v1h-1z M49,5h1v1h-1z M51,5h1v1h-1z M52,5h1v1h-1z M54,5h1v1h-1z M56,5h1v1h-1z M57,5h1v1h-1z M58,5h1v1h-1z M59,5h1v1h-1z M60,5h1v1h-1z M61,5h1v1h-1z M63,5h1v1h-1z M66,5h1v1h-1z M67,5h1v1h-1z M70,5h1v1h-1z M71,5h1v1h-1z M72,5h1v1h-1z M73,5h1v1h-1z M76,5h1v1h-1z M77,5h1v1h-1z M78,5h1v1h-1z M81,5h1v1h-1z M82,5h1v1h-1z M85,5h1v1h-1z M87,5h1v1h-1z M88,5h1v1h-1z M90,5h1v1h-1z M92,5h1v1h-1z M93,5h1v1h-1z M94,5h1v1h-1z M95,5h1v1h-1z M96,5h1v1h-1z M97,5h1v1h-1z M98,5h1v1h-1z M102,5h1v1h-1z M108,5h1v1h-1z M4,6h1v1h-1z M6,6h1v1h-1z M7,6h1v1h-1z M8,6h1v1h-1z M10,6h1v1h-1z M12,6h1v1h-1z M14,6h1v1h-1z M17,6h1v1h-1z M18,6h1v1h-1z M22,6h1v1h-1z M24,6h1v1h-1z M25,6h1v1h-1z M26,6h1v1h-1z M30,6h1v1h-1z M32,6h1v1h-1z M35,6h1v1h-1z M38,6h1v1h-1z M41,6h1v1h-1z M42,6h1v1h-1z M44,6h1v1h-1z M46,6h1v1h-1z M47,6h1v1h-1z M49,6h1v1h-1z M50,6h1v1h-1z M53,6h1v1h-1z M56,6h1v1h-1z M58,6h1v1h-1z M59,6h1v1h-1z M61,6h1v1h-1z M65,6h1v1h-1z M66,6h1v1h-1z M68,6h1v1h-1z M70,6h1v1h-1z M71,6h1v1h-1z M74,6h1v1h-1z M78,6h1v1h-1z M80,6h1v1h-1z M81,6h1v1h-1z M82,6h1v1h-1z M85,6h1v1h-1z M86,6h1v1h-1z M92,6h1v1h-1z M94,6h1v1h-1z M95,6h1v1h-1z M97,6h1v1h-1z M98,6h1v1h-1z M99,6h1v1h-1z M102,6h1v1h-1z M104,6h1v1h-1z M105,6h1v1h-1z M106,6h1v1h-1z M108,6h1v1h-1z M4,7h1v1h-1z M6,7h1v1h-1z M7,7h1v1h-1z M8,7h1v1h-1z M10,7h1v1h-1z M12,7h1v1h-1z M13,7h1v1h-1z M17,7h1v1h-1z M18,7h1v1h-1z M20,7h1v1h-1z M21,7h1v1h-1z M22,7h1v1h-1z M23,7h1v1h-1z M24,7h1v1h-1z M26,7h1v1h-1z M28,7h1v1h-1z M30,7h1v1h-1z M32,7h1v1h-1z M33,7h1v1h-1z M39,7h1v1h-1z M41,7h1v1h-1z M44,7h1v1h-1z M48,7h1v1h-1z M49,7h1v1h-1z M51,7h1v1h-1z M52,7h1v1h-1z M53,7h1v1h-1z M55,7h1v1h-1z M56,7h1v1h-1z M57,7h1v1h-1z M59,7h1v1h-1z M60,7h1v1h-1z M63,7h1v1h-1z M68,7h1v1h-1z M74,7h1v1h-1z M76,7h1v1h-1z M77,7h1v1h-1z M78,7h1v1h-1z M79,7h1v1h-1z M82,7h1v1h-1z M83,7h1v1h-1z M86,7h1v1h-1z M87,7h1v1h-1z M88,7h1v1h-1z M89,7h1v1h-1z M92,7h1v1h-1z M93,7h1v1h-1z M94,7h1v1h-1z M95,7h1v1h-1z M100,7h1v1h-1z M102,7h1v1h-1z M104,7h1v1h-1z M105,7h1v1h-1z M106,7h1v1h-1z M108,7h1v1h-1z M4,8h1v1h-1z M6,8h1v1h-1z M7,8h1v1h-1z M8,8h1v1h-1z M10,8h1v1h-1z M13,8h1v1h-1z M15,8h1v1h-1z M17,8h1v1h-1z M18,8h1v1h-1z M20,8h1v1h-1z M23,8h1v1h-1z M24,8h1v1h-1z M25,8h1v1h-1z M26,8h1v1h-1z M28,8h1v1h-1z M29,8h1v1h-1z M30,8h1v1h-1z M31,8h1v1h-1z M32,8h1v1h-1z M33,8h1v1h-1z M34,8h1v1h-1z M35,8h1v1h-1z M37,8h1v1h-1z M38,8h1v1h-1z M40,8h1v1h-1z M43,8h1v1h-1z M45,8h1v1h-1z M48,8h1v1h-1z M49,8h1v1h-1z M50,8h1v1h-1z M52,8h1v1h-1z M53,8h1v1h-1z M54,8h1v1h-1z M55,8h1v1h-1z M56,8h1v1h-1z M57,8h1v1h-1z M61,8h1v1h-1z M65,8h1v1h-1z M68,8h1v1h-1z M71,8h1v1h-1z M75,8h1v1h-1z M76,8h1v1h-1z M77,8h1v1h-1z M78,8h1v1h-1z M79,8h1v1h-1z M80,8h1v1h-1z M82,8h1v1h-1z M84,8h1v1h-1z M85,8h1v1h-1z M86,8h1v1h-1z M87,8h1v1h-1z M88,8h1v1h-1z M89,8h1v1h-1z M90,8h1v1h-1z M92,8h1v1h-1z M93,8h1v1h-1z M94,8h1v1h-1z M95,8h1v1h-1z M96,8h1v1h-1z M99,8h1v1h-1z M100,8h1v1h-1z M102,8h1v1h-1z M104,8h1v1h-1z M105,8h1v1h-1z M106,8h1v1h-1z M108,8h1v1h-1z M4,9h1v1h-1z M10,9h1v1h-1z M12,9h1v1h-1z M13,9h1v1h-1z M17,9h1v1h-1z M20,9h1v1h-1z M23,9h1v1h-1z M24,9h1v1h-1z M25,9h1v1h-1z M28,9h1v1h-1z M32,9h1v1h-1z M33,9h1v1h-1z M34,9h1v1h-1z M37,9h1v1h-1z M42,9h1v1h-1z M43,9h1v1h-1z M46,9h1v1h-1z M49,9h1v1h-1z M52,9h1v1h-1z M56,9h1v1h-1z M57,9h1v1h-1z M58,9h1v1h-1z M60,9h1v1h-1z M61,9h1v1h-1z M63,9h1v1h-1z M66,9h1v1h-1z M67,9h1v1h-1z M68,9h1v1h-1z M70,9h1v1h-1z M75,9h1v1h-1z M76,9h1v1h-1z M80,9h1v1h-1z M81,9h1v1h-1z M82,9h1v1h-1z M84,9h1v1h-1z M85,9h1v1h-1z M88,9h1v1h-1z M89,9h1v1h-1z M90,9h1v1h-1z M91,9h1v1h-1z M92,9h1v1h-1z M93,9h1v1h-1z M94,9h1v1h-1z M95,9h1v1h-1z M97,9h1v1h-1z M99,9h1v1h-1z M102,9h1v1h-1z M108,9h1v1h-1z M4,10h1v1h-1z M5,10h1v1h-1z M6,10h1v1h-1z M7,10h1v1h-1z M8,10h1v1h-1z M9,10h1v1h-1z M10,10h1v1h-1z M12,10h1v1h-1z M14,10h1v1h-1z M16,10h1v1h-1z M18,10h1v1h-1z M20,10h1v1h-1z M22,10h1v1h-1z M24,10h1v1h-1z M26,10h1v1h-1z M28,10h1v1h-1z M30,10h1v1h-1z M32,10h1v1h-1z M34,10h1v1h-1z M36,10h1v1h-1z M38,10h1v1h-1z M40,10h1v1h-1z M42,10h1v1h-1z M44,10h1v1h-1z M46,10h1v1h-1z M48,10h1v1h-1z M50,10h1v1h-1z M52,10h1v1h-1z M54,10h1v1h-1z M56,10h1v1h-1z M58,10h1v1h-1z M60,10h1v1h-1z M62,10h1v1h-1z M64,10h1v1h-1z M66,10h1v1h-1z M68,10h1v1h-1z M70,10h1v1h-1z M72,10h1v1h-1z M74,10h1v1h-1z M76,10h1v1h-1z M78,10h1v1h-1z M80,10h1v1h-1z M82,10h1v1h-1z M84,10h1v1h-1z M86,10h1v1h-1z M88,10h1v1h-1z M90,10h1v1h-1z M92,10h1v1h-1z M94,10h1v1h-1z M96,10h1v1h-1z M98,10h1v1h-1z M100,10h1v1h-1z M102,10h1v1h-1z M103,10h1v1h-1z M104,10h1v1h-1z M105,10h1v1h-1z M106,10h1v1h-1z M107,10h1v1h-1z M108,10h1v1h-1z M14,11h1v1h-1z M15,11h1v1h-1z M16,11h1v1h-1z M17,11h1v1h-1z M18,11h1v1h-1z M20,11h1v1h-1z M21,11h1v1h-1z M24,11h1v1h-1z M25,11h1v1h-1z M26,11h1v1h-1z M27,11h1v1h-1z M28,11h1v1h-1z M32,11h1v1h-1z M33,11h1v1h-1z M34,11h1v1h-1z M35,11h1v1h-1z M41,11h1v1h-1z M42,11h1v1h-1z M44,11h1v1h-1z M46,11h1v1h-1z M47,11h1v1h-1z M49,11h1v1h-1z M52,11h1v1h-1z M56,11h1v1h-1z M57,11h1v1h-1z M59,11h1v1h-1z M63,11h1v1h-1z M65,11h1v1h-1z M66,11h1v1h-1z M67,11h1v1h-1z M68,11h1v1h-1z M70,11h1v1h-1z M76,11h1v1h-1z M80,11h1v1h-1z M81,11h1v1h-1z M83,11h1v1h-1z M86,11h1v1h-1z M89,11h1v1h-1z M90,11h1v1h-1z M91,11h1v1h-1z M92,11h1v1h-1z M94,11h1v1h-1z M95,11h1v1h-1z M97,11h1v1h-1z M98,11h1v1h-1z M100,11h1v1h-1z M4,12h1v1h-1z M5,12h1v1h-1z M8,12h1v1h-1z M9,12h1v1h-1z M10,12h1v1h-1z M13,12h1v1h-1z M15,12h1v1h-1z M16,12h1v1h-1z M17,12h1v1h-1z M20,12h1v1h-1z M21,12h1v1h-1z M22,12h1v1h-1z M27,12h1v1h-1z M28,12h1v1h-1z M29,12h1v1h-1z M30,12h1v1h-1z M31,12h1v1h-1z M32,12h1v1h-1z M33,12h1v1h-1z M35,12h1v1h-1z M40,12h1v1h-1z M41,12h1v1h-1z M44,12h1v1h-1z M45,12h1v1h-1z M49,12h1v1h-1z M52,12h1v1h-1z M53,12h1v1h-1z M54,12h1v1h-1z M55,12h1v1h-1z M56,12h1v1h-1z M57,12h1v1h-1z M58,12h1v1h-1z M60,12h1v1h-1z M61,12h1v1h-1z M63,12h1v1h-1z M66,12h1v1h-1z M68,12h1v1h-1z M70,12h1v1h-1z M73,12h1v1h-1z M76,12h1v1h-1z M77,12h1v1h-1z M78,12h1v1h-1z M79,12h1v1h-1z M80,12h1v1h-1z M84,12h1v1h-1z M85,12h1v1h-1z M87,12h1v1h-1z M88,12h1v1h-1z M89,12h1v1h-1z M90,12h1v1h-1z M92,12h1v1h-1z M94,12h1v1h-1z M95,12h1v1h-1z M100,12h1v1h-1z M103,12h1v1h-1z M105,12h1v1h-1z M106,12h1v1h-1z M107,12h1v1h-1z M108,12h1v1h-1z M4,13h1v1h-1z M5,13h1v1h-1z M6,13h1v1h-1z M7,13h1v1h-1z M8,13h1v1h-1z M9,13h1v1h-1z M11,13h1v1h-1z M12,13h1v1h-1z M13,13h1v1h-1z M14,13h1v1h-1z M15,13h1v1h-1z M21,13h1v1h-1z M26,13h1v1h-1z M27,13h1v1h-1z M28,13h1v1h-1z M31,13h1v1h-1z M33,13h1v1h-1z M34,13h1v1h-1z M37,13h1v1h-1z M38,13h1v1h-1z M40,13h1v1h-1z M43,13h1v1h-1z M45,13h1v1h-1z M46,13h1v1h-1z M47,13h1v1h-1z M48,13h1v1h-1z M49,13h1v1h-1z M50,13h1v1h-1z M51,13h1v1h-1z M52,13h1v1h-1z M54,13h1v1h-1z M55,13h1v1h-1z M56,13h1v1h-1z M57,13h1v1h-1z M60,13h1v1h-1z M61,13h1v1h-1z M63,13h1v1h-1z M64,13h1v1h-1z M65,13h1v1h-1z M66,13h1v1h-1z M67,13h1v1h-1z M70,13h1v1h-1z M72,13h1v1h-1z M75,13h1v1h-1z M76,13h1v1h-1z M81,13h1v1h-1z M84,13h1v1h-1z M85,13h1v1h-1z M90,13h1v1h-1z M91,13h1v1h-1z M92,13h1v1h-1z M93,13h1v1h-1z M94,13h1v1h-1z M97,13h1v1h-1z M99,13h1v1h-1z M100,13h1v1h-1z M102,13h1v1h-1z M103,13h1v1h-1z M104,13h1v1h-1z M106,13h1v1h-1z M107,13h1v1h-1z M108,13h1v1h-1z M4,14h1v1h-1z M5,14h1v1h-1z M7,14h1v1h-1z M8,14h1v1h-1z M9,14h1v1h-1z M10,14h1v1h-1z M11,14h1v1h-1z M16,14h1v1h-1z M17,14h1v1h-1z M18,14h1v1h-1z M20,14h1v1h-1z M21,14h1v1h-1z M26,14h1v1h-1z M29,14h1v1h-1z M35,14h1v1h-1z M38,14h1v1h-1z M41,14h1v1h-1z M43,14h1v1h-1z M44,14h1v1h-1z M47,14h1v1h-1z M49,14h1v1h-1z M50,14h1v1h-1z M51,14h1v1h-1z M52,14h1v1h-1z M53,14h1v1h-1z M55,14h1v1h-1z M62,14h1v1h-1z M63,14h1v1h-1z M69,14h1v1h-1z M74,14h1v1h-1z M75,14h1v1h-1z M76,14h1v1h-1z M83,14h1v1h-1z M84,14h1v1h-1z M86,14h1v1h-1z M88,14h1v1h-1z M89,14h1v1h-1z M91,14h1v1h-1z M95,14h1v1h-1z M96,14h1v1h-1z M98,14h1v1h-1z M99,14h1v1h-1z M101,14h1v1h-1z M103,14h1v1h-1z M104,14h1v1h-1z M106,14h1v1h-1z M107,14h1v1h-1z M7,15h1v1h-1z M9,15h1v1h-1z M11,15h1v1h-1z M12,15h1v1h-1z M14,15h1v1h-1z M15,15h1v1h-1z M22,15h1v1h-1z M25,15h1v1h-1z M27,15h1v1h-1z M31,15h1v1h-1z M32,15h1v1h-1z M33,15h1v1h-1z M35,15h1v1h-1z M37,15h1v1h-1z M38,15h1v1h-1z M41,15h1v1h-1z M44,15h1v1h-1z M46,15h1v1h-1z M47,15h1v1h-1z M54,15h1v1h-1z M56,15h1v1h-1z M57,15h1v1h-1z M59,15h1v1h-1z M66,15h1v1h-1z M68,15h1v1h-1z M70,15h1v1h-1z M71,15h1v1h-1z M75,15h1v1h-1z M77,15h1v1h-1z M78,15h1v1h-1z M79,15h1v1h-1z M80,15h1v1h-1z M83,15h1v1h-1z M85,15h1v1h-1z M87,15h1v1h-1z M90,15h1v1h-1z M92,15h1v1h-1z M93,15h1v1h-1z M94,15h1v1h-1z M100,15h1v1h-1z M104,15h1v1h-1z M4,16h1v1h-1z M10,16h1v1h-1z M11,16h1v1h-1z M13,16h1v1h-1z M19,16h1v1h-1z M20,16h1v1h-1z M24,16h1v1h-1z M25,16h1v1h-1z M28,16h1v1h-1z M29,16h1v1h-1z M30,16h1v1h-1z M31,16h1v1h-1z M32,16h1v1h-1z M34,16h1v1h-1z M35,16h1v1h-1z M39,16h1v1h-1z M40,16h1v1h-1z M42,16h1v1h-1z M47,16h1v1h-1z M49,16h1v1h-1z M51,16h1v1h-1z M53,16h1v1h-1z M57,16h1v1h-1z M58,16h1v1h-1z M59,16h1v1h-1z M60,16h1v1h-1z M62,16h1v1h-1z M63,16h1v1h-1z M64,16h1v1h-1z M67,16h1v1h-1z M69,16h1v1h-1z M70,16h1v1h-1z M72,16h1v1h-1z M76,16h1v1h-1z M79,16h1v1h-1z M80,16h1v1h-1z M81,16h1v1h-1z M82,16h1v1h-1z M84,16h1v1h-1z M86,16h1v1h-1z M88,16h1v1h-1z M89,16h1v1h-1z M91,16h1v1h-1z M92,16h1v1h-1z M96,16h1v1h-1z M97,16h1v1h-1z M99,16h1v1h-1z M100,16h1v1h-1z M108,16h1v1h-1z M5,17h1v1h-1z M8,17h1v1h-1z M9,17h1v1h-1z M12,17h1v1h-1z M13,17h1v1h-1z M14,17h1v1h-1z M15,17h1v1h-1z M16,17h1v1h-1z M18,17h1v1h-1z M20,17h1v1h-1z M22,17h1v1h-1z M23,17h1v1h-1z M25,17h1v1h-1z M26,17h1v1h-1z M27,17h1v1h-1z M28,17h1v1h-1z M30,17h1v1h-1z M34,17h1v1h-1z M35,17h1v1h-1z M36,17h1v1h-1z M37,17h1v1h-1z M38,17h1v1h-1z M40,17h1v1h-1z M41,17h1v1h-1z M42,17h1v1h-1z M43,17h1v1h-1z M44,17h1v1h-1z M45,17h1v1h-1z M46,17h1v1h-1z M48,17h1v1h-1z M51,17h1v1h-1z M52,17h1v1h-1z M55,17h1v1h-1z M56,17h1v1h-1z M58,17h1v1h-1z M60,17h1v1h-1z M61,17h1v1h-1z M66,17h1v1h-1z M67,17h1v1h-1z M68,17h1v1h-1z M69,17h1v1h-1z M71,17h1v1h-1z M72,17h1v1h-1z M73,17h1v1h-1z M75,17h1v1h-1z M76,17h1v1h-1z M78,17h1v1h-1z M80,17h1v1h-1z M83,17h1v1h-1z M85,17h1v1h-1z M91,17h1v1h-1z M95,17h1v1h-1z M96,17h1v1h-1z M97,17h1v1h-1z M99,17h1v1h-1z M100,17h1v1h-1z M103,17h1v1h-1z M105,17h1v1h-1z M106,17h1v1h-1z M5,18h1v1h-1z M6,18h1v1h-1z M8,18h1v1h-1z M9,18h1v1h-1z M10,18h1v1h-1z M12,18h1v1h-1z M19,18h1v1h-1z M20,18h1v1h-1z M21,18h1v1h-1z M22,18h1v1h-1z M23,18h1v1h-1z M25,18h1v1h-1z M26,18h1v1h-1z M27,18h1v1h-1z M29,18h1v1h-1z M38,18h1v1h-1z M39,18h1v1h-1z M41,18h1v1h-1z M43,18h1v1h-1z M44,18h1v1h-1z M48,18h1v1h-1z M50,18h1v1h-1z M53,18h1v1h-1z M55,18h1v1h-1z M60,18h1v1h-1z M62,18h1v1h-1z M63,18h1v1h-1z M64,18h1v1h-1z M65,18h1v1h-1z M68,18h1v1h-1z M71,18h1v1h-1z M74,18h1v1h-1z M76,18h1v1h-1z M77,18h1v1h-1z M79,18h1v1h-1z M80,18h1v1h-1z M83,18h1v1h-1z M84,18h1v1h-1z M86,18h1v1h-1z M89,18h1v1h-1z M98,18h1v1h-1z M99,18h1v1h-1z M100,18h1v1h-1z M102,18h1v1h-1z M104,18h1v1h-1z M106,18h1v1h-1z M4,19h1v1h-1z M5,19h1v1h-1z M7,19h1v1h-1z M12,19h1v1h-1z M14,19h1v1h-1z M15,19h1v1h-1z M16,19h1v1h-1z M19,19h1v1h-1z M29,19h1v1h-1z M30,19h1v1h-1z M32,19h1v1h-1z M33,19h1v1h-1z M34,19h1v1h-1z M35,19h1v1h-1z M42,19h1v1h-1z M44,19h1v1h-1z M46,19h1v1h-1z M47,19h1v1h-1z M49,19h1v1h-1z M51,19h1v1h-1z M55,19h1v1h-1z M56,19h1v1h-1z M58,19h1v1h-1z M59,19h1v1h-1z M62,19h1v1h-1z M65,19h1v1h-1z M66,19h1v1h-1z M68,19h1v1h-1z M71,19h1v1h-1z M75,19h1v1h-1z M80,19h1v1h-1z M83,19h1v1h-1z M86,19h1v1h-1z M89,19h1v1h-1z M90,19h1v1h-1z M92,19h1v1h-1z M93,19h1v1h-1z M94,19h1v1h-1z M95,19h1v1h-1z M97,19h1v1h-1z M99,19h1v1h-1z M100,19h1v1h-1z M103,19h1v1h-1z M107,19h1v1h-1z M108,19h1v1h-1z M5,20h1v1h-1z M6,20h1v1h-1z M7,20h1v1h-1z M8,20h1v1h-1z M10,20h1v1h-1z M11,20h1v1h-1z M12,20h1v1h-1z M14,20h1v1h-1z M20,20h1v1h-1z M21,20h1v1h-1z M22,20h1v1h-1z M23,20h1v1h-1z M25,20h1v1h-1z M27,20h1v1h-1z M29,20h1v1h-1z M30,20h1v1h-1z M31,20h1v1h-1z M38,20h1v1h-1z M39,20h1v1h-1z M41,20h1v1h-1z M47,20h1v1h-1z M48,20h1v1h-1z M49,20h1v1h-1z M50,20h1v1h-1z M54,20h1v1h-1z M56,20h1v1h-1z M57,20h1v1h-1z M58,20h1v1h-1z M61,20h1v1h-1z M66,20h1v1h-1z M67,20h1v1h-1z M69,20h1v1h-1z M70,20h1v1h-1z M72,20h1v1h-1z M73,20h1v1h-1z M75,20h1v1h-1z M76,20h1v1h-1z M77,20h1v1h-1z M78,20h1v1h-1z M81,20h1v1h-1z M82,20h1v1h-1z M88,20h1v1h-1z M89,20h1v1h-1z M97,20h1v1h-1z M99,20h1v1h-1z M100,20h1v1h-1z M106,20h1v1h-1z M107,20h1v1h-1z M4,21h1v1h-1z M9,21h1v1h-1z M13,21h1v1h-1z M14,21h1v1h-1z M15,21h1v1h-1z M16,21h1v1h-1z M17,21h1v1h-1z M18,21h1v1h-1z M19,21h1v1h-1z M21,21h1v1h-1z M22,21h1v1h-1z M23,21h1v1h-1z M26,21h1v1h-1z M28,21h1v1h-1z M33,21h1v1h-1z M39,21h1v1h-1z M40,21h1v1h-1z M42,21h1v1h-1z M45,21h1v1h-1z M46,21h1v1h-1z M48,21h1v1h-1z M50,21h1v1h-1z M51,21h1v1h-1z M52,21h1v1h-1z M54,21h1v1h-1z M55,21h1v1h-1z M56,21h1v1h-1z M57,21h1v1h-1z M63,21h1v1h-1z M64,21h1v1h-1z M65,21h1v1h-1z M66,21h1v1h-1z M70,21h1v1h-1z M71,21h1v1h-1z M72,21h1v1h-1z M75,21h1v1h-1z M76,21h1v1h-1z M79,21h1v1h-1z M81,21h1v1h-1z M84,21h1v1h-1z M89,21h1v1h-1z M90,21h1v1h-1z M91,21h1v1h-1z M93,21h1v1h-1z M96,21h1v1h-1z M98,21h1v1h-1z M99,21h1v1h-1z M100,21h1v1h-1z M102,21h1v1h-1z M105,21h1v1h-1z M106,21h1v1h-1z M108,21h1v1h-1z M5,22h1v1h-1z M8,22h1v1h-1z M9,22h1v1h-1z M10,22h1v1h-1z M11,22h1v1h-1z M12,22h1v1h-1z M14,22h1v1h-1z M15,22h1v1h-1z M16,22h1v1h-1z M18,22h1v1h-1z M23,22h1v1h-1z M24,22h1v1h-1z M26,22h1v1h-1z M27,22h1v1h-1z M29,22h1v1h-1z M36,22h1v1h-1z M38,22h1v1h-1z M40,22h1v1h-1z M41,22h1v1h-1z M47,22h1v1h-1z M48,22h1v1h-1z M50,22h1v1h-1z M51,22h1v1h-1z M53,22h1v1h-1z M57,22h1v1h-1z M59,22h1v1h-1z M62,22h1v1h-1z M63,22h1v1h-1z M64,22h1v1h-1z M65,22h1v1h-1z M68,22h1v1h-1z M74,22h1v1h-1z M76,22h1v1h-1z M77,22h1v1h-1z M81,22h1v1h-1z M83,22h1v1h-1z M84,22h1v1h-1z M86,22h1v1h-1z M88,22h1v1h-1z M89,22h1v1h-1z M98,22h1v1h-1z M102,22h1v1h-1z M104,22h1v1h-1z M105,22h1v1h-1z M106,22h1v1h-1z M107,22h1v1h-1z M4,23h1v1h-1z M7,23h1v1h-1z M14,23h1v1h-1z M16,23h1v1h-1z M17,23h1v1h-1z M23,23h1v1h-1z M25,23h1v1h-1z M29,23h1v1h-1z M32,23h1v1h-1z M34,23h1v1h-1z M44,23h1v1h-1z M47,23h1v1h-1z M50,23h1v1h-1z M53,23h1v1h-1z M55,23h1v1h-1z M56,23h1v1h-1z M58,23h1v1h-1z M59,23h1v1h-1z M65,23h1v1h-1z M66,23h1v1h-1z M68,23h1v1h-1z M69,23h1v1h-1z M70,23h1v1h-1z M71,23h1v1h-1z M75,23h1v1h-1z M80,23h1v1h-1z M82,23h1v1h-1z M83,23h1v1h-1z M85,23h1v1h-1z M86,23h1v1h-1z M87,23h1v1h-1z M91,23h1v1h-1z M92,23h1v1h-1z M94,23h1v1h-1z M95,23h1v1h-1z M97,23h1v1h-1z M100,23h1v1h-1z M101,23h1v1h-1z M104,23h1v1h-1z M108,23h1v1h-1z M5,24h1v1h-1z M7,24h1v1h-1z M9,24h1v1h-1z M10,24h1v1h-1z M11,24h1v1h-1z M17,24h1v1h-1z M20,24h1v1h-1z M21,24h1v1h-1z M22,24h1v1h-1z M29,24h1v1h-1z M30,24h1v1h-1z M34,24h1v1h-1z M36,24h1v1h-1z M38,24h1v1h-1z M40,24h1v1h-1z M45,24h1v1h-1z M46,24h1v1h-1z M47,24h1v1h-1z M50,24h1v1h-1z M53,24h1v1h-1z M55,24h1v1h-1z M56,24h1v1h-1z M57,24h1v1h-1z M61,24h1v1h-1z M64,24h1v1h-1z M65,24h1v1h-1z M66,24h1v1h-1z M67,24h1v1h-1z M69,24h1v1h-1z M70,24h1v1h-1z M72,24h1v1h-1z M74,24h1v1h-1z M75,24h1v1h-1z M76,24h1v1h-1z M78,24h1v1h-1z M80,24h1v1h-1z M81,24h1v1h-1z M82,24h1v1h-1z M85,24h1v1h-1z M87,24h1v1h-1z M88,24h1v1h-1z M89,24h1v1h-1z M90,24h1v1h-1z M92,24h1v1h-1z M93,24h1v1h-1z M95,24h1v1h-1z M96,24h1v1h-1z M98,24h1v1h-1z M99,24h1v1h-1z M100,24h1v1h-1z M104,24h1v1h-1z M105,24h1v1h-1z M106,24h1v1h-1z M107,24h1v1h-1z M4,25h1v1h-1z M5,25h1v1h-1z M6,25h1v1h-1z M7,25h1v1h-1z M9,25h1v1h-1z M12,25h1v1h-1z M13,25h1v1h-1z M14,25h1v1h-1z M15,25h1v1h-1z M18,25h1v1h-1z M19,25h1v1h-1z M20,25h1v1h-1z M21,25h1v1h-1z M25,25h1v1h-1z M27,25h1v1h-1z M28,25h1v1h-1z M29,25h1v1h-1z M31,25h1v1h-1z M33,25h1v1h-1z M34,25h1v1h-1z M35,25h1v1h-1z M41,25h1v1h-1z M42,25h1v1h-1z M43,25h1v1h-1z M45,25h1v1h-1z M48,25h1v1h-1z M51,25h1v1h-1z M52,25h1v1h-1z M53,25h1v1h-1z M55,25h1v1h-1z M56,25h1v1h-1z M60,25h1v1h-1z M62,25h1v1h-1z M63,25h1v1h-1z M66,25h1v1h-1z M68,25h1v1h-1z M69,25h1v1h-1z M71,25h1v1h-1z M73,25h1v1h-1z M75,25h1v1h-1z M76,25h1v1h-1z M83,25h1v1h-1z M85,25h1v1h-1z M86,25h1v1h-1z M88,25h1v1h-1z M91,25h1v1h-1z M92,25h1v1h-1z M93,25h1v1h-1z M94,25h1v1h-1z M95,25h1v1h-1z M97,25h1v1h-1z M99,25h1v1h-1z M101,25h1v1h-1z M102,25h1v1h-1z M106,25h1v1h-1z M107,25h1v1h-1z M4,26h1v1h-1z M6,26h1v1h-1z M7,26h1v1h-1z M9,26h1v1h-1z M10,26h1v1h-1z M17,26h1v1h-1z M21,26h1v1h-1z M22,26h1v1h-1z M24,26h1v1h-1z M25,26h1v1h-1z M26,26h1v1h-1z M27,26h1v1h-1z M28,26h1v1h-1z M29,26h1v1h-1z M31,26h1v1h-1z M35,26h1v1h-1z M36,26h1v1h-1z M38,26h1v1h-1z M39,26h1v1h-1z M41,26h1v1h-1z M47,26h1v1h-1z M48,26h1v1h-1z M50,26h1v1h-1z M51,26h1v1h-1z M55,26h1v1h-1z M59,26h1v1h-1z M61,26h1v1h-1z M62,26h1v1h-1z M63,26h1v1h-1z M64,26h1v1h-1z M65,26h1v1h-1z M67,26h1v1h-1z M71,26h1v1h-1z M72,26h1v1h-1z M74,26h1v1h-1z M76,26h1v1h-1z M77,26h1v1h-1z M86,26h1v1h-1z M87,26h1v1h-1z M88,26h1v1h-1z M89,26h1v1h-1z M91,26h1v1h-1z M92,26h1v1h-1z M93,26h1v1h-1z M96,26h1v1h-1z M98,26h1v1h-1z M104,26h1v1h-1z M105,26h1v1h-1z M106,26h1v1h-1z M4,27h1v1h-1z M7,27h1v1h-1z M8,27h1v1h-1z M12,27h1v1h-1z M17,27h1v1h-1z M19,27h1v1h-1z M27,27h1v1h-1z M28,27h1v1h-1z M30,27h1v1h-1z M32,27h1v1h-1z M33,27h1v1h-1z M35,27h1v1h-1z M37,27h1v1h-1z M43,27h1v1h-1z M44,27h1v1h-1z M45,27h1v1h-1z M46,27h1v1h-1z M51,27h1v1h-1z M52,27h1v1h-1z M53,27h1v1h-1z M54,27h1v1h-1z M56,27h1v1h-1z M59,27h1v1h-1z M66,27h1v1h-1z M68,27h1v1h-1z M69,27h1v1h-1z M70,27h1v1h-1z M71,27h1v1h-1z M74,27h1v1h-1z M79,27h1v1h-1z M80,27h1v1h-1z M81,27h1v1h-1z M82,27h1v1h-1z M83,27h1v1h-1z M85,27h1v1h-1z M86,27h1v1h-1z M89,27h1v1h-1z M92,27h1v1h-1z M93,27h1v1h-1z M94,27h1v1h-1z M95,27h1v1h-1z M98,27h1v1h-1z M100,27h1v1h-1z M101,27h1v1h-1z M103,27h1v1h-1z M104,27h1v1h-1z M108,27h1v1h-1z M4,28h1v1h-1z M7,28h1v1h-1z M8,28h1v1h-1z M9,28h1v1h-1z M10,28h1v1h-1z M11,28h1v1h-1z M12,28h1v1h-1z M13,28h1v1h-1z M15,28h1v1h-1z M18,28h1v1h-1z M21,28h1v1h-1z M22,28h1v1h-1z M24,28h1v1h-1z M25,28h1v1h-1z M27,28h1v1h-1z M28,28h1v1h-1z M29,28h1v1h-1z M30,28h1v1h-1z M31,28h1v1h-1z M32,28h1v1h-1z M33,28h1v1h-1z M34,28h1v1h-1z M35,28h1v1h-1z M39,28h1v1h-1z M42,28h1v1h-1z M44,28h1v1h-1z M45,28h1v1h-1z M46,28h1v1h-1z M47,28h1v1h-1z M51,28h1v1h-1z M52,28h1v1h-1z M53,28h1v1h-1z M54,28h1v1h-1z M55,28h1v1h-1z M56,28h1v1h-1z M57,28h1v1h-1z M58,28h1v1h-1z M64,28h1v1h-1z M65,28h1v1h-1z M67,28h1v1h-1z M69,28h1v1h-1z M70,28h1v1h-1z M71,28h1v1h-1z M74,28h1v1h-1z M76,28h1v1h-1z M77,28h1v1h-1z M78,28h1v1h-1z M79,28h1v1h-1z M80,28h1v1h-1z M82,28h1v1h-1z M83,28h1v1h-1z M86,28h1v1h-1z M89,28h1v1h-1z M92,28h1v1h-1z M94,28h1v1h-1z M97,28h1v1h-1z M99,28h1v1h-1z M100,28h1v1h-1z M101,28h1v1h-1z M102,28h1v1h-1z M103,28h1v1h-1z M104,28h1v1h-1z M105,28h1v1h-1z M106,28h1v1h-1z M4,29h1v1h-1z M5,29h1v1h-1z M6,29h1v1h-1z M8,29h1v1h-1z M12,29h1v1h-1z M13,29h1v1h-1z M14,29h1v1h-1z M15,29h1v1h-1z M19,29h1v1h-1z M22,29h1v1h-1z M23,29h1v1h-1z M24,29h1v1h-1z M25,29h1v1h-1z M26,29h1v1h-1z M27,29h1v1h-1z M28,29h1v1h-1z M32,29h1v1h-1z M33,29h1v1h-1z M34,29h1v1h-1z M35,29h1v1h-1z M37,29h1v1h-1z M38,29h1v1h-1z M40,29h1v1h-1z M42,29h1v1h-1z M45,29h1v1h-1z M48,29h1v1h-1z M51,29h1v1h-1z M52,29h1v1h-1z M56,29h1v1h-1z M58,29h1v1h-1z M59,29h1v1h-1z M61,29h1v1h-1z M62,29h1v1h-1z M65,29h1v1h-1z M66,29h1v1h-1z M68,29h1v1h-1z M69,29h1v1h-1z M70,29h1v1h-1z M72,29h1v1h-1z M73,29h1v1h-1z M76,29h1v1h-1z M80,29h1v1h-1z M84,29h1v1h-1z M88,29h1v1h-1z M100,29h1v1h-1z M104,29h1v1h-1z M106,29h1v1h-1z M107,29h1v1h-1z M108,29h1v1h-1z M5,30h1v1h-1z M8,30h1v1h-1z M10,30h1v1h-1z M12,30h1v1h-1z M13,30h1v1h-1z M16,30h1v1h-1z M19,30h1v1h-1z M20,30h1v1h-1z M22,30h1v1h-1z M23,30h1v1h-1z M24,30h1v1h-1z M26,30h1v1h-1z M27,30h1v1h-1z M28,30h1v1h-1z M30,30h1v1h-1z M32,30h1v1h-1z M33,30h1v1h-1z M38,30h1v1h-1z M41,30h1v1h-1z M43,30h1v1h-1z M44,30h1v1h-1z M48,30h1v1h-1z M50,30h1v1h-1z M52,30h1v1h-1z M54,30h1v1h-1z M56,30h1v1h-1z M59,30h1v1h-1z M60,30h1v1h-1z M62,30h1v1h-1z M65,30h1v1h-1z M67,30h1v1h-1z M71,30h1v1h-1z M72,30h1v1h-1z M73,30h1v1h-1z M74,30h1v1h-1z M76,30h1v1h-1z M78,30h1v1h-1z M80,30h1v1h-1z M86,30h1v1h-1z M88,30h1v1h-1z M95,30h1v1h-1z M96,30h1v1h-1z M98,30h1v1h-1z M99,30h1v1h-1z M100,30h1v1h-1z M102,30h1v1h-1z M104,30h1v1h-1z M106,30h1v1h-1z M107,30h1v1h-1z M8,31h1v1h-1z M12,31h1v1h-1z M13,31h1v1h-1z M16,31h1v1h-1z M18,31h1v1h-1z M19,31h1v1h-1z M22,31h1v1h-1z M23,31h1v1h-1z M24,31h1v1h-1z M25,31h1v1h-1z M26,31h1v1h-1z M27,31h1v1h-1z M28,31h1v1h-1z M32,31h1v1h-1z M33,31h1v1h-1z M34,31h1v1h-1z M35,31h1v1h-1z M37,31h1v1h-1z M38,31h1v1h-1z M44,31h1v1h-1z M45,31h1v1h-1z M46,31h1v1h-1z M47,31h1v1h-1z M50,31h1v1h-1z M51,31h1v1h-1z M52,31h1v1h-1z M56,31h1v1h-1z M57,31h1v1h-1z M58,31h1v1h-1z M59,31h1v1h-1z M65,31h1v1h-1z M66,31h1v1h-1z M68,31h1v1h-1z M75,31h1v1h-1z M76,31h1v1h-1z M80,31h1v1h-1z M83,31h1v1h-1z M85,31h1v1h-1z M86,31h1v1h-1z M89,31h1v1h-1z M90,31h1v1h-1z M92,31h1v1h-1z M95,31h1v1h-1z M97,31h1v1h-1z M98,31h1v1h-1z M99,31h1v1h-1z M100,31h1v1h-1z M104,31h1v1h-1z M107,31h1v1h-1z M108,31h1v1h-1z M4,32h1v1h-1z M7,32h1v1h-1z M8,32h1v1h-1z M9,32h1v1h-1z M10,32h1v1h-1z M11,32h1v1h-1z M12,32h1v1h-1z M13,32h1v1h-1z M14,32h1v1h-1z M15,32h1v1h-1z M20,32h1v1h-1z M21,32h1v1h-1z M22,32h1v1h-1z M24,32h1v1h-1z M25,32h1v1h-1z M26,32h1v1h-1z M27,32h1v1h-1z M28,32h1v1h-1z M29,32h1v1h-1z M30,32h1v1h-1z M31,32h1v1h-1z M32,32h1v1h-1z M34,32h1v1h-1z M35,32h1v1h-1z M37,32h1v1h-1z M39,32h1v1h-1z M41,32h1v1h-1z M42,32h1v1h-1z M43,32h1v1h-1z M47,32h1v1h-1z M48,32h1v1h-1z M52,32h1v1h-1z M53,32h1v1h-1z M54,32h1v1h-1z M55,32h1v1h-1z M56,32h1v1h-1z M57,32h1v1h-1z M58,32h1v1h-1z M60,32h1v1h-1z M62,32h1v1h-1z M63,32h1v1h-1z M64,32h1v1h-1z M66,32h1v1h-1z M67,32h1v1h-1z M68,32h1v1h-1z M70,32h1v1h-1z M71,32h1v1h-1z M72,32h1v1h-1z M75,32h1v1h-1z M76,32h1v1h-1z M77,32h1v1h-1z M78,32h1v1h-1z M79,32h1v1h-1z M80,32h1v1h-1z M81,32h1v1h-1z M82,32h1v1h-1z M86,32h1v1h-1z M88,32h1v1h-1z M89,32h1v1h-1z M92,32h1v1h-1z M95,32h1v1h-1z M96,32h1v1h-1z M98,32h1v1h-1z M99,32h1v1h-1z M100,32h1v1h-1z M101,32h1v1h-1z M102,32h1v1h-1z M103,32h1v1h-1z M104,32h1v1h-1z M6,33h1v1h-1z M7,33h1v1h-1z M8,33h1v1h-1z M13,33h1v1h-1z M16,33h1v1h-1z M19,33h1v1h-1z M20,33h1v1h-1z M21,33h1v1h-1z M22,33h1v1h-1z M24,33h1v1h-1z M26,33h1v1h-1z M27,33h1v1h-1z M30,33h1v1h-1z M35,33h1v1h-1z M36,33h1v1h-1z M38,33h1v1h-1z M40,33h1v1h-1z M41,33h1v1h-1z M43,33h1v1h-1z M44,33h1v1h-1z M46,33h1v1h-1z M47,33h1v1h-1z M51,33h1v1h-1z M53,33h1v1h-1z M54,33h1v1h-1z M55,33h1v1h-1z M56,33h1v1h-1z M57,33h1v1h-1z M58,33h1v1h-1z M60,33h1v1h-1z M61,33h1v1h-1z M65,33h1v1h-1z M66,33h1v1h-1z M69,33h1v1h-1z M70,33h1v1h-1z M71,33h1v1h-1z M72,33h1v1h-1z M74,33h1v1h-1z M78,33h1v1h-1z M79,33h1v1h-1z M81,33h1v1h-1z M82,33h1v1h-1z M83,33h1v1h-1z M86,33h1v1h-1z M90,33h1v1h-1z M91,33h1v1h-1z M92,33h1v1h-1z M98,33h1v1h-1z M99,33h1v1h-1z M102,33h1v1h-1z M103,33h1v1h-1z M105,33h1v1h-1z M4,34h1v1h-1z M10,34h1v1h-1z M11,34h1v1h-1z M12,34h1v1h-1z M16,34h1v1h-1z M17,34h1v1h-1z M20,34h1v1h-1z M27,34h1v1h-1z M28,34h1v1h-1z M29,34h1v1h-1z M32,34h1v1h-1z M35,34h1v1h-1z M36,34h1v1h-1z M38,34h1v1h-1z M39,34h1v1h-1z M40,34h1v1h-1z M47,34h1v1h-1z M48,34h1v1h-1z M50,34h1v1h-1z M51,34h1v1h-1z M52,34h1v1h-1z M56,34h1v1h-1z M57,34h1v1h-1z M59,34h1v1h-1z M62,34h1v1h-1z M63,34h1v1h-1z M65,34h1v1h-1z M67,34h1v1h-1z M72,34h1v1h-1z M74,34h1v1h-1z M75,34h1v1h-1z M76,34h1v1h-1z M78,34h1v1h-1z M79,34h1v1h-1z M81,34h1v1h-1z M84,34h1v1h-1z M86,34h1v1h-1z M89,34h1v1h-1z M98,34h1v1h-1z M99,34h1v1h-1z M100,34h1v1h-1z M106,34h1v1h-1z M4,35h1v1h-1z M7,35h1v1h-1z M9,35h1v1h-1z M13,35h1v1h-1z M14,35h1v1h-1z M15,35h1v1h-1z M16,35h1v1h-1z M19,35h1v1h-1z M20,35h1v1h-1z M22,35h1v1h-1z M23,35h1v1h-1z M25,35h1v1h-1z M26,35h1v1h-1z M28,35h1v1h-1z M29,35h1v1h-1z M35,35h1v1h-1z M38,35h1v1h-1z M39,35h1v1h-1z M41,35h1v1h-1z M42,35h1v1h-1z M44,35h1v1h-1z M45,35h1v1h-1z M46,35h1v1h-1z M47,35h1v1h-1z M49,35h1v1h-1z M52,35h1v1h-1z M58,35h1v1h-1z M59,35h1v1h-1z M65,35h1v1h-1z M66,35h1v1h-1z M68,35h1v1h-1z M69,35h1v1h-1z M71,35h1v1h-1z M73,35h1v1h-1z M74,35h1v1h-1z M77,35h1v1h-1z M82,35h1v1h-1z M83,35h1v1h-1z M85,35h1v1h-1z M86,35h1v1h-1z M89,35h1v1h-1z M91,35h1v1h-1z M92,35h1v1h-1z M95,35h1v1h-1z M99,35h1v1h-1z M100,35h1v1h-1z M101,35h1v1h-1z M103,35h1v1h-1z M104,35h1v1h-1z M108,35h1v1h-1z M6,36h1v1h-1z M8,36h1v1h-1z M10,36h1v1h-1z M11,36h1v1h-1z M12,36h1v1h-1z M15,36h1v1h-1z M17,36h1v1h-1z M18,36h1v1h-1z M20,36h1v1h-1z M21,36h1v1h-1z M22,36h1v1h-1z M24,36h1v1h-1z M26,36h1v1h-1z M28,36h1v1h-1z M31,36h1v1h-1z M36,36h1v1h-1z M39,36h1v1h-1z M44,36h1v1h-1z M45,36h1v1h-1z M46,36h1v1h-1z M49,36h1v1h-1z M52,36h1v1h-1z M57,36h1v1h-1z M58,36h1v1h-1z M60,36h1v1h-1z M62,36h1v1h-1z M63,36h1v1h-1z M64,36h1v1h-1z M66,36h1v1h-1z M69,36h1v1h-1z M71,36h1v1h-1z M76,36h1v1h-1z M79,36h1v1h-1z M82,36h1v1h-1z M85,36h1v1h-1z M88,36h1v1h-1z M91,36h1v1h-1z M92,36h1v1h-1z M93,36h1v1h-1z M94,36h1v1h-1z M96,36h1v1h-1z M98,36h1v1h-1z M100,36h1v1h-1z M102,36h1v1h-1z M104,36h1v1h-1z M107,36h1v1h-1z M5,37h1v1h-1z M7,37h1v1h-1z M8,37h1v1h-1z M11,37h1v1h-1z M14,37h1v1h-1z M16,37h1v1h-1z M19,37h1v1h-1z M20,37h1v1h-1z M24,37h1v1h-1z M25,37h1v1h-1z M26,37h1v1h-1z M28,37h1v1h-1z M30,37h1v1h-1z M31,37h1v1h-1z M32,37h1v1h-1z M34,37h1v1h-1z M37,37h1v1h-1z M39,37h1v1h-1z M40,37h1v1h-1z M41,37h1v1h-1z M42,37h1v1h-1z M45,37h1v1h-1z M47,37h1v1h-1z M49,37h1v1h-1z M50,37h1v1h-1z M51,37h1v1h-1z M52,37h1v1h-1z M56,37h1v1h-1z M57,37h1v1h-1z M60,37h1v1h-1z M61,37h1v1h-1z M63,37h1v1h-1z M66,37h1v1h-1z M67,37h1v1h-1z M69,37h1v1h-1z M70,37h1v1h-1z M72,37h1v1h-1z M74,37h1v1h-1z M75,37h1v1h-1z M76,37h1v1h-1z M78,37h1v1h-1z M79,37h1v1h-1z M80,37h1v1h-1z M82,37h1v1h-1z M87,37h1v1h-1z M88,37h1v1h-1z M91,37h1v1h-1z M93,37h1v1h-1z M95,37h1v1h-1z M96,37h1v1h-1z M99,37h1v1h-1z M100,37h1v1h-1z M103,37h1v1h-1z M4,38h1v1h-1z M6,38h1v1h-1z M10,38h1v1h-1z M12,38h1v1h-1z M13,38h1v1h-1z M14,38h1v1h-1z M15,38h1v1h-1z M16,38h1v1h-1z M18,38h1v1h-1z M19,38h1v1h-1z M20,38h1v1h-1z M21,38h1v1h-1z M23,38h1v1h-1z M24,38h1v1h-1z M26,38h1v1h-1z M27,38h1v1h-1z M28,38h1v1h-1z M29,38h1v1h-1z M30,38h1v1h-1z M32,38h1v1h-1z M36,38h1v1h-1z M38,38h1v1h-1z M41,38h1v1h-1z M47,38h1v1h-1z M50,38h1v1h-1z M51,38h1v1h-1z M53,38h1v1h-1z M54,38h1v1h-1z M56,38h1v1h-1z M57,38h1v1h-1z M59,38h1v1h-1z M62,38h1v1h-1z M64,38h1v1h-1z M65,38h1v1h-1z M67,38h1v1h-1z M68,38h1v1h-1z M74,38h1v1h-1z M75,38h1v1h-1z M76,38h1v1h-1z M78,38h1v1h-1z M79,38h1v1h-1z M80,38h1v1h-1z M83,38h1v1h-1z M84,38h1v1h-1z M86,38h1v1h-1z M87,38h1v1h-1z M95,38h1v1h-1z M96,38h1v1h-1z M98,38h1v1h-1z M100,38h1v1h-1z M102,38h1v1h-1z M105,38h1v1h-1z M106,38h1v1h-1z M107,38h1v1h-1z M5,39h1v1h-1z M9,39h1v1h-1z M12,39h1v1h-1z M13,39h1v1h-1z M14,39h1v1h-1z M15,39h1v1h-1z M17,39h1v1h-1z M18,39h1v1h-1z M20,39h1v1h-1z M22,39h1v1h-1z M24,39h1v1h-1z M28,39h1v1h-1z M29,39h1v1h-1z M31,39h1v1h-1z M32,39h1v1h-1z M34,39h1v1h-1z M35,39h1v1h-1z M38,39h1v1h-1z M42,39h1v1h-1z M43,39h1v1h-1z M44,39h1v1h-1z M46,39h1v1h-1z M47,39h1v1h-1z M49,39h1v1h-1z M52,39h1v1h-1z M53,39h1v1h-1z M55,39h1v1h-1z M56,39h1v1h-1z M58,39h1v1h-1z M59,39h1v1h-1z M62,39h1v1h-1z M68,39h1v1h-1z M70,39h1v1h-1z M71,39h1v1h-1z M73,39h1v1h-1z M75,39h1v1h-1z M76,39h1v1h-1z M77,39h1v1h-1z M79,39h1v1h-1z M81,39h1v1h-1z M85,39h1v1h-1z M86,39h1v1h-1z M89,39h1v1h-1z M90,39h1v1h-1z M92,39h1v1h-1z M93,39h1v1h-1z M94,39h1v1h-1z M97,39h1v1h-1z M98,39h1v1h-1z M99,39h1v1h-1z M101,39h1v1h-1z M102,39h1v1h-1z M104,39h1v1h-1z M107,39h1v1h-1z M108,39h1v1h-1z M4,40h1v1h-1z M5,40h1v1h-1z M8,40h1v1h-1z M9,40h1v1h-1z M10,40h1v1h-1z M11,40h1v1h-1z M12,40h1v1h-1z M13,40h1v1h-1z M14,40h1v1h-1z M15,40h1v1h-1z M16,40h1v1h-1z M17,40h1v1h-1z M19,40h1v1h-1z M20,40h1v1h-1z M21,40h1v1h-1z M22,40h1v1h-1z M23,40h1v1h-1z M24,40h1v1h-1z M29,40h1v1h-1z M31,40h1v1h-1z M35,40h1v1h-1z M36,40h1v1h-1z M40,40h1v1h-1z M42,40h1v1h-1z M43,40h1v1h-1z M46,40h1v1h-1z M47,40h1v1h-1z M50,40h1v1h-1z M52,40h1v1h-1z M55,40h1v1h-1z M60,40h1v1h-1z M61,40h1v1h-1z M62,40h1v1h-1z M64,40h1v1h-1z M65,40h1v1h-1z M66,40h1v1h-1z M68,40h1v1h-1z M72,40h1v1h-1z M73,40h1v1h-1z M78,40h1v1h-1z M79,40h1v1h-1z M81,40h1v1h-1z M82,40h1v1h-1z M86,40h1v1h-1z M87,40h1v1h-1z M88,40h1v1h-1z M94,40h1v1h-1z M101,40h1v1h-1z M102,40h1v1h-1z M103,40h1v1h-1z M106,40h1v1h-1z M108,40h1v1h-1z M4,41h1v1h-1z M5,41h1v1h-1z M7,41h1v1h-1z M14,41h1v1h-1z M16,41h1v1h-1z M17,41h1v1h-1z M19,41h1v1h-1z M20,41h1v1h-1z M24,41h1v1h-1z M27,41h1v1h-1z M28,41h1v1h-1z M30,41h1v1h-1z M31,41h1v1h-1z M33,41h1v1h-1z M34,41h1v1h-1z M37,41h1v1h-1z M41,41h1v1h-1z M42,41h1v1h-1z M43,41h1v1h-1z M48,41h1v1h-1z M49,41h1v1h-1z M50,41h1v1h-1z M52,41h1v1h-1z M53,41h1v1h-1z M54,41h1v1h-1z M55,41h1v1h-1z M56,41h1v1h-1z M57,41h1v1h-1z M58,41h1v1h-1z M59,41h1v1h-1z M60,41h1v1h-1z M61,41h1v1h-1z M63,41h1v1h-1z M64,41h1v1h-1z M66,41h1v1h-1z M67,41h1v1h-1z M70,41h1v1h-1z M72,41h1v1h-1z M73,41h1v1h-1z M74,41h1v1h-1z M75,41h1v1h-1z M77,41h1v1h-1z M78,41h1v1h-1z M80,41h1v1h-1z M82,41h1v1h-1z M83,41h1v1h-1z M84,41h1v1h-1z M86,41h1v1h-1z M87,41h1v1h-1z M90,41h1v1h-1z M94,41h1v1h-1z M96,41h1v1h-1z M97,41h1v1h-1z M98,41h1v1h-1z M99,41h1v1h-1z M105,41h1v1h-1z M106,41h1v1h-1z M108,41h1v1h-1z M5,42h1v1h-1z M6,42h1v1h-1z M7,42h1v1h-1z M8,42h1v1h-1z M9,42h1v1h-1z M10,42h1v1h-1z M13,42h1v1h-1z M19,42h1v1h-1z M20,42h1v1h-1z M22,42h1v1h-1z M31,42h1v1h-1z M32,42h1v1h-1z M35,42h1v1h-1z M36,42h1v1h-1z M38,42h1v1h-1z M40,42h1v1h-1z M41,42h1v1h-1z M44,42h1v1h-1z M50,42h1v1h-1z M52,42h1v1h-1z M53,42h1v1h-1z M54,42h1v1h-1z M55,42h1v1h-1z M56,42h1v1h-1z M60,42h1v1h-1z M62,42h1v1h-1z M64,42h1v1h-1z M65,42h1v1h-1z M71,42h1v1h-1z M72,42h1v1h-1z M74,42h1v1h-1z M75,42h1v1h-1z M78,42h1v1h-1z M80,42h1v1h-1z M81,42h1v1h-1z M83,42h1v1h-1z M86,42h1v1h-1z M91,42h1v1h-1z M92,42h1v1h-1z M96,42h1v1h-1z M97,42h1v1h-1z M98,42h1v1h-1z M100,42h1v1h-1z M102,42h1v1h-1z M104,42h1v1h-1z M105,42h1v1h-1z M107,42h1v1h-1z M4,43h1v1h-1z M5,43h1v1h-1z M7,43h1v1h-1z M11,43h1v1h-1z M14,43h1v1h-1z M17,43h1v1h-1z M18,43h1v1h-1z M20,43h1v1h-1z M21,43h1v1h-1z M23,43h1v1h-1z M24,43h1v1h-1z M25,43h1v1h-1z M26,43h1v1h-1z M29,43h1v1h-1z M31,43h1v1h-1z M33,43h1v1h-1z M35,43h1v1h-1z M38,43h1v1h-1z M39,43h1v1h-1z M42,43h1v1h-1z M44,43h1v1h-1z M46,43h1v1h-1z M47,43h1v1h-1z M50,43h1v1h-1z M52,43h1v1h-1z M53,43h1v1h-1z M56,43h1v1h-1z M58,43h1v1h-1z M59,43h1v1h-1z M61,43h1v1h-1z M62,43h1v1h-1z M66,43h1v1h-1z M68,43h1v1h-1z M69,43h1v1h-1z M73,43h1v1h-1z M76,43h1v1h-1z M79,43h1v1h-1z M82,43h1v1h-1z M83,43h1v1h-1z M85,43h1v1h-1z M86,43h1v1h-1z M89,43h1v1h-1z M90,43h1v1h-1z M92,43h1v1h-1z M93,43h1v1h-1z M94,43h1v1h-1z M95,43h1v1h-1z M99,43h1v1h-1z M100,43h1v1h-1z M101,43h1v1h-1z M102,43h1v1h-1z M104,43h1v1h-1z M107,43h1v1h-1z M108,43h1v1h-1z M4,44h1v1h-1z M6,44h1v1h-1z M10,44h1v1h-1z M11,44h1v1h-1z M12,44h1v1h-1z M15,44h1v1h-1z M16,44h1v1h-1z M19,44h1v1h-1z M21,44h1v1h-1z M22,44h1v1h-1z M23,44h1v1h-1z M25,44h1v1h-1z M26,44h1v1h-1z M28,44h1v1h-1z M29,44h1v1h-1z M33,44h1v1h-1z M35,44h1v1h-1z M39,44h1v1h-1z M41,44h1v1h-1z M42,44h1v1h-1z M45,44h1v1h-1z M46,44h1v1h-1z M47,44h1v1h-1z M48,44h1v1h-1z M49,44h1v1h-1z M52,44h1v1h-1z M55,44h1v1h-1z M61,44h1v1h-1z M63,44h1v1h-1z M66,44h1v1h-1z M69,44h1v1h-1z M70,44h1v1h-1z M73,44h1v1h-1z M76,44h1v1h-1z M84,44h1v1h-1z M86,44h1v1h-1z M87,44h1v1h-1z M89,44h1v1h-1z M92,44h1v1h-1z M94,44h1v1h-1z M96,44h1v1h-1z M99,44h1v1h-1z M100,44h1v1h-1z M102,44h1v1h-1z M103,44h1v1h-1z M106,44h1v1h-1z M107,44h1v1h-1z M4,45h1v1h-1z M5,45h1v1h-1z M8,45h1v1h-1z M9,45h1v1h-1z M13,45h1v1h-1z M14,45h1v1h-1z M15,45h1v1h-1z M19,45h1v1h-1z M20,45h1v1h-1z M21,45h1v1h-1z M22,45h1v1h-1z M23,45h1v1h-1z M28,45h1v1h-1z M30,45h1v1h-1z M32,45h1v1h-1z M34,45h1v1h-1z M36,45h1v1h-1z M37,45h1v1h-1z M38,45h1v1h-1z M42,45h1v1h-1z M43,45h1v1h-1z M44,45h1v1h-1z M45,45h1v1h-1z M47,45h1v1h-1z M50,45h1v1h-1z M51,45h1v1h-1z M52,45h1v1h-1z M53,45h1v1h-1z M54,45h1v1h-1z M56,45h1v1h-1z M57,45h1v1h-1z M64,45h1v1h-1z M68,45h1v1h-1z M70,45h1v1h-1z M71,45h1v1h-1z M72,45h1v1h-1z M74,45h1v1h-1z M75,45h1v1h-1z M79,45h1v1h-1z M80,45h1v1h-1z M81,45h1v1h-1z M84,45h1v1h-1z M85,45h1v1h-1z M89,45h1v1h-1z M90,45h1v1h-1z M92,45h1v1h-1z M94,45h1v1h-1z M95,45h1v1h-1z M96,45h1v1h-1z M97,45h1v1h-1z M99,45h1v1h-1z M103,45h1v1h-1z M104,45h1v1h-1z M105,45h1v1h-1z M5,46h1v1h-1z M8,46h1v1h-1z M10,46h1v1h-1z M14,46h1v1h-1z M16,46h1v1h-1z M17,46h1v1h-1z M18,46h1v1h-1z M19,46h1v1h-1z M20,46h1v1h-1z M22,46h1v1h-1z M24,46h1v1h-1z M26,46h1v1h-1z M27,46h1v1h-1z M28,46h1v1h-1z M32,46h1v1h-1z M38,46h1v1h-1z M40,46h1v1h-1z M43,46h1v1h-1z M44,46h1v1h-1z M48,46h1v1h-1z M50,46h1v1h-1z M51,46h1v1h-1z M53,46h1v1h-1z M54,46h1v1h-1z M56,46h1v1h-1z M61,46h1v1h-1z M62,46h1v1h-1z M63,46h1v1h-1z M65,46h1v1h-1z M67,46h1v1h-1z M68,46h1v1h-1z M74,46h1v1h-1z M77,46h1v1h-1z M79,46h1v1h-1z M81,46h1v1h-1z M86,46h1v1h-1z M89,46h1v1h-1z M91,46h1v1h-1z M92,46h1v1h-1z M98,46h1v1h-1z M103,46h1v1h-1z M104,46h1v1h-1z M105,46h1v1h-1z M5,47h1v1h-1z M7,47h1v1h-1z M9,47h1v1h-1z M11,47h1v1h-1z M13,47h1v1h-1z M14,47h1v1h-1z M15,47h1v1h-1z M16,47h1v1h-1z M20,47h1v1h-1z M21,47h1v1h-1z M22,47h1v1h-1z M24,47h1v1h-1z M26,47h1v1h-1z M29,47h1v1h-1z M31,47h1v1h-1z M32,47h1v1h-1z M33,47h1v1h-1z M35,47h1v1h-1z M41,47h1v1h-1z M42,47h1v1h-1z M44,47h1v1h-1z M47,47h1v1h-1z M49,47h1v1h-1z M52,47h1v1h-1z M53,47h1v1h-1z M55,47h1v1h-1z M57,47h1v1h-1z M58,47h1v1h-1z M59,47h1v1h-1z M68,47h1v1h-1z M69,47h1v1h-1z M70,47h1v1h-1z M71,47h1v1h-1z M73,47h1v1h-1z M75,47h1v1h-1z M76,47h1v1h-1z M77,47h1v1h-1z M80,47h1v1h-1z M82,47h1v1h-1z M83,47h1v1h-1z M85,47h1v1h-1z M86,47h1v1h-1z M89,47h1v1h-1z M92,47h1v1h-1z M95,47h1v1h-1z M98,47h1v1h-1z M99,47h1v1h-1z M100,47h1v1h-1z M104,47h1v1h-1z M108,47h1v1h-1z M5,48h1v1h-1z M6,48h1v1h-1z M8,48h1v1h-1z M9,48h1v1h-1z M10,48h1v1h-1z M11,48h1v1h-1z M15,48h1v1h-1z M17,48h1v1h-1z M20,48h1v1h-1z M21,48h1v1h-1z M31,48h1v1h-1z M41,48h1v1h-1z M45,48h1v1h-1z M46,48h1v1h-1z M47,48h1v1h-1z M48,48h1v1h-1z M53,48h1v1h-1z M55,48h1v1h-1z M58,48h1v1h-1z M60,48h1v1h-1z M61,48h1v1h-1z M63,48h1v1h-1z M67,48h1v1h-1z M70,48h1v1h-1z M71,48h1v1h-1z M72,48h1v1h-1z M74,48h1v1h-1z M77,48h1v1h-1z M78,48h1v1h-1z M79,48h1v1h-1z M81,48h1v1h-1z M82,48h1v1h-1z M84,48h1v1h-1z M85,48h1v1h-1z M88,48h1v1h-1z M89,48h1v1h-1z M90,48h1v1h-1z M93,48h1v1h-1z M95,48h1v1h-1z M98,48h1v1h-1z M99,48h1v1h-1z M100,48h1v1h-1z M101,48h1v1h-1z M102,48h1v1h-1z M105,48h1v1h-1z M107,48h1v1h-1z M108,48h1v1h-1z M6,49h1v1h-1z M8,49h1v1h-1z M9,49h1v1h-1z M11,49h1v1h-1z M13,49h1v1h-1z M15,49h1v1h-1z M17,49h1v1h-1z M18,49h1v1h-1z M19,49h1v1h-1z M21,49h1v1h-1z M22,49h1v1h-1z M23,49h1v1h-1z M24,49h1v1h-1z M26,49h1v1h-1z M28,49h1v1h-1z M33,49h1v1h-1z M34,49h1v1h-1z M37,49h1v1h-1z M38,49h1v1h-1z M40,49h1v1h-1z M41,49h1v1h-1z M42,49h1v1h-1z M44,49h1v1h-1z M45,49h1v1h-1z M46,49h1v1h-1z M47,49h1v1h-1z M50,49h1v1h-1z M54,49h1v1h-1z M55,49h1v1h-1z M57,49h1v1h-1z M59,49h1v1h-1z M61,49h1v1h-1z M62,49h1v1h-1z M64,49h1v1h-1z M68,49h1v1h-1z M70,49h1v1h-1z M72,49h1v1h-1z M73,49h1v1h-1z M75,49h1v1h-1z M77,49h1v1h-1z M80,49h1v1h-1z M91,49h1v1h-1z M94,49h1v1h-1z M96,49h1v1h-1z M98,49h1v1h-1z M103,49h1v1h-1z M105,49h1v1h-1z M5,50h1v1h-1z M6,50h1v1h-1z M7,50h1v1h-1z M9,50h1v1h-1z M10,50h1v1h-1z M11,50h1v1h-1z M12,50h1v1h-1z M14,50h1v1h-1z M15,50h1v1h-1z M16,50h1v1h-1z M17,50h1v1h-1z M19,50h1v1h-1z M20,50h1v1h-1z M25,50h1v1h-1z M26,50h1v1h-1z M27,50h1v1h-1z M28,50h1v1h-1z M29,50h1v1h-1z M31,50h1v1h-1z M33,50h1v1h-1z M35,50h1v1h-1z M36,50h1v1h-1z M38,50h1v1h-1z M41,50h1v1h-1z M43,50h1v1h-1z M44,50h1v1h-1z M50,50h1v1h-1z M52,50h1v1h-1z M56,50h1v1h-1z M60,50h1v1h-1z M62,50h1v1h-1z M63,50h1v1h-1z M65,50h1v1h-1z M67,50h1v1h-1z M68,50h1v1h-1z M72,50h1v1h-1z M74,50h1v1h-1z M75,50h1v1h-1z M76,50h1v1h-1z M77,50h1v1h-1z M78,50h1v1h-1z M79,50h1v1h-1z M84,50h1v1h-1z M86,50h1v1h-1z M88,50h1v1h-1z M89,50h1v1h-1z M98,50h1v1h-1z M101,50h1v1h-1z M106,50h1v1h-1z M107,50h1v1h-1z M7,51h1v1h-1z M8,51h1v1h-1z M12,51h1v1h-1z M14,51h1v1h-1z M16,51h1v1h-1z M18,51h1v1h-1z M19,51h1v1h-1z M21,51h1v1h-1z M22,51h1v1h-1z M23,51h1v1h-1z M24,51h1v1h-1z M29,51h1v1h-1z M31,51h1v1h-1z M32,51h1v1h-1z M34,51h1v1h-1z M35,51h1v1h-1z M37,51h1v1h-1z M38,51h1v1h-1z M44,51h1v1h-1z M47,51h1v1h-1z M49,51h1v1h-1z M50,51h1v1h-1z M51,51h1v1h-1z M52,51h1v1h-1z M53,51h1v1h-1z M55,51h1v1h-1z M57,51h1v1h-1z M59,51h1v1h-1z M61,51h1v1h-1z M62,51h1v1h-1z M66,51h1v1h-1z M68,51h1v1h-1z M69,51h1v1h-1z M70,51h1v1h-1z M71,51h1v1h-1z M74,51h1v1h-1z M76,51h1v1h-1z M79,51h1v1h-1z M81,51h1v1h-1z M83,51h1v1h-1z M90,51h1v1h-1z M91,51h1v1h-1z M92,51h1v1h-1z M93,51h1v1h-1z M95,51h1v1h-1z M98,51h1v1h-1z M99,51h1v1h-1z M100,51h1v1h-1z M101,51h1v1h-1z M104,51h1v1h-1z M108,51h1v1h-1z M8,52h1v1h-1z M9,52h1v1h-1z M10,52h1v1h-1z M11,52h1v1h-1z M12,52h1v1h-1z M19,52h1v1h-1z M22,52h1v1h-1z M23,52h1v1h-1z M28,52h1v1h-1z M29,52h1v1h-1z M30,52h1v1h-1z M31,52h1v1h-1z M32,52h1v1h-1z M33,52h1v1h-1z M36,52h1v1h-1z M37,52h1v1h-1z M42,52h1v1h-1z M45,52h1v1h-1z M46,52h1v1h-1z M48,52h1v1h-1z M49,52h1v1h-1z M50,52h1v1h-1z M52,52h1v1h-1z M53,52h1v1h-1z M54,52h1v1h-1z M55,52h1v1h-1z M56,52h1v1h-1z M58,52h1v1h-1z M60,52h1v1h-1z M63,52h1v1h-1z M64,52h1v1h-1z M66,52h1v1h-1z M67,52h1v1h-1z M68,52h1v1h-1z M70,52h1v1h-1z M72,52h1v1h-1z M76,52h1v1h-1z M77,52h1v1h-1z M78,52h1v1h-1z M79,52h1v1h-1z M80,52h1v1h-1z M83,52h1v1h-1z M84,52h1v1h-1z M89,52h1v1h-1z M90,52h1v1h-1z M91,52h1v1h-1z M95,52h1v1h-1z M97,52h1v1h-1z M98,52h1v1h-1z M100,52h1v1h-1z M101,52h1v1h-1z M102,52h1v1h-1z M103,52h1v1h-1z M104,52h1v1h-1z M106,52h1v1h-1z M107,52h1v1h-1z M108,52h1v1h-1z M5,53h1v1h-1z M8,53h1v1h-1z M12,53h1v1h-1z M14,53h1v1h-1z M16,53h1v1h-1z M18,53h1v1h-1z M19,53h1v1h-1z M20,53h1v1h-1z M22,53h1v1h-1z M23,53h1v1h-1z M24,53h1v1h-1z M27,53h1v1h-1z M28,53h1v1h-1z M32,53h1v1h-1z M34,53h1v1h-1z M35,53h1v1h-1z M36,53h1v1h-1z M37,53h1v1h-1z M39,53h1v1h-1z M40,53h1v1h-1z M41,53h1v1h-1z M42,53h1v1h-1z M44,53h1v1h-1z M48,53h1v1h-1z M51,53h1v1h-1z M52,53h1v1h-1z M56,53h1v1h-1z M60,53h1v1h-1z M61,53h1v1h-1z M62,53h1v1h-1z M71,53h1v1h-1z M72,53h1v1h-1z M75,53h1v1h-1z M76,53h1v1h-1z M80,53h1v1h-1z M82,53h1v1h-1z M84,53h1v1h-1z M85,53h1v1h-1z M89,53h1v1h-1z M90,53h1v1h-1z M91,53h1v1h-1z M93,53h1v1h-1z M94,53h1v1h-1z M96,53h1v1h-1z M97,53h1v1h-1z M98,53h1v1h-1z M100,53h1v1h-1z M104,53h1v1h-1z M105,53h1v1h-1z M106,53h1v1h-1z M107,53h1v1h-1z M108,53h1v1h-1z M4,54h1v1h-1z M5,54h1v1h-1z M8,54h1v1h-1z M10,54h1v1h-1z M12,54h1v1h-1z M14,54h1v1h-1z M16,54h1v1h-1z M20,54h1v1h-1z M21,54h1v1h-1z M27,54h1v1h-1z M28,54h1v1h-1z M30,54h1v1h-1z M32,54h1v1h-1z M36,54h1v1h-1z M37,54h1v1h-1z M38,54h1v1h-1z M39,54h1v1h-1z M41,54h1v1h-1z M44,54h1v1h-1z M47,54h1v1h-1z M48,54h1v1h-1z M49,54h1v1h-1z M50,54h1v1h-1z M51,54h1v1h-1z M52,54h1v1h-1z M54,54h1v1h-1z M56,54h1v1h-1z M62,54h1v1h-1z M63,54h1v1h-1z M64,54h1v1h-1z M65,54h1v1h-1z M67,54h1v1h-1z M68,54h1v1h-1z M72,54h1v1h-1z M74,54h1v1h-1z M75,54h1v1h-1z M76,54h1v1h-1z M78,54h1v1h-1z M80,54h1v1h-1z M86,54h1v1h-1z M88,54h1v1h-1z M89,54h1v1h-1z M95,54h1v1h-1z M98,54h1v1h-1z M99,54h1v1h-1z M100,54h1v1h-1z M102,54h1v1h-1z M104,54h1v1h-1z M107,54h1v1h-1z M5,55h1v1h-1z M8,55h1v1h-1z M12,55h1v1h-1z M13,55h1v1h-1z M15,55h1v1h-1z M17,55h1v1h-1z M18,55h1v1h-1z M19,55h1v1h-1z M20,55h1v1h-1z M25,55h1v1h-1z M27,55h1v1h-1z M28,55h1v1h-1z M32,55h1v1h-1z M33,55h1v1h-1z M42,55h1v1h-1z M44,55h1v1h-1z M45,55h1v1h-1z M47,55h1v1h-1z M51,55h1v1h-1z M52,55h1v1h-1z M56,55h1v1h-1z M57,55h1v1h-1z M58,55h1v1h-1z M59,55h1v1h-1z M65,55h1v1h-1z M66,55h1v1h-1z M68,55h1v1h-1z M69,55h1v1h-1z M70,55h1v1h-1z M71,55h1v1h-1z M75,55h1v1h-1z M76,55h1v1h-1z M80,55h1v1h-1z M81,55h1v1h-1z M83,55h1v1h-1z M85,55h1v1h-1z M87,55h1v1h-1z M89,55h1v1h-1z M91,55h1v1h-1z M92,55h1v1h-1z M93,55h1v1h-1z M95,55h1v1h-1z M100,55h1v1h-1z M104,55h1v1h-1z M107,55h1v1h-1z M4,56h1v1h-1z M5,56h1v1h-1z M6,56h1v1h-1z M7,56h1v1h-1z M8,56h1v1h-1z M9,56h1v1h-1z M10,56h1v1h-1z M11,56h1v1h-1z M12,56h1v1h-1z M16,56h1v1h-1z M17,56h1v1h-1z M18,56h1v1h-1z M20,56h1v1h-1z M21,56h1v1h-1z M23,56h1v1h-1z M24,56h1v1h-1z M25,56h1v1h-1z M26,56h1v1h-1z M27,56h1v1h-1z M28,56h1v1h-1z M29,56h1v1h-1z M30,56h1v1h-1z M31,56h1v1h-1z M32,56h1v1h-1z M33,56h1v1h-1z M34,56h1v1h-1z M35,56h1v1h-1z M36,56h1v1h-1z M37,56h1v1h-1z M39,56h1v1h-1z M41,56h1v1h-1z M42,56h1v1h-1z M45,56h1v1h-1z M46,56h1v1h-1z M50,56h1v1h-1z M52,56h1v1h-1z M53,56h1v1h-1z M54,56h1v1h-1z M55,56h1v1h-1z M56,56h1v1h-1z M57,56h1v1h-1z M58,56h1v1h-1z M59,56h1v1h-1z M60,56h1v1h-1z M61,56h1v1h-1z M63,56h1v1h-1z M66,56h1v1h-1z M67,56h1v1h-1z M68,56h1v1h-1z M69,56h1v1h-1z M70,56h1v1h-1z M72,56h1v1h-1z M75,56h1v1h-1z M76,56h1v1h-1z M77,56h1v1h-1z M78,56h1v1h-1z M79,56h1v1h-1z M80,56h1v1h-1z M81,56h1v1h-1z M82,56h1v1h-1z M84,56h1v1h-1z M86,56h1v1h-1z M88,56h1v1h-1z M89,56h1v1h-1z M92,56h1v1h-1z M94,56h1v1h-1z M96,56h1v1h-1z M99,56h1v1h-1z M100,56h1v1h-1z M101,56h1v1h-1z M102,56h1v1h-1z M103,56h1v1h-1z M104,56h1v1h-1z M106,56h1v1h-1z M4,57h1v1h-1z M6,57h1v1h-1z M7,57h1v1h-1z M9,57h1v1h-1z M11,57h1v1h-1z M13,57h1v1h-1z M14,57h1v1h-1z M16,57h1v1h-1z M19,57h1v1h-1z M24,57h1v1h-1z M25,57h1v1h-1z M28,57h1v1h-1z M29,57h1v1h-1z M30,57h1v1h-1z M31,57h1v1h-1z M33,57h1v1h-1z M34,57h1v1h-1z M36,57h1v1h-1z M40,57h1v1h-1z M42,57h1v1h-1z M43,57h1v1h-1z M46,57h1v1h-1z M49,57h1v1h-1z M54,57h1v1h-1z M55,57h1v1h-1z M57,57h1v1h-1z M60,57h1v1h-1z M65,57h1v1h-1z M67,57h1v1h-1z M68,57h1v1h-1z M71,57h1v1h-1z M72,57h1v1h-1z M73,57h1v1h-1z M76,57h1v1h-1z M77,57h1v1h-1z M79,57h1v1h-1z M82,57h1v1h-1z M83,57h1v1h-1z M84,57h1v1h-1z M92,57h1v1h-1z M93,57h1v1h-1z M95,57h1v1h-1z M98,57h1v1h-1z M99,57h1v1h-1z M100,57h1v1h-1z M102,57h1v1h-1z M105,57h1v1h-1z M106,57h1v1h-1z M108,57h1v1h-1z M4,58h1v1h-1z M7,58h1v1h-1z M8,58h1v1h-1z M9,58h1v1h-1z M10,58h1v1h-1z M11,58h1v1h-1z M12,58h1v1h-1z M13,58h1v1h-1z M15,58h1v1h-1z M17,58h1v1h-1z M19,58h1v1h-1z M20,58h1v1h-1z M21,58h1v1h-1z M22,58h1v1h-1z M23,58h1v1h-1z M26,58h1v1h-1z M29,58h1v1h-1z M30,58h1v1h-1z M35,58h1v1h-1z M36,58h1v1h-1z M38,58h1v1h-1z M40,58h1v1h-1z M41,58h1v1h-1z M47,58h1v1h-1z M50,58h1v1h-1z M53,58h1v1h-1z M54,58h1v1h-1z M55,58h1v1h-1z M60,58h1v1h-1z M61,58h1v1h-1z M62,58h1v1h-1z M63,58h1v1h-1z M65,58h1v1h-1z M71,58h1v1h-1z M74,58h1v1h-1z M77,58h1v1h-1z M79,58h1v1h-1z M80,58h1v1h-1z M84,58h1v1h-1z M86,58h1v1h-1z M88,58h1v1h-1z M89,58h1v1h-1z M91,58h1v1h-1z M92,58h1v1h-1z M95,58h1v1h-1z M96,58h1v1h-1z M98,58h1v1h-1z M99,58h1v1h-1z M101,58h1v1h-1z M102,58h1v1h-1z M103,58h1v1h-1z M104,58h1v1h-1z M106,58h1v1h-1z M107,58h1v1h-1z M4,59h1v1h-1z M6,59h1v1h-1z M8,59h1v1h-1z M9,59h1v1h-1z M11,59h1v1h-1z M13,59h1v1h-1z M15,59h1v1h-1z M18,59h1v1h-1z M19,59h1v1h-1z M21,59h1v1h-1z M22,59h1v1h-1z M24,59h1v1h-1z M25,59h1v1h-1z M26,59h1v1h-1z M27,59h1v1h-1z M28,59h1v1h-1z M29,59h1v1h-1z M30,59h1v1h-1z M31,59h1v1h-1z M34,59h1v1h-1z M38,59h1v1h-1z M44,59h1v1h-1z M46,59h1v1h-1z M47,59h1v1h-1z M49,59h1v1h-1z M50,59h1v1h-1z M52,59h1v1h-1z M53,59h1v1h-1z M56,59h1v1h-1z M58,59h1v1h-1z M59,59h1v1h-1z M65,59h1v1h-1z M66,59h1v1h-1z M68,59h1v1h-1z M69,59h1v1h-1z M70,59h1v1h-1z M71,59h1v1h-1z M73,59h1v1h-1z M77,59h1v1h-1z M78,59h1v1h-1z M80,59h1v1h-1z M82,59h1v1h-1z M83,59h1v1h-1z M89,59h1v1h-1z M92,59h1v1h-1z M94,59h1v1h-1z M98,59h1v1h-1z M99,59h1v1h-1z M103,59h1v1h-1z M104,59h1v1h-1z M108,59h1v1h-1z M5,60h1v1h-1z M8,60h1v1h-1z M9,60h1v1h-1z M10,60h1v1h-1z M11,60h1v1h-1z M17,60h1v1h-1z M18,60h1v1h-1z M22,60h1v1h-1z M23,60h1v1h-1z M26,60h1v1h-1z M27,60h1v1h-1z M28,60h1v1h-1z M30,60h1v1h-1z M33,60h1v1h-1z M34,60h1v1h-1z M36,60h1v1h-1z M38,60h1v1h-1z M40,60h1v1h-1z M41,60h1v1h-1z M42,60h1v1h-1z M44,60h1v1h-1z M48,60h1v1h-1z M50,60h1v1h-1z M51,60h1v1h-1z M54,60h1v1h-1z M57,60h1v1h-1z M58,60h1v1h-1z M62,60h1v1h-1z M63,60h1v1h-1z M64,60h1v1h-1z M66,60h1v1h-1z M67,60h1v1h-1z M68,60h1v1h-1z M71,60h1v1h-1z M72,60h1v1h-1z M73,60h1v1h-1z M76,60h1v1h-1z M78,60h1v1h-1z M80,60h1v1h-1z M83,60h1v1h-1z M84,60h1v1h-1z M85,60h1v1h-1z M86,60h1v1h-1z M87,60h1v1h-1z M88,60h1v1h-1z M90,60h1v1h-1z M91,60h1v1h-1z M95,60h1v1h-1z M96,60h1v1h-1z M97,60h1v1h-1z M100,60h1v1h-1z M103,60h1v1h-1z M105,60h1v1h-1z M107,60h1v1h-1z M9,61h1v1h-1z M11,61h1v1h-1z M12,61h1v1h-1z M14,61h1v1h-1z M15,61h1v1h-1z M20,61h1v1h-1z M26,61h1v1h-1z M27,61h1v1h-1z M29,61h1v1h-1z M30,61h1v1h-1z M31,61h1v1h-1z M34,61h1v1h-1z M36,61h1v1h-1z M38,61h1v1h-1z M40,61h1v1h-1z M44,61h1v1h-1z M47,61h1v1h-1z M48,61h1v1h-1z M54,61h1v1h-1z M55,61h1v1h-1z M58,61h1v1h-1z M59,61h1v1h-1z M60,61h1v1h-1z M63,61h1v1h-1z M64,61h1v1h-1z M65,61h1v1h-1z M67,61h1v1h-1z M68,61h1v1h-1z M71,61h1v1h-1z M73,61h1v1h-1z M74,61h1v1h-1z M77,61h1v1h-1z M79,61h1v1h-1z M81,61h1v1h-1z M82,61h1v1h-1z M83,61h1v1h-1z M84,61h1v1h-1z M87,61h1v1h-1z M89,61h1v1h-1z M92,61h1v1h-1z M93,61h1v1h-1z M97,61h1v1h-1z M99,61h1v1h-1z M100,61h1v1h-1z M102,61h1v1h-1z M103,61h1v1h-1z M104,61h1v1h-1z M105,61h1v1h-1z M106,61h1v1h-1z M107,61h1v1h-1z M9,62h1v1h-1z M10,62h1v1h-1z M12,62h1v1h-1z M13,62h1v1h-1z M16,62h1v1h-1z M17,62h1v1h-1z M21,62h1v1h-1z M25,62h1v1h-1z M27,62h1v1h-1z M32,62h1v1h-1z M38,62h1v1h-1z M39,62h1v1h-1z M40,62h1v1h-1z M41,62h1v1h-1z M48,62h1v1h-1z M49,62h1v1h-1z M50,62h1v1h-1z M55,62h1v1h-1z M56,62h1v1h-1z M60,62h1v1h-1z M62,62h1v1h-1z M63,62h1v1h-1z M65,62h1v1h-1z M67,62h1v1h-1z M71,62h1v1h-1z M72,62h1v1h-1z M74,62h1v1h-1z M77,62h1v1h-1z M78,62h1v1h-1z M79,62h1v1h-1z M84,62h1v1h-1z M86,62h1v1h-1z M87,62h1v1h-1z M88,62h1v1h-1z M89,62h1v1h-1z M91,62h1v1h-1z M92,62h1v1h-1z M96,62h1v1h-1z M97,62h1v1h-1z M98,62h1v1h-1z M104,62h1v1h-1z M106,62h1v1h-1z M107,62h1v1h-1z M8,63h1v1h-1z M9,63h1v1h-1z M13,63h1v1h-1z M14,63h1v1h-1z M15,63h1v1h-1z M17,63h1v1h-1z M20,63h1v1h-1z M21,63h1v1h-1z M22,63h1v1h-1z M27,63h1v1h-1z M28,63h1v1h-1z M30,63h1v1h-1z M31,63h1v1h-1z M32,63h1v1h-1z M33,63h1v1h-1z M35,63h1v1h-1z M38,63h1v1h-1z M41,63h1v1h-1z M42,63h1v1h-1z M44,63h1v1h-1z M45,63h1v1h-1z M47,63h1v1h-1z M52,63h1v1h-1z M53,63h1v1h-1z M55,63h1v1h-1z M57,63h1v1h-1z M58,63h1v1h-1z M59,63h1v1h-1z M61,63h1v1h-1z M62,63h1v1h-1z M68,63h1v1h-1z M71,63h1v1h-1z M75,63h1v1h-1z M76,63h1v1h-1z M77,63h1v1h-1z M79,63h1v1h-1z M80,63h1v1h-1z M81,63h1v1h-1z M82,63h1v1h-1z M83,63h1v1h-1z M85,63h1v1h-1z M92,63h1v1h-1z M94,63h1v1h-1z M99,63h1v1h-1z M101,63h1v1h-1z M107,63h1v1h-1z M4,64h1v1h-1z M5,64h1v1h-1z M10,64h1v1h-1z M11,64h1v1h-1z M13,64h1v1h-1z M15,64h1v1h-1z M17,64h1v1h-1z M21,64h1v1h-1z M23,64h1v1h-1z M24,64h1v1h-1z M25,64h1v1h-1z M26,64h1v1h-1z M28,64h1v1h-1z M30,64h1v1h-1z M31,64h1v1h-1z M32,64h1v1h-1z M33,64h1v1h-1z M35,64h1v1h-1z M38,64h1v1h-1z M40,64h1v1h-1z M41,64h1v1h-1z M43,64h1v1h-1z M44,64h1v1h-1z M45,64h1v1h-1z M47,64h1v1h-1z M49,64h1v1h-1z M52,64h1v1h-1z M54,64h1v1h-1z M62,64h1v1h-1z M63,64h1v1h-1z M64,64h1v1h-1z M65,64h1v1h-1z M67,64h1v1h-1z M68,64h1v1h-1z M69,64h1v1h-1z M70,64h1v1h-1z M72,64h1v1h-1z M74,64h1v1h-1z M75,64h1v1h-1z M76,64h1v1h-1z M78,64h1v1h-1z M79,64h1v1h-1z M81,64h1v1h-1z M82,64h1v1h-1z M83,64h1v1h-1z M86,64h1v1h-1z M88,64h1v1h-1z M89,64h1v1h-1z M90,64h1v1h-1z M92,64h1v1h-1z M97,64h1v1h-1z M98,64h1v1h-1z M101,64h1v1h-1z M106,64h1v1h-1z M107,64h1v1h-1z M108,64h1v1h-1z M4,65h1v1h-1z M6,65h1v1h-1z M9,65h1v1h-1z M11,65h1v1h-1z M12,65h1v1h-1z M14,65h1v1h-1z M15,65h1v1h-1z M16,65h1v1h-1z M18,65h1v1h-1z M21,65h1v1h-1z M22,65h1v1h-1z M23,65h1v1h-1z M24,65h1v1h-1z M26,65h1v1h-1z M27,65h1v1h-1z M28,65h1v1h-1z M30,65h1v1h-1z M33,65h1v1h-1z M35,65h1v1h-1z M37,65h1v1h-1z M41,65h1v1h-1z M42,65h1v1h-1z M43,65h1v1h-1z M44,65h1v1h-1z M46,65h1v1h-1z M48,65h1v1h-1z M49,65h1v1h-1z M51,65h1v1h-1z M53,65h1v1h-1z M54,65h1v1h-1z M55,65h1v1h-1z M58,65h1v1h-1z M59,65h1v1h-1z M60,65h1v1h-1z M63,65h1v1h-1z M64,65h1v1h-1z M66,65h1v1h-1z M71,65h1v1h-1z M72,65h1v1h-1z M73,65h1v1h-1z M75,65h1v1h-1z M79,65h1v1h-1z M83,65h1v1h-1z M85,65h1v1h-1z M86,65h1v1h-1z M87,65h1v1h-1z M89,65h1v1h-1z M90,65h1v1h-1z M91,65h1v1h-1z M93,65h1v1h-1z M94,65h1v1h-1z M96,65h1v1h-1z M98,65h1v1h-1z M99,65h1v1h-1z M100,65h1v1h-1z M102,65h1v1h-1z M106,65h1v1h-1z M107,65h1v1h-1z M108,65h1v1h-1z M7,66h1v1h-1z M8,66h1v1h-1z M9,66h1v1h-1z M10,66h1v1h-1z M12,66h1v1h-1z M13,66h1v1h-1z M16,66h1v1h-1z M17,66h1v1h-1z M21,66h1v1h-1z M23,66h1v1h-1z M29,66h1v1h-1z M31,66h1v1h-1z M32,66h1v1h-1z M35,66h1v1h-1z M36,66h1v1h-1z M38,66h1v1h-1z M39,66h1v1h-1z M40,66h1v1h-1z M41,66h1v1h-1z M43,66h1v1h-1z M44,66h1v1h-1z M47,66h1v1h-1z M48,66h1v1h-1z M49,66h1v1h-1z M50,66h1v1h-1z M51,66h1v1h-1z M62,66h1v1h-1z M63,66h1v1h-1z M64,66h1v1h-1z M65,66h1v1h-1z M68,66h1v1h-1z M71,66h1v1h-1z M72,66h1v1h-1z M74,66h1v1h-1z M75,66h1v1h-1z M78,66h1v1h-1z M79,66h1v1h-1z M80,66h1v1h-1z M84,66h1v1h-1z M86,66h1v1h-1z M87,66h1v1h-1z M89,66h1v1h-1z M91,66h1v1h-1z M96,66h1v1h-1z M98,66h1v1h-1z M99,66h1v1h-1z M102,66h1v1h-1z M103,66h1v1h-1z M104,66h1v1h-1z M106,66h1v1h-1z M107,66h1v1h-1z M4,67h1v1h-1z M5,67h1v1h-1z M6,67h1v1h-1z M8,67h1v1h-1z M11,67h1v1h-1z M12,67h1v1h-1z M13,67h1v1h-1z M16,67h1v1h-1z M17,67h1v1h-1z M19,67h1v1h-1z M20,67h1v1h-1z M22,67h1v1h-1z M24,67h1v1h-1z M29,67h1v1h-1z M30,67h1v1h-1z M32,67h1v1h-1z M35,67h1v1h-1z M37,67h1v1h-1z M38,67h1v1h-1z M41,67h1v1h-1z M44,67h1v1h-1z M45,67h1v1h-1z M46,67h1v1h-1z M51,67h1v1h-1z M52,67h1v1h-1z M54,67h1v1h-1z M59,67h1v1h-1z M61,67h1v1h-1z M66,67h1v1h-1z M68,67h1v1h-1z M71,67h1v1h-1z M73,67h1v1h-1z M74,67h1v1h-1z M75,67h1v1h-1z M76,67h1v1h-1z M78,67h1v1h-1z M79,67h1v1h-1z M80,67h1v1h-1z M81,67h1v1h-1z M82,67h1v1h-1z M85,67h1v1h-1z M92,67h1v1h-1z M93,67h1v1h-1z M95,67h1v1h-1z M97,67h1v1h-1z M98,67h1v1h-1z M99,67h1v1h-1z M100,67h1v1h-1z M103,67h1v1h-1z M104,67h1v1h-1z M6,68h1v1h-1z M7,68h1v1h-1z M8,68h1v1h-1z M9,68h1v1h-1z M10,68h1v1h-1z M11,68h1v1h-1z M14,68h1v1h-1z M18,68h1v1h-1z M19,68h1v1h-1z M20,68h1v1h-1z M21,68h1v1h-1z M23,68h1v1h-1z M24,68h1v1h-1z M25,68h1v1h-1z M27,68h1v1h-1z M28,68h1v1h-1z M30,68h1v1h-1z M31,68h1v1h-1z M33,68h1v1h-1z M34,68h1v1h-1z M39,68h1v1h-1z M40,68h1v1h-1z M41,68h1v1h-1z M42,68h1v1h-1z M43,68h1v1h-1z M44,68h1v1h-1z M46,68h1v1h-1z M47,68h1v1h-1z M50,68h1v1h-1z M54,68h1v1h-1z M56,68h1v1h-1z M58,68h1v1h-1z M59,68h1v1h-1z M60,68h1v1h-1z M61,68h1v1h-1z M64,68h1v1h-1z M65,68h1v1h-1z M66,68h1v1h-1z M68,68h1v1h-1z M71,68h1v1h-1z M72,68h1v1h-1z M74,68h1v1h-1z M76,68h1v1h-1z M78,68h1v1h-1z M79,68h1v1h-1z M80,68h1v1h-1z M82,68h1v1h-1z M83,68h1v1h-1z M85,68h1v1h-1z M86,68h1v1h-1z M90,68h1v1h-1z M91,68h1v1h-1z M92,68h1v1h-1z M93,68h1v1h-1z M94,68h1v1h-1z M95,68h1v1h-1z M97,68h1v1h-1z M101,68h1v1h-1z M102,68h1v1h-1z M103,68h1v1h-1z M106,68h1v1h-1z M108,68h1v1h-1z M4,69h1v1h-1z M5,69h1v1h-1z M7,69h1v1h-1z M8,69h1v1h-1z M13,69h1v1h-1z M14,69h1v1h-1z M18,69h1v1h-1z M20,69h1v1h-1z M22,69h1v1h-1z M23,69h1v1h-1z M24,69h1v1h-1z M29,69h1v1h-1z M31,69h1v1h-1z M34,69h1v1h-1z M35,69h1v1h-1z M37,69h1v1h-1z M41,69h1v1h-1z M43,69h1v1h-1z M45,69h1v1h-1z M46,69h1v1h-1z M48,69h1v1h-1z M51,69h1v1h-1z M52,69h1v1h-1z M53,69h1v1h-1z M57,69h1v1h-1z M60,69h1v1h-1z M61,69h1v1h-1z M71,69h1v1h-1z M72,69h1v1h-1z M73,69h1v1h-1z M75,69h1v1h-1z M77,69h1v1h-1z M78,69h1v1h-1z M79,69h1v1h-1z M83,69h1v1h-1z M84,69h1v1h-1z M86,69h1v1h-1z M89,69h1v1h-1z M92,69h1v1h-1z M93,69h1v1h-1z M95,69h1v1h-1z M96,69h1v1h-1z M98,69h1v1h-1z M99,69h1v1h-1z M100,69h1v1h-1z M102,69h1v1h-1z M103,69h1v1h-1z M105,69h1v1h-1z M106,69h1v1h-1z M107,69h1v1h-1z M4,70h1v1h-1z M8,70h1v1h-1z M9,70h1v1h-1z M10,70h1v1h-1z M11,70h1v1h-1z M12,70h1v1h-1z M13,70h1v1h-1z M15,70h1v1h-1z M16,70h1v1h-1z M21,70h1v1h-1z M25,70h1v1h-1z M26,70h1v1h-1z M29,70h1v1h-1z M38,70h1v1h-1z M40,70h1v1h-1z M41,70h1v1h-1z M48,70h1v1h-1z M50,70h1v1h-1z M59,70h1v1h-1z M62,70h1v1h-1z M63,70h1v1h-1z M65,70h1v1h-1z M72,70h1v1h-1z M74,70h1v1h-1z M75,70h1v1h-1z M77,70h1v1h-1z M78,70h1v1h-1z M80,70h1v1h-1z M84,70h1v1h-1z M86,70h1v1h-1z M97,70h1v1h-1z M98,70h1v1h-1z M99,70h1v1h-1z M100,70h1v1h-1z M102,70h1v1h-1z M103,70h1v1h-1z M104,70h1v1h-1z M107,70h1v1h-1z M108,70h1v1h-1z M4,71h1v1h-1z M5,71h1v1h-1z M8,71h1v1h-1z M11,71h1v1h-1z M13,71h1v1h-1z M14,71h1v1h-1z M16,71h1v1h-1z M17,71h1v1h-1z M18,71h1v1h-1z M19,71h1v1h-1z M20,71h1v1h-1z M21,71h1v1h-1z M22,71h1v1h-1z M23,71h1v1h-1z M25,71h1v1h-1z M28,71h1v1h-1z M29,71h1v1h-1z M30,71h1v1h-1z M31,71h1v1h-1z M33,71h1v1h-1z M34,71h1v1h-1z M35,71h1v1h-1z M37,71h1v1h-1z M43,71h1v1h-1z M44,71h1v1h-1z M45,71h1v1h-1z M49,71h1v1h-1z M52,71h1v1h-1z M58,71h1v1h-1z M59,71h1v1h-1z M62,71h1v1h-1z M66,71h1v1h-1z M68,71h1v1h-1z M69,71h1v1h-1z M71,71h1v1h-1z M75,71h1v1h-1z M76,71h1v1h-1z M78,71h1v1h-1z M80,71h1v1h-1z M81,71h1v1h-1z M83,71h1v1h-1z M86,71h1v1h-1z M90,71h1v1h-1z M91,71h1v1h-1z M92,71h1v1h-1z M94,71h1v1h-1z M95,71h1v1h-1z M99,71h1v1h-1z M107,71h1v1h-1z M108,71h1v1h-1z M4,72h1v1h-1z M5,72h1v1h-1z M6,72h1v1h-1z M8,72h1v1h-1z M10,72h1v1h-1z M12,72h1v1h-1z M14,72h1v1h-1z M17,72h1v1h-1z M21,72h1v1h-1z M22,72h1v1h-1z M24,72h1v1h-1z M25,72h1v1h-1z M29,72h1v1h-1z M30,72h1v1h-1z M31,72h1v1h-1z M32,72h1v1h-1z M33,72h1v1h-1z M34,72h1v1h-1z M38,72h1v1h-1z M41,72h1v1h-1z M46,72h1v1h-1z M49,72h1v1h-1z M50,72h1v1h-1z M51,72h1v1h-1z M54,72h1v1h-1z M55,72h1v1h-1z M58,72h1v1h-1z M60,72h1v1h-1z M61,72h1v1h-1z M63,72h1v1h-1z M65,72h1v1h-1z M67,72h1v1h-1z M70,72h1v1h-1z M72,72h1v1h-1z M74,72h1v1h-1z M78,72h1v1h-1z M87,72h1v1h-1z M88,72h1v1h-1z M89,72h1v1h-1z M90,72h1v1h-1z M92,72h1v1h-1z M93,72h1v1h-1z M95,72h1v1h-1z M97,72h1v1h-1z M98,72h1v1h-1z M99,72h1v1h-1z M100,72h1v1h-1z M105,72h1v1h-1z M106,72h1v1h-1z M107,72h1v1h-1z M108,72h1v1h-1z M4,73h1v1h-1z M8,73h1v1h-1z M9,73h1v1h-1z M13,73h1v1h-1z M14,73h1v1h-1z M15,73h1v1h-1z M16,73h1v1h-1z M17,73h1v1h-1z M19,73h1v1h-1z M21,73h1v1h-1z M22,73h1v1h-1z M24,73h1v1h-1z M27,73h1v1h-1z M31,73h1v1h-1z M35,73h1v1h-1z M36,73h1v1h-1z M39,73h1v1h-1z M43,73h1v1h-1z M45,73h1v1h-1z M46,73h1v1h-1z M48,73h1v1h-1z M49,73h1v1h-1z M51,73h1v1h-1z M55,73h1v1h-1z M59,73h1v1h-1z M60,73h1v1h-1z M61,73h1v1h-1z M63,73h1v1h-1z M64,73h1v1h-1z M65,73h1v1h-1z M72,73h1v1h-1z M73,73h1v1h-1z M77,73h1v1h-1z M79,73h1v1h-1z M82,73h1v1h-1z M83,73h1v1h-1z M84,73h1v1h-1z M85,73h1v1h-1z M86,73h1v1h-1z M88,73h1v1h-1z M90,73h1v1h-1z M94,73h1v1h-1z M95,73h1v1h-1z M96,73h1v1h-1z M98,73h1v1h-1z M99,73h1v1h-1z M100,73h1v1h-1z M102,73h1v1h-1z M106,73h1v1h-1z M4,74h1v1h-1z M5,74h1v1h-1z M9,74h1v1h-1z M10,74h1v1h-1z M11,74h1v1h-1z M12,74h1v1h-1z M16,74h1v1h-1z M19,74h1v1h-1z M27,74h1v1h-1z M30,74h1v1h-1z M36,74h1v1h-1z M38,74h1v1h-1z M39,74h1v1h-1z M41,74h1v1h-1z M48,74h1v1h-1z M49,74h1v1h-1z M50,74h1v1h-1z M51,74h1v1h-1z M55,74h1v1h-1z M62,74h1v1h-1z M63,74h1v1h-1z M64,74h1v1h-1z M69,74h1v1h-1z M72,74h1v1h-1z M74,74h1v1h-1z M77,74h1v1h-1z M79,74h1v1h-1z M80,74h1v1h-1z M83,74h1v1h-1z M84,74h1v1h-1z M86,74h1v1h-1z M87,74h1v1h-1z M88,74h1v1h-1z M89,74h1v1h-1z M98,74h1v1h-1z M99,74h1v1h-1z M100,74h1v1h-1z M101,74h1v1h-1z M102,74h1v1h-1z M104,74h1v1h-1z M4,75h1v1h-1z M7,75h1v1h-1z M8,75h1v1h-1z M11,75h1v1h-1z M13,75h1v1h-1z M17,75h1v1h-1z M18,75h1v1h-1z M20,75h1v1h-1z M22,75h1v1h-1z M31,75h1v1h-1z M33,75h1v1h-1z M34,75h1v1h-1z M35,75h1v1h-1z M37,75h1v1h-1z M42,75h1v1h-1z M44,75h1v1h-1z M45,75h1v1h-1z M46,75h1v1h-1z M47,75h1v1h-1z M51,75h1v1h-1z M56,75h1v1h-1z M57,75h1v1h-1z M58,75h1v1h-1z M59,75h1v1h-1z M62,75h1v1h-1z M65,75h1v1h-1z M66,75h1v1h-1z M67,75h1v1h-1z M68,75h1v1h-1z M70,75h1v1h-1z M71,75h1v1h-1z M78,75h1v1h-1z M79,75h1v1h-1z M81,75h1v1h-1z M85,75h1v1h-1z M92,75h1v1h-1z M93,75h1v1h-1z M94,75h1v1h-1z M95,75h1v1h-1z M101,75h1v1h-1z M105,75h1v1h-1z M107,75h1v1h-1z M108,75h1v1h-1z M5,76h1v1h-1z M8,76h1v1h-1z M9,76h1v1h-1z M10,76h1v1h-1z M11,76h1v1h-1z M12,76h1v1h-1z M16,76h1v1h-1z M18,76h1v1h-1z M21,76h1v1h-1z M22,76h1v1h-1z M23,76h1v1h-1z M24,76h1v1h-1z M25,76h1v1h-1z M28,76h1v1h-1z M29,76h1v1h-1z M30,76h1v1h-1z M31,76h1v1h-1z M32,76h1v1h-1z M33,76h1v1h-1z M34,76h1v1h-1z M35,76h1v1h-1z M36,76h1v1h-1z M40,76h1v1h-1z M42,76h1v1h-1z M43,76h1v1h-1z M45,76h1v1h-1z M46,76h1v1h-1z M48,76h1v1h-1z M49,76h1v1h-1z M51,76h1v1h-1z M52,76h1v1h-1z M53,76h1v1h-1z M54,76h1v1h-1z M55,76h1v1h-1z M56,76h1v1h-1z M58,76h1v1h-1z M59,76h1v1h-1z M60,76h1v1h-1z M61,76h1v1h-1z M62,76h1v1h-1z M64,76h1v1h-1z M68,76h1v1h-1z M69,76h1v1h-1z M73,76h1v1h-1z M74,76h1v1h-1z M76,76h1v1h-1z M77,76h1v1h-1z M78,76h1v1h-1z M79,76h1v1h-1z M80,76h1v1h-1z M83,76h1v1h-1z M86,76h1v1h-1z M89,76h1v1h-1z M90,76h1v1h-1z M91,76h1v1h-1z M92,76h1v1h-1z M93,76h1v1h-1z M97,76h1v1h-1z M100,76h1v1h-1z M101,76h1v1h-1z M102,76h1v1h-1z M103,76h1v1h-1z M104,76h1v1h-1z M107,76h1v1h-1z M4,77h1v1h-1z M6,77h1v1h-1z M7,77h1v1h-1z M8,77h1v1h-1z M12,77h1v1h-1z M16,77h1v1h-1z M17,77h1v1h-1z M20,77h1v1h-1z M21,77h1v1h-1z M22,77h1v1h-1z M23,77h1v1h-1z M24,77h1v1h-1z M25,77h1v1h-1z M26,77h1v1h-1z M28,77h1v1h-1z M32,77h1v1h-1z M33,77h1v1h-1z M34,77h1v1h-1z M35,77h1v1h-1z M36,77h1v1h-1z M37,77h1v1h-1z M38,77h1v1h-1z M40,77h1v1h-1z M43,77h1v1h-1z M46,77h1v1h-1z M49,77h1v1h-1z M52,77h1v1h-1z M56,77h1v1h-1z M57,77h1v1h-1z M60,77h1v1h-1z M62,77h1v1h-1z M63,77h1v1h-1z M64,77h1v1h-1z M66,77h1v1h-1z M68,77h1v1h-1z M69,77h1v1h-1z M70,77h1v1h-1z M72,77h1v1h-1z M73,77h1v1h-1z M75,77h1v1h-1z M76,77h1v1h-1z M80,77h1v1h-1z M82,77h1v1h-1z M83,77h1v1h-1z M84,77h1v1h-1z M86,77h1v1h-1z M89,77h1v1h-1z M90,77h1v1h-1z M93,77h1v1h-1z M98,77h1v1h-1z M99,77h1v1h-1z M100,77h1v1h-1z M104,77h1v1h-1z M105,77h1v1h-1z M106,77h1v1h-1z M107,77h1v1h-1z M6,78h1v1h-1z M7,78h1v1h-1z M8,78h1v1h-1z M10,78h1v1h-1z M12,78h1v1h-1z M13,78h1v1h-1z M15,78h1v1h-1z M17,78h1v1h-1z M23,78h1v1h-1z M24,78h1v1h-1z M26,78h1v1h-1z M27,78h1v1h-1z M28,78h1v1h-1z M30,78h1v1h-1z M32,78h1v1h-1z M36,78h1v1h-1z M38,78h1v1h-1z M39,78h1v1h-1z M40,78h1v1h-1z M41,78h1v1h-1z M43,78h1v1h-1z M44,78h1v1h-1z M45,78h1v1h-1z M50,78h1v1h-1z M52,78h1v1h-1z M54,78h1v1h-1z M56,78h1v1h-1z M62,78h1v1h-1z M63,78h1v1h-1z M64,78h1v1h-1z M65,78h1v1h-1z M71,78h1v1h-1z M72,78h1v1h-1z M74,78h1v1h-1z M75,78h1v1h-1z M76,78h1v1h-1z M78,78h1v1h-1z M80,78h1v1h-1z M83,78h1v1h-1z M86,78h1v1h-1z M87,78h1v1h-1z M88,78h1v1h-1z M89,78h1v1h-1z M91,78h1v1h-1z M93,78h1v1h-1z M95,78h1v1h-1z M97,78h1v1h-1z M98,78h1v1h-1z M100,78h1v1h-1z M102,78h1v1h-1z M104,78h1v1h-1z M105,78h1v1h-1z M106,78h1v1h-1z M4,79h1v1h-1z M6,79h1v1h-1z M8,79h1v1h-1z M12,79h1v1h-1z M13,79h1v1h-1z M14,79h1v1h-1z M15,79h1v1h-1z M17,79h1v1h-1z M19,79h1v1h-1z M23,79h1v1h-1z M26,79h1v1h-1z M27,79h1v1h-1z M28,79h1v1h-1z M32,79h1v1h-1z M34,79h1v1h-1z M35,79h1v1h-1z M38,79h1v1h-1z M41,79h1v1h-1z M44,79h1v1h-1z M45,79h1v1h-1z M46,79h1v1h-1z M47,79h1v1h-1z M49,79h1v1h-1z M50,79h1v1h-1z M52,79h1v1h-1z M56,79h1v1h-1z M58,79h1v1h-1z M59,79h1v1h-1z M62,79h1v1h-1z M66,79h1v1h-1z M68,79h1v1h-1z M69,79h1v1h-1z M73,79h1v1h-1z M74,79h1v1h-1z M75,79h1v1h-1z M76,79h1v1h-1z M80,79h1v1h-1z M81,79h1v1h-1z M82,79h1v1h-1z M83,79h1v1h-1z M85,79h1v1h-1z M92,79h1v1h-1z M94,79h1v1h-1z M95,79h1v1h-1z M99,79h1v1h-1z M100,79h1v1h-1z M104,79h1v1h-1z M4,80h1v1h-1z M6,80h1v1h-1z M8,80h1v1h-1z M9,80h1v1h-1z M10,80h1v1h-1z M11,80h1v1h-1z M12,80h1v1h-1z M15,80h1v1h-1z M17,80h1v1h-1z M20,80h1v1h-1z M24,80h1v1h-1z M27,80h1v1h-1z M28,80h1v1h-1z M29,80h1v1h-1z M30,80h1v1h-1z M31,80h1v1h-1z M32,80h1v1h-1z M36,80h1v1h-1z M38,80h1v1h-1z M39,80h1v1h-1z M42,80h1v1h-1z M43,80h1v1h-1z M44,80h1v1h-1z M49,80h1v1h-1z M51,80h1v1h-1z M52,80h1v1h-1z M53,80h1v1h-1z M54,80h1v1h-1z M55,80h1v1h-1z M56,80h1v1h-1z M57,80h1v1h-1z M58,80h1v1h-1z M59,80h1v1h-1z M60,80h1v1h-1z M61,80h1v1h-1z M65,80h1v1h-1z M69,80h1v1h-1z M70,80h1v1h-1z M74,80h1v1h-1z M75,80h1v1h-1z M76,80h1v1h-1z M77,80h1v1h-1z M78,80h1v1h-1z M79,80h1v1h-1z M80,80h1v1h-1z M81,80h1v1h-1z M82,80h1v1h-1z M84,80h1v1h-1z M86,80h1v1h-1z M87,80h1v1h-1z M88,80h1v1h-1z M89,80h1v1h-1z M90,80h1v1h-1z M91,80h1v1h-1z M94,80h1v1h-1z M95,80h1v1h-1z M96,80h1v1h-1z M99,80h1v1h-1z M100,80h1v1h-1z M101,80h1v1h-1z M102,80h1v1h-1z M103,80h1v1h-1z M104,80h1v1h-1z M105,80h1v1h-1z M106,80h1v1h-1z M107,80h1v1h-1z M108,80h1v1h-1z M7,81h1v1h-1z M11,81h1v1h-1z M12,81h1v1h-1z M13,81h1v1h-1z M15,81h1v1h-1z M16,81h1v1h-1z M17,81h1v1h-1z M18,81h1v1h-1z M19,81h1v1h-1z M28,81h1v1h-1z M30,81h1v1h-1z M31,81h1v1h-1z M32,81h1v1h-1z M33,81h1v1h-1z M35,81h1v1h-1z M36,81h1v1h-1z M38,81h1v1h-1z M41,81h1v1h-1z M42,81h1v1h-1z M45,81h1v1h-1z M46,81h1v1h-1z M52,81h1v1h-1z M53,81h1v1h-1z M54,81h1v1h-1z M55,81h1v1h-1z M61,81h1v1h-1z M62,81h1v1h-1z M64,81h1v1h-1z M65,81h1v1h-1z M66,81h1v1h-1z M68,81h1v1h-1z M71,81h1v1h-1z M72,81h1v1h-1z M73,81h1v1h-1z M74,81h1v1h-1z M76,81h1v1h-1z M78,81h1v1h-1z M79,81h1v1h-1z M82,81h1v1h-1z M85,81h1v1h-1z M88,81h1v1h-1z M92,81h1v1h-1z M93,81h1v1h-1z M94,81h1v1h-1z M95,81h1v1h-1z M99,81h1v1h-1z M103,81h1v1h-1z M106,81h1v1h-1z M107,81h1v1h-1z M4,82h1v1h-1z M5,82h1v1h-1z M7,82h1v1h-1z M8,82h1v1h-1z M10,82h1v1h-1z M11,82h1v1h-1z M12,82h1v1h-1z M14,82h1v1h-1z M15,82h1v1h-1z M20,82h1v1h-1z M24,82h1v1h-1z M27,82h1v1h-1z M31,82h1v1h-1z M32,82h1v1h-1z M38,82h1v1h-1z M39,82h1v1h-1z M40,82h1v1h-1z M41,82h1v1h-1z M47,82h1v1h-1z M48,82h1v1h-1z M50,82h1v1h-1z M53,82h1v1h-1z M54,82h1v1h-1z M56,82h1v1h-1z M60,82h1v1h-1z M62,82h1v1h-1z M63,82h1v1h-1z M72,82h1v1h-1z M74,82h1v1h-1z M76,82h1v1h-1z M77,82h1v1h-1z M78,82h1v1h-1z M80,82h1v1h-1z M84,82h1v1h-1z M86,82h1v1h-1z M88,82h1v1h-1z M89,82h1v1h-1z M91,82h1v1h-1z M98,82h1v1h-1z M101,82h1v1h-1z M107,82h1v1h-1z M12,83h1v1h-1z M15,83h1v1h-1z M16,83h1v1h-1z M17,83h1v1h-1z M19,83h1v1h-1z M20,83h1v1h-1z M21,83h1v1h-1z M23,83h1v1h-1z M26,83h1v1h-1z M28,83h1v1h-1z M30,83h1v1h-1z M33,83h1v1h-1z M34,83h1v1h-1z M35,83h1v1h-1z M37,83h1v1h-1z M38,83h1v1h-1z M44,83h1v1h-1z M50,83h1v1h-1z M52,83h1v1h-1z M53,83h1v1h-1z M55,83h1v1h-1z M56,83h1v1h-1z M59,83h1v1h-1z M61,83h1v1h-1z M62,83h1v1h-1z M65,83h1v1h-1z M66,83h1v1h-1z M67,83h1v1h-1z M68,83h1v1h-1z M69,83h1v1h-1z M71,83h1v1h-1z M75,83h1v1h-1z M80,83h1v1h-1z M81,83h1v1h-1z M83,83h1v1h-1z M86,83h1v1h-1z M87,83h1v1h-1z M89,83h1v1h-1z M92,83h1v1h-1z M95,83h1v1h-1z M97,83h1v1h-1z M98,83h1v1h-1z M101,83h1v1h-1z M102,83h1v1h-1z M107,83h1v1h-1z M4,84h1v1h-1z M5,84h1v1h-1z M7,84h1v1h-1z M8,84h1v1h-1z M9,84h1v1h-1z M10,84h1v1h-1z M11,84h1v1h-1z M12,84h1v1h-1z M14,84h1v1h-1z M15,84h1v1h-1z M16,84h1v1h-1z M17,84h1v1h-1z M18,84h1v1h-1z M19,84h1v1h-1z M20,84h1v1h-1z M21,84h1v1h-1z M22,84h1v1h-1z M25,84h1v1h-1z M26,84h1v1h-1z M27,84h1v1h-1z M28,84h1v1h-1z M29,84h1v1h-1z M30,84h1v1h-1z M31,84h1v1h-1z M34,84h1v1h-1z M36,84h1v1h-1z M39,84h1v1h-1z M41,84h1v1h-1z M42,84h1v1h-1z M43,84h1v1h-1z M44,84h1v1h-1z M45,84h1v1h-1z M46,84h1v1h-1z M47,84h1v1h-1z M48,84h1v1h-1z M49,84h1v1h-1z M57,84h1v1h-1z M58,84h1v1h-1z M59,84h1v1h-1z M60,84h1v1h-1z M61,84h1v1h-1z M62,84h1v1h-1z M63,84h1v1h-1z M64,84h1v1h-1z M65,84h1v1h-1z M66,84h1v1h-1z M67,84h1v1h-1z M68,84h1v1h-1z M69,84h1v1h-1z M70,84h1v1h-1z M71,84h1v1h-1z M72,84h1v1h-1z M73,84h1v1h-1z M75,84h1v1h-1z M80,84h1v1h-1z M81,84h1v1h-1z M85,84h1v1h-1z M87,84h1v1h-1z M89,84h1v1h-1z M90,84h1v1h-1z M91,84h1v1h-1z M93,84h1v1h-1z M95,84h1v1h-1z M96,84h1v1h-1z M100,84h1v1h-1z M101,84h1v1h-1z M103,84h1v1h-1z M106,84h1v1h-1z M107,84h1v1h-1z M108,84h1v1h-1z M5,85h1v1h-1z M6,85h1v1h-1z M12,85h1v1h-1z M13,85h1v1h-1z M16,85h1v1h-1z M17,85h1v1h-1z M18,85h1v1h-1z M28,85h1v1h-1z M30,85h1v1h-1z M31,85h1v1h-1z M32,85h1v1h-1z M36,85h1v1h-1z M37,85h1v1h-1z M40,85h1v1h-1z M43,85h1v1h-1z M45,85h1v1h-1z M47,85h1v1h-1z M49,85h1v1h-1z M50,85h1v1h-1z M52,85h1v1h-1z M54,85h1v1h-1z M55,85h1v1h-1z M59,85h1v1h-1z M60,85h1v1h-1z M61,85h1v1h-1z M62,85h1v1h-1z M67,85h1v1h-1z M69,85h1v1h-1z M74,85h1v1h-1z M78,85h1v1h-1z M82,85h1v1h-1z M83,85h1v1h-1z M84,85h1v1h-1z M86,85h1v1h-1z M87,85h1v1h-1z M88,85h1v1h-1z M89,85h1v1h-1z M92,85h1v1h-1z M93,85h1v1h-1z M99,85h1v1h-1z M100,85h1v1h-1z M101,85h1v1h-1z M102,85h1v1h-1z M103,85h1v1h-1z M4,86h1v1h-1z M5,86h1v1h-1z M10,86h1v1h-1z M11,86h1v1h-1z M12,86h1v1h-1z M13,86h1v1h-1z M15,86h1v1h-1z M17,86h1v1h-1z M18,86h1v1h-1z M19,86h1v1h-1z M20,86h1v1h-1z M24,86h1v1h-1z M26,86h1v1h-1z M27,86h1v1h-1z M28,86h1v1h-1z M30,86h1v1h-1z M31,86h1v1h-1z M32,86h1v1h-1z M38,86h1v1h-1z M40,86h1v1h-1z M41,86h1v1h-1z M43,86h1v1h-1z M44,86h1v1h-1z M47,86h1v1h-1z M48,86h1v1h-1z M50,86h1v1h-1z M52,86h1v1h-1z M56,86h1v1h-1z M61,86h1v1h-1z M62,86h1v1h-1z M64,86h1v1h-1z M65,86h1v1h-1z M68,86h1v1h-1z M74,86h1v1h-1z M76,86h1v1h-1z M80,86h1v1h-1z M83,86h1v1h-1z M84,86h1v1h-1z M86,86h1v1h-1z M87,86h1v1h-1z M88,86h1v1h-1z M89,86h1v1h-1z M92,86h1v1h-1z M95,86h1v1h-1z M98,86h1v1h-1z M99,86h1v1h-1z M103,86h1v1h-1z M104,86h1v1h-1z M106,86h1v1h-1z M5,87h1v1h-1z M6,87h1v1h-1z M8,87h1v1h-1z M9,87h1v1h-1z M12,87h1v1h-1z M15,87h1v1h-1z M18,87h1v1h-1z M22,87h1v1h-1z M23,87h1v1h-1z M24,87h1v1h-1z M26,87h1v1h-1z M27,87h1v1h-1z M32,87h1v1h-1z M33,87h1v1h-1z M35,87h1v1h-1z M37,87h1v1h-1z M39,87h1v1h-1z M41,87h1v1h-1z M42,87h1v1h-1z M44,87h1v1h-1z M46,87h1v1h-1z M47,87h1v1h-1z M51,87h1v1h-1z M59,87h1v1h-1z M65,87h1v1h-1z M68,87h1v1h-1z M69,87h1v1h-1z M71,87h1v1h-1z M73,87h1v1h-1z M74,87h1v1h-1z M76,87h1v1h-1z M78,87h1v1h-1z M79,87h1v1h-1z M81,87h1v1h-1z M82,87h1v1h-1z M83,87h1v1h-1z M85,87h1v1h-1z M89,87h1v1h-1z M92,87h1v1h-1z M93,87h1v1h-1z M94,87h1v1h-1z M95,87h1v1h-1z M97,87h1v1h-1z M100,87h1v1h-1z M101,87h1v1h-1z M102,87h1v1h-1z M104,87h1v1h-1z M105,87h1v1h-1z M5,88h1v1h-1z M9,88h1v1h-1z M10,88h1v1h-1z M11,88h1v1h-1z M13,88h1v1h-1z M14,88h1v1h-1z M21,88h1v1h-1z M23,88h1v1h-1z M24,88h1v1h-1z M26,88h1v1h-1z M27,88h1v1h-1z M32,88h1v1h-1z M34,88h1v1h-1z M35,88h1v1h-1z M36,88h1v1h-1z M39,88h1v1h-1z M41,88h1v1h-1z M42,88h1v1h-1z M47,88h1v1h-1z M48,88h1v1h-1z M50,88h1v1h-1z M54,88h1v1h-1z M58,88h1v1h-1z M61,88h1v1h-1z M64,88h1v1h-1z M66,88h1v1h-1z M67,88h1v1h-1z M71,88h1v1h-1z M72,88h1v1h-1z M74,88h1v1h-1z M75,88h1v1h-1z M78,88h1v1h-1z M80,88h1v1h-1z M82,88h1v1h-1z M83,88h1v1h-1z M89,88h1v1h-1z M92,88h1v1h-1z M96,88h1v1h-1z M100,88h1v1h-1z M101,88h1v1h-1z M102,88h1v1h-1z M105,88h1v1h-1z M108,88h1v1h-1z M4,89h1v1h-1z M6,89h1v1h-1z M8,89h1v1h-1z M12,89h1v1h-1z M16,89h1v1h-1z M17,89h1v1h-1z M18,89h1v1h-1z M20,89h1v1h-1z M21,89h1v1h-1z M23,89h1v1h-1z M26,89h1v1h-1z M29,89h1v1h-1z M30,89h1v1h-1z M31,89h1v1h-1z M32,89h1v1h-1z M33,89h1v1h-1z M36,89h1v1h-1z M38,89h1v1h-1z M39,89h1v1h-1z M40,89h1v1h-1z M43,89h1v1h-1z M44,89h1v1h-1z M48,89h1v1h-1z M54,89h1v1h-1z M55,89h1v1h-1z M56,89h1v1h-1z M60,89h1v1h-1z M61,89h1v1h-1z M64,89h1v1h-1z M67,89h1v1h-1z M69,89h1v1h-1z M70,89h1v1h-1z M72,89h1v1h-1z M74,89h1v1h-1z M76,89h1v1h-1z M78,89h1v1h-1z M81,89h1v1h-1z M84,89h1v1h-1z M85,89h1v1h-1z M86,89h1v1h-1z M87,89h1v1h-1z M88,89h1v1h-1z M89,89h1v1h-1z M90,89h1v1h-1z M91,89h1v1h-1z M95,89h1v1h-1z M96,89h1v1h-1z M98,89h1v1h-1z M99,89h1v1h-1z M100,89h1v1h-1z M101,89h1v1h-1z M103,89h1v1h-1z M105,89h1v1h-1z M107,89h1v1h-1z M5,90h1v1h-1z M6,90h1v1h-1z M7,90h1v1h-1z M8,90h1v1h-1z M9,90h1v1h-1z M10,90h1v1h-1z M12,90h1v1h-1z M13,90h1v1h-1z M15,90h1v1h-1z M16,90h1v1h-1z M18,90h1v1h-1z M21,90h1v1h-1z M27,90h1v1h-1z M29,90h1v1h-1z M30,90h1v1h-1z M31,90h1v1h-1z M32,90h1v1h-1z M33,90h1v1h-1z M35,90h1v1h-1z M38,90h1v1h-1z M39,90h1v1h-1z M40,90h1v1h-1z M41,90h1v1h-1z M43,90h1v1h-1z M44,90h1v1h-1z M48,90h1v1h-1z M50,90h1v1h-1z M51,90h1v1h-1z M56,90h1v1h-1z M59,90h1v1h-1z M60,90h1v1h-1z M62,90h1v1h-1z M63,90h1v1h-1z M64,90h1v1h-1z M65,90h1v1h-1z M67,90h1v1h-1z M72,90h1v1h-1z M74,90h1v1h-1z M76,90h1v1h-1z M80,90h1v1h-1z M83,90h1v1h-1z M86,90h1v1h-1z M88,90h1v1h-1z M89,90h1v1h-1z M91,90h1v1h-1z M95,90h1v1h-1z M96,90h1v1h-1z M97,90h1v1h-1z M98,90h1v1h-1z M99,90h1v1h-1z M100,90h1v1h-1z M101,90h1v1h-1z M104,90h1v1h-1z M105,90h1v1h-1z M107,90h1v1h-1z M5,91h1v1h-1z M6,91h1v1h-1z M7,91h1v1h-1z M9,91h1v1h-1z M11,91h1v1h-1z M12,91h1v1h-1z M15,91h1v1h-1z M17,91h1v1h-1z M18,91h1v1h-1z M19,91h1v1h-1z M21,91h1v1h-1z M24,91h1v1h-1z M27,91h1v1h-1z M31,91h1v1h-1z M34,91h1v1h-1z M35,91h1v1h-1z M41,91h1v1h-1z M44,91h1v1h-1z M49,91h1v1h-1z M50,91h1v1h-1z M51,91h1v1h-1z M54,91h1v1h-1z M55,91h1v1h-1z M57,91h1v1h-1z M58,91h1v1h-1z M59,91h1v1h-1z M63,91h1v1h-1z M68,91h1v1h-1z M69,91h1v1h-1z M71,91h1v1h-1z M73,91h1v1h-1z M74,91h1v1h-1z M75,91h1v1h-1z M77,91h1v1h-1z M79,91h1v1h-1z M80,91h1v1h-1z M81,91h1v1h-1z M83,91h1v1h-1z M87,91h1v1h-1z M89,91h1v1h-1z M90,91h1v1h-1z M92,91h1v1h-1z M93,91h1v1h-1z M94,91h1v1h-1z M95,91h1v1h-1z M102,91h1v1h-1z M103,91h1v1h-1z M108,91h1v1h-1z M4,92h1v1h-1z M7,92h1v1h-1z M10,92h1v1h-1z M11,92h1v1h-1z M16,92h1v1h-1z M17,92h1v1h-1z M18,92h1v1h-1z M21,92h1v1h-1z M22,92h1v1h-1z M25,92h1v1h-1z M26,92h1v1h-1z M27,92h1v1h-1z M29,92h1v1h-1z M33,92h1v1h-1z M34,92h1v1h-1z M35,92h1v1h-1z M36,92h1v1h-1z M37,92h1v1h-1z M42,92h1v1h-1z M43,92h1v1h-1z M44,92h1v1h-1z M46,92h1v1h-1z M50,92h1v1h-1z M53,92h1v1h-1z M54,92h1v1h-1z M56,92h1v1h-1z M57,92h1v1h-1z M58,92h1v1h-1z M60,92h1v1h-1z M61,92h1v1h-1z M66,92h1v1h-1z M67,92h1v1h-1z M68,92h1v1h-1z M69,92h1v1h-1z M70,92h1v1h-1z M71,92h1v1h-1z M74,92h1v1h-1z M75,92h1v1h-1z M78,92h1v1h-1z M79,92h1v1h-1z M82,92h1v1h-1z M83,92h1v1h-1z M85,92h1v1h-1z M89,92h1v1h-1z M94,92h1v1h-1z M95,92h1v1h-1z M98,92h1v1h-1z M101,92h1v1h-1z M102,92h1v1h-1z M104,92h1v1h-1z M105,92h1v1h-1z M106,92h1v1h-1z M107,92h1v1h-1z M6,93h1v1h-1z M8,93h1v1h-1z M9,93h1v1h-1z M11,93h1v1h-1z M12,93h1v1h-1z M13,93h1v1h-1z M16,93h1v1h-1z M19,93h1v1h-1z M22,93h1v1h-1z M23,93h1v1h-1z M24,93h1v1h-1z M25,93h1v1h-1z M28,93h1v1h-1z M30,93h1v1h-1z M31,93h1v1h-1z M33,93h1v1h-1z M35,93h1v1h-1z M36,93h1v1h-1z M38,93h1v1h-1z M39,93h1v1h-1z M40,93h1v1h-1z M41,93h1v1h-1z M42,93h1v1h-1z M45,93h1v1h-1z M50,93h1v1h-1z M52,93h1v1h-1z M54,93h1v1h-1z M55,93h1v1h-1z M56,93h1v1h-1z M58,93h1v1h-1z M59,93h1v1h-1z M60,93h1v1h-1z M62,93h1v1h-1z M65,93h1v1h-1z M67,93h1v1h-1z M69,93h1v1h-1z M70,93h1v1h-1z M71,93h1v1h-1z M72,93h1v1h-1z M74,93h1v1h-1z M76,93h1v1h-1z M78,93h1v1h-1z M81,93h1v1h-1z M83,93h1v1h-1z M88,93h1v1h-1z M89,93h1v1h-1z M90,93h1v1h-1z M92,93h1v1h-1z M95,93h1v1h-1z M96,93h1v1h-1z M97,93h1v1h-1z M100,93h1v1h-1z M101,93h1v1h-1z M103,93h1v1h-1z M105,93h1v1h-1z M106,93h1v1h-1z M107,93h1v1h-1z M108,93h1v1h-1z M4,94h1v1h-1z M8,94h1v1h-1z M10,94h1v1h-1z M11,94h1v1h-1z M12,94h1v1h-1z M13,94h1v1h-1z M16,94h1v1h-1z M17,94h1v1h-1z M20,94h1v1h-1z M21,94h1v1h-1z M22,94h1v1h-1z M23,94h1v1h-1z M24,94h1v1h-1z M26,94h1v1h-1z M27,94h1v1h-1z M28,94h1v1h-1z M29,94h1v1h-1z M32,94h1v1h-1z M35,94h1v1h-1z M37,94h1v1h-1z M38,94h1v1h-1z M41,94h1v1h-1z M43,94h1v1h-1z M44,94h1v1h-1z M50,94h1v1h-1z M52,94h1v1h-1z M53,94h1v1h-1z M54,94h1v1h-1z M55,94h1v1h-1z M56,94h1v1h-1z M59,94h1v1h-1z M60,94h1v1h-1z M61,94h1v1h-1z M62,94h1v1h-1z M67,94h1v1h-1z M71,94h1v1h-1z M73,94h1v1h-1z M74,94h1v1h-1z M75,94h1v1h-1z M76,94h1v1h-1z M80,94h1v1h-1z M83,94h1v1h-1z M84,94h1v1h-1z M86,94h1v1h-1z M87,94h1v1h-1z M88,94h1v1h-1z M89,94h1v1h-1z M98,94h1v1h-1z M99,94h1v1h-1z M100,94h1v1h-1z M101,94h1v1h-1z M104,94h1v1h-1z M107,94h1v1h-1z M5,95h1v1h-1z M6,95h1v1h-1z M7,95h1v1h-1z M9,95h1v1h-1z M11,95h1v1h-1z M12,95h1v1h-1z M16,95h1v1h-1z M18,95h1v1h-1z M19,95h1v1h-1z M28,95h1v1h-1z M30,95h1v1h-1z M31,95h1v1h-1z M34,95h1v1h-1z M35,95h1v1h-1z M41,95h1v1h-1z M44,95h1v1h-1z M45,95h1v1h-1z M47,95h1v1h-1z M51,95h1v1h-1z M53,95h1v1h-1z M56,95h1v1h-1z M58,95h1v1h-1z M59,95h1v1h-1z M65,95h1v1h-1z M66,95h1v1h-1z M67,95h1v1h-1z M68,95h1v1h-1z M70,95h1v1h-1z M71,95h1v1h-1z M75,95h1v1h-1z M77,95h1v1h-1z M78,95h1v1h-1z M80,95h1v1h-1z M82,95h1v1h-1z M83,95h1v1h-1z M91,95h1v1h-1z M92,95h1v1h-1z M95,95h1v1h-1z M99,95h1v1h-1z M100,95h1v1h-1z M104,95h1v1h-1z M105,95h1v1h-1z M107,95h1v1h-1z M4,96h1v1h-1z M5,96h1v1h-1z M7,96h1v1h-1z M8,96h1v1h-1z M10,96h1v1h-1z M14,96h1v1h-1z M16,96h1v1h-1z M18,96h1v1h-1z M21,96h1v1h-1z M22,96h1v1h-1z M23,96h1v1h-1z M25,96h1v1h-1z M27,96h1v1h-1z M28,96h1v1h-1z M29,96h1v1h-1z M31,96h1v1h-1z M32,96h1v1h-1z M33,96h1v1h-1z M34,96h1v1h-1z M36,96h1v1h-1z M37,96h1v1h-1z M40,96h1v1h-1z M42,96h1v1h-1z M43,96h1v1h-1z M44,96h1v1h-1z M45,96h1v1h-1z M46,96h1v1h-1z M49,96h1v1h-1z M51,96h1v1h-1z M54,96h1v1h-1z M55,96h1v1h-1z M58,96h1v1h-1z M60,96h1v1h-1z M63,96h1v1h-1z M64,96h1v1h-1z M66,96h1v1h-1z M67,96h1v1h-1z M70,96h1v1h-1z M71,96h1v1h-1z M80,96h1v1h-1z M82,96h1v1h-1z M86,96h1v1h-1z M87,96h1v1h-1z M89,96h1v1h-1z M91,96h1v1h-1z M94,96h1v1h-1z M95,96h1v1h-1z M96,96h1v1h-1z M100,96h1v1h-1z M101,96h1v1h-1z M102,96h1v1h-1z M103,96h1v1h-1z M4,97h1v1h-1z M5,97h1v1h-1z M7,97h1v1h-1z M11,97h1v1h-1z M12,97h1v1h-1z M13,97h1v1h-1z M16,97h1v1h-1z M17,97h1v1h-1z M18,97h1v1h-1z M19,97h1v1h-1z M26,97h1v1h-1z M30,97h1v1h-1z M33,97h1v1h-1z M35,97h1v1h-1z M36,97h1v1h-1z M37,97h1v1h-1z M39,97h1v1h-1z M40,97h1v1h-1z M42,97h1v1h-1z M43,97h1v1h-1z M45,97h1v1h-1z M48,97h1v1h-1z M50,97h1v1h-1z M54,97h1v1h-1z M55,97h1v1h-1z M59,97h1v1h-1z M61,97h1v1h-1z M65,97h1v1h-1z M66,97h1v1h-1z M68,97h1v1h-1z M69,97h1v1h-1z M71,97h1v1h-1z M72,97h1v1h-1z M73,97h1v1h-1z M74,97h1v1h-1z M78,97h1v1h-1z M81,97h1v1h-1z M85,97h1v1h-1z M87,97h1v1h-1z M88,97h1v1h-1z M89,97h1v1h-1z M91,97h1v1h-1z M92,97h1v1h-1z M94,97h1v1h-1z M96,97h1v1h-1z M98,97h1v1h-1z M100,97h1v1h-1z M103,97h1v1h-1z M106,97h1v1h-1z M4,98h1v1h-1z M5,98h1v1h-1z M6,98h1v1h-1z M10,98h1v1h-1z M11,98h1v1h-1z M12,98h1v1h-1z M13,98h1v1h-1z M17,98h1v1h-1z M18,98h1v1h-1z M19,98h1v1h-1z M22,98h1v1h-1z M24,98h1v1h-1z M25,98h1v1h-1z M26,98h1v1h-1z M27,98h1v1h-1z M29,98h1v1h-1z M30,98h1v1h-1z M32,98h1v1h-1z M36,98h1v1h-1z M38,98h1v1h-1z M40,98h1v1h-1z M41,98h1v1h-1z M43,98h1v1h-1z M44,98h1v1h-1z M47,98h1v1h-1z M50,98h1v1h-1z M52,98h1v1h-1z M56,98h1v1h-1z M62,98h1v1h-1z M64,98h1v1h-1z M65,98h1v1h-1z M67,98h1v1h-1z M68,98h1v1h-1z M71,98h1v1h-1z M72,98h1v1h-1z M74,98h1v1h-1z M76,98h1v1h-1z M80,98h1v1h-1z M84,98h1v1h-1z M86,98h1v1h-1z M87,98h1v1h-1z M89,98h1v1h-1z M91,98h1v1h-1z M92,98h1v1h-1z M95,98h1v1h-1z M96,98h1v1h-1z M98,98h1v1h-1z M99,98h1v1h-1z M104,98h1v1h-1z M6,99h1v1h-1z M8,99h1v1h-1z M9,99h1v1h-1z M12,99h1v1h-1z M13,99h1v1h-1z M16,99h1v1h-1z M17,99h1v1h-1z M19,99h1v1h-1z M22,99h1v1h-1z M23,99h1v1h-1z M25,99h1v1h-1z M26,99h1v1h-1z M27,99h1v1h-1z M33,99h1v1h-1z M35,99h1v1h-1z M37,99h1v1h-1z M39,99h1v1h-1z M41,99h1v1h-1z M44,99h1v1h-1z M45,99h1v1h-1z M46,99h1v1h-1z M47,99h1v1h-1z M49,99h1v1h-1z M50,99h1v1h-1z M51,99h1v1h-1z M56,99h1v1h-1z M57,99h1v1h-1z M59,99h1v1h-1z M68,99h1v1h-1z M70,99h1v1h-1z M73,99h1v1h-1z M75,99h1v1h-1z M77,99h1v1h-1z M80,99h1v1h-1z M81,99h1v1h-1z M82,99h1v1h-1z M83,99h1v1h-1z M85,99h1v1h-1z M89,99h1v1h-1z M90,99h1v1h-1z M92,99h1v1h-1z M94,99h1v1h-1z M97,99h1v1h-1z M100,99h1v1h-1z M101,99h1v1h-1z M102,99h1v1h-1z M103,99h1v1h-1z M104,99h1v1h-1z M108,99h1v1h-1z M7,100h1v1h-1z M8,100h1v1h-1z M10,100h1v1h-1z M12,100h1v1h-1z M13,100h1v1h-1z M14,100h1v1h-1z M15,100h1v1h-1z M19,100h1v1h-1z M21,100h1v1h-1z M22,100h1v1h-1z M23,100h1v1h-1z M24,100h1v1h-1z M25,100h1v1h-1z M28,100h1v1h-1z M29,100h1v1h-1z M30,100h1v1h-1z M31,100h1v1h-1z M32,100h1v1h-1z M34,100h1v1h-1z M35,100h1v1h-1z M37,100h1v1h-1z M40,100h1v1h-1z M42,100h1v1h-1z M43,100h1v1h-1z M46,100h1v1h-1z M47,100h1v1h-1z M48,100h1v1h-1z M51,100h1v1h-1z M52,100h1v1h-1z M53,100h1v1h-1z M54,100h1v1h-1z M55,100h1v1h-1z M56,100h1v1h-1z M58,100h1v1h-1z M59,100h1v1h-1z M62,100h1v1h-1z M63,100h1v1h-1z M64,100h1v1h-1z M65,100h1v1h-1z M66,100h1v1h-1z M70,100h1v1h-1z M73,100h1v1h-1z M74,100h1v1h-1z M75,100h1v1h-1z M76,100h1v1h-1z M77,100h1v1h-1z M78,100h1v1h-1z M79,100h1v1h-1z M80,100h1v1h-1z M82,100h1v1h-1z M85,100h1v1h-1z M87,100h1v1h-1z M88,100h1v1h-1z M90,100h1v1h-1z M92,100h1v1h-1z M96,100h1v1h-1z M97,100h1v1h-1z M98,100h1v1h-1z M100,100h1v1h-1z M101,100h1v1h-1z M102,100h1v1h-1z M103,100h1v1h-1z M104,100h1v1h-1z M105,100h1v1h-1z M108,100h1v1h-1z M12,101h1v1h-1z M16,101h1v1h-1z M18,101h1v1h-1z M19,101h1v1h-1z M22,101h1v1h-1z M24,101h1v1h-1z M26,101h1v1h-1z M27,101h1v1h-1z M28,101h1v1h-1z M32,101h1v1h-1z M35,101h1v1h-1z M38,101h1v1h-1z M39,101h1v1h-1z M40,101h1v1h-1z M41,101h1v1h-1z M43,101h1v1h-1z M45,101h1v1h-1z M48,101h1v1h-1z M49,101h1v1h-1z M51,101h1v1h-1z M52,101h1v1h-1z M56,101h1v1h-1z M57,101h1v1h-1z M58,101h1v1h-1z M60,101h1v1h-1z M61,101h1v1h-1z M67,101h1v1h-1z M68,101h1v1h-1z M70,101h1v1h-1z M71,101h1v1h-1z M72,101h1v1h-1z M75,101h1v1h-1z M76,101h1v1h-1z M80,101h1v1h-1z M81,101h1v1h-1z M82,101h1v1h-1z M84,101h1v1h-1z M88,101h1v1h-1z M92,101h1v1h-1z M94,101h1v1h-1z M96,101h1v1h-1z M98,101h1v1h-1z M99,101h1v1h-1z M100,101h1v1h-1z M104,101h1v1h-1z M105,101h1v1h-1z M107,101h1v1h-1z M4,102h1v1h-1z M5,102h1v1h-1z M6,102h1v1h-1z M7,102h1v1h-1z M8,102h1v1h-1z M9,102h1v1h-1z M10,102h1v1h-1z M13,102h1v1h-1z M14,102h1v1h-1z M16,102h1v1h-1z M17,102h1v1h-1z M20,102h1v1h-1z M21,102h1v1h-1z M22,102h1v1h-1z M24,102h1v1h-1z M26,102h1v1h-1z M27,102h1v1h-1z M28,102h1v1h-1z M30,102h1v1h-1z M32,102h1v1h-1z M38,102h1v1h-1z M41,102h1v1h-1z M48,102h1v1h-1z M49,102h1v1h-1z M50,102h1v1h-1z M51,102h1v1h-1z M52,102h1v1h-1z M54,102h1v1h-1z M56,102h1v1h-1z M57,102h1v1h-1z M60,102h1v1h-1z M62,102h1v1h-1z M63,102h1v1h-1z M64,102h1v1h-1z M71,102h1v1h-1z M72,102h1v1h-1z M73,102h1v1h-1z M74,102h1v1h-1z M75,102h1v1h-1z M76,102h1v1h-1z M78,102h1v1h-1z M80,102h1v1h-1z M86,102h1v1h-1z M88,102h1v1h-1z M89,102h1v1h-1z M91,102h1v1h-1z M95,102h1v1h-1z M96,102h1v1h-1z M97,102h1v1h-1z M98,102h1v1h-1z M99,102h1v1h-1z M100,102h1v1h-1z M102,102h1v1h-1z M104,102h1v1h-1z M107,102h1v1h-1z M4,103h1v1h-1z M10,103h1v1h-1z M12,103h1v1h-1z M14,103h1v1h-1z M15,103h1v1h-1z M16,103h1v1h-1z M17,103h1v1h-1z M19,103h1v1h-1z M21,103h1v1h-1z M22,103h1v1h-1z M23,103h1v1h-1z M24,103h1v1h-1z M25,103h1v1h-1z M26,103h1v1h-1z M28,103h1v1h-1z M32,103h1v1h-1z M33,103h1v1h-1z M34,103h1v1h-1z M35,103h1v1h-1z M43,103h1v1h-1z M44,103h1v1h-1z M46,103h1v1h-1z M47,103h1v1h-1z M49,103h1v1h-1z M52,103h1v1h-1z M56,103h1v1h-1z M57,103h1v1h-1z M58,103h1v1h-1z M59,103h1v1h-1z M61,103h1v1h-1z M65,103h1v1h-1z M66,103h1v1h-1z M68,103h1v1h-1z M69,103h1v1h-1z M71,103h1v1h-1z M75,103h1v1h-1z M76,103h1v1h-1z M80,103h1v1h-1z M83,103h1v1h-1z M85,103h1v1h-1z M86,103h1v1h-1z M91,103h1v1h-1z M92,103h1v1h-1z M93,103h1v1h-1z M99,103h1v1h-1z M100,103h1v1h-1z M104,103h1v1h-1z M108,103h1v1h-1z M4,104h1v1h-1z M6,104h1v1h-1z M7,104h1v1h-1z M8,104h1v1h-1z M10,104h1v1h-1z M12,104h1v1h-1z M13,104h1v1h-1z M15,104h1v1h-1z M17,104h1v1h-1z M18,104h1v1h-1z M19,104h1v1h-1z M20,104h1v1h-1z M21,104h1v1h-1z M22,104h1v1h-1z M23,104h1v1h-1z M25,104h1v1h-1z M27,104h1v1h-1z M28,104h1v1h-1z M29,104h1v1h-1z M30,104h1v1h-1z M31,104h1v1h-1z M32,104h1v1h-1z M33,104h1v1h-1z M34,104h1v1h-1z M35,104h1v1h-1z M37,104h1v1h-1z M38,104h1v1h-1z M41,104h1v1h-1z M42,104h1v1h-1z M43,104h1v1h-1z M44,104h1v1h-1z M47,104h1v1h-1z M49,104h1v1h-1z M50,104h1v1h-1z M51,104h1v1h-1z M52,104h1v1h-1z M53,104h1v1h-1z M54,104h1v1h-1z M55,104h1v1h-1z M56,104h1v1h-1z M59,104h1v1h-1z M60,104h1v1h-1z M66,104h1v1h-1z M67,104h1v1h-1z M68,104h1v1h-1z M69,104h1v1h-1z M70,104h1v1h-1z M72,104h1v1h-1z M75,104h1v1h-1z M76,104h1v1h-1z M77,104h1v1h-1z M78,104h1v1h-1z M79,104h1v1h-1z M80,104h1v1h-1z M81,104h1v1h-1z M82,104h1v1h-1z M87,104h1v1h-1z M93,104h1v1h-1z M94,104h1v1h-1z M95,104h1v1h-1z M96,104h1v1h-1z M100,104h1v1h-1z M101,104h1v1h-1z M102,104h1v1h-1z M103,104h1v1h-1z M104,104h1v1h-1z M105,104h1v1h-1z M107,104h1v1h-1z M4,105h1v1h-1z M6,105h1v1h-1z M7,105h1v1h-1z M8,105h1v1h-1z M10,105h1v1h-1z M13,105h1v1h-1z M15,105h1v1h-1z M16,105h1v1h-1z M18,105h1v1h-1z M19,105h1v1h-1z M22,105h1v1h-1z M23,105h1v1h-1z M24,105h1v1h-1z M27,105h1v1h-1z M28,105h1v1h-1z M30,105h1v1h-1z M34,105h1v1h-1z M35,105h1v1h-1z M36,105h1v1h-1z M40,105h1v1h-1z M43,105h1v1h-1z M44,105h1v1h-1z M45,105h1v1h-1z M46,105h1v1h-1z M49,105h1v1h-1z M53,105h1v1h-1z M54,105h1v1h-1z M57,105h1v1h-1z M58,105h1v1h-1z M59,105h1v1h-1z M60,105h1v1h-1z M63,105h1v1h-1z M66,105h1v1h-1z M71,105h1v1h-1z M72,105h1v1h-1z M74,105h1v1h-1z M75,105h1v1h-1z M78,105h1v1h-1z M79,105h1v1h-1z M80,105h1v1h-1z M81,105h1v1h-1z M83,105h1v1h-1z M84,105h1v1h-1z M85,105h1v1h-1z M87,105h1v1h-1z M93,105h1v1h-1z M94,105h1v1h-1z M96,105h1v1h-1z M98,105h1v1h-1z M103,105h1v1h-1z M104,105h1v1h-1z M106,105h1v1h-1z M107,105h1v1h-1z M108,105h1v1h-1z M4,106h1v1h-1z M6,106h1v1h-1z M7,106h1v1h-1z M8,106h1v1h-1z M10,106h1v1h-1z M18,106h1v1h-1z M20,106h1v1h-1z M21,106h1v1h-1z M28,106h1v1h-1z M29,106h1v1h-1z M31,106h1v1h-1z M35,106h1v1h-1z M36,106h1v1h-1z M37,106h1v1h-1z M38,106h1v1h-1z M39,106h1v1h-1z M40,106h1v1h-1z M41,106h1v1h-1z M44,106h1v1h-1z M45,106h1v1h-1z M48,106h1v1h-1z M50,106h1v1h-1z M53,106h1v1h-1z M55,106h1v1h-1z M60,106h1v1h-1z M62,106h1v1h-1z M65,106h1v1h-1z M71,106h1v1h-1z M72,106h1v1h-1z M73,106h1v1h-1z M74,106h1v1h-1z M76,106h1v1h-1z M77,106h1v1h-1z M79,106h1v1h-1z M86,106h1v1h-1z M88,106h1v1h-1z M89,106h1v1h-1z M91,106h1v1h-1z M96,106h1v1h-1z M98,106h1v1h-1z M101,106h1v1h-1z M102,106h1v1h-1z M104,106h1v1h-1z M105,106h1v1h-1z M4,107h1v1h-1z M10,107h1v1h-1z M12,107h1v1h-1z M17,107h1v1h-1z M20,107h1v1h-1z M23,107h1v1h-1z M24,107h1v1h-1z M27,107h1v1h-1z M30,107h1v1h-1z M32,107h1v1h-1z M35,107h1v1h-1z M41,107h1v1h-1z M42,107h1v1h-1z M44,107h1v1h-1z M46,107h1v1h-1z M47,107h1v1h-1z M49,107h1v1h-1z M56,107h1v1h-1z M57,107h1v1h-1z M58,107h1v1h-1z M59,107h1v1h-1z M61,107h1v1h-1z M62,107h1v1h-1z M65,107h1v1h-1z M66,107h1v1h-1z M67,107h1v1h-1z M68,107h1v1h-1z M69,107h1v1h-1z M77,107h1v1h-1z M80,107h1v1h-1z M83,107h1v1h-1z M85,107h1v1h-1z M86,107h1v1h-1z M89,107h1v1h-1z M90,107h1v1h-1z M92,107h1v1h-1z M95,107h1v1h-1z M97,107h1v1h-1z M98,107h1v1h-1z M99,107h1v1h-1z M101,107h1v1h-1z M105,107h1v1h-1z M4,108h1v1h-1z M5,108h1v1h-1z M6,108h1v1h-1z M7,108h1v1h-1z M8,108h1v1h-1z M9,108h1v1h-1z M10,108h1v1h-1z M12,108h1v1h-1z M14,108h1v1h-1z M17,108h1v1h-1z M18,108h1v1h-1z M19,108h1v1h-1z M20,108h1v1h-1z M22,108h1v1h-1z M25,108h1v1h-1z M26,108h1v1h-1z M27,108h1v1h-1z M28,108h1v1h-1z M29,108h1v1h-1z M30,108h1v1h-1z M31,108h1v1h-1z M33,108h1v1h-1z M35,108h1v1h-1z M41,108h1v1h-1z M42,108h1v1h-1z M44,108h1v1h-1z M45,108h1v1h-1z M46,108h1v1h-1z M47,108h1v1h-1z M49,108h1v1h-1z M52,108h1v1h-1z M54,108h1v1h-1z M57,108h1v1h-1z M61,108h1v1h-1z M64,108h1v1h-1z M65,108h1v1h-1z M66,108h1v1h-1z M69,108h1v1h-1z M70,108h1v1h-1z M72,108h1v1h-1z M73,108h1v1h-1z M77,108h1v1h-1z M78,108h1v1h-1z M79,108h1v1h-1z M82,108h1v1h-1z M83,108h1v1h-1z M84,108h1v1h-1z M85,108h1v1h-1z M90,108h1v1h-1z M91,108h1v1h-1z M94,108h1v1h-1z M95,108h1v1h-1z M96,108h1v1h-1z M99,108h1v1h-1z M100,108h1v1h-1z M101,108h1v1h-1z M102,108h1v1h-1z M103,108h1v1h-1z M104,108h1v1h-1z M105,108h1v1h-1z M108,108h1v1h-1z" fill="#000000"/>
</svg>
