<?xml version="1.0" encoding="UTF-8"?>
<!DOCTYPE svg PUBLIC "-//W3C//DTD SVG 1.1//EN" "http://www.w3.org/Graphics/SVG/1.1/DTD/svg11.dtd">
<svg xmlns="http://www.w3.org/2000/svg" version="1.1" viewBox="0 0 113 113" stroke="none">
	<rect width="100%" height="100%" fill="#FFFFFF"/>
	<path d="M4,4h1v1h-1z M5,4h1v1h-1z M6,4h1v1h-1z M7,4h1v1h-1z M8,4h1v1h-1z M9,4h1v1h-1z M10,4h1v1h-1z M12,4h1v1h-1z M15,4h1v1h-1z M16,4h1v1h-1z M18,4h1v1h-1z M19,4h1v1h-1z M21,4h1v1h-1z M22,4h1v1h-1z M23,4h1v1h-1z M26,4h1v1h-1z M27,4h1v1h-1z M29,4h1v1h-1z M30,4h1v1h-1z M31,4h1v1h-1z M32,4h1v1h-1z M36,4h1v1h-1z M38,4h1v1h-1z M40,4h1v1h-1z M42,4h1v1h-1z M45,4h1v1h-1z M48,4h1v1h-1z M49,4h1v1h-1z M53,4h1v1h-1z M55,4h1v1h-1z M57,4h1v1h-1z M60,4h1v1h-1z M61,4h1v1h-1z M62,4h1v1h-1z M66,4h1v1h-1z M68,4h1v1h-1z M69,4h1v1h-1z M71,4h1v1h-1z M73,4h1v1h-1z M74,4h1v1h-1z M77,4h1v1h-1z M78,4h1v1h-1z M79,4h1v1h-1z M81,4h1v1h-1z M82,4h1v1h-1z M83,4h1v1h-1z M84,4h1v1h-1z M85,4h1v1h-1z M88,4h1v1h-1z M90,4h1v1h-1z M91,4h1v1h-1z M92,4h1v1h-1z M93,4h1v1h-1z M94,4h1v1h-1z M96,4h1v1h-1z M97,4h1v1h-1z M98,4h1v1h-1z M102,4h1v1h-1z M103,4h1v1h-1z M104,4h1v1h-1z M105,4h1v1h-1z M106,4h1v1h-1z M107,4h1v1h-1z M108,4h1v1h-1z M4,5h1v1h-1z M10,5h1v1h-1z M12,5h1v1h-1z M13,5h1v1h-1z M14,5h1v1h-1z M15,5h1v1h-1z M16,5h1v1h-1z M17,5h1v1h-1z M18,5h1v1h-1z M20,5h1v1h-1z M21,5h1v1h-1z M22,5h1v1h-1z M23,5h1v1h-1z M24,5h1v1h-1z M29,5h1v1h-1z M30,5h1v1h-1z M32,5h1v1h-1z M34,5h1v1h-1z M35,5h1v1h-1z M36,5h1v1h-1z M37,5h1v1h-1z M39,5h1v1h-1z M42,5h1v1h-1z M43,5h1v1h-1z M44,5h1v1h-1z M45,5h1v1h-1z M46,5h1v1h-1z M47,5h1v1h-1z M48,5h1v1h-1z M49,5h1v1h-1z M51,5h1v1h-1z M54,5h1v1h-1z M57,5h1v1h-1z M58,5h1v1h-1z M60,5h1v1h-1z M61,5h1v1h-1z M63,5h1v1h-1z M64,5h1v1h-1z M66,5h1v1h-1z M67,5h1v1h-1z M68,5h1v1h-1z M69,5h1v1h-1z M70,5h1v1h-1z M71,5h1v1h-1z M72,5h1v1h-1z M73,5h1v1h-1z M75,5h1v1h-1z M76,5h1v1h-1z M78,5h1v1h-1z M81,5h1v1h-1z M82,5h1v1h-1z M83,5h1v1h-1z M84,5h1v1h-1z M85,5h1v1h-1z M87,5h1v1h-1z M90,5h1v1h-1z M93,5h1v1h-1z M94,5h1v1h-1z M95,5h1v1h-1z M97,5h1v1h-1z M98,5h1v1h-1z M102,5h1v1h-1z M108,5h1v1h-1z M4,6h1v1h-1z M6,6h1v1h-1z M7,6h1v1h-1z M8,6h1v1h-1z M10,6h1v1h-1z M12,6h1v1h-1z M14,6h1v1h-1z M15,6h1v1h-1z M16,6h1v1h-1z M17,6h1v1h-1z M18,6h1v1h-1z M21,6h1v1h-1z M22,6h1v1h-1z M25,6h1v1h-1z M26,6h1v1h-1z M29,6h1v1h-1z M30,6h1v1h-1z M32,6h1v1h-1z M34,6h1v1h-1z M35,6h1v1h-1z M37,6h1v1h-1z M39,6h1v1h-1z M42,6h1v1h-1z M44,6h1v1h-1z M46,6h1v1h-1z M47,6h1v1h-1z M49,6h1v1h-1z M51,6h1v1h-1z M54,6h1v1h-1z M56,6h1v1h-1z M57,6h1v1h-1z M58,6h1v1h-1z M59,6h1v1h-1z M62,6h1v1h-1z M65,6h1v1h-1z M66,6h1v1h-1z M67,6h1v1h-1z M68,6h1v1h-1z M69,6h1v1h-1z M71,6h1v1h-1z M73,6h1v1h-1z M78,6h1v1h-1z M80,6h1v1h-1z M81,6h1v1h-1z M83,6h1v1h-1z M86,6h1v1h-1z M87,6h1v1h-1z M92,6h1v1h-1z M93,6h1v1h-1z M95,6h1v1h-1z M97,6h1v1h-1z M98,6h1v1h-1z M99,6h1v1h-1z M102,6h1v1h-1z M104,6h1v1h-1z M105,6h1v1h-1z M106,6h1v1h-1z M108,6h1v1h-1z M4,7h1v1h-1z M6,7h1v1h-1z M7,7h1v1h-1z M8,7h1v1h-1z M10,7h1v1h-1z M12,7h1v1h-1z M16,7h1v1h-1z M17,7h1v1h-1z M26,7h1v1h-1z M27,7h1v1h-1z M30,7h1v1h-1z M31,7h1v1h-1z M33,7h1v1h-1z M34,7h1v1h-1z M35,7h1v1h-1z M38,7h1v1h-1z M40,7h1v1h-1z M44,7h1v1h-1z M45,7h1v1h-1z M46,7h1v1h-1z M47,7h1v1h-1z M48,7h1v1h-1z M49,7h1v1h-1z M50,7h1v1h-1z M51,7h1v1h-1z M53,7h1v1h-1z M57,7h1v1h-1z M61,7h1v1h-1z M63,7h1v1h-1z M64,7h1v1h-1z M66,7h1v1h-1z M69,7h1v1h-1z M71,7h1v1h-1z M74,7h1v1h-1z M77,7h1v1h-1z M79,7h1v1h-1z M80,7h1v1h-1z M81,7h1v1h-1z M89,7h1v1h-1z M90,7h1v1h-1z M91,7h1v1h-1z M92,7h1v1h-1z M95,7h1v1h-1z M96,7h1v1h-1z M97,7h1v1h-1z M100,7h1v1h-1z M102,7h1v1h-1z M104,7h1v1h-1z M105,7h1v1h-1z M106,7h1v1h-1z M108,7h1v1h-1z M4,8h1v1h-1z M6,8h1v1h-1z M7,8h1v1h-1z M8,8h1v1h-1z M10,8h1v1h-1z M20,8h1v1h-1z M22,8h1v1h-1z M25,8h1v1h-1z M28,8h1v1h-1z M29,8h1v1h-1z M30,8h1v1h-1z M31,8h1v1h-1z M32,8h1v1h-1z M34,8h1v1h-1z M35,8h1v1h-1z M36,8h1v1h-1z M38,8h1v1h-1z M39,8h1v1h-1z M40,8h1v1h-1z M41,8h1v1h-1z M42,8h1v1h-1z M44,8h1v1h-1z M46,8h1v1h-1z M48,8h1v1h-1z M49,8h1v1h-1z M50,8h1v1h-1z M51,8h1v1h-1z M52,8h1v1h-1z M53,8h1v1h-1z M54,8h1v1h-1z M55,8h1v1h-1z M56,8h1v1h-1z M57,8h1v1h-1z M59,8h1v1h-1z M63,8h1v1h-1z M64,8h1v1h-1z M66,8h1v1h-1z M69,8h1v1h-1z M71,8h1v1h-1z M72,8h1v1h-1z M73,8h1v1h-1z M74,8h1v1h-1z M76,8h1v1h-1z M77,8h1v1h-1z M78,8h1v1h-1z M79,8h1v1h-1z M80,8h1v1h-1z M82,8h1v1h-1z M83,8h1v1h-1z M85,8h1v1h-1z M86,8h1v1h-1z M90,8h1v1h-1z M92,8h1v1h-1z M93,8h1v1h-1z M94,8h1v1h-1z M95,8h1v1h-1z M99,8h1v1h-1z M100,8h1v1h-1z M102,8h1v1h-1z M104,8h1v1h-1z M105,8h1v1h-1z M106,8h1v1h-1z M108,8h1v1h-1z M4,9h1v1h-1z M10,9h1v1h-1z M12,9h1v1h-1z M13,9h1v1h-1z M16,9h1v1h-1z M21,9h1v1h-1z M28,9h1v1h-1z M32,9h1v1h-1z M33,9h1v1h-1z M34,9h1v1h-1z M35,9h1v1h-1z M37,9h1v1h-1z M39,9h1v1h-1z M40,9h1v1h-1z M42,9h1v1h-1z M43,9h1v1h-1z M45,9h1v1h-1z M46,9h1v1h-1z M48,9h1v1h-1z M52,9h1v1h-1z M56,9h1v1h-1z M57,9h1v1h-1z M58,9h1v1h-1z M61,9h1v1h-1z M63,9h1v1h-1z M66,9h1v1h-1z M69,9h1v1h-1z M70,9h1v1h-1z M71,9h1v1h-1z M73,9h1v1h-1z M75,9h1v1h-1z M76,9h1v1h-1z M80,9h1v1h-1z M81,9h1v1h-1z M82,9h1v1h-1z M87,9h1v1h-1z M88,9h1v1h-1z M89,9h1v1h-1z M90,9h1v1h-1z M91,9h1v1h-1z M92,9h1v1h-1z M94,9h1v1h-1z M97,9h1v1h-1z M99,9h1v1h-1z M102,9h1v1h-1z M108,9h1v1h-1z M4,10h1v1h-1z M5,10h1v1h-1z M6,10h1v1h-1z M7,10h1v1h-1z M8,10h1v1h-1z M9,10h1v1h-1z M10,10h1v1h-1z M12,10h1v1h-1z M14,10h1v1h-1z M16,10h1v1h-1z M18,10h1v1h-1z M20,10h1v1h-1z M22,10h1v1h-1z M24,10h1v1h-1z M26,10h1v1h-1z M28,10h1v1h-1z M30,10h1v1h-1z M32,10h1v1h-1z M34,10h1v1h-1z M36,10h1v1h-1z M38,10h1v1h-1z M40,10h1v1h-1z M42,10h1v1h-1z M44,10h1v1h-1z M46,10h1v1h-1z M48,10h1v1h-1z M50,10h1v1h-1z M52,10h1v1h-1z M54,10h1v1h-1z M56,10h1v1h-1z M58,10h1v1h-1z M60,10h1v1h-1z M62,10h1v1h-1z M64,10h1v1h-1z M66,10h1v1h-1z M68,10h1v1h-1z M70,10h1v1h-1z M72,10h1v1h-1z M74,10h1v1h-1z M76,10h1v1h-1z M78,10h1v1h-1z M80,10h1v1h-1z M82,10h1v1h-1z M84,10h1v1h-1z M86,10h1v1h-1z M88,10h1v1h-1z M90,10h1v1h-1z M92,10h1v1h-1z M94,10h1v1h-1z M96,10h1v1h-1z M98,10h1v1h-1z M100,10h1v1h-1z M102,10h1v1h-1z M103,10h1v1h-1z M104,10h1v1h-1z M105,10h1v1h-1z M106,10h1v1h-1z M107,10h1v1h-1z M108,10h1v1h-1z M14,11h1v1h-1z M15,11h1v1h-1z M16,11h1v1h-1z M20,11h1v1h-1z M22,11h1v1h-1z M27,11h1v1h-1z M28,11h1v1h-1z M32,11h1v1h-1z M34,11h1v1h-1z M35,11h1v1h-1z M38,11h1v1h-1z M41,11h1v1h-1z M44,11h1v1h-1z M45,11h1v1h-1z M47,11h1v1h-1z M49,11h1v1h-1z M52,11h1v1h-1z M56,11h1v1h-1z M62,11h1v1h-1z M65,11h1v1h-1z M68,11h1v1h-1z M70,11h1v1h-1z M71,11h1v1h-1z M73,11h1v1h-1z M74,11h1v1h-1z M76,11h1v1h-1z M80,11h1v1h-1z M81,11h1v1h-1z M89,11h1v1h-1z M90,11h1v1h-1z M92,11h1v1h-1z M93,11h1v1h-1z M94,11h1v1h-1z M95,11h1v1h-1z M98,11h1v1h-1z M99,11h1v1h-1z M4,12h1v1h-1z M5,12h1v1h-1z M8,12h1v1h-1z M9,12h1v1h-1z M10,12h1v1h-1z M13,12h1v1h-1z M16,12h1v1h-1z M17,12h1v1h-1z M18,12h1v1h-1z M20,12h1v1h-1z M24,12h1v1h-1z M28,12h1v1h-1z M29,12h1v1h-1z M30,12h1v1h-1z M31,12h1v1h-1z M32,12h1v1h-1z M34,12h1v1h-1z M37,12h1v1h-1z M39,12h1v1h-1z M41,12h1v1h-1z M44,12h1v1h-1z M51,12h1v1h-1z M52,12h1v1h-1z M53,12h1v1h-1z M54,12h1v1h-1z M55,12h1v1h-1z M56,12h1v1h-1z M58,12h1v1h-1z M59,12h1v1h-1z M60,12h1v1h-1z M62,12h1v1h-1z M63,12h1v1h-1z M64,12h1v1h-1z M66,12h1v1h-1z M69,12h1v1h-1z M70,12h1v1h-1z M75,12h1v1h-1z M76,12h1v1h-1z M77,12h1v1h-1z M78,12h1v1h-1z M79,12h1v1h-1z M80,12h1v1h-1z M82,12h1v1h-1z M83,12h1v1h-1z M87,12h1v1h-1z M89,12h1v1h-1z M92,12h1v1h-1z M93,12h1v1h-1z M94,12h1v1h-1z M96,12h1v1h-1z M99,12h1v1h-1z M100,12h1v1h-1z M103,12h1v1h-1z M105,12h1v1h-1z M106,12h1v1h-1z M107,12h1v1h-1z M108,12h1v1h-1z M4,13h1v1h-1z M5,13h1v1h-1z M6,13h1v1h-1z M7,13h1v1h-1z M9,13h1v1h-1z M12,13h1v1h-1z M14,13h1v1h-1z M15,13h1v1h-1z M16,13h1v1h-1z M19,13h1v1h-1z M23,13h1v1h-1z M25,13h1v1h-1z M26,13h1v1h-1z M27,13h1v1h-1z M28,13h1v1h-1z M30,13h1v1h-1z M31,13h1v1h-1z M33,13h1v1h-1z M34,13h1v1h-1z M35,13h1v1h-1z M36,13h1v1h-1z M37,13h1v1h-1z M38,13h1v1h-1z M39,13h1v1h-1z M43,13h1v1h-1z M44,13h1v1h-1z M45,13h1v1h-1z M46,13h1v1h-1z M47,13h1v1h-1z M51,13h1v1h-1z M52,13h1v1h-1z M54,13h1v1h-1z M60,13h1v1h-1z M65,13h1v1h-1z M69,13h1v1h-1z M72,13h1v1h-1z M74,13h1v1h-1z M76,13h1v1h-1z M77,13h1v1h-1z M80,13h1v1h-1z M81,13h1v1h-1z M84,13h1v1h-1z M87,13h1v1h-1z M88,13h1v1h-1z M90,13h1v1h-1z M94,13h1v1h-1z M95,13h1v1h-1z M96,13h1v1h-1z M97,13h1v1h-1z M98,13h1v1h-1z M100,13h1v1h-1z M5,14h1v1h-1z M6,14h1v1h-1z M7,14h1v1h-1z M8,14h1v1h-1z M9,14h1v1h-1z M10,14h1v1h-1z M12,14h1v1h-1z M13,14h1v1h-1z M14,14h1v1h-1z M17,14h1v1h-1z M18,14h1v1h-1z M20,14h1v1h-1z M21,14h1v1h-1z M22,14h1v1h-1z M24,14h1v1h-1z M26,14h1v1h-1z M27,14h1v1h-1z M31,14h1v1h-1z M32,14h1v1h-1z M36,14h1v1h-1z M37,14h1v1h-1z M38,14h1v1h-1z M39,14h1v1h-1z M40,14h1v1h-1z M43,14h1v1h-1z M44,14h1v1h-1z M45,14h1v1h-1z M48,14h1v1h-1z M50,14h1v1h-1z M55,14h1v1h-1z M60,14h1v1h-1z M62,14h1v1h-1z M65,14h1v1h-1z M68,14h1v1h-1z M71,14h1v1h-1z M74,14h1v1h-1z M77,14h1v1h-1z M84,14h1v1h-1z M86,14h1v1h-1z M87,14h1v1h-1z M88,14h1v1h-1z M89,14h1v1h-1z M91,14h1v1h-1z M95,14h1v1h-1z M96,14h1v1h-1z M97,14h1v1h-1z M98,14h1v1h-1z M100,14h1v1h-1z M101,14h1v1h-1z M102,14h1v1h-1z M104,14h1v1h-1z M107,14h1v1h-1z M6,15h1v1h-1z M7,15h1v1h-1z M9,15h1v1h-1z M14,15h1v1h-1z M17,15h1v1h-1z M18,15h1v1h-1z M19,15h1v1h-1z M24,15h1v1h-1z M25,15h1v1h-1z M28,15h1v1h-1z M29,15h1v1h-1z M30,15h1v1h-1z M32,15h1v1h-1z M34,15h1v1h-1z M35,15h1v1h-1z M42,15h1v1h-1z M44,15h1v1h-1z M46,15h1v1h-1z M47,15h1v1h-1z M49,15h1v1h-1z M50,15h1v1h-1z M51,15h1v1h-1z M52,15h1v1h-1z M53,15h1v1h-1z M54,15h1v1h-1z M56,15h1v1h-1z M57,15h1v1h-1z M58,15h1v1h-1z M59,15h1v1h-1z M61,15h1v1h-1z M62,15h1v1h-1z M65,15h1v1h-1z M66,15h1v1h-1z M68,15h1v1h-1z M69,15h1v1h-1z M71,15h1v1h-1z M74,15h1v1h-1z M78,15h1v1h-1z M80,15h1v1h-1z M81,15h1v1h-1z M82,15h1v1h-1z M83,15h1v1h-1z M85,15h1v1h-1z M87,15h1v1h-1z M91,15h1v1h-1z M92,15h1v1h-1z M93,15h1v1h-1z M94,15h1v1h-1z M95,15h1v1h-1z M100,15h1v1h-1z M103,15h1v1h-1z M108,15h1v1h-1z M8,16h1v1h-1z M9,16h1v1h-1z M10,16h1v1h-1z M11,16h1v1h-1z M13,16h1v1h-1z M15,16h1v1h-1z M16,16h1v1h-1z M19,16h1v1h-1z M21,16h1v1h-1z M22,16h1v1h-1z M23,16h1v1h-1z M29,16h1v1h-1z M31,16h1v1h-1z M33,16h1v1h-1z M34,16h1v1h-1z M35,16h1v1h-1z M36,16h1v1h-1z M39,16h1v1h-1z M41,16h1v1h-1z M42,16h1v1h-1z M46,16h1v1h-1z M47,16h1v1h-1z M49,16h1v1h-1z M51,16h1v1h-1z M52,16h1v1h-1z M53,16h1v1h-1z M54,16h1v1h-1z M55,16h1v1h-1z M59,16h1v1h-1z M60,16h1v1h-1z M63,16h1v1h-1z M69,16h1v1h-1z M70,16h1v1h-1z M71,16h1v1h-1z M73,16h1v1h-1z M74,16h1v1h-1z M78,16h1v1h-1z M79,16h1v1h-1z M82,16h1v1h-1z M87,16h1v1h-1z M88,16h1v1h-1z M89,16h1v1h-1z M90,16h1v1h-1z M92,16h1v1h-1z M93,16h1v1h-1z M94,16h1v1h-1z M99,16h1v1h-1z M100,16h1v1h-1z M104,16h1v1h-1z M107,16h1v1h-1z M108,16h1v1h-1z M4,17h1v1h-1z M7,17h1v1h-1z M11,17h1v1h-1z M12,17h1v1h-1z M15,17h1v1h-1z M18,17h1v1h-1z M19,17h1v1h-1z M20,17h1v1h-1z M22,17h1v1h-1z M24,17h1v1h-1z M25,17h1v1h-1z M26,17h1v1h-1z M27,17h1v1h-1z M28,17h1v1h-1z M32,17h1v1h-1z M35,17h1v1h-1z M38,17h1v1h-1z M40,17h1v1h-1z M43,17h1v1h-1z M48,17h1v1h-1z M51,17h1v1h-1z M52,17h1v1h-1z M53,17h1v1h-1z M57,17h1v1h-1z M60,17h1v1h-1z M62,17h1v1h-1z M65,17h1v1h-1z M66,17h1v1h-1z M67,17h1v1h-1z M69,17h1v1h-1z M70,17h1v1h-1z M71,17h1v1h-1z M72,17h1v1h-1z M75,17h1v1h-1z M76,17h1v1h-1z M77,17h1v1h-1z M79,17h1v1h-1z M81,17h1v1h-1z M83,17h1v1h-1z M85,17h1v1h-1z M88,17h1v1h-1z M90,17h1v1h-1z M94,17h1v1h-1z M98,17h1v1h-1z M99,17h1v1h-1z M101,17h1v1h-1z M105,17h1v1h-1z M106,17h1v1h-1z M107,17h1v1h-1z M108,17h1v1h-1z M4,18h1v1h-1z M5,18h1v1h-1z M6,18h1v1h-1z M7,18h1v1h-1z M8,18h1v1h-1z M10,18h1v1h-1z M13,18h1v1h-1z M16,18h1v1h-1z M18,18h1v1h-1z M24,18h1v1h-1z M25,18h1v1h-1z M26,18h1v1h-1z M27,18h1v1h-1z M29,18h1v1h-1z M37,18h1v1h-1z M38,18h1v1h-1z M39,18h1v1h-1z M40,18h1v1h-1z M41,18h1v1h-1z M43,18h1v1h-1z M45,18h1v1h-1z M47,18h1v1h-1z M48,18h1v1h-1z M50,18h1v1h-1z M52,18h1v1h-1z M55,18h1v1h-1z M59,18h1v1h-1z M62,18h1v1h-1z M64,18h1v1h-1z M65,18h1v1h-1z M68,18h1v1h-1z M72,18h1v1h-1z M74,18h1v1h-1z M77,18h1v1h-1z M81,18h1v1h-1z M83,18h1v1h-1z M86,18h1v1h-1z M87,18h1v1h-1z M89,18h1v1h-1z M95,18h1v1h-1z M96,18h1v1h-1z M98,18h1v1h-1z M102,18h1v1h-1z M104,18h1v1h-1z M105,18h1v1h-1z M107,18h1v1h-1z M4,19h1v1h-1z M6,19h1v1h-1z M7,19h1v1h-1z M11,19h1v1h-1z M16,19h1v1h-1z M19,19h1v1h-1z M20,19h1v1h-1z M21,19h1v1h-1z M24,19h1v1h-1z M25,19h1v1h-1z M31,19h1v1h-1z M32,19h1v1h-1z M35,19h1v1h-1z M41,19h1v1h-1z M44,19h1v1h-1z M46,19h1v1h-1z M49,19h1v1h-1z M50,19h1v1h-1z M53,19h1v1h-1z M54,19h1v1h-1z M56,19h1v1h-1z M57,19h1v1h-1z M59,19h1v1h-1z M62,19h1v1h-1z M66,19h1v1h-1z M68,19h1v1h-1z M71,19h1v1h-1z M73,19h1v1h-1z M76,19h1v1h-1z M80,19h1v1h-1z M82,19h1v1h-1z M83,19h1v1h-1z M86,19h1v1h-1z M89,19h1v1h-1z M91,19h1v1h-1z M92,19h1v1h-1z M97,19h1v1h-1z M98,19h1v1h-1z M101,19h1v1h-1z M104,19h1v1h-1z M107,19h1v1h-1z M4,20h1v1h-1z M7,20h1v1h-1z M8,20h1v1h-1z M9,20h1v1h-1z M10,20h1v1h-1z M12,20h1v1h-1z M13,20h1v1h-1z M21,20h1v1h-1z M22,20h1v1h-1z M26,20h1v1h-1z M27,20h1v1h-1z M29,20h1v1h-1z M31,20h1v1h-1z M32,20h1v1h-1z M33,20h1v1h-1z M35,20h1v1h-1z M36,20h1v1h-1z M39,20h1v1h-1z M40,20h1v1h-1z M42,20h1v1h-1z M43,20h1v1h-1z M44,20h1v1h-1z M46,20h1v1h-1z M49,20h1v1h-1z M53,20h1v1h-1z M55,20h1v1h-1z M57,20h1v1h-1z M60,20h1v1h-1z M63,20h1v1h-1z M64,20h1v1h-1z M65,20h1v1h-1z M68,20h1v1h-1z M71,20h1v1h-1z M72,20h1v1h-1z M73,20h1v1h-1z M75,20h1v1h-1z M77,20h1v1h-1z M82,20h1v1h-1z M83,20h1v1h-1z M84,20h1v1h-1z M86,20h1v1h-1z M88,20h1v1h-1z M89,20h1v1h-1z M90,20h1v1h-1z M94,20h1v1h-1z M96,20h1v1h-1z M99,20h1v1h-1z M100,20h1v1h-1z M102,20h1v1h-1z M103,20h1v1h-1z M104,20h1v1h-1z M105,20h1v1h-1z M106,20h1v1h-1z M107,20h1v1h-1z M9,21h1v1h-1z M11,21h1v1h-1z M15,21h1v1h-1z M19,21h1v1h-1z M21,21h1v1h-1z M23,21h1v1h-1z M28,21h1v1h-1z M31,21h1v1h-1z M34,21h1v1h-1z M35,21h1v1h-1z M37,21h1v1h-1z M38,21h1v1h-1z M40,21h1v1h-1z M41,21h1v1h-1z M44,21h1v1h-1z M48,21h1v1h-1z M51,21h1v1h-1z M52,21h1v1h-1z M57,21h1v1h-1z M59,21h1v1h-1z M60,21h1v1h-1z M61,21h1v1h-1z M63,21h1v1h-1z M64,21h1v1h-1z M65,21h1v1h-1z M66,21h1v1h-1z M71,21h1v1h-1z M73,21h1v1h-1z M74,21h1v1h-1z M76,21h1v1h-1z M77,21h1v1h-1z M78,21h1v1h-1z M80,21h1v1h-1z M83,21h1v1h-1z M84,21h1v1h-1z M85,21h1v1h-1z M86,21h1v1h-1z M90,21h1v1h-1z M94,21h1v1h-1z M96,21h1v1h-1z M97,21h1v1h-1z M99,21h1v1h-1z M101,21h1v1h-1z M103,21h1v1h-1z M106,21h1v1h-1z M4,22h1v1h-1z M6,22h1v1h-1z M7,22h1v1h-1z M8,22h1v1h-1z M9,22h1v1h-1z M10,22h1v1h-1z M11,22h1v1h-1z M12,22h1v1h-1z M18,22h1v1h-1z M21,22h1v1h-1z M22,22h1v1h-1z M24,22h1v1h-1z M25,22h1v1h-1z M26,22h1v1h-1z M32,22h1v1h-1z M36,22h1v1h-1z M38,22h1v1h-1z M41,22h1v1h-1z M43,22h1v1h-1z M47,22h1v1h-1z M49,22h1v1h-1z M50,22h1v1h-1z M53,22h1v1h-1z M61,22h1v1h-1z M62,22h1v1h-1z M64,22h1v1h-1z M65,22h1v1h-1z M67,22h1v1h-1z M68,22h1v1h-1z M69,22h1v1h-1z M74,22h1v1h-1z M76,22h1v1h-1z M77,22h1v1h-1z M79,22h1v1h-1z M83,22h1v1h-1z M84,22h1v1h-1z M86,22h1v1h-1z M87,22h1v1h-1z M88,22h1v1h-1z M89,22h1v1h-1z M95,22h1v1h-1z M96,22h1v1h-1z M98,22h1v1h-1z M99,22h1v1h-1z M104,22h1v1h-1z M106,22h1v1h-1z M107,22h1v1h-1z M5,23h1v1h-1z M9,23h1v1h-1z M12,23h1v1h-1z M14,23h1v1h-1z M16,23h1v1h-1z M17,23h1v1h-1z M18,23h1v1h-1z M19,23h1v1h-1z M21,23h1v1h-1z M22,23h1v1h-1z M23,23h1v1h-1z M24,23h1v1h-1z M27,23h1v1h-1z M29,23h1v1h-1z M30,23h1v1h-1z M32,23h1v1h-1z M33,23h1v1h-1z M35,23h1v1h-1z M37,23h1v1h-1z M44,23h1v1h-1z M47,23h1v1h-1z M55,23h1v1h-1z M56,23h1v1h-1z M57,23h1v1h-1z M58,23h1v1h-1z M59,23h1v1h-1z M65,23h1v1h-1z M68,23h1v1h-1z M70,23h1v1h-1z M71,23h1v1h-1z M74,23h1v1h-1z M75,23h1v1h-1z M76,23h1v1h-1z M77,23h1v1h-1z M80,23h1v1h-1z M81,23h1v1h-1z M83,23h1v1h-1z M85,23h1v1h-1z M86,23h1v1h-1z M87,23h1v1h-1z M89,23h1v1h-1z M91,23h1v1h-1z M92,23h1v1h-1z M93,23h1v1h-1z M97,23h1v1h-1z M98,23h1v1h-1z M101,23h1v1h-1z M103,23h1v1h-1z M107,23h1v1h-1z M4,24h1v1h-1z M5,24h1v1h-1z M6,24h1v1h-1z M7,24h1v1h-1z M8,24h1v1h-1z M9,24h1v1h-1z M10,24h1v1h-1z M11,24h1v1h-1z M12,24h1v1h-1z M14,24h1v1h-1z M15,24h1v1h-1z M19,24h1v1h-1z M20,24h1v1h-1z M21,24h1v1h-1z M23,24h1v1h-1z M24,24h1v1h-1z M25,24h1v1h-1z M26,24h1v1h-1z M30,24h1v1h-1z M32,24h1v1h-1z M33,24h1v1h-1z M40,24h1v1h-1z M42,24h1v1h-1z M43,24h1v1h-1z M46,24h1v1h-1z M48,24h1v1h-1z M49,24h1v1h-1z M50,24h1v1h-1z M51,24h1v1h-1z M53,24h1v1h-1z M54,24h1v1h-1z M55,24h1v1h-1z M59,24h1v1h-1z M61,24h1v1h-1z M64,24h1v1h-1z M65,24h1v1h-1z M66,24h1v1h-1z M70,24h1v1h-1z M75,24h1v1h-1z M77,24h1v1h-1z M78,24h1v1h-1z M79,24h1v1h-1z M82,24h1v1h-1z M86,24h1v1h-1z M87,24h1v1h-1z M88,24h1v1h-1z M90,24h1v1h-1z M91,24h1v1h-1z M92,24h1v1h-1z M95,24h1v1h-1z M96,24h1v1h-1z M99,24h1v1h-1z M100,24h1v1h-1z M106,24h1v1h-1z M108,24h1v1h-1z M4,25h1v1h-1z M9,25h1v1h-1z M11,25h1v1h-1z M15,25h1v1h-1z M16,25h1v1h-1z M17,25h1v1h-1z M18,25h1v1h-1z M20,25h1v1h-1z M21,25h1v1h-1z M22,25h1v1h-1z M23,25h1v1h-1z M24,25h1v1h-1z M27,25h1v1h-1z M28,25h1v1h-1z M30,25h1v1h-1z M31,25h1v1h-1z M34,25h1v1h-1z M35,25h1v1h-1z M36,25h1v1h-1z M37,25h1v1h-1z M39,25h1v1h-1z M42,25h1v1h-1z M44,25h1v1h-1z M46,25h1v1h-1z M48,25h1v1h-1z M49,25h1v1h-1z M50,25h1v1h-1z M52,25h1v1h-1z M53,25h1v1h-1z M56,25h1v1h-1z M60,25h1v1h-1z M61,25h1v1h-1z M63,25h1v1h-1z M64,25h1v1h-1z M65,25h1v1h-1z M67,25h1v1h-1z M71,25h1v1h-1z M74,25h1v1h-1z M76,25h1v1h-1z M77,25h1v1h-1z M80,25h1v1h-1z M82,25h1v1h-1z M83,25h1v1h-1z M84,25h1v1h-1z M85,25h1v1h-1z M86,25h1v1h-1z M87,25h1v1h-1z M88,25h1v1h-1z M89,25h1v1h-1z M90,25h1v1h-1z M93,25h1v1h-1z M94,25h1v1h-1z M95,25h1v1h-1z M97,25h1v1h-1z M98,25h1v1h-1z M101,25h1v1h-1z M102,25h1v1h-1z M105,25h1v1h-1z M106,25h1v1h-1z M108,25h1v1h-1z M8,26h1v1h-1z M9,26h1v1h-1z M10,26h1v1h-1z M12,26h1v1h-1z M13,26h1v1h-1z M14,26h1v1h-1z M16,26h1v1h-1z M17,26h1v1h-1z M18,26h1v1h-1z M22,26h1v1h-1z M23,26h1v1h-1z M24,26h1v1h-1z M26,26h1v1h-1z M27,26h1v1h-1z M28,26h1v1h-1z M29,26h1v1h-1z M31,26h1v1h-1z M35,26h1v1h-1z M37,26h1v1h-1z M38,26h1v1h-1z M39,26h1v1h-1z M41,26h1v1h-1z M43,26h1v1h-1z M44,26h1v1h-1z M50,26h1v1h-1z M56,26h1v1h-1z M62,26h1v1h-1z M63,26h1v1h-1z M64,26h1v1h-1z M65,26h1v1h-1z M67,26h1v1h-1z M68,26h1v1h-1z M71,26h1v1h-1z M74,26h1v1h-1z M76,26h1v1h-1z M77,26h1v1h-1z M79,26h1v1h-1z M81,26h1v1h-1z M84,26h1v1h-1z M86,26h1v1h-1z M87,26h1v1h-1z M89,26h1v1h-1z M95,26h1v1h-1z M98,26h1v1h-1z M100,26h1v1h-1z M102,26h1v1h-1z M104,26h1v1h-1z M107,26h1v1h-1z M6,27h1v1h-1z M11,27h1v1h-1z M13,27h1v1h-1z M14,27h1v1h-1z M17,27h1v1h-1z M19,27h1v1h-1z M20,27h1v1h-1z M21,27h1v1h-1z M22,27h1v1h-1z M23,27h1v1h-1z M24,27h1v1h-1z M25,27h1v1h-1z M29,27h1v1h-1z M30,27h1v1h-1z M32,27h1v1h-1z M33,27h1v1h-1z M35,27h1v1h-1z M44,27h1v1h-1z M45,27h1v1h-1z M47,27h1v1h-1z M49,27h1v1h-1z M51,27h1v1h-1z M53,27h1v1h-1z M54,27h1v1h-1z M56,27h1v1h-1z M57,27h1v1h-1z M58,27h1v1h-1z M59,27h1v1h-1z M61,27h1v1h-1z M62,27h1v1h-1z M68,27h1v1h-1z M69,27h1v1h-1z M71,27h1v1h-1z M73,27h1v1h-1z M74,27h1v1h-1z M75,27h1v1h-1z M80,27h1v1h-1z M82,27h1v1h-1z M83,27h1v1h-1z M89,27h1v1h-1z M90,27h1v1h-1z M92,27h1v1h-1z M93,27h1v1h-1z M94,27h1v1h-1z M95,27h1v1h-1z M98,27h1v1h-1z M103,27h1v1h-1z M104,27h1v1h-1z M107,27h1v1h-1z M4,28h1v1h-1z M5,28h1v1h-1z M6,28h1v1h-1z M8,28h1v1h-1z M9,28h1v1h-1z M10,28h1v1h-1z M11,28h1v1h-1z M12,28h1v1h-1z M17,28h1v1h-1z M18,28h1v1h-1z M21,28h1v1h-1z M22,28h1v1h-1z M24,28h1v1h-1z M25,28h1v1h-1z M27,28h1v1h-1z M28,28h1v1h-1z M29,28h1v1h-1z M30,28h1v1h-1z M31,28h1v1h-1z M32,28h1v1h-1z M35,28h1v1h-1z M36,28h1v1h-1z M38,28h1v1h-1z M39,28h1v1h-1z M40,28h1v1h-1z M41,28h1v1h-1z M42,28h1v1h-1z M43,28h1v1h-1z M44,28h1v1h-1z M45,28h1v1h-1z M47,28h1v1h-1z M50,28h1v1h-1z M51,28h1v1h-1z M52,28h1v1h-1z M53,28h1v1h-1z M54,28h1v1h-1z M55,28h1v1h-1z M56,28h1v1h-1z M60,28h1v1h-1z M61,28h1v1h-1z M65,28h1v1h-1z M66,28h1v1h-1z M67,28h1v1h-1z M68,28h1v1h-1z M71,28h1v1h-1z M72,28h1v1h-1z M74,28h1v1h-1z M76,28h1v1h-1z M77,28h1v1h-1z M78,28h1v1h-1z M79,28h1v1h-1z M80,28h1v1h-1z M84,28h1v1h-1z M85,28h1v1h-1z M86,28h1v1h-1z M88,28h1v1h-1z M89,28h1v1h-1z M91,28h1v1h-1z M92,28h1v1h-1z M94,28h1v1h-1z M96,28h1v1h-1z M98,28h1v1h-1z M99,28h1v1h-1z M100,28h1v1h-1z M101,28h1v1h-1z M102,28h1v1h-1z M103,28h1v1h-1z M104,28h1v1h-1z M105,28h1v1h-1z M106,28h1v1h-1z M108,28h1v1h-1z M5,29h1v1h-1z M6,29h1v1h-1z M8,29h1v1h-1z M12,29h1v1h-1z M13,29h1v1h-1z M14,29h1v1h-1z M17,29h1v1h-1z M21,29h1v1h-1z M22,29h1v1h-1z M23,29h1v1h-1z M25,29h1v1h-1z M26,29h1v1h-1z M28,29h1v1h-1z M32,29h1v1h-1z M33,29h1v1h-1z M34,29h1v1h-1z M35,29h1v1h-1z M36,29h1v1h-1z M38,29h1v1h-1z M42,29h1v1h-1z M43,29h1v1h-1z M45,29h1v1h-1z M46,29h1v1h-1z M48,29h1v1h-1z M49,29h1v1h-1z M52,29h1v1h-1z M56,29h1v1h-1z M57,29h1v1h-1z M58,29h1v1h-1z M59,29h1v1h-1z M61,29h1v1h-1z M64,29h1v1h-1z M69,29h1v1h-1z M70,29h1v1h-1z M71,29h1v1h-1z M74,29h1v1h-1z M76,29h1v1h-1z M80,29h1v1h-1z M84,29h1v1h-1z M85,29h1v1h-1z M86,29h1v1h-1z M87,29h1v1h-1z M88,29h1v1h-1z M91,29h1v1h-1z M94,29h1v1h-1z M95,29h1v1h-1z M96,29h1v1h-1z M100,29h1v1h-1z M104,29h1v1h-1z M106,29h1v1h-1z M4,30h1v1h-1z M5,30h1v1h-1z M6,30h1v1h-1z M7,30h1v1h-1z M8,30h1v1h-1z M10,30h1v1h-1z M12,30h1v1h-1z M13,30h1v1h-1z M16,30h1v1h-1z M17,30h1v1h-1z M20,30h1v1h-1z M23,30h1v1h-1z M24,30h1v1h-1z M26,30h1v1h-1z M28,30h1v1h-1z M30,30h1v1h-1z M32,30h1v1h-1z M35,30h1v1h-1z M36,30h1v1h-1z M38,30h1v1h-1z M39,30h1v1h-1z M43,30h1v1h-1z M47,30h1v1h-1z M48,30h1v1h-1z M50,30h1v1h-1z M52,30h1v1h-1z M54,30h1v1h-1z M56,30h1v1h-1z M59,30h1v1h-1z M62,30h1v1h-1z M64,30h1v1h-1z M65,30h1v1h-1z M72,30h1v1h-1z M74,30h1v1h-1z M76,30h1v1h-1z M78,30h1v1h-1z M80,30h1v1h-1z M84,30h1v1h-1z M86,30h1v1h-1z M88,30h1v1h-1z M89,30h1v1h-1z M95,30h1v1h-1z M96,30h1v1h-1z M98,30h1v1h-1z M99,30h1v1h-1z M100,30h1v1h-1z M102,30h1v1h-1z M104,30h1v1h-1z M105,30h1v1h-1z M106,30h1v1h-1z M6,31h1v1h-1z M8,31h1v1h-1z M12,31h1v1h-1z M13,31h1v1h-1z M15,31h1v1h-1z M16,31h1v1h-1z M17,31h1v1h-1z M19,31h1v1h-1z M20,31h1v1h-1z M22,31h1v1h-1z M24,31h1v1h-1z M26,31h1v1h-1z M27,31h1v1h-1z M28,31h1v1h-1z M32,31h1v1h-1z M34,31h1v1h-1z M35,31h1v1h-1z M37,31h1v1h-1z M38,31h1v1h-1z M41,31h1v1h-1z M42,31h1v1h-1z M43,31h1v1h-1z M44,31h1v1h-1z M45,31h1v1h-1z M47,31h1v1h-1z M49,31h1v1h-1z M51,31h1v1h-1z M52,31h1v1h-1z M56,31h1v1h-1z M58,31h1v1h-1z M59,31h1v1h-1z M67,31h1v1h-1z M68,31h1v1h-1z M69,31h1v1h-1z M71,31h1v1h-1z M73,31h1v1h-1z M75,31h1v1h-1z M76,31h1v1h-1z M80,31h1v1h-1z M82,31h1v1h-1z M83,31h1v1h-1z M87,31h1v1h-1z M89,31h1v1h-1z M92,31h1v1h-1z M93,31h1v1h-1z M95,31h1v1h-1z M100,31h1v1h-1z M104,31h1v1h-1z M105,31h1v1h-1z M4,32h1v1h-1z M5,32h1v1h-1z M6,32h1v1h-1z M8,32h1v1h-1z M9,32h1v1h-1z M10,32h1v1h-1z M11,32h1v1h-1z M12,32h1v1h-1z M18,32h1v1h-1z M19,32h1v1h-1z M22,32h1v1h-1z M25,32h1v1h-1z M26,32h1v1h-1z M27,32h1v1h-1z M28,32h1v1h-1z M29,32h1v1h-1z M30,32h1v1h-1z M31,32h1v1h-1z M32,32h1v1h-1z M33,32h1v1h-1z M37,32h1v1h-1z M41,32h1v1h-1z M43,32h1v1h-1z M47,32h1v1h-1z M51,32h1v1h-1z M52,32h1v1h-1z M53,32h1v1h-1z M54,32h1v1h-1z M55,32h1v1h-1z M56,32h1v1h-1z M58,32h1v1h-1z M60,32h1v1h-1z M63,32h1v1h-1z M67,32h1v1h-1z M70,32h1v1h-1z M76,32h1v1h-1z M77,32h1v1h-1z M78,32h1v1h-1z M79,32h1v1h-1z M80,32h1v1h-1z M82,32h1v1h-1z M83,32h1v1h-1z M85,32h1v1h-1z M88,32h1v1h-1z M90,32h1v1h-1z M91,32h1v1h-1z M92,32h1v1h-1z M94,32h1v1h-1z M95,32h1v1h-1z M96,32h1v1h-1z M97,32h1v1h-1z M100,32h1v1h-1z M101,32h1v1h-1z M102,32h1v1h-1z M103,32h1v1h-1z M104,32h1v1h-1z M107,32h1v1h-1z M108,32h1v1h-1z M7,33h1v1h-1z M8,33h1v1h-1z M9,33h1v1h-1z M14,33h1v1h-1z M16,33h1v1h-1z M18,33h1v1h-1z M21,33h1v1h-1z M24,33h1v1h-1z M26,33h1v1h-1z M27,33h1v1h-1z M28,33h1v1h-1z M29,33h1v1h-1z M31,33h1v1h-1z M32,33h1v1h-1z M33,33h1v1h-1z M34,33h1v1h-1z M35,33h1v1h-1z M36,33h1v1h-1z M37,33h1v1h-1z M38,33h1v1h-1z M39,33h1v1h-1z M40,33h1v1h-1z M41,33h1v1h-1z M42,33h1v1h-1z M45,33h1v1h-1z M46,33h1v1h-1z M48,33h1v1h-1z M49,33h1v1h-1z M54,33h1v1h-1z M55,33h1v1h-1z M59,33h1v1h-1z M60,33h1v1h-1z M61,33h1v1h-1z M65,33h1v1h-1z M71,33h1v1h-1z M72,33h1v1h-1z M74,33h1v1h-1z M75,33h1v1h-1z M76,33h1v1h-1z M80,33h1v1h-1z M81,33h1v1h-1z M82,33h1v1h-1z M86,33h1v1h-1z M87,33h1v1h-1z M88,33h1v1h-1z M89,33h1v1h-1z M90,33h1v1h-1z M91,33h1v1h-1z M92,33h1v1h-1z M96,33h1v1h-1z M98,33h1v1h-1z M103,33h1v1h-1z M105,33h1v1h-1z M106,33h1v1h-1z M107,33h1v1h-1z M108,33h1v1h-1z M4,34h1v1h-1z M6,34h1v1h-1z M9,34h1v1h-1z M10,34h1v1h-1z M11,34h1v1h-1z M12,34h1v1h-1z M13,34h1v1h-1z M16,34h1v1h-1z M18,34h1v1h-1z M19,34h1v1h-1z M22,34h1v1h-1z M33,34h1v1h-1z M38,34h1v1h-1z M41,34h1v1h-1z M44,34h1v1h-1z M48,34h1v1h-1z M50,34h1v1h-1z M51,34h1v1h-1z M52,34h1v1h-1z M56,34h1v1h-1z M59,34h1v1h-1z M60,34h1v1h-1z M62,34h1v1h-1z M65,34h1v1h-1z M68,34h1v1h-1z M69,34h1v1h-1z M72,34h1v1h-1z M74,34h1v1h-1z M76,34h1v1h-1z M79,34h1v1h-1z M83,34h1v1h-1z M84,34h1v1h-1z M86,34h1v1h-1z M87,34h1v1h-1z M88,34h1v1h-1z M89,34h1v1h-1z M91,34h1v1h-1z M96,34h1v1h-1z M98,34h1v1h-1z M101,34h1v1h-1z M103,34h1v1h-1z M104,34h1v1h-1z M107,34h1v1h-1z M5,35h1v1h-1z M8,35h1v1h-1z M11,35h1v1h-1z M14,35h1v1h-1z M15,35h1v1h-1z M16,35h1v1h-1z M18,35h1v1h-1z M19,35h1v1h-1z M22,35h1v1h-1z M23,35h1v1h-1z M24,35h1v1h-1z M25,35h1v1h-1z M26,35h1v1h-1z M27,35h1v1h-1z M28,35h1v1h-1z M29,35h1v1h-1z M31,35h1v1h-1z M33,35h1v1h-1z M34,35h1v1h-1z M35,35h1v1h-1z M37,35h1v1h-1z M38,35h1v1h-1z M44,35h1v1h-1z M46,35h1v1h-1z M47,35h1v1h-1z M50,35h1v1h-1z M51,35h1v1h-1z M52,35h1v1h-1z M53,35h1v1h-1z M55,35h1v1h-1z M59,35h1v1h-1z M61,35h1v1h-1z M62,35h1v1h-1z M65,35h1v1h-1z M68,35h1v1h-1z M70,35h1v1h-1z M71,35h1v1h-1z M73,35h1v1h-1z M74,35h1v1h-1z M75,35h1v1h-1z M76,35h1v1h-1z M77,35h1v1h-1z M81,35h1v1h-1z M86,35h1v1h-1z M92,35h1v1h-1z M93,35h1v1h-1z M94,35h1v1h-1z M95,35h1v1h-1z M97,35h1v1h-1z M99,35h1v1h-1z M100,35h1v1h-1z M101,35h1v1h-1z M104,35h1v1h-1z M108,35h1v1h-1z M6,36h1v1h-1z M9,36h1v1h-1z M10,36h1v1h-1z M11,36h1v1h-1z M14,36h1v1h-1z M15,36h1v1h-1z M16,36h1v1h-1z M17,36h1v1h-1z M20,36h1v1h-1z M22,36h1v1h-1z M23,36h1v1h-1z M31,36h1v1h-1z M35,36h1v1h-1z M37,36h1v1h-1z M39,36h1v1h-1z M41,36h1v1h-1z M42,36h1v1h-1z M43,36h1v1h-1z M47,36h1v1h-1z M48,36h1v1h-1z M50,36h1v1h-1z M52,36h1v1h-1z M53,36h1v1h-1z M54,36h1v1h-1z M55,36h1v1h-1z M63,36h1v1h-1z M65,36h1v1h-1z M67,36h1v1h-1z M68,36h1v1h-1z M69,36h1v1h-1z M77,36h1v1h-1z M79,36h1v1h-1z M81,36h1v1h-1z M82,36h1v1h-1z M87,36h1v1h-1z M88,36h1v1h-1z M90,36h1v1h-1z M93,36h1v1h-1z M95,36h1v1h-1z M96,36h1v1h-1z M99,36h1v1h-1z M100,36h1v1h-1z M102,36h1v1h-1z M103,36h1v1h-1z M104,36h1v1h-1z M106,36h1v1h-1z M107,36h1v1h-1z M5,37h1v1h-1z M6,37h1v1h-1z M7,37h1v1h-1z M9,37h1v1h-1z M15,37h1v1h-1z M18,37h1v1h-1z M19,37h1v1h-1z M23,37h1v1h-1z M25,37h1v1h-1z M30,37h1v1h-1z M31,37h1v1h-1z M33,37h1v1h-1z M36,37h1v1h-1z M38,37h1v1h-1z M40,37h1v1h-1z M41,37h1v1h-1z M42,37h1v1h-1z M44,37h1v1h-1z M45,37h1v1h-1z M46,37h1v1h-1z M48,37h1v1h-1z M49,37h1v1h-1z M51,37h1v1h-1z M53,37h1v1h-1z M55,37h1v1h-1z M56,37h1v1h-1z M58,37h1v1h-1z M59,37h1v1h-1z M62,37h1v1h-1z M63,37h1v1h-1z M64,37h1v1h-1z M66,37h1v1h-1z M67,37h1v1h-1z M69,37h1v1h-1z M70,37h1v1h-1z M72,37h1v1h-1z M75,37h1v1h-1z M76,37h1v1h-1z M77,37h1v1h-1z M78,37h1v1h-1z M80,37h1v1h-1z M83,37h1v1h-1z M84,37h1v1h-1z M90,37h1v1h-1z M91,37h1v1h-1z M93,37h1v1h-1z M94,37h1v1h-1z M96,37h1v1h-1z M97,37h1v1h-1z M101,37h1v1h-1z M102,37h1v1h-1z M106,37h1v1h-1z M6,38h1v1h-1z M9,38h1v1h-1z M10,38h1v1h-1z M11,38h1v1h-1z M12,38h1v1h-1z M14,38h1v1h-1z M15,38h1v1h-1z M17,38h1v1h-1z M21,38h1v1h-1z M22,38h1v1h-1z M23,38h1v1h-1z M24,38h1v1h-1z M25,38h1v1h-1z M26,38h1v1h-1z M28,38h1v1h-1z M30,38h1v1h-1z M31,38h1v1h-1z M35,38h1v1h-1z M36,38h1v1h-1z M38,38h1v1h-1z M41,38h1v1h-1z M44,38h1v1h-1z M45,38h1v1h-1z M47,38h1v1h-1z M50,38h1v1h-1z M51,38h1v1h-1z M52,38h1v1h-1z M56,38h1v1h-1z M59,38h1v1h-1z M60,38h1v1h-1z M62,38h1v1h-1z M63,38h1v1h-1z M64,38h1v1h-1z M65,38h1v1h-1z M67,38h1v1h-1z M68,38h1v1h-1z M72,38h1v1h-1z M74,38h1v1h-1z M75,38h1v1h-1z M76,38h1v1h-1z M79,38h1v1h-1z M83,38h1v1h-1z M86,38h1v1h-1z M89,38h1v1h-1z M91,38h1v1h-1z M95,38h1v1h-1z M96,38h1v1h-1z M97,38h1v1h-1z M98,38h1v1h-1z M99,38h1v1h-1z M100,38h1v1h-1z M101,38h1v1h-1z M102,38h1v1h-1z M104,38h1v1h-1z M105,38h1v1h-1z M5,39h1v1h-1z M6,39h1v1h-1z M11,39h1v1h-1z M15,39h1v1h-1z M16,39h1v1h-1z M18,39h1v1h-1z M19,39h1v1h-1z M21,39h1v1h-1z M22,39h1v1h-1z M23,39h1v1h-1z M25,39h1v1h-1z M26,39h1v1h-1z M31,39h1v1h-1z M33,39h1v1h-1z M35,39h1v1h-1z M37,39h1v1h-1z M38,39h1v1h-1z M41,39h1v1h-1z M42,39h1v1h-1z M44,39h1v1h-1z M46,39h1v1h-1z M47,39h1v1h-1z M49,39h1v1h-1z M50,39h1v1h-1z M53,39h1v1h-1z M58,39h1v1h-1z M63,39h1v1h-1z M68,39h1v1h-1z M70,39h1v1h-1z M76,39h1v1h-1z M77,39h1v1h-1z M81,39h1v1h-1z M82,39h1v1h-1z M83,39h1v1h-1z M85,39h1v1h-1z M90,39h1v1h-1z M92,39h1v1h-1z M93,39h1v1h-1z M94,39h1v1h-1z M95,39h1v1h-1z M99,39h1v1h-1z M100,39h1v1h-1z M104,39h1v1h-1z M4,40h1v1h-1z M6,40h1v1h-1z M8,40h1v1h-1z M10,40h1v1h-1z M11,40h1v1h-1z M13,40h1v1h-1z M14,40h1v1h-1z M16,40h1v1h-1z M17,40h1v1h-1z M18,40h1v1h-1z M20,40h1v1h-1z M21,40h1v1h-1z M22,40h1v1h-1z M24,40h1v1h-1z M25,40h1v1h-1z M31,40h1v1h-1z M33,40h1v1h-1z M34,40h1v1h-1z M35,40h1v1h-1z M36,40h1v1h-1z M37,40h1v1h-1z M38,40h1v1h-1z M39,40h1v1h-1z M42,40h1v1h-1z M43,40h1v1h-1z M46,40h1v1h-1z M47,40h1v1h-1z M48,40h1v1h-1z M50,40h1v1h-1z M52,40h1v1h-1z M53,40h1v1h-1z M57,40h1v1h-1z M61,40h1v1h-1z M63,40h1v1h-1z M64,40h1v1h-1z M65,40h1v1h-1z M67,40h1v1h-1z M69,40h1v1h-1z M73,40h1v1h-1z M74,40h1v1h-1z M76,40h1v1h-1z M77,40h1v1h-1z M78,40h1v1h-1z M79,40h1v1h-1z M86,40h1v1h-1z M88,40h1v1h-1z M89,40h1v1h-1z M92,40h1v1h-1z M93,40h1v1h-1z M95,40h1v1h-1z M96,40h1v1h-1z M97,40h1v1h-1z M102,40h1v1h-1z M108,40h1v1h-1z M9,41h1v1h-1z M12,41h1v1h-1z M14,41h1v1h-1z M15,41h1v1h-1z M16,41h1v1h-1z M18,41h1v1h-1z M21,41h1v1h-1z M26,41h1v1h-1z M27,41h1v1h-1z M31,41h1v1h-1z M33,41h1v1h-1z M34,41h1v1h-1z M36,41h1v1h-1z M39,41h1v1h-1z M40,41h1v1h-1z M42,41h1v1h-1z M46,41h1v1h-1z M47,41h1v1h-1z M48,41h1v1h-1z M51,41h1v1h-1z M52,41h1v1h-1z M53,41h1v1h-1z M56,41h1v1h-1z M59,41h1v1h-1z M60,41h1v1h-1z M61,41h1v1h-1z M62,41h1v1h-1z M63,41h1v1h-1z M64,41h1v1h-1z M65,41h1v1h-1z M66,41h1v1h-1z M67,41h1v1h-1z M72,41h1v1h-1z M77,41h1v1h-1z M79,41h1v1h-1z M80,41h1v1h-1z M81,41h1v1h-1z M83,41h1v1h-1z M84,41h1v1h-1z M85,41h1v1h-1z M87,41h1v1h-1z M89,41h1v1h-1z M92,41h1v1h-1z M93,41h1v1h-1z M96,41h1v1h-1z M97,41h1v1h-1z M98,41h1v1h-1z M100,41h1v1h-1z M101,41h1v1h-1z M102,41h1v1h-1z M103,41h1v1h-1z M105,41h1v1h-1z M108,41h1v1h-1z M10,42h1v1h-1z M13,42h1v1h-1z M16,42h1v1h-1z M17,42h1v1h-1z M21,42h1v1h-1z M22,42h1v1h-1z M23,42h1v1h-1z M24,42h1v1h-1z M25,42h1v1h-1z M29,42h1v1h-1z M30,42h1v1h-1z M31,42h1v1h-1z M32,42h1v1h-1z M36,42h1v1h-1z M38,42h1v1h-1z M41,42h1v1h-1z M43,42h1v1h-1z M45,42h1v1h-1z M50,42h1v1h-1z M52,42h1v1h-1z M53,42h1v1h-1z M54,42h1v1h-1z M55,42h1v1h-1z M57,42h1v1h-1z M59,42h1v1h-1z M60,42h1v1h-1z M62,42h1v1h-1z M63,42h1v1h-1z M65,42h1v1h-1z M67,42h1v1h-1z M74,42h1v1h-1z M75,42h1v1h-1z M81,42h1v1h-1z M83,42h1v1h-1z M86,42h1v1h-1z M88,42h1v1h-1z M89,42h1v1h-1z M91,42h1v1h-1z M92,42h1v1h-1z M96,42h1v1h-1z M98,42h1v1h-1z M99,42h1v1h-1z M100,42h1v1h-1z M102,42h1v1h-1z M105,42h1v1h-1z M107,42h1v1h-1z M4,43h1v1h-1z M5,43h1v1h-1z M7,43h1v1h-1z M8,43h1v1h-1z M14,43h1v1h-1z M17,43h1v1h-1z M19,43h1v1h-1z M21,43h1v1h-1z M22,43h1v1h-1z M23,43h1v1h-1z M29,43h1v1h-1z M34,43h1v1h-1z M35,43h1v1h-1z M37,43h1v1h-1z M41,43h1v1h-1z M42,43h1v1h-1z M44,43h1v1h-1z M46,43h1v1h-1z M47,43h1v1h-1z M49,43h1v1h-1z M50,43h1v1h-1z M51,43h1v1h-1z M52,43h1v1h-1z M56,43h1v1h-1z M58,43h1v1h-1z M59,43h1v1h-1z M62,43h1v1h-1z M68,43h1v1h-1z M69,43h1v1h-1z M70,43h1v1h-1z M71,43h1v1h-1z M73,43h1v1h-1z M75,43h1v1h-1z M76,43h1v1h-1z M77,43h1v1h-1z M81,43h1v1h-1z M82,43h1v1h-1z M83,43h1v1h-1z M87,43h1v1h-1z M92,43h1v1h-1z M94,43h1v1h-1z M95,43h1v1h-1z M99,43h1v1h-1z M100,43h1v1h-1z M102,43h1v1h-1z M104,43h1v1h-1z M107,43h1v1h-1z M108,43h1v1h-1z M6,44h1v1h-1z M9,44h1v1h-1z M10,44h1v1h-1z M15,44h1v1h-1z M16,44h1v1h-1z M17,44h1v1h-1z M18,44h1v1h-1z M21,44h1v1h-1z M23,44h1v1h-1z M24,44h1v1h-1z M25,44h1v1h-1z M28,44h1v1h-1z M30,44h1v1h-1z M33,44h1v1h-1z M34,44h1v1h-1z M36,44h1v1h-1z M39,44h1v1h-1z M40,44h1v1h-1z M42,44h1v1h-1z M43,44h1v1h-1z M44,44h1v1h-1z M46,44h1v1h-1z M47,44h1v1h-1z M50,44h1v1h-1z M52,44h1v1h-1z M53,44h1v1h-1z M55,44h1v1h-1z M58,44h1v1h-1z M60,44h1v1h-1z M65,44h1v1h-1z M66,44h1v1h-1z M67,44h1v1h-1z M70,44h1v1h-1z M71,44h1v1h-1z M73,44h1v1h-1z M74,44h1v1h-1z M78,44h1v1h-1z M81,44h1v1h-1z M82,44h1v1h-1z M83,44h1v1h-1z M84,44h1v1h-1z M88,44h1v1h-1z M90,44h1v1h-1z M92,44h1v1h-1z M95,44h1v1h-1z M97,44h1v1h-1z M100,44h1v1h-1z M102,44h1v1h-1z M103,44h1v1h-1z M104,44h1v1h-1z M106,44h1v1h-1z M107,44h1v1h-1z M108,44h1v1h-1z M4,45h1v1h-1z M6,45h1v1h-1z M8,45h1v1h-1z M9,45h1v1h-1z M14,45h1v1h-1z M15,45h1v1h-1z M16,45h1v1h-1z M17,45h1v1h-1z M18,45h1v1h-1z M19,45h1v1h-1z M21,45h1v1h-1z M29,45h1v1h-1z M30,45h1v1h-1z M31,45h1v1h-1z M34,45h1v1h-1z M35,45h1v1h-1z M37,45h1v1h-1z M38,45h1v1h-1z M41,45h1v1h-1z M47,45h1v1h-1z M48,45h1v1h-1z M49,45h1v1h-1z M50,45h1v1h-1z M51,45h1v1h-1z M52,45h1v1h-1z M54,45h1v1h-1z M56,45h1v1h-1z M57,45h1v1h-1z M58,45h1v1h-1z M60,45h1v1h-1z M62,45h1v1h-1z M63,45h1v1h-1z M64,45h1v1h-1z M65,45h1v1h-1z M67,45h1v1h-1z M68,45h1v1h-1z M69,45h1v1h-1z M70,45h1v1h-1z M71,45h1v1h-1z M73,45h1v1h-1z M75,45h1v1h-1z M76,45h1v1h-1z M77,45h1v1h-1z M82,45h1v1h-1z M83,45h1v1h-1z M86,45h1v1h-1z M88,45h1v1h-1z M89,45h1v1h-1z M90,45h1v1h-1z M91,45h1v1h-1z M93,45h1v1h-1z M95,45h1v1h-1z M97,45h1v1h-1z M99,45h1v1h-1z M100,45h1v1h-1z M101,45h1v1h-1z M102,45h1v1h-1z M107,45h1v1h-1z M4,46h1v1h-1z M5,46h1v1h-1z M8,46h1v1h-1z M9,46h1v1h-1z M10,46h1v1h-1z M12,46h1v1h-1z M13,46h1v1h-1z M14,46h1v1h-1z M15,46h1v1h-1z M16,46h1v1h-1z M22,46h1v1h-1z M25,46h1v1h-1z M28,46h1v1h-1z M29,46h1v1h-1z M32,46h1v1h-1z M38,46h1v1h-1z M39,46h1v1h-1z M43,46h1v1h-1z M50,46h1v1h-1z M51,46h1v1h-1z M53,46h1v1h-1z M54,46h1v1h-1z M57,46h1v1h-1z M59,46h1v1h-1z M60,46h1v1h-1z M62,46h1v1h-1z M63,46h1v1h-1z M65,46h1v1h-1z M69,46h1v1h-1z M72,46h1v1h-1z M73,46h1v1h-1z M74,46h1v1h-1z M76,46h1v1h-1z M77,46h1v1h-1z M78,46h1v1h-1z M80,46h1v1h-1z M83,46h1v1h-1z M84,46h1v1h-1z M86,46h1v1h-1z M87,46h1v1h-1z M89,46h1v1h-1z M91,46h1v1h-1z M95,46h1v1h-1z M96,46h1v1h-1z M98,46h1v1h-1z M99,46h1v1h-1z M100,46h1v1h-1z M101,46h1v1h-1z M103,46h1v1h-1z M104,46h1v1h-1z M107,46h1v1h-1z M4,47h1v1h-1z M5,47h1v1h-1z M6,47h1v1h-1z M7,47h1v1h-1z M8,47h1v1h-1z M11,47h1v1h-1z M16,47h1v1h-1z M17,47h1v1h-1z M18,47h1v1h-1z M19,47h1v1h-1z M20,47h1v1h-1z M22,47h1v1h-1z M23,47h1v1h-1z M24,47h1v1h-1z M25,47h1v1h-1z M26,47h1v1h-1z M28,47h1v1h-1z M29,47h1v1h-1z M31,47h1v1h-1z M32,47h1v1h-1z M35,47h1v1h-1z M37,47h1v1h-1z M38,47h1v1h-1z M42,47h1v1h-1z M44,47h1v1h-1z M45,47h1v1h-1z M46,47h1v1h-1z M47,47h1v1h-1z M51,47h1v1h-1z M52,47h1v1h-1z M53,47h1v1h-1z M56,47h1v1h-1z M58,47h1v1h-1z M59,47h1v1h-1z M61,47h1v1h-1z M62,47h1v1h-1z M67,47h1v1h-1z M68,47h1v1h-1z M69,47h1v1h-1z M70,47h1v1h-1z M71,47h1v1h-1z M77,47h1v1h-1z M79,47h1v1h-1z M80,47h1v1h-1z M81,47h1v1h-1z M82,47h1v1h-1z M83,47h1v1h-1z M86,47h1v1h-1z M92,47h1v1h-1z M93,47h1v1h-1z M95,47h1v1h-1z M97,47h1v1h-1z M99,47h1v1h-1z M100,47h1v1h-1z M101,47h1v1h-1z M104,47h1v1h-1z M107,47h1v1h-1z M10,48h1v1h-1z M11,48h1v1h-1z M12,48h1v1h-1z M13,48h1v1h-1z M15,48h1v1h-1z M16,48h1v1h-1z M17,48h1v1h-1z M18,48h1v1h-1z M19,48h1v1h-1z M20,48h1v1h-1z M21,48h1v1h-1z M24,48h1v1h-1z M25,48h1v1h-1z M26,48h1v1h-1z M28,48h1v1h-1z M29,48h1v1h-1z M31,48h1v1h-1z M34,48h1v1h-1z M35,48h1v1h-1z M36,48h1v1h-1z M39,48h1v1h-1z M40,48h1v1h-1z M43,48h1v1h-1z M44,48h1v1h-1z M45,48h1v1h-1z M46,48h1v1h-1z M47,48h1v1h-1z M48,48h1v1h-1z M50,48h1v1h-1z M53,48h1v1h-1z M55,48h1v1h-1z M58,48h1v1h-1z M59,48h1v1h-1z M61,48h1v1h-1z M63,48h1v1h-1z M66,48h1v1h-1z M69,48h1v1h-1z M76,48h1v1h-1z M79,48h1v1h-1z M81,48h1v1h-1z M82,48h1v1h-1z M83,48h1v1h-1z M85,48h1v1h-1z M87,48h1v1h-1z M88,48h1v1h-1z M89,48h1v1h-1z M91,48h1v1h-1z M92,48h1v1h-1z M95,48h1v1h-1z M97,48h1v1h-1z M99,48h1v1h-1z M100,48h1v1h-1z M102,48h1v1h-1z M105,48h1v1h-1z M107,48h1v1h-1z M108,48h1v1h-1z M5,49h1v1h-1z M6,49h1v1h-1z M8,49h1v1h-1z M9,49h1v1h-1z M18,49h1v1h-1z M19,49h1v1h-1z M22,49h1v1h-1z M23,49h1v1h-1z M24,49h1v1h-1z M29,49h1v1h-1z M30,49h1v1h-1z M32,49h1v1h-1z M35,49h1v1h-1z M40,49h1v1h-1z M43,49h1v1h-1z M44,49h1v1h-1z M45,49h1v1h-1z M46,49h1v1h-1z M48,49h1v1h-1z M49,49h1v1h-1z M50,49h1v1h-1z M52,49h1v1h-1z M53,49h1v1h-1z M55,49h1v1h-1z M57,49h1v1h-1z M58,49h1v1h-1z M59,49h1v1h-1z M60,49h1v1h-1z M62,49h1v1h-1z M65,49h1v1h-1z M66,49h1v1h-1z M68,49h1v1h-1z M69,49h1v1h-1z M70,49h1v1h-1z M71,49h1v1h-1z M72,49h1v1h-1z M73,49h1v1h-1z M74,49h1v1h-1z M77,49h1v1h-1z M79,49h1v1h-1z M81,49h1v1h-1z M82,49h1v1h-1z M83,49h1v1h-1z M84,49h1v1h-1z M87,49h1v1h-1z M88,49h1v1h-1z M89,49h1v1h-1z M90,49h1v1h-1z M91,49h1v1h-1z M93,49h1v1h-1z M95,49h1v1h-1z M97,49h1v1h-1z M99,49h1v1h-1z M100,49h1v1h-1z M101,49h1v1h-1z M104,49h1v1h-1z M105,49h1v1h-1z M107,49h1v1h-1z M108,49h1v1h-1z M4,50h1v1h-1z M5,50h1v1h-1z M6,50h1v1h-1z M7,50h1v1h-1z M8,50h1v1h-1z M9,50h1v1h-1z M10,50h1v1h-1z M11,50h1v1h-1z M14,50h1v1h-1z M16,50h1v1h-1z M19,50h1v1h-1z M21,50h1v1h-1z M22,50h1v1h-1z M29,50h1v1h-1z M30,50h1v1h-1z M31,50h1v1h-1z M36,50h1v1h-1z M38,50h1v1h-1z M39,50h1v1h-1z M41,50h1v1h-1z M43,50h1v1h-1z M44,50h1v1h-1z M47,50h1v1h-1z M50,50h1v1h-1z M52,50h1v1h-1z M53,50h1v1h-1z M54,50h1v1h-1z M55,50h1v1h-1z M56,50h1v1h-1z M59,50h1v1h-1z M60,50h1v1h-1z M62,50h1v1h-1z M63,50h1v1h-1z M65,50h1v1h-1z M69,50h1v1h-1z M72,50h1v1h-1z M74,50h1v1h-1z M75,50h1v1h-1z M79,50h1v1h-1z M80,50h1v1h-1z M84,50h1v1h-1z M86,50h1v1h-1z M89,50h1v1h-1z M98,50h1v1h-1z M100,50h1v1h-1z M101,50h1v1h-1z M102,50h1v1h-1z M103,50h1v1h-1z M104,50h1v1h-1z M107,50h1v1h-1z M5,51h1v1h-1z M13,51h1v1h-1z M16,51h1v1h-1z M17,51h1v1h-1z M18,51h1v1h-1z M19,51h1v1h-1z M21,51h1v1h-1z M25,51h1v1h-1z M26,51h1v1h-1z M28,51h1v1h-1z M29,51h1v1h-1z M32,51h1v1h-1z M35,51h1v1h-1z M38,51h1v1h-1z M44,51h1v1h-1z M47,51h1v1h-1z M50,51h1v1h-1z M53,51h1v1h-1z M57,51h1v1h-1z M58,51h1v1h-1z M59,51h1v1h-1z M62,51h1v1h-1z M65,51h1v1h-1z M68,51h1v1h-1z M70,51h1v1h-1z M71,51h1v1h-1z M73,51h1v1h-1z M74,51h1v1h-1z M76,51h1v1h-1z M77,51h1v1h-1z M80,51h1v1h-1z M81,51h1v1h-1z M82,51h1v1h-1z M90,51h1v1h-1z M91,51h1v1h-1z M92,51h1v1h-1z M93,51h1v1h-1z M95,51h1v1h-1z M97,51h1v1h-1z M99,51h1v1h-1z M100,51h1v1h-1z M102,51h1v1h-1z M104,51h1v1h-1z M107,51h1v1h-1z M4,52h1v1h-1z M8,52h1v1h-1z M9,52h1v1h-1z M10,52h1v1h-1z M11,52h1v1h-1z M12,52h1v1h-1z M14,52h1v1h-1z M17,52h1v1h-1z M20,52h1v1h-1z M22,52h1v1h-1z M28,52h1v1h-1z M29,52h1v1h-1z M30,52h1v1h-1z M31,52h1v1h-1z M32,52h1v1h-1z M35,52h1v1h-1z M39,52h1v1h-1z M42,52h1v1h-1z M43,52h1v1h-1z M44,52h1v1h-1z M46,52h1v1h-1z M47,52h1v1h-1z M49,52h1v1h-1z M52,52h1v1h-1z M53,52h1v1h-1z M54,52h1v1h-1z M55,52h1v1h-1z M56,52h1v1h-1z M59,52h1v1h-1z M60,52h1v1h-1z M65,52h1v1h-1z M66,52h1v1h-1z M70,52h1v1h-1z M71,52h1v1h-1z M74,52h1v1h-1z M76,52h1v1h-1z M77,52h1v1h-1z M78,52h1v1h-1z M79,52h1v1h-1z M80,52h1v1h-1z M82,52h1v1h-1z M83,52h1v1h-1z M85,52h1v1h-1z M88,52h1v1h-1z M89,52h1v1h-1z M90,52h1v1h-1z M91,52h1v1h-1z M92,52h1v1h-1z M94,52h1v1h-1z M97,52h1v1h-1z M98,52h1v1h-1z M99,52h1v1h-1z M100,52h1v1h-1z M101,52h1v1h-1z M102,52h1v1h-1z M103,52h1v1h-1z M104,52h1v1h-1z M105,52h1v1h-1z M107,52h1v1h-1z M108,52h1v1h-1z M5,53h1v1h-1z M7,53h1v1h-1z M8,53h1v1h-1z M12,53h1v1h-1z M14,53h1v1h-1z M15,53h1v1h-1z M16,53h1v1h-1z M18,53h1v1h-1z M20,53h1v1h-1z M21,53h1v1h-1z M28,53h1v1h-1z M32,53h1v1h-1z M33,53h1v1h-1z M34,53h1v1h-1z M36,53h1v1h-1z M40,53h1v1h-1z M41,53h1v1h-1z M44,53h1v1h-1z M47,53h1v1h-1z M48,53h1v1h-1z M49,53h1v1h-1z M52,53h1v1h-1z M56,53h1v1h-1z M58,53h1v1h-1z M59,53h1v1h-1z M61,53h1v1h-1z M62,53h1v1h-1z M64,53h1v1h-1z M66,53h1v1h-1z M68,53h1v1h-1z M69,53h1v1h-1z M71,53h1v1h-1z M72,53h1v1h-1z M74,53h1v1h-1z M75,53h1v1h-1z M76,53h1v1h-1z M80,53h1v1h-1z M81,53h1v1h-1z M82,53h1v1h-1z M83,53h1v1h-1z M84,53h1v1h-1z M85,53h1v1h-1z M86,53h1v1h-1z M89,53h1v1h-1z M94,53h1v1h-1z M95,53h1v1h-1z M97,53h1v1h-1z M98,53h1v1h-1z M100,53h1v1h-1z M104,53h1v1h-1z M105,53h1v1h-1z M106,53h1v1h-1z M107,53h1v1h-1z M108,53h1v1h-1z M5,54h1v1h-1z M8,54h1v1h-1z M10,54h1v1h-1z M12,54h1v1h-1z M14,54h1v1h-1z M16,54h1v1h-1z M17,54h1v1h-1z M23,54h1v1h-1z M24,54h1v1h-1z M25,54h1v1h-1z M26,54h1v1h-1z M27,54h1v1h-1z M28,54h1v1h-1z M30,54h1v1h-1z M32,54h1v1h-1z M35,54h1v1h-1z M36,54h1v1h-1z M37,54h1v1h-1z M38,54h1v1h-1z M39,54h1v1h-1z M40,54h1v1h-1z M41,54h1v1h-1z M43,54h1v1h-1z M47,54h1v1h-1z M50,54h1v1h-1z M52,54h1v1h-1z M54,54h1v1h-1z M56,54h1v1h-1z M59,54h1v1h-1z M60,54h1v1h-1z M61,54h1v1h-1z M62,54h1v1h-1z M63,54h1v1h-1z M64,54h1v1h-1z M65,54h1v1h-1z M71,54h1v1h-1z M72,54h1v1h-1z M74,54h1v1h-1z M75,54h1v1h-1z M76,54h1v1h-1z M78,54h1v1h-1z M80,54h1v1h-1z M83,54h1v1h-1z M84,54h1v1h-1z M86,54h1v1h-1z M88,54h1v1h-1z M95,54h1v1h-1z M98,54h1v1h-1z M99,54h1v1h-1z M100,54h1v1h-1z M102,54h1v1h-1z M104,54h1v1h-1z M105,54h1v1h-1z M107,54h1v1h-1z M5,55h1v1h-1z M7,55h1v1h-1z M8,55h1v1h-1z M12,55h1v1h-1z M13,55h1v1h-1z M18,55h1v1h-1z M24,55h1v1h-1z M25,55h1v1h-1z M28,55h1v1h-1z M32,55h1v1h-1z M33,55h1v1h-1z M34,55h1v1h-1z M41,55h1v1h-1z M44,55h1v1h-1z M45,55h1v1h-1z M47,55h1v1h-1z M51,55h1v1h-1z M52,55h1v1h-1z M56,55h1v1h-1z M57,55h1v1h-1z M58,55h1v1h-1z M68,55h1v1h-1z M69,55h1v1h-1z M70,55h1v1h-1z M73,55h1v1h-1z M75,55h1v1h-1z M76,55h1v1h-1z M80,55h1v1h-1z M83,55h1v1h-1z M85,55h1v1h-1z M90,55h1v1h-1z M91,55h1v1h-1z M92,55h1v1h-1z M93,55h1v1h-1z M95,55h1v1h-1z M97,55h1v1h-1z M98,55h1v1h-1z M100,55h1v1h-1z M104,55h1v1h-1z M107,55h1v1h-1z M108,55h1v1h-1z M5,56h1v1h-1z M6,56h1v1h-1z M7,56h1v1h-1z M8,56h1v1h-1z M9,56h1v1h-1z M10,56h1v1h-1z M11,56h1v1h-1z M12,56h1v1h-1z M13,56h1v1h-1z M15,56h1v1h-1z M16,56h1v1h-1z M17,56h1v1h-1z M18,56h1v1h-1z M19,56h1v1h-1z M20,56h1v1h-1z M23,56h1v1h-1z M25,56h1v1h-1z M26,56h1v1h-1z M28,56h1v1h-1z M29,56h1v1h-1z M30,56h1v1h-1z M31,56h1v1h-1z M32,56h1v1h-1z M34,56h1v1h-1z M36,56h1v1h-1z M37,56h1v1h-1z M39,56h1v1h-1z M40,56h1v1h-1z M42,56h1v1h-1z M43,56h1v1h-1z M45,56h1v1h-1z M46,56h1v1h-1z M47,56h1v1h-1z M48,56h1v1h-1z M50,56h1v1h-1z M51,56h1v1h-1z M52,56h1v1h-1z M53,56h1v1h-1z M54,56h1v1h-1z M55,56h1v1h-1z M56,56h1v1h-1z M57,56h1v1h-1z M59,56h1v1h-1z M61,56h1v1h-1z M65,56h1v1h-1z M66,56h1v1h-1z M68,56h1v1h-1z M69,56h1v1h-1z M70,56h1v1h-1z M71,56h1v1h-1z M74,56h1v1h-1z M76,56h1v1h-1z M77,56h1v1h-1z M78,56h1v1h-1z M79,56h1v1h-1z M80,56h1v1h-1z M81,56h1v1h-1z M82,56h1v1h-1z M83,56h1v1h-1z M85,56h1v1h-1z M87,56h1v1h-1z M90,56h1v1h-1z M94,56h1v1h-1z M95,56h1v1h-1z M98,56h1v1h-1z M100,56h1v1h-1z M101,56h1v1h-1z M102,56h1v1h-1z M103,56h1v1h-1z M104,56h1v1h-1z M105,56h1v1h-1z M107,56h1v1h-1z M7,57h1v1h-1z M9,57h1v1h-1z M12,57h1v1h-1z M13,57h1v1h-1z M14,57h1v1h-1z M16,57h1v1h-1z M18,57h1v1h-1z M19,57h1v1h-1z M21,57h1v1h-1z M23,57h1v1h-1z M24,57h1v1h-1z M27,57h1v1h-1z M31,57h1v1h-1z M35,57h1v1h-1z M39,57h1v1h-1z M40,57h1v1h-1z M47,57h1v1h-1z M51,57h1v1h-1z M52,57h1v1h-1z M54,57h1v1h-1z M57,57h1v1h-1z M58,57h1v1h-1z M59,57h1v1h-1z M60,57h1v1h-1z M64,57h1v1h-1z M65,57h1v1h-1z M66,57h1v1h-1z M68,57h1v1h-1z M69,57h1v1h-1z M71,57h1v1h-1z M72,57h1v1h-1z M74,57h1v1h-1z M76,57h1v1h-1z M77,57h1v1h-1z M78,57h1v1h-1z M79,57h1v1h-1z M81,57h1v1h-1z M83,57h1v1h-1z M86,57h1v1h-1z M88,57h1v1h-1z M92,57h1v1h-1z M95,57h1v1h-1z M96,57h1v1h-1z M97,57h1v1h-1z M99,57h1v1h-1z M100,57h1v1h-1z M102,57h1v1h-1z M103,57h1v1h-1z M105,57h1v1h-1z M106,57h1v1h-1z M108,57h1v1h-1z M8,58h1v1h-1z M9,58h1v1h-1z M10,58h1v1h-1z M11,58h1v1h-1z M15,58h1v1h-1z M16,58h1v1h-1z M20,58h1v1h-1z M22,58h1v1h-1z M24,58h1v1h-1z M25,58h1v1h-1z M29,58h1v1h-1z M31,58h1v1h-1z M36,58h1v1h-1z M38,58h1v1h-1z M39,58h1v1h-1z M41,58h1v1h-1z M47,58h1v1h-1z M50,58h1v1h-1z M56,58h1v1h-1z M60,58h1v1h-1z M62,58h1v1h-1z M64,58h1v1h-1z M65,58h1v1h-1z M68,58h1v1h-1z M72,58h1v1h-1z M74,58h1v1h-1z M77,58h1v1h-1z M83,58h1v1h-1z M86,58h1v1h-1z M88,58h1v1h-1z M89,58h1v1h-1z M92,58h1v1h-1z M96,58h1v1h-1z M98,58h1v1h-1z M100,58h1v1h-1z M101,58h1v1h-1z M102,58h1v1h-1z M103,58h1v1h-1z M105,58h1v1h-1z M107,58h1v1h-1z M4,59h1v1h-1z M6,59h1v1h-1z M9,59h1v1h-1z M11,59h1v1h-1z M13,59h1v1h-1z M15,59h1v1h-1z M18,59h1v1h-1z M20,59h1v1h-1z M24,59h1v1h-1z M25,59h1v1h-1z M27,59h1v1h-1z M30,59h1v1h-1z M31,59h1v1h-1z M32,59h1v1h-1z M34,59h1v1h-1z M35,59h1v1h-1z M44,59h1v1h-1z M45,59h1v1h-1z M46,59h1v1h-1z M47,59h1v1h-1z M52,59h1v1h-1z M53,59h1v1h-1z M55,59h1v1h-1z M59,59h1v1h-1z M61,59h1v1h-1z M62,59h1v1h-1z M63,59h1v1h-1z M65,59h1v1h-1z M66,59h1v1h-1z M68,59h1v1h-1z M69,59h1v1h-1z M70,59h1v1h-1z M71,59h1v1h-1z M73,59h1v1h-1z M75,59h1v1h-1z M77,59h1v1h-1z M78,59h1v1h-1z M81,59h1v1h-1z M82,59h1v1h-1z M83,59h1v1h-1z M85,59h1v1h-1z M92,59h1v1h-1z M95,59h1v1h-1z M98,59h1v1h-1z M99,59h1v1h-1z M101,59h1v1h-1z M104,59h1v1h-1z M5,60h1v1h-1z M7,60h1v1h-1z M8,60h1v1h-1z M9,60h1v1h-1z M10,60h1v1h-1z M12,60h1v1h-1z M19,60h1v1h-1z M20,60h1v1h-1z M21,60h1v1h-1z M23,60h1v1h-1z M24,60h1v1h-1z M25,60h1v1h-1z M30,60h1v1h-1z M31,60h1v1h-1z M32,60h1v1h-1z M33,60h1v1h-1z M36,60h1v1h-1z M37,60h1v1h-1z M39,60h1v1h-1z M40,60h1v1h-1z M41,60h1v1h-1z M43,60h1v1h-1z M46,60h1v1h-1z M48,60h1v1h-1z M49,60h1v1h-1z M52,60h1v1h-1z M54,60h1v1h-1z M55,60h1v1h-1z M56,60h1v1h-1z M59,60h1v1h-1z M61,60h1v1h-1z M64,60h1v1h-1z M66,60h1v1h-1z M70,60h1v1h-1z M71,60h1v1h-1z M73,60h1v1h-1z M76,60h1v1h-1z M77,60h1v1h-1z M78,60h1v1h-1z M82,60h1v1h-1z M83,60h1v1h-1z M85,60h1v1h-1z M87,60h1v1h-1z M89,60h1v1h-1z M90,60h1v1h-1z M92,60h1v1h-1z M94,60h1v1h-1z M97,60h1v1h-1z M99,60h1v1h-1z M100,60h1v1h-1z M102,60h1v1h-1z M103,60h1v1h-1z M105,60h1v1h-1z M106,60h1v1h-1z M107,60h1v1h-1z M108,60h1v1h-1z M4,61h1v1h-1z M5,61h1v1h-1z M8,61h1v1h-1z M9,61h1v1h-1z M12,61h1v1h-1z M13,61h1v1h-1z M14,61h1v1h-1z M16,61h1v1h-1z M17,61h1v1h-1z M22,61h1v1h-1z M24,61h1v1h-1z M25,61h1v1h-1z M27,61h1v1h-1z M29,61h1v1h-1z M35,61h1v1h-1z M36,61h1v1h-1z M38,61h1v1h-1z M39,61h1v1h-1z M40,61h1v1h-1z M42,61h1v1h-1z M44,61h1v1h-1z M49,61h1v1h-1z M50,61h1v1h-1z M52,61h1v1h-1z M53,61h1v1h-1z M54,61h1v1h-1z M55,61h1v1h-1z M59,61h1v1h-1z M60,61h1v1h-1z M62,61h1v1h-1z M63,61h1v1h-1z M64,61h1v1h-1z M65,61h1v1h-1z M69,61h1v1h-1z M70,61h1v1h-1z M71,61h1v1h-1z M72,61h1v1h-1z M73,61h1v1h-1z M74,61h1v1h-1z M77,61h1v1h-1z M79,61h1v1h-1z M82,61h1v1h-1z M83,61h1v1h-1z M84,61h1v1h-1z M91,61h1v1h-1z M93,61h1v1h-1z M95,61h1v1h-1z M97,61h1v1h-1z M98,61h1v1h-1z M99,61h1v1h-1z M100,61h1v1h-1z M102,61h1v1h-1z M103,61h1v1h-1z M105,61h1v1h-1z M106,61h1v1h-1z M108,61h1v1h-1z M4,62h1v1h-1z M5,62h1v1h-1z M10,62h1v1h-1z M11,62h1v1h-1z M14,62h1v1h-1z M15,62h1v1h-1z M16,62h1v1h-1z M17,62h1v1h-1z M18,62h1v1h-1z M19,62h1v1h-1z M22,62h1v1h-1z M24,62h1v1h-1z M27,62h1v1h-1z M30,62h1v1h-1z M31,62h1v1h-1z M33,62h1v1h-1z M35,62h1v1h-1z M36,62h1v1h-1z M38,62h1v1h-1z M40,62h1v1h-1z M41,62h1v1h-1z M44,62h1v1h-1z M47,62h1v1h-1z M48,62h1v1h-1z M49,62h1v1h-1z M50,62h1v1h-1z M53,62h1v1h-1z M56,62h1v1h-1z M59,62h1v1h-1z M60,62h1v1h-1z M62,62h1v1h-1z M64,62h1v1h-1z M67,62h1v1h-1z M68,62h1v1h-1z M69,62h1v1h-1z M72,62h1v1h-1z M73,62h1v1h-1z M74,62h1v1h-1z M75,62h1v1h-1z M77,62h1v1h-1z M79,62h1v1h-1z M84,62h1v1h-1z M86,62h1v1h-1z M89,62h1v1h-1z M92,62h1v1h-1z M95,62h1v1h-1z M96,62h1v1h-1z M98,62h1v1h-1z M101,62h1v1h-1z M104,62h1v1h-1z M105,62h1v1h-1z M106,62h1v1h-1z M107,62h1v1h-1z M4,63h1v1h-1z M8,63h1v1h-1z M9,63h1v1h-1z M14,63h1v1h-1z M18,63h1v1h-1z M20,63h1v1h-1z M22,63h1v1h-1z M23,63h1v1h-1z M25,63h1v1h-1z M26,63h1v1h-1z M27,63h1v1h-1z M31,63h1v1h-1z M32,63h1v1h-1z M34,63h1v1h-1z M35,63h1v1h-1z M37,63h1v1h-1z M39,63h1v1h-1z M42,63h1v1h-1z M44,63h1v1h-1z M45,63h1v1h-1z M46,63h1v1h-1z M51,63h1v1h-1z M53,63h1v1h-1z M54,63h1v1h-1z M55,63h1v1h-1z M59,63h1v1h-1z M62,63h1v1h-1z M65,63h1v1h-1z M66,63h1v1h-1z M68,63h1v1h-1z M70,63h1v1h-1z M71,63h1v1h-1z M73,63h1v1h-1z M79,63h1v1h-1z M82,63h1v1h-1z M83,63h1v1h-1z M86,63h1v1h-1z M92,63h1v1h-1z M93,63h1v1h-1z M94,63h1v1h-1z M95,63h1v1h-1z M97,63h1v1h-1z M102,63h1v1h-1z M103,63h1v1h-1z M104,63h1v1h-1z M108,63h1v1h-1z M5,64h1v1h-1z M6,64h1v1h-1z M7,64h1v1h-1z M8,64h1v1h-1z M10,64h1v1h-1z M11,64h1v1h-1z M13,64h1v1h-1z M14,64h1v1h-1z M18,64h1v1h-1z M19,64h1v1h-1z M21,64h1v1h-1z M26,64h1v1h-1z M27,64h1v1h-1z M28,64h1v1h-1z M30,64h1v1h-1z M34,64h1v1h-1z M35,64h1v1h-1z M36,64h1v1h-1z M37,64h1v1h-1z M38,64h1v1h-1z M39,64h1v1h-1z M40,64h1v1h-1z M41,64h1v1h-1z M43,64h1v1h-1z M44,64h1v1h-1z M46,64h1v1h-1z M47,64h1v1h-1z M48,64h1v1h-1z M49,64h1v1h-1z M50,64h1v1h-1z M53,64h1v1h-1z M54,64h1v1h-1z M55,64h1v1h-1z M58,64h1v1h-1z M59,64h1v1h-1z M62,64h1v1h-1z M64,64h1v1h-1z M66,64h1v1h-1z M72,64h1v1h-1z M77,64h1v1h-1z M78,64h1v1h-1z M80,64h1v1h-1z M81,64h1v1h-1z M82,64h1v1h-1z M83,64h1v1h-1z M84,64h1v1h-1z M85,64h1v1h-1z M88,64h1v1h-1z M89,64h1v1h-1z M90,64h1v1h-1z M91,64h1v1h-1z M93,64h1v1h-1z M96,64h1v1h-1z M98,64h1v1h-1z M101,64h1v1h-1z M103,64h1v1h-1z M105,64h1v1h-1z M108,64h1v1h-1z M4,65h1v1h-1z M5,65h1v1h-1z M6,65h1v1h-1z M13,65h1v1h-1z M16,65h1v1h-1z M17,65h1v1h-1z M19,65h1v1h-1z M22,65h1v1h-1z M23,65h1v1h-1z M25,65h1v1h-1z M26,65h1v1h-1z M27,65h1v1h-1z M28,65h1v1h-1z M29,65h1v1h-1z M31,65h1v1h-1z M33,65h1v1h-1z M34,65h1v1h-1z M36,65h1v1h-1z M40,65h1v1h-1z M41,65h1v1h-1z M42,65h1v1h-1z M43,65h1v1h-1z M44,65h1v1h-1z M45,65h1v1h-1z M46,65h1v1h-1z M47,65h1v1h-1z M48,65h1v1h-1z M50,65h1v1h-1z M52,65h1v1h-1z M55,65h1v1h-1z M59,65h1v1h-1z M61,65h1v1h-1z M63,65h1v1h-1z M65,65h1v1h-1z M68,65h1v1h-1z M69,65h1v1h-1z M72,65h1v1h-1z M74,65h1v1h-1z M75,65h1v1h-1z M79,65h1v1h-1z M81,65h1v1h-1z M83,65h1v1h-1z M85,65h1v1h-1z M86,65h1v1h-1z M88,65h1v1h-1z M89,65h1v1h-1z M90,65h1v1h-1z M92,65h1v1h-1z M96,65h1v1h-1z M99,65h1v1h-1z M100,65h1v1h-1z M102,65h1v1h-1z M103,65h1v1h-1z M104,65h1v1h-1z M105,65h1v1h-1z M4,66h1v1h-1z M5,66h1v1h-1z M6,66h1v1h-1z M8,66h1v1h-1z M10,66h1v1h-1z M14,66h1v1h-1z M15,66h1v1h-1z M20,66h1v1h-1z M22,66h1v1h-1z M24,66h1v1h-1z M26,66h1v1h-1z M33,66h1v1h-1z M38,66h1v1h-1z M39,66h1v1h-1z M40,66h1v1h-1z M41,66h1v1h-1z M47,66h1v1h-1z M48,66h1v1h-1z M50,66h1v1h-1z M53,66h1v1h-1z M55,66h1v1h-1z M56,66h1v1h-1z M59,66h1v1h-1z M60,66h1v1h-1z M62,66h1v1h-1z M63,66h1v1h-1z M65,66h1v1h-1z M68,66h1v1h-1z M71,66h1v1h-1z M72,66h1v1h-1z M74,66h1v1h-1z M75,66h1v1h-1z M80,66h1v1h-1z M81,66h1v1h-1z M84,66h1v1h-1z M86,66h1v1h-1z M88,66h1v1h-1z M89,66h1v1h-1z M91,66h1v1h-1z M92,66h1v1h-1z M95,66h1v1h-1z M96,66h1v1h-1z M98,66h1v1h-1z M100,66h1v1h-1z M103,66h1v1h-1z M104,66h1v1h-1z M106,66h1v1h-1z M107,66h1v1h-1z M5,67h1v1h-1z M6,67h1v1h-1z M8,67h1v1h-1z M11,67h1v1h-1z M16,67h1v1h-1z M18,67h1v1h-1z M19,67h1v1h-1z M24,67h1v1h-1z M25,67h1v1h-1z M26,67h1v1h-1z M27,67h1v1h-1z M29,67h1v1h-1z M31,67h1v1h-1z M34,67h1v1h-1z M35,67h1v1h-1z M38,67h1v1h-1z M42,67h1v1h-1z M43,67h1v1h-1z M44,67h1v1h-1z M45,67h1v1h-1z M47,67h1v1h-1z M50,67h1v1h-1z M53,67h1v1h-1z M54,67h1v1h-1z M56,67h1v1h-1z M59,67h1v1h-1z M61,67h1v1h-1z M62,67h1v1h-1z M66,67h1v1h-1z M68,67h1v1h-1z M69,67h1v1h-1z M71,67h1v1h-1z M74,67h1v1h-1z M75,67h1v1h-1z M76,67h1v1h-1z M77,67h1v1h-1z M79,67h1v1h-1z M80,67h1v1h-1z M82,67h1v1h-1z M83,67h1v1h-1z M85,67h1v1h-1z M86,67h1v1h-1z M92,67h1v1h-1z M93,67h1v1h-1z M94,67h1v1h-1z M95,67h1v1h-1z M97,67h1v1h-1z M98,67h1v1h-1z M99,67h1v1h-1z M100,67h1v1h-1z M103,67h1v1h-1z M104,67h1v1h-1z M107,67h1v1h-1z M6,68h1v1h-1z M8,68h1v1h-1z M9,68h1v1h-1z M10,68h1v1h-1z M11,68h1v1h-1z M13,68h1v1h-1z M15,68h1v1h-1z M16,68h1v1h-1z M17,68h1v1h-1z M20,68h1v1h-1z M22,68h1v1h-1z M24,68h1v1h-1z M25,68h1v1h-1z M26,68h1v1h-1z M27,68h1v1h-1z M28,68h1v1h-1z M30,68h1v1h-1z M31,68h1v1h-1z M32,68h1v1h-1z M37,68h1v1h-1z M39,68h1v1h-1z M40,68h1v1h-1z M41,68h1v1h-1z M44,68h1v1h-1z M47,68h1v1h-1z M49,68h1v1h-1z M53,68h1v1h-1z M54,68h1v1h-1z M55,68h1v1h-1z M58,68h1v1h-1z M63,68h1v1h-1z M65,68h1v1h-1z M66,68h1v1h-1z M68,68h1v1h-1z M69,68h1v1h-1z M70,68h1v1h-1z M72,68h1v1h-1z M78,68h1v1h-1z M80,68h1v1h-1z M84,68h1v1h-1z M86,68h1v1h-1z M87,68h1v1h-1z M88,68h1v1h-1z M91,68h1v1h-1z M92,68h1v1h-1z M94,68h1v1h-1z M97,68h1v1h-1z M98,68h1v1h-1z M99,68h1v1h-1z M102,68h1v1h-1z M103,68h1v1h-1z M105,68h1v1h-1z M106,68h1v1h-1z M108,68h1v1h-1z M4,69h1v1h-1z M8,69h1v1h-1z M11,69h1v1h-1z M13,69h1v1h-1z M14,69h1v1h-1z M15,69h1v1h-1z M16,69h1v1h-1z M17,69h1v1h-1z M21,69h1v1h-1z M22,69h1v1h-1z M24,69h1v1h-1z M26,69h1v1h-1z M31,69h1v1h-1z M33,69h1v1h-1z M37,69h1v1h-1z M39,69h1v1h-1z M40,69h1v1h-1z M41,69h1v1h-1z M46,69h1v1h-1z M47,69h1v1h-1z M48,69h1v1h-1z M49,69h1v1h-1z M51,69h1v1h-1z M55,69h1v1h-1z M58,69h1v1h-1z M59,69h1v1h-1z M60,69h1v1h-1z M61,69h1v1h-1z M62,69h1v1h-1z M68,69h1v1h-1z M69,69h1v1h-1z M71,69h1v1h-1z M73,69h1v1h-1z M75,69h1v1h-1z M77,69h1v1h-1z M79,69h1v1h-1z M82,69h1v1h-1z M83,69h1v1h-1z M86,69h1v1h-1z M89,69h1v1h-1z M95,69h1v1h-1z M97,69h1v1h-1z M98,69h1v1h-1z M100,69h1v1h-1z M102,69h1v1h-1z M105,69h1v1h-1z M107,69h1v1h-1z M8,70h1v1h-1z M10,70h1v1h-1z M12,70h1v1h-1z M14,70h1v1h-1z M15,70h1v1h-1z M16,70h1v1h-1z M20,70h1v1h-1z M21,70h1v1h-1z M24,70h1v1h-1z M27,70h1v1h-1z M31,70h1v1h-1z M32,70h1v1h-1z M36,70h1v1h-1z M38,70h1v1h-1z M41,70h1v1h-1z M43,70h1v1h-1z M47,70h1v1h-1z M48,70h1v1h-1z M50,70h1v1h-1z M55,70h1v1h-1z M56,70h1v1h-1z M62,70h1v1h-1z M63,70h1v1h-1z M65,70h1v1h-1z M71,70h1v1h-1z M74,70h1v1h-1z M78,70h1v1h-1z M81,70h1v1h-1z M83,70h1v1h-1z M84,70h1v1h-1z M86,70h1v1h-1z M87,70h1v1h-1z M88,70h1v1h-1z M89,70h1v1h-1z M91,70h1v1h-1z M92,70h1v1h-1z M93,70h1v1h-1z M95,70h1v1h-1z M96,70h1v1h-1z M98,70h1v1h-1z M102,70h1v1h-1z M103,70h1v1h-1z M105,70h1v1h-1z M106,70h1v1h-1z M107,70h1v1h-1z M108,70h1v1h-1z M5,71h1v1h-1z M6,71h1v1h-1z M11,71h1v1h-1z M13,71h1v1h-1z M17,71h1v1h-1z M18,71h1v1h-1z M19,71h1v1h-1z M20,71h1v1h-1z M21,71h1v1h-1z M22,71h1v1h-1z M23,71h1v1h-1z M24,71h1v1h-1z M25,71h1v1h-1z M28,71h1v1h-1z M32,71h1v1h-1z M33,71h1v1h-1z M35,71h1v1h-1z M41,71h1v1h-1z M44,71h1v1h-1z M46,71h1v1h-1z M52,71h1v1h-1z M54,71h1v1h-1z M55,71h1v1h-1z M56,71h1v1h-1z M59,71h1v1h-1z M61,71h1v1h-1z M65,71h1v1h-1z M67,71h1v1h-1z M68,71h1v1h-1z M71,71h1v1h-1z M77,71h1v1h-1z M79,71h1v1h-1z M80,71h1v1h-1z M81,71h1v1h-1z M82,71h1v1h-1z M83,71h1v1h-1z M85,71h1v1h-1z M86,71h1v1h-1z M92,71h1v1h-1z M94,71h1v1h-1z M107,71h1v1h-1z M108,71h1v1h-1z M4,72h1v1h-1z M6,72h1v1h-1z M10,72h1v1h-1z M13,72h1v1h-1z M16,72h1v1h-1z M17,72h1v1h-1z M18,72h1v1h-1z M19,72h1v1h-1z M20,72h1v1h-1z M21,72h1v1h-1z M23,72h1v1h-1z M24,72h1v1h-1z M27,72h1v1h-1z M30,72h1v1h-1z M33,72h1v1h-1z M34,72h1v1h-1z M35,72h1v1h-1z M39,72h1v1h-1z M40,72h1v1h-1z M41,72h1v1h-1z M43,72h1v1h-1z M45,72h1v1h-1z M46,72h1v1h-1z M50,72h1v1h-1z M51,72h1v1h-1z M54,72h1v1h-1z M55,72h1v1h-1z M56,72h1v1h-1z M58,72h1v1h-1z M62,72h1v1h-1z M63,72h1v1h-1z M64,72h1v1h-1z M66,72h1v1h-1z M67,72h1v1h-1z M68,72h1v1h-1z M74,72h1v1h-1z M76,72h1v1h-1z M78,72h1v1h-1z M79,72h1v1h-1z M80,72h1v1h-1z M83,72h1v1h-1z M86,72h1v1h-1z M88,72h1v1h-1z M89,72h1v1h-1z M90,72h1v1h-1z M91,72h1v1h-1z M93,72h1v1h-1z M95,72h1v1h-1z M96,72h1v1h-1z M97,72h1v1h-1z M100,72h1v1h-1z M102,72h1v1h-1z M103,72h1v1h-1z M105,72h1v1h-1z M107,72h1v1h-1z M108,72h1v1h-1z M4,73h1v1h-1z M5,73h1v1h-1z M6,73h1v1h-1z M7,73h1v1h-1z M12,73h1v1h-1z M14,73h1v1h-1z M17,73h1v1h-1z M18,73h1v1h-1z M19,73h1v1h-1z M20,73h1v1h-1z M21,73h1v1h-1z M22,73h1v1h-1z M23,73h1v1h-1z M26,73h1v1h-1z M28,73h1v1h-1z M31,73h1v1h-1z M35,73h1v1h-1z M36,73h1v1h-1z M37,73h1v1h-1z M40,73h1v1h-1z M41,73h1v1h-1z M42,73h1v1h-1z M43,73h1v1h-1z M45,73h1v1h-1z M46,73h1v1h-1z M48,73h1v1h-1z M53,73h1v1h-1z M54,73h1v1h-1z M55,73h1v1h-1z M57,73h1v1h-1z M60,73h1v1h-1z M61,73h1v1h-1z M63,73h1v1h-1z M64,73h1v1h-1z M65,73h1v1h-1z M66,73h1v1h-1z M67,73h1v1h-1z M74,73h1v1h-1z M76,73h1v1h-1z M79,73h1v1h-1z M81,73h1v1h-1z M82,73h1v1h-1z M83,73h1v1h-1z M85,73h1v1h-1z M86,73h1v1h-1z M89,73h1v1h-1z M92,73h1v1h-1z M93,73h1v1h-1z M95,73h1v1h-1z M97,73h1v1h-1z M98,73h1v1h-1z M99,73h1v1h-1z M100,73h1v1h-1z M102,73h1v1h-1z M104,73h1v1h-1z M105,73h1v1h-1z M106,73h1v1h-1z M107,73h1v1h-1z M108,73h1v1h-1z M4,74h1v1h-1z M10,74h1v1h-1z M11,74h1v1h-1z M14,74h1v1h-1z M15,74h1v1h-1z M17,74h1v1h-1z M19,74h1v1h-1z M21,74h1v1h-1z M22,74h1v1h-1z M23,74h1v1h-1z M24,74h1v1h-1z M25,74h1v1h-1z M32,74h1v1h-1z M33,74h1v1h-1z M35,74h1v1h-1z M36,74h1v1h-1z M38,74h1v1h-1z M39,74h1v1h-1z M40,74h1v1h-1z M41,74h1v1h-1z M47,74h1v1h-1z M48,74h1v1h-1z M49,74h1v1h-1z M50,74h1v1h-1z M53,74h1v1h-1z M55,74h1v1h-1z M60,74h1v1h-1z M62,74h1v1h-1z M64,74h1v1h-1z M65,74h1v1h-1z M71,74h1v1h-1z M72,74h1v1h-1z M74,74h1v1h-1z M77,74h1v1h-1z M80,74h1v1h-1z M86,74h1v1h-1z M87,74h1v1h-1z M88,74h1v1h-1z M89,74h1v1h-1z M91,74h1v1h-1z M95,74h1v1h-1z M96,74h1v1h-1z M98,74h1v1h-1z M100,74h1v1h-1z M101,74h1v1h-1z M102,74h1v1h-1z M104,74h1v1h-1z M106,74h1v1h-1z M107,74h1v1h-1z M4,75h1v1h-1z M5,75h1v1h-1z M11,75h1v1h-1z M16,75h1v1h-1z M17,75h1v1h-1z M18,75h1v1h-1z M19,75h1v1h-1z M20,75h1v1h-1z M22,75h1v1h-1z M24,75h1v1h-1z M27,75h1v1h-1z M30,75h1v1h-1z M31,75h1v1h-1z M32,75h1v1h-1z M34,75h1v1h-1z M44,75h1v1h-1z M45,75h1v1h-1z M46,75h1v1h-1z M53,75h1v1h-1z M55,75h1v1h-1z M56,75h1v1h-1z M57,75h1v1h-1z M59,75h1v1h-1z M61,75h1v1h-1z M62,75h1v1h-1z M65,75h1v1h-1z M68,75h1v1h-1z M70,75h1v1h-1z M76,75h1v1h-1z M79,75h1v1h-1z M81,75h1v1h-1z M83,75h1v1h-1z M86,75h1v1h-1z M90,75h1v1h-1z M92,75h1v1h-1z M93,75h1v1h-1z M94,75h1v1h-1z M95,75h1v1h-1z M98,75h1v1h-1z M99,75h1v1h-1z M101,75h1v1h-1z M103,75h1v1h-1z M104,75h1v1h-1z M108,75h1v1h-1z M4,76h1v1h-1z M5,76h1v1h-1z M7,76h1v1h-1z M8,76h1v1h-1z M9,76h1v1h-1z M10,76h1v1h-1z M11,76h1v1h-1z M12,76h1v1h-1z M15,76h1v1h-1z M16,76h1v1h-1z M17,76h1v1h-1z M18,76h1v1h-1z M20,76h1v1h-1z M21,76h1v1h-1z M22,76h1v1h-1z M23,76h1v1h-1z M25,76h1v1h-1z M27,76h1v1h-1z M28,76h1v1h-1z M29,76h1v1h-1z M30,76h1v1h-1z M31,76h1v1h-1z M32,76h1v1h-1z M34,76h1v1h-1z M35,76h1v1h-1z M36,76h1v1h-1z M38,76h1v1h-1z M42,76h1v1h-1z M45,76h1v1h-1z M46,76h1v1h-1z M48,76h1v1h-1z M49,76h1v1h-1z M51,76h1v1h-1z M52,76h1v1h-1z M53,76h1v1h-1z M54,76h1v1h-1z M55,76h1v1h-1z M56,76h1v1h-1z M57,76h1v1h-1z M58,76h1v1h-1z M59,76h1v1h-1z M60,76h1v1h-1z M63,76h1v1h-1z M65,76h1v1h-1z M66,76h1v1h-1z M68,76h1v1h-1z M69,76h1v1h-1z M70,76h1v1h-1z M71,76h1v1h-1z M73,76h1v1h-1z M76,76h1v1h-1z M77,76h1v1h-1z M78,76h1v1h-1z M79,76h1v1h-1z M80,76h1v1h-1z M81,76h1v1h-1z M83,76h1v1h-1z M84,76h1v1h-1z M86,76h1v1h-1z M89,76h1v1h-1z M93,76h1v1h-1z M94,76h1v1h-1z M95,76h1v1h-1z M97,76h1v1h-1z M100,76h1v1h-1z M101,76h1v1h-1z M102,76h1v1h-1z M103,76h1v1h-1z M104,76h1v1h-1z M106,76h1v1h-1z M108,76h1v1h-1z M4,77h1v1h-1z M5,77h1v1h-1z M6,77h1v1h-1z M8,77h1v1h-1z M12,77h1v1h-1z M13,77h1v1h-1z M14,77h1v1h-1z M15,77h1v1h-1z M20,77h1v1h-1z M21,77h1v1h-1z M22,77h1v1h-1z M24,77h1v1h-1z M25,77h1v1h-1z M26,77h1v1h-1z M28,77h1v1h-1z M32,77h1v1h-1z M33,77h1v1h-1z M34,77h1v1h-1z M35,77h1v1h-1z M36,77h1v1h-1z M37,77h1v1h-1z M38,77h1v1h-1z M41,77h1v1h-1z M46,77h1v1h-1z M47,77h1v1h-1z M48,77h1v1h-1z M52,77h1v1h-1z M56,77h1v1h-1z M57,77h1v1h-1z M58,77h1v1h-1z M59,77h1v1h-1z M62,77h1v1h-1z M63,77h1v1h-1z M64,77h1v1h-1z M65,77h1v1h-1z M67,77h1v1h-1z M69,77h1v1h-1z M70,77h1v1h-1z M71,77h1v1h-1z M72,77h1v1h-1z M74,77h1v1h-1z M75,77h1v1h-1z M76,77h1v1h-1z M80,77h1v1h-1z M81,77h1v1h-1z M83,77h1v1h-1z M84,77h1v1h-1z M86,77h1v1h-1z M88,77h1v1h-1z M89,77h1v1h-1z M90,77h1v1h-1z M91,77h1v1h-1z M93,77h1v1h-1z M95,77h1v1h-1z M96,77h1v1h-1z M97,77h1v1h-1z M99,77h1v1h-1z M100,77h1v1h-1z M104,77h1v1h-1z M105,77h1v1h-1z M108,77h1v1h-1z M4,78h1v1h-1z M5,78h1v1h-1z M8,78h1v1h-1z M10,78h1v1h-1z M12,78h1v1h-1z M13,78h1v1h-1z M14,78h1v1h-1z M16,78h1v1h-1z M18,78h1v1h-1z M19,78h1v1h-1z M27,78h1v1h-1z M28,78h1v1h-1z M30,78h1v1h-1z M32,78h1v1h-1z M33,78h1v1h-1z M35,78h1v1h-1z M36,78h1v1h-1z M37,78h1v1h-1z M38,78h1v1h-1z M43,78h1v1h-1z M45,78h1v1h-1z M50,78h1v1h-1z M52,78h1v1h-1z M54,78h1v1h-1z M56,78h1v1h-1z M62,78h1v1h-1z M63,78h1v1h-1z M65,78h1v1h-1z M67,78h1v1h-1z M71,78h1v1h-1z M72,78h1v1h-1z M74,78h1v1h-1z M76,78h1v1h-1z M78,78h1v1h-1z M80,78h1v1h-1z M83,78h1v1h-1z M86,78h1v1h-1z M88,78h1v1h-1z M89,78h1v1h-1z M92,78h1v1h-1z M93,78h1v1h-1z M96,78h1v1h-1z M98,78h1v1h-1z M100,78h1v1h-1z M102,78h1v1h-1z M104,78h1v1h-1z M107,78h1v1h-1z M4,79h1v1h-1z M5,79h1v1h-1z M6,79h1v1h-1z M7,79h1v1h-1z M8,79h1v1h-1z M12,79h1v1h-1z M13,79h1v1h-1z M14,79h1v1h-1z M15,79h1v1h-1z M16,79h1v1h-1z M17,79h1v1h-1z M21,79h1v1h-1z M22,79h1v1h-1z M23,79h1v1h-1z M25,79h1v1h-1z M26,79h1v1h-1z M28,79h1v1h-1z M32,79h1v1h-1z M34,79h1v1h-1z M37,79h1v1h-1z M41,79h1v1h-1z M42,79h1v1h-1z M44,79h1v1h-1z M45,79h1v1h-1z M46,79h1v1h-1z M47,79h1v1h-1z M49,79h1v1h-1z M50,79h1v1h-1z M51,79h1v1h-1z M52,79h1v1h-1z M56,79h1v1h-1z M59,79h1v1h-1z M61,79h1v1h-1z M68,79h1v1h-1z M69,79h1v1h-1z M70,79h1v1h-1z M71,79h1v1h-1z M73,79h1v1h-1z M76,79h1v1h-1z M80,79h1v1h-1z M81,79h1v1h-1z M83,79h1v1h-1z M85,79h1v1h-1z M86,79h1v1h-1z M90,79h1v1h-1z M92,79h1v1h-1z M94,79h1v1h-1z M95,79h1v1h-1z M99,79h1v1h-1z M100,79h1v1h-1z M104,79h1v1h-1z M107,79h1v1h-1z M4,80h1v1h-1z M5,80h1v1h-1z M6,80h1v1h-1z M8,80h1v1h-1z M9,80h1v1h-1z M10,80h1v1h-1z M11,80h1v1h-1z M12,80h1v1h-1z M13,80h1v1h-1z M15,80h1v1h-1z M19,80h1v1h-1z M20,80h1v1h-1z M21,80h1v1h-1z M23,80h1v1h-1z M27,80h1v1h-1z M28,80h1v1h-1z M29,80h1v1h-1z M30,80h1v1h-1z M31,80h1v1h-1z M32,80h1v1h-1z M33,80h1v1h-1z M34,80h1v1h-1z M37,80h1v1h-1z M39,80h1v1h-1z M41,80h1v1h-1z M45,80h1v1h-1z M46,80h1v1h-1z M48,80h1v1h-1z M51,80h1v1h-1z M52,80h1v1h-1z M53,80h1v1h-1z M54,80h1v1h-1z M55,80h1v1h-1z M56,80h1v1h-1z M58,80h1v1h-1z M59,80h1v1h-1z M60,80h1v1h-1z M63,80h1v1h-1z M65,80h1v1h-1z M66,80h1v1h-1z M67,80h1v1h-1z M68,80h1v1h-1z M69,80h1v1h-1z M72,80h1v1h-1z M75,80h1v1h-1z M76,80h1v1h-1z M77,80h1v1h-1z M78,80h1v1h-1z M79,80h1v1h-1z M80,80h1v1h-1z M81,80h1v1h-1z M84,80h1v1h-1z M85,80h1v1h-1z M87,80h1v1h-1z M88,80h1v1h-1z M89,80h1v1h-1z M90,80h1v1h-1z M91,80h1v1h-1z M98,80h1v1h-1z M100,80h1v1h-1z M101,80h1v1h-1z M102,80h1v1h-1z M103,80h1v1h-1z M104,80h1v1h-1z M105,80h1v1h-1z M106,80h1v1h-1z M107,80h1v1h-1z M5,81h1v1h-1z M6,81h1v1h-1z M7,81h1v1h-1z M9,81h1v1h-1z M12,81h1v1h-1z M13,81h1v1h-1z M15,81h1v1h-1z M19,81h1v1h-1z M20,81h1v1h-1z M22,81h1v1h-1z M24,81h1v1h-1z M26,81h1v1h-1z M29,81h1v1h-1z M30,81h1v1h-1z M31,81h1v1h-1z M33,81h1v1h-1z M34,81h1v1h-1z M37,81h1v1h-1z M38,81h1v1h-1z M39,81h1v1h-1z M40,81h1v1h-1z M44,81h1v1h-1z M54,81h1v1h-1z M55,81h1v1h-1z M56,81h1v1h-1z M58,81h1v1h-1z M60,81h1v1h-1z M61,81h1v1h-1z M66,81h1v1h-1z M68,81h1v1h-1z M69,81h1v1h-1z M71,81h1v1h-1z M74,81h1v1h-1z M76,81h1v1h-1z M77,81h1v1h-1z M78,81h1v1h-1z M79,81h1v1h-1z M80,81h1v1h-1z M81,81h1v1h-1z M82,81h1v1h-1z M85,81h1v1h-1z M87,81h1v1h-1z M88,81h1v1h-1z M90,81h1v1h-1z M91,81h1v1h-1z M93,81h1v1h-1z M94,81h1v1h-1z M95,81h1v1h-1z M96,81h1v1h-1z M98,81h1v1h-1z M99,81h1v1h-1z M100,81h1v1h-1z M101,81h1v1h-1z M103,81h1v1h-1z M105,81h1v1h-1z M106,81h1v1h-1z M108,81h1v1h-1z M4,82h1v1h-1z M5,82h1v1h-1z M6,82h1v1h-1z M7,82h1v1h-1z M8,82h1v1h-1z M10,82h1v1h-1z M13,82h1v1h-1z M14,82h1v1h-1z M15,82h1v1h-1z M16,82h1v1h-1z M18,82h1v1h-1z M21,82h1v1h-1z M23,82h1v1h-1z M24,82h1v1h-1z M25,82h1v1h-1z M26,82h1v1h-1z M29,82h1v1h-1z M30,82h1v1h-1z M32,82h1v1h-1z M38,82h1v1h-1z M39,82h1v1h-1z M41,82h1v1h-1z M43,82h1v1h-1z M45,82h1v1h-1z M48,82h1v1h-1z M50,82h1v1h-1z M52,82h1v1h-1z M53,82h1v1h-1z M54,82h1v1h-1z M56,82h1v1h-1z M60,82h1v1h-1z M62,82h1v1h-1z M63,82h1v1h-1z M65,82h1v1h-1z M71,82h1v1h-1z M74,82h1v1h-1z M75,82h1v1h-1z M76,82h1v1h-1z M77,82h1v1h-1z M78,82h1v1h-1z M80,82h1v1h-1z M84,82h1v1h-1z M86,82h1v1h-1z M87,82h1v1h-1z M88,82h1v1h-1z M95,82h1v1h-1z M98,82h1v1h-1z M99,82h1v1h-1z M100,82h1v1h-1z M101,82h1v1h-1z M103,82h1v1h-1z M106,82h1v1h-1z M107,82h1v1h-1z M4,83h1v1h-1z M6,83h1v1h-1z M9,83h1v1h-1z M11,83h1v1h-1z M13,83h1v1h-1z M14,83h1v1h-1z M15,83h1v1h-1z M18,83h1v1h-1z M23,83h1v1h-1z M25,83h1v1h-1z M26,83h1v1h-1z M27,83h1v1h-1z M29,83h1v1h-1z M33,83h1v1h-1z M34,83h1v1h-1z M35,83h1v1h-1z M37,83h1v1h-1z M43,83h1v1h-1z M44,83h1v1h-1z M45,83h1v1h-1z M46,83h1v1h-1z M47,83h1v1h-1z M49,83h1v1h-1z M50,83h1v1h-1z M51,83h1v1h-1z M52,83h1v1h-1z M56,83h1v1h-1z M59,83h1v1h-1z M61,83h1v1h-1z M67,83h1v1h-1z M68,83h1v1h-1z M70,83h1v1h-1z M71,83h1v1h-1z M75,83h1v1h-1z M79,83h1v1h-1z M81,83h1v1h-1z M83,83h1v1h-1z M85,83h1v1h-1z M86,83h1v1h-1z M89,83h1v1h-1z M90,83h1v1h-1z M91,83h1v1h-1z M92,83h1v1h-1z M95,83h1v1h-1z M97,83h1v1h-1z M98,83h1v1h-1z M104,83h1v1h-1z M4,84h1v1h-1z M6,84h1v1h-1z M8,84h1v1h-1z M10,84h1v1h-1z M11,84h1v1h-1z M16,84h1v1h-1z M17,84h1v1h-1z M18,84h1v1h-1z M19,84h1v1h-1z M20,84h1v1h-1z M22,84h1v1h-1z M24,84h1v1h-1z M27,84h1v1h-1z M31,84h1v1h-1z M33,84h1v1h-1z M34,84h1v1h-1z M38,84h1v1h-1z M39,84h1v1h-1z M41,84h1v1h-1z M42,84h1v1h-1z M44,84h1v1h-1z M45,84h1v1h-1z M46,84h1v1h-1z M47,84h1v1h-1z M53,84h1v1h-1z M59,84h1v1h-1z M60,84h1v1h-1z M62,84h1v1h-1z M63,84h1v1h-1z M64,84h1v1h-1z M65,84h1v1h-1z M66,84h1v1h-1z M67,84h1v1h-1z M69,84h1v1h-1z M70,84h1v1h-1z M77,84h1v1h-1z M79,84h1v1h-1z M80,84h1v1h-1z M83,84h1v1h-1z M84,84h1v1h-1z M85,84h1v1h-1z M88,84h1v1h-1z M89,84h1v1h-1z M90,84h1v1h-1z M91,84h1v1h-1z M92,84h1v1h-1z M93,84h1v1h-1z M94,84h1v1h-1z M103,84h1v1h-1z M104,84h1v1h-1z M106,84h1v1h-1z M108,84h1v1h-1z M5,85h1v1h-1z M9,85h1v1h-1z M12,85h1v1h-1z M13,85h1v1h-1z M19,85h1v1h-1z M20,85h1v1h-1z M21,85h1v1h-1z M24,85h1v1h-1z M25,85h1v1h-1z M28,85h1v1h-1z M30,85h1v1h-1z M31,85h1v1h-1z M32,85h1v1h-1z M33,85h1v1h-1z M35,85h1v1h-1z M36,85h1v1h-1z M38,85h1v1h-1z M45,85h1v1h-1z M46,85h1v1h-1z M47,85h1v1h-1z M49,85h1v1h-1z M50,85h1v1h-1z M54,85h1v1h-1z M56,85h1v1h-1z M57,85h1v1h-1z M58,85h1v1h-1z M59,85h1v1h-1z M60,85h1v1h-1z M63,85h1v1h-1z M65,85h1v1h-1z M66,85h1v1h-1z M72,85h1v1h-1z M73,85h1v1h-1z M74,85h1v1h-1z M76,85h1v1h-1z M78,85h1v1h-1z M80,85h1v1h-1z M81,85h1v1h-1z M82,85h1v1h-1z M83,85h1v1h-1z M84,85h1v1h-1z M93,85h1v1h-1z M95,85h1v1h-1z M96,85h1v1h-1z M97,85h1v1h-1z M103,85h1v1h-1z M105,85h1v1h-1z M106,85h1v1h-1z M107,85h1v1h-1z M108,85h1v1h-1z M4,86h1v1h-1z M7,86h1v1h-1z M8,86h1v1h-1z M10,86h1v1h-1z M11,86h1v1h-1z M14,86h1v1h-1z M15,86h1v1h-1z M18,86h1v1h-1z M22,86h1v1h-1z M25,86h1v1h-1z M30,86h1v1h-1z M32,86h1v1h-1z M35,86h1v1h-1z M36,86h1v1h-1z M38,86h1v1h-1z M41,86h1v1h-1z M43,86h1v1h-1z M45,86h1v1h-1z M47,86h1v1h-1z M48,86h1v1h-1z M50,86h1v1h-1z M52,86h1v1h-1z M53,86h1v1h-1z M56,86h1v1h-1z M59,86h1v1h-1z M60,86h1v1h-1z M62,86h1v1h-1z M64,86h1v1h-1z M65,86h1v1h-1z M69,86h1v1h-1z M72,86h1v1h-1z M74,86h1v1h-1z M75,86h1v1h-1z M76,86h1v1h-1z M78,86h1v1h-1z M79,86h1v1h-1z M80,86h1v1h-1z M86,86h1v1h-1z M87,86h1v1h-1z M89,86h1v1h-1z M92,86h1v1h-1z M96,86h1v1h-1z M98,86h1v1h-1z M99,86h1v1h-1z M101,86h1v1h-1z M104,86h1v1h-1z M105,86h1v1h-1z M107,86h1v1h-1z M9,87h1v1h-1z M11,87h1v1h-1z M12,87h1v1h-1z M13,87h1v1h-1z M14,87h1v1h-1z M18,87h1v1h-1z M19,87h1v1h-1z M21,87h1v1h-1z M23,87h1v1h-1z M26,87h1v1h-1z M29,87h1v1h-1z M34,87h1v1h-1z M35,87h1v1h-1z M37,87h1v1h-1z M38,87h1v1h-1z M41,87h1v1h-1z M44,87h1v1h-1z M45,87h1v1h-1z M46,87h1v1h-1z M47,87h1v1h-1z M49,87h1v1h-1z M50,87h1v1h-1z M52,87h1v1h-1z M54,87h1v1h-1z M55,87h1v1h-1z M59,87h1v1h-1z M62,87h1v1h-1z M63,87h1v1h-1z M66,87h1v1h-1z M67,87h1v1h-1z M68,87h1v1h-1z M70,87h1v1h-1z M71,87h1v1h-1z M74,87h1v1h-1z M75,87h1v1h-1z M76,87h1v1h-1z M80,87h1v1h-1z M82,87h1v1h-1z M83,87h1v1h-1z M85,87h1v1h-1z M89,87h1v1h-1z M90,87h1v1h-1z M92,87h1v1h-1z M93,87h1v1h-1z M95,87h1v1h-1z M97,87h1v1h-1z M98,87h1v1h-1z M99,87h1v1h-1z M100,87h1v1h-1z M102,87h1v1h-1z M104,87h1v1h-1z M107,87h1v1h-1z M108,87h1v1h-1z M8,88h1v1h-1z M9,88h1v1h-1z M10,88h1v1h-1z M11,88h1v1h-1z M13,88h1v1h-1z M20,88h1v1h-1z M24,88h1v1h-1z M26,88h1v1h-1z M29,88h1v1h-1z M30,88h1v1h-1z M32,88h1v1h-1z M33,88h1v1h-1z M36,88h1v1h-1z M37,88h1v1h-1z M39,88h1v1h-1z M41,88h1v1h-1z M42,88h1v1h-1z M44,88h1v1h-1z M45,88h1v1h-1z M47,88h1v1h-1z M49,88h1v1h-1z M51,88h1v1h-1z M52,88h1v1h-1z M58,88h1v1h-1z M59,88h1v1h-1z M60,88h1v1h-1z M63,88h1v1h-1z M65,88h1v1h-1z M73,88h1v1h-1z M83,88h1v1h-1z M89,88h1v1h-1z M92,88h1v1h-1z M95,88h1v1h-1z M98,88h1v1h-1z M101,88h1v1h-1z M102,88h1v1h-1z M103,88h1v1h-1z M104,88h1v1h-1z M105,88h1v1h-1z M4,89h1v1h-1z M5,89h1v1h-1z M7,89h1v1h-1z M11,89h1v1h-1z M13,89h1v1h-1z M14,89h1v1h-1z M16,89h1v1h-1z M18,89h1v1h-1z M19,89h1v1h-1z M21,89h1v1h-1z M23,89h1v1h-1z M24,89h1v1h-1z M28,89h1v1h-1z M30,89h1v1h-1z M31,89h1v1h-1z M36,89h1v1h-1z M37,89h1v1h-1z M38,89h1v1h-1z M39,89h1v1h-1z M40,89h1v1h-1z M41,89h1v1h-1z M42,89h1v1h-1z M43,89h1v1h-1z M49,89h1v1h-1z M50,89h1v1h-1z M54,89h1v1h-1z M56,89h1v1h-1z M57,89h1v1h-1z M58,89h1v1h-1z M60,89h1v1h-1z M61,89h1v1h-1z M65,89h1v1h-1z M68,89h1v1h-1z M71,89h1v1h-1z M72,89h1v1h-1z M74,89h1v1h-1z M78,89h1v1h-1z M79,89h1v1h-1z M80,89h1v1h-1z M83,89h1v1h-1z M84,89h1v1h-1z M85,89h1v1h-1z M86,89h1v1h-1z M93,89h1v1h-1z M94,89h1v1h-1z M97,89h1v1h-1z M102,89h1v1h-1z M103,89h1v1h-1z M106,89h1v1h-1z M107,89h1v1h-1z M108,89h1v1h-1z M4,90h1v1h-1z M7,90h1v1h-1z M8,90h1v1h-1z M10,90h1v1h-1z M12,90h1v1h-1z M14,90h1v1h-1z M15,90h1v1h-1z M17,90h1v1h-1z M20,90h1v1h-1z M22,90h1v1h-1z M23,90h1v1h-1z M25,90h1v1h-1z M28,90h1v1h-1z M30,90h1v1h-1z M32,90h1v1h-1z M35,90h1v1h-1z M38,90h1v1h-1z M40,90h1v1h-1z M48,90h1v1h-1z M50,90h1v1h-1z M51,90h1v1h-1z M52,90h1v1h-1z M56,90h1v1h-1z M60,90h1v1h-1z M62,90h1v1h-1z M63,90h1v1h-1z M64,90h1v1h-1z M65,90h1v1h-1z M68,90h1v1h-1z M71,90h1v1h-1z M72,90h1v1h-1z M74,90h1v1h-1z M77,90h1v1h-1z M79,90h1v1h-1z M80,90h1v1h-1z M83,90h1v1h-1z M86,90h1v1h-1z M88,90h1v1h-1z M89,90h1v1h-1z M95,90h1v1h-1z M96,90h1v1h-1z M98,90h1v1h-1z M99,90h1v1h-1z M101,90h1v1h-1z M103,90h1v1h-1z M107,90h1v1h-1z M5,91h1v1h-1z M6,91h1v1h-1z M7,91h1v1h-1z M8,91h1v1h-1z M11,91h1v1h-1z M14,91h1v1h-1z M15,91h1v1h-1z M16,91h1v1h-1z M17,91h1v1h-1z M21,91h1v1h-1z M22,91h1v1h-1z M24,91h1v1h-1z M25,91h1v1h-1z M26,91h1v1h-1z M27,91h1v1h-1z M28,91h1v1h-1z M29,91h1v1h-1z M31,91h1v1h-1z M33,91h1v1h-1z M34,91h1v1h-1z M35,91h1v1h-1z M37,91h1v1h-1z M41,91h1v1h-1z M42,91h1v1h-1z M44,91h1v1h-1z M46,91h1v1h-1z M47,91h1v1h-1z M49,91h1v1h-1z M51,91h1v1h-1z M54,91h1v1h-1z M56,91h1v1h-1z M59,91h1v1h-1z M61,91h1v1h-1z M68,91h1v1h-1z M74,91h1v1h-1z M75,91h1v1h-1z M76,91h1v1h-1z M80,91h1v1h-1z M81,91h1v1h-1z M82,91h1v1h-1z M83,91h1v1h-1z M85,91h1v1h-1z M86,91h1v1h-1z M87,91h1v1h-1z M89,91h1v1h-1z M90,91h1v1h-1z M91,91h1v1h-1z M92,91h1v1h-1z M93,91h1v1h-1z M97,91h1v1h-1z M98,91h1v1h-1z M100,91h1v1h-1z M103,91h1v1h-1z M108,91h1v1h-1z M4,92h1v1h-1z M5,92h1v1h-1z M6,92h1v1h-1z M7,92h1v1h-1z M9,92h1v1h-1z M10,92h1v1h-1z M11,92h1v1h-1z M14,92h1v1h-1z M17,92h1v1h-1z M18,92h1v1h-1z M21,92h1v1h-1z M22,92h1v1h-1z M23,92h1v1h-1z M26,92h1v1h-1z M27,92h1v1h-1z M28,92h1v1h-1z M31,92h1v1h-1z M34,92h1v1h-1z M35,92h1v1h-1z M37,92h1v1h-1z M39,92h1v1h-1z M40,92h1v1h-1z M42,92h1v1h-1z M43,92h1v1h-1z M44,92h1v1h-1z M47,92h1v1h-1z M53,92h1v1h-1z M56,92h1v1h-1z M57,92h1v1h-1z M58,92h1v1h-1z M60,92h1v1h-1z M61,92h1v1h-1z M64,92h1v1h-1z M65,92h1v1h-1z M68,92h1v1h-1z M71,92h1v1h-1z M73,92h1v1h-1z M75,92h1v1h-1z M77,92h1v1h-1z M78,92h1v1h-1z M79,92h1v1h-1z M81,92h1v1h-1z M83,92h1v1h-1z M89,92h1v1h-1z M91,92h1v1h-1z M94,92h1v1h-1z M95,92h1v1h-1z M97,92h1v1h-1z M101,92h1v1h-1z M102,92h1v1h-1z M103,92h1v1h-1z M104,92h1v1h-1z M107,92h1v1h-1z M4,93h1v1h-1z M5,93h1v1h-1z M7,93h1v1h-1z M8,93h1v1h-1z M13,93h1v1h-1z M14,93h1v1h-1z M16,93h1v1h-1z M17,93h1v1h-1z M19,93h1v1h-1z M21,93h1v1h-1z M22,93h1v1h-1z M23,93h1v1h-1z M24,93h1v1h-1z M30,93h1v1h-1z M31,93h1v1h-1z M34,93h1v1h-1z M35,93h1v1h-1z M36,93h1v1h-1z M43,93h1v1h-1z M47,93h1v1h-1z M54,93h1v1h-1z M55,93h1v1h-1z M56,93h1v1h-1z M57,93h1v1h-1z M59,93h1v1h-1z M61,93h1v1h-1z M66,93h1v1h-1z M68,93h1v1h-1z M70,93h1v1h-1z M72,93h1v1h-1z M73,93h1v1h-1z M76,93h1v1h-1z M78,93h1v1h-1z M79,93h1v1h-1z M83,93h1v1h-1z M84,93h1v1h-1z M85,93h1v1h-1z M87,93h1v1h-1z M88,93h1v1h-1z M89,93h1v1h-1z M92,93h1v1h-1z M94,93h1v1h-1z M95,93h1v1h-1z M97,93h1v1h-1z M99,93h1v1h-1z M100,93h1v1h-1z M103,93h1v1h-1z M105,93h1v1h-1z M106,93h1v1h-1z M108,93h1v1h-1z M4,94h1v1h-1z M5,94h1v1h-1z M6,94h1v1h-1z M7,94h1v1h-1z M10,94h1v1h-1z M11,94h1v1h-1z M14,94h1v1h-1z M21,94h1v1h-1z M22,94h1v1h-1z M23,94h1v1h-1z M25,94h1v1h-1z M26,94h1v1h-1z M28,94h1v1h-1z M29,94h1v1h-1z M32,94h1v1h-1z M38,94h1v1h-1z M39,94h1v1h-1z M41,94h1v1h-1z M44,94h1v1h-1z M45,94h1v1h-1z M48,94h1v1h-1z M50,94h1v1h-1z M51,94h1v1h-1z M52,94h1v1h-1z M56,94h1v1h-1z M60,94h1v1h-1z M62,94h1v1h-1z M64,94h1v1h-1z M74,94h1v1h-1z M77,94h1v1h-1z M80,94h1v1h-1z M83,94h1v1h-1z M84,94h1v1h-1z M86,94h1v1h-1z M87,94h1v1h-1z M88,94h1v1h-1z M89,94h1v1h-1z M98,94h1v1h-1z M99,94h1v1h-1z M100,94h1v1h-1z M101,94h1v1h-1z M103,94h1v1h-1z M105,94h1v1h-1z M107,94h1v1h-1z M4,95h1v1h-1z M5,95h1v1h-1z M6,95h1v1h-1z M7,95h1v1h-1z M8,95h1v1h-1z M11,95h1v1h-1z M12,95h1v1h-1z M13,95h1v1h-1z M14,95h1v1h-1z M16,95h1v1h-1z M18,95h1v1h-1z M20,95h1v1h-1z M21,95h1v1h-1z M22,95h1v1h-1z M27,95h1v1h-1z M28,95h1v1h-1z M29,95h1v1h-1z M33,95h1v1h-1z M35,95h1v1h-1z M41,95h1v1h-1z M42,95h1v1h-1z M44,95h1v1h-1z M46,95h1v1h-1z M47,95h1v1h-1z M49,95h1v1h-1z M50,95h1v1h-1z M51,95h1v1h-1z M56,95h1v1h-1z M59,95h1v1h-1z M61,95h1v1h-1z M63,95h1v1h-1z M66,95h1v1h-1z M67,95h1v1h-1z M68,95h1v1h-1z M70,95h1v1h-1z M71,95h1v1h-1z M73,95h1v1h-1z M75,95h1v1h-1z M76,95h1v1h-1z M78,95h1v1h-1z M81,95h1v1h-1z M83,95h1v1h-1z M85,95h1v1h-1z M87,95h1v1h-1z M92,95h1v1h-1z M95,95h1v1h-1z M97,95h1v1h-1z M100,95h1v1h-1z M103,95h1v1h-1z M104,95h1v1h-1z M107,95h1v1h-1z M4,96h1v1h-1z M5,96h1v1h-1z M8,96h1v1h-1z M9,96h1v1h-1z M10,96h1v1h-1z M12,96h1v1h-1z M14,96h1v1h-1z M16,96h1v1h-1z M17,96h1v1h-1z M19,96h1v1h-1z M21,96h1v1h-1z M23,96h1v1h-1z M25,96h1v1h-1z M26,96h1v1h-1z M30,96h1v1h-1z M32,96h1v1h-1z M34,96h1v1h-1z M35,96h1v1h-1z M37,96h1v1h-1z M39,96h1v1h-1z M41,96h1v1h-1z M42,96h1v1h-1z M43,96h1v1h-1z M44,96h1v1h-1z M45,96h1v1h-1z M49,96h1v1h-1z M53,96h1v1h-1z M54,96h1v1h-1z M57,96h1v1h-1z M58,96h1v1h-1z M60,96h1v1h-1z M61,96h1v1h-1z M65,96h1v1h-1z M67,96h1v1h-1z M68,96h1v1h-1z M70,96h1v1h-1z M72,96h1v1h-1z M74,96h1v1h-1z M75,96h1v1h-1z M76,96h1v1h-1z M79,96h1v1h-1z M80,96h1v1h-1z M81,96h1v1h-1z M82,96h1v1h-1z M83,96h1v1h-1z M84,96h1v1h-1z M85,96h1v1h-1z M88,96h1v1h-1z M91,96h1v1h-1z M93,96h1v1h-1z M96,96h1v1h-1z M98,96h1v1h-1z M101,96h1v1h-1z M102,96h1v1h-1z M106,96h1v1h-1z M108,96h1v1h-1z M4,97h1v1h-1z M5,97h1v1h-1z M6,97h1v1h-1z M14,97h1v1h-1z M17,97h1v1h-1z M23,97h1v1h-1z M24,97h1v1h-1z M25,97h1v1h-1z M26,97h1v1h-1z M28,97h1v1h-1z M30,97h1v1h-1z M31,97h1v1h-1z M32,97h1v1h-1z M33,97h1v1h-1z M35,97h1v1h-1z M38,97h1v1h-1z M40,97h1v1h-1z M41,97h1v1h-1z M44,97h1v1h-1z M45,97h1v1h-1z M48,97h1v1h-1z M49,97h1v1h-1z M50,97h1v1h-1z M54,97h1v1h-1z M56,97h1v1h-1z M57,97h1v1h-1z M58,97h1v1h-1z M59,97h1v1h-1z M62,97h1v1h-1z M63,97h1v1h-1z M66,97h1v1h-1z M67,97h1v1h-1z M69,97h1v1h-1z M71,97h1v1h-1z M72,97h1v1h-1z M73,97h1v1h-1z M74,97h1v1h-1z M78,97h1v1h-1z M80,97h1v1h-1z M82,97h1v1h-1z M86,97h1v1h-1z M87,97h1v1h-1z M88,97h1v1h-1z M89,97h1v1h-1z M91,97h1v1h-1z M97,97h1v1h-1z M98,97h1v1h-1z M99,97h1v1h-1z M102,97h1v1h-1z M103,97h1v1h-1z M106,97h1v1h-1z M107,97h1v1h-1z M4,98h1v1h-1z M5,98h1v1h-1z M6,98h1v1h-1z M10,98h1v1h-1z M11,98h1v1h-1z M12,98h1v1h-1z M14,98h1v1h-1z M29,98h1v1h-1z M31,98h1v1h-1z M32,98h1v1h-1z M35,98h1v1h-1z M36,98h1v1h-1z M38,98h1v1h-1z M40,98h1v1h-1z M43,98h1v1h-1z M47,98h1v1h-1z M48,98h1v1h-1z M50,98h1v1h-1z M52,98h1v1h-1z M53,98h1v1h-1z M56,98h1v1h-1z M59,98h1v1h-1z M62,98h1v1h-1z M63,98h1v1h-1z M65,98h1v1h-1z M74,98h1v1h-1z M75,98h1v1h-1z M79,98h1v1h-1z M80,98h1v1h-1z M86,98h1v1h-1z M89,98h1v1h-1z M92,98h1v1h-1z M95,98h1v1h-1z M98,98h1v1h-1z M99,98h1v1h-1z M101,98h1v1h-1z M106,98h1v1h-1z M107,98h1v1h-1z M6,99h1v1h-1z M8,99h1v1h-1z M9,99h1v1h-1z M12,99h1v1h-1z M13,99h1v1h-1z M15,99h1v1h-1z M16,99h1v1h-1z M17,99h1v1h-1z M20,99h1v1h-1z M21,99h1v1h-1z M24,99h1v1h-1z M25,99h1v1h-1z M26,99h1v1h-1z M27,99h1v1h-1z M28,99h1v1h-1z M29,99h1v1h-1z M32,99h1v1h-1z M34,99h1v1h-1z M38,99h1v1h-1z M42,99h1v1h-1z M43,99h1v1h-1z M44,99h1v1h-1z M45,99h1v1h-1z M47,99h1v1h-1z M49,99h1v1h-1z M50,99h1v1h-1z M51,99h1v1h-1z M54,99h1v1h-1z M56,99h1v1h-1z M58,99h1v1h-1z M59,99h1v1h-1z M68,99h1v1h-1z M71,99h1v1h-1z M73,99h1v1h-1z M75,99h1v1h-1z M76,99h1v1h-1z M77,99h1v1h-1z M78,99h1v1h-1z M79,99h1v1h-1z M81,99h1v1h-1z M83,99h1v1h-1z M86,99h1v1h-1z M92,99h1v1h-1z M93,99h1v1h-1z M95,99h1v1h-1z M100,99h1v1h-1z M101,99h1v1h-1z M103,99h1v1h-1z M104,99h1v1h-1z M107,99h1v1h-1z M7,100h1v1h-1z M8,100h1v1h-1z M10,100h1v1h-1z M12,100h1v1h-1z M15,100h1v1h-1z M19,100h1v1h-1z M20,100h1v1h-1z M23,100h1v1h-1z M28,100h1v1h-1z M29,100h1v1h-1z M30,100h1v1h-1z M31,100h1v1h-1z M32,100h1v1h-1z M34,100h1v1h-1z M35,100h1v1h-1z M36,100h1v1h-1z M38,100h1v1h-1z M39,100h1v1h-1z M41,100h1v1h-1z M42,100h1v1h-1z M43,100h1v1h-1z M44,100h1v1h-1z M47,100h1v1h-1z M48,100h1v1h-1z M50,100h1v1h-1z M52,100h1v1h-1z M53,100h1v1h-1z M54,100h1v1h-1z M55,100h1v1h-1z M56,100h1v1h-1z M58,100h1v1h-1z M60,100h1v1h-1z M65,100h1v1h-1z M67,100h1v1h-1z M68,100h1v1h-1z M69,100h1v1h-1z M70,100h1v1h-1z M72,100h1v1h-1z M73,100h1v1h-1z M75,100h1v1h-1z M76,100h1v1h-1z M77,100h1v1h-1z M78,100h1v1h-1z M79,100h1v1h-1z M80,100h1v1h-1z M83,100h1v1h-1z M87,100h1v1h-1z M90,100h1v1h-1z M92,100h1v1h-1z M94,100h1v1h-1z M97,100h1v1h-1z M98,100h1v1h-1z M100,100h1v1h-1z M101,100h1v1h-1z M102,100h1v1h-1z M103,100h1v1h-1z M104,100h1v1h-1z M106,100h1v1h-1z M108,100h1v1h-1z M12,101h1v1h-1z M15,101h1v1h-1z M17,101h1v1h-1z M19,101h1v1h-1z M20,101h1v1h-1z M21,101h1v1h-1z M23,101h1v1h-1z M25,101h1v1h-1z M27,101h1v1h-1z M28,101h1v1h-1z M32,101h1v1h-1z M34,101h1v1h-1z M36,101h1v1h-1z M38,101h1v1h-1z M43,101h1v1h-1z M44,101h1v1h-1z M46,101h1v1h-1z M48,101h1v1h-1z M49,101h1v1h-1z M51,101h1v1h-1z M52,101h1v1h-1z M56,101h1v1h-1z M57,101h1v1h-1z M58,101h1v1h-1z M59,101h1v1h-1z M60,101h1v1h-1z M62,101h1v1h-1z M63,101h1v1h-1z M64,101h1v1h-1z M65,101h1v1h-1z M67,101h1v1h-1z M70,101h1v1h-1z M71,101h1v1h-1z M72,101h1v1h-1z M74,101h1v1h-1z M76,101h1v1h-1z M80,101h1v1h-1z M82,101h1v1h-1z M83,101h1v1h-1z M84,101h1v1h-1z M86,101h1v1h-1z M88,101h1v1h-1z M89,101h1v1h-1z M91,101h1v1h-1z M93,101h1v1h-1z M94,101h1v1h-1z M96,101h1v1h-1z M97,101h1v1h-1z M98,101h1v1h-1z M99,101h1v1h-1z M100,101h1v1h-1z M104,101h1v1h-1z M105,101h1v1h-1z M106,101h1v1h-1z M4,102h1v1h-1z M5,102h1v1h-1z M6,102h1v1h-1z M7,102h1v1h-1z M8,102h1v1h-1z M9,102h1v1h-1z M10,102h1v1h-1z M13,102h1v1h-1z M15,102h1v1h-1z M16,102h1v1h-1z M17,102h1v1h-1z M21,102h1v1h-1z M23,102h1v1h-1z M27,102h1v1h-1z M28,102h1v1h-1z M30,102h1v1h-1z M32,102h1v1h-1z M36,102h1v1h-1z M38,102h1v1h-1z M40,102h1v1h-1z M41,102h1v1h-1z M44,102h1v1h-1z M48,102h1v1h-1z M50,102h1v1h-1z M51,102h1v1h-1z M52,102h1v1h-1z M54,102h1v1h-1z M56,102h1v1h-1z M59,102h1v1h-1z M60,102h1v1h-1z M62,102h1v1h-1z M63,102h1v1h-1z M67,102h1v1h-1z M68,102h1v1h-1z M71,102h1v1h-1z M72,102h1v1h-1z M74,102h1v1h-1z M75,102h1v1h-1z M76,102h1v1h-1z M78,102h1v1h-1z M80,102h1v1h-1z M86,102h1v1h-1z M89,102h1v1h-1z M93,102h1v1h-1z M97,102h1v1h-1z M98,102h1v1h-1z M100,102h1v1h-1z M102,102h1v1h-1z M104,102h1v1h-1z M105,102h1v1h-1z M106,102h1v1h-1z M107,102h1v1h-1z M4,103h1v1h-1z M10,103h1v1h-1z M12,103h1v1h-1z M13,103h1v1h-1z M15,103h1v1h-1z M16,103h1v1h-1z M17,103h1v1h-1z M18,103h1v1h-1z M21,103h1v1h-1z M22,103h1v1h-1z M24,103h1v1h-1z M28,103h1v1h-1z M32,103h1v1h-1z M34,103h1v1h-1z M35,103h1v1h-1z M37,103h1v1h-1z M38,103h1v1h-1z M39,103h1v1h-1z M42,103h1v1h-1z M44,103h1v1h-1z M47,103h1v1h-1z M49,103h1v1h-1z M50,103h1v1h-1z M52,103h1v1h-1z M56,103h1v1h-1z M61,103h1v1h-1z M62,103h1v1h-1z M66,103h1v1h-1z M68,103h1v1h-1z M69,103h1v1h-1z M70,103h1v1h-1z M71,103h1v1h-1z M73,103h1v1h-1z M74,103h1v1h-1z M75,103h1v1h-1z M76,103h1v1h-1z M80,103h1v1h-1z M81,103h1v1h-1z M82,103h1v1h-1z M83,103h1v1h-1z M85,103h1v1h-1z M89,103h1v1h-1z M90,103h1v1h-1z M92,103h1v1h-1z M94,103h1v1h-1z M95,103h1v1h-1z M99,103h1v1h-1z M100,103h1v1h-1z M104,103h1v1h-1z M107,103h1v1h-1z M108,103h1v1h-1z M4,104h1v1h-1z M6,104h1v1h-1z M7,104h1v1h-1z M8,104h1v1h-1z M10,104h1v1h-1z M12,104h1v1h-1z M14,104h1v1h-1z M15,104h1v1h-1z M25,104h1v1h-1z M28,104h1v1h-1z M29,104h1v1h-1z M30,104h1v1h-1z M31,104h1v1h-1z M32,104h1v1h-1z M37,104h1v1h-1z M40,104h1v1h-1z M42,104h1v1h-1z M43,104h1v1h-1z M44,104h1v1h-1z M46,104h1v1h-1z M47,104h1v1h-1z M49,104h1v1h-1z M51,104h1v1h-1z M52,104h1v1h-1z M53,104h1v1h-1z M54,104h1v1h-1z M55,104h1v1h-1z M56,104h1v1h-1z M58,104h1v1h-1z M59,104h1v1h-1z M61,104h1v1h-1z M63,104h1v1h-1z M64,104h1v1h-1z M66,104h1v1h-1z M67,104h1v1h-1z M69,104h1v1h-1z M70,104h1v1h-1z M76,104h1v1h-1z M77,104h1v1h-1z M78,104h1v1h-1z M79,104h1v1h-1z M80,104h1v1h-1z M84,104h1v1h-1z M85,104h1v1h-1z M86,104h1v1h-1z M89,104h1v1h-1z M91,104h1v1h-1z M93,104h1v1h-1z M94,104h1v1h-1z M95,104h1v1h-1z M100,104h1v1h-1z M101,104h1v1h-1z M102,104h1v1h-1z M103,104h1v1h-1z M104,104h1v1h-1z M107,104h1v1h-1z M108,104h1v1h-1z M4,105h1v1h-1z M6,105h1v1h-1z M7,105h1v1h-1z M8,105h1v1h-1z M10,105h1v1h-1z M15,105h1v1h-1z M16,105h1v1h-1z M17,105h1v1h-1z M18,105h1v1h-1z M20,105h1v1h-1z M22,105h1v1h-1z M23,105h1v1h-1z M24,105h1v1h-1z M25,105h1v1h-1z M26,105h1v1h-1z M28,105h1v1h-1z M29,105h1v1h-1z M30,105h1v1h-1z M33,105h1v1h-1z M34,105h1v1h-1z M40,105h1v1h-1z M43,105h1v1h-1z M44,105h1v1h-1z M45,105h1v1h-1z M49,105h1v1h-1z M50,105h1v1h-1z M52,105h1v1h-1z M54,105h1v1h-1z M56,105h1v1h-1z M57,105h1v1h-1z M58,105h1v1h-1z M61,105h1v1h-1z M62,105h1v1h-1z M63,105h1v1h-1z M64,105h1v1h-1z M67,105h1v1h-1z M68,105h1v1h-1z M69,105h1v1h-1z M75,105h1v1h-1z M76,105h1v1h-1z M81,105h1v1h-1z M88,105h1v1h-1z M92,105h1v1h-1z M93,105h1v1h-1z M95,105h1v1h-1z M96,105h1v1h-1z M97,105h1v1h-1z M100,105h1v1h-1z M102,105h1v1h-1z M106,105h1v1h-1z M107,105h1v1h-1z M108,105h1v1h-1z M4,106h1v1h-1z M6,106h1v1h-1z M7,106h1v1h-1z M8,106h1v1h-1z M10,106h1v1h-1z M16,106h1v1h-1z M17,106h1v1h-1z M18,106h1v1h-1z M19,106h1v1h-1z M21,106h1v1h-1z M22,106h1v1h-1z M26,106h1v1h-1z M29,106h1v1h-1z M31,106h1v1h-1z M32,106h1v1h-1z M35,106h1v1h-1z M36,106h1v1h-1z M38,106h1v1h-1z M41,106h1v1h-1z M44,106h1v1h-1z M47,106h1v1h-1z M48,106h1v1h-1z M50,106h1v1h-1z M53,106h1v1h-1z M57,106h1v1h-1z M62,106h1v1h-1z M63,106h1v1h-1z M64,106h1v1h-1z M65,106h1v1h-1z M68,106h1v1h-1z M72,106h1v1h-1z M74,106h1v1h-1z M75,106h1v1h-1z M79,106h1v1h-1z M80,106h1v1h-1z M81,106h1v1h-1z M83,106h1v1h-1z M86,106h1v1h-1z M88,106h1v1h-1z M89,106h1v1h-1z M98,106h1v1h-1z M104,106h1v1h-1z M4,107h1v1h-1z M10,107h1v1h-1z M12,107h1v1h-1z M17,107h1v1h-1z M18,107h1v1h-1z M20,107h1v1h-1z M21,107h1v1h-1z M22,107h1v1h-1z M24,107h1v1h-1z M25,107h1v1h-1z M32,107h1v1h-1z M33,107h1v1h-1z M35,107h1v1h-1z M42,107h1v1h-1z M44,107h1v1h-1z M46,107h1v1h-1z M54,107h1v1h-1z M55,107h1v1h-1z M56,107h1v1h-1z M58,107h1v1h-1z M59,107h1v1h-1z M62,107h1v1h-1z M65,107h1v1h-1z M68,107h1v1h-1z M71,107h1v1h-1z M73,107h1v1h-1z M77,107h1v1h-1z M78,107h1v1h-1z M80,107h1v1h-1z M82,107h1v1h-1z M83,107h1v1h-1z M89,107h1v1h-1z M92,107h1v1h-1z M93,107h1v1h-1z M94,107h1v1h-1z M95,107h1v1h-1z M98,107h1v1h-1z M99,107h1v1h-1z M4,108h1v1h-1z M5,108h1v1h-1z M6,108h1v1h-1z M7,108h1v1h-1z M8,108h1v1h-1z M9,108h1v1h-1z M10,108h1v1h-1z M12,108h1v1h-1z M13,108h1v1h-1z M14,108h1v1h-1z M15,108h1v1h-1z M16,108h1v1h-1z M19,108h1v1h-1z M20,108h1v1h-1z M23,108h1v1h-1z M25,108h1v1h-1z M27,108h1v1h-1z M30,108h1v1h-1z M36,108h1v1h-1z M37,108h1v1h-1z M39,108h1v1h-1z M41,108h1v1h-1z M44,108h1v1h-1z M45,108h1v1h-1z M46,108h1v1h-1z M47,108h1v1h-1z M48,108h1v1h-1z M51,108h1v1h-1z M52,108h1v1h-1z M54,108h1v1h-1z M55,108h1v1h-1z M56,108h1v1h-1z M61,108h1v1h-1z M62,108h1v1h-1z M63,108h1v1h-1z M64,108h1v1h-1z M65,108h1v1h-1z M66,108h1v1h-1z M73,108h1v1h-1z M76,108h1v1h-1z M77,108h1v1h-1z M78,108h1v1h-1z M80,108h1v1h-1z M82,108h1v1h-1z M83,108h1v1h-1z M86,108h1v1h-1z M87,108h1v1h-1z M88,108h1v1h-1z M89,108h1v1h-1z M90,108h1v1h-1z M93,108h1v1h-1z M96,108h1v1h-1z M97,108h1v1h-1z M99,108h1v1h-1z M105,108h1v1h-1z M108,108h1v1h-1z" fill="#000000"/>
</svg>
