<?xml version="1.0" encoding="UTF-8"?>
<!DOCTYPE svg PUBLIC "-//W3C//DTD SVG 1.1//EN" "http://www.w3.org/Graphics/SVG/1.1/DTD/svg11.dtd">
<svg xmlns="http://www.w3.org/2000/svg" version="1.1" viewBox="0 0 113 113" stroke="none">
	<rect width="100%" height="100%" fill="#FFFFFF"/>
	<path d="M4,4h1v1h-1z M5,4h1v1h-1z M6,4h1v1h-1z M7,4h1v1h-1z M8,4h1v1h-1z M9,4h1v1h-1z M10,4h1v1h-1z M12,4h1v1h-1z M13,4h1v1h-1z M16,4h1v1h-1z M17,4h1v1h-1z M20,4h1v1h-1z M21,4h1v1h-1z M26,4h1v1h-1z M28,4h1v1h-1z M32,4h1v1h-1z M33,4h1v1h-1z M36,4h1v1h-1z M37,4h1v1h-1z M38,4h1v1h-1z M40,4h1v1h-1z M41,4h1v1h-1z M43,4h1v1h-1z M45,4h1v1h-1z M47,4h1v1h-1z M48,4h1v1h-1z M55,4h1v1h-1z M56,4h1v1h-1z M57,4h1v1h-1z M62,4h1v1h-1z M64,4h1v1h-1z M65,4h1v1h-1z M66,4h1v1h-1z M67,4h1v1h-1z M69,4h1v1h-1z M72,4h1v1h-1z M76,4h1v1h-1z M78,4h1v1h-1z M82,4h1v1h-1z M83,4h1v1h-1z M85,4h1v1h-1z M86,4h1v1h-1z M87,4h1v1h-1z M88,4h1v1h-1z M91,4h1v1h-1z M92,4h1v1h-1z M93,4h1v1h-1z M94,4h1v1h-1z M95,4h1v1h-1z M96,4h1v1h-1z M97,4h1v1h-1z M98,4h1v1h-1z M102,4h1v1h-1z M103,4h1v1h-1z M104,4h1v1h-1z M105,4h1v1h-1z M106,4h1v1h-1z M107,4h1v1h-1z M108,4h1v1h-1z M4,5h1v1h-1z M10,5h1v1h-1z M12,5h1v1h-1z M16,5h1v1h-1z M17,5h1v1h-1z M18,5h1v1h-1z M21,5h1v1h-1z M23,5h1v1h-1z M24,5h1v1h-1z M28,5h1v1h-1z M29,5h1v1h-1z M30,5h1v1h-1z M33,5h1v1h-1z M34,5h1v1h-1z M37,5h1v1h-1z M39,5h1v1h-1z M42,5h1v1h-1z M45,5h1v1h-1z M46,5h1v1h-1z M47,5h1v1h-1z M49,5h1v1h-1z M52,5h1v1h-1z M53,5h1v1h-1z M54,5h1v1h-1z M55,5h1v1h-1z M56,5h1v1h-1z M58,5h1v1h-1z M59,5h1v1h-1z M61,5h1v1h-1z M66,5h1v1h-1z M67,5h1v1h-1z M69,5h1v1h-1z M70,5h1v1h-1z M72,5h1v1h-1z M76,5h1v1h-1z M78,5h1v1h-1z M80,5h1v1h-1z M81,5h1v1h-1z M82,5h1v1h-1z M83,5h1v1h-1z M85,5h1v1h-1z M90,5h1v1h-1z M91,5h1v1h-1z M94,5h1v1h-1z M98,5h1v1h-1z M102,5h1v1h-1z M108,5h1v1h-1z M4,6h1v1h-1z M6,6h1v1h-1z M7,6h1v1h-1z M8,6h1v1h-1z M10,6h1v1h-1z M12,6h1v1h-1z M13,6h1v1h-1z M15,6h1v1h-1z M17,6h1v1h-1z M20,6h1v1h-1z M21,6h1v1h-1z M22,6h1v1h-1z M23,6h1v1h-1z M24,6h1v1h-1z M25,6h1v1h-1z M26,6h1v1h-1z M29,6h1v1h-1z M30,6h1v1h-1z M32,6h1v1h-1z M34,6h1v1h-1z M35,6h1v1h-1z M37,6h1v1h-1z M39,6h1v1h-1z M42,6h1v1h-1z M44,6h1v1h-1z M46,6h1v1h-1z M49,6h1v1h-1z M53,6h1v1h-1z M54,6h1v1h-1z M56,6h1v1h-1z M58,6h1v1h-1z M61,6h1v1h-1z M62,6h1v1h-1z M68,6h1v1h-1z M69,6h1v1h-1z M70,6h1v1h-1z M71,6h1v1h-1z M77,6h1v1h-1z M78,6h1v1h-1z M79,6h1v1h-1z M80,6h1v1h-1z M81,6h1v1h-1z M82,6h1v1h-1z M83,6h1v1h-1z M85,6h1v1h-1z M86,6h1v1h-1z M92,6h1v1h-1z M94,6h1v1h-1z M98,6h1v1h-1z M99,6h1v1h-1z M102,6h1v1h-1z M104,6h1v1h-1z M105,6h1v1h-1z M106,6h1v1h-1z M108,6h1v1h-1z M4,7h1v1h-1z M6,7h1v1h-1z M7,7h1v1h-1z M8,7h1v1h-1z M10,7h1v1h-1z M12,7h1v1h-1z M13,7h1v1h-1z M14,7h1v1h-1z M15,7h1v1h-1z M16,7h1v1h-1z M17,7h1v1h-1z M18,7h1v1h-1z M19,7h1v1h-1z M22,7h1v1h-1z M23,7h1v1h-1z M24,7h1v1h-1z M25,7h1v1h-1z M27,7h1v1h-1z M28,7h1v1h-1z M29,7h1v1h-1z M32,7h1v1h-1z M34,7h1v1h-1z M38,7h1v1h-1z M42,7h1v1h-1z M44,7h1v1h-1z M45,7h1v1h-1z M46,7h1v1h-1z M47,7h1v1h-1z M49,7h1v1h-1z M51,7h1v1h-1z M54,7h1v1h-1z M58,7h1v1h-1z M62,7h1v1h-1z M63,7h1v1h-1z M64,7h1v1h-1z M65,7h1v1h-1z M67,7h1v1h-1z M69,7h1v1h-1z M70,7h1v1h-1z M72,7h1v1h-1z M73,7h1v1h-1z M74,7h1v1h-1z M78,7h1v1h-1z M81,7h1v1h-1z M82,7h1v1h-1z M84,7h1v1h-1z M85,7h1v1h-1z M86,7h1v1h-1z M87,7h1v1h-1z M88,7h1v1h-1z M92,7h1v1h-1z M95,7h1v1h-1z M97,7h1v1h-1z M100,7h1v1h-1z M102,7h1v1h-1z M104,7h1v1h-1z M105,7h1v1h-1z M106,7h1v1h-1z M108,7h1v1h-1z M4,8h1v1h-1z M6,8h1v1h-1z M7,8h1v1h-1z M8,8h1v1h-1z M10,8h1v1h-1z M14,8h1v1h-1z M16,8h1v1h-1z M17,8h1v1h-1z M18,8h1v1h-1z M19,8h1v1h-1z M26,8h1v1h-1z M27,8h1v1h-1z M28,8h1v1h-1z M29,8h1v1h-1z M30,8h1v1h-1z M31,8h1v1h-1z M32,8h1v1h-1z M33,8h1v1h-1z M34,8h1v1h-1z M35,8h1v1h-1z M38,8h1v1h-1z M40,8h1v1h-1z M42,8h1v1h-1z M44,8h1v1h-1z M45,8h1v1h-1z M46,8h1v1h-1z M47,8h1v1h-1z M51,8h1v1h-1z M52,8h1v1h-1z M53,8h1v1h-1z M54,8h1v1h-1z M55,8h1v1h-1z M56,8h1v1h-1z M58,8h1v1h-1z M60,8h1v1h-1z M63,8h1v1h-1z M64,8h1v1h-1z M65,8h1v1h-1z M66,8h1v1h-1z M68,8h1v1h-1z M69,8h1v1h-1z M71,8h1v1h-1z M72,8h1v1h-1z M73,8h1v1h-1z M75,8h1v1h-1z M76,8h1v1h-1z M77,8h1v1h-1z M78,8h1v1h-1z M79,8h1v1h-1z M80,8h1v1h-1z M84,8h1v1h-1z M86,8h1v1h-1z M88,8h1v1h-1z M89,8h1v1h-1z M90,8h1v1h-1z M92,8h1v1h-1z M95,8h1v1h-1z M96,8h1v1h-1z M99,8h1v1h-1z M100,8h1v1h-1z M102,8h1v1h-1z M104,8h1v1h-1z M105,8h1v1h-1z M106,8h1v1h-1z M108,8h1v1h-1z M4,9h1v1h-1z M10,9h1v1h-1z M12,9h1v1h-1z M13,9h1v1h-1z M16,9h1v1h-1z M20,9h1v1h-1z M22,9h1v1h-1z M23,9h1v1h-1z M24,9h1v1h-1z M25,9h1v1h-1z M28,9h1v1h-1z M32,9h1v1h-1z M33,9h1v1h-1z M34,9h1v1h-1z M36,9h1v1h-1z M40,9h1v1h-1z M42,9h1v1h-1z M43,9h1v1h-1z M45,9h1v1h-1z M46,9h1v1h-1z M49,9h1v1h-1z M52,9h1v1h-1z M56,9h1v1h-1z M57,9h1v1h-1z M58,9h1v1h-1z M60,9h1v1h-1z M61,9h1v1h-1z M65,9h1v1h-1z M66,9h1v1h-1z M68,9h1v1h-1z M70,9h1v1h-1z M73,9h1v1h-1z M76,9h1v1h-1z M80,9h1v1h-1z M81,9h1v1h-1z M82,9h1v1h-1z M83,9h1v1h-1z M85,9h1v1h-1z M87,9h1v1h-1z M88,9h1v1h-1z M90,9h1v1h-1z M91,9h1v1h-1z M92,9h1v1h-1z M93,9h1v1h-1z M94,9h1v1h-1z M97,9h1v1h-1z M99,9h1v1h-1z M102,9h1v1h-1z M108,9h1v1h-1z M4,10h1v1h-1z M5,10h1v1h-1z M6,10h1v1h-1z M7,10h1v1h-1z M8,10h1v1h-1z M9,10h1v1h-1z M10,10h1v1h-1z M12,10h1v1h-1z M14,10h1v1h-1z M16,10h1v1h-1z M18,10h1v1h-1z M20,10h1v1h-1z M22,10h1v1h-1z M24,10h1v1h-1z M26,10h1v1h-1z M28,10h1v1h-1z M30,10h1v1h-1z M32,10h1v1h-1z M34,10h1v1h-1z M36,10h1v1h-1z M38,10h1v1h-1z M40,10h1v1h-1z M42,10h1v1h-1z M44,10h1v1h-1z M46,10h1v1h-1z M48,10h1v1h-1z M50,10h1v1h-1z M52,10h1v1h-1z M54,10h1v1h-1z M56,10h1v1h-1z M58,10h1v1h-1z M60,10h1v1h-1z M62,10h1v1h-1z M64,10h1v1h-1z M66,10h1v1h-1z M68,10h1v1h-1z M70,10h1v1h-1z M72,10h1v1h-1z M74,10h1v1h-1z M76,10h1v1h-1z M78,10h1v1h-1z M80,10h1v1h-1z M82,10h1v1h-1z M84,10h1v1h-1z M86,10h1v1h-1z M88,10h1v1h-1z M90,10h1v1h-1z M92,10h1v1h-1z M94,10h1v1h-1z M96,10h1v1h-1z M98,10h1v1h-1z M100,10h1v1h-1z M102,10h1v1h-1z M103,10h1v1h-1z M104,10h1v1h-1z M105,10h1v1h-1z M106,10h1v1h-1z M107,10h1v1h-1z M108,10h1v1h-1z M14,11h1v1h-1z M15,11h1v1h-1z M17,11h1v1h-1z M18,11h1v1h-1z M21,11h1v1h-1z M25,11h1v1h-1z M28,11h1v1h-1z M32,11h1v1h-1z M35,11h1v1h-1z M42,11h1v1h-1z M44,11h1v1h-1z M45,11h1v1h-1z M47,11h1v1h-1z M49,11h1v1h-1z M50,11h1v1h-1z M52,11h1v1h-1z M56,11h1v1h-1z M59,11h1v1h-1z M61,11h1v1h-1z M62,11h1v1h-1z M63,11h1v1h-1z M66,11h1v1h-1z M68,11h1v1h-1z M70,11h1v1h-1z M75,11h1v1h-1z M76,11h1v1h-1z M80,11h1v1h-1z M83,11h1v1h-1z M86,11h1v1h-1z M89,11h1v1h-1z M90,11h1v1h-1z M91,11h1v1h-1z M92,11h1v1h-1z M94,11h1v1h-1z M95,11h1v1h-1z M4,12h1v1h-1z M5,12h1v1h-1z M8,12h1v1h-1z M9,12h1v1h-1z M10,12h1v1h-1z M13,12h1v1h-1z M14,12h1v1h-1z M21,12h1v1h-1z M22,12h1v1h-1z M24,12h1v1h-1z M25,12h1v1h-1z M26,12h1v1h-1z M28,12h1v1h-1z M29,12h1v1h-1z M30,12h1v1h-1z M31,12h1v1h-1z M32,12h1v1h-1z M33,12h1v1h-1z M34,12h1v1h-1z M36,12h1v1h-1z M37,12h1v1h-1z M39,12h1v1h-1z M40,12h1v1h-1z M42,12h1v1h-1z M50,12h1v1h-1z M51,12h1v1h-1z M52,12h1v1h-1z M53,12h1v1h-1z M54,12h1v1h-1z M55,12h1v1h-1z M56,12h1v1h-1z M57,12h1v1h-1z M58,12h1v1h-1z M60,12h1v1h-1z M63,12h1v1h-1z M65,12h1v1h-1z M66,12h1v1h-1z M68,12h1v1h-1z M69,12h1v1h-1z M70,12h1v1h-1z M72,12h1v1h-1z M75,12h1v1h-1z M76,12h1v1h-1z M77,12h1v1h-1z M78,12h1v1h-1z M79,12h1v1h-1z M80,12h1v1h-1z M81,12h1v1h-1z M82,12h1v1h-1z M83,12h1v1h-1z M85,12h1v1h-1z M88,12h1v1h-1z M89,12h1v1h-1z M90,12h1v1h-1z M91,12h1v1h-1z M93,12h1v1h-1z M94,12h1v1h-1z M95,12h1v1h-1z M97,12h1v1h-1z M99,12h1v1h-1z M100,12h1v1h-1z M103,12h1v1h-1z M105,12h1v1h-1z M106,12h1v1h-1z M107,12h1v1h-1z M108,12h1v1h-1z M7,13h1v1h-1z M13,13h1v1h-1z M16,13h1v1h-1z M20,13h1v1h-1z M22,13h1v1h-1z M23,13h1v1h-1z M25,13h1v1h-1z M27,13h1v1h-1z M28,13h1v1h-1z M29,13h1v1h-1z M30,13h1v1h-1z M36,13h1v1h-1z M40,13h1v1h-1z M42,13h1v1h-1z M47,13h1v1h-1z M50,13h1v1h-1z M51,13h1v1h-1z M52,13h1v1h-1z M55,13h1v1h-1z M57,13h1v1h-1z M58,13h1v1h-1z M59,13h1v1h-1z M60,13h1v1h-1z M61,13h1v1h-1z M63,13h1v1h-1z M64,13h1v1h-1z M65,13h1v1h-1z M67,13h1v1h-1z M70,13h1v1h-1z M71,13h1v1h-1z M72,13h1v1h-1z M76,13h1v1h-1z M78,13h1v1h-1z M80,13h1v1h-1z M81,13h1v1h-1z M82,13h1v1h-1z M84,13h1v1h-1z M86,13h1v1h-1z M89,13h1v1h-1z M92,13h1v1h-1z M94,13h1v1h-1z M96,13h1v1h-1z M101,13h1v1h-1z M102,13h1v1h-1z M104,13h1v1h-1z M105,13h1v1h-1z M106,13h1v1h-1z M107,13h1v1h-1z M4,14h1v1h-1z M5,14h1v1h-1z M8,14h1v1h-1z M9,14h1v1h-1z M10,14h1v1h-1z M11,14h1v1h-1z M12,14h1v1h-1z M14,14h1v1h-1z M15,14h1v1h-1z M17,14h1v1h-1z M21,14h1v1h-1z M22,14h1v1h-1z M23,14h1v1h-1z M24,14h1v1h-1z M26,14h1v1h-1z M27,14h1v1h-1z M31,14h1v1h-1z M32,14h1v1h-1z M36,14h1v1h-1z M38,14h1v1h-1z M43,14h1v1h-1z M44,14h1v1h-1z M45,14h1v1h-1z M47,14h1v1h-1z M48,14h1v1h-1z M50,14h1v1h-1z M52,14h1v1h-1z M53,14h1v1h-1z M55,14h1v1h-1z M59,14h1v1h-1z M60,14h1v1h-1z M62,14h1v1h-1z M63,14h1v1h-1z M65,14h1v1h-1z M68,14h1v1h-1z M72,14h1v1h-1z M74,14h1v1h-1z M75,14h1v1h-1z M76,14h1v1h-1z M77,14h1v1h-1z M80,14h1v1h-1z M84,14h1v1h-1z M86,14h1v1h-1z M88,14h1v1h-1z M89,14h1v1h-1z M92,14h1v1h-1z M95,14h1v1h-1z M96,14h1v1h-1z M98,14h1v1h-1z M101,14h1v1h-1z M102,14h1v1h-1z M103,14h1v1h-1z M104,14h1v1h-1z M105,14h1v1h-1z M106,14h1v1h-1z M7,15h1v1h-1z M11,15h1v1h-1z M12,15h1v1h-1z M13,15h1v1h-1z M17,15h1v1h-1z M18,15h1v1h-1z M19,15h1v1h-1z M23,15h1v1h-1z M25,15h1v1h-1z M30,15h1v1h-1z M32,15h1v1h-1z M35,15h1v1h-1z M38,15h1v1h-1z M42,15h1v1h-1z M44,15h1v1h-1z M45,15h1v1h-1z M46,15h1v1h-1z M49,15h1v1h-1z M51,15h1v1h-1z M56,15h1v1h-1z M58,15h1v1h-1z M61,15h1v1h-1z M65,15h1v1h-1z M66,15h1v1h-1z M68,15h1v1h-1z M71,15h1v1h-1z M73,15h1v1h-1z M75,15h1v1h-1z M77,15h1v1h-1z M78,15h1v1h-1z M80,15h1v1h-1z M85,15h1v1h-1z M87,15h1v1h-1z M89,15h1v1h-1z M90,15h1v1h-1z M92,15h1v1h-1z M99,15h1v1h-1z M100,15h1v1h-1z M101,15h1v1h-1z M104,15h1v1h-1z M107,15h1v1h-1z M5,16h1v1h-1z M7,16h1v1h-1z M10,16h1v1h-1z M12,16h1v1h-1z M13,16h1v1h-1z M16,16h1v1h-1z M19,16h1v1h-1z M22,16h1v1h-1z M23,16h1v1h-1z M24,16h1v1h-1z M29,16h1v1h-1z M31,16h1v1h-1z M32,16h1v1h-1z M33,16h1v1h-1z M34,16h1v1h-1z M35,16h1v1h-1z M36,16h1v1h-1z M37,16h1v1h-1z M43,16h1v1h-1z M46,16h1v1h-1z M48,16h1v1h-1z M49,16h1v1h-1z M52,16h1v1h-1z M54,16h1v1h-1z M56,16h1v1h-1z M57,16h1v1h-1z M58,16h1v1h-1z M59,16h1v1h-1z M61,16h1v1h-1z M64,16h1v1h-1z M66,16h1v1h-1z M67,16h1v1h-1z M69,16h1v1h-1z M70,16h1v1h-1z M71,16h1v1h-1z M73,16h1v1h-1z M74,16h1v1h-1z M75,16h1v1h-1z M76,16h1v1h-1z M78,16h1v1h-1z M80,16h1v1h-1z M81,16h1v1h-1z M82,16h1v1h-1z M83,16h1v1h-1z M84,16h1v1h-1z M88,16h1v1h-1z M90,16h1v1h-1z M92,16h1v1h-1z M96,16h1v1h-1z M100,16h1v1h-1z M101,16h1v1h-1z M108,16h1v1h-1z M5,17h1v1h-1z M6,17h1v1h-1z M7,17h1v1h-1z M11,17h1v1h-1z M13,17h1v1h-1z M14,17h1v1h-1z M16,17h1v1h-1z M17,17h1v1h-1z M20,17h1v1h-1z M21,17h1v1h-1z M23,17h1v1h-1z M25,17h1v1h-1z M26,17h1v1h-1z M27,17h1v1h-1z M28,17h1v1h-1z M29,17h1v1h-1z M30,17h1v1h-1z M33,17h1v1h-1z M34,17h1v1h-1z M35,17h1v1h-1z M40,17h1v1h-1z M43,17h1v1h-1z M45,17h1v1h-1z M47,17h1v1h-1z M48,17h1v1h-1z M51,17h1v1h-1z M52,17h1v1h-1z M54,17h1v1h-1z M56,17h1v1h-1z M59,17h1v1h-1z M60,17h1v1h-1z M61,17h1v1h-1z M62,17h1v1h-1z M67,17h1v1h-1z M68,17h1v1h-1z M69,17h1v1h-1z M70,17h1v1h-1z M72,17h1v1h-1z M73,17h1v1h-1z M74,17h1v1h-1z M75,17h1v1h-1z M76,17h1v1h-1z M77,17h1v1h-1z M79,17h1v1h-1z M83,17h1v1h-1z M84,17h1v1h-1z M85,17h1v1h-1z M86,17h1v1h-1z M87,17h1v1h-1z M88,17h1v1h-1z M94,17h1v1h-1z M95,17h1v1h-1z M96,17h1v1h-1z M97,17h1v1h-1z M98,17h1v1h-1z M99,17h1v1h-1z M101,17h1v1h-1z M102,17h1v1h-1z M103,17h1v1h-1z M104,17h1v1h-1z M107,17h1v1h-1z M5,18h1v1h-1z M6,18h1v1h-1z M7,18h1v1h-1z M10,18h1v1h-1z M11,18h1v1h-1z M12,18h1v1h-1z M13,18h1v1h-1z M14,18h1v1h-1z M16,18h1v1h-1z M22,18h1v1h-1z M23,18h1v1h-1z M25,18h1v1h-1z M26,18h1v1h-1z M28,18h1v1h-1z M29,18h1v1h-1z M32,18h1v1h-1z M36,18h1v1h-1z M38,18h1v1h-1z M39,18h1v1h-1z M41,18h1v1h-1z M43,18h1v1h-1z M44,18h1v1h-1z M48,18h1v1h-1z M50,18h1v1h-1z M51,18h1v1h-1z M52,18h1v1h-1z M56,18h1v1h-1z M59,18h1v1h-1z M62,18h1v1h-1z M64,18h1v1h-1z M65,18h1v1h-1z M67,18h1v1h-1z M68,18h1v1h-1z M71,18h1v1h-1z M72,18h1v1h-1z M74,18h1v1h-1z M77,18h1v1h-1z M84,18h1v1h-1z M86,18h1v1h-1z M88,18h1v1h-1z M92,18h1v1h-1z M95,18h1v1h-1z M96,18h1v1h-1z M97,18h1v1h-1z M98,18h1v1h-1z M99,18h1v1h-1z M104,18h1v1h-1z M105,18h1v1h-1z M106,18h1v1h-1z M107,18h1v1h-1z M4,19h1v1h-1z M5,19h1v1h-1z M7,19h1v1h-1z M8,19h1v1h-1z M9,19h1v1h-1z M13,19h1v1h-1z M19,19h1v1h-1z M21,19h1v1h-1z M27,19h1v1h-1z M29,19h1v1h-1z M32,19h1v1h-1z M33,19h1v1h-1z M34,19h1v1h-1z M37,19h1v1h-1z M38,19h1v1h-1z M44,19h1v1h-1z M46,19h1v1h-1z M47,19h1v1h-1z M49,19h1v1h-1z M50,19h1v1h-1z M53,19h1v1h-1z M54,19h1v1h-1z M56,19h1v1h-1z M58,19h1v1h-1z M59,19h1v1h-1z M61,19h1v1h-1z M65,19h1v1h-1z M68,19h1v1h-1z M71,19h1v1h-1z M73,19h1v1h-1z M74,19h1v1h-1z M75,19h1v1h-1z M77,19h1v1h-1z M80,19h1v1h-1z M81,19h1v1h-1z M83,19h1v1h-1z M87,19h1v1h-1z M89,19h1v1h-1z M90,19h1v1h-1z M92,19h1v1h-1z M93,19h1v1h-1z M95,19h1v1h-1z M100,19h1v1h-1z M101,19h1v1h-1z M108,19h1v1h-1z M6,20h1v1h-1z M8,20h1v1h-1z M10,20h1v1h-1z M11,20h1v1h-1z M12,20h1v1h-1z M13,20h1v1h-1z M15,20h1v1h-1z M16,20h1v1h-1z M18,20h1v1h-1z M19,20h1v1h-1z M23,20h1v1h-1z M25,20h1v1h-1z M26,20h1v1h-1z M27,20h1v1h-1z M29,20h1v1h-1z M30,20h1v1h-1z M32,20h1v1h-1z M34,20h1v1h-1z M35,20h1v1h-1z M36,20h1v1h-1z M37,20h1v1h-1z M39,20h1v1h-1z M41,20h1v1h-1z M43,20h1v1h-1z M44,20h1v1h-1z M53,20h1v1h-1z M55,20h1v1h-1z M57,20h1v1h-1z M58,20h1v1h-1z M60,20h1v1h-1z M62,20h1v1h-1z M63,20h1v1h-1z M64,20h1v1h-1z M66,20h1v1h-1z M68,20h1v1h-1z M70,20h1v1h-1z M72,20h1v1h-1z M74,20h1v1h-1z M75,20h1v1h-1z M80,20h1v1h-1z M81,20h1v1h-1z M82,20h1v1h-1z M86,20h1v1h-1z M87,20h1v1h-1z M93,20h1v1h-1z M95,20h1v1h-1z M96,20h1v1h-1z M97,20h1v1h-1z M98,20h1v1h-1z M100,20h1v1h-1z M101,20h1v1h-1z M105,20h1v1h-1z M108,20h1v1h-1z M4,21h1v1h-1z M7,21h1v1h-1z M11,21h1v1h-1z M12,21h1v1h-1z M14,21h1v1h-1z M16,21h1v1h-1z M19,21h1v1h-1z M20,21h1v1h-1z M21,21h1v1h-1z M22,21h1v1h-1z M24,21h1v1h-1z M25,21h1v1h-1z M28,21h1v1h-1z M30,21h1v1h-1z M34,21h1v1h-1z M35,21h1v1h-1z M38,21h1v1h-1z M43,21h1v1h-1z M45,21h1v1h-1z M46,21h1v1h-1z M47,21h1v1h-1z M49,21h1v1h-1z M51,21h1v1h-1z M52,21h1v1h-1z M53,21h1v1h-1z M54,21h1v1h-1z M55,21h1v1h-1z M59,21h1v1h-1z M61,21h1v1h-1z M62,21h1v1h-1z M65,21h1v1h-1z M66,21h1v1h-1z M67,21h1v1h-1z M68,21h1v1h-1z M69,21h1v1h-1z M70,21h1v1h-1z M71,21h1v1h-1z M72,21h1v1h-1z M75,21h1v1h-1z M76,21h1v1h-1z M82,21h1v1h-1z M83,21h1v1h-1z M85,21h1v1h-1z M86,21h1v1h-1z M91,21h1v1h-1z M96,21h1v1h-1z M100,21h1v1h-1z M101,21h1v1h-1z M103,21h1v1h-1z M104,21h1v1h-1z M107,21h1v1h-1z M4,22h1v1h-1z M6,22h1v1h-1z M7,22h1v1h-1z M8,22h1v1h-1z M10,22h1v1h-1z M14,22h1v1h-1z M16,22h1v1h-1z M17,22h1v1h-1z M20,22h1v1h-1z M21,22h1v1h-1z M25,22h1v1h-1z M26,22h1v1h-1z M29,22h1v1h-1z M35,22h1v1h-1z M36,22h1v1h-1z M37,22h1v1h-1z M38,22h1v1h-1z M41,22h1v1h-1z M43,22h1v1h-1z M44,22h1v1h-1z M50,22h1v1h-1z M52,22h1v1h-1z M62,22h1v1h-1z M63,22h1v1h-1z M64,22h1v1h-1z M65,22h1v1h-1z M72,22h1v1h-1z M74,22h1v1h-1z M76,22h1v1h-1z M83,22h1v1h-1z M84,22h1v1h-1z M86,22h1v1h-1z M87,22h1v1h-1z M88,22h1v1h-1z M89,22h1v1h-1z M91,22h1v1h-1z M98,22h1v1h-1z M102,22h1v1h-1z M104,22h1v1h-1z M105,22h1v1h-1z M106,22h1v1h-1z M107,22h1v1h-1z M4,23h1v1h-1z M7,23h1v1h-1z M8,23h1v1h-1z M12,23h1v1h-1z M16,23h1v1h-1z M17,23h1v1h-1z M18,23h1v1h-1z M20,23h1v1h-1z M21,23h1v1h-1z M24,23h1v1h-1z M25,23h1v1h-1z M27,23h1v1h-1z M28,23h1v1h-1z M29,23h1v1h-1z M30,23h1v1h-1z M31,23h1v1h-1z M32,23h1v1h-1z M33,23h1v1h-1z M35,23h1v1h-1z M42,23h1v1h-1z M44,23h1v1h-1z M46,23h1v1h-1z M47,23h1v1h-1z M49,23h1v1h-1z M50,23h1v1h-1z M51,23h1v1h-1z M52,23h1v1h-1z M53,23h1v1h-1z M54,23h1v1h-1z M55,23h1v1h-1z M56,23h1v1h-1z M57,23h1v1h-1z M58,23h1v1h-1z M59,23h1v1h-1z M61,23h1v1h-1z M62,23h1v1h-1z M63,23h1v1h-1z M65,23h1v1h-1z M67,23h1v1h-1z M68,23h1v1h-1z M70,23h1v1h-1z M71,23h1v1h-1z M73,23h1v1h-1z M74,23h1v1h-1z M75,23h1v1h-1z M77,23h1v1h-1z M78,23h1v1h-1z M79,23h1v1h-1z M80,23h1v1h-1z M81,23h1v1h-1z M83,23h1v1h-1z M85,23h1v1h-1z M86,23h1v1h-1z M87,23h1v1h-1z M89,23h1v1h-1z M90,23h1v1h-1z M92,23h1v1h-1z M93,23h1v1h-1z M94,23h1v1h-1z M95,23h1v1h-1z M98,23h1v1h-1z M101,23h1v1h-1z M108,23h1v1h-1z M6,24h1v1h-1z M9,24h1v1h-1z M10,24h1v1h-1z M12,24h1v1h-1z M14,24h1v1h-1z M16,24h1v1h-1z M17,24h1v1h-1z M18,24h1v1h-1z M23,24h1v1h-1z M24,24h1v1h-1z M26,24h1v1h-1z M29,24h1v1h-1z M30,24h1v1h-1z M31,24h1v1h-1z M33,24h1v1h-1z M35,24h1v1h-1z M37,24h1v1h-1z M38,24h1v1h-1z M40,24h1v1h-1z M41,24h1v1h-1z M42,24h1v1h-1z M44,24h1v1h-1z M45,24h1v1h-1z M49,24h1v1h-1z M51,24h1v1h-1z M52,24h1v1h-1z M54,24h1v1h-1z M55,24h1v1h-1z M59,24h1v1h-1z M63,24h1v1h-1z M65,24h1v1h-1z M67,24h1v1h-1z M68,24h1v1h-1z M70,24h1v1h-1z M72,24h1v1h-1z M73,24h1v1h-1z M78,24h1v1h-1z M80,24h1v1h-1z M81,24h1v1h-1z M82,24h1v1h-1z M87,24h1v1h-1z M88,24h1v1h-1z M90,24h1v1h-1z M93,24h1v1h-1z M94,24h1v1h-1z M96,24h1v1h-1z M98,24h1v1h-1z M99,24h1v1h-1z M100,24h1v1h-1z M101,24h1v1h-1z M102,24h1v1h-1z M103,24h1v1h-1z M104,24h1v1h-1z M108,24h1v1h-1z M4,25h1v1h-1z M7,25h1v1h-1z M8,25h1v1h-1z M14,25h1v1h-1z M19,25h1v1h-1z M20,25h1v1h-1z M24,25h1v1h-1z M26,25h1v1h-1z M27,25h1v1h-1z M28,25h1v1h-1z M29,25h1v1h-1z M33,25h1v1h-1z M36,25h1v1h-1z M37,25h1v1h-1z M43,25h1v1h-1z M45,25h1v1h-1z M47,25h1v1h-1z M48,25h1v1h-1z M51,25h1v1h-1z M52,25h1v1h-1z M54,25h1v1h-1z M56,25h1v1h-1z M57,25h1v1h-1z M58,25h1v1h-1z M59,25h1v1h-1z M60,25h1v1h-1z M62,25h1v1h-1z M63,25h1v1h-1z M65,25h1v1h-1z M72,25h1v1h-1z M75,25h1v1h-1z M76,25h1v1h-1z M77,25h1v1h-1z M83,25h1v1h-1z M84,25h1v1h-1z M86,25h1v1h-1z M87,25h1v1h-1z M88,25h1v1h-1z M90,25h1v1h-1z M92,25h1v1h-1z M94,25h1v1h-1z M95,25h1v1h-1z M96,25h1v1h-1z M99,25h1v1h-1z M100,25h1v1h-1z M102,25h1v1h-1z M103,25h1v1h-1z M105,25h1v1h-1z M106,25h1v1h-1z M107,25h1v1h-1z M6,26h1v1h-1z M7,26h1v1h-1z M10,26h1v1h-1z M12,26h1v1h-1z M14,26h1v1h-1z M18,26h1v1h-1z M19,26h1v1h-1z M21,26h1v1h-1z M22,26h1v1h-1z M23,26h1v1h-1z M26,26h1v1h-1z M29,26h1v1h-1z M31,26h1v1h-1z M32,26h1v1h-1z M33,26h1v1h-1z M35,26h1v1h-1z M36,26h1v1h-1z M38,26h1v1h-1z M40,26h1v1h-1z M41,26h1v1h-1z M43,26h1v1h-1z M44,26h1v1h-1z M47,26h1v1h-1z M48,26h1v1h-1z M50,26h1v1h-1z M53,26h1v1h-1z M56,26h1v1h-1z M59,26h1v1h-1z M60,26h1v1h-1z M62,26h1v1h-1z M65,26h1v1h-1z M74,26h1v1h-1z M75,26h1v1h-1z M77,26h1v1h-1z M79,26h1v1h-1z M80,26h1v1h-1z M84,26h1v1h-1z M86,26h1v1h-1z M91,26h1v1h-1z M92,26h1v1h-1z M95,26h1v1h-1z M96,26h1v1h-1z M98,26h1v1h-1z M99,26h1v1h-1z M100,26h1v1h-1z M102,26h1v1h-1z M104,26h1v1h-1z M107,26h1v1h-1z M4,27h1v1h-1z M7,27h1v1h-1z M8,27h1v1h-1z M15,27h1v1h-1z M16,27h1v1h-1z M17,27h1v1h-1z M20,27h1v1h-1z M23,27h1v1h-1z M25,27h1v1h-1z M27,27h1v1h-1z M28,27h1v1h-1z M30,27h1v1h-1z M32,27h1v1h-1z M34,27h1v1h-1z M35,27h1v1h-1z M44,27h1v1h-1z M45,27h1v1h-1z M46,27h1v1h-1z M49,27h1v1h-1z M50,27h1v1h-1z M52,27h1v1h-1z M53,27h1v1h-1z M54,27h1v1h-1z M56,27h1v1h-1z M61,27h1v1h-1z M65,27h1v1h-1z M67,27h1v1h-1z M68,27h1v1h-1z M71,27h1v1h-1z M76,27h1v1h-1z M78,27h1v1h-1z M80,27h1v1h-1z M81,27h1v1h-1z M83,27h1v1h-1z M85,27h1v1h-1z M86,27h1v1h-1z M90,27h1v1h-1z M92,27h1v1h-1z M93,27h1v1h-1z M97,27h1v1h-1z M100,27h1v1h-1z M101,27h1v1h-1z M104,27h1v1h-1z M5,28h1v1h-1z M7,28h1v1h-1z M8,28h1v1h-1z M9,28h1v1h-1z M10,28h1v1h-1z M11,28h1v1h-1z M12,28h1v1h-1z M15,28h1v1h-1z M16,28h1v1h-1z M19,28h1v1h-1z M20,28h1v1h-1z M27,28h1v1h-1z M28,28h1v1h-1z M29,28h1v1h-1z M30,28h1v1h-1z M31,28h1v1h-1z M32,28h1v1h-1z M35,28h1v1h-1z M36,28h1v1h-1z M37,28h1v1h-1z M39,28h1v1h-1z M43,28h1v1h-1z M47,28h1v1h-1z M48,28h1v1h-1z M52,28h1v1h-1z M53,28h1v1h-1z M54,28h1v1h-1z M55,28h1v1h-1z M56,28h1v1h-1z M57,28h1v1h-1z M58,28h1v1h-1z M59,28h1v1h-1z M61,28h1v1h-1z M62,28h1v1h-1z M65,28h1v1h-1z M67,28h1v1h-1z M68,28h1v1h-1z M69,28h1v1h-1z M70,28h1v1h-1z M72,28h1v1h-1z M76,28h1v1h-1z M77,28h1v1h-1z M78,28h1v1h-1z M79,28h1v1h-1z M80,28h1v1h-1z M83,28h1v1h-1z M84,28h1v1h-1z M86,28h1v1h-1z M90,28h1v1h-1z M93,28h1v1h-1z M94,28h1v1h-1z M95,28h1v1h-1z M96,28h1v1h-1z M100,28h1v1h-1z M101,28h1v1h-1z M102,28h1v1h-1z M103,28h1v1h-1z M104,28h1v1h-1z M106,28h1v1h-1z M107,28h1v1h-1z M108,28h1v1h-1z M7,29h1v1h-1z M8,29h1v1h-1z M12,29h1v1h-1z M13,29h1v1h-1z M14,29h1v1h-1z M16,29h1v1h-1z M21,29h1v1h-1z M22,29h1v1h-1z M24,29h1v1h-1z M25,29h1v1h-1z M26,29h1v1h-1z M28,29h1v1h-1z M32,29h1v1h-1z M33,29h1v1h-1z M35,29h1v1h-1z M36,29h1v1h-1z M37,29h1v1h-1z M38,29h1v1h-1z M39,29h1v1h-1z M41,29h1v1h-1z M42,29h1v1h-1z M43,29h1v1h-1z M45,29h1v1h-1z M46,29h1v1h-1z M48,29h1v1h-1z M49,29h1v1h-1z M50,29h1v1h-1z M52,29h1v1h-1z M56,29h1v1h-1z M60,29h1v1h-1z M64,29h1v1h-1z M65,29h1v1h-1z M66,29h1v1h-1z M68,29h1v1h-1z M70,29h1v1h-1z M72,29h1v1h-1z M75,29h1v1h-1z M76,29h1v1h-1z M80,29h1v1h-1z M81,29h1v1h-1z M84,29h1v1h-1z M90,29h1v1h-1z M92,29h1v1h-1z M93,29h1v1h-1z M95,29h1v1h-1z M96,29h1v1h-1z M100,29h1v1h-1z M104,29h1v1h-1z M105,29h1v1h-1z M107,29h1v1h-1z M108,29h1v1h-1z M4,30h1v1h-1z M6,30h1v1h-1z M8,30h1v1h-1z M10,30h1v1h-1z M12,30h1v1h-1z M13,30h1v1h-1z M16,30h1v1h-1z M20,30h1v1h-1z M23,30h1v1h-1z M26,30h1v1h-1z M28,30h1v1h-1z M30,30h1v1h-1z M32,30h1v1h-1z M38,30h1v1h-1z M40,30h1v1h-1z M41,30h1v1h-1z M43,30h1v1h-1z M45,30h1v1h-1z M48,30h1v1h-1z M49,30h1v1h-1z M50,30h1v1h-1z M52,30h1v1h-1z M54,30h1v1h-1z M56,30h1v1h-1z M59,30h1v1h-1z M60,30h1v1h-1z M61,30h1v1h-1z M62,30h1v1h-1z M64,30h1v1h-1z M65,30h1v1h-1z M67,30h1v1h-1z M72,30h1v1h-1z M74,30h1v1h-1z M76,30h1v1h-1z M78,30h1v1h-1z M80,30h1v1h-1z M83,30h1v1h-1z M84,30h1v1h-1z M86,30h1v1h-1z M88,30h1v1h-1z M91,30h1v1h-1z M93,30h1v1h-1z M97,30h1v1h-1z M98,30h1v1h-1z M100,30h1v1h-1z M102,30h1v1h-1z M104,30h1v1h-1z M105,30h1v1h-1z M107,30h1v1h-1z M6,31h1v1h-1z M8,31h1v1h-1z M12,31h1v1h-1z M14,31h1v1h-1z M15,31h1v1h-1z M17,31h1v1h-1z M20,31h1v1h-1z M22,31h1v1h-1z M23,31h1v1h-1z M26,31h1v1h-1z M27,31h1v1h-1z M28,31h1v1h-1z M32,31h1v1h-1z M34,31h1v1h-1z M35,31h1v1h-1z M41,31h1v1h-1z M42,31h1v1h-1z M44,31h1v1h-1z M45,31h1v1h-1z M46,31h1v1h-1z M47,31h1v1h-1z M51,31h1v1h-1z M52,31h1v1h-1z M56,31h1v1h-1z M57,31h1v1h-1z M59,31h1v1h-1z M61,31h1v1h-1z M65,31h1v1h-1z M68,31h1v1h-1z M71,31h1v1h-1z M73,31h1v1h-1z M75,31h1v1h-1z M76,31h1v1h-1z M80,31h1v1h-1z M81,31h1v1h-1z M82,31h1v1h-1z M87,31h1v1h-1z M89,31h1v1h-1z M90,31h1v1h-1z M92,31h1v1h-1z M94,31h1v1h-1z M95,31h1v1h-1z M100,31h1v1h-1z M104,31h1v1h-1z M6,32h1v1h-1z M7,32h1v1h-1z M8,32h1v1h-1z M9,32h1v1h-1z M10,32h1v1h-1z M11,32h1v1h-1z M12,32h1v1h-1z M15,32h1v1h-1z M17,32h1v1h-1z M18,32h1v1h-1z M19,32h1v1h-1z M20,32h1v1h-1z M21,32h1v1h-1z M22,32h1v1h-1z M25,32h1v1h-1z M26,32h1v1h-1z M27,32h1v1h-1z M28,32h1v1h-1z M29,32h1v1h-1z M30,32h1v1h-1z M31,32h1v1h-1z M32,32h1v1h-1z M38,32h1v1h-1z M39,32h1v1h-1z M40,32h1v1h-1z M41,32h1v1h-1z M43,32h1v1h-1z M44,32h1v1h-1z M45,32h1v1h-1z M46,32h1v1h-1z M47,32h1v1h-1z M48,32h1v1h-1z M52,32h1v1h-1z M53,32h1v1h-1z M54,32h1v1h-1z M55,32h1v1h-1z M56,32h1v1h-1z M57,32h1v1h-1z M58,32h1v1h-1z M60,32h1v1h-1z M61,32h1v1h-1z M62,32h1v1h-1z M64,32h1v1h-1z M68,32h1v1h-1z M69,32h1v1h-1z M70,32h1v1h-1z M71,32h1v1h-1z M72,32h1v1h-1z M73,32h1v1h-1z M74,32h1v1h-1z M75,32h1v1h-1z M76,32h1v1h-1z M77,32h1v1h-1z M78,32h1v1h-1z M79,32h1v1h-1z M80,32h1v1h-1z M82,32h1v1h-1z M89,32h1v1h-1z M91,32h1v1h-1z M92,32h1v1h-1z M95,32h1v1h-1z M97,32h1v1h-1z M99,32h1v1h-1z M100,32h1v1h-1z M101,32h1v1h-1z M102,32h1v1h-1z M103,32h1v1h-1z M104,32h1v1h-1z M105,32h1v1h-1z M108,32h1v1h-1z M5,33h1v1h-1z M6,33h1v1h-1z M11,33h1v1h-1z M13,33h1v1h-1z M14,33h1v1h-1z M20,33h1v1h-1z M26,33h1v1h-1z M30,33h1v1h-1z M31,33h1v1h-1z M32,33h1v1h-1z M33,33h1v1h-1z M34,33h1v1h-1z M35,33h1v1h-1z M36,33h1v1h-1z M38,33h1v1h-1z M40,33h1v1h-1z M41,33h1v1h-1z M42,33h1v1h-1z M43,33h1v1h-1z M47,33h1v1h-1z M50,33h1v1h-1z M51,33h1v1h-1z M54,33h1v1h-1z M55,33h1v1h-1z M57,33h1v1h-1z M59,33h1v1h-1z M60,33h1v1h-1z M61,33h1v1h-1z M62,33h1v1h-1z M63,33h1v1h-1z M64,33h1v1h-1z M65,33h1v1h-1z M66,33h1v1h-1z M69,33h1v1h-1z M71,33h1v1h-1z M72,33h1v1h-1z M73,33h1v1h-1z M74,33h1v1h-1z M77,33h1v1h-1z M78,33h1v1h-1z M79,33h1v1h-1z M80,33h1v1h-1z M83,33h1v1h-1z M84,33h1v1h-1z M87,33h1v1h-1z M89,33h1v1h-1z M90,33h1v1h-1z M91,33h1v1h-1z M92,33h1v1h-1z M94,33h1v1h-1z M95,33h1v1h-1z M96,33h1v1h-1z M97,33h1v1h-1z M98,33h1v1h-1z M99,33h1v1h-1z M100,33h1v1h-1z M103,33h1v1h-1z M105,33h1v1h-1z M106,33h1v1h-1z M108,33h1v1h-1z M4,34h1v1h-1z M10,34h1v1h-1z M15,34h1v1h-1z M17,34h1v1h-1z M18,34h1v1h-1z M20,34h1v1h-1z M22,34h1v1h-1z M38,34h1v1h-1z M39,34h1v1h-1z M40,34h1v1h-1z M41,34h1v1h-1z M43,34h1v1h-1z M44,34h1v1h-1z M48,34h1v1h-1z M50,34h1v1h-1z M51,34h1v1h-1z M55,34h1v1h-1z M56,34h1v1h-1z M60,34h1v1h-1z M62,34h1v1h-1z M63,34h1v1h-1z M64,34h1v1h-1z M65,34h1v1h-1z M68,34h1v1h-1z M72,34h1v1h-1z M74,34h1v1h-1z M76,34h1v1h-1z M77,34h1v1h-1z M78,34h1v1h-1z M80,34h1v1h-1z M81,34h1v1h-1z M84,34h1v1h-1z M86,34h1v1h-1z M88,34h1v1h-1z M89,34h1v1h-1z M95,34h1v1h-1z M97,34h1v1h-1z M98,34h1v1h-1z M99,34h1v1h-1z M100,34h1v1h-1z M101,34h1v1h-1z M105,34h1v1h-1z M106,34h1v1h-1z M107,34h1v1h-1z M4,35h1v1h-1z M6,35h1v1h-1z M8,35h1v1h-1z M9,35h1v1h-1z M11,35h1v1h-1z M13,35h1v1h-1z M15,35h1v1h-1z M18,35h1v1h-1z M19,35h1v1h-1z M20,35h1v1h-1z M21,35h1v1h-1z M22,35h1v1h-1z M23,35h1v1h-1z M25,35h1v1h-1z M26,35h1v1h-1z M28,35h1v1h-1z M29,35h1v1h-1z M35,35h1v1h-1z M37,35h1v1h-1z M38,35h1v1h-1z M42,35h1v1h-1z M44,35h1v1h-1z M45,35h1v1h-1z M46,35h1v1h-1z M47,35h1v1h-1z M51,35h1v1h-1z M52,35h1v1h-1z M53,35h1v1h-1z M58,35h1v1h-1z M59,35h1v1h-1z M66,35h1v1h-1z M68,35h1v1h-1z M69,35h1v1h-1z M70,35h1v1h-1z M73,35h1v1h-1z M74,35h1v1h-1z M76,35h1v1h-1z M77,35h1v1h-1z M79,35h1v1h-1z M80,35h1v1h-1z M82,35h1v1h-1z M83,35h1v1h-1z M90,35h1v1h-1z M91,35h1v1h-1z M92,35h1v1h-1z M93,35h1v1h-1z M94,35h1v1h-1z M95,35h1v1h-1z M97,35h1v1h-1z M99,35h1v1h-1z M100,35h1v1h-1z M101,35h1v1h-1z M104,35h1v1h-1z M108,35h1v1h-1z M5,36h1v1h-1z M6,36h1v1h-1z M10,36h1v1h-1z M11,36h1v1h-1z M12,36h1v1h-1z M13,36h1v1h-1z M15,36h1v1h-1z M16,36h1v1h-1z M17,36h1v1h-1z M18,36h1v1h-1z M19,36h1v1h-1z M21,36h1v1h-1z M22,36h1v1h-1z M24,36h1v1h-1z M26,36h1v1h-1z M28,36h1v1h-1z M29,36h1v1h-1z M31,36h1v1h-1z M35,36h1v1h-1z M43,36h1v1h-1z M50,36h1v1h-1z M52,36h1v1h-1z M53,36h1v1h-1z M54,36h1v1h-1z M55,36h1v1h-1z M57,36h1v1h-1z M60,36h1v1h-1z M61,36h1v1h-1z M65,36h1v1h-1z M70,36h1v1h-1z M71,36h1v1h-1z M73,36h1v1h-1z M74,36h1v1h-1z M79,36h1v1h-1z M81,36h1v1h-1z M82,36h1v1h-1z M84,36h1v1h-1z M85,36h1v1h-1z M86,36h1v1h-1z M90,36h1v1h-1z M94,36h1v1h-1z M95,36h1v1h-1z M96,36h1v1h-1z M98,36h1v1h-1z M102,36h1v1h-1z M104,36h1v1h-1z M107,36h1v1h-1z M4,37h1v1h-1z M7,37h1v1h-1z M8,37h1v1h-1z M9,37h1v1h-1z M11,37h1v1h-1z M13,37h1v1h-1z M14,37h1v1h-1z M16,37h1v1h-1z M17,37h1v1h-1z M20,37h1v1h-1z M25,37h1v1h-1z M27,37h1v1h-1z M28,37h1v1h-1z M29,37h1v1h-1z M30,37h1v1h-1z M32,37h1v1h-1z M33,37h1v1h-1z M34,37h1v1h-1z M35,37h1v1h-1z M37,37h1v1h-1z M38,37h1v1h-1z M39,37h1v1h-1z M41,37h1v1h-1z M42,37h1v1h-1z M43,37h1v1h-1z M45,37h1v1h-1z M47,37h1v1h-1z M49,37h1v1h-1z M50,37h1v1h-1z M53,37h1v1h-1z M54,37h1v1h-1z M56,37h1v1h-1z M57,37h1v1h-1z M60,37h1v1h-1z M61,37h1v1h-1z M65,37h1v1h-1z M66,37h1v1h-1z M68,37h1v1h-1z M72,37h1v1h-1z M76,37h1v1h-1z M78,37h1v1h-1z M82,37h1v1h-1z M85,37h1v1h-1z M88,37h1v1h-1z M89,37h1v1h-1z M90,37h1v1h-1z M94,37h1v1h-1z M95,37h1v1h-1z M97,37h1v1h-1z M98,37h1v1h-1z M99,37h1v1h-1z M102,37h1v1h-1z M103,37h1v1h-1z M104,37h1v1h-1z M105,37h1v1h-1z M5,38h1v1h-1z M7,38h1v1h-1z M10,38h1v1h-1z M12,38h1v1h-1z M13,38h1v1h-1z M15,38h1v1h-1z M19,38h1v1h-1z M21,38h1v1h-1z M22,38h1v1h-1z M23,38h1v1h-1z M26,38h1v1h-1z M27,38h1v1h-1z M28,38h1v1h-1z M29,38h1v1h-1z M32,38h1v1h-1z M35,38h1v1h-1z M36,38h1v1h-1z M37,38h1v1h-1z M38,38h1v1h-1z M39,38h1v1h-1z M40,38h1v1h-1z M41,38h1v1h-1z M47,38h1v1h-1z M48,38h1v1h-1z M50,38h1v1h-1z M52,38h1v1h-1z M62,38h1v1h-1z M64,38h1v1h-1z M65,38h1v1h-1z M67,38h1v1h-1z M68,38h1v1h-1z M71,38h1v1h-1z M72,38h1v1h-1z M74,38h1v1h-1z M75,38h1v1h-1z M76,38h1v1h-1z M77,38h1v1h-1z M80,38h1v1h-1z M86,38h1v1h-1z M89,38h1v1h-1z M91,38h1v1h-1z M92,38h1v1h-1z M95,38h1v1h-1z M96,38h1v1h-1z M98,38h1v1h-1z M100,38h1v1h-1z M103,38h1v1h-1z M105,38h1v1h-1z M107,38h1v1h-1z M4,39h1v1h-1z M7,39h1v1h-1z M11,39h1v1h-1z M13,39h1v1h-1z M15,39h1v1h-1z M17,39h1v1h-1z M18,39h1v1h-1z M19,39h1v1h-1z M20,39h1v1h-1z M21,39h1v1h-1z M22,39h1v1h-1z M23,39h1v1h-1z M24,39h1v1h-1z M25,39h1v1h-1z M26,39h1v1h-1z M27,39h1v1h-1z M28,39h1v1h-1z M29,39h1v1h-1z M31,39h1v1h-1z M32,39h1v1h-1z M33,39h1v1h-1z M37,39h1v1h-1z M41,39h1v1h-1z M42,39h1v1h-1z M44,39h1v1h-1z M45,39h1v1h-1z M46,39h1v1h-1z M49,39h1v1h-1z M56,39h1v1h-1z M57,39h1v1h-1z M58,39h1v1h-1z M59,39h1v1h-1z M61,39h1v1h-1z M63,39h1v1h-1z M66,39h1v1h-1z M68,39h1v1h-1z M69,39h1v1h-1z M70,39h1v1h-1z M73,39h1v1h-1z M76,39h1v1h-1z M77,39h1v1h-1z M79,39h1v1h-1z M81,39h1v1h-1z M83,39h1v1h-1z M85,39h1v1h-1z M92,39h1v1h-1z M94,39h1v1h-1z M95,39h1v1h-1z M97,39h1v1h-1z M98,39h1v1h-1z M99,39h1v1h-1z M101,39h1v1h-1z M104,39h1v1h-1z M107,39h1v1h-1z M4,40h1v1h-1z M5,40h1v1h-1z M6,40h1v1h-1z M7,40h1v1h-1z M8,40h1v1h-1z M10,40h1v1h-1z M12,40h1v1h-1z M13,40h1v1h-1z M14,40h1v1h-1z M17,40h1v1h-1z M19,40h1v1h-1z M21,40h1v1h-1z M23,40h1v1h-1z M25,40h1v1h-1z M28,40h1v1h-1z M29,40h1v1h-1z M31,40h1v1h-1z M34,40h1v1h-1z M36,40h1v1h-1z M39,40h1v1h-1z M40,40h1v1h-1z M42,40h1v1h-1z M47,40h1v1h-1z M50,40h1v1h-1z M52,40h1v1h-1z M55,40h1v1h-1z M59,40h1v1h-1z M63,40h1v1h-1z M66,40h1v1h-1z M76,40h1v1h-1z M78,40h1v1h-1z M79,40h1v1h-1z M83,40h1v1h-1z M84,40h1v1h-1z M85,40h1v1h-1z M86,40h1v1h-1z M87,40h1v1h-1z M88,40h1v1h-1z M91,40h1v1h-1z M92,40h1v1h-1z M94,40h1v1h-1z M96,40h1v1h-1z M98,40h1v1h-1z M99,40h1v1h-1z M100,40h1v1h-1z M102,40h1v1h-1z M106,40h1v1h-1z M107,40h1v1h-1z M6,41h1v1h-1z M13,41h1v1h-1z M14,41h1v1h-1z M15,41h1v1h-1z M17,41h1v1h-1z M18,41h1v1h-1z M20,41h1v1h-1z M24,41h1v1h-1z M25,41h1v1h-1z M26,41h1v1h-1z M27,41h1v1h-1z M28,41h1v1h-1z M29,41h1v1h-1z M31,41h1v1h-1z M32,41h1v1h-1z M34,41h1v1h-1z M35,41h1v1h-1z M36,41h1v1h-1z M37,41h1v1h-1z M44,41h1v1h-1z M46,41h1v1h-1z M48,41h1v1h-1z M49,41h1v1h-1z M50,41h1v1h-1z M51,41h1v1h-1z M52,41h1v1h-1z M54,41h1v1h-1z M56,41h1v1h-1z M57,41h1v1h-1z M58,41h1v1h-1z M59,41h1v1h-1z M61,41h1v1h-1z M62,41h1v1h-1z M63,41h1v1h-1z M64,41h1v1h-1z M69,41h1v1h-1z M70,41h1v1h-1z M71,41h1v1h-1z M75,41h1v1h-1z M77,41h1v1h-1z M78,41h1v1h-1z M80,41h1v1h-1z M81,41h1v1h-1z M83,41h1v1h-1z M85,41h1v1h-1z M86,41h1v1h-1z M89,41h1v1h-1z M92,41h1v1h-1z M95,41h1v1h-1z M98,41h1v1h-1z M100,41h1v1h-1z M104,41h1v1h-1z M105,41h1v1h-1z M106,41h1v1h-1z M107,41h1v1h-1z M108,41h1v1h-1z M4,42h1v1h-1z M5,42h1v1h-1z M10,42h1v1h-1z M11,42h1v1h-1z M12,42h1v1h-1z M15,42h1v1h-1z M17,42h1v1h-1z M21,42h1v1h-1z M22,42h1v1h-1z M24,42h1v1h-1z M25,42h1v1h-1z M26,42h1v1h-1z M29,42h1v1h-1z M32,42h1v1h-1z M33,42h1v1h-1z M35,42h1v1h-1z M36,42h1v1h-1z M38,42h1v1h-1z M39,42h1v1h-1z M41,42h1v1h-1z M44,42h1v1h-1z M50,42h1v1h-1z M53,42h1v1h-1z M54,42h1v1h-1z M56,42h1v1h-1z M62,42h1v1h-1z M63,42h1v1h-1z M64,42h1v1h-1z M65,42h1v1h-1z M68,42h1v1h-1z M72,42h1v1h-1z M74,42h1v1h-1z M75,42h1v1h-1z M76,42h1v1h-1z M77,42h1v1h-1z M80,42h1v1h-1z M83,42h1v1h-1z M84,42h1v1h-1z M86,42h1v1h-1z M89,42h1v1h-1z M96,42h1v1h-1z M98,42h1v1h-1z M99,42h1v1h-1z M100,42h1v1h-1z M102,42h1v1h-1z M104,42h1v1h-1z M105,42h1v1h-1z M107,42h1v1h-1z M4,43h1v1h-1z M8,43h1v1h-1z M9,43h1v1h-1z M11,43h1v1h-1z M13,43h1v1h-1z M15,43h1v1h-1z M16,43h1v1h-1z M21,43h1v1h-1z M22,43h1v1h-1z M23,43h1v1h-1z M26,43h1v1h-1z M27,43h1v1h-1z M28,43h1v1h-1z M31,43h1v1h-1z M34,43h1v1h-1z M35,43h1v1h-1z M41,43h1v1h-1z M44,43h1v1h-1z M46,43h1v1h-1z M47,43h1v1h-1z M49,43h1v1h-1z M50,43h1v1h-1z M52,43h1v1h-1z M53,43h1v1h-1z M55,43h1v1h-1z M56,43h1v1h-1z M58,43h1v1h-1z M59,43h1v1h-1z M66,43h1v1h-1z M68,43h1v1h-1z M70,43h1v1h-1z M71,43h1v1h-1z M73,43h1v1h-1z M74,43h1v1h-1z M76,43h1v1h-1z M77,43h1v1h-1z M79,43h1v1h-1z M82,43h1v1h-1z M92,43h1v1h-1z M93,43h1v1h-1z M95,43h1v1h-1z M98,43h1v1h-1z M99,43h1v1h-1z M100,43h1v1h-1z M104,43h1v1h-1z M108,43h1v1h-1z M4,44h1v1h-1z M5,44h1v1h-1z M6,44h1v1h-1z M7,44h1v1h-1z M10,44h1v1h-1z M12,44h1v1h-1z M15,44h1v1h-1z M18,44h1v1h-1z M20,44h1v1h-1z M22,44h1v1h-1z M26,44h1v1h-1z M27,44h1v1h-1z M31,44h1v1h-1z M35,44h1v1h-1z M36,44h1v1h-1z M39,44h1v1h-1z M40,44h1v1h-1z M41,44h1v1h-1z M42,44h1v1h-1z M43,44h1v1h-1z M44,44h1v1h-1z M45,44h1v1h-1z M46,44h1v1h-1z M52,44h1v1h-1z M53,44h1v1h-1z M54,44h1v1h-1z M55,44h1v1h-1z M57,44h1v1h-1z M58,44h1v1h-1z M60,44h1v1h-1z M61,44h1v1h-1z M62,44h1v1h-1z M64,44h1v1h-1z M65,44h1v1h-1z M69,44h1v1h-1z M70,44h1v1h-1z M71,44h1v1h-1z M76,44h1v1h-1z M77,44h1v1h-1z M78,44h1v1h-1z M79,44h1v1h-1z M81,44h1v1h-1z M82,44h1v1h-1z M84,44h1v1h-1z M85,44h1v1h-1z M87,44h1v1h-1z M89,44h1v1h-1z M90,44h1v1h-1z M93,44h1v1h-1z M94,44h1v1h-1z M95,44h1v1h-1z M97,44h1v1h-1z M99,44h1v1h-1z M102,44h1v1h-1z M104,44h1v1h-1z M107,44h1v1h-1z M108,44h1v1h-1z M4,45h1v1h-1z M5,45h1v1h-1z M11,45h1v1h-1z M12,45h1v1h-1z M13,45h1v1h-1z M14,45h1v1h-1z M18,45h1v1h-1z M19,45h1v1h-1z M20,45h1v1h-1z M21,45h1v1h-1z M22,45h1v1h-1z M23,45h1v1h-1z M24,45h1v1h-1z M27,45h1v1h-1z M28,45h1v1h-1z M31,45h1v1h-1z M34,45h1v1h-1z M36,45h1v1h-1z M38,45h1v1h-1z M39,45h1v1h-1z M40,45h1v1h-1z M42,45h1v1h-1z M45,45h1v1h-1z M46,45h1v1h-1z M48,45h1v1h-1z M50,45h1v1h-1z M51,45h1v1h-1z M53,45h1v1h-1z M54,45h1v1h-1z M56,45h1v1h-1z M58,45h1v1h-1z M59,45h1v1h-1z M60,45h1v1h-1z M61,45h1v1h-1z M62,45h1v1h-1z M64,45h1v1h-1z M67,45h1v1h-1z M69,45h1v1h-1z M71,45h1v1h-1z M77,45h1v1h-1z M79,45h1v1h-1z M81,45h1v1h-1z M87,45h1v1h-1z M88,45h1v1h-1z M89,45h1v1h-1z M90,45h1v1h-1z M92,45h1v1h-1z M93,45h1v1h-1z M95,45h1v1h-1z M96,45h1v1h-1z M97,45h1v1h-1z M98,45h1v1h-1z M100,45h1v1h-1z M101,45h1v1h-1z M107,45h1v1h-1z M7,46h1v1h-1z M8,46h1v1h-1z M9,46h1v1h-1z M10,46h1v1h-1z M11,46h1v1h-1z M12,46h1v1h-1z M13,46h1v1h-1z M15,46h1v1h-1z M16,46h1v1h-1z M21,46h1v1h-1z M25,46h1v1h-1z M30,46h1v1h-1z M31,46h1v1h-1z M32,46h1v1h-1z M35,46h1v1h-1z M38,46h1v1h-1z M40,46h1v1h-1z M41,46h1v1h-1z M44,46h1v1h-1z M50,46h1v1h-1z M51,46h1v1h-1z M52,46h1v1h-1z M53,46h1v1h-1z M56,46h1v1h-1z M59,46h1v1h-1z M60,46h1v1h-1z M62,46h1v1h-1z M64,46h1v1h-1z M65,46h1v1h-1z M69,46h1v1h-1z M71,46h1v1h-1z M74,46h1v1h-1z M75,46h1v1h-1z M76,46h1v1h-1z M77,46h1v1h-1z M78,46h1v1h-1z M79,46h1v1h-1z M84,46h1v1h-1z M86,46h1v1h-1z M89,46h1v1h-1z M92,46h1v1h-1z M95,46h1v1h-1z M98,46h1v1h-1z M100,46h1v1h-1z M102,46h1v1h-1z M106,46h1v1h-1z M107,46h1v1h-1z M4,47h1v1h-1z M5,47h1v1h-1z M7,47h1v1h-1z M14,47h1v1h-1z M18,47h1v1h-1z M19,47h1v1h-1z M21,47h1v1h-1z M23,47h1v1h-1z M26,47h1v1h-1z M28,47h1v1h-1z M29,47h1v1h-1z M31,47h1v1h-1z M35,47h1v1h-1z M39,47h1v1h-1z M44,47h1v1h-1z M46,47h1v1h-1z M47,47h1v1h-1z M52,47h1v1h-1z M53,47h1v1h-1z M55,47h1v1h-1z M56,47h1v1h-1z M57,47h1v1h-1z M58,47h1v1h-1z M59,47h1v1h-1z M61,47h1v1h-1z M62,47h1v1h-1z M65,47h1v1h-1z M66,47h1v1h-1z M68,47h1v1h-1z M70,47h1v1h-1z M71,47h1v1h-1z M73,47h1v1h-1z M74,47h1v1h-1z M82,47h1v1h-1z M83,47h1v1h-1z M85,47h1v1h-1z M89,47h1v1h-1z M90,47h1v1h-1z M92,47h1v1h-1z M93,47h1v1h-1z M95,47h1v1h-1z M97,47h1v1h-1z M98,47h1v1h-1z M99,47h1v1h-1z M100,47h1v1h-1z M101,47h1v1h-1z M104,47h1v1h-1z M108,47h1v1h-1z M4,48h1v1h-1z M5,48h1v1h-1z M7,48h1v1h-1z M9,48h1v1h-1z M10,48h1v1h-1z M11,48h1v1h-1z M20,48h1v1h-1z M21,48h1v1h-1z M22,48h1v1h-1z M25,48h1v1h-1z M30,48h1v1h-1z M31,48h1v1h-1z M34,48h1v1h-1z M41,48h1v1h-1z M43,48h1v1h-1z M45,48h1v1h-1z M49,48h1v1h-1z M53,48h1v1h-1z M55,48h1v1h-1z M60,48h1v1h-1z M62,48h1v1h-1z M66,48h1v1h-1z M69,48h1v1h-1z M70,48h1v1h-1z M71,48h1v1h-1z M72,48h1v1h-1z M73,48h1v1h-1z M74,48h1v1h-1z M76,48h1v1h-1z M79,48h1v1h-1z M81,48h1v1h-1z M82,48h1v1h-1z M83,48h1v1h-1z M85,48h1v1h-1z M87,48h1v1h-1z M88,48h1v1h-1z M89,48h1v1h-1z M90,48h1v1h-1z M91,48h1v1h-1z M94,48h1v1h-1z M96,48h1v1h-1z M97,48h1v1h-1z M99,48h1v1h-1z M100,48h1v1h-1z M102,48h1v1h-1z M108,48h1v1h-1z M4,49h1v1h-1z M5,49h1v1h-1z M9,49h1v1h-1z M12,49h1v1h-1z M13,49h1v1h-1z M14,49h1v1h-1z M16,49h1v1h-1z M17,49h1v1h-1z M21,49h1v1h-1z M24,49h1v1h-1z M26,49h1v1h-1z M30,49h1v1h-1z M31,49h1v1h-1z M33,49h1v1h-1z M34,49h1v1h-1z M35,49h1v1h-1z M36,49h1v1h-1z M39,49h1v1h-1z M40,49h1v1h-1z M43,49h1v1h-1z M45,49h1v1h-1z M47,49h1v1h-1z M48,49h1v1h-1z M49,49h1v1h-1z M50,49h1v1h-1z M52,49h1v1h-1z M53,49h1v1h-1z M54,49h1v1h-1z M55,49h1v1h-1z M58,49h1v1h-1z M59,49h1v1h-1z M60,49h1v1h-1z M61,49h1v1h-1z M63,49h1v1h-1z M66,49h1v1h-1z M67,49h1v1h-1z M70,49h1v1h-1z M71,49h1v1h-1z M73,49h1v1h-1z M78,49h1v1h-1z M79,49h1v1h-1z M80,49h1v1h-1z M81,49h1v1h-1z M82,49h1v1h-1z M84,49h1v1h-1z M86,49h1v1h-1z M87,49h1v1h-1z M88,49h1v1h-1z M89,49h1v1h-1z M91,49h1v1h-1z M93,49h1v1h-1z M94,49h1v1h-1z M95,49h1v1h-1z M97,49h1v1h-1z M98,49h1v1h-1z M101,49h1v1h-1z M102,49h1v1h-1z M104,49h1v1h-1z M105,49h1v1h-1z M106,49h1v1h-1z M108,49h1v1h-1z M4,50h1v1h-1z M5,50h1v1h-1z M6,50h1v1h-1z M7,50h1v1h-1z M8,50h1v1h-1z M10,50h1v1h-1z M11,50h1v1h-1z M15,50h1v1h-1z M16,50h1v1h-1z M19,50h1v1h-1z M20,50h1v1h-1z M22,50h1v1h-1z M23,50h1v1h-1z M31,50h1v1h-1z M35,50h1v1h-1z M36,50h1v1h-1z M38,50h1v1h-1z M40,50h1v1h-1z M41,50h1v1h-1z M43,50h1v1h-1z M44,50h1v1h-1z M48,50h1v1h-1z M50,50h1v1h-1z M51,50h1v1h-1z M52,50h1v1h-1z M53,50h1v1h-1z M54,50h1v1h-1z M55,50h1v1h-1z M59,50h1v1h-1z M60,50h1v1h-1z M62,50h1v1h-1z M65,50h1v1h-1z M67,50h1v1h-1z M68,50h1v1h-1z M69,50h1v1h-1z M71,50h1v1h-1z M74,50h1v1h-1z M75,50h1v1h-1z M76,50h1v1h-1z M78,50h1v1h-1z M79,50h1v1h-1z M83,50h1v1h-1z M84,50h1v1h-1z M85,50h1v1h-1z M86,50h1v1h-1z M89,50h1v1h-1z M93,50h1v1h-1z M96,50h1v1h-1z M98,50h1v1h-1z M101,50h1v1h-1z M102,50h1v1h-1z M104,50h1v1h-1z M105,50h1v1h-1z M106,50h1v1h-1z M107,50h1v1h-1z M4,51h1v1h-1z M7,51h1v1h-1z M8,51h1v1h-1z M12,51h1v1h-1z M13,51h1v1h-1z M14,51h1v1h-1z M17,51h1v1h-1z M18,51h1v1h-1z M19,51h1v1h-1z M24,51h1v1h-1z M25,51h1v1h-1z M27,51h1v1h-1z M28,51h1v1h-1z M29,51h1v1h-1z M31,51h1v1h-1z M32,51h1v1h-1z M37,51h1v1h-1z M38,51h1v1h-1z M44,51h1v1h-1z M46,51h1v1h-1z M47,51h1v1h-1z M49,51h1v1h-1z M50,51h1v1h-1z M51,51h1v1h-1z M52,51h1v1h-1z M55,51h1v1h-1z M61,51h1v1h-1z M68,51h1v1h-1z M70,51h1v1h-1z M71,51h1v1h-1z M74,51h1v1h-1z M76,51h1v1h-1z M77,51h1v1h-1z M79,51h1v1h-1z M81,51h1v1h-1z M89,51h1v1h-1z M91,51h1v1h-1z M92,51h1v1h-1z M93,51h1v1h-1z M94,51h1v1h-1z M95,51h1v1h-1z M97,51h1v1h-1z M99,51h1v1h-1z M100,51h1v1h-1z M101,51h1v1h-1z M102,51h1v1h-1z M104,51h1v1h-1z M105,51h1v1h-1z M107,51h1v1h-1z M108,51h1v1h-1z M6,52h1v1h-1z M8,52h1v1h-1z M9,52h1v1h-1z M10,52h1v1h-1z M11,52h1v1h-1z M12,52h1v1h-1z M14,52h1v1h-1z M15,52h1v1h-1z M16,52h1v1h-1z M17,52h1v1h-1z M18,52h1v1h-1z M19,52h1v1h-1z M20,52h1v1h-1z M22,52h1v1h-1z M23,52h1v1h-1z M24,52h1v1h-1z M28,52h1v1h-1z M29,52h1v1h-1z M30,52h1v1h-1z M31,52h1v1h-1z M32,52h1v1h-1z M36,52h1v1h-1z M37,52h1v1h-1z M38,52h1v1h-1z M39,52h1v1h-1z M40,52h1v1h-1z M42,52h1v1h-1z M43,52h1v1h-1z M44,52h1v1h-1z M47,52h1v1h-1z M48,52h1v1h-1z M50,52h1v1h-1z M52,52h1v1h-1z M53,52h1v1h-1z M54,52h1v1h-1z M55,52h1v1h-1z M56,52h1v1h-1z M58,52h1v1h-1z M59,52h1v1h-1z M60,52h1v1h-1z M62,52h1v1h-1z M65,52h1v1h-1z M68,52h1v1h-1z M72,52h1v1h-1z M73,52h1v1h-1z M74,52h1v1h-1z M76,52h1v1h-1z M77,52h1v1h-1z M78,52h1v1h-1z M79,52h1v1h-1z M80,52h1v1h-1z M81,52h1v1h-1z M82,52h1v1h-1z M83,52h1v1h-1z M84,52h1v1h-1z M85,52h1v1h-1z M88,52h1v1h-1z M89,52h1v1h-1z M90,52h1v1h-1z M91,52h1v1h-1z M92,52h1v1h-1z M94,52h1v1h-1z M100,52h1v1h-1z M101,52h1v1h-1z M102,52h1v1h-1z M103,52h1v1h-1z M104,52h1v1h-1z M105,52h1v1h-1z M108,52h1v1h-1z M4,53h1v1h-1z M5,53h1v1h-1z M8,53h1v1h-1z M12,53h1v1h-1z M13,53h1v1h-1z M14,53h1v1h-1z M17,53h1v1h-1z M19,53h1v1h-1z M22,53h1v1h-1z M26,53h1v1h-1z M27,53h1v1h-1z M28,53h1v1h-1z M32,53h1v1h-1z M34,53h1v1h-1z M35,53h1v1h-1z M37,53h1v1h-1z M38,53h1v1h-1z M39,53h1v1h-1z M40,53h1v1h-1z M42,53h1v1h-1z M45,53h1v1h-1z M46,53h1v1h-1z M52,53h1v1h-1z M56,53h1v1h-1z M60,53h1v1h-1z M61,53h1v1h-1z M62,53h1v1h-1z M64,53h1v1h-1z M66,53h1v1h-1z M68,53h1v1h-1z M69,53h1v1h-1z M70,53h1v1h-1z M71,53h1v1h-1z M72,53h1v1h-1z M73,53h1v1h-1z M74,53h1v1h-1z M75,53h1v1h-1z M76,53h1v1h-1z M80,53h1v1h-1z M81,53h1v1h-1z M82,53h1v1h-1z M84,53h1v1h-1z M87,53h1v1h-1z M89,53h1v1h-1z M90,53h1v1h-1z M92,53h1v1h-1z M93,53h1v1h-1z M94,53h1v1h-1z M95,53h1v1h-1z M96,53h1v1h-1z M98,53h1v1h-1z M100,53h1v1h-1z M104,53h1v1h-1z M105,53h1v1h-1z M106,53h1v1h-1z M4,54h1v1h-1z M6,54h1v1h-1z M7,54h1v1h-1z M8,54h1v1h-1z M10,54h1v1h-1z M12,54h1v1h-1z M13,54h1v1h-1z M16,54h1v1h-1z M22,54h1v1h-1z M23,54h1v1h-1z M25,54h1v1h-1z M26,54h1v1h-1z M27,54h1v1h-1z M28,54h1v1h-1z M30,54h1v1h-1z M32,54h1v1h-1z M35,54h1v1h-1z M38,54h1v1h-1z M39,54h1v1h-1z M41,54h1v1h-1z M43,54h1v1h-1z M44,54h1v1h-1z M48,54h1v1h-1z M50,54h1v1h-1z M51,54h1v1h-1z M52,54h1v1h-1z M54,54h1v1h-1z M56,54h1v1h-1z M57,54h1v1h-1z M59,54h1v1h-1z M62,54h1v1h-1z M63,54h1v1h-1z M64,54h1v1h-1z M65,54h1v1h-1z M67,54h1v1h-1z M68,54h1v1h-1z M69,54h1v1h-1z M72,54h1v1h-1z M74,54h1v1h-1z M76,54h1v1h-1z M78,54h1v1h-1z M80,54h1v1h-1z M86,54h1v1h-1z M87,54h1v1h-1z M88,54h1v1h-1z M89,54h1v1h-1z M91,54h1v1h-1z M92,54h1v1h-1z M96,54h1v1h-1z M98,54h1v1h-1z M100,54h1v1h-1z M102,54h1v1h-1z M104,54h1v1h-1z M106,54h1v1h-1z M5,55h1v1h-1z M6,55h1v1h-1z M7,55h1v1h-1z M8,55h1v1h-1z M12,55h1v1h-1z M14,55h1v1h-1z M15,55h1v1h-1z M20,55h1v1h-1z M21,55h1v1h-1z M23,55h1v1h-1z M24,55h1v1h-1z M28,55h1v1h-1z M32,55h1v1h-1z M33,55h1v1h-1z M35,55h1v1h-1z M37,55h1v1h-1z M41,55h1v1h-1z M44,55h1v1h-1z M46,55h1v1h-1z M51,55h1v1h-1z M52,55h1v1h-1z M56,55h1v1h-1z M58,55h1v1h-1z M59,55h1v1h-1z M61,55h1v1h-1z M66,55h1v1h-1z M68,55h1v1h-1z M69,55h1v1h-1z M70,55h1v1h-1z M71,55h1v1h-1z M73,55h1v1h-1z M74,55h1v1h-1z M76,55h1v1h-1z M80,55h1v1h-1z M81,55h1v1h-1z M82,55h1v1h-1z M83,55h1v1h-1z M85,55h1v1h-1z M86,55h1v1h-1z M87,55h1v1h-1z M92,55h1v1h-1z M93,55h1v1h-1z M94,55h1v1h-1z M95,55h1v1h-1z M97,55h1v1h-1z M98,55h1v1h-1z M100,55h1v1h-1z M104,55h1v1h-1z M107,55h1v1h-1z M108,55h1v1h-1z M4,56h1v1h-1z M5,56h1v1h-1z M7,56h1v1h-1z M8,56h1v1h-1z M9,56h1v1h-1z M10,56h1v1h-1z M11,56h1v1h-1z M12,56h1v1h-1z M17,56h1v1h-1z M19,56h1v1h-1z M21,56h1v1h-1z M22,56h1v1h-1z M23,56h1v1h-1z M26,56h1v1h-1z M28,56h1v1h-1z M29,56h1v1h-1z M30,56h1v1h-1z M31,56h1v1h-1z M32,56h1v1h-1z M33,56h1v1h-1z M36,56h1v1h-1z M40,56h1v1h-1z M41,56h1v1h-1z M44,56h1v1h-1z M45,56h1v1h-1z M46,56h1v1h-1z M47,56h1v1h-1z M51,56h1v1h-1z M52,56h1v1h-1z M53,56h1v1h-1z M54,56h1v1h-1z M55,56h1v1h-1z M56,56h1v1h-1z M58,56h1v1h-1z M59,56h1v1h-1z M60,56h1v1h-1z M62,56h1v1h-1z M64,56h1v1h-1z M65,56h1v1h-1z M67,56h1v1h-1z M70,56h1v1h-1z M71,56h1v1h-1z M74,56h1v1h-1z M76,56h1v1h-1z M77,56h1v1h-1z M78,56h1v1h-1z M79,56h1v1h-1z M80,56h1v1h-1z M81,56h1v1h-1z M82,56h1v1h-1z M84,56h1v1h-1z M86,56h1v1h-1z M87,56h1v1h-1z M89,56h1v1h-1z M92,56h1v1h-1z M93,56h1v1h-1z M94,56h1v1h-1z M95,56h1v1h-1z M99,56h1v1h-1z M100,56h1v1h-1z M101,56h1v1h-1z M102,56h1v1h-1z M103,56h1v1h-1z M104,56h1v1h-1z M108,56h1v1h-1z M5,57h1v1h-1z M6,57h1v1h-1z M11,57h1v1h-1z M14,57h1v1h-1z M20,57h1v1h-1z M21,57h1v1h-1z M22,57h1v1h-1z M25,57h1v1h-1z M26,57h1v1h-1z M27,57h1v1h-1z M28,57h1v1h-1z M30,57h1v1h-1z M31,57h1v1h-1z M33,57h1v1h-1z M35,57h1v1h-1z M36,57h1v1h-1z M38,57h1v1h-1z M39,57h1v1h-1z M42,57h1v1h-1z M43,57h1v1h-1z M46,57h1v1h-1z M47,57h1v1h-1z M50,57h1v1h-1z M52,57h1v1h-1z M55,57h1v1h-1z M59,57h1v1h-1z M61,57h1v1h-1z M62,57h1v1h-1z M63,57h1v1h-1z M64,57h1v1h-1z M66,57h1v1h-1z M69,57h1v1h-1z M71,57h1v1h-1z M72,57h1v1h-1z M73,57h1v1h-1z M74,57h1v1h-1z M75,57h1v1h-1z M78,57h1v1h-1z M79,57h1v1h-1z M83,57h1v1h-1z M85,57h1v1h-1z M86,57h1v1h-1z M87,57h1v1h-1z M88,57h1v1h-1z M89,57h1v1h-1z M90,57h1v1h-1z M92,57h1v1h-1z M95,57h1v1h-1z M96,57h1v1h-1z M97,57h1v1h-1z M98,57h1v1h-1z M100,57h1v1h-1z M102,57h1v1h-1z M103,57h1v1h-1z M107,57h1v1h-1z M108,57h1v1h-1z M6,58h1v1h-1z M8,58h1v1h-1z M10,58h1v1h-1z M13,58h1v1h-1z M14,58h1v1h-1z M16,58h1v1h-1z M22,58h1v1h-1z M23,58h1v1h-1z M26,58h1v1h-1z M29,58h1v1h-1z M30,58h1v1h-1z M32,58h1v1h-1z M33,58h1v1h-1z M35,58h1v1h-1z M37,58h1v1h-1z M38,58h1v1h-1z M39,58h1v1h-1z M43,58h1v1h-1z M47,58h1v1h-1z M50,58h1v1h-1z M53,58h1v1h-1z M54,58h1v1h-1z M55,58h1v1h-1z M60,58h1v1h-1z M61,58h1v1h-1z M62,58h1v1h-1z M63,58h1v1h-1z M71,58h1v1h-1z M74,58h1v1h-1z M75,58h1v1h-1z M77,58h1v1h-1z M79,58h1v1h-1z M80,58h1v1h-1z M83,58h1v1h-1z M86,58h1v1h-1z M87,58h1v1h-1z M88,58h1v1h-1z M89,58h1v1h-1z M91,58h1v1h-1z M92,58h1v1h-1z M96,58h1v1h-1z M98,58h1v1h-1z M100,58h1v1h-1z M101,58h1v1h-1z M102,58h1v1h-1z M103,58h1v1h-1z M104,58h1v1h-1z M105,58h1v1h-1z M106,58h1v1h-1z M107,58h1v1h-1z M4,59h1v1h-1z M5,59h1v1h-1z M6,59h1v1h-1z M7,59h1v1h-1z M12,59h1v1h-1z M15,59h1v1h-1z M17,59h1v1h-1z M18,59h1v1h-1z M19,59h1v1h-1z M22,59h1v1h-1z M27,59h1v1h-1z M28,59h1v1h-1z M29,59h1v1h-1z M30,59h1v1h-1z M31,59h1v1h-1z M34,59h1v1h-1z M35,59h1v1h-1z M41,59h1v1h-1z M42,59h1v1h-1z M44,59h1v1h-1z M45,59h1v1h-1z M47,59h1v1h-1z M52,59h1v1h-1z M53,59h1v1h-1z M57,59h1v1h-1z M58,59h1v1h-1z M59,59h1v1h-1z M65,59h1v1h-1z M66,59h1v1h-1z M67,59h1v1h-1z M68,59h1v1h-1z M71,59h1v1h-1z M73,59h1v1h-1z M74,59h1v1h-1z M75,59h1v1h-1z M76,59h1v1h-1z M77,59h1v1h-1z M79,59h1v1h-1z M82,59h1v1h-1z M83,59h1v1h-1z M89,59h1v1h-1z M90,59h1v1h-1z M92,59h1v1h-1z M95,59h1v1h-1z M98,59h1v1h-1z M99,59h1v1h-1z M101,59h1v1h-1z M102,59h1v1h-1z M103,59h1v1h-1z M104,59h1v1h-1z M4,60h1v1h-1z M9,60h1v1h-1z M10,60h1v1h-1z M11,60h1v1h-1z M12,60h1v1h-1z M13,60h1v1h-1z M14,60h1v1h-1z M16,60h1v1h-1z M19,60h1v1h-1z M21,60h1v1h-1z M22,60h1v1h-1z M23,60h1v1h-1z M27,60h1v1h-1z M28,60h1v1h-1z M29,60h1v1h-1z M30,60h1v1h-1z M31,60h1v1h-1z M32,60h1v1h-1z M34,60h1v1h-1z M35,60h1v1h-1z M41,60h1v1h-1z M42,60h1v1h-1z M47,60h1v1h-1z M49,60h1v1h-1z M50,60h1v1h-1z M54,60h1v1h-1z M55,60h1v1h-1z M57,60h1v1h-1z M58,60h1v1h-1z M59,60h1v1h-1z M62,60h1v1h-1z M63,60h1v1h-1z M64,60h1v1h-1z M66,60h1v1h-1z M67,60h1v1h-1z M69,60h1v1h-1z M70,60h1v1h-1z M71,60h1v1h-1z M73,60h1v1h-1z M77,60h1v1h-1z M78,60h1v1h-1z M81,60h1v1h-1z M83,60h1v1h-1z M84,60h1v1h-1z M86,60h1v1h-1z M87,60h1v1h-1z M88,60h1v1h-1z M91,60h1v1h-1z M92,60h1v1h-1z M97,60h1v1h-1z M99,60h1v1h-1z M100,60h1v1h-1z M103,60h1v1h-1z M105,60h1v1h-1z M107,60h1v1h-1z M4,61h1v1h-1z M5,61h1v1h-1z M6,61h1v1h-1z M7,61h1v1h-1z M9,61h1v1h-1z M11,61h1v1h-1z M12,61h1v1h-1z M15,61h1v1h-1z M16,61h1v1h-1z M18,61h1v1h-1z M21,61h1v1h-1z M26,61h1v1h-1z M31,61h1v1h-1z M34,61h1v1h-1z M36,61h1v1h-1z M37,61h1v1h-1z M39,61h1v1h-1z M40,61h1v1h-1z M42,61h1v1h-1z M44,61h1v1h-1z M47,61h1v1h-1z M49,61h1v1h-1z M55,61h1v1h-1z M57,61h1v1h-1z M58,61h1v1h-1z M64,61h1v1h-1z M65,61h1v1h-1z M67,61h1v1h-1z M69,61h1v1h-1z M70,61h1v1h-1z M72,61h1v1h-1z M74,61h1v1h-1z M77,61h1v1h-1z M79,61h1v1h-1z M82,61h1v1h-1z M84,61h1v1h-1z M85,61h1v1h-1z M86,61h1v1h-1z M91,61h1v1h-1z M92,61h1v1h-1z M96,61h1v1h-1z M98,61h1v1h-1z M99,61h1v1h-1z M100,61h1v1h-1z M102,61h1v1h-1z M104,61h1v1h-1z M106,61h1v1h-1z M108,61h1v1h-1z M6,62h1v1h-1z M7,62h1v1h-1z M9,62h1v1h-1z M10,62h1v1h-1z M14,62h1v1h-1z M15,62h1v1h-1z M16,62h1v1h-1z M17,62h1v1h-1z M18,62h1v1h-1z M20,62h1v1h-1z M23,62h1v1h-1z M24,62h1v1h-1z M26,62h1v1h-1z M29,62h1v1h-1z M32,62h1v1h-1z M35,62h1v1h-1z M36,62h1v1h-1z M38,62h1v1h-1z M39,62h1v1h-1z M41,62h1v1h-1z M43,62h1v1h-1z M47,62h1v1h-1z M48,62h1v1h-1z M50,62h1v1h-1z M51,62h1v1h-1z M55,62h1v1h-1z M61,62h1v1h-1z M62,62h1v1h-1z M63,62h1v1h-1z M65,62h1v1h-1z M67,62h1v1h-1z M68,62h1v1h-1z M69,62h1v1h-1z M71,62h1v1h-1z M72,62h1v1h-1z M74,62h1v1h-1z M79,62h1v1h-1z M80,62h1v1h-1z M83,62h1v1h-1z M86,62h1v1h-1z M87,62h1v1h-1z M88,62h1v1h-1z M89,62h1v1h-1z M92,62h1v1h-1z M95,62h1v1h-1z M98,62h1v1h-1z M100,62h1v1h-1z M103,62h1v1h-1z M105,62h1v1h-1z M106,62h1v1h-1z M107,62h1v1h-1z M4,63h1v1h-1z M5,63h1v1h-1z M7,63h1v1h-1z M12,63h1v1h-1z M13,63h1v1h-1z M17,63h1v1h-1z M18,63h1v1h-1z M22,63h1v1h-1z M23,63h1v1h-1z M26,63h1v1h-1z M28,63h1v1h-1z M31,63h1v1h-1z M33,63h1v1h-1z M35,63h1v1h-1z M37,63h1v1h-1z M38,63h1v1h-1z M42,63h1v1h-1z M44,63h1v1h-1z M45,63h1v1h-1z M49,63h1v1h-1z M52,63h1v1h-1z M55,63h1v1h-1z M57,63h1v1h-1z M59,63h1v1h-1z M66,63h1v1h-1z M68,63h1v1h-1z M70,63h1v1h-1z M71,63h1v1h-1z M73,63h1v1h-1z M75,63h1v1h-1z M80,63h1v1h-1z M81,63h1v1h-1z M83,63h1v1h-1z M89,63h1v1h-1z M92,63h1v1h-1z M93,63h1v1h-1z M95,63h1v1h-1z M97,63h1v1h-1z M99,63h1v1h-1z M101,63h1v1h-1z M102,63h1v1h-1z M107,63h1v1h-1z M108,63h1v1h-1z M5,64h1v1h-1z M6,64h1v1h-1z M7,64h1v1h-1z M9,64h1v1h-1z M10,64h1v1h-1z M12,64h1v1h-1z M15,64h1v1h-1z M17,64h1v1h-1z M18,64h1v1h-1z M19,64h1v1h-1z M21,64h1v1h-1z M25,64h1v1h-1z M27,64h1v1h-1z M28,64h1v1h-1z M30,64h1v1h-1z M31,64h1v1h-1z M33,64h1v1h-1z M34,64h1v1h-1z M35,64h1v1h-1z M36,64h1v1h-1z M40,64h1v1h-1z M41,64h1v1h-1z M43,64h1v1h-1z M44,64h1v1h-1z M45,64h1v1h-1z M52,64h1v1h-1z M53,64h1v1h-1z M54,64h1v1h-1z M56,64h1v1h-1z M57,64h1v1h-1z M58,64h1v1h-1z M59,64h1v1h-1z M60,64h1v1h-1z M62,64h1v1h-1z M66,64h1v1h-1z M67,64h1v1h-1z M69,64h1v1h-1z M70,64h1v1h-1z M75,64h1v1h-1z M76,64h1v1h-1z M78,64h1v1h-1z M79,64h1v1h-1z M80,64h1v1h-1z M81,64h1v1h-1z M82,64h1v1h-1z M83,64h1v1h-1z M89,64h1v1h-1z M90,64h1v1h-1z M97,64h1v1h-1z M99,64h1v1h-1z M102,64h1v1h-1z M105,64h1v1h-1z M107,64h1v1h-1z M108,64h1v1h-1z M4,65h1v1h-1z M9,65h1v1h-1z M13,65h1v1h-1z M14,65h1v1h-1z M15,65h1v1h-1z M16,65h1v1h-1z M17,65h1v1h-1z M20,65h1v1h-1z M21,65h1v1h-1z M23,65h1v1h-1z M24,65h1v1h-1z M25,65h1v1h-1z M26,65h1v1h-1z M29,65h1v1h-1z M31,65h1v1h-1z M34,65h1v1h-1z M35,65h1v1h-1z M36,65h1v1h-1z M39,65h1v1h-1z M41,65h1v1h-1z M42,65h1v1h-1z M43,65h1v1h-1z M45,65h1v1h-1z M52,65h1v1h-1z M55,65h1v1h-1z M58,65h1v1h-1z M60,65h1v1h-1z M61,65h1v1h-1z M62,65h1v1h-1z M64,65h1v1h-1z M65,65h1v1h-1z M70,65h1v1h-1z M72,65h1v1h-1z M74,65h1v1h-1z M76,65h1v1h-1z M77,65h1v1h-1z M78,65h1v1h-1z M79,65h1v1h-1z M82,65h1v1h-1z M83,65h1v1h-1z M85,65h1v1h-1z M86,65h1v1h-1z M88,65h1v1h-1z M90,65h1v1h-1z M91,65h1v1h-1z M93,65h1v1h-1z M94,65h1v1h-1z M98,65h1v1h-1z M100,65h1v1h-1z M102,65h1v1h-1z M107,65h1v1h-1z M108,65h1v1h-1z M10,66h1v1h-1z M11,66h1v1h-1z M12,66h1v1h-1z M13,66h1v1h-1z M15,66h1v1h-1z M16,66h1v1h-1z M17,66h1v1h-1z M20,66h1v1h-1z M21,66h1v1h-1z M23,66h1v1h-1z M26,66h1v1h-1z M29,66h1v1h-1z M31,66h1v1h-1z M32,66h1v1h-1z M33,66h1v1h-1z M35,66h1v1h-1z M36,66h1v1h-1z M38,66h1v1h-1z M39,66h1v1h-1z M40,66h1v1h-1z M41,66h1v1h-1z M47,66h1v1h-1z M50,66h1v1h-1z M56,66h1v1h-1z M59,66h1v1h-1z M60,66h1v1h-1z M62,66h1v1h-1z M63,66h1v1h-1z M64,66h1v1h-1z M65,66h1v1h-1z M71,66h1v1h-1z M72,66h1v1h-1z M74,66h1v1h-1z M80,66h1v1h-1z M84,66h1v1h-1z M86,66h1v1h-1z M87,66h1v1h-1z M88,66h1v1h-1z M89,66h1v1h-1z M91,66h1v1h-1z M95,66h1v1h-1z M96,66h1v1h-1z M98,66h1v1h-1z M100,66h1v1h-1z M103,66h1v1h-1z M104,66h1v1h-1z M105,66h1v1h-1z M106,66h1v1h-1z M107,66h1v1h-1z M5,67h1v1h-1z M6,67h1v1h-1z M8,67h1v1h-1z M9,67h1v1h-1z M13,67h1v1h-1z M14,67h1v1h-1z M15,67h1v1h-1z M17,67h1v1h-1z M21,67h1v1h-1z M22,67h1v1h-1z M23,67h1v1h-1z M24,67h1v1h-1z M26,67h1v1h-1z M27,67h1v1h-1z M29,67h1v1h-1z M30,67h1v1h-1z M31,67h1v1h-1z M34,67h1v1h-1z M35,67h1v1h-1z M37,67h1v1h-1z M38,67h1v1h-1z M43,67h1v1h-1z M44,67h1v1h-1z M45,67h1v1h-1z M47,67h1v1h-1z M49,67h1v1h-1z M51,67h1v1h-1z M53,67h1v1h-1z M54,67h1v1h-1z M56,67h1v1h-1z M57,67h1v1h-1z M59,67h1v1h-1z M68,67h1v1h-1z M70,67h1v1h-1z M71,67h1v1h-1z M73,67h1v1h-1z M74,67h1v1h-1z M75,67h1v1h-1z M76,67h1v1h-1z M78,67h1v1h-1z M80,67h1v1h-1z M81,67h1v1h-1z M83,67h1v1h-1z M85,67h1v1h-1z M92,67h1v1h-1z M95,67h1v1h-1z M98,67h1v1h-1z M99,67h1v1h-1z M101,67h1v1h-1z M103,67h1v1h-1z M104,67h1v1h-1z M107,67h1v1h-1z M108,67h1v1h-1z M5,68h1v1h-1z M6,68h1v1h-1z M9,68h1v1h-1z M10,68h1v1h-1z M11,68h1v1h-1z M14,68h1v1h-1z M15,68h1v1h-1z M16,68h1v1h-1z M18,68h1v1h-1z M21,68h1v1h-1z M22,68h1v1h-1z M25,68h1v1h-1z M28,68h1v1h-1z M30,68h1v1h-1z M31,68h1v1h-1z M34,68h1v1h-1z M35,68h1v1h-1z M36,68h1v1h-1z M37,68h1v1h-1z M38,68h1v1h-1z M40,68h1v1h-1z M42,68h1v1h-1z M44,68h1v1h-1z M46,68h1v1h-1z M47,68h1v1h-1z M48,68h1v1h-1z M54,68h1v1h-1z M56,68h1v1h-1z M58,68h1v1h-1z M60,68h1v1h-1z M62,68h1v1h-1z M63,68h1v1h-1z M64,68h1v1h-1z M65,68h1v1h-1z M69,68h1v1h-1z M71,68h1v1h-1z M72,68h1v1h-1z M76,68h1v1h-1z M78,68h1v1h-1z M80,68h1v1h-1z M82,68h1v1h-1z M83,68h1v1h-1z M84,68h1v1h-1z M88,68h1v1h-1z M90,68h1v1h-1z M94,68h1v1h-1z M97,68h1v1h-1z M98,68h1v1h-1z M101,68h1v1h-1z M102,68h1v1h-1z M103,68h1v1h-1z M107,68h1v1h-1z M108,68h1v1h-1z M8,69h1v1h-1z M12,69h1v1h-1z M13,69h1v1h-1z M14,69h1v1h-1z M15,69h1v1h-1z M16,69h1v1h-1z M19,69h1v1h-1z M20,69h1v1h-1z M21,69h1v1h-1z M22,69h1v1h-1z M26,69h1v1h-1z M28,69h1v1h-1z M29,69h1v1h-1z M30,69h1v1h-1z M31,69h1v1h-1z M33,69h1v1h-1z M40,69h1v1h-1z M41,69h1v1h-1z M43,69h1v1h-1z M47,69h1v1h-1z M49,69h1v1h-1z M51,69h1v1h-1z M53,69h1v1h-1z M54,69h1v1h-1z M55,69h1v1h-1z M57,69h1v1h-1z M58,69h1v1h-1z M60,69h1v1h-1z M62,69h1v1h-1z M63,69h1v1h-1z M64,69h1v1h-1z M65,69h1v1h-1z M66,69h1v1h-1z M67,69h1v1h-1z M70,69h1v1h-1z M71,69h1v1h-1z M72,69h1v1h-1z M73,69h1v1h-1z M76,69h1v1h-1z M77,69h1v1h-1z M78,69h1v1h-1z M79,69h1v1h-1z M81,69h1v1h-1z M84,69h1v1h-1z M86,69h1v1h-1z M87,69h1v1h-1z M91,69h1v1h-1z M93,69h1v1h-1z M95,69h1v1h-1z M96,69h1v1h-1z M97,69h1v1h-1z M98,69h1v1h-1z M99,69h1v1h-1z M100,69h1v1h-1z M102,69h1v1h-1z M104,69h1v1h-1z M105,69h1v1h-1z M107,69h1v1h-1z M5,70h1v1h-1z M6,70h1v1h-1z M7,70h1v1h-1z M8,70h1v1h-1z M9,70h1v1h-1z M10,70h1v1h-1z M11,70h1v1h-1z M12,70h1v1h-1z M14,70h1v1h-1z M17,70h1v1h-1z M24,70h1v1h-1z M29,70h1v1h-1z M30,70h1v1h-1z M31,70h1v1h-1z M32,70h1v1h-1z M35,70h1v1h-1z M38,70h1v1h-1z M39,70h1v1h-1z M40,70h1v1h-1z M43,70h1v1h-1z M44,70h1v1h-1z M48,70h1v1h-1z M49,70h1v1h-1z M50,70h1v1h-1z M55,70h1v1h-1z M62,70h1v1h-1z M64,70h1v1h-1z M65,70h1v1h-1z M71,70h1v1h-1z M74,70h1v1h-1z M78,70h1v1h-1z M79,70h1v1h-1z M86,70h1v1h-1z M87,70h1v1h-1z M89,70h1v1h-1z M98,70h1v1h-1z M99,70h1v1h-1z M100,70h1v1h-1z M102,70h1v1h-1z M104,70h1v1h-1z M106,70h1v1h-1z M107,70h1v1h-1z M108,70h1v1h-1z M4,71h1v1h-1z M7,71h1v1h-1z M9,71h1v1h-1z M14,71h1v1h-1z M16,71h1v1h-1z M18,71h1v1h-1z M19,71h1v1h-1z M20,71h1v1h-1z M22,71h1v1h-1z M25,71h1v1h-1z M26,71h1v1h-1z M29,71h1v1h-1z M31,71h1v1h-1z M35,71h1v1h-1z M37,71h1v1h-1z M41,71h1v1h-1z M42,71h1v1h-1z M44,71h1v1h-1z M45,71h1v1h-1z M46,71h1v1h-1z M47,71h1v1h-1z M49,71h1v1h-1z M52,71h1v1h-1z M54,71h1v1h-1z M55,71h1v1h-1z M56,71h1v1h-1z M57,71h1v1h-1z M58,71h1v1h-1z M59,71h1v1h-1z M62,71h1v1h-1z M67,71h1v1h-1z M68,71h1v1h-1z M71,71h1v1h-1z M73,71h1v1h-1z M74,71h1v1h-1z M75,71h1v1h-1z M77,71h1v1h-1z M80,71h1v1h-1z M82,71h1v1h-1z M83,71h1v1h-1z M85,71h1v1h-1z M89,71h1v1h-1z M92,71h1v1h-1z M95,71h1v1h-1z M97,71h1v1h-1z M98,71h1v1h-1z M101,71h1v1h-1z M107,71h1v1h-1z M108,71h1v1h-1z M4,72h1v1h-1z M6,72h1v1h-1z M7,72h1v1h-1z M8,72h1v1h-1z M9,72h1v1h-1z M10,72h1v1h-1z M12,72h1v1h-1z M13,72h1v1h-1z M14,72h1v1h-1z M15,72h1v1h-1z M17,72h1v1h-1z M19,72h1v1h-1z M20,72h1v1h-1z M21,72h1v1h-1z M22,72h1v1h-1z M24,72h1v1h-1z M26,72h1v1h-1z M28,72h1v1h-1z M30,72h1v1h-1z M32,72h1v1h-1z M34,72h1v1h-1z M36,72h1v1h-1z M38,72h1v1h-1z M39,72h1v1h-1z M40,72h1v1h-1z M41,72h1v1h-1z M43,72h1v1h-1z M45,72h1v1h-1z M48,72h1v1h-1z M49,72h1v1h-1z M50,72h1v1h-1z M52,72h1v1h-1z M53,72h1v1h-1z M54,72h1v1h-1z M55,72h1v1h-1z M56,72h1v1h-1z M60,72h1v1h-1z M61,72h1v1h-1z M62,72h1v1h-1z M64,72h1v1h-1z M65,72h1v1h-1z M68,72h1v1h-1z M70,72h1v1h-1z M71,72h1v1h-1z M74,72h1v1h-1z M78,72h1v1h-1z M79,72h1v1h-1z M81,72h1v1h-1z M84,72h1v1h-1z M87,72h1v1h-1z M88,72h1v1h-1z M89,72h1v1h-1z M90,72h1v1h-1z M92,72h1v1h-1z M93,72h1v1h-1z M94,72h1v1h-1z M97,72h1v1h-1z M98,72h1v1h-1z M100,72h1v1h-1z M103,72h1v1h-1z M106,72h1v1h-1z M107,72h1v1h-1z M108,72h1v1h-1z M4,73h1v1h-1z M7,73h1v1h-1z M11,73h1v1h-1z M13,73h1v1h-1z M14,73h1v1h-1z M17,73h1v1h-1z M18,73h1v1h-1z M19,73h1v1h-1z M22,73h1v1h-1z M26,73h1v1h-1z M27,73h1v1h-1z M29,73h1v1h-1z M31,73h1v1h-1z M33,73h1v1h-1z M35,73h1v1h-1z M37,73h1v1h-1z M38,73h1v1h-1z M39,73h1v1h-1z M41,73h1v1h-1z M42,73h1v1h-1z M43,73h1v1h-1z M44,73h1v1h-1z M47,73h1v1h-1z M48,73h1v1h-1z M52,73h1v1h-1z M55,73h1v1h-1z M58,73h1v1h-1z M59,73h1v1h-1z M62,73h1v1h-1z M67,73h1v1h-1z M69,73h1v1h-1z M73,73h1v1h-1z M74,73h1v1h-1z M75,73h1v1h-1z M77,73h1v1h-1z M79,73h1v1h-1z M85,73h1v1h-1z M88,73h1v1h-1z M90,73h1v1h-1z M91,73h1v1h-1z M94,73h1v1h-1z M95,73h1v1h-1z M96,73h1v1h-1z M97,73h1v1h-1z M98,73h1v1h-1z M99,73h1v1h-1z M100,73h1v1h-1z M102,73h1v1h-1z M5,74h1v1h-1z M7,74h1v1h-1z M8,74h1v1h-1z M9,74h1v1h-1z M10,74h1v1h-1z M11,74h1v1h-1z M12,74h1v1h-1z M13,74h1v1h-1z M14,74h1v1h-1z M15,74h1v1h-1z M16,74h1v1h-1z M17,74h1v1h-1z M18,74h1v1h-1z M19,74h1v1h-1z M20,74h1v1h-1z M22,74h1v1h-1z M25,74h1v1h-1z M29,74h1v1h-1z M30,74h1v1h-1z M32,74h1v1h-1z M35,74h1v1h-1z M38,74h1v1h-1z M40,74h1v1h-1z M41,74h1v1h-1z M43,74h1v1h-1z M44,74h1v1h-1z M45,74h1v1h-1z M47,74h1v1h-1z M48,74h1v1h-1z M50,74h1v1h-1z M54,74h1v1h-1z M55,74h1v1h-1z M60,74h1v1h-1z M62,74h1v1h-1z M63,74h1v1h-1z M65,74h1v1h-1z M68,74h1v1h-1z M74,74h1v1h-1z M75,74h1v1h-1z M78,74h1v1h-1z M80,74h1v1h-1z M81,74h1v1h-1z M83,74h1v1h-1z M84,74h1v1h-1z M86,74h1v1h-1z M88,74h1v1h-1z M89,74h1v1h-1z M91,74h1v1h-1z M95,74h1v1h-1z M98,74h1v1h-1z M99,74h1v1h-1z M101,74h1v1h-1z M102,74h1v1h-1z M103,74h1v1h-1z M105,74h1v1h-1z M106,74h1v1h-1z M107,74h1v1h-1z M6,75h1v1h-1z M7,75h1v1h-1z M9,75h1v1h-1z M11,75h1v1h-1z M14,75h1v1h-1z M15,75h1v1h-1z M17,75h1v1h-1z M18,75h1v1h-1z M20,75h1v1h-1z M23,75h1v1h-1z M24,75h1v1h-1z M25,75h1v1h-1z M26,75h1v1h-1z M27,75h1v1h-1z M30,75h1v1h-1z M31,75h1v1h-1z M32,75h1v1h-1z M35,75h1v1h-1z M37,75h1v1h-1z M41,75h1v1h-1z M44,75h1v1h-1z M45,75h1v1h-1z M46,75h1v1h-1z M47,75h1v1h-1z M50,75h1v1h-1z M51,75h1v1h-1z M52,75h1v1h-1z M56,75h1v1h-1z M57,75h1v1h-1z M58,75h1v1h-1z M59,75h1v1h-1z M61,75h1v1h-1z M68,75h1v1h-1z M69,75h1v1h-1z M70,75h1v1h-1z M71,75h1v1h-1z M75,75h1v1h-1z M79,75h1v1h-1z M82,75h1v1h-1z M85,75h1v1h-1z M89,75h1v1h-1z M90,75h1v1h-1z M91,75h1v1h-1z M92,75h1v1h-1z M95,75h1v1h-1z M97,75h1v1h-1z M98,75h1v1h-1z M99,75h1v1h-1z M100,75h1v1h-1z M101,75h1v1h-1z M103,75h1v1h-1z M104,75h1v1h-1z M107,75h1v1h-1z M108,75h1v1h-1z M4,76h1v1h-1z M6,76h1v1h-1z M7,76h1v1h-1z M8,76h1v1h-1z M9,76h1v1h-1z M10,76h1v1h-1z M11,76h1v1h-1z M12,76h1v1h-1z M14,76h1v1h-1z M15,76h1v1h-1z M19,76h1v1h-1z M22,76h1v1h-1z M23,76h1v1h-1z M26,76h1v1h-1z M28,76h1v1h-1z M29,76h1v1h-1z M30,76h1v1h-1z M31,76h1v1h-1z M32,76h1v1h-1z M33,76h1v1h-1z M34,76h1v1h-1z M35,76h1v1h-1z M39,76h1v1h-1z M42,76h1v1h-1z M46,76h1v1h-1z M47,76h1v1h-1z M51,76h1v1h-1z M52,76h1v1h-1z M53,76h1v1h-1z M54,76h1v1h-1z M55,76h1v1h-1z M56,76h1v1h-1z M60,76h1v1h-1z M68,76h1v1h-1z M69,76h1v1h-1z M70,76h1v1h-1z M73,76h1v1h-1z M74,76h1v1h-1z M75,76h1v1h-1z M76,76h1v1h-1z M77,76h1v1h-1z M78,76h1v1h-1z M79,76h1v1h-1z M80,76h1v1h-1z M81,76h1v1h-1z M82,76h1v1h-1z M84,76h1v1h-1z M87,76h1v1h-1z M89,76h1v1h-1z M92,76h1v1h-1z M93,76h1v1h-1z M94,76h1v1h-1z M95,76h1v1h-1z M96,76h1v1h-1z M98,76h1v1h-1z M100,76h1v1h-1z M101,76h1v1h-1z M102,76h1v1h-1z M103,76h1v1h-1z M104,76h1v1h-1z M105,76h1v1h-1z M106,76h1v1h-1z M108,76h1v1h-1z M4,77h1v1h-1z M5,77h1v1h-1z M6,77h1v1h-1z M8,77h1v1h-1z M12,77h1v1h-1z M13,77h1v1h-1z M14,77h1v1h-1z M15,77h1v1h-1z M16,77h1v1h-1z M18,77h1v1h-1z M20,77h1v1h-1z M25,77h1v1h-1z M26,77h1v1h-1z M27,77h1v1h-1z M28,77h1v1h-1z M32,77h1v1h-1z M36,77h1v1h-1z M40,77h1v1h-1z M41,77h1v1h-1z M44,77h1v1h-1z M46,77h1v1h-1z M47,77h1v1h-1z M48,77h1v1h-1z M49,77h1v1h-1z M50,77h1v1h-1z M52,77h1v1h-1z M56,77h1v1h-1z M59,77h1v1h-1z M60,77h1v1h-1z M61,77h1v1h-1z M62,77h1v1h-1z M63,77h1v1h-1z M64,77h1v1h-1z M65,77h1v1h-1z M66,77h1v1h-1z M67,77h1v1h-1z M72,77h1v1h-1z M73,77h1v1h-1z M74,77h1v1h-1z M76,77h1v1h-1z M80,77h1v1h-1z M82,77h1v1h-1z M83,77h1v1h-1z M88,77h1v1h-1z M94,77h1v1h-1z M95,77h1v1h-1z M97,77h1v1h-1z M100,77h1v1h-1z M104,77h1v1h-1z M106,77h1v1h-1z M107,77h1v1h-1z M6,78h1v1h-1z M7,78h1v1h-1z M8,78h1v1h-1z M10,78h1v1h-1z M12,78h1v1h-1z M13,78h1v1h-1z M14,78h1v1h-1z M16,78h1v1h-1z M18,78h1v1h-1z M19,78h1v1h-1z M21,78h1v1h-1z M24,78h1v1h-1z M27,78h1v1h-1z M28,78h1v1h-1z M30,78h1v1h-1z M32,78h1v1h-1z M38,78h1v1h-1z M40,78h1v1h-1z M41,78h1v1h-1z M44,78h1v1h-1z M47,78h1v1h-1z M48,78h1v1h-1z M49,78h1v1h-1z M50,78h1v1h-1z M51,78h1v1h-1z M52,78h1v1h-1z M54,78h1v1h-1z M56,78h1v1h-1z M62,78h1v1h-1z M65,78h1v1h-1z M69,78h1v1h-1z M72,78h1v1h-1z M74,78h1v1h-1z M76,78h1v1h-1z M78,78h1v1h-1z M80,78h1v1h-1z M84,78h1v1h-1z M86,78h1v1h-1z M89,78h1v1h-1z M93,78h1v1h-1z M95,78h1v1h-1z M98,78h1v1h-1z M100,78h1v1h-1z M102,78h1v1h-1z M104,78h1v1h-1z M107,78h1v1h-1z M4,79h1v1h-1z M5,79h1v1h-1z M6,79h1v1h-1z M8,79h1v1h-1z M12,79h1v1h-1z M13,79h1v1h-1z M14,79h1v1h-1z M15,79h1v1h-1z M17,79h1v1h-1z M18,79h1v1h-1z M24,79h1v1h-1z M26,79h1v1h-1z M27,79h1v1h-1z M28,79h1v1h-1z M32,79h1v1h-1z M34,79h1v1h-1z M35,79h1v1h-1z M37,79h1v1h-1z M39,79h1v1h-1z M41,79h1v1h-1z M42,79h1v1h-1z M44,79h1v1h-1z M47,79h1v1h-1z M52,79h1v1h-1z M56,79h1v1h-1z M57,79h1v1h-1z M58,79h1v1h-1z M59,79h1v1h-1z M66,79h1v1h-1z M67,79h1v1h-1z M68,79h1v1h-1z M70,79h1v1h-1z M71,79h1v1h-1z M73,79h1v1h-1z M74,79h1v1h-1z M75,79h1v1h-1z M76,79h1v1h-1z M80,79h1v1h-1z M81,79h1v1h-1z M83,79h1v1h-1z M85,79h1v1h-1z M89,79h1v1h-1z M90,79h1v1h-1z M92,79h1v1h-1z M94,79h1v1h-1z M95,79h1v1h-1z M97,79h1v1h-1z M98,79h1v1h-1z M99,79h1v1h-1z M100,79h1v1h-1z M104,79h1v1h-1z M107,79h1v1h-1z M4,80h1v1h-1z M5,80h1v1h-1z M6,80h1v1h-1z M8,80h1v1h-1z M9,80h1v1h-1z M10,80h1v1h-1z M11,80h1v1h-1z M12,80h1v1h-1z M14,80h1v1h-1z M15,80h1v1h-1z M18,80h1v1h-1z M19,80h1v1h-1z M21,80h1v1h-1z M22,80h1v1h-1z M24,80h1v1h-1z M25,80h1v1h-1z M26,80h1v1h-1z M27,80h1v1h-1z M28,80h1v1h-1z M29,80h1v1h-1z M30,80h1v1h-1z M31,80h1v1h-1z M32,80h1v1h-1z M33,80h1v1h-1z M34,80h1v1h-1z M35,80h1v1h-1z M38,80h1v1h-1z M39,80h1v1h-1z M43,80h1v1h-1z M45,80h1v1h-1z M46,80h1v1h-1z M47,80h1v1h-1z M51,80h1v1h-1z M52,80h1v1h-1z M53,80h1v1h-1z M54,80h1v1h-1z M55,80h1v1h-1z M56,80h1v1h-1z M62,80h1v1h-1z M66,80h1v1h-1z M70,80h1v1h-1z M71,80h1v1h-1z M74,80h1v1h-1z M75,80h1v1h-1z M76,80h1v1h-1z M77,80h1v1h-1z M78,80h1v1h-1z M79,80h1v1h-1z M80,80h1v1h-1z M85,80h1v1h-1z M87,80h1v1h-1z M90,80h1v1h-1z M96,80h1v1h-1z M97,80h1v1h-1z M99,80h1v1h-1z M100,80h1v1h-1z M101,80h1v1h-1z M102,80h1v1h-1z M103,80h1v1h-1z M104,80h1v1h-1z M107,80h1v1h-1z M108,80h1v1h-1z M4,81h1v1h-1z M7,81h1v1h-1z M12,81h1v1h-1z M13,81h1v1h-1z M14,81h1v1h-1z M15,81h1v1h-1z M16,81h1v1h-1z M17,81h1v1h-1z M23,81h1v1h-1z M25,81h1v1h-1z M26,81h1v1h-1z M28,81h1v1h-1z M29,81h1v1h-1z M30,81h1v1h-1z M32,81h1v1h-1z M36,81h1v1h-1z M37,81h1v1h-1z M39,81h1v1h-1z M41,81h1v1h-1z M42,81h1v1h-1z M43,81h1v1h-1z M44,81h1v1h-1z M45,81h1v1h-1z M46,81h1v1h-1z M48,81h1v1h-1z M49,81h1v1h-1z M52,81h1v1h-1z M53,81h1v1h-1z M54,81h1v1h-1z M56,81h1v1h-1z M57,81h1v1h-1z M61,81h1v1h-1z M62,81h1v1h-1z M63,81h1v1h-1z M65,81h1v1h-1z M67,81h1v1h-1z M71,81h1v1h-1z M72,81h1v1h-1z M73,81h1v1h-1z M76,81h1v1h-1z M78,81h1v1h-1z M79,81h1v1h-1z M80,81h1v1h-1z M81,81h1v1h-1z M82,81h1v1h-1z M84,81h1v1h-1z M86,81h1v1h-1z M87,81h1v1h-1z M89,81h1v1h-1z M92,81h1v1h-1z M93,81h1v1h-1z M95,81h1v1h-1z M96,81h1v1h-1z M97,81h1v1h-1z M101,81h1v1h-1z M102,81h1v1h-1z M103,81h1v1h-1z M105,81h1v1h-1z M106,81h1v1h-1z M108,81h1v1h-1z M5,82h1v1h-1z M8,82h1v1h-1z M10,82h1v1h-1z M13,82h1v1h-1z M15,82h1v1h-1z M16,82h1v1h-1z M17,82h1v1h-1z M20,82h1v1h-1z M21,82h1v1h-1z M22,82h1v1h-1z M23,82h1v1h-1z M24,82h1v1h-1z M30,82h1v1h-1z M32,82h1v1h-1z M35,82h1v1h-1z M36,82h1v1h-1z M38,82h1v1h-1z M39,82h1v1h-1z M40,82h1v1h-1z M41,82h1v1h-1z M44,82h1v1h-1z M47,82h1v1h-1z M48,82h1v1h-1z M50,82h1v1h-1z M52,82h1v1h-1z M53,82h1v1h-1z M54,82h1v1h-1z M56,82h1v1h-1z M62,82h1v1h-1z M63,82h1v1h-1z M64,82h1v1h-1z M65,82h1v1h-1z M67,82h1v1h-1z M72,82h1v1h-1z M73,82h1v1h-1z M74,82h1v1h-1z M77,82h1v1h-1z M80,82h1v1h-1z M83,82h1v1h-1z M84,82h1v1h-1z M86,82h1v1h-1z M91,82h1v1h-1z M92,82h1v1h-1z M93,82h1v1h-1z M97,82h1v1h-1z M98,82h1v1h-1z M101,82h1v1h-1z M107,82h1v1h-1z M4,83h1v1h-1z M5,83h1v1h-1z M7,83h1v1h-1z M8,83h1v1h-1z M13,83h1v1h-1z M14,83h1v1h-1z M17,83h1v1h-1z M20,83h1v1h-1z M26,83h1v1h-1z M27,83h1v1h-1z M29,83h1v1h-1z M31,83h1v1h-1z M32,83h1v1h-1z M33,83h1v1h-1z M37,83h1v1h-1z M38,83h1v1h-1z M44,83h1v1h-1z M45,83h1v1h-1z M50,83h1v1h-1z M54,83h1v1h-1z M56,83h1v1h-1z M57,83h1v1h-1z M58,83h1v1h-1z M59,83h1v1h-1z M61,83h1v1h-1z M62,83h1v1h-1z M68,83h1v1h-1z M70,83h1v1h-1z M71,83h1v1h-1z M77,83h1v1h-1z M81,83h1v1h-1z M83,83h1v1h-1z M85,83h1v1h-1z M86,83h1v1h-1z M90,83h1v1h-1z M92,83h1v1h-1z M94,83h1v1h-1z M95,83h1v1h-1z M100,83h1v1h-1z M101,83h1v1h-1z M107,83h1v1h-1z M108,83h1v1h-1z M4,84h1v1h-1z M5,84h1v1h-1z M6,84h1v1h-1z M8,84h1v1h-1z M9,84h1v1h-1z M10,84h1v1h-1z M11,84h1v1h-1z M14,84h1v1h-1z M15,84h1v1h-1z M17,84h1v1h-1z M21,84h1v1h-1z M22,84h1v1h-1z M27,84h1v1h-1z M29,84h1v1h-1z M30,84h1v1h-1z M32,84h1v1h-1z M36,84h1v1h-1z M37,84h1v1h-1z M40,84h1v1h-1z M43,84h1v1h-1z M47,84h1v1h-1z M49,84h1v1h-1z M50,84h1v1h-1z M51,84h1v1h-1z M53,84h1v1h-1z M54,84h1v1h-1z M55,84h1v1h-1z M58,84h1v1h-1z M61,84h1v1h-1z M62,84h1v1h-1z M63,84h1v1h-1z M65,84h1v1h-1z M66,84h1v1h-1z M67,84h1v1h-1z M68,84h1v1h-1z M69,84h1v1h-1z M70,84h1v1h-1z M71,84h1v1h-1z M73,84h1v1h-1z M79,84h1v1h-1z M81,84h1v1h-1z M82,84h1v1h-1z M83,84h1v1h-1z M84,84h1v1h-1z M85,84h1v1h-1z M87,84h1v1h-1z M89,84h1v1h-1z M91,84h1v1h-1z M92,84h1v1h-1z M93,84h1v1h-1z M97,84h1v1h-1z M102,84h1v1h-1z M103,84h1v1h-1z M106,84h1v1h-1z M107,84h1v1h-1z M5,85h1v1h-1z M7,85h1v1h-1z M9,85h1v1h-1z M14,85h1v1h-1z M18,85h1v1h-1z M23,85h1v1h-1z M24,85h1v1h-1z M25,85h1v1h-1z M28,85h1v1h-1z M30,85h1v1h-1z M32,85h1v1h-1z M35,85h1v1h-1z M36,85h1v1h-1z M39,85h1v1h-1z M41,85h1v1h-1z M43,85h1v1h-1z M48,85h1v1h-1z M50,85h1v1h-1z M54,85h1v1h-1z M55,85h1v1h-1z M56,85h1v1h-1z M57,85h1v1h-1z M58,85h1v1h-1z M64,85h1v1h-1z M67,85h1v1h-1z M70,85h1v1h-1z M72,85h1v1h-1z M77,85h1v1h-1z M78,85h1v1h-1z M79,85h1v1h-1z M80,85h1v1h-1z M81,85h1v1h-1z M82,85h1v1h-1z M83,85h1v1h-1z M87,85h1v1h-1z M89,85h1v1h-1z M90,85h1v1h-1z M91,85h1v1h-1z M93,85h1v1h-1z M96,85h1v1h-1z M97,85h1v1h-1z M98,85h1v1h-1z M100,85h1v1h-1z M101,85h1v1h-1z M103,85h1v1h-1z M106,85h1v1h-1z M5,86h1v1h-1z M6,86h1v1h-1z M7,86h1v1h-1z M8,86h1v1h-1z M9,86h1v1h-1z M10,86h1v1h-1z M11,86h1v1h-1z M12,86h1v1h-1z M13,86h1v1h-1z M14,86h1v1h-1z M17,86h1v1h-1z M19,86h1v1h-1z M22,86h1v1h-1z M23,86h1v1h-1z M25,86h1v1h-1z M28,86h1v1h-1z M29,86h1v1h-1z M32,86h1v1h-1z M35,86h1v1h-1z M38,86h1v1h-1z M39,86h1v1h-1z M41,86h1v1h-1z M43,86h1v1h-1z M50,86h1v1h-1z M51,86h1v1h-1z M56,86h1v1h-1z M59,86h1v1h-1z M60,86h1v1h-1z M62,86h1v1h-1z M65,86h1v1h-1z M67,86h1v1h-1z M68,86h1v1h-1z M74,86h1v1h-1z M75,86h1v1h-1z M77,86h1v1h-1z M78,86h1v1h-1z M79,86h1v1h-1z M80,86h1v1h-1z M83,86h1v1h-1z M84,86h1v1h-1z M86,86h1v1h-1z M87,86h1v1h-1z M88,86h1v1h-1z M89,86h1v1h-1z M91,86h1v1h-1z M95,86h1v1h-1z M98,86h1v1h-1z M99,86h1v1h-1z M101,86h1v1h-1z M103,86h1v1h-1z M104,86h1v1h-1z M105,86h1v1h-1z M106,86h1v1h-1z M4,87h1v1h-1z M8,87h1v1h-1z M9,87h1v1h-1z M13,87h1v1h-1z M14,87h1v1h-1z M15,87h1v1h-1z M16,87h1v1h-1z M25,87h1v1h-1z M29,87h1v1h-1z M32,87h1v1h-1z M33,87h1v1h-1z M34,87h1v1h-1z M35,87h1v1h-1z M37,87h1v1h-1z M38,87h1v1h-1z M42,87h1v1h-1z M44,87h1v1h-1z M47,87h1v1h-1z M49,87h1v1h-1z M51,87h1v1h-1z M54,87h1v1h-1z M56,87h1v1h-1z M57,87h1v1h-1z M61,87h1v1h-1z M68,87h1v1h-1z M69,87h1v1h-1z M70,87h1v1h-1z M71,87h1v1h-1z M73,87h1v1h-1z M74,87h1v1h-1z M75,87h1v1h-1z M76,87h1v1h-1z M77,87h1v1h-1z M80,87h1v1h-1z M82,87h1v1h-1z M83,87h1v1h-1z M85,87h1v1h-1z M86,87h1v1h-1z M89,87h1v1h-1z M92,87h1v1h-1z M94,87h1v1h-1z M95,87h1v1h-1z M97,87h1v1h-1z M98,87h1v1h-1z M100,87h1v1h-1z M101,87h1v1h-1z M104,87h1v1h-1z M4,88h1v1h-1z M6,88h1v1h-1z M10,88h1v1h-1z M13,88h1v1h-1z M15,88h1v1h-1z M16,88h1v1h-1z M17,88h1v1h-1z M19,88h1v1h-1z M22,88h1v1h-1z M23,88h1v1h-1z M27,88h1v1h-1z M31,88h1v1h-1z M35,88h1v1h-1z M37,88h1v1h-1z M38,88h1v1h-1z M40,88h1v1h-1z M41,88h1v1h-1z M42,88h1v1h-1z M44,88h1v1h-1z M46,88h1v1h-1z M47,88h1v1h-1z M48,88h1v1h-1z M51,88h1v1h-1z M58,88h1v1h-1z M59,88h1v1h-1z M61,88h1v1h-1z M62,88h1v1h-1z M63,88h1v1h-1z M66,88h1v1h-1z M71,88h1v1h-1z M72,88h1v1h-1z M73,88h1v1h-1z M75,88h1v1h-1z M76,88h1v1h-1z M79,88h1v1h-1z M81,88h1v1h-1z M82,88h1v1h-1z M83,88h1v1h-1z M85,88h1v1h-1z M86,88h1v1h-1z M87,88h1v1h-1z M88,88h1v1h-1z M91,88h1v1h-1z M93,88h1v1h-1z M95,88h1v1h-1z M96,88h1v1h-1z M97,88h1v1h-1z M100,88h1v1h-1z M103,88h1v1h-1z M104,88h1v1h-1z M105,88h1v1h-1z M108,88h1v1h-1z M6,89h1v1h-1z M14,89h1v1h-1z M16,89h1v1h-1z M17,89h1v1h-1z M18,89h1v1h-1z M19,89h1v1h-1z M20,89h1v1h-1z M21,89h1v1h-1z M26,89h1v1h-1z M28,89h1v1h-1z M30,89h1v1h-1z M31,89h1v1h-1z M34,89h1v1h-1z M36,89h1v1h-1z M37,89h1v1h-1z M45,89h1v1h-1z M47,89h1v1h-1z M48,89h1v1h-1z M49,89h1v1h-1z M54,89h1v1h-1z M56,89h1v1h-1z M58,89h1v1h-1z M60,89h1v1h-1z M62,89h1v1h-1z M65,89h1v1h-1z M68,89h1v1h-1z M69,89h1v1h-1z M72,89h1v1h-1z M74,89h1v1h-1z M78,89h1v1h-1z M79,89h1v1h-1z M81,89h1v1h-1z M83,89h1v1h-1z M84,89h1v1h-1z M85,89h1v1h-1z M88,89h1v1h-1z M92,89h1v1h-1z M94,89h1v1h-1z M95,89h1v1h-1z M96,89h1v1h-1z M97,89h1v1h-1z M99,89h1v1h-1z M101,89h1v1h-1z M103,89h1v1h-1z M105,89h1v1h-1z M4,90h1v1h-1z M7,90h1v1h-1z M8,90h1v1h-1z M10,90h1v1h-1z M11,90h1v1h-1z M12,90h1v1h-1z M13,90h1v1h-1z M14,90h1v1h-1z M15,90h1v1h-1z M17,90h1v1h-1z M18,90h1v1h-1z M20,90h1v1h-1z M24,90h1v1h-1z M25,90h1v1h-1z M26,90h1v1h-1z M30,90h1v1h-1z M32,90h1v1h-1z M35,90h1v1h-1z M38,90h1v1h-1z M39,90h1v1h-1z M41,90h1v1h-1z M43,90h1v1h-1z M44,90h1v1h-1z M47,90h1v1h-1z M48,90h1v1h-1z M50,90h1v1h-1z M51,90h1v1h-1z M52,90h1v1h-1z M53,90h1v1h-1z M54,90h1v1h-1z M56,90h1v1h-1z M59,90h1v1h-1z M62,90h1v1h-1z M64,90h1v1h-1z M65,90h1v1h-1z M69,90h1v1h-1z M71,90h1v1h-1z M72,90h1v1h-1z M74,90h1v1h-1z M77,90h1v1h-1z M78,90h1v1h-1z M80,90h1v1h-1z M83,90h1v1h-1z M84,90h1v1h-1z M86,90h1v1h-1z M88,90h1v1h-1z M89,90h1v1h-1z M92,90h1v1h-1z M96,90h1v1h-1z M98,90h1v1h-1z M99,90h1v1h-1z M100,90h1v1h-1z M101,90h1v1h-1z M103,90h1v1h-1z M104,90h1v1h-1z M106,90h1v1h-1z M107,90h1v1h-1z M4,91h1v1h-1z M8,91h1v1h-1z M11,91h1v1h-1z M12,91h1v1h-1z M16,91h1v1h-1z M18,91h1v1h-1z M19,91h1v1h-1z M20,91h1v1h-1z M22,91h1v1h-1z M23,91h1v1h-1z M24,91h1v1h-1z M27,91h1v1h-1z M28,91h1v1h-1z M29,91h1v1h-1z M32,91h1v1h-1z M33,91h1v1h-1z M34,91h1v1h-1z M35,91h1v1h-1z M37,91h1v1h-1z M38,91h1v1h-1z M44,91h1v1h-1z M45,91h1v1h-1z M46,91h1v1h-1z M47,91h1v1h-1z M49,91h1v1h-1z M52,91h1v1h-1z M53,91h1v1h-1z M54,91h1v1h-1z M55,91h1v1h-1z M56,91h1v1h-1z M58,91h1v1h-1z M59,91h1v1h-1z M65,91h1v1h-1z M68,91h1v1h-1z M70,91h1v1h-1z M71,91h1v1h-1z M73,91h1v1h-1z M74,91h1v1h-1z M75,91h1v1h-1z M76,91h1v1h-1z M79,91h1v1h-1z M80,91h1v1h-1z M85,91h1v1h-1z M87,91h1v1h-1z M92,91h1v1h-1z M95,91h1v1h-1z M97,91h1v1h-1z M98,91h1v1h-1z M101,91h1v1h-1z M102,91h1v1h-1z M103,91h1v1h-1z M5,92h1v1h-1z M8,92h1v1h-1z M10,92h1v1h-1z M12,92h1v1h-1z M14,92h1v1h-1z M16,92h1v1h-1z M26,92h1v1h-1z M27,92h1v1h-1z M32,92h1v1h-1z M34,92h1v1h-1z M36,92h1v1h-1z M39,92h1v1h-1z M40,92h1v1h-1z M41,92h1v1h-1z M42,92h1v1h-1z M44,92h1v1h-1z M45,92h1v1h-1z M50,92h1v1h-1z M51,92h1v1h-1z M52,92h1v1h-1z M56,92h1v1h-1z M58,92h1v1h-1z M59,92h1v1h-1z M60,92h1v1h-1z M64,92h1v1h-1z M65,92h1v1h-1z M66,92h1v1h-1z M69,92h1v1h-1z M70,92h1v1h-1z M72,92h1v1h-1z M74,92h1v1h-1z M75,92h1v1h-1z M76,92h1v1h-1z M77,92h1v1h-1z M78,92h1v1h-1z M79,92h1v1h-1z M81,92h1v1h-1z M82,92h1v1h-1z M84,92h1v1h-1z M85,92h1v1h-1z M89,92h1v1h-1z M90,92h1v1h-1z M92,92h1v1h-1z M93,92h1v1h-1z M94,92h1v1h-1z M95,92h1v1h-1z M101,92h1v1h-1z M104,92h1v1h-1z M6,93h1v1h-1z M7,93h1v1h-1z M8,93h1v1h-1z M9,93h1v1h-1z M13,93h1v1h-1z M14,93h1v1h-1z M15,93h1v1h-1z M16,93h1v1h-1z M17,93h1v1h-1z M18,93h1v1h-1z M21,93h1v1h-1z M24,93h1v1h-1z M30,93h1v1h-1z M33,93h1v1h-1z M35,93h1v1h-1z M37,93h1v1h-1z M38,93h1v1h-1z M41,93h1v1h-1z M50,93h1v1h-1z M54,93h1v1h-1z M57,93h1v1h-1z M58,93h1v1h-1z M59,93h1v1h-1z M60,93h1v1h-1z M62,93h1v1h-1z M64,93h1v1h-1z M65,93h1v1h-1z M67,93h1v1h-1z M70,93h1v1h-1z M71,93h1v1h-1z M73,93h1v1h-1z M78,93h1v1h-1z M80,93h1v1h-1z M83,93h1v1h-1z M84,93h1v1h-1z M85,93h1v1h-1z M88,93h1v1h-1z M89,93h1v1h-1z M90,93h1v1h-1z M92,93h1v1h-1z M95,93h1v1h-1z M96,93h1v1h-1z M97,93h1v1h-1z M98,93h1v1h-1z M101,93h1v1h-1z M103,93h1v1h-1z M105,93h1v1h-1z M106,93h1v1h-1z M107,93h1v1h-1z M108,93h1v1h-1z M4,94h1v1h-1z M5,94h1v1h-1z M8,94h1v1h-1z M10,94h1v1h-1z M11,94h1v1h-1z M12,94h1v1h-1z M13,94h1v1h-1z M15,94h1v1h-1z M16,94h1v1h-1z M22,94h1v1h-1z M29,94h1v1h-1z M30,94h1v1h-1z M32,94h1v1h-1z M37,94h1v1h-1z M38,94h1v1h-1z M40,94h1v1h-1z M41,94h1v1h-1z M44,94h1v1h-1z M48,94h1v1h-1z M50,94h1v1h-1z M52,94h1v1h-1z M56,94h1v1h-1z M57,94h1v1h-1z M60,94h1v1h-1z M62,94h1v1h-1z M64,94h1v1h-1z M65,94h1v1h-1z M67,94h1v1h-1z M71,94h1v1h-1z M72,94h1v1h-1z M74,94h1v1h-1z M75,94h1v1h-1z M80,94h1v1h-1z M86,94h1v1h-1z M88,94h1v1h-1z M89,94h1v1h-1z M91,94h1v1h-1z M92,94h1v1h-1z M97,94h1v1h-1z M98,94h1v1h-1z M99,94h1v1h-1z M100,94h1v1h-1z M101,94h1v1h-1z M107,94h1v1h-1z M4,95h1v1h-1z M8,95h1v1h-1z M9,95h1v1h-1z M11,95h1v1h-1z M12,95h1v1h-1z M15,95h1v1h-1z M16,95h1v1h-1z M17,95h1v1h-1z M18,95h1v1h-1z M19,95h1v1h-1z M20,95h1v1h-1z M22,95h1v1h-1z M24,95h1v1h-1z M29,95h1v1h-1z M32,95h1v1h-1z M34,95h1v1h-1z M35,95h1v1h-1z M39,95h1v1h-1z M42,95h1v1h-1z M44,95h1v1h-1z M47,95h1v1h-1z M51,95h1v1h-1z M55,95h1v1h-1z M56,95h1v1h-1z M58,95h1v1h-1z M59,95h1v1h-1z M62,95h1v1h-1z M63,95h1v1h-1z M66,95h1v1h-1z M68,95h1v1h-1z M71,95h1v1h-1z M75,95h1v1h-1z M76,95h1v1h-1z M77,95h1v1h-1z M80,95h1v1h-1z M81,95h1v1h-1z M83,95h1v1h-1z M87,95h1v1h-1z M89,95h1v1h-1z M90,95h1v1h-1z M92,95h1v1h-1z M93,95h1v1h-1z M95,95h1v1h-1z M99,95h1v1h-1z M100,95h1v1h-1z M102,95h1v1h-1z M103,95h1v1h-1z M107,95h1v1h-1z M4,96h1v1h-1z M5,96h1v1h-1z M6,96h1v1h-1z M7,96h1v1h-1z M10,96h1v1h-1z M11,96h1v1h-1z M13,96h1v1h-1z M14,96h1v1h-1z M16,96h1v1h-1z M17,96h1v1h-1z M18,96h1v1h-1z M19,96h1v1h-1z M20,96h1v1h-1z M21,96h1v1h-1z M23,96h1v1h-1z M27,96h1v1h-1z M34,96h1v1h-1z M35,96h1v1h-1z M38,96h1v1h-1z M40,96h1v1h-1z M41,96h1v1h-1z M45,96h1v1h-1z M46,96h1v1h-1z M51,96h1v1h-1z M52,96h1v1h-1z M53,96h1v1h-1z M54,96h1v1h-1z M55,96h1v1h-1z M56,96h1v1h-1z M57,96h1v1h-1z M60,96h1v1h-1z M63,96h1v1h-1z M64,96h1v1h-1z M66,96h1v1h-1z M67,96h1v1h-1z M68,96h1v1h-1z M70,96h1v1h-1z M71,96h1v1h-1z M73,96h1v1h-1z M75,96h1v1h-1z M77,96h1v1h-1z M78,96h1v1h-1z M83,96h1v1h-1z M84,96h1v1h-1z M85,96h1v1h-1z M87,96h1v1h-1z M88,96h1v1h-1z M89,96h1v1h-1z M90,96h1v1h-1z M92,96h1v1h-1z M93,96h1v1h-1z M94,96h1v1h-1z M96,96h1v1h-1z M97,96h1v1h-1z M98,96h1v1h-1z M100,96h1v1h-1z M101,96h1v1h-1z M107,96h1v1h-1z M108,96h1v1h-1z M4,97h1v1h-1z M5,97h1v1h-1z M13,97h1v1h-1z M15,97h1v1h-1z M16,97h1v1h-1z M18,97h1v1h-1z M19,97h1v1h-1z M23,97h1v1h-1z M25,97h1v1h-1z M26,97h1v1h-1z M29,97h1v1h-1z M30,97h1v1h-1z M31,97h1v1h-1z M32,97h1v1h-1z M33,97h1v1h-1z M34,97h1v1h-1z M35,97h1v1h-1z M37,97h1v1h-1z M38,97h1v1h-1z M39,97h1v1h-1z M40,97h1v1h-1z M41,97h1v1h-1z M42,97h1v1h-1z M45,97h1v1h-1z M46,97h1v1h-1z M47,97h1v1h-1z M48,97h1v1h-1z M49,97h1v1h-1z M54,97h1v1h-1z M56,97h1v1h-1z M60,97h1v1h-1z M61,97h1v1h-1z M62,97h1v1h-1z M63,97h1v1h-1z M64,97h1v1h-1z M67,97h1v1h-1z M69,97h1v1h-1z M70,97h1v1h-1z M72,97h1v1h-1z M74,97h1v1h-1z M76,97h1v1h-1z M78,97h1v1h-1z M84,97h1v1h-1z M89,97h1v1h-1z M94,97h1v1h-1z M95,97h1v1h-1z M98,97h1v1h-1z M100,97h1v1h-1z M101,97h1v1h-1z M103,97h1v1h-1z M106,97h1v1h-1z M4,98h1v1h-1z M5,98h1v1h-1z M6,98h1v1h-1z M10,98h1v1h-1z M12,98h1v1h-1z M13,98h1v1h-1z M15,98h1v1h-1z M18,98h1v1h-1z M20,98h1v1h-1z M21,98h1v1h-1z M22,98h1v1h-1z M23,98h1v1h-1z M25,98h1v1h-1z M29,98h1v1h-1z M30,98h1v1h-1z M32,98h1v1h-1z M35,98h1v1h-1z M36,98h1v1h-1z M38,98h1v1h-1z M39,98h1v1h-1z M40,98h1v1h-1z M41,98h1v1h-1z M43,98h1v1h-1z M50,98h1v1h-1z M51,98h1v1h-1z M54,98h1v1h-1z M56,98h1v1h-1z M60,98h1v1h-1z M62,98h1v1h-1z M63,98h1v1h-1z M65,98h1v1h-1z M67,98h1v1h-1z M68,98h1v1h-1z M69,98h1v1h-1z M71,98h1v1h-1z M72,98h1v1h-1z M74,98h1v1h-1z M75,98h1v1h-1z M76,98h1v1h-1z M77,98h1v1h-1z M78,98h1v1h-1z M80,98h1v1h-1z M84,98h1v1h-1z M86,98h1v1h-1z M87,98h1v1h-1z M88,98h1v1h-1z M91,98h1v1h-1z M92,98h1v1h-1z M98,98h1v1h-1z M100,98h1v1h-1z M103,98h1v1h-1z M6,99h1v1h-1z M8,99h1v1h-1z M9,99h1v1h-1z M12,99h1v1h-1z M14,99h1v1h-1z M17,99h1v1h-1z M20,99h1v1h-1z M21,99h1v1h-1z M22,99h1v1h-1z M24,99h1v1h-1z M28,99h1v1h-1z M30,99h1v1h-1z M31,99h1v1h-1z M33,99h1v1h-1z M35,99h1v1h-1z M38,99h1v1h-1z M44,99h1v1h-1z M45,99h1v1h-1z M47,99h1v1h-1z M50,99h1v1h-1z M52,99h1v1h-1z M56,99h1v1h-1z M57,99h1v1h-1z M59,99h1v1h-1z M61,99h1v1h-1z M62,99h1v1h-1z M65,99h1v1h-1z M68,99h1v1h-1z M70,99h1v1h-1z M71,99h1v1h-1z M75,99h1v1h-1z M76,99h1v1h-1z M77,99h1v1h-1z M78,99h1v1h-1z M80,99h1v1h-1z M81,99h1v1h-1z M83,99h1v1h-1z M85,99h1v1h-1z M90,99h1v1h-1z M92,99h1v1h-1z M93,99h1v1h-1z M95,99h1v1h-1z M97,99h1v1h-1z M99,99h1v1h-1z M100,99h1v1h-1z M101,99h1v1h-1z M102,99h1v1h-1z M7,100h1v1h-1z M8,100h1v1h-1z M10,100h1v1h-1z M14,100h1v1h-1z M15,100h1v1h-1z M17,100h1v1h-1z M18,100h1v1h-1z M19,100h1v1h-1z M20,100h1v1h-1z M21,100h1v1h-1z M25,100h1v1h-1z M26,100h1v1h-1z M28,100h1v1h-1z M29,100h1v1h-1z M30,100h1v1h-1z M31,100h1v1h-1z M32,100h1v1h-1z M34,100h1v1h-1z M35,100h1v1h-1z M39,100h1v1h-1z M42,100h1v1h-1z M43,100h1v1h-1z M44,100h1v1h-1z M46,100h1v1h-1z M49,100h1v1h-1z M50,100h1v1h-1z M51,100h1v1h-1z M52,100h1v1h-1z M53,100h1v1h-1z M54,100h1v1h-1z M55,100h1v1h-1z M56,100h1v1h-1z M57,100h1v1h-1z M58,100h1v1h-1z M63,100h1v1h-1z M64,100h1v1h-1z M65,100h1v1h-1z M66,100h1v1h-1z M67,100h1v1h-1z M68,100h1v1h-1z M69,100h1v1h-1z M70,100h1v1h-1z M72,100h1v1h-1z M73,100h1v1h-1z M75,100h1v1h-1z M76,100h1v1h-1z M77,100h1v1h-1z M78,100h1v1h-1z M79,100h1v1h-1z M80,100h1v1h-1z M81,100h1v1h-1z M83,100h1v1h-1z M87,100h1v1h-1z M89,100h1v1h-1z M90,100h1v1h-1z M92,100h1v1h-1z M94,100h1v1h-1z M98,100h1v1h-1z M100,100h1v1h-1z M101,100h1v1h-1z M102,100h1v1h-1z M103,100h1v1h-1z M104,100h1v1h-1z M106,100h1v1h-1z M107,100h1v1h-1z M12,101h1v1h-1z M13,101h1v1h-1z M14,101h1v1h-1z M15,101h1v1h-1z M20,101h1v1h-1z M22,101h1v1h-1z M27,101h1v1h-1z M28,101h1v1h-1z M32,101h1v1h-1z M33,101h1v1h-1z M34,101h1v1h-1z M38,101h1v1h-1z M39,101h1v1h-1z M40,101h1v1h-1z M41,101h1v1h-1z M44,101h1v1h-1z M45,101h1v1h-1z M47,101h1v1h-1z M48,101h1v1h-1z M50,101h1v1h-1z M52,101h1v1h-1z M56,101h1v1h-1z M57,101h1v1h-1z M58,101h1v1h-1z M59,101h1v1h-1z M62,101h1v1h-1z M63,101h1v1h-1z M64,101h1v1h-1z M66,101h1v1h-1z M67,101h1v1h-1z M69,101h1v1h-1z M70,101h1v1h-1z M71,101h1v1h-1z M73,101h1v1h-1z M75,101h1v1h-1z M76,101h1v1h-1z M80,101h1v1h-1z M81,101h1v1h-1z M82,101h1v1h-1z M84,101h1v1h-1z M86,101h1v1h-1z M87,101h1v1h-1z M90,101h1v1h-1z M94,101h1v1h-1z M96,101h1v1h-1z M97,101h1v1h-1z M100,101h1v1h-1z M104,101h1v1h-1z M105,101h1v1h-1z M107,101h1v1h-1z M4,102h1v1h-1z M5,102h1v1h-1z M6,102h1v1h-1z M7,102h1v1h-1z M8,102h1v1h-1z M9,102h1v1h-1z M10,102h1v1h-1z M14,102h1v1h-1z M17,102h1v1h-1z M19,102h1v1h-1z M20,102h1v1h-1z M21,102h1v1h-1z M22,102h1v1h-1z M23,102h1v1h-1z M27,102h1v1h-1z M28,102h1v1h-1z M30,102h1v1h-1z M32,102h1v1h-1z M36,102h1v1h-1z M37,102h1v1h-1z M38,102h1v1h-1z M41,102h1v1h-1z M48,102h1v1h-1z M50,102h1v1h-1z M51,102h1v1h-1z M52,102h1v1h-1z M54,102h1v1h-1z M56,102h1v1h-1z M60,102h1v1h-1z M61,102h1v1h-1z M62,102h1v1h-1z M64,102h1v1h-1z M65,102h1v1h-1z M71,102h1v1h-1z M72,102h1v1h-1z M74,102h1v1h-1z M75,102h1v1h-1z M76,102h1v1h-1z M78,102h1v1h-1z M80,102h1v1h-1z M83,102h1v1h-1z M84,102h1v1h-1z M86,102h1v1h-1z M87,102h1v1h-1z M89,102h1v1h-1z M95,102h1v1h-1z M96,102h1v1h-1z M98,102h1v1h-1z M99,102h1v1h-1z M100,102h1v1h-1z M102,102h1v1h-1z M104,102h1v1h-1z M105,102h1v1h-1z M107,102h1v1h-1z M4,103h1v1h-1z M10,103h1v1h-1z M12,103h1v1h-1z M13,103h1v1h-1z M15,103h1v1h-1z M17,103h1v1h-1z M19,103h1v1h-1z M21,103h1v1h-1z M22,103h1v1h-1z M23,103h1v1h-1z M27,103h1v1h-1z M28,103h1v1h-1z M32,103h1v1h-1z M34,103h1v1h-1z M35,103h1v1h-1z M43,103h1v1h-1z M44,103h1v1h-1z M45,103h1v1h-1z M46,103h1v1h-1z M47,103h1v1h-1z M49,103h1v1h-1z M52,103h1v1h-1z M56,103h1v1h-1z M57,103h1v1h-1z M59,103h1v1h-1z M61,103h1v1h-1z M63,103h1v1h-1z M67,103h1v1h-1z M68,103h1v1h-1z M71,103h1v1h-1z M73,103h1v1h-1z M74,103h1v1h-1z M76,103h1v1h-1z M80,103h1v1h-1z M83,103h1v1h-1z M86,103h1v1h-1z M91,103h1v1h-1z M92,103h1v1h-1z M93,103h1v1h-1z M95,103h1v1h-1z M97,103h1v1h-1z M100,103h1v1h-1z M104,103h1v1h-1z M105,103h1v1h-1z M4,104h1v1h-1z M6,104h1v1h-1z M7,104h1v1h-1z M8,104h1v1h-1z M10,104h1v1h-1z M12,104h1v1h-1z M13,104h1v1h-1z M16,104h1v1h-1z M17,104h1v1h-1z M18,104h1v1h-1z M19,104h1v1h-1z M20,104h1v1h-1z M21,104h1v1h-1z M23,104h1v1h-1z M26,104h1v1h-1z M27,104h1v1h-1z M28,104h1v1h-1z M29,104h1v1h-1z M30,104h1v1h-1z M31,104h1v1h-1z M32,104h1v1h-1z M34,104h1v1h-1z M35,104h1v1h-1z M36,104h1v1h-1z M40,104h1v1h-1z M41,104h1v1h-1z M42,104h1v1h-1z M43,104h1v1h-1z M44,104h1v1h-1z M46,104h1v1h-1z M47,104h1v1h-1z M49,104h1v1h-1z M50,104h1v1h-1z M51,104h1v1h-1z M52,104h1v1h-1z M53,104h1v1h-1z M54,104h1v1h-1z M55,104h1v1h-1z M56,104h1v1h-1z M58,104h1v1h-1z M59,104h1v1h-1z M62,104h1v1h-1z M63,104h1v1h-1z M64,104h1v1h-1z M71,104h1v1h-1z M75,104h1v1h-1z M76,104h1v1h-1z M77,104h1v1h-1z M78,104h1v1h-1z M79,104h1v1h-1z M80,104h1v1h-1z M81,104h1v1h-1z M82,104h1v1h-1z M83,104h1v1h-1z M88,104h1v1h-1z M89,104h1v1h-1z M90,104h1v1h-1z M91,104h1v1h-1z M92,104h1v1h-1z M93,104h1v1h-1z M94,104h1v1h-1z M100,104h1v1h-1z M101,104h1v1h-1z M102,104h1v1h-1z M103,104h1v1h-1z M104,104h1v1h-1z M105,104h1v1h-1z M107,104h1v1h-1z M4,105h1v1h-1z M6,105h1v1h-1z M7,105h1v1h-1z M8,105h1v1h-1z M10,105h1v1h-1z M13,105h1v1h-1z M15,105h1v1h-1z M16,105h1v1h-1z M19,105h1v1h-1z M20,105h1v1h-1z M22,105h1v1h-1z M23,105h1v1h-1z M24,105h1v1h-1z M28,105h1v1h-1z M29,105h1v1h-1z M30,105h1v1h-1z M32,105h1v1h-1z M33,105h1v1h-1z M34,105h1v1h-1z M35,105h1v1h-1z M38,105h1v1h-1z M43,105h1v1h-1z M47,105h1v1h-1z M48,105h1v1h-1z M49,105h1v1h-1z M50,105h1v1h-1z M51,105h1v1h-1z M53,105h1v1h-1z M54,105h1v1h-1z M59,105h1v1h-1z M60,105h1v1h-1z M64,105h1v1h-1z M65,105h1v1h-1z M66,105h1v1h-1z M70,105h1v1h-1z M74,105h1v1h-1z M80,105h1v1h-1z M81,105h1v1h-1z M83,105h1v1h-1z M84,105h1v1h-1z M85,105h1v1h-1z M87,105h1v1h-1z M88,105h1v1h-1z M89,105h1v1h-1z M91,105h1v1h-1z M93,105h1v1h-1z M94,105h1v1h-1z M96,105h1v1h-1z M97,105h1v1h-1z M101,105h1v1h-1z M102,105h1v1h-1z M106,105h1v1h-1z M107,105h1v1h-1z M108,105h1v1h-1z M4,106h1v1h-1z M6,106h1v1h-1z M7,106h1v1h-1z M8,106h1v1h-1z M10,106h1v1h-1z M13,106h1v1h-1z M14,106h1v1h-1z M15,106h1v1h-1z M17,106h1v1h-1z M19,106h1v1h-1z M20,106h1v1h-1z M25,106h1v1h-1z M28,106h1v1h-1z M29,106h1v1h-1z M37,106h1v1h-1z M38,106h1v1h-1z M39,106h1v1h-1z M40,106h1v1h-1z M43,106h1v1h-1z M50,106h1v1h-1z M51,106h1v1h-1z M53,106h1v1h-1z M55,106h1v1h-1z M56,106h1v1h-1z M60,106h1v1h-1z M62,106h1v1h-1z M63,106h1v1h-1z M64,106h1v1h-1z M65,106h1v1h-1z M67,106h1v1h-1z M69,106h1v1h-1z M74,106h1v1h-1z M75,106h1v1h-1z M76,106h1v1h-1z M77,106h1v1h-1z M79,106h1v1h-1z M80,106h1v1h-1z M84,106h1v1h-1z M86,106h1v1h-1z M87,106h1v1h-1z M92,106h1v1h-1z M98,106h1v1h-1z M101,106h1v1h-1z M102,106h1v1h-1z M104,106h1v1h-1z M105,106h1v1h-1z M106,106h1v1h-1z M4,107h1v1h-1z M10,107h1v1h-1z M12,107h1v1h-1z M13,107h1v1h-1z M15,107h1v1h-1z M17,107h1v1h-1z M18,107h1v1h-1z M19,107h1v1h-1z M21,107h1v1h-1z M23,107h1v1h-1z M32,107h1v1h-1z M33,107h1v1h-1z M34,107h1v1h-1z M35,107h1v1h-1z M41,107h1v1h-1z M42,107h1v1h-1z M44,107h1v1h-1z M46,107h1v1h-1z M47,107h1v1h-1z M50,107h1v1h-1z M54,107h1v1h-1z M56,107h1v1h-1z M57,107h1v1h-1z M59,107h1v1h-1z M61,107h1v1h-1z M68,107h1v1h-1z M70,107h1v1h-1z M71,107h1v1h-1z M77,107h1v1h-1z M80,107h1v1h-1z M83,107h1v1h-1z M89,107h1v1h-1z M90,107h1v1h-1z M92,107h1v1h-1z M94,107h1v1h-1z M95,107h1v1h-1z M97,107h1v1h-1z M98,107h1v1h-1z M99,107h1v1h-1z M105,107h1v1h-1z M4,108h1v1h-1z M5,108h1v1h-1z M6,108h1v1h-1z M7,108h1v1h-1z M8,108h1v1h-1z M9,108h1v1h-1z M10,108h1v1h-1z M12,108h1v1h-1z M15,108h1v1h-1z M16,108h1v1h-1z M17,108h1v1h-1z M20,108h1v1h-1z M23,108h1v1h-1z M24,108h1v1h-1z M25,108h1v1h-1z M26,108h1v1h-1z M29,108h1v1h-1z M30,108h1v1h-1z M31,108h1v1h-1z M33,108h1v1h-1z M34,108h1v1h-1z M35,108h1v1h-1z M37,108h1v1h-1z M38,108h1v1h-1z M39,108h1v1h-1z M40,108h1v1h-1z M42,108h1v1h-1z M43,108h1v1h-1z M44,108h1v1h-1z M47,108h1v1h-1z M48,108h1v1h-1z M51,108h1v1h-1z M54,108h1v1h-1z M55,108h1v1h-1z M56,108h1v1h-1z M57,108h1v1h-1z M58,108h1v1h-1z M59,108h1v1h-1z M60,108h1v1h-1z M62,108h1v1h-1z M66,108h1v1h-1z M68,108h1v1h-1z M69,108h1v1h-1z M71,108h1v1h-1z M72,108h1v1h-1z M73,108h1v1h-1z M77,108h1v1h-1z M78,108h1v1h-1z M80,108h1v1h-1z M81,108h1v1h-1z M82,108h1v1h-1z M87,108h1v1h-1z M88,108h1v1h-1z M90,108h1v1h-1z M91,108h1v1h-1z M94,108h1v1h-1z M95,108h1v1h-1z M98,108h1v1h-1z M105,108h1v1h-1z M108,108h1v1h-1z" fill="#000000"/>
</svg>
