<?xml version="1.0" encoding="UTF-8"?>
<!DOCTYPE svg PUBLIC "-//W3C//DTD SVG 1.1//EN" "http://www.w3.org/Graphics/SVG/1.1/DTD/svg11.dtd">
<svg xmlns="http://www.w3.org/2000/svg" version="1.1" viewBox="0 0 113 113" stroke="none">
	<rect width="100%" height="100%" fill="#FFFFFF"/>
	<path d="M4,4h1v1h-1z M5,4h1v1h-1z M6,4h1v1h-1z M7,4h1v1h-1z M8,4h1v1h-1z M9,4h1v1h-1z M10,4h1v1h-1z M12,4h1v1h-1z M13,4h1v1h-1z M17,4h1v1h-1z M18,4h1v1h-1z M19,4h1v1h-1z M25,4h1v1h-1z M26,4h1v1h-1z M28,4h1v1h-1z M29,4h1v1h-1z M30,4h1v1h-1z M31,4h1v1h-1z M33,4h1v1h-1z M35,4h1v1h-1z M36,4h1v1h-1z M37,4h1v1h-1z M39,4h1v1h-1z M40,4h1v1h-1z M41,4h1v1h-1z M43,4h1v1h-1z M45,4h1v1h-1z M49,4h1v1h-1z M50,4h1v1h-1z M51,4h1v1h-1z M52,4h1v1h-1z M57,4h1v1h-1z M58,4h1v1h-1z M59,4h1v1h-1z M61,4h1v1h-1z M62,4h1v1h-1z M63,4h1v1h-1z M66,4h1v1h-1z M67,4h1v1h-1z M69,4h1v1h-1z M71,4h1v1h-1z M74,4h1v1h-1z M75,4h1v1h-1z M76,4h1v1h-1z M78,4h1v1h-1z M82,4h1v1h-1z M84,4h1v1h-1z M85,4h1v1h-1z M86,4h1v1h-1z M88,4h1v1h-1z M91,4h1v1h-1z M96,4h1v1h-1z M97,4h1v1h-1z M98,4h1v1h-1z M102,4h1v1h-1z M103,4h1v1h-1z M104,4h1v1h-1z M105,4h1v1h-1z M106,4h1v1h-1z M107,4h1v1h-1z M108,4h1v1h-1z M4,5h1v1h-1z M10,5h1v1h-1z M12,5h1v1h-1z M14,5h1v1h-1z M16,5h1v1h-1z M17,5h1v1h-1z M20,5h1v1h-1z M21,5h1v1h-1z M27,5h1v1h-1z M29,5h1v1h-1z M30,5h1v1h-1z M33,5h1v1h-1z M34,5h1v1h-1z M36,5h1v1h-1z M37,5h1v1h-1z M39,5h1v1h-1z M42,5h1v1h-1z M43,5h1v1h-1z M44,5h1v1h-1z M45,5h1v1h-1z M46,5h1v1h-1z M48,5h1v1h-1z M52,5h1v1h-1z M53,5h1v1h-1z M54,5h1v1h-1z M55,5h1v1h-1z M57,5h1v1h-1z M58,5h1v1h-1z M63,5h1v1h-1z M66,5h1v1h-1z M67,5h1v1h-1z M68,5h1v1h-1z M69,5h1v1h-1z M70,5h1v1h-1z M71,5h1v1h-1z M75,5h1v1h-1z M76,5h1v1h-1z M78,5h1v1h-1z M79,5h1v1h-1z M80,5h1v1h-1z M82,5h1v1h-1z M83,5h1v1h-1z M84,5h1v1h-1z M88,5h1v1h-1z M90,5h1v1h-1z M93,5h1v1h-1z M94,5h1v1h-1z M97,5h1v1h-1z M98,5h1v1h-1z M102,5h1v1h-1z M108,5h1v1h-1z M4,6h1v1h-1z M6,6h1v1h-1z M7,6h1v1h-1z M8,6h1v1h-1z M10,6h1v1h-1z M12,6h1v1h-1z M14,6h1v1h-1z M17,6h1v1h-1z M20,6h1v1h-1z M21,6h1v1h-1z M23,6h1v1h-1z M25,6h1v1h-1z M26,6h1v1h-1z M30,6h1v1h-1z M32,6h1v1h-1z M33,6h1v1h-1z M35,6h1v1h-1z M37,6h1v1h-1z M38,6h1v1h-1z M41,6h1v1h-1z M42,6h1v1h-1z M44,6h1v1h-1z M45,6h1v1h-1z M47,6h1v1h-1z M53,6h1v1h-1z M54,6h1v1h-1z M56,6h1v1h-1z M57,6h1v1h-1z M65,6h1v1h-1z M67,6h1v1h-1z M68,6h1v1h-1z M69,6h1v1h-1z M70,6h1v1h-1z M71,6h1v1h-1z M77,6h1v1h-1z M78,6h1v1h-1z M80,6h1v1h-1z M81,6h1v1h-1z M82,6h1v1h-1z M83,6h1v1h-1z M90,6h1v1h-1z M92,6h1v1h-1z M93,6h1v1h-1z M98,6h1v1h-1z M99,6h1v1h-1z M102,6h1v1h-1z M104,6h1v1h-1z M105,6h1v1h-1z M106,6h1v1h-1z M108,6h1v1h-1z M4,7h1v1h-1z M6,7h1v1h-1z M7,7h1v1h-1z M8,7h1v1h-1z M10,7h1v1h-1z M12,7h1v1h-1z M14,7h1v1h-1z M16,7h1v1h-1z M19,7h1v1h-1z M21,7h1v1h-1z M24,7h1v1h-1z M26,7h1v1h-1z M27,7h1v1h-1z M36,7h1v1h-1z M38,7h1v1h-1z M39,7h1v1h-1z M41,7h1v1h-1z M43,7h1v1h-1z M45,7h1v1h-1z M51,7h1v1h-1z M52,7h1v1h-1z M55,7h1v1h-1z M56,7h1v1h-1z M57,7h1v1h-1z M58,7h1v1h-1z M62,7h1v1h-1z M63,7h1v1h-1z M64,7h1v1h-1z M65,7h1v1h-1z M71,7h1v1h-1z M73,7h1v1h-1z M75,7h1v1h-1z M76,7h1v1h-1z M78,7h1v1h-1z M79,7h1v1h-1z M81,7h1v1h-1z M84,7h1v1h-1z M85,7h1v1h-1z M87,7h1v1h-1z M88,7h1v1h-1z M89,7h1v1h-1z M91,7h1v1h-1z M94,7h1v1h-1z M96,7h1v1h-1z M100,7h1v1h-1z M102,7h1v1h-1z M104,7h1v1h-1z M105,7h1v1h-1z M106,7h1v1h-1z M108,7h1v1h-1z M4,8h1v1h-1z M6,8h1v1h-1z M7,8h1v1h-1z M8,8h1v1h-1z M10,8h1v1h-1z M14,8h1v1h-1z M15,8h1v1h-1z M16,8h1v1h-1z M17,8h1v1h-1z M20,8h1v1h-1z M22,8h1v1h-1z M24,8h1v1h-1z M27,8h1v1h-1z M28,8h1v1h-1z M29,8h1v1h-1z M30,8h1v1h-1z M31,8h1v1h-1z M32,8h1v1h-1z M33,8h1v1h-1z M34,8h1v1h-1z M36,8h1v1h-1z M38,8h1v1h-1z M39,8h1v1h-1z M40,8h1v1h-1z M42,8h1v1h-1z M43,8h1v1h-1z M44,8h1v1h-1z M46,8h1v1h-1z M48,8h1v1h-1z M49,8h1v1h-1z M50,8h1v1h-1z M51,8h1v1h-1z M52,8h1v1h-1z M53,8h1v1h-1z M54,8h1v1h-1z M55,8h1v1h-1z M56,8h1v1h-1z M57,8h1v1h-1z M59,8h1v1h-1z M60,8h1v1h-1z M61,8h1v1h-1z M62,8h1v1h-1z M63,8h1v1h-1z M64,8h1v1h-1z M65,8h1v1h-1z M68,8h1v1h-1z M69,8h1v1h-1z M70,8h1v1h-1z M71,8h1v1h-1z M73,8h1v1h-1z M76,8h1v1h-1z M77,8h1v1h-1z M78,8h1v1h-1z M79,8h1v1h-1z M80,8h1v1h-1z M81,8h1v1h-1z M82,8h1v1h-1z M84,8h1v1h-1z M85,8h1v1h-1z M88,8h1v1h-1z M89,8h1v1h-1z M93,8h1v1h-1z M94,8h1v1h-1z M95,8h1v1h-1z M99,8h1v1h-1z M100,8h1v1h-1z M102,8h1v1h-1z M104,8h1v1h-1z M105,8h1v1h-1z M106,8h1v1h-1z M108,8h1v1h-1z M4,9h1v1h-1z M10,9h1v1h-1z M12,9h1v1h-1z M13,9h1v1h-1z M15,9h1v1h-1z M18,9h1v1h-1z M22,9h1v1h-1z M23,9h1v1h-1z M24,9h1v1h-1z M25,9h1v1h-1z M28,9h1v1h-1z M32,9h1v1h-1z M34,9h1v1h-1z M35,9h1v1h-1z M37,9h1v1h-1z M41,9h1v1h-1z M42,9h1v1h-1z M44,9h1v1h-1z M45,9h1v1h-1z M46,9h1v1h-1z M49,9h1v1h-1z M52,9h1v1h-1z M56,9h1v1h-1z M57,9h1v1h-1z M58,9h1v1h-1z M60,9h1v1h-1z M61,9h1v1h-1z M65,9h1v1h-1z M66,9h1v1h-1z M67,9h1v1h-1z M68,9h1v1h-1z M69,9h1v1h-1z M70,9h1v1h-1z M71,9h1v1h-1z M73,9h1v1h-1z M76,9h1v1h-1z M80,9h1v1h-1z M82,9h1v1h-1z M84,9h1v1h-1z M85,9h1v1h-1z M88,9h1v1h-1z M90,9h1v1h-1z M91,9h1v1h-1z M92,9h1v1h-1z M93,9h1v1h-1z M94,9h1v1h-1z M97,9h1v1h-1z M99,9h1v1h-1z M102,9h1v1h-1z M108,9h1v1h-1z M4,10h1v1h-1z M5,10h1v1h-1z M6,10h1v1h-1z M7,10h1v1h-1z M8,10h1v1h-1z M9,10h1v1h-1z M10,10h1v1h-1z M12,10h1v1h-1z M14,10h1v1h-1z M16,10h1v1h-1z M18,10h1v1h-1z M20,10h1v1h-1z M22,10h1v1h-1z M24,10h1v1h-1z M26,10h1v1h-1z M28,10h1v1h-1z M30,10h1v1h-1z M32,10h1v1h-1z M34,10h1v1h-1z M36,10h1v1h-1z M38,10h1v1h-1z M40,10h1v1h-1z M42,10h1v1h-1z M44,10h1v1h-1z M46,10h1v1h-1z M48,10h1v1h-1z M50,10h1v1h-1z M52,10h1v1h-1z M54,10h1v1h-1z M56,10h1v1h-1z M58,10h1v1h-1z M60,10h1v1h-1z M62,10h1v1h-1z M64,10h1v1h-1z M66,10h1v1h-1z M68,10h1v1h-1z M70,10h1v1h-1z M72,10h1v1h-1z M74,10h1v1h-1z M76,10h1v1h-1z M78,10h1v1h-1z M80,10h1v1h-1z M82,10h1v1h-1z M84,10h1v1h-1z M86,10h1v1h-1z M88,10h1v1h-1z M90,10h1v1h-1z M92,10h1v1h-1z M94,10h1v1h-1z M96,10h1v1h-1z M98,10h1v1h-1z M100,10h1v1h-1z M102,10h1v1h-1z M103,10h1v1h-1z M104,10h1v1h-1z M105,10h1v1h-1z M106,10h1v1h-1z M107,10h1v1h-1z M108,10h1v1h-1z M13,11h1v1h-1z M14,11h1v1h-1z M15,11h1v1h-1z M17,11h1v1h-1z M19,11h1v1h-1z M20,11h1v1h-1z M26,11h1v1h-1z M28,11h1v1h-1z M32,11h1v1h-1z M34,11h1v1h-1z M35,11h1v1h-1z M42,11h1v1h-1z M44,11h1v1h-1z M47,11h1v1h-1z M50,11h1v1h-1z M52,11h1v1h-1z M56,11h1v1h-1z M59,11h1v1h-1z M61,11h1v1h-1z M62,11h1v1h-1z M65,11h1v1h-1z M66,11h1v1h-1z M68,11h1v1h-1z M69,11h1v1h-1z M71,11h1v1h-1z M76,11h1v1h-1z M80,11h1v1h-1z M82,11h1v1h-1z M83,11h1v1h-1z M85,11h1v1h-1z M89,11h1v1h-1z M90,11h1v1h-1z M91,11h1v1h-1z M92,11h1v1h-1z M94,11h1v1h-1z M95,11h1v1h-1z M97,11h1v1h-1z M100,11h1v1h-1z M4,12h1v1h-1z M5,12h1v1h-1z M8,12h1v1h-1z M9,12h1v1h-1z M10,12h1v1h-1z M14,12h1v1h-1z M15,12h1v1h-1z M17,12h1v1h-1z M18,12h1v1h-1z M22,12h1v1h-1z M23,12h1v1h-1z M24,12h1v1h-1z M25,12h1v1h-1z M27,12h1v1h-1z M28,12h1v1h-1z M29,12h1v1h-1z M30,12h1v1h-1z M31,12h1v1h-1z M32,12h1v1h-1z M33,12h1v1h-1z M34,12h1v1h-1z M35,12h1v1h-1z M36,12h1v1h-1z M40,12h1v1h-1z M42,12h1v1h-1z M46,12h1v1h-1z M49,12h1v1h-1z M51,12h1v1h-1z M52,12h1v1h-1z M53,12h1v1h-1z M54,12h1v1h-1z M55,12h1v1h-1z M56,12h1v1h-1z M59,12h1v1h-1z M60,12h1v1h-1z M62,12h1v1h-1z M63,12h1v1h-1z M65,12h1v1h-1z M66,12h1v1h-1z M67,12h1v1h-1z M68,12h1v1h-1z M71,12h1v1h-1z M73,12h1v1h-1z M74,12h1v1h-1z M76,12h1v1h-1z M77,12h1v1h-1z M78,12h1v1h-1z M79,12h1v1h-1z M80,12h1v1h-1z M81,12h1v1h-1z M82,12h1v1h-1z M85,12h1v1h-1z M87,12h1v1h-1z M89,12h1v1h-1z M90,12h1v1h-1z M91,12h1v1h-1z M92,12h1v1h-1z M96,12h1v1h-1z M99,12h1v1h-1z M100,12h1v1h-1z M103,12h1v1h-1z M105,12h1v1h-1z M106,12h1v1h-1z M107,12h1v1h-1z M108,12h1v1h-1z M4,13h1v1h-1z M8,13h1v1h-1z M12,13h1v1h-1z M17,13h1v1h-1z M19,13h1v1h-1z M20,13h1v1h-1z M21,13h1v1h-1z M27,13h1v1h-1z M28,13h1v1h-1z M29,13h1v1h-1z M33,13h1v1h-1z M35,13h1v1h-1z M37,13h1v1h-1z M39,13h1v1h-1z M40,13h1v1h-1z M41,13h1v1h-1z M42,13h1v1h-1z M46,13h1v1h-1z M47,13h1v1h-1z M50,13h1v1h-1z M52,13h1v1h-1z M53,13h1v1h-1z M58,13h1v1h-1z M61,13h1v1h-1z M65,13h1v1h-1z M69,13h1v1h-1z M73,13h1v1h-1z M74,13h1v1h-1z M75,13h1v1h-1z M76,13h1v1h-1z M77,13h1v1h-1z M78,13h1v1h-1z M79,13h1v1h-1z M83,13h1v1h-1z M86,13h1v1h-1z M90,13h1v1h-1z M91,13h1v1h-1z M94,13h1v1h-1z M96,13h1v1h-1z M97,13h1v1h-1z M98,13h1v1h-1z M99,13h1v1h-1z M100,13h1v1h-1z M102,13h1v1h-1z M103,13h1v1h-1z M104,13h1v1h-1z M105,13h1v1h-1z M106,13h1v1h-1z M4,14h1v1h-1z M5,14h1v1h-1z M6,14h1v1h-1z M7,14h1v1h-1z M8,14h1v1h-1z M9,14h1v1h-1z M10,14h1v1h-1z M11,14h1v1h-1z M14,14h1v1h-1z M17,14h1v1h-1z M18,14h1v1h-1z M19,14h1v1h-1z M21,14h1v1h-1z M23,14h1v1h-1z M24,14h1v1h-1z M26,14h1v1h-1z M27,14h1v1h-1z M28,14h1v1h-1z M29,14h1v1h-1z M33,14h1v1h-1z M35,14h1v1h-1z M38,14h1v1h-1z M39,14h1v1h-1z M43,14h1v1h-1z M48,14h1v1h-1z M50,14h1v1h-1z M51,14h1v1h-1z M52,14h1v1h-1z M53,14h1v1h-1z M59,14h1v1h-1z M60,14h1v1h-1z M62,14h1v1h-1z M63,14h1v1h-1z M65,14h1v1h-1z M67,14h1v1h-1z M71,14h1v1h-1z M72,14h1v1h-1z M73,14h1v1h-1z M74,14h1v1h-1z M77,14h1v1h-1z M80,14h1v1h-1z M83,14h1v1h-1z M84,14h1v1h-1z M85,14h1v1h-1z M86,14h1v1h-1z M89,14h1v1h-1z M91,14h1v1h-1z M92,14h1v1h-1z M97,14h1v1h-1z M98,14h1v1h-1z M104,14h1v1h-1z M106,14h1v1h-1z M4,15h1v1h-1z M5,15h1v1h-1z M6,15h1v1h-1z M7,15h1v1h-1z M9,15h1v1h-1z M11,15h1v1h-1z M15,15h1v1h-1z M16,15h1v1h-1z M19,15h1v1h-1z M20,15h1v1h-1z M24,15h1v1h-1z M27,15h1v1h-1z M29,15h1v1h-1z M30,15h1v1h-1z M31,15h1v1h-1z M32,15h1v1h-1z M34,15h1v1h-1z M35,15h1v1h-1z M37,15h1v1h-1z M38,15h1v1h-1z M41,15h1v1h-1z M42,15h1v1h-1z M44,15h1v1h-1z M46,15h1v1h-1z M47,15h1v1h-1z M49,15h1v1h-1z M51,15h1v1h-1z M56,15h1v1h-1z M57,15h1v1h-1z M59,15h1v1h-1z M61,15h1v1h-1z M62,15h1v1h-1z M66,15h1v1h-1z M68,15h1v1h-1z M69,15h1v1h-1z M71,15h1v1h-1z M77,15h1v1h-1z M80,15h1v1h-1z M81,15h1v1h-1z M82,15h1v1h-1z M83,15h1v1h-1z M85,15h1v1h-1z M89,15h1v1h-1z M92,15h1v1h-1z M93,15h1v1h-1z M94,15h1v1h-1z M95,15h1v1h-1z M100,15h1v1h-1z M101,15h1v1h-1z M103,15h1v1h-1z M104,15h1v1h-1z M107,15h1v1h-1z M5,16h1v1h-1z M8,16h1v1h-1z M9,16h1v1h-1z M10,16h1v1h-1z M13,16h1v1h-1z M16,16h1v1h-1z M17,16h1v1h-1z M19,16h1v1h-1z M21,16h1v1h-1z M23,16h1v1h-1z M26,16h1v1h-1z M27,16h1v1h-1z M29,16h1v1h-1z M31,16h1v1h-1z M33,16h1v1h-1z M34,16h1v1h-1z M35,16h1v1h-1z M37,16h1v1h-1z M42,16h1v1h-1z M44,16h1v1h-1z M45,16h1v1h-1z M48,16h1v1h-1z M51,16h1v1h-1z M54,16h1v1h-1z M56,16h1v1h-1z M58,16h1v1h-1z M61,16h1v1h-1z M65,16h1v1h-1z M69,16h1v1h-1z M70,16h1v1h-1z M72,16h1v1h-1z M75,16h1v1h-1z M78,16h1v1h-1z M81,16h1v1h-1z M83,16h1v1h-1z M85,16h1v1h-1z M87,16h1v1h-1z M92,16h1v1h-1z M94,16h1v1h-1z M96,16h1v1h-1z M99,16h1v1h-1z M100,16h1v1h-1z M104,16h1v1h-1z M106,16h1v1h-1z M107,16h1v1h-1z M108,16h1v1h-1z M6,17h1v1h-1z M7,17h1v1h-1z M9,17h1v1h-1z M11,17h1v1h-1z M13,17h1v1h-1z M15,17h1v1h-1z M17,17h1v1h-1z M18,17h1v1h-1z M20,17h1v1h-1z M21,17h1v1h-1z M23,17h1v1h-1z M24,17h1v1h-1z M25,17h1v1h-1z M26,17h1v1h-1z M28,17h1v1h-1z M29,17h1v1h-1z M30,17h1v1h-1z M33,17h1v1h-1z M34,17h1v1h-1z M35,17h1v1h-1z M37,17h1v1h-1z M38,17h1v1h-1z M39,17h1v1h-1z M40,17h1v1h-1z M41,17h1v1h-1z M43,17h1v1h-1z M46,17h1v1h-1z M47,17h1v1h-1z M49,17h1v1h-1z M51,17h1v1h-1z M52,17h1v1h-1z M53,17h1v1h-1z M54,17h1v1h-1z M55,17h1v1h-1z M58,17h1v1h-1z M59,17h1v1h-1z M60,17h1v1h-1z M62,17h1v1h-1z M65,17h1v1h-1z M66,17h1v1h-1z M67,17h1v1h-1z M70,17h1v1h-1z M72,17h1v1h-1z M73,17h1v1h-1z M74,17h1v1h-1z M76,17h1v1h-1z M78,17h1v1h-1z M80,17h1v1h-1z M81,17h1v1h-1z M82,17h1v1h-1z M83,17h1v1h-1z M84,17h1v1h-1z M85,17h1v1h-1z M88,17h1v1h-1z M90,17h1v1h-1z M92,17h1v1h-1z M96,17h1v1h-1z M97,17h1v1h-1z M98,17h1v1h-1z M99,17h1v1h-1z M100,17h1v1h-1z M101,17h1v1h-1z M102,17h1v1h-1z M103,17h1v1h-1z M106,17h1v1h-1z M107,17h1v1h-1z M108,17h1v1h-1z M5,18h1v1h-1z M6,18h1v1h-1z M10,18h1v1h-1z M11,18h1v1h-1z M13,18h1v1h-1z M14,18h1v1h-1z M17,18h1v1h-1z M20,18h1v1h-1z M22,18h1v1h-1z M24,18h1v1h-1z M25,18h1v1h-1z M26,18h1v1h-1z M28,18h1v1h-1z M29,18h1v1h-1z M31,18h1v1h-1z M35,18h1v1h-1z M36,18h1v1h-1z M38,18h1v1h-1z M40,18h1v1h-1z M43,18h1v1h-1z M44,18h1v1h-1z M45,18h1v1h-1z M47,18h1v1h-1z M48,18h1v1h-1z M50,18h1v1h-1z M53,18h1v1h-1z M56,18h1v1h-1z M57,18h1v1h-1z M60,18h1v1h-1z M62,18h1v1h-1z M63,18h1v1h-1z M65,18h1v1h-1z M67,18h1v1h-1z M71,18h1v1h-1z M72,18h1v1h-1z M73,18h1v1h-1z M74,18h1v1h-1z M77,18h1v1h-1z M86,18h1v1h-1z M88,18h1v1h-1z M89,18h1v1h-1z M98,18h1v1h-1z M101,18h1v1h-1z M102,18h1v1h-1z M104,18h1v1h-1z M105,18h1v1h-1z M106,18h1v1h-1z M107,18h1v1h-1z M4,19h1v1h-1z M5,19h1v1h-1z M6,19h1v1h-1z M7,19h1v1h-1z M8,19h1v1h-1z M11,19h1v1h-1z M13,19h1v1h-1z M14,19h1v1h-1z M15,19h1v1h-1z M18,19h1v1h-1z M19,19h1v1h-1z M22,19h1v1h-1z M27,19h1v1h-1z M31,19h1v1h-1z M32,19h1v1h-1z M33,19h1v1h-1z M34,19h1v1h-1z M37,19h1v1h-1z M41,19h1v1h-1z M42,19h1v1h-1z M44,19h1v1h-1z M46,19h1v1h-1z M49,19h1v1h-1z M51,19h1v1h-1z M52,19h1v1h-1z M56,19h1v1h-1z M58,19h1v1h-1z M59,19h1v1h-1z M65,19h1v1h-1z M66,19h1v1h-1z M68,19h1v1h-1z M69,19h1v1h-1z M70,19h1v1h-1z M71,19h1v1h-1z M75,19h1v1h-1z M77,19h1v1h-1z M79,19h1v1h-1z M80,19h1v1h-1z M83,19h1v1h-1z M85,19h1v1h-1z M86,19h1v1h-1z M87,19h1v1h-1z M89,19h1v1h-1z M92,19h1v1h-1z M94,19h1v1h-1z M95,19h1v1h-1z M97,19h1v1h-1z M98,19h1v1h-1z M99,19h1v1h-1z M101,19h1v1h-1z M103,19h1v1h-1z M104,19h1v1h-1z M105,19h1v1h-1z M107,19h1v1h-1z M4,20h1v1h-1z M5,20h1v1h-1z M6,20h1v1h-1z M7,20h1v1h-1z M8,20h1v1h-1z M9,20h1v1h-1z M10,20h1v1h-1z M14,20h1v1h-1z M22,20h1v1h-1z M23,20h1v1h-1z M24,20h1v1h-1z M26,20h1v1h-1z M29,20h1v1h-1z M30,20h1v1h-1z M31,20h1v1h-1z M32,20h1v1h-1z M33,20h1v1h-1z M34,20h1v1h-1z M35,20h1v1h-1z M36,20h1v1h-1z M38,20h1v1h-1z M40,20h1v1h-1z M42,20h1v1h-1z M44,20h1v1h-1z M46,20h1v1h-1z M47,20h1v1h-1z M48,20h1v1h-1z M50,20h1v1h-1z M53,20h1v1h-1z M56,20h1v1h-1z M58,20h1v1h-1z M59,20h1v1h-1z M63,20h1v1h-1z M65,20h1v1h-1z M66,20h1v1h-1z M67,20h1v1h-1z M69,20h1v1h-1z M70,20h1v1h-1z M74,20h1v1h-1z M77,20h1v1h-1z M78,20h1v1h-1z M83,20h1v1h-1z M84,20h1v1h-1z M85,20h1v1h-1z M90,20h1v1h-1z M93,20h1v1h-1z M94,20h1v1h-1z M95,20h1v1h-1z M96,20h1v1h-1z M97,20h1v1h-1z M99,20h1v1h-1z M100,20h1v1h-1z M101,20h1v1h-1z M103,20h1v1h-1z M104,20h1v1h-1z M105,20h1v1h-1z M108,20h1v1h-1z M5,21h1v1h-1z M6,21h1v1h-1z M9,21h1v1h-1z M11,21h1v1h-1z M15,21h1v1h-1z M16,21h1v1h-1z M19,21h1v1h-1z M23,21h1v1h-1z M25,21h1v1h-1z M28,21h1v1h-1z M29,21h1v1h-1z M31,21h1v1h-1z M33,21h1v1h-1z M35,21h1v1h-1z M36,21h1v1h-1z M37,21h1v1h-1z M41,21h1v1h-1z M43,21h1v1h-1z M45,21h1v1h-1z M48,21h1v1h-1z M49,21h1v1h-1z M50,21h1v1h-1z M51,21h1v1h-1z M52,21h1v1h-1z M54,21h1v1h-1z M55,21h1v1h-1z M57,21h1v1h-1z M58,21h1v1h-1z M59,21h1v1h-1z M64,21h1v1h-1z M65,21h1v1h-1z M66,21h1v1h-1z M68,21h1v1h-1z M69,21h1v1h-1z M73,21h1v1h-1z M75,21h1v1h-1z M76,21h1v1h-1z M79,21h1v1h-1z M80,21h1v1h-1z M81,21h1v1h-1z M82,21h1v1h-1z M83,21h1v1h-1z M85,21h1v1h-1z M86,21h1v1h-1z M87,21h1v1h-1z M88,21h1v1h-1z M89,21h1v1h-1z M90,21h1v1h-1z M91,21h1v1h-1z M94,21h1v1h-1z M95,21h1v1h-1z M96,21h1v1h-1z M98,21h1v1h-1z M99,21h1v1h-1z M102,21h1v1h-1z M103,21h1v1h-1z M104,21h1v1h-1z M105,21h1v1h-1z M106,21h1v1h-1z M107,21h1v1h-1z M5,22h1v1h-1z M7,22h1v1h-1z M8,22h1v1h-1z M9,22h1v1h-1z M10,22h1v1h-1z M14,22h1v1h-1z M15,22h1v1h-1z M16,22h1v1h-1z M18,22h1v1h-1z M20,22h1v1h-1z M23,22h1v1h-1z M24,22h1v1h-1z M26,22h1v1h-1z M27,22h1v1h-1z M29,22h1v1h-1z M31,22h1v1h-1z M35,22h1v1h-1z M38,22h1v1h-1z M40,22h1v1h-1z M41,22h1v1h-1z M50,22h1v1h-1z M52,22h1v1h-1z M53,22h1v1h-1z M59,22h1v1h-1z M60,22h1v1h-1z M61,22h1v1h-1z M62,22h1v1h-1z M64,22h1v1h-1z M65,22h1v1h-1z M71,22h1v1h-1z M72,22h1v1h-1z M74,22h1v1h-1z M80,22h1v1h-1z M83,22h1v1h-1z M85,22h1v1h-1z M86,22h1v1h-1z M88,22h1v1h-1z M89,22h1v1h-1z M91,22h1v1h-1z M96,22h1v1h-1z M98,22h1v1h-1z M99,22h1v1h-1z M100,22h1v1h-1z M101,22h1v1h-1z M102,22h1v1h-1z M103,22h1v1h-1z M104,22h1v1h-1z M105,22h1v1h-1z M107,22h1v1h-1z M4,23h1v1h-1z M6,23h1v1h-1z M8,23h1v1h-1z M11,23h1v1h-1z M15,23h1v1h-1z M16,23h1v1h-1z M17,23h1v1h-1z M19,23h1v1h-1z M20,23h1v1h-1z M21,23h1v1h-1z M22,23h1v1h-1z M26,23h1v1h-1z M30,23h1v1h-1z M32,23h1v1h-1z M34,23h1v1h-1z M35,23h1v1h-1z M37,23h1v1h-1z M38,23h1v1h-1z M39,23h1v1h-1z M41,23h1v1h-1z M42,23h1v1h-1z M43,23h1v1h-1z M44,23h1v1h-1z M45,23h1v1h-1z M47,23h1v1h-1z M49,23h1v1h-1z M50,23h1v1h-1z M54,23h1v1h-1z M56,23h1v1h-1z M59,23h1v1h-1z M65,23h1v1h-1z M66,23h1v1h-1z M67,23h1v1h-1z M68,23h1v1h-1z M77,23h1v1h-1z M78,23h1v1h-1z M80,23h1v1h-1z M81,23h1v1h-1z M82,23h1v1h-1z M83,23h1v1h-1z M89,23h1v1h-1z M90,23h1v1h-1z M92,23h1v1h-1z M93,23h1v1h-1z M94,23h1v1h-1z M95,23h1v1h-1z M97,23h1v1h-1z M98,23h1v1h-1z M100,23h1v1h-1z M103,23h1v1h-1z M107,23h1v1h-1z M5,24h1v1h-1z M7,24h1v1h-1z M8,24h1v1h-1z M9,24h1v1h-1z M10,24h1v1h-1z M12,24h1v1h-1z M13,24h1v1h-1z M14,24h1v1h-1z M16,24h1v1h-1z M18,24h1v1h-1z M20,24h1v1h-1z M23,24h1v1h-1z M27,24h1v1h-1z M29,24h1v1h-1z M30,24h1v1h-1z M31,24h1v1h-1z M32,24h1v1h-1z M36,24h1v1h-1z M37,24h1v1h-1z M39,24h1v1h-1z M41,24h1v1h-1z M45,24h1v1h-1z M46,24h1v1h-1z M47,24h1v1h-1z M52,24h1v1h-1z M54,24h1v1h-1z M61,24h1v1h-1z M66,24h1v1h-1z M67,24h1v1h-1z M72,24h1v1h-1z M74,24h1v1h-1z M77,24h1v1h-1z M79,24h1v1h-1z M80,24h1v1h-1z M83,24h1v1h-1z M84,24h1v1h-1z M86,24h1v1h-1z M88,24h1v1h-1z M90,24h1v1h-1z M93,24h1v1h-1z M97,24h1v1h-1z M98,24h1v1h-1z M99,24h1v1h-1z M100,24h1v1h-1z M104,24h1v1h-1z M106,24h1v1h-1z M108,24h1v1h-1z M6,25h1v1h-1z M7,25h1v1h-1z M8,25h1v1h-1z M16,25h1v1h-1z M17,25h1v1h-1z M18,25h1v1h-1z M20,25h1v1h-1z M22,25h1v1h-1z M24,25h1v1h-1z M26,25h1v1h-1z M27,25h1v1h-1z M28,25h1v1h-1z M30,25h1v1h-1z M31,25h1v1h-1z M33,25h1v1h-1z M34,25h1v1h-1z M35,25h1v1h-1z M37,25h1v1h-1z M39,25h1v1h-1z M45,25h1v1h-1z M46,25h1v1h-1z M47,25h1v1h-1z M49,25h1v1h-1z M50,25h1v1h-1z M51,25h1v1h-1z M52,25h1v1h-1z M54,25h1v1h-1z M56,25h1v1h-1z M57,25h1v1h-1z M58,25h1v1h-1z M59,25h1v1h-1z M60,25h1v1h-1z M61,25h1v1h-1z M62,25h1v1h-1z M63,25h1v1h-1z M64,25h1v1h-1z M65,25h1v1h-1z M66,25h1v1h-1z M72,25h1v1h-1z M73,25h1v1h-1z M75,25h1v1h-1z M76,25h1v1h-1z M78,25h1v1h-1z M79,25h1v1h-1z M81,25h1v1h-1z M84,25h1v1h-1z M87,25h1v1h-1z M90,25h1v1h-1z M91,25h1v1h-1z M95,25h1v1h-1z M96,25h1v1h-1z M97,25h1v1h-1z M98,25h1v1h-1z M100,25h1v1h-1z M101,25h1v1h-1z M106,25h1v1h-1z M107,25h1v1h-1z M4,26h1v1h-1z M10,26h1v1h-1z M13,26h1v1h-1z M14,26h1v1h-1z M15,26h1v1h-1z M17,26h1v1h-1z M19,26h1v1h-1z M22,26h1v1h-1z M23,26h1v1h-1z M26,26h1v1h-1z M27,26h1v1h-1z M28,26h1v1h-1z M31,26h1v1h-1z M35,26h1v1h-1z M36,26h1v1h-1z M37,26h1v1h-1z M38,26h1v1h-1z M39,26h1v1h-1z M50,26h1v1h-1z M51,26h1v1h-1z M52,26h1v1h-1z M53,26h1v1h-1z M55,26h1v1h-1z M59,26h1v1h-1z M60,26h1v1h-1z M61,26h1v1h-1z M62,26h1v1h-1z M64,26h1v1h-1z M68,26h1v1h-1z M71,26h1v1h-1z M72,26h1v1h-1z M74,26h1v1h-1z M77,26h1v1h-1z M84,26h1v1h-1z M86,26h1v1h-1z M89,26h1v1h-1z M91,26h1v1h-1z M92,26h1v1h-1z M95,26h1v1h-1z M96,26h1v1h-1z M97,26h1v1h-1z M98,26h1v1h-1z M101,26h1v1h-1z M102,26h1v1h-1z M104,26h1v1h-1z M105,26h1v1h-1z M6,27h1v1h-1z M9,27h1v1h-1z M14,27h1v1h-1z M20,27h1v1h-1z M22,27h1v1h-1z M23,27h1v1h-1z M28,27h1v1h-1z M29,27h1v1h-1z M30,27h1v1h-1z M32,27h1v1h-1z M41,27h1v1h-1z M42,27h1v1h-1z M44,27h1v1h-1z M45,27h1v1h-1z M46,27h1v1h-1z M47,27h1v1h-1z M49,27h1v1h-1z M51,27h1v1h-1z M52,27h1v1h-1z M54,27h1v1h-1z M56,27h1v1h-1z M57,27h1v1h-1z M58,27h1v1h-1z M59,27h1v1h-1z M63,27h1v1h-1z M65,27h1v1h-1z M66,27h1v1h-1z M68,27h1v1h-1z M78,27h1v1h-1z M79,27h1v1h-1z M80,27h1v1h-1z M82,27h1v1h-1z M83,27h1v1h-1z M85,27h1v1h-1z M86,27h1v1h-1z M90,27h1v1h-1z M92,27h1v1h-1z M94,27h1v1h-1z M95,27h1v1h-1z M97,27h1v1h-1z M99,27h1v1h-1z M101,27h1v1h-1z M104,27h1v1h-1z M105,27h1v1h-1z M4,28h1v1h-1z M6,28h1v1h-1z M7,28h1v1h-1z M8,28h1v1h-1z M9,28h1v1h-1z M10,28h1v1h-1z M11,28h1v1h-1z M12,28h1v1h-1z M13,28h1v1h-1z M16,28h1v1h-1z M17,28h1v1h-1z M20,28h1v1h-1z M22,28h1v1h-1z M23,28h1v1h-1z M26,28h1v1h-1z M27,28h1v1h-1z M28,28h1v1h-1z M29,28h1v1h-1z M30,28h1v1h-1z M31,28h1v1h-1z M32,28h1v1h-1z M33,28h1v1h-1z M34,28h1v1h-1z M36,28h1v1h-1z M38,28h1v1h-1z M39,28h1v1h-1z M42,28h1v1h-1z M45,28h1v1h-1z M46,28h1v1h-1z M51,28h1v1h-1z M52,28h1v1h-1z M53,28h1v1h-1z M54,28h1v1h-1z M55,28h1v1h-1z M56,28h1v1h-1z M57,28h1v1h-1z M58,28h1v1h-1z M63,28h1v1h-1z M64,28h1v1h-1z M65,28h1v1h-1z M69,28h1v1h-1z M70,28h1v1h-1z M72,28h1v1h-1z M74,28h1v1h-1z M75,28h1v1h-1z M76,28h1v1h-1z M77,28h1v1h-1z M78,28h1v1h-1z M79,28h1v1h-1z M80,28h1v1h-1z M81,28h1v1h-1z M82,28h1v1h-1z M85,28h1v1h-1z M87,28h1v1h-1z M88,28h1v1h-1z M89,28h1v1h-1z M90,28h1v1h-1z M91,28h1v1h-1z M92,28h1v1h-1z M98,28h1v1h-1z M99,28h1v1h-1z M100,28h1v1h-1z M101,28h1v1h-1z M102,28h1v1h-1z M103,28h1v1h-1z M104,28h1v1h-1z M107,28h1v1h-1z M108,28h1v1h-1z M5,29h1v1h-1z M7,29h1v1h-1z M8,29h1v1h-1z M12,29h1v1h-1z M13,29h1v1h-1z M14,29h1v1h-1z M15,29h1v1h-1z M18,29h1v1h-1z M19,29h1v1h-1z M21,29h1v1h-1z M22,29h1v1h-1z M23,29h1v1h-1z M24,29h1v1h-1z M25,29h1v1h-1z M28,29h1v1h-1z M32,29h1v1h-1z M33,29h1v1h-1z M34,29h1v1h-1z M35,29h1v1h-1z M36,29h1v1h-1z M37,29h1v1h-1z M38,29h1v1h-1z M43,29h1v1h-1z M45,29h1v1h-1z M47,29h1v1h-1z M49,29h1v1h-1z M51,29h1v1h-1z M52,29h1v1h-1z M56,29h1v1h-1z M58,29h1v1h-1z M59,29h1v1h-1z M60,29h1v1h-1z M61,29h1v1h-1z M62,29h1v1h-1z M64,29h1v1h-1z M66,29h1v1h-1z M67,29h1v1h-1z M68,29h1v1h-1z M70,29h1v1h-1z M71,29h1v1h-1z M73,29h1v1h-1z M76,29h1v1h-1z M80,29h1v1h-1z M81,29h1v1h-1z M82,29h1v1h-1z M84,29h1v1h-1z M86,29h1v1h-1z M90,29h1v1h-1z M93,29h1v1h-1z M95,29h1v1h-1z M100,29h1v1h-1z M104,29h1v1h-1z M105,29h1v1h-1z M106,29h1v1h-1z M5,30h1v1h-1z M8,30h1v1h-1z M10,30h1v1h-1z M12,30h1v1h-1z M13,30h1v1h-1z M15,30h1v1h-1z M16,30h1v1h-1z M18,30h1v1h-1z M19,30h1v1h-1z M22,30h1v1h-1z M24,30h1v1h-1z M26,30h1v1h-1z M28,30h1v1h-1z M30,30h1v1h-1z M32,30h1v1h-1z M35,30h1v1h-1z M36,30h1v1h-1z M37,30h1v1h-1z M38,30h1v1h-1z M40,30h1v1h-1z M41,30h1v1h-1z M44,30h1v1h-1z M47,30h1v1h-1z M48,30h1v1h-1z M50,30h1v1h-1z M52,30h1v1h-1z M54,30h1v1h-1z M56,30h1v1h-1z M57,30h1v1h-1z M60,30h1v1h-1z M62,30h1v1h-1z M63,30h1v1h-1z M67,30h1v1h-1z M72,30h1v1h-1z M74,30h1v1h-1z M76,30h1v1h-1z M78,30h1v1h-1z M80,30h1v1h-1z M86,30h1v1h-1z M87,30h1v1h-1z M89,30h1v1h-1z M91,30h1v1h-1z M95,30h1v1h-1z M97,30h1v1h-1z M98,30h1v1h-1z M99,30h1v1h-1z M100,30h1v1h-1z M102,30h1v1h-1z M104,30h1v1h-1z M105,30h1v1h-1z M107,30h1v1h-1z M5,31h1v1h-1z M6,31h1v1h-1z M8,31h1v1h-1z M12,31h1v1h-1z M13,31h1v1h-1z M15,31h1v1h-1z M16,31h1v1h-1z M17,31h1v1h-1z M18,31h1v1h-1z M19,31h1v1h-1z M20,31h1v1h-1z M22,31h1v1h-1z M24,31h1v1h-1z M27,31h1v1h-1z M28,31h1v1h-1z M32,31h1v1h-1z M33,31h1v1h-1z M34,31h1v1h-1z M35,31h1v1h-1z M39,31h1v1h-1z M44,31h1v1h-1z M45,31h1v1h-1z M47,31h1v1h-1z M51,31h1v1h-1z M52,31h1v1h-1z M56,31h1v1h-1z M58,31h1v1h-1z M59,31h1v1h-1z M65,31h1v1h-1z M66,31h1v1h-1z M68,31h1v1h-1z M75,31h1v1h-1z M76,31h1v1h-1z M80,31h1v1h-1z M81,31h1v1h-1z M82,31h1v1h-1z M83,31h1v1h-1z M89,31h1v1h-1z M92,31h1v1h-1z M93,31h1v1h-1z M95,31h1v1h-1z M99,31h1v1h-1z M100,31h1v1h-1z M104,31h1v1h-1z M108,31h1v1h-1z M4,32h1v1h-1z M5,32h1v1h-1z M6,32h1v1h-1z M7,32h1v1h-1z M8,32h1v1h-1z M9,32h1v1h-1z M10,32h1v1h-1z M11,32h1v1h-1z M12,32h1v1h-1z M14,32h1v1h-1z M15,32h1v1h-1z M21,32h1v1h-1z M23,32h1v1h-1z M25,32h1v1h-1z M26,32h1v1h-1z M27,32h1v1h-1z M28,32h1v1h-1z M29,32h1v1h-1z M30,32h1v1h-1z M31,32h1v1h-1z M32,32h1v1h-1z M34,32h1v1h-1z M39,32h1v1h-1z M41,32h1v1h-1z M42,32h1v1h-1z M44,32h1v1h-1z M45,32h1v1h-1z M46,32h1v1h-1z M47,32h1v1h-1z M48,32h1v1h-1z M50,32h1v1h-1z M52,32h1v1h-1z M53,32h1v1h-1z M54,32h1v1h-1z M55,32h1v1h-1z M56,32h1v1h-1z M58,32h1v1h-1z M66,32h1v1h-1z M67,32h1v1h-1z M72,32h1v1h-1z M73,32h1v1h-1z M76,32h1v1h-1z M77,32h1v1h-1z M78,32h1v1h-1z M79,32h1v1h-1z M80,32h1v1h-1z M86,32h1v1h-1z M90,32h1v1h-1z M91,32h1v1h-1z M94,32h1v1h-1z M95,32h1v1h-1z M96,32h1v1h-1z M97,32h1v1h-1z M99,32h1v1h-1z M100,32h1v1h-1z M101,32h1v1h-1z M102,32h1v1h-1z M103,32h1v1h-1z M104,32h1v1h-1z M105,32h1v1h-1z M4,33h1v1h-1z M5,33h1v1h-1z M7,33h1v1h-1z M9,33h1v1h-1z M12,33h1v1h-1z M13,33h1v1h-1z M15,33h1v1h-1z M16,33h1v1h-1z M17,33h1v1h-1z M18,33h1v1h-1z M22,33h1v1h-1z M26,33h1v1h-1z M29,33h1v1h-1z M30,33h1v1h-1z M32,33h1v1h-1z M33,33h1v1h-1z M34,33h1v1h-1z M35,33h1v1h-1z M38,33h1v1h-1z M39,33h1v1h-1z M41,33h1v1h-1z M44,33h1v1h-1z M45,33h1v1h-1z M49,33h1v1h-1z M52,33h1v1h-1z M53,33h1v1h-1z M54,33h1v1h-1z M55,33h1v1h-1z M57,33h1v1h-1z M60,33h1v1h-1z M62,33h1v1h-1z M65,33h1v1h-1z M67,33h1v1h-1z M68,33h1v1h-1z M69,33h1v1h-1z M71,33h1v1h-1z M72,33h1v1h-1z M73,33h1v1h-1z M74,33h1v1h-1z M76,33h1v1h-1z M77,33h1v1h-1z M81,33h1v1h-1z M82,33h1v1h-1z M83,33h1v1h-1z M84,33h1v1h-1z M86,33h1v1h-1z M87,33h1v1h-1z M88,33h1v1h-1z M89,33h1v1h-1z M90,33h1v1h-1z M92,33h1v1h-1z M94,33h1v1h-1z M95,33h1v1h-1z M96,33h1v1h-1z M97,33h1v1h-1z M98,33h1v1h-1z M99,33h1v1h-1z M100,33h1v1h-1z M101,33h1v1h-1z M4,34h1v1h-1z M6,34h1v1h-1z M7,34h1v1h-1z M8,34h1v1h-1z M9,34h1v1h-1z M10,34h1v1h-1z M14,34h1v1h-1z M15,34h1v1h-1z M16,34h1v1h-1z M17,34h1v1h-1z M18,34h1v1h-1z M19,34h1v1h-1z M20,34h1v1h-1z M22,34h1v1h-1z M23,34h1v1h-1z M24,34h1v1h-1z M29,34h1v1h-1z M31,34h1v1h-1z M32,34h1v1h-1z M35,34h1v1h-1z M36,34h1v1h-1z M38,34h1v1h-1z M39,34h1v1h-1z M44,34h1v1h-1z M47,34h1v1h-1z M50,34h1v1h-1z M52,34h1v1h-1z M55,34h1v1h-1z M57,34h1v1h-1z M60,34h1v1h-1z M62,34h1v1h-1z M65,34h1v1h-1z M67,34h1v1h-1z M71,34h1v1h-1z M72,34h1v1h-1z M74,34h1v1h-1z M77,34h1v1h-1z M79,34h1v1h-1z M80,34h1v1h-1z M81,34h1v1h-1z M83,34h1v1h-1z M86,34h1v1h-1z M87,34h1v1h-1z M89,34h1v1h-1z M93,34h1v1h-1z M96,34h1v1h-1z M98,34h1v1h-1z M99,34h1v1h-1z M100,34h1v1h-1z M106,34h1v1h-1z M5,35h1v1h-1z M6,35h1v1h-1z M7,35h1v1h-1z M11,35h1v1h-1z M12,35h1v1h-1z M13,35h1v1h-1z M17,35h1v1h-1z M18,35h1v1h-1z M19,35h1v1h-1z M21,35h1v1h-1z M22,35h1v1h-1z M24,35h1v1h-1z M25,35h1v1h-1z M26,35h1v1h-1z M27,35h1v1h-1z M28,35h1v1h-1z M29,35h1v1h-1z M33,35h1v1h-1z M34,35h1v1h-1z M41,35h1v1h-1z M42,35h1v1h-1z M44,35h1v1h-1z M45,35h1v1h-1z M47,35h1v1h-1z M49,35h1v1h-1z M50,35h1v1h-1z M51,35h1v1h-1z M52,35h1v1h-1z M53,35h1v1h-1z M55,35h1v1h-1z M56,35h1v1h-1z M58,35h1v1h-1z M61,35h1v1h-1z M62,35h1v1h-1z M66,35h1v1h-1z M68,35h1v1h-1z M69,35h1v1h-1z M71,35h1v1h-1z M73,35h1v1h-1z M74,35h1v1h-1z M76,35h1v1h-1z M77,35h1v1h-1z M79,35h1v1h-1z M82,35h1v1h-1z M83,35h1v1h-1z M90,35h1v1h-1z M92,35h1v1h-1z M94,35h1v1h-1z M95,35h1v1h-1z M97,35h1v1h-1z M99,35h1v1h-1z M101,35h1v1h-1z M104,35h1v1h-1z M108,35h1v1h-1z M4,36h1v1h-1z M5,36h1v1h-1z M6,36h1v1h-1z M8,36h1v1h-1z M9,36h1v1h-1z M10,36h1v1h-1z M15,36h1v1h-1z M17,36h1v1h-1z M18,36h1v1h-1z M22,36h1v1h-1z M23,36h1v1h-1z M26,36h1v1h-1z M29,36h1v1h-1z M33,36h1v1h-1z M34,36h1v1h-1z M35,36h1v1h-1z M36,36h1v1h-1z M39,36h1v1h-1z M40,36h1v1h-1z M42,36h1v1h-1z M43,36h1v1h-1z M44,36h1v1h-1z M49,36h1v1h-1z M50,36h1v1h-1z M52,36h1v1h-1z M53,36h1v1h-1z M54,36h1v1h-1z M55,36h1v1h-1z M58,36h1v1h-1z M62,36h1v1h-1z M63,36h1v1h-1z M64,36h1v1h-1z M66,36h1v1h-1z M69,36h1v1h-1z M70,36h1v1h-1z M74,36h1v1h-1z M76,36h1v1h-1z M77,36h1v1h-1z M78,36h1v1h-1z M79,36h1v1h-1z M81,36h1v1h-1z M84,36h1v1h-1z M86,36h1v1h-1z M87,36h1v1h-1z M89,36h1v1h-1z M90,36h1v1h-1z M92,36h1v1h-1z M97,36h1v1h-1z M102,36h1v1h-1z M103,36h1v1h-1z M104,36h1v1h-1z M107,36h1v1h-1z M6,37h1v1h-1z M7,37h1v1h-1z M12,37h1v1h-1z M16,37h1v1h-1z M18,37h1v1h-1z M21,37h1v1h-1z M22,37h1v1h-1z M27,37h1v1h-1z M28,37h1v1h-1z M29,37h1v1h-1z M33,37h1v1h-1z M35,37h1v1h-1z M38,37h1v1h-1z M41,37h1v1h-1z M42,37h1v1h-1z M45,37h1v1h-1z M46,37h1v1h-1z M52,37h1v1h-1z M53,37h1v1h-1z M55,37h1v1h-1z M56,37h1v1h-1z M57,37h1v1h-1z M58,37h1v1h-1z M59,37h1v1h-1z M61,37h1v1h-1z M63,37h1v1h-1z M64,37h1v1h-1z M67,37h1v1h-1z M71,37h1v1h-1z M75,37h1v1h-1z M76,37h1v1h-1z M77,37h1v1h-1z M78,37h1v1h-1z M81,37h1v1h-1z M82,37h1v1h-1z M83,37h1v1h-1z M86,37h1v1h-1z M94,37h1v1h-1z M96,37h1v1h-1z M97,37h1v1h-1z M98,37h1v1h-1z M100,37h1v1h-1z M101,37h1v1h-1z M102,37h1v1h-1z M103,37h1v1h-1z M104,37h1v1h-1z M105,37h1v1h-1z M106,37h1v1h-1z M108,37h1v1h-1z M4,38h1v1h-1z M7,38h1v1h-1z M8,38h1v1h-1z M10,38h1v1h-1z M14,38h1v1h-1z M15,38h1v1h-1z M16,38h1v1h-1z M17,38h1v1h-1z M18,38h1v1h-1z M19,38h1v1h-1z M20,38h1v1h-1z M21,38h1v1h-1z M25,38h1v1h-1z M26,38h1v1h-1z M27,38h1v1h-1z M29,38h1v1h-1z M30,38h1v1h-1z M31,38h1v1h-1z M32,38h1v1h-1z M36,38h1v1h-1z M38,38h1v1h-1z M39,38h1v1h-1z M41,38h1v1h-1z M44,38h1v1h-1z M50,38h1v1h-1z M53,38h1v1h-1z M55,38h1v1h-1z M59,38h1v1h-1z M62,38h1v1h-1z M63,38h1v1h-1z M64,38h1v1h-1z M65,38h1v1h-1z M72,38h1v1h-1z M74,38h1v1h-1z M75,38h1v1h-1z M79,38h1v1h-1z M83,38h1v1h-1z M84,38h1v1h-1z M86,38h1v1h-1z M88,38h1v1h-1z M89,38h1v1h-1z M91,38h1v1h-1z M95,38h1v1h-1z M98,38h1v1h-1z M100,38h1v1h-1z M102,38h1v1h-1z M103,38h1v1h-1z M107,38h1v1h-1z M4,39h1v1h-1z M6,39h1v1h-1z M8,39h1v1h-1z M9,39h1v1h-1z M11,39h1v1h-1z M14,39h1v1h-1z M15,39h1v1h-1z M17,39h1v1h-1z M19,39h1v1h-1z M20,39h1v1h-1z M21,39h1v1h-1z M23,39h1v1h-1z M24,39h1v1h-1z M25,39h1v1h-1z M26,39h1v1h-1z M28,39h1v1h-1z M29,39h1v1h-1z M33,39h1v1h-1z M34,39h1v1h-1z M35,39h1v1h-1z M42,39h1v1h-1z M44,39h1v1h-1z M45,39h1v1h-1z M46,39h1v1h-1z M47,39h1v1h-1z M53,39h1v1h-1z M56,39h1v1h-1z M57,39h1v1h-1z M58,39h1v1h-1z M59,39h1v1h-1z M61,39h1v1h-1z M67,39h1v1h-1z M68,39h1v1h-1z M73,39h1v1h-1z M74,39h1v1h-1z M76,39h1v1h-1z M80,39h1v1h-1z M81,39h1v1h-1z M85,39h1v1h-1z M86,39h1v1h-1z M87,39h1v1h-1z M89,39h1v1h-1z M90,39h1v1h-1z M92,39h1v1h-1z M93,39h1v1h-1z M94,39h1v1h-1z M95,39h1v1h-1z M97,39h1v1h-1z M98,39h1v1h-1z M99,39h1v1h-1z M101,39h1v1h-1z M102,39h1v1h-1z M103,39h1v1h-1z M104,39h1v1h-1z M105,39h1v1h-1z M108,39h1v1h-1z M5,40h1v1h-1z M7,40h1v1h-1z M8,40h1v1h-1z M10,40h1v1h-1z M13,40h1v1h-1z M15,40h1v1h-1z M16,40h1v1h-1z M18,40h1v1h-1z M19,40h1v1h-1z M21,40h1v1h-1z M23,40h1v1h-1z M24,40h1v1h-1z M26,40h1v1h-1z M31,40h1v1h-1z M36,40h1v1h-1z M37,40h1v1h-1z M41,40h1v1h-1z M42,40h1v1h-1z M43,40h1v1h-1z M50,40h1v1h-1z M53,40h1v1h-1z M54,40h1v1h-1z M55,40h1v1h-1z M57,40h1v1h-1z M58,40h1v1h-1z M60,40h1v1h-1z M65,40h1v1h-1z M68,40h1v1h-1z M69,40h1v1h-1z M73,40h1v1h-1z M76,40h1v1h-1z M79,40h1v1h-1z M84,40h1v1h-1z M87,40h1v1h-1z M89,40h1v1h-1z M95,40h1v1h-1z M96,40h1v1h-1z M98,40h1v1h-1z M100,40h1v1h-1z M101,40h1v1h-1z M102,40h1v1h-1z M104,40h1v1h-1z M105,40h1v1h-1z M108,40h1v1h-1z M6,41h1v1h-1z M14,41h1v1h-1z M16,41h1v1h-1z M17,41h1v1h-1z M22,41h1v1h-1z M24,41h1v1h-1z M27,41h1v1h-1z M28,41h1v1h-1z M29,41h1v1h-1z M30,41h1v1h-1z M31,41h1v1h-1z M33,41h1v1h-1z M34,41h1v1h-1z M35,41h1v1h-1z M36,41h1v1h-1z M37,41h1v1h-1z M38,41h1v1h-1z M39,41h1v1h-1z M40,41h1v1h-1z M41,41h1v1h-1z M45,41h1v1h-1z M47,41h1v1h-1z M49,41h1v1h-1z M51,41h1v1h-1z M52,41h1v1h-1z M54,41h1v1h-1z M58,41h1v1h-1z M59,41h1v1h-1z M60,41h1v1h-1z M65,41h1v1h-1z M69,41h1v1h-1z M70,41h1v1h-1z M71,41h1v1h-1z M72,41h1v1h-1z M73,41h1v1h-1z M76,41h1v1h-1z M78,41h1v1h-1z M79,41h1v1h-1z M81,41h1v1h-1z M83,41h1v1h-1z M84,41h1v1h-1z M86,41h1v1h-1z M88,41h1v1h-1z M89,41h1v1h-1z M91,41h1v1h-1z M93,41h1v1h-1z M94,41h1v1h-1z M99,41h1v1h-1z M105,41h1v1h-1z M6,42h1v1h-1z M8,42h1v1h-1z M10,42h1v1h-1z M17,42h1v1h-1z M18,42h1v1h-1z M19,42h1v1h-1z M21,42h1v1h-1z M22,42h1v1h-1z M25,42h1v1h-1z M26,42h1v1h-1z M27,42h1v1h-1z M31,42h1v1h-1z M32,42h1v1h-1z M35,42h1v1h-1z M36,42h1v1h-1z M38,42h1v1h-1z M43,42h1v1h-1z M47,42h1v1h-1z M48,42h1v1h-1z M49,42h1v1h-1z M50,42h1v1h-1z M51,42h1v1h-1z M52,42h1v1h-1z M53,42h1v1h-1z M54,42h1v1h-1z M56,42h1v1h-1z M59,42h1v1h-1z M60,42h1v1h-1z M62,42h1v1h-1z M63,42h1v1h-1z M65,42h1v1h-1z M67,42h1v1h-1z M69,42h1v1h-1z M71,42h1v1h-1z M72,42h1v1h-1z M74,42h1v1h-1z M75,42h1v1h-1z M78,42h1v1h-1z M83,42h1v1h-1z M84,42h1v1h-1z M86,42h1v1h-1z M88,42h1v1h-1z M89,42h1v1h-1z M91,42h1v1h-1z M92,42h1v1h-1z M98,42h1v1h-1z M101,42h1v1h-1z M5,43h1v1h-1z M7,43h1v1h-1z M9,43h1v1h-1z M12,43h1v1h-1z M13,43h1v1h-1z M18,43h1v1h-1z M19,43h1v1h-1z M20,43h1v1h-1z M21,43h1v1h-1z M22,43h1v1h-1z M25,43h1v1h-1z M26,43h1v1h-1z M29,43h1v1h-1z M32,43h1v1h-1z M35,43h1v1h-1z M37,43h1v1h-1z M41,43h1v1h-1z M42,43h1v1h-1z M44,43h1v1h-1z M45,43h1v1h-1z M47,43h1v1h-1z M49,43h1v1h-1z M51,43h1v1h-1z M52,43h1v1h-1z M53,43h1v1h-1z M59,43h1v1h-1z M65,43h1v1h-1z M67,43h1v1h-1z M68,43h1v1h-1z M69,43h1v1h-1z M70,43h1v1h-1z M74,43h1v1h-1z M76,43h1v1h-1z M79,43h1v1h-1z M80,43h1v1h-1z M81,43h1v1h-1z M82,43h1v1h-1z M85,43h1v1h-1z M87,43h1v1h-1z M90,43h1v1h-1z M92,43h1v1h-1z M93,43h1v1h-1z M95,43h1v1h-1z M98,43h1v1h-1z M99,43h1v1h-1z M100,43h1v1h-1z M101,43h1v1h-1z M103,43h1v1h-1z M104,43h1v1h-1z M107,43h1v1h-1z M6,44h1v1h-1z M10,44h1v1h-1z M12,44h1v1h-1z M13,44h1v1h-1z M15,44h1v1h-1z M16,44h1v1h-1z M17,44h1v1h-1z M20,44h1v1h-1z M21,44h1v1h-1z M23,44h1v1h-1z M27,44h1v1h-1z M29,44h1v1h-1z M30,44h1v1h-1z M31,44h1v1h-1z M33,44h1v1h-1z M34,44h1v1h-1z M35,44h1v1h-1z M36,44h1v1h-1z M38,44h1v1h-1z M41,44h1v1h-1z M43,44h1v1h-1z M44,44h1v1h-1z M45,44h1v1h-1z M46,44h1v1h-1z M49,44h1v1h-1z M53,44h1v1h-1z M55,44h1v1h-1z M58,44h1v1h-1z M61,44h1v1h-1z M62,44h1v1h-1z M63,44h1v1h-1z M64,44h1v1h-1z M66,44h1v1h-1z M68,44h1v1h-1z M70,44h1v1h-1z M71,44h1v1h-1z M76,44h1v1h-1z M79,44h1v1h-1z M82,44h1v1h-1z M83,44h1v1h-1z M84,44h1v1h-1z M85,44h1v1h-1z M88,44h1v1h-1z M90,44h1v1h-1z M92,44h1v1h-1z M94,44h1v1h-1z M97,44h1v1h-1z M99,44h1v1h-1z M100,44h1v1h-1z M102,44h1v1h-1z M105,44h1v1h-1z M107,44h1v1h-1z M108,44h1v1h-1z M4,45h1v1h-1z M5,45h1v1h-1z M6,45h1v1h-1z M8,45h1v1h-1z M11,45h1v1h-1z M13,45h1v1h-1z M16,45h1v1h-1z M17,45h1v1h-1z M21,45h1v1h-1z M23,45h1v1h-1z M24,45h1v1h-1z M25,45h1v1h-1z M26,45h1v1h-1z M32,45h1v1h-1z M33,45h1v1h-1z M34,45h1v1h-1z M35,45h1v1h-1z M37,45h1v1h-1z M40,45h1v1h-1z M43,45h1v1h-1z M49,45h1v1h-1z M50,45h1v1h-1z M51,45h1v1h-1z M52,45h1v1h-1z M53,45h1v1h-1z M55,45h1v1h-1z M57,45h1v1h-1z M62,45h1v1h-1z M64,45h1v1h-1z M65,45h1v1h-1z M66,45h1v1h-1z M69,45h1v1h-1z M71,45h1v1h-1z M72,45h1v1h-1z M74,45h1v1h-1z M77,45h1v1h-1z M78,45h1v1h-1z M80,45h1v1h-1z M81,45h1v1h-1z M82,45h1v1h-1z M83,45h1v1h-1z M85,45h1v1h-1z M86,45h1v1h-1z M89,45h1v1h-1z M91,45h1v1h-1z M94,45h1v1h-1z M100,45h1v1h-1z M101,45h1v1h-1z M102,45h1v1h-1z M103,45h1v1h-1z M104,45h1v1h-1z M106,45h1v1h-1z M107,45h1v1h-1z M108,45h1v1h-1z M4,46h1v1h-1z M6,46h1v1h-1z M8,46h1v1h-1z M10,46h1v1h-1z M13,46h1v1h-1z M16,46h1v1h-1z M17,46h1v1h-1z M18,46h1v1h-1z M20,46h1v1h-1z M27,46h1v1h-1z M29,46h1v1h-1z M30,46h1v1h-1z M31,46h1v1h-1z M36,46h1v1h-1z M38,46h1v1h-1z M40,46h1v1h-1z M41,46h1v1h-1z M48,46h1v1h-1z M50,46h1v1h-1z M51,46h1v1h-1z M55,46h1v1h-1z M56,46h1v1h-1z M62,46h1v1h-1z M63,46h1v1h-1z M64,46h1v1h-1z M65,46h1v1h-1z M67,46h1v1h-1z M68,46h1v1h-1z M72,46h1v1h-1z M74,46h1v1h-1z M75,46h1v1h-1z M79,46h1v1h-1z M80,46h1v1h-1z M85,46h1v1h-1z M86,46h1v1h-1z M87,46h1v1h-1z M88,46h1v1h-1z M92,46h1v1h-1z M96,46h1v1h-1z M97,46h1v1h-1z M98,46h1v1h-1z M99,46h1v1h-1z M100,46h1v1h-1z M101,46h1v1h-1z M103,46h1v1h-1z M104,46h1v1h-1z M105,46h1v1h-1z M107,46h1v1h-1z M4,47h1v1h-1z M5,47h1v1h-1z M7,47h1v1h-1z M11,47h1v1h-1z M13,47h1v1h-1z M14,47h1v1h-1z M19,47h1v1h-1z M20,47h1v1h-1z M21,47h1v1h-1z M22,47h1v1h-1z M28,47h1v1h-1z M29,47h1v1h-1z M31,47h1v1h-1z M32,47h1v1h-1z M33,47h1v1h-1z M35,47h1v1h-1z M43,47h1v1h-1z M44,47h1v1h-1z M47,47h1v1h-1z M50,47h1v1h-1z M52,47h1v1h-1z M53,47h1v1h-1z M55,47h1v1h-1z M57,47h1v1h-1z M58,47h1v1h-1z M59,47h1v1h-1z M61,47h1v1h-1z M63,47h1v1h-1z M65,47h1v1h-1z M68,47h1v1h-1z M70,47h1v1h-1z M71,47h1v1h-1z M73,47h1v1h-1z M75,47h1v1h-1z M76,47h1v1h-1z M77,47h1v1h-1z M81,47h1v1h-1z M82,47h1v1h-1z M83,47h1v1h-1z M89,47h1v1h-1z M90,47h1v1h-1z M92,47h1v1h-1z M94,47h1v1h-1z M95,47h1v1h-1z M99,47h1v1h-1z M102,47h1v1h-1z M104,47h1v1h-1z M107,47h1v1h-1z M6,48h1v1h-1z M7,48h1v1h-1z M10,48h1v1h-1z M12,48h1v1h-1z M14,48h1v1h-1z M16,48h1v1h-1z M18,48h1v1h-1z M22,48h1v1h-1z M23,48h1v1h-1z M24,48h1v1h-1z M25,48h1v1h-1z M29,48h1v1h-1z M30,48h1v1h-1z M31,48h1v1h-1z M34,48h1v1h-1z M36,48h1v1h-1z M38,48h1v1h-1z M40,48h1v1h-1z M41,48h1v1h-1z M42,48h1v1h-1z M43,48h1v1h-1z M44,48h1v1h-1z M45,48h1v1h-1z M46,48h1v1h-1z M47,48h1v1h-1z M48,48h1v1h-1z M49,48h1v1h-1z M50,48h1v1h-1z M52,48h1v1h-1z M53,48h1v1h-1z M55,48h1v1h-1z M57,48h1v1h-1z M58,48h1v1h-1z M59,48h1v1h-1z M62,48h1v1h-1z M64,48h1v1h-1z M65,48h1v1h-1z M66,48h1v1h-1z M68,48h1v1h-1z M70,48h1v1h-1z M71,48h1v1h-1z M73,48h1v1h-1z M76,48h1v1h-1z M82,48h1v1h-1z M84,48h1v1h-1z M86,48h1v1h-1z M89,48h1v1h-1z M92,48h1v1h-1z M93,48h1v1h-1z M94,48h1v1h-1z M95,48h1v1h-1z M99,48h1v1h-1z M100,48h1v1h-1z M102,48h1v1h-1z M103,48h1v1h-1z M107,48h1v1h-1z M108,48h1v1h-1z M4,49h1v1h-1z M5,49h1v1h-1z M6,49h1v1h-1z M7,49h1v1h-1z M8,49h1v1h-1z M11,49h1v1h-1z M12,49h1v1h-1z M13,49h1v1h-1z M14,49h1v1h-1z M15,49h1v1h-1z M19,49h1v1h-1z M21,49h1v1h-1z M22,49h1v1h-1z M24,49h1v1h-1z M26,49h1v1h-1z M27,49h1v1h-1z M28,49h1v1h-1z M31,49h1v1h-1z M33,49h1v1h-1z M36,49h1v1h-1z M37,49h1v1h-1z M38,49h1v1h-1z M45,49h1v1h-1z M46,49h1v1h-1z M47,49h1v1h-1z M48,49h1v1h-1z M53,49h1v1h-1z M54,49h1v1h-1z M56,49h1v1h-1z M61,49h1v1h-1z M62,49h1v1h-1z M63,49h1v1h-1z M64,49h1v1h-1z M66,49h1v1h-1z M67,49h1v1h-1z M69,49h1v1h-1z M70,49h1v1h-1z M72,49h1v1h-1z M73,49h1v1h-1z M74,49h1v1h-1z M75,49h1v1h-1z M76,49h1v1h-1z M77,49h1v1h-1z M78,49h1v1h-1z M79,49h1v1h-1z M80,49h1v1h-1z M81,49h1v1h-1z M85,49h1v1h-1z M86,49h1v1h-1z M87,49h1v1h-1z M90,49h1v1h-1z M96,49h1v1h-1z M98,49h1v1h-1z M99,49h1v1h-1z M101,49h1v1h-1z M107,49h1v1h-1z M108,49h1v1h-1z M4,50h1v1h-1z M5,50h1v1h-1z M6,50h1v1h-1z M8,50h1v1h-1z M9,50h1v1h-1z M10,50h1v1h-1z M12,50h1v1h-1z M13,50h1v1h-1z M14,50h1v1h-1z M15,50h1v1h-1z M17,50h1v1h-1z M18,50h1v1h-1z M19,50h1v1h-1z M20,50h1v1h-1z M22,50h1v1h-1z M23,50h1v1h-1z M24,50h1v1h-1z M25,50h1v1h-1z M26,50h1v1h-1z M29,50h1v1h-1z M30,50h1v1h-1z M32,50h1v1h-1z M35,50h1v1h-1z M36,50h1v1h-1z M38,50h1v1h-1z M39,50h1v1h-1z M41,50h1v1h-1z M49,50h1v1h-1z M50,50h1v1h-1z M51,50h1v1h-1z M52,50h1v1h-1z M54,50h1v1h-1z M56,50h1v1h-1z M59,50h1v1h-1z M62,50h1v1h-1z M63,50h1v1h-1z M64,50h1v1h-1z M67,50h1v1h-1z M68,50h1v1h-1z M71,50h1v1h-1z M74,50h1v1h-1z M75,50h1v1h-1z M78,50h1v1h-1z M79,50h1v1h-1z M80,50h1v1h-1z M83,50h1v1h-1z M84,50h1v1h-1z M86,50h1v1h-1z M87,50h1v1h-1z M98,50h1v1h-1z M106,50h1v1h-1z M107,50h1v1h-1z M6,51h1v1h-1z M8,51h1v1h-1z M9,51h1v1h-1z M11,51h1v1h-1z M13,51h1v1h-1z M14,51h1v1h-1z M16,51h1v1h-1z M18,51h1v1h-1z M19,51h1v1h-1z M21,51h1v1h-1z M23,51h1v1h-1z M24,51h1v1h-1z M25,51h1v1h-1z M26,51h1v1h-1z M28,51h1v1h-1z M29,51h1v1h-1z M32,51h1v1h-1z M34,51h1v1h-1z M35,51h1v1h-1z M38,51h1v1h-1z M41,51h1v1h-1z M42,51h1v1h-1z M44,51h1v1h-1z M45,51h1v1h-1z M46,51h1v1h-1z M47,51h1v1h-1z M53,51h1v1h-1z M56,51h1v1h-1z M58,51h1v1h-1z M59,51h1v1h-1z M61,51h1v1h-1z M65,51h1v1h-1z M66,51h1v1h-1z M68,51h1v1h-1z M70,51h1v1h-1z M71,51h1v1h-1z M73,51h1v1h-1z M76,51h1v1h-1z M77,51h1v1h-1z M79,51h1v1h-1z M81,51h1v1h-1z M86,51h1v1h-1z M89,51h1v1h-1z M90,51h1v1h-1z M92,51h1v1h-1z M93,51h1v1h-1z M95,51h1v1h-1z M97,51h1v1h-1z M99,51h1v1h-1z M100,51h1v1h-1z M102,51h1v1h-1z M104,51h1v1h-1z M107,51h1v1h-1z M5,52h1v1h-1z M6,52h1v1h-1z M7,52h1v1h-1z M8,52h1v1h-1z M9,52h1v1h-1z M10,52h1v1h-1z M11,52h1v1h-1z M12,52h1v1h-1z M19,52h1v1h-1z M20,52h1v1h-1z M26,52h1v1h-1z M28,52h1v1h-1z M29,52h1v1h-1z M30,52h1v1h-1z M31,52h1v1h-1z M32,52h1v1h-1z M33,52h1v1h-1z M35,52h1v1h-1z M38,52h1v1h-1z M39,52h1v1h-1z M40,52h1v1h-1z M41,52h1v1h-1z M42,52h1v1h-1z M47,52h1v1h-1z M49,52h1v1h-1z M52,52h1v1h-1z M53,52h1v1h-1z M54,52h1v1h-1z M55,52h1v1h-1z M56,52h1v1h-1z M57,52h1v1h-1z M58,52h1v1h-1z M60,52h1v1h-1z M61,52h1v1h-1z M65,52h1v1h-1z M66,52h1v1h-1z M67,52h1v1h-1z M68,52h1v1h-1z M69,52h1v1h-1z M71,52h1v1h-1z M72,52h1v1h-1z M76,52h1v1h-1z M77,52h1v1h-1z M78,52h1v1h-1z M79,52h1v1h-1z M80,52h1v1h-1z M81,52h1v1h-1z M82,52h1v1h-1z M85,52h1v1h-1z M86,52h1v1h-1z M87,52h1v1h-1z M88,52h1v1h-1z M90,52h1v1h-1z M91,52h1v1h-1z M93,52h1v1h-1z M94,52h1v1h-1z M96,52h1v1h-1z M98,52h1v1h-1z M99,52h1v1h-1z M100,52h1v1h-1z M101,52h1v1h-1z M102,52h1v1h-1z M103,52h1v1h-1z M104,52h1v1h-1z M106,52h1v1h-1z M108,52h1v1h-1z M5,53h1v1h-1z M6,53h1v1h-1z M8,53h1v1h-1z M12,53h1v1h-1z M14,53h1v1h-1z M15,53h1v1h-1z M16,53h1v1h-1z M17,53h1v1h-1z M21,53h1v1h-1z M22,53h1v1h-1z M24,53h1v1h-1z M25,53h1v1h-1z M26,53h1v1h-1z M28,53h1v1h-1z M32,53h1v1h-1z M33,53h1v1h-1z M37,53h1v1h-1z M39,53h1v1h-1z M41,53h1v1h-1z M42,53h1v1h-1z M43,53h1v1h-1z M44,53h1v1h-1z M46,53h1v1h-1z M47,53h1v1h-1z M50,53h1v1h-1z M51,53h1v1h-1z M52,53h1v1h-1z M56,53h1v1h-1z M59,53h1v1h-1z M60,53h1v1h-1z M62,53h1v1h-1z M63,53h1v1h-1z M64,53h1v1h-1z M65,53h1v1h-1z M68,53h1v1h-1z M70,53h1v1h-1z M72,53h1v1h-1z M76,53h1v1h-1z M80,53h1v1h-1z M81,53h1v1h-1z M84,53h1v1h-1z M86,53h1v1h-1z M90,53h1v1h-1z M96,53h1v1h-1z M99,53h1v1h-1z M100,53h1v1h-1z M104,53h1v1h-1z M7,54h1v1h-1z M8,54h1v1h-1z M10,54h1v1h-1z M12,54h1v1h-1z M13,54h1v1h-1z M18,54h1v1h-1z M20,54h1v1h-1z M21,54h1v1h-1z M22,54h1v1h-1z M23,54h1v1h-1z M24,54h1v1h-1z M25,54h1v1h-1z M27,54h1v1h-1z M28,54h1v1h-1z M30,54h1v1h-1z M32,54h1v1h-1z M33,54h1v1h-1z M35,54h1v1h-1z M36,54h1v1h-1z M38,54h1v1h-1z M40,54h1v1h-1z M41,54h1v1h-1z M43,54h1v1h-1z M44,54h1v1h-1z M47,54h1v1h-1z M48,54h1v1h-1z M50,54h1v1h-1z M51,54h1v1h-1z M52,54h1v1h-1z M54,54h1v1h-1z M56,54h1v1h-1z M57,54h1v1h-1z M60,54h1v1h-1z M62,54h1v1h-1z M63,54h1v1h-1z M64,54h1v1h-1z M65,54h1v1h-1z M72,54h1v1h-1z M74,54h1v1h-1z M76,54h1v1h-1z M78,54h1v1h-1z M80,54h1v1h-1z M83,54h1v1h-1z M84,54h1v1h-1z M85,54h1v1h-1z M86,54h1v1h-1z M88,54h1v1h-1z M89,54h1v1h-1z M91,54h1v1h-1z M95,54h1v1h-1z M96,54h1v1h-1z M98,54h1v1h-1z M99,54h1v1h-1z M100,54h1v1h-1z M102,54h1v1h-1z M104,54h1v1h-1z M105,54h1v1h-1z M107,54h1v1h-1z M4,55h1v1h-1z M6,55h1v1h-1z M7,55h1v1h-1z M8,55h1v1h-1z M12,55h1v1h-1z M13,55h1v1h-1z M14,55h1v1h-1z M16,55h1v1h-1z M17,55h1v1h-1z M18,55h1v1h-1z M21,55h1v1h-1z M22,55h1v1h-1z M23,55h1v1h-1z M25,55h1v1h-1z M26,55h1v1h-1z M28,55h1v1h-1z M32,55h1v1h-1z M34,55h1v1h-1z M35,55h1v1h-1z M39,55h1v1h-1z M41,55h1v1h-1z M42,55h1v1h-1z M44,55h1v1h-1z M45,55h1v1h-1z M49,55h1v1h-1z M50,55h1v1h-1z M51,55h1v1h-1z M52,55h1v1h-1z M56,55h1v1h-1z M58,55h1v1h-1z M59,55h1v1h-1z M61,55h1v1h-1z M66,55h1v1h-1z M68,55h1v1h-1z M69,55h1v1h-1z M70,55h1v1h-1z M71,55h1v1h-1z M73,55h1v1h-1z M75,55h1v1h-1z M76,55h1v1h-1z M80,55h1v1h-1z M81,55h1v1h-1z M82,55h1v1h-1z M83,55h1v1h-1z M87,55h1v1h-1z M92,55h1v1h-1z M94,55h1v1h-1z M97,55h1v1h-1z M100,55h1v1h-1z M104,55h1v1h-1z M108,55h1v1h-1z M5,56h1v1h-1z M6,56h1v1h-1z M8,56h1v1h-1z M9,56h1v1h-1z M10,56h1v1h-1z M11,56h1v1h-1z M12,56h1v1h-1z M14,56h1v1h-1z M15,56h1v1h-1z M16,56h1v1h-1z M17,56h1v1h-1z M20,56h1v1h-1z M21,56h1v1h-1z M22,56h1v1h-1z M23,56h1v1h-1z M24,56h1v1h-1z M26,56h1v1h-1z M27,56h1v1h-1z M28,56h1v1h-1z M29,56h1v1h-1z M30,56h1v1h-1z M31,56h1v1h-1z M32,56h1v1h-1z M33,56h1v1h-1z M34,56h1v1h-1z M37,56h1v1h-1z M38,56h1v1h-1z M40,56h1v1h-1z M42,56h1v1h-1z M43,56h1v1h-1z M45,56h1v1h-1z M46,56h1v1h-1z M48,56h1v1h-1z M49,56h1v1h-1z M50,56h1v1h-1z M51,56h1v1h-1z M52,56h1v1h-1z M53,56h1v1h-1z M54,56h1v1h-1z M55,56h1v1h-1z M56,56h1v1h-1z M57,56h1v1h-1z M58,56h1v1h-1z M61,56h1v1h-1z M63,56h1v1h-1z M66,56h1v1h-1z M68,56h1v1h-1z M73,56h1v1h-1z M76,56h1v1h-1z M77,56h1v1h-1z M78,56h1v1h-1z M79,56h1v1h-1z M80,56h1v1h-1z M84,56h1v1h-1z M90,56h1v1h-1z M92,56h1v1h-1z M95,56h1v1h-1z M98,56h1v1h-1z M100,56h1v1h-1z M101,56h1v1h-1z M102,56h1v1h-1z M103,56h1v1h-1z M104,56h1v1h-1z M107,56h1v1h-1z M4,57h1v1h-1z M5,57h1v1h-1z M7,57h1v1h-1z M9,57h1v1h-1z M15,57h1v1h-1z M19,57h1v1h-1z M20,57h1v1h-1z M24,57h1v1h-1z M29,57h1v1h-1z M30,57h1v1h-1z M31,57h1v1h-1z M34,57h1v1h-1z M35,57h1v1h-1z M36,57h1v1h-1z M37,57h1v1h-1z M39,57h1v1h-1z M40,57h1v1h-1z M42,57h1v1h-1z M45,57h1v1h-1z M46,57h1v1h-1z M47,57h1v1h-1z M49,57h1v1h-1z M50,57h1v1h-1z M51,57h1v1h-1z M52,57h1v1h-1z M53,57h1v1h-1z M54,57h1v1h-1z M55,57h1v1h-1z M61,57h1v1h-1z M62,57h1v1h-1z M69,57h1v1h-1z M70,57h1v1h-1z M72,57h1v1h-1z M73,57h1v1h-1z M75,57h1v1h-1z M76,57h1v1h-1z M79,57h1v1h-1z M83,57h1v1h-1z M86,57h1v1h-1z M87,57h1v1h-1z M89,57h1v1h-1z M91,57h1v1h-1z M92,57h1v1h-1z M93,57h1v1h-1z M95,57h1v1h-1z M99,57h1v1h-1z M100,57h1v1h-1z M101,57h1v1h-1z M102,57h1v1h-1z M104,57h1v1h-1z M106,57h1v1h-1z M4,58h1v1h-1z M5,58h1v1h-1z M6,58h1v1h-1z M8,58h1v1h-1z M9,58h1v1h-1z M10,58h1v1h-1z M11,58h1v1h-1z M13,58h1v1h-1z M15,58h1v1h-1z M17,58h1v1h-1z M18,58h1v1h-1z M19,58h1v1h-1z M20,58h1v1h-1z M23,58h1v1h-1z M25,58h1v1h-1z M29,58h1v1h-1z M32,58h1v1h-1z M35,58h1v1h-1z M38,58h1v1h-1z M39,58h1v1h-1z M40,58h1v1h-1z M47,58h1v1h-1z M48,58h1v1h-1z M50,58h1v1h-1z M56,58h1v1h-1z M60,58h1v1h-1z M61,58h1v1h-1z M62,58h1v1h-1z M63,58h1v1h-1z M64,58h1v1h-1z M65,58h1v1h-1z M73,58h1v1h-1z M74,58h1v1h-1z M78,58h1v1h-1z M81,58h1v1h-1z M83,58h1v1h-1z M86,58h1v1h-1z M87,58h1v1h-1z M91,58h1v1h-1z M92,58h1v1h-1z M95,58h1v1h-1z M98,58h1v1h-1z M99,58h1v1h-1z M101,58h1v1h-1z M102,58h1v1h-1z M103,58h1v1h-1z M107,58h1v1h-1z M4,59h1v1h-1z M5,59h1v1h-1z M7,59h1v1h-1z M8,59h1v1h-1z M11,59h1v1h-1z M14,59h1v1h-1z M19,59h1v1h-1z M20,59h1v1h-1z M22,59h1v1h-1z M23,59h1v1h-1z M25,59h1v1h-1z M27,59h1v1h-1z M30,59h1v1h-1z M31,59h1v1h-1z M32,59h1v1h-1z M35,59h1v1h-1z M37,59h1v1h-1z M39,59h1v1h-1z M41,59h1v1h-1z M42,59h1v1h-1z M43,59h1v1h-1z M44,59h1v1h-1z M46,59h1v1h-1z M47,59h1v1h-1z M50,59h1v1h-1z M51,59h1v1h-1z M53,59h1v1h-1z M57,59h1v1h-1z M58,59h1v1h-1z M59,59h1v1h-1z M68,59h1v1h-1z M71,59h1v1h-1z M75,59h1v1h-1z M76,59h1v1h-1z M78,59h1v1h-1z M79,59h1v1h-1z M80,59h1v1h-1z M81,59h1v1h-1z M82,59h1v1h-1z M83,59h1v1h-1z M89,59h1v1h-1z M90,59h1v1h-1z M92,59h1v1h-1z M95,59h1v1h-1z M98,59h1v1h-1z M101,59h1v1h-1z M103,59h1v1h-1z M107,59h1v1h-1z M108,59h1v1h-1z M4,60h1v1h-1z M5,60h1v1h-1z M6,60h1v1h-1z M7,60h1v1h-1z M8,60h1v1h-1z M9,60h1v1h-1z M10,60h1v1h-1z M11,60h1v1h-1z M12,60h1v1h-1z M13,60h1v1h-1z M19,60h1v1h-1z M24,60h1v1h-1z M30,60h1v1h-1z M31,60h1v1h-1z M32,60h1v1h-1z M34,60h1v1h-1z M35,60h1v1h-1z M36,60h1v1h-1z M37,60h1v1h-1z M42,60h1v1h-1z M43,60h1v1h-1z M44,60h1v1h-1z M45,60h1v1h-1z M46,60h1v1h-1z M47,60h1v1h-1z M48,60h1v1h-1z M50,60h1v1h-1z M51,60h1v1h-1z M52,60h1v1h-1z M54,60h1v1h-1z M55,60h1v1h-1z M56,60h1v1h-1z M59,60h1v1h-1z M64,60h1v1h-1z M66,60h1v1h-1z M69,60h1v1h-1z M70,60h1v1h-1z M76,60h1v1h-1z M78,60h1v1h-1z M79,60h1v1h-1z M80,60h1v1h-1z M81,60h1v1h-1z M82,60h1v1h-1z M83,60h1v1h-1z M84,60h1v1h-1z M85,60h1v1h-1z M88,60h1v1h-1z M90,60h1v1h-1z M91,60h1v1h-1z M92,60h1v1h-1z M93,60h1v1h-1z M94,60h1v1h-1z M98,60h1v1h-1z M102,60h1v1h-1z M103,60h1v1h-1z M106,60h1v1h-1z M107,60h1v1h-1z M108,60h1v1h-1z M4,61h1v1h-1z M5,61h1v1h-1z M6,61h1v1h-1z M7,61h1v1h-1z M8,61h1v1h-1z M9,61h1v1h-1z M12,61h1v1h-1z M15,61h1v1h-1z M16,61h1v1h-1z M17,61h1v1h-1z M19,61h1v1h-1z M25,61h1v1h-1z M27,61h1v1h-1z M29,61h1v1h-1z M30,61h1v1h-1z M31,61h1v1h-1z M34,61h1v1h-1z M35,61h1v1h-1z M37,61h1v1h-1z M39,61h1v1h-1z M40,61h1v1h-1z M42,61h1v1h-1z M44,61h1v1h-1z M46,61h1v1h-1z M48,61h1v1h-1z M50,61h1v1h-1z M51,61h1v1h-1z M52,61h1v1h-1z M53,61h1v1h-1z M55,61h1v1h-1z M58,61h1v1h-1z M59,61h1v1h-1z M60,61h1v1h-1z M62,61h1v1h-1z M65,61h1v1h-1z M67,61h1v1h-1z M72,61h1v1h-1z M74,61h1v1h-1z M75,61h1v1h-1z M77,61h1v1h-1z M78,61h1v1h-1z M79,61h1v1h-1z M81,61h1v1h-1z M82,61h1v1h-1z M84,61h1v1h-1z M86,61h1v1h-1z M89,61h1v1h-1z M91,61h1v1h-1z M92,61h1v1h-1z M93,61h1v1h-1z M95,61h1v1h-1z M97,61h1v1h-1z M98,61h1v1h-1z M100,61h1v1h-1z M101,61h1v1h-1z M102,61h1v1h-1z M105,61h1v1h-1z M108,61h1v1h-1z M4,62h1v1h-1z M6,62h1v1h-1z M8,62h1v1h-1z M10,62h1v1h-1z M12,62h1v1h-1z M13,62h1v1h-1z M14,62h1v1h-1z M16,62h1v1h-1z M17,62h1v1h-1z M18,62h1v1h-1z M19,62h1v1h-1z M25,62h1v1h-1z M27,62h1v1h-1z M30,62h1v1h-1z M31,62h1v1h-1z M32,62h1v1h-1z M35,62h1v1h-1z M36,62h1v1h-1z M37,62h1v1h-1z M38,62h1v1h-1z M39,62h1v1h-1z M41,62h1v1h-1z M43,62h1v1h-1z M44,62h1v1h-1z M50,62h1v1h-1z M54,62h1v1h-1z M55,62h1v1h-1z M61,62h1v1h-1z M62,62h1v1h-1z M64,62h1v1h-1z M67,62h1v1h-1z M71,62h1v1h-1z M74,62h1v1h-1z M77,62h1v1h-1z M79,62h1v1h-1z M86,62h1v1h-1z M87,62h1v1h-1z M88,62h1v1h-1z M93,62h1v1h-1z M98,62h1v1h-1z M100,62h1v1h-1z M101,62h1v1h-1z M102,62h1v1h-1z M103,62h1v1h-1z M104,62h1v1h-1z M106,62h1v1h-1z M107,62h1v1h-1z M4,63h1v1h-1z M7,63h1v1h-1z M8,63h1v1h-1z M9,63h1v1h-1z M13,63h1v1h-1z M14,63h1v1h-1z M15,63h1v1h-1z M16,63h1v1h-1z M17,63h1v1h-1z M19,63h1v1h-1z M20,63h1v1h-1z M21,63h1v1h-1z M22,63h1v1h-1z M23,63h1v1h-1z M25,63h1v1h-1z M27,63h1v1h-1z M29,63h1v1h-1z M32,63h1v1h-1z M33,63h1v1h-1z M34,63h1v1h-1z M37,63h1v1h-1z M42,63h1v1h-1z M44,63h1v1h-1z M45,63h1v1h-1z M46,63h1v1h-1z M47,63h1v1h-1z M49,63h1v1h-1z M51,63h1v1h-1z M52,63h1v1h-1z M54,63h1v1h-1z M56,63h1v1h-1z M58,63h1v1h-1z M59,63h1v1h-1z M61,63h1v1h-1z M65,63h1v1h-1z M66,63h1v1h-1z M68,63h1v1h-1z M69,63h1v1h-1z M71,63h1v1h-1z M74,63h1v1h-1z M75,63h1v1h-1z M79,63h1v1h-1z M81,63h1v1h-1z M83,63h1v1h-1z M85,63h1v1h-1z M86,63h1v1h-1z M89,63h1v1h-1z M90,63h1v1h-1z M91,63h1v1h-1z M92,63h1v1h-1z M94,63h1v1h-1z M95,63h1v1h-1z M98,63h1v1h-1z M99,63h1v1h-1z M100,63h1v1h-1z M101,63h1v1h-1z M103,63h1v1h-1z M107,63h1v1h-1z M108,63h1v1h-1z M5,64h1v1h-1z M6,64h1v1h-1z M8,64h1v1h-1z M10,64h1v1h-1z M16,64h1v1h-1z M17,64h1v1h-1z M18,64h1v1h-1z M19,64h1v1h-1z M21,64h1v1h-1z M22,64h1v1h-1z M23,64h1v1h-1z M25,64h1v1h-1z M26,64h1v1h-1z M27,64h1v1h-1z M28,64h1v1h-1z M30,64h1v1h-1z M31,64h1v1h-1z M32,64h1v1h-1z M33,64h1v1h-1z M34,64h1v1h-1z M35,64h1v1h-1z M39,64h1v1h-1z M41,64h1v1h-1z M44,64h1v1h-1z M49,64h1v1h-1z M52,64h1v1h-1z M54,64h1v1h-1z M55,64h1v1h-1z M56,64h1v1h-1z M57,64h1v1h-1z M58,64h1v1h-1z M60,64h1v1h-1z M64,64h1v1h-1z M66,64h1v1h-1z M68,64h1v1h-1z M71,64h1v1h-1z M73,64h1v1h-1z M78,64h1v1h-1z M80,64h1v1h-1z M81,64h1v1h-1z M82,64h1v1h-1z M88,64h1v1h-1z M89,64h1v1h-1z M90,64h1v1h-1z M92,64h1v1h-1z M93,64h1v1h-1z M94,64h1v1h-1z M97,64h1v1h-1z M101,64h1v1h-1z M103,64h1v1h-1z M105,64h1v1h-1z M106,64h1v1h-1z M108,64h1v1h-1z M4,65h1v1h-1z M5,65h1v1h-1z M9,65h1v1h-1z M11,65h1v1h-1z M12,65h1v1h-1z M14,65h1v1h-1z M15,65h1v1h-1z M19,65h1v1h-1z M25,65h1v1h-1z M26,65h1v1h-1z M28,65h1v1h-1z M29,65h1v1h-1z M30,65h1v1h-1z M35,65h1v1h-1z M37,65h1v1h-1z M40,65h1v1h-1z M43,65h1v1h-1z M48,65h1v1h-1z M51,65h1v1h-1z M52,65h1v1h-1z M53,65h1v1h-1z M54,65h1v1h-1z M57,65h1v1h-1z M58,65h1v1h-1z M59,65h1v1h-1z M60,65h1v1h-1z M62,65h1v1h-1z M63,65h1v1h-1z M64,65h1v1h-1z M66,65h1v1h-1z M67,65h1v1h-1z M69,65h1v1h-1z M70,65h1v1h-1z M71,65h1v1h-1z M76,65h1v1h-1z M79,65h1v1h-1z M84,65h1v1h-1z M88,65h1v1h-1z M89,65h1v1h-1z M91,65h1v1h-1z M94,65h1v1h-1z M96,65h1v1h-1z M97,65h1v1h-1z M98,65h1v1h-1z M99,65h1v1h-1z M100,65h1v1h-1z M102,65h1v1h-1z M103,65h1v1h-1z M107,65h1v1h-1z M5,66h1v1h-1z M6,66h1v1h-1z M9,66h1v1h-1z M10,66h1v1h-1z M11,66h1v1h-1z M12,66h1v1h-1z M13,66h1v1h-1z M14,66h1v1h-1z M16,66h1v1h-1z M17,66h1v1h-1z M19,66h1v1h-1z M21,66h1v1h-1z M23,66h1v1h-1z M24,66h1v1h-1z M26,66h1v1h-1z M31,66h1v1h-1z M32,66h1v1h-1z M36,66h1v1h-1z M38,66h1v1h-1z M39,66h1v1h-1z M43,66h1v1h-1z M45,66h1v1h-1z M48,66h1v1h-1z M50,66h1v1h-1z M54,66h1v1h-1z M55,66h1v1h-1z M59,66h1v1h-1z M62,66h1v1h-1z M64,66h1v1h-1z M65,66h1v1h-1z M67,66h1v1h-1z M68,66h1v1h-1z M71,66h1v1h-1z M72,66h1v1h-1z M74,66h1v1h-1z M78,66h1v1h-1z M81,66h1v1h-1z M83,66h1v1h-1z M84,66h1v1h-1z M86,66h1v1h-1z M87,66h1v1h-1z M88,66h1v1h-1z M92,66h1v1h-1z M95,66h1v1h-1z M98,66h1v1h-1z M104,66h1v1h-1z M105,66h1v1h-1z M107,66h1v1h-1z M4,67h1v1h-1z M6,67h1v1h-1z M8,67h1v1h-1z M9,67h1v1h-1z M11,67h1v1h-1z M12,67h1v1h-1z M14,67h1v1h-1z M15,67h1v1h-1z M18,67h1v1h-1z M19,67h1v1h-1z M20,67h1v1h-1z M25,67h1v1h-1z M28,67h1v1h-1z M29,67h1v1h-1z M32,67h1v1h-1z M33,67h1v1h-1z M38,67h1v1h-1z M41,67h1v1h-1z M42,67h1v1h-1z M44,67h1v1h-1z M46,67h1v1h-1z M47,67h1v1h-1z M52,67h1v1h-1z M53,67h1v1h-1z M56,67h1v1h-1z M57,67h1v1h-1z M58,67h1v1h-1z M59,67h1v1h-1z M68,67h1v1h-1z M69,67h1v1h-1z M71,67h1v1h-1z M76,67h1v1h-1z M77,67h1v1h-1z M80,67h1v1h-1z M82,67h1v1h-1z M89,67h1v1h-1z M90,67h1v1h-1z M92,67h1v1h-1z M93,67h1v1h-1z M95,67h1v1h-1z M98,67h1v1h-1z M99,67h1v1h-1z M100,67h1v1h-1z M101,67h1v1h-1z M103,67h1v1h-1z M105,67h1v1h-1z M5,68h1v1h-1z M7,68h1v1h-1z M8,68h1v1h-1z M9,68h1v1h-1z M10,68h1v1h-1z M14,68h1v1h-1z M21,68h1v1h-1z M22,68h1v1h-1z M24,68h1v1h-1z M28,68h1v1h-1z M29,68h1v1h-1z M30,68h1v1h-1z M34,68h1v1h-1z M37,68h1v1h-1z M39,68h1v1h-1z M42,68h1v1h-1z M45,68h1v1h-1z M46,68h1v1h-1z M49,68h1v1h-1z M50,68h1v1h-1z M52,68h1v1h-1z M54,68h1v1h-1z M56,68h1v1h-1z M57,68h1v1h-1z M58,68h1v1h-1z M60,68h1v1h-1z M62,68h1v1h-1z M63,68h1v1h-1z M64,68h1v1h-1z M66,68h1v1h-1z M68,68h1v1h-1z M69,68h1v1h-1z M71,68h1v1h-1z M73,68h1v1h-1z M75,68h1v1h-1z M76,68h1v1h-1z M78,68h1v1h-1z M79,68h1v1h-1z M80,68h1v1h-1z M82,68h1v1h-1z M83,68h1v1h-1z M86,68h1v1h-1z M87,68h1v1h-1z M88,68h1v1h-1z M89,68h1v1h-1z M93,68h1v1h-1z M94,68h1v1h-1z M95,68h1v1h-1z M96,68h1v1h-1z M98,68h1v1h-1z M103,68h1v1h-1z M105,68h1v1h-1z M6,69h1v1h-1z M12,69h1v1h-1z M14,69h1v1h-1z M15,69h1v1h-1z M18,69h1v1h-1z M19,69h1v1h-1z M22,69h1v1h-1z M26,69h1v1h-1z M28,69h1v1h-1z M29,69h1v1h-1z M31,69h1v1h-1z M40,69h1v1h-1z M41,69h1v1h-1z M43,69h1v1h-1z M44,69h1v1h-1z M48,69h1v1h-1z M49,69h1v1h-1z M50,69h1v1h-1z M51,69h1v1h-1z M52,69h1v1h-1z M53,69h1v1h-1z M55,69h1v1h-1z M57,69h1v1h-1z M61,69h1v1h-1z M65,69h1v1h-1z M67,69h1v1h-1z M68,69h1v1h-1z M71,69h1v1h-1z M72,69h1v1h-1z M74,69h1v1h-1z M75,69h1v1h-1z M76,69h1v1h-1z M77,69h1v1h-1z M82,69h1v1h-1z M83,69h1v1h-1z M84,69h1v1h-1z M86,69h1v1h-1z M87,69h1v1h-1z M88,69h1v1h-1z M91,69h1v1h-1z M93,69h1v1h-1z M95,69h1v1h-1z M96,69h1v1h-1z M97,69h1v1h-1z M98,69h1v1h-1z M99,69h1v1h-1z M100,69h1v1h-1z M102,69h1v1h-1z M107,69h1v1h-1z M4,70h1v1h-1z M5,70h1v1h-1z M6,70h1v1h-1z M9,70h1v1h-1z M10,70h1v1h-1z M11,70h1v1h-1z M12,70h1v1h-1z M14,70h1v1h-1z M16,70h1v1h-1z M17,70h1v1h-1z M20,70h1v1h-1z M22,70h1v1h-1z M38,70h1v1h-1z M40,70h1v1h-1z M41,70h1v1h-1z M49,70h1v1h-1z M50,70h1v1h-1z M53,70h1v1h-1z M54,70h1v1h-1z M55,70h1v1h-1z M56,70h1v1h-1z M60,70h1v1h-1z M62,70h1v1h-1z M64,70h1v1h-1z M65,70h1v1h-1z M67,70h1v1h-1z M72,70h1v1h-1z M74,70h1v1h-1z M78,70h1v1h-1z M79,70h1v1h-1z M84,70h1v1h-1z M86,70h1v1h-1z M87,70h1v1h-1z M88,70h1v1h-1z M89,70h1v1h-1z M95,70h1v1h-1z M96,70h1v1h-1z M98,70h1v1h-1z M100,70h1v1h-1z M102,70h1v1h-1z M104,70h1v1h-1z M106,70h1v1h-1z M107,70h1v1h-1z M108,70h1v1h-1z M5,71h1v1h-1z M6,71h1v1h-1z M7,71h1v1h-1z M8,71h1v1h-1z M9,71h1v1h-1z M11,71h1v1h-1z M13,71h1v1h-1z M14,71h1v1h-1z M15,71h1v1h-1z M17,71h1v1h-1z M18,71h1v1h-1z M22,71h1v1h-1z M26,71h1v1h-1z M28,71h1v1h-1z M31,71h1v1h-1z M33,71h1v1h-1z M35,71h1v1h-1z M37,71h1v1h-1z M39,71h1v1h-1z M42,71h1v1h-1z M43,71h1v1h-1z M44,71h1v1h-1z M45,71h1v1h-1z M47,71h1v1h-1z M51,71h1v1h-1z M52,71h1v1h-1z M53,71h1v1h-1z M55,71h1v1h-1z M57,71h1v1h-1z M58,71h1v1h-1z M59,71h1v1h-1z M61,71h1v1h-1z M68,71h1v1h-1z M69,71h1v1h-1z M73,71h1v1h-1z M74,71h1v1h-1z M76,71h1v1h-1z M79,71h1v1h-1z M80,71h1v1h-1z M82,71h1v1h-1z M83,71h1v1h-1z M87,71h1v1h-1z M89,71h1v1h-1z M92,71h1v1h-1z M93,71h1v1h-1z M94,71h1v1h-1z M98,71h1v1h-1z M99,71h1v1h-1z M101,71h1v1h-1z M103,71h1v1h-1z M107,71h1v1h-1z M108,71h1v1h-1z M5,72h1v1h-1z M6,72h1v1h-1z M7,72h1v1h-1z M8,72h1v1h-1z M9,72h1v1h-1z M10,72h1v1h-1z M11,72h1v1h-1z M17,72h1v1h-1z M18,72h1v1h-1z M20,72h1v1h-1z M24,72h1v1h-1z M25,72h1v1h-1z M27,72h1v1h-1z M28,72h1v1h-1z M30,72h1v1h-1z M31,72h1v1h-1z M33,72h1v1h-1z M36,72h1v1h-1z M38,72h1v1h-1z M39,72h1v1h-1z M43,72h1v1h-1z M49,72h1v1h-1z M53,72h1v1h-1z M54,72h1v1h-1z M55,72h1v1h-1z M56,72h1v1h-1z M57,72h1v1h-1z M58,72h1v1h-1z M62,72h1v1h-1z M63,72h1v1h-1z M64,72h1v1h-1z M66,72h1v1h-1z M69,72h1v1h-1z M70,72h1v1h-1z M71,72h1v1h-1z M75,72h1v1h-1z M78,72h1v1h-1z M79,72h1v1h-1z M80,72h1v1h-1z M83,72h1v1h-1z M84,72h1v1h-1z M86,72h1v1h-1z M87,72h1v1h-1z M89,72h1v1h-1z M91,72h1v1h-1z M94,72h1v1h-1z M96,72h1v1h-1z M98,72h1v1h-1z M101,72h1v1h-1z M103,72h1v1h-1z M107,72h1v1h-1z M108,72h1v1h-1z M6,73h1v1h-1z M7,73h1v1h-1z M13,73h1v1h-1z M14,73h1v1h-1z M15,73h1v1h-1z M16,73h1v1h-1z M18,73h1v1h-1z M19,73h1v1h-1z M20,73h1v1h-1z M24,73h1v1h-1z M27,73h1v1h-1z M29,73h1v1h-1z M31,73h1v1h-1z M33,73h1v1h-1z M34,73h1v1h-1z M36,73h1v1h-1z M40,73h1v1h-1z M42,73h1v1h-1z M44,73h1v1h-1z M46,73h1v1h-1z M47,73h1v1h-1z M48,73h1v1h-1z M50,73h1v1h-1z M52,73h1v1h-1z M53,73h1v1h-1z M58,73h1v1h-1z M59,73h1v1h-1z M62,73h1v1h-1z M64,73h1v1h-1z M65,73h1v1h-1z M67,73h1v1h-1z M68,73h1v1h-1z M70,73h1v1h-1z M72,73h1v1h-1z M74,73h1v1h-1z M75,73h1v1h-1z M76,73h1v1h-1z M77,73h1v1h-1z M79,73h1v1h-1z M81,73h1v1h-1z M83,73h1v1h-1z M86,73h1v1h-1z M87,73h1v1h-1z M88,73h1v1h-1z M90,73h1v1h-1z M93,73h1v1h-1z M96,73h1v1h-1z M98,73h1v1h-1z M99,73h1v1h-1z M100,73h1v1h-1z M102,73h1v1h-1z M105,73h1v1h-1z M106,73h1v1h-1z M6,74h1v1h-1z M8,74h1v1h-1z M10,74h1v1h-1z M11,74h1v1h-1z M12,74h1v1h-1z M17,74h1v1h-1z M18,74h1v1h-1z M20,74h1v1h-1z M21,74h1v1h-1z M23,74h1v1h-1z M24,74h1v1h-1z M29,74h1v1h-1z M30,74h1v1h-1z M31,74h1v1h-1z M32,74h1v1h-1z M33,74h1v1h-1z M38,74h1v1h-1z M40,74h1v1h-1z M41,74h1v1h-1z M48,74h1v1h-1z M50,74h1v1h-1z M56,74h1v1h-1z M60,74h1v1h-1z M62,74h1v1h-1z M63,74h1v1h-1z M64,74h1v1h-1z M65,74h1v1h-1z M67,74h1v1h-1z M72,74h1v1h-1z M74,74h1v1h-1z M77,74h1v1h-1z M83,74h1v1h-1z M84,74h1v1h-1z M85,74h1v1h-1z M86,74h1v1h-1z M87,74h1v1h-1z M89,74h1v1h-1z M98,74h1v1h-1z M100,74h1v1h-1z M102,74h1v1h-1z M104,74h1v1h-1z M106,74h1v1h-1z M107,74h1v1h-1z M7,75h1v1h-1z M8,75h1v1h-1z M9,75h1v1h-1z M11,75h1v1h-1z M13,75h1v1h-1z M17,75h1v1h-1z M19,75h1v1h-1z M20,75h1v1h-1z M21,75h1v1h-1z M23,75h1v1h-1z M24,75h1v1h-1z M27,75h1v1h-1z M28,75h1v1h-1z M31,75h1v1h-1z M34,75h1v1h-1z M35,75h1v1h-1z M37,75h1v1h-1z M38,75h1v1h-1z M43,75h1v1h-1z M44,75h1v1h-1z M50,75h1v1h-1z M51,75h1v1h-1z M54,75h1v1h-1z M56,75h1v1h-1z M58,75h1v1h-1z M59,75h1v1h-1z M61,75h1v1h-1z M66,75h1v1h-1z M68,75h1v1h-1z M69,75h1v1h-1z M71,75h1v1h-1z M75,75h1v1h-1z M77,75h1v1h-1z M79,75h1v1h-1z M80,75h1v1h-1z M82,75h1v1h-1z M83,75h1v1h-1z M85,75h1v1h-1z M91,75h1v1h-1z M92,75h1v1h-1z M95,75h1v1h-1z M97,75h1v1h-1z M99,75h1v1h-1z M100,75h1v1h-1z M101,75h1v1h-1z M102,75h1v1h-1z M103,75h1v1h-1z M104,75h1v1h-1z M108,75h1v1h-1z M4,76h1v1h-1z M5,76h1v1h-1z M8,76h1v1h-1z M9,76h1v1h-1z M10,76h1v1h-1z M11,76h1v1h-1z M12,76h1v1h-1z M19,76h1v1h-1z M20,76h1v1h-1z M21,76h1v1h-1z M22,76h1v1h-1z M23,76h1v1h-1z M26,76h1v1h-1z M28,76h1v1h-1z M29,76h1v1h-1z M30,76h1v1h-1z M31,76h1v1h-1z M32,76h1v1h-1z M33,76h1v1h-1z M34,76h1v1h-1z M41,76h1v1h-1z M43,76h1v1h-1z M44,76h1v1h-1z M45,76h1v1h-1z M49,76h1v1h-1z M50,76h1v1h-1z M52,76h1v1h-1z M53,76h1v1h-1z M54,76h1v1h-1z M55,76h1v1h-1z M56,76h1v1h-1z M59,76h1v1h-1z M62,76h1v1h-1z M64,76h1v1h-1z M66,76h1v1h-1z M71,76h1v1h-1z M72,76h1v1h-1z M74,76h1v1h-1z M76,76h1v1h-1z M77,76h1v1h-1z M78,76h1v1h-1z M79,76h1v1h-1z M80,76h1v1h-1z M81,76h1v1h-1z M82,76h1v1h-1z M85,76h1v1h-1z M87,76h1v1h-1z M88,76h1v1h-1z M92,76h1v1h-1z M93,76h1v1h-1z M97,76h1v1h-1z M100,76h1v1h-1z M101,76h1v1h-1z M102,76h1v1h-1z M103,76h1v1h-1z M104,76h1v1h-1z M106,76h1v1h-1z M107,76h1v1h-1z M108,76h1v1h-1z M5,77h1v1h-1z M7,77h1v1h-1z M8,77h1v1h-1z M12,77h1v1h-1z M18,77h1v1h-1z M20,77h1v1h-1z M22,77h1v1h-1z M28,77h1v1h-1z M32,77h1v1h-1z M36,77h1v1h-1z M37,77h1v1h-1z M38,77h1v1h-1z M39,77h1v1h-1z M41,77h1v1h-1z M42,77h1v1h-1z M46,77h1v1h-1z M47,77h1v1h-1z M48,77h1v1h-1z M49,77h1v1h-1z M50,77h1v1h-1z M51,77h1v1h-1z M52,77h1v1h-1z M56,77h1v1h-1z M57,77h1v1h-1z M58,77h1v1h-1z M60,77h1v1h-1z M63,77h1v1h-1z M64,77h1v1h-1z M65,77h1v1h-1z M68,77h1v1h-1z M69,77h1v1h-1z M72,77h1v1h-1z M73,77h1v1h-1z M76,77h1v1h-1z M80,77h1v1h-1z M83,77h1v1h-1z M92,77h1v1h-1z M95,77h1v1h-1z M96,77h1v1h-1z M98,77h1v1h-1z M100,77h1v1h-1z M104,77h1v1h-1z M6,78h1v1h-1z M8,78h1v1h-1z M10,78h1v1h-1z M12,78h1v1h-1z M14,78h1v1h-1z M15,78h1v1h-1z M17,78h1v1h-1z M20,78h1v1h-1z M23,78h1v1h-1z M24,78h1v1h-1z M26,78h1v1h-1z M28,78h1v1h-1z M30,78h1v1h-1z M32,78h1v1h-1z M38,78h1v1h-1z M40,78h1v1h-1z M41,78h1v1h-1z M48,78h1v1h-1z M50,78h1v1h-1z M52,78h1v1h-1z M54,78h1v1h-1z M56,78h1v1h-1z M60,78h1v1h-1z M62,78h1v1h-1z M64,78h1v1h-1z M65,78h1v1h-1z M69,78h1v1h-1z M72,78h1v1h-1z M73,78h1v1h-1z M74,78h1v1h-1z M76,78h1v1h-1z M78,78h1v1h-1z M80,78h1v1h-1z M83,78h1v1h-1z M85,78h1v1h-1z M86,78h1v1h-1z M88,78h1v1h-1z M89,78h1v1h-1z M98,78h1v1h-1z M100,78h1v1h-1z M102,78h1v1h-1z M104,78h1v1h-1z M105,78h1v1h-1z M4,79h1v1h-1z M5,79h1v1h-1z M8,79h1v1h-1z M12,79h1v1h-1z M13,79h1v1h-1z M14,79h1v1h-1z M15,79h1v1h-1z M18,79h1v1h-1z M22,79h1v1h-1z M27,79h1v1h-1z M28,79h1v1h-1z M32,79h1v1h-1z M34,79h1v1h-1z M35,79h1v1h-1z M38,79h1v1h-1z M39,79h1v1h-1z M41,79h1v1h-1z M43,79h1v1h-1z M44,79h1v1h-1z M49,79h1v1h-1z M51,79h1v1h-1z M52,79h1v1h-1z M56,79h1v1h-1z M57,79h1v1h-1z M58,79h1v1h-1z M59,79h1v1h-1z M61,79h1v1h-1z M62,79h1v1h-1z M68,79h1v1h-1z M70,79h1v1h-1z M71,79h1v1h-1z M76,79h1v1h-1z M80,79h1v1h-1z M83,79h1v1h-1z M90,79h1v1h-1z M91,79h1v1h-1z M92,79h1v1h-1z M95,79h1v1h-1z M99,79h1v1h-1z M100,79h1v1h-1z M104,79h1v1h-1z M5,80h1v1h-1z M7,80h1v1h-1z M8,80h1v1h-1z M9,80h1v1h-1z M10,80h1v1h-1z M11,80h1v1h-1z M12,80h1v1h-1z M13,80h1v1h-1z M16,80h1v1h-1z M20,80h1v1h-1z M22,80h1v1h-1z M25,80h1v1h-1z M26,80h1v1h-1z M27,80h1v1h-1z M28,80h1v1h-1z M29,80h1v1h-1z M30,80h1v1h-1z M31,80h1v1h-1z M32,80h1v1h-1z M36,80h1v1h-1z M37,80h1v1h-1z M39,80h1v1h-1z M40,80h1v1h-1z M41,80h1v1h-1z M43,80h1v1h-1z M45,80h1v1h-1z M46,80h1v1h-1z M47,80h1v1h-1z M48,80h1v1h-1z M50,80h1v1h-1z M51,80h1v1h-1z M52,80h1v1h-1z M53,80h1v1h-1z M54,80h1v1h-1z M55,80h1v1h-1z M56,80h1v1h-1z M57,80h1v1h-1z M59,80h1v1h-1z M60,80h1v1h-1z M61,80h1v1h-1z M62,80h1v1h-1z M66,80h1v1h-1z M67,80h1v1h-1z M68,80h1v1h-1z M70,80h1v1h-1z M71,80h1v1h-1z M74,80h1v1h-1z M76,80h1v1h-1z M77,80h1v1h-1z M78,80h1v1h-1z M79,80h1v1h-1z M80,80h1v1h-1z M82,80h1v1h-1z M83,80h1v1h-1z M86,80h1v1h-1z M87,80h1v1h-1z M89,80h1v1h-1z M90,80h1v1h-1z M91,80h1v1h-1z M96,80h1v1h-1z M97,80h1v1h-1z M99,80h1v1h-1z M100,80h1v1h-1z M101,80h1v1h-1z M102,80h1v1h-1z M103,80h1v1h-1z M104,80h1v1h-1z M105,80h1v1h-1z M108,80h1v1h-1z M4,81h1v1h-1z M5,81h1v1h-1z M7,81h1v1h-1z M15,81h1v1h-1z M17,81h1v1h-1z M20,81h1v1h-1z M21,81h1v1h-1z M22,81h1v1h-1z M23,81h1v1h-1z M24,81h1v1h-1z M25,81h1v1h-1z M29,81h1v1h-1z M30,81h1v1h-1z M31,81h1v1h-1z M33,81h1v1h-1z M36,81h1v1h-1z M38,81h1v1h-1z M41,81h1v1h-1z M42,81h1v1h-1z M44,81h1v1h-1z M45,81h1v1h-1z M48,81h1v1h-1z M52,81h1v1h-1z M54,81h1v1h-1z M56,81h1v1h-1z M60,81h1v1h-1z M61,81h1v1h-1z M64,81h1v1h-1z M65,81h1v1h-1z M67,81h1v1h-1z M68,81h1v1h-1z M78,81h1v1h-1z M79,81h1v1h-1z M81,81h1v1h-1z M87,81h1v1h-1z M88,81h1v1h-1z M89,81h1v1h-1z M90,81h1v1h-1z M92,81h1v1h-1z M94,81h1v1h-1z M96,81h1v1h-1z M99,81h1v1h-1z M103,81h1v1h-1z M105,81h1v1h-1z M106,81h1v1h-1z M4,82h1v1h-1z M6,82h1v1h-1z M10,82h1v1h-1z M11,82h1v1h-1z M12,82h1v1h-1z M15,82h1v1h-1z M21,82h1v1h-1z M23,82h1v1h-1z M29,82h1v1h-1z M30,82h1v1h-1z M32,82h1v1h-1z M38,82h1v1h-1z M39,82h1v1h-1z M40,82h1v1h-1z M43,82h1v1h-1z M44,82h1v1h-1z M47,82h1v1h-1z M48,82h1v1h-1z M50,82h1v1h-1z M51,82h1v1h-1z M56,82h1v1h-1z M62,82h1v1h-1z M74,82h1v1h-1z M75,82h1v1h-1z M80,82h1v1h-1z M84,82h1v1h-1z M86,82h1v1h-1z M87,82h1v1h-1z M91,82h1v1h-1z M95,82h1v1h-1z M98,82h1v1h-1z M99,82h1v1h-1z M100,82h1v1h-1z M101,82h1v1h-1z M103,82h1v1h-1z M104,82h1v1h-1z M106,82h1v1h-1z M6,83h1v1h-1z M8,83h1v1h-1z M9,83h1v1h-1z M11,83h1v1h-1z M12,83h1v1h-1z M14,83h1v1h-1z M15,83h1v1h-1z M19,83h1v1h-1z M20,83h1v1h-1z M21,83h1v1h-1z M23,83h1v1h-1z M24,83h1v1h-1z M25,83h1v1h-1z M26,83h1v1h-1z M27,83h1v1h-1z M29,83h1v1h-1z M32,83h1v1h-1z M33,83h1v1h-1z M35,83h1v1h-1z M37,83h1v1h-1z M38,83h1v1h-1z M41,83h1v1h-1z M42,83h1v1h-1z M44,83h1v1h-1z M45,83h1v1h-1z M46,83h1v1h-1z M47,83h1v1h-1z M50,83h1v1h-1z M51,83h1v1h-1z M54,83h1v1h-1z M55,83h1v1h-1z M56,83h1v1h-1z M57,83h1v1h-1z M58,83h1v1h-1z M59,83h1v1h-1z M62,83h1v1h-1z M65,83h1v1h-1z M66,83h1v1h-1z M67,83h1v1h-1z M68,83h1v1h-1z M71,83h1v1h-1z M78,83h1v1h-1z M81,83h1v1h-1z M83,83h1v1h-1z M85,83h1v1h-1z M90,83h1v1h-1z M92,83h1v1h-1z M94,83h1v1h-1z M95,83h1v1h-1z M98,83h1v1h-1z M99,83h1v1h-1z M100,83h1v1h-1z M102,83h1v1h-1z M104,83h1v1h-1z M8,84h1v1h-1z M9,84h1v1h-1z M10,84h1v1h-1z M12,84h1v1h-1z M13,84h1v1h-1z M17,84h1v1h-1z M18,84h1v1h-1z M22,84h1v1h-1z M23,84h1v1h-1z M25,84h1v1h-1z M26,84h1v1h-1z M27,84h1v1h-1z M30,84h1v1h-1z M34,84h1v1h-1z M35,84h1v1h-1z M38,84h1v1h-1z M40,84h1v1h-1z M42,84h1v1h-1z M43,84h1v1h-1z M44,84h1v1h-1z M45,84h1v1h-1z M47,84h1v1h-1z M48,84h1v1h-1z M49,84h1v1h-1z M51,84h1v1h-1z M55,84h1v1h-1z M58,84h1v1h-1z M62,84h1v1h-1z M64,84h1v1h-1z M66,84h1v1h-1z M67,84h1v1h-1z M69,84h1v1h-1z M70,84h1v1h-1z M77,84h1v1h-1z M78,84h1v1h-1z M79,84h1v1h-1z M80,84h1v1h-1z M87,84h1v1h-1z M88,84h1v1h-1z M89,84h1v1h-1z M91,84h1v1h-1z M93,84h1v1h-1z M94,84h1v1h-1z M96,84h1v1h-1z M101,84h1v1h-1z M102,84h1v1h-1z M103,84h1v1h-1z M104,84h1v1h-1z M108,84h1v1h-1z M4,85h1v1h-1z M5,85h1v1h-1z M7,85h1v1h-1z M8,85h1v1h-1z M12,85h1v1h-1z M13,85h1v1h-1z M14,85h1v1h-1z M19,85h1v1h-1z M20,85h1v1h-1z M25,85h1v1h-1z M28,85h1v1h-1z M30,85h1v1h-1z M35,85h1v1h-1z M38,85h1v1h-1z M44,85h1v1h-1z M45,85h1v1h-1z M47,85h1v1h-1z M52,85h1v1h-1z M54,85h1v1h-1z M55,85h1v1h-1z M56,85h1v1h-1z M57,85h1v1h-1z M60,85h1v1h-1z M62,85h1v1h-1z M64,85h1v1h-1z M66,85h1v1h-1z M68,85h1v1h-1z M69,85h1v1h-1z M71,85h1v1h-1z M73,85h1v1h-1z M74,85h1v1h-1z M76,85h1v1h-1z M78,85h1v1h-1z M80,85h1v1h-1z M84,85h1v1h-1z M85,85h1v1h-1z M88,85h1v1h-1z M89,85h1v1h-1z M90,85h1v1h-1z M91,85h1v1h-1z M96,85h1v1h-1z M97,85h1v1h-1z M100,85h1v1h-1z M102,85h1v1h-1z M103,85h1v1h-1z M105,85h1v1h-1z M107,85h1v1h-1z M108,85h1v1h-1z M4,86h1v1h-1z M8,86h1v1h-1z M9,86h1v1h-1z M10,86h1v1h-1z M12,86h1v1h-1z M14,86h1v1h-1z M15,86h1v1h-1z M16,86h1v1h-1z M19,86h1v1h-1z M20,86h1v1h-1z M23,86h1v1h-1z M25,86h1v1h-1z M26,86h1v1h-1z M32,86h1v1h-1z M33,86h1v1h-1z M38,86h1v1h-1z M39,86h1v1h-1z M41,86h1v1h-1z M43,86h1v1h-1z M48,86h1v1h-1z M50,86h1v1h-1z M52,86h1v1h-1z M53,86h1v1h-1z M55,86h1v1h-1z M56,86h1v1h-1z M57,86h1v1h-1z M59,86h1v1h-1z M62,86h1v1h-1z M64,86h1v1h-1z M65,86h1v1h-1z M67,86h1v1h-1z M74,86h1v1h-1z M76,86h1v1h-1z M80,86h1v1h-1z M86,86h1v1h-1z M89,86h1v1h-1z M92,86h1v1h-1z M95,86h1v1h-1z M96,86h1v1h-1z M97,86h1v1h-1z M98,86h1v1h-1z M100,86h1v1h-1z M105,86h1v1h-1z M107,86h1v1h-1z M4,87h1v1h-1z M5,87h1v1h-1z M7,87h1v1h-1z M9,87h1v1h-1z M11,87h1v1h-1z M14,87h1v1h-1z M15,87h1v1h-1z M16,87h1v1h-1z M19,87h1v1h-1z M21,87h1v1h-1z M22,87h1v1h-1z M25,87h1v1h-1z M27,87h1v1h-1z M30,87h1v1h-1z M34,87h1v1h-1z M35,87h1v1h-1z M37,87h1v1h-1z M38,87h1v1h-1z M42,87h1v1h-1z M44,87h1v1h-1z M45,87h1v1h-1z M47,87h1v1h-1z M49,87h1v1h-1z M50,87h1v1h-1z M51,87h1v1h-1z M52,87h1v1h-1z M53,87h1v1h-1z M55,87h1v1h-1z M58,87h1v1h-1z M59,87h1v1h-1z M63,87h1v1h-1z M66,87h1v1h-1z M68,87h1v1h-1z M69,87h1v1h-1z M71,87h1v1h-1z M75,87h1v1h-1z M76,87h1v1h-1z M80,87h1v1h-1z M81,87h1v1h-1z M82,87h1v1h-1z M83,87h1v1h-1z M85,87h1v1h-1z M86,87h1v1h-1z M89,87h1v1h-1z M92,87h1v1h-1z M93,87h1v1h-1z M95,87h1v1h-1z M99,87h1v1h-1z M100,87h1v1h-1z M101,87h1v1h-1z M102,87h1v1h-1z M103,87h1v1h-1z M104,87h1v1h-1z M108,87h1v1h-1z M6,88h1v1h-1z M7,88h1v1h-1z M8,88h1v1h-1z M10,88h1v1h-1z M12,88h1v1h-1z M14,88h1v1h-1z M15,88h1v1h-1z M22,88h1v1h-1z M23,88h1v1h-1z M24,88h1v1h-1z M25,88h1v1h-1z M33,88h1v1h-1z M34,88h1v1h-1z M36,88h1v1h-1z M38,88h1v1h-1z M39,88h1v1h-1z M40,88h1v1h-1z M41,88h1v1h-1z M43,88h1v1h-1z M45,88h1v1h-1z M47,88h1v1h-1z M48,88h1v1h-1z M50,88h1v1h-1z M53,88h1v1h-1z M54,88h1v1h-1z M55,88h1v1h-1z M58,88h1v1h-1z M60,88h1v1h-1z M62,88h1v1h-1z M63,88h1v1h-1z M65,88h1v1h-1z M67,88h1v1h-1z M69,88h1v1h-1z M71,88h1v1h-1z M72,88h1v1h-1z M75,88h1v1h-1z M76,88h1v1h-1z M78,88h1v1h-1z M79,88h1v1h-1z M80,88h1v1h-1z M83,88h1v1h-1z M84,88h1v1h-1z M90,88h1v1h-1z M92,88h1v1h-1z M96,88h1v1h-1z M100,88h1v1h-1z M101,88h1v1h-1z M107,88h1v1h-1z M108,88h1v1h-1z M5,89h1v1h-1z M6,89h1v1h-1z M8,89h1v1h-1z M13,89h1v1h-1z M14,89h1v1h-1z M15,89h1v1h-1z M17,89h1v1h-1z M20,89h1v1h-1z M23,89h1v1h-1z M30,89h1v1h-1z M31,89h1v1h-1z M35,89h1v1h-1z M36,89h1v1h-1z M41,89h1v1h-1z M42,89h1v1h-1z M43,89h1v1h-1z M44,89h1v1h-1z M48,89h1v1h-1z M52,89h1v1h-1z M54,89h1v1h-1z M56,89h1v1h-1z M58,89h1v1h-1z M59,89h1v1h-1z M60,89h1v1h-1z M62,89h1v1h-1z M63,89h1v1h-1z M64,89h1v1h-1z M65,89h1v1h-1z M66,89h1v1h-1z M67,89h1v1h-1z M70,89h1v1h-1z M72,89h1v1h-1z M74,89h1v1h-1z M78,89h1v1h-1z M80,89h1v1h-1z M81,89h1v1h-1z M82,89h1v1h-1z M84,89h1v1h-1z M85,89h1v1h-1z M87,89h1v1h-1z M88,89h1v1h-1z M89,89h1v1h-1z M92,89h1v1h-1z M94,89h1v1h-1z M97,89h1v1h-1z M100,89h1v1h-1z M101,89h1v1h-1z M102,89h1v1h-1z M103,89h1v1h-1z M106,89h1v1h-1z M107,89h1v1h-1z M4,90h1v1h-1z M7,90h1v1h-1z M8,90h1v1h-1z M10,90h1v1h-1z M12,90h1v1h-1z M13,90h1v1h-1z M16,90h1v1h-1z M19,90h1v1h-1z M20,90h1v1h-1z M21,90h1v1h-1z M22,90h1v1h-1z M23,90h1v1h-1z M24,90h1v1h-1z M26,90h1v1h-1z M30,90h1v1h-1z M32,90h1v1h-1z M35,90h1v1h-1z M36,90h1v1h-1z M38,90h1v1h-1z M40,90h1v1h-1z M41,90h1v1h-1z M47,90h1v1h-1z M48,90h1v1h-1z M50,90h1v1h-1z M56,90h1v1h-1z M57,90h1v1h-1z M60,90h1v1h-1z M61,90h1v1h-1z M62,90h1v1h-1z M63,90h1v1h-1z M65,90h1v1h-1z M69,90h1v1h-1z M71,90h1v1h-1z M72,90h1v1h-1z M74,90h1v1h-1z M76,90h1v1h-1z M78,90h1v1h-1z M80,90h1v1h-1z M85,90h1v1h-1z M86,90h1v1h-1z M87,90h1v1h-1z M88,90h1v1h-1z M89,90h1v1h-1z M91,90h1v1h-1z M95,90h1v1h-1z M98,90h1v1h-1z M99,90h1v1h-1z M101,90h1v1h-1z M104,90h1v1h-1z M106,90h1v1h-1z M107,90h1v1h-1z M5,91h1v1h-1z M6,91h1v1h-1z M13,91h1v1h-1z M14,91h1v1h-1z M15,91h1v1h-1z M16,91h1v1h-1z M17,91h1v1h-1z M19,91h1v1h-1z M21,91h1v1h-1z M22,91h1v1h-1z M24,91h1v1h-1z M26,91h1v1h-1z M29,91h1v1h-1z M30,91h1v1h-1z M33,91h1v1h-1z M37,91h1v1h-1z M38,91h1v1h-1z M43,91h1v1h-1z M44,91h1v1h-1z M45,91h1v1h-1z M47,91h1v1h-1z M51,91h1v1h-1z M53,91h1v1h-1z M54,91h1v1h-1z M55,91h1v1h-1z M58,91h1v1h-1z M68,91h1v1h-1z M70,91h1v1h-1z M71,91h1v1h-1z M73,91h1v1h-1z M74,91h1v1h-1z M76,91h1v1h-1z M79,91h1v1h-1z M81,91h1v1h-1z M82,91h1v1h-1z M83,91h1v1h-1z M90,91h1v1h-1z M92,91h1v1h-1z M93,91h1v1h-1z M95,91h1v1h-1z M97,91h1v1h-1z M99,91h1v1h-1z M100,91h1v1h-1z M103,91h1v1h-1z M104,91h1v1h-1z M107,91h1v1h-1z M4,92h1v1h-1z M5,92h1v1h-1z M6,92h1v1h-1z M9,92h1v1h-1z M10,92h1v1h-1z M11,92h1v1h-1z M18,92h1v1h-1z M21,92h1v1h-1z M22,92h1v1h-1z M24,92h1v1h-1z M30,92h1v1h-1z M31,92h1v1h-1z M35,92h1v1h-1z M38,92h1v1h-1z M39,92h1v1h-1z M41,92h1v1h-1z M42,92h1v1h-1z M43,92h1v1h-1z M44,92h1v1h-1z M45,92h1v1h-1z M46,92h1v1h-1z M50,92h1v1h-1z M51,92h1v1h-1z M54,92h1v1h-1z M57,92h1v1h-1z M59,92h1v1h-1z M60,92h1v1h-1z M61,92h1v1h-1z M63,92h1v1h-1z M65,92h1v1h-1z M66,92h1v1h-1z M67,92h1v1h-1z M68,92h1v1h-1z M70,92h1v1h-1z M72,92h1v1h-1z M75,92h1v1h-1z M77,92h1v1h-1z M80,92h1v1h-1z M83,92h1v1h-1z M86,92h1v1h-1z M87,92h1v1h-1z M88,92h1v1h-1z M89,92h1v1h-1z M94,92h1v1h-1z M96,92h1v1h-1z M97,92h1v1h-1z M101,92h1v1h-1z M102,92h1v1h-1z M104,92h1v1h-1z M106,92h1v1h-1z M107,92h1v1h-1z M108,92h1v1h-1z M5,93h1v1h-1z M6,93h1v1h-1z M8,93h1v1h-1z M9,93h1v1h-1z M11,93h1v1h-1z M13,93h1v1h-1z M14,93h1v1h-1z M15,93h1v1h-1z M16,93h1v1h-1z M17,93h1v1h-1z M21,93h1v1h-1z M24,93h1v1h-1z M26,93h1v1h-1z M30,93h1v1h-1z M35,93h1v1h-1z M36,93h1v1h-1z M37,93h1v1h-1z M38,93h1v1h-1z M40,93h1v1h-1z M44,93h1v1h-1z M48,93h1v1h-1z M52,93h1v1h-1z M54,93h1v1h-1z M56,93h1v1h-1z M57,93h1v1h-1z M59,93h1v1h-1z M60,93h1v1h-1z M64,93h1v1h-1z M65,93h1v1h-1z M74,93h1v1h-1z M77,93h1v1h-1z M78,93h1v1h-1z M80,93h1v1h-1z M81,93h1v1h-1z M83,93h1v1h-1z M84,93h1v1h-1z M85,93h1v1h-1z M87,93h1v1h-1z M88,93h1v1h-1z M89,93h1v1h-1z M90,93h1v1h-1z M91,93h1v1h-1z M92,93h1v1h-1z M93,93h1v1h-1z M94,93h1v1h-1z M99,93h1v1h-1z M103,93h1v1h-1z M106,93h1v1h-1z M108,93h1v1h-1z M5,94h1v1h-1z M10,94h1v1h-1z M12,94h1v1h-1z M13,94h1v1h-1z M14,94h1v1h-1z M17,94h1v1h-1z M18,94h1v1h-1z M21,94h1v1h-1z M23,94h1v1h-1z M25,94h1v1h-1z M27,94h1v1h-1z M32,94h1v1h-1z M33,94h1v1h-1z M36,94h1v1h-1z M38,94h1v1h-1z M39,94h1v1h-1z M40,94h1v1h-1z M41,94h1v1h-1z M43,94h1v1h-1z M44,94h1v1h-1z M47,94h1v1h-1z M50,94h1v1h-1z M51,94h1v1h-1z M52,94h1v1h-1z M53,94h1v1h-1z M54,94h1v1h-1z M56,94h1v1h-1z M59,94h1v1h-1z M60,94h1v1h-1z M62,94h1v1h-1z M63,94h1v1h-1z M65,94h1v1h-1z M68,94h1v1h-1z M71,94h1v1h-1z M72,94h1v1h-1z M74,94h1v1h-1z M75,94h1v1h-1z M76,94h1v1h-1z M77,94h1v1h-1z M78,94h1v1h-1z M80,94h1v1h-1z M86,94h1v1h-1z M91,94h1v1h-1z M92,94h1v1h-1z M96,94h1v1h-1z M98,94h1v1h-1z M100,94h1v1h-1z M101,94h1v1h-1z M103,94h1v1h-1z M104,94h1v1h-1z M107,94h1v1h-1z M4,95h1v1h-1z M6,95h1v1h-1z M7,95h1v1h-1z M15,95h1v1h-1z M17,95h1v1h-1z M18,95h1v1h-1z M19,95h1v1h-1z M21,95h1v1h-1z M23,95h1v1h-1z M25,95h1v1h-1z M26,95h1v1h-1z M29,95h1v1h-1z M30,95h1v1h-1z M31,95h1v1h-1z M34,95h1v1h-1z M35,95h1v1h-1z M42,95h1v1h-1z M44,95h1v1h-1z M45,95h1v1h-1z M46,95h1v1h-1z M47,95h1v1h-1z M50,95h1v1h-1z M52,95h1v1h-1z M53,95h1v1h-1z M57,95h1v1h-1z M59,95h1v1h-1z M61,95h1v1h-1z M65,95h1v1h-1z M68,95h1v1h-1z M70,95h1v1h-1z M74,95h1v1h-1z M75,95h1v1h-1z M76,95h1v1h-1z M79,95h1v1h-1z M81,95h1v1h-1z M83,95h1v1h-1z M86,95h1v1h-1z M89,95h1v1h-1z M90,95h1v1h-1z M92,95h1v1h-1z M93,95h1v1h-1z M95,95h1v1h-1z M97,95h1v1h-1z M98,95h1v1h-1z M102,95h1v1h-1z M108,95h1v1h-1z M4,96h1v1h-1z M5,96h1v1h-1z M6,96h1v1h-1z M8,96h1v1h-1z M10,96h1v1h-1z M11,96h1v1h-1z M13,96h1v1h-1z M15,96h1v1h-1z M16,96h1v1h-1z M17,96h1v1h-1z M18,96h1v1h-1z M25,96h1v1h-1z M26,96h1v1h-1z M35,96h1v1h-1z M36,96h1v1h-1z M38,96h1v1h-1z M39,96h1v1h-1z M41,96h1v1h-1z M43,96h1v1h-1z M44,96h1v1h-1z M48,96h1v1h-1z M51,96h1v1h-1z M52,96h1v1h-1z M54,96h1v1h-1z M58,96h1v1h-1z M62,96h1v1h-1z M63,96h1v1h-1z M64,96h1v1h-1z M65,96h1v1h-1z M66,96h1v1h-1z M70,96h1v1h-1z M71,96h1v1h-1z M74,96h1v1h-1z M75,96h1v1h-1z M79,96h1v1h-1z M80,96h1v1h-1z M81,96h1v1h-1z M83,96h1v1h-1z M86,96h1v1h-1z M88,96h1v1h-1z M89,96h1v1h-1z M92,96h1v1h-1z M93,96h1v1h-1z M94,96h1v1h-1z M95,96h1v1h-1z M96,96h1v1h-1z M98,96h1v1h-1z M100,96h1v1h-1z M101,96h1v1h-1z M103,96h1v1h-1z M104,96h1v1h-1z M105,96h1v1h-1z M107,96h1v1h-1z M4,97h1v1h-1z M5,97h1v1h-1z M7,97h1v1h-1z M9,97h1v1h-1z M15,97h1v1h-1z M17,97h1v1h-1z M18,97h1v1h-1z M22,97h1v1h-1z M23,97h1v1h-1z M25,97h1v1h-1z M26,97h1v1h-1z M30,97h1v1h-1z M32,97h1v1h-1z M34,97h1v1h-1z M37,97h1v1h-1z M38,97h1v1h-1z M39,97h1v1h-1z M43,97h1v1h-1z M44,97h1v1h-1z M45,97h1v1h-1z M48,97h1v1h-1z M49,97h1v1h-1z M50,97h1v1h-1z M54,97h1v1h-1z M56,97h1v1h-1z M57,97h1v1h-1z M58,97h1v1h-1z M59,97h1v1h-1z M60,97h1v1h-1z M61,97h1v1h-1z M62,97h1v1h-1z M63,97h1v1h-1z M64,97h1v1h-1z M66,97h1v1h-1z M67,97h1v1h-1z M68,97h1v1h-1z M69,97h1v1h-1z M70,97h1v1h-1z M71,97h1v1h-1z M73,97h1v1h-1z M77,97h1v1h-1z M78,97h1v1h-1z M80,97h1v1h-1z M82,97h1v1h-1z M85,97h1v1h-1z M86,97h1v1h-1z M87,97h1v1h-1z M88,97h1v1h-1z M89,97h1v1h-1z M90,97h1v1h-1z M91,97h1v1h-1z M93,97h1v1h-1z M94,97h1v1h-1z M95,97h1v1h-1z M97,97h1v1h-1z M100,97h1v1h-1z M102,97h1v1h-1z M103,97h1v1h-1z M105,97h1v1h-1z M106,97h1v1h-1z M107,97h1v1h-1z M108,97h1v1h-1z M4,98h1v1h-1z M5,98h1v1h-1z M6,98h1v1h-1z M10,98h1v1h-1z M12,98h1v1h-1z M13,98h1v1h-1z M14,98h1v1h-1z M15,98h1v1h-1z M16,98h1v1h-1z M18,98h1v1h-1z M20,98h1v1h-1z M21,98h1v1h-1z M25,98h1v1h-1z M30,98h1v1h-1z M32,98h1v1h-1z M36,98h1v1h-1z M38,98h1v1h-1z M40,98h1v1h-1z M41,98h1v1h-1z M43,98h1v1h-1z M48,98h1v1h-1z M50,98h1v1h-1z M52,98h1v1h-1z M53,98h1v1h-1z M54,98h1v1h-1z M56,98h1v1h-1z M62,98h1v1h-1z M64,98h1v1h-1z M65,98h1v1h-1z M71,98h1v1h-1z M74,98h1v1h-1z M75,98h1v1h-1z M77,98h1v1h-1z M78,98h1v1h-1z M80,98h1v1h-1z M83,98h1v1h-1z M84,98h1v1h-1z M85,98h1v1h-1z M86,98h1v1h-1z M88,98h1v1h-1z M89,98h1v1h-1z M92,98h1v1h-1z M93,98h1v1h-1z M96,98h1v1h-1z M98,98h1v1h-1z M101,98h1v1h-1z M103,98h1v1h-1z M104,98h1v1h-1z M105,98h1v1h-1z M107,98h1v1h-1z M6,99h1v1h-1z M8,99h1v1h-1z M9,99h1v1h-1z M11,99h1v1h-1z M13,99h1v1h-1z M14,99h1v1h-1z M19,99h1v1h-1z M21,99h1v1h-1z M22,99h1v1h-1z M23,99h1v1h-1z M26,99h1v1h-1z M28,99h1v1h-1z M30,99h1v1h-1z M31,99h1v1h-1z M33,99h1v1h-1z M34,99h1v1h-1z M35,99h1v1h-1z M37,99h1v1h-1z M41,99h1v1h-1z M42,99h1v1h-1z M44,99h1v1h-1z M45,99h1v1h-1z M46,99h1v1h-1z M47,99h1v1h-1z M49,99h1v1h-1z M50,99h1v1h-1z M52,99h1v1h-1z M54,99h1v1h-1z M56,99h1v1h-1z M58,99h1v1h-1z M59,99h1v1h-1z M62,99h1v1h-1z M63,99h1v1h-1z M65,99h1v1h-1z M66,99h1v1h-1z M68,99h1v1h-1z M69,99h1v1h-1z M71,99h1v1h-1z M73,99h1v1h-1z M76,99h1v1h-1z M77,99h1v1h-1z M80,99h1v1h-1z M81,99h1v1h-1z M92,99h1v1h-1z M94,99h1v1h-1z M95,99h1v1h-1z M98,99h1v1h-1z M102,99h1v1h-1z M103,99h1v1h-1z M104,99h1v1h-1z M107,99h1v1h-1z M7,100h1v1h-1z M8,100h1v1h-1z M10,100h1v1h-1z M12,100h1v1h-1z M15,100h1v1h-1z M16,100h1v1h-1z M17,100h1v1h-1z M18,100h1v1h-1z M19,100h1v1h-1z M22,100h1v1h-1z M24,100h1v1h-1z M25,100h1v1h-1z M28,100h1v1h-1z M29,100h1v1h-1z M30,100h1v1h-1z M31,100h1v1h-1z M32,100h1v1h-1z M36,100h1v1h-1z M38,100h1v1h-1z M41,100h1v1h-1z M43,100h1v1h-1z M44,100h1v1h-1z M46,100h1v1h-1z M51,100h1v1h-1z M52,100h1v1h-1z M53,100h1v1h-1z M54,100h1v1h-1z M55,100h1v1h-1z M56,100h1v1h-1z M57,100h1v1h-1z M58,100h1v1h-1z M60,100h1v1h-1z M63,100h1v1h-1z M68,100h1v1h-1z M70,100h1v1h-1z M72,100h1v1h-1z M76,100h1v1h-1z M77,100h1v1h-1z M78,100h1v1h-1z M79,100h1v1h-1z M80,100h1v1h-1z M84,100h1v1h-1z M87,100h1v1h-1z M89,100h1v1h-1z M93,100h1v1h-1z M94,100h1v1h-1z M95,100h1v1h-1z M96,100h1v1h-1z M98,100h1v1h-1z M100,100h1v1h-1z M101,100h1v1h-1z M102,100h1v1h-1z M103,100h1v1h-1z M104,100h1v1h-1z M105,100h1v1h-1z M106,100h1v1h-1z M107,100h1v1h-1z M12,101h1v1h-1z M14,101h1v1h-1z M15,101h1v1h-1z M17,101h1v1h-1z M20,101h1v1h-1z M21,101h1v1h-1z M23,101h1v1h-1z M25,101h1v1h-1z M27,101h1v1h-1z M28,101h1v1h-1z M32,101h1v1h-1z M33,101h1v1h-1z M34,101h1v1h-1z M35,101h1v1h-1z M36,101h1v1h-1z M39,101h1v1h-1z M40,101h1v1h-1z M41,101h1v1h-1z M42,101h1v1h-1z M43,101h1v1h-1z M48,101h1v1h-1z M50,101h1v1h-1z M51,101h1v1h-1z M52,101h1v1h-1z M56,101h1v1h-1z M59,101h1v1h-1z M61,101h1v1h-1z M63,101h1v1h-1z M64,101h1v1h-1z M65,101h1v1h-1z M66,101h1v1h-1z M67,101h1v1h-1z M69,101h1v1h-1z M70,101h1v1h-1z M71,101h1v1h-1z M73,101h1v1h-1z M75,101h1v1h-1z M76,101h1v1h-1z M80,101h1v1h-1z M82,101h1v1h-1z M83,101h1v1h-1z M84,101h1v1h-1z M85,101h1v1h-1z M86,101h1v1h-1z M87,101h1v1h-1z M89,101h1v1h-1z M90,101h1v1h-1z M93,101h1v1h-1z M94,101h1v1h-1z M95,101h1v1h-1z M96,101h1v1h-1z M97,101h1v1h-1z M100,101h1v1h-1z M104,101h1v1h-1z M106,101h1v1h-1z M107,101h1v1h-1z M108,101h1v1h-1z M4,102h1v1h-1z M5,102h1v1h-1z M6,102h1v1h-1z M7,102h1v1h-1z M8,102h1v1h-1z M9,102h1v1h-1z M10,102h1v1h-1z M13,102h1v1h-1z M14,102h1v1h-1z M19,102h1v1h-1z M20,102h1v1h-1z M22,102h1v1h-1z M23,102h1v1h-1z M27,102h1v1h-1z M28,102h1v1h-1z M30,102h1v1h-1z M32,102h1v1h-1z M33,102h1v1h-1z M38,102h1v1h-1z M41,102h1v1h-1z M43,102h1v1h-1z M50,102h1v1h-1z M51,102h1v1h-1z M52,102h1v1h-1z M54,102h1v1h-1z M56,102h1v1h-1z M61,102h1v1h-1z M62,102h1v1h-1z M64,102h1v1h-1z M65,102h1v1h-1z M67,102h1v1h-1z M68,102h1v1h-1z M69,102h1v1h-1z M71,102h1v1h-1z M72,102h1v1h-1z M74,102h1v1h-1z M75,102h1v1h-1z M76,102h1v1h-1z M78,102h1v1h-1z M80,102h1v1h-1z M86,102h1v1h-1z M87,102h1v1h-1z M88,102h1v1h-1z M89,102h1v1h-1z M95,102h1v1h-1z M96,102h1v1h-1z M98,102h1v1h-1z M100,102h1v1h-1z M102,102h1v1h-1z M104,102h1v1h-1z M106,102h1v1h-1z M107,102h1v1h-1z M4,103h1v1h-1z M10,103h1v1h-1z M12,103h1v1h-1z M14,103h1v1h-1z M17,103h1v1h-1z M18,103h1v1h-1z M19,103h1v1h-1z M21,103h1v1h-1z M22,103h1v1h-1z M23,103h1v1h-1z M26,103h1v1h-1z M28,103h1v1h-1z M32,103h1v1h-1z M33,103h1v1h-1z M34,103h1v1h-1z M35,103h1v1h-1z M37,103h1v1h-1z M38,103h1v1h-1z M41,103h1v1h-1z M44,103h1v1h-1z M47,103h1v1h-1z M52,103h1v1h-1z M56,103h1v1h-1z M57,103h1v1h-1z M58,103h1v1h-1z M59,103h1v1h-1z M63,103h1v1h-1z M65,103h1v1h-1z M68,103h1v1h-1z M69,103h1v1h-1z M70,103h1v1h-1z M71,103h1v1h-1z M73,103h1v1h-1z M76,103h1v1h-1z M80,103h1v1h-1z M83,103h1v1h-1z M85,103h1v1h-1z M86,103h1v1h-1z M90,103h1v1h-1z M91,103h1v1h-1z M92,103h1v1h-1z M94,103h1v1h-1z M95,103h1v1h-1z M98,103h1v1h-1z M99,103h1v1h-1z M100,103h1v1h-1z M104,103h1v1h-1z M105,103h1v1h-1z M108,103h1v1h-1z M4,104h1v1h-1z M6,104h1v1h-1z M7,104h1v1h-1z M8,104h1v1h-1z M10,104h1v1h-1z M12,104h1v1h-1z M13,104h1v1h-1z M15,104h1v1h-1z M16,104h1v1h-1z M19,104h1v1h-1z M20,104h1v1h-1z M21,104h1v1h-1z M26,104h1v1h-1z M27,104h1v1h-1z M28,104h1v1h-1z M29,104h1v1h-1z M30,104h1v1h-1z M31,104h1v1h-1z M32,104h1v1h-1z M33,104h1v1h-1z M34,104h1v1h-1z M36,104h1v1h-1z M41,104h1v1h-1z M43,104h1v1h-1z M44,104h1v1h-1z M47,104h1v1h-1z M51,104h1v1h-1z M52,104h1v1h-1z M53,104h1v1h-1z M54,104h1v1h-1z M55,104h1v1h-1z M56,104h1v1h-1z M62,104h1v1h-1z M63,104h1v1h-1z M64,104h1v1h-1z M65,104h1v1h-1z M68,104h1v1h-1z M69,104h1v1h-1z M71,104h1v1h-1z M72,104h1v1h-1z M73,104h1v1h-1z M75,104h1v1h-1z M76,104h1v1h-1z M77,104h1v1h-1z M78,104h1v1h-1z M79,104h1v1h-1z M80,104h1v1h-1z M82,104h1v1h-1z M84,104h1v1h-1z M85,104h1v1h-1z M88,104h1v1h-1z M89,104h1v1h-1z M96,104h1v1h-1z M97,104h1v1h-1z M100,104h1v1h-1z M101,104h1v1h-1z M102,104h1v1h-1z M103,104h1v1h-1z M104,104h1v1h-1z M105,104h1v1h-1z M4,105h1v1h-1z M6,105h1v1h-1z M7,105h1v1h-1z M8,105h1v1h-1z M10,105h1v1h-1z M16,105h1v1h-1z M17,105h1v1h-1z M20,105h1v1h-1z M21,105h1v1h-1z M22,105h1v1h-1z M23,105h1v1h-1z M25,105h1v1h-1z M26,105h1v1h-1z M27,105h1v1h-1z M30,105h1v1h-1z M34,105h1v1h-1z M36,105h1v1h-1z M37,105h1v1h-1z M38,105h1v1h-1z M39,105h1v1h-1z M40,105h1v1h-1z M43,105h1v1h-1z M45,105h1v1h-1z M48,105h1v1h-1z M49,105h1v1h-1z M50,105h1v1h-1z M53,105h1v1h-1z M55,105h1v1h-1z M56,105h1v1h-1z M57,105h1v1h-1z M60,105h1v1h-1z M62,105h1v1h-1z M63,105h1v1h-1z M69,105h1v1h-1z M71,105h1v1h-1z M72,105h1v1h-1z M74,105h1v1h-1z M77,105h1v1h-1z M79,105h1v1h-1z M81,105h1v1h-1z M82,105h1v1h-1z M83,105h1v1h-1z M84,105h1v1h-1z M86,105h1v1h-1z M89,105h1v1h-1z M90,105h1v1h-1z M96,105h1v1h-1z M97,105h1v1h-1z M98,105h1v1h-1z M99,105h1v1h-1z M100,105h1v1h-1z M102,105h1v1h-1z M103,105h1v1h-1z M104,105h1v1h-1z M107,105h1v1h-1z M108,105h1v1h-1z M4,106h1v1h-1z M6,106h1v1h-1z M7,106h1v1h-1z M8,106h1v1h-1z M10,106h1v1h-1z M14,106h1v1h-1z M16,106h1v1h-1z M17,106h1v1h-1z M20,106h1v1h-1z M21,106h1v1h-1z M24,106h1v1h-1z M35,106h1v1h-1z M38,106h1v1h-1z M39,106h1v1h-1z M40,106h1v1h-1z M41,106h1v1h-1z M43,106h1v1h-1z M45,106h1v1h-1z M47,106h1v1h-1z M48,106h1v1h-1z M50,106h1v1h-1z M51,106h1v1h-1z M52,106h1v1h-1z M53,106h1v1h-1z M60,106h1v1h-1z M62,106h1v1h-1z M65,106h1v1h-1z M67,106h1v1h-1z M68,106h1v1h-1z M72,106h1v1h-1z M74,106h1v1h-1z M79,106h1v1h-1z M80,106h1v1h-1z M81,106h1v1h-1z M84,106h1v1h-1z M85,106h1v1h-1z M86,106h1v1h-1z M88,106h1v1h-1z M89,106h1v1h-1z M91,106h1v1h-1z M95,106h1v1h-1z M96,106h1v1h-1z M98,106h1v1h-1z M101,106h1v1h-1z M103,106h1v1h-1z M104,106h1v1h-1z M106,106h1v1h-1z M4,107h1v1h-1z M10,107h1v1h-1z M12,107h1v1h-1z M13,107h1v1h-1z M18,107h1v1h-1z M20,107h1v1h-1z M21,107h1v1h-1z M24,107h1v1h-1z M25,107h1v1h-1z M29,107h1v1h-1z M30,107h1v1h-1z M31,107h1v1h-1z M32,107h1v1h-1z M33,107h1v1h-1z M35,107h1v1h-1z M38,107h1v1h-1z M44,107h1v1h-1z M46,107h1v1h-1z M49,107h1v1h-1z M54,107h1v1h-1z M56,107h1v1h-1z M57,107h1v1h-1z M58,107h1v1h-1z M59,107h1v1h-1z M68,107h1v1h-1z M71,107h1v1h-1z M78,107h1v1h-1z M80,107h1v1h-1z M82,107h1v1h-1z M83,107h1v1h-1z M85,107h1v1h-1z M90,107h1v1h-1z M92,107h1v1h-1z M93,107h1v1h-1z M99,107h1v1h-1z M101,107h1v1h-1z M104,107h1v1h-1z M4,108h1v1h-1z M5,108h1v1h-1z M6,108h1v1h-1z M7,108h1v1h-1z M8,108h1v1h-1z M9,108h1v1h-1z M10,108h1v1h-1z M12,108h1v1h-1z M15,108h1v1h-1z M16,108h1v1h-1z M19,108h1v1h-1z M20,108h1v1h-1z M25,108h1v1h-1z M27,108h1v1h-1z M28,108h1v1h-1z M29,108h1v1h-1z M30,108h1v1h-1z M32,108h1v1h-1z M33,108h1v1h-1z M34,108h1v1h-1z M36,108h1v1h-1z M39,108h1v1h-1z M40,108h1v1h-1z M43,108h1v1h-1z M44,108h1v1h-1z M45,108h1v1h-1z M46,108h1v1h-1z M47,108h1v1h-1z M48,108h1v1h-1z M50,108h1v1h-1z M51,108h1v1h-1z M52,108h1v1h-1z M57,108h1v1h-1z M58,108h1v1h-1z M63,108h1v1h-1z M64,108h1v1h-1z M65,108h1v1h-1z M68,108h1v1h-1z M69,108h1v1h-1z M70,108h1v1h-1z M71,108h1v1h-1z M73,108h1v1h-1z M77,108h1v1h-1z M79,108h1v1h-1z M81,108h1v1h-1z M82,108h1v1h-1z M85,108h1v1h-1z M86,108h1v1h-1z M87,108h1v1h-1z M88,108h1v1h-1z M89,108h1v1h-1z M92,108h1v1h-1z M93,108h1v1h-1z M94,108h1v1h-1z M95,108h1v1h-1z M101,108h1v1h-1z M102,108h1v1h-1z M103,108h1v1h-1z M104,108h1v1h-1z M106,108h1v1h-1z M108,108h1v1h-1z" fill="#000000"/>
</svg>
