<?xml version="1.0" encoding="UTF-8"?>
<!DOCTYPE svg PUBLIC "-//W3C//DTD SVG 1.1//EN" "http://www.w3.org/Graphics/SVG/1.1/DTD/svg11.dtd">
<svg xmlns="http://www.w3.org/2000/svg" version="1.1" viewBox="0 0 113 113" stroke="none">
	<rect width="100%" height="100%" fill="#FFFFFF"/>
	<path d="M4,4h1v1h-1z M5,4h1v1h-1z M6,4h1v1h-1z M7,4h1v1h-1z M8,4h1v1h-1z M9,4h1v1h-1z M10,4h1v1h-1z M14,4h1v1h-1z M15,4h1v1h-1z M20,4h1v1h-1z M22,4h1v1h-1z M23,4h1v1h-1z M24,4h1v1h-1z M27,4h1v1h-1z M29,4h1v1h-1z M31,4h1v1h-1z M32,4h1v1h-1z M33,4h1v1h-1z M35,4h1v1h-1z M36,4h1v1h-1z M37,4h1v1h-1z M38,4h1v1h-1z M39,4h1v1h-1z M40,4h1v1h-1z M42,4h1v1h-1z M45,4h1v1h-1z M46,4h1v1h-1z M47,4h1v1h-1z M49,4h1v1h-1z M50,4h1v1h-1z M51,4h1v1h-1z M52,4h1v1h-1z M53,4h1v1h-1z M58,4h1v1h-1z M60,4h1v1h-1z M63,4h1v1h-1z M64,4h1v1h-1z M69,4h1v1h-1z M70,4h1v1h-1z M71,4h1v1h-1z M72,4h1v1h-1z M75,4h1v1h-1z M76,4h1v1h-1z M77,4h1v1h-1z M79,4h1v1h-1z M80,4h1v1h-1z M81,4h1v1h-1z M82,4h1v1h-1z M88,4h1v1h-1z M91,4h1v1h-1z M92,4h1v1h-1z M93,4h1v1h-1z M94,4h1v1h-1z M97,4h1v1h-1z M98,4h1v1h-1z M102,4h1v1h-1z M103,4h1v1h-1z M104,4h1v1h-1z M105,4h1v1h-1z M106,4h1v1h-1z M107,4h1v1h-1z M108,4h1v1h-1z M4,5h1v1h-1z M10,5h1v1h-1z M12,5h1v1h-1z M13,5h1v1h-1z M14,5h1v1h-1z M18,5h1v1h-1z M20,5h1v1h-1z M22,5h1v1h-1z M23,5h1v1h-1z M25,5h1v1h-1z M28,5h1v1h-1z M29,5h1v1h-1z M32,5h1v1h-1z M34,5h1v1h-1z M36,5h1v1h-1z M41,5h1v1h-1z M44,5h1v1h-1z M45,5h1v1h-1z M46,5h1v1h-1z M48,5h1v1h-1z M51,5h1v1h-1z M56,5h1v1h-1z M57,5h1v1h-1z M58,5h1v1h-1z M59,5h1v1h-1z M60,5h1v1h-1z M63,5h1v1h-1z M65,5h1v1h-1z M67,5h1v1h-1z M68,5h1v1h-1z M69,5h1v1h-1z M70,5h1v1h-1z M72,5h1v1h-1z M73,5h1v1h-1z M77,5h1v1h-1z M79,5h1v1h-1z M81,5h1v1h-1z M82,5h1v1h-1z M83,5h1v1h-1z M84,5h1v1h-1z M88,5h1v1h-1z M89,5h1v1h-1z M92,5h1v1h-1z M93,5h1v1h-1z M94,5h1v1h-1z M96,5h1v1h-1z M98,5h1v1h-1z M102,5h1v1h-1z M108,5h1v1h-1z M4,6h1v1h-1z M6,6h1v1h-1z M7,6h1v1h-1z M8,6h1v1h-1z M10,6h1v1h-1z M13,6h1v1h-1z M14,6h1v1h-1z M15,6h1v1h-1z M16,6h1v1h-1z M17,6h1v1h-1z M22,6h1v1h-1z M25,6h1v1h-1z M27,6h1v1h-1z M28,6h1v1h-1z M30,6h1v1h-1z M33,6h1v1h-1z M37,6h1v1h-1z M39,6h1v1h-1z M40,6h1v1h-1z M42,6h1v1h-1z M43,6h1v1h-1z M45,6h1v1h-1z M47,6h1v1h-1z M49,6h1v1h-1z M51,6h1v1h-1z M52,6h1v1h-1z M53,6h1v1h-1z M54,6h1v1h-1z M55,6h1v1h-1z M58,6h1v1h-1z M62,6h1v1h-1z M64,6h1v1h-1z M65,6h1v1h-1z M69,6h1v1h-1z M71,6h1v1h-1z M73,6h1v1h-1z M74,6h1v1h-1z M75,6h1v1h-1z M76,6h1v1h-1z M78,6h1v1h-1z M81,6h1v1h-1z M83,6h1v1h-1z M86,6h1v1h-1z M87,6h1v1h-1z M88,6h1v1h-1z M90,6h1v1h-1z M94,6h1v1h-1z M95,6h1v1h-1z M98,6h1v1h-1z M99,6h1v1h-1z M102,6h1v1h-1z M104,6h1v1h-1z M105,6h1v1h-1z M106,6h1v1h-1z M108,6h1v1h-1z M4,7h1v1h-1z M6,7h1v1h-1z M7,7h1v1h-1z M8,7h1v1h-1z M10,7h1v1h-1z M12,7h1v1h-1z M14,7h1v1h-1z M15,7h1v1h-1z M16,7h1v1h-1z M18,7h1v1h-1z M19,7h1v1h-1z M21,7h1v1h-1z M22,7h1v1h-1z M23,7h1v1h-1z M25,7h1v1h-1z M26,7h1v1h-1z M29,7h1v1h-1z M30,7h1v1h-1z M31,7h1v1h-1z M32,7h1v1h-1z M33,7h1v1h-1z M34,7h1v1h-1z M36,7h1v1h-1z M37,7h1v1h-1z M39,7h1v1h-1z M41,7h1v1h-1z M43,7h1v1h-1z M44,7h1v1h-1z M45,7h1v1h-1z M46,7h1v1h-1z M47,7h1v1h-1z M49,7h1v1h-1z M50,7h1v1h-1z M51,7h1v1h-1z M54,7h1v1h-1z M55,7h1v1h-1z M56,7h1v1h-1z M57,7h1v1h-1z M58,7h1v1h-1z M59,7h1v1h-1z M61,7h1v1h-1z M63,7h1v1h-1z M64,7h1v1h-1z M67,7h1v1h-1z M68,7h1v1h-1z M71,7h1v1h-1z M72,7h1v1h-1z M74,7h1v1h-1z M79,7h1v1h-1z M80,7h1v1h-1z M81,7h1v1h-1z M83,7h1v1h-1z M86,7h1v1h-1z M88,7h1v1h-1z M89,7h1v1h-1z M91,7h1v1h-1z M93,7h1v1h-1z M96,7h1v1h-1z M100,7h1v1h-1z M102,7h1v1h-1z M104,7h1v1h-1z M105,7h1v1h-1z M106,7h1v1h-1z M108,7h1v1h-1z M4,8h1v1h-1z M6,8h1v1h-1z M7,8h1v1h-1z M8,8h1v1h-1z M10,8h1v1h-1z M13,8h1v1h-1z M14,8h1v1h-1z M15,8h1v1h-1z M17,8h1v1h-1z M18,8h1v1h-1z M19,8h1v1h-1z M22,8h1v1h-1z M23,8h1v1h-1z M27,8h1v1h-1z M28,8h1v1h-1z M29,8h1v1h-1z M30,8h1v1h-1z M31,8h1v1h-1z M32,8h1v1h-1z M34,8h1v1h-1z M35,8h1v1h-1z M38,8h1v1h-1z M39,8h1v1h-1z M40,8h1v1h-1z M41,8h1v1h-1z M42,8h1v1h-1z M43,8h1v1h-1z M44,8h1v1h-1z M46,8h1v1h-1z M47,8h1v1h-1z M48,8h1v1h-1z M50,8h1v1h-1z M51,8h1v1h-1z M52,8h1v1h-1z M53,8h1v1h-1z M54,8h1v1h-1z M55,8h1v1h-1z M56,8h1v1h-1z M60,8h1v1h-1z M62,8h1v1h-1z M63,8h1v1h-1z M64,8h1v1h-1z M66,8h1v1h-1z M69,8h1v1h-1z M70,8h1v1h-1z M73,8h1v1h-1z M74,8h1v1h-1z M75,8h1v1h-1z M76,8h1v1h-1z M77,8h1v1h-1z M78,8h1v1h-1z M79,8h1v1h-1z M80,8h1v1h-1z M81,8h1v1h-1z M85,8h1v1h-1z M86,8h1v1h-1z M88,8h1v1h-1z M91,8h1v1h-1z M93,8h1v1h-1z M97,8h1v1h-1z M99,8h1v1h-1z M100,8h1v1h-1z M102,8h1v1h-1z M104,8h1v1h-1z M105,8h1v1h-1z M106,8h1v1h-1z M108,8h1v1h-1z M4,9h1v1h-1z M10,9h1v1h-1z M12,9h1v1h-1z M14,9h1v1h-1z M16,9h1v1h-1z M23,9h1v1h-1z M27,9h1v1h-1z M28,9h1v1h-1z M32,9h1v1h-1z M33,9h1v1h-1z M34,9h1v1h-1z M39,9h1v1h-1z M40,9h1v1h-1z M41,9h1v1h-1z M43,9h1v1h-1z M45,9h1v1h-1z M46,9h1v1h-1z M47,9h1v1h-1z M48,9h1v1h-1z M49,9h1v1h-1z M52,9h1v1h-1z M56,9h1v1h-1z M57,9h1v1h-1z M58,9h1v1h-1z M59,9h1v1h-1z M67,9h1v1h-1z M68,9h1v1h-1z M69,9h1v1h-1z M70,9h1v1h-1z M71,9h1v1h-1z M76,9h1v1h-1z M80,9h1v1h-1z M81,9h1v1h-1z M82,9h1v1h-1z M84,9h1v1h-1z M89,9h1v1h-1z M92,9h1v1h-1z M93,9h1v1h-1z M94,9h1v1h-1z M99,9h1v1h-1z M102,9h1v1h-1z M108,9h1v1h-1z M4,10h1v1h-1z M5,10h1v1h-1z M6,10h1v1h-1z M7,10h1v1h-1z M8,10h1v1h-1z M9,10h1v1h-1z M10,10h1v1h-1z M12,10h1v1h-1z M14,10h1v1h-1z M16,10h1v1h-1z M18,10h1v1h-1z M20,10h1v1h-1z M22,10h1v1h-1z M24,10h1v1h-1z M26,10h1v1h-1z M28,10h1v1h-1z M30,10h1v1h-1z M32,10h1v1h-1z M34,10h1v1h-1z M36,10h1v1h-1z M38,10h1v1h-1z M40,10h1v1h-1z M42,10h1v1h-1z M44,10h1v1h-1z M46,10h1v1h-1z M48,10h1v1h-1z M50,10h1v1h-1z M52,10h1v1h-1z M54,10h1v1h-1z M56,10h1v1h-1z M58,10h1v1h-1z M60,10h1v1h-1z M62,10h1v1h-1z M64,10h1v1h-1z M66,10h1v1h-1z M68,10h1v1h-1z M70,10h1v1h-1z M72,10h1v1h-1z M74,10h1v1h-1z M76,10h1v1h-1z M78,10h1v1h-1z M80,10h1v1h-1z M82,10h1v1h-1z M84,10h1v1h-1z M86,10h1v1h-1z M88,10h1v1h-1z M90,10h1v1h-1z M92,10h1v1h-1z M94,10h1v1h-1z M96,10h1v1h-1z M98,10h1v1h-1z M100,10h1v1h-1z M102,10h1v1h-1z M103,10h1v1h-1z M104,10h1v1h-1z M105,10h1v1h-1z M106,10h1v1h-1z M107,10h1v1h-1z M108,10h1v1h-1z M13,11h1v1h-1z M15,11h1v1h-1z M16,11h1v1h-1z M18,11h1v1h-1z M19,11h1v1h-1z M21,11h1v1h-1z M23,11h1v1h-1z M24,11h1v1h-1z M27,11h1v1h-1z M28,11h1v1h-1z M32,11h1v1h-1z M35,11h1v1h-1z M37,11h1v1h-1z M38,11h1v1h-1z M39,11h1v1h-1z M40,11h1v1h-1z M41,11h1v1h-1z M42,11h1v1h-1z M50,11h1v1h-1z M52,11h1v1h-1z M56,11h1v1h-1z M59,11h1v1h-1z M61,11h1v1h-1z M63,11h1v1h-1z M64,11h1v1h-1z M65,11h1v1h-1z M66,11h1v1h-1z M71,11h1v1h-1z M73,11h1v1h-1z M75,11h1v1h-1z M76,11h1v1h-1z M80,11h1v1h-1z M81,11h1v1h-1z M82,11h1v1h-1z M85,11h1v1h-1z M86,11h1v1h-1z M88,11h1v1h-1z M89,11h1v1h-1z M90,11h1v1h-1z M95,11h1v1h-1z M97,11h1v1h-1z M99,11h1v1h-1z M4,12h1v1h-1z M5,12h1v1h-1z M6,12h1v1h-1z M7,12h1v1h-1z M8,12h1v1h-1z M10,12h1v1h-1z M11,12h1v1h-1z M12,12h1v1h-1z M15,12h1v1h-1z M16,12h1v1h-1z M17,12h1v1h-1z M18,12h1v1h-1z M21,12h1v1h-1z M22,12h1v1h-1z M23,12h1v1h-1z M26,12h1v1h-1z M27,12h1v1h-1z M28,12h1v1h-1z M29,12h1v1h-1z M30,12h1v1h-1z M31,12h1v1h-1z M32,12h1v1h-1z M33,12h1v1h-1z M36,12h1v1h-1z M41,12h1v1h-1z M42,12h1v1h-1z M47,12h1v1h-1z M48,12h1v1h-1z M50,12h1v1h-1z M52,12h1v1h-1z M53,12h1v1h-1z M54,12h1v1h-1z M55,12h1v1h-1z M56,12h1v1h-1z M57,12h1v1h-1z M58,12h1v1h-1z M60,12h1v1h-1z M62,12h1v1h-1z M63,12h1v1h-1z M64,12h1v1h-1z M66,12h1v1h-1z M67,12h1v1h-1z M69,12h1v1h-1z M70,12h1v1h-1z M73,12h1v1h-1z M75,12h1v1h-1z M76,12h1v1h-1z M77,12h1v1h-1z M78,12h1v1h-1z M79,12h1v1h-1z M80,12h1v1h-1z M85,12h1v1h-1z M90,12h1v1h-1z M95,12h1v1h-1z M97,12h1v1h-1z M98,12h1v1h-1z M100,12h1v1h-1z M101,12h1v1h-1z M103,12h1v1h-1z M105,12h1v1h-1z M107,12h1v1h-1z M4,13h1v1h-1z M5,13h1v1h-1z M6,13h1v1h-1z M7,13h1v1h-1z M9,13h1v1h-1z M11,13h1v1h-1z M12,13h1v1h-1z M15,13h1v1h-1z M16,13h1v1h-1z M17,13h1v1h-1z M19,13h1v1h-1z M21,13h1v1h-1z M23,13h1v1h-1z M25,13h1v1h-1z M28,13h1v1h-1z M29,13h1v1h-1z M30,13h1v1h-1z M31,13h1v1h-1z M33,13h1v1h-1z M35,13h1v1h-1z M37,13h1v1h-1z M39,13h1v1h-1z M40,13h1v1h-1z M41,13h1v1h-1z M45,13h1v1h-1z M47,13h1v1h-1z M50,13h1v1h-1z M51,13h1v1h-1z M52,13h1v1h-1z M53,13h1v1h-1z M55,13h1v1h-1z M62,13h1v1h-1z M63,13h1v1h-1z M64,13h1v1h-1z M67,13h1v1h-1z M69,13h1v1h-1z M70,13h1v1h-1z M71,13h1v1h-1z M76,13h1v1h-1z M79,13h1v1h-1z M82,13h1v1h-1z M84,13h1v1h-1z M88,13h1v1h-1z M89,13h1v1h-1z M91,13h1v1h-1z M93,13h1v1h-1z M97,13h1v1h-1z M98,13h1v1h-1z M99,13h1v1h-1z M100,13h1v1h-1z M103,13h1v1h-1z M104,13h1v1h-1z M105,13h1v1h-1z M106,13h1v1h-1z M108,13h1v1h-1z M6,14h1v1h-1z M7,14h1v1h-1z M8,14h1v1h-1z M10,14h1v1h-1z M12,14h1v1h-1z M18,14h1v1h-1z M19,14h1v1h-1z M22,14h1v1h-1z M23,14h1v1h-1z M29,14h1v1h-1z M33,14h1v1h-1z M34,14h1v1h-1z M39,14h1v1h-1z M41,14h1v1h-1z M43,14h1v1h-1z M44,14h1v1h-1z M45,14h1v1h-1z M46,14h1v1h-1z M48,14h1v1h-1z M52,14h1v1h-1z M53,14h1v1h-1z M55,14h1v1h-1z M57,14h1v1h-1z M58,14h1v1h-1z M60,14h1v1h-1z M63,14h1v1h-1z M69,14h1v1h-1z M70,14h1v1h-1z M72,14h1v1h-1z M75,14h1v1h-1z M79,14h1v1h-1z M81,14h1v1h-1z M82,14h1v1h-1z M83,14h1v1h-1z M84,14h1v1h-1z M88,14h1v1h-1z M92,14h1v1h-1z M93,14h1v1h-1z M94,14h1v1h-1z M95,14h1v1h-1z M96,14h1v1h-1z M101,14h1v1h-1z M102,14h1v1h-1z M105,14h1v1h-1z M107,14h1v1h-1z M4,15h1v1h-1z M7,15h1v1h-1z M8,15h1v1h-1z M9,15h1v1h-1z M11,15h1v1h-1z M12,15h1v1h-1z M15,15h1v1h-1z M16,15h1v1h-1z M20,15h1v1h-1z M25,15h1v1h-1z M26,15h1v1h-1z M27,15h1v1h-1z M28,15h1v1h-1z M29,15h1v1h-1z M30,15h1v1h-1z M33,15h1v1h-1z M34,15h1v1h-1z M35,15h1v1h-1z M37,15h1v1h-1z M40,15h1v1h-1z M41,15h1v1h-1z M42,15h1v1h-1z M47,15h1v1h-1z M49,15h1v1h-1z M54,15h1v1h-1z M57,15h1v1h-1z M59,15h1v1h-1z M61,15h1v1h-1z M64,15h1v1h-1z M65,15h1v1h-1z M66,15h1v1h-1z M70,15h1v1h-1z M71,15h1v1h-1z M73,15h1v1h-1z M74,15h1v1h-1z M75,15h1v1h-1z M78,15h1v1h-1z M81,15h1v1h-1z M83,15h1v1h-1z M85,15h1v1h-1z M86,15h1v1h-1z M87,15h1v1h-1z M88,15h1v1h-1z M89,15h1v1h-1z M90,15h1v1h-1z M93,15h1v1h-1z M94,15h1v1h-1z M95,15h1v1h-1z M97,15h1v1h-1z M99,15h1v1h-1z M101,15h1v1h-1z M103,15h1v1h-1z M106,15h1v1h-1z M108,15h1v1h-1z M4,16h1v1h-1z M5,16h1v1h-1z M6,16h1v1h-1z M7,16h1v1h-1z M8,16h1v1h-1z M9,16h1v1h-1z M10,16h1v1h-1z M11,16h1v1h-1z M12,16h1v1h-1z M13,16h1v1h-1z M14,16h1v1h-1z M17,16h1v1h-1z M18,16h1v1h-1z M19,16h1v1h-1z M20,16h1v1h-1z M21,16h1v1h-1z M22,16h1v1h-1z M23,16h1v1h-1z M24,16h1v1h-1z M25,16h1v1h-1z M27,16h1v1h-1z M30,16h1v1h-1z M31,16h1v1h-1z M35,16h1v1h-1z M36,16h1v1h-1z M37,16h1v1h-1z M39,16h1v1h-1z M41,16h1v1h-1z M44,16h1v1h-1z M45,16h1v1h-1z M46,16h1v1h-1z M49,16h1v1h-1z M52,16h1v1h-1z M55,16h1v1h-1z M57,16h1v1h-1z M58,16h1v1h-1z M60,16h1v1h-1z M61,16h1v1h-1z M62,16h1v1h-1z M65,16h1v1h-1z M68,16h1v1h-1z M73,16h1v1h-1z M79,16h1v1h-1z M80,16h1v1h-1z M82,16h1v1h-1z M85,16h1v1h-1z M88,16h1v1h-1z M91,16h1v1h-1z M92,16h1v1h-1z M93,16h1v1h-1z M95,16h1v1h-1z M96,16h1v1h-1z M97,16h1v1h-1z M99,16h1v1h-1z M100,16h1v1h-1z M103,16h1v1h-1z M105,16h1v1h-1z M107,16h1v1h-1z M108,16h1v1h-1z M8,17h1v1h-1z M9,17h1v1h-1z M11,17h1v1h-1z M12,17h1v1h-1z M14,17h1v1h-1z M15,17h1v1h-1z M16,17h1v1h-1z M18,17h1v1h-1z M19,17h1v1h-1z M21,17h1v1h-1z M23,17h1v1h-1z M27,17h1v1h-1z M28,17h1v1h-1z M31,17h1v1h-1z M32,17h1v1h-1z M33,17h1v1h-1z M34,17h1v1h-1z M35,17h1v1h-1z M36,17h1v1h-1z M37,17h1v1h-1z M38,17h1v1h-1z M40,17h1v1h-1z M41,17h1v1h-1z M43,17h1v1h-1z M44,17h1v1h-1z M46,17h1v1h-1z M47,17h1v1h-1z M50,17h1v1h-1z M51,17h1v1h-1z M52,17h1v1h-1z M55,17h1v1h-1z M56,17h1v1h-1z M57,17h1v1h-1z M58,17h1v1h-1z M59,17h1v1h-1z M62,17h1v1h-1z M63,17h1v1h-1z M64,17h1v1h-1z M65,17h1v1h-1z M66,17h1v1h-1z M67,17h1v1h-1z M70,17h1v1h-1z M72,17h1v1h-1z M73,17h1v1h-1z M74,17h1v1h-1z M75,17h1v1h-1z M76,17h1v1h-1z M78,17h1v1h-1z M81,17h1v1h-1z M82,17h1v1h-1z M84,17h1v1h-1z M85,17h1v1h-1z M86,17h1v1h-1z M87,17h1v1h-1z M88,17h1v1h-1z M97,17h1v1h-1z M98,17h1v1h-1z M104,17h1v1h-1z M5,18h1v1h-1z M6,18h1v1h-1z M8,18h1v1h-1z M10,18h1v1h-1z M11,18h1v1h-1z M12,18h1v1h-1z M14,18h1v1h-1z M15,18h1v1h-1z M16,18h1v1h-1z M17,18h1v1h-1z M18,18h1v1h-1z M19,18h1v1h-1z M20,18h1v1h-1z M21,18h1v1h-1z M23,18h1v1h-1z M29,18h1v1h-1z M31,18h1v1h-1z M32,18h1v1h-1z M33,18h1v1h-1z M34,18h1v1h-1z M35,18h1v1h-1z M36,18h1v1h-1z M39,18h1v1h-1z M43,18h1v1h-1z M45,18h1v1h-1z M46,18h1v1h-1z M48,18h1v1h-1z M51,18h1v1h-1z M55,18h1v1h-1z M57,18h1v1h-1z M58,18h1v1h-1z M63,18h1v1h-1z M65,18h1v1h-1z M67,18h1v1h-1z M69,18h1v1h-1z M70,18h1v1h-1z M75,18h1v1h-1z M77,18h1v1h-1z M80,18h1v1h-1z M82,18h1v1h-1z M83,18h1v1h-1z M84,18h1v1h-1z M91,18h1v1h-1z M92,18h1v1h-1z M93,18h1v1h-1z M94,18h1v1h-1z M101,18h1v1h-1z M107,18h1v1h-1z M5,19h1v1h-1z M6,19h1v1h-1z M7,19h1v1h-1z M9,19h1v1h-1z M12,19h1v1h-1z M13,19h1v1h-1z M15,19h1v1h-1z M17,19h1v1h-1z M20,19h1v1h-1z M25,19h1v1h-1z M26,19h1v1h-1z M27,19h1v1h-1z M35,19h1v1h-1z M39,19h1v1h-1z M40,19h1v1h-1z M41,19h1v1h-1z M42,19h1v1h-1z M45,19h1v1h-1z M47,19h1v1h-1z M49,19h1v1h-1z M53,19h1v1h-1z M54,19h1v1h-1z M58,19h1v1h-1z M59,19h1v1h-1z M61,19h1v1h-1z M64,19h1v1h-1z M66,19h1v1h-1z M71,19h1v1h-1z M73,19h1v1h-1z M74,19h1v1h-1z M75,19h1v1h-1z M76,19h1v1h-1z M78,19h1v1h-1z M79,19h1v1h-1z M81,19h1v1h-1z M83,19h1v1h-1z M85,19h1v1h-1z M86,19h1v1h-1z M87,19h1v1h-1z M88,19h1v1h-1z M89,19h1v1h-1z M90,19h1v1h-1z M91,19h1v1h-1z M93,19h1v1h-1z M95,19h1v1h-1z M97,19h1v1h-1z M98,19h1v1h-1z M100,19h1v1h-1z M101,19h1v1h-1z M105,19h1v1h-1z M106,19h1v1h-1z M108,19h1v1h-1z M4,20h1v1h-1z M5,20h1v1h-1z M10,20h1v1h-1z M13,20h1v1h-1z M14,20h1v1h-1z M15,20h1v1h-1z M18,20h1v1h-1z M21,20h1v1h-1z M23,20h1v1h-1z M24,20h1v1h-1z M28,20h1v1h-1z M29,20h1v1h-1z M31,20h1v1h-1z M34,20h1v1h-1z M35,20h1v1h-1z M36,20h1v1h-1z M37,20h1v1h-1z M38,20h1v1h-1z M41,20h1v1h-1z M42,20h1v1h-1z M43,20h1v1h-1z M44,20h1v1h-1z M45,20h1v1h-1z M47,20h1v1h-1z M48,20h1v1h-1z M50,20h1v1h-1z M51,20h1v1h-1z M52,20h1v1h-1z M53,20h1v1h-1z M56,20h1v1h-1z M59,20h1v1h-1z M61,20h1v1h-1z M66,20h1v1h-1z M67,20h1v1h-1z M68,20h1v1h-1z M69,20h1v1h-1z M71,20h1v1h-1z M72,20h1v1h-1z M73,20h1v1h-1z M77,20h1v1h-1z M82,20h1v1h-1z M84,20h1v1h-1z M86,20h1v1h-1z M89,20h1v1h-1z M90,20h1v1h-1z M92,20h1v1h-1z M96,20h1v1h-1z M97,20h1v1h-1z M99,20h1v1h-1z M100,20h1v1h-1z M102,20h1v1h-1z M103,20h1v1h-1z M104,20h1v1h-1z M105,20h1v1h-1z M106,20h1v1h-1z M108,20h1v1h-1z M4,21h1v1h-1z M5,21h1v1h-1z M6,21h1v1h-1z M8,21h1v1h-1z M12,21h1v1h-1z M13,21h1v1h-1z M14,21h1v1h-1z M15,21h1v1h-1z M16,21h1v1h-1z M17,21h1v1h-1z M19,21h1v1h-1z M22,21h1v1h-1z M23,21h1v1h-1z M26,21h1v1h-1z M27,21h1v1h-1z M28,21h1v1h-1z M29,21h1v1h-1z M31,21h1v1h-1z M33,21h1v1h-1z M34,21h1v1h-1z M36,21h1v1h-1z M37,21h1v1h-1z M40,21h1v1h-1z M45,21h1v1h-1z M48,21h1v1h-1z M51,21h1v1h-1z M52,21h1v1h-1z M53,21h1v1h-1z M54,21h1v1h-1z M56,21h1v1h-1z M57,21h1v1h-1z M58,21h1v1h-1z M59,21h1v1h-1z M64,21h1v1h-1z M66,21h1v1h-1z M67,21h1v1h-1z M68,21h1v1h-1z M71,21h1v1h-1z M74,21h1v1h-1z M75,21h1v1h-1z M76,21h1v1h-1z M77,21h1v1h-1z M79,21h1v1h-1z M81,21h1v1h-1z M84,21h1v1h-1z M85,21h1v1h-1z M88,21h1v1h-1z M93,21h1v1h-1z M95,21h1v1h-1z M97,21h1v1h-1z M98,21h1v1h-1z M103,21h1v1h-1z M4,22h1v1h-1z M6,22h1v1h-1z M7,22h1v1h-1z M8,22h1v1h-1z M9,22h1v1h-1z M10,22h1v1h-1z M12,22h1v1h-1z M13,22h1v1h-1z M14,22h1v1h-1z M18,22h1v1h-1z M21,22h1v1h-1z M22,22h1v1h-1z M23,22h1v1h-1z M27,22h1v1h-1z M28,22h1v1h-1z M29,22h1v1h-1z M31,22h1v1h-1z M33,22h1v1h-1z M34,22h1v1h-1z M35,22h1v1h-1z M39,22h1v1h-1z M41,22h1v1h-1z M43,22h1v1h-1z M45,22h1v1h-1z M46,22h1v1h-1z M48,22h1v1h-1z M52,22h1v1h-1z M53,22h1v1h-1z M55,22h1v1h-1z M56,22h1v1h-1z M57,22h1v1h-1z M58,22h1v1h-1z M65,22h1v1h-1z M67,22h1v1h-1z M68,22h1v1h-1z M69,22h1v1h-1z M70,22h1v1h-1z M72,22h1v1h-1z M76,22h1v1h-1z M77,22h1v1h-1z M79,22h1v1h-1z M81,22h1v1h-1z M82,22h1v1h-1z M88,22h1v1h-1z M91,22h1v1h-1z M92,22h1v1h-1z M93,22h1v1h-1z M94,22h1v1h-1z M96,22h1v1h-1z M101,22h1v1h-1z M102,22h1v1h-1z M106,22h1v1h-1z M107,22h1v1h-1z M6,23h1v1h-1z M9,23h1v1h-1z M13,23h1v1h-1z M14,23h1v1h-1z M19,23h1v1h-1z M24,23h1v1h-1z M25,23h1v1h-1z M26,23h1v1h-1z M29,23h1v1h-1z M33,23h1v1h-1z M35,23h1v1h-1z M39,23h1v1h-1z M40,23h1v1h-1z M42,23h1v1h-1z M45,23h1v1h-1z M49,23h1v1h-1z M51,23h1v1h-1z M52,23h1v1h-1z M53,23h1v1h-1z M59,23h1v1h-1z M61,23h1v1h-1z M63,23h1v1h-1z M64,23h1v1h-1z M66,23h1v1h-1z M69,23h1v1h-1z M71,23h1v1h-1z M73,23h1v1h-1z M74,23h1v1h-1z M76,23h1v1h-1z M78,23h1v1h-1z M82,23h1v1h-1z M83,23h1v1h-1z M86,23h1v1h-1z M87,23h1v1h-1z M88,23h1v1h-1z M89,23h1v1h-1z M90,23h1v1h-1z M93,23h1v1h-1z M95,23h1v1h-1z M97,23h1v1h-1z M98,23h1v1h-1z M101,23h1v1h-1z M104,23h1v1h-1z M105,23h1v1h-1z M106,23h1v1h-1z M107,23h1v1h-1z M108,23h1v1h-1z M4,24h1v1h-1z M7,24h1v1h-1z M8,24h1v1h-1z M9,24h1v1h-1z M10,24h1v1h-1z M11,24h1v1h-1z M13,24h1v1h-1z M17,24h1v1h-1z M18,24h1v1h-1z M19,24h1v1h-1z M20,24h1v1h-1z M21,24h1v1h-1z M23,24h1v1h-1z M28,24h1v1h-1z M30,24h1v1h-1z M31,24h1v1h-1z M33,24h1v1h-1z M34,24h1v1h-1z M35,24h1v1h-1z M36,24h1v1h-1z M37,24h1v1h-1z M42,24h1v1h-1z M43,24h1v1h-1z M45,24h1v1h-1z M47,24h1v1h-1z M48,24h1v1h-1z M49,24h1v1h-1z M50,24h1v1h-1z M52,24h1v1h-1z M53,24h1v1h-1z M55,24h1v1h-1z M56,24h1v1h-1z M59,24h1v1h-1z M60,24h1v1h-1z M61,24h1v1h-1z M62,24h1v1h-1z M63,24h1v1h-1z M65,24h1v1h-1z M67,24h1v1h-1z M68,24h1v1h-1z M70,24h1v1h-1z M71,24h1v1h-1z M72,24h1v1h-1z M74,24h1v1h-1z M75,24h1v1h-1z M79,24h1v1h-1z M80,24h1v1h-1z M84,24h1v1h-1z M85,24h1v1h-1z M86,24h1v1h-1z M88,24h1v1h-1z M89,24h1v1h-1z M90,24h1v1h-1z M91,24h1v1h-1z M92,24h1v1h-1z M93,24h1v1h-1z M94,24h1v1h-1z M96,24h1v1h-1z M98,24h1v1h-1z M99,24h1v1h-1z M100,24h1v1h-1z M103,24h1v1h-1z M106,24h1v1h-1z M107,24h1v1h-1z M6,25h1v1h-1z M7,25h1v1h-1z M12,25h1v1h-1z M14,25h1v1h-1z M15,25h1v1h-1z M16,25h1v1h-1z M20,25h1v1h-1z M27,25h1v1h-1z M28,25h1v1h-1z M30,25h1v1h-1z M31,25h1v1h-1z M32,25h1v1h-1z M34,25h1v1h-1z M38,25h1v1h-1z M39,25h1v1h-1z M42,25h1v1h-1z M47,25h1v1h-1z M48,25h1v1h-1z M49,25h1v1h-1z M50,25h1v1h-1z M51,25h1v1h-1z M52,25h1v1h-1z M53,25h1v1h-1z M54,25h1v1h-1z M55,25h1v1h-1z M58,25h1v1h-1z M60,25h1v1h-1z M64,25h1v1h-1z M65,25h1v1h-1z M67,25h1v1h-1z M68,25h1v1h-1z M69,25h1v1h-1z M75,25h1v1h-1z M76,25h1v1h-1z M77,25h1v1h-1z M78,25h1v1h-1z M87,25h1v1h-1z M88,25h1v1h-1z M89,25h1v1h-1z M90,25h1v1h-1z M91,25h1v1h-1z M92,25h1v1h-1z M95,25h1v1h-1z M96,25h1v1h-1z M100,25h1v1h-1z M101,25h1v1h-1z M102,25h1v1h-1z M104,25h1v1h-1z M105,25h1v1h-1z M106,25h1v1h-1z M107,25h1v1h-1z M4,26h1v1h-1z M5,26h1v1h-1z M6,26h1v1h-1z M8,26h1v1h-1z M9,26h1v1h-1z M10,26h1v1h-1z M11,26h1v1h-1z M12,26h1v1h-1z M14,26h1v1h-1z M15,26h1v1h-1z M16,26h1v1h-1z M17,26h1v1h-1z M21,26h1v1h-1z M24,26h1v1h-1z M27,26h1v1h-1z M29,26h1v1h-1z M31,26h1v1h-1z M32,26h1v1h-1z M33,26h1v1h-1z M34,26h1v1h-1z M39,26h1v1h-1z M41,26h1v1h-1z M44,26h1v1h-1z M46,26h1v1h-1z M47,26h1v1h-1z M49,26h1v1h-1z M51,26h1v1h-1z M52,26h1v1h-1z M57,26h1v1h-1z M58,26h1v1h-1z M59,26h1v1h-1z M60,26h1v1h-1z M65,26h1v1h-1z M69,26h1v1h-1z M70,26h1v1h-1z M72,26h1v1h-1z M75,26h1v1h-1z M76,26h1v1h-1z M77,26h1v1h-1z M81,26h1v1h-1z M82,26h1v1h-1z M87,26h1v1h-1z M89,26h1v1h-1z M94,26h1v1h-1z M96,26h1v1h-1z M99,26h1v1h-1z M100,26h1v1h-1z M101,26h1v1h-1z M102,26h1v1h-1z M105,26h1v1h-1z M106,26h1v1h-1z M107,26h1v1h-1z M4,27h1v1h-1z M6,27h1v1h-1z M7,27h1v1h-1z M8,27h1v1h-1z M11,27h1v1h-1z M12,27h1v1h-1z M13,27h1v1h-1z M18,27h1v1h-1z M20,27h1v1h-1z M21,27h1v1h-1z M22,27h1v1h-1z M23,27h1v1h-1z M25,27h1v1h-1z M27,27h1v1h-1z M30,27h1v1h-1z M33,27h1v1h-1z M35,27h1v1h-1z M37,27h1v1h-1z M39,27h1v1h-1z M40,27h1v1h-1z M42,27h1v1h-1z M43,27h1v1h-1z M45,27h1v1h-1z M47,27h1v1h-1z M50,27h1v1h-1z M51,27h1v1h-1z M52,27h1v1h-1z M53,27h1v1h-1z M54,27h1v1h-1z M58,27h1v1h-1z M59,27h1v1h-1z M62,27h1v1h-1z M64,27h1v1h-1z M65,27h1v1h-1z M66,27h1v1h-1z M70,27h1v1h-1z M71,27h1v1h-1z M74,27h1v1h-1z M76,27h1v1h-1z M77,27h1v1h-1z M83,27h1v1h-1z M85,27h1v1h-1z M86,27h1v1h-1z M87,27h1v1h-1z M88,27h1v1h-1z M89,27h1v1h-1z M93,27h1v1h-1z M95,27h1v1h-1z M98,27h1v1h-1z M101,27h1v1h-1z M103,27h1v1h-1z M104,27h1v1h-1z M105,27h1v1h-1z M106,27h1v1h-1z M108,27h1v1h-1z M4,28h1v1h-1z M7,28h1v1h-1z M8,28h1v1h-1z M9,28h1v1h-1z M10,28h1v1h-1z M11,28h1v1h-1z M12,28h1v1h-1z M13,28h1v1h-1z M14,28h1v1h-1z M15,28h1v1h-1z M20,28h1v1h-1z M22,28h1v1h-1z M23,28h1v1h-1z M25,28h1v1h-1z M26,28h1v1h-1z M28,28h1v1h-1z M29,28h1v1h-1z M30,28h1v1h-1z M31,28h1v1h-1z M32,28h1v1h-1z M35,28h1v1h-1z M37,28h1v1h-1z M39,28h1v1h-1z M41,28h1v1h-1z M42,28h1v1h-1z M43,28h1v1h-1z M44,28h1v1h-1z M46,28h1v1h-1z M47,28h1v1h-1z M48,28h1v1h-1z M51,28h1v1h-1z M52,28h1v1h-1z M53,28h1v1h-1z M54,28h1v1h-1z M55,28h1v1h-1z M56,28h1v1h-1z M57,28h1v1h-1z M59,28h1v1h-1z M60,28h1v1h-1z M61,28h1v1h-1z M63,28h1v1h-1z M64,28h1v1h-1z M67,28h1v1h-1z M69,28h1v1h-1z M74,28h1v1h-1z M75,28h1v1h-1z M76,28h1v1h-1z M77,28h1v1h-1z M78,28h1v1h-1z M79,28h1v1h-1z M80,28h1v1h-1z M82,28h1v1h-1z M84,28h1v1h-1z M87,28h1v1h-1z M88,28h1v1h-1z M93,28h1v1h-1z M94,28h1v1h-1z M95,28h1v1h-1z M96,28h1v1h-1z M98,28h1v1h-1z M99,28h1v1h-1z M100,28h1v1h-1z M101,28h1v1h-1z M102,28h1v1h-1z M103,28h1v1h-1z M104,28h1v1h-1z M105,28h1v1h-1z M4,29h1v1h-1z M6,29h1v1h-1z M8,29h1v1h-1z M12,29h1v1h-1z M16,29h1v1h-1z M19,29h1v1h-1z M20,29h1v1h-1z M21,29h1v1h-1z M23,29h1v1h-1z M27,29h1v1h-1z M28,29h1v1h-1z M32,29h1v1h-1z M35,29h1v1h-1z M37,29h1v1h-1z M38,29h1v1h-1z M39,29h1v1h-1z M41,29h1v1h-1z M45,29h1v1h-1z M46,29h1v1h-1z M48,29h1v1h-1z M50,29h1v1h-1z M51,29h1v1h-1z M52,29h1v1h-1z M56,29h1v1h-1z M58,29h1v1h-1z M64,29h1v1h-1z M66,29h1v1h-1z M68,29h1v1h-1z M69,29h1v1h-1z M71,29h1v1h-1z M73,29h1v1h-1z M74,29h1v1h-1z M76,29h1v1h-1z M80,29h1v1h-1z M82,29h1v1h-1z M84,29h1v1h-1z M87,29h1v1h-1z M88,29h1v1h-1z M91,29h1v1h-1z M92,29h1v1h-1z M95,29h1v1h-1z M96,29h1v1h-1z M98,29h1v1h-1z M100,29h1v1h-1z M104,29h1v1h-1z M108,29h1v1h-1z M4,30h1v1h-1z M8,30h1v1h-1z M10,30h1v1h-1z M12,30h1v1h-1z M13,30h1v1h-1z M16,30h1v1h-1z M17,30h1v1h-1z M19,30h1v1h-1z M22,30h1v1h-1z M23,30h1v1h-1z M27,30h1v1h-1z M28,30h1v1h-1z M30,30h1v1h-1z M32,30h1v1h-1z M33,30h1v1h-1z M34,30h1v1h-1z M36,30h1v1h-1z M37,30h1v1h-1z M40,30h1v1h-1z M41,30h1v1h-1z M43,30h1v1h-1z M45,30h1v1h-1z M46,30h1v1h-1z M48,30h1v1h-1z M52,30h1v1h-1z M54,30h1v1h-1z M56,30h1v1h-1z M57,30h1v1h-1z M58,30h1v1h-1z M59,30h1v1h-1z M65,30h1v1h-1z M67,30h1v1h-1z M68,30h1v1h-1z M70,30h1v1h-1z M71,30h1v1h-1z M72,30h1v1h-1z M75,30h1v1h-1z M76,30h1v1h-1z M78,30h1v1h-1z M80,30h1v1h-1z M81,30h1v1h-1z M82,30h1v1h-1z M83,30h1v1h-1z M84,30h1v1h-1z M88,30h1v1h-1z M89,30h1v1h-1z M91,30h1v1h-1z M93,30h1v1h-1z M94,30h1v1h-1z M96,30h1v1h-1z M99,30h1v1h-1z M100,30h1v1h-1z M102,30h1v1h-1z M104,30h1v1h-1z M105,30h1v1h-1z M106,30h1v1h-1z M107,30h1v1h-1z M5,31h1v1h-1z M6,31h1v1h-1z M7,31h1v1h-1z M8,31h1v1h-1z M12,31h1v1h-1z M13,31h1v1h-1z M14,31h1v1h-1z M18,31h1v1h-1z M23,31h1v1h-1z M24,31h1v1h-1z M26,31h1v1h-1z M28,31h1v1h-1z M32,31h1v1h-1z M35,31h1v1h-1z M38,31h1v1h-1z M39,31h1v1h-1z M40,31h1v1h-1z M45,31h1v1h-1z M46,31h1v1h-1z M50,31h1v1h-1z M52,31h1v1h-1z M56,31h1v1h-1z M57,31h1v1h-1z M59,31h1v1h-1z M62,31h1v1h-1z M63,31h1v1h-1z M64,31h1v1h-1z M69,31h1v1h-1z M71,31h1v1h-1z M73,31h1v1h-1z M76,31h1v1h-1z M80,31h1v1h-1z M85,31h1v1h-1z M86,31h1v1h-1z M87,31h1v1h-1z M88,31h1v1h-1z M89,31h1v1h-1z M90,31h1v1h-1z M93,31h1v1h-1z M97,31h1v1h-1z M98,31h1v1h-1z M100,31h1v1h-1z M104,31h1v1h-1z M105,31h1v1h-1z M106,31h1v1h-1z M5,32h1v1h-1z M8,32h1v1h-1z M9,32h1v1h-1z M10,32h1v1h-1z M11,32h1v1h-1z M12,32h1v1h-1z M15,32h1v1h-1z M18,32h1v1h-1z M19,32h1v1h-1z M20,32h1v1h-1z M24,32h1v1h-1z M26,32h1v1h-1z M28,32h1v1h-1z M29,32h1v1h-1z M30,32h1v1h-1z M31,32h1v1h-1z M32,32h1v1h-1z M35,32h1v1h-1z M37,32h1v1h-1z M38,32h1v1h-1z M39,32h1v1h-1z M41,32h1v1h-1z M43,32h1v1h-1z M44,32h1v1h-1z M45,32h1v1h-1z M46,32h1v1h-1z M47,32h1v1h-1z M48,32h1v1h-1z M50,32h1v1h-1z M51,32h1v1h-1z M52,32h1v1h-1z M53,32h1v1h-1z M54,32h1v1h-1z M55,32h1v1h-1z M56,32h1v1h-1z M58,32h1v1h-1z M61,32h1v1h-1z M62,32h1v1h-1z M63,32h1v1h-1z M66,32h1v1h-1z M68,32h1v1h-1z M70,32h1v1h-1z M72,32h1v1h-1z M76,32h1v1h-1z M77,32h1v1h-1z M78,32h1v1h-1z M79,32h1v1h-1z M80,32h1v1h-1z M81,32h1v1h-1z M85,32h1v1h-1z M86,32h1v1h-1z M87,32h1v1h-1z M88,32h1v1h-1z M90,32h1v1h-1z M93,32h1v1h-1z M95,32h1v1h-1z M97,32h1v1h-1z M100,32h1v1h-1z M101,32h1v1h-1z M102,32h1v1h-1z M103,32h1v1h-1z M104,32h1v1h-1z M105,32h1v1h-1z M106,32h1v1h-1z M108,32h1v1h-1z M5,33h1v1h-1z M6,33h1v1h-1z M7,33h1v1h-1z M11,33h1v1h-1z M13,33h1v1h-1z M14,33h1v1h-1z M16,33h1v1h-1z M18,33h1v1h-1z M22,33h1v1h-1z M23,33h1v1h-1z M25,33h1v1h-1z M26,33h1v1h-1z M27,33h1v1h-1z M28,33h1v1h-1z M29,33h1v1h-1z M30,33h1v1h-1z M31,33h1v1h-1z M32,33h1v1h-1z M37,33h1v1h-1z M38,33h1v1h-1z M39,33h1v1h-1z M40,33h1v1h-1z M41,33h1v1h-1z M42,33h1v1h-1z M43,33h1v1h-1z M44,33h1v1h-1z M45,33h1v1h-1z M50,33h1v1h-1z M51,33h1v1h-1z M54,33h1v1h-1z M55,33h1v1h-1z M56,33h1v1h-1z M60,33h1v1h-1z M64,33h1v1h-1z M65,33h1v1h-1z M69,33h1v1h-1z M71,33h1v1h-1z M76,33h1v1h-1z M81,33h1v1h-1z M86,33h1v1h-1z M88,33h1v1h-1z M90,33h1v1h-1z M91,33h1v1h-1z M92,33h1v1h-1z M96,33h1v1h-1z M98,33h1v1h-1z M100,33h1v1h-1z M101,33h1v1h-1z M107,33h1v1h-1z M108,33h1v1h-1z M5,34h1v1h-1z M10,34h1v1h-1z M11,34h1v1h-1z M13,34h1v1h-1z M15,34h1v1h-1z M17,34h1v1h-1z M19,34h1v1h-1z M21,34h1v1h-1z M22,34h1v1h-1z M23,34h1v1h-1z M24,34h1v1h-1z M26,34h1v1h-1z M28,34h1v1h-1z M29,34h1v1h-1z M30,34h1v1h-1z M31,34h1v1h-1z M32,34h1v1h-1z M33,34h1v1h-1z M34,34h1v1h-1z M39,34h1v1h-1z M40,34h1v1h-1z M44,34h1v1h-1z M45,34h1v1h-1z M46,34h1v1h-1z M47,34h1v1h-1z M48,34h1v1h-1z M49,34h1v1h-1z M52,34h1v1h-1z M55,34h1v1h-1z M57,34h1v1h-1z M58,34h1v1h-1z M59,34h1v1h-1z M61,34h1v1h-1z M63,34h1v1h-1z M65,34h1v1h-1z M67,34h1v1h-1z M69,34h1v1h-1z M70,34h1v1h-1z M71,34h1v1h-1z M72,34h1v1h-1z M75,34h1v1h-1z M76,34h1v1h-1z M78,34h1v1h-1z M79,34h1v1h-1z M80,34h1v1h-1z M81,34h1v1h-1z M82,34h1v1h-1z M84,34h1v1h-1z M88,34h1v1h-1z M89,34h1v1h-1z M91,34h1v1h-1z M93,34h1v1h-1z M94,34h1v1h-1z M96,34h1v1h-1z M99,34h1v1h-1z M104,34h1v1h-1z M106,34h1v1h-1z M6,35h1v1h-1z M11,35h1v1h-1z M13,35h1v1h-1z M17,35h1v1h-1z M20,35h1v1h-1z M21,35h1v1h-1z M25,35h1v1h-1z M33,35h1v1h-1z M34,35h1v1h-1z M35,35h1v1h-1z M39,35h1v1h-1z M40,35h1v1h-1z M41,35h1v1h-1z M42,35h1v1h-1z M47,35h1v1h-1z M49,35h1v1h-1z M50,35h1v1h-1z M53,35h1v1h-1z M56,35h1v1h-1z M57,35h1v1h-1z M58,35h1v1h-1z M59,35h1v1h-1z M62,35h1v1h-1z M64,35h1v1h-1z M71,35h1v1h-1z M73,35h1v1h-1z M74,35h1v1h-1z M77,35h1v1h-1z M79,35h1v1h-1z M80,35h1v1h-1z M81,35h1v1h-1z M83,35h1v1h-1z M87,35h1v1h-1z M88,35h1v1h-1z M89,35h1v1h-1z M93,35h1v1h-1z M97,35h1v1h-1z M102,35h1v1h-1z M105,35h1v1h-1z M106,35h1v1h-1z M108,35h1v1h-1z M4,36h1v1h-1z M8,36h1v1h-1z M10,36h1v1h-1z M12,36h1v1h-1z M15,36h1v1h-1z M17,36h1v1h-1z M19,36h1v1h-1z M20,36h1v1h-1z M22,36h1v1h-1z M24,36h1v1h-1z M25,36h1v1h-1z M26,36h1v1h-1z M29,36h1v1h-1z M30,36h1v1h-1z M33,36h1v1h-1z M35,36h1v1h-1z M37,36h1v1h-1z M38,36h1v1h-1z M40,36h1v1h-1z M41,36h1v1h-1z M43,36h1v1h-1z M44,36h1v1h-1z M48,36h1v1h-1z M53,36h1v1h-1z M54,36h1v1h-1z M57,36h1v1h-1z M58,36h1v1h-1z M61,36h1v1h-1z M64,36h1v1h-1z M65,36h1v1h-1z M70,36h1v1h-1z M77,36h1v1h-1z M78,36h1v1h-1z M83,36h1v1h-1z M87,36h1v1h-1z M89,36h1v1h-1z M91,36h1v1h-1z M92,36h1v1h-1z M97,36h1v1h-1z M100,36h1v1h-1z M101,36h1v1h-1z M103,36h1v1h-1z M106,36h1v1h-1z M108,36h1v1h-1z M4,37h1v1h-1z M6,37h1v1h-1z M7,37h1v1h-1z M8,37h1v1h-1z M9,37h1v1h-1z M11,37h1v1h-1z M14,37h1v1h-1z M15,37h1v1h-1z M16,37h1v1h-1z M19,37h1v1h-1z M20,37h1v1h-1z M21,37h1v1h-1z M26,37h1v1h-1z M27,37h1v1h-1z M28,37h1v1h-1z M29,37h1v1h-1z M32,37h1v1h-1z M33,37h1v1h-1z M37,37h1v1h-1z M43,37h1v1h-1z M44,37h1v1h-1z M52,37h1v1h-1z M56,37h1v1h-1z M57,37h1v1h-1z M59,37h1v1h-1z M61,37h1v1h-1z M62,37h1v1h-1z M63,37h1v1h-1z M64,37h1v1h-1z M66,37h1v1h-1z M73,37h1v1h-1z M74,37h1v1h-1z M75,37h1v1h-1z M76,37h1v1h-1z M77,37h1v1h-1z M80,37h1v1h-1z M82,37h1v1h-1z M84,37h1v1h-1z M89,37h1v1h-1z M93,37h1v1h-1z M95,37h1v1h-1z M97,37h1v1h-1z M98,37h1v1h-1z M100,37h1v1h-1z M101,37h1v1h-1z M106,37h1v1h-1z M107,37h1v1h-1z M4,38h1v1h-1z M5,38h1v1h-1z M7,38h1v1h-1z M8,38h1v1h-1z M10,38h1v1h-1z M13,38h1v1h-1z M15,38h1v1h-1z M16,38h1v1h-1z M21,38h1v1h-1z M28,38h1v1h-1z M30,38h1v1h-1z M31,38h1v1h-1z M33,38h1v1h-1z M34,38h1v1h-1z M39,38h1v1h-1z M40,38h1v1h-1z M41,38h1v1h-1z M44,38h1v1h-1z M45,38h1v1h-1z M46,38h1v1h-1z M52,38h1v1h-1z M53,38h1v1h-1z M56,38h1v1h-1z M58,38h1v1h-1z M60,38h1v1h-1z M65,38h1v1h-1z M68,38h1v1h-1z M69,38h1v1h-1z M70,38h1v1h-1z M76,38h1v1h-1z M78,38h1v1h-1z M80,38h1v1h-1z M81,38h1v1h-1z M82,38h1v1h-1z M85,38h1v1h-1z M88,38h1v1h-1z M89,38h1v1h-1z M91,38h1v1h-1z M93,38h1v1h-1z M94,38h1v1h-1z M101,38h1v1h-1z M103,38h1v1h-1z M104,38h1v1h-1z M105,38h1v1h-1z M106,38h1v1h-1z M107,38h1v1h-1z M4,39h1v1h-1z M7,39h1v1h-1z M8,39h1v1h-1z M11,39h1v1h-1z M13,39h1v1h-1z M14,39h1v1h-1z M16,39h1v1h-1z M17,39h1v1h-1z M22,39h1v1h-1z M25,39h1v1h-1z M27,39h1v1h-1z M29,39h1v1h-1z M31,39h1v1h-1z M33,39h1v1h-1z M35,39h1v1h-1z M37,39h1v1h-1z M39,39h1v1h-1z M40,39h1v1h-1z M42,39h1v1h-1z M43,39h1v1h-1z M45,39h1v1h-1z M46,39h1v1h-1z M47,39h1v1h-1z M49,39h1v1h-1z M50,39h1v1h-1z M51,39h1v1h-1z M53,39h1v1h-1z M56,39h1v1h-1z M59,39h1v1h-1z M61,39h1v1h-1z M62,39h1v1h-1z M63,39h1v1h-1z M64,39h1v1h-1z M65,39h1v1h-1z M66,39h1v1h-1z M70,39h1v1h-1z M71,39h1v1h-1z M73,39h1v1h-1z M74,39h1v1h-1z M77,39h1v1h-1z M81,39h1v1h-1z M83,39h1v1h-1z M86,39h1v1h-1z M87,39h1v1h-1z M88,39h1v1h-1z M90,39h1v1h-1z M95,39h1v1h-1z M97,39h1v1h-1z M100,39h1v1h-1z M102,39h1v1h-1z M103,39h1v1h-1z M105,39h1v1h-1z M106,39h1v1h-1z M107,39h1v1h-1z M5,40h1v1h-1z M6,40h1v1h-1z M7,40h1v1h-1z M9,40h1v1h-1z M10,40h1v1h-1z M13,40h1v1h-1z M14,40h1v1h-1z M16,40h1v1h-1z M18,40h1v1h-1z M20,40h1v1h-1z M21,40h1v1h-1z M23,40h1v1h-1z M24,40h1v1h-1z M25,40h1v1h-1z M26,40h1v1h-1z M29,40h1v1h-1z M30,40h1v1h-1z M34,40h1v1h-1z M35,40h1v1h-1z M37,40h1v1h-1z M38,40h1v1h-1z M39,40h1v1h-1z M41,40h1v1h-1z M43,40h1v1h-1z M58,40h1v1h-1z M60,40h1v1h-1z M61,40h1v1h-1z M63,40h1v1h-1z M68,40h1v1h-1z M72,40h1v1h-1z M74,40h1v1h-1z M78,40h1v1h-1z M82,40h1v1h-1z M84,40h1v1h-1z M87,40h1v1h-1z M88,40h1v1h-1z M90,40h1v1h-1z M93,40h1v1h-1z M95,40h1v1h-1z M96,40h1v1h-1z M97,40h1v1h-1z M99,40h1v1h-1z M101,40h1v1h-1z M105,40h1v1h-1z M106,40h1v1h-1z M7,41h1v1h-1z M8,41h1v1h-1z M12,41h1v1h-1z M13,41h1v1h-1z M16,41h1v1h-1z M17,41h1v1h-1z M18,41h1v1h-1z M23,41h1v1h-1z M24,41h1v1h-1z M27,41h1v1h-1z M28,41h1v1h-1z M30,41h1v1h-1z M31,41h1v1h-1z M32,41h1v1h-1z M33,41h1v1h-1z M36,41h1v1h-1z M37,41h1v1h-1z M38,41h1v1h-1z M39,41h1v1h-1z M40,41h1v1h-1z M44,41h1v1h-1z M46,41h1v1h-1z M47,41h1v1h-1z M50,41h1v1h-1z M51,41h1v1h-1z M52,41h1v1h-1z M54,41h1v1h-1z M60,41h1v1h-1z M61,41h1v1h-1z M64,41h1v1h-1z M65,41h1v1h-1z M67,41h1v1h-1z M71,41h1v1h-1z M74,41h1v1h-1z M76,41h1v1h-1z M78,41h1v1h-1z M79,41h1v1h-1z M86,41h1v1h-1z M87,41h1v1h-1z M88,41h1v1h-1z M91,41h1v1h-1z M93,41h1v1h-1z M94,41h1v1h-1z M95,41h1v1h-1z M96,41h1v1h-1z M97,41h1v1h-1z M98,41h1v1h-1z M99,41h1v1h-1z M100,41h1v1h-1z M102,41h1v1h-1z M106,41h1v1h-1z M4,42h1v1h-1z M5,42h1v1h-1z M6,42h1v1h-1z M9,42h1v1h-1z M10,42h1v1h-1z M12,42h1v1h-1z M13,42h1v1h-1z M14,42h1v1h-1z M15,42h1v1h-1z M16,42h1v1h-1z M18,42h1v1h-1z M21,42h1v1h-1z M22,42h1v1h-1z M23,42h1v1h-1z M24,42h1v1h-1z M25,42h1v1h-1z M27,42h1v1h-1z M28,42h1v1h-1z M29,42h1v1h-1z M31,42h1v1h-1z M32,42h1v1h-1z M33,42h1v1h-1z M34,42h1v1h-1z M35,42h1v1h-1z M36,42h1v1h-1z M39,42h1v1h-1z M40,42h1v1h-1z M43,42h1v1h-1z M44,42h1v1h-1z M45,42h1v1h-1z M46,42h1v1h-1z M51,42h1v1h-1z M53,42h1v1h-1z M54,42h1v1h-1z M57,42h1v1h-1z M58,42h1v1h-1z M63,42h1v1h-1z M65,42h1v1h-1z M67,42h1v1h-1z M68,42h1v1h-1z M69,42h1v1h-1z M70,42h1v1h-1z M71,42h1v1h-1z M72,42h1v1h-1z M75,42h1v1h-1z M77,42h1v1h-1z M79,42h1v1h-1z M80,42h1v1h-1z M81,42h1v1h-1z M82,42h1v1h-1z M83,42h1v1h-1z M84,42h1v1h-1z M87,42h1v1h-1z M88,42h1v1h-1z M89,42h1v1h-1z M93,42h1v1h-1z M94,42h1v1h-1z M95,42h1v1h-1z M97,42h1v1h-1z M102,42h1v1h-1z M104,42h1v1h-1z M105,42h1v1h-1z M106,42h1v1h-1z M107,42h1v1h-1z M7,43h1v1h-1z M12,43h1v1h-1z M13,43h1v1h-1z M15,43h1v1h-1z M16,43h1v1h-1z M18,43h1v1h-1z M19,43h1v1h-1z M21,43h1v1h-1z M22,43h1v1h-1z M26,43h1v1h-1z M27,43h1v1h-1z M31,43h1v1h-1z M37,43h1v1h-1z M38,43h1v1h-1z M39,43h1v1h-1z M40,43h1v1h-1z M42,43h1v1h-1z M46,43h1v1h-1z M47,43h1v1h-1z M49,43h1v1h-1z M53,43h1v1h-1z M56,43h1v1h-1z M58,43h1v1h-1z M59,43h1v1h-1z M62,43h1v1h-1z M63,43h1v1h-1z M64,43h1v1h-1z M70,43h1v1h-1z M71,43h1v1h-1z M75,43h1v1h-1z M76,43h1v1h-1z M80,43h1v1h-1z M81,43h1v1h-1z M86,43h1v1h-1z M87,43h1v1h-1z M88,43h1v1h-1z M90,43h1v1h-1z M95,43h1v1h-1z M98,43h1v1h-1z M105,43h1v1h-1z M106,43h1v1h-1z M107,43h1v1h-1z M5,44h1v1h-1z M6,44h1v1h-1z M7,44h1v1h-1z M9,44h1v1h-1z M10,44h1v1h-1z M13,44h1v1h-1z M17,44h1v1h-1z M20,44h1v1h-1z M29,44h1v1h-1z M30,44h1v1h-1z M34,44h1v1h-1z M35,44h1v1h-1z M36,44h1v1h-1z M37,44h1v1h-1z M40,44h1v1h-1z M42,44h1v1h-1z M49,44h1v1h-1z M52,44h1v1h-1z M55,44h1v1h-1z M62,44h1v1h-1z M67,44h1v1h-1z M72,44h1v1h-1z M73,44h1v1h-1z M74,44h1v1h-1z M76,44h1v1h-1z M77,44h1v1h-1z M78,44h1v1h-1z M79,44h1v1h-1z M82,44h1v1h-1z M84,44h1v1h-1z M85,44h1v1h-1z M87,44h1v1h-1z M88,44h1v1h-1z M89,44h1v1h-1z M91,44h1v1h-1z M94,44h1v1h-1z M96,44h1v1h-1z M97,44h1v1h-1z M98,44h1v1h-1z M100,44h1v1h-1z M101,44h1v1h-1z M103,44h1v1h-1z M106,44h1v1h-1z M108,44h1v1h-1z M4,45h1v1h-1z M5,45h1v1h-1z M6,45h1v1h-1z M11,45h1v1h-1z M13,45h1v1h-1z M16,45h1v1h-1z M17,45h1v1h-1z M18,45h1v1h-1z M20,45h1v1h-1z M21,45h1v1h-1z M23,45h1v1h-1z M25,45h1v1h-1z M27,45h1v1h-1z M29,45h1v1h-1z M31,45h1v1h-1z M32,45h1v1h-1z M35,45h1v1h-1z M39,45h1v1h-1z M45,45h1v1h-1z M46,45h1v1h-1z M48,45h1v1h-1z M53,45h1v1h-1z M55,45h1v1h-1z M57,45h1v1h-1z M60,45h1v1h-1z M61,45h1v1h-1z M62,45h1v1h-1z M63,45h1v1h-1z M64,45h1v1h-1z M65,45h1v1h-1z M74,45h1v1h-1z M75,45h1v1h-1z M78,45h1v1h-1z M79,45h1v1h-1z M88,45h1v1h-1z M93,45h1v1h-1z M98,45h1v1h-1z M99,45h1v1h-1z M100,45h1v1h-1z M102,45h1v1h-1z M103,45h1v1h-1z M104,45h1v1h-1z M108,45h1v1h-1z M4,46h1v1h-1z M5,46h1v1h-1z M7,46h1v1h-1z M9,46h1v1h-1z M10,46h1v1h-1z M11,46h1v1h-1z M12,46h1v1h-1z M13,46h1v1h-1z M16,46h1v1h-1z M19,46h1v1h-1z M22,46h1v1h-1z M28,46h1v1h-1z M29,46h1v1h-1z M31,46h1v1h-1z M32,46h1v1h-1z M33,46h1v1h-1z M34,46h1v1h-1z M36,46h1v1h-1z M39,46h1v1h-1z M40,46h1v1h-1z M41,46h1v1h-1z M44,46h1v1h-1z M45,46h1v1h-1z M46,46h1v1h-1z M47,46h1v1h-1z M48,46h1v1h-1z M51,46h1v1h-1z M54,46h1v1h-1z M57,46h1v1h-1z M58,46h1v1h-1z M59,46h1v1h-1z M60,46h1v1h-1z M65,46h1v1h-1z M69,46h1v1h-1z M70,46h1v1h-1z M71,46h1v1h-1z M72,46h1v1h-1z M77,46h1v1h-1z M78,46h1v1h-1z M79,46h1v1h-1z M80,46h1v1h-1z M81,46h1v1h-1z M82,46h1v1h-1z M83,46h1v1h-1z M84,46h1v1h-1z M85,46h1v1h-1z M89,46h1v1h-1z M92,46h1v1h-1z M93,46h1v1h-1z M94,46h1v1h-1z M97,46h1v1h-1z M99,46h1v1h-1z M101,46h1v1h-1z M103,46h1v1h-1z M106,46h1v1h-1z M107,46h1v1h-1z M5,47h1v1h-1z M6,47h1v1h-1z M7,47h1v1h-1z M8,47h1v1h-1z M9,47h1v1h-1z M11,47h1v1h-1z M13,47h1v1h-1z M18,47h1v1h-1z M20,47h1v1h-1z M22,47h1v1h-1z M25,47h1v1h-1z M32,47h1v1h-1z M35,47h1v1h-1z M37,47h1v1h-1z M39,47h1v1h-1z M40,47h1v1h-1z M42,47h1v1h-1z M43,47h1v1h-1z M49,47h1v1h-1z M50,47h1v1h-1z M53,47h1v1h-1z M55,47h1v1h-1z M56,47h1v1h-1z M58,47h1v1h-1z M59,47h1v1h-1z M61,47h1v1h-1z M62,47h1v1h-1z M63,47h1v1h-1z M64,47h1v1h-1z M65,47h1v1h-1z M69,47h1v1h-1z M71,47h1v1h-1z M75,47h1v1h-1z M76,47h1v1h-1z M77,47h1v1h-1z M79,47h1v1h-1z M81,47h1v1h-1z M83,47h1v1h-1z M86,47h1v1h-1z M87,47h1v1h-1z M88,47h1v1h-1z M89,47h1v1h-1z M91,47h1v1h-1z M93,47h1v1h-1z M94,47h1v1h-1z M95,47h1v1h-1z M98,47h1v1h-1z M105,47h1v1h-1z M106,47h1v1h-1z M107,47h1v1h-1z M108,47h1v1h-1z M4,48h1v1h-1z M5,48h1v1h-1z M9,48h1v1h-1z M10,48h1v1h-1z M12,48h1v1h-1z M13,48h1v1h-1z M14,48h1v1h-1z M16,48h1v1h-1z M17,48h1v1h-1z M18,48h1v1h-1z M19,48h1v1h-1z M20,48h1v1h-1z M22,48h1v1h-1z M23,48h1v1h-1z M24,48h1v1h-1z M29,48h1v1h-1z M30,48h1v1h-1z M31,48h1v1h-1z M35,48h1v1h-1z M36,48h1v1h-1z M39,48h1v1h-1z M40,48h1v1h-1z M42,48h1v1h-1z M45,48h1v1h-1z M46,48h1v1h-1z M48,48h1v1h-1z M49,48h1v1h-1z M50,48h1v1h-1z M52,48h1v1h-1z M57,48h1v1h-1z M58,48h1v1h-1z M59,48h1v1h-1z M60,48h1v1h-1z M62,48h1v1h-1z M63,48h1v1h-1z M65,48h1v1h-1z M67,48h1v1h-1z M69,48h1v1h-1z M76,48h1v1h-1z M82,48h1v1h-1z M84,48h1v1h-1z M85,48h1v1h-1z M88,48h1v1h-1z M93,48h1v1h-1z M94,48h1v1h-1z M97,48h1v1h-1z M98,48h1v1h-1z M100,48h1v1h-1z M101,48h1v1h-1z M103,48h1v1h-1z M108,48h1v1h-1z M4,49h1v1h-1z M7,49h1v1h-1z M9,49h1v1h-1z M15,49h1v1h-1z M18,49h1v1h-1z M19,49h1v1h-1z M21,49h1v1h-1z M22,49h1v1h-1z M24,49h1v1h-1z M26,49h1v1h-1z M29,49h1v1h-1z M30,49h1v1h-1z M31,49h1v1h-1z M32,49h1v1h-1z M34,49h1v1h-1z M35,49h1v1h-1z M36,49h1v1h-1z M37,49h1v1h-1z M38,49h1v1h-1z M40,49h1v1h-1z M41,49h1v1h-1z M46,49h1v1h-1z M49,49h1v1h-1z M50,49h1v1h-1z M52,49h1v1h-1z M54,49h1v1h-1z M55,49h1v1h-1z M58,49h1v1h-1z M64,49h1v1h-1z M65,49h1v1h-1z M66,49h1v1h-1z M70,49h1v1h-1z M71,49h1v1h-1z M72,49h1v1h-1z M77,49h1v1h-1z M79,49h1v1h-1z M80,49h1v1h-1z M82,49h1v1h-1z M83,49h1v1h-1z M84,49h1v1h-1z M86,49h1v1h-1z M87,49h1v1h-1z M90,49h1v1h-1z M93,49h1v1h-1z M95,49h1v1h-1z M96,49h1v1h-1z M97,49h1v1h-1z M98,49h1v1h-1z M99,49h1v1h-1z M101,49h1v1h-1z M102,49h1v1h-1z M103,49h1v1h-1z M104,49h1v1h-1z M108,49h1v1h-1z M5,50h1v1h-1z M7,50h1v1h-1z M8,50h1v1h-1z M9,50h1v1h-1z M10,50h1v1h-1z M12,50h1v1h-1z M14,50h1v1h-1z M15,50h1v1h-1z M16,50h1v1h-1z M17,50h1v1h-1z M19,50h1v1h-1z M21,50h1v1h-1z M24,50h1v1h-1z M26,50h1v1h-1z M27,50h1v1h-1z M30,50h1v1h-1z M31,50h1v1h-1z M33,50h1v1h-1z M34,50h1v1h-1z M36,50h1v1h-1z M40,50h1v1h-1z M41,50h1v1h-1z M43,50h1v1h-1z M44,50h1v1h-1z M45,50h1v1h-1z M46,50h1v1h-1z M47,50h1v1h-1z M48,50h1v1h-1z M53,50h1v1h-1z M56,50h1v1h-1z M57,50h1v1h-1z M58,50h1v1h-1z M65,50h1v1h-1z M67,50h1v1h-1z M69,50h1v1h-1z M70,50h1v1h-1z M72,50h1v1h-1z M76,50h1v1h-1z M78,50h1v1h-1z M79,50h1v1h-1z M81,50h1v1h-1z M82,50h1v1h-1z M83,50h1v1h-1z M87,50h1v1h-1z M88,50h1v1h-1z M89,50h1v1h-1z M93,50h1v1h-1z M94,50h1v1h-1z M96,50h1v1h-1z M102,50h1v1h-1z M103,50h1v1h-1z M105,50h1v1h-1z M106,50h1v1h-1z M107,50h1v1h-1z M5,51h1v1h-1z M8,51h1v1h-1z M9,51h1v1h-1z M12,51h1v1h-1z M13,51h1v1h-1z M17,51h1v1h-1z M18,51h1v1h-1z M21,51h1v1h-1z M24,51h1v1h-1z M26,51h1v1h-1z M27,51h1v1h-1z M28,51h1v1h-1z M29,51h1v1h-1z M33,51h1v1h-1z M35,51h1v1h-1z M39,51h1v1h-1z M40,51h1v1h-1z M43,51h1v1h-1z M47,51h1v1h-1z M50,51h1v1h-1z M51,51h1v1h-1z M52,51h1v1h-1z M53,51h1v1h-1z M56,51h1v1h-1z M59,51h1v1h-1z M61,51h1v1h-1z M62,51h1v1h-1z M63,51h1v1h-1z M64,51h1v1h-1z M66,51h1v1h-1z M71,51h1v1h-1z M73,51h1v1h-1z M74,51h1v1h-1z M77,51h1v1h-1z M83,51h1v1h-1z M85,51h1v1h-1z M86,51h1v1h-1z M87,51h1v1h-1z M88,51h1v1h-1z M89,51h1v1h-1z M94,51h1v1h-1z M95,51h1v1h-1z M97,51h1v1h-1z M98,51h1v1h-1z M100,51h1v1h-1z M101,51h1v1h-1z M102,51h1v1h-1z M105,51h1v1h-1z M106,51h1v1h-1z M107,51h1v1h-1z M108,51h1v1h-1z M5,52h1v1h-1z M6,52h1v1h-1z M7,52h1v1h-1z M8,52h1v1h-1z M9,52h1v1h-1z M10,52h1v1h-1z M11,52h1v1h-1z M12,52h1v1h-1z M14,52h1v1h-1z M16,52h1v1h-1z M18,52h1v1h-1z M20,52h1v1h-1z M23,52h1v1h-1z M25,52h1v1h-1z M26,52h1v1h-1z M28,52h1v1h-1z M29,52h1v1h-1z M30,52h1v1h-1z M31,52h1v1h-1z M32,52h1v1h-1z M33,52h1v1h-1z M40,52h1v1h-1z M44,52h1v1h-1z M50,52h1v1h-1z M52,52h1v1h-1z M53,52h1v1h-1z M54,52h1v1h-1z M55,52h1v1h-1z M56,52h1v1h-1z M57,52h1v1h-1z M59,52h1v1h-1z M63,52h1v1h-1z M64,52h1v1h-1z M65,52h1v1h-1z M66,52h1v1h-1z M67,52h1v1h-1z M68,52h1v1h-1z M71,52h1v1h-1z M73,52h1v1h-1z M74,52h1v1h-1z M76,52h1v1h-1z M77,52h1v1h-1z M78,52h1v1h-1z M79,52h1v1h-1z M80,52h1v1h-1z M81,52h1v1h-1z M82,52h1v1h-1z M84,52h1v1h-1z M85,52h1v1h-1z M88,52h1v1h-1z M93,52h1v1h-1z M94,52h1v1h-1z M96,52h1v1h-1z M97,52h1v1h-1z M100,52h1v1h-1z M101,52h1v1h-1z M102,52h1v1h-1z M103,52h1v1h-1z M104,52h1v1h-1z M105,52h1v1h-1z M4,53h1v1h-1z M5,53h1v1h-1z M7,53h1v1h-1z M8,53h1v1h-1z M12,53h1v1h-1z M13,53h1v1h-1z M14,53h1v1h-1z M16,53h1v1h-1z M17,53h1v1h-1z M21,53h1v1h-1z M22,53h1v1h-1z M23,53h1v1h-1z M26,53h1v1h-1z M27,53h1v1h-1z M28,53h1v1h-1z M32,53h1v1h-1z M34,53h1v1h-1z M36,53h1v1h-1z M37,53h1v1h-1z M38,53h1v1h-1z M43,53h1v1h-1z M48,53h1v1h-1z M49,53h1v1h-1z M50,53h1v1h-1z M52,53h1v1h-1z M56,53h1v1h-1z M57,53h1v1h-1z M58,53h1v1h-1z M60,53h1v1h-1z M62,53h1v1h-1z M64,53h1v1h-1z M65,53h1v1h-1z M67,53h1v1h-1z M68,53h1v1h-1z M69,53h1v1h-1z M72,53h1v1h-1z M74,53h1v1h-1z M75,53h1v1h-1z M76,53h1v1h-1z M80,53h1v1h-1z M81,53h1v1h-1z M82,53h1v1h-1z M87,53h1v1h-1z M88,53h1v1h-1z M94,53h1v1h-1z M100,53h1v1h-1z M104,53h1v1h-1z M105,53h1v1h-1z M106,53h1v1h-1z M5,54h1v1h-1z M8,54h1v1h-1z M10,54h1v1h-1z M12,54h1v1h-1z M14,54h1v1h-1z M17,54h1v1h-1z M18,54h1v1h-1z M25,54h1v1h-1z M26,54h1v1h-1z M28,54h1v1h-1z M30,54h1v1h-1z M32,54h1v1h-1z M33,54h1v1h-1z M34,54h1v1h-1z M39,54h1v1h-1z M41,54h1v1h-1z M43,54h1v1h-1z M44,54h1v1h-1z M45,54h1v1h-1z M46,54h1v1h-1z M51,54h1v1h-1z M52,54h1v1h-1z M54,54h1v1h-1z M56,54h1v1h-1z M57,54h1v1h-1z M58,54h1v1h-1z M64,54h1v1h-1z M65,54h1v1h-1z M67,54h1v1h-1z M68,54h1v1h-1z M69,54h1v1h-1z M70,54h1v1h-1z M72,54h1v1h-1z M73,54h1v1h-1z M76,54h1v1h-1z M78,54h1v1h-1z M80,54h1v1h-1z M81,54h1v1h-1z M82,54h1v1h-1z M83,54h1v1h-1z M87,54h1v1h-1z M88,54h1v1h-1z M89,54h1v1h-1z M92,54h1v1h-1z M93,54h1v1h-1z M94,54h1v1h-1z M95,54h1v1h-1z M96,54h1v1h-1z M99,54h1v1h-1z M100,54h1v1h-1z M102,54h1v1h-1z M104,54h1v1h-1z M105,54h1v1h-1z M107,54h1v1h-1z M7,55h1v1h-1z M8,55h1v1h-1z M12,55h1v1h-1z M13,55h1v1h-1z M17,55h1v1h-1z M19,55h1v1h-1z M20,55h1v1h-1z M22,55h1v1h-1z M24,55h1v1h-1z M25,55h1v1h-1z M28,55h1v1h-1z M32,55h1v1h-1z M33,55h1v1h-1z M34,55h1v1h-1z M35,55h1v1h-1z M40,55h1v1h-1z M41,55h1v1h-1z M42,55h1v1h-1z M45,55h1v1h-1z M46,55h1v1h-1z M47,55h1v1h-1z M50,55h1v1h-1z M52,55h1v1h-1z M56,55h1v1h-1z M59,55h1v1h-1z M61,55h1v1h-1z M63,55h1v1h-1z M64,55h1v1h-1z M65,55h1v1h-1z M66,55h1v1h-1z M69,55h1v1h-1z M70,55h1v1h-1z M71,55h1v1h-1z M74,55h1v1h-1z M75,55h1v1h-1z M76,55h1v1h-1z M80,55h1v1h-1z M81,55h1v1h-1z M83,55h1v1h-1z M87,55h1v1h-1z M88,55h1v1h-1z M90,55h1v1h-1z M97,55h1v1h-1z M98,55h1v1h-1z M100,55h1v1h-1z M104,55h1v1h-1z M105,55h1v1h-1z M106,55h1v1h-1z M108,55h1v1h-1z M4,56h1v1h-1z M7,56h1v1h-1z M8,56h1v1h-1z M9,56h1v1h-1z M10,56h1v1h-1z M11,56h1v1h-1z M12,56h1v1h-1z M19,56h1v1h-1z M23,56h1v1h-1z M25,56h1v1h-1z M28,56h1v1h-1z M29,56h1v1h-1z M30,56h1v1h-1z M31,56h1v1h-1z M32,56h1v1h-1z M34,56h1v1h-1z M35,56h1v1h-1z M36,56h1v1h-1z M39,56h1v1h-1z M41,56h1v1h-1z M46,56h1v1h-1z M50,56h1v1h-1z M52,56h1v1h-1z M53,56h1v1h-1z M54,56h1v1h-1z M55,56h1v1h-1z M56,56h1v1h-1z M57,56h1v1h-1z M59,56h1v1h-1z M60,56h1v1h-1z M63,56h1v1h-1z M64,56h1v1h-1z M69,56h1v1h-1z M70,56h1v1h-1z M71,56h1v1h-1z M73,56h1v1h-1z M74,56h1v1h-1z M76,56h1v1h-1z M77,56h1v1h-1z M78,56h1v1h-1z M79,56h1v1h-1z M80,56h1v1h-1z M81,56h1v1h-1z M85,56h1v1h-1z M91,56h1v1h-1z M92,56h1v1h-1z M94,56h1v1h-1z M95,56h1v1h-1z M96,56h1v1h-1z M97,56h1v1h-1z M100,56h1v1h-1z M101,56h1v1h-1z M102,56h1v1h-1z M103,56h1v1h-1z M104,56h1v1h-1z M106,56h1v1h-1z M107,56h1v1h-1z M7,57h1v1h-1z M9,57h1v1h-1z M11,57h1v1h-1z M14,57h1v1h-1z M17,57h1v1h-1z M22,57h1v1h-1z M26,57h1v1h-1z M28,57h1v1h-1z M30,57h1v1h-1z M35,57h1v1h-1z M38,57h1v1h-1z M40,57h1v1h-1z M43,57h1v1h-1z M44,57h1v1h-1z M46,57h1v1h-1z M48,57h1v1h-1z M49,57h1v1h-1z M50,57h1v1h-1z M54,57h1v1h-1z M57,57h1v1h-1z M61,57h1v1h-1z M64,57h1v1h-1z M65,57h1v1h-1z M72,57h1v1h-1z M74,57h1v1h-1z M75,57h1v1h-1z M77,57h1v1h-1z M81,57h1v1h-1z M82,57h1v1h-1z M86,57h1v1h-1z M87,57h1v1h-1z M88,57h1v1h-1z M89,57h1v1h-1z M90,57h1v1h-1z M95,57h1v1h-1z M98,57h1v1h-1z M99,57h1v1h-1z M100,57h1v1h-1z M101,57h1v1h-1z M103,57h1v1h-1z M104,57h1v1h-1z M105,57h1v1h-1z M108,57h1v1h-1z M4,58h1v1h-1z M6,58h1v1h-1z M10,58h1v1h-1z M12,58h1v1h-1z M13,58h1v1h-1z M15,58h1v1h-1z M19,58h1v1h-1z M20,58h1v1h-1z M23,58h1v1h-1z M24,58h1v1h-1z M25,58h1v1h-1z M27,58h1v1h-1z M28,58h1v1h-1z M30,58h1v1h-1z M33,58h1v1h-1z M34,58h1v1h-1z M40,58h1v1h-1z M41,58h1v1h-1z M44,58h1v1h-1z M45,58h1v1h-1z M46,58h1v1h-1z M48,58h1v1h-1z M49,58h1v1h-1z M51,58h1v1h-1z M52,58h1v1h-1z M53,58h1v1h-1z M57,58h1v1h-1z M58,58h1v1h-1z M64,58h1v1h-1z M67,58h1v1h-1z M70,58h1v1h-1z M71,58h1v1h-1z M72,58h1v1h-1z M76,58h1v1h-1z M77,58h1v1h-1z M78,58h1v1h-1z M80,58h1v1h-1z M81,58h1v1h-1z M82,58h1v1h-1z M87,58h1v1h-1z M89,58h1v1h-1z M92,58h1v1h-1z M93,58h1v1h-1z M94,58h1v1h-1z M96,58h1v1h-1z M99,58h1v1h-1z M100,58h1v1h-1z M102,58h1v1h-1z M103,58h1v1h-1z M105,58h1v1h-1z M107,58h1v1h-1z M4,59h1v1h-1z M5,59h1v1h-1z M7,59h1v1h-1z M8,59h1v1h-1z M12,59h1v1h-1z M16,59h1v1h-1z M17,59h1v1h-1z M18,59h1v1h-1z M19,59h1v1h-1z M20,59h1v1h-1z M21,59h1v1h-1z M22,59h1v1h-1z M23,59h1v1h-1z M24,59h1v1h-1z M25,59h1v1h-1z M26,59h1v1h-1z M28,59h1v1h-1z M29,59h1v1h-1z M35,59h1v1h-1z M38,59h1v1h-1z M39,59h1v1h-1z M40,59h1v1h-1z M46,59h1v1h-1z M47,59h1v1h-1z M50,59h1v1h-1z M54,59h1v1h-1z M55,59h1v1h-1z M57,59h1v1h-1z M58,59h1v1h-1z M59,59h1v1h-1z M61,59h1v1h-1z M63,59h1v1h-1z M64,59h1v1h-1z M65,59h1v1h-1z M66,59h1v1h-1z M69,59h1v1h-1z M71,59h1v1h-1z M73,59h1v1h-1z M74,59h1v1h-1z M76,59h1v1h-1z M77,59h1v1h-1z M78,59h1v1h-1z M80,59h1v1h-1z M82,59h1v1h-1z M83,59h1v1h-1z M86,59h1v1h-1z M88,59h1v1h-1z M93,59h1v1h-1z M94,59h1v1h-1z M95,59h1v1h-1z M97,59h1v1h-1z M99,59h1v1h-1z M100,59h1v1h-1z M104,59h1v1h-1z M106,59h1v1h-1z M107,59h1v1h-1z M108,59h1v1h-1z M8,60h1v1h-1z M9,60h1v1h-1z M10,60h1v1h-1z M11,60h1v1h-1z M14,60h1v1h-1z M17,60h1v1h-1z M20,60h1v1h-1z M26,60h1v1h-1z M29,60h1v1h-1z M31,60h1v1h-1z M32,60h1v1h-1z M33,60h1v1h-1z M34,60h1v1h-1z M35,60h1v1h-1z M36,60h1v1h-1z M38,60h1v1h-1z M44,60h1v1h-1z M45,60h1v1h-1z M46,60h1v1h-1z M47,60h1v1h-1z M49,60h1v1h-1z M53,60h1v1h-1z M56,60h1v1h-1z M57,60h1v1h-1z M58,60h1v1h-1z M59,60h1v1h-1z M63,60h1v1h-1z M66,60h1v1h-1z M67,60h1v1h-1z M68,60h1v1h-1z M69,60h1v1h-1z M77,60h1v1h-1z M80,60h1v1h-1z M81,60h1v1h-1z M83,60h1v1h-1z M85,60h1v1h-1z M86,60h1v1h-1z M87,60h1v1h-1z M88,60h1v1h-1z M89,60h1v1h-1z M92,60h1v1h-1z M93,60h1v1h-1z M94,60h1v1h-1z M95,60h1v1h-1z M99,60h1v1h-1z M102,60h1v1h-1z M105,60h1v1h-1z M107,60h1v1h-1z M4,61h1v1h-1z M5,61h1v1h-1z M6,61h1v1h-1z M7,61h1v1h-1z M9,61h1v1h-1z M11,61h1v1h-1z M14,61h1v1h-1z M15,61h1v1h-1z M18,61h1v1h-1z M19,61h1v1h-1z M21,61h1v1h-1z M22,61h1v1h-1z M27,61h1v1h-1z M28,61h1v1h-1z M29,61h1v1h-1z M37,61h1v1h-1z M39,61h1v1h-1z M40,61h1v1h-1z M42,61h1v1h-1z M43,61h1v1h-1z M45,61h1v1h-1z M47,61h1v1h-1z M48,61h1v1h-1z M50,61h1v1h-1z M51,61h1v1h-1z M52,61h1v1h-1z M53,61h1v1h-1z M55,61h1v1h-1z M57,61h1v1h-1z M58,61h1v1h-1z M60,61h1v1h-1z M62,61h1v1h-1z M64,61h1v1h-1z M65,61h1v1h-1z M67,61h1v1h-1z M68,61h1v1h-1z M70,61h1v1h-1z M71,61h1v1h-1z M73,61h1v1h-1z M75,61h1v1h-1z M77,61h1v1h-1z M78,61h1v1h-1z M81,61h1v1h-1z M82,61h1v1h-1z M83,61h1v1h-1z M84,61h1v1h-1z M85,61h1v1h-1z M87,61h1v1h-1z M88,61h1v1h-1z M90,61h1v1h-1z M91,61h1v1h-1z M92,61h1v1h-1z M93,61h1v1h-1z M94,61h1v1h-1z M95,61h1v1h-1z M96,61h1v1h-1z M99,61h1v1h-1z M100,61h1v1h-1z M108,61h1v1h-1z M4,62h1v1h-1z M5,62h1v1h-1z M10,62h1v1h-1z M12,62h1v1h-1z M13,62h1v1h-1z M14,62h1v1h-1z M15,62h1v1h-1z M16,62h1v1h-1z M17,62h1v1h-1z M19,62h1v1h-1z M20,62h1v1h-1z M25,62h1v1h-1z M26,62h1v1h-1z M27,62h1v1h-1z M28,62h1v1h-1z M30,62h1v1h-1z M32,62h1v1h-1z M33,62h1v1h-1z M34,62h1v1h-1z M35,62h1v1h-1z M36,62h1v1h-1z M37,62h1v1h-1z M41,62h1v1h-1z M43,62h1v1h-1z M44,62h1v1h-1z M45,62h1v1h-1z M46,62h1v1h-1z M48,62h1v1h-1z M51,62h1v1h-1z M52,62h1v1h-1z M55,62h1v1h-1z M56,62h1v1h-1z M57,62h1v1h-1z M58,62h1v1h-1z M59,62h1v1h-1z M60,62h1v1h-1z M65,62h1v1h-1z M67,62h1v1h-1z M70,62h1v1h-1z M72,62h1v1h-1z M75,62h1v1h-1z M76,62h1v1h-1z M77,62h1v1h-1z M78,62h1v1h-1z M79,62h1v1h-1z M80,62h1v1h-1z M81,62h1v1h-1z M82,62h1v1h-1z M83,62h1v1h-1z M85,62h1v1h-1z M88,62h1v1h-1z M89,62h1v1h-1z M92,62h1v1h-1z M93,62h1v1h-1z M94,62h1v1h-1z M96,62h1v1h-1z M100,62h1v1h-1z M101,62h1v1h-1z M102,62h1v1h-1z M103,62h1v1h-1z M106,62h1v1h-1z M107,62h1v1h-1z M7,63h1v1h-1z M8,63h1v1h-1z M9,63h1v1h-1z M12,63h1v1h-1z M14,63h1v1h-1z M15,63h1v1h-1z M17,63h1v1h-1z M18,63h1v1h-1z M22,63h1v1h-1z M23,63h1v1h-1z M26,63h1v1h-1z M28,63h1v1h-1z M29,63h1v1h-1z M31,63h1v1h-1z M33,63h1v1h-1z M35,63h1v1h-1z M38,63h1v1h-1z M39,63h1v1h-1z M40,63h1v1h-1z M41,63h1v1h-1z M45,63h1v1h-1z M46,63h1v1h-1z M47,63h1v1h-1z M49,63h1v1h-1z M51,63h1v1h-1z M53,63h1v1h-1z M54,63h1v1h-1z M59,63h1v1h-1z M61,63h1v1h-1z M62,63h1v1h-1z M63,63h1v1h-1z M64,63h1v1h-1z M69,63h1v1h-1z M71,63h1v1h-1z M73,63h1v1h-1z M74,63h1v1h-1z M83,63h1v1h-1z M86,63h1v1h-1z M87,63h1v1h-1z M88,63h1v1h-1z M90,63h1v1h-1z M93,63h1v1h-1z M94,63h1v1h-1z M98,63h1v1h-1z M99,63h1v1h-1z M100,63h1v1h-1z M101,63h1v1h-1z M103,63h1v1h-1z M104,63h1v1h-1z M106,63h1v1h-1z M4,64h1v1h-1z M7,64h1v1h-1z M8,64h1v1h-1z M10,64h1v1h-1z M12,64h1v1h-1z M13,64h1v1h-1z M15,64h1v1h-1z M17,64h1v1h-1z M18,64h1v1h-1z M20,64h1v1h-1z M21,64h1v1h-1z M22,64h1v1h-1z M23,64h1v1h-1z M24,64h1v1h-1z M26,64h1v1h-1z M27,64h1v1h-1z M28,64h1v1h-1z M29,64h1v1h-1z M32,64h1v1h-1z M34,64h1v1h-1z M37,64h1v1h-1z M45,64h1v1h-1z M46,64h1v1h-1z M48,64h1v1h-1z M53,64h1v1h-1z M55,64h1v1h-1z M56,64h1v1h-1z M58,64h1v1h-1z M61,64h1v1h-1z M62,64h1v1h-1z M63,64h1v1h-1z M65,64h1v1h-1z M70,64h1v1h-1z M72,64h1v1h-1z M73,64h1v1h-1z M76,64h1v1h-1z M77,64h1v1h-1z M80,64h1v1h-1z M81,64h1v1h-1z M86,64h1v1h-1z M87,64h1v1h-1z M88,64h1v1h-1z M90,64h1v1h-1z M92,64h1v1h-1z M94,64h1v1h-1z M96,64h1v1h-1z M98,64h1v1h-1z M100,64h1v1h-1z M105,64h1v1h-1z M108,64h1v1h-1z M4,65h1v1h-1z M5,65h1v1h-1z M7,65h1v1h-1z M11,65h1v1h-1z M14,65h1v1h-1z M17,65h1v1h-1z M20,65h1v1h-1z M22,65h1v1h-1z M23,65h1v1h-1z M24,65h1v1h-1z M25,65h1v1h-1z M26,65h1v1h-1z M29,65h1v1h-1z M33,65h1v1h-1z M36,65h1v1h-1z M41,65h1v1h-1z M42,65h1v1h-1z M43,65h1v1h-1z M44,65h1v1h-1z M46,65h1v1h-1z M49,65h1v1h-1z M51,65h1v1h-1z M53,65h1v1h-1z M55,65h1v1h-1z M58,65h1v1h-1z M60,65h1v1h-1z M61,65h1v1h-1z M63,65h1v1h-1z M64,65h1v1h-1z M65,65h1v1h-1z M66,65h1v1h-1z M67,65h1v1h-1z M68,65h1v1h-1z M69,65h1v1h-1z M74,65h1v1h-1z M75,65h1v1h-1z M78,65h1v1h-1z M81,65h1v1h-1z M82,65h1v1h-1z M85,65h1v1h-1z M87,65h1v1h-1z M88,65h1v1h-1z M89,65h1v1h-1z M91,65h1v1h-1z M93,65h1v1h-1z M94,65h1v1h-1z M97,65h1v1h-1z M99,65h1v1h-1z M100,65h1v1h-1z M101,65h1v1h-1z M103,65h1v1h-1z M105,65h1v1h-1z M106,65h1v1h-1z M108,65h1v1h-1z M5,66h1v1h-1z M9,66h1v1h-1z M10,66h1v1h-1z M15,66h1v1h-1z M16,66h1v1h-1z M18,66h1v1h-1z M21,66h1v1h-1z M28,66h1v1h-1z M30,66h1v1h-1z M33,66h1v1h-1z M34,66h1v1h-1z M39,66h1v1h-1z M40,66h1v1h-1z M41,66h1v1h-1z M43,66h1v1h-1z M44,66h1v1h-1z M45,66h1v1h-1z M46,66h1v1h-1z M47,66h1v1h-1z M48,66h1v1h-1z M51,66h1v1h-1z M52,66h1v1h-1z M55,66h1v1h-1z M56,66h1v1h-1z M57,66h1v1h-1z M58,66h1v1h-1z M63,66h1v1h-1z M64,66h1v1h-1z M68,66h1v1h-1z M69,66h1v1h-1z M70,66h1v1h-1z M76,66h1v1h-1z M79,66h1v1h-1z M81,66h1v1h-1z M82,66h1v1h-1z M83,66h1v1h-1z M84,66h1v1h-1z M88,66h1v1h-1z M89,66h1v1h-1z M91,66h1v1h-1z M93,66h1v1h-1z M94,66h1v1h-1z M95,66h1v1h-1z M96,66h1v1h-1z M99,66h1v1h-1z M102,66h1v1h-1z M105,66h1v1h-1z M107,66h1v1h-1z M4,67h1v1h-1z M8,67h1v1h-1z M9,67h1v1h-1z M11,67h1v1h-1z M15,67h1v1h-1z M16,67h1v1h-1z M19,67h1v1h-1z M23,67h1v1h-1z M25,67h1v1h-1z M30,67h1v1h-1z M31,67h1v1h-1z M35,67h1v1h-1z M38,67h1v1h-1z M39,67h1v1h-1z M40,67h1v1h-1z M46,67h1v1h-1z M49,67h1v1h-1z M58,67h1v1h-1z M59,67h1v1h-1z M63,67h1v1h-1z M64,67h1v1h-1z M65,67h1v1h-1z M66,67h1v1h-1z M70,67h1v1h-1z M71,67h1v1h-1z M73,67h1v1h-1z M75,67h1v1h-1z M77,67h1v1h-1z M78,67h1v1h-1z M81,67h1v1h-1z M82,67h1v1h-1z M86,67h1v1h-1z M87,67h1v1h-1z M88,67h1v1h-1z M93,67h1v1h-1z M94,67h1v1h-1z M95,67h1v1h-1z M98,67h1v1h-1z M99,67h1v1h-1z M100,67h1v1h-1z M104,67h1v1h-1z M105,67h1v1h-1z M106,67h1v1h-1z M107,67h1v1h-1z M4,68h1v1h-1z M6,68h1v1h-1z M7,68h1v1h-1z M10,68h1v1h-1z M12,68h1v1h-1z M16,68h1v1h-1z M18,68h1v1h-1z M21,68h1v1h-1z M23,68h1v1h-1z M24,68h1v1h-1z M27,68h1v1h-1z M28,68h1v1h-1z M31,68h1v1h-1z M33,68h1v1h-1z M34,68h1v1h-1z M35,68h1v1h-1z M37,68h1v1h-1z M38,68h1v1h-1z M39,68h1v1h-1z M43,68h1v1h-1z M47,68h1v1h-1z M49,68h1v1h-1z M50,68h1v1h-1z M53,68h1v1h-1z M56,68h1v1h-1z M58,68h1v1h-1z M59,68h1v1h-1z M64,68h1v1h-1z M67,68h1v1h-1z M69,68h1v1h-1z M72,68h1v1h-1z M73,68h1v1h-1z M75,68h1v1h-1z M76,68h1v1h-1z M77,68h1v1h-1z M79,68h1v1h-1z M82,68h1v1h-1z M87,68h1v1h-1z M90,68h1v1h-1z M98,68h1v1h-1z M100,68h1v1h-1z M101,68h1v1h-1z M103,68h1v1h-1z M105,68h1v1h-1z M107,68h1v1h-1z M8,69h1v1h-1z M9,69h1v1h-1z M11,69h1v1h-1z M12,69h1v1h-1z M13,69h1v1h-1z M14,69h1v1h-1z M15,69h1v1h-1z M17,69h1v1h-1z M18,69h1v1h-1z M19,69h1v1h-1z M20,69h1v1h-1z M22,69h1v1h-1z M24,69h1v1h-1z M25,69h1v1h-1z M26,69h1v1h-1z M28,69h1v1h-1z M29,69h1v1h-1z M30,69h1v1h-1z M33,69h1v1h-1z M34,69h1v1h-1z M36,69h1v1h-1z M41,69h1v1h-1z M43,69h1v1h-1z M44,69h1v1h-1z M45,69h1v1h-1z M46,69h1v1h-1z M48,69h1v1h-1z M50,69h1v1h-1z M51,69h1v1h-1z M54,69h1v1h-1z M58,69h1v1h-1z M62,69h1v1h-1z M64,69h1v1h-1z M65,69h1v1h-1z M66,69h1v1h-1z M69,69h1v1h-1z M74,69h1v1h-1z M75,69h1v1h-1z M77,69h1v1h-1z M78,69h1v1h-1z M81,69h1v1h-1z M86,69h1v1h-1z M88,69h1v1h-1z M94,69h1v1h-1z M97,69h1v1h-1z M99,69h1v1h-1z M100,69h1v1h-1z M101,69h1v1h-1z M104,69h1v1h-1z M108,69h1v1h-1z M8,70h1v1h-1z M9,70h1v1h-1z M10,70h1v1h-1z M12,70h1v1h-1z M13,70h1v1h-1z M14,70h1v1h-1z M15,70h1v1h-1z M16,70h1v1h-1z M18,70h1v1h-1z M19,70h1v1h-1z M20,70h1v1h-1z M21,70h1v1h-1z M23,70h1v1h-1z M24,70h1v1h-1z M25,70h1v1h-1z M26,70h1v1h-1z M27,70h1v1h-1z M28,70h1v1h-1z M29,70h1v1h-1z M30,70h1v1h-1z M31,70h1v1h-1z M33,70h1v1h-1z M34,70h1v1h-1z M35,70h1v1h-1z M36,70h1v1h-1z M39,70h1v1h-1z M40,70h1v1h-1z M41,70h1v1h-1z M45,70h1v1h-1z M46,70h1v1h-1z M47,70h1v1h-1z M48,70h1v1h-1z M49,70h1v1h-1z M51,70h1v1h-1z M52,70h1v1h-1z M55,70h1v1h-1z M56,70h1v1h-1z M57,70h1v1h-1z M58,70h1v1h-1z M59,70h1v1h-1z M63,70h1v1h-1z M64,70h1v1h-1z M65,70h1v1h-1z M67,70h1v1h-1z M68,70h1v1h-1z M69,70h1v1h-1z M70,70h1v1h-1z M71,70h1v1h-1z M72,70h1v1h-1z M75,70h1v1h-1z M76,70h1v1h-1z M80,70h1v1h-1z M82,70h1v1h-1z M83,70h1v1h-1z M84,70h1v1h-1z M89,70h1v1h-1z M91,70h1v1h-1z M92,70h1v1h-1z M93,70h1v1h-1z M94,70h1v1h-1z M95,70h1v1h-1z M96,70h1v1h-1z M97,70h1v1h-1z M99,70h1v1h-1z M101,70h1v1h-1z M103,70h1v1h-1z M104,70h1v1h-1z M105,70h1v1h-1z M107,70h1v1h-1z M108,70h1v1h-1z M6,71h1v1h-1z M8,71h1v1h-1z M13,71h1v1h-1z M14,71h1v1h-1z M15,71h1v1h-1z M16,71h1v1h-1z M21,71h1v1h-1z M23,71h1v1h-1z M26,71h1v1h-1z M28,71h1v1h-1z M30,71h1v1h-1z M32,71h1v1h-1z M38,71h1v1h-1z M39,71h1v1h-1z M40,71h1v1h-1z M41,71h1v1h-1z M45,71h1v1h-1z M47,71h1v1h-1z M49,71h1v1h-1z M50,71h1v1h-1z M52,71h1v1h-1z M54,71h1v1h-1z M55,71h1v1h-1z M56,71h1v1h-1z M59,71h1v1h-1z M61,71h1v1h-1z M62,71h1v1h-1z M63,71h1v1h-1z M64,71h1v1h-1z M66,71h1v1h-1z M70,71h1v1h-1z M71,71h1v1h-1z M73,71h1v1h-1z M75,71h1v1h-1z M76,71h1v1h-1z M77,71h1v1h-1z M78,71h1v1h-1z M81,71h1v1h-1z M83,71h1v1h-1z M85,71h1v1h-1z M88,71h1v1h-1z M90,71h1v1h-1z M94,71h1v1h-1z M95,71h1v1h-1z M98,71h1v1h-1z M101,71h1v1h-1z M104,71h1v1h-1z M105,71h1v1h-1z M106,71h1v1h-1z M107,71h1v1h-1z M108,71h1v1h-1z M6,72h1v1h-1z M8,72h1v1h-1z M10,72h1v1h-1z M14,72h1v1h-1z M16,72h1v1h-1z M18,72h1v1h-1z M19,72h1v1h-1z M20,72h1v1h-1z M21,72h1v1h-1z M22,72h1v1h-1z M23,72h1v1h-1z M24,72h1v1h-1z M25,72h1v1h-1z M29,72h1v1h-1z M33,72h1v1h-1z M34,72h1v1h-1z M35,72h1v1h-1z M36,72h1v1h-1z M38,72h1v1h-1z M39,72h1v1h-1z M42,72h1v1h-1z M46,72h1v1h-1z M47,72h1v1h-1z M48,72h1v1h-1z M52,72h1v1h-1z M53,72h1v1h-1z M56,72h1v1h-1z M59,72h1v1h-1z M60,72h1v1h-1z M62,72h1v1h-1z M63,72h1v1h-1z M64,72h1v1h-1z M65,72h1v1h-1z M71,72h1v1h-1z M76,72h1v1h-1z M77,72h1v1h-1z M79,72h1v1h-1z M82,72h1v1h-1z M85,72h1v1h-1z M87,72h1v1h-1z M95,72h1v1h-1z M98,72h1v1h-1z M99,72h1v1h-1z M103,72h1v1h-1z M106,72h1v1h-1z M4,73h1v1h-1z M5,73h1v1h-1z M6,73h1v1h-1z M7,73h1v1h-1z M8,73h1v1h-1z M9,73h1v1h-1z M11,73h1v1h-1z M13,73h1v1h-1z M14,73h1v1h-1z M16,73h1v1h-1z M17,73h1v1h-1z M19,73h1v1h-1z M22,73h1v1h-1z M23,73h1v1h-1z M24,73h1v1h-1z M28,73h1v1h-1z M33,73h1v1h-1z M38,73h1v1h-1z M39,73h1v1h-1z M40,73h1v1h-1z M42,73h1v1h-1z M43,73h1v1h-1z M46,73h1v1h-1z M47,73h1v1h-1z M49,73h1v1h-1z M50,73h1v1h-1z M52,73h1v1h-1z M57,73h1v1h-1z M61,73h1v1h-1z M67,73h1v1h-1z M73,73h1v1h-1z M74,73h1v1h-1z M77,73h1v1h-1z M78,73h1v1h-1z M82,73h1v1h-1z M83,73h1v1h-1z M88,73h1v1h-1z M89,73h1v1h-1z M91,73h1v1h-1z M94,73h1v1h-1z M96,73h1v1h-1z M97,73h1v1h-1z M100,73h1v1h-1z M101,73h1v1h-1z M104,73h1v1h-1z M106,73h1v1h-1z M108,73h1v1h-1z M6,74h1v1h-1z M8,74h1v1h-1z M9,74h1v1h-1z M10,74h1v1h-1z M13,74h1v1h-1z M15,74h1v1h-1z M17,74h1v1h-1z M19,74h1v1h-1z M22,74h1v1h-1z M23,74h1v1h-1z M25,74h1v1h-1z M27,74h1v1h-1z M28,74h1v1h-1z M32,74h1v1h-1z M33,74h1v1h-1z M34,74h1v1h-1z M35,74h1v1h-1z M36,74h1v1h-1z M40,74h1v1h-1z M43,74h1v1h-1z M44,74h1v1h-1z M45,74h1v1h-1z M46,74h1v1h-1z M47,74h1v1h-1z M51,74h1v1h-1z M52,74h1v1h-1z M54,74h1v1h-1z M55,74h1v1h-1z M56,74h1v1h-1z M58,74h1v1h-1z M59,74h1v1h-1z M60,74h1v1h-1z M63,74h1v1h-1z M64,74h1v1h-1z M65,74h1v1h-1z M70,74h1v1h-1z M75,74h1v1h-1z M76,74h1v1h-1z M78,74h1v1h-1z M81,74h1v1h-1z M82,74h1v1h-1z M84,74h1v1h-1z M91,74h1v1h-1z M93,74h1v1h-1z M94,74h1v1h-1z M96,74h1v1h-1z M102,74h1v1h-1z M103,74h1v1h-1z M104,74h1v1h-1z M106,74h1v1h-1z M107,74h1v1h-1z M6,75h1v1h-1z M7,75h1v1h-1z M8,75h1v1h-1z M9,75h1v1h-1z M14,75h1v1h-1z M16,75h1v1h-1z M17,75h1v1h-1z M18,75h1v1h-1z M19,75h1v1h-1z M20,75h1v1h-1z M25,75h1v1h-1z M26,75h1v1h-1z M27,75h1v1h-1z M29,75h1v1h-1z M30,75h1v1h-1z M34,75h1v1h-1z M35,75h1v1h-1z M38,75h1v1h-1z M39,75h1v1h-1z M40,75h1v1h-1z M41,75h1v1h-1z M42,75h1v1h-1z M46,75h1v1h-1z M47,75h1v1h-1z M52,75h1v1h-1z M53,75h1v1h-1z M59,75h1v1h-1z M62,75h1v1h-1z M63,75h1v1h-1z M64,75h1v1h-1z M65,75h1v1h-1z M69,75h1v1h-1z M71,75h1v1h-1z M73,75h1v1h-1z M76,75h1v1h-1z M83,75h1v1h-1z M86,75h1v1h-1z M87,75h1v1h-1z M88,75h1v1h-1z M90,75h1v1h-1z M95,75h1v1h-1z M100,75h1v1h-1z M102,75h1v1h-1z M103,75h1v1h-1z M105,75h1v1h-1z M106,75h1v1h-1z M5,76h1v1h-1z M7,76h1v1h-1z M8,76h1v1h-1z M9,76h1v1h-1z M10,76h1v1h-1z M11,76h1v1h-1z M12,76h1v1h-1z M13,76h1v1h-1z M15,76h1v1h-1z M16,76h1v1h-1z M19,76h1v1h-1z M24,76h1v1h-1z M25,76h1v1h-1z M28,76h1v1h-1z M29,76h1v1h-1z M30,76h1v1h-1z M31,76h1v1h-1z M32,76h1v1h-1z M33,76h1v1h-1z M34,76h1v1h-1z M38,76h1v1h-1z M42,76h1v1h-1z M45,76h1v1h-1z M46,76h1v1h-1z M47,76h1v1h-1z M48,76h1v1h-1z M49,76h1v1h-1z M50,76h1v1h-1z M52,76h1v1h-1z M53,76h1v1h-1z M54,76h1v1h-1z M55,76h1v1h-1z M56,76h1v1h-1z M61,76h1v1h-1z M62,76h1v1h-1z M64,76h1v1h-1z M67,76h1v1h-1z M69,76h1v1h-1z M70,76h1v1h-1z M73,76h1v1h-1z M75,76h1v1h-1z M76,76h1v1h-1z M77,76h1v1h-1z M78,76h1v1h-1z M79,76h1v1h-1z M80,76h1v1h-1z M81,76h1v1h-1z M82,76h1v1h-1z M87,76h1v1h-1z M88,76h1v1h-1z M89,76h1v1h-1z M90,76h1v1h-1z M91,76h1v1h-1z M94,76h1v1h-1z M96,76h1v1h-1z M97,76h1v1h-1z M100,76h1v1h-1z M101,76h1v1h-1z M102,76h1v1h-1z M103,76h1v1h-1z M104,76h1v1h-1z M107,76h1v1h-1z M8,77h1v1h-1z M12,77h1v1h-1z M13,77h1v1h-1z M14,77h1v1h-1z M15,77h1v1h-1z M17,77h1v1h-1z M18,77h1v1h-1z M19,77h1v1h-1z M20,77h1v1h-1z M25,77h1v1h-1z M26,77h1v1h-1z M27,77h1v1h-1z M28,77h1v1h-1z M32,77h1v1h-1z M33,77h1v1h-1z M36,77h1v1h-1z M37,77h1v1h-1z M38,77h1v1h-1z M39,77h1v1h-1z M40,77h1v1h-1z M41,77h1v1h-1z M42,77h1v1h-1z M43,77h1v1h-1z M44,77h1v1h-1z M45,77h1v1h-1z M46,77h1v1h-1z M50,77h1v1h-1z M51,77h1v1h-1z M52,77h1v1h-1z M56,77h1v1h-1z M57,77h1v1h-1z M59,77h1v1h-1z M63,77h1v1h-1z M66,77h1v1h-1z M67,77h1v1h-1z M70,77h1v1h-1z M71,77h1v1h-1z M73,77h1v1h-1z M76,77h1v1h-1z M80,77h1v1h-1z M82,77h1v1h-1z M83,77h1v1h-1z M84,77h1v1h-1z M85,77h1v1h-1z M86,77h1v1h-1z M89,77h1v1h-1z M93,77h1v1h-1z M94,77h1v1h-1z M95,77h1v1h-1z M96,77h1v1h-1z M97,77h1v1h-1z M99,77h1v1h-1z M100,77h1v1h-1z M104,77h1v1h-1z M6,78h1v1h-1z M8,78h1v1h-1z M10,78h1v1h-1z M12,78h1v1h-1z M13,78h1v1h-1z M18,78h1v1h-1z M19,78h1v1h-1z M23,78h1v1h-1z M26,78h1v1h-1z M28,78h1v1h-1z M30,78h1v1h-1z M32,78h1v1h-1z M33,78h1v1h-1z M34,78h1v1h-1z M35,78h1v1h-1z M36,78h1v1h-1z M41,78h1v1h-1z M45,78h1v1h-1z M46,78h1v1h-1z M47,78h1v1h-1z M48,78h1v1h-1z M52,78h1v1h-1z M54,78h1v1h-1z M56,78h1v1h-1z M57,78h1v1h-1z M58,78h1v1h-1z M59,78h1v1h-1z M64,78h1v1h-1z M65,78h1v1h-1z M67,78h1v1h-1z M69,78h1v1h-1z M70,78h1v1h-1z M72,78h1v1h-1z M76,78h1v1h-1z M78,78h1v1h-1z M80,78h1v1h-1z M82,78h1v1h-1z M83,78h1v1h-1z M84,78h1v1h-1z M87,78h1v1h-1z M88,78h1v1h-1z M89,78h1v1h-1z M92,78h1v1h-1z M93,78h1v1h-1z M94,78h1v1h-1z M96,78h1v1h-1z M99,78h1v1h-1z M100,78h1v1h-1z M102,78h1v1h-1z M104,78h1v1h-1z M106,78h1v1h-1z M107,78h1v1h-1z M4,79h1v1h-1z M5,79h1v1h-1z M6,79h1v1h-1z M7,79h1v1h-1z M8,79h1v1h-1z M12,79h1v1h-1z M13,79h1v1h-1z M16,79h1v1h-1z M20,79h1v1h-1z M22,79h1v1h-1z M25,79h1v1h-1z M27,79h1v1h-1z M28,79h1v1h-1z M32,79h1v1h-1z M34,79h1v1h-1z M35,79h1v1h-1z M37,79h1v1h-1z M38,79h1v1h-1z M39,79h1v1h-1z M40,79h1v1h-1z M41,79h1v1h-1z M42,79h1v1h-1z M45,79h1v1h-1z M46,79h1v1h-1z M49,79h1v1h-1z M51,79h1v1h-1z M52,79h1v1h-1z M56,79h1v1h-1z M58,79h1v1h-1z M59,79h1v1h-1z M62,79h1v1h-1z M63,79h1v1h-1z M64,79h1v1h-1z M66,79h1v1h-1z M71,79h1v1h-1z M73,79h1v1h-1z M75,79h1v1h-1z M76,79h1v1h-1z M80,79h1v1h-1z M83,79h1v1h-1z M85,79h1v1h-1z M86,79h1v1h-1z M87,79h1v1h-1z M88,79h1v1h-1z M89,79h1v1h-1z M94,79h1v1h-1z M95,79h1v1h-1z M100,79h1v1h-1z M104,79h1v1h-1z M105,79h1v1h-1z M106,79h1v1h-1z M107,79h1v1h-1z M8,80h1v1h-1z M9,80h1v1h-1z M10,80h1v1h-1z M11,80h1v1h-1z M12,80h1v1h-1z M14,80h1v1h-1z M15,80h1v1h-1z M16,80h1v1h-1z M17,80h1v1h-1z M21,80h1v1h-1z M24,80h1v1h-1z M25,80h1v1h-1z M26,80h1v1h-1z M27,80h1v1h-1z M28,80h1v1h-1z M29,80h1v1h-1z M30,80h1v1h-1z M31,80h1v1h-1z M32,80h1v1h-1z M33,80h1v1h-1z M35,80h1v1h-1z M36,80h1v1h-1z M37,80h1v1h-1z M40,80h1v1h-1z M42,80h1v1h-1z M43,80h1v1h-1z M44,80h1v1h-1z M47,80h1v1h-1z M48,80h1v1h-1z M49,80h1v1h-1z M51,80h1v1h-1z M52,80h1v1h-1z M53,80h1v1h-1z M54,80h1v1h-1z M55,80h1v1h-1z M56,80h1v1h-1z M58,80h1v1h-1z M60,80h1v1h-1z M61,80h1v1h-1z M62,80h1v1h-1z M66,80h1v1h-1z M67,80h1v1h-1z M68,80h1v1h-1z M69,80h1v1h-1z M70,80h1v1h-1z M71,80h1v1h-1z M72,80h1v1h-1z M75,80h1v1h-1z M76,80h1v1h-1z M77,80h1v1h-1z M78,80h1v1h-1z M79,80h1v1h-1z M80,80h1v1h-1z M81,80h1v1h-1z M82,80h1v1h-1z M83,80h1v1h-1z M85,80h1v1h-1z M87,80h1v1h-1z M89,80h1v1h-1z M91,80h1v1h-1z M99,80h1v1h-1z M100,80h1v1h-1z M101,80h1v1h-1z M102,80h1v1h-1z M103,80h1v1h-1z M104,80h1v1h-1z M108,80h1v1h-1z M4,81h1v1h-1z M5,81h1v1h-1z M9,81h1v1h-1z M11,81h1v1h-1z M12,81h1v1h-1z M15,81h1v1h-1z M16,81h1v1h-1z M18,81h1v1h-1z M20,81h1v1h-1z M21,81h1v1h-1z M22,81h1v1h-1z M24,81h1v1h-1z M25,81h1v1h-1z M28,81h1v1h-1z M29,81h1v1h-1z M32,81h1v1h-1z M35,81h1v1h-1z M40,81h1v1h-1z M42,81h1v1h-1z M43,81h1v1h-1z M44,81h1v1h-1z M46,81h1v1h-1z M47,81h1v1h-1z M48,81h1v1h-1z M50,81h1v1h-1z M52,81h1v1h-1z M55,81h1v1h-1z M56,81h1v1h-1z M57,81h1v1h-1z M58,81h1v1h-1z M61,81h1v1h-1z M63,81h1v1h-1z M65,81h1v1h-1z M69,81h1v1h-1z M71,81h1v1h-1z M76,81h1v1h-1z M77,81h1v1h-1z M79,81h1v1h-1z M80,81h1v1h-1z M82,81h1v1h-1z M84,81h1v1h-1z M87,81h1v1h-1z M91,81h1v1h-1z M93,81h1v1h-1z M94,81h1v1h-1z M98,81h1v1h-1z M100,81h1v1h-1z M105,81h1v1h-1z M5,82h1v1h-1z M7,82h1v1h-1z M8,82h1v1h-1z M10,82h1v1h-1z M22,82h1v1h-1z M23,82h1v1h-1z M26,82h1v1h-1z M27,82h1v1h-1z M28,82h1v1h-1z M29,82h1v1h-1z M31,82h1v1h-1z M34,82h1v1h-1z M36,82h1v1h-1z M41,82h1v1h-1z M44,82h1v1h-1z M45,82h1v1h-1z M46,82h1v1h-1z M49,82h1v1h-1z M52,82h1v1h-1z M53,82h1v1h-1z M54,82h1v1h-1z M55,82h1v1h-1z M58,82h1v1h-1z M65,82h1v1h-1z M68,82h1v1h-1z M70,82h1v1h-1z M76,82h1v1h-1z M77,82h1v1h-1z M78,82h1v1h-1z M79,82h1v1h-1z M81,82h1v1h-1z M82,82h1v1h-1z M84,82h1v1h-1z M89,82h1v1h-1z M92,82h1v1h-1z M93,82h1v1h-1z M94,82h1v1h-1z M101,82h1v1h-1z M103,82h1v1h-1z M106,82h1v1h-1z M107,82h1v1h-1z M5,83h1v1h-1z M6,83h1v1h-1z M7,83h1v1h-1z M8,83h1v1h-1z M9,83h1v1h-1z M13,83h1v1h-1z M16,83h1v1h-1z M18,83h1v1h-1z M20,83h1v1h-1z M21,83h1v1h-1z M22,83h1v1h-1z M23,83h1v1h-1z M24,83h1v1h-1z M29,83h1v1h-1z M39,83h1v1h-1z M40,83h1v1h-1z M41,83h1v1h-1z M42,83h1v1h-1z M45,83h1v1h-1z M47,83h1v1h-1z M50,83h1v1h-1z M51,83h1v1h-1z M52,83h1v1h-1z M55,83h1v1h-1z M57,83h1v1h-1z M59,83h1v1h-1z M62,83h1v1h-1z M63,83h1v1h-1z M64,83h1v1h-1z M66,83h1v1h-1z M69,83h1v1h-1z M71,83h1v1h-1z M73,83h1v1h-1z M75,83h1v1h-1z M76,83h1v1h-1z M77,83h1v1h-1z M78,83h1v1h-1z M80,83h1v1h-1z M83,83h1v1h-1z M86,83h1v1h-1z M87,83h1v1h-1z M88,83h1v1h-1z M93,83h1v1h-1z M95,83h1v1h-1z M97,83h1v1h-1z M98,83h1v1h-1z M99,83h1v1h-1z M101,83h1v1h-1z M102,83h1v1h-1z M103,83h1v1h-1z M105,83h1v1h-1z M106,83h1v1h-1z M107,83h1v1h-1z M108,83h1v1h-1z M4,84h1v1h-1z M6,84h1v1h-1z M8,84h1v1h-1z M10,84h1v1h-1z M11,84h1v1h-1z M12,84h1v1h-1z M14,84h1v1h-1z M16,84h1v1h-1z M17,84h1v1h-1z M18,84h1v1h-1z M19,84h1v1h-1z M20,84h1v1h-1z M22,84h1v1h-1z M26,84h1v1h-1z M29,84h1v1h-1z M34,84h1v1h-1z M35,84h1v1h-1z M36,84h1v1h-1z M37,84h1v1h-1z M38,84h1v1h-1z M40,84h1v1h-1z M42,84h1v1h-1z M43,84h1v1h-1z M46,84h1v1h-1z M48,84h1v1h-1z M49,84h1v1h-1z M50,84h1v1h-1z M54,84h1v1h-1z M55,84h1v1h-1z M56,84h1v1h-1z M61,84h1v1h-1z M66,84h1v1h-1z M67,84h1v1h-1z M69,84h1v1h-1z M70,84h1v1h-1z M71,84h1v1h-1z M75,84h1v1h-1z M78,84h1v1h-1z M81,84h1v1h-1z M83,84h1v1h-1z M84,84h1v1h-1z M86,84h1v1h-1z M88,84h1v1h-1z M92,84h1v1h-1z M93,84h1v1h-1z M94,84h1v1h-1z M97,84h1v1h-1z M100,84h1v1h-1z M102,84h1v1h-1z M103,84h1v1h-1z M104,84h1v1h-1z M105,84h1v1h-1z M106,84h1v1h-1z M107,84h1v1h-1z M108,84h1v1h-1z M4,85h1v1h-1z M7,85h1v1h-1z M8,85h1v1h-1z M9,85h1v1h-1z M11,85h1v1h-1z M14,85h1v1h-1z M15,85h1v1h-1z M18,85h1v1h-1z M19,85h1v1h-1z M23,85h1v1h-1z M25,85h1v1h-1z M28,85h1v1h-1z M29,85h1v1h-1z M31,85h1v1h-1z M33,85h1v1h-1z M34,85h1v1h-1z M36,85h1v1h-1z M37,85h1v1h-1z M38,85h1v1h-1z M39,85h1v1h-1z M40,85h1v1h-1z M41,85h1v1h-1z M42,85h1v1h-1z M45,85h1v1h-1z M47,85h1v1h-1z M49,85h1v1h-1z M53,85h1v1h-1z M55,85h1v1h-1z M56,85h1v1h-1z M59,85h1v1h-1z M64,85h1v1h-1z M66,85h1v1h-1z M67,85h1v1h-1z M72,85h1v1h-1z M74,85h1v1h-1z M77,85h1v1h-1z M80,85h1v1h-1z M81,85h1v1h-1z M82,85h1v1h-1z M84,85h1v1h-1z M89,85h1v1h-1z M90,85h1v1h-1z M92,85h1v1h-1z M96,85h1v1h-1z M100,85h1v1h-1z M101,85h1v1h-1z M105,85h1v1h-1z M106,85h1v1h-1z M5,86h1v1h-1z M8,86h1v1h-1z M9,86h1v1h-1z M10,86h1v1h-1z M12,86h1v1h-1z M15,86h1v1h-1z M19,86h1v1h-1z M21,86h1v1h-1z M25,86h1v1h-1z M28,86h1v1h-1z M34,86h1v1h-1z M35,86h1v1h-1z M36,86h1v1h-1z M39,86h1v1h-1z M41,86h1v1h-1z M43,86h1v1h-1z M44,86h1v1h-1z M45,86h1v1h-1z M46,86h1v1h-1z M48,86h1v1h-1z M52,86h1v1h-1z M53,86h1v1h-1z M54,86h1v1h-1z M57,86h1v1h-1z M58,86h1v1h-1z M63,86h1v1h-1z M64,86h1v1h-1z M65,86h1v1h-1z M70,86h1v1h-1z M71,86h1v1h-1z M72,86h1v1h-1z M75,86h1v1h-1z M76,86h1v1h-1z M78,86h1v1h-1z M82,86h1v1h-1z M83,86h1v1h-1z M84,86h1v1h-1z M88,86h1v1h-1z M89,86h1v1h-1z M93,86h1v1h-1z M94,86h1v1h-1z M101,86h1v1h-1z M103,86h1v1h-1z M107,86h1v1h-1z M4,87h1v1h-1z M5,87h1v1h-1z M6,87h1v1h-1z M7,87h1v1h-1z M9,87h1v1h-1z M11,87h1v1h-1z M12,87h1v1h-1z M14,87h1v1h-1z M15,87h1v1h-1z M17,87h1v1h-1z M19,87h1v1h-1z M20,87h1v1h-1z M22,87h1v1h-1z M23,87h1v1h-1z M25,87h1v1h-1z M26,87h1v1h-1z M28,87h1v1h-1z M31,87h1v1h-1z M33,87h1v1h-1z M38,87h1v1h-1z M39,87h1v1h-1z M40,87h1v1h-1z M41,87h1v1h-1z M46,87h1v1h-1z M47,87h1v1h-1z M50,87h1v1h-1z M53,87h1v1h-1z M54,87h1v1h-1z M56,87h1v1h-1z M57,87h1v1h-1z M59,87h1v1h-1z M63,87h1v1h-1z M64,87h1v1h-1z M69,87h1v1h-1z M71,87h1v1h-1z M73,87h1v1h-1z M74,87h1v1h-1z M75,87h1v1h-1z M76,87h1v1h-1z M77,87h1v1h-1z M79,87h1v1h-1z M80,87h1v1h-1z M81,87h1v1h-1z M83,87h1v1h-1z M85,87h1v1h-1z M87,87h1v1h-1z M88,87h1v1h-1z M89,87h1v1h-1z M90,87h1v1h-1z M94,87h1v1h-1z M95,87h1v1h-1z M102,87h1v1h-1z M105,87h1v1h-1z M106,87h1v1h-1z M108,87h1v1h-1z M5,88h1v1h-1z M6,88h1v1h-1z M8,88h1v1h-1z M9,88h1v1h-1z M10,88h1v1h-1z M12,88h1v1h-1z M16,88h1v1h-1z M17,88h1v1h-1z M18,88h1v1h-1z M21,88h1v1h-1z M22,88h1v1h-1z M27,88h1v1h-1z M30,88h1v1h-1z M31,88h1v1h-1z M36,88h1v1h-1z M37,88h1v1h-1z M38,88h1v1h-1z M40,88h1v1h-1z M43,88h1v1h-1z M48,88h1v1h-1z M49,88h1v1h-1z M50,88h1v1h-1z M51,88h1v1h-1z M57,88h1v1h-1z M58,88h1v1h-1z M60,88h1v1h-1z M61,88h1v1h-1z M62,88h1v1h-1z M64,88h1v1h-1z M65,88h1v1h-1z M67,88h1v1h-1z M68,88h1v1h-1z M70,88h1v1h-1z M72,88h1v1h-1z M73,88h1v1h-1z M77,88h1v1h-1z M78,88h1v1h-1z M79,88h1v1h-1z M80,88h1v1h-1z M81,88h1v1h-1z M82,88h1v1h-1z M84,88h1v1h-1z M85,88h1v1h-1z M86,88h1v1h-1z M88,88h1v1h-1z M89,88h1v1h-1z M92,88h1v1h-1z M93,88h1v1h-1z M94,88h1v1h-1z M95,88h1v1h-1z M96,88h1v1h-1z M98,88h1v1h-1z M104,88h1v1h-1z M5,89h1v1h-1z M8,89h1v1h-1z M9,89h1v1h-1z M11,89h1v1h-1z M12,89h1v1h-1z M13,89h1v1h-1z M14,89h1v1h-1z M15,89h1v1h-1z M16,89h1v1h-1z M17,89h1v1h-1z M19,89h1v1h-1z M20,89h1v1h-1z M21,89h1v1h-1z M22,89h1v1h-1z M26,89h1v1h-1z M32,89h1v1h-1z M35,89h1v1h-1z M36,89h1v1h-1z M39,89h1v1h-1z M40,89h1v1h-1z M43,89h1v1h-1z M45,89h1v1h-1z M46,89h1v1h-1z M47,89h1v1h-1z M48,89h1v1h-1z M52,89h1v1h-1z M53,89h1v1h-1z M56,89h1v1h-1z M57,89h1v1h-1z M63,89h1v1h-1z M64,89h1v1h-1z M65,89h1v1h-1z M66,89h1v1h-1z M67,89h1v1h-1z M69,89h1v1h-1z M77,89h1v1h-1z M79,89h1v1h-1z M81,89h1v1h-1z M85,89h1v1h-1z M86,89h1v1h-1z M92,89h1v1h-1z M93,89h1v1h-1z M95,89h1v1h-1z M98,89h1v1h-1z M100,89h1v1h-1z M101,89h1v1h-1z M103,89h1v1h-1z M108,89h1v1h-1z M4,90h1v1h-1z M8,90h1v1h-1z M9,90h1v1h-1z M10,90h1v1h-1z M12,90h1v1h-1z M13,90h1v1h-1z M14,90h1v1h-1z M16,90h1v1h-1z M19,90h1v1h-1z M24,90h1v1h-1z M25,90h1v1h-1z M26,90h1v1h-1z M27,90h1v1h-1z M29,90h1v1h-1z M30,90h1v1h-1z M34,90h1v1h-1z M35,90h1v1h-1z M36,90h1v1h-1z M39,90h1v1h-1z M40,90h1v1h-1z M41,90h1v1h-1z M44,90h1v1h-1z M45,90h1v1h-1z M46,90h1v1h-1z M48,90h1v1h-1z M49,90h1v1h-1z M52,90h1v1h-1z M54,90h1v1h-1z M55,90h1v1h-1z M57,90h1v1h-1z M58,90h1v1h-1z M63,90h1v1h-1z M65,90h1v1h-1z M67,90h1v1h-1z M68,90h1v1h-1z M69,90h1v1h-1z M70,90h1v1h-1z M71,90h1v1h-1z M75,90h1v1h-1z M76,90h1v1h-1z M78,90h1v1h-1z M81,90h1v1h-1z M82,90h1v1h-1z M83,90h1v1h-1z M84,90h1v1h-1z M89,90h1v1h-1z M94,90h1v1h-1z M95,90h1v1h-1z M100,90h1v1h-1z M101,90h1v1h-1z M103,90h1v1h-1z M106,90h1v1h-1z M107,90h1v1h-1z M5,91h1v1h-1z M6,91h1v1h-1z M8,91h1v1h-1z M13,91h1v1h-1z M14,91h1v1h-1z M17,91h1v1h-1z M18,91h1v1h-1z M21,91h1v1h-1z M24,91h1v1h-1z M25,91h1v1h-1z M26,91h1v1h-1z M27,91h1v1h-1z M32,91h1v1h-1z M33,91h1v1h-1z M35,91h1v1h-1z M38,91h1v1h-1z M39,91h1v1h-1z M40,91h1v1h-1z M42,91h1v1h-1z M46,91h1v1h-1z M47,91h1v1h-1z M50,91h1v1h-1z M51,91h1v1h-1z M54,91h1v1h-1z M55,91h1v1h-1z M59,91h1v1h-1z M61,91h1v1h-1z M62,91h1v1h-1z M64,91h1v1h-1z M65,91h1v1h-1z M69,91h1v1h-1z M70,91h1v1h-1z M71,91h1v1h-1z M73,91h1v1h-1z M77,91h1v1h-1z M78,91h1v1h-1z M81,91h1v1h-1z M83,91h1v1h-1z M86,91h1v1h-1z M87,91h1v1h-1z M88,91h1v1h-1z M93,91h1v1h-1z M95,91h1v1h-1z M98,91h1v1h-1z M99,91h1v1h-1z M101,91h1v1h-1z M102,91h1v1h-1z M104,91h1v1h-1z M106,91h1v1h-1z M108,91h1v1h-1z M8,92h1v1h-1z M9,92h1v1h-1z M10,92h1v1h-1z M11,92h1v1h-1z M13,92h1v1h-1z M15,92h1v1h-1z M18,92h1v1h-1z M19,92h1v1h-1z M20,92h1v1h-1z M21,92h1v1h-1z M23,92h1v1h-1z M24,92h1v1h-1z M25,92h1v1h-1z M26,92h1v1h-1z M27,92h1v1h-1z M28,92h1v1h-1z M30,92h1v1h-1z M31,92h1v1h-1z M41,92h1v1h-1z M42,92h1v1h-1z M44,92h1v1h-1z M49,92h1v1h-1z M53,92h1v1h-1z M54,92h1v1h-1z M55,92h1v1h-1z M57,92h1v1h-1z M58,92h1v1h-1z M59,92h1v1h-1z M62,92h1v1h-1z M64,92h1v1h-1z M68,92h1v1h-1z M70,92h1v1h-1z M71,92h1v1h-1z M72,92h1v1h-1z M73,92h1v1h-1z M74,92h1v1h-1z M75,92h1v1h-1z M76,92h1v1h-1z M85,92h1v1h-1z M86,92h1v1h-1z M87,92h1v1h-1z M90,92h1v1h-1z M92,92h1v1h-1z M94,92h1v1h-1z M95,92h1v1h-1z M97,92h1v1h-1z M98,92h1v1h-1z M100,92h1v1h-1z M102,92h1v1h-1z M103,92h1v1h-1z M105,92h1v1h-1z M107,92h1v1h-1z M4,93h1v1h-1z M5,93h1v1h-1z M6,93h1v1h-1z M8,93h1v1h-1z M9,93h1v1h-1z M11,93h1v1h-1z M12,93h1v1h-1z M14,93h1v1h-1z M15,93h1v1h-1z M18,93h1v1h-1z M20,93h1v1h-1z M22,93h1v1h-1z M23,93h1v1h-1z M29,93h1v1h-1z M31,93h1v1h-1z M32,93h1v1h-1z M33,93h1v1h-1z M34,93h1v1h-1z M35,93h1v1h-1z M37,93h1v1h-1z M41,93h1v1h-1z M42,93h1v1h-1z M45,93h1v1h-1z M49,93h1v1h-1z M50,93h1v1h-1z M53,93h1v1h-1z M55,93h1v1h-1z M56,93h1v1h-1z M59,93h1v1h-1z M60,93h1v1h-1z M63,93h1v1h-1z M64,93h1v1h-1z M67,93h1v1h-1z M70,93h1v1h-1z M71,93h1v1h-1z M72,93h1v1h-1z M74,93h1v1h-1z M76,93h1v1h-1z M77,93h1v1h-1z M80,93h1v1h-1z M81,93h1v1h-1z M84,93h1v1h-1z M85,93h1v1h-1z M91,93h1v1h-1z M96,93h1v1h-1z M97,93h1v1h-1z M98,93h1v1h-1z M100,93h1v1h-1z M101,93h1v1h-1z M106,93h1v1h-1z M107,93h1v1h-1z M4,94h1v1h-1z M5,94h1v1h-1z M6,94h1v1h-1z M8,94h1v1h-1z M10,94h1v1h-1z M12,94h1v1h-1z M14,94h1v1h-1z M16,94h1v1h-1z M19,94h1v1h-1z M26,94h1v1h-1z M33,94h1v1h-1z M34,94h1v1h-1z M35,94h1v1h-1z M36,94h1v1h-1z M40,94h1v1h-1z M43,94h1v1h-1z M46,94h1v1h-1z M52,94h1v1h-1z M53,94h1v1h-1z M54,94h1v1h-1z M57,94h1v1h-1z M58,94h1v1h-1z M63,94h1v1h-1z M64,94h1v1h-1z M65,94h1v1h-1z M69,94h1v1h-1z M70,94h1v1h-1z M72,94h1v1h-1z M76,94h1v1h-1z M77,94h1v1h-1z M82,94h1v1h-1z M89,94h1v1h-1z M91,94h1v1h-1z M94,94h1v1h-1z M101,94h1v1h-1z M103,94h1v1h-1z M104,94h1v1h-1z M105,94h1v1h-1z M106,94h1v1h-1z M107,94h1v1h-1z M5,95h1v1h-1z M9,95h1v1h-1z M11,95h1v1h-1z M15,95h1v1h-1z M18,95h1v1h-1z M19,95h1v1h-1z M21,95h1v1h-1z M22,95h1v1h-1z M24,95h1v1h-1z M25,95h1v1h-1z M30,95h1v1h-1z M32,95h1v1h-1z M33,95h1v1h-1z M34,95h1v1h-1z M35,95h1v1h-1z M37,95h1v1h-1z M39,95h1v1h-1z M40,95h1v1h-1z M41,95h1v1h-1z M42,95h1v1h-1z M45,95h1v1h-1z M47,95h1v1h-1z M49,95h1v1h-1z M50,95h1v1h-1z M52,95h1v1h-1z M53,95h1v1h-1z M55,95h1v1h-1z M56,95h1v1h-1z M57,95h1v1h-1z M59,95h1v1h-1z M63,95h1v1h-1z M64,95h1v1h-1z M65,95h1v1h-1z M66,95h1v1h-1z M71,95h1v1h-1z M73,95h1v1h-1z M74,95h1v1h-1z M76,95h1v1h-1z M77,95h1v1h-1z M79,95h1v1h-1z M80,95h1v1h-1z M81,95h1v1h-1z M83,95h1v1h-1z M85,95h1v1h-1z M87,95h1v1h-1z M88,95h1v1h-1z M89,95h1v1h-1z M95,95h1v1h-1z M97,95h1v1h-1z M98,95h1v1h-1z M99,95h1v1h-1z M100,95h1v1h-1z M102,95h1v1h-1z M103,95h1v1h-1z M104,95h1v1h-1z M105,95h1v1h-1z M106,95h1v1h-1z M4,96h1v1h-1z M6,96h1v1h-1z M7,96h1v1h-1z M8,96h1v1h-1z M10,96h1v1h-1z M13,96h1v1h-1z M15,96h1v1h-1z M16,96h1v1h-1z M17,96h1v1h-1z M19,96h1v1h-1z M22,96h1v1h-1z M23,96h1v1h-1z M24,96h1v1h-1z M26,96h1v1h-1z M27,96h1v1h-1z M30,96h1v1h-1z M31,96h1v1h-1z M32,96h1v1h-1z M33,96h1v1h-1z M34,96h1v1h-1z M35,96h1v1h-1z M36,96h1v1h-1z M40,96h1v1h-1z M42,96h1v1h-1z M44,96h1v1h-1z M47,96h1v1h-1z M48,96h1v1h-1z M49,96h1v1h-1z M51,96h1v1h-1z M54,96h1v1h-1z M58,96h1v1h-1z M60,96h1v1h-1z M63,96h1v1h-1z M64,96h1v1h-1z M65,96h1v1h-1z M66,96h1v1h-1z M67,96h1v1h-1z M68,96h1v1h-1z M71,96h1v1h-1z M72,96h1v1h-1z M73,96h1v1h-1z M74,96h1v1h-1z M75,96h1v1h-1z M77,96h1v1h-1z M79,96h1v1h-1z M83,96h1v1h-1z M84,96h1v1h-1z M85,96h1v1h-1z M87,96h1v1h-1z M88,96h1v1h-1z M89,96h1v1h-1z M91,96h1v1h-1z M92,96h1v1h-1z M93,96h1v1h-1z M94,96h1v1h-1z M97,96h1v1h-1z M101,96h1v1h-1z M104,96h1v1h-1z M105,96h1v1h-1z M106,96h1v1h-1z M4,97h1v1h-1z M6,97h1v1h-1z M7,97h1v1h-1z M8,97h1v1h-1z M11,97h1v1h-1z M13,97h1v1h-1z M18,97h1v1h-1z M19,97h1v1h-1z M20,97h1v1h-1z M23,97h1v1h-1z M24,97h1v1h-1z M25,97h1v1h-1z M26,97h1v1h-1z M28,97h1v1h-1z M29,97h1v1h-1z M32,97h1v1h-1z M38,97h1v1h-1z M40,97h1v1h-1z M43,97h1v1h-1z M44,97h1v1h-1z M45,97h1v1h-1z M46,97h1v1h-1z M47,97h1v1h-1z M50,97h1v1h-1z M53,97h1v1h-1z M56,97h1v1h-1z M61,97h1v1h-1z M62,97h1v1h-1z M64,97h1v1h-1z M67,97h1v1h-1z M69,97h1v1h-1z M70,97h1v1h-1z M71,97h1v1h-1z M72,97h1v1h-1z M73,97h1v1h-1z M74,97h1v1h-1z M76,97h1v1h-1z M77,97h1v1h-1z M79,97h1v1h-1z M81,97h1v1h-1z M83,97h1v1h-1z M84,97h1v1h-1z M87,97h1v1h-1z M88,97h1v1h-1z M89,97h1v1h-1z M90,97h1v1h-1z M91,97h1v1h-1z M94,97h1v1h-1z M95,97h1v1h-1z M97,97h1v1h-1z M99,97h1v1h-1z M100,97h1v1h-1z M101,97h1v1h-1z M102,97h1v1h-1z M103,97h1v1h-1z M105,97h1v1h-1z M106,97h1v1h-1z M107,97h1v1h-1z M4,98h1v1h-1z M5,98h1v1h-1z M6,98h1v1h-1z M10,98h1v1h-1z M11,98h1v1h-1z M14,98h1v1h-1z M18,98h1v1h-1z M19,98h1v1h-1z M23,98h1v1h-1z M24,98h1v1h-1z M25,98h1v1h-1z M27,98h1v1h-1z M28,98h1v1h-1z M30,98h1v1h-1z M34,98h1v1h-1z M37,98h1v1h-1z M41,98h1v1h-1z M46,98h1v1h-1z M57,98h1v1h-1z M58,98h1v1h-1z M59,98h1v1h-1z M60,98h1v1h-1z M65,98h1v1h-1z M70,98h1v1h-1z M72,98h1v1h-1z M75,98h1v1h-1z M81,98h1v1h-1z M82,98h1v1h-1z M83,98h1v1h-1z M84,98h1v1h-1z M87,98h1v1h-1z M92,98h1v1h-1z M94,98h1v1h-1z M95,98h1v1h-1z M96,98h1v1h-1z M101,98h1v1h-1z M107,98h1v1h-1z M6,99h1v1h-1z M8,99h1v1h-1z M9,99h1v1h-1z M11,99h1v1h-1z M14,99h1v1h-1z M15,99h1v1h-1z M20,99h1v1h-1z M23,99h1v1h-1z M24,99h1v1h-1z M25,99h1v1h-1z M26,99h1v1h-1z M27,99h1v1h-1z M29,99h1v1h-1z M32,99h1v1h-1z M33,99h1v1h-1z M35,99h1v1h-1z M37,99h1v1h-1z M38,99h1v1h-1z M39,99h1v1h-1z M40,99h1v1h-1z M45,99h1v1h-1z M47,99h1v1h-1z M52,99h1v1h-1z M53,99h1v1h-1z M57,99h1v1h-1z M58,99h1v1h-1z M61,99h1v1h-1z M63,99h1v1h-1z M64,99h1v1h-1z M66,99h1v1h-1z M69,99h1v1h-1z M71,99h1v1h-1z M73,99h1v1h-1z M74,99h1v1h-1z M76,99h1v1h-1z M77,99h1v1h-1z M80,99h1v1h-1z M81,99h1v1h-1z M82,99h1v1h-1z M85,99h1v1h-1z M87,99h1v1h-1z M88,99h1v1h-1z M89,99h1v1h-1z M90,99h1v1h-1z M91,99h1v1h-1z M95,99h1v1h-1z M99,99h1v1h-1z M100,99h1v1h-1z M101,99h1v1h-1z M104,99h1v1h-1z M105,99h1v1h-1z M106,99h1v1h-1z M108,99h1v1h-1z M7,100h1v1h-1z M8,100h1v1h-1z M10,100h1v1h-1z M12,100h1v1h-1z M13,100h1v1h-1z M14,100h1v1h-1z M15,100h1v1h-1z M16,100h1v1h-1z M17,100h1v1h-1z M19,100h1v1h-1z M20,100h1v1h-1z M21,100h1v1h-1z M22,100h1v1h-1z M23,100h1v1h-1z M25,100h1v1h-1z M28,100h1v1h-1z M29,100h1v1h-1z M30,100h1v1h-1z M31,100h1v1h-1z M32,100h1v1h-1z M35,100h1v1h-1z M37,100h1v1h-1z M38,100h1v1h-1z M39,100h1v1h-1z M40,100h1v1h-1z M42,100h1v1h-1z M43,100h1v1h-1z M47,100h1v1h-1z M50,100h1v1h-1z M52,100h1v1h-1z M53,100h1v1h-1z M54,100h1v1h-1z M55,100h1v1h-1z M56,100h1v1h-1z M61,100h1v1h-1z M64,100h1v1h-1z M67,100h1v1h-1z M68,100h1v1h-1z M69,100h1v1h-1z M70,100h1v1h-1z M73,100h1v1h-1z M74,100h1v1h-1z M76,100h1v1h-1z M77,100h1v1h-1z M78,100h1v1h-1z M79,100h1v1h-1z M80,100h1v1h-1z M83,100h1v1h-1z M85,100h1v1h-1z M86,100h1v1h-1z M87,100h1v1h-1z M88,100h1v1h-1z M94,100h1v1h-1z M96,100h1v1h-1z M97,100h1v1h-1z M100,100h1v1h-1z M101,100h1v1h-1z M102,100h1v1h-1z M103,100h1v1h-1z M104,100h1v1h-1z M106,100h1v1h-1z M108,100h1v1h-1z M12,101h1v1h-1z M14,101h1v1h-1z M15,101h1v1h-1z M17,101h1v1h-1z M21,101h1v1h-1z M23,101h1v1h-1z M24,101h1v1h-1z M27,101h1v1h-1z M28,101h1v1h-1z M32,101h1v1h-1z M33,101h1v1h-1z M35,101h1v1h-1z M40,101h1v1h-1z M43,101h1v1h-1z M44,101h1v1h-1z M48,101h1v1h-1z M50,101h1v1h-1z M51,101h1v1h-1z M52,101h1v1h-1z M56,101h1v1h-1z M60,101h1v1h-1z M61,101h1v1h-1z M62,101h1v1h-1z M65,101h1v1h-1z M66,101h1v1h-1z M69,101h1v1h-1z M71,101h1v1h-1z M72,101h1v1h-1z M75,101h1v1h-1z M76,101h1v1h-1z M80,101h1v1h-1z M82,101h1v1h-1z M84,101h1v1h-1z M85,101h1v1h-1z M87,101h1v1h-1z M89,101h1v1h-1z M91,101h1v1h-1z M93,101h1v1h-1z M98,101h1v1h-1z M99,101h1v1h-1z M100,101h1v1h-1z M104,101h1v1h-1z M106,101h1v1h-1z M107,101h1v1h-1z M4,102h1v1h-1z M5,102h1v1h-1z M6,102h1v1h-1z M7,102h1v1h-1z M8,102h1v1h-1z M9,102h1v1h-1z M10,102h1v1h-1z M12,102h1v1h-1z M16,102h1v1h-1z M17,102h1v1h-1z M20,102h1v1h-1z M26,102h1v1h-1z M28,102h1v1h-1z M30,102h1v1h-1z M32,102h1v1h-1z M33,102h1v1h-1z M34,102h1v1h-1z M36,102h1v1h-1z M44,102h1v1h-1z M45,102h1v1h-1z M46,102h1v1h-1z M48,102h1v1h-1z M52,102h1v1h-1z M54,102h1v1h-1z M56,102h1v1h-1z M57,102h1v1h-1z M58,102h1v1h-1z M59,102h1v1h-1z M63,102h1v1h-1z M65,102h1v1h-1z M67,102h1v1h-1z M68,102h1v1h-1z M70,102h1v1h-1z M76,102h1v1h-1z M78,102h1v1h-1z M80,102h1v1h-1z M81,102h1v1h-1z M82,102h1v1h-1z M83,102h1v1h-1z M84,102h1v1h-1z M88,102h1v1h-1z M89,102h1v1h-1z M92,102h1v1h-1z M93,102h1v1h-1z M94,102h1v1h-1z M95,102h1v1h-1z M97,102h1v1h-1z M99,102h1v1h-1z M100,102h1v1h-1z M102,102h1v1h-1z M104,102h1v1h-1z M106,102h1v1h-1z M107,102h1v1h-1z M4,103h1v1h-1z M10,103h1v1h-1z M15,103h1v1h-1z M18,103h1v1h-1z M21,103h1v1h-1z M22,103h1v1h-1z M23,103h1v1h-1z M26,103h1v1h-1z M27,103h1v1h-1z M28,103h1v1h-1z M32,103h1v1h-1z M34,103h1v1h-1z M35,103h1v1h-1z M37,103h1v1h-1z M40,103h1v1h-1z M41,103h1v1h-1z M42,103h1v1h-1z M46,103h1v1h-1z M47,103h1v1h-1z M49,103h1v1h-1z M50,103h1v1h-1z M52,103h1v1h-1z M56,103h1v1h-1z M57,103h1v1h-1z M58,103h1v1h-1z M59,103h1v1h-1z M61,103h1v1h-1z M62,103h1v1h-1z M63,103h1v1h-1z M64,103h1v1h-1z M69,103h1v1h-1z M71,103h1v1h-1z M73,103h1v1h-1z M74,103h1v1h-1z M76,103h1v1h-1z M80,103h1v1h-1z M82,103h1v1h-1z M83,103h1v1h-1z M85,103h1v1h-1z M87,103h1v1h-1z M88,103h1v1h-1z M91,103h1v1h-1z M93,103h1v1h-1z M95,103h1v1h-1z M98,103h1v1h-1z M100,103h1v1h-1z M104,103h1v1h-1z M105,103h1v1h-1z M106,103h1v1h-1z M107,103h1v1h-1z M4,104h1v1h-1z M6,104h1v1h-1z M7,104h1v1h-1z M8,104h1v1h-1z M10,104h1v1h-1z M12,104h1v1h-1z M14,104h1v1h-1z M17,104h1v1h-1z M18,104h1v1h-1z M19,104h1v1h-1z M21,104h1v1h-1z M24,104h1v1h-1z M25,104h1v1h-1z M28,104h1v1h-1z M29,104h1v1h-1z M30,104h1v1h-1z M31,104h1v1h-1z M32,104h1v1h-1z M36,104h1v1h-1z M39,104h1v1h-1z M40,104h1v1h-1z M45,104h1v1h-1z M46,104h1v1h-1z M47,104h1v1h-1z M48,104h1v1h-1z M49,104h1v1h-1z M50,104h1v1h-1z M51,104h1v1h-1z M52,104h1v1h-1z M53,104h1v1h-1z M54,104h1v1h-1z M55,104h1v1h-1z M56,104h1v1h-1z M57,104h1v1h-1z M58,104h1v1h-1z M59,104h1v1h-1z M60,104h1v1h-1z M63,104h1v1h-1z M66,104h1v1h-1z M67,104h1v1h-1z M70,104h1v1h-1z M71,104h1v1h-1z M76,104h1v1h-1z M77,104h1v1h-1z M78,104h1v1h-1z M79,104h1v1h-1z M80,104h1v1h-1z M81,104h1v1h-1z M82,104h1v1h-1z M83,104h1v1h-1z M88,104h1v1h-1z M91,104h1v1h-1z M92,104h1v1h-1z M93,104h1v1h-1z M94,104h1v1h-1z M100,104h1v1h-1z M101,104h1v1h-1z M102,104h1v1h-1z M103,104h1v1h-1z M104,104h1v1h-1z M108,104h1v1h-1z M4,105h1v1h-1z M6,105h1v1h-1z M7,105h1v1h-1z M8,105h1v1h-1z M10,105h1v1h-1z M12,105h1v1h-1z M16,105h1v1h-1z M18,105h1v1h-1z M20,105h1v1h-1z M21,105h1v1h-1z M22,105h1v1h-1z M24,105h1v1h-1z M25,105h1v1h-1z M26,105h1v1h-1z M29,105h1v1h-1z M30,105h1v1h-1z M32,105h1v1h-1z M33,105h1v1h-1z M34,105h1v1h-1z M36,105h1v1h-1z M37,105h1v1h-1z M39,105h1v1h-1z M40,105h1v1h-1z M43,105h1v1h-1z M46,105h1v1h-1z M47,105h1v1h-1z M50,105h1v1h-1z M51,105h1v1h-1z M52,105h1v1h-1z M53,105h1v1h-1z M54,105h1v1h-1z M55,105h1v1h-1z M59,105h1v1h-1z M62,105h1v1h-1z M65,105h1v1h-1z M69,105h1v1h-1z M70,105h1v1h-1z M71,105h1v1h-1z M75,105h1v1h-1z M76,105h1v1h-1z M77,105h1v1h-1z M78,105h1v1h-1z M79,105h1v1h-1z M80,105h1v1h-1z M81,105h1v1h-1z M83,105h1v1h-1z M84,105h1v1h-1z M86,105h1v1h-1z M87,105h1v1h-1z M88,105h1v1h-1z M90,105h1v1h-1z M91,105h1v1h-1z M92,105h1v1h-1z M93,105h1v1h-1z M96,105h1v1h-1z M97,105h1v1h-1z M104,105h1v1h-1z M105,105h1v1h-1z M106,105h1v1h-1z M4,106h1v1h-1z M6,106h1v1h-1z M7,106h1v1h-1z M8,106h1v1h-1z M10,106h1v1h-1z M12,106h1v1h-1z M15,106h1v1h-1z M16,106h1v1h-1z M19,106h1v1h-1z M20,106h1v1h-1z M21,106h1v1h-1z M23,106h1v1h-1z M25,106h1v1h-1z M26,106h1v1h-1z M27,106h1v1h-1z M29,106h1v1h-1z M32,106h1v1h-1z M34,106h1v1h-1z M36,106h1v1h-1z M39,106h1v1h-1z M41,106h1v1h-1z M45,106h1v1h-1z M46,106h1v1h-1z M47,106h1v1h-1z M48,106h1v1h-1z M49,106h1v1h-1z M53,106h1v1h-1z M56,106h1v1h-1z M57,106h1v1h-1z M58,106h1v1h-1z M60,106h1v1h-1z M64,106h1v1h-1z M65,106h1v1h-1z M67,106h1v1h-1z M68,106h1v1h-1z M69,106h1v1h-1z M70,106h1v1h-1z M71,106h1v1h-1z M72,106h1v1h-1z M76,106h1v1h-1z M77,106h1v1h-1z M82,106h1v1h-1z M83,106h1v1h-1z M84,106h1v1h-1z M87,106h1v1h-1z M94,106h1v1h-1z M95,106h1v1h-1z M96,106h1v1h-1z M99,106h1v1h-1z M100,106h1v1h-1z M102,106h1v1h-1z M103,106h1v1h-1z M105,106h1v1h-1z M4,107h1v1h-1z M10,107h1v1h-1z M12,107h1v1h-1z M13,107h1v1h-1z M22,107h1v1h-1z M24,107h1v1h-1z M28,107h1v1h-1z M29,107h1v1h-1z M30,107h1v1h-1z M31,107h1v1h-1z M33,107h1v1h-1z M35,107h1v1h-1z M38,107h1v1h-1z M39,107h1v1h-1z M40,107h1v1h-1z M42,107h1v1h-1z M46,107h1v1h-1z M47,107h1v1h-1z M50,107h1v1h-1z M51,107h1v1h-1z M52,107h1v1h-1z M53,107h1v1h-1z M54,107h1v1h-1z M55,107h1v1h-1z M57,107h1v1h-1z M59,107h1v1h-1z M61,107h1v1h-1z M62,107h1v1h-1z M63,107h1v1h-1z M64,107h1v1h-1z M66,107h1v1h-1z M69,107h1v1h-1z M70,107h1v1h-1z M73,107h1v1h-1z M74,107h1v1h-1z M75,107h1v1h-1z M76,107h1v1h-1z M81,107h1v1h-1z M85,107h1v1h-1z M86,107h1v1h-1z M87,107h1v1h-1z M88,107h1v1h-1z M89,107h1v1h-1z M90,107h1v1h-1z M93,107h1v1h-1z M97,107h1v1h-1z M98,107h1v1h-1z M99,107h1v1h-1z M101,107h1v1h-1z M103,107h1v1h-1z M105,107h1v1h-1z M106,107h1v1h-1z M4,108h1v1h-1z M5,108h1v1h-1z M6,108h1v1h-1z M7,108h1v1h-1z M8,108h1v1h-1z M9,108h1v1h-1z M10,108h1v1h-1z M12,108h1v1h-1z M13,108h1v1h-1z M14,108h1v1h-1z M15,108h1v1h-1z M17,108h1v1h-1z M19,108h1v1h-1z M22,108h1v1h-1z M23,108h1v1h-1z M24,108h1v1h-1z M27,108h1v1h-1z M28,108h1v1h-1z M29,108h1v1h-1z M32,108h1v1h-1z M34,108h1v1h-1z M37,108h1v1h-1z M38,108h1v1h-1z M39,108h1v1h-1z M43,108h1v1h-1z M44,108h1v1h-1z M49,108h1v1h-1z M50,108h1v1h-1z M52,108h1v1h-1z M56,108h1v1h-1z M57,108h1v1h-1z M59,108h1v1h-1z M61,108h1v1h-1z M62,108h1v1h-1z M64,108h1v1h-1z M65,108h1v1h-1z M67,108h1v1h-1z M68,108h1v1h-1z M70,108h1v1h-1z M71,108h1v1h-1z M72,108h1v1h-1z M77,108h1v1h-1z M78,108h1v1h-1z M83,108h1v1h-1z M85,108h1v1h-1z M86,108h1v1h-1z M87,108h1v1h-1z M89,108h1v1h-1z M90,108h1v1h-1z M92,108h1v1h-1z M93,108h1v1h-1z M94,108h1v1h-1z M95,108h1v1h-1z M97,108h1v1h-1z M103,108h1v1h-1z M104,108h1v1h-1z M105,108h1v1h-1z M106,108h1v1h-1z M107,108h1v1h-1z" fill="#000000"/>
</svg>
