<?xml version="1.0" encoding="UTF-8"?>
<!DOCTYPE svg PUBLIC "-//W3C//DTD SVG 1.1//EN" "http://www.w3.org/Graphics/SVG/1.1/DTD/svg11.dtd">
<svg xmlns="http://www.w3.org/2000/svg" version="1.1" viewBox="0 0 113 113" stroke="none">
	<rect width="100%" height="100%" fill="#FFFFFF"/>
	<path d="M4,4h1v1h-1z M5,4h1v1h-1z M6,4h1v1h-1z M7,4h1v1h-1z M8,4h1v1h-1z M9,4h1v1h-1z M10,4h1v1h-1z M15,4h1v1h-1z M18,4h1v1h-1z M22,4h1v1h-1z M23,4h1v1h-1z M24,4h1v1h-1z M26,4h1v1h-1z M31,4h1v1h-1z M32,4h1v1h-1z M34,4h1v1h-1z M35,4h1v1h-1z M38,4h1v1h-1z M39,4h1v1h-1z M40,4h1v1h-1z M41,4h1v1h-1z M42,4h1v1h-1z M43,4h1v1h-1z M44,4h1v1h-1z M45,4h1v1h-1z M57,4h1v1h-1z M58,4h1v1h-1z M59,4h1v1h-1z M61,4h1v1h-1z M62,4h1v1h-1z M63,4h1v1h-1z M64,4h1v1h-1z M66,4h1v1h-1z M67,4h1v1h-1z M73,4h1v1h-1z M75,4h1v1h-1z M77,4h1v1h-1z M78,4h1v1h-1z M80,4h1v1h-1z M82,4h1v1h-1z M83,4h1v1h-1z M87,4h1v1h-1z M88,4h1v1h-1z M90,4h1v1h-1z M91,4h1v1h-1z M96,4h1v1h-1z M97,4h1v1h-1z M98,4h1v1h-1z M102,4h1v1h-1z M103,4h1v1h-1z M104,4h1v1h-1z M105,4h1v1h-1z M106,4h1v1h-1z M107,4h1v1h-1z M108,4h1v1h-1z M4,5h1v1h-1z M10,5h1v1h-1z M12,5h1v1h-1z M13,5h1v1h-1z M15,5h1v1h-1z M16,5h1v1h-1z M17,5h1v1h-1z M20,5h1v1h-1z M23,5h1v1h-1z M24,5h1v1h-1z M25,5h1v1h-1z M28,5h1v1h-1z M29,5h1v1h-1z M31,5h1v1h-1z M32,5h1v1h-1z M33,5h1v1h-1z M34,5h1v1h-1z M36,5h1v1h-1z M39,5h1v1h-1z M41,5h1v1h-1z M43,5h1v1h-1z M44,5h1v1h-1z M46,5h1v1h-1z M47,5h1v1h-1z M51,5h1v1h-1z M53,5h1v1h-1z M56,5h1v1h-1z M57,5h1v1h-1z M58,5h1v1h-1z M65,5h1v1h-1z M67,5h1v1h-1z M68,5h1v1h-1z M69,5h1v1h-1z M70,5h1v1h-1z M71,5h1v1h-1z M75,5h1v1h-1z M80,5h1v1h-1z M82,5h1v1h-1z M83,5h1v1h-1z M84,5h1v1h-1z M85,5h1v1h-1z M92,5h1v1h-1z M93,5h1v1h-1z M94,5h1v1h-1z M96,5h1v1h-1z M97,5h1v1h-1z M98,5h1v1h-1z M102,5h1v1h-1z M108,5h1v1h-1z M4,6h1v1h-1z M6,6h1v1h-1z M7,6h1v1h-1z M8,6h1v1h-1z M10,6h1v1h-1z M13,6h1v1h-1z M14,6h1v1h-1z M15,6h1v1h-1z M17,6h1v1h-1z M18,6h1v1h-1z M19,6h1v1h-1z M20,6h1v1h-1z M25,6h1v1h-1z M27,6h1v1h-1z M28,6h1v1h-1z M30,6h1v1h-1z M33,6h1v1h-1z M35,6h1v1h-1z M39,6h1v1h-1z M40,6h1v1h-1z M42,6h1v1h-1z M45,6h1v1h-1z M47,6h1v1h-1z M49,6h1v1h-1z M50,6h1v1h-1z M51,6h1v1h-1z M52,6h1v1h-1z M55,6h1v1h-1z M57,6h1v1h-1z M58,6h1v1h-1z M59,6h1v1h-1z M62,6h1v1h-1z M63,6h1v1h-1z M64,6h1v1h-1z M66,6h1v1h-1z M70,6h1v1h-1z M71,6h1v1h-1z M73,6h1v1h-1z M74,6h1v1h-1z M75,6h1v1h-1z M76,6h1v1h-1z M77,6h1v1h-1z M78,6h1v1h-1z M81,6h1v1h-1z M83,6h1v1h-1z M86,6h1v1h-1z M88,6h1v1h-1z M89,6h1v1h-1z M90,6h1v1h-1z M91,6h1v1h-1z M94,6h1v1h-1z M95,6h1v1h-1z M98,6h1v1h-1z M99,6h1v1h-1z M102,6h1v1h-1z M104,6h1v1h-1z M105,6h1v1h-1z M106,6h1v1h-1z M108,6h1v1h-1z M4,7h1v1h-1z M6,7h1v1h-1z M7,7h1v1h-1z M8,7h1v1h-1z M10,7h1v1h-1z M12,7h1v1h-1z M15,7h1v1h-1z M17,7h1v1h-1z M21,7h1v1h-1z M22,7h1v1h-1z M23,7h1v1h-1z M25,7h1v1h-1z M27,7h1v1h-1z M31,7h1v1h-1z M32,7h1v1h-1z M33,7h1v1h-1z M34,7h1v1h-1z M35,7h1v1h-1z M36,7h1v1h-1z M37,7h1v1h-1z M38,7h1v1h-1z M42,7h1v1h-1z M44,7h1v1h-1z M46,7h1v1h-1z M47,7h1v1h-1z M51,7h1v1h-1z M52,7h1v1h-1z M53,7h1v1h-1z M56,7h1v1h-1z M58,7h1v1h-1z M59,7h1v1h-1z M60,7h1v1h-1z M61,7h1v1h-1z M64,7h1v1h-1z M65,7h1v1h-1z M67,7h1v1h-1z M68,7h1v1h-1z M72,7h1v1h-1z M73,7h1v1h-1z M76,7h1v1h-1z M77,7h1v1h-1z M79,7h1v1h-1z M80,7h1v1h-1z M81,7h1v1h-1z M82,7h1v1h-1z M83,7h1v1h-1z M87,7h1v1h-1z M88,7h1v1h-1z M89,7h1v1h-1z M90,7h1v1h-1z M95,7h1v1h-1z M96,7h1v1h-1z M97,7h1v1h-1z M100,7h1v1h-1z M102,7h1v1h-1z M104,7h1v1h-1z M105,7h1v1h-1z M106,7h1v1h-1z M108,7h1v1h-1z M4,8h1v1h-1z M6,8h1v1h-1z M7,8h1v1h-1z M8,8h1v1h-1z M10,8h1v1h-1z M14,8h1v1h-1z M15,8h1v1h-1z M16,8h1v1h-1z M17,8h1v1h-1z M18,8h1v1h-1z M20,8h1v1h-1z M23,8h1v1h-1z M26,8h1v1h-1z M28,8h1v1h-1z M29,8h1v1h-1z M30,8h1v1h-1z M31,8h1v1h-1z M32,8h1v1h-1z M33,8h1v1h-1z M34,8h1v1h-1z M38,8h1v1h-1z M39,8h1v1h-1z M40,8h1v1h-1z M41,8h1v1h-1z M45,8h1v1h-1z M49,8h1v1h-1z M52,8h1v1h-1z M53,8h1v1h-1z M54,8h1v1h-1z M55,8h1v1h-1z M56,8h1v1h-1z M57,8h1v1h-1z M58,8h1v1h-1z M62,8h1v1h-1z M64,8h1v1h-1z M65,8h1v1h-1z M66,8h1v1h-1z M68,8h1v1h-1z M70,8h1v1h-1z M72,8h1v1h-1z M73,8h1v1h-1z M74,8h1v1h-1z M75,8h1v1h-1z M76,8h1v1h-1z M77,8h1v1h-1z M78,8h1v1h-1z M79,8h1v1h-1z M80,8h1v1h-1z M81,8h1v1h-1z M83,8h1v1h-1z M84,8h1v1h-1z M85,8h1v1h-1z M86,8h1v1h-1z M88,8h1v1h-1z M89,8h1v1h-1z M90,8h1v1h-1z M93,8h1v1h-1z M97,8h1v1h-1z M99,8h1v1h-1z M100,8h1v1h-1z M102,8h1v1h-1z M104,8h1v1h-1z M105,8h1v1h-1z M106,8h1v1h-1z M108,8h1v1h-1z M4,9h1v1h-1z M10,9h1v1h-1z M12,9h1v1h-1z M13,9h1v1h-1z M14,9h1v1h-1z M19,9h1v1h-1z M20,9h1v1h-1z M22,9h1v1h-1z M28,9h1v1h-1z M32,9h1v1h-1z M34,9h1v1h-1z M35,9h1v1h-1z M36,9h1v1h-1z M37,9h1v1h-1z M43,9h1v1h-1z M46,9h1v1h-1z M47,9h1v1h-1z M51,9h1v1h-1z M52,9h1v1h-1z M56,9h1v1h-1z M58,9h1v1h-1z M63,9h1v1h-1z M64,9h1v1h-1z M65,9h1v1h-1z M69,9h1v1h-1z M70,9h1v1h-1z M72,9h1v1h-1z M76,9h1v1h-1z M80,9h1v1h-1z M81,9h1v1h-1z M82,9h1v1h-1z M83,9h1v1h-1z M84,9h1v1h-1z M88,9h1v1h-1z M89,9h1v1h-1z M91,9h1v1h-1z M92,9h1v1h-1z M94,9h1v1h-1z M99,9h1v1h-1z M102,9h1v1h-1z M108,9h1v1h-1z M4,10h1v1h-1z M5,10h1v1h-1z M6,10h1v1h-1z M7,10h1v1h-1z M8,10h1v1h-1z M9,10h1v1h-1z M10,10h1v1h-1z M12,10h1v1h-1z M14,10h1v1h-1z M16,10h1v1h-1z M18,10h1v1h-1z M20,10h1v1h-1z M22,10h1v1h-1z M24,10h1v1h-1z M26,10h1v1h-1z M28,10h1v1h-1z M30,10h1v1h-1z M32,10h1v1h-1z M34,10h1v1h-1z M36,10h1v1h-1z M38,10h1v1h-1z M40,10h1v1h-1z M42,10h1v1h-1z M44,10h1v1h-1z M46,10h1v1h-1z M48,10h1v1h-1z M50,10h1v1h-1z M52,10h1v1h-1z M54,10h1v1h-1z M56,10h1v1h-1z M58,10h1v1h-1z M60,10h1v1h-1z M62,10h1v1h-1z M64,10h1v1h-1z M66,10h1v1h-1z M68,10h1v1h-1z M70,10h1v1h-1z M72,10h1v1h-1z M74,10h1v1h-1z M76,10h1v1h-1z M78,10h1v1h-1z M80,10h1v1h-1z M82,10h1v1h-1z M84,10h1v1h-1z M86,10h1v1h-1z M88,10h1v1h-1z M90,10h1v1h-1z M92,10h1v1h-1z M94,10h1v1h-1z M96,10h1v1h-1z M98,10h1v1h-1z M100,10h1v1h-1z M102,10h1v1h-1z M103,10h1v1h-1z M104,10h1v1h-1z M105,10h1v1h-1z M106,10h1v1h-1z M107,10h1v1h-1z M108,10h1v1h-1z M16,11h1v1h-1z M17,11h1v1h-1z M18,11h1v1h-1z M20,11h1v1h-1z M24,11h1v1h-1z M25,11h1v1h-1z M28,11h1v1h-1z M32,11h1v1h-1z M33,11h1v1h-1z M38,11h1v1h-1z M40,11h1v1h-1z M41,11h1v1h-1z M42,11h1v1h-1z M45,11h1v1h-1z M47,11h1v1h-1z M49,11h1v1h-1z M50,11h1v1h-1z M52,11h1v1h-1z M56,11h1v1h-1z M57,11h1v1h-1z M59,11h1v1h-1z M61,11h1v1h-1z M62,11h1v1h-1z M63,11h1v1h-1z M64,11h1v1h-1z M66,11h1v1h-1z M69,11h1v1h-1z M71,11h1v1h-1z M73,11h1v1h-1z M74,11h1v1h-1z M75,11h1v1h-1z M76,11h1v1h-1z M80,11h1v1h-1z M85,11h1v1h-1z M87,11h1v1h-1z M88,11h1v1h-1z M90,11h1v1h-1z M95,11h1v1h-1z M97,11h1v1h-1z M98,11h1v1h-1z M100,11h1v1h-1z M4,12h1v1h-1z M5,12h1v1h-1z M6,12h1v1h-1z M7,12h1v1h-1z M8,12h1v1h-1z M10,12h1v1h-1z M11,12h1v1h-1z M12,12h1v1h-1z M13,12h1v1h-1z M15,12h1v1h-1z M17,12h1v1h-1z M20,12h1v1h-1z M21,12h1v1h-1z M25,12h1v1h-1z M26,12h1v1h-1z M28,12h1v1h-1z M29,12h1v1h-1z M30,12h1v1h-1z M31,12h1v1h-1z M32,12h1v1h-1z M35,12h1v1h-1z M40,12h1v1h-1z M43,12h1v1h-1z M44,12h1v1h-1z M45,12h1v1h-1z M46,12h1v1h-1z M47,12h1v1h-1z M49,12h1v1h-1z M50,12h1v1h-1z M51,12h1v1h-1z M52,12h1v1h-1z M53,12h1v1h-1z M54,12h1v1h-1z M55,12h1v1h-1z M56,12h1v1h-1z M57,12h1v1h-1z M58,12h1v1h-1z M61,12h1v1h-1z M64,12h1v1h-1z M66,12h1v1h-1z M68,12h1v1h-1z M69,12h1v1h-1z M70,12h1v1h-1z M72,12h1v1h-1z M75,12h1v1h-1z M76,12h1v1h-1z M77,12h1v1h-1z M78,12h1v1h-1z M79,12h1v1h-1z M80,12h1v1h-1z M82,12h1v1h-1z M84,12h1v1h-1z M85,12h1v1h-1z M88,12h1v1h-1z M91,12h1v1h-1z M92,12h1v1h-1z M94,12h1v1h-1z M97,12h1v1h-1z M98,12h1v1h-1z M99,12h1v1h-1z M100,12h1v1h-1z M101,12h1v1h-1z M103,12h1v1h-1z M105,12h1v1h-1z M107,12h1v1h-1z M8,13h1v1h-1z M9,13h1v1h-1z M15,13h1v1h-1z M17,13h1v1h-1z M21,13h1v1h-1z M23,13h1v1h-1z M24,13h1v1h-1z M26,13h1v1h-1z M27,13h1v1h-1z M28,13h1v1h-1z M33,13h1v1h-1z M34,13h1v1h-1z M35,13h1v1h-1z M36,13h1v1h-1z M39,13h1v1h-1z M40,13h1v1h-1z M42,13h1v1h-1z M51,13h1v1h-1z M52,13h1v1h-1z M57,13h1v1h-1z M59,13h1v1h-1z M61,13h1v1h-1z M62,13h1v1h-1z M64,13h1v1h-1z M65,13h1v1h-1z M68,13h1v1h-1z M70,13h1v1h-1z M71,13h1v1h-1z M73,13h1v1h-1z M75,13h1v1h-1z M76,13h1v1h-1z M77,13h1v1h-1z M79,13h1v1h-1z M82,13h1v1h-1z M84,13h1v1h-1z M85,13h1v1h-1z M86,13h1v1h-1z M93,13h1v1h-1z M95,13h1v1h-1z M98,13h1v1h-1z M101,13h1v1h-1z M104,13h1v1h-1z M105,13h1v1h-1z M107,13h1v1h-1z M4,14h1v1h-1z M5,14h1v1h-1z M6,14h1v1h-1z M7,14h1v1h-1z M8,14h1v1h-1z M9,14h1v1h-1z M10,14h1v1h-1z M12,14h1v1h-1z M16,14h1v1h-1z M20,14h1v1h-1z M22,14h1v1h-1z M23,14h1v1h-1z M25,14h1v1h-1z M27,14h1v1h-1z M28,14h1v1h-1z M31,14h1v1h-1z M32,14h1v1h-1z M34,14h1v1h-1z M35,14h1v1h-1z M41,14h1v1h-1z M45,14h1v1h-1z M46,14h1v1h-1z M48,14h1v1h-1z M51,14h1v1h-1z M53,14h1v1h-1z M57,14h1v1h-1z M58,14h1v1h-1z M65,14h1v1h-1z M68,14h1v1h-1z M69,14h1v1h-1z M70,14h1v1h-1z M72,14h1v1h-1z M79,14h1v1h-1z M80,14h1v1h-1z M81,14h1v1h-1z M82,14h1v1h-1z M83,14h1v1h-1z M84,14h1v1h-1z M87,14h1v1h-1z M89,14h1v1h-1z M93,14h1v1h-1z M94,14h1v1h-1z M95,14h1v1h-1z M96,14h1v1h-1z M97,14h1v1h-1z M100,14h1v1h-1z M101,14h1v1h-1z M103,14h1v1h-1z M105,14h1v1h-1z M107,14h1v1h-1z M5,15h1v1h-1z M11,15h1v1h-1z M12,15h1v1h-1z M13,15h1v1h-1z M20,15h1v1h-1z M22,15h1v1h-1z M23,15h1v1h-1z M26,15h1v1h-1z M27,15h1v1h-1z M29,15h1v1h-1z M30,15h1v1h-1z M31,15h1v1h-1z M35,15h1v1h-1z M37,15h1v1h-1z M38,15h1v1h-1z M40,15h1v1h-1z M45,15h1v1h-1z M47,15h1v1h-1z M49,15h1v1h-1z M51,15h1v1h-1z M54,15h1v1h-1z M59,15h1v1h-1z M63,15h1v1h-1z M64,15h1v1h-1z M73,15h1v1h-1z M74,15h1v1h-1z M75,15h1v1h-1z M76,15h1v1h-1z M77,15h1v1h-1z M78,15h1v1h-1z M81,15h1v1h-1z M86,15h1v1h-1z M88,15h1v1h-1z M90,15h1v1h-1z M94,15h1v1h-1z M95,15h1v1h-1z M98,15h1v1h-1z M103,15h1v1h-1z M104,15h1v1h-1z M105,15h1v1h-1z M106,15h1v1h-1z M107,15h1v1h-1z M5,16h1v1h-1z M6,16h1v1h-1z M8,16h1v1h-1z M10,16h1v1h-1z M11,16h1v1h-1z M13,16h1v1h-1z M15,16h1v1h-1z M16,16h1v1h-1z M17,16h1v1h-1z M18,16h1v1h-1z M22,16h1v1h-1z M23,16h1v1h-1z M26,16h1v1h-1z M27,16h1v1h-1z M31,16h1v1h-1z M33,16h1v1h-1z M35,16h1v1h-1z M36,16h1v1h-1z M38,16h1v1h-1z M43,16h1v1h-1z M45,16h1v1h-1z M46,16h1v1h-1z M49,16h1v1h-1z M55,16h1v1h-1z M57,16h1v1h-1z M63,16h1v1h-1z M66,16h1v1h-1z M68,16h1v1h-1z M69,16h1v1h-1z M71,16h1v1h-1z M73,16h1v1h-1z M75,16h1v1h-1z M79,16h1v1h-1z M81,16h1v1h-1z M82,16h1v1h-1z M84,16h1v1h-1z M85,16h1v1h-1z M86,16h1v1h-1z M91,16h1v1h-1z M92,16h1v1h-1z M94,16h1v1h-1z M95,16h1v1h-1z M96,16h1v1h-1z M98,16h1v1h-1z M99,16h1v1h-1z M100,16h1v1h-1z M101,16h1v1h-1z M102,16h1v1h-1z M104,16h1v1h-1z M106,16h1v1h-1z M108,16h1v1h-1z M5,17h1v1h-1z M8,17h1v1h-1z M12,17h1v1h-1z M14,17h1v1h-1z M15,17h1v1h-1z M17,17h1v1h-1z M21,17h1v1h-1z M22,17h1v1h-1z M25,17h1v1h-1z M27,17h1v1h-1z M28,17h1v1h-1z M31,17h1v1h-1z M34,17h1v1h-1z M35,17h1v1h-1z M36,17h1v1h-1z M37,17h1v1h-1z M40,17h1v1h-1z M41,17h1v1h-1z M42,17h1v1h-1z M43,17h1v1h-1z M44,17h1v1h-1z M45,17h1v1h-1z M47,17h1v1h-1z M48,17h1v1h-1z M50,17h1v1h-1z M52,17h1v1h-1z M55,17h1v1h-1z M56,17h1v1h-1z M57,17h1v1h-1z M58,17h1v1h-1z M59,17h1v1h-1z M62,17h1v1h-1z M63,17h1v1h-1z M65,17h1v1h-1z M67,17h1v1h-1z M70,17h1v1h-1z M75,17h1v1h-1z M76,17h1v1h-1z M77,17h1v1h-1z M81,17h1v1h-1z M88,17h1v1h-1z M89,17h1v1h-1z M91,17h1v1h-1z M92,17h1v1h-1z M93,17h1v1h-1z M94,17h1v1h-1z M101,17h1v1h-1z M102,17h1v1h-1z M103,17h1v1h-1z M104,17h1v1h-1z M106,17h1v1h-1z M107,17h1v1h-1z M108,17h1v1h-1z M7,18h1v1h-1z M10,18h1v1h-1z M12,18h1v1h-1z M13,18h1v1h-1z M15,18h1v1h-1z M16,18h1v1h-1z M17,18h1v1h-1z M18,18h1v1h-1z M19,18h1v1h-1z M22,18h1v1h-1z M23,18h1v1h-1z M24,18h1v1h-1z M28,18h1v1h-1z M29,18h1v1h-1z M31,18h1v1h-1z M33,18h1v1h-1z M34,18h1v1h-1z M36,18h1v1h-1z M41,18h1v1h-1z M44,18h1v1h-1z M45,18h1v1h-1z M46,18h1v1h-1z M47,18h1v1h-1z M48,18h1v1h-1z M51,18h1v1h-1z M52,18h1v1h-1z M56,18h1v1h-1z M57,18h1v1h-1z M58,18h1v1h-1z M59,18h1v1h-1z M60,18h1v1h-1z M67,18h1v1h-1z M69,18h1v1h-1z M70,18h1v1h-1z M72,18h1v1h-1z M73,18h1v1h-1z M80,18h1v1h-1z M81,18h1v1h-1z M82,18h1v1h-1z M84,18h1v1h-1z M85,18h1v1h-1z M88,18h1v1h-1z M89,18h1v1h-1z M92,18h1v1h-1z M93,18h1v1h-1z M94,18h1v1h-1z M96,18h1v1h-1z M101,18h1v1h-1z M102,18h1v1h-1z M106,18h1v1h-1z M107,18h1v1h-1z M5,19h1v1h-1z M7,19h1v1h-1z M11,19h1v1h-1z M12,19h1v1h-1z M13,19h1v1h-1z M19,19h1v1h-1z M20,19h1v1h-1z M21,19h1v1h-1z M24,19h1v1h-1z M26,19h1v1h-1z M28,19h1v1h-1z M29,19h1v1h-1z M30,19h1v1h-1z M34,19h1v1h-1z M35,19h1v1h-1z M37,19h1v1h-1z M38,19h1v1h-1z M40,19h1v1h-1z M46,19h1v1h-1z M47,19h1v1h-1z M50,19h1v1h-1z M53,19h1v1h-1z M54,19h1v1h-1z M55,19h1v1h-1z M58,19h1v1h-1z M59,19h1v1h-1z M61,19h1v1h-1z M62,19h1v1h-1z M63,19h1v1h-1z M64,19h1v1h-1z M65,19h1v1h-1z M66,19h1v1h-1z M69,19h1v1h-1z M71,19h1v1h-1z M74,19h1v1h-1z M77,19h1v1h-1z M78,19h1v1h-1z M81,19h1v1h-1z M83,19h1v1h-1z M86,19h1v1h-1z M87,19h1v1h-1z M88,19h1v1h-1z M89,19h1v1h-1z M90,19h1v1h-1z M93,19h1v1h-1z M94,19h1v1h-1z M97,19h1v1h-1z M99,19h1v1h-1z M100,19h1v1h-1z M101,19h1v1h-1z M105,19h1v1h-1z M106,19h1v1h-1z M107,19h1v1h-1z M108,19h1v1h-1z M4,20h1v1h-1z M6,20h1v1h-1z M10,20h1v1h-1z M11,20h1v1h-1z M12,20h1v1h-1z M16,20h1v1h-1z M17,20h1v1h-1z M18,20h1v1h-1z M20,20h1v1h-1z M21,20h1v1h-1z M22,20h1v1h-1z M23,20h1v1h-1z M24,20h1v1h-1z M30,20h1v1h-1z M35,20h1v1h-1z M37,20h1v1h-1z M38,20h1v1h-1z M39,20h1v1h-1z M45,20h1v1h-1z M46,20h1v1h-1z M47,20h1v1h-1z M48,20h1v1h-1z M49,20h1v1h-1z M51,20h1v1h-1z M53,20h1v1h-1z M54,20h1v1h-1z M58,20h1v1h-1z M59,20h1v1h-1z M60,20h1v1h-1z M61,20h1v1h-1z M64,20h1v1h-1z M65,20h1v1h-1z M69,20h1v1h-1z M70,20h1v1h-1z M73,20h1v1h-1z M74,20h1v1h-1z M76,20h1v1h-1z M77,20h1v1h-1z M79,20h1v1h-1z M84,20h1v1h-1z M85,20h1v1h-1z M86,20h1v1h-1z M88,20h1v1h-1z M93,20h1v1h-1z M94,20h1v1h-1z M95,20h1v1h-1z M96,20h1v1h-1z M97,20h1v1h-1z M98,20h1v1h-1z M99,20h1v1h-1z M100,20h1v1h-1z M103,20h1v1h-1z M107,20h1v1h-1z M4,21h1v1h-1z M5,21h1v1h-1z M6,21h1v1h-1z M9,21h1v1h-1z M12,21h1v1h-1z M13,21h1v1h-1z M14,21h1v1h-1z M17,21h1v1h-1z M18,21h1v1h-1z M21,21h1v1h-1z M27,21h1v1h-1z M28,21h1v1h-1z M29,21h1v1h-1z M30,21h1v1h-1z M32,21h1v1h-1z M33,21h1v1h-1z M37,21h1v1h-1z M38,21h1v1h-1z M39,21h1v1h-1z M40,21h1v1h-1z M43,21h1v1h-1z M45,21h1v1h-1z M49,21h1v1h-1z M50,21h1v1h-1z M51,21h1v1h-1z M52,21h1v1h-1z M53,21h1v1h-1z M54,21h1v1h-1z M55,21h1v1h-1z M57,21h1v1h-1z M58,21h1v1h-1z M65,21h1v1h-1z M72,21h1v1h-1z M73,21h1v1h-1z M75,21h1v1h-1z M76,21h1v1h-1z M79,21h1v1h-1z M82,21h1v1h-1z M87,21h1v1h-1z M88,21h1v1h-1z M89,21h1v1h-1z M90,21h1v1h-1z M93,21h1v1h-1z M94,21h1v1h-1z M96,21h1v1h-1z M97,21h1v1h-1z M98,21h1v1h-1z M100,21h1v1h-1z M101,21h1v1h-1z M102,21h1v1h-1z M103,21h1v1h-1z M105,21h1v1h-1z M108,21h1v1h-1z M5,22h1v1h-1z M7,22h1v1h-1z M10,22h1v1h-1z M16,22h1v1h-1z M17,22h1v1h-1z M19,22h1v1h-1z M20,22h1v1h-1z M21,22h1v1h-1z M22,22h1v1h-1z M27,22h1v1h-1z M29,22h1v1h-1z M31,22h1v1h-1z M33,22h1v1h-1z M34,22h1v1h-1z M44,22h1v1h-1z M45,22h1v1h-1z M46,22h1v1h-1z M51,22h1v1h-1z M53,22h1v1h-1z M55,22h1v1h-1z M56,22h1v1h-1z M57,22h1v1h-1z M58,22h1v1h-1z M60,22h1v1h-1z M63,22h1v1h-1z M65,22h1v1h-1z M67,22h1v1h-1z M68,22h1v1h-1z M69,22h1v1h-1z M70,22h1v1h-1z M71,22h1v1h-1z M72,22h1v1h-1z M76,22h1v1h-1z M77,22h1v1h-1z M79,22h1v1h-1z M81,22h1v1h-1z M82,22h1v1h-1z M83,22h1v1h-1z M84,22h1v1h-1z M89,22h1v1h-1z M92,22h1v1h-1z M93,22h1v1h-1z M94,22h1v1h-1z M95,22h1v1h-1z M96,22h1v1h-1z M99,22h1v1h-1z M100,22h1v1h-1z M101,22h1v1h-1z M105,22h1v1h-1z M107,22h1v1h-1z M5,23h1v1h-1z M6,23h1v1h-1z M8,23h1v1h-1z M12,23h1v1h-1z M21,23h1v1h-1z M24,23h1v1h-1z M25,23h1v1h-1z M26,23h1v1h-1z M28,23h1v1h-1z M29,23h1v1h-1z M30,23h1v1h-1z M35,23h1v1h-1z M37,23h1v1h-1z M38,23h1v1h-1z M39,23h1v1h-1z M40,23h1v1h-1z M42,23h1v1h-1z M43,23h1v1h-1z M47,23h1v1h-1z M49,23h1v1h-1z M50,23h1v1h-1z M52,23h1v1h-1z M57,23h1v1h-1z M58,23h1v1h-1z M59,23h1v1h-1z M62,23h1v1h-1z M64,23h1v1h-1z M71,23h1v1h-1z M75,23h1v1h-1z M76,23h1v1h-1z M81,23h1v1h-1z M83,23h1v1h-1z M87,23h1v1h-1z M88,23h1v1h-1z M89,23h1v1h-1z M93,23h1v1h-1z M95,23h1v1h-1z M100,23h1v1h-1z M101,23h1v1h-1z M105,23h1v1h-1z M106,23h1v1h-1z M108,23h1v1h-1z M4,24h1v1h-1z M10,24h1v1h-1z M11,24h1v1h-1z M12,24h1v1h-1z M13,24h1v1h-1z M16,24h1v1h-1z M19,24h1v1h-1z M21,24h1v1h-1z M22,24h1v1h-1z M26,24h1v1h-1z M28,24h1v1h-1z M29,24h1v1h-1z M30,24h1v1h-1z M34,24h1v1h-1z M37,24h1v1h-1z M38,24h1v1h-1z M40,24h1v1h-1z M42,24h1v1h-1z M44,24h1v1h-1z M45,24h1v1h-1z M46,24h1v1h-1z M51,24h1v1h-1z M55,24h1v1h-1z M56,24h1v1h-1z M58,24h1v1h-1z M59,24h1v1h-1z M60,24h1v1h-1z M61,24h1v1h-1z M63,24h1v1h-1z M65,24h1v1h-1z M67,24h1v1h-1z M70,24h1v1h-1z M73,24h1v1h-1z M77,24h1v1h-1z M78,24h1v1h-1z M84,24h1v1h-1z M88,24h1v1h-1z M89,24h1v1h-1z M92,24h1v1h-1z M93,24h1v1h-1z M96,24h1v1h-1z M99,24h1v1h-1z M100,24h1v1h-1z M102,24h1v1h-1z M106,24h1v1h-1z M107,24h1v1h-1z M108,24h1v1h-1z M5,25h1v1h-1z M7,25h1v1h-1z M11,25h1v1h-1z M12,25h1v1h-1z M14,25h1v1h-1z M15,25h1v1h-1z M16,25h1v1h-1z M18,25h1v1h-1z M20,25h1v1h-1z M22,25h1v1h-1z M23,25h1v1h-1z M26,25h1v1h-1z M27,25h1v1h-1z M28,25h1v1h-1z M29,25h1v1h-1z M30,25h1v1h-1z M32,25h1v1h-1z M33,25h1v1h-1z M35,25h1v1h-1z M36,25h1v1h-1z M38,25h1v1h-1z M40,25h1v1h-1z M41,25h1v1h-1z M43,25h1v1h-1z M45,25h1v1h-1z M46,25h1v1h-1z M48,25h1v1h-1z M51,25h1v1h-1z M52,25h1v1h-1z M54,25h1v1h-1z M55,25h1v1h-1z M61,25h1v1h-1z M62,25h1v1h-1z M64,25h1v1h-1z M65,25h1v1h-1z M66,25h1v1h-1z M69,25h1v1h-1z M70,25h1v1h-1z M71,25h1v1h-1z M75,25h1v1h-1z M76,25h1v1h-1z M77,25h1v1h-1z M80,25h1v1h-1z M82,25h1v1h-1z M85,25h1v1h-1z M90,25h1v1h-1z M91,25h1v1h-1z M93,25h1v1h-1z M95,25h1v1h-1z M97,25h1v1h-1z M98,25h1v1h-1z M99,25h1v1h-1z M100,25h1v1h-1z M101,25h1v1h-1z M102,25h1v1h-1z M104,25h1v1h-1z M106,25h1v1h-1z M107,25h1v1h-1z M5,26h1v1h-1z M6,26h1v1h-1z M8,26h1v1h-1z M9,26h1v1h-1z M10,26h1v1h-1z M11,26h1v1h-1z M17,26h1v1h-1z M18,26h1v1h-1z M19,26h1v1h-1z M20,26h1v1h-1z M23,26h1v1h-1z M27,26h1v1h-1z M28,26h1v1h-1z M29,26h1v1h-1z M31,26h1v1h-1z M32,26h1v1h-1z M33,26h1v1h-1z M34,26h1v1h-1z M37,26h1v1h-1z M40,26h1v1h-1z M41,26h1v1h-1z M46,26h1v1h-1z M47,26h1v1h-1z M48,26h1v1h-1z M49,26h1v1h-1z M51,26h1v1h-1z M52,26h1v1h-1z M53,26h1v1h-1z M55,26h1v1h-1z M56,26h1v1h-1z M57,26h1v1h-1z M58,26h1v1h-1z M63,26h1v1h-1z M65,26h1v1h-1z M68,26h1v1h-1z M69,26h1v1h-1z M70,26h1v1h-1z M75,26h1v1h-1z M76,26h1v1h-1z M77,26h1v1h-1z M79,26h1v1h-1z M81,26h1v1h-1z M82,26h1v1h-1z M83,26h1v1h-1z M87,26h1v1h-1z M89,26h1v1h-1z M93,26h1v1h-1z M94,26h1v1h-1z M96,26h1v1h-1z M100,26h1v1h-1z M101,26h1v1h-1z M105,26h1v1h-1z M107,26h1v1h-1z M5,27h1v1h-1z M6,27h1v1h-1z M7,27h1v1h-1z M9,27h1v1h-1z M11,27h1v1h-1z M14,27h1v1h-1z M18,27h1v1h-1z M20,27h1v1h-1z M21,27h1v1h-1z M22,27h1v1h-1z M23,27h1v1h-1z M26,27h1v1h-1z M27,27h1v1h-1z M28,27h1v1h-1z M29,27h1v1h-1z M35,27h1v1h-1z M37,27h1v1h-1z M38,27h1v1h-1z M39,27h1v1h-1z M40,27h1v1h-1z M45,27h1v1h-1z M50,27h1v1h-1z M51,27h1v1h-1z M52,27h1v1h-1z M57,27h1v1h-1z M59,27h1v1h-1z M64,27h1v1h-1z M65,27h1v1h-1z M67,27h1v1h-1z M69,27h1v1h-1z M70,27h1v1h-1z M71,27h1v1h-1z M75,27h1v1h-1z M76,27h1v1h-1z M77,27h1v1h-1z M82,27h1v1h-1z M83,27h1v1h-1z M85,27h1v1h-1z M86,27h1v1h-1z M88,27h1v1h-1z M90,27h1v1h-1z M95,27h1v1h-1z M98,27h1v1h-1z M100,27h1v1h-1z M101,27h1v1h-1z M106,27h1v1h-1z M4,28h1v1h-1z M6,28h1v1h-1z M8,28h1v1h-1z M9,28h1v1h-1z M10,28h1v1h-1z M11,28h1v1h-1z M12,28h1v1h-1z M15,28h1v1h-1z M17,28h1v1h-1z M20,28h1v1h-1z M21,28h1v1h-1z M22,28h1v1h-1z M25,28h1v1h-1z M26,28h1v1h-1z M28,28h1v1h-1z M29,28h1v1h-1z M30,28h1v1h-1z M31,28h1v1h-1z M32,28h1v1h-1z M34,28h1v1h-1z M35,28h1v1h-1z M37,28h1v1h-1z M38,28h1v1h-1z M40,28h1v1h-1z M43,28h1v1h-1z M44,28h1v1h-1z M45,28h1v1h-1z M46,28h1v1h-1z M47,28h1v1h-1z M48,28h1v1h-1z M50,28h1v1h-1z M51,28h1v1h-1z M52,28h1v1h-1z M53,28h1v1h-1z M54,28h1v1h-1z M55,28h1v1h-1z M56,28h1v1h-1z M57,28h1v1h-1z M59,28h1v1h-1z M61,28h1v1h-1z M65,28h1v1h-1z M67,28h1v1h-1z M73,28h1v1h-1z M74,28h1v1h-1z M75,28h1v1h-1z M76,28h1v1h-1z M77,28h1v1h-1z M78,28h1v1h-1z M79,28h1v1h-1z M80,28h1v1h-1z M82,28h1v1h-1z M83,28h1v1h-1z M84,28h1v1h-1z M85,28h1v1h-1z M87,28h1v1h-1z M91,28h1v1h-1z M93,28h1v1h-1z M94,28h1v1h-1z M95,28h1v1h-1z M97,28h1v1h-1z M98,28h1v1h-1z M99,28h1v1h-1z M100,28h1v1h-1z M101,28h1v1h-1z M102,28h1v1h-1z M103,28h1v1h-1z M104,28h1v1h-1z M107,28h1v1h-1z M4,29h1v1h-1z M8,29h1v1h-1z M12,29h1v1h-1z M14,29h1v1h-1z M15,29h1v1h-1z M17,29h1v1h-1z M19,29h1v1h-1z M22,29h1v1h-1z M24,29h1v1h-1z M27,29h1v1h-1z M28,29h1v1h-1z M32,29h1v1h-1z M34,29h1v1h-1z M35,29h1v1h-1z M36,29h1v1h-1z M38,29h1v1h-1z M39,29h1v1h-1z M43,29h1v1h-1z M44,29h1v1h-1z M45,29h1v1h-1z M48,29h1v1h-1z M50,29h1v1h-1z M51,29h1v1h-1z M52,29h1v1h-1z M56,29h1v1h-1z M57,29h1v1h-1z M58,29h1v1h-1z M64,29h1v1h-1z M65,29h1v1h-1z M68,29h1v1h-1z M69,29h1v1h-1z M72,29h1v1h-1z M75,29h1v1h-1z M76,29h1v1h-1z M80,29h1v1h-1z M81,29h1v1h-1z M85,29h1v1h-1z M86,29h1v1h-1z M87,29h1v1h-1z M88,29h1v1h-1z M89,29h1v1h-1z M90,29h1v1h-1z M91,29h1v1h-1z M92,29h1v1h-1z M93,29h1v1h-1z M96,29h1v1h-1z M97,29h1v1h-1z M98,29h1v1h-1z M100,29h1v1h-1z M104,29h1v1h-1z M107,29h1v1h-1z M108,29h1v1h-1z M6,30h1v1h-1z M7,30h1v1h-1z M8,30h1v1h-1z M10,30h1v1h-1z M12,30h1v1h-1z M13,30h1v1h-1z M14,30h1v1h-1z M16,30h1v1h-1z M18,30h1v1h-1z M19,30h1v1h-1z M20,30h1v1h-1z M21,30h1v1h-1z M25,30h1v1h-1z M27,30h1v1h-1z M28,30h1v1h-1z M30,30h1v1h-1z M32,30h1v1h-1z M33,30h1v1h-1z M34,30h1v1h-1z M35,30h1v1h-1z M36,30h1v1h-1z M39,30h1v1h-1z M41,30h1v1h-1z M43,30h1v1h-1z M45,30h1v1h-1z M46,30h1v1h-1z M52,30h1v1h-1z M54,30h1v1h-1z M56,30h1v1h-1z M57,30h1v1h-1z M58,30h1v1h-1z M59,30h1v1h-1z M61,30h1v1h-1z M63,30h1v1h-1z M65,30h1v1h-1z M68,30h1v1h-1z M70,30h1v1h-1z M71,30h1v1h-1z M72,30h1v1h-1z M75,30h1v1h-1z M76,30h1v1h-1z M78,30h1v1h-1z M80,30h1v1h-1z M81,30h1v1h-1z M82,30h1v1h-1z M83,30h1v1h-1z M84,30h1v1h-1z M87,30h1v1h-1z M93,30h1v1h-1z M94,30h1v1h-1z M95,30h1v1h-1z M96,30h1v1h-1z M99,30h1v1h-1z M100,30h1v1h-1z M102,30h1v1h-1z M104,30h1v1h-1z M105,30h1v1h-1z M106,30h1v1h-1z M6,31h1v1h-1z M7,31h1v1h-1z M8,31h1v1h-1z M12,31h1v1h-1z M15,31h1v1h-1z M16,31h1v1h-1z M17,31h1v1h-1z M19,31h1v1h-1z M21,31h1v1h-1z M22,31h1v1h-1z M23,31h1v1h-1z M26,31h1v1h-1z M28,31h1v1h-1z M32,31h1v1h-1z M33,31h1v1h-1z M35,31h1v1h-1z M37,31h1v1h-1z M38,31h1v1h-1z M40,31h1v1h-1z M42,31h1v1h-1z M47,31h1v1h-1z M50,31h1v1h-1z M52,31h1v1h-1z M56,31h1v1h-1z M57,31h1v1h-1z M58,31h1v1h-1z M59,31h1v1h-1z M61,31h1v1h-1z M62,31h1v1h-1z M63,31h1v1h-1z M64,31h1v1h-1z M66,31h1v1h-1z M67,31h1v1h-1z M69,31h1v1h-1z M74,31h1v1h-1z M76,31h1v1h-1z M80,31h1v1h-1z M81,31h1v1h-1z M85,31h1v1h-1z M87,31h1v1h-1z M88,31h1v1h-1z M89,31h1v1h-1z M90,31h1v1h-1z M95,31h1v1h-1z M98,31h1v1h-1z M99,31h1v1h-1z M100,31h1v1h-1z M104,31h1v1h-1z M105,31h1v1h-1z M106,31h1v1h-1z M107,31h1v1h-1z M108,31h1v1h-1z M5,32h1v1h-1z M6,32h1v1h-1z M8,32h1v1h-1z M9,32h1v1h-1z M10,32h1v1h-1z M11,32h1v1h-1z M12,32h1v1h-1z M14,32h1v1h-1z M17,32h1v1h-1z M19,32h1v1h-1z M20,32h1v1h-1z M23,32h1v1h-1z M24,32h1v1h-1z M26,32h1v1h-1z M28,32h1v1h-1z M29,32h1v1h-1z M30,32h1v1h-1z M31,32h1v1h-1z M32,32h1v1h-1z M34,32h1v1h-1z M35,32h1v1h-1z M36,32h1v1h-1z M38,32h1v1h-1z M39,32h1v1h-1z M41,32h1v1h-1z M43,32h1v1h-1z M44,32h1v1h-1z M45,32h1v1h-1z M46,32h1v1h-1z M47,32h1v1h-1z M48,32h1v1h-1z M49,32h1v1h-1z M50,32h1v1h-1z M51,32h1v1h-1z M52,32h1v1h-1z M53,32h1v1h-1z M54,32h1v1h-1z M55,32h1v1h-1z M56,32h1v1h-1z M57,32h1v1h-1z M59,32h1v1h-1z M60,32h1v1h-1z M63,32h1v1h-1z M65,32h1v1h-1z M67,32h1v1h-1z M69,32h1v1h-1z M70,32h1v1h-1z M71,32h1v1h-1z M73,32h1v1h-1z M75,32h1v1h-1z M76,32h1v1h-1z M77,32h1v1h-1z M78,32h1v1h-1z M79,32h1v1h-1z M80,32h1v1h-1z M82,32h1v1h-1z M83,32h1v1h-1z M84,32h1v1h-1z M86,32h1v1h-1z M89,32h1v1h-1z M90,32h1v1h-1z M94,32h1v1h-1z M96,32h1v1h-1z M97,32h1v1h-1z M100,32h1v1h-1z M101,32h1v1h-1z M102,32h1v1h-1z M103,32h1v1h-1z M104,32h1v1h-1z M106,32h1v1h-1z M107,32h1v1h-1z M4,33h1v1h-1z M6,33h1v1h-1z M8,33h1v1h-1z M13,33h1v1h-1z M15,33h1v1h-1z M16,33h1v1h-1z M20,33h1v1h-1z M22,33h1v1h-1z M23,33h1v1h-1z M24,33h1v1h-1z M25,33h1v1h-1z M26,33h1v1h-1z M29,33h1v1h-1z M33,33h1v1h-1z M34,33h1v1h-1z M38,33h1v1h-1z M40,33h1v1h-1z M45,33h1v1h-1z M48,33h1v1h-1z M49,33h1v1h-1z M51,33h1v1h-1z M52,33h1v1h-1z M53,33h1v1h-1z M55,33h1v1h-1z M57,33h1v1h-1z M58,33h1v1h-1z M60,33h1v1h-1z M61,33h1v1h-1z M64,33h1v1h-1z M67,33h1v1h-1z M68,33h1v1h-1z M69,33h1v1h-1z M70,33h1v1h-1z M72,33h1v1h-1z M75,33h1v1h-1z M77,33h1v1h-1z M80,33h1v1h-1z M81,33h1v1h-1z M83,33h1v1h-1z M85,33h1v1h-1z M86,33h1v1h-1z M87,33h1v1h-1z M88,33h1v1h-1z M90,33h1v1h-1z M91,33h1v1h-1z M93,33h1v1h-1z M95,33h1v1h-1z M97,33h1v1h-1z M98,33h1v1h-1z M100,33h1v1h-1z M101,33h1v1h-1z M103,33h1v1h-1z M105,33h1v1h-1z M106,33h1v1h-1z M107,33h1v1h-1z M5,34h1v1h-1z M6,34h1v1h-1z M7,34h1v1h-1z M9,34h1v1h-1z M10,34h1v1h-1z M15,34h1v1h-1z M16,34h1v1h-1z M18,34h1v1h-1z M19,34h1v1h-1z M20,34h1v1h-1z M21,34h1v1h-1z M22,34h1v1h-1z M23,34h1v1h-1z M26,34h1v1h-1z M27,34h1v1h-1z M28,34h1v1h-1z M33,34h1v1h-1z M34,34h1v1h-1z M36,34h1v1h-1z M37,34h1v1h-1z M40,34h1v1h-1z M41,34h1v1h-1z M43,34h1v1h-1z M45,34h1v1h-1z M46,34h1v1h-1z M47,34h1v1h-1z M51,34h1v1h-1z M54,34h1v1h-1z M57,34h1v1h-1z M58,34h1v1h-1z M60,34h1v1h-1z M65,34h1v1h-1z M68,34h1v1h-1z M69,34h1v1h-1z M70,34h1v1h-1z M71,34h1v1h-1z M72,34h1v1h-1z M73,34h1v1h-1z M77,34h1v1h-1z M78,34h1v1h-1z M80,34h1v1h-1z M81,34h1v1h-1z M82,34h1v1h-1z M84,34h1v1h-1z M88,34h1v1h-1z M89,34h1v1h-1z M91,34h1v1h-1z M92,34h1v1h-1z M93,34h1v1h-1z M94,34h1v1h-1z M96,34h1v1h-1z M99,34h1v1h-1z M104,34h1v1h-1z M107,34h1v1h-1z M4,35h1v1h-1z M5,35h1v1h-1z M6,35h1v1h-1z M7,35h1v1h-1z M8,35h1v1h-1z M15,35h1v1h-1z M17,35h1v1h-1z M20,35h1v1h-1z M21,35h1v1h-1z M22,35h1v1h-1z M23,35h1v1h-1z M25,35h1v1h-1z M27,35h1v1h-1z M29,35h1v1h-1z M31,35h1v1h-1z M32,35h1v1h-1z M33,35h1v1h-1z M34,35h1v1h-1z M35,35h1v1h-1z M38,35h1v1h-1z M39,35h1v1h-1z M40,35h1v1h-1z M41,35h1v1h-1z M45,35h1v1h-1z M46,35h1v1h-1z M47,35h1v1h-1z M49,35h1v1h-1z M50,35h1v1h-1z M51,35h1v1h-1z M55,35h1v1h-1z M56,35h1v1h-1z M58,35h1v1h-1z M59,35h1v1h-1z M61,35h1v1h-1z M63,35h1v1h-1z M64,35h1v1h-1z M66,35h1v1h-1z M69,35h1v1h-1z M70,35h1v1h-1z M71,35h1v1h-1z M73,35h1v1h-1z M74,35h1v1h-1z M75,35h1v1h-1z M77,35h1v1h-1z M80,35h1v1h-1z M81,35h1v1h-1z M83,35h1v1h-1z M85,35h1v1h-1z M87,35h1v1h-1z M88,35h1v1h-1z M89,35h1v1h-1z M98,35h1v1h-1z M100,35h1v1h-1z M101,35h1v1h-1z M103,35h1v1h-1z M105,35h1v1h-1z M106,35h1v1h-1z M108,35h1v1h-1z M4,36h1v1h-1z M7,36h1v1h-1z M8,36h1v1h-1z M9,36h1v1h-1z M10,36h1v1h-1z M12,36h1v1h-1z M13,36h1v1h-1z M14,36h1v1h-1z M16,36h1v1h-1z M18,36h1v1h-1z M19,36h1v1h-1z M21,36h1v1h-1z M22,36h1v1h-1z M23,36h1v1h-1z M24,36h1v1h-1z M26,36h1v1h-1z M28,36h1v1h-1z M34,36h1v1h-1z M35,36h1v1h-1z M37,36h1v1h-1z M38,36h1v1h-1z M39,36h1v1h-1z M41,36h1v1h-1z M45,36h1v1h-1z M46,36h1v1h-1z M49,36h1v1h-1z M50,36h1v1h-1z M52,36h1v1h-1z M53,36h1v1h-1z M54,36h1v1h-1z M55,36h1v1h-1z M58,36h1v1h-1z M62,36h1v1h-1z M63,36h1v1h-1z M65,36h1v1h-1z M69,36h1v1h-1z M70,36h1v1h-1z M71,36h1v1h-1z M76,36h1v1h-1z M78,36h1v1h-1z M81,36h1v1h-1z M82,36h1v1h-1z M86,36h1v1h-1z M91,36h1v1h-1z M94,36h1v1h-1z M95,36h1v1h-1z M96,36h1v1h-1z M97,36h1v1h-1z M99,36h1v1h-1z M100,36h1v1h-1z M101,36h1v1h-1z M105,36h1v1h-1z M106,36h1v1h-1z M108,36h1v1h-1z M4,37h1v1h-1z M5,37h1v1h-1z M6,37h1v1h-1z M7,37h1v1h-1z M12,37h1v1h-1z M14,37h1v1h-1z M16,37h1v1h-1z M17,37h1v1h-1z M24,37h1v1h-1z M26,37h1v1h-1z M27,37h1v1h-1z M28,37h1v1h-1z M29,37h1v1h-1z M30,37h1v1h-1z M31,37h1v1h-1z M36,37h1v1h-1z M37,37h1v1h-1z M39,37h1v1h-1z M42,37h1v1h-1z M43,37h1v1h-1z M45,37h1v1h-1z M47,37h1v1h-1z M48,37h1v1h-1z M49,37h1v1h-1z M52,37h1v1h-1z M53,37h1v1h-1z M55,37h1v1h-1z M56,37h1v1h-1z M57,37h1v1h-1z M58,37h1v1h-1z M59,37h1v1h-1z M62,37h1v1h-1z M63,37h1v1h-1z M64,37h1v1h-1z M65,37h1v1h-1z M66,37h1v1h-1z M67,37h1v1h-1z M69,37h1v1h-1z M70,37h1v1h-1z M71,37h1v1h-1z M75,37h1v1h-1z M76,37h1v1h-1z M78,37h1v1h-1z M81,37h1v1h-1z M82,37h1v1h-1z M83,37h1v1h-1z M86,37h1v1h-1z M87,37h1v1h-1z M88,37h1v1h-1z M89,37h1v1h-1z M91,37h1v1h-1z M95,37h1v1h-1z M96,37h1v1h-1z M97,37h1v1h-1z M98,37h1v1h-1z M100,37h1v1h-1z M101,37h1v1h-1z M102,37h1v1h-1z M106,37h1v1h-1z M108,37h1v1h-1z M4,38h1v1h-1z M5,38h1v1h-1z M8,38h1v1h-1z M10,38h1v1h-1z M11,38h1v1h-1z M13,38h1v1h-1z M14,38h1v1h-1z M15,38h1v1h-1z M16,38h1v1h-1z M17,38h1v1h-1z M18,38h1v1h-1z M19,38h1v1h-1z M20,38h1v1h-1z M21,38h1v1h-1z M25,38h1v1h-1z M27,38h1v1h-1z M28,38h1v1h-1z M30,38h1v1h-1z M31,38h1v1h-1z M32,38h1v1h-1z M33,38h1v1h-1z M34,38h1v1h-1z M35,38h1v1h-1z M36,38h1v1h-1z M39,38h1v1h-1z M43,38h1v1h-1z M44,38h1v1h-1z M45,38h1v1h-1z M46,38h1v1h-1z M47,38h1v1h-1z M51,38h1v1h-1z M53,38h1v1h-1z M55,38h1v1h-1z M58,38h1v1h-1z M59,38h1v1h-1z M60,38h1v1h-1z M61,38h1v1h-1z M68,38h1v1h-1z M69,38h1v1h-1z M70,38h1v1h-1z M72,38h1v1h-1z M75,38h1v1h-1z M81,38h1v1h-1z M82,38h1v1h-1z M83,38h1v1h-1z M84,38h1v1h-1z M87,38h1v1h-1z M89,38h1v1h-1z M92,38h1v1h-1z M93,38h1v1h-1z M94,38h1v1h-1z M97,38h1v1h-1z M102,38h1v1h-1z M103,38h1v1h-1z M104,38h1v1h-1z M105,38h1v1h-1z M6,39h1v1h-1z M8,39h1v1h-1z M9,39h1v1h-1z M11,39h1v1h-1z M12,39h1v1h-1z M14,39h1v1h-1z M16,39h1v1h-1z M17,39h1v1h-1z M20,39h1v1h-1z M22,39h1v1h-1z M24,39h1v1h-1z M25,39h1v1h-1z M29,39h1v1h-1z M32,39h1v1h-1z M35,39h1v1h-1z M37,39h1v1h-1z M38,39h1v1h-1z M40,39h1v1h-1z M41,39h1v1h-1z M42,39h1v1h-1z M43,39h1v1h-1z M47,39h1v1h-1z M50,39h1v1h-1z M51,39h1v1h-1z M52,39h1v1h-1z M53,39h1v1h-1z M57,39h1v1h-1z M59,39h1v1h-1z M62,39h1v1h-1z M63,39h1v1h-1z M64,39h1v1h-1z M65,39h1v1h-1z M66,39h1v1h-1z M67,39h1v1h-1z M71,39h1v1h-1z M75,39h1v1h-1z M77,39h1v1h-1z M80,39h1v1h-1z M81,39h1v1h-1z M82,39h1v1h-1z M85,39h1v1h-1z M87,39h1v1h-1z M88,39h1v1h-1z M89,39h1v1h-1z M90,39h1v1h-1z M91,39h1v1h-1z M93,39h1v1h-1z M95,39h1v1h-1z M98,39h1v1h-1z M105,39h1v1h-1z M106,39h1v1h-1z M108,39h1v1h-1z M5,40h1v1h-1z M6,40h1v1h-1z M10,40h1v1h-1z M13,40h1v1h-1z M15,40h1v1h-1z M16,40h1v1h-1z M17,40h1v1h-1z M19,40h1v1h-1z M23,40h1v1h-1z M24,40h1v1h-1z M25,40h1v1h-1z M26,40h1v1h-1z M28,40h1v1h-1z M33,40h1v1h-1z M34,40h1v1h-1z M39,40h1v1h-1z M40,40h1v1h-1z M41,40h1v1h-1z M46,40h1v1h-1z M48,40h1v1h-1z M50,40h1v1h-1z M57,40h1v1h-1z M58,40h1v1h-1z M63,40h1v1h-1z M66,40h1v1h-1z M68,40h1v1h-1z M70,40h1v1h-1z M71,40h1v1h-1z M73,40h1v1h-1z M77,40h1v1h-1z M78,40h1v1h-1z M81,40h1v1h-1z M82,40h1v1h-1z M83,40h1v1h-1z M84,40h1v1h-1z M87,40h1v1h-1z M91,40h1v1h-1z M94,40h1v1h-1z M96,40h1v1h-1z M100,40h1v1h-1z M101,40h1v1h-1z M105,40h1v1h-1z M107,40h1v1h-1z M4,41h1v1h-1z M5,41h1v1h-1z M7,41h1v1h-1z M8,41h1v1h-1z M9,41h1v1h-1z M14,41h1v1h-1z M19,41h1v1h-1z M20,41h1v1h-1z M21,41h1v1h-1z M23,41h1v1h-1z M27,41h1v1h-1z M28,41h1v1h-1z M29,41h1v1h-1z M30,41h1v1h-1z M31,41h1v1h-1z M32,41h1v1h-1z M36,41h1v1h-1z M37,41h1v1h-1z M38,41h1v1h-1z M41,41h1v1h-1z M43,41h1v1h-1z M44,41h1v1h-1z M45,41h1v1h-1z M49,41h1v1h-1z M50,41h1v1h-1z M52,41h1v1h-1z M53,41h1v1h-1z M57,41h1v1h-1z M59,41h1v1h-1z M63,41h1v1h-1z M64,41h1v1h-1z M65,41h1v1h-1z M66,41h1v1h-1z M67,41h1v1h-1z M69,41h1v1h-1z M70,41h1v1h-1z M72,41h1v1h-1z M73,41h1v1h-1z M74,41h1v1h-1z M75,41h1v1h-1z M79,41h1v1h-1z M82,41h1v1h-1z M84,41h1v1h-1z M88,41h1v1h-1z M89,41h1v1h-1z M90,41h1v1h-1z M91,41h1v1h-1z M92,41h1v1h-1z M93,41h1v1h-1z M94,41h1v1h-1z M97,41h1v1h-1z M98,41h1v1h-1z M99,41h1v1h-1z M100,41h1v1h-1z M103,41h1v1h-1z M104,41h1v1h-1z M105,41h1v1h-1z M106,41h1v1h-1z M107,41h1v1h-1z M108,41h1v1h-1z M4,42h1v1h-1z M5,42h1v1h-1z M8,42h1v1h-1z M10,42h1v1h-1z M11,42h1v1h-1z M12,42h1v1h-1z M13,42h1v1h-1z M15,42h1v1h-1z M16,42h1v1h-1z M18,42h1v1h-1z M19,42h1v1h-1z M22,42h1v1h-1z M23,42h1v1h-1z M24,42h1v1h-1z M25,42h1v1h-1z M28,42h1v1h-1z M29,42h1v1h-1z M30,42h1v1h-1z M33,42h1v1h-1z M34,42h1v1h-1z M35,42h1v1h-1z M39,42h1v1h-1z M40,42h1v1h-1z M41,42h1v1h-1z M44,42h1v1h-1z M45,42h1v1h-1z M46,42h1v1h-1z M49,42h1v1h-1z M51,42h1v1h-1z M55,42h1v1h-1z M57,42h1v1h-1z M58,42h1v1h-1z M59,42h1v1h-1z M60,42h1v1h-1z M63,42h1v1h-1z M64,42h1v1h-1z M65,42h1v1h-1z M67,42h1v1h-1z M69,42h1v1h-1z M70,42h1v1h-1z M76,42h1v1h-1z M77,42h1v1h-1z M81,42h1v1h-1z M82,42h1v1h-1z M84,42h1v1h-1z M91,42h1v1h-1z M93,42h1v1h-1z M94,42h1v1h-1z M95,42h1v1h-1z M96,42h1v1h-1z M99,42h1v1h-1z M100,42h1v1h-1z M101,42h1v1h-1z M103,42h1v1h-1z M104,42h1v1h-1z M106,42h1v1h-1z M4,43h1v1h-1z M6,43h1v1h-1z M9,43h1v1h-1z M11,43h1v1h-1z M12,43h1v1h-1z M13,43h1v1h-1z M14,43h1v1h-1z M15,43h1v1h-1z M16,43h1v1h-1z M17,43h1v1h-1z M18,43h1v1h-1z M19,43h1v1h-1z M21,43h1v1h-1z M22,43h1v1h-1z M26,43h1v1h-1z M27,43h1v1h-1z M28,43h1v1h-1z M29,43h1v1h-1z M32,43h1v1h-1z M34,43h1v1h-1z M35,43h1v1h-1z M38,43h1v1h-1z M39,43h1v1h-1z M40,43h1v1h-1z M47,43h1v1h-1z M50,43h1v1h-1z M51,43h1v1h-1z M52,43h1v1h-1z M53,43h1v1h-1z M56,43h1v1h-1z M58,43h1v1h-1z M61,43h1v1h-1z M63,43h1v1h-1z M64,43h1v1h-1z M71,43h1v1h-1z M73,43h1v1h-1z M74,43h1v1h-1z M77,43h1v1h-1z M80,43h1v1h-1z M82,43h1v1h-1z M83,43h1v1h-1z M85,43h1v1h-1z M87,43h1v1h-1z M88,43h1v1h-1z M89,43h1v1h-1z M90,43h1v1h-1z M97,43h1v1h-1z M98,43h1v1h-1z M102,43h1v1h-1z M105,43h1v1h-1z M106,43h1v1h-1z M4,44h1v1h-1z M6,44h1v1h-1z M7,44h1v1h-1z M10,44h1v1h-1z M11,44h1v1h-1z M13,44h1v1h-1z M14,44h1v1h-1z M18,44h1v1h-1z M19,44h1v1h-1z M20,44h1v1h-1z M22,44h1v1h-1z M23,44h1v1h-1z M25,44h1v1h-1z M28,44h1v1h-1z M30,44h1v1h-1z M31,44h1v1h-1z M34,44h1v1h-1z M36,44h1v1h-1z M40,44h1v1h-1z M41,44h1v1h-1z M44,44h1v1h-1z M46,44h1v1h-1z M50,44h1v1h-1z M52,44h1v1h-1z M54,44h1v1h-1z M57,44h1v1h-1z M58,44h1v1h-1z M59,44h1v1h-1z M60,44h1v1h-1z M61,44h1v1h-1z M62,44h1v1h-1z M63,44h1v1h-1z M64,44h1v1h-1z M66,44h1v1h-1z M67,44h1v1h-1z M70,44h1v1h-1z M71,44h1v1h-1z M72,44h1v1h-1z M73,44h1v1h-1z M74,44h1v1h-1z M77,44h1v1h-1z M81,44h1v1h-1z M85,44h1v1h-1z M86,44h1v1h-1z M87,44h1v1h-1z M88,44h1v1h-1z M89,44h1v1h-1z M90,44h1v1h-1z M95,44h1v1h-1z M96,44h1v1h-1z M98,44h1v1h-1z M99,44h1v1h-1z M100,44h1v1h-1z M101,44h1v1h-1z M104,44h1v1h-1z M5,45h1v1h-1z M6,45h1v1h-1z M8,45h1v1h-1z M9,45h1v1h-1z M12,45h1v1h-1z M13,45h1v1h-1z M14,45h1v1h-1z M15,45h1v1h-1z M17,45h1v1h-1z M18,45h1v1h-1z M20,45h1v1h-1z M22,45h1v1h-1z M24,45h1v1h-1z M27,45h1v1h-1z M29,45h1v1h-1z M32,45h1v1h-1z M33,45h1v1h-1z M37,45h1v1h-1z M42,45h1v1h-1z M45,45h1v1h-1z M48,45h1v1h-1z M49,45h1v1h-1z M50,45h1v1h-1z M51,45h1v1h-1z M54,45h1v1h-1z M56,45h1v1h-1z M58,45h1v1h-1z M59,45h1v1h-1z M60,45h1v1h-1z M62,45h1v1h-1z M64,45h1v1h-1z M70,45h1v1h-1z M71,45h1v1h-1z M73,45h1v1h-1z M75,45h1v1h-1z M77,45h1v1h-1z M79,45h1v1h-1z M81,45h1v1h-1z M82,45h1v1h-1z M83,45h1v1h-1z M86,45h1v1h-1z M88,45h1v1h-1z M90,45h1v1h-1z M93,45h1v1h-1z M101,45h1v1h-1z M102,45h1v1h-1z M103,45h1v1h-1z M106,45h1v1h-1z M4,46h1v1h-1z M5,46h1v1h-1z M6,46h1v1h-1z M9,46h1v1h-1z M10,46h1v1h-1z M13,46h1v1h-1z M17,46h1v1h-1z M19,46h1v1h-1z M20,46h1v1h-1z M21,46h1v1h-1z M23,46h1v1h-1z M25,46h1v1h-1z M26,46h1v1h-1z M30,46h1v1h-1z M31,46h1v1h-1z M33,46h1v1h-1z M34,46h1v1h-1z M36,46h1v1h-1z M39,46h1v1h-1z M40,46h1v1h-1z M43,46h1v1h-1z M44,46h1v1h-1z M45,46h1v1h-1z M46,46h1v1h-1z M47,46h1v1h-1z M52,46h1v1h-1z M55,46h1v1h-1z M56,46h1v1h-1z M57,46h1v1h-1z M58,46h1v1h-1z M60,46h1v1h-1z M63,46h1v1h-1z M65,46h1v1h-1z M67,46h1v1h-1z M68,46h1v1h-1z M69,46h1v1h-1z M70,46h1v1h-1z M71,46h1v1h-1z M72,46h1v1h-1z M75,46h1v1h-1z M76,46h1v1h-1z M77,46h1v1h-1z M81,46h1v1h-1z M82,46h1v1h-1z M83,46h1v1h-1z M85,46h1v1h-1z M87,46h1v1h-1z M89,46h1v1h-1z M92,46h1v1h-1z M93,46h1v1h-1z M94,46h1v1h-1z M95,46h1v1h-1z M96,46h1v1h-1z M99,46h1v1h-1z M101,46h1v1h-1z M103,46h1v1h-1z M104,46h1v1h-1z M105,46h1v1h-1z M107,46h1v1h-1z M4,47h1v1h-1z M6,47h1v1h-1z M7,47h1v1h-1z M9,47h1v1h-1z M11,47h1v1h-1z M14,47h1v1h-1z M15,47h1v1h-1z M16,47h1v1h-1z M17,47h1v1h-1z M19,47h1v1h-1z M24,47h1v1h-1z M25,47h1v1h-1z M27,47h1v1h-1z M28,47h1v1h-1z M29,47h1v1h-1z M33,47h1v1h-1z M34,47h1v1h-1z M35,47h1v1h-1z M37,47h1v1h-1z M39,47h1v1h-1z M40,47h1v1h-1z M41,47h1v1h-1z M42,47h1v1h-1z M47,47h1v1h-1z M49,47h1v1h-1z M50,47h1v1h-1z M53,47h1v1h-1z M55,47h1v1h-1z M58,47h1v1h-1z M59,47h1v1h-1z M61,47h1v1h-1z M63,47h1v1h-1z M64,47h1v1h-1z M67,47h1v1h-1z M70,47h1v1h-1z M77,47h1v1h-1z M79,47h1v1h-1z M80,47h1v1h-1z M83,47h1v1h-1z M86,47h1v1h-1z M87,47h1v1h-1z M88,47h1v1h-1z M90,47h1v1h-1z M93,47h1v1h-1z M94,47h1v1h-1z M97,47h1v1h-1z M98,47h1v1h-1z M100,47h1v1h-1z M101,47h1v1h-1z M103,47h1v1h-1z M105,47h1v1h-1z M106,47h1v1h-1z M107,47h1v1h-1z M108,47h1v1h-1z M4,48h1v1h-1z M6,48h1v1h-1z M9,48h1v1h-1z M10,48h1v1h-1z M11,48h1v1h-1z M13,48h1v1h-1z M15,48h1v1h-1z M17,48h1v1h-1z M19,48h1v1h-1z M20,48h1v1h-1z M21,48h1v1h-1z M24,48h1v1h-1z M25,48h1v1h-1z M28,48h1v1h-1z M29,48h1v1h-1z M36,48h1v1h-1z M39,48h1v1h-1z M42,48h1v1h-1z M43,48h1v1h-1z M44,48h1v1h-1z M46,48h1v1h-1z M47,48h1v1h-1z M48,48h1v1h-1z M49,48h1v1h-1z M50,48h1v1h-1z M52,48h1v1h-1z M53,48h1v1h-1z M54,48h1v1h-1z M57,48h1v1h-1z M65,48h1v1h-1z M67,48h1v1h-1z M69,48h1v1h-1z M71,48h1v1h-1z M72,48h1v1h-1z M77,48h1v1h-1z M79,48h1v1h-1z M82,48h1v1h-1z M89,48h1v1h-1z M90,48h1v1h-1z M91,48h1v1h-1z M92,48h1v1h-1z M93,48h1v1h-1z M95,48h1v1h-1z M96,48h1v1h-1z M99,48h1v1h-1z M100,48h1v1h-1z M105,48h1v1h-1z M106,48h1v1h-1z M108,48h1v1h-1z M5,49h1v1h-1z M7,49h1v1h-1z M11,49h1v1h-1z M12,49h1v1h-1z M14,49h1v1h-1z M15,49h1v1h-1z M17,49h1v1h-1z M18,49h1v1h-1z M20,49h1v1h-1z M21,49h1v1h-1z M24,49h1v1h-1z M27,49h1v1h-1z M28,49h1v1h-1z M29,49h1v1h-1z M32,49h1v1h-1z M33,49h1v1h-1z M36,49h1v1h-1z M37,49h1v1h-1z M38,49h1v1h-1z M40,49h1v1h-1z M41,49h1v1h-1z M42,49h1v1h-1z M45,49h1v1h-1z M50,49h1v1h-1z M52,49h1v1h-1z M55,49h1v1h-1z M56,49h1v1h-1z M63,49h1v1h-1z M64,49h1v1h-1z M71,49h1v1h-1z M73,49h1v1h-1z M75,49h1v1h-1z M77,49h1v1h-1z M79,49h1v1h-1z M84,49h1v1h-1z M86,49h1v1h-1z M96,49h1v1h-1z M98,49h1v1h-1z M99,49h1v1h-1z M100,49h1v1h-1z M102,49h1v1h-1z M103,49h1v1h-1z M104,49h1v1h-1z M107,49h1v1h-1z M108,49h1v1h-1z M6,50h1v1h-1z M8,50h1v1h-1z M10,50h1v1h-1z M11,50h1v1h-1z M13,50h1v1h-1z M14,50h1v1h-1z M17,50h1v1h-1z M18,50h1v1h-1z M19,50h1v1h-1z M21,50h1v1h-1z M25,50h1v1h-1z M27,50h1v1h-1z M28,50h1v1h-1z M29,50h1v1h-1z M31,50h1v1h-1z M33,50h1v1h-1z M34,50h1v1h-1z M36,50h1v1h-1z M39,50h1v1h-1z M44,50h1v1h-1z M45,50h1v1h-1z M46,50h1v1h-1z M52,50h1v1h-1z M54,50h1v1h-1z M57,50h1v1h-1z M58,50h1v1h-1z M60,50h1v1h-1z M64,50h1v1h-1z M65,50h1v1h-1z M67,50h1v1h-1z M68,50h1v1h-1z M70,50h1v1h-1z M71,50h1v1h-1z M72,50h1v1h-1z M76,50h1v1h-1z M77,50h1v1h-1z M79,50h1v1h-1z M80,50h1v1h-1z M81,50h1v1h-1z M82,50h1v1h-1z M83,50h1v1h-1z M84,50h1v1h-1z M87,50h1v1h-1z M91,50h1v1h-1z M92,50h1v1h-1z M93,50h1v1h-1z M94,50h1v1h-1z M95,50h1v1h-1z M96,50h1v1h-1z M99,50h1v1h-1z M102,50h1v1h-1z M103,50h1v1h-1z M106,50h1v1h-1z M107,50h1v1h-1z M5,51h1v1h-1z M6,51h1v1h-1z M7,51h1v1h-1z M8,51h1v1h-1z M9,51h1v1h-1z M12,51h1v1h-1z M13,51h1v1h-1z M15,51h1v1h-1z M20,51h1v1h-1z M22,51h1v1h-1z M23,51h1v1h-1z M25,51h1v1h-1z M27,51h1v1h-1z M29,51h1v1h-1z M32,51h1v1h-1z M35,51h1v1h-1z M40,51h1v1h-1z M41,51h1v1h-1z M42,51h1v1h-1z M43,51h1v1h-1z M46,51h1v1h-1z M47,51h1v1h-1z M49,51h1v1h-1z M50,51h1v1h-1z M51,51h1v1h-1z M52,51h1v1h-1z M53,51h1v1h-1z M59,51h1v1h-1z M63,51h1v1h-1z M64,51h1v1h-1z M66,51h1v1h-1z M74,51h1v1h-1z M77,51h1v1h-1z M79,51h1v1h-1z M80,51h1v1h-1z M86,51h1v1h-1z M87,51h1v1h-1z M88,51h1v1h-1z M89,51h1v1h-1z M90,51h1v1h-1z M94,51h1v1h-1z M97,51h1v1h-1z M100,51h1v1h-1z M105,51h1v1h-1z M106,51h1v1h-1z M108,51h1v1h-1z M4,52h1v1h-1z M5,52h1v1h-1z M8,52h1v1h-1z M9,52h1v1h-1z M10,52h1v1h-1z M11,52h1v1h-1z M12,52h1v1h-1z M14,52h1v1h-1z M15,52h1v1h-1z M16,52h1v1h-1z M18,52h1v1h-1z M20,52h1v1h-1z M24,52h1v1h-1z M26,52h1v1h-1z M28,52h1v1h-1z M29,52h1v1h-1z M30,52h1v1h-1z M31,52h1v1h-1z M32,52h1v1h-1z M33,52h1v1h-1z M34,52h1v1h-1z M35,52h1v1h-1z M37,52h1v1h-1z M38,52h1v1h-1z M39,52h1v1h-1z M40,52h1v1h-1z M41,52h1v1h-1z M42,52h1v1h-1z M43,52h1v1h-1z M44,52h1v1h-1z M45,52h1v1h-1z M46,52h1v1h-1z M47,52h1v1h-1z M49,52h1v1h-1z M50,52h1v1h-1z M52,52h1v1h-1z M53,52h1v1h-1z M54,52h1v1h-1z M55,52h1v1h-1z M56,52h1v1h-1z M58,52h1v1h-1z M59,52h1v1h-1z M60,52h1v1h-1z M63,52h1v1h-1z M66,52h1v1h-1z M67,52h1v1h-1z M69,52h1v1h-1z M70,52h1v1h-1z M71,52h1v1h-1z M72,52h1v1h-1z M73,52h1v1h-1z M76,52h1v1h-1z M77,52h1v1h-1z M78,52h1v1h-1z M79,52h1v1h-1z M80,52h1v1h-1z M81,52h1v1h-1z M82,52h1v1h-1z M84,52h1v1h-1z M85,52h1v1h-1z M87,52h1v1h-1z M88,52h1v1h-1z M89,52h1v1h-1z M91,52h1v1h-1z M92,52h1v1h-1z M94,52h1v1h-1z M99,52h1v1h-1z M100,52h1v1h-1z M101,52h1v1h-1z M102,52h1v1h-1z M103,52h1v1h-1z M104,52h1v1h-1z M108,52h1v1h-1z M4,53h1v1h-1z M7,53h1v1h-1z M8,53h1v1h-1z M12,53h1v1h-1z M13,53h1v1h-1z M14,53h1v1h-1z M15,53h1v1h-1z M17,53h1v1h-1z M18,53h1v1h-1z M19,53h1v1h-1z M22,53h1v1h-1z M25,53h1v1h-1z M26,53h1v1h-1z M28,53h1v1h-1z M32,53h1v1h-1z M35,53h1v1h-1z M38,53h1v1h-1z M39,53h1v1h-1z M41,53h1v1h-1z M42,53h1v1h-1z M43,53h1v1h-1z M44,53h1v1h-1z M45,53h1v1h-1z M47,53h1v1h-1z M51,53h1v1h-1z M52,53h1v1h-1z M56,53h1v1h-1z M59,53h1v1h-1z M61,53h1v1h-1z M65,53h1v1h-1z M67,53h1v1h-1z M68,53h1v1h-1z M70,53h1v1h-1z M75,53h1v1h-1z M76,53h1v1h-1z M80,53h1v1h-1z M81,53h1v1h-1z M82,53h1v1h-1z M85,53h1v1h-1z M88,53h1v1h-1z M89,53h1v1h-1z M91,53h1v1h-1z M96,53h1v1h-1z M97,53h1v1h-1z M98,53h1v1h-1z M100,53h1v1h-1z M104,53h1v1h-1z M105,53h1v1h-1z M106,53h1v1h-1z M108,53h1v1h-1z M4,54h1v1h-1z M5,54h1v1h-1z M6,54h1v1h-1z M7,54h1v1h-1z M8,54h1v1h-1z M10,54h1v1h-1z M12,54h1v1h-1z M13,54h1v1h-1z M16,54h1v1h-1z M17,54h1v1h-1z M18,54h1v1h-1z M19,54h1v1h-1z M20,54h1v1h-1z M22,54h1v1h-1z M23,54h1v1h-1z M24,54h1v1h-1z M25,54h1v1h-1z M28,54h1v1h-1z M30,54h1v1h-1z M32,54h1v1h-1z M33,54h1v1h-1z M34,54h1v1h-1z M35,54h1v1h-1z M37,54h1v1h-1z M39,54h1v1h-1z M41,54h1v1h-1z M44,54h1v1h-1z M45,54h1v1h-1z M46,54h1v1h-1z M49,54h1v1h-1z M52,54h1v1h-1z M54,54h1v1h-1z M56,54h1v1h-1z M57,54h1v1h-1z M58,54h1v1h-1z M63,54h1v1h-1z M70,54h1v1h-1z M71,54h1v1h-1z M72,54h1v1h-1z M75,54h1v1h-1z M76,54h1v1h-1z M78,54h1v1h-1z M80,54h1v1h-1z M81,54h1v1h-1z M82,54h1v1h-1z M83,54h1v1h-1z M84,54h1v1h-1z M85,54h1v1h-1z M87,54h1v1h-1z M89,54h1v1h-1z M92,54h1v1h-1z M93,54h1v1h-1z M94,54h1v1h-1z M96,54h1v1h-1z M100,54h1v1h-1z M102,54h1v1h-1z M104,54h1v1h-1z M106,54h1v1h-1z M107,54h1v1h-1z M8,55h1v1h-1z M12,55h1v1h-1z M20,55h1v1h-1z M21,55h1v1h-1z M22,55h1v1h-1z M23,55h1v1h-1z M24,55h1v1h-1z M25,55h1v1h-1z M26,55h1v1h-1z M28,55h1v1h-1z M32,55h1v1h-1z M35,55h1v1h-1z M38,55h1v1h-1z M40,55h1v1h-1z M43,55h1v1h-1z M47,55h1v1h-1z M49,55h1v1h-1z M50,55h1v1h-1z M51,55h1v1h-1z M52,55h1v1h-1z M56,55h1v1h-1z M57,55h1v1h-1z M58,55h1v1h-1z M59,55h1v1h-1z M61,55h1v1h-1z M64,55h1v1h-1z M65,55h1v1h-1z M66,55h1v1h-1z M69,55h1v1h-1z M73,55h1v1h-1z M74,55h1v1h-1z M75,55h1v1h-1z M76,55h1v1h-1z M80,55h1v1h-1z M82,55h1v1h-1z M83,55h1v1h-1z M86,55h1v1h-1z M87,55h1v1h-1z M88,55h1v1h-1z M93,55h1v1h-1z M97,55h1v1h-1z M99,55h1v1h-1z M100,55h1v1h-1z M104,55h1v1h-1z M105,55h1v1h-1z M106,55h1v1h-1z M108,55h1v1h-1z M4,56h1v1h-1z M6,56h1v1h-1z M7,56h1v1h-1z M8,56h1v1h-1z M9,56h1v1h-1z M10,56h1v1h-1z M11,56h1v1h-1z M12,56h1v1h-1z M13,56h1v1h-1z M14,56h1v1h-1z M16,56h1v1h-1z M17,56h1v1h-1z M18,56h1v1h-1z M23,56h1v1h-1z M24,56h1v1h-1z M25,56h1v1h-1z M28,56h1v1h-1z M29,56h1v1h-1z M30,56h1v1h-1z M31,56h1v1h-1z M32,56h1v1h-1z M33,56h1v1h-1z M35,56h1v1h-1z M36,56h1v1h-1z M37,56h1v1h-1z M40,56h1v1h-1z M41,56h1v1h-1z M42,56h1v1h-1z M47,56h1v1h-1z M48,56h1v1h-1z M52,56h1v1h-1z M53,56h1v1h-1z M54,56h1v1h-1z M55,56h1v1h-1z M56,56h1v1h-1z M58,56h1v1h-1z M60,56h1v1h-1z M61,56h1v1h-1z M62,56h1v1h-1z M63,56h1v1h-1z M64,56h1v1h-1z M67,56h1v1h-1z M69,56h1v1h-1z M70,56h1v1h-1z M71,56h1v1h-1z M73,56h1v1h-1z M74,56h1v1h-1z M76,56h1v1h-1z M77,56h1v1h-1z M78,56h1v1h-1z M79,56h1v1h-1z M80,56h1v1h-1z M81,56h1v1h-1z M82,56h1v1h-1z M84,56h1v1h-1z M85,56h1v1h-1z M87,56h1v1h-1z M88,56h1v1h-1z M92,56h1v1h-1z M93,56h1v1h-1z M94,56h1v1h-1z M95,56h1v1h-1z M97,56h1v1h-1z M100,56h1v1h-1z M101,56h1v1h-1z M102,56h1v1h-1z M103,56h1v1h-1z M104,56h1v1h-1z M105,56h1v1h-1z M108,56h1v1h-1z M5,57h1v1h-1z M9,57h1v1h-1z M12,57h1v1h-1z M13,57h1v1h-1z M17,57h1v1h-1z M19,57h1v1h-1z M21,57h1v1h-1z M22,57h1v1h-1z M24,57h1v1h-1z M25,57h1v1h-1z M27,57h1v1h-1z M29,57h1v1h-1z M30,57h1v1h-1z M31,57h1v1h-1z M34,57h1v1h-1z M35,57h1v1h-1z M37,57h1v1h-1z M38,57h1v1h-1z M39,57h1v1h-1z M41,57h1v1h-1z M42,57h1v1h-1z M45,57h1v1h-1z M49,57h1v1h-1z M50,57h1v1h-1z M53,57h1v1h-1z M57,57h1v1h-1z M58,57h1v1h-1z M65,57h1v1h-1z M66,57h1v1h-1z M72,57h1v1h-1z M73,57h1v1h-1z M75,57h1v1h-1z M76,57h1v1h-1z M77,57h1v1h-1z M78,57h1v1h-1z M82,57h1v1h-1z M84,57h1v1h-1z M89,57h1v1h-1z M90,57h1v1h-1z M91,57h1v1h-1z M95,57h1v1h-1z M98,57h1v1h-1z M99,57h1v1h-1z M100,57h1v1h-1z M101,57h1v1h-1z M105,57h1v1h-1z M108,57h1v1h-1z M4,58h1v1h-1z M5,58h1v1h-1z M6,58h1v1h-1z M8,58h1v1h-1z M9,58h1v1h-1z M10,58h1v1h-1z M13,58h1v1h-1z M14,58h1v1h-1z M20,58h1v1h-1z M22,58h1v1h-1z M23,58h1v1h-1z M26,58h1v1h-1z M27,58h1v1h-1z M28,58h1v1h-1z M29,58h1v1h-1z M31,58h1v1h-1z M32,58h1v1h-1z M33,58h1v1h-1z M34,58h1v1h-1z M39,58h1v1h-1z M41,58h1v1h-1z M44,58h1v1h-1z M46,58h1v1h-1z M47,58h1v1h-1z M51,58h1v1h-1z M52,58h1v1h-1z M55,58h1v1h-1z M56,58h1v1h-1z M57,58h1v1h-1z M58,58h1v1h-1z M59,58h1v1h-1z M60,58h1v1h-1z M63,58h1v1h-1z M64,58h1v1h-1z M65,58h1v1h-1z M68,58h1v1h-1z M69,58h1v1h-1z M70,58h1v1h-1z M72,58h1v1h-1z M75,58h1v1h-1z M76,58h1v1h-1z M79,58h1v1h-1z M81,58h1v1h-1z M82,58h1v1h-1z M83,58h1v1h-1z M84,58h1v1h-1z M89,58h1v1h-1z M91,58h1v1h-1z M92,58h1v1h-1z M94,58h1v1h-1z M101,58h1v1h-1z M102,58h1v1h-1z M103,58h1v1h-1z M106,58h1v1h-1z M107,58h1v1h-1z M8,59h1v1h-1z M9,59h1v1h-1z M11,59h1v1h-1z M12,59h1v1h-1z M14,59h1v1h-1z M17,59h1v1h-1z M18,59h1v1h-1z M20,59h1v1h-1z M21,59h1v1h-1z M22,59h1v1h-1z M23,59h1v1h-1z M25,59h1v1h-1z M26,59h1v1h-1z M27,59h1v1h-1z M28,59h1v1h-1z M29,59h1v1h-1z M30,59h1v1h-1z M31,59h1v1h-1z M33,59h1v1h-1z M35,59h1v1h-1z M39,59h1v1h-1z M40,59h1v1h-1z M41,59h1v1h-1z M43,59h1v1h-1z M45,59h1v1h-1z M47,59h1v1h-1z M49,59h1v1h-1z M50,59h1v1h-1z M51,59h1v1h-1z M53,59h1v1h-1z M54,59h1v1h-1z M55,59h1v1h-1z M56,59h1v1h-1z M57,59h1v1h-1z M58,59h1v1h-1z M61,59h1v1h-1z M63,59h1v1h-1z M64,59h1v1h-1z M66,59h1v1h-1z M67,59h1v1h-1z M70,59h1v1h-1z M71,59h1v1h-1z M73,59h1v1h-1z M74,59h1v1h-1z M77,59h1v1h-1z M78,59h1v1h-1z M79,59h1v1h-1z M80,59h1v1h-1z M81,59h1v1h-1z M86,59h1v1h-1z M87,59h1v1h-1z M88,59h1v1h-1z M90,59h1v1h-1z M93,59h1v1h-1z M95,59h1v1h-1z M97,59h1v1h-1z M99,59h1v1h-1z M103,59h1v1h-1z M105,59h1v1h-1z M106,59h1v1h-1z M107,59h1v1h-1z M108,59h1v1h-1z M4,60h1v1h-1z M5,60h1v1h-1z M6,60h1v1h-1z M10,60h1v1h-1z M15,60h1v1h-1z M16,60h1v1h-1z M17,60h1v1h-1z M18,60h1v1h-1z M22,60h1v1h-1z M24,60h1v1h-1z M26,60h1v1h-1z M27,60h1v1h-1z M28,60h1v1h-1z M29,60h1v1h-1z M32,60h1v1h-1z M33,60h1v1h-1z M35,60h1v1h-1z M37,60h1v1h-1z M38,60h1v1h-1z M40,60h1v1h-1z M41,60h1v1h-1z M43,60h1v1h-1z M44,60h1v1h-1z M45,60h1v1h-1z M46,60h1v1h-1z M47,60h1v1h-1z M48,60h1v1h-1z M49,60h1v1h-1z M51,60h1v1h-1z M52,60h1v1h-1z M53,60h1v1h-1z M55,60h1v1h-1z M56,60h1v1h-1z M57,60h1v1h-1z M58,60h1v1h-1z M61,60h1v1h-1z M63,60h1v1h-1z M65,60h1v1h-1z M70,60h1v1h-1z M71,60h1v1h-1z M72,60h1v1h-1z M75,60h1v1h-1z M76,60h1v1h-1z M77,60h1v1h-1z M80,60h1v1h-1z M82,60h1v1h-1z M83,60h1v1h-1z M90,60h1v1h-1z M91,60h1v1h-1z M92,60h1v1h-1z M95,60h1v1h-1z M101,60h1v1h-1z M106,60h1v1h-1z M107,60h1v1h-1z M4,61h1v1h-1z M7,61h1v1h-1z M8,61h1v1h-1z M9,61h1v1h-1z M11,61h1v1h-1z M13,61h1v1h-1z M14,61h1v1h-1z M16,61h1v1h-1z M17,61h1v1h-1z M18,61h1v1h-1z M20,61h1v1h-1z M22,61h1v1h-1z M24,61h1v1h-1z M27,61h1v1h-1z M30,61h1v1h-1z M34,61h1v1h-1z M36,61h1v1h-1z M38,61h1v1h-1z M42,61h1v1h-1z M44,61h1v1h-1z M45,61h1v1h-1z M46,61h1v1h-1z M47,61h1v1h-1z M48,61h1v1h-1z M49,61h1v1h-1z M50,61h1v1h-1z M51,61h1v1h-1z M52,61h1v1h-1z M57,61h1v1h-1z M58,61h1v1h-1z M59,61h1v1h-1z M61,61h1v1h-1z M62,61h1v1h-1z M63,61h1v1h-1z M64,61h1v1h-1z M67,61h1v1h-1z M69,61h1v1h-1z M71,61h1v1h-1z M75,61h1v1h-1z M78,61h1v1h-1z M79,61h1v1h-1z M81,61h1v1h-1z M84,61h1v1h-1z M86,61h1v1h-1z M92,61h1v1h-1z M96,61h1v1h-1z M98,61h1v1h-1z M99,61h1v1h-1z M100,61h1v1h-1z M101,61h1v1h-1z M103,61h1v1h-1z M105,61h1v1h-1z M107,61h1v1h-1z M108,61h1v1h-1z M7,62h1v1h-1z M8,62h1v1h-1z M9,62h1v1h-1z M10,62h1v1h-1z M12,62h1v1h-1z M13,62h1v1h-1z M14,62h1v1h-1z M17,62h1v1h-1z M20,62h1v1h-1z M22,62h1v1h-1z M23,62h1v1h-1z M26,62h1v1h-1z M27,62h1v1h-1z M28,62h1v1h-1z M29,62h1v1h-1z M32,62h1v1h-1z M33,62h1v1h-1z M34,62h1v1h-1z M36,62h1v1h-1z M41,62h1v1h-1z M43,62h1v1h-1z M44,62h1v1h-1z M46,62h1v1h-1z M48,62h1v1h-1z M51,62h1v1h-1z M52,62h1v1h-1z M53,62h1v1h-1z M55,62h1v1h-1z M56,62h1v1h-1z M57,62h1v1h-1z M58,62h1v1h-1z M59,62h1v1h-1z M60,62h1v1h-1z M65,62h1v1h-1z M67,62h1v1h-1z M70,62h1v1h-1z M71,62h1v1h-1z M76,62h1v1h-1z M79,62h1v1h-1z M80,62h1v1h-1z M81,62h1v1h-1z M82,62h1v1h-1z M83,62h1v1h-1z M84,62h1v1h-1z M85,62h1v1h-1z M88,62h1v1h-1z M89,62h1v1h-1z M92,62h1v1h-1z M93,62h1v1h-1z M94,62h1v1h-1z M95,62h1v1h-1z M99,62h1v1h-1z M100,62h1v1h-1z M101,62h1v1h-1z M102,62h1v1h-1z M105,62h1v1h-1z M5,63h1v1h-1z M7,63h1v1h-1z M9,63h1v1h-1z M11,63h1v1h-1z M13,63h1v1h-1z M15,63h1v1h-1z M16,63h1v1h-1z M17,63h1v1h-1z M19,63h1v1h-1z M20,63h1v1h-1z M21,63h1v1h-1z M22,63h1v1h-1z M25,63h1v1h-1z M27,63h1v1h-1z M29,63h1v1h-1z M30,63h1v1h-1z M31,63h1v1h-1z M33,63h1v1h-1z M34,63h1v1h-1z M35,63h1v1h-1z M37,63h1v1h-1z M39,63h1v1h-1z M40,63h1v1h-1z M45,63h1v1h-1z M49,63h1v1h-1z M50,63h1v1h-1z M51,63h1v1h-1z M54,63h1v1h-1z M55,63h1v1h-1z M57,63h1v1h-1z M58,63h1v1h-1z M61,63h1v1h-1z M62,63h1v1h-1z M63,63h1v1h-1z M64,63h1v1h-1z M65,63h1v1h-1z M69,63h1v1h-1z M71,63h1v1h-1z M75,63h1v1h-1z M76,63h1v1h-1z M77,63h1v1h-1z M81,63h1v1h-1z M82,63h1v1h-1z M86,63h1v1h-1z M87,63h1v1h-1z M88,63h1v1h-1z M90,63h1v1h-1z M91,63h1v1h-1z M93,63h1v1h-1z M95,63h1v1h-1z M97,63h1v1h-1z M100,63h1v1h-1z M102,63h1v1h-1z M103,63h1v1h-1z M105,63h1v1h-1z M106,63h1v1h-1z M107,63h1v1h-1z M108,63h1v1h-1z M4,64h1v1h-1z M5,64h1v1h-1z M6,64h1v1h-1z M9,64h1v1h-1z M10,64h1v1h-1z M11,64h1v1h-1z M12,64h1v1h-1z M16,64h1v1h-1z M17,64h1v1h-1z M21,64h1v1h-1z M22,64h1v1h-1z M24,64h1v1h-1z M27,64h1v1h-1z M28,64h1v1h-1z M29,64h1v1h-1z M31,64h1v1h-1z M32,64h1v1h-1z M35,64h1v1h-1z M36,64h1v1h-1z M39,64h1v1h-1z M41,64h1v1h-1z M42,64h1v1h-1z M43,64h1v1h-1z M46,64h1v1h-1z M51,64h1v1h-1z M53,64h1v1h-1z M55,64h1v1h-1z M56,64h1v1h-1z M57,64h1v1h-1z M58,64h1v1h-1z M59,64h1v1h-1z M60,64h1v1h-1z M61,64h1v1h-1z M62,64h1v1h-1z M63,64h1v1h-1z M65,64h1v1h-1z M68,64h1v1h-1z M69,64h1v1h-1z M70,64h1v1h-1z M73,64h1v1h-1z M75,64h1v1h-1z M76,64h1v1h-1z M80,64h1v1h-1z M81,64h1v1h-1z M82,64h1v1h-1z M83,64h1v1h-1z M87,64h1v1h-1z M91,64h1v1h-1z M92,64h1v1h-1z M93,64h1v1h-1z M94,64h1v1h-1z M95,64h1v1h-1z M96,64h1v1h-1z M97,64h1v1h-1z M98,64h1v1h-1z M5,65h1v1h-1z M6,65h1v1h-1z M7,65h1v1h-1z M9,65h1v1h-1z M15,65h1v1h-1z M19,65h1v1h-1z M20,65h1v1h-1z M23,65h1v1h-1z M25,65h1v1h-1z M33,65h1v1h-1z M34,65h1v1h-1z M35,65h1v1h-1z M36,65h1v1h-1z M37,65h1v1h-1z M39,65h1v1h-1z M40,65h1v1h-1z M41,65h1v1h-1z M42,65h1v1h-1z M43,65h1v1h-1z M44,65h1v1h-1z M45,65h1v1h-1z M50,65h1v1h-1z M51,65h1v1h-1z M53,65h1v1h-1z M57,65h1v1h-1z M60,65h1v1h-1z M62,65h1v1h-1z M65,65h1v1h-1z M66,65h1v1h-1z M68,65h1v1h-1z M69,65h1v1h-1z M71,65h1v1h-1z M73,65h1v1h-1z M74,65h1v1h-1z M76,65h1v1h-1z M77,65h1v1h-1z M78,65h1v1h-1z M79,65h1v1h-1z M83,65h1v1h-1z M86,65h1v1h-1z M90,65h1v1h-1z M91,65h1v1h-1z M94,65h1v1h-1z M95,65h1v1h-1z M99,65h1v1h-1z M100,65h1v1h-1z M101,65h1v1h-1z M103,65h1v1h-1z M104,65h1v1h-1z M105,65h1v1h-1z M107,65h1v1h-1z M108,65h1v1h-1z M4,66h1v1h-1z M5,66h1v1h-1z M6,66h1v1h-1z M9,66h1v1h-1z M10,66h1v1h-1z M14,66h1v1h-1z M15,66h1v1h-1z M16,66h1v1h-1z M19,66h1v1h-1z M20,66h1v1h-1z M21,66h1v1h-1z M25,66h1v1h-1z M27,66h1v1h-1z M28,66h1v1h-1z M32,66h1v1h-1z M33,66h1v1h-1z M34,66h1v1h-1z M35,66h1v1h-1z M36,66h1v1h-1z M39,66h1v1h-1z M41,66h1v1h-1z M43,66h1v1h-1z M45,66h1v1h-1z M46,66h1v1h-1z M48,66h1v1h-1z M51,66h1v1h-1z M52,66h1v1h-1z M57,66h1v1h-1z M58,66h1v1h-1z M63,66h1v1h-1z M67,66h1v1h-1z M69,66h1v1h-1z M70,66h1v1h-1z M73,66h1v1h-1z M75,66h1v1h-1z M76,66h1v1h-1z M77,66h1v1h-1z M78,66h1v1h-1z M79,66h1v1h-1z M80,66h1v1h-1z M81,66h1v1h-1z M82,66h1v1h-1z M83,66h1v1h-1z M84,66h1v1h-1z M88,66h1v1h-1z M92,66h1v1h-1z M93,66h1v1h-1z M94,66h1v1h-1z M99,66h1v1h-1z M100,66h1v1h-1z M4,67h1v1h-1z M5,67h1v1h-1z M7,67h1v1h-1z M12,67h1v1h-1z M15,67h1v1h-1z M16,67h1v1h-1z M24,67h1v1h-1z M25,67h1v1h-1z M26,67h1v1h-1z M28,67h1v1h-1z M29,67h1v1h-1z M30,67h1v1h-1z M32,67h1v1h-1z M33,67h1v1h-1z M37,67h1v1h-1z M38,67h1v1h-1z M39,67h1v1h-1z M40,67h1v1h-1z M46,67h1v1h-1z M47,67h1v1h-1z M49,67h1v1h-1z M52,67h1v1h-1z M53,67h1v1h-1z M58,67h1v1h-1z M59,67h1v1h-1z M61,67h1v1h-1z M62,67h1v1h-1z M64,67h1v1h-1z M65,67h1v1h-1z M66,67h1v1h-1z M70,67h1v1h-1z M71,67h1v1h-1z M74,67h1v1h-1z M76,67h1v1h-1z M77,67h1v1h-1z M78,67h1v1h-1z M79,67h1v1h-1z M81,67h1v1h-1z M83,67h1v1h-1z M85,67h1v1h-1z M87,67h1v1h-1z M88,67h1v1h-1z M89,67h1v1h-1z M90,67h1v1h-1z M91,67h1v1h-1z M94,67h1v1h-1z M95,67h1v1h-1z M101,67h1v1h-1z M105,67h1v1h-1z M106,67h1v1h-1z M108,67h1v1h-1z M6,68h1v1h-1z M7,68h1v1h-1z M9,68h1v1h-1z M10,68h1v1h-1z M11,68h1v1h-1z M12,68h1v1h-1z M13,68h1v1h-1z M14,68h1v1h-1z M15,68h1v1h-1z M16,68h1v1h-1z M18,68h1v1h-1z M19,68h1v1h-1z M20,68h1v1h-1z M21,68h1v1h-1z M22,68h1v1h-1z M23,68h1v1h-1z M24,68h1v1h-1z M25,68h1v1h-1z M28,68h1v1h-1z M29,68h1v1h-1z M31,68h1v1h-1z M33,68h1v1h-1z M34,68h1v1h-1z M37,68h1v1h-1z M38,68h1v1h-1z M39,68h1v1h-1z M46,68h1v1h-1z M47,68h1v1h-1z M48,68h1v1h-1z M49,68h1v1h-1z M50,68h1v1h-1z M51,68h1v1h-1z M52,68h1v1h-1z M53,68h1v1h-1z M63,68h1v1h-1z M66,68h1v1h-1z M70,68h1v1h-1z M71,68h1v1h-1z M72,68h1v1h-1z M74,68h1v1h-1z M77,68h1v1h-1z M79,68h1v1h-1z M80,68h1v1h-1z M82,68h1v1h-1z M84,68h1v1h-1z M87,68h1v1h-1z M92,68h1v1h-1z M93,68h1v1h-1z M94,68h1v1h-1z M96,68h1v1h-1z M99,68h1v1h-1z M105,68h1v1h-1z M5,69h1v1h-1z M7,69h1v1h-1z M12,69h1v1h-1z M13,69h1v1h-1z M14,69h1v1h-1z M19,69h1v1h-1z M20,69h1v1h-1z M22,69h1v1h-1z M23,69h1v1h-1z M25,69h1v1h-1z M33,69h1v1h-1z M34,69h1v1h-1z M39,69h1v1h-1z M40,69h1v1h-1z M41,69h1v1h-1z M42,69h1v1h-1z M44,69h1v1h-1z M45,69h1v1h-1z M49,69h1v1h-1z M52,69h1v1h-1z M57,69h1v1h-1z M59,69h1v1h-1z M62,69h1v1h-1z M63,69h1v1h-1z M64,69h1v1h-1z M66,69h1v1h-1z M67,69h1v1h-1z M68,69h1v1h-1z M70,69h1v1h-1z M71,69h1v1h-1z M74,69h1v1h-1z M78,69h1v1h-1z M81,69h1v1h-1z M82,69h1v1h-1z M85,69h1v1h-1z M86,69h1v1h-1z M87,69h1v1h-1z M88,69h1v1h-1z M89,69h1v1h-1z M91,69h1v1h-1z M92,69h1v1h-1z M93,69h1v1h-1z M95,69h1v1h-1z M96,69h1v1h-1z M97,69h1v1h-1z M99,69h1v1h-1z M100,69h1v1h-1z M101,69h1v1h-1z M104,69h1v1h-1z M108,69h1v1h-1z M5,70h1v1h-1z M7,70h1v1h-1z M8,70h1v1h-1z M10,70h1v1h-1z M11,70h1v1h-1z M15,70h1v1h-1z M16,70h1v1h-1z M18,70h1v1h-1z M19,70h1v1h-1z M22,70h1v1h-1z M24,70h1v1h-1z M25,70h1v1h-1z M27,70h1v1h-1z M28,70h1v1h-1z M29,70h1v1h-1z M32,70h1v1h-1z M33,70h1v1h-1z M34,70h1v1h-1z M35,70h1v1h-1z M36,70h1v1h-1z M44,70h1v1h-1z M45,70h1v1h-1z M46,70h1v1h-1z M51,70h1v1h-1z M52,70h1v1h-1z M53,70h1v1h-1z M55,70h1v1h-1z M57,70h1v1h-1z M58,70h1v1h-1z M59,70h1v1h-1z M63,70h1v1h-1z M65,70h1v1h-1z M67,70h1v1h-1z M69,70h1v1h-1z M70,70h1v1h-1z M71,70h1v1h-1z M75,70h1v1h-1z M76,70h1v1h-1z M78,70h1v1h-1z M82,70h1v1h-1z M83,70h1v1h-1z M84,70h1v1h-1z M87,70h1v1h-1z M88,70h1v1h-1z M92,70h1v1h-1z M93,70h1v1h-1z M94,70h1v1h-1z M97,70h1v1h-1z M99,70h1v1h-1z M100,70h1v1h-1z M101,70h1v1h-1z M102,70h1v1h-1z M106,70h1v1h-1z M107,70h1v1h-1z M108,70h1v1h-1z M4,71h1v1h-1z M5,71h1v1h-1z M7,71h1v1h-1z M9,71h1v1h-1z M12,71h1v1h-1z M13,71h1v1h-1z M21,71h1v1h-1z M23,71h1v1h-1z M24,71h1v1h-1z M27,71h1v1h-1z M28,71h1v1h-1z M37,71h1v1h-1z M38,71h1v1h-1z M39,71h1v1h-1z M40,71h1v1h-1z M41,71h1v1h-1z M42,71h1v1h-1z M43,71h1v1h-1z M45,71h1v1h-1z M47,71h1v1h-1z M53,71h1v1h-1z M56,71h1v1h-1z M57,71h1v1h-1z M58,71h1v1h-1z M59,71h1v1h-1z M61,71h1v1h-1z M62,71h1v1h-1z M63,71h1v1h-1z M64,71h1v1h-1z M65,71h1v1h-1z M69,71h1v1h-1z M71,71h1v1h-1z M77,71h1v1h-1z M80,71h1v1h-1z M83,71h1v1h-1z M85,71h1v1h-1z M86,71h1v1h-1z M87,71h1v1h-1z M88,71h1v1h-1z M89,71h1v1h-1z M90,71h1v1h-1z M93,71h1v1h-1z M95,71h1v1h-1z M97,71h1v1h-1z M98,71h1v1h-1z M99,71h1v1h-1z M100,71h1v1h-1z M101,71h1v1h-1z M104,71h1v1h-1z M105,71h1v1h-1z M106,71h1v1h-1z M107,71h1v1h-1z M108,71h1v1h-1z M4,72h1v1h-1z M6,72h1v1h-1z M7,72h1v1h-1z M9,72h1v1h-1z M10,72h1v1h-1z M12,72h1v1h-1z M15,72h1v1h-1z M16,72h1v1h-1z M19,72h1v1h-1z M21,72h1v1h-1z M24,72h1v1h-1z M25,72h1v1h-1z M27,72h1v1h-1z M28,72h1v1h-1z M31,72h1v1h-1z M32,72h1v1h-1z M33,72h1v1h-1z M34,72h1v1h-1z M35,72h1v1h-1z M39,72h1v1h-1z M40,72h1v1h-1z M42,72h1v1h-1z M43,72h1v1h-1z M44,72h1v1h-1z M45,72h1v1h-1z M48,72h1v1h-1z M49,72h1v1h-1z M52,72h1v1h-1z M53,72h1v1h-1z M55,72h1v1h-1z M58,72h1v1h-1z M60,72h1v1h-1z M61,72h1v1h-1z M62,72h1v1h-1z M64,72h1v1h-1z M66,72h1v1h-1z M67,72h1v1h-1z M68,72h1v1h-1z M69,72h1v1h-1z M71,72h1v1h-1z M76,72h1v1h-1z M77,72h1v1h-1z M79,72h1v1h-1z M80,72h1v1h-1z M81,72h1v1h-1z M82,72h1v1h-1z M84,72h1v1h-1z M86,72h1v1h-1z M90,72h1v1h-1z M94,72h1v1h-1z M95,72h1v1h-1z M99,72h1v1h-1z M101,72h1v1h-1z M102,72h1v1h-1z M103,72h1v1h-1z M5,73h1v1h-1z M7,73h1v1h-1z M8,73h1v1h-1z M11,73h1v1h-1z M13,73h1v1h-1z M14,73h1v1h-1z M17,73h1v1h-1z M18,73h1v1h-1z M19,73h1v1h-1z M20,73h1v1h-1z M21,73h1v1h-1z M22,73h1v1h-1z M29,73h1v1h-1z M30,73h1v1h-1z M34,73h1v1h-1z M36,73h1v1h-1z M37,73h1v1h-1z M38,73h1v1h-1z M41,73h1v1h-1z M46,73h1v1h-1z M48,73h1v1h-1z M49,73h1v1h-1z M58,73h1v1h-1z M64,73h1v1h-1z M65,73h1v1h-1z M69,73h1v1h-1z M70,73h1v1h-1z M72,73h1v1h-1z M73,73h1v1h-1z M74,73h1v1h-1z M76,73h1v1h-1z M78,73h1v1h-1z M79,73h1v1h-1z M83,73h1v1h-1z M84,73h1v1h-1z M85,73h1v1h-1z M87,73h1v1h-1z M91,73h1v1h-1z M92,73h1v1h-1z M94,73h1v1h-1z M97,73h1v1h-1z M98,73h1v1h-1z M99,73h1v1h-1z M100,73h1v1h-1z M101,73h1v1h-1z M103,73h1v1h-1z M106,73h1v1h-1z M107,73h1v1h-1z M108,73h1v1h-1z M5,74h1v1h-1z M6,74h1v1h-1z M9,74h1v1h-1z M10,74h1v1h-1z M12,74h1v1h-1z M15,74h1v1h-1z M17,74h1v1h-1z M18,74h1v1h-1z M21,74h1v1h-1z M22,74h1v1h-1z M25,74h1v1h-1z M27,74h1v1h-1z M28,74h1v1h-1z M30,74h1v1h-1z M31,74h1v1h-1z M33,74h1v1h-1z M34,74h1v1h-1z M36,74h1v1h-1z M39,74h1v1h-1z M41,74h1v1h-1z M43,74h1v1h-1z M45,74h1v1h-1z M46,74h1v1h-1z M47,74h1v1h-1z M48,74h1v1h-1z M51,74h1v1h-1z M52,74h1v1h-1z M58,74h1v1h-1z M59,74h1v1h-1z M61,74h1v1h-1z M63,74h1v1h-1z M65,74h1v1h-1z M68,74h1v1h-1z M69,74h1v1h-1z M70,74h1v1h-1z M71,74h1v1h-1z M72,74h1v1h-1z M75,74h1v1h-1z M76,74h1v1h-1z M77,74h1v1h-1z M78,74h1v1h-1z M79,74h1v1h-1z M81,74h1v1h-1z M82,74h1v1h-1z M84,74h1v1h-1z M88,74h1v1h-1z M89,74h1v1h-1z M93,74h1v1h-1z M94,74h1v1h-1z M96,74h1v1h-1z M101,74h1v1h-1z M105,74h1v1h-1z M7,75h1v1h-1z M8,75h1v1h-1z M11,75h1v1h-1z M14,75h1v1h-1z M15,75h1v1h-1z M16,75h1v1h-1z M17,75h1v1h-1z M19,75h1v1h-1z M20,75h1v1h-1z M21,75h1v1h-1z M25,75h1v1h-1z M27,75h1v1h-1z M28,75h1v1h-1z M30,75h1v1h-1z M33,75h1v1h-1z M35,75h1v1h-1z M37,75h1v1h-1z M38,75h1v1h-1z M39,75h1v1h-1z M40,75h1v1h-1z M41,75h1v1h-1z M42,75h1v1h-1z M45,75h1v1h-1z M47,75h1v1h-1z M49,75h1v1h-1z M50,75h1v1h-1z M52,75h1v1h-1z M54,75h1v1h-1z M55,75h1v1h-1z M56,75h1v1h-1z M59,75h1v1h-1z M62,75h1v1h-1z M63,75h1v1h-1z M64,75h1v1h-1z M65,75h1v1h-1z M66,75h1v1h-1z M71,75h1v1h-1z M75,75h1v1h-1z M77,75h1v1h-1z M79,75h1v1h-1z M80,75h1v1h-1z M81,75h1v1h-1z M82,75h1v1h-1z M85,75h1v1h-1z M87,75h1v1h-1z M88,75h1v1h-1z M89,75h1v1h-1z M95,75h1v1h-1z M97,75h1v1h-1z M98,75h1v1h-1z M99,75h1v1h-1z M100,75h1v1h-1z M102,75h1v1h-1z M103,75h1v1h-1z M105,75h1v1h-1z M106,75h1v1h-1z M5,76h1v1h-1z M7,76h1v1h-1z M8,76h1v1h-1z M9,76h1v1h-1z M10,76h1v1h-1z M11,76h1v1h-1z M12,76h1v1h-1z M13,76h1v1h-1z M14,76h1v1h-1z M17,76h1v1h-1z M22,76h1v1h-1z M23,76h1v1h-1z M24,76h1v1h-1z M25,76h1v1h-1z M27,76h1v1h-1z M28,76h1v1h-1z M29,76h1v1h-1z M30,76h1v1h-1z M31,76h1v1h-1z M32,76h1v1h-1z M34,76h1v1h-1z M36,76h1v1h-1z M37,76h1v1h-1z M38,76h1v1h-1z M39,76h1v1h-1z M41,76h1v1h-1z M43,76h1v1h-1z M45,76h1v1h-1z M46,76h1v1h-1z M47,76h1v1h-1z M48,76h1v1h-1z M49,76h1v1h-1z M51,76h1v1h-1z M52,76h1v1h-1z M53,76h1v1h-1z M54,76h1v1h-1z M55,76h1v1h-1z M56,76h1v1h-1z M57,76h1v1h-1z M59,76h1v1h-1z M60,76h1v1h-1z M62,76h1v1h-1z M65,76h1v1h-1z M67,76h1v1h-1z M69,76h1v1h-1z M72,76h1v1h-1z M75,76h1v1h-1z M76,76h1v1h-1z M77,76h1v1h-1z M78,76h1v1h-1z M79,76h1v1h-1z M80,76h1v1h-1z M83,76h1v1h-1z M87,76h1v1h-1z M89,76h1v1h-1z M92,76h1v1h-1z M93,76h1v1h-1z M97,76h1v1h-1z M98,76h1v1h-1z M99,76h1v1h-1z M100,76h1v1h-1z M101,76h1v1h-1z M102,76h1v1h-1z M103,76h1v1h-1z M104,76h1v1h-1z M105,76h1v1h-1z M106,76h1v1h-1z M5,77h1v1h-1z M6,77h1v1h-1z M8,77h1v1h-1z M12,77h1v1h-1z M14,77h1v1h-1z M16,77h1v1h-1z M17,77h1v1h-1z M18,77h1v1h-1z M19,77h1v1h-1z M20,77h1v1h-1z M21,77h1v1h-1z M22,77h1v1h-1z M24,77h1v1h-1z M25,77h1v1h-1z M28,77h1v1h-1z M32,77h1v1h-1z M33,77h1v1h-1z M34,77h1v1h-1z M36,77h1v1h-1z M37,77h1v1h-1z M40,77h1v1h-1z M41,77h1v1h-1z M43,77h1v1h-1z M45,77h1v1h-1z M48,77h1v1h-1z M50,77h1v1h-1z M52,77h1v1h-1z M56,77h1v1h-1z M58,77h1v1h-1z M61,77h1v1h-1z M62,77h1v1h-1z M63,77h1v1h-1z M64,77h1v1h-1z M66,77h1v1h-1z M67,77h1v1h-1z M68,77h1v1h-1z M70,77h1v1h-1z M73,77h1v1h-1z M74,77h1v1h-1z M76,77h1v1h-1z M80,77h1v1h-1z M81,77h1v1h-1z M85,77h1v1h-1z M88,77h1v1h-1z M89,77h1v1h-1z M90,77h1v1h-1z M93,77h1v1h-1z M95,77h1v1h-1z M97,77h1v1h-1z M98,77h1v1h-1z M99,77h1v1h-1z M100,77h1v1h-1z M104,77h1v1h-1z M107,77h1v1h-1z M6,78h1v1h-1z M8,78h1v1h-1z M10,78h1v1h-1z M12,78h1v1h-1z M13,78h1v1h-1z M15,78h1v1h-1z M21,78h1v1h-1z M22,78h1v1h-1z M28,78h1v1h-1z M30,78h1v1h-1z M32,78h1v1h-1z M34,78h1v1h-1z M41,78h1v1h-1z M45,78h1v1h-1z M46,78h1v1h-1z M48,78h1v1h-1z M52,78h1v1h-1z M54,78h1v1h-1z M56,78h1v1h-1z M57,78h1v1h-1z M58,78h1v1h-1z M61,78h1v1h-1z M63,78h1v1h-1z M64,78h1v1h-1z M65,78h1v1h-1z M68,78h1v1h-1z M69,78h1v1h-1z M70,78h1v1h-1z M71,78h1v1h-1z M72,78h1v1h-1z M75,78h1v1h-1z M76,78h1v1h-1z M78,78h1v1h-1z M80,78h1v1h-1z M81,78h1v1h-1z M82,78h1v1h-1z M83,78h1v1h-1z M84,78h1v1h-1z M87,78h1v1h-1z M89,78h1v1h-1z M92,78h1v1h-1z M93,78h1v1h-1z M94,78h1v1h-1z M95,78h1v1h-1z M100,78h1v1h-1z M102,78h1v1h-1z M104,78h1v1h-1z M105,78h1v1h-1z M106,78h1v1h-1z M107,78h1v1h-1z M4,79h1v1h-1z M6,79h1v1h-1z M8,79h1v1h-1z M12,79h1v1h-1z M15,79h1v1h-1z M16,79h1v1h-1z M17,79h1v1h-1z M23,79h1v1h-1z M26,79h1v1h-1z M27,79h1v1h-1z M28,79h1v1h-1z M32,79h1v1h-1z M33,79h1v1h-1z M35,79h1v1h-1z M37,79h1v1h-1z M39,79h1v1h-1z M40,79h1v1h-1z M47,79h1v1h-1z M52,79h1v1h-1z M56,79h1v1h-1z M58,79h1v1h-1z M59,79h1v1h-1z M62,79h1v1h-1z M63,79h1v1h-1z M64,79h1v1h-1z M66,79h1v1h-1z M74,79h1v1h-1z M75,79h1v1h-1z M76,79h1v1h-1z M80,79h1v1h-1z M81,79h1v1h-1z M82,79h1v1h-1z M86,79h1v1h-1z M87,79h1v1h-1z M88,79h1v1h-1z M89,79h1v1h-1z M91,79h1v1h-1z M94,79h1v1h-1z M95,79h1v1h-1z M98,79h1v1h-1z M100,79h1v1h-1z M104,79h1v1h-1z M105,79h1v1h-1z M106,79h1v1h-1z M4,80h1v1h-1z M5,80h1v1h-1z M6,80h1v1h-1z M7,80h1v1h-1z M8,80h1v1h-1z M9,80h1v1h-1z M10,80h1v1h-1z M11,80h1v1h-1z M12,80h1v1h-1z M17,80h1v1h-1z M18,80h1v1h-1z M25,80h1v1h-1z M26,80h1v1h-1z M27,80h1v1h-1z M28,80h1v1h-1z M29,80h1v1h-1z M30,80h1v1h-1z M31,80h1v1h-1z M32,80h1v1h-1z M36,80h1v1h-1z M39,80h1v1h-1z M40,80h1v1h-1z M41,80h1v1h-1z M45,80h1v1h-1z M46,80h1v1h-1z M48,80h1v1h-1z M49,80h1v1h-1z M51,80h1v1h-1z M52,80h1v1h-1z M53,80h1v1h-1z M54,80h1v1h-1z M55,80h1v1h-1z M56,80h1v1h-1z M57,80h1v1h-1z M62,80h1v1h-1z M64,80h1v1h-1z M66,80h1v1h-1z M68,80h1v1h-1z M71,80h1v1h-1z M72,80h1v1h-1z M73,80h1v1h-1z M74,80h1v1h-1z M76,80h1v1h-1z M77,80h1v1h-1z M78,80h1v1h-1z M79,80h1v1h-1z M80,80h1v1h-1z M81,80h1v1h-1z M83,80h1v1h-1z M87,80h1v1h-1z M91,80h1v1h-1z M92,80h1v1h-1z M94,80h1v1h-1z M96,80h1v1h-1z M99,80h1v1h-1z M100,80h1v1h-1z M101,80h1v1h-1z M102,80h1v1h-1z M103,80h1v1h-1z M104,80h1v1h-1z M105,80h1v1h-1z M106,80h1v1h-1z M108,80h1v1h-1z M7,81h1v1h-1z M9,81h1v1h-1z M11,81h1v1h-1z M13,81h1v1h-1z M16,81h1v1h-1z M17,81h1v1h-1z M18,81h1v1h-1z M20,81h1v1h-1z M22,81h1v1h-1z M23,81h1v1h-1z M24,81h1v1h-1z M25,81h1v1h-1z M28,81h1v1h-1z M29,81h1v1h-1z M31,81h1v1h-1z M32,81h1v1h-1z M34,81h1v1h-1z M40,81h1v1h-1z M43,81h1v1h-1z M50,81h1v1h-1z M52,81h1v1h-1z M56,81h1v1h-1z M57,81h1v1h-1z M58,81h1v1h-1z M61,81h1v1h-1z M62,81h1v1h-1z M63,81h1v1h-1z M64,81h1v1h-1z M65,81h1v1h-1z M66,81h1v1h-1z M68,81h1v1h-1z M72,81h1v1h-1z M77,81h1v1h-1z M79,81h1v1h-1z M80,81h1v1h-1z M82,81h1v1h-1z M84,81h1v1h-1z M85,81h1v1h-1z M87,81h1v1h-1z M88,81h1v1h-1z M89,81h1v1h-1z M90,81h1v1h-1z M91,81h1v1h-1z M93,81h1v1h-1z M101,81h1v1h-1z M105,81h1v1h-1z M106,81h1v1h-1z M108,81h1v1h-1z M4,82h1v1h-1z M5,82h1v1h-1z M6,82h1v1h-1z M7,82h1v1h-1z M9,82h1v1h-1z M10,82h1v1h-1z M11,82h1v1h-1z M12,82h1v1h-1z M13,82h1v1h-1z M16,82h1v1h-1z M18,82h1v1h-1z M19,82h1v1h-1z M20,82h1v1h-1z M21,82h1v1h-1z M23,82h1v1h-1z M27,82h1v1h-1z M28,82h1v1h-1z M29,82h1v1h-1z M30,82h1v1h-1z M33,82h1v1h-1z M34,82h1v1h-1z M37,82h1v1h-1z M41,82h1v1h-1z M43,82h1v1h-1z M44,82h1v1h-1z M46,82h1v1h-1z M48,82h1v1h-1z M51,82h1v1h-1z M54,82h1v1h-1z M57,82h1v1h-1z M58,82h1v1h-1z M59,82h1v1h-1z M60,82h1v1h-1z M68,82h1v1h-1z M69,82h1v1h-1z M70,82h1v1h-1z M71,82h1v1h-1z M72,82h1v1h-1z M73,82h1v1h-1z M75,82h1v1h-1z M76,82h1v1h-1z M77,82h1v1h-1z M81,82h1v1h-1z M82,82h1v1h-1z M83,82h1v1h-1z M84,82h1v1h-1z M93,82h1v1h-1z M94,82h1v1h-1z M96,82h1v1h-1z M101,82h1v1h-1z M103,82h1v1h-1z M4,83h1v1h-1z M6,83h1v1h-1z M7,83h1v1h-1z M8,83h1v1h-1z M9,83h1v1h-1z M12,83h1v1h-1z M13,83h1v1h-1z M16,83h1v1h-1z M19,83h1v1h-1z M23,83h1v1h-1z M26,83h1v1h-1z M29,83h1v1h-1z M30,83h1v1h-1z M32,83h1v1h-1z M34,83h1v1h-1z M35,83h1v1h-1z M38,83h1v1h-1z M39,83h1v1h-1z M40,83h1v1h-1z M45,83h1v1h-1z M47,83h1v1h-1z M49,83h1v1h-1z M50,83h1v1h-1z M51,83h1v1h-1z M53,83h1v1h-1z M55,83h1v1h-1z M61,83h1v1h-1z M62,83h1v1h-1z M63,83h1v1h-1z M64,83h1v1h-1z M65,83h1v1h-1z M66,83h1v1h-1z M67,83h1v1h-1z M69,83h1v1h-1z M71,83h1v1h-1z M74,83h1v1h-1z M75,83h1v1h-1z M76,83h1v1h-1z M80,83h1v1h-1z M81,83h1v1h-1z M82,83h1v1h-1z M85,83h1v1h-1z M87,83h1v1h-1z M88,83h1v1h-1z M90,83h1v1h-1z M93,83h1v1h-1z M95,83h1v1h-1z M97,83h1v1h-1z M98,83h1v1h-1z M99,83h1v1h-1z M100,83h1v1h-1z M103,83h1v1h-1z M104,83h1v1h-1z M105,83h1v1h-1z M106,83h1v1h-1z M107,83h1v1h-1z M4,84h1v1h-1z M5,84h1v1h-1z M7,84h1v1h-1z M8,84h1v1h-1z M10,84h1v1h-1z M13,84h1v1h-1z M14,84h1v1h-1z M16,84h1v1h-1z M18,84h1v1h-1z M21,84h1v1h-1z M22,84h1v1h-1z M23,84h1v1h-1z M29,84h1v1h-1z M33,84h1v1h-1z M35,84h1v1h-1z M37,84h1v1h-1z M39,84h1v1h-1z M40,84h1v1h-1z M45,84h1v1h-1z M47,84h1v1h-1z M48,84h1v1h-1z M50,84h1v1h-1z M51,84h1v1h-1z M55,84h1v1h-1z M56,84h1v1h-1z M58,84h1v1h-1z M59,84h1v1h-1z M60,84h1v1h-1z M66,84h1v1h-1z M67,84h1v1h-1z M68,84h1v1h-1z M69,84h1v1h-1z M79,84h1v1h-1z M80,84h1v1h-1z M81,84h1v1h-1z M82,84h1v1h-1z M84,84h1v1h-1z M88,84h1v1h-1z M89,84h1v1h-1z M92,84h1v1h-1z M95,84h1v1h-1z M96,84h1v1h-1z M97,84h1v1h-1z M100,84h1v1h-1z M103,84h1v1h-1z M104,84h1v1h-1z M5,85h1v1h-1z M6,85h1v1h-1z M7,85h1v1h-1z M9,85h1v1h-1z M12,85h1v1h-1z M14,85h1v1h-1z M15,85h1v1h-1z M18,85h1v1h-1z M20,85h1v1h-1z M21,85h1v1h-1z M22,85h1v1h-1z M24,85h1v1h-1z M25,85h1v1h-1z M26,85h1v1h-1z M29,85h1v1h-1z M31,85h1v1h-1z M32,85h1v1h-1z M35,85h1v1h-1z M36,85h1v1h-1z M39,85h1v1h-1z M40,85h1v1h-1z M43,85h1v1h-1z M44,85h1v1h-1z M45,85h1v1h-1z M46,85h1v1h-1z M48,85h1v1h-1z M49,85h1v1h-1z M50,85h1v1h-1z M52,85h1v1h-1z M53,85h1v1h-1z M56,85h1v1h-1z M57,85h1v1h-1z M60,85h1v1h-1z M64,85h1v1h-1z M68,85h1v1h-1z M69,85h1v1h-1z M73,85h1v1h-1z M76,85h1v1h-1z M77,85h1v1h-1z M83,85h1v1h-1z M85,85h1v1h-1z M86,85h1v1h-1z M88,85h1v1h-1z M93,85h1v1h-1z M94,85h1v1h-1z M96,85h1v1h-1z M97,85h1v1h-1z M98,85h1v1h-1z M101,85h1v1h-1z M102,85h1v1h-1z M5,86h1v1h-1z M10,86h1v1h-1z M11,86h1v1h-1z M13,86h1v1h-1z M15,86h1v1h-1z M18,86h1v1h-1z M19,86h1v1h-1z M20,86h1v1h-1z M22,86h1v1h-1z M24,86h1v1h-1z M25,86h1v1h-1z M26,86h1v1h-1z M27,86h1v1h-1z M28,86h1v1h-1z M30,86h1v1h-1z M33,86h1v1h-1z M34,86h1v1h-1z M36,86h1v1h-1z M41,86h1v1h-1z M44,86h1v1h-1z M45,86h1v1h-1z M46,86h1v1h-1z M47,86h1v1h-1z M51,86h1v1h-1z M53,86h1v1h-1z M54,86h1v1h-1z M57,86h1v1h-1z M58,86h1v1h-1z M59,86h1v1h-1z M60,86h1v1h-1z M61,86h1v1h-1z M65,86h1v1h-1z M70,86h1v1h-1z M72,86h1v1h-1z M75,86h1v1h-1z M76,86h1v1h-1z M78,86h1v1h-1z M81,86h1v1h-1z M82,86h1v1h-1z M83,86h1v1h-1z M84,86h1v1h-1z M85,86h1v1h-1z M89,86h1v1h-1z M92,86h1v1h-1z M93,86h1v1h-1z M94,86h1v1h-1z M95,86h1v1h-1z M99,86h1v1h-1z M100,86h1v1h-1z M101,86h1v1h-1z M106,86h1v1h-1z M107,86h1v1h-1z M16,87h1v1h-1z M17,87h1v1h-1z M19,87h1v1h-1z M20,87h1v1h-1z M21,87h1v1h-1z M23,87h1v1h-1z M24,87h1v1h-1z M26,87h1v1h-1z M28,87h1v1h-1z M29,87h1v1h-1z M30,87h1v1h-1z M32,87h1v1h-1z M34,87h1v1h-1z M35,87h1v1h-1z M37,87h1v1h-1z M38,87h1v1h-1z M39,87h1v1h-1z M40,87h1v1h-1z M41,87h1v1h-1z M42,87h1v1h-1z M46,87h1v1h-1z M47,87h1v1h-1z M50,87h1v1h-1z M57,87h1v1h-1z M62,87h1v1h-1z M64,87h1v1h-1z M71,87h1v1h-1z M74,87h1v1h-1z M75,87h1v1h-1z M76,87h1v1h-1z M79,87h1v1h-1z M80,87h1v1h-1z M82,87h1v1h-1z M86,87h1v1h-1z M87,87h1v1h-1z M88,87h1v1h-1z M90,87h1v1h-1z M94,87h1v1h-1z M95,87h1v1h-1z M103,87h1v1h-1z M105,87h1v1h-1z M106,87h1v1h-1z M6,88h1v1h-1z M8,88h1v1h-1z M9,88h1v1h-1z M10,88h1v1h-1z M12,88h1v1h-1z M13,88h1v1h-1z M14,88h1v1h-1z M15,88h1v1h-1z M23,88h1v1h-1z M26,88h1v1h-1z M29,88h1v1h-1z M31,88h1v1h-1z M33,88h1v1h-1z M34,88h1v1h-1z M37,88h1v1h-1z M39,88h1v1h-1z M40,88h1v1h-1z M41,88h1v1h-1z M42,88h1v1h-1z M44,88h1v1h-1z M45,88h1v1h-1z M47,88h1v1h-1z M49,88h1v1h-1z M50,88h1v1h-1z M51,88h1v1h-1z M52,88h1v1h-1z M53,88h1v1h-1z M58,88h1v1h-1z M62,88h1v1h-1z M64,88h1v1h-1z M66,88h1v1h-1z M70,88h1v1h-1z M72,88h1v1h-1z M73,88h1v1h-1z M77,88h1v1h-1z M79,88h1v1h-1z M82,88h1v1h-1z M83,88h1v1h-1z M85,88h1v1h-1z M87,88h1v1h-1z M88,88h1v1h-1z M89,88h1v1h-1z M92,88h1v1h-1z M97,88h1v1h-1z M98,88h1v1h-1z M101,88h1v1h-1z M103,88h1v1h-1z M105,88h1v1h-1z M7,89h1v1h-1z M8,89h1v1h-1z M13,89h1v1h-1z M14,89h1v1h-1z M17,89h1v1h-1z M22,89h1v1h-1z M23,89h1v1h-1z M24,89h1v1h-1z M25,89h1v1h-1z M26,89h1v1h-1z M29,89h1v1h-1z M33,89h1v1h-1z M34,89h1v1h-1z M35,89h1v1h-1z M36,89h1v1h-1z M42,89h1v1h-1z M43,89h1v1h-1z M45,89h1v1h-1z M46,89h1v1h-1z M50,89h1v1h-1z M52,89h1v1h-1z M55,89h1v1h-1z M56,89h1v1h-1z M57,89h1v1h-1z M58,89h1v1h-1z M62,89h1v1h-1z M67,89h1v1h-1z M69,89h1v1h-1z M71,89h1v1h-1z M73,89h1v1h-1z M74,89h1v1h-1z M76,89h1v1h-1z M77,89h1v1h-1z M79,89h1v1h-1z M80,89h1v1h-1z M81,89h1v1h-1z M82,89h1v1h-1z M83,89h1v1h-1z M84,89h1v1h-1z M85,89h1v1h-1z M89,89h1v1h-1z M92,89h1v1h-1z M94,89h1v1h-1z M95,89h1v1h-1z M97,89h1v1h-1z M98,89h1v1h-1z M99,89h1v1h-1z M102,89h1v1h-1z M106,89h1v1h-1z M107,89h1v1h-1z M108,89h1v1h-1z M10,90h1v1h-1z M11,90h1v1h-1z M14,90h1v1h-1z M15,90h1v1h-1z M16,90h1v1h-1z M20,90h1v1h-1z M22,90h1v1h-1z M23,90h1v1h-1z M30,90h1v1h-1z M33,90h1v1h-1z M34,90h1v1h-1z M35,90h1v1h-1z M36,90h1v1h-1z M40,90h1v1h-1z M43,90h1v1h-1z M45,90h1v1h-1z M46,90h1v1h-1z M48,90h1v1h-1z M53,90h1v1h-1z M54,90h1v1h-1z M55,90h1v1h-1z M57,90h1v1h-1z M58,90h1v1h-1z M60,90h1v1h-1z M61,90h1v1h-1z M63,90h1v1h-1z M64,90h1v1h-1z M65,90h1v1h-1z M68,90h1v1h-1z M70,90h1v1h-1z M71,90h1v1h-1z M72,90h1v1h-1z M75,90h1v1h-1z M77,90h1v1h-1z M81,90h1v1h-1z M82,90h1v1h-1z M87,90h1v1h-1z M89,90h1v1h-1z M91,90h1v1h-1z M92,90h1v1h-1z M93,90h1v1h-1z M94,90h1v1h-1z M95,90h1v1h-1z M96,90h1v1h-1z M99,90h1v1h-1z M100,90h1v1h-1z M101,90h1v1h-1z M103,90h1v1h-1z M105,90h1v1h-1z M107,90h1v1h-1z M4,91h1v1h-1z M5,91h1v1h-1z M8,91h1v1h-1z M12,91h1v1h-1z M13,91h1v1h-1z M14,91h1v1h-1z M15,91h1v1h-1z M22,91h1v1h-1z M25,91h1v1h-1z M26,91h1v1h-1z M31,91h1v1h-1z M32,91h1v1h-1z M34,91h1v1h-1z M35,91h1v1h-1z M37,91h1v1h-1z M38,91h1v1h-1z M39,91h1v1h-1z M40,91h1v1h-1z M41,91h1v1h-1z M42,91h1v1h-1z M45,91h1v1h-1z M46,91h1v1h-1z M47,91h1v1h-1z M52,91h1v1h-1z M55,91h1v1h-1z M57,91h1v1h-1z M59,91h1v1h-1z M62,91h1v1h-1z M63,91h1v1h-1z M64,91h1v1h-1z M66,91h1v1h-1z M67,91h1v1h-1z M69,91h1v1h-1z M73,91h1v1h-1z M78,91h1v1h-1z M81,91h1v1h-1z M83,91h1v1h-1z M86,91h1v1h-1z M88,91h1v1h-1z M90,91h1v1h-1z M94,91h1v1h-1z M97,91h1v1h-1z M98,91h1v1h-1z M99,91h1v1h-1z M102,91h1v1h-1z M103,91h1v1h-1z M105,91h1v1h-1z M106,91h1v1h-1z M107,91h1v1h-1z M4,92h1v1h-1z M5,92h1v1h-1z M6,92h1v1h-1z M9,92h1v1h-1z M10,92h1v1h-1z M11,92h1v1h-1z M13,92h1v1h-1z M14,92h1v1h-1z M15,92h1v1h-1z M16,92h1v1h-1z M17,92h1v1h-1z M19,92h1v1h-1z M21,92h1v1h-1z M22,92h1v1h-1z M25,92h1v1h-1z M26,92h1v1h-1z M27,92h1v1h-1z M30,92h1v1h-1z M31,92h1v1h-1z M34,92h1v1h-1z M37,92h1v1h-1z M38,92h1v1h-1z M39,92h1v1h-1z M42,92h1v1h-1z M43,92h1v1h-1z M46,92h1v1h-1z M48,92h1v1h-1z M49,92h1v1h-1z M51,92h1v1h-1z M53,92h1v1h-1z M54,92h1v1h-1z M57,92h1v1h-1z M58,92h1v1h-1z M59,92h1v1h-1z M60,92h1v1h-1z M61,92h1v1h-1z M63,92h1v1h-1z M64,92h1v1h-1z M65,92h1v1h-1z M67,92h1v1h-1z M68,92h1v1h-1z M69,92h1v1h-1z M70,92h1v1h-1z M73,92h1v1h-1z M77,92h1v1h-1z M80,92h1v1h-1z M82,92h1v1h-1z M85,92h1v1h-1z M90,92h1v1h-1z M91,92h1v1h-1z M92,92h1v1h-1z M96,92h1v1h-1z M97,92h1v1h-1z M98,92h1v1h-1z M100,92h1v1h-1z M101,92h1v1h-1z M102,92h1v1h-1z M103,92h1v1h-1z M106,92h1v1h-1z M108,92h1v1h-1z M4,93h1v1h-1z M5,93h1v1h-1z M6,93h1v1h-1z M7,93h1v1h-1z M8,93h1v1h-1z M9,93h1v1h-1z M11,93h1v1h-1z M12,93h1v1h-1z M14,93h1v1h-1z M15,93h1v1h-1z M17,93h1v1h-1z M18,93h1v1h-1z M20,93h1v1h-1z M25,93h1v1h-1z M28,93h1v1h-1z M29,93h1v1h-1z M34,93h1v1h-1z M35,93h1v1h-1z M37,93h1v1h-1z M40,93h1v1h-1z M43,93h1v1h-1z M47,93h1v1h-1z M49,93h1v1h-1z M50,93h1v1h-1z M53,93h1v1h-1z M56,93h1v1h-1z M61,93h1v1h-1z M62,93h1v1h-1z M64,93h1v1h-1z M71,93h1v1h-1z M74,93h1v1h-1z M76,93h1v1h-1z M80,93h1v1h-1z M81,93h1v1h-1z M83,93h1v1h-1z M85,93h1v1h-1z M87,93h1v1h-1z M90,93h1v1h-1z M92,93h1v1h-1z M93,93h1v1h-1z M94,93h1v1h-1z M98,93h1v1h-1z M100,93h1v1h-1z M101,93h1v1h-1z M102,93h1v1h-1z M105,93h1v1h-1z M106,93h1v1h-1z M107,93h1v1h-1z M5,94h1v1h-1z M6,94h1v1h-1z M10,94h1v1h-1z M12,94h1v1h-1z M14,94h1v1h-1z M15,94h1v1h-1z M16,94h1v1h-1z M20,94h1v1h-1z M23,94h1v1h-1z M24,94h1v1h-1z M29,94h1v1h-1z M30,94h1v1h-1z M33,94h1v1h-1z M34,94h1v1h-1z M41,94h1v1h-1z M43,94h1v1h-1z M44,94h1v1h-1z M46,94h1v1h-1z M48,94h1v1h-1z M51,94h1v1h-1z M52,94h1v1h-1z M55,94h1v1h-1z M57,94h1v1h-1z M58,94h1v1h-1z M59,94h1v1h-1z M60,94h1v1h-1z M63,94h1v1h-1z M64,94h1v1h-1z M65,94h1v1h-1z M68,94h1v1h-1z M69,94h1v1h-1z M70,94h1v1h-1z M71,94h1v1h-1z M72,94h1v1h-1z M75,94h1v1h-1z M76,94h1v1h-1z M78,94h1v1h-1z M81,94h1v1h-1z M82,94h1v1h-1z M83,94h1v1h-1z M88,94h1v1h-1z M89,94h1v1h-1z M91,94h1v1h-1z M92,94h1v1h-1z M93,94h1v1h-1z M94,94h1v1h-1z M99,94h1v1h-1z M100,94h1v1h-1z M101,94h1v1h-1z M103,94h1v1h-1z M107,94h1v1h-1z M4,95h1v1h-1z M5,95h1v1h-1z M8,95h1v1h-1z M12,95h1v1h-1z M15,95h1v1h-1z M16,95h1v1h-1z M17,95h1v1h-1z M18,95h1v1h-1z M19,95h1v1h-1z M20,95h1v1h-1z M23,95h1v1h-1z M24,95h1v1h-1z M25,95h1v1h-1z M26,95h1v1h-1z M31,95h1v1h-1z M32,95h1v1h-1z M33,95h1v1h-1z M35,95h1v1h-1z M37,95h1v1h-1z M39,95h1v1h-1z M40,95h1v1h-1z M42,95h1v1h-1z M45,95h1v1h-1z M49,95h1v1h-1z M51,95h1v1h-1z M55,95h1v1h-1z M56,95h1v1h-1z M62,95h1v1h-1z M63,95h1v1h-1z M64,95h1v1h-1z M66,95h1v1h-1z M67,95h1v1h-1z M69,95h1v1h-1z M70,95h1v1h-1z M74,95h1v1h-1z M79,95h1v1h-1z M82,95h1v1h-1z M83,95h1v1h-1z M85,95h1v1h-1z M87,95h1v1h-1z M88,95h1v1h-1z M90,95h1v1h-1z M95,95h1v1h-1z M97,95h1v1h-1z M98,95h1v1h-1z M99,95h1v1h-1z M101,95h1v1h-1z M103,95h1v1h-1z M104,95h1v1h-1z M105,95h1v1h-1z M106,95h1v1h-1z M108,95h1v1h-1z M4,96h1v1h-1z M6,96h1v1h-1z M7,96h1v1h-1z M8,96h1v1h-1z M10,96h1v1h-1z M11,96h1v1h-1z M15,96h1v1h-1z M16,96h1v1h-1z M17,96h1v1h-1z M19,96h1v1h-1z M22,96h1v1h-1z M23,96h1v1h-1z M25,96h1v1h-1z M26,96h1v1h-1z M31,96h1v1h-1z M34,96h1v1h-1z M35,96h1v1h-1z M36,96h1v1h-1z M40,96h1v1h-1z M41,96h1v1h-1z M42,96h1v1h-1z M44,96h1v1h-1z M45,96h1v1h-1z M46,96h1v1h-1z M49,96h1v1h-1z M53,96h1v1h-1z M54,96h1v1h-1z M59,96h1v1h-1z M60,96h1v1h-1z M64,96h1v1h-1z M68,96h1v1h-1z M69,96h1v1h-1z M70,96h1v1h-1z M77,96h1v1h-1z M79,96h1v1h-1z M90,96h1v1h-1z M93,96h1v1h-1z M94,96h1v1h-1z M97,96h1v1h-1z M101,96h1v1h-1z M106,96h1v1h-1z M4,97h1v1h-1z M6,97h1v1h-1z M7,97h1v1h-1z M12,97h1v1h-1z M13,97h1v1h-1z M14,97h1v1h-1z M16,97h1v1h-1z M18,97h1v1h-1z M19,97h1v1h-1z M21,97h1v1h-1z M28,97h1v1h-1z M29,97h1v1h-1z M32,97h1v1h-1z M33,97h1v1h-1z M38,97h1v1h-1z M39,97h1v1h-1z M40,97h1v1h-1z M41,97h1v1h-1z M44,97h1v1h-1z M45,97h1v1h-1z M52,97h1v1h-1z M53,97h1v1h-1z M55,97h1v1h-1z M56,97h1v1h-1z M58,97h1v1h-1z M59,97h1v1h-1z M61,97h1v1h-1z M62,97h1v1h-1z M63,97h1v1h-1z M64,97h1v1h-1z M65,97h1v1h-1z M68,97h1v1h-1z M69,97h1v1h-1z M71,97h1v1h-1z M74,97h1v1h-1z M77,97h1v1h-1z M80,97h1v1h-1z M82,97h1v1h-1z M83,97h1v1h-1z M85,97h1v1h-1z M92,97h1v1h-1z M95,97h1v1h-1z M97,97h1v1h-1z M98,97h1v1h-1z M102,97h1v1h-1z M108,97h1v1h-1z M4,98h1v1h-1z M5,98h1v1h-1z M6,98h1v1h-1z M10,98h1v1h-1z M11,98h1v1h-1z M12,98h1v1h-1z M13,98h1v1h-1z M15,98h1v1h-1z M16,98h1v1h-1z M18,98h1v1h-1z M19,98h1v1h-1z M20,98h1v1h-1z M21,98h1v1h-1z M23,98h1v1h-1z M25,98h1v1h-1z M26,98h1v1h-1z M29,98h1v1h-1z M33,98h1v1h-1z M34,98h1v1h-1z M39,98h1v1h-1z M40,98h1v1h-1z M41,98h1v1h-1z M44,98h1v1h-1z M46,98h1v1h-1z M47,98h1v1h-1z M48,98h1v1h-1z M51,98h1v1h-1z M52,98h1v1h-1z M53,98h1v1h-1z M54,98h1v1h-1z M57,98h1v1h-1z M58,98h1v1h-1z M60,98h1v1h-1z M61,98h1v1h-1z M65,98h1v1h-1z M67,98h1v1h-1z M69,98h1v1h-1z M70,98h1v1h-1z M71,98h1v1h-1z M73,98h1v1h-1z M76,98h1v1h-1z M77,98h1v1h-1z M78,98h1v1h-1z M79,98h1v1h-1z M81,98h1v1h-1z M82,98h1v1h-1z M83,98h1v1h-1z M89,98h1v1h-1z M92,98h1v1h-1z M93,98h1v1h-1z M94,98h1v1h-1z M95,98h1v1h-1z M96,98h1v1h-1z M97,98h1v1h-1z M100,98h1v1h-1z M101,98h1v1h-1z M103,98h1v1h-1z M104,98h1v1h-1z M106,98h1v1h-1z M107,98h1v1h-1z M6,99h1v1h-1z M8,99h1v1h-1z M9,99h1v1h-1z M11,99h1v1h-1z M16,99h1v1h-1z M17,99h1v1h-1z M19,99h1v1h-1z M20,99h1v1h-1z M22,99h1v1h-1z M23,99h1v1h-1z M24,99h1v1h-1z M25,99h1v1h-1z M29,99h1v1h-1z M30,99h1v1h-1z M33,99h1v1h-1z M35,99h1v1h-1z M37,99h1v1h-1z M38,99h1v1h-1z M39,99h1v1h-1z M40,99h1v1h-1z M41,99h1v1h-1z M45,99h1v1h-1z M49,99h1v1h-1z M50,99h1v1h-1z M52,99h1v1h-1z M53,99h1v1h-1z M55,99h1v1h-1z M57,99h1v1h-1z M58,99h1v1h-1z M61,99h1v1h-1z M62,99h1v1h-1z M63,99h1v1h-1z M64,99h1v1h-1z M66,99h1v1h-1z M71,99h1v1h-1z M74,99h1v1h-1z M77,99h1v1h-1z M82,99h1v1h-1z M83,99h1v1h-1z M88,99h1v1h-1z M89,99h1v1h-1z M90,99h1v1h-1z M97,99h1v1h-1z M98,99h1v1h-1z M99,99h1v1h-1z M102,99h1v1h-1z M105,99h1v1h-1z M106,99h1v1h-1z M108,99h1v1h-1z M7,100h1v1h-1z M8,100h1v1h-1z M10,100h1v1h-1z M11,100h1v1h-1z M12,100h1v1h-1z M13,100h1v1h-1z M14,100h1v1h-1z M15,100h1v1h-1z M19,100h1v1h-1z M20,100h1v1h-1z M24,100h1v1h-1z M27,100h1v1h-1z M28,100h1v1h-1z M29,100h1v1h-1z M30,100h1v1h-1z M31,100h1v1h-1z M32,100h1v1h-1z M33,100h1v1h-1z M34,100h1v1h-1z M35,100h1v1h-1z M39,100h1v1h-1z M41,100h1v1h-1z M44,100h1v1h-1z M46,100h1v1h-1z M48,100h1v1h-1z M52,100h1v1h-1z M53,100h1v1h-1z M54,100h1v1h-1z M55,100h1v1h-1z M56,100h1v1h-1z M59,100h1v1h-1z M60,100h1v1h-1z M62,100h1v1h-1z M64,100h1v1h-1z M65,100h1v1h-1z M73,100h1v1h-1z M76,100h1v1h-1z M77,100h1v1h-1z M78,100h1v1h-1z M79,100h1v1h-1z M80,100h1v1h-1z M81,100h1v1h-1z M82,100h1v1h-1z M83,100h1v1h-1z M86,100h1v1h-1z M87,100h1v1h-1z M91,100h1v1h-1z M93,100h1v1h-1z M94,100h1v1h-1z M95,100h1v1h-1z M96,100h1v1h-1z M97,100h1v1h-1z M100,100h1v1h-1z M101,100h1v1h-1z M102,100h1v1h-1z M103,100h1v1h-1z M104,100h1v1h-1z M105,100h1v1h-1z M107,100h1v1h-1z M12,101h1v1h-1z M13,101h1v1h-1z M14,101h1v1h-1z M17,101h1v1h-1z M18,101h1v1h-1z M19,101h1v1h-1z M20,101h1v1h-1z M24,101h1v1h-1z M26,101h1v1h-1z M27,101h1v1h-1z M28,101h1v1h-1z M32,101h1v1h-1z M33,101h1v1h-1z M36,101h1v1h-1z M37,101h1v1h-1z M38,101h1v1h-1z M41,101h1v1h-1z M42,101h1v1h-1z M48,101h1v1h-1z M49,101h1v1h-1z M51,101h1v1h-1z M52,101h1v1h-1z M56,101h1v1h-1z M59,101h1v1h-1z M61,101h1v1h-1z M62,101h1v1h-1z M64,101h1v1h-1z M65,101h1v1h-1z M66,101h1v1h-1z M67,101h1v1h-1z M68,101h1v1h-1z M70,101h1v1h-1z M72,101h1v1h-1z M75,101h1v1h-1z M76,101h1v1h-1z M80,101h1v1h-1z M81,101h1v1h-1z M82,101h1v1h-1z M83,101h1v1h-1z M85,101h1v1h-1z M86,101h1v1h-1z M90,101h1v1h-1z M91,101h1v1h-1z M95,101h1v1h-1z M98,101h1v1h-1z M99,101h1v1h-1z M100,101h1v1h-1z M104,101h1v1h-1z M107,101h1v1h-1z M108,101h1v1h-1z M4,102h1v1h-1z M5,102h1v1h-1z M6,102h1v1h-1z M7,102h1v1h-1z M8,102h1v1h-1z M9,102h1v1h-1z M10,102h1v1h-1z M12,102h1v1h-1z M15,102h1v1h-1z M16,102h1v1h-1z M18,102h1v1h-1z M20,102h1v1h-1z M23,102h1v1h-1z M24,102h1v1h-1z M28,102h1v1h-1z M30,102h1v1h-1z M32,102h1v1h-1z M33,102h1v1h-1z M34,102h1v1h-1z M35,102h1v1h-1z M36,102h1v1h-1z M41,102h1v1h-1z M43,102h1v1h-1z M44,102h1v1h-1z M45,102h1v1h-1z M46,102h1v1h-1z M52,102h1v1h-1z M54,102h1v1h-1z M56,102h1v1h-1z M57,102h1v1h-1z M58,102h1v1h-1z M59,102h1v1h-1z M60,102h1v1h-1z M61,102h1v1h-1z M63,102h1v1h-1z M65,102h1v1h-1z M68,102h1v1h-1z M69,102h1v1h-1z M70,102h1v1h-1z M71,102h1v1h-1z M72,102h1v1h-1z M73,102h1v1h-1z M76,102h1v1h-1z M78,102h1v1h-1z M80,102h1v1h-1z M81,102h1v1h-1z M82,102h1v1h-1z M83,102h1v1h-1z M84,102h1v1h-1z M88,102h1v1h-1z M89,102h1v1h-1z M91,102h1v1h-1z M92,102h1v1h-1z M93,102h1v1h-1z M94,102h1v1h-1z M99,102h1v1h-1z M100,102h1v1h-1z M102,102h1v1h-1z M104,102h1v1h-1z M107,102h1v1h-1z M4,103h1v1h-1z M10,103h1v1h-1z M14,103h1v1h-1z M21,103h1v1h-1z M28,103h1v1h-1z M32,103h1v1h-1z M37,103h1v1h-1z M38,103h1v1h-1z M39,103h1v1h-1z M40,103h1v1h-1z M45,103h1v1h-1z M46,103h1v1h-1z M47,103h1v1h-1z M49,103h1v1h-1z M50,103h1v1h-1z M51,103h1v1h-1z M52,103h1v1h-1z M56,103h1v1h-1z M58,103h1v1h-1z M62,103h1v1h-1z M63,103h1v1h-1z M64,103h1v1h-1z M66,103h1v1h-1z M71,103h1v1h-1z M73,103h1v1h-1z M74,103h1v1h-1z M76,103h1v1h-1z M80,103h1v1h-1z M82,103h1v1h-1z M85,103h1v1h-1z M87,103h1v1h-1z M88,103h1v1h-1z M95,103h1v1h-1z M98,103h1v1h-1z M99,103h1v1h-1z M100,103h1v1h-1z M104,103h1v1h-1z M105,103h1v1h-1z M106,103h1v1h-1z M108,103h1v1h-1z M4,104h1v1h-1z M6,104h1v1h-1z M7,104h1v1h-1z M8,104h1v1h-1z M10,104h1v1h-1z M12,104h1v1h-1z M13,104h1v1h-1z M14,104h1v1h-1z M15,104h1v1h-1z M17,104h1v1h-1z M18,104h1v1h-1z M19,104h1v1h-1z M20,104h1v1h-1z M22,104h1v1h-1z M25,104h1v1h-1z M26,104h1v1h-1z M27,104h1v1h-1z M28,104h1v1h-1z M29,104h1v1h-1z M30,104h1v1h-1z M31,104h1v1h-1z M32,104h1v1h-1z M33,104h1v1h-1z M34,104h1v1h-1z M35,104h1v1h-1z M36,104h1v1h-1z M37,104h1v1h-1z M39,104h1v1h-1z M40,104h1v1h-1z M45,104h1v1h-1z M46,104h1v1h-1z M47,104h1v1h-1z M49,104h1v1h-1z M50,104h1v1h-1z M52,104h1v1h-1z M53,104h1v1h-1z M54,104h1v1h-1z M55,104h1v1h-1z M56,104h1v1h-1z M58,104h1v1h-1z M60,104h1v1h-1z M61,104h1v1h-1z M62,104h1v1h-1z M63,104h1v1h-1z M64,104h1v1h-1z M67,104h1v1h-1z M68,104h1v1h-1z M69,104h1v1h-1z M70,104h1v1h-1z M72,104h1v1h-1z M75,104h1v1h-1z M76,104h1v1h-1z M77,104h1v1h-1z M78,104h1v1h-1z M79,104h1v1h-1z M80,104h1v1h-1z M81,104h1v1h-1z M83,104h1v1h-1z M84,104h1v1h-1z M85,104h1v1h-1z M86,104h1v1h-1z M87,104h1v1h-1z M88,104h1v1h-1z M90,104h1v1h-1z M92,104h1v1h-1z M94,104h1v1h-1z M98,104h1v1h-1z M100,104h1v1h-1z M101,104h1v1h-1z M102,104h1v1h-1z M103,104h1v1h-1z M104,104h1v1h-1z M4,105h1v1h-1z M6,105h1v1h-1z M7,105h1v1h-1z M8,105h1v1h-1z M10,105h1v1h-1z M12,105h1v1h-1z M13,105h1v1h-1z M15,105h1v1h-1z M18,105h1v1h-1z M21,105h1v1h-1z M23,105h1v1h-1z M25,105h1v1h-1z M29,105h1v1h-1z M36,105h1v1h-1z M39,105h1v1h-1z M45,105h1v1h-1z M48,105h1v1h-1z M51,105h1v1h-1z M52,105h1v1h-1z M54,105h1v1h-1z M55,105h1v1h-1z M56,105h1v1h-1z M58,105h1v1h-1z M59,105h1v1h-1z M62,105h1v1h-1z M64,105h1v1h-1z M65,105h1v1h-1z M66,105h1v1h-1z M67,105h1v1h-1z M73,105h1v1h-1z M75,105h1v1h-1z M78,105h1v1h-1z M79,105h1v1h-1z M80,105h1v1h-1z M81,105h1v1h-1z M83,105h1v1h-1z M85,105h1v1h-1z M89,105h1v1h-1z M91,105h1v1h-1z M92,105h1v1h-1z M93,105h1v1h-1z M94,105h1v1h-1z M96,105h1v1h-1z M98,105h1v1h-1z M99,105h1v1h-1z M101,105h1v1h-1z M104,105h1v1h-1z M106,105h1v1h-1z M4,106h1v1h-1z M6,106h1v1h-1z M7,106h1v1h-1z M8,106h1v1h-1z M10,106h1v1h-1z M12,106h1v1h-1z M13,106h1v1h-1z M14,106h1v1h-1z M15,106h1v1h-1z M16,106h1v1h-1z M17,106h1v1h-1z M18,106h1v1h-1z M20,106h1v1h-1z M21,106h1v1h-1z M22,106h1v1h-1z M23,106h1v1h-1z M24,106h1v1h-1z M25,106h1v1h-1z M27,106h1v1h-1z M29,106h1v1h-1z M32,106h1v1h-1z M33,106h1v1h-1z M34,106h1v1h-1z M35,106h1v1h-1z M40,106h1v1h-1z M44,106h1v1h-1z M46,106h1v1h-1z M47,106h1v1h-1z M52,106h1v1h-1z M53,106h1v1h-1z M56,106h1v1h-1z M57,106h1v1h-1z M58,106h1v1h-1z M63,106h1v1h-1z M65,106h1v1h-1z M69,106h1v1h-1z M70,106h1v1h-1z M71,106h1v1h-1z M73,106h1v1h-1z M76,106h1v1h-1z M77,106h1v1h-1z M80,106h1v1h-1z M82,106h1v1h-1z M85,106h1v1h-1z M89,106h1v1h-1z M92,106h1v1h-1z M93,106h1v1h-1z M94,106h1v1h-1z M99,106h1v1h-1z M100,106h1v1h-1z M101,106h1v1h-1z M102,106h1v1h-1z M105,106h1v1h-1z M4,107h1v1h-1z M10,107h1v1h-1z M12,107h1v1h-1z M13,107h1v1h-1z M14,107h1v1h-1z M16,107h1v1h-1z M17,107h1v1h-1z M20,107h1v1h-1z M21,107h1v1h-1z M25,107h1v1h-1z M26,107h1v1h-1z M27,107h1v1h-1z M28,107h1v1h-1z M30,107h1v1h-1z M31,107h1v1h-1z M34,107h1v1h-1z M35,107h1v1h-1z M37,107h1v1h-1z M39,107h1v1h-1z M40,107h1v1h-1z M41,107h1v1h-1z M42,107h1v1h-1z M45,107h1v1h-1z M47,107h1v1h-1z M49,107h1v1h-1z M50,107h1v1h-1z M51,107h1v1h-1z M52,107h1v1h-1z M54,107h1v1h-1z M58,107h1v1h-1z M59,107h1v1h-1z M61,107h1v1h-1z M62,107h1v1h-1z M64,107h1v1h-1z M71,107h1v1h-1z M74,107h1v1h-1z M75,107h1v1h-1z M76,107h1v1h-1z M77,107h1v1h-1z M78,107h1v1h-1z M79,107h1v1h-1z M81,107h1v1h-1z M83,107h1v1h-1z M86,107h1v1h-1z M87,107h1v1h-1z M88,107h1v1h-1z M90,107h1v1h-1z M95,107h1v1h-1z M97,107h1v1h-1z M99,107h1v1h-1z M101,107h1v1h-1z M104,107h1v1h-1z M106,107h1v1h-1z M4,108h1v1h-1z M5,108h1v1h-1z M6,108h1v1h-1z M7,108h1v1h-1z M8,108h1v1h-1z M9,108h1v1h-1z M10,108h1v1h-1z M12,108h1v1h-1z M15,108h1v1h-1z M17,108h1v1h-1z M21,108h1v1h-1z M22,108h1v1h-1z M23,108h1v1h-1z M24,108h1v1h-1z M25,108h1v1h-1z M27,108h1v1h-1z M28,108h1v1h-1z M30,108h1v1h-1z M36,108h1v1h-1z M41,108h1v1h-1z M47,108h1v1h-1z M49,108h1v1h-1z M50,108h1v1h-1z M51,108h1v1h-1z M52,108h1v1h-1z M54,108h1v1h-1z M56,108h1v1h-1z M57,108h1v1h-1z M61,108h1v1h-1z M62,108h1v1h-1z M64,108h1v1h-1z M66,108h1v1h-1z M67,108h1v1h-1z M68,108h1v1h-1z M69,108h1v1h-1z M73,108h1v1h-1z M77,108h1v1h-1z M79,108h1v1h-1z M82,108h1v1h-1z M84,108h1v1h-1z M87,108h1v1h-1z M89,108h1v1h-1z M97,108h1v1h-1z M98,108h1v1h-1z M100,108h1v1h-1z M103,108h1v1h-1z M105,108h1v1h-1z M107,108h1v1h-1z" fill="#000000"/>
</svg>
