<?xml version="1.0" encoding="UTF-8"?>
<!DOCTYPE svg PUBLIC "-//W3C//DTD SVG 1.1//EN" "http://www.w3.org/Graphics/SVG/1.1/DTD/svg11.dtd">
<svg xmlns="http://www.w3.org/2000/svg" version="1.1" viewBox="0 0 113 113" stroke="none">
	<rect width="100%" height="100%" fill="#FFFFFF"/>
	<path d="M4,4h1v1h-1z M5,4h1v1h-1z M6,4h1v1h-1z M7,4h1v1h-1z M8,4h1v1h-1z M9,4h1v1h-1z M10,4h1v1h-1z M12,4h1v1h-1z M14,4h1v1h-1z M16,4h1v1h-1z M18,4h1v1h-1z M19,4h1v1h-1z M20,4h1v1h-1z M22,4h1v1h-1z M23,4h1v1h-1z M27,4h1v1h-1z M31,4h1v1h-1z M32,4h1v1h-1z M34,4h1v1h-1z M36,4h1v1h-1z M37,4h1v1h-1z M39,4h1v1h-1z M42,4h1v1h-1z M45,4h1v1h-1z M46,4h1v1h-1z M48,4h1v1h-1z M49,4h1v1h-1z M50,4h1v1h-1z M51,4h1v1h-1z M52,4h1v1h-1z M53,4h1v1h-1z M54,4h1v1h-1z M55,4h1v1h-1z M56,4h1v1h-1z M59,4h1v1h-1z M62,4h1v1h-1z M65,4h1v1h-1z M66,4h1v1h-1z M68,4h1v1h-1z M69,4h1v1h-1z M70,4h1v1h-1z M71,4h1v1h-1z M77,4h1v1h-1z M78,4h1v1h-1z M79,4h1v1h-1z M81,4h1v1h-1z M84,4h1v1h-1z M85,4h1v1h-1z M87,4h1v1h-1z M88,4h1v1h-1z M90,4h1v1h-1z M91,4h1v1h-1z M94,4h1v1h-1z M96,4h1v1h-1z M98,4h1v1h-1z M102,4h1v1h-1z M103,4h1v1h-1z M104,4h1v1h-1z M105,4h1v1h-1z M106,4h1v1h-1z M107,4h1v1h-1z M108,4h1v1h-1z M4,5h1v1h-1z M10,5h1v1h-1z M12,5h1v1h-1z M14,5h1v1h-1z M17,5h1v1h-1z M18,5h1v1h-1z M19,5h1v1h-1z M22,5h1v1h-1z M23,5h1v1h-1z M27,5h1v1h-1z M30,5h1v1h-1z M32,5h1v1h-1z M33,5h1v1h-1z M34,5h1v1h-1z M37,5h1v1h-1z M39,5h1v1h-1z M42,5h1v1h-1z M43,5h1v1h-1z M45,5h1v1h-1z M46,5h1v1h-1z M49,5h1v1h-1z M54,5h1v1h-1z M55,5h1v1h-1z M56,5h1v1h-1z M57,5h1v1h-1z M58,5h1v1h-1z M60,5h1v1h-1z M63,5h1v1h-1z M66,5h1v1h-1z M68,5h1v1h-1z M69,5h1v1h-1z M70,5h1v1h-1z M73,5h1v1h-1z M76,5h1v1h-1z M77,5h1v1h-1z M78,5h1v1h-1z M79,5h1v1h-1z M80,5h1v1h-1z M81,5h1v1h-1z M82,5h1v1h-1z M84,5h1v1h-1z M87,5h1v1h-1z M90,5h1v1h-1z M91,5h1v1h-1z M92,5h1v1h-1z M93,5h1v1h-1z M94,5h1v1h-1z M97,5h1v1h-1z M98,5h1v1h-1z M102,5h1v1h-1z M108,5h1v1h-1z M4,6h1v1h-1z M6,6h1v1h-1z M7,6h1v1h-1z M8,6h1v1h-1z M10,6h1v1h-1z M12,6h1v1h-1z M13,6h1v1h-1z M16,6h1v1h-1z M21,6h1v1h-1z M22,6h1v1h-1z M23,6h1v1h-1z M25,6h1v1h-1z M26,6h1v1h-1z M27,6h1v1h-1z M30,6h1v1h-1z M31,6h1v1h-1z M32,6h1v1h-1z M37,6h1v1h-1z M38,6h1v1h-1z M39,6h1v1h-1z M44,6h1v1h-1z M46,6h1v1h-1z M55,6h1v1h-1z M56,6h1v1h-1z M57,6h1v1h-1z M58,6h1v1h-1z M59,6h1v1h-1z M65,6h1v1h-1z M68,6h1v1h-1z M70,6h1v1h-1z M74,6h1v1h-1z M78,6h1v1h-1z M79,6h1v1h-1z M80,6h1v1h-1z M83,6h1v1h-1z M85,6h1v1h-1z M87,6h1v1h-1z M91,6h1v1h-1z M92,6h1v1h-1z M94,6h1v1h-1z M95,6h1v1h-1z M98,6h1v1h-1z M99,6h1v1h-1z M102,6h1v1h-1z M104,6h1v1h-1z M105,6h1v1h-1z M106,6h1v1h-1z M108,6h1v1h-1z M4,7h1v1h-1z M6,7h1v1h-1z M7,7h1v1h-1z M8,7h1v1h-1z M10,7h1v1h-1z M12,7h1v1h-1z M13,7h1v1h-1z M14,7h1v1h-1z M17,7h1v1h-1z M19,7h1v1h-1z M20,7h1v1h-1z M22,7h1v1h-1z M23,7h1v1h-1z M25,7h1v1h-1z M27,7h1v1h-1z M30,7h1v1h-1z M33,7h1v1h-1z M35,7h1v1h-1z M38,7h1v1h-1z M39,7h1v1h-1z M41,7h1v1h-1z M44,7h1v1h-1z M46,7h1v1h-1z M47,7h1v1h-1z M49,7h1v1h-1z M51,7h1v1h-1z M53,7h1v1h-1z M54,7h1v1h-1z M55,7h1v1h-1z M59,7h1v1h-1z M62,7h1v1h-1z M63,7h1v1h-1z M64,7h1v1h-1z M66,7h1v1h-1z M71,7h1v1h-1z M74,7h1v1h-1z M83,7h1v1h-1z M84,7h1v1h-1z M85,7h1v1h-1z M86,7h1v1h-1z M89,7h1v1h-1z M90,7h1v1h-1z M92,7h1v1h-1z M93,7h1v1h-1z M97,7h1v1h-1z M100,7h1v1h-1z M102,7h1v1h-1z M104,7h1v1h-1z M105,7h1v1h-1z M106,7h1v1h-1z M108,7h1v1h-1z M4,8h1v1h-1z M6,8h1v1h-1z M7,8h1v1h-1z M8,8h1v1h-1z M10,8h1v1h-1z M16,8h1v1h-1z M17,8h1v1h-1z M19,8h1v1h-1z M21,8h1v1h-1z M22,8h1v1h-1z M26,8h1v1h-1z M28,8h1v1h-1z M29,8h1v1h-1z M30,8h1v1h-1z M31,8h1v1h-1z M32,8h1v1h-1z M33,8h1v1h-1z M35,8h1v1h-1z M36,8h1v1h-1z M38,8h1v1h-1z M41,8h1v1h-1z M42,8h1v1h-1z M47,8h1v1h-1z M48,8h1v1h-1z M52,8h1v1h-1z M53,8h1v1h-1z M54,8h1v1h-1z M55,8h1v1h-1z M56,8h1v1h-1z M58,8h1v1h-1z M59,8h1v1h-1z M60,8h1v1h-1z M61,8h1v1h-1z M64,8h1v1h-1z M65,8h1v1h-1z M67,8h1v1h-1z M68,8h1v1h-1z M72,8h1v1h-1z M73,8h1v1h-1z M75,8h1v1h-1z M76,8h1v1h-1z M77,8h1v1h-1z M78,8h1v1h-1z M79,8h1v1h-1z M80,8h1v1h-1z M82,8h1v1h-1z M83,8h1v1h-1z M84,8h1v1h-1z M86,8h1v1h-1z M89,8h1v1h-1z M91,8h1v1h-1z M96,8h1v1h-1z M99,8h1v1h-1z M100,8h1v1h-1z M102,8h1v1h-1z M104,8h1v1h-1z M105,8h1v1h-1z M106,8h1v1h-1z M108,8h1v1h-1z M4,9h1v1h-1z M10,9h1v1h-1z M12,9h1v1h-1z M13,9h1v1h-1z M15,9h1v1h-1z M16,9h1v1h-1z M18,9h1v1h-1z M19,9h1v1h-1z M25,9h1v1h-1z M28,9h1v1h-1z M32,9h1v1h-1z M33,9h1v1h-1z M34,9h1v1h-1z M35,9h1v1h-1z M37,9h1v1h-1z M42,9h1v1h-1z M43,9h1v1h-1z M44,9h1v1h-1z M45,9h1v1h-1z M46,9h1v1h-1z M49,9h1v1h-1z M51,9h1v1h-1z M52,9h1v1h-1z M56,9h1v1h-1z M58,9h1v1h-1z M59,9h1v1h-1z M60,9h1v1h-1z M61,9h1v1h-1z M63,9h1v1h-1z M66,9h1v1h-1z M67,9h1v1h-1z M69,9h1v1h-1z M70,9h1v1h-1z M73,9h1v1h-1z M75,9h1v1h-1z M76,9h1v1h-1z M80,9h1v1h-1z M81,9h1v1h-1z M82,9h1v1h-1z M88,9h1v1h-1z M90,9h1v1h-1z M92,9h1v1h-1z M93,9h1v1h-1z M94,9h1v1h-1z M95,9h1v1h-1z M99,9h1v1h-1z M102,9h1v1h-1z M108,9h1v1h-1z M4,10h1v1h-1z M5,10h1v1h-1z M6,10h1v1h-1z M7,10h1v1h-1z M8,10h1v1h-1z M9,10h1v1h-1z M10,10h1v1h-1z M12,10h1v1h-1z M14,10h1v1h-1z M16,10h1v1h-1z M18,10h1v1h-1z M20,10h1v1h-1z M22,10h1v1h-1z M24,10h1v1h-1z M26,10h1v1h-1z M28,10h1v1h-1z M30,10h1v1h-1z M32,10h1v1h-1z M34,10h1v1h-1z M36,10h1v1h-1z M38,10h1v1h-1z M40,10h1v1h-1z M42,10h1v1h-1z M44,10h1v1h-1z M46,10h1v1h-1z M48,10h1v1h-1z M50,10h1v1h-1z M52,10h1v1h-1z M54,10h1v1h-1z M56,10h1v1h-1z M58,10h1v1h-1z M60,10h1v1h-1z M62,10h1v1h-1z M64,10h1v1h-1z M66,10h1v1h-1z M68,10h1v1h-1z M70,10h1v1h-1z M72,10h1v1h-1z M74,10h1v1h-1z M76,10h1v1h-1z M78,10h1v1h-1z M80,10h1v1h-1z M82,10h1v1h-1z M84,10h1v1h-1z M86,10h1v1h-1z M88,10h1v1h-1z M90,10h1v1h-1z M92,10h1v1h-1z M94,10h1v1h-1z M96,10h1v1h-1z M98,10h1v1h-1z M100,10h1v1h-1z M102,10h1v1h-1z M103,10h1v1h-1z M104,10h1v1h-1z M105,10h1v1h-1z M106,10h1v1h-1z M107,10h1v1h-1z M108,10h1v1h-1z M13,11h1v1h-1z M14,11h1v1h-1z M16,11h1v1h-1z M21,11h1v1h-1z M22,11h1v1h-1z M23,11h1v1h-1z M24,11h1v1h-1z M25,11h1v1h-1z M26,11h1v1h-1z M28,11h1v1h-1z M32,11h1v1h-1z M33,11h1v1h-1z M34,11h1v1h-1z M35,11h1v1h-1z M38,11h1v1h-1z M39,11h1v1h-1z M41,11h1v1h-1z M42,11h1v1h-1z M44,11h1v1h-1z M46,11h1v1h-1z M49,11h1v1h-1z M50,11h1v1h-1z M51,11h1v1h-1z M52,11h1v1h-1z M56,11h1v1h-1z M57,11h1v1h-1z M58,11h1v1h-1z M59,11h1v1h-1z M61,11h1v1h-1z M62,11h1v1h-1z M66,11h1v1h-1z M68,11h1v1h-1z M71,11h1v1h-1z M73,11h1v1h-1z M76,11h1v1h-1z M80,11h1v1h-1z M81,11h1v1h-1z M82,11h1v1h-1z M83,11h1v1h-1z M90,11h1v1h-1z M92,11h1v1h-1z M94,11h1v1h-1z M95,11h1v1h-1z M99,11h1v1h-1z M100,11h1v1h-1z M4,12h1v1h-1z M5,12h1v1h-1z M8,12h1v1h-1z M9,12h1v1h-1z M10,12h1v1h-1z M16,12h1v1h-1z M17,12h1v1h-1z M19,12h1v1h-1z M20,12h1v1h-1z M21,12h1v1h-1z M26,12h1v1h-1z M27,12h1v1h-1z M28,12h1v1h-1z M29,12h1v1h-1z M30,12h1v1h-1z M31,12h1v1h-1z M32,12h1v1h-1z M33,12h1v1h-1z M34,12h1v1h-1z M35,12h1v1h-1z M36,12h1v1h-1z M38,12h1v1h-1z M40,12h1v1h-1z M41,12h1v1h-1z M43,12h1v1h-1z M44,12h1v1h-1z M47,12h1v1h-1z M50,12h1v1h-1z M51,12h1v1h-1z M52,12h1v1h-1z M53,12h1v1h-1z M54,12h1v1h-1z M55,12h1v1h-1z M56,12h1v1h-1z M58,12h1v1h-1z M59,12h1v1h-1z M61,12h1v1h-1z M62,12h1v1h-1z M64,12h1v1h-1z M65,12h1v1h-1z M69,12h1v1h-1z M70,12h1v1h-1z M72,12h1v1h-1z M73,12h1v1h-1z M74,12h1v1h-1z M75,12h1v1h-1z M76,12h1v1h-1z M77,12h1v1h-1z M78,12h1v1h-1z M79,12h1v1h-1z M80,12h1v1h-1z M81,12h1v1h-1z M83,12h1v1h-1z M84,12h1v1h-1z M85,12h1v1h-1z M88,12h1v1h-1z M90,12h1v1h-1z M95,12h1v1h-1z M96,12h1v1h-1z M99,12h1v1h-1z M100,12h1v1h-1z M103,12h1v1h-1z M105,12h1v1h-1z M106,12h1v1h-1z M107,12h1v1h-1z M108,12h1v1h-1z M5,13h1v1h-1z M7,13h1v1h-1z M8,13h1v1h-1z M9,13h1v1h-1z M11,13h1v1h-1z M12,13h1v1h-1z M13,13h1v1h-1z M14,13h1v1h-1z M15,13h1v1h-1z M16,13h1v1h-1z M19,13h1v1h-1z M20,13h1v1h-1z M21,13h1v1h-1z M23,13h1v1h-1z M26,13h1v1h-1z M27,13h1v1h-1z M28,13h1v1h-1z M31,13h1v1h-1z M34,13h1v1h-1z M35,13h1v1h-1z M36,13h1v1h-1z M41,13h1v1h-1z M42,13h1v1h-1z M43,13h1v1h-1z M44,13h1v1h-1z M46,13h1v1h-1z M47,13h1v1h-1z M48,13h1v1h-1z M49,13h1v1h-1z M51,13h1v1h-1z M52,13h1v1h-1z M58,13h1v1h-1z M61,13h1v1h-1z M62,13h1v1h-1z M63,13h1v1h-1z M64,13h1v1h-1z M66,13h1v1h-1z M71,13h1v1h-1z M73,13h1v1h-1z M74,13h1v1h-1z M75,13h1v1h-1z M76,13h1v1h-1z M77,13h1v1h-1z M79,13h1v1h-1z M80,13h1v1h-1z M82,13h1v1h-1z M84,13h1v1h-1z M85,13h1v1h-1z M86,13h1v1h-1z M89,13h1v1h-1z M90,13h1v1h-1z M91,13h1v1h-1z M94,13h1v1h-1z M95,13h1v1h-1z M100,13h1v1h-1z M101,13h1v1h-1z M102,13h1v1h-1z M103,13h1v1h-1z M105,13h1v1h-1z M108,13h1v1h-1z M4,14h1v1h-1z M5,14h1v1h-1z M8,14h1v1h-1z M9,14h1v1h-1z M10,14h1v1h-1z M12,14h1v1h-1z M13,14h1v1h-1z M15,14h1v1h-1z M17,14h1v1h-1z M19,14h1v1h-1z M21,14h1v1h-1z M22,14h1v1h-1z M24,14h1v1h-1z M26,14h1v1h-1z M27,14h1v1h-1z M28,14h1v1h-1z M29,14h1v1h-1z M32,14h1v1h-1z M35,14h1v1h-1z M36,14h1v1h-1z M38,14h1v1h-1z M39,14h1v1h-1z M40,14h1v1h-1z M41,14h1v1h-1z M48,14h1v1h-1z M50,14h1v1h-1z M52,14h1v1h-1z M53,14h1v1h-1z M57,14h1v1h-1z M62,14h1v1h-1z M65,14h1v1h-1z M68,14h1v1h-1z M71,14h1v1h-1z M74,14h1v1h-1z M79,14h1v1h-1z M80,14h1v1h-1z M83,14h1v1h-1z M84,14h1v1h-1z M86,14h1v1h-1z M87,14h1v1h-1z M88,14h1v1h-1z M89,14h1v1h-1z M98,14h1v1h-1z M102,14h1v1h-1z M104,14h1v1h-1z M107,14h1v1h-1z M9,15h1v1h-1z M12,15h1v1h-1z M13,15h1v1h-1z M14,15h1v1h-1z M17,15h1v1h-1z M20,15h1v1h-1z M21,15h1v1h-1z M22,15h1v1h-1z M25,15h1v1h-1z M29,15h1v1h-1z M32,15h1v1h-1z M33,15h1v1h-1z M35,15h1v1h-1z M41,15h1v1h-1z M43,15h1v1h-1z M44,15h1v1h-1z M46,15h1v1h-1z M47,15h1v1h-1z M51,15h1v1h-1z M53,15h1v1h-1z M54,15h1v1h-1z M55,15h1v1h-1z M56,15h1v1h-1z M58,15h1v1h-1z M59,15h1v1h-1z M61,15h1v1h-1z M62,15h1v1h-1z M65,15h1v1h-1z M66,15h1v1h-1z M68,15h1v1h-1z M69,15h1v1h-1z M70,15h1v1h-1z M71,15h1v1h-1z M73,15h1v1h-1z M75,15h1v1h-1z M76,15h1v1h-1z M77,15h1v1h-1z M78,15h1v1h-1z M80,15h1v1h-1z M85,15h1v1h-1z M86,15h1v1h-1z M91,15h1v1h-1z M92,15h1v1h-1z M93,15h1v1h-1z M95,15h1v1h-1z M97,15h1v1h-1z M99,15h1v1h-1z M100,15h1v1h-1z M104,15h1v1h-1z M4,16h1v1h-1z M5,16h1v1h-1z M7,16h1v1h-1z M8,16h1v1h-1z M10,16h1v1h-1z M11,16h1v1h-1z M12,16h1v1h-1z M15,16h1v1h-1z M17,16h1v1h-1z M18,16h1v1h-1z M19,16h1v1h-1z M21,16h1v1h-1z M23,16h1v1h-1z M25,16h1v1h-1z M27,16h1v1h-1z M28,16h1v1h-1z M29,16h1v1h-1z M30,16h1v1h-1z M32,16h1v1h-1z M36,16h1v1h-1z M39,16h1v1h-1z M41,16h1v1h-1z M43,16h1v1h-1z M46,16h1v1h-1z M47,16h1v1h-1z M48,16h1v1h-1z M51,16h1v1h-1z M53,16h1v1h-1z M57,16h1v1h-1z M59,16h1v1h-1z M60,16h1v1h-1z M64,16h1v1h-1z M66,16h1v1h-1z M68,16h1v1h-1z M70,16h1v1h-1z M71,16h1v1h-1z M72,16h1v1h-1z M75,16h1v1h-1z M78,16h1v1h-1z M79,16h1v1h-1z M81,16h1v1h-1z M82,16h1v1h-1z M86,16h1v1h-1z M90,16h1v1h-1z M91,16h1v1h-1z M92,16h1v1h-1z M93,16h1v1h-1z M94,16h1v1h-1z M96,16h1v1h-1z M98,16h1v1h-1z M99,16h1v1h-1z M100,16h1v1h-1z M101,16h1v1h-1z M104,16h1v1h-1z M108,16h1v1h-1z M5,17h1v1h-1z M6,17h1v1h-1z M7,17h1v1h-1z M11,17h1v1h-1z M12,17h1v1h-1z M13,17h1v1h-1z M17,17h1v1h-1z M20,17h1v1h-1z M23,17h1v1h-1z M26,17h1v1h-1z M27,17h1v1h-1z M28,17h1v1h-1z M29,17h1v1h-1z M31,17h1v1h-1z M34,17h1v1h-1z M35,17h1v1h-1z M36,17h1v1h-1z M37,17h1v1h-1z M38,17h1v1h-1z M40,17h1v1h-1z M42,17h1v1h-1z M44,17h1v1h-1z M45,17h1v1h-1z M48,17h1v1h-1z M49,17h1v1h-1z M52,17h1v1h-1z M54,17h1v1h-1z M56,17h1v1h-1z M57,17h1v1h-1z M59,17h1v1h-1z M61,17h1v1h-1z M64,17h1v1h-1z M65,17h1v1h-1z M66,17h1v1h-1z M68,17h1v1h-1z M69,17h1v1h-1z M70,17h1v1h-1z M71,17h1v1h-1z M76,17h1v1h-1z M77,17h1v1h-1z M78,17h1v1h-1z M84,17h1v1h-1z M89,17h1v1h-1z M91,17h1v1h-1z M92,17h1v1h-1z M94,17h1v1h-1z M95,17h1v1h-1z M96,17h1v1h-1z M98,17h1v1h-1z M99,17h1v1h-1z M101,17h1v1h-1z M105,17h1v1h-1z M106,17h1v1h-1z M107,17h1v1h-1z M7,18h1v1h-1z M8,18h1v1h-1z M9,18h1v1h-1z M10,18h1v1h-1z M12,18h1v1h-1z M13,18h1v1h-1z M16,18h1v1h-1z M17,18h1v1h-1z M19,18h1v1h-1z M22,18h1v1h-1z M26,18h1v1h-1z M28,18h1v1h-1z M29,18h1v1h-1z M36,18h1v1h-1z M38,18h1v1h-1z M40,18h1v1h-1z M41,18h1v1h-1z M48,18h1v1h-1z M49,18h1v1h-1z M50,18h1v1h-1z M51,18h1v1h-1z M53,18h1v1h-1z M55,18h1v1h-1z M60,18h1v1h-1z M62,18h1v1h-1z M63,18h1v1h-1z M64,18h1v1h-1z M65,18h1v1h-1z M72,18h1v1h-1z M74,18h1v1h-1z M75,18h1v1h-1z M76,18h1v1h-1z M77,18h1v1h-1z M79,18h1v1h-1z M84,18h1v1h-1z M85,18h1v1h-1z M86,18h1v1h-1z M87,18h1v1h-1z M89,18h1v1h-1z M91,18h1v1h-1z M92,18h1v1h-1z M97,18h1v1h-1z M98,18h1v1h-1z M100,18h1v1h-1z M101,18h1v1h-1z M104,18h1v1h-1z M107,18h1v1h-1z M4,19h1v1h-1z M5,19h1v1h-1z M6,19h1v1h-1z M8,19h1v1h-1z M9,19h1v1h-1z M15,19h1v1h-1z M16,19h1v1h-1z M18,19h1v1h-1z M19,19h1v1h-1z M24,19h1v1h-1z M25,19h1v1h-1z M29,19h1v1h-1z M30,19h1v1h-1z M32,19h1v1h-1z M33,19h1v1h-1z M35,19h1v1h-1z M39,19h1v1h-1z M41,19h1v1h-1z M42,19h1v1h-1z M44,19h1v1h-1z M46,19h1v1h-1z M47,19h1v1h-1z M53,19h1v1h-1z M55,19h1v1h-1z M56,19h1v1h-1z M57,19h1v1h-1z M58,19h1v1h-1z M59,19h1v1h-1z M61,19h1v1h-1z M65,19h1v1h-1z M66,19h1v1h-1z M68,19h1v1h-1z M70,19h1v1h-1z M71,19h1v1h-1z M73,19h1v1h-1z M75,19h1v1h-1z M76,19h1v1h-1z M77,19h1v1h-1z M78,19h1v1h-1z M80,19h1v1h-1z M82,19h1v1h-1z M89,19h1v1h-1z M92,19h1v1h-1z M94,19h1v1h-1z M95,19h1v1h-1z M99,19h1v1h-1z M101,19h1v1h-1z M103,19h1v1h-1z M104,19h1v1h-1z M4,20h1v1h-1z M7,20h1v1h-1z M10,20h1v1h-1z M12,20h1v1h-1z M13,20h1v1h-1z M17,20h1v1h-1z M19,20h1v1h-1z M21,20h1v1h-1z M24,20h1v1h-1z M27,20h1v1h-1z M30,20h1v1h-1z M31,20h1v1h-1z M32,20h1v1h-1z M34,20h1v1h-1z M39,20h1v1h-1z M41,20h1v1h-1z M42,20h1v1h-1z M44,20h1v1h-1z M46,20h1v1h-1z M47,20h1v1h-1z M49,20h1v1h-1z M51,20h1v1h-1z M53,20h1v1h-1z M55,20h1v1h-1z M56,20h1v1h-1z M61,20h1v1h-1z M63,20h1v1h-1z M65,20h1v1h-1z M66,20h1v1h-1z M67,20h1v1h-1z M68,20h1v1h-1z M70,20h1v1h-1z M72,20h1v1h-1z M74,20h1v1h-1z M75,20h1v1h-1z M77,20h1v1h-1z M78,20h1v1h-1z M79,20h1v1h-1z M80,20h1v1h-1z M82,20h1v1h-1z M84,20h1v1h-1z M85,20h1v1h-1z M87,20h1v1h-1z M90,20h1v1h-1z M91,20h1v1h-1z M93,20h1v1h-1z M94,20h1v1h-1z M97,20h1v1h-1z M98,20h1v1h-1z M99,20h1v1h-1z M100,20h1v1h-1z M101,20h1v1h-1z M102,20h1v1h-1z M104,20h1v1h-1z M105,20h1v1h-1z M5,21h1v1h-1z M6,21h1v1h-1z M7,21h1v1h-1z M9,21h1v1h-1z M15,21h1v1h-1z M18,21h1v1h-1z M22,21h1v1h-1z M23,21h1v1h-1z M24,21h1v1h-1z M25,21h1v1h-1z M26,21h1v1h-1z M28,21h1v1h-1z M31,21h1v1h-1z M33,21h1v1h-1z M35,21h1v1h-1z M36,21h1v1h-1z M38,21h1v1h-1z M39,21h1v1h-1z M40,21h1v1h-1z M42,21h1v1h-1z M43,21h1v1h-1z M45,21h1v1h-1z M46,21h1v1h-1z M48,21h1v1h-1z M49,21h1v1h-1z M52,21h1v1h-1z M57,21h1v1h-1z M58,21h1v1h-1z M60,21h1v1h-1z M66,21h1v1h-1z M67,21h1v1h-1z M69,21h1v1h-1z M70,21h1v1h-1z M71,21h1v1h-1z M73,21h1v1h-1z M75,21h1v1h-1z M76,21h1v1h-1z M78,21h1v1h-1z M79,21h1v1h-1z M84,21h1v1h-1z M88,21h1v1h-1z M89,21h1v1h-1z M94,21h1v1h-1z M96,21h1v1h-1z M97,21h1v1h-1z M98,21h1v1h-1z M101,21h1v1h-1z M104,21h1v1h-1z M105,21h1v1h-1z M107,21h1v1h-1z M4,22h1v1h-1z M6,22h1v1h-1z M10,22h1v1h-1z M11,22h1v1h-1z M12,22h1v1h-1z M13,22h1v1h-1z M14,22h1v1h-1z M16,22h1v1h-1z M20,22h1v1h-1z M21,22h1v1h-1z M22,22h1v1h-1z M25,22h1v1h-1z M26,22h1v1h-1z M27,22h1v1h-1z M29,22h1v1h-1z M31,22h1v1h-1z M35,22h1v1h-1z M36,22h1v1h-1z M38,22h1v1h-1z M40,22h1v1h-1z M41,22h1v1h-1z M43,22h1v1h-1z M47,22h1v1h-1z M50,22h1v1h-1z M53,22h1v1h-1z M55,22h1v1h-1z M56,22h1v1h-1z M59,22h1v1h-1z M60,22h1v1h-1z M62,22h1v1h-1z M63,22h1v1h-1z M64,22h1v1h-1z M65,22h1v1h-1z M71,22h1v1h-1z M72,22h1v1h-1z M74,22h1v1h-1z M80,22h1v1h-1z M83,22h1v1h-1z M86,22h1v1h-1z M87,22h1v1h-1z M88,22h1v1h-1z M89,22h1v1h-1z M95,22h1v1h-1z M96,22h1v1h-1z M98,22h1v1h-1z M100,22h1v1h-1z M101,22h1v1h-1z M104,22h1v1h-1z M106,22h1v1h-1z M107,22h1v1h-1z M5,23h1v1h-1z M9,23h1v1h-1z M16,23h1v1h-1z M18,23h1v1h-1z M19,23h1v1h-1z M23,23h1v1h-1z M28,23h1v1h-1z M29,23h1v1h-1z M32,23h1v1h-1z M35,23h1v1h-1z M38,23h1v1h-1z M44,23h1v1h-1z M46,23h1v1h-1z M47,23h1v1h-1z M49,23h1v1h-1z M50,23h1v1h-1z M51,23h1v1h-1z M54,23h1v1h-1z M56,23h1v1h-1z M57,23h1v1h-1z M66,23h1v1h-1z M67,23h1v1h-1z M68,23h1v1h-1z M69,23h1v1h-1z M70,23h1v1h-1z M73,23h1v1h-1z M77,23h1v1h-1z M78,23h1v1h-1z M80,23h1v1h-1z M81,23h1v1h-1z M82,23h1v1h-1z M83,23h1v1h-1z M90,23h1v1h-1z M91,23h1v1h-1z M92,23h1v1h-1z M95,23h1v1h-1z M99,23h1v1h-1z M100,23h1v1h-1z M101,23h1v1h-1z M103,23h1v1h-1z M104,23h1v1h-1z M4,24h1v1h-1z M5,24h1v1h-1z M7,24h1v1h-1z M9,24h1v1h-1z M10,24h1v1h-1z M13,24h1v1h-1z M14,24h1v1h-1z M15,24h1v1h-1z M17,24h1v1h-1z M21,24h1v1h-1z M24,24h1v1h-1z M26,24h1v1h-1z M29,24h1v1h-1z M30,24h1v1h-1z M32,24h1v1h-1z M35,24h1v1h-1z M41,24h1v1h-1z M42,24h1v1h-1z M44,24h1v1h-1z M45,24h1v1h-1z M48,24h1v1h-1z M49,24h1v1h-1z M51,24h1v1h-1z M52,24h1v1h-1z M53,24h1v1h-1z M55,24h1v1h-1z M56,24h1v1h-1z M57,24h1v1h-1z M58,24h1v1h-1z M60,24h1v1h-1z M61,24h1v1h-1z M63,24h1v1h-1z M64,24h1v1h-1z M65,24h1v1h-1z M67,24h1v1h-1z M68,24h1v1h-1z M69,24h1v1h-1z M71,24h1v1h-1z M73,24h1v1h-1z M81,24h1v1h-1z M83,24h1v1h-1z M84,24h1v1h-1z M88,24h1v1h-1z M89,24h1v1h-1z M91,24h1v1h-1z M92,24h1v1h-1z M97,24h1v1h-1z M98,24h1v1h-1z M99,24h1v1h-1z M100,24h1v1h-1z M105,24h1v1h-1z M106,24h1v1h-1z M107,24h1v1h-1z M4,25h1v1h-1z M5,25h1v1h-1z M6,25h1v1h-1z M7,25h1v1h-1z M8,25h1v1h-1z M9,25h1v1h-1z M11,25h1v1h-1z M12,25h1v1h-1z M13,25h1v1h-1z M15,25h1v1h-1z M16,25h1v1h-1z M18,25h1v1h-1z M20,25h1v1h-1z M22,25h1v1h-1z M25,25h1v1h-1z M27,25h1v1h-1z M28,25h1v1h-1z M29,25h1v1h-1z M30,25h1v1h-1z M31,25h1v1h-1z M34,25h1v1h-1z M40,25h1v1h-1z M43,25h1v1h-1z M47,25h1v1h-1z M49,25h1v1h-1z M50,25h1v1h-1z M51,25h1v1h-1z M52,25h1v1h-1z M54,25h1v1h-1z M55,25h1v1h-1z M58,25h1v1h-1z M59,25h1v1h-1z M60,25h1v1h-1z M62,25h1v1h-1z M64,25h1v1h-1z M65,25h1v1h-1z M66,25h1v1h-1z M69,25h1v1h-1z M72,25h1v1h-1z M75,25h1v1h-1z M76,25h1v1h-1z M77,25h1v1h-1z M78,25h1v1h-1z M80,25h1v1h-1z M81,25h1v1h-1z M84,25h1v1h-1z M85,25h1v1h-1z M86,25h1v1h-1z M87,25h1v1h-1z M88,25h1v1h-1z M89,25h1v1h-1z M90,25h1v1h-1z M93,25h1v1h-1z M95,25h1v1h-1z M97,25h1v1h-1z M99,25h1v1h-1z M101,25h1v1h-1z M102,25h1v1h-1z M104,25h1v1h-1z M106,25h1v1h-1z M108,25h1v1h-1z M4,26h1v1h-1z M7,26h1v1h-1z M8,26h1v1h-1z M10,26h1v1h-1z M12,26h1v1h-1z M13,26h1v1h-1z M14,26h1v1h-1z M15,26h1v1h-1z M16,26h1v1h-1z M18,26h1v1h-1z M19,26h1v1h-1z M20,26h1v1h-1z M21,26h1v1h-1z M22,26h1v1h-1z M24,26h1v1h-1z M26,26h1v1h-1z M27,26h1v1h-1z M38,26h1v1h-1z M39,26h1v1h-1z M41,26h1v1h-1z M47,26h1v1h-1z M50,26h1v1h-1z M52,26h1v1h-1z M53,26h1v1h-1z M55,26h1v1h-1z M56,26h1v1h-1z M60,26h1v1h-1z M61,26h1v1h-1z M62,26h1v1h-1z M63,26h1v1h-1z M67,26h1v1h-1z M68,26h1v1h-1z M72,26h1v1h-1z M73,26h1v1h-1z M74,26h1v1h-1z M75,26h1v1h-1z M77,26h1v1h-1z M79,26h1v1h-1z M84,26h1v1h-1z M86,26h1v1h-1z M87,26h1v1h-1z M88,26h1v1h-1z M89,26h1v1h-1z M91,26h1v1h-1z M93,26h1v1h-1z M95,26h1v1h-1z M98,26h1v1h-1z M102,26h1v1h-1z M104,26h1v1h-1z M106,26h1v1h-1z M107,26h1v1h-1z M4,27h1v1h-1z M5,27h1v1h-1z M9,27h1v1h-1z M18,27h1v1h-1z M19,27h1v1h-1z M21,27h1v1h-1z M24,27h1v1h-1z M26,27h1v1h-1z M27,27h1v1h-1z M29,27h1v1h-1z M30,27h1v1h-1z M31,27h1v1h-1z M32,27h1v1h-1z M34,27h1v1h-1z M35,27h1v1h-1z M38,27h1v1h-1z M44,27h1v1h-1z M45,27h1v1h-1z M46,27h1v1h-1z M47,27h1v1h-1z M49,27h1v1h-1z M51,27h1v1h-1z M52,27h1v1h-1z M54,27h1v1h-1z M56,27h1v1h-1z M57,27h1v1h-1z M58,27h1v1h-1z M65,27h1v1h-1z M66,27h1v1h-1z M68,27h1v1h-1z M69,27h1v1h-1z M70,27h1v1h-1z M71,27h1v1h-1z M75,27h1v1h-1z M76,27h1v1h-1z M78,27h1v1h-1z M80,27h1v1h-1z M81,27h1v1h-1z M83,27h1v1h-1z M85,27h1v1h-1z M86,27h1v1h-1z M90,27h1v1h-1z M92,27h1v1h-1z M94,27h1v1h-1z M95,27h1v1h-1z M97,27h1v1h-1z M99,27h1v1h-1z M104,27h1v1h-1z M4,28h1v1h-1z M5,28h1v1h-1z M7,28h1v1h-1z M8,28h1v1h-1z M9,28h1v1h-1z M10,28h1v1h-1z M11,28h1v1h-1z M12,28h1v1h-1z M15,28h1v1h-1z M17,28h1v1h-1z M18,28h1v1h-1z M21,28h1v1h-1z M22,28h1v1h-1z M23,28h1v1h-1z M24,28h1v1h-1z M28,28h1v1h-1z M29,28h1v1h-1z M30,28h1v1h-1z M31,28h1v1h-1z M32,28h1v1h-1z M33,28h1v1h-1z M34,28h1v1h-1z M35,28h1v1h-1z M36,28h1v1h-1z M40,28h1v1h-1z M41,28h1v1h-1z M42,28h1v1h-1z M43,28h1v1h-1z M44,28h1v1h-1z M45,28h1v1h-1z M47,28h1v1h-1z M48,28h1v1h-1z M52,28h1v1h-1z M53,28h1v1h-1z M54,28h1v1h-1z M55,28h1v1h-1z M56,28h1v1h-1z M57,28h1v1h-1z M58,28h1v1h-1z M60,28h1v1h-1z M62,28h1v1h-1z M65,28h1v1h-1z M68,28h1v1h-1z M69,28h1v1h-1z M70,28h1v1h-1z M72,28h1v1h-1z M73,28h1v1h-1z M75,28h1v1h-1z M76,28h1v1h-1z M77,28h1v1h-1z M78,28h1v1h-1z M79,28h1v1h-1z M80,28h1v1h-1z M81,28h1v1h-1z M82,28h1v1h-1z M87,28h1v1h-1z M88,28h1v1h-1z M89,28h1v1h-1z M90,28h1v1h-1z M91,28h1v1h-1z M97,28h1v1h-1z M98,28h1v1h-1z M99,28h1v1h-1z M100,28h1v1h-1z M101,28h1v1h-1z M102,28h1v1h-1z M103,28h1v1h-1z M104,28h1v1h-1z M107,28h1v1h-1z M108,28h1v1h-1z M4,29h1v1h-1z M5,29h1v1h-1z M7,29h1v1h-1z M8,29h1v1h-1z M12,29h1v1h-1z M14,29h1v1h-1z M15,29h1v1h-1z M16,29h1v1h-1z M17,29h1v1h-1z M21,29h1v1h-1z M23,29h1v1h-1z M25,29h1v1h-1z M26,29h1v1h-1z M27,29h1v1h-1z M28,29h1v1h-1z M32,29h1v1h-1z M33,29h1v1h-1z M36,29h1v1h-1z M38,29h1v1h-1z M39,29h1v1h-1z M40,29h1v1h-1z M41,29h1v1h-1z M45,29h1v1h-1z M46,29h1v1h-1z M50,29h1v1h-1z M52,29h1v1h-1z M56,29h1v1h-1z M57,29h1v1h-1z M58,29h1v1h-1z M59,29h1v1h-1z M63,29h1v1h-1z M64,29h1v1h-1z M65,29h1v1h-1z M66,29h1v1h-1z M68,29h1v1h-1z M72,29h1v1h-1z M73,29h1v1h-1z M75,29h1v1h-1z M76,29h1v1h-1z M80,29h1v1h-1z M81,29h1v1h-1z M82,29h1v1h-1z M83,29h1v1h-1z M86,29h1v1h-1z M91,29h1v1h-1z M93,29h1v1h-1z M95,29h1v1h-1z M96,29h1v1h-1z M97,29h1v1h-1z M98,29h1v1h-1z M100,29h1v1h-1z M104,29h1v1h-1z M105,29h1v1h-1z M107,29h1v1h-1z M7,30h1v1h-1z M8,30h1v1h-1z M10,30h1v1h-1z M12,30h1v1h-1z M14,30h1v1h-1z M17,30h1v1h-1z M18,30h1v1h-1z M19,30h1v1h-1z M20,30h1v1h-1z M22,30h1v1h-1z M23,30h1v1h-1z M25,30h1v1h-1z M26,30h1v1h-1z M28,30h1v1h-1z M30,30h1v1h-1z M32,30h1v1h-1z M36,30h1v1h-1z M37,30h1v1h-1z M38,30h1v1h-1z M41,30h1v1h-1z M44,30h1v1h-1z M47,30h1v1h-1z M48,30h1v1h-1z M49,30h1v1h-1z M50,30h1v1h-1z M52,30h1v1h-1z M54,30h1v1h-1z M56,30h1v1h-1z M57,30h1v1h-1z M59,30h1v1h-1z M60,30h1v1h-1z M62,30h1v1h-1z M63,30h1v1h-1z M64,30h1v1h-1z M65,30h1v1h-1z M71,30h1v1h-1z M72,30h1v1h-1z M73,30h1v1h-1z M74,30h1v1h-1z M75,30h1v1h-1z M76,30h1v1h-1z M78,30h1v1h-1z M80,30h1v1h-1z M81,30h1v1h-1z M86,30h1v1h-1z M88,30h1v1h-1z M89,30h1v1h-1z M91,30h1v1h-1z M92,30h1v1h-1z M95,30h1v1h-1z M96,30h1v1h-1z M98,30h1v1h-1z M100,30h1v1h-1z M102,30h1v1h-1z M104,30h1v1h-1z M106,30h1v1h-1z M107,30h1v1h-1z M4,31h1v1h-1z M8,31h1v1h-1z M12,31h1v1h-1z M17,31h1v1h-1z M18,31h1v1h-1z M20,31h1v1h-1z M23,31h1v1h-1z M27,31h1v1h-1z M28,31h1v1h-1z M32,31h1v1h-1z M33,31h1v1h-1z M35,31h1v1h-1z M42,31h1v1h-1z M44,31h1v1h-1z M46,31h1v1h-1z M49,31h1v1h-1z M51,31h1v1h-1z M52,31h1v1h-1z M56,31h1v1h-1z M57,31h1v1h-1z M58,31h1v1h-1z M63,31h1v1h-1z M65,31h1v1h-1z M66,31h1v1h-1z M67,31h1v1h-1z M68,31h1v1h-1z M69,31h1v1h-1z M70,31h1v1h-1z M75,31h1v1h-1z M76,31h1v1h-1z M80,31h1v1h-1z M82,31h1v1h-1z M83,31h1v1h-1z M90,31h1v1h-1z M92,31h1v1h-1z M94,31h1v1h-1z M95,31h1v1h-1z M97,31h1v1h-1z M100,31h1v1h-1z M104,31h1v1h-1z M4,32h1v1h-1z M6,32h1v1h-1z M8,32h1v1h-1z M9,32h1v1h-1z M10,32h1v1h-1z M11,32h1v1h-1z M12,32h1v1h-1z M13,32h1v1h-1z M15,32h1v1h-1z M21,32h1v1h-1z M23,32h1v1h-1z M25,32h1v1h-1z M26,32h1v1h-1z M27,32h1v1h-1z M28,32h1v1h-1z M29,32h1v1h-1z M30,32h1v1h-1z M31,32h1v1h-1z M32,32h1v1h-1z M33,32h1v1h-1z M35,32h1v1h-1z M37,32h1v1h-1z M38,32h1v1h-1z M42,32h1v1h-1z M43,32h1v1h-1z M44,32h1v1h-1z M46,32h1v1h-1z M47,32h1v1h-1z M48,32h1v1h-1z M49,32h1v1h-1z M51,32h1v1h-1z M52,32h1v1h-1z M53,32h1v1h-1z M54,32h1v1h-1z M55,32h1v1h-1z M56,32h1v1h-1z M58,32h1v1h-1z M60,32h1v1h-1z M62,32h1v1h-1z M63,32h1v1h-1z M65,32h1v1h-1z M66,32h1v1h-1z M67,32h1v1h-1z M71,32h1v1h-1z M72,32h1v1h-1z M73,32h1v1h-1z M75,32h1v1h-1z M76,32h1v1h-1z M77,32h1v1h-1z M78,32h1v1h-1z M79,32h1v1h-1z M80,32h1v1h-1z M81,32h1v1h-1z M82,32h1v1h-1z M83,32h1v1h-1z M85,32h1v1h-1z M88,32h1v1h-1z M92,32h1v1h-1z M93,32h1v1h-1z M94,32h1v1h-1z M95,32h1v1h-1z M96,32h1v1h-1z M99,32h1v1h-1z M100,32h1v1h-1z M101,32h1v1h-1z M102,32h1v1h-1z M103,32h1v1h-1z M104,32h1v1h-1z M4,33h1v1h-1z M5,33h1v1h-1z M7,33h1v1h-1z M9,33h1v1h-1z M12,33h1v1h-1z M13,33h1v1h-1z M14,33h1v1h-1z M16,33h1v1h-1z M18,33h1v1h-1z M19,33h1v1h-1z M21,33h1v1h-1z M22,33h1v1h-1z M23,33h1v1h-1z M24,33h1v1h-1z M26,33h1v1h-1z M30,33h1v1h-1z M32,33h1v1h-1z M33,33h1v1h-1z M36,33h1v1h-1z M37,33h1v1h-1z M38,33h1v1h-1z M39,33h1v1h-1z M41,33h1v1h-1z M42,33h1v1h-1z M44,33h1v1h-1z M46,33h1v1h-1z M47,33h1v1h-1z M48,33h1v1h-1z M49,33h1v1h-1z M50,33h1v1h-1z M55,33h1v1h-1z M56,33h1v1h-1z M57,33h1v1h-1z M58,33h1v1h-1z M59,33h1v1h-1z M60,33h1v1h-1z M61,33h1v1h-1z M66,33h1v1h-1z M68,33h1v1h-1z M72,33h1v1h-1z M73,33h1v1h-1z M76,33h1v1h-1z M78,33h1v1h-1z M80,33h1v1h-1z M84,33h1v1h-1z M85,33h1v1h-1z M87,33h1v1h-1z M93,33h1v1h-1z M94,33h1v1h-1z M96,33h1v1h-1z M97,33h1v1h-1z M100,33h1v1h-1z M101,33h1v1h-1z M5,34h1v1h-1z M8,34h1v1h-1z M9,34h1v1h-1z M10,34h1v1h-1z M11,34h1v1h-1z M12,34h1v1h-1z M18,34h1v1h-1z M19,34h1v1h-1z M20,34h1v1h-1z M21,34h1v1h-1z M22,34h1v1h-1z M23,34h1v1h-1z M27,34h1v1h-1z M29,34h1v1h-1z M30,34h1v1h-1z M31,34h1v1h-1z M32,34h1v1h-1z M35,34h1v1h-1z M36,34h1v1h-1z M38,34h1v1h-1z M44,34h1v1h-1z M48,34h1v1h-1z M50,34h1v1h-1z M51,34h1v1h-1z M54,34h1v1h-1z M59,34h1v1h-1z M60,34h1v1h-1z M62,34h1v1h-1z M63,34h1v1h-1z M64,34h1v1h-1z M67,34h1v1h-1z M69,34h1v1h-1z M71,34h1v1h-1z M72,34h1v1h-1z M74,34h1v1h-1z M78,34h1v1h-1z M83,34h1v1h-1z M84,34h1v1h-1z M86,34h1v1h-1z M87,34h1v1h-1z M89,34h1v1h-1z M91,34h1v1h-1z M98,34h1v1h-1z M101,34h1v1h-1z M102,34h1v1h-1z M103,34h1v1h-1z M104,34h1v1h-1z M5,35h1v1h-1z M7,35h1v1h-1z M8,35h1v1h-1z M9,35h1v1h-1z M12,35h1v1h-1z M13,35h1v1h-1z M15,35h1v1h-1z M19,35h1v1h-1z M20,35h1v1h-1z M23,35h1v1h-1z M25,35h1v1h-1z M26,35h1v1h-1z M27,35h1v1h-1z M28,35h1v1h-1z M29,35h1v1h-1z M33,35h1v1h-1z M34,35h1v1h-1z M35,35h1v1h-1z M37,35h1v1h-1z M41,35h1v1h-1z M42,35h1v1h-1z M44,35h1v1h-1z M46,35h1v1h-1z M47,35h1v1h-1z M50,35h1v1h-1z M52,35h1v1h-1z M53,35h1v1h-1z M55,35h1v1h-1z M59,35h1v1h-1z M61,35h1v1h-1z M66,35h1v1h-1z M68,35h1v1h-1z M70,35h1v1h-1z M71,35h1v1h-1z M73,35h1v1h-1z M75,35h1v1h-1z M76,35h1v1h-1z M77,35h1v1h-1z M79,35h1v1h-1z M80,35h1v1h-1z M81,35h1v1h-1z M82,35h1v1h-1z M85,35h1v1h-1z M86,35h1v1h-1z M89,35h1v1h-1z M90,35h1v1h-1z M92,35h1v1h-1z M94,35h1v1h-1z M95,35h1v1h-1z M97,35h1v1h-1z M99,35h1v1h-1z M104,35h1v1h-1z M108,35h1v1h-1z M5,36h1v1h-1z M7,36h1v1h-1z M10,36h1v1h-1z M11,36h1v1h-1z M13,36h1v1h-1z M16,36h1v1h-1z M17,36h1v1h-1z M19,36h1v1h-1z M20,36h1v1h-1z M21,36h1v1h-1z M23,36h1v1h-1z M25,36h1v1h-1z M26,36h1v1h-1z M28,36h1v1h-1z M30,36h1v1h-1z M31,36h1v1h-1z M34,36h1v1h-1z M37,36h1v1h-1z M39,36h1v1h-1z M40,36h1v1h-1z M42,36h1v1h-1z M45,36h1v1h-1z M46,36h1v1h-1z M48,36h1v1h-1z M49,36h1v1h-1z M50,36h1v1h-1z M58,36h1v1h-1z M59,36h1v1h-1z M60,36h1v1h-1z M61,36h1v1h-1z M65,36h1v1h-1z M67,36h1v1h-1z M68,36h1v1h-1z M69,36h1v1h-1z M70,36h1v1h-1z M71,36h1v1h-1z M72,36h1v1h-1z M73,36h1v1h-1z M79,36h1v1h-1z M82,36h1v1h-1z M83,36h1v1h-1z M84,36h1v1h-1z M87,36h1v1h-1z M89,36h1v1h-1z M91,36h1v1h-1z M92,36h1v1h-1z M94,36h1v1h-1z M96,36h1v1h-1z M102,36h1v1h-1z M103,36h1v1h-1z M105,36h1v1h-1z M107,36h1v1h-1z M6,37h1v1h-1z M7,37h1v1h-1z M8,37h1v1h-1z M11,37h1v1h-1z M15,37h1v1h-1z M16,37h1v1h-1z M24,37h1v1h-1z M25,37h1v1h-1z M29,37h1v1h-1z M31,37h1v1h-1z M34,37h1v1h-1z M35,37h1v1h-1z M36,37h1v1h-1z M41,37h1v1h-1z M48,37h1v1h-1z M51,37h1v1h-1z M52,37h1v1h-1z M53,37h1v1h-1z M55,37h1v1h-1z M57,37h1v1h-1z M59,37h1v1h-1z M60,37h1v1h-1z M61,37h1v1h-1z M62,37h1v1h-1z M63,37h1v1h-1z M67,37h1v1h-1z M68,37h1v1h-1z M71,37h1v1h-1z M72,37h1v1h-1z M74,37h1v1h-1z M76,37h1v1h-1z M77,37h1v1h-1z M79,37h1v1h-1z M80,37h1v1h-1z M82,37h1v1h-1z M84,37h1v1h-1z M85,37h1v1h-1z M86,37h1v1h-1z M88,37h1v1h-1z M90,37h1v1h-1z M94,37h1v1h-1z M96,37h1v1h-1z M97,37h1v1h-1z M100,37h1v1h-1z M102,37h1v1h-1z M103,37h1v1h-1z M106,37h1v1h-1z M107,37h1v1h-1z M4,38h1v1h-1z M6,38h1v1h-1z M10,38h1v1h-1z M11,38h1v1h-1z M13,38h1v1h-1z M16,38h1v1h-1z M17,38h1v1h-1z M19,38h1v1h-1z M22,38h1v1h-1z M23,38h1v1h-1z M24,38h1v1h-1z M26,38h1v1h-1z M32,38h1v1h-1z M35,38h1v1h-1z M36,38h1v1h-1z M38,38h1v1h-1z M39,38h1v1h-1z M43,38h1v1h-1z M44,38h1v1h-1z M48,38h1v1h-1z M50,38h1v1h-1z M52,38h1v1h-1z M53,38h1v1h-1z M54,38h1v1h-1z M55,38h1v1h-1z M60,38h1v1h-1z M62,38h1v1h-1z M65,38h1v1h-1z M68,38h1v1h-1z M69,38h1v1h-1z M74,38h1v1h-1z M76,38h1v1h-1z M77,38h1v1h-1z M80,38h1v1h-1z M83,38h1v1h-1z M84,38h1v1h-1z M86,38h1v1h-1z M88,38h1v1h-1z M89,38h1v1h-1z M98,38h1v1h-1z M100,38h1v1h-1z M101,38h1v1h-1z M102,38h1v1h-1z M103,38h1v1h-1z M105,38h1v1h-1z M106,38h1v1h-1z M4,39h1v1h-1z M5,39h1v1h-1z M6,39h1v1h-1z M8,39h1v1h-1z M9,39h1v1h-1z M15,39h1v1h-1z M17,39h1v1h-1z M22,39h1v1h-1z M23,39h1v1h-1z M24,39h1v1h-1z M25,39h1v1h-1z M27,39h1v1h-1z M28,39h1v1h-1z M29,39h1v1h-1z M31,39h1v1h-1z M32,39h1v1h-1z M33,39h1v1h-1z M35,39h1v1h-1z M37,39h1v1h-1z M41,39h1v1h-1z M42,39h1v1h-1z M44,39h1v1h-1z M45,39h1v1h-1z M47,39h1v1h-1z M49,39h1v1h-1z M53,39h1v1h-1z M55,39h1v1h-1z M56,39h1v1h-1z M57,39h1v1h-1z M58,39h1v1h-1z M59,39h1v1h-1z M61,39h1v1h-1z M68,39h1v1h-1z M70,39h1v1h-1z M71,39h1v1h-1z M73,39h1v1h-1z M76,39h1v1h-1z M77,39h1v1h-1z M79,39h1v1h-1z M81,39h1v1h-1z M82,39h1v1h-1z M85,39h1v1h-1z M87,39h1v1h-1z M90,39h1v1h-1z M92,39h1v1h-1z M93,39h1v1h-1z M94,39h1v1h-1z M95,39h1v1h-1z M97,39h1v1h-1z M98,39h1v1h-1z M99,39h1v1h-1z M100,39h1v1h-1z M101,39h1v1h-1z M104,39h1v1h-1z M4,40h1v1h-1z M9,40h1v1h-1z M10,40h1v1h-1z M11,40h1v1h-1z M12,40h1v1h-1z M13,40h1v1h-1z M14,40h1v1h-1z M15,40h1v1h-1z M19,40h1v1h-1z M21,40h1v1h-1z M23,40h1v1h-1z M24,40h1v1h-1z M25,40h1v1h-1z M26,40h1v1h-1z M31,40h1v1h-1z M33,40h1v1h-1z M34,40h1v1h-1z M38,40h1v1h-1z M39,40h1v1h-1z M40,40h1v1h-1z M42,40h1v1h-1z M44,40h1v1h-1z M45,40h1v1h-1z M46,40h1v1h-1z M47,40h1v1h-1z M48,40h1v1h-1z M52,40h1v1h-1z M53,40h1v1h-1z M55,40h1v1h-1z M63,40h1v1h-1z M66,40h1v1h-1z M68,40h1v1h-1z M70,40h1v1h-1z M71,40h1v1h-1z M73,40h1v1h-1z M76,40h1v1h-1z M77,40h1v1h-1z M79,40h1v1h-1z M85,40h1v1h-1z M86,40h1v1h-1z M87,40h1v1h-1z M90,40h1v1h-1z M91,40h1v1h-1z M94,40h1v1h-1z M99,40h1v1h-1z M102,40h1v1h-1z M104,40h1v1h-1z M108,40h1v1h-1z M8,41h1v1h-1z M12,41h1v1h-1z M14,41h1v1h-1z M15,41h1v1h-1z M20,41h1v1h-1z M21,41h1v1h-1z M22,41h1v1h-1z M23,41h1v1h-1z M24,41h1v1h-1z M29,41h1v1h-1z M32,41h1v1h-1z M33,41h1v1h-1z M34,41h1v1h-1z M36,41h1v1h-1z M37,41h1v1h-1z M38,41h1v1h-1z M40,41h1v1h-1z M41,41h1v1h-1z M42,41h1v1h-1z M43,41h1v1h-1z M44,41h1v1h-1z M46,41h1v1h-1z M48,41h1v1h-1z M49,41h1v1h-1z M51,41h1v1h-1z M54,41h1v1h-1z M56,41h1v1h-1z M58,41h1v1h-1z M61,41h1v1h-1z M63,41h1v1h-1z M66,41h1v1h-1z M70,41h1v1h-1z M71,41h1v1h-1z M72,41h1v1h-1z M74,41h1v1h-1z M78,41h1v1h-1z M81,41h1v1h-1z M82,41h1v1h-1z M83,41h1v1h-1z M84,41h1v1h-1z M85,41h1v1h-1z M86,41h1v1h-1z M87,41h1v1h-1z M94,41h1v1h-1z M96,41h1v1h-1z M98,41h1v1h-1z M99,41h1v1h-1z M101,41h1v1h-1z M103,41h1v1h-1z M104,41h1v1h-1z M105,41h1v1h-1z M106,41h1v1h-1z M108,41h1v1h-1z M6,42h1v1h-1z M8,42h1v1h-1z M10,42h1v1h-1z M11,42h1v1h-1z M13,42h1v1h-1z M16,42h1v1h-1z M17,42h1v1h-1z M18,42h1v1h-1z M20,42h1v1h-1z M24,42h1v1h-1z M25,42h1v1h-1z M30,42h1v1h-1z M32,42h1v1h-1z M35,42h1v1h-1z M36,42h1v1h-1z M38,42h1v1h-1z M39,42h1v1h-1z M40,42h1v1h-1z M41,42h1v1h-1z M43,42h1v1h-1z M48,42h1v1h-1z M50,42h1v1h-1z M51,42h1v1h-1z M52,42h1v1h-1z M54,42h1v1h-1z M55,42h1v1h-1z M56,42h1v1h-1z M62,42h1v1h-1z M64,42h1v1h-1z M67,42h1v1h-1z M71,42h1v1h-1z M74,42h1v1h-1z M75,42h1v1h-1z M79,42h1v1h-1z M83,42h1v1h-1z M84,42h1v1h-1z M86,42h1v1h-1z M87,42h1v1h-1z M88,42h1v1h-1z M93,42h1v1h-1z M95,42h1v1h-1z M96,42h1v1h-1z M98,42h1v1h-1z M101,42h1v1h-1z M106,42h1v1h-1z M107,42h1v1h-1z M4,43h1v1h-1z M6,43h1v1h-1z M9,43h1v1h-1z M12,43h1v1h-1z M17,43h1v1h-1z M20,43h1v1h-1z M21,43h1v1h-1z M22,43h1v1h-1z M24,43h1v1h-1z M26,43h1v1h-1z M28,43h1v1h-1z M29,43h1v1h-1z M31,43h1v1h-1z M32,43h1v1h-1z M33,43h1v1h-1z M35,43h1v1h-1z M38,43h1v1h-1z M41,43h1v1h-1z M42,43h1v1h-1z M44,43h1v1h-1z M45,43h1v1h-1z M46,43h1v1h-1z M47,43h1v1h-1z M52,43h1v1h-1z M53,43h1v1h-1z M55,43h1v1h-1z M57,43h1v1h-1z M59,43h1v1h-1z M61,43h1v1h-1z M62,43h1v1h-1z M63,43h1v1h-1z M66,43h1v1h-1z M67,43h1v1h-1z M68,43h1v1h-1z M69,43h1v1h-1z M70,43h1v1h-1z M71,43h1v1h-1z M76,43h1v1h-1z M80,43h1v1h-1z M81,43h1v1h-1z M83,43h1v1h-1z M90,43h1v1h-1z M91,43h1v1h-1z M92,43h1v1h-1z M94,43h1v1h-1z M99,43h1v1h-1z M100,43h1v1h-1z M102,43h1v1h-1z M103,43h1v1h-1z M104,43h1v1h-1z M4,44h1v1h-1z M8,44h1v1h-1z M10,44h1v1h-1z M14,44h1v1h-1z M16,44h1v1h-1z M17,44h1v1h-1z M18,44h1v1h-1z M21,44h1v1h-1z M23,44h1v1h-1z M25,44h1v1h-1z M28,44h1v1h-1z M30,44h1v1h-1z M31,44h1v1h-1z M33,44h1v1h-1z M34,44h1v1h-1z M35,44h1v1h-1z M36,44h1v1h-1z M37,44h1v1h-1z M39,44h1v1h-1z M41,44h1v1h-1z M45,44h1v1h-1z M46,44h1v1h-1z M48,44h1v1h-1z M52,44h1v1h-1z M53,44h1v1h-1z M57,44h1v1h-1z M59,44h1v1h-1z M60,44h1v1h-1z M61,44h1v1h-1z M64,44h1v1h-1z M65,44h1v1h-1z M68,44h1v1h-1z M69,44h1v1h-1z M70,44h1v1h-1z M72,44h1v1h-1z M73,44h1v1h-1z M76,44h1v1h-1z M79,44h1v1h-1z M82,44h1v1h-1z M83,44h1v1h-1z M84,44h1v1h-1z M87,44h1v1h-1z M90,44h1v1h-1z M92,44h1v1h-1z M93,44h1v1h-1z M94,44h1v1h-1z M96,44h1v1h-1z M99,44h1v1h-1z M100,44h1v1h-1z M102,44h1v1h-1z M103,44h1v1h-1z M106,44h1v1h-1z M107,44h1v1h-1z M6,45h1v1h-1z M9,45h1v1h-1z M11,45h1v1h-1z M14,45h1v1h-1z M15,45h1v1h-1z M18,45h1v1h-1z M19,45h1v1h-1z M22,45h1v1h-1z M23,45h1v1h-1z M27,45h1v1h-1z M32,45h1v1h-1z M33,45h1v1h-1z M35,45h1v1h-1z M38,45h1v1h-1z M39,45h1v1h-1z M41,45h1v1h-1z M42,45h1v1h-1z M43,45h1v1h-1z M47,45h1v1h-1z M48,45h1v1h-1z M49,45h1v1h-1z M52,45h1v1h-1z M54,45h1v1h-1z M55,45h1v1h-1z M57,45h1v1h-1z M60,45h1v1h-1z M63,45h1v1h-1z M64,45h1v1h-1z M65,45h1v1h-1z M66,45h1v1h-1z M67,45h1v1h-1z M68,45h1v1h-1z M70,45h1v1h-1z M71,45h1v1h-1z M72,45h1v1h-1z M73,45h1v1h-1z M74,45h1v1h-1z M77,45h1v1h-1z M78,45h1v1h-1z M81,45h1v1h-1z M82,45h1v1h-1z M84,45h1v1h-1z M87,45h1v1h-1z M88,45h1v1h-1z M90,45h1v1h-1z M91,45h1v1h-1z M93,45h1v1h-1z M96,45h1v1h-1z M99,45h1v1h-1z M101,45h1v1h-1z M102,45h1v1h-1z M103,45h1v1h-1z M106,45h1v1h-1z M107,45h1v1h-1z M5,46h1v1h-1z M7,46h1v1h-1z M8,46h1v1h-1z M10,46h1v1h-1z M12,46h1v1h-1z M13,46h1v1h-1z M14,46h1v1h-1z M15,46h1v1h-1z M16,46h1v1h-1z M17,46h1v1h-1z M18,46h1v1h-1z M20,46h1v1h-1z M21,46h1v1h-1z M24,46h1v1h-1z M25,46h1v1h-1z M26,46h1v1h-1z M27,46h1v1h-1z M28,46h1v1h-1z M29,46h1v1h-1z M30,46h1v1h-1z M31,46h1v1h-1z M32,46h1v1h-1z M35,46h1v1h-1z M36,46h1v1h-1z M37,46h1v1h-1z M38,46h1v1h-1z M39,46h1v1h-1z M40,46h1v1h-1z M41,46h1v1h-1z M43,46h1v1h-1z M47,46h1v1h-1z M50,46h1v1h-1z M52,46h1v1h-1z M55,46h1v1h-1z M56,46h1v1h-1z M61,46h1v1h-1z M62,46h1v1h-1z M65,46h1v1h-1z M69,46h1v1h-1z M71,46h1v1h-1z M72,46h1v1h-1z M73,46h1v1h-1z M74,46h1v1h-1z M75,46h1v1h-1z M77,46h1v1h-1z M80,46h1v1h-1z M84,46h1v1h-1z M85,46h1v1h-1z M86,46h1v1h-1z M89,46h1v1h-1z M98,46h1v1h-1z M101,46h1v1h-1z M102,46h1v1h-1z M104,46h1v1h-1z M107,46h1v1h-1z M6,47h1v1h-1z M8,47h1v1h-1z M12,47h1v1h-1z M13,47h1v1h-1z M18,47h1v1h-1z M19,47h1v1h-1z M21,47h1v1h-1z M22,47h1v1h-1z M23,47h1v1h-1z M26,47h1v1h-1z M28,47h1v1h-1z M29,47h1v1h-1z M31,47h1v1h-1z M34,47h1v1h-1z M37,47h1v1h-1z M41,47h1v1h-1z M42,47h1v1h-1z M43,47h1v1h-1z M44,47h1v1h-1z M45,47h1v1h-1z M46,47h1v1h-1z M47,47h1v1h-1z M50,47h1v1h-1z M53,47h1v1h-1z M55,47h1v1h-1z M56,47h1v1h-1z M57,47h1v1h-1z M58,47h1v1h-1z M59,47h1v1h-1z M65,47h1v1h-1z M66,47h1v1h-1z M68,47h1v1h-1z M70,47h1v1h-1z M76,47h1v1h-1z M77,47h1v1h-1z M83,47h1v1h-1z M89,47h1v1h-1z M90,47h1v1h-1z M91,47h1v1h-1z M92,47h1v1h-1z M94,47h1v1h-1z M95,47h1v1h-1z M99,47h1v1h-1z M101,47h1v1h-1z M104,47h1v1h-1z M107,47h1v1h-1z M6,48h1v1h-1z M10,48h1v1h-1z M12,48h1v1h-1z M13,48h1v1h-1z M16,48h1v1h-1z M19,48h1v1h-1z M22,48h1v1h-1z M24,48h1v1h-1z M25,48h1v1h-1z M28,48h1v1h-1z M29,48h1v1h-1z M30,48h1v1h-1z M33,48h1v1h-1z M34,48h1v1h-1z M35,48h1v1h-1z M40,48h1v1h-1z M42,48h1v1h-1z M43,48h1v1h-1z M44,48h1v1h-1z M46,48h1v1h-1z M48,48h1v1h-1z M49,48h1v1h-1z M53,48h1v1h-1z M54,48h1v1h-1z M55,48h1v1h-1z M58,48h1v1h-1z M60,48h1v1h-1z M64,48h1v1h-1z M65,48h1v1h-1z M66,48h1v1h-1z M67,48h1v1h-1z M69,48h1v1h-1z M70,48h1v1h-1z M72,48h1v1h-1z M77,48h1v1h-1z M79,48h1v1h-1z M81,48h1v1h-1z M82,48h1v1h-1z M83,48h1v1h-1z M84,48h1v1h-1z M85,48h1v1h-1z M88,48h1v1h-1z M90,48h1v1h-1z M94,48h1v1h-1z M98,48h1v1h-1z M100,48h1v1h-1z M102,48h1v1h-1z M103,48h1v1h-1z M105,48h1v1h-1z M106,48h1v1h-1z M107,48h1v1h-1z M108,48h1v1h-1z M5,49h1v1h-1z M16,49h1v1h-1z M18,49h1v1h-1z M19,49h1v1h-1z M22,49h1v1h-1z M24,49h1v1h-1z M26,49h1v1h-1z M27,49h1v1h-1z M28,49h1v1h-1z M29,49h1v1h-1z M32,49h1v1h-1z M34,49h1v1h-1z M35,49h1v1h-1z M40,49h1v1h-1z M42,49h1v1h-1z M43,49h1v1h-1z M45,49h1v1h-1z M46,49h1v1h-1z M48,49h1v1h-1z M50,49h1v1h-1z M52,49h1v1h-1z M54,49h1v1h-1z M55,49h1v1h-1z M56,49h1v1h-1z M60,49h1v1h-1z M62,49h1v1h-1z M63,49h1v1h-1z M66,49h1v1h-1z M68,49h1v1h-1z M70,49h1v1h-1z M71,49h1v1h-1z M74,49h1v1h-1z M75,49h1v1h-1z M76,49h1v1h-1z M80,49h1v1h-1z M82,49h1v1h-1z M84,49h1v1h-1z M85,49h1v1h-1z M86,49h1v1h-1z M87,49h1v1h-1z M91,49h1v1h-1z M93,49h1v1h-1z M95,49h1v1h-1z M96,49h1v1h-1z M98,49h1v1h-1z M100,49h1v1h-1z M101,49h1v1h-1z M102,49h1v1h-1z M105,49h1v1h-1z M106,49h1v1h-1z M5,50h1v1h-1z M6,50h1v1h-1z M10,50h1v1h-1z M12,50h1v1h-1z M13,50h1v1h-1z M14,50h1v1h-1z M15,50h1v1h-1z M17,50h1v1h-1z M19,50h1v1h-1z M21,50h1v1h-1z M22,50h1v1h-1z M27,50h1v1h-1z M28,50h1v1h-1z M31,50h1v1h-1z M32,50h1v1h-1z M33,50h1v1h-1z M35,50h1v1h-1z M36,50h1v1h-1z M38,50h1v1h-1z M40,50h1v1h-1z M44,50h1v1h-1z M45,50h1v1h-1z M48,50h1v1h-1z M49,50h1v1h-1z M50,50h1v1h-1z M52,50h1v1h-1z M54,50h1v1h-1z M55,50h1v1h-1z M57,50h1v1h-1z M62,50h1v1h-1z M65,50h1v1h-1z M67,50h1v1h-1z M72,50h1v1h-1z M74,50h1v1h-1z M75,50h1v1h-1z M76,50h1v1h-1z M77,50h1v1h-1z M78,50h1v1h-1z M85,50h1v1h-1z M86,50h1v1h-1z M87,50h1v1h-1z M89,50h1v1h-1z M91,50h1v1h-1z M92,50h1v1h-1z M97,50h1v1h-1z M98,50h1v1h-1z M99,50h1v1h-1z M100,50h1v1h-1z M106,50h1v1h-1z M107,50h1v1h-1z M4,51h1v1h-1z M12,51h1v1h-1z M13,51h1v1h-1z M14,51h1v1h-1z M16,51h1v1h-1z M17,51h1v1h-1z M18,51h1v1h-1z M22,51h1v1h-1z M23,51h1v1h-1z M25,51h1v1h-1z M28,51h1v1h-1z M29,51h1v1h-1z M34,51h1v1h-1z M37,51h1v1h-1z M39,51h1v1h-1z M41,51h1v1h-1z M42,51h1v1h-1z M44,51h1v1h-1z M46,51h1v1h-1z M47,51h1v1h-1z M49,51h1v1h-1z M53,51h1v1h-1z M57,51h1v1h-1z M58,51h1v1h-1z M59,51h1v1h-1z M62,51h1v1h-1z M65,51h1v1h-1z M68,51h1v1h-1z M71,51h1v1h-1z M73,51h1v1h-1z M74,51h1v1h-1z M77,51h1v1h-1z M79,51h1v1h-1z M83,51h1v1h-1z M90,51h1v1h-1z M92,51h1v1h-1z M93,51h1v1h-1z M94,51h1v1h-1z M95,51h1v1h-1z M99,51h1v1h-1z M100,51h1v1h-1z M101,51h1v1h-1z M102,51h1v1h-1z M104,51h1v1h-1z M108,51h1v1h-1z M4,52h1v1h-1z M5,52h1v1h-1z M8,52h1v1h-1z M9,52h1v1h-1z M10,52h1v1h-1z M11,52h1v1h-1z M12,52h1v1h-1z M13,52h1v1h-1z M14,52h1v1h-1z M16,52h1v1h-1z M17,52h1v1h-1z M19,52h1v1h-1z M22,52h1v1h-1z M24,52h1v1h-1z M25,52h1v1h-1z M28,52h1v1h-1z M29,52h1v1h-1z M30,52h1v1h-1z M31,52h1v1h-1z M32,52h1v1h-1z M35,52h1v1h-1z M36,52h1v1h-1z M37,52h1v1h-1z M41,52h1v1h-1z M42,52h1v1h-1z M45,52h1v1h-1z M46,52h1v1h-1z M47,52h1v1h-1z M48,52h1v1h-1z M52,52h1v1h-1z M53,52h1v1h-1z M54,52h1v1h-1z M55,52h1v1h-1z M56,52h1v1h-1z M57,52h1v1h-1z M58,52h1v1h-1z M60,52h1v1h-1z M65,52h1v1h-1z M67,52h1v1h-1z M68,52h1v1h-1z M70,52h1v1h-1z M71,52h1v1h-1z M73,52h1v1h-1z M76,52h1v1h-1z M77,52h1v1h-1z M78,52h1v1h-1z M79,52h1v1h-1z M80,52h1v1h-1z M84,52h1v1h-1z M87,52h1v1h-1z M88,52h1v1h-1z M89,52h1v1h-1z M90,52h1v1h-1z M92,52h1v1h-1z M94,52h1v1h-1z M96,52h1v1h-1z M98,52h1v1h-1z M99,52h1v1h-1z M100,52h1v1h-1z M101,52h1v1h-1z M102,52h1v1h-1z M103,52h1v1h-1z M104,52h1v1h-1z M105,52h1v1h-1z M107,52h1v1h-1z M108,52h1v1h-1z M8,53h1v1h-1z M12,53h1v1h-1z M14,53h1v1h-1z M15,53h1v1h-1z M20,53h1v1h-1z M21,53h1v1h-1z M22,53h1v1h-1z M23,53h1v1h-1z M24,53h1v1h-1z M28,53h1v1h-1z M32,53h1v1h-1z M33,53h1v1h-1z M34,53h1v1h-1z M36,53h1v1h-1z M38,53h1v1h-1z M39,53h1v1h-1z M41,53h1v1h-1z M43,53h1v1h-1z M46,53h1v1h-1z M47,53h1v1h-1z M49,53h1v1h-1z M50,53h1v1h-1z M51,53h1v1h-1z M52,53h1v1h-1z M56,53h1v1h-1z M60,53h1v1h-1z M61,53h1v1h-1z M62,53h1v1h-1z M64,53h1v1h-1z M65,53h1v1h-1z M67,53h1v1h-1z M74,53h1v1h-1z M75,53h1v1h-1z M76,53h1v1h-1z M80,53h1v1h-1z M82,53h1v1h-1z M83,53h1v1h-1z M84,53h1v1h-1z M85,53h1v1h-1z M88,53h1v1h-1z M90,53h1v1h-1z M94,53h1v1h-1z M100,53h1v1h-1z M104,53h1v1h-1z M106,53h1v1h-1z M107,53h1v1h-1z M108,53h1v1h-1z M4,54h1v1h-1z M8,54h1v1h-1z M10,54h1v1h-1z M12,54h1v1h-1z M13,54h1v1h-1z M16,54h1v1h-1z M17,54h1v1h-1z M19,54h1v1h-1z M20,54h1v1h-1z M21,54h1v1h-1z M22,54h1v1h-1z M24,54h1v1h-1z M27,54h1v1h-1z M28,54h1v1h-1z M30,54h1v1h-1z M32,54h1v1h-1z M33,54h1v1h-1z M38,54h1v1h-1z M39,54h1v1h-1z M45,54h1v1h-1z M48,54h1v1h-1z M49,54h1v1h-1z M50,54h1v1h-1z M52,54h1v1h-1z M54,54h1v1h-1z M56,54h1v1h-1z M60,54h1v1h-1z M62,54h1v1h-1z M63,54h1v1h-1z M64,54h1v1h-1z M65,54h1v1h-1z M67,54h1v1h-1z M68,54h1v1h-1z M71,54h1v1h-1z M74,54h1v1h-1z M75,54h1v1h-1z M76,54h1v1h-1z M78,54h1v1h-1z M80,54h1v1h-1z M83,54h1v1h-1z M86,54h1v1h-1z M88,54h1v1h-1z M89,54h1v1h-1z M91,54h1v1h-1z M95,54h1v1h-1z M96,54h1v1h-1z M98,54h1v1h-1z M100,54h1v1h-1z M102,54h1v1h-1z M104,54h1v1h-1z M107,54h1v1h-1z M5,55h1v1h-1z M7,55h1v1h-1z M8,55h1v1h-1z M12,55h1v1h-1z M14,55h1v1h-1z M15,55h1v1h-1z M16,55h1v1h-1z M19,55h1v1h-1z M21,55h1v1h-1z M22,55h1v1h-1z M26,55h1v1h-1z M27,55h1v1h-1z M28,55h1v1h-1z M32,55h1v1h-1z M34,55h1v1h-1z M35,55h1v1h-1z M38,55h1v1h-1z M41,55h1v1h-1z M42,55h1v1h-1z M43,55h1v1h-1z M44,55h1v1h-1z M46,55h1v1h-1z M47,55h1v1h-1z M51,55h1v1h-1z M52,55h1v1h-1z M56,55h1v1h-1z M58,55h1v1h-1z M59,55h1v1h-1z M61,55h1v1h-1z M62,55h1v1h-1z M63,55h1v1h-1z M65,55h1v1h-1z M68,55h1v1h-1z M69,55h1v1h-1z M70,55h1v1h-1z M71,55h1v1h-1z M74,55h1v1h-1z M75,55h1v1h-1z M76,55h1v1h-1z M80,55h1v1h-1z M82,55h1v1h-1z M83,55h1v1h-1z M85,55h1v1h-1z M86,55h1v1h-1z M90,55h1v1h-1z M92,55h1v1h-1z M95,55h1v1h-1z M97,55h1v1h-1z M98,55h1v1h-1z M99,55h1v1h-1z M100,55h1v1h-1z M104,55h1v1h-1z M107,55h1v1h-1z M4,56h1v1h-1z M5,56h1v1h-1z M7,56h1v1h-1z M8,56h1v1h-1z M9,56h1v1h-1z M10,56h1v1h-1z M11,56h1v1h-1z M12,56h1v1h-1z M14,56h1v1h-1z M15,56h1v1h-1z M17,56h1v1h-1z M26,56h1v1h-1z M28,56h1v1h-1z M29,56h1v1h-1z M30,56h1v1h-1z M31,56h1v1h-1z M32,56h1v1h-1z M33,56h1v1h-1z M34,56h1v1h-1z M35,56h1v1h-1z M43,56h1v1h-1z M44,56h1v1h-1z M45,56h1v1h-1z M46,56h1v1h-1z M47,56h1v1h-1z M48,56h1v1h-1z M49,56h1v1h-1z M50,56h1v1h-1z M51,56h1v1h-1z M52,56h1v1h-1z M53,56h1v1h-1z M54,56h1v1h-1z M55,56h1v1h-1z M56,56h1v1h-1z M58,56h1v1h-1z M59,56h1v1h-1z M60,56h1v1h-1z M63,56h1v1h-1z M65,56h1v1h-1z M66,56h1v1h-1z M67,56h1v1h-1z M69,56h1v1h-1z M70,56h1v1h-1z M72,56h1v1h-1z M73,56h1v1h-1z M74,56h1v1h-1z M76,56h1v1h-1z M77,56h1v1h-1z M78,56h1v1h-1z M79,56h1v1h-1z M80,56h1v1h-1z M81,56h1v1h-1z M82,56h1v1h-1z M83,56h1v1h-1z M89,56h1v1h-1z M90,56h1v1h-1z M91,56h1v1h-1z M93,56h1v1h-1z M94,56h1v1h-1z M95,56h1v1h-1z M98,56h1v1h-1z M99,56h1v1h-1z M100,56h1v1h-1z M101,56h1v1h-1z M102,56h1v1h-1z M103,56h1v1h-1z M104,56h1v1h-1z M107,56h1v1h-1z M6,57h1v1h-1z M7,57h1v1h-1z M8,57h1v1h-1z M12,57h1v1h-1z M13,57h1v1h-1z M14,57h1v1h-1z M16,57h1v1h-1z M19,57h1v1h-1z M20,57h1v1h-1z M21,57h1v1h-1z M22,57h1v1h-1z M23,57h1v1h-1z M25,57h1v1h-1z M26,57h1v1h-1z M30,57h1v1h-1z M34,57h1v1h-1z M35,57h1v1h-1z M38,57h1v1h-1z M40,57h1v1h-1z M41,57h1v1h-1z M46,57h1v1h-1z M47,57h1v1h-1z M49,57h1v1h-1z M50,57h1v1h-1z M51,57h1v1h-1z M52,57h1v1h-1z M53,57h1v1h-1z M57,57h1v1h-1z M58,57h1v1h-1z M59,57h1v1h-1z M60,57h1v1h-1z M61,57h1v1h-1z M64,57h1v1h-1z M66,57h1v1h-1z M67,57h1v1h-1z M70,57h1v1h-1z M72,57h1v1h-1z M79,57h1v1h-1z M81,57h1v1h-1z M84,57h1v1h-1z M85,57h1v1h-1z M86,57h1v1h-1z M88,57h1v1h-1z M89,57h1v1h-1z M95,57h1v1h-1z M99,57h1v1h-1z M100,57h1v1h-1z M102,57h1v1h-1z M106,57h1v1h-1z M4,58h1v1h-1z M6,58h1v1h-1z M7,58h1v1h-1z M8,58h1v1h-1z M9,58h1v1h-1z M10,58h1v1h-1z M11,58h1v1h-1z M12,58h1v1h-1z M15,58h1v1h-1z M22,58h1v1h-1z M23,58h1v1h-1z M25,58h1v1h-1z M30,58h1v1h-1z M32,58h1v1h-1z M33,58h1v1h-1z M36,58h1v1h-1z M38,58h1v1h-1z M40,58h1v1h-1z M41,58h1v1h-1z M44,58h1v1h-1z M49,58h1v1h-1z M50,58h1v1h-1z M56,58h1v1h-1z M61,58h1v1h-1z M62,58h1v1h-1z M64,58h1v1h-1z M65,58h1v1h-1z M67,58h1v1h-1z M72,58h1v1h-1z M74,58h1v1h-1z M79,58h1v1h-1z M80,58h1v1h-1z M83,58h1v1h-1z M84,58h1v1h-1z M86,58h1v1h-1z M88,58h1v1h-1z M97,58h1v1h-1z M98,58h1v1h-1z M99,58h1v1h-1z M100,58h1v1h-1z M101,58h1v1h-1z M103,58h1v1h-1z M104,58h1v1h-1z M105,58h1v1h-1z M7,59h1v1h-1z M8,59h1v1h-1z M13,59h1v1h-1z M15,59h1v1h-1z M18,59h1v1h-1z M21,59h1v1h-1z M22,59h1v1h-1z M23,59h1v1h-1z M26,59h1v1h-1z M27,59h1v1h-1z M28,59h1v1h-1z M31,59h1v1h-1z M32,59h1v1h-1z M34,59h1v1h-1z M35,59h1v1h-1z M37,59h1v1h-1z M38,59h1v1h-1z M39,59h1v1h-1z M41,59h1v1h-1z M44,59h1v1h-1z M46,59h1v1h-1z M47,59h1v1h-1z M51,59h1v1h-1z M55,59h1v1h-1z M56,59h1v1h-1z M57,59h1v1h-1z M59,59h1v1h-1z M68,59h1v1h-1z M69,59h1v1h-1z M70,59h1v1h-1z M71,59h1v1h-1z M73,59h1v1h-1z M75,59h1v1h-1z M77,59h1v1h-1z M78,59h1v1h-1z M79,59h1v1h-1z M80,59h1v1h-1z M82,59h1v1h-1z M83,59h1v1h-1z M86,59h1v1h-1z M87,59h1v1h-1z M90,59h1v1h-1z M91,59h1v1h-1z M92,59h1v1h-1z M93,59h1v1h-1z M95,59h1v1h-1z M97,59h1v1h-1z M100,59h1v1h-1z M101,59h1v1h-1z M102,59h1v1h-1z M107,59h1v1h-1z M4,60h1v1h-1z M7,60h1v1h-1z M8,60h1v1h-1z M9,60h1v1h-1z M10,60h1v1h-1z M11,60h1v1h-1z M12,60h1v1h-1z M14,60h1v1h-1z M16,60h1v1h-1z M18,60h1v1h-1z M19,60h1v1h-1z M21,60h1v1h-1z M23,60h1v1h-1z M24,60h1v1h-1z M30,60h1v1h-1z M31,60h1v1h-1z M34,60h1v1h-1z M36,60h1v1h-1z M37,60h1v1h-1z M39,60h1v1h-1z M40,60h1v1h-1z M42,60h1v1h-1z M43,60h1v1h-1z M44,60h1v1h-1z M54,60h1v1h-1z M56,60h1v1h-1z M60,60h1v1h-1z M66,60h1v1h-1z M67,60h1v1h-1z M68,60h1v1h-1z M69,60h1v1h-1z M70,60h1v1h-1z M72,60h1v1h-1z M75,60h1v1h-1z M76,60h1v1h-1z M78,60h1v1h-1z M79,60h1v1h-1z M80,60h1v1h-1z M81,60h1v1h-1z M84,60h1v1h-1z M85,60h1v1h-1z M88,60h1v1h-1z M90,60h1v1h-1z M91,60h1v1h-1z M94,60h1v1h-1z M96,60h1v1h-1z M97,60h1v1h-1z M98,60h1v1h-1z M103,60h1v1h-1z M105,60h1v1h-1z M107,60h1v1h-1z M108,60h1v1h-1z M5,61h1v1h-1z M6,61h1v1h-1z M9,61h1v1h-1z M12,61h1v1h-1z M13,61h1v1h-1z M15,61h1v1h-1z M16,61h1v1h-1z M19,61h1v1h-1z M20,61h1v1h-1z M29,61h1v1h-1z M30,61h1v1h-1z M31,61h1v1h-1z M33,61h1v1h-1z M36,61h1v1h-1z M37,61h1v1h-1z M41,61h1v1h-1z M42,61h1v1h-1z M45,61h1v1h-1z M46,61h1v1h-1z M47,61h1v1h-1z M49,61h1v1h-1z M51,61h1v1h-1z M52,61h1v1h-1z M55,61h1v1h-1z M58,61h1v1h-1z M60,61h1v1h-1z M61,61h1v1h-1z M62,61h1v1h-1z M64,61h1v1h-1z M65,61h1v1h-1z M67,61h1v1h-1z M71,61h1v1h-1z M76,61h1v1h-1z M79,61h1v1h-1z M82,61h1v1h-1z M83,61h1v1h-1z M84,61h1v1h-1z M85,61h1v1h-1z M86,61h1v1h-1z M87,61h1v1h-1z M88,61h1v1h-1z M90,61h1v1h-1z M93,61h1v1h-1z M94,61h1v1h-1z M96,61h1v1h-1z M98,61h1v1h-1z M99,61h1v1h-1z M100,61h1v1h-1z M102,61h1v1h-1z M103,61h1v1h-1z M104,61h1v1h-1z M105,61h1v1h-1z M106,61h1v1h-1z M8,62h1v1h-1z M9,62h1v1h-1z M10,62h1v1h-1z M13,62h1v1h-1z M14,62h1v1h-1z M15,62h1v1h-1z M17,62h1v1h-1z M18,62h1v1h-1z M19,62h1v1h-1z M21,62h1v1h-1z M22,62h1v1h-1z M24,62h1v1h-1z M25,62h1v1h-1z M26,62h1v1h-1z M29,62h1v1h-1z M31,62h1v1h-1z M37,62h1v1h-1z M38,62h1v1h-1z M40,62h1v1h-1z M41,62h1v1h-1z M48,62h1v1h-1z M50,62h1v1h-1z M54,62h1v1h-1z M56,62h1v1h-1z M59,62h1v1h-1z M60,62h1v1h-1z M61,62h1v1h-1z M62,62h1v1h-1z M63,62h1v1h-1z M67,62h1v1h-1z M68,62h1v1h-1z M69,62h1v1h-1z M72,62h1v1h-1z M73,62h1v1h-1z M74,62h1v1h-1z M77,62h1v1h-1z M79,62h1v1h-1z M86,62h1v1h-1z M87,62h1v1h-1z M88,62h1v1h-1z M89,62h1v1h-1z M91,62h1v1h-1z M92,62h1v1h-1z M95,62h1v1h-1z M96,62h1v1h-1z M98,62h1v1h-1z M100,62h1v1h-1z M101,62h1v1h-1z M103,62h1v1h-1z M104,62h1v1h-1z M106,62h1v1h-1z M4,63h1v1h-1z M7,63h1v1h-1z M12,63h1v1h-1z M15,63h1v1h-1z M19,63h1v1h-1z M20,63h1v1h-1z M24,63h1v1h-1z M26,63h1v1h-1z M30,63h1v1h-1z M31,63h1v1h-1z M35,63h1v1h-1z M39,63h1v1h-1z M43,63h1v1h-1z M44,63h1v1h-1z M46,63h1v1h-1z M47,63h1v1h-1z M49,63h1v1h-1z M55,63h1v1h-1z M57,63h1v1h-1z M58,63h1v1h-1z M65,63h1v1h-1z M66,63h1v1h-1z M68,63h1v1h-1z M69,63h1v1h-1z M70,63h1v1h-1z M71,63h1v1h-1z M76,63h1v1h-1z M79,63h1v1h-1z M80,63h1v1h-1z M82,63h1v1h-1z M83,63h1v1h-1z M85,63h1v1h-1z M89,63h1v1h-1z M90,63h1v1h-1z M92,63h1v1h-1z M97,63h1v1h-1z M98,63h1v1h-1z M99,63h1v1h-1z M100,63h1v1h-1z M5,64h1v1h-1z M9,64h1v1h-1z M10,64h1v1h-1z M11,64h1v1h-1z M13,64h1v1h-1z M18,64h1v1h-1z M19,64h1v1h-1z M21,64h1v1h-1z M22,64h1v1h-1z M25,64h1v1h-1z M26,64h1v1h-1z M27,64h1v1h-1z M29,64h1v1h-1z M30,64h1v1h-1z M31,64h1v1h-1z M32,64h1v1h-1z M37,64h1v1h-1z M39,64h1v1h-1z M41,64h1v1h-1z M43,64h1v1h-1z M44,64h1v1h-1z M46,64h1v1h-1z M50,64h1v1h-1z M54,64h1v1h-1z M55,64h1v1h-1z M56,64h1v1h-1z M60,64h1v1h-1z M65,64h1v1h-1z M66,64h1v1h-1z M69,64h1v1h-1z M70,64h1v1h-1z M72,64h1v1h-1z M73,64h1v1h-1z M76,64h1v1h-1z M78,64h1v1h-1z M79,64h1v1h-1z M80,64h1v1h-1z M81,64h1v1h-1z M82,64h1v1h-1z M84,64h1v1h-1z M89,64h1v1h-1z M90,64h1v1h-1z M93,64h1v1h-1z M94,64h1v1h-1z M96,64h1v1h-1z M106,64h1v1h-1z M107,64h1v1h-1z M5,65h1v1h-1z M8,65h1v1h-1z M9,65h1v1h-1z M11,65h1v1h-1z M12,65h1v1h-1z M13,65h1v1h-1z M16,65h1v1h-1z M21,65h1v1h-1z M22,65h1v1h-1z M23,65h1v1h-1z M24,65h1v1h-1z M25,65h1v1h-1z M26,65h1v1h-1z M27,65h1v1h-1z M31,65h1v1h-1z M33,65h1v1h-1z M36,65h1v1h-1z M41,65h1v1h-1z M42,65h1v1h-1z M43,65h1v1h-1z M45,65h1v1h-1z M46,65h1v1h-1z M48,65h1v1h-1z M49,65h1v1h-1z M50,65h1v1h-1z M52,65h1v1h-1z M53,65h1v1h-1z M57,65h1v1h-1z M59,65h1v1h-1z M60,65h1v1h-1z M61,65h1v1h-1z M64,65h1v1h-1z M65,65h1v1h-1z M66,65h1v1h-1z M67,65h1v1h-1z M68,65h1v1h-1z M69,65h1v1h-1z M70,65h1v1h-1z M71,65h1v1h-1z M75,65h1v1h-1z M79,65h1v1h-1z M83,65h1v1h-1z M87,65h1v1h-1z M88,65h1v1h-1z M89,65h1v1h-1z M93,65h1v1h-1z M94,65h1v1h-1z M95,65h1v1h-1z M96,65h1v1h-1z M97,65h1v1h-1z M99,65h1v1h-1z M100,65h1v1h-1z M102,65h1v1h-1z M105,65h1v1h-1z M106,65h1v1h-1z M107,65h1v1h-1z M5,66h1v1h-1z M6,66h1v1h-1z M7,66h1v1h-1z M8,66h1v1h-1z M10,66h1v1h-1z M11,66h1v1h-1z M12,66h1v1h-1z M13,66h1v1h-1z M14,66h1v1h-1z M15,66h1v1h-1z M16,66h1v1h-1z M21,66h1v1h-1z M22,66h1v1h-1z M24,66h1v1h-1z M25,66h1v1h-1z M26,66h1v1h-1z M30,66h1v1h-1z M31,66h1v1h-1z M35,66h1v1h-1z M36,66h1v1h-1z M38,66h1v1h-1z M39,66h1v1h-1z M40,66h1v1h-1z M41,66h1v1h-1z M43,66h1v1h-1z M44,66h1v1h-1z M47,66h1v1h-1z M48,66h1v1h-1z M50,66h1v1h-1z M53,66h1v1h-1z M54,66h1v1h-1z M59,66h1v1h-1z M62,66h1v1h-1z M63,66h1v1h-1z M64,66h1v1h-1z M65,66h1v1h-1z M72,66h1v1h-1z M74,66h1v1h-1z M77,66h1v1h-1z M80,66h1v1h-1z M81,66h1v1h-1z M83,66h1v1h-1z M85,66h1v1h-1z M86,66h1v1h-1z M87,66h1v1h-1z M88,66h1v1h-1z M89,66h1v1h-1z M95,66h1v1h-1z M96,66h1v1h-1z M98,66h1v1h-1z M102,66h1v1h-1z M103,66h1v1h-1z M106,66h1v1h-1z M107,66h1v1h-1z M9,67h1v1h-1z M11,67h1v1h-1z M17,67h1v1h-1z M19,67h1v1h-1z M25,67h1v1h-1z M26,67h1v1h-1z M28,67h1v1h-1z M32,67h1v1h-1z M34,67h1v1h-1z M38,67h1v1h-1z M42,67h1v1h-1z M44,67h1v1h-1z M46,67h1v1h-1z M47,67h1v1h-1z M49,67h1v1h-1z M51,67h1v1h-1z M56,67h1v1h-1z M57,67h1v1h-1z M58,67h1v1h-1z M59,67h1v1h-1z M62,67h1v1h-1z M63,67h1v1h-1z M65,67h1v1h-1z M67,67h1v1h-1z M68,67h1v1h-1z M69,67h1v1h-1z M71,67h1v1h-1z M74,67h1v1h-1z M75,67h1v1h-1z M78,67h1v1h-1z M79,67h1v1h-1z M80,67h1v1h-1z M81,67h1v1h-1z M82,67h1v1h-1z M83,67h1v1h-1z M92,67h1v1h-1z M93,67h1v1h-1z M95,67h1v1h-1z M97,67h1v1h-1z M98,67h1v1h-1z M101,67h1v1h-1z M104,67h1v1h-1z M107,67h1v1h-1z M108,67h1v1h-1z M4,68h1v1h-1z M5,68h1v1h-1z M8,68h1v1h-1z M9,68h1v1h-1z M10,68h1v1h-1z M12,68h1v1h-1z M15,68h1v1h-1z M16,68h1v1h-1z M17,68h1v1h-1z M18,68h1v1h-1z M19,68h1v1h-1z M20,68h1v1h-1z M22,68h1v1h-1z M25,68h1v1h-1z M28,68h1v1h-1z M30,68h1v1h-1z M31,68h1v1h-1z M32,68h1v1h-1z M33,68h1v1h-1z M34,68h1v1h-1z M35,68h1v1h-1z M36,68h1v1h-1z M38,68h1v1h-1z M39,68h1v1h-1z M41,68h1v1h-1z M42,68h1v1h-1z M43,68h1v1h-1z M44,68h1v1h-1z M48,68h1v1h-1z M49,68h1v1h-1z M51,68h1v1h-1z M52,68h1v1h-1z M54,68h1v1h-1z M55,68h1v1h-1z M56,68h1v1h-1z M57,68h1v1h-1z M58,68h1v1h-1z M59,68h1v1h-1z M60,68h1v1h-1z M61,68h1v1h-1z M62,68h1v1h-1z M63,68h1v1h-1z M64,68h1v1h-1z M67,68h1v1h-1z M68,68h1v1h-1z M70,68h1v1h-1z M72,68h1v1h-1z M73,68h1v1h-1z M74,68h1v1h-1z M78,68h1v1h-1z M80,68h1v1h-1z M81,68h1v1h-1z M84,68h1v1h-1z M85,68h1v1h-1z M87,68h1v1h-1z M88,68h1v1h-1z M89,68h1v1h-1z M90,68h1v1h-1z M91,68h1v1h-1z M92,68h1v1h-1z M93,68h1v1h-1z M94,68h1v1h-1z M97,68h1v1h-1z M98,68h1v1h-1z M102,68h1v1h-1z M103,68h1v1h-1z M107,68h1v1h-1z M4,69h1v1h-1z M6,69h1v1h-1z M8,69h1v1h-1z M11,69h1v1h-1z M12,69h1v1h-1z M14,69h1v1h-1z M17,69h1v1h-1z M18,69h1v1h-1z M19,69h1v1h-1z M21,69h1v1h-1z M22,69h1v1h-1z M25,69h1v1h-1z M26,69h1v1h-1z M27,69h1v1h-1z M35,69h1v1h-1z M36,69h1v1h-1z M37,69h1v1h-1z M40,69h1v1h-1z M41,69h1v1h-1z M42,69h1v1h-1z M44,69h1v1h-1z M46,69h1v1h-1z M47,69h1v1h-1z M48,69h1v1h-1z M51,69h1v1h-1z M53,69h1v1h-1z M55,69h1v1h-1z M57,69h1v1h-1z M58,69h1v1h-1z M60,69h1v1h-1z M61,69h1v1h-1z M62,69h1v1h-1z M63,69h1v1h-1z M64,69h1v1h-1z M67,69h1v1h-1z M70,69h1v1h-1z M72,69h1v1h-1z M73,69h1v1h-1z M77,69h1v1h-1z M79,69h1v1h-1z M89,69h1v1h-1z M90,69h1v1h-1z M92,69h1v1h-1z M99,69h1v1h-1z M100,69h1v1h-1z M102,69h1v1h-1z M103,69h1v1h-1z M104,69h1v1h-1z M106,69h1v1h-1z M107,69h1v1h-1z M7,70h1v1h-1z M8,70h1v1h-1z M10,70h1v1h-1z M11,70h1v1h-1z M13,70h1v1h-1z M14,70h1v1h-1z M21,70h1v1h-1z M22,70h1v1h-1z M26,70h1v1h-1z M27,70h1v1h-1z M29,70h1v1h-1z M32,70h1v1h-1z M35,70h1v1h-1z M36,70h1v1h-1z M38,70h1v1h-1z M40,70h1v1h-1z M41,70h1v1h-1z M48,70h1v1h-1z M50,70h1v1h-1z M53,70h1v1h-1z M57,70h1v1h-1z M59,70h1v1h-1z M62,70h1v1h-1z M63,70h1v1h-1z M65,70h1v1h-1z M67,70h1v1h-1z M71,70h1v1h-1z M72,70h1v1h-1z M73,70h1v1h-1z M74,70h1v1h-1z M79,70h1v1h-1z M83,70h1v1h-1z M84,70h1v1h-1z M86,70h1v1h-1z M87,70h1v1h-1z M88,70h1v1h-1z M89,70h1v1h-1z M92,70h1v1h-1z M96,70h1v1h-1z M97,70h1v1h-1z M98,70h1v1h-1z M102,70h1v1h-1z M105,70h1v1h-1z M106,70h1v1h-1z M107,70h1v1h-1z M108,70h1v1h-1z M4,71h1v1h-1z M5,71h1v1h-1z M6,71h1v1h-1z M7,71h1v1h-1z M8,71h1v1h-1z M11,71h1v1h-1z M13,71h1v1h-1z M14,71h1v1h-1z M15,71h1v1h-1z M17,71h1v1h-1z M25,71h1v1h-1z M26,71h1v1h-1z M27,71h1v1h-1z M28,71h1v1h-1z M29,71h1v1h-1z M30,71h1v1h-1z M31,71h1v1h-1z M33,71h1v1h-1z M37,71h1v1h-1z M41,71h1v1h-1z M42,71h1v1h-1z M44,71h1v1h-1z M45,71h1v1h-1z M47,71h1v1h-1z M50,71h1v1h-1z M52,71h1v1h-1z M56,71h1v1h-1z M57,71h1v1h-1z M58,71h1v1h-1z M59,71h1v1h-1z M61,71h1v1h-1z M65,71h1v1h-1z M67,71h1v1h-1z M68,71h1v1h-1z M69,71h1v1h-1z M71,71h1v1h-1z M73,71h1v1h-1z M75,71h1v1h-1z M77,71h1v1h-1z M79,71h1v1h-1z M80,71h1v1h-1z M81,71h1v1h-1z M82,71h1v1h-1z M85,71h1v1h-1z M90,71h1v1h-1z M92,71h1v1h-1z M93,71h1v1h-1z M94,71h1v1h-1z M95,71h1v1h-1z M99,71h1v1h-1z M100,71h1v1h-1z M102,71h1v1h-1z M103,71h1v1h-1z M104,71h1v1h-1z M107,71h1v1h-1z M108,71h1v1h-1z M4,72h1v1h-1z M5,72h1v1h-1z M7,72h1v1h-1z M8,72h1v1h-1z M10,72h1v1h-1z M13,72h1v1h-1z M14,72h1v1h-1z M15,72h1v1h-1z M16,72h1v1h-1z M19,72h1v1h-1z M21,72h1v1h-1z M22,72h1v1h-1z M23,72h1v1h-1z M26,72h1v1h-1z M27,72h1v1h-1z M28,72h1v1h-1z M30,72h1v1h-1z M31,72h1v1h-1z M32,72h1v1h-1z M33,72h1v1h-1z M34,72h1v1h-1z M37,72h1v1h-1z M39,72h1v1h-1z M40,72h1v1h-1z M42,72h1v1h-1z M44,72h1v1h-1z M45,72h1v1h-1z M46,72h1v1h-1z M49,72h1v1h-1z M52,72h1v1h-1z M53,72h1v1h-1z M54,72h1v1h-1z M56,72h1v1h-1z M57,72h1v1h-1z M59,72h1v1h-1z M60,72h1v1h-1z M61,72h1v1h-1z M62,72h1v1h-1z M64,72h1v1h-1z M69,72h1v1h-1z M70,72h1v1h-1z M71,72h1v1h-1z M74,72h1v1h-1z M75,72h1v1h-1z M78,72h1v1h-1z M81,72h1v1h-1z M82,72h1v1h-1z M83,72h1v1h-1z M85,72h1v1h-1z M88,72h1v1h-1z M89,72h1v1h-1z M90,72h1v1h-1z M92,72h1v1h-1z M94,72h1v1h-1z M95,72h1v1h-1z M96,72h1v1h-1z M98,72h1v1h-1z M103,72h1v1h-1z M105,72h1v1h-1z M106,72h1v1h-1z M107,72h1v1h-1z M108,72h1v1h-1z M4,73h1v1h-1z M5,73h1v1h-1z M6,73h1v1h-1z M15,73h1v1h-1z M16,73h1v1h-1z M19,73h1v1h-1z M22,73h1v1h-1z M23,73h1v1h-1z M24,73h1v1h-1z M25,73h1v1h-1z M29,73h1v1h-1z M31,73h1v1h-1z M33,73h1v1h-1z M36,73h1v1h-1z M38,73h1v1h-1z M40,73h1v1h-1z M46,73h1v1h-1z M47,73h1v1h-1z M48,73h1v1h-1z M52,73h1v1h-1z M55,73h1v1h-1z M58,73h1v1h-1z M60,73h1v1h-1z M63,73h1v1h-1z M68,73h1v1h-1z M69,73h1v1h-1z M71,73h1v1h-1z M73,73h1v1h-1z M75,73h1v1h-1z M76,73h1v1h-1z M79,73h1v1h-1z M83,73h1v1h-1z M85,73h1v1h-1z M86,73h1v1h-1z M87,73h1v1h-1z M91,73h1v1h-1z M93,73h1v1h-1z M94,73h1v1h-1z M96,73h1v1h-1z M97,73h1v1h-1z M99,73h1v1h-1z M100,73h1v1h-1z M102,73h1v1h-1z M105,73h1v1h-1z M106,73h1v1h-1z M107,73h1v1h-1z M108,73h1v1h-1z M5,74h1v1h-1z M8,74h1v1h-1z M9,74h1v1h-1z M10,74h1v1h-1z M12,74h1v1h-1z M17,74h1v1h-1z M19,74h1v1h-1z M21,74h1v1h-1z M23,74h1v1h-1z M25,74h1v1h-1z M26,74h1v1h-1z M29,74h1v1h-1z M32,74h1v1h-1z M33,74h1v1h-1z M36,74h1v1h-1z M37,74h1v1h-1z M38,74h1v1h-1z M40,74h1v1h-1z M41,74h1v1h-1z M43,74h1v1h-1z M50,74h1v1h-1z M53,74h1v1h-1z M60,74h1v1h-1z M62,74h1v1h-1z M63,74h1v1h-1z M67,74h1v1h-1z M68,74h1v1h-1z M72,74h1v1h-1z M74,74h1v1h-1z M80,74h1v1h-1z M83,74h1v1h-1z M84,74h1v1h-1z M86,74h1v1h-1z M87,74h1v1h-1z M88,74h1v1h-1z M89,74h1v1h-1z M92,74h1v1h-1z M95,74h1v1h-1z M96,74h1v1h-1z M98,74h1v1h-1z M99,74h1v1h-1z M100,74h1v1h-1z M102,74h1v1h-1z M103,74h1v1h-1z M105,74h1v1h-1z M106,74h1v1h-1z M107,74h1v1h-1z M4,75h1v1h-1z M5,75h1v1h-1z M7,75h1v1h-1z M9,75h1v1h-1z M12,75h1v1h-1z M13,75h1v1h-1z M17,75h1v1h-1z M18,75h1v1h-1z M19,75h1v1h-1z M20,75h1v1h-1z M21,75h1v1h-1z M22,75h1v1h-1z M23,75h1v1h-1z M24,75h1v1h-1z M26,75h1v1h-1z M27,75h1v1h-1z M30,75h1v1h-1z M31,75h1v1h-1z M34,75h1v1h-1z M35,75h1v1h-1z M39,75h1v1h-1z M44,75h1v1h-1z M46,75h1v1h-1z M47,75h1v1h-1z M50,75h1v1h-1z M53,75h1v1h-1z M55,75h1v1h-1z M56,75h1v1h-1z M58,75h1v1h-1z M61,75h1v1h-1z M65,75h1v1h-1z M66,75h1v1h-1z M68,75h1v1h-1z M69,75h1v1h-1z M70,75h1v1h-1z M71,75h1v1h-1z M75,75h1v1h-1z M76,75h1v1h-1z M77,75h1v1h-1z M78,75h1v1h-1z M79,75h1v1h-1z M81,75h1v1h-1z M85,75h1v1h-1z M86,75h1v1h-1z M87,75h1v1h-1z M89,75h1v1h-1z M92,75h1v1h-1z M94,75h1v1h-1z M99,75h1v1h-1z M101,75h1v1h-1z M107,75h1v1h-1z M108,75h1v1h-1z M6,76h1v1h-1z M7,76h1v1h-1z M8,76h1v1h-1z M9,76h1v1h-1z M10,76h1v1h-1z M11,76h1v1h-1z M12,76h1v1h-1z M13,76h1v1h-1z M17,76h1v1h-1z M18,76h1v1h-1z M19,76h1v1h-1z M21,76h1v1h-1z M26,76h1v1h-1z M27,76h1v1h-1z M28,76h1v1h-1z M29,76h1v1h-1z M30,76h1v1h-1z M31,76h1v1h-1z M32,76h1v1h-1z M34,76h1v1h-1z M37,76h1v1h-1z M42,76h1v1h-1z M43,76h1v1h-1z M44,76h1v1h-1z M46,76h1v1h-1z M47,76h1v1h-1z M48,76h1v1h-1z M49,76h1v1h-1z M52,76h1v1h-1z M53,76h1v1h-1z M54,76h1v1h-1z M55,76h1v1h-1z M56,76h1v1h-1z M57,76h1v1h-1z M60,76h1v1h-1z M61,76h1v1h-1z M62,76h1v1h-1z M63,76h1v1h-1z M68,76h1v1h-1z M70,76h1v1h-1z M75,76h1v1h-1z M76,76h1v1h-1z M77,76h1v1h-1z M78,76h1v1h-1z M79,76h1v1h-1z M80,76h1v1h-1z M82,76h1v1h-1z M83,76h1v1h-1z M85,76h1v1h-1z M87,76h1v1h-1z M88,76h1v1h-1z M94,76h1v1h-1z M96,76h1v1h-1z M100,76h1v1h-1z M101,76h1v1h-1z M102,76h1v1h-1z M103,76h1v1h-1z M104,76h1v1h-1z M105,76h1v1h-1z M106,76h1v1h-1z M108,76h1v1h-1z M5,77h1v1h-1z M8,77h1v1h-1z M12,77h1v1h-1z M14,77h1v1h-1z M16,77h1v1h-1z M17,77h1v1h-1z M18,77h1v1h-1z M19,77h1v1h-1z M20,77h1v1h-1z M23,77h1v1h-1z M24,77h1v1h-1z M26,77h1v1h-1z M28,77h1v1h-1z M32,77h1v1h-1z M33,77h1v1h-1z M34,77h1v1h-1z M35,77h1v1h-1z M38,77h1v1h-1z M39,77h1v1h-1z M40,77h1v1h-1z M43,77h1v1h-1z M45,77h1v1h-1z M46,77h1v1h-1z M48,77h1v1h-1z M52,77h1v1h-1z M56,77h1v1h-1z M58,77h1v1h-1z M60,77h1v1h-1z M61,77h1v1h-1z M62,77h1v1h-1z M71,77h1v1h-1z M72,77h1v1h-1z M74,77h1v1h-1z M76,77h1v1h-1z M80,77h1v1h-1z M81,77h1v1h-1z M84,77h1v1h-1z M85,77h1v1h-1z M86,77h1v1h-1z M88,77h1v1h-1z M92,77h1v1h-1z M94,77h1v1h-1z M95,77h1v1h-1z M96,77h1v1h-1z M98,77h1v1h-1z M99,77h1v1h-1z M100,77h1v1h-1z M104,77h1v1h-1z M105,77h1v1h-1z M107,77h1v1h-1z M108,77h1v1h-1z M6,78h1v1h-1z M8,78h1v1h-1z M10,78h1v1h-1z M12,78h1v1h-1z M14,78h1v1h-1z M17,78h1v1h-1z M18,78h1v1h-1z M20,78h1v1h-1z M21,78h1v1h-1z M22,78h1v1h-1z M25,78h1v1h-1z M27,78h1v1h-1z M28,78h1v1h-1z M30,78h1v1h-1z M32,78h1v1h-1z M35,78h1v1h-1z M36,78h1v1h-1z M37,78h1v1h-1z M38,78h1v1h-1z M39,78h1v1h-1z M40,78h1v1h-1z M41,78h1v1h-1z M43,78h1v1h-1z M45,78h1v1h-1z M48,78h1v1h-1z M50,78h1v1h-1z M51,78h1v1h-1z M52,78h1v1h-1z M54,78h1v1h-1z M56,78h1v1h-1z M61,78h1v1h-1z M62,78h1v1h-1z M63,78h1v1h-1z M64,78h1v1h-1z M65,78h1v1h-1z M67,78h1v1h-1z M68,78h1v1h-1z M69,78h1v1h-1z M71,78h1v1h-1z M74,78h1v1h-1z M75,78h1v1h-1z M76,78h1v1h-1z M78,78h1v1h-1z M80,78h1v1h-1z M83,78h1v1h-1z M86,78h1v1h-1z M89,78h1v1h-1z M91,78h1v1h-1z M95,78h1v1h-1z M97,78h1v1h-1z M98,78h1v1h-1z M100,78h1v1h-1z M102,78h1v1h-1z M104,78h1v1h-1z M105,78h1v1h-1z M106,78h1v1h-1z M107,78h1v1h-1z M4,79h1v1h-1z M5,79h1v1h-1z M7,79h1v1h-1z M8,79h1v1h-1z M12,79h1v1h-1z M17,79h1v1h-1z M18,79h1v1h-1z M20,79h1v1h-1z M21,79h1v1h-1z M22,79h1v1h-1z M23,79h1v1h-1z M26,79h1v1h-1z M27,79h1v1h-1z M28,79h1v1h-1z M32,79h1v1h-1z M34,79h1v1h-1z M35,79h1v1h-1z M39,79h1v1h-1z M41,79h1v1h-1z M42,79h1v1h-1z M44,79h1v1h-1z M45,79h1v1h-1z M46,79h1v1h-1z M47,79h1v1h-1z M52,79h1v1h-1z M56,79h1v1h-1z M57,79h1v1h-1z M59,79h1v1h-1z M68,79h1v1h-1z M70,79h1v1h-1z M71,79h1v1h-1z M76,79h1v1h-1z M80,79h1v1h-1z M83,79h1v1h-1z M85,79h1v1h-1z M86,79h1v1h-1z M90,79h1v1h-1z M92,79h1v1h-1z M94,79h1v1h-1z M95,79h1v1h-1z M99,79h1v1h-1z M100,79h1v1h-1z M104,79h1v1h-1z M105,79h1v1h-1z M107,79h1v1h-1z M108,79h1v1h-1z M5,80h1v1h-1z M8,80h1v1h-1z M9,80h1v1h-1z M10,80h1v1h-1z M11,80h1v1h-1z M12,80h1v1h-1z M13,80h1v1h-1z M17,80h1v1h-1z M20,80h1v1h-1z M21,80h1v1h-1z M23,80h1v1h-1z M24,80h1v1h-1z M25,80h1v1h-1z M26,80h1v1h-1z M27,80h1v1h-1z M28,80h1v1h-1z M29,80h1v1h-1z M30,80h1v1h-1z M31,80h1v1h-1z M32,80h1v1h-1z M34,80h1v1h-1z M38,80h1v1h-1z M39,80h1v1h-1z M40,80h1v1h-1z M42,80h1v1h-1z M43,80h1v1h-1z M44,80h1v1h-1z M47,80h1v1h-1z M51,80h1v1h-1z M52,80h1v1h-1z M53,80h1v1h-1z M54,80h1v1h-1z M55,80h1v1h-1z M56,80h1v1h-1z M57,80h1v1h-1z M59,80h1v1h-1z M66,80h1v1h-1z M67,80h1v1h-1z M69,80h1v1h-1z M70,80h1v1h-1z M71,80h1v1h-1z M72,80h1v1h-1z M73,80h1v1h-1z M75,80h1v1h-1z M76,80h1v1h-1z M77,80h1v1h-1z M78,80h1v1h-1z M79,80h1v1h-1z M80,80h1v1h-1z M82,80h1v1h-1z M83,80h1v1h-1z M84,80h1v1h-1z M87,80h1v1h-1z M90,80h1v1h-1z M94,80h1v1h-1z M95,80h1v1h-1z M98,80h1v1h-1z M100,80h1v1h-1z M101,80h1v1h-1z M102,80h1v1h-1z M103,80h1v1h-1z M104,80h1v1h-1z M105,80h1v1h-1z M107,80h1v1h-1z M108,80h1v1h-1z M5,81h1v1h-1z M6,81h1v1h-1z M9,81h1v1h-1z M11,81h1v1h-1z M13,81h1v1h-1z M15,81h1v1h-1z M20,81h1v1h-1z M22,81h1v1h-1z M23,81h1v1h-1z M29,81h1v1h-1z M30,81h1v1h-1z M31,81h1v1h-1z M32,81h1v1h-1z M35,81h1v1h-1z M37,81h1v1h-1z M38,81h1v1h-1z M39,81h1v1h-1z M40,81h1v1h-1z M44,81h1v1h-1z M45,81h1v1h-1z M46,81h1v1h-1z M47,81h1v1h-1z M48,81h1v1h-1z M54,81h1v1h-1z M55,81h1v1h-1z M56,81h1v1h-1z M60,81h1v1h-1z M61,81h1v1h-1z M62,81h1v1h-1z M63,81h1v1h-1z M64,81h1v1h-1z M65,81h1v1h-1z M66,81h1v1h-1z M68,81h1v1h-1z M69,81h1v1h-1z M70,81h1v1h-1z M72,81h1v1h-1z M74,81h1v1h-1z M78,81h1v1h-1z M79,81h1v1h-1z M80,81h1v1h-1z M81,81h1v1h-1z M82,81h1v1h-1z M83,81h1v1h-1z M84,81h1v1h-1z M86,81h1v1h-1z M90,81h1v1h-1z M93,81h1v1h-1z M94,81h1v1h-1z M96,81h1v1h-1z M101,81h1v1h-1z M102,81h1v1h-1z M105,81h1v1h-1z M106,81h1v1h-1z M108,81h1v1h-1z M5,82h1v1h-1z M7,82h1v1h-1z M8,82h1v1h-1z M9,82h1v1h-1z M10,82h1v1h-1z M11,82h1v1h-1z M12,82h1v1h-1z M14,82h1v1h-1z M18,82h1v1h-1z M22,82h1v1h-1z M23,82h1v1h-1z M25,82h1v1h-1z M26,82h1v1h-1z M27,82h1v1h-1z M28,82h1v1h-1z M29,82h1v1h-1z M30,82h1v1h-1z M32,82h1v1h-1z M35,82h1v1h-1z M36,82h1v1h-1z M37,82h1v1h-1z M38,82h1v1h-1z M41,82h1v1h-1z M43,82h1v1h-1z M44,82h1v1h-1z M47,82h1v1h-1z M48,82h1v1h-1z M50,82h1v1h-1z M51,82h1v1h-1z M54,82h1v1h-1z M55,82h1v1h-1z M56,82h1v1h-1z M57,82h1v1h-1z M62,82h1v1h-1z M63,82h1v1h-1z M65,82h1v1h-1z M67,82h1v1h-1z M68,82h1v1h-1z M74,82h1v1h-1z M77,82h1v1h-1z M80,82h1v1h-1z M83,82h1v1h-1z M84,82h1v1h-1z M85,82h1v1h-1z M86,82h1v1h-1z M87,82h1v1h-1z M93,82h1v1h-1z M95,82h1v1h-1z M96,82h1v1h-1z M97,82h1v1h-1z M98,82h1v1h-1z M101,82h1v1h-1z M105,82h1v1h-1z M106,82h1v1h-1z M107,82h1v1h-1z M5,83h1v1h-1z M6,83h1v1h-1z M9,83h1v1h-1z M13,83h1v1h-1z M14,83h1v1h-1z M15,83h1v1h-1z M16,83h1v1h-1z M17,83h1v1h-1z M18,83h1v1h-1z M19,83h1v1h-1z M20,83h1v1h-1z M21,83h1v1h-1z M22,83h1v1h-1z M23,83h1v1h-1z M24,83h1v1h-1z M25,83h1v1h-1z M28,83h1v1h-1z M29,83h1v1h-1z M31,83h1v1h-1z M35,83h1v1h-1z M37,83h1v1h-1z M42,83h1v1h-1z M44,83h1v1h-1z M46,83h1v1h-1z M47,83h1v1h-1z M52,83h1v1h-1z M53,83h1v1h-1z M56,83h1v1h-1z M58,83h1v1h-1z M59,83h1v1h-1z M61,83h1v1h-1z M62,83h1v1h-1z M68,83h1v1h-1z M69,83h1v1h-1z M70,83h1v1h-1z M71,83h1v1h-1z M73,83h1v1h-1z M76,83h1v1h-1z M77,83h1v1h-1z M78,83h1v1h-1z M79,83h1v1h-1z M83,83h1v1h-1z M89,83h1v1h-1z M90,83h1v1h-1z M91,83h1v1h-1z M92,83h1v1h-1z M94,83h1v1h-1z M99,83h1v1h-1z M100,83h1v1h-1z M102,83h1v1h-1z M104,83h1v1h-1z M105,83h1v1h-1z M107,83h1v1h-1z M108,83h1v1h-1z M5,84h1v1h-1z M6,84h1v1h-1z M7,84h1v1h-1z M8,84h1v1h-1z M10,84h1v1h-1z M11,84h1v1h-1z M13,84h1v1h-1z M14,84h1v1h-1z M17,84h1v1h-1z M18,84h1v1h-1z M19,84h1v1h-1z M20,84h1v1h-1z M25,84h1v1h-1z M26,84h1v1h-1z M27,84h1v1h-1z M29,84h1v1h-1z M30,84h1v1h-1z M31,84h1v1h-1z M35,84h1v1h-1z M38,84h1v1h-1z M42,84h1v1h-1z M43,84h1v1h-1z M47,84h1v1h-1z M50,84h1v1h-1z M51,84h1v1h-1z M53,84h1v1h-1z M57,84h1v1h-1z M60,84h1v1h-1z M63,84h1v1h-1z M64,84h1v1h-1z M65,84h1v1h-1z M69,84h1v1h-1z M70,84h1v1h-1z M71,84h1v1h-1z M72,84h1v1h-1z M73,84h1v1h-1z M75,84h1v1h-1z M78,84h1v1h-1z M79,84h1v1h-1z M81,84h1v1h-1z M82,84h1v1h-1z M85,84h1v1h-1z M92,84h1v1h-1z M94,84h1v1h-1z M98,84h1v1h-1z M104,84h1v1h-1z M105,84h1v1h-1z M107,84h1v1h-1z M108,84h1v1h-1z M5,85h1v1h-1z M7,85h1v1h-1z M8,85h1v1h-1z M12,85h1v1h-1z M14,85h1v1h-1z M15,85h1v1h-1z M21,85h1v1h-1z M24,85h1v1h-1z M30,85h1v1h-1z M31,85h1v1h-1z M33,85h1v1h-1z M34,85h1v1h-1z M40,85h1v1h-1z M44,85h1v1h-1z M45,85h1v1h-1z M46,85h1v1h-1z M47,85h1v1h-1z M48,85h1v1h-1z M49,85h1v1h-1z M50,85h1v1h-1z M52,85h1v1h-1z M53,85h1v1h-1z M54,85h1v1h-1z M57,85h1v1h-1z M59,85h1v1h-1z M61,85h1v1h-1z M62,85h1v1h-1z M63,85h1v1h-1z M64,85h1v1h-1z M66,85h1v1h-1z M70,85h1v1h-1z M71,85h1v1h-1z M72,85h1v1h-1z M73,85h1v1h-1z M76,85h1v1h-1z M77,85h1v1h-1z M78,85h1v1h-1z M79,85h1v1h-1z M85,85h1v1h-1z M87,85h1v1h-1z M88,85h1v1h-1z M89,85h1v1h-1z M90,85h1v1h-1z M93,85h1v1h-1z M94,85h1v1h-1z M95,85h1v1h-1z M96,85h1v1h-1z M100,85h1v1h-1z M101,85h1v1h-1z M102,85h1v1h-1z M103,85h1v1h-1z M5,86h1v1h-1z M8,86h1v1h-1z M9,86h1v1h-1z M10,86h1v1h-1z M13,86h1v1h-1z M15,86h1v1h-1z M17,86h1v1h-1z M18,86h1v1h-1z M23,86h1v1h-1z M24,86h1v1h-1z M25,86h1v1h-1z M26,86h1v1h-1z M27,86h1v1h-1z M30,86h1v1h-1z M32,86h1v1h-1z M33,86h1v1h-1z M35,86h1v1h-1z M36,86h1v1h-1z M38,86h1v1h-1z M39,86h1v1h-1z M40,86h1v1h-1z M45,86h1v1h-1z M50,86h1v1h-1z M52,86h1v1h-1z M53,86h1v1h-1z M54,86h1v1h-1z M56,86h1v1h-1z M59,86h1v1h-1z M62,86h1v1h-1z M64,86h1v1h-1z M67,86h1v1h-1z M68,86h1v1h-1z M69,86h1v1h-1z M72,86h1v1h-1z M74,86h1v1h-1z M75,86h1v1h-1z M77,86h1v1h-1z M78,86h1v1h-1z M80,86h1v1h-1z M81,86h1v1h-1z M86,86h1v1h-1z M87,86h1v1h-1z M89,86h1v1h-1z M91,86h1v1h-1z M92,86h1v1h-1z M96,86h1v1h-1z M98,86h1v1h-1z M100,86h1v1h-1z M101,86h1v1h-1z M105,86h1v1h-1z M107,86h1v1h-1z M5,87h1v1h-1z M6,87h1v1h-1z M7,87h1v1h-1z M8,87h1v1h-1z M13,87h1v1h-1z M14,87h1v1h-1z M16,87h1v1h-1z M17,87h1v1h-1z M18,87h1v1h-1z M19,87h1v1h-1z M20,87h1v1h-1z M21,87h1v1h-1z M24,87h1v1h-1z M25,87h1v1h-1z M26,87h1v1h-1z M27,87h1v1h-1z M30,87h1v1h-1z M31,87h1v1h-1z M34,87h1v1h-1z M38,87h1v1h-1z M41,87h1v1h-1z M42,87h1v1h-1z M43,87h1v1h-1z M44,87h1v1h-1z M46,87h1v1h-1z M47,87h1v1h-1z M49,87h1v1h-1z M52,87h1v1h-1z M58,87h1v1h-1z M59,87h1v1h-1z M62,87h1v1h-1z M63,87h1v1h-1z M65,87h1v1h-1z M66,87h1v1h-1z M68,87h1v1h-1z M70,87h1v1h-1z M71,87h1v1h-1z M73,87h1v1h-1z M75,87h1v1h-1z M76,87h1v1h-1z M79,87h1v1h-1z M82,87h1v1h-1z M83,87h1v1h-1z M86,87h1v1h-1z M90,87h1v1h-1z M92,87h1v1h-1z M93,87h1v1h-1z M94,87h1v1h-1z M95,87h1v1h-1z M97,87h1v1h-1z M101,87h1v1h-1z M103,87h1v1h-1z M108,87h1v1h-1z M4,88h1v1h-1z M6,88h1v1h-1z M8,88h1v1h-1z M10,88h1v1h-1z M11,88h1v1h-1z M12,88h1v1h-1z M15,88h1v1h-1z M16,88h1v1h-1z M20,88h1v1h-1z M21,88h1v1h-1z M27,88h1v1h-1z M29,88h1v1h-1z M30,88h1v1h-1z M32,88h1v1h-1z M34,88h1v1h-1z M35,88h1v1h-1z M37,88h1v1h-1z M39,88h1v1h-1z M42,88h1v1h-1z M46,88h1v1h-1z M49,88h1v1h-1z M53,88h1v1h-1z M55,88h1v1h-1z M59,88h1v1h-1z M60,88h1v1h-1z M65,88h1v1h-1z M67,88h1v1h-1z M68,88h1v1h-1z M70,88h1v1h-1z M71,88h1v1h-1z M72,88h1v1h-1z M74,88h1v1h-1z M80,88h1v1h-1z M81,88h1v1h-1z M82,88h1v1h-1z M83,88h1v1h-1z M87,88h1v1h-1z M90,88h1v1h-1z M92,88h1v1h-1z M93,88h1v1h-1z M94,88h1v1h-1z M97,88h1v1h-1z M98,88h1v1h-1z M100,88h1v1h-1z M102,88h1v1h-1z M103,88h1v1h-1z M104,88h1v1h-1z M106,88h1v1h-1z M107,88h1v1h-1z M5,89h1v1h-1z M6,89h1v1h-1z M7,89h1v1h-1z M8,89h1v1h-1z M9,89h1v1h-1z M13,89h1v1h-1z M15,89h1v1h-1z M16,89h1v1h-1z M20,89h1v1h-1z M21,89h1v1h-1z M22,89h1v1h-1z M23,89h1v1h-1z M24,89h1v1h-1z M25,89h1v1h-1z M26,89h1v1h-1z M30,89h1v1h-1z M31,89h1v1h-1z M32,89h1v1h-1z M34,89h1v1h-1z M36,89h1v1h-1z M39,89h1v1h-1z M41,89h1v1h-1z M42,89h1v1h-1z M43,89h1v1h-1z M45,89h1v1h-1z M48,89h1v1h-1z M49,89h1v1h-1z M50,89h1v1h-1z M54,89h1v1h-1z M58,89h1v1h-1z M59,89h1v1h-1z M61,89h1v1h-1z M62,89h1v1h-1z M66,89h1v1h-1z M68,89h1v1h-1z M69,89h1v1h-1z M70,89h1v1h-1z M71,89h1v1h-1z M72,89h1v1h-1z M73,89h1v1h-1z M78,89h1v1h-1z M80,89h1v1h-1z M81,89h1v1h-1z M83,89h1v1h-1z M84,89h1v1h-1z M86,89h1v1h-1z M87,89h1v1h-1z M89,89h1v1h-1z M94,89h1v1h-1z M96,89h1v1h-1z M97,89h1v1h-1z M98,89h1v1h-1z M102,89h1v1h-1z M103,89h1v1h-1z M105,89h1v1h-1z M106,89h1v1h-1z M107,89h1v1h-1z M108,89h1v1h-1z M4,90h1v1h-1z M5,90h1v1h-1z M6,90h1v1h-1z M8,90h1v1h-1z M9,90h1v1h-1z M10,90h1v1h-1z M11,90h1v1h-1z M13,90h1v1h-1z M14,90h1v1h-1z M18,90h1v1h-1z M19,90h1v1h-1z M22,90h1v1h-1z M23,90h1v1h-1z M24,90h1v1h-1z M25,90h1v1h-1z M26,90h1v1h-1z M27,90h1v1h-1z M30,90h1v1h-1z M31,90h1v1h-1z M32,90h1v1h-1z M35,90h1v1h-1z M36,90h1v1h-1z M37,90h1v1h-1z M38,90h1v1h-1z M40,90h1v1h-1z M41,90h1v1h-1z M47,90h1v1h-1z M48,90h1v1h-1z M49,90h1v1h-1z M50,90h1v1h-1z M54,90h1v1h-1z M56,90h1v1h-1z M59,90h1v1h-1z M62,90h1v1h-1z M64,90h1v1h-1z M65,90h1v1h-1z M68,90h1v1h-1z M71,90h1v1h-1z M72,90h1v1h-1z M74,90h1v1h-1z M77,90h1v1h-1z M80,90h1v1h-1z M83,90h1v1h-1z M84,90h1v1h-1z M86,90h1v1h-1z M87,90h1v1h-1z M88,90h1v1h-1z M95,90h1v1h-1z M96,90h1v1h-1z M97,90h1v1h-1z M98,90h1v1h-1z M99,90h1v1h-1z M101,90h1v1h-1z M105,90h1v1h-1z M107,90h1v1h-1z M4,91h1v1h-1z M8,91h1v1h-1z M12,91h1v1h-1z M14,91h1v1h-1z M17,91h1v1h-1z M18,91h1v1h-1z M19,91h1v1h-1z M20,91h1v1h-1z M21,91h1v1h-1z M23,91h1v1h-1z M24,91h1v1h-1z M27,91h1v1h-1z M28,91h1v1h-1z M31,91h1v1h-1z M34,91h1v1h-1z M35,91h1v1h-1z M37,91h1v1h-1z M39,91h1v1h-1z M42,91h1v1h-1z M43,91h1v1h-1z M44,91h1v1h-1z M45,91h1v1h-1z M51,91h1v1h-1z M53,91h1v1h-1z M54,91h1v1h-1z M58,91h1v1h-1z M59,91h1v1h-1z M63,91h1v1h-1z M66,91h1v1h-1z M68,91h1v1h-1z M69,91h1v1h-1z M70,91h1v1h-1z M73,91h1v1h-1z M75,91h1v1h-1z M77,91h1v1h-1z M78,91h1v1h-1z M81,91h1v1h-1z M83,91h1v1h-1z M90,91h1v1h-1z M92,91h1v1h-1z M94,91h1v1h-1z M95,91h1v1h-1z M99,91h1v1h-1z M100,91h1v1h-1z M103,91h1v1h-1z M104,91h1v1h-1z M105,91h1v1h-1z M108,91h1v1h-1z M4,92h1v1h-1z M5,92h1v1h-1z M6,92h1v1h-1z M7,92h1v1h-1z M10,92h1v1h-1z M14,92h1v1h-1z M15,92h1v1h-1z M19,92h1v1h-1z M20,92h1v1h-1z M21,92h1v1h-1z M22,92h1v1h-1z M30,92h1v1h-1z M37,92h1v1h-1z M39,92h1v1h-1z M40,92h1v1h-1z M41,92h1v1h-1z M42,92h1v1h-1z M43,92h1v1h-1z M44,92h1v1h-1z M46,92h1v1h-1z M48,92h1v1h-1z M49,92h1v1h-1z M51,92h1v1h-1z M52,92h1v1h-1z M55,92h1v1h-1z M57,92h1v1h-1z M58,92h1v1h-1z M60,92h1v1h-1z M64,92h1v1h-1z M65,92h1v1h-1z M68,92h1v1h-1z M70,92h1v1h-1z M71,92h1v1h-1z M79,92h1v1h-1z M81,92h1v1h-1z M82,92h1v1h-1z M83,92h1v1h-1z M84,92h1v1h-1z M85,92h1v1h-1z M87,92h1v1h-1z M89,92h1v1h-1z M97,92h1v1h-1z M98,92h1v1h-1z M100,92h1v1h-1z M101,92h1v1h-1z M102,92h1v1h-1z M103,92h1v1h-1z M104,92h1v1h-1z M107,92h1v1h-1z M108,92h1v1h-1z M5,93h1v1h-1z M6,93h1v1h-1z M7,93h1v1h-1z M13,93h1v1h-1z M16,93h1v1h-1z M17,93h1v1h-1z M18,93h1v1h-1z M19,93h1v1h-1z M21,93h1v1h-1z M24,93h1v1h-1z M25,93h1v1h-1z M26,93h1v1h-1z M28,93h1v1h-1z M30,93h1v1h-1z M34,93h1v1h-1z M35,93h1v1h-1z M38,93h1v1h-1z M39,93h1v1h-1z M40,93h1v1h-1z M43,93h1v1h-1z M46,93h1v1h-1z M47,93h1v1h-1z M48,93h1v1h-1z M52,93h1v1h-1z M53,93h1v1h-1z M54,93h1v1h-1z M56,93h1v1h-1z M58,93h1v1h-1z M60,93h1v1h-1z M63,93h1v1h-1z M66,93h1v1h-1z M69,93h1v1h-1z M73,93h1v1h-1z M74,93h1v1h-1z M78,93h1v1h-1z M82,93h1v1h-1z M84,93h1v1h-1z M86,93h1v1h-1z M92,93h1v1h-1z M93,93h1v1h-1z M94,93h1v1h-1z M95,93h1v1h-1z M96,93h1v1h-1z M97,93h1v1h-1z M98,93h1v1h-1z M103,93h1v1h-1z M106,93h1v1h-1z M4,94h1v1h-1z M5,94h1v1h-1z M7,94h1v1h-1z M9,94h1v1h-1z M10,94h1v1h-1z M11,94h1v1h-1z M13,94h1v1h-1z M15,94h1v1h-1z M18,94h1v1h-1z M20,94h1v1h-1z M21,94h1v1h-1z M22,94h1v1h-1z M23,94h1v1h-1z M25,94h1v1h-1z M27,94h1v1h-1z M32,94h1v1h-1z M35,94h1v1h-1z M36,94h1v1h-1z M38,94h1v1h-1z M41,94h1v1h-1z M48,94h1v1h-1z M50,94h1v1h-1z M52,94h1v1h-1z M53,94h1v1h-1z M54,94h1v1h-1z M55,94h1v1h-1z M56,94h1v1h-1z M57,94h1v1h-1z M62,94h1v1h-1z M64,94h1v1h-1z M65,94h1v1h-1z M71,94h1v1h-1z M74,94h1v1h-1z M75,94h1v1h-1z M76,94h1v1h-1z M80,94h1v1h-1z M84,94h1v1h-1z M86,94h1v1h-1z M88,94h1v1h-1z M89,94h1v1h-1z M91,94h1v1h-1z M92,94h1v1h-1z M93,94h1v1h-1z M95,94h1v1h-1z M96,94h1v1h-1z M98,94h1v1h-1z M99,94h1v1h-1z M101,94h1v1h-1z M104,94h1v1h-1z M105,94h1v1h-1z M107,94h1v1h-1z M5,95h1v1h-1z M11,95h1v1h-1z M13,95h1v1h-1z M14,95h1v1h-1z M15,95h1v1h-1z M16,95h1v1h-1z M18,95h1v1h-1z M19,95h1v1h-1z M20,95h1v1h-1z M21,95h1v1h-1z M23,95h1v1h-1z M24,95h1v1h-1z M26,95h1v1h-1z M34,95h1v1h-1z M35,95h1v1h-1z M37,95h1v1h-1z M44,95h1v1h-1z M46,95h1v1h-1z M56,95h1v1h-1z M58,95h1v1h-1z M59,95h1v1h-1z M61,95h1v1h-1z M62,95h1v1h-1z M68,95h1v1h-1z M69,95h1v1h-1z M71,95h1v1h-1z M74,95h1v1h-1z M75,95h1v1h-1z M76,95h1v1h-1z M77,95h1v1h-1z M79,95h1v1h-1z M83,95h1v1h-1z M85,95h1v1h-1z M92,95h1v1h-1z M94,95h1v1h-1z M95,95h1v1h-1z M97,95h1v1h-1z M98,95h1v1h-1z M99,95h1v1h-1z M100,95h1v1h-1z M102,95h1v1h-1z M103,95h1v1h-1z M107,95h1v1h-1z M4,96h1v1h-1z M5,96h1v1h-1z M9,96h1v1h-1z M10,96h1v1h-1z M11,96h1v1h-1z M12,96h1v1h-1z M14,96h1v1h-1z M18,96h1v1h-1z M20,96h1v1h-1z M22,96h1v1h-1z M24,96h1v1h-1z M26,96h1v1h-1z M27,96h1v1h-1z M30,96h1v1h-1z M31,96h1v1h-1z M33,96h1v1h-1z M34,96h1v1h-1z M35,96h1v1h-1z M39,96h1v1h-1z M42,96h1v1h-1z M43,96h1v1h-1z M46,96h1v1h-1z M48,96h1v1h-1z M49,96h1v1h-1z M50,96h1v1h-1z M54,96h1v1h-1z M56,96h1v1h-1z M59,96h1v1h-1z M60,96h1v1h-1z M61,96h1v1h-1z M64,96h1v1h-1z M66,96h1v1h-1z M68,96h1v1h-1z M69,96h1v1h-1z M71,96h1v1h-1z M72,96h1v1h-1z M73,96h1v1h-1z M75,96h1v1h-1z M76,96h1v1h-1z M77,96h1v1h-1z M79,96h1v1h-1z M81,96h1v1h-1z M82,96h1v1h-1z M83,96h1v1h-1z M84,96h1v1h-1z M86,96h1v1h-1z M90,96h1v1h-1z M92,96h1v1h-1z M93,96h1v1h-1z M94,96h1v1h-1z M96,96h1v1h-1z M97,96h1v1h-1z M101,96h1v1h-1z M103,96h1v1h-1z M104,96h1v1h-1z M107,96h1v1h-1z M108,96h1v1h-1z M4,97h1v1h-1z M5,97h1v1h-1z M6,97h1v1h-1z M9,97h1v1h-1z M11,97h1v1h-1z M12,97h1v1h-1z M13,97h1v1h-1z M15,97h1v1h-1z M16,97h1v1h-1z M18,97h1v1h-1z M19,97h1v1h-1z M21,97h1v1h-1z M23,97h1v1h-1z M26,97h1v1h-1z M28,97h1v1h-1z M29,97h1v1h-1z M30,97h1v1h-1z M31,97h1v1h-1z M33,97h1v1h-1z M34,97h1v1h-1z M36,97h1v1h-1z M39,97h1v1h-1z M40,97h1v1h-1z M42,97h1v1h-1z M44,97h1v1h-1z M48,97h1v1h-1z M53,97h1v1h-1z M54,97h1v1h-1z M56,97h1v1h-1z M58,97h1v1h-1z M59,97h1v1h-1z M64,97h1v1h-1z M65,97h1v1h-1z M66,97h1v1h-1z M69,97h1v1h-1z M74,97h1v1h-1z M76,97h1v1h-1z M77,97h1v1h-1z M78,97h1v1h-1z M79,97h1v1h-1z M80,97h1v1h-1z M83,97h1v1h-1z M84,97h1v1h-1z M85,97h1v1h-1z M87,97h1v1h-1z M90,97h1v1h-1z M94,97h1v1h-1z M96,97h1v1h-1z M101,97h1v1h-1z M102,97h1v1h-1z M108,97h1v1h-1z M4,98h1v1h-1z M5,98h1v1h-1z M6,98h1v1h-1z M10,98h1v1h-1z M11,98h1v1h-1z M12,98h1v1h-1z M15,98h1v1h-1z M16,98h1v1h-1z M17,98h1v1h-1z M19,98h1v1h-1z M20,98h1v1h-1z M21,98h1v1h-1z M23,98h1v1h-1z M25,98h1v1h-1z M28,98h1v1h-1z M29,98h1v1h-1z M30,98h1v1h-1z M32,98h1v1h-1z M35,98h1v1h-1z M36,98h1v1h-1z M38,98h1v1h-1z M39,98h1v1h-1z M41,98h1v1h-1z M44,98h1v1h-1z M47,98h1v1h-1z M48,98h1v1h-1z M50,98h1v1h-1z M53,98h1v1h-1z M54,98h1v1h-1z M56,98h1v1h-1z M59,98h1v1h-1z M61,98h1v1h-1z M62,98h1v1h-1z M65,98h1v1h-1z M67,98h1v1h-1z M68,98h1v1h-1z M69,98h1v1h-1z M71,98h1v1h-1z M73,98h1v1h-1z M74,98h1v1h-1z M75,98h1v1h-1z M77,98h1v1h-1z M78,98h1v1h-1z M80,98h1v1h-1z M83,98h1v1h-1z M84,98h1v1h-1z M86,98h1v1h-1z M88,98h1v1h-1z M89,98h1v1h-1z M92,98h1v1h-1z M95,98h1v1h-1z M97,98h1v1h-1z M98,98h1v1h-1z M101,98h1v1h-1z M103,98h1v1h-1z M106,98h1v1h-1z M107,98h1v1h-1z M6,99h1v1h-1z M8,99h1v1h-1z M9,99h1v1h-1z M12,99h1v1h-1z M13,99h1v1h-1z M17,99h1v1h-1z M19,99h1v1h-1z M22,99h1v1h-1z M24,99h1v1h-1z M27,99h1v1h-1z M31,99h1v1h-1z M32,99h1v1h-1z M33,99h1v1h-1z M35,99h1v1h-1z M37,99h1v1h-1z M38,99h1v1h-1z M41,99h1v1h-1z M42,99h1v1h-1z M44,99h1v1h-1z M47,99h1v1h-1z M49,99h1v1h-1z M50,99h1v1h-1z M51,99h1v1h-1z M54,99h1v1h-1z M55,99h1v1h-1z M58,99h1v1h-1z M59,99h1v1h-1z M68,99h1v1h-1z M70,99h1v1h-1z M71,99h1v1h-1z M75,99h1v1h-1z M77,99h1v1h-1z M79,99h1v1h-1z M81,99h1v1h-1z M82,99h1v1h-1z M85,99h1v1h-1z M86,99h1v1h-1z M92,99h1v1h-1z M94,99h1v1h-1z M95,99h1v1h-1z M104,99h1v1h-1z M7,100h1v1h-1z M8,100h1v1h-1z M10,100h1v1h-1z M13,100h1v1h-1z M14,100h1v1h-1z M23,100h1v1h-1z M24,100h1v1h-1z M25,100h1v1h-1z M27,100h1v1h-1z M28,100h1v1h-1z M29,100h1v1h-1z M30,100h1v1h-1z M31,100h1v1h-1z M32,100h1v1h-1z M33,100h1v1h-1z M34,100h1v1h-1z M37,100h1v1h-1z M39,100h1v1h-1z M41,100h1v1h-1z M42,100h1v1h-1z M44,100h1v1h-1z M46,100h1v1h-1z M47,100h1v1h-1z M48,100h1v1h-1z M49,100h1v1h-1z M52,100h1v1h-1z M53,100h1v1h-1z M54,100h1v1h-1z M55,100h1v1h-1z M56,100h1v1h-1z M58,100h1v1h-1z M59,100h1v1h-1z M60,100h1v1h-1z M64,100h1v1h-1z M66,100h1v1h-1z M68,100h1v1h-1z M69,100h1v1h-1z M71,100h1v1h-1z M73,100h1v1h-1z M76,100h1v1h-1z M77,100h1v1h-1z M78,100h1v1h-1z M79,100h1v1h-1z M80,100h1v1h-1z M81,100h1v1h-1z M83,100h1v1h-1z M87,100h1v1h-1z M90,100h1v1h-1z M94,100h1v1h-1z M98,100h1v1h-1z M100,100h1v1h-1z M101,100h1v1h-1z M102,100h1v1h-1z M103,100h1v1h-1z M104,100h1v1h-1z M105,100h1v1h-1z M106,100h1v1h-1z M108,100h1v1h-1z M12,101h1v1h-1z M16,101h1v1h-1z M18,101h1v1h-1z M20,101h1v1h-1z M21,101h1v1h-1z M23,101h1v1h-1z M26,101h1v1h-1z M27,101h1v1h-1z M28,101h1v1h-1z M32,101h1v1h-1z M34,101h1v1h-1z M37,101h1v1h-1z M38,101h1v1h-1z M42,101h1v1h-1z M45,101h1v1h-1z M46,101h1v1h-1z M47,101h1v1h-1z M49,101h1v1h-1z M51,101h1v1h-1z M52,101h1v1h-1z M56,101h1v1h-1z M57,101h1v1h-1z M58,101h1v1h-1z M59,101h1v1h-1z M61,101h1v1h-1z M63,101h1v1h-1z M64,101h1v1h-1z M66,101h1v1h-1z M67,101h1v1h-1z M71,101h1v1h-1z M72,101h1v1h-1z M74,101h1v1h-1z M75,101h1v1h-1z M76,101h1v1h-1z M80,101h1v1h-1z M81,101h1v1h-1z M84,101h1v1h-1z M85,101h1v1h-1z M86,101h1v1h-1z M88,101h1v1h-1z M90,101h1v1h-1z M93,101h1v1h-1z M94,101h1v1h-1z M95,101h1v1h-1z M96,101h1v1h-1z M99,101h1v1h-1z M100,101h1v1h-1z M104,101h1v1h-1z M105,101h1v1h-1z M107,101h1v1h-1z M108,101h1v1h-1z M4,102h1v1h-1z M5,102h1v1h-1z M6,102h1v1h-1z M7,102h1v1h-1z M8,102h1v1h-1z M9,102h1v1h-1z M10,102h1v1h-1z M13,102h1v1h-1z M14,102h1v1h-1z M15,102h1v1h-1z M18,102h1v1h-1z M20,102h1v1h-1z M25,102h1v1h-1z M27,102h1v1h-1z M28,102h1v1h-1z M30,102h1v1h-1z M32,102h1v1h-1z M35,102h1v1h-1z M36,102h1v1h-1z M38,102h1v1h-1z M41,102h1v1h-1z M43,102h1v1h-1z M47,102h1v1h-1z M48,102h1v1h-1z M50,102h1v1h-1z M51,102h1v1h-1z M52,102h1v1h-1z M54,102h1v1h-1z M56,102h1v1h-1z M60,102h1v1h-1z M62,102h1v1h-1z M65,102h1v1h-1z M71,102h1v1h-1z M72,102h1v1h-1z M74,102h1v1h-1z M75,102h1v1h-1z M76,102h1v1h-1z M78,102h1v1h-1z M80,102h1v1h-1z M86,102h1v1h-1z M87,102h1v1h-1z M88,102h1v1h-1z M89,102h1v1h-1z M91,102h1v1h-1z M96,102h1v1h-1z M98,102h1v1h-1z M100,102h1v1h-1z M102,102h1v1h-1z M104,102h1v1h-1z M105,102h1v1h-1z M106,102h1v1h-1z M107,102h1v1h-1z M4,103h1v1h-1z M10,103h1v1h-1z M12,103h1v1h-1z M16,103h1v1h-1z M17,103h1v1h-1z M18,103h1v1h-1z M19,103h1v1h-1z M21,103h1v1h-1z M26,103h1v1h-1z M28,103h1v1h-1z M32,103h1v1h-1z M33,103h1v1h-1z M37,103h1v1h-1z M38,103h1v1h-1z M42,103h1v1h-1z M43,103h1v1h-1z M44,103h1v1h-1z M45,103h1v1h-1z M49,103h1v1h-1z M50,103h1v1h-1z M52,103h1v1h-1z M56,103h1v1h-1z M59,103h1v1h-1z M61,103h1v1h-1z M66,103h1v1h-1z M67,103h1v1h-1z M68,103h1v1h-1z M70,103h1v1h-1z M71,103h1v1h-1z M73,103h1v1h-1z M75,103h1v1h-1z M76,103h1v1h-1z M80,103h1v1h-1z M83,103h1v1h-1z M92,103h1v1h-1z M100,103h1v1h-1z M104,103h1v1h-1z M105,103h1v1h-1z M107,103h1v1h-1z M4,104h1v1h-1z M6,104h1v1h-1z M7,104h1v1h-1z M8,104h1v1h-1z M10,104h1v1h-1z M12,104h1v1h-1z M13,104h1v1h-1z M14,104h1v1h-1z M15,104h1v1h-1z M16,104h1v1h-1z M17,104h1v1h-1z M19,104h1v1h-1z M21,104h1v1h-1z M25,104h1v1h-1z M28,104h1v1h-1z M29,104h1v1h-1z M30,104h1v1h-1z M31,104h1v1h-1z M32,104h1v1h-1z M33,104h1v1h-1z M34,104h1v1h-1z M35,104h1v1h-1z M41,104h1v1h-1z M43,104h1v1h-1z M44,104h1v1h-1z M47,104h1v1h-1z M48,104h1v1h-1z M51,104h1v1h-1z M52,104h1v1h-1z M53,104h1v1h-1z M54,104h1v1h-1z M55,104h1v1h-1z M56,104h1v1h-1z M59,104h1v1h-1z M60,104h1v1h-1z M61,104h1v1h-1z M63,104h1v1h-1z M64,104h1v1h-1z M66,104h1v1h-1z M68,104h1v1h-1z M69,104h1v1h-1z M70,104h1v1h-1z M71,104h1v1h-1z M72,104h1v1h-1z M74,104h1v1h-1z M75,104h1v1h-1z M76,104h1v1h-1z M77,104h1v1h-1z M78,104h1v1h-1z M79,104h1v1h-1z M80,104h1v1h-1z M84,104h1v1h-1z M85,104h1v1h-1z M89,104h1v1h-1z M90,104h1v1h-1z M95,104h1v1h-1z M100,104h1v1h-1z M101,104h1v1h-1z M102,104h1v1h-1z M103,104h1v1h-1z M104,104h1v1h-1z M107,104h1v1h-1z M108,104h1v1h-1z M4,105h1v1h-1z M6,105h1v1h-1z M7,105h1v1h-1z M8,105h1v1h-1z M10,105h1v1h-1z M14,105h1v1h-1z M15,105h1v1h-1z M16,105h1v1h-1z M18,105h1v1h-1z M19,105h1v1h-1z M26,105h1v1h-1z M27,105h1v1h-1z M28,105h1v1h-1z M30,105h1v1h-1z M33,105h1v1h-1z M34,105h1v1h-1z M36,105h1v1h-1z M37,105h1v1h-1z M38,105h1v1h-1z M40,105h1v1h-1z M41,105h1v1h-1z M42,105h1v1h-1z M44,105h1v1h-1z M47,105h1v1h-1z M48,105h1v1h-1z M49,105h1v1h-1z M50,105h1v1h-1z M52,105h1v1h-1z M53,105h1v1h-1z M54,105h1v1h-1z M55,105h1v1h-1z M57,105h1v1h-1z M60,105h1v1h-1z M62,105h1v1h-1z M63,105h1v1h-1z M64,105h1v1h-1z M65,105h1v1h-1z M66,105h1v1h-1z M69,105h1v1h-1z M71,105h1v1h-1z M72,105h1v1h-1z M73,105h1v1h-1z M74,105h1v1h-1z M75,105h1v1h-1z M79,105h1v1h-1z M81,105h1v1h-1z M82,105h1v1h-1z M83,105h1v1h-1z M84,105h1v1h-1z M86,105h1v1h-1z M90,105h1v1h-1z M94,105h1v1h-1z M95,105h1v1h-1z M96,105h1v1h-1z M97,105h1v1h-1z M98,105h1v1h-1z M99,105h1v1h-1z M101,105h1v1h-1z M103,105h1v1h-1z M104,105h1v1h-1z M105,105h1v1h-1z M106,105h1v1h-1z M107,105h1v1h-1z M108,105h1v1h-1z M4,106h1v1h-1z M6,106h1v1h-1z M7,106h1v1h-1z M8,106h1v1h-1z M10,106h1v1h-1z M13,106h1v1h-1z M15,106h1v1h-1z M19,106h1v1h-1z M20,106h1v1h-1z M25,106h1v1h-1z M28,106h1v1h-1z M29,106h1v1h-1z M31,106h1v1h-1z M32,106h1v1h-1z M35,106h1v1h-1z M36,106h1v1h-1z M38,106h1v1h-1z M39,106h1v1h-1z M41,106h1v1h-1z M47,106h1v1h-1z M48,106h1v1h-1z M49,106h1v1h-1z M50,106h1v1h-1z M52,106h1v1h-1z M53,106h1v1h-1z M55,106h1v1h-1z M59,106h1v1h-1z M60,106h1v1h-1z M62,106h1v1h-1z M63,106h1v1h-1z M69,106h1v1h-1z M73,106h1v1h-1z M74,106h1v1h-1z M76,106h1v1h-1z M77,106h1v1h-1z M83,106h1v1h-1z M84,106h1v1h-1z M86,106h1v1h-1z M87,106h1v1h-1z M88,106h1v1h-1z M89,106h1v1h-1z M95,106h1v1h-1z M96,106h1v1h-1z M98,106h1v1h-1z M103,106h1v1h-1z M104,106h1v1h-1z M105,106h1v1h-1z M4,107h1v1h-1z M10,107h1v1h-1z M12,107h1v1h-1z M13,107h1v1h-1z M14,107h1v1h-1z M16,107h1v1h-1z M17,107h1v1h-1z M18,107h1v1h-1z M21,107h1v1h-1z M22,107h1v1h-1z M23,107h1v1h-1z M24,107h1v1h-1z M26,107h1v1h-1z M27,107h1v1h-1z M30,107h1v1h-1z M32,107h1v1h-1z M33,107h1v1h-1z M34,107h1v1h-1z M35,107h1v1h-1z M37,107h1v1h-1z M41,107h1v1h-1z M43,107h1v1h-1z M44,107h1v1h-1z M47,107h1v1h-1z M53,107h1v1h-1z M56,107h1v1h-1z M59,107h1v1h-1z M61,107h1v1h-1z M62,107h1v1h-1z M66,107h1v1h-1z M68,107h1v1h-1z M70,107h1v1h-1z M71,107h1v1h-1z M75,107h1v1h-1z M78,107h1v1h-1z M80,107h1v1h-1z M82,107h1v1h-1z M83,107h1v1h-1z M90,107h1v1h-1z M92,107h1v1h-1z M93,107h1v1h-1z M94,107h1v1h-1z M98,107h1v1h-1z M99,107h1v1h-1z M101,107h1v1h-1z M103,107h1v1h-1z M4,108h1v1h-1z M5,108h1v1h-1z M6,108h1v1h-1z M7,108h1v1h-1z M8,108h1v1h-1z M9,108h1v1h-1z M10,108h1v1h-1z M12,108h1v1h-1z M13,108h1v1h-1z M14,108h1v1h-1z M15,108h1v1h-1z M16,108h1v1h-1z M17,108h1v1h-1z M19,108h1v1h-1z M20,108h1v1h-1z M22,108h1v1h-1z M24,108h1v1h-1z M25,108h1v1h-1z M27,108h1v1h-1z M28,108h1v1h-1z M29,108h1v1h-1z M30,108h1v1h-1z M32,108h1v1h-1z M34,108h1v1h-1z M36,108h1v1h-1z M40,108h1v1h-1z M42,108h1v1h-1z M44,108h1v1h-1z M46,108h1v1h-1z M47,108h1v1h-1z M48,108h1v1h-1z M49,108h1v1h-1z M51,108h1v1h-1z M52,108h1v1h-1z M53,108h1v1h-1z M55,108h1v1h-1z M56,108h1v1h-1z M58,108h1v1h-1z M60,108h1v1h-1z M62,108h1v1h-1z M65,108h1v1h-1z M66,108h1v1h-1z M68,108h1v1h-1z M71,108h1v1h-1z M72,108h1v1h-1z M73,108h1v1h-1z M78,108h1v1h-1z M79,108h1v1h-1z M82,108h1v1h-1z M83,108h1v1h-1z M85,108h1v1h-1z M86,108h1v1h-1z M87,108h1v1h-1z M89,108h1v1h-1z M90,108h1v1h-1z M94,108h1v1h-1z M95,108h1v1h-1z M99,108h1v1h-1z M101,108h1v1h-1z M102,108h1v1h-1z M105,108h1v1h-1z M106,108h1v1h-1z M108,108h1v1h-1z" fill="#000000"/>
</svg>
