<?xml version="1.0" encoding="UTF-8"?>
<!DOCTYPE svg PUBLIC "-//W3C//DTD SVG 1.1//EN" "http://www.w3.org/Graphics/SVG/1.1/DTD/svg11.dtd">
<svg xmlns="http://www.w3.org/2000/svg" version="1.1" viewBox="0 0 113 113" stroke="none">
	<rect width="100%" height="100%" fill="#FFFFFF"/>
	<path d="M4,4h1v1h-1z M5,4h1v1h-1z M6,4h1v1h-1z M7,4h1v1h-1z M8,4h1v1h-1z M9,4h1v1h-1z M10,4h1v1h-1z M12,4h1v1h-1z M13,4h1v1h-1z M17,4h1v1h-1z M19,4h1v1h-1z M20,4h1v1h-1z M26,4h1v1h-1z M29,4h1v1h-1z M30,4h1v1h-1z M32,4h1v1h-1z M33,4h1v1h-1z M35,4h1v1h-1z M36,4h1v1h-1z M42,4h1v1h-1z M43,4h1v1h-1z M45,4h1v1h-1z M48,4h1v1h-1z M49,4h1v1h-1z M50,4h1v1h-1z M51,4h1v1h-1z M53,4h1v1h-1z M55,4h1v1h-1z M58,4h1v1h-1z M60,4h1v1h-1z M63,4h1v1h-1z M64,4h1v1h-1z M66,4h1v1h-1z M67,4h1v1h-1z M70,4h1v1h-1z M72,4h1v1h-1z M73,4h1v1h-1z M74,4h1v1h-1z M76,4h1v1h-1z M77,4h1v1h-1z M78,4h1v1h-1z M79,4h1v1h-1z M80,4h1v1h-1z M83,4h1v1h-1z M84,4h1v1h-1z M88,4h1v1h-1z M92,4h1v1h-1z M93,4h1v1h-1z M95,4h1v1h-1z M96,4h1v1h-1z M97,4h1v1h-1z M98,4h1v1h-1z M102,4h1v1h-1z M103,4h1v1h-1z M104,4h1v1h-1z M105,4h1v1h-1z M106,4h1v1h-1z M107,4h1v1h-1z M108,4h1v1h-1z M4,5h1v1h-1z M10,5h1v1h-1z M18,5h1v1h-1z M19,5h1v1h-1z M20,5h1v1h-1z M23,5h1v1h-1z M24,5h1v1h-1z M28,5h1v1h-1z M30,5h1v1h-1z M31,5h1v1h-1z M33,5h1v1h-1z M34,5h1v1h-1z M36,5h1v1h-1z M37,5h1v1h-1z M39,5h1v1h-1z M40,5h1v1h-1z M42,5h1v1h-1z M43,5h1v1h-1z M44,5h1v1h-1z M45,5h1v1h-1z M46,5h1v1h-1z M49,5h1v1h-1z M51,5h1v1h-1z M54,5h1v1h-1z M56,5h1v1h-1z M57,5h1v1h-1z M58,5h1v1h-1z M59,5h1v1h-1z M61,5h1v1h-1z M63,5h1v1h-1z M64,5h1v1h-1z M65,5h1v1h-1z M66,5h1v1h-1z M69,5h1v1h-1z M70,5h1v1h-1z M71,5h1v1h-1z M73,5h1v1h-1z M75,5h1v1h-1z M76,5h1v1h-1z M78,5h1v1h-1z M79,5h1v1h-1z M82,5h1v1h-1z M85,5h1v1h-1z M87,5h1v1h-1z M90,5h1v1h-1z M92,5h1v1h-1z M93,5h1v1h-1z M94,5h1v1h-1z M97,5h1v1h-1z M98,5h1v1h-1z M102,5h1v1h-1z M108,5h1v1h-1z M4,6h1v1h-1z M6,6h1v1h-1z M7,6h1v1h-1z M8,6h1v1h-1z M10,6h1v1h-1z M13,6h1v1h-1z M15,6h1v1h-1z M17,6h1v1h-1z M18,6h1v1h-1z M21,6h1v1h-1z M22,6h1v1h-1z M23,6h1v1h-1z M25,6h1v1h-1z M26,6h1v1h-1z M27,6h1v1h-1z M28,6h1v1h-1z M29,6h1v1h-1z M32,6h1v1h-1z M33,6h1v1h-1z M34,6h1v1h-1z M37,6h1v1h-1z M38,6h1v1h-1z M39,6h1v1h-1z M40,6h1v1h-1z M42,6h1v1h-1z M44,6h1v1h-1z M46,6h1v1h-1z M47,6h1v1h-1z M49,6h1v1h-1z M51,6h1v1h-1z M52,6h1v1h-1z M53,6h1v1h-1z M56,6h1v1h-1z M59,6h1v1h-1z M61,6h1v1h-1z M62,6h1v1h-1z M63,6h1v1h-1z M64,6h1v1h-1z M65,6h1v1h-1z M66,6h1v1h-1z M68,6h1v1h-1z M69,6h1v1h-1z M73,6h1v1h-1z M75,6h1v1h-1z M76,6h1v1h-1z M77,6h1v1h-1z M78,6h1v1h-1z M80,6h1v1h-1z M83,6h1v1h-1z M86,6h1v1h-1z M88,6h1v1h-1z M89,6h1v1h-1z M90,6h1v1h-1z M91,6h1v1h-1z M92,6h1v1h-1z M98,6h1v1h-1z M99,6h1v1h-1z M102,6h1v1h-1z M104,6h1v1h-1z M105,6h1v1h-1z M106,6h1v1h-1z M108,6h1v1h-1z M4,7h1v1h-1z M6,7h1v1h-1z M7,7h1v1h-1z M8,7h1v1h-1z M10,7h1v1h-1z M13,7h1v1h-1z M14,7h1v1h-1z M15,7h1v1h-1z M17,7h1v1h-1z M18,7h1v1h-1z M20,7h1v1h-1z M23,7h1v1h-1z M24,7h1v1h-1z M26,7h1v1h-1z M33,7h1v1h-1z M34,7h1v1h-1z M39,7h1v1h-1z M40,7h1v1h-1z M42,7h1v1h-1z M47,7h1v1h-1z M50,7h1v1h-1z M51,7h1v1h-1z M54,7h1v1h-1z M58,7h1v1h-1z M59,7h1v1h-1z M61,7h1v1h-1z M62,7h1v1h-1z M67,7h1v1h-1z M68,7h1v1h-1z M70,7h1v1h-1z M74,7h1v1h-1z M75,7h1v1h-1z M76,7h1v1h-1z M77,7h1v1h-1z M78,7h1v1h-1z M79,7h1v1h-1z M81,7h1v1h-1z M82,7h1v1h-1z M84,7h1v1h-1z M86,7h1v1h-1z M87,7h1v1h-1z M88,7h1v1h-1z M91,7h1v1h-1z M94,7h1v1h-1z M95,7h1v1h-1z M97,7h1v1h-1z M100,7h1v1h-1z M102,7h1v1h-1z M104,7h1v1h-1z M105,7h1v1h-1z M106,7h1v1h-1z M108,7h1v1h-1z M4,8h1v1h-1z M6,8h1v1h-1z M7,8h1v1h-1z M8,8h1v1h-1z M10,8h1v1h-1z M13,8h1v1h-1z M14,8h1v1h-1z M15,8h1v1h-1z M16,8h1v1h-1z M18,8h1v1h-1z M22,8h1v1h-1z M23,8h1v1h-1z M27,8h1v1h-1z M28,8h1v1h-1z M29,8h1v1h-1z M30,8h1v1h-1z M31,8h1v1h-1z M32,8h1v1h-1z M36,8h1v1h-1z M40,8h1v1h-1z M41,8h1v1h-1z M46,8h1v1h-1z M47,8h1v1h-1z M48,8h1v1h-1z M49,8h1v1h-1z M50,8h1v1h-1z M52,8h1v1h-1z M53,8h1v1h-1z M54,8h1v1h-1z M55,8h1v1h-1z M56,8h1v1h-1z M58,8h1v1h-1z M60,8h1v1h-1z M61,8h1v1h-1z M63,8h1v1h-1z M64,8h1v1h-1z M66,8h1v1h-1z M67,8h1v1h-1z M68,8h1v1h-1z M69,8h1v1h-1z M73,8h1v1h-1z M74,8h1v1h-1z M75,8h1v1h-1z M76,8h1v1h-1z M77,8h1v1h-1z M78,8h1v1h-1z M79,8h1v1h-1z M80,8h1v1h-1z M81,8h1v1h-1z M84,8h1v1h-1z M86,8h1v1h-1z M87,8h1v1h-1z M88,8h1v1h-1z M89,8h1v1h-1z M90,8h1v1h-1z M92,8h1v1h-1z M93,8h1v1h-1z M94,8h1v1h-1z M95,8h1v1h-1z M97,8h1v1h-1z M99,8h1v1h-1z M100,8h1v1h-1z M102,8h1v1h-1z M104,8h1v1h-1z M105,8h1v1h-1z M106,8h1v1h-1z M108,8h1v1h-1z M4,9h1v1h-1z M10,9h1v1h-1z M13,9h1v1h-1z M14,9h1v1h-1z M15,9h1v1h-1z M16,9h1v1h-1z M17,9h1v1h-1z M20,9h1v1h-1z M22,9h1v1h-1z M25,9h1v1h-1z M26,9h1v1h-1z M27,9h1v1h-1z M28,9h1v1h-1z M32,9h1v1h-1z M33,9h1v1h-1z M34,9h1v1h-1z M36,9h1v1h-1z M37,9h1v1h-1z M38,9h1v1h-1z M39,9h1v1h-1z M40,9h1v1h-1z M41,9h1v1h-1z M43,9h1v1h-1z M46,9h1v1h-1z M49,9h1v1h-1z M50,9h1v1h-1z M51,9h1v1h-1z M52,9h1v1h-1z M56,9h1v1h-1z M58,9h1v1h-1z M60,9h1v1h-1z M61,9h1v1h-1z M62,9h1v1h-1z M63,9h1v1h-1z M64,9h1v1h-1z M65,9h1v1h-1z M69,9h1v1h-1z M70,9h1v1h-1z M72,9h1v1h-1z M73,9h1v1h-1z M74,9h1v1h-1z M76,9h1v1h-1z M80,9h1v1h-1z M82,9h1v1h-1z M83,9h1v1h-1z M84,9h1v1h-1z M85,9h1v1h-1z M86,9h1v1h-1z M87,9h1v1h-1z M88,9h1v1h-1z M89,9h1v1h-1z M92,9h1v1h-1z M94,9h1v1h-1z M97,9h1v1h-1z M99,9h1v1h-1z M102,9h1v1h-1z M108,9h1v1h-1z M4,10h1v1h-1z M5,10h1v1h-1z M6,10h1v1h-1z M7,10h1v1h-1z M8,10h1v1h-1z M9,10h1v1h-1z M10,10h1v1h-1z M12,10h1v1h-1z M14,10h1v1h-1z M16,10h1v1h-1z M18,10h1v1h-1z M20,10h1v1h-1z M22,10h1v1h-1z M24,10h1v1h-1z M26,10h1v1h-1z M28,10h1v1h-1z M30,10h1v1h-1z M32,10h1v1h-1z M34,10h1v1h-1z M36,10h1v1h-1z M38,10h1v1h-1z M40,10h1v1h-1z M42,10h1v1h-1z M44,10h1v1h-1z M46,10h1v1h-1z M48,10h1v1h-1z M50,10h1v1h-1z M52,10h1v1h-1z M54,10h1v1h-1z M56,10h1v1h-1z M58,10h1v1h-1z M60,10h1v1h-1z M62,10h1v1h-1z M64,10h1v1h-1z M66,10h1v1h-1z M68,10h1v1h-1z M70,10h1v1h-1z M72,10h1v1h-1z M74,10h1v1h-1z M76,10h1v1h-1z M78,10h1v1h-1z M80,10h1v1h-1z M82,10h1v1h-1z M84,10h1v1h-1z M86,10h1v1h-1z M88,10h1v1h-1z M90,10h1v1h-1z M92,10h1v1h-1z M94,10h1v1h-1z M96,10h1v1h-1z M98,10h1v1h-1z M100,10h1v1h-1z M102,10h1v1h-1z M103,10h1v1h-1z M104,10h1v1h-1z M105,10h1v1h-1z M106,10h1v1h-1z M107,10h1v1h-1z M108,10h1v1h-1z M12,11h1v1h-1z M13,11h1v1h-1z M17,11h1v1h-1z M24,11h1v1h-1z M28,11h1v1h-1z M32,11h1v1h-1z M33,11h1v1h-1z M36,11h1v1h-1z M39,11h1v1h-1z M40,11h1v1h-1z M42,11h1v1h-1z M48,11h1v1h-1z M49,11h1v1h-1z M51,11h1v1h-1z M52,11h1v1h-1z M56,11h1v1h-1z M58,11h1v1h-1z M60,11h1v1h-1z M61,11h1v1h-1z M62,11h1v1h-1z M63,11h1v1h-1z M64,11h1v1h-1z M67,11h1v1h-1z M69,11h1v1h-1z M72,11h1v1h-1z M73,11h1v1h-1z M74,11h1v1h-1z M76,11h1v1h-1z M80,11h1v1h-1z M82,11h1v1h-1z M83,11h1v1h-1z M84,11h1v1h-1z M85,11h1v1h-1z M86,11h1v1h-1z M87,11h1v1h-1z M88,11h1v1h-1z M91,11h1v1h-1z M96,11h1v1h-1z M97,11h1v1h-1z M99,11h1v1h-1z M4,12h1v1h-1z M5,12h1v1h-1z M7,12h1v1h-1z M8,12h1v1h-1z M10,12h1v1h-1z M16,12h1v1h-1z M19,12h1v1h-1z M21,12h1v1h-1z M22,12h1v1h-1z M23,12h1v1h-1z M25,12h1v1h-1z M26,12h1v1h-1z M28,12h1v1h-1z M29,12h1v1h-1z M30,12h1v1h-1z M31,12h1v1h-1z M32,12h1v1h-1z M34,12h1v1h-1z M36,12h1v1h-1z M38,12h1v1h-1z M39,12h1v1h-1z M43,12h1v1h-1z M44,12h1v1h-1z M45,12h1v1h-1z M46,12h1v1h-1z M49,12h1v1h-1z M50,12h1v1h-1z M51,12h1v1h-1z M52,12h1v1h-1z M53,12h1v1h-1z M54,12h1v1h-1z M55,12h1v1h-1z M56,12h1v1h-1z M58,12h1v1h-1z M61,12h1v1h-1z M63,12h1v1h-1z M64,12h1v1h-1z M66,12h1v1h-1z M67,12h1v1h-1z M69,12h1v1h-1z M71,12h1v1h-1z M73,12h1v1h-1z M75,12h1v1h-1z M76,12h1v1h-1z M77,12h1v1h-1z M78,12h1v1h-1z M79,12h1v1h-1z M80,12h1v1h-1z M83,12h1v1h-1z M84,12h1v1h-1z M85,12h1v1h-1z M87,12h1v1h-1z M88,12h1v1h-1z M90,12h1v1h-1z M91,12h1v1h-1z M96,12h1v1h-1z M100,12h1v1h-1z M102,12h1v1h-1z M108,12h1v1h-1z M6,13h1v1h-1z M9,13h1v1h-1z M11,13h1v1h-1z M12,13h1v1h-1z M15,13h1v1h-1z M16,13h1v1h-1z M17,13h1v1h-1z M19,13h1v1h-1z M20,13h1v1h-1z M21,13h1v1h-1z M25,13h1v1h-1z M27,13h1v1h-1z M28,13h1v1h-1z M29,13h1v1h-1z M32,13h1v1h-1z M34,13h1v1h-1z M36,13h1v1h-1z M37,13h1v1h-1z M40,13h1v1h-1z M42,13h1v1h-1z M43,13h1v1h-1z M44,13h1v1h-1z M46,13h1v1h-1z M47,13h1v1h-1z M48,13h1v1h-1z M51,13h1v1h-1z M52,13h1v1h-1z M56,13h1v1h-1z M57,13h1v1h-1z M58,13h1v1h-1z M60,13h1v1h-1z M64,13h1v1h-1z M66,13h1v1h-1z M68,13h1v1h-1z M69,13h1v1h-1z M71,13h1v1h-1z M72,13h1v1h-1z M73,13h1v1h-1z M74,13h1v1h-1z M76,13h1v1h-1z M77,13h1v1h-1z M81,13h1v1h-1z M82,13h1v1h-1z M83,13h1v1h-1z M84,13h1v1h-1z M86,13h1v1h-1z M87,13h1v1h-1z M89,13h1v1h-1z M91,13h1v1h-1z M92,13h1v1h-1z M93,13h1v1h-1z M94,13h1v1h-1z M98,13h1v1h-1z M99,13h1v1h-1z M100,13h1v1h-1z M102,13h1v1h-1z M104,13h1v1h-1z M105,13h1v1h-1z M106,13h1v1h-1z M108,13h1v1h-1z M4,14h1v1h-1z M5,14h1v1h-1z M6,14h1v1h-1z M9,14h1v1h-1z M10,14h1v1h-1z M12,14h1v1h-1z M14,14h1v1h-1z M15,14h1v1h-1z M18,14h1v1h-1z M22,14h1v1h-1z M24,14h1v1h-1z M25,14h1v1h-1z M29,14h1v1h-1z M30,14h1v1h-1z M32,14h1v1h-1z M34,14h1v1h-1z M35,14h1v1h-1z M37,14h1v1h-1z M39,14h1v1h-1z M41,14h1v1h-1z M42,14h1v1h-1z M44,14h1v1h-1z M46,14h1v1h-1z M47,14h1v1h-1z M48,14h1v1h-1z M52,14h1v1h-1z M53,14h1v1h-1z M54,14h1v1h-1z M55,14h1v1h-1z M58,14h1v1h-1z M65,14h1v1h-1z M66,14h1v1h-1z M67,14h1v1h-1z M70,14h1v1h-1z M71,14h1v1h-1z M73,14h1v1h-1z M75,14h1v1h-1z M76,14h1v1h-1z M77,14h1v1h-1z M78,14h1v1h-1z M80,14h1v1h-1z M81,14h1v1h-1z M82,14h1v1h-1z M89,14h1v1h-1z M90,14h1v1h-1z M91,14h1v1h-1z M92,14h1v1h-1z M94,14h1v1h-1z M100,14h1v1h-1z M101,14h1v1h-1z M105,14h1v1h-1z M106,14h1v1h-1z M107,14h1v1h-1z M108,14h1v1h-1z M4,15h1v1h-1z M5,15h1v1h-1z M7,15h1v1h-1z M8,15h1v1h-1z M11,15h1v1h-1z M12,15h1v1h-1z M13,15h1v1h-1z M14,15h1v1h-1z M15,15h1v1h-1z M19,15h1v1h-1z M20,15h1v1h-1z M21,15h1v1h-1z M22,15h1v1h-1z M23,15h1v1h-1z M25,15h1v1h-1z M28,15h1v1h-1z M30,15h1v1h-1z M32,15h1v1h-1z M34,15h1v1h-1z M37,15h1v1h-1z M40,15h1v1h-1z M41,15h1v1h-1z M42,15h1v1h-1z M43,15h1v1h-1z M44,15h1v1h-1z M45,15h1v1h-1z M46,15h1v1h-1z M47,15h1v1h-1z M49,15h1v1h-1z M50,15h1v1h-1z M51,15h1v1h-1z M54,15h1v1h-1z M55,15h1v1h-1z M56,15h1v1h-1z M57,15h1v1h-1z M59,15h1v1h-1z M64,15h1v1h-1z M65,15h1v1h-1z M67,15h1v1h-1z M68,15h1v1h-1z M69,15h1v1h-1z M70,15h1v1h-1z M80,15h1v1h-1z M83,15h1v1h-1z M85,15h1v1h-1z M87,15h1v1h-1z M88,15h1v1h-1z M91,15h1v1h-1z M92,15h1v1h-1z M93,15h1v1h-1z M95,15h1v1h-1z M97,15h1v1h-1z M101,15h1v1h-1z M104,15h1v1h-1z M106,15h1v1h-1z M107,15h1v1h-1z M108,15h1v1h-1z M5,16h1v1h-1z M6,16h1v1h-1z M7,16h1v1h-1z M8,16h1v1h-1z M10,16h1v1h-1z M12,16h1v1h-1z M13,16h1v1h-1z M15,16h1v1h-1z M17,16h1v1h-1z M20,16h1v1h-1z M22,16h1v1h-1z M24,16h1v1h-1z M26,16h1v1h-1z M28,16h1v1h-1z M31,16h1v1h-1z M32,16h1v1h-1z M33,16h1v1h-1z M34,16h1v1h-1z M37,16h1v1h-1z M38,16h1v1h-1z M42,16h1v1h-1z M46,16h1v1h-1z M47,16h1v1h-1z M48,16h1v1h-1z M49,16h1v1h-1z M50,16h1v1h-1z M51,16h1v1h-1z M52,16h1v1h-1z M54,16h1v1h-1z M55,16h1v1h-1z M57,16h1v1h-1z M59,16h1v1h-1z M60,16h1v1h-1z M62,16h1v1h-1z M63,16h1v1h-1z M65,16h1v1h-1z M66,16h1v1h-1z M69,16h1v1h-1z M71,16h1v1h-1z M72,16h1v1h-1z M73,16h1v1h-1z M74,16h1v1h-1z M75,16h1v1h-1z M77,16h1v1h-1z M81,16h1v1h-1z M85,16h1v1h-1z M90,16h1v1h-1z M94,16h1v1h-1z M99,16h1v1h-1z M100,16h1v1h-1z M102,16h1v1h-1z M103,16h1v1h-1z M106,16h1v1h-1z M4,17h1v1h-1z M6,17h1v1h-1z M8,17h1v1h-1z M9,17h1v1h-1z M11,17h1v1h-1z M14,17h1v1h-1z M15,17h1v1h-1z M18,17h1v1h-1z M22,17h1v1h-1z M23,17h1v1h-1z M24,17h1v1h-1z M27,17h1v1h-1z M28,17h1v1h-1z M29,17h1v1h-1z M30,17h1v1h-1z M32,17h1v1h-1z M34,17h1v1h-1z M35,17h1v1h-1z M36,17h1v1h-1z M38,17h1v1h-1z M44,17h1v1h-1z M47,17h1v1h-1z M49,17h1v1h-1z M50,17h1v1h-1z M51,17h1v1h-1z M52,17h1v1h-1z M56,17h1v1h-1z M57,17h1v1h-1z M58,17h1v1h-1z M59,17h1v1h-1z M62,17h1v1h-1z M64,17h1v1h-1z M68,17h1v1h-1z M70,17h1v1h-1z M74,17h1v1h-1z M75,17h1v1h-1z M76,17h1v1h-1z M79,17h1v1h-1z M81,17h1v1h-1z M82,17h1v1h-1z M83,17h1v1h-1z M84,17h1v1h-1z M87,17h1v1h-1z M88,17h1v1h-1z M89,17h1v1h-1z M90,17h1v1h-1z M91,17h1v1h-1z M94,17h1v1h-1z M96,17h1v1h-1z M97,17h1v1h-1z M99,17h1v1h-1z M100,17h1v1h-1z M103,17h1v1h-1z M104,17h1v1h-1z M106,17h1v1h-1z M7,18h1v1h-1z M10,18h1v1h-1z M11,18h1v1h-1z M15,18h1v1h-1z M18,18h1v1h-1z M19,18h1v1h-1z M20,18h1v1h-1z M23,18h1v1h-1z M24,18h1v1h-1z M25,18h1v1h-1z M26,18h1v1h-1z M28,18h1v1h-1z M32,18h1v1h-1z M34,18h1v1h-1z M35,18h1v1h-1z M36,18h1v1h-1z M37,18h1v1h-1z M38,18h1v1h-1z M39,18h1v1h-1z M40,18h1v1h-1z M41,18h1v1h-1z M43,18h1v1h-1z M45,18h1v1h-1z M46,18h1v1h-1z M47,18h1v1h-1z M50,18h1v1h-1z M51,18h1v1h-1z M57,18h1v1h-1z M58,18h1v1h-1z M59,18h1v1h-1z M61,18h1v1h-1z M62,18h1v1h-1z M63,18h1v1h-1z M67,18h1v1h-1z M68,18h1v1h-1z M69,18h1v1h-1z M70,18h1v1h-1z M71,18h1v1h-1z M74,18h1v1h-1z M81,18h1v1h-1z M82,18h1v1h-1z M83,18h1v1h-1z M86,18h1v1h-1z M93,18h1v1h-1z M94,18h1v1h-1z M96,18h1v1h-1z M98,18h1v1h-1z M102,18h1v1h-1z M104,18h1v1h-1z M105,18h1v1h-1z M4,19h1v1h-1z M5,19h1v1h-1z M6,19h1v1h-1z M7,19h1v1h-1z M8,19h1v1h-1z M9,19h1v1h-1z M11,19h1v1h-1z M14,19h1v1h-1z M15,19h1v1h-1z M23,19h1v1h-1z M24,19h1v1h-1z M25,19h1v1h-1z M27,19h1v1h-1z M28,19h1v1h-1z M30,19h1v1h-1z M31,19h1v1h-1z M32,19h1v1h-1z M36,19h1v1h-1z M37,19h1v1h-1z M39,19h1v1h-1z M40,19h1v1h-1z M41,19h1v1h-1z M43,19h1v1h-1z M44,19h1v1h-1z M45,19h1v1h-1z M46,19h1v1h-1z M47,19h1v1h-1z M48,19h1v1h-1z M49,19h1v1h-1z M56,19h1v1h-1z M59,19h1v1h-1z M60,19h1v1h-1z M61,19h1v1h-1z M64,19h1v1h-1z M66,19h1v1h-1z M67,19h1v1h-1z M68,19h1v1h-1z M69,19h1v1h-1z M71,19h1v1h-1z M72,19h1v1h-1z M73,19h1v1h-1z M75,19h1v1h-1z M79,19h1v1h-1z M80,19h1v1h-1z M83,19h1v1h-1z M84,19h1v1h-1z M85,19h1v1h-1z M86,19h1v1h-1z M87,19h1v1h-1z M88,19h1v1h-1z M89,19h1v1h-1z M91,19h1v1h-1z M92,19h1v1h-1z M95,19h1v1h-1z M96,19h1v1h-1z M98,19h1v1h-1z M100,19h1v1h-1z M101,19h1v1h-1z M102,19h1v1h-1z M103,19h1v1h-1z M104,19h1v1h-1z M105,19h1v1h-1z M106,19h1v1h-1z M107,19h1v1h-1z M108,19h1v1h-1z M5,20h1v1h-1z M6,20h1v1h-1z M7,20h1v1h-1z M8,20h1v1h-1z M10,20h1v1h-1z M12,20h1v1h-1z M13,20h1v1h-1z M14,20h1v1h-1z M18,20h1v1h-1z M19,20h1v1h-1z M25,20h1v1h-1z M26,20h1v1h-1z M28,20h1v1h-1z M29,20h1v1h-1z M30,20h1v1h-1z M31,20h1v1h-1z M33,20h1v1h-1z M34,20h1v1h-1z M36,20h1v1h-1z M39,20h1v1h-1z M40,20h1v1h-1z M41,20h1v1h-1z M44,20h1v1h-1z M45,20h1v1h-1z M46,20h1v1h-1z M48,20h1v1h-1z M49,20h1v1h-1z M52,20h1v1h-1z M53,20h1v1h-1z M54,20h1v1h-1z M55,20h1v1h-1z M60,20h1v1h-1z M61,20h1v1h-1z M66,20h1v1h-1z M72,20h1v1h-1z M73,20h1v1h-1z M74,20h1v1h-1z M75,20h1v1h-1z M76,20h1v1h-1z M81,20h1v1h-1z M83,20h1v1h-1z M85,20h1v1h-1z M88,20h1v1h-1z M90,20h1v1h-1z M92,20h1v1h-1z M94,20h1v1h-1z M97,20h1v1h-1z M100,20h1v1h-1z M101,20h1v1h-1z M103,20h1v1h-1z M105,20h1v1h-1z M106,20h1v1h-1z M107,20h1v1h-1z M4,21h1v1h-1z M9,21h1v1h-1z M15,21h1v1h-1z M17,21h1v1h-1z M18,21h1v1h-1z M23,21h1v1h-1z M24,21h1v1h-1z M26,21h1v1h-1z M28,21h1v1h-1z M36,21h1v1h-1z M39,21h1v1h-1z M40,21h1v1h-1z M41,21h1v1h-1z M42,21h1v1h-1z M43,21h1v1h-1z M44,21h1v1h-1z M48,21h1v1h-1z M50,21h1v1h-1z M52,21h1v1h-1z M55,21h1v1h-1z M56,21h1v1h-1z M57,21h1v1h-1z M58,21h1v1h-1z M60,21h1v1h-1z M61,21h1v1h-1z M62,21h1v1h-1z M65,21h1v1h-1z M69,21h1v1h-1z M70,21h1v1h-1z M73,21h1v1h-1z M74,21h1v1h-1z M76,21h1v1h-1z M78,21h1v1h-1z M79,21h1v1h-1z M80,21h1v1h-1z M82,21h1v1h-1z M84,21h1v1h-1z M90,21h1v1h-1z M91,21h1v1h-1z M92,21h1v1h-1z M93,21h1v1h-1z M96,21h1v1h-1z M97,21h1v1h-1z M99,21h1v1h-1z M101,21h1v1h-1z M102,21h1v1h-1z M103,21h1v1h-1z M105,21h1v1h-1z M107,21h1v1h-1z M108,21h1v1h-1z M5,22h1v1h-1z M7,22h1v1h-1z M10,22h1v1h-1z M12,22h1v1h-1z M15,22h1v1h-1z M19,22h1v1h-1z M20,22h1v1h-1z M21,22h1v1h-1z M23,22h1v1h-1z M24,22h1v1h-1z M26,22h1v1h-1z M27,22h1v1h-1z M28,22h1v1h-1z M30,22h1v1h-1z M31,22h1v1h-1z M32,22h1v1h-1z M34,22h1v1h-1z M36,22h1v1h-1z M38,22h1v1h-1z M39,22h1v1h-1z M40,22h1v1h-1z M42,22h1v1h-1z M43,22h1v1h-1z M46,22h1v1h-1z M48,22h1v1h-1z M50,22h1v1h-1z M51,22h1v1h-1z M52,22h1v1h-1z M53,22h1v1h-1z M54,22h1v1h-1z M56,22h1v1h-1z M58,22h1v1h-1z M59,22h1v1h-1z M60,22h1v1h-1z M62,22h1v1h-1z M66,22h1v1h-1z M67,22h1v1h-1z M68,22h1v1h-1z M70,22h1v1h-1z M71,22h1v1h-1z M72,22h1v1h-1z M74,22h1v1h-1z M75,22h1v1h-1z M76,22h1v1h-1z M78,22h1v1h-1z M82,22h1v1h-1z M86,22h1v1h-1z M88,22h1v1h-1z M90,22h1v1h-1z M91,22h1v1h-1z M94,22h1v1h-1z M98,22h1v1h-1z M103,22h1v1h-1z M104,22h1v1h-1z M105,22h1v1h-1z M106,22h1v1h-1z M107,22h1v1h-1z M108,22h1v1h-1z M4,23h1v1h-1z M5,23h1v1h-1z M9,23h1v1h-1z M12,23h1v1h-1z M13,23h1v1h-1z M14,23h1v1h-1z M17,23h1v1h-1z M18,23h1v1h-1z M19,23h1v1h-1z M20,23h1v1h-1z M21,23h1v1h-1z M30,23h1v1h-1z M31,23h1v1h-1z M33,23h1v1h-1z M34,23h1v1h-1z M36,23h1v1h-1z M39,23h1v1h-1z M40,23h1v1h-1z M43,23h1v1h-1z M45,23h1v1h-1z M46,23h1v1h-1z M48,23h1v1h-1z M49,23h1v1h-1z M51,23h1v1h-1z M52,23h1v1h-1z M55,23h1v1h-1z M58,23h1v1h-1z M60,23h1v1h-1z M61,23h1v1h-1z M62,23h1v1h-1z M64,23h1v1h-1z M65,23h1v1h-1z M66,23h1v1h-1z M67,23h1v1h-1z M70,23h1v1h-1z M72,23h1v1h-1z M73,23h1v1h-1z M75,23h1v1h-1z M77,23h1v1h-1z M78,23h1v1h-1z M79,23h1v1h-1z M84,23h1v1h-1z M87,23h1v1h-1z M88,23h1v1h-1z M89,23h1v1h-1z M90,23h1v1h-1z M91,23h1v1h-1z M94,23h1v1h-1z M96,23h1v1h-1z M99,23h1v1h-1z M101,23h1v1h-1z M102,23h1v1h-1z M104,23h1v1h-1z M105,23h1v1h-1z M106,23h1v1h-1z M107,23h1v1h-1z M4,24h1v1h-1z M5,24h1v1h-1z M6,24h1v1h-1z M7,24h1v1h-1z M8,24h1v1h-1z M9,24h1v1h-1z M10,24h1v1h-1z M12,24h1v1h-1z M13,24h1v1h-1z M14,24h1v1h-1z M15,24h1v1h-1z M16,24h1v1h-1z M18,24h1v1h-1z M19,24h1v1h-1z M21,24h1v1h-1z M24,24h1v1h-1z M25,24h1v1h-1z M26,24h1v1h-1z M27,24h1v1h-1z M28,24h1v1h-1z M29,24h1v1h-1z M32,24h1v1h-1z M37,24h1v1h-1z M42,24h1v1h-1z M43,24h1v1h-1z M45,24h1v1h-1z M46,24h1v1h-1z M47,24h1v1h-1z M48,24h1v1h-1z M50,24h1v1h-1z M51,24h1v1h-1z M54,24h1v1h-1z M55,24h1v1h-1z M56,24h1v1h-1z M58,24h1v1h-1z M60,24h1v1h-1z M61,24h1v1h-1z M62,24h1v1h-1z M63,24h1v1h-1z M65,24h1v1h-1z M66,24h1v1h-1z M69,24h1v1h-1z M70,24h1v1h-1z M80,24h1v1h-1z M81,24h1v1h-1z M82,24h1v1h-1z M84,24h1v1h-1z M85,24h1v1h-1z M86,24h1v1h-1z M91,24h1v1h-1z M94,24h1v1h-1z M96,24h1v1h-1z M98,24h1v1h-1z M100,24h1v1h-1z M101,24h1v1h-1z M102,24h1v1h-1z M103,24h1v1h-1z M105,24h1v1h-1z M106,24h1v1h-1z M107,24h1v1h-1z M108,24h1v1h-1z M4,25h1v1h-1z M8,25h1v1h-1z M11,25h1v1h-1z M13,25h1v1h-1z M14,25h1v1h-1z M15,25h1v1h-1z M23,25h1v1h-1z M24,25h1v1h-1z M25,25h1v1h-1z M27,25h1v1h-1z M28,25h1v1h-1z M29,25h1v1h-1z M30,25h1v1h-1z M31,25h1v1h-1z M32,25h1v1h-1z M33,25h1v1h-1z M35,25h1v1h-1z M37,25h1v1h-1z M38,25h1v1h-1z M39,25h1v1h-1z M43,25h1v1h-1z M44,25h1v1h-1z M45,25h1v1h-1z M48,25h1v1h-1z M52,25h1v1h-1z M53,25h1v1h-1z M57,25h1v1h-1z M58,25h1v1h-1z M60,25h1v1h-1z M62,25h1v1h-1z M65,25h1v1h-1z M67,25h1v1h-1z M75,25h1v1h-1z M76,25h1v1h-1z M79,25h1v1h-1z M81,25h1v1h-1z M83,25h1v1h-1z M84,25h1v1h-1z M85,25h1v1h-1z M86,25h1v1h-1z M89,25h1v1h-1z M92,25h1v1h-1z M96,25h1v1h-1z M97,25h1v1h-1z M100,25h1v1h-1z M101,25h1v1h-1z M102,25h1v1h-1z M5,26h1v1h-1z M10,26h1v1h-1z M12,26h1v1h-1z M16,26h1v1h-1z M18,26h1v1h-1z M21,26h1v1h-1z M22,26h1v1h-1z M24,26h1v1h-1z M27,26h1v1h-1z M29,26h1v1h-1z M30,26h1v1h-1z M32,26h1v1h-1z M33,26h1v1h-1z M34,26h1v1h-1z M35,26h1v1h-1z M41,26h1v1h-1z M42,26h1v1h-1z M43,26h1v1h-1z M46,26h1v1h-1z M47,26h1v1h-1z M51,26h1v1h-1z M52,26h1v1h-1z M54,26h1v1h-1z M55,26h1v1h-1z M56,26h1v1h-1z M58,26h1v1h-1z M60,26h1v1h-1z M64,26h1v1h-1z M65,26h1v1h-1z M66,26h1v1h-1z M68,26h1v1h-1z M70,26h1v1h-1z M71,26h1v1h-1z M75,26h1v1h-1z M76,26h1v1h-1z M77,26h1v1h-1z M78,26h1v1h-1z M79,26h1v1h-1z M80,26h1v1h-1z M82,26h1v1h-1z M83,26h1v1h-1z M84,26h1v1h-1z M90,26h1v1h-1z M92,26h1v1h-1z M94,26h1v1h-1z M95,26h1v1h-1z M97,26h1v1h-1z M100,26h1v1h-1z M102,26h1v1h-1z M106,26h1v1h-1z M107,26h1v1h-1z M108,26h1v1h-1z M5,27h1v1h-1z M8,27h1v1h-1z M13,27h1v1h-1z M16,27h1v1h-1z M17,27h1v1h-1z M20,27h1v1h-1z M27,27h1v1h-1z M32,27h1v1h-1z M35,27h1v1h-1z M38,27h1v1h-1z M39,27h1v1h-1z M40,27h1v1h-1z M41,27h1v1h-1z M42,27h1v1h-1z M43,27h1v1h-1z M44,27h1v1h-1z M46,27h1v1h-1z M49,27h1v1h-1z M50,27h1v1h-1z M51,27h1v1h-1z M52,27h1v1h-1z M53,27h1v1h-1z M54,27h1v1h-1z M56,27h1v1h-1z M58,27h1v1h-1z M59,27h1v1h-1z M61,27h1v1h-1z M64,27h1v1h-1z M65,27h1v1h-1z M66,27h1v1h-1z M68,27h1v1h-1z M76,27h1v1h-1z M77,27h1v1h-1z M78,27h1v1h-1z M79,27h1v1h-1z M80,27h1v1h-1z M81,27h1v1h-1z M83,27h1v1h-1z M85,27h1v1h-1z M86,27h1v1h-1z M88,27h1v1h-1z M89,27h1v1h-1z M90,27h1v1h-1z M91,27h1v1h-1z M92,27h1v1h-1z M93,27h1v1h-1z M97,27h1v1h-1z M103,27h1v1h-1z M105,27h1v1h-1z M106,27h1v1h-1z M4,28h1v1h-1z M5,28h1v1h-1z M6,28h1v1h-1z M7,28h1v1h-1z M8,28h1v1h-1z M9,28h1v1h-1z M10,28h1v1h-1z M11,28h1v1h-1z M12,28h1v1h-1z M14,28h1v1h-1z M18,28h1v1h-1z M21,28h1v1h-1z M22,28h1v1h-1z M23,28h1v1h-1z M24,28h1v1h-1z M26,28h1v1h-1z M27,28h1v1h-1z M28,28h1v1h-1z M29,28h1v1h-1z M30,28h1v1h-1z M31,28h1v1h-1z M32,28h1v1h-1z M33,28h1v1h-1z M34,28h1v1h-1z M37,28h1v1h-1z M38,28h1v1h-1z M42,28h1v1h-1z M43,28h1v1h-1z M46,28h1v1h-1z M47,28h1v1h-1z M48,28h1v1h-1z M52,28h1v1h-1z M53,28h1v1h-1z M54,28h1v1h-1z M55,28h1v1h-1z M56,28h1v1h-1z M57,28h1v1h-1z M60,28h1v1h-1z M61,28h1v1h-1z M62,28h1v1h-1z M66,28h1v1h-1z M68,28h1v1h-1z M70,28h1v1h-1z M71,28h1v1h-1z M72,28h1v1h-1z M73,28h1v1h-1z M76,28h1v1h-1z M77,28h1v1h-1z M78,28h1v1h-1z M79,28h1v1h-1z M80,28h1v1h-1z M81,28h1v1h-1z M82,28h1v1h-1z M83,28h1v1h-1z M84,28h1v1h-1z M86,28h1v1h-1z M87,28h1v1h-1z M90,28h1v1h-1z M92,28h1v1h-1z M95,28h1v1h-1z M96,28h1v1h-1z M97,28h1v1h-1z M98,28h1v1h-1z M99,28h1v1h-1z M100,28h1v1h-1z M101,28h1v1h-1z M102,28h1v1h-1z M103,28h1v1h-1z M104,28h1v1h-1z M107,28h1v1h-1z M4,29h1v1h-1z M6,29h1v1h-1z M8,29h1v1h-1z M12,29h1v1h-1z M13,29h1v1h-1z M14,29h1v1h-1z M16,29h1v1h-1z M18,29h1v1h-1z M19,29h1v1h-1z M24,29h1v1h-1z M27,29h1v1h-1z M28,29h1v1h-1z M32,29h1v1h-1z M33,29h1v1h-1z M35,29h1v1h-1z M37,29h1v1h-1z M39,29h1v1h-1z M41,29h1v1h-1z M46,29h1v1h-1z M47,29h1v1h-1z M48,29h1v1h-1z M52,29h1v1h-1z M56,29h1v1h-1z M57,29h1v1h-1z M61,29h1v1h-1z M64,29h1v1h-1z M67,29h1v1h-1z M68,29h1v1h-1z M69,29h1v1h-1z M72,29h1v1h-1z M74,29h1v1h-1z M75,29h1v1h-1z M76,29h1v1h-1z M80,29h1v1h-1z M81,29h1v1h-1z M82,29h1v1h-1z M84,29h1v1h-1z M88,29h1v1h-1z M89,29h1v1h-1z M92,29h1v1h-1z M93,29h1v1h-1z M94,29h1v1h-1z M95,29h1v1h-1z M96,29h1v1h-1z M97,29h1v1h-1z M100,29h1v1h-1z M104,29h1v1h-1z M105,29h1v1h-1z M106,29h1v1h-1z M107,29h1v1h-1z M108,29h1v1h-1z M4,30h1v1h-1z M5,30h1v1h-1z M7,30h1v1h-1z M8,30h1v1h-1z M10,30h1v1h-1z M12,30h1v1h-1z M14,30h1v1h-1z M15,30h1v1h-1z M16,30h1v1h-1z M17,30h1v1h-1z M19,30h1v1h-1z M20,30h1v1h-1z M22,30h1v1h-1z M26,30h1v1h-1z M27,30h1v1h-1z M28,30h1v1h-1z M30,30h1v1h-1z M32,30h1v1h-1z M33,30h1v1h-1z M34,30h1v1h-1z M36,30h1v1h-1z M38,30h1v1h-1z M39,30h1v1h-1z M45,30h1v1h-1z M46,30h1v1h-1z M48,30h1v1h-1z M50,30h1v1h-1z M51,30h1v1h-1z M52,30h1v1h-1z M54,30h1v1h-1z M56,30h1v1h-1z M57,30h1v1h-1z M58,30h1v1h-1z M62,30h1v1h-1z M63,30h1v1h-1z M67,30h1v1h-1z M69,30h1v1h-1z M70,30h1v1h-1z M71,30h1v1h-1z M74,30h1v1h-1z M76,30h1v1h-1z M78,30h1v1h-1z M80,30h1v1h-1z M81,30h1v1h-1z M82,30h1v1h-1z M83,30h1v1h-1z M84,30h1v1h-1z M86,30h1v1h-1z M91,30h1v1h-1z M92,30h1v1h-1z M93,30h1v1h-1z M94,30h1v1h-1z M98,30h1v1h-1z M100,30h1v1h-1z M102,30h1v1h-1z M104,30h1v1h-1z M4,31h1v1h-1z M6,31h1v1h-1z M8,31h1v1h-1z M12,31h1v1h-1z M17,31h1v1h-1z M18,31h1v1h-1z M19,31h1v1h-1z M20,31h1v1h-1z M21,31h1v1h-1z M22,31h1v1h-1z M23,31h1v1h-1z M26,31h1v1h-1z M28,31h1v1h-1z M32,31h1v1h-1z M33,31h1v1h-1z M35,31h1v1h-1z M36,31h1v1h-1z M37,31h1v1h-1z M38,31h1v1h-1z M40,31h1v1h-1z M44,31h1v1h-1z M45,31h1v1h-1z M46,31h1v1h-1z M48,31h1v1h-1z M52,31h1v1h-1z M56,31h1v1h-1z M58,31h1v1h-1z M59,31h1v1h-1z M60,31h1v1h-1z M63,31h1v1h-1z M64,31h1v1h-1z M66,31h1v1h-1z M67,31h1v1h-1z M68,31h1v1h-1z M71,31h1v1h-1z M72,31h1v1h-1z M76,31h1v1h-1z M80,31h1v1h-1z M83,31h1v1h-1z M84,31h1v1h-1z M85,31h1v1h-1z M87,31h1v1h-1z M88,31h1v1h-1z M90,31h1v1h-1z M91,31h1v1h-1z M92,31h1v1h-1z M93,31h1v1h-1z M94,31h1v1h-1z M95,31h1v1h-1z M96,31h1v1h-1z M100,31h1v1h-1z M104,31h1v1h-1z M105,31h1v1h-1z M106,31h1v1h-1z M7,32h1v1h-1z M8,32h1v1h-1z M9,32h1v1h-1z M10,32h1v1h-1z M11,32h1v1h-1z M12,32h1v1h-1z M13,32h1v1h-1z M15,32h1v1h-1z M19,32h1v1h-1z M20,32h1v1h-1z M23,32h1v1h-1z M24,32h1v1h-1z M26,32h1v1h-1z M27,32h1v1h-1z M28,32h1v1h-1z M29,32h1v1h-1z M30,32h1v1h-1z M31,32h1v1h-1z M32,32h1v1h-1z M33,32h1v1h-1z M35,32h1v1h-1z M36,32h1v1h-1z M38,32h1v1h-1z M41,32h1v1h-1z M42,32h1v1h-1z M44,32h1v1h-1z M46,32h1v1h-1z M47,32h1v1h-1z M48,32h1v1h-1z M49,32h1v1h-1z M50,32h1v1h-1z M51,32h1v1h-1z M52,32h1v1h-1z M53,32h1v1h-1z M54,32h1v1h-1z M55,32h1v1h-1z M56,32h1v1h-1z M57,32h1v1h-1z M58,32h1v1h-1z M59,32h1v1h-1z M64,32h1v1h-1z M65,32h1v1h-1z M67,32h1v1h-1z M68,32h1v1h-1z M69,32h1v1h-1z M70,32h1v1h-1z M71,32h1v1h-1z M72,32h1v1h-1z M74,32h1v1h-1z M75,32h1v1h-1z M76,32h1v1h-1z M77,32h1v1h-1z M78,32h1v1h-1z M79,32h1v1h-1z M80,32h1v1h-1z M81,32h1v1h-1z M82,32h1v1h-1z M83,32h1v1h-1z M86,32h1v1h-1z M87,32h1v1h-1z M88,32h1v1h-1z M90,32h1v1h-1z M92,32h1v1h-1z M93,32h1v1h-1z M95,32h1v1h-1z M96,32h1v1h-1z M98,32h1v1h-1z M100,32h1v1h-1z M101,32h1v1h-1z M102,32h1v1h-1z M103,32h1v1h-1z M104,32h1v1h-1z M105,32h1v1h-1z M106,32h1v1h-1z M108,32h1v1h-1z M5,33h1v1h-1z M7,33h1v1h-1z M9,33h1v1h-1z M12,33h1v1h-1z M13,33h1v1h-1z M15,33h1v1h-1z M19,33h1v1h-1z M21,33h1v1h-1z M23,33h1v1h-1z M27,33h1v1h-1z M30,33h1v1h-1z M31,33h1v1h-1z M34,33h1v1h-1z M36,33h1v1h-1z M38,33h1v1h-1z M40,33h1v1h-1z M41,33h1v1h-1z M49,33h1v1h-1z M50,33h1v1h-1z M53,33h1v1h-1z M55,33h1v1h-1z M58,33h1v1h-1z M59,33h1v1h-1z M61,33h1v1h-1z M63,33h1v1h-1z M64,33h1v1h-1z M65,33h1v1h-1z M68,33h1v1h-1z M70,33h1v1h-1z M72,33h1v1h-1z M73,33h1v1h-1z M75,33h1v1h-1z M77,33h1v1h-1z M79,33h1v1h-1z M81,33h1v1h-1z M82,33h1v1h-1z M85,33h1v1h-1z M86,33h1v1h-1z M88,33h1v1h-1z M90,33h1v1h-1z M91,33h1v1h-1z M92,33h1v1h-1z M94,33h1v1h-1z M96,33h1v1h-1z M101,33h1v1h-1z M102,33h1v1h-1z M103,33h1v1h-1z M104,33h1v1h-1z M105,33h1v1h-1z M107,33h1v1h-1z M108,33h1v1h-1z M4,34h1v1h-1z M8,34h1v1h-1z M10,34h1v1h-1z M13,34h1v1h-1z M16,34h1v1h-1z M17,34h1v1h-1z M20,34h1v1h-1z M22,34h1v1h-1z M28,34h1v1h-1z M32,34h1v1h-1z M34,34h1v1h-1z M38,34h1v1h-1z M39,34h1v1h-1z M40,34h1v1h-1z M41,34h1v1h-1z M42,34h1v1h-1z M46,34h1v1h-1z M50,34h1v1h-1z M53,34h1v1h-1z M54,34h1v1h-1z M55,34h1v1h-1z M57,34h1v1h-1z M58,34h1v1h-1z M59,34h1v1h-1z M62,34h1v1h-1z M66,34h1v1h-1z M70,34h1v1h-1z M74,34h1v1h-1z M75,34h1v1h-1z M77,34h1v1h-1z M78,34h1v1h-1z M79,34h1v1h-1z M82,34h1v1h-1z M83,34h1v1h-1z M84,34h1v1h-1z M86,34h1v1h-1z M87,34h1v1h-1z M88,34h1v1h-1z M90,34h1v1h-1z M91,34h1v1h-1z M94,34h1v1h-1z M96,34h1v1h-1z M98,34h1v1h-1z M100,34h1v1h-1z M102,34h1v1h-1z M104,34h1v1h-1z M106,34h1v1h-1z M107,34h1v1h-1z M108,34h1v1h-1z M4,35h1v1h-1z M6,35h1v1h-1z M7,35h1v1h-1z M13,35h1v1h-1z M19,35h1v1h-1z M30,35h1v1h-1z M31,35h1v1h-1z M32,35h1v1h-1z M33,35h1v1h-1z M34,35h1v1h-1z M36,35h1v1h-1z M38,35h1v1h-1z M39,35h1v1h-1z M40,35h1v1h-1z M43,35h1v1h-1z M45,35h1v1h-1z M46,35h1v1h-1z M47,35h1v1h-1z M48,35h1v1h-1z M50,35h1v1h-1z M54,35h1v1h-1z M55,35h1v1h-1z M56,35h1v1h-1z M57,35h1v1h-1z M60,35h1v1h-1z M62,35h1v1h-1z M63,35h1v1h-1z M64,35h1v1h-1z M65,35h1v1h-1z M66,35h1v1h-1z M67,35h1v1h-1z M71,35h1v1h-1z M72,35h1v1h-1z M73,35h1v1h-1z M75,35h1v1h-1z M76,35h1v1h-1z M78,35h1v1h-1z M79,35h1v1h-1z M81,35h1v1h-1z M84,35h1v1h-1z M87,35h1v1h-1z M88,35h1v1h-1z M91,35h1v1h-1z M93,35h1v1h-1z M96,35h1v1h-1z M97,35h1v1h-1z M98,35h1v1h-1z M101,35h1v1h-1z M102,35h1v1h-1z M103,35h1v1h-1z M105,35h1v1h-1z M106,35h1v1h-1z M107,35h1v1h-1z M4,36h1v1h-1z M6,36h1v1h-1z M7,36h1v1h-1z M8,36h1v1h-1z M10,36h1v1h-1z M11,36h1v1h-1z M12,36h1v1h-1z M13,36h1v1h-1z M15,36h1v1h-1z M16,36h1v1h-1z M17,36h1v1h-1z M18,36h1v1h-1z M21,36h1v1h-1z M22,36h1v1h-1z M25,36h1v1h-1z M26,36h1v1h-1z M28,36h1v1h-1z M31,36h1v1h-1z M32,36h1v1h-1z M35,36h1v1h-1z M37,36h1v1h-1z M39,36h1v1h-1z M41,36h1v1h-1z M43,36h1v1h-1z M44,36h1v1h-1z M45,36h1v1h-1z M46,36h1v1h-1z M47,36h1v1h-1z M49,36h1v1h-1z M50,36h1v1h-1z M52,36h1v1h-1z M54,36h1v1h-1z M55,36h1v1h-1z M56,36h1v1h-1z M57,36h1v1h-1z M59,36h1v1h-1z M60,36h1v1h-1z M61,36h1v1h-1z M63,36h1v1h-1z M64,36h1v1h-1z M66,36h1v1h-1z M67,36h1v1h-1z M68,36h1v1h-1z M70,36h1v1h-1z M72,36h1v1h-1z M74,36h1v1h-1z M78,36h1v1h-1z M80,36h1v1h-1z M82,36h1v1h-1z M83,36h1v1h-1z M84,36h1v1h-1z M85,36h1v1h-1z M86,36h1v1h-1z M88,36h1v1h-1z M90,36h1v1h-1z M91,36h1v1h-1z M92,36h1v1h-1z M93,36h1v1h-1z M94,36h1v1h-1z M97,36h1v1h-1z M104,36h1v1h-1z M106,36h1v1h-1z M107,36h1v1h-1z M108,36h1v1h-1z M4,37h1v1h-1z M9,37h1v1h-1z M11,37h1v1h-1z M12,37h1v1h-1z M16,37h1v1h-1z M19,37h1v1h-1z M20,37h1v1h-1z M22,37h1v1h-1z M28,37h1v1h-1z M29,37h1v1h-1z M30,37h1v1h-1z M31,37h1v1h-1z M34,37h1v1h-1z M42,37h1v1h-1z M43,37h1v1h-1z M44,37h1v1h-1z M46,37h1v1h-1z M50,37h1v1h-1z M51,37h1v1h-1z M52,37h1v1h-1z M55,37h1v1h-1z M56,37h1v1h-1z M57,37h1v1h-1z M59,37h1v1h-1z M60,37h1v1h-1z M62,37h1v1h-1z M63,37h1v1h-1z M64,37h1v1h-1z M66,37h1v1h-1z M67,37h1v1h-1z M69,37h1v1h-1z M70,37h1v1h-1z M71,37h1v1h-1z M76,37h1v1h-1z M77,37h1v1h-1z M78,37h1v1h-1z M79,37h1v1h-1z M81,37h1v1h-1z M82,37h1v1h-1z M83,37h1v1h-1z M84,37h1v1h-1z M88,37h1v1h-1z M89,37h1v1h-1z M91,37h1v1h-1z M94,37h1v1h-1z M98,37h1v1h-1z M100,37h1v1h-1z M104,37h1v1h-1z M106,37h1v1h-1z M107,37h1v1h-1z M4,38h1v1h-1z M7,38h1v1h-1z M10,38h1v1h-1z M11,38h1v1h-1z M15,38h1v1h-1z M16,38h1v1h-1z M20,38h1v1h-1z M22,38h1v1h-1z M24,38h1v1h-1z M25,38h1v1h-1z M27,38h1v1h-1z M30,38h1v1h-1z M34,38h1v1h-1z M35,38h1v1h-1z M36,38h1v1h-1z M39,38h1v1h-1z M41,38h1v1h-1z M42,38h1v1h-1z M43,38h1v1h-1z M44,38h1v1h-1z M46,38h1v1h-1z M48,38h1v1h-1z M51,38h1v1h-1z M52,38h1v1h-1z M54,38h1v1h-1z M58,38h1v1h-1z M59,38h1v1h-1z M63,38h1v1h-1z M65,38h1v1h-1z M66,38h1v1h-1z M68,38h1v1h-1z M70,38h1v1h-1z M72,38h1v1h-1z M75,38h1v1h-1z M79,38h1v1h-1z M82,38h1v1h-1z M83,38h1v1h-1z M89,38h1v1h-1z M90,38h1v1h-1z M94,38h1v1h-1z M95,38h1v1h-1z M96,38h1v1h-1z M99,38h1v1h-1z M102,38h1v1h-1z M104,38h1v1h-1z M105,38h1v1h-1z M106,38h1v1h-1z M107,38h1v1h-1z M108,38h1v1h-1z M5,39h1v1h-1z M6,39h1v1h-1z M7,39h1v1h-1z M11,39h1v1h-1z M12,39h1v1h-1z M14,39h1v1h-1z M15,39h1v1h-1z M16,39h1v1h-1z M19,39h1v1h-1z M22,39h1v1h-1z M23,39h1v1h-1z M25,39h1v1h-1z M28,39h1v1h-1z M29,39h1v1h-1z M32,39h1v1h-1z M33,39h1v1h-1z M34,39h1v1h-1z M35,39h1v1h-1z M38,39h1v1h-1z M39,39h1v1h-1z M40,39h1v1h-1z M41,39h1v1h-1z M42,39h1v1h-1z M43,39h1v1h-1z M44,39h1v1h-1z M47,39h1v1h-1z M51,39h1v1h-1z M53,39h1v1h-1z M56,39h1v1h-1z M62,39h1v1h-1z M64,39h1v1h-1z M67,39h1v1h-1z M68,39h1v1h-1z M71,39h1v1h-1z M73,39h1v1h-1z M77,39h1v1h-1z M81,39h1v1h-1z M82,39h1v1h-1z M86,39h1v1h-1z M87,39h1v1h-1z M88,39h1v1h-1z M89,39h1v1h-1z M90,39h1v1h-1z M91,39h1v1h-1z M92,39h1v1h-1z M95,39h1v1h-1z M97,39h1v1h-1z M98,39h1v1h-1z M99,39h1v1h-1z M100,39h1v1h-1z M102,39h1v1h-1z M103,39h1v1h-1z M104,39h1v1h-1z M106,39h1v1h-1z M108,39h1v1h-1z M5,40h1v1h-1z M6,40h1v1h-1z M7,40h1v1h-1z M9,40h1v1h-1z M10,40h1v1h-1z M17,40h1v1h-1z M19,40h1v1h-1z M21,40h1v1h-1z M22,40h1v1h-1z M24,40h1v1h-1z M25,40h1v1h-1z M27,40h1v1h-1z M28,40h1v1h-1z M30,40h1v1h-1z M32,40h1v1h-1z M34,40h1v1h-1z M37,40h1v1h-1z M38,40h1v1h-1z M39,40h1v1h-1z M42,40h1v1h-1z M43,40h1v1h-1z M47,40h1v1h-1z M50,40h1v1h-1z M51,40h1v1h-1z M52,40h1v1h-1z M56,40h1v1h-1z M59,40h1v1h-1z M61,40h1v1h-1z M63,40h1v1h-1z M64,40h1v1h-1z M65,40h1v1h-1z M67,40h1v1h-1z M70,40h1v1h-1z M72,40h1v1h-1z M73,40h1v1h-1z M75,40h1v1h-1z M77,40h1v1h-1z M79,40h1v1h-1z M80,40h1v1h-1z M85,40h1v1h-1z M91,40h1v1h-1z M92,40h1v1h-1z M93,40h1v1h-1z M94,40h1v1h-1z M95,40h1v1h-1z M96,40h1v1h-1z M98,40h1v1h-1z M100,40h1v1h-1z M102,40h1v1h-1z M103,40h1v1h-1z M107,40h1v1h-1z M108,40h1v1h-1z M6,41h1v1h-1z M8,41h1v1h-1z M13,41h1v1h-1z M15,41h1v1h-1z M17,41h1v1h-1z M18,41h1v1h-1z M19,41h1v1h-1z M22,41h1v1h-1z M23,41h1v1h-1z M25,41h1v1h-1z M26,41h1v1h-1z M27,41h1v1h-1z M30,41h1v1h-1z M31,41h1v1h-1z M32,41h1v1h-1z M34,41h1v1h-1z M35,41h1v1h-1z M37,41h1v1h-1z M43,41h1v1h-1z M48,41h1v1h-1z M50,41h1v1h-1z M52,41h1v1h-1z M55,41h1v1h-1z M56,41h1v1h-1z M59,41h1v1h-1z M60,41h1v1h-1z M63,41h1v1h-1z M64,41h1v1h-1z M69,41h1v1h-1z M71,41h1v1h-1z M75,41h1v1h-1z M76,41h1v1h-1z M78,41h1v1h-1z M80,41h1v1h-1z M81,41h1v1h-1z M84,41h1v1h-1z M86,41h1v1h-1z M87,41h1v1h-1z M90,41h1v1h-1z M91,41h1v1h-1z M92,41h1v1h-1z M95,41h1v1h-1z M96,41h1v1h-1z M99,41h1v1h-1z M100,41h1v1h-1z M101,41h1v1h-1z M103,41h1v1h-1z M106,41h1v1h-1z M6,42h1v1h-1z M9,42h1v1h-1z M10,42h1v1h-1z M11,42h1v1h-1z M13,42h1v1h-1z M15,42h1v1h-1z M16,42h1v1h-1z M17,42h1v1h-1z M18,42h1v1h-1z M19,42h1v1h-1z M20,42h1v1h-1z M22,42h1v1h-1z M23,42h1v1h-1z M25,42h1v1h-1z M26,42h1v1h-1z M28,42h1v1h-1z M30,42h1v1h-1z M31,42h1v1h-1z M32,42h1v1h-1z M33,42h1v1h-1z M34,42h1v1h-1z M35,42h1v1h-1z M38,42h1v1h-1z M39,42h1v1h-1z M40,42h1v1h-1z M41,42h1v1h-1z M45,42h1v1h-1z M46,42h1v1h-1z M50,42h1v1h-1z M51,42h1v1h-1z M53,42h1v1h-1z M55,42h1v1h-1z M56,42h1v1h-1z M57,42h1v1h-1z M58,42h1v1h-1z M59,42h1v1h-1z M60,42h1v1h-1z M61,42h1v1h-1z M62,42h1v1h-1z M63,42h1v1h-1z M65,42h1v1h-1z M67,42h1v1h-1z M69,42h1v1h-1z M70,42h1v1h-1z M71,42h1v1h-1z M72,42h1v1h-1z M74,42h1v1h-1z M81,42h1v1h-1z M82,42h1v1h-1z M84,42h1v1h-1z M86,42h1v1h-1z M87,42h1v1h-1z M88,42h1v1h-1z M91,42h1v1h-1z M92,42h1v1h-1z M93,42h1v1h-1z M94,42h1v1h-1z M95,42h1v1h-1z M96,42h1v1h-1z M98,42h1v1h-1z M101,42h1v1h-1z M103,42h1v1h-1z M106,42h1v1h-1z M4,43h1v1h-1z M5,43h1v1h-1z M8,43h1v1h-1z M9,43h1v1h-1z M11,43h1v1h-1z M12,43h1v1h-1z M13,43h1v1h-1z M14,43h1v1h-1z M27,43h1v1h-1z M29,43h1v1h-1z M30,43h1v1h-1z M35,43h1v1h-1z M36,43h1v1h-1z M38,43h1v1h-1z M39,43h1v1h-1z M40,43h1v1h-1z M41,43h1v1h-1z M43,43h1v1h-1z M44,43h1v1h-1z M45,43h1v1h-1z M47,43h1v1h-1z M48,43h1v1h-1z M51,43h1v1h-1z M52,43h1v1h-1z M53,43h1v1h-1z M54,43h1v1h-1z M55,43h1v1h-1z M56,43h1v1h-1z M57,43h1v1h-1z M59,43h1v1h-1z M60,43h1v1h-1z M61,43h1v1h-1z M63,43h1v1h-1z M64,43h1v1h-1z M67,43h1v1h-1z M68,43h1v1h-1z M69,43h1v1h-1z M70,43h1v1h-1z M71,43h1v1h-1z M72,43h1v1h-1z M73,43h1v1h-1z M75,43h1v1h-1z M77,43h1v1h-1z M78,43h1v1h-1z M79,43h1v1h-1z M81,43h1v1h-1z M83,43h1v1h-1z M84,43h1v1h-1z M86,43h1v1h-1z M87,43h1v1h-1z M88,43h1v1h-1z M90,43h1v1h-1z M91,43h1v1h-1z M92,43h1v1h-1z M95,43h1v1h-1z M96,43h1v1h-1z M98,43h1v1h-1z M100,43h1v1h-1z M101,43h1v1h-1z M104,43h1v1h-1z M105,43h1v1h-1z M106,43h1v1h-1z M108,43h1v1h-1z M6,44h1v1h-1z M7,44h1v1h-1z M8,44h1v1h-1z M9,44h1v1h-1z M10,44h1v1h-1z M12,44h1v1h-1z M13,44h1v1h-1z M14,44h1v1h-1z M15,44h1v1h-1z M16,44h1v1h-1z M17,44h1v1h-1z M18,44h1v1h-1z M20,44h1v1h-1z M21,44h1v1h-1z M25,44h1v1h-1z M29,44h1v1h-1z M30,44h1v1h-1z M31,44h1v1h-1z M33,44h1v1h-1z M35,44h1v1h-1z M39,44h1v1h-1z M40,44h1v1h-1z M41,44h1v1h-1z M42,44h1v1h-1z M43,44h1v1h-1z M47,44h1v1h-1z M51,44h1v1h-1z M52,44h1v1h-1z M53,44h1v1h-1z M54,44h1v1h-1z M64,44h1v1h-1z M65,44h1v1h-1z M66,44h1v1h-1z M67,44h1v1h-1z M68,44h1v1h-1z M69,44h1v1h-1z M71,44h1v1h-1z M75,44h1v1h-1z M76,44h1v1h-1z M78,44h1v1h-1z M85,44h1v1h-1z M87,44h1v1h-1z M92,44h1v1h-1z M93,44h1v1h-1z M94,44h1v1h-1z M96,44h1v1h-1z M97,44h1v1h-1z M101,44h1v1h-1z M102,44h1v1h-1z M103,44h1v1h-1z M107,44h1v1h-1z M108,44h1v1h-1z M5,45h1v1h-1z M7,45h1v1h-1z M8,45h1v1h-1z M11,45h1v1h-1z M14,45h1v1h-1z M15,45h1v1h-1z M16,45h1v1h-1z M17,45h1v1h-1z M18,45h1v1h-1z M22,45h1v1h-1z M23,45h1v1h-1z M25,45h1v1h-1z M28,45h1v1h-1z M29,45h1v1h-1z M34,45h1v1h-1z M35,45h1v1h-1z M36,45h1v1h-1z M40,45h1v1h-1z M41,45h1v1h-1z M43,45h1v1h-1z M44,45h1v1h-1z M46,45h1v1h-1z M48,45h1v1h-1z M49,45h1v1h-1z M55,45h1v1h-1z M56,45h1v1h-1z M58,45h1v1h-1z M59,45h1v1h-1z M61,45h1v1h-1z M62,45h1v1h-1z M63,45h1v1h-1z M64,45h1v1h-1z M70,45h1v1h-1z M71,45h1v1h-1z M74,45h1v1h-1z M77,45h1v1h-1z M79,45h1v1h-1z M80,45h1v1h-1z M81,45h1v1h-1z M82,45h1v1h-1z M86,45h1v1h-1z M87,45h1v1h-1z M88,45h1v1h-1z M91,45h1v1h-1z M95,45h1v1h-1z M97,45h1v1h-1z M99,45h1v1h-1z M100,45h1v1h-1z M101,45h1v1h-1z M102,45h1v1h-1z M103,45h1v1h-1z M104,45h1v1h-1z M108,45h1v1h-1z M4,46h1v1h-1z M5,46h1v1h-1z M8,46h1v1h-1z M9,46h1v1h-1z M10,46h1v1h-1z M11,46h1v1h-1z M12,46h1v1h-1z M14,46h1v1h-1z M16,46h1v1h-1z M17,46h1v1h-1z M20,46h1v1h-1z M21,46h1v1h-1z M23,46h1v1h-1z M24,46h1v1h-1z M25,46h1v1h-1z M27,46h1v1h-1z M28,46h1v1h-1z M29,46h1v1h-1z M30,46h1v1h-1z M31,46h1v1h-1z M32,46h1v1h-1z M33,46h1v1h-1z M34,46h1v1h-1z M38,46h1v1h-1z M42,46h1v1h-1z M46,46h1v1h-1z M48,46h1v1h-1z M50,46h1v1h-1z M52,46h1v1h-1z M54,46h1v1h-1z M55,46h1v1h-1z M58,46h1v1h-1z M60,46h1v1h-1z M62,46h1v1h-1z M63,46h1v1h-1z M64,46h1v1h-1z M66,46h1v1h-1z M67,46h1v1h-1z M68,46h1v1h-1z M70,46h1v1h-1z M73,46h1v1h-1z M74,46h1v1h-1z M77,46h1v1h-1z M82,46h1v1h-1z M83,46h1v1h-1z M86,46h1v1h-1z M87,46h1v1h-1z M90,46h1v1h-1z M92,46h1v1h-1z M93,46h1v1h-1z M94,46h1v1h-1z M95,46h1v1h-1z M98,46h1v1h-1z M101,46h1v1h-1z M103,46h1v1h-1z M105,46h1v1h-1z M106,46h1v1h-1z M108,46h1v1h-1z M5,47h1v1h-1z M6,47h1v1h-1z M9,47h1v1h-1z M11,47h1v1h-1z M15,47h1v1h-1z M16,47h1v1h-1z M18,47h1v1h-1z M20,47h1v1h-1z M22,47h1v1h-1z M27,47h1v1h-1z M30,47h1v1h-1z M31,47h1v1h-1z M33,47h1v1h-1z M35,47h1v1h-1z M36,47h1v1h-1z M38,47h1v1h-1z M40,47h1v1h-1z M41,47h1v1h-1z M42,47h1v1h-1z M43,47h1v1h-1z M46,47h1v1h-1z M48,47h1v1h-1z M50,47h1v1h-1z M51,47h1v1h-1z M54,47h1v1h-1z M55,47h1v1h-1z M60,47h1v1h-1z M62,47h1v1h-1z M63,47h1v1h-1z M64,47h1v1h-1z M66,47h1v1h-1z M67,47h1v1h-1z M70,47h1v1h-1z M71,47h1v1h-1z M72,47h1v1h-1z M73,47h1v1h-1z M74,47h1v1h-1z M78,47h1v1h-1z M79,47h1v1h-1z M80,47h1v1h-1z M81,47h1v1h-1z M84,47h1v1h-1z M85,47h1v1h-1z M87,47h1v1h-1z M88,47h1v1h-1z M89,47h1v1h-1z M90,47h1v1h-1z M91,47h1v1h-1z M93,47h1v1h-1z M96,47h1v1h-1z M97,47h1v1h-1z M98,47h1v1h-1z M100,47h1v1h-1z M101,47h1v1h-1z M105,47h1v1h-1z M106,47h1v1h-1z M107,47h1v1h-1z M4,48h1v1h-1z M5,48h1v1h-1z M7,48h1v1h-1z M10,48h1v1h-1z M12,48h1v1h-1z M13,48h1v1h-1z M14,48h1v1h-1z M15,48h1v1h-1z M18,48h1v1h-1z M19,48h1v1h-1z M25,48h1v1h-1z M26,48h1v1h-1z M28,48h1v1h-1z M32,48h1v1h-1z M36,48h1v1h-1z M38,48h1v1h-1z M40,48h1v1h-1z M41,48h1v1h-1z M42,48h1v1h-1z M43,48h1v1h-1z M44,48h1v1h-1z M45,48h1v1h-1z M46,48h1v1h-1z M49,48h1v1h-1z M50,48h1v1h-1z M52,48h1v1h-1z M56,48h1v1h-1z M59,48h1v1h-1z M61,48h1v1h-1z M62,48h1v1h-1z M63,48h1v1h-1z M65,48h1v1h-1z M66,48h1v1h-1z M68,48h1v1h-1z M72,48h1v1h-1z M73,48h1v1h-1z M78,48h1v1h-1z M80,48h1v1h-1z M81,48h1v1h-1z M82,48h1v1h-1z M84,48h1v1h-1z M85,48h1v1h-1z M86,48h1v1h-1z M88,48h1v1h-1z M90,48h1v1h-1z M93,48h1v1h-1z M94,48h1v1h-1z M95,48h1v1h-1z M98,48h1v1h-1z M99,48h1v1h-1z M100,48h1v1h-1z M103,48h1v1h-1z M104,48h1v1h-1z M105,48h1v1h-1z M106,48h1v1h-1z M107,48h1v1h-1z M4,49h1v1h-1z M5,49h1v1h-1z M6,49h1v1h-1z M8,49h1v1h-1z M9,49h1v1h-1z M11,49h1v1h-1z M16,49h1v1h-1z M17,49h1v1h-1z M18,49h1v1h-1z M20,49h1v1h-1z M21,49h1v1h-1z M22,49h1v1h-1z M25,49h1v1h-1z M26,49h1v1h-1z M27,49h1v1h-1z M28,49h1v1h-1z M29,49h1v1h-1z M30,49h1v1h-1z M32,49h1v1h-1z M33,49h1v1h-1z M34,49h1v1h-1z M35,49h1v1h-1z M36,49h1v1h-1z M37,49h1v1h-1z M39,49h1v1h-1z M42,49h1v1h-1z M44,49h1v1h-1z M45,49h1v1h-1z M46,49h1v1h-1z M49,49h1v1h-1z M51,49h1v1h-1z M52,49h1v1h-1z M53,49h1v1h-1z M54,49h1v1h-1z M55,49h1v1h-1z M57,49h1v1h-1z M58,49h1v1h-1z M59,49h1v1h-1z M60,49h1v1h-1z M61,49h1v1h-1z M62,49h1v1h-1z M63,49h1v1h-1z M65,49h1v1h-1z M66,49h1v1h-1z M67,49h1v1h-1z M71,49h1v1h-1z M72,49h1v1h-1z M73,49h1v1h-1z M75,49h1v1h-1z M76,49h1v1h-1z M81,49h1v1h-1z M82,49h1v1h-1z M86,49h1v1h-1z M87,49h1v1h-1z M88,49h1v1h-1z M89,49h1v1h-1z M91,49h1v1h-1z M92,49h1v1h-1z M97,49h1v1h-1z M98,49h1v1h-1z M101,49h1v1h-1z M103,49h1v1h-1z M104,49h1v1h-1z M105,49h1v1h-1z M106,49h1v1h-1z M4,50h1v1h-1z M8,50h1v1h-1z M10,50h1v1h-1z M12,50h1v1h-1z M13,50h1v1h-1z M16,50h1v1h-1z M17,50h1v1h-1z M20,50h1v1h-1z M21,50h1v1h-1z M23,50h1v1h-1z M24,50h1v1h-1z M25,50h1v1h-1z M27,50h1v1h-1z M30,50h1v1h-1z M32,50h1v1h-1z M34,50h1v1h-1z M35,50h1v1h-1z M36,50h1v1h-1z M39,50h1v1h-1z M41,50h1v1h-1z M42,50h1v1h-1z M43,50h1v1h-1z M44,50h1v1h-1z M45,50h1v1h-1z M46,50h1v1h-1z M48,50h1v1h-1z M51,50h1v1h-1z M52,50h1v1h-1z M53,50h1v1h-1z M58,50h1v1h-1z M59,50h1v1h-1z M61,50h1v1h-1z M65,50h1v1h-1z M66,50h1v1h-1z M67,50h1v1h-1z M68,50h1v1h-1z M70,50h1v1h-1z M76,50h1v1h-1z M77,50h1v1h-1z M78,50h1v1h-1z M79,50h1v1h-1z M82,50h1v1h-1z M83,50h1v1h-1z M84,50h1v1h-1z M89,50h1v1h-1z M90,50h1v1h-1z M91,50h1v1h-1z M92,50h1v1h-1z M94,50h1v1h-1z M95,50h1v1h-1z M96,50h1v1h-1z M99,50h1v1h-1z M103,50h1v1h-1z M106,50h1v1h-1z M107,50h1v1h-1z M108,50h1v1h-1z M4,51h1v1h-1z M6,51h1v1h-1z M7,51h1v1h-1z M8,51h1v1h-1z M14,51h1v1h-1z M18,51h1v1h-1z M20,51h1v1h-1z M21,51h1v1h-1z M22,51h1v1h-1z M23,51h1v1h-1z M25,51h1v1h-1z M26,51h1v1h-1z M27,51h1v1h-1z M29,51h1v1h-1z M31,51h1v1h-1z M34,51h1v1h-1z M35,51h1v1h-1z M40,51h1v1h-1z M41,51h1v1h-1z M44,51h1v1h-1z M47,51h1v1h-1z M50,51h1v1h-1z M56,51h1v1h-1z M59,51h1v1h-1z M61,51h1v1h-1z M64,51h1v1h-1z M68,51h1v1h-1z M70,51h1v1h-1z M71,51h1v1h-1z M77,51h1v1h-1z M80,51h1v1h-1z M83,51h1v1h-1z M87,51h1v1h-1z M88,51h1v1h-1z M90,51h1v1h-1z M91,51h1v1h-1z M92,51h1v1h-1z M94,51h1v1h-1z M95,51h1v1h-1z M97,51h1v1h-1z M98,51h1v1h-1z M99,51h1v1h-1z M100,51h1v1h-1z M101,51h1v1h-1z M102,51h1v1h-1z M103,51h1v1h-1z M104,51h1v1h-1z M105,51h1v1h-1z M106,51h1v1h-1z M4,52h1v1h-1z M8,52h1v1h-1z M9,52h1v1h-1z M10,52h1v1h-1z M11,52h1v1h-1z M12,52h1v1h-1z M13,52h1v1h-1z M14,52h1v1h-1z M15,52h1v1h-1z M17,52h1v1h-1z M18,52h1v1h-1z M19,52h1v1h-1z M20,52h1v1h-1z M21,52h1v1h-1z M22,52h1v1h-1z M27,52h1v1h-1z M28,52h1v1h-1z M29,52h1v1h-1z M30,52h1v1h-1z M31,52h1v1h-1z M32,52h1v1h-1z M33,52h1v1h-1z M35,52h1v1h-1z M36,52h1v1h-1z M37,52h1v1h-1z M41,52h1v1h-1z M42,52h1v1h-1z M43,52h1v1h-1z M45,52h1v1h-1z M47,52h1v1h-1z M48,52h1v1h-1z M50,52h1v1h-1z M51,52h1v1h-1z M52,52h1v1h-1z M53,52h1v1h-1z M54,52h1v1h-1z M55,52h1v1h-1z M56,52h1v1h-1z M57,52h1v1h-1z M62,52h1v1h-1z M65,52h1v1h-1z M66,52h1v1h-1z M70,52h1v1h-1z M73,52h1v1h-1z M75,52h1v1h-1z M76,52h1v1h-1z M77,52h1v1h-1z M78,52h1v1h-1z M79,52h1v1h-1z M80,52h1v1h-1z M81,52h1v1h-1z M83,52h1v1h-1z M84,52h1v1h-1z M85,52h1v1h-1z M86,52h1v1h-1z M87,52h1v1h-1z M88,52h1v1h-1z M90,52h1v1h-1z M91,52h1v1h-1z M92,52h1v1h-1z M94,52h1v1h-1z M95,52h1v1h-1z M98,52h1v1h-1z M100,52h1v1h-1z M101,52h1v1h-1z M102,52h1v1h-1z M103,52h1v1h-1z M104,52h1v1h-1z M108,52h1v1h-1z M4,53h1v1h-1z M6,53h1v1h-1z M8,53h1v1h-1z M12,53h1v1h-1z M13,53h1v1h-1z M15,53h1v1h-1z M16,53h1v1h-1z M18,53h1v1h-1z M20,53h1v1h-1z M22,53h1v1h-1z M24,53h1v1h-1z M26,53h1v1h-1z M27,53h1v1h-1z M28,53h1v1h-1z M32,53h1v1h-1z M33,53h1v1h-1z M35,53h1v1h-1z M39,53h1v1h-1z M40,53h1v1h-1z M43,53h1v1h-1z M45,53h1v1h-1z M46,53h1v1h-1z M47,53h1v1h-1z M49,53h1v1h-1z M50,53h1v1h-1z M51,53h1v1h-1z M52,53h1v1h-1z M56,53h1v1h-1z M57,53h1v1h-1z M58,53h1v1h-1z M59,53h1v1h-1z M60,53h1v1h-1z M64,53h1v1h-1z M65,53h1v1h-1z M67,53h1v1h-1z M72,53h1v1h-1z M73,53h1v1h-1z M75,53h1v1h-1z M76,53h1v1h-1z M80,53h1v1h-1z M81,53h1v1h-1z M83,53h1v1h-1z M84,53h1v1h-1z M86,53h1v1h-1z M89,53h1v1h-1z M90,53h1v1h-1z M91,53h1v1h-1z M92,53h1v1h-1z M94,53h1v1h-1z M96,53h1v1h-1z M98,53h1v1h-1z M99,53h1v1h-1z M100,53h1v1h-1z M104,53h1v1h-1z M105,53h1v1h-1z M107,53h1v1h-1z M4,54h1v1h-1z M5,54h1v1h-1z M8,54h1v1h-1z M10,54h1v1h-1z M12,54h1v1h-1z M13,54h1v1h-1z M14,54h1v1h-1z M15,54h1v1h-1z M17,54h1v1h-1z M19,54h1v1h-1z M22,54h1v1h-1z M23,54h1v1h-1z M24,54h1v1h-1z M26,54h1v1h-1z M28,54h1v1h-1z M30,54h1v1h-1z M32,54h1v1h-1z M34,54h1v1h-1z M38,54h1v1h-1z M39,54h1v1h-1z M41,54h1v1h-1z M45,54h1v1h-1z M46,54h1v1h-1z M48,54h1v1h-1z M50,54h1v1h-1z M51,54h1v1h-1z M52,54h1v1h-1z M54,54h1v1h-1z M56,54h1v1h-1z M57,54h1v1h-1z M58,54h1v1h-1z M60,54h1v1h-1z M62,54h1v1h-1z M65,54h1v1h-1z M69,54h1v1h-1z M70,54h1v1h-1z M72,54h1v1h-1z M74,54h1v1h-1z M75,54h1v1h-1z M76,54h1v1h-1z M78,54h1v1h-1z M80,54h1v1h-1z M81,54h1v1h-1z M82,54h1v1h-1z M83,54h1v1h-1z M84,54h1v1h-1z M86,54h1v1h-1z M88,54h1v1h-1z M89,54h1v1h-1z M92,54h1v1h-1z M93,54h1v1h-1z M94,54h1v1h-1z M96,54h1v1h-1z M98,54h1v1h-1z M99,54h1v1h-1z M100,54h1v1h-1z M102,54h1v1h-1z M104,54h1v1h-1z M105,54h1v1h-1z M106,54h1v1h-1z M4,55h1v1h-1z M5,55h1v1h-1z M6,55h1v1h-1z M8,55h1v1h-1z M12,55h1v1h-1z M15,55h1v1h-1z M17,55h1v1h-1z M18,55h1v1h-1z M22,55h1v1h-1z M23,55h1v1h-1z M25,55h1v1h-1z M26,55h1v1h-1z M27,55h1v1h-1z M28,55h1v1h-1z M32,55h1v1h-1z M35,55h1v1h-1z M36,55h1v1h-1z M37,55h1v1h-1z M38,55h1v1h-1z M40,55h1v1h-1z M41,55h1v1h-1z M44,55h1v1h-1z M47,55h1v1h-1z M48,55h1v1h-1z M49,55h1v1h-1z M52,55h1v1h-1z M56,55h1v1h-1z M57,55h1v1h-1z M59,55h1v1h-1z M60,55h1v1h-1z M64,55h1v1h-1z M65,55h1v1h-1z M67,55h1v1h-1z M68,55h1v1h-1z M70,55h1v1h-1z M71,55h1v1h-1z M72,55h1v1h-1z M73,55h1v1h-1z M74,55h1v1h-1z M75,55h1v1h-1z M76,55h1v1h-1z M80,55h1v1h-1z M82,55h1v1h-1z M84,55h1v1h-1z M87,55h1v1h-1z M88,55h1v1h-1z M89,55h1v1h-1z M91,55h1v1h-1z M92,55h1v1h-1z M93,55h1v1h-1z M94,55h1v1h-1z M95,55h1v1h-1z M96,55h1v1h-1z M97,55h1v1h-1z M99,55h1v1h-1z M100,55h1v1h-1z M104,55h1v1h-1z M105,55h1v1h-1z M106,55h1v1h-1z M107,55h1v1h-1z M4,56h1v1h-1z M7,56h1v1h-1z M8,56h1v1h-1z M9,56h1v1h-1z M10,56h1v1h-1z M11,56h1v1h-1z M12,56h1v1h-1z M13,56h1v1h-1z M14,56h1v1h-1z M16,56h1v1h-1z M17,56h1v1h-1z M19,56h1v1h-1z M20,56h1v1h-1z M23,56h1v1h-1z M27,56h1v1h-1z M28,56h1v1h-1z M29,56h1v1h-1z M30,56h1v1h-1z M31,56h1v1h-1z M32,56h1v1h-1z M34,56h1v1h-1z M35,56h1v1h-1z M38,56h1v1h-1z M39,56h1v1h-1z M41,56h1v1h-1z M42,56h1v1h-1z M45,56h1v1h-1z M46,56h1v1h-1z M47,56h1v1h-1z M49,56h1v1h-1z M50,56h1v1h-1z M51,56h1v1h-1z M52,56h1v1h-1z M53,56h1v1h-1z M54,56h1v1h-1z M55,56h1v1h-1z M56,56h1v1h-1z M57,56h1v1h-1z M58,56h1v1h-1z M61,56h1v1h-1z M62,56h1v1h-1z M65,56h1v1h-1z M66,56h1v1h-1z M67,56h1v1h-1z M70,56h1v1h-1z M71,56h1v1h-1z M72,56h1v1h-1z M73,56h1v1h-1z M74,56h1v1h-1z M76,56h1v1h-1z M77,56h1v1h-1z M78,56h1v1h-1z M79,56h1v1h-1z M80,56h1v1h-1z M82,56h1v1h-1z M83,56h1v1h-1z M84,56h1v1h-1z M86,56h1v1h-1z M89,56h1v1h-1z M90,56h1v1h-1z M92,56h1v1h-1z M93,56h1v1h-1z M95,56h1v1h-1z M96,56h1v1h-1z M98,56h1v1h-1z M100,56h1v1h-1z M101,56h1v1h-1z M102,56h1v1h-1z M103,56h1v1h-1z M104,56h1v1h-1z M105,56h1v1h-1z M107,56h1v1h-1z M108,56h1v1h-1z M5,57h1v1h-1z M7,57h1v1h-1z M11,57h1v1h-1z M12,57h1v1h-1z M14,57h1v1h-1z M19,57h1v1h-1z M22,57h1v1h-1z M23,57h1v1h-1z M24,57h1v1h-1z M25,57h1v1h-1z M27,57h1v1h-1z M30,57h1v1h-1z M31,57h1v1h-1z M32,57h1v1h-1z M41,57h1v1h-1z M42,57h1v1h-1z M48,57h1v1h-1z M49,57h1v1h-1z M50,57h1v1h-1z M51,57h1v1h-1z M52,57h1v1h-1z M53,57h1v1h-1z M54,57h1v1h-1z M55,57h1v1h-1z M56,57h1v1h-1z M58,57h1v1h-1z M61,57h1v1h-1z M62,57h1v1h-1z M64,57h1v1h-1z M65,57h1v1h-1z M66,57h1v1h-1z M69,57h1v1h-1z M75,57h1v1h-1z M77,57h1v1h-1z M79,57h1v1h-1z M80,57h1v1h-1z M81,57h1v1h-1z M82,57h1v1h-1z M83,57h1v1h-1z M86,57h1v1h-1z M88,57h1v1h-1z M92,57h1v1h-1z M94,57h1v1h-1z M97,57h1v1h-1z M99,57h1v1h-1z M100,57h1v1h-1z M101,57h1v1h-1z M104,57h1v1h-1z M105,57h1v1h-1z M106,57h1v1h-1z M108,57h1v1h-1z M8,58h1v1h-1z M9,58h1v1h-1z M10,58h1v1h-1z M12,58h1v1h-1z M14,58h1v1h-1z M15,58h1v1h-1z M22,58h1v1h-1z M24,58h1v1h-1z M25,58h1v1h-1z M26,58h1v1h-1z M28,58h1v1h-1z M29,58h1v1h-1z M32,58h1v1h-1z M34,58h1v1h-1z M35,58h1v1h-1z M36,58h1v1h-1z M38,58h1v1h-1z M39,58h1v1h-1z M42,58h1v1h-1z M43,58h1v1h-1z M46,58h1v1h-1z M47,58h1v1h-1z M50,58h1v1h-1z M52,58h1v1h-1z M53,58h1v1h-1z M58,58h1v1h-1z M59,58h1v1h-1z M62,58h1v1h-1z M63,58h1v1h-1z M66,58h1v1h-1z M67,58h1v1h-1z M70,58h1v1h-1z M74,58h1v1h-1z M76,58h1v1h-1z M77,58h1v1h-1z M80,58h1v1h-1z M81,58h1v1h-1z M82,58h1v1h-1z M86,58h1v1h-1z M88,58h1v1h-1z M90,58h1v1h-1z M91,58h1v1h-1z M94,58h1v1h-1z M95,58h1v1h-1z M96,58h1v1h-1z M98,58h1v1h-1z M99,58h1v1h-1z M100,58h1v1h-1z M104,58h1v1h-1z M105,58h1v1h-1z M106,58h1v1h-1z M108,58h1v1h-1z M5,59h1v1h-1z M6,59h1v1h-1z M8,59h1v1h-1z M9,59h1v1h-1z M11,59h1v1h-1z M12,59h1v1h-1z M13,59h1v1h-1z M16,59h1v1h-1z M17,59h1v1h-1z M18,59h1v1h-1z M19,59h1v1h-1z M20,59h1v1h-1z M23,59h1v1h-1z M28,59h1v1h-1z M32,59h1v1h-1z M33,59h1v1h-1z M36,59h1v1h-1z M37,59h1v1h-1z M38,59h1v1h-1z M39,59h1v1h-1z M40,59h1v1h-1z M42,59h1v1h-1z M43,59h1v1h-1z M45,59h1v1h-1z M48,59h1v1h-1z M50,59h1v1h-1z M51,59h1v1h-1z M55,59h1v1h-1z M57,59h1v1h-1z M60,59h1v1h-1z M61,59h1v1h-1z M62,59h1v1h-1z M63,59h1v1h-1z M64,59h1v1h-1z M69,59h1v1h-1z M70,59h1v1h-1z M72,59h1v1h-1z M75,59h1v1h-1z M76,59h1v1h-1z M80,59h1v1h-1z M84,59h1v1h-1z M87,59h1v1h-1z M88,59h1v1h-1z M89,59h1v1h-1z M90,59h1v1h-1z M91,59h1v1h-1z M96,59h1v1h-1z M97,59h1v1h-1z M100,59h1v1h-1z M102,59h1v1h-1z M103,59h1v1h-1z M104,59h1v1h-1z M106,59h1v1h-1z M107,59h1v1h-1z M4,60h1v1h-1z M5,60h1v1h-1z M6,60h1v1h-1z M8,60h1v1h-1z M9,60h1v1h-1z M10,60h1v1h-1z M14,60h1v1h-1z M15,60h1v1h-1z M16,60h1v1h-1z M18,60h1v1h-1z M20,60h1v1h-1z M22,60h1v1h-1z M27,60h1v1h-1z M29,60h1v1h-1z M34,60h1v1h-1z M35,60h1v1h-1z M36,60h1v1h-1z M37,60h1v1h-1z M38,60h1v1h-1z M41,60h1v1h-1z M43,60h1v1h-1z M44,60h1v1h-1z M46,60h1v1h-1z M47,60h1v1h-1z M48,60h1v1h-1z M49,60h1v1h-1z M50,60h1v1h-1z M51,60h1v1h-1z M52,60h1v1h-1z M56,60h1v1h-1z M57,60h1v1h-1z M58,60h1v1h-1z M59,60h1v1h-1z M60,60h1v1h-1z M61,60h1v1h-1z M64,60h1v1h-1z M67,60h1v1h-1z M68,60h1v1h-1z M70,60h1v1h-1z M71,60h1v1h-1z M72,60h1v1h-1z M73,60h1v1h-1z M74,60h1v1h-1z M75,60h1v1h-1z M76,60h1v1h-1z M86,60h1v1h-1z M87,60h1v1h-1z M89,60h1v1h-1z M96,60h1v1h-1z M97,60h1v1h-1z M98,60h1v1h-1z M103,60h1v1h-1z M104,60h1v1h-1z M105,60h1v1h-1z M108,60h1v1h-1z M4,61h1v1h-1z M5,61h1v1h-1z M6,61h1v1h-1z M7,61h1v1h-1z M11,61h1v1h-1z M12,61h1v1h-1z M13,61h1v1h-1z M15,61h1v1h-1z M16,61h1v1h-1z M17,61h1v1h-1z M18,61h1v1h-1z M21,61h1v1h-1z M22,61h1v1h-1z M23,61h1v1h-1z M24,61h1v1h-1z M27,61h1v1h-1z M28,61h1v1h-1z M29,61h1v1h-1z M31,61h1v1h-1z M32,61h1v1h-1z M33,61h1v1h-1z M35,61h1v1h-1z M37,61h1v1h-1z M39,61h1v1h-1z M40,61h1v1h-1z M45,61h1v1h-1z M51,61h1v1h-1z M52,61h1v1h-1z M55,61h1v1h-1z M56,61h1v1h-1z M57,61h1v1h-1z M59,61h1v1h-1z M60,61h1v1h-1z M62,61h1v1h-1z M66,61h1v1h-1z M69,61h1v1h-1z M70,61h1v1h-1z M72,61h1v1h-1z M73,61h1v1h-1z M74,61h1v1h-1z M78,61h1v1h-1z M80,61h1v1h-1z M81,61h1v1h-1z M86,61h1v1h-1z M88,61h1v1h-1z M93,61h1v1h-1z M95,61h1v1h-1z M96,61h1v1h-1z M97,61h1v1h-1z M98,61h1v1h-1z M99,61h1v1h-1z M100,61h1v1h-1z M102,61h1v1h-1z M103,61h1v1h-1z M108,61h1v1h-1z M4,62h1v1h-1z M5,62h1v1h-1z M8,62h1v1h-1z M10,62h1v1h-1z M16,62h1v1h-1z M20,62h1v1h-1z M21,62h1v1h-1z M22,62h1v1h-1z M23,62h1v1h-1z M25,62h1v1h-1z M26,62h1v1h-1z M28,62h1v1h-1z M30,62h1v1h-1z M32,62h1v1h-1z M34,62h1v1h-1z M36,62h1v1h-1z M39,62h1v1h-1z M41,62h1v1h-1z M42,62h1v1h-1z M44,62h1v1h-1z M45,62h1v1h-1z M46,62h1v1h-1z M47,62h1v1h-1z M48,62h1v1h-1z M49,62h1v1h-1z M52,62h1v1h-1z M54,62h1v1h-1z M55,62h1v1h-1z M56,62h1v1h-1z M57,62h1v1h-1z M58,62h1v1h-1z M60,62h1v1h-1z M65,62h1v1h-1z M66,62h1v1h-1z M67,62h1v1h-1z M68,62h1v1h-1z M69,62h1v1h-1z M70,62h1v1h-1z M71,62h1v1h-1z M76,62h1v1h-1z M77,62h1v1h-1z M79,62h1v1h-1z M82,62h1v1h-1z M84,62h1v1h-1z M90,62h1v1h-1z M91,62h1v1h-1z M92,62h1v1h-1z M94,62h1v1h-1z M95,62h1v1h-1z M99,62h1v1h-1z M100,62h1v1h-1z M101,62h1v1h-1z M105,62h1v1h-1z M106,62h1v1h-1z M107,62h1v1h-1z M108,62h1v1h-1z M6,63h1v1h-1z M8,63h1v1h-1z M9,63h1v1h-1z M14,63h1v1h-1z M16,63h1v1h-1z M17,63h1v1h-1z M18,63h1v1h-1z M19,63h1v1h-1z M20,63h1v1h-1z M22,63h1v1h-1z M24,63h1v1h-1z M26,63h1v1h-1z M27,63h1v1h-1z M28,63h1v1h-1z M29,63h1v1h-1z M31,63h1v1h-1z M33,63h1v1h-1z M34,63h1v1h-1z M35,63h1v1h-1z M39,63h1v1h-1z M40,63h1v1h-1z M42,63h1v1h-1z M44,63h1v1h-1z M47,63h1v1h-1z M49,63h1v1h-1z M52,63h1v1h-1z M53,63h1v1h-1z M56,63h1v1h-1z M59,63h1v1h-1z M61,63h1v1h-1z M62,63h1v1h-1z M64,63h1v1h-1z M66,63h1v1h-1z M67,63h1v1h-1z M68,63h1v1h-1z M71,63h1v1h-1z M73,63h1v1h-1z M74,63h1v1h-1z M76,63h1v1h-1z M77,63h1v1h-1z M80,63h1v1h-1z M82,63h1v1h-1z M83,63h1v1h-1z M87,63h1v1h-1z M88,63h1v1h-1z M90,63h1v1h-1z M91,63h1v1h-1z M92,63h1v1h-1z M95,63h1v1h-1z M97,63h1v1h-1z M99,63h1v1h-1z M101,63h1v1h-1z M103,63h1v1h-1z M104,63h1v1h-1z M106,63h1v1h-1z M4,64h1v1h-1z M7,64h1v1h-1z M9,64h1v1h-1z M10,64h1v1h-1z M11,64h1v1h-1z M13,64h1v1h-1z M15,64h1v1h-1z M16,64h1v1h-1z M17,64h1v1h-1z M18,64h1v1h-1z M19,64h1v1h-1z M20,64h1v1h-1z M23,64h1v1h-1z M24,64h1v1h-1z M25,64h1v1h-1z M28,64h1v1h-1z M29,64h1v1h-1z M30,64h1v1h-1z M33,64h1v1h-1z M35,64h1v1h-1z M38,64h1v1h-1z M39,64h1v1h-1z M42,64h1v1h-1z M43,64h1v1h-1z M45,64h1v1h-1z M47,64h1v1h-1z M50,64h1v1h-1z M54,64h1v1h-1z M57,64h1v1h-1z M59,64h1v1h-1z M61,64h1v1h-1z M64,64h1v1h-1z M65,64h1v1h-1z M66,64h1v1h-1z M68,64h1v1h-1z M70,64h1v1h-1z M72,64h1v1h-1z M73,64h1v1h-1z M74,64h1v1h-1z M75,64h1v1h-1z M76,64h1v1h-1z M78,64h1v1h-1z M81,64h1v1h-1z M82,64h1v1h-1z M84,64h1v1h-1z M85,64h1v1h-1z M86,64h1v1h-1z M87,64h1v1h-1z M88,64h1v1h-1z M90,64h1v1h-1z M91,64h1v1h-1z M92,64h1v1h-1z M93,64h1v1h-1z M94,64h1v1h-1z M95,64h1v1h-1z M98,64h1v1h-1z M102,64h1v1h-1z M104,64h1v1h-1z M105,64h1v1h-1z M107,64h1v1h-1z M4,65h1v1h-1z M6,65h1v1h-1z M7,65h1v1h-1z M8,65h1v1h-1z M11,65h1v1h-1z M12,65h1v1h-1z M14,65h1v1h-1z M15,65h1v1h-1z M17,65h1v1h-1z M22,65h1v1h-1z M25,65h1v1h-1z M33,65h1v1h-1z M34,65h1v1h-1z M36,65h1v1h-1z M38,65h1v1h-1z M39,65h1v1h-1z M40,65h1v1h-1z M41,65h1v1h-1z M46,65h1v1h-1z M48,65h1v1h-1z M51,65h1v1h-1z M52,65h1v1h-1z M53,65h1v1h-1z M55,65h1v1h-1z M60,65h1v1h-1z M61,65h1v1h-1z M66,65h1v1h-1z M68,65h1v1h-1z M70,65h1v1h-1z M72,65h1v1h-1z M74,65h1v1h-1z M75,65h1v1h-1z M78,65h1v1h-1z M79,65h1v1h-1z M84,65h1v1h-1z M87,65h1v1h-1z M88,65h1v1h-1z M89,65h1v1h-1z M90,65h1v1h-1z M93,65h1v1h-1z M94,65h1v1h-1z M98,65h1v1h-1z M99,65h1v1h-1z M100,65h1v1h-1z M102,65h1v1h-1z M103,65h1v1h-1z M104,65h1v1h-1z M105,65h1v1h-1z M107,65h1v1h-1z M108,65h1v1h-1z M7,66h1v1h-1z M8,66h1v1h-1z M9,66h1v1h-1z M10,66h1v1h-1z M11,66h1v1h-1z M12,66h1v1h-1z M13,66h1v1h-1z M14,66h1v1h-1z M15,66h1v1h-1z M17,66h1v1h-1z M18,66h1v1h-1z M20,66h1v1h-1z M21,66h1v1h-1z M22,66h1v1h-1z M25,66h1v1h-1z M27,66h1v1h-1z M28,66h1v1h-1z M33,66h1v1h-1z M34,66h1v1h-1z M36,66h1v1h-1z M37,66h1v1h-1z M38,66h1v1h-1z M39,66h1v1h-1z M43,66h1v1h-1z M45,66h1v1h-1z M46,66h1v1h-1z M48,66h1v1h-1z M50,66h1v1h-1z M51,66h1v1h-1z M52,66h1v1h-1z M53,66h1v1h-1z M55,66h1v1h-1z M56,66h1v1h-1z M57,66h1v1h-1z M58,66h1v1h-1z M59,66h1v1h-1z M62,66h1v1h-1z M64,66h1v1h-1z M67,66h1v1h-1z M68,66h1v1h-1z M70,66h1v1h-1z M72,66h1v1h-1z M73,66h1v1h-1z M74,66h1v1h-1z M75,66h1v1h-1z M76,66h1v1h-1z M77,66h1v1h-1z M78,66h1v1h-1z M79,66h1v1h-1z M80,66h1v1h-1z M81,66h1v1h-1z M82,66h1v1h-1z M83,66h1v1h-1z M86,66h1v1h-1z M87,66h1v1h-1z M89,66h1v1h-1z M94,66h1v1h-1z M98,66h1v1h-1z M99,66h1v1h-1z M102,66h1v1h-1z M103,66h1v1h-1z M104,66h1v1h-1z M5,67h1v1h-1z M6,67h1v1h-1z M7,67h1v1h-1z M8,67h1v1h-1z M9,67h1v1h-1z M11,67h1v1h-1z M14,67h1v1h-1z M15,67h1v1h-1z M19,67h1v1h-1z M21,67h1v1h-1z M22,67h1v1h-1z M23,67h1v1h-1z M24,67h1v1h-1z M26,67h1v1h-1z M29,67h1v1h-1z M30,67h1v1h-1z M31,67h1v1h-1z M32,67h1v1h-1z M34,67h1v1h-1z M35,67h1v1h-1z M36,67h1v1h-1z M40,67h1v1h-1z M42,67h1v1h-1z M44,67h1v1h-1z M45,67h1v1h-1z M47,67h1v1h-1z M48,67h1v1h-1z M49,67h1v1h-1z M50,67h1v1h-1z M51,67h1v1h-1z M54,67h1v1h-1z M55,67h1v1h-1z M56,67h1v1h-1z M59,67h1v1h-1z M60,67h1v1h-1z M61,67h1v1h-1z M63,67h1v1h-1z M64,67h1v1h-1z M65,67h1v1h-1z M67,67h1v1h-1z M68,67h1v1h-1z M72,67h1v1h-1z M73,67h1v1h-1z M75,67h1v1h-1z M76,67h1v1h-1z M77,67h1v1h-1z M78,67h1v1h-1z M79,67h1v1h-1z M80,67h1v1h-1z M81,67h1v1h-1z M83,67h1v1h-1z M84,67h1v1h-1z M87,67h1v1h-1z M88,67h1v1h-1z M89,67h1v1h-1z M92,67h1v1h-1z M93,67h1v1h-1z M95,67h1v1h-1z M96,67h1v1h-1z M97,67h1v1h-1z M99,67h1v1h-1z M101,67h1v1h-1z M105,67h1v1h-1z M106,67h1v1h-1z M4,68h1v1h-1z M5,68h1v1h-1z M9,68h1v1h-1z M10,68h1v1h-1z M11,68h1v1h-1z M14,68h1v1h-1z M15,68h1v1h-1z M18,68h1v1h-1z M20,68h1v1h-1z M28,68h1v1h-1z M29,68h1v1h-1z M30,68h1v1h-1z M32,68h1v1h-1z M34,68h1v1h-1z M36,68h1v1h-1z M37,68h1v1h-1z M40,68h1v1h-1z M42,68h1v1h-1z M43,68h1v1h-1z M46,68h1v1h-1z M47,68h1v1h-1z M48,68h1v1h-1z M49,68h1v1h-1z M51,68h1v1h-1z M52,68h1v1h-1z M54,68h1v1h-1z M56,68h1v1h-1z M58,68h1v1h-1z M59,68h1v1h-1z M60,68h1v1h-1z M61,68h1v1h-1z M62,68h1v1h-1z M63,68h1v1h-1z M64,68h1v1h-1z M66,68h1v1h-1z M69,68h1v1h-1z M70,68h1v1h-1z M73,68h1v1h-1z M75,68h1v1h-1z M76,68h1v1h-1z M77,68h1v1h-1z M78,68h1v1h-1z M79,68h1v1h-1z M82,68h1v1h-1z M84,68h1v1h-1z M87,68h1v1h-1z M89,68h1v1h-1z M90,68h1v1h-1z M91,68h1v1h-1z M94,68h1v1h-1z M99,68h1v1h-1z M101,68h1v1h-1z M105,68h1v1h-1z M108,68h1v1h-1z M4,69h1v1h-1z M5,69h1v1h-1z M7,69h1v1h-1z M9,69h1v1h-1z M12,69h1v1h-1z M15,69h1v1h-1z M18,69h1v1h-1z M19,69h1v1h-1z M21,69h1v1h-1z M22,69h1v1h-1z M27,69h1v1h-1z M30,69h1v1h-1z M31,69h1v1h-1z M32,69h1v1h-1z M33,69h1v1h-1z M34,69h1v1h-1z M40,69h1v1h-1z M43,69h1v1h-1z M44,69h1v1h-1z M45,69h1v1h-1z M46,69h1v1h-1z M47,69h1v1h-1z M51,69h1v1h-1z M53,69h1v1h-1z M54,69h1v1h-1z M56,69h1v1h-1z M57,69h1v1h-1z M58,69h1v1h-1z M59,69h1v1h-1z M60,69h1v1h-1z M64,69h1v1h-1z M65,69h1v1h-1z M70,69h1v1h-1z M74,69h1v1h-1z M76,69h1v1h-1z M79,69h1v1h-1z M80,69h1v1h-1z M83,69h1v1h-1z M87,69h1v1h-1z M89,69h1v1h-1z M93,69h1v1h-1z M94,69h1v1h-1z M98,69h1v1h-1z M100,69h1v1h-1z M103,69h1v1h-1z M106,69h1v1h-1z M108,69h1v1h-1z M9,70h1v1h-1z M10,70h1v1h-1z M11,70h1v1h-1z M16,70h1v1h-1z M17,70h1v1h-1z M19,70h1v1h-1z M22,70h1v1h-1z M25,70h1v1h-1z M28,70h1v1h-1z M30,70h1v1h-1z M34,70h1v1h-1z M35,70h1v1h-1z M36,70h1v1h-1z M37,70h1v1h-1z M38,70h1v1h-1z M39,70h1v1h-1z M41,70h1v1h-1z M42,70h1v1h-1z M43,70h1v1h-1z M46,70h1v1h-1z M48,70h1v1h-1z M50,70h1v1h-1z M52,70h1v1h-1z M54,70h1v1h-1z M57,70h1v1h-1z M58,70h1v1h-1z M60,70h1v1h-1z M62,70h1v1h-1z M63,70h1v1h-1z M66,70h1v1h-1z M67,70h1v1h-1z M70,70h1v1h-1z M71,70h1v1h-1z M72,70h1v1h-1z M73,70h1v1h-1z M74,70h1v1h-1z M76,70h1v1h-1z M78,70h1v1h-1z M80,70h1v1h-1z M82,70h1v1h-1z M83,70h1v1h-1z M84,70h1v1h-1z M86,70h1v1h-1z M88,70h1v1h-1z M90,70h1v1h-1z M91,70h1v1h-1z M94,70h1v1h-1z M98,70h1v1h-1z M99,70h1v1h-1z M100,70h1v1h-1z M105,70h1v1h-1z M106,70h1v1h-1z M4,71h1v1h-1z M5,71h1v1h-1z M6,71h1v1h-1z M7,71h1v1h-1z M12,71h1v1h-1z M14,71h1v1h-1z M16,71h1v1h-1z M18,71h1v1h-1z M21,71h1v1h-1z M23,71h1v1h-1z M24,71h1v1h-1z M25,71h1v1h-1z M27,71h1v1h-1z M31,71h1v1h-1z M33,71h1v1h-1z M34,71h1v1h-1z M36,71h1v1h-1z M37,71h1v1h-1z M38,71h1v1h-1z M40,71h1v1h-1z M43,71h1v1h-1z M45,71h1v1h-1z M46,71h1v1h-1z M48,71h1v1h-1z M54,71h1v1h-1z M55,71h1v1h-1z M57,71h1v1h-1z M60,71h1v1h-1z M63,71h1v1h-1z M64,71h1v1h-1z M67,71h1v1h-1z M69,71h1v1h-1z M72,71h1v1h-1z M74,71h1v1h-1z M78,71h1v1h-1z M82,71h1v1h-1z M84,71h1v1h-1z M87,71h1v1h-1z M88,71h1v1h-1z M89,71h1v1h-1z M91,71h1v1h-1z M93,71h1v1h-1z M94,71h1v1h-1z M96,71h1v1h-1z M97,71h1v1h-1z M98,71h1v1h-1z M100,71h1v1h-1z M101,71h1v1h-1z M102,71h1v1h-1z M103,71h1v1h-1z M104,71h1v1h-1z M105,71h1v1h-1z M106,71h1v1h-1z M4,72h1v1h-1z M5,72h1v1h-1z M6,72h1v1h-1z M8,72h1v1h-1z M9,72h1v1h-1z M10,72h1v1h-1z M11,72h1v1h-1z M13,72h1v1h-1z M15,72h1v1h-1z M16,72h1v1h-1z M18,72h1v1h-1z M21,72h1v1h-1z M25,72h1v1h-1z M27,72h1v1h-1z M32,72h1v1h-1z M34,72h1v1h-1z M36,72h1v1h-1z M37,72h1v1h-1z M39,72h1v1h-1z M43,72h1v1h-1z M44,72h1v1h-1z M45,72h1v1h-1z M46,72h1v1h-1z M51,72h1v1h-1z M52,72h1v1h-1z M53,72h1v1h-1z M55,72h1v1h-1z M58,72h1v1h-1z M60,72h1v1h-1z M61,72h1v1h-1z M62,72h1v1h-1z M63,72h1v1h-1z M67,72h1v1h-1z M69,72h1v1h-1z M70,72h1v1h-1z M74,72h1v1h-1z M75,72h1v1h-1z M79,72h1v1h-1z M86,72h1v1h-1z M91,72h1v1h-1z M92,72h1v1h-1z M94,72h1v1h-1z M96,72h1v1h-1z M98,72h1v1h-1z M99,72h1v1h-1z M100,72h1v1h-1z M102,72h1v1h-1z M104,72h1v1h-1z M106,72h1v1h-1z M107,72h1v1h-1z M5,73h1v1h-1z M12,73h1v1h-1z M16,73h1v1h-1z M17,73h1v1h-1z M18,73h1v1h-1z M23,73h1v1h-1z M24,73h1v1h-1z M27,73h1v1h-1z M28,73h1v1h-1z M30,73h1v1h-1z M31,73h1v1h-1z M32,73h1v1h-1z M33,73h1v1h-1z M34,73h1v1h-1z M35,73h1v1h-1z M37,73h1v1h-1z M40,73h1v1h-1z M41,73h1v1h-1z M43,73h1v1h-1z M44,73h1v1h-1z M46,73h1v1h-1z M47,73h1v1h-1z M48,73h1v1h-1z M50,73h1v1h-1z M51,73h1v1h-1z M52,73h1v1h-1z M55,73h1v1h-1z M56,73h1v1h-1z M57,73h1v1h-1z M58,73h1v1h-1z M59,73h1v1h-1z M60,73h1v1h-1z M63,73h1v1h-1z M64,73h1v1h-1z M65,73h1v1h-1z M66,73h1v1h-1z M67,73h1v1h-1z M68,73h1v1h-1z M71,73h1v1h-1z M74,73h1v1h-1z M76,73h1v1h-1z M77,73h1v1h-1z M79,73h1v1h-1z M80,73h1v1h-1z M83,73h1v1h-1z M84,73h1v1h-1z M86,73h1v1h-1z M88,73h1v1h-1z M89,73h1v1h-1z M92,73h1v1h-1z M93,73h1v1h-1z M94,73h1v1h-1z M96,73h1v1h-1z M97,73h1v1h-1z M98,73h1v1h-1z M99,73h1v1h-1z M100,73h1v1h-1z M101,73h1v1h-1z M102,73h1v1h-1z M106,73h1v1h-1z M6,74h1v1h-1z M7,74h1v1h-1z M8,74h1v1h-1z M10,74h1v1h-1z M12,74h1v1h-1z M13,74h1v1h-1z M15,74h1v1h-1z M20,74h1v1h-1z M21,74h1v1h-1z M23,74h1v1h-1z M24,74h1v1h-1z M25,74h1v1h-1z M26,74h1v1h-1z M28,74h1v1h-1z M30,74h1v1h-1z M31,74h1v1h-1z M32,74h1v1h-1z M33,74h1v1h-1z M34,74h1v1h-1z M36,74h1v1h-1z M39,74h1v1h-1z M41,74h1v1h-1z M42,74h1v1h-1z M44,74h1v1h-1z M46,74h1v1h-1z M52,74h1v1h-1z M53,74h1v1h-1z M54,74h1v1h-1z M58,74h1v1h-1z M64,74h1v1h-1z M65,74h1v1h-1z M66,74h1v1h-1z M67,74h1v1h-1z M68,74h1v1h-1z M70,74h1v1h-1z M72,74h1v1h-1z M76,74h1v1h-1z M78,74h1v1h-1z M80,74h1v1h-1z M81,74h1v1h-1z M82,74h1v1h-1z M84,74h1v1h-1z M85,74h1v1h-1z M87,74h1v1h-1z M89,74h1v1h-1z M90,74h1v1h-1z M91,74h1v1h-1z M94,74h1v1h-1z M95,74h1v1h-1z M96,74h1v1h-1z M97,74h1v1h-1z M99,74h1v1h-1z M102,74h1v1h-1z M105,74h1v1h-1z M106,74h1v1h-1z M107,74h1v1h-1z M108,74h1v1h-1z M6,75h1v1h-1z M7,75h1v1h-1z M8,75h1v1h-1z M9,75h1v1h-1z M14,75h1v1h-1z M15,75h1v1h-1z M16,75h1v1h-1z M17,75h1v1h-1z M19,75h1v1h-1z M20,75h1v1h-1z M26,75h1v1h-1z M29,75h1v1h-1z M32,75h1v1h-1z M33,75h1v1h-1z M35,75h1v1h-1z M37,75h1v1h-1z M40,75h1v1h-1z M42,75h1v1h-1z M43,75h1v1h-1z M44,75h1v1h-1z M46,75h1v1h-1z M47,75h1v1h-1z M52,75h1v1h-1z M53,75h1v1h-1z M56,75h1v1h-1z M59,75h1v1h-1z M64,75h1v1h-1z M65,75h1v1h-1z M66,75h1v1h-1z M67,75h1v1h-1z M68,75h1v1h-1z M69,75h1v1h-1z M71,75h1v1h-1z M73,75h1v1h-1z M76,75h1v1h-1z M77,75h1v1h-1z M78,75h1v1h-1z M79,75h1v1h-1z M80,75h1v1h-1z M83,75h1v1h-1z M85,75h1v1h-1z M88,75h1v1h-1z M91,75h1v1h-1z M92,75h1v1h-1z M95,75h1v1h-1z M97,75h1v1h-1z M100,75h1v1h-1z M105,75h1v1h-1z M106,75h1v1h-1z M5,76h1v1h-1z M6,76h1v1h-1z M8,76h1v1h-1z M9,76h1v1h-1z M10,76h1v1h-1z M11,76h1v1h-1z M12,76h1v1h-1z M15,76h1v1h-1z M16,76h1v1h-1z M17,76h1v1h-1z M19,76h1v1h-1z M22,76h1v1h-1z M24,76h1v1h-1z M25,76h1v1h-1z M28,76h1v1h-1z M29,76h1v1h-1z M30,76h1v1h-1z M31,76h1v1h-1z M32,76h1v1h-1z M34,76h1v1h-1z M35,76h1v1h-1z M36,76h1v1h-1z M37,76h1v1h-1z M38,76h1v1h-1z M39,76h1v1h-1z M42,76h1v1h-1z M43,76h1v1h-1z M46,76h1v1h-1z M47,76h1v1h-1z M48,76h1v1h-1z M52,76h1v1h-1z M53,76h1v1h-1z M54,76h1v1h-1z M55,76h1v1h-1z M56,76h1v1h-1z M57,76h1v1h-1z M58,76h1v1h-1z M59,76h1v1h-1z M61,76h1v1h-1z M64,76h1v1h-1z M67,76h1v1h-1z M70,76h1v1h-1z M72,76h1v1h-1z M73,76h1v1h-1z M74,76h1v1h-1z M75,76h1v1h-1z M76,76h1v1h-1z M77,76h1v1h-1z M78,76h1v1h-1z M79,76h1v1h-1z M80,76h1v1h-1z M82,76h1v1h-1z M83,76h1v1h-1z M85,76h1v1h-1z M92,76h1v1h-1z M93,76h1v1h-1z M96,76h1v1h-1z M97,76h1v1h-1z M100,76h1v1h-1z M101,76h1v1h-1z M102,76h1v1h-1z M103,76h1v1h-1z M104,76h1v1h-1z M107,76h1v1h-1z M5,77h1v1h-1z M6,77h1v1h-1z M7,77h1v1h-1z M8,77h1v1h-1z M12,77h1v1h-1z M13,77h1v1h-1z M14,77h1v1h-1z M15,77h1v1h-1z M16,77h1v1h-1z M17,77h1v1h-1z M19,77h1v1h-1z M21,77h1v1h-1z M22,77h1v1h-1z M23,77h1v1h-1z M24,77h1v1h-1z M25,77h1v1h-1z M28,77h1v1h-1z M32,77h1v1h-1z M36,77h1v1h-1z M37,77h1v1h-1z M39,77h1v1h-1z M40,77h1v1h-1z M41,77h1v1h-1z M42,77h1v1h-1z M45,77h1v1h-1z M46,77h1v1h-1z M47,77h1v1h-1z M49,77h1v1h-1z M50,77h1v1h-1z M52,77h1v1h-1z M56,77h1v1h-1z M60,77h1v1h-1z M63,77h1v1h-1z M67,77h1v1h-1z M68,77h1v1h-1z M71,77h1v1h-1z M72,77h1v1h-1z M73,77h1v1h-1z M76,77h1v1h-1z M80,77h1v1h-1z M82,77h1v1h-1z M83,77h1v1h-1z M84,77h1v1h-1z M85,77h1v1h-1z M87,77h1v1h-1z M89,77h1v1h-1z M92,77h1v1h-1z M95,77h1v1h-1z M97,77h1v1h-1z M98,77h1v1h-1z M100,77h1v1h-1z M104,77h1v1h-1z M5,78h1v1h-1z M6,78h1v1h-1z M7,78h1v1h-1z M8,78h1v1h-1z M10,78h1v1h-1z M12,78h1v1h-1z M13,78h1v1h-1z M14,78h1v1h-1z M15,78h1v1h-1z M16,78h1v1h-1z M17,78h1v1h-1z M19,78h1v1h-1z M21,78h1v1h-1z M23,78h1v1h-1z M27,78h1v1h-1z M28,78h1v1h-1z M30,78h1v1h-1z M32,78h1v1h-1z M33,78h1v1h-1z M34,78h1v1h-1z M35,78h1v1h-1z M38,78h1v1h-1z M39,78h1v1h-1z M40,78h1v1h-1z M46,78h1v1h-1z M47,78h1v1h-1z M48,78h1v1h-1z M50,78h1v1h-1z M51,78h1v1h-1z M52,78h1v1h-1z M54,78h1v1h-1z M56,78h1v1h-1z M58,78h1v1h-1z M59,78h1v1h-1z M60,78h1v1h-1z M62,78h1v1h-1z M63,78h1v1h-1z M67,78h1v1h-1z M68,78h1v1h-1z M69,78h1v1h-1z M70,78h1v1h-1z M72,78h1v1h-1z M74,78h1v1h-1z M75,78h1v1h-1z M76,78h1v1h-1z M78,78h1v1h-1z M80,78h1v1h-1z M82,78h1v1h-1z M84,78h1v1h-1z M86,78h1v1h-1z M88,78h1v1h-1z M91,78h1v1h-1z M94,78h1v1h-1z M96,78h1v1h-1z M98,78h1v1h-1z M99,78h1v1h-1z M100,78h1v1h-1z M102,78h1v1h-1z M104,78h1v1h-1z M105,78h1v1h-1z M106,78h1v1h-1z M5,79h1v1h-1z M8,79h1v1h-1z M12,79h1v1h-1z M13,79h1v1h-1z M16,79h1v1h-1z M18,79h1v1h-1z M25,79h1v1h-1z M27,79h1v1h-1z M28,79h1v1h-1z M32,79h1v1h-1z M34,79h1v1h-1z M35,79h1v1h-1z M36,79h1v1h-1z M37,79h1v1h-1z M39,79h1v1h-1z M40,79h1v1h-1z M43,79h1v1h-1z M44,79h1v1h-1z M45,79h1v1h-1z M47,79h1v1h-1z M48,79h1v1h-1z M49,79h1v1h-1z M51,79h1v1h-1z M52,79h1v1h-1z M56,79h1v1h-1z M59,79h1v1h-1z M60,79h1v1h-1z M62,79h1v1h-1z M63,79h1v1h-1z M64,79h1v1h-1z M66,79h1v1h-1z M67,79h1v1h-1z M68,79h1v1h-1z M72,79h1v1h-1z M75,79h1v1h-1z M76,79h1v1h-1z M80,79h1v1h-1z M81,79h1v1h-1z M84,79h1v1h-1z M86,79h1v1h-1z M87,79h1v1h-1z M88,79h1v1h-1z M90,79h1v1h-1z M91,79h1v1h-1z M92,79h1v1h-1z M93,79h1v1h-1z M96,79h1v1h-1z M97,79h1v1h-1z M98,79h1v1h-1z M100,79h1v1h-1z M104,79h1v1h-1z M105,79h1v1h-1z M106,79h1v1h-1z M108,79h1v1h-1z M6,80h1v1h-1z M7,80h1v1h-1z M8,80h1v1h-1z M9,80h1v1h-1z M10,80h1v1h-1z M11,80h1v1h-1z M12,80h1v1h-1z M13,80h1v1h-1z M14,80h1v1h-1z M16,80h1v1h-1z M21,80h1v1h-1z M22,80h1v1h-1z M23,80h1v1h-1z M25,80h1v1h-1z M26,80h1v1h-1z M28,80h1v1h-1z M29,80h1v1h-1z M30,80h1v1h-1z M31,80h1v1h-1z M32,80h1v1h-1z M33,80h1v1h-1z M37,80h1v1h-1z M38,80h1v1h-1z M40,80h1v1h-1z M41,80h1v1h-1z M42,80h1v1h-1z M43,80h1v1h-1z M45,80h1v1h-1z M47,80h1v1h-1z M50,80h1v1h-1z M51,80h1v1h-1z M52,80h1v1h-1z M53,80h1v1h-1z M54,80h1v1h-1z M55,80h1v1h-1z M56,80h1v1h-1z M57,80h1v1h-1z M58,80h1v1h-1z M59,80h1v1h-1z M61,80h1v1h-1z M65,80h1v1h-1z M66,80h1v1h-1z M67,80h1v1h-1z M68,80h1v1h-1z M71,80h1v1h-1z M72,80h1v1h-1z M75,80h1v1h-1z M76,80h1v1h-1z M77,80h1v1h-1z M78,80h1v1h-1z M79,80h1v1h-1z M80,80h1v1h-1z M82,80h1v1h-1z M94,80h1v1h-1z M95,80h1v1h-1z M99,80h1v1h-1z M100,80h1v1h-1z M101,80h1v1h-1z M102,80h1v1h-1z M103,80h1v1h-1z M104,80h1v1h-1z M106,80h1v1h-1z M107,80h1v1h-1z M4,81h1v1h-1z M6,81h1v1h-1z M9,81h1v1h-1z M13,81h1v1h-1z M21,81h1v1h-1z M23,81h1v1h-1z M24,81h1v1h-1z M26,81h1v1h-1z M27,81h1v1h-1z M28,81h1v1h-1z M29,81h1v1h-1z M31,81h1v1h-1z M33,81h1v1h-1z M34,81h1v1h-1z M36,81h1v1h-1z M41,81h1v1h-1z M43,81h1v1h-1z M44,81h1v1h-1z M45,81h1v1h-1z M47,81h1v1h-1z M49,81h1v1h-1z M50,81h1v1h-1z M51,81h1v1h-1z M55,81h1v1h-1z M56,81h1v1h-1z M57,81h1v1h-1z M61,81h1v1h-1z M62,81h1v1h-1z M63,81h1v1h-1z M64,81h1v1h-1z M66,81h1v1h-1z M67,81h1v1h-1z M68,81h1v1h-1z M69,81h1v1h-1z M71,81h1v1h-1z M73,81h1v1h-1z M75,81h1v1h-1z M76,81h1v1h-1z M77,81h1v1h-1z M79,81h1v1h-1z M85,81h1v1h-1z M87,81h1v1h-1z M88,81h1v1h-1z M90,81h1v1h-1z M91,81h1v1h-1z M92,81h1v1h-1z M95,81h1v1h-1z M97,81h1v1h-1z M98,81h1v1h-1z M99,81h1v1h-1z M101,81h1v1h-1z M103,81h1v1h-1z M104,81h1v1h-1z M106,81h1v1h-1z M108,81h1v1h-1z M4,82h1v1h-1z M5,82h1v1h-1z M7,82h1v1h-1z M10,82h1v1h-1z M14,82h1v1h-1z M15,82h1v1h-1z M17,82h1v1h-1z M18,82h1v1h-1z M21,82h1v1h-1z M25,82h1v1h-1z M30,82h1v1h-1z M31,82h1v1h-1z M32,82h1v1h-1z M34,82h1v1h-1z M38,82h1v1h-1z M39,82h1v1h-1z M42,82h1v1h-1z M46,82h1v1h-1z M48,82h1v1h-1z M49,82h1v1h-1z M50,82h1v1h-1z M52,82h1v1h-1z M56,82h1v1h-1z M57,82h1v1h-1z M58,82h1v1h-1z M59,82h1v1h-1z M62,82h1v1h-1z M63,82h1v1h-1z M65,82h1v1h-1z M66,82h1v1h-1z M67,82h1v1h-1z M68,82h1v1h-1z M70,82h1v1h-1z M73,82h1v1h-1z M74,82h1v1h-1z M75,82h1v1h-1z M79,82h1v1h-1z M80,82h1v1h-1z M81,82h1v1h-1z M82,82h1v1h-1z M83,82h1v1h-1z M86,82h1v1h-1z M87,82h1v1h-1z M88,82h1v1h-1z M90,82h1v1h-1z M91,82h1v1h-1z M94,82h1v1h-1z M98,82h1v1h-1z M99,82h1v1h-1z M100,82h1v1h-1z M101,82h1v1h-1z M102,82h1v1h-1z M105,82h1v1h-1z M108,82h1v1h-1z M5,83h1v1h-1z M7,83h1v1h-1z M8,83h1v1h-1z M12,83h1v1h-1z M14,83h1v1h-1z M15,83h1v1h-1z M16,83h1v1h-1z M17,83h1v1h-1z M23,83h1v1h-1z M24,83h1v1h-1z M29,83h1v1h-1z M34,83h1v1h-1z M36,83h1v1h-1z M37,83h1v1h-1z M39,83h1v1h-1z M40,83h1v1h-1z M46,83h1v1h-1z M48,83h1v1h-1z M50,83h1v1h-1z M52,83h1v1h-1z M54,83h1v1h-1z M57,83h1v1h-1z M60,83h1v1h-1z M62,83h1v1h-1z M64,83h1v1h-1z M67,83h1v1h-1z M69,83h1v1h-1z M71,83h1v1h-1z M72,83h1v1h-1z M73,83h1v1h-1z M74,83h1v1h-1z M75,83h1v1h-1z M76,83h1v1h-1z M77,83h1v1h-1z M79,83h1v1h-1z M80,83h1v1h-1z M81,83h1v1h-1z M84,83h1v1h-1z M87,83h1v1h-1z M88,83h1v1h-1z M89,83h1v1h-1z M91,83h1v1h-1z M95,83h1v1h-1z M96,83h1v1h-1z M105,83h1v1h-1z M106,83h1v1h-1z M107,83h1v1h-1z M6,84h1v1h-1z M10,84h1v1h-1z M11,84h1v1h-1z M12,84h1v1h-1z M14,84h1v1h-1z M15,84h1v1h-1z M18,84h1v1h-1z M19,84h1v1h-1z M20,84h1v1h-1z M22,84h1v1h-1z M23,84h1v1h-1z M24,84h1v1h-1z M27,84h1v1h-1z M28,84h1v1h-1z M29,84h1v1h-1z M31,84h1v1h-1z M32,84h1v1h-1z M35,84h1v1h-1z M36,84h1v1h-1z M38,84h1v1h-1z M39,84h1v1h-1z M44,84h1v1h-1z M45,84h1v1h-1z M46,84h1v1h-1z M48,84h1v1h-1z M49,84h1v1h-1z M51,84h1v1h-1z M53,84h1v1h-1z M56,84h1v1h-1z M58,84h1v1h-1z M59,84h1v1h-1z M60,84h1v1h-1z M62,84h1v1h-1z M66,84h1v1h-1z M67,84h1v1h-1z M70,84h1v1h-1z M71,84h1v1h-1z M72,84h1v1h-1z M77,84h1v1h-1z M78,84h1v1h-1z M79,84h1v1h-1z M80,84h1v1h-1z M82,84h1v1h-1z M86,84h1v1h-1z M87,84h1v1h-1z M90,84h1v1h-1z M91,84h1v1h-1z M93,84h1v1h-1z M94,84h1v1h-1z M95,84h1v1h-1z M98,84h1v1h-1z M100,84h1v1h-1z M104,84h1v1h-1z M4,85h1v1h-1z M7,85h1v1h-1z M8,85h1v1h-1z M13,85h1v1h-1z M18,85h1v1h-1z M20,85h1v1h-1z M21,85h1v1h-1z M22,85h1v1h-1z M23,85h1v1h-1z M24,85h1v1h-1z M25,85h1v1h-1z M29,85h1v1h-1z M30,85h1v1h-1z M32,85h1v1h-1z M34,85h1v1h-1z M36,85h1v1h-1z M37,85h1v1h-1z M38,85h1v1h-1z M39,85h1v1h-1z M40,85h1v1h-1z M41,85h1v1h-1z M43,85h1v1h-1z M44,85h1v1h-1z M45,85h1v1h-1z M47,85h1v1h-1z M48,85h1v1h-1z M49,85h1v1h-1z M50,85h1v1h-1z M53,85h1v1h-1z M54,85h1v1h-1z M55,85h1v1h-1z M57,85h1v1h-1z M60,85h1v1h-1z M61,85h1v1h-1z M62,85h1v1h-1z M65,85h1v1h-1z M66,85h1v1h-1z M69,85h1v1h-1z M76,85h1v1h-1z M77,85h1v1h-1z M78,85h1v1h-1z M82,85h1v1h-1z M84,85h1v1h-1z M85,85h1v1h-1z M87,85h1v1h-1z M88,85h1v1h-1z M90,85h1v1h-1z M92,85h1v1h-1z M94,85h1v1h-1z M97,85h1v1h-1z M100,85h1v1h-1z M103,85h1v1h-1z M104,85h1v1h-1z M105,85h1v1h-1z M106,85h1v1h-1z M107,85h1v1h-1z M4,86h1v1h-1z M6,86h1v1h-1z M7,86h1v1h-1z M10,86h1v1h-1z M14,86h1v1h-1z M16,86h1v1h-1z M17,86h1v1h-1z M18,86h1v1h-1z M20,86h1v1h-1z M24,86h1v1h-1z M25,86h1v1h-1z M26,86h1v1h-1z M27,86h1v1h-1z M28,86h1v1h-1z M29,86h1v1h-1z M30,86h1v1h-1z M33,86h1v1h-1z M34,86h1v1h-1z M35,86h1v1h-1z M42,86h1v1h-1z M43,86h1v1h-1z M46,86h1v1h-1z M48,86h1v1h-1z M51,86h1v1h-1z M52,86h1v1h-1z M53,86h1v1h-1z M55,86h1v1h-1z M58,86h1v1h-1z M64,86h1v1h-1z M65,86h1v1h-1z M66,86h1v1h-1z M68,86h1v1h-1z M69,86h1v1h-1z M70,86h1v1h-1z M72,86h1v1h-1z M75,86h1v1h-1z M76,86h1v1h-1z M77,86h1v1h-1z M82,86h1v1h-1z M83,86h1v1h-1z M84,86h1v1h-1z M89,86h1v1h-1z M90,86h1v1h-1z M91,86h1v1h-1z M94,86h1v1h-1z M95,86h1v1h-1z M96,86h1v1h-1z M97,86h1v1h-1z M99,86h1v1h-1z M101,86h1v1h-1z M102,86h1v1h-1z M104,86h1v1h-1z M105,86h1v1h-1z M106,86h1v1h-1z M108,86h1v1h-1z M4,87h1v1h-1z M5,87h1v1h-1z M6,87h1v1h-1z M7,87h1v1h-1z M8,87h1v1h-1z M12,87h1v1h-1z M13,87h1v1h-1z M14,87h1v1h-1z M15,87h1v1h-1z M16,87h1v1h-1z M17,87h1v1h-1z M19,87h1v1h-1z M22,87h1v1h-1z M24,87h1v1h-1z M25,87h1v1h-1z M27,87h1v1h-1z M28,87h1v1h-1z M30,87h1v1h-1z M35,87h1v1h-1z M38,87h1v1h-1z M39,87h1v1h-1z M40,87h1v1h-1z M41,87h1v1h-1z M42,87h1v1h-1z M43,87h1v1h-1z M44,87h1v1h-1z M46,87h1v1h-1z M47,87h1v1h-1z M51,87h1v1h-1z M54,87h1v1h-1z M56,87h1v1h-1z M57,87h1v1h-1z M58,87h1v1h-1z M59,87h1v1h-1z M62,87h1v1h-1z M64,87h1v1h-1z M65,87h1v1h-1z M68,87h1v1h-1z M71,87h1v1h-1z M73,87h1v1h-1z M76,87h1v1h-1z M77,87h1v1h-1z M79,87h1v1h-1z M80,87h1v1h-1z M81,87h1v1h-1z M83,87h1v1h-1z M88,87h1v1h-1z M89,87h1v1h-1z M91,87h1v1h-1z M92,87h1v1h-1z M93,87h1v1h-1z M95,87h1v1h-1z M102,87h1v1h-1z M104,87h1v1h-1z M106,87h1v1h-1z M107,87h1v1h-1z M5,88h1v1h-1z M6,88h1v1h-1z M7,88h1v1h-1z M10,88h1v1h-1z M14,88h1v1h-1z M15,88h1v1h-1z M17,88h1v1h-1z M18,88h1v1h-1z M20,88h1v1h-1z M21,88h1v1h-1z M22,88h1v1h-1z M23,88h1v1h-1z M24,88h1v1h-1z M30,88h1v1h-1z M31,88h1v1h-1z M36,88h1v1h-1z M38,88h1v1h-1z M40,88h1v1h-1z M41,88h1v1h-1z M43,88h1v1h-1z M47,88h1v1h-1z M49,88h1v1h-1z M50,88h1v1h-1z M51,88h1v1h-1z M54,88h1v1h-1z M56,88h1v1h-1z M58,88h1v1h-1z M59,88h1v1h-1z M63,88h1v1h-1z M66,88h1v1h-1z M68,88h1v1h-1z M70,88h1v1h-1z M71,88h1v1h-1z M72,88h1v1h-1z M74,88h1v1h-1z M75,88h1v1h-1z M78,88h1v1h-1z M80,88h1v1h-1z M82,88h1v1h-1z M85,88h1v1h-1z M86,88h1v1h-1z M87,88h1v1h-1z M89,88h1v1h-1z M91,88h1v1h-1z M93,88h1v1h-1z M94,88h1v1h-1z M95,88h1v1h-1z M96,88h1v1h-1z M98,88h1v1h-1z M99,88h1v1h-1z M100,88h1v1h-1z M101,88h1v1h-1z M105,88h1v1h-1z M108,88h1v1h-1z M6,89h1v1h-1z M11,89h1v1h-1z M12,89h1v1h-1z M13,89h1v1h-1z M14,89h1v1h-1z M16,89h1v1h-1z M19,89h1v1h-1z M24,89h1v1h-1z M26,89h1v1h-1z M28,89h1v1h-1z M30,89h1v1h-1z M31,89h1v1h-1z M32,89h1v1h-1z M33,89h1v1h-1z M35,89h1v1h-1z M36,89h1v1h-1z M37,89h1v1h-1z M40,89h1v1h-1z M42,89h1v1h-1z M45,89h1v1h-1z M48,89h1v1h-1z M49,89h1v1h-1z M50,89h1v1h-1z M54,89h1v1h-1z M55,89h1v1h-1z M56,89h1v1h-1z M57,89h1v1h-1z M62,89h1v1h-1z M65,89h1v1h-1z M67,89h1v1h-1z M69,89h1v1h-1z M70,89h1v1h-1z M78,89h1v1h-1z M80,89h1v1h-1z M82,89h1v1h-1z M83,89h1v1h-1z M84,89h1v1h-1z M86,89h1v1h-1z M88,89h1v1h-1z M89,89h1v1h-1z M90,89h1v1h-1z M91,89h1v1h-1z M96,89h1v1h-1z M99,89h1v1h-1z M101,89h1v1h-1z M102,89h1v1h-1z M103,89h1v1h-1z M105,89h1v1h-1z M106,89h1v1h-1z M7,90h1v1h-1z M10,90h1v1h-1z M11,90h1v1h-1z M15,90h1v1h-1z M18,90h1v1h-1z M22,90h1v1h-1z M24,90h1v1h-1z M25,90h1v1h-1z M26,90h1v1h-1z M27,90h1v1h-1z M28,90h1v1h-1z M30,90h1v1h-1z M31,90h1v1h-1z M32,90h1v1h-1z M33,90h1v1h-1z M34,90h1v1h-1z M36,90h1v1h-1z M38,90h1v1h-1z M41,90h1v1h-1z M45,90h1v1h-1z M46,90h1v1h-1z M47,90h1v1h-1z M48,90h1v1h-1z M50,90h1v1h-1z M52,90h1v1h-1z M53,90h1v1h-1z M54,90h1v1h-1z M55,90h1v1h-1z M56,90h1v1h-1z M58,90h1v1h-1z M60,90h1v1h-1z M62,90h1v1h-1z M63,90h1v1h-1z M69,90h1v1h-1z M70,90h1v1h-1z M71,90h1v1h-1z M74,90h1v1h-1z M77,90h1v1h-1z M78,90h1v1h-1z M80,90h1v1h-1z M82,90h1v1h-1z M83,90h1v1h-1z M84,90h1v1h-1z M86,90h1v1h-1z M87,90h1v1h-1z M92,90h1v1h-1z M93,90h1v1h-1z M94,90h1v1h-1z M98,90h1v1h-1z M100,90h1v1h-1z M106,90h1v1h-1z M107,90h1v1h-1z M4,91h1v1h-1z M5,91h1v1h-1z M6,91h1v1h-1z M7,91h1v1h-1z M8,91h1v1h-1z M9,91h1v1h-1z M12,91h1v1h-1z M17,91h1v1h-1z M18,91h1v1h-1z M20,91h1v1h-1z M22,91h1v1h-1z M23,91h1v1h-1z M24,91h1v1h-1z M31,91h1v1h-1z M34,91h1v1h-1z M36,91h1v1h-1z M37,91h1v1h-1z M38,91h1v1h-1z M39,91h1v1h-1z M40,91h1v1h-1z M43,91h1v1h-1z M44,91h1v1h-1z M48,91h1v1h-1z M51,91h1v1h-1z M52,91h1v1h-1z M56,91h1v1h-1z M57,91h1v1h-1z M60,91h1v1h-1z M61,91h1v1h-1z M62,91h1v1h-1z M64,91h1v1h-1z M65,91h1v1h-1z M66,91h1v1h-1z M67,91h1v1h-1z M68,91h1v1h-1z M71,91h1v1h-1z M72,91h1v1h-1z M73,91h1v1h-1z M74,91h1v1h-1z M76,91h1v1h-1z M77,91h1v1h-1z M78,91h1v1h-1z M79,91h1v1h-1z M81,91h1v1h-1z M83,91h1v1h-1z M84,91h1v1h-1z M88,91h1v1h-1z M89,91h1v1h-1z M91,91h1v1h-1z M92,91h1v1h-1z M95,91h1v1h-1z M96,91h1v1h-1z M98,91h1v1h-1z M101,91h1v1h-1z M103,91h1v1h-1z M105,91h1v1h-1z M106,91h1v1h-1z M107,91h1v1h-1z M4,92h1v1h-1z M6,92h1v1h-1z M7,92h1v1h-1z M8,92h1v1h-1z M9,92h1v1h-1z M10,92h1v1h-1z M11,92h1v1h-1z M13,92h1v1h-1z M15,92h1v1h-1z M17,92h1v1h-1z M20,92h1v1h-1z M22,92h1v1h-1z M23,92h1v1h-1z M25,92h1v1h-1z M26,92h1v1h-1z M29,92h1v1h-1z M30,92h1v1h-1z M31,92h1v1h-1z M33,92h1v1h-1z M34,92h1v1h-1z M35,92h1v1h-1z M41,92h1v1h-1z M42,92h1v1h-1z M43,92h1v1h-1z M45,92h1v1h-1z M46,92h1v1h-1z M47,92h1v1h-1z M48,92h1v1h-1z M54,92h1v1h-1z M56,92h1v1h-1z M57,92h1v1h-1z M61,92h1v1h-1z M63,92h1v1h-1z M66,92h1v1h-1z M70,92h1v1h-1z M71,92h1v1h-1z M72,92h1v1h-1z M73,92h1v1h-1z M79,92h1v1h-1z M80,92h1v1h-1z M81,92h1v1h-1z M83,92h1v1h-1z M87,92h1v1h-1z M91,92h1v1h-1z M92,92h1v1h-1z M99,92h1v1h-1z M100,92h1v1h-1z M102,92h1v1h-1z M104,92h1v1h-1z M107,92h1v1h-1z M108,92h1v1h-1z M6,93h1v1h-1z M7,93h1v1h-1z M12,93h1v1h-1z M13,93h1v1h-1z M14,93h1v1h-1z M16,93h1v1h-1z M17,93h1v1h-1z M20,93h1v1h-1z M21,93h1v1h-1z M22,93h1v1h-1z M23,93h1v1h-1z M25,93h1v1h-1z M26,93h1v1h-1z M27,93h1v1h-1z M29,93h1v1h-1z M34,93h1v1h-1z M35,93h1v1h-1z M38,93h1v1h-1z M39,93h1v1h-1z M41,93h1v1h-1z M43,93h1v1h-1z M44,93h1v1h-1z M45,93h1v1h-1z M47,93h1v1h-1z M49,93h1v1h-1z M50,93h1v1h-1z M51,93h1v1h-1z M53,93h1v1h-1z M55,93h1v1h-1z M58,93h1v1h-1z M59,93h1v1h-1z M61,93h1v1h-1z M62,93h1v1h-1z M64,93h1v1h-1z M65,93h1v1h-1z M66,93h1v1h-1z M67,93h1v1h-1z M68,93h1v1h-1z M69,93h1v1h-1z M72,93h1v1h-1z M73,93h1v1h-1z M74,93h1v1h-1z M75,93h1v1h-1z M76,93h1v1h-1z M77,93h1v1h-1z M79,93h1v1h-1z M80,93h1v1h-1z M83,93h1v1h-1z M88,93h1v1h-1z M93,93h1v1h-1z M94,93h1v1h-1z M98,93h1v1h-1z M99,93h1v1h-1z M103,93h1v1h-1z M104,93h1v1h-1z M106,93h1v1h-1z M108,93h1v1h-1z M4,94h1v1h-1z M6,94h1v1h-1z M10,94h1v1h-1z M11,94h1v1h-1z M13,94h1v1h-1z M14,94h1v1h-1z M16,94h1v1h-1z M19,94h1v1h-1z M21,94h1v1h-1z M22,94h1v1h-1z M23,94h1v1h-1z M24,94h1v1h-1z M26,94h1v1h-1z M29,94h1v1h-1z M32,94h1v1h-1z M33,94h1v1h-1z M34,94h1v1h-1z M35,94h1v1h-1z M36,94h1v1h-1z M37,94h1v1h-1z M38,94h1v1h-1z M42,94h1v1h-1z M46,94h1v1h-1z M47,94h1v1h-1z M50,94h1v1h-1z M51,94h1v1h-1z M52,94h1v1h-1z M53,94h1v1h-1z M55,94h1v1h-1z M56,94h1v1h-1z M58,94h1v1h-1z M62,94h1v1h-1z M66,94h1v1h-1z M68,94h1v1h-1z M70,94h1v1h-1z M74,94h1v1h-1z M77,94h1v1h-1z M80,94h1v1h-1z M81,94h1v1h-1z M82,94h1v1h-1z M83,94h1v1h-1z M85,94h1v1h-1z M86,94h1v1h-1z M87,94h1v1h-1z M90,94h1v1h-1z M91,94h1v1h-1z M92,94h1v1h-1z M94,94h1v1h-1z M97,94h1v1h-1z M98,94h1v1h-1z M99,94h1v1h-1z M101,94h1v1h-1z M102,94h1v1h-1z M103,94h1v1h-1z M104,94h1v1h-1z M105,94h1v1h-1z M108,94h1v1h-1z M4,95h1v1h-1z M5,95h1v1h-1z M8,95h1v1h-1z M9,95h1v1h-1z M12,95h1v1h-1z M13,95h1v1h-1z M18,95h1v1h-1z M19,95h1v1h-1z M20,95h1v1h-1z M21,95h1v1h-1z M26,95h1v1h-1z M28,95h1v1h-1z M29,95h1v1h-1z M32,95h1v1h-1z M33,95h1v1h-1z M36,95h1v1h-1z M37,95h1v1h-1z M38,95h1v1h-1z M40,95h1v1h-1z M45,95h1v1h-1z M48,95h1v1h-1z M52,95h1v1h-1z M53,95h1v1h-1z M54,95h1v1h-1z M55,95h1v1h-1z M59,95h1v1h-1z M60,95h1v1h-1z M62,95h1v1h-1z M64,95h1v1h-1z M65,95h1v1h-1z M67,95h1v1h-1z M69,95h1v1h-1z M70,95h1v1h-1z M71,95h1v1h-1z M72,95h1v1h-1z M77,95h1v1h-1z M78,95h1v1h-1z M80,95h1v1h-1z M81,95h1v1h-1z M84,95h1v1h-1z M85,95h1v1h-1z M86,95h1v1h-1z M87,95h1v1h-1z M88,95h1v1h-1z M89,95h1v1h-1z M91,95h1v1h-1z M94,95h1v1h-1z M96,95h1v1h-1z M97,95h1v1h-1z M98,95h1v1h-1z M99,95h1v1h-1z M100,95h1v1h-1z M103,95h1v1h-1z M105,95h1v1h-1z M106,95h1v1h-1z M108,95h1v1h-1z M4,96h1v1h-1z M5,96h1v1h-1z M6,96h1v1h-1z M8,96h1v1h-1z M10,96h1v1h-1z M11,96h1v1h-1z M14,96h1v1h-1z M16,96h1v1h-1z M17,96h1v1h-1z M18,96h1v1h-1z M19,96h1v1h-1z M20,96h1v1h-1z M22,96h1v1h-1z M23,96h1v1h-1z M24,96h1v1h-1z M26,96h1v1h-1z M29,96h1v1h-1z M30,96h1v1h-1z M31,96h1v1h-1z M32,96h1v1h-1z M33,96h1v1h-1z M34,96h1v1h-1z M36,96h1v1h-1z M43,96h1v1h-1z M45,96h1v1h-1z M46,96h1v1h-1z M48,96h1v1h-1z M49,96h1v1h-1z M50,96h1v1h-1z M53,96h1v1h-1z M54,96h1v1h-1z M55,96h1v1h-1z M56,96h1v1h-1z M58,96h1v1h-1z M59,96h1v1h-1z M62,96h1v1h-1z M64,96h1v1h-1z M65,96h1v1h-1z M66,96h1v1h-1z M69,96h1v1h-1z M70,96h1v1h-1z M71,96h1v1h-1z M72,96h1v1h-1z M73,96h1v1h-1z M79,96h1v1h-1z M80,96h1v1h-1z M81,96h1v1h-1z M82,96h1v1h-1z M84,96h1v1h-1z M85,96h1v1h-1z M86,96h1v1h-1z M88,96h1v1h-1z M90,96h1v1h-1z M94,96h1v1h-1z M96,96h1v1h-1z M97,96h1v1h-1z M98,96h1v1h-1z M101,96h1v1h-1z M103,96h1v1h-1z M104,96h1v1h-1z M105,96h1v1h-1z M108,96h1v1h-1z M4,97h1v1h-1z M6,97h1v1h-1z M9,97h1v1h-1z M11,97h1v1h-1z M12,97h1v1h-1z M13,97h1v1h-1z M15,97h1v1h-1z M19,97h1v1h-1z M23,97h1v1h-1z M24,97h1v1h-1z M29,97h1v1h-1z M30,97h1v1h-1z M32,97h1v1h-1z M35,97h1v1h-1z M36,97h1v1h-1z M37,97h1v1h-1z M38,97h1v1h-1z M40,97h1v1h-1z M41,97h1v1h-1z M43,97h1v1h-1z M44,97h1v1h-1z M46,97h1v1h-1z M48,97h1v1h-1z M49,97h1v1h-1z M50,97h1v1h-1z M53,97h1v1h-1z M54,97h1v1h-1z M56,97h1v1h-1z M59,97h1v1h-1z M60,97h1v1h-1z M62,97h1v1h-1z M64,97h1v1h-1z M66,97h1v1h-1z M68,97h1v1h-1z M69,97h1v1h-1z M71,97h1v1h-1z M72,97h1v1h-1z M74,97h1v1h-1z M77,97h1v1h-1z M78,97h1v1h-1z M79,97h1v1h-1z M80,97h1v1h-1z M81,97h1v1h-1z M84,97h1v1h-1z M88,97h1v1h-1z M89,97h1v1h-1z M91,97h1v1h-1z M92,97h1v1h-1z M95,97h1v1h-1z M100,97h1v1h-1z M103,97h1v1h-1z M104,97h1v1h-1z M106,97h1v1h-1z M107,97h1v1h-1z M108,97h1v1h-1z M4,98h1v1h-1z M5,98h1v1h-1z M6,98h1v1h-1z M10,98h1v1h-1z M12,98h1v1h-1z M14,98h1v1h-1z M15,98h1v1h-1z M18,98h1v1h-1z M19,98h1v1h-1z M20,98h1v1h-1z M21,98h1v1h-1z M25,98h1v1h-1z M26,98h1v1h-1z M28,98h1v1h-1z M29,98h1v1h-1z M30,98h1v1h-1z M34,98h1v1h-1z M37,98h1v1h-1z M40,98h1v1h-1z M41,98h1v1h-1z M42,98h1v1h-1z M44,98h1v1h-1z M46,98h1v1h-1z M47,98h1v1h-1z M48,98h1v1h-1z M49,98h1v1h-1z M52,98h1v1h-1z M53,98h1v1h-1z M58,98h1v1h-1z M59,98h1v1h-1z M65,98h1v1h-1z M66,98h1v1h-1z M67,98h1v1h-1z M68,98h1v1h-1z M70,98h1v1h-1z M71,98h1v1h-1z M72,98h1v1h-1z M77,98h1v1h-1z M81,98h1v1h-1z M82,98h1v1h-1z M83,98h1v1h-1z M84,98h1v1h-1z M88,98h1v1h-1z M89,98h1v1h-1z M90,98h1v1h-1z M92,98h1v1h-1z M94,98h1v1h-1z M97,98h1v1h-1z M100,98h1v1h-1z M101,98h1v1h-1z M102,98h1v1h-1z M106,98h1v1h-1z M107,98h1v1h-1z M108,98h1v1h-1z M6,99h1v1h-1z M8,99h1v1h-1z M9,99h1v1h-1z M11,99h1v1h-1z M13,99h1v1h-1z M15,99h1v1h-1z M17,99h1v1h-1z M19,99h1v1h-1z M21,99h1v1h-1z M24,99h1v1h-1z M26,99h1v1h-1z M29,99h1v1h-1z M32,99h1v1h-1z M33,99h1v1h-1z M35,99h1v1h-1z M37,99h1v1h-1z M40,99h1v1h-1z M41,99h1v1h-1z M44,99h1v1h-1z M46,99h1v1h-1z M47,99h1v1h-1z M49,99h1v1h-1z M52,99h1v1h-1z M54,99h1v1h-1z M55,99h1v1h-1z M63,99h1v1h-1z M64,99h1v1h-1z M66,99h1v1h-1z M67,99h1v1h-1z M68,99h1v1h-1z M70,99h1v1h-1z M71,99h1v1h-1z M74,99h1v1h-1z M75,99h1v1h-1z M77,99h1v1h-1z M78,99h1v1h-1z M79,99h1v1h-1z M83,99h1v1h-1z M85,99h1v1h-1z M88,99h1v1h-1z M89,99h1v1h-1z M90,99h1v1h-1z M91,99h1v1h-1z M92,99h1v1h-1z M93,99h1v1h-1z M95,99h1v1h-1z M97,99h1v1h-1z M99,99h1v1h-1z M102,99h1v1h-1z M104,99h1v1h-1z M106,99h1v1h-1z M108,99h1v1h-1z M7,100h1v1h-1z M8,100h1v1h-1z M10,100h1v1h-1z M11,100h1v1h-1z M13,100h1v1h-1z M14,100h1v1h-1z M16,100h1v1h-1z M17,100h1v1h-1z M18,100h1v1h-1z M19,100h1v1h-1z M20,100h1v1h-1z M24,100h1v1h-1z M27,100h1v1h-1z M28,100h1v1h-1z M29,100h1v1h-1z M30,100h1v1h-1z M31,100h1v1h-1z M32,100h1v1h-1z M33,100h1v1h-1z M35,100h1v1h-1z M36,100h1v1h-1z M39,100h1v1h-1z M40,100h1v1h-1z M41,100h1v1h-1z M45,100h1v1h-1z M46,100h1v1h-1z M49,100h1v1h-1z M52,100h1v1h-1z M53,100h1v1h-1z M54,100h1v1h-1z M55,100h1v1h-1z M56,100h1v1h-1z M57,100h1v1h-1z M58,100h1v1h-1z M59,100h1v1h-1z M62,100h1v1h-1z M65,100h1v1h-1z M66,100h1v1h-1z M71,100h1v1h-1z M72,100h1v1h-1z M74,100h1v1h-1z M76,100h1v1h-1z M77,100h1v1h-1z M78,100h1v1h-1z M79,100h1v1h-1z M80,100h1v1h-1z M82,100h1v1h-1z M85,100h1v1h-1z M86,100h1v1h-1z M90,100h1v1h-1z M91,100h1v1h-1z M93,100h1v1h-1z M95,100h1v1h-1z M96,100h1v1h-1z M97,100h1v1h-1z M99,100h1v1h-1z M100,100h1v1h-1z M101,100h1v1h-1z M102,100h1v1h-1z M103,100h1v1h-1z M104,100h1v1h-1z M106,100h1v1h-1z M108,100h1v1h-1z M12,101h1v1h-1z M14,101h1v1h-1z M17,101h1v1h-1z M18,101h1v1h-1z M19,101h1v1h-1z M22,101h1v1h-1z M23,101h1v1h-1z M24,101h1v1h-1z M27,101h1v1h-1z M28,101h1v1h-1z M32,101h1v1h-1z M34,101h1v1h-1z M36,101h1v1h-1z M37,101h1v1h-1z M38,101h1v1h-1z M39,101h1v1h-1z M40,101h1v1h-1z M42,101h1v1h-1z M47,101h1v1h-1z M51,101h1v1h-1z M52,101h1v1h-1z M56,101h1v1h-1z M59,101h1v1h-1z M61,101h1v1h-1z M64,101h1v1h-1z M69,101h1v1h-1z M72,101h1v1h-1z M73,101h1v1h-1z M75,101h1v1h-1z M76,101h1v1h-1z M80,101h1v1h-1z M82,101h1v1h-1z M84,101h1v1h-1z M86,101h1v1h-1z M88,101h1v1h-1z M92,101h1v1h-1z M93,101h1v1h-1z M94,101h1v1h-1z M96,101h1v1h-1z M99,101h1v1h-1z M100,101h1v1h-1z M104,101h1v1h-1z M105,101h1v1h-1z M106,101h1v1h-1z M4,102h1v1h-1z M5,102h1v1h-1z M6,102h1v1h-1z M7,102h1v1h-1z M8,102h1v1h-1z M9,102h1v1h-1z M10,102h1v1h-1z M14,102h1v1h-1z M16,102h1v1h-1z M17,102h1v1h-1z M18,102h1v1h-1z M20,102h1v1h-1z M21,102h1v1h-1z M23,102h1v1h-1z M28,102h1v1h-1z M30,102h1v1h-1z M32,102h1v1h-1z M33,102h1v1h-1z M34,102h1v1h-1z M36,102h1v1h-1z M38,102h1v1h-1z M40,102h1v1h-1z M43,102h1v1h-1z M45,102h1v1h-1z M46,102h1v1h-1z M50,102h1v1h-1z M52,102h1v1h-1z M54,102h1v1h-1z M56,102h1v1h-1z M57,102h1v1h-1z M58,102h1v1h-1z M59,102h1v1h-1z M60,102h1v1h-1z M61,102h1v1h-1z M62,102h1v1h-1z M63,102h1v1h-1z M64,102h1v1h-1z M68,102h1v1h-1z M69,102h1v1h-1z M70,102h1v1h-1z M72,102h1v1h-1z M74,102h1v1h-1z M76,102h1v1h-1z M78,102h1v1h-1z M80,102h1v1h-1z M81,102h1v1h-1z M82,102h1v1h-1z M84,102h1v1h-1z M86,102h1v1h-1z M91,102h1v1h-1z M92,102h1v1h-1z M93,102h1v1h-1z M94,102h1v1h-1z M95,102h1v1h-1z M96,102h1v1h-1z M97,102h1v1h-1z M98,102h1v1h-1z M100,102h1v1h-1z M102,102h1v1h-1z M104,102h1v1h-1z M105,102h1v1h-1z M107,102h1v1h-1z M4,103h1v1h-1z M10,103h1v1h-1z M13,103h1v1h-1z M14,103h1v1h-1z M15,103h1v1h-1z M16,103h1v1h-1z M22,103h1v1h-1z M23,103h1v1h-1z M27,103h1v1h-1z M28,103h1v1h-1z M32,103h1v1h-1z M33,103h1v1h-1z M34,103h1v1h-1z M36,103h1v1h-1z M37,103h1v1h-1z M39,103h1v1h-1z M40,103h1v1h-1z M43,103h1v1h-1z M44,103h1v1h-1z M47,103h1v1h-1z M48,103h1v1h-1z M50,103h1v1h-1z M51,103h1v1h-1z M52,103h1v1h-1z M56,103h1v1h-1z M59,103h1v1h-1z M60,103h1v1h-1z M61,103h1v1h-1z M63,103h1v1h-1z M64,103h1v1h-1z M66,103h1v1h-1z M67,103h1v1h-1z M68,103h1v1h-1z M71,103h1v1h-1z M72,103h1v1h-1z M74,103h1v1h-1z M76,103h1v1h-1z M80,103h1v1h-1z M83,103h1v1h-1z M84,103h1v1h-1z M86,103h1v1h-1z M87,103h1v1h-1z M88,103h1v1h-1z M89,103h1v1h-1z M91,103h1v1h-1z M92,103h1v1h-1z M95,103h1v1h-1z M96,103h1v1h-1z M97,103h1v1h-1z M100,103h1v1h-1z M104,103h1v1h-1z M106,103h1v1h-1z M107,103h1v1h-1z M108,103h1v1h-1z M4,104h1v1h-1z M6,104h1v1h-1z M7,104h1v1h-1z M8,104h1v1h-1z M10,104h1v1h-1z M12,104h1v1h-1z M16,104h1v1h-1z M18,104h1v1h-1z M20,104h1v1h-1z M22,104h1v1h-1z M23,104h1v1h-1z M24,104h1v1h-1z M26,104h1v1h-1z M28,104h1v1h-1z M29,104h1v1h-1z M30,104h1v1h-1z M31,104h1v1h-1z M32,104h1v1h-1z M34,104h1v1h-1z M35,104h1v1h-1z M39,104h1v1h-1z M41,104h1v1h-1z M42,104h1v1h-1z M45,104h1v1h-1z M46,104h1v1h-1z M47,104h1v1h-1z M51,104h1v1h-1z M52,104h1v1h-1z M53,104h1v1h-1z M54,104h1v1h-1z M55,104h1v1h-1z M56,104h1v1h-1z M57,104h1v1h-1z M58,104h1v1h-1z M59,104h1v1h-1z M60,104h1v1h-1z M61,104h1v1h-1z M63,104h1v1h-1z M64,104h1v1h-1z M66,104h1v1h-1z M67,104h1v1h-1z M69,104h1v1h-1z M74,104h1v1h-1z M76,104h1v1h-1z M77,104h1v1h-1z M78,104h1v1h-1z M79,104h1v1h-1z M80,104h1v1h-1z M81,104h1v1h-1z M85,104h1v1h-1z M86,104h1v1h-1z M87,104h1v1h-1z M89,104h1v1h-1z M91,104h1v1h-1z M93,104h1v1h-1z M96,104h1v1h-1z M97,104h1v1h-1z M100,104h1v1h-1z M101,104h1v1h-1z M102,104h1v1h-1z M103,104h1v1h-1z M104,104h1v1h-1z M105,104h1v1h-1z M4,105h1v1h-1z M6,105h1v1h-1z M7,105h1v1h-1z M8,105h1v1h-1z M10,105h1v1h-1z M12,105h1v1h-1z M13,105h1v1h-1z M17,105h1v1h-1z M21,105h1v1h-1z M26,105h1v1h-1z M27,105h1v1h-1z M28,105h1v1h-1z M29,105h1v1h-1z M31,105h1v1h-1z M33,105h1v1h-1z M34,105h1v1h-1z M35,105h1v1h-1z M37,105h1v1h-1z M38,105h1v1h-1z M42,105h1v1h-1z M43,105h1v1h-1z M44,105h1v1h-1z M45,105h1v1h-1z M47,105h1v1h-1z M50,105h1v1h-1z M51,105h1v1h-1z M52,105h1v1h-1z M57,105h1v1h-1z M58,105h1v1h-1z M59,105h1v1h-1z M60,105h1v1h-1z M61,105h1v1h-1z M62,105h1v1h-1z M64,105h1v1h-1z M67,105h1v1h-1z M69,105h1v1h-1z M72,105h1v1h-1z M73,105h1v1h-1z M75,105h1v1h-1z M76,105h1v1h-1z M79,105h1v1h-1z M80,105h1v1h-1z M81,105h1v1h-1z M83,105h1v1h-1z M85,105h1v1h-1z M91,105h1v1h-1z M92,105h1v1h-1z M93,105h1v1h-1z M95,105h1v1h-1z M97,105h1v1h-1z M98,105h1v1h-1z M99,105h1v1h-1z M103,105h1v1h-1z M105,105h1v1h-1z M4,106h1v1h-1z M6,106h1v1h-1z M7,106h1v1h-1z M8,106h1v1h-1z M10,106h1v1h-1z M13,106h1v1h-1z M19,106h1v1h-1z M20,106h1v1h-1z M24,106h1v1h-1z M27,106h1v1h-1z M28,106h1v1h-1z M30,106h1v1h-1z M31,106h1v1h-1z M32,106h1v1h-1z M33,106h1v1h-1z M34,106h1v1h-1z M35,106h1v1h-1z M37,106h1v1h-1z M38,106h1v1h-1z M39,106h1v1h-1z M40,106h1v1h-1z M42,106h1v1h-1z M43,106h1v1h-1z M46,106h1v1h-1z M50,106h1v1h-1z M54,106h1v1h-1z M58,106h1v1h-1z M60,106h1v1h-1z M62,106h1v1h-1z M64,106h1v1h-1z M66,106h1v1h-1z M67,106h1v1h-1z M68,106h1v1h-1z M70,106h1v1h-1z M71,106h1v1h-1z M72,106h1v1h-1z M74,106h1v1h-1z M75,106h1v1h-1z M76,106h1v1h-1z M78,106h1v1h-1z M82,106h1v1h-1z M85,106h1v1h-1z M86,106h1v1h-1z M90,106h1v1h-1z M92,106h1v1h-1z M94,106h1v1h-1z M98,106h1v1h-1z M100,106h1v1h-1z M102,106h1v1h-1z M104,106h1v1h-1z M106,106h1v1h-1z M107,106h1v1h-1z M108,106h1v1h-1z M4,107h1v1h-1z M10,107h1v1h-1z M12,107h1v1h-1z M13,107h1v1h-1z M15,107h1v1h-1z M16,107h1v1h-1z M17,107h1v1h-1z M18,107h1v1h-1z M19,107h1v1h-1z M21,107h1v1h-1z M22,107h1v1h-1z M24,107h1v1h-1z M27,107h1v1h-1z M28,107h1v1h-1z M29,107h1v1h-1z M30,107h1v1h-1z M31,107h1v1h-1z M33,107h1v1h-1z M36,107h1v1h-1z M37,107h1v1h-1z M38,107h1v1h-1z M39,107h1v1h-1z M40,107h1v1h-1z M41,107h1v1h-1z M43,107h1v1h-1z M48,107h1v1h-1z M52,107h1v1h-1z M53,107h1v1h-1z M54,107h1v1h-1z M55,107h1v1h-1z M57,107h1v1h-1z M60,107h1v1h-1z M61,107h1v1h-1z M63,107h1v1h-1z M64,107h1v1h-1z M65,107h1v1h-1z M67,107h1v1h-1z M70,107h1v1h-1z M72,107h1v1h-1z M75,107h1v1h-1z M76,107h1v1h-1z M77,107h1v1h-1z M78,107h1v1h-1z M81,107h1v1h-1z M83,107h1v1h-1z M84,107h1v1h-1z M85,107h1v1h-1z M86,107h1v1h-1z M88,107h1v1h-1z M89,107h1v1h-1z M90,107h1v1h-1z M91,107h1v1h-1z M93,107h1v1h-1z M95,107h1v1h-1z M96,107h1v1h-1z M97,107h1v1h-1z M98,107h1v1h-1z M99,107h1v1h-1z M102,107h1v1h-1z M105,107h1v1h-1z M106,107h1v1h-1z M107,107h1v1h-1z M108,107h1v1h-1z M4,108h1v1h-1z M5,108h1v1h-1z M6,108h1v1h-1z M7,108h1v1h-1z M8,108h1v1h-1z M9,108h1v1h-1z M10,108h1v1h-1z M12,108h1v1h-1z M13,108h1v1h-1z M16,108h1v1h-1z M17,108h1v1h-1z M20,108h1v1h-1z M21,108h1v1h-1z M27,108h1v1h-1z M28,108h1v1h-1z M35,108h1v1h-1z M36,108h1v1h-1z M38,108h1v1h-1z M39,108h1v1h-1z M41,108h1v1h-1z M44,108h1v1h-1z M45,108h1v1h-1z M46,108h1v1h-1z M47,108h1v1h-1z M48,108h1v1h-1z M49,108h1v1h-1z M50,108h1v1h-1z M52,108h1v1h-1z M53,108h1v1h-1z M54,108h1v1h-1z M55,108h1v1h-1z M56,108h1v1h-1z M59,108h1v1h-1z M60,108h1v1h-1z M61,108h1v1h-1z M62,108h1v1h-1z M63,108h1v1h-1z M64,108h1v1h-1z M65,108h1v1h-1z M66,108h1v1h-1z M67,108h1v1h-1z M70,108h1v1h-1z M72,108h1v1h-1z M73,108h1v1h-1z M74,108h1v1h-1z M75,108h1v1h-1z M77,108h1v1h-1z M79,108h1v1h-1z M81,108h1v1h-1z M82,108h1v1h-1z M83,108h1v1h-1z M86,108h1v1h-1z M89,108h1v1h-1z M91,108h1v1h-1z M92,108h1v1h-1z M93,108h1v1h-1z M94,108h1v1h-1z M95,108h1v1h-1z M96,108h1v1h-1z M97,108h1v1h-1z M98,108h1v1h-1z M99,108h1v1h-1z M100,108h1v1h-1z M102,108h1v1h-1z M103,108h1v1h-1z M104,108h1v1h-1z M105,108h1v1h-1z M106,108h1v1h-1z" fill="#000000"/>
</svg>
