<?xml version="1.0" encoding="UTF-8"?>
<!DOCTYPE svg PUBLIC "-//W3C//DTD SVG 1.1//EN" "http://www.w3.org/Graphics/SVG/1.1/DTD/svg11.dtd">
<svg xmlns="http://www.w3.org/2000/svg" version="1.1" viewBox="0 0 113 113" stroke="none">
	<rect width="100%" height="100%" fill="#FFFFFF"/>
	<path d="M4,4h1v1h-1z M5,4h1v1h-1z M6,4h1v1h-1z M7,4h1v1h-1z M8,4h1v1h-1z M9,4h1v1h-1z M10,4h1v1h-1z M12,4h1v1h-1z M14,4h1v1h-1z M16,4h1v1h-1z M18,4h1v1h-1z M22,4h1v1h-1z M25,4h1v1h-1z M29,4h1v1h-1z M31,4h1v1h-1z M32,4h1v1h-1z M33,4h1v1h-1z M35,4h1v1h-1z M36,4h1v1h-1z M38,4h1v1h-1z M41,4h1v1h-1z M44,4h1v1h-1z M45,4h1v1h-1z M46,4h1v1h-1z M48,4h1v1h-1z M51,4h1v1h-1z M52,4h1v1h-1z M53,4h1v1h-1z M59,4h1v1h-1z M60,4h1v1h-1z M61,4h1v1h-1z M62,4h1v1h-1z M63,4h1v1h-1z M64,4h1v1h-1z M65,4h1v1h-1z M66,4h1v1h-1z M70,4h1v1h-1z M71,4h1v1h-1z M73,4h1v1h-1z M74,4h1v1h-1z M78,4h1v1h-1z M79,4h1v1h-1z M83,4h1v1h-1z M84,4h1v1h-1z M85,4h1v1h-1z M86,4h1v1h-1z M88,4h1v1h-1z M92,4h1v1h-1z M93,4h1v1h-1z M96,4h1v1h-1z M98,4h1v1h-1z M102,4h1v1h-1z M103,4h1v1h-1z M104,4h1v1h-1z M105,4h1v1h-1z M106,4h1v1h-1z M107,4h1v1h-1z M108,4h1v1h-1z M4,5h1v1h-1z M10,5h1v1h-1z M12,5h1v1h-1z M13,5h1v1h-1z M15,5h1v1h-1z M16,5h1v1h-1z M18,5h1v1h-1z M21,5h1v1h-1z M22,5h1v1h-1z M23,5h1v1h-1z M24,5h1v1h-1z M27,5h1v1h-1z M30,5h1v1h-1z M31,5h1v1h-1z M32,5h1v1h-1z M33,5h1v1h-1z M34,5h1v1h-1z M37,5h1v1h-1z M42,5h1v1h-1z M43,5h1v1h-1z M44,5h1v1h-1z M45,5h1v1h-1z M46,5h1v1h-1z M47,5h1v1h-1z M48,5h1v1h-1z M52,5h1v1h-1z M53,5h1v1h-1z M54,5h1v1h-1z M55,5h1v1h-1z M56,5h1v1h-1z M57,5h1v1h-1z M58,5h1v1h-1z M61,5h1v1h-1z M65,5h1v1h-1z M66,5h1v1h-1z M68,5h1v1h-1z M69,5h1v1h-1z M70,5h1v1h-1z M71,5h1v1h-1z M72,5h1v1h-1z M73,5h1v1h-1z M76,5h1v1h-1z M78,5h1v1h-1z M80,5h1v1h-1z M81,5h1v1h-1z M82,5h1v1h-1z M83,5h1v1h-1z M87,5h1v1h-1z M90,5h1v1h-1z M91,5h1v1h-1z M92,5h1v1h-1z M93,5h1v1h-1z M94,5h1v1h-1z M95,5h1v1h-1z M97,5h1v1h-1z M98,5h1v1h-1z M102,5h1v1h-1z M108,5h1v1h-1z M4,6h1v1h-1z M6,6h1v1h-1z M7,6h1v1h-1z M8,6h1v1h-1z M10,6h1v1h-1z M12,6h1v1h-1z M13,6h1v1h-1z M14,6h1v1h-1z M15,6h1v1h-1z M18,6h1v1h-1z M20,6h1v1h-1z M24,6h1v1h-1z M25,6h1v1h-1z M26,6h1v1h-1z M27,6h1v1h-1z M30,6h1v1h-1z M32,6h1v1h-1z M33,6h1v1h-1z M34,6h1v1h-1z M37,6h1v1h-1z M38,6h1v1h-1z M41,6h1v1h-1z M42,6h1v1h-1z M44,6h1v1h-1z M45,6h1v1h-1z M47,6h1v1h-1z M53,6h1v1h-1z M54,6h1v1h-1z M56,6h1v1h-1z M58,6h1v1h-1z M59,6h1v1h-1z M62,6h1v1h-1z M63,6h1v1h-1z M65,6h1v1h-1z M66,6h1v1h-1z M68,6h1v1h-1z M70,6h1v1h-1z M71,6h1v1h-1z M74,6h1v1h-1z M77,6h1v1h-1z M78,6h1v1h-1z M80,6h1v1h-1z M83,6h1v1h-1z M89,6h1v1h-1z M90,6h1v1h-1z M92,6h1v1h-1z M93,6h1v1h-1z M95,6h1v1h-1z M98,6h1v1h-1z M99,6h1v1h-1z M102,6h1v1h-1z M104,6h1v1h-1z M105,6h1v1h-1z M106,6h1v1h-1z M108,6h1v1h-1z M4,7h1v1h-1z M6,7h1v1h-1z M7,7h1v1h-1z M8,7h1v1h-1z M10,7h1v1h-1z M12,7h1v1h-1z M16,7h1v1h-1z M17,7h1v1h-1z M19,7h1v1h-1z M20,7h1v1h-1z M21,7h1v1h-1z M22,7h1v1h-1z M23,7h1v1h-1z M27,7h1v1h-1z M28,7h1v1h-1z M29,7h1v1h-1z M33,7h1v1h-1z M34,7h1v1h-1z M36,7h1v1h-1z M39,7h1v1h-1z M40,7h1v1h-1z M41,7h1v1h-1z M43,7h1v1h-1z M44,7h1v1h-1z M45,7h1v1h-1z M46,7h1v1h-1z M49,7h1v1h-1z M50,7h1v1h-1z M51,7h1v1h-1z M52,7h1v1h-1z M54,7h1v1h-1z M55,7h1v1h-1z M57,7h1v1h-1z M58,7h1v1h-1z M61,7h1v1h-1z M62,7h1v1h-1z M63,7h1v1h-1z M67,7h1v1h-1z M69,7h1v1h-1z M70,7h1v1h-1z M71,7h1v1h-1z M72,7h1v1h-1z M73,7h1v1h-1z M80,7h1v1h-1z M82,7h1v1h-1z M83,7h1v1h-1z M85,7h1v1h-1z M87,7h1v1h-1z M88,7h1v1h-1z M91,7h1v1h-1z M92,7h1v1h-1z M94,7h1v1h-1z M97,7h1v1h-1z M100,7h1v1h-1z M102,7h1v1h-1z M104,7h1v1h-1z M105,7h1v1h-1z M106,7h1v1h-1z M108,7h1v1h-1z M4,8h1v1h-1z M6,8h1v1h-1z M7,8h1v1h-1z M8,8h1v1h-1z M10,8h1v1h-1z M13,8h1v1h-1z M14,8h1v1h-1z M19,8h1v1h-1z M20,8h1v1h-1z M25,8h1v1h-1z M26,8h1v1h-1z M27,8h1v1h-1z M28,8h1v1h-1z M29,8h1v1h-1z M30,8h1v1h-1z M31,8h1v1h-1z M32,8h1v1h-1z M34,8h1v1h-1z M35,8h1v1h-1z M36,8h1v1h-1z M37,8h1v1h-1z M38,8h1v1h-1z M39,8h1v1h-1z M42,8h1v1h-1z M43,8h1v1h-1z M45,8h1v1h-1z M46,8h1v1h-1z M47,8h1v1h-1z M50,8h1v1h-1z M51,8h1v1h-1z M52,8h1v1h-1z M53,8h1v1h-1z M54,8h1v1h-1z M55,8h1v1h-1z M56,8h1v1h-1z M57,8h1v1h-1z M58,8h1v1h-1z M59,8h1v1h-1z M60,8h1v1h-1z M61,8h1v1h-1z M64,8h1v1h-1z M65,8h1v1h-1z M67,8h1v1h-1z M69,8h1v1h-1z M71,8h1v1h-1z M72,8h1v1h-1z M73,8h1v1h-1z M74,8h1v1h-1z M76,8h1v1h-1z M77,8h1v1h-1z M78,8h1v1h-1z M79,8h1v1h-1z M80,8h1v1h-1z M84,8h1v1h-1z M86,8h1v1h-1z M87,8h1v1h-1z M88,8h1v1h-1z M89,8h1v1h-1z M91,8h1v1h-1z M93,8h1v1h-1z M94,8h1v1h-1z M95,8h1v1h-1z M99,8h1v1h-1z M100,8h1v1h-1z M102,8h1v1h-1z M104,8h1v1h-1z M105,8h1v1h-1z M106,8h1v1h-1z M108,8h1v1h-1z M4,9h1v1h-1z M10,9h1v1h-1z M12,9h1v1h-1z M13,9h1v1h-1z M14,9h1v1h-1z M15,9h1v1h-1z M16,9h1v1h-1z M17,9h1v1h-1z M18,9h1v1h-1z M19,9h1v1h-1z M20,9h1v1h-1z M21,9h1v1h-1z M24,9h1v1h-1z M25,9h1v1h-1z M28,9h1v1h-1z M32,9h1v1h-1z M33,9h1v1h-1z M34,9h1v1h-1z M35,9h1v1h-1z M40,9h1v1h-1z M42,9h1v1h-1z M43,9h1v1h-1z M45,9h1v1h-1z M46,9h1v1h-1z M49,9h1v1h-1z M52,9h1v1h-1z M56,9h1v1h-1z M57,9h1v1h-1z M58,9h1v1h-1z M63,9h1v1h-1z M64,9h1v1h-1z M66,9h1v1h-1z M67,9h1v1h-1z M68,9h1v1h-1z M69,9h1v1h-1z M70,9h1v1h-1z M72,9h1v1h-1z M73,9h1v1h-1z M75,9h1v1h-1z M76,9h1v1h-1z M80,9h1v1h-1z M81,9h1v1h-1z M82,9h1v1h-1z M85,9h1v1h-1z M89,9h1v1h-1z M90,9h1v1h-1z M93,9h1v1h-1z M94,9h1v1h-1z M95,9h1v1h-1z M96,9h1v1h-1z M97,9h1v1h-1z M99,9h1v1h-1z M102,9h1v1h-1z M108,9h1v1h-1z M4,10h1v1h-1z M5,10h1v1h-1z M6,10h1v1h-1z M7,10h1v1h-1z M8,10h1v1h-1z M9,10h1v1h-1z M10,10h1v1h-1z M12,10h1v1h-1z M14,10h1v1h-1z M16,10h1v1h-1z M18,10h1v1h-1z M20,10h1v1h-1z M22,10h1v1h-1z M24,10h1v1h-1z M26,10h1v1h-1z M28,10h1v1h-1z M30,10h1v1h-1z M32,10h1v1h-1z M34,10h1v1h-1z M36,10h1v1h-1z M38,10h1v1h-1z M40,10h1v1h-1z M42,10h1v1h-1z M44,10h1v1h-1z M46,10h1v1h-1z M48,10h1v1h-1z M50,10h1v1h-1z M52,10h1v1h-1z M54,10h1v1h-1z M56,10h1v1h-1z M58,10h1v1h-1z M60,10h1v1h-1z M62,10h1v1h-1z M64,10h1v1h-1z M66,10h1v1h-1z M68,10h1v1h-1z M70,10h1v1h-1z M72,10h1v1h-1z M74,10h1v1h-1z M76,10h1v1h-1z M78,10h1v1h-1z M80,10h1v1h-1z M82,10h1v1h-1z M84,10h1v1h-1z M86,10h1v1h-1z M88,10h1v1h-1z M90,10h1v1h-1z M92,10h1v1h-1z M94,10h1v1h-1z M96,10h1v1h-1z M98,10h1v1h-1z M100,10h1v1h-1z M102,10h1v1h-1z M103,10h1v1h-1z M104,10h1v1h-1z M105,10h1v1h-1z M106,10h1v1h-1z M107,10h1v1h-1z M108,10h1v1h-1z M14,11h1v1h-1z M17,11h1v1h-1z M20,11h1v1h-1z M21,11h1v1h-1z M24,11h1v1h-1z M28,11h1v1h-1z M32,11h1v1h-1z M33,11h1v1h-1z M35,11h1v1h-1z M44,11h1v1h-1z M46,11h1v1h-1z M49,11h1v1h-1z M50,11h1v1h-1z M51,11h1v1h-1z M52,11h1v1h-1z M56,11h1v1h-1z M57,11h1v1h-1z M58,11h1v1h-1z M66,11h1v1h-1z M68,11h1v1h-1z M70,11h1v1h-1z M71,11h1v1h-1z M75,11h1v1h-1z M76,11h1v1h-1z M80,11h1v1h-1z M86,11h1v1h-1z M89,11h1v1h-1z M90,11h1v1h-1z M92,11h1v1h-1z M93,11h1v1h-1z M95,11h1v1h-1z M99,11h1v1h-1z M100,11h1v1h-1z M4,12h1v1h-1z M5,12h1v1h-1z M8,12h1v1h-1z M9,12h1v1h-1z M10,12h1v1h-1z M13,12h1v1h-1z M14,12h1v1h-1z M15,12h1v1h-1z M18,12h1v1h-1z M21,12h1v1h-1z M22,12h1v1h-1z M23,12h1v1h-1z M26,12h1v1h-1z M28,12h1v1h-1z M29,12h1v1h-1z M30,12h1v1h-1z M31,12h1v1h-1z M32,12h1v1h-1z M33,12h1v1h-1z M34,12h1v1h-1z M39,12h1v1h-1z M42,12h1v1h-1z M43,12h1v1h-1z M46,12h1v1h-1z M47,12h1v1h-1z M48,12h1v1h-1z M52,12h1v1h-1z M53,12h1v1h-1z M54,12h1v1h-1z M55,12h1v1h-1z M56,12h1v1h-1z M57,12h1v1h-1z M62,12h1v1h-1z M63,12h1v1h-1z M64,12h1v1h-1z M66,12h1v1h-1z M67,12h1v1h-1z M71,12h1v1h-1z M75,12h1v1h-1z M76,12h1v1h-1z M77,12h1v1h-1z M78,12h1v1h-1z M79,12h1v1h-1z M80,12h1v1h-1z M82,12h1v1h-1z M87,12h1v1h-1z M90,12h1v1h-1z M94,12h1v1h-1z M96,12h1v1h-1z M97,12h1v1h-1z M100,12h1v1h-1z M103,12h1v1h-1z M105,12h1v1h-1z M106,12h1v1h-1z M107,12h1v1h-1z M108,12h1v1h-1z M5,13h1v1h-1z M7,13h1v1h-1z M13,13h1v1h-1z M14,13h1v1h-1z M15,13h1v1h-1z M16,13h1v1h-1z M17,13h1v1h-1z M20,13h1v1h-1z M21,13h1v1h-1z M25,13h1v1h-1z M26,13h1v1h-1z M27,13h1v1h-1z M28,13h1v1h-1z M29,13h1v1h-1z M30,13h1v1h-1z M31,13h1v1h-1z M32,13h1v1h-1z M33,13h1v1h-1z M34,13h1v1h-1z M35,13h1v1h-1z M38,13h1v1h-1z M41,13h1v1h-1z M42,13h1v1h-1z M43,13h1v1h-1z M46,13h1v1h-1z M49,13h1v1h-1z M51,13h1v1h-1z M52,13h1v1h-1z M53,13h1v1h-1z M54,13h1v1h-1z M55,13h1v1h-1z M56,13h1v1h-1z M59,13h1v1h-1z M69,13h1v1h-1z M70,13h1v1h-1z M73,13h1v1h-1z M74,13h1v1h-1z M75,13h1v1h-1z M76,13h1v1h-1z M78,13h1v1h-1z M81,13h1v1h-1z M83,13h1v1h-1z M84,13h1v1h-1z M85,13h1v1h-1z M86,13h1v1h-1z M88,13h1v1h-1z M89,13h1v1h-1z M90,13h1v1h-1z M96,13h1v1h-1z M97,13h1v1h-1z M99,13h1v1h-1z M100,13h1v1h-1z M101,13h1v1h-1z M102,13h1v1h-1z M104,13h1v1h-1z M106,13h1v1h-1z M5,14h1v1h-1z M6,14h1v1h-1z M7,14h1v1h-1z M9,14h1v1h-1z M10,14h1v1h-1z M11,14h1v1h-1z M13,14h1v1h-1z M18,14h1v1h-1z M20,14h1v1h-1z M21,14h1v1h-1z M22,14h1v1h-1z M24,14h1v1h-1z M26,14h1v1h-1z M27,14h1v1h-1z M29,14h1v1h-1z M35,14h1v1h-1z M36,14h1v1h-1z M38,14h1v1h-1z M39,14h1v1h-1z M40,14h1v1h-1z M41,14h1v1h-1z M43,14h1v1h-1z M44,14h1v1h-1z M47,14h1v1h-1z M50,14h1v1h-1z M53,14h1v1h-1z M59,14h1v1h-1z M62,14h1v1h-1z M64,14h1v1h-1z M67,14h1v1h-1z M69,14h1v1h-1z M72,14h1v1h-1z M74,14h1v1h-1z M75,14h1v1h-1z M80,14h1v1h-1z M86,14h1v1h-1z M88,14h1v1h-1z M89,14h1v1h-1z M91,14h1v1h-1z M92,14h1v1h-1z M95,14h1v1h-1z M98,14h1v1h-1z M101,14h1v1h-1z M104,14h1v1h-1z M105,14h1v1h-1z M106,14h1v1h-1z M5,15h1v1h-1z M7,15h1v1h-1z M9,15h1v1h-1z M13,15h1v1h-1z M14,15h1v1h-1z M17,15h1v1h-1z M18,15h1v1h-1z M20,15h1v1h-1z M21,15h1v1h-1z M22,15h1v1h-1z M24,15h1v1h-1z M25,15h1v1h-1z M26,15h1v1h-1z M27,15h1v1h-1z M28,15h1v1h-1z M30,15h1v1h-1z M32,15h1v1h-1z M33,15h1v1h-1z M34,15h1v1h-1z M35,15h1v1h-1z M41,15h1v1h-1z M42,15h1v1h-1z M44,15h1v1h-1z M46,15h1v1h-1z M47,15h1v1h-1z M49,15h1v1h-1z M50,15h1v1h-1z M56,15h1v1h-1z M58,15h1v1h-1z M59,15h1v1h-1z M62,15h1v1h-1z M65,15h1v1h-1z M66,15h1v1h-1z M68,15h1v1h-1z M70,15h1v1h-1z M71,15h1v1h-1z M77,15h1v1h-1z M78,15h1v1h-1z M80,15h1v1h-1z M83,15h1v1h-1z M85,15h1v1h-1z M86,15h1v1h-1z M92,15h1v1h-1z M94,15h1v1h-1z M95,15h1v1h-1z M97,15h1v1h-1z M99,15h1v1h-1z M101,15h1v1h-1z M105,15h1v1h-1z M107,15h1v1h-1z M108,15h1v1h-1z M5,16h1v1h-1z M8,16h1v1h-1z M10,16h1v1h-1z M11,16h1v1h-1z M15,16h1v1h-1z M21,16h1v1h-1z M23,16h1v1h-1z M26,16h1v1h-1z M27,16h1v1h-1z M32,16h1v1h-1z M33,16h1v1h-1z M34,16h1v1h-1z M36,16h1v1h-1z M38,16h1v1h-1z M40,16h1v1h-1z M42,16h1v1h-1z M43,16h1v1h-1z M48,16h1v1h-1z M49,16h1v1h-1z M51,16h1v1h-1z M53,16h1v1h-1z M57,16h1v1h-1z M59,16h1v1h-1z M66,16h1v1h-1z M67,16h1v1h-1z M68,16h1v1h-1z M69,16h1v1h-1z M70,16h1v1h-1z M71,16h1v1h-1z M72,16h1v1h-1z M75,16h1v1h-1z M77,16h1v1h-1z M78,16h1v1h-1z M79,16h1v1h-1z M81,16h1v1h-1z M86,16h1v1h-1z M88,16h1v1h-1z M90,16h1v1h-1z M91,16h1v1h-1z M93,16h1v1h-1z M96,16h1v1h-1z M97,16h1v1h-1z M98,16h1v1h-1z M99,16h1v1h-1z M100,16h1v1h-1z M101,16h1v1h-1z M104,16h1v1h-1z M105,16h1v1h-1z M108,16h1v1h-1z M5,17h1v1h-1z M6,17h1v1h-1z M7,17h1v1h-1z M12,17h1v1h-1z M13,17h1v1h-1z M14,17h1v1h-1z M15,17h1v1h-1z M16,17h1v1h-1z M17,17h1v1h-1z M18,17h1v1h-1z M20,17h1v1h-1z M22,17h1v1h-1z M26,17h1v1h-1z M27,17h1v1h-1z M28,17h1v1h-1z M29,17h1v1h-1z M30,17h1v1h-1z M33,17h1v1h-1z M34,17h1v1h-1z M35,17h1v1h-1z M36,17h1v1h-1z M37,17h1v1h-1z M39,17h1v1h-1z M40,17h1v1h-1z M43,17h1v1h-1z M46,17h1v1h-1z M52,17h1v1h-1z M53,17h1v1h-1z M54,17h1v1h-1z M60,17h1v1h-1z M62,17h1v1h-1z M64,17h1v1h-1z M65,17h1v1h-1z M69,17h1v1h-1z M72,17h1v1h-1z M76,17h1v1h-1z M77,17h1v1h-1z M80,17h1v1h-1z M82,17h1v1h-1z M84,17h1v1h-1z M85,17h1v1h-1z M86,17h1v1h-1z M93,17h1v1h-1z M95,17h1v1h-1z M97,17h1v1h-1z M98,17h1v1h-1z M99,17h1v1h-1z M100,17h1v1h-1z M102,17h1v1h-1z M104,17h1v1h-1z M105,17h1v1h-1z M106,17h1v1h-1z M4,18h1v1h-1z M5,18h1v1h-1z M6,18h1v1h-1z M7,18h1v1h-1z M9,18h1v1h-1z M10,18h1v1h-1z M11,18h1v1h-1z M12,18h1v1h-1z M14,18h1v1h-1z M15,18h1v1h-1z M17,18h1v1h-1z M19,18h1v1h-1z M21,18h1v1h-1z M22,18h1v1h-1z M23,18h1v1h-1z M24,18h1v1h-1z M26,18h1v1h-1z M29,18h1v1h-1z M31,18h1v1h-1z M32,18h1v1h-1z M35,18h1v1h-1z M36,18h1v1h-1z M38,18h1v1h-1z M40,18h1v1h-1z M41,18h1v1h-1z M48,18h1v1h-1z M49,18h1v1h-1z M50,18h1v1h-1z M51,18h1v1h-1z M53,18h1v1h-1z M55,18h1v1h-1z M56,18h1v1h-1z M60,18h1v1h-1z M62,18h1v1h-1z M64,18h1v1h-1z M65,18h1v1h-1z M71,18h1v1h-1z M72,18h1v1h-1z M73,18h1v1h-1z M74,18h1v1h-1z M76,18h1v1h-1z M77,18h1v1h-1z M79,18h1v1h-1z M80,18h1v1h-1z M83,18h1v1h-1z M84,18h1v1h-1z M86,18h1v1h-1z M88,18h1v1h-1z M89,18h1v1h-1z M92,18h1v1h-1z M93,18h1v1h-1z M97,18h1v1h-1z M98,18h1v1h-1z M104,18h1v1h-1z M107,18h1v1h-1z M4,19h1v1h-1z M6,19h1v1h-1z M11,19h1v1h-1z M12,19h1v1h-1z M14,19h1v1h-1z M18,19h1v1h-1z M20,19h1v1h-1z M23,19h1v1h-1z M24,19h1v1h-1z M25,19h1v1h-1z M27,19h1v1h-1z M28,19h1v1h-1z M29,19h1v1h-1z M32,19h1v1h-1z M35,19h1v1h-1z M37,19h1v1h-1z M38,19h1v1h-1z M41,19h1v1h-1z M42,19h1v1h-1z M43,19h1v1h-1z M44,19h1v1h-1z M45,19h1v1h-1z M47,19h1v1h-1z M53,19h1v1h-1z M56,19h1v1h-1z M58,19h1v1h-1z M59,19h1v1h-1z M61,19h1v1h-1z M62,19h1v1h-1z M65,19h1v1h-1z M66,19h1v1h-1z M67,19h1v1h-1z M68,19h1v1h-1z M69,19h1v1h-1z M70,19h1v1h-1z M73,19h1v1h-1z M75,19h1v1h-1z M76,19h1v1h-1z M80,19h1v1h-1z M81,19h1v1h-1z M82,19h1v1h-1z M85,19h1v1h-1z M86,19h1v1h-1z M89,19h1v1h-1z M90,19h1v1h-1z M92,19h1v1h-1z M94,19h1v1h-1z M95,19h1v1h-1z M99,19h1v1h-1z M101,19h1v1h-1z M4,20h1v1h-1z M5,20h1v1h-1z M7,20h1v1h-1z M8,20h1v1h-1z M10,20h1v1h-1z M11,20h1v1h-1z M12,20h1v1h-1z M13,20h1v1h-1z M14,20h1v1h-1z M16,20h1v1h-1z M18,20h1v1h-1z M22,20h1v1h-1z M24,20h1v1h-1z M28,20h1v1h-1z M30,20h1v1h-1z M31,20h1v1h-1z M32,20h1v1h-1z M33,20h1v1h-1z M34,20h1v1h-1z M35,20h1v1h-1z M38,20h1v1h-1z M41,20h1v1h-1z M43,20h1v1h-1z M48,20h1v1h-1z M49,20h1v1h-1z M51,20h1v1h-1z M55,20h1v1h-1z M57,20h1v1h-1z M58,20h1v1h-1z M61,20h1v1h-1z M65,20h1v1h-1z M66,20h1v1h-1z M69,20h1v1h-1z M70,20h1v1h-1z M73,20h1v1h-1z M75,20h1v1h-1z M76,20h1v1h-1z M77,20h1v1h-1z M78,20h1v1h-1z M79,20h1v1h-1z M80,20h1v1h-1z M83,20h1v1h-1z M86,20h1v1h-1z M87,20h1v1h-1z M88,20h1v1h-1z M90,20h1v1h-1z M92,20h1v1h-1z M93,20h1v1h-1z M96,20h1v1h-1z M99,20h1v1h-1z M100,20h1v1h-1z M102,20h1v1h-1z M103,20h1v1h-1z M105,20h1v1h-1z M106,20h1v1h-1z M107,20h1v1h-1z M4,21h1v1h-1z M5,21h1v1h-1z M7,21h1v1h-1z M8,21h1v1h-1z M9,21h1v1h-1z M12,21h1v1h-1z M13,21h1v1h-1z M16,21h1v1h-1z M17,21h1v1h-1z M20,21h1v1h-1z M24,21h1v1h-1z M26,21h1v1h-1z M27,21h1v1h-1z M28,21h1v1h-1z M33,21h1v1h-1z M36,21h1v1h-1z M40,21h1v1h-1z M41,21h1v1h-1z M44,21h1v1h-1z M45,21h1v1h-1z M46,21h1v1h-1z M48,21h1v1h-1z M50,21h1v1h-1z M51,21h1v1h-1z M52,21h1v1h-1z M53,21h1v1h-1z M55,21h1v1h-1z M61,21h1v1h-1z M64,21h1v1h-1z M65,21h1v1h-1z M66,21h1v1h-1z M69,21h1v1h-1z M70,21h1v1h-1z M71,21h1v1h-1z M75,21h1v1h-1z M76,21h1v1h-1z M77,21h1v1h-1z M78,21h1v1h-1z M80,21h1v1h-1z M82,21h1v1h-1z M83,21h1v1h-1z M90,21h1v1h-1z M94,21h1v1h-1z M95,21h1v1h-1z M96,21h1v1h-1z M97,21h1v1h-1z M98,21h1v1h-1z M99,21h1v1h-1z M101,21h1v1h-1z M102,21h1v1h-1z M103,21h1v1h-1z M106,21h1v1h-1z M108,21h1v1h-1z M4,22h1v1h-1z M7,22h1v1h-1z M8,22h1v1h-1z M9,22h1v1h-1z M10,22h1v1h-1z M13,22h1v1h-1z M15,22h1v1h-1z M18,22h1v1h-1z M19,22h1v1h-1z M21,22h1v1h-1z M22,22h1v1h-1z M23,22h1v1h-1z M26,22h1v1h-1z M27,22h1v1h-1z M29,22h1v1h-1z M31,22h1v1h-1z M36,22h1v1h-1z M38,22h1v1h-1z M40,22h1v1h-1z M41,22h1v1h-1z M43,22h1v1h-1z M44,22h1v1h-1z M47,22h1v1h-1z M48,22h1v1h-1z M50,22h1v1h-1z M53,22h1v1h-1z M55,22h1v1h-1z M56,22h1v1h-1z M59,22h1v1h-1z M62,22h1v1h-1z M64,22h1v1h-1z M71,22h1v1h-1z M72,22h1v1h-1z M74,22h1v1h-1z M77,22h1v1h-1z M79,22h1v1h-1z M86,22h1v1h-1z M88,22h1v1h-1z M97,22h1v1h-1z M98,22h1v1h-1z M99,22h1v1h-1z M101,22h1v1h-1z M104,22h1v1h-1z M105,22h1v1h-1z M106,22h1v1h-1z M107,22h1v1h-1z M5,23h1v1h-1z M12,23h1v1h-1z M14,23h1v1h-1z M20,23h1v1h-1z M21,23h1v1h-1z M26,23h1v1h-1z M29,23h1v1h-1z M30,23h1v1h-1z M32,23h1v1h-1z M34,23h1v1h-1z M35,23h1v1h-1z M37,23h1v1h-1z M41,23h1v1h-1z M42,23h1v1h-1z M44,23h1v1h-1z M45,23h1v1h-1z M46,23h1v1h-1z M47,23h1v1h-1z M49,23h1v1h-1z M50,23h1v1h-1z M51,23h1v1h-1z M52,23h1v1h-1z M56,23h1v1h-1z M57,23h1v1h-1z M59,23h1v1h-1z M62,23h1v1h-1z M63,23h1v1h-1z M65,23h1v1h-1z M66,23h1v1h-1z M68,23h1v1h-1z M71,23h1v1h-1z M73,23h1v1h-1z M75,23h1v1h-1z M77,23h1v1h-1z M78,23h1v1h-1z M79,23h1v1h-1z M80,23h1v1h-1z M82,23h1v1h-1z M83,23h1v1h-1z M86,23h1v1h-1z M89,23h1v1h-1z M90,23h1v1h-1z M92,23h1v1h-1z M94,23h1v1h-1z M95,23h1v1h-1z M100,23h1v1h-1z M103,23h1v1h-1z M105,23h1v1h-1z M107,23h1v1h-1z M108,23h1v1h-1z M4,24h1v1h-1z M7,24h1v1h-1z M9,24h1v1h-1z M10,24h1v1h-1z M11,24h1v1h-1z M12,24h1v1h-1z M13,24h1v1h-1z M14,24h1v1h-1z M16,24h1v1h-1z M18,24h1v1h-1z M19,24h1v1h-1z M20,24h1v1h-1z M21,24h1v1h-1z M22,24h1v1h-1z M23,24h1v1h-1z M24,24h1v1h-1z M29,24h1v1h-1z M30,24h1v1h-1z M31,24h1v1h-1z M33,24h1v1h-1z M34,24h1v1h-1z M35,24h1v1h-1z M36,24h1v1h-1z M38,24h1v1h-1z M39,24h1v1h-1z M42,24h1v1h-1z M44,24h1v1h-1z M46,24h1v1h-1z M47,24h1v1h-1z M48,24h1v1h-1z M50,24h1v1h-1z M55,24h1v1h-1z M57,24h1v1h-1z M60,24h1v1h-1z M63,24h1v1h-1z M64,24h1v1h-1z M66,24h1v1h-1z M67,24h1v1h-1z M69,24h1v1h-1z M70,24h1v1h-1z M71,24h1v1h-1z M72,24h1v1h-1z M77,24h1v1h-1z M82,24h1v1h-1z M83,24h1v1h-1z M84,24h1v1h-1z M89,24h1v1h-1z M94,24h1v1h-1z M95,24h1v1h-1z M97,24h1v1h-1z M99,24h1v1h-1z M100,24h1v1h-1z M104,24h1v1h-1z M105,24h1v1h-1z M107,24h1v1h-1z M4,25h1v1h-1z M6,25h1v1h-1z M11,25h1v1h-1z M13,25h1v1h-1z M14,25h1v1h-1z M16,25h1v1h-1z M17,25h1v1h-1z M20,25h1v1h-1z M21,25h1v1h-1z M22,25h1v1h-1z M23,25h1v1h-1z M24,25h1v1h-1z M28,25h1v1h-1z M29,25h1v1h-1z M31,25h1v1h-1z M33,25h1v1h-1z M34,25h1v1h-1z M36,25h1v1h-1z M37,25h1v1h-1z M40,25h1v1h-1z M41,25h1v1h-1z M42,25h1v1h-1z M43,25h1v1h-1z M47,25h1v1h-1z M48,25h1v1h-1z M51,25h1v1h-1z M52,25h1v1h-1z M55,25h1v1h-1z M56,25h1v1h-1z M57,25h1v1h-1z M58,25h1v1h-1z M61,25h1v1h-1z M62,25h1v1h-1z M63,25h1v1h-1z M64,25h1v1h-1z M69,25h1v1h-1z M71,25h1v1h-1z M75,25h1v1h-1z M76,25h1v1h-1z M77,25h1v1h-1z M78,25h1v1h-1z M81,25h1v1h-1z M82,25h1v1h-1z M83,25h1v1h-1z M84,25h1v1h-1z M85,25h1v1h-1z M86,25h1v1h-1z M89,25h1v1h-1z M90,25h1v1h-1z M91,25h1v1h-1z M95,25h1v1h-1z M98,25h1v1h-1z M99,25h1v1h-1z M100,25h1v1h-1z M102,25h1v1h-1z M104,25h1v1h-1z M6,26h1v1h-1z M8,26h1v1h-1z M9,26h1v1h-1z M10,26h1v1h-1z M11,26h1v1h-1z M12,26h1v1h-1z M13,26h1v1h-1z M14,26h1v1h-1z M15,26h1v1h-1z M17,26h1v1h-1z M18,26h1v1h-1z M19,26h1v1h-1z M24,26h1v1h-1z M26,26h1v1h-1z M29,26h1v1h-1z M31,26h1v1h-1z M32,26h1v1h-1z M35,26h1v1h-1z M38,26h1v1h-1z M41,26h1v1h-1z M45,26h1v1h-1z M47,26h1v1h-1z M50,26h1v1h-1z M51,26h1v1h-1z M52,26h1v1h-1z M55,26h1v1h-1z M60,26h1v1h-1z M62,26h1v1h-1z M63,26h1v1h-1z M65,26h1v1h-1z M67,26h1v1h-1z M68,26h1v1h-1z M74,26h1v1h-1z M75,26h1v1h-1z M77,26h1v1h-1z M79,26h1v1h-1z M80,26h1v1h-1z M86,26h1v1h-1z M87,26h1v1h-1z M88,26h1v1h-1z M89,26h1v1h-1z M91,26h1v1h-1z M92,26h1v1h-1z M98,26h1v1h-1z M99,26h1v1h-1z M100,26h1v1h-1z M104,26h1v1h-1z M105,26h1v1h-1z M107,26h1v1h-1z M4,27h1v1h-1z M8,27h1v1h-1z M9,27h1v1h-1z M15,27h1v1h-1z M16,27h1v1h-1z M18,27h1v1h-1z M23,27h1v1h-1z M24,27h1v1h-1z M25,27h1v1h-1z M26,27h1v1h-1z M32,27h1v1h-1z M33,27h1v1h-1z M35,27h1v1h-1z M37,27h1v1h-1z M38,27h1v1h-1z M42,27h1v1h-1z M44,27h1v1h-1z M46,27h1v1h-1z M47,27h1v1h-1z M50,27h1v1h-1z M53,27h1v1h-1z M54,27h1v1h-1z M55,27h1v1h-1z M56,27h1v1h-1z M57,27h1v1h-1z M59,27h1v1h-1z M62,27h1v1h-1z M65,27h1v1h-1z M68,27h1v1h-1z M69,27h1v1h-1z M71,27h1v1h-1z M73,27h1v1h-1z M80,27h1v1h-1z M82,27h1v1h-1z M83,27h1v1h-1z M85,27h1v1h-1z M87,27h1v1h-1z M89,27h1v1h-1z M92,27h1v1h-1z M93,27h1v1h-1z M94,27h1v1h-1z M95,27h1v1h-1z M101,27h1v1h-1z M104,27h1v1h-1z M107,27h1v1h-1z M4,28h1v1h-1z M7,28h1v1h-1z M8,28h1v1h-1z M9,28h1v1h-1z M10,28h1v1h-1z M11,28h1v1h-1z M12,28h1v1h-1z M13,28h1v1h-1z M14,28h1v1h-1z M16,28h1v1h-1z M19,28h1v1h-1z M21,28h1v1h-1z M24,28h1v1h-1z M28,28h1v1h-1z M29,28h1v1h-1z M30,28h1v1h-1z M31,28h1v1h-1z M32,28h1v1h-1z M38,28h1v1h-1z M39,28h1v1h-1z M40,28h1v1h-1z M41,28h1v1h-1z M42,28h1v1h-1z M46,28h1v1h-1z M47,28h1v1h-1z M48,28h1v1h-1z M51,28h1v1h-1z M52,28h1v1h-1z M53,28h1v1h-1z M54,28h1v1h-1z M55,28h1v1h-1z M56,28h1v1h-1z M61,28h1v1h-1z M66,28h1v1h-1z M68,28h1v1h-1z M70,28h1v1h-1z M71,28h1v1h-1z M72,28h1v1h-1z M75,28h1v1h-1z M76,28h1v1h-1z M77,28h1v1h-1z M78,28h1v1h-1z M79,28h1v1h-1z M80,28h1v1h-1z M83,28h1v1h-1z M84,28h1v1h-1z M87,28h1v1h-1z M88,28h1v1h-1z M89,28h1v1h-1z M90,28h1v1h-1z M92,28h1v1h-1z M94,28h1v1h-1z M96,28h1v1h-1z M99,28h1v1h-1z M100,28h1v1h-1z M101,28h1v1h-1z M102,28h1v1h-1z M103,28h1v1h-1z M104,28h1v1h-1z M105,28h1v1h-1z M108,28h1v1h-1z M4,29h1v1h-1z M7,29h1v1h-1z M8,29h1v1h-1z M12,29h1v1h-1z M13,29h1v1h-1z M15,29h1v1h-1z M19,29h1v1h-1z M22,29h1v1h-1z M23,29h1v1h-1z M24,29h1v1h-1z M26,29h1v1h-1z M27,29h1v1h-1z M28,29h1v1h-1z M32,29h1v1h-1z M34,29h1v1h-1z M35,29h1v1h-1z M36,29h1v1h-1z M40,29h1v1h-1z M41,29h1v1h-1z M43,29h1v1h-1z M46,29h1v1h-1z M47,29h1v1h-1z M48,29h1v1h-1z M50,29h1v1h-1z M52,29h1v1h-1z M56,29h1v1h-1z M58,29h1v1h-1z M61,29h1v1h-1z M63,29h1v1h-1z M64,29h1v1h-1z M68,29h1v1h-1z M69,29h1v1h-1z M70,29h1v1h-1z M73,29h1v1h-1z M75,29h1v1h-1z M76,29h1v1h-1z M80,29h1v1h-1z M81,29h1v1h-1z M88,29h1v1h-1z M91,29h1v1h-1z M93,29h1v1h-1z M94,29h1v1h-1z M95,29h1v1h-1z M97,29h1v1h-1z M98,29h1v1h-1z M100,29h1v1h-1z M104,29h1v1h-1z M108,29h1v1h-1z M6,30h1v1h-1z M7,30h1v1h-1z M8,30h1v1h-1z M10,30h1v1h-1z M12,30h1v1h-1z M13,30h1v1h-1z M15,30h1v1h-1z M16,30h1v1h-1z M17,30h1v1h-1z M19,30h1v1h-1z M21,30h1v1h-1z M23,30h1v1h-1z M24,30h1v1h-1z M25,30h1v1h-1z M26,30h1v1h-1z M27,30h1v1h-1z M28,30h1v1h-1z M30,30h1v1h-1z M32,30h1v1h-1z M35,30h1v1h-1z M36,30h1v1h-1z M37,30h1v1h-1z M38,30h1v1h-1z M41,30h1v1h-1z M43,30h1v1h-1z M44,30h1v1h-1z M47,30h1v1h-1z M48,30h1v1h-1z M50,30h1v1h-1z M52,30h1v1h-1z M54,30h1v1h-1z M56,30h1v1h-1z M62,30h1v1h-1z M64,30h1v1h-1z M65,30h1v1h-1z M67,30h1v1h-1z M71,30h1v1h-1z M74,30h1v1h-1z M76,30h1v1h-1z M78,30h1v1h-1z M80,30h1v1h-1z M83,30h1v1h-1z M86,30h1v1h-1z M87,30h1v1h-1z M88,30h1v1h-1z M89,30h1v1h-1z M92,30h1v1h-1z M98,30h1v1h-1z M100,30h1v1h-1z M102,30h1v1h-1z M104,30h1v1h-1z M105,30h1v1h-1z M107,30h1v1h-1z M8,31h1v1h-1z M12,31h1v1h-1z M14,31h1v1h-1z M15,31h1v1h-1z M16,31h1v1h-1z M18,31h1v1h-1z M19,31h1v1h-1z M20,31h1v1h-1z M21,31h1v1h-1z M22,31h1v1h-1z M23,31h1v1h-1z M24,31h1v1h-1z M25,31h1v1h-1z M27,31h1v1h-1z M28,31h1v1h-1z M32,31h1v1h-1z M33,31h1v1h-1z M42,31h1v1h-1z M44,31h1v1h-1z M45,31h1v1h-1z M47,31h1v1h-1z M49,31h1v1h-1z M50,31h1v1h-1z M51,31h1v1h-1z M52,31h1v1h-1z M56,31h1v1h-1z M57,31h1v1h-1z M58,31h1v1h-1z M59,31h1v1h-1z M62,31h1v1h-1z M63,31h1v1h-1z M68,31h1v1h-1z M70,31h1v1h-1z M71,31h1v1h-1z M73,31h1v1h-1z M75,31h1v1h-1z M76,31h1v1h-1z M80,31h1v1h-1z M81,31h1v1h-1z M83,31h1v1h-1z M85,31h1v1h-1z M86,31h1v1h-1z M89,31h1v1h-1z M90,31h1v1h-1z M92,31h1v1h-1z M93,31h1v1h-1z M94,31h1v1h-1z M95,31h1v1h-1z M97,31h1v1h-1z M98,31h1v1h-1z M99,31h1v1h-1z M100,31h1v1h-1z M104,31h1v1h-1z M4,32h1v1h-1z M5,32h1v1h-1z M8,32h1v1h-1z M9,32h1v1h-1z M10,32h1v1h-1z M11,32h1v1h-1z M12,32h1v1h-1z M13,32h1v1h-1z M14,32h1v1h-1z M15,32h1v1h-1z M21,32h1v1h-1z M22,32h1v1h-1z M24,32h1v1h-1z M25,32h1v1h-1z M26,32h1v1h-1z M27,32h1v1h-1z M28,32h1v1h-1z M29,32h1v1h-1z M30,32h1v1h-1z M31,32h1v1h-1z M32,32h1v1h-1z M33,32h1v1h-1z M34,32h1v1h-1z M36,32h1v1h-1z M39,32h1v1h-1z M40,32h1v1h-1z M42,32h1v1h-1z M44,32h1v1h-1z M47,32h1v1h-1z M48,32h1v1h-1z M49,32h1v1h-1z M50,32h1v1h-1z M52,32h1v1h-1z M53,32h1v1h-1z M54,32h1v1h-1z M55,32h1v1h-1z M56,32h1v1h-1z M57,32h1v1h-1z M58,32h1v1h-1z M59,32h1v1h-1z M61,32h1v1h-1z M63,32h1v1h-1z M64,32h1v1h-1z M65,32h1v1h-1z M69,32h1v1h-1z M70,32h1v1h-1z M74,32h1v1h-1z M76,32h1v1h-1z M77,32h1v1h-1z M78,32h1v1h-1z M79,32h1v1h-1z M80,32h1v1h-1z M81,32h1v1h-1z M82,32h1v1h-1z M86,32h1v1h-1z M87,32h1v1h-1z M90,32h1v1h-1z M97,32h1v1h-1z M100,32h1v1h-1z M101,32h1v1h-1z M102,32h1v1h-1z M103,32h1v1h-1z M104,32h1v1h-1z M106,32h1v1h-1z M107,32h1v1h-1z M108,32h1v1h-1z M6,33h1v1h-1z M8,33h1v1h-1z M9,33h1v1h-1z M11,33h1v1h-1z M12,33h1v1h-1z M14,33h1v1h-1z M15,33h1v1h-1z M17,33h1v1h-1z M19,33h1v1h-1z M20,33h1v1h-1z M21,33h1v1h-1z M23,33h1v1h-1z M24,33h1v1h-1z M26,33h1v1h-1z M29,33h1v1h-1z M31,33h1v1h-1z M33,33h1v1h-1z M35,33h1v1h-1z M37,33h1v1h-1z M38,33h1v1h-1z M40,33h1v1h-1z M41,33h1v1h-1z M43,33h1v1h-1z M46,33h1v1h-1z M48,33h1v1h-1z M49,33h1v1h-1z M50,33h1v1h-1z M53,33h1v1h-1z M55,33h1v1h-1z M57,33h1v1h-1z M60,33h1v1h-1z M65,33h1v1h-1z M67,33h1v1h-1z M70,33h1v1h-1z M72,33h1v1h-1z M73,33h1v1h-1z M75,33h1v1h-1z M80,33h1v1h-1z M83,33h1v1h-1z M84,33h1v1h-1z M88,33h1v1h-1z M89,33h1v1h-1z M90,33h1v1h-1z M93,33h1v1h-1z M95,33h1v1h-1z M96,33h1v1h-1z M98,33h1v1h-1z M104,33h1v1h-1z M106,33h1v1h-1z M108,33h1v1h-1z M4,34h1v1h-1z M5,34h1v1h-1z M7,34h1v1h-1z M8,34h1v1h-1z M10,34h1v1h-1z M14,34h1v1h-1z M17,34h1v1h-1z M21,34h1v1h-1z M22,34h1v1h-1z M24,34h1v1h-1z M27,34h1v1h-1z M28,34h1v1h-1z M32,34h1v1h-1z M33,34h1v1h-1z M36,34h1v1h-1z M38,34h1v1h-1z M39,34h1v1h-1z M40,34h1v1h-1z M41,34h1v1h-1z M43,34h1v1h-1z M48,34h1v1h-1z M49,34h1v1h-1z M50,34h1v1h-1z M51,34h1v1h-1z M54,34h1v1h-1z M55,34h1v1h-1z M56,34h1v1h-1z M59,34h1v1h-1z M60,34h1v1h-1z M61,34h1v1h-1z M62,34h1v1h-1z M63,34h1v1h-1z M64,34h1v1h-1z M65,34h1v1h-1z M72,34h1v1h-1z M74,34h1v1h-1z M75,34h1v1h-1z M76,34h1v1h-1z M77,34h1v1h-1z M78,34h1v1h-1z M80,34h1v1h-1z M81,34h1v1h-1z M86,34h1v1h-1z M89,34h1v1h-1z M91,34h1v1h-1z M96,34h1v1h-1z M98,34h1v1h-1z M102,34h1v1h-1z M107,34h1v1h-1z M6,35h1v1h-1z M8,35h1v1h-1z M13,35h1v1h-1z M14,35h1v1h-1z M15,35h1v1h-1z M16,35h1v1h-1z M20,35h1v1h-1z M22,35h1v1h-1z M23,35h1v1h-1z M24,35h1v1h-1z M25,35h1v1h-1z M26,35h1v1h-1z M27,35h1v1h-1z M28,35h1v1h-1z M29,35h1v1h-1z M32,35h1v1h-1z M33,35h1v1h-1z M34,35h1v1h-1z M35,35h1v1h-1z M38,35h1v1h-1z M42,35h1v1h-1z M44,35h1v1h-1z M45,35h1v1h-1z M47,35h1v1h-1z M51,35h1v1h-1z M52,35h1v1h-1z M53,35h1v1h-1z M55,35h1v1h-1z M56,35h1v1h-1z M57,35h1v1h-1z M59,35h1v1h-1z M61,35h1v1h-1z M65,35h1v1h-1z M67,35h1v1h-1z M68,35h1v1h-1z M71,35h1v1h-1z M73,35h1v1h-1z M75,35h1v1h-1z M76,35h1v1h-1z M82,35h1v1h-1z M83,35h1v1h-1z M85,35h1v1h-1z M89,35h1v1h-1z M90,35h1v1h-1z M92,35h1v1h-1z M93,35h1v1h-1z M95,35h1v1h-1z M97,35h1v1h-1z M99,35h1v1h-1z M101,35h1v1h-1z M104,35h1v1h-1z M108,35h1v1h-1z M4,36h1v1h-1z M6,36h1v1h-1z M8,36h1v1h-1z M9,36h1v1h-1z M10,36h1v1h-1z M14,36h1v1h-1z M15,36h1v1h-1z M16,36h1v1h-1z M17,36h1v1h-1z M19,36h1v1h-1z M22,36h1v1h-1z M23,36h1v1h-1z M24,36h1v1h-1z M28,36h1v1h-1z M29,36h1v1h-1z M30,36h1v1h-1z M31,36h1v1h-1z M33,36h1v1h-1z M34,36h1v1h-1z M35,36h1v1h-1z M37,36h1v1h-1z M39,36h1v1h-1z M40,36h1v1h-1z M41,36h1v1h-1z M43,36h1v1h-1z M44,36h1v1h-1z M45,36h1v1h-1z M47,36h1v1h-1z M50,36h1v1h-1z M55,36h1v1h-1z M57,36h1v1h-1z M58,36h1v1h-1z M59,36h1v1h-1z M60,36h1v1h-1z M61,36h1v1h-1z M62,36h1v1h-1z M63,36h1v1h-1z M64,36h1v1h-1z M65,36h1v1h-1z M67,36h1v1h-1z M69,36h1v1h-1z M71,36h1v1h-1z M73,36h1v1h-1z M76,36h1v1h-1z M77,36h1v1h-1z M81,36h1v1h-1z M84,36h1v1h-1z M86,36h1v1h-1z M87,36h1v1h-1z M88,36h1v1h-1z M89,36h1v1h-1z M91,36h1v1h-1z M95,36h1v1h-1z M98,36h1v1h-1z M101,36h1v1h-1z M102,36h1v1h-1z M103,36h1v1h-1z M107,36h1v1h-1z M6,37h1v1h-1z M8,37h1v1h-1z M9,37h1v1h-1z M13,37h1v1h-1z M14,37h1v1h-1z M15,37h1v1h-1z M16,37h1v1h-1z M19,37h1v1h-1z M20,37h1v1h-1z M23,37h1v1h-1z M25,37h1v1h-1z M28,37h1v1h-1z M29,37h1v1h-1z M30,37h1v1h-1z M31,37h1v1h-1z M33,37h1v1h-1z M34,37h1v1h-1z M36,37h1v1h-1z M37,37h1v1h-1z M39,37h1v1h-1z M40,37h1v1h-1z M41,37h1v1h-1z M42,37h1v1h-1z M44,37h1v1h-1z M47,37h1v1h-1z M48,37h1v1h-1z M51,37h1v1h-1z M53,37h1v1h-1z M54,37h1v1h-1z M58,37h1v1h-1z M59,37h1v1h-1z M61,37h1v1h-1z M62,37h1v1h-1z M64,37h1v1h-1z M65,37h1v1h-1z M68,37h1v1h-1z M70,37h1v1h-1z M71,37h1v1h-1z M72,37h1v1h-1z M73,37h1v1h-1z M79,37h1v1h-1z M80,37h1v1h-1z M81,37h1v1h-1z M82,37h1v1h-1z M83,37h1v1h-1z M85,37h1v1h-1z M88,37h1v1h-1z M89,37h1v1h-1z M91,37h1v1h-1z M94,37h1v1h-1z M95,37h1v1h-1z M96,37h1v1h-1z M100,37h1v1h-1z M104,37h1v1h-1z M106,37h1v1h-1z M107,37h1v1h-1z M4,38h1v1h-1z M5,38h1v1h-1z M10,38h1v1h-1z M11,38h1v1h-1z M12,38h1v1h-1z M13,38h1v1h-1z M16,38h1v1h-1z M21,38h1v1h-1z M22,38h1v1h-1z M24,38h1v1h-1z M28,38h1v1h-1z M30,38h1v1h-1z M31,38h1v1h-1z M32,38h1v1h-1z M35,38h1v1h-1z M36,38h1v1h-1z M38,38h1v1h-1z M39,38h1v1h-1z M41,38h1v1h-1z M43,38h1v1h-1z M44,38h1v1h-1z M47,38h1v1h-1z M48,38h1v1h-1z M50,38h1v1h-1z M52,38h1v1h-1z M54,38h1v1h-1z M59,38h1v1h-1z M62,38h1v1h-1z M65,38h1v1h-1z M72,38h1v1h-1z M74,38h1v1h-1z M75,38h1v1h-1z M77,38h1v1h-1z M78,38h1v1h-1z M79,38h1v1h-1z M80,38h1v1h-1z M81,38h1v1h-1z M83,38h1v1h-1z M84,38h1v1h-1z M86,38h1v1h-1z M88,38h1v1h-1z M89,38h1v1h-1z M91,38h1v1h-1z M95,38h1v1h-1z M96,38h1v1h-1z M98,38h1v1h-1z M100,38h1v1h-1z M102,38h1v1h-1z M106,38h1v1h-1z M107,38h1v1h-1z M4,39h1v1h-1z M8,39h1v1h-1z M9,39h1v1h-1z M14,39h1v1h-1z M16,39h1v1h-1z M17,39h1v1h-1z M18,39h1v1h-1z M19,39h1v1h-1z M21,39h1v1h-1z M25,39h1v1h-1z M29,39h1v1h-1z M31,39h1v1h-1z M32,39h1v1h-1z M33,39h1v1h-1z M35,39h1v1h-1z M37,39h1v1h-1z M41,39h1v1h-1z M44,39h1v1h-1z M45,39h1v1h-1z M50,39h1v1h-1z M51,39h1v1h-1z M52,39h1v1h-1z M53,39h1v1h-1z M58,39h1v1h-1z M59,39h1v1h-1z M61,39h1v1h-1z M62,39h1v1h-1z M66,39h1v1h-1z M68,39h1v1h-1z M69,39h1v1h-1z M70,39h1v1h-1z M71,39h1v1h-1z M82,39h1v1h-1z M85,39h1v1h-1z M86,39h1v1h-1z M87,39h1v1h-1z M92,39h1v1h-1z M95,39h1v1h-1z M99,39h1v1h-1z M103,39h1v1h-1z M104,39h1v1h-1z M105,39h1v1h-1z M108,39h1v1h-1z M5,40h1v1h-1z M9,40h1v1h-1z M10,40h1v1h-1z M11,40h1v1h-1z M12,40h1v1h-1z M13,40h1v1h-1z M15,40h1v1h-1z M18,40h1v1h-1z M22,40h1v1h-1z M24,40h1v1h-1z M25,40h1v1h-1z M26,40h1v1h-1z M29,40h1v1h-1z M30,40h1v1h-1z M31,40h1v1h-1z M34,40h1v1h-1z M35,40h1v1h-1z M37,40h1v1h-1z M40,40h1v1h-1z M41,40h1v1h-1z M42,40h1v1h-1z M43,40h1v1h-1z M44,40h1v1h-1z M45,40h1v1h-1z M46,40h1v1h-1z M50,40h1v1h-1z M54,40h1v1h-1z M58,40h1v1h-1z M63,40h1v1h-1z M64,40h1v1h-1z M65,40h1v1h-1z M66,40h1v1h-1z M67,40h1v1h-1z M70,40h1v1h-1z M72,40h1v1h-1z M73,40h1v1h-1z M82,40h1v1h-1z M86,40h1v1h-1z M87,40h1v1h-1z M90,40h1v1h-1z M95,40h1v1h-1z M97,40h1v1h-1z M98,40h1v1h-1z M99,40h1v1h-1z M100,40h1v1h-1z M102,40h1v1h-1z M103,40h1v1h-1z M104,40h1v1h-1z M105,40h1v1h-1z M108,40h1v1h-1z M7,41h1v1h-1z M8,41h1v1h-1z M13,41h1v1h-1z M16,41h1v1h-1z M17,41h1v1h-1z M21,41h1v1h-1z M22,41h1v1h-1z M25,41h1v1h-1z M27,41h1v1h-1z M28,41h1v1h-1z M30,41h1v1h-1z M32,41h1v1h-1z M33,41h1v1h-1z M35,41h1v1h-1z M36,41h1v1h-1z M39,41h1v1h-1z M40,41h1v1h-1z M41,41h1v1h-1z M43,41h1v1h-1z M44,41h1v1h-1z M45,41h1v1h-1z M46,41h1v1h-1z M48,41h1v1h-1z M51,41h1v1h-1z M52,41h1v1h-1z M54,41h1v1h-1z M55,41h1v1h-1z M56,41h1v1h-1z M58,41h1v1h-1z M60,41h1v1h-1z M61,41h1v1h-1z M64,41h1v1h-1z M65,41h1v1h-1z M67,41h1v1h-1z M69,41h1v1h-1z M70,41h1v1h-1z M72,41h1v1h-1z M74,41h1v1h-1z M75,41h1v1h-1z M76,41h1v1h-1z M77,41h1v1h-1z M78,41h1v1h-1z M83,41h1v1h-1z M92,41h1v1h-1z M93,41h1v1h-1z M94,41h1v1h-1z M95,41h1v1h-1z M97,41h1v1h-1z M98,41h1v1h-1z M99,41h1v1h-1z M103,41h1v1h-1z M104,41h1v1h-1z M105,41h1v1h-1z M106,41h1v1h-1z M6,42h1v1h-1z M7,42h1v1h-1z M8,42h1v1h-1z M9,42h1v1h-1z M10,42h1v1h-1z M12,42h1v1h-1z M14,42h1v1h-1z M16,42h1v1h-1z M17,42h1v1h-1z M19,42h1v1h-1z M21,42h1v1h-1z M23,42h1v1h-1z M25,42h1v1h-1z M29,42h1v1h-1z M30,42h1v1h-1z M31,42h1v1h-1z M36,42h1v1h-1z M38,42h1v1h-1z M39,42h1v1h-1z M41,42h1v1h-1z M47,42h1v1h-1z M48,42h1v1h-1z M50,42h1v1h-1z M52,42h1v1h-1z M53,42h1v1h-1z M54,42h1v1h-1z M55,42h1v1h-1z M59,42h1v1h-1z M60,42h1v1h-1z M62,42h1v1h-1z M64,42h1v1h-1z M65,42h1v1h-1z M68,42h1v1h-1z M71,42h1v1h-1z M72,42h1v1h-1z M74,42h1v1h-1z M75,42h1v1h-1z M78,42h1v1h-1z M80,42h1v1h-1z M83,42h1v1h-1z M86,42h1v1h-1z M88,42h1v1h-1z M89,42h1v1h-1z M96,42h1v1h-1z M98,42h1v1h-1z M100,42h1v1h-1z M104,42h1v1h-1z M106,42h1v1h-1z M107,42h1v1h-1z M4,43h1v1h-1z M5,43h1v1h-1z M8,43h1v1h-1z M9,43h1v1h-1z M12,43h1v1h-1z M13,43h1v1h-1z M16,43h1v1h-1z M20,43h1v1h-1z M21,43h1v1h-1z M23,43h1v1h-1z M25,43h1v1h-1z M28,43h1v1h-1z M29,43h1v1h-1z M31,43h1v1h-1z M32,43h1v1h-1z M33,43h1v1h-1z M34,43h1v1h-1z M35,43h1v1h-1z M38,43h1v1h-1z M42,43h1v1h-1z M43,43h1v1h-1z M44,43h1v1h-1z M46,43h1v1h-1z M52,43h1v1h-1z M53,43h1v1h-1z M55,43h1v1h-1z M56,43h1v1h-1z M57,43h1v1h-1z M58,43h1v1h-1z M59,43h1v1h-1z M61,43h1v1h-1z M62,43h1v1h-1z M65,43h1v1h-1z M68,43h1v1h-1z M69,43h1v1h-1z M70,43h1v1h-1z M73,43h1v1h-1z M74,43h1v1h-1z M77,43h1v1h-1z M80,43h1v1h-1z M81,43h1v1h-1z M83,43h1v1h-1z M85,43h1v1h-1z M86,43h1v1h-1z M92,43h1v1h-1z M93,43h1v1h-1z M94,43h1v1h-1z M95,43h1v1h-1z M97,43h1v1h-1z M99,43h1v1h-1z M100,43h1v1h-1z M101,43h1v1h-1z M102,43h1v1h-1z M104,43h1v1h-1z M4,44h1v1h-1z M7,44h1v1h-1z M10,44h1v1h-1z M12,44h1v1h-1z M16,44h1v1h-1z M17,44h1v1h-1z M18,44h1v1h-1z M20,44h1v1h-1z M22,44h1v1h-1z M24,44h1v1h-1z M25,44h1v1h-1z M27,44h1v1h-1z M28,44h1v1h-1z M29,44h1v1h-1z M30,44h1v1h-1z M31,44h1v1h-1z M33,44h1v1h-1z M34,44h1v1h-1z M35,44h1v1h-1z M37,44h1v1h-1z M41,44h1v1h-1z M46,44h1v1h-1z M47,44h1v1h-1z M48,44h1v1h-1z M50,44h1v1h-1z M52,44h1v1h-1z M55,44h1v1h-1z M59,44h1v1h-1z M60,44h1v1h-1z M63,44h1v1h-1z M64,44h1v1h-1z M65,44h1v1h-1z M70,44h1v1h-1z M71,44h1v1h-1z M72,44h1v1h-1z M76,44h1v1h-1z M77,44h1v1h-1z M79,44h1v1h-1z M81,44h1v1h-1z M82,44h1v1h-1z M86,44h1v1h-1z M90,44h1v1h-1z M93,44h1v1h-1z M95,44h1v1h-1z M102,44h1v1h-1z M105,44h1v1h-1z M107,44h1v1h-1z M5,45h1v1h-1z M6,45h1v1h-1z M8,45h1v1h-1z M13,45h1v1h-1z M14,45h1v1h-1z M17,45h1v1h-1z M19,45h1v1h-1z M25,45h1v1h-1z M26,45h1v1h-1z M29,45h1v1h-1z M31,45h1v1h-1z M33,45h1v1h-1z M35,45h1v1h-1z M36,45h1v1h-1z M37,45h1v1h-1z M38,45h1v1h-1z M44,45h1v1h-1z M46,45h1v1h-1z M48,45h1v1h-1z M50,45h1v1h-1z M53,45h1v1h-1z M57,45h1v1h-1z M60,45h1v1h-1z M61,45h1v1h-1z M64,45h1v1h-1z M66,45h1v1h-1z M68,45h1v1h-1z M69,45h1v1h-1z M70,45h1v1h-1z M75,45h1v1h-1z M76,45h1v1h-1z M77,45h1v1h-1z M79,45h1v1h-1z M81,45h1v1h-1z M82,45h1v1h-1z M84,45h1v1h-1z M86,45h1v1h-1z M87,45h1v1h-1z M88,45h1v1h-1z M89,45h1v1h-1z M90,45h1v1h-1z M93,45h1v1h-1z M96,45h1v1h-1z M97,45h1v1h-1z M98,45h1v1h-1z M101,45h1v1h-1z M104,45h1v1h-1z M105,45h1v1h-1z M106,45h1v1h-1z M5,46h1v1h-1z M10,46h1v1h-1z M14,46h1v1h-1z M16,46h1v1h-1z M19,46h1v1h-1z M21,46h1v1h-1z M26,46h1v1h-1z M27,46h1v1h-1z M29,46h1v1h-1z M31,46h1v1h-1z M32,46h1v1h-1z M38,46h1v1h-1z M39,46h1v1h-1z M40,46h1v1h-1z M41,46h1v1h-1z M44,46h1v1h-1z M50,46h1v1h-1z M51,46h1v1h-1z M53,46h1v1h-1z M57,46h1v1h-1z M60,46h1v1h-1z M61,46h1v1h-1z M62,46h1v1h-1z M64,46h1v1h-1z M65,46h1v1h-1z M68,46h1v1h-1z M72,46h1v1h-1z M73,46h1v1h-1z M74,46h1v1h-1z M75,46h1v1h-1z M78,46h1v1h-1z M79,46h1v1h-1z M80,46h1v1h-1z M83,46h1v1h-1z M84,46h1v1h-1z M86,46h1v1h-1z M87,46h1v1h-1z M89,46h1v1h-1z M92,46h1v1h-1z M95,46h1v1h-1z M96,46h1v1h-1z M98,46h1v1h-1z M100,46h1v1h-1z M101,46h1v1h-1z M104,46h1v1h-1z M105,46h1v1h-1z M5,47h1v1h-1z M12,47h1v1h-1z M13,47h1v1h-1z M15,47h1v1h-1z M18,47h1v1h-1z M19,47h1v1h-1z M20,47h1v1h-1z M22,47h1v1h-1z M24,47h1v1h-1z M25,47h1v1h-1z M27,47h1v1h-1z M28,47h1v1h-1z M29,47h1v1h-1z M31,47h1v1h-1z M32,47h1v1h-1z M33,47h1v1h-1z M35,47h1v1h-1z M37,47h1v1h-1z M44,47h1v1h-1z M45,47h1v1h-1z M46,47h1v1h-1z M47,47h1v1h-1z M49,47h1v1h-1z M51,47h1v1h-1z M52,47h1v1h-1z M53,47h1v1h-1z M57,47h1v1h-1z M58,47h1v1h-1z M61,47h1v1h-1z M63,47h1v1h-1z M65,47h1v1h-1z M68,47h1v1h-1z M69,47h1v1h-1z M70,47h1v1h-1z M71,47h1v1h-1z M73,47h1v1h-1z M76,47h1v1h-1z M77,47h1v1h-1z M81,47h1v1h-1z M82,47h1v1h-1z M86,47h1v1h-1z M89,47h1v1h-1z M90,47h1v1h-1z M92,47h1v1h-1z M93,47h1v1h-1z M95,47h1v1h-1z M97,47h1v1h-1z M98,47h1v1h-1z M99,47h1v1h-1z M102,47h1v1h-1z M104,47h1v1h-1z M107,47h1v1h-1z M108,47h1v1h-1z M5,48h1v1h-1z M6,48h1v1h-1z M8,48h1v1h-1z M10,48h1v1h-1z M12,48h1v1h-1z M15,48h1v1h-1z M16,48h1v1h-1z M17,48h1v1h-1z M19,48h1v1h-1z M20,48h1v1h-1z M21,48h1v1h-1z M22,48h1v1h-1z M29,48h1v1h-1z M31,48h1v1h-1z M35,48h1v1h-1z M36,48h1v1h-1z M38,48h1v1h-1z M40,48h1v1h-1z M41,48h1v1h-1z M42,48h1v1h-1z M45,48h1v1h-1z M46,48h1v1h-1z M47,48h1v1h-1z M48,48h1v1h-1z M49,48h1v1h-1z M53,48h1v1h-1z M54,48h1v1h-1z M55,48h1v1h-1z M60,48h1v1h-1z M63,48h1v1h-1z M65,48h1v1h-1z M66,48h1v1h-1z M67,48h1v1h-1z M68,48h1v1h-1z M70,48h1v1h-1z M77,48h1v1h-1z M78,48h1v1h-1z M81,48h1v1h-1z M82,48h1v1h-1z M83,48h1v1h-1z M84,48h1v1h-1z M87,48h1v1h-1z M88,48h1v1h-1z M89,48h1v1h-1z M90,48h1v1h-1z M92,48h1v1h-1z M93,48h1v1h-1z M94,48h1v1h-1z M95,48h1v1h-1z M97,48h1v1h-1z M99,48h1v1h-1z M100,48h1v1h-1z M102,48h1v1h-1z M103,48h1v1h-1z M104,48h1v1h-1z M107,48h1v1h-1z M6,49h1v1h-1z M9,49h1v1h-1z M11,49h1v1h-1z M12,49h1v1h-1z M13,49h1v1h-1z M14,49h1v1h-1z M17,49h1v1h-1z M18,49h1v1h-1z M25,49h1v1h-1z M26,49h1v1h-1z M28,49h1v1h-1z M31,49h1v1h-1z M32,49h1v1h-1z M34,49h1v1h-1z M39,49h1v1h-1z M40,49h1v1h-1z M41,49h1v1h-1z M43,49h1v1h-1z M46,49h1v1h-1z M47,49h1v1h-1z M52,49h1v1h-1z M53,49h1v1h-1z M56,49h1v1h-1z M59,49h1v1h-1z M62,49h1v1h-1z M65,49h1v1h-1z M66,49h1v1h-1z M67,49h1v1h-1z M70,49h1v1h-1z M71,49h1v1h-1z M72,49h1v1h-1z M74,49h1v1h-1z M76,49h1v1h-1z M77,49h1v1h-1z M78,49h1v1h-1z M81,49h1v1h-1z M82,49h1v1h-1z M83,49h1v1h-1z M84,49h1v1h-1z M85,49h1v1h-1z M86,49h1v1h-1z M91,49h1v1h-1z M95,49h1v1h-1z M100,49h1v1h-1z M101,49h1v1h-1z M103,49h1v1h-1z M105,49h1v1h-1z M106,49h1v1h-1z M4,50h1v1h-1z M6,50h1v1h-1z M8,50h1v1h-1z M10,50h1v1h-1z M11,50h1v1h-1z M13,50h1v1h-1z M14,50h1v1h-1z M17,50h1v1h-1z M18,50h1v1h-1z M20,50h1v1h-1z M23,50h1v1h-1z M24,50h1v1h-1z M25,50h1v1h-1z M27,50h1v1h-1z M28,50h1v1h-1z M29,50h1v1h-1z M38,50h1v1h-1z M39,50h1v1h-1z M40,50h1v1h-1z M41,50h1v1h-1z M43,50h1v1h-1z M44,50h1v1h-1z M48,50h1v1h-1z M50,50h1v1h-1z M52,50h1v1h-1z M55,50h1v1h-1z M57,50h1v1h-1z M62,50h1v1h-1z M63,50h1v1h-1z M64,50h1v1h-1z M65,50h1v1h-1z M68,50h1v1h-1z M74,50h1v1h-1z M75,50h1v1h-1z M77,50h1v1h-1z M78,50h1v1h-1z M79,50h1v1h-1z M80,50h1v1h-1z M83,50h1v1h-1z M86,50h1v1h-1z M88,50h1v1h-1z M89,50h1v1h-1z M96,50h1v1h-1z M98,50h1v1h-1z M100,50h1v1h-1z M101,50h1v1h-1z M102,50h1v1h-1z M104,50h1v1h-1z M105,50h1v1h-1z M4,51h1v1h-1z M6,51h1v1h-1z M8,51h1v1h-1z M11,51h1v1h-1z M12,51h1v1h-1z M16,51h1v1h-1z M17,51h1v1h-1z M19,51h1v1h-1z M20,51h1v1h-1z M21,51h1v1h-1z M23,51h1v1h-1z M24,51h1v1h-1z M31,51h1v1h-1z M32,51h1v1h-1z M35,51h1v1h-1z M37,51h1v1h-1z M41,51h1v1h-1z M42,51h1v1h-1z M44,51h1v1h-1z M46,51h1v1h-1z M47,51h1v1h-1z M49,51h1v1h-1z M52,51h1v1h-1z M53,51h1v1h-1z M55,51h1v1h-1z M56,51h1v1h-1z M57,51h1v1h-1z M58,51h1v1h-1z M59,51h1v1h-1z M61,51h1v1h-1z M62,51h1v1h-1z M65,51h1v1h-1z M66,51h1v1h-1z M68,51h1v1h-1z M70,51h1v1h-1z M71,51h1v1h-1z M74,51h1v1h-1z M75,51h1v1h-1z M76,51h1v1h-1z M79,51h1v1h-1z M80,51h1v1h-1z M83,51h1v1h-1z M85,51h1v1h-1z M89,51h1v1h-1z M90,51h1v1h-1z M92,51h1v1h-1z M94,51h1v1h-1z M95,51h1v1h-1z M97,51h1v1h-1z M98,51h1v1h-1z M99,51h1v1h-1z M100,51h1v1h-1z M101,51h1v1h-1z M102,51h1v1h-1z M104,51h1v1h-1z M4,52h1v1h-1z M7,52h1v1h-1z M8,52h1v1h-1z M9,52h1v1h-1z M10,52h1v1h-1z M11,52h1v1h-1z M12,52h1v1h-1z M14,52h1v1h-1z M15,52h1v1h-1z M18,52h1v1h-1z M19,52h1v1h-1z M20,52h1v1h-1z M21,52h1v1h-1z M23,52h1v1h-1z M24,52h1v1h-1z M25,52h1v1h-1z M28,52h1v1h-1z M29,52h1v1h-1z M30,52h1v1h-1z M31,52h1v1h-1z M32,52h1v1h-1z M33,52h1v1h-1z M34,52h1v1h-1z M36,52h1v1h-1z M37,52h1v1h-1z M39,52h1v1h-1z M40,52h1v1h-1z M42,52h1v1h-1z M47,52h1v1h-1z M48,52h1v1h-1z M49,52h1v1h-1z M52,52h1v1h-1z M53,52h1v1h-1z M54,52h1v1h-1z M55,52h1v1h-1z M56,52h1v1h-1z M57,52h1v1h-1z M58,52h1v1h-1z M60,52h1v1h-1z M61,52h1v1h-1z M62,52h1v1h-1z M64,52h1v1h-1z M66,52h1v1h-1z M67,52h1v1h-1z M69,52h1v1h-1z M72,52h1v1h-1z M73,52h1v1h-1z M74,52h1v1h-1z M76,52h1v1h-1z M77,52h1v1h-1z M78,52h1v1h-1z M79,52h1v1h-1z M80,52h1v1h-1z M81,52h1v1h-1z M82,52h1v1h-1z M85,52h1v1h-1z M86,52h1v1h-1z M87,52h1v1h-1z M89,52h1v1h-1z M91,52h1v1h-1z M94,52h1v1h-1z M95,52h1v1h-1z M97,52h1v1h-1z M100,52h1v1h-1z M101,52h1v1h-1z M102,52h1v1h-1z M103,52h1v1h-1z M104,52h1v1h-1z M108,52h1v1h-1z M4,53h1v1h-1z M5,53h1v1h-1z M6,53h1v1h-1z M8,53h1v1h-1z M12,53h1v1h-1z M14,53h1v1h-1z M16,53h1v1h-1z M17,53h1v1h-1z M18,53h1v1h-1z M19,53h1v1h-1z M23,53h1v1h-1z M24,53h1v1h-1z M25,53h1v1h-1z M27,53h1v1h-1z M28,53h1v1h-1z M32,53h1v1h-1z M33,53h1v1h-1z M35,53h1v1h-1z M36,53h1v1h-1z M37,53h1v1h-1z M39,53h1v1h-1z M40,53h1v1h-1z M42,53h1v1h-1z M43,53h1v1h-1z M44,53h1v1h-1z M45,53h1v1h-1z M46,53h1v1h-1z M47,53h1v1h-1z M49,53h1v1h-1z M50,53h1v1h-1z M51,53h1v1h-1z M52,53h1v1h-1z M56,53h1v1h-1z M60,53h1v1h-1z M63,53h1v1h-1z M64,53h1v1h-1z M65,53h1v1h-1z M68,53h1v1h-1z M70,53h1v1h-1z M71,53h1v1h-1z M72,53h1v1h-1z M73,53h1v1h-1z M74,53h1v1h-1z M75,53h1v1h-1z M76,53h1v1h-1z M80,53h1v1h-1z M83,53h1v1h-1z M85,53h1v1h-1z M86,53h1v1h-1z M88,53h1v1h-1z M89,53h1v1h-1z M90,53h1v1h-1z M92,53h1v1h-1z M93,53h1v1h-1z M95,53h1v1h-1z M97,53h1v1h-1z M100,53h1v1h-1z M104,53h1v1h-1z M106,53h1v1h-1z M108,53h1v1h-1z M4,54h1v1h-1z M5,54h1v1h-1z M7,54h1v1h-1z M8,54h1v1h-1z M10,54h1v1h-1z M12,54h1v1h-1z M13,54h1v1h-1z M14,54h1v1h-1z M18,54h1v1h-1z M19,54h1v1h-1z M21,54h1v1h-1z M22,54h1v1h-1z M24,54h1v1h-1z M25,54h1v1h-1z M26,54h1v1h-1z M27,54h1v1h-1z M28,54h1v1h-1z M30,54h1v1h-1z M32,54h1v1h-1z M35,54h1v1h-1z M36,54h1v1h-1z M38,54h1v1h-1z M39,54h1v1h-1z M41,54h1v1h-1z M43,54h1v1h-1z M50,54h1v1h-1z M51,54h1v1h-1z M52,54h1v1h-1z M54,54h1v1h-1z M56,54h1v1h-1z M62,54h1v1h-1z M64,54h1v1h-1z M65,54h1v1h-1z M72,54h1v1h-1z M73,54h1v1h-1z M74,54h1v1h-1z M75,54h1v1h-1z M76,54h1v1h-1z M78,54h1v1h-1z M80,54h1v1h-1z M84,54h1v1h-1z M86,54h1v1h-1z M87,54h1v1h-1z M88,54h1v1h-1z M89,54h1v1h-1z M91,54h1v1h-1z M92,54h1v1h-1z M93,54h1v1h-1z M95,54h1v1h-1z M98,54h1v1h-1z M100,54h1v1h-1z M102,54h1v1h-1z M104,54h1v1h-1z M105,54h1v1h-1z M107,54h1v1h-1z M4,55h1v1h-1z M7,55h1v1h-1z M8,55h1v1h-1z M12,55h1v1h-1z M13,55h1v1h-1z M15,55h1v1h-1z M16,55h1v1h-1z M18,55h1v1h-1z M19,55h1v1h-1z M20,55h1v1h-1z M21,55h1v1h-1z M22,55h1v1h-1z M23,55h1v1h-1z M24,55h1v1h-1z M27,55h1v1h-1z M28,55h1v1h-1z M32,55h1v1h-1z M33,55h1v1h-1z M37,55h1v1h-1z M38,55h1v1h-1z M44,55h1v1h-1z M45,55h1v1h-1z M47,55h1v1h-1z M49,55h1v1h-1z M52,55h1v1h-1z M56,55h1v1h-1z M59,55h1v1h-1z M63,55h1v1h-1z M66,55h1v1h-1z M67,55h1v1h-1z M68,55h1v1h-1z M70,55h1v1h-1z M71,55h1v1h-1z M76,55h1v1h-1z M80,55h1v1h-1z M82,55h1v1h-1z M83,55h1v1h-1z M85,55h1v1h-1z M86,55h1v1h-1z M89,55h1v1h-1z M90,55h1v1h-1z M92,55h1v1h-1z M94,55h1v1h-1z M95,55h1v1h-1z M97,55h1v1h-1z M98,55h1v1h-1z M100,55h1v1h-1z M104,55h1v1h-1z M107,55h1v1h-1z M108,55h1v1h-1z M5,56h1v1h-1z M7,56h1v1h-1z M8,56h1v1h-1z M9,56h1v1h-1z M10,56h1v1h-1z M11,56h1v1h-1z M12,56h1v1h-1z M14,56h1v1h-1z M17,56h1v1h-1z M18,56h1v1h-1z M19,56h1v1h-1z M20,56h1v1h-1z M24,56h1v1h-1z M25,56h1v1h-1z M28,56h1v1h-1z M29,56h1v1h-1z M30,56h1v1h-1z M31,56h1v1h-1z M32,56h1v1h-1z M34,56h1v1h-1z M36,56h1v1h-1z M39,56h1v1h-1z M42,56h1v1h-1z M43,56h1v1h-1z M44,56h1v1h-1z M46,56h1v1h-1z M47,56h1v1h-1z M48,56h1v1h-1z M49,56h1v1h-1z M51,56h1v1h-1z M52,56h1v1h-1z M53,56h1v1h-1z M54,56h1v1h-1z M55,56h1v1h-1z M56,56h1v1h-1z M60,56h1v1h-1z M63,56h1v1h-1z M65,56h1v1h-1z M66,56h1v1h-1z M68,56h1v1h-1z M70,56h1v1h-1z M71,56h1v1h-1z M76,56h1v1h-1z M77,56h1v1h-1z M78,56h1v1h-1z M79,56h1v1h-1z M80,56h1v1h-1z M82,56h1v1h-1z M85,56h1v1h-1z M87,56h1v1h-1z M90,56h1v1h-1z M92,56h1v1h-1z M93,56h1v1h-1z M94,56h1v1h-1z M95,56h1v1h-1z M97,56h1v1h-1z M99,56h1v1h-1z M100,56h1v1h-1z M101,56h1v1h-1z M102,56h1v1h-1z M103,56h1v1h-1z M104,56h1v1h-1z M105,56h1v1h-1z M6,57h1v1h-1z M7,57h1v1h-1z M8,57h1v1h-1z M14,57h1v1h-1z M15,57h1v1h-1z M16,57h1v1h-1z M20,57h1v1h-1z M21,57h1v1h-1z M23,57h1v1h-1z M25,57h1v1h-1z M31,57h1v1h-1z M34,57h1v1h-1z M35,57h1v1h-1z M36,57h1v1h-1z M37,57h1v1h-1z M38,57h1v1h-1z M40,57h1v1h-1z M41,57h1v1h-1z M42,57h1v1h-1z M44,57h1v1h-1z M45,57h1v1h-1z M46,57h1v1h-1z M47,57h1v1h-1z M49,57h1v1h-1z M50,57h1v1h-1z M51,57h1v1h-1z M53,57h1v1h-1z M54,57h1v1h-1z M55,57h1v1h-1z M58,57h1v1h-1z M59,57h1v1h-1z M60,57h1v1h-1z M62,57h1v1h-1z M63,57h1v1h-1z M65,57h1v1h-1z M66,57h1v1h-1z M71,57h1v1h-1z M72,57h1v1h-1z M73,57h1v1h-1z M77,57h1v1h-1z M79,57h1v1h-1z M84,57h1v1h-1z M86,57h1v1h-1z M88,57h1v1h-1z M90,57h1v1h-1z M91,57h1v1h-1z M93,57h1v1h-1z M94,57h1v1h-1z M95,57h1v1h-1z M96,57h1v1h-1z M98,57h1v1h-1z M99,57h1v1h-1z M100,57h1v1h-1z M102,57h1v1h-1z M104,57h1v1h-1z M105,57h1v1h-1z M106,57h1v1h-1z M107,57h1v1h-1z M5,58h1v1h-1z M8,58h1v1h-1z M9,58h1v1h-1z M10,58h1v1h-1z M12,58h1v1h-1z M14,58h1v1h-1z M15,58h1v1h-1z M16,58h1v1h-1z M18,58h1v1h-1z M19,58h1v1h-1z M25,58h1v1h-1z M26,58h1v1h-1z M29,58h1v1h-1z M32,58h1v1h-1z M35,58h1v1h-1z M36,58h1v1h-1z M38,58h1v1h-1z M40,58h1v1h-1z M41,58h1v1h-1z M43,58h1v1h-1z M44,58h1v1h-1z M47,58h1v1h-1z M48,58h1v1h-1z M50,58h1v1h-1z M54,58h1v1h-1z M55,58h1v1h-1z M61,58h1v1h-1z M62,58h1v1h-1z M63,58h1v1h-1z M65,58h1v1h-1z M71,58h1v1h-1z M72,58h1v1h-1z M74,58h1v1h-1z M75,58h1v1h-1z M77,58h1v1h-1z M79,58h1v1h-1z M80,58h1v1h-1z M83,58h1v1h-1z M84,58h1v1h-1z M86,58h1v1h-1z M88,58h1v1h-1z M89,58h1v1h-1z M95,58h1v1h-1z M97,58h1v1h-1z M98,58h1v1h-1z M99,58h1v1h-1z M100,58h1v1h-1z M101,58h1v1h-1z M103,58h1v1h-1z M104,58h1v1h-1z M107,58h1v1h-1z M5,59h1v1h-1z M6,59h1v1h-1z M7,59h1v1h-1z M12,59h1v1h-1z M13,59h1v1h-1z M14,59h1v1h-1z M15,59h1v1h-1z M20,59h1v1h-1z M21,59h1v1h-1z M25,59h1v1h-1z M26,59h1v1h-1z M27,59h1v1h-1z M28,59h1v1h-1z M30,59h1v1h-1z M31,59h1v1h-1z M35,59h1v1h-1z M37,59h1v1h-1z M39,59h1v1h-1z M41,59h1v1h-1z M42,59h1v1h-1z M44,59h1v1h-1z M46,59h1v1h-1z M47,59h1v1h-1z M52,59h1v1h-1z M54,59h1v1h-1z M55,59h1v1h-1z M57,59h1v1h-1z M58,59h1v1h-1z M59,59h1v1h-1z M65,59h1v1h-1z M66,59h1v1h-1z M67,59h1v1h-1z M68,59h1v1h-1z M69,59h1v1h-1z M73,59h1v1h-1z M75,59h1v1h-1z M76,59h1v1h-1z M77,59h1v1h-1z M78,59h1v1h-1z M79,59h1v1h-1z M81,59h1v1h-1z M82,59h1v1h-1z M92,59h1v1h-1z M93,59h1v1h-1z M95,59h1v1h-1z M97,59h1v1h-1z M99,59h1v1h-1z M103,59h1v1h-1z M105,59h1v1h-1z M4,60h1v1h-1z M5,60h1v1h-1z M10,60h1v1h-1z M11,60h1v1h-1z M13,60h1v1h-1z M14,60h1v1h-1z M15,60h1v1h-1z M16,60h1v1h-1z M17,60h1v1h-1z M18,60h1v1h-1z M19,60h1v1h-1z M20,60h1v1h-1z M24,60h1v1h-1z M25,60h1v1h-1z M28,60h1v1h-1z M30,60h1v1h-1z M31,60h1v1h-1z M32,60h1v1h-1z M35,60h1v1h-1z M37,60h1v1h-1z M39,60h1v1h-1z M40,60h1v1h-1z M43,60h1v1h-1z M46,60h1v1h-1z M48,60h1v1h-1z M50,60h1v1h-1z M51,60h1v1h-1z M53,60h1v1h-1z M54,60h1v1h-1z M55,60h1v1h-1z M59,60h1v1h-1z M60,60h1v1h-1z M61,60h1v1h-1z M63,60h1v1h-1z M65,60h1v1h-1z M68,60h1v1h-1z M69,60h1v1h-1z M70,60h1v1h-1z M73,60h1v1h-1z M74,60h1v1h-1z M75,60h1v1h-1z M76,60h1v1h-1z M78,60h1v1h-1z M79,60h1v1h-1z M80,60h1v1h-1z M82,60h1v1h-1z M83,60h1v1h-1z M84,60h1v1h-1z M88,60h1v1h-1z M90,60h1v1h-1z M91,60h1v1h-1z M93,60h1v1h-1z M96,60h1v1h-1z M100,60h1v1h-1z M102,60h1v1h-1z M103,60h1v1h-1z M105,60h1v1h-1z M4,61h1v1h-1z M5,61h1v1h-1z M9,61h1v1h-1z M11,61h1v1h-1z M12,61h1v1h-1z M13,61h1v1h-1z M16,61h1v1h-1z M19,61h1v1h-1z M20,61h1v1h-1z M21,61h1v1h-1z M22,61h1v1h-1z M23,61h1v1h-1z M24,61h1v1h-1z M26,61h1v1h-1z M27,61h1v1h-1z M28,61h1v1h-1z M29,61h1v1h-1z M33,61h1v1h-1z M36,61h1v1h-1z M39,61h1v1h-1z M41,61h1v1h-1z M42,61h1v1h-1z M43,61h1v1h-1z M44,61h1v1h-1z M45,61h1v1h-1z M46,61h1v1h-1z M47,61h1v1h-1z M49,61h1v1h-1z M51,61h1v1h-1z M55,61h1v1h-1z M57,61h1v1h-1z M61,61h1v1h-1z M65,61h1v1h-1z M70,61h1v1h-1z M71,61h1v1h-1z M72,61h1v1h-1z M74,61h1v1h-1z M75,61h1v1h-1z M77,61h1v1h-1z M81,61h1v1h-1z M82,61h1v1h-1z M83,61h1v1h-1z M86,61h1v1h-1z M89,61h1v1h-1z M92,61h1v1h-1z M94,61h1v1h-1z M95,61h1v1h-1z M96,61h1v1h-1z M98,61h1v1h-1z M99,61h1v1h-1z M100,61h1v1h-1z M102,61h1v1h-1z M106,61h1v1h-1z M6,62h1v1h-1z M7,62h1v1h-1z M8,62h1v1h-1z M10,62h1v1h-1z M11,62h1v1h-1z M12,62h1v1h-1z M14,62h1v1h-1z M16,62h1v1h-1z M17,62h1v1h-1z M18,62h1v1h-1z M21,62h1v1h-1z M26,62h1v1h-1z M30,62h1v1h-1z M31,62h1v1h-1z M32,62h1v1h-1z M38,62h1v1h-1z M40,62h1v1h-1z M41,62h1v1h-1z M44,62h1v1h-1z M47,62h1v1h-1z M48,62h1v1h-1z M49,62h1v1h-1z M50,62h1v1h-1z M60,62h1v1h-1z M61,62h1v1h-1z M62,62h1v1h-1z M63,62h1v1h-1z M65,62h1v1h-1z M68,62h1v1h-1z M74,62h1v1h-1z M75,62h1v1h-1z M77,62h1v1h-1z M78,62h1v1h-1z M84,62h1v1h-1z M86,62h1v1h-1z M88,62h1v1h-1z M91,62h1v1h-1z M92,62h1v1h-1z M93,62h1v1h-1z M95,62h1v1h-1z M98,62h1v1h-1z M99,62h1v1h-1z M100,62h1v1h-1z M101,62h1v1h-1z M103,62h1v1h-1z M104,62h1v1h-1z M105,62h1v1h-1z M106,62h1v1h-1z M9,63h1v1h-1z M13,63h1v1h-1z M14,63h1v1h-1z M20,63h1v1h-1z M22,63h1v1h-1z M23,63h1v1h-1z M25,63h1v1h-1z M26,63h1v1h-1z M31,63h1v1h-1z M32,63h1v1h-1z M35,63h1v1h-1z M37,63h1v1h-1z M38,63h1v1h-1z M39,63h1v1h-1z M44,63h1v1h-1z M47,63h1v1h-1z M53,63h1v1h-1z M55,63h1v1h-1z M56,63h1v1h-1z M57,63h1v1h-1z M59,63h1v1h-1z M68,63h1v1h-1z M71,63h1v1h-1z M74,63h1v1h-1z M76,63h1v1h-1z M77,63h1v1h-1z M78,63h1v1h-1z M80,63h1v1h-1z M81,63h1v1h-1z M83,63h1v1h-1z M85,63h1v1h-1z M90,63h1v1h-1z M92,63h1v1h-1z M94,63h1v1h-1z M95,63h1v1h-1z M104,63h1v1h-1z M105,63h1v1h-1z M4,64h1v1h-1z M6,64h1v1h-1z M7,64h1v1h-1z M10,64h1v1h-1z M11,64h1v1h-1z M12,64h1v1h-1z M13,64h1v1h-1z M14,64h1v1h-1z M16,64h1v1h-1z M17,64h1v1h-1z M21,64h1v1h-1z M27,64h1v1h-1z M30,64h1v1h-1z M31,64h1v1h-1z M33,64h1v1h-1z M34,64h1v1h-1z M42,64h1v1h-1z M43,64h1v1h-1z M47,64h1v1h-1z M50,64h1v1h-1z M52,64h1v1h-1z M54,64h1v1h-1z M55,64h1v1h-1z M56,64h1v1h-1z M62,64h1v1h-1z M63,64h1v1h-1z M65,64h1v1h-1z M66,64h1v1h-1z M68,64h1v1h-1z M70,64h1v1h-1z M74,64h1v1h-1z M75,64h1v1h-1z M76,64h1v1h-1z M78,64h1v1h-1z M80,64h1v1h-1z M81,64h1v1h-1z M82,64h1v1h-1z M84,64h1v1h-1z M85,64h1v1h-1z M86,64h1v1h-1z M87,64h1v1h-1z M89,64h1v1h-1z M92,64h1v1h-1z M94,64h1v1h-1z M95,64h1v1h-1z M97,64h1v1h-1z M99,64h1v1h-1z M100,64h1v1h-1z M101,64h1v1h-1z M103,64h1v1h-1z M105,64h1v1h-1z M107,64h1v1h-1z M108,64h1v1h-1z M4,65h1v1h-1z M5,65h1v1h-1z M6,65h1v1h-1z M7,65h1v1h-1z M9,65h1v1h-1z M11,65h1v1h-1z M13,65h1v1h-1z M14,65h1v1h-1z M15,65h1v1h-1z M20,65h1v1h-1z M22,65h1v1h-1z M24,65h1v1h-1z M27,65h1v1h-1z M28,65h1v1h-1z M30,65h1v1h-1z M31,65h1v1h-1z M33,65h1v1h-1z M35,65h1v1h-1z M36,65h1v1h-1z M38,65h1v1h-1z M39,65h1v1h-1z M40,65h1v1h-1z M41,65h1v1h-1z M42,65h1v1h-1z M43,65h1v1h-1z M47,65h1v1h-1z M48,65h1v1h-1z M49,65h1v1h-1z M50,65h1v1h-1z M52,65h1v1h-1z M54,65h1v1h-1z M58,65h1v1h-1z M59,65h1v1h-1z M63,65h1v1h-1z M65,65h1v1h-1z M70,65h1v1h-1z M72,65h1v1h-1z M74,65h1v1h-1z M75,65h1v1h-1z M78,65h1v1h-1z M79,65h1v1h-1z M81,65h1v1h-1z M83,65h1v1h-1z M86,65h1v1h-1z M87,65h1v1h-1z M88,65h1v1h-1z M89,65h1v1h-1z M91,65h1v1h-1z M92,65h1v1h-1z M95,65h1v1h-1z M96,65h1v1h-1z M99,65h1v1h-1z M100,65h1v1h-1z M102,65h1v1h-1z M104,65h1v1h-1z M4,66h1v1h-1z M6,66h1v1h-1z M8,66h1v1h-1z M9,66h1v1h-1z M10,66h1v1h-1z M14,66h1v1h-1z M17,66h1v1h-1z M18,66h1v1h-1z M20,66h1v1h-1z M25,66h1v1h-1z M26,66h1v1h-1z M29,66h1v1h-1z M31,66h1v1h-1z M35,66h1v1h-1z M38,66h1v1h-1z M39,66h1v1h-1z M40,66h1v1h-1z M41,66h1v1h-1z M47,66h1v1h-1z M48,66h1v1h-1z M50,66h1v1h-1z M56,66h1v1h-1z M59,66h1v1h-1z M61,66h1v1h-1z M62,66h1v1h-1z M64,66h1v1h-1z M71,66h1v1h-1z M72,66h1v1h-1z M74,66h1v1h-1z M78,66h1v1h-1z M80,66h1v1h-1z M84,66h1v1h-1z M86,66h1v1h-1z M89,66h1v1h-1z M92,66h1v1h-1z M95,66h1v1h-1z M96,66h1v1h-1z M98,66h1v1h-1z M100,66h1v1h-1z M101,66h1v1h-1z M103,66h1v1h-1z M104,66h1v1h-1z M107,66h1v1h-1z M5,67h1v1h-1z M6,67h1v1h-1z M13,67h1v1h-1z M15,67h1v1h-1z M16,67h1v1h-1z M17,67h1v1h-1z M21,67h1v1h-1z M22,67h1v1h-1z M23,67h1v1h-1z M24,67h1v1h-1z M26,67h1v1h-1z M27,67h1v1h-1z M28,67h1v1h-1z M29,67h1v1h-1z M30,67h1v1h-1z M31,67h1v1h-1z M34,67h1v1h-1z M35,67h1v1h-1z M37,67h1v1h-1z M38,67h1v1h-1z M41,67h1v1h-1z M44,67h1v1h-1z M45,67h1v1h-1z M49,67h1v1h-1z M50,67h1v1h-1z M51,67h1v1h-1z M54,67h1v1h-1z M55,67h1v1h-1z M56,67h1v1h-1z M58,67h1v1h-1z M59,67h1v1h-1z M63,67h1v1h-1z M65,67h1v1h-1z M66,67h1v1h-1z M67,67h1v1h-1z M68,67h1v1h-1z M70,67h1v1h-1z M74,67h1v1h-1z M75,67h1v1h-1z M76,67h1v1h-1z M77,67h1v1h-1z M79,67h1v1h-1z M82,67h1v1h-1z M83,67h1v1h-1z M89,67h1v1h-1z M90,67h1v1h-1z M92,67h1v1h-1z M93,67h1v1h-1z M97,67h1v1h-1z M98,67h1v1h-1z M99,67h1v1h-1z M101,67h1v1h-1z M103,67h1v1h-1z M5,68h1v1h-1z M6,68h1v1h-1z M7,68h1v1h-1z M8,68h1v1h-1z M9,68h1v1h-1z M10,68h1v1h-1z M11,68h1v1h-1z M12,68h1v1h-1z M16,68h1v1h-1z M17,68h1v1h-1z M18,68h1v1h-1z M25,68h1v1h-1z M30,68h1v1h-1z M31,68h1v1h-1z M32,68h1v1h-1z M33,68h1v1h-1z M35,68h1v1h-1z M37,68h1v1h-1z M40,68h1v1h-1z M43,68h1v1h-1z M44,68h1v1h-1z M45,68h1v1h-1z M49,68h1v1h-1z M51,68h1v1h-1z M52,68h1v1h-1z M54,68h1v1h-1z M56,68h1v1h-1z M57,68h1v1h-1z M58,68h1v1h-1z M61,68h1v1h-1z M62,68h1v1h-1z M65,68h1v1h-1z M66,68h1v1h-1z M69,68h1v1h-1z M70,68h1v1h-1z M72,68h1v1h-1z M73,68h1v1h-1z M74,68h1v1h-1z M78,68h1v1h-1z M79,68h1v1h-1z M81,68h1v1h-1z M82,68h1v1h-1z M83,68h1v1h-1z M85,68h1v1h-1z M90,68h1v1h-1z M91,68h1v1h-1z M92,68h1v1h-1z M96,68h1v1h-1z M97,68h1v1h-1z M99,68h1v1h-1z M100,68h1v1h-1z M101,68h1v1h-1z M102,68h1v1h-1z M103,68h1v1h-1z M105,68h1v1h-1z M106,68h1v1h-1z M108,68h1v1h-1z M5,69h1v1h-1z M6,69h1v1h-1z M8,69h1v1h-1z M9,69h1v1h-1z M15,69h1v1h-1z M17,69h1v1h-1z M18,69h1v1h-1z M20,69h1v1h-1z M21,69h1v1h-1z M24,69h1v1h-1z M26,69h1v1h-1z M29,69h1v1h-1z M31,69h1v1h-1z M33,69h1v1h-1z M35,69h1v1h-1z M36,69h1v1h-1z M37,69h1v1h-1z M38,69h1v1h-1z M39,69h1v1h-1z M40,69h1v1h-1z M45,69h1v1h-1z M46,69h1v1h-1z M47,69h1v1h-1z M50,69h1v1h-1z M51,69h1v1h-1z M53,69h1v1h-1z M55,69h1v1h-1z M60,69h1v1h-1z M61,69h1v1h-1z M62,69h1v1h-1z M64,69h1v1h-1z M66,69h1v1h-1z M67,69h1v1h-1z M71,69h1v1h-1z M72,69h1v1h-1z M77,69h1v1h-1z M78,69h1v1h-1z M79,69h1v1h-1z M81,69h1v1h-1z M82,69h1v1h-1z M83,69h1v1h-1z M87,69h1v1h-1z M90,69h1v1h-1z M92,69h1v1h-1z M94,69h1v1h-1z M95,69h1v1h-1z M99,69h1v1h-1z M100,69h1v1h-1z M102,69h1v1h-1z M107,69h1v1h-1z M5,70h1v1h-1z M8,70h1v1h-1z M9,70h1v1h-1z M10,70h1v1h-1z M18,70h1v1h-1z M21,70h1v1h-1z M22,70h1v1h-1z M25,70h1v1h-1z M29,70h1v1h-1z M30,70h1v1h-1z M31,70h1v1h-1z M35,70h1v1h-1z M36,70h1v1h-1z M38,70h1v1h-1z M39,70h1v1h-1z M40,70h1v1h-1z M41,70h1v1h-1z M43,70h1v1h-1z M50,70h1v1h-1z M51,70h1v1h-1z M60,70h1v1h-1z M62,70h1v1h-1z M64,70h1v1h-1z M65,70h1v1h-1z M67,70h1v1h-1z M71,70h1v1h-1z M74,70h1v1h-1z M77,70h1v1h-1z M80,70h1v1h-1z M86,70h1v1h-1z M87,70h1v1h-1z M88,70h1v1h-1z M89,70h1v1h-1z M95,70h1v1h-1z M96,70h1v1h-1z M98,70h1v1h-1z M99,70h1v1h-1z M100,70h1v1h-1z M102,70h1v1h-1z M106,70h1v1h-1z M107,70h1v1h-1z M108,70h1v1h-1z M5,71h1v1h-1z M6,71h1v1h-1z M7,71h1v1h-1z M8,71h1v1h-1z M9,71h1v1h-1z M15,71h1v1h-1z M18,71h1v1h-1z M22,71h1v1h-1z M23,71h1v1h-1z M24,71h1v1h-1z M25,71h1v1h-1z M26,71h1v1h-1z M28,71h1v1h-1z M30,71h1v1h-1z M32,71h1v1h-1z M33,71h1v1h-1z M34,71h1v1h-1z M35,71h1v1h-1z M37,71h1v1h-1z M41,71h1v1h-1z M43,71h1v1h-1z M44,71h1v1h-1z M45,71h1v1h-1z M47,71h1v1h-1z M52,71h1v1h-1z M54,71h1v1h-1z M56,71h1v1h-1z M57,71h1v1h-1z M58,71h1v1h-1z M59,71h1v1h-1z M61,71h1v1h-1z M62,71h1v1h-1z M68,71h1v1h-1z M70,71h1v1h-1z M71,71h1v1h-1z M73,71h1v1h-1z M76,71h1v1h-1z M77,71h1v1h-1z M80,71h1v1h-1z M83,71h1v1h-1z M86,71h1v1h-1z M91,71h1v1h-1z M92,71h1v1h-1z M93,71h1v1h-1z M98,71h1v1h-1z M99,71h1v1h-1z M101,71h1v1h-1z M103,71h1v1h-1z M107,71h1v1h-1z M108,71h1v1h-1z M6,72h1v1h-1z M8,72h1v1h-1z M10,72h1v1h-1z M12,72h1v1h-1z M14,72h1v1h-1z M18,72h1v1h-1z M19,72h1v1h-1z M22,72h1v1h-1z M24,72h1v1h-1z M25,72h1v1h-1z M28,72h1v1h-1z M30,72h1v1h-1z M31,72h1v1h-1z M32,72h1v1h-1z M35,72h1v1h-1z M36,72h1v1h-1z M38,72h1v1h-1z M39,72h1v1h-1z M40,72h1v1h-1z M42,72h1v1h-1z M44,72h1v1h-1z M47,72h1v1h-1z M51,72h1v1h-1z M52,72h1v1h-1z M54,72h1v1h-1z M55,72h1v1h-1z M56,72h1v1h-1z M57,72h1v1h-1z M58,72h1v1h-1z M59,72h1v1h-1z M63,72h1v1h-1z M64,72h1v1h-1z M65,72h1v1h-1z M67,72h1v1h-1z M70,72h1v1h-1z M71,72h1v1h-1z M74,72h1v1h-1z M76,72h1v1h-1z M77,72h1v1h-1z M78,72h1v1h-1z M82,72h1v1h-1z M83,72h1v1h-1z M84,72h1v1h-1z M85,72h1v1h-1z M87,72h1v1h-1z M90,72h1v1h-1z M91,72h1v1h-1z M95,72h1v1h-1z M97,72h1v1h-1z M99,72h1v1h-1z M102,72h1v1h-1z M103,72h1v1h-1z M106,72h1v1h-1z M107,72h1v1h-1z M108,72h1v1h-1z M6,73h1v1h-1z M8,73h1v1h-1z M9,73h1v1h-1z M11,73h1v1h-1z M12,73h1v1h-1z M14,73h1v1h-1z M15,73h1v1h-1z M18,73h1v1h-1z M19,73h1v1h-1z M21,73h1v1h-1z M23,73h1v1h-1z M25,73h1v1h-1z M27,73h1v1h-1z M31,73h1v1h-1z M34,73h1v1h-1z M36,73h1v1h-1z M38,73h1v1h-1z M39,73h1v1h-1z M40,73h1v1h-1z M41,73h1v1h-1z M42,73h1v1h-1z M45,73h1v1h-1z M46,73h1v1h-1z M49,73h1v1h-1z M50,73h1v1h-1z M54,73h1v1h-1z M55,73h1v1h-1z M59,73h1v1h-1z M60,73h1v1h-1z M61,73h1v1h-1z M64,73h1v1h-1z M68,73h1v1h-1z M71,73h1v1h-1z M76,73h1v1h-1z M79,73h1v1h-1z M83,73h1v1h-1z M84,73h1v1h-1z M86,73h1v1h-1z M87,73h1v1h-1z M89,73h1v1h-1z M91,73h1v1h-1z M93,73h1v1h-1z M94,73h1v1h-1z M95,73h1v1h-1z M100,73h1v1h-1z M101,73h1v1h-1z M102,73h1v1h-1z M106,73h1v1h-1z M107,73h1v1h-1z M5,74h1v1h-1z M7,74h1v1h-1z M9,74h1v1h-1z M10,74h1v1h-1z M13,74h1v1h-1z M15,74h1v1h-1z M17,74h1v1h-1z M18,74h1v1h-1z M19,74h1v1h-1z M20,74h1v1h-1z M21,74h1v1h-1z M22,74h1v1h-1z M23,74h1v1h-1z M24,74h1v1h-1z M25,74h1v1h-1z M30,74h1v1h-1z M31,74h1v1h-1z M33,74h1v1h-1z M35,74h1v1h-1z M38,74h1v1h-1z M39,74h1v1h-1z M41,74h1v1h-1z M43,74h1v1h-1z M44,74h1v1h-1z M48,74h1v1h-1z M50,74h1v1h-1z M51,74h1v1h-1z M53,74h1v1h-1z M59,74h1v1h-1z M62,74h1v1h-1z M63,74h1v1h-1z M64,74h1v1h-1z M65,74h1v1h-1z M71,74h1v1h-1z M72,74h1v1h-1z M73,74h1v1h-1z M74,74h1v1h-1z M77,74h1v1h-1z M78,74h1v1h-1z M80,74h1v1h-1z M81,74h1v1h-1z M84,74h1v1h-1z M86,74h1v1h-1z M87,74h1v1h-1z M88,74h1v1h-1z M89,74h1v1h-1z M92,74h1v1h-1z M95,74h1v1h-1z M96,74h1v1h-1z M98,74h1v1h-1z M101,74h1v1h-1z M102,74h1v1h-1z M103,74h1v1h-1z M105,74h1v1h-1z M106,74h1v1h-1z M107,74h1v1h-1z M4,75h1v1h-1z M5,75h1v1h-1z M6,75h1v1h-1z M7,75h1v1h-1z M8,75h1v1h-1z M11,75h1v1h-1z M13,75h1v1h-1z M14,75h1v1h-1z M16,75h1v1h-1z M17,75h1v1h-1z M19,75h1v1h-1z M20,75h1v1h-1z M21,75h1v1h-1z M23,75h1v1h-1z M24,75h1v1h-1z M25,75h1v1h-1z M26,75h1v1h-1z M27,75h1v1h-1z M28,75h1v1h-1z M29,75h1v1h-1z M32,75h1v1h-1z M33,75h1v1h-1z M34,75h1v1h-1z M35,75h1v1h-1z M37,75h1v1h-1z M42,75h1v1h-1z M44,75h1v1h-1z M45,75h1v1h-1z M46,75h1v1h-1z M47,75h1v1h-1z M51,75h1v1h-1z M53,75h1v1h-1z M56,75h1v1h-1z M57,75h1v1h-1z M58,75h1v1h-1z M59,75h1v1h-1z M62,75h1v1h-1z M67,75h1v1h-1z M68,75h1v1h-1z M70,75h1v1h-1z M71,75h1v1h-1z M76,75h1v1h-1z M77,75h1v1h-1z M78,75h1v1h-1z M80,75h1v1h-1z M81,75h1v1h-1z M82,75h1v1h-1z M86,75h1v1h-1z M90,75h1v1h-1z M92,75h1v1h-1z M93,75h1v1h-1z M95,75h1v1h-1z M97,75h1v1h-1z M99,75h1v1h-1z M100,75h1v1h-1z M107,75h1v1h-1z M108,75h1v1h-1z M5,76h1v1h-1z M6,76h1v1h-1z M8,76h1v1h-1z M9,76h1v1h-1z M10,76h1v1h-1z M11,76h1v1h-1z M12,76h1v1h-1z M13,76h1v1h-1z M15,76h1v1h-1z M19,76h1v1h-1z M20,76h1v1h-1z M22,76h1v1h-1z M23,76h1v1h-1z M28,76h1v1h-1z M29,76h1v1h-1z M30,76h1v1h-1z M31,76h1v1h-1z M32,76h1v1h-1z M33,76h1v1h-1z M34,76h1v1h-1z M35,76h1v1h-1z M38,76h1v1h-1z M39,76h1v1h-1z M43,76h1v1h-1z M45,76h1v1h-1z M46,76h1v1h-1z M48,76h1v1h-1z M51,76h1v1h-1z M52,76h1v1h-1z M53,76h1v1h-1z M54,76h1v1h-1z M55,76h1v1h-1z M56,76h1v1h-1z M59,76h1v1h-1z M60,76h1v1h-1z M62,76h1v1h-1z M63,76h1v1h-1z M64,76h1v1h-1z M65,76h1v1h-1z M66,76h1v1h-1z M67,76h1v1h-1z M71,76h1v1h-1z M73,76h1v1h-1z M74,76h1v1h-1z M75,76h1v1h-1z M76,76h1v1h-1z M77,76h1v1h-1z M78,76h1v1h-1z M79,76h1v1h-1z M80,76h1v1h-1z M85,76h1v1h-1z M86,76h1v1h-1z M87,76h1v1h-1z M88,76h1v1h-1z M91,76h1v1h-1z M92,76h1v1h-1z M93,76h1v1h-1z M94,76h1v1h-1z M95,76h1v1h-1z M98,76h1v1h-1z M100,76h1v1h-1z M101,76h1v1h-1z M102,76h1v1h-1z M103,76h1v1h-1z M104,76h1v1h-1z M105,76h1v1h-1z M106,76h1v1h-1z M4,77h1v1h-1z M6,77h1v1h-1z M7,77h1v1h-1z M8,77h1v1h-1z M12,77h1v1h-1z M13,77h1v1h-1z M15,77h1v1h-1z M23,77h1v1h-1z M25,77h1v1h-1z M28,77h1v1h-1z M32,77h1v1h-1z M34,77h1v1h-1z M35,77h1v1h-1z M36,77h1v1h-1z M38,77h1v1h-1z M41,77h1v1h-1z M42,77h1v1h-1z M43,77h1v1h-1z M44,77h1v1h-1z M45,77h1v1h-1z M47,77h1v1h-1z M48,77h1v1h-1z M49,77h1v1h-1z M51,77h1v1h-1z M52,77h1v1h-1z M56,77h1v1h-1z M57,77h1v1h-1z M58,77h1v1h-1z M61,77h1v1h-1z M62,77h1v1h-1z M63,77h1v1h-1z M64,77h1v1h-1z M65,77h1v1h-1z M66,77h1v1h-1z M67,77h1v1h-1z M71,77h1v1h-1z M74,77h1v1h-1z M76,77h1v1h-1z M80,77h1v1h-1z M81,77h1v1h-1z M84,77h1v1h-1z M85,77h1v1h-1z M90,77h1v1h-1z M94,77h1v1h-1z M100,77h1v1h-1z M104,77h1v1h-1z M107,77h1v1h-1z M4,78h1v1h-1z M5,78h1v1h-1z M6,78h1v1h-1z M8,78h1v1h-1z M10,78h1v1h-1z M12,78h1v1h-1z M13,78h1v1h-1z M15,78h1v1h-1z M19,78h1v1h-1z M20,78h1v1h-1z M21,78h1v1h-1z M23,78h1v1h-1z M24,78h1v1h-1z M27,78h1v1h-1z M28,78h1v1h-1z M30,78h1v1h-1z M32,78h1v1h-1z M36,78h1v1h-1z M38,78h1v1h-1z M39,78h1v1h-1z M41,78h1v1h-1z M43,78h1v1h-1z M47,78h1v1h-1z M48,78h1v1h-1z M49,78h1v1h-1z M50,78h1v1h-1z M51,78h1v1h-1z M52,78h1v1h-1z M54,78h1v1h-1z M56,78h1v1h-1z M59,78h1v1h-1z M60,78h1v1h-1z M62,78h1v1h-1z M63,78h1v1h-1z M64,78h1v1h-1z M65,78h1v1h-1z M67,78h1v1h-1z M72,78h1v1h-1z M74,78h1v1h-1z M75,78h1v1h-1z M76,78h1v1h-1z M78,78h1v1h-1z M80,78h1v1h-1z M83,78h1v1h-1z M84,78h1v1h-1z M86,78h1v1h-1z M88,78h1v1h-1z M89,78h1v1h-1z M93,78h1v1h-1z M95,78h1v1h-1z M96,78h1v1h-1z M98,78h1v1h-1z M100,78h1v1h-1z M102,78h1v1h-1z M104,78h1v1h-1z M107,78h1v1h-1z M6,79h1v1h-1z M7,79h1v1h-1z M8,79h1v1h-1z M12,79h1v1h-1z M13,79h1v1h-1z M19,79h1v1h-1z M20,79h1v1h-1z M21,79h1v1h-1z M25,79h1v1h-1z M28,79h1v1h-1z M32,79h1v1h-1z M33,79h1v1h-1z M35,79h1v1h-1z M41,79h1v1h-1z M44,79h1v1h-1z M45,79h1v1h-1z M47,79h1v1h-1z M52,79h1v1h-1z M56,79h1v1h-1z M61,79h1v1h-1z M66,79h1v1h-1z M68,79h1v1h-1z M69,79h1v1h-1z M71,79h1v1h-1z M75,79h1v1h-1z M76,79h1v1h-1z M80,79h1v1h-1z M81,79h1v1h-1z M83,79h1v1h-1z M85,79h1v1h-1z M90,79h1v1h-1z M92,79h1v1h-1z M94,79h1v1h-1z M95,79h1v1h-1z M97,79h1v1h-1z M99,79h1v1h-1z M100,79h1v1h-1z M104,79h1v1h-1z M108,79h1v1h-1z M7,80h1v1h-1z M8,80h1v1h-1z M9,80h1v1h-1z M10,80h1v1h-1z M11,80h1v1h-1z M12,80h1v1h-1z M14,80h1v1h-1z M16,80h1v1h-1z M18,80h1v1h-1z M22,80h1v1h-1z M25,80h1v1h-1z M26,80h1v1h-1z M27,80h1v1h-1z M28,80h1v1h-1z M29,80h1v1h-1z M30,80h1v1h-1z M31,80h1v1h-1z M32,80h1v1h-1z M33,80h1v1h-1z M37,80h1v1h-1z M39,80h1v1h-1z M43,80h1v1h-1z M44,80h1v1h-1z M45,80h1v1h-1z M52,80h1v1h-1z M53,80h1v1h-1z M54,80h1v1h-1z M55,80h1v1h-1z M56,80h1v1h-1z M57,80h1v1h-1z M59,80h1v1h-1z M61,80h1v1h-1z M62,80h1v1h-1z M66,80h1v1h-1z M68,80h1v1h-1z M70,80h1v1h-1z M72,80h1v1h-1z M73,80h1v1h-1z M74,80h1v1h-1z M75,80h1v1h-1z M76,80h1v1h-1z M77,80h1v1h-1z M78,80h1v1h-1z M79,80h1v1h-1z M80,80h1v1h-1z M81,80h1v1h-1z M84,80h1v1h-1z M86,80h1v1h-1z M89,80h1v1h-1z M90,80h1v1h-1z M91,80h1v1h-1z M93,80h1v1h-1z M94,80h1v1h-1z M96,80h1v1h-1z M97,80h1v1h-1z M98,80h1v1h-1z M99,80h1v1h-1z M100,80h1v1h-1z M101,80h1v1h-1z M102,80h1v1h-1z M103,80h1v1h-1z M104,80h1v1h-1z M105,80h1v1h-1z M106,80h1v1h-1z M108,80h1v1h-1z M8,81h1v1h-1z M13,81h1v1h-1z M17,81h1v1h-1z M22,81h1v1h-1z M23,81h1v1h-1z M25,81h1v1h-1z M26,81h1v1h-1z M28,81h1v1h-1z M30,81h1v1h-1z M32,81h1v1h-1z M34,81h1v1h-1z M35,81h1v1h-1z M37,81h1v1h-1z M38,81h1v1h-1z M39,81h1v1h-1z M40,81h1v1h-1z M41,81h1v1h-1z M42,81h1v1h-1z M43,81h1v1h-1z M45,81h1v1h-1z M46,81h1v1h-1z M48,81h1v1h-1z M49,81h1v1h-1z M54,81h1v1h-1z M56,81h1v1h-1z M57,81h1v1h-1z M59,81h1v1h-1z M60,81h1v1h-1z M61,81h1v1h-1z M62,81h1v1h-1z M63,81h1v1h-1z M64,81h1v1h-1z M65,81h1v1h-1z M66,81h1v1h-1z M67,81h1v1h-1z M72,81h1v1h-1z M73,81h1v1h-1z M74,81h1v1h-1z M76,81h1v1h-1z M78,81h1v1h-1z M79,81h1v1h-1z M81,81h1v1h-1z M83,81h1v1h-1z M84,81h1v1h-1z M85,81h1v1h-1z M87,81h1v1h-1z M94,81h1v1h-1z M95,81h1v1h-1z M96,81h1v1h-1z M97,81h1v1h-1z M100,81h1v1h-1z M103,81h1v1h-1z M106,81h1v1h-1z M107,81h1v1h-1z M108,81h1v1h-1z M4,82h1v1h-1z M5,82h1v1h-1z M6,82h1v1h-1z M8,82h1v1h-1z M9,82h1v1h-1z M10,82h1v1h-1z M12,82h1v1h-1z M13,82h1v1h-1z M14,82h1v1h-1z M15,82h1v1h-1z M17,82h1v1h-1z M18,82h1v1h-1z M23,82h1v1h-1z M32,82h1v1h-1z M36,82h1v1h-1z M37,82h1v1h-1z M38,82h1v1h-1z M40,82h1v1h-1z M41,82h1v1h-1z M43,82h1v1h-1z M44,82h1v1h-1z M47,82h1v1h-1z M50,82h1v1h-1z M51,82h1v1h-1z M53,82h1v1h-1z M56,82h1v1h-1z M59,82h1v1h-1z M60,82h1v1h-1z M62,82h1v1h-1z M63,82h1v1h-1z M67,82h1v1h-1z M69,82h1v1h-1z M72,82h1v1h-1z M74,82h1v1h-1z M75,82h1v1h-1z M76,82h1v1h-1z M77,82h1v1h-1z M80,82h1v1h-1z M83,82h1v1h-1z M84,82h1v1h-1z M86,82h1v1h-1z M89,82h1v1h-1z M91,82h1v1h-1z M93,82h1v1h-1z M96,82h1v1h-1z M98,82h1v1h-1z M101,82h1v1h-1z M107,82h1v1h-1z M6,83h1v1h-1z M7,83h1v1h-1z M8,83h1v1h-1z M12,83h1v1h-1z M14,83h1v1h-1z M16,83h1v1h-1z M17,83h1v1h-1z M21,83h1v1h-1z M22,83h1v1h-1z M23,83h1v1h-1z M25,83h1v1h-1z M26,83h1v1h-1z M27,83h1v1h-1z M28,83h1v1h-1z M29,83h1v1h-1z M30,83h1v1h-1z M31,83h1v1h-1z M33,83h1v1h-1z M35,83h1v1h-1z M44,83h1v1h-1z M45,83h1v1h-1z M47,83h1v1h-1z M52,83h1v1h-1z M55,83h1v1h-1z M56,83h1v1h-1z M59,83h1v1h-1z M61,83h1v1h-1z M65,83h1v1h-1z M66,83h1v1h-1z M68,83h1v1h-1z M69,83h1v1h-1z M70,83h1v1h-1z M71,83h1v1h-1z M76,83h1v1h-1z M83,83h1v1h-1z M86,83h1v1h-1z M92,83h1v1h-1z M93,83h1v1h-1z M94,83h1v1h-1z M95,83h1v1h-1z M97,83h1v1h-1z M99,83h1v1h-1z M100,83h1v1h-1z M101,83h1v1h-1z M104,83h1v1h-1z M107,83h1v1h-1z M108,83h1v1h-1z M5,84h1v1h-1z M10,84h1v1h-1z M11,84h1v1h-1z M12,84h1v1h-1z M13,84h1v1h-1z M15,84h1v1h-1z M18,84h1v1h-1z M19,84h1v1h-1z M20,84h1v1h-1z M23,84h1v1h-1z M24,84h1v1h-1z M27,84h1v1h-1z M30,84h1v1h-1z M31,84h1v1h-1z M32,84h1v1h-1z M34,84h1v1h-1z M36,84h1v1h-1z M37,84h1v1h-1z M38,84h1v1h-1z M40,84h1v1h-1z M41,84h1v1h-1z M42,84h1v1h-1z M44,84h1v1h-1z M46,84h1v1h-1z M47,84h1v1h-1z M48,84h1v1h-1z M49,84h1v1h-1z M51,84h1v1h-1z M53,84h1v1h-1z M55,84h1v1h-1z M56,84h1v1h-1z M57,84h1v1h-1z M61,84h1v1h-1z M63,84h1v1h-1z M65,84h1v1h-1z M67,84h1v1h-1z M69,84h1v1h-1z M70,84h1v1h-1z M72,84h1v1h-1z M74,84h1v1h-1z M75,84h1v1h-1z M76,84h1v1h-1z M77,84h1v1h-1z M78,84h1v1h-1z M80,84h1v1h-1z M83,84h1v1h-1z M85,84h1v1h-1z M86,84h1v1h-1z M88,84h1v1h-1z M89,84h1v1h-1z M90,84h1v1h-1z M91,84h1v1h-1z M93,84h1v1h-1z M94,84h1v1h-1z M95,84h1v1h-1z M96,84h1v1h-1z M97,84h1v1h-1z M98,84h1v1h-1z M102,84h1v1h-1z M104,84h1v1h-1z M105,84h1v1h-1z M106,84h1v1h-1z M108,84h1v1h-1z M4,85h1v1h-1z M7,85h1v1h-1z M9,85h1v1h-1z M15,85h1v1h-1z M18,85h1v1h-1z M22,85h1v1h-1z M24,85h1v1h-1z M25,85h1v1h-1z M28,85h1v1h-1z M30,85h1v1h-1z M32,85h1v1h-1z M40,85h1v1h-1z M44,85h1v1h-1z M45,85h1v1h-1z M48,85h1v1h-1z M50,85h1v1h-1z M54,85h1v1h-1z M56,85h1v1h-1z M57,85h1v1h-1z M59,85h1v1h-1z M60,85h1v1h-1z M62,85h1v1h-1z M63,85h1v1h-1z M65,85h1v1h-1z M66,85h1v1h-1z M67,85h1v1h-1z M68,85h1v1h-1z M70,85h1v1h-1z M72,85h1v1h-1z M74,85h1v1h-1z M78,85h1v1h-1z M79,85h1v1h-1z M80,85h1v1h-1z M84,85h1v1h-1z M89,85h1v1h-1z M90,85h1v1h-1z M91,85h1v1h-1z M95,85h1v1h-1z M96,85h1v1h-1z M98,85h1v1h-1z M100,85h1v1h-1z M102,85h1v1h-1z M103,85h1v1h-1z M105,85h1v1h-1z M6,86h1v1h-1z M7,86h1v1h-1z M8,86h1v1h-1z M10,86h1v1h-1z M12,86h1v1h-1z M18,86h1v1h-1z M21,86h1v1h-1z M23,86h1v1h-1z M24,86h1v1h-1z M25,86h1v1h-1z M26,86h1v1h-1z M28,86h1v1h-1z M32,86h1v1h-1z M38,86h1v1h-1z M40,86h1v1h-1z M41,86h1v1h-1z M43,86h1v1h-1z M44,86h1v1h-1z M47,86h1v1h-1z M48,86h1v1h-1z M49,86h1v1h-1z M50,86h1v1h-1z M51,86h1v1h-1z M52,86h1v1h-1z M53,86h1v1h-1z M56,86h1v1h-1z M60,86h1v1h-1z M62,86h1v1h-1z M65,86h1v1h-1z M71,86h1v1h-1z M74,86h1v1h-1z M75,86h1v1h-1z M76,86h1v1h-1z M77,86h1v1h-1z M78,86h1v1h-1z M80,86h1v1h-1z M84,86h1v1h-1z M86,86h1v1h-1z M88,86h1v1h-1z M89,86h1v1h-1z M91,86h1v1h-1z M92,86h1v1h-1z M98,86h1v1h-1z M101,86h1v1h-1z M104,86h1v1h-1z M105,86h1v1h-1z M106,86h1v1h-1z M107,86h1v1h-1z M8,87h1v1h-1z M11,87h1v1h-1z M16,87h1v1h-1z M17,87h1v1h-1z M19,87h1v1h-1z M23,87h1v1h-1z M25,87h1v1h-1z M28,87h1v1h-1z M29,87h1v1h-1z M33,87h1v1h-1z M34,87h1v1h-1z M35,87h1v1h-1z M41,87h1v1h-1z M42,87h1v1h-1z M44,87h1v1h-1z M45,87h1v1h-1z M51,87h1v1h-1z M53,87h1v1h-1z M55,87h1v1h-1z M56,87h1v1h-1z M57,87h1v1h-1z M59,87h1v1h-1z M61,87h1v1h-1z M67,87h1v1h-1z M68,87h1v1h-1z M70,87h1v1h-1z M71,87h1v1h-1z M73,87h1v1h-1z M74,87h1v1h-1z M78,87h1v1h-1z M79,87h1v1h-1z M81,87h1v1h-1z M85,87h1v1h-1z M87,87h1v1h-1z M92,87h1v1h-1z M94,87h1v1h-1z M95,87h1v1h-1z M98,87h1v1h-1z M99,87h1v1h-1z M100,87h1v1h-1z M101,87h1v1h-1z M102,87h1v1h-1z M103,87h1v1h-1z M107,87h1v1h-1z M108,87h1v1h-1z M4,88h1v1h-1z M5,88h1v1h-1z M6,88h1v1h-1z M7,88h1v1h-1z M8,88h1v1h-1z M9,88h1v1h-1z M10,88h1v1h-1z M11,88h1v1h-1z M13,88h1v1h-1z M14,88h1v1h-1z M17,88h1v1h-1z M21,88h1v1h-1z M22,88h1v1h-1z M23,88h1v1h-1z M25,88h1v1h-1z M26,88h1v1h-1z M27,88h1v1h-1z M29,88h1v1h-1z M33,88h1v1h-1z M34,88h1v1h-1z M37,88h1v1h-1z M38,88h1v1h-1z M42,88h1v1h-1z M43,88h1v1h-1z M44,88h1v1h-1z M45,88h1v1h-1z M46,88h1v1h-1z M47,88h1v1h-1z M49,88h1v1h-1z M51,88h1v1h-1z M58,88h1v1h-1z M60,88h1v1h-1z M61,88h1v1h-1z M63,88h1v1h-1z M64,88h1v1h-1z M66,88h1v1h-1z M69,88h1v1h-1z M70,88h1v1h-1z M71,88h1v1h-1z M73,88h1v1h-1z M75,88h1v1h-1z M78,88h1v1h-1z M82,88h1v1h-1z M83,88h1v1h-1z M86,88h1v1h-1z M89,88h1v1h-1z M92,88h1v1h-1z M93,88h1v1h-1z M94,88h1v1h-1z M95,88h1v1h-1z M96,88h1v1h-1z M100,88h1v1h-1z M101,88h1v1h-1z M103,88h1v1h-1z M104,88h1v1h-1z M105,88h1v1h-1z M6,89h1v1h-1z M9,89h1v1h-1z M13,89h1v1h-1z M15,89h1v1h-1z M19,89h1v1h-1z M20,89h1v1h-1z M22,89h1v1h-1z M23,89h1v1h-1z M25,89h1v1h-1z M28,89h1v1h-1z M30,89h1v1h-1z M31,89h1v1h-1z M37,89h1v1h-1z M38,89h1v1h-1z M40,89h1v1h-1z M41,89h1v1h-1z M42,89h1v1h-1z M43,89h1v1h-1z M44,89h1v1h-1z M48,89h1v1h-1z M49,89h1v1h-1z M50,89h1v1h-1z M52,89h1v1h-1z M54,89h1v1h-1z M57,89h1v1h-1z M59,89h1v1h-1z M62,89h1v1h-1z M64,89h1v1h-1z M65,89h1v1h-1z M66,89h1v1h-1z M67,89h1v1h-1z M69,89h1v1h-1z M71,89h1v1h-1z M73,89h1v1h-1z M76,89h1v1h-1z M78,89h1v1h-1z M80,89h1v1h-1z M81,89h1v1h-1z M82,89h1v1h-1z M83,89h1v1h-1z M85,89h1v1h-1z M86,89h1v1h-1z M88,89h1v1h-1z M89,89h1v1h-1z M91,89h1v1h-1z M94,89h1v1h-1z M97,89h1v1h-1z M98,89h1v1h-1z M103,89h1v1h-1z M105,89h1v1h-1z M106,89h1v1h-1z M107,89h1v1h-1z M4,90h1v1h-1z M7,90h1v1h-1z M8,90h1v1h-1z M9,90h1v1h-1z M10,90h1v1h-1z M11,90h1v1h-1z M12,90h1v1h-1z M13,90h1v1h-1z M15,90h1v1h-1z M18,90h1v1h-1z M19,90h1v1h-1z M21,90h1v1h-1z M22,90h1v1h-1z M23,90h1v1h-1z M24,90h1v1h-1z M26,90h1v1h-1z M27,90h1v1h-1z M32,90h1v1h-1z M35,90h1v1h-1z M36,90h1v1h-1z M38,90h1v1h-1z M41,90h1v1h-1z M43,90h1v1h-1z M47,90h1v1h-1z M50,90h1v1h-1z M52,90h1v1h-1z M53,90h1v1h-1z M56,90h1v1h-1z M61,90h1v1h-1z M62,90h1v1h-1z M63,90h1v1h-1z M64,90h1v1h-1z M65,90h1v1h-1z M67,90h1v1h-1z M68,90h1v1h-1z M69,90h1v1h-1z M71,90h1v1h-1z M72,90h1v1h-1z M74,90h1v1h-1z M75,90h1v1h-1z M78,90h1v1h-1z M80,90h1v1h-1z M83,90h1v1h-1z M86,90h1v1h-1z M89,90h1v1h-1z M91,90h1v1h-1z M92,90h1v1h-1z M97,90h1v1h-1z M98,90h1v1h-1z M99,90h1v1h-1z M100,90h1v1h-1z M101,90h1v1h-1z M4,91h1v1h-1z M5,91h1v1h-1z M7,91h1v1h-1z M8,91h1v1h-1z M15,91h1v1h-1z M16,91h1v1h-1z M17,91h1v1h-1z M21,91h1v1h-1z M23,91h1v1h-1z M24,91h1v1h-1z M25,91h1v1h-1z M26,91h1v1h-1z M28,91h1v1h-1z M29,91h1v1h-1z M31,91h1v1h-1z M32,91h1v1h-1z M34,91h1v1h-1z M35,91h1v1h-1z M41,91h1v1h-1z M42,91h1v1h-1z M44,91h1v1h-1z M46,91h1v1h-1z M47,91h1v1h-1z M49,91h1v1h-1z M51,91h1v1h-1z M53,91h1v1h-1z M56,91h1v1h-1z M58,91h1v1h-1z M59,91h1v1h-1z M63,91h1v1h-1z M65,91h1v1h-1z M66,91h1v1h-1z M68,91h1v1h-1z M70,91h1v1h-1z M71,91h1v1h-1z M76,91h1v1h-1z M78,91h1v1h-1z M79,91h1v1h-1z M80,91h1v1h-1z M81,91h1v1h-1z M83,91h1v1h-1z M85,91h1v1h-1z M86,91h1v1h-1z M89,91h1v1h-1z M90,91h1v1h-1z M92,91h1v1h-1z M93,91h1v1h-1z M95,91h1v1h-1z M102,91h1v1h-1z M104,91h1v1h-1z M107,91h1v1h-1z M108,91h1v1h-1z M4,92h1v1h-1z M6,92h1v1h-1z M7,92h1v1h-1z M9,92h1v1h-1z M10,92h1v1h-1z M11,92h1v1h-1z M12,92h1v1h-1z M13,92h1v1h-1z M16,92h1v1h-1z M18,92h1v1h-1z M20,92h1v1h-1z M21,92h1v1h-1z M22,92h1v1h-1z M24,92h1v1h-1z M27,92h1v1h-1z M31,92h1v1h-1z M32,92h1v1h-1z M33,92h1v1h-1z M34,92h1v1h-1z M37,92h1v1h-1z M39,92h1v1h-1z M40,92h1v1h-1z M41,92h1v1h-1z M43,92h1v1h-1z M49,92h1v1h-1z M53,92h1v1h-1z M54,92h1v1h-1z M57,92h1v1h-1z M59,92h1v1h-1z M60,92h1v1h-1z M63,92h1v1h-1z M64,92h1v1h-1z M65,92h1v1h-1z M69,92h1v1h-1z M70,92h1v1h-1z M71,92h1v1h-1z M72,92h1v1h-1z M73,92h1v1h-1z M74,92h1v1h-1z M75,92h1v1h-1z M76,92h1v1h-1z M78,92h1v1h-1z M79,92h1v1h-1z M80,92h1v1h-1z M81,92h1v1h-1z M86,92h1v1h-1z M88,92h1v1h-1z M90,92h1v1h-1z M93,92h1v1h-1z M94,92h1v1h-1z M95,92h1v1h-1z M96,92h1v1h-1z M97,92h1v1h-1z M98,92h1v1h-1z M100,92h1v1h-1z M101,92h1v1h-1z M105,92h1v1h-1z M108,92h1v1h-1z M4,93h1v1h-1z M7,93h1v1h-1z M12,93h1v1h-1z M13,93h1v1h-1z M14,93h1v1h-1z M15,93h1v1h-1z M18,93h1v1h-1z M20,93h1v1h-1z M21,93h1v1h-1z M23,93h1v1h-1z M24,93h1v1h-1z M30,93h1v1h-1z M32,93h1v1h-1z M34,93h1v1h-1z M36,93h1v1h-1z M38,93h1v1h-1z M40,93h1v1h-1z M41,93h1v1h-1z M42,93h1v1h-1z M46,93h1v1h-1z M48,93h1v1h-1z M50,93h1v1h-1z M52,93h1v1h-1z M53,93h1v1h-1z M54,93h1v1h-1z M59,93h1v1h-1z M61,93h1v1h-1z M62,93h1v1h-1z M65,93h1v1h-1z M66,93h1v1h-1z M68,93h1v1h-1z M70,93h1v1h-1z M71,93h1v1h-1z M72,93h1v1h-1z M78,93h1v1h-1z M79,93h1v1h-1z M82,93h1v1h-1z M83,93h1v1h-1z M84,93h1v1h-1z M89,93h1v1h-1z M90,93h1v1h-1z M91,93h1v1h-1z M96,93h1v1h-1z M97,93h1v1h-1z M98,93h1v1h-1z M100,93h1v1h-1z M102,93h1v1h-1z M103,93h1v1h-1z M105,93h1v1h-1z M106,93h1v1h-1z M107,93h1v1h-1z M6,94h1v1h-1z M10,94h1v1h-1z M13,94h1v1h-1z M14,94h1v1h-1z M15,94h1v1h-1z M17,94h1v1h-1z M19,94h1v1h-1z M22,94h1v1h-1z M23,94h1v1h-1z M24,94h1v1h-1z M27,94h1v1h-1z M28,94h1v1h-1z M30,94h1v1h-1z M31,94h1v1h-1z M32,94h1v1h-1z M35,94h1v1h-1z M36,94h1v1h-1z M37,94h1v1h-1z M38,94h1v1h-1z M39,94h1v1h-1z M41,94h1v1h-1z M43,94h1v1h-1z M44,94h1v1h-1z M47,94h1v1h-1z M48,94h1v1h-1z M49,94h1v1h-1z M50,94h1v1h-1z M51,94h1v1h-1z M53,94h1v1h-1z M54,94h1v1h-1z M56,94h1v1h-1z M62,94h1v1h-1z M63,94h1v1h-1z M65,94h1v1h-1z M69,94h1v1h-1z M72,94h1v1h-1z M74,94h1v1h-1z M78,94h1v1h-1z M80,94h1v1h-1z M83,94h1v1h-1z M86,94h1v1h-1z M89,94h1v1h-1z M91,94h1v1h-1z M95,94h1v1h-1z M98,94h1v1h-1z M100,94h1v1h-1z M101,94h1v1h-1z M104,94h1v1h-1z M105,94h1v1h-1z M107,94h1v1h-1z M4,95h1v1h-1z M8,95h1v1h-1z M12,95h1v1h-1z M14,95h1v1h-1z M16,95h1v1h-1z M17,95h1v1h-1z M19,95h1v1h-1z M20,95h1v1h-1z M22,95h1v1h-1z M23,95h1v1h-1z M27,95h1v1h-1z M28,95h1v1h-1z M31,95h1v1h-1z M33,95h1v1h-1z M35,95h1v1h-1z M37,95h1v1h-1z M42,95h1v1h-1z M44,95h1v1h-1z M45,95h1v1h-1z M46,95h1v1h-1z M47,95h1v1h-1z M53,95h1v1h-1z M54,95h1v1h-1z M55,95h1v1h-1z M56,95h1v1h-1z M57,95h1v1h-1z M58,95h1v1h-1z M59,95h1v1h-1z M61,95h1v1h-1z M68,95h1v1h-1z M70,95h1v1h-1z M71,95h1v1h-1z M73,95h1v1h-1z M75,95h1v1h-1z M76,95h1v1h-1z M77,95h1v1h-1z M78,95h1v1h-1z M79,95h1v1h-1z M81,95h1v1h-1z M82,95h1v1h-1z M83,95h1v1h-1z M85,95h1v1h-1z M86,95h1v1h-1z M89,95h1v1h-1z M90,95h1v1h-1z M92,95h1v1h-1z M93,95h1v1h-1z M95,95h1v1h-1z M97,95h1v1h-1z M98,95h1v1h-1z M101,95h1v1h-1z M103,95h1v1h-1z M4,96h1v1h-1z M5,96h1v1h-1z M6,96h1v1h-1z M8,96h1v1h-1z M10,96h1v1h-1z M11,96h1v1h-1z M13,96h1v1h-1z M14,96h1v1h-1z M15,96h1v1h-1z M18,96h1v1h-1z M19,96h1v1h-1z M21,96h1v1h-1z M23,96h1v1h-1z M24,96h1v1h-1z M27,96h1v1h-1z M29,96h1v1h-1z M32,96h1v1h-1z M34,96h1v1h-1z M37,96h1v1h-1z M39,96h1v1h-1z M40,96h1v1h-1z M41,96h1v1h-1z M43,96h1v1h-1z M45,96h1v1h-1z M46,96h1v1h-1z M48,96h1v1h-1z M50,96h1v1h-1z M51,96h1v1h-1z M53,96h1v1h-1z M54,96h1v1h-1z M55,96h1v1h-1z M58,96h1v1h-1z M59,96h1v1h-1z M64,96h1v1h-1z M66,96h1v1h-1z M67,96h1v1h-1z M71,96h1v1h-1z M73,96h1v1h-1z M75,96h1v1h-1z M80,96h1v1h-1z M81,96h1v1h-1z M84,96h1v1h-1z M86,96h1v1h-1z M88,96h1v1h-1z M89,96h1v1h-1z M93,96h1v1h-1z M94,96h1v1h-1z M95,96h1v1h-1z M98,96h1v1h-1z M101,96h1v1h-1z M102,96h1v1h-1z M106,96h1v1h-1z M108,96h1v1h-1z M4,97h1v1h-1z M5,97h1v1h-1z M8,97h1v1h-1z M9,97h1v1h-1z M11,97h1v1h-1z M14,97h1v1h-1z M22,97h1v1h-1z M23,97h1v1h-1z M24,97h1v1h-1z M25,97h1v1h-1z M30,97h1v1h-1z M31,97h1v1h-1z M32,97h1v1h-1z M33,97h1v1h-1z M34,97h1v1h-1z M35,97h1v1h-1z M36,97h1v1h-1z M37,97h1v1h-1z M39,97h1v1h-1z M40,97h1v1h-1z M41,97h1v1h-1z M43,97h1v1h-1z M44,97h1v1h-1z M47,97h1v1h-1z M54,97h1v1h-1z M55,97h1v1h-1z M57,97h1v1h-1z M59,97h1v1h-1z M62,97h1v1h-1z M63,97h1v1h-1z M66,97h1v1h-1z M67,97h1v1h-1z M69,97h1v1h-1z M70,97h1v1h-1z M76,97h1v1h-1z M78,97h1v1h-1z M79,97h1v1h-1z M81,97h1v1h-1z M84,97h1v1h-1z M87,97h1v1h-1z M96,97h1v1h-1z M98,97h1v1h-1z M103,97h1v1h-1z M108,97h1v1h-1z M4,98h1v1h-1z M5,98h1v1h-1z M6,98h1v1h-1z M10,98h1v1h-1z M15,98h1v1h-1z M19,98h1v1h-1z M21,98h1v1h-1z M22,98h1v1h-1z M27,98h1v1h-1z M28,98h1v1h-1z M29,98h1v1h-1z M32,98h1v1h-1z M33,98h1v1h-1z M35,98h1v1h-1z M38,98h1v1h-1z M40,98h1v1h-1z M41,98h1v1h-1z M47,98h1v1h-1z M48,98h1v1h-1z M50,98h1v1h-1z M51,98h1v1h-1z M56,98h1v1h-1z M60,98h1v1h-1z M61,98h1v1h-1z M62,98h1v1h-1z M63,98h1v1h-1z M65,98h1v1h-1z M72,98h1v1h-1z M74,98h1v1h-1z M76,98h1v1h-1z M77,98h1v1h-1z M78,98h1v1h-1z M80,98h1v1h-1z M84,98h1v1h-1z M86,98h1v1h-1z M91,98h1v1h-1z M95,98h1v1h-1z M96,98h1v1h-1z M98,98h1v1h-1z M99,98h1v1h-1z M101,98h1v1h-1z M104,98h1v1h-1z M105,98h1v1h-1z M107,98h1v1h-1z M6,99h1v1h-1z M8,99h1v1h-1z M9,99h1v1h-1z M11,99h1v1h-1z M14,99h1v1h-1z M16,99h1v1h-1z M21,99h1v1h-1z M25,99h1v1h-1z M27,99h1v1h-1z M29,99h1v1h-1z M30,99h1v1h-1z M31,99h1v1h-1z M34,99h1v1h-1z M35,99h1v1h-1z M37,99h1v1h-1z M41,99h1v1h-1z M44,99h1v1h-1z M45,99h1v1h-1z M47,99h1v1h-1z M50,99h1v1h-1z M52,99h1v1h-1z M55,99h1v1h-1z M59,99h1v1h-1z M66,99h1v1h-1z M67,99h1v1h-1z M68,99h1v1h-1z M69,99h1v1h-1z M71,99h1v1h-1z M75,99h1v1h-1z M76,99h1v1h-1z M77,99h1v1h-1z M82,99h1v1h-1z M83,99h1v1h-1z M89,99h1v1h-1z M90,99h1v1h-1z M92,99h1v1h-1z M93,99h1v1h-1z M95,99h1v1h-1z M98,99h1v1h-1z M100,99h1v1h-1z M103,99h1v1h-1z M104,99h1v1h-1z M105,99h1v1h-1z M108,99h1v1h-1z M7,100h1v1h-1z M8,100h1v1h-1z M10,100h1v1h-1z M11,100h1v1h-1z M12,100h1v1h-1z M14,100h1v1h-1z M15,100h1v1h-1z M18,100h1v1h-1z M19,100h1v1h-1z M22,100h1v1h-1z M23,100h1v1h-1z M26,100h1v1h-1z M28,100h1v1h-1z M29,100h1v1h-1z M30,100h1v1h-1z M31,100h1v1h-1z M32,100h1v1h-1z M33,100h1v1h-1z M34,100h1v1h-1z M35,100h1v1h-1z M36,100h1v1h-1z M37,100h1v1h-1z M40,100h1v1h-1z M41,100h1v1h-1z M42,100h1v1h-1z M44,100h1v1h-1z M46,100h1v1h-1z M48,100h1v1h-1z M51,100h1v1h-1z M52,100h1v1h-1z M53,100h1v1h-1z M54,100h1v1h-1z M55,100h1v1h-1z M56,100h1v1h-1z M57,100h1v1h-1z M58,100h1v1h-1z M59,100h1v1h-1z M61,100h1v1h-1z M63,100h1v1h-1z M64,100h1v1h-1z M65,100h1v1h-1z M67,100h1v1h-1z M68,100h1v1h-1z M71,100h1v1h-1z M72,100h1v1h-1z M73,100h1v1h-1z M75,100h1v1h-1z M76,100h1v1h-1z M77,100h1v1h-1z M78,100h1v1h-1z M79,100h1v1h-1z M80,100h1v1h-1z M82,100h1v1h-1z M83,100h1v1h-1z M85,100h1v1h-1z M87,100h1v1h-1z M89,100h1v1h-1z M90,100h1v1h-1z M91,100h1v1h-1z M92,100h1v1h-1z M94,100h1v1h-1z M96,100h1v1h-1z M98,100h1v1h-1z M100,100h1v1h-1z M101,100h1v1h-1z M102,100h1v1h-1z M103,100h1v1h-1z M104,100h1v1h-1z M105,100h1v1h-1z M107,100h1v1h-1z M12,101h1v1h-1z M13,101h1v1h-1z M14,101h1v1h-1z M15,101h1v1h-1z M16,101h1v1h-1z M18,101h1v1h-1z M21,101h1v1h-1z M22,101h1v1h-1z M23,101h1v1h-1z M25,101h1v1h-1z M27,101h1v1h-1z M28,101h1v1h-1z M32,101h1v1h-1z M33,101h1v1h-1z M36,101h1v1h-1z M37,101h1v1h-1z M38,101h1v1h-1z M39,101h1v1h-1z M42,101h1v1h-1z M47,101h1v1h-1z M49,101h1v1h-1z M50,101h1v1h-1z M52,101h1v1h-1z M56,101h1v1h-1z M59,101h1v1h-1z M65,101h1v1h-1z M66,101h1v1h-1z M67,101h1v1h-1z M68,101h1v1h-1z M69,101h1v1h-1z M70,101h1v1h-1z M71,101h1v1h-1z M72,101h1v1h-1z M76,101h1v1h-1z M80,101h1v1h-1z M81,101h1v1h-1z M83,101h1v1h-1z M88,101h1v1h-1z M90,101h1v1h-1z M92,101h1v1h-1z M93,101h1v1h-1z M94,101h1v1h-1z M95,101h1v1h-1z M98,101h1v1h-1z M100,101h1v1h-1z M104,101h1v1h-1z M106,101h1v1h-1z M107,101h1v1h-1z M108,101h1v1h-1z M4,102h1v1h-1z M5,102h1v1h-1z M6,102h1v1h-1z M7,102h1v1h-1z M8,102h1v1h-1z M9,102h1v1h-1z M10,102h1v1h-1z M15,102h1v1h-1z M16,102h1v1h-1z M19,102h1v1h-1z M20,102h1v1h-1z M21,102h1v1h-1z M22,102h1v1h-1z M27,102h1v1h-1z M28,102h1v1h-1z M30,102h1v1h-1z M32,102h1v1h-1z M33,102h1v1h-1z M35,102h1v1h-1z M38,102h1v1h-1z M40,102h1v1h-1z M41,102h1v1h-1z M43,102h1v1h-1z M48,102h1v1h-1z M50,102h1v1h-1z M51,102h1v1h-1z M52,102h1v1h-1z M54,102h1v1h-1z M56,102h1v1h-1z M57,102h1v1h-1z M59,102h1v1h-1z M60,102h1v1h-1z M62,102h1v1h-1z M64,102h1v1h-1z M65,102h1v1h-1z M68,102h1v1h-1z M71,102h1v1h-1z M72,102h1v1h-1z M74,102h1v1h-1z M75,102h1v1h-1z M76,102h1v1h-1z M78,102h1v1h-1z M80,102h1v1h-1z M84,102h1v1h-1z M85,102h1v1h-1z M86,102h1v1h-1z M87,102h1v1h-1z M89,102h1v1h-1z M91,102h1v1h-1z M96,102h1v1h-1z M98,102h1v1h-1z M100,102h1v1h-1z M102,102h1v1h-1z M104,102h1v1h-1z M106,102h1v1h-1z M107,102h1v1h-1z M4,103h1v1h-1z M10,103h1v1h-1z M12,103h1v1h-1z M19,103h1v1h-1z M20,103h1v1h-1z M21,103h1v1h-1z M22,103h1v1h-1z M23,103h1v1h-1z M24,103h1v1h-1z M25,103h1v1h-1z M28,103h1v1h-1z M32,103h1v1h-1z M34,103h1v1h-1z M35,103h1v1h-1z M37,103h1v1h-1z M38,103h1v1h-1z M39,103h1v1h-1z M42,103h1v1h-1z M44,103h1v1h-1z M47,103h1v1h-1z M50,103h1v1h-1z M52,103h1v1h-1z M56,103h1v1h-1z M58,103h1v1h-1z M61,103h1v1h-1z M63,103h1v1h-1z M68,103h1v1h-1z M73,103h1v1h-1z M74,103h1v1h-1z M76,103h1v1h-1z M80,103h1v1h-1z M83,103h1v1h-1z M91,103h1v1h-1z M92,103h1v1h-1z M95,103h1v1h-1z M100,103h1v1h-1z M104,103h1v1h-1z M107,103h1v1h-1z M108,103h1v1h-1z M4,104h1v1h-1z M6,104h1v1h-1z M7,104h1v1h-1z M8,104h1v1h-1z M10,104h1v1h-1z M12,104h1v1h-1z M13,104h1v1h-1z M19,104h1v1h-1z M23,104h1v1h-1z M24,104h1v1h-1z M26,104h1v1h-1z M27,104h1v1h-1z M28,104h1v1h-1z M29,104h1v1h-1z M30,104h1v1h-1z M31,104h1v1h-1z M32,104h1v1h-1z M36,104h1v1h-1z M38,104h1v1h-1z M39,104h1v1h-1z M40,104h1v1h-1z M41,104h1v1h-1z M42,104h1v1h-1z M44,104h1v1h-1z M45,104h1v1h-1z M49,104h1v1h-1z M51,104h1v1h-1z M52,104h1v1h-1z M53,104h1v1h-1z M54,104h1v1h-1z M55,104h1v1h-1z M56,104h1v1h-1z M58,104h1v1h-1z M59,104h1v1h-1z M65,104h1v1h-1z M66,104h1v1h-1z M68,104h1v1h-1z M71,104h1v1h-1z M72,104h1v1h-1z M76,104h1v1h-1z M77,104h1v1h-1z M78,104h1v1h-1z M79,104h1v1h-1z M80,104h1v1h-1z M81,104h1v1h-1z M82,104h1v1h-1z M86,104h1v1h-1z M91,104h1v1h-1z M92,104h1v1h-1z M96,104h1v1h-1z M97,104h1v1h-1z M99,104h1v1h-1z M100,104h1v1h-1z M101,104h1v1h-1z M102,104h1v1h-1z M103,104h1v1h-1z M104,104h1v1h-1z M106,104h1v1h-1z M108,104h1v1h-1z M4,105h1v1h-1z M6,105h1v1h-1z M7,105h1v1h-1z M8,105h1v1h-1z M10,105h1v1h-1z M13,105h1v1h-1z M14,105h1v1h-1z M15,105h1v1h-1z M18,105h1v1h-1z M22,105h1v1h-1z M23,105h1v1h-1z M27,105h1v1h-1z M28,105h1v1h-1z M30,105h1v1h-1z M34,105h1v1h-1z M35,105h1v1h-1z M37,105h1v1h-1z M39,105h1v1h-1z M40,105h1v1h-1z M48,105h1v1h-1z M49,105h1v1h-1z M53,105h1v1h-1z M55,105h1v1h-1z M61,105h1v1h-1z M64,105h1v1h-1z M66,105h1v1h-1z M67,105h1v1h-1z M70,105h1v1h-1z M71,105h1v1h-1z M73,105h1v1h-1z M74,105h1v1h-1z M76,105h1v1h-1z M77,105h1v1h-1z M80,105h1v1h-1z M81,105h1v1h-1z M87,105h1v1h-1z M88,105h1v1h-1z M91,105h1v1h-1z M95,105h1v1h-1z M97,105h1v1h-1z M98,105h1v1h-1z M99,105h1v1h-1z M102,105h1v1h-1z M103,105h1v1h-1z M107,105h1v1h-1z M108,105h1v1h-1z M4,106h1v1h-1z M6,106h1v1h-1z M7,106h1v1h-1z M8,106h1v1h-1z M10,106h1v1h-1z M19,106h1v1h-1z M20,106h1v1h-1z M22,106h1v1h-1z M23,106h1v1h-1z M28,106h1v1h-1z M29,106h1v1h-1z M32,106h1v1h-1z M35,106h1v1h-1z M36,106h1v1h-1z M38,106h1v1h-1z M40,106h1v1h-1z M41,106h1v1h-1z M50,106h1v1h-1z M52,106h1v1h-1z M53,106h1v1h-1z M59,106h1v1h-1z M62,106h1v1h-1z M63,106h1v1h-1z M64,106h1v1h-1z M65,106h1v1h-1z M67,106h1v1h-1z M71,106h1v1h-1z M74,106h1v1h-1z M77,106h1v1h-1z M80,106h1v1h-1z M83,106h1v1h-1z M85,106h1v1h-1z M86,106h1v1h-1z M87,106h1v1h-1z M88,106h1v1h-1z M89,106h1v1h-1z M98,106h1v1h-1z M99,106h1v1h-1z M101,106h1v1h-1z M104,106h1v1h-1z M105,106h1v1h-1z M106,106h1v1h-1z M4,107h1v1h-1z M10,107h1v1h-1z M12,107h1v1h-1z M13,107h1v1h-1z M17,107h1v1h-1z M18,107h1v1h-1z M20,107h1v1h-1z M23,107h1v1h-1z M24,107h1v1h-1z M25,107h1v1h-1z M32,107h1v1h-1z M33,107h1v1h-1z M34,107h1v1h-1z M35,107h1v1h-1z M38,107h1v1h-1z M43,107h1v1h-1z M44,107h1v1h-1z M45,107h1v1h-1z M47,107h1v1h-1z M49,107h1v1h-1z M51,107h1v1h-1z M53,107h1v1h-1z M56,107h1v1h-1z M57,107h1v1h-1z M58,107h1v1h-1z M59,107h1v1h-1z M61,107h1v1h-1z M62,107h1v1h-1z M65,107h1v1h-1z M68,107h1v1h-1z M71,107h1v1h-1z M73,107h1v1h-1z M80,107h1v1h-1z M83,107h1v1h-1z M89,107h1v1h-1z M92,107h1v1h-1z M93,107h1v1h-1z M95,107h1v1h-1z M97,107h1v1h-1z M99,107h1v1h-1z M103,107h1v1h-1z M4,108h1v1h-1z M5,108h1v1h-1z M6,108h1v1h-1z M7,108h1v1h-1z M8,108h1v1h-1z M9,108h1v1h-1z M10,108h1v1h-1z M12,108h1v1h-1z M14,108h1v1h-1z M18,108h1v1h-1z M19,108h1v1h-1z M21,108h1v1h-1z M22,108h1v1h-1z M23,108h1v1h-1z M24,108h1v1h-1z M29,108h1v1h-1z M31,108h1v1h-1z M32,108h1v1h-1z M33,108h1v1h-1z M35,108h1v1h-1z M38,108h1v1h-1z M40,108h1v1h-1z M45,108h1v1h-1z M46,108h1v1h-1z M47,108h1v1h-1z M48,108h1v1h-1z M51,108h1v1h-1z M52,108h1v1h-1z M53,108h1v1h-1z M54,108h1v1h-1z M57,108h1v1h-1z M60,108h1v1h-1z M62,108h1v1h-1z M65,108h1v1h-1z M66,108h1v1h-1z M68,108h1v1h-1z M69,108h1v1h-1z M70,108h1v1h-1z M71,108h1v1h-1z M73,108h1v1h-1z M76,108h1v1h-1z M78,108h1v1h-1z M79,108h1v1h-1z M80,108h1v1h-1z M87,108h1v1h-1z M88,108h1v1h-1z M89,108h1v1h-1z M90,108h1v1h-1z M91,108h1v1h-1z M93,108h1v1h-1z M94,108h1v1h-1z M96,108h1v1h-1z M97,108h1v1h-1z M100,108h1v1h-1z M108,108h1v1h-1z" fill="#000000"/>
</svg>
