<?xml version="1.0" encoding="UTF-8"?>
<!DOCTYPE svg PUBLIC "-//W3C//DTD SVG 1.1//EN" "http://www.w3.org/Graphics/SVG/1.1/DTD/svg11.dtd">
<svg xmlns="http://www.w3.org/2000/svg" version="1.1" viewBox="0 0 113 113" stroke="none">
	<rect width="100%" height="100%" fill="#FFFFFF"/>
	<path d="M4,4h1v1h-1z M5,4h1v1h-1z M6,4h1v1h-1z M7,4h1v1h-1z M8,4h1v1h-1z M9,4h1v1h-1z M10,4h1v1h-1z M12,4h1v1h-1z M13,4h1v1h-1z M14,4h1v1h-1z M16,4h1v1h-1z M17,4h1v1h-1z M18,4h1v1h-1z M19,4h1v1h-1z M20,4h1v1h-1z M26,4h1v1h-1z M27,4h1v1h-1z M28,4h1v1h-1z M29,4h1v1h-1z M32,4h1v1h-1z M34,4h1v1h-1z M35,4h1v1h-1z M41,4h1v1h-1z M42,4h1v1h-1z M43,4h1v1h-1z M47,4h1v1h-1z M51,4h1v1h-1z M52,4h1v1h-1z M54,4h1v1h-1z M56,4h1v1h-1z M57,4h1v1h-1z M60,4h1v1h-1z M61,4h1v1h-1z M62,4h1v1h-1z M65,4h1v1h-1z M66,4h1v1h-1z M68,4h1v1h-1z M69,4h1v1h-1z M72,4h1v1h-1z M74,4h1v1h-1z M76,4h1v1h-1z M77,4h1v1h-1z M79,4h1v1h-1z M84,4h1v1h-1z M85,4h1v1h-1z M87,4h1v1h-1z M88,4h1v1h-1z M89,4h1v1h-1z M91,4h1v1h-1z M92,4h1v1h-1z M94,4h1v1h-1z M95,4h1v1h-1z M96,4h1v1h-1z M97,4h1v1h-1z M98,4h1v1h-1z M102,4h1v1h-1z M103,4h1v1h-1z M104,4h1v1h-1z M105,4h1v1h-1z M106,4h1v1h-1z M107,4h1v1h-1z M108,4h1v1h-1z M4,5h1v1h-1z M10,5h1v1h-1z M12,5h1v1h-1z M13,5h1v1h-1z M17,5h1v1h-1z M18,5h1v1h-1z M20,5h1v1h-1z M21,5h1v1h-1z M28,5h1v1h-1z M30,5h1v1h-1z M33,5h1v1h-1z M34,5h1v1h-1z M35,5h1v1h-1z M37,5h1v1h-1z M40,5h1v1h-1z M42,5h1v1h-1z M43,5h1v1h-1z M45,5h1v1h-1z M46,5h1v1h-1z M47,5h1v1h-1z M49,5h1v1h-1z M54,5h1v1h-1z M55,5h1v1h-1z M56,5h1v1h-1z M57,5h1v1h-1z M58,5h1v1h-1z M59,5h1v1h-1z M61,5h1v1h-1z M66,5h1v1h-1z M67,5h1v1h-1z M68,5h1v1h-1z M70,5h1v1h-1z M73,5h1v1h-1z M75,5h1v1h-1z M76,5h1v1h-1z M77,5h1v1h-1z M78,5h1v1h-1z M80,5h1v1h-1z M81,5h1v1h-1z M82,5h1v1h-1z M83,5h1v1h-1z M88,5h1v1h-1z M90,5h1v1h-1z M91,5h1v1h-1z M92,5h1v1h-1z M93,5h1v1h-1z M94,5h1v1h-1z M98,5h1v1h-1z M102,5h1v1h-1z M108,5h1v1h-1z M4,6h1v1h-1z M6,6h1v1h-1z M7,6h1v1h-1z M8,6h1v1h-1z M10,6h1v1h-1z M12,6h1v1h-1z M13,6h1v1h-1z M14,6h1v1h-1z M15,6h1v1h-1z M17,6h1v1h-1z M19,6h1v1h-1z M22,6h1v1h-1z M23,6h1v1h-1z M24,6h1v1h-1z M25,6h1v1h-1z M26,6h1v1h-1z M32,6h1v1h-1z M34,6h1v1h-1z M35,6h1v1h-1z M37,6h1v1h-1z M41,6h1v1h-1z M42,6h1v1h-1z M44,6h1v1h-1z M46,6h1v1h-1z M47,6h1v1h-1z M49,6h1v1h-1z M50,6h1v1h-1z M54,6h1v1h-1z M56,6h1v1h-1z M57,6h1v1h-1z M58,6h1v1h-1z M59,6h1v1h-1z M61,6h1v1h-1z M62,6h1v1h-1z M63,6h1v1h-1z M67,6h1v1h-1z M68,6h1v1h-1z M70,6h1v1h-1z M73,6h1v1h-1z M74,6h1v1h-1z M78,6h1v1h-1z M80,6h1v1h-1z M82,6h1v1h-1z M83,6h1v1h-1z M89,6h1v1h-1z M90,6h1v1h-1z M91,6h1v1h-1z M92,6h1v1h-1z M94,6h1v1h-1z M95,6h1v1h-1z M97,6h1v1h-1z M98,6h1v1h-1z M99,6h1v1h-1z M102,6h1v1h-1z M104,6h1v1h-1z M105,6h1v1h-1z M106,6h1v1h-1z M108,6h1v1h-1z M4,7h1v1h-1z M6,7h1v1h-1z M7,7h1v1h-1z M8,7h1v1h-1z M10,7h1v1h-1z M12,7h1v1h-1z M13,7h1v1h-1z M14,7h1v1h-1z M15,7h1v1h-1z M19,7h1v1h-1z M21,7h1v1h-1z M22,7h1v1h-1z M23,7h1v1h-1z M24,7h1v1h-1z M26,7h1v1h-1z M27,7h1v1h-1z M28,7h1v1h-1z M29,7h1v1h-1z M34,7h1v1h-1z M35,7h1v1h-1z M36,7h1v1h-1z M37,7h1v1h-1z M39,7h1v1h-1z M40,7h1v1h-1z M41,7h1v1h-1z M43,7h1v1h-1z M44,7h1v1h-1z M45,7h1v1h-1z M47,7h1v1h-1z M48,7h1v1h-1z M50,7h1v1h-1z M51,7h1v1h-1z M55,7h1v1h-1z M56,7h1v1h-1z M57,7h1v1h-1z M63,7h1v1h-1z M65,7h1v1h-1z M67,7h1v1h-1z M71,7h1v1h-1z M72,7h1v1h-1z M73,7h1v1h-1z M74,7h1v1h-1z M77,7h1v1h-1z M82,7h1v1h-1z M84,7h1v1h-1z M87,7h1v1h-1z M89,7h1v1h-1z M91,7h1v1h-1z M96,7h1v1h-1z M97,7h1v1h-1z M100,7h1v1h-1z M102,7h1v1h-1z M104,7h1v1h-1z M105,7h1v1h-1z M106,7h1v1h-1z M108,7h1v1h-1z M4,8h1v1h-1z M6,8h1v1h-1z M7,8h1v1h-1z M8,8h1v1h-1z M10,8h1v1h-1z M14,8h1v1h-1z M15,8h1v1h-1z M17,8h1v1h-1z M19,8h1v1h-1z M20,8h1v1h-1z M22,8h1v1h-1z M23,8h1v1h-1z M24,8h1v1h-1z M25,8h1v1h-1z M26,8h1v1h-1z M28,8h1v1h-1z M29,8h1v1h-1z M30,8h1v1h-1z M31,8h1v1h-1z M32,8h1v1h-1z M34,8h1v1h-1z M38,8h1v1h-1z M44,8h1v1h-1z M47,8h1v1h-1z M52,8h1v1h-1z M53,8h1v1h-1z M54,8h1v1h-1z M55,8h1v1h-1z M56,8h1v1h-1z M57,8h1v1h-1z M59,8h1v1h-1z M61,8h1v1h-1z M62,8h1v1h-1z M65,8h1v1h-1z M66,8h1v1h-1z M68,8h1v1h-1z M71,8h1v1h-1z M74,8h1v1h-1z M76,8h1v1h-1z M77,8h1v1h-1z M78,8h1v1h-1z M79,8h1v1h-1z M80,8h1v1h-1z M83,8h1v1h-1z M87,8h1v1h-1z M90,8h1v1h-1z M92,8h1v1h-1z M96,8h1v1h-1z M99,8h1v1h-1z M100,8h1v1h-1z M102,8h1v1h-1z M104,8h1v1h-1z M105,8h1v1h-1z M106,8h1v1h-1z M108,8h1v1h-1z M4,9h1v1h-1z M10,9h1v1h-1z M12,9h1v1h-1z M13,9h1v1h-1z M16,9h1v1h-1z M17,9h1v1h-1z M20,9h1v1h-1z M22,9h1v1h-1z M25,9h1v1h-1z M27,9h1v1h-1z M28,9h1v1h-1z M32,9h1v1h-1z M33,9h1v1h-1z M34,9h1v1h-1z M35,9h1v1h-1z M39,9h1v1h-1z M42,9h1v1h-1z M43,9h1v1h-1z M44,9h1v1h-1z M45,9h1v1h-1z M46,9h1v1h-1z M47,9h1v1h-1z M49,9h1v1h-1z M51,9h1v1h-1z M52,9h1v1h-1z M56,9h1v1h-1z M57,9h1v1h-1z M58,9h1v1h-1z M59,9h1v1h-1z M61,9h1v1h-1z M66,9h1v1h-1z M69,9h1v1h-1z M70,9h1v1h-1z M71,9h1v1h-1z M73,9h1v1h-1z M76,9h1v1h-1z M80,9h1v1h-1z M82,9h1v1h-1z M83,9h1v1h-1z M87,9h1v1h-1z M90,9h1v1h-1z M91,9h1v1h-1z M93,9h1v1h-1z M94,9h1v1h-1z M96,9h1v1h-1z M97,9h1v1h-1z M99,9h1v1h-1z M102,9h1v1h-1z M108,9h1v1h-1z M4,10h1v1h-1z M5,10h1v1h-1z M6,10h1v1h-1z M7,10h1v1h-1z M8,10h1v1h-1z M9,10h1v1h-1z M10,10h1v1h-1z M12,10h1v1h-1z M14,10h1v1h-1z M16,10h1v1h-1z M18,10h1v1h-1z M20,10h1v1h-1z M22,10h1v1h-1z M24,10h1v1h-1z M26,10h1v1h-1z M28,10h1v1h-1z M30,10h1v1h-1z M32,10h1v1h-1z M34,10h1v1h-1z M36,10h1v1h-1z M38,10h1v1h-1z M40,10h1v1h-1z M42,10h1v1h-1z M44,10h1v1h-1z M46,10h1v1h-1z M48,10h1v1h-1z M50,10h1v1h-1z M52,10h1v1h-1z M54,10h1v1h-1z M56,10h1v1h-1z M58,10h1v1h-1z M60,10h1v1h-1z M62,10h1v1h-1z M64,10h1v1h-1z M66,10h1v1h-1z M68,10h1v1h-1z M70,10h1v1h-1z M72,10h1v1h-1z M74,10h1v1h-1z M76,10h1v1h-1z M78,10h1v1h-1z M80,10h1v1h-1z M82,10h1v1h-1z M84,10h1v1h-1z M86,10h1v1h-1z M88,10h1v1h-1z M90,10h1v1h-1z M92,10h1v1h-1z M94,10h1v1h-1z M96,10h1v1h-1z M98,10h1v1h-1z M100,10h1v1h-1z M102,10h1v1h-1z M103,10h1v1h-1z M104,10h1v1h-1z M105,10h1v1h-1z M106,10h1v1h-1z M107,10h1v1h-1z M108,10h1v1h-1z M13,11h1v1h-1z M15,11h1v1h-1z M17,11h1v1h-1z M21,11h1v1h-1z M23,11h1v1h-1z M25,11h1v1h-1z M26,11h1v1h-1z M28,11h1v1h-1z M32,11h1v1h-1z M33,11h1v1h-1z M34,11h1v1h-1z M35,11h1v1h-1z M42,11h1v1h-1z M44,11h1v1h-1z M46,11h1v1h-1z M47,11h1v1h-1z M49,11h1v1h-1z M50,11h1v1h-1z M51,11h1v1h-1z M52,11h1v1h-1z M56,11h1v1h-1z M57,11h1v1h-1z M58,11h1v1h-1z M59,11h1v1h-1z M61,11h1v1h-1z M62,11h1v1h-1z M66,11h1v1h-1z M68,11h1v1h-1z M69,11h1v1h-1z M70,11h1v1h-1z M71,11h1v1h-1z M73,11h1v1h-1z M76,11h1v1h-1z M80,11h1v1h-1z M82,11h1v1h-1z M83,11h1v1h-1z M85,11h1v1h-1z M89,11h1v1h-1z M92,11h1v1h-1z M93,11h1v1h-1z M95,11h1v1h-1z M98,11h1v1h-1z M99,11h1v1h-1z M100,11h1v1h-1z M4,12h1v1h-1z M5,12h1v1h-1z M8,12h1v1h-1z M9,12h1v1h-1z M10,12h1v1h-1z M13,12h1v1h-1z M14,12h1v1h-1z M19,12h1v1h-1z M22,12h1v1h-1z M25,12h1v1h-1z M27,12h1v1h-1z M28,12h1v1h-1z M29,12h1v1h-1z M30,12h1v1h-1z M31,12h1v1h-1z M32,12h1v1h-1z M36,12h1v1h-1z M37,12h1v1h-1z M39,12h1v1h-1z M41,12h1v1h-1z M43,12h1v1h-1z M44,12h1v1h-1z M45,12h1v1h-1z M46,12h1v1h-1z M47,12h1v1h-1z M50,12h1v1h-1z M51,12h1v1h-1z M52,12h1v1h-1z M53,12h1v1h-1z M54,12h1v1h-1z M55,12h1v1h-1z M56,12h1v1h-1z M57,12h1v1h-1z M59,12h1v1h-1z M61,12h1v1h-1z M65,12h1v1h-1z M71,12h1v1h-1z M73,12h1v1h-1z M74,12h1v1h-1z M75,12h1v1h-1z M76,12h1v1h-1z M77,12h1v1h-1z M78,12h1v1h-1z M79,12h1v1h-1z M80,12h1v1h-1z M81,12h1v1h-1z M82,12h1v1h-1z M84,12h1v1h-1z M85,12h1v1h-1z M86,12h1v1h-1z M87,12h1v1h-1z M88,12h1v1h-1z M89,12h1v1h-1z M90,12h1v1h-1z M92,12h1v1h-1z M93,12h1v1h-1z M97,12h1v1h-1z M99,12h1v1h-1z M100,12h1v1h-1z M103,12h1v1h-1z M105,12h1v1h-1z M106,12h1v1h-1z M107,12h1v1h-1z M108,12h1v1h-1z M4,13h1v1h-1z M5,13h1v1h-1z M7,13h1v1h-1z M8,13h1v1h-1z M9,13h1v1h-1z M11,13h1v1h-1z M12,13h1v1h-1z M13,13h1v1h-1z M14,13h1v1h-1z M15,13h1v1h-1z M16,13h1v1h-1z M19,13h1v1h-1z M22,13h1v1h-1z M26,13h1v1h-1z M27,13h1v1h-1z M28,13h1v1h-1z M29,13h1v1h-1z M30,13h1v1h-1z M32,13h1v1h-1z M34,13h1v1h-1z M36,13h1v1h-1z M40,13h1v1h-1z M42,13h1v1h-1z M43,13h1v1h-1z M45,13h1v1h-1z M47,13h1v1h-1z M48,13h1v1h-1z M49,13h1v1h-1z M52,13h1v1h-1z M53,13h1v1h-1z M55,13h1v1h-1z M58,13h1v1h-1z M60,13h1v1h-1z M63,13h1v1h-1z M64,13h1v1h-1z M65,13h1v1h-1z M68,13h1v1h-1z M69,13h1v1h-1z M70,13h1v1h-1z M71,13h1v1h-1z M73,13h1v1h-1z M74,13h1v1h-1z M75,13h1v1h-1z M76,13h1v1h-1z M77,13h1v1h-1z M79,13h1v1h-1z M80,13h1v1h-1z M81,13h1v1h-1z M82,13h1v1h-1z M84,13h1v1h-1z M85,13h1v1h-1z M92,13h1v1h-1z M95,13h1v1h-1z M98,13h1v1h-1z M102,13h1v1h-1z M103,13h1v1h-1z M104,13h1v1h-1z M105,13h1v1h-1z M107,13h1v1h-1z M108,13h1v1h-1z M4,14h1v1h-1z M5,14h1v1h-1z M8,14h1v1h-1z M10,14h1v1h-1z M11,14h1v1h-1z M13,14h1v1h-1z M14,14h1v1h-1z M16,14h1v1h-1z M17,14h1v1h-1z M18,14h1v1h-1z M20,14h1v1h-1z M23,14h1v1h-1z M26,14h1v1h-1z M28,14h1v1h-1z M31,14h1v1h-1z M32,14h1v1h-1z M33,14h1v1h-1z M38,14h1v1h-1z M39,14h1v1h-1z M40,14h1v1h-1z M43,14h1v1h-1z M44,14h1v1h-1z M49,14h1v1h-1z M50,14h1v1h-1z M52,14h1v1h-1z M53,14h1v1h-1z M55,14h1v1h-1z M56,14h1v1h-1z M59,14h1v1h-1z M62,14h1v1h-1z M64,14h1v1h-1z M65,14h1v1h-1z M67,14h1v1h-1z M68,14h1v1h-1z M71,14h1v1h-1z M72,14h1v1h-1z M74,14h1v1h-1z M75,14h1v1h-1z M77,14h1v1h-1z M85,14h1v1h-1z M86,14h1v1h-1z M89,14h1v1h-1z M95,14h1v1h-1z M96,14h1v1h-1z M97,14h1v1h-1z M98,14h1v1h-1z M99,14h1v1h-1z M101,14h1v1h-1z M102,14h1v1h-1z M104,14h1v1h-1z M106,14h1v1h-1z M107,14h1v1h-1z M5,15h1v1h-1z M8,15h1v1h-1z M11,15h1v1h-1z M12,15h1v1h-1z M13,15h1v1h-1z M14,15h1v1h-1z M15,15h1v1h-1z M16,15h1v1h-1z M18,15h1v1h-1z M19,15h1v1h-1z M20,15h1v1h-1z M21,15h1v1h-1z M22,15h1v1h-1z M24,15h1v1h-1z M25,15h1v1h-1z M26,15h1v1h-1z M30,15h1v1h-1z M32,15h1v1h-1z M34,15h1v1h-1z M35,15h1v1h-1z M41,15h1v1h-1z M42,15h1v1h-1z M44,15h1v1h-1z M45,15h1v1h-1z M46,15h1v1h-1z M47,15h1v1h-1z M52,15h1v1h-1z M53,15h1v1h-1z M54,15h1v1h-1z M56,15h1v1h-1z M58,15h1v1h-1z M59,15h1v1h-1z M62,15h1v1h-1z M63,15h1v1h-1z M68,15h1v1h-1z M69,15h1v1h-1z M70,15h1v1h-1z M74,15h1v1h-1z M76,15h1v1h-1z M77,15h1v1h-1z M79,15h1v1h-1z M80,15h1v1h-1z M81,15h1v1h-1z M83,15h1v1h-1z M89,15h1v1h-1z M92,15h1v1h-1z M93,15h1v1h-1z M95,15h1v1h-1z M97,15h1v1h-1z M101,15h1v1h-1z M103,15h1v1h-1z M104,15h1v1h-1z M107,15h1v1h-1z M6,16h1v1h-1z M8,16h1v1h-1z M9,16h1v1h-1z M10,16h1v1h-1z M12,16h1v1h-1z M13,16h1v1h-1z M18,16h1v1h-1z M19,16h1v1h-1z M20,16h1v1h-1z M21,16h1v1h-1z M24,16h1v1h-1z M26,16h1v1h-1z M30,16h1v1h-1z M32,16h1v1h-1z M33,16h1v1h-1z M36,16h1v1h-1z M38,16h1v1h-1z M39,16h1v1h-1z M40,16h1v1h-1z M41,16h1v1h-1z M43,16h1v1h-1z M45,16h1v1h-1z M46,16h1v1h-1z M48,16h1v1h-1z M49,16h1v1h-1z M50,16h1v1h-1z M53,16h1v1h-1z M55,16h1v1h-1z M57,16h1v1h-1z M58,16h1v1h-1z M59,16h1v1h-1z M60,16h1v1h-1z M62,16h1v1h-1z M64,16h1v1h-1z M66,16h1v1h-1z M69,16h1v1h-1z M71,16h1v1h-1z M72,16h1v1h-1z M73,16h1v1h-1z M79,16h1v1h-1z M80,16h1v1h-1z M83,16h1v1h-1z M88,16h1v1h-1z M89,16h1v1h-1z M94,16h1v1h-1z M97,16h1v1h-1z M98,16h1v1h-1z M99,16h1v1h-1z M100,16h1v1h-1z M104,16h1v1h-1z M105,16h1v1h-1z M107,16h1v1h-1z M108,16h1v1h-1z M5,17h1v1h-1z M12,17h1v1h-1z M13,17h1v1h-1z M14,17h1v1h-1z M17,17h1v1h-1z M22,17h1v1h-1z M23,17h1v1h-1z M24,17h1v1h-1z M26,17h1v1h-1z M28,17h1v1h-1z M29,17h1v1h-1z M31,17h1v1h-1z M34,17h1v1h-1z M36,17h1v1h-1z M41,17h1v1h-1z M49,17h1v1h-1z M50,17h1v1h-1z M52,17h1v1h-1z M54,17h1v1h-1z M55,17h1v1h-1z M56,17h1v1h-1z M57,17h1v1h-1z M58,17h1v1h-1z M65,17h1v1h-1z M66,17h1v1h-1z M68,17h1v1h-1z M71,17h1v1h-1z M74,17h1v1h-1z M76,17h1v1h-1z M77,17h1v1h-1z M78,17h1v1h-1z M83,17h1v1h-1z M84,17h1v1h-1z M85,17h1v1h-1z M87,17h1v1h-1z M88,17h1v1h-1z M90,17h1v1h-1z M91,17h1v1h-1z M92,17h1v1h-1z M100,17h1v1h-1z M101,17h1v1h-1z M103,17h1v1h-1z M106,17h1v1h-1z M107,17h1v1h-1z M108,17h1v1h-1z M5,18h1v1h-1z M6,18h1v1h-1z M7,18h1v1h-1z M8,18h1v1h-1z M10,18h1v1h-1z M14,18h1v1h-1z M18,18h1v1h-1z M19,18h1v1h-1z M23,18h1v1h-1z M26,18h1v1h-1z M27,18h1v1h-1z M29,18h1v1h-1z M31,18h1v1h-1z M32,18h1v1h-1z M38,18h1v1h-1z M39,18h1v1h-1z M40,18h1v1h-1z M47,18h1v1h-1z M48,18h1v1h-1z M50,18h1v1h-1z M59,18h1v1h-1z M62,18h1v1h-1z M63,18h1v1h-1z M65,18h1v1h-1z M67,18h1v1h-1z M68,18h1v1h-1z M72,18h1v1h-1z M73,18h1v1h-1z M74,18h1v1h-1z M76,18h1v1h-1z M77,18h1v1h-1z M79,18h1v1h-1z M80,18h1v1h-1z M83,18h1v1h-1z M84,18h1v1h-1z M86,18h1v1h-1z M87,18h1v1h-1z M88,18h1v1h-1z M89,18h1v1h-1z M91,18h1v1h-1z M92,18h1v1h-1z M98,18h1v1h-1z M99,18h1v1h-1z M100,18h1v1h-1z M102,18h1v1h-1z M104,18h1v1h-1z M106,18h1v1h-1z M107,18h1v1h-1z M4,19h1v1h-1z M5,19h1v1h-1z M12,19h1v1h-1z M14,19h1v1h-1z M17,19h1v1h-1z M19,19h1v1h-1z M21,19h1v1h-1z M26,19h1v1h-1z M27,19h1v1h-1z M28,19h1v1h-1z M32,19h1v1h-1z M33,19h1v1h-1z M35,19h1v1h-1z M37,19h1v1h-1z M41,19h1v1h-1z M42,19h1v1h-1z M43,19h1v1h-1z M44,19h1v1h-1z M45,19h1v1h-1z M46,19h1v1h-1z M47,19h1v1h-1z M51,19h1v1h-1z M53,19h1v1h-1z M54,19h1v1h-1z M55,19h1v1h-1z M56,19h1v1h-1z M58,19h1v1h-1z M59,19h1v1h-1z M61,19h1v1h-1z M62,19h1v1h-1z M65,19h1v1h-1z M68,19h1v1h-1z M69,19h1v1h-1z M71,19h1v1h-1z M73,19h1v1h-1z M75,19h1v1h-1z M78,19h1v1h-1z M80,19h1v1h-1z M82,19h1v1h-1z M83,19h1v1h-1z M85,19h1v1h-1z M90,19h1v1h-1z M92,19h1v1h-1z M93,19h1v1h-1z M94,19h1v1h-1z M95,19h1v1h-1z M99,19h1v1h-1z M100,19h1v1h-1z M101,19h1v1h-1z M103,19h1v1h-1z M4,20h1v1h-1z M6,20h1v1h-1z M7,20h1v1h-1z M10,20h1v1h-1z M12,20h1v1h-1z M13,20h1v1h-1z M15,20h1v1h-1z M16,20h1v1h-1z M17,20h1v1h-1z M20,20h1v1h-1z M24,20h1v1h-1z M25,20h1v1h-1z M26,20h1v1h-1z M27,20h1v1h-1z M29,20h1v1h-1z M30,20h1v1h-1z M31,20h1v1h-1z M34,20h1v1h-1z M35,20h1v1h-1z M39,20h1v1h-1z M40,20h1v1h-1z M45,20h1v1h-1z M46,20h1v1h-1z M49,20h1v1h-1z M50,20h1v1h-1z M51,20h1v1h-1z M52,20h1v1h-1z M53,20h1v1h-1z M54,20h1v1h-1z M55,20h1v1h-1z M58,20h1v1h-1z M63,20h1v1h-1z M64,20h1v1h-1z M65,20h1v1h-1z M67,20h1v1h-1z M68,20h1v1h-1z M71,20h1v1h-1z M72,20h1v1h-1z M74,20h1v1h-1z M76,20h1v1h-1z M77,20h1v1h-1z M78,20h1v1h-1z M79,20h1v1h-1z M81,20h1v1h-1z M82,20h1v1h-1z M84,20h1v1h-1z M86,20h1v1h-1z M89,20h1v1h-1z M90,20h1v1h-1z M91,20h1v1h-1z M92,20h1v1h-1z M94,20h1v1h-1z M95,20h1v1h-1z M98,20h1v1h-1z M100,20h1v1h-1z M101,20h1v1h-1z M102,20h1v1h-1z M103,20h1v1h-1z M105,20h1v1h-1z M106,20h1v1h-1z M4,21h1v1h-1z M7,21h1v1h-1z M11,21h1v1h-1z M14,21h1v1h-1z M17,21h1v1h-1z M18,21h1v1h-1z M20,21h1v1h-1z M21,21h1v1h-1z M23,21h1v1h-1z M25,21h1v1h-1z M26,21h1v1h-1z M27,21h1v1h-1z M28,21h1v1h-1z M33,21h1v1h-1z M36,21h1v1h-1z M37,21h1v1h-1z M43,21h1v1h-1z M45,21h1v1h-1z M51,21h1v1h-1z M52,21h1v1h-1z M53,21h1v1h-1z M54,21h1v1h-1z M58,21h1v1h-1z M62,21h1v1h-1z M65,21h1v1h-1z M71,21h1v1h-1z M73,21h1v1h-1z M74,21h1v1h-1z M75,21h1v1h-1z M76,21h1v1h-1z M77,21h1v1h-1z M78,21h1v1h-1z M79,21h1v1h-1z M80,21h1v1h-1z M82,21h1v1h-1z M84,21h1v1h-1z M86,21h1v1h-1z M88,21h1v1h-1z M89,21h1v1h-1z M90,21h1v1h-1z M91,21h1v1h-1z M93,21h1v1h-1z M95,21h1v1h-1z M101,21h1v1h-1z M102,21h1v1h-1z M103,21h1v1h-1z M104,21h1v1h-1z M105,21h1v1h-1z M108,21h1v1h-1z M4,22h1v1h-1z M5,22h1v1h-1z M10,22h1v1h-1z M12,22h1v1h-1z M13,22h1v1h-1z M15,22h1v1h-1z M16,22h1v1h-1z M18,22h1v1h-1z M23,22h1v1h-1z M26,22h1v1h-1z M27,22h1v1h-1z M29,22h1v1h-1z M31,22h1v1h-1z M32,22h1v1h-1z M35,22h1v1h-1z M36,22h1v1h-1z M38,22h1v1h-1z M39,22h1v1h-1z M41,22h1v1h-1z M43,22h1v1h-1z M47,22h1v1h-1z M48,22h1v1h-1z M50,22h1v1h-1z M51,22h1v1h-1z M52,22h1v1h-1z M53,22h1v1h-1z M55,22h1v1h-1z M56,22h1v1h-1z M59,22h1v1h-1z M60,22h1v1h-1z M61,22h1v1h-1z M62,22h1v1h-1z M64,22h1v1h-1z M65,22h1v1h-1z M67,22h1v1h-1z M68,22h1v1h-1z M69,22h1v1h-1z M71,22h1v1h-1z M72,22h1v1h-1z M73,22h1v1h-1z M74,22h1v1h-1z M76,22h1v1h-1z M79,22h1v1h-1z M83,22h1v1h-1z M84,22h1v1h-1z M86,22h1v1h-1z M87,22h1v1h-1z M89,22h1v1h-1z M95,22h1v1h-1z M98,22h1v1h-1z M99,22h1v1h-1z M102,22h1v1h-1z M103,22h1v1h-1z M104,22h1v1h-1z M107,22h1v1h-1z M7,23h1v1h-1z M8,23h1v1h-1z M12,23h1v1h-1z M14,23h1v1h-1z M17,23h1v1h-1z M18,23h1v1h-1z M22,23h1v1h-1z M23,23h1v1h-1z M24,23h1v1h-1z M32,23h1v1h-1z M35,23h1v1h-1z M38,23h1v1h-1z M41,23h1v1h-1z M42,23h1v1h-1z M44,23h1v1h-1z M45,23h1v1h-1z M46,23h1v1h-1z M47,23h1v1h-1z M50,23h1v1h-1z M52,23h1v1h-1z M53,23h1v1h-1z M56,23h1v1h-1z M57,23h1v1h-1z M59,23h1v1h-1z M61,23h1v1h-1z M65,23h1v1h-1z M68,23h1v1h-1z M70,23h1v1h-1z M71,23h1v1h-1z M75,23h1v1h-1z M76,23h1v1h-1z M78,23h1v1h-1z M80,23h1v1h-1z M83,23h1v1h-1z M89,23h1v1h-1z M91,23h1v1h-1z M92,23h1v1h-1z M93,23h1v1h-1z M94,23h1v1h-1z M95,23h1v1h-1z M98,23h1v1h-1z M100,23h1v1h-1z M101,23h1v1h-1z M103,23h1v1h-1z M104,23h1v1h-1z M108,23h1v1h-1z M4,24h1v1h-1z M6,24h1v1h-1z M10,24h1v1h-1z M15,24h1v1h-1z M16,24h1v1h-1z M17,24h1v1h-1z M18,24h1v1h-1z M19,24h1v1h-1z M20,24h1v1h-1z M28,24h1v1h-1z M31,24h1v1h-1z M33,24h1v1h-1z M34,24h1v1h-1z M36,24h1v1h-1z M37,24h1v1h-1z M38,24h1v1h-1z M40,24h1v1h-1z M42,24h1v1h-1z M44,24h1v1h-1z M47,24h1v1h-1z M48,24h1v1h-1z M52,24h1v1h-1z M54,24h1v1h-1z M55,24h1v1h-1z M60,24h1v1h-1z M63,24h1v1h-1z M64,24h1v1h-1z M65,24h1v1h-1z M69,24h1v1h-1z M72,24h1v1h-1z M73,24h1v1h-1z M74,24h1v1h-1z M77,24h1v1h-1z M80,24h1v1h-1z M84,24h1v1h-1z M85,24h1v1h-1z M86,24h1v1h-1z M87,24h1v1h-1z M88,24h1v1h-1z M89,24h1v1h-1z M90,24h1v1h-1z M91,24h1v1h-1z M93,24h1v1h-1z M94,24h1v1h-1z M95,24h1v1h-1z M96,24h1v1h-1z M98,24h1v1h-1z M100,24h1v1h-1z M101,24h1v1h-1z M102,24h1v1h-1z M103,24h1v1h-1z M106,24h1v1h-1z M107,24h1v1h-1z M108,24h1v1h-1z M4,25h1v1h-1z M5,25h1v1h-1z M8,25h1v1h-1z M9,25h1v1h-1z M11,25h1v1h-1z M12,25h1v1h-1z M14,25h1v1h-1z M15,25h1v1h-1z M19,25h1v1h-1z M23,25h1v1h-1z M25,25h1v1h-1z M26,25h1v1h-1z M27,25h1v1h-1z M28,25h1v1h-1z M29,25h1v1h-1z M30,25h1v1h-1z M31,25h1v1h-1z M33,25h1v1h-1z M34,25h1v1h-1z M35,25h1v1h-1z M36,25h1v1h-1z M38,25h1v1h-1z M41,25h1v1h-1z M43,25h1v1h-1z M44,25h1v1h-1z M46,25h1v1h-1z M47,25h1v1h-1z M51,25h1v1h-1z M52,25h1v1h-1z M54,25h1v1h-1z M55,25h1v1h-1z M57,25h1v1h-1z M58,25h1v1h-1z M60,25h1v1h-1z M62,25h1v1h-1z M67,25h1v1h-1z M68,25h1v1h-1z M69,25h1v1h-1z M70,25h1v1h-1z M71,25h1v1h-1z M73,25h1v1h-1z M75,25h1v1h-1z M76,25h1v1h-1z M79,25h1v1h-1z M82,25h1v1h-1z M84,25h1v1h-1z M86,25h1v1h-1z M92,25h1v1h-1z M94,25h1v1h-1z M95,25h1v1h-1z M97,25h1v1h-1z M101,25h1v1h-1z M103,25h1v1h-1z M104,25h1v1h-1z M6,26h1v1h-1z M7,26h1v1h-1z M8,26h1v1h-1z M10,26h1v1h-1z M11,26h1v1h-1z M12,26h1v1h-1z M14,26h1v1h-1z M15,26h1v1h-1z M18,26h1v1h-1z M21,26h1v1h-1z M22,26h1v1h-1z M24,26h1v1h-1z M26,26h1v1h-1z M27,26h1v1h-1z M29,26h1v1h-1z M31,26h1v1h-1z M36,26h1v1h-1z M38,26h1v1h-1z M41,26h1v1h-1z M43,26h1v1h-1z M44,26h1v1h-1z M47,26h1v1h-1z M50,26h1v1h-1z M53,26h1v1h-1z M57,26h1v1h-1z M60,26h1v1h-1z M62,26h1v1h-1z M65,26h1v1h-1z M68,26h1v1h-1z M69,26h1v1h-1z M72,26h1v1h-1z M74,26h1v1h-1z M77,26h1v1h-1z M79,26h1v1h-1z M83,26h1v1h-1z M84,26h1v1h-1z M86,26h1v1h-1z M88,26h1v1h-1z M89,26h1v1h-1z M93,26h1v1h-1z M95,26h1v1h-1z M96,26h1v1h-1z M97,26h1v1h-1z M98,26h1v1h-1z M99,26h1v1h-1z M102,26h1v1h-1z M104,26h1v1h-1z M105,26h1v1h-1z M107,26h1v1h-1z M4,27h1v1h-1z M5,27h1v1h-1z M8,27h1v1h-1z M9,27h1v1h-1z M11,27h1v1h-1z M17,27h1v1h-1z M18,27h1v1h-1z M19,27h1v1h-1z M20,27h1v1h-1z M21,27h1v1h-1z M23,27h1v1h-1z M26,27h1v1h-1z M32,27h1v1h-1z M33,27h1v1h-1z M34,27h1v1h-1z M35,27h1v1h-1z M38,27h1v1h-1z M44,27h1v1h-1z M45,27h1v1h-1z M46,27h1v1h-1z M47,27h1v1h-1z M49,27h1v1h-1z M50,27h1v1h-1z M54,27h1v1h-1z M56,27h1v1h-1z M58,27h1v1h-1z M59,27h1v1h-1z M61,27h1v1h-1z M62,27h1v1h-1z M66,27h1v1h-1z M68,27h1v1h-1z M70,27h1v1h-1z M71,27h1v1h-1z M74,27h1v1h-1z M76,27h1v1h-1z M77,27h1v1h-1z M79,27h1v1h-1z M80,27h1v1h-1z M81,27h1v1h-1z M82,27h1v1h-1z M83,27h1v1h-1z M86,27h1v1h-1z M90,27h1v1h-1z M91,27h1v1h-1z M92,27h1v1h-1z M94,27h1v1h-1z M95,27h1v1h-1z M100,27h1v1h-1z M101,27h1v1h-1z M103,27h1v1h-1z M104,27h1v1h-1z M105,27h1v1h-1z M107,27h1v1h-1z M108,27h1v1h-1z M5,28h1v1h-1z M8,28h1v1h-1z M9,28h1v1h-1z M10,28h1v1h-1z M11,28h1v1h-1z M12,28h1v1h-1z M13,28h1v1h-1z M16,28h1v1h-1z M17,28h1v1h-1z M21,28h1v1h-1z M23,28h1v1h-1z M24,28h1v1h-1z M25,28h1v1h-1z M26,28h1v1h-1z M27,28h1v1h-1z M28,28h1v1h-1z M29,28h1v1h-1z M30,28h1v1h-1z M31,28h1v1h-1z M32,28h1v1h-1z M33,28h1v1h-1z M38,28h1v1h-1z M41,28h1v1h-1z M45,28h1v1h-1z M48,28h1v1h-1z M50,28h1v1h-1z M52,28h1v1h-1z M53,28h1v1h-1z M54,28h1v1h-1z M55,28h1v1h-1z M56,28h1v1h-1z M57,28h1v1h-1z M58,28h1v1h-1z M61,28h1v1h-1z M66,28h1v1h-1z M68,28h1v1h-1z M69,28h1v1h-1z M70,28h1v1h-1z M73,28h1v1h-1z M74,28h1v1h-1z M76,28h1v1h-1z M77,28h1v1h-1z M78,28h1v1h-1z M79,28h1v1h-1z M80,28h1v1h-1z M83,28h1v1h-1z M84,28h1v1h-1z M85,28h1v1h-1z M87,28h1v1h-1z M88,28h1v1h-1z M89,28h1v1h-1z M90,28h1v1h-1z M91,28h1v1h-1z M96,28h1v1h-1z M97,28h1v1h-1z M99,28h1v1h-1z M100,28h1v1h-1z M101,28h1v1h-1z M102,28h1v1h-1z M103,28h1v1h-1z M104,28h1v1h-1z M105,28h1v1h-1z M107,28h1v1h-1z M108,28h1v1h-1z M4,29h1v1h-1z M5,29h1v1h-1z M6,29h1v1h-1z M7,29h1v1h-1z M8,29h1v1h-1z M12,29h1v1h-1z M13,29h1v1h-1z M15,29h1v1h-1z M16,29h1v1h-1z M18,29h1v1h-1z M19,29h1v1h-1z M21,29h1v1h-1z M22,29h1v1h-1z M24,29h1v1h-1z M25,29h1v1h-1z M27,29h1v1h-1z M28,29h1v1h-1z M32,29h1v1h-1z M33,29h1v1h-1z M34,29h1v1h-1z M35,29h1v1h-1z M36,29h1v1h-1z M37,29h1v1h-1z M38,29h1v1h-1z M40,29h1v1h-1z M43,29h1v1h-1z M44,29h1v1h-1z M45,29h1v1h-1z M47,29h1v1h-1z M49,29h1v1h-1z M50,29h1v1h-1z M51,29h1v1h-1z M52,29h1v1h-1z M56,29h1v1h-1z M61,29h1v1h-1z M63,29h1v1h-1z M64,29h1v1h-1z M65,29h1v1h-1z M66,29h1v1h-1z M71,29h1v1h-1z M73,29h1v1h-1z M74,29h1v1h-1z M76,29h1v1h-1z M80,29h1v1h-1z M81,29h1v1h-1z M82,29h1v1h-1z M83,29h1v1h-1z M90,29h1v1h-1z M93,29h1v1h-1z M94,29h1v1h-1z M98,29h1v1h-1z M100,29h1v1h-1z M104,29h1v1h-1z M105,29h1v1h-1z M106,29h1v1h-1z M108,29h1v1h-1z M5,30h1v1h-1z M6,30h1v1h-1z M8,30h1v1h-1z M10,30h1v1h-1z M12,30h1v1h-1z M14,30h1v1h-1z M26,30h1v1h-1z M28,30h1v1h-1z M30,30h1v1h-1z M32,30h1v1h-1z M35,30h1v1h-1z M36,30h1v1h-1z M38,30h1v1h-1z M40,30h1v1h-1z M41,30h1v1h-1z M47,30h1v1h-1z M48,30h1v1h-1z M50,30h1v1h-1z M51,30h1v1h-1z M52,30h1v1h-1z M54,30h1v1h-1z M56,30h1v1h-1z M57,30h1v1h-1z M61,30h1v1h-1z M62,30h1v1h-1z M64,30h1v1h-1z M65,30h1v1h-1z M67,30h1v1h-1z M72,30h1v1h-1z M74,30h1v1h-1z M76,30h1v1h-1z M78,30h1v1h-1z M80,30h1v1h-1z M83,30h1v1h-1z M84,30h1v1h-1z M86,30h1v1h-1z M87,30h1v1h-1z M89,30h1v1h-1z M96,30h1v1h-1z M98,30h1v1h-1z M99,30h1v1h-1z M100,30h1v1h-1z M102,30h1v1h-1z M104,30h1v1h-1z M105,30h1v1h-1z M106,30h1v1h-1z M107,30h1v1h-1z M8,31h1v1h-1z M12,31h1v1h-1z M13,31h1v1h-1z M16,31h1v1h-1z M17,31h1v1h-1z M19,31h1v1h-1z M22,31h1v1h-1z M25,31h1v1h-1z M26,31h1v1h-1z M27,31h1v1h-1z M28,31h1v1h-1z M32,31h1v1h-1z M37,31h1v1h-1z M38,31h1v1h-1z M44,31h1v1h-1z M46,31h1v1h-1z M47,31h1v1h-1z M50,31h1v1h-1z M51,31h1v1h-1z M52,31h1v1h-1z M56,31h1v1h-1z M57,31h1v1h-1z M58,31h1v1h-1z M59,31h1v1h-1z M63,31h1v1h-1z M66,31h1v1h-1z M68,31h1v1h-1z M70,31h1v1h-1z M71,31h1v1h-1z M75,31h1v1h-1z M76,31h1v1h-1z M80,31h1v1h-1z M81,31h1v1h-1z M83,31h1v1h-1z M85,31h1v1h-1z M89,31h1v1h-1z M90,31h1v1h-1z M91,31h1v1h-1z M92,31h1v1h-1z M93,31h1v1h-1z M94,31h1v1h-1z M95,31h1v1h-1z M97,31h1v1h-1z M99,31h1v1h-1z M100,31h1v1h-1z M104,31h1v1h-1z M107,31h1v1h-1z M5,32h1v1h-1z M7,32h1v1h-1z M8,32h1v1h-1z M9,32h1v1h-1z M10,32h1v1h-1z M11,32h1v1h-1z M12,32h1v1h-1z M14,32h1v1h-1z M15,32h1v1h-1z M17,32h1v1h-1z M18,32h1v1h-1z M20,32h1v1h-1z M21,32h1v1h-1z M25,32h1v1h-1z M26,32h1v1h-1z M27,32h1v1h-1z M28,32h1v1h-1z M29,32h1v1h-1z M30,32h1v1h-1z M31,32h1v1h-1z M32,32h1v1h-1z M33,32h1v1h-1z M35,32h1v1h-1z M36,32h1v1h-1z M38,32h1v1h-1z M39,32h1v1h-1z M40,32h1v1h-1z M41,32h1v1h-1z M43,32h1v1h-1z M45,32h1v1h-1z M48,32h1v1h-1z M50,32h1v1h-1z M52,32h1v1h-1z M53,32h1v1h-1z M54,32h1v1h-1z M55,32h1v1h-1z M56,32h1v1h-1z M57,32h1v1h-1z M59,32h1v1h-1z M63,32h1v1h-1z M65,32h1v1h-1z M66,32h1v1h-1z M68,32h1v1h-1z M71,32h1v1h-1z M72,32h1v1h-1z M74,32h1v1h-1z M76,32h1v1h-1z M77,32h1v1h-1z M78,32h1v1h-1z M79,32h1v1h-1z M80,32h1v1h-1z M82,32h1v1h-1z M84,32h1v1h-1z M85,32h1v1h-1z M87,32h1v1h-1z M88,32h1v1h-1z M89,32h1v1h-1z M91,32h1v1h-1z M98,32h1v1h-1z M100,32h1v1h-1z M101,32h1v1h-1z M102,32h1v1h-1z M103,32h1v1h-1z M104,32h1v1h-1z M108,32h1v1h-1z M5,33h1v1h-1z M6,33h1v1h-1z M8,33h1v1h-1z M11,33h1v1h-1z M13,33h1v1h-1z M16,33h1v1h-1z M18,33h1v1h-1z M20,33h1v1h-1z M21,33h1v1h-1z M22,33h1v1h-1z M24,33h1v1h-1z M26,33h1v1h-1z M27,33h1v1h-1z M30,33h1v1h-1z M32,33h1v1h-1z M33,33h1v1h-1z M35,33h1v1h-1z M37,33h1v1h-1z M39,33h1v1h-1z M42,33h1v1h-1z M44,33h1v1h-1z M46,33h1v1h-1z M47,33h1v1h-1z M48,33h1v1h-1z M49,33h1v1h-1z M50,33h1v1h-1z M51,33h1v1h-1z M52,33h1v1h-1z M53,33h1v1h-1z M60,33h1v1h-1z M61,33h1v1h-1z M62,33h1v1h-1z M66,33h1v1h-1z M71,33h1v1h-1z M73,33h1v1h-1z M75,33h1v1h-1z M76,33h1v1h-1z M78,33h1v1h-1z M79,33h1v1h-1z M81,33h1v1h-1z M82,33h1v1h-1z M83,33h1v1h-1z M86,33h1v1h-1z M88,33h1v1h-1z M89,33h1v1h-1z M96,33h1v1h-1z M97,33h1v1h-1z M98,33h1v1h-1z M101,33h1v1h-1z M102,33h1v1h-1z M104,33h1v1h-1z M106,33h1v1h-1z M4,34h1v1h-1z M8,34h1v1h-1z M9,34h1v1h-1z M10,34h1v1h-1z M11,34h1v1h-1z M15,34h1v1h-1z M17,34h1v1h-1z M20,34h1v1h-1z M23,34h1v1h-1z M29,34h1v1h-1z M30,34h1v1h-1z M36,34h1v1h-1z M38,34h1v1h-1z M41,34h1v1h-1z M50,34h1v1h-1z M59,34h1v1h-1z M60,34h1v1h-1z M62,34h1v1h-1z M63,34h1v1h-1z M64,34h1v1h-1z M65,34h1v1h-1z M67,34h1v1h-1z M69,34h1v1h-1z M71,34h1v1h-1z M72,34h1v1h-1z M74,34h1v1h-1z M78,34h1v1h-1z M79,34h1v1h-1z M80,34h1v1h-1z M84,34h1v1h-1z M86,34h1v1h-1z M87,34h1v1h-1z M89,34h1v1h-1z M91,34h1v1h-1z M92,34h1v1h-1z M93,34h1v1h-1z M95,34h1v1h-1z M96,34h1v1h-1z M98,34h1v1h-1z M104,34h1v1h-1z M105,34h1v1h-1z M106,34h1v1h-1z M5,35h1v1h-1z M6,35h1v1h-1z M7,35h1v1h-1z M9,35h1v1h-1z M11,35h1v1h-1z M13,35h1v1h-1z M15,35h1v1h-1z M17,35h1v1h-1z M19,35h1v1h-1z M25,35h1v1h-1z M26,35h1v1h-1z M28,35h1v1h-1z M29,35h1v1h-1z M32,35h1v1h-1z M35,35h1v1h-1z M41,35h1v1h-1z M42,35h1v1h-1z M43,35h1v1h-1z M44,35h1v1h-1z M45,35h1v1h-1z M46,35h1v1h-1z M47,35h1v1h-1z M49,35h1v1h-1z M51,35h1v1h-1z M52,35h1v1h-1z M53,35h1v1h-1z M57,35h1v1h-1z M59,35h1v1h-1z M61,35h1v1h-1z M63,35h1v1h-1z M65,35h1v1h-1z M68,35h1v1h-1z M69,35h1v1h-1z M70,35h1v1h-1z M74,35h1v1h-1z M77,35h1v1h-1z M81,35h1v1h-1z M83,35h1v1h-1z M85,35h1v1h-1z M90,35h1v1h-1z M92,35h1v1h-1z M93,35h1v1h-1z M94,35h1v1h-1z M99,35h1v1h-1z M102,35h1v1h-1z M104,35h1v1h-1z M108,35h1v1h-1z M4,36h1v1h-1z M7,36h1v1h-1z M10,36h1v1h-1z M12,36h1v1h-1z M13,36h1v1h-1z M16,36h1v1h-1z M18,36h1v1h-1z M19,36h1v1h-1z M21,36h1v1h-1z M22,36h1v1h-1z M23,36h1v1h-1z M26,36h1v1h-1z M30,36h1v1h-1z M31,36h1v1h-1z M33,36h1v1h-1z M39,36h1v1h-1z M40,36h1v1h-1z M42,36h1v1h-1z M44,36h1v1h-1z M45,36h1v1h-1z M47,36h1v1h-1z M48,36h1v1h-1z M50,36h1v1h-1z M52,36h1v1h-1z M53,36h1v1h-1z M58,36h1v1h-1z M60,36h1v1h-1z M61,36h1v1h-1z M62,36h1v1h-1z M65,36h1v1h-1z M66,36h1v1h-1z M68,36h1v1h-1z M69,36h1v1h-1z M70,36h1v1h-1z M72,36h1v1h-1z M73,36h1v1h-1z M76,36h1v1h-1z M77,36h1v1h-1z M78,36h1v1h-1z M83,36h1v1h-1z M84,36h1v1h-1z M89,36h1v1h-1z M90,36h1v1h-1z M91,36h1v1h-1z M92,36h1v1h-1z M95,36h1v1h-1z M98,36h1v1h-1z M101,36h1v1h-1z M102,36h1v1h-1z M103,36h1v1h-1z M105,36h1v1h-1z M106,36h1v1h-1z M107,36h1v1h-1z M5,37h1v1h-1z M6,37h1v1h-1z M7,37h1v1h-1z M11,37h1v1h-1z M12,37h1v1h-1z M14,37h1v1h-1z M17,37h1v1h-1z M18,37h1v1h-1z M20,37h1v1h-1z M22,37h1v1h-1z M24,37h1v1h-1z M26,37h1v1h-1z M31,37h1v1h-1z M32,37h1v1h-1z M33,37h1v1h-1z M34,37h1v1h-1z M35,37h1v1h-1z M37,37h1v1h-1z M39,37h1v1h-1z M40,37h1v1h-1z M41,37h1v1h-1z M42,37h1v1h-1z M44,37h1v1h-1z M46,37h1v1h-1z M47,37h1v1h-1z M52,37h1v1h-1z M54,37h1v1h-1z M55,37h1v1h-1z M57,37h1v1h-1z M58,37h1v1h-1z M60,37h1v1h-1z M61,37h1v1h-1z M62,37h1v1h-1z M63,37h1v1h-1z M64,37h1v1h-1z M69,37h1v1h-1z M71,37h1v1h-1z M72,37h1v1h-1z M74,37h1v1h-1z M75,37h1v1h-1z M76,37h1v1h-1z M77,37h1v1h-1z M78,37h1v1h-1z M82,37h1v1h-1z M83,37h1v1h-1z M85,37h1v1h-1z M86,37h1v1h-1z M88,37h1v1h-1z M89,37h1v1h-1z M91,37h1v1h-1z M92,37h1v1h-1z M96,37h1v1h-1z M98,37h1v1h-1z M100,37h1v1h-1z M103,37h1v1h-1z M104,37h1v1h-1z M105,37h1v1h-1z M106,37h1v1h-1z M107,37h1v1h-1z M108,37h1v1h-1z M4,38h1v1h-1z M5,38h1v1h-1z M9,38h1v1h-1z M10,38h1v1h-1z M11,38h1v1h-1z M12,38h1v1h-1z M13,38h1v1h-1z M14,38h1v1h-1z M15,38h1v1h-1z M17,38h1v1h-1z M18,38h1v1h-1z M19,38h1v1h-1z M20,38h1v1h-1z M22,38h1v1h-1z M24,38h1v1h-1z M29,38h1v1h-1z M30,38h1v1h-1z M35,38h1v1h-1z M36,38h1v1h-1z M38,38h1v1h-1z M39,38h1v1h-1z M40,38h1v1h-1z M41,38h1v1h-1z M43,38h1v1h-1z M45,38h1v1h-1z M47,38h1v1h-1z M48,38h1v1h-1z M49,38h1v1h-1z M50,38h1v1h-1z M51,38h1v1h-1z M52,38h1v1h-1z M55,38h1v1h-1z M59,38h1v1h-1z M60,38h1v1h-1z M62,38h1v1h-1z M63,38h1v1h-1z M64,38h1v1h-1z M65,38h1v1h-1z M71,38h1v1h-1z M72,38h1v1h-1z M74,38h1v1h-1z M75,38h1v1h-1z M78,38h1v1h-1z M79,38h1v1h-1z M83,38h1v1h-1z M86,38h1v1h-1z M88,38h1v1h-1z M91,38h1v1h-1z M92,38h1v1h-1z M95,38h1v1h-1z M96,38h1v1h-1z M98,38h1v1h-1z M99,38h1v1h-1z M100,38h1v1h-1z M103,38h1v1h-1z M105,38h1v1h-1z M107,38h1v1h-1z M4,39h1v1h-1z M6,39h1v1h-1z M9,39h1v1h-1z M13,39h1v1h-1z M14,39h1v1h-1z M15,39h1v1h-1z M18,39h1v1h-1z M19,39h1v1h-1z M20,39h1v1h-1z M26,39h1v1h-1z M28,39h1v1h-1z M29,39h1v1h-1z M34,39h1v1h-1z M35,39h1v1h-1z M38,39h1v1h-1z M41,39h1v1h-1z M44,39h1v1h-1z M45,39h1v1h-1z M46,39h1v1h-1z M47,39h1v1h-1z M53,39h1v1h-1z M56,39h1v1h-1z M58,39h1v1h-1z M61,39h1v1h-1z M62,39h1v1h-1z M63,39h1v1h-1z M65,39h1v1h-1z M67,39h1v1h-1z M68,39h1v1h-1z M71,39h1v1h-1z M73,39h1v1h-1z M76,39h1v1h-1z M77,39h1v1h-1z M79,39h1v1h-1z M80,39h1v1h-1z M81,39h1v1h-1z M83,39h1v1h-1z M86,39h1v1h-1z M89,39h1v1h-1z M90,39h1v1h-1z M92,39h1v1h-1z M93,39h1v1h-1z M99,39h1v1h-1z M104,39h1v1h-1z M105,39h1v1h-1z M4,40h1v1h-1z M7,40h1v1h-1z M10,40h1v1h-1z M12,40h1v1h-1z M13,40h1v1h-1z M14,40h1v1h-1z M21,40h1v1h-1z M22,40h1v1h-1z M25,40h1v1h-1z M31,40h1v1h-1z M34,40h1v1h-1z M35,40h1v1h-1z M37,40h1v1h-1z M40,40h1v1h-1z M41,40h1v1h-1z M44,40h1v1h-1z M47,40h1v1h-1z M48,40h1v1h-1z M49,40h1v1h-1z M54,40h1v1h-1z M55,40h1v1h-1z M58,40h1v1h-1z M60,40h1v1h-1z M62,40h1v1h-1z M65,40h1v1h-1z M66,40h1v1h-1z M69,40h1v1h-1z M70,40h1v1h-1z M71,40h1v1h-1z M73,40h1v1h-1z M74,40h1v1h-1z M76,40h1v1h-1z M77,40h1v1h-1z M79,40h1v1h-1z M81,40h1v1h-1z M82,40h1v1h-1z M84,40h1v1h-1z M85,40h1v1h-1z M88,40h1v1h-1z M89,40h1v1h-1z M90,40h1v1h-1z M94,40h1v1h-1z M98,40h1v1h-1z M99,40h1v1h-1z M100,40h1v1h-1z M102,40h1v1h-1z M103,40h1v1h-1z M105,40h1v1h-1z M107,40h1v1h-1z M108,40h1v1h-1z M4,41h1v1h-1z M8,41h1v1h-1z M11,41h1v1h-1z M12,41h1v1h-1z M13,41h1v1h-1z M14,41h1v1h-1z M16,41h1v1h-1z M18,41h1v1h-1z M22,41h1v1h-1z M23,41h1v1h-1z M24,41h1v1h-1z M25,41h1v1h-1z M26,41h1v1h-1z M29,41h1v1h-1z M31,41h1v1h-1z M35,41h1v1h-1z M36,41h1v1h-1z M37,41h1v1h-1z M38,41h1v1h-1z M39,41h1v1h-1z M40,41h1v1h-1z M42,41h1v1h-1z M44,41h1v1h-1z M46,41h1v1h-1z M47,41h1v1h-1z M48,41h1v1h-1z M49,41h1v1h-1z M50,41h1v1h-1z M51,41h1v1h-1z M52,41h1v1h-1z M55,41h1v1h-1z M56,41h1v1h-1z M59,41h1v1h-1z M61,41h1v1h-1z M64,41h1v1h-1z M66,41h1v1h-1z M71,41h1v1h-1z M74,41h1v1h-1z M78,41h1v1h-1z M81,41h1v1h-1z M83,41h1v1h-1z M84,41h1v1h-1z M85,41h1v1h-1z M87,41h1v1h-1z M90,41h1v1h-1z M92,41h1v1h-1z M93,41h1v1h-1z M97,41h1v1h-1z M98,41h1v1h-1z M99,41h1v1h-1z M100,41h1v1h-1z M101,41h1v1h-1z M102,41h1v1h-1z M106,41h1v1h-1z M4,42h1v1h-1z M6,42h1v1h-1z M7,42h1v1h-1z M8,42h1v1h-1z M10,42h1v1h-1z M11,42h1v1h-1z M12,42h1v1h-1z M13,42h1v1h-1z M14,42h1v1h-1z M16,42h1v1h-1z M18,42h1v1h-1z M20,42h1v1h-1z M22,42h1v1h-1z M24,42h1v1h-1z M25,42h1v1h-1z M26,42h1v1h-1z M27,42h1v1h-1z M32,42h1v1h-1z M33,42h1v1h-1z M36,42h1v1h-1z M37,42h1v1h-1z M38,42h1v1h-1z M40,42h1v1h-1z M41,42h1v1h-1z M48,42h1v1h-1z M50,42h1v1h-1z M52,42h1v1h-1z M59,42h1v1h-1z M60,42h1v1h-1z M62,42h1v1h-1z M63,42h1v1h-1z M64,42h1v1h-1z M65,42h1v1h-1z M69,42h1v1h-1z M72,42h1v1h-1z M74,42h1v1h-1z M75,42h1v1h-1z M76,42h1v1h-1z M78,42h1v1h-1z M80,42h1v1h-1z M84,42h1v1h-1z M86,42h1v1h-1z M87,42h1v1h-1z M88,42h1v1h-1z M98,42h1v1h-1z M100,42h1v1h-1z M101,42h1v1h-1z M5,43h1v1h-1z M6,43h1v1h-1z M7,43h1v1h-1z M11,43h1v1h-1z M12,43h1v1h-1z M13,43h1v1h-1z M16,43h1v1h-1z M17,43h1v1h-1z M19,43h1v1h-1z M20,43h1v1h-1z M21,43h1v1h-1z M22,43h1v1h-1z M24,43h1v1h-1z M25,43h1v1h-1z M29,43h1v1h-1z M34,43h1v1h-1z M35,43h1v1h-1z M37,43h1v1h-1z M41,43h1v1h-1z M42,43h1v1h-1z M43,43h1v1h-1z M44,43h1v1h-1z M46,43h1v1h-1z M49,43h1v1h-1z M50,43h1v1h-1z M53,43h1v1h-1z M55,43h1v1h-1z M57,43h1v1h-1z M58,43h1v1h-1z M59,43h1v1h-1z M62,43h1v1h-1z M65,43h1v1h-1z M68,43h1v1h-1z M69,43h1v1h-1z M70,43h1v1h-1z M73,43h1v1h-1z M74,43h1v1h-1z M77,43h1v1h-1z M83,43h1v1h-1z M85,43h1v1h-1z M86,43h1v1h-1z M90,43h1v1h-1z M92,43h1v1h-1z M95,43h1v1h-1z M99,43h1v1h-1z M100,43h1v1h-1z M102,43h1v1h-1z M103,43h1v1h-1z M104,43h1v1h-1z M108,43h1v1h-1z M4,44h1v1h-1z M6,44h1v1h-1z M9,44h1v1h-1z M10,44h1v1h-1z M11,44h1v1h-1z M12,44h1v1h-1z M14,44h1v1h-1z M15,44h1v1h-1z M19,44h1v1h-1z M23,44h1v1h-1z M24,44h1v1h-1z M28,44h1v1h-1z M29,44h1v1h-1z M30,44h1v1h-1z M34,44h1v1h-1z M35,44h1v1h-1z M36,44h1v1h-1z M37,44h1v1h-1z M40,44h1v1h-1z M42,44h1v1h-1z M44,44h1v1h-1z M46,44h1v1h-1z M47,44h1v1h-1z M49,44h1v1h-1z M50,44h1v1h-1z M52,44h1v1h-1z M53,44h1v1h-1z M54,44h1v1h-1z M55,44h1v1h-1z M57,44h1v1h-1z M59,44h1v1h-1z M60,44h1v1h-1z M62,44h1v1h-1z M64,44h1v1h-1z M65,44h1v1h-1z M66,44h1v1h-1z M68,44h1v1h-1z M71,44h1v1h-1z M73,44h1v1h-1z M76,44h1v1h-1z M77,44h1v1h-1z M79,44h1v1h-1z M83,44h1v1h-1z M85,44h1v1h-1z M86,44h1v1h-1z M87,44h1v1h-1z M88,44h1v1h-1z M89,44h1v1h-1z M90,44h1v1h-1z M91,44h1v1h-1z M93,44h1v1h-1z M94,44h1v1h-1z M97,44h1v1h-1z M100,44h1v1h-1z M102,44h1v1h-1z M103,44h1v1h-1z M106,44h1v1h-1z M5,45h1v1h-1z M6,45h1v1h-1z M8,45h1v1h-1z M11,45h1v1h-1z M12,45h1v1h-1z M13,45h1v1h-1z M15,45h1v1h-1z M16,45h1v1h-1z M18,45h1v1h-1z M19,45h1v1h-1z M20,45h1v1h-1z M21,45h1v1h-1z M22,45h1v1h-1z M23,45h1v1h-1z M24,45h1v1h-1z M28,45h1v1h-1z M30,45h1v1h-1z M33,45h1v1h-1z M34,45h1v1h-1z M35,45h1v1h-1z M36,45h1v1h-1z M37,45h1v1h-1z M39,45h1v1h-1z M40,45h1v1h-1z M41,45h1v1h-1z M46,45h1v1h-1z M48,45h1v1h-1z M50,45h1v1h-1z M51,45h1v1h-1z M52,45h1v1h-1z M53,45h1v1h-1z M54,45h1v1h-1z M55,45h1v1h-1z M58,45h1v1h-1z M60,45h1v1h-1z M64,45h1v1h-1z M66,45h1v1h-1z M69,45h1v1h-1z M74,45h1v1h-1z M77,45h1v1h-1z M82,45h1v1h-1z M83,45h1v1h-1z M84,45h1v1h-1z M85,45h1v1h-1z M86,45h1v1h-1z M88,45h1v1h-1z M94,45h1v1h-1z M95,45h1v1h-1z M96,45h1v1h-1z M102,45h1v1h-1z M103,45h1v1h-1z M105,45h1v1h-1z M106,45h1v1h-1z M107,45h1v1h-1z M5,46h1v1h-1z M6,46h1v1h-1z M7,46h1v1h-1z M8,46h1v1h-1z M9,46h1v1h-1z M10,46h1v1h-1z M13,46h1v1h-1z M16,46h1v1h-1z M17,46h1v1h-1z M18,46h1v1h-1z M21,46h1v1h-1z M24,46h1v1h-1z M25,46h1v1h-1z M26,46h1v1h-1z M27,46h1v1h-1z M28,46h1v1h-1z M30,46h1v1h-1z M32,46h1v1h-1z M35,46h1v1h-1z M38,46h1v1h-1z M40,46h1v1h-1z M41,46h1v1h-1z M47,46h1v1h-1z M48,46h1v1h-1z M49,46h1v1h-1z M50,46h1v1h-1z M51,46h1v1h-1z M52,46h1v1h-1z M54,46h1v1h-1z M56,46h1v1h-1z M59,46h1v1h-1z M60,46h1v1h-1z M62,46h1v1h-1z M64,46h1v1h-1z M65,46h1v1h-1z M71,46h1v1h-1z M74,46h1v1h-1z M75,46h1v1h-1z M78,46h1v1h-1z M83,46h1v1h-1z M84,46h1v1h-1z M86,46h1v1h-1z M88,46h1v1h-1z M89,46h1v1h-1z M96,46h1v1h-1z M98,46h1v1h-1z M99,46h1v1h-1z M100,46h1v1h-1z M102,46h1v1h-1z M103,46h1v1h-1z M104,46h1v1h-1z M4,47h1v1h-1z M6,47h1v1h-1z M7,47h1v1h-1z M11,47h1v1h-1z M13,47h1v1h-1z M14,47h1v1h-1z M15,47h1v1h-1z M23,47h1v1h-1z M26,47h1v1h-1z M27,47h1v1h-1z M28,47h1v1h-1z M29,47h1v1h-1z M35,47h1v1h-1z M38,47h1v1h-1z M39,47h1v1h-1z M41,47h1v1h-1z M42,47h1v1h-1z M43,47h1v1h-1z M44,47h1v1h-1z M47,47h1v1h-1z M53,47h1v1h-1z M57,47h1v1h-1z M62,47h1v1h-1z M63,47h1v1h-1z M67,47h1v1h-1z M68,47h1v1h-1z M71,47h1v1h-1z M73,47h1v1h-1z M74,47h1v1h-1z M75,47h1v1h-1z M76,47h1v1h-1z M77,47h1v1h-1z M82,47h1v1h-1z M86,47h1v1h-1z M87,47h1v1h-1z M92,47h1v1h-1z M94,47h1v1h-1z M99,47h1v1h-1z M100,47h1v1h-1z M102,47h1v1h-1z M104,47h1v1h-1z M105,47h1v1h-1z M107,47h1v1h-1z M4,48h1v1h-1z M5,48h1v1h-1z M8,48h1v1h-1z M9,48h1v1h-1z M10,48h1v1h-1z M13,48h1v1h-1z M20,48h1v1h-1z M23,48h1v1h-1z M24,48h1v1h-1z M25,48h1v1h-1z M28,48h1v1h-1z M29,48h1v1h-1z M30,48h1v1h-1z M31,48h1v1h-1z M33,48h1v1h-1z M34,48h1v1h-1z M35,48h1v1h-1z M36,48h1v1h-1z M40,48h1v1h-1z M41,48h1v1h-1z M43,48h1v1h-1z M44,48h1v1h-1z M45,48h1v1h-1z M47,48h1v1h-1z M53,48h1v1h-1z M57,48h1v1h-1z M58,48h1v1h-1z M59,48h1v1h-1z M65,48h1v1h-1z M68,48h1v1h-1z M69,48h1v1h-1z M70,48h1v1h-1z M73,48h1v1h-1z M77,48h1v1h-1z M79,48h1v1h-1z M81,48h1v1h-1z M82,48h1v1h-1z M84,48h1v1h-1z M88,48h1v1h-1z M89,48h1v1h-1z M90,48h1v1h-1z M95,48h1v1h-1z M98,48h1v1h-1z M102,48h1v1h-1z M104,48h1v1h-1z M105,48h1v1h-1z M107,48h1v1h-1z M4,49h1v1h-1z M5,49h1v1h-1z M6,49h1v1h-1z M7,49h1v1h-1z M9,49h1v1h-1z M14,49h1v1h-1z M16,49h1v1h-1z M17,49h1v1h-1z M21,49h1v1h-1z M24,49h1v1h-1z M25,49h1v1h-1z M30,49h1v1h-1z M31,49h1v1h-1z M33,49h1v1h-1z M34,49h1v1h-1z M36,49h1v1h-1z M38,49h1v1h-1z M40,49h1v1h-1z M42,49h1v1h-1z M43,49h1v1h-1z M44,49h1v1h-1z M45,49h1v1h-1z M47,49h1v1h-1z M49,49h1v1h-1z M50,49h1v1h-1z M52,49h1v1h-1z M54,49h1v1h-1z M55,49h1v1h-1z M59,49h1v1h-1z M60,49h1v1h-1z M61,49h1v1h-1z M67,49h1v1h-1z M69,49h1v1h-1z M74,49h1v1h-1z M77,49h1v1h-1z M79,49h1v1h-1z M82,49h1v1h-1z M84,49h1v1h-1z M85,49h1v1h-1z M92,49h1v1h-1z M97,49h1v1h-1z M98,49h1v1h-1z M101,49h1v1h-1z M102,49h1v1h-1z M104,49h1v1h-1z M105,49h1v1h-1z M106,49h1v1h-1z M4,50h1v1h-1z M5,50h1v1h-1z M8,50h1v1h-1z M9,50h1v1h-1z M10,50h1v1h-1z M15,50h1v1h-1z M16,50h1v1h-1z M19,50h1v1h-1z M20,50h1v1h-1z M21,50h1v1h-1z M23,50h1v1h-1z M27,50h1v1h-1z M28,50h1v1h-1z M30,50h1v1h-1z M31,50h1v1h-1z M32,50h1v1h-1z M38,50h1v1h-1z M41,50h1v1h-1z M43,50h1v1h-1z M44,50h1v1h-1z M48,50h1v1h-1z M49,50h1v1h-1z M50,50h1v1h-1z M53,50h1v1h-1z M54,50h1v1h-1z M62,50h1v1h-1z M65,50h1v1h-1z M67,50h1v1h-1z M68,50h1v1h-1z M71,50h1v1h-1z M72,50h1v1h-1z M74,50h1v1h-1z M77,50h1v1h-1z M78,50h1v1h-1z M79,50h1v1h-1z M81,50h1v1h-1z M85,50h1v1h-1z M86,50h1v1h-1z M87,50h1v1h-1z M88,50h1v1h-1z M89,50h1v1h-1z M91,50h1v1h-1z M92,50h1v1h-1z M96,50h1v1h-1z M98,50h1v1h-1z M101,50h1v1h-1z M103,50h1v1h-1z M106,50h1v1h-1z M6,51h1v1h-1z M8,51h1v1h-1z M9,51h1v1h-1z M11,51h1v1h-1z M13,51h1v1h-1z M15,51h1v1h-1z M16,51h1v1h-1z M17,51h1v1h-1z M20,51h1v1h-1z M21,51h1v1h-1z M25,51h1v1h-1z M27,51h1v1h-1z M28,51h1v1h-1z M29,51h1v1h-1z M31,51h1v1h-1z M32,51h1v1h-1z M33,51h1v1h-1z M35,51h1v1h-1z M37,51h1v1h-1z M38,51h1v1h-1z M41,51h1v1h-1z M42,51h1v1h-1z M44,51h1v1h-1z M46,51h1v1h-1z M47,51h1v1h-1z M53,51h1v1h-1z M55,51h1v1h-1z M56,51h1v1h-1z M57,51h1v1h-1z M59,51h1v1h-1z M65,51h1v1h-1z M68,51h1v1h-1z M69,51h1v1h-1z M70,51h1v1h-1z M71,51h1v1h-1z M74,51h1v1h-1z M76,51h1v1h-1z M79,51h1v1h-1z M82,51h1v1h-1z M83,51h1v1h-1z M90,51h1v1h-1z M92,51h1v1h-1z M93,51h1v1h-1z M97,51h1v1h-1z M98,51h1v1h-1z M99,51h1v1h-1z M100,51h1v1h-1z M101,51h1v1h-1z M102,51h1v1h-1z M104,51h1v1h-1z M4,52h1v1h-1z M5,52h1v1h-1z M8,52h1v1h-1z M9,52h1v1h-1z M10,52h1v1h-1z M11,52h1v1h-1z M12,52h1v1h-1z M13,52h1v1h-1z M14,52h1v1h-1z M16,52h1v1h-1z M17,52h1v1h-1z M20,52h1v1h-1z M22,52h1v1h-1z M23,52h1v1h-1z M25,52h1v1h-1z M28,52h1v1h-1z M29,52h1v1h-1z M30,52h1v1h-1z M31,52h1v1h-1z M32,52h1v1h-1z M34,52h1v1h-1z M35,52h1v1h-1z M36,52h1v1h-1z M37,52h1v1h-1z M40,52h1v1h-1z M41,52h1v1h-1z M42,52h1v1h-1z M43,52h1v1h-1z M44,52h1v1h-1z M45,52h1v1h-1z M46,52h1v1h-1z M47,52h1v1h-1z M48,52h1v1h-1z M49,52h1v1h-1z M52,52h1v1h-1z M53,52h1v1h-1z M54,52h1v1h-1z M55,52h1v1h-1z M56,52h1v1h-1z M58,52h1v1h-1z M60,52h1v1h-1z M62,52h1v1h-1z M64,52h1v1h-1z M65,52h1v1h-1z M66,52h1v1h-1z M67,52h1v1h-1z M72,52h1v1h-1z M73,52h1v1h-1z M74,52h1v1h-1z M76,52h1v1h-1z M77,52h1v1h-1z M78,52h1v1h-1z M79,52h1v1h-1z M80,52h1v1h-1z M82,52h1v1h-1z M83,52h1v1h-1z M84,52h1v1h-1z M85,52h1v1h-1z M87,52h1v1h-1z M88,52h1v1h-1z M89,52h1v1h-1z M90,52h1v1h-1z M92,52h1v1h-1z M94,52h1v1h-1z M97,52h1v1h-1z M99,52h1v1h-1z M100,52h1v1h-1z M101,52h1v1h-1z M102,52h1v1h-1z M103,52h1v1h-1z M104,52h1v1h-1z M106,52h1v1h-1z M107,52h1v1h-1z M7,53h1v1h-1z M8,53h1v1h-1z M12,53h1v1h-1z M13,53h1v1h-1z M17,53h1v1h-1z M18,53h1v1h-1z M19,53h1v1h-1z M21,53h1v1h-1z M23,53h1v1h-1z M24,53h1v1h-1z M26,53h1v1h-1z M28,53h1v1h-1z M32,53h1v1h-1z M35,53h1v1h-1z M36,53h1v1h-1z M42,53h1v1h-1z M43,53h1v1h-1z M44,53h1v1h-1z M46,53h1v1h-1z M47,53h1v1h-1z M49,53h1v1h-1z M50,53h1v1h-1z M52,53h1v1h-1z M56,53h1v1h-1z M57,53h1v1h-1z M66,53h1v1h-1z M68,53h1v1h-1z M69,53h1v1h-1z M70,53h1v1h-1z M73,53h1v1h-1z M74,53h1v1h-1z M75,53h1v1h-1z M76,53h1v1h-1z M80,53h1v1h-1z M85,53h1v1h-1z M90,53h1v1h-1z M91,53h1v1h-1z M96,53h1v1h-1z M98,53h1v1h-1z M99,53h1v1h-1z M100,53h1v1h-1z M104,53h1v1h-1z M106,53h1v1h-1z M107,53h1v1h-1z M4,54h1v1h-1z M5,54h1v1h-1z M6,54h1v1h-1z M7,54h1v1h-1z M8,54h1v1h-1z M10,54h1v1h-1z M12,54h1v1h-1z M16,54h1v1h-1z M17,54h1v1h-1z M20,54h1v1h-1z M21,54h1v1h-1z M22,54h1v1h-1z M23,54h1v1h-1z M24,54h1v1h-1z M25,54h1v1h-1z M26,54h1v1h-1z M28,54h1v1h-1z M30,54h1v1h-1z M32,54h1v1h-1z M33,54h1v1h-1z M35,54h1v1h-1z M36,54h1v1h-1z M38,54h1v1h-1z M39,54h1v1h-1z M40,54h1v1h-1z M43,54h1v1h-1z M44,54h1v1h-1z M48,54h1v1h-1z M50,54h1v1h-1z M51,54h1v1h-1z M52,54h1v1h-1z M54,54h1v1h-1z M56,54h1v1h-1z M61,54h1v1h-1z M62,54h1v1h-1z M63,54h1v1h-1z M65,54h1v1h-1z M69,54h1v1h-1z M74,54h1v1h-1z M75,54h1v1h-1z M76,54h1v1h-1z M78,54h1v1h-1z M80,54h1v1h-1z M83,54h1v1h-1z M84,54h1v1h-1z M86,54h1v1h-1z M87,54h1v1h-1z M89,54h1v1h-1z M92,54h1v1h-1z M95,54h1v1h-1z M96,54h1v1h-1z M98,54h1v1h-1z M100,54h1v1h-1z M102,54h1v1h-1z M104,54h1v1h-1z M105,54h1v1h-1z M107,54h1v1h-1z M6,55h1v1h-1z M7,55h1v1h-1z M8,55h1v1h-1z M12,55h1v1h-1z M15,55h1v1h-1z M17,55h1v1h-1z M25,55h1v1h-1z M27,55h1v1h-1z M28,55h1v1h-1z M32,55h1v1h-1z M33,55h1v1h-1z M34,55h1v1h-1z M35,55h1v1h-1z M41,55h1v1h-1z M42,55h1v1h-1z M44,55h1v1h-1z M46,55h1v1h-1z M49,55h1v1h-1z M50,55h1v1h-1z M52,55h1v1h-1z M56,55h1v1h-1z M57,55h1v1h-1z M59,55h1v1h-1z M61,55h1v1h-1z M67,55h1v1h-1z M68,55h1v1h-1z M70,55h1v1h-1z M71,55h1v1h-1z M73,55h1v1h-1z M74,55h1v1h-1z M76,55h1v1h-1z M80,55h1v1h-1z M81,55h1v1h-1z M82,55h1v1h-1z M85,55h1v1h-1z M89,55h1v1h-1z M92,55h1v1h-1z M93,55h1v1h-1z M95,55h1v1h-1z M98,55h1v1h-1z M99,55h1v1h-1z M100,55h1v1h-1z M104,55h1v1h-1z M107,55h1v1h-1z M4,56h1v1h-1z M5,56h1v1h-1z M6,56h1v1h-1z M8,56h1v1h-1z M9,56h1v1h-1z M10,56h1v1h-1z M11,56h1v1h-1z M12,56h1v1h-1z M15,56h1v1h-1z M18,56h1v1h-1z M20,56h1v1h-1z M22,56h1v1h-1z M24,56h1v1h-1z M25,56h1v1h-1z M26,56h1v1h-1z M28,56h1v1h-1z M29,56h1v1h-1z M30,56h1v1h-1z M31,56h1v1h-1z M32,56h1v1h-1z M33,56h1v1h-1z M34,56h1v1h-1z M35,56h1v1h-1z M36,56h1v1h-1z M38,56h1v1h-1z M41,56h1v1h-1z M42,56h1v1h-1z M43,56h1v1h-1z M47,56h1v1h-1z M50,56h1v1h-1z M52,56h1v1h-1z M53,56h1v1h-1z M54,56h1v1h-1z M55,56h1v1h-1z M56,56h1v1h-1z M61,56h1v1h-1z M62,56h1v1h-1z M63,56h1v1h-1z M64,56h1v1h-1z M66,56h1v1h-1z M67,56h1v1h-1z M72,56h1v1h-1z M73,56h1v1h-1z M76,56h1v1h-1z M77,56h1v1h-1z M78,56h1v1h-1z M79,56h1v1h-1z M80,56h1v1h-1z M84,56h1v1h-1z M86,56h1v1h-1z M87,56h1v1h-1z M88,56h1v1h-1z M89,56h1v1h-1z M90,56h1v1h-1z M91,56h1v1h-1z M92,56h1v1h-1z M93,56h1v1h-1z M95,56h1v1h-1z M96,56h1v1h-1z M98,56h1v1h-1z M99,56h1v1h-1z M100,56h1v1h-1z M101,56h1v1h-1z M102,56h1v1h-1z M103,56h1v1h-1z M104,56h1v1h-1z M105,56h1v1h-1z M107,56h1v1h-1z M5,57h1v1h-1z M6,57h1v1h-1z M7,57h1v1h-1z M9,57h1v1h-1z M11,57h1v1h-1z M12,57h1v1h-1z M14,57h1v1h-1z M16,57h1v1h-1z M18,57h1v1h-1z M19,57h1v1h-1z M20,57h1v1h-1z M22,57h1v1h-1z M24,57h1v1h-1z M25,57h1v1h-1z M27,57h1v1h-1z M29,57h1v1h-1z M30,57h1v1h-1z M31,57h1v1h-1z M36,57h1v1h-1z M38,57h1v1h-1z M40,57h1v1h-1z M41,57h1v1h-1z M42,57h1v1h-1z M47,57h1v1h-1z M48,57h1v1h-1z M54,57h1v1h-1z M55,57h1v1h-1z M60,57h1v1h-1z M61,57h1v1h-1z M62,57h1v1h-1z M63,57h1v1h-1z M64,57h1v1h-1z M70,57h1v1h-1z M72,57h1v1h-1z M73,57h1v1h-1z M75,57h1v1h-1z M76,57h1v1h-1z M82,57h1v1h-1z M83,57h1v1h-1z M85,57h1v1h-1z M88,57h1v1h-1z M89,57h1v1h-1z M91,57h1v1h-1z M94,57h1v1h-1z M96,57h1v1h-1z M99,57h1v1h-1z M100,57h1v1h-1z M101,57h1v1h-1z M102,57h1v1h-1z M103,57h1v1h-1z M104,57h1v1h-1z M106,57h1v1h-1z M8,58h1v1h-1z M9,58h1v1h-1z M10,58h1v1h-1z M11,58h1v1h-1z M14,58h1v1h-1z M15,58h1v1h-1z M18,58h1v1h-1z M22,58h1v1h-1z M26,58h1v1h-1z M27,58h1v1h-1z M29,58h1v1h-1z M30,58h1v1h-1z M35,58h1v1h-1z M36,58h1v1h-1z M38,58h1v1h-1z M39,58h1v1h-1z M40,58h1v1h-1z M41,58h1v1h-1z M43,58h1v1h-1z M44,58h1v1h-1z M47,58h1v1h-1z M48,58h1v1h-1z M50,58h1v1h-1z M54,58h1v1h-1z M56,58h1v1h-1z M57,58h1v1h-1z M59,58h1v1h-1z M60,58h1v1h-1z M61,58h1v1h-1z M62,58h1v1h-1z M64,58h1v1h-1z M65,58h1v1h-1z M67,58h1v1h-1z M68,58h1v1h-1z M71,58h1v1h-1z M72,58h1v1h-1z M74,58h1v1h-1z M78,58h1v1h-1z M84,58h1v1h-1z M86,58h1v1h-1z M87,58h1v1h-1z M88,58h1v1h-1z M89,58h1v1h-1z M91,58h1v1h-1z M93,58h1v1h-1z M95,58h1v1h-1z M96,58h1v1h-1z M97,58h1v1h-1z M98,58h1v1h-1z M100,58h1v1h-1z M101,58h1v1h-1z M102,58h1v1h-1z M104,58h1v1h-1z M107,58h1v1h-1z M5,59h1v1h-1z M6,59h1v1h-1z M8,59h1v1h-1z M9,59h1v1h-1z M13,59h1v1h-1z M14,59h1v1h-1z M18,59h1v1h-1z M20,59h1v1h-1z M21,59h1v1h-1z M25,59h1v1h-1z M28,59h1v1h-1z M29,59h1v1h-1z M30,59h1v1h-1z M31,59h1v1h-1z M34,59h1v1h-1z M35,59h1v1h-1z M37,59h1v1h-1z M38,59h1v1h-1z M41,59h1v1h-1z M42,59h1v1h-1z M44,59h1v1h-1z M47,59h1v1h-1z M51,59h1v1h-1z M55,59h1v1h-1z M56,59h1v1h-1z M57,59h1v1h-1z M58,59h1v1h-1z M59,59h1v1h-1z M65,59h1v1h-1z M66,59h1v1h-1z M68,59h1v1h-1z M70,59h1v1h-1z M71,59h1v1h-1z M73,59h1v1h-1z M74,59h1v1h-1z M75,59h1v1h-1z M77,59h1v1h-1z M81,59h1v1h-1z M83,59h1v1h-1z M85,59h1v1h-1z M90,59h1v1h-1z M92,59h1v1h-1z M94,59h1v1h-1z M95,59h1v1h-1z M97,59h1v1h-1z M99,59h1v1h-1z M100,59h1v1h-1z M101,59h1v1h-1z M103,59h1v1h-1z M104,59h1v1h-1z M107,59h1v1h-1z M7,60h1v1h-1z M10,60h1v1h-1z M16,60h1v1h-1z M17,60h1v1h-1z M18,60h1v1h-1z M19,60h1v1h-1z M21,60h1v1h-1z M24,60h1v1h-1z M25,60h1v1h-1z M28,60h1v1h-1z M29,60h1v1h-1z M30,60h1v1h-1z M31,60h1v1h-1z M32,60h1v1h-1z M33,60h1v1h-1z M34,60h1v1h-1z M36,60h1v1h-1z M37,60h1v1h-1z M40,60h1v1h-1z M43,60h1v1h-1z M47,60h1v1h-1z M49,60h1v1h-1z M50,60h1v1h-1z M52,60h1v1h-1z M54,60h1v1h-1z M57,60h1v1h-1z M58,60h1v1h-1z M59,60h1v1h-1z M63,60h1v1h-1z M68,60h1v1h-1z M69,60h1v1h-1z M70,60h1v1h-1z M71,60h1v1h-1z M72,60h1v1h-1z M73,60h1v1h-1z M78,60h1v1h-1z M79,60h1v1h-1z M80,60h1v1h-1z M84,60h1v1h-1z M88,60h1v1h-1z M89,60h1v1h-1z M92,60h1v1h-1z M94,60h1v1h-1z M96,60h1v1h-1z M97,60h1v1h-1z M100,60h1v1h-1z M103,60h1v1h-1z M106,60h1v1h-1z M107,60h1v1h-1z M5,61h1v1h-1z M6,61h1v1h-1z M9,61h1v1h-1z M13,61h1v1h-1z M16,61h1v1h-1z M17,61h1v1h-1z M20,61h1v1h-1z M21,61h1v1h-1z M22,61h1v1h-1z M23,61h1v1h-1z M25,61h1v1h-1z M28,61h1v1h-1z M31,61h1v1h-1z M42,61h1v1h-1z M43,61h1v1h-1z M44,61h1v1h-1z M46,61h1v1h-1z M48,61h1v1h-1z M49,61h1v1h-1z M53,61h1v1h-1z M55,61h1v1h-1z M57,61h1v1h-1z M58,61h1v1h-1z M59,61h1v1h-1z M62,61h1v1h-1z M63,61h1v1h-1z M66,61h1v1h-1z M67,61h1v1h-1z M71,61h1v1h-1z M73,61h1v1h-1z M74,61h1v1h-1z M76,61h1v1h-1z M77,61h1v1h-1z M78,61h1v1h-1z M81,61h1v1h-1z M82,61h1v1h-1z M83,61h1v1h-1z M87,61h1v1h-1z M88,61h1v1h-1z M92,61h1v1h-1z M94,61h1v1h-1z M95,61h1v1h-1z M96,61h1v1h-1z M97,61h1v1h-1z M98,61h1v1h-1z M99,61h1v1h-1z M100,61h1v1h-1z M102,61h1v1h-1z M103,61h1v1h-1z M105,61h1v1h-1z M106,61h1v1h-1z M5,62h1v1h-1z M7,62h1v1h-1z M9,62h1v1h-1z M10,62h1v1h-1z M12,62h1v1h-1z M13,62h1v1h-1z M14,62h1v1h-1z M15,62h1v1h-1z M16,62h1v1h-1z M22,62h1v1h-1z M25,62h1v1h-1z M29,62h1v1h-1z M30,62h1v1h-1z M31,62h1v1h-1z M32,62h1v1h-1z M35,62h1v1h-1z M36,62h1v1h-1z M38,62h1v1h-1z M39,62h1v1h-1z M40,62h1v1h-1z M41,62h1v1h-1z M43,62h1v1h-1z M49,62h1v1h-1z M50,62h1v1h-1z M53,62h1v1h-1z M55,62h1v1h-1z M56,62h1v1h-1z M57,62h1v1h-1z M62,62h1v1h-1z M67,62h1v1h-1z M69,62h1v1h-1z M72,62h1v1h-1z M74,62h1v1h-1z M79,62h1v1h-1z M80,62h1v1h-1z M81,62h1v1h-1z M86,62h1v1h-1z M88,62h1v1h-1z M89,62h1v1h-1z M91,62h1v1h-1z M92,62h1v1h-1z M98,62h1v1h-1z M102,62h1v1h-1z M103,62h1v1h-1z M104,62h1v1h-1z M105,62h1v1h-1z M106,62h1v1h-1z M9,63h1v1h-1z M11,63h1v1h-1z M12,63h1v1h-1z M14,63h1v1h-1z M20,63h1v1h-1z M21,63h1v1h-1z M22,63h1v1h-1z M23,63h1v1h-1z M25,63h1v1h-1z M29,63h1v1h-1z M30,63h1v1h-1z M32,63h1v1h-1z M34,63h1v1h-1z M35,63h1v1h-1z M37,63h1v1h-1z M38,63h1v1h-1z M44,63h1v1h-1z M45,63h1v1h-1z M46,63h1v1h-1z M47,63h1v1h-1z M51,63h1v1h-1z M52,63h1v1h-1z M56,63h1v1h-1z M58,63h1v1h-1z M59,63h1v1h-1z M61,63h1v1h-1z M62,63h1v1h-1z M65,63h1v1h-1z M66,63h1v1h-1z M68,63h1v1h-1z M70,63h1v1h-1z M73,63h1v1h-1z M75,63h1v1h-1z M77,63h1v1h-1z M79,63h1v1h-1z M80,63h1v1h-1z M82,63h1v1h-1z M83,63h1v1h-1z M90,63h1v1h-1z M92,63h1v1h-1z M93,63h1v1h-1z M95,63h1v1h-1z M98,63h1v1h-1z M99,63h1v1h-1z M101,63h1v1h-1z M107,63h1v1h-1z M108,63h1v1h-1z M4,64h1v1h-1z M5,64h1v1h-1z M7,64h1v1h-1z M8,64h1v1h-1z M10,64h1v1h-1z M11,64h1v1h-1z M13,64h1v1h-1z M16,64h1v1h-1z M18,64h1v1h-1z M19,64h1v1h-1z M20,64h1v1h-1z M21,64h1v1h-1z M23,64h1v1h-1z M24,64h1v1h-1z M26,64h1v1h-1z M30,64h1v1h-1z M34,64h1v1h-1z M37,64h1v1h-1z M38,64h1v1h-1z M47,64h1v1h-1z M49,64h1v1h-1z M54,64h1v1h-1z M55,64h1v1h-1z M56,64h1v1h-1z M61,64h1v1h-1z M63,64h1v1h-1z M64,64h1v1h-1z M68,64h1v1h-1z M72,64h1v1h-1z M74,64h1v1h-1z M76,64h1v1h-1z M78,64h1v1h-1z M80,64h1v1h-1z M81,64h1v1h-1z M85,64h1v1h-1z M89,64h1v1h-1z M90,64h1v1h-1z M92,64h1v1h-1z M94,64h1v1h-1z M96,64h1v1h-1z M97,64h1v1h-1z M98,64h1v1h-1z M99,64h1v1h-1z M102,64h1v1h-1z M106,64h1v1h-1z M107,64h1v1h-1z M108,64h1v1h-1z M4,65h1v1h-1z M6,65h1v1h-1z M7,65h1v1h-1z M12,65h1v1h-1z M13,65h1v1h-1z M15,65h1v1h-1z M16,65h1v1h-1z M18,65h1v1h-1z M21,65h1v1h-1z M22,65h1v1h-1z M24,65h1v1h-1z M25,65h1v1h-1z M30,65h1v1h-1z M31,65h1v1h-1z M38,65h1v1h-1z M41,65h1v1h-1z M42,65h1v1h-1z M43,65h1v1h-1z M47,65h1v1h-1z M48,65h1v1h-1z M49,65h1v1h-1z M51,65h1v1h-1z M52,65h1v1h-1z M55,65h1v1h-1z M57,65h1v1h-1z M64,65h1v1h-1z M65,65h1v1h-1z M66,65h1v1h-1z M69,65h1v1h-1z M70,65h1v1h-1z M72,65h1v1h-1z M74,65h1v1h-1z M76,65h1v1h-1z M77,65h1v1h-1z M78,65h1v1h-1z M79,65h1v1h-1z M81,65h1v1h-1z M84,65h1v1h-1z M86,65h1v1h-1z M88,65h1v1h-1z M92,65h1v1h-1z M96,65h1v1h-1z M99,65h1v1h-1z M100,65h1v1h-1z M101,65h1v1h-1z M102,65h1v1h-1z M107,65h1v1h-1z M108,65h1v1h-1z M4,66h1v1h-1z M5,66h1v1h-1z M7,66h1v1h-1z M10,66h1v1h-1z M11,66h1v1h-1z M13,66h1v1h-1z M16,66h1v1h-1z M17,66h1v1h-1z M18,66h1v1h-1z M19,66h1v1h-1z M22,66h1v1h-1z M23,66h1v1h-1z M24,66h1v1h-1z M29,66h1v1h-1z M30,66h1v1h-1z M31,66h1v1h-1z M32,66h1v1h-1z M35,66h1v1h-1z M38,66h1v1h-1z M39,66h1v1h-1z M41,66h1v1h-1z M43,66h1v1h-1z M48,66h1v1h-1z M50,66h1v1h-1z M55,66h1v1h-1z M60,66h1v1h-1z M62,66h1v1h-1z M63,66h1v1h-1z M64,66h1v1h-1z M72,66h1v1h-1z M73,66h1v1h-1z M74,66h1v1h-1z M78,66h1v1h-1z M79,66h1v1h-1z M84,66h1v1h-1z M85,66h1v1h-1z M86,66h1v1h-1z M88,66h1v1h-1z M89,66h1v1h-1z M93,66h1v1h-1z M95,66h1v1h-1z M96,66h1v1h-1z M98,66h1v1h-1z M100,66h1v1h-1z M101,66h1v1h-1z M102,66h1v1h-1z M104,66h1v1h-1z M106,66h1v1h-1z M107,66h1v1h-1z M4,67h1v1h-1z M6,67h1v1h-1z M7,67h1v1h-1z M9,67h1v1h-1z M16,67h1v1h-1z M19,67h1v1h-1z M20,67h1v1h-1z M21,67h1v1h-1z M22,67h1v1h-1z M23,67h1v1h-1z M24,67h1v1h-1z M25,67h1v1h-1z M27,67h1v1h-1z M28,67h1v1h-1z M29,67h1v1h-1z M34,67h1v1h-1z M35,67h1v1h-1z M38,67h1v1h-1z M42,67h1v1h-1z M44,67h1v1h-1z M46,67h1v1h-1z M47,67h1v1h-1z M49,67h1v1h-1z M51,67h1v1h-1z M52,67h1v1h-1z M54,67h1v1h-1z M55,67h1v1h-1z M57,67h1v1h-1z M59,67h1v1h-1z M63,67h1v1h-1z M65,67h1v1h-1z M66,67h1v1h-1z M67,67h1v1h-1z M68,67h1v1h-1z M69,67h1v1h-1z M70,67h1v1h-1z M71,67h1v1h-1z M73,67h1v1h-1z M75,67h1v1h-1z M76,67h1v1h-1z M77,67h1v1h-1z M78,67h1v1h-1z M81,67h1v1h-1z M83,67h1v1h-1z M87,67h1v1h-1z M89,67h1v1h-1z M91,67h1v1h-1z M92,67h1v1h-1z M93,67h1v1h-1z M94,67h1v1h-1z M97,67h1v1h-1z M99,67h1v1h-1z M100,67h1v1h-1z M101,67h1v1h-1z M102,67h1v1h-1z M103,67h1v1h-1z M107,67h1v1h-1z M108,67h1v1h-1z M4,68h1v1h-1z M9,68h1v1h-1z M10,68h1v1h-1z M12,68h1v1h-1z M15,68h1v1h-1z M16,68h1v1h-1z M18,68h1v1h-1z M19,68h1v1h-1z M22,68h1v1h-1z M24,68h1v1h-1z M28,68h1v1h-1z M30,68h1v1h-1z M32,68h1v1h-1z M33,68h1v1h-1z M34,68h1v1h-1z M39,68h1v1h-1z M40,68h1v1h-1z M42,68h1v1h-1z M48,68h1v1h-1z M52,68h1v1h-1z M54,68h1v1h-1z M55,68h1v1h-1z M57,68h1v1h-1z M59,68h1v1h-1z M64,68h1v1h-1z M65,68h1v1h-1z M66,68h1v1h-1z M67,68h1v1h-1z M68,68h1v1h-1z M69,68h1v1h-1z M71,68h1v1h-1z M75,68h1v1h-1z M76,68h1v1h-1z M78,68h1v1h-1z M79,68h1v1h-1z M80,68h1v1h-1z M85,68h1v1h-1z M88,68h1v1h-1z M89,68h1v1h-1z M90,68h1v1h-1z M92,68h1v1h-1z M93,68h1v1h-1z M95,68h1v1h-1z M96,68h1v1h-1z M97,68h1v1h-1z M99,68h1v1h-1z M101,68h1v1h-1z M102,68h1v1h-1z M103,68h1v1h-1z M107,68h1v1h-1z M8,69h1v1h-1z M9,69h1v1h-1z M14,69h1v1h-1z M16,69h1v1h-1z M17,69h1v1h-1z M20,69h1v1h-1z M21,69h1v1h-1z M22,69h1v1h-1z M23,69h1v1h-1z M26,69h1v1h-1z M29,69h1v1h-1z M30,69h1v1h-1z M31,69h1v1h-1z M33,69h1v1h-1z M35,69h1v1h-1z M38,69h1v1h-1z M39,69h1v1h-1z M40,69h1v1h-1z M42,69h1v1h-1z M43,69h1v1h-1z M46,69h1v1h-1z M47,69h1v1h-1z M48,69h1v1h-1z M50,69h1v1h-1z M51,69h1v1h-1z M52,69h1v1h-1z M53,69h1v1h-1z M54,69h1v1h-1z M55,69h1v1h-1z M58,69h1v1h-1z M59,69h1v1h-1z M60,69h1v1h-1z M61,69h1v1h-1z M65,69h1v1h-1z M68,69h1v1h-1z M69,69h1v1h-1z M73,69h1v1h-1z M75,69h1v1h-1z M77,69h1v1h-1z M78,69h1v1h-1z M79,69h1v1h-1z M83,69h1v1h-1z M86,69h1v1h-1z M87,69h1v1h-1z M88,69h1v1h-1z M89,69h1v1h-1z M93,69h1v1h-1z M95,69h1v1h-1z M96,69h1v1h-1z M97,69h1v1h-1z M100,69h1v1h-1z M102,69h1v1h-1z M104,69h1v1h-1z M106,69h1v1h-1z M107,69h1v1h-1z M6,70h1v1h-1z M8,70h1v1h-1z M10,70h1v1h-1z M11,70h1v1h-1z M12,70h1v1h-1z M13,70h1v1h-1z M15,70h1v1h-1z M17,70h1v1h-1z M18,70h1v1h-1z M23,70h1v1h-1z M25,70h1v1h-1z M27,70h1v1h-1z M29,70h1v1h-1z M32,70h1v1h-1z M36,70h1v1h-1z M38,70h1v1h-1z M39,70h1v1h-1z M40,70h1v1h-1z M41,70h1v1h-1z M43,70h1v1h-1z M48,70h1v1h-1z M50,70h1v1h-1z M55,70h1v1h-1z M56,70h1v1h-1z M59,70h1v1h-1z M60,70h1v1h-1z M62,70h1v1h-1z M63,70h1v1h-1z M64,70h1v1h-1z M65,70h1v1h-1z M67,70h1v1h-1z M73,70h1v1h-1z M74,70h1v1h-1z M78,70h1v1h-1z M79,70h1v1h-1z M80,70h1v1h-1z M81,70h1v1h-1z M84,70h1v1h-1z M86,70h1v1h-1z M87,70h1v1h-1z M88,70h1v1h-1z M89,70h1v1h-1z M91,70h1v1h-1z M95,70h1v1h-1z M98,70h1v1h-1z M100,70h1v1h-1z M101,70h1v1h-1z M102,70h1v1h-1z M103,70h1v1h-1z M104,70h1v1h-1z M107,70h1v1h-1z M108,70h1v1h-1z M6,71h1v1h-1z M7,71h1v1h-1z M8,71h1v1h-1z M12,71h1v1h-1z M13,71h1v1h-1z M14,71h1v1h-1z M15,71h1v1h-1z M16,71h1v1h-1z M17,71h1v1h-1z M24,71h1v1h-1z M26,71h1v1h-1z M28,71h1v1h-1z M29,71h1v1h-1z M30,71h1v1h-1z M31,71h1v1h-1z M32,71h1v1h-1z M34,71h1v1h-1z M38,71h1v1h-1z M42,71h1v1h-1z M44,71h1v1h-1z M47,71h1v1h-1z M49,71h1v1h-1z M51,71h1v1h-1z M52,71h1v1h-1z M53,71h1v1h-1z M54,71h1v1h-1z M56,71h1v1h-1z M57,71h1v1h-1z M62,71h1v1h-1z M66,71h1v1h-1z M68,71h1v1h-1z M69,71h1v1h-1z M71,71h1v1h-1z M75,71h1v1h-1z M77,71h1v1h-1z M80,71h1v1h-1z M82,71h1v1h-1z M83,71h1v1h-1z M85,71h1v1h-1z M86,71h1v1h-1z M91,71h1v1h-1z M92,71h1v1h-1z M94,71h1v1h-1z M95,71h1v1h-1z M97,71h1v1h-1z M98,71h1v1h-1z M100,71h1v1h-1z M102,71h1v1h-1z M107,71h1v1h-1z M108,71h1v1h-1z M4,72h1v1h-1z M5,72h1v1h-1z M6,72h1v1h-1z M8,72h1v1h-1z M9,72h1v1h-1z M10,72h1v1h-1z M11,72h1v1h-1z M12,72h1v1h-1z M13,72h1v1h-1z M14,72h1v1h-1z M15,72h1v1h-1z M16,72h1v1h-1z M20,72h1v1h-1z M22,72h1v1h-1z M23,72h1v1h-1z M24,72h1v1h-1z M25,72h1v1h-1z M26,72h1v1h-1z M28,72h1v1h-1z M30,72h1v1h-1z M33,72h1v1h-1z M34,72h1v1h-1z M40,72h1v1h-1z M42,72h1v1h-1z M45,72h1v1h-1z M47,72h1v1h-1z M48,72h1v1h-1z M54,72h1v1h-1z M59,72h1v1h-1z M61,72h1v1h-1z M65,72h1v1h-1z M66,72h1v1h-1z M67,72h1v1h-1z M68,72h1v1h-1z M70,72h1v1h-1z M71,72h1v1h-1z M72,72h1v1h-1z M73,72h1v1h-1z M75,72h1v1h-1z M76,72h1v1h-1z M78,72h1v1h-1z M79,72h1v1h-1z M80,72h1v1h-1z M81,72h1v1h-1z M82,72h1v1h-1z M87,72h1v1h-1z M89,72h1v1h-1z M90,72h1v1h-1z M91,72h1v1h-1z M92,72h1v1h-1z M95,72h1v1h-1z M98,72h1v1h-1z M99,72h1v1h-1z M101,72h1v1h-1z M103,72h1v1h-1z M107,72h1v1h-1z M108,72h1v1h-1z M6,73h1v1h-1z M8,73h1v1h-1z M12,73h1v1h-1z M15,73h1v1h-1z M18,73h1v1h-1z M20,73h1v1h-1z M21,73h1v1h-1z M22,73h1v1h-1z M23,73h1v1h-1z M24,73h1v1h-1z M25,73h1v1h-1z M28,73h1v1h-1z M30,73h1v1h-1z M31,73h1v1h-1z M33,73h1v1h-1z M34,73h1v1h-1z M39,73h1v1h-1z M40,73h1v1h-1z M41,73h1v1h-1z M42,73h1v1h-1z M44,73h1v1h-1z M45,73h1v1h-1z M47,73h1v1h-1z M48,73h1v1h-1z M49,73h1v1h-1z M51,73h1v1h-1z M55,73h1v1h-1z M57,73h1v1h-1z M58,73h1v1h-1z M60,73h1v1h-1z M62,73h1v1h-1z M64,73h1v1h-1z M66,73h1v1h-1z M68,73h1v1h-1z M72,73h1v1h-1z M73,73h1v1h-1z M77,73h1v1h-1z M82,73h1v1h-1z M83,73h1v1h-1z M84,73h1v1h-1z M93,73h1v1h-1z M94,73h1v1h-1z M95,73h1v1h-1z M96,73h1v1h-1z M100,73h1v1h-1z M102,73h1v1h-1z M104,73h1v1h-1z M105,73h1v1h-1z M106,73h1v1h-1z M4,74h1v1h-1z M6,74h1v1h-1z M7,74h1v1h-1z M8,74h1v1h-1z M10,74h1v1h-1z M12,74h1v1h-1z M18,74h1v1h-1z M19,74h1v1h-1z M20,74h1v1h-1z M25,74h1v1h-1z M26,74h1v1h-1z M29,74h1v1h-1z M31,74h1v1h-1z M32,74h1v1h-1z M36,74h1v1h-1z M37,74h1v1h-1z M38,74h1v1h-1z M40,74h1v1h-1z M41,74h1v1h-1z M44,74h1v1h-1z M45,74h1v1h-1z M47,74h1v1h-1z M48,74h1v1h-1z M50,74h1v1h-1z M59,74h1v1h-1z M60,74h1v1h-1z M62,74h1v1h-1z M64,74h1v1h-1z M68,74h1v1h-1z M71,74h1v1h-1z M72,74h1v1h-1z M74,74h1v1h-1z M77,74h1v1h-1z M78,74h1v1h-1z M79,74h1v1h-1z M80,74h1v1h-1z M83,74h1v1h-1z M85,74h1v1h-1z M86,74h1v1h-1z M87,74h1v1h-1z M88,74h1v1h-1z M89,74h1v1h-1z M91,74h1v1h-1z M92,74h1v1h-1z M96,74h1v1h-1z M98,74h1v1h-1z M102,74h1v1h-1z M103,74h1v1h-1z M104,74h1v1h-1z M107,74h1v1h-1z M4,75h1v1h-1z M8,75h1v1h-1z M9,75h1v1h-1z M13,75h1v1h-1z M15,75h1v1h-1z M17,75h1v1h-1z M18,75h1v1h-1z M19,75h1v1h-1z M24,75h1v1h-1z M26,75h1v1h-1z M29,75h1v1h-1z M30,75h1v1h-1z M32,75h1v1h-1z M33,75h1v1h-1z M35,75h1v1h-1z M39,75h1v1h-1z M44,75h1v1h-1z M46,75h1v1h-1z M47,75h1v1h-1z M49,75h1v1h-1z M50,75h1v1h-1z M52,75h1v1h-1z M53,75h1v1h-1z M54,75h1v1h-1z M56,75h1v1h-1z M57,75h1v1h-1z M59,75h1v1h-1z M63,75h1v1h-1z M66,75h1v1h-1z M68,75h1v1h-1z M70,75h1v1h-1z M71,75h1v1h-1z M73,75h1v1h-1z M74,75h1v1h-1z M76,75h1v1h-1z M77,75h1v1h-1z M79,75h1v1h-1z M83,75h1v1h-1z M85,75h1v1h-1z M92,75h1v1h-1z M93,75h1v1h-1z M94,75h1v1h-1z M97,75h1v1h-1z M98,75h1v1h-1z M101,75h1v1h-1z M103,75h1v1h-1z M108,75h1v1h-1z M6,76h1v1h-1z M8,76h1v1h-1z M9,76h1v1h-1z M10,76h1v1h-1z M11,76h1v1h-1z M12,76h1v1h-1z M15,76h1v1h-1z M18,76h1v1h-1z M21,76h1v1h-1z M22,76h1v1h-1z M24,76h1v1h-1z M25,76h1v1h-1z M26,76h1v1h-1z M27,76h1v1h-1z M28,76h1v1h-1z M29,76h1v1h-1z M30,76h1v1h-1z M31,76h1v1h-1z M32,76h1v1h-1z M33,76h1v1h-1z M34,76h1v1h-1z M35,76h1v1h-1z M37,76h1v1h-1z M38,76h1v1h-1z M40,76h1v1h-1z M41,76h1v1h-1z M43,76h1v1h-1z M44,76h1v1h-1z M45,76h1v1h-1z M46,76h1v1h-1z M47,76h1v1h-1z M48,76h1v1h-1z M49,76h1v1h-1z M50,76h1v1h-1z M52,76h1v1h-1z M53,76h1v1h-1z M54,76h1v1h-1z M55,76h1v1h-1z M56,76h1v1h-1z M57,76h1v1h-1z M62,76h1v1h-1z M64,76h1v1h-1z M66,76h1v1h-1z M67,76h1v1h-1z M68,76h1v1h-1z M69,76h1v1h-1z M75,76h1v1h-1z M76,76h1v1h-1z M77,76h1v1h-1z M78,76h1v1h-1z M79,76h1v1h-1z M80,76h1v1h-1z M86,76h1v1h-1z M87,76h1v1h-1z M88,76h1v1h-1z M89,76h1v1h-1z M91,76h1v1h-1z M93,76h1v1h-1z M94,76h1v1h-1z M95,76h1v1h-1z M96,76h1v1h-1z M98,76h1v1h-1z M100,76h1v1h-1z M101,76h1v1h-1z M102,76h1v1h-1z M103,76h1v1h-1z M104,76h1v1h-1z M105,76h1v1h-1z M108,76h1v1h-1z M4,77h1v1h-1z M5,77h1v1h-1z M6,77h1v1h-1z M8,77h1v1h-1z M12,77h1v1h-1z M15,77h1v1h-1z M18,77h1v1h-1z M21,77h1v1h-1z M22,77h1v1h-1z M23,77h1v1h-1z M24,77h1v1h-1z M27,77h1v1h-1z M28,77h1v1h-1z M32,77h1v1h-1z M34,77h1v1h-1z M36,77h1v1h-1z M37,77h1v1h-1z M38,77h1v1h-1z M41,77h1v1h-1z M42,77h1v1h-1z M45,77h1v1h-1z M46,77h1v1h-1z M47,77h1v1h-1z M48,77h1v1h-1z M50,77h1v1h-1z M52,77h1v1h-1z M56,77h1v1h-1z M59,77h1v1h-1z M60,77h1v1h-1z M61,77h1v1h-1z M64,77h1v1h-1z M66,77h1v1h-1z M68,77h1v1h-1z M69,77h1v1h-1z M74,77h1v1h-1z M76,77h1v1h-1z M80,77h1v1h-1z M81,77h1v1h-1z M82,77h1v1h-1z M83,77h1v1h-1z M84,77h1v1h-1z M91,77h1v1h-1z M94,77h1v1h-1z M95,77h1v1h-1z M99,77h1v1h-1z M100,77h1v1h-1z M104,77h1v1h-1z M105,77h1v1h-1z M106,77h1v1h-1z M107,77h1v1h-1z M108,77h1v1h-1z M4,78h1v1h-1z M5,78h1v1h-1z M7,78h1v1h-1z M8,78h1v1h-1z M10,78h1v1h-1z M12,78h1v1h-1z M13,78h1v1h-1z M14,78h1v1h-1z M17,78h1v1h-1z M18,78h1v1h-1z M20,78h1v1h-1z M23,78h1v1h-1z M24,78h1v1h-1z M28,78h1v1h-1z M30,78h1v1h-1z M32,78h1v1h-1z M35,78h1v1h-1z M36,78h1v1h-1z M38,78h1v1h-1z M40,78h1v1h-1z M41,78h1v1h-1z M43,78h1v1h-1z M48,78h1v1h-1z M50,78h1v1h-1z M51,78h1v1h-1z M52,78h1v1h-1z M54,78h1v1h-1z M56,78h1v1h-1z M57,78h1v1h-1z M59,78h1v1h-1z M60,78h1v1h-1z M62,78h1v1h-1z M64,78h1v1h-1z M72,78h1v1h-1z M74,78h1v1h-1z M76,78h1v1h-1z M78,78h1v1h-1z M80,78h1v1h-1z M83,78h1v1h-1z M84,78h1v1h-1z M86,78h1v1h-1z M88,78h1v1h-1z M89,78h1v1h-1z M91,78h1v1h-1z M95,78h1v1h-1z M96,78h1v1h-1z M98,78h1v1h-1z M100,78h1v1h-1z M102,78h1v1h-1z M104,78h1v1h-1z M106,78h1v1h-1z M107,78h1v1h-1z M6,79h1v1h-1z M8,79h1v1h-1z M12,79h1v1h-1z M14,79h1v1h-1z M16,79h1v1h-1z M17,79h1v1h-1z M18,79h1v1h-1z M22,79h1v1h-1z M23,79h1v1h-1z M27,79h1v1h-1z M28,79h1v1h-1z M32,79h1v1h-1z M35,79h1v1h-1z M37,79h1v1h-1z M41,79h1v1h-1z M42,79h1v1h-1z M44,79h1v1h-1z M46,79h1v1h-1z M47,79h1v1h-1z M51,79h1v1h-1z M52,79h1v1h-1z M56,79h1v1h-1z M57,79h1v1h-1z M58,79h1v1h-1z M59,79h1v1h-1z M61,79h1v1h-1z M62,79h1v1h-1z M65,79h1v1h-1z M66,79h1v1h-1z M67,79h1v1h-1z M68,79h1v1h-1z M69,79h1v1h-1z M71,79h1v1h-1z M75,79h1v1h-1z M76,79h1v1h-1z M80,79h1v1h-1z M81,79h1v1h-1z M82,79h1v1h-1z M85,79h1v1h-1z M89,79h1v1h-1z M90,79h1v1h-1z M92,79h1v1h-1z M93,79h1v1h-1z M95,79h1v1h-1z M98,79h1v1h-1z M99,79h1v1h-1z M100,79h1v1h-1z M104,79h1v1h-1z M107,79h1v1h-1z M5,80h1v1h-1z M6,80h1v1h-1z M8,80h1v1h-1z M9,80h1v1h-1z M10,80h1v1h-1z M11,80h1v1h-1z M12,80h1v1h-1z M13,80h1v1h-1z M14,80h1v1h-1z M16,80h1v1h-1z M17,80h1v1h-1z M20,80h1v1h-1z M21,80h1v1h-1z M23,80h1v1h-1z M26,80h1v1h-1z M27,80h1v1h-1z M28,80h1v1h-1z M29,80h1v1h-1z M30,80h1v1h-1z M31,80h1v1h-1z M32,80h1v1h-1z M34,80h1v1h-1z M41,80h1v1h-1z M48,80h1v1h-1z M50,80h1v1h-1z M51,80h1v1h-1z M52,80h1v1h-1z M53,80h1v1h-1z M54,80h1v1h-1z M55,80h1v1h-1z M56,80h1v1h-1z M61,80h1v1h-1z M65,80h1v1h-1z M66,80h1v1h-1z M68,80h1v1h-1z M73,80h1v1h-1z M74,80h1v1h-1z M75,80h1v1h-1z M76,80h1v1h-1z M77,80h1v1h-1z M78,80h1v1h-1z M79,80h1v1h-1z M80,80h1v1h-1z M81,80h1v1h-1z M82,80h1v1h-1z M85,80h1v1h-1z M88,80h1v1h-1z M90,80h1v1h-1z M91,80h1v1h-1z M92,80h1v1h-1z M93,80h1v1h-1z M94,80h1v1h-1z M96,80h1v1h-1z M97,80h1v1h-1z M100,80h1v1h-1z M101,80h1v1h-1z M102,80h1v1h-1z M103,80h1v1h-1z M104,80h1v1h-1z M105,80h1v1h-1z M106,80h1v1h-1z M107,80h1v1h-1z M6,81h1v1h-1z M8,81h1v1h-1z M11,81h1v1h-1z M20,81h1v1h-1z M21,81h1v1h-1z M24,81h1v1h-1z M26,81h1v1h-1z M28,81h1v1h-1z M30,81h1v1h-1z M32,81h1v1h-1z M34,81h1v1h-1z M38,81h1v1h-1z M39,81h1v1h-1z M41,81h1v1h-1z M43,81h1v1h-1z M49,81h1v1h-1z M52,81h1v1h-1z M54,81h1v1h-1z M55,81h1v1h-1z M56,81h1v1h-1z M59,81h1v1h-1z M60,81h1v1h-1z M62,81h1v1h-1z M63,81h1v1h-1z M64,81h1v1h-1z M66,81h1v1h-1z M68,81h1v1h-1z M69,81h1v1h-1z M70,81h1v1h-1z M71,81h1v1h-1z M72,81h1v1h-1z M73,81h1v1h-1z M74,81h1v1h-1z M78,81h1v1h-1z M79,81h1v1h-1z M80,81h1v1h-1z M81,81h1v1h-1z M84,81h1v1h-1z M88,81h1v1h-1z M89,81h1v1h-1z M90,81h1v1h-1z M94,81h1v1h-1z M97,81h1v1h-1z M98,81h1v1h-1z M100,81h1v1h-1z M103,81h1v1h-1z M105,81h1v1h-1z M106,81h1v1h-1z M5,82h1v1h-1z M10,82h1v1h-1z M11,82h1v1h-1z M12,82h1v1h-1z M13,82h1v1h-1z M17,82h1v1h-1z M21,82h1v1h-1z M22,82h1v1h-1z M24,82h1v1h-1z M25,82h1v1h-1z M27,82h1v1h-1z M28,82h1v1h-1z M29,82h1v1h-1z M32,82h1v1h-1z M35,82h1v1h-1z M36,82h1v1h-1z M38,82h1v1h-1z M40,82h1v1h-1z M41,82h1v1h-1z M43,82h1v1h-1z M49,82h1v1h-1z M50,82h1v1h-1z M51,82h1v1h-1z M56,82h1v1h-1z M62,82h1v1h-1z M63,82h1v1h-1z M64,82h1v1h-1z M65,82h1v1h-1z M67,82h1v1h-1z M72,82h1v1h-1z M74,82h1v1h-1z M75,82h1v1h-1z M77,82h1v1h-1z M80,82h1v1h-1z M83,82h1v1h-1z M86,82h1v1h-1z M88,82h1v1h-1z M91,82h1v1h-1z M92,82h1v1h-1z M96,82h1v1h-1z M98,82h1v1h-1z M100,82h1v1h-1z M101,82h1v1h-1z M104,82h1v1h-1z M105,82h1v1h-1z M107,82h1v1h-1z M4,83h1v1h-1z M5,83h1v1h-1z M8,83h1v1h-1z M9,83h1v1h-1z M12,83h1v1h-1z M15,83h1v1h-1z M16,83h1v1h-1z M17,83h1v1h-1z M18,83h1v1h-1z M20,83h1v1h-1z M21,83h1v1h-1z M23,83h1v1h-1z M25,83h1v1h-1z M27,83h1v1h-1z M28,83h1v1h-1z M29,83h1v1h-1z M31,83h1v1h-1z M32,83h1v1h-1z M33,83h1v1h-1z M34,83h1v1h-1z M35,83h1v1h-1z M37,83h1v1h-1z M39,83h1v1h-1z M42,83h1v1h-1z M43,83h1v1h-1z M44,83h1v1h-1z M47,83h1v1h-1z M49,83h1v1h-1z M51,83h1v1h-1z M52,83h1v1h-1z M55,83h1v1h-1z M58,83h1v1h-1z M59,83h1v1h-1z M61,83h1v1h-1z M62,83h1v1h-1z M68,83h1v1h-1z M69,83h1v1h-1z M70,83h1v1h-1z M71,83h1v1h-1z M78,83h1v1h-1z M79,83h1v1h-1z M80,83h1v1h-1z M81,83h1v1h-1z M82,83h1v1h-1z M83,83h1v1h-1z M86,83h1v1h-1z M87,83h1v1h-1z M89,83h1v1h-1z M90,83h1v1h-1z M92,83h1v1h-1z M95,83h1v1h-1z M100,83h1v1h-1z M101,83h1v1h-1z M103,83h1v1h-1z M104,83h1v1h-1z M105,83h1v1h-1z M107,83h1v1h-1z M108,83h1v1h-1z M5,84h1v1h-1z M7,84h1v1h-1z M9,84h1v1h-1z M10,84h1v1h-1z M12,84h1v1h-1z M13,84h1v1h-1z M15,84h1v1h-1z M16,84h1v1h-1z M18,84h1v1h-1z M22,84h1v1h-1z M23,84h1v1h-1z M24,84h1v1h-1z M25,84h1v1h-1z M26,84h1v1h-1z M27,84h1v1h-1z M30,84h1v1h-1z M36,84h1v1h-1z M38,84h1v1h-1z M39,84h1v1h-1z M41,84h1v1h-1z M42,84h1v1h-1z M43,84h1v1h-1z M46,84h1v1h-1z M47,84h1v1h-1z M51,84h1v1h-1z M52,84h1v1h-1z M54,84h1v1h-1z M56,84h1v1h-1z M58,84h1v1h-1z M65,84h1v1h-1z M66,84h1v1h-1z M68,84h1v1h-1z M69,84h1v1h-1z M70,84h1v1h-1z M72,84h1v1h-1z M73,84h1v1h-1z M75,84h1v1h-1z M77,84h1v1h-1z M78,84h1v1h-1z M80,84h1v1h-1z M83,84h1v1h-1z M88,84h1v1h-1z M89,84h1v1h-1z M90,84h1v1h-1z M91,84h1v1h-1z M92,84h1v1h-1z M94,84h1v1h-1z M96,84h1v1h-1z M97,84h1v1h-1z M100,84h1v1h-1z M104,84h1v1h-1z M105,84h1v1h-1z M108,84h1v1h-1z M7,85h1v1h-1z M8,85h1v1h-1z M11,85h1v1h-1z M15,85h1v1h-1z M16,85h1v1h-1z M17,85h1v1h-1z M18,85h1v1h-1z M19,85h1v1h-1z M22,85h1v1h-1z M24,85h1v1h-1z M26,85h1v1h-1z M29,85h1v1h-1z M30,85h1v1h-1z M31,85h1v1h-1z M32,85h1v1h-1z M34,85h1v1h-1z M35,85h1v1h-1z M36,85h1v1h-1z M37,85h1v1h-1z M38,85h1v1h-1z M40,85h1v1h-1z M42,85h1v1h-1z M46,85h1v1h-1z M47,85h1v1h-1z M52,85h1v1h-1z M53,85h1v1h-1z M54,85h1v1h-1z M56,85h1v1h-1z M57,85h1v1h-1z M59,85h1v1h-1z M60,85h1v1h-1z M63,85h1v1h-1z M64,85h1v1h-1z M65,85h1v1h-1z M66,85h1v1h-1z M67,85h1v1h-1z M69,85h1v1h-1z M71,85h1v1h-1z M73,85h1v1h-1z M78,85h1v1h-1z M80,85h1v1h-1z M82,85h1v1h-1z M85,85h1v1h-1z M87,85h1v1h-1z M88,85h1v1h-1z M89,85h1v1h-1z M93,85h1v1h-1z M94,85h1v1h-1z M95,85h1v1h-1z M98,85h1v1h-1z M99,85h1v1h-1z M100,85h1v1h-1z M101,85h1v1h-1z M103,85h1v1h-1z M106,85h1v1h-1z M4,86h1v1h-1z M5,86h1v1h-1z M6,86h1v1h-1z M8,86h1v1h-1z M9,86h1v1h-1z M10,86h1v1h-1z M12,86h1v1h-1z M17,86h1v1h-1z M18,86h1v1h-1z M19,86h1v1h-1z M20,86h1v1h-1z M21,86h1v1h-1z M23,86h1v1h-1z M24,86h1v1h-1z M27,86h1v1h-1z M30,86h1v1h-1z M32,86h1v1h-1z M33,86h1v1h-1z M35,86h1v1h-1z M36,86h1v1h-1z M37,86h1v1h-1z M38,86h1v1h-1z M40,86h1v1h-1z M43,86h1v1h-1z M47,86h1v1h-1z M48,86h1v1h-1z M50,86h1v1h-1z M51,86h1v1h-1z M53,86h1v1h-1z M54,86h1v1h-1z M56,86h1v1h-1z M62,86h1v1h-1z M65,86h1v1h-1z M72,86h1v1h-1z M73,86h1v1h-1z M74,86h1v1h-1z M78,86h1v1h-1z M80,86h1v1h-1z M84,86h1v1h-1z M86,86h1v1h-1z M87,86h1v1h-1z M89,86h1v1h-1z M91,86h1v1h-1z M95,86h1v1h-1z M96,86h1v1h-1z M98,86h1v1h-1z M99,86h1v1h-1z M100,86h1v1h-1z M101,86h1v1h-1z M103,86h1v1h-1z M105,86h1v1h-1z M106,86h1v1h-1z M107,86h1v1h-1z M6,87h1v1h-1z M7,87h1v1h-1z M9,87h1v1h-1z M14,87h1v1h-1z M20,87h1v1h-1z M21,87h1v1h-1z M23,87h1v1h-1z M24,87h1v1h-1z M28,87h1v1h-1z M29,87h1v1h-1z M31,87h1v1h-1z M34,87h1v1h-1z M35,87h1v1h-1z M41,87h1v1h-1z M42,87h1v1h-1z M43,87h1v1h-1z M44,87h1v1h-1z M46,87h1v1h-1z M49,87h1v1h-1z M50,87h1v1h-1z M52,87h1v1h-1z M53,87h1v1h-1z M56,87h1v1h-1z M59,87h1v1h-1z M61,87h1v1h-1z M67,87h1v1h-1z M68,87h1v1h-1z M69,87h1v1h-1z M71,87h1v1h-1z M73,87h1v1h-1z M75,87h1v1h-1z M77,87h1v1h-1z M79,87h1v1h-1z M81,87h1v1h-1z M82,87h1v1h-1z M83,87h1v1h-1z M85,87h1v1h-1z M86,87h1v1h-1z M89,87h1v1h-1z M90,87h1v1h-1z M92,87h1v1h-1z M94,87h1v1h-1z M95,87h1v1h-1z M100,87h1v1h-1z M101,87h1v1h-1z M102,87h1v1h-1z M104,87h1v1h-1z M108,87h1v1h-1z M7,88h1v1h-1z M8,88h1v1h-1z M9,88h1v1h-1z M10,88h1v1h-1z M11,88h1v1h-1z M14,88h1v1h-1z M16,88h1v1h-1z M19,88h1v1h-1z M23,88h1v1h-1z M27,88h1v1h-1z M28,88h1v1h-1z M30,88h1v1h-1z M31,88h1v1h-1z M32,88h1v1h-1z M33,88h1v1h-1z M36,88h1v1h-1z M39,88h1v1h-1z M42,88h1v1h-1z M47,88h1v1h-1z M48,88h1v1h-1z M51,88h1v1h-1z M54,88h1v1h-1z M57,88h1v1h-1z M58,88h1v1h-1z M60,88h1v1h-1z M62,88h1v1h-1z M64,88h1v1h-1z M65,88h1v1h-1z M66,88h1v1h-1z M67,88h1v1h-1z M70,88h1v1h-1z M71,88h1v1h-1z M72,88h1v1h-1z M73,88h1v1h-1z M74,88h1v1h-1z M75,88h1v1h-1z M77,88h1v1h-1z M78,88h1v1h-1z M80,88h1v1h-1z M81,88h1v1h-1z M82,88h1v1h-1z M85,88h1v1h-1z M86,88h1v1h-1z M88,88h1v1h-1z M90,88h1v1h-1z M91,88h1v1h-1z M92,88h1v1h-1z M93,88h1v1h-1z M94,88h1v1h-1z M98,88h1v1h-1z M100,88h1v1h-1z M102,88h1v1h-1z M103,88h1v1h-1z M104,88h1v1h-1z M106,88h1v1h-1z M107,88h1v1h-1z M4,89h1v1h-1z M5,89h1v1h-1z M7,89h1v1h-1z M9,89h1v1h-1z M14,89h1v1h-1z M15,89h1v1h-1z M16,89h1v1h-1z M18,89h1v1h-1z M20,89h1v1h-1z M21,89h1v1h-1z M22,89h1v1h-1z M30,89h1v1h-1z M31,89h1v1h-1z M32,89h1v1h-1z M33,89h1v1h-1z M36,89h1v1h-1z M37,89h1v1h-1z M38,89h1v1h-1z M40,89h1v1h-1z M42,89h1v1h-1z M43,89h1v1h-1z M47,89h1v1h-1z M49,89h1v1h-1z M50,89h1v1h-1z M52,89h1v1h-1z M54,89h1v1h-1z M55,89h1v1h-1z M56,89h1v1h-1z M59,89h1v1h-1z M60,89h1v1h-1z M61,89h1v1h-1z M62,89h1v1h-1z M63,89h1v1h-1z M66,89h1v1h-1z M67,89h1v1h-1z M68,89h1v1h-1z M70,89h1v1h-1z M72,89h1v1h-1z M74,89h1v1h-1z M76,89h1v1h-1z M78,89h1v1h-1z M82,89h1v1h-1z M83,89h1v1h-1z M84,89h1v1h-1z M86,89h1v1h-1z M89,89h1v1h-1z M94,89h1v1h-1z M95,89h1v1h-1z M96,89h1v1h-1z M97,89h1v1h-1z M99,89h1v1h-1z M100,89h1v1h-1z M102,89h1v1h-1z M4,90h1v1h-1z M5,90h1v1h-1z M10,90h1v1h-1z M11,90h1v1h-1z M12,90h1v1h-1z M14,90h1v1h-1z M24,90h1v1h-1z M26,90h1v1h-1z M28,90h1v1h-1z M32,90h1v1h-1z M35,90h1v1h-1z M36,90h1v1h-1z M38,90h1v1h-1z M39,90h1v1h-1z M40,90h1v1h-1z M41,90h1v1h-1z M44,90h1v1h-1z M48,90h1v1h-1z M50,90h1v1h-1z M51,90h1v1h-1z M54,90h1v1h-1z M55,90h1v1h-1z M56,90h1v1h-1z M60,90h1v1h-1z M62,90h1v1h-1z M64,90h1v1h-1z M65,90h1v1h-1z M71,90h1v1h-1z M72,90h1v1h-1z M74,90h1v1h-1z M77,90h1v1h-1z M78,90h1v1h-1z M80,90h1v1h-1z M83,90h1v1h-1z M84,90h1v1h-1z M86,90h1v1h-1z M87,90h1v1h-1z M88,90h1v1h-1z M89,90h1v1h-1z M95,90h1v1h-1z M96,90h1v1h-1z M98,90h1v1h-1z M99,90h1v1h-1z M101,90h1v1h-1z M105,90h1v1h-1z M106,90h1v1h-1z M4,91h1v1h-1z M5,91h1v1h-1z M7,91h1v1h-1z M9,91h1v1h-1z M12,91h1v1h-1z M15,91h1v1h-1z M16,91h1v1h-1z M17,91h1v1h-1z M18,91h1v1h-1z M21,91h1v1h-1z M23,91h1v1h-1z M24,91h1v1h-1z M28,91h1v1h-1z M29,91h1v1h-1z M31,91h1v1h-1z M32,91h1v1h-1z M33,91h1v1h-1z M38,91h1v1h-1z M42,91h1v1h-1z M44,91h1v1h-1z M47,91h1v1h-1z M51,91h1v1h-1z M53,91h1v1h-1z M55,91h1v1h-1z M56,91h1v1h-1z M58,91h1v1h-1z M59,91h1v1h-1z M62,91h1v1h-1z M65,91h1v1h-1z M67,91h1v1h-1z M68,91h1v1h-1z M69,91h1v1h-1z M70,91h1v1h-1z M71,91h1v1h-1z M73,91h1v1h-1z M75,91h1v1h-1z M77,91h1v1h-1z M79,91h1v1h-1z M80,91h1v1h-1z M81,91h1v1h-1z M82,91h1v1h-1z M83,91h1v1h-1z M89,91h1v1h-1z M91,91h1v1h-1z M92,91h1v1h-1z M93,91h1v1h-1z M94,91h1v1h-1z M95,91h1v1h-1z M97,91h1v1h-1z M98,91h1v1h-1z M99,91h1v1h-1z M100,91h1v1h-1z M107,91h1v1h-1z M108,91h1v1h-1z M4,92h1v1h-1z M5,92h1v1h-1z M6,92h1v1h-1z M10,92h1v1h-1z M11,92h1v1h-1z M12,92h1v1h-1z M13,92h1v1h-1z M15,92h1v1h-1z M16,92h1v1h-1z M17,92h1v1h-1z M18,92h1v1h-1z M21,92h1v1h-1z M22,92h1v1h-1z M26,92h1v1h-1z M27,92h1v1h-1z M28,92h1v1h-1z M32,92h1v1h-1z M34,92h1v1h-1z M35,92h1v1h-1z M42,92h1v1h-1z M46,92h1v1h-1z M47,92h1v1h-1z M48,92h1v1h-1z M51,92h1v1h-1z M60,92h1v1h-1z M63,92h1v1h-1z M64,92h1v1h-1z M66,92h1v1h-1z M67,92h1v1h-1z M70,92h1v1h-1z M72,92h1v1h-1z M74,92h1v1h-1z M75,92h1v1h-1z M80,92h1v1h-1z M81,92h1v1h-1z M83,92h1v1h-1z M84,92h1v1h-1z M86,92h1v1h-1z M87,92h1v1h-1z M89,92h1v1h-1z M92,92h1v1h-1z M94,92h1v1h-1z M95,92h1v1h-1z M96,92h1v1h-1z M97,92h1v1h-1z M98,92h1v1h-1z M100,92h1v1h-1z M104,92h1v1h-1z M106,92h1v1h-1z M107,92h1v1h-1z M5,93h1v1h-1z M6,93h1v1h-1z M7,93h1v1h-1z M8,93h1v1h-1z M9,93h1v1h-1z M11,93h1v1h-1z M12,93h1v1h-1z M17,93h1v1h-1z M18,93h1v1h-1z M19,93h1v1h-1z M24,93h1v1h-1z M26,93h1v1h-1z M30,93h1v1h-1z M31,93h1v1h-1z M32,93h1v1h-1z M34,93h1v1h-1z M35,93h1v1h-1z M36,93h1v1h-1z M37,93h1v1h-1z M40,93h1v1h-1z M41,93h1v1h-1z M47,93h1v1h-1z M54,93h1v1h-1z M57,93h1v1h-1z M60,93h1v1h-1z M61,93h1v1h-1z M62,93h1v1h-1z M63,93h1v1h-1z M64,93h1v1h-1z M67,93h1v1h-1z M68,93h1v1h-1z M70,93h1v1h-1z M73,93h1v1h-1z M78,93h1v1h-1z M79,93h1v1h-1z M81,93h1v1h-1z M83,93h1v1h-1z M86,93h1v1h-1z M88,93h1v1h-1z M90,93h1v1h-1z M91,93h1v1h-1z M94,93h1v1h-1z M95,93h1v1h-1z M97,93h1v1h-1z M98,93h1v1h-1z M99,93h1v1h-1z M100,93h1v1h-1z M101,93h1v1h-1z M102,93h1v1h-1z M103,93h1v1h-1z M105,93h1v1h-1z M108,93h1v1h-1z M4,94h1v1h-1z M7,94h1v1h-1z M8,94h1v1h-1z M10,94h1v1h-1z M11,94h1v1h-1z M13,94h1v1h-1z M14,94h1v1h-1z M15,94h1v1h-1z M21,94h1v1h-1z M22,94h1v1h-1z M23,94h1v1h-1z M25,94h1v1h-1z M26,94h1v1h-1z M28,94h1v1h-1z M29,94h1v1h-1z M32,94h1v1h-1z M33,94h1v1h-1z M36,94h1v1h-1z M38,94h1v1h-1z M39,94h1v1h-1z M40,94h1v1h-1z M43,94h1v1h-1z M48,94h1v1h-1z M49,94h1v1h-1z M50,94h1v1h-1z M51,94h1v1h-1z M52,94h1v1h-1z M53,94h1v1h-1z M54,94h1v1h-1z M56,94h1v1h-1z M59,94h1v1h-1z M62,94h1v1h-1z M63,94h1v1h-1z M64,94h1v1h-1z M65,94h1v1h-1z M67,94h1v1h-1z M71,94h1v1h-1z M72,94h1v1h-1z M74,94h1v1h-1z M76,94h1v1h-1z M80,94h1v1h-1z M83,94h1v1h-1z M84,94h1v1h-1z M86,94h1v1h-1z M89,94h1v1h-1z M92,94h1v1h-1z M95,94h1v1h-1z M98,94h1v1h-1z M103,94h1v1h-1z M104,94h1v1h-1z M106,94h1v1h-1z M107,94h1v1h-1z M4,95h1v1h-1z M6,95h1v1h-1z M8,95h1v1h-1z M15,95h1v1h-1z M16,95h1v1h-1z M18,95h1v1h-1z M19,95h1v1h-1z M22,95h1v1h-1z M23,95h1v1h-1z M25,95h1v1h-1z M26,95h1v1h-1z M27,95h1v1h-1z M28,95h1v1h-1z M29,95h1v1h-1z M30,95h1v1h-1z M32,95h1v1h-1z M34,95h1v1h-1z M35,95h1v1h-1z M38,95h1v1h-1z M41,95h1v1h-1z M42,95h1v1h-1z M44,95h1v1h-1z M47,95h1v1h-1z M51,95h1v1h-1z M52,95h1v1h-1z M55,95h1v1h-1z M59,95h1v1h-1z M61,95h1v1h-1z M63,95h1v1h-1z M68,95h1v1h-1z M69,95h1v1h-1z M71,95h1v1h-1z M73,95h1v1h-1z M75,95h1v1h-1z M76,95h1v1h-1z M77,95h1v1h-1z M80,95h1v1h-1z M85,95h1v1h-1z M86,95h1v1h-1z M89,95h1v1h-1z M90,95h1v1h-1z M92,95h1v1h-1z M93,95h1v1h-1z M94,95h1v1h-1z M95,95h1v1h-1z M100,95h1v1h-1z M101,95h1v1h-1z M102,95h1v1h-1z M103,95h1v1h-1z M4,96h1v1h-1z M5,96h1v1h-1z M6,96h1v1h-1z M7,96h1v1h-1z M10,96h1v1h-1z M11,96h1v1h-1z M12,96h1v1h-1z M13,96h1v1h-1z M14,96h1v1h-1z M15,96h1v1h-1z M18,96h1v1h-1z M19,96h1v1h-1z M22,96h1v1h-1z M23,96h1v1h-1z M26,96h1v1h-1z M27,96h1v1h-1z M31,96h1v1h-1z M32,96h1v1h-1z M35,96h1v1h-1z M38,96h1v1h-1z M39,96h1v1h-1z M40,96h1v1h-1z M41,96h1v1h-1z M42,96h1v1h-1z M43,96h1v1h-1z M46,96h1v1h-1z M48,96h1v1h-1z M50,96h1v1h-1z M53,96h1v1h-1z M54,96h1v1h-1z M55,96h1v1h-1z M58,96h1v1h-1z M66,96h1v1h-1z M68,96h1v1h-1z M70,96h1v1h-1z M73,96h1v1h-1z M74,96h1v1h-1z M75,96h1v1h-1z M82,96h1v1h-1z M86,96h1v1h-1z M87,96h1v1h-1z M88,96h1v1h-1z M90,96h1v1h-1z M93,96h1v1h-1z M94,96h1v1h-1z M96,96h1v1h-1z M97,96h1v1h-1z M101,96h1v1h-1z M102,96h1v1h-1z M108,96h1v1h-1z M4,97h1v1h-1z M5,97h1v1h-1z M6,97h1v1h-1z M8,97h1v1h-1z M9,97h1v1h-1z M11,97h1v1h-1z M12,97h1v1h-1z M13,97h1v1h-1z M15,97h1v1h-1z M18,97h1v1h-1z M22,97h1v1h-1z M23,97h1v1h-1z M25,97h1v1h-1z M28,97h1v1h-1z M30,97h1v1h-1z M34,97h1v1h-1z M36,97h1v1h-1z M38,97h1v1h-1z M41,97h1v1h-1z M47,97h1v1h-1z M48,97h1v1h-1z M54,97h1v1h-1z M58,97h1v1h-1z M59,97h1v1h-1z M62,97h1v1h-1z M63,97h1v1h-1z M64,97h1v1h-1z M65,97h1v1h-1z M66,97h1v1h-1z M67,97h1v1h-1z M68,97h1v1h-1z M69,97h1v1h-1z M70,97h1v1h-1z M73,97h1v1h-1z M74,97h1v1h-1z M76,97h1v1h-1z M78,97h1v1h-1z M81,97h1v1h-1z M83,97h1v1h-1z M88,97h1v1h-1z M91,97h1v1h-1z M93,97h1v1h-1z M94,97h1v1h-1z M95,97h1v1h-1z M97,97h1v1h-1z M100,97h1v1h-1z M101,97h1v1h-1z M103,97h1v1h-1z M105,97h1v1h-1z M106,97h1v1h-1z M4,98h1v1h-1z M5,98h1v1h-1z M6,98h1v1h-1z M10,98h1v1h-1z M11,98h1v1h-1z M12,98h1v1h-1z M17,98h1v1h-1z M19,98h1v1h-1z M20,98h1v1h-1z M21,98h1v1h-1z M24,98h1v1h-1z M27,98h1v1h-1z M28,98h1v1h-1z M32,98h1v1h-1z M33,98h1v1h-1z M36,98h1v1h-1z M38,98h1v1h-1z M39,98h1v1h-1z M40,98h1v1h-1z M41,98h1v1h-1z M47,98h1v1h-1z M50,98h1v1h-1z M51,98h1v1h-1z M53,98h1v1h-1z M54,98h1v1h-1z M56,98h1v1h-1z M60,98h1v1h-1z M61,98h1v1h-1z M62,98h1v1h-1z M63,98h1v1h-1z M64,98h1v1h-1z M71,98h1v1h-1z M72,98h1v1h-1z M73,98h1v1h-1z M74,98h1v1h-1z M76,98h1v1h-1z M80,98h1v1h-1z M83,98h1v1h-1z M86,98h1v1h-1z M87,98h1v1h-1z M89,98h1v1h-1z M91,98h1v1h-1z M92,98h1v1h-1z M93,98h1v1h-1z M98,98h1v1h-1z M100,98h1v1h-1z M101,98h1v1h-1z M103,98h1v1h-1z M104,98h1v1h-1z M105,98h1v1h-1z M6,99h1v1h-1z M8,99h1v1h-1z M9,99h1v1h-1z M11,99h1v1h-1z M12,99h1v1h-1z M13,99h1v1h-1z M15,99h1v1h-1z M20,99h1v1h-1z M21,99h1v1h-1z M23,99h1v1h-1z M25,99h1v1h-1z M27,99h1v1h-1z M29,99h1v1h-1z M32,99h1v1h-1z M34,99h1v1h-1z M37,99h1v1h-1z M38,99h1v1h-1z M43,99h1v1h-1z M44,99h1v1h-1z M45,99h1v1h-1z M47,99h1v1h-1z M51,99h1v1h-1z M53,99h1v1h-1z M57,99h1v1h-1z M65,99h1v1h-1z M66,99h1v1h-1z M67,99h1v1h-1z M68,99h1v1h-1z M69,99h1v1h-1z M75,99h1v1h-1z M76,99h1v1h-1z M78,99h1v1h-1z M79,99h1v1h-1z M80,99h1v1h-1z M82,99h1v1h-1z M83,99h1v1h-1z M85,99h1v1h-1z M86,99h1v1h-1z M89,99h1v1h-1z M90,99h1v1h-1z M92,99h1v1h-1z M94,99h1v1h-1z M95,99h1v1h-1z M100,99h1v1h-1z M102,99h1v1h-1z M104,99h1v1h-1z M105,99h1v1h-1z M7,100h1v1h-1z M8,100h1v1h-1z M10,100h1v1h-1z M11,100h1v1h-1z M14,100h1v1h-1z M16,100h1v1h-1z M17,100h1v1h-1z M19,100h1v1h-1z M20,100h1v1h-1z M23,100h1v1h-1z M24,100h1v1h-1z M25,100h1v1h-1z M27,100h1v1h-1z M28,100h1v1h-1z M29,100h1v1h-1z M30,100h1v1h-1z M31,100h1v1h-1z M32,100h1v1h-1z M33,100h1v1h-1z M34,100h1v1h-1z M35,100h1v1h-1z M36,100h1v1h-1z M38,100h1v1h-1z M39,100h1v1h-1z M41,100h1v1h-1z M44,100h1v1h-1z M46,100h1v1h-1z M49,100h1v1h-1z M51,100h1v1h-1z M52,100h1v1h-1z M53,100h1v1h-1z M54,100h1v1h-1z M55,100h1v1h-1z M56,100h1v1h-1z M59,100h1v1h-1z M63,100h1v1h-1z M64,100h1v1h-1z M65,100h1v1h-1z M66,100h1v1h-1z M67,100h1v1h-1z M68,100h1v1h-1z M70,100h1v1h-1z M72,100h1v1h-1z M73,100h1v1h-1z M74,100h1v1h-1z M76,100h1v1h-1z M77,100h1v1h-1z M78,100h1v1h-1z M79,100h1v1h-1z M80,100h1v1h-1z M81,100h1v1h-1z M83,100h1v1h-1z M87,100h1v1h-1z M88,100h1v1h-1z M90,100h1v1h-1z M93,100h1v1h-1z M100,100h1v1h-1z M101,100h1v1h-1z M102,100h1v1h-1z M103,100h1v1h-1z M104,100h1v1h-1z M105,100h1v1h-1z M107,100h1v1h-1z M12,101h1v1h-1z M17,101h1v1h-1z M19,101h1v1h-1z M22,101h1v1h-1z M23,101h1v1h-1z M26,101h1v1h-1z M27,101h1v1h-1z M28,101h1v1h-1z M32,101h1v1h-1z M33,101h1v1h-1z M34,101h1v1h-1z M35,101h1v1h-1z M37,101h1v1h-1z M39,101h1v1h-1z M40,101h1v1h-1z M41,101h1v1h-1z M45,101h1v1h-1z M47,101h1v1h-1z M51,101h1v1h-1z M52,101h1v1h-1z M56,101h1v1h-1z M60,101h1v1h-1z M61,101h1v1h-1z M62,101h1v1h-1z M65,101h1v1h-1z M67,101h1v1h-1z M69,101h1v1h-1z M70,101h1v1h-1z M72,101h1v1h-1z M73,101h1v1h-1z M74,101h1v1h-1z M75,101h1v1h-1z M76,101h1v1h-1z M80,101h1v1h-1z M83,101h1v1h-1z M84,101h1v1h-1z M85,101h1v1h-1z M86,101h1v1h-1z M90,101h1v1h-1z M91,101h1v1h-1z M93,101h1v1h-1z M96,101h1v1h-1z M98,101h1v1h-1z M100,101h1v1h-1z M104,101h1v1h-1z M105,101h1v1h-1z M107,101h1v1h-1z M108,101h1v1h-1z M4,102h1v1h-1z M5,102h1v1h-1z M6,102h1v1h-1z M7,102h1v1h-1z M8,102h1v1h-1z M9,102h1v1h-1z M10,102h1v1h-1z M15,102h1v1h-1z M16,102h1v1h-1z M20,102h1v1h-1z M21,102h1v1h-1z M25,102h1v1h-1z M26,102h1v1h-1z M27,102h1v1h-1z M28,102h1v1h-1z M30,102h1v1h-1z M32,102h1v1h-1z M36,102h1v1h-1z M38,102h1v1h-1z M39,102h1v1h-1z M40,102h1v1h-1z M41,102h1v1h-1z M43,102h1v1h-1z M48,102h1v1h-1z M50,102h1v1h-1z M51,102h1v1h-1z M52,102h1v1h-1z M54,102h1v1h-1z M56,102h1v1h-1z M59,102h1v1h-1z M60,102h1v1h-1z M62,102h1v1h-1z M63,102h1v1h-1z M65,102h1v1h-1z M67,102h1v1h-1z M72,102h1v1h-1z M73,102h1v1h-1z M74,102h1v1h-1z M75,102h1v1h-1z M76,102h1v1h-1z M78,102h1v1h-1z M80,102h1v1h-1z M84,102h1v1h-1z M86,102h1v1h-1z M89,102h1v1h-1z M95,102h1v1h-1z M96,102h1v1h-1z M98,102h1v1h-1z M99,102h1v1h-1z M100,102h1v1h-1z M102,102h1v1h-1z M104,102h1v1h-1z M105,102h1v1h-1z M106,102h1v1h-1z M107,102h1v1h-1z M4,103h1v1h-1z M10,103h1v1h-1z M12,103h1v1h-1z M14,103h1v1h-1z M15,103h1v1h-1z M16,103h1v1h-1z M17,103h1v1h-1z M19,103h1v1h-1z M20,103h1v1h-1z M21,103h1v1h-1z M24,103h1v1h-1z M26,103h1v1h-1z M27,103h1v1h-1z M28,103h1v1h-1z M32,103h1v1h-1z M33,103h1v1h-1z M34,103h1v1h-1z M37,103h1v1h-1z M42,103h1v1h-1z M44,103h1v1h-1z M45,103h1v1h-1z M46,103h1v1h-1z M47,103h1v1h-1z M49,103h1v1h-1z M50,103h1v1h-1z M51,103h1v1h-1z M52,103h1v1h-1z M56,103h1v1h-1z M62,103h1v1h-1z M65,103h1v1h-1z M66,103h1v1h-1z M68,103h1v1h-1z M69,103h1v1h-1z M70,103h1v1h-1z M71,103h1v1h-1z M76,103h1v1h-1z M80,103h1v1h-1z M81,103h1v1h-1z M82,103h1v1h-1z M83,103h1v1h-1z M89,103h1v1h-1z M91,103h1v1h-1z M92,103h1v1h-1z M97,103h1v1h-1z M100,103h1v1h-1z M104,103h1v1h-1z M108,103h1v1h-1z M4,104h1v1h-1z M6,104h1v1h-1z M7,104h1v1h-1z M8,104h1v1h-1z M10,104h1v1h-1z M12,104h1v1h-1z M13,104h1v1h-1z M15,104h1v1h-1z M16,104h1v1h-1z M17,104h1v1h-1z M19,104h1v1h-1z M22,104h1v1h-1z M24,104h1v1h-1z M25,104h1v1h-1z M26,104h1v1h-1z M27,104h1v1h-1z M28,104h1v1h-1z M29,104h1v1h-1z M30,104h1v1h-1z M31,104h1v1h-1z M32,104h1v1h-1z M34,104h1v1h-1z M38,104h1v1h-1z M40,104h1v1h-1z M42,104h1v1h-1z M52,104h1v1h-1z M53,104h1v1h-1z M54,104h1v1h-1z M55,104h1v1h-1z M56,104h1v1h-1z M57,104h1v1h-1z M59,104h1v1h-1z M60,104h1v1h-1z M63,104h1v1h-1z M64,104h1v1h-1z M69,104h1v1h-1z M70,104h1v1h-1z M72,104h1v1h-1z M73,104h1v1h-1z M75,104h1v1h-1z M76,104h1v1h-1z M77,104h1v1h-1z M78,104h1v1h-1z M79,104h1v1h-1z M80,104h1v1h-1z M82,104h1v1h-1z M88,104h1v1h-1z M89,104h1v1h-1z M90,104h1v1h-1z M91,104h1v1h-1z M92,104h1v1h-1z M94,104h1v1h-1z M98,104h1v1h-1z M100,104h1v1h-1z M101,104h1v1h-1z M102,104h1v1h-1z M103,104h1v1h-1z M104,104h1v1h-1z M105,104h1v1h-1z M106,104h1v1h-1z M107,104h1v1h-1z M108,104h1v1h-1z M4,105h1v1h-1z M6,105h1v1h-1z M7,105h1v1h-1z M8,105h1v1h-1z M10,105h1v1h-1z M13,105h1v1h-1z M16,105h1v1h-1z M18,105h1v1h-1z M19,105h1v1h-1z M20,105h1v1h-1z M22,105h1v1h-1z M24,105h1v1h-1z M26,105h1v1h-1z M28,105h1v1h-1z M30,105h1v1h-1z M32,105h1v1h-1z M34,105h1v1h-1z M35,105h1v1h-1z M40,105h1v1h-1z M41,105h1v1h-1z M43,105h1v1h-1z M45,105h1v1h-1z M46,105h1v1h-1z M47,105h1v1h-1z M48,105h1v1h-1z M49,105h1v1h-1z M50,105h1v1h-1z M51,105h1v1h-1z M52,105h1v1h-1z M53,105h1v1h-1z M55,105h1v1h-1z M56,105h1v1h-1z M57,105h1v1h-1z M60,105h1v1h-1z M61,105h1v1h-1z M62,105h1v1h-1z M65,105h1v1h-1z M67,105h1v1h-1z M71,105h1v1h-1z M72,105h1v1h-1z M74,105h1v1h-1z M75,105h1v1h-1z M77,105h1v1h-1z M78,105h1v1h-1z M79,105h1v1h-1z M82,105h1v1h-1z M83,105h1v1h-1z M84,105h1v1h-1z M86,105h1v1h-1z M88,105h1v1h-1z M90,105h1v1h-1z M91,105h1v1h-1z M94,105h1v1h-1z M96,105h1v1h-1z M98,105h1v1h-1z M101,105h1v1h-1z M106,105h1v1h-1z M107,105h1v1h-1z M108,105h1v1h-1z M4,106h1v1h-1z M6,106h1v1h-1z M7,106h1v1h-1z M8,106h1v1h-1z M10,106h1v1h-1z M14,106h1v1h-1z M15,106h1v1h-1z M16,106h1v1h-1z M17,106h1v1h-1z M18,106h1v1h-1z M21,106h1v1h-1z M24,106h1v1h-1z M26,106h1v1h-1z M29,106h1v1h-1z M31,106h1v1h-1z M32,106h1v1h-1z M36,106h1v1h-1z M38,106h1v1h-1z M40,106h1v1h-1z M41,106h1v1h-1z M47,106h1v1h-1z M48,106h1v1h-1z M50,106h1v1h-1z M52,106h1v1h-1z M53,106h1v1h-1z M55,106h1v1h-1z M60,106h1v1h-1z M61,106h1v1h-1z M62,106h1v1h-1z M64,106h1v1h-1z M65,106h1v1h-1z M67,106h1v1h-1z M71,106h1v1h-1z M72,106h1v1h-1z M74,106h1v1h-1z M75,106h1v1h-1z M76,106h1v1h-1z M77,106h1v1h-1z M84,106h1v1h-1z M86,106h1v1h-1z M87,106h1v1h-1z M88,106h1v1h-1z M89,106h1v1h-1z M91,106h1v1h-1z M95,106h1v1h-1z M96,106h1v1h-1z M98,106h1v1h-1z M99,106h1v1h-1z M102,106h1v1h-1z M104,106h1v1h-1z M105,106h1v1h-1z M106,106h1v1h-1z M4,107h1v1h-1z M10,107h1v1h-1z M12,107h1v1h-1z M16,107h1v1h-1z M18,107h1v1h-1z M20,107h1v1h-1z M21,107h1v1h-1z M22,107h1v1h-1z M23,107h1v1h-1z M25,107h1v1h-1z M29,107h1v1h-1z M30,107h1v1h-1z M32,107h1v1h-1z M33,107h1v1h-1z M34,107h1v1h-1z M37,107h1v1h-1z M43,107h1v1h-1z M44,107h1v1h-1z M45,107h1v1h-1z M46,107h1v1h-1z M47,107h1v1h-1z M51,107h1v1h-1z M53,107h1v1h-1z M54,107h1v1h-1z M56,107h1v1h-1z M57,107h1v1h-1z M59,107h1v1h-1z M63,107h1v1h-1z M65,107h1v1h-1z M66,107h1v1h-1z M67,107h1v1h-1z M68,107h1v1h-1z M69,107h1v1h-1z M73,107h1v1h-1z M74,107h1v1h-1z M77,107h1v1h-1z M78,107h1v1h-1z M80,107h1v1h-1z M81,107h1v1h-1z M83,107h1v1h-1z M86,107h1v1h-1z M87,107h1v1h-1z M90,107h1v1h-1z M92,107h1v1h-1z M93,107h1v1h-1z M97,107h1v1h-1z M99,107h1v1h-1z M100,107h1v1h-1z M101,107h1v1h-1z M104,107h1v1h-1z M4,108h1v1h-1z M5,108h1v1h-1z M6,108h1v1h-1z M7,108h1v1h-1z M8,108h1v1h-1z M9,108h1v1h-1z M10,108h1v1h-1z M12,108h1v1h-1z M13,108h1v1h-1z M14,108h1v1h-1z M18,108h1v1h-1z M19,108h1v1h-1z M21,108h1v1h-1z M23,108h1v1h-1z M25,108h1v1h-1z M27,108h1v1h-1z M29,108h1v1h-1z M30,108h1v1h-1z M32,108h1v1h-1z M33,108h1v1h-1z M34,108h1v1h-1z M36,108h1v1h-1z M37,108h1v1h-1z M40,108h1v1h-1z M45,108h1v1h-1z M46,108h1v1h-1z M47,108h1v1h-1z M50,108h1v1h-1z M52,108h1v1h-1z M53,108h1v1h-1z M59,108h1v1h-1z M60,108h1v1h-1z M62,108h1v1h-1z M63,108h1v1h-1z M67,108h1v1h-1z M73,108h1v1h-1z M74,108h1v1h-1z M75,108h1v1h-1z M76,108h1v1h-1z M80,108h1v1h-1z M82,108h1v1h-1z M86,108h1v1h-1z M88,108h1v1h-1z M89,108h1v1h-1z M92,108h1v1h-1z M93,108h1v1h-1z M96,108h1v1h-1z M98,108h1v1h-1z M100,108h1v1h-1z M101,108h1v1h-1z M104,108h1v1h-1z M108,108h1v1h-1z" fill="#000000"/>
</svg>
