<?xml version="1.0" encoding="UTF-8"?>
<!DOCTYPE svg PUBLIC "-//W3C//DTD SVG 1.1//EN" "http://www.w3.org/Graphics/SVG/1.1/DTD/svg11.dtd">
<svg xmlns="http://www.w3.org/2000/svg" version="1.1" viewBox="0 0 113 113" stroke="none">
	<rect width="100%" height="100%" fill="#FFFFFF"/>
	<path d="M4,4h1v1h-1z M5,4h1v1h-1z M6,4h1v1h-1z M7,4h1v1h-1z M8,4h1v1h-1z M9,4h1v1h-1z M10,4h1v1h-1z M12,4h1v1h-1z M15,4h1v1h-1z M16,4h1v1h-1z M20,4h1v1h-1z M21,4h1v1h-1z M22,4h1v1h-1z M26,4h1v1h-1z M36,4h1v1h-1z M37,4h1v1h-1z M38,4h1v1h-1z M39,4h1v1h-1z M40,4h1v1h-1z M41,4h1v1h-1z M44,4h1v1h-1z M45,4h1v1h-1z M47,4h1v1h-1z M48,4h1v1h-1z M51,4h1v1h-1z M52,4h1v1h-1z M54,4h1v1h-1z M60,4h1v1h-1z M62,4h1v1h-1z M65,4h1v1h-1z M71,4h1v1h-1z M73,4h1v1h-1z M74,4h1v1h-1z M79,4h1v1h-1z M83,4h1v1h-1z M84,4h1v1h-1z M85,4h1v1h-1z M87,4h1v1h-1z M89,4h1v1h-1z M90,4h1v1h-1z M92,4h1v1h-1z M94,4h1v1h-1z M95,4h1v1h-1z M98,4h1v1h-1z M102,4h1v1h-1z M103,4h1v1h-1z M104,4h1v1h-1z M105,4h1v1h-1z M106,4h1v1h-1z M107,4h1v1h-1z M108,4h1v1h-1z M4,5h1v1h-1z M10,5h1v1h-1z M12,5h1v1h-1z M13,5h1v1h-1z M14,5h1v1h-1z M16,5h1v1h-1z M17,5h1v1h-1z M18,5h1v1h-1z M19,5h1v1h-1z M20,5h1v1h-1z M21,5h1v1h-1z M22,5h1v1h-1z M28,5h1v1h-1z M30,5h1v1h-1z M31,5h1v1h-1z M33,5h1v1h-1z M34,5h1v1h-1z M36,5h1v1h-1z M37,5h1v1h-1z M41,5h1v1h-1z M42,5h1v1h-1z M44,5h1v1h-1z M45,5h1v1h-1z M46,5h1v1h-1z M47,5h1v1h-1z M48,5h1v1h-1z M49,5h1v1h-1z M51,5h1v1h-1z M52,5h1v1h-1z M53,5h1v1h-1z M54,5h1v1h-1z M55,5h1v1h-1z M56,5h1v1h-1z M57,5h1v1h-1z M58,5h1v1h-1z M59,5h1v1h-1z M61,5h1v1h-1z M63,5h1v1h-1z M66,5h1v1h-1z M67,5h1v1h-1z M68,5h1v1h-1z M70,5h1v1h-1z M71,5h1v1h-1z M73,5h1v1h-1z M77,5h1v1h-1z M78,5h1v1h-1z M80,5h1v1h-1z M81,5h1v1h-1z M82,5h1v1h-1z M83,5h1v1h-1z M85,5h1v1h-1z M90,5h1v1h-1z M91,5h1v1h-1z M92,5h1v1h-1z M93,5h1v1h-1z M94,5h1v1h-1z M95,5h1v1h-1z M96,5h1v1h-1z M97,5h1v1h-1z M98,5h1v1h-1z M102,5h1v1h-1z M108,5h1v1h-1z M4,6h1v1h-1z M6,6h1v1h-1z M7,6h1v1h-1z M8,6h1v1h-1z M10,6h1v1h-1z M12,6h1v1h-1z M25,6h1v1h-1z M26,6h1v1h-1z M32,6h1v1h-1z M35,6h1v1h-1z M37,6h1v1h-1z M39,6h1v1h-1z M41,6h1v1h-1z M42,6h1v1h-1z M43,6h1v1h-1z M44,6h1v1h-1z M47,6h1v1h-1z M49,6h1v1h-1z M53,6h1v1h-1z M54,6h1v1h-1z M56,6h1v1h-1z M57,6h1v1h-1z M58,6h1v1h-1z M59,6h1v1h-1z M61,6h1v1h-1z M67,6h1v1h-1z M68,6h1v1h-1z M69,6h1v1h-1z M70,6h1v1h-1z M71,6h1v1h-1z M73,6h1v1h-1z M74,6h1v1h-1z M78,6h1v1h-1z M79,6h1v1h-1z M80,6h1v1h-1z M81,6h1v1h-1z M82,6h1v1h-1z M83,6h1v1h-1z M91,6h1v1h-1z M92,6h1v1h-1z M93,6h1v1h-1z M94,6h1v1h-1z M95,6h1v1h-1z M98,6h1v1h-1z M99,6h1v1h-1z M102,6h1v1h-1z M104,6h1v1h-1z M105,6h1v1h-1z M106,6h1v1h-1z M108,6h1v1h-1z M4,7h1v1h-1z M6,7h1v1h-1z M7,7h1v1h-1z M8,7h1v1h-1z M10,7h1v1h-1z M12,7h1v1h-1z M13,7h1v1h-1z M16,7h1v1h-1z M19,7h1v1h-1z M21,7h1v1h-1z M23,7h1v1h-1z M24,7h1v1h-1z M28,7h1v1h-1z M30,7h1v1h-1z M33,7h1v1h-1z M34,7h1v1h-1z M37,7h1v1h-1z M38,7h1v1h-1z M41,7h1v1h-1z M44,7h1v1h-1z M45,7h1v1h-1z M46,7h1v1h-1z M48,7h1v1h-1z M50,7h1v1h-1z M54,7h1v1h-1z M55,7h1v1h-1z M57,7h1v1h-1z M58,7h1v1h-1z M59,7h1v1h-1z M60,7h1v1h-1z M61,7h1v1h-1z M63,7h1v1h-1z M67,7h1v1h-1z M69,7h1v1h-1z M70,7h1v1h-1z M74,7h1v1h-1z M75,7h1v1h-1z M76,7h1v1h-1z M81,7h1v1h-1z M83,7h1v1h-1z M86,7h1v1h-1z M87,7h1v1h-1z M89,7h1v1h-1z M91,7h1v1h-1z M92,7h1v1h-1z M93,7h1v1h-1z M95,7h1v1h-1z M96,7h1v1h-1z M100,7h1v1h-1z M102,7h1v1h-1z M104,7h1v1h-1z M105,7h1v1h-1z M106,7h1v1h-1z M108,7h1v1h-1z M4,8h1v1h-1z M6,8h1v1h-1z M7,8h1v1h-1z M8,8h1v1h-1z M10,8h1v1h-1z M13,8h1v1h-1z M18,8h1v1h-1z M19,8h1v1h-1z M21,8h1v1h-1z M24,8h1v1h-1z M27,8h1v1h-1z M28,8h1v1h-1z M29,8h1v1h-1z M30,8h1v1h-1z M31,8h1v1h-1z M32,8h1v1h-1z M33,8h1v1h-1z M34,8h1v1h-1z M35,8h1v1h-1z M38,8h1v1h-1z M39,8h1v1h-1z M42,8h1v1h-1z M46,8h1v1h-1z M47,8h1v1h-1z M49,8h1v1h-1z M52,8h1v1h-1z M53,8h1v1h-1z M54,8h1v1h-1z M55,8h1v1h-1z M56,8h1v1h-1z M57,8h1v1h-1z M59,8h1v1h-1z M63,8h1v1h-1z M64,8h1v1h-1z M67,8h1v1h-1z M70,8h1v1h-1z M74,8h1v1h-1z M76,8h1v1h-1z M77,8h1v1h-1z M78,8h1v1h-1z M79,8h1v1h-1z M80,8h1v1h-1z M82,8h1v1h-1z M83,8h1v1h-1z M85,8h1v1h-1z M86,8h1v1h-1z M89,8h1v1h-1z M90,8h1v1h-1z M93,8h1v1h-1z M94,8h1v1h-1z M95,8h1v1h-1z M99,8h1v1h-1z M100,8h1v1h-1z M102,8h1v1h-1z M104,8h1v1h-1z M105,8h1v1h-1z M106,8h1v1h-1z M108,8h1v1h-1z M4,9h1v1h-1z M10,9h1v1h-1z M12,9h1v1h-1z M14,9h1v1h-1z M15,9h1v1h-1z M16,9h1v1h-1z M18,9h1v1h-1z M19,9h1v1h-1z M20,9h1v1h-1z M22,9h1v1h-1z M23,9h1v1h-1z M24,9h1v1h-1z M25,9h1v1h-1z M27,9h1v1h-1z M28,9h1v1h-1z M32,9h1v1h-1z M33,9h1v1h-1z M34,9h1v1h-1z M37,9h1v1h-1z M39,9h1v1h-1z M40,9h1v1h-1z M42,9h1v1h-1z M45,9h1v1h-1z M46,9h1v1h-1z M48,9h1v1h-1z M52,9h1v1h-1z M56,9h1v1h-1z M58,9h1v1h-1z M59,9h1v1h-1z M61,9h1v1h-1z M65,9h1v1h-1z M66,9h1v1h-1z M67,9h1v1h-1z M69,9h1v1h-1z M70,9h1v1h-1z M72,9h1v1h-1z M76,9h1v1h-1z M80,9h1v1h-1z M81,9h1v1h-1z M82,9h1v1h-1z M83,9h1v1h-1z M85,9h1v1h-1z M90,9h1v1h-1z M91,9h1v1h-1z M92,9h1v1h-1z M94,9h1v1h-1z M95,9h1v1h-1z M96,9h1v1h-1z M97,9h1v1h-1z M99,9h1v1h-1z M102,9h1v1h-1z M108,9h1v1h-1z M4,10h1v1h-1z M5,10h1v1h-1z M6,10h1v1h-1z M7,10h1v1h-1z M8,10h1v1h-1z M9,10h1v1h-1z M10,10h1v1h-1z M12,10h1v1h-1z M14,10h1v1h-1z M16,10h1v1h-1z M18,10h1v1h-1z M20,10h1v1h-1z M22,10h1v1h-1z M24,10h1v1h-1z M26,10h1v1h-1z M28,10h1v1h-1z M30,10h1v1h-1z M32,10h1v1h-1z M34,10h1v1h-1z M36,10h1v1h-1z M38,10h1v1h-1z M40,10h1v1h-1z M42,10h1v1h-1z M44,10h1v1h-1z M46,10h1v1h-1z M48,10h1v1h-1z M50,10h1v1h-1z M52,10h1v1h-1z M54,10h1v1h-1z M56,10h1v1h-1z M58,10h1v1h-1z M60,10h1v1h-1z M62,10h1v1h-1z M64,10h1v1h-1z M66,10h1v1h-1z M68,10h1v1h-1z M70,10h1v1h-1z M72,10h1v1h-1z M74,10h1v1h-1z M76,10h1v1h-1z M78,10h1v1h-1z M80,10h1v1h-1z M82,10h1v1h-1z M84,10h1v1h-1z M86,10h1v1h-1z M88,10h1v1h-1z M90,10h1v1h-1z M92,10h1v1h-1z M94,10h1v1h-1z M96,10h1v1h-1z M98,10h1v1h-1z M100,10h1v1h-1z M102,10h1v1h-1z M103,10h1v1h-1z M104,10h1v1h-1z M105,10h1v1h-1z M106,10h1v1h-1z M107,10h1v1h-1z M108,10h1v1h-1z M13,11h1v1h-1z M15,11h1v1h-1z M18,11h1v1h-1z M22,11h1v1h-1z M26,11h1v1h-1z M27,11h1v1h-1z M28,11h1v1h-1z M32,11h1v1h-1z M33,11h1v1h-1z M35,11h1v1h-1z M38,11h1v1h-1z M42,11h1v1h-1z M44,11h1v1h-1z M47,11h1v1h-1z M49,11h1v1h-1z M52,11h1v1h-1z M56,11h1v1h-1z M57,11h1v1h-1z M58,11h1v1h-1z M59,11h1v1h-1z M61,11h1v1h-1z M62,11h1v1h-1z M63,11h1v1h-1z M65,11h1v1h-1z M66,11h1v1h-1z M68,11h1v1h-1z M69,11h1v1h-1z M71,11h1v1h-1z M76,11h1v1h-1z M80,11h1v1h-1z M82,11h1v1h-1z M83,11h1v1h-1z M85,11h1v1h-1z M89,11h1v1h-1z M90,11h1v1h-1z M91,11h1v1h-1z M92,11h1v1h-1z M94,11h1v1h-1z M95,11h1v1h-1z M4,12h1v1h-1z M5,12h1v1h-1z M8,12h1v1h-1z M9,12h1v1h-1z M10,12h1v1h-1z M14,12h1v1h-1z M16,12h1v1h-1z M17,12h1v1h-1z M19,12h1v1h-1z M21,12h1v1h-1z M23,12h1v1h-1z M24,12h1v1h-1z M25,12h1v1h-1z M26,12h1v1h-1z M27,12h1v1h-1z M28,12h1v1h-1z M29,12h1v1h-1z M30,12h1v1h-1z M31,12h1v1h-1z M32,12h1v1h-1z M33,12h1v1h-1z M34,12h1v1h-1z M35,12h1v1h-1z M37,12h1v1h-1z M39,12h1v1h-1z M41,12h1v1h-1z M42,12h1v1h-1z M43,12h1v1h-1z M45,12h1v1h-1z M46,12h1v1h-1z M47,12h1v1h-1z M48,12h1v1h-1z M49,12h1v1h-1z M50,12h1v1h-1z M52,12h1v1h-1z M53,12h1v1h-1z M54,12h1v1h-1z M55,12h1v1h-1z M56,12h1v1h-1z M60,12h1v1h-1z M61,12h1v1h-1z M62,12h1v1h-1z M63,12h1v1h-1z M64,12h1v1h-1z M65,12h1v1h-1z M67,12h1v1h-1z M68,12h1v1h-1z M69,12h1v1h-1z M71,12h1v1h-1z M72,12h1v1h-1z M76,12h1v1h-1z M77,12h1v1h-1z M78,12h1v1h-1z M79,12h1v1h-1z M80,12h1v1h-1z M82,12h1v1h-1z M85,12h1v1h-1z M86,12h1v1h-1z M88,12h1v1h-1z M89,12h1v1h-1z M90,12h1v1h-1z M91,12h1v1h-1z M92,12h1v1h-1z M95,12h1v1h-1z M97,12h1v1h-1z M99,12h1v1h-1z M100,12h1v1h-1z M103,12h1v1h-1z M105,12h1v1h-1z M106,12h1v1h-1z M107,12h1v1h-1z M108,12h1v1h-1z M4,13h1v1h-1z M5,13h1v1h-1z M7,13h1v1h-1z M8,13h1v1h-1z M9,13h1v1h-1z M11,13h1v1h-1z M14,13h1v1h-1z M16,13h1v1h-1z M18,13h1v1h-1z M19,13h1v1h-1z M22,13h1v1h-1z M24,13h1v1h-1z M26,13h1v1h-1z M27,13h1v1h-1z M28,13h1v1h-1z M30,13h1v1h-1z M33,13h1v1h-1z M36,13h1v1h-1z M37,13h1v1h-1z M40,13h1v1h-1z M42,13h1v1h-1z M43,13h1v1h-1z M45,13h1v1h-1z M46,13h1v1h-1z M48,13h1v1h-1z M49,13h1v1h-1z M50,13h1v1h-1z M51,13h1v1h-1z M52,13h1v1h-1z M53,13h1v1h-1z M54,13h1v1h-1z M57,13h1v1h-1z M59,13h1v1h-1z M60,13h1v1h-1z M61,13h1v1h-1z M62,13h1v1h-1z M66,13h1v1h-1z M67,13h1v1h-1z M68,13h1v1h-1z M69,13h1v1h-1z M72,13h1v1h-1z M73,13h1v1h-1z M75,13h1v1h-1z M76,13h1v1h-1z M80,13h1v1h-1z M81,13h1v1h-1z M83,13h1v1h-1z M86,13h1v1h-1z M87,13h1v1h-1z M88,13h1v1h-1z M89,13h1v1h-1z M91,13h1v1h-1z M92,13h1v1h-1z M93,13h1v1h-1z M94,13h1v1h-1z M96,13h1v1h-1z M97,13h1v1h-1z M98,13h1v1h-1z M100,13h1v1h-1z M102,13h1v1h-1z M106,13h1v1h-1z M7,14h1v1h-1z M9,14h1v1h-1z M10,14h1v1h-1z M12,14h1v1h-1z M14,14h1v1h-1z M15,14h1v1h-1z M16,14h1v1h-1z M17,14h1v1h-1z M18,14h1v1h-1z M20,14h1v1h-1z M21,14h1v1h-1z M23,14h1v1h-1z M24,14h1v1h-1z M26,14h1v1h-1z M29,14h1v1h-1z M32,14h1v1h-1z M33,14h1v1h-1z M35,14h1v1h-1z M36,14h1v1h-1z M37,14h1v1h-1z M38,14h1v1h-1z M40,14h1v1h-1z M43,14h1v1h-1z M47,14h1v1h-1z M48,14h1v1h-1z M49,14h1v1h-1z M50,14h1v1h-1z M52,14h1v1h-1z M53,14h1v1h-1z M59,14h1v1h-1z M62,14h1v1h-1z M63,14h1v1h-1z M65,14h1v1h-1z M67,14h1v1h-1z M71,14h1v1h-1z M72,14h1v1h-1z M74,14h1v1h-1z M75,14h1v1h-1z M76,14h1v1h-1z M77,14h1v1h-1z M79,14h1v1h-1z M80,14h1v1h-1z M84,14h1v1h-1z M85,14h1v1h-1z M86,14h1v1h-1z M87,14h1v1h-1z M88,14h1v1h-1z M89,14h1v1h-1z M98,14h1v1h-1z M100,14h1v1h-1z M101,14h1v1h-1z M102,14h1v1h-1z M104,14h1v1h-1z M105,14h1v1h-1z M106,14h1v1h-1z M4,15h1v1h-1z M7,15h1v1h-1z M9,15h1v1h-1z M11,15h1v1h-1z M14,15h1v1h-1z M16,15h1v1h-1z M17,15h1v1h-1z M18,15h1v1h-1z M22,15h1v1h-1z M23,15h1v1h-1z M25,15h1v1h-1z M26,15h1v1h-1z M27,15h1v1h-1z M32,15h1v1h-1z M34,15h1v1h-1z M35,15h1v1h-1z M41,15h1v1h-1z M42,15h1v1h-1z M44,15h1v1h-1z M45,15h1v1h-1z M46,15h1v1h-1z M51,15h1v1h-1z M53,15h1v1h-1z M54,15h1v1h-1z M56,15h1v1h-1z M59,15h1v1h-1z M61,15h1v1h-1z M67,15h1v1h-1z M68,15h1v1h-1z M70,15h1v1h-1z M71,15h1v1h-1z M73,15h1v1h-1z M74,15h1v1h-1z M78,15h1v1h-1z M80,15h1v1h-1z M82,15h1v1h-1z M83,15h1v1h-1z M85,15h1v1h-1z M89,15h1v1h-1z M91,15h1v1h-1z M92,15h1v1h-1z M93,15h1v1h-1z M94,15h1v1h-1z M95,15h1v1h-1z M97,15h1v1h-1z M99,15h1v1h-1z M101,15h1v1h-1z M103,15h1v1h-1z M104,15h1v1h-1z M4,16h1v1h-1z M5,16h1v1h-1z M7,16h1v1h-1z M8,16h1v1h-1z M10,16h1v1h-1z M11,16h1v1h-1z M12,16h1v1h-1z M13,16h1v1h-1z M15,16h1v1h-1z M18,16h1v1h-1z M20,16h1v1h-1z M21,16h1v1h-1z M22,16h1v1h-1z M24,16h1v1h-1z M27,16h1v1h-1z M28,16h1v1h-1z M29,16h1v1h-1z M32,16h1v1h-1z M33,16h1v1h-1z M35,16h1v1h-1z M37,16h1v1h-1z M39,16h1v1h-1z M40,16h1v1h-1z M44,16h1v1h-1z M45,16h1v1h-1z M46,16h1v1h-1z M47,16h1v1h-1z M48,16h1v1h-1z M51,16h1v1h-1z M52,16h1v1h-1z M55,16h1v1h-1z M56,16h1v1h-1z M58,16h1v1h-1z M61,16h1v1h-1z M63,16h1v1h-1z M64,16h1v1h-1z M65,16h1v1h-1z M67,16h1v1h-1z M69,16h1v1h-1z M70,16h1v1h-1z M72,16h1v1h-1z M73,16h1v1h-1z M76,16h1v1h-1z M78,16h1v1h-1z M80,16h1v1h-1z M81,16h1v1h-1z M85,16h1v1h-1z M89,16h1v1h-1z M90,16h1v1h-1z M91,16h1v1h-1z M92,16h1v1h-1z M93,16h1v1h-1z M96,16h1v1h-1z M97,16h1v1h-1z M99,16h1v1h-1z M100,16h1v1h-1z M101,16h1v1h-1z M102,16h1v1h-1z M105,16h1v1h-1z M106,16h1v1h-1z M108,16h1v1h-1z M4,17h1v1h-1z M5,17h1v1h-1z M9,17h1v1h-1z M12,17h1v1h-1z M15,17h1v1h-1z M16,17h1v1h-1z M17,17h1v1h-1z M19,17h1v1h-1z M21,17h1v1h-1z M24,17h1v1h-1z M26,17h1v1h-1z M27,17h1v1h-1z M28,17h1v1h-1z M29,17h1v1h-1z M30,17h1v1h-1z M31,17h1v1h-1z M34,17h1v1h-1z M36,17h1v1h-1z M37,17h1v1h-1z M38,17h1v1h-1z M39,17h1v1h-1z M40,17h1v1h-1z M41,17h1v1h-1z M42,17h1v1h-1z M44,17h1v1h-1z M46,17h1v1h-1z M50,17h1v1h-1z M51,17h1v1h-1z M52,17h1v1h-1z M55,17h1v1h-1z M57,17h1v1h-1z M59,17h1v1h-1z M61,17h1v1h-1z M63,17h1v1h-1z M66,17h1v1h-1z M68,17h1v1h-1z M69,17h1v1h-1z M71,17h1v1h-1z M72,17h1v1h-1z M73,17h1v1h-1z M75,17h1v1h-1z M76,17h1v1h-1z M81,17h1v1h-1z M88,17h1v1h-1z M89,17h1v1h-1z M92,17h1v1h-1z M93,17h1v1h-1z M95,17h1v1h-1z M97,17h1v1h-1z M98,17h1v1h-1z M101,17h1v1h-1z M104,17h1v1h-1z M106,17h1v1h-1z M107,17h1v1h-1z M4,18h1v1h-1z M9,18h1v1h-1z M10,18h1v1h-1z M11,18h1v1h-1z M13,18h1v1h-1z M14,18h1v1h-1z M15,18h1v1h-1z M16,18h1v1h-1z M17,18h1v1h-1z M18,18h1v1h-1z M19,18h1v1h-1z M20,18h1v1h-1z M24,18h1v1h-1z M25,18h1v1h-1z M26,18h1v1h-1z M28,18h1v1h-1z M31,18h1v1h-1z M33,18h1v1h-1z M35,18h1v1h-1z M36,18h1v1h-1z M38,18h1v1h-1z M39,18h1v1h-1z M40,18h1v1h-1z M41,18h1v1h-1z M44,18h1v1h-1z M45,18h1v1h-1z M47,18h1v1h-1z M48,18h1v1h-1z M50,18h1v1h-1z M53,18h1v1h-1z M55,18h1v1h-1z M56,18h1v1h-1z M60,18h1v1h-1z M62,18h1v1h-1z M64,18h1v1h-1z M67,18h1v1h-1z M71,18h1v1h-1z M72,18h1v1h-1z M74,18h1v1h-1z M75,18h1v1h-1z M76,18h1v1h-1z M79,18h1v1h-1z M83,18h1v1h-1z M86,18h1v1h-1z M87,18h1v1h-1z M89,18h1v1h-1z M91,18h1v1h-1z M95,18h1v1h-1z M96,18h1v1h-1z M97,18h1v1h-1z M98,18h1v1h-1z M99,18h1v1h-1z M101,18h1v1h-1z M104,18h1v1h-1z M107,18h1v1h-1z M4,19h1v1h-1z M5,19h1v1h-1z M6,19h1v1h-1z M7,19h1v1h-1z M8,19h1v1h-1z M11,19h1v1h-1z M12,19h1v1h-1z M13,19h1v1h-1z M16,19h1v1h-1z M18,19h1v1h-1z M19,19h1v1h-1z M22,19h1v1h-1z M23,19h1v1h-1z M24,19h1v1h-1z M25,19h1v1h-1z M27,19h1v1h-1z M30,19h1v1h-1z M32,19h1v1h-1z M34,19h1v1h-1z M37,19h1v1h-1z M39,19h1v1h-1z M41,19h1v1h-1z M42,19h1v1h-1z M44,19h1v1h-1z M46,19h1v1h-1z M47,19h1v1h-1z M49,19h1v1h-1z M53,19h1v1h-1z M54,19h1v1h-1z M56,19h1v1h-1z M57,19h1v1h-1z M59,19h1v1h-1z M63,19h1v1h-1z M66,19h1v1h-1z M67,19h1v1h-1z M68,19h1v1h-1z M77,19h1v1h-1z M78,19h1v1h-1z M80,19h1v1h-1z M81,19h1v1h-1z M82,19h1v1h-1z M83,19h1v1h-1z M90,19h1v1h-1z M92,19h1v1h-1z M94,19h1v1h-1z M97,19h1v1h-1z M101,19h1v1h-1z M103,19h1v1h-1z M108,19h1v1h-1z M4,20h1v1h-1z M5,20h1v1h-1z M10,20h1v1h-1z M12,20h1v1h-1z M15,20h1v1h-1z M18,20h1v1h-1z M19,20h1v1h-1z M24,20h1v1h-1z M25,20h1v1h-1z M27,20h1v1h-1z M29,20h1v1h-1z M31,20h1v1h-1z M32,20h1v1h-1z M33,20h1v1h-1z M34,20h1v1h-1z M39,20h1v1h-1z M41,20h1v1h-1z M42,20h1v1h-1z M43,20h1v1h-1z M44,20h1v1h-1z M45,20h1v1h-1z M49,20h1v1h-1z M50,20h1v1h-1z M51,20h1v1h-1z M54,20h1v1h-1z M55,20h1v1h-1z M57,20h1v1h-1z M58,20h1v1h-1z M63,20h1v1h-1z M64,20h1v1h-1z M65,20h1v1h-1z M70,20h1v1h-1z M71,20h1v1h-1z M74,20h1v1h-1z M76,20h1v1h-1z M78,20h1v1h-1z M79,20h1v1h-1z M80,20h1v1h-1z M81,20h1v1h-1z M82,20h1v1h-1z M83,20h1v1h-1z M86,20h1v1h-1z M90,20h1v1h-1z M91,20h1v1h-1z M93,20h1v1h-1z M96,20h1v1h-1z M98,20h1v1h-1z M99,20h1v1h-1z M100,20h1v1h-1z M101,20h1v1h-1z M104,20h1v1h-1z M108,20h1v1h-1z M4,21h1v1h-1z M6,21h1v1h-1z M7,21h1v1h-1z M8,21h1v1h-1z M12,21h1v1h-1z M13,21h1v1h-1z M15,21h1v1h-1z M16,21h1v1h-1z M19,21h1v1h-1z M20,21h1v1h-1z M22,21h1v1h-1z M23,21h1v1h-1z M25,21h1v1h-1z M28,21h1v1h-1z M29,21h1v1h-1z M30,21h1v1h-1z M31,21h1v1h-1z M33,21h1v1h-1z M34,21h1v1h-1z M36,21h1v1h-1z M37,21h1v1h-1z M40,21h1v1h-1z M43,21h1v1h-1z M44,21h1v1h-1z M45,21h1v1h-1z M50,21h1v1h-1z M52,21h1v1h-1z M58,21h1v1h-1z M59,21h1v1h-1z M60,21h1v1h-1z M62,21h1v1h-1z M65,21h1v1h-1z M67,21h1v1h-1z M70,21h1v1h-1z M71,21h1v1h-1z M73,21h1v1h-1z M74,21h1v1h-1z M75,21h1v1h-1z M76,21h1v1h-1z M77,21h1v1h-1z M78,21h1v1h-1z M81,21h1v1h-1z M82,21h1v1h-1z M83,21h1v1h-1z M86,21h1v1h-1z M88,21h1v1h-1z M92,21h1v1h-1z M93,21h1v1h-1z M95,21h1v1h-1z M96,21h1v1h-1z M98,21h1v1h-1z M99,21h1v1h-1z M100,21h1v1h-1z M101,21h1v1h-1z M103,21h1v1h-1z M104,21h1v1h-1z M106,21h1v1h-1z M5,22h1v1h-1z M8,22h1v1h-1z M10,22h1v1h-1z M13,22h1v1h-1z M14,22h1v1h-1z M15,22h1v1h-1z M19,22h1v1h-1z M21,22h1v1h-1z M26,22h1v1h-1z M32,22h1v1h-1z M36,22h1v1h-1z M37,22h1v1h-1z M38,22h1v1h-1z M40,22h1v1h-1z M41,22h1v1h-1z M48,22h1v1h-1z M50,22h1v1h-1z M51,22h1v1h-1z M53,22h1v1h-1z M59,22h1v1h-1z M62,22h1v1h-1z M65,22h1v1h-1z M67,22h1v1h-1z M68,22h1v1h-1z M69,22h1v1h-1z M71,22h1v1h-1z M74,22h1v1h-1z M76,22h1v1h-1z M79,22h1v1h-1z M85,22h1v1h-1z M86,22h1v1h-1z M88,22h1v1h-1z M89,22h1v1h-1z M96,22h1v1h-1z M98,22h1v1h-1z M102,22h1v1h-1z M103,22h1v1h-1z M104,22h1v1h-1z M105,22h1v1h-1z M106,22h1v1h-1z M107,22h1v1h-1z M5,23h1v1h-1z M9,23h1v1h-1z M11,23h1v1h-1z M14,23h1v1h-1z M15,23h1v1h-1z M16,23h1v1h-1z M17,23h1v1h-1z M18,23h1v1h-1z M19,23h1v1h-1z M20,23h1v1h-1z M21,23h1v1h-1z M23,23h1v1h-1z M26,23h1v1h-1z M28,23h1v1h-1z M29,23h1v1h-1z M30,23h1v1h-1z M32,23h1v1h-1z M33,23h1v1h-1z M35,23h1v1h-1z M42,23h1v1h-1z M44,23h1v1h-1z M45,23h1v1h-1z M47,23h1v1h-1z M50,23h1v1h-1z M54,23h1v1h-1z M56,23h1v1h-1z M58,23h1v1h-1z M59,23h1v1h-1z M61,23h1v1h-1z M66,23h1v1h-1z M68,23h1v1h-1z M70,23h1v1h-1z M71,23h1v1h-1z M76,23h1v1h-1z M78,23h1v1h-1z M80,23h1v1h-1z M82,23h1v1h-1z M83,23h1v1h-1z M89,23h1v1h-1z M92,23h1v1h-1z M94,23h1v1h-1z M97,23h1v1h-1z M98,23h1v1h-1z M101,23h1v1h-1z M104,23h1v1h-1z M6,24h1v1h-1z M7,24h1v1h-1z M10,24h1v1h-1z M11,24h1v1h-1z M14,24h1v1h-1z M20,24h1v1h-1z M22,24h1v1h-1z M23,24h1v1h-1z M24,24h1v1h-1z M30,24h1v1h-1z M32,24h1v1h-1z M34,24h1v1h-1z M38,24h1v1h-1z M39,24h1v1h-1z M40,24h1v1h-1z M42,24h1v1h-1z M46,24h1v1h-1z M47,24h1v1h-1z M52,24h1v1h-1z M53,24h1v1h-1z M56,24h1v1h-1z M57,24h1v1h-1z M58,24h1v1h-1z M59,24h1v1h-1z M60,24h1v1h-1z M61,24h1v1h-1z M63,24h1v1h-1z M64,24h1v1h-1z M68,24h1v1h-1z M69,24h1v1h-1z M70,24h1v1h-1z M71,24h1v1h-1z M77,24h1v1h-1z M78,24h1v1h-1z M82,24h1v1h-1z M85,24h1v1h-1z M86,24h1v1h-1z M89,24h1v1h-1z M92,24h1v1h-1z M94,24h1v1h-1z M95,24h1v1h-1z M97,24h1v1h-1z M99,24h1v1h-1z M100,24h1v1h-1z M102,24h1v1h-1z M103,24h1v1h-1z M105,24h1v1h-1z M106,24h1v1h-1z M107,24h1v1h-1z M108,24h1v1h-1z M6,25h1v1h-1z M9,25h1v1h-1z M11,25h1v1h-1z M13,25h1v1h-1z M16,25h1v1h-1z M18,25h1v1h-1z M21,25h1v1h-1z M22,25h1v1h-1z M23,25h1v1h-1z M25,25h1v1h-1z M26,25h1v1h-1z M27,25h1v1h-1z M28,25h1v1h-1z M30,25h1v1h-1z M31,25h1v1h-1z M34,25h1v1h-1z M35,25h1v1h-1z M36,25h1v1h-1z M37,25h1v1h-1z M38,25h1v1h-1z M41,25h1v1h-1z M42,25h1v1h-1z M43,25h1v1h-1z M46,25h1v1h-1z M49,25h1v1h-1z M51,25h1v1h-1z M52,25h1v1h-1z M54,25h1v1h-1z M55,25h1v1h-1z M56,25h1v1h-1z M57,25h1v1h-1z M58,25h1v1h-1z M67,25h1v1h-1z M68,25h1v1h-1z M70,25h1v1h-1z M72,25h1v1h-1z M73,25h1v1h-1z M76,25h1v1h-1z M81,25h1v1h-1z M85,25h1v1h-1z M88,25h1v1h-1z M89,25h1v1h-1z M90,25h1v1h-1z M93,25h1v1h-1z M101,25h1v1h-1z M102,25h1v1h-1z M104,25h1v1h-1z M106,25h1v1h-1z M5,26h1v1h-1z M7,26h1v1h-1z M8,26h1v1h-1z M9,26h1v1h-1z M10,26h1v1h-1z M12,26h1v1h-1z M14,26h1v1h-1z M15,26h1v1h-1z M17,26h1v1h-1z M18,26h1v1h-1z M21,26h1v1h-1z M23,26h1v1h-1z M26,26h1v1h-1z M29,26h1v1h-1z M32,26h1v1h-1z M33,26h1v1h-1z M38,26h1v1h-1z M43,26h1v1h-1z M44,26h1v1h-1z M48,26h1v1h-1z M50,26h1v1h-1z M53,26h1v1h-1z M55,26h1v1h-1z M56,26h1v1h-1z M60,26h1v1h-1z M62,26h1v1h-1z M63,26h1v1h-1z M64,26h1v1h-1z M65,26h1v1h-1z M67,26h1v1h-1z M69,26h1v1h-1z M71,26h1v1h-1z M72,26h1v1h-1z M74,26h1v1h-1z M75,26h1v1h-1z M77,26h1v1h-1z M86,26h1v1h-1z M87,26h1v1h-1z M88,26h1v1h-1z M89,26h1v1h-1z M92,26h1v1h-1z M98,26h1v1h-1z M102,26h1v1h-1z M104,26h1v1h-1z M4,27h1v1h-1z M8,27h1v1h-1z M9,27h1v1h-1z M11,27h1v1h-1z M14,27h1v1h-1z M17,27h1v1h-1z M19,27h1v1h-1z M24,27h1v1h-1z M26,27h1v1h-1z M27,27h1v1h-1z M29,27h1v1h-1z M32,27h1v1h-1z M34,27h1v1h-1z M35,27h1v1h-1z M41,27h1v1h-1z M42,27h1v1h-1z M44,27h1v1h-1z M47,27h1v1h-1z M49,27h1v1h-1z M53,27h1v1h-1z M56,27h1v1h-1z M59,27h1v1h-1z M61,27h1v1h-1z M65,27h1v1h-1z M68,27h1v1h-1z M70,27h1v1h-1z M73,27h1v1h-1z M74,27h1v1h-1z M78,27h1v1h-1z M79,27h1v1h-1z M80,27h1v1h-1z M81,27h1v1h-1z M82,27h1v1h-1z M83,27h1v1h-1z M85,27h1v1h-1z M86,27h1v1h-1z M89,27h1v1h-1z M90,27h1v1h-1z M92,27h1v1h-1z M95,27h1v1h-1z M97,27h1v1h-1z M98,27h1v1h-1z M100,27h1v1h-1z M101,27h1v1h-1z M107,27h1v1h-1z M5,28h1v1h-1z M6,28h1v1h-1z M8,28h1v1h-1z M9,28h1v1h-1z M10,28h1v1h-1z M11,28h1v1h-1z M12,28h1v1h-1z M14,28h1v1h-1z M15,28h1v1h-1z M18,28h1v1h-1z M21,28h1v1h-1z M24,28h1v1h-1z M26,28h1v1h-1z M28,28h1v1h-1z M29,28h1v1h-1z M30,28h1v1h-1z M31,28h1v1h-1z M32,28h1v1h-1z M33,28h1v1h-1z M34,28h1v1h-1z M40,28h1v1h-1z M41,28h1v1h-1z M45,28h1v1h-1z M46,28h1v1h-1z M48,28h1v1h-1z M51,28h1v1h-1z M52,28h1v1h-1z M53,28h1v1h-1z M54,28h1v1h-1z M55,28h1v1h-1z M56,28h1v1h-1z M58,28h1v1h-1z M60,28h1v1h-1z M61,28h1v1h-1z M62,28h1v1h-1z M65,28h1v1h-1z M68,28h1v1h-1z M70,28h1v1h-1z M72,28h1v1h-1z M74,28h1v1h-1z M75,28h1v1h-1z M76,28h1v1h-1z M77,28h1v1h-1z M78,28h1v1h-1z M79,28h1v1h-1z M80,28h1v1h-1z M82,28h1v1h-1z M83,28h1v1h-1z M84,28h1v1h-1z M86,28h1v1h-1z M88,28h1v1h-1z M90,28h1v1h-1z M91,28h1v1h-1z M94,28h1v1h-1z M96,28h1v1h-1z M99,28h1v1h-1z M100,28h1v1h-1z M101,28h1v1h-1z M102,28h1v1h-1z M103,28h1v1h-1z M104,28h1v1h-1z M105,28h1v1h-1z M107,28h1v1h-1z M108,28h1v1h-1z M5,29h1v1h-1z M7,29h1v1h-1z M8,29h1v1h-1z M12,29h1v1h-1z M13,29h1v1h-1z M17,29h1v1h-1z M18,29h1v1h-1z M21,29h1v1h-1z M26,29h1v1h-1z M27,29h1v1h-1z M28,29h1v1h-1z M32,29h1v1h-1z M33,29h1v1h-1z M34,29h1v1h-1z M35,29h1v1h-1z M36,29h1v1h-1z M37,29h1v1h-1z M38,29h1v1h-1z M39,29h1v1h-1z M42,29h1v1h-1z M44,29h1v1h-1z M48,29h1v1h-1z M50,29h1v1h-1z M51,29h1v1h-1z M52,29h1v1h-1z M56,29h1v1h-1z M57,29h1v1h-1z M59,29h1v1h-1z M60,29h1v1h-1z M61,29h1v1h-1z M62,29h1v1h-1z M63,29h1v1h-1z M64,29h1v1h-1z M67,29h1v1h-1z M68,29h1v1h-1z M70,29h1v1h-1z M72,29h1v1h-1z M73,29h1v1h-1z M75,29h1v1h-1z M76,29h1v1h-1z M80,29h1v1h-1z M83,29h1v1h-1z M86,29h1v1h-1z M87,29h1v1h-1z M88,29h1v1h-1z M89,29h1v1h-1z M91,29h1v1h-1z M96,29h1v1h-1z M100,29h1v1h-1z M104,29h1v1h-1z M105,29h1v1h-1z M106,29h1v1h-1z M5,30h1v1h-1z M8,30h1v1h-1z M10,30h1v1h-1z M12,30h1v1h-1z M15,30h1v1h-1z M16,30h1v1h-1z M18,30h1v1h-1z M20,30h1v1h-1z M21,30h1v1h-1z M22,30h1v1h-1z M26,30h1v1h-1z M28,30h1v1h-1z M30,30h1v1h-1z M32,30h1v1h-1z M36,30h1v1h-1z M38,30h1v1h-1z M39,30h1v1h-1z M41,30h1v1h-1z M47,30h1v1h-1z M48,30h1v1h-1z M50,30h1v1h-1z M52,30h1v1h-1z M54,30h1v1h-1z M56,30h1v1h-1z M62,30h1v1h-1z M63,30h1v1h-1z M64,30h1v1h-1z M67,30h1v1h-1z M68,30h1v1h-1z M72,30h1v1h-1z M74,30h1v1h-1z M75,30h1v1h-1z M76,30h1v1h-1z M78,30h1v1h-1z M80,30h1v1h-1z M83,30h1v1h-1z M85,30h1v1h-1z M86,30h1v1h-1z M87,30h1v1h-1z M89,30h1v1h-1z M93,30h1v1h-1z M96,30h1v1h-1z M98,30h1v1h-1z M99,30h1v1h-1z M100,30h1v1h-1z M102,30h1v1h-1z M104,30h1v1h-1z M106,30h1v1h-1z M8,31h1v1h-1z M12,31h1v1h-1z M14,31h1v1h-1z M15,31h1v1h-1z M18,31h1v1h-1z M19,31h1v1h-1z M20,31h1v1h-1z M21,31h1v1h-1z M26,31h1v1h-1z M27,31h1v1h-1z M28,31h1v1h-1z M32,31h1v1h-1z M33,31h1v1h-1z M35,31h1v1h-1z M44,31h1v1h-1z M45,31h1v1h-1z M46,31h1v1h-1z M51,31h1v1h-1z M52,31h1v1h-1z M56,31h1v1h-1z M58,31h1v1h-1z M59,31h1v1h-1z M61,31h1v1h-1z M62,31h1v1h-1z M65,31h1v1h-1z M66,31h1v1h-1z M68,31h1v1h-1z M71,31h1v1h-1z M73,31h1v1h-1z M74,31h1v1h-1z M75,31h1v1h-1z M76,31h1v1h-1z M80,31h1v1h-1z M81,31h1v1h-1z M82,31h1v1h-1z M83,31h1v1h-1z M85,31h1v1h-1z M89,31h1v1h-1z M91,31h1v1h-1z M92,31h1v1h-1z M94,31h1v1h-1z M95,31h1v1h-1z M97,31h1v1h-1z M98,31h1v1h-1z M100,31h1v1h-1z M104,31h1v1h-1z M107,31h1v1h-1z M108,31h1v1h-1z M6,32h1v1h-1z M8,32h1v1h-1z M9,32h1v1h-1z M10,32h1v1h-1z M11,32h1v1h-1z M12,32h1v1h-1z M14,32h1v1h-1z M15,32h1v1h-1z M18,32h1v1h-1z M19,32h1v1h-1z M20,32h1v1h-1z M22,32h1v1h-1z M23,32h1v1h-1z M25,32h1v1h-1z M26,32h1v1h-1z M27,32h1v1h-1z M28,32h1v1h-1z M29,32h1v1h-1z M30,32h1v1h-1z M31,32h1v1h-1z M32,32h1v1h-1z M34,32h1v1h-1z M35,32h1v1h-1z M36,32h1v1h-1z M37,32h1v1h-1z M41,32h1v1h-1z M42,32h1v1h-1z M44,32h1v1h-1z M48,32h1v1h-1z M49,32h1v1h-1z M52,32h1v1h-1z M53,32h1v1h-1z M54,32h1v1h-1z M55,32h1v1h-1z M56,32h1v1h-1z M59,32h1v1h-1z M60,32h1v1h-1z M61,32h1v1h-1z M62,32h1v1h-1z M65,32h1v1h-1z M67,32h1v1h-1z M69,32h1v1h-1z M70,32h1v1h-1z M72,32h1v1h-1z M75,32h1v1h-1z M76,32h1v1h-1z M77,32h1v1h-1z M78,32h1v1h-1z M79,32h1v1h-1z M80,32h1v1h-1z M81,32h1v1h-1z M82,32h1v1h-1z M84,32h1v1h-1z M86,32h1v1h-1z M90,32h1v1h-1z M91,32h1v1h-1z M95,32h1v1h-1z M97,32h1v1h-1z M100,32h1v1h-1z M101,32h1v1h-1z M102,32h1v1h-1z M103,32h1v1h-1z M104,32h1v1h-1z M105,32h1v1h-1z M9,33h1v1h-1z M11,33h1v1h-1z M13,33h1v1h-1z M14,33h1v1h-1z M21,33h1v1h-1z M23,33h1v1h-1z M24,33h1v1h-1z M26,33h1v1h-1z M29,33h1v1h-1z M34,33h1v1h-1z M36,33h1v1h-1z M38,33h1v1h-1z M39,33h1v1h-1z M40,33h1v1h-1z M41,33h1v1h-1z M45,33h1v1h-1z M46,33h1v1h-1z M47,33h1v1h-1z M48,33h1v1h-1z M50,33h1v1h-1z M51,33h1v1h-1z M52,33h1v1h-1z M54,33h1v1h-1z M55,33h1v1h-1z M57,33h1v1h-1z M61,33h1v1h-1z M62,33h1v1h-1z M63,33h1v1h-1z M65,33h1v1h-1z M66,33h1v1h-1z M68,33h1v1h-1z M69,33h1v1h-1z M70,33h1v1h-1z M72,33h1v1h-1z M78,33h1v1h-1z M79,33h1v1h-1z M80,33h1v1h-1z M82,33h1v1h-1z M83,33h1v1h-1z M84,33h1v1h-1z M85,33h1v1h-1z M87,33h1v1h-1z M89,33h1v1h-1z M90,33h1v1h-1z M91,33h1v1h-1z M94,33h1v1h-1z M95,33h1v1h-1z M96,33h1v1h-1z M97,33h1v1h-1z M99,33h1v1h-1z M103,33h1v1h-1z M104,33h1v1h-1z M106,33h1v1h-1z M4,34h1v1h-1z M7,34h1v1h-1z M10,34h1v1h-1z M14,34h1v1h-1z M16,34h1v1h-1z M18,34h1v1h-1z M19,34h1v1h-1z M20,34h1v1h-1z M22,34h1v1h-1z M24,34h1v1h-1z M27,34h1v1h-1z M31,34h1v1h-1z M35,34h1v1h-1z M36,34h1v1h-1z M38,34h1v1h-1z M39,34h1v1h-1z M40,34h1v1h-1z M43,34h1v1h-1z M44,34h1v1h-1z M48,34h1v1h-1z M50,34h1v1h-1z M51,34h1v1h-1z M53,34h1v1h-1z M55,34h1v1h-1z M56,34h1v1h-1z M57,34h1v1h-1z M60,34h1v1h-1z M62,34h1v1h-1z M64,34h1v1h-1z M65,34h1v1h-1z M74,34h1v1h-1z M75,34h1v1h-1z M76,34h1v1h-1z M78,34h1v1h-1z M79,34h1v1h-1z M83,34h1v1h-1z M86,34h1v1h-1z M88,34h1v1h-1z M89,34h1v1h-1z M92,34h1v1h-1z M95,34h1v1h-1z M96,34h1v1h-1z M98,34h1v1h-1z M99,34h1v1h-1z M100,34h1v1h-1z M101,34h1v1h-1z M105,34h1v1h-1z M107,34h1v1h-1z M8,35h1v1h-1z M11,35h1v1h-1z M13,35h1v1h-1z M14,35h1v1h-1z M15,35h1v1h-1z M16,35h1v1h-1z M17,35h1v1h-1z M18,35h1v1h-1z M19,35h1v1h-1z M22,35h1v1h-1z M25,35h1v1h-1z M26,35h1v1h-1z M27,35h1v1h-1z M28,35h1v1h-1z M29,35h1v1h-1z M33,35h1v1h-1z M34,35h1v1h-1z M35,35h1v1h-1z M37,35h1v1h-1z M41,35h1v1h-1z M42,35h1v1h-1z M44,35h1v1h-1z M45,35h1v1h-1z M47,35h1v1h-1z M49,35h1v1h-1z M51,35h1v1h-1z M52,35h1v1h-1z M53,35h1v1h-1z M55,35h1v1h-1z M56,35h1v1h-1z M58,35h1v1h-1z M63,35h1v1h-1z M65,35h1v1h-1z M68,35h1v1h-1z M69,35h1v1h-1z M70,35h1v1h-1z M71,35h1v1h-1z M73,35h1v1h-1z M74,35h1v1h-1z M75,35h1v1h-1z M76,35h1v1h-1z M79,35h1v1h-1z M80,35h1v1h-1z M82,35h1v1h-1z M83,35h1v1h-1z M85,35h1v1h-1z M90,35h1v1h-1z M92,35h1v1h-1z M93,35h1v1h-1z M95,35h1v1h-1z M97,35h1v1h-1z M99,35h1v1h-1z M101,35h1v1h-1z M102,35h1v1h-1z M104,35h1v1h-1z M108,35h1v1h-1z M8,36h1v1h-1z M10,36h1v1h-1z M11,36h1v1h-1z M13,36h1v1h-1z M14,36h1v1h-1z M17,36h1v1h-1z M18,36h1v1h-1z M21,36h1v1h-1z M23,36h1v1h-1z M24,36h1v1h-1z M25,36h1v1h-1z M26,36h1v1h-1z M28,36h1v1h-1z M30,36h1v1h-1z M31,36h1v1h-1z M33,36h1v1h-1z M34,36h1v1h-1z M35,36h1v1h-1z M38,36h1v1h-1z M41,36h1v1h-1z M44,36h1v1h-1z M45,36h1v1h-1z M46,36h1v1h-1z M47,36h1v1h-1z M49,36h1v1h-1z M52,36h1v1h-1z M55,36h1v1h-1z M59,36h1v1h-1z M61,36h1v1h-1z M65,36h1v1h-1z M67,36h1v1h-1z M69,36h1v1h-1z M70,36h1v1h-1z M72,36h1v1h-1z M73,36h1v1h-1z M74,36h1v1h-1z M76,36h1v1h-1z M79,36h1v1h-1z M82,36h1v1h-1z M84,36h1v1h-1z M86,36h1v1h-1z M87,36h1v1h-1z M89,36h1v1h-1z M92,36h1v1h-1z M93,36h1v1h-1z M94,36h1v1h-1z M95,36h1v1h-1z M98,36h1v1h-1z M99,36h1v1h-1z M100,36h1v1h-1z M102,36h1v1h-1z M103,36h1v1h-1z M104,36h1v1h-1z M105,36h1v1h-1z M107,36h1v1h-1z M4,37h1v1h-1z M5,37h1v1h-1z M7,37h1v1h-1z M8,37h1v1h-1z M12,37h1v1h-1z M14,37h1v1h-1z M15,37h1v1h-1z M18,37h1v1h-1z M20,37h1v1h-1z M21,37h1v1h-1z M22,37h1v1h-1z M25,37h1v1h-1z M26,37h1v1h-1z M27,37h1v1h-1z M28,37h1v1h-1z M31,37h1v1h-1z M32,37h1v1h-1z M37,37h1v1h-1z M38,37h1v1h-1z M43,37h1v1h-1z M46,37h1v1h-1z M47,37h1v1h-1z M50,37h1v1h-1z M54,37h1v1h-1z M55,37h1v1h-1z M56,37h1v1h-1z M57,37h1v1h-1z M59,37h1v1h-1z M64,37h1v1h-1z M66,37h1v1h-1z M67,37h1v1h-1z M70,37h1v1h-1z M74,37h1v1h-1z M75,37h1v1h-1z M76,37h1v1h-1z M77,37h1v1h-1z M78,37h1v1h-1z M79,37h1v1h-1z M83,37h1v1h-1z M85,37h1v1h-1z M88,37h1v1h-1z M90,37h1v1h-1z M91,37h1v1h-1z M92,37h1v1h-1z M95,37h1v1h-1z M96,37h1v1h-1z M97,37h1v1h-1z M98,37h1v1h-1z M103,37h1v1h-1z M104,37h1v1h-1z M105,37h1v1h-1z M106,37h1v1h-1z M6,38h1v1h-1z M10,38h1v1h-1z M13,38h1v1h-1z M14,38h1v1h-1z M15,38h1v1h-1z M17,38h1v1h-1z M20,38h1v1h-1z M21,38h1v1h-1z M22,38h1v1h-1z M27,38h1v1h-1z M28,38h1v1h-1z M30,38h1v1h-1z M38,38h1v1h-1z M40,38h1v1h-1z M47,38h1v1h-1z M48,38h1v1h-1z M49,38h1v1h-1z M50,38h1v1h-1z M57,38h1v1h-1z M59,38h1v1h-1z M61,38h1v1h-1z M62,38h1v1h-1z M64,38h1v1h-1z M65,38h1v1h-1z M67,38h1v1h-1z M68,38h1v1h-1z M74,38h1v1h-1z M76,38h1v1h-1z M78,38h1v1h-1z M80,38h1v1h-1z M83,38h1v1h-1z M84,38h1v1h-1z M86,38h1v1h-1z M87,38h1v1h-1z M88,38h1v1h-1z M89,38h1v1h-1z M95,38h1v1h-1z M96,38h1v1h-1z M98,38h1v1h-1z M100,38h1v1h-1z M101,38h1v1h-1z M105,38h1v1h-1z M107,38h1v1h-1z M4,39h1v1h-1z M5,39h1v1h-1z M7,39h1v1h-1z M9,39h1v1h-1z M12,39h1v1h-1z M13,39h1v1h-1z M14,39h1v1h-1z M17,39h1v1h-1z M20,39h1v1h-1z M24,39h1v1h-1z M25,39h1v1h-1z M26,39h1v1h-1z M29,39h1v1h-1z M32,39h1v1h-1z M33,39h1v1h-1z M34,39h1v1h-1z M35,39h1v1h-1z M39,39h1v1h-1z M41,39h1v1h-1z M42,39h1v1h-1z M44,39h1v1h-1z M45,39h1v1h-1z M46,39h1v1h-1z M47,39h1v1h-1z M49,39h1v1h-1z M52,39h1v1h-1z M55,39h1v1h-1z M58,39h1v1h-1z M59,39h1v1h-1z M65,39h1v1h-1z M66,39h1v1h-1z M68,39h1v1h-1z M71,39h1v1h-1z M73,39h1v1h-1z M76,39h1v1h-1z M77,39h1v1h-1z M80,39h1v1h-1z M82,39h1v1h-1z M83,39h1v1h-1z M85,39h1v1h-1z M86,39h1v1h-1z M90,39h1v1h-1z M92,39h1v1h-1z M94,39h1v1h-1z M99,39h1v1h-1z M100,39h1v1h-1z M104,39h1v1h-1z M5,40h1v1h-1z M6,40h1v1h-1z M9,40h1v1h-1z M10,40h1v1h-1z M13,40h1v1h-1z M15,40h1v1h-1z M19,40h1v1h-1z M20,40h1v1h-1z M23,40h1v1h-1z M24,40h1v1h-1z M25,40h1v1h-1z M31,40h1v1h-1z M37,40h1v1h-1z M39,40h1v1h-1z M40,40h1v1h-1z M41,40h1v1h-1z M42,40h1v1h-1z M43,40h1v1h-1z M44,40h1v1h-1z M45,40h1v1h-1z M46,40h1v1h-1z M47,40h1v1h-1z M49,40h1v1h-1z M50,40h1v1h-1z M52,40h1v1h-1z M57,40h1v1h-1z M58,40h1v1h-1z M59,40h1v1h-1z M61,40h1v1h-1z M62,40h1v1h-1z M65,40h1v1h-1z M73,40h1v1h-1z M77,40h1v1h-1z M79,40h1v1h-1z M81,40h1v1h-1z M82,40h1v1h-1z M84,40h1v1h-1z M87,40h1v1h-1z M90,40h1v1h-1z M93,40h1v1h-1z M95,40h1v1h-1z M96,40h1v1h-1z M97,40h1v1h-1z M100,40h1v1h-1z M102,40h1v1h-1z M103,40h1v1h-1z M106,40h1v1h-1z M107,40h1v1h-1z M8,41h1v1h-1z M12,41h1v1h-1z M13,41h1v1h-1z M14,41h1v1h-1z M15,41h1v1h-1z M16,41h1v1h-1z M20,41h1v1h-1z M21,41h1v1h-1z M23,41h1v1h-1z M29,41h1v1h-1z M30,41h1v1h-1z M34,41h1v1h-1z M36,41h1v1h-1z M37,41h1v1h-1z M38,41h1v1h-1z M47,41h1v1h-1z M48,41h1v1h-1z M52,41h1v1h-1z M54,41h1v1h-1z M59,41h1v1h-1z M60,41h1v1h-1z M64,41h1v1h-1z M65,41h1v1h-1z M66,41h1v1h-1z M68,41h1v1h-1z M69,41h1v1h-1z M71,41h1v1h-1z M72,41h1v1h-1z M76,41h1v1h-1z M78,41h1v1h-1z M79,41h1v1h-1z M80,41h1v1h-1z M81,41h1v1h-1z M84,41h1v1h-1z M88,41h1v1h-1z M91,41h1v1h-1z M95,41h1v1h-1z M96,41h1v1h-1z M99,41h1v1h-1z M100,41h1v1h-1z M102,41h1v1h-1z M104,41h1v1h-1z M105,41h1v1h-1z M7,42h1v1h-1z M10,42h1v1h-1z M12,42h1v1h-1z M13,42h1v1h-1z M15,42h1v1h-1z M16,42h1v1h-1z M17,42h1v1h-1z M19,42h1v1h-1z M21,42h1v1h-1z M22,42h1v1h-1z M23,42h1v1h-1z M27,42h1v1h-1z M30,42h1v1h-1z M35,42h1v1h-1z M38,42h1v1h-1z M39,42h1v1h-1z M47,42h1v1h-1z M48,42h1v1h-1z M50,42h1v1h-1z M54,42h1v1h-1z M55,42h1v1h-1z M60,42h1v1h-1z M62,42h1v1h-1z M64,42h1v1h-1z M65,42h1v1h-1z M68,42h1v1h-1z M74,42h1v1h-1z M75,42h1v1h-1z M77,42h1v1h-1z M78,42h1v1h-1z M79,42h1v1h-1z M80,42h1v1h-1z M84,42h1v1h-1z M85,42h1v1h-1z M86,42h1v1h-1z M87,42h1v1h-1z M89,42h1v1h-1z M92,42h1v1h-1z M96,42h1v1h-1z M98,42h1v1h-1z M99,42h1v1h-1z M100,42h1v1h-1z M101,42h1v1h-1z M103,42h1v1h-1z M106,42h1v1h-1z M4,43h1v1h-1z M5,43h1v1h-1z M6,43h1v1h-1z M14,43h1v1h-1z M15,43h1v1h-1z M17,43h1v1h-1z M18,43h1v1h-1z M19,43h1v1h-1z M21,43h1v1h-1z M23,43h1v1h-1z M26,43h1v1h-1z M29,43h1v1h-1z M33,43h1v1h-1z M35,43h1v1h-1z M38,43h1v1h-1z M41,43h1v1h-1z M42,43h1v1h-1z M43,43h1v1h-1z M44,43h1v1h-1z M45,43h1v1h-1z M46,43h1v1h-1z M47,43h1v1h-1z M50,43h1v1h-1z M52,43h1v1h-1z M55,43h1v1h-1z M58,43h1v1h-1z M62,43h1v1h-1z M63,43h1v1h-1z M66,43h1v1h-1z M68,43h1v1h-1z M71,43h1v1h-1z M73,43h1v1h-1z M76,43h1v1h-1z M79,43h1v1h-1z M83,43h1v1h-1z M89,43h1v1h-1z M90,43h1v1h-1z M92,43h1v1h-1z M93,43h1v1h-1z M94,43h1v1h-1z M95,43h1v1h-1z M99,43h1v1h-1z M101,43h1v1h-1z M104,43h1v1h-1z M5,44h1v1h-1z M6,44h1v1h-1z M7,44h1v1h-1z M9,44h1v1h-1z M10,44h1v1h-1z M13,44h1v1h-1z M14,44h1v1h-1z M16,44h1v1h-1z M19,44h1v1h-1z M20,44h1v1h-1z M28,44h1v1h-1z M29,44h1v1h-1z M31,44h1v1h-1z M35,44h1v1h-1z M38,44h1v1h-1z M40,44h1v1h-1z M41,44h1v1h-1z M42,44h1v1h-1z M45,44h1v1h-1z M46,44h1v1h-1z M47,44h1v1h-1z M48,44h1v1h-1z M50,44h1v1h-1z M55,44h1v1h-1z M59,44h1v1h-1z M60,44h1v1h-1z M62,44h1v1h-1z M63,44h1v1h-1z M66,44h1v1h-1z M67,44h1v1h-1z M68,44h1v1h-1z M71,44h1v1h-1z M74,44h1v1h-1z M76,44h1v1h-1z M79,44h1v1h-1z M81,44h1v1h-1z M82,44h1v1h-1z M84,44h1v1h-1z M87,44h1v1h-1z M88,44h1v1h-1z M89,44h1v1h-1z M91,44h1v1h-1z M92,44h1v1h-1z M93,44h1v1h-1z M94,44h1v1h-1z M96,44h1v1h-1z M97,44h1v1h-1z M102,44h1v1h-1z M108,44h1v1h-1z M5,45h1v1h-1z M6,45h1v1h-1z M9,45h1v1h-1z M16,45h1v1h-1z M18,45h1v1h-1z M20,45h1v1h-1z M22,45h1v1h-1z M24,45h1v1h-1z M27,45h1v1h-1z M30,45h1v1h-1z M32,45h1v1h-1z M33,45h1v1h-1z M36,45h1v1h-1z M37,45h1v1h-1z M42,45h1v1h-1z M43,45h1v1h-1z M46,45h1v1h-1z M47,45h1v1h-1z M49,45h1v1h-1z M50,45h1v1h-1z M51,45h1v1h-1z M52,45h1v1h-1z M54,45h1v1h-1z M57,45h1v1h-1z M59,45h1v1h-1z M61,45h1v1h-1z M63,45h1v1h-1z M64,45h1v1h-1z M65,45h1v1h-1z M66,45h1v1h-1z M69,45h1v1h-1z M71,45h1v1h-1z M72,45h1v1h-1z M73,45h1v1h-1z M76,45h1v1h-1z M79,45h1v1h-1z M84,45h1v1h-1z M86,45h1v1h-1z M89,45h1v1h-1z M90,45h1v1h-1z M94,45h1v1h-1z M96,45h1v1h-1z M100,45h1v1h-1z M103,45h1v1h-1z M104,45h1v1h-1z M105,45h1v1h-1z M106,45h1v1h-1z M108,45h1v1h-1z M4,46h1v1h-1z M5,46h1v1h-1z M6,46h1v1h-1z M8,46h1v1h-1z M9,46h1v1h-1z M10,46h1v1h-1z M13,46h1v1h-1z M17,46h1v1h-1z M18,46h1v1h-1z M23,46h1v1h-1z M25,46h1v1h-1z M30,46h1v1h-1z M31,46h1v1h-1z M35,46h1v1h-1z M37,46h1v1h-1z M38,46h1v1h-1z M40,46h1v1h-1z M41,46h1v1h-1z M45,46h1v1h-1z M47,46h1v1h-1z M48,46h1v1h-1z M50,46h1v1h-1z M51,46h1v1h-1z M53,46h1v1h-1z M55,46h1v1h-1z M59,46h1v1h-1z M60,46h1v1h-1z M62,46h1v1h-1z M63,46h1v1h-1z M65,46h1v1h-1z M67,46h1v1h-1z M74,46h1v1h-1z M76,46h1v1h-1z M77,46h1v1h-1z M78,46h1v1h-1z M79,46h1v1h-1z M80,46h1v1h-1z M86,46h1v1h-1z M87,46h1v1h-1z M88,46h1v1h-1z M89,46h1v1h-1z M91,46h1v1h-1z M92,46h1v1h-1z M96,46h1v1h-1z M98,46h1v1h-1z M100,46h1v1h-1z M101,46h1v1h-1z M102,46h1v1h-1z M103,46h1v1h-1z M106,46h1v1h-1z M107,46h1v1h-1z M12,47h1v1h-1z M13,47h1v1h-1z M15,47h1v1h-1z M16,47h1v1h-1z M20,47h1v1h-1z M23,47h1v1h-1z M26,47h1v1h-1z M28,47h1v1h-1z M29,47h1v1h-1z M33,47h1v1h-1z M34,47h1v1h-1z M35,47h1v1h-1z M41,47h1v1h-1z M44,47h1v1h-1z M46,47h1v1h-1z M49,47h1v1h-1z M50,47h1v1h-1z M52,47h1v1h-1z M53,47h1v1h-1z M56,47h1v1h-1z M59,47h1v1h-1z M66,47h1v1h-1z M67,47h1v1h-1z M68,47h1v1h-1z M70,47h1v1h-1z M71,47h1v1h-1z M76,47h1v1h-1z M77,47h1v1h-1z M79,47h1v1h-1z M80,47h1v1h-1z M82,47h1v1h-1z M83,47h1v1h-1z M85,47h1v1h-1z M89,47h1v1h-1z M90,47h1v1h-1z M92,47h1v1h-1z M94,47h1v1h-1z M95,47h1v1h-1z M98,47h1v1h-1z M99,47h1v1h-1z M100,47h1v1h-1z M101,47h1v1h-1z M102,47h1v1h-1z M104,47h1v1h-1z M107,47h1v1h-1z M4,48h1v1h-1z M6,48h1v1h-1z M7,48h1v1h-1z M8,48h1v1h-1z M10,48h1v1h-1z M11,48h1v1h-1z M12,48h1v1h-1z M13,48h1v1h-1z M14,48h1v1h-1z M16,48h1v1h-1z M19,48h1v1h-1z M20,48h1v1h-1z M22,48h1v1h-1z M26,48h1v1h-1z M34,48h1v1h-1z M36,48h1v1h-1z M37,48h1v1h-1z M42,48h1v1h-1z M44,48h1v1h-1z M45,48h1v1h-1z M46,48h1v1h-1z M47,48h1v1h-1z M48,48h1v1h-1z M54,48h1v1h-1z M55,48h1v1h-1z M57,48h1v1h-1z M58,48h1v1h-1z M60,48h1v1h-1z M62,48h1v1h-1z M65,48h1v1h-1z M68,48h1v1h-1z M73,48h1v1h-1z M77,48h1v1h-1z M78,48h1v1h-1z M79,48h1v1h-1z M81,48h1v1h-1z M82,48h1v1h-1z M83,48h1v1h-1z M86,48h1v1h-1z M87,48h1v1h-1z M88,48h1v1h-1z M89,48h1v1h-1z M91,48h1v1h-1z M92,48h1v1h-1z M93,48h1v1h-1z M94,48h1v1h-1z M96,48h1v1h-1z M97,48h1v1h-1z M99,48h1v1h-1z M100,48h1v1h-1z M102,48h1v1h-1z M104,48h1v1h-1z M105,48h1v1h-1z M106,48h1v1h-1z M108,48h1v1h-1z M4,49h1v1h-1z M8,49h1v1h-1z M9,49h1v1h-1z M11,49h1v1h-1z M12,49h1v1h-1z M13,49h1v1h-1z M15,49h1v1h-1z M16,49h1v1h-1z M17,49h1v1h-1z M18,49h1v1h-1z M20,49h1v1h-1z M21,49h1v1h-1z M23,49h1v1h-1z M27,49h1v1h-1z M28,49h1v1h-1z M29,49h1v1h-1z M30,49h1v1h-1z M31,49h1v1h-1z M33,49h1v1h-1z M36,49h1v1h-1z M40,49h1v1h-1z M41,49h1v1h-1z M42,49h1v1h-1z M44,49h1v1h-1z M46,49h1v1h-1z M48,49h1v1h-1z M49,49h1v1h-1z M50,49h1v1h-1z M51,49h1v1h-1z M53,49h1v1h-1z M57,49h1v1h-1z M58,49h1v1h-1z M60,49h1v1h-1z M61,49h1v1h-1z M62,49h1v1h-1z M65,49h1v1h-1z M66,49h1v1h-1z M67,49h1v1h-1z M70,49h1v1h-1z M71,49h1v1h-1z M74,49h1v1h-1z M75,49h1v1h-1z M76,49h1v1h-1z M77,49h1v1h-1z M79,49h1v1h-1z M80,49h1v1h-1z M83,49h1v1h-1z M85,49h1v1h-1z M86,49h1v1h-1z M88,49h1v1h-1z M89,49h1v1h-1z M90,49h1v1h-1z M94,49h1v1h-1z M95,49h1v1h-1z M96,49h1v1h-1z M97,49h1v1h-1z M100,49h1v1h-1z M101,49h1v1h-1z M103,49h1v1h-1z M104,49h1v1h-1z M106,49h1v1h-1z M5,50h1v1h-1z M7,50h1v1h-1z M9,50h1v1h-1z M10,50h1v1h-1z M11,50h1v1h-1z M13,50h1v1h-1z M14,50h1v1h-1z M16,50h1v1h-1z M23,50h1v1h-1z M26,50h1v1h-1z M28,50h1v1h-1z M30,50h1v1h-1z M31,50h1v1h-1z M35,50h1v1h-1z M36,50h1v1h-1z M38,50h1v1h-1z M39,50h1v1h-1z M40,50h1v1h-1z M41,50h1v1h-1z M43,50h1v1h-1z M44,50h1v1h-1z M45,50h1v1h-1z M48,50h1v1h-1z M50,50h1v1h-1z M51,50h1v1h-1z M52,50h1v1h-1z M62,50h1v1h-1z M63,50h1v1h-1z M65,50h1v1h-1z M67,50h1v1h-1z M68,50h1v1h-1z M72,50h1v1h-1z M74,50h1v1h-1z M75,50h1v1h-1z M76,50h1v1h-1z M77,50h1v1h-1z M78,50h1v1h-1z M80,50h1v1h-1z M81,50h1v1h-1z M84,50h1v1h-1z M86,50h1v1h-1z M89,50h1v1h-1z M91,50h1v1h-1z M93,50h1v1h-1z M95,50h1v1h-1z M96,50h1v1h-1z M98,50h1v1h-1z M99,50h1v1h-1z M100,50h1v1h-1z M101,50h1v1h-1z M103,50h1v1h-1z M105,50h1v1h-1z M4,51h1v1h-1z M5,51h1v1h-1z M6,51h1v1h-1z M9,51h1v1h-1z M11,51h1v1h-1z M13,51h1v1h-1z M15,51h1v1h-1z M17,51h1v1h-1z M19,51h1v1h-1z M20,51h1v1h-1z M22,51h1v1h-1z M25,51h1v1h-1z M26,51h1v1h-1z M29,51h1v1h-1z M31,51h1v1h-1z M37,51h1v1h-1z M38,51h1v1h-1z M41,51h1v1h-1z M44,51h1v1h-1z M45,51h1v1h-1z M46,51h1v1h-1z M47,51h1v1h-1z M49,51h1v1h-1z M50,51h1v1h-1z M52,51h1v1h-1z M57,51h1v1h-1z M59,51h1v1h-1z M61,51h1v1h-1z M62,51h1v1h-1z M68,51h1v1h-1z M70,51h1v1h-1z M71,51h1v1h-1z M73,51h1v1h-1z M74,51h1v1h-1z M76,51h1v1h-1z M77,51h1v1h-1z M79,51h1v1h-1z M81,51h1v1h-1z M82,51h1v1h-1z M85,51h1v1h-1z M89,51h1v1h-1z M91,51h1v1h-1z M92,51h1v1h-1z M94,51h1v1h-1z M95,51h1v1h-1z M98,51h1v1h-1z M99,51h1v1h-1z M101,51h1v1h-1z M102,51h1v1h-1z M104,51h1v1h-1z M107,51h1v1h-1z M4,52h1v1h-1z M5,52h1v1h-1z M6,52h1v1h-1z M7,52h1v1h-1z M8,52h1v1h-1z M9,52h1v1h-1z M10,52h1v1h-1z M11,52h1v1h-1z M12,52h1v1h-1z M13,52h1v1h-1z M14,52h1v1h-1z M17,52h1v1h-1z M19,52h1v1h-1z M20,52h1v1h-1z M21,52h1v1h-1z M22,52h1v1h-1z M25,52h1v1h-1z M28,52h1v1h-1z M29,52h1v1h-1z M30,52h1v1h-1z M31,52h1v1h-1z M32,52h1v1h-1z M33,52h1v1h-1z M34,52h1v1h-1z M35,52h1v1h-1z M37,52h1v1h-1z M39,52h1v1h-1z M40,52h1v1h-1z M42,52h1v1h-1z M43,52h1v1h-1z M44,52h1v1h-1z M47,52h1v1h-1z M48,52h1v1h-1z M49,52h1v1h-1z M50,52h1v1h-1z M52,52h1v1h-1z M53,52h1v1h-1z M54,52h1v1h-1z M55,52h1v1h-1z M56,52h1v1h-1z M58,52h1v1h-1z M59,52h1v1h-1z M60,52h1v1h-1z M61,52h1v1h-1z M64,52h1v1h-1z M65,52h1v1h-1z M67,52h1v1h-1z M68,52h1v1h-1z M72,52h1v1h-1z M74,52h1v1h-1z M76,52h1v1h-1z M77,52h1v1h-1z M78,52h1v1h-1z M79,52h1v1h-1z M80,52h1v1h-1z M86,52h1v1h-1z M89,52h1v1h-1z M90,52h1v1h-1z M94,52h1v1h-1z M95,52h1v1h-1z M98,52h1v1h-1z M100,52h1v1h-1z M101,52h1v1h-1z M102,52h1v1h-1z M103,52h1v1h-1z M104,52h1v1h-1z M106,52h1v1h-1z M108,52h1v1h-1z M4,53h1v1h-1z M6,53h1v1h-1z M8,53h1v1h-1z M12,53h1v1h-1z M13,53h1v1h-1z M14,53h1v1h-1z M15,53h1v1h-1z M17,53h1v1h-1z M18,53h1v1h-1z M23,53h1v1h-1z M24,53h1v1h-1z M28,53h1v1h-1z M32,53h1v1h-1z M34,53h1v1h-1z M35,53h1v1h-1z M36,53h1v1h-1z M37,53h1v1h-1z M38,53h1v1h-1z M39,53h1v1h-1z M41,53h1v1h-1z M43,53h1v1h-1z M46,53h1v1h-1z M47,53h1v1h-1z M50,53h1v1h-1z M52,53h1v1h-1z M56,53h1v1h-1z M62,53h1v1h-1z M64,53h1v1h-1z M68,53h1v1h-1z M69,53h1v1h-1z M70,53h1v1h-1z M71,53h1v1h-1z M72,53h1v1h-1z M73,53h1v1h-1z M76,53h1v1h-1z M80,53h1v1h-1z M82,53h1v1h-1z M83,53h1v1h-1z M84,53h1v1h-1z M86,53h1v1h-1z M89,53h1v1h-1z M91,53h1v1h-1z M92,53h1v1h-1z M97,53h1v1h-1z M98,53h1v1h-1z M100,53h1v1h-1z M104,53h1v1h-1z M106,53h1v1h-1z M108,53h1v1h-1z M4,54h1v1h-1z M6,54h1v1h-1z M8,54h1v1h-1z M10,54h1v1h-1z M12,54h1v1h-1z M14,54h1v1h-1z M18,54h1v1h-1z M19,54h1v1h-1z M20,54h1v1h-1z M23,54h1v1h-1z M24,54h1v1h-1z M26,54h1v1h-1z M28,54h1v1h-1z M30,54h1v1h-1z M32,54h1v1h-1z M35,54h1v1h-1z M36,54h1v1h-1z M37,54h1v1h-1z M38,54h1v1h-1z M40,54h1v1h-1z M41,54h1v1h-1z M43,54h1v1h-1z M48,54h1v1h-1z M50,54h1v1h-1z M52,54h1v1h-1z M54,54h1v1h-1z M56,54h1v1h-1z M62,54h1v1h-1z M64,54h1v1h-1z M65,54h1v1h-1z M67,54h1v1h-1z M68,54h1v1h-1z M71,54h1v1h-1z M74,54h1v1h-1z M75,54h1v1h-1z M76,54h1v1h-1z M78,54h1v1h-1z M80,54h1v1h-1z M84,54h1v1h-1z M86,54h1v1h-1z M87,54h1v1h-1z M88,54h1v1h-1z M91,54h1v1h-1z M98,54h1v1h-1z M99,54h1v1h-1z M100,54h1v1h-1z M102,54h1v1h-1z M104,54h1v1h-1z M106,54h1v1h-1z M107,54h1v1h-1z M8,55h1v1h-1z M12,55h1v1h-1z M13,55h1v1h-1z M14,55h1v1h-1z M15,55h1v1h-1z M17,55h1v1h-1z M18,55h1v1h-1z M20,55h1v1h-1z M21,55h1v1h-1z M28,55h1v1h-1z M32,55h1v1h-1z M34,55h1v1h-1z M35,55h1v1h-1z M37,55h1v1h-1z M39,55h1v1h-1z M43,55h1v1h-1z M44,55h1v1h-1z M51,55h1v1h-1z M52,55h1v1h-1z M56,55h1v1h-1z M59,55h1v1h-1z M61,55h1v1h-1z M63,55h1v1h-1z M66,55h1v1h-1z M68,55h1v1h-1z M71,55h1v1h-1z M74,55h1v1h-1z M75,55h1v1h-1z M76,55h1v1h-1z M80,55h1v1h-1z M82,55h1v1h-1z M83,55h1v1h-1z M85,55h1v1h-1z M86,55h1v1h-1z M89,55h1v1h-1z M90,55h1v1h-1z M92,55h1v1h-1z M93,55h1v1h-1z M94,55h1v1h-1z M95,55h1v1h-1z M97,55h1v1h-1z M100,55h1v1h-1z M104,55h1v1h-1z M107,55h1v1h-1z M6,56h1v1h-1z M7,56h1v1h-1z M8,56h1v1h-1z M9,56h1v1h-1z M10,56h1v1h-1z M11,56h1v1h-1z M12,56h1v1h-1z M17,56h1v1h-1z M18,56h1v1h-1z M24,56h1v1h-1z M25,56h1v1h-1z M26,56h1v1h-1z M28,56h1v1h-1z M29,56h1v1h-1z M30,56h1v1h-1z M31,56h1v1h-1z M32,56h1v1h-1z M35,56h1v1h-1z M36,56h1v1h-1z M37,56h1v1h-1z M42,56h1v1h-1z M43,56h1v1h-1z M44,56h1v1h-1z M46,56h1v1h-1z M47,56h1v1h-1z M52,56h1v1h-1z M53,56h1v1h-1z M54,56h1v1h-1z M55,56h1v1h-1z M56,56h1v1h-1z M57,56h1v1h-1z M58,56h1v1h-1z M60,56h1v1h-1z M62,56h1v1h-1z M67,56h1v1h-1z M70,56h1v1h-1z M71,56h1v1h-1z M72,56h1v1h-1z M75,56h1v1h-1z M76,56h1v1h-1z M77,56h1v1h-1z M78,56h1v1h-1z M79,56h1v1h-1z M80,56h1v1h-1z M81,56h1v1h-1z M82,56h1v1h-1z M83,56h1v1h-1z M86,56h1v1h-1z M87,56h1v1h-1z M89,56h1v1h-1z M91,56h1v1h-1z M94,56h1v1h-1z M98,56h1v1h-1z M99,56h1v1h-1z M100,56h1v1h-1z M101,56h1v1h-1z M102,56h1v1h-1z M103,56h1v1h-1z M104,56h1v1h-1z M105,56h1v1h-1z M106,56h1v1h-1z M107,56h1v1h-1z M108,56h1v1h-1z M5,57h1v1h-1z M6,57h1v1h-1z M11,57h1v1h-1z M12,57h1v1h-1z M16,57h1v1h-1z M18,57h1v1h-1z M21,57h1v1h-1z M22,57h1v1h-1z M25,57h1v1h-1z M26,57h1v1h-1z M27,57h1v1h-1z M29,57h1v1h-1z M31,57h1v1h-1z M38,57h1v1h-1z M40,57h1v1h-1z M42,57h1v1h-1z M43,57h1v1h-1z M44,57h1v1h-1z M47,57h1v1h-1z M50,57h1v1h-1z M51,57h1v1h-1z M60,57h1v1h-1z M61,57h1v1h-1z M62,57h1v1h-1z M63,57h1v1h-1z M64,57h1v1h-1z M65,57h1v1h-1z M66,57h1v1h-1z M70,57h1v1h-1z M71,57h1v1h-1z M72,57h1v1h-1z M73,57h1v1h-1z M74,57h1v1h-1z M77,57h1v1h-1z M78,57h1v1h-1z M82,57h1v1h-1z M83,57h1v1h-1z M84,57h1v1h-1z M85,57h1v1h-1z M88,57h1v1h-1z M89,57h1v1h-1z M94,57h1v1h-1z M95,57h1v1h-1z M96,57h1v1h-1z M100,57h1v1h-1z M102,57h1v1h-1z M104,57h1v1h-1z M106,57h1v1h-1z M4,58h1v1h-1z M5,58h1v1h-1z M8,58h1v1h-1z M9,58h1v1h-1z M10,58h1v1h-1z M11,58h1v1h-1z M12,58h1v1h-1z M14,58h1v1h-1z M15,58h1v1h-1z M17,58h1v1h-1z M20,58h1v1h-1z M21,58h1v1h-1z M22,58h1v1h-1z M24,58h1v1h-1z M25,58h1v1h-1z M31,58h1v1h-1z M35,58h1v1h-1z M38,58h1v1h-1z M45,58h1v1h-1z M48,58h1v1h-1z M50,58h1v1h-1z M51,58h1v1h-1z M54,58h1v1h-1z M57,58h1v1h-1z M60,58h1v1h-1z M62,58h1v1h-1z M64,58h1v1h-1z M65,58h1v1h-1z M67,58h1v1h-1z M71,58h1v1h-1z M74,58h1v1h-1z M78,58h1v1h-1z M86,58h1v1h-1z M89,58h1v1h-1z M92,58h1v1h-1z M96,58h1v1h-1z M98,58h1v1h-1z M99,58h1v1h-1z M102,58h1v1h-1z M104,58h1v1h-1z M4,59h1v1h-1z M7,59h1v1h-1z M9,59h1v1h-1z M13,59h1v1h-1z M17,59h1v1h-1z M18,59h1v1h-1z M20,59h1v1h-1z M21,59h1v1h-1z M25,59h1v1h-1z M28,59h1v1h-1z M29,59h1v1h-1z M32,59h1v1h-1z M34,59h1v1h-1z M35,59h1v1h-1z M41,59h1v1h-1z M42,59h1v1h-1z M43,59h1v1h-1z M44,59h1v1h-1z M46,59h1v1h-1z M47,59h1v1h-1z M52,59h1v1h-1z M56,59h1v1h-1z M58,59h1v1h-1z M59,59h1v1h-1z M61,59h1v1h-1z M63,59h1v1h-1z M65,59h1v1h-1z M66,59h1v1h-1z M68,59h1v1h-1z M70,59h1v1h-1z M71,59h1v1h-1z M74,59h1v1h-1z M76,59h1v1h-1z M78,59h1v1h-1z M79,59h1v1h-1z M80,59h1v1h-1z M81,59h1v1h-1z M82,59h1v1h-1z M83,59h1v1h-1z M86,59h1v1h-1z M92,59h1v1h-1z M93,59h1v1h-1z M94,59h1v1h-1z M95,59h1v1h-1z M101,59h1v1h-1z M102,59h1v1h-1z M104,59h1v1h-1z M107,59h1v1h-1z M6,60h1v1h-1z M7,60h1v1h-1z M10,60h1v1h-1z M13,60h1v1h-1z M14,60h1v1h-1z M16,60h1v1h-1z M18,60h1v1h-1z M21,60h1v1h-1z M22,60h1v1h-1z M24,60h1v1h-1z M28,60h1v1h-1z M29,60h1v1h-1z M30,60h1v1h-1z M34,60h1v1h-1z M35,60h1v1h-1z M42,60h1v1h-1z M43,60h1v1h-1z M45,60h1v1h-1z M46,60h1v1h-1z M48,60h1v1h-1z M49,60h1v1h-1z M50,60h1v1h-1z M52,60h1v1h-1z M54,60h1v1h-1z M57,60h1v1h-1z M58,60h1v1h-1z M59,60h1v1h-1z M60,60h1v1h-1z M61,60h1v1h-1z M62,60h1v1h-1z M63,60h1v1h-1z M64,60h1v1h-1z M66,60h1v1h-1z M67,60h1v1h-1z M68,60h1v1h-1z M69,60h1v1h-1z M70,60h1v1h-1z M71,60h1v1h-1z M72,60h1v1h-1z M73,60h1v1h-1z M75,60h1v1h-1z M77,60h1v1h-1z M78,60h1v1h-1z M80,60h1v1h-1z M82,60h1v1h-1z M84,60h1v1h-1z M85,60h1v1h-1z M88,60h1v1h-1z M90,60h1v1h-1z M91,60h1v1h-1z M92,60h1v1h-1z M94,60h1v1h-1z M96,60h1v1h-1z M97,60h1v1h-1z M99,60h1v1h-1z M100,60h1v1h-1z M102,60h1v1h-1z M103,60h1v1h-1z M107,60h1v1h-1z M108,60h1v1h-1z M5,61h1v1h-1z M6,61h1v1h-1z M7,61h1v1h-1z M8,61h1v1h-1z M9,61h1v1h-1z M14,61h1v1h-1z M15,61h1v1h-1z M18,61h1v1h-1z M21,61h1v1h-1z M22,61h1v1h-1z M24,61h1v1h-1z M25,61h1v1h-1z M31,61h1v1h-1z M34,61h1v1h-1z M35,61h1v1h-1z M37,61h1v1h-1z M39,61h1v1h-1z M40,61h1v1h-1z M42,61h1v1h-1z M43,61h1v1h-1z M44,61h1v1h-1z M47,61h1v1h-1z M48,61h1v1h-1z M49,61h1v1h-1z M50,61h1v1h-1z M51,61h1v1h-1z M53,61h1v1h-1z M55,61h1v1h-1z M58,61h1v1h-1z M59,61h1v1h-1z M62,61h1v1h-1z M63,61h1v1h-1z M64,61h1v1h-1z M65,61h1v1h-1z M66,61h1v1h-1z M67,61h1v1h-1z M69,61h1v1h-1z M71,61h1v1h-1z M72,61h1v1h-1z M73,61h1v1h-1z M79,61h1v1h-1z M83,61h1v1h-1z M85,61h1v1h-1z M86,61h1v1h-1z M89,61h1v1h-1z M91,61h1v1h-1z M93,61h1v1h-1z M94,61h1v1h-1z M95,61h1v1h-1z M97,61h1v1h-1z M98,61h1v1h-1z M99,61h1v1h-1z M100,61h1v1h-1z M102,61h1v1h-1z M103,61h1v1h-1z M104,61h1v1h-1z M105,61h1v1h-1z M106,61h1v1h-1z M107,61h1v1h-1z M108,61h1v1h-1z M6,62h1v1h-1z M10,62h1v1h-1z M11,62h1v1h-1z M14,62h1v1h-1z M16,62h1v1h-1z M18,62h1v1h-1z M19,62h1v1h-1z M21,62h1v1h-1z M23,62h1v1h-1z M24,62h1v1h-1z M26,62h1v1h-1z M29,62h1v1h-1z M30,62h1v1h-1z M38,62h1v1h-1z M39,62h1v1h-1z M40,62h1v1h-1z M41,62h1v1h-1z M43,62h1v1h-1z M47,62h1v1h-1z M48,62h1v1h-1z M50,62h1v1h-1z M53,62h1v1h-1z M59,62h1v1h-1z M60,62h1v1h-1z M62,62h1v1h-1z M63,62h1v1h-1z M65,62h1v1h-1z M67,62h1v1h-1z M68,62h1v1h-1z M74,62h1v1h-1z M75,62h1v1h-1z M77,62h1v1h-1z M79,62h1v1h-1z M83,62h1v1h-1z M84,62h1v1h-1z M86,62h1v1h-1z M88,62h1v1h-1z M89,62h1v1h-1z M92,62h1v1h-1z M93,62h1v1h-1z M98,62h1v1h-1z M99,62h1v1h-1z M100,62h1v1h-1z M103,62h1v1h-1z M104,62h1v1h-1z M105,62h1v1h-1z M106,62h1v1h-1z M107,62h1v1h-1z M5,63h1v1h-1z M6,63h1v1h-1z M7,63h1v1h-1z M9,63h1v1h-1z M11,63h1v1h-1z M13,63h1v1h-1z M14,63h1v1h-1z M15,63h1v1h-1z M16,63h1v1h-1z M21,63h1v1h-1z M23,63h1v1h-1z M24,63h1v1h-1z M26,63h1v1h-1z M29,63h1v1h-1z M30,63h1v1h-1z M31,63h1v1h-1z M33,63h1v1h-1z M34,63h1v1h-1z M35,63h1v1h-1z M38,63h1v1h-1z M44,63h1v1h-1z M49,63h1v1h-1z M51,63h1v1h-1z M52,63h1v1h-1z M53,63h1v1h-1z M54,63h1v1h-1z M56,63h1v1h-1z M57,63h1v1h-1z M61,63h1v1h-1z M62,63h1v1h-1z M68,63h1v1h-1z M69,63h1v1h-1z M70,63h1v1h-1z M71,63h1v1h-1z M75,63h1v1h-1z M80,63h1v1h-1z M81,63h1v1h-1z M82,63h1v1h-1z M85,63h1v1h-1z M90,63h1v1h-1z M92,63h1v1h-1z M94,63h1v1h-1z M95,63h1v1h-1z M99,63h1v1h-1z M105,63h1v1h-1z M5,64h1v1h-1z M7,64h1v1h-1z M8,64h1v1h-1z M10,64h1v1h-1z M11,64h1v1h-1z M17,64h1v1h-1z M23,64h1v1h-1z M24,64h1v1h-1z M27,64h1v1h-1z M28,64h1v1h-1z M30,64h1v1h-1z M35,64h1v1h-1z M36,64h1v1h-1z M37,64h1v1h-1z M41,64h1v1h-1z M43,64h1v1h-1z M44,64h1v1h-1z M45,64h1v1h-1z M48,64h1v1h-1z M50,64h1v1h-1z M51,64h1v1h-1z M52,64h1v1h-1z M54,64h1v1h-1z M60,64h1v1h-1z M61,64h1v1h-1z M66,64h1v1h-1z M67,64h1v1h-1z M68,64h1v1h-1z M71,64h1v1h-1z M72,64h1v1h-1z M73,64h1v1h-1z M75,64h1v1h-1z M76,64h1v1h-1z M78,64h1v1h-1z M79,64h1v1h-1z M80,64h1v1h-1z M81,64h1v1h-1z M85,64h1v1h-1z M86,64h1v1h-1z M87,64h1v1h-1z M88,64h1v1h-1z M89,64h1v1h-1z M90,64h1v1h-1z M92,64h1v1h-1z M94,64h1v1h-1z M95,64h1v1h-1z M96,64h1v1h-1z M97,64h1v1h-1z M99,64h1v1h-1z M101,64h1v1h-1z M103,64h1v1h-1z M105,64h1v1h-1z M107,64h1v1h-1z M108,64h1v1h-1z M4,65h1v1h-1z M14,65h1v1h-1z M16,65h1v1h-1z M17,65h1v1h-1z M18,65h1v1h-1z M21,65h1v1h-1z M24,65h1v1h-1z M30,65h1v1h-1z M31,65h1v1h-1z M33,65h1v1h-1z M36,65h1v1h-1z M38,65h1v1h-1z M40,65h1v1h-1z M42,65h1v1h-1z M43,65h1v1h-1z M44,65h1v1h-1z M45,65h1v1h-1z M47,65h1v1h-1z M48,65h1v1h-1z M53,65h1v1h-1z M54,65h1v1h-1z M55,65h1v1h-1z M60,65h1v1h-1z M61,65h1v1h-1z M64,65h1v1h-1z M65,65h1v1h-1z M66,65h1v1h-1z M71,65h1v1h-1z M73,65h1v1h-1z M75,65h1v1h-1z M77,65h1v1h-1z M81,65h1v1h-1z M82,65h1v1h-1z M84,65h1v1h-1z M85,65h1v1h-1z M86,65h1v1h-1z M89,65h1v1h-1z M91,65h1v1h-1z M96,65h1v1h-1z M100,65h1v1h-1z M102,65h1v1h-1z M103,65h1v1h-1z M104,65h1v1h-1z M107,65h1v1h-1z M4,66h1v1h-1z M6,66h1v1h-1z M8,66h1v1h-1z M9,66h1v1h-1z M10,66h1v1h-1z M11,66h1v1h-1z M12,66h1v1h-1z M14,66h1v1h-1z M16,66h1v1h-1z M22,66h1v1h-1z M25,66h1v1h-1z M26,66h1v1h-1z M31,66h1v1h-1z M33,66h1v1h-1z M35,66h1v1h-1z M36,66h1v1h-1z M37,66h1v1h-1z M38,66h1v1h-1z M40,66h1v1h-1z M41,66h1v1h-1z M48,66h1v1h-1z M50,66h1v1h-1z M54,66h1v1h-1z M55,66h1v1h-1z M60,66h1v1h-1z M62,66h1v1h-1z M63,66h1v1h-1z M65,66h1v1h-1z M67,66h1v1h-1z M71,66h1v1h-1z M74,66h1v1h-1z M75,66h1v1h-1z M77,66h1v1h-1z M78,66h1v1h-1z M84,66h1v1h-1z M86,66h1v1h-1z M87,66h1v1h-1z M89,66h1v1h-1z M91,66h1v1h-1z M92,66h1v1h-1z M93,66h1v1h-1z M95,66h1v1h-1z M96,66h1v1h-1z M97,66h1v1h-1z M98,66h1v1h-1z M99,66h1v1h-1z M103,66h1v1h-1z M104,66h1v1h-1z M105,66h1v1h-1z M4,67h1v1h-1z M5,67h1v1h-1z M9,67h1v1h-1z M11,67h1v1h-1z M12,67h1v1h-1z M14,67h1v1h-1z M15,67h1v1h-1z M16,67h1v1h-1z M19,67h1v1h-1z M23,67h1v1h-1z M24,67h1v1h-1z M27,67h1v1h-1z M29,67h1v1h-1z M30,67h1v1h-1z M31,67h1v1h-1z M32,67h1v1h-1z M34,67h1v1h-1z M44,67h1v1h-1z M45,67h1v1h-1z M47,67h1v1h-1z M49,67h1v1h-1z M53,67h1v1h-1z M54,67h1v1h-1z M55,67h1v1h-1z M57,67h1v1h-1z M59,67h1v1h-1z M62,67h1v1h-1z M65,67h1v1h-1z M68,67h1v1h-1z M69,67h1v1h-1z M70,67h1v1h-1z M71,67h1v1h-1z M73,67h1v1h-1z M74,67h1v1h-1z M76,67h1v1h-1z M77,67h1v1h-1z M78,67h1v1h-1z M80,67h1v1h-1z M81,67h1v1h-1z M82,67h1v1h-1z M83,67h1v1h-1z M86,67h1v1h-1z M89,67h1v1h-1z M92,67h1v1h-1z M94,67h1v1h-1z M95,67h1v1h-1z M102,67h1v1h-1z M108,67h1v1h-1z M10,68h1v1h-1z M11,68h1v1h-1z M13,68h1v1h-1z M15,68h1v1h-1z M18,68h1v1h-1z M27,68h1v1h-1z M30,68h1v1h-1z M36,68h1v1h-1z M40,68h1v1h-1z M41,68h1v1h-1z M43,68h1v1h-1z M47,68h1v1h-1z M52,68h1v1h-1z M54,68h1v1h-1z M58,68h1v1h-1z M63,68h1v1h-1z M65,68h1v1h-1z M69,68h1v1h-1z M70,68h1v1h-1z M71,68h1v1h-1z M74,68h1v1h-1z M76,68h1v1h-1z M78,68h1v1h-1z M79,68h1v1h-1z M80,68h1v1h-1z M82,68h1v1h-1z M83,68h1v1h-1z M84,68h1v1h-1z M85,68h1v1h-1z M86,68h1v1h-1z M94,68h1v1h-1z M96,68h1v1h-1z M98,68h1v1h-1z M100,68h1v1h-1z M101,68h1v1h-1z M102,68h1v1h-1z M103,68h1v1h-1z M105,68h1v1h-1z M107,68h1v1h-1z M108,68h1v1h-1z M5,69h1v1h-1z M7,69h1v1h-1z M12,69h1v1h-1z M13,69h1v1h-1z M16,69h1v1h-1z M19,69h1v1h-1z M24,69h1v1h-1z M28,69h1v1h-1z M31,69h1v1h-1z M35,69h1v1h-1z M36,69h1v1h-1z M38,69h1v1h-1z M40,69h1v1h-1z M42,69h1v1h-1z M45,69h1v1h-1z M48,69h1v1h-1z M50,69h1v1h-1z M51,69h1v1h-1z M53,69h1v1h-1z M55,69h1v1h-1z M62,69h1v1h-1z M65,69h1v1h-1z M66,69h1v1h-1z M68,69h1v1h-1z M69,69h1v1h-1z M71,69h1v1h-1z M73,69h1v1h-1z M74,69h1v1h-1z M77,69h1v1h-1z M78,69h1v1h-1z M81,69h1v1h-1z M82,69h1v1h-1z M84,69h1v1h-1z M85,69h1v1h-1z M86,69h1v1h-1z M87,69h1v1h-1z M88,69h1v1h-1z M89,69h1v1h-1z M90,69h1v1h-1z M92,69h1v1h-1z M93,69h1v1h-1z M95,69h1v1h-1z M96,69h1v1h-1z M97,69h1v1h-1z M99,69h1v1h-1z M100,69h1v1h-1z M101,69h1v1h-1z M102,69h1v1h-1z M103,69h1v1h-1z M104,69h1v1h-1z M106,69h1v1h-1z M107,69h1v1h-1z M6,70h1v1h-1z M7,70h1v1h-1z M10,70h1v1h-1z M11,70h1v1h-1z M15,70h1v1h-1z M17,70h1v1h-1z M18,70h1v1h-1z M22,70h1v1h-1z M23,70h1v1h-1z M25,70h1v1h-1z M30,70h1v1h-1z M38,70h1v1h-1z M41,70h1v1h-1z M44,70h1v1h-1z M47,70h1v1h-1z M50,70h1v1h-1z M51,70h1v1h-1z M54,70h1v1h-1z M55,70h1v1h-1z M59,70h1v1h-1z M62,70h1v1h-1z M65,70h1v1h-1z M67,70h1v1h-1z M72,70h1v1h-1z M73,70h1v1h-1z M74,70h1v1h-1z M78,70h1v1h-1z M80,70h1v1h-1z M81,70h1v1h-1z M83,70h1v1h-1z M84,70h1v1h-1z M86,70h1v1h-1z M88,70h1v1h-1z M89,70h1v1h-1z M91,70h1v1h-1z M95,70h1v1h-1z M96,70h1v1h-1z M98,70h1v1h-1z M99,70h1v1h-1z M100,70h1v1h-1z M101,70h1v1h-1z M102,70h1v1h-1z M103,70h1v1h-1z M107,70h1v1h-1z M108,70h1v1h-1z M4,71h1v1h-1z M6,71h1v1h-1z M7,71h1v1h-1z M8,71h1v1h-1z M9,71h1v1h-1z M11,71h1v1h-1z M12,71h1v1h-1z M16,71h1v1h-1z M17,71h1v1h-1z M18,71h1v1h-1z M21,71h1v1h-1z M22,71h1v1h-1z M25,71h1v1h-1z M26,71h1v1h-1z M30,71h1v1h-1z M32,71h1v1h-1z M33,71h1v1h-1z M35,71h1v1h-1z M41,71h1v1h-1z M42,71h1v1h-1z M44,71h1v1h-1z M47,71h1v1h-1z M51,71h1v1h-1z M52,71h1v1h-1z M53,71h1v1h-1z M57,71h1v1h-1z M59,71h1v1h-1z M61,71h1v1h-1z M66,71h1v1h-1z M68,71h1v1h-1z M69,71h1v1h-1z M70,71h1v1h-1z M71,71h1v1h-1z M73,71h1v1h-1z M76,71h1v1h-1z M77,71h1v1h-1z M80,71h1v1h-1z M82,71h1v1h-1z M85,71h1v1h-1z M92,71h1v1h-1z M93,71h1v1h-1z M94,71h1v1h-1z M95,71h1v1h-1z M103,71h1v1h-1z M107,71h1v1h-1z M108,71h1v1h-1z M5,72h1v1h-1z M7,72h1v1h-1z M10,72h1v1h-1z M13,72h1v1h-1z M14,72h1v1h-1z M16,72h1v1h-1z M19,72h1v1h-1z M21,72h1v1h-1z M24,72h1v1h-1z M30,72h1v1h-1z M31,72h1v1h-1z M33,72h1v1h-1z M34,72h1v1h-1z M35,72h1v1h-1z M36,72h1v1h-1z M39,72h1v1h-1z M42,72h1v1h-1z M46,72h1v1h-1z M47,72h1v1h-1z M48,72h1v1h-1z M49,72h1v1h-1z M50,72h1v1h-1z M52,72h1v1h-1z M54,72h1v1h-1z M55,72h1v1h-1z M56,72h1v1h-1z M60,72h1v1h-1z M63,72h1v1h-1z M64,72h1v1h-1z M65,72h1v1h-1z M67,72h1v1h-1z M68,72h1v1h-1z M70,72h1v1h-1z M71,72h1v1h-1z M72,72h1v1h-1z M74,72h1v1h-1z M76,72h1v1h-1z M78,72h1v1h-1z M80,72h1v1h-1z M82,72h1v1h-1z M85,72h1v1h-1z M86,72h1v1h-1z M87,72h1v1h-1z M89,72h1v1h-1z M91,72h1v1h-1z M92,72h1v1h-1z M93,72h1v1h-1z M94,72h1v1h-1z M96,72h1v1h-1z M97,72h1v1h-1z M99,72h1v1h-1z M103,72h1v1h-1z M106,72h1v1h-1z M107,72h1v1h-1z M108,72h1v1h-1z M5,73h1v1h-1z M6,73h1v1h-1z M12,73h1v1h-1z M14,73h1v1h-1z M18,73h1v1h-1z M21,73h1v1h-1z M22,73h1v1h-1z M24,73h1v1h-1z M29,73h1v1h-1z M31,73h1v1h-1z M34,73h1v1h-1z M40,73h1v1h-1z M44,73h1v1h-1z M49,73h1v1h-1z M50,73h1v1h-1z M52,73h1v1h-1z M55,73h1v1h-1z M57,73h1v1h-1z M58,73h1v1h-1z M59,73h1v1h-1z M60,73h1v1h-1z M61,73h1v1h-1z M62,73h1v1h-1z M63,73h1v1h-1z M64,73h1v1h-1z M66,73h1v1h-1z M67,73h1v1h-1z M69,73h1v1h-1z M70,73h1v1h-1z M73,73h1v1h-1z M75,73h1v1h-1z M77,73h1v1h-1z M85,73h1v1h-1z M86,73h1v1h-1z M87,73h1v1h-1z M88,73h1v1h-1z M91,73h1v1h-1z M92,73h1v1h-1z M95,73h1v1h-1z M97,73h1v1h-1z M100,73h1v1h-1z M102,73h1v1h-1z M105,73h1v1h-1z M107,73h1v1h-1z M4,74h1v1h-1z M5,74h1v1h-1z M7,74h1v1h-1z M10,74h1v1h-1z M12,74h1v1h-1z M13,74h1v1h-1z M15,74h1v1h-1z M17,74h1v1h-1z M18,74h1v1h-1z M22,74h1v1h-1z M23,74h1v1h-1z M25,74h1v1h-1z M29,74h1v1h-1z M32,74h1v1h-1z M35,74h1v1h-1z M36,74h1v1h-1z M38,74h1v1h-1z M39,74h1v1h-1z M41,74h1v1h-1z M47,74h1v1h-1z M48,74h1v1h-1z M49,74h1v1h-1z M50,74h1v1h-1z M55,74h1v1h-1z M56,74h1v1h-1z M60,74h1v1h-1z M61,74h1v1h-1z M62,74h1v1h-1z M64,74h1v1h-1z M65,74h1v1h-1z M71,74h1v1h-1z M72,74h1v1h-1z M74,74h1v1h-1z M79,74h1v1h-1z M83,74h1v1h-1z M84,74h1v1h-1z M86,74h1v1h-1z M88,74h1v1h-1z M89,74h1v1h-1z M92,74h1v1h-1z M95,74h1v1h-1z M98,74h1v1h-1z M99,74h1v1h-1z M100,74h1v1h-1z M101,74h1v1h-1z M104,74h1v1h-1z M105,74h1v1h-1z M106,74h1v1h-1z M107,74h1v1h-1z M6,75h1v1h-1z M9,75h1v1h-1z M13,75h1v1h-1z M15,75h1v1h-1z M16,75h1v1h-1z M19,75h1v1h-1z M21,75h1v1h-1z M22,75h1v1h-1z M23,75h1v1h-1z M25,75h1v1h-1z M27,75h1v1h-1z M28,75h1v1h-1z M30,75h1v1h-1z M32,75h1v1h-1z M37,75h1v1h-1z M43,75h1v1h-1z M44,75h1v1h-1z M45,75h1v1h-1z M47,75h1v1h-1z M51,75h1v1h-1z M52,75h1v1h-1z M54,75h1v1h-1z M57,75h1v1h-1z M58,75h1v1h-1z M59,75h1v1h-1z M68,75h1v1h-1z M70,75h1v1h-1z M73,75h1v1h-1z M77,75h1v1h-1z M78,75h1v1h-1z M80,75h1v1h-1z M82,75h1v1h-1z M83,75h1v1h-1z M85,75h1v1h-1z M89,75h1v1h-1z M90,75h1v1h-1z M92,75h1v1h-1z M93,75h1v1h-1z M94,75h1v1h-1z M95,75h1v1h-1z M103,75h1v1h-1z M105,75h1v1h-1z M107,75h1v1h-1z M4,76h1v1h-1z M5,76h1v1h-1z M8,76h1v1h-1z M9,76h1v1h-1z M10,76h1v1h-1z M11,76h1v1h-1z M12,76h1v1h-1z M13,76h1v1h-1z M14,76h1v1h-1z M16,76h1v1h-1z M17,76h1v1h-1z M19,76h1v1h-1z M21,76h1v1h-1z M25,76h1v1h-1z M27,76h1v1h-1z M28,76h1v1h-1z M29,76h1v1h-1z M30,76h1v1h-1z M31,76h1v1h-1z M32,76h1v1h-1z M34,76h1v1h-1z M37,76h1v1h-1z M42,76h1v1h-1z M43,76h1v1h-1z M44,76h1v1h-1z M45,76h1v1h-1z M46,76h1v1h-1z M48,76h1v1h-1z M52,76h1v1h-1z M53,76h1v1h-1z M54,76h1v1h-1z M55,76h1v1h-1z M56,76h1v1h-1z M57,76h1v1h-1z M58,76h1v1h-1z M59,76h1v1h-1z M62,76h1v1h-1z M65,76h1v1h-1z M66,76h1v1h-1z M68,76h1v1h-1z M71,76h1v1h-1z M74,76h1v1h-1z M75,76h1v1h-1z M76,76h1v1h-1z M77,76h1v1h-1z M78,76h1v1h-1z M79,76h1v1h-1z M80,76h1v1h-1z M82,76h1v1h-1z M83,76h1v1h-1z M87,76h1v1h-1z M90,76h1v1h-1z M91,76h1v1h-1z M94,76h1v1h-1z M98,76h1v1h-1z M100,76h1v1h-1z M101,76h1v1h-1z M102,76h1v1h-1z M103,76h1v1h-1z M104,76h1v1h-1z M105,76h1v1h-1z M107,76h1v1h-1z M108,76h1v1h-1z M5,77h1v1h-1z M7,77h1v1h-1z M8,77h1v1h-1z M12,77h1v1h-1z M13,77h1v1h-1z M15,77h1v1h-1z M17,77h1v1h-1z M18,77h1v1h-1z M19,77h1v1h-1z M21,77h1v1h-1z M25,77h1v1h-1z M28,77h1v1h-1z M32,77h1v1h-1z M33,77h1v1h-1z M34,77h1v1h-1z M35,77h1v1h-1z M36,77h1v1h-1z M38,77h1v1h-1z M39,77h1v1h-1z M40,77h1v1h-1z M41,77h1v1h-1z M43,77h1v1h-1z M46,77h1v1h-1z M47,77h1v1h-1z M51,77h1v1h-1z M52,77h1v1h-1z M56,77h1v1h-1z M59,77h1v1h-1z M60,77h1v1h-1z M63,77h1v1h-1z M64,77h1v1h-1z M65,77h1v1h-1z M68,77h1v1h-1z M71,77h1v1h-1z M72,77h1v1h-1z M73,77h1v1h-1z M74,77h1v1h-1z M76,77h1v1h-1z M80,77h1v1h-1z M81,77h1v1h-1z M84,77h1v1h-1z M85,77h1v1h-1z M86,77h1v1h-1z M89,77h1v1h-1z M90,77h1v1h-1z M93,77h1v1h-1z M95,77h1v1h-1z M96,77h1v1h-1z M98,77h1v1h-1z M100,77h1v1h-1z M104,77h1v1h-1z M105,77h1v1h-1z M106,77h1v1h-1z M4,78h1v1h-1z M8,78h1v1h-1z M10,78h1v1h-1z M12,78h1v1h-1z M15,78h1v1h-1z M16,78h1v1h-1z M17,78h1v1h-1z M18,78h1v1h-1z M19,78h1v1h-1z M20,78h1v1h-1z M21,78h1v1h-1z M24,78h1v1h-1z M25,78h1v1h-1z M26,78h1v1h-1z M27,78h1v1h-1z M28,78h1v1h-1z M30,78h1v1h-1z M32,78h1v1h-1z M35,78h1v1h-1z M36,78h1v1h-1z M38,78h1v1h-1z M40,78h1v1h-1z M43,78h1v1h-1z M44,78h1v1h-1z M47,78h1v1h-1z M50,78h1v1h-1z M51,78h1v1h-1z M52,78h1v1h-1z M54,78h1v1h-1z M56,78h1v1h-1z M59,78h1v1h-1z M62,78h1v1h-1z M64,78h1v1h-1z M65,78h1v1h-1z M72,78h1v1h-1z M74,78h1v1h-1z M76,78h1v1h-1z M78,78h1v1h-1z M80,78h1v1h-1z M81,78h1v1h-1z M84,78h1v1h-1z M86,78h1v1h-1z M88,78h1v1h-1z M89,78h1v1h-1z M93,78h1v1h-1z M95,78h1v1h-1z M98,78h1v1h-1z M100,78h1v1h-1z M102,78h1v1h-1z M104,78h1v1h-1z M105,78h1v1h-1z M107,78h1v1h-1z M4,79h1v1h-1z M5,79h1v1h-1z M7,79h1v1h-1z M8,79h1v1h-1z M12,79h1v1h-1z M13,79h1v1h-1z M14,79h1v1h-1z M15,79h1v1h-1z M16,79h1v1h-1z M20,79h1v1h-1z M21,79h1v1h-1z M23,79h1v1h-1z M27,79h1v1h-1z M28,79h1v1h-1z M32,79h1v1h-1z M33,79h1v1h-1z M34,79h1v1h-1z M35,79h1v1h-1z M37,79h1v1h-1z M38,79h1v1h-1z M41,79h1v1h-1z M42,79h1v1h-1z M44,79h1v1h-1z M47,79h1v1h-1z M50,79h1v1h-1z M51,79h1v1h-1z M52,79h1v1h-1z M56,79h1v1h-1z M58,79h1v1h-1z M59,79h1v1h-1z M61,79h1v1h-1z M68,79h1v1h-1z M69,79h1v1h-1z M71,79h1v1h-1z M73,79h1v1h-1z M76,79h1v1h-1z M80,79h1v1h-1z M82,79h1v1h-1z M83,79h1v1h-1z M85,79h1v1h-1z M92,79h1v1h-1z M93,79h1v1h-1z M94,79h1v1h-1z M95,79h1v1h-1z M97,79h1v1h-1z M99,79h1v1h-1z M100,79h1v1h-1z M104,79h1v1h-1z M108,79h1v1h-1z M4,80h1v1h-1z M5,80h1v1h-1z M6,80h1v1h-1z M8,80h1v1h-1z M9,80h1v1h-1z M10,80h1v1h-1z M11,80h1v1h-1z M12,80h1v1h-1z M13,80h1v1h-1z M17,80h1v1h-1z M19,80h1v1h-1z M20,80h1v1h-1z M21,80h1v1h-1z M24,80h1v1h-1z M26,80h1v1h-1z M27,80h1v1h-1z M28,80h1v1h-1z M29,80h1v1h-1z M30,80h1v1h-1z M31,80h1v1h-1z M32,80h1v1h-1z M33,80h1v1h-1z M38,80h1v1h-1z M42,80h1v1h-1z M46,80h1v1h-1z M50,80h1v1h-1z M51,80h1v1h-1z M52,80h1v1h-1z M53,80h1v1h-1z M54,80h1v1h-1z M55,80h1v1h-1z M56,80h1v1h-1z M58,80h1v1h-1z M61,80h1v1h-1z M64,80h1v1h-1z M65,80h1v1h-1z M67,80h1v1h-1z M68,80h1v1h-1z M69,80h1v1h-1z M70,80h1v1h-1z M71,80h1v1h-1z M72,80h1v1h-1z M73,80h1v1h-1z M75,80h1v1h-1z M76,80h1v1h-1z M77,80h1v1h-1z M78,80h1v1h-1z M79,80h1v1h-1z M80,80h1v1h-1z M84,80h1v1h-1z M85,80h1v1h-1z M87,80h1v1h-1z M88,80h1v1h-1z M90,80h1v1h-1z M91,80h1v1h-1z M92,80h1v1h-1z M94,80h1v1h-1z M97,80h1v1h-1z M100,80h1v1h-1z M101,80h1v1h-1z M102,80h1v1h-1z M103,80h1v1h-1z M104,80h1v1h-1z M105,80h1v1h-1z M108,80h1v1h-1z M4,81h1v1h-1z M6,81h1v1h-1z M8,81h1v1h-1z M12,81h1v1h-1z M13,81h1v1h-1z M14,81h1v1h-1z M16,81h1v1h-1z M17,81h1v1h-1z M19,81h1v1h-1z M20,81h1v1h-1z M21,81h1v1h-1z M22,81h1v1h-1z M24,81h1v1h-1z M25,81h1v1h-1z M26,81h1v1h-1z M30,81h1v1h-1z M33,81h1v1h-1z M34,81h1v1h-1z M35,81h1v1h-1z M37,81h1v1h-1z M42,81h1v1h-1z M44,81h1v1h-1z M46,81h1v1h-1z M48,81h1v1h-1z M49,81h1v1h-1z M50,81h1v1h-1z M54,81h1v1h-1z M56,81h1v1h-1z M58,81h1v1h-1z M59,81h1v1h-1z M65,81h1v1h-1z M67,81h1v1h-1z M69,81h1v1h-1z M72,81h1v1h-1z M73,81h1v1h-1z M76,81h1v1h-1z M78,81h1v1h-1z M81,81h1v1h-1z M82,81h1v1h-1z M83,81h1v1h-1z M85,81h1v1h-1z M86,81h1v1h-1z M91,81h1v1h-1z M92,81h1v1h-1z M93,81h1v1h-1z M94,81h1v1h-1z M96,81h1v1h-1z M98,81h1v1h-1z M99,81h1v1h-1z M100,81h1v1h-1z M101,81h1v1h-1z M103,81h1v1h-1z M108,81h1v1h-1z M5,82h1v1h-1z M6,82h1v1h-1z M7,82h1v1h-1z M8,82h1v1h-1z M9,82h1v1h-1z M10,82h1v1h-1z M11,82h1v1h-1z M12,82h1v1h-1z M13,82h1v1h-1z M15,82h1v1h-1z M16,82h1v1h-1z M20,82h1v1h-1z M23,82h1v1h-1z M24,82h1v1h-1z M25,82h1v1h-1z M26,82h1v1h-1z M27,82h1v1h-1z M28,82h1v1h-1z M29,82h1v1h-1z M30,82h1v1h-1z M32,82h1v1h-1z M35,82h1v1h-1z M36,82h1v1h-1z M38,82h1v1h-1z M40,82h1v1h-1z M41,82h1v1h-1z M44,82h1v1h-1z M50,82h1v1h-1z M54,82h1v1h-1z M55,82h1v1h-1z M56,82h1v1h-1z M57,82h1v1h-1z M59,82h1v1h-1z M60,82h1v1h-1z M61,82h1v1h-1z M62,82h1v1h-1z M65,82h1v1h-1z M67,82h1v1h-1z M68,82h1v1h-1z M69,82h1v1h-1z M72,82h1v1h-1z M74,82h1v1h-1z M75,82h1v1h-1z M80,82h1v1h-1z M83,82h1v1h-1z M86,82h1v1h-1z M87,82h1v1h-1z M88,82h1v1h-1z M89,82h1v1h-1z M92,82h1v1h-1z M93,82h1v1h-1z M95,82h1v1h-1z M96,82h1v1h-1z M97,82h1v1h-1z M98,82h1v1h-1z M99,82h1v1h-1z M100,82h1v1h-1z M101,82h1v1h-1z M104,82h1v1h-1z M107,82h1v1h-1z M4,83h1v1h-1z M5,83h1v1h-1z M8,83h1v1h-1z M11,83h1v1h-1z M12,83h1v1h-1z M14,83h1v1h-1z M15,83h1v1h-1z M16,83h1v1h-1z M17,83h1v1h-1z M23,83h1v1h-1z M24,83h1v1h-1z M27,83h1v1h-1z M30,83h1v1h-1z M33,83h1v1h-1z M37,83h1v1h-1z M44,83h1v1h-1z M45,83h1v1h-1z M47,83h1v1h-1z M49,83h1v1h-1z M50,83h1v1h-1z M52,83h1v1h-1z M53,83h1v1h-1z M57,83h1v1h-1z M58,83h1v1h-1z M68,83h1v1h-1z M70,83h1v1h-1z M71,83h1v1h-1z M73,83h1v1h-1z M74,83h1v1h-1z M76,83h1v1h-1z M78,83h1v1h-1z M80,83h1v1h-1z M81,83h1v1h-1z M83,83h1v1h-1z M85,83h1v1h-1z M89,83h1v1h-1z M92,83h1v1h-1z M94,83h1v1h-1z M100,83h1v1h-1z M102,83h1v1h-1z M104,83h1v1h-1z M105,83h1v1h-1z M6,84h1v1h-1z M8,84h1v1h-1z M9,84h1v1h-1z M10,84h1v1h-1z M16,84h1v1h-1z M18,84h1v1h-1z M22,84h1v1h-1z M23,84h1v1h-1z M24,84h1v1h-1z M29,84h1v1h-1z M32,84h1v1h-1z M34,84h1v1h-1z M37,84h1v1h-1z M38,84h1v1h-1z M39,84h1v1h-1z M40,84h1v1h-1z M42,84h1v1h-1z M47,84h1v1h-1z M48,84h1v1h-1z M50,84h1v1h-1z M51,84h1v1h-1z M52,84h1v1h-1z M53,84h1v1h-1z M54,84h1v1h-1z M56,84h1v1h-1z M57,84h1v1h-1z M58,84h1v1h-1z M59,84h1v1h-1z M65,84h1v1h-1z M78,84h1v1h-1z M84,84h1v1h-1z M85,84h1v1h-1z M86,84h1v1h-1z M89,84h1v1h-1z M90,84h1v1h-1z M91,84h1v1h-1z M92,84h1v1h-1z M94,84h1v1h-1z M98,84h1v1h-1z M100,84h1v1h-1z M101,84h1v1h-1z M104,84h1v1h-1z M105,84h1v1h-1z M108,84h1v1h-1z M5,85h1v1h-1z M8,85h1v1h-1z M11,85h1v1h-1z M15,85h1v1h-1z M18,85h1v1h-1z M19,85h1v1h-1z M30,85h1v1h-1z M37,85h1v1h-1z M38,85h1v1h-1z M42,85h1v1h-1z M43,85h1v1h-1z M45,85h1v1h-1z M48,85h1v1h-1z M49,85h1v1h-1z M50,85h1v1h-1z M54,85h1v1h-1z M56,85h1v1h-1z M60,85h1v1h-1z M61,85h1v1h-1z M62,85h1v1h-1z M64,85h1v1h-1z M65,85h1v1h-1z M68,85h1v1h-1z M70,85h1v1h-1z M73,85h1v1h-1z M74,85h1v1h-1z M76,85h1v1h-1z M78,85h1v1h-1z M81,85h1v1h-1z M85,85h1v1h-1z M86,85h1v1h-1z M87,85h1v1h-1z M88,85h1v1h-1z M89,85h1v1h-1z M91,85h1v1h-1z M93,85h1v1h-1z M94,85h1v1h-1z M96,85h1v1h-1z M97,85h1v1h-1z M100,85h1v1h-1z M101,85h1v1h-1z M102,85h1v1h-1z M103,85h1v1h-1z M107,85h1v1h-1z M5,86h1v1h-1z M10,86h1v1h-1z M11,86h1v1h-1z M12,86h1v1h-1z M13,86h1v1h-1z M15,86h1v1h-1z M16,86h1v1h-1z M22,86h1v1h-1z M27,86h1v1h-1z M29,86h1v1h-1z M30,86h1v1h-1z M32,86h1v1h-1z M33,86h1v1h-1z M35,86h1v1h-1z M36,86h1v1h-1z M38,86h1v1h-1z M39,86h1v1h-1z M41,86h1v1h-1z M47,86h1v1h-1z M50,86h1v1h-1z M53,86h1v1h-1z M54,86h1v1h-1z M56,86h1v1h-1z M60,86h1v1h-1z M61,86h1v1h-1z M62,86h1v1h-1z M64,86h1v1h-1z M67,86h1v1h-1z M71,86h1v1h-1z M72,86h1v1h-1z M74,86h1v1h-1z M76,86h1v1h-1z M78,86h1v1h-1z M80,86h1v1h-1z M84,86h1v1h-1z M85,86h1v1h-1z M86,86h1v1h-1z M87,86h1v1h-1z M91,86h1v1h-1z M92,86h1v1h-1z M97,86h1v1h-1z M98,86h1v1h-1z M99,86h1v1h-1z M101,86h1v1h-1z M103,86h1v1h-1z M104,86h1v1h-1z M107,86h1v1h-1z M4,87h1v1h-1z M11,87h1v1h-1z M12,87h1v1h-1z M13,87h1v1h-1z M14,87h1v1h-1z M16,87h1v1h-1z M22,87h1v1h-1z M24,87h1v1h-1z M25,87h1v1h-1z M26,87h1v1h-1z M27,87h1v1h-1z M34,87h1v1h-1z M37,87h1v1h-1z M38,87h1v1h-1z M41,87h1v1h-1z M42,87h1v1h-1z M43,87h1v1h-1z M44,87h1v1h-1z M47,87h1v1h-1z M50,87h1v1h-1z M51,87h1v1h-1z M53,87h1v1h-1z M55,87h1v1h-1z M56,87h1v1h-1z M57,87h1v1h-1z M59,87h1v1h-1z M63,87h1v1h-1z M65,87h1v1h-1z M66,87h1v1h-1z M67,87h1v1h-1z M68,87h1v1h-1z M69,87h1v1h-1z M70,87h1v1h-1z M71,87h1v1h-1z M74,87h1v1h-1z M75,87h1v1h-1z M76,87h1v1h-1z M80,87h1v1h-1z M82,87h1v1h-1z M83,87h1v1h-1z M89,87h1v1h-1z M90,87h1v1h-1z M92,87h1v1h-1z M93,87h1v1h-1z M94,87h1v1h-1z M95,87h1v1h-1z M97,87h1v1h-1z M99,87h1v1h-1z M100,87h1v1h-1z M102,87h1v1h-1z M104,87h1v1h-1z M107,87h1v1h-1z M108,87h1v1h-1z M5,88h1v1h-1z M10,88h1v1h-1z M16,88h1v1h-1z M17,88h1v1h-1z M18,88h1v1h-1z M20,88h1v1h-1z M22,88h1v1h-1z M23,88h1v1h-1z M24,88h1v1h-1z M25,88h1v1h-1z M27,88h1v1h-1z M28,88h1v1h-1z M32,88h1v1h-1z M33,88h1v1h-1z M34,88h1v1h-1z M37,88h1v1h-1z M38,88h1v1h-1z M39,88h1v1h-1z M40,88h1v1h-1z M43,88h1v1h-1z M44,88h1v1h-1z M45,88h1v1h-1z M46,88h1v1h-1z M47,88h1v1h-1z M49,88h1v1h-1z M53,88h1v1h-1z M58,88h1v1h-1z M59,88h1v1h-1z M62,88h1v1h-1z M63,88h1v1h-1z M69,88h1v1h-1z M70,88h1v1h-1z M72,88h1v1h-1z M74,88h1v1h-1z M75,88h1v1h-1z M77,88h1v1h-1z M79,88h1v1h-1z M81,88h1v1h-1z M82,88h1v1h-1z M84,88h1v1h-1z M86,88h1v1h-1z M89,88h1v1h-1z M90,88h1v1h-1z M92,88h1v1h-1z M95,88h1v1h-1z M98,88h1v1h-1z M100,88h1v1h-1z M101,88h1v1h-1z M107,88h1v1h-1z M5,89h1v1h-1z M12,89h1v1h-1z M15,89h1v1h-1z M18,89h1v1h-1z M21,89h1v1h-1z M23,89h1v1h-1z M28,89h1v1h-1z M30,89h1v1h-1z M31,89h1v1h-1z M35,89h1v1h-1z M37,89h1v1h-1z M38,89h1v1h-1z M42,89h1v1h-1z M44,89h1v1h-1z M47,89h1v1h-1z M48,89h1v1h-1z M49,89h1v1h-1z M52,89h1v1h-1z M54,89h1v1h-1z M58,89h1v1h-1z M59,89h1v1h-1z M62,89h1v1h-1z M63,89h1v1h-1z M66,89h1v1h-1z M67,89h1v1h-1z M71,89h1v1h-1z M72,89h1v1h-1z M73,89h1v1h-1z M76,89h1v1h-1z M78,89h1v1h-1z M81,89h1v1h-1z M83,89h1v1h-1z M84,89h1v1h-1z M88,89h1v1h-1z M94,89h1v1h-1z M96,89h1v1h-1z M97,89h1v1h-1z M98,89h1v1h-1z M99,89h1v1h-1z M101,89h1v1h-1z M102,89h1v1h-1z M103,89h1v1h-1z M105,89h1v1h-1z M106,89h1v1h-1z M5,90h1v1h-1z M7,90h1v1h-1z M9,90h1v1h-1z M10,90h1v1h-1z M12,90h1v1h-1z M13,90h1v1h-1z M16,90h1v1h-1z M17,90h1v1h-1z M18,90h1v1h-1z M20,90h1v1h-1z M23,90h1v1h-1z M24,90h1v1h-1z M26,90h1v1h-1z M27,90h1v1h-1z M32,90h1v1h-1z M33,90h1v1h-1z M36,90h1v1h-1z M38,90h1v1h-1z M39,90h1v1h-1z M40,90h1v1h-1z M41,90h1v1h-1z M43,90h1v1h-1z M48,90h1v1h-1z M49,90h1v1h-1z M50,90h1v1h-1z M51,90h1v1h-1z M52,90h1v1h-1z M54,90h1v1h-1z M56,90h1v1h-1z M62,90h1v1h-1z M64,90h1v1h-1z M65,90h1v1h-1z M71,90h1v1h-1z M72,90h1v1h-1z M74,90h1v1h-1z M75,90h1v1h-1z M76,90h1v1h-1z M80,90h1v1h-1z M83,90h1v1h-1z M85,90h1v1h-1z M86,90h1v1h-1z M88,90h1v1h-1z M97,90h1v1h-1z M98,90h1v1h-1z M99,90h1v1h-1z M100,90h1v1h-1z M101,90h1v1h-1z M105,90h1v1h-1z M106,90h1v1h-1z M6,91h1v1h-1z M7,91h1v1h-1z M8,91h1v1h-1z M12,91h1v1h-1z M13,91h1v1h-1z M16,91h1v1h-1z M17,91h1v1h-1z M19,91h1v1h-1z M20,91h1v1h-1z M24,91h1v1h-1z M26,91h1v1h-1z M28,91h1v1h-1z M29,91h1v1h-1z M33,91h1v1h-1z M34,91h1v1h-1z M35,91h1v1h-1z M37,91h1v1h-1z M41,91h1v1h-1z M43,91h1v1h-1z M44,91h1v1h-1z M45,91h1v1h-1z M46,91h1v1h-1z M47,91h1v1h-1z M51,91h1v1h-1z M52,91h1v1h-1z M53,91h1v1h-1z M56,91h1v1h-1z M59,91h1v1h-1z M61,91h1v1h-1z M65,91h1v1h-1z M68,91h1v1h-1z M69,91h1v1h-1z M70,91h1v1h-1z M71,91h1v1h-1z M73,91h1v1h-1z M75,91h1v1h-1z M76,91h1v1h-1z M81,91h1v1h-1z M82,91h1v1h-1z M83,91h1v1h-1z M87,91h1v1h-1z M89,91h1v1h-1z M90,91h1v1h-1z M91,91h1v1h-1z M92,91h1v1h-1z M95,91h1v1h-1z M99,91h1v1h-1z M100,91h1v1h-1z M101,91h1v1h-1z M102,91h1v1h-1z M104,91h1v1h-1z M6,92h1v1h-1z M10,92h1v1h-1z M12,92h1v1h-1z M13,92h1v1h-1z M15,92h1v1h-1z M16,92h1v1h-1z M18,92h1v1h-1z M22,92h1v1h-1z M29,92h1v1h-1z M30,92h1v1h-1z M31,92h1v1h-1z M33,92h1v1h-1z M34,92h1v1h-1z M35,92h1v1h-1z M37,92h1v1h-1z M40,92h1v1h-1z M41,92h1v1h-1z M42,92h1v1h-1z M44,92h1v1h-1z M46,92h1v1h-1z M51,92h1v1h-1z M55,92h1v1h-1z M56,92h1v1h-1z M58,92h1v1h-1z M59,92h1v1h-1z M60,92h1v1h-1z M61,92h1v1h-1z M62,92h1v1h-1z M63,92h1v1h-1z M64,92h1v1h-1z M65,92h1v1h-1z M66,92h1v1h-1z M67,92h1v1h-1z M70,92h1v1h-1z M71,92h1v1h-1z M72,92h1v1h-1z M74,92h1v1h-1z M81,92h1v1h-1z M83,92h1v1h-1z M84,92h1v1h-1z M85,92h1v1h-1z M87,92h1v1h-1z M88,92h1v1h-1z M89,92h1v1h-1z M91,92h1v1h-1z M93,92h1v1h-1z M95,92h1v1h-1z M96,92h1v1h-1z M97,92h1v1h-1z M101,92h1v1h-1z M102,92h1v1h-1z M104,92h1v1h-1z M4,93h1v1h-1z M5,93h1v1h-1z M6,93h1v1h-1z M7,93h1v1h-1z M8,93h1v1h-1z M9,93h1v1h-1z M12,93h1v1h-1z M13,93h1v1h-1z M15,93h1v1h-1z M18,93h1v1h-1z M21,93h1v1h-1z M25,93h1v1h-1z M28,93h1v1h-1z M30,93h1v1h-1z M35,93h1v1h-1z M37,93h1v1h-1z M40,93h1v1h-1z M41,93h1v1h-1z M43,93h1v1h-1z M48,93h1v1h-1z M49,93h1v1h-1z M50,93h1v1h-1z M54,93h1v1h-1z M56,93h1v1h-1z M57,93h1v1h-1z M59,93h1v1h-1z M63,93h1v1h-1z M64,93h1v1h-1z M66,93h1v1h-1z M72,93h1v1h-1z M74,93h1v1h-1z M78,93h1v1h-1z M80,93h1v1h-1z M81,93h1v1h-1z M83,93h1v1h-1z M90,93h1v1h-1z M94,93h1v1h-1z M96,93h1v1h-1z M97,93h1v1h-1z M98,93h1v1h-1z M102,93h1v1h-1z M103,93h1v1h-1z M105,93h1v1h-1z M107,93h1v1h-1z M6,94h1v1h-1z M7,94h1v1h-1z M8,94h1v1h-1z M10,94h1v1h-1z M12,94h1v1h-1z M14,94h1v1h-1z M19,94h1v1h-1z M21,94h1v1h-1z M25,94h1v1h-1z M26,94h1v1h-1z M27,94h1v1h-1z M29,94h1v1h-1z M32,94h1v1h-1z M36,94h1v1h-1z M38,94h1v1h-1z M40,94h1v1h-1z M43,94h1v1h-1z M45,94h1v1h-1z M47,94h1v1h-1z M48,94h1v1h-1z M49,94h1v1h-1z M50,94h1v1h-1z M51,94h1v1h-1z M56,94h1v1h-1z M57,94h1v1h-1z M62,94h1v1h-1z M65,94h1v1h-1z M67,94h1v1h-1z M71,94h1v1h-1z M72,94h1v1h-1z M74,94h1v1h-1z M78,94h1v1h-1z M80,94h1v1h-1z M81,94h1v1h-1z M83,94h1v1h-1z M86,94h1v1h-1z M88,94h1v1h-1z M96,94h1v1h-1z M98,94h1v1h-1z M100,94h1v1h-1z M101,94h1v1h-1z M103,94h1v1h-1z M104,94h1v1h-1z M106,94h1v1h-1z M107,94h1v1h-1z M6,95h1v1h-1z M7,95h1v1h-1z M8,95h1v1h-1z M12,95h1v1h-1z M13,95h1v1h-1z M14,95h1v1h-1z M18,95h1v1h-1z M19,95h1v1h-1z M20,95h1v1h-1z M22,95h1v1h-1z M23,95h1v1h-1z M24,95h1v1h-1z M26,95h1v1h-1z M28,95h1v1h-1z M29,95h1v1h-1z M30,95h1v1h-1z M33,95h1v1h-1z M34,95h1v1h-1z M35,95h1v1h-1z M37,95h1v1h-1z M38,95h1v1h-1z M39,95h1v1h-1z M41,95h1v1h-1z M42,95h1v1h-1z M44,95h1v1h-1z M45,95h1v1h-1z M46,95h1v1h-1z M47,95h1v1h-1z M54,95h1v1h-1z M57,95h1v1h-1z M58,95h1v1h-1z M59,95h1v1h-1z M68,95h1v1h-1z M69,95h1v1h-1z M70,95h1v1h-1z M71,95h1v1h-1z M77,95h1v1h-1z M79,95h1v1h-1z M82,95h1v1h-1z M83,95h1v1h-1z M87,95h1v1h-1z M89,95h1v1h-1z M90,95h1v1h-1z M91,95h1v1h-1z M92,95h1v1h-1z M95,95h1v1h-1z M97,95h1v1h-1z M100,95h1v1h-1z M101,95h1v1h-1z M102,95h1v1h-1z M103,95h1v1h-1z M104,95h1v1h-1z M105,95h1v1h-1z M107,95h1v1h-1z M4,96h1v1h-1z M5,96h1v1h-1z M6,96h1v1h-1z M10,96h1v1h-1z M11,96h1v1h-1z M13,96h1v1h-1z M14,96h1v1h-1z M15,96h1v1h-1z M17,96h1v1h-1z M18,96h1v1h-1z M19,96h1v1h-1z M20,96h1v1h-1z M21,96h1v1h-1z M22,96h1v1h-1z M23,96h1v1h-1z M24,96h1v1h-1z M26,96h1v1h-1z M27,96h1v1h-1z M28,96h1v1h-1z M31,96h1v1h-1z M35,96h1v1h-1z M39,96h1v1h-1z M40,96h1v1h-1z M41,96h1v1h-1z M42,96h1v1h-1z M44,96h1v1h-1z M46,96h1v1h-1z M47,96h1v1h-1z M51,96h1v1h-1z M54,96h1v1h-1z M56,96h1v1h-1z M57,96h1v1h-1z M58,96h1v1h-1z M59,96h1v1h-1z M60,96h1v1h-1z M61,96h1v1h-1z M63,96h1v1h-1z M64,96h1v1h-1z M65,96h1v1h-1z M66,96h1v1h-1z M70,96h1v1h-1z M71,96h1v1h-1z M72,96h1v1h-1z M74,96h1v1h-1z M75,96h1v1h-1z M76,96h1v1h-1z M80,96h1v1h-1z M82,96h1v1h-1z M83,96h1v1h-1z M85,96h1v1h-1z M88,96h1v1h-1z M89,96h1v1h-1z M90,96h1v1h-1z M91,96h1v1h-1z M92,96h1v1h-1z M94,96h1v1h-1z M100,96h1v1h-1z M101,96h1v1h-1z M103,96h1v1h-1z M104,96h1v1h-1z M105,96h1v1h-1z M108,96h1v1h-1z M4,97h1v1h-1z M5,97h1v1h-1z M8,97h1v1h-1z M11,97h1v1h-1z M12,97h1v1h-1z M15,97h1v1h-1z M16,97h1v1h-1z M17,97h1v1h-1z M18,97h1v1h-1z M19,97h1v1h-1z M20,97h1v1h-1z M22,97h1v1h-1z M24,97h1v1h-1z M25,97h1v1h-1z M26,97h1v1h-1z M30,97h1v1h-1z M31,97h1v1h-1z M32,97h1v1h-1z M35,97h1v1h-1z M36,97h1v1h-1z M38,97h1v1h-1z M39,97h1v1h-1z M40,97h1v1h-1z M41,97h1v1h-1z M43,97h1v1h-1z M47,97h1v1h-1z M48,97h1v1h-1z M49,97h1v1h-1z M52,97h1v1h-1z M54,97h1v1h-1z M55,97h1v1h-1z M58,97h1v1h-1z M60,97h1v1h-1z M62,97h1v1h-1z M64,97h1v1h-1z M66,97h1v1h-1z M68,97h1v1h-1z M69,97h1v1h-1z M71,97h1v1h-1z M73,97h1v1h-1z M76,97h1v1h-1z M78,97h1v1h-1z M79,97h1v1h-1z M80,97h1v1h-1z M84,97h1v1h-1z M85,97h1v1h-1z M86,97h1v1h-1z M88,97h1v1h-1z M89,97h1v1h-1z M91,97h1v1h-1z M93,97h1v1h-1z M94,97h1v1h-1z M97,97h1v1h-1z M98,97h1v1h-1z M99,97h1v1h-1z M101,97h1v1h-1z M103,97h1v1h-1z M106,97h1v1h-1z M4,98h1v1h-1z M5,98h1v1h-1z M6,98h1v1h-1z M10,98h1v1h-1z M11,98h1v1h-1z M12,98h1v1h-1z M15,98h1v1h-1z M17,98h1v1h-1z M19,98h1v1h-1z M23,98h1v1h-1z M26,98h1v1h-1z M27,98h1v1h-1z M28,98h1v1h-1z M30,98h1v1h-1z M31,98h1v1h-1z M32,98h1v1h-1z M35,98h1v1h-1z M36,98h1v1h-1z M37,98h1v1h-1z M38,98h1v1h-1z M39,98h1v1h-1z M40,98h1v1h-1z M41,98h1v1h-1z M43,98h1v1h-1z M48,98h1v1h-1z M50,98h1v1h-1z M51,98h1v1h-1z M53,98h1v1h-1z M54,98h1v1h-1z M56,98h1v1h-1z M60,98h1v1h-1z M62,98h1v1h-1z M64,98h1v1h-1z M65,98h1v1h-1z M71,98h1v1h-1z M73,98h1v1h-1z M74,98h1v1h-1z M75,98h1v1h-1z M76,98h1v1h-1z M77,98h1v1h-1z M78,98h1v1h-1z M79,98h1v1h-1z M80,98h1v1h-1z M83,98h1v1h-1z M84,98h1v1h-1z M86,98h1v1h-1z M88,98h1v1h-1z M89,98h1v1h-1z M91,98h1v1h-1z M92,98h1v1h-1z M95,98h1v1h-1z M96,98h1v1h-1z M98,98h1v1h-1z M99,98h1v1h-1z M100,98h1v1h-1z M101,98h1v1h-1z M103,98h1v1h-1z M104,98h1v1h-1z M106,98h1v1h-1z M6,99h1v1h-1z M8,99h1v1h-1z M9,99h1v1h-1z M12,99h1v1h-1z M13,99h1v1h-1z M15,99h1v1h-1z M16,99h1v1h-1z M18,99h1v1h-1z M19,99h1v1h-1z M21,99h1v1h-1z M22,99h1v1h-1z M23,99h1v1h-1z M24,99h1v1h-1z M27,99h1v1h-1z M28,99h1v1h-1z M29,99h1v1h-1z M31,99h1v1h-1z M34,99h1v1h-1z M37,99h1v1h-1z M42,99h1v1h-1z M43,99h1v1h-1z M44,99h1v1h-1z M45,99h1v1h-1z M46,99h1v1h-1z M47,99h1v1h-1z M49,99h1v1h-1z M52,99h1v1h-1z M55,99h1v1h-1z M56,99h1v1h-1z M57,99h1v1h-1z M59,99h1v1h-1z M63,99h1v1h-1z M65,99h1v1h-1z M66,99h1v1h-1z M67,99h1v1h-1z M68,99h1v1h-1z M71,99h1v1h-1z M73,99h1v1h-1z M75,99h1v1h-1z M77,99h1v1h-1z M83,99h1v1h-1z M85,99h1v1h-1z M92,99h1v1h-1z M93,99h1v1h-1z M102,99h1v1h-1z M103,99h1v1h-1z M105,99h1v1h-1z M107,99h1v1h-1z M108,99h1v1h-1z M7,100h1v1h-1z M8,100h1v1h-1z M10,100h1v1h-1z M12,100h1v1h-1z M14,100h1v1h-1z M16,100h1v1h-1z M19,100h1v1h-1z M20,100h1v1h-1z M21,100h1v1h-1z M23,100h1v1h-1z M24,100h1v1h-1z M25,100h1v1h-1z M28,100h1v1h-1z M29,100h1v1h-1z M30,100h1v1h-1z M31,100h1v1h-1z M32,100h1v1h-1z M34,100h1v1h-1z M38,100h1v1h-1z M40,100h1v1h-1z M41,100h1v1h-1z M43,100h1v1h-1z M46,100h1v1h-1z M47,100h1v1h-1z M48,100h1v1h-1z M49,100h1v1h-1z M50,100h1v1h-1z M52,100h1v1h-1z M53,100h1v1h-1z M54,100h1v1h-1z M55,100h1v1h-1z M56,100h1v1h-1z M59,100h1v1h-1z M60,100h1v1h-1z M62,100h1v1h-1z M65,100h1v1h-1z M68,100h1v1h-1z M71,100h1v1h-1z M74,100h1v1h-1z M76,100h1v1h-1z M77,100h1v1h-1z M78,100h1v1h-1z M79,100h1v1h-1z M80,100h1v1h-1z M82,100h1v1h-1z M87,100h1v1h-1z M88,100h1v1h-1z M89,100h1v1h-1z M90,100h1v1h-1z M91,100h1v1h-1z M92,100h1v1h-1z M94,100h1v1h-1z M100,100h1v1h-1z M101,100h1v1h-1z M102,100h1v1h-1z M103,100h1v1h-1z M104,100h1v1h-1z M105,100h1v1h-1z M107,100h1v1h-1z M108,100h1v1h-1z M12,101h1v1h-1z M13,101h1v1h-1z M15,101h1v1h-1z M18,101h1v1h-1z M20,101h1v1h-1z M22,101h1v1h-1z M23,101h1v1h-1z M25,101h1v1h-1z M27,101h1v1h-1z M28,101h1v1h-1z M32,101h1v1h-1z M37,101h1v1h-1z M39,101h1v1h-1z M40,101h1v1h-1z M41,101h1v1h-1z M42,101h1v1h-1z M44,101h1v1h-1z M45,101h1v1h-1z M46,101h1v1h-1z M49,101h1v1h-1z M50,101h1v1h-1z M51,101h1v1h-1z M52,101h1v1h-1z M56,101h1v1h-1z M59,101h1v1h-1z M64,101h1v1h-1z M65,101h1v1h-1z M67,101h1v1h-1z M69,101h1v1h-1z M71,101h1v1h-1z M72,101h1v1h-1z M74,101h1v1h-1z M75,101h1v1h-1z M76,101h1v1h-1z M80,101h1v1h-1z M81,101h1v1h-1z M82,101h1v1h-1z M86,101h1v1h-1z M87,101h1v1h-1z M88,101h1v1h-1z M90,101h1v1h-1z M91,101h1v1h-1z M94,101h1v1h-1z M96,101h1v1h-1z M97,101h1v1h-1z M98,101h1v1h-1z M99,101h1v1h-1z M100,101h1v1h-1z M104,101h1v1h-1z M105,101h1v1h-1z M106,101h1v1h-1z M4,102h1v1h-1z M5,102h1v1h-1z M6,102h1v1h-1z M7,102h1v1h-1z M8,102h1v1h-1z M9,102h1v1h-1z M10,102h1v1h-1z M13,102h1v1h-1z M18,102h1v1h-1z M19,102h1v1h-1z M21,102h1v1h-1z M22,102h1v1h-1z M23,102h1v1h-1z M27,102h1v1h-1z M28,102h1v1h-1z M30,102h1v1h-1z M32,102h1v1h-1z M33,102h1v1h-1z M38,102h1v1h-1z M40,102h1v1h-1z M41,102h1v1h-1z M43,102h1v1h-1z M44,102h1v1h-1z M45,102h1v1h-1z M50,102h1v1h-1z M51,102h1v1h-1z M52,102h1v1h-1z M54,102h1v1h-1z M56,102h1v1h-1z M62,102h1v1h-1z M63,102h1v1h-1z M64,102h1v1h-1z M65,102h1v1h-1z M68,102h1v1h-1z M69,102h1v1h-1z M71,102h1v1h-1z M74,102h1v1h-1z M75,102h1v1h-1z M76,102h1v1h-1z M78,102h1v1h-1z M80,102h1v1h-1z M86,102h1v1h-1z M87,102h1v1h-1z M89,102h1v1h-1z M96,102h1v1h-1z M98,102h1v1h-1z M100,102h1v1h-1z M102,102h1v1h-1z M104,102h1v1h-1z M105,102h1v1h-1z M4,103h1v1h-1z M10,103h1v1h-1z M12,103h1v1h-1z M13,103h1v1h-1z M16,103h1v1h-1z M17,103h1v1h-1z M18,103h1v1h-1z M22,103h1v1h-1z M23,103h1v1h-1z M24,103h1v1h-1z M26,103h1v1h-1z M28,103h1v1h-1z M32,103h1v1h-1z M34,103h1v1h-1z M35,103h1v1h-1z M37,103h1v1h-1z M38,103h1v1h-1z M39,103h1v1h-1z M44,103h1v1h-1z M46,103h1v1h-1z M47,103h1v1h-1z M49,103h1v1h-1z M50,103h1v1h-1z M52,103h1v1h-1z M56,103h1v1h-1z M57,103h1v1h-1z M59,103h1v1h-1z M61,103h1v1h-1z M62,103h1v1h-1z M68,103h1v1h-1z M70,103h1v1h-1z M71,103h1v1h-1z M75,103h1v1h-1z M76,103h1v1h-1z M80,103h1v1h-1z M81,103h1v1h-1z M82,103h1v1h-1z M83,103h1v1h-1z M90,103h1v1h-1z M91,103h1v1h-1z M92,103h1v1h-1z M93,103h1v1h-1z M95,103h1v1h-1z M100,103h1v1h-1z M104,103h1v1h-1z M105,103h1v1h-1z M4,104h1v1h-1z M6,104h1v1h-1z M7,104h1v1h-1z M8,104h1v1h-1z M10,104h1v1h-1z M12,104h1v1h-1z M13,104h1v1h-1z M14,104h1v1h-1z M15,104h1v1h-1z M16,104h1v1h-1z M17,104h1v1h-1z M18,104h1v1h-1z M20,104h1v1h-1z M24,104h1v1h-1z M25,104h1v1h-1z M26,104h1v1h-1z M27,104h1v1h-1z M28,104h1v1h-1z M29,104h1v1h-1z M30,104h1v1h-1z M31,104h1v1h-1z M32,104h1v1h-1z M34,104h1v1h-1z M38,104h1v1h-1z M40,104h1v1h-1z M41,104h1v1h-1z M42,104h1v1h-1z M48,104h1v1h-1z M52,104h1v1h-1z M53,104h1v1h-1z M54,104h1v1h-1z M55,104h1v1h-1z M56,104h1v1h-1z M57,104h1v1h-1z M58,104h1v1h-1z M62,104h1v1h-1z M63,104h1v1h-1z M64,104h1v1h-1z M65,104h1v1h-1z M67,104h1v1h-1z M68,104h1v1h-1z M69,104h1v1h-1z M70,104h1v1h-1z M71,104h1v1h-1z M73,104h1v1h-1z M74,104h1v1h-1z M75,104h1v1h-1z M76,104h1v1h-1z M77,104h1v1h-1z M78,104h1v1h-1z M79,104h1v1h-1z M80,104h1v1h-1z M82,104h1v1h-1z M84,104h1v1h-1z M89,104h1v1h-1z M91,104h1v1h-1z M92,104h1v1h-1z M93,104h1v1h-1z M96,104h1v1h-1z M100,104h1v1h-1z M101,104h1v1h-1z M102,104h1v1h-1z M103,104h1v1h-1z M104,104h1v1h-1z M107,104h1v1h-1z M4,105h1v1h-1z M6,105h1v1h-1z M7,105h1v1h-1z M8,105h1v1h-1z M10,105h1v1h-1z M17,105h1v1h-1z M20,105h1v1h-1z M23,105h1v1h-1z M24,105h1v1h-1z M26,105h1v1h-1z M27,105h1v1h-1z M28,105h1v1h-1z M31,105h1v1h-1z M32,105h1v1h-1z M36,105h1v1h-1z M39,105h1v1h-1z M40,105h1v1h-1z M41,105h1v1h-1z M42,105h1v1h-1z M44,105h1v1h-1z M47,105h1v1h-1z M50,105h1v1h-1z M53,105h1v1h-1z M56,105h1v1h-1z M59,105h1v1h-1z M65,105h1v1h-1z M67,105h1v1h-1z M68,105h1v1h-1z M69,105h1v1h-1z M73,105h1v1h-1z M74,105h1v1h-1z M75,105h1v1h-1z M76,105h1v1h-1z M77,105h1v1h-1z M78,105h1v1h-1z M79,105h1v1h-1z M81,105h1v1h-1z M82,105h1v1h-1z M83,105h1v1h-1z M85,105h1v1h-1z M86,105h1v1h-1z M91,105h1v1h-1z M92,105h1v1h-1z M94,105h1v1h-1z M95,105h1v1h-1z M100,105h1v1h-1z M102,105h1v1h-1z M103,105h1v1h-1z M107,105h1v1h-1z M108,105h1v1h-1z M4,106h1v1h-1z M6,106h1v1h-1z M7,106h1v1h-1z M8,106h1v1h-1z M10,106h1v1h-1z M15,106h1v1h-1z M18,106h1v1h-1z M19,106h1v1h-1z M23,106h1v1h-1z M24,106h1v1h-1z M27,106h1v1h-1z M29,106h1v1h-1z M31,106h1v1h-1z M36,106h1v1h-1z M38,106h1v1h-1z M39,106h1v1h-1z M40,106h1v1h-1z M41,106h1v1h-1z M50,106h1v1h-1z M52,106h1v1h-1z M53,106h1v1h-1z M55,106h1v1h-1z M56,106h1v1h-1z M59,106h1v1h-1z M60,106h1v1h-1z M62,106h1v1h-1z M64,106h1v1h-1z M65,106h1v1h-1z M67,106h1v1h-1z M73,106h1v1h-1z M74,106h1v1h-1z M76,106h1v1h-1z M77,106h1v1h-1z M80,106h1v1h-1z M86,106h1v1h-1z M87,106h1v1h-1z M89,106h1v1h-1z M91,106h1v1h-1z M92,106h1v1h-1z M96,106h1v1h-1z M98,106h1v1h-1z M104,106h1v1h-1z M105,106h1v1h-1z M106,106h1v1h-1z M4,107h1v1h-1z M10,107h1v1h-1z M12,107h1v1h-1z M13,107h1v1h-1z M15,107h1v1h-1z M16,107h1v1h-1z M18,107h1v1h-1z M19,107h1v1h-1z M22,107h1v1h-1z M23,107h1v1h-1z M26,107h1v1h-1z M30,107h1v1h-1z M32,107h1v1h-1z M34,107h1v1h-1z M35,107h1v1h-1z M38,107h1v1h-1z M44,107h1v1h-1z M47,107h1v1h-1z M49,107h1v1h-1z M51,107h1v1h-1z M56,107h1v1h-1z M58,107h1v1h-1z M59,107h1v1h-1z M62,107h1v1h-1z M65,107h1v1h-1z M68,107h1v1h-1z M69,107h1v1h-1z M70,107h1v1h-1z M71,107h1v1h-1z M78,107h1v1h-1z M80,107h1v1h-1z M81,107h1v1h-1z M83,107h1v1h-1z M85,107h1v1h-1z M92,107h1v1h-1z M95,107h1v1h-1z M97,107h1v1h-1z M98,107h1v1h-1z M99,107h1v1h-1z M101,107h1v1h-1z M103,107h1v1h-1z M104,107h1v1h-1z M4,108h1v1h-1z M5,108h1v1h-1z M6,108h1v1h-1z M7,108h1v1h-1z M8,108h1v1h-1z M9,108h1v1h-1z M10,108h1v1h-1z M12,108h1v1h-1z M15,108h1v1h-1z M16,108h1v1h-1z M18,108h1v1h-1z M19,108h1v1h-1z M20,108h1v1h-1z M22,108h1v1h-1z M23,108h1v1h-1z M24,108h1v1h-1z M28,108h1v1h-1z M29,108h1v1h-1z M34,108h1v1h-1z M35,108h1v1h-1z M37,108h1v1h-1z M38,108h1v1h-1z M39,108h1v1h-1z M40,108h1v1h-1z M41,108h1v1h-1z M42,108h1v1h-1z M43,108h1v1h-1z M47,108h1v1h-1z M51,108h1v1h-1z M52,108h1v1h-1z M53,108h1v1h-1z M54,108h1v1h-1z M55,108h1v1h-1z M58,108h1v1h-1z M59,108h1v1h-1z M60,108h1v1h-1z M62,108h1v1h-1z M63,108h1v1h-1z M67,108h1v1h-1z M68,108h1v1h-1z M69,108h1v1h-1z M70,108h1v1h-1z M71,108h1v1h-1z M74,108h1v1h-1z M76,108h1v1h-1z M78,108h1v1h-1z M80,108h1v1h-1z M82,108h1v1h-1z M85,108h1v1h-1z M90,108h1v1h-1z M91,108h1v1h-1z M92,108h1v1h-1z M95,108h1v1h-1z M99,108h1v1h-1z M100,108h1v1h-1z M101,108h1v1h-1z M103,108h1v1h-1z M108,108h1v1h-1z" fill="#000000"/>
</svg>
