<?xml version="1.0" encoding="UTF-8"?>
<!DOCTYPE svg PUBLIC "-//W3C//DTD SVG 1.1//EN" "http://www.w3.org/Graphics/SVG/1.1/DTD/svg11.dtd">
<svg xmlns="http://www.w3.org/2000/svg" version="1.1" viewBox="0 0 113 113" stroke="none">
	<rect width="100%" height="100%" fill="#FFFFFF"/>
	<path d="M4,4h1v1h-1z M5,4h1v1h-1z M6,4h1v1h-1z M7,4h1v1h-1z M8,4h1v1h-1z M9,4h1v1h-1z M10,4h1v1h-1z M12,4h1v1h-1z M13,4h1v1h-1z M14,4h1v1h-1z M17,4h1v1h-1z M18,4h1v1h-1z M19,4h1v1h-1z M20,4h1v1h-1z M22,4h1v1h-1z M24,4h1v1h-1z M27,4h1v1h-1z M31,4h1v1h-1z M37,4h1v1h-1z M38,4h1v1h-1z M40,4h1v1h-1z M43,4h1v1h-1z M47,4h1v1h-1z M48,4h1v1h-1z M51,4h1v1h-1z M53,4h1v1h-1z M56,4h1v1h-1z M57,4h1v1h-1z M58,4h1v1h-1z M60,4h1v1h-1z M61,4h1v1h-1z M64,4h1v1h-1z M65,4h1v1h-1z M66,4h1v1h-1z M69,4h1v1h-1z M70,4h1v1h-1z M72,4h1v1h-1z M73,4h1v1h-1z M74,4h1v1h-1z M75,4h1v1h-1z M77,4h1v1h-1z M78,4h1v1h-1z M79,4h1v1h-1z M80,4h1v1h-1z M81,4h1v1h-1z M84,4h1v1h-1z M90,4h1v1h-1z M92,4h1v1h-1z M93,4h1v1h-1z M94,4h1v1h-1z M95,4h1v1h-1z M97,4h1v1h-1z M98,4h1v1h-1z M102,4h1v1h-1z M103,4h1v1h-1z M104,4h1v1h-1z M105,4h1v1h-1z M106,4h1v1h-1z M107,4h1v1h-1z M108,4h1v1h-1z M4,5h1v1h-1z M10,5h1v1h-1z M12,5h1v1h-1z M14,5h1v1h-1z M15,5h1v1h-1z M16,5h1v1h-1z M18,5h1v1h-1z M22,5h1v1h-1z M24,5h1v1h-1z M27,5h1v1h-1z M30,5h1v1h-1z M31,5h1v1h-1z M33,5h1v1h-1z M34,5h1v1h-1z M37,5h1v1h-1z M39,5h1v1h-1z M41,5h1v1h-1z M42,5h1v1h-1z M43,5h1v1h-1z M44,5h1v1h-1z M45,5h1v1h-1z M46,5h1v1h-1z M47,5h1v1h-1z M49,5h1v1h-1z M52,5h1v1h-1z M53,5h1v1h-1z M54,5h1v1h-1z M55,5h1v1h-1z M56,5h1v1h-1z M58,5h1v1h-1z M66,5h1v1h-1z M67,5h1v1h-1z M68,5h1v1h-1z M69,5h1v1h-1z M70,5h1v1h-1z M73,5h1v1h-1z M75,5h1v1h-1z M76,5h1v1h-1z M78,5h1v1h-1z M81,5h1v1h-1z M82,5h1v1h-1z M85,5h1v1h-1z M87,5h1v1h-1z M89,5h1v1h-1z M90,5h1v1h-1z M92,5h1v1h-1z M93,5h1v1h-1z M94,5h1v1h-1z M95,5h1v1h-1z M96,5h1v1h-1z M97,5h1v1h-1z M98,5h1v1h-1z M102,5h1v1h-1z M108,5h1v1h-1z M4,6h1v1h-1z M6,6h1v1h-1z M7,6h1v1h-1z M8,6h1v1h-1z M10,6h1v1h-1z M12,6h1v1h-1z M14,6h1v1h-1z M15,6h1v1h-1z M17,6h1v1h-1z M19,6h1v1h-1z M20,6h1v1h-1z M21,6h1v1h-1z M22,6h1v1h-1z M23,6h1v1h-1z M25,6h1v1h-1z M26,6h1v1h-1z M27,6h1v1h-1z M29,6h1v1h-1z M32,6h1v1h-1z M35,6h1v1h-1z M38,6h1v1h-1z M39,6h1v1h-1z M42,6h1v1h-1z M44,6h1v1h-1z M46,6h1v1h-1z M47,6h1v1h-1z M49,6h1v1h-1z M54,6h1v1h-1z M56,6h1v1h-1z M58,6h1v1h-1z M66,6h1v1h-1z M68,6h1v1h-1z M69,6h1v1h-1z M73,6h1v1h-1z M80,6h1v1h-1z M85,6h1v1h-1z M87,6h1v1h-1z M90,6h1v1h-1z M92,6h1v1h-1z M93,6h1v1h-1z M94,6h1v1h-1z M95,6h1v1h-1z M97,6h1v1h-1z M98,6h1v1h-1z M99,6h1v1h-1z M102,6h1v1h-1z M104,6h1v1h-1z M105,6h1v1h-1z M106,6h1v1h-1z M108,6h1v1h-1z M4,7h1v1h-1z M6,7h1v1h-1z M7,7h1v1h-1z M8,7h1v1h-1z M10,7h1v1h-1z M12,7h1v1h-1z M16,7h1v1h-1z M18,7h1v1h-1z M19,7h1v1h-1z M20,7h1v1h-1z M22,7h1v1h-1z M23,7h1v1h-1z M24,7h1v1h-1z M28,7h1v1h-1z M32,7h1v1h-1z M33,7h1v1h-1z M35,7h1v1h-1z M36,7h1v1h-1z M38,7h1v1h-1z M40,7h1v1h-1z M41,7h1v1h-1z M42,7h1v1h-1z M44,7h1v1h-1z M45,7h1v1h-1z M46,7h1v1h-1z M47,7h1v1h-1z M48,7h1v1h-1z M49,7h1v1h-1z M51,7h1v1h-1z M52,7h1v1h-1z M54,7h1v1h-1z M55,7h1v1h-1z M56,7h1v1h-1z M62,7h1v1h-1z M63,7h1v1h-1z M64,7h1v1h-1z M68,7h1v1h-1z M69,7h1v1h-1z M70,7h1v1h-1z M73,7h1v1h-1z M76,7h1v1h-1z M78,7h1v1h-1z M79,7h1v1h-1z M80,7h1v1h-1z M84,7h1v1h-1z M86,7h1v1h-1z M88,7h1v1h-1z M89,7h1v1h-1z M91,7h1v1h-1z M93,7h1v1h-1z M94,7h1v1h-1z M95,7h1v1h-1z M96,7h1v1h-1z M100,7h1v1h-1z M102,7h1v1h-1z M104,7h1v1h-1z M105,7h1v1h-1z M106,7h1v1h-1z M108,7h1v1h-1z M4,8h1v1h-1z M6,8h1v1h-1z M7,8h1v1h-1z M8,8h1v1h-1z M10,8h1v1h-1z M16,8h1v1h-1z M17,8h1v1h-1z M18,8h1v1h-1z M21,8h1v1h-1z M22,8h1v1h-1z M24,8h1v1h-1z M25,8h1v1h-1z M26,8h1v1h-1z M28,8h1v1h-1z M29,8h1v1h-1z M30,8h1v1h-1z M31,8h1v1h-1z M32,8h1v1h-1z M33,8h1v1h-1z M36,8h1v1h-1z M38,8h1v1h-1z M39,8h1v1h-1z M40,8h1v1h-1z M44,8h1v1h-1z M45,8h1v1h-1z M46,8h1v1h-1z M47,8h1v1h-1z M48,8h1v1h-1z M52,8h1v1h-1z M53,8h1v1h-1z M54,8h1v1h-1z M55,8h1v1h-1z M56,8h1v1h-1z M57,8h1v1h-1z M60,8h1v1h-1z M61,8h1v1h-1z M62,8h1v1h-1z M64,8h1v1h-1z M65,8h1v1h-1z M67,8h1v1h-1z M69,8h1v1h-1z M73,8h1v1h-1z M76,8h1v1h-1z M77,8h1v1h-1z M78,8h1v1h-1z M79,8h1v1h-1z M80,8h1v1h-1z M81,8h1v1h-1z M83,8h1v1h-1z M84,8h1v1h-1z M85,8h1v1h-1z M87,8h1v1h-1z M88,8h1v1h-1z M93,8h1v1h-1z M94,8h1v1h-1z M96,8h1v1h-1z M99,8h1v1h-1z M100,8h1v1h-1z M102,8h1v1h-1z M104,8h1v1h-1z M105,8h1v1h-1z M106,8h1v1h-1z M108,8h1v1h-1z M4,9h1v1h-1z M10,9h1v1h-1z M12,9h1v1h-1z M16,9h1v1h-1z M17,9h1v1h-1z M22,9h1v1h-1z M23,9h1v1h-1z M24,9h1v1h-1z M25,9h1v1h-1z M27,9h1v1h-1z M28,9h1v1h-1z M32,9h1v1h-1z M34,9h1v1h-1z M37,9h1v1h-1z M42,9h1v1h-1z M43,9h1v1h-1z M44,9h1v1h-1z M45,9h1v1h-1z M46,9h1v1h-1z M49,9h1v1h-1z M51,9h1v1h-1z M52,9h1v1h-1z M56,9h1v1h-1z M58,9h1v1h-1z M59,9h1v1h-1z M60,9h1v1h-1z M64,9h1v1h-1z M66,9h1v1h-1z M67,9h1v1h-1z M68,9h1v1h-1z M69,9h1v1h-1z M70,9h1v1h-1z M71,9h1v1h-1z M72,9h1v1h-1z M76,9h1v1h-1z M80,9h1v1h-1z M81,9h1v1h-1z M82,9h1v1h-1z M85,9h1v1h-1z M88,9h1v1h-1z M90,9h1v1h-1z M93,9h1v1h-1z M94,9h1v1h-1z M96,9h1v1h-1z M97,9h1v1h-1z M99,9h1v1h-1z M102,9h1v1h-1z M108,9h1v1h-1z M4,10h1v1h-1z M5,10h1v1h-1z M6,10h1v1h-1z M7,10h1v1h-1z M8,10h1v1h-1z M9,10h1v1h-1z M10,10h1v1h-1z M12,10h1v1h-1z M14,10h1v1h-1z M16,10h1v1h-1z M18,10h1v1h-1z M20,10h1v1h-1z M22,10h1v1h-1z M24,10h1v1h-1z M26,10h1v1h-1z M28,10h1v1h-1z M30,10h1v1h-1z M32,10h1v1h-1z M34,10h1v1h-1z M36,10h1v1h-1z M38,10h1v1h-1z M40,10h1v1h-1z M42,10h1v1h-1z M44,10h1v1h-1z M46,10h1v1h-1z M48,10h1v1h-1z M50,10h1v1h-1z M52,10h1v1h-1z M54,10h1v1h-1z M56,10h1v1h-1z M58,10h1v1h-1z M60,10h1v1h-1z M62,10h1v1h-1z M64,10h1v1h-1z M66,10h1v1h-1z M68,10h1v1h-1z M70,10h1v1h-1z M72,10h1v1h-1z M74,10h1v1h-1z M76,10h1v1h-1z M78,10h1v1h-1z M80,10h1v1h-1z M82,10h1v1h-1z M84,10h1v1h-1z M86,10h1v1h-1z M88,10h1v1h-1z M90,10h1v1h-1z M92,10h1v1h-1z M94,10h1v1h-1z M96,10h1v1h-1z M98,10h1v1h-1z M100,10h1v1h-1z M102,10h1v1h-1z M103,10h1v1h-1z M104,10h1v1h-1z M105,10h1v1h-1z M106,10h1v1h-1z M107,10h1v1h-1z M108,10h1v1h-1z M16,11h1v1h-1z M17,11h1v1h-1z M18,11h1v1h-1z M21,11h1v1h-1z M22,11h1v1h-1z M23,11h1v1h-1z M24,11h1v1h-1z M25,11h1v1h-1z M28,11h1v1h-1z M32,11h1v1h-1z M33,11h1v1h-1z M34,11h1v1h-1z M35,11h1v1h-1z M38,11h1v1h-1z M44,11h1v1h-1z M45,11h1v1h-1z M49,11h1v1h-1z M50,11h1v1h-1z M52,11h1v1h-1z M56,11h1v1h-1z M58,11h1v1h-1z M59,11h1v1h-1z M66,11h1v1h-1z M68,11h1v1h-1z M70,11h1v1h-1z M71,11h1v1h-1z M76,11h1v1h-1z M80,11h1v1h-1z M81,11h1v1h-1z M83,11h1v1h-1z M86,11h1v1h-1z M89,11h1v1h-1z M90,11h1v1h-1z M92,11h1v1h-1z M94,11h1v1h-1z M95,11h1v1h-1z M97,11h1v1h-1z M98,11h1v1h-1z M100,11h1v1h-1z M4,12h1v1h-1z M5,12h1v1h-1z M8,12h1v1h-1z M9,12h1v1h-1z M10,12h1v1h-1z M13,12h1v1h-1z M14,12h1v1h-1z M15,12h1v1h-1z M17,12h1v1h-1z M19,12h1v1h-1z M20,12h1v1h-1z M22,12h1v1h-1z M25,12h1v1h-1z M27,12h1v1h-1z M28,12h1v1h-1z M29,12h1v1h-1z M30,12h1v1h-1z M31,12h1v1h-1z M32,12h1v1h-1z M34,12h1v1h-1z M35,12h1v1h-1z M36,12h1v1h-1z M37,12h1v1h-1z M39,12h1v1h-1z M42,12h1v1h-1z M43,12h1v1h-1z M44,12h1v1h-1z M49,12h1v1h-1z M50,12h1v1h-1z M52,12h1v1h-1z M53,12h1v1h-1z M54,12h1v1h-1z M55,12h1v1h-1z M56,12h1v1h-1z M57,12h1v1h-1z M58,12h1v1h-1z M62,12h1v1h-1z M63,12h1v1h-1z M65,12h1v1h-1z M67,12h1v1h-1z M68,12h1v1h-1z M69,12h1v1h-1z M70,12h1v1h-1z M72,12h1v1h-1z M73,12h1v1h-1z M76,12h1v1h-1z M77,12h1v1h-1z M78,12h1v1h-1z M79,12h1v1h-1z M80,12h1v1h-1z M82,12h1v1h-1z M85,12h1v1h-1z M87,12h1v1h-1z M90,12h1v1h-1z M93,12h1v1h-1z M94,12h1v1h-1z M95,12h1v1h-1z M96,12h1v1h-1z M100,12h1v1h-1z M103,12h1v1h-1z M105,12h1v1h-1z M106,12h1v1h-1z M107,12h1v1h-1z M108,12h1v1h-1z M6,13h1v1h-1z M9,13h1v1h-1z M11,13h1v1h-1z M12,13h1v1h-1z M15,13h1v1h-1z M16,13h1v1h-1z M17,13h1v1h-1z M18,13h1v1h-1z M19,13h1v1h-1z M20,13h1v1h-1z M22,13h1v1h-1z M23,13h1v1h-1z M25,13h1v1h-1z M26,13h1v1h-1z M27,13h1v1h-1z M28,13h1v1h-1z M32,13h1v1h-1z M33,13h1v1h-1z M34,13h1v1h-1z M39,13h1v1h-1z M40,13h1v1h-1z M43,13h1v1h-1z M44,13h1v1h-1z M46,13h1v1h-1z M50,13h1v1h-1z M51,13h1v1h-1z M52,13h1v1h-1z M54,13h1v1h-1z M55,13h1v1h-1z M57,13h1v1h-1z M58,13h1v1h-1z M59,13h1v1h-1z M61,13h1v1h-1z M62,13h1v1h-1z M64,13h1v1h-1z M65,13h1v1h-1z M66,13h1v1h-1z M70,13h1v1h-1z M71,13h1v1h-1z M72,13h1v1h-1z M74,13h1v1h-1z M75,13h1v1h-1z M76,13h1v1h-1z M78,13h1v1h-1z M80,13h1v1h-1z M81,13h1v1h-1z M83,13h1v1h-1z M86,13h1v1h-1z M87,13h1v1h-1z M89,13h1v1h-1z M90,13h1v1h-1z M91,13h1v1h-1z M93,13h1v1h-1z M94,13h1v1h-1z M96,13h1v1h-1z M97,13h1v1h-1z M101,13h1v1h-1z M102,13h1v1h-1z M103,13h1v1h-1z M104,13h1v1h-1z M106,13h1v1h-1z M5,14h1v1h-1z M6,14h1v1h-1z M10,14h1v1h-1z M11,14h1v1h-1z M12,14h1v1h-1z M13,14h1v1h-1z M19,14h1v1h-1z M20,14h1v1h-1z M21,14h1v1h-1z M22,14h1v1h-1z M23,14h1v1h-1z M26,14h1v1h-1z M28,14h1v1h-1z M29,14h1v1h-1z M33,14h1v1h-1z M35,14h1v1h-1z M36,14h1v1h-1z M38,14h1v1h-1z M39,14h1v1h-1z M41,14h1v1h-1z M44,14h1v1h-1z M45,14h1v1h-1z M47,14h1v1h-1z M48,14h1v1h-1z M50,14h1v1h-1z M52,14h1v1h-1z M53,14h1v1h-1z M62,14h1v1h-1z M65,14h1v1h-1z M72,14h1v1h-1z M74,14h1v1h-1z M76,14h1v1h-1z M77,14h1v1h-1z M79,14h1v1h-1z M83,14h1v1h-1z M86,14h1v1h-1z M88,14h1v1h-1z M89,14h1v1h-1z M95,14h1v1h-1z M98,14h1v1h-1z M99,14h1v1h-1z M100,14h1v1h-1z M101,14h1v1h-1z M102,14h1v1h-1z M104,14h1v1h-1z M105,14h1v1h-1z M106,14h1v1h-1z M6,15h1v1h-1z M7,15h1v1h-1z M9,15h1v1h-1z M16,15h1v1h-1z M18,15h1v1h-1z M19,15h1v1h-1z M20,15h1v1h-1z M21,15h1v1h-1z M23,15h1v1h-1z M25,15h1v1h-1z M26,15h1v1h-1z M27,15h1v1h-1z M28,15h1v1h-1z M32,15h1v1h-1z M34,15h1v1h-1z M35,15h1v1h-1z M37,15h1v1h-1z M44,15h1v1h-1z M45,15h1v1h-1z M46,15h1v1h-1z M49,15h1v1h-1z M53,15h1v1h-1z M56,15h1v1h-1z M58,15h1v1h-1z M59,15h1v1h-1z M66,15h1v1h-1z M67,15h1v1h-1z M68,15h1v1h-1z M69,15h1v1h-1z M71,15h1v1h-1z M73,15h1v1h-1z M75,15h1v1h-1z M76,15h1v1h-1z M78,15h1v1h-1z M80,15h1v1h-1z M83,15h1v1h-1z M85,15h1v1h-1z M87,15h1v1h-1z M91,15h1v1h-1z M92,15h1v1h-1z M94,15h1v1h-1z M95,15h1v1h-1z M97,15h1v1h-1z M98,15h1v1h-1z M99,15h1v1h-1z M100,15h1v1h-1z M5,16h1v1h-1z M6,16h1v1h-1z M9,16h1v1h-1z M10,16h1v1h-1z M11,16h1v1h-1z M12,16h1v1h-1z M13,16h1v1h-1z M14,16h1v1h-1z M15,16h1v1h-1z M16,16h1v1h-1z M17,16h1v1h-1z M19,16h1v1h-1z M21,16h1v1h-1z M24,16h1v1h-1z M28,16h1v1h-1z M29,16h1v1h-1z M30,16h1v1h-1z M31,16h1v1h-1z M36,16h1v1h-1z M38,16h1v1h-1z M43,16h1v1h-1z M45,16h1v1h-1z M46,16h1v1h-1z M48,16h1v1h-1z M51,16h1v1h-1z M53,16h1v1h-1z M55,16h1v1h-1z M56,16h1v1h-1z M57,16h1v1h-1z M60,16h1v1h-1z M62,16h1v1h-1z M64,16h1v1h-1z M65,16h1v1h-1z M66,16h1v1h-1z M68,16h1v1h-1z M69,16h1v1h-1z M77,16h1v1h-1z M80,16h1v1h-1z M81,16h1v1h-1z M82,16h1v1h-1z M83,16h1v1h-1z M84,16h1v1h-1z M85,16h1v1h-1z M87,16h1v1h-1z M89,16h1v1h-1z M90,16h1v1h-1z M92,16h1v1h-1z M93,16h1v1h-1z M94,16h1v1h-1z M96,16h1v1h-1z M99,16h1v1h-1z M100,16h1v1h-1z M103,16h1v1h-1z M104,16h1v1h-1z M106,16h1v1h-1z M107,16h1v1h-1z M108,16h1v1h-1z M4,17h1v1h-1z M8,17h1v1h-1z M13,17h1v1h-1z M14,17h1v1h-1z M18,17h1v1h-1z M27,17h1v1h-1z M28,17h1v1h-1z M30,17h1v1h-1z M34,17h1v1h-1z M36,17h1v1h-1z M39,17h1v1h-1z M40,17h1v1h-1z M45,17h1v1h-1z M46,17h1v1h-1z M47,17h1v1h-1z M48,17h1v1h-1z M50,17h1v1h-1z M52,17h1v1h-1z M56,17h1v1h-1z M57,17h1v1h-1z M60,17h1v1h-1z M61,17h1v1h-1z M63,17h1v1h-1z M64,17h1v1h-1z M67,17h1v1h-1z M70,17h1v1h-1z M71,17h1v1h-1z M72,17h1v1h-1z M73,17h1v1h-1z M76,17h1v1h-1z M77,17h1v1h-1z M79,17h1v1h-1z M85,17h1v1h-1z M86,17h1v1h-1z M87,17h1v1h-1z M88,17h1v1h-1z M89,17h1v1h-1z M94,17h1v1h-1z M95,17h1v1h-1z M96,17h1v1h-1z M98,17h1v1h-1z M100,17h1v1h-1z M101,17h1v1h-1z M105,17h1v1h-1z M106,17h1v1h-1z M107,17h1v1h-1z M108,17h1v1h-1z M4,18h1v1h-1z M5,18h1v1h-1z M7,18h1v1h-1z M8,18h1v1h-1z M9,18h1v1h-1z M10,18h1v1h-1z M11,18h1v1h-1z M12,18h1v1h-1z M13,18h1v1h-1z M14,18h1v1h-1z M15,18h1v1h-1z M17,18h1v1h-1z M18,18h1v1h-1z M20,18h1v1h-1z M21,18h1v1h-1z M22,18h1v1h-1z M25,18h1v1h-1z M26,18h1v1h-1z M28,18h1v1h-1z M29,18h1v1h-1z M31,18h1v1h-1z M32,18h1v1h-1z M36,18h1v1h-1z M38,18h1v1h-1z M39,18h1v1h-1z M40,18h1v1h-1z M41,18h1v1h-1z M44,18h1v1h-1z M50,18h1v1h-1z M53,18h1v1h-1z M56,18h1v1h-1z M57,18h1v1h-1z M59,18h1v1h-1z M60,18h1v1h-1z M61,18h1v1h-1z M62,18h1v1h-1z M64,18h1v1h-1z M65,18h1v1h-1z M68,18h1v1h-1z M72,18h1v1h-1z M74,18h1v1h-1z M75,18h1v1h-1z M76,18h1v1h-1z M77,18h1v1h-1z M80,18h1v1h-1z M83,18h1v1h-1z M84,18h1v1h-1z M85,18h1v1h-1z M86,18h1v1h-1z M89,18h1v1h-1z M93,18h1v1h-1z M95,18h1v1h-1z M96,18h1v1h-1z M98,18h1v1h-1z M104,18h1v1h-1z M105,18h1v1h-1z M106,18h1v1h-1z M107,18h1v1h-1z M5,19h1v1h-1z M6,19h1v1h-1z M7,19h1v1h-1z M12,19h1v1h-1z M13,19h1v1h-1z M15,19h1v1h-1z M17,19h1v1h-1z M22,19h1v1h-1z M23,19h1v1h-1z M27,19h1v1h-1z M28,19h1v1h-1z M29,19h1v1h-1z M30,19h1v1h-1z M32,19h1v1h-1z M35,19h1v1h-1z M37,19h1v1h-1z M38,19h1v1h-1z M41,19h1v1h-1z M42,19h1v1h-1z M44,19h1v1h-1z M45,19h1v1h-1z M46,19h1v1h-1z M47,19h1v1h-1z M49,19h1v1h-1z M51,19h1v1h-1z M56,19h1v1h-1z M58,19h1v1h-1z M59,19h1v1h-1z M61,19h1v1h-1z M63,19h1v1h-1z M65,19h1v1h-1z M68,19h1v1h-1z M69,19h1v1h-1z M74,19h1v1h-1z M75,19h1v1h-1z M76,19h1v1h-1z M80,19h1v1h-1z M81,19h1v1h-1z M82,19h1v1h-1z M89,19h1v1h-1z M90,19h1v1h-1z M92,19h1v1h-1z M94,19h1v1h-1z M97,19h1v1h-1z M99,19h1v1h-1z M100,19h1v1h-1z M101,19h1v1h-1z M103,19h1v1h-1z M104,19h1v1h-1z M105,19h1v1h-1z M107,19h1v1h-1z M4,20h1v1h-1z M5,20h1v1h-1z M9,20h1v1h-1z M10,20h1v1h-1z M11,20h1v1h-1z M12,20h1v1h-1z M13,20h1v1h-1z M14,20h1v1h-1z M15,20h1v1h-1z M16,20h1v1h-1z M17,20h1v1h-1z M19,20h1v1h-1z M20,20h1v1h-1z M21,20h1v1h-1z M24,20h1v1h-1z M25,20h1v1h-1z M26,20h1v1h-1z M27,20h1v1h-1z M28,20h1v1h-1z M30,20h1v1h-1z M31,20h1v1h-1z M32,20h1v1h-1z M33,20h1v1h-1z M34,20h1v1h-1z M35,20h1v1h-1z M39,20h1v1h-1z M40,20h1v1h-1z M41,20h1v1h-1z M43,20h1v1h-1z M44,20h1v1h-1z M45,20h1v1h-1z M46,20h1v1h-1z M47,20h1v1h-1z M50,20h1v1h-1z M51,20h1v1h-1z M52,20h1v1h-1z M58,20h1v1h-1z M59,20h1v1h-1z M63,20h1v1h-1z M65,20h1v1h-1z M66,20h1v1h-1z M67,20h1v1h-1z M72,20h1v1h-1z M73,20h1v1h-1z M76,20h1v1h-1z M78,20h1v1h-1z M80,20h1v1h-1z M81,20h1v1h-1z M82,20h1v1h-1z M83,20h1v1h-1z M84,20h1v1h-1z M86,20h1v1h-1z M89,20h1v1h-1z M100,20h1v1h-1z M102,20h1v1h-1z M104,20h1v1h-1z M105,20h1v1h-1z M108,20h1v1h-1z M4,21h1v1h-1z M8,21h1v1h-1z M9,21h1v1h-1z M12,21h1v1h-1z M16,21h1v1h-1z M17,21h1v1h-1z M19,21h1v1h-1z M21,21h1v1h-1z M23,21h1v1h-1z M27,21h1v1h-1z M28,21h1v1h-1z M29,21h1v1h-1z M32,21h1v1h-1z M33,21h1v1h-1z M36,21h1v1h-1z M37,21h1v1h-1z M39,21h1v1h-1z M40,21h1v1h-1z M41,21h1v1h-1z M42,21h1v1h-1z M48,21h1v1h-1z M50,21h1v1h-1z M51,21h1v1h-1z M52,21h1v1h-1z M55,21h1v1h-1z M58,21h1v1h-1z M60,21h1v1h-1z M61,21h1v1h-1z M62,21h1v1h-1z M65,21h1v1h-1z M70,21h1v1h-1z M71,21h1v1h-1z M72,21h1v1h-1z M74,21h1v1h-1z M75,21h1v1h-1z M76,21h1v1h-1z M77,21h1v1h-1z M78,21h1v1h-1z M79,21h1v1h-1z M81,21h1v1h-1z M83,21h1v1h-1z M86,21h1v1h-1z M87,21h1v1h-1z M88,21h1v1h-1z M91,21h1v1h-1z M93,21h1v1h-1z M95,21h1v1h-1z M96,21h1v1h-1z M97,21h1v1h-1z M101,21h1v1h-1z M103,21h1v1h-1z M104,21h1v1h-1z M106,21h1v1h-1z M4,22h1v1h-1z M8,22h1v1h-1z M9,22h1v1h-1z M10,22h1v1h-1z M18,22h1v1h-1z M22,22h1v1h-1z M23,22h1v1h-1z M24,22h1v1h-1z M26,22h1v1h-1z M27,22h1v1h-1z M28,22h1v1h-1z M32,22h1v1h-1z M35,22h1v1h-1z M36,22h1v1h-1z M38,22h1v1h-1z M40,22h1v1h-1z M41,22h1v1h-1z M44,22h1v1h-1z M47,22h1v1h-1z M50,22h1v1h-1z M52,22h1v1h-1z M53,22h1v1h-1z M56,22h1v1h-1z M59,22h1v1h-1z M60,22h1v1h-1z M62,22h1v1h-1z M63,22h1v1h-1z M64,22h1v1h-1z M65,22h1v1h-1z M67,22h1v1h-1z M74,22h1v1h-1z M76,22h1v1h-1z M77,22h1v1h-1z M79,22h1v1h-1z M85,22h1v1h-1z M86,22h1v1h-1z M91,22h1v1h-1z M96,22h1v1h-1z M98,22h1v1h-1z M99,22h1v1h-1z M102,22h1v1h-1z M104,22h1v1h-1z M106,22h1v1h-1z M107,22h1v1h-1z M4,23h1v1h-1z M5,23h1v1h-1z M6,23h1v1h-1z M7,23h1v1h-1z M9,23h1v1h-1z M11,23h1v1h-1z M12,23h1v1h-1z M13,23h1v1h-1z M16,23h1v1h-1z M18,23h1v1h-1z M21,23h1v1h-1z M25,23h1v1h-1z M26,23h1v1h-1z M29,23h1v1h-1z M30,23h1v1h-1z M32,23h1v1h-1z M33,23h1v1h-1z M35,23h1v1h-1z M39,23h1v1h-1z M41,23h1v1h-1z M44,23h1v1h-1z M45,23h1v1h-1z M46,23h1v1h-1z M47,23h1v1h-1z M49,23h1v1h-1z M50,23h1v1h-1z M51,23h1v1h-1z M54,23h1v1h-1z M56,23h1v1h-1z M57,23h1v1h-1z M58,23h1v1h-1z M61,23h1v1h-1z M68,23h1v1h-1z M69,23h1v1h-1z M70,23h1v1h-1z M71,23h1v1h-1z M75,23h1v1h-1z M76,23h1v1h-1z M77,23h1v1h-1z M78,23h1v1h-1z M80,23h1v1h-1z M81,23h1v1h-1z M83,23h1v1h-1z M85,23h1v1h-1z M89,23h1v1h-1z M90,23h1v1h-1z M91,23h1v1h-1z M92,23h1v1h-1z M93,23h1v1h-1z M97,23h1v1h-1z M99,23h1v1h-1z M100,23h1v1h-1z M101,23h1v1h-1z M103,23h1v1h-1z M104,23h1v1h-1z M6,24h1v1h-1z M7,24h1v1h-1z M9,24h1v1h-1z M10,24h1v1h-1z M11,24h1v1h-1z M12,24h1v1h-1z M13,24h1v1h-1z M15,24h1v1h-1z M17,24h1v1h-1z M18,24h1v1h-1z M19,24h1v1h-1z M20,24h1v1h-1z M21,24h1v1h-1z M22,24h1v1h-1z M23,24h1v1h-1z M24,24h1v1h-1z M25,24h1v1h-1z M27,24h1v1h-1z M29,24h1v1h-1z M30,24h1v1h-1z M33,24h1v1h-1z M37,24h1v1h-1z M38,24h1v1h-1z M42,24h1v1h-1z M43,24h1v1h-1z M44,24h1v1h-1z M45,24h1v1h-1z M46,24h1v1h-1z M47,24h1v1h-1z M48,24h1v1h-1z M50,24h1v1h-1z M54,24h1v1h-1z M59,24h1v1h-1z M60,24h1v1h-1z M64,24h1v1h-1z M66,24h1v1h-1z M69,24h1v1h-1z M72,24h1v1h-1z M73,24h1v1h-1z M74,24h1v1h-1z M76,24h1v1h-1z M77,24h1v1h-1z M79,24h1v1h-1z M80,24h1v1h-1z M84,24h1v1h-1z M86,24h1v1h-1z M88,24h1v1h-1z M89,24h1v1h-1z M90,24h1v1h-1z M93,24h1v1h-1z M94,24h1v1h-1z M95,24h1v1h-1z M96,24h1v1h-1z M98,24h1v1h-1z M99,24h1v1h-1z M100,24h1v1h-1z M101,24h1v1h-1z M102,24h1v1h-1z M106,24h1v1h-1z M108,24h1v1h-1z M4,25h1v1h-1z M5,25h1v1h-1z M7,25h1v1h-1z M8,25h1v1h-1z M9,25h1v1h-1z M11,25h1v1h-1z M12,25h1v1h-1z M13,25h1v1h-1z M14,25h1v1h-1z M16,25h1v1h-1z M21,25h1v1h-1z M22,25h1v1h-1z M27,25h1v1h-1z M28,25h1v1h-1z M30,25h1v1h-1z M32,25h1v1h-1z M33,25h1v1h-1z M37,25h1v1h-1z M38,25h1v1h-1z M39,25h1v1h-1z M41,25h1v1h-1z M46,25h1v1h-1z M48,25h1v1h-1z M51,25h1v1h-1z M52,25h1v1h-1z M53,25h1v1h-1z M60,25h1v1h-1z M62,25h1v1h-1z M68,25h1v1h-1z M69,25h1v1h-1z M71,25h1v1h-1z M72,25h1v1h-1z M73,25h1v1h-1z M74,25h1v1h-1z M75,25h1v1h-1z M76,25h1v1h-1z M77,25h1v1h-1z M80,25h1v1h-1z M82,25h1v1h-1z M83,25h1v1h-1z M84,25h1v1h-1z M87,25h1v1h-1z M88,25h1v1h-1z M90,25h1v1h-1z M92,25h1v1h-1z M93,25h1v1h-1z M94,25h1v1h-1z M100,25h1v1h-1z M102,25h1v1h-1z M103,25h1v1h-1z M104,25h1v1h-1z M106,25h1v1h-1z M107,25h1v1h-1z M5,26h1v1h-1z M8,26h1v1h-1z M10,26h1v1h-1z M11,26h1v1h-1z M12,26h1v1h-1z M15,26h1v1h-1z M16,26h1v1h-1z M17,26h1v1h-1z M18,26h1v1h-1z M19,26h1v1h-1z M21,26h1v1h-1z M22,26h1v1h-1z M24,26h1v1h-1z M25,26h1v1h-1z M26,26h1v1h-1z M29,26h1v1h-1z M31,26h1v1h-1z M32,26h1v1h-1z M35,26h1v1h-1z M38,26h1v1h-1z M41,26h1v1h-1z M43,26h1v1h-1z M50,26h1v1h-1z M51,26h1v1h-1z M53,26h1v1h-1z M60,26h1v1h-1z M61,26h1v1h-1z M62,26h1v1h-1z M64,26h1v1h-1z M65,26h1v1h-1z M67,26h1v1h-1z M72,26h1v1h-1z M74,26h1v1h-1z M75,26h1v1h-1z M76,26h1v1h-1z M77,26h1v1h-1z M79,26h1v1h-1z M80,26h1v1h-1z M83,26h1v1h-1z M86,26h1v1h-1z M88,26h1v1h-1z M89,26h1v1h-1z M93,26h1v1h-1z M95,26h1v1h-1z M98,26h1v1h-1z M103,26h1v1h-1z M104,26h1v1h-1z M105,26h1v1h-1z M106,26h1v1h-1z M107,26h1v1h-1z M4,27h1v1h-1z M7,27h1v1h-1z M9,27h1v1h-1z M11,27h1v1h-1z M12,27h1v1h-1z M13,27h1v1h-1z M15,27h1v1h-1z M16,27h1v1h-1z M17,27h1v1h-1z M19,27h1v1h-1z M24,27h1v1h-1z M29,27h1v1h-1z M30,27h1v1h-1z M32,27h1v1h-1z M35,27h1v1h-1z M37,27h1v1h-1z M38,27h1v1h-1z M44,27h1v1h-1z M47,27h1v1h-1z M49,27h1v1h-1z M55,27h1v1h-1z M56,27h1v1h-1z M57,27h1v1h-1z M58,27h1v1h-1z M65,27h1v1h-1z M66,27h1v1h-1z M68,27h1v1h-1z M71,27h1v1h-1z M74,27h1v1h-1z M78,27h1v1h-1z M80,27h1v1h-1z M81,27h1v1h-1z M83,27h1v1h-1z M86,27h1v1h-1z M87,27h1v1h-1z M90,27h1v1h-1z M92,27h1v1h-1z M94,27h1v1h-1z M95,27h1v1h-1z M98,27h1v1h-1z M100,27h1v1h-1z M101,27h1v1h-1z M103,27h1v1h-1z M108,27h1v1h-1z M5,28h1v1h-1z M6,28h1v1h-1z M7,28h1v1h-1z M8,28h1v1h-1z M9,28h1v1h-1z M10,28h1v1h-1z M11,28h1v1h-1z M12,28h1v1h-1z M15,28h1v1h-1z M16,28h1v1h-1z M19,28h1v1h-1z M20,28h1v1h-1z M21,28h1v1h-1z M23,28h1v1h-1z M24,28h1v1h-1z M26,28h1v1h-1z M28,28h1v1h-1z M29,28h1v1h-1z M30,28h1v1h-1z M31,28h1v1h-1z M32,28h1v1h-1z M35,28h1v1h-1z M37,28h1v1h-1z M38,28h1v1h-1z M40,28h1v1h-1z M42,28h1v1h-1z M43,28h1v1h-1z M45,28h1v1h-1z M46,28h1v1h-1z M48,28h1v1h-1z M51,28h1v1h-1z M52,28h1v1h-1z M53,28h1v1h-1z M54,28h1v1h-1z M55,28h1v1h-1z M56,28h1v1h-1z M59,28h1v1h-1z M61,28h1v1h-1z M63,28h1v1h-1z M65,28h1v1h-1z M67,28h1v1h-1z M69,28h1v1h-1z M70,28h1v1h-1z M71,28h1v1h-1z M72,28h1v1h-1z M73,28h1v1h-1z M74,28h1v1h-1z M75,28h1v1h-1z M76,28h1v1h-1z M77,28h1v1h-1z M78,28h1v1h-1z M79,28h1v1h-1z M80,28h1v1h-1z M81,28h1v1h-1z M82,28h1v1h-1z M83,28h1v1h-1z M84,28h1v1h-1z M86,28h1v1h-1z M87,28h1v1h-1z M88,28h1v1h-1z M90,28h1v1h-1z M91,28h1v1h-1z M99,28h1v1h-1z M100,28h1v1h-1z M101,28h1v1h-1z M102,28h1v1h-1z M103,28h1v1h-1z M104,28h1v1h-1z M106,28h1v1h-1z M107,28h1v1h-1z M108,28h1v1h-1z M4,29h1v1h-1z M7,29h1v1h-1z M8,29h1v1h-1z M12,29h1v1h-1z M13,29h1v1h-1z M16,29h1v1h-1z M18,29h1v1h-1z M19,29h1v1h-1z M22,29h1v1h-1z M27,29h1v1h-1z M28,29h1v1h-1z M32,29h1v1h-1z M34,29h1v1h-1z M36,29h1v1h-1z M37,29h1v1h-1z M38,29h1v1h-1z M41,29h1v1h-1z M43,29h1v1h-1z M47,29h1v1h-1z M49,29h1v1h-1z M52,29h1v1h-1z M56,29h1v1h-1z M59,29h1v1h-1z M60,29h1v1h-1z M62,29h1v1h-1z M64,29h1v1h-1z M65,29h1v1h-1z M66,29h1v1h-1z M71,29h1v1h-1z M72,29h1v1h-1z M73,29h1v1h-1z M74,29h1v1h-1z M75,29h1v1h-1z M76,29h1v1h-1z M80,29h1v1h-1z M81,29h1v1h-1z M82,29h1v1h-1z M89,29h1v1h-1z M90,29h1v1h-1z M92,29h1v1h-1z M94,29h1v1h-1z M96,29h1v1h-1z M98,29h1v1h-1z M100,29h1v1h-1z M104,29h1v1h-1z M105,29h1v1h-1z M106,29h1v1h-1z M108,29h1v1h-1z M8,30h1v1h-1z M10,30h1v1h-1z M12,30h1v1h-1z M17,30h1v1h-1z M18,30h1v1h-1z M20,30h1v1h-1z M21,30h1v1h-1z M23,30h1v1h-1z M24,30h1v1h-1z M26,30h1v1h-1z M28,30h1v1h-1z M30,30h1v1h-1z M32,30h1v1h-1z M35,30h1v1h-1z M36,30h1v1h-1z M38,30h1v1h-1z M40,30h1v1h-1z M41,30h1v1h-1z M44,30h1v1h-1z M47,30h1v1h-1z M49,30h1v1h-1z M50,30h1v1h-1z M52,30h1v1h-1z M54,30h1v1h-1z M56,30h1v1h-1z M59,30h1v1h-1z M60,30h1v1h-1z M61,30h1v1h-1z M62,30h1v1h-1z M63,30h1v1h-1z M64,30h1v1h-1z M65,30h1v1h-1z M68,30h1v1h-1z M71,30h1v1h-1z M72,30h1v1h-1z M74,30h1v1h-1z M75,30h1v1h-1z M76,30h1v1h-1z M78,30h1v1h-1z M80,30h1v1h-1z M86,30h1v1h-1z M87,30h1v1h-1z M89,30h1v1h-1z M95,30h1v1h-1z M96,30h1v1h-1z M98,30h1v1h-1z M100,30h1v1h-1z M102,30h1v1h-1z M104,30h1v1h-1z M107,30h1v1h-1z M4,31h1v1h-1z M5,31h1v1h-1z M6,31h1v1h-1z M8,31h1v1h-1z M12,31h1v1h-1z M13,31h1v1h-1z M15,31h1v1h-1z M18,31h1v1h-1z M19,31h1v1h-1z M20,31h1v1h-1z M26,31h1v1h-1z M27,31h1v1h-1z M28,31h1v1h-1z M32,31h1v1h-1z M35,31h1v1h-1z M42,31h1v1h-1z M44,31h1v1h-1z M46,31h1v1h-1z M47,31h1v1h-1z M51,31h1v1h-1z M52,31h1v1h-1z M56,31h1v1h-1z M59,31h1v1h-1z M63,31h1v1h-1z M68,31h1v1h-1z M70,31h1v1h-1z M73,31h1v1h-1z M74,31h1v1h-1z M75,31h1v1h-1z M76,31h1v1h-1z M80,31h1v1h-1z M81,31h1v1h-1z M82,31h1v1h-1z M83,31h1v1h-1z M85,31h1v1h-1z M86,31h1v1h-1z M90,31h1v1h-1z M91,31h1v1h-1z M92,31h1v1h-1z M93,31h1v1h-1z M94,31h1v1h-1z M95,31h1v1h-1z M98,31h1v1h-1z M99,31h1v1h-1z M100,31h1v1h-1z M104,31h1v1h-1z M108,31h1v1h-1z M4,32h1v1h-1z M5,32h1v1h-1z M7,32h1v1h-1z M8,32h1v1h-1z M9,32h1v1h-1z M10,32h1v1h-1z M11,32h1v1h-1z M12,32h1v1h-1z M14,32h1v1h-1z M15,32h1v1h-1z M16,32h1v1h-1z M17,32h1v1h-1z M18,32h1v1h-1z M19,32h1v1h-1z M20,32h1v1h-1z M21,32h1v1h-1z M22,32h1v1h-1z M23,32h1v1h-1z M24,32h1v1h-1z M25,32h1v1h-1z M26,32h1v1h-1z M27,32h1v1h-1z M28,32h1v1h-1z M29,32h1v1h-1z M30,32h1v1h-1z M31,32h1v1h-1z M32,32h1v1h-1z M33,32h1v1h-1z M34,32h1v1h-1z M35,32h1v1h-1z M36,32h1v1h-1z M40,32h1v1h-1z M42,32h1v1h-1z M46,32h1v1h-1z M47,32h1v1h-1z M49,32h1v1h-1z M52,32h1v1h-1z M53,32h1v1h-1z M54,32h1v1h-1z M55,32h1v1h-1z M56,32h1v1h-1z M57,32h1v1h-1z M58,32h1v1h-1z M59,32h1v1h-1z M62,32h1v1h-1z M64,32h1v1h-1z M66,32h1v1h-1z M67,32h1v1h-1z M69,32h1v1h-1z M70,32h1v1h-1z M72,32h1v1h-1z M73,32h1v1h-1z M75,32h1v1h-1z M76,32h1v1h-1z M77,32h1v1h-1z M78,32h1v1h-1z M79,32h1v1h-1z M80,32h1v1h-1z M81,32h1v1h-1z M82,32h1v1h-1z M83,32h1v1h-1z M84,32h1v1h-1z M85,32h1v1h-1z M88,32h1v1h-1z M92,32h1v1h-1z M97,32h1v1h-1z M98,32h1v1h-1z M99,32h1v1h-1z M100,32h1v1h-1z M101,32h1v1h-1z M102,32h1v1h-1z M103,32h1v1h-1z M104,32h1v1h-1z M107,32h1v1h-1z M108,32h1v1h-1z M7,33h1v1h-1z M9,33h1v1h-1z M11,33h1v1h-1z M13,33h1v1h-1z M14,33h1v1h-1z M15,33h1v1h-1z M17,33h1v1h-1z M18,33h1v1h-1z M20,33h1v1h-1z M21,33h1v1h-1z M23,33h1v1h-1z M24,33h1v1h-1z M26,33h1v1h-1z M28,33h1v1h-1z M30,33h1v1h-1z M31,33h1v1h-1z M34,33h1v1h-1z M36,33h1v1h-1z M37,33h1v1h-1z M39,33h1v1h-1z M40,33h1v1h-1z M41,33h1v1h-1z M42,33h1v1h-1z M43,33h1v1h-1z M45,33h1v1h-1z M48,33h1v1h-1z M49,33h1v1h-1z M52,33h1v1h-1z M54,33h1v1h-1z M55,33h1v1h-1z M60,33h1v1h-1z M61,33h1v1h-1z M63,33h1v1h-1z M64,33h1v1h-1z M65,33h1v1h-1z M67,33h1v1h-1z M72,33h1v1h-1z M74,33h1v1h-1z M77,33h1v1h-1z M78,33h1v1h-1z M79,33h1v1h-1z M81,33h1v1h-1z M82,33h1v1h-1z M83,33h1v1h-1z M84,33h1v1h-1z M85,33h1v1h-1z M89,33h1v1h-1z M90,33h1v1h-1z M94,33h1v1h-1z M95,33h1v1h-1z M97,33h1v1h-1z M98,33h1v1h-1z M101,33h1v1h-1z M9,34h1v1h-1z M10,34h1v1h-1z M13,34h1v1h-1z M14,34h1v1h-1z M16,34h1v1h-1z M17,34h1v1h-1z M23,34h1v1h-1z M24,34h1v1h-1z M28,34h1v1h-1z M30,34h1v1h-1z M32,34h1v1h-1z M38,34h1v1h-1z M39,34h1v1h-1z M43,34h1v1h-1z M45,34h1v1h-1z M48,34h1v1h-1z M49,34h1v1h-1z M50,34h1v1h-1z M53,34h1v1h-1z M55,34h1v1h-1z M56,34h1v1h-1z M59,34h1v1h-1z M62,34h1v1h-1z M67,34h1v1h-1z M68,34h1v1h-1z M69,34h1v1h-1z M74,34h1v1h-1z M78,34h1v1h-1z M84,34h1v1h-1z M86,34h1v1h-1z M89,34h1v1h-1z M96,34h1v1h-1z M98,34h1v1h-1z M101,34h1v1h-1z M103,34h1v1h-1z M104,34h1v1h-1z M105,34h1v1h-1z M106,34h1v1h-1z M5,35h1v1h-1z M6,35h1v1h-1z M9,35h1v1h-1z M11,35h1v1h-1z M16,35h1v1h-1z M17,35h1v1h-1z M19,35h1v1h-1z M22,35h1v1h-1z M23,35h1v1h-1z M25,35h1v1h-1z M26,35h1v1h-1z M28,35h1v1h-1z M29,35h1v1h-1z M32,35h1v1h-1z M33,35h1v1h-1z M35,35h1v1h-1z M37,35h1v1h-1z M38,35h1v1h-1z M41,35h1v1h-1z M42,35h1v1h-1z M44,35h1v1h-1z M46,35h1v1h-1z M47,35h1v1h-1z M51,35h1v1h-1z M52,35h1v1h-1z M53,35h1v1h-1z M55,35h1v1h-1z M56,35h1v1h-1z M57,35h1v1h-1z M58,35h1v1h-1z M59,35h1v1h-1z M65,35h1v1h-1z M66,35h1v1h-1z M68,35h1v1h-1z M70,35h1v1h-1z M71,35h1v1h-1z M73,35h1v1h-1z M74,35h1v1h-1z M76,35h1v1h-1z M77,35h1v1h-1z M82,35h1v1h-1z M83,35h1v1h-1z M85,35h1v1h-1z M91,35h1v1h-1z M92,35h1v1h-1z M94,35h1v1h-1z M95,35h1v1h-1z M98,35h1v1h-1z M99,35h1v1h-1z M102,35h1v1h-1z M104,35h1v1h-1z M108,35h1v1h-1z M4,36h1v1h-1z M5,36h1v1h-1z M10,36h1v1h-1z M13,36h1v1h-1z M14,36h1v1h-1z M15,36h1v1h-1z M17,36h1v1h-1z M19,36h1v1h-1z M24,36h1v1h-1z M25,36h1v1h-1z M26,36h1v1h-1z M31,36h1v1h-1z M34,36h1v1h-1z M40,36h1v1h-1z M41,36h1v1h-1z M42,36h1v1h-1z M44,36h1v1h-1z M47,36h1v1h-1z M49,36h1v1h-1z M50,36h1v1h-1z M52,36h1v1h-1z M53,36h1v1h-1z M55,36h1v1h-1z M58,36h1v1h-1z M60,36h1v1h-1z M62,36h1v1h-1z M65,36h1v1h-1z M66,36h1v1h-1z M69,36h1v1h-1z M70,36h1v1h-1z M72,36h1v1h-1z M73,36h1v1h-1z M81,36h1v1h-1z M82,36h1v1h-1z M83,36h1v1h-1z M84,36h1v1h-1z M87,36h1v1h-1z M89,36h1v1h-1z M91,36h1v1h-1z M94,36h1v1h-1z M95,36h1v1h-1z M96,36h1v1h-1z M98,36h1v1h-1z M101,36h1v1h-1z M102,36h1v1h-1z M107,36h1v1h-1z M5,37h1v1h-1z M6,37h1v1h-1z M7,37h1v1h-1z M8,37h1v1h-1z M14,37h1v1h-1z M15,37h1v1h-1z M17,37h1v1h-1z M19,37h1v1h-1z M20,37h1v1h-1z M21,37h1v1h-1z M22,37h1v1h-1z M24,37h1v1h-1z M27,37h1v1h-1z M28,37h1v1h-1z M29,37h1v1h-1z M31,37h1v1h-1z M32,37h1v1h-1z M34,37h1v1h-1z M35,37h1v1h-1z M36,37h1v1h-1z M37,37h1v1h-1z M38,37h1v1h-1z M41,37h1v1h-1z M45,37h1v1h-1z M46,37h1v1h-1z M47,37h1v1h-1z M48,37h1v1h-1z M51,37h1v1h-1z M53,37h1v1h-1z M54,37h1v1h-1z M55,37h1v1h-1z M57,37h1v1h-1z M58,37h1v1h-1z M59,37h1v1h-1z M60,37h1v1h-1z M65,37h1v1h-1z M68,37h1v1h-1z M69,37h1v1h-1z M72,37h1v1h-1z M74,37h1v1h-1z M75,37h1v1h-1z M76,37h1v1h-1z M77,37h1v1h-1z M79,37h1v1h-1z M80,37h1v1h-1z M81,37h1v1h-1z M82,37h1v1h-1z M83,37h1v1h-1z M84,37h1v1h-1z M85,37h1v1h-1z M86,37h1v1h-1z M88,37h1v1h-1z M90,37h1v1h-1z M91,37h1v1h-1z M96,37h1v1h-1z M97,37h1v1h-1z M99,37h1v1h-1z M103,37h1v1h-1z M104,37h1v1h-1z M106,37h1v1h-1z M107,37h1v1h-1z M5,38h1v1h-1z M6,38h1v1h-1z M9,38h1v1h-1z M10,38h1v1h-1z M11,38h1v1h-1z M13,38h1v1h-1z M15,38h1v1h-1z M16,38h1v1h-1z M19,38h1v1h-1z M20,38h1v1h-1z M21,38h1v1h-1z M22,38h1v1h-1z M27,38h1v1h-1z M31,38h1v1h-1z M32,38h1v1h-1z M33,38h1v1h-1z M36,38h1v1h-1z M38,38h1v1h-1z M40,38h1v1h-1z M41,38h1v1h-1z M43,38h1v1h-1z M47,38h1v1h-1z M49,38h1v1h-1z M50,38h1v1h-1z M52,38h1v1h-1z M54,38h1v1h-1z M55,38h1v1h-1z M56,38h1v1h-1z M60,38h1v1h-1z M61,38h1v1h-1z M62,38h1v1h-1z M69,38h1v1h-1z M72,38h1v1h-1z M74,38h1v1h-1z M76,38h1v1h-1z M79,38h1v1h-1z M80,38h1v1h-1z M81,38h1v1h-1z M84,38h1v1h-1z M86,38h1v1h-1z M88,38h1v1h-1z M89,38h1v1h-1z M92,38h1v1h-1z M95,38h1v1h-1z M96,38h1v1h-1z M98,38h1v1h-1z M100,38h1v1h-1z M101,38h1v1h-1z M104,38h1v1h-1z M105,38h1v1h-1z M106,38h1v1h-1z M107,38h1v1h-1z M4,39h1v1h-1z M5,39h1v1h-1z M6,39h1v1h-1z M7,39h1v1h-1z M9,39h1v1h-1z M11,39h1v1h-1z M12,39h1v1h-1z M18,39h1v1h-1z M20,39h1v1h-1z M21,39h1v1h-1z M26,39h1v1h-1z M28,39h1v1h-1z M31,39h1v1h-1z M32,39h1v1h-1z M34,39h1v1h-1z M35,39h1v1h-1z M41,39h1v1h-1z M42,39h1v1h-1z M44,39h1v1h-1z M46,39h1v1h-1z M47,39h1v1h-1z M52,39h1v1h-1z M53,39h1v1h-1z M55,39h1v1h-1z M56,39h1v1h-1z M57,39h1v1h-1z M59,39h1v1h-1z M65,39h1v1h-1z M66,39h1v1h-1z M68,39h1v1h-1z M69,39h1v1h-1z M70,39h1v1h-1z M71,39h1v1h-1z M75,39h1v1h-1z M76,39h1v1h-1z M77,39h1v1h-1z M79,39h1v1h-1z M80,39h1v1h-1z M82,39h1v1h-1z M83,39h1v1h-1z M86,39h1v1h-1z M89,39h1v1h-1z M90,39h1v1h-1z M92,39h1v1h-1z M93,39h1v1h-1z M99,39h1v1h-1z M100,39h1v1h-1z M104,39h1v1h-1z M105,39h1v1h-1z M107,39h1v1h-1z M108,39h1v1h-1z M4,40h1v1h-1z M8,40h1v1h-1z M10,40h1v1h-1z M15,40h1v1h-1z M16,40h1v1h-1z M17,40h1v1h-1z M19,40h1v1h-1z M22,40h1v1h-1z M23,40h1v1h-1z M29,40h1v1h-1z M31,40h1v1h-1z M33,40h1v1h-1z M34,40h1v1h-1z M36,40h1v1h-1z M38,40h1v1h-1z M40,40h1v1h-1z M41,40h1v1h-1z M43,40h1v1h-1z M44,40h1v1h-1z M46,40h1v1h-1z M48,40h1v1h-1z M53,40h1v1h-1z M55,40h1v1h-1z M57,40h1v1h-1z M58,40h1v1h-1z M64,40h1v1h-1z M67,40h1v1h-1z M69,40h1v1h-1z M70,40h1v1h-1z M71,40h1v1h-1z M78,40h1v1h-1z M79,40h1v1h-1z M81,40h1v1h-1z M82,40h1v1h-1z M84,40h1v1h-1z M86,40h1v1h-1z M89,40h1v1h-1z M91,40h1v1h-1z M93,40h1v1h-1z M94,40h1v1h-1z M95,40h1v1h-1z M98,40h1v1h-1z M99,40h1v1h-1z M101,40h1v1h-1z M102,40h1v1h-1z M105,40h1v1h-1z M108,40h1v1h-1z M4,41h1v1h-1z M5,41h1v1h-1z M6,41h1v1h-1z M8,41h1v1h-1z M9,41h1v1h-1z M13,41h1v1h-1z M14,41h1v1h-1z M15,41h1v1h-1z M16,41h1v1h-1z M19,41h1v1h-1z M20,41h1v1h-1z M27,41h1v1h-1z M28,41h1v1h-1z M29,41h1v1h-1z M30,41h1v1h-1z M31,41h1v1h-1z M32,41h1v1h-1z M34,41h1v1h-1z M35,41h1v1h-1z M39,41h1v1h-1z M40,41h1v1h-1z M43,41h1v1h-1z M45,41h1v1h-1z M49,41h1v1h-1z M50,41h1v1h-1z M53,41h1v1h-1z M55,41h1v1h-1z M56,41h1v1h-1z M59,41h1v1h-1z M60,41h1v1h-1z M61,41h1v1h-1z M67,41h1v1h-1z M71,41h1v1h-1z M73,41h1v1h-1z M76,41h1v1h-1z M81,41h1v1h-1z M82,41h1v1h-1z M84,41h1v1h-1z M86,41h1v1h-1z M88,41h1v1h-1z M92,41h1v1h-1z M93,41h1v1h-1z M96,41h1v1h-1z M97,41h1v1h-1z M99,41h1v1h-1z M104,41h1v1h-1z M108,41h1v1h-1z M5,42h1v1h-1z M6,42h1v1h-1z M7,42h1v1h-1z M8,42h1v1h-1z M9,42h1v1h-1z M10,42h1v1h-1z M11,42h1v1h-1z M12,42h1v1h-1z M13,42h1v1h-1z M14,42h1v1h-1z M17,42h1v1h-1z M24,42h1v1h-1z M25,42h1v1h-1z M26,42h1v1h-1z M29,42h1v1h-1z M30,42h1v1h-1z M32,42h1v1h-1z M35,42h1v1h-1z M36,42h1v1h-1z M38,42h1v1h-1z M39,42h1v1h-1z M43,42h1v1h-1z M50,42h1v1h-1z M54,42h1v1h-1z M55,42h1v1h-1z M57,42h1v1h-1z M59,42h1v1h-1z M60,42h1v1h-1z M62,42h1v1h-1z M63,42h1v1h-1z M65,42h1v1h-1z M72,42h1v1h-1z M74,42h1v1h-1z M83,42h1v1h-1z M84,42h1v1h-1z M86,42h1v1h-1z M88,42h1v1h-1z M89,42h1v1h-1z M95,42h1v1h-1z M96,42h1v1h-1z M98,42h1v1h-1z M99,42h1v1h-1z M100,42h1v1h-1z M102,42h1v1h-1z M103,42h1v1h-1z M106,42h1v1h-1z M107,42h1v1h-1z M4,43h1v1h-1z M5,43h1v1h-1z M6,43h1v1h-1z M13,43h1v1h-1z M14,43h1v1h-1z M17,43h1v1h-1z M19,43h1v1h-1z M20,43h1v1h-1z M22,43h1v1h-1z M29,43h1v1h-1z M31,43h1v1h-1z M33,43h1v1h-1z M34,43h1v1h-1z M35,43h1v1h-1z M37,43h1v1h-1z M41,43h1v1h-1z M42,43h1v1h-1z M44,43h1v1h-1z M45,43h1v1h-1z M46,43h1v1h-1z M47,43h1v1h-1z M49,43h1v1h-1z M51,43h1v1h-1z M52,43h1v1h-1z M53,43h1v1h-1z M55,43h1v1h-1z M58,43h1v1h-1z M68,43h1v1h-1z M69,43h1v1h-1z M71,43h1v1h-1z M74,43h1v1h-1z M81,43h1v1h-1z M82,43h1v1h-1z M86,43h1v1h-1z M87,43h1v1h-1z M92,43h1v1h-1z M93,43h1v1h-1z M94,43h1v1h-1z M95,43h1v1h-1z M98,43h1v1h-1z M99,43h1v1h-1z M100,43h1v1h-1z M101,43h1v1h-1z M104,43h1v1h-1z M9,44h1v1h-1z M10,44h1v1h-1z M11,44h1v1h-1z M17,44h1v1h-1z M18,44h1v1h-1z M20,44h1v1h-1z M22,44h1v1h-1z M23,44h1v1h-1z M25,44h1v1h-1z M26,44h1v1h-1z M31,44h1v1h-1z M35,44h1v1h-1z M36,44h1v1h-1z M38,44h1v1h-1z M39,44h1v1h-1z M40,44h1v1h-1z M41,44h1v1h-1z M44,44h1v1h-1z M45,44h1v1h-1z M46,44h1v1h-1z M47,44h1v1h-1z M50,44h1v1h-1z M53,44h1v1h-1z M55,44h1v1h-1z M58,44h1v1h-1z M66,44h1v1h-1z M68,44h1v1h-1z M69,44h1v1h-1z M70,44h1v1h-1z M73,44h1v1h-1z M81,44h1v1h-1z M82,44h1v1h-1z M84,44h1v1h-1z M85,44h1v1h-1z M90,44h1v1h-1z M91,44h1v1h-1z M94,44h1v1h-1z M97,44h1v1h-1z M98,44h1v1h-1z M99,44h1v1h-1z M100,44h1v1h-1z M102,44h1v1h-1z M104,44h1v1h-1z M105,44h1v1h-1z M107,44h1v1h-1z M9,45h1v1h-1z M11,45h1v1h-1z M13,45h1v1h-1z M14,45h1v1h-1z M16,45h1v1h-1z M21,45h1v1h-1z M24,45h1v1h-1z M26,45h1v1h-1z M27,45h1v1h-1z M30,45h1v1h-1z M33,45h1v1h-1z M36,45h1v1h-1z M41,45h1v1h-1z M42,45h1v1h-1z M46,45h1v1h-1z M48,45h1v1h-1z M50,45h1v1h-1z M51,45h1v1h-1z M52,45h1v1h-1z M54,45h1v1h-1z M56,45h1v1h-1z M58,45h1v1h-1z M59,45h1v1h-1z M60,45h1v1h-1z M61,45h1v1h-1z M62,45h1v1h-1z M63,45h1v1h-1z M64,45h1v1h-1z M67,45h1v1h-1z M69,45h1v1h-1z M70,45h1v1h-1z M71,45h1v1h-1z M72,45h1v1h-1z M74,45h1v1h-1z M77,45h1v1h-1z M78,45h1v1h-1z M80,45h1v1h-1z M82,45h1v1h-1z M84,45h1v1h-1z M85,45h1v1h-1z M86,45h1v1h-1z M91,45h1v1h-1z M97,45h1v1h-1z M98,45h1v1h-1z M99,45h1v1h-1z M100,45h1v1h-1z M101,45h1v1h-1z M107,45h1v1h-1z M6,46h1v1h-1z M8,46h1v1h-1z M9,46h1v1h-1z M10,46h1v1h-1z M11,46h1v1h-1z M12,46h1v1h-1z M13,46h1v1h-1z M14,46h1v1h-1z M15,46h1v1h-1z M16,46h1v1h-1z M20,46h1v1h-1z M21,46h1v1h-1z M22,46h1v1h-1z M23,46h1v1h-1z M25,46h1v1h-1z M26,46h1v1h-1z M29,46h1v1h-1z M30,46h1v1h-1z M31,46h1v1h-1z M33,46h1v1h-1z M38,46h1v1h-1z M39,46h1v1h-1z M40,46h1v1h-1z M43,46h1v1h-1z M48,46h1v1h-1z M49,46h1v1h-1z M50,46h1v1h-1z M51,46h1v1h-1z M56,46h1v1h-1z M60,46h1v1h-1z M62,46h1v1h-1z M64,46h1v1h-1z M71,46h1v1h-1z M72,46h1v1h-1z M74,46h1v1h-1z M76,46h1v1h-1z M78,46h1v1h-1z M80,46h1v1h-1z M81,46h1v1h-1z M85,46h1v1h-1z M86,46h1v1h-1z M87,46h1v1h-1z M88,46h1v1h-1z M96,46h1v1h-1z M98,46h1v1h-1z M100,46h1v1h-1z M101,46h1v1h-1z M102,46h1v1h-1z M103,46h1v1h-1z M107,46h1v1h-1z M5,47h1v1h-1z M7,47h1v1h-1z M8,47h1v1h-1z M9,47h1v1h-1z M11,47h1v1h-1z M12,47h1v1h-1z M14,47h1v1h-1z M15,47h1v1h-1z M16,47h1v1h-1z M19,47h1v1h-1z M20,47h1v1h-1z M22,47h1v1h-1z M23,47h1v1h-1z M25,47h1v1h-1z M29,47h1v1h-1z M34,47h1v1h-1z M35,47h1v1h-1z M38,47h1v1h-1z M41,47h1v1h-1z M42,47h1v1h-1z M44,47h1v1h-1z M46,47h1v1h-1z M52,47h1v1h-1z M53,47h1v1h-1z M57,47h1v1h-1z M58,47h1v1h-1z M59,47h1v1h-1z M62,47h1v1h-1z M63,47h1v1h-1z M65,47h1v1h-1z M66,47h1v1h-1z M67,47h1v1h-1z M68,47h1v1h-1z M70,47h1v1h-1z M71,47h1v1h-1z M73,47h1v1h-1z M77,47h1v1h-1z M79,47h1v1h-1z M80,47h1v1h-1z M82,47h1v1h-1z M83,47h1v1h-1z M90,47h1v1h-1z M92,47h1v1h-1z M94,47h1v1h-1z M95,47h1v1h-1z M97,47h1v1h-1z M99,47h1v1h-1z M100,47h1v1h-1z M102,47h1v1h-1z M104,47h1v1h-1z M4,48h1v1h-1z M5,48h1v1h-1z M7,48h1v1h-1z M10,48h1v1h-1z M11,48h1v1h-1z M16,48h1v1h-1z M18,48h1v1h-1z M19,48h1v1h-1z M21,48h1v1h-1z M26,48h1v1h-1z M29,48h1v1h-1z M30,48h1v1h-1z M34,48h1v1h-1z M37,48h1v1h-1z M38,48h1v1h-1z M40,48h1v1h-1z M43,48h1v1h-1z M45,48h1v1h-1z M48,48h1v1h-1z M49,48h1v1h-1z M53,48h1v1h-1z M55,48h1v1h-1z M58,48h1v1h-1z M60,48h1v1h-1z M61,48h1v1h-1z M65,48h1v1h-1z M66,48h1v1h-1z M69,48h1v1h-1z M70,48h1v1h-1z M71,48h1v1h-1z M72,48h1v1h-1z M77,48h1v1h-1z M78,48h1v1h-1z M79,48h1v1h-1z M83,48h1v1h-1z M92,48h1v1h-1z M94,48h1v1h-1z M95,48h1v1h-1z M97,48h1v1h-1z M100,48h1v1h-1z M102,48h1v1h-1z M107,48h1v1h-1z M108,48h1v1h-1z M4,49h1v1h-1z M6,49h1v1h-1z M7,49h1v1h-1z M9,49h1v1h-1z M14,49h1v1h-1z M16,49h1v1h-1z M19,49h1v1h-1z M20,49h1v1h-1z M21,49h1v1h-1z M23,49h1v1h-1z M24,49h1v1h-1z M28,49h1v1h-1z M30,49h1v1h-1z M31,49h1v1h-1z M32,49h1v1h-1z M34,49h1v1h-1z M36,49h1v1h-1z M38,49h1v1h-1z M39,49h1v1h-1z M41,49h1v1h-1z M42,49h1v1h-1z M44,49h1v1h-1z M45,49h1v1h-1z M47,49h1v1h-1z M49,49h1v1h-1z M51,49h1v1h-1z M52,49h1v1h-1z M55,49h1v1h-1z M59,49h1v1h-1z M62,49h1v1h-1z M64,49h1v1h-1z M66,49h1v1h-1z M67,49h1v1h-1z M70,49h1v1h-1z M71,49h1v1h-1z M72,49h1v1h-1z M73,49h1v1h-1z M74,49h1v1h-1z M75,49h1v1h-1z M77,49h1v1h-1z M78,49h1v1h-1z M82,49h1v1h-1z M83,49h1v1h-1z M84,49h1v1h-1z M85,49h1v1h-1z M86,49h1v1h-1z M87,49h1v1h-1z M90,49h1v1h-1z M91,49h1v1h-1z M93,49h1v1h-1z M94,49h1v1h-1z M96,49h1v1h-1z M97,49h1v1h-1z M98,49h1v1h-1z M100,49h1v1h-1z M101,49h1v1h-1z M102,49h1v1h-1z M104,49h1v1h-1z M105,49h1v1h-1z M108,49h1v1h-1z M7,50h1v1h-1z M8,50h1v1h-1z M10,50h1v1h-1z M12,50h1v1h-1z M13,50h1v1h-1z M15,50h1v1h-1z M16,50h1v1h-1z M17,50h1v1h-1z M19,50h1v1h-1z M20,50h1v1h-1z M21,50h1v1h-1z M23,50h1v1h-1z M26,50h1v1h-1z M27,50h1v1h-1z M30,50h1v1h-1z M32,50h1v1h-1z M35,50h1v1h-1z M36,50h1v1h-1z M37,50h1v1h-1z M38,50h1v1h-1z M41,50h1v1h-1z M43,50h1v1h-1z M44,50h1v1h-1z M47,50h1v1h-1z M48,50h1v1h-1z M50,50h1v1h-1z M51,50h1v1h-1z M53,50h1v1h-1z M54,50h1v1h-1z M55,50h1v1h-1z M57,50h1v1h-1z M59,50h1v1h-1z M60,50h1v1h-1z M62,50h1v1h-1z M64,50h1v1h-1z M65,50h1v1h-1z M67,50h1v1h-1z M74,50h1v1h-1z M75,50h1v1h-1z M78,50h1v1h-1z M79,50h1v1h-1z M84,50h1v1h-1z M86,50h1v1h-1z M87,50h1v1h-1z M88,50h1v1h-1z M89,50h1v1h-1z M92,50h1v1h-1z M95,50h1v1h-1z M96,50h1v1h-1z M97,50h1v1h-1z M98,50h1v1h-1z M100,50h1v1h-1z M104,50h1v1h-1z M106,50h1v1h-1z M107,50h1v1h-1z M6,51h1v1h-1z M7,51h1v1h-1z M8,51h1v1h-1z M9,51h1v1h-1z M13,51h1v1h-1z M14,51h1v1h-1z M17,51h1v1h-1z M19,51h1v1h-1z M20,51h1v1h-1z M24,51h1v1h-1z M25,51h1v1h-1z M27,51h1v1h-1z M28,51h1v1h-1z M29,51h1v1h-1z M33,51h1v1h-1z M34,51h1v1h-1z M35,51h1v1h-1z M41,51h1v1h-1z M44,51h1v1h-1z M46,51h1v1h-1z M47,51h1v1h-1z M52,51h1v1h-1z M53,51h1v1h-1z M58,51h1v1h-1z M61,51h1v1h-1z M62,51h1v1h-1z M63,51h1v1h-1z M66,51h1v1h-1z M68,51h1v1h-1z M69,51h1v1h-1z M70,51h1v1h-1z M71,51h1v1h-1z M73,51h1v1h-1z M77,51h1v1h-1z M81,51h1v1h-1z M83,51h1v1h-1z M85,51h1v1h-1z M86,51h1v1h-1z M89,51h1v1h-1z M92,51h1v1h-1z M94,51h1v1h-1z M99,51h1v1h-1z M102,51h1v1h-1z M104,51h1v1h-1z M107,51h1v1h-1z M108,51h1v1h-1z M5,52h1v1h-1z M6,52h1v1h-1z M7,52h1v1h-1z M8,52h1v1h-1z M9,52h1v1h-1z M10,52h1v1h-1z M11,52h1v1h-1z M12,52h1v1h-1z M13,52h1v1h-1z M15,52h1v1h-1z M17,52h1v1h-1z M18,52h1v1h-1z M22,52h1v1h-1z M23,52h1v1h-1z M24,52h1v1h-1z M25,52h1v1h-1z M28,52h1v1h-1z M29,52h1v1h-1z M30,52h1v1h-1z M31,52h1v1h-1z M32,52h1v1h-1z M33,52h1v1h-1z M34,52h1v1h-1z M37,52h1v1h-1z M38,52h1v1h-1z M39,52h1v1h-1z M41,52h1v1h-1z M45,52h1v1h-1z M46,52h1v1h-1z M47,52h1v1h-1z M48,52h1v1h-1z M52,52h1v1h-1z M53,52h1v1h-1z M54,52h1v1h-1z M55,52h1v1h-1z M56,52h1v1h-1z M61,52h1v1h-1z M62,52h1v1h-1z M63,52h1v1h-1z M64,52h1v1h-1z M66,52h1v1h-1z M68,52h1v1h-1z M70,52h1v1h-1z M73,52h1v1h-1z M76,52h1v1h-1z M77,52h1v1h-1z M78,52h1v1h-1z M79,52h1v1h-1z M80,52h1v1h-1z M81,52h1v1h-1z M82,52h1v1h-1z M85,52h1v1h-1z M89,52h1v1h-1z M90,52h1v1h-1z M94,52h1v1h-1z M96,52h1v1h-1z M97,52h1v1h-1z M99,52h1v1h-1z M100,52h1v1h-1z M101,52h1v1h-1z M102,52h1v1h-1z M103,52h1v1h-1z M104,52h1v1h-1z M108,52h1v1h-1z M5,53h1v1h-1z M7,53h1v1h-1z M8,53h1v1h-1z M12,53h1v1h-1z M14,53h1v1h-1z M15,53h1v1h-1z M16,53h1v1h-1z M18,53h1v1h-1z M20,53h1v1h-1z M23,53h1v1h-1z M24,53h1v1h-1z M25,53h1v1h-1z M28,53h1v1h-1z M32,53h1v1h-1z M35,53h1v1h-1z M42,53h1v1h-1z M48,53h1v1h-1z M50,53h1v1h-1z M52,53h1v1h-1z M56,53h1v1h-1z M57,53h1v1h-1z M58,53h1v1h-1z M59,53h1v1h-1z M60,53h1v1h-1z M61,53h1v1h-1z M62,53h1v1h-1z M64,53h1v1h-1z M65,53h1v1h-1z M67,53h1v1h-1z M69,53h1v1h-1z M72,53h1v1h-1z M73,53h1v1h-1z M75,53h1v1h-1z M76,53h1v1h-1z M80,53h1v1h-1z M83,53h1v1h-1z M85,53h1v1h-1z M86,53h1v1h-1z M90,53h1v1h-1z M91,53h1v1h-1z M94,53h1v1h-1z M95,53h1v1h-1z M96,53h1v1h-1z M98,53h1v1h-1z M99,53h1v1h-1z M100,53h1v1h-1z M104,53h1v1h-1z M106,53h1v1h-1z M4,54h1v1h-1z M6,54h1v1h-1z M7,54h1v1h-1z M8,54h1v1h-1z M10,54h1v1h-1z M12,54h1v1h-1z M14,54h1v1h-1z M15,54h1v1h-1z M17,54h1v1h-1z M19,54h1v1h-1z M22,54h1v1h-1z M23,54h1v1h-1z M24,54h1v1h-1z M25,54h1v1h-1z M28,54h1v1h-1z M30,54h1v1h-1z M32,54h1v1h-1z M38,54h1v1h-1z M41,54h1v1h-1z M44,54h1v1h-1z M50,54h1v1h-1z M52,54h1v1h-1z M54,54h1v1h-1z M56,54h1v1h-1z M60,54h1v1h-1z M62,54h1v1h-1z M63,54h1v1h-1z M65,54h1v1h-1z M72,54h1v1h-1z M74,54h1v1h-1z M76,54h1v1h-1z M78,54h1v1h-1z M80,54h1v1h-1z M84,54h1v1h-1z M86,54h1v1h-1z M87,54h1v1h-1z M93,54h1v1h-1z M95,54h1v1h-1z M96,54h1v1h-1z M98,54h1v1h-1z M100,54h1v1h-1z M102,54h1v1h-1z M104,54h1v1h-1z M105,54h1v1h-1z M106,54h1v1h-1z M107,54h1v1h-1z M5,55h1v1h-1z M7,55h1v1h-1z M8,55h1v1h-1z M12,55h1v1h-1z M13,55h1v1h-1z M16,55h1v1h-1z M17,55h1v1h-1z M20,55h1v1h-1z M22,55h1v1h-1z M23,55h1v1h-1z M26,55h1v1h-1z M27,55h1v1h-1z M28,55h1v1h-1z M32,55h1v1h-1z M34,55h1v1h-1z M35,55h1v1h-1z M41,55h1v1h-1z M44,55h1v1h-1z M46,55h1v1h-1z M47,55h1v1h-1z M50,55h1v1h-1z M51,55h1v1h-1z M52,55h1v1h-1z M56,55h1v1h-1z M59,55h1v1h-1z M61,55h1v1h-1z M65,55h1v1h-1z M66,55h1v1h-1z M67,55h1v1h-1z M68,55h1v1h-1z M71,55h1v1h-1z M74,55h1v1h-1z M76,55h1v1h-1z M80,55h1v1h-1z M81,55h1v1h-1z M82,55h1v1h-1z M83,55h1v1h-1z M85,55h1v1h-1z M86,55h1v1h-1z M89,55h1v1h-1z M90,55h1v1h-1z M91,55h1v1h-1z M92,55h1v1h-1z M94,55h1v1h-1z M95,55h1v1h-1z M99,55h1v1h-1z M100,55h1v1h-1z M104,55h1v1h-1z M108,55h1v1h-1z M4,56h1v1h-1z M6,56h1v1h-1z M8,56h1v1h-1z M9,56h1v1h-1z M10,56h1v1h-1z M11,56h1v1h-1z M12,56h1v1h-1z M14,56h1v1h-1z M15,56h1v1h-1z M17,56h1v1h-1z M18,56h1v1h-1z M19,56h1v1h-1z M23,56h1v1h-1z M26,56h1v1h-1z M28,56h1v1h-1z M29,56h1v1h-1z M30,56h1v1h-1z M31,56h1v1h-1z M32,56h1v1h-1z M34,56h1v1h-1z M35,56h1v1h-1z M38,56h1v1h-1z M39,56h1v1h-1z M40,56h1v1h-1z M42,56h1v1h-1z M43,56h1v1h-1z M44,56h1v1h-1z M47,56h1v1h-1z M48,56h1v1h-1z M51,56h1v1h-1z M52,56h1v1h-1z M53,56h1v1h-1z M54,56h1v1h-1z M55,56h1v1h-1z M56,56h1v1h-1z M58,56h1v1h-1z M60,56h1v1h-1z M62,56h1v1h-1z M63,56h1v1h-1z M64,56h1v1h-1z M66,56h1v1h-1z M67,56h1v1h-1z M68,56h1v1h-1z M70,56h1v1h-1z M71,56h1v1h-1z M73,56h1v1h-1z M76,56h1v1h-1z M77,56h1v1h-1z M78,56h1v1h-1z M79,56h1v1h-1z M80,56h1v1h-1z M83,56h1v1h-1z M84,56h1v1h-1z M85,56h1v1h-1z M86,56h1v1h-1z M87,56h1v1h-1z M89,56h1v1h-1z M90,56h1v1h-1z M91,56h1v1h-1z M94,56h1v1h-1z M97,56h1v1h-1z M99,56h1v1h-1z M100,56h1v1h-1z M101,56h1v1h-1z M102,56h1v1h-1z M103,56h1v1h-1z M104,56h1v1h-1z M106,56h1v1h-1z M108,56h1v1h-1z M4,57h1v1h-1z M6,57h1v1h-1z M9,57h1v1h-1z M11,57h1v1h-1z M12,57h1v1h-1z M16,57h1v1h-1z M18,57h1v1h-1z M20,57h1v1h-1z M22,57h1v1h-1z M23,57h1v1h-1z M24,57h1v1h-1z M28,57h1v1h-1z M33,57h1v1h-1z M36,57h1v1h-1z M39,57h1v1h-1z M41,57h1v1h-1z M42,57h1v1h-1z M48,57h1v1h-1z M49,57h1v1h-1z M52,57h1v1h-1z M53,57h1v1h-1z M54,57h1v1h-1z M55,57h1v1h-1z M57,57h1v1h-1z M60,57h1v1h-1z M61,57h1v1h-1z M62,57h1v1h-1z M63,57h1v1h-1z M64,57h1v1h-1z M66,57h1v1h-1z M69,57h1v1h-1z M70,57h1v1h-1z M71,57h1v1h-1z M75,57h1v1h-1z M77,57h1v1h-1z M81,57h1v1h-1z M82,57h1v1h-1z M83,57h1v1h-1z M84,57h1v1h-1z M85,57h1v1h-1z M86,57h1v1h-1z M87,57h1v1h-1z M88,57h1v1h-1z M89,57h1v1h-1z M90,57h1v1h-1z M91,57h1v1h-1z M93,57h1v1h-1z M94,57h1v1h-1z M98,57h1v1h-1z M99,57h1v1h-1z M100,57h1v1h-1z M102,57h1v1h-1z M105,57h1v1h-1z M107,57h1v1h-1z M108,57h1v1h-1z M5,58h1v1h-1z M10,58h1v1h-1z M11,58h1v1h-1z M14,58h1v1h-1z M17,58h1v1h-1z M18,58h1v1h-1z M21,58h1v1h-1z M23,58h1v1h-1z M29,58h1v1h-1z M30,58h1v1h-1z M36,58h1v1h-1z M38,58h1v1h-1z M39,58h1v1h-1z M41,58h1v1h-1z M43,58h1v1h-1z M45,58h1v1h-1z M50,58h1v1h-1z M54,58h1v1h-1z M55,58h1v1h-1z M59,58h1v1h-1z M62,58h1v1h-1z M64,58h1v1h-1z M65,58h1v1h-1z M67,58h1v1h-1z M68,58h1v1h-1z M71,58h1v1h-1z M72,58h1v1h-1z M74,58h1v1h-1z M77,58h1v1h-1z M80,58h1v1h-1z M83,58h1v1h-1z M84,58h1v1h-1z M85,58h1v1h-1z M86,58h1v1h-1z M88,58h1v1h-1z M89,58h1v1h-1z M91,58h1v1h-1z M96,58h1v1h-1z M98,58h1v1h-1z M99,58h1v1h-1z M100,58h1v1h-1z M101,58h1v1h-1z M103,58h1v1h-1z M107,58h1v1h-1z M4,59h1v1h-1z M6,59h1v1h-1z M8,59h1v1h-1z M12,59h1v1h-1z M14,59h1v1h-1z M15,59h1v1h-1z M16,59h1v1h-1z M17,59h1v1h-1z M20,59h1v1h-1z M21,59h1v1h-1z M22,59h1v1h-1z M24,59h1v1h-1z M25,59h1v1h-1z M26,59h1v1h-1z M28,59h1v1h-1z M32,59h1v1h-1z M33,59h1v1h-1z M34,59h1v1h-1z M38,59h1v1h-1z M41,59h1v1h-1z M44,59h1v1h-1z M46,59h1v1h-1z M47,59h1v1h-1z M55,59h1v1h-1z M56,59h1v1h-1z M58,59h1v1h-1z M59,59h1v1h-1z M61,59h1v1h-1z M62,59h1v1h-1z M63,59h1v1h-1z M68,59h1v1h-1z M71,59h1v1h-1z M73,59h1v1h-1z M74,59h1v1h-1z M77,59h1v1h-1z M79,59h1v1h-1z M83,59h1v1h-1z M90,59h1v1h-1z M92,59h1v1h-1z M93,59h1v1h-1z M94,59h1v1h-1z M95,59h1v1h-1z M101,59h1v1h-1z M103,59h1v1h-1z M104,59h1v1h-1z M107,59h1v1h-1z M4,60h1v1h-1z M6,60h1v1h-1z M10,60h1v1h-1z M11,60h1v1h-1z M14,60h1v1h-1z M18,60h1v1h-1z M19,60h1v1h-1z M27,60h1v1h-1z M30,60h1v1h-1z M31,60h1v1h-1z M32,60h1v1h-1z M33,60h1v1h-1z M34,60h1v1h-1z M35,60h1v1h-1z M38,60h1v1h-1z M39,60h1v1h-1z M40,60h1v1h-1z M41,60h1v1h-1z M46,60h1v1h-1z M47,60h1v1h-1z M49,60h1v1h-1z M54,60h1v1h-1z M56,60h1v1h-1z M57,60h1v1h-1z M60,60h1v1h-1z M64,60h1v1h-1z M66,60h1v1h-1z M67,60h1v1h-1z M69,60h1v1h-1z M70,60h1v1h-1z M71,60h1v1h-1z M75,60h1v1h-1z M76,60h1v1h-1z M77,60h1v1h-1z M78,60h1v1h-1z M79,60h1v1h-1z M81,60h1v1h-1z M83,60h1v1h-1z M85,60h1v1h-1z M88,60h1v1h-1z M91,60h1v1h-1z M93,60h1v1h-1z M94,60h1v1h-1z M97,60h1v1h-1z M101,60h1v1h-1z M103,60h1v1h-1z M105,60h1v1h-1z M106,60h1v1h-1z M108,60h1v1h-1z M5,61h1v1h-1z M9,61h1v1h-1z M11,61h1v1h-1z M12,61h1v1h-1z M13,61h1v1h-1z M16,61h1v1h-1z M18,61h1v1h-1z M20,61h1v1h-1z M21,61h1v1h-1z M22,61h1v1h-1z M24,61h1v1h-1z M25,61h1v1h-1z M26,61h1v1h-1z M27,61h1v1h-1z M29,61h1v1h-1z M30,61h1v1h-1z M33,61h1v1h-1z M35,61h1v1h-1z M37,61h1v1h-1z M39,61h1v1h-1z M40,61h1v1h-1z M41,61h1v1h-1z M43,61h1v1h-1z M48,61h1v1h-1z M50,61h1v1h-1z M51,61h1v1h-1z M52,61h1v1h-1z M54,61h1v1h-1z M57,61h1v1h-1z M58,61h1v1h-1z M60,61h1v1h-1z M62,61h1v1h-1z M64,61h1v1h-1z M65,61h1v1h-1z M66,61h1v1h-1z M67,61h1v1h-1z M68,61h1v1h-1z M71,61h1v1h-1z M72,61h1v1h-1z M74,61h1v1h-1z M77,61h1v1h-1z M79,61h1v1h-1z M81,61h1v1h-1z M83,61h1v1h-1z M84,61h1v1h-1z M86,61h1v1h-1z M91,61h1v1h-1z M92,61h1v1h-1z M93,61h1v1h-1z M94,61h1v1h-1z M95,61h1v1h-1z M98,61h1v1h-1z M99,61h1v1h-1z M100,61h1v1h-1z M102,61h1v1h-1z M103,61h1v1h-1z M105,61h1v1h-1z M106,61h1v1h-1z M107,61h1v1h-1z M5,62h1v1h-1z M8,62h1v1h-1z M9,62h1v1h-1z M10,62h1v1h-1z M15,62h1v1h-1z M17,62h1v1h-1z M19,62h1v1h-1z M21,62h1v1h-1z M22,62h1v1h-1z M23,62h1v1h-1z M31,62h1v1h-1z M32,62h1v1h-1z M38,62h1v1h-1z M40,62h1v1h-1z M41,62h1v1h-1z M43,62h1v1h-1z M47,62h1v1h-1z M50,62h1v1h-1z M54,62h1v1h-1z M55,62h1v1h-1z M56,62h1v1h-1z M60,62h1v1h-1z M62,62h1v1h-1z M63,62h1v1h-1z M64,62h1v1h-1z M65,62h1v1h-1z M71,62h1v1h-1z M72,62h1v1h-1z M74,62h1v1h-1z M77,62h1v1h-1z M79,62h1v1h-1z M80,62h1v1h-1z M86,62h1v1h-1z M87,62h1v1h-1z M89,62h1v1h-1z M91,62h1v1h-1z M93,62h1v1h-1z M95,62h1v1h-1z M96,62h1v1h-1z M97,62h1v1h-1z M98,62h1v1h-1z M99,62h1v1h-1z M100,62h1v1h-1z M101,62h1v1h-1z M102,62h1v1h-1z M104,62h1v1h-1z M105,62h1v1h-1z M107,62h1v1h-1z M5,63h1v1h-1z M6,63h1v1h-1z M8,63h1v1h-1z M11,63h1v1h-1z M14,63h1v1h-1z M20,63h1v1h-1z M24,63h1v1h-1z M25,63h1v1h-1z M26,63h1v1h-1z M28,63h1v1h-1z M30,63h1v1h-1z M31,63h1v1h-1z M32,63h1v1h-1z M35,63h1v1h-1z M41,63h1v1h-1z M42,63h1v1h-1z M44,63h1v1h-1z M47,63h1v1h-1z M52,63h1v1h-1z M55,63h1v1h-1z M56,63h1v1h-1z M58,63h1v1h-1z M59,63h1v1h-1z M61,63h1v1h-1z M62,63h1v1h-1z M67,63h1v1h-1z M68,63h1v1h-1z M69,63h1v1h-1z M70,63h1v1h-1z M71,63h1v1h-1z M73,63h1v1h-1z M76,63h1v1h-1z M79,63h1v1h-1z M81,63h1v1h-1z M83,63h1v1h-1z M89,63h1v1h-1z M90,63h1v1h-1z M92,63h1v1h-1z M94,63h1v1h-1z M100,63h1v1h-1z M104,63h1v1h-1z M108,63h1v1h-1z M10,64h1v1h-1z M14,64h1v1h-1z M15,64h1v1h-1z M17,64h1v1h-1z M19,64h1v1h-1z M20,64h1v1h-1z M21,64h1v1h-1z M23,64h1v1h-1z M24,64h1v1h-1z M27,64h1v1h-1z M28,64h1v1h-1z M30,64h1v1h-1z M32,64h1v1h-1z M33,64h1v1h-1z M34,64h1v1h-1z M38,64h1v1h-1z M39,64h1v1h-1z M43,64h1v1h-1z M44,64h1v1h-1z M45,64h1v1h-1z M46,64h1v1h-1z M47,64h1v1h-1z M48,64h1v1h-1z M50,64h1v1h-1z M51,64h1v1h-1z M54,64h1v1h-1z M55,64h1v1h-1z M59,64h1v1h-1z M61,64h1v1h-1z M64,64h1v1h-1z M65,64h1v1h-1z M66,64h1v1h-1z M71,64h1v1h-1z M73,64h1v1h-1z M78,64h1v1h-1z M81,64h1v1h-1z M84,64h1v1h-1z M88,64h1v1h-1z M93,64h1v1h-1z M94,64h1v1h-1z M99,64h1v1h-1z M101,64h1v1h-1z M103,64h1v1h-1z M106,64h1v1h-1z M5,65h1v1h-1z M7,65h1v1h-1z M9,65h1v1h-1z M11,65h1v1h-1z M12,65h1v1h-1z M13,65h1v1h-1z M14,65h1v1h-1z M15,65h1v1h-1z M16,65h1v1h-1z M19,65h1v1h-1z M20,65h1v1h-1z M23,65h1v1h-1z M26,65h1v1h-1z M27,65h1v1h-1z M31,65h1v1h-1z M36,65h1v1h-1z M37,65h1v1h-1z M41,65h1v1h-1z M45,65h1v1h-1z M46,65h1v1h-1z M47,65h1v1h-1z M48,65h1v1h-1z M51,65h1v1h-1z M54,65h1v1h-1z M55,65h1v1h-1z M57,65h1v1h-1z M58,65h1v1h-1z M59,65h1v1h-1z M60,65h1v1h-1z M61,65h1v1h-1z M64,65h1v1h-1z M66,65h1v1h-1z M68,65h1v1h-1z M69,65h1v1h-1z M70,65h1v1h-1z M72,65h1v1h-1z M73,65h1v1h-1z M76,65h1v1h-1z M78,65h1v1h-1z M79,65h1v1h-1z M81,65h1v1h-1z M82,65h1v1h-1z M83,65h1v1h-1z M84,65h1v1h-1z M85,65h1v1h-1z M87,65h1v1h-1z M88,65h1v1h-1z M89,65h1v1h-1z M91,65h1v1h-1z M96,65h1v1h-1z M99,65h1v1h-1z M100,65h1v1h-1z M102,65h1v1h-1z M103,65h1v1h-1z M105,65h1v1h-1z M107,65h1v1h-1z M108,65h1v1h-1z M4,66h1v1h-1z M5,66h1v1h-1z M8,66h1v1h-1z M10,66h1v1h-1z M11,66h1v1h-1z M12,66h1v1h-1z M13,66h1v1h-1z M14,66h1v1h-1z M15,66h1v1h-1z M19,66h1v1h-1z M21,66h1v1h-1z M23,66h1v1h-1z M32,66h1v1h-1z M33,66h1v1h-1z M35,66h1v1h-1z M36,66h1v1h-1z M38,66h1v1h-1z M40,66h1v1h-1z M41,66h1v1h-1z M47,66h1v1h-1z M50,66h1v1h-1z M53,66h1v1h-1z M61,66h1v1h-1z M62,66h1v1h-1z M63,66h1v1h-1z M65,66h1v1h-1z M67,66h1v1h-1z M71,66h1v1h-1z M74,66h1v1h-1z M81,66h1v1h-1z M83,66h1v1h-1z M86,66h1v1h-1z M88,66h1v1h-1z M89,66h1v1h-1z M91,66h1v1h-1z M92,66h1v1h-1z M96,66h1v1h-1z M97,66h1v1h-1z M98,66h1v1h-1z M99,66h1v1h-1z M101,66h1v1h-1z M103,66h1v1h-1z M104,66h1v1h-1z M105,66h1v1h-1z M106,66h1v1h-1z M107,66h1v1h-1z M4,67h1v1h-1z M6,67h1v1h-1z M7,67h1v1h-1z M13,67h1v1h-1z M16,67h1v1h-1z M18,67h1v1h-1z M19,67h1v1h-1z M21,67h1v1h-1z M22,67h1v1h-1z M24,67h1v1h-1z M25,67h1v1h-1z M28,67h1v1h-1z M29,67h1v1h-1z M30,67h1v1h-1z M31,67h1v1h-1z M34,67h1v1h-1z M37,67h1v1h-1z M39,67h1v1h-1z M41,67h1v1h-1z M42,67h1v1h-1z M43,67h1v1h-1z M44,67h1v1h-1z M45,67h1v1h-1z M47,67h1v1h-1z M50,67h1v1h-1z M53,67h1v1h-1z M55,67h1v1h-1z M56,67h1v1h-1z M57,67h1v1h-1z M58,67h1v1h-1z M59,67h1v1h-1z M65,67h1v1h-1z M68,67h1v1h-1z M70,67h1v1h-1z M71,67h1v1h-1z M76,67h1v1h-1z M77,67h1v1h-1z M78,67h1v1h-1z M80,67h1v1h-1z M82,67h1v1h-1z M83,67h1v1h-1z M85,67h1v1h-1z M86,67h1v1h-1z M92,67h1v1h-1z M93,67h1v1h-1z M99,67h1v1h-1z M100,67h1v1h-1z M101,67h1v1h-1z M102,67h1v1h-1z M107,67h1v1h-1z M6,68h1v1h-1z M7,68h1v1h-1z M8,68h1v1h-1z M9,68h1v1h-1z M10,68h1v1h-1z M13,68h1v1h-1z M14,68h1v1h-1z M15,68h1v1h-1z M20,68h1v1h-1z M21,68h1v1h-1z M22,68h1v1h-1z M23,68h1v1h-1z M29,68h1v1h-1z M30,68h1v1h-1z M31,68h1v1h-1z M33,68h1v1h-1z M35,68h1v1h-1z M36,68h1v1h-1z M38,68h1v1h-1z M39,68h1v1h-1z M41,68h1v1h-1z M42,68h1v1h-1z M43,68h1v1h-1z M44,68h1v1h-1z M45,68h1v1h-1z M46,68h1v1h-1z M47,68h1v1h-1z M48,68h1v1h-1z M49,68h1v1h-1z M51,68h1v1h-1z M52,68h1v1h-1z M54,68h1v1h-1z M55,68h1v1h-1z M57,68h1v1h-1z M58,68h1v1h-1z M59,68h1v1h-1z M62,68h1v1h-1z M65,68h1v1h-1z M66,68h1v1h-1z M67,68h1v1h-1z M68,68h1v1h-1z M69,68h1v1h-1z M70,68h1v1h-1z M75,68h1v1h-1z M78,68h1v1h-1z M80,68h1v1h-1z M83,68h1v1h-1z M85,68h1v1h-1z M86,68h1v1h-1z M88,68h1v1h-1z M93,68h1v1h-1z M94,68h1v1h-1z M97,68h1v1h-1z M99,68h1v1h-1z M101,68h1v1h-1z M102,68h1v1h-1z M103,68h1v1h-1z M4,69h1v1h-1z M7,69h1v1h-1z M9,69h1v1h-1z M13,69h1v1h-1z M16,69h1v1h-1z M17,69h1v1h-1z M20,69h1v1h-1z M22,69h1v1h-1z M24,69h1v1h-1z M25,69h1v1h-1z M26,69h1v1h-1z M27,69h1v1h-1z M28,69h1v1h-1z M31,69h1v1h-1z M36,69h1v1h-1z M38,69h1v1h-1z M39,69h1v1h-1z M40,69h1v1h-1z M42,69h1v1h-1z M43,69h1v1h-1z M45,69h1v1h-1z M46,69h1v1h-1z M47,69h1v1h-1z M51,69h1v1h-1z M53,69h1v1h-1z M54,69h1v1h-1z M55,69h1v1h-1z M60,69h1v1h-1z M61,69h1v1h-1z M63,69h1v1h-1z M65,69h1v1h-1z M66,69h1v1h-1z M70,69h1v1h-1z M71,69h1v1h-1z M72,69h1v1h-1z M74,69h1v1h-1z M77,69h1v1h-1z M82,69h1v1h-1z M83,69h1v1h-1z M85,69h1v1h-1z M87,69h1v1h-1z M88,69h1v1h-1z M89,69h1v1h-1z M92,69h1v1h-1z M94,69h1v1h-1z M96,69h1v1h-1z M99,69h1v1h-1z M100,69h1v1h-1z M101,69h1v1h-1z M102,69h1v1h-1z M103,69h1v1h-1z M104,69h1v1h-1z M105,69h1v1h-1z M107,69h1v1h-1z M5,70h1v1h-1z M6,70h1v1h-1z M7,70h1v1h-1z M9,70h1v1h-1z M10,70h1v1h-1z M11,70h1v1h-1z M13,70h1v1h-1z M14,70h1v1h-1z M16,70h1v1h-1z M18,70h1v1h-1z M24,70h1v1h-1z M25,70h1v1h-1z M35,70h1v1h-1z M36,70h1v1h-1z M38,70h1v1h-1z M41,70h1v1h-1z M45,70h1v1h-1z M50,70h1v1h-1z M56,70h1v1h-1z M62,70h1v1h-1z M64,70h1v1h-1z M71,70h1v1h-1z M72,70h1v1h-1z M73,70h1v1h-1z M74,70h1v1h-1z M77,70h1v1h-1z M83,70h1v1h-1z M84,70h1v1h-1z M86,70h1v1h-1z M87,70h1v1h-1z M88,70h1v1h-1z M89,70h1v1h-1z M92,70h1v1h-1z M96,70h1v1h-1z M98,70h1v1h-1z M100,70h1v1h-1z M102,70h1v1h-1z M105,70h1v1h-1z M107,70h1v1h-1z M108,70h1v1h-1z M4,71h1v1h-1z M7,71h1v1h-1z M12,71h1v1h-1z M13,71h1v1h-1z M15,71h1v1h-1z M16,71h1v1h-1z M17,71h1v1h-1z M25,71h1v1h-1z M28,71h1v1h-1z M30,71h1v1h-1z M31,71h1v1h-1z M33,71h1v1h-1z M34,71h1v1h-1z M37,71h1v1h-1z M38,71h1v1h-1z M42,71h1v1h-1z M43,71h1v1h-1z M44,71h1v1h-1z M46,71h1v1h-1z M47,71h1v1h-1z M49,71h1v1h-1z M50,71h1v1h-1z M52,71h1v1h-1z M53,71h1v1h-1z M54,71h1v1h-1z M57,71h1v1h-1z M59,71h1v1h-1z M62,71h1v1h-1z M65,71h1v1h-1z M66,71h1v1h-1z M67,71h1v1h-1z M68,71h1v1h-1z M69,71h1v1h-1z M70,71h1v1h-1z M71,71h1v1h-1z M73,71h1v1h-1z M75,71h1v1h-1z M76,71h1v1h-1z M86,71h1v1h-1z M92,71h1v1h-1z M93,71h1v1h-1z M94,71h1v1h-1z M95,71h1v1h-1z M98,71h1v1h-1z M99,71h1v1h-1z M100,71h1v1h-1z M105,71h1v1h-1z M107,71h1v1h-1z M108,71h1v1h-1z M8,72h1v1h-1z M10,72h1v1h-1z M11,72h1v1h-1z M12,72h1v1h-1z M14,72h1v1h-1z M16,72h1v1h-1z M17,72h1v1h-1z M18,72h1v1h-1z M20,72h1v1h-1z M23,72h1v1h-1z M28,72h1v1h-1z M30,72h1v1h-1z M31,72h1v1h-1z M32,72h1v1h-1z M34,72h1v1h-1z M35,72h1v1h-1z M36,72h1v1h-1z M40,72h1v1h-1z M41,72h1v1h-1z M42,72h1v1h-1z M43,72h1v1h-1z M50,72h1v1h-1z M52,72h1v1h-1z M54,72h1v1h-1z M55,72h1v1h-1z M56,72h1v1h-1z M58,72h1v1h-1z M59,72h1v1h-1z M60,72h1v1h-1z M62,72h1v1h-1z M65,72h1v1h-1z M66,72h1v1h-1z M67,72h1v1h-1z M68,72h1v1h-1z M69,72h1v1h-1z M71,72h1v1h-1z M74,72h1v1h-1z M76,72h1v1h-1z M78,72h1v1h-1z M84,72h1v1h-1z M85,72h1v1h-1z M87,72h1v1h-1z M88,72h1v1h-1z M89,72h1v1h-1z M90,72h1v1h-1z M92,72h1v1h-1z M95,72h1v1h-1z M101,72h1v1h-1z M103,72h1v1h-1z M107,72h1v1h-1z M108,72h1v1h-1z M4,73h1v1h-1z M5,73h1v1h-1z M6,73h1v1h-1z M7,73h1v1h-1z M9,73h1v1h-1z M11,73h1v1h-1z M12,73h1v1h-1z M13,73h1v1h-1z M14,73h1v1h-1z M15,73h1v1h-1z M22,73h1v1h-1z M23,73h1v1h-1z M25,73h1v1h-1z M27,73h1v1h-1z M28,73h1v1h-1z M29,73h1v1h-1z M34,73h1v1h-1z M37,73h1v1h-1z M39,73h1v1h-1z M40,73h1v1h-1z M45,73h1v1h-1z M46,73h1v1h-1z M47,73h1v1h-1z M48,73h1v1h-1z M53,73h1v1h-1z M59,73h1v1h-1z M60,73h1v1h-1z M61,73h1v1h-1z M69,73h1v1h-1z M72,73h1v1h-1z M76,73h1v1h-1z M79,73h1v1h-1z M81,73h1v1h-1z M82,73h1v1h-1z M84,73h1v1h-1z M86,73h1v1h-1z M89,73h1v1h-1z M90,73h1v1h-1z M93,73h1v1h-1z M94,73h1v1h-1z M96,73h1v1h-1z M98,73h1v1h-1z M99,73h1v1h-1z M100,73h1v1h-1z M102,73h1v1h-1z M104,73h1v1h-1z M106,73h1v1h-1z M108,73h1v1h-1z M4,74h1v1h-1z M7,74h1v1h-1z M8,74h1v1h-1z M9,74h1v1h-1z M10,74h1v1h-1z M11,74h1v1h-1z M12,74h1v1h-1z M13,74h1v1h-1z M14,74h1v1h-1z M15,74h1v1h-1z M18,74h1v1h-1z M19,74h1v1h-1z M20,74h1v1h-1z M22,74h1v1h-1z M23,74h1v1h-1z M25,74h1v1h-1z M30,74h1v1h-1z M36,74h1v1h-1z M38,74h1v1h-1z M40,74h1v1h-1z M41,74h1v1h-1z M44,74h1v1h-1z M48,74h1v1h-1z M50,74h1v1h-1z M53,74h1v1h-1z M54,74h1v1h-1z M56,74h1v1h-1z M59,74h1v1h-1z M60,74h1v1h-1z M62,74h1v1h-1z M63,74h1v1h-1z M64,74h1v1h-1z M65,74h1v1h-1z M67,74h1v1h-1z M68,74h1v1h-1z M74,74h1v1h-1z M79,74h1v1h-1z M84,74h1v1h-1z M86,74h1v1h-1z M89,74h1v1h-1z M92,74h1v1h-1z M95,74h1v1h-1z M96,74h1v1h-1z M98,74h1v1h-1z M101,74h1v1h-1z M102,74h1v1h-1z M103,74h1v1h-1z M105,74h1v1h-1z M106,74h1v1h-1z M107,74h1v1h-1z M4,75h1v1h-1z M5,75h1v1h-1z M7,75h1v1h-1z M9,75h1v1h-1z M11,75h1v1h-1z M14,75h1v1h-1z M16,75h1v1h-1z M19,75h1v1h-1z M22,75h1v1h-1z M23,75h1v1h-1z M24,75h1v1h-1z M27,75h1v1h-1z M31,75h1v1h-1z M34,75h1v1h-1z M35,75h1v1h-1z M37,75h1v1h-1z M39,75h1v1h-1z M41,75h1v1h-1z M44,75h1v1h-1z M45,75h1v1h-1z M47,75h1v1h-1z M49,75h1v1h-1z M51,75h1v1h-1z M54,75h1v1h-1z M55,75h1v1h-1z M56,75h1v1h-1z M57,75h1v1h-1z M61,75h1v1h-1z M62,75h1v1h-1z M65,75h1v1h-1z M66,75h1v1h-1z M68,75h1v1h-1z M70,75h1v1h-1z M71,75h1v1h-1z M74,75h1v1h-1z M76,75h1v1h-1z M78,75h1v1h-1z M80,75h1v1h-1z M83,75h1v1h-1z M86,75h1v1h-1z M92,75h1v1h-1z M94,75h1v1h-1z M95,75h1v1h-1z M99,75h1v1h-1z M103,75h1v1h-1z M104,75h1v1h-1z M108,75h1v1h-1z M4,76h1v1h-1z M5,76h1v1h-1z M7,76h1v1h-1z M8,76h1v1h-1z M9,76h1v1h-1z M10,76h1v1h-1z M11,76h1v1h-1z M12,76h1v1h-1z M14,76h1v1h-1z M16,76h1v1h-1z M18,76h1v1h-1z M20,76h1v1h-1z M21,76h1v1h-1z M23,76h1v1h-1z M24,76h1v1h-1z M25,76h1v1h-1z M27,76h1v1h-1z M28,76h1v1h-1z M29,76h1v1h-1z M30,76h1v1h-1z M31,76h1v1h-1z M32,76h1v1h-1z M33,76h1v1h-1z M34,76h1v1h-1z M36,76h1v1h-1z M37,76h1v1h-1z M42,76h1v1h-1z M44,76h1v1h-1z M45,76h1v1h-1z M48,76h1v1h-1z M49,76h1v1h-1z M51,76h1v1h-1z M52,76h1v1h-1z M53,76h1v1h-1z M54,76h1v1h-1z M55,76h1v1h-1z M56,76h1v1h-1z M58,76h1v1h-1z M61,76h1v1h-1z M64,76h1v1h-1z M67,76h1v1h-1z M71,76h1v1h-1z M73,76h1v1h-1z M76,76h1v1h-1z M77,76h1v1h-1z M78,76h1v1h-1z M79,76h1v1h-1z M80,76h1v1h-1z M81,76h1v1h-1z M82,76h1v1h-1z M84,76h1v1h-1z M87,76h1v1h-1z M89,76h1v1h-1z M92,76h1v1h-1z M93,76h1v1h-1z M94,76h1v1h-1z M96,76h1v1h-1z M98,76h1v1h-1z M100,76h1v1h-1z M101,76h1v1h-1z M102,76h1v1h-1z M103,76h1v1h-1z M104,76h1v1h-1z M105,76h1v1h-1z M107,76h1v1h-1z M4,77h1v1h-1z M5,77h1v1h-1z M8,77h1v1h-1z M12,77h1v1h-1z M14,77h1v1h-1z M16,77h1v1h-1z M18,77h1v1h-1z M20,77h1v1h-1z M22,77h1v1h-1z M25,77h1v1h-1z M26,77h1v1h-1z M28,77h1v1h-1z M32,77h1v1h-1z M35,77h1v1h-1z M36,77h1v1h-1z M39,77h1v1h-1z M40,77h1v1h-1z M48,77h1v1h-1z M49,77h1v1h-1z M52,77h1v1h-1z M56,77h1v1h-1z M59,77h1v1h-1z M60,77h1v1h-1z M70,77h1v1h-1z M71,77h1v1h-1z M72,77h1v1h-1z M73,77h1v1h-1z M75,77h1v1h-1z M76,77h1v1h-1z M80,77h1v1h-1z M81,77h1v1h-1z M83,77h1v1h-1z M86,77h1v1h-1z M88,77h1v1h-1z M89,77h1v1h-1z M96,77h1v1h-1z M100,77h1v1h-1z M104,77h1v1h-1z M105,77h1v1h-1z M106,77h1v1h-1z M5,78h1v1h-1z M7,78h1v1h-1z M8,78h1v1h-1z M10,78h1v1h-1z M12,78h1v1h-1z M13,78h1v1h-1z M14,78h1v1h-1z M16,78h1v1h-1z M17,78h1v1h-1z M18,78h1v1h-1z M20,78h1v1h-1z M23,78h1v1h-1z M24,78h1v1h-1z M25,78h1v1h-1z M26,78h1v1h-1z M27,78h1v1h-1z M28,78h1v1h-1z M30,78h1v1h-1z M32,78h1v1h-1z M33,78h1v1h-1z M35,78h1v1h-1z M36,78h1v1h-1z M38,78h1v1h-1z M41,78h1v1h-1z M48,78h1v1h-1z M49,78h1v1h-1z M50,78h1v1h-1z M51,78h1v1h-1z M52,78h1v1h-1z M54,78h1v1h-1z M56,78h1v1h-1z M59,78h1v1h-1z M60,78h1v1h-1z M62,78h1v1h-1z M63,78h1v1h-1z M64,78h1v1h-1z M65,78h1v1h-1z M67,78h1v1h-1z M68,78h1v1h-1z M71,78h1v1h-1z M74,78h1v1h-1z M76,78h1v1h-1z M78,78h1v1h-1z M80,78h1v1h-1z M84,78h1v1h-1z M86,78h1v1h-1z M87,78h1v1h-1z M88,78h1v1h-1z M89,78h1v1h-1z M93,78h1v1h-1z M96,78h1v1h-1z M97,78h1v1h-1z M98,78h1v1h-1z M100,78h1v1h-1z M102,78h1v1h-1z M104,78h1v1h-1z M105,78h1v1h-1z M107,78h1v1h-1z M4,79h1v1h-1z M8,79h1v1h-1z M12,79h1v1h-1z M13,79h1v1h-1z M14,79h1v1h-1z M22,79h1v1h-1z M24,79h1v1h-1z M25,79h1v1h-1z M27,79h1v1h-1z M28,79h1v1h-1z M32,79h1v1h-1z M34,79h1v1h-1z M37,79h1v1h-1z M44,79h1v1h-1z M45,79h1v1h-1z M46,79h1v1h-1z M47,79h1v1h-1z M52,79h1v1h-1z M56,79h1v1h-1z M58,79h1v1h-1z M62,79h1v1h-1z M66,79h1v1h-1z M68,79h1v1h-1z M70,79h1v1h-1z M71,79h1v1h-1z M73,79h1v1h-1z M76,79h1v1h-1z M80,79h1v1h-1z M81,79h1v1h-1z M82,79h1v1h-1z M83,79h1v1h-1z M86,79h1v1h-1z M89,79h1v1h-1z M90,79h1v1h-1z M92,79h1v1h-1z M94,79h1v1h-1z M99,79h1v1h-1z M100,79h1v1h-1z M104,79h1v1h-1z M105,79h1v1h-1z M107,79h1v1h-1z M6,80h1v1h-1z M7,80h1v1h-1z M8,80h1v1h-1z M9,80h1v1h-1z M10,80h1v1h-1z M11,80h1v1h-1z M12,80h1v1h-1z M15,80h1v1h-1z M17,80h1v1h-1z M20,80h1v1h-1z M27,80h1v1h-1z M28,80h1v1h-1z M29,80h1v1h-1z M30,80h1v1h-1z M31,80h1v1h-1z M32,80h1v1h-1z M34,80h1v1h-1z M35,80h1v1h-1z M36,80h1v1h-1z M38,80h1v1h-1z M40,80h1v1h-1z M41,80h1v1h-1z M43,80h1v1h-1z M48,80h1v1h-1z M49,80h1v1h-1z M51,80h1v1h-1z M52,80h1v1h-1z M53,80h1v1h-1z M54,80h1v1h-1z M55,80h1v1h-1z M56,80h1v1h-1z M57,80h1v1h-1z M58,80h1v1h-1z M61,80h1v1h-1z M63,80h1v1h-1z M65,80h1v1h-1z M70,80h1v1h-1z M74,80h1v1h-1z M75,80h1v1h-1z M76,80h1v1h-1z M77,80h1v1h-1z M78,80h1v1h-1z M79,80h1v1h-1z M80,80h1v1h-1z M81,80h1v1h-1z M82,80h1v1h-1z M83,80h1v1h-1z M84,80h1v1h-1z M85,80h1v1h-1z M92,80h1v1h-1z M94,80h1v1h-1z M95,80h1v1h-1z M96,80h1v1h-1z M98,80h1v1h-1z M99,80h1v1h-1z M100,80h1v1h-1z M101,80h1v1h-1z M102,80h1v1h-1z M103,80h1v1h-1z M104,80h1v1h-1z M105,80h1v1h-1z M107,80h1v1h-1z M108,80h1v1h-1z M5,81h1v1h-1z M6,81h1v1h-1z M11,81h1v1h-1z M15,81h1v1h-1z M17,81h1v1h-1z M18,81h1v1h-1z M19,81h1v1h-1z M20,81h1v1h-1z M23,81h1v1h-1z M25,81h1v1h-1z M30,81h1v1h-1z M31,81h1v1h-1z M32,81h1v1h-1z M33,81h1v1h-1z M37,81h1v1h-1z M41,81h1v1h-1z M42,81h1v1h-1z M43,81h1v1h-1z M49,81h1v1h-1z M50,81h1v1h-1z M52,81h1v1h-1z M54,81h1v1h-1z M56,81h1v1h-1z M58,81h1v1h-1z M59,81h1v1h-1z M60,81h1v1h-1z M62,81h1v1h-1z M63,81h1v1h-1z M65,81h1v1h-1z M66,81h1v1h-1z M73,81h1v1h-1z M76,81h1v1h-1z M78,81h1v1h-1z M80,81h1v1h-1z M83,81h1v1h-1z M85,81h1v1h-1z M86,81h1v1h-1z M88,81h1v1h-1z M91,81h1v1h-1z M93,81h1v1h-1z M95,81h1v1h-1z M98,81h1v1h-1z M101,81h1v1h-1z M103,81h1v1h-1z M108,81h1v1h-1z M5,82h1v1h-1z M6,82h1v1h-1z M8,82h1v1h-1z M9,82h1v1h-1z M10,82h1v1h-1z M11,82h1v1h-1z M12,82h1v1h-1z M13,82h1v1h-1z M14,82h1v1h-1z M17,82h1v1h-1z M25,82h1v1h-1z M28,82h1v1h-1z M29,82h1v1h-1z M32,82h1v1h-1z M33,82h1v1h-1z M35,82h1v1h-1z M38,82h1v1h-1z M39,82h1v1h-1z M40,82h1v1h-1z M41,82h1v1h-1z M44,82h1v1h-1z M47,82h1v1h-1z M48,82h1v1h-1z M50,82h1v1h-1z M51,82h1v1h-1z M54,82h1v1h-1z M56,82h1v1h-1z M60,82h1v1h-1z M62,82h1v1h-1z M65,82h1v1h-1z M71,82h1v1h-1z M72,82h1v1h-1z M74,82h1v1h-1z M80,82h1v1h-1z M83,82h1v1h-1z M84,82h1v1h-1z M86,82h1v1h-1z M87,82h1v1h-1z M88,82h1v1h-1z M95,82h1v1h-1z M98,82h1v1h-1z M99,82h1v1h-1z M101,82h1v1h-1z M107,82h1v1h-1z M5,83h1v1h-1z M7,83h1v1h-1z M8,83h1v1h-1z M9,83h1v1h-1z M11,83h1v1h-1z M13,83h1v1h-1z M14,83h1v1h-1z M16,83h1v1h-1z M20,83h1v1h-1z M25,83h1v1h-1z M26,83h1v1h-1z M27,83h1v1h-1z M30,83h1v1h-1z M34,83h1v1h-1z M35,83h1v1h-1z M41,83h1v1h-1z M44,83h1v1h-1z M45,83h1v1h-1z M46,83h1v1h-1z M49,83h1v1h-1z M53,83h1v1h-1z M54,83h1v1h-1z M55,83h1v1h-1z M56,83h1v1h-1z M57,83h1v1h-1z M58,83h1v1h-1z M59,83h1v1h-1z M68,83h1v1h-1z M69,83h1v1h-1z M70,83h1v1h-1z M71,83h1v1h-1z M73,83h1v1h-1z M74,83h1v1h-1z M75,83h1v1h-1z M77,83h1v1h-1z M79,83h1v1h-1z M85,83h1v1h-1z M86,83h1v1h-1z M89,83h1v1h-1z M90,83h1v1h-1z M91,83h1v1h-1z M92,83h1v1h-1z M95,83h1v1h-1z M97,83h1v1h-1z M99,83h1v1h-1z M100,83h1v1h-1z M101,83h1v1h-1z M102,83h1v1h-1z M104,83h1v1h-1z M107,83h1v1h-1z M108,83h1v1h-1z M7,84h1v1h-1z M8,84h1v1h-1z M9,84h1v1h-1z M10,84h1v1h-1z M11,84h1v1h-1z M14,84h1v1h-1z M16,84h1v1h-1z M17,84h1v1h-1z M22,84h1v1h-1z M23,84h1v1h-1z M24,84h1v1h-1z M25,84h1v1h-1z M26,84h1v1h-1z M27,84h1v1h-1z M28,84h1v1h-1z M31,84h1v1h-1z M32,84h1v1h-1z M33,84h1v1h-1z M34,84h1v1h-1z M35,84h1v1h-1z M36,84h1v1h-1z M38,84h1v1h-1z M42,84h1v1h-1z M43,84h1v1h-1z M44,84h1v1h-1z M46,84h1v1h-1z M49,84h1v1h-1z M54,84h1v1h-1z M56,84h1v1h-1z M59,84h1v1h-1z M60,84h1v1h-1z M62,84h1v1h-1z M63,84h1v1h-1z M66,84h1v1h-1z M71,84h1v1h-1z M77,84h1v1h-1z M83,84h1v1h-1z M86,84h1v1h-1z M87,84h1v1h-1z M90,84h1v1h-1z M92,84h1v1h-1z M94,84h1v1h-1z M97,84h1v1h-1z M100,84h1v1h-1z M102,84h1v1h-1z M103,84h1v1h-1z M104,84h1v1h-1z M106,84h1v1h-1z M5,85h1v1h-1z M6,85h1v1h-1z M8,85h1v1h-1z M11,85h1v1h-1z M12,85h1v1h-1z M13,85h1v1h-1z M14,85h1v1h-1z M15,85h1v1h-1z M17,85h1v1h-1z M19,85h1v1h-1z M22,85h1v1h-1z M23,85h1v1h-1z M25,85h1v1h-1z M26,85h1v1h-1z M28,85h1v1h-1z M30,85h1v1h-1z M31,85h1v1h-1z M32,85h1v1h-1z M41,85h1v1h-1z M45,85h1v1h-1z M47,85h1v1h-1z M48,85h1v1h-1z M49,85h1v1h-1z M50,85h1v1h-1z M52,85h1v1h-1z M54,85h1v1h-1z M56,85h1v1h-1z M57,85h1v1h-1z M58,85h1v1h-1z M59,85h1v1h-1z M60,85h1v1h-1z M61,85h1v1h-1z M64,85h1v1h-1z M66,85h1v1h-1z M68,85h1v1h-1z M70,85h1v1h-1z M71,85h1v1h-1z M72,85h1v1h-1z M73,85h1v1h-1z M74,85h1v1h-1z M78,85h1v1h-1z M80,85h1v1h-1z M81,85h1v1h-1z M84,85h1v1h-1z M86,85h1v1h-1z M87,85h1v1h-1z M95,85h1v1h-1z M96,85h1v1h-1z M97,85h1v1h-1z M99,85h1v1h-1z M100,85h1v1h-1z M101,85h1v1h-1z M102,85h1v1h-1z M103,85h1v1h-1z M106,85h1v1h-1z M5,86h1v1h-1z M6,86h1v1h-1z M8,86h1v1h-1z M9,86h1v1h-1z M10,86h1v1h-1z M11,86h1v1h-1z M12,86h1v1h-1z M13,86h1v1h-1z M14,86h1v1h-1z M18,86h1v1h-1z M20,86h1v1h-1z M21,86h1v1h-1z M23,86h1v1h-1z M25,86h1v1h-1z M27,86h1v1h-1z M29,86h1v1h-1z M31,86h1v1h-1z M32,86h1v1h-1z M38,86h1v1h-1z M39,86h1v1h-1z M40,86h1v1h-1z M41,86h1v1h-1z M44,86h1v1h-1z M47,86h1v1h-1z M48,86h1v1h-1z M50,86h1v1h-1z M52,86h1v1h-1z M53,86h1v1h-1z M54,86h1v1h-1z M55,86h1v1h-1z M56,86h1v1h-1z M59,86h1v1h-1z M60,86h1v1h-1z M62,86h1v1h-1z M65,86h1v1h-1z M67,86h1v1h-1z M68,86h1v1h-1z M71,86h1v1h-1z M72,86h1v1h-1z M74,86h1v1h-1z M76,86h1v1h-1z M77,86h1v1h-1z M78,86h1v1h-1z M80,86h1v1h-1z M84,86h1v1h-1z M86,86h1v1h-1z M87,86h1v1h-1z M88,86h1v1h-1z M89,86h1v1h-1z M95,86h1v1h-1z M96,86h1v1h-1z M98,86h1v1h-1z M99,86h1v1h-1z M101,86h1v1h-1z M104,86h1v1h-1z M106,86h1v1h-1z M107,86h1v1h-1z M4,87h1v1h-1z M12,87h1v1h-1z M17,87h1v1h-1z M19,87h1v1h-1z M22,87h1v1h-1z M25,87h1v1h-1z M26,87h1v1h-1z M27,87h1v1h-1z M28,87h1v1h-1z M32,87h1v1h-1z M34,87h1v1h-1z M35,87h1v1h-1z M39,87h1v1h-1z M42,87h1v1h-1z M44,87h1v1h-1z M45,87h1v1h-1z M49,87h1v1h-1z M51,87h1v1h-1z M54,87h1v1h-1z M55,87h1v1h-1z M57,87h1v1h-1z M59,87h1v1h-1z M61,87h1v1h-1z M62,87h1v1h-1z M66,87h1v1h-1z M68,87h1v1h-1z M69,87h1v1h-1z M70,87h1v1h-1z M71,87h1v1h-1z M73,87h1v1h-1z M75,87h1v1h-1z M76,87h1v1h-1z M85,87h1v1h-1z M86,87h1v1h-1z M89,87h1v1h-1z M92,87h1v1h-1z M94,87h1v1h-1z M95,87h1v1h-1z M98,87h1v1h-1z M99,87h1v1h-1z M100,87h1v1h-1z M101,87h1v1h-1z M104,87h1v1h-1z M107,87h1v1h-1z M4,88h1v1h-1z M10,88h1v1h-1z M11,88h1v1h-1z M14,88h1v1h-1z M15,88h1v1h-1z M16,88h1v1h-1z M20,88h1v1h-1z M22,88h1v1h-1z M23,88h1v1h-1z M27,88h1v1h-1z M28,88h1v1h-1z M33,88h1v1h-1z M34,88h1v1h-1z M35,88h1v1h-1z M40,88h1v1h-1z M41,88h1v1h-1z M42,88h1v1h-1z M44,88h1v1h-1z M48,88h1v1h-1z M49,88h1v1h-1z M51,88h1v1h-1z M56,88h1v1h-1z M57,88h1v1h-1z M58,88h1v1h-1z M61,88h1v1h-1z M62,88h1v1h-1z M63,88h1v1h-1z M64,88h1v1h-1z M66,88h1v1h-1z M68,88h1v1h-1z M74,88h1v1h-1z M78,88h1v1h-1z M79,88h1v1h-1z M81,88h1v1h-1z M82,88h1v1h-1z M83,88h1v1h-1z M84,88h1v1h-1z M87,88h1v1h-1z M90,88h1v1h-1z M91,88h1v1h-1z M98,88h1v1h-1z M100,88h1v1h-1z M101,88h1v1h-1z M102,88h1v1h-1z M103,88h1v1h-1z M104,88h1v1h-1z M106,88h1v1h-1z M108,88h1v1h-1z M4,89h1v1h-1z M7,89h1v1h-1z M8,89h1v1h-1z M14,89h1v1h-1z M15,89h1v1h-1z M16,89h1v1h-1z M18,89h1v1h-1z M20,89h1v1h-1z M24,89h1v1h-1z M25,89h1v1h-1z M26,89h1v1h-1z M28,89h1v1h-1z M30,89h1v1h-1z M31,89h1v1h-1z M32,89h1v1h-1z M33,89h1v1h-1z M35,89h1v1h-1z M36,89h1v1h-1z M38,89h1v1h-1z M42,89h1v1h-1z M46,89h1v1h-1z M47,89h1v1h-1z M48,89h1v1h-1z M50,89h1v1h-1z M54,89h1v1h-1z M58,89h1v1h-1z M60,89h1v1h-1z M65,89h1v1h-1z M66,89h1v1h-1z M67,89h1v1h-1z M70,89h1v1h-1z M73,89h1v1h-1z M76,89h1v1h-1z M78,89h1v1h-1z M79,89h1v1h-1z M83,89h1v1h-1z M85,89h1v1h-1z M87,89h1v1h-1z M89,89h1v1h-1z M90,89h1v1h-1z M92,89h1v1h-1z M94,89h1v1h-1z M96,89h1v1h-1z M100,89h1v1h-1z M101,89h1v1h-1z M103,89h1v1h-1z M4,90h1v1h-1z M6,90h1v1h-1z M8,90h1v1h-1z M10,90h1v1h-1z M11,90h1v1h-1z M12,90h1v1h-1z M14,90h1v1h-1z M15,90h1v1h-1z M16,90h1v1h-1z M18,90h1v1h-1z M19,90h1v1h-1z M22,90h1v1h-1z M23,90h1v1h-1z M28,90h1v1h-1z M29,90h1v1h-1z M30,90h1v1h-1z M31,90h1v1h-1z M32,90h1v1h-1z M35,90h1v1h-1z M36,90h1v1h-1z M38,90h1v1h-1z M39,90h1v1h-1z M40,90h1v1h-1z M50,90h1v1h-1z M54,90h1v1h-1z M56,90h1v1h-1z M59,90h1v1h-1z M62,90h1v1h-1z M64,90h1v1h-1z M65,90h1v1h-1z M67,90h1v1h-1z M69,90h1v1h-1z M74,90h1v1h-1z M75,90h1v1h-1z M77,90h1v1h-1z M80,90h1v1h-1z M83,90h1v1h-1z M84,90h1v1h-1z M86,90h1v1h-1z M88,90h1v1h-1z M89,90h1v1h-1z M92,90h1v1h-1z M96,90h1v1h-1z M98,90h1v1h-1z M99,90h1v1h-1z M101,90h1v1h-1z M106,90h1v1h-1z M5,91h1v1h-1z M7,91h1v1h-1z M8,91h1v1h-1z M11,91h1v1h-1z M12,91h1v1h-1z M13,91h1v1h-1z M14,91h1v1h-1z M17,91h1v1h-1z M20,91h1v1h-1z M23,91h1v1h-1z M26,91h1v1h-1z M27,91h1v1h-1z M28,91h1v1h-1z M29,91h1v1h-1z M34,91h1v1h-1z M37,91h1v1h-1z M38,91h1v1h-1z M42,91h1v1h-1z M44,91h1v1h-1z M46,91h1v1h-1z M47,91h1v1h-1z M49,91h1v1h-1z M51,91h1v1h-1z M54,91h1v1h-1z M57,91h1v1h-1z M58,91h1v1h-1z M59,91h1v1h-1z M62,91h1v1h-1z M65,91h1v1h-1z M66,91h1v1h-1z M68,91h1v1h-1z M69,91h1v1h-1z M70,91h1v1h-1z M71,91h1v1h-1z M74,91h1v1h-1z M76,91h1v1h-1z M78,91h1v1h-1z M80,91h1v1h-1z M81,91h1v1h-1z M83,91h1v1h-1z M85,91h1v1h-1z M86,91h1v1h-1z M87,91h1v1h-1z M89,91h1v1h-1z M90,91h1v1h-1z M92,91h1v1h-1z M94,91h1v1h-1z M95,91h1v1h-1z M100,91h1v1h-1z M101,91h1v1h-1z M103,91h1v1h-1z M104,91h1v1h-1z M107,91h1v1h-1z M108,91h1v1h-1z M5,92h1v1h-1z M9,92h1v1h-1z M10,92h1v1h-1z M11,92h1v1h-1z M12,92h1v1h-1z M13,92h1v1h-1z M14,92h1v1h-1z M17,92h1v1h-1z M18,92h1v1h-1z M20,92h1v1h-1z M22,92h1v1h-1z M23,92h1v1h-1z M25,92h1v1h-1z M26,92h1v1h-1z M27,92h1v1h-1z M28,92h1v1h-1z M29,92h1v1h-1z M31,92h1v1h-1z M33,92h1v1h-1z M34,92h1v1h-1z M35,92h1v1h-1z M37,92h1v1h-1z M39,92h1v1h-1z M42,92h1v1h-1z M43,92h1v1h-1z M44,92h1v1h-1z M47,92h1v1h-1z M53,92h1v1h-1z M54,92h1v1h-1z M55,92h1v1h-1z M56,92h1v1h-1z M57,92h1v1h-1z M58,92h1v1h-1z M59,92h1v1h-1z M60,92h1v1h-1z M61,92h1v1h-1z M62,92h1v1h-1z M63,92h1v1h-1z M64,92h1v1h-1z M66,92h1v1h-1z M67,92h1v1h-1z M68,92h1v1h-1z M73,92h1v1h-1z M75,92h1v1h-1z M77,92h1v1h-1z M78,92h1v1h-1z M79,92h1v1h-1z M82,92h1v1h-1z M83,92h1v1h-1z M84,92h1v1h-1z M85,92h1v1h-1z M87,92h1v1h-1z M88,92h1v1h-1z M89,92h1v1h-1z M91,92h1v1h-1z M94,92h1v1h-1z M95,92h1v1h-1z M96,92h1v1h-1z M97,92h1v1h-1z M100,92h1v1h-1z M105,92h1v1h-1z M107,92h1v1h-1z M5,93h1v1h-1z M6,93h1v1h-1z M7,93h1v1h-1z M8,93h1v1h-1z M9,93h1v1h-1z M11,93h1v1h-1z M12,93h1v1h-1z M16,93h1v1h-1z M20,93h1v1h-1z M21,93h1v1h-1z M22,93h1v1h-1z M23,93h1v1h-1z M26,93h1v1h-1z M28,93h1v1h-1z M29,93h1v1h-1z M30,93h1v1h-1z M31,93h1v1h-1z M34,93h1v1h-1z M36,93h1v1h-1z M38,93h1v1h-1z M41,93h1v1h-1z M42,93h1v1h-1z M43,93h1v1h-1z M45,93h1v1h-1z M46,93h1v1h-1z M48,93h1v1h-1z M50,93h1v1h-1z M52,93h1v1h-1z M54,93h1v1h-1z M55,93h1v1h-1z M57,93h1v1h-1z M58,93h1v1h-1z M59,93h1v1h-1z M61,93h1v1h-1z M64,93h1v1h-1z M65,93h1v1h-1z M66,93h1v1h-1z M68,93h1v1h-1z M70,93h1v1h-1z M72,93h1v1h-1z M73,93h1v1h-1z M78,93h1v1h-1z M79,93h1v1h-1z M80,93h1v1h-1z M82,93h1v1h-1z M84,93h1v1h-1z M86,93h1v1h-1z M88,93h1v1h-1z M90,93h1v1h-1z M91,93h1v1h-1z M93,93h1v1h-1z M94,93h1v1h-1z M95,93h1v1h-1z M97,93h1v1h-1z M99,93h1v1h-1z M100,93h1v1h-1z M101,93h1v1h-1z M103,93h1v1h-1z M106,93h1v1h-1z M108,93h1v1h-1z M5,94h1v1h-1z M6,94h1v1h-1z M7,94h1v1h-1z M8,94h1v1h-1z M9,94h1v1h-1z M10,94h1v1h-1z M11,94h1v1h-1z M12,94h1v1h-1z M16,94h1v1h-1z M20,94h1v1h-1z M24,94h1v1h-1z M28,94h1v1h-1z M29,94h1v1h-1z M30,94h1v1h-1z M32,94h1v1h-1z M33,94h1v1h-1z M35,94h1v1h-1z M37,94h1v1h-1z M38,94h1v1h-1z M41,94h1v1h-1z M43,94h1v1h-1z M44,94h1v1h-1z M45,94h1v1h-1z M48,94h1v1h-1z M50,94h1v1h-1z M52,94h1v1h-1z M56,94h1v1h-1z M61,94h1v1h-1z M62,94h1v1h-1z M67,94h1v1h-1z M73,94h1v1h-1z M74,94h1v1h-1z M75,94h1v1h-1z M76,94h1v1h-1z M77,94h1v1h-1z M80,94h1v1h-1z M86,94h1v1h-1z M88,94h1v1h-1z M91,94h1v1h-1z M92,94h1v1h-1z M96,94h1v1h-1z M98,94h1v1h-1z M100,94h1v1h-1z M101,94h1v1h-1z M104,94h1v1h-1z M106,94h1v1h-1z M107,94h1v1h-1z M6,95h1v1h-1z M7,95h1v1h-1z M8,95h1v1h-1z M14,95h1v1h-1z M15,95h1v1h-1z M17,95h1v1h-1z M18,95h1v1h-1z M19,95h1v1h-1z M21,95h1v1h-1z M23,95h1v1h-1z M24,95h1v1h-1z M26,95h1v1h-1z M27,95h1v1h-1z M30,95h1v1h-1z M31,95h1v1h-1z M33,95h1v1h-1z M34,95h1v1h-1z M35,95h1v1h-1z M44,95h1v1h-1z M46,95h1v1h-1z M47,95h1v1h-1z M51,95h1v1h-1z M52,95h1v1h-1z M57,95h1v1h-1z M59,95h1v1h-1z M65,95h1v1h-1z M66,95h1v1h-1z M68,95h1v1h-1z M69,95h1v1h-1z M70,95h1v1h-1z M71,95h1v1h-1z M73,95h1v1h-1z M76,95h1v1h-1z M77,95h1v1h-1z M79,95h1v1h-1z M81,95h1v1h-1z M82,95h1v1h-1z M83,95h1v1h-1z M85,95h1v1h-1z M86,95h1v1h-1z M87,95h1v1h-1z M90,95h1v1h-1z M92,95h1v1h-1z M93,95h1v1h-1z M95,95h1v1h-1z M99,95h1v1h-1z M100,95h1v1h-1z M105,95h1v1h-1z M4,96h1v1h-1z M5,96h1v1h-1z M6,96h1v1h-1z M7,96h1v1h-1z M8,96h1v1h-1z M9,96h1v1h-1z M10,96h1v1h-1z M11,96h1v1h-1z M12,96h1v1h-1z M13,96h1v1h-1z M14,96h1v1h-1z M17,96h1v1h-1z M21,96h1v1h-1z M24,96h1v1h-1z M29,96h1v1h-1z M30,96h1v1h-1z M33,96h1v1h-1z M34,96h1v1h-1z M36,96h1v1h-1z M37,96h1v1h-1z M39,96h1v1h-1z M42,96h1v1h-1z M43,96h1v1h-1z M46,96h1v1h-1z M51,96h1v1h-1z M54,96h1v1h-1z M55,96h1v1h-1z M56,96h1v1h-1z M61,96h1v1h-1z M63,96h1v1h-1z M66,96h1v1h-1z M67,96h1v1h-1z M68,96h1v1h-1z M72,96h1v1h-1z M74,96h1v1h-1z M75,96h1v1h-1z M76,96h1v1h-1z M77,96h1v1h-1z M83,96h1v1h-1z M84,96h1v1h-1z M86,96h1v1h-1z M88,96h1v1h-1z M90,96h1v1h-1z M92,96h1v1h-1z M93,96h1v1h-1z M94,96h1v1h-1z M96,96h1v1h-1z M102,96h1v1h-1z M103,96h1v1h-1z M104,96h1v1h-1z M105,96h1v1h-1z M108,96h1v1h-1z M4,97h1v1h-1z M5,97h1v1h-1z M7,97h1v1h-1z M14,97h1v1h-1z M15,97h1v1h-1z M16,97h1v1h-1z M17,97h1v1h-1z M22,97h1v1h-1z M23,97h1v1h-1z M25,97h1v1h-1z M29,97h1v1h-1z M30,97h1v1h-1z M31,97h1v1h-1z M32,97h1v1h-1z M33,97h1v1h-1z M34,97h1v1h-1z M35,97h1v1h-1z M36,97h1v1h-1z M37,97h1v1h-1z M40,97h1v1h-1z M41,97h1v1h-1z M42,97h1v1h-1z M43,97h1v1h-1z M46,97h1v1h-1z M48,97h1v1h-1z M54,97h1v1h-1z M55,97h1v1h-1z M56,97h1v1h-1z M58,97h1v1h-1z M60,97h1v1h-1z M61,97h1v1h-1z M62,97h1v1h-1z M63,97h1v1h-1z M65,97h1v1h-1z M66,97h1v1h-1z M69,97h1v1h-1z M70,97h1v1h-1z M72,97h1v1h-1z M73,97h1v1h-1z M74,97h1v1h-1z M76,97h1v1h-1z M77,97h1v1h-1z M78,97h1v1h-1z M81,97h1v1h-1z M82,97h1v1h-1z M83,97h1v1h-1z M90,97h1v1h-1z M94,97h1v1h-1z M95,97h1v1h-1z M96,97h1v1h-1z M97,97h1v1h-1z M99,97h1v1h-1z M100,97h1v1h-1z M101,97h1v1h-1z M102,97h1v1h-1z M103,97h1v1h-1z M106,97h1v1h-1z M107,97h1v1h-1z M108,97h1v1h-1z M4,98h1v1h-1z M5,98h1v1h-1z M6,98h1v1h-1z M10,98h1v1h-1z M11,98h1v1h-1z M15,98h1v1h-1z M17,98h1v1h-1z M19,98h1v1h-1z M20,98h1v1h-1z M22,98h1v1h-1z M23,98h1v1h-1z M24,98h1v1h-1z M28,98h1v1h-1z M29,98h1v1h-1z M30,98h1v1h-1z M32,98h1v1h-1z M33,98h1v1h-1z M35,98h1v1h-1z M36,98h1v1h-1z M38,98h1v1h-1z M39,98h1v1h-1z M40,98h1v1h-1z M41,98h1v1h-1z M43,98h1v1h-1z M47,98h1v1h-1z M48,98h1v1h-1z M50,98h1v1h-1z M51,98h1v1h-1z M56,98h1v1h-1z M59,98h1v1h-1z M62,98h1v1h-1z M65,98h1v1h-1z M67,98h1v1h-1z M71,98h1v1h-1z M72,98h1v1h-1z M74,98h1v1h-1z M75,98h1v1h-1z M78,98h1v1h-1z M80,98h1v1h-1z M81,98h1v1h-1z M86,98h1v1h-1z M88,98h1v1h-1z M89,98h1v1h-1z M91,98h1v1h-1z M95,98h1v1h-1z M96,98h1v1h-1z M98,98h1v1h-1z M99,98h1v1h-1z M101,98h1v1h-1z M104,98h1v1h-1z M107,98h1v1h-1z M6,99h1v1h-1z M8,99h1v1h-1z M9,99h1v1h-1z M13,99h1v1h-1z M14,99h1v1h-1z M15,99h1v1h-1z M19,99h1v1h-1z M20,99h1v1h-1z M21,99h1v1h-1z M23,99h1v1h-1z M24,99h1v1h-1z M25,99h1v1h-1z M27,99h1v1h-1z M28,99h1v1h-1z M29,99h1v1h-1z M33,99h1v1h-1z M34,99h1v1h-1z M37,99h1v1h-1z M38,99h1v1h-1z M39,99h1v1h-1z M42,99h1v1h-1z M44,99h1v1h-1z M45,99h1v1h-1z M46,99h1v1h-1z M47,99h1v1h-1z M50,99h1v1h-1z M51,99h1v1h-1z M53,99h1v1h-1z M55,99h1v1h-1z M56,99h1v1h-1z M58,99h1v1h-1z M59,99h1v1h-1z M65,99h1v1h-1z M66,99h1v1h-1z M68,99h1v1h-1z M70,99h1v1h-1z M71,99h1v1h-1z M75,99h1v1h-1z M78,99h1v1h-1z M79,99h1v1h-1z M82,99h1v1h-1z M83,99h1v1h-1z M86,99h1v1h-1z M90,99h1v1h-1z M92,99h1v1h-1z M95,99h1v1h-1z M97,99h1v1h-1z M99,99h1v1h-1z M100,99h1v1h-1z M103,99h1v1h-1z M104,99h1v1h-1z M107,99h1v1h-1z M108,99h1v1h-1z M7,100h1v1h-1z M8,100h1v1h-1z M10,100h1v1h-1z M12,100h1v1h-1z M13,100h1v1h-1z M14,100h1v1h-1z M18,100h1v1h-1z M19,100h1v1h-1z M22,100h1v1h-1z M23,100h1v1h-1z M24,100h1v1h-1z M25,100h1v1h-1z M28,100h1v1h-1z M29,100h1v1h-1z M30,100h1v1h-1z M31,100h1v1h-1z M32,100h1v1h-1z M34,100h1v1h-1z M36,100h1v1h-1z M38,100h1v1h-1z M40,100h1v1h-1z M41,100h1v1h-1z M42,100h1v1h-1z M44,100h1v1h-1z M47,100h1v1h-1z M48,100h1v1h-1z M51,100h1v1h-1z M52,100h1v1h-1z M53,100h1v1h-1z M54,100h1v1h-1z M55,100h1v1h-1z M56,100h1v1h-1z M57,100h1v1h-1z M59,100h1v1h-1z M60,100h1v1h-1z M63,100h1v1h-1z M65,100h1v1h-1z M67,100h1v1h-1z M72,100h1v1h-1z M73,100h1v1h-1z M75,100h1v1h-1z M76,100h1v1h-1z M77,100h1v1h-1z M78,100h1v1h-1z M79,100h1v1h-1z M80,100h1v1h-1z M82,100h1v1h-1z M83,100h1v1h-1z M85,100h1v1h-1z M86,100h1v1h-1z M87,100h1v1h-1z M92,100h1v1h-1z M93,100h1v1h-1z M94,100h1v1h-1z M100,100h1v1h-1z M101,100h1v1h-1z M102,100h1v1h-1z M103,100h1v1h-1z M104,100h1v1h-1z M107,100h1v1h-1z M108,100h1v1h-1z M12,101h1v1h-1z M13,101h1v1h-1z M14,101h1v1h-1z M15,101h1v1h-1z M18,101h1v1h-1z M20,101h1v1h-1z M22,101h1v1h-1z M23,101h1v1h-1z M25,101h1v1h-1z M27,101h1v1h-1z M28,101h1v1h-1z M32,101h1v1h-1z M35,101h1v1h-1z M36,101h1v1h-1z M38,101h1v1h-1z M41,101h1v1h-1z M45,101h1v1h-1z M49,101h1v1h-1z M51,101h1v1h-1z M52,101h1v1h-1z M56,101h1v1h-1z M58,101h1v1h-1z M59,101h1v1h-1z M61,101h1v1h-1z M63,101h1v1h-1z M65,101h1v1h-1z M66,101h1v1h-1z M68,101h1v1h-1z M70,101h1v1h-1z M72,101h1v1h-1z M73,101h1v1h-1z M75,101h1v1h-1z M76,101h1v1h-1z M80,101h1v1h-1z M81,101h1v1h-1z M82,101h1v1h-1z M84,101h1v1h-1z M86,101h1v1h-1z M87,101h1v1h-1z M88,101h1v1h-1z M89,101h1v1h-1z M90,101h1v1h-1z M91,101h1v1h-1z M95,101h1v1h-1z M97,101h1v1h-1z M98,101h1v1h-1z M99,101h1v1h-1z M100,101h1v1h-1z M104,101h1v1h-1z M105,101h1v1h-1z M107,101h1v1h-1z M108,101h1v1h-1z M4,102h1v1h-1z M5,102h1v1h-1z M6,102h1v1h-1z M7,102h1v1h-1z M8,102h1v1h-1z M9,102h1v1h-1z M10,102h1v1h-1z M15,102h1v1h-1z M18,102h1v1h-1z M19,102h1v1h-1z M22,102h1v1h-1z M23,102h1v1h-1z M25,102h1v1h-1z M27,102h1v1h-1z M28,102h1v1h-1z M30,102h1v1h-1z M32,102h1v1h-1z M35,102h1v1h-1z M36,102h1v1h-1z M38,102h1v1h-1z M40,102h1v1h-1z M44,102h1v1h-1z M47,102h1v1h-1z M48,102h1v1h-1z M50,102h1v1h-1z M51,102h1v1h-1z M52,102h1v1h-1z M54,102h1v1h-1z M56,102h1v1h-1z M62,102h1v1h-1z M63,102h1v1h-1z M65,102h1v1h-1z M67,102h1v1h-1z M71,102h1v1h-1z M72,102h1v1h-1z M73,102h1v1h-1z M74,102h1v1h-1z M75,102h1v1h-1z M76,102h1v1h-1z M78,102h1v1h-1z M80,102h1v1h-1z M84,102h1v1h-1z M85,102h1v1h-1z M86,102h1v1h-1z M89,102h1v1h-1z M91,102h1v1h-1z M92,102h1v1h-1z M95,102h1v1h-1z M96,102h1v1h-1z M98,102h1v1h-1z M100,102h1v1h-1z M102,102h1v1h-1z M104,102h1v1h-1z M106,102h1v1h-1z M107,102h1v1h-1z M4,103h1v1h-1z M10,103h1v1h-1z M12,103h1v1h-1z M13,103h1v1h-1z M14,103h1v1h-1z M17,103h1v1h-1z M19,103h1v1h-1z M22,103h1v1h-1z M23,103h1v1h-1z M24,103h1v1h-1z M25,103h1v1h-1z M26,103h1v1h-1z M27,103h1v1h-1z M28,103h1v1h-1z M32,103h1v1h-1z M33,103h1v1h-1z M37,103h1v1h-1z M38,103h1v1h-1z M41,103h1v1h-1z M42,103h1v1h-1z M44,103h1v1h-1z M46,103h1v1h-1z M49,103h1v1h-1z M50,103h1v1h-1z M52,103h1v1h-1z M56,103h1v1h-1z M57,103h1v1h-1z M58,103h1v1h-1z M59,103h1v1h-1z M61,103h1v1h-1z M62,103h1v1h-1z M66,103h1v1h-1z M68,103h1v1h-1z M70,103h1v1h-1z M73,103h1v1h-1z M75,103h1v1h-1z M76,103h1v1h-1z M80,103h1v1h-1z M81,103h1v1h-1z M83,103h1v1h-1z M89,103h1v1h-1z M92,103h1v1h-1z M93,103h1v1h-1z M100,103h1v1h-1z M104,103h1v1h-1z M108,103h1v1h-1z M4,104h1v1h-1z M6,104h1v1h-1z M7,104h1v1h-1z M8,104h1v1h-1z M10,104h1v1h-1z M12,104h1v1h-1z M14,104h1v1h-1z M15,104h1v1h-1z M16,104h1v1h-1z M19,104h1v1h-1z M21,104h1v1h-1z M22,104h1v1h-1z M23,104h1v1h-1z M24,104h1v1h-1z M25,104h1v1h-1z M27,104h1v1h-1z M28,104h1v1h-1z M29,104h1v1h-1z M30,104h1v1h-1z M31,104h1v1h-1z M32,104h1v1h-1z M33,104h1v1h-1z M35,104h1v1h-1z M37,104h1v1h-1z M38,104h1v1h-1z M40,104h1v1h-1z M42,104h1v1h-1z M43,104h1v1h-1z M46,104h1v1h-1z M47,104h1v1h-1z M48,104h1v1h-1z M49,104h1v1h-1z M52,104h1v1h-1z M53,104h1v1h-1z M54,104h1v1h-1z M55,104h1v1h-1z M56,104h1v1h-1z M59,104h1v1h-1z M60,104h1v1h-1z M62,104h1v1h-1z M63,104h1v1h-1z M65,104h1v1h-1z M67,104h1v1h-1z M69,104h1v1h-1z M70,104h1v1h-1z M71,104h1v1h-1z M74,104h1v1h-1z M76,104h1v1h-1z M77,104h1v1h-1z M78,104h1v1h-1z M79,104h1v1h-1z M80,104h1v1h-1z M82,104h1v1h-1z M84,104h1v1h-1z M85,104h1v1h-1z M88,104h1v1h-1z M90,104h1v1h-1z M91,104h1v1h-1z M92,104h1v1h-1z M97,104h1v1h-1z M99,104h1v1h-1z M100,104h1v1h-1z M101,104h1v1h-1z M102,104h1v1h-1z M103,104h1v1h-1z M104,104h1v1h-1z M106,104h1v1h-1z M107,104h1v1h-1z M108,104h1v1h-1z M4,105h1v1h-1z M6,105h1v1h-1z M7,105h1v1h-1z M8,105h1v1h-1z M10,105h1v1h-1z M13,105h1v1h-1z M15,105h1v1h-1z M17,105h1v1h-1z M18,105h1v1h-1z M19,105h1v1h-1z M20,105h1v1h-1z M21,105h1v1h-1z M23,105h1v1h-1z M25,105h1v1h-1z M26,105h1v1h-1z M27,105h1v1h-1z M28,105h1v1h-1z M36,105h1v1h-1z M41,105h1v1h-1z M44,105h1v1h-1z M45,105h1v1h-1z M47,105h1v1h-1z M48,105h1v1h-1z M49,105h1v1h-1z M53,105h1v1h-1z M58,105h1v1h-1z M59,105h1v1h-1z M61,105h1v1h-1z M63,105h1v1h-1z M64,105h1v1h-1z M66,105h1v1h-1z M67,105h1v1h-1z M69,105h1v1h-1z M71,105h1v1h-1z M73,105h1v1h-1z M74,105h1v1h-1z M79,105h1v1h-1z M80,105h1v1h-1z M81,105h1v1h-1z M82,105h1v1h-1z M83,105h1v1h-1z M86,105h1v1h-1z M90,105h1v1h-1z M91,105h1v1h-1z M93,105h1v1h-1z M94,105h1v1h-1z M96,105h1v1h-1z M98,105h1v1h-1z M100,105h1v1h-1z M102,105h1v1h-1z M103,105h1v1h-1z M105,105h1v1h-1z M107,105h1v1h-1z M108,105h1v1h-1z M4,106h1v1h-1z M6,106h1v1h-1z M7,106h1v1h-1z M8,106h1v1h-1z M10,106h1v1h-1z M14,106h1v1h-1z M15,106h1v1h-1z M16,106h1v1h-1z M18,106h1v1h-1z M21,106h1v1h-1z M23,106h1v1h-1z M24,106h1v1h-1z M27,106h1v1h-1z M36,106h1v1h-1z M38,106h1v1h-1z M39,106h1v1h-1z M40,106h1v1h-1z M43,106h1v1h-1z M48,106h1v1h-1z M49,106h1v1h-1z M50,106h1v1h-1z M59,106h1v1h-1z M62,106h1v1h-1z M63,106h1v1h-1z M64,106h1v1h-1z M65,106h1v1h-1z M71,106h1v1h-1z M72,106h1v1h-1z M74,106h1v1h-1z M75,106h1v1h-1z M77,106h1v1h-1z M81,106h1v1h-1z M84,106h1v1h-1z M86,106h1v1h-1z M87,106h1v1h-1z M88,106h1v1h-1z M91,106h1v1h-1z M95,106h1v1h-1z M97,106h1v1h-1z M98,106h1v1h-1z M101,106h1v1h-1z M104,106h1v1h-1z M106,106h1v1h-1z M4,107h1v1h-1z M10,107h1v1h-1z M12,107h1v1h-1z M15,107h1v1h-1z M17,107h1v1h-1z M18,107h1v1h-1z M19,107h1v1h-1z M21,107h1v1h-1z M25,107h1v1h-1z M29,107h1v1h-1z M30,107h1v1h-1z M32,107h1v1h-1z M33,107h1v1h-1z M35,107h1v1h-1z M37,107h1v1h-1z M41,107h1v1h-1z M42,107h1v1h-1z M44,107h1v1h-1z M46,107h1v1h-1z M47,107h1v1h-1z M53,107h1v1h-1z M54,107h1v1h-1z M56,107h1v1h-1z M57,107h1v1h-1z M58,107h1v1h-1z M59,107h1v1h-1z M61,107h1v1h-1z M62,107h1v1h-1z M66,107h1v1h-1z M67,107h1v1h-1z M68,107h1v1h-1z M69,107h1v1h-1z M80,107h1v1h-1z M82,107h1v1h-1z M83,107h1v1h-1z M85,107h1v1h-1z M89,107h1v1h-1z M90,107h1v1h-1z M92,107h1v1h-1z M94,107h1v1h-1z M95,107h1v1h-1z M99,107h1v1h-1z M100,107h1v1h-1z M101,107h1v1h-1z M103,107h1v1h-1z M104,107h1v1h-1z M4,108h1v1h-1z M5,108h1v1h-1z M6,108h1v1h-1z M7,108h1v1h-1z M8,108h1v1h-1z M9,108h1v1h-1z M10,108h1v1h-1z M12,108h1v1h-1z M13,108h1v1h-1z M14,108h1v1h-1z M16,108h1v1h-1z M17,108h1v1h-1z M19,108h1v1h-1z M21,108h1v1h-1z M23,108h1v1h-1z M25,108h1v1h-1z M27,108h1v1h-1z M29,108h1v1h-1z M30,108h1v1h-1z M31,108h1v1h-1z M33,108h1v1h-1z M34,108h1v1h-1z M42,108h1v1h-1z M48,108h1v1h-1z M50,108h1v1h-1z M51,108h1v1h-1z M52,108h1v1h-1z M53,108h1v1h-1z M56,108h1v1h-1z M61,108h1v1h-1z M65,108h1v1h-1z M66,108h1v1h-1z M68,108h1v1h-1z M69,108h1v1h-1z M70,108h1v1h-1z M77,108h1v1h-1z M78,108h1v1h-1z M79,108h1v1h-1z M83,108h1v1h-1z M86,108h1v1h-1z M88,108h1v1h-1z M91,108h1v1h-1z M92,108h1v1h-1z M94,108h1v1h-1z M101,108h1v1h-1z M102,108h1v1h-1z M104,108h1v1h-1z M105,108h1v1h-1z M106,108h1v1h-1z M108,108h1v1h-1z" fill="#000000"/>
</svg>
