<?xml version="1.0" encoding="UTF-8"?>
<!DOCTYPE svg PUBLIC "-//W3C//DTD SVG 1.1//EN" "http://www.w3.org/Graphics/SVG/1.1/DTD/svg11.dtd">
<svg xmlns="http://www.w3.org/2000/svg" version="1.1" viewBox="0 0 113 113" stroke="none">
	<rect width="100%" height="100%" fill="#FFFFFF"/>
	<path d="M4,4h1v1h-1z M5,4h1v1h-1z M6,4h1v1h-1z M7,4h1v1h-1z M8,4h1v1h-1z M9,4h1v1h-1z M10,4h1v1h-1z M13,4h1v1h-1z M14,4h1v1h-1z M17,4h1v1h-1z M18,4h1v1h-1z M19,4h1v1h-1z M22,4h1v1h-1z M23,4h1v1h-1z M24,4h1v1h-1z M28,4h1v1h-1z M30,4h1v1h-1z M31,4h1v1h-1z M35,4h1v1h-1z M37,4h1v1h-1z M41,4h1v1h-1z M43,4h1v1h-1z M44,4h1v1h-1z M45,4h1v1h-1z M46,4h1v1h-1z M47,4h1v1h-1z M49,4h1v1h-1z M50,4h1v1h-1z M51,4h1v1h-1z M52,4h1v1h-1z M53,4h1v1h-1z M54,4h1v1h-1z M55,4h1v1h-1z M58,4h1v1h-1z M60,4h1v1h-1z M61,4h1v1h-1z M62,4h1v1h-1z M63,4h1v1h-1z M64,4h1v1h-1z M65,4h1v1h-1z M67,4h1v1h-1z M69,4h1v1h-1z M73,4h1v1h-1z M74,4h1v1h-1z M76,4h1v1h-1z M77,4h1v1h-1z M78,4h1v1h-1z M79,4h1v1h-1z M80,4h1v1h-1z M81,4h1v1h-1z M82,4h1v1h-1z M85,4h1v1h-1z M87,4h1v1h-1z M88,4h1v1h-1z M89,4h1v1h-1z M93,4h1v1h-1z M95,4h1v1h-1z M97,4h1v1h-1z M98,4h1v1h-1z M102,4h1v1h-1z M103,4h1v1h-1z M104,4h1v1h-1z M105,4h1v1h-1z M106,4h1v1h-1z M107,4h1v1h-1z M108,4h1v1h-1z M4,5h1v1h-1z M10,5h1v1h-1z M12,5h1v1h-1z M13,5h1v1h-1z M15,5h1v1h-1z M16,5h1v1h-1z M21,5h1v1h-1z M24,5h1v1h-1z M25,5h1v1h-1z M27,5h1v1h-1z M29,5h1v1h-1z M31,5h1v1h-1z M33,5h1v1h-1z M34,5h1v1h-1z M35,5h1v1h-1z M39,5h1v1h-1z M40,5h1v1h-1z M41,5h1v1h-1z M43,5h1v1h-1z M45,5h1v1h-1z M46,5h1v1h-1z M53,5h1v1h-1z M56,5h1v1h-1z M57,5h1v1h-1z M58,5h1v1h-1z M63,5h1v1h-1z M64,5h1v1h-1z M68,5h1v1h-1z M70,5h1v1h-1z M71,5h1v1h-1z M76,5h1v1h-1z M77,5h1v1h-1z M80,5h1v1h-1z M81,5h1v1h-1z M82,5h1v1h-1z M84,5h1v1h-1z M87,5h1v1h-1z M88,5h1v1h-1z M89,5h1v1h-1z M92,5h1v1h-1z M93,5h1v1h-1z M94,5h1v1h-1z M95,5h1v1h-1z M96,5h1v1h-1z M98,5h1v1h-1z M102,5h1v1h-1z M108,5h1v1h-1z M4,6h1v1h-1z M6,6h1v1h-1z M7,6h1v1h-1z M8,6h1v1h-1z M10,6h1v1h-1z M13,6h1v1h-1z M14,6h1v1h-1z M15,6h1v1h-1z M18,6h1v1h-1z M21,6h1v1h-1z M22,6h1v1h-1z M23,6h1v1h-1z M24,6h1v1h-1z M25,6h1v1h-1z M28,6h1v1h-1z M29,6h1v1h-1z M34,6h1v1h-1z M35,6h1v1h-1z M39,6h1v1h-1z M40,6h1v1h-1z M42,6h1v1h-1z M47,6h1v1h-1z M50,6h1v1h-1z M51,6h1v1h-1z M52,6h1v1h-1z M53,6h1v1h-1z M54,6h1v1h-1z M55,6h1v1h-1z M57,6h1v1h-1z M58,6h1v1h-1z M59,6h1v1h-1z M61,6h1v1h-1z M62,6h1v1h-1z M63,6h1v1h-1z M64,6h1v1h-1z M65,6h1v1h-1z M66,6h1v1h-1z M71,6h1v1h-1z M74,6h1v1h-1z M75,6h1v1h-1z M76,6h1v1h-1z M77,6h1v1h-1z M78,6h1v1h-1z M79,6h1v1h-1z M81,6h1v1h-1z M83,6h1v1h-1z M87,6h1v1h-1z M88,6h1v1h-1z M90,6h1v1h-1z M93,6h1v1h-1z M98,6h1v1h-1z M99,6h1v1h-1z M102,6h1v1h-1z M104,6h1v1h-1z M105,6h1v1h-1z M106,6h1v1h-1z M108,6h1v1h-1z M4,7h1v1h-1z M6,7h1v1h-1z M7,7h1v1h-1z M8,7h1v1h-1z M10,7h1v1h-1z M12,7h1v1h-1z M14,7h1v1h-1z M18,7h1v1h-1z M19,7h1v1h-1z M20,7h1v1h-1z M23,7h1v1h-1z M24,7h1v1h-1z M25,7h1v1h-1z M27,7h1v1h-1z M32,7h1v1h-1z M33,7h1v1h-1z M34,7h1v1h-1z M35,7h1v1h-1z M39,7h1v1h-1z M42,7h1v1h-1z M43,7h1v1h-1z M45,7h1v1h-1z M46,7h1v1h-1z M47,7h1v1h-1z M48,7h1v1h-1z M49,7h1v1h-1z M54,7h1v1h-1z M57,7h1v1h-1z M58,7h1v1h-1z M59,7h1v1h-1z M60,7h1v1h-1z M66,7h1v1h-1z M68,7h1v1h-1z M72,7h1v1h-1z M76,7h1v1h-1z M77,7h1v1h-1z M79,7h1v1h-1z M84,7h1v1h-1z M88,7h1v1h-1z M89,7h1v1h-1z M95,7h1v1h-1z M97,7h1v1h-1z M100,7h1v1h-1z M102,7h1v1h-1z M104,7h1v1h-1z M105,7h1v1h-1z M106,7h1v1h-1z M108,7h1v1h-1z M4,8h1v1h-1z M6,8h1v1h-1z M7,8h1v1h-1z M8,8h1v1h-1z M10,8h1v1h-1z M13,8h1v1h-1z M14,8h1v1h-1z M18,8h1v1h-1z M19,8h1v1h-1z M20,8h1v1h-1z M22,8h1v1h-1z M24,8h1v1h-1z M25,8h1v1h-1z M26,8h1v1h-1z M28,8h1v1h-1z M29,8h1v1h-1z M30,8h1v1h-1z M31,8h1v1h-1z M32,8h1v1h-1z M36,8h1v1h-1z M38,8h1v1h-1z M40,8h1v1h-1z M41,8h1v1h-1z M46,8h1v1h-1z M47,8h1v1h-1z M51,8h1v1h-1z M52,8h1v1h-1z M53,8h1v1h-1z M54,8h1v1h-1z M55,8h1v1h-1z M56,8h1v1h-1z M58,8h1v1h-1z M61,8h1v1h-1z M63,8h1v1h-1z M64,8h1v1h-1z M65,8h1v1h-1z M66,8h1v1h-1z M67,8h1v1h-1z M68,8h1v1h-1z M70,8h1v1h-1z M71,8h1v1h-1z M73,8h1v1h-1z M74,8h1v1h-1z M76,8h1v1h-1z M77,8h1v1h-1z M78,8h1v1h-1z M79,8h1v1h-1z M80,8h1v1h-1z M81,8h1v1h-1z M82,8h1v1h-1z M83,8h1v1h-1z M87,8h1v1h-1z M88,8h1v1h-1z M90,8h1v1h-1z M94,8h1v1h-1z M96,8h1v1h-1z M97,8h1v1h-1z M99,8h1v1h-1z M100,8h1v1h-1z M102,8h1v1h-1z M104,8h1v1h-1z M105,8h1v1h-1z M106,8h1v1h-1z M108,8h1v1h-1z M4,9h1v1h-1z M10,9h1v1h-1z M12,9h1v1h-1z M13,9h1v1h-1z M15,9h1v1h-1z M16,9h1v1h-1z M17,9h1v1h-1z M20,9h1v1h-1z M21,9h1v1h-1z M27,9h1v1h-1z M28,9h1v1h-1z M32,9h1v1h-1z M33,9h1v1h-1z M34,9h1v1h-1z M36,9h1v1h-1z M37,9h1v1h-1z M46,9h1v1h-1z M47,9h1v1h-1z M52,9h1v1h-1z M56,9h1v1h-1z M57,9h1v1h-1z M58,9h1v1h-1z M60,9h1v1h-1z M61,9h1v1h-1z M63,9h1v1h-1z M65,9h1v1h-1z M69,9h1v1h-1z M70,9h1v1h-1z M71,9h1v1h-1z M72,9h1v1h-1z M75,9h1v1h-1z M76,9h1v1h-1z M80,9h1v1h-1z M81,9h1v1h-1z M82,9h1v1h-1z M83,9h1v1h-1z M87,9h1v1h-1z M91,9h1v1h-1z M93,9h1v1h-1z M94,9h1v1h-1z M96,9h1v1h-1z M99,9h1v1h-1z M102,9h1v1h-1z M108,9h1v1h-1z M4,10h1v1h-1z M5,10h1v1h-1z M6,10h1v1h-1z M7,10h1v1h-1z M8,10h1v1h-1z M9,10h1v1h-1z M10,10h1v1h-1z M12,10h1v1h-1z M14,10h1v1h-1z M16,10h1v1h-1z M18,10h1v1h-1z M20,10h1v1h-1z M22,10h1v1h-1z M24,10h1v1h-1z M26,10h1v1h-1z M28,10h1v1h-1z M30,10h1v1h-1z M32,10h1v1h-1z M34,10h1v1h-1z M36,10h1v1h-1z M38,10h1v1h-1z M40,10h1v1h-1z M42,10h1v1h-1z M44,10h1v1h-1z M46,10h1v1h-1z M48,10h1v1h-1z M50,10h1v1h-1z M52,10h1v1h-1z M54,10h1v1h-1z M56,10h1v1h-1z M58,10h1v1h-1z M60,10h1v1h-1z M62,10h1v1h-1z M64,10h1v1h-1z M66,10h1v1h-1z M68,10h1v1h-1z M70,10h1v1h-1z M72,10h1v1h-1z M74,10h1v1h-1z M76,10h1v1h-1z M78,10h1v1h-1z M80,10h1v1h-1z M82,10h1v1h-1z M84,10h1v1h-1z M86,10h1v1h-1z M88,10h1v1h-1z M90,10h1v1h-1z M92,10h1v1h-1z M94,10h1v1h-1z M96,10h1v1h-1z M98,10h1v1h-1z M100,10h1v1h-1z M102,10h1v1h-1z M103,10h1v1h-1z M104,10h1v1h-1z M105,10h1v1h-1z M106,10h1v1h-1z M107,10h1v1h-1z M108,10h1v1h-1z M13,11h1v1h-1z M15,11h1v1h-1z M17,11h1v1h-1z M18,11h1v1h-1z M20,11h1v1h-1z M23,11h1v1h-1z M24,11h1v1h-1z M25,11h1v1h-1z M28,11h1v1h-1z M32,11h1v1h-1z M35,11h1v1h-1z M38,11h1v1h-1z M39,11h1v1h-1z M40,11h1v1h-1z M42,11h1v1h-1z M45,11h1v1h-1z M47,11h1v1h-1z M50,11h1v1h-1z M52,11h1v1h-1z M56,11h1v1h-1z M59,11h1v1h-1z M62,11h1v1h-1z M64,11h1v1h-1z M66,11h1v1h-1z M76,11h1v1h-1z M80,11h1v1h-1z M81,11h1v1h-1z M83,11h1v1h-1z M86,11h1v1h-1z M87,11h1v1h-1z M88,11h1v1h-1z M89,11h1v1h-1z M90,11h1v1h-1z M99,11h1v1h-1z M4,12h1v1h-1z M5,12h1v1h-1z M6,12h1v1h-1z M7,12h1v1h-1z M8,12h1v1h-1z M10,12h1v1h-1z M11,12h1v1h-1z M12,12h1v1h-1z M15,12h1v1h-1z M19,12h1v1h-1z M21,12h1v1h-1z M26,12h1v1h-1z M27,12h1v1h-1z M28,12h1v1h-1z M29,12h1v1h-1z M30,12h1v1h-1z M31,12h1v1h-1z M32,12h1v1h-1z M34,12h1v1h-1z M36,12h1v1h-1z M37,12h1v1h-1z M38,12h1v1h-1z M40,12h1v1h-1z M41,12h1v1h-1z M43,12h1v1h-1z M44,12h1v1h-1z M47,12h1v1h-1z M50,12h1v1h-1z M52,12h1v1h-1z M53,12h1v1h-1z M54,12h1v1h-1z M55,12h1v1h-1z M56,12h1v1h-1z M57,12h1v1h-1z M58,12h1v1h-1z M59,12h1v1h-1z M61,12h1v1h-1z M62,12h1v1h-1z M63,12h1v1h-1z M64,12h1v1h-1z M65,12h1v1h-1z M68,12h1v1h-1z M70,12h1v1h-1z M72,12h1v1h-1z M73,12h1v1h-1z M75,12h1v1h-1z M76,12h1v1h-1z M77,12h1v1h-1z M78,12h1v1h-1z M79,12h1v1h-1z M80,12h1v1h-1z M82,12h1v1h-1z M83,12h1v1h-1z M84,12h1v1h-1z M85,12h1v1h-1z M86,12h1v1h-1z M87,12h1v1h-1z M89,12h1v1h-1z M90,12h1v1h-1z M92,12h1v1h-1z M94,12h1v1h-1z M95,12h1v1h-1z M99,12h1v1h-1z M100,12h1v1h-1z M101,12h1v1h-1z M103,12h1v1h-1z M105,12h1v1h-1z M107,12h1v1h-1z M6,13h1v1h-1z M7,13h1v1h-1z M8,13h1v1h-1z M12,13h1v1h-1z M14,13h1v1h-1z M17,13h1v1h-1z M19,13h1v1h-1z M21,13h1v1h-1z M27,13h1v1h-1z M28,13h1v1h-1z M30,13h1v1h-1z M32,13h1v1h-1z M33,13h1v1h-1z M36,13h1v1h-1z M37,13h1v1h-1z M39,13h1v1h-1z M40,13h1v1h-1z M41,13h1v1h-1z M42,13h1v1h-1z M45,13h1v1h-1z M46,13h1v1h-1z M47,13h1v1h-1z M50,13h1v1h-1z M51,13h1v1h-1z M52,13h1v1h-1z M53,13h1v1h-1z M55,13h1v1h-1z M59,13h1v1h-1z M61,13h1v1h-1z M64,13h1v1h-1z M65,13h1v1h-1z M66,13h1v1h-1z M67,13h1v1h-1z M70,13h1v1h-1z M75,13h1v1h-1z M76,13h1v1h-1z M78,13h1v1h-1z M81,13h1v1h-1z M83,13h1v1h-1z M86,13h1v1h-1z M87,13h1v1h-1z M88,13h1v1h-1z M89,13h1v1h-1z M90,13h1v1h-1z M93,13h1v1h-1z M96,13h1v1h-1z M97,13h1v1h-1z M98,13h1v1h-1z M99,13h1v1h-1z M101,13h1v1h-1z M106,13h1v1h-1z M107,13h1v1h-1z M4,14h1v1h-1z M6,14h1v1h-1z M7,14h1v1h-1z M9,14h1v1h-1z M10,14h1v1h-1z M14,14h1v1h-1z M15,14h1v1h-1z M16,14h1v1h-1z M20,14h1v1h-1z M22,14h1v1h-1z M24,14h1v1h-1z M29,14h1v1h-1z M31,14h1v1h-1z M32,14h1v1h-1z M33,14h1v1h-1z M34,14h1v1h-1z M35,14h1v1h-1z M36,14h1v1h-1z M40,14h1v1h-1z M44,14h1v1h-1z M45,14h1v1h-1z M46,14h1v1h-1z M47,14h1v1h-1z M48,14h1v1h-1z M51,14h1v1h-1z M52,14h1v1h-1z M53,14h1v1h-1z M55,14h1v1h-1z M57,14h1v1h-1z M58,14h1v1h-1z M63,14h1v1h-1z M67,14h1v1h-1z M69,14h1v1h-1z M70,14h1v1h-1z M75,14h1v1h-1z M76,14h1v1h-1z M77,14h1v1h-1z M80,14h1v1h-1z M82,14h1v1h-1z M83,14h1v1h-1z M87,14h1v1h-1z M88,14h1v1h-1z M92,14h1v1h-1z M93,14h1v1h-1z M94,14h1v1h-1z M96,14h1v1h-1z M99,14h1v1h-1z M101,14h1v1h-1z M102,14h1v1h-1z M105,14h1v1h-1z M107,14h1v1h-1z M4,15h1v1h-1z M8,15h1v1h-1z M11,15h1v1h-1z M12,15h1v1h-1z M14,15h1v1h-1z M15,15h1v1h-1z M16,15h1v1h-1z M17,15h1v1h-1z M19,15h1v1h-1z M20,15h1v1h-1z M21,15h1v1h-1z M23,15h1v1h-1z M24,15h1v1h-1z M25,15h1v1h-1z M26,15h1v1h-1z M33,15h1v1h-1z M34,15h1v1h-1z M37,15h1v1h-1z M38,15h1v1h-1z M39,15h1v1h-1z M40,15h1v1h-1z M41,15h1v1h-1z M42,15h1v1h-1z M45,15h1v1h-1z M46,15h1v1h-1z M47,15h1v1h-1z M53,15h1v1h-1z M54,15h1v1h-1z M57,15h1v1h-1z M58,15h1v1h-1z M59,15h1v1h-1z M61,15h1v1h-1z M63,15h1v1h-1z M64,15h1v1h-1z M65,15h1v1h-1z M66,15h1v1h-1z M71,15h1v1h-1z M74,15h1v1h-1z M76,15h1v1h-1z M77,15h1v1h-1z M79,15h1v1h-1z M81,15h1v1h-1z M83,15h1v1h-1z M85,15h1v1h-1z M87,15h1v1h-1z M88,15h1v1h-1z M89,15h1v1h-1z M90,15h1v1h-1z M94,15h1v1h-1z M95,15h1v1h-1z M97,15h1v1h-1z M98,15h1v1h-1z M99,15h1v1h-1z M101,15h1v1h-1z M104,15h1v1h-1z M106,15h1v1h-1z M108,15h1v1h-1z M4,16h1v1h-1z M5,16h1v1h-1z M9,16h1v1h-1z M10,16h1v1h-1z M14,16h1v1h-1z M18,16h1v1h-1z M20,16h1v1h-1z M24,16h1v1h-1z M27,16h1v1h-1z M31,16h1v1h-1z M33,16h1v1h-1z M34,16h1v1h-1z M35,16h1v1h-1z M36,16h1v1h-1z M37,16h1v1h-1z M39,16h1v1h-1z M40,16h1v1h-1z M41,16h1v1h-1z M43,16h1v1h-1z M44,16h1v1h-1z M45,16h1v1h-1z M46,16h1v1h-1z M49,16h1v1h-1z M50,16h1v1h-1z M51,16h1v1h-1z M52,16h1v1h-1z M53,16h1v1h-1z M55,16h1v1h-1z M58,16h1v1h-1z M59,16h1v1h-1z M60,16h1v1h-1z M61,16h1v1h-1z M66,16h1v1h-1z M67,16h1v1h-1z M68,16h1v1h-1z M70,16h1v1h-1z M71,16h1v1h-1z M72,16h1v1h-1z M73,16h1v1h-1z M74,16h1v1h-1z M75,16h1v1h-1z M80,16h1v1h-1z M81,16h1v1h-1z M82,16h1v1h-1z M85,16h1v1h-1z M87,16h1v1h-1z M92,16h1v1h-1z M94,16h1v1h-1z M95,16h1v1h-1z M96,16h1v1h-1z M99,16h1v1h-1z M100,16h1v1h-1z M101,16h1v1h-1z M103,16h1v1h-1z M107,16h1v1h-1z M5,17h1v1h-1z M6,17h1v1h-1z M7,17h1v1h-1z M8,17h1v1h-1z M9,17h1v1h-1z M15,17h1v1h-1z M16,17h1v1h-1z M17,17h1v1h-1z M19,17h1v1h-1z M21,17h1v1h-1z M22,17h1v1h-1z M23,17h1v1h-1z M24,17h1v1h-1z M25,17h1v1h-1z M28,17h1v1h-1z M30,17h1v1h-1z M31,17h1v1h-1z M34,17h1v1h-1z M35,17h1v1h-1z M38,17h1v1h-1z M40,17h1v1h-1z M42,17h1v1h-1z M43,17h1v1h-1z M47,17h1v1h-1z M51,17h1v1h-1z M52,17h1v1h-1z M53,17h1v1h-1z M57,17h1v1h-1z M60,17h1v1h-1z M61,17h1v1h-1z M62,17h1v1h-1z M63,17h1v1h-1z M64,17h1v1h-1z M65,17h1v1h-1z M67,17h1v1h-1z M71,17h1v1h-1z M72,17h1v1h-1z M73,17h1v1h-1z M75,17h1v1h-1z M76,17h1v1h-1z M78,17h1v1h-1z M80,17h1v1h-1z M81,17h1v1h-1z M82,17h1v1h-1z M83,17h1v1h-1z M85,17h1v1h-1z M86,17h1v1h-1z M89,17h1v1h-1z M90,17h1v1h-1z M91,17h1v1h-1z M92,17h1v1h-1z M95,17h1v1h-1z M96,17h1v1h-1z M99,17h1v1h-1z M100,17h1v1h-1z M101,17h1v1h-1z M102,17h1v1h-1z M103,17h1v1h-1z M107,17h1v1h-1z M108,17h1v1h-1z M4,18h1v1h-1z M6,18h1v1h-1z M7,18h1v1h-1z M8,18h1v1h-1z M9,18h1v1h-1z M10,18h1v1h-1z M12,18h1v1h-1z M14,18h1v1h-1z M16,18h1v1h-1z M17,18h1v1h-1z M18,18h1v1h-1z M20,18h1v1h-1z M22,18h1v1h-1z M28,18h1v1h-1z M29,18h1v1h-1z M33,18h1v1h-1z M34,18h1v1h-1z M35,18h1v1h-1z M40,18h1v1h-1z M41,18h1v1h-1z M43,18h1v1h-1z M44,18h1v1h-1z M45,18h1v1h-1z M46,18h1v1h-1z M47,18h1v1h-1z M48,18h1v1h-1z M56,18h1v1h-1z M57,18h1v1h-1z M58,18h1v1h-1z M59,18h1v1h-1z M60,18h1v1h-1z M64,18h1v1h-1z M65,18h1v1h-1z M69,18h1v1h-1z M70,18h1v1h-1z M71,18h1v1h-1z M76,18h1v1h-1z M77,18h1v1h-1z M79,18h1v1h-1z M82,18h1v1h-1z M88,18h1v1h-1z M92,18h1v1h-1z M93,18h1v1h-1z M94,18h1v1h-1z M95,18h1v1h-1z M99,18h1v1h-1z M101,18h1v1h-1z M102,18h1v1h-1z M105,18h1v1h-1z M106,18h1v1h-1z M107,18h1v1h-1z M6,19h1v1h-1z M9,19h1v1h-1z M11,19h1v1h-1z M13,19h1v1h-1z M14,19h1v1h-1z M15,19h1v1h-1z M16,19h1v1h-1z M17,19h1v1h-1z M20,19h1v1h-1z M23,19h1v1h-1z M25,19h1v1h-1z M26,19h1v1h-1z M29,19h1v1h-1z M30,19h1v1h-1z M33,19h1v1h-1z M35,19h1v1h-1z M37,19h1v1h-1z M38,19h1v1h-1z M39,19h1v1h-1z M40,19h1v1h-1z M42,19h1v1h-1z M47,19h1v1h-1z M50,19h1v1h-1z M53,19h1v1h-1z M54,19h1v1h-1z M55,19h1v1h-1z M59,19h1v1h-1z M63,19h1v1h-1z M64,19h1v1h-1z M65,19h1v1h-1z M66,19h1v1h-1z M69,19h1v1h-1z M71,19h1v1h-1z M78,19h1v1h-1z M81,19h1v1h-1z M83,19h1v1h-1z M85,19h1v1h-1z M87,19h1v1h-1z M88,19h1v1h-1z M90,19h1v1h-1z M91,19h1v1h-1z M93,19h1v1h-1z M95,19h1v1h-1z M98,19h1v1h-1z M99,19h1v1h-1z M101,19h1v1h-1z M103,19h1v1h-1z M104,19h1v1h-1z M105,19h1v1h-1z M106,19h1v1h-1z M107,19h1v1h-1z M4,20h1v1h-1z M7,20h1v1h-1z M9,20h1v1h-1z M10,20h1v1h-1z M11,20h1v1h-1z M12,20h1v1h-1z M13,20h1v1h-1z M17,20h1v1h-1z M19,20h1v1h-1z M20,20h1v1h-1z M21,20h1v1h-1z M22,20h1v1h-1z M23,20h1v1h-1z M27,20h1v1h-1z M29,20h1v1h-1z M30,20h1v1h-1z M31,20h1v1h-1z M36,20h1v1h-1z M37,20h1v1h-1z M38,20h1v1h-1z M40,20h1v1h-1z M41,20h1v1h-1z M42,20h1v1h-1z M43,20h1v1h-1z M44,20h1v1h-1z M46,20h1v1h-1z M47,20h1v1h-1z M53,20h1v1h-1z M54,20h1v1h-1z M56,20h1v1h-1z M58,20h1v1h-1z M59,20h1v1h-1z M61,20h1v1h-1z M62,20h1v1h-1z M64,20h1v1h-1z M65,20h1v1h-1z M67,20h1v1h-1z M81,20h1v1h-1z M82,20h1v1h-1z M89,20h1v1h-1z M91,20h1v1h-1z M92,20h1v1h-1z M100,20h1v1h-1z M102,20h1v1h-1z M103,20h1v1h-1z M105,20h1v1h-1z M108,20h1v1h-1z M4,21h1v1h-1z M6,21h1v1h-1z M7,21h1v1h-1z M11,21h1v1h-1z M12,21h1v1h-1z M15,21h1v1h-1z M16,21h1v1h-1z M17,21h1v1h-1z M18,21h1v1h-1z M20,21h1v1h-1z M21,21h1v1h-1z M22,21h1v1h-1z M23,21h1v1h-1z M26,21h1v1h-1z M28,21h1v1h-1z M29,21h1v1h-1z M30,21h1v1h-1z M31,21h1v1h-1z M33,21h1v1h-1z M34,21h1v1h-1z M35,21h1v1h-1z M38,21h1v1h-1z M40,21h1v1h-1z M42,21h1v1h-1z M48,21h1v1h-1z M49,21h1v1h-1z M50,21h1v1h-1z M52,21h1v1h-1z M53,21h1v1h-1z M54,21h1v1h-1z M55,21h1v1h-1z M58,21h1v1h-1z M59,21h1v1h-1z M60,21h1v1h-1z M62,21h1v1h-1z M63,21h1v1h-1z M64,21h1v1h-1z M66,21h1v1h-1z M67,21h1v1h-1z M68,21h1v1h-1z M69,21h1v1h-1z M70,21h1v1h-1z M72,21h1v1h-1z M73,21h1v1h-1z M75,21h1v1h-1z M76,21h1v1h-1z M78,21h1v1h-1z M81,21h1v1h-1z M83,21h1v1h-1z M85,21h1v1h-1z M86,21h1v1h-1z M88,21h1v1h-1z M93,21h1v1h-1z M96,21h1v1h-1z M98,21h1v1h-1z M102,21h1v1h-1z M104,21h1v1h-1z M105,21h1v1h-1z M106,21h1v1h-1z M107,21h1v1h-1z M4,22h1v1h-1z M7,22h1v1h-1z M8,22h1v1h-1z M9,22h1v1h-1z M10,22h1v1h-1z M11,22h1v1h-1z M12,22h1v1h-1z M13,22h1v1h-1z M14,22h1v1h-1z M19,22h1v1h-1z M24,22h1v1h-1z M28,22h1v1h-1z M29,22h1v1h-1z M31,22h1v1h-1z M32,22h1v1h-1z M33,22h1v1h-1z M34,22h1v1h-1z M35,22h1v1h-1z M36,22h1v1h-1z M37,22h1v1h-1z M41,22h1v1h-1z M43,22h1v1h-1z M44,22h1v1h-1z M45,22h1v1h-1z M46,22h1v1h-1z M47,22h1v1h-1z M48,22h1v1h-1z M51,22h1v1h-1z M52,22h1v1h-1z M53,22h1v1h-1z M56,22h1v1h-1z M57,22h1v1h-1z M58,22h1v1h-1z M59,22h1v1h-1z M60,22h1v1h-1z M61,22h1v1h-1z M65,22h1v1h-1z M68,22h1v1h-1z M69,22h1v1h-1z M70,22h1v1h-1z M71,22h1v1h-1z M76,22h1v1h-1z M77,22h1v1h-1z M80,22h1v1h-1z M81,22h1v1h-1z M82,22h1v1h-1z M84,22h1v1h-1z M87,22h1v1h-1z M89,22h1v1h-1z M93,22h1v1h-1z M94,22h1v1h-1z M99,22h1v1h-1z M100,22h1v1h-1z M101,22h1v1h-1z M102,22h1v1h-1z M107,22h1v1h-1z M4,23h1v1h-1z M8,23h1v1h-1z M11,23h1v1h-1z M13,23h1v1h-1z M14,23h1v1h-1z M17,23h1v1h-1z M19,23h1v1h-1z M20,23h1v1h-1z M21,23h1v1h-1z M24,23h1v1h-1z M26,23h1v1h-1z M27,23h1v1h-1z M28,23h1v1h-1z M30,23h1v1h-1z M34,23h1v1h-1z M38,23h1v1h-1z M40,23h1v1h-1z M42,23h1v1h-1z M45,23h1v1h-1z M47,23h1v1h-1z M50,23h1v1h-1z M52,23h1v1h-1z M55,23h1v1h-1z M57,23h1v1h-1z M58,23h1v1h-1z M62,23h1v1h-1z M64,23h1v1h-1z M65,23h1v1h-1z M67,23h1v1h-1z M69,23h1v1h-1z M70,23h1v1h-1z M71,23h1v1h-1z M73,23h1v1h-1z M74,23h1v1h-1z M75,23h1v1h-1z M77,23h1v1h-1z M78,23h1v1h-1z M81,23h1v1h-1z M82,23h1v1h-1z M83,23h1v1h-1z M86,23h1v1h-1z M87,23h1v1h-1z M88,23h1v1h-1z M89,23h1v1h-1z M90,23h1v1h-1z M93,23h1v1h-1z M95,23h1v1h-1z M97,23h1v1h-1z M103,23h1v1h-1z M104,23h1v1h-1z M106,23h1v1h-1z M4,24h1v1h-1z M5,24h1v1h-1z M6,24h1v1h-1z M8,24h1v1h-1z M9,24h1v1h-1z M10,24h1v1h-1z M11,24h1v1h-1z M13,24h1v1h-1z M14,24h1v1h-1z M16,24h1v1h-1z M17,24h1v1h-1z M18,24h1v1h-1z M19,24h1v1h-1z M23,24h1v1h-1z M24,24h1v1h-1z M28,24h1v1h-1z M32,24h1v1h-1z M34,24h1v1h-1z M35,24h1v1h-1z M36,24h1v1h-1z M37,24h1v1h-1z M39,24h1v1h-1z M41,24h1v1h-1z M43,24h1v1h-1z M46,24h1v1h-1z M47,24h1v1h-1z M50,24h1v1h-1z M51,24h1v1h-1z M52,24h1v1h-1z M54,24h1v1h-1z M55,24h1v1h-1z M56,24h1v1h-1z M59,24h1v1h-1z M62,24h1v1h-1z M63,24h1v1h-1z M65,24h1v1h-1z M67,24h1v1h-1z M68,24h1v1h-1z M69,24h1v1h-1z M70,24h1v1h-1z M73,24h1v1h-1z M78,24h1v1h-1z M79,24h1v1h-1z M80,24h1v1h-1z M86,24h1v1h-1z M91,24h1v1h-1z M92,24h1v1h-1z M96,24h1v1h-1z M97,24h1v1h-1z M99,24h1v1h-1z M100,24h1v1h-1z M101,24h1v1h-1z M102,24h1v1h-1z M103,24h1v1h-1z M104,24h1v1h-1z M105,24h1v1h-1z M108,24h1v1h-1z M5,25h1v1h-1z M6,25h1v1h-1z M8,25h1v1h-1z M9,25h1v1h-1z M16,25h1v1h-1z M18,25h1v1h-1z M19,25h1v1h-1z M20,25h1v1h-1z M23,25h1v1h-1z M24,25h1v1h-1z M25,25h1v1h-1z M26,25h1v1h-1z M27,25h1v1h-1z M28,25h1v1h-1z M31,25h1v1h-1z M32,25h1v1h-1z M34,25h1v1h-1z M35,25h1v1h-1z M36,25h1v1h-1z M38,25h1v1h-1z M39,25h1v1h-1z M40,25h1v1h-1z M43,25h1v1h-1z M48,25h1v1h-1z M50,25h1v1h-1z M51,25h1v1h-1z M52,25h1v1h-1z M55,25h1v1h-1z M56,25h1v1h-1z M57,25h1v1h-1z M58,25h1v1h-1z M63,25h1v1h-1z M64,25h1v1h-1z M66,25h1v1h-1z M72,25h1v1h-1z M73,25h1v1h-1z M74,25h1v1h-1z M75,25h1v1h-1z M76,25h1v1h-1z M77,25h1v1h-1z M83,25h1v1h-1z M84,25h1v1h-1z M85,25h1v1h-1z M88,25h1v1h-1z M90,25h1v1h-1z M93,25h1v1h-1z M94,25h1v1h-1z M97,25h1v1h-1z M98,25h1v1h-1z M101,25h1v1h-1z M106,25h1v1h-1z M4,26h1v1h-1z M5,26h1v1h-1z M7,26h1v1h-1z M8,26h1v1h-1z M10,26h1v1h-1z M11,26h1v1h-1z M12,26h1v1h-1z M14,26h1v1h-1z M15,26h1v1h-1z M18,26h1v1h-1z M19,26h1v1h-1z M21,26h1v1h-1z M23,26h1v1h-1z M28,26h1v1h-1z M29,26h1v1h-1z M32,26h1v1h-1z M34,26h1v1h-1z M35,26h1v1h-1z M36,26h1v1h-1z M41,26h1v1h-1z M43,26h1v1h-1z M44,26h1v1h-1z M45,26h1v1h-1z M46,26h1v1h-1z M47,26h1v1h-1z M51,26h1v1h-1z M53,26h1v1h-1z M56,26h1v1h-1z M57,26h1v1h-1z M58,26h1v1h-1z M59,26h1v1h-1z M60,26h1v1h-1z M61,26h1v1h-1z M64,26h1v1h-1z M65,26h1v1h-1z M68,26h1v1h-1z M70,26h1v1h-1z M71,26h1v1h-1z M72,26h1v1h-1z M77,26h1v1h-1z M80,26h1v1h-1z M82,26h1v1h-1z M83,26h1v1h-1z M84,26h1v1h-1z M85,26h1v1h-1z M87,26h1v1h-1z M89,26h1v1h-1z M91,26h1v1h-1z M93,26h1v1h-1z M94,26h1v1h-1z M95,26h1v1h-1z M96,26h1v1h-1z M102,26h1v1h-1z M107,26h1v1h-1z M6,27h1v1h-1z M12,27h1v1h-1z M13,27h1v1h-1z M14,27h1v1h-1z M16,27h1v1h-1z M18,27h1v1h-1z M19,27h1v1h-1z M20,27h1v1h-1z M22,27h1v1h-1z M24,27h1v1h-1z M26,27h1v1h-1z M29,27h1v1h-1z M37,27h1v1h-1z M38,27h1v1h-1z M39,27h1v1h-1z M40,27h1v1h-1z M42,27h1v1h-1z M45,27h1v1h-1z M47,27h1v1h-1z M50,27h1v1h-1z M52,27h1v1h-1z M54,27h1v1h-1z M55,27h1v1h-1z M61,27h1v1h-1z M62,27h1v1h-1z M63,27h1v1h-1z M64,27h1v1h-1z M65,27h1v1h-1z M66,27h1v1h-1z M67,27h1v1h-1z M69,27h1v1h-1z M71,27h1v1h-1z M74,27h1v1h-1z M75,27h1v1h-1z M76,27h1v1h-1z M81,27h1v1h-1z M83,27h1v1h-1z M85,27h1v1h-1z M86,27h1v1h-1z M88,27h1v1h-1z M93,27h1v1h-1z M95,27h1v1h-1z M97,27h1v1h-1z M101,27h1v1h-1z M103,27h1v1h-1z M104,27h1v1h-1z M105,27h1v1h-1z M106,27h1v1h-1z M107,27h1v1h-1z M108,27h1v1h-1z M5,28h1v1h-1z M6,28h1v1h-1z M8,28h1v1h-1z M9,28h1v1h-1z M10,28h1v1h-1z M11,28h1v1h-1z M12,28h1v1h-1z M13,28h1v1h-1z M14,28h1v1h-1z M17,28h1v1h-1z M20,28h1v1h-1z M27,28h1v1h-1z M28,28h1v1h-1z M29,28h1v1h-1z M30,28h1v1h-1z M31,28h1v1h-1z M32,28h1v1h-1z M34,28h1v1h-1z M37,28h1v1h-1z M43,28h1v1h-1z M44,28h1v1h-1z M46,28h1v1h-1z M47,28h1v1h-1z M48,28h1v1h-1z M49,28h1v1h-1z M50,28h1v1h-1z M52,28h1v1h-1z M53,28h1v1h-1z M54,28h1v1h-1z M55,28h1v1h-1z M56,28h1v1h-1z M57,28h1v1h-1z M58,28h1v1h-1z M59,28h1v1h-1z M60,28h1v1h-1z M61,28h1v1h-1z M62,28h1v1h-1z M64,28h1v1h-1z M66,28h1v1h-1z M67,28h1v1h-1z M68,28h1v1h-1z M71,28h1v1h-1z M73,28h1v1h-1z M76,28h1v1h-1z M77,28h1v1h-1z M78,28h1v1h-1z M79,28h1v1h-1z M80,28h1v1h-1z M81,28h1v1h-1z M82,28h1v1h-1z M83,28h1v1h-1z M84,28h1v1h-1z M85,28h1v1h-1z M88,28h1v1h-1z M89,28h1v1h-1z M91,28h1v1h-1z M92,28h1v1h-1z M94,28h1v1h-1z M95,28h1v1h-1z M96,28h1v1h-1z M97,28h1v1h-1z M98,28h1v1h-1z M99,28h1v1h-1z M100,28h1v1h-1z M101,28h1v1h-1z M102,28h1v1h-1z M103,28h1v1h-1z M104,28h1v1h-1z M105,28h1v1h-1z M7,29h1v1h-1z M8,29h1v1h-1z M12,29h1v1h-1z M14,29h1v1h-1z M17,29h1v1h-1z M19,29h1v1h-1z M20,29h1v1h-1z M22,29h1v1h-1z M24,29h1v1h-1z M25,29h1v1h-1z M27,29h1v1h-1z M28,29h1v1h-1z M32,29h1v1h-1z M34,29h1v1h-1z M35,29h1v1h-1z M38,29h1v1h-1z M39,29h1v1h-1z M40,29h1v1h-1z M41,29h1v1h-1z M42,29h1v1h-1z M43,29h1v1h-1z M44,29h1v1h-1z M51,29h1v1h-1z M52,29h1v1h-1z M56,29h1v1h-1z M59,29h1v1h-1z M65,29h1v1h-1z M66,29h1v1h-1z M68,29h1v1h-1z M69,29h1v1h-1z M72,29h1v1h-1z M74,29h1v1h-1z M75,29h1v1h-1z M76,29h1v1h-1z M80,29h1v1h-1z M81,29h1v1h-1z M82,29h1v1h-1z M84,29h1v1h-1z M85,29h1v1h-1z M87,29h1v1h-1z M88,29h1v1h-1z M89,29h1v1h-1z M91,29h1v1h-1z M93,29h1v1h-1z M94,29h1v1h-1z M97,29h1v1h-1z M98,29h1v1h-1z M100,29h1v1h-1z M104,29h1v1h-1z M105,29h1v1h-1z M5,30h1v1h-1z M6,30h1v1h-1z M7,30h1v1h-1z M8,30h1v1h-1z M10,30h1v1h-1z M12,30h1v1h-1z M16,30h1v1h-1z M17,30h1v1h-1z M18,30h1v1h-1z M19,30h1v1h-1z M21,30h1v1h-1z M22,30h1v1h-1z M23,30h1v1h-1z M25,30h1v1h-1z M28,30h1v1h-1z M30,30h1v1h-1z M32,30h1v1h-1z M34,30h1v1h-1z M35,30h1v1h-1z M36,30h1v1h-1z M39,30h1v1h-1z M40,30h1v1h-1z M41,30h1v1h-1z M44,30h1v1h-1z M45,30h1v1h-1z M46,30h1v1h-1z M47,30h1v1h-1z M51,30h1v1h-1z M52,30h1v1h-1z M54,30h1v1h-1z M56,30h1v1h-1z M57,30h1v1h-1z M58,30h1v1h-1z M63,30h1v1h-1z M64,30h1v1h-1z M65,30h1v1h-1z M68,30h1v1h-1z M69,30h1v1h-1z M70,30h1v1h-1z M71,30h1v1h-1z M75,30h1v1h-1z M76,30h1v1h-1z M78,30h1v1h-1z M80,30h1v1h-1z M82,30h1v1h-1z M83,30h1v1h-1z M85,30h1v1h-1z M89,30h1v1h-1z M91,30h1v1h-1z M93,30h1v1h-1z M94,30h1v1h-1z M95,30h1v1h-1z M96,30h1v1h-1z M99,30h1v1h-1z M100,30h1v1h-1z M102,30h1v1h-1z M104,30h1v1h-1z M106,30h1v1h-1z M107,30h1v1h-1z M5,31h1v1h-1z M6,31h1v1h-1z M7,31h1v1h-1z M8,31h1v1h-1z M12,31h1v1h-1z M18,31h1v1h-1z M26,31h1v1h-1z M28,31h1v1h-1z M32,31h1v1h-1z M35,31h1v1h-1z M37,31h1v1h-1z M39,31h1v1h-1z M40,31h1v1h-1z M41,31h1v1h-1z M43,31h1v1h-1z M47,31h1v1h-1z M52,31h1v1h-1z M56,31h1v1h-1z M57,31h1v1h-1z M58,31h1v1h-1z M59,31h1v1h-1z M61,31h1v1h-1z M63,31h1v1h-1z M64,31h1v1h-1z M65,31h1v1h-1z M66,31h1v1h-1z M67,31h1v1h-1z M69,31h1v1h-1z M71,31h1v1h-1z M73,31h1v1h-1z M76,31h1v1h-1z M80,31h1v1h-1z M83,31h1v1h-1z M86,31h1v1h-1z M87,31h1v1h-1z M88,31h1v1h-1z M89,31h1v1h-1z M90,31h1v1h-1z M93,31h1v1h-1z M95,31h1v1h-1z M99,31h1v1h-1z M100,31h1v1h-1z M104,31h1v1h-1z M105,31h1v1h-1z M106,31h1v1h-1z M108,31h1v1h-1z M5,32h1v1h-1z M6,32h1v1h-1z M7,32h1v1h-1z M8,32h1v1h-1z M9,32h1v1h-1z M10,32h1v1h-1z M11,32h1v1h-1z M12,32h1v1h-1z M15,32h1v1h-1z M16,32h1v1h-1z M17,32h1v1h-1z M18,32h1v1h-1z M19,32h1v1h-1z M21,32h1v1h-1z M22,32h1v1h-1z M23,32h1v1h-1z M24,32h1v1h-1z M26,32h1v1h-1z M28,32h1v1h-1z M29,32h1v1h-1z M30,32h1v1h-1z M31,32h1v1h-1z M32,32h1v1h-1z M33,32h1v1h-1z M34,32h1v1h-1z M36,32h1v1h-1z M37,32h1v1h-1z M38,32h1v1h-1z M39,32h1v1h-1z M42,32h1v1h-1z M44,32h1v1h-1z M46,32h1v1h-1z M48,32h1v1h-1z M50,32h1v1h-1z M52,32h1v1h-1z M53,32h1v1h-1z M54,32h1v1h-1z M55,32h1v1h-1z M56,32h1v1h-1z M57,32h1v1h-1z M60,32h1v1h-1z M64,32h1v1h-1z M65,32h1v1h-1z M68,32h1v1h-1z M69,32h1v1h-1z M70,32h1v1h-1z M73,32h1v1h-1z M74,32h1v1h-1z M76,32h1v1h-1z M77,32h1v1h-1z M78,32h1v1h-1z M79,32h1v1h-1z M80,32h1v1h-1z M87,32h1v1h-1z M89,32h1v1h-1z M91,32h1v1h-1z M93,32h1v1h-1z M99,32h1v1h-1z M100,32h1v1h-1z M101,32h1v1h-1z M102,32h1v1h-1z M103,32h1v1h-1z M104,32h1v1h-1z M105,32h1v1h-1z M107,32h1v1h-1z M5,33h1v1h-1z M7,33h1v1h-1z M8,33h1v1h-1z M9,33h1v1h-1z M12,33h1v1h-1z M16,33h1v1h-1z M17,33h1v1h-1z M20,33h1v1h-1z M21,33h1v1h-1z M24,33h1v1h-1z M25,33h1v1h-1z M26,33h1v1h-1z M27,33h1v1h-1z M32,33h1v1h-1z M39,33h1v1h-1z M40,33h1v1h-1z M43,33h1v1h-1z M44,33h1v1h-1z M45,33h1v1h-1z M46,33h1v1h-1z M48,33h1v1h-1z M49,33h1v1h-1z M50,33h1v1h-1z M56,33h1v1h-1z M58,33h1v1h-1z M59,33h1v1h-1z M62,33h1v1h-1z M63,33h1v1h-1z M64,33h1v1h-1z M66,33h1v1h-1z M67,33h1v1h-1z M68,33h1v1h-1z M70,33h1v1h-1z M72,33h1v1h-1z M73,33h1v1h-1z M74,33h1v1h-1z M79,33h1v1h-1z M80,33h1v1h-1z M82,33h1v1h-1z M84,33h1v1h-1z M85,33h1v1h-1z M86,33h1v1h-1z M87,33h1v1h-1z M88,33h1v1h-1z M90,33h1v1h-1z M91,33h1v1h-1z M93,33h1v1h-1z M96,33h1v1h-1z M99,33h1v1h-1z M102,33h1v1h-1z M108,33h1v1h-1z M5,34h1v1h-1z M9,34h1v1h-1z M10,34h1v1h-1z M12,34h1v1h-1z M13,34h1v1h-1z M16,34h1v1h-1z M17,34h1v1h-1z M18,34h1v1h-1z M19,34h1v1h-1z M20,34h1v1h-1z M21,34h1v1h-1z M22,34h1v1h-1z M23,34h1v1h-1z M24,34h1v1h-1z M26,34h1v1h-1z M28,34h1v1h-1z M30,34h1v1h-1z M31,34h1v1h-1z M34,34h1v1h-1z M35,34h1v1h-1z M40,34h1v1h-1z M41,34h1v1h-1z M44,34h1v1h-1z M46,34h1v1h-1z M48,34h1v1h-1z M49,34h1v1h-1z M52,34h1v1h-1z M53,34h1v1h-1z M54,34h1v1h-1z M55,34h1v1h-1z M57,34h1v1h-1z M58,34h1v1h-1z M63,34h1v1h-1z M65,34h1v1h-1z M67,34h1v1h-1z M68,34h1v1h-1z M69,34h1v1h-1z M70,34h1v1h-1z M71,34h1v1h-1z M76,34h1v1h-1z M82,34h1v1h-1z M83,34h1v1h-1z M87,34h1v1h-1z M89,34h1v1h-1z M91,34h1v1h-1z M92,34h1v1h-1z M93,34h1v1h-1z M94,34h1v1h-1z M95,34h1v1h-1z M96,34h1v1h-1z M99,34h1v1h-1z M102,34h1v1h-1z M103,34h1v1h-1z M105,34h1v1h-1z M107,34h1v1h-1z M6,35h1v1h-1z M12,35h1v1h-1z M16,35h1v1h-1z M18,35h1v1h-1z M24,35h1v1h-1z M25,35h1v1h-1z M27,35h1v1h-1z M29,35h1v1h-1z M31,35h1v1h-1z M32,35h1v1h-1z M33,35h1v1h-1z M35,35h1v1h-1z M38,35h1v1h-1z M39,35h1v1h-1z M40,35h1v1h-1z M41,35h1v1h-1z M47,35h1v1h-1z M50,35h1v1h-1z M53,35h1v1h-1z M55,35h1v1h-1z M58,35h1v1h-1z M59,35h1v1h-1z M61,35h1v1h-1z M63,35h1v1h-1z M64,35h1v1h-1z M66,35h1v1h-1z M69,35h1v1h-1z M71,35h1v1h-1z M73,35h1v1h-1z M74,35h1v1h-1z M75,35h1v1h-1z M77,35h1v1h-1z M80,35h1v1h-1z M83,35h1v1h-1z M85,35h1v1h-1z M86,35h1v1h-1z M87,35h1v1h-1z M88,35h1v1h-1z M97,35h1v1h-1z M100,35h1v1h-1z M102,35h1v1h-1z M105,35h1v1h-1z M106,35h1v1h-1z M108,35h1v1h-1z M4,36h1v1h-1z M6,36h1v1h-1z M7,36h1v1h-1z M8,36h1v1h-1z M9,36h1v1h-1z M10,36h1v1h-1z M12,36h1v1h-1z M13,36h1v1h-1z M14,36h1v1h-1z M15,36h1v1h-1z M16,36h1v1h-1z M18,36h1v1h-1z M19,36h1v1h-1z M20,36h1v1h-1z M21,36h1v1h-1z M22,36h1v1h-1z M24,36h1v1h-1z M25,36h1v1h-1z M31,36h1v1h-1z M35,36h1v1h-1z M36,36h1v1h-1z M41,36h1v1h-1z M44,36h1v1h-1z M46,36h1v1h-1z M47,36h1v1h-1z M49,36h1v1h-1z M50,36h1v1h-1z M52,36h1v1h-1z M53,36h1v1h-1z M54,36h1v1h-1z M60,36h1v1h-1z M61,36h1v1h-1z M62,36h1v1h-1z M63,36h1v1h-1z M65,36h1v1h-1z M68,36h1v1h-1z M69,36h1v1h-1z M70,36h1v1h-1z M77,36h1v1h-1z M85,36h1v1h-1z M86,36h1v1h-1z M87,36h1v1h-1z M92,36h1v1h-1z M94,36h1v1h-1z M95,36h1v1h-1z M96,36h1v1h-1z M97,36h1v1h-1z M98,36h1v1h-1z M99,36h1v1h-1z M103,36h1v1h-1z M105,36h1v1h-1z M108,36h1v1h-1z M4,37h1v1h-1z M6,37h1v1h-1z M7,37h1v1h-1z M8,37h1v1h-1z M13,37h1v1h-1z M20,37h1v1h-1z M21,37h1v1h-1z M26,37h1v1h-1z M27,37h1v1h-1z M28,37h1v1h-1z M34,37h1v1h-1z M37,37h1v1h-1z M38,37h1v1h-1z M39,37h1v1h-1z M42,37h1v1h-1z M44,37h1v1h-1z M45,37h1v1h-1z M48,37h1v1h-1z M49,37h1v1h-1z M52,37h1v1h-1z M56,37h1v1h-1z M57,37h1v1h-1z M58,37h1v1h-1z M61,37h1v1h-1z M65,37h1v1h-1z M68,37h1v1h-1z M70,37h1v1h-1z M71,37h1v1h-1z M74,37h1v1h-1z M75,37h1v1h-1z M77,37h1v1h-1z M78,37h1v1h-1z M82,37h1v1h-1z M84,37h1v1h-1z M90,37h1v1h-1z M91,37h1v1h-1z M92,37h1v1h-1z M94,37h1v1h-1z M101,37h1v1h-1z M102,37h1v1h-1z M105,37h1v1h-1z M106,37h1v1h-1z M6,38h1v1h-1z M10,38h1v1h-1z M12,38h1v1h-1z M14,38h1v1h-1z M17,38h1v1h-1z M18,38h1v1h-1z M19,38h1v1h-1z M20,38h1v1h-1z M22,38h1v1h-1z M23,38h1v1h-1z M29,38h1v1h-1z M30,38h1v1h-1z M31,38h1v1h-1z M33,38h1v1h-1z M34,38h1v1h-1z M39,38h1v1h-1z M40,38h1v1h-1z M41,38h1v1h-1z M43,38h1v1h-1z M45,38h1v1h-1z M46,38h1v1h-1z M52,38h1v1h-1z M53,38h1v1h-1z M54,38h1v1h-1z M58,38h1v1h-1z M63,38h1v1h-1z M64,38h1v1h-1z M65,38h1v1h-1z M69,38h1v1h-1z M70,38h1v1h-1z M75,38h1v1h-1z M76,38h1v1h-1z M77,38h1v1h-1z M78,38h1v1h-1z M79,38h1v1h-1z M80,38h1v1h-1z M81,38h1v1h-1z M82,38h1v1h-1z M84,38h1v1h-1z M89,38h1v1h-1z M92,38h1v1h-1z M93,38h1v1h-1z M94,38h1v1h-1z M95,38h1v1h-1z M96,38h1v1h-1z M99,38h1v1h-1z M102,38h1v1h-1z M104,38h1v1h-1z M107,38h1v1h-1z M4,39h1v1h-1z M5,39h1v1h-1z M6,39h1v1h-1z M7,39h1v1h-1z M9,39h1v1h-1z M14,39h1v1h-1z M15,39h1v1h-1z M16,39h1v1h-1z M17,39h1v1h-1z M18,39h1v1h-1z M19,39h1v1h-1z M20,39h1v1h-1z M22,39h1v1h-1z M23,39h1v1h-1z M27,39h1v1h-1z M32,39h1v1h-1z M33,39h1v1h-1z M35,39h1v1h-1z M37,39h1v1h-1z M38,39h1v1h-1z M39,39h1v1h-1z M40,39h1v1h-1z M42,39h1v1h-1z M47,39h1v1h-1z M53,39h1v1h-1z M56,39h1v1h-1z M57,39h1v1h-1z M59,39h1v1h-1z M63,39h1v1h-1z M64,39h1v1h-1z M69,39h1v1h-1z M71,39h1v1h-1z M73,39h1v1h-1z M74,39h1v1h-1z M77,39h1v1h-1z M80,39h1v1h-1z M81,39h1v1h-1z M83,39h1v1h-1z M86,39h1v1h-1z M87,39h1v1h-1z M88,39h1v1h-1z M90,39h1v1h-1z M91,39h1v1h-1z M95,39h1v1h-1z M97,39h1v1h-1z M98,39h1v1h-1z M106,39h1v1h-1z M108,39h1v1h-1z M8,40h1v1h-1z M10,40h1v1h-1z M11,40h1v1h-1z M15,40h1v1h-1z M17,40h1v1h-1z M19,40h1v1h-1z M23,40h1v1h-1z M24,40h1v1h-1z M28,40h1v1h-1z M29,40h1v1h-1z M30,40h1v1h-1z M31,40h1v1h-1z M33,40h1v1h-1z M36,40h1v1h-1z M37,40h1v1h-1z M38,40h1v1h-1z M41,40h1v1h-1z M44,40h1v1h-1z M45,40h1v1h-1z M46,40h1v1h-1z M47,40h1v1h-1z M49,40h1v1h-1z M50,40h1v1h-1z M52,40h1v1h-1z M59,40h1v1h-1z M60,40h1v1h-1z M63,40h1v1h-1z M67,40h1v1h-1z M72,40h1v1h-1z M77,40h1v1h-1z M84,40h1v1h-1z M85,40h1v1h-1z M86,40h1v1h-1z M90,40h1v1h-1z M91,40h1v1h-1z M92,40h1v1h-1z M93,40h1v1h-1z M94,40h1v1h-1z M95,40h1v1h-1z M96,40h1v1h-1z M97,40h1v1h-1z M98,40h1v1h-1z M99,40h1v1h-1z M100,40h1v1h-1z M101,40h1v1h-1z M104,40h1v1h-1z M105,40h1v1h-1z M4,41h1v1h-1z M6,41h1v1h-1z M9,41h1v1h-1z M12,41h1v1h-1z M15,41h1v1h-1z M17,41h1v1h-1z M18,41h1v1h-1z M19,41h1v1h-1z M20,41h1v1h-1z M22,41h1v1h-1z M23,41h1v1h-1z M24,41h1v1h-1z M29,41h1v1h-1z M30,41h1v1h-1z M31,41h1v1h-1z M36,41h1v1h-1z M39,41h1v1h-1z M40,41h1v1h-1z M42,41h1v1h-1z M44,41h1v1h-1z M45,41h1v1h-1z M46,41h1v1h-1z M47,41h1v1h-1z M51,41h1v1h-1z M52,41h1v1h-1z M54,41h1v1h-1z M55,41h1v1h-1z M57,41h1v1h-1z M58,41h1v1h-1z M61,41h1v1h-1z M64,41h1v1h-1z M65,41h1v1h-1z M66,41h1v1h-1z M67,41h1v1h-1z M68,41h1v1h-1z M69,41h1v1h-1z M73,41h1v1h-1z M74,41h1v1h-1z M75,41h1v1h-1z M78,41h1v1h-1z M80,41h1v1h-1z M82,41h1v1h-1z M83,41h1v1h-1z M85,41h1v1h-1z M87,41h1v1h-1z M88,41h1v1h-1z M89,41h1v1h-1z M91,41h1v1h-1z M95,41h1v1h-1z M99,41h1v1h-1z M100,41h1v1h-1z M101,41h1v1h-1z M105,41h1v1h-1z M106,41h1v1h-1z M107,41h1v1h-1z M108,41h1v1h-1z M6,42h1v1h-1z M10,42h1v1h-1z M11,42h1v1h-1z M12,42h1v1h-1z M13,42h1v1h-1z M15,42h1v1h-1z M16,42h1v1h-1z M18,42h1v1h-1z M20,42h1v1h-1z M22,42h1v1h-1z M24,42h1v1h-1z M25,42h1v1h-1z M26,42h1v1h-1z M28,42h1v1h-1z M30,42h1v1h-1z M31,42h1v1h-1z M33,42h1v1h-1z M34,42h1v1h-1z M35,42h1v1h-1z M39,42h1v1h-1z M41,42h1v1h-1z M45,42h1v1h-1z M46,42h1v1h-1z M47,42h1v1h-1z M48,42h1v1h-1z M52,42h1v1h-1z M54,42h1v1h-1z M57,42h1v1h-1z M58,42h1v1h-1z M59,42h1v1h-1z M60,42h1v1h-1z M61,42h1v1h-1z M64,42h1v1h-1z M65,42h1v1h-1z M67,42h1v1h-1z M69,42h1v1h-1z M70,42h1v1h-1z M71,42h1v1h-1z M72,42h1v1h-1z M77,42h1v1h-1z M81,42h1v1h-1z M82,42h1v1h-1z M83,42h1v1h-1z M84,42h1v1h-1z M87,42h1v1h-1z M89,42h1v1h-1z M92,42h1v1h-1z M93,42h1v1h-1z M94,42h1v1h-1z M95,42h1v1h-1z M96,42h1v1h-1z M102,42h1v1h-1z M103,42h1v1h-1z M104,42h1v1h-1z M106,42h1v1h-1z M7,43h1v1h-1z M11,43h1v1h-1z M12,43h1v1h-1z M13,43h1v1h-1z M14,43h1v1h-1z M16,43h1v1h-1z M17,43h1v1h-1z M18,43h1v1h-1z M20,43h1v1h-1z M21,43h1v1h-1z M22,43h1v1h-1z M24,43h1v1h-1z M25,43h1v1h-1z M26,43h1v1h-1z M27,43h1v1h-1z M28,43h1v1h-1z M29,43h1v1h-1z M32,43h1v1h-1z M33,43h1v1h-1z M35,43h1v1h-1z M38,43h1v1h-1z M39,43h1v1h-1z M40,43h1v1h-1z M41,43h1v1h-1z M42,43h1v1h-1z M46,43h1v1h-1z M47,43h1v1h-1z M49,43h1v1h-1z M51,43h1v1h-1z M55,43h1v1h-1z M56,43h1v1h-1z M57,43h1v1h-1z M59,43h1v1h-1z M62,43h1v1h-1z M63,43h1v1h-1z M64,43h1v1h-1z M65,43h1v1h-1z M70,43h1v1h-1z M74,43h1v1h-1z M77,43h1v1h-1z M79,43h1v1h-1z M81,43h1v1h-1z M82,43h1v1h-1z M83,43h1v1h-1z M85,43h1v1h-1z M87,43h1v1h-1z M88,43h1v1h-1z M89,43h1v1h-1z M90,43h1v1h-1z M97,43h1v1h-1z M100,43h1v1h-1z M105,43h1v1h-1z M106,43h1v1h-1z M108,43h1v1h-1z M4,44h1v1h-1z M7,44h1v1h-1z M9,44h1v1h-1z M10,44h1v1h-1z M12,44h1v1h-1z M15,44h1v1h-1z M17,44h1v1h-1z M21,44h1v1h-1z M22,44h1v1h-1z M24,44h1v1h-1z M26,44h1v1h-1z M27,44h1v1h-1z M28,44h1v1h-1z M30,44h1v1h-1z M31,44h1v1h-1z M33,44h1v1h-1z M34,44h1v1h-1z M36,44h1v1h-1z M37,44h1v1h-1z M41,44h1v1h-1z M42,44h1v1h-1z M43,44h1v1h-1z M45,44h1v1h-1z M46,44h1v1h-1z M47,44h1v1h-1z M48,44h1v1h-1z M49,44h1v1h-1z M53,44h1v1h-1z M54,44h1v1h-1z M61,44h1v1h-1z M62,44h1v1h-1z M67,44h1v1h-1z M68,44h1v1h-1z M69,44h1v1h-1z M71,44h1v1h-1z M72,44h1v1h-1z M82,44h1v1h-1z M83,44h1v1h-1z M84,44h1v1h-1z M85,44h1v1h-1z M87,44h1v1h-1z M92,44h1v1h-1z M97,44h1v1h-1z M98,44h1v1h-1z M100,44h1v1h-1z M101,44h1v1h-1z M105,44h1v1h-1z M107,44h1v1h-1z M108,44h1v1h-1z M4,45h1v1h-1z M5,45h1v1h-1z M6,45h1v1h-1z M8,45h1v1h-1z M9,45h1v1h-1z M11,45h1v1h-1z M12,45h1v1h-1z M15,45h1v1h-1z M16,45h1v1h-1z M17,45h1v1h-1z M18,45h1v1h-1z M19,45h1v1h-1z M20,45h1v1h-1z M21,45h1v1h-1z M23,45h1v1h-1z M24,45h1v1h-1z M25,45h1v1h-1z M26,45h1v1h-1z M29,45h1v1h-1z M31,45h1v1h-1z M32,45h1v1h-1z M34,45h1v1h-1z M36,45h1v1h-1z M37,45h1v1h-1z M40,45h1v1h-1z M41,45h1v1h-1z M42,45h1v1h-1z M43,45h1v1h-1z M44,45h1v1h-1z M47,45h1v1h-1z M48,45h1v1h-1z M49,45h1v1h-1z M50,45h1v1h-1z M52,45h1v1h-1z M55,45h1v1h-1z M57,45h1v1h-1z M58,45h1v1h-1z M60,45h1v1h-1z M61,45h1v1h-1z M64,45h1v1h-1z M66,45h1v1h-1z M67,45h1v1h-1z M69,45h1v1h-1z M72,45h1v1h-1z M74,45h1v1h-1z M75,45h1v1h-1z M76,45h1v1h-1z M77,45h1v1h-1z M79,45h1v1h-1z M80,45h1v1h-1z M81,45h1v1h-1z M82,45h1v1h-1z M83,45h1v1h-1z M85,45h1v1h-1z M86,45h1v1h-1z M90,45h1v1h-1z M91,45h1v1h-1z M92,45h1v1h-1z M97,45h1v1h-1z M99,45h1v1h-1z M100,45h1v1h-1z M101,45h1v1h-1z M105,45h1v1h-1z M106,45h1v1h-1z M7,46h1v1h-1z M8,46h1v1h-1z M10,46h1v1h-1z M12,46h1v1h-1z M13,46h1v1h-1z M15,46h1v1h-1z M16,46h1v1h-1z M17,46h1v1h-1z M22,46h1v1h-1z M25,46h1v1h-1z M27,46h1v1h-1z M28,46h1v1h-1z M30,46h1v1h-1z M33,46h1v1h-1z M34,46h1v1h-1z M35,46h1v1h-1z M37,46h1v1h-1z M41,46h1v1h-1z M43,46h1v1h-1z M45,46h1v1h-1z M46,46h1v1h-1z M48,46h1v1h-1z M51,46h1v1h-1z M53,46h1v1h-1z M54,46h1v1h-1z M57,46h1v1h-1z M58,46h1v1h-1z M60,46h1v1h-1z M63,46h1v1h-1z M68,46h1v1h-1z M69,46h1v1h-1z M70,46h1v1h-1z M72,46h1v1h-1z M75,46h1v1h-1z M77,46h1v1h-1z M78,46h1v1h-1z M79,46h1v1h-1z M82,46h1v1h-1z M87,46h1v1h-1z M89,46h1v1h-1z M92,46h1v1h-1z M93,46h1v1h-1z M94,46h1v1h-1z M95,46h1v1h-1z M96,46h1v1h-1z M103,46h1v1h-1z M104,46h1v1h-1z M106,46h1v1h-1z M107,46h1v1h-1z M4,47h1v1h-1z M5,47h1v1h-1z M7,47h1v1h-1z M12,47h1v1h-1z M16,47h1v1h-1z M17,47h1v1h-1z M18,47h1v1h-1z M19,47h1v1h-1z M21,47h1v1h-1z M22,47h1v1h-1z M23,47h1v1h-1z M24,47h1v1h-1z M25,47h1v1h-1z M26,47h1v1h-1z M27,47h1v1h-1z M28,47h1v1h-1z M29,47h1v1h-1z M31,47h1v1h-1z M35,47h1v1h-1z M38,47h1v1h-1z M39,47h1v1h-1z M40,47h1v1h-1z M41,47h1v1h-1z M42,47h1v1h-1z M45,47h1v1h-1z M46,47h1v1h-1z M47,47h1v1h-1z M49,47h1v1h-1z M50,47h1v1h-1z M51,47h1v1h-1z M53,47h1v1h-1z M55,47h1v1h-1z M57,47h1v1h-1z M59,47h1v1h-1z M61,47h1v1h-1z M62,47h1v1h-1z M63,47h1v1h-1z M64,47h1v1h-1z M65,47h1v1h-1z M66,47h1v1h-1z M69,47h1v1h-1z M71,47h1v1h-1z M74,47h1v1h-1z M75,47h1v1h-1z M76,47h1v1h-1z M79,47h1v1h-1z M81,47h1v1h-1z M83,47h1v1h-1z M85,47h1v1h-1z M86,47h1v1h-1z M88,47h1v1h-1z M91,47h1v1h-1z M101,47h1v1h-1z M103,47h1v1h-1z M105,47h1v1h-1z M106,47h1v1h-1z M108,47h1v1h-1z M4,48h1v1h-1z M5,48h1v1h-1z M7,48h1v1h-1z M8,48h1v1h-1z M10,48h1v1h-1z M11,48h1v1h-1z M17,48h1v1h-1z M18,48h1v1h-1z M19,48h1v1h-1z M22,48h1v1h-1z M25,48h1v1h-1z M26,48h1v1h-1z M28,48h1v1h-1z M33,48h1v1h-1z M34,48h1v1h-1z M37,48h1v1h-1z M38,48h1v1h-1z M44,48h1v1h-1z M49,48h1v1h-1z M54,48h1v1h-1z M60,48h1v1h-1z M63,48h1v1h-1z M64,48h1v1h-1z M67,48h1v1h-1z M76,48h1v1h-1z M77,48h1v1h-1z M78,48h1v1h-1z M82,48h1v1h-1z M83,48h1v1h-1z M86,48h1v1h-1z M87,48h1v1h-1z M88,48h1v1h-1z M90,48h1v1h-1z M93,48h1v1h-1z M95,48h1v1h-1z M96,48h1v1h-1z M97,48h1v1h-1z M99,48h1v1h-1z M101,48h1v1h-1z M103,48h1v1h-1z M105,48h1v1h-1z M4,49h1v1h-1z M6,49h1v1h-1z M8,49h1v1h-1z M9,49h1v1h-1z M13,49h1v1h-1z M16,49h1v1h-1z M17,49h1v1h-1z M20,49h1v1h-1z M22,49h1v1h-1z M23,49h1v1h-1z M27,49h1v1h-1z M28,49h1v1h-1z M30,49h1v1h-1z M31,49h1v1h-1z M32,49h1v1h-1z M35,49h1v1h-1z M37,49h1v1h-1z M39,49h1v1h-1z M40,49h1v1h-1z M46,49h1v1h-1z M49,49h1v1h-1z M51,49h1v1h-1z M55,49h1v1h-1z M56,49h1v1h-1z M58,49h1v1h-1z M59,49h1v1h-1z M60,49h1v1h-1z M61,49h1v1h-1z M62,49h1v1h-1z M70,49h1v1h-1z M71,49h1v1h-1z M74,49h1v1h-1z M75,49h1v1h-1z M77,49h1v1h-1z M80,49h1v1h-1z M81,49h1v1h-1z M84,49h1v1h-1z M88,49h1v1h-1z M89,49h1v1h-1z M91,49h1v1h-1z M94,49h1v1h-1z M97,49h1v1h-1z M98,49h1v1h-1z M100,49h1v1h-1z M101,49h1v1h-1z M102,49h1v1h-1z M104,49h1v1h-1z M107,49h1v1h-1z M108,49h1v1h-1z M6,50h1v1h-1z M7,50h1v1h-1z M10,50h1v1h-1z M13,50h1v1h-1z M16,50h1v1h-1z M18,50h1v1h-1z M19,50h1v1h-1z M23,50h1v1h-1z M24,50h1v1h-1z M25,50h1v1h-1z M26,50h1v1h-1z M31,50h1v1h-1z M33,50h1v1h-1z M34,50h1v1h-1z M35,50h1v1h-1z M36,50h1v1h-1z M40,50h1v1h-1z M41,50h1v1h-1z M44,50h1v1h-1z M45,50h1v1h-1z M46,50h1v1h-1z M47,50h1v1h-1z M48,50h1v1h-1z M54,50h1v1h-1z M55,50h1v1h-1z M56,50h1v1h-1z M57,50h1v1h-1z M58,50h1v1h-1z M60,50h1v1h-1z M65,50h1v1h-1z M68,50h1v1h-1z M69,50h1v1h-1z M70,50h1v1h-1z M76,50h1v1h-1z M81,50h1v1h-1z M82,50h1v1h-1z M83,50h1v1h-1z M84,50h1v1h-1z M89,50h1v1h-1z M91,50h1v1h-1z M94,50h1v1h-1z M96,50h1v1h-1z M99,50h1v1h-1z M100,50h1v1h-1z M101,50h1v1h-1z M103,50h1v1h-1z M104,50h1v1h-1z M105,50h1v1h-1z M4,51h1v1h-1z M6,51h1v1h-1z M9,51h1v1h-1z M12,51h1v1h-1z M13,51h1v1h-1z M14,51h1v1h-1z M15,51h1v1h-1z M16,51h1v1h-1z M17,51h1v1h-1z M20,51h1v1h-1z M22,51h1v1h-1z M25,51h1v1h-1z M27,51h1v1h-1z M29,51h1v1h-1z M31,51h1v1h-1z M38,51h1v1h-1z M39,51h1v1h-1z M40,51h1v1h-1z M41,51h1v1h-1z M45,51h1v1h-1z M51,51h1v1h-1z M56,51h1v1h-1z M57,51h1v1h-1z M58,51h1v1h-1z M63,51h1v1h-1z M64,51h1v1h-1z M65,51h1v1h-1z M67,51h1v1h-1z M69,51h1v1h-1z M70,51h1v1h-1z M71,51h1v1h-1z M73,51h1v1h-1z M77,51h1v1h-1z M80,51h1v1h-1z M87,51h1v1h-1z M88,51h1v1h-1z M93,51h1v1h-1z M95,51h1v1h-1z M97,51h1v1h-1z M98,51h1v1h-1z M102,51h1v1h-1z M105,51h1v1h-1z M106,51h1v1h-1z M107,51h1v1h-1z M4,52h1v1h-1z M5,52h1v1h-1z M8,52h1v1h-1z M9,52h1v1h-1z M10,52h1v1h-1z M11,52h1v1h-1z M12,52h1v1h-1z M14,52h1v1h-1z M16,52h1v1h-1z M18,52h1v1h-1z M20,52h1v1h-1z M22,52h1v1h-1z M23,52h1v1h-1z M25,52h1v1h-1z M26,52h1v1h-1z M28,52h1v1h-1z M29,52h1v1h-1z M30,52h1v1h-1z M31,52h1v1h-1z M32,52h1v1h-1z M34,52h1v1h-1z M35,52h1v1h-1z M37,52h1v1h-1z M39,52h1v1h-1z M45,52h1v1h-1z M46,52h1v1h-1z M47,52h1v1h-1z M48,52h1v1h-1z M49,52h1v1h-1z M52,52h1v1h-1z M53,52h1v1h-1z M54,52h1v1h-1z M55,52h1v1h-1z M56,52h1v1h-1z M58,52h1v1h-1z M59,52h1v1h-1z M61,52h1v1h-1z M63,52h1v1h-1z M64,52h1v1h-1z M66,52h1v1h-1z M67,52h1v1h-1z M68,52h1v1h-1z M69,52h1v1h-1z M70,52h1v1h-1z M71,52h1v1h-1z M72,52h1v1h-1z M76,52h1v1h-1z M77,52h1v1h-1z M78,52h1v1h-1z M79,52h1v1h-1z M80,52h1v1h-1z M82,52h1v1h-1z M87,52h1v1h-1z M90,52h1v1h-1z M91,52h1v1h-1z M92,52h1v1h-1z M94,52h1v1h-1z M95,52h1v1h-1z M97,52h1v1h-1z M98,52h1v1h-1z M100,52h1v1h-1z M101,52h1v1h-1z M102,52h1v1h-1z M103,52h1v1h-1z M104,52h1v1h-1z M106,52h1v1h-1z M107,52h1v1h-1z M4,53h1v1h-1z M5,53h1v1h-1z M6,53h1v1h-1z M8,53h1v1h-1z M12,53h1v1h-1z M13,53h1v1h-1z M14,53h1v1h-1z M18,53h1v1h-1z M20,53h1v1h-1z M24,53h1v1h-1z M25,53h1v1h-1z M26,53h1v1h-1z M27,53h1v1h-1z M28,53h1v1h-1z M32,53h1v1h-1z M38,53h1v1h-1z M39,53h1v1h-1z M41,53h1v1h-1z M42,53h1v1h-1z M43,53h1v1h-1z M44,53h1v1h-1z M46,53h1v1h-1z M48,53h1v1h-1z M49,53h1v1h-1z M50,53h1v1h-1z M52,53h1v1h-1z M56,53h1v1h-1z M57,53h1v1h-1z M59,53h1v1h-1z M61,53h1v1h-1z M70,53h1v1h-1z M72,53h1v1h-1z M73,53h1v1h-1z M74,53h1v1h-1z M75,53h1v1h-1z M76,53h1v1h-1z M80,53h1v1h-1z M83,53h1v1h-1z M84,53h1v1h-1z M85,53h1v1h-1z M86,53h1v1h-1z M87,53h1v1h-1z M89,53h1v1h-1z M90,53h1v1h-1z M91,53h1v1h-1z M93,53h1v1h-1z M96,53h1v1h-1z M97,53h1v1h-1z M100,53h1v1h-1z M104,53h1v1h-1z M108,53h1v1h-1z M4,54h1v1h-1z M5,54h1v1h-1z M6,54h1v1h-1z M8,54h1v1h-1z M10,54h1v1h-1z M12,54h1v1h-1z M15,54h1v1h-1z M17,54h1v1h-1z M18,54h1v1h-1z M20,54h1v1h-1z M21,54h1v1h-1z M27,54h1v1h-1z M28,54h1v1h-1z M30,54h1v1h-1z M32,54h1v1h-1z M33,54h1v1h-1z M34,54h1v1h-1z M39,54h1v1h-1z M40,54h1v1h-1z M41,54h1v1h-1z M45,54h1v1h-1z M46,54h1v1h-1z M48,54h1v1h-1z M51,54h1v1h-1z M52,54h1v1h-1z M54,54h1v1h-1z M56,54h1v1h-1z M57,54h1v1h-1z M58,54h1v1h-1z M60,54h1v1h-1z M63,54h1v1h-1z M65,54h1v1h-1z M68,54h1v1h-1z M69,54h1v1h-1z M70,54h1v1h-1z M71,54h1v1h-1z M72,54h1v1h-1z M73,54h1v1h-1z M75,54h1v1h-1z M76,54h1v1h-1z M78,54h1v1h-1z M80,54h1v1h-1z M81,54h1v1h-1z M82,54h1v1h-1z M84,54h1v1h-1z M85,54h1v1h-1z M89,54h1v1h-1z M93,54h1v1h-1z M94,54h1v1h-1z M95,54h1v1h-1z M99,54h1v1h-1z M100,54h1v1h-1z M102,54h1v1h-1z M104,54h1v1h-1z M106,54h1v1h-1z M107,54h1v1h-1z M5,55h1v1h-1z M8,55h1v1h-1z M12,55h1v1h-1z M13,55h1v1h-1z M14,55h1v1h-1z M15,55h1v1h-1z M16,55h1v1h-1z M17,55h1v1h-1z M18,55h1v1h-1z M20,55h1v1h-1z M21,55h1v1h-1z M22,55h1v1h-1z M23,55h1v1h-1z M24,55h1v1h-1z M27,55h1v1h-1z M28,55h1v1h-1z M32,55h1v1h-1z M35,55h1v1h-1z M37,55h1v1h-1z M38,55h1v1h-1z M39,55h1v1h-1z M40,55h1v1h-1z M42,55h1v1h-1z M47,55h1v1h-1z M50,55h1v1h-1z M51,55h1v1h-1z M52,55h1v1h-1z M56,55h1v1h-1z M57,55h1v1h-1z M59,55h1v1h-1z M61,55h1v1h-1z M62,55h1v1h-1z M64,55h1v1h-1z M65,55h1v1h-1z M66,55h1v1h-1z M69,55h1v1h-1z M71,55h1v1h-1z M74,55h1v1h-1z M75,55h1v1h-1z M76,55h1v1h-1z M80,55h1v1h-1z M81,55h1v1h-1z M83,55h1v1h-1z M86,55h1v1h-1z M87,55h1v1h-1z M88,55h1v1h-1z M94,55h1v1h-1z M95,55h1v1h-1z M100,55h1v1h-1z M104,55h1v1h-1z M105,55h1v1h-1z M106,55h1v1h-1z M4,56h1v1h-1z M6,56h1v1h-1z M7,56h1v1h-1z M8,56h1v1h-1z M9,56h1v1h-1z M10,56h1v1h-1z M11,56h1v1h-1z M12,56h1v1h-1z M14,56h1v1h-1z M19,56h1v1h-1z M20,56h1v1h-1z M21,56h1v1h-1z M23,56h1v1h-1z M25,56h1v1h-1z M26,56h1v1h-1z M27,56h1v1h-1z M28,56h1v1h-1z M29,56h1v1h-1z M30,56h1v1h-1z M31,56h1v1h-1z M32,56h1v1h-1z M35,56h1v1h-1z M36,56h1v1h-1z M39,56h1v1h-1z M41,56h1v1h-1z M44,56h1v1h-1z M46,56h1v1h-1z M52,56h1v1h-1z M53,56h1v1h-1z M54,56h1v1h-1z M55,56h1v1h-1z M56,56h1v1h-1z M57,56h1v1h-1z M58,56h1v1h-1z M59,56h1v1h-1z M60,56h1v1h-1z M64,56h1v1h-1z M65,56h1v1h-1z M67,56h1v1h-1z M68,56h1v1h-1z M69,56h1v1h-1z M70,56h1v1h-1z M71,56h1v1h-1z M73,56h1v1h-1z M74,56h1v1h-1z M76,56h1v1h-1z M77,56h1v1h-1z M78,56h1v1h-1z M79,56h1v1h-1z M80,56h1v1h-1z M81,56h1v1h-1z M82,56h1v1h-1z M84,56h1v1h-1z M87,56h1v1h-1z M89,56h1v1h-1z M91,56h1v1h-1z M93,56h1v1h-1z M94,56h1v1h-1z M96,56h1v1h-1z M98,56h1v1h-1z M99,56h1v1h-1z M100,56h1v1h-1z M101,56h1v1h-1z M102,56h1v1h-1z M103,56h1v1h-1z M104,56h1v1h-1z M105,56h1v1h-1z M107,56h1v1h-1z M4,57h1v1h-1z M5,57h1v1h-1z M6,57h1v1h-1z M7,57h1v1h-1z M15,57h1v1h-1z M16,57h1v1h-1z M17,57h1v1h-1z M18,57h1v1h-1z M24,57h1v1h-1z M26,57h1v1h-1z M28,57h1v1h-1z M29,57h1v1h-1z M33,57h1v1h-1z M36,57h1v1h-1z M37,57h1v1h-1z M40,57h1v1h-1z M41,57h1v1h-1z M43,57h1v1h-1z M45,57h1v1h-1z M47,57h1v1h-1z M49,57h1v1h-1z M54,57h1v1h-1z M57,57h1v1h-1z M59,57h1v1h-1z M60,57h1v1h-1z M61,57h1v1h-1z M63,57h1v1h-1z M66,57h1v1h-1z M67,57h1v1h-1z M71,57h1v1h-1z M75,57h1v1h-1z M83,57h1v1h-1z M90,57h1v1h-1z M91,57h1v1h-1z M92,57h1v1h-1z M93,57h1v1h-1z M94,57h1v1h-1z M95,57h1v1h-1z M98,57h1v1h-1z M99,57h1v1h-1z M100,57h1v1h-1z M101,57h1v1h-1z M103,57h1v1h-1z M107,57h1v1h-1z M108,57h1v1h-1z M4,58h1v1h-1z M5,58h1v1h-1z M8,58h1v1h-1z M10,58h1v1h-1z M12,58h1v1h-1z M16,58h1v1h-1z M18,58h1v1h-1z M19,58h1v1h-1z M22,58h1v1h-1z M24,58h1v1h-1z M26,58h1v1h-1z M27,58h1v1h-1z M28,58h1v1h-1z M30,58h1v1h-1z M32,58h1v1h-1z M33,58h1v1h-1z M34,58h1v1h-1z M37,58h1v1h-1z M40,58h1v1h-1z M41,58h1v1h-1z M44,58h1v1h-1z M45,58h1v1h-1z M46,58h1v1h-1z M48,58h1v1h-1z M51,58h1v1h-1z M52,58h1v1h-1z M56,58h1v1h-1z M57,58h1v1h-1z M58,58h1v1h-1z M59,58h1v1h-1z M60,58h1v1h-1z M61,58h1v1h-1z M64,58h1v1h-1z M67,58h1v1h-1z M68,58h1v1h-1z M69,58h1v1h-1z M70,58h1v1h-1z M71,58h1v1h-1z M75,58h1v1h-1z M76,58h1v1h-1z M77,58h1v1h-1z M80,58h1v1h-1z M81,58h1v1h-1z M82,58h1v1h-1z M84,58h1v1h-1z M87,58h1v1h-1z M88,58h1v1h-1z M89,58h1v1h-1z M92,58h1v1h-1z M93,58h1v1h-1z M94,58h1v1h-1z M95,58h1v1h-1z M96,58h1v1h-1z M99,58h1v1h-1z M102,58h1v1h-1z M103,58h1v1h-1z M104,58h1v1h-1z M106,58h1v1h-1z M107,58h1v1h-1z M4,59h1v1h-1z M6,59h1v1h-1z M9,59h1v1h-1z M11,59h1v1h-1z M13,59h1v1h-1z M14,59h1v1h-1z M16,59h1v1h-1z M17,59h1v1h-1z M19,59h1v1h-1z M23,59h1v1h-1z M24,59h1v1h-1z M25,59h1v1h-1z M27,59h1v1h-1z M28,59h1v1h-1z M29,59h1v1h-1z M30,59h1v1h-1z M33,59h1v1h-1z M34,59h1v1h-1z M35,59h1v1h-1z M38,59h1v1h-1z M39,59h1v1h-1z M40,59h1v1h-1z M42,59h1v1h-1z M43,59h1v1h-1z M45,59h1v1h-1z M46,59h1v1h-1z M47,59h1v1h-1z M50,59h1v1h-1z M52,59h1v1h-1z M54,59h1v1h-1z M57,59h1v1h-1z M59,59h1v1h-1z M62,59h1v1h-1z M63,59h1v1h-1z M64,59h1v1h-1z M65,59h1v1h-1z M66,59h1v1h-1z M71,59h1v1h-1z M74,59h1v1h-1z M76,59h1v1h-1z M77,59h1v1h-1z M78,59h1v1h-1z M79,59h1v1h-1z M80,59h1v1h-1z M81,59h1v1h-1z M83,59h1v1h-1z M86,59h1v1h-1z M87,59h1v1h-1z M88,59h1v1h-1z M89,59h1v1h-1z M91,59h1v1h-1z M93,59h1v1h-1z M97,59h1v1h-1z M99,59h1v1h-1z M101,59h1v1h-1z M104,59h1v1h-1z M105,59h1v1h-1z M106,59h1v1h-1z M107,59h1v1h-1z M4,60h1v1h-1z M5,60h1v1h-1z M6,60h1v1h-1z M7,60h1v1h-1z M8,60h1v1h-1z M10,60h1v1h-1z M12,60h1v1h-1z M18,60h1v1h-1z M19,60h1v1h-1z M20,60h1v1h-1z M21,60h1v1h-1z M22,60h1v1h-1z M24,60h1v1h-1z M25,60h1v1h-1z M26,60h1v1h-1z M29,60h1v1h-1z M32,60h1v1h-1z M38,60h1v1h-1z M39,60h1v1h-1z M40,60h1v1h-1z M42,60h1v1h-1z M43,60h1v1h-1z M46,60h1v1h-1z M51,60h1v1h-1z M52,60h1v1h-1z M53,60h1v1h-1z M55,60h1v1h-1z M56,60h1v1h-1z M57,60h1v1h-1z M58,60h1v1h-1z M62,60h1v1h-1z M63,60h1v1h-1z M64,60h1v1h-1z M67,60h1v1h-1z M70,60h1v1h-1z M72,60h1v1h-1z M73,60h1v1h-1z M79,60h1v1h-1z M82,60h1v1h-1z M84,60h1v1h-1z M86,60h1v1h-1z M87,60h1v1h-1z M90,60h1v1h-1z M92,60h1v1h-1z M94,60h1v1h-1z M96,60h1v1h-1z M97,60h1v1h-1z M101,60h1v1h-1z M102,60h1v1h-1z M106,60h1v1h-1z M107,60h1v1h-1z M5,61h1v1h-1z M6,61h1v1h-1z M8,61h1v1h-1z M9,61h1v1h-1z M11,61h1v1h-1z M13,61h1v1h-1z M15,61h1v1h-1z M16,61h1v1h-1z M18,61h1v1h-1z M19,61h1v1h-1z M20,61h1v1h-1z M21,61h1v1h-1z M22,61h1v1h-1z M23,61h1v1h-1z M25,61h1v1h-1z M26,61h1v1h-1z M27,61h1v1h-1z M28,61h1v1h-1z M29,61h1v1h-1z M30,61h1v1h-1z M31,61h1v1h-1z M33,61h1v1h-1z M37,61h1v1h-1z M38,61h1v1h-1z M39,61h1v1h-1z M40,61h1v1h-1z M41,61h1v1h-1z M45,61h1v1h-1z M46,61h1v1h-1z M47,61h1v1h-1z M50,61h1v1h-1z M51,61h1v1h-1z M53,61h1v1h-1z M54,61h1v1h-1z M58,61h1v1h-1z M59,61h1v1h-1z M62,61h1v1h-1z M63,61h1v1h-1z M64,61h1v1h-1z M66,61h1v1h-1z M67,61h1v1h-1z M71,61h1v1h-1z M76,61h1v1h-1z M77,61h1v1h-1z M78,61h1v1h-1z M81,61h1v1h-1z M86,61h1v1h-1z M89,61h1v1h-1z M90,61h1v1h-1z M91,61h1v1h-1z M92,61h1v1h-1z M94,61h1v1h-1z M95,61h1v1h-1z M98,61h1v1h-1z M99,61h1v1h-1z M100,61h1v1h-1z M104,61h1v1h-1z M107,61h1v1h-1z M108,61h1v1h-1z M4,62h1v1h-1z M5,62h1v1h-1z M6,62h1v1h-1z M10,62h1v1h-1z M11,62h1v1h-1z M12,62h1v1h-1z M14,62h1v1h-1z M15,62h1v1h-1z M17,62h1v1h-1z M18,62h1v1h-1z M19,62h1v1h-1z M21,62h1v1h-1z M23,62h1v1h-1z M25,62h1v1h-1z M26,62h1v1h-1z M27,62h1v1h-1z M28,62h1v1h-1z M29,62h1v1h-1z M33,62h1v1h-1z M34,62h1v1h-1z M35,62h1v1h-1z M36,62h1v1h-1z M37,62h1v1h-1z M41,62h1v1h-1z M43,62h1v1h-1z M44,62h1v1h-1z M45,62h1v1h-1z M46,62h1v1h-1z M47,62h1v1h-1z M48,62h1v1h-1z M51,62h1v1h-1z M52,62h1v1h-1z M53,62h1v1h-1z M55,62h1v1h-1z M56,62h1v1h-1z M58,62h1v1h-1z M59,62h1v1h-1z M61,62h1v1h-1z M63,62h1v1h-1z M65,62h1v1h-1z M67,62h1v1h-1z M69,62h1v1h-1z M70,62h1v1h-1z M72,62h1v1h-1z M75,62h1v1h-1z M76,62h1v1h-1z M78,62h1v1h-1z M79,62h1v1h-1z M81,62h1v1h-1z M82,62h1v1h-1z M87,62h1v1h-1z M89,62h1v1h-1z M91,62h1v1h-1z M92,62h1v1h-1z M93,62h1v1h-1z M94,62h1v1h-1z M100,62h1v1h-1z M101,62h1v1h-1z M102,62h1v1h-1z M106,62h1v1h-1z M107,62h1v1h-1z M4,63h1v1h-1z M6,63h1v1h-1z M8,63h1v1h-1z M12,63h1v1h-1z M14,63h1v1h-1z M16,63h1v1h-1z M17,63h1v1h-1z M19,63h1v1h-1z M20,63h1v1h-1z M21,63h1v1h-1z M22,63h1v1h-1z M27,63h1v1h-1z M28,63h1v1h-1z M29,63h1v1h-1z M30,63h1v1h-1z M31,63h1v1h-1z M32,63h1v1h-1z M37,63h1v1h-1z M38,63h1v1h-1z M39,63h1v1h-1z M40,63h1v1h-1z M41,63h1v1h-1z M42,63h1v1h-1z M45,63h1v1h-1z M46,63h1v1h-1z M47,63h1v1h-1z M49,63h1v1h-1z M52,63h1v1h-1z M53,63h1v1h-1z M57,63h1v1h-1z M59,63h1v1h-1z M62,63h1v1h-1z M63,63h1v1h-1z M64,63h1v1h-1z M70,63h1v1h-1z M71,63h1v1h-1z M73,63h1v1h-1z M75,63h1v1h-1z M77,63h1v1h-1z M79,63h1v1h-1z M83,63h1v1h-1z M88,63h1v1h-1z M89,63h1v1h-1z M90,63h1v1h-1z M95,63h1v1h-1z M98,63h1v1h-1z M100,63h1v1h-1z M102,63h1v1h-1z M104,63h1v1h-1z M105,63h1v1h-1z M106,63h1v1h-1z M108,63h1v1h-1z M5,64h1v1h-1z M6,64h1v1h-1z M7,64h1v1h-1z M8,64h1v1h-1z M9,64h1v1h-1z M10,64h1v1h-1z M15,64h1v1h-1z M16,64h1v1h-1z M17,64h1v1h-1z M19,64h1v1h-1z M21,64h1v1h-1z M23,64h1v1h-1z M29,64h1v1h-1z M32,64h1v1h-1z M37,64h1v1h-1z M38,64h1v1h-1z M41,64h1v1h-1z M43,64h1v1h-1z M46,64h1v1h-1z M47,64h1v1h-1z M48,64h1v1h-1z M49,64h1v1h-1z M51,64h1v1h-1z M52,64h1v1h-1z M53,64h1v1h-1z M56,64h1v1h-1z M58,64h1v1h-1z M62,64h1v1h-1z M65,64h1v1h-1z M69,64h1v1h-1z M70,64h1v1h-1z M74,64h1v1h-1z M77,64h1v1h-1z M80,64h1v1h-1z M84,64h1v1h-1z M85,64h1v1h-1z M88,64h1v1h-1z M90,64h1v1h-1z M92,64h1v1h-1z M95,64h1v1h-1z M96,64h1v1h-1z M97,64h1v1h-1z M98,64h1v1h-1z M101,64h1v1h-1z M102,64h1v1h-1z M105,64h1v1h-1z M106,64h1v1h-1z M5,65h1v1h-1z M6,65h1v1h-1z M9,65h1v1h-1z M11,65h1v1h-1z M12,65h1v1h-1z M14,65h1v1h-1z M15,65h1v1h-1z M20,65h1v1h-1z M21,65h1v1h-1z M26,65h1v1h-1z M27,65h1v1h-1z M28,65h1v1h-1z M29,65h1v1h-1z M30,65h1v1h-1z M33,65h1v1h-1z M37,65h1v1h-1z M42,65h1v1h-1z M43,65h1v1h-1z M44,65h1v1h-1z M47,65h1v1h-1z M49,65h1v1h-1z M50,65h1v1h-1z M55,65h1v1h-1z M58,65h1v1h-1z M60,65h1v1h-1z M61,65h1v1h-1z M62,65h1v1h-1z M65,65h1v1h-1z M67,65h1v1h-1z M68,65h1v1h-1z M69,65h1v1h-1z M70,65h1v1h-1z M71,65h1v1h-1z M73,65h1v1h-1z M75,65h1v1h-1z M76,65h1v1h-1z M77,65h1v1h-1z M78,65h1v1h-1z M81,65h1v1h-1z M86,65h1v1h-1z M87,65h1v1h-1z M88,65h1v1h-1z M91,65h1v1h-1z M94,65h1v1h-1z M95,65h1v1h-1z M99,65h1v1h-1z M100,65h1v1h-1z M101,65h1v1h-1z M103,65h1v1h-1z M104,65h1v1h-1z M106,65h1v1h-1z M6,66h1v1h-1z M7,66h1v1h-1z M9,66h1v1h-1z M10,66h1v1h-1z M11,66h1v1h-1z M12,66h1v1h-1z M13,66h1v1h-1z M15,66h1v1h-1z M18,66h1v1h-1z M19,66h1v1h-1z M20,66h1v1h-1z M22,66h1v1h-1z M24,66h1v1h-1z M26,66h1v1h-1z M27,66h1v1h-1z M28,66h1v1h-1z M29,66h1v1h-1z M32,66h1v1h-1z M33,66h1v1h-1z M34,66h1v1h-1z M35,66h1v1h-1z M36,66h1v1h-1z M37,66h1v1h-1z M40,66h1v1h-1z M41,66h1v1h-1z M43,66h1v1h-1z M44,66h1v1h-1z M45,66h1v1h-1z M46,66h1v1h-1z M48,66h1v1h-1z M49,66h1v1h-1z M51,66h1v1h-1z M52,66h1v1h-1z M54,66h1v1h-1z M58,66h1v1h-1z M59,66h1v1h-1z M60,66h1v1h-1z M61,66h1v1h-1z M65,66h1v1h-1z M67,66h1v1h-1z M68,66h1v1h-1z M69,66h1v1h-1z M70,66h1v1h-1z M72,66h1v1h-1z M73,66h1v1h-1z M75,66h1v1h-1z M76,66h1v1h-1z M77,66h1v1h-1z M79,66h1v1h-1z M80,66h1v1h-1z M82,66h1v1h-1z M84,66h1v1h-1z M87,66h1v1h-1z M89,66h1v1h-1z M92,66h1v1h-1z M93,66h1v1h-1z M94,66h1v1h-1z M95,66h1v1h-1z M96,66h1v1h-1z M99,66h1v1h-1z M102,66h1v1h-1z M105,66h1v1h-1z M107,66h1v1h-1z M5,67h1v1h-1z M6,67h1v1h-1z M7,67h1v1h-1z M8,67h1v1h-1z M14,67h1v1h-1z M16,67h1v1h-1z M17,67h1v1h-1z M19,67h1v1h-1z M21,67h1v1h-1z M22,67h1v1h-1z M24,67h1v1h-1z M31,67h1v1h-1z M34,67h1v1h-1z M35,67h1v1h-1z M38,67h1v1h-1z M39,67h1v1h-1z M40,67h1v1h-1z M42,67h1v1h-1z M47,67h1v1h-1z M50,67h1v1h-1z M52,67h1v1h-1z M53,67h1v1h-1z M54,67h1v1h-1z M55,67h1v1h-1z M56,67h1v1h-1z M59,67h1v1h-1z M62,67h1v1h-1z M63,67h1v1h-1z M64,67h1v1h-1z M65,67h1v1h-1z M66,67h1v1h-1z M69,67h1v1h-1z M71,67h1v1h-1z M74,67h1v1h-1z M75,67h1v1h-1z M77,67h1v1h-1z M81,67h1v1h-1z M83,67h1v1h-1z M85,67h1v1h-1z M88,67h1v1h-1z M89,67h1v1h-1z M93,67h1v1h-1z M94,67h1v1h-1z M95,67h1v1h-1z M99,67h1v1h-1z M100,67h1v1h-1z M101,67h1v1h-1z M103,67h1v1h-1z M105,67h1v1h-1z M106,67h1v1h-1z M107,67h1v1h-1z M108,67h1v1h-1z M4,68h1v1h-1z M5,68h1v1h-1z M6,68h1v1h-1z M8,68h1v1h-1z M10,68h1v1h-1z M13,68h1v1h-1z M14,68h1v1h-1z M17,68h1v1h-1z M18,68h1v1h-1z M19,68h1v1h-1z M20,68h1v1h-1z M21,68h1v1h-1z M24,68h1v1h-1z M25,68h1v1h-1z M28,68h1v1h-1z M29,68h1v1h-1z M31,68h1v1h-1z M32,68h1v1h-1z M33,68h1v1h-1z M34,68h1v1h-1z M35,68h1v1h-1z M37,68h1v1h-1z M39,68h1v1h-1z M42,68h1v1h-1z M48,68h1v1h-1z M49,68h1v1h-1z M50,68h1v1h-1z M51,68h1v1h-1z M52,68h1v1h-1z M53,68h1v1h-1z M55,68h1v1h-1z M57,68h1v1h-1z M60,68h1v1h-1z M61,68h1v1h-1z M65,68h1v1h-1z M70,68h1v1h-1z M72,68h1v1h-1z M76,68h1v1h-1z M77,68h1v1h-1z M79,68h1v1h-1z M80,68h1v1h-1z M85,68h1v1h-1z M86,68h1v1h-1z M89,68h1v1h-1z M90,68h1v1h-1z M92,68h1v1h-1z M94,68h1v1h-1z M101,68h1v1h-1z M102,68h1v1h-1z M105,68h1v1h-1z M106,68h1v1h-1z M107,68h1v1h-1z M9,69h1v1h-1z M12,69h1v1h-1z M13,69h1v1h-1z M14,69h1v1h-1z M16,69h1v1h-1z M17,69h1v1h-1z M18,69h1v1h-1z M23,69h1v1h-1z M27,69h1v1h-1z M28,69h1v1h-1z M30,69h1v1h-1z M31,69h1v1h-1z M36,69h1v1h-1z M37,69h1v1h-1z M38,69h1v1h-1z M39,69h1v1h-1z M40,69h1v1h-1z M41,69h1v1h-1z M45,69h1v1h-1z M48,69h1v1h-1z M53,69h1v1h-1z M54,69h1v1h-1z M58,69h1v1h-1z M59,69h1v1h-1z M62,69h1v1h-1z M64,69h1v1h-1z M69,69h1v1h-1z M70,69h1v1h-1z M71,69h1v1h-1z M72,69h1v1h-1z M73,69h1v1h-1z M74,69h1v1h-1z M77,69h1v1h-1z M81,69h1v1h-1z M84,69h1v1h-1z M88,69h1v1h-1z M96,69h1v1h-1z M98,69h1v1h-1z M100,69h1v1h-1z M105,69h1v1h-1z M106,69h1v1h-1z M108,69h1v1h-1z M5,70h1v1h-1z M10,70h1v1h-1z M11,70h1v1h-1z M12,70h1v1h-1z M13,70h1v1h-1z M14,70h1v1h-1z M20,70h1v1h-1z M22,70h1v1h-1z M23,70h1v1h-1z M25,70h1v1h-1z M27,70h1v1h-1z M28,70h1v1h-1z M31,70h1v1h-1z M33,70h1v1h-1z M34,70h1v1h-1z M35,70h1v1h-1z M36,70h1v1h-1z M41,70h1v1h-1z M43,70h1v1h-1z M44,70h1v1h-1z M45,70h1v1h-1z M46,70h1v1h-1z M47,70h1v1h-1z M48,70h1v1h-1z M49,70h1v1h-1z M51,70h1v1h-1z M52,70h1v1h-1z M54,70h1v1h-1z M55,70h1v1h-1z M56,70h1v1h-1z M58,70h1v1h-1z M59,70h1v1h-1z M60,70h1v1h-1z M64,70h1v1h-1z M65,70h1v1h-1z M67,70h1v1h-1z M68,70h1v1h-1z M70,70h1v1h-1z M71,70h1v1h-1z M75,70h1v1h-1z M76,70h1v1h-1z M77,70h1v1h-1z M78,70h1v1h-1z M79,70h1v1h-1z M81,70h1v1h-1z M82,70h1v1h-1z M83,70h1v1h-1z M88,70h1v1h-1z M89,70h1v1h-1z M91,70h1v1h-1z M93,70h1v1h-1z M94,70h1v1h-1z M95,70h1v1h-1z M96,70h1v1h-1z M97,70h1v1h-1z M99,70h1v1h-1z M101,70h1v1h-1z M102,70h1v1h-1z M103,70h1v1h-1z M105,70h1v1h-1z M106,70h1v1h-1z M107,70h1v1h-1z M108,70h1v1h-1z M5,71h1v1h-1z M12,71h1v1h-1z M13,71h1v1h-1z M14,71h1v1h-1z M17,71h1v1h-1z M18,71h1v1h-1z M19,71h1v1h-1z M20,71h1v1h-1z M21,71h1v1h-1z M22,71h1v1h-1z M24,71h1v1h-1z M25,71h1v1h-1z M26,71h1v1h-1z M28,71h1v1h-1z M29,71h1v1h-1z M30,71h1v1h-1z M31,71h1v1h-1z M33,71h1v1h-1z M34,71h1v1h-1z M35,71h1v1h-1z M39,71h1v1h-1z M40,71h1v1h-1z M41,71h1v1h-1z M42,71h1v1h-1z M47,71h1v1h-1z M50,71h1v1h-1z M54,71h1v1h-1z M55,71h1v1h-1z M62,71h1v1h-1z M63,71h1v1h-1z M64,71h1v1h-1z M66,71h1v1h-1z M67,71h1v1h-1z M69,71h1v1h-1z M71,71h1v1h-1z M73,71h1v1h-1z M74,71h1v1h-1z M78,71h1v1h-1z M81,71h1v1h-1z M82,71h1v1h-1z M83,71h1v1h-1z M86,71h1v1h-1z M87,71h1v1h-1z M88,71h1v1h-1z M90,71h1v1h-1z M94,71h1v1h-1z M97,71h1v1h-1z M98,71h1v1h-1z M100,71h1v1h-1z M101,71h1v1h-1z M103,71h1v1h-1z M105,71h1v1h-1z M106,71h1v1h-1z M107,71h1v1h-1z M108,71h1v1h-1z M5,72h1v1h-1z M6,72h1v1h-1z M7,72h1v1h-1z M8,72h1v1h-1z M9,72h1v1h-1z M10,72h1v1h-1z M11,72h1v1h-1z M12,72h1v1h-1z M15,72h1v1h-1z M20,72h1v1h-1z M23,72h1v1h-1z M25,72h1v1h-1z M32,72h1v1h-1z M33,72h1v1h-1z M34,72h1v1h-1z M36,72h1v1h-1z M39,72h1v1h-1z M40,72h1v1h-1z M44,72h1v1h-1z M46,72h1v1h-1z M47,72h1v1h-1z M51,72h1v1h-1z M52,72h1v1h-1z M53,72h1v1h-1z M56,72h1v1h-1z M59,72h1v1h-1z M60,72h1v1h-1z M63,72h1v1h-1z M65,72h1v1h-1z M69,72h1v1h-1z M70,72h1v1h-1z M72,72h1v1h-1z M75,72h1v1h-1z M76,72h1v1h-1z M79,72h1v1h-1z M80,72h1v1h-1z M84,72h1v1h-1z M85,72h1v1h-1z M90,72h1v1h-1z M91,72h1v1h-1z M92,72h1v1h-1z M93,72h1v1h-1z M95,72h1v1h-1z M99,72h1v1h-1z M100,72h1v1h-1z M101,72h1v1h-1z M102,72h1v1h-1z M105,72h1v1h-1z M4,73h1v1h-1z M11,73h1v1h-1z M13,73h1v1h-1z M15,73h1v1h-1z M16,73h1v1h-1z M21,73h1v1h-1z M22,73h1v1h-1z M23,73h1v1h-1z M25,73h1v1h-1z M27,73h1v1h-1z M30,73h1v1h-1z M31,73h1v1h-1z M33,73h1v1h-1z M37,73h1v1h-1z M39,73h1v1h-1z M40,73h1v1h-1z M42,73h1v1h-1z M43,73h1v1h-1z M47,73h1v1h-1z M48,73h1v1h-1z M49,73h1v1h-1z M51,73h1v1h-1z M54,73h1v1h-1z M55,73h1v1h-1z M58,73h1v1h-1z M60,73h1v1h-1z M61,73h1v1h-1z M62,73h1v1h-1z M66,73h1v1h-1z M68,73h1v1h-1z M73,73h1v1h-1z M74,73h1v1h-1z M77,73h1v1h-1z M78,73h1v1h-1z M81,73h1v1h-1z M82,73h1v1h-1z M83,73h1v1h-1z M88,73h1v1h-1z M91,73h1v1h-1z M92,73h1v1h-1z M95,73h1v1h-1z M96,73h1v1h-1z M97,73h1v1h-1z M99,73h1v1h-1z M100,73h1v1h-1z M101,73h1v1h-1z M104,73h1v1h-1z M106,73h1v1h-1z M107,73h1v1h-1z M108,73h1v1h-1z M4,74h1v1h-1z M5,74h1v1h-1z M8,74h1v1h-1z M10,74h1v1h-1z M13,74h1v1h-1z M14,74h1v1h-1z M15,74h1v1h-1z M16,74h1v1h-1z M20,74h1v1h-1z M23,74h1v1h-1z M26,74h1v1h-1z M28,74h1v1h-1z M30,74h1v1h-1z M31,74h1v1h-1z M32,74h1v1h-1z M34,74h1v1h-1z M36,74h1v1h-1z M40,74h1v1h-1z M41,74h1v1h-1z M43,74h1v1h-1z M44,74h1v1h-1z M45,74h1v1h-1z M46,74h1v1h-1z M49,74h1v1h-1z M52,74h1v1h-1z M57,74h1v1h-1z M58,74h1v1h-1z M63,74h1v1h-1z M65,74h1v1h-1z M68,74h1v1h-1z M69,74h1v1h-1z M70,74h1v1h-1z M72,74h1v1h-1z M73,74h1v1h-1z M75,74h1v1h-1z M76,74h1v1h-1z M79,74h1v1h-1z M80,74h1v1h-1z M82,74h1v1h-1z M83,74h1v1h-1z M85,74h1v1h-1z M87,74h1v1h-1z M88,74h1v1h-1z M89,74h1v1h-1z M91,74h1v1h-1z M92,74h1v1h-1z M93,74h1v1h-1z M94,74h1v1h-1z M97,74h1v1h-1z M100,74h1v1h-1z M101,74h1v1h-1z M102,74h1v1h-1z M4,75h1v1h-1z M6,75h1v1h-1z M7,75h1v1h-1z M8,75h1v1h-1z M9,75h1v1h-1z M11,75h1v1h-1z M12,75h1v1h-1z M15,75h1v1h-1z M16,75h1v1h-1z M17,75h1v1h-1z M18,75h1v1h-1z M25,75h1v1h-1z M27,75h1v1h-1z M28,75h1v1h-1z M30,75h1v1h-1z M31,75h1v1h-1z M32,75h1v1h-1z M33,75h1v1h-1z M35,75h1v1h-1z M37,75h1v1h-1z M38,75h1v1h-1z M39,75h1v1h-1z M40,75h1v1h-1z M42,75h1v1h-1z M43,75h1v1h-1z M46,75h1v1h-1z M47,75h1v1h-1z M49,75h1v1h-1z M50,75h1v1h-1z M51,75h1v1h-1z M56,75h1v1h-1z M58,75h1v1h-1z M59,75h1v1h-1z M62,75h1v1h-1z M63,75h1v1h-1z M64,75h1v1h-1z M69,75h1v1h-1z M70,75h1v1h-1z M71,75h1v1h-1z M74,75h1v1h-1z M76,75h1v1h-1z M77,75h1v1h-1z M78,75h1v1h-1z M79,75h1v1h-1z M80,75h1v1h-1z M81,75h1v1h-1z M83,75h1v1h-1z M86,75h1v1h-1z M87,75h1v1h-1z M88,75h1v1h-1z M89,75h1v1h-1z M95,75h1v1h-1z M98,75h1v1h-1z M103,75h1v1h-1z M104,75h1v1h-1z M105,75h1v1h-1z M106,75h1v1h-1z M4,76h1v1h-1z M7,76h1v1h-1z M8,76h1v1h-1z M9,76h1v1h-1z M10,76h1v1h-1z M11,76h1v1h-1z M12,76h1v1h-1z M13,76h1v1h-1z M14,76h1v1h-1z M15,76h1v1h-1z M18,76h1v1h-1z M19,76h1v1h-1z M21,76h1v1h-1z M25,76h1v1h-1z M26,76h1v1h-1z M28,76h1v1h-1z M29,76h1v1h-1z M30,76h1v1h-1z M31,76h1v1h-1z M32,76h1v1h-1z M34,76h1v1h-1z M35,76h1v1h-1z M37,76h1v1h-1z M39,76h1v1h-1z M41,76h1v1h-1z M43,76h1v1h-1z M44,76h1v1h-1z M45,76h1v1h-1z M46,76h1v1h-1z M49,76h1v1h-1z M50,76h1v1h-1z M51,76h1v1h-1z M52,76h1v1h-1z M53,76h1v1h-1z M54,76h1v1h-1z M55,76h1v1h-1z M56,76h1v1h-1z M58,76h1v1h-1z M59,76h1v1h-1z M60,76h1v1h-1z M61,76h1v1h-1z M66,76h1v1h-1z M69,76h1v1h-1z M70,76h1v1h-1z M71,76h1v1h-1z M72,76h1v1h-1z M75,76h1v1h-1z M76,76h1v1h-1z M77,76h1v1h-1z M78,76h1v1h-1z M79,76h1v1h-1z M80,76h1v1h-1z M81,76h1v1h-1z M82,76h1v1h-1z M83,76h1v1h-1z M84,76h1v1h-1z M87,76h1v1h-1z M89,76h1v1h-1z M91,76h1v1h-1z M92,76h1v1h-1z M95,76h1v1h-1z M96,76h1v1h-1z M98,76h1v1h-1z M100,76h1v1h-1z M101,76h1v1h-1z M102,76h1v1h-1z M103,76h1v1h-1z M104,76h1v1h-1z M106,76h1v1h-1z M107,76h1v1h-1z M7,77h1v1h-1z M8,77h1v1h-1z M12,77h1v1h-1z M13,77h1v1h-1z M20,77h1v1h-1z M21,77h1v1h-1z M23,77h1v1h-1z M24,77h1v1h-1z M25,77h1v1h-1z M28,77h1v1h-1z M32,77h1v1h-1z M36,77h1v1h-1z M39,77h1v1h-1z M40,77h1v1h-1z M41,77h1v1h-1z M43,77h1v1h-1z M44,77h1v1h-1z M49,77h1v1h-1z M51,77h1v1h-1z M52,77h1v1h-1z M56,77h1v1h-1z M58,77h1v1h-1z M64,77h1v1h-1z M67,77h1v1h-1z M68,77h1v1h-1z M76,77h1v1h-1z M80,77h1v1h-1z M85,77h1v1h-1z M86,77h1v1h-1z M88,77h1v1h-1z M89,77h1v1h-1z M91,77h1v1h-1z M94,77h1v1h-1z M95,77h1v1h-1z M97,77h1v1h-1z M98,77h1v1h-1z M100,77h1v1h-1z M104,77h1v1h-1z M105,77h1v1h-1z M106,77h1v1h-1z M5,78h1v1h-1z M8,78h1v1h-1z M10,78h1v1h-1z M12,78h1v1h-1z M13,78h1v1h-1z M15,78h1v1h-1z M17,78h1v1h-1z M18,78h1v1h-1z M20,78h1v1h-1z M22,78h1v1h-1z M23,78h1v1h-1z M24,78h1v1h-1z M25,78h1v1h-1z M27,78h1v1h-1z M28,78h1v1h-1z M30,78h1v1h-1z M32,78h1v1h-1z M33,78h1v1h-1z M34,78h1v1h-1z M36,78h1v1h-1z M37,78h1v1h-1z M39,78h1v1h-1z M41,78h1v1h-1z M43,78h1v1h-1z M45,78h1v1h-1z M46,78h1v1h-1z M48,78h1v1h-1z M49,78h1v1h-1z M51,78h1v1h-1z M52,78h1v1h-1z M54,78h1v1h-1z M56,78h1v1h-1z M57,78h1v1h-1z M58,78h1v1h-1z M59,78h1v1h-1z M60,78h1v1h-1z M63,78h1v1h-1z M65,78h1v1h-1z M68,78h1v1h-1z M69,78h1v1h-1z M70,78h1v1h-1z M72,78h1v1h-1z M75,78h1v1h-1z M76,78h1v1h-1z M78,78h1v1h-1z M80,78h1v1h-1z M82,78h1v1h-1z M83,78h1v1h-1z M84,78h1v1h-1z M88,78h1v1h-1z M89,78h1v1h-1z M91,78h1v1h-1z M93,78h1v1h-1z M94,78h1v1h-1z M95,78h1v1h-1z M96,78h1v1h-1z M97,78h1v1h-1z M99,78h1v1h-1z M100,78h1v1h-1z M102,78h1v1h-1z M104,78h1v1h-1z M106,78h1v1h-1z M107,78h1v1h-1z M4,79h1v1h-1z M5,79h1v1h-1z M8,79h1v1h-1z M12,79h1v1h-1z M14,79h1v1h-1z M16,79h1v1h-1z M17,79h1v1h-1z M18,79h1v1h-1z M21,79h1v1h-1z M22,79h1v1h-1z M25,79h1v1h-1z M27,79h1v1h-1z M28,79h1v1h-1z M32,79h1v1h-1z M33,79h1v1h-1z M35,79h1v1h-1z M38,79h1v1h-1z M39,79h1v1h-1z M40,79h1v1h-1z M41,79h1v1h-1z M42,79h1v1h-1z M45,79h1v1h-1z M46,79h1v1h-1z M50,79h1v1h-1z M51,79h1v1h-1z M52,79h1v1h-1z M56,79h1v1h-1z M59,79h1v1h-1z M62,79h1v1h-1z M64,79h1v1h-1z M67,79h1v1h-1z M69,79h1v1h-1z M70,79h1v1h-1z M73,79h1v1h-1z M75,79h1v1h-1z M76,79h1v1h-1z M80,79h1v1h-1z M81,79h1v1h-1z M83,79h1v1h-1z M85,79h1v1h-1z M87,79h1v1h-1z M88,79h1v1h-1z M93,79h1v1h-1z M94,79h1v1h-1z M95,79h1v1h-1z M98,79h1v1h-1z M100,79h1v1h-1z M104,79h1v1h-1z M105,79h1v1h-1z M106,79h1v1h-1z M107,79h1v1h-1z M6,80h1v1h-1z M8,80h1v1h-1z M9,80h1v1h-1z M10,80h1v1h-1z M11,80h1v1h-1z M12,80h1v1h-1z M14,80h1v1h-1z M21,80h1v1h-1z M22,80h1v1h-1z M23,80h1v1h-1z M25,80h1v1h-1z M28,80h1v1h-1z M29,80h1v1h-1z M30,80h1v1h-1z M31,80h1v1h-1z M32,80h1v1h-1z M36,80h1v1h-1z M37,80h1v1h-1z M39,80h1v1h-1z M40,80h1v1h-1z M41,80h1v1h-1z M43,80h1v1h-1z M45,80h1v1h-1z M46,80h1v1h-1z M47,80h1v1h-1z M51,80h1v1h-1z M52,80h1v1h-1z M53,80h1v1h-1z M54,80h1v1h-1z M55,80h1v1h-1z M56,80h1v1h-1z M58,80h1v1h-1z M61,80h1v1h-1z M62,80h1v1h-1z M65,80h1v1h-1z M67,80h1v1h-1z M68,80h1v1h-1z M71,80h1v1h-1z M73,80h1v1h-1z M76,80h1v1h-1z M77,80h1v1h-1z M78,80h1v1h-1z M79,80h1v1h-1z M80,80h1v1h-1z M81,80h1v1h-1z M82,80h1v1h-1z M83,80h1v1h-1z M84,80h1v1h-1z M89,80h1v1h-1z M91,80h1v1h-1z M92,80h1v1h-1z M93,80h1v1h-1z M94,80h1v1h-1z M95,80h1v1h-1z M96,80h1v1h-1z M97,80h1v1h-1z M98,80h1v1h-1z M99,80h1v1h-1z M100,80h1v1h-1z M101,80h1v1h-1z M102,80h1v1h-1z M103,80h1v1h-1z M104,80h1v1h-1z M108,80h1v1h-1z M5,81h1v1h-1z M11,81h1v1h-1z M15,81h1v1h-1z M16,81h1v1h-1z M20,81h1v1h-1z M23,81h1v1h-1z M24,81h1v1h-1z M25,81h1v1h-1z M28,81h1v1h-1z M34,81h1v1h-1z M36,81h1v1h-1z M37,81h1v1h-1z M38,81h1v1h-1z M41,81h1v1h-1z M42,81h1v1h-1z M43,81h1v1h-1z M44,81h1v1h-1z M45,81h1v1h-1z M46,81h1v1h-1z M47,81h1v1h-1z M52,81h1v1h-1z M53,81h1v1h-1z M56,81h1v1h-1z M60,81h1v1h-1z M61,81h1v1h-1z M62,81h1v1h-1z M63,81h1v1h-1z M64,81h1v1h-1z M65,81h1v1h-1z M66,81h1v1h-1z M69,81h1v1h-1z M70,81h1v1h-1z M71,81h1v1h-1z M74,81h1v1h-1z M79,81h1v1h-1z M80,81h1v1h-1z M81,81h1v1h-1z M83,81h1v1h-1z M86,81h1v1h-1z M88,81h1v1h-1z M89,81h1v1h-1z M90,81h1v1h-1z M91,81h1v1h-1z M95,81h1v1h-1z M101,81h1v1h-1z M102,81h1v1h-1z M105,81h1v1h-1z M106,81h1v1h-1z M108,81h1v1h-1z M5,82h1v1h-1z M6,82h1v1h-1z M8,82h1v1h-1z M9,82h1v1h-1z M10,82h1v1h-1z M11,82h1v1h-1z M14,82h1v1h-1z M16,82h1v1h-1z M21,82h1v1h-1z M26,82h1v1h-1z M29,82h1v1h-1z M30,82h1v1h-1z M33,82h1v1h-1z M34,82h1v1h-1z M37,82h1v1h-1z M39,82h1v1h-1z M40,82h1v1h-1z M41,82h1v1h-1z M44,82h1v1h-1z M45,82h1v1h-1z M46,82h1v1h-1z M47,82h1v1h-1z M48,82h1v1h-1z M52,82h1v1h-1z M53,82h1v1h-1z M57,82h1v1h-1z M58,82h1v1h-1z M60,82h1v1h-1z M61,82h1v1h-1z M63,82h1v1h-1z M64,82h1v1h-1z M65,82h1v1h-1z M67,82h1v1h-1z M68,82h1v1h-1z M70,82h1v1h-1z M71,82h1v1h-1z M72,82h1v1h-1z M76,82h1v1h-1z M78,82h1v1h-1z M82,82h1v1h-1z M83,82h1v1h-1z M84,82h1v1h-1z M87,82h1v1h-1z M93,82h1v1h-1z M94,82h1v1h-1z M96,82h1v1h-1z M100,82h1v1h-1z M101,82h1v1h-1z M103,82h1v1h-1z M104,82h1v1h-1z M107,82h1v1h-1z M4,83h1v1h-1z M7,83h1v1h-1z M15,83h1v1h-1z M16,83h1v1h-1z M18,83h1v1h-1z M20,83h1v1h-1z M21,83h1v1h-1z M23,83h1v1h-1z M24,83h1v1h-1z M28,83h1v1h-1z M30,83h1v1h-1z M32,83h1v1h-1z M33,83h1v1h-1z M34,83h1v1h-1z M35,83h1v1h-1z M38,83h1v1h-1z M39,83h1v1h-1z M40,83h1v1h-1z M43,83h1v1h-1z M49,83h1v1h-1z M51,83h1v1h-1z M54,83h1v1h-1z M55,83h1v1h-1z M56,83h1v1h-1z M57,83h1v1h-1z M59,83h1v1h-1z M62,83h1v1h-1z M63,83h1v1h-1z M64,83h1v1h-1z M66,83h1v1h-1z M71,83h1v1h-1z M76,83h1v1h-1z M79,83h1v1h-1z M81,83h1v1h-1z M87,83h1v1h-1z M88,83h1v1h-1z M90,83h1v1h-1z M95,83h1v1h-1z M98,83h1v1h-1z M101,83h1v1h-1z M102,83h1v1h-1z M105,83h1v1h-1z M106,83h1v1h-1z M107,83h1v1h-1z M108,83h1v1h-1z M4,84h1v1h-1z M5,84h1v1h-1z M6,84h1v1h-1z M9,84h1v1h-1z M10,84h1v1h-1z M11,84h1v1h-1z M14,84h1v1h-1z M16,84h1v1h-1z M17,84h1v1h-1z M18,84h1v1h-1z M19,84h1v1h-1z M22,84h1v1h-1z M24,84h1v1h-1z M25,84h1v1h-1z M29,84h1v1h-1z M31,84h1v1h-1z M32,84h1v1h-1z M34,84h1v1h-1z M35,84h1v1h-1z M37,84h1v1h-1z M38,84h1v1h-1z M39,84h1v1h-1z M42,84h1v1h-1z M45,84h1v1h-1z M46,84h1v1h-1z M47,84h1v1h-1z M48,84h1v1h-1z M49,84h1v1h-1z M50,84h1v1h-1z M51,84h1v1h-1z M59,84h1v1h-1z M60,84h1v1h-1z M61,84h1v1h-1z M62,84h1v1h-1z M64,84h1v1h-1z M66,84h1v1h-1z M67,84h1v1h-1z M69,84h1v1h-1z M70,84h1v1h-1z M71,84h1v1h-1z M73,84h1v1h-1z M74,84h1v1h-1z M75,84h1v1h-1z M76,84h1v1h-1z M80,84h1v1h-1z M81,84h1v1h-1z M82,84h1v1h-1z M83,84h1v1h-1z M88,84h1v1h-1z M90,84h1v1h-1z M92,84h1v1h-1z M93,84h1v1h-1z M94,84h1v1h-1z M97,84h1v1h-1z M100,84h1v1h-1z M102,84h1v1h-1z M103,84h1v1h-1z M104,84h1v1h-1z M105,84h1v1h-1z M106,84h1v1h-1z M5,85h1v1h-1z M7,85h1v1h-1z M8,85h1v1h-1z M9,85h1v1h-1z M11,85h1v1h-1z M12,85h1v1h-1z M14,85h1v1h-1z M15,85h1v1h-1z M16,85h1v1h-1z M18,85h1v1h-1z M26,85h1v1h-1z M28,85h1v1h-1z M29,85h1v1h-1z M33,85h1v1h-1z M34,85h1v1h-1z M40,85h1v1h-1z M42,85h1v1h-1z M43,85h1v1h-1z M45,85h1v1h-1z M47,85h1v1h-1z M48,85h1v1h-1z M52,85h1v1h-1z M53,85h1v1h-1z M56,85h1v1h-1z M57,85h1v1h-1z M58,85h1v1h-1z M61,85h1v1h-1z M66,85h1v1h-1z M67,85h1v1h-1z M68,85h1v1h-1z M70,85h1v1h-1z M71,85h1v1h-1z M74,85h1v1h-1z M76,85h1v1h-1z M77,85h1v1h-1z M80,85h1v1h-1z M81,85h1v1h-1z M83,85h1v1h-1z M85,85h1v1h-1z M86,85h1v1h-1z M87,85h1v1h-1z M88,85h1v1h-1z M89,85h1v1h-1z M90,85h1v1h-1z M94,85h1v1h-1z M95,85h1v1h-1z M97,85h1v1h-1z M98,85h1v1h-1z M101,85h1v1h-1z M105,85h1v1h-1z M106,85h1v1h-1z M107,85h1v1h-1z M108,85h1v1h-1z M5,86h1v1h-1z M6,86h1v1h-1z M9,86h1v1h-1z M10,86h1v1h-1z M11,86h1v1h-1z M13,86h1v1h-1z M14,86h1v1h-1z M15,86h1v1h-1z M16,86h1v1h-1z M24,86h1v1h-1z M27,86h1v1h-1z M33,86h1v1h-1z M34,86h1v1h-1z M35,86h1v1h-1z M37,86h1v1h-1z M41,86h1v1h-1z M43,86h1v1h-1z M44,86h1v1h-1z M46,86h1v1h-1z M48,86h1v1h-1z M52,86h1v1h-1z M57,86h1v1h-1z M58,86h1v1h-1z M63,86h1v1h-1z M65,86h1v1h-1z M70,86h1v1h-1z M72,86h1v1h-1z M73,86h1v1h-1z M79,86h1v1h-1z M81,86h1v1h-1z M82,86h1v1h-1z M89,86h1v1h-1z M92,86h1v1h-1z M93,86h1v1h-1z M94,86h1v1h-1z M95,86h1v1h-1z M101,86h1v1h-1z M103,86h1v1h-1z M107,86h1v1h-1z M6,87h1v1h-1z M7,87h1v1h-1z M12,87h1v1h-1z M13,87h1v1h-1z M14,87h1v1h-1z M15,87h1v1h-1z M16,87h1v1h-1z M17,87h1v1h-1z M18,87h1v1h-1z M19,87h1v1h-1z M21,87h1v1h-1z M23,87h1v1h-1z M24,87h1v1h-1z M25,87h1v1h-1z M27,87h1v1h-1z M28,87h1v1h-1z M29,87h1v1h-1z M31,87h1v1h-1z M32,87h1v1h-1z M33,87h1v1h-1z M35,87h1v1h-1z M38,87h1v1h-1z M40,87h1v1h-1z M42,87h1v1h-1z M45,87h1v1h-1z M47,87h1v1h-1z M49,87h1v1h-1z M50,87h1v1h-1z M57,87h1v1h-1z M59,87h1v1h-1z M61,87h1v1h-1z M63,87h1v1h-1z M64,87h1v1h-1z M66,87h1v1h-1z M69,87h1v1h-1z M74,87h1v1h-1z M76,87h1v1h-1z M78,87h1v1h-1z M81,87h1v1h-1z M82,87h1v1h-1z M83,87h1v1h-1z M86,87h1v1h-1z M88,87h1v1h-1z M89,87h1v1h-1z M91,87h1v1h-1z M95,87h1v1h-1z M98,87h1v1h-1z M99,87h1v1h-1z M100,87h1v1h-1z M101,87h1v1h-1z M102,87h1v1h-1z M105,87h1v1h-1z M106,87h1v1h-1z M107,87h1v1h-1z M108,87h1v1h-1z M4,88h1v1h-1z M8,88h1v1h-1z M10,88h1v1h-1z M11,88h1v1h-1z M12,88h1v1h-1z M14,88h1v1h-1z M15,88h1v1h-1z M18,88h1v1h-1z M21,88h1v1h-1z M22,88h1v1h-1z M23,88h1v1h-1z M26,88h1v1h-1z M29,88h1v1h-1z M34,88h1v1h-1z M37,88h1v1h-1z M40,88h1v1h-1z M43,88h1v1h-1z M47,88h1v1h-1z M49,88h1v1h-1z M51,88h1v1h-1z M53,88h1v1h-1z M54,88h1v1h-1z M55,88h1v1h-1z M56,88h1v1h-1z M60,88h1v1h-1z M61,88h1v1h-1z M62,88h1v1h-1z M64,88h1v1h-1z M66,88h1v1h-1z M68,88h1v1h-1z M70,88h1v1h-1z M71,88h1v1h-1z M73,88h1v1h-1z M77,88h1v1h-1z M78,88h1v1h-1z M79,88h1v1h-1z M81,88h1v1h-1z M82,88h1v1h-1z M83,88h1v1h-1z M84,88h1v1h-1z M85,88h1v1h-1z M86,88h1v1h-1z M87,88h1v1h-1z M89,88h1v1h-1z M91,88h1v1h-1z M92,88h1v1h-1z M94,88h1v1h-1z M104,88h1v1h-1z M106,88h1v1h-1z M4,89h1v1h-1z M6,89h1v1h-1z M8,89h1v1h-1z M9,89h1v1h-1z M11,89h1v1h-1z M12,89h1v1h-1z M16,89h1v1h-1z M18,89h1v1h-1z M22,89h1v1h-1z M23,89h1v1h-1z M26,89h1v1h-1z M29,89h1v1h-1z M36,89h1v1h-1z M37,89h1v1h-1z M38,89h1v1h-1z M39,89h1v1h-1z M41,89h1v1h-1z M42,89h1v1h-1z M45,89h1v1h-1z M46,89h1v1h-1z M48,89h1v1h-1z M50,89h1v1h-1z M53,89h1v1h-1z M55,89h1v1h-1z M56,89h1v1h-1z M61,89h1v1h-1z M64,89h1v1h-1z M69,89h1v1h-1z M73,89h1v1h-1z M74,89h1v1h-1z M77,89h1v1h-1z M80,89h1v1h-1z M81,89h1v1h-1z M85,89h1v1h-1z M93,89h1v1h-1z M96,89h1v1h-1z M97,89h1v1h-1z M98,89h1v1h-1z M100,89h1v1h-1z M101,89h1v1h-1z M107,89h1v1h-1z M5,90h1v1h-1z M9,90h1v1h-1z M10,90h1v1h-1z M11,90h1v1h-1z M13,90h1v1h-1z M14,90h1v1h-1z M16,90h1v1h-1z M17,90h1v1h-1z M19,90h1v1h-1z M20,90h1v1h-1z M21,90h1v1h-1z M22,90h1v1h-1z M24,90h1v1h-1z M25,90h1v1h-1z M27,90h1v1h-1z M30,90h1v1h-1z M33,90h1v1h-1z M34,90h1v1h-1z M36,90h1v1h-1z M40,90h1v1h-1z M41,90h1v1h-1z M44,90h1v1h-1z M45,90h1v1h-1z M46,90h1v1h-1z M48,90h1v1h-1z M51,90h1v1h-1z M53,90h1v1h-1z M54,90h1v1h-1z M57,90h1v1h-1z M58,90h1v1h-1z M60,90h1v1h-1z M64,90h1v1h-1z M65,90h1v1h-1z M67,90h1v1h-1z M68,90h1v1h-1z M69,90h1v1h-1z M70,90h1v1h-1z M71,90h1v1h-1z M72,90h1v1h-1z M77,90h1v1h-1z M81,90h1v1h-1z M82,90h1v1h-1z M84,90h1v1h-1z M89,90h1v1h-1z M92,90h1v1h-1z M93,90h1v1h-1z M94,90h1v1h-1z M97,90h1v1h-1z M103,90h1v1h-1z M106,90h1v1h-1z M107,90h1v1h-1z M4,91h1v1h-1z M8,91h1v1h-1z M12,91h1v1h-1z M13,91h1v1h-1z M16,91h1v1h-1z M19,91h1v1h-1z M23,91h1v1h-1z M25,91h1v1h-1z M26,91h1v1h-1z M27,91h1v1h-1z M28,91h1v1h-1z M29,91h1v1h-1z M30,91h1v1h-1z M31,91h1v1h-1z M37,91h1v1h-1z M39,91h1v1h-1z M40,91h1v1h-1z M42,91h1v1h-1z M45,91h1v1h-1z M47,91h1v1h-1z M52,91h1v1h-1z M54,91h1v1h-1z M55,91h1v1h-1z M63,91h1v1h-1z M64,91h1v1h-1z M65,91h1v1h-1z M66,91h1v1h-1z M69,91h1v1h-1z M70,91h1v1h-1z M71,91h1v1h-1z M73,91h1v1h-1z M77,91h1v1h-1z M79,91h1v1h-1z M80,91h1v1h-1z M81,91h1v1h-1z M83,91h1v1h-1z M85,91h1v1h-1z M88,91h1v1h-1z M89,91h1v1h-1z M93,91h1v1h-1z M95,91h1v1h-1z M98,91h1v1h-1z M99,91h1v1h-1z M101,91h1v1h-1z M102,91h1v1h-1z M104,91h1v1h-1z M106,91h1v1h-1z M108,91h1v1h-1z M4,92h1v1h-1z M5,92h1v1h-1z M7,92h1v1h-1z M9,92h1v1h-1z M10,92h1v1h-1z M12,92h1v1h-1z M17,92h1v1h-1z M18,92h1v1h-1z M22,92h1v1h-1z M23,92h1v1h-1z M26,92h1v1h-1z M27,92h1v1h-1z M30,92h1v1h-1z M31,92h1v1h-1z M32,92h1v1h-1z M35,92h1v1h-1z M36,92h1v1h-1z M41,92h1v1h-1z M42,92h1v1h-1z M43,92h1v1h-1z M44,92h1v1h-1z M45,92h1v1h-1z M46,92h1v1h-1z M48,92h1v1h-1z M49,92h1v1h-1z M50,92h1v1h-1z M51,92h1v1h-1z M53,92h1v1h-1z M55,92h1v1h-1z M63,92h1v1h-1z M67,92h1v1h-1z M68,92h1v1h-1z M69,92h1v1h-1z M70,92h1v1h-1z M71,92h1v1h-1z M72,92h1v1h-1z M73,92h1v1h-1z M75,92h1v1h-1z M82,92h1v1h-1z M83,92h1v1h-1z M84,92h1v1h-1z M85,92h1v1h-1z M86,92h1v1h-1z M88,92h1v1h-1z M89,92h1v1h-1z M96,92h1v1h-1z M97,92h1v1h-1z M98,92h1v1h-1z M100,92h1v1h-1z M103,92h1v1h-1z M104,92h1v1h-1z M105,92h1v1h-1z M107,92h1v1h-1z M6,93h1v1h-1z M7,93h1v1h-1z M12,93h1v1h-1z M14,93h1v1h-1z M19,93h1v1h-1z M20,93h1v1h-1z M25,93h1v1h-1z M26,93h1v1h-1z M29,93h1v1h-1z M32,93h1v1h-1z M34,93h1v1h-1z M37,93h1v1h-1z M40,93h1v1h-1z M42,93h1v1h-1z M43,93h1v1h-1z M47,93h1v1h-1z M49,93h1v1h-1z M52,93h1v1h-1z M53,93h1v1h-1z M55,93h1v1h-1z M56,93h1v1h-1z M58,93h1v1h-1z M59,93h1v1h-1z M61,93h1v1h-1z M64,93h1v1h-1z M65,93h1v1h-1z M66,93h1v1h-1z M70,93h1v1h-1z M72,93h1v1h-1z M73,93h1v1h-1z M74,93h1v1h-1z M77,93h1v1h-1z M84,93h1v1h-1z M85,93h1v1h-1z M88,93h1v1h-1z M94,93h1v1h-1z M98,93h1v1h-1z M100,93h1v1h-1z M102,93h1v1h-1z M107,93h1v1h-1z M108,93h1v1h-1z M5,94h1v1h-1z M7,94h1v1h-1z M10,94h1v1h-1z M12,94h1v1h-1z M13,94h1v1h-1z M14,94h1v1h-1z M15,94h1v1h-1z M16,94h1v1h-1z M17,94h1v1h-1z M18,94h1v1h-1z M20,94h1v1h-1z M23,94h1v1h-1z M24,94h1v1h-1z M25,94h1v1h-1z M27,94h1v1h-1z M28,94h1v1h-1z M29,94h1v1h-1z M30,94h1v1h-1z M31,94h1v1h-1z M34,94h1v1h-1z M35,94h1v1h-1z M36,94h1v1h-1z M37,94h1v1h-1z M39,94h1v1h-1z M41,94h1v1h-1z M43,94h1v1h-1z M44,94h1v1h-1z M45,94h1v1h-1z M46,94h1v1h-1z M48,94h1v1h-1z M54,94h1v1h-1z M57,94h1v1h-1z M58,94h1v1h-1z M59,94h1v1h-1z M60,94h1v1h-1z M61,94h1v1h-1z M63,94h1v1h-1z M65,94h1v1h-1z M68,94h1v1h-1z M69,94h1v1h-1z M70,94h1v1h-1z M75,94h1v1h-1z M77,94h1v1h-1z M78,94h1v1h-1z M81,94h1v1h-1z M82,94h1v1h-1z M83,94h1v1h-1z M84,94h1v1h-1z M89,94h1v1h-1z M91,94h1v1h-1z M92,94h1v1h-1z M93,94h1v1h-1z M94,94h1v1h-1z M95,94h1v1h-1z M100,94h1v1h-1z M101,94h1v1h-1z M104,94h1v1h-1z M105,94h1v1h-1z M107,94h1v1h-1z M7,95h1v1h-1z M8,95h1v1h-1z M12,95h1v1h-1z M13,95h1v1h-1z M14,95h1v1h-1z M16,95h1v1h-1z M19,95h1v1h-1z M21,95h1v1h-1z M22,95h1v1h-1z M24,95h1v1h-1z M26,95h1v1h-1z M30,95h1v1h-1z M31,95h1v1h-1z M32,95h1v1h-1z M35,95h1v1h-1z M38,95h1v1h-1z M40,95h1v1h-1z M47,95h1v1h-1z M52,95h1v1h-1z M53,95h1v1h-1z M54,95h1v1h-1z M57,95h1v1h-1z M58,95h1v1h-1z M62,95h1v1h-1z M64,95h1v1h-1z M65,95h1v1h-1z M66,95h1v1h-1z M71,95h1v1h-1z M74,95h1v1h-1z M75,95h1v1h-1z M77,95h1v1h-1z M83,95h1v1h-1z M86,95h1v1h-1z M88,95h1v1h-1z M90,95h1v1h-1z M91,95h1v1h-1z M93,95h1v1h-1z M94,95h1v1h-1z M95,95h1v1h-1z M99,95h1v1h-1z M100,95h1v1h-1z M102,95h1v1h-1z M103,95h1v1h-1z M105,95h1v1h-1z M106,95h1v1h-1z M107,95h1v1h-1z M108,95h1v1h-1z M4,96h1v1h-1z M6,96h1v1h-1z M8,96h1v1h-1z M10,96h1v1h-1z M18,96h1v1h-1z M20,96h1v1h-1z M21,96h1v1h-1z M24,96h1v1h-1z M26,96h1v1h-1z M27,96h1v1h-1z M29,96h1v1h-1z M34,96h1v1h-1z M35,96h1v1h-1z M36,96h1v1h-1z M38,96h1v1h-1z M47,96h1v1h-1z M48,96h1v1h-1z M51,96h1v1h-1z M53,96h1v1h-1z M54,96h1v1h-1z M55,96h1v1h-1z M57,96h1v1h-1z M58,96h1v1h-1z M59,96h1v1h-1z M65,96h1v1h-1z M68,96h1v1h-1z M70,96h1v1h-1z M71,96h1v1h-1z M72,96h1v1h-1z M74,96h1v1h-1z M75,96h1v1h-1z M77,96h1v1h-1z M79,96h1v1h-1z M80,96h1v1h-1z M81,96h1v1h-1z M85,96h1v1h-1z M88,96h1v1h-1z M89,96h1v1h-1z M92,96h1v1h-1z M93,96h1v1h-1z M94,96h1v1h-1z M100,96h1v1h-1z M104,96h1v1h-1z M108,96h1v1h-1z M4,97h1v1h-1z M6,97h1v1h-1z M7,97h1v1h-1z M9,97h1v1h-1z M12,97h1v1h-1z M14,97h1v1h-1z M16,97h1v1h-1z M18,97h1v1h-1z M23,97h1v1h-1z M24,97h1v1h-1z M25,97h1v1h-1z M29,97h1v1h-1z M32,97h1v1h-1z M35,97h1v1h-1z M38,97h1v1h-1z M39,97h1v1h-1z M40,97h1v1h-1z M42,97h1v1h-1z M45,97h1v1h-1z M46,97h1v1h-1z M47,97h1v1h-1z M48,97h1v1h-1z M49,97h1v1h-1z M52,97h1v1h-1z M56,97h1v1h-1z M59,97h1v1h-1z M63,97h1v1h-1z M64,97h1v1h-1z M66,97h1v1h-1z M71,97h1v1h-1z M79,97h1v1h-1z M81,97h1v1h-1z M83,97h1v1h-1z M86,97h1v1h-1z M91,97h1v1h-1z M94,97h1v1h-1z M96,97h1v1h-1z M97,97h1v1h-1z M99,97h1v1h-1z M100,97h1v1h-1z M102,97h1v1h-1z M106,97h1v1h-1z M107,97h1v1h-1z M108,97h1v1h-1z M4,98h1v1h-1z M5,98h1v1h-1z M6,98h1v1h-1z M10,98h1v1h-1z M11,98h1v1h-1z M13,98h1v1h-1z M15,98h1v1h-1z M16,98h1v1h-1z M17,98h1v1h-1z M18,98h1v1h-1z M19,98h1v1h-1z M20,98h1v1h-1z M22,98h1v1h-1z M23,98h1v1h-1z M25,98h1v1h-1z M27,98h1v1h-1z M29,98h1v1h-1z M30,98h1v1h-1z M33,98h1v1h-1z M34,98h1v1h-1z M35,98h1v1h-1z M41,98h1v1h-1z M44,98h1v1h-1z M45,98h1v1h-1z M46,98h1v1h-1z M47,98h1v1h-1z M49,98h1v1h-1z M51,98h1v1h-1z M54,98h1v1h-1z M57,98h1v1h-1z M58,98h1v1h-1z M59,98h1v1h-1z M60,98h1v1h-1z M65,98h1v1h-1z M68,98h1v1h-1z M69,98h1v1h-1z M70,98h1v1h-1z M72,98h1v1h-1z M76,98h1v1h-1z M77,98h1v1h-1z M78,98h1v1h-1z M81,98h1v1h-1z M82,98h1v1h-1z M83,98h1v1h-1z M84,98h1v1h-1z M87,98h1v1h-1z M91,98h1v1h-1z M92,98h1v1h-1z M93,98h1v1h-1z M94,98h1v1h-1z M95,98h1v1h-1z M96,98h1v1h-1z M99,98h1v1h-1z M101,98h1v1h-1z M103,98h1v1h-1z M105,98h1v1h-1z M107,98h1v1h-1z M6,99h1v1h-1z M8,99h1v1h-1z M9,99h1v1h-1z M13,99h1v1h-1z M14,99h1v1h-1z M16,99h1v1h-1z M17,99h1v1h-1z M19,99h1v1h-1z M21,99h1v1h-1z M22,99h1v1h-1z M23,99h1v1h-1z M25,99h1v1h-1z M27,99h1v1h-1z M29,99h1v1h-1z M32,99h1v1h-1z M34,99h1v1h-1z M35,99h1v1h-1z M37,99h1v1h-1z M39,99h1v1h-1z M40,99h1v1h-1z M41,99h1v1h-1z M42,99h1v1h-1z M43,99h1v1h-1z M45,99h1v1h-1z M47,99h1v1h-1z M49,99h1v1h-1z M50,99h1v1h-1z M58,99h1v1h-1z M59,99h1v1h-1z M62,99h1v1h-1z M63,99h1v1h-1z M64,99h1v1h-1z M65,99h1v1h-1z M69,99h1v1h-1z M70,99h1v1h-1z M71,99h1v1h-1z M75,99h1v1h-1z M76,99h1v1h-1z M78,99h1v1h-1z M79,99h1v1h-1z M80,99h1v1h-1z M81,99h1v1h-1z M86,99h1v1h-1z M88,99h1v1h-1z M89,99h1v1h-1z M90,99h1v1h-1z M98,99h1v1h-1z M99,99h1v1h-1z M101,99h1v1h-1z M102,99h1v1h-1z M103,99h1v1h-1z M104,99h1v1h-1z M106,99h1v1h-1z M107,99h1v1h-1z M7,100h1v1h-1z M8,100h1v1h-1z M10,100h1v1h-1z M11,100h1v1h-1z M17,100h1v1h-1z M20,100h1v1h-1z M23,100h1v1h-1z M24,100h1v1h-1z M26,100h1v1h-1z M28,100h1v1h-1z M29,100h1v1h-1z M30,100h1v1h-1z M31,100h1v1h-1z M32,100h1v1h-1z M33,100h1v1h-1z M34,100h1v1h-1z M39,100h1v1h-1z M40,100h1v1h-1z M41,100h1v1h-1z M43,100h1v1h-1z M44,100h1v1h-1z M45,100h1v1h-1z M46,100h1v1h-1z M48,100h1v1h-1z M51,100h1v1h-1z M52,100h1v1h-1z M53,100h1v1h-1z M54,100h1v1h-1z M55,100h1v1h-1z M56,100h1v1h-1z M60,100h1v1h-1z M61,100h1v1h-1z M62,100h1v1h-1z M66,100h1v1h-1z M68,100h1v1h-1z M72,100h1v1h-1z M76,100h1v1h-1z M77,100h1v1h-1z M78,100h1v1h-1z M79,100h1v1h-1z M80,100h1v1h-1z M81,100h1v1h-1z M82,100h1v1h-1z M84,100h1v1h-1z M85,100h1v1h-1z M86,100h1v1h-1z M87,100h1v1h-1z M89,100h1v1h-1z M92,100h1v1h-1z M93,100h1v1h-1z M94,100h1v1h-1z M95,100h1v1h-1z M97,100h1v1h-1z M98,100h1v1h-1z M100,100h1v1h-1z M101,100h1v1h-1z M102,100h1v1h-1z M103,100h1v1h-1z M104,100h1v1h-1z M105,100h1v1h-1z M108,100h1v1h-1z M12,101h1v1h-1z M16,101h1v1h-1z M18,101h1v1h-1z M21,101h1v1h-1z M26,101h1v1h-1z M27,101h1v1h-1z M28,101h1v1h-1z M32,101h1v1h-1z M34,101h1v1h-1z M35,101h1v1h-1z M38,101h1v1h-1z M40,101h1v1h-1z M44,101h1v1h-1z M45,101h1v1h-1z M47,101h1v1h-1z M49,101h1v1h-1z M52,101h1v1h-1z M56,101h1v1h-1z M57,101h1v1h-1z M68,101h1v1h-1z M70,101h1v1h-1z M71,101h1v1h-1z M73,101h1v1h-1z M75,101h1v1h-1z M76,101h1v1h-1z M80,101h1v1h-1z M83,101h1v1h-1z M85,101h1v1h-1z M90,101h1v1h-1z M91,101h1v1h-1z M97,101h1v1h-1z M100,101h1v1h-1z M104,101h1v1h-1z M105,101h1v1h-1z M106,101h1v1h-1z M107,101h1v1h-1z M108,101h1v1h-1z M4,102h1v1h-1z M5,102h1v1h-1z M6,102h1v1h-1z M7,102h1v1h-1z M8,102h1v1h-1z M9,102h1v1h-1z M10,102h1v1h-1z M12,102h1v1h-1z M13,102h1v1h-1z M14,102h1v1h-1z M20,102h1v1h-1z M21,102h1v1h-1z M28,102h1v1h-1z M30,102h1v1h-1z M32,102h1v1h-1z M33,102h1v1h-1z M34,102h1v1h-1z M36,102h1v1h-1z M39,102h1v1h-1z M40,102h1v1h-1z M41,102h1v1h-1z M44,102h1v1h-1z M45,102h1v1h-1z M46,102h1v1h-1z M48,102h1v1h-1z M52,102h1v1h-1z M54,102h1v1h-1z M56,102h1v1h-1z M57,102h1v1h-1z M58,102h1v1h-1z M59,102h1v1h-1z M65,102h1v1h-1z M68,102h1v1h-1z M69,102h1v1h-1z M70,102h1v1h-1z M76,102h1v1h-1z M78,102h1v1h-1z M80,102h1v1h-1z M81,102h1v1h-1z M82,102h1v1h-1z M84,102h1v1h-1z M87,102h1v1h-1z M92,102h1v1h-1z M94,102h1v1h-1z M95,102h1v1h-1z M96,102h1v1h-1z M100,102h1v1h-1z M102,102h1v1h-1z M104,102h1v1h-1z M4,103h1v1h-1z M10,103h1v1h-1z M13,103h1v1h-1z M14,103h1v1h-1z M17,103h1v1h-1z M18,103h1v1h-1z M20,103h1v1h-1z M23,103h1v1h-1z M25,103h1v1h-1z M26,103h1v1h-1z M28,103h1v1h-1z M32,103h1v1h-1z M33,103h1v1h-1z M34,103h1v1h-1z M35,103h1v1h-1z M37,103h1v1h-1z M38,103h1v1h-1z M39,103h1v1h-1z M40,103h1v1h-1z M42,103h1v1h-1z M45,103h1v1h-1z M47,103h1v1h-1z M52,103h1v1h-1z M56,103h1v1h-1z M59,103h1v1h-1z M62,103h1v1h-1z M63,103h1v1h-1z M64,103h1v1h-1z M65,103h1v1h-1z M69,103h1v1h-1z M70,103h1v1h-1z M71,103h1v1h-1z M75,103h1v1h-1z M76,103h1v1h-1z M80,103h1v1h-1z M81,103h1v1h-1z M82,103h1v1h-1z M83,103h1v1h-1z M85,103h1v1h-1z M88,103h1v1h-1z M89,103h1v1h-1z M90,103h1v1h-1z M91,103h1v1h-1z M93,103h1v1h-1z M95,103h1v1h-1z M98,103h1v1h-1z M100,103h1v1h-1z M104,103h1v1h-1z M105,103h1v1h-1z M106,103h1v1h-1z M107,103h1v1h-1z M4,104h1v1h-1z M6,104h1v1h-1z M7,104h1v1h-1z M8,104h1v1h-1z M10,104h1v1h-1z M12,104h1v1h-1z M14,104h1v1h-1z M16,104h1v1h-1z M17,104h1v1h-1z M18,104h1v1h-1z M19,104h1v1h-1z M22,104h1v1h-1z M23,104h1v1h-1z M24,104h1v1h-1z M26,104h1v1h-1z M27,104h1v1h-1z M28,104h1v1h-1z M29,104h1v1h-1z M30,104h1v1h-1z M31,104h1v1h-1z M32,104h1v1h-1z M33,104h1v1h-1z M34,104h1v1h-1z M35,104h1v1h-1z M36,104h1v1h-1z M37,104h1v1h-1z M38,104h1v1h-1z M39,104h1v1h-1z M43,104h1v1h-1z M45,104h1v1h-1z M47,104h1v1h-1z M48,104h1v1h-1z M49,104h1v1h-1z M52,104h1v1h-1z M53,104h1v1h-1z M54,104h1v1h-1z M55,104h1v1h-1z M56,104h1v1h-1z M57,104h1v1h-1z M61,104h1v1h-1z M66,104h1v1h-1z M67,104h1v1h-1z M70,104h1v1h-1z M71,104h1v1h-1z M72,104h1v1h-1z M73,104h1v1h-1z M75,104h1v1h-1z M76,104h1v1h-1z M77,104h1v1h-1z M78,104h1v1h-1z M79,104h1v1h-1z M80,104h1v1h-1z M82,104h1v1h-1z M85,104h1v1h-1z M87,104h1v1h-1z M90,104h1v1h-1z M91,104h1v1h-1z M93,104h1v1h-1z M94,104h1v1h-1z M95,104h1v1h-1z M97,104h1v1h-1z M98,104h1v1h-1z M100,104h1v1h-1z M101,104h1v1h-1z M102,104h1v1h-1z M103,104h1v1h-1z M104,104h1v1h-1z M4,105h1v1h-1z M6,105h1v1h-1z M7,105h1v1h-1z M8,105h1v1h-1z M10,105h1v1h-1z M12,105h1v1h-1z M14,105h1v1h-1z M15,105h1v1h-1z M23,105h1v1h-1z M24,105h1v1h-1z M25,105h1v1h-1z M26,105h1v1h-1z M29,105h1v1h-1z M39,105h1v1h-1z M40,105h1v1h-1z M41,105h1v1h-1z M43,105h1v1h-1z M46,105h1v1h-1z M47,105h1v1h-1z M49,105h1v1h-1z M50,105h1v1h-1z M51,105h1v1h-1z M52,105h1v1h-1z M53,105h1v1h-1z M54,105h1v1h-1z M55,105h1v1h-1z M57,105h1v1h-1z M60,105h1v1h-1z M61,105h1v1h-1z M62,105h1v1h-1z M63,105h1v1h-1z M64,105h1v1h-1z M65,105h1v1h-1z M67,105h1v1h-1z M69,105h1v1h-1z M70,105h1v1h-1z M71,105h1v1h-1z M72,105h1v1h-1z M74,105h1v1h-1z M75,105h1v1h-1z M76,105h1v1h-1z M79,105h1v1h-1z M83,105h1v1h-1z M85,105h1v1h-1z M86,105h1v1h-1z M89,105h1v1h-1z M96,105h1v1h-1z M98,105h1v1h-1z M99,105h1v1h-1z M103,105h1v1h-1z M4,106h1v1h-1z M6,106h1v1h-1z M7,106h1v1h-1z M8,106h1v1h-1z M10,106h1v1h-1z M12,106h1v1h-1z M13,106h1v1h-1z M14,106h1v1h-1z M15,106h1v1h-1z M17,106h1v1h-1z M19,106h1v1h-1z M29,106h1v1h-1z M32,106h1v1h-1z M34,106h1v1h-1z M35,106h1v1h-1z M36,106h1v1h-1z M39,106h1v1h-1z M44,106h1v1h-1z M45,106h1v1h-1z M46,106h1v1h-1z M48,106h1v1h-1z M51,106h1v1h-1z M53,106h1v1h-1z M55,106h1v1h-1z M56,106h1v1h-1z M57,106h1v1h-1z M58,106h1v1h-1z M65,106h1v1h-1z M67,106h1v1h-1z M68,106h1v1h-1z M69,106h1v1h-1z M70,106h1v1h-1z M71,106h1v1h-1z M72,106h1v1h-1z M75,106h1v1h-1z M77,106h1v1h-1z M80,106h1v1h-1z M81,106h1v1h-1z M82,106h1v1h-1z M87,106h1v1h-1z M89,106h1v1h-1z M91,106h1v1h-1z M92,106h1v1h-1z M93,106h1v1h-1z M94,106h1v1h-1z M97,106h1v1h-1z M100,106h1v1h-1z M101,106h1v1h-1z M102,106h1v1h-1z M106,106h1v1h-1z M4,107h1v1h-1z M10,107h1v1h-1z M12,107h1v1h-1z M13,107h1v1h-1z M15,107h1v1h-1z M17,107h1v1h-1z M19,107h1v1h-1z M21,107h1v1h-1z M22,107h1v1h-1z M24,107h1v1h-1z M27,107h1v1h-1z M28,107h1v1h-1z M29,107h1v1h-1z M30,107h1v1h-1z M31,107h1v1h-1z M33,107h1v1h-1z M35,107h1v1h-1z M40,107h1v1h-1z M41,107h1v1h-1z M42,107h1v1h-1z M43,107h1v1h-1z M46,107h1v1h-1z M47,107h1v1h-1z M51,107h1v1h-1z M52,107h1v1h-1z M53,107h1v1h-1z M58,107h1v1h-1z M59,107h1v1h-1z M62,107h1v1h-1z M64,107h1v1h-1z M65,107h1v1h-1z M66,107h1v1h-1z M69,107h1v1h-1z M73,107h1v1h-1z M74,107h1v1h-1z M75,107h1v1h-1z M76,107h1v1h-1z M77,107h1v1h-1z M81,107h1v1h-1z M83,107h1v1h-1z M86,107h1v1h-1z M88,107h1v1h-1z M90,107h1v1h-1z M95,107h1v1h-1z M98,107h1v1h-1z M101,107h1v1h-1z M104,107h1v1h-1z M105,107h1v1h-1z M106,107h1v1h-1z M4,108h1v1h-1z M5,108h1v1h-1z M6,108h1v1h-1z M7,108h1v1h-1z M8,108h1v1h-1z M9,108h1v1h-1z M10,108h1v1h-1z M12,108h1v1h-1z M13,108h1v1h-1z M15,108h1v1h-1z M16,108h1v1h-1z M17,108h1v1h-1z M18,108h1v1h-1z M19,108h1v1h-1z M20,108h1v1h-1z M22,108h1v1h-1z M23,108h1v1h-1z M33,108h1v1h-1z M34,108h1v1h-1z M35,108h1v1h-1z M37,108h1v1h-1z M38,108h1v1h-1z M43,108h1v1h-1z M44,108h1v1h-1z M47,108h1v1h-1z M48,108h1v1h-1z M50,108h1v1h-1z M51,108h1v1h-1z M53,108h1v1h-1z M56,108h1v1h-1z M57,108h1v1h-1z M59,108h1v1h-1z M60,108h1v1h-1z M63,108h1v1h-1z M65,108h1v1h-1z M66,108h1v1h-1z M67,108h1v1h-1z M68,108h1v1h-1z M70,108h1v1h-1z M73,108h1v1h-1z M74,108h1v1h-1z M80,108h1v1h-1z M81,108h1v1h-1z M82,108h1v1h-1z M83,108h1v1h-1z M84,108h1v1h-1z M89,108h1v1h-1z M93,108h1v1h-1z M94,108h1v1h-1z M96,108h1v1h-1z M100,108h1v1h-1z M102,108h1v1h-1z M103,108h1v1h-1z M104,108h1v1h-1z M105,108h1v1h-1z M106,108h1v1h-1z M107,108h1v1h-1z" fill="#000000"/>
</svg>
