<?xml version="1.0" encoding="UTF-8"?>
<!DOCTYPE svg PUBLIC "-//W3C//DTD SVG 1.1//EN" "http://www.w3.org/Graphics/SVG/1.1/DTD/svg11.dtd">
<svg xmlns="http://www.w3.org/2000/svg" version="1.1" viewBox="0 0 113 113" stroke="none">
	<rect width="100%" height="100%" fill="#FFFFFF"/>
	<path d="M4,4h1v1h-1z M5,4h1v1h-1z M6,4h1v1h-1z M7,4h1v1h-1z M8,4h1v1h-1z M9,4h1v1h-1z M10,4h1v1h-1z M14,4h1v1h-1z M17,4h1v1h-1z M18,4h1v1h-1z M20,4h1v1h-1z M21,4h1v1h-1z M22,4h1v1h-1z M23,4h1v1h-1z M24,4h1v1h-1z M25,4h1v1h-1z M26,4h1v1h-1z M36,4h1v1h-1z M38,4h1v1h-1z M40,4h1v1h-1z M41,4h1v1h-1z M42,4h1v1h-1z M45,4h1v1h-1z M46,4h1v1h-1z M48,4h1v1h-1z M49,4h1v1h-1z M53,4h1v1h-1z M55,4h1v1h-1z M56,4h1v1h-1z M57,4h1v1h-1z M58,4h1v1h-1z M60,4h1v1h-1z M62,4h1v1h-1z M64,4h1v1h-1z M65,4h1v1h-1z M66,4h1v1h-1z M69,4h1v1h-1z M70,4h1v1h-1z M71,4h1v1h-1z M79,4h1v1h-1z M80,4h1v1h-1z M82,4h1v1h-1z M84,4h1v1h-1z M87,4h1v1h-1z M88,4h1v1h-1z M89,4h1v1h-1z M91,4h1v1h-1z M92,4h1v1h-1z M94,4h1v1h-1z M96,4h1v1h-1z M98,4h1v1h-1z M102,4h1v1h-1z M103,4h1v1h-1z M104,4h1v1h-1z M105,4h1v1h-1z M106,4h1v1h-1z M107,4h1v1h-1z M108,4h1v1h-1z M4,5h1v1h-1z M10,5h1v1h-1z M12,5h1v1h-1z M14,5h1v1h-1z M16,5h1v1h-1z M17,5h1v1h-1z M19,5h1v1h-1z M22,5h1v1h-1z M23,5h1v1h-1z M24,5h1v1h-1z M25,5h1v1h-1z M27,5h1v1h-1z M31,5h1v1h-1z M32,5h1v1h-1z M33,5h1v1h-1z M34,5h1v1h-1z M35,5h1v1h-1z M36,5h1v1h-1z M37,5h1v1h-1z M39,5h1v1h-1z M40,5h1v1h-1z M41,5h1v1h-1z M44,5h1v1h-1z M45,5h1v1h-1z M46,5h1v1h-1z M48,5h1v1h-1z M51,5h1v1h-1z M55,5h1v1h-1z M56,5h1v1h-1z M58,5h1v1h-1z M60,5h1v1h-1z M61,5h1v1h-1z M63,5h1v1h-1z M65,5h1v1h-1z M67,5h1v1h-1z M69,5h1v1h-1z M70,5h1v1h-1z M72,5h1v1h-1z M73,5h1v1h-1z M75,5h1v1h-1z M76,5h1v1h-1z M77,5h1v1h-1z M80,5h1v1h-1z M81,5h1v1h-1z M82,5h1v1h-1z M84,5h1v1h-1z M85,5h1v1h-1z M87,5h1v1h-1z M89,5h1v1h-1z M92,5h1v1h-1z M93,5h1v1h-1z M94,5h1v1h-1z M95,5h1v1h-1z M96,5h1v1h-1z M97,5h1v1h-1z M98,5h1v1h-1z M102,5h1v1h-1z M108,5h1v1h-1z M4,6h1v1h-1z M6,6h1v1h-1z M7,6h1v1h-1z M8,6h1v1h-1z M10,6h1v1h-1z M24,6h1v1h-1z M25,6h1v1h-1z M28,6h1v1h-1z M29,6h1v1h-1z M30,6h1v1h-1z M37,6h1v1h-1z M38,6h1v1h-1z M39,6h1v1h-1z M40,6h1v1h-1z M46,6h1v1h-1z M47,6h1v1h-1z M49,6h1v1h-1z M50,6h1v1h-1z M51,6h1v1h-1z M52,6h1v1h-1z M53,6h1v1h-1z M54,6h1v1h-1z M57,6h1v1h-1z M62,6h1v1h-1z M64,6h1v1h-1z M66,6h1v1h-1z M71,6h1v1h-1z M74,6h1v1h-1z M75,6h1v1h-1z M76,6h1v1h-1z M83,6h1v1h-1z M85,6h1v1h-1z M86,6h1v1h-1z M88,6h1v1h-1z M89,6h1v1h-1z M91,6h1v1h-1z M94,6h1v1h-1z M95,6h1v1h-1z M97,6h1v1h-1z M98,6h1v1h-1z M99,6h1v1h-1z M102,6h1v1h-1z M104,6h1v1h-1z M105,6h1v1h-1z M106,6h1v1h-1z M108,6h1v1h-1z M4,7h1v1h-1z M6,7h1v1h-1z M7,7h1v1h-1z M8,7h1v1h-1z M10,7h1v1h-1z M12,7h1v1h-1z M16,7h1v1h-1z M17,7h1v1h-1z M22,7h1v1h-1z M24,7h1v1h-1z M25,7h1v1h-1z M26,7h1v1h-1z M29,7h1v1h-1z M30,7h1v1h-1z M31,7h1v1h-1z M33,7h1v1h-1z M34,7h1v1h-1z M35,7h1v1h-1z M37,7h1v1h-1z M42,7h1v1h-1z M44,7h1v1h-1z M46,7h1v1h-1z M48,7h1v1h-1z M52,7h1v1h-1z M55,7h1v1h-1z M56,7h1v1h-1z M57,7h1v1h-1z M58,7h1v1h-1z M59,7h1v1h-1z M61,7h1v1h-1z M62,7h1v1h-1z M64,7h1v1h-1z M65,7h1v1h-1z M71,7h1v1h-1z M72,7h1v1h-1z M73,7h1v1h-1z M75,7h1v1h-1z M80,7h1v1h-1z M82,7h1v1h-1z M88,7h1v1h-1z M94,7h1v1h-1z M100,7h1v1h-1z M102,7h1v1h-1z M104,7h1v1h-1z M105,7h1v1h-1z M106,7h1v1h-1z M108,7h1v1h-1z M4,8h1v1h-1z M6,8h1v1h-1z M7,8h1v1h-1z M8,8h1v1h-1z M10,8h1v1h-1z M14,8h1v1h-1z M16,8h1v1h-1z M18,8h1v1h-1z M20,8h1v1h-1z M21,8h1v1h-1z M22,8h1v1h-1z M23,8h1v1h-1z M26,8h1v1h-1z M27,8h1v1h-1z M28,8h1v1h-1z M29,8h1v1h-1z M30,8h1v1h-1z M31,8h1v1h-1z M32,8h1v1h-1z M33,8h1v1h-1z M34,8h1v1h-1z M36,8h1v1h-1z M37,8h1v1h-1z M38,8h1v1h-1z M39,8h1v1h-1z M40,8h1v1h-1z M41,8h1v1h-1z M44,8h1v1h-1z M47,8h1v1h-1z M49,8h1v1h-1z M52,8h1v1h-1z M53,8h1v1h-1z M54,8h1v1h-1z M55,8h1v1h-1z M56,8h1v1h-1z M60,8h1v1h-1z M61,8h1v1h-1z M63,8h1v1h-1z M64,8h1v1h-1z M65,8h1v1h-1z M67,8h1v1h-1z M70,8h1v1h-1z M73,8h1v1h-1z M76,8h1v1h-1z M77,8h1v1h-1z M78,8h1v1h-1z M79,8h1v1h-1z M80,8h1v1h-1z M82,8h1v1h-1z M84,8h1v1h-1z M90,8h1v1h-1z M94,8h1v1h-1z M96,8h1v1h-1z M97,8h1v1h-1z M99,8h1v1h-1z M100,8h1v1h-1z M102,8h1v1h-1z M104,8h1v1h-1z M105,8h1v1h-1z M106,8h1v1h-1z M108,8h1v1h-1z M4,9h1v1h-1z M10,9h1v1h-1z M12,9h1v1h-1z M15,9h1v1h-1z M18,9h1v1h-1z M20,9h1v1h-1z M22,9h1v1h-1z M23,9h1v1h-1z M27,9h1v1h-1z M28,9h1v1h-1z M32,9h1v1h-1z M34,9h1v1h-1z M35,9h1v1h-1z M36,9h1v1h-1z M37,9h1v1h-1z M39,9h1v1h-1z M41,9h1v1h-1z M43,9h1v1h-1z M45,9h1v1h-1z M46,9h1v1h-1z M48,9h1v1h-1z M49,9h1v1h-1z M52,9h1v1h-1z M56,9h1v1h-1z M57,9h1v1h-1z M58,9h1v1h-1z M59,9h1v1h-1z M60,9h1v1h-1z M63,9h1v1h-1z M65,9h1v1h-1z M67,9h1v1h-1z M69,9h1v1h-1z M70,9h1v1h-1z M72,9h1v1h-1z M76,9h1v1h-1z M80,9h1v1h-1z M82,9h1v1h-1z M84,9h1v1h-1z M87,9h1v1h-1z M88,9h1v1h-1z M89,9h1v1h-1z M92,9h1v1h-1z M93,9h1v1h-1z M94,9h1v1h-1z M96,9h1v1h-1z M97,9h1v1h-1z M99,9h1v1h-1z M102,9h1v1h-1z M108,9h1v1h-1z M4,10h1v1h-1z M5,10h1v1h-1z M6,10h1v1h-1z M7,10h1v1h-1z M8,10h1v1h-1z M9,10h1v1h-1z M10,10h1v1h-1z M12,10h1v1h-1z M14,10h1v1h-1z M16,10h1v1h-1z M18,10h1v1h-1z M20,10h1v1h-1z M22,10h1v1h-1z M24,10h1v1h-1z M26,10h1v1h-1z M28,10h1v1h-1z M30,10h1v1h-1z M32,10h1v1h-1z M34,10h1v1h-1z M36,10h1v1h-1z M38,10h1v1h-1z M40,10h1v1h-1z M42,10h1v1h-1z M44,10h1v1h-1z M46,10h1v1h-1z M48,10h1v1h-1z M50,10h1v1h-1z M52,10h1v1h-1z M54,10h1v1h-1z M56,10h1v1h-1z M58,10h1v1h-1z M60,10h1v1h-1z M62,10h1v1h-1z M64,10h1v1h-1z M66,10h1v1h-1z M68,10h1v1h-1z M70,10h1v1h-1z M72,10h1v1h-1z M74,10h1v1h-1z M76,10h1v1h-1z M78,10h1v1h-1z M80,10h1v1h-1z M82,10h1v1h-1z M84,10h1v1h-1z M86,10h1v1h-1z M88,10h1v1h-1z M90,10h1v1h-1z M92,10h1v1h-1z M94,10h1v1h-1z M96,10h1v1h-1z M98,10h1v1h-1z M100,10h1v1h-1z M102,10h1v1h-1z M103,10h1v1h-1z M104,10h1v1h-1z M105,10h1v1h-1z M106,10h1v1h-1z M107,10h1v1h-1z M108,10h1v1h-1z M13,11h1v1h-1z M14,11h1v1h-1z M15,11h1v1h-1z M16,11h1v1h-1z M17,11h1v1h-1z M18,11h1v1h-1z M24,11h1v1h-1z M25,11h1v1h-1z M28,11h1v1h-1z M32,11h1v1h-1z M37,11h1v1h-1z M38,11h1v1h-1z M39,11h1v1h-1z M40,11h1v1h-1z M46,11h1v1h-1z M49,11h1v1h-1z M50,11h1v1h-1z M51,11h1v1h-1z M52,11h1v1h-1z M56,11h1v1h-1z M58,11h1v1h-1z M64,11h1v1h-1z M66,11h1v1h-1z M71,11h1v1h-1z M73,11h1v1h-1z M76,11h1v1h-1z M80,11h1v1h-1z M81,11h1v1h-1z M86,11h1v1h-1z M87,11h1v1h-1z M88,11h1v1h-1z M89,11h1v1h-1z M90,11h1v1h-1z M93,11h1v1h-1z M98,11h1v1h-1z M99,11h1v1h-1z M4,12h1v1h-1z M5,12h1v1h-1z M6,12h1v1h-1z M7,12h1v1h-1z M8,12h1v1h-1z M10,12h1v1h-1z M11,12h1v1h-1z M12,12h1v1h-1z M14,12h1v1h-1z M15,12h1v1h-1z M16,12h1v1h-1z M17,12h1v1h-1z M20,12h1v1h-1z M22,12h1v1h-1z M24,12h1v1h-1z M25,12h1v1h-1z M26,12h1v1h-1z M27,12h1v1h-1z M28,12h1v1h-1z M29,12h1v1h-1z M30,12h1v1h-1z M31,12h1v1h-1z M32,12h1v1h-1z M34,12h1v1h-1z M36,12h1v1h-1z M40,12h1v1h-1z M41,12h1v1h-1z M49,12h1v1h-1z M50,12h1v1h-1z M51,12h1v1h-1z M52,12h1v1h-1z M53,12h1v1h-1z M54,12h1v1h-1z M55,12h1v1h-1z M56,12h1v1h-1z M58,12h1v1h-1z M59,12h1v1h-1z M60,12h1v1h-1z M63,12h1v1h-1z M64,12h1v1h-1z M66,12h1v1h-1z M68,12h1v1h-1z M69,12h1v1h-1z M70,12h1v1h-1z M73,12h1v1h-1z M75,12h1v1h-1z M76,12h1v1h-1z M77,12h1v1h-1z M78,12h1v1h-1z M79,12h1v1h-1z M80,12h1v1h-1z M81,12h1v1h-1z M82,12h1v1h-1z M87,12h1v1h-1z M89,12h1v1h-1z M94,12h1v1h-1z M96,12h1v1h-1z M100,12h1v1h-1z M101,12h1v1h-1z M103,12h1v1h-1z M105,12h1v1h-1z M107,12h1v1h-1z M4,13h1v1h-1z M8,13h1v1h-1z M14,13h1v1h-1z M17,13h1v1h-1z M19,13h1v1h-1z M20,13h1v1h-1z M23,13h1v1h-1z M26,13h1v1h-1z M27,13h1v1h-1z M28,13h1v1h-1z M29,13h1v1h-1z M30,13h1v1h-1z M33,13h1v1h-1z M34,13h1v1h-1z M40,13h1v1h-1z M41,13h1v1h-1z M43,13h1v1h-1z M46,13h1v1h-1z M47,13h1v1h-1z M49,13h1v1h-1z M52,13h1v1h-1z M55,13h1v1h-1z M56,13h1v1h-1z M57,13h1v1h-1z M61,13h1v1h-1z M62,13h1v1h-1z M64,13h1v1h-1z M67,13h1v1h-1z M70,13h1v1h-1z M72,13h1v1h-1z M74,13h1v1h-1z M75,13h1v1h-1z M76,13h1v1h-1z M77,13h1v1h-1z M78,13h1v1h-1z M83,13h1v1h-1z M85,13h1v1h-1z M88,13h1v1h-1z M89,13h1v1h-1z M91,13h1v1h-1z M92,13h1v1h-1z M103,13h1v1h-1z M105,13h1v1h-1z M5,14h1v1h-1z M7,14h1v1h-1z M10,14h1v1h-1z M12,14h1v1h-1z M13,14h1v1h-1z M14,14h1v1h-1z M15,14h1v1h-1z M16,14h1v1h-1z M18,14h1v1h-1z M20,14h1v1h-1z M23,14h1v1h-1z M24,14h1v1h-1z M25,14h1v1h-1z M27,14h1v1h-1z M28,14h1v1h-1z M29,14h1v1h-1z M31,14h1v1h-1z M32,14h1v1h-1z M33,14h1v1h-1z M34,14h1v1h-1z M36,14h1v1h-1z M41,14h1v1h-1z M44,14h1v1h-1z M45,14h1v1h-1z M46,14h1v1h-1z M48,14h1v1h-1z M56,14h1v1h-1z M57,14h1v1h-1z M58,14h1v1h-1z M59,14h1v1h-1z M60,14h1v1h-1z M65,14h1v1h-1z M67,14h1v1h-1z M70,14h1v1h-1z M71,14h1v1h-1z M75,14h1v1h-1z M77,14h1v1h-1z M79,14h1v1h-1z M80,14h1v1h-1z M82,14h1v1h-1z M83,14h1v1h-1z M84,14h1v1h-1z M87,14h1v1h-1z M89,14h1v1h-1z M92,14h1v1h-1z M93,14h1v1h-1z M94,14h1v1h-1z M95,14h1v1h-1z M97,14h1v1h-1z M99,14h1v1h-1z M100,14h1v1h-1z M101,14h1v1h-1z M102,14h1v1h-1z M105,14h1v1h-1z M107,14h1v1h-1z M4,15h1v1h-1z M9,15h1v1h-1z M16,15h1v1h-1z M21,15h1v1h-1z M24,15h1v1h-1z M26,15h1v1h-1z M27,15h1v1h-1z M28,15h1v1h-1z M30,15h1v1h-1z M33,15h1v1h-1z M35,15h1v1h-1z M37,15h1v1h-1z M38,15h1v1h-1z M39,15h1v1h-1z M40,15h1v1h-1z M47,15h1v1h-1z M50,15h1v1h-1z M52,15h1v1h-1z M53,15h1v1h-1z M54,15h1v1h-1z M58,15h1v1h-1z M61,15h1v1h-1z M63,15h1v1h-1z M64,15h1v1h-1z M65,15h1v1h-1z M66,15h1v1h-1z M69,15h1v1h-1z M71,15h1v1h-1z M76,15h1v1h-1z M78,15h1v1h-1z M79,15h1v1h-1z M87,15h1v1h-1z M88,15h1v1h-1z M91,15h1v1h-1z M95,15h1v1h-1z M98,15h1v1h-1z M101,15h1v1h-1z M104,15h1v1h-1z M105,15h1v1h-1z M106,15h1v1h-1z M107,15h1v1h-1z M108,15h1v1h-1z M4,16h1v1h-1z M6,16h1v1h-1z M8,16h1v1h-1z M9,16h1v1h-1z M10,16h1v1h-1z M12,16h1v1h-1z M15,16h1v1h-1z M17,16h1v1h-1z M19,16h1v1h-1z M23,16h1v1h-1z M24,16h1v1h-1z M25,16h1v1h-1z M28,16h1v1h-1z M29,16h1v1h-1z M33,16h1v1h-1z M34,16h1v1h-1z M35,16h1v1h-1z M36,16h1v1h-1z M37,16h1v1h-1z M40,16h1v1h-1z M42,16h1v1h-1z M43,16h1v1h-1z M45,16h1v1h-1z M46,16h1v1h-1z M49,16h1v1h-1z M50,16h1v1h-1z M51,16h1v1h-1z M53,16h1v1h-1z M55,16h1v1h-1z M59,16h1v1h-1z M60,16h1v1h-1z M63,16h1v1h-1z M65,16h1v1h-1z M66,16h1v1h-1z M70,16h1v1h-1z M72,16h1v1h-1z M73,16h1v1h-1z M78,16h1v1h-1z M80,16h1v1h-1z M82,16h1v1h-1z M83,16h1v1h-1z M85,16h1v1h-1z M86,16h1v1h-1z M90,16h1v1h-1z M95,16h1v1h-1z M96,16h1v1h-1z M97,16h1v1h-1z M99,16h1v1h-1z M100,16h1v1h-1z M101,16h1v1h-1z M103,16h1v1h-1z M105,16h1v1h-1z M106,16h1v1h-1z M107,16h1v1h-1z M108,16h1v1h-1z M4,17h1v1h-1z M5,17h1v1h-1z M7,17h1v1h-1z M11,17h1v1h-1z M13,17h1v1h-1z M16,17h1v1h-1z M18,17h1v1h-1z M19,17h1v1h-1z M21,17h1v1h-1z M26,17h1v1h-1z M27,17h1v1h-1z M28,17h1v1h-1z M29,17h1v1h-1z M33,17h1v1h-1z M37,17h1v1h-1z M38,17h1v1h-1z M39,17h1v1h-1z M40,17h1v1h-1z M43,17h1v1h-1z M44,17h1v1h-1z M45,17h1v1h-1z M48,17h1v1h-1z M49,17h1v1h-1z M51,17h1v1h-1z M52,17h1v1h-1z M53,17h1v1h-1z M54,17h1v1h-1z M55,17h1v1h-1z M56,17h1v1h-1z M57,17h1v1h-1z M58,17h1v1h-1z M59,17h1v1h-1z M60,17h1v1h-1z M63,17h1v1h-1z M64,17h1v1h-1z M66,17h1v1h-1z M67,17h1v1h-1z M71,17h1v1h-1z M73,17h1v1h-1z M75,17h1v1h-1z M76,17h1v1h-1z M77,17h1v1h-1z M78,17h1v1h-1z M79,17h1v1h-1z M80,17h1v1h-1z M81,17h1v1h-1z M83,17h1v1h-1z M87,17h1v1h-1z M88,17h1v1h-1z M91,17h1v1h-1z M95,17h1v1h-1z M96,17h1v1h-1z M98,17h1v1h-1z M100,17h1v1h-1z M101,17h1v1h-1z M103,17h1v1h-1z M104,17h1v1h-1z M105,17h1v1h-1z M106,17h1v1h-1z M107,17h1v1h-1z M108,17h1v1h-1z M6,18h1v1h-1z M9,18h1v1h-1z M10,18h1v1h-1z M11,18h1v1h-1z M12,18h1v1h-1z M14,18h1v1h-1z M15,18h1v1h-1z M17,18h1v1h-1z M20,18h1v1h-1z M21,18h1v1h-1z M24,18h1v1h-1z M28,18h1v1h-1z M29,18h1v1h-1z M32,18h1v1h-1z M33,18h1v1h-1z M34,18h1v1h-1z M35,18h1v1h-1z M36,18h1v1h-1z M39,18h1v1h-1z M40,18h1v1h-1z M41,18h1v1h-1z M44,18h1v1h-1z M45,18h1v1h-1z M46,18h1v1h-1z M47,18h1v1h-1z M52,18h1v1h-1z M55,18h1v1h-1z M58,18h1v1h-1z M60,18h1v1h-1z M65,18h1v1h-1z M67,18h1v1h-1z M68,18h1v1h-1z M69,18h1v1h-1z M70,18h1v1h-1z M72,18h1v1h-1z M77,18h1v1h-1z M79,18h1v1h-1z M80,18h1v1h-1z M81,18h1v1h-1z M82,18h1v1h-1z M84,18h1v1h-1z M87,18h1v1h-1z M89,18h1v1h-1z M91,18h1v1h-1z M94,18h1v1h-1z M95,18h1v1h-1z M96,18h1v1h-1z M105,18h1v1h-1z M106,18h1v1h-1z M5,19h1v1h-1z M8,19h1v1h-1z M9,19h1v1h-1z M13,19h1v1h-1z M17,19h1v1h-1z M18,19h1v1h-1z M19,19h1v1h-1z M20,19h1v1h-1z M22,19h1v1h-1z M24,19h1v1h-1z M26,19h1v1h-1z M30,19h1v1h-1z M34,19h1v1h-1z M37,19h1v1h-1z M39,19h1v1h-1z M40,19h1v1h-1z M42,19h1v1h-1z M43,19h1v1h-1z M46,19h1v1h-1z M47,19h1v1h-1z M49,19h1v1h-1z M53,19h1v1h-1z M54,19h1v1h-1z M59,19h1v1h-1z M63,19h1v1h-1z M64,19h1v1h-1z M65,19h1v1h-1z M66,19h1v1h-1z M69,19h1v1h-1z M70,19h1v1h-1z M71,19h1v1h-1z M74,19h1v1h-1z M75,19h1v1h-1z M76,19h1v1h-1z M77,19h1v1h-1z M81,19h1v1h-1z M82,19h1v1h-1z M83,19h1v1h-1z M85,19h1v1h-1z M88,19h1v1h-1z M89,19h1v1h-1z M90,19h1v1h-1z M97,19h1v1h-1z M98,19h1v1h-1z M99,19h1v1h-1z M101,19h1v1h-1z M104,19h1v1h-1z M105,19h1v1h-1z M106,19h1v1h-1z M108,19h1v1h-1z M5,20h1v1h-1z M8,20h1v1h-1z M9,20h1v1h-1z M10,20h1v1h-1z M11,20h1v1h-1z M13,20h1v1h-1z M15,20h1v1h-1z M18,20h1v1h-1z M19,20h1v1h-1z M20,20h1v1h-1z M23,20h1v1h-1z M24,20h1v1h-1z M27,20h1v1h-1z M30,20h1v1h-1z M32,20h1v1h-1z M34,20h1v1h-1z M35,20h1v1h-1z M38,20h1v1h-1z M39,20h1v1h-1z M41,20h1v1h-1z M46,20h1v1h-1z M47,20h1v1h-1z M48,20h1v1h-1z M49,20h1v1h-1z M50,20h1v1h-1z M52,20h1v1h-1z M54,20h1v1h-1z M56,20h1v1h-1z M57,20h1v1h-1z M58,20h1v1h-1z M65,20h1v1h-1z M67,20h1v1h-1z M70,20h1v1h-1z M73,20h1v1h-1z M74,20h1v1h-1z M75,20h1v1h-1z M77,20h1v1h-1z M78,20h1v1h-1z M79,20h1v1h-1z M80,20h1v1h-1z M82,20h1v1h-1z M83,20h1v1h-1z M84,20h1v1h-1z M86,20h1v1h-1z M87,20h1v1h-1z M88,20h1v1h-1z M89,20h1v1h-1z M92,20h1v1h-1z M94,20h1v1h-1z M95,20h1v1h-1z M96,20h1v1h-1z M97,20h1v1h-1z M100,20h1v1h-1z M102,20h1v1h-1z M103,20h1v1h-1z M107,20h1v1h-1z M4,21h1v1h-1z M7,21h1v1h-1z M8,21h1v1h-1z M13,21h1v1h-1z M15,21h1v1h-1z M16,21h1v1h-1z M17,21h1v1h-1z M20,21h1v1h-1z M21,21h1v1h-1z M22,21h1v1h-1z M24,21h1v1h-1z M26,21h1v1h-1z M28,21h1v1h-1z M31,21h1v1h-1z M34,21h1v1h-1z M35,21h1v1h-1z M37,21h1v1h-1z M46,21h1v1h-1z M47,21h1v1h-1z M48,21h1v1h-1z M49,21h1v1h-1z M50,21h1v1h-1z M51,21h1v1h-1z M52,21h1v1h-1z M53,21h1v1h-1z M54,21h1v1h-1z M55,21h1v1h-1z M58,21h1v1h-1z M59,21h1v1h-1z M61,21h1v1h-1z M62,21h1v1h-1z M63,21h1v1h-1z M66,21h1v1h-1z M67,21h1v1h-1z M68,21h1v1h-1z M69,21h1v1h-1z M72,21h1v1h-1z M75,21h1v1h-1z M76,21h1v1h-1z M77,21h1v1h-1z M78,21h1v1h-1z M79,21h1v1h-1z M80,21h1v1h-1z M83,21h1v1h-1z M84,21h1v1h-1z M86,21h1v1h-1z M89,21h1v1h-1z M92,21h1v1h-1z M93,21h1v1h-1z M95,21h1v1h-1z M98,21h1v1h-1z M100,21h1v1h-1z M105,21h1v1h-1z M106,21h1v1h-1z M108,21h1v1h-1z M4,22h1v1h-1z M5,22h1v1h-1z M6,22h1v1h-1z M9,22h1v1h-1z M10,22h1v1h-1z M16,22h1v1h-1z M18,22h1v1h-1z M20,22h1v1h-1z M22,22h1v1h-1z M23,22h1v1h-1z M25,22h1v1h-1z M29,22h1v1h-1z M32,22h1v1h-1z M34,22h1v1h-1z M35,22h1v1h-1z M36,22h1v1h-1z M37,22h1v1h-1z M41,22h1v1h-1z M44,22h1v1h-1z M46,22h1v1h-1z M47,22h1v1h-1z M52,22h1v1h-1z M55,22h1v1h-1z M56,22h1v1h-1z M58,22h1v1h-1z M63,22h1v1h-1z M65,22h1v1h-1z M67,22h1v1h-1z M68,22h1v1h-1z M69,22h1v1h-1z M70,22h1v1h-1z M71,22h1v1h-1z M72,22h1v1h-1z M75,22h1v1h-1z M76,22h1v1h-1z M79,22h1v1h-1z M80,22h1v1h-1z M81,22h1v1h-1z M82,22h1v1h-1z M84,22h1v1h-1z M88,22h1v1h-1z M89,22h1v1h-1z M91,22h1v1h-1z M92,22h1v1h-1z M93,22h1v1h-1z M94,22h1v1h-1z M106,22h1v1h-1z M107,22h1v1h-1z M4,23h1v1h-1z M7,23h1v1h-1z M13,23h1v1h-1z M14,23h1v1h-1z M18,23h1v1h-1z M20,23h1v1h-1z M21,23h1v1h-1z M26,23h1v1h-1z M27,23h1v1h-1z M28,23h1v1h-1z M30,23h1v1h-1z M31,23h1v1h-1z M35,23h1v1h-1z M38,23h1v1h-1z M39,23h1v1h-1z M40,23h1v1h-1z M43,23h1v1h-1z M47,23h1v1h-1z M53,23h1v1h-1z M54,23h1v1h-1z M55,23h1v1h-1z M59,23h1v1h-1z M61,23h1v1h-1z M62,23h1v1h-1z M63,23h1v1h-1z M64,23h1v1h-1z M66,23h1v1h-1z M70,23h1v1h-1z M76,23h1v1h-1z M77,23h1v1h-1z M78,23h1v1h-1z M81,23h1v1h-1z M82,23h1v1h-1z M83,23h1v1h-1z M85,23h1v1h-1z M87,23h1v1h-1z M88,23h1v1h-1z M90,23h1v1h-1z M93,23h1v1h-1z M94,23h1v1h-1z M95,23h1v1h-1z M99,23h1v1h-1z M100,23h1v1h-1z M101,23h1v1h-1z M104,23h1v1h-1z M105,23h1v1h-1z M106,23h1v1h-1z M107,23h1v1h-1z M6,24h1v1h-1z M10,24h1v1h-1z M12,24h1v1h-1z M14,24h1v1h-1z M20,24h1v1h-1z M21,24h1v1h-1z M22,24h1v1h-1z M23,24h1v1h-1z M24,24h1v1h-1z M28,24h1v1h-1z M29,24h1v1h-1z M30,24h1v1h-1z M31,24h1v1h-1z M33,24h1v1h-1z M34,24h1v1h-1z M37,24h1v1h-1z M40,24h1v1h-1z M41,24h1v1h-1z M46,24h1v1h-1z M52,24h1v1h-1z M53,24h1v1h-1z M57,24h1v1h-1z M58,24h1v1h-1z M59,24h1v1h-1z M65,24h1v1h-1z M67,24h1v1h-1z M68,24h1v1h-1z M70,24h1v1h-1z M73,24h1v1h-1z M74,24h1v1h-1z M75,24h1v1h-1z M76,24h1v1h-1z M77,24h1v1h-1z M78,24h1v1h-1z M80,24h1v1h-1z M81,24h1v1h-1z M82,24h1v1h-1z M87,24h1v1h-1z M88,24h1v1h-1z M89,24h1v1h-1z M90,24h1v1h-1z M91,24h1v1h-1z M92,24h1v1h-1z M94,24h1v1h-1z M95,24h1v1h-1z M96,24h1v1h-1z M98,24h1v1h-1z M99,24h1v1h-1z M100,24h1v1h-1z M101,24h1v1h-1z M103,24h1v1h-1z M105,24h1v1h-1z M106,24h1v1h-1z M107,24h1v1h-1z M4,25h1v1h-1z M5,25h1v1h-1z M7,25h1v1h-1z M8,25h1v1h-1z M12,25h1v1h-1z M13,25h1v1h-1z M14,25h1v1h-1z M15,25h1v1h-1z M16,25h1v1h-1z M17,25h1v1h-1z M18,25h1v1h-1z M21,25h1v1h-1z M22,25h1v1h-1z M25,25h1v1h-1z M27,25h1v1h-1z M28,25h1v1h-1z M29,25h1v1h-1z M30,25h1v1h-1z M36,25h1v1h-1z M39,25h1v1h-1z M40,25h1v1h-1z M41,25h1v1h-1z M43,25h1v1h-1z M45,25h1v1h-1z M47,25h1v1h-1z M51,25h1v1h-1z M52,25h1v1h-1z M59,25h1v1h-1z M64,25h1v1h-1z M66,25h1v1h-1z M67,25h1v1h-1z M69,25h1v1h-1z M71,25h1v1h-1z M72,25h1v1h-1z M75,25h1v1h-1z M76,25h1v1h-1z M79,25h1v1h-1z M82,25h1v1h-1z M83,25h1v1h-1z M86,25h1v1h-1z M87,25h1v1h-1z M88,25h1v1h-1z M90,25h1v1h-1z M92,25h1v1h-1z M94,25h1v1h-1z M95,25h1v1h-1z M98,25h1v1h-1z M99,25h1v1h-1z M101,25h1v1h-1z M103,25h1v1h-1z M105,25h1v1h-1z M108,25h1v1h-1z M4,26h1v1h-1z M6,26h1v1h-1z M7,26h1v1h-1z M10,26h1v1h-1z M11,26h1v1h-1z M12,26h1v1h-1z M14,26h1v1h-1z M15,26h1v1h-1z M19,26h1v1h-1z M21,26h1v1h-1z M25,26h1v1h-1z M27,26h1v1h-1z M28,26h1v1h-1z M29,26h1v1h-1z M31,26h1v1h-1z M32,26h1v1h-1z M33,26h1v1h-1z M34,26h1v1h-1z M35,26h1v1h-1z M36,26h1v1h-1z M37,26h1v1h-1z M39,26h1v1h-1z M41,26h1v1h-1z M44,26h1v1h-1z M45,26h1v1h-1z M46,26h1v1h-1z M47,26h1v1h-1z M48,26h1v1h-1z M51,26h1v1h-1z M52,26h1v1h-1z M55,26h1v1h-1z M56,26h1v1h-1z M57,26h1v1h-1z M58,26h1v1h-1z M59,26h1v1h-1z M60,26h1v1h-1z M63,26h1v1h-1z M65,26h1v1h-1z M67,26h1v1h-1z M68,26h1v1h-1z M69,26h1v1h-1z M70,26h1v1h-1z M71,26h1v1h-1z M72,26h1v1h-1z M79,26h1v1h-1z M80,26h1v1h-1z M81,26h1v1h-1z M82,26h1v1h-1z M83,26h1v1h-1z M84,26h1v1h-1z M87,26h1v1h-1z M89,26h1v1h-1z M92,26h1v1h-1z M94,26h1v1h-1z M100,26h1v1h-1z M102,26h1v1h-1z M105,26h1v1h-1z M107,26h1v1h-1z M6,27h1v1h-1z M7,27h1v1h-1z M8,27h1v1h-1z M11,27h1v1h-1z M12,27h1v1h-1z M14,27h1v1h-1z M15,27h1v1h-1z M18,27h1v1h-1z M20,27h1v1h-1z M21,27h1v1h-1z M22,27h1v1h-1z M24,27h1v1h-1z M26,27h1v1h-1z M30,27h1v1h-1z M31,27h1v1h-1z M33,27h1v1h-1z M34,27h1v1h-1z M37,27h1v1h-1z M38,27h1v1h-1z M40,27h1v1h-1z M41,27h1v1h-1z M42,27h1v1h-1z M45,27h1v1h-1z M50,27h1v1h-1z M52,27h1v1h-1z M53,27h1v1h-1z M54,27h1v1h-1z M58,27h1v1h-1z M59,27h1v1h-1z M61,27h1v1h-1z M62,27h1v1h-1z M64,27h1v1h-1z M70,27h1v1h-1z M73,27h1v1h-1z M74,27h1v1h-1z M77,27h1v1h-1z M78,27h1v1h-1z M86,27h1v1h-1z M88,27h1v1h-1z M90,27h1v1h-1z M93,27h1v1h-1z M95,27h1v1h-1z M100,27h1v1h-1z M101,27h1v1h-1z M103,27h1v1h-1z M105,27h1v1h-1z M106,27h1v1h-1z M4,28h1v1h-1z M8,28h1v1h-1z M9,28h1v1h-1z M10,28h1v1h-1z M11,28h1v1h-1z M12,28h1v1h-1z M13,28h1v1h-1z M15,28h1v1h-1z M17,28h1v1h-1z M18,28h1v1h-1z M19,28h1v1h-1z M23,28h1v1h-1z M24,28h1v1h-1z M25,28h1v1h-1z M26,28h1v1h-1z M28,28h1v1h-1z M29,28h1v1h-1z M30,28h1v1h-1z M31,28h1v1h-1z M32,28h1v1h-1z M33,28h1v1h-1z M35,28h1v1h-1z M36,28h1v1h-1z M37,28h1v1h-1z M38,28h1v1h-1z M39,28h1v1h-1z M40,28h1v1h-1z M43,28h1v1h-1z M45,28h1v1h-1z M46,28h1v1h-1z M47,28h1v1h-1z M48,28h1v1h-1z M49,28h1v1h-1z M51,28h1v1h-1z M52,28h1v1h-1z M53,28h1v1h-1z M54,28h1v1h-1z M55,28h1v1h-1z M56,28h1v1h-1z M59,28h1v1h-1z M62,28h1v1h-1z M64,28h1v1h-1z M67,28h1v1h-1z M68,28h1v1h-1z M69,28h1v1h-1z M70,28h1v1h-1z M72,28h1v1h-1z M73,28h1v1h-1z M75,28h1v1h-1z M76,28h1v1h-1z M77,28h1v1h-1z M78,28h1v1h-1z M79,28h1v1h-1z M80,28h1v1h-1z M81,28h1v1h-1z M82,28h1v1h-1z M87,28h1v1h-1z M90,28h1v1h-1z M96,28h1v1h-1z M97,28h1v1h-1z M99,28h1v1h-1z M100,28h1v1h-1z M101,28h1v1h-1z M102,28h1v1h-1z M103,28h1v1h-1z M104,28h1v1h-1z M106,28h1v1h-1z M107,28h1v1h-1z M4,29h1v1h-1z M5,29h1v1h-1z M8,29h1v1h-1z M12,29h1v1h-1z M14,29h1v1h-1z M18,29h1v1h-1z M19,29h1v1h-1z M20,29h1v1h-1z M22,29h1v1h-1z M27,29h1v1h-1z M28,29h1v1h-1z M32,29h1v1h-1z M36,29h1v1h-1z M38,29h1v1h-1z M41,29h1v1h-1z M42,29h1v1h-1z M48,29h1v1h-1z M49,29h1v1h-1z M51,29h1v1h-1z M52,29h1v1h-1z M56,29h1v1h-1z M57,29h1v1h-1z M58,29h1v1h-1z M59,29h1v1h-1z M60,29h1v1h-1z M61,29h1v1h-1z M64,29h1v1h-1z M65,29h1v1h-1z M66,29h1v1h-1z M67,29h1v1h-1z M70,29h1v1h-1z M71,29h1v1h-1z M72,29h1v1h-1z M73,29h1v1h-1z M74,29h1v1h-1z M76,29h1v1h-1z M80,29h1v1h-1z M83,29h1v1h-1z M84,29h1v1h-1z M87,29h1v1h-1z M91,29h1v1h-1z M92,29h1v1h-1z M94,29h1v1h-1z M95,29h1v1h-1z M96,29h1v1h-1z M98,29h1v1h-1z M100,29h1v1h-1z M104,29h1v1h-1z M4,30h1v1h-1z M6,30h1v1h-1z M7,30h1v1h-1z M8,30h1v1h-1z M10,30h1v1h-1z M12,30h1v1h-1z M13,30h1v1h-1z M14,30h1v1h-1z M15,30h1v1h-1z M16,30h1v1h-1z M17,30h1v1h-1z M19,30h1v1h-1z M21,30h1v1h-1z M23,30h1v1h-1z M24,30h1v1h-1z M28,30h1v1h-1z M30,30h1v1h-1z M32,30h1v1h-1z M34,30h1v1h-1z M35,30h1v1h-1z M36,30h1v1h-1z M37,30h1v1h-1z M39,30h1v1h-1z M41,30h1v1h-1z M44,30h1v1h-1z M45,30h1v1h-1z M46,30h1v1h-1z M47,30h1v1h-1z M48,30h1v1h-1z M49,30h1v1h-1z M52,30h1v1h-1z M54,30h1v1h-1z M56,30h1v1h-1z M57,30h1v1h-1z M58,30h1v1h-1z M59,30h1v1h-1z M60,30h1v1h-1z M61,30h1v1h-1z M63,30h1v1h-1z M65,30h1v1h-1z M68,30h1v1h-1z M69,30h1v1h-1z M70,30h1v1h-1z M72,30h1v1h-1z M73,30h1v1h-1z M75,30h1v1h-1z M76,30h1v1h-1z M78,30h1v1h-1z M80,30h1v1h-1z M81,30h1v1h-1z M82,30h1v1h-1z M84,30h1v1h-1z M87,30h1v1h-1z M88,30h1v1h-1z M89,30h1v1h-1z M92,30h1v1h-1z M93,30h1v1h-1z M94,30h1v1h-1z M95,30h1v1h-1z M96,30h1v1h-1z M100,30h1v1h-1z M102,30h1v1h-1z M104,30h1v1h-1z M106,30h1v1h-1z M107,30h1v1h-1z M7,31h1v1h-1z M8,31h1v1h-1z M12,31h1v1h-1z M14,31h1v1h-1z M17,31h1v1h-1z M18,31h1v1h-1z M23,31h1v1h-1z M26,31h1v1h-1z M28,31h1v1h-1z M32,31h1v1h-1z M33,31h1v1h-1z M37,31h1v1h-1z M38,31h1v1h-1z M39,31h1v1h-1z M40,31h1v1h-1z M46,31h1v1h-1z M49,31h1v1h-1z M50,31h1v1h-1z M52,31h1v1h-1z M56,31h1v1h-1z M58,31h1v1h-1z M62,31h1v1h-1z M63,31h1v1h-1z M64,31h1v1h-1z M66,31h1v1h-1z M67,31h1v1h-1z M71,31h1v1h-1z M73,31h1v1h-1z M74,31h1v1h-1z M76,31h1v1h-1z M80,31h1v1h-1z M81,31h1v1h-1z M82,31h1v1h-1z M83,31h1v1h-1z M86,31h1v1h-1z M87,31h1v1h-1z M88,31h1v1h-1z M91,31h1v1h-1z M97,31h1v1h-1z M98,31h1v1h-1z M100,31h1v1h-1z M104,31h1v1h-1z M106,31h1v1h-1z M107,31h1v1h-1z M108,31h1v1h-1z M4,32h1v1h-1z M5,32h1v1h-1z M6,32h1v1h-1z M7,32h1v1h-1z M8,32h1v1h-1z M9,32h1v1h-1z M10,32h1v1h-1z M11,32h1v1h-1z M12,32h1v1h-1z M13,32h1v1h-1z M15,32h1v1h-1z M17,32h1v1h-1z M20,32h1v1h-1z M24,32h1v1h-1z M26,32h1v1h-1z M27,32h1v1h-1z M28,32h1v1h-1z M29,32h1v1h-1z M30,32h1v1h-1z M31,32h1v1h-1z M32,32h1v1h-1z M33,32h1v1h-1z M34,32h1v1h-1z M35,32h1v1h-1z M36,32h1v1h-1z M37,32h1v1h-1z M38,32h1v1h-1z M40,32h1v1h-1z M43,32h1v1h-1z M44,32h1v1h-1z M45,32h1v1h-1z M48,32h1v1h-1z M52,32h1v1h-1z M53,32h1v1h-1z M54,32h1v1h-1z M55,32h1v1h-1z M56,32h1v1h-1z M58,32h1v1h-1z M60,32h1v1h-1z M61,32h1v1h-1z M62,32h1v1h-1z M66,32h1v1h-1z M67,32h1v1h-1z M68,32h1v1h-1z M69,32h1v1h-1z M70,32h1v1h-1z M71,32h1v1h-1z M73,32h1v1h-1z M76,32h1v1h-1z M77,32h1v1h-1z M78,32h1v1h-1z M79,32h1v1h-1z M80,32h1v1h-1z M85,32h1v1h-1z M90,32h1v1h-1z M91,32h1v1h-1z M93,32h1v1h-1z M100,32h1v1h-1z M101,32h1v1h-1z M102,32h1v1h-1z M103,32h1v1h-1z M104,32h1v1h-1z M5,33h1v1h-1z M8,33h1v1h-1z M11,33h1v1h-1z M12,33h1v1h-1z M13,33h1v1h-1z M16,33h1v1h-1z M18,33h1v1h-1z M24,33h1v1h-1z M25,33h1v1h-1z M26,33h1v1h-1z M27,33h1v1h-1z M28,33h1v1h-1z M29,33h1v1h-1z M32,33h1v1h-1z M34,33h1v1h-1z M36,33h1v1h-1z M37,33h1v1h-1z M39,33h1v1h-1z M41,33h1v1h-1z M42,33h1v1h-1z M45,33h1v1h-1z M47,33h1v1h-1z M48,33h1v1h-1z M49,33h1v1h-1z M51,33h1v1h-1z M53,33h1v1h-1z M54,33h1v1h-1z M56,33h1v1h-1z M57,33h1v1h-1z M59,33h1v1h-1z M64,33h1v1h-1z M68,33h1v1h-1z M69,33h1v1h-1z M71,33h1v1h-1z M73,33h1v1h-1z M74,33h1v1h-1z M75,33h1v1h-1z M77,33h1v1h-1z M79,33h1v1h-1z M81,33h1v1h-1z M83,33h1v1h-1z M86,33h1v1h-1z M87,33h1v1h-1z M88,33h1v1h-1z M91,33h1v1h-1z M93,33h1v1h-1z M95,33h1v1h-1z M98,33h1v1h-1z M99,33h1v1h-1z M101,33h1v1h-1z M102,33h1v1h-1z M103,33h1v1h-1z M104,33h1v1h-1z M105,33h1v1h-1z M106,33h1v1h-1z M108,33h1v1h-1z M5,34h1v1h-1z M7,34h1v1h-1z M8,34h1v1h-1z M10,34h1v1h-1z M11,34h1v1h-1z M14,34h1v1h-1z M15,34h1v1h-1z M16,34h1v1h-1z M17,34h1v1h-1z M20,34h1v1h-1z M21,34h1v1h-1z M24,34h1v1h-1z M26,34h1v1h-1z M31,34h1v1h-1z M32,34h1v1h-1z M33,34h1v1h-1z M34,34h1v1h-1z M35,34h1v1h-1z M41,34h1v1h-1z M44,34h1v1h-1z M45,34h1v1h-1z M46,34h1v1h-1z M47,34h1v1h-1z M48,34h1v1h-1z M52,34h1v1h-1z M53,34h1v1h-1z M54,34h1v1h-1z M55,34h1v1h-1z M57,34h1v1h-1z M58,34h1v1h-1z M60,34h1v1h-1z M65,34h1v1h-1z M68,34h1v1h-1z M69,34h1v1h-1z M70,34h1v1h-1z M71,34h1v1h-1z M72,34h1v1h-1z M78,34h1v1h-1z M81,34h1v1h-1z M82,34h1v1h-1z M83,34h1v1h-1z M84,34h1v1h-1z M87,34h1v1h-1z M89,34h1v1h-1z M93,34h1v1h-1z M94,34h1v1h-1z M95,34h1v1h-1z M96,34h1v1h-1z M99,34h1v1h-1z M100,34h1v1h-1z M102,34h1v1h-1z M103,34h1v1h-1z M104,34h1v1h-1z M4,35h1v1h-1z M5,35h1v1h-1z M6,35h1v1h-1z M8,35h1v1h-1z M9,35h1v1h-1z M12,35h1v1h-1z M13,35h1v1h-1z M14,35h1v1h-1z M15,35h1v1h-1z M16,35h1v1h-1z M20,35h1v1h-1z M21,35h1v1h-1z M24,35h1v1h-1z M25,35h1v1h-1z M35,35h1v1h-1z M38,35h1v1h-1z M39,35h1v1h-1z M40,35h1v1h-1z M42,35h1v1h-1z M43,35h1v1h-1z M46,35h1v1h-1z M49,35h1v1h-1z M50,35h1v1h-1z M51,35h1v1h-1z M53,35h1v1h-1z M55,35h1v1h-1z M56,35h1v1h-1z M58,35h1v1h-1z M59,35h1v1h-1z M61,35h1v1h-1z M63,35h1v1h-1z M64,35h1v1h-1z M73,35h1v1h-1z M75,35h1v1h-1z M76,35h1v1h-1z M77,35h1v1h-1z M79,35h1v1h-1z M81,35h1v1h-1z M82,35h1v1h-1z M83,35h1v1h-1z M85,35h1v1h-1z M86,35h1v1h-1z M87,35h1v1h-1z M88,35h1v1h-1z M89,35h1v1h-1z M90,35h1v1h-1z M94,35h1v1h-1z M97,35h1v1h-1z M98,35h1v1h-1z M100,35h1v1h-1z M101,35h1v1h-1z M106,35h1v1h-1z M108,35h1v1h-1z M5,36h1v1h-1z M10,36h1v1h-1z M13,36h1v1h-1z M14,36h1v1h-1z M15,36h1v1h-1z M18,36h1v1h-1z M19,36h1v1h-1z M21,36h1v1h-1z M23,36h1v1h-1z M26,36h1v1h-1z M28,36h1v1h-1z M29,36h1v1h-1z M30,36h1v1h-1z M34,36h1v1h-1z M35,36h1v1h-1z M36,36h1v1h-1z M41,36h1v1h-1z M44,36h1v1h-1z M47,36h1v1h-1z M49,36h1v1h-1z M52,36h1v1h-1z M54,36h1v1h-1z M55,36h1v1h-1z M57,36h1v1h-1z M66,36h1v1h-1z M67,36h1v1h-1z M70,36h1v1h-1z M72,36h1v1h-1z M73,36h1v1h-1z M76,36h1v1h-1z M77,36h1v1h-1z M78,36h1v1h-1z M82,36h1v1h-1z M84,36h1v1h-1z M85,36h1v1h-1z M86,36h1v1h-1z M89,36h1v1h-1z M91,36h1v1h-1z M92,36h1v1h-1z M94,36h1v1h-1z M95,36h1v1h-1z M96,36h1v1h-1z M97,36h1v1h-1z M98,36h1v1h-1z M100,36h1v1h-1z M104,36h1v1h-1z M108,36h1v1h-1z M5,37h1v1h-1z M7,37h1v1h-1z M8,37h1v1h-1z M13,37h1v1h-1z M15,37h1v1h-1z M18,37h1v1h-1z M23,37h1v1h-1z M27,37h1v1h-1z M36,37h1v1h-1z M37,37h1v1h-1z M39,37h1v1h-1z M40,37h1v1h-1z M41,37h1v1h-1z M42,37h1v1h-1z M44,37h1v1h-1z M46,37h1v1h-1z M48,37h1v1h-1z M49,37h1v1h-1z M52,37h1v1h-1z M53,37h1v1h-1z M55,37h1v1h-1z M57,37h1v1h-1z M59,37h1v1h-1z M61,37h1v1h-1z M63,37h1v1h-1z M65,37h1v1h-1z M66,37h1v1h-1z M68,37h1v1h-1z M71,37h1v1h-1z M74,37h1v1h-1z M76,37h1v1h-1z M80,37h1v1h-1z M81,37h1v1h-1z M83,37h1v1h-1z M84,37h1v1h-1z M85,37h1v1h-1z M87,37h1v1h-1z M88,37h1v1h-1z M91,37h1v1h-1z M94,37h1v1h-1z M95,37h1v1h-1z M97,37h1v1h-1z M100,37h1v1h-1z M101,37h1v1h-1z M102,37h1v1h-1z M105,37h1v1h-1z M107,37h1v1h-1z M108,37h1v1h-1z M7,38h1v1h-1z M8,38h1v1h-1z M10,38h1v1h-1z M14,38h1v1h-1z M18,38h1v1h-1z M19,38h1v1h-1z M20,38h1v1h-1z M21,38h1v1h-1z M23,38h1v1h-1z M24,38h1v1h-1z M31,38h1v1h-1z M32,38h1v1h-1z M33,38h1v1h-1z M34,38h1v1h-1z M35,38h1v1h-1z M36,38h1v1h-1z M40,38h1v1h-1z M41,38h1v1h-1z M44,38h1v1h-1z M45,38h1v1h-1z M46,38h1v1h-1z M47,38h1v1h-1z M48,38h1v1h-1z M52,38h1v1h-1z M53,38h1v1h-1z M55,38h1v1h-1z M57,38h1v1h-1z M58,38h1v1h-1z M59,38h1v1h-1z M60,38h1v1h-1z M63,38h1v1h-1z M64,38h1v1h-1z M65,38h1v1h-1z M68,38h1v1h-1z M69,38h1v1h-1z M70,38h1v1h-1z M71,38h1v1h-1z M72,38h1v1h-1z M77,38h1v1h-1z M79,38h1v1h-1z M81,38h1v1h-1z M82,38h1v1h-1z M83,38h1v1h-1z M84,38h1v1h-1z M87,38h1v1h-1z M88,38h1v1h-1z M89,38h1v1h-1z M94,38h1v1h-1z M101,38h1v1h-1z M103,38h1v1h-1z M104,38h1v1h-1z M106,38h1v1h-1z M107,38h1v1h-1z M4,39h1v1h-1z M7,39h1v1h-1z M12,39h1v1h-1z M15,39h1v1h-1z M17,39h1v1h-1z M19,39h1v1h-1z M20,39h1v1h-1z M23,39h1v1h-1z M24,39h1v1h-1z M25,39h1v1h-1z M26,39h1v1h-1z M27,39h1v1h-1z M28,39h1v1h-1z M29,39h1v1h-1z M32,39h1v1h-1z M33,39h1v1h-1z M35,39h1v1h-1z M38,39h1v1h-1z M39,39h1v1h-1z M40,39h1v1h-1z M43,39h1v1h-1z M45,39h1v1h-1z M49,39h1v1h-1z M50,39h1v1h-1z M53,39h1v1h-1z M56,39h1v1h-1z M57,39h1v1h-1z M61,39h1v1h-1z M62,39h1v1h-1z M63,39h1v1h-1z M64,39h1v1h-1z M66,39h1v1h-1z M70,39h1v1h-1z M71,39h1v1h-1z M73,39h1v1h-1z M74,39h1v1h-1z M75,39h1v1h-1z M77,39h1v1h-1z M79,39h1v1h-1z M80,39h1v1h-1z M81,39h1v1h-1z M82,39h1v1h-1z M85,39h1v1h-1z M87,39h1v1h-1z M88,39h1v1h-1z M89,39h1v1h-1z M95,39h1v1h-1z M98,39h1v1h-1z M100,39h1v1h-1z M101,39h1v1h-1z M102,39h1v1h-1z M106,39h1v1h-1z M4,40h1v1h-1z M5,40h1v1h-1z M6,40h1v1h-1z M10,40h1v1h-1z M12,40h1v1h-1z M14,40h1v1h-1z M22,40h1v1h-1z M24,40h1v1h-1z M25,40h1v1h-1z M28,40h1v1h-1z M29,40h1v1h-1z M31,40h1v1h-1z M33,40h1v1h-1z M34,40h1v1h-1z M35,40h1v1h-1z M37,40h1v1h-1z M38,40h1v1h-1z M41,40h1v1h-1z M44,40h1v1h-1z M45,40h1v1h-1z M47,40h1v1h-1z M49,40h1v1h-1z M53,40h1v1h-1z M54,40h1v1h-1z M55,40h1v1h-1z M58,40h1v1h-1z M64,40h1v1h-1z M65,40h1v1h-1z M67,40h1v1h-1z M73,40h1v1h-1z M77,40h1v1h-1z M79,40h1v1h-1z M84,40h1v1h-1z M85,40h1v1h-1z M86,40h1v1h-1z M88,40h1v1h-1z M91,40h1v1h-1z M92,40h1v1h-1z M93,40h1v1h-1z M95,40h1v1h-1z M96,40h1v1h-1z M100,40h1v1h-1z M101,40h1v1h-1z M108,40h1v1h-1z M5,41h1v1h-1z M6,41h1v1h-1z M7,41h1v1h-1z M8,41h1v1h-1z M9,41h1v1h-1z M13,41h1v1h-1z M15,41h1v1h-1z M24,41h1v1h-1z M27,41h1v1h-1z M28,41h1v1h-1z M29,41h1v1h-1z M32,41h1v1h-1z M36,41h1v1h-1z M38,41h1v1h-1z M40,41h1v1h-1z M43,41h1v1h-1z M44,41h1v1h-1z M45,41h1v1h-1z M47,41h1v1h-1z M50,41h1v1h-1z M51,41h1v1h-1z M52,41h1v1h-1z M54,41h1v1h-1z M56,41h1v1h-1z M59,41h1v1h-1z M62,41h1v1h-1z M66,41h1v1h-1z M69,41h1v1h-1z M71,41h1v1h-1z M72,41h1v1h-1z M73,41h1v1h-1z M74,41h1v1h-1z M75,41h1v1h-1z M77,41h1v1h-1z M78,41h1v1h-1z M79,41h1v1h-1z M80,41h1v1h-1z M82,41h1v1h-1z M83,41h1v1h-1z M84,41h1v1h-1z M86,41h1v1h-1z M87,41h1v1h-1z M88,41h1v1h-1z M90,41h1v1h-1z M91,41h1v1h-1z M92,41h1v1h-1z M94,41h1v1h-1z M96,41h1v1h-1z M100,41h1v1h-1z M101,41h1v1h-1z M102,41h1v1h-1z M103,41h1v1h-1z M104,41h1v1h-1z M108,41h1v1h-1z M5,42h1v1h-1z M6,42h1v1h-1z M9,42h1v1h-1z M10,42h1v1h-1z M13,42h1v1h-1z M15,42h1v1h-1z M18,42h1v1h-1z M19,42h1v1h-1z M20,42h1v1h-1z M22,42h1v1h-1z M23,42h1v1h-1z M25,42h1v1h-1z M26,42h1v1h-1z M27,42h1v1h-1z M28,42h1v1h-1z M33,42h1v1h-1z M34,42h1v1h-1z M35,42h1v1h-1z M39,42h1v1h-1z M41,42h1v1h-1z M43,42h1v1h-1z M44,42h1v1h-1z M45,42h1v1h-1z M46,42h1v1h-1z M47,42h1v1h-1z M48,42h1v1h-1z M49,42h1v1h-1z M51,42h1v1h-1z M55,42h1v1h-1z M56,42h1v1h-1z M57,42h1v1h-1z M58,42h1v1h-1z M59,42h1v1h-1z M60,42h1v1h-1z M63,42h1v1h-1z M64,42h1v1h-1z M67,42h1v1h-1z M70,42h1v1h-1z M71,42h1v1h-1z M72,42h1v1h-1z M77,42h1v1h-1z M78,42h1v1h-1z M82,42h1v1h-1z M83,42h1v1h-1z M85,42h1v1h-1z M87,42h1v1h-1z M88,42h1v1h-1z M92,42h1v1h-1z M93,42h1v1h-1z M94,42h1v1h-1z M95,42h1v1h-1z M96,42h1v1h-1z M99,42h1v1h-1z M102,42h1v1h-1z M104,42h1v1h-1z M106,42h1v1h-1z M107,42h1v1h-1z M6,43h1v1h-1z M7,43h1v1h-1z M8,43h1v1h-1z M12,43h1v1h-1z M14,43h1v1h-1z M15,43h1v1h-1z M20,43h1v1h-1z M21,43h1v1h-1z M23,43h1v1h-1z M27,43h1v1h-1z M31,43h1v1h-1z M32,43h1v1h-1z M34,43h1v1h-1z M35,43h1v1h-1z M37,43h1v1h-1z M40,43h1v1h-1z M42,43h1v1h-1z M43,43h1v1h-1z M45,43h1v1h-1z M46,43h1v1h-1z M47,43h1v1h-1z M50,43h1v1h-1z M53,43h1v1h-1z M58,43h1v1h-1z M59,43h1v1h-1z M62,43h1v1h-1z M63,43h1v1h-1z M64,43h1v1h-1z M66,43h1v1h-1z M69,43h1v1h-1z M71,43h1v1h-1z M74,43h1v1h-1z M77,43h1v1h-1z M79,43h1v1h-1z M80,43h1v1h-1z M83,43h1v1h-1z M86,43h1v1h-1z M87,43h1v1h-1z M88,43h1v1h-1z M89,43h1v1h-1z M90,43h1v1h-1z M93,43h1v1h-1z M97,43h1v1h-1z M101,43h1v1h-1z M105,43h1v1h-1z M106,43h1v1h-1z M108,43h1v1h-1z M4,44h1v1h-1z M5,44h1v1h-1z M7,44h1v1h-1z M8,44h1v1h-1z M10,44h1v1h-1z M12,44h1v1h-1z M15,44h1v1h-1z M17,44h1v1h-1z M19,44h1v1h-1z M20,44h1v1h-1z M22,44h1v1h-1z M24,44h1v1h-1z M28,44h1v1h-1z M29,44h1v1h-1z M30,44h1v1h-1z M31,44h1v1h-1z M33,44h1v1h-1z M35,44h1v1h-1z M36,44h1v1h-1z M38,44h1v1h-1z M39,44h1v1h-1z M41,44h1v1h-1z M42,44h1v1h-1z M44,44h1v1h-1z M45,44h1v1h-1z M48,44h1v1h-1z M50,44h1v1h-1z M53,44h1v1h-1z M54,44h1v1h-1z M58,44h1v1h-1z M61,44h1v1h-1z M66,44h1v1h-1z M67,44h1v1h-1z M71,44h1v1h-1z M72,44h1v1h-1z M74,44h1v1h-1z M78,44h1v1h-1z M81,44h1v1h-1z M82,44h1v1h-1z M83,44h1v1h-1z M84,44h1v1h-1z M85,44h1v1h-1z M86,44h1v1h-1z M87,44h1v1h-1z M89,44h1v1h-1z M92,44h1v1h-1z M94,44h1v1h-1z M96,44h1v1h-1z M99,44h1v1h-1z M100,44h1v1h-1z M104,44h1v1h-1z M106,44h1v1h-1z M107,44h1v1h-1z M108,44h1v1h-1z M5,45h1v1h-1z M6,45h1v1h-1z M8,45h1v1h-1z M9,45h1v1h-1z M11,45h1v1h-1z M12,45h1v1h-1z M15,45h1v1h-1z M16,45h1v1h-1z M17,45h1v1h-1z M20,45h1v1h-1z M21,45h1v1h-1z M22,45h1v1h-1z M25,45h1v1h-1z M27,45h1v1h-1z M30,45h1v1h-1z M33,45h1v1h-1z M38,45h1v1h-1z M42,45h1v1h-1z M43,45h1v1h-1z M50,45h1v1h-1z M51,45h1v1h-1z M52,45h1v1h-1z M53,45h1v1h-1z M55,45h1v1h-1z M56,45h1v1h-1z M61,45h1v1h-1z M64,45h1v1h-1z M65,45h1v1h-1z M66,45h1v1h-1z M67,45h1v1h-1z M68,45h1v1h-1z M70,45h1v1h-1z M71,45h1v1h-1z M74,45h1v1h-1z M75,45h1v1h-1z M76,45h1v1h-1z M77,45h1v1h-1z M80,45h1v1h-1z M82,45h1v1h-1z M85,45h1v1h-1z M88,45h1v1h-1z M89,45h1v1h-1z M90,45h1v1h-1z M91,45h1v1h-1z M94,45h1v1h-1z M95,45h1v1h-1z M96,45h1v1h-1z M98,45h1v1h-1z M101,45h1v1h-1z M102,45h1v1h-1z M103,45h1v1h-1z M4,46h1v1h-1z M6,46h1v1h-1z M8,46h1v1h-1z M9,46h1v1h-1z M10,46h1v1h-1z M11,46h1v1h-1z M12,46h1v1h-1z M14,46h1v1h-1z M17,46h1v1h-1z M19,46h1v1h-1z M21,46h1v1h-1z M22,46h1v1h-1z M23,46h1v1h-1z M25,46h1v1h-1z M27,46h1v1h-1z M28,46h1v1h-1z M30,46h1v1h-1z M33,46h1v1h-1z M34,46h1v1h-1z M35,46h1v1h-1z M39,46h1v1h-1z M43,46h1v1h-1z M45,46h1v1h-1z M46,46h1v1h-1z M55,46h1v1h-1z M56,46h1v1h-1z M58,46h1v1h-1z M59,46h1v1h-1z M60,46h1v1h-1z M68,46h1v1h-1z M70,46h1v1h-1z M71,46h1v1h-1z M73,46h1v1h-1z M78,46h1v1h-1z M79,46h1v1h-1z M81,46h1v1h-1z M82,46h1v1h-1z M83,46h1v1h-1z M87,46h1v1h-1z M89,46h1v1h-1z M92,46h1v1h-1z M93,46h1v1h-1z M94,46h1v1h-1z M99,46h1v1h-1z M104,46h1v1h-1z M105,46h1v1h-1z M107,46h1v1h-1z M5,47h1v1h-1z M8,47h1v1h-1z M11,47h1v1h-1z M12,47h1v1h-1z M13,47h1v1h-1z M14,47h1v1h-1z M15,47h1v1h-1z M18,47h1v1h-1z M19,47h1v1h-1z M21,47h1v1h-1z M22,47h1v1h-1z M24,47h1v1h-1z M25,47h1v1h-1z M29,47h1v1h-1z M35,47h1v1h-1z M37,47h1v1h-1z M39,47h1v1h-1z M40,47h1v1h-1z M42,47h1v1h-1z M45,47h1v1h-1z M47,47h1v1h-1z M50,47h1v1h-1z M51,47h1v1h-1z M52,47h1v1h-1z M56,47h1v1h-1z M61,47h1v1h-1z M62,47h1v1h-1z M63,47h1v1h-1z M64,47h1v1h-1z M65,47h1v1h-1z M66,47h1v1h-1z M67,47h1v1h-1z M71,47h1v1h-1z M74,47h1v1h-1z M75,47h1v1h-1z M76,47h1v1h-1z M77,47h1v1h-1z M80,47h1v1h-1z M82,47h1v1h-1z M83,47h1v1h-1z M86,47h1v1h-1z M88,47h1v1h-1z M89,47h1v1h-1z M91,47h1v1h-1z M93,47h1v1h-1z M94,47h1v1h-1z M95,47h1v1h-1z M98,47h1v1h-1z M100,47h1v1h-1z M101,47h1v1h-1z M102,47h1v1h-1z M105,47h1v1h-1z M106,47h1v1h-1z M4,48h1v1h-1z M5,48h1v1h-1z M6,48h1v1h-1z M7,48h1v1h-1z M10,48h1v1h-1z M11,48h1v1h-1z M12,48h1v1h-1z M16,48h1v1h-1z M17,48h1v1h-1z M18,48h1v1h-1z M19,48h1v1h-1z M23,48h1v1h-1z M26,48h1v1h-1z M30,48h1v1h-1z M33,48h1v1h-1z M34,48h1v1h-1z M36,48h1v1h-1z M37,48h1v1h-1z M38,48h1v1h-1z M40,48h1v1h-1z M41,48h1v1h-1z M42,48h1v1h-1z M44,48h1v1h-1z M47,48h1v1h-1z M49,48h1v1h-1z M50,48h1v1h-1z M52,48h1v1h-1z M53,48h1v1h-1z M54,48h1v1h-1z M55,48h1v1h-1z M58,48h1v1h-1z M59,48h1v1h-1z M61,48h1v1h-1z M63,48h1v1h-1z M67,48h1v1h-1z M69,48h1v1h-1z M70,48h1v1h-1z M72,48h1v1h-1z M73,48h1v1h-1z M74,48h1v1h-1z M76,48h1v1h-1z M78,48h1v1h-1z M79,48h1v1h-1z M83,48h1v1h-1z M84,48h1v1h-1z M85,48h1v1h-1z M86,48h1v1h-1z M91,48h1v1h-1z M95,48h1v1h-1z M96,48h1v1h-1z M100,48h1v1h-1z M101,48h1v1h-1z M103,48h1v1h-1z M108,48h1v1h-1z M4,49h1v1h-1z M13,49h1v1h-1z M17,49h1v1h-1z M18,49h1v1h-1z M19,49h1v1h-1z M20,49h1v1h-1z M21,49h1v1h-1z M22,49h1v1h-1z M24,49h1v1h-1z M26,49h1v1h-1z M28,49h1v1h-1z M29,49h1v1h-1z M33,49h1v1h-1z M38,49h1v1h-1z M41,49h1v1h-1z M42,49h1v1h-1z M44,49h1v1h-1z M46,49h1v1h-1z M47,49h1v1h-1z M51,49h1v1h-1z M52,49h1v1h-1z M55,49h1v1h-1z M60,49h1v1h-1z M61,49h1v1h-1z M62,49h1v1h-1z M64,49h1v1h-1z M67,49h1v1h-1z M78,49h1v1h-1z M79,49h1v1h-1z M80,49h1v1h-1z M81,49h1v1h-1z M83,49h1v1h-1z M84,49h1v1h-1z M85,49h1v1h-1z M87,49h1v1h-1z M90,49h1v1h-1z M99,49h1v1h-1z M100,49h1v1h-1z M102,49h1v1h-1z M103,49h1v1h-1z M104,49h1v1h-1z M108,49h1v1h-1z M4,50h1v1h-1z M5,50h1v1h-1z M6,50h1v1h-1z M8,50h1v1h-1z M9,50h1v1h-1z M10,50h1v1h-1z M11,50h1v1h-1z M12,50h1v1h-1z M13,50h1v1h-1z M15,50h1v1h-1z M17,50h1v1h-1z M21,50h1v1h-1z M23,50h1v1h-1z M24,50h1v1h-1z M25,50h1v1h-1z M27,50h1v1h-1z M31,50h1v1h-1z M32,50h1v1h-1z M33,50h1v1h-1z M34,50h1v1h-1z M36,50h1v1h-1z M37,50h1v1h-1z M39,50h1v1h-1z M40,50h1v1h-1z M41,50h1v1h-1z M44,50h1v1h-1z M46,50h1v1h-1z M48,50h1v1h-1z M49,50h1v1h-1z M54,50h1v1h-1z M58,50h1v1h-1z M67,50h1v1h-1z M69,50h1v1h-1z M70,50h1v1h-1z M71,50h1v1h-1z M72,50h1v1h-1z M75,50h1v1h-1z M80,50h1v1h-1z M81,50h1v1h-1z M82,50h1v1h-1z M83,50h1v1h-1z M84,50h1v1h-1z M91,50h1v1h-1z M92,50h1v1h-1z M93,50h1v1h-1z M94,50h1v1h-1z M99,50h1v1h-1z M102,50h1v1h-1z M104,50h1v1h-1z M106,50h1v1h-1z M6,51h1v1h-1z M7,51h1v1h-1z M8,51h1v1h-1z M11,51h1v1h-1z M12,51h1v1h-1z M13,51h1v1h-1z M16,51h1v1h-1z M17,51h1v1h-1z M19,51h1v1h-1z M20,51h1v1h-1z M23,51h1v1h-1z M25,51h1v1h-1z M27,51h1v1h-1z M28,51h1v1h-1z M29,51h1v1h-1z M35,51h1v1h-1z M38,51h1v1h-1z M39,51h1v1h-1z M40,51h1v1h-1z M47,51h1v1h-1z M50,51h1v1h-1z M53,51h1v1h-1z M55,51h1v1h-1z M57,51h1v1h-1z M59,51h1v1h-1z M61,51h1v1h-1z M63,51h1v1h-1z M64,51h1v1h-1z M66,51h1v1h-1z M69,51h1v1h-1z M70,51h1v1h-1z M73,51h1v1h-1z M75,51h1v1h-1z M80,51h1v1h-1z M81,51h1v1h-1z M82,51h1v1h-1z M83,51h1v1h-1z M85,51h1v1h-1z M87,51h1v1h-1z M88,51h1v1h-1z M90,51h1v1h-1z M95,51h1v1h-1z M98,51h1v1h-1z M100,51h1v1h-1z M103,51h1v1h-1z M105,51h1v1h-1z M106,51h1v1h-1z M108,51h1v1h-1z M4,52h1v1h-1z M5,52h1v1h-1z M6,52h1v1h-1z M7,52h1v1h-1z M8,52h1v1h-1z M9,52h1v1h-1z M10,52h1v1h-1z M11,52h1v1h-1z M12,52h1v1h-1z M13,52h1v1h-1z M14,52h1v1h-1z M17,52h1v1h-1z M19,52h1v1h-1z M20,52h1v1h-1z M21,52h1v1h-1z M24,52h1v1h-1z M26,52h1v1h-1z M28,52h1v1h-1z M29,52h1v1h-1z M30,52h1v1h-1z M31,52h1v1h-1z M32,52h1v1h-1z M33,52h1v1h-1z M34,52h1v1h-1z M36,52h1v1h-1z M38,52h1v1h-1z M45,52h1v1h-1z M46,52h1v1h-1z M48,52h1v1h-1z M50,52h1v1h-1z M52,52h1v1h-1z M53,52h1v1h-1z M54,52h1v1h-1z M55,52h1v1h-1z M56,52h1v1h-1z M57,52h1v1h-1z M64,52h1v1h-1z M65,52h1v1h-1z M68,52h1v1h-1z M69,52h1v1h-1z M70,52h1v1h-1z M71,52h1v1h-1z M76,52h1v1h-1z M77,52h1v1h-1z M78,52h1v1h-1z M79,52h1v1h-1z M80,52h1v1h-1z M82,52h1v1h-1z M83,52h1v1h-1z M84,52h1v1h-1z M86,52h1v1h-1z M87,52h1v1h-1z M88,52h1v1h-1z M90,52h1v1h-1z M91,52h1v1h-1z M92,52h1v1h-1z M93,52h1v1h-1z M98,52h1v1h-1z M100,52h1v1h-1z M101,52h1v1h-1z M102,52h1v1h-1z M103,52h1v1h-1z M104,52h1v1h-1z M107,52h1v1h-1z M6,53h1v1h-1z M8,53h1v1h-1z M12,53h1v1h-1z M14,53h1v1h-1z M18,53h1v1h-1z M22,53h1v1h-1z M23,53h1v1h-1z M26,53h1v1h-1z M27,53h1v1h-1z M28,53h1v1h-1z M32,53h1v1h-1z M33,53h1v1h-1z M35,53h1v1h-1z M37,53h1v1h-1z M38,53h1v1h-1z M39,53h1v1h-1z M40,53h1v1h-1z M42,53h1v1h-1z M45,53h1v1h-1z M47,53h1v1h-1z M48,53h1v1h-1z M50,53h1v1h-1z M52,53h1v1h-1z M56,53h1v1h-1z M57,53h1v1h-1z M61,53h1v1h-1z M65,53h1v1h-1z M66,53h1v1h-1z M68,53h1v1h-1z M70,53h1v1h-1z M71,53h1v1h-1z M75,53h1v1h-1z M76,53h1v1h-1z M80,53h1v1h-1z M81,53h1v1h-1z M86,53h1v1h-1z M91,53h1v1h-1z M92,53h1v1h-1z M93,53h1v1h-1z M96,53h1v1h-1z M97,53h1v1h-1z M98,53h1v1h-1z M100,53h1v1h-1z M104,53h1v1h-1z M105,53h1v1h-1z M108,53h1v1h-1z M7,54h1v1h-1z M8,54h1v1h-1z M10,54h1v1h-1z M12,54h1v1h-1z M15,54h1v1h-1z M16,54h1v1h-1z M17,54h1v1h-1z M18,54h1v1h-1z M19,54h1v1h-1z M20,54h1v1h-1z M21,54h1v1h-1z M25,54h1v1h-1z M27,54h1v1h-1z M28,54h1v1h-1z M30,54h1v1h-1z M32,54h1v1h-1z M33,54h1v1h-1z M34,54h1v1h-1z M35,54h1v1h-1z M36,54h1v1h-1z M44,54h1v1h-1z M46,54h1v1h-1z M48,54h1v1h-1z M51,54h1v1h-1z M52,54h1v1h-1z M54,54h1v1h-1z M56,54h1v1h-1z M57,54h1v1h-1z M58,54h1v1h-1z M59,54h1v1h-1z M60,54h1v1h-1z M61,54h1v1h-1z M67,54h1v1h-1z M68,54h1v1h-1z M70,54h1v1h-1z M71,54h1v1h-1z M75,54h1v1h-1z M76,54h1v1h-1z M78,54h1v1h-1z M80,54h1v1h-1z M81,54h1v1h-1z M82,54h1v1h-1z M84,54h1v1h-1z M87,54h1v1h-1z M89,54h1v1h-1z M91,54h1v1h-1z M93,54h1v1h-1z M94,54h1v1h-1z M95,54h1v1h-1z M96,54h1v1h-1z M97,54h1v1h-1z M100,54h1v1h-1z M102,54h1v1h-1z M104,54h1v1h-1z M106,54h1v1h-1z M107,54h1v1h-1z M5,55h1v1h-1z M8,55h1v1h-1z M12,55h1v1h-1z M13,55h1v1h-1z M16,55h1v1h-1z M19,55h1v1h-1z M20,55h1v1h-1z M21,55h1v1h-1z M23,55h1v1h-1z M27,55h1v1h-1z M28,55h1v1h-1z M32,55h1v1h-1z M33,55h1v1h-1z M35,55h1v1h-1z M38,55h1v1h-1z M40,55h1v1h-1z M41,55h1v1h-1z M42,55h1v1h-1z M45,55h1v1h-1z M52,55h1v1h-1z M56,55h1v1h-1z M57,55h1v1h-1z M59,55h1v1h-1z M62,55h1v1h-1z M63,55h1v1h-1z M64,55h1v1h-1z M65,55h1v1h-1z M66,55h1v1h-1z M69,55h1v1h-1z M71,55h1v1h-1z M73,55h1v1h-1z M74,55h1v1h-1z M75,55h1v1h-1z M76,55h1v1h-1z M80,55h1v1h-1z M87,55h1v1h-1z M88,55h1v1h-1z M89,55h1v1h-1z M90,55h1v1h-1z M94,55h1v1h-1z M97,55h1v1h-1z M98,55h1v1h-1z M100,55h1v1h-1z M104,55h1v1h-1z M105,55h1v1h-1z M106,55h1v1h-1z M107,55h1v1h-1z M108,55h1v1h-1z M4,56h1v1h-1z M8,56h1v1h-1z M9,56h1v1h-1z M10,56h1v1h-1z M11,56h1v1h-1z M12,56h1v1h-1z M13,56h1v1h-1z M14,56h1v1h-1z M15,56h1v1h-1z M16,56h1v1h-1z M17,56h1v1h-1z M19,56h1v1h-1z M21,56h1v1h-1z M22,56h1v1h-1z M25,56h1v1h-1z M26,56h1v1h-1z M28,56h1v1h-1z M29,56h1v1h-1z M30,56h1v1h-1z M31,56h1v1h-1z M32,56h1v1h-1z M35,56h1v1h-1z M36,56h1v1h-1z M37,56h1v1h-1z M40,56h1v1h-1z M42,56h1v1h-1z M45,56h1v1h-1z M52,56h1v1h-1z M53,56h1v1h-1z M54,56h1v1h-1z M55,56h1v1h-1z M56,56h1v1h-1z M57,56h1v1h-1z M61,56h1v1h-1z M62,56h1v1h-1z M64,56h1v1h-1z M67,56h1v1h-1z M68,56h1v1h-1z M69,56h1v1h-1z M73,56h1v1h-1z M76,56h1v1h-1z M77,56h1v1h-1z M78,56h1v1h-1z M79,56h1v1h-1z M80,56h1v1h-1z M83,56h1v1h-1z M86,56h1v1h-1z M88,56h1v1h-1z M89,56h1v1h-1z M90,56h1v1h-1z M93,56h1v1h-1z M94,56h1v1h-1z M95,56h1v1h-1z M96,56h1v1h-1z M97,56h1v1h-1z M98,56h1v1h-1z M100,56h1v1h-1z M101,56h1v1h-1z M102,56h1v1h-1z M103,56h1v1h-1z M104,56h1v1h-1z M106,56h1v1h-1z M107,56h1v1h-1z M4,57h1v1h-1z M7,57h1v1h-1z M9,57h1v1h-1z M11,57h1v1h-1z M12,57h1v1h-1z M17,57h1v1h-1z M18,57h1v1h-1z M19,57h1v1h-1z M20,57h1v1h-1z M23,57h1v1h-1z M24,57h1v1h-1z M28,57h1v1h-1z M29,57h1v1h-1z M33,57h1v1h-1z M38,57h1v1h-1z M42,57h1v1h-1z M45,57h1v1h-1z M47,57h1v1h-1z M48,57h1v1h-1z M49,57h1v1h-1z M51,57h1v1h-1z M57,57h1v1h-1z M60,57h1v1h-1z M61,57h1v1h-1z M64,57h1v1h-1z M65,57h1v1h-1z M66,57h1v1h-1z M68,57h1v1h-1z M69,57h1v1h-1z M73,57h1v1h-1z M74,57h1v1h-1z M75,57h1v1h-1z M78,57h1v1h-1z M82,57h1v1h-1z M83,57h1v1h-1z M85,57h1v1h-1z M86,57h1v1h-1z M93,57h1v1h-1z M94,57h1v1h-1z M96,57h1v1h-1z M99,57h1v1h-1z M100,57h1v1h-1z M103,57h1v1h-1z M106,57h1v1h-1z M107,57h1v1h-1z M108,57h1v1h-1z M6,58h1v1h-1z M10,58h1v1h-1z M12,58h1v1h-1z M15,58h1v1h-1z M17,58h1v1h-1z M20,58h1v1h-1z M22,58h1v1h-1z M24,58h1v1h-1z M25,58h1v1h-1z M27,58h1v1h-1z M28,58h1v1h-1z M34,58h1v1h-1z M35,58h1v1h-1z M36,58h1v1h-1z M40,58h1v1h-1z M41,58h1v1h-1z M44,58h1v1h-1z M45,58h1v1h-1z M46,58h1v1h-1z M47,58h1v1h-1z M48,58h1v1h-1z M49,58h1v1h-1z M52,58h1v1h-1z M55,58h1v1h-1z M57,58h1v1h-1z M58,58h1v1h-1z M59,58h1v1h-1z M60,58h1v1h-1z M63,58h1v1h-1z M65,58h1v1h-1z M68,58h1v1h-1z M70,58h1v1h-1z M72,58h1v1h-1z M73,58h1v1h-1z M76,58h1v1h-1z M80,58h1v1h-1z M81,58h1v1h-1z M82,58h1v1h-1z M83,58h1v1h-1z M84,58h1v1h-1z M87,58h1v1h-1z M89,58h1v1h-1z M91,58h1v1h-1z M94,58h1v1h-1z M95,58h1v1h-1z M96,58h1v1h-1z M97,58h1v1h-1z M100,58h1v1h-1z M102,58h1v1h-1z M103,58h1v1h-1z M106,58h1v1h-1z M107,58h1v1h-1z M4,59h1v1h-1z M5,59h1v1h-1z M6,59h1v1h-1z M7,59h1v1h-1z M8,59h1v1h-1z M9,59h1v1h-1z M11,59h1v1h-1z M12,59h1v1h-1z M14,59h1v1h-1z M15,59h1v1h-1z M17,59h1v1h-1z M18,59h1v1h-1z M20,59h1v1h-1z M21,59h1v1h-1z M22,59h1v1h-1z M24,59h1v1h-1z M25,59h1v1h-1z M27,59h1v1h-1z M29,59h1v1h-1z M30,59h1v1h-1z M33,59h1v1h-1z M39,59h1v1h-1z M40,59h1v1h-1z M42,59h1v1h-1z M43,59h1v1h-1z M46,59h1v1h-1z M50,59h1v1h-1z M53,59h1v1h-1z M54,59h1v1h-1z M57,59h1v1h-1z M59,59h1v1h-1z M62,59h1v1h-1z M64,59h1v1h-1z M66,59h1v1h-1z M69,59h1v1h-1z M71,59h1v1h-1z M74,59h1v1h-1z M76,59h1v1h-1z M78,59h1v1h-1z M86,59h1v1h-1z M87,59h1v1h-1z M88,59h1v1h-1z M95,59h1v1h-1z M98,59h1v1h-1z M99,59h1v1h-1z M100,59h1v1h-1z M102,59h1v1h-1z M103,59h1v1h-1z M104,59h1v1h-1z M105,59h1v1h-1z M106,59h1v1h-1z M4,60h1v1h-1z M7,60h1v1h-1z M10,60h1v1h-1z M15,60h1v1h-1z M17,60h1v1h-1z M18,60h1v1h-1z M19,60h1v1h-1z M20,60h1v1h-1z M24,60h1v1h-1z M25,60h1v1h-1z M28,60h1v1h-1z M29,60h1v1h-1z M32,60h1v1h-1z M33,60h1v1h-1z M34,60h1v1h-1z M35,60h1v1h-1z M36,60h1v1h-1z M38,60h1v1h-1z M44,60h1v1h-1z M45,60h1v1h-1z M46,60h1v1h-1z M47,60h1v1h-1z M48,60h1v1h-1z M51,60h1v1h-1z M53,60h1v1h-1z M56,60h1v1h-1z M57,60h1v1h-1z M58,60h1v1h-1z M62,60h1v1h-1z M64,60h1v1h-1z M65,60h1v1h-1z M67,60h1v1h-1z M71,60h1v1h-1z M72,60h1v1h-1z M74,60h1v1h-1z M75,60h1v1h-1z M76,60h1v1h-1z M77,60h1v1h-1z M79,60h1v1h-1z M80,60h1v1h-1z M83,60h1v1h-1z M85,60h1v1h-1z M90,60h1v1h-1z M92,60h1v1h-1z M93,60h1v1h-1z M94,60h1v1h-1z M95,60h1v1h-1z M96,60h1v1h-1z M97,60h1v1h-1z M98,60h1v1h-1z M100,60h1v1h-1z M101,60h1v1h-1z M107,60h1v1h-1z M108,60h1v1h-1z M5,61h1v1h-1z M6,61h1v1h-1z M8,61h1v1h-1z M11,61h1v1h-1z M14,61h1v1h-1z M16,61h1v1h-1z M19,61h1v1h-1z M20,61h1v1h-1z M21,61h1v1h-1z M25,61h1v1h-1z M26,61h1v1h-1z M28,61h1v1h-1z M30,61h1v1h-1z M34,61h1v1h-1z M35,61h1v1h-1z M36,61h1v1h-1z M38,61h1v1h-1z M39,61h1v1h-1z M40,61h1v1h-1z M42,61h1v1h-1z M45,61h1v1h-1z M46,61h1v1h-1z M47,61h1v1h-1z M48,61h1v1h-1z M51,61h1v1h-1z M53,61h1v1h-1z M58,61h1v1h-1z M59,61h1v1h-1z M60,61h1v1h-1z M61,61h1v1h-1z M63,61h1v1h-1z M64,61h1v1h-1z M67,61h1v1h-1z M68,61h1v1h-1z M70,61h1v1h-1z M71,61h1v1h-1z M73,61h1v1h-1z M74,61h1v1h-1z M76,61h1v1h-1z M85,61h1v1h-1z M87,61h1v1h-1z M88,61h1v1h-1z M91,61h1v1h-1z M93,61h1v1h-1z M94,61h1v1h-1z M95,61h1v1h-1z M96,61h1v1h-1z M97,61h1v1h-1z M99,61h1v1h-1z M100,61h1v1h-1z M103,61h1v1h-1z M107,61h1v1h-1z M6,62h1v1h-1z M8,62h1v1h-1z M10,62h1v1h-1z M18,62h1v1h-1z M20,62h1v1h-1z M22,62h1v1h-1z M23,62h1v1h-1z M26,62h1v1h-1z M27,62h1v1h-1z M28,62h1v1h-1z M29,62h1v1h-1z M31,62h1v1h-1z M33,62h1v1h-1z M34,62h1v1h-1z M36,62h1v1h-1z M39,62h1v1h-1z M41,62h1v1h-1z M43,62h1v1h-1z M44,62h1v1h-1z M46,62h1v1h-1z M48,62h1v1h-1z M49,62h1v1h-1z M52,62h1v1h-1z M57,62h1v1h-1z M58,62h1v1h-1z M60,62h1v1h-1z M63,62h1v1h-1z M64,62h1v1h-1z M65,62h1v1h-1z M68,62h1v1h-1z M70,62h1v1h-1z M72,62h1v1h-1z M73,62h1v1h-1z M75,62h1v1h-1z M76,62h1v1h-1z M77,62h1v1h-1z M79,62h1v1h-1z M81,62h1v1h-1z M82,62h1v1h-1z M84,62h1v1h-1z M88,62h1v1h-1z M89,62h1v1h-1z M92,62h1v1h-1z M93,62h1v1h-1z M94,62h1v1h-1z M96,62h1v1h-1z M99,62h1v1h-1z M100,62h1v1h-1z M101,62h1v1h-1z M102,62h1v1h-1z M103,62h1v1h-1z M104,62h1v1h-1z M105,62h1v1h-1z M106,62h1v1h-1z M107,62h1v1h-1z M11,63h1v1h-1z M12,63h1v1h-1z M13,63h1v1h-1z M15,63h1v1h-1z M17,63h1v1h-1z M18,63h1v1h-1z M21,63h1v1h-1z M22,63h1v1h-1z M24,63h1v1h-1z M25,63h1v1h-1z M27,63h1v1h-1z M32,63h1v1h-1z M33,63h1v1h-1z M37,63h1v1h-1z M38,63h1v1h-1z M40,63h1v1h-1z M42,63h1v1h-1z M45,63h1v1h-1z M50,63h1v1h-1z M51,63h1v1h-1z M52,63h1v1h-1z M55,63h1v1h-1z M56,63h1v1h-1z M59,63h1v1h-1z M61,63h1v1h-1z M63,63h1v1h-1z M64,63h1v1h-1z M66,63h1v1h-1z M67,63h1v1h-1z M71,63h1v1h-1z M74,63h1v1h-1z M76,63h1v1h-1z M77,63h1v1h-1z M83,63h1v1h-1z M85,63h1v1h-1z M87,63h1v1h-1z M88,63h1v1h-1z M90,63h1v1h-1z M91,63h1v1h-1z M93,63h1v1h-1z M94,63h1v1h-1z M95,63h1v1h-1z M97,63h1v1h-1z M98,63h1v1h-1z M101,63h1v1h-1z M103,63h1v1h-1z M104,63h1v1h-1z M106,63h1v1h-1z M108,63h1v1h-1z M6,64h1v1h-1z M7,64h1v1h-1z M8,64h1v1h-1z M9,64h1v1h-1z M10,64h1v1h-1z M11,64h1v1h-1z M12,64h1v1h-1z M13,64h1v1h-1z M15,64h1v1h-1z M16,64h1v1h-1z M17,64h1v1h-1z M20,64h1v1h-1z M23,64h1v1h-1z M24,64h1v1h-1z M28,64h1v1h-1z M32,64h1v1h-1z M38,64h1v1h-1z M40,64h1v1h-1z M41,64h1v1h-1z M42,64h1v1h-1z M43,64h1v1h-1z M44,64h1v1h-1z M46,64h1v1h-1z M49,64h1v1h-1z M50,64h1v1h-1z M52,64h1v1h-1z M55,64h1v1h-1z M56,64h1v1h-1z M59,64h1v1h-1z M60,64h1v1h-1z M61,64h1v1h-1z M63,64h1v1h-1z M64,64h1v1h-1z M65,64h1v1h-1z M66,64h1v1h-1z M67,64h1v1h-1z M71,64h1v1h-1z M72,64h1v1h-1z M74,64h1v1h-1z M79,64h1v1h-1z M80,64h1v1h-1z M81,64h1v1h-1z M82,64h1v1h-1z M85,64h1v1h-1z M86,64h1v1h-1z M88,64h1v1h-1z M90,64h1v1h-1z M91,64h1v1h-1z M93,64h1v1h-1z M94,64h1v1h-1z M95,64h1v1h-1z M96,64h1v1h-1z M99,64h1v1h-1z M102,64h1v1h-1z M105,64h1v1h-1z M107,64h1v1h-1z M4,65h1v1h-1z M5,65h1v1h-1z M6,65h1v1h-1z M7,65h1v1h-1z M11,65h1v1h-1z M13,65h1v1h-1z M17,65h1v1h-1z M18,65h1v1h-1z M19,65h1v1h-1z M20,65h1v1h-1z M23,65h1v1h-1z M24,65h1v1h-1z M25,65h1v1h-1z M26,65h1v1h-1z M27,65h1v1h-1z M29,65h1v1h-1z M30,65h1v1h-1z M31,65h1v1h-1z M34,65h1v1h-1z M38,65h1v1h-1z M39,65h1v1h-1z M40,65h1v1h-1z M43,65h1v1h-1z M44,65h1v1h-1z M45,65h1v1h-1z M50,65h1v1h-1z M52,65h1v1h-1z M53,65h1v1h-1z M54,65h1v1h-1z M57,65h1v1h-1z M59,65h1v1h-1z M60,65h1v1h-1z M62,65h1v1h-1z M63,65h1v1h-1z M64,65h1v1h-1z M66,65h1v1h-1z M74,65h1v1h-1z M78,65h1v1h-1z M82,65h1v1h-1z M83,65h1v1h-1z M85,65h1v1h-1z M88,65h1v1h-1z M90,65h1v1h-1z M94,65h1v1h-1z M96,65h1v1h-1z M97,65h1v1h-1z M100,65h1v1h-1z M101,65h1v1h-1z M104,65h1v1h-1z M105,65h1v1h-1z M108,65h1v1h-1z M6,66h1v1h-1z M7,66h1v1h-1z M8,66h1v1h-1z M9,66h1v1h-1z M10,66h1v1h-1z M11,66h1v1h-1z M13,66h1v1h-1z M15,66h1v1h-1z M16,66h1v1h-1z M17,66h1v1h-1z M25,66h1v1h-1z M26,66h1v1h-1z M28,66h1v1h-1z M29,66h1v1h-1z M33,66h1v1h-1z M34,66h1v1h-1z M36,66h1v1h-1z M40,66h1v1h-1z M44,66h1v1h-1z M45,66h1v1h-1z M46,66h1v1h-1z M48,66h1v1h-1z M49,66h1v1h-1z M51,66h1v1h-1z M52,66h1v1h-1z M53,66h1v1h-1z M55,66h1v1h-1z M57,66h1v1h-1z M58,66h1v1h-1z M59,66h1v1h-1z M63,66h1v1h-1z M67,66h1v1h-1z M68,66h1v1h-1z M69,66h1v1h-1z M70,66h1v1h-1z M71,66h1v1h-1z M72,66h1v1h-1z M75,66h1v1h-1z M76,66h1v1h-1z M77,66h1v1h-1z M79,66h1v1h-1z M81,66h1v1h-1z M82,66h1v1h-1z M83,66h1v1h-1z M87,66h1v1h-1z M92,66h1v1h-1z M93,66h1v1h-1z M94,66h1v1h-1z M95,66h1v1h-1z M96,66h1v1h-1z M97,66h1v1h-1z M100,66h1v1h-1z M104,66h1v1h-1z M105,66h1v1h-1z M107,66h1v1h-1z M4,67h1v1h-1z M9,67h1v1h-1z M11,67h1v1h-1z M12,67h1v1h-1z M14,67h1v1h-1z M16,67h1v1h-1z M17,67h1v1h-1z M20,67h1v1h-1z M21,67h1v1h-1z M23,67h1v1h-1z M24,67h1v1h-1z M25,67h1v1h-1z M26,67h1v1h-1z M29,67h1v1h-1z M30,67h1v1h-1z M35,67h1v1h-1z M37,67h1v1h-1z M38,67h1v1h-1z M39,67h1v1h-1z M40,67h1v1h-1z M41,67h1v1h-1z M42,67h1v1h-1z M47,67h1v1h-1z M50,67h1v1h-1z M51,67h1v1h-1z M53,67h1v1h-1z M54,67h1v1h-1z M55,67h1v1h-1z M57,67h1v1h-1z M58,67h1v1h-1z M59,67h1v1h-1z M61,67h1v1h-1z M64,67h1v1h-1z M65,67h1v1h-1z M66,67h1v1h-1z M70,67h1v1h-1z M71,67h1v1h-1z M74,67h1v1h-1z M76,67h1v1h-1z M83,67h1v1h-1z M86,67h1v1h-1z M88,67h1v1h-1z M89,67h1v1h-1z M90,67h1v1h-1z M91,67h1v1h-1z M94,67h1v1h-1z M98,67h1v1h-1z M99,67h1v1h-1z M104,67h1v1h-1z M105,67h1v1h-1z M106,67h1v1h-1z M108,67h1v1h-1z M9,68h1v1h-1z M10,68h1v1h-1z M13,68h1v1h-1z M14,68h1v1h-1z M16,68h1v1h-1z M21,68h1v1h-1z M24,68h1v1h-1z M26,68h1v1h-1z M27,68h1v1h-1z M28,68h1v1h-1z M29,68h1v1h-1z M32,68h1v1h-1z M34,68h1v1h-1z M35,68h1v1h-1z M40,68h1v1h-1z M41,68h1v1h-1z M42,68h1v1h-1z M43,68h1v1h-1z M44,68h1v1h-1z M46,68h1v1h-1z M47,68h1v1h-1z M49,68h1v1h-1z M51,68h1v1h-1z M53,68h1v1h-1z M60,68h1v1h-1z M62,68h1v1h-1z M64,68h1v1h-1z M65,68h1v1h-1z M69,68h1v1h-1z M73,68h1v1h-1z M75,68h1v1h-1z M76,68h1v1h-1z M77,68h1v1h-1z M82,68h1v1h-1z M84,68h1v1h-1z M87,68h1v1h-1z M88,68h1v1h-1z M90,68h1v1h-1z M92,68h1v1h-1z M94,68h1v1h-1z M97,68h1v1h-1z M98,68h1v1h-1z M99,68h1v1h-1z M101,68h1v1h-1z M102,68h1v1h-1z M103,68h1v1h-1z M107,68h1v1h-1z M108,68h1v1h-1z M4,69h1v1h-1z M5,69h1v1h-1z M8,69h1v1h-1z M13,69h1v1h-1z M15,69h1v1h-1z M17,69h1v1h-1z M18,69h1v1h-1z M19,69h1v1h-1z M21,69h1v1h-1z M23,69h1v1h-1z M25,69h1v1h-1z M28,69h1v1h-1z M30,69h1v1h-1z M31,69h1v1h-1z M33,69h1v1h-1z M35,69h1v1h-1z M37,69h1v1h-1z M42,69h1v1h-1z M45,69h1v1h-1z M46,69h1v1h-1z M47,69h1v1h-1z M50,69h1v1h-1z M52,69h1v1h-1z M58,69h1v1h-1z M59,69h1v1h-1z M61,69h1v1h-1z M62,69h1v1h-1z M63,69h1v1h-1z M64,69h1v1h-1z M65,69h1v1h-1z M66,69h1v1h-1z M70,69h1v1h-1z M71,69h1v1h-1z M72,69h1v1h-1z M74,69h1v1h-1z M76,69h1v1h-1z M77,69h1v1h-1z M81,69h1v1h-1z M82,69h1v1h-1z M83,69h1v1h-1z M85,69h1v1h-1z M87,69h1v1h-1z M88,69h1v1h-1z M93,69h1v1h-1z M94,69h1v1h-1z M95,69h1v1h-1z M97,69h1v1h-1z M98,69h1v1h-1z M100,69h1v1h-1z M101,69h1v1h-1z M103,69h1v1h-1z M108,69h1v1h-1z M4,70h1v1h-1z M6,70h1v1h-1z M7,70h1v1h-1z M9,70h1v1h-1z M10,70h1v1h-1z M11,70h1v1h-1z M12,70h1v1h-1z M14,70h1v1h-1z M18,70h1v1h-1z M20,70h1v1h-1z M21,70h1v1h-1z M23,70h1v1h-1z M26,70h1v1h-1z M27,70h1v1h-1z M28,70h1v1h-1z M29,70h1v1h-1z M30,70h1v1h-1z M32,70h1v1h-1z M33,70h1v1h-1z M34,70h1v1h-1z M36,70h1v1h-1z M39,70h1v1h-1z M43,70h1v1h-1z M45,70h1v1h-1z M46,70h1v1h-1z M47,70h1v1h-1z M48,70h1v1h-1z M51,70h1v1h-1z M52,70h1v1h-1z M53,70h1v1h-1z M56,70h1v1h-1z M57,70h1v1h-1z M58,70h1v1h-1z M59,70h1v1h-1z M61,70h1v1h-1z M64,70h1v1h-1z M65,70h1v1h-1z M67,70h1v1h-1z M70,70h1v1h-1z M71,70h1v1h-1z M72,70h1v1h-1z M73,70h1v1h-1z M75,70h1v1h-1z M76,70h1v1h-1z M79,70h1v1h-1z M82,70h1v1h-1z M85,70h1v1h-1z M89,70h1v1h-1z M91,70h1v1h-1z M92,70h1v1h-1z M94,70h1v1h-1z M95,70h1v1h-1z M96,70h1v1h-1z M102,70h1v1h-1z M103,70h1v1h-1z M105,70h1v1h-1z M107,70h1v1h-1z M108,70h1v1h-1z M4,71h1v1h-1z M6,71h1v1h-1z M9,71h1v1h-1z M12,71h1v1h-1z M13,71h1v1h-1z M16,71h1v1h-1z M18,71h1v1h-1z M19,71h1v1h-1z M21,71h1v1h-1z M22,71h1v1h-1z M23,71h1v1h-1z M24,71h1v1h-1z M26,71h1v1h-1z M31,71h1v1h-1z M32,71h1v1h-1z M33,71h1v1h-1z M37,71h1v1h-1z M38,71h1v1h-1z M40,71h1v1h-1z M41,71h1v1h-1z M42,71h1v1h-1z M46,71h1v1h-1z M50,71h1v1h-1z M54,71h1v1h-1z M55,71h1v1h-1z M56,71h1v1h-1z M58,71h1v1h-1z M59,71h1v1h-1z M61,71h1v1h-1z M62,71h1v1h-1z M63,71h1v1h-1z M64,71h1v1h-1z M65,71h1v1h-1z M66,71h1v1h-1z M69,71h1v1h-1z M71,71h1v1h-1z M73,71h1v1h-1z M74,71h1v1h-1z M75,71h1v1h-1z M77,71h1v1h-1z M78,71h1v1h-1z M79,71h1v1h-1z M83,71h1v1h-1z M86,71h1v1h-1z M87,71h1v1h-1z M88,71h1v1h-1z M89,71h1v1h-1z M90,71h1v1h-1z M97,71h1v1h-1z M98,71h1v1h-1z M99,71h1v1h-1z M100,71h1v1h-1z M101,71h1v1h-1z M103,71h1v1h-1z M105,71h1v1h-1z M106,71h1v1h-1z M107,71h1v1h-1z M108,71h1v1h-1z M4,72h1v1h-1z M6,72h1v1h-1z M7,72h1v1h-1z M9,72h1v1h-1z M10,72h1v1h-1z M17,72h1v1h-1z M18,72h1v1h-1z M20,72h1v1h-1z M25,72h1v1h-1z M28,72h1v1h-1z M29,72h1v1h-1z M31,72h1v1h-1z M32,72h1v1h-1z M33,72h1v1h-1z M34,72h1v1h-1z M36,72h1v1h-1z M39,72h1v1h-1z M40,72h1v1h-1z M43,72h1v1h-1z M52,72h1v1h-1z M53,72h1v1h-1z M60,72h1v1h-1z M61,72h1v1h-1z M63,72h1v1h-1z M65,72h1v1h-1z M67,72h1v1h-1z M70,72h1v1h-1z M71,72h1v1h-1z M77,72h1v1h-1z M79,72h1v1h-1z M81,72h1v1h-1z M82,72h1v1h-1z M84,72h1v1h-1z M87,72h1v1h-1z M91,72h1v1h-1z M95,72h1v1h-1z M97,72h1v1h-1z M98,72h1v1h-1z M99,72h1v1h-1z M100,72h1v1h-1z M101,72h1v1h-1z M105,72h1v1h-1z M106,72h1v1h-1z M4,73h1v1h-1z M11,73h1v1h-1z M14,73h1v1h-1z M16,73h1v1h-1z M20,73h1v1h-1z M22,73h1v1h-1z M23,73h1v1h-1z M26,73h1v1h-1z M27,73h1v1h-1z M29,73h1v1h-1z M35,73h1v1h-1z M37,73h1v1h-1z M38,73h1v1h-1z M40,73h1v1h-1z M42,73h1v1h-1z M43,73h1v1h-1z M45,73h1v1h-1z M46,73h1v1h-1z M47,73h1v1h-1z M49,73h1v1h-1z M50,73h1v1h-1z M51,73h1v1h-1z M52,73h1v1h-1z M54,73h1v1h-1z M57,73h1v1h-1z M58,73h1v1h-1z M59,73h1v1h-1z M62,73h1v1h-1z M63,73h1v1h-1z M66,73h1v1h-1z M67,73h1v1h-1z M68,73h1v1h-1z M69,73h1v1h-1z M71,73h1v1h-1z M73,73h1v1h-1z M75,73h1v1h-1z M76,73h1v1h-1z M77,73h1v1h-1z M81,73h1v1h-1z M85,73h1v1h-1z M93,73h1v1h-1z M96,73h1v1h-1z M99,73h1v1h-1z M100,73h1v1h-1z M101,73h1v1h-1z M104,73h1v1h-1z M105,73h1v1h-1z M107,73h1v1h-1z M108,73h1v1h-1z M4,74h1v1h-1z M7,74h1v1h-1z M9,74h1v1h-1z M10,74h1v1h-1z M11,74h1v1h-1z M12,74h1v1h-1z M13,74h1v1h-1z M16,74h1v1h-1z M19,74h1v1h-1z M20,74h1v1h-1z M22,74h1v1h-1z M24,74h1v1h-1z M26,74h1v1h-1z M28,74h1v1h-1z M31,74h1v1h-1z M33,74h1v1h-1z M34,74h1v1h-1z M35,74h1v1h-1z M36,74h1v1h-1z M41,74h1v1h-1z M43,74h1v1h-1z M44,74h1v1h-1z M46,74h1v1h-1z M47,74h1v1h-1z M48,74h1v1h-1z M49,74h1v1h-1z M51,74h1v1h-1z M52,74h1v1h-1z M56,74h1v1h-1z M57,74h1v1h-1z M58,74h1v1h-1z M59,74h1v1h-1z M65,74h1v1h-1z M67,74h1v1h-1z M68,74h1v1h-1z M70,74h1v1h-1z M73,74h1v1h-1z M75,74h1v1h-1z M76,74h1v1h-1z M78,74h1v1h-1z M79,74h1v1h-1z M80,74h1v1h-1z M82,74h1v1h-1z M84,74h1v1h-1z M85,74h1v1h-1z M87,74h1v1h-1z M91,74h1v1h-1z M92,74h1v1h-1z M94,74h1v1h-1z M96,74h1v1h-1z M97,74h1v1h-1z M100,74h1v1h-1z M101,74h1v1h-1z M102,74h1v1h-1z M103,74h1v1h-1z M105,74h1v1h-1z M107,74h1v1h-1z M4,75h1v1h-1z M5,75h1v1h-1z M11,75h1v1h-1z M12,75h1v1h-1z M14,75h1v1h-1z M15,75h1v1h-1z M16,75h1v1h-1z M18,75h1v1h-1z M20,75h1v1h-1z M21,75h1v1h-1z M23,75h1v1h-1z M24,75h1v1h-1z M25,75h1v1h-1z M27,75h1v1h-1z M30,75h1v1h-1z M34,75h1v1h-1z M39,75h1v1h-1z M40,75h1v1h-1z M43,75h1v1h-1z M45,75h1v1h-1z M47,75h1v1h-1z M50,75h1v1h-1z M52,75h1v1h-1z M53,75h1v1h-1z M54,75h1v1h-1z M55,75h1v1h-1z M57,75h1v1h-1z M59,75h1v1h-1z M62,75h1v1h-1z M63,75h1v1h-1z M64,75h1v1h-1z M65,75h1v1h-1z M66,75h1v1h-1z M71,75h1v1h-1z M74,75h1v1h-1z M76,75h1v1h-1z M77,75h1v1h-1z M83,75h1v1h-1z M86,75h1v1h-1z M88,75h1v1h-1z M90,75h1v1h-1z M93,75h1v1h-1z M98,75h1v1h-1z M99,75h1v1h-1z M101,75h1v1h-1z M104,75h1v1h-1z M105,75h1v1h-1z M106,75h1v1h-1z M4,76h1v1h-1z M8,76h1v1h-1z M9,76h1v1h-1z M10,76h1v1h-1z M11,76h1v1h-1z M12,76h1v1h-1z M18,76h1v1h-1z M21,76h1v1h-1z M22,76h1v1h-1z M23,76h1v1h-1z M28,76h1v1h-1z M29,76h1v1h-1z M30,76h1v1h-1z M31,76h1v1h-1z M32,76h1v1h-1z M34,76h1v1h-1z M35,76h1v1h-1z M37,76h1v1h-1z M38,76h1v1h-1z M39,76h1v1h-1z M43,76h1v1h-1z M45,76h1v1h-1z M46,76h1v1h-1z M49,76h1v1h-1z M52,76h1v1h-1z M53,76h1v1h-1z M54,76h1v1h-1z M55,76h1v1h-1z M56,76h1v1h-1z M57,76h1v1h-1z M58,76h1v1h-1z M59,76h1v1h-1z M61,76h1v1h-1z M66,76h1v1h-1z M68,76h1v1h-1z M70,76h1v1h-1z M75,76h1v1h-1z M76,76h1v1h-1z M77,76h1v1h-1z M78,76h1v1h-1z M79,76h1v1h-1z M80,76h1v1h-1z M83,76h1v1h-1z M84,76h1v1h-1z M88,76h1v1h-1z M89,76h1v1h-1z M91,76h1v1h-1z M93,76h1v1h-1z M94,76h1v1h-1z M95,76h1v1h-1z M99,76h1v1h-1z M100,76h1v1h-1z M101,76h1v1h-1z M102,76h1v1h-1z M103,76h1v1h-1z M104,76h1v1h-1z M105,76h1v1h-1z M108,76h1v1h-1z M4,77h1v1h-1z M5,77h1v1h-1z M8,77h1v1h-1z M12,77h1v1h-1z M13,77h1v1h-1z M18,77h1v1h-1z M19,77h1v1h-1z M21,77h1v1h-1z M22,77h1v1h-1z M23,77h1v1h-1z M24,77h1v1h-1z M25,77h1v1h-1z M27,77h1v1h-1z M28,77h1v1h-1z M32,77h1v1h-1z M37,77h1v1h-1z M40,77h1v1h-1z M41,77h1v1h-1z M43,77h1v1h-1z M46,77h1v1h-1z M47,77h1v1h-1z M51,77h1v1h-1z M52,77h1v1h-1z M56,77h1v1h-1z M57,77h1v1h-1z M59,77h1v1h-1z M61,77h1v1h-1z M63,77h1v1h-1z M64,77h1v1h-1z M65,77h1v1h-1z M66,77h1v1h-1z M67,77h1v1h-1z M69,77h1v1h-1z M70,77h1v1h-1z M72,77h1v1h-1z M73,77h1v1h-1z M74,77h1v1h-1z M75,77h1v1h-1z M76,77h1v1h-1z M80,77h1v1h-1z M81,77h1v1h-1z M85,77h1v1h-1z M86,77h1v1h-1z M87,77h1v1h-1z M93,77h1v1h-1z M94,77h1v1h-1z M98,77h1v1h-1z M100,77h1v1h-1z M104,77h1v1h-1z M106,77h1v1h-1z M108,77h1v1h-1z M5,78h1v1h-1z M6,78h1v1h-1z M7,78h1v1h-1z M8,78h1v1h-1z M10,78h1v1h-1z M12,78h1v1h-1z M13,78h1v1h-1z M15,78h1v1h-1z M17,78h1v1h-1z M18,78h1v1h-1z M20,78h1v1h-1z M24,78h1v1h-1z M25,78h1v1h-1z M26,78h1v1h-1z M28,78h1v1h-1z M30,78h1v1h-1z M32,78h1v1h-1z M34,78h1v1h-1z M35,78h1v1h-1z M36,78h1v1h-1z M46,78h1v1h-1z M47,78h1v1h-1z M48,78h1v1h-1z M49,78h1v1h-1z M52,78h1v1h-1z M54,78h1v1h-1z M56,78h1v1h-1z M58,78h1v1h-1z M59,78h1v1h-1z M60,78h1v1h-1z M65,78h1v1h-1z M68,78h1v1h-1z M70,78h1v1h-1z M71,78h1v1h-1z M72,78h1v1h-1z M75,78h1v1h-1z M76,78h1v1h-1z M78,78h1v1h-1z M80,78h1v1h-1z M82,78h1v1h-1z M89,78h1v1h-1z M93,78h1v1h-1z M94,78h1v1h-1z M96,78h1v1h-1z M97,78h1v1h-1z M99,78h1v1h-1z M100,78h1v1h-1z M102,78h1v1h-1z M104,78h1v1h-1z M105,78h1v1h-1z M106,78h1v1h-1z M107,78h1v1h-1z M4,79h1v1h-1z M5,79h1v1h-1z M7,79h1v1h-1z M8,79h1v1h-1z M12,79h1v1h-1z M13,79h1v1h-1z M17,79h1v1h-1z M19,79h1v1h-1z M20,79h1v1h-1z M22,79h1v1h-1z M24,79h1v1h-1z M28,79h1v1h-1z M32,79h1v1h-1z M37,79h1v1h-1z M40,79h1v1h-1z M42,79h1v1h-1z M50,79h1v1h-1z M51,79h1v1h-1z M52,79h1v1h-1z M56,79h1v1h-1z M57,79h1v1h-1z M59,79h1v1h-1z M61,79h1v1h-1z M62,79h1v1h-1z M63,79h1v1h-1z M64,79h1v1h-1z M65,79h1v1h-1z M67,79h1v1h-1z M69,79h1v1h-1z M73,79h1v1h-1z M75,79h1v1h-1z M76,79h1v1h-1z M80,79h1v1h-1z M81,79h1v1h-1z M83,79h1v1h-1z M87,79h1v1h-1z M88,79h1v1h-1z M90,79h1v1h-1z M95,79h1v1h-1z M97,79h1v1h-1z M98,79h1v1h-1z M100,79h1v1h-1z M104,79h1v1h-1z M105,79h1v1h-1z M106,79h1v1h-1z M5,80h1v1h-1z M6,80h1v1h-1z M7,80h1v1h-1z M8,80h1v1h-1z M9,80h1v1h-1z M10,80h1v1h-1z M11,80h1v1h-1z M12,80h1v1h-1z M13,80h1v1h-1z M15,80h1v1h-1z M16,80h1v1h-1z M22,80h1v1h-1z M23,80h1v1h-1z M25,80h1v1h-1z M26,80h1v1h-1z M27,80h1v1h-1z M28,80h1v1h-1z M29,80h1v1h-1z M30,80h1v1h-1z M31,80h1v1h-1z M32,80h1v1h-1z M33,80h1v1h-1z M34,80h1v1h-1z M37,80h1v1h-1z M39,80h1v1h-1z M40,80h1v1h-1z M41,80h1v1h-1z M42,80h1v1h-1z M44,80h1v1h-1z M46,80h1v1h-1z M52,80h1v1h-1z M53,80h1v1h-1z M54,80h1v1h-1z M55,80h1v1h-1z M56,80h1v1h-1z M57,80h1v1h-1z M59,80h1v1h-1z M60,80h1v1h-1z M61,80h1v1h-1z M62,80h1v1h-1z M63,80h1v1h-1z M65,80h1v1h-1z M68,80h1v1h-1z M72,80h1v1h-1z M73,80h1v1h-1z M74,80h1v1h-1z M76,80h1v1h-1z M77,80h1v1h-1z M78,80h1v1h-1z M79,80h1v1h-1z M80,80h1v1h-1z M81,80h1v1h-1z M82,80h1v1h-1z M83,80h1v1h-1z M92,80h1v1h-1z M94,80h1v1h-1z M95,80h1v1h-1z M96,80h1v1h-1z M97,80h1v1h-1z M99,80h1v1h-1z M100,80h1v1h-1z M101,80h1v1h-1z M102,80h1v1h-1z M103,80h1v1h-1z M104,80h1v1h-1z M5,81h1v1h-1z M12,81h1v1h-1z M14,81h1v1h-1z M16,81h1v1h-1z M18,81h1v1h-1z M20,81h1v1h-1z M22,81h1v1h-1z M25,81h1v1h-1z M26,81h1v1h-1z M28,81h1v1h-1z M29,81h1v1h-1z M34,81h1v1h-1z M39,81h1v1h-1z M40,81h1v1h-1z M41,81h1v1h-1z M42,81h1v1h-1z M43,81h1v1h-1z M46,81h1v1h-1z M47,81h1v1h-1z M50,81h1v1h-1z M53,81h1v1h-1z M56,81h1v1h-1z M57,81h1v1h-1z M61,81h1v1h-1z M64,81h1v1h-1z M65,81h1v1h-1z M66,81h1v1h-1z M68,81h1v1h-1z M69,81h1v1h-1z M71,81h1v1h-1z M72,81h1v1h-1z M77,81h1v1h-1z M80,81h1v1h-1z M82,81h1v1h-1z M83,81h1v1h-1z M85,81h1v1h-1z M87,81h1v1h-1z M89,81h1v1h-1z M90,81h1v1h-1z M92,81h1v1h-1z M94,81h1v1h-1z M97,81h1v1h-1z M99,81h1v1h-1z M100,81h1v1h-1z M101,81h1v1h-1z M102,81h1v1h-1z M103,81h1v1h-1z M105,81h1v1h-1z M106,81h1v1h-1z M107,81h1v1h-1z M108,81h1v1h-1z M4,82h1v1h-1z M6,82h1v1h-1z M7,82h1v1h-1z M8,82h1v1h-1z M10,82h1v1h-1z M12,82h1v1h-1z M13,82h1v1h-1z M14,82h1v1h-1z M15,82h1v1h-1z M26,82h1v1h-1z M28,82h1v1h-1z M30,82h1v1h-1z M33,82h1v1h-1z M34,82h1v1h-1z M36,82h1v1h-1z M39,82h1v1h-1z M43,82h1v1h-1z M44,82h1v1h-1z M46,82h1v1h-1z M47,82h1v1h-1z M48,82h1v1h-1z M54,82h1v1h-1z M58,82h1v1h-1z M63,82h1v1h-1z M64,82h1v1h-1z M70,82h1v1h-1z M72,82h1v1h-1z M76,82h1v1h-1z M78,82h1v1h-1z M79,82h1v1h-1z M82,82h1v1h-1z M94,82h1v1h-1z M95,82h1v1h-1z M96,82h1v1h-1z M100,82h1v1h-1z M4,83h1v1h-1z M5,83h1v1h-1z M11,83h1v1h-1z M14,83h1v1h-1z M15,83h1v1h-1z M17,83h1v1h-1z M18,83h1v1h-1z M19,83h1v1h-1z M21,83h1v1h-1z M25,83h1v1h-1z M26,83h1v1h-1z M27,83h1v1h-1z M28,83h1v1h-1z M31,83h1v1h-1z M32,83h1v1h-1z M35,83h1v1h-1z M37,83h1v1h-1z M40,83h1v1h-1z M41,83h1v1h-1z M42,83h1v1h-1z M43,83h1v1h-1z M45,83h1v1h-1z M47,83h1v1h-1z M49,83h1v1h-1z M51,83h1v1h-1z M52,83h1v1h-1z M53,83h1v1h-1z M57,83h1v1h-1z M59,83h1v1h-1z M63,83h1v1h-1z M64,83h1v1h-1z M65,83h1v1h-1z M66,83h1v1h-1z M69,83h1v1h-1z M71,83h1v1h-1z M73,83h1v1h-1z M75,83h1v1h-1z M79,83h1v1h-1z M81,83h1v1h-1z M83,83h1v1h-1z M85,83h1v1h-1z M86,83h1v1h-1z M87,83h1v1h-1z M88,83h1v1h-1z M89,83h1v1h-1z M90,83h1v1h-1z M93,83h1v1h-1z M97,83h1v1h-1z M101,83h1v1h-1z M102,83h1v1h-1z M103,83h1v1h-1z M104,83h1v1h-1z M105,83h1v1h-1z M106,83h1v1h-1z M107,83h1v1h-1z M9,84h1v1h-1z M10,84h1v1h-1z M11,84h1v1h-1z M14,84h1v1h-1z M15,84h1v1h-1z M18,84h1v1h-1z M19,84h1v1h-1z M21,84h1v1h-1z M22,84h1v1h-1z M27,84h1v1h-1z M29,84h1v1h-1z M30,84h1v1h-1z M31,84h1v1h-1z M33,84h1v1h-1z M34,84h1v1h-1z M35,84h1v1h-1z M36,84h1v1h-1z M39,84h1v1h-1z M41,84h1v1h-1z M42,84h1v1h-1z M43,84h1v1h-1z M53,84h1v1h-1z M55,84h1v1h-1z M57,84h1v1h-1z M58,84h1v1h-1z M59,84h1v1h-1z M60,84h1v1h-1z M62,84h1v1h-1z M63,84h1v1h-1z M66,84h1v1h-1z M67,84h1v1h-1z M69,84h1v1h-1z M70,84h1v1h-1z M71,84h1v1h-1z M72,84h1v1h-1z M74,84h1v1h-1z M75,84h1v1h-1z M76,84h1v1h-1z M80,84h1v1h-1z M81,84h1v1h-1z M82,84h1v1h-1z M83,84h1v1h-1z M85,84h1v1h-1z M88,84h1v1h-1z M90,84h1v1h-1z M93,84h1v1h-1z M94,84h1v1h-1z M96,84h1v1h-1z M100,84h1v1h-1z M101,84h1v1h-1z M103,84h1v1h-1z M105,84h1v1h-1z M4,85h1v1h-1z M5,85h1v1h-1z M6,85h1v1h-1z M11,85h1v1h-1z M17,85h1v1h-1z M18,85h1v1h-1z M19,85h1v1h-1z M20,85h1v1h-1z M21,85h1v1h-1z M26,85h1v1h-1z M32,85h1v1h-1z M38,85h1v1h-1z M39,85h1v1h-1z M42,85h1v1h-1z M43,85h1v1h-1z M45,85h1v1h-1z M47,85h1v1h-1z M50,85h1v1h-1z M55,85h1v1h-1z M59,85h1v1h-1z M60,85h1v1h-1z M61,85h1v1h-1z M64,85h1v1h-1z M65,85h1v1h-1z M66,85h1v1h-1z M68,85h1v1h-1z M69,85h1v1h-1z M70,85h1v1h-1z M73,85h1v1h-1z M76,85h1v1h-1z M77,85h1v1h-1z M79,85h1v1h-1z M80,85h1v1h-1z M81,85h1v1h-1z M82,85h1v1h-1z M84,85h1v1h-1z M85,85h1v1h-1z M86,85h1v1h-1z M87,85h1v1h-1z M88,85h1v1h-1z M89,85h1v1h-1z M90,85h1v1h-1z M93,85h1v1h-1z M96,85h1v1h-1z M98,85h1v1h-1z M99,85h1v1h-1z M101,85h1v1h-1z M102,85h1v1h-1z M105,85h1v1h-1z M106,85h1v1h-1z M107,85h1v1h-1z M108,85h1v1h-1z M5,86h1v1h-1z M8,86h1v1h-1z M10,86h1v1h-1z M11,86h1v1h-1z M14,86h1v1h-1z M15,86h1v1h-1z M19,86h1v1h-1z M23,86h1v1h-1z M27,86h1v1h-1z M28,86h1v1h-1z M30,86h1v1h-1z M34,86h1v1h-1z M35,86h1v1h-1z M36,86h1v1h-1z M39,86h1v1h-1z M41,86h1v1h-1z M44,86h1v1h-1z M46,86h1v1h-1z M53,86h1v1h-1z M54,86h1v1h-1z M58,86h1v1h-1z M59,86h1v1h-1z M60,86h1v1h-1z M63,86h1v1h-1z M64,86h1v1h-1z M67,86h1v1h-1z M68,86h1v1h-1z M69,86h1v1h-1z M70,86h1v1h-1z M71,86h1v1h-1z M72,86h1v1h-1z M76,86h1v1h-1z M82,86h1v1h-1z M84,86h1v1h-1z M88,86h1v1h-1z M89,86h1v1h-1z M91,86h1v1h-1z M92,86h1v1h-1z M93,86h1v1h-1z M94,86h1v1h-1z M95,86h1v1h-1z M96,86h1v1h-1z M100,86h1v1h-1z M101,86h1v1h-1z M104,86h1v1h-1z M106,86h1v1h-1z M107,86h1v1h-1z M4,87h1v1h-1z M5,87h1v1h-1z M6,87h1v1h-1z M7,87h1v1h-1z M8,87h1v1h-1z M11,87h1v1h-1z M12,87h1v1h-1z M13,87h1v1h-1z M15,87h1v1h-1z M16,87h1v1h-1z M17,87h1v1h-1z M20,87h1v1h-1z M21,87h1v1h-1z M22,87h1v1h-1z M23,87h1v1h-1z M25,87h1v1h-1z M29,87h1v1h-1z M31,87h1v1h-1z M32,87h1v1h-1z M37,87h1v1h-1z M38,87h1v1h-1z M39,87h1v1h-1z M40,87h1v1h-1z M42,87h1v1h-1z M45,87h1v1h-1z M47,87h1v1h-1z M50,87h1v1h-1z M53,87h1v1h-1z M55,87h1v1h-1z M56,87h1v1h-1z M59,87h1v1h-1z M62,87h1v1h-1z M63,87h1v1h-1z M64,87h1v1h-1z M65,87h1v1h-1z M66,87h1v1h-1z M67,87h1v1h-1z M71,87h1v1h-1z M76,87h1v1h-1z M77,87h1v1h-1z M78,87h1v1h-1z M80,87h1v1h-1z M83,87h1v1h-1z M86,87h1v1h-1z M87,87h1v1h-1z M88,87h1v1h-1z M89,87h1v1h-1z M90,87h1v1h-1z M99,87h1v1h-1z M101,87h1v1h-1z M102,87h1v1h-1z M104,87h1v1h-1z M105,87h1v1h-1z M106,87h1v1h-1z M5,88h1v1h-1z M7,88h1v1h-1z M8,88h1v1h-1z M10,88h1v1h-1z M11,88h1v1h-1z M15,88h1v1h-1z M17,88h1v1h-1z M20,88h1v1h-1z M22,88h1v1h-1z M24,88h1v1h-1z M25,88h1v1h-1z M27,88h1v1h-1z M30,88h1v1h-1z M31,88h1v1h-1z M32,88h1v1h-1z M33,88h1v1h-1z M34,88h1v1h-1z M37,88h1v1h-1z M42,88h1v1h-1z M43,88h1v1h-1z M44,88h1v1h-1z M46,88h1v1h-1z M48,88h1v1h-1z M49,88h1v1h-1z M50,88h1v1h-1z M51,88h1v1h-1z M55,88h1v1h-1z M57,88h1v1h-1z M58,88h1v1h-1z M59,88h1v1h-1z M60,88h1v1h-1z M61,88h1v1h-1z M62,88h1v1h-1z M65,88h1v1h-1z M67,88h1v1h-1z M71,88h1v1h-1z M72,88h1v1h-1z M74,88h1v1h-1z M75,88h1v1h-1z M81,88h1v1h-1z M82,88h1v1h-1z M87,88h1v1h-1z M89,88h1v1h-1z M91,88h1v1h-1z M96,88h1v1h-1z M98,88h1v1h-1z M100,88h1v1h-1z M104,88h1v1h-1z M106,88h1v1h-1z M6,89h1v1h-1z M9,89h1v1h-1z M12,89h1v1h-1z M13,89h1v1h-1z M18,89h1v1h-1z M19,89h1v1h-1z M21,89h1v1h-1z M22,89h1v1h-1z M23,89h1v1h-1z M24,89h1v1h-1z M25,89h1v1h-1z M26,89h1v1h-1z M29,89h1v1h-1z M33,89h1v1h-1z M35,89h1v1h-1z M37,89h1v1h-1z M38,89h1v1h-1z M41,89h1v1h-1z M46,89h1v1h-1z M49,89h1v1h-1z M53,89h1v1h-1z M57,89h1v1h-1z M59,89h1v1h-1z M64,89h1v1h-1z M65,89h1v1h-1z M67,89h1v1h-1z M69,89h1v1h-1z M70,89h1v1h-1z M73,89h1v1h-1z M76,89h1v1h-1z M77,89h1v1h-1z M79,89h1v1h-1z M80,89h1v1h-1z M82,89h1v1h-1z M83,89h1v1h-1z M85,89h1v1h-1z M87,89h1v1h-1z M93,89h1v1h-1z M94,89h1v1h-1z M95,89h1v1h-1z M98,89h1v1h-1z M99,89h1v1h-1z M102,89h1v1h-1z M103,89h1v1h-1z M107,89h1v1h-1z M108,89h1v1h-1z M5,90h1v1h-1z M6,90h1v1h-1z M8,90h1v1h-1z M9,90h1v1h-1z M10,90h1v1h-1z M12,90h1v1h-1z M14,90h1v1h-1z M16,90h1v1h-1z M17,90h1v1h-1z M19,90h1v1h-1z M22,90h1v1h-1z M23,90h1v1h-1z M25,90h1v1h-1z M26,90h1v1h-1z M27,90h1v1h-1z M30,90h1v1h-1z M33,90h1v1h-1z M34,90h1v1h-1z M36,90h1v1h-1z M37,90h1v1h-1z M39,90h1v1h-1z M40,90h1v1h-1z M41,90h1v1h-1z M43,90h1v1h-1z M45,90h1v1h-1z M46,90h1v1h-1z M54,90h1v1h-1z M57,90h1v1h-1z M58,90h1v1h-1z M59,90h1v1h-1z M60,90h1v1h-1z M63,90h1v1h-1z M65,90h1v1h-1z M67,90h1v1h-1z M70,90h1v1h-1z M71,90h1v1h-1z M72,90h1v1h-1z M73,90h1v1h-1z M77,90h1v1h-1z M81,90h1v1h-1z M82,90h1v1h-1z M83,90h1v1h-1z M85,90h1v1h-1z M89,90h1v1h-1z M92,90h1v1h-1z M93,90h1v1h-1z M94,90h1v1h-1z M96,90h1v1h-1z M101,90h1v1h-1z M103,90h1v1h-1z M104,90h1v1h-1z M107,90h1v1h-1z M8,91h1v1h-1z M9,91h1v1h-1z M11,91h1v1h-1z M12,91h1v1h-1z M13,91h1v1h-1z M15,91h1v1h-1z M17,91h1v1h-1z M18,91h1v1h-1z M19,91h1v1h-1z M20,91h1v1h-1z M22,91h1v1h-1z M27,91h1v1h-1z M32,91h1v1h-1z M35,91h1v1h-1z M38,91h1v1h-1z M39,91h1v1h-1z M40,91h1v1h-1z M47,91h1v1h-1z M49,91h1v1h-1z M50,91h1v1h-1z M52,91h1v1h-1z M56,91h1v1h-1z M58,91h1v1h-1z M59,91h1v1h-1z M62,91h1v1h-1z M64,91h1v1h-1z M66,91h1v1h-1z M69,91h1v1h-1z M71,91h1v1h-1z M73,91h1v1h-1z M74,91h1v1h-1z M78,91h1v1h-1z M80,91h1v1h-1z M81,91h1v1h-1z M83,91h1v1h-1z M85,91h1v1h-1z M86,91h1v1h-1z M87,91h1v1h-1z M88,91h1v1h-1z M89,91h1v1h-1z M95,91h1v1h-1z M97,91h1v1h-1z M99,91h1v1h-1z M101,91h1v1h-1z M102,91h1v1h-1z M103,91h1v1h-1z M104,91h1v1h-1z M106,91h1v1h-1z M107,91h1v1h-1z M108,91h1v1h-1z M4,92h1v1h-1z M5,92h1v1h-1z M7,92h1v1h-1z M8,92h1v1h-1z M10,92h1v1h-1z M15,92h1v1h-1z M21,92h1v1h-1z M23,92h1v1h-1z M24,92h1v1h-1z M25,92h1v1h-1z M26,92h1v1h-1z M27,92h1v1h-1z M29,92h1v1h-1z M31,92h1v1h-1z M32,92h1v1h-1z M33,92h1v1h-1z M34,92h1v1h-1z M37,92h1v1h-1z M39,92h1v1h-1z M41,92h1v1h-1z M44,92h1v1h-1z M49,92h1v1h-1z M50,92h1v1h-1z M51,92h1v1h-1z M56,92h1v1h-1z M57,92h1v1h-1z M58,92h1v1h-1z M61,92h1v1h-1z M62,92h1v1h-1z M64,92h1v1h-1z M67,92h1v1h-1z M68,92h1v1h-1z M69,92h1v1h-1z M70,92h1v1h-1z M71,92h1v1h-1z M72,92h1v1h-1z M75,92h1v1h-1z M76,92h1v1h-1z M80,92h1v1h-1z M81,92h1v1h-1z M82,92h1v1h-1z M83,92h1v1h-1z M84,92h1v1h-1z M85,92h1v1h-1z M88,92h1v1h-1z M89,92h1v1h-1z M90,92h1v1h-1z M91,92h1v1h-1z M92,92h1v1h-1z M93,92h1v1h-1z M96,92h1v1h-1z M97,92h1v1h-1z M100,92h1v1h-1z M104,92h1v1h-1z M4,93h1v1h-1z M5,93h1v1h-1z M9,93h1v1h-1z M12,93h1v1h-1z M14,93h1v1h-1z M19,93h1v1h-1z M20,93h1v1h-1z M21,93h1v1h-1z M22,93h1v1h-1z M23,93h1v1h-1z M26,93h1v1h-1z M28,93h1v1h-1z M33,93h1v1h-1z M35,93h1v1h-1z M38,93h1v1h-1z M43,93h1v1h-1z M45,93h1v1h-1z M47,93h1v1h-1z M53,93h1v1h-1z M57,93h1v1h-1z M60,93h1v1h-1z M63,93h1v1h-1z M64,93h1v1h-1z M65,93h1v1h-1z M66,93h1v1h-1z M67,93h1v1h-1z M70,93h1v1h-1z M71,93h1v1h-1z M72,93h1v1h-1z M73,93h1v1h-1z M76,93h1v1h-1z M77,93h1v1h-1z M79,93h1v1h-1z M81,93h1v1h-1z M84,93h1v1h-1z M85,93h1v1h-1z M86,93h1v1h-1z M88,93h1v1h-1z M93,93h1v1h-1z M95,93h1v1h-1z M96,93h1v1h-1z M97,93h1v1h-1z M98,93h1v1h-1z M100,93h1v1h-1z M102,93h1v1h-1z M5,94h1v1h-1z M6,94h1v1h-1z M7,94h1v1h-1z M8,94h1v1h-1z M9,94h1v1h-1z M10,94h1v1h-1z M12,94h1v1h-1z M16,94h1v1h-1z M19,94h1v1h-1z M20,94h1v1h-1z M22,94h1v1h-1z M23,94h1v1h-1z M26,94h1v1h-1z M27,94h1v1h-1z M29,94h1v1h-1z M30,94h1v1h-1z M33,94h1v1h-1z M34,94h1v1h-1z M36,94h1v1h-1z M41,94h1v1h-1z M43,94h1v1h-1z M45,94h1v1h-1z M46,94h1v1h-1z M49,94h1v1h-1z M51,94h1v1h-1z M52,94h1v1h-1z M54,94h1v1h-1z M57,94h1v1h-1z M58,94h1v1h-1z M61,94h1v1h-1z M63,94h1v1h-1z M65,94h1v1h-1z M68,94h1v1h-1z M69,94h1v1h-1z M70,94h1v1h-1z M72,94h1v1h-1z M75,94h1v1h-1z M77,94h1v1h-1z M78,94h1v1h-1z M81,94h1v1h-1z M82,94h1v1h-1z M85,94h1v1h-1z M92,94h1v1h-1z M93,94h1v1h-1z M94,94h1v1h-1z M96,94h1v1h-1z M101,94h1v1h-1z M106,94h1v1h-1z M107,94h1v1h-1z M6,95h1v1h-1z M8,95h1v1h-1z M9,95h1v1h-1z M11,95h1v1h-1z M13,95h1v1h-1z M18,95h1v1h-1z M21,95h1v1h-1z M26,95h1v1h-1z M27,95h1v1h-1z M29,95h1v1h-1z M31,95h1v1h-1z M32,95h1v1h-1z M34,95h1v1h-1z M37,95h1v1h-1z M38,95h1v1h-1z M39,95h1v1h-1z M40,95h1v1h-1z M41,95h1v1h-1z M42,95h1v1h-1z M47,95h1v1h-1z M50,95h1v1h-1z M52,95h1v1h-1z M53,95h1v1h-1z M54,95h1v1h-1z M58,95h1v1h-1z M59,95h1v1h-1z M62,95h1v1h-1z M64,95h1v1h-1z M66,95h1v1h-1z M67,95h1v1h-1z M69,95h1v1h-1z M70,95h1v1h-1z M71,95h1v1h-1z M73,95h1v1h-1z M74,95h1v1h-1z M75,95h1v1h-1z M76,95h1v1h-1z M77,95h1v1h-1z M78,95h1v1h-1z M80,95h1v1h-1z M83,95h1v1h-1z M86,95h1v1h-1z M87,95h1v1h-1z M88,95h1v1h-1z M90,95h1v1h-1z M91,95h1v1h-1z M97,95h1v1h-1z M99,95h1v1h-1z M105,95h1v1h-1z M106,95h1v1h-1z M108,95h1v1h-1z M4,96h1v1h-1z M6,96h1v1h-1z M7,96h1v1h-1z M8,96h1v1h-1z M10,96h1v1h-1z M16,96h1v1h-1z M17,96h1v1h-1z M18,96h1v1h-1z M20,96h1v1h-1z M21,96h1v1h-1z M22,96h1v1h-1z M26,96h1v1h-1z M27,96h1v1h-1z M28,96h1v1h-1z M29,96h1v1h-1z M31,96h1v1h-1z M32,96h1v1h-1z M33,96h1v1h-1z M34,96h1v1h-1z M35,96h1v1h-1z M36,96h1v1h-1z M37,96h1v1h-1z M40,96h1v1h-1z M42,96h1v1h-1z M44,96h1v1h-1z M45,96h1v1h-1z M46,96h1v1h-1z M51,96h1v1h-1z M54,96h1v1h-1z M57,96h1v1h-1z M59,96h1v1h-1z M61,96h1v1h-1z M62,96h1v1h-1z M64,96h1v1h-1z M65,96h1v1h-1z M66,96h1v1h-1z M67,96h1v1h-1z M68,96h1v1h-1z M69,96h1v1h-1z M75,96h1v1h-1z M77,96h1v1h-1z M78,96h1v1h-1z M79,96h1v1h-1z M82,96h1v1h-1z M84,96h1v1h-1z M86,96h1v1h-1z M87,96h1v1h-1z M89,96h1v1h-1z M91,96h1v1h-1z M94,96h1v1h-1z M96,96h1v1h-1z M100,96h1v1h-1z M101,96h1v1h-1z M102,96h1v1h-1z M105,96h1v1h-1z M107,96h1v1h-1z M4,97h1v1h-1z M6,97h1v1h-1z M8,97h1v1h-1z M9,97h1v1h-1z M11,97h1v1h-1z M12,97h1v1h-1z M13,97h1v1h-1z M15,97h1v1h-1z M16,97h1v1h-1z M22,97h1v1h-1z M23,97h1v1h-1z M24,97h1v1h-1z M26,97h1v1h-1z M28,97h1v1h-1z M32,97h1v1h-1z M35,97h1v1h-1z M38,97h1v1h-1z M41,97h1v1h-1z M46,97h1v1h-1z M49,97h1v1h-1z M50,97h1v1h-1z M53,97h1v1h-1z M56,97h1v1h-1z M58,97h1v1h-1z M59,97h1v1h-1z M61,97h1v1h-1z M62,97h1v1h-1z M63,97h1v1h-1z M64,97h1v1h-1z M68,97h1v1h-1z M69,97h1v1h-1z M72,97h1v1h-1z M74,97h1v1h-1z M77,97h1v1h-1z M79,97h1v1h-1z M81,97h1v1h-1z M82,97h1v1h-1z M83,97h1v1h-1z M86,97h1v1h-1z M87,97h1v1h-1z M88,97h1v1h-1z M90,97h1v1h-1z M92,97h1v1h-1z M94,97h1v1h-1z M97,97h1v1h-1z M100,97h1v1h-1z M101,97h1v1h-1z M102,97h1v1h-1z M106,97h1v1h-1z M107,97h1v1h-1z M108,97h1v1h-1z M4,98h1v1h-1z M5,98h1v1h-1z M6,98h1v1h-1z M10,98h1v1h-1z M13,98h1v1h-1z M20,98h1v1h-1z M23,98h1v1h-1z M24,98h1v1h-1z M26,98h1v1h-1z M28,98h1v1h-1z M30,98h1v1h-1z M31,98h1v1h-1z M33,98h1v1h-1z M34,98h1v1h-1z M35,98h1v1h-1z M36,98h1v1h-1z M39,98h1v1h-1z M40,98h1v1h-1z M43,98h1v1h-1z M45,98h1v1h-1z M46,98h1v1h-1z M47,98h1v1h-1z M48,98h1v1h-1z M51,98h1v1h-1z M52,98h1v1h-1z M54,98h1v1h-1z M55,98h1v1h-1z M58,98h1v1h-1z M60,98h1v1h-1z M61,98h1v1h-1z M63,98h1v1h-1z M68,98h1v1h-1z M69,98h1v1h-1z M70,98h1v1h-1z M71,98h1v1h-1z M75,98h1v1h-1z M76,98h1v1h-1z M78,98h1v1h-1z M81,98h1v1h-1z M82,98h1v1h-1z M85,98h1v1h-1z M87,98h1v1h-1z M89,98h1v1h-1z M91,98h1v1h-1z M94,98h1v1h-1z M96,98h1v1h-1z M99,98h1v1h-1z M101,98h1v1h-1z M103,98h1v1h-1z M105,98h1v1h-1z M107,98h1v1h-1z M6,99h1v1h-1z M8,99h1v1h-1z M9,99h1v1h-1z M12,99h1v1h-1z M13,99h1v1h-1z M14,99h1v1h-1z M16,99h1v1h-1z M17,99h1v1h-1z M20,99h1v1h-1z M21,99h1v1h-1z M26,99h1v1h-1z M32,99h1v1h-1z M33,99h1v1h-1z M34,99h1v1h-1z M35,99h1v1h-1z M37,99h1v1h-1z M38,99h1v1h-1z M39,99h1v1h-1z M40,99h1v1h-1z M42,99h1v1h-1z M45,99h1v1h-1z M46,99h1v1h-1z M47,99h1v1h-1z M52,99h1v1h-1z M54,99h1v1h-1z M57,99h1v1h-1z M61,99h1v1h-1z M62,99h1v1h-1z M64,99h1v1h-1z M65,99h1v1h-1z M66,99h1v1h-1z M67,99h1v1h-1z M71,99h1v1h-1z M74,99h1v1h-1z M80,99h1v1h-1z M83,99h1v1h-1z M86,99h1v1h-1z M87,99h1v1h-1z M88,99h1v1h-1z M93,99h1v1h-1z M97,99h1v1h-1z M99,99h1v1h-1z M102,99h1v1h-1z M104,99h1v1h-1z M106,99h1v1h-1z M7,100h1v1h-1z M8,100h1v1h-1z M10,100h1v1h-1z M13,100h1v1h-1z M14,100h1v1h-1z M15,100h1v1h-1z M16,100h1v1h-1z M17,100h1v1h-1z M19,100h1v1h-1z M21,100h1v1h-1z M22,100h1v1h-1z M24,100h1v1h-1z M27,100h1v1h-1z M28,100h1v1h-1z M29,100h1v1h-1z M30,100h1v1h-1z M31,100h1v1h-1z M32,100h1v1h-1z M35,100h1v1h-1z M38,100h1v1h-1z M39,100h1v1h-1z M40,100h1v1h-1z M41,100h1v1h-1z M43,100h1v1h-1z M45,100h1v1h-1z M47,100h1v1h-1z M51,100h1v1h-1z M52,100h1v1h-1z M53,100h1v1h-1z M54,100h1v1h-1z M55,100h1v1h-1z M56,100h1v1h-1z M57,100h1v1h-1z M58,100h1v1h-1z M64,100h1v1h-1z M65,100h1v1h-1z M67,100h1v1h-1z M69,100h1v1h-1z M70,100h1v1h-1z M71,100h1v1h-1z M72,100h1v1h-1z M73,100h1v1h-1z M74,100h1v1h-1z M75,100h1v1h-1z M76,100h1v1h-1z M77,100h1v1h-1z M78,100h1v1h-1z M79,100h1v1h-1z M80,100h1v1h-1z M81,100h1v1h-1z M82,100h1v1h-1z M84,100h1v1h-1z M87,100h1v1h-1z M89,100h1v1h-1z M93,100h1v1h-1z M96,100h1v1h-1z M100,100h1v1h-1z M101,100h1v1h-1z M102,100h1v1h-1z M103,100h1v1h-1z M104,100h1v1h-1z M105,100h1v1h-1z M107,100h1v1h-1z M12,101h1v1h-1z M13,101h1v1h-1z M15,101h1v1h-1z M16,101h1v1h-1z M17,101h1v1h-1z M18,101h1v1h-1z M21,101h1v1h-1z M22,101h1v1h-1z M23,101h1v1h-1z M24,101h1v1h-1z M25,101h1v1h-1z M28,101h1v1h-1z M32,101h1v1h-1z M34,101h1v1h-1z M35,101h1v1h-1z M36,101h1v1h-1z M37,101h1v1h-1z M39,101h1v1h-1z M40,101h1v1h-1z M46,101h1v1h-1z M49,101h1v1h-1z M51,101h1v1h-1z M52,101h1v1h-1z M56,101h1v1h-1z M58,101h1v1h-1z M59,101h1v1h-1z M61,101h1v1h-1z M62,101h1v1h-1z M64,101h1v1h-1z M65,101h1v1h-1z M66,101h1v1h-1z M69,101h1v1h-1z M71,101h1v1h-1z M72,101h1v1h-1z M76,101h1v1h-1z M80,101h1v1h-1z M83,101h1v1h-1z M85,101h1v1h-1z M87,101h1v1h-1z M88,101h1v1h-1z M89,101h1v1h-1z M90,101h1v1h-1z M94,101h1v1h-1z M95,101h1v1h-1z M96,101h1v1h-1z M97,101h1v1h-1z M98,101h1v1h-1z M100,101h1v1h-1z M104,101h1v1h-1z M105,101h1v1h-1z M108,101h1v1h-1z M4,102h1v1h-1z M5,102h1v1h-1z M6,102h1v1h-1z M7,102h1v1h-1z M8,102h1v1h-1z M9,102h1v1h-1z M10,102h1v1h-1z M12,102h1v1h-1z M13,102h1v1h-1z M18,102h1v1h-1z M21,102h1v1h-1z M22,102h1v1h-1z M23,102h1v1h-1z M24,102h1v1h-1z M25,102h1v1h-1z M28,102h1v1h-1z M30,102h1v1h-1z M32,102h1v1h-1z M34,102h1v1h-1z M35,102h1v1h-1z M36,102h1v1h-1z M40,102h1v1h-1z M41,102h1v1h-1z M46,102h1v1h-1z M47,102h1v1h-1z M49,102h1v1h-1z M52,102h1v1h-1z M54,102h1v1h-1z M56,102h1v1h-1z M58,102h1v1h-1z M59,102h1v1h-1z M60,102h1v1h-1z M61,102h1v1h-1z M63,102h1v1h-1z M65,102h1v1h-1z M70,102h1v1h-1z M76,102h1v1h-1z M78,102h1v1h-1z M80,102h1v1h-1z M81,102h1v1h-1z M82,102h1v1h-1z M83,102h1v1h-1z M84,102h1v1h-1z M87,102h1v1h-1z M89,102h1v1h-1z M92,102h1v1h-1z M94,102h1v1h-1z M95,102h1v1h-1z M96,102h1v1h-1z M99,102h1v1h-1z M100,102h1v1h-1z M102,102h1v1h-1z M104,102h1v1h-1z M106,102h1v1h-1z M107,102h1v1h-1z M4,103h1v1h-1z M10,103h1v1h-1z M15,103h1v1h-1z M16,103h1v1h-1z M17,103h1v1h-1z M18,103h1v1h-1z M20,103h1v1h-1z M23,103h1v1h-1z M26,103h1v1h-1z M28,103h1v1h-1z M32,103h1v1h-1z M35,103h1v1h-1z M39,103h1v1h-1z M40,103h1v1h-1z M41,103h1v1h-1z M45,103h1v1h-1z M47,103h1v1h-1z M50,103h1v1h-1z M52,103h1v1h-1z M56,103h1v1h-1z M62,103h1v1h-1z M64,103h1v1h-1z M65,103h1v1h-1z M66,103h1v1h-1z M71,103h1v1h-1z M73,103h1v1h-1z M74,103h1v1h-1z M76,103h1v1h-1z M80,103h1v1h-1z M81,103h1v1h-1z M83,103h1v1h-1z M85,103h1v1h-1z M86,103h1v1h-1z M87,103h1v1h-1z M88,103h1v1h-1z M90,103h1v1h-1z M91,103h1v1h-1z M97,103h1v1h-1z M98,103h1v1h-1z M99,103h1v1h-1z M100,103h1v1h-1z M104,103h1v1h-1z M105,103h1v1h-1z M106,103h1v1h-1z M107,103h1v1h-1z M108,103h1v1h-1z M4,104h1v1h-1z M6,104h1v1h-1z M7,104h1v1h-1z M8,104h1v1h-1z M10,104h1v1h-1z M12,104h1v1h-1z M13,104h1v1h-1z M16,104h1v1h-1z M18,104h1v1h-1z M25,104h1v1h-1z M28,104h1v1h-1z M29,104h1v1h-1z M30,104h1v1h-1z M31,104h1v1h-1z M32,104h1v1h-1z M33,104h1v1h-1z M34,104h1v1h-1z M39,104h1v1h-1z M41,104h1v1h-1z M44,104h1v1h-1z M45,104h1v1h-1z M48,104h1v1h-1z M51,104h1v1h-1z M52,104h1v1h-1z M53,104h1v1h-1z M54,104h1v1h-1z M55,104h1v1h-1z M56,104h1v1h-1z M57,104h1v1h-1z M58,104h1v1h-1z M60,104h1v1h-1z M62,104h1v1h-1z M63,104h1v1h-1z M64,104h1v1h-1z M65,104h1v1h-1z M67,104h1v1h-1z M68,104h1v1h-1z M70,104h1v1h-1z M72,104h1v1h-1z M73,104h1v1h-1z M74,104h1v1h-1z M76,104h1v1h-1z M77,104h1v1h-1z M78,104h1v1h-1z M79,104h1v1h-1z M80,104h1v1h-1z M81,104h1v1h-1z M87,104h1v1h-1z M92,104h1v1h-1z M93,104h1v1h-1z M95,104h1v1h-1z M96,104h1v1h-1z M97,104h1v1h-1z M98,104h1v1h-1z M100,104h1v1h-1z M101,104h1v1h-1z M102,104h1v1h-1z M103,104h1v1h-1z M104,104h1v1h-1z M105,104h1v1h-1z M106,104h1v1h-1z M107,104h1v1h-1z M4,105h1v1h-1z M6,105h1v1h-1z M7,105h1v1h-1z M8,105h1v1h-1z M10,105h1v1h-1z M12,105h1v1h-1z M14,105h1v1h-1z M15,105h1v1h-1z M18,105h1v1h-1z M19,105h1v1h-1z M25,105h1v1h-1z M26,105h1v1h-1z M27,105h1v1h-1z M29,105h1v1h-1z M30,105h1v1h-1z M32,105h1v1h-1z M33,105h1v1h-1z M34,105h1v1h-1z M35,105h1v1h-1z M36,105h1v1h-1z M41,105h1v1h-1z M42,105h1v1h-1z M43,105h1v1h-1z M44,105h1v1h-1z M45,105h1v1h-1z M46,105h1v1h-1z M47,105h1v1h-1z M52,105h1v1h-1z M53,105h1v1h-1z M55,105h1v1h-1z M57,105h1v1h-1z M59,105h1v1h-1z M62,105h1v1h-1z M63,105h1v1h-1z M64,105h1v1h-1z M65,105h1v1h-1z M66,105h1v1h-1z M69,105h1v1h-1z M74,105h1v1h-1z M76,105h1v1h-1z M77,105h1v1h-1z M78,105h1v1h-1z M81,105h1v1h-1z M83,105h1v1h-1z M85,105h1v1h-1z M86,105h1v1h-1z M88,105h1v1h-1z M89,105h1v1h-1z M90,105h1v1h-1z M91,105h1v1h-1z M92,105h1v1h-1z M93,105h1v1h-1z M96,105h1v1h-1z M97,105h1v1h-1z M98,105h1v1h-1z M105,105h1v1h-1z M106,105h1v1h-1z M4,106h1v1h-1z M6,106h1v1h-1z M7,106h1v1h-1z M8,106h1v1h-1z M10,106h1v1h-1z M12,106h1v1h-1z M13,106h1v1h-1z M14,106h1v1h-1z M16,106h1v1h-1z M19,106h1v1h-1z M20,106h1v1h-1z M21,106h1v1h-1z M22,106h1v1h-1z M23,106h1v1h-1z M25,106h1v1h-1z M26,106h1v1h-1z M27,106h1v1h-1z M29,106h1v1h-1z M31,106h1v1h-1z M34,106h1v1h-1z M36,106h1v1h-1z M39,106h1v1h-1z M41,106h1v1h-1z M44,106h1v1h-1z M45,106h1v1h-1z M46,106h1v1h-1z M49,106h1v1h-1z M56,106h1v1h-1z M58,106h1v1h-1z M59,106h1v1h-1z M60,106h1v1h-1z M61,106h1v1h-1z M64,106h1v1h-1z M65,106h1v1h-1z M67,106h1v1h-1z M69,106h1v1h-1z M70,106h1v1h-1z M71,106h1v1h-1z M81,106h1v1h-1z M82,106h1v1h-1z M83,106h1v1h-1z M84,106h1v1h-1z M88,106h1v1h-1z M89,106h1v1h-1z M92,106h1v1h-1z M93,106h1v1h-1z M94,106h1v1h-1z M96,106h1v1h-1z M99,106h1v1h-1z M100,106h1v1h-1z M102,106h1v1h-1z M105,106h1v1h-1z M106,106h1v1h-1z M4,107h1v1h-1z M10,107h1v1h-1z M12,107h1v1h-1z M13,107h1v1h-1z M14,107h1v1h-1z M17,107h1v1h-1z M18,107h1v1h-1z M19,107h1v1h-1z M20,107h1v1h-1z M25,107h1v1h-1z M27,107h1v1h-1z M28,107h1v1h-1z M30,107h1v1h-1z M33,107h1v1h-1z M35,107h1v1h-1z M37,107h1v1h-1z M40,107h1v1h-1z M41,107h1v1h-1z M42,107h1v1h-1z M45,107h1v1h-1z M47,107h1v1h-1z M50,107h1v1h-1z M52,107h1v1h-1z M53,107h1v1h-1z M54,107h1v1h-1z M55,107h1v1h-1z M57,107h1v1h-1z M62,107h1v1h-1z M63,107h1v1h-1z M64,107h1v1h-1z M65,107h1v1h-1z M66,107h1v1h-1z M69,107h1v1h-1z M70,107h1v1h-1z M71,107h1v1h-1z M73,107h1v1h-1z M75,107h1v1h-1z M76,107h1v1h-1z M78,107h1v1h-1z M85,107h1v1h-1z M86,107h1v1h-1z M87,107h1v1h-1z M88,107h1v1h-1z M91,107h1v1h-1z M95,107h1v1h-1z M97,107h1v1h-1z M98,107h1v1h-1z M100,107h1v1h-1z M101,107h1v1h-1z M103,107h1v1h-1z M106,107h1v1h-1z M4,108h1v1h-1z M5,108h1v1h-1z M6,108h1v1h-1z M7,108h1v1h-1z M8,108h1v1h-1z M9,108h1v1h-1z M10,108h1v1h-1z M12,108h1v1h-1z M13,108h1v1h-1z M14,108h1v1h-1z M15,108h1v1h-1z M19,108h1v1h-1z M21,108h1v1h-1z M22,108h1v1h-1z M23,108h1v1h-1z M24,108h1v1h-1z M26,108h1v1h-1z M28,108h1v1h-1z M31,108h1v1h-1z M32,108h1v1h-1z M34,108h1v1h-1z M39,108h1v1h-1z M42,108h1v1h-1z M44,108h1v1h-1z M45,108h1v1h-1z M46,108h1v1h-1z M47,108h1v1h-1z M51,108h1v1h-1z M55,108h1v1h-1z M57,108h1v1h-1z M58,108h1v1h-1z M59,108h1v1h-1z M63,108h1v1h-1z M64,108h1v1h-1z M65,108h1v1h-1z M68,108h1v1h-1z M72,108h1v1h-1z M75,108h1v1h-1z M77,108h1v1h-1z M78,108h1v1h-1z M80,108h1v1h-1z M81,108h1v1h-1z M83,108h1v1h-1z M85,108h1v1h-1z M86,108h1v1h-1z M87,108h1v1h-1z M89,108h1v1h-1z M90,108h1v1h-1z M91,108h1v1h-1z M93,108h1v1h-1z M94,108h1v1h-1z M95,108h1v1h-1z M96,108h1v1h-1z M99,108h1v1h-1z M100,108h1v1h-1z M103,108h1v1h-1z M107,108h1v1h-1z" fill="#000000"/>
</svg>
