<?xml version="1.0" encoding="UTF-8"?>
<!DOCTYPE svg PUBLIC "-//W3C//DTD SVG 1.1//EN" "http://www.w3.org/Graphics/SVG/1.1/DTD/svg11.dtd">
<svg xmlns="http://www.w3.org/2000/svg" version="1.1" viewBox="0 0 113 113" stroke="none">
	<rect width="100%" height="100%" fill="#FFFFFF"/>
	<path d="M4,4h1v1h-1z M5,4h1v1h-1z M6,4h1v1h-1z M7,4h1v1h-1z M8,4h1v1h-1z M9,4h1v1h-1z M10,4h1v1h-1z M14,4h1v1h-1z M15,4h1v1h-1z M16,4h1v1h-1z M18,4h1v1h-1z M22,4h1v1h-1z M24,4h1v1h-1z M28,4h1v1h-1z M29,4h1v1h-1z M30,4h1v1h-1z M34,4h1v1h-1z M36,4h1v1h-1z M37,4h1v1h-1z M39,4h1v1h-1z M40,4h1v1h-1z M42,4h1v1h-1z M45,4h1v1h-1z M47,4h1v1h-1z M49,4h1v1h-1z M50,4h1v1h-1z M51,4h1v1h-1z M54,4h1v1h-1z M56,4h1v1h-1z M57,4h1v1h-1z M58,4h1v1h-1z M59,4h1v1h-1z M60,4h1v1h-1z M61,4h1v1h-1z M62,4h1v1h-1z M64,4h1v1h-1z M66,4h1v1h-1z M67,4h1v1h-1z M69,4h1v1h-1z M70,4h1v1h-1z M74,4h1v1h-1z M81,4h1v1h-1z M83,4h1v1h-1z M85,4h1v1h-1z M86,4h1v1h-1z M88,4h1v1h-1z M90,4h1v1h-1z M95,4h1v1h-1z M97,4h1v1h-1z M98,4h1v1h-1z M102,4h1v1h-1z M103,4h1v1h-1z M104,4h1v1h-1z M105,4h1v1h-1z M106,4h1v1h-1z M107,4h1v1h-1z M108,4h1v1h-1z M4,5h1v1h-1z M10,5h1v1h-1z M12,5h1v1h-1z M13,5h1v1h-1z M16,5h1v1h-1z M19,5h1v1h-1z M20,5h1v1h-1z M24,5h1v1h-1z M25,5h1v1h-1z M27,5h1v1h-1z M29,5h1v1h-1z M31,5h1v1h-1z M32,5h1v1h-1z M33,5h1v1h-1z M34,5h1v1h-1z M35,5h1v1h-1z M36,5h1v1h-1z M41,5h1v1h-1z M44,5h1v1h-1z M45,5h1v1h-1z M46,5h1v1h-1z M47,5h1v1h-1z M48,5h1v1h-1z M51,5h1v1h-1z M55,5h1v1h-1z M56,5h1v1h-1z M58,5h1v1h-1z M68,5h1v1h-1z M69,5h1v1h-1z M70,5h1v1h-1z M71,5h1v1h-1z M72,5h1v1h-1z M75,5h1v1h-1z M80,5h1v1h-1z M81,5h1v1h-1z M82,5h1v1h-1z M84,5h1v1h-1z M85,5h1v1h-1z M88,5h1v1h-1z M89,5h1v1h-1z M91,5h1v1h-1z M92,5h1v1h-1z M94,5h1v1h-1z M98,5h1v1h-1z M102,5h1v1h-1z M108,5h1v1h-1z M4,6h1v1h-1z M6,6h1v1h-1z M7,6h1v1h-1z M8,6h1v1h-1z M10,6h1v1h-1z M13,6h1v1h-1z M14,6h1v1h-1z M15,6h1v1h-1z M17,6h1v1h-1z M18,6h1v1h-1z M20,6h1v1h-1z M22,6h1v1h-1z M23,6h1v1h-1z M24,6h1v1h-1z M25,6h1v1h-1z M27,6h1v1h-1z M28,6h1v1h-1z M33,6h1v1h-1z M39,6h1v1h-1z M40,6h1v1h-1z M43,6h1v1h-1z M45,6h1v1h-1z M46,6h1v1h-1z M51,6h1v1h-1z M52,6h1v1h-1z M53,6h1v1h-1z M54,6h1v1h-1z M57,6h1v1h-1z M59,6h1v1h-1z M61,6h1v1h-1z M62,6h1v1h-1z M63,6h1v1h-1z M64,6h1v1h-1z M65,6h1v1h-1z M66,6h1v1h-1z M67,6h1v1h-1z M71,6h1v1h-1z M73,6h1v1h-1z M76,6h1v1h-1z M77,6h1v1h-1z M78,6h1v1h-1z M79,6h1v1h-1z M82,6h1v1h-1z M83,6h1v1h-1z M86,6h1v1h-1z M87,6h1v1h-1z M88,6h1v1h-1z M93,6h1v1h-1z M95,6h1v1h-1z M98,6h1v1h-1z M99,6h1v1h-1z M102,6h1v1h-1z M104,6h1v1h-1z M105,6h1v1h-1z M106,6h1v1h-1z M108,6h1v1h-1z M4,7h1v1h-1z M6,7h1v1h-1z M7,7h1v1h-1z M8,7h1v1h-1z M10,7h1v1h-1z M12,7h1v1h-1z M13,7h1v1h-1z M15,7h1v1h-1z M19,7h1v1h-1z M21,7h1v1h-1z M24,7h1v1h-1z M26,7h1v1h-1z M27,7h1v1h-1z M28,7h1v1h-1z M31,7h1v1h-1z M32,7h1v1h-1z M33,7h1v1h-1z M34,7h1v1h-1z M35,7h1v1h-1z M36,7h1v1h-1z M37,7h1v1h-1z M42,7h1v1h-1z M43,7h1v1h-1z M47,7h1v1h-1z M48,7h1v1h-1z M49,7h1v1h-1z M50,7h1v1h-1z M51,7h1v1h-1z M53,7h1v1h-1z M55,7h1v1h-1z M57,7h1v1h-1z M58,7h1v1h-1z M59,7h1v1h-1z M61,7h1v1h-1z M62,7h1v1h-1z M66,7h1v1h-1z M68,7h1v1h-1z M69,7h1v1h-1z M70,7h1v1h-1z M72,7h1v1h-1z M75,7h1v1h-1z M76,7h1v1h-1z M77,7h1v1h-1z M80,7h1v1h-1z M81,7h1v1h-1z M88,7h1v1h-1z M89,7h1v1h-1z M91,7h1v1h-1z M92,7h1v1h-1z M93,7h1v1h-1z M94,7h1v1h-1z M95,7h1v1h-1z M97,7h1v1h-1z M100,7h1v1h-1z M102,7h1v1h-1z M104,7h1v1h-1z M105,7h1v1h-1z M106,7h1v1h-1z M108,7h1v1h-1z M4,8h1v1h-1z M6,8h1v1h-1z M7,8h1v1h-1z M8,8h1v1h-1z M10,8h1v1h-1z M14,8h1v1h-1z M15,8h1v1h-1z M16,8h1v1h-1z M17,8h1v1h-1z M18,8h1v1h-1z M20,8h1v1h-1z M21,8h1v1h-1z M22,8h1v1h-1z M24,8h1v1h-1z M25,8h1v1h-1z M26,8h1v1h-1z M28,8h1v1h-1z M29,8h1v1h-1z M30,8h1v1h-1z M31,8h1v1h-1z M32,8h1v1h-1z M33,8h1v1h-1z M34,8h1v1h-1z M35,8h1v1h-1z M37,8h1v1h-1z M39,8h1v1h-1z M40,8h1v1h-1z M49,8h1v1h-1z M51,8h1v1h-1z M52,8h1v1h-1z M53,8h1v1h-1z M54,8h1v1h-1z M55,8h1v1h-1z M56,8h1v1h-1z M61,8h1v1h-1z M63,8h1v1h-1z M64,8h1v1h-1z M65,8h1v1h-1z M66,8h1v1h-1z M67,8h1v1h-1z M71,8h1v1h-1z M76,8h1v1h-1z M77,8h1v1h-1z M78,8h1v1h-1z M79,8h1v1h-1z M80,8h1v1h-1z M81,8h1v1h-1z M84,8h1v1h-1z M85,8h1v1h-1z M87,8h1v1h-1z M88,8h1v1h-1z M96,8h1v1h-1z M97,8h1v1h-1z M99,8h1v1h-1z M100,8h1v1h-1z M102,8h1v1h-1z M104,8h1v1h-1z M105,8h1v1h-1z M106,8h1v1h-1z M108,8h1v1h-1z M4,9h1v1h-1z M10,9h1v1h-1z M12,9h1v1h-1z M14,9h1v1h-1z M16,9h1v1h-1z M23,9h1v1h-1z M25,9h1v1h-1z M28,9h1v1h-1z M32,9h1v1h-1z M33,9h1v1h-1z M34,9h1v1h-1z M36,9h1v1h-1z M39,9h1v1h-1z M40,9h1v1h-1z M41,9h1v1h-1z M43,9h1v1h-1z M45,9h1v1h-1z M46,9h1v1h-1z M52,9h1v1h-1z M56,9h1v1h-1z M57,9h1v1h-1z M58,9h1v1h-1z M59,9h1v1h-1z M65,9h1v1h-1z M68,9h1v1h-1z M70,9h1v1h-1z M71,9h1v1h-1z M73,9h1v1h-1z M76,9h1v1h-1z M80,9h1v1h-1z M81,9h1v1h-1z M82,9h1v1h-1z M84,9h1v1h-1z M85,9h1v1h-1z M92,9h1v1h-1z M93,9h1v1h-1z M94,9h1v1h-1z M95,9h1v1h-1z M96,9h1v1h-1z M99,9h1v1h-1z M102,9h1v1h-1z M108,9h1v1h-1z M4,10h1v1h-1z M5,10h1v1h-1z M6,10h1v1h-1z M7,10h1v1h-1z M8,10h1v1h-1z M9,10h1v1h-1z M10,10h1v1h-1z M12,10h1v1h-1z M14,10h1v1h-1z M16,10h1v1h-1z M18,10h1v1h-1z M20,10h1v1h-1z M22,10h1v1h-1z M24,10h1v1h-1z M26,10h1v1h-1z M28,10h1v1h-1z M30,10h1v1h-1z M32,10h1v1h-1z M34,10h1v1h-1z M36,10h1v1h-1z M38,10h1v1h-1z M40,10h1v1h-1z M42,10h1v1h-1z M44,10h1v1h-1z M46,10h1v1h-1z M48,10h1v1h-1z M50,10h1v1h-1z M52,10h1v1h-1z M54,10h1v1h-1z M56,10h1v1h-1z M58,10h1v1h-1z M60,10h1v1h-1z M62,10h1v1h-1z M64,10h1v1h-1z M66,10h1v1h-1z M68,10h1v1h-1z M70,10h1v1h-1z M72,10h1v1h-1z M74,10h1v1h-1z M76,10h1v1h-1z M78,10h1v1h-1z M80,10h1v1h-1z M82,10h1v1h-1z M84,10h1v1h-1z M86,10h1v1h-1z M88,10h1v1h-1z M90,10h1v1h-1z M92,10h1v1h-1z M94,10h1v1h-1z M96,10h1v1h-1z M98,10h1v1h-1z M100,10h1v1h-1z M102,10h1v1h-1z M103,10h1v1h-1z M104,10h1v1h-1z M105,10h1v1h-1z M106,10h1v1h-1z M107,10h1v1h-1z M108,10h1v1h-1z M15,11h1v1h-1z M16,11h1v1h-1z M17,11h1v1h-1z M20,11h1v1h-1z M21,11h1v1h-1z M25,11h1v1h-1z M26,11h1v1h-1z M27,11h1v1h-1z M28,11h1v1h-1z M32,11h1v1h-1z M33,11h1v1h-1z M34,11h1v1h-1z M35,11h1v1h-1z M37,11h1v1h-1z M38,11h1v1h-1z M39,11h1v1h-1z M40,11h1v1h-1z M41,11h1v1h-1z M42,11h1v1h-1z M45,11h1v1h-1z M46,11h1v1h-1z M47,11h1v1h-1z M52,11h1v1h-1z M56,11h1v1h-1z M58,11h1v1h-1z M59,11h1v1h-1z M61,11h1v1h-1z M62,11h1v1h-1z M64,11h1v1h-1z M67,11h1v1h-1z M69,11h1v1h-1z M71,11h1v1h-1z M74,11h1v1h-1z M75,11h1v1h-1z M76,11h1v1h-1z M80,11h1v1h-1z M83,11h1v1h-1z M85,11h1v1h-1z M86,11h1v1h-1z M87,11h1v1h-1z M88,11h1v1h-1z M89,11h1v1h-1z M90,11h1v1h-1z M95,11h1v1h-1z M97,11h1v1h-1z M98,11h1v1h-1z M99,11h1v1h-1z M4,12h1v1h-1z M5,12h1v1h-1z M6,12h1v1h-1z M7,12h1v1h-1z M8,12h1v1h-1z M10,12h1v1h-1z M11,12h1v1h-1z M12,12h1v1h-1z M13,12h1v1h-1z M16,12h1v1h-1z M18,12h1v1h-1z M20,12h1v1h-1z M22,12h1v1h-1z M23,12h1v1h-1z M24,12h1v1h-1z M27,12h1v1h-1z M28,12h1v1h-1z M29,12h1v1h-1z M30,12h1v1h-1z M31,12h1v1h-1z M32,12h1v1h-1z M40,12h1v1h-1z M42,12h1v1h-1z M43,12h1v1h-1z M44,12h1v1h-1z M45,12h1v1h-1z M46,12h1v1h-1z M47,12h1v1h-1z M51,12h1v1h-1z M52,12h1v1h-1z M53,12h1v1h-1z M54,12h1v1h-1z M55,12h1v1h-1z M56,12h1v1h-1z M57,12h1v1h-1z M58,12h1v1h-1z M62,12h1v1h-1z M64,12h1v1h-1z M68,12h1v1h-1z M71,12h1v1h-1z M75,12h1v1h-1z M76,12h1v1h-1z M77,12h1v1h-1z M78,12h1v1h-1z M79,12h1v1h-1z M80,12h1v1h-1z M81,12h1v1h-1z M82,12h1v1h-1z M83,12h1v1h-1z M87,12h1v1h-1z M90,12h1v1h-1z M92,12h1v1h-1z M95,12h1v1h-1z M96,12h1v1h-1z M97,12h1v1h-1z M100,12h1v1h-1z M101,12h1v1h-1z M103,12h1v1h-1z M105,12h1v1h-1z M107,12h1v1h-1z M5,13h1v1h-1z M11,13h1v1h-1z M12,13h1v1h-1z M13,13h1v1h-1z M16,13h1v1h-1z M17,13h1v1h-1z M19,13h1v1h-1z M22,13h1v1h-1z M23,13h1v1h-1z M24,13h1v1h-1z M26,13h1v1h-1z M27,13h1v1h-1z M28,13h1v1h-1z M30,13h1v1h-1z M31,13h1v1h-1z M33,13h1v1h-1z M37,13h1v1h-1z M38,13h1v1h-1z M39,13h1v1h-1z M45,13h1v1h-1z M47,13h1v1h-1z M49,13h1v1h-1z M50,13h1v1h-1z M51,13h1v1h-1z M52,13h1v1h-1z M53,13h1v1h-1z M54,13h1v1h-1z M55,13h1v1h-1z M56,13h1v1h-1z M57,13h1v1h-1z M59,13h1v1h-1z M63,13h1v1h-1z M64,13h1v1h-1z M65,13h1v1h-1z M69,13h1v1h-1z M73,13h1v1h-1z M76,13h1v1h-1z M77,13h1v1h-1z M78,13h1v1h-1z M82,13h1v1h-1z M86,13h1v1h-1z M88,13h1v1h-1z M89,13h1v1h-1z M90,13h1v1h-1z M91,13h1v1h-1z M92,13h1v1h-1z M93,13h1v1h-1z M94,13h1v1h-1z M95,13h1v1h-1z M97,13h1v1h-1z M99,13h1v1h-1z M100,13h1v1h-1z M104,13h1v1h-1z M105,13h1v1h-1z M108,13h1v1h-1z M7,14h1v1h-1z M9,14h1v1h-1z M10,14h1v1h-1z M15,14h1v1h-1z M16,14h1v1h-1z M17,14h1v1h-1z M18,14h1v1h-1z M19,14h1v1h-1z M22,14h1v1h-1z M29,14h1v1h-1z M32,14h1v1h-1z M33,14h1v1h-1z M34,14h1v1h-1z M35,14h1v1h-1z M36,14h1v1h-1z M39,14h1v1h-1z M40,14h1v1h-1z M41,14h1v1h-1z M43,14h1v1h-1z M44,14h1v1h-1z M45,14h1v1h-1z M46,14h1v1h-1z M47,14h1v1h-1z M52,14h1v1h-1z M53,14h1v1h-1z M56,14h1v1h-1z M57,14h1v1h-1z M58,14h1v1h-1z M59,14h1v1h-1z M60,14h1v1h-1z M64,14h1v1h-1z M67,14h1v1h-1z M70,14h1v1h-1z M71,14h1v1h-1z M72,14h1v1h-1z M77,14h1v1h-1z M80,14h1v1h-1z M82,14h1v1h-1z M83,14h1v1h-1z M84,14h1v1h-1z M85,14h1v1h-1z M87,14h1v1h-1z M89,14h1v1h-1z M93,14h1v1h-1z M94,14h1v1h-1z M95,14h1v1h-1z M96,14h1v1h-1z M101,14h1v1h-1z M103,14h1v1h-1z M105,14h1v1h-1z M107,14h1v1h-1z M6,15h1v1h-1z M8,15h1v1h-1z M11,15h1v1h-1z M12,15h1v1h-1z M13,15h1v1h-1z M15,15h1v1h-1z M18,15h1v1h-1z M22,15h1v1h-1z M23,15h1v1h-1z M24,15h1v1h-1z M25,15h1v1h-1z M35,15h1v1h-1z M37,15h1v1h-1z M38,15h1v1h-1z M39,15h1v1h-1z M40,15h1v1h-1z M42,15h1v1h-1z M43,15h1v1h-1z M45,15h1v1h-1z M46,15h1v1h-1z M47,15h1v1h-1z M49,15h1v1h-1z M51,15h1v1h-1z M52,15h1v1h-1z M55,15h1v1h-1z M58,15h1v1h-1z M59,15h1v1h-1z M63,15h1v1h-1z M64,15h1v1h-1z M65,15h1v1h-1z M66,15h1v1h-1z M73,15h1v1h-1z M74,15h1v1h-1z M75,15h1v1h-1z M76,15h1v1h-1z M77,15h1v1h-1z M78,15h1v1h-1z M81,15h1v1h-1z M83,15h1v1h-1z M86,15h1v1h-1z M87,15h1v1h-1z M88,15h1v1h-1z M90,15h1v1h-1z M94,15h1v1h-1z M98,15h1v1h-1z M99,15h1v1h-1z M101,15h1v1h-1z M103,15h1v1h-1z M105,15h1v1h-1z M106,15h1v1h-1z M108,15h1v1h-1z M5,16h1v1h-1z M7,16h1v1h-1z M9,16h1v1h-1z M10,16h1v1h-1z M11,16h1v1h-1z M14,16h1v1h-1z M16,16h1v1h-1z M18,16h1v1h-1z M19,16h1v1h-1z M21,16h1v1h-1z M23,16h1v1h-1z M25,16h1v1h-1z M29,16h1v1h-1z M32,16h1v1h-1z M33,16h1v1h-1z M34,16h1v1h-1z M37,16h1v1h-1z M38,16h1v1h-1z M39,16h1v1h-1z M41,16h1v1h-1z M43,16h1v1h-1z M45,16h1v1h-1z M47,16h1v1h-1z M48,16h1v1h-1z M50,16h1v1h-1z M51,16h1v1h-1z M53,16h1v1h-1z M54,16h1v1h-1z M56,16h1v1h-1z M58,16h1v1h-1z M60,16h1v1h-1z M61,16h1v1h-1z M62,16h1v1h-1z M64,16h1v1h-1z M65,16h1v1h-1z M68,16h1v1h-1z M69,16h1v1h-1z M70,16h1v1h-1z M71,16h1v1h-1z M74,16h1v1h-1z M75,16h1v1h-1z M79,16h1v1h-1z M80,16h1v1h-1z M82,16h1v1h-1z M84,16h1v1h-1z M85,16h1v1h-1z M87,16h1v1h-1z M89,16h1v1h-1z M90,16h1v1h-1z M91,16h1v1h-1z M94,16h1v1h-1z M96,16h1v1h-1z M99,16h1v1h-1z M100,16h1v1h-1z M101,16h1v1h-1z M102,16h1v1h-1z M104,16h1v1h-1z M105,16h1v1h-1z M106,16h1v1h-1z M107,16h1v1h-1z M7,17h1v1h-1z M8,17h1v1h-1z M9,17h1v1h-1z M14,17h1v1h-1z M15,17h1v1h-1z M16,17h1v1h-1z M17,17h1v1h-1z M18,17h1v1h-1z M21,17h1v1h-1z M23,17h1v1h-1z M27,17h1v1h-1z M28,17h1v1h-1z M30,17h1v1h-1z M32,17h1v1h-1z M34,17h1v1h-1z M37,17h1v1h-1z M40,17h1v1h-1z M42,17h1v1h-1z M43,17h1v1h-1z M45,17h1v1h-1z M48,17h1v1h-1z M50,17h1v1h-1z M51,17h1v1h-1z M52,17h1v1h-1z M53,17h1v1h-1z M54,17h1v1h-1z M57,17h1v1h-1z M58,17h1v1h-1z M59,17h1v1h-1z M61,17h1v1h-1z M64,17h1v1h-1z M68,17h1v1h-1z M69,17h1v1h-1z M70,17h1v1h-1z M71,17h1v1h-1z M74,17h1v1h-1z M76,17h1v1h-1z M78,17h1v1h-1z M81,17h1v1h-1z M82,17h1v1h-1z M84,17h1v1h-1z M86,17h1v1h-1z M87,17h1v1h-1z M91,17h1v1h-1z M92,17h1v1h-1z M96,17h1v1h-1z M97,17h1v1h-1z M100,17h1v1h-1z M101,17h1v1h-1z M103,17h1v1h-1z M6,18h1v1h-1z M7,18h1v1h-1z M8,18h1v1h-1z M10,18h1v1h-1z M11,18h1v1h-1z M13,18h1v1h-1z M14,18h1v1h-1z M15,18h1v1h-1z M20,18h1v1h-1z M21,18h1v1h-1z M23,18h1v1h-1z M31,18h1v1h-1z M32,18h1v1h-1z M33,18h1v1h-1z M34,18h1v1h-1z M39,18h1v1h-1z M40,18h1v1h-1z M41,18h1v1h-1z M43,18h1v1h-1z M44,18h1v1h-1z M46,18h1v1h-1z M47,18h1v1h-1z M48,18h1v1h-1z M53,18h1v1h-1z M55,18h1v1h-1z M57,18h1v1h-1z M58,18h1v1h-1z M61,18h1v1h-1z M65,18h1v1h-1z M67,18h1v1h-1z M68,18h1v1h-1z M69,18h1v1h-1z M70,18h1v1h-1z M75,18h1v1h-1z M76,18h1v1h-1z M77,18h1v1h-1z M80,18h1v1h-1z M82,18h1v1h-1z M83,18h1v1h-1z M84,18h1v1h-1z M89,18h1v1h-1z M91,18h1v1h-1z M92,18h1v1h-1z M93,18h1v1h-1z M94,18h1v1h-1z M95,18h1v1h-1z M96,18h1v1h-1z M97,18h1v1h-1z M100,18h1v1h-1z M106,18h1v1h-1z M107,18h1v1h-1z M4,19h1v1h-1z M7,19h1v1h-1z M11,19h1v1h-1z M14,19h1v1h-1z M15,19h1v1h-1z M16,19h1v1h-1z M18,19h1v1h-1z M23,19h1v1h-1z M24,19h1v1h-1z M25,19h1v1h-1z M29,19h1v1h-1z M30,19h1v1h-1z M33,19h1v1h-1z M35,19h1v1h-1z M37,19h1v1h-1z M39,19h1v1h-1z M40,19h1v1h-1z M42,19h1v1h-1z M43,19h1v1h-1z M45,19h1v1h-1z M49,19h1v1h-1z M51,19h1v1h-1z M52,19h1v1h-1z M57,19h1v1h-1z M59,19h1v1h-1z M61,19h1v1h-1z M62,19h1v1h-1z M63,19h1v1h-1z M64,19h1v1h-1z M65,19h1v1h-1z M66,19h1v1h-1z M69,19h1v1h-1z M71,19h1v1h-1z M74,19h1v1h-1z M75,19h1v1h-1z M76,19h1v1h-1z M77,19h1v1h-1z M78,19h1v1h-1z M79,19h1v1h-1z M81,19h1v1h-1z M85,19h1v1h-1z M86,19h1v1h-1z M87,19h1v1h-1z M88,19h1v1h-1z M90,19h1v1h-1z M94,19h1v1h-1z M95,19h1v1h-1z M98,19h1v1h-1z M101,19h1v1h-1z M105,19h1v1h-1z M106,19h1v1h-1z M107,19h1v1h-1z M4,20h1v1h-1z M5,20h1v1h-1z M8,20h1v1h-1z M9,20h1v1h-1z M10,20h1v1h-1z M13,20h1v1h-1z M17,20h1v1h-1z M19,20h1v1h-1z M23,20h1v1h-1z M24,20h1v1h-1z M27,20h1v1h-1z M29,20h1v1h-1z M34,20h1v1h-1z M36,20h1v1h-1z M37,20h1v1h-1z M38,20h1v1h-1z M40,20h1v1h-1z M41,20h1v1h-1z M47,20h1v1h-1z M48,20h1v1h-1z M49,20h1v1h-1z M51,20h1v1h-1z M55,20h1v1h-1z M56,20h1v1h-1z M57,20h1v1h-1z M58,20h1v1h-1z M59,20h1v1h-1z M62,20h1v1h-1z M63,20h1v1h-1z M64,20h1v1h-1z M67,20h1v1h-1z M69,20h1v1h-1z M71,20h1v1h-1z M72,20h1v1h-1z M73,20h1v1h-1z M75,20h1v1h-1z M77,20h1v1h-1z M80,20h1v1h-1z M81,20h1v1h-1z M82,20h1v1h-1z M83,20h1v1h-1z M86,20h1v1h-1z M87,20h1v1h-1z M90,20h1v1h-1z M92,20h1v1h-1z M94,20h1v1h-1z M99,20h1v1h-1z M100,20h1v1h-1z M101,20h1v1h-1z M102,20h1v1h-1z M104,20h1v1h-1z M108,20h1v1h-1z M6,21h1v1h-1z M13,21h1v1h-1z M16,21h1v1h-1z M18,21h1v1h-1z M19,21h1v1h-1z M20,21h1v1h-1z M21,21h1v1h-1z M22,21h1v1h-1z M24,21h1v1h-1z M25,21h1v1h-1z M27,21h1v1h-1z M28,21h1v1h-1z M30,21h1v1h-1z M31,21h1v1h-1z M32,21h1v1h-1z M33,21h1v1h-1z M34,21h1v1h-1z M35,21h1v1h-1z M37,21h1v1h-1z M40,21h1v1h-1z M46,21h1v1h-1z M47,21h1v1h-1z M49,21h1v1h-1z M50,21h1v1h-1z M52,21h1v1h-1z M54,21h1v1h-1z M58,21h1v1h-1z M59,21h1v1h-1z M62,21h1v1h-1z M64,21h1v1h-1z M67,21h1v1h-1z M68,21h1v1h-1z M72,21h1v1h-1z M74,21h1v1h-1z M75,21h1v1h-1z M76,21h1v1h-1z M77,21h1v1h-1z M79,21h1v1h-1z M80,21h1v1h-1z M85,21h1v1h-1z M86,21h1v1h-1z M88,21h1v1h-1z M95,21h1v1h-1z M96,21h1v1h-1z M99,21h1v1h-1z M101,21h1v1h-1z M104,21h1v1h-1z M105,21h1v1h-1z M106,21h1v1h-1z M107,21h1v1h-1z M4,22h1v1h-1z M5,22h1v1h-1z M8,22h1v1h-1z M10,22h1v1h-1z M12,22h1v1h-1z M13,22h1v1h-1z M16,22h1v1h-1z M17,22h1v1h-1z M22,22h1v1h-1z M23,22h1v1h-1z M24,22h1v1h-1z M29,22h1v1h-1z M33,22h1v1h-1z M34,22h1v1h-1z M35,22h1v1h-1z M36,22h1v1h-1z M39,22h1v1h-1z M45,22h1v1h-1z M46,22h1v1h-1z M47,22h1v1h-1z M51,22h1v1h-1z M53,22h1v1h-1z M55,22h1v1h-1z M57,22h1v1h-1z M58,22h1v1h-1z M59,22h1v1h-1z M60,22h1v1h-1z M65,22h1v1h-1z M68,22h1v1h-1z M69,22h1v1h-1z M70,22h1v1h-1z M76,22h1v1h-1z M77,22h1v1h-1z M79,22h1v1h-1z M81,22h1v1h-1z M82,22h1v1h-1z M84,22h1v1h-1z M88,22h1v1h-1z M89,22h1v1h-1z M92,22h1v1h-1z M93,22h1v1h-1z M94,22h1v1h-1z M95,22h1v1h-1z M96,22h1v1h-1z M100,22h1v1h-1z M106,22h1v1h-1z M107,22h1v1h-1z M6,23h1v1h-1z M7,23h1v1h-1z M14,23h1v1h-1z M15,23h1v1h-1z M17,23h1v1h-1z M23,23h1v1h-1z M26,23h1v1h-1z M28,23h1v1h-1z M33,23h1v1h-1z M34,23h1v1h-1z M39,23h1v1h-1z M40,23h1v1h-1z M42,23h1v1h-1z M46,23h1v1h-1z M47,23h1v1h-1z M51,23h1v1h-1z M52,23h1v1h-1z M53,23h1v1h-1z M57,23h1v1h-1z M58,23h1v1h-1z M59,23h1v1h-1z M62,23h1v1h-1z M64,23h1v1h-1z M65,23h1v1h-1z M66,23h1v1h-1z M70,23h1v1h-1z M71,23h1v1h-1z M73,23h1v1h-1z M76,23h1v1h-1z M77,23h1v1h-1z M78,23h1v1h-1z M81,23h1v1h-1z M83,23h1v1h-1z M85,23h1v1h-1z M87,23h1v1h-1z M88,23h1v1h-1z M93,23h1v1h-1z M97,23h1v1h-1z M100,23h1v1h-1z M103,23h1v1h-1z M104,23h1v1h-1z M105,23h1v1h-1z M106,23h1v1h-1z M108,23h1v1h-1z M4,24h1v1h-1z M6,24h1v1h-1z M7,24h1v1h-1z M8,24h1v1h-1z M10,24h1v1h-1z M11,24h1v1h-1z M13,24h1v1h-1z M14,24h1v1h-1z M15,24h1v1h-1z M18,24h1v1h-1z M19,24h1v1h-1z M20,24h1v1h-1z M21,24h1v1h-1z M22,24h1v1h-1z M24,24h1v1h-1z M25,24h1v1h-1z M26,24h1v1h-1z M27,24h1v1h-1z M28,24h1v1h-1z M31,24h1v1h-1z M33,24h1v1h-1z M37,24h1v1h-1z M38,24h1v1h-1z M39,24h1v1h-1z M41,24h1v1h-1z M42,24h1v1h-1z M43,24h1v1h-1z M49,24h1v1h-1z M50,24h1v1h-1z M51,24h1v1h-1z M55,24h1v1h-1z M60,24h1v1h-1z M61,24h1v1h-1z M63,24h1v1h-1z M66,24h1v1h-1z M67,24h1v1h-1z M70,24h1v1h-1z M78,24h1v1h-1z M79,24h1v1h-1z M80,24h1v1h-1z M82,24h1v1h-1z M83,24h1v1h-1z M85,24h1v1h-1z M86,24h1v1h-1z M89,24h1v1h-1z M91,24h1v1h-1z M92,24h1v1h-1z M94,24h1v1h-1z M95,24h1v1h-1z M99,24h1v1h-1z M100,24h1v1h-1z M101,24h1v1h-1z M102,24h1v1h-1z M105,24h1v1h-1z M4,25h1v1h-1z M5,25h1v1h-1z M8,25h1v1h-1z M9,25h1v1h-1z M11,25h1v1h-1z M12,25h1v1h-1z M16,25h1v1h-1z M17,25h1v1h-1z M19,25h1v1h-1z M20,25h1v1h-1z M21,25h1v1h-1z M22,25h1v1h-1z M23,25h1v1h-1z M24,25h1v1h-1z M25,25h1v1h-1z M27,25h1v1h-1z M28,25h1v1h-1z M29,25h1v1h-1z M31,25h1v1h-1z M32,25h1v1h-1z M33,25h1v1h-1z M34,25h1v1h-1z M40,25h1v1h-1z M41,25h1v1h-1z M42,25h1v1h-1z M45,25h1v1h-1z M46,25h1v1h-1z M47,25h1v1h-1z M51,25h1v1h-1z M52,25h1v1h-1z M54,25h1v1h-1z M59,25h1v1h-1z M61,25h1v1h-1z M62,25h1v1h-1z M63,25h1v1h-1z M66,25h1v1h-1z M67,25h1v1h-1z M68,25h1v1h-1z M69,25h1v1h-1z M70,25h1v1h-1z M71,25h1v1h-1z M73,25h1v1h-1z M74,25h1v1h-1z M75,25h1v1h-1z M76,25h1v1h-1z M79,25h1v1h-1z M84,25h1v1h-1z M85,25h1v1h-1z M88,25h1v1h-1z M91,25h1v1h-1z M93,25h1v1h-1z M97,25h1v1h-1z M98,25h1v1h-1z M100,25h1v1h-1z M105,25h1v1h-1z M106,25h1v1h-1z M4,26h1v1h-1z M5,26h1v1h-1z M6,26h1v1h-1z M9,26h1v1h-1z M10,26h1v1h-1z M11,26h1v1h-1z M12,26h1v1h-1z M13,26h1v1h-1z M15,26h1v1h-1z M17,26h1v1h-1z M18,26h1v1h-1z M20,26h1v1h-1z M22,26h1v1h-1z M23,26h1v1h-1z M24,26h1v1h-1z M27,26h1v1h-1z M33,26h1v1h-1z M34,26h1v1h-1z M39,26h1v1h-1z M41,26h1v1h-1z M43,26h1v1h-1z M44,26h1v1h-1z M45,26h1v1h-1z M46,26h1v1h-1z M52,26h1v1h-1z M53,26h1v1h-1z M56,26h1v1h-1z M58,26h1v1h-1z M60,26h1v1h-1z M65,26h1v1h-1z M68,26h1v1h-1z M69,26h1v1h-1z M70,26h1v1h-1z M71,26h1v1h-1z M73,26h1v1h-1z M76,26h1v1h-1z M80,26h1v1h-1z M82,26h1v1h-1z M83,26h1v1h-1z M84,26h1v1h-1z M87,26h1v1h-1z M89,26h1v1h-1z M91,26h1v1h-1z M92,26h1v1h-1z M93,26h1v1h-1z M94,26h1v1h-1z M100,26h1v1h-1z M102,26h1v1h-1z M107,26h1v1h-1z M4,27h1v1h-1z M6,27h1v1h-1z M9,27h1v1h-1z M12,27h1v1h-1z M14,27h1v1h-1z M17,27h1v1h-1z M19,27h1v1h-1z M22,27h1v1h-1z M23,27h1v1h-1z M26,27h1v1h-1z M30,27h1v1h-1z M34,27h1v1h-1z M35,27h1v1h-1z M37,27h1v1h-1z M38,27h1v1h-1z M39,27h1v1h-1z M40,27h1v1h-1z M41,27h1v1h-1z M42,27h1v1h-1z M45,27h1v1h-1z M47,27h1v1h-1z M49,27h1v1h-1z M51,27h1v1h-1z M52,27h1v1h-1z M55,27h1v1h-1z M57,27h1v1h-1z M59,27h1v1h-1z M61,27h1v1h-1z M63,27h1v1h-1z M64,27h1v1h-1z M65,27h1v1h-1z M66,27h1v1h-1z M67,27h1v1h-1z M70,27h1v1h-1z M71,27h1v1h-1z M74,27h1v1h-1z M77,27h1v1h-1z M78,27h1v1h-1z M83,27h1v1h-1z M85,27h1v1h-1z M86,27h1v1h-1z M87,27h1v1h-1z M88,27h1v1h-1z M94,27h1v1h-1z M95,27h1v1h-1z M97,27h1v1h-1z M99,27h1v1h-1z M105,27h1v1h-1z M106,27h1v1h-1z M107,27h1v1h-1z M7,28h1v1h-1z M8,28h1v1h-1z M9,28h1v1h-1z M10,28h1v1h-1z M11,28h1v1h-1z M12,28h1v1h-1z M16,28h1v1h-1z M18,28h1v1h-1z M21,28h1v1h-1z M24,28h1v1h-1z M28,28h1v1h-1z M29,28h1v1h-1z M30,28h1v1h-1z M31,28h1v1h-1z M32,28h1v1h-1z M34,28h1v1h-1z M41,28h1v1h-1z M42,28h1v1h-1z M45,28h1v1h-1z M46,28h1v1h-1z M49,28h1v1h-1z M52,28h1v1h-1z M53,28h1v1h-1z M54,28h1v1h-1z M55,28h1v1h-1z M56,28h1v1h-1z M58,28h1v1h-1z M62,28h1v1h-1z M63,28h1v1h-1z M66,28h1v1h-1z M68,28h1v1h-1z M69,28h1v1h-1z M70,28h1v1h-1z M72,28h1v1h-1z M76,28h1v1h-1z M77,28h1v1h-1z M78,28h1v1h-1z M79,28h1v1h-1z M80,28h1v1h-1z M82,28h1v1h-1z M83,28h1v1h-1z M84,28h1v1h-1z M87,28h1v1h-1z M88,28h1v1h-1z M90,28h1v1h-1z M93,28h1v1h-1z M94,28h1v1h-1z M95,28h1v1h-1z M96,28h1v1h-1z M98,28h1v1h-1z M99,28h1v1h-1z M100,28h1v1h-1z M101,28h1v1h-1z M102,28h1v1h-1z M103,28h1v1h-1z M104,28h1v1h-1z M105,28h1v1h-1z M108,28h1v1h-1z M7,29h1v1h-1z M8,29h1v1h-1z M12,29h1v1h-1z M15,29h1v1h-1z M16,29h1v1h-1z M18,29h1v1h-1z M19,29h1v1h-1z M23,29h1v1h-1z M25,29h1v1h-1z M26,29h1v1h-1z M28,29h1v1h-1z M32,29h1v1h-1z M34,29h1v1h-1z M35,29h1v1h-1z M37,29h1v1h-1z M38,29h1v1h-1z M39,29h1v1h-1z M40,29h1v1h-1z M41,29h1v1h-1z M42,29h1v1h-1z M43,29h1v1h-1z M45,29h1v1h-1z M48,29h1v1h-1z M51,29h1v1h-1z M52,29h1v1h-1z M56,29h1v1h-1z M60,29h1v1h-1z M61,29h1v1h-1z M62,29h1v1h-1z M64,29h1v1h-1z M65,29h1v1h-1z M66,29h1v1h-1z M70,29h1v1h-1z M71,29h1v1h-1z M72,29h1v1h-1z M73,29h1v1h-1z M74,29h1v1h-1z M75,29h1v1h-1z M76,29h1v1h-1z M80,29h1v1h-1z M82,29h1v1h-1z M84,29h1v1h-1z M85,29h1v1h-1z M86,29h1v1h-1z M91,29h1v1h-1z M93,29h1v1h-1z M94,29h1v1h-1z M96,29h1v1h-1z M98,29h1v1h-1z M100,29h1v1h-1z M104,29h1v1h-1z M107,29h1v1h-1z M108,29h1v1h-1z M4,30h1v1h-1z M6,30h1v1h-1z M7,30h1v1h-1z M8,30h1v1h-1z M10,30h1v1h-1z M12,30h1v1h-1z M13,30h1v1h-1z M14,30h1v1h-1z M17,30h1v1h-1z M19,30h1v1h-1z M20,30h1v1h-1z M21,30h1v1h-1z M22,30h1v1h-1z M23,30h1v1h-1z M27,30h1v1h-1z M28,30h1v1h-1z M30,30h1v1h-1z M32,30h1v1h-1z M33,30h1v1h-1z M34,30h1v1h-1z M36,30h1v1h-1z M40,30h1v1h-1z M41,30h1v1h-1z M44,30h1v1h-1z M45,30h1v1h-1z M46,30h1v1h-1z M47,30h1v1h-1z M48,30h1v1h-1z M52,30h1v1h-1z M54,30h1v1h-1z M56,30h1v1h-1z M57,30h1v1h-1z M58,30h1v1h-1z M60,30h1v1h-1z M64,30h1v1h-1z M65,30h1v1h-1z M70,30h1v1h-1z M72,30h1v1h-1z M73,30h1v1h-1z M76,30h1v1h-1z M78,30h1v1h-1z M80,30h1v1h-1z M81,30h1v1h-1z M82,30h1v1h-1z M83,30h1v1h-1z M84,30h1v1h-1z M87,30h1v1h-1z M91,30h1v1h-1z M93,30h1v1h-1z M94,30h1v1h-1z M95,30h1v1h-1z M96,30h1v1h-1z M97,30h1v1h-1z M100,30h1v1h-1z M102,30h1v1h-1z M104,30h1v1h-1z M105,30h1v1h-1z M106,30h1v1h-1z M8,31h1v1h-1z M12,31h1v1h-1z M16,31h1v1h-1z M17,31h1v1h-1z M18,31h1v1h-1z M22,31h1v1h-1z M23,31h1v1h-1z M26,31h1v1h-1z M28,31h1v1h-1z M32,31h1v1h-1z M33,31h1v1h-1z M34,31h1v1h-1z M35,31h1v1h-1z M38,31h1v1h-1z M39,31h1v1h-1z M40,31h1v1h-1z M41,31h1v1h-1z M45,31h1v1h-1z M49,31h1v1h-1z M52,31h1v1h-1z M56,31h1v1h-1z M59,31h1v1h-1z M61,31h1v1h-1z M62,31h1v1h-1z M63,31h1v1h-1z M64,31h1v1h-1z M66,31h1v1h-1z M69,31h1v1h-1z M74,31h1v1h-1z M76,31h1v1h-1z M80,31h1v1h-1z M85,31h1v1h-1z M86,31h1v1h-1z M88,31h1v1h-1z M90,31h1v1h-1z M94,31h1v1h-1z M95,31h1v1h-1z M98,31h1v1h-1z M100,31h1v1h-1z M104,31h1v1h-1z M105,31h1v1h-1z M106,31h1v1h-1z M107,31h1v1h-1z M108,31h1v1h-1z M4,32h1v1h-1z M6,32h1v1h-1z M8,32h1v1h-1z M9,32h1v1h-1z M10,32h1v1h-1z M11,32h1v1h-1z M12,32h1v1h-1z M13,32h1v1h-1z M14,32h1v1h-1z M17,32h1v1h-1z M18,32h1v1h-1z M20,32h1v1h-1z M23,32h1v1h-1z M24,32h1v1h-1z M26,32h1v1h-1z M27,32h1v1h-1z M28,32h1v1h-1z M29,32h1v1h-1z M30,32h1v1h-1z M31,32h1v1h-1z M32,32h1v1h-1z M34,32h1v1h-1z M35,32h1v1h-1z M37,32h1v1h-1z M40,32h1v1h-1z M42,32h1v1h-1z M43,32h1v1h-1z M44,32h1v1h-1z M45,32h1v1h-1z M46,32h1v1h-1z M47,32h1v1h-1z M49,32h1v1h-1z M51,32h1v1h-1z M52,32h1v1h-1z M53,32h1v1h-1z M54,32h1v1h-1z M55,32h1v1h-1z M56,32h1v1h-1z M58,32h1v1h-1z M60,32h1v1h-1z M62,32h1v1h-1z M70,32h1v1h-1z M71,32h1v1h-1z M72,32h1v1h-1z M76,32h1v1h-1z M77,32h1v1h-1z M78,32h1v1h-1z M79,32h1v1h-1z M80,32h1v1h-1z M83,32h1v1h-1z M84,32h1v1h-1z M85,32h1v1h-1z M86,32h1v1h-1z M87,32h1v1h-1z M88,32h1v1h-1z M89,32h1v1h-1z M91,32h1v1h-1z M92,32h1v1h-1z M93,32h1v1h-1z M94,32h1v1h-1z M95,32h1v1h-1z M98,32h1v1h-1z M100,32h1v1h-1z M101,32h1v1h-1z M102,32h1v1h-1z M103,32h1v1h-1z M104,32h1v1h-1z M105,32h1v1h-1z M5,33h1v1h-1z M6,33h1v1h-1z M8,33h1v1h-1z M14,33h1v1h-1z M15,33h1v1h-1z M16,33h1v1h-1z M22,33h1v1h-1z M24,33h1v1h-1z M25,33h1v1h-1z M26,33h1v1h-1z M27,33h1v1h-1z M28,33h1v1h-1z M31,33h1v1h-1z M33,33h1v1h-1z M35,33h1v1h-1z M38,33h1v1h-1z M45,33h1v1h-1z M46,33h1v1h-1z M49,33h1v1h-1z M50,33h1v1h-1z M51,33h1v1h-1z M52,33h1v1h-1z M53,33h1v1h-1z M56,33h1v1h-1z M58,33h1v1h-1z M62,33h1v1h-1z M63,33h1v1h-1z M64,33h1v1h-1z M66,33h1v1h-1z M67,33h1v1h-1z M69,33h1v1h-1z M70,33h1v1h-1z M72,33h1v1h-1z M73,33h1v1h-1z M75,33h1v1h-1z M78,33h1v1h-1z M80,33h1v1h-1z M83,33h1v1h-1z M85,33h1v1h-1z M88,33h1v1h-1z M96,33h1v1h-1z M97,33h1v1h-1z M101,33h1v1h-1z M102,33h1v1h-1z M105,33h1v1h-1z M106,33h1v1h-1z M107,33h1v1h-1z M108,33h1v1h-1z M4,34h1v1h-1z M7,34h1v1h-1z M8,34h1v1h-1z M10,34h1v1h-1z M20,34h1v1h-1z M23,34h1v1h-1z M24,34h1v1h-1z M26,34h1v1h-1z M29,34h1v1h-1z M31,34h1v1h-1z M32,34h1v1h-1z M33,34h1v1h-1z M34,34h1v1h-1z M35,34h1v1h-1z M36,34h1v1h-1z M39,34h1v1h-1z M40,34h1v1h-1z M41,34h1v1h-1z M44,34h1v1h-1z M46,34h1v1h-1z M51,34h1v1h-1z M52,34h1v1h-1z M54,34h1v1h-1z M56,34h1v1h-1z M57,34h1v1h-1z M58,34h1v1h-1z M60,34h1v1h-1z M67,34h1v1h-1z M68,34h1v1h-1z M69,34h1v1h-1z M70,34h1v1h-1z M71,34h1v1h-1z M72,34h1v1h-1z M73,34h1v1h-1z M77,34h1v1h-1z M80,34h1v1h-1z M81,34h1v1h-1z M82,34h1v1h-1z M84,34h1v1h-1z M87,34h1v1h-1z M92,34h1v1h-1z M93,34h1v1h-1z M94,34h1v1h-1z M96,34h1v1h-1z M99,34h1v1h-1z M103,34h1v1h-1z M104,34h1v1h-1z M106,34h1v1h-1z M5,35h1v1h-1z M6,35h1v1h-1z M8,35h1v1h-1z M9,35h1v1h-1z M11,35h1v1h-1z M12,35h1v1h-1z M13,35h1v1h-1z M14,35h1v1h-1z M15,35h1v1h-1z M16,35h1v1h-1z M21,35h1v1h-1z M23,35h1v1h-1z M24,35h1v1h-1z M25,35h1v1h-1z M29,35h1v1h-1z M31,35h1v1h-1z M35,35h1v1h-1z M37,35h1v1h-1z M39,35h1v1h-1z M40,35h1v1h-1z M42,35h1v1h-1z M45,35h1v1h-1z M47,35h1v1h-1z M53,35h1v1h-1z M56,35h1v1h-1z M57,35h1v1h-1z M59,35h1v1h-1z M63,35h1v1h-1z M64,35h1v1h-1z M65,35h1v1h-1z M66,35h1v1h-1z M67,35h1v1h-1z M69,35h1v1h-1z M71,35h1v1h-1z M74,35h1v1h-1z M75,35h1v1h-1z M77,35h1v1h-1z M79,35h1v1h-1z M80,35h1v1h-1z M82,35h1v1h-1z M86,35h1v1h-1z M87,35h1v1h-1z M88,35h1v1h-1z M89,35h1v1h-1z M90,35h1v1h-1z M93,35h1v1h-1z M94,35h1v1h-1z M95,35h1v1h-1z M98,35h1v1h-1z M101,35h1v1h-1z M105,35h1v1h-1z M106,35h1v1h-1z M108,35h1v1h-1z M4,36h1v1h-1z M7,36h1v1h-1z M10,36h1v1h-1z M11,36h1v1h-1z M13,36h1v1h-1z M19,36h1v1h-1z M24,36h1v1h-1z M25,36h1v1h-1z M29,36h1v1h-1z M30,36h1v1h-1z M33,36h1v1h-1z M34,36h1v1h-1z M38,36h1v1h-1z M40,36h1v1h-1z M41,36h1v1h-1z M43,36h1v1h-1z M44,36h1v1h-1z M46,36h1v1h-1z M47,36h1v1h-1z M48,36h1v1h-1z M49,36h1v1h-1z M50,36h1v1h-1z M52,36h1v1h-1z M54,36h1v1h-1z M57,36h1v1h-1z M58,36h1v1h-1z M60,36h1v1h-1z M61,36h1v1h-1z M62,36h1v1h-1z M70,36h1v1h-1z M72,36h1v1h-1z M73,36h1v1h-1z M85,36h1v1h-1z M86,36h1v1h-1z M88,36h1v1h-1z M90,36h1v1h-1z M92,36h1v1h-1z M94,36h1v1h-1z M95,36h1v1h-1z M101,36h1v1h-1z M103,36h1v1h-1z M104,36h1v1h-1z M105,36h1v1h-1z M106,36h1v1h-1z M108,36h1v1h-1z M7,37h1v1h-1z M8,37h1v1h-1z M12,37h1v1h-1z M13,37h1v1h-1z M20,37h1v1h-1z M24,37h1v1h-1z M28,37h1v1h-1z M29,37h1v1h-1z M32,37h1v1h-1z M34,37h1v1h-1z M35,37h1v1h-1z M37,37h1v1h-1z M38,37h1v1h-1z M39,37h1v1h-1z M40,37h1v1h-1z M41,37h1v1h-1z M42,37h1v1h-1z M43,37h1v1h-1z M46,37h1v1h-1z M49,37h1v1h-1z M52,37h1v1h-1z M54,37h1v1h-1z M58,37h1v1h-1z M59,37h1v1h-1z M62,37h1v1h-1z M63,37h1v1h-1z M68,37h1v1h-1z M70,37h1v1h-1z M73,37h1v1h-1z M74,37h1v1h-1z M75,37h1v1h-1z M76,37h1v1h-1z M78,37h1v1h-1z M79,37h1v1h-1z M80,37h1v1h-1z M81,37h1v1h-1z M87,37h1v1h-1z M88,37h1v1h-1z M89,37h1v1h-1z M90,37h1v1h-1z M93,37h1v1h-1z M94,37h1v1h-1z M96,37h1v1h-1z M97,37h1v1h-1z M98,37h1v1h-1z M102,37h1v1h-1z M106,37h1v1h-1z M107,37h1v1h-1z M108,37h1v1h-1z M4,38h1v1h-1z M6,38h1v1h-1z M9,38h1v1h-1z M10,38h1v1h-1z M12,38h1v1h-1z M19,38h1v1h-1z M21,38h1v1h-1z M22,38h1v1h-1z M23,38h1v1h-1z M24,38h1v1h-1z M25,38h1v1h-1z M28,38h1v1h-1z M30,38h1v1h-1z M33,38h1v1h-1z M34,38h1v1h-1z M36,38h1v1h-1z M37,38h1v1h-1z M39,38h1v1h-1z M41,38h1v1h-1z M44,38h1v1h-1z M46,38h1v1h-1z M47,38h1v1h-1z M48,38h1v1h-1z M49,38h1v1h-1z M51,38h1v1h-1z M53,38h1v1h-1z M54,38h1v1h-1z M57,38h1v1h-1z M58,38h1v1h-1z M63,38h1v1h-1z M69,38h1v1h-1z M70,38h1v1h-1z M71,38h1v1h-1z M72,38h1v1h-1z M75,38h1v1h-1z M77,38h1v1h-1z M81,38h1v1h-1z M82,38h1v1h-1z M83,38h1v1h-1z M87,38h1v1h-1z M89,38h1v1h-1z M92,38h1v1h-1z M93,38h1v1h-1z M94,38h1v1h-1z M95,38h1v1h-1z M96,38h1v1h-1z M99,38h1v1h-1z M101,38h1v1h-1z M103,38h1v1h-1z M107,38h1v1h-1z M4,39h1v1h-1z M5,39h1v1h-1z M6,39h1v1h-1z M8,39h1v1h-1z M14,39h1v1h-1z M15,39h1v1h-1z M16,39h1v1h-1z M18,39h1v1h-1z M20,39h1v1h-1z M23,39h1v1h-1z M24,39h1v1h-1z M25,39h1v1h-1z M27,39h1v1h-1z M29,39h1v1h-1z M32,39h1v1h-1z M33,39h1v1h-1z M34,39h1v1h-1z M35,39h1v1h-1z M38,39h1v1h-1z M40,39h1v1h-1z M41,39h1v1h-1z M42,39h1v1h-1z M43,39h1v1h-1z M45,39h1v1h-1z M50,39h1v1h-1z M51,39h1v1h-1z M55,39h1v1h-1z M58,39h1v1h-1z M59,39h1v1h-1z M64,39h1v1h-1z M66,39h1v1h-1z M69,39h1v1h-1z M71,39h1v1h-1z M73,39h1v1h-1z M77,39h1v1h-1z M83,39h1v1h-1z M85,39h1v1h-1z M88,39h1v1h-1z M91,39h1v1h-1z M100,39h1v1h-1z M105,39h1v1h-1z M106,39h1v1h-1z M4,40h1v1h-1z M5,40h1v1h-1z M7,40h1v1h-1z M9,40h1v1h-1z M10,40h1v1h-1z M11,40h1v1h-1z M13,40h1v1h-1z M14,40h1v1h-1z M17,40h1v1h-1z M22,40h1v1h-1z M23,40h1v1h-1z M26,40h1v1h-1z M29,40h1v1h-1z M30,40h1v1h-1z M34,40h1v1h-1z M39,40h1v1h-1z M41,40h1v1h-1z M42,40h1v1h-1z M43,40h1v1h-1z M45,40h1v1h-1z M46,40h1v1h-1z M47,40h1v1h-1z M53,40h1v1h-1z M54,40h1v1h-1z M58,40h1v1h-1z M60,40h1v1h-1z M62,40h1v1h-1z M63,40h1v1h-1z M68,40h1v1h-1z M70,40h1v1h-1z M74,40h1v1h-1z M78,40h1v1h-1z M81,40h1v1h-1z M83,40h1v1h-1z M84,40h1v1h-1z M85,40h1v1h-1z M88,40h1v1h-1z M89,40h1v1h-1z M90,40h1v1h-1z M91,40h1v1h-1z M92,40h1v1h-1z M94,40h1v1h-1z M101,40h1v1h-1z M104,40h1v1h-1z M105,40h1v1h-1z M107,40h1v1h-1z M4,41h1v1h-1z M7,41h1v1h-1z M11,41h1v1h-1z M14,41h1v1h-1z M17,41h1v1h-1z M18,41h1v1h-1z M21,41h1v1h-1z M22,41h1v1h-1z M26,41h1v1h-1z M28,41h1v1h-1z M31,41h1v1h-1z M34,41h1v1h-1z M39,41h1v1h-1z M40,41h1v1h-1z M41,41h1v1h-1z M43,41h1v1h-1z M45,41h1v1h-1z M46,41h1v1h-1z M49,41h1v1h-1z M52,41h1v1h-1z M57,41h1v1h-1z M58,41h1v1h-1z M59,41h1v1h-1z M62,41h1v1h-1z M64,41h1v1h-1z M65,41h1v1h-1z M66,41h1v1h-1z M67,41h1v1h-1z M69,41h1v1h-1z M70,41h1v1h-1z M72,41h1v1h-1z M73,41h1v1h-1z M74,41h1v1h-1z M75,41h1v1h-1z M77,41h1v1h-1z M80,41h1v1h-1z M83,41h1v1h-1z M85,41h1v1h-1z M86,41h1v1h-1z M88,41h1v1h-1z M90,41h1v1h-1z M91,41h1v1h-1z M94,41h1v1h-1z M97,41h1v1h-1z M106,41h1v1h-1z M107,41h1v1h-1z M4,42h1v1h-1z M5,42h1v1h-1z M8,42h1v1h-1z M9,42h1v1h-1z M10,42h1v1h-1z M17,42h1v1h-1z M18,42h1v1h-1z M20,42h1v1h-1z M24,42h1v1h-1z M26,42h1v1h-1z M27,42h1v1h-1z M28,42h1v1h-1z M30,42h1v1h-1z M31,42h1v1h-1z M33,42h1v1h-1z M34,42h1v1h-1z M35,42h1v1h-1z M36,42h1v1h-1z M41,42h1v1h-1z M43,42h1v1h-1z M45,42h1v1h-1z M46,42h1v1h-1z M47,42h1v1h-1z M52,42h1v1h-1z M53,42h1v1h-1z M55,42h1v1h-1z M56,42h1v1h-1z M57,42h1v1h-1z M58,42h1v1h-1z M59,42h1v1h-1z M61,42h1v1h-1z M63,42h1v1h-1z M65,42h1v1h-1z M68,42h1v1h-1z M69,42h1v1h-1z M70,42h1v1h-1z M72,42h1v1h-1z M76,42h1v1h-1z M77,42h1v1h-1z M79,42h1v1h-1z M80,42h1v1h-1z M81,42h1v1h-1z M82,42h1v1h-1z M87,42h1v1h-1z M89,42h1v1h-1z M91,42h1v1h-1z M93,42h1v1h-1z M94,42h1v1h-1z M95,42h1v1h-1z M103,42h1v1h-1z M104,42h1v1h-1z M105,42h1v1h-1z M106,42h1v1h-1z M107,42h1v1h-1z M4,43h1v1h-1z M6,43h1v1h-1z M7,43h1v1h-1z M9,43h1v1h-1z M12,43h1v1h-1z M14,43h1v1h-1z M21,43h1v1h-1z M22,43h1v1h-1z M24,43h1v1h-1z M26,43h1v1h-1z M27,43h1v1h-1z M29,43h1v1h-1z M31,43h1v1h-1z M32,43h1v1h-1z M37,43h1v1h-1z M38,43h1v1h-1z M39,43h1v1h-1z M40,43h1v1h-1z M41,43h1v1h-1z M46,43h1v1h-1z M47,43h1v1h-1z M49,43h1v1h-1z M51,43h1v1h-1z M55,43h1v1h-1z M56,43h1v1h-1z M58,43h1v1h-1z M59,43h1v1h-1z M62,43h1v1h-1z M63,43h1v1h-1z M64,43h1v1h-1z M67,43h1v1h-1z M71,43h1v1h-1z M73,43h1v1h-1z M74,43h1v1h-1z M75,43h1v1h-1z M80,43h1v1h-1z M81,43h1v1h-1z M83,43h1v1h-1z M86,43h1v1h-1z M87,43h1v1h-1z M88,43h1v1h-1z M89,43h1v1h-1z M90,43h1v1h-1z M93,43h1v1h-1z M95,43h1v1h-1z M97,43h1v1h-1z M98,43h1v1h-1z M100,43h1v1h-1z M105,43h1v1h-1z M106,43h1v1h-1z M107,43h1v1h-1z M108,43h1v1h-1z M4,44h1v1h-1z M8,44h1v1h-1z M9,44h1v1h-1z M10,44h1v1h-1z M11,44h1v1h-1z M12,44h1v1h-1z M15,44h1v1h-1z M18,44h1v1h-1z M22,44h1v1h-1z M23,44h1v1h-1z M25,44h1v1h-1z M26,44h1v1h-1z M29,44h1v1h-1z M30,44h1v1h-1z M33,44h1v1h-1z M34,44h1v1h-1z M36,44h1v1h-1z M37,44h1v1h-1z M39,44h1v1h-1z M40,44h1v1h-1z M42,44h1v1h-1z M44,44h1v1h-1z M45,44h1v1h-1z M46,44h1v1h-1z M47,44h1v1h-1z M52,44h1v1h-1z M53,44h1v1h-1z M54,44h1v1h-1z M59,44h1v1h-1z M60,44h1v1h-1z M66,44h1v1h-1z M68,44h1v1h-1z M70,44h1v1h-1z M72,44h1v1h-1z M76,44h1v1h-1z M77,44h1v1h-1z M78,44h1v1h-1z M81,44h1v1h-1z M84,44h1v1h-1z M85,44h1v1h-1z M86,44h1v1h-1z M87,44h1v1h-1z M88,44h1v1h-1z M90,44h1v1h-1z M91,44h1v1h-1z M92,44h1v1h-1z M93,44h1v1h-1z M94,44h1v1h-1z M95,44h1v1h-1z M96,44h1v1h-1z M97,44h1v1h-1z M98,44h1v1h-1z M101,44h1v1h-1z M103,44h1v1h-1z M104,44h1v1h-1z M105,44h1v1h-1z M106,44h1v1h-1z M7,45h1v1h-1z M11,45h1v1h-1z M16,45h1v1h-1z M17,45h1v1h-1z M18,45h1v1h-1z M20,45h1v1h-1z M23,45h1v1h-1z M27,45h1v1h-1z M29,45h1v1h-1z M30,45h1v1h-1z M32,45h1v1h-1z M33,45h1v1h-1z M35,45h1v1h-1z M37,45h1v1h-1z M38,45h1v1h-1z M40,45h1v1h-1z M48,45h1v1h-1z M50,45h1v1h-1z M51,45h1v1h-1z M53,45h1v1h-1z M55,45h1v1h-1z M62,45h1v1h-1z M63,45h1v1h-1z M65,45h1v1h-1z M66,45h1v1h-1z M67,45h1v1h-1z M68,45h1v1h-1z M69,45h1v1h-1z M70,45h1v1h-1z M71,45h1v1h-1z M72,45h1v1h-1z M74,45h1v1h-1z M76,45h1v1h-1z M79,45h1v1h-1z M81,45h1v1h-1z M82,45h1v1h-1z M83,45h1v1h-1z M86,45h1v1h-1z M88,45h1v1h-1z M89,45h1v1h-1z M91,45h1v1h-1z M92,45h1v1h-1z M95,45h1v1h-1z M101,45h1v1h-1z M102,45h1v1h-1z M106,45h1v1h-1z M108,45h1v1h-1z M5,46h1v1h-1z M6,46h1v1h-1z M8,46h1v1h-1z M9,46h1v1h-1z M10,46h1v1h-1z M12,46h1v1h-1z M13,46h1v1h-1z M14,46h1v1h-1z M15,46h1v1h-1z M17,46h1v1h-1z M19,46h1v1h-1z M24,46h1v1h-1z M27,46h1v1h-1z M29,46h1v1h-1z M30,46h1v1h-1z M32,46h1v1h-1z M33,46h1v1h-1z M34,46h1v1h-1z M35,46h1v1h-1z M36,46h1v1h-1z M40,46h1v1h-1z M41,46h1v1h-1z M44,46h1v1h-1z M45,46h1v1h-1z M46,46h1v1h-1z M52,46h1v1h-1z M54,46h1v1h-1z M55,46h1v1h-1z M56,46h1v1h-1z M57,46h1v1h-1z M58,46h1v1h-1z M60,46h1v1h-1z M64,46h1v1h-1z M67,46h1v1h-1z M69,46h1v1h-1z M70,46h1v1h-1z M75,46h1v1h-1z M76,46h1v1h-1z M79,46h1v1h-1z M80,46h1v1h-1z M81,46h1v1h-1z M82,46h1v1h-1z M87,46h1v1h-1z M88,46h1v1h-1z M91,46h1v1h-1z M93,46h1v1h-1z M94,46h1v1h-1z M95,46h1v1h-1z M99,46h1v1h-1z M100,46h1v1h-1z M101,46h1v1h-1z M103,46h1v1h-1z M105,46h1v1h-1z M106,46h1v1h-1z M107,46h1v1h-1z M6,47h1v1h-1z M7,47h1v1h-1z M8,47h1v1h-1z M11,47h1v1h-1z M13,47h1v1h-1z M16,47h1v1h-1z M19,47h1v1h-1z M20,47h1v1h-1z M21,47h1v1h-1z M22,47h1v1h-1z M23,47h1v1h-1z M24,47h1v1h-1z M25,47h1v1h-1z M27,47h1v1h-1z M28,47h1v1h-1z M29,47h1v1h-1z M32,47h1v1h-1z M33,47h1v1h-1z M35,47h1v1h-1z M37,47h1v1h-1z M38,47h1v1h-1z M39,47h1v1h-1z M40,47h1v1h-1z M43,47h1v1h-1z M45,47h1v1h-1z M47,47h1v1h-1z M49,47h1v1h-1z M50,47h1v1h-1z M53,47h1v1h-1z M55,47h1v1h-1z M56,47h1v1h-1z M58,47h1v1h-1z M59,47h1v1h-1z M63,47h1v1h-1z M64,47h1v1h-1z M65,47h1v1h-1z M66,47h1v1h-1z M69,47h1v1h-1z M71,47h1v1h-1z M80,47h1v1h-1z M82,47h1v1h-1z M83,47h1v1h-1z M85,47h1v1h-1z M87,47h1v1h-1z M88,47h1v1h-1z M90,47h1v1h-1z M94,47h1v1h-1z M95,47h1v1h-1z M97,47h1v1h-1z M98,47h1v1h-1z M102,47h1v1h-1z M105,47h1v1h-1z M106,47h1v1h-1z M108,47h1v1h-1z M7,48h1v1h-1z M8,48h1v1h-1z M9,48h1v1h-1z M10,48h1v1h-1z M11,48h1v1h-1z M13,48h1v1h-1z M17,48h1v1h-1z M20,48h1v1h-1z M21,48h1v1h-1z M22,48h1v1h-1z M23,48h1v1h-1z M25,48h1v1h-1z M30,48h1v1h-1z M31,48h1v1h-1z M33,48h1v1h-1z M34,48h1v1h-1z M36,48h1v1h-1z M37,48h1v1h-1z M39,48h1v1h-1z M40,48h1v1h-1z M41,48h1v1h-1z M42,48h1v1h-1z M54,48h1v1h-1z M58,48h1v1h-1z M67,48h1v1h-1z M77,48h1v1h-1z M78,48h1v1h-1z M79,48h1v1h-1z M82,48h1v1h-1z M84,48h1v1h-1z M85,48h1v1h-1z M87,48h1v1h-1z M88,48h1v1h-1z M89,48h1v1h-1z M101,48h1v1h-1z M106,48h1v1h-1z M4,49h1v1h-1z M5,49h1v1h-1z M7,49h1v1h-1z M11,49h1v1h-1z M12,49h1v1h-1z M13,49h1v1h-1z M14,49h1v1h-1z M15,49h1v1h-1z M16,49h1v1h-1z M21,49h1v1h-1z M22,49h1v1h-1z M25,49h1v1h-1z M27,49h1v1h-1z M28,49h1v1h-1z M29,49h1v1h-1z M32,49h1v1h-1z M34,49h1v1h-1z M35,49h1v1h-1z M39,49h1v1h-1z M40,49h1v1h-1z M41,49h1v1h-1z M42,49h1v1h-1z M48,49h1v1h-1z M49,49h1v1h-1z M50,49h1v1h-1z M52,49h1v1h-1z M59,49h1v1h-1z M63,49h1v1h-1z M64,49h1v1h-1z M65,49h1v1h-1z M67,49h1v1h-1z M69,49h1v1h-1z M72,49h1v1h-1z M73,49h1v1h-1z M74,49h1v1h-1z M75,49h1v1h-1z M76,49h1v1h-1z M78,49h1v1h-1z M81,49h1v1h-1z M83,49h1v1h-1z M86,49h1v1h-1z M88,49h1v1h-1z M89,49h1v1h-1z M92,49h1v1h-1z M93,49h1v1h-1z M97,49h1v1h-1z M98,49h1v1h-1z M101,49h1v1h-1z M103,49h1v1h-1z M106,49h1v1h-1z M4,50h1v1h-1z M6,50h1v1h-1z M7,50h1v1h-1z M9,50h1v1h-1z M10,50h1v1h-1z M11,50h1v1h-1z M12,50h1v1h-1z M15,50h1v1h-1z M17,50h1v1h-1z M18,50h1v1h-1z M19,50h1v1h-1z M20,50h1v1h-1z M21,50h1v1h-1z M22,50h1v1h-1z M25,50h1v1h-1z M28,50h1v1h-1z M33,50h1v1h-1z M34,50h1v1h-1z M35,50h1v1h-1z M36,50h1v1h-1z M39,50h1v1h-1z M41,50h1v1h-1z M45,50h1v1h-1z M46,50h1v1h-1z M51,50h1v1h-1z M56,50h1v1h-1z M57,50h1v1h-1z M58,50h1v1h-1z M59,50h1v1h-1z M63,50h1v1h-1z M65,50h1v1h-1z M67,50h1v1h-1z M70,50h1v1h-1z M71,50h1v1h-1z M72,50h1v1h-1z M77,50h1v1h-1z M79,50h1v1h-1z M81,50h1v1h-1z M82,50h1v1h-1z M84,50h1v1h-1z M85,50h1v1h-1z M88,50h1v1h-1z M89,50h1v1h-1z M91,50h1v1h-1z M94,50h1v1h-1z M96,50h1v1h-1z M97,50h1v1h-1z M104,50h1v1h-1z M105,50h1v1h-1z M107,50h1v1h-1z M4,51h1v1h-1z M5,51h1v1h-1z M6,51h1v1h-1z M7,51h1v1h-1z M8,51h1v1h-1z M16,51h1v1h-1z M17,51h1v1h-1z M18,51h1v1h-1z M19,51h1v1h-1z M20,51h1v1h-1z M22,51h1v1h-1z M23,51h1v1h-1z M24,51h1v1h-1z M25,51h1v1h-1z M26,51h1v1h-1z M27,51h1v1h-1z M32,51h1v1h-1z M37,51h1v1h-1z M38,51h1v1h-1z M39,51h1v1h-1z M40,51h1v1h-1z M42,51h1v1h-1z M46,51h1v1h-1z M47,51h1v1h-1z M49,51h1v1h-1z M51,51h1v1h-1z M52,51h1v1h-1z M53,51h1v1h-1z M56,51h1v1h-1z M57,51h1v1h-1z M58,51h1v1h-1z M59,51h1v1h-1z M62,51h1v1h-1z M64,51h1v1h-1z M65,51h1v1h-1z M71,51h1v1h-1z M75,51h1v1h-1z M76,51h1v1h-1z M77,51h1v1h-1z M80,51h1v1h-1z M81,51h1v1h-1z M82,51h1v1h-1z M83,51h1v1h-1z M86,51h1v1h-1z M87,51h1v1h-1z M88,51h1v1h-1z M93,51h1v1h-1z M95,51h1v1h-1z M98,51h1v1h-1z M100,51h1v1h-1z M102,51h1v1h-1z M103,51h1v1h-1z M105,51h1v1h-1z M106,51h1v1h-1z M107,51h1v1h-1z M4,52h1v1h-1z M5,52h1v1h-1z M6,52h1v1h-1z M7,52h1v1h-1z M8,52h1v1h-1z M9,52h1v1h-1z M10,52h1v1h-1z M11,52h1v1h-1z M12,52h1v1h-1z M13,52h1v1h-1z M15,52h1v1h-1z M16,52h1v1h-1z M17,52h1v1h-1z M18,52h1v1h-1z M22,52h1v1h-1z M24,52h1v1h-1z M25,52h1v1h-1z M26,52h1v1h-1z M28,52h1v1h-1z M29,52h1v1h-1z M30,52h1v1h-1z M31,52h1v1h-1z M32,52h1v1h-1z M33,52h1v1h-1z M34,52h1v1h-1z M35,52h1v1h-1z M40,52h1v1h-1z M41,52h1v1h-1z M45,52h1v1h-1z M46,52h1v1h-1z M48,52h1v1h-1z M49,52h1v1h-1z M52,52h1v1h-1z M53,52h1v1h-1z M54,52h1v1h-1z M55,52h1v1h-1z M56,52h1v1h-1z M57,52h1v1h-1z M58,52h1v1h-1z M60,52h1v1h-1z M61,52h1v1h-1z M62,52h1v1h-1z M63,52h1v1h-1z M67,52h1v1h-1z M68,52h1v1h-1z M70,52h1v1h-1z M72,52h1v1h-1z M76,52h1v1h-1z M77,52h1v1h-1z M78,52h1v1h-1z M79,52h1v1h-1z M80,52h1v1h-1z M82,52h1v1h-1z M84,52h1v1h-1z M85,52h1v1h-1z M91,52h1v1h-1z M94,52h1v1h-1z M95,52h1v1h-1z M97,52h1v1h-1z M100,52h1v1h-1z M101,52h1v1h-1z M102,52h1v1h-1z M103,52h1v1h-1z M104,52h1v1h-1z M105,52h1v1h-1z M106,52h1v1h-1z M108,52h1v1h-1z M4,53h1v1h-1z M7,53h1v1h-1z M8,53h1v1h-1z M12,53h1v1h-1z M13,53h1v1h-1z M15,53h1v1h-1z M16,53h1v1h-1z M18,53h1v1h-1z M19,53h1v1h-1z M22,53h1v1h-1z M24,53h1v1h-1z M25,53h1v1h-1z M26,53h1v1h-1z M27,53h1v1h-1z M28,53h1v1h-1z M32,53h1v1h-1z M33,53h1v1h-1z M34,53h1v1h-1z M37,53h1v1h-1z M39,53h1v1h-1z M40,53h1v1h-1z M42,53h1v1h-1z M43,53h1v1h-1z M50,53h1v1h-1z M51,53h1v1h-1z M52,53h1v1h-1z M56,53h1v1h-1z M60,53h1v1h-1z M62,53h1v1h-1z M63,53h1v1h-1z M64,53h1v1h-1z M67,53h1v1h-1z M71,53h1v1h-1z M72,53h1v1h-1z M74,53h1v1h-1z M75,53h1v1h-1z M76,53h1v1h-1z M80,53h1v1h-1z M81,53h1v1h-1z M82,53h1v1h-1z M85,53h1v1h-1z M86,53h1v1h-1z M87,53h1v1h-1z M89,53h1v1h-1z M91,53h1v1h-1z M93,53h1v1h-1z M100,53h1v1h-1z M104,53h1v1h-1z M106,53h1v1h-1z M108,53h1v1h-1z M5,54h1v1h-1z M8,54h1v1h-1z M10,54h1v1h-1z M12,54h1v1h-1z M13,54h1v1h-1z M14,54h1v1h-1z M16,54h1v1h-1z M18,54h1v1h-1z M21,54h1v1h-1z M22,54h1v1h-1z M24,54h1v1h-1z M27,54h1v1h-1z M28,54h1v1h-1z M30,54h1v1h-1z M32,54h1v1h-1z M33,54h1v1h-1z M34,54h1v1h-1z M35,54h1v1h-1z M36,54h1v1h-1z M37,54h1v1h-1z M39,54h1v1h-1z M40,54h1v1h-1z M41,54h1v1h-1z M44,54h1v1h-1z M45,54h1v1h-1z M46,54h1v1h-1z M47,54h1v1h-1z M48,54h1v1h-1z M52,54h1v1h-1z M54,54h1v1h-1z M56,54h1v1h-1z M57,54h1v1h-1z M58,54h1v1h-1z M59,54h1v1h-1z M65,54h1v1h-1z M67,54h1v1h-1z M69,54h1v1h-1z M70,54h1v1h-1z M72,54h1v1h-1z M75,54h1v1h-1z M76,54h1v1h-1z M78,54h1v1h-1z M80,54h1v1h-1z M82,54h1v1h-1z M83,54h1v1h-1z M84,54h1v1h-1z M88,54h1v1h-1z M92,54h1v1h-1z M94,54h1v1h-1z M96,54h1v1h-1z M97,54h1v1h-1z M99,54h1v1h-1z M100,54h1v1h-1z M102,54h1v1h-1z M104,54h1v1h-1z M105,54h1v1h-1z M107,54h1v1h-1z M6,55h1v1h-1z M7,55h1v1h-1z M8,55h1v1h-1z M12,55h1v1h-1z M14,55h1v1h-1z M18,55h1v1h-1z M19,55h1v1h-1z M20,55h1v1h-1z M21,55h1v1h-1z M22,55h1v1h-1z M23,55h1v1h-1z M24,55h1v1h-1z M27,55h1v1h-1z M28,55h1v1h-1z M32,55h1v1h-1z M33,55h1v1h-1z M34,55h1v1h-1z M38,55h1v1h-1z M39,55h1v1h-1z M40,55h1v1h-1z M43,55h1v1h-1z M46,55h1v1h-1z M50,55h1v1h-1z M51,55h1v1h-1z M52,55h1v1h-1z M56,55h1v1h-1z M57,55h1v1h-1z M58,55h1v1h-1z M59,55h1v1h-1z M61,55h1v1h-1z M62,55h1v1h-1z M63,55h1v1h-1z M64,55h1v1h-1z M66,55h1v1h-1z M69,55h1v1h-1z M73,55h1v1h-1z M75,55h1v1h-1z M76,55h1v1h-1z M80,55h1v1h-1z M81,55h1v1h-1z M83,55h1v1h-1z M87,55h1v1h-1z M88,55h1v1h-1z M89,55h1v1h-1z M90,55h1v1h-1z M91,55h1v1h-1z M93,55h1v1h-1z M95,55h1v1h-1z M98,55h1v1h-1z M99,55h1v1h-1z M100,55h1v1h-1z M104,55h1v1h-1z M105,55h1v1h-1z M106,55h1v1h-1z M5,56h1v1h-1z M7,56h1v1h-1z M8,56h1v1h-1z M9,56h1v1h-1z M10,56h1v1h-1z M11,56h1v1h-1z M12,56h1v1h-1z M13,56h1v1h-1z M15,56h1v1h-1z M17,56h1v1h-1z M18,56h1v1h-1z M19,56h1v1h-1z M23,56h1v1h-1z M26,56h1v1h-1z M28,56h1v1h-1z M29,56h1v1h-1z M30,56h1v1h-1z M31,56h1v1h-1z M32,56h1v1h-1z M39,56h1v1h-1z M40,56h1v1h-1z M42,56h1v1h-1z M43,56h1v1h-1z M44,56h1v1h-1z M46,56h1v1h-1z M47,56h1v1h-1z M48,56h1v1h-1z M49,56h1v1h-1z M50,56h1v1h-1z M52,56h1v1h-1z M53,56h1v1h-1z M54,56h1v1h-1z M55,56h1v1h-1z M56,56h1v1h-1z M61,56h1v1h-1z M62,56h1v1h-1z M64,56h1v1h-1z M65,56h1v1h-1z M69,56h1v1h-1z M70,56h1v1h-1z M71,56h1v1h-1z M72,56h1v1h-1z M73,56h1v1h-1z M74,56h1v1h-1z M75,56h1v1h-1z M76,56h1v1h-1z M77,56h1v1h-1z M78,56h1v1h-1z M79,56h1v1h-1z M80,56h1v1h-1z M83,56h1v1h-1z M86,56h1v1h-1z M88,56h1v1h-1z M91,56h1v1h-1z M93,56h1v1h-1z M94,56h1v1h-1z M98,56h1v1h-1z M99,56h1v1h-1z M100,56h1v1h-1z M101,56h1v1h-1z M102,56h1v1h-1z M103,56h1v1h-1z M104,56h1v1h-1z M107,56h1v1h-1z M108,56h1v1h-1z M4,57h1v1h-1z M8,57h1v1h-1z M13,57h1v1h-1z M14,57h1v1h-1z M16,57h1v1h-1z M18,57h1v1h-1z M19,57h1v1h-1z M20,57h1v1h-1z M22,57h1v1h-1z M24,57h1v1h-1z M25,57h1v1h-1z M26,57h1v1h-1z M29,57h1v1h-1z M30,57h1v1h-1z M31,57h1v1h-1z M33,57h1v1h-1z M34,57h1v1h-1z M35,57h1v1h-1z M38,57h1v1h-1z M40,57h1v1h-1z M41,57h1v1h-1z M42,57h1v1h-1z M45,57h1v1h-1z M46,57h1v1h-1z M47,57h1v1h-1z M49,57h1v1h-1z M51,57h1v1h-1z M52,57h1v1h-1z M54,57h1v1h-1z M55,57h1v1h-1z M58,57h1v1h-1z M59,57h1v1h-1z M61,57h1v1h-1z M62,57h1v1h-1z M63,57h1v1h-1z M65,57h1v1h-1z M67,57h1v1h-1z M69,57h1v1h-1z M70,57h1v1h-1z M72,57h1v1h-1z M74,57h1v1h-1z M75,57h1v1h-1z M79,57h1v1h-1z M82,57h1v1h-1z M83,57h1v1h-1z M85,57h1v1h-1z M87,57h1v1h-1z M88,57h1v1h-1z M89,57h1v1h-1z M90,57h1v1h-1z M91,57h1v1h-1z M93,57h1v1h-1z M97,57h1v1h-1z M98,57h1v1h-1z M99,57h1v1h-1z M100,57h1v1h-1z M101,57h1v1h-1z M103,57h1v1h-1z M104,57h1v1h-1z M105,57h1v1h-1z M106,57h1v1h-1z M107,57h1v1h-1z M108,57h1v1h-1z M4,58h1v1h-1z M5,58h1v1h-1z M9,58h1v1h-1z M10,58h1v1h-1z M11,58h1v1h-1z M18,58h1v1h-1z M20,58h1v1h-1z M22,58h1v1h-1z M27,58h1v1h-1z M28,58h1v1h-1z M29,58h1v1h-1z M33,58h1v1h-1z M34,58h1v1h-1z M35,58h1v1h-1z M40,58h1v1h-1z M41,58h1v1h-1z M45,58h1v1h-1z M46,58h1v1h-1z M47,58h1v1h-1z M48,58h1v1h-1z M51,58h1v1h-1z M52,58h1v1h-1z M54,58h1v1h-1z M56,58h1v1h-1z M57,58h1v1h-1z M58,58h1v1h-1z M60,58h1v1h-1z M61,58h1v1h-1z M65,58h1v1h-1z M67,58h1v1h-1z M69,58h1v1h-1z M70,58h1v1h-1z M71,58h1v1h-1z M72,58h1v1h-1z M75,58h1v1h-1z M76,58h1v1h-1z M79,58h1v1h-1z M81,58h1v1h-1z M82,58h1v1h-1z M84,58h1v1h-1z M88,58h1v1h-1z M89,58h1v1h-1z M92,58h1v1h-1z M93,58h1v1h-1z M94,58h1v1h-1z M95,58h1v1h-1z M96,58h1v1h-1z M99,58h1v1h-1z M100,58h1v1h-1z M101,58h1v1h-1z M102,58h1v1h-1z M103,58h1v1h-1z M105,58h1v1h-1z M106,58h1v1h-1z M6,59h1v1h-1z M11,59h1v1h-1z M12,59h1v1h-1z M13,59h1v1h-1z M14,59h1v1h-1z M17,59h1v1h-1z M18,59h1v1h-1z M22,59h1v1h-1z M23,59h1v1h-1z M25,59h1v1h-1z M29,59h1v1h-1z M30,59h1v1h-1z M31,59h1v1h-1z M32,59h1v1h-1z M33,59h1v1h-1z M34,59h1v1h-1z M35,59h1v1h-1z M37,59h1v1h-1z M39,59h1v1h-1z M40,59h1v1h-1z M41,59h1v1h-1z M45,59h1v1h-1z M47,59h1v1h-1z M49,59h1v1h-1z M50,59h1v1h-1z M53,59h1v1h-1z M54,59h1v1h-1z M55,59h1v1h-1z M57,59h1v1h-1z M59,59h1v1h-1z M62,59h1v1h-1z M63,59h1v1h-1z M64,59h1v1h-1z M71,59h1v1h-1z M73,59h1v1h-1z M75,59h1v1h-1z M79,59h1v1h-1z M81,59h1v1h-1z M83,59h1v1h-1z M85,59h1v1h-1z M86,59h1v1h-1z M87,59h1v1h-1z M88,59h1v1h-1z M91,59h1v1h-1z M93,59h1v1h-1z M98,59h1v1h-1z M99,59h1v1h-1z M100,59h1v1h-1z M102,59h1v1h-1z M103,59h1v1h-1z M105,59h1v1h-1z M106,59h1v1h-1z M107,59h1v1h-1z M108,59h1v1h-1z M6,60h1v1h-1z M8,60h1v1h-1z M9,60h1v1h-1z M10,60h1v1h-1z M11,60h1v1h-1z M12,60h1v1h-1z M13,60h1v1h-1z M14,60h1v1h-1z M15,60h1v1h-1z M18,60h1v1h-1z M23,60h1v1h-1z M25,60h1v1h-1z M27,60h1v1h-1z M28,60h1v1h-1z M29,60h1v1h-1z M31,60h1v1h-1z M32,60h1v1h-1z M35,60h1v1h-1z M38,60h1v1h-1z M40,60h1v1h-1z M46,60h1v1h-1z M50,60h1v1h-1z M52,60h1v1h-1z M53,60h1v1h-1z M56,60h1v1h-1z M57,60h1v1h-1z M58,60h1v1h-1z M61,60h1v1h-1z M62,60h1v1h-1z M63,60h1v1h-1z M64,60h1v1h-1z M65,60h1v1h-1z M67,60h1v1h-1z M71,60h1v1h-1z M76,60h1v1h-1z M77,60h1v1h-1z M79,60h1v1h-1z M80,60h1v1h-1z M81,60h1v1h-1z M84,60h1v1h-1z M86,60h1v1h-1z M87,60h1v1h-1z M88,60h1v1h-1z M91,60h1v1h-1z M92,60h1v1h-1z M94,60h1v1h-1z M96,60h1v1h-1z M97,60h1v1h-1z M101,60h1v1h-1z M108,60h1v1h-1z M4,61h1v1h-1z M6,61h1v1h-1z M7,61h1v1h-1z M8,61h1v1h-1z M12,61h1v1h-1z M13,61h1v1h-1z M16,61h1v1h-1z M17,61h1v1h-1z M19,61h1v1h-1z M23,61h1v1h-1z M25,61h1v1h-1z M26,61h1v1h-1z M29,61h1v1h-1z M30,61h1v1h-1z M31,61h1v1h-1z M34,61h1v1h-1z M37,61h1v1h-1z M38,61h1v1h-1z M39,61h1v1h-1z M40,61h1v1h-1z M41,61h1v1h-1z M44,61h1v1h-1z M45,61h1v1h-1z M47,61h1v1h-1z M55,61h1v1h-1z M59,61h1v1h-1z M61,61h1v1h-1z M63,61h1v1h-1z M64,61h1v1h-1z M67,61h1v1h-1z M68,61h1v1h-1z M69,61h1v1h-1z M74,61h1v1h-1z M75,61h1v1h-1z M76,61h1v1h-1z M77,61h1v1h-1z M81,61h1v1h-1z M83,61h1v1h-1z M84,61h1v1h-1z M86,61h1v1h-1z M87,61h1v1h-1z M88,61h1v1h-1z M90,61h1v1h-1z M91,61h1v1h-1z M92,61h1v1h-1z M93,61h1v1h-1z M94,61h1v1h-1z M95,61h1v1h-1z M99,61h1v1h-1z M100,61h1v1h-1z M101,61h1v1h-1z M105,61h1v1h-1z M106,61h1v1h-1z M107,61h1v1h-1z M108,61h1v1h-1z M4,62h1v1h-1z M7,62h1v1h-1z M8,62h1v1h-1z M9,62h1v1h-1z M10,62h1v1h-1z M12,62h1v1h-1z M13,62h1v1h-1z M15,62h1v1h-1z M20,62h1v1h-1z M21,62h1v1h-1z M22,62h1v1h-1z M24,62h1v1h-1z M25,62h1v1h-1z M27,62h1v1h-1z M28,62h1v1h-1z M30,62h1v1h-1z M32,62h1v1h-1z M33,62h1v1h-1z M34,62h1v1h-1z M35,62h1v1h-1z M36,62h1v1h-1z M39,62h1v1h-1z M41,62h1v1h-1z M43,62h1v1h-1z M45,62h1v1h-1z M46,62h1v1h-1z M47,62h1v1h-1z M48,62h1v1h-1z M51,62h1v1h-1z M52,62h1v1h-1z M54,62h1v1h-1z M56,62h1v1h-1z M57,62h1v1h-1z M58,62h1v1h-1z M63,62h1v1h-1z M64,62h1v1h-1z M65,62h1v1h-1z M68,62h1v1h-1z M70,62h1v1h-1z M75,62h1v1h-1z M76,62h1v1h-1z M78,62h1v1h-1z M81,62h1v1h-1z M82,62h1v1h-1z M87,62h1v1h-1z M89,62h1v1h-1z M92,62h1v1h-1z M94,62h1v1h-1z M96,62h1v1h-1z M97,62h1v1h-1z M100,62h1v1h-1z M101,62h1v1h-1z M103,62h1v1h-1z M4,63h1v1h-1z M6,63h1v1h-1z M7,63h1v1h-1z M12,63h1v1h-1z M15,63h1v1h-1z M19,63h1v1h-1z M20,63h1v1h-1z M21,63h1v1h-1z M22,63h1v1h-1z M23,63h1v1h-1z M25,63h1v1h-1z M28,63h1v1h-1z M33,63h1v1h-1z M34,63h1v1h-1z M37,63h1v1h-1z M38,63h1v1h-1z M39,63h1v1h-1z M40,63h1v1h-1z M41,63h1v1h-1z M42,63h1v1h-1z M46,63h1v1h-1z M47,63h1v1h-1z M49,63h1v1h-1z M51,63h1v1h-1z M53,63h1v1h-1z M59,63h1v1h-1z M61,63h1v1h-1z M63,63h1v1h-1z M64,63h1v1h-1z M66,63h1v1h-1z M67,63h1v1h-1z M69,63h1v1h-1z M71,63h1v1h-1z M73,63h1v1h-1z M74,63h1v1h-1z M77,63h1v1h-1z M79,63h1v1h-1z M81,63h1v1h-1z M82,63h1v1h-1z M83,63h1v1h-1z M85,63h1v1h-1z M86,63h1v1h-1z M88,63h1v1h-1z M90,63h1v1h-1z M93,63h1v1h-1z M98,63h1v1h-1z M100,63h1v1h-1z M103,63h1v1h-1z M104,63h1v1h-1z M105,63h1v1h-1z M106,63h1v1h-1z M4,64h1v1h-1z M6,64h1v1h-1z M9,64h1v1h-1z M10,64h1v1h-1z M11,64h1v1h-1z M12,64h1v1h-1z M13,64h1v1h-1z M14,64h1v1h-1z M16,64h1v1h-1z M17,64h1v1h-1z M22,64h1v1h-1z M23,64h1v1h-1z M25,64h1v1h-1z M26,64h1v1h-1z M29,64h1v1h-1z M31,64h1v1h-1z M33,64h1v1h-1z M34,64h1v1h-1z M35,64h1v1h-1z M36,64h1v1h-1z M37,64h1v1h-1z M39,64h1v1h-1z M43,64h1v1h-1z M44,64h1v1h-1z M45,64h1v1h-1z M46,64h1v1h-1z M48,64h1v1h-1z M49,64h1v1h-1z M50,64h1v1h-1z M53,64h1v1h-1z M55,64h1v1h-1z M57,64h1v1h-1z M58,64h1v1h-1z M59,64h1v1h-1z M61,64h1v1h-1z M65,64h1v1h-1z M66,64h1v1h-1z M67,64h1v1h-1z M68,64h1v1h-1z M69,64h1v1h-1z M70,64h1v1h-1z M73,64h1v1h-1z M74,64h1v1h-1z M76,64h1v1h-1z M77,64h1v1h-1z M79,64h1v1h-1z M80,64h1v1h-1z M84,64h1v1h-1z M85,64h1v1h-1z M86,64h1v1h-1z M87,64h1v1h-1z M90,64h1v1h-1z M91,64h1v1h-1z M94,64h1v1h-1z M95,64h1v1h-1z M97,64h1v1h-1z M99,64h1v1h-1z M106,64h1v1h-1z M107,64h1v1h-1z M6,65h1v1h-1z M7,65h1v1h-1z M9,65h1v1h-1z M12,65h1v1h-1z M13,65h1v1h-1z M15,65h1v1h-1z M18,65h1v1h-1z M21,65h1v1h-1z M22,65h1v1h-1z M23,65h1v1h-1z M26,65h1v1h-1z M33,65h1v1h-1z M34,65h1v1h-1z M36,65h1v1h-1z M37,65h1v1h-1z M39,65h1v1h-1z M40,65h1v1h-1z M42,65h1v1h-1z M45,65h1v1h-1z M48,65h1v1h-1z M50,65h1v1h-1z M52,65h1v1h-1z M53,65h1v1h-1z M58,65h1v1h-1z M59,65h1v1h-1z M61,65h1v1h-1z M62,65h1v1h-1z M63,65h1v1h-1z M64,65h1v1h-1z M67,65h1v1h-1z M79,65h1v1h-1z M81,65h1v1h-1z M82,65h1v1h-1z M84,65h1v1h-1z M85,65h1v1h-1z M87,65h1v1h-1z M88,65h1v1h-1z M89,65h1v1h-1z M90,65h1v1h-1z M91,65h1v1h-1z M93,65h1v1h-1z M94,65h1v1h-1z M96,65h1v1h-1z M100,65h1v1h-1z M101,65h1v1h-1z M107,65h1v1h-1z M108,65h1v1h-1z M4,66h1v1h-1z M5,66h1v1h-1z M8,66h1v1h-1z M9,66h1v1h-1z M10,66h1v1h-1z M12,66h1v1h-1z M17,66h1v1h-1z M21,66h1v1h-1z M23,66h1v1h-1z M24,66h1v1h-1z M28,66h1v1h-1z M30,66h1v1h-1z M32,66h1v1h-1z M34,66h1v1h-1z M37,66h1v1h-1z M41,66h1v1h-1z M45,66h1v1h-1z M46,66h1v1h-1z M51,66h1v1h-1z M52,66h1v1h-1z M55,66h1v1h-1z M56,66h1v1h-1z M57,66h1v1h-1z M58,66h1v1h-1z M64,66h1v1h-1z M65,66h1v1h-1z M67,66h1v1h-1z M70,66h1v1h-1z M72,66h1v1h-1z M75,66h1v1h-1z M76,66h1v1h-1z M79,66h1v1h-1z M80,66h1v1h-1z M81,66h1v1h-1z M82,66h1v1h-1z M87,66h1v1h-1z M89,66h1v1h-1z M91,66h1v1h-1z M93,66h1v1h-1z M94,66h1v1h-1z M95,66h1v1h-1z M96,66h1v1h-1z M99,66h1v1h-1z M100,66h1v1h-1z M102,66h1v1h-1z M4,67h1v1h-1z M5,67h1v1h-1z M6,67h1v1h-1z M7,67h1v1h-1z M8,67h1v1h-1z M9,67h1v1h-1z M11,67h1v1h-1z M12,67h1v1h-1z M14,67h1v1h-1z M17,67h1v1h-1z M23,67h1v1h-1z M24,67h1v1h-1z M26,67h1v1h-1z M28,67h1v1h-1z M29,67h1v1h-1z M30,67h1v1h-1z M35,67h1v1h-1z M38,67h1v1h-1z M39,67h1v1h-1z M40,67h1v1h-1z M42,67h1v1h-1z M46,67h1v1h-1z M47,67h1v1h-1z M49,67h1v1h-1z M50,67h1v1h-1z M51,67h1v1h-1z M53,67h1v1h-1z M54,67h1v1h-1z M55,67h1v1h-1z M56,67h1v1h-1z M57,67h1v1h-1z M58,67h1v1h-1z M59,67h1v1h-1z M61,67h1v1h-1z M62,67h1v1h-1z M63,67h1v1h-1z M64,67h1v1h-1z M66,67h1v1h-1z M69,67h1v1h-1z M71,67h1v1h-1z M73,67h1v1h-1z M80,67h1v1h-1z M82,67h1v1h-1z M83,67h1v1h-1z M87,67h1v1h-1z M88,67h1v1h-1z M93,67h1v1h-1z M94,67h1v1h-1z M100,67h1v1h-1z M101,67h1v1h-1z M103,67h1v1h-1z M104,67h1v1h-1z M106,67h1v1h-1z M107,67h1v1h-1z M6,68h1v1h-1z M7,68h1v1h-1z M10,68h1v1h-1z M14,68h1v1h-1z M17,68h1v1h-1z M19,68h1v1h-1z M23,68h1v1h-1z M24,68h1v1h-1z M25,68h1v1h-1z M29,68h1v1h-1z M32,68h1v1h-1z M34,68h1v1h-1z M36,68h1v1h-1z M37,68h1v1h-1z M38,68h1v1h-1z M41,68h1v1h-1z M43,68h1v1h-1z M45,68h1v1h-1z M46,68h1v1h-1z M48,68h1v1h-1z M49,68h1v1h-1z M52,68h1v1h-1z M53,68h1v1h-1z M56,68h1v1h-1z M59,68h1v1h-1z M63,68h1v1h-1z M67,68h1v1h-1z M71,68h1v1h-1z M73,68h1v1h-1z M74,68h1v1h-1z M77,68h1v1h-1z M79,68h1v1h-1z M80,68h1v1h-1z M82,68h1v1h-1z M83,68h1v1h-1z M85,68h1v1h-1z M87,68h1v1h-1z M88,68h1v1h-1z M92,68h1v1h-1z M95,68h1v1h-1z M96,68h1v1h-1z M99,68h1v1h-1z M102,68h1v1h-1z M105,68h1v1h-1z M108,68h1v1h-1z M4,69h1v1h-1z M9,69h1v1h-1z M11,69h1v1h-1z M12,69h1v1h-1z M13,69h1v1h-1z M14,69h1v1h-1z M15,69h1v1h-1z M16,69h1v1h-1z M17,69h1v1h-1z M18,69h1v1h-1z M21,69h1v1h-1z M24,69h1v1h-1z M33,69h1v1h-1z M34,69h1v1h-1z M35,69h1v1h-1z M38,69h1v1h-1z M39,69h1v1h-1z M40,69h1v1h-1z M42,69h1v1h-1z M43,69h1v1h-1z M44,69h1v1h-1z M45,69h1v1h-1z M55,69h1v1h-1z M58,69h1v1h-1z M59,69h1v1h-1z M61,69h1v1h-1z M62,69h1v1h-1z M64,69h1v1h-1z M65,69h1v1h-1z M66,69h1v1h-1z M67,69h1v1h-1z M68,69h1v1h-1z M69,69h1v1h-1z M70,69h1v1h-1z M73,69h1v1h-1z M75,69h1v1h-1z M76,69h1v1h-1z M81,69h1v1h-1z M83,69h1v1h-1z M85,69h1v1h-1z M88,69h1v1h-1z M94,69h1v1h-1z M96,69h1v1h-1z M97,69h1v1h-1z M98,69h1v1h-1z M99,69h1v1h-1z M100,69h1v1h-1z M108,69h1v1h-1z M4,70h1v1h-1z M8,70h1v1h-1z M9,70h1v1h-1z M10,70h1v1h-1z M11,70h1v1h-1z M12,70h1v1h-1z M13,70h1v1h-1z M14,70h1v1h-1z M19,70h1v1h-1z M20,70h1v1h-1z M22,70h1v1h-1z M26,70h1v1h-1z M27,70h1v1h-1z M28,70h1v1h-1z M29,70h1v1h-1z M30,70h1v1h-1z M31,70h1v1h-1z M34,70h1v1h-1z M43,70h1v1h-1z M44,70h1v1h-1z M45,70h1v1h-1z M46,70h1v1h-1z M48,70h1v1h-1z M52,70h1v1h-1z M58,70h1v1h-1z M60,70h1v1h-1z M65,70h1v1h-1z M67,70h1v1h-1z M68,70h1v1h-1z M69,70h1v1h-1z M70,70h1v1h-1z M71,70h1v1h-1z M73,70h1v1h-1z M75,70h1v1h-1z M76,70h1v1h-1z M79,70h1v1h-1z M81,70h1v1h-1z M82,70h1v1h-1z M83,70h1v1h-1z M84,70h1v1h-1z M85,70h1v1h-1z M88,70h1v1h-1z M92,70h1v1h-1z M93,70h1v1h-1z M94,70h1v1h-1z M95,70h1v1h-1z M96,70h1v1h-1z M101,70h1v1h-1z M102,70h1v1h-1z M103,70h1v1h-1z M106,70h1v1h-1z M107,70h1v1h-1z M108,70h1v1h-1z M5,71h1v1h-1z M12,71h1v1h-1z M14,71h1v1h-1z M17,71h1v1h-1z M18,71h1v1h-1z M19,71h1v1h-1z M21,71h1v1h-1z M22,71h1v1h-1z M25,71h1v1h-1z M26,71h1v1h-1z M28,71h1v1h-1z M29,71h1v1h-1z M30,71h1v1h-1z M31,71h1v1h-1z M35,71h1v1h-1z M37,71h1v1h-1z M39,71h1v1h-1z M40,71h1v1h-1z M41,71h1v1h-1z M42,71h1v1h-1z M46,71h1v1h-1z M47,71h1v1h-1z M50,71h1v1h-1z M54,71h1v1h-1z M55,71h1v1h-1z M57,71h1v1h-1z M59,71h1v1h-1z M61,71h1v1h-1z M62,71h1v1h-1z M63,71h1v1h-1z M64,71h1v1h-1z M65,71h1v1h-1z M66,71h1v1h-1z M69,71h1v1h-1z M70,71h1v1h-1z M71,71h1v1h-1z M74,71h1v1h-1z M77,71h1v1h-1z M78,71h1v1h-1z M80,71h1v1h-1z M82,71h1v1h-1z M83,71h1v1h-1z M86,71h1v1h-1z M87,71h1v1h-1z M88,71h1v1h-1z M89,71h1v1h-1z M90,71h1v1h-1z M91,71h1v1h-1z M94,71h1v1h-1z M98,71h1v1h-1z M99,71h1v1h-1z M100,71h1v1h-1z M103,71h1v1h-1z M104,71h1v1h-1z M105,71h1v1h-1z M106,71h1v1h-1z M107,71h1v1h-1z M108,71h1v1h-1z M4,72h1v1h-1z M7,72h1v1h-1z M8,72h1v1h-1z M9,72h1v1h-1z M10,72h1v1h-1z M12,72h1v1h-1z M16,72h1v1h-1z M17,72h1v1h-1z M19,72h1v1h-1z M20,72h1v1h-1z M24,72h1v1h-1z M26,72h1v1h-1z M27,72h1v1h-1z M29,72h1v1h-1z M32,72h1v1h-1z M33,72h1v1h-1z M34,72h1v1h-1z M36,72h1v1h-1z M37,72h1v1h-1z M43,72h1v1h-1z M44,72h1v1h-1z M46,72h1v1h-1z M47,72h1v1h-1z M48,72h1v1h-1z M49,72h1v1h-1z M50,72h1v1h-1z M51,72h1v1h-1z M52,72h1v1h-1z M53,72h1v1h-1z M55,72h1v1h-1z M57,72h1v1h-1z M58,72h1v1h-1z M63,72h1v1h-1z M64,72h1v1h-1z M66,72h1v1h-1z M69,72h1v1h-1z M70,72h1v1h-1z M71,72h1v1h-1z M72,72h1v1h-1z M73,72h1v1h-1z M74,72h1v1h-1z M76,72h1v1h-1z M77,72h1v1h-1z M79,72h1v1h-1z M80,72h1v1h-1z M85,72h1v1h-1z M89,72h1v1h-1z M92,72h1v1h-1z M93,72h1v1h-1z M94,72h1v1h-1z M95,72h1v1h-1z M96,72h1v1h-1z M97,72h1v1h-1z M98,72h1v1h-1z M99,72h1v1h-1z M102,72h1v1h-1z M6,73h1v1h-1z M7,73h1v1h-1z M8,73h1v1h-1z M12,73h1v1h-1z M14,73h1v1h-1z M15,73h1v1h-1z M17,73h1v1h-1z M18,73h1v1h-1z M19,73h1v1h-1z M20,73h1v1h-1z M24,73h1v1h-1z M26,73h1v1h-1z M27,73h1v1h-1z M28,73h1v1h-1z M30,73h1v1h-1z M33,73h1v1h-1z M35,73h1v1h-1z M36,73h1v1h-1z M37,73h1v1h-1z M38,73h1v1h-1z M40,73h1v1h-1z M41,73h1v1h-1z M42,73h1v1h-1z M43,73h1v1h-1z M46,73h1v1h-1z M47,73h1v1h-1z M49,73h1v1h-1z M52,73h1v1h-1z M53,73h1v1h-1z M57,73h1v1h-1z M60,73h1v1h-1z M64,73h1v1h-1z M65,73h1v1h-1z M66,73h1v1h-1z M68,73h1v1h-1z M69,73h1v1h-1z M71,73h1v1h-1z M72,73h1v1h-1z M74,73h1v1h-1z M76,73h1v1h-1z M77,73h1v1h-1z M82,73h1v1h-1z M84,73h1v1h-1z M87,73h1v1h-1z M88,73h1v1h-1z M90,73h1v1h-1z M91,73h1v1h-1z M93,73h1v1h-1z M94,73h1v1h-1z M95,73h1v1h-1z M97,73h1v1h-1z M99,73h1v1h-1z M100,73h1v1h-1z M101,73h1v1h-1z M103,73h1v1h-1z M106,73h1v1h-1z M107,73h1v1h-1z M5,74h1v1h-1z M6,74h1v1h-1z M7,74h1v1h-1z M8,74h1v1h-1z M9,74h1v1h-1z M10,74h1v1h-1z M12,74h1v1h-1z M14,74h1v1h-1z M15,74h1v1h-1z M17,74h1v1h-1z M19,74h1v1h-1z M20,74h1v1h-1z M23,74h1v1h-1z M27,74h1v1h-1z M28,74h1v1h-1z M32,74h1v1h-1z M33,74h1v1h-1z M34,74h1v1h-1z M35,74h1v1h-1z M36,74h1v1h-1z M39,74h1v1h-1z M41,74h1v1h-1z M45,74h1v1h-1z M46,74h1v1h-1z M48,74h1v1h-1z M51,74h1v1h-1z M52,74h1v1h-1z M56,74h1v1h-1z M57,74h1v1h-1z M58,74h1v1h-1z M63,74h1v1h-1z M64,74h1v1h-1z M65,74h1v1h-1z M67,74h1v1h-1z M70,74h1v1h-1z M75,74h1v1h-1z M76,74h1v1h-1z M78,74h1v1h-1z M80,74h1v1h-1z M81,74h1v1h-1z M82,74h1v1h-1z M83,74h1v1h-1z M84,74h1v1h-1z M87,74h1v1h-1z M89,74h1v1h-1z M92,74h1v1h-1z M94,74h1v1h-1z M95,74h1v1h-1z M96,74h1v1h-1z M100,74h1v1h-1z M106,74h1v1h-1z M107,74h1v1h-1z M4,75h1v1h-1z M5,75h1v1h-1z M7,75h1v1h-1z M11,75h1v1h-1z M12,75h1v1h-1z M15,75h1v1h-1z M16,75h1v1h-1z M17,75h1v1h-1z M18,75h1v1h-1z M23,75h1v1h-1z M24,75h1v1h-1z M26,75h1v1h-1z M27,75h1v1h-1z M28,75h1v1h-1z M29,75h1v1h-1z M30,75h1v1h-1z M34,75h1v1h-1z M35,75h1v1h-1z M38,75h1v1h-1z M40,75h1v1h-1z M41,75h1v1h-1z M47,75h1v1h-1z M49,75h1v1h-1z M50,75h1v1h-1z M53,75h1v1h-1z M54,75h1v1h-1z M55,75h1v1h-1z M59,75h1v1h-1z M61,75h1v1h-1z M63,75h1v1h-1z M64,75h1v1h-1z M66,75h1v1h-1z M69,75h1v1h-1z M71,75h1v1h-1z M74,75h1v1h-1z M75,75h1v1h-1z M79,75h1v1h-1z M80,75h1v1h-1z M81,75h1v1h-1z M82,75h1v1h-1z M86,75h1v1h-1z M87,75h1v1h-1z M88,75h1v1h-1z M89,75h1v1h-1z M93,75h1v1h-1z M98,75h1v1h-1z M99,75h1v1h-1z M100,75h1v1h-1z M101,75h1v1h-1z M103,75h1v1h-1z M105,75h1v1h-1z M106,75h1v1h-1z M5,76h1v1h-1z M6,76h1v1h-1z M7,76h1v1h-1z M8,76h1v1h-1z M9,76h1v1h-1z M10,76h1v1h-1z M11,76h1v1h-1z M12,76h1v1h-1z M13,76h1v1h-1z M15,76h1v1h-1z M18,76h1v1h-1z M19,76h1v1h-1z M21,76h1v1h-1z M22,76h1v1h-1z M23,76h1v1h-1z M24,76h1v1h-1z M26,76h1v1h-1z M27,76h1v1h-1z M28,76h1v1h-1z M29,76h1v1h-1z M30,76h1v1h-1z M31,76h1v1h-1z M32,76h1v1h-1z M36,76h1v1h-1z M41,76h1v1h-1z M44,76h1v1h-1z M45,76h1v1h-1z M47,76h1v1h-1z M48,76h1v1h-1z M49,76h1v1h-1z M51,76h1v1h-1z M52,76h1v1h-1z M53,76h1v1h-1z M54,76h1v1h-1z M55,76h1v1h-1z M56,76h1v1h-1z M57,76h1v1h-1z M59,76h1v1h-1z M60,76h1v1h-1z M61,76h1v1h-1z M64,76h1v1h-1z M66,76h1v1h-1z M67,76h1v1h-1z M69,76h1v1h-1z M73,76h1v1h-1z M74,76h1v1h-1z M76,76h1v1h-1z M77,76h1v1h-1z M78,76h1v1h-1z M79,76h1v1h-1z M80,76h1v1h-1z M82,76h1v1h-1z M84,76h1v1h-1z M87,76h1v1h-1z M91,76h1v1h-1z M96,76h1v1h-1z M98,76h1v1h-1z M100,76h1v1h-1z M101,76h1v1h-1z M102,76h1v1h-1z M103,76h1v1h-1z M104,76h1v1h-1z M107,76h1v1h-1z M4,77h1v1h-1z M6,77h1v1h-1z M8,77h1v1h-1z M12,77h1v1h-1z M14,77h1v1h-1z M15,77h1v1h-1z M20,77h1v1h-1z M22,77h1v1h-1z M23,77h1v1h-1z M24,77h1v1h-1z M25,77h1v1h-1z M26,77h1v1h-1z M27,77h1v1h-1z M28,77h1v1h-1z M32,77h1v1h-1z M33,77h1v1h-1z M34,77h1v1h-1z M36,77h1v1h-1z M38,77h1v1h-1z M40,77h1v1h-1z M41,77h1v1h-1z M44,77h1v1h-1z M47,77h1v1h-1z M48,77h1v1h-1z M52,77h1v1h-1z M56,77h1v1h-1z M60,77h1v1h-1z M62,77h1v1h-1z M71,77h1v1h-1z M74,77h1v1h-1z M76,77h1v1h-1z M80,77h1v1h-1z M83,77h1v1h-1z M86,77h1v1h-1z M87,77h1v1h-1z M89,77h1v1h-1z M91,77h1v1h-1z M92,77h1v1h-1z M94,77h1v1h-1z M95,77h1v1h-1z M98,77h1v1h-1z M100,77h1v1h-1z M104,77h1v1h-1z M106,77h1v1h-1z M107,77h1v1h-1z M108,77h1v1h-1z M4,78h1v1h-1z M5,78h1v1h-1z M6,78h1v1h-1z M8,78h1v1h-1z M10,78h1v1h-1z M12,78h1v1h-1z M15,78h1v1h-1z M24,78h1v1h-1z M26,78h1v1h-1z M28,78h1v1h-1z M30,78h1v1h-1z M32,78h1v1h-1z M33,78h1v1h-1z M34,78h1v1h-1z M35,78h1v1h-1z M36,78h1v1h-1z M39,78h1v1h-1z M41,78h1v1h-1z M44,78h1v1h-1z M45,78h1v1h-1z M46,78h1v1h-1z M47,78h1v1h-1z M48,78h1v1h-1z M51,78h1v1h-1z M52,78h1v1h-1z M54,78h1v1h-1z M56,78h1v1h-1z M57,78h1v1h-1z M58,78h1v1h-1z M59,78h1v1h-1z M60,78h1v1h-1z M61,78h1v1h-1z M65,78h1v1h-1z M67,78h1v1h-1z M68,78h1v1h-1z M70,78h1v1h-1z M75,78h1v1h-1z M76,78h1v1h-1z M78,78h1v1h-1z M80,78h1v1h-1z M81,78h1v1h-1z M82,78h1v1h-1z M84,78h1v1h-1z M87,78h1v1h-1z M89,78h1v1h-1z M93,78h1v1h-1z M94,78h1v1h-1z M95,78h1v1h-1z M96,78h1v1h-1z M99,78h1v1h-1z M100,78h1v1h-1z M102,78h1v1h-1z M104,78h1v1h-1z M107,78h1v1h-1z M4,79h1v1h-1z M8,79h1v1h-1z M12,79h1v1h-1z M16,79h1v1h-1z M19,79h1v1h-1z M22,79h1v1h-1z M24,79h1v1h-1z M28,79h1v1h-1z M32,79h1v1h-1z M33,79h1v1h-1z M37,79h1v1h-1z M39,79h1v1h-1z M40,79h1v1h-1z M41,79h1v1h-1z M43,79h1v1h-1z M45,79h1v1h-1z M46,79h1v1h-1z M47,79h1v1h-1z M50,79h1v1h-1z M51,79h1v1h-1z M52,79h1v1h-1z M56,79h1v1h-1z M57,79h1v1h-1z M58,79h1v1h-1z M61,79h1v1h-1z M62,79h1v1h-1z M63,79h1v1h-1z M64,79h1v1h-1z M65,79h1v1h-1z M69,79h1v1h-1z M71,79h1v1h-1z M73,79h1v1h-1z M75,79h1v1h-1z M76,79h1v1h-1z M80,79h1v1h-1z M81,79h1v1h-1z M82,79h1v1h-1z M83,79h1v1h-1z M85,79h1v1h-1z M87,79h1v1h-1z M88,79h1v1h-1z M89,79h1v1h-1z M93,79h1v1h-1z M94,79h1v1h-1z M100,79h1v1h-1z M104,79h1v1h-1z M105,79h1v1h-1z M106,79h1v1h-1z M107,79h1v1h-1z M108,79h1v1h-1z M4,80h1v1h-1z M6,80h1v1h-1z M8,80h1v1h-1z M9,80h1v1h-1z M10,80h1v1h-1z M11,80h1v1h-1z M12,80h1v1h-1z M17,80h1v1h-1z M18,80h1v1h-1z M21,80h1v1h-1z M23,80h1v1h-1z M24,80h1v1h-1z M25,80h1v1h-1z M27,80h1v1h-1z M28,80h1v1h-1z M29,80h1v1h-1z M30,80h1v1h-1z M31,80h1v1h-1z M32,80h1v1h-1z M35,80h1v1h-1z M37,80h1v1h-1z M39,80h1v1h-1z M47,80h1v1h-1z M48,80h1v1h-1z M51,80h1v1h-1z M52,80h1v1h-1z M53,80h1v1h-1z M54,80h1v1h-1z M55,80h1v1h-1z M56,80h1v1h-1z M59,80h1v1h-1z M61,80h1v1h-1z M63,80h1v1h-1z M67,80h1v1h-1z M70,80h1v1h-1z M71,80h1v1h-1z M73,80h1v1h-1z M74,80h1v1h-1z M76,80h1v1h-1z M77,80h1v1h-1z M78,80h1v1h-1z M79,80h1v1h-1z M80,80h1v1h-1z M81,80h1v1h-1z M84,80h1v1h-1z M86,80h1v1h-1z M87,80h1v1h-1z M89,80h1v1h-1z M90,80h1v1h-1z M91,80h1v1h-1z M92,80h1v1h-1z M93,80h1v1h-1z M94,80h1v1h-1z M98,80h1v1h-1z M100,80h1v1h-1z M101,80h1v1h-1z M102,80h1v1h-1z M103,80h1v1h-1z M104,80h1v1h-1z M105,80h1v1h-1z M106,80h1v1h-1z M107,80h1v1h-1z M4,81h1v1h-1z M6,81h1v1h-1z M7,81h1v1h-1z M13,81h1v1h-1z M15,81h1v1h-1z M17,81h1v1h-1z M18,81h1v1h-1z M19,81h1v1h-1z M26,81h1v1h-1z M28,81h1v1h-1z M29,81h1v1h-1z M32,81h1v1h-1z M33,81h1v1h-1z M34,81h1v1h-1z M37,81h1v1h-1z M38,81h1v1h-1z M39,81h1v1h-1z M41,81h1v1h-1z M42,81h1v1h-1z M43,81h1v1h-1z M46,81h1v1h-1z M47,81h1v1h-1z M52,81h1v1h-1z M53,81h1v1h-1z M57,81h1v1h-1z M58,81h1v1h-1z M59,81h1v1h-1z M62,81h1v1h-1z M63,81h1v1h-1z M65,81h1v1h-1z M68,81h1v1h-1z M81,81h1v1h-1z M82,81h1v1h-1z M83,81h1v1h-1z M86,81h1v1h-1z M87,81h1v1h-1z M88,81h1v1h-1z M89,81h1v1h-1z M90,81h1v1h-1z M93,81h1v1h-1z M95,81h1v1h-1z M96,81h1v1h-1z M97,81h1v1h-1z M98,81h1v1h-1z M99,81h1v1h-1z M102,81h1v1h-1z M106,81h1v1h-1z M108,81h1v1h-1z M4,82h1v1h-1z M5,82h1v1h-1z M6,82h1v1h-1z M7,82h1v1h-1z M8,82h1v1h-1z M10,82h1v1h-1z M11,82h1v1h-1z M13,82h1v1h-1z M14,82h1v1h-1z M15,82h1v1h-1z M16,82h1v1h-1z M19,82h1v1h-1z M20,82h1v1h-1z M22,82h1v1h-1z M24,82h1v1h-1z M25,82h1v1h-1z M26,82h1v1h-1z M27,82h1v1h-1z M33,82h1v1h-1z M34,82h1v1h-1z M37,82h1v1h-1z M40,82h1v1h-1z M41,82h1v1h-1z M44,82h1v1h-1z M46,82h1v1h-1z M52,82h1v1h-1z M54,82h1v1h-1z M57,82h1v1h-1z M58,82h1v1h-1z M63,82h1v1h-1z M64,82h1v1h-1z M65,82h1v1h-1z M68,82h1v1h-1z M70,82h1v1h-1z M71,82h1v1h-1z M73,82h1v1h-1z M76,82h1v1h-1z M77,82h1v1h-1z M78,82h1v1h-1z M81,82h1v1h-1z M82,82h1v1h-1z M84,82h1v1h-1z M87,82h1v1h-1z M89,82h1v1h-1z M91,82h1v1h-1z M94,82h1v1h-1z M95,82h1v1h-1z M96,82h1v1h-1z M101,82h1v1h-1z M105,82h1v1h-1z M106,82h1v1h-1z M107,82h1v1h-1z M6,83h1v1h-1z M8,83h1v1h-1z M11,83h1v1h-1z M12,83h1v1h-1z M13,83h1v1h-1z M17,83h1v1h-1z M19,83h1v1h-1z M20,83h1v1h-1z M21,83h1v1h-1z M22,83h1v1h-1z M24,83h1v1h-1z M28,83h1v1h-1z M29,83h1v1h-1z M31,83h1v1h-1z M34,83h1v1h-1z M35,83h1v1h-1z M38,83h1v1h-1z M39,83h1v1h-1z M40,83h1v1h-1z M45,83h1v1h-1z M47,83h1v1h-1z M49,83h1v1h-1z M51,83h1v1h-1z M52,83h1v1h-1z M53,83h1v1h-1z M56,83h1v1h-1z M57,83h1v1h-1z M58,83h1v1h-1z M59,83h1v1h-1z M62,83h1v1h-1z M63,83h1v1h-1z M64,83h1v1h-1z M69,83h1v1h-1z M71,83h1v1h-1z M74,83h1v1h-1z M77,83h1v1h-1z M79,83h1v1h-1z M80,83h1v1h-1z M82,83h1v1h-1z M83,83h1v1h-1z M85,83h1v1h-1z M88,83h1v1h-1z M89,83h1v1h-1z M93,83h1v1h-1z M95,83h1v1h-1z M97,83h1v1h-1z M98,83h1v1h-1z M99,83h1v1h-1z M101,83h1v1h-1z M102,83h1v1h-1z M105,83h1v1h-1z M106,83h1v1h-1z M4,84h1v1h-1z M6,84h1v1h-1z M7,84h1v1h-1z M10,84h1v1h-1z M11,84h1v1h-1z M12,84h1v1h-1z M16,84h1v1h-1z M18,84h1v1h-1z M19,84h1v1h-1z M20,84h1v1h-1z M22,84h1v1h-1z M23,84h1v1h-1z M25,84h1v1h-1z M29,84h1v1h-1z M30,84h1v1h-1z M31,84h1v1h-1z M33,84h1v1h-1z M34,84h1v1h-1z M35,84h1v1h-1z M36,84h1v1h-1z M39,84h1v1h-1z M40,84h1v1h-1z M41,84h1v1h-1z M44,84h1v1h-1z M47,84h1v1h-1z M48,84h1v1h-1z M50,84h1v1h-1z M51,84h1v1h-1z M53,84h1v1h-1z M54,84h1v1h-1z M58,84h1v1h-1z M59,84h1v1h-1z M60,84h1v1h-1z M65,84h1v1h-1z M68,84h1v1h-1z M73,84h1v1h-1z M75,84h1v1h-1z M76,84h1v1h-1z M79,84h1v1h-1z M80,84h1v1h-1z M82,84h1v1h-1z M83,84h1v1h-1z M84,84h1v1h-1z M85,84h1v1h-1z M87,84h1v1h-1z M88,84h1v1h-1z M89,84h1v1h-1z M91,84h1v1h-1z M92,84h1v1h-1z M94,84h1v1h-1z M95,84h1v1h-1z M97,84h1v1h-1z M98,84h1v1h-1z M101,84h1v1h-1z M104,84h1v1h-1z M105,84h1v1h-1z M5,85h1v1h-1z M7,85h1v1h-1z M8,85h1v1h-1z M9,85h1v1h-1z M13,85h1v1h-1z M14,85h1v1h-1z M16,85h1v1h-1z M18,85h1v1h-1z M20,85h1v1h-1z M21,85h1v1h-1z M22,85h1v1h-1z M23,85h1v1h-1z M25,85h1v1h-1z M26,85h1v1h-1z M29,85h1v1h-1z M32,85h1v1h-1z M41,85h1v1h-1z M43,85h1v1h-1z M48,85h1v1h-1z M49,85h1v1h-1z M52,85h1v1h-1z M53,85h1v1h-1z M56,85h1v1h-1z M57,85h1v1h-1z M59,85h1v1h-1z M60,85h1v1h-1z M64,85h1v1h-1z M67,85h1v1h-1z M69,85h1v1h-1z M71,85h1v1h-1z M73,85h1v1h-1z M74,85h1v1h-1z M76,85h1v1h-1z M77,85h1v1h-1z M79,85h1v1h-1z M80,85h1v1h-1z M82,85h1v1h-1z M86,85h1v1h-1z M88,85h1v1h-1z M90,85h1v1h-1z M92,85h1v1h-1z M93,85h1v1h-1z M94,85h1v1h-1z M97,85h1v1h-1z M100,85h1v1h-1z M101,85h1v1h-1z M105,85h1v1h-1z M106,85h1v1h-1z M108,85h1v1h-1z M6,86h1v1h-1z M8,86h1v1h-1z M10,86h1v1h-1z M13,86h1v1h-1z M14,86h1v1h-1z M18,86h1v1h-1z M19,86h1v1h-1z M20,86h1v1h-1z M23,86h1v1h-1z M25,86h1v1h-1z M26,86h1v1h-1z M28,86h1v1h-1z M29,86h1v1h-1z M30,86h1v1h-1z M34,86h1v1h-1z M35,86h1v1h-1z M36,86h1v1h-1z M39,86h1v1h-1z M41,86h1v1h-1z M43,86h1v1h-1z M45,86h1v1h-1z M46,86h1v1h-1z M47,86h1v1h-1z M48,86h1v1h-1z M51,86h1v1h-1z M53,86h1v1h-1z M54,86h1v1h-1z M55,86h1v1h-1z M57,86h1v1h-1z M58,86h1v1h-1z M64,86h1v1h-1z M65,86h1v1h-1z M68,86h1v1h-1z M69,86h1v1h-1z M70,86h1v1h-1z M78,86h1v1h-1z M79,86h1v1h-1z M81,86h1v1h-1z M82,86h1v1h-1z M84,86h1v1h-1z M88,86h1v1h-1z M89,86h1v1h-1z M92,86h1v1h-1z M94,86h1v1h-1z M95,86h1v1h-1z M96,86h1v1h-1z M101,86h1v1h-1z M104,86h1v1h-1z M106,86h1v1h-1z M107,86h1v1h-1z M11,87h1v1h-1z M12,87h1v1h-1z M13,87h1v1h-1z M14,87h1v1h-1z M17,87h1v1h-1z M19,87h1v1h-1z M22,87h1v1h-1z M25,87h1v1h-1z M26,87h1v1h-1z M27,87h1v1h-1z M31,87h1v1h-1z M32,87h1v1h-1z M33,87h1v1h-1z M35,87h1v1h-1z M37,87h1v1h-1z M40,87h1v1h-1z M42,87h1v1h-1z M46,87h1v1h-1z M51,87h1v1h-1z M52,87h1v1h-1z M55,87h1v1h-1z M57,87h1v1h-1z M59,87h1v1h-1z M62,87h1v1h-1z M63,87h1v1h-1z M64,87h1v1h-1z M65,87h1v1h-1z M66,87h1v1h-1z M67,87h1v1h-1z M70,87h1v1h-1z M71,87h1v1h-1z M76,87h1v1h-1z M77,87h1v1h-1z M80,87h1v1h-1z M81,87h1v1h-1z M82,87h1v1h-1z M83,87h1v1h-1z M85,87h1v1h-1z M87,87h1v1h-1z M88,87h1v1h-1z M90,87h1v1h-1z M95,87h1v1h-1z M97,87h1v1h-1z M101,87h1v1h-1z M102,87h1v1h-1z M104,87h1v1h-1z M105,87h1v1h-1z M106,87h1v1h-1z M5,88h1v1h-1z M7,88h1v1h-1z M8,88h1v1h-1z M10,88h1v1h-1z M11,88h1v1h-1z M12,88h1v1h-1z M13,88h1v1h-1z M16,88h1v1h-1z M17,88h1v1h-1z M19,88h1v1h-1z M20,88h1v1h-1z M21,88h1v1h-1z M23,88h1v1h-1z M25,88h1v1h-1z M30,88h1v1h-1z M31,88h1v1h-1z M33,88h1v1h-1z M34,88h1v1h-1z M40,88h1v1h-1z M41,88h1v1h-1z M44,88h1v1h-1z M45,88h1v1h-1z M46,88h1v1h-1z M47,88h1v1h-1z M49,88h1v1h-1z M53,88h1v1h-1z M54,88h1v1h-1z M55,88h1v1h-1z M59,88h1v1h-1z M64,88h1v1h-1z M67,88h1v1h-1z M68,88h1v1h-1z M69,88h1v1h-1z M70,88h1v1h-1z M73,88h1v1h-1z M75,88h1v1h-1z M78,88h1v1h-1z M79,88h1v1h-1z M82,88h1v1h-1z M83,88h1v1h-1z M84,88h1v1h-1z M88,88h1v1h-1z M91,88h1v1h-1z M92,88h1v1h-1z M94,88h1v1h-1z M95,88h1v1h-1z M96,88h1v1h-1z M100,88h1v1h-1z M102,88h1v1h-1z M104,88h1v1h-1z M105,88h1v1h-1z M106,88h1v1h-1z M107,88h1v1h-1z M6,89h1v1h-1z M9,89h1v1h-1z M11,89h1v1h-1z M14,89h1v1h-1z M18,89h1v1h-1z M19,89h1v1h-1z M20,89h1v1h-1z M22,89h1v1h-1z M23,89h1v1h-1z M24,89h1v1h-1z M25,89h1v1h-1z M28,89h1v1h-1z M31,89h1v1h-1z M32,89h1v1h-1z M35,89h1v1h-1z M40,89h1v1h-1z M42,89h1v1h-1z M44,89h1v1h-1z M47,89h1v1h-1z M49,89h1v1h-1z M50,89h1v1h-1z M52,89h1v1h-1z M53,89h1v1h-1z M55,89h1v1h-1z M58,89h1v1h-1z M59,89h1v1h-1z M65,89h1v1h-1z M66,89h1v1h-1z M67,89h1v1h-1z M68,89h1v1h-1z M70,89h1v1h-1z M71,89h1v1h-1z M77,89h1v1h-1z M80,89h1v1h-1z M84,89h1v1h-1z M87,89h1v1h-1z M88,89h1v1h-1z M89,89h1v1h-1z M94,89h1v1h-1z M95,89h1v1h-1z M98,89h1v1h-1z M103,89h1v1h-1z M105,89h1v1h-1z M106,89h1v1h-1z M4,90h1v1h-1z M5,90h1v1h-1z M6,90h1v1h-1z M8,90h1v1h-1z M9,90h1v1h-1z M10,90h1v1h-1z M11,90h1v1h-1z M14,90h1v1h-1z M17,90h1v1h-1z M22,90h1v1h-1z M26,90h1v1h-1z M28,90h1v1h-1z M29,90h1v1h-1z M30,90h1v1h-1z M31,90h1v1h-1z M33,90h1v1h-1z M34,90h1v1h-1z M37,90h1v1h-1z M41,90h1v1h-1z M43,90h1v1h-1z M44,90h1v1h-1z M45,90h1v1h-1z M46,90h1v1h-1z M47,90h1v1h-1z M48,90h1v1h-1z M52,90h1v1h-1z M57,90h1v1h-1z M58,90h1v1h-1z M59,90h1v1h-1z M60,90h1v1h-1z M65,90h1v1h-1z M68,90h1v1h-1z M70,90h1v1h-1z M72,90h1v1h-1z M73,90h1v1h-1z M76,90h1v1h-1z M78,90h1v1h-1z M82,90h1v1h-1z M83,90h1v1h-1z M88,90h1v1h-1z M92,90h1v1h-1z M93,90h1v1h-1z M94,90h1v1h-1z M95,90h1v1h-1z M96,90h1v1h-1z M100,90h1v1h-1z M101,90h1v1h-1z M103,90h1v1h-1z M105,90h1v1h-1z M106,90h1v1h-1z M107,90h1v1h-1z M4,91h1v1h-1z M6,91h1v1h-1z M9,91h1v1h-1z M13,91h1v1h-1z M15,91h1v1h-1z M18,91h1v1h-1z M20,91h1v1h-1z M21,91h1v1h-1z M24,91h1v1h-1z M26,91h1v1h-1z M27,91h1v1h-1z M31,91h1v1h-1z M35,91h1v1h-1z M38,91h1v1h-1z M39,91h1v1h-1z M40,91h1v1h-1z M42,91h1v1h-1z M45,91h1v1h-1z M49,91h1v1h-1z M50,91h1v1h-1z M51,91h1v1h-1z M52,91h1v1h-1z M53,91h1v1h-1z M57,91h1v1h-1z M59,91h1v1h-1z M61,91h1v1h-1z M63,91h1v1h-1z M64,91h1v1h-1z M67,91h1v1h-1z M69,91h1v1h-1z M74,91h1v1h-1z M75,91h1v1h-1z M76,91h1v1h-1z M78,91h1v1h-1z M79,91h1v1h-1z M81,91h1v1h-1z M83,91h1v1h-1z M85,91h1v1h-1z M87,91h1v1h-1z M88,91h1v1h-1z M90,91h1v1h-1z M101,91h1v1h-1z M106,91h1v1h-1z M108,91h1v1h-1z M4,92h1v1h-1z M6,92h1v1h-1z M10,92h1v1h-1z M11,92h1v1h-1z M12,92h1v1h-1z M14,92h1v1h-1z M19,92h1v1h-1z M20,92h1v1h-1z M22,92h1v1h-1z M27,92h1v1h-1z M28,92h1v1h-1z M29,92h1v1h-1z M30,92h1v1h-1z M31,92h1v1h-1z M32,92h1v1h-1z M33,92h1v1h-1z M34,92h1v1h-1z M35,92h1v1h-1z M36,92h1v1h-1z M39,92h1v1h-1z M40,92h1v1h-1z M43,92h1v1h-1z M44,92h1v1h-1z M46,92h1v1h-1z M47,92h1v1h-1z M50,92h1v1h-1z M54,92h1v1h-1z M58,92h1v1h-1z M59,92h1v1h-1z M60,92h1v1h-1z M63,92h1v1h-1z M67,92h1v1h-1z M69,92h1v1h-1z M70,92h1v1h-1z M71,92h1v1h-1z M75,92h1v1h-1z M76,92h1v1h-1z M84,92h1v1h-1z M87,92h1v1h-1z M91,92h1v1h-1z M92,92h1v1h-1z M94,92h1v1h-1z M95,92h1v1h-1z M97,92h1v1h-1z M100,92h1v1h-1z M101,92h1v1h-1z M5,93h1v1h-1z M6,93h1v1h-1z M7,93h1v1h-1z M8,93h1v1h-1z M11,93h1v1h-1z M12,93h1v1h-1z M14,93h1v1h-1z M17,93h1v1h-1z M22,93h1v1h-1z M24,93h1v1h-1z M25,93h1v1h-1z M29,93h1v1h-1z M31,93h1v1h-1z M32,93h1v1h-1z M35,93h1v1h-1z M40,93h1v1h-1z M43,93h1v1h-1z M50,93h1v1h-1z M52,93h1v1h-1z M53,93h1v1h-1z M55,93h1v1h-1z M56,93h1v1h-1z M58,93h1v1h-1z M60,93h1v1h-1z M61,93h1v1h-1z M62,93h1v1h-1z M63,93h1v1h-1z M66,93h1v1h-1z M72,93h1v1h-1z M76,93h1v1h-1z M77,93h1v1h-1z M82,93h1v1h-1z M83,93h1v1h-1z M84,93h1v1h-1z M86,93h1v1h-1z M87,93h1v1h-1z M89,93h1v1h-1z M90,93h1v1h-1z M91,93h1v1h-1z M92,93h1v1h-1z M93,93h1v1h-1z M96,93h1v1h-1z M98,93h1v1h-1z M99,93h1v1h-1z M101,93h1v1h-1z M102,93h1v1h-1z M106,93h1v1h-1z M108,93h1v1h-1z M6,94h1v1h-1z M10,94h1v1h-1z M11,94h1v1h-1z M12,94h1v1h-1z M15,94h1v1h-1z M16,94h1v1h-1z M18,94h1v1h-1z M19,94h1v1h-1z M23,94h1v1h-1z M27,94h1v1h-1z M28,94h1v1h-1z M33,94h1v1h-1z M34,94h1v1h-1z M35,94h1v1h-1z M36,94h1v1h-1z M39,94h1v1h-1z M40,94h1v1h-1z M43,94h1v1h-1z M44,94h1v1h-1z M46,94h1v1h-1z M51,94h1v1h-1z M57,94h1v1h-1z M58,94h1v1h-1z M59,94h1v1h-1z M61,94h1v1h-1z M65,94h1v1h-1z M67,94h1v1h-1z M69,94h1v1h-1z M70,94h1v1h-1z M75,94h1v1h-1z M78,94h1v1h-1z M81,94h1v1h-1z M82,94h1v1h-1z M87,94h1v1h-1z M89,94h1v1h-1z M92,94h1v1h-1z M93,94h1v1h-1z M94,94h1v1h-1z M96,94h1v1h-1z M103,94h1v1h-1z M104,94h1v1h-1z M105,94h1v1h-1z M4,95h1v1h-1z M5,95h1v1h-1z M8,95h1v1h-1z M12,95h1v1h-1z M14,95h1v1h-1z M15,95h1v1h-1z M19,95h1v1h-1z M20,95h1v1h-1z M21,95h1v1h-1z M22,95h1v1h-1z M26,95h1v1h-1z M27,95h1v1h-1z M29,95h1v1h-1z M32,95h1v1h-1z M33,95h1v1h-1z M37,95h1v1h-1z M38,95h1v1h-1z M39,95h1v1h-1z M40,95h1v1h-1z M41,95h1v1h-1z M42,95h1v1h-1z M47,95h1v1h-1z M49,95h1v1h-1z M50,95h1v1h-1z M52,95h1v1h-1z M53,95h1v1h-1z M56,95h1v1h-1z M59,95h1v1h-1z M62,95h1v1h-1z M63,95h1v1h-1z M64,95h1v1h-1z M65,95h1v1h-1z M71,95h1v1h-1z M73,95h1v1h-1z M74,95h1v1h-1z M77,95h1v1h-1z M78,95h1v1h-1z M79,95h1v1h-1z M80,95h1v1h-1z M82,95h1v1h-1z M83,95h1v1h-1z M85,95h1v1h-1z M87,95h1v1h-1z M88,95h1v1h-1z M89,95h1v1h-1z M90,95h1v1h-1z M93,95h1v1h-1z M94,95h1v1h-1z M95,95h1v1h-1z M97,95h1v1h-1z M98,95h1v1h-1z M99,95h1v1h-1z M101,95h1v1h-1z M102,95h1v1h-1z M103,95h1v1h-1z M105,95h1v1h-1z M106,95h1v1h-1z M107,95h1v1h-1z M108,95h1v1h-1z M4,96h1v1h-1z M7,96h1v1h-1z M9,96h1v1h-1z M10,96h1v1h-1z M13,96h1v1h-1z M14,96h1v1h-1z M15,96h1v1h-1z M20,96h1v1h-1z M21,96h1v1h-1z M25,96h1v1h-1z M26,96h1v1h-1z M27,96h1v1h-1z M30,96h1v1h-1z M32,96h1v1h-1z M33,96h1v1h-1z M34,96h1v1h-1z M35,96h1v1h-1z M36,96h1v1h-1z M38,96h1v1h-1z M44,96h1v1h-1z M46,96h1v1h-1z M47,96h1v1h-1z M48,96h1v1h-1z M49,96h1v1h-1z M50,96h1v1h-1z M51,96h1v1h-1z M57,96h1v1h-1z M58,96h1v1h-1z M61,96h1v1h-1z M63,96h1v1h-1z M64,96h1v1h-1z M66,96h1v1h-1z M68,96h1v1h-1z M70,96h1v1h-1z M75,96h1v1h-1z M78,96h1v1h-1z M79,96h1v1h-1z M84,96h1v1h-1z M85,96h1v1h-1z M86,96h1v1h-1z M87,96h1v1h-1z M88,96h1v1h-1z M90,96h1v1h-1z M92,96h1v1h-1z M94,96h1v1h-1z M95,96h1v1h-1z M103,96h1v1h-1z M104,96h1v1h-1z M105,96h1v1h-1z M106,96h1v1h-1z M108,96h1v1h-1z M4,97h1v1h-1z M7,97h1v1h-1z M11,97h1v1h-1z M12,97h1v1h-1z M16,97h1v1h-1z M17,97h1v1h-1z M18,97h1v1h-1z M22,97h1v1h-1z M25,97h1v1h-1z M28,97h1v1h-1z M29,97h1v1h-1z M31,97h1v1h-1z M35,97h1v1h-1z M36,97h1v1h-1z M38,97h1v1h-1z M39,97h1v1h-1z M42,97h1v1h-1z M43,97h1v1h-1z M45,97h1v1h-1z M46,97h1v1h-1z M52,97h1v1h-1z M53,97h1v1h-1z M56,97h1v1h-1z M63,97h1v1h-1z M64,97h1v1h-1z M65,97h1v1h-1z M67,97h1v1h-1z M68,97h1v1h-1z M69,97h1v1h-1z M71,97h1v1h-1z M73,97h1v1h-1z M74,97h1v1h-1z M76,97h1v1h-1z M77,97h1v1h-1z M80,97h1v1h-1z M82,97h1v1h-1z M83,97h1v1h-1z M84,97h1v1h-1z M85,97h1v1h-1z M86,97h1v1h-1z M87,97h1v1h-1z M88,97h1v1h-1z M92,97h1v1h-1z M94,97h1v1h-1z M98,97h1v1h-1z M99,97h1v1h-1z M100,97h1v1h-1z M101,97h1v1h-1z M106,97h1v1h-1z M107,97h1v1h-1z M108,97h1v1h-1z M4,98h1v1h-1z M5,98h1v1h-1z M6,98h1v1h-1z M10,98h1v1h-1z M16,98h1v1h-1z M17,98h1v1h-1z M18,98h1v1h-1z M20,98h1v1h-1z M21,98h1v1h-1z M22,98h1v1h-1z M23,98h1v1h-1z M25,98h1v1h-1z M26,98h1v1h-1z M33,98h1v1h-1z M34,98h1v1h-1z M41,98h1v1h-1z M43,98h1v1h-1z M45,98h1v1h-1z M46,98h1v1h-1z M47,98h1v1h-1z M48,98h1v1h-1z M52,98h1v1h-1z M53,98h1v1h-1z M54,98h1v1h-1z M55,98h1v1h-1z M57,98h1v1h-1z M58,98h1v1h-1z M59,98h1v1h-1z M63,98h1v1h-1z M65,98h1v1h-1z M67,98h1v1h-1z M69,98h1v1h-1z M70,98h1v1h-1z M71,98h1v1h-1z M72,98h1v1h-1z M75,98h1v1h-1z M76,98h1v1h-1z M77,98h1v1h-1z M78,98h1v1h-1z M79,98h1v1h-1z M82,98h1v1h-1z M83,98h1v1h-1z M87,98h1v1h-1z M89,98h1v1h-1z M92,98h1v1h-1z M93,98h1v1h-1z M94,98h1v1h-1z M95,98h1v1h-1z M96,98h1v1h-1z M97,98h1v1h-1z M99,98h1v1h-1z M101,98h1v1h-1z M105,98h1v1h-1z M106,98h1v1h-1z M107,98h1v1h-1z M6,99h1v1h-1z M8,99h1v1h-1z M9,99h1v1h-1z M13,99h1v1h-1z M17,99h1v1h-1z M23,99h1v1h-1z M25,99h1v1h-1z M26,99h1v1h-1z M28,99h1v1h-1z M30,99h1v1h-1z M31,99h1v1h-1z M33,99h1v1h-1z M34,99h1v1h-1z M35,99h1v1h-1z M37,99h1v1h-1z M38,99h1v1h-1z M39,99h1v1h-1z M40,99h1v1h-1z M42,99h1v1h-1z M45,99h1v1h-1z M46,99h1v1h-1z M47,99h1v1h-1z M49,99h1v1h-1z M51,99h1v1h-1z M52,99h1v1h-1z M55,99h1v1h-1z M58,99h1v1h-1z M59,99h1v1h-1z M61,99h1v1h-1z M62,99h1v1h-1z M63,99h1v1h-1z M64,99h1v1h-1z M65,99h1v1h-1z M66,99h1v1h-1z M69,99h1v1h-1z M70,99h1v1h-1z M73,99h1v1h-1z M74,99h1v1h-1z M78,99h1v1h-1z M80,99h1v1h-1z M83,99h1v1h-1z M86,99h1v1h-1z M87,99h1v1h-1z M88,99h1v1h-1z M89,99h1v1h-1z M94,99h1v1h-1z M98,99h1v1h-1z M102,99h1v1h-1z M106,99h1v1h-1z M107,99h1v1h-1z M7,100h1v1h-1z M8,100h1v1h-1z M10,100h1v1h-1z M11,100h1v1h-1z M13,100h1v1h-1z M14,100h1v1h-1z M15,100h1v1h-1z M16,100h1v1h-1z M19,100h1v1h-1z M20,100h1v1h-1z M24,100h1v1h-1z M26,100h1v1h-1z M28,100h1v1h-1z M29,100h1v1h-1z M30,100h1v1h-1z M31,100h1v1h-1z M32,100h1v1h-1z M33,100h1v1h-1z M39,100h1v1h-1z M42,100h1v1h-1z M44,100h1v1h-1z M45,100h1v1h-1z M46,100h1v1h-1z M52,100h1v1h-1z M53,100h1v1h-1z M54,100h1v1h-1z M55,100h1v1h-1z M56,100h1v1h-1z M58,100h1v1h-1z M59,100h1v1h-1z M64,100h1v1h-1z M68,100h1v1h-1z M69,100h1v1h-1z M70,100h1v1h-1z M73,100h1v1h-1z M75,100h1v1h-1z M76,100h1v1h-1z M77,100h1v1h-1z M78,100h1v1h-1z M79,100h1v1h-1z M80,100h1v1h-1z M81,100h1v1h-1z M84,100h1v1h-1z M85,100h1v1h-1z M88,100h1v1h-1z M90,100h1v1h-1z M93,100h1v1h-1z M94,100h1v1h-1z M96,100h1v1h-1z M97,100h1v1h-1z M100,100h1v1h-1z M101,100h1v1h-1z M102,100h1v1h-1z M103,100h1v1h-1z M104,100h1v1h-1z M105,100h1v1h-1z M107,100h1v1h-1z M12,101h1v1h-1z M14,101h1v1h-1z M17,101h1v1h-1z M21,101h1v1h-1z M22,101h1v1h-1z M27,101h1v1h-1z M28,101h1v1h-1z M32,101h1v1h-1z M33,101h1v1h-1z M36,101h1v1h-1z M38,101h1v1h-1z M39,101h1v1h-1z M40,101h1v1h-1z M41,101h1v1h-1z M43,101h1v1h-1z M46,101h1v1h-1z M48,101h1v1h-1z M51,101h1v1h-1z M52,101h1v1h-1z M56,101h1v1h-1z M58,101h1v1h-1z M59,101h1v1h-1z M61,101h1v1h-1z M66,101h1v1h-1z M67,101h1v1h-1z M70,101h1v1h-1z M72,101h1v1h-1z M73,101h1v1h-1z M74,101h1v1h-1z M76,101h1v1h-1z M80,101h1v1h-1z M84,101h1v1h-1z M86,101h1v1h-1z M87,101h1v1h-1z M88,101h1v1h-1z M90,101h1v1h-1z M91,101h1v1h-1z M93,101h1v1h-1z M94,101h1v1h-1z M96,101h1v1h-1z M97,101h1v1h-1z M100,101h1v1h-1z M104,101h1v1h-1z M4,102h1v1h-1z M5,102h1v1h-1z M6,102h1v1h-1z M7,102h1v1h-1z M8,102h1v1h-1z M9,102h1v1h-1z M10,102h1v1h-1z M12,102h1v1h-1z M14,102h1v1h-1z M17,102h1v1h-1z M18,102h1v1h-1z M20,102h1v1h-1z M21,102h1v1h-1z M23,102h1v1h-1z M24,102h1v1h-1z M25,102h1v1h-1z M28,102h1v1h-1z M30,102h1v1h-1z M32,102h1v1h-1z M34,102h1v1h-1z M35,102h1v1h-1z M36,102h1v1h-1z M37,102h1v1h-1z M39,102h1v1h-1z M41,102h1v1h-1z M43,102h1v1h-1z M44,102h1v1h-1z M46,102h1v1h-1z M47,102h1v1h-1z M52,102h1v1h-1z M54,102h1v1h-1z M56,102h1v1h-1z M58,102h1v1h-1z M59,102h1v1h-1z M63,102h1v1h-1z M68,102h1v1h-1z M69,102h1v1h-1z M70,102h1v1h-1z M72,102h1v1h-1z M73,102h1v1h-1z M76,102h1v1h-1z M78,102h1v1h-1z M80,102h1v1h-1z M81,102h1v1h-1z M82,102h1v1h-1z M83,102h1v1h-1z M84,102h1v1h-1z M87,102h1v1h-1z M88,102h1v1h-1z M89,102h1v1h-1z M92,102h1v1h-1z M94,102h1v1h-1z M96,102h1v1h-1z M100,102h1v1h-1z M102,102h1v1h-1z M104,102h1v1h-1z M105,102h1v1h-1z M106,102h1v1h-1z M107,102h1v1h-1z M4,103h1v1h-1z M10,103h1v1h-1z M19,103h1v1h-1z M23,103h1v1h-1z M24,103h1v1h-1z M25,103h1v1h-1z M26,103h1v1h-1z M27,103h1v1h-1z M28,103h1v1h-1z M32,103h1v1h-1z M33,103h1v1h-1z M38,103h1v1h-1z M40,103h1v1h-1z M42,103h1v1h-1z M45,103h1v1h-1z M47,103h1v1h-1z M50,103h1v1h-1z M51,103h1v1h-1z M52,103h1v1h-1z M56,103h1v1h-1z M57,103h1v1h-1z M59,103h1v1h-1z M62,103h1v1h-1z M64,103h1v1h-1z M66,103h1v1h-1z M67,103h1v1h-1z M71,103h1v1h-1z M74,103h1v1h-1z M75,103h1v1h-1z M76,103h1v1h-1z M80,103h1v1h-1z M83,103h1v1h-1z M86,103h1v1h-1z M87,103h1v1h-1z M88,103h1v1h-1z M89,103h1v1h-1z M90,103h1v1h-1z M93,103h1v1h-1z M95,103h1v1h-1z M97,103h1v1h-1z M98,103h1v1h-1z M99,103h1v1h-1z M100,103h1v1h-1z M104,103h1v1h-1z M106,103h1v1h-1z M107,103h1v1h-1z M4,104h1v1h-1z M6,104h1v1h-1z M7,104h1v1h-1z M8,104h1v1h-1z M10,104h1v1h-1z M12,104h1v1h-1z M15,104h1v1h-1z M17,104h1v1h-1z M20,104h1v1h-1z M21,104h1v1h-1z M22,104h1v1h-1z M23,104h1v1h-1z M24,104h1v1h-1z M25,104h1v1h-1z M26,104h1v1h-1z M28,104h1v1h-1z M29,104h1v1h-1z M30,104h1v1h-1z M31,104h1v1h-1z M32,104h1v1h-1z M33,104h1v1h-1z M39,104h1v1h-1z M40,104h1v1h-1z M41,104h1v1h-1z M43,104h1v1h-1z M44,104h1v1h-1z M45,104h1v1h-1z M46,104h1v1h-1z M48,104h1v1h-1z M52,104h1v1h-1z M53,104h1v1h-1z M54,104h1v1h-1z M55,104h1v1h-1z M56,104h1v1h-1z M57,104h1v1h-1z M58,104h1v1h-1z M59,104h1v1h-1z M60,104h1v1h-1z M61,104h1v1h-1z M64,104h1v1h-1z M65,104h1v1h-1z M68,104h1v1h-1z M73,104h1v1h-1z M76,104h1v1h-1z M77,104h1v1h-1z M78,104h1v1h-1z M79,104h1v1h-1z M80,104h1v1h-1z M81,104h1v1h-1z M82,104h1v1h-1z M83,104h1v1h-1z M84,104h1v1h-1z M87,104h1v1h-1z M88,104h1v1h-1z M90,104h1v1h-1z M91,104h1v1h-1z M92,104h1v1h-1z M94,104h1v1h-1z M95,104h1v1h-1z M96,104h1v1h-1z M100,104h1v1h-1z M101,104h1v1h-1z M102,104h1v1h-1z M103,104h1v1h-1z M104,104h1v1h-1z M105,104h1v1h-1z M4,105h1v1h-1z M6,105h1v1h-1z M7,105h1v1h-1z M8,105h1v1h-1z M10,105h1v1h-1z M12,105h1v1h-1z M13,105h1v1h-1z M14,105h1v1h-1z M15,105h1v1h-1z M17,105h1v1h-1z M18,105h1v1h-1z M20,105h1v1h-1z M21,105h1v1h-1z M23,105h1v1h-1z M24,105h1v1h-1z M26,105h1v1h-1z M27,105h1v1h-1z M28,105h1v1h-1z M29,105h1v1h-1z M33,105h1v1h-1z M35,105h1v1h-1z M36,105h1v1h-1z M39,105h1v1h-1z M40,105h1v1h-1z M42,105h1v1h-1z M43,105h1v1h-1z M46,105h1v1h-1z M49,105h1v1h-1z M52,105h1v1h-1z M53,105h1v1h-1z M59,105h1v1h-1z M60,105h1v1h-1z M62,105h1v1h-1z M63,105h1v1h-1z M64,105h1v1h-1z M66,105h1v1h-1z M70,105h1v1h-1z M71,105h1v1h-1z M72,105h1v1h-1z M73,105h1v1h-1z M76,105h1v1h-1z M79,105h1v1h-1z M81,105h1v1h-1z M82,105h1v1h-1z M84,105h1v1h-1z M85,105h1v1h-1z M93,105h1v1h-1z M94,105h1v1h-1z M95,105h1v1h-1z M97,105h1v1h-1z M99,105h1v1h-1z M100,105h1v1h-1z M104,105h1v1h-1z M105,105h1v1h-1z M4,106h1v1h-1z M6,106h1v1h-1z M7,106h1v1h-1z M8,106h1v1h-1z M10,106h1v1h-1z M12,106h1v1h-1z M13,106h1v1h-1z M15,106h1v1h-1z M17,106h1v1h-1z M18,106h1v1h-1z M19,106h1v1h-1z M20,106h1v1h-1z M21,106h1v1h-1z M22,106h1v1h-1z M25,106h1v1h-1z M27,106h1v1h-1z M29,106h1v1h-1z M32,106h1v1h-1z M34,106h1v1h-1z M39,106h1v1h-1z M41,106h1v1h-1z M43,106h1v1h-1z M44,106h1v1h-1z M46,106h1v1h-1z M47,106h1v1h-1z M48,106h1v1h-1z M51,106h1v1h-1z M53,106h1v1h-1z M57,106h1v1h-1z M58,106h1v1h-1z M65,106h1v1h-1z M67,106h1v1h-1z M68,106h1v1h-1z M69,106h1v1h-1z M70,106h1v1h-1z M72,106h1v1h-1z M75,106h1v1h-1z M76,106h1v1h-1z M77,106h1v1h-1z M81,106h1v1h-1z M82,106h1v1h-1z M83,106h1v1h-1z M89,106h1v1h-1z M93,106h1v1h-1z M94,106h1v1h-1z M95,106h1v1h-1z M96,106h1v1h-1z M99,106h1v1h-1z M100,106h1v1h-1z M101,106h1v1h-1z M105,106h1v1h-1z M4,107h1v1h-1z M10,107h1v1h-1z M12,107h1v1h-1z M13,107h1v1h-1z M16,107h1v1h-1z M19,107h1v1h-1z M20,107h1v1h-1z M22,107h1v1h-1z M24,107h1v1h-1z M27,107h1v1h-1z M28,107h1v1h-1z M30,107h1v1h-1z M33,107h1v1h-1z M35,107h1v1h-1z M37,107h1v1h-1z M38,107h1v1h-1z M39,107h1v1h-1z M40,107h1v1h-1z M41,107h1v1h-1z M49,107h1v1h-1z M50,107h1v1h-1z M51,107h1v1h-1z M52,107h1v1h-1z M53,107h1v1h-1z M57,107h1v1h-1z M58,107h1v1h-1z M59,107h1v1h-1z M61,107h1v1h-1z M63,107h1v1h-1z M64,107h1v1h-1z M66,107h1v1h-1z M71,107h1v1h-1z M74,107h1v1h-1z M75,107h1v1h-1z M76,107h1v1h-1z M78,107h1v1h-1z M82,107h1v1h-1z M83,107h1v1h-1z M85,107h1v1h-1z M86,107h1v1h-1z M87,107h1v1h-1z M88,107h1v1h-1z M98,107h1v1h-1z M100,107h1v1h-1z M101,107h1v1h-1z M105,107h1v1h-1z M106,107h1v1h-1z M4,108h1v1h-1z M5,108h1v1h-1z M6,108h1v1h-1z M7,108h1v1h-1z M8,108h1v1h-1z M9,108h1v1h-1z M10,108h1v1h-1z M12,108h1v1h-1z M14,108h1v1h-1z M17,108h1v1h-1z M18,108h1v1h-1z M19,108h1v1h-1z M20,108h1v1h-1z M21,108h1v1h-1z M22,108h1v1h-1z M25,108h1v1h-1z M27,108h1v1h-1z M28,108h1v1h-1z M32,108h1v1h-1z M36,108h1v1h-1z M37,108h1v1h-1z M38,108h1v1h-1z M39,108h1v1h-1z M43,108h1v1h-1z M44,108h1v1h-1z M45,108h1v1h-1z M46,108h1v1h-1z M48,108h1v1h-1z M53,108h1v1h-1z M55,108h1v1h-1z M57,108h1v1h-1z M60,108h1v1h-1z M62,108h1v1h-1z M66,108h1v1h-1z M67,108h1v1h-1z M70,108h1v1h-1z M71,108h1v1h-1z M78,108h1v1h-1z M85,108h1v1h-1z M93,108h1v1h-1z M94,108h1v1h-1z M95,108h1v1h-1z M96,108h1v1h-1z M101,108h1v1h-1z M104,108h1v1h-1z M107,108h1v1h-1z" fill="#000000"/>
</svg>
