<?xml version="1.0" encoding="UTF-8"?>
<!DOCTYPE svg PUBLIC "-//W3C//DTD SVG 1.1//EN" "http://www.w3.org/Graphics/SVG/1.1/DTD/svg11.dtd">
<svg xmlns="http://www.w3.org/2000/svg" version="1.1" viewBox="0 0 113 113" stroke="none">
	<rect width="100%" height="100%" fill="#FFFFFF"/>
	<path d="M4,4h1v1h-1z M5,4h1v1h-1z M6,4h1v1h-1z M7,4h1v1h-1z M8,4h1v1h-1z M9,4h1v1h-1z M10,4h1v1h-1z M12,4h1v1h-1z M16,4h1v1h-1z M21,4h1v1h-1z M24,4h1v1h-1z M26,4h1v1h-1z M27,4h1v1h-1z M28,4h1v1h-1z M30,4h1v1h-1z M34,4h1v1h-1z M36,4h1v1h-1z M37,4h1v1h-1z M42,4h1v1h-1z M43,4h1v1h-1z M46,4h1v1h-1z M47,4h1v1h-1z M49,4h1v1h-1z M50,4h1v1h-1z M51,4h1v1h-1z M52,4h1v1h-1z M53,4h1v1h-1z M54,4h1v1h-1z M55,4h1v1h-1z M59,4h1v1h-1z M60,4h1v1h-1z M63,4h1v1h-1z M64,4h1v1h-1z M65,4h1v1h-1z M66,4h1v1h-1z M67,4h1v1h-1z M70,4h1v1h-1z M72,4h1v1h-1z M73,4h1v1h-1z M76,4h1v1h-1z M78,4h1v1h-1z M81,4h1v1h-1z M82,4h1v1h-1z M83,4h1v1h-1z M84,4h1v1h-1z M87,4h1v1h-1z M88,4h1v1h-1z M89,4h1v1h-1z M90,4h1v1h-1z M92,4h1v1h-1z M94,4h1v1h-1z M97,4h1v1h-1z M98,4h1v1h-1z M102,4h1v1h-1z M103,4h1v1h-1z M104,4h1v1h-1z M105,4h1v1h-1z M106,4h1v1h-1z M107,4h1v1h-1z M108,4h1v1h-1z M4,5h1v1h-1z M10,5h1v1h-1z M12,5h1v1h-1z M17,5h1v1h-1z M19,5h1v1h-1z M21,5h1v1h-1z M27,5h1v1h-1z M28,5h1v1h-1z M30,5h1v1h-1z M34,5h1v1h-1z M35,5h1v1h-1z M37,5h1v1h-1z M42,5h1v1h-1z M45,5h1v1h-1z M46,5h1v1h-1z M49,5h1v1h-1z M51,5h1v1h-1z M52,5h1v1h-1z M54,5h1v1h-1z M56,5h1v1h-1z M57,5h1v1h-1z M58,5h1v1h-1z M59,5h1v1h-1z M60,5h1v1h-1z M61,5h1v1h-1z M64,5h1v1h-1z M66,5h1v1h-1z M68,5h1v1h-1z M69,5h1v1h-1z M70,5h1v1h-1z M71,5h1v1h-1z M73,5h1v1h-1z M75,5h1v1h-1z M78,5h1v1h-1z M79,5h1v1h-1z M80,5h1v1h-1z M82,5h1v1h-1z M88,5h1v1h-1z M90,5h1v1h-1z M91,5h1v1h-1z M92,5h1v1h-1z M93,5h1v1h-1z M94,5h1v1h-1z M95,5h1v1h-1z M96,5h1v1h-1z M98,5h1v1h-1z M102,5h1v1h-1z M108,5h1v1h-1z M4,6h1v1h-1z M6,6h1v1h-1z M7,6h1v1h-1z M8,6h1v1h-1z M10,6h1v1h-1z M12,6h1v1h-1z M14,6h1v1h-1z M17,6h1v1h-1z M18,6h1v1h-1z M19,6h1v1h-1z M20,6h1v1h-1z M25,6h1v1h-1z M26,6h1v1h-1z M29,6h1v1h-1z M32,6h1v1h-1z M34,6h1v1h-1z M35,6h1v1h-1z M41,6h1v1h-1z M42,6h1v1h-1z M44,6h1v1h-1z M45,6h1v1h-1z M46,6h1v1h-1z M50,6h1v1h-1z M56,6h1v1h-1z M58,6h1v1h-1z M59,6h1v1h-1z M62,6h1v1h-1z M68,6h1v1h-1z M70,6h1v1h-1z M71,6h1v1h-1z M75,6h1v1h-1z M78,6h1v1h-1z M79,6h1v1h-1z M80,6h1v1h-1z M82,6h1v1h-1z M83,6h1v1h-1z M90,6h1v1h-1z M91,6h1v1h-1z M92,6h1v1h-1z M93,6h1v1h-1z M95,6h1v1h-1z M97,6h1v1h-1z M98,6h1v1h-1z M99,6h1v1h-1z M102,6h1v1h-1z M104,6h1v1h-1z M105,6h1v1h-1z M106,6h1v1h-1z M108,6h1v1h-1z M4,7h1v1h-1z M6,7h1v1h-1z M7,7h1v1h-1z M8,7h1v1h-1z M10,7h1v1h-1z M12,7h1v1h-1z M13,7h1v1h-1z M15,7h1v1h-1z M16,7h1v1h-1z M19,7h1v1h-1z M22,7h1v1h-1z M25,7h1v1h-1z M26,7h1v1h-1z M28,7h1v1h-1z M30,7h1v1h-1z M33,7h1v1h-1z M34,7h1v1h-1z M38,7h1v1h-1z M39,7h1v1h-1z M40,7h1v1h-1z M41,7h1v1h-1z M42,7h1v1h-1z M43,7h1v1h-1z M45,7h1v1h-1z M49,7h1v1h-1z M50,7h1v1h-1z M51,7h1v1h-1z M56,7h1v1h-1z M57,7h1v1h-1z M59,7h1v1h-1z M61,7h1v1h-1z M63,7h1v1h-1z M66,7h1v1h-1z M67,7h1v1h-1z M68,7h1v1h-1z M75,7h1v1h-1z M81,7h1v1h-1z M84,7h1v1h-1z M86,7h1v1h-1z M87,7h1v1h-1z M88,7h1v1h-1z M89,7h1v1h-1z M92,7h1v1h-1z M95,7h1v1h-1z M100,7h1v1h-1z M102,7h1v1h-1z M104,7h1v1h-1z M105,7h1v1h-1z M106,7h1v1h-1z M108,7h1v1h-1z M4,8h1v1h-1z M6,8h1v1h-1z M7,8h1v1h-1z M8,8h1v1h-1z M10,8h1v1h-1z M14,8h1v1h-1z M15,8h1v1h-1z M17,8h1v1h-1z M18,8h1v1h-1z M20,8h1v1h-1z M22,8h1v1h-1z M25,8h1v1h-1z M28,8h1v1h-1z M29,8h1v1h-1z M30,8h1v1h-1z M31,8h1v1h-1z M32,8h1v1h-1z M33,8h1v1h-1z M34,8h1v1h-1z M35,8h1v1h-1z M39,8h1v1h-1z M40,8h1v1h-1z M41,8h1v1h-1z M44,8h1v1h-1z M45,8h1v1h-1z M47,8h1v1h-1z M50,8h1v1h-1z M52,8h1v1h-1z M53,8h1v1h-1z M54,8h1v1h-1z M55,8h1v1h-1z M56,8h1v1h-1z M59,8h1v1h-1z M64,8h1v1h-1z M66,8h1v1h-1z M67,8h1v1h-1z M70,8h1v1h-1z M72,8h1v1h-1z M74,8h1v1h-1z M75,8h1v1h-1z M76,8h1v1h-1z M77,8h1v1h-1z M78,8h1v1h-1z M79,8h1v1h-1z M80,8h1v1h-1z M81,8h1v1h-1z M88,8h1v1h-1z M93,8h1v1h-1z M95,8h1v1h-1z M96,8h1v1h-1z M99,8h1v1h-1z M100,8h1v1h-1z M102,8h1v1h-1z M104,8h1v1h-1z M105,8h1v1h-1z M106,8h1v1h-1z M108,8h1v1h-1z M4,9h1v1h-1z M10,9h1v1h-1z M12,9h1v1h-1z M13,9h1v1h-1z M20,9h1v1h-1z M21,9h1v1h-1z M23,9h1v1h-1z M25,9h1v1h-1z M28,9h1v1h-1z M32,9h1v1h-1z M33,9h1v1h-1z M34,9h1v1h-1z M35,9h1v1h-1z M36,9h1v1h-1z M39,9h1v1h-1z M42,9h1v1h-1z M43,9h1v1h-1z M44,9h1v1h-1z M45,9h1v1h-1z M46,9h1v1h-1z M47,9h1v1h-1z M49,9h1v1h-1z M52,9h1v1h-1z M56,9h1v1h-1z M58,9h1v1h-1z M59,9h1v1h-1z M61,9h1v1h-1z M63,9h1v1h-1z M66,9h1v1h-1z M69,9h1v1h-1z M70,9h1v1h-1z M71,9h1v1h-1z M72,9h1v1h-1z M76,9h1v1h-1z M80,9h1v1h-1z M81,9h1v1h-1z M82,9h1v1h-1z M83,9h1v1h-1z M85,9h1v1h-1z M88,9h1v1h-1z M90,9h1v1h-1z M92,9h1v1h-1z M94,9h1v1h-1z M95,9h1v1h-1z M97,9h1v1h-1z M99,9h1v1h-1z M102,9h1v1h-1z M108,9h1v1h-1z M4,10h1v1h-1z M5,10h1v1h-1z M6,10h1v1h-1z M7,10h1v1h-1z M8,10h1v1h-1z M9,10h1v1h-1z M10,10h1v1h-1z M12,10h1v1h-1z M14,10h1v1h-1z M16,10h1v1h-1z M18,10h1v1h-1z M20,10h1v1h-1z M22,10h1v1h-1z M24,10h1v1h-1z M26,10h1v1h-1z M28,10h1v1h-1z M30,10h1v1h-1z M32,10h1v1h-1z M34,10h1v1h-1z M36,10h1v1h-1z M38,10h1v1h-1z M40,10h1v1h-1z M42,10h1v1h-1z M44,10h1v1h-1z M46,10h1v1h-1z M48,10h1v1h-1z M50,10h1v1h-1z M52,10h1v1h-1z M54,10h1v1h-1z M56,10h1v1h-1z M58,10h1v1h-1z M60,10h1v1h-1z M62,10h1v1h-1z M64,10h1v1h-1z M66,10h1v1h-1z M68,10h1v1h-1z M70,10h1v1h-1z M72,10h1v1h-1z M74,10h1v1h-1z M76,10h1v1h-1z M78,10h1v1h-1z M80,10h1v1h-1z M82,10h1v1h-1z M84,10h1v1h-1z M86,10h1v1h-1z M88,10h1v1h-1z M90,10h1v1h-1z M92,10h1v1h-1z M94,10h1v1h-1z M96,10h1v1h-1z M98,10h1v1h-1z M100,10h1v1h-1z M102,10h1v1h-1z M103,10h1v1h-1z M104,10h1v1h-1z M105,10h1v1h-1z M106,10h1v1h-1z M107,10h1v1h-1z M108,10h1v1h-1z M13,11h1v1h-1z M15,11h1v1h-1z M17,11h1v1h-1z M18,11h1v1h-1z M21,11h1v1h-1z M23,11h1v1h-1z M24,11h1v1h-1z M25,11h1v1h-1z M26,11h1v1h-1z M27,11h1v1h-1z M28,11h1v1h-1z M32,11h1v1h-1z M33,11h1v1h-1z M34,11h1v1h-1z M35,11h1v1h-1z M37,11h1v1h-1z M39,11h1v1h-1z M42,11h1v1h-1z M44,11h1v1h-1z M46,11h1v1h-1z M50,11h1v1h-1z M51,11h1v1h-1z M52,11h1v1h-1z M56,11h1v1h-1z M58,11h1v1h-1z M59,11h1v1h-1z M61,11h1v1h-1z M63,11h1v1h-1z M68,11h1v1h-1z M71,11h1v1h-1z M75,11h1v1h-1z M76,11h1v1h-1z M80,11h1v1h-1z M82,11h1v1h-1z M83,11h1v1h-1z M85,11h1v1h-1z M86,11h1v1h-1z M90,11h1v1h-1z M91,11h1v1h-1z M92,11h1v1h-1z M93,11h1v1h-1z M94,11h1v1h-1z M95,11h1v1h-1z M98,11h1v1h-1z M4,12h1v1h-1z M5,12h1v1h-1z M8,12h1v1h-1z M9,12h1v1h-1z M10,12h1v1h-1z M14,12h1v1h-1z M16,12h1v1h-1z M17,12h1v1h-1z M18,12h1v1h-1z M20,12h1v1h-1z M21,12h1v1h-1z M23,12h1v1h-1z M24,12h1v1h-1z M26,12h1v1h-1z M28,12h1v1h-1z M29,12h1v1h-1z M30,12h1v1h-1z M31,12h1v1h-1z M32,12h1v1h-1z M34,12h1v1h-1z M36,12h1v1h-1z M37,12h1v1h-1z M39,12h1v1h-1z M42,12h1v1h-1z M43,12h1v1h-1z M46,12h1v1h-1z M49,12h1v1h-1z M52,12h1v1h-1z M53,12h1v1h-1z M54,12h1v1h-1z M55,12h1v1h-1z M56,12h1v1h-1z M58,12h1v1h-1z M60,12h1v1h-1z M64,12h1v1h-1z M67,12h1v1h-1z M70,12h1v1h-1z M71,12h1v1h-1z M72,12h1v1h-1z M74,12h1v1h-1z M75,12h1v1h-1z M76,12h1v1h-1z M77,12h1v1h-1z M78,12h1v1h-1z M79,12h1v1h-1z M80,12h1v1h-1z M82,12h1v1h-1z M83,12h1v1h-1z M89,12h1v1h-1z M90,12h1v1h-1z M92,12h1v1h-1z M93,12h1v1h-1z M96,12h1v1h-1z M97,12h1v1h-1z M99,12h1v1h-1z M100,12h1v1h-1z M103,12h1v1h-1z M105,12h1v1h-1z M106,12h1v1h-1z M107,12h1v1h-1z M108,12h1v1h-1z M4,13h1v1h-1z M5,13h1v1h-1z M9,13h1v1h-1z M14,13h1v1h-1z M16,13h1v1h-1z M19,13h1v1h-1z M22,13h1v1h-1z M25,13h1v1h-1z M26,13h1v1h-1z M27,13h1v1h-1z M28,13h1v1h-1z M30,13h1v1h-1z M31,13h1v1h-1z M34,13h1v1h-1z M35,13h1v1h-1z M36,13h1v1h-1z M37,13h1v1h-1z M38,13h1v1h-1z M42,13h1v1h-1z M44,13h1v1h-1z M45,13h1v1h-1z M46,13h1v1h-1z M51,13h1v1h-1z M52,13h1v1h-1z M53,13h1v1h-1z M54,13h1v1h-1z M55,13h1v1h-1z M57,13h1v1h-1z M59,13h1v1h-1z M60,13h1v1h-1z M61,13h1v1h-1z M62,13h1v1h-1z M66,13h1v1h-1z M67,13h1v1h-1z M69,13h1v1h-1z M71,13h1v1h-1z M72,13h1v1h-1z M73,13h1v1h-1z M75,13h1v1h-1z M76,13h1v1h-1z M79,13h1v1h-1z M84,13h1v1h-1z M85,13h1v1h-1z M90,13h1v1h-1z M96,13h1v1h-1z M97,13h1v1h-1z M98,13h1v1h-1z M101,13h1v1h-1z M102,13h1v1h-1z M103,13h1v1h-1z M104,13h1v1h-1z M106,13h1v1h-1z M6,14h1v1h-1z M8,14h1v1h-1z M10,14h1v1h-1z M11,14h1v1h-1z M12,14h1v1h-1z M13,14h1v1h-1z M14,14h1v1h-1z M15,14h1v1h-1z M24,14h1v1h-1z M26,14h1v1h-1z M28,14h1v1h-1z M29,14h1v1h-1z M36,14h1v1h-1z M38,14h1v1h-1z M39,14h1v1h-1z M41,14h1v1h-1z M44,14h1v1h-1z M47,14h1v1h-1z M50,14h1v1h-1z M55,14h1v1h-1z M56,14h1v1h-1z M62,14h1v1h-1z M64,14h1v1h-1z M65,14h1v1h-1z M68,14h1v1h-1z M69,14h1v1h-1z M74,14h1v1h-1z M75,14h1v1h-1z M76,14h1v1h-1z M77,14h1v1h-1z M86,14h1v1h-1z M87,14h1v1h-1z M88,14h1v1h-1z M89,14h1v1h-1z M92,14h1v1h-1z M93,14h1v1h-1z M95,14h1v1h-1z M98,14h1v1h-1z M99,14h1v1h-1z M100,14h1v1h-1z M103,14h1v1h-1z M104,14h1v1h-1z M106,14h1v1h-1z M6,15h1v1h-1z M7,15h1v1h-1z M8,15h1v1h-1z M11,15h1v1h-1z M13,15h1v1h-1z M14,15h1v1h-1z M16,15h1v1h-1z M18,15h1v1h-1z M23,15h1v1h-1z M24,15h1v1h-1z M25,15h1v1h-1z M27,15h1v1h-1z M32,15h1v1h-1z M34,15h1v1h-1z M35,15h1v1h-1z M37,15h1v1h-1z M41,15h1v1h-1z M42,15h1v1h-1z M44,15h1v1h-1z M45,15h1v1h-1z M47,15h1v1h-1z M50,15h1v1h-1z M51,15h1v1h-1z M52,15h1v1h-1z M53,15h1v1h-1z M54,15h1v1h-1z M56,15h1v1h-1z M57,15h1v1h-1z M59,15h1v1h-1z M61,15h1v1h-1z M62,15h1v1h-1z M65,15h1v1h-1z M68,15h1v1h-1z M69,15h1v1h-1z M70,15h1v1h-1z M71,15h1v1h-1z M73,15h1v1h-1z M75,15h1v1h-1z M76,15h1v1h-1z M80,15h1v1h-1z M83,15h1v1h-1z M85,15h1v1h-1z M86,15h1v1h-1z M87,15h1v1h-1z M89,15h1v1h-1z M92,15h1v1h-1z M94,15h1v1h-1z M95,15h1v1h-1z M100,15h1v1h-1z M101,15h1v1h-1z M6,16h1v1h-1z M7,16h1v1h-1z M10,16h1v1h-1z M11,16h1v1h-1z M14,16h1v1h-1z M15,16h1v1h-1z M17,16h1v1h-1z M20,16h1v1h-1z M22,16h1v1h-1z M23,16h1v1h-1z M24,16h1v1h-1z M26,16h1v1h-1z M30,16h1v1h-1z M32,16h1v1h-1z M36,16h1v1h-1z M37,16h1v1h-1z M38,16h1v1h-1z M39,16h1v1h-1z M40,16h1v1h-1z M42,16h1v1h-1z M46,16h1v1h-1z M49,16h1v1h-1z M52,16h1v1h-1z M54,16h1v1h-1z M56,16h1v1h-1z M58,16h1v1h-1z M59,16h1v1h-1z M61,16h1v1h-1z M66,16h1v1h-1z M69,16h1v1h-1z M70,16h1v1h-1z M71,16h1v1h-1z M73,16h1v1h-1z M76,16h1v1h-1z M77,16h1v1h-1z M78,16h1v1h-1z M79,16h1v1h-1z M82,16h1v1h-1z M85,16h1v1h-1z M88,16h1v1h-1z M90,16h1v1h-1z M91,16h1v1h-1z M100,16h1v1h-1z M104,16h1v1h-1z M106,16h1v1h-1z M107,16h1v1h-1z M108,16h1v1h-1z M5,17h1v1h-1z M6,17h1v1h-1z M9,17h1v1h-1z M11,17h1v1h-1z M14,17h1v1h-1z M15,17h1v1h-1z M16,17h1v1h-1z M19,17h1v1h-1z M20,17h1v1h-1z M21,17h1v1h-1z M23,17h1v1h-1z M24,17h1v1h-1z M28,17h1v1h-1z M31,17h1v1h-1z M32,17h1v1h-1z M33,17h1v1h-1z M34,17h1v1h-1z M36,17h1v1h-1z M37,17h1v1h-1z M39,17h1v1h-1z M40,17h1v1h-1z M41,17h1v1h-1z M42,17h1v1h-1z M45,17h1v1h-1z M46,17h1v1h-1z M47,17h1v1h-1z M48,17h1v1h-1z M49,17h1v1h-1z M51,17h1v1h-1z M52,17h1v1h-1z M53,17h1v1h-1z M54,17h1v1h-1z M59,17h1v1h-1z M64,17h1v1h-1z M65,17h1v1h-1z M67,17h1v1h-1z M69,17h1v1h-1z M71,17h1v1h-1z M73,17h1v1h-1z M75,17h1v1h-1z M76,17h1v1h-1z M80,17h1v1h-1z M84,17h1v1h-1z M90,17h1v1h-1z M98,17h1v1h-1z M99,17h1v1h-1z M102,17h1v1h-1z M103,17h1v1h-1z M104,17h1v1h-1z M105,17h1v1h-1z M106,17h1v1h-1z M107,17h1v1h-1z M4,18h1v1h-1z M5,18h1v1h-1z M9,18h1v1h-1z M10,18h1v1h-1z M11,18h1v1h-1z M12,18h1v1h-1z M13,18h1v1h-1z M16,18h1v1h-1z M17,18h1v1h-1z M18,18h1v1h-1z M19,18h1v1h-1z M20,18h1v1h-1z M21,18h1v1h-1z M23,18h1v1h-1z M24,18h1v1h-1z M26,18h1v1h-1z M29,18h1v1h-1z M38,18h1v1h-1z M39,18h1v1h-1z M40,18h1v1h-1z M41,18h1v1h-1z M50,18h1v1h-1z M53,18h1v1h-1z M59,18h1v1h-1z M60,18h1v1h-1z M62,18h1v1h-1z M65,18h1v1h-1z M67,18h1v1h-1z M72,18h1v1h-1z M73,18h1v1h-1z M74,18h1v1h-1z M76,18h1v1h-1z M86,18h1v1h-1z M87,18h1v1h-1z M88,18h1v1h-1z M96,18h1v1h-1z M97,18h1v1h-1z M98,18h1v1h-1z M99,18h1v1h-1z M103,18h1v1h-1z M104,18h1v1h-1z M107,18h1v1h-1z M4,19h1v1h-1z M6,19h1v1h-1z M7,19h1v1h-1z M8,19h1v1h-1z M9,19h1v1h-1z M14,19h1v1h-1z M15,19h1v1h-1z M17,19h1v1h-1z M20,19h1v1h-1z M21,19h1v1h-1z M25,19h1v1h-1z M26,19h1v1h-1z M27,19h1v1h-1z M29,19h1v1h-1z M30,19h1v1h-1z M32,19h1v1h-1z M33,19h1v1h-1z M34,19h1v1h-1z M35,19h1v1h-1z M37,19h1v1h-1z M39,19h1v1h-1z M41,19h1v1h-1z M44,19h1v1h-1z M45,19h1v1h-1z M47,19h1v1h-1z M51,19h1v1h-1z M52,19h1v1h-1z M54,19h1v1h-1z M55,19h1v1h-1z M56,19h1v1h-1z M57,19h1v1h-1z M58,19h1v1h-1z M59,19h1v1h-1z M62,19h1v1h-1z M68,19h1v1h-1z M70,19h1v1h-1z M71,19h1v1h-1z M75,19h1v1h-1z M77,19h1v1h-1z M78,19h1v1h-1z M79,19h1v1h-1z M80,19h1v1h-1z M83,19h1v1h-1z M85,19h1v1h-1z M90,19h1v1h-1z M92,19h1v1h-1z M93,19h1v1h-1z M94,19h1v1h-1z M95,19h1v1h-1z M97,19h1v1h-1z M99,19h1v1h-1z M101,19h1v1h-1z M103,19h1v1h-1z M104,19h1v1h-1z M107,19h1v1h-1z M108,19h1v1h-1z M4,20h1v1h-1z M6,20h1v1h-1z M7,20h1v1h-1z M8,20h1v1h-1z M10,20h1v1h-1z M12,20h1v1h-1z M15,20h1v1h-1z M19,20h1v1h-1z M20,20h1v1h-1z M21,20h1v1h-1z M22,20h1v1h-1z M24,20h1v1h-1z M25,20h1v1h-1z M26,20h1v1h-1z M27,20h1v1h-1z M28,20h1v1h-1z M29,20h1v1h-1z M31,20h1v1h-1z M33,20h1v1h-1z M34,20h1v1h-1z M43,20h1v1h-1z M44,20h1v1h-1z M45,20h1v1h-1z M48,20h1v1h-1z M49,20h1v1h-1z M51,20h1v1h-1z M52,20h1v1h-1z M54,20h1v1h-1z M55,20h1v1h-1z M57,20h1v1h-1z M59,20h1v1h-1z M61,20h1v1h-1z M67,20h1v1h-1z M69,20h1v1h-1z M72,20h1v1h-1z M73,20h1v1h-1z M75,20h1v1h-1z M77,20h1v1h-1z M79,20h1v1h-1z M81,20h1v1h-1z M82,20h1v1h-1z M83,20h1v1h-1z M85,20h1v1h-1z M90,20h1v1h-1z M91,20h1v1h-1z M94,20h1v1h-1z M95,20h1v1h-1z M96,20h1v1h-1z M97,20h1v1h-1z M99,20h1v1h-1z M100,20h1v1h-1z M102,20h1v1h-1z M103,20h1v1h-1z M106,20h1v1h-1z M6,21h1v1h-1z M7,21h1v1h-1z M8,21h1v1h-1z M11,21h1v1h-1z M13,21h1v1h-1z M14,21h1v1h-1z M19,21h1v1h-1z M21,21h1v1h-1z M23,21h1v1h-1z M25,21h1v1h-1z M26,21h1v1h-1z M27,21h1v1h-1z M28,21h1v1h-1z M31,21h1v1h-1z M34,21h1v1h-1z M38,21h1v1h-1z M40,21h1v1h-1z M43,21h1v1h-1z M45,21h1v1h-1z M47,21h1v1h-1z M51,21h1v1h-1z M52,21h1v1h-1z M57,21h1v1h-1z M61,21h1v1h-1z M62,21h1v1h-1z M68,21h1v1h-1z M69,21h1v1h-1z M70,21h1v1h-1z M71,21h1v1h-1z M72,21h1v1h-1z M73,21h1v1h-1z M76,21h1v1h-1z M77,21h1v1h-1z M79,21h1v1h-1z M82,21h1v1h-1z M83,21h1v1h-1z M85,21h1v1h-1z M88,21h1v1h-1z M90,21h1v1h-1z M92,21h1v1h-1z M93,21h1v1h-1z M94,21h1v1h-1z M96,21h1v1h-1z M100,21h1v1h-1z M104,21h1v1h-1z M105,21h1v1h-1z M106,21h1v1h-1z M108,21h1v1h-1z M4,22h1v1h-1z M5,22h1v1h-1z M6,22h1v1h-1z M7,22h1v1h-1z M10,22h1v1h-1z M13,22h1v1h-1z M16,22h1v1h-1z M20,22h1v1h-1z M21,22h1v1h-1z M24,22h1v1h-1z M26,22h1v1h-1z M28,22h1v1h-1z M29,22h1v1h-1z M35,22h1v1h-1z M37,22h1v1h-1z M38,22h1v1h-1z M39,22h1v1h-1z M43,22h1v1h-1z M44,22h1v1h-1z M48,22h1v1h-1z M50,22h1v1h-1z M52,22h1v1h-1z M53,22h1v1h-1z M55,22h1v1h-1z M56,22h1v1h-1z M62,22h1v1h-1z M63,22h1v1h-1z M64,22h1v1h-1z M67,22h1v1h-1z M72,22h1v1h-1z M73,22h1v1h-1z M74,22h1v1h-1z M76,22h1v1h-1z M77,22h1v1h-1z M83,22h1v1h-1z M84,22h1v1h-1z M86,22h1v1h-1z M87,22h1v1h-1z M88,22h1v1h-1z M92,22h1v1h-1z M95,22h1v1h-1z M96,22h1v1h-1z M98,22h1v1h-1z M99,22h1v1h-1z M104,22h1v1h-1z M105,22h1v1h-1z M107,22h1v1h-1z M5,23h1v1h-1z M9,23h1v1h-1z M14,23h1v1h-1z M15,23h1v1h-1z M16,23h1v1h-1z M17,23h1v1h-1z M20,23h1v1h-1z M21,23h1v1h-1z M22,23h1v1h-1z M23,23h1v1h-1z M25,23h1v1h-1z M27,23h1v1h-1z M29,23h1v1h-1z M31,23h1v1h-1z M32,23h1v1h-1z M34,23h1v1h-1z M35,23h1v1h-1z M41,23h1v1h-1z M42,23h1v1h-1z M44,23h1v1h-1z M49,23h1v1h-1z M50,23h1v1h-1z M51,23h1v1h-1z M56,23h1v1h-1z M58,23h1v1h-1z M59,23h1v1h-1z M65,23h1v1h-1z M66,23h1v1h-1z M68,23h1v1h-1z M69,23h1v1h-1z M71,23h1v1h-1z M75,23h1v1h-1z M78,23h1v1h-1z M79,23h1v1h-1z M80,23h1v1h-1z M83,23h1v1h-1z M85,23h1v1h-1z M86,23h1v1h-1z M89,23h1v1h-1z M90,23h1v1h-1z M92,23h1v1h-1z M94,23h1v1h-1z M100,23h1v1h-1z M101,23h1v1h-1z M104,23h1v1h-1z M107,23h1v1h-1z M108,23h1v1h-1z M5,24h1v1h-1z M10,24h1v1h-1z M13,24h1v1h-1z M17,24h1v1h-1z M18,24h1v1h-1z M20,24h1v1h-1z M21,24h1v1h-1z M22,24h1v1h-1z M25,24h1v1h-1z M30,24h1v1h-1z M35,24h1v1h-1z M37,24h1v1h-1z M38,24h1v1h-1z M39,24h1v1h-1z M40,24h1v1h-1z M41,24h1v1h-1z M42,24h1v1h-1z M43,24h1v1h-1z M44,24h1v1h-1z M45,24h1v1h-1z M46,24h1v1h-1z M47,24h1v1h-1z M50,24h1v1h-1z M51,24h1v1h-1z M53,24h1v1h-1z M54,24h1v1h-1z M55,24h1v1h-1z M57,24h1v1h-1z M58,24h1v1h-1z M60,24h1v1h-1z M61,24h1v1h-1z M63,24h1v1h-1z M64,24h1v1h-1z M67,24h1v1h-1z M69,24h1v1h-1z M70,24h1v1h-1z M72,24h1v1h-1z M73,24h1v1h-1z M75,24h1v1h-1z M76,24h1v1h-1z M80,24h1v1h-1z M82,24h1v1h-1z M83,24h1v1h-1z M84,24h1v1h-1z M87,24h1v1h-1z M89,24h1v1h-1z M90,24h1v1h-1z M95,24h1v1h-1z M96,24h1v1h-1z M97,24h1v1h-1z M98,24h1v1h-1z M99,24h1v1h-1z M100,24h1v1h-1z M101,24h1v1h-1z M102,24h1v1h-1z M108,24h1v1h-1z M5,25h1v1h-1z M6,25h1v1h-1z M7,25h1v1h-1z M8,25h1v1h-1z M9,25h1v1h-1z M11,25h1v1h-1z M13,25h1v1h-1z M14,25h1v1h-1z M15,25h1v1h-1z M16,25h1v1h-1z M17,25h1v1h-1z M23,25h1v1h-1z M24,25h1v1h-1z M27,25h1v1h-1z M28,25h1v1h-1z M30,25h1v1h-1z M31,25h1v1h-1z M34,25h1v1h-1z M35,25h1v1h-1z M36,25h1v1h-1z M37,25h1v1h-1z M38,25h1v1h-1z M43,25h1v1h-1z M44,25h1v1h-1z M45,25h1v1h-1z M47,25h1v1h-1z M48,25h1v1h-1z M52,25h1v1h-1z M53,25h1v1h-1z M55,25h1v1h-1z M59,25h1v1h-1z M61,25h1v1h-1z M62,25h1v1h-1z M63,25h1v1h-1z M64,25h1v1h-1z M67,25h1v1h-1z M68,25h1v1h-1z M70,25h1v1h-1z M72,25h1v1h-1z M73,25h1v1h-1z M75,25h1v1h-1z M76,25h1v1h-1z M77,25h1v1h-1z M78,25h1v1h-1z M79,25h1v1h-1z M83,25h1v1h-1z M84,25h1v1h-1z M85,25h1v1h-1z M87,25h1v1h-1z M88,25h1v1h-1z M90,25h1v1h-1z M96,25h1v1h-1z M97,25h1v1h-1z M101,25h1v1h-1z M105,25h1v1h-1z M106,25h1v1h-1z M108,25h1v1h-1z M7,26h1v1h-1z M8,26h1v1h-1z M9,26h1v1h-1z M10,26h1v1h-1z M11,26h1v1h-1z M12,26h1v1h-1z M13,26h1v1h-1z M16,26h1v1h-1z M21,26h1v1h-1z M22,26h1v1h-1z M23,26h1v1h-1z M24,26h1v1h-1z M26,26h1v1h-1z M28,26h1v1h-1z M29,26h1v1h-1z M33,26h1v1h-1z M35,26h1v1h-1z M38,26h1v1h-1z M39,26h1v1h-1z M41,26h1v1h-1z M50,26h1v1h-1z M55,26h1v1h-1z M56,26h1v1h-1z M60,26h1v1h-1z M62,26h1v1h-1z M63,26h1v1h-1z M64,26h1v1h-1z M65,26h1v1h-1z M67,26h1v1h-1z M68,26h1v1h-1z M72,26h1v1h-1z M74,26h1v1h-1z M76,26h1v1h-1z M77,26h1v1h-1z M79,26h1v1h-1z M80,26h1v1h-1z M81,26h1v1h-1z M84,26h1v1h-1z M85,26h1v1h-1z M86,26h1v1h-1z M87,26h1v1h-1z M88,26h1v1h-1z M89,26h1v1h-1z M97,26h1v1h-1z M98,26h1v1h-1z M101,26h1v1h-1z M102,26h1v1h-1z M104,26h1v1h-1z M107,26h1v1h-1z M5,27h1v1h-1z M6,27h1v1h-1z M9,27h1v1h-1z M11,27h1v1h-1z M13,27h1v1h-1z M15,27h1v1h-1z M16,27h1v1h-1z M21,27h1v1h-1z M24,27h1v1h-1z M25,27h1v1h-1z M31,27h1v1h-1z M32,27h1v1h-1z M34,27h1v1h-1z M35,27h1v1h-1z M37,27h1v1h-1z M41,27h1v1h-1z M43,27h1v1h-1z M44,27h1v1h-1z M45,27h1v1h-1z M47,27h1v1h-1z M50,27h1v1h-1z M51,27h1v1h-1z M52,27h1v1h-1z M54,27h1v1h-1z M56,27h1v1h-1z M57,27h1v1h-1z M58,27h1v1h-1z M59,27h1v1h-1z M68,27h1v1h-1z M71,27h1v1h-1z M80,27h1v1h-1z M82,27h1v1h-1z M83,27h1v1h-1z M89,27h1v1h-1z M91,27h1v1h-1z M92,27h1v1h-1z M93,27h1v1h-1z M94,27h1v1h-1z M95,27h1v1h-1z M99,27h1v1h-1z M100,27h1v1h-1z M103,27h1v1h-1z M104,27h1v1h-1z M105,27h1v1h-1z M108,27h1v1h-1z M7,28h1v1h-1z M8,28h1v1h-1z M9,28h1v1h-1z M10,28h1v1h-1z M11,28h1v1h-1z M12,28h1v1h-1z M14,28h1v1h-1z M17,28h1v1h-1z M19,28h1v1h-1z M20,28h1v1h-1z M21,28h1v1h-1z M24,28h1v1h-1z M28,28h1v1h-1z M29,28h1v1h-1z M30,28h1v1h-1z M31,28h1v1h-1z M32,28h1v1h-1z M33,28h1v1h-1z M35,28h1v1h-1z M36,28h1v1h-1z M37,28h1v1h-1z M38,28h1v1h-1z M40,28h1v1h-1z M42,28h1v1h-1z M45,28h1v1h-1z M46,28h1v1h-1z M47,28h1v1h-1z M49,28h1v1h-1z M51,28h1v1h-1z M52,28h1v1h-1z M53,28h1v1h-1z M54,28h1v1h-1z M55,28h1v1h-1z M56,28h1v1h-1z M57,28h1v1h-1z M58,28h1v1h-1z M59,28h1v1h-1z M60,28h1v1h-1z M61,28h1v1h-1z M63,28h1v1h-1z M64,28h1v1h-1z M66,28h1v1h-1z M76,28h1v1h-1z M77,28h1v1h-1z M78,28h1v1h-1z M79,28h1v1h-1z M80,28h1v1h-1z M81,28h1v1h-1z M86,28h1v1h-1z M88,28h1v1h-1z M90,28h1v1h-1z M91,28h1v1h-1z M92,28h1v1h-1z M95,28h1v1h-1z M96,28h1v1h-1z M99,28h1v1h-1z M100,28h1v1h-1z M101,28h1v1h-1z M102,28h1v1h-1z M103,28h1v1h-1z M104,28h1v1h-1z M108,28h1v1h-1z M4,29h1v1h-1z M7,29h1v1h-1z M8,29h1v1h-1z M12,29h1v1h-1z M13,29h1v1h-1z M16,29h1v1h-1z M21,29h1v1h-1z M23,29h1v1h-1z M28,29h1v1h-1z M32,29h1v1h-1z M33,29h1v1h-1z M34,29h1v1h-1z M35,29h1v1h-1z M37,29h1v1h-1z M38,29h1v1h-1z M39,29h1v1h-1z M41,29h1v1h-1z M42,29h1v1h-1z M48,29h1v1h-1z M49,29h1v1h-1z M51,29h1v1h-1z M52,29h1v1h-1z M56,29h1v1h-1z M57,29h1v1h-1z M58,29h1v1h-1z M59,29h1v1h-1z M63,29h1v1h-1z M64,29h1v1h-1z M68,29h1v1h-1z M70,29h1v1h-1z M71,29h1v1h-1z M72,29h1v1h-1z M73,29h1v1h-1z M74,29h1v1h-1z M75,29h1v1h-1z M76,29h1v1h-1z M80,29h1v1h-1z M81,29h1v1h-1z M82,29h1v1h-1z M83,29h1v1h-1z M84,29h1v1h-1z M85,29h1v1h-1z M86,29h1v1h-1z M89,29h1v1h-1z M90,29h1v1h-1z M91,29h1v1h-1z M94,29h1v1h-1z M96,29h1v1h-1z M97,29h1v1h-1z M98,29h1v1h-1z M100,29h1v1h-1z M104,29h1v1h-1z M105,29h1v1h-1z M106,29h1v1h-1z M108,29h1v1h-1z M5,30h1v1h-1z M6,30h1v1h-1z M8,30h1v1h-1z M10,30h1v1h-1z M12,30h1v1h-1z M13,30h1v1h-1z M15,30h1v1h-1z M17,30h1v1h-1z M19,30h1v1h-1z M23,30h1v1h-1z M26,30h1v1h-1z M28,30h1v1h-1z M30,30h1v1h-1z M32,30h1v1h-1z M33,30h1v1h-1z M35,30h1v1h-1z M36,30h1v1h-1z M38,30h1v1h-1z M40,30h1v1h-1z M50,30h1v1h-1z M52,30h1v1h-1z M54,30h1v1h-1z M56,30h1v1h-1z M60,30h1v1h-1z M62,30h1v1h-1z M63,30h1v1h-1z M65,30h1v1h-1z M67,30h1v1h-1z M71,30h1v1h-1z M72,30h1v1h-1z M74,30h1v1h-1z M76,30h1v1h-1z M78,30h1v1h-1z M80,30h1v1h-1z M81,30h1v1h-1z M83,30h1v1h-1z M84,30h1v1h-1z M86,30h1v1h-1z M88,30h1v1h-1z M89,30h1v1h-1z M93,30h1v1h-1z M98,30h1v1h-1z M100,30h1v1h-1z M102,30h1v1h-1z M104,30h1v1h-1z M105,30h1v1h-1z M106,30h1v1h-1z M107,30h1v1h-1z M5,31h1v1h-1z M7,31h1v1h-1z M8,31h1v1h-1z M12,31h1v1h-1z M13,31h1v1h-1z M15,31h1v1h-1z M16,31h1v1h-1z M17,31h1v1h-1z M18,31h1v1h-1z M21,31h1v1h-1z M22,31h1v1h-1z M23,31h1v1h-1z M25,31h1v1h-1z M26,31h1v1h-1z M27,31h1v1h-1z M28,31h1v1h-1z M32,31h1v1h-1z M34,31h1v1h-1z M38,31h1v1h-1z M42,31h1v1h-1z M43,31h1v1h-1z M44,31h1v1h-1z M46,31h1v1h-1z M47,31h1v1h-1z M49,31h1v1h-1z M51,31h1v1h-1z M52,31h1v1h-1z M56,31h1v1h-1z M57,31h1v1h-1z M58,31h1v1h-1z M59,31h1v1h-1z M61,31h1v1h-1z M62,31h1v1h-1z M66,31h1v1h-1z M68,31h1v1h-1z M69,31h1v1h-1z M73,31h1v1h-1z M74,31h1v1h-1z M75,31h1v1h-1z M76,31h1v1h-1z M80,31h1v1h-1z M82,31h1v1h-1z M83,31h1v1h-1z M86,31h1v1h-1z M89,31h1v1h-1z M92,31h1v1h-1z M94,31h1v1h-1z M95,31h1v1h-1z M97,31h1v1h-1z M99,31h1v1h-1z M100,31h1v1h-1z M104,31h1v1h-1z M8,32h1v1h-1z M9,32h1v1h-1z M10,32h1v1h-1z M11,32h1v1h-1z M12,32h1v1h-1z M13,32h1v1h-1z M14,32h1v1h-1z M15,32h1v1h-1z M20,32h1v1h-1z M21,32h1v1h-1z M22,32h1v1h-1z M23,32h1v1h-1z M25,32h1v1h-1z M26,32h1v1h-1z M27,32h1v1h-1z M28,32h1v1h-1z M29,32h1v1h-1z M30,32h1v1h-1z M31,32h1v1h-1z M32,32h1v1h-1z M33,32h1v1h-1z M35,32h1v1h-1z M36,32h1v1h-1z M39,32h1v1h-1z M42,32h1v1h-1z M44,32h1v1h-1z M45,32h1v1h-1z M48,32h1v1h-1z M50,32h1v1h-1z M51,32h1v1h-1z M52,32h1v1h-1z M53,32h1v1h-1z M54,32h1v1h-1z M55,32h1v1h-1z M56,32h1v1h-1z M58,32h1v1h-1z M59,32h1v1h-1z M62,32h1v1h-1z M63,32h1v1h-1z M75,32h1v1h-1z M76,32h1v1h-1z M77,32h1v1h-1z M78,32h1v1h-1z M79,32h1v1h-1z M80,32h1v1h-1z M82,32h1v1h-1z M84,32h1v1h-1z M89,32h1v1h-1z M93,32h1v1h-1z M96,32h1v1h-1z M97,32h1v1h-1z M99,32h1v1h-1z M100,32h1v1h-1z M101,32h1v1h-1z M102,32h1v1h-1z M103,32h1v1h-1z M104,32h1v1h-1z M105,32h1v1h-1z M107,32h1v1h-1z M108,32h1v1h-1z M6,33h1v1h-1z M7,33h1v1h-1z M14,33h1v1h-1z M19,33h1v1h-1z M20,33h1v1h-1z M21,33h1v1h-1z M23,33h1v1h-1z M26,33h1v1h-1z M27,33h1v1h-1z M28,33h1v1h-1z M29,33h1v1h-1z M30,33h1v1h-1z M32,33h1v1h-1z M33,33h1v1h-1z M37,33h1v1h-1z M38,33h1v1h-1z M40,33h1v1h-1z M41,33h1v1h-1z M42,33h1v1h-1z M44,33h1v1h-1z M45,33h1v1h-1z M48,33h1v1h-1z M50,33h1v1h-1z M55,33h1v1h-1z M56,33h1v1h-1z M57,33h1v1h-1z M60,33h1v1h-1z M64,33h1v1h-1z M65,33h1v1h-1z M68,33h1v1h-1z M70,33h1v1h-1z M72,33h1v1h-1z M73,33h1v1h-1z M74,33h1v1h-1z M76,33h1v1h-1z M77,33h1v1h-1z M78,33h1v1h-1z M83,33h1v1h-1z M86,33h1v1h-1z M88,33h1v1h-1z M91,33h1v1h-1z M95,33h1v1h-1z M98,33h1v1h-1z M99,33h1v1h-1z M103,33h1v1h-1z M104,33h1v1h-1z M106,33h1v1h-1z M108,33h1v1h-1z M6,34h1v1h-1z M7,34h1v1h-1z M10,34h1v1h-1z M12,34h1v1h-1z M15,34h1v1h-1z M16,34h1v1h-1z M18,34h1v1h-1z M22,34h1v1h-1z M24,34h1v1h-1z M28,34h1v1h-1z M29,34h1v1h-1z M32,34h1v1h-1z M33,34h1v1h-1z M36,34h1v1h-1z M38,34h1v1h-1z M40,34h1v1h-1z M43,34h1v1h-1z M44,34h1v1h-1z M47,34h1v1h-1z M48,34h1v1h-1z M50,34h1v1h-1z M51,34h1v1h-1z M52,34h1v1h-1z M54,34h1v1h-1z M55,34h1v1h-1z M56,34h1v1h-1z M59,34h1v1h-1z M60,34h1v1h-1z M62,34h1v1h-1z M63,34h1v1h-1z M65,34h1v1h-1z M72,34h1v1h-1z M74,34h1v1h-1z M75,34h1v1h-1z M77,34h1v1h-1z M78,34h1v1h-1z M79,34h1v1h-1z M80,34h1v1h-1z M83,34h1v1h-1z M84,34h1v1h-1z M86,34h1v1h-1z M88,34h1v1h-1z M89,34h1v1h-1z M91,34h1v1h-1z M92,34h1v1h-1z M96,34h1v1h-1z M98,34h1v1h-1z M99,34h1v1h-1z M100,34h1v1h-1z M101,34h1v1h-1z M102,34h1v1h-1z M103,34h1v1h-1z M104,34h1v1h-1z M105,34h1v1h-1z M107,34h1v1h-1z M7,35h1v1h-1z M8,35h1v1h-1z M12,35h1v1h-1z M13,35h1v1h-1z M14,35h1v1h-1z M16,35h1v1h-1z M17,35h1v1h-1z M18,35h1v1h-1z M19,35h1v1h-1z M20,35h1v1h-1z M21,35h1v1h-1z M24,35h1v1h-1z M25,35h1v1h-1z M26,35h1v1h-1z M28,35h1v1h-1z M31,35h1v1h-1z M32,35h1v1h-1z M33,35h1v1h-1z M34,35h1v1h-1z M35,35h1v1h-1z M37,35h1v1h-1z M42,35h1v1h-1z M44,35h1v1h-1z M49,35h1v1h-1z M50,35h1v1h-1z M53,35h1v1h-1z M56,35h1v1h-1z M59,35h1v1h-1z M61,35h1v1h-1z M62,35h1v1h-1z M65,35h1v1h-1z M68,35h1v1h-1z M70,35h1v1h-1z M71,35h1v1h-1z M73,35h1v1h-1z M76,35h1v1h-1z M77,35h1v1h-1z M79,35h1v1h-1z M81,35h1v1h-1z M83,35h1v1h-1z M92,35h1v1h-1z M93,35h1v1h-1z M94,35h1v1h-1z M95,35h1v1h-1z M97,35h1v1h-1z M98,35h1v1h-1z M99,35h1v1h-1z M100,35h1v1h-1z M101,35h1v1h-1z M102,35h1v1h-1z M104,35h1v1h-1z M108,35h1v1h-1z M5,36h1v1h-1z M6,36h1v1h-1z M8,36h1v1h-1z M10,36h1v1h-1z M11,36h1v1h-1z M17,36h1v1h-1z M18,36h1v1h-1z M20,36h1v1h-1z M22,36h1v1h-1z M23,36h1v1h-1z M25,36h1v1h-1z M26,36h1v1h-1z M29,36h1v1h-1z M31,36h1v1h-1z M35,36h1v1h-1z M36,36h1v1h-1z M38,36h1v1h-1z M40,36h1v1h-1z M41,36h1v1h-1z M42,36h1v1h-1z M43,36h1v1h-1z M44,36h1v1h-1z M45,36h1v1h-1z M46,36h1v1h-1z M47,36h1v1h-1z M48,36h1v1h-1z M52,36h1v1h-1z M53,36h1v1h-1z M54,36h1v1h-1z M55,36h1v1h-1z M57,36h1v1h-1z M59,36h1v1h-1z M64,36h1v1h-1z M71,36h1v1h-1z M72,36h1v1h-1z M76,36h1v1h-1z M77,36h1v1h-1z M79,36h1v1h-1z M82,36h1v1h-1z M87,36h1v1h-1z M90,36h1v1h-1z M93,36h1v1h-1z M94,36h1v1h-1z M96,36h1v1h-1z M100,36h1v1h-1z M101,36h1v1h-1z M102,36h1v1h-1z M103,36h1v1h-1z M104,36h1v1h-1z M106,36h1v1h-1z M107,36h1v1h-1z M4,37h1v1h-1z M12,37h1v1h-1z M13,37h1v1h-1z M14,37h1v1h-1z M15,37h1v1h-1z M17,37h1v1h-1z M18,37h1v1h-1z M21,37h1v1h-1z M22,37h1v1h-1z M23,37h1v1h-1z M24,37h1v1h-1z M26,37h1v1h-1z M27,37h1v1h-1z M30,37h1v1h-1z M32,37h1v1h-1z M35,37h1v1h-1z M38,37h1v1h-1z M42,37h1v1h-1z M46,37h1v1h-1z M47,37h1v1h-1z M53,37h1v1h-1z M54,37h1v1h-1z M60,37h1v1h-1z M61,37h1v1h-1z M63,37h1v1h-1z M64,37h1v1h-1z M67,37h1v1h-1z M69,37h1v1h-1z M70,37h1v1h-1z M72,37h1v1h-1z M74,37h1v1h-1z M75,37h1v1h-1z M76,37h1v1h-1z M77,37h1v1h-1z M78,37h1v1h-1z M80,37h1v1h-1z M81,37h1v1h-1z M85,37h1v1h-1z M87,37h1v1h-1z M89,37h1v1h-1z M91,37h1v1h-1z M92,37h1v1h-1z M94,37h1v1h-1z M96,37h1v1h-1z M98,37h1v1h-1z M100,37h1v1h-1z M105,37h1v1h-1z M106,37h1v1h-1z M5,38h1v1h-1z M6,38h1v1h-1z M7,38h1v1h-1z M9,38h1v1h-1z M10,38h1v1h-1z M11,38h1v1h-1z M12,38h1v1h-1z M14,38h1v1h-1z M16,38h1v1h-1z M18,38h1v1h-1z M19,38h1v1h-1z M22,38h1v1h-1z M24,38h1v1h-1z M29,38h1v1h-1z M30,38h1v1h-1z M36,38h1v1h-1z M38,38h1v1h-1z M39,38h1v1h-1z M44,38h1v1h-1z M50,38h1v1h-1z M51,38h1v1h-1z M52,38h1v1h-1z M56,38h1v1h-1z M57,38h1v1h-1z M59,38h1v1h-1z M61,38h1v1h-1z M62,38h1v1h-1z M63,38h1v1h-1z M65,38h1v1h-1z M71,38h1v1h-1z M72,38h1v1h-1z M74,38h1v1h-1z M75,38h1v1h-1z M78,38h1v1h-1z M80,38h1v1h-1z M84,38h1v1h-1z M86,38h1v1h-1z M88,38h1v1h-1z M89,38h1v1h-1z M91,38h1v1h-1z M92,38h1v1h-1z M96,38h1v1h-1z M98,38h1v1h-1z M100,38h1v1h-1z M103,38h1v1h-1z M104,38h1v1h-1z M105,38h1v1h-1z M106,38h1v1h-1z M107,38h1v1h-1z M4,39h1v1h-1z M6,39h1v1h-1z M7,39h1v1h-1z M8,39h1v1h-1z M9,39h1v1h-1z M11,39h1v1h-1z M12,39h1v1h-1z M13,39h1v1h-1z M15,39h1v1h-1z M16,39h1v1h-1z M17,39h1v1h-1z M18,39h1v1h-1z M19,39h1v1h-1z M23,39h1v1h-1z M27,39h1v1h-1z M28,39h1v1h-1z M29,39h1v1h-1z M33,39h1v1h-1z M34,39h1v1h-1z M35,39h1v1h-1z M38,39h1v1h-1z M41,39h1v1h-1z M42,39h1v1h-1z M44,39h1v1h-1z M45,39h1v1h-1z M46,39h1v1h-1z M47,39h1v1h-1z M50,39h1v1h-1z M51,39h1v1h-1z M52,39h1v1h-1z M56,39h1v1h-1z M58,39h1v1h-1z M59,39h1v1h-1z M65,39h1v1h-1z M68,39h1v1h-1z M69,39h1v1h-1z M70,39h1v1h-1z M73,39h1v1h-1z M74,39h1v1h-1z M75,39h1v1h-1z M76,39h1v1h-1z M81,39h1v1h-1z M82,39h1v1h-1z M83,39h1v1h-1z M85,39h1v1h-1z M87,39h1v1h-1z M90,39h1v1h-1z M92,39h1v1h-1z M93,39h1v1h-1z M94,39h1v1h-1z M95,39h1v1h-1z M97,39h1v1h-1z M98,39h1v1h-1z M99,39h1v1h-1z M101,39h1v1h-1z M102,39h1v1h-1z M104,39h1v1h-1z M105,39h1v1h-1z M108,39h1v1h-1z M6,40h1v1h-1z M7,40h1v1h-1z M8,40h1v1h-1z M9,40h1v1h-1z M10,40h1v1h-1z M12,40h1v1h-1z M13,40h1v1h-1z M15,40h1v1h-1z M16,40h1v1h-1z M18,40h1v1h-1z M19,40h1v1h-1z M20,40h1v1h-1z M21,40h1v1h-1z M22,40h1v1h-1z M24,40h1v1h-1z M25,40h1v1h-1z M26,40h1v1h-1z M28,40h1v1h-1z M29,40h1v1h-1z M34,40h1v1h-1z M35,40h1v1h-1z M39,40h1v1h-1z M40,40h1v1h-1z M41,40h1v1h-1z M44,40h1v1h-1z M50,40h1v1h-1z M52,40h1v1h-1z M55,40h1v1h-1z M58,40h1v1h-1z M59,40h1v1h-1z M60,40h1v1h-1z M67,40h1v1h-1z M72,40h1v1h-1z M73,40h1v1h-1z M81,40h1v1h-1z M82,40h1v1h-1z M84,40h1v1h-1z M87,40h1v1h-1z M90,40h1v1h-1z M91,40h1v1h-1z M96,40h1v1h-1z M99,40h1v1h-1z M102,40h1v1h-1z M103,40h1v1h-1z M105,40h1v1h-1z M107,40h1v1h-1z M108,40h1v1h-1z M5,41h1v1h-1z M7,41h1v1h-1z M11,41h1v1h-1z M12,41h1v1h-1z M13,41h1v1h-1z M16,41h1v1h-1z M17,41h1v1h-1z M18,41h1v1h-1z M19,41h1v1h-1z M21,41h1v1h-1z M24,41h1v1h-1z M26,41h1v1h-1z M27,41h1v1h-1z M28,41h1v1h-1z M29,41h1v1h-1z M31,41h1v1h-1z M32,41h1v1h-1z M33,41h1v1h-1z M35,41h1v1h-1z M37,41h1v1h-1z M42,41h1v1h-1z M43,41h1v1h-1z M46,41h1v1h-1z M47,41h1v1h-1z M49,41h1v1h-1z M52,41h1v1h-1z M53,41h1v1h-1z M57,41h1v1h-1z M59,41h1v1h-1z M60,41h1v1h-1z M62,41h1v1h-1z M63,41h1v1h-1z M64,41h1v1h-1z M66,41h1v1h-1z M69,41h1v1h-1z M70,41h1v1h-1z M72,41h1v1h-1z M75,41h1v1h-1z M77,41h1v1h-1z M78,41h1v1h-1z M79,41h1v1h-1z M81,41h1v1h-1z M82,41h1v1h-1z M85,41h1v1h-1z M87,41h1v1h-1z M88,41h1v1h-1z M89,41h1v1h-1z M90,41h1v1h-1z M91,41h1v1h-1z M92,41h1v1h-1z M94,41h1v1h-1z M95,41h1v1h-1z M99,41h1v1h-1z M104,41h1v1h-1z M105,41h1v1h-1z M106,41h1v1h-1z M107,41h1v1h-1z M6,42h1v1h-1z M7,42h1v1h-1z M10,42h1v1h-1z M11,42h1v1h-1z M14,42h1v1h-1z M16,42h1v1h-1z M17,42h1v1h-1z M19,42h1v1h-1z M21,42h1v1h-1z M22,42h1v1h-1z M23,42h1v1h-1z M25,42h1v1h-1z M26,42h1v1h-1z M27,42h1v1h-1z M31,42h1v1h-1z M33,42h1v1h-1z M35,42h1v1h-1z M38,42h1v1h-1z M39,42h1v1h-1z M41,42h1v1h-1z M43,42h1v1h-1z M44,42h1v1h-1z M48,42h1v1h-1z M49,42h1v1h-1z M50,42h1v1h-1z M54,42h1v1h-1z M55,42h1v1h-1z M56,42h1v1h-1z M62,42h1v1h-1z M64,42h1v1h-1z M65,42h1v1h-1z M68,42h1v1h-1z M74,42h1v1h-1z M78,42h1v1h-1z M79,42h1v1h-1z M85,42h1v1h-1z M86,42h1v1h-1z M87,42h1v1h-1z M88,42h1v1h-1z M89,42h1v1h-1z M91,42h1v1h-1z M93,42h1v1h-1z M98,42h1v1h-1z M100,42h1v1h-1z M101,42h1v1h-1z M103,42h1v1h-1z M104,42h1v1h-1z M106,42h1v1h-1z M107,42h1v1h-1z M4,43h1v1h-1z M5,43h1v1h-1z M8,43h1v1h-1z M13,43h1v1h-1z M18,43h1v1h-1z M19,43h1v1h-1z M22,43h1v1h-1z M26,43h1v1h-1z M29,43h1v1h-1z M32,43h1v1h-1z M34,43h1v1h-1z M35,43h1v1h-1z M37,43h1v1h-1z M38,43h1v1h-1z M44,43h1v1h-1z M45,43h1v1h-1z M46,43h1v1h-1z M47,43h1v1h-1z M51,43h1v1h-1z M52,43h1v1h-1z M53,43h1v1h-1z M57,43h1v1h-1z M59,43h1v1h-1z M61,43h1v1h-1z M62,43h1v1h-1z M65,43h1v1h-1z M66,43h1v1h-1z M68,43h1v1h-1z M71,43h1v1h-1z M73,43h1v1h-1z M74,43h1v1h-1z M76,43h1v1h-1z M77,43h1v1h-1z M81,43h1v1h-1z M83,43h1v1h-1z M85,43h1v1h-1z M92,43h1v1h-1z M93,43h1v1h-1z M94,43h1v1h-1z M95,43h1v1h-1z M97,43h1v1h-1z M99,43h1v1h-1z M101,43h1v1h-1z M104,43h1v1h-1z M105,43h1v1h-1z M108,43h1v1h-1z M4,44h1v1h-1z M7,44h1v1h-1z M9,44h1v1h-1z M10,44h1v1h-1z M12,44h1v1h-1z M15,44h1v1h-1z M17,44h1v1h-1z M19,44h1v1h-1z M25,44h1v1h-1z M26,44h1v1h-1z M28,44h1v1h-1z M29,44h1v1h-1z M31,44h1v1h-1z M35,44h1v1h-1z M38,44h1v1h-1z M39,44h1v1h-1z M40,44h1v1h-1z M41,44h1v1h-1z M43,44h1v1h-1z M45,44h1v1h-1z M46,44h1v1h-1z M47,44h1v1h-1z M48,44h1v1h-1z M50,44h1v1h-1z M53,44h1v1h-1z M54,44h1v1h-1z M55,44h1v1h-1z M59,44h1v1h-1z M62,44h1v1h-1z M64,44h1v1h-1z M65,44h1v1h-1z M66,44h1v1h-1z M69,44h1v1h-1z M70,44h1v1h-1z M71,44h1v1h-1z M72,44h1v1h-1z M74,44h1v1h-1z M76,44h1v1h-1z M77,44h1v1h-1z M78,44h1v1h-1z M79,44h1v1h-1z M83,44h1v1h-1z M84,44h1v1h-1z M85,44h1v1h-1z M86,44h1v1h-1z M89,44h1v1h-1z M97,44h1v1h-1z M100,44h1v1h-1z M101,44h1v1h-1z M102,44h1v1h-1z M4,45h1v1h-1z M12,45h1v1h-1z M13,45h1v1h-1z M15,45h1v1h-1z M16,45h1v1h-1z M17,45h1v1h-1z M18,45h1v1h-1z M19,45h1v1h-1z M20,45h1v1h-1z M21,45h1v1h-1z M23,45h1v1h-1z M24,45h1v1h-1z M25,45h1v1h-1z M30,45h1v1h-1z M31,45h1v1h-1z M32,45h1v1h-1z M33,45h1v1h-1z M34,45h1v1h-1z M35,45h1v1h-1z M37,45h1v1h-1z M38,45h1v1h-1z M39,45h1v1h-1z M40,45h1v1h-1z M44,45h1v1h-1z M46,45h1v1h-1z M47,45h1v1h-1z M51,45h1v1h-1z M52,45h1v1h-1z M55,45h1v1h-1z M58,45h1v1h-1z M62,45h1v1h-1z M66,45h1v1h-1z M67,45h1v1h-1z M71,45h1v1h-1z M76,45h1v1h-1z M77,45h1v1h-1z M78,45h1v1h-1z M80,45h1v1h-1z M82,45h1v1h-1z M83,45h1v1h-1z M84,45h1v1h-1z M85,45h1v1h-1z M86,45h1v1h-1z M87,45h1v1h-1z M88,45h1v1h-1z M89,45h1v1h-1z M90,45h1v1h-1z M91,45h1v1h-1z M92,45h1v1h-1z M93,45h1v1h-1z M97,45h1v1h-1z M98,45h1v1h-1z M99,45h1v1h-1z M101,45h1v1h-1z M105,45h1v1h-1z M106,45h1v1h-1z M107,45h1v1h-1z M4,46h1v1h-1z M5,46h1v1h-1z M6,46h1v1h-1z M10,46h1v1h-1z M12,46h1v1h-1z M13,46h1v1h-1z M14,46h1v1h-1z M16,46h1v1h-1z M17,46h1v1h-1z M18,46h1v1h-1z M19,46h1v1h-1z M21,46h1v1h-1z M23,46h1v1h-1z M28,46h1v1h-1z M30,46h1v1h-1z M32,46h1v1h-1z M33,46h1v1h-1z M35,46h1v1h-1z M36,46h1v1h-1z M38,46h1v1h-1z M39,46h1v1h-1z M40,46h1v1h-1z M41,46h1v1h-1z M43,46h1v1h-1z M44,46h1v1h-1z M50,46h1v1h-1z M52,46h1v1h-1z M54,46h1v1h-1z M55,46h1v1h-1z M56,46h1v1h-1z M59,46h1v1h-1z M60,46h1v1h-1z M62,46h1v1h-1z M64,46h1v1h-1z M68,46h1v1h-1z M71,46h1v1h-1z M74,46h1v1h-1z M83,46h1v1h-1z M84,46h1v1h-1z M86,46h1v1h-1z M87,46h1v1h-1z M89,46h1v1h-1z M95,46h1v1h-1z M96,46h1v1h-1z M98,46h1v1h-1z M100,46h1v1h-1z M104,46h1v1h-1z M105,46h1v1h-1z M106,46h1v1h-1z M107,46h1v1h-1z M4,47h1v1h-1z M12,47h1v1h-1z M16,47h1v1h-1z M17,47h1v1h-1z M18,47h1v1h-1z M19,47h1v1h-1z M20,47h1v1h-1z M23,47h1v1h-1z M24,47h1v1h-1z M27,47h1v1h-1z M28,47h1v1h-1z M29,47h1v1h-1z M31,47h1v1h-1z M34,47h1v1h-1z M39,47h1v1h-1z M41,47h1v1h-1z M44,47h1v1h-1z M45,47h1v1h-1z M46,47h1v1h-1z M47,47h1v1h-1z M49,47h1v1h-1z M50,47h1v1h-1z M53,47h1v1h-1z M58,47h1v1h-1z M59,47h1v1h-1z M61,47h1v1h-1z M62,47h1v1h-1z M63,47h1v1h-1z M65,47h1v1h-1z M66,47h1v1h-1z M68,47h1v1h-1z M70,47h1v1h-1z M71,47h1v1h-1z M73,47h1v1h-1z M74,47h1v1h-1z M75,47h1v1h-1z M76,47h1v1h-1z M77,47h1v1h-1z M79,47h1v1h-1z M80,47h1v1h-1z M83,47h1v1h-1z M85,47h1v1h-1z M90,47h1v1h-1z M91,47h1v1h-1z M92,47h1v1h-1z M93,47h1v1h-1z M95,47h1v1h-1z M97,47h1v1h-1z M98,47h1v1h-1z M99,47h1v1h-1z M104,47h1v1h-1z M105,47h1v1h-1z M5,48h1v1h-1z M6,48h1v1h-1z M9,48h1v1h-1z M10,48h1v1h-1z M11,48h1v1h-1z M12,48h1v1h-1z M13,48h1v1h-1z M15,48h1v1h-1z M18,48h1v1h-1z M20,48h1v1h-1z M21,48h1v1h-1z M23,48h1v1h-1z M25,48h1v1h-1z M26,48h1v1h-1z M29,48h1v1h-1z M31,48h1v1h-1z M35,48h1v1h-1z M36,48h1v1h-1z M37,48h1v1h-1z M38,48h1v1h-1z M39,48h1v1h-1z M41,48h1v1h-1z M42,48h1v1h-1z M43,48h1v1h-1z M44,48h1v1h-1z M49,48h1v1h-1z M52,48h1v1h-1z M53,48h1v1h-1z M54,48h1v1h-1z M55,48h1v1h-1z M59,48h1v1h-1z M60,48h1v1h-1z M65,48h1v1h-1z M69,48h1v1h-1z M72,48h1v1h-1z M74,48h1v1h-1z M77,48h1v1h-1z M78,48h1v1h-1z M79,48h1v1h-1z M82,48h1v1h-1z M84,48h1v1h-1z M89,48h1v1h-1z M90,48h1v1h-1z M91,48h1v1h-1z M94,48h1v1h-1z M95,48h1v1h-1z M96,48h1v1h-1z M102,48h1v1h-1z M103,48h1v1h-1z M104,48h1v1h-1z M105,48h1v1h-1z M107,48h1v1h-1z M4,49h1v1h-1z M6,49h1v1h-1z M9,49h1v1h-1z M11,49h1v1h-1z M14,49h1v1h-1z M15,49h1v1h-1z M17,49h1v1h-1z M19,49h1v1h-1z M20,49h1v1h-1z M21,49h1v1h-1z M23,49h1v1h-1z M24,49h1v1h-1z M26,49h1v1h-1z M28,49h1v1h-1z M29,49h1v1h-1z M32,49h1v1h-1z M35,49h1v1h-1z M36,49h1v1h-1z M37,49h1v1h-1z M38,49h1v1h-1z M41,49h1v1h-1z M43,49h1v1h-1z M45,49h1v1h-1z M48,49h1v1h-1z M49,49h1v1h-1z M51,49h1v1h-1z M54,49h1v1h-1z M55,49h1v1h-1z M56,49h1v1h-1z M57,49h1v1h-1z M59,49h1v1h-1z M61,49h1v1h-1z M62,49h1v1h-1z M65,49h1v1h-1z M66,49h1v1h-1z M67,49h1v1h-1z M69,49h1v1h-1z M71,49h1v1h-1z M72,49h1v1h-1z M76,49h1v1h-1z M80,49h1v1h-1z M81,49h1v1h-1z M82,49h1v1h-1z M83,49h1v1h-1z M86,49h1v1h-1z M87,49h1v1h-1z M89,49h1v1h-1z M91,49h1v1h-1z M96,49h1v1h-1z M98,49h1v1h-1z M99,49h1v1h-1z M100,49h1v1h-1z M103,49h1v1h-1z M105,49h1v1h-1z M106,49h1v1h-1z M6,50h1v1h-1z M7,50h1v1h-1z M9,50h1v1h-1z M10,50h1v1h-1z M11,50h1v1h-1z M12,50h1v1h-1z M13,50h1v1h-1z M14,50h1v1h-1z M15,50h1v1h-1z M17,50h1v1h-1z M19,50h1v1h-1z M20,50h1v1h-1z M21,50h1v1h-1z M22,50h1v1h-1z M23,50h1v1h-1z M25,50h1v1h-1z M26,50h1v1h-1z M28,50h1v1h-1z M29,50h1v1h-1z M32,50h1v1h-1z M38,50h1v1h-1z M39,50h1v1h-1z M40,50h1v1h-1z M41,50h1v1h-1z M47,50h1v1h-1z M48,50h1v1h-1z M50,50h1v1h-1z M56,50h1v1h-1z M59,50h1v1h-1z M62,50h1v1h-1z M65,50h1v1h-1z M68,50h1v1h-1z M69,50h1v1h-1z M73,50h1v1h-1z M74,50h1v1h-1z M78,50h1v1h-1z M80,50h1v1h-1z M81,50h1v1h-1z M83,50h1v1h-1z M84,50h1v1h-1z M86,50h1v1h-1z M88,50h1v1h-1z M89,50h1v1h-1z M93,50h1v1h-1z M96,50h1v1h-1z M98,50h1v1h-1z M99,50h1v1h-1z M100,50h1v1h-1z M106,50h1v1h-1z M107,50h1v1h-1z M11,51h1v1h-1z M12,51h1v1h-1z M13,51h1v1h-1z M18,51h1v1h-1z M20,51h1v1h-1z M21,51h1v1h-1z M23,51h1v1h-1z M24,51h1v1h-1z M25,51h1v1h-1z M27,51h1v1h-1z M28,51h1v1h-1z M29,51h1v1h-1z M31,51h1v1h-1z M32,51h1v1h-1z M33,51h1v1h-1z M35,51h1v1h-1z M37,51h1v1h-1z M38,51h1v1h-1z M41,51h1v1h-1z M43,51h1v1h-1z M44,51h1v1h-1z M45,51h1v1h-1z M47,51h1v1h-1z M49,51h1v1h-1z M50,51h1v1h-1z M51,51h1v1h-1z M52,51h1v1h-1z M57,51h1v1h-1z M59,51h1v1h-1z M61,51h1v1h-1z M68,51h1v1h-1z M70,51h1v1h-1z M71,51h1v1h-1z M76,51h1v1h-1z M77,51h1v1h-1z M80,51h1v1h-1z M81,51h1v1h-1z M82,51h1v1h-1z M83,51h1v1h-1z M85,51h1v1h-1z M86,51h1v1h-1z M89,51h1v1h-1z M91,51h1v1h-1z M92,51h1v1h-1z M94,51h1v1h-1z M97,51h1v1h-1z M99,51h1v1h-1z M100,51h1v1h-1z M104,51h1v1h-1z M107,51h1v1h-1z M108,51h1v1h-1z M4,52h1v1h-1z M6,52h1v1h-1z M8,52h1v1h-1z M9,52h1v1h-1z M10,52h1v1h-1z M11,52h1v1h-1z M12,52h1v1h-1z M14,52h1v1h-1z M16,52h1v1h-1z M17,52h1v1h-1z M18,52h1v1h-1z M22,52h1v1h-1z M26,52h1v1h-1z M28,52h1v1h-1z M29,52h1v1h-1z M30,52h1v1h-1z M31,52h1v1h-1z M32,52h1v1h-1z M34,52h1v1h-1z M35,52h1v1h-1z M36,52h1v1h-1z M38,52h1v1h-1z M39,52h1v1h-1z M41,52h1v1h-1z M43,52h1v1h-1z M44,52h1v1h-1z M47,52h1v1h-1z M52,52h1v1h-1z M53,52h1v1h-1z M54,52h1v1h-1z M55,52h1v1h-1z M56,52h1v1h-1z M60,52h1v1h-1z M61,52h1v1h-1z M64,52h1v1h-1z M65,52h1v1h-1z M66,52h1v1h-1z M67,52h1v1h-1z M68,52h1v1h-1z M70,52h1v1h-1z M72,52h1v1h-1z M76,52h1v1h-1z M77,52h1v1h-1z M78,52h1v1h-1z M79,52h1v1h-1z M80,52h1v1h-1z M83,52h1v1h-1z M84,52h1v1h-1z M86,52h1v1h-1z M88,52h1v1h-1z M89,52h1v1h-1z M95,52h1v1h-1z M98,52h1v1h-1z M99,52h1v1h-1z M100,52h1v1h-1z M101,52h1v1h-1z M102,52h1v1h-1z M103,52h1v1h-1z M104,52h1v1h-1z M108,52h1v1h-1z M5,53h1v1h-1z M6,53h1v1h-1z M7,53h1v1h-1z M8,53h1v1h-1z M12,53h1v1h-1z M15,53h1v1h-1z M16,53h1v1h-1z M18,53h1v1h-1z M19,53h1v1h-1z M21,53h1v1h-1z M28,53h1v1h-1z M32,53h1v1h-1z M33,53h1v1h-1z M34,53h1v1h-1z M36,53h1v1h-1z M38,53h1v1h-1z M39,53h1v1h-1z M40,53h1v1h-1z M42,53h1v1h-1z M46,53h1v1h-1z M47,53h1v1h-1z M48,53h1v1h-1z M49,53h1v1h-1z M51,53h1v1h-1z M52,53h1v1h-1z M56,53h1v1h-1z M57,53h1v1h-1z M58,53h1v1h-1z M60,53h1v1h-1z M63,53h1v1h-1z M64,53h1v1h-1z M65,53h1v1h-1z M67,53h1v1h-1z M69,53h1v1h-1z M70,53h1v1h-1z M72,53h1v1h-1z M73,53h1v1h-1z M74,53h1v1h-1z M75,53h1v1h-1z M76,53h1v1h-1z M80,53h1v1h-1z M83,53h1v1h-1z M84,53h1v1h-1z M86,53h1v1h-1z M91,53h1v1h-1z M94,53h1v1h-1z M95,53h1v1h-1z M96,53h1v1h-1z M97,53h1v1h-1z M98,53h1v1h-1z M99,53h1v1h-1z M100,53h1v1h-1z M104,53h1v1h-1z M107,53h1v1h-1z M108,53h1v1h-1z M8,54h1v1h-1z M10,54h1v1h-1z M12,54h1v1h-1z M13,54h1v1h-1z M18,54h1v1h-1z M20,54h1v1h-1z M22,54h1v1h-1z M24,54h1v1h-1z M25,54h1v1h-1z M26,54h1v1h-1z M28,54h1v1h-1z M30,54h1v1h-1z M32,54h1v1h-1z M36,54h1v1h-1z M38,54h1v1h-1z M40,54h1v1h-1z M41,54h1v1h-1z M47,54h1v1h-1z M48,54h1v1h-1z M50,54h1v1h-1z M52,54h1v1h-1z M54,54h1v1h-1z M56,54h1v1h-1z M57,54h1v1h-1z M60,54h1v1h-1z M62,54h1v1h-1z M64,54h1v1h-1z M65,54h1v1h-1z M68,54h1v1h-1z M71,54h1v1h-1z M72,54h1v1h-1z M74,54h1v1h-1z M75,54h1v1h-1z M76,54h1v1h-1z M78,54h1v1h-1z M80,54h1v1h-1z M83,54h1v1h-1z M84,54h1v1h-1z M85,54h1v1h-1z M86,54h1v1h-1z M89,54h1v1h-1z M92,54h1v1h-1z M95,54h1v1h-1z M96,54h1v1h-1z M98,54h1v1h-1z M100,54h1v1h-1z M102,54h1v1h-1z M104,54h1v1h-1z M106,54h1v1h-1z M107,54h1v1h-1z M4,55h1v1h-1z M8,55h1v1h-1z M12,55h1v1h-1z M15,55h1v1h-1z M16,55h1v1h-1z M19,55h1v1h-1z M20,55h1v1h-1z M23,55h1v1h-1z M24,55h1v1h-1z M26,55h1v1h-1z M28,55h1v1h-1z M32,55h1v1h-1z M34,55h1v1h-1z M35,55h1v1h-1z M37,55h1v1h-1z M39,55h1v1h-1z M44,55h1v1h-1z M45,55h1v1h-1z M46,55h1v1h-1z M49,55h1v1h-1z M50,55h1v1h-1z M51,55h1v1h-1z M52,55h1v1h-1z M56,55h1v1h-1z M58,55h1v1h-1z M59,55h1v1h-1z M62,55h1v1h-1z M68,55h1v1h-1z M69,55h1v1h-1z M70,55h1v1h-1z M71,55h1v1h-1z M74,55h1v1h-1z M76,55h1v1h-1z M80,55h1v1h-1z M83,55h1v1h-1z M90,55h1v1h-1z M92,55h1v1h-1z M93,55h1v1h-1z M94,55h1v1h-1z M95,55h1v1h-1z M97,55h1v1h-1z M98,55h1v1h-1z M100,55h1v1h-1z M104,55h1v1h-1z M4,56h1v1h-1z M5,56h1v1h-1z M6,56h1v1h-1z M7,56h1v1h-1z M8,56h1v1h-1z M9,56h1v1h-1z M10,56h1v1h-1z M11,56h1v1h-1z M12,56h1v1h-1z M15,56h1v1h-1z M16,56h1v1h-1z M17,56h1v1h-1z M19,56h1v1h-1z M20,56h1v1h-1z M21,56h1v1h-1z M22,56h1v1h-1z M25,56h1v1h-1z M28,56h1v1h-1z M29,56h1v1h-1z M30,56h1v1h-1z M31,56h1v1h-1z M32,56h1v1h-1z M34,56h1v1h-1z M39,56h1v1h-1z M42,56h1v1h-1z M47,56h1v1h-1z M49,56h1v1h-1z M52,56h1v1h-1z M53,56h1v1h-1z M54,56h1v1h-1z M55,56h1v1h-1z M56,56h1v1h-1z M57,56h1v1h-1z M58,56h1v1h-1z M63,56h1v1h-1z M65,56h1v1h-1z M66,56h1v1h-1z M67,56h1v1h-1z M68,56h1v1h-1z M71,56h1v1h-1z M74,56h1v1h-1z M76,56h1v1h-1z M77,56h1v1h-1z M78,56h1v1h-1z M79,56h1v1h-1z M80,56h1v1h-1z M81,56h1v1h-1z M82,56h1v1h-1z M84,56h1v1h-1z M87,56h1v1h-1z M88,56h1v1h-1z M89,56h1v1h-1z M90,56h1v1h-1z M91,56h1v1h-1z M92,56h1v1h-1z M95,56h1v1h-1z M100,56h1v1h-1z M101,56h1v1h-1z M102,56h1v1h-1z M103,56h1v1h-1z M104,56h1v1h-1z M108,56h1v1h-1z M4,57h1v1h-1z M6,57h1v1h-1z M8,57h1v1h-1z M11,57h1v1h-1z M13,57h1v1h-1z M14,57h1v1h-1z M15,57h1v1h-1z M18,57h1v1h-1z M19,57h1v1h-1z M27,57h1v1h-1z M31,57h1v1h-1z M33,57h1v1h-1z M34,57h1v1h-1z M35,57h1v1h-1z M36,57h1v1h-1z M42,57h1v1h-1z M44,57h1v1h-1z M46,57h1v1h-1z M47,57h1v1h-1z M48,57h1v1h-1z M49,57h1v1h-1z M50,57h1v1h-1z M51,57h1v1h-1z M55,57h1v1h-1z M61,57h1v1h-1z M63,57h1v1h-1z M64,57h1v1h-1z M65,57h1v1h-1z M67,57h1v1h-1z M69,57h1v1h-1z M71,57h1v1h-1z M72,57h1v1h-1z M73,57h1v1h-1z M75,57h1v1h-1z M76,57h1v1h-1z M79,57h1v1h-1z M82,57h1v1h-1z M84,57h1v1h-1z M85,57h1v1h-1z M89,57h1v1h-1z M90,57h1v1h-1z M94,57h1v1h-1z M97,57h1v1h-1z M98,57h1v1h-1z M99,57h1v1h-1z M100,57h1v1h-1z M102,57h1v1h-1z M104,57h1v1h-1z M105,57h1v1h-1z M106,57h1v1h-1z M4,58h1v1h-1z M6,58h1v1h-1z M7,58h1v1h-1z M8,58h1v1h-1z M9,58h1v1h-1z M10,58h1v1h-1z M23,58h1v1h-1z M32,58h1v1h-1z M38,58h1v1h-1z M39,58h1v1h-1z M40,58h1v1h-1z M41,58h1v1h-1z M43,58h1v1h-1z M47,58h1v1h-1z M48,58h1v1h-1z M50,58h1v1h-1z M54,58h1v1h-1z M56,58h1v1h-1z M59,58h1v1h-1z M60,58h1v1h-1z M62,58h1v1h-1z M63,58h1v1h-1z M64,58h1v1h-1z M65,58h1v1h-1z M67,58h1v1h-1z M68,58h1v1h-1z M71,58h1v1h-1z M72,58h1v1h-1z M73,58h1v1h-1z M74,58h1v1h-1z M78,58h1v1h-1z M79,58h1v1h-1z M83,58h1v1h-1z M84,58h1v1h-1z M86,58h1v1h-1z M87,58h1v1h-1z M88,58h1v1h-1z M96,58h1v1h-1z M98,58h1v1h-1z M100,58h1v1h-1z M103,58h1v1h-1z M104,58h1v1h-1z M106,58h1v1h-1z M4,59h1v1h-1z M5,59h1v1h-1z M6,59h1v1h-1z M11,59h1v1h-1z M12,59h1v1h-1z M14,59h1v1h-1z M17,59h1v1h-1z M18,59h1v1h-1z M19,59h1v1h-1z M21,59h1v1h-1z M26,59h1v1h-1z M29,59h1v1h-1z M32,59h1v1h-1z M33,59h1v1h-1z M35,59h1v1h-1z M41,59h1v1h-1z M44,59h1v1h-1z M45,59h1v1h-1z M46,59h1v1h-1z M49,59h1v1h-1z M52,59h1v1h-1z M55,59h1v1h-1z M58,59h1v1h-1z M61,59h1v1h-1z M62,59h1v1h-1z M68,59h1v1h-1z M69,59h1v1h-1z M71,59h1v1h-1z M76,59h1v1h-1z M77,59h1v1h-1z M78,59h1v1h-1z M79,59h1v1h-1z M82,59h1v1h-1z M83,59h1v1h-1z M85,59h1v1h-1z M86,59h1v1h-1z M90,59h1v1h-1z M91,59h1v1h-1z M92,59h1v1h-1z M94,59h1v1h-1z M95,59h1v1h-1z M98,59h1v1h-1z M99,59h1v1h-1z M100,59h1v1h-1z M103,59h1v1h-1z M104,59h1v1h-1z M107,59h1v1h-1z M108,59h1v1h-1z M4,60h1v1h-1z M5,60h1v1h-1z M6,60h1v1h-1z M8,60h1v1h-1z M10,60h1v1h-1z M12,60h1v1h-1z M15,60h1v1h-1z M17,60h1v1h-1z M22,60h1v1h-1z M23,60h1v1h-1z M26,60h1v1h-1z M30,60h1v1h-1z M32,60h1v1h-1z M37,60h1v1h-1z M38,60h1v1h-1z M39,60h1v1h-1z M41,60h1v1h-1z M42,60h1v1h-1z M44,60h1v1h-1z M47,60h1v1h-1z M49,60h1v1h-1z M51,60h1v1h-1z M52,60h1v1h-1z M54,60h1v1h-1z M60,60h1v1h-1z M61,60h1v1h-1z M65,60h1v1h-1z M66,60h1v1h-1z M67,60h1v1h-1z M69,60h1v1h-1z M70,60h1v1h-1z M72,60h1v1h-1z M74,60h1v1h-1z M76,60h1v1h-1z M78,60h1v1h-1z M79,60h1v1h-1z M80,60h1v1h-1z M82,60h1v1h-1z M83,60h1v1h-1z M85,60h1v1h-1z M87,60h1v1h-1z M88,60h1v1h-1z M89,60h1v1h-1z M90,60h1v1h-1z M94,60h1v1h-1z M98,60h1v1h-1z M99,60h1v1h-1z M103,60h1v1h-1z M106,60h1v1h-1z M107,60h1v1h-1z M4,61h1v1h-1z M6,61h1v1h-1z M7,61h1v1h-1z M8,61h1v1h-1z M11,61h1v1h-1z M13,61h1v1h-1z M14,61h1v1h-1z M15,61h1v1h-1z M17,61h1v1h-1z M18,61h1v1h-1z M21,61h1v1h-1z M22,61h1v1h-1z M23,61h1v1h-1z M25,61h1v1h-1z M27,61h1v1h-1z M29,61h1v1h-1z M30,61h1v1h-1z M31,61h1v1h-1z M34,61h1v1h-1z M35,61h1v1h-1z M38,61h1v1h-1z M40,61h1v1h-1z M43,61h1v1h-1z M45,61h1v1h-1z M47,61h1v1h-1z M48,61h1v1h-1z M50,61h1v1h-1z M51,61h1v1h-1z M53,61h1v1h-1z M55,61h1v1h-1z M58,61h1v1h-1z M59,61h1v1h-1z M60,61h1v1h-1z M63,61h1v1h-1z M64,61h1v1h-1z M65,61h1v1h-1z M68,61h1v1h-1z M70,61h1v1h-1z M71,61h1v1h-1z M76,61h1v1h-1z M77,61h1v1h-1z M79,61h1v1h-1z M81,61h1v1h-1z M84,61h1v1h-1z M85,61h1v1h-1z M87,61h1v1h-1z M89,61h1v1h-1z M91,61h1v1h-1z M92,61h1v1h-1z M93,61h1v1h-1z M94,61h1v1h-1z M97,61h1v1h-1z M100,61h1v1h-1z M102,61h1v1h-1z M103,61h1v1h-1z M104,61h1v1h-1z M107,61h1v1h-1z M4,62h1v1h-1z M5,62h1v1h-1z M7,62h1v1h-1z M10,62h1v1h-1z M11,62h1v1h-1z M12,62h1v1h-1z M17,62h1v1h-1z M19,62h1v1h-1z M20,62h1v1h-1z M22,62h1v1h-1z M24,62h1v1h-1z M36,62h1v1h-1z M38,62h1v1h-1z M39,62h1v1h-1z M40,62h1v1h-1z M41,62h1v1h-1z M44,62h1v1h-1z M47,62h1v1h-1z M50,62h1v1h-1z M51,62h1v1h-1z M54,62h1v1h-1z M55,62h1v1h-1z M57,62h1v1h-1z M59,62h1v1h-1z M62,62h1v1h-1z M64,62h1v1h-1z M65,62h1v1h-1z M68,62h1v1h-1z M74,62h1v1h-1z M84,62h1v1h-1z M86,62h1v1h-1z M87,62h1v1h-1z M88,62h1v1h-1z M89,62h1v1h-1z M91,62h1v1h-1z M92,62h1v1h-1z M98,62h1v1h-1z M100,62h1v1h-1z M103,62h1v1h-1z M104,62h1v1h-1z M106,62h1v1h-1z M107,62h1v1h-1z M6,63h1v1h-1z M9,63h1v1h-1z M11,63h1v1h-1z M14,63h1v1h-1z M15,63h1v1h-1z M17,63h1v1h-1z M18,63h1v1h-1z M19,63h1v1h-1z M20,63h1v1h-1z M21,63h1v1h-1z M24,63h1v1h-1z M25,63h1v1h-1z M26,63h1v1h-1z M27,63h1v1h-1z M28,63h1v1h-1z M30,63h1v1h-1z M31,63h1v1h-1z M32,63h1v1h-1z M34,63h1v1h-1z M35,63h1v1h-1z M37,63h1v1h-1z M38,63h1v1h-1z M44,63h1v1h-1z M46,63h1v1h-1z M47,63h1v1h-1z M49,63h1v1h-1z M50,63h1v1h-1z M51,63h1v1h-1z M52,63h1v1h-1z M53,63h1v1h-1z M54,63h1v1h-1z M55,63h1v1h-1z M58,63h1v1h-1z M59,63h1v1h-1z M61,63h1v1h-1z M62,63h1v1h-1z M66,63h1v1h-1z M68,63h1v1h-1z M69,63h1v1h-1z M70,63h1v1h-1z M71,63h1v1h-1z M75,63h1v1h-1z M77,63h1v1h-1z M78,63h1v1h-1z M80,63h1v1h-1z M81,63h1v1h-1z M82,63h1v1h-1z M83,63h1v1h-1z M85,63h1v1h-1z M89,63h1v1h-1z M90,63h1v1h-1z M92,63h1v1h-1z M94,63h1v1h-1z M95,63h1v1h-1z M97,63h1v1h-1z M98,63h1v1h-1z M101,63h1v1h-1z M107,63h1v1h-1z M108,63h1v1h-1z M5,64h1v1h-1z M7,64h1v1h-1z M8,64h1v1h-1z M10,64h1v1h-1z M12,64h1v1h-1z M13,64h1v1h-1z M15,64h1v1h-1z M16,64h1v1h-1z M17,64h1v1h-1z M19,64h1v1h-1z M21,64h1v1h-1z M23,64h1v1h-1z M26,64h1v1h-1z M27,64h1v1h-1z M28,64h1v1h-1z M30,64h1v1h-1z M31,64h1v1h-1z M32,64h1v1h-1z M34,64h1v1h-1z M37,64h1v1h-1z M39,64h1v1h-1z M43,64h1v1h-1z M44,64h1v1h-1z M46,64h1v1h-1z M47,64h1v1h-1z M48,64h1v1h-1z M50,64h1v1h-1z M54,64h1v1h-1z M55,64h1v1h-1z M56,64h1v1h-1z M62,64h1v1h-1z M63,64h1v1h-1z M69,64h1v1h-1z M76,64h1v1h-1z M78,64h1v1h-1z M81,64h1v1h-1z M82,64h1v1h-1z M86,64h1v1h-1z M87,64h1v1h-1z M88,64h1v1h-1z M89,64h1v1h-1z M97,64h1v1h-1z M99,64h1v1h-1z M100,64h1v1h-1z M101,64h1v1h-1z M102,64h1v1h-1z M106,64h1v1h-1z M108,64h1v1h-1z M6,65h1v1h-1z M9,65h1v1h-1z M11,65h1v1h-1z M12,65h1v1h-1z M13,65h1v1h-1z M15,65h1v1h-1z M19,65h1v1h-1z M21,65h1v1h-1z M27,65h1v1h-1z M31,65h1v1h-1z M33,65h1v1h-1z M35,65h1v1h-1z M37,65h1v1h-1z M40,65h1v1h-1z M48,65h1v1h-1z M49,65h1v1h-1z M50,65h1v1h-1z M52,65h1v1h-1z M53,65h1v1h-1z M58,65h1v1h-1z M59,65h1v1h-1z M60,65h1v1h-1z M64,65h1v1h-1z M65,65h1v1h-1z M68,65h1v1h-1z M69,65h1v1h-1z M70,65h1v1h-1z M71,65h1v1h-1z M72,65h1v1h-1z M73,65h1v1h-1z M75,65h1v1h-1z M77,65h1v1h-1z M78,65h1v1h-1z M79,65h1v1h-1z M82,65h1v1h-1z M84,65h1v1h-1z M85,65h1v1h-1z M87,65h1v1h-1z M88,65h1v1h-1z M89,65h1v1h-1z M90,65h1v1h-1z M91,65h1v1h-1z M92,65h1v1h-1z M93,65h1v1h-1z M94,65h1v1h-1z M97,65h1v1h-1z M99,65h1v1h-1z M100,65h1v1h-1z M102,65h1v1h-1z M105,65h1v1h-1z M106,65h1v1h-1z M5,66h1v1h-1z M10,66h1v1h-1z M11,66h1v1h-1z M12,66h1v1h-1z M13,66h1v1h-1z M14,66h1v1h-1z M19,66h1v1h-1z M21,66h1v1h-1z M22,66h1v1h-1z M32,66h1v1h-1z M36,66h1v1h-1z M38,66h1v1h-1z M40,66h1v1h-1z M41,66h1v1h-1z M43,66h1v1h-1z M44,66h1v1h-1z M47,66h1v1h-1z M48,66h1v1h-1z M50,66h1v1h-1z M54,66h1v1h-1z M55,66h1v1h-1z M59,66h1v1h-1z M60,66h1v1h-1z M62,66h1v1h-1z M63,66h1v1h-1z M64,66h1v1h-1z M65,66h1v1h-1z M67,66h1v1h-1z M68,66h1v1h-1z M71,66h1v1h-1z M72,66h1v1h-1z M74,66h1v1h-1z M75,66h1v1h-1z M78,66h1v1h-1z M79,66h1v1h-1z M80,66h1v1h-1z M84,66h1v1h-1z M86,66h1v1h-1z M88,66h1v1h-1z M89,66h1v1h-1z M95,66h1v1h-1z M98,66h1v1h-1z M99,66h1v1h-1z M100,66h1v1h-1z M101,66h1v1h-1z M102,66h1v1h-1z M104,66h1v1h-1z M106,66h1v1h-1z M5,67h1v1h-1z M7,67h1v1h-1z M9,67h1v1h-1z M11,67h1v1h-1z M12,67h1v1h-1z M13,67h1v1h-1z M14,67h1v1h-1z M16,67h1v1h-1z M17,67h1v1h-1z M18,67h1v1h-1z M19,67h1v1h-1z M23,67h1v1h-1z M25,67h1v1h-1z M28,67h1v1h-1z M29,67h1v1h-1z M30,67h1v1h-1z M31,67h1v1h-1z M33,67h1v1h-1z M35,67h1v1h-1z M37,67h1v1h-1z M44,67h1v1h-1z M45,67h1v1h-1z M49,67h1v1h-1z M52,67h1v1h-1z M54,67h1v1h-1z M55,67h1v1h-1z M56,67h1v1h-1z M57,67h1v1h-1z M62,67h1v1h-1z M65,67h1v1h-1z M68,67h1v1h-1z M69,67h1v1h-1z M70,67h1v1h-1z M71,67h1v1h-1z M73,67h1v1h-1z M77,67h1v1h-1z M79,67h1v1h-1z M81,67h1v1h-1z M82,67h1v1h-1z M83,67h1v1h-1z M85,67h1v1h-1z M86,67h1v1h-1z M90,67h1v1h-1z M92,67h1v1h-1z M95,67h1v1h-1z M97,67h1v1h-1z M98,67h1v1h-1z M99,67h1v1h-1z M100,67h1v1h-1z M101,67h1v1h-1z M102,67h1v1h-1z M5,68h1v1h-1z M8,68h1v1h-1z M10,68h1v1h-1z M11,68h1v1h-1z M12,68h1v1h-1z M13,68h1v1h-1z M15,68h1v1h-1z M17,68h1v1h-1z M18,68h1v1h-1z M20,68h1v1h-1z M22,68h1v1h-1z M23,68h1v1h-1z M25,68h1v1h-1z M26,68h1v1h-1z M28,68h1v1h-1z M30,68h1v1h-1z M33,68h1v1h-1z M35,68h1v1h-1z M39,68h1v1h-1z M44,68h1v1h-1z M47,68h1v1h-1z M48,68h1v1h-1z M54,68h1v1h-1z M57,68h1v1h-1z M58,68h1v1h-1z M59,68h1v1h-1z M60,68h1v1h-1z M61,68h1v1h-1z M63,68h1v1h-1z M64,68h1v1h-1z M65,68h1v1h-1z M66,68h1v1h-1z M67,68h1v1h-1z M70,68h1v1h-1z M75,68h1v1h-1z M76,68h1v1h-1z M78,68h1v1h-1z M79,68h1v1h-1z M80,68h1v1h-1z M82,68h1v1h-1z M83,68h1v1h-1z M84,68h1v1h-1z M87,68h1v1h-1z M88,68h1v1h-1z M89,68h1v1h-1z M91,68h1v1h-1z M92,68h1v1h-1z M95,68h1v1h-1z M97,68h1v1h-1z M98,68h1v1h-1z M101,68h1v1h-1z M102,68h1v1h-1z M103,68h1v1h-1z M106,68h1v1h-1z M107,68h1v1h-1z M5,69h1v1h-1z M6,69h1v1h-1z M8,69h1v1h-1z M11,69h1v1h-1z M13,69h1v1h-1z M16,69h1v1h-1z M18,69h1v1h-1z M20,69h1v1h-1z M24,69h1v1h-1z M25,69h1v1h-1z M28,69h1v1h-1z M29,69h1v1h-1z M31,69h1v1h-1z M33,69h1v1h-1z M36,69h1v1h-1z M38,69h1v1h-1z M39,69h1v1h-1z M44,69h1v1h-1z M45,69h1v1h-1z M46,69h1v1h-1z M47,69h1v1h-1z M48,69h1v1h-1z M50,69h1v1h-1z M52,69h1v1h-1z M53,69h1v1h-1z M55,69h1v1h-1z M57,69h1v1h-1z M58,69h1v1h-1z M60,69h1v1h-1z M65,69h1v1h-1z M66,69h1v1h-1z M67,69h1v1h-1z M69,69h1v1h-1z M70,69h1v1h-1z M72,69h1v1h-1z M74,69h1v1h-1z M75,69h1v1h-1z M76,69h1v1h-1z M77,69h1v1h-1z M81,69h1v1h-1z M84,69h1v1h-1z M87,69h1v1h-1z M88,69h1v1h-1z M91,69h1v1h-1z M96,69h1v1h-1z M97,69h1v1h-1z M99,69h1v1h-1z M100,69h1v1h-1z M101,69h1v1h-1z M102,69h1v1h-1z M104,69h1v1h-1z M105,69h1v1h-1z M106,69h1v1h-1z M107,69h1v1h-1z M4,70h1v1h-1z M6,70h1v1h-1z M7,70h1v1h-1z M8,70h1v1h-1z M10,70h1v1h-1z M13,70h1v1h-1z M14,70h1v1h-1z M17,70h1v1h-1z M18,70h1v1h-1z M19,70h1v1h-1z M20,70h1v1h-1z M23,70h1v1h-1z M26,70h1v1h-1z M30,70h1v1h-1z M32,70h1v1h-1z M36,70h1v1h-1z M38,70h1v1h-1z M39,70h1v1h-1z M40,70h1v1h-1z M43,70h1v1h-1z M44,70h1v1h-1z M45,70h1v1h-1z M47,70h1v1h-1z M50,70h1v1h-1z M53,70h1v1h-1z M54,70h1v1h-1z M55,70h1v1h-1z M59,70h1v1h-1z M62,70h1v1h-1z M67,70h1v1h-1z M71,70h1v1h-1z M72,70h1v1h-1z M74,70h1v1h-1z M77,70h1v1h-1z M78,70h1v1h-1z M79,70h1v1h-1z M80,70h1v1h-1z M84,70h1v1h-1z M86,70h1v1h-1z M87,70h1v1h-1z M88,70h1v1h-1z M89,70h1v1h-1z M91,70h1v1h-1z M92,70h1v1h-1z M95,70h1v1h-1z M98,70h1v1h-1z M99,70h1v1h-1z M101,70h1v1h-1z M102,70h1v1h-1z M103,70h1v1h-1z M104,70h1v1h-1z M105,70h1v1h-1z M106,70h1v1h-1z M107,70h1v1h-1z M108,70h1v1h-1z M4,71h1v1h-1z M7,71h1v1h-1z M8,71h1v1h-1z M12,71h1v1h-1z M14,71h1v1h-1z M15,71h1v1h-1z M18,71h1v1h-1z M19,71h1v1h-1z M20,71h1v1h-1z M21,71h1v1h-1z M23,71h1v1h-1z M24,71h1v1h-1z M28,71h1v1h-1z M29,71h1v1h-1z M30,71h1v1h-1z M33,71h1v1h-1z M34,71h1v1h-1z M35,71h1v1h-1z M37,71h1v1h-1z M38,71h1v1h-1z M42,71h1v1h-1z M44,71h1v1h-1z M46,71h1v1h-1z M47,71h1v1h-1z M49,71h1v1h-1z M50,71h1v1h-1z M53,71h1v1h-1z M54,71h1v1h-1z M55,71h1v1h-1z M57,71h1v1h-1z M58,71h1v1h-1z M59,71h1v1h-1z M61,71h1v1h-1z M62,71h1v1h-1z M65,71h1v1h-1z M66,71h1v1h-1z M68,71h1v1h-1z M69,71h1v1h-1z M70,71h1v1h-1z M73,71h1v1h-1z M75,71h1v1h-1z M76,71h1v1h-1z M77,71h1v1h-1z M80,71h1v1h-1z M85,71h1v1h-1z M86,71h1v1h-1z M92,71h1v1h-1z M95,71h1v1h-1z M97,71h1v1h-1z M98,71h1v1h-1z M102,71h1v1h-1z M103,71h1v1h-1z M107,71h1v1h-1z M108,71h1v1h-1z M5,72h1v1h-1z M7,72h1v1h-1z M9,72h1v1h-1z M10,72h1v1h-1z M13,72h1v1h-1z M14,72h1v1h-1z M15,72h1v1h-1z M20,72h1v1h-1z M22,72h1v1h-1z M24,72h1v1h-1z M28,72h1v1h-1z M29,72h1v1h-1z M30,72h1v1h-1z M31,72h1v1h-1z M32,72h1v1h-1z M35,72h1v1h-1z M36,72h1v1h-1z M38,72h1v1h-1z M40,72h1v1h-1z M41,72h1v1h-1z M42,72h1v1h-1z M45,72h1v1h-1z M46,72h1v1h-1z M47,72h1v1h-1z M48,72h1v1h-1z M49,72h1v1h-1z M51,72h1v1h-1z M52,72h1v1h-1z M54,72h1v1h-1z M58,72h1v1h-1z M64,72h1v1h-1z M65,72h1v1h-1z M66,72h1v1h-1z M68,72h1v1h-1z M71,72h1v1h-1z M73,72h1v1h-1z M74,72h1v1h-1z M76,72h1v1h-1z M78,72h1v1h-1z M79,72h1v1h-1z M80,72h1v1h-1z M84,72h1v1h-1z M85,72h1v1h-1z M86,72h1v1h-1z M87,72h1v1h-1z M92,72h1v1h-1z M93,72h1v1h-1z M96,72h1v1h-1z M99,72h1v1h-1z M100,72h1v1h-1z M102,72h1v1h-1z M103,72h1v1h-1z M106,72h1v1h-1z M107,72h1v1h-1z M108,72h1v1h-1z M6,73h1v1h-1z M7,73h1v1h-1z M9,73h1v1h-1z M11,73h1v1h-1z M12,73h1v1h-1z M16,73h1v1h-1z M17,73h1v1h-1z M19,73h1v1h-1z M20,73h1v1h-1z M21,73h1v1h-1z M23,73h1v1h-1z M25,73h1v1h-1z M33,73h1v1h-1z M34,73h1v1h-1z M35,73h1v1h-1z M36,73h1v1h-1z M37,73h1v1h-1z M39,73h1v1h-1z M40,73h1v1h-1z M41,73h1v1h-1z M44,73h1v1h-1z M46,73h1v1h-1z M47,73h1v1h-1z M49,73h1v1h-1z M51,73h1v1h-1z M53,73h1v1h-1z M54,73h1v1h-1z M55,73h1v1h-1z M57,73h1v1h-1z M58,73h1v1h-1z M60,73h1v1h-1z M62,73h1v1h-1z M63,73h1v1h-1z M64,73h1v1h-1z M65,73h1v1h-1z M66,73h1v1h-1z M67,73h1v1h-1z M69,73h1v1h-1z M71,73h1v1h-1z M72,73h1v1h-1z M73,73h1v1h-1z M74,73h1v1h-1z M75,73h1v1h-1z M76,73h1v1h-1z M78,73h1v1h-1z M81,73h1v1h-1z M82,73h1v1h-1z M84,73h1v1h-1z M87,73h1v1h-1z M88,73h1v1h-1z M92,73h1v1h-1z M93,73h1v1h-1z M94,73h1v1h-1z M95,73h1v1h-1z M96,73h1v1h-1z M97,73h1v1h-1z M98,73h1v1h-1z M99,73h1v1h-1z M100,73h1v1h-1z M102,73h1v1h-1z M103,73h1v1h-1z M104,73h1v1h-1z M7,74h1v1h-1z M8,74h1v1h-1z M10,74h1v1h-1z M11,74h1v1h-1z M12,74h1v1h-1z M14,74h1v1h-1z M15,74h1v1h-1z M17,74h1v1h-1z M19,74h1v1h-1z M20,74h1v1h-1z M21,74h1v1h-1z M24,74h1v1h-1z M25,74h1v1h-1z M26,74h1v1h-1z M30,74h1v1h-1z M31,74h1v1h-1z M38,74h1v1h-1z M43,74h1v1h-1z M44,74h1v1h-1z M48,74h1v1h-1z M49,74h1v1h-1z M50,74h1v1h-1z M51,74h1v1h-1z M53,74h1v1h-1z M56,74h1v1h-1z M57,74h1v1h-1z M59,74h1v1h-1z M60,74h1v1h-1z M62,74h1v1h-1z M63,74h1v1h-1z M65,74h1v1h-1z M67,74h1v1h-1z M68,74h1v1h-1z M72,74h1v1h-1z M74,74h1v1h-1z M77,74h1v1h-1z M78,74h1v1h-1z M79,74h1v1h-1z M80,74h1v1h-1z M84,74h1v1h-1z M86,74h1v1h-1z M89,74h1v1h-1z M91,74h1v1h-1z M93,74h1v1h-1z M98,74h1v1h-1z M101,74h1v1h-1z M103,74h1v1h-1z M104,74h1v1h-1z M107,74h1v1h-1z M5,75h1v1h-1z M6,75h1v1h-1z M8,75h1v1h-1z M12,75h1v1h-1z M14,75h1v1h-1z M16,75h1v1h-1z M18,75h1v1h-1z M21,75h1v1h-1z M22,75h1v1h-1z M26,75h1v1h-1z M27,75h1v1h-1z M28,75h1v1h-1z M29,75h1v1h-1z M30,75h1v1h-1z M32,75h1v1h-1z M33,75h1v1h-1z M35,75h1v1h-1z M37,75h1v1h-1z M41,75h1v1h-1z M42,75h1v1h-1z M44,75h1v1h-1z M45,75h1v1h-1z M46,75h1v1h-1z M51,75h1v1h-1z M54,75h1v1h-1z M55,75h1v1h-1z M56,75h1v1h-1z M57,75h1v1h-1z M58,75h1v1h-1z M61,75h1v1h-1z M68,75h1v1h-1z M69,75h1v1h-1z M70,75h1v1h-1z M71,75h1v1h-1z M73,75h1v1h-1z M74,75h1v1h-1z M75,75h1v1h-1z M80,75h1v1h-1z M81,75h1v1h-1z M83,75h1v1h-1z M92,75h1v1h-1z M94,75h1v1h-1z M95,75h1v1h-1z M99,75h1v1h-1z M100,75h1v1h-1z M101,75h1v1h-1z M103,75h1v1h-1z M104,75h1v1h-1z M4,76h1v1h-1z M5,76h1v1h-1z M6,76h1v1h-1z M8,76h1v1h-1z M9,76h1v1h-1z M10,76h1v1h-1z M11,76h1v1h-1z M12,76h1v1h-1z M17,76h1v1h-1z M18,76h1v1h-1z M19,76h1v1h-1z M21,76h1v1h-1z M23,76h1v1h-1z M24,76h1v1h-1z M25,76h1v1h-1z M28,76h1v1h-1z M29,76h1v1h-1z M30,76h1v1h-1z M31,76h1v1h-1z M32,76h1v1h-1z M34,76h1v1h-1z M35,76h1v1h-1z M37,76h1v1h-1z M39,76h1v1h-1z M40,76h1v1h-1z M41,76h1v1h-1z M43,76h1v1h-1z M44,76h1v1h-1z M52,76h1v1h-1z M53,76h1v1h-1z M54,76h1v1h-1z M55,76h1v1h-1z M56,76h1v1h-1z M57,76h1v1h-1z M60,76h1v1h-1z M61,76h1v1h-1z M62,76h1v1h-1z M64,76h1v1h-1z M65,76h1v1h-1z M66,76h1v1h-1z M70,76h1v1h-1z M72,76h1v1h-1z M73,76h1v1h-1z M74,76h1v1h-1z M76,76h1v1h-1z M77,76h1v1h-1z M78,76h1v1h-1z M79,76h1v1h-1z M80,76h1v1h-1z M81,76h1v1h-1z M83,76h1v1h-1z M86,76h1v1h-1z M87,76h1v1h-1z M89,76h1v1h-1z M90,76h1v1h-1z M91,76h1v1h-1z M95,76h1v1h-1z M100,76h1v1h-1z M101,76h1v1h-1z M102,76h1v1h-1z M103,76h1v1h-1z M104,76h1v1h-1z M105,76h1v1h-1z M107,76h1v1h-1z M4,77h1v1h-1z M8,77h1v1h-1z M12,77h1v1h-1z M13,77h1v1h-1z M14,77h1v1h-1z M15,77h1v1h-1z M19,77h1v1h-1z M20,77h1v1h-1z M25,77h1v1h-1z M27,77h1v1h-1z M28,77h1v1h-1z M32,77h1v1h-1z M40,77h1v1h-1z M41,77h1v1h-1z M45,77h1v1h-1z M48,77h1v1h-1z M51,77h1v1h-1z M52,77h1v1h-1z M56,77h1v1h-1z M57,77h1v1h-1z M58,77h1v1h-1z M60,77h1v1h-1z M61,77h1v1h-1z M62,77h1v1h-1z M65,77h1v1h-1z M66,77h1v1h-1z M68,77h1v1h-1z M71,77h1v1h-1z M73,77h1v1h-1z M74,77h1v1h-1z M75,77h1v1h-1z M76,77h1v1h-1z M80,77h1v1h-1z M81,77h1v1h-1z M82,77h1v1h-1z M84,77h1v1h-1z M85,77h1v1h-1z M86,77h1v1h-1z M88,77h1v1h-1z M89,77h1v1h-1z M91,77h1v1h-1z M93,77h1v1h-1z M96,77h1v1h-1z M97,77h1v1h-1z M98,77h1v1h-1z M100,77h1v1h-1z M104,77h1v1h-1z M107,77h1v1h-1z M108,77h1v1h-1z M6,78h1v1h-1z M8,78h1v1h-1z M10,78h1v1h-1z M12,78h1v1h-1z M17,78h1v1h-1z M18,78h1v1h-1z M19,78h1v1h-1z M21,78h1v1h-1z M22,78h1v1h-1z M23,78h1v1h-1z M25,78h1v1h-1z M28,78h1v1h-1z M30,78h1v1h-1z M32,78h1v1h-1z M33,78h1v1h-1z M38,78h1v1h-1z M39,78h1v1h-1z M40,78h1v1h-1z M41,78h1v1h-1z M43,78h1v1h-1z M44,78h1v1h-1z M47,78h1v1h-1z M48,78h1v1h-1z M50,78h1v1h-1z M52,78h1v1h-1z M54,78h1v1h-1z M56,78h1v1h-1z M61,78h1v1h-1z M62,78h1v1h-1z M64,78h1v1h-1z M65,78h1v1h-1z M68,78h1v1h-1z M71,78h1v1h-1z M72,78h1v1h-1z M74,78h1v1h-1z M75,78h1v1h-1z M76,78h1v1h-1z M78,78h1v1h-1z M80,78h1v1h-1z M83,78h1v1h-1z M86,78h1v1h-1z M88,78h1v1h-1z M89,78h1v1h-1z M91,78h1v1h-1z M96,78h1v1h-1z M98,78h1v1h-1z M100,78h1v1h-1z M102,78h1v1h-1z M104,78h1v1h-1z M106,78h1v1h-1z M107,78h1v1h-1z M5,79h1v1h-1z M8,79h1v1h-1z M12,79h1v1h-1z M14,79h1v1h-1z M16,79h1v1h-1z M20,79h1v1h-1z M24,79h1v1h-1z M25,79h1v1h-1z M27,79h1v1h-1z M28,79h1v1h-1z M32,79h1v1h-1z M34,79h1v1h-1z M35,79h1v1h-1z M41,79h1v1h-1z M42,79h1v1h-1z M44,79h1v1h-1z M45,79h1v1h-1z M46,79h1v1h-1z M49,79h1v1h-1z M52,79h1v1h-1z M56,79h1v1h-1z M57,79h1v1h-1z M59,79h1v1h-1z M61,79h1v1h-1z M66,79h1v1h-1z M68,79h1v1h-1z M69,79h1v1h-1z M74,79h1v1h-1z M76,79h1v1h-1z M80,79h1v1h-1z M81,79h1v1h-1z M83,79h1v1h-1z M85,79h1v1h-1z M92,79h1v1h-1z M93,79h1v1h-1z M94,79h1v1h-1z M98,79h1v1h-1z M99,79h1v1h-1z M100,79h1v1h-1z M104,79h1v1h-1z M108,79h1v1h-1z M8,80h1v1h-1z M9,80h1v1h-1z M10,80h1v1h-1z M11,80h1v1h-1z M12,80h1v1h-1z M14,80h1v1h-1z M15,80h1v1h-1z M18,80h1v1h-1z M20,80h1v1h-1z M22,80h1v1h-1z M23,80h1v1h-1z M25,80h1v1h-1z M26,80h1v1h-1z M27,80h1v1h-1z M28,80h1v1h-1z M29,80h1v1h-1z M30,80h1v1h-1z M31,80h1v1h-1z M32,80h1v1h-1z M33,80h1v1h-1z M34,80h1v1h-1z M35,80h1v1h-1z M36,80h1v1h-1z M38,80h1v1h-1z M40,80h1v1h-1z M41,80h1v1h-1z M42,80h1v1h-1z M43,80h1v1h-1z M44,80h1v1h-1z M45,80h1v1h-1z M46,80h1v1h-1z M48,80h1v1h-1z M52,80h1v1h-1z M53,80h1v1h-1z M54,80h1v1h-1z M55,80h1v1h-1z M56,80h1v1h-1z M58,80h1v1h-1z M59,80h1v1h-1z M60,80h1v1h-1z M61,80h1v1h-1z M64,80h1v1h-1z M66,80h1v1h-1z M67,80h1v1h-1z M68,80h1v1h-1z M70,80h1v1h-1z M71,80h1v1h-1z M73,80h1v1h-1z M74,80h1v1h-1z M75,80h1v1h-1z M76,80h1v1h-1z M77,80h1v1h-1z M78,80h1v1h-1z M79,80h1v1h-1z M80,80h1v1h-1z M81,80h1v1h-1z M82,80h1v1h-1z M83,80h1v1h-1z M85,80h1v1h-1z M86,80h1v1h-1z M87,80h1v1h-1z M88,80h1v1h-1z M92,80h1v1h-1z M95,80h1v1h-1z M97,80h1v1h-1z M98,80h1v1h-1z M99,80h1v1h-1z M100,80h1v1h-1z M101,80h1v1h-1z M102,80h1v1h-1z M103,80h1v1h-1z M104,80h1v1h-1z M105,80h1v1h-1z M106,80h1v1h-1z M108,80h1v1h-1z M6,81h1v1h-1z M7,81h1v1h-1z M11,81h1v1h-1z M12,81h1v1h-1z M14,81h1v1h-1z M15,81h1v1h-1z M16,81h1v1h-1z M21,81h1v1h-1z M22,81h1v1h-1z M28,81h1v1h-1z M30,81h1v1h-1z M33,81h1v1h-1z M38,81h1v1h-1z M39,81h1v1h-1z M43,81h1v1h-1z M45,81h1v1h-1z M47,81h1v1h-1z M48,81h1v1h-1z M49,81h1v1h-1z M52,81h1v1h-1z M54,81h1v1h-1z M55,81h1v1h-1z M56,81h1v1h-1z M57,81h1v1h-1z M60,81h1v1h-1z M62,81h1v1h-1z M65,81h1v1h-1z M66,81h1v1h-1z M72,81h1v1h-1z M78,81h1v1h-1z M80,81h1v1h-1z M81,81h1v1h-1z M83,81h1v1h-1z M84,81h1v1h-1z M88,81h1v1h-1z M95,81h1v1h-1z M98,81h1v1h-1z M101,81h1v1h-1z M103,81h1v1h-1z M106,81h1v1h-1z M4,82h1v1h-1z M5,82h1v1h-1z M7,82h1v1h-1z M8,82h1v1h-1z M10,82h1v1h-1z M12,82h1v1h-1z M16,82h1v1h-1z M19,82h1v1h-1z M21,82h1v1h-1z M23,82h1v1h-1z M24,82h1v1h-1z M25,82h1v1h-1z M26,82h1v1h-1z M30,82h1v1h-1z M32,82h1v1h-1z M35,82h1v1h-1z M36,82h1v1h-1z M38,82h1v1h-1z M39,82h1v1h-1z M41,82h1v1h-1z M47,82h1v1h-1z M48,82h1v1h-1z M50,82h1v1h-1z M52,82h1v1h-1z M54,82h1v1h-1z M55,82h1v1h-1z M56,82h1v1h-1z M59,82h1v1h-1z M61,82h1v1h-1z M62,82h1v1h-1z M64,82h1v1h-1z M65,82h1v1h-1z M69,82h1v1h-1z M74,82h1v1h-1z M76,82h1v1h-1z M77,82h1v1h-1z M80,82h1v1h-1z M83,82h1v1h-1z M84,82h1v1h-1z M86,82h1v1h-1z M87,82h1v1h-1z M88,82h1v1h-1z M89,82h1v1h-1z M93,82h1v1h-1z M95,82h1v1h-1z M96,82h1v1h-1z M98,82h1v1h-1z M99,82h1v1h-1z M100,82h1v1h-1z M101,82h1v1h-1z M103,82h1v1h-1z M107,82h1v1h-1z M6,83h1v1h-1z M11,83h1v1h-1z M14,83h1v1h-1z M17,83h1v1h-1z M18,83h1v1h-1z M19,83h1v1h-1z M21,83h1v1h-1z M22,83h1v1h-1z M27,83h1v1h-1z M32,83h1v1h-1z M33,83h1v1h-1z M35,83h1v1h-1z M41,83h1v1h-1z M44,83h1v1h-1z M45,83h1v1h-1z M46,83h1v1h-1z M49,83h1v1h-1z M53,83h1v1h-1z M55,83h1v1h-1z M56,83h1v1h-1z M59,83h1v1h-1z M66,83h1v1h-1z M68,83h1v1h-1z M70,83h1v1h-1z M71,83h1v1h-1z M73,83h1v1h-1z M74,83h1v1h-1z M76,83h1v1h-1z M77,83h1v1h-1z M80,83h1v1h-1z M81,83h1v1h-1z M82,83h1v1h-1z M86,83h1v1h-1z M92,83h1v1h-1z M93,83h1v1h-1z M94,83h1v1h-1z M97,83h1v1h-1z M98,83h1v1h-1z M100,83h1v1h-1z M102,83h1v1h-1z M103,83h1v1h-1z M107,83h1v1h-1z M5,84h1v1h-1z M6,84h1v1h-1z M7,84h1v1h-1z M9,84h1v1h-1z M10,84h1v1h-1z M11,84h1v1h-1z M12,84h1v1h-1z M13,84h1v1h-1z M16,84h1v1h-1z M17,84h1v1h-1z M18,84h1v1h-1z M19,84h1v1h-1z M21,84h1v1h-1z M22,84h1v1h-1z M23,84h1v1h-1z M24,84h1v1h-1z M25,84h1v1h-1z M26,84h1v1h-1z M27,84h1v1h-1z M29,84h1v1h-1z M31,84h1v1h-1z M32,84h1v1h-1z M34,84h1v1h-1z M35,84h1v1h-1z M40,84h1v1h-1z M41,84h1v1h-1z M42,84h1v1h-1z M44,84h1v1h-1z M47,84h1v1h-1z M48,84h1v1h-1z M49,84h1v1h-1z M51,84h1v1h-1z M52,84h1v1h-1z M56,84h1v1h-1z M57,84h1v1h-1z M59,84h1v1h-1z M60,84h1v1h-1z M61,84h1v1h-1z M64,84h1v1h-1z M65,84h1v1h-1z M67,84h1v1h-1z M68,84h1v1h-1z M69,84h1v1h-1z M70,84h1v1h-1z M75,84h1v1h-1z M77,84h1v1h-1z M79,84h1v1h-1z M83,84h1v1h-1z M84,84h1v1h-1z M85,84h1v1h-1z M87,84h1v1h-1z M89,84h1v1h-1z M90,84h1v1h-1z M91,84h1v1h-1z M92,84h1v1h-1z M94,84h1v1h-1z M95,84h1v1h-1z M100,84h1v1h-1z M101,84h1v1h-1z M103,84h1v1h-1z M104,84h1v1h-1z M106,84h1v1h-1z M6,85h1v1h-1z M9,85h1v1h-1z M16,85h1v1h-1z M18,85h1v1h-1z M19,85h1v1h-1z M21,85h1v1h-1z M22,85h1v1h-1z M24,85h1v1h-1z M25,85h1v1h-1z M26,85h1v1h-1z M28,85h1v1h-1z M30,85h1v1h-1z M32,85h1v1h-1z M35,85h1v1h-1z M37,85h1v1h-1z M38,85h1v1h-1z M39,85h1v1h-1z M40,85h1v1h-1z M43,85h1v1h-1z M47,85h1v1h-1z M49,85h1v1h-1z M52,85h1v1h-1z M54,85h1v1h-1z M55,85h1v1h-1z M57,85h1v1h-1z M60,85h1v1h-1z M67,85h1v1h-1z M69,85h1v1h-1z M70,85h1v1h-1z M71,85h1v1h-1z M72,85h1v1h-1z M73,85h1v1h-1z M76,85h1v1h-1z M77,85h1v1h-1z M78,85h1v1h-1z M79,85h1v1h-1z M80,85h1v1h-1z M81,85h1v1h-1z M84,85h1v1h-1z M85,85h1v1h-1z M86,85h1v1h-1z M91,85h1v1h-1z M94,85h1v1h-1z M98,85h1v1h-1z M100,85h1v1h-1z M101,85h1v1h-1z M102,85h1v1h-1z M107,85h1v1h-1z M5,86h1v1h-1z M7,86h1v1h-1z M8,86h1v1h-1z M10,86h1v1h-1z M11,86h1v1h-1z M18,86h1v1h-1z M21,86h1v1h-1z M22,86h1v1h-1z M28,86h1v1h-1z M29,86h1v1h-1z M32,86h1v1h-1z M38,86h1v1h-1z M40,86h1v1h-1z M43,86h1v1h-1z M44,86h1v1h-1z M50,86h1v1h-1z M51,86h1v1h-1z M54,86h1v1h-1z M56,86h1v1h-1z M59,86h1v1h-1z M60,86h1v1h-1z M61,86h1v1h-1z M62,86h1v1h-1z M65,86h1v1h-1z M67,86h1v1h-1z M71,86h1v1h-1z M72,86h1v1h-1z M74,86h1v1h-1z M78,86h1v1h-1z M80,86h1v1h-1z M83,86h1v1h-1z M84,86h1v1h-1z M86,86h1v1h-1z M87,86h1v1h-1z M89,86h1v1h-1z M95,86h1v1h-1z M96,86h1v1h-1z M98,86h1v1h-1z M101,86h1v1h-1z M104,86h1v1h-1z M105,86h1v1h-1z M106,86h1v1h-1z M107,86h1v1h-1z M6,87h1v1h-1z M7,87h1v1h-1z M8,87h1v1h-1z M9,87h1v1h-1z M16,87h1v1h-1z M17,87h1v1h-1z M19,87h1v1h-1z M20,87h1v1h-1z M21,87h1v1h-1z M26,87h1v1h-1z M27,87h1v1h-1z M29,87h1v1h-1z M32,87h1v1h-1z M34,87h1v1h-1z M35,87h1v1h-1z M37,87h1v1h-1z M38,87h1v1h-1z M39,87h1v1h-1z M41,87h1v1h-1z M42,87h1v1h-1z M44,87h1v1h-1z M47,87h1v1h-1z M54,87h1v1h-1z M56,87h1v1h-1z M57,87h1v1h-1z M61,87h1v1h-1z M65,87h1v1h-1z M66,87h1v1h-1z M68,87h1v1h-1z M70,87h1v1h-1z M71,87h1v1h-1z M73,87h1v1h-1z M76,87h1v1h-1z M78,87h1v1h-1z M83,87h1v1h-1z M85,87h1v1h-1z M86,87h1v1h-1z M90,87h1v1h-1z M92,87h1v1h-1z M93,87h1v1h-1z M100,87h1v1h-1z M101,87h1v1h-1z M102,87h1v1h-1z M108,87h1v1h-1z M7,88h1v1h-1z M8,88h1v1h-1z M10,88h1v1h-1z M14,88h1v1h-1z M16,88h1v1h-1z M17,88h1v1h-1z M18,88h1v1h-1z M21,88h1v1h-1z M22,88h1v1h-1z M23,88h1v1h-1z M24,88h1v1h-1z M25,88h1v1h-1z M26,88h1v1h-1z M29,88h1v1h-1z M30,88h1v1h-1z M32,88h1v1h-1z M35,88h1v1h-1z M36,88h1v1h-1z M38,88h1v1h-1z M39,88h1v1h-1z M43,88h1v1h-1z M44,88h1v1h-1z M48,88h1v1h-1z M49,88h1v1h-1z M53,88h1v1h-1z M54,88h1v1h-1z M55,88h1v1h-1z M58,88h1v1h-1z M59,88h1v1h-1z M63,88h1v1h-1z M64,88h1v1h-1z M67,88h1v1h-1z M68,88h1v1h-1z M70,88h1v1h-1z M73,88h1v1h-1z M75,88h1v1h-1z M76,88h1v1h-1z M77,88h1v1h-1z M78,88h1v1h-1z M81,88h1v1h-1z M82,88h1v1h-1z M84,88h1v1h-1z M87,88h1v1h-1z M88,88h1v1h-1z M91,88h1v1h-1z M96,88h1v1h-1z M98,88h1v1h-1z M103,88h1v1h-1z M104,88h1v1h-1z M105,88h1v1h-1z M107,88h1v1h-1z M108,88h1v1h-1z M5,89h1v1h-1z M8,89h1v1h-1z M11,89h1v1h-1z M13,89h1v1h-1z M15,89h1v1h-1z M17,89h1v1h-1z M18,89h1v1h-1z M21,89h1v1h-1z M22,89h1v1h-1z M25,89h1v1h-1z M30,89h1v1h-1z M31,89h1v1h-1z M32,89h1v1h-1z M33,89h1v1h-1z M34,89h1v1h-1z M35,89h1v1h-1z M38,89h1v1h-1z M40,89h1v1h-1z M41,89h1v1h-1z M42,89h1v1h-1z M48,89h1v1h-1z M52,89h1v1h-1z M54,89h1v1h-1z M55,89h1v1h-1z M56,89h1v1h-1z M61,89h1v1h-1z M62,89h1v1h-1z M63,89h1v1h-1z M64,89h1v1h-1z M65,89h1v1h-1z M67,89h1v1h-1z M69,89h1v1h-1z M70,89h1v1h-1z M71,89h1v1h-1z M72,89h1v1h-1z M78,89h1v1h-1z M81,89h1v1h-1z M82,89h1v1h-1z M84,89h1v1h-1z M85,89h1v1h-1z M87,89h1v1h-1z M88,89h1v1h-1z M89,89h1v1h-1z M94,89h1v1h-1z M96,89h1v1h-1z M100,89h1v1h-1z M107,89h1v1h-1z M5,90h1v1h-1z M6,90h1v1h-1z M8,90h1v1h-1z M10,90h1v1h-1z M11,90h1v1h-1z M12,90h1v1h-1z M14,90h1v1h-1z M15,90h1v1h-1z M17,90h1v1h-1z M21,90h1v1h-1z M23,90h1v1h-1z M25,90h1v1h-1z M27,90h1v1h-1z M28,90h1v1h-1z M29,90h1v1h-1z M30,90h1v1h-1z M31,90h1v1h-1z M32,90h1v1h-1z M35,90h1v1h-1z M38,90h1v1h-1z M39,90h1v1h-1z M41,90h1v1h-1z M50,90h1v1h-1z M54,90h1v1h-1z M56,90h1v1h-1z M57,90h1v1h-1z M62,90h1v1h-1z M65,90h1v1h-1z M71,90h1v1h-1z M72,90h1v1h-1z M74,90h1v1h-1z M80,90h1v1h-1z M81,90h1v1h-1z M83,90h1v1h-1z M86,90h1v1h-1z M87,90h1v1h-1z M88,90h1v1h-1z M89,90h1v1h-1z M92,90h1v1h-1z M96,90h1v1h-1z M98,90h1v1h-1z M99,90h1v1h-1z M101,90h1v1h-1z M103,90h1v1h-1z M104,90h1v1h-1z M107,90h1v1h-1z M5,91h1v1h-1z M13,91h1v1h-1z M14,91h1v1h-1z M16,91h1v1h-1z M17,91h1v1h-1z M19,91h1v1h-1z M22,91h1v1h-1z M23,91h1v1h-1z M26,91h1v1h-1z M27,91h1v1h-1z M30,91h1v1h-1z M31,91h1v1h-1z M32,91h1v1h-1z M35,91h1v1h-1z M42,91h1v1h-1z M44,91h1v1h-1z M47,91h1v1h-1z M51,91h1v1h-1z M52,91h1v1h-1z M53,91h1v1h-1z M55,91h1v1h-1z M58,91h1v1h-1z M59,91h1v1h-1z M61,91h1v1h-1z M66,91h1v1h-1z M67,91h1v1h-1z M68,91h1v1h-1z M71,91h1v1h-1z M73,91h1v1h-1z M74,91h1v1h-1z M82,91h1v1h-1z M83,91h1v1h-1z M92,91h1v1h-1z M93,91h1v1h-1z M95,91h1v1h-1z M98,91h1v1h-1z M99,91h1v1h-1z M100,91h1v1h-1z M101,91h1v1h-1z M103,91h1v1h-1z M104,91h1v1h-1z M107,91h1v1h-1z M108,91h1v1h-1z M4,92h1v1h-1z M6,92h1v1h-1z M10,92h1v1h-1z M11,92h1v1h-1z M13,92h1v1h-1z M14,92h1v1h-1z M15,92h1v1h-1z M16,92h1v1h-1z M17,92h1v1h-1z M19,92h1v1h-1z M20,92h1v1h-1z M21,92h1v1h-1z M25,92h1v1h-1z M26,92h1v1h-1z M29,92h1v1h-1z M30,92h1v1h-1z M31,92h1v1h-1z M33,92h1v1h-1z M41,92h1v1h-1z M42,92h1v1h-1z M45,92h1v1h-1z M46,92h1v1h-1z M49,92h1v1h-1z M51,92h1v1h-1z M52,92h1v1h-1z M56,92h1v1h-1z M57,92h1v1h-1z M58,92h1v1h-1z M59,92h1v1h-1z M60,92h1v1h-1z M62,92h1v1h-1z M64,92h1v1h-1z M66,92h1v1h-1z M68,92h1v1h-1z M70,92h1v1h-1z M74,92h1v1h-1z M77,92h1v1h-1z M79,92h1v1h-1z M82,92h1v1h-1z M85,92h1v1h-1z M86,92h1v1h-1z M87,92h1v1h-1z M89,92h1v1h-1z M92,92h1v1h-1z M94,92h1v1h-1z M101,92h1v1h-1z M104,92h1v1h-1z M107,92h1v1h-1z M5,93h1v1h-1z M7,93h1v1h-1z M8,93h1v1h-1z M9,93h1v1h-1z M11,93h1v1h-1z M13,93h1v1h-1z M18,93h1v1h-1z M19,93h1v1h-1z M23,93h1v1h-1z M24,93h1v1h-1z M26,93h1v1h-1z M28,93h1v1h-1z M30,93h1v1h-1z M31,93h1v1h-1z M33,93h1v1h-1z M35,93h1v1h-1z M36,93h1v1h-1z M40,93h1v1h-1z M41,93h1v1h-1z M42,93h1v1h-1z M43,93h1v1h-1z M45,93h1v1h-1z M47,93h1v1h-1z M48,93h1v1h-1z M50,93h1v1h-1z M54,93h1v1h-1z M55,93h1v1h-1z M56,93h1v1h-1z M58,93h1v1h-1z M61,93h1v1h-1z M62,93h1v1h-1z M63,93h1v1h-1z M64,93h1v1h-1z M67,93h1v1h-1z M69,93h1v1h-1z M71,93h1v1h-1z M72,93h1v1h-1z M77,93h1v1h-1z M78,93h1v1h-1z M79,93h1v1h-1z M80,93h1v1h-1z M84,93h1v1h-1z M86,93h1v1h-1z M88,93h1v1h-1z M92,93h1v1h-1z M94,93h1v1h-1z M96,93h1v1h-1z M97,93h1v1h-1z M98,93h1v1h-1z M99,93h1v1h-1z M101,93h1v1h-1z M102,93h1v1h-1z M103,93h1v1h-1z M107,93h1v1h-1z M4,94h1v1h-1z M6,94h1v1h-1z M7,94h1v1h-1z M8,94h1v1h-1z M10,94h1v1h-1z M13,94h1v1h-1z M14,94h1v1h-1z M15,94h1v1h-1z M16,94h1v1h-1z M19,94h1v1h-1z M22,94h1v1h-1z M24,94h1v1h-1z M28,94h1v1h-1z M30,94h1v1h-1z M32,94h1v1h-1z M38,94h1v1h-1z M40,94h1v1h-1z M44,94h1v1h-1z M47,94h1v1h-1z M48,94h1v1h-1z M50,94h1v1h-1z M51,94h1v1h-1z M52,94h1v1h-1z M54,94h1v1h-1z M55,94h1v1h-1z M56,94h1v1h-1z M62,94h1v1h-1z M63,94h1v1h-1z M65,94h1v1h-1z M71,94h1v1h-1z M72,94h1v1h-1z M74,94h1v1h-1z M75,94h1v1h-1z M78,94h1v1h-1z M79,94h1v1h-1z M80,94h1v1h-1z M83,94h1v1h-1z M86,94h1v1h-1z M87,94h1v1h-1z M89,94h1v1h-1z M91,94h1v1h-1z M92,94h1v1h-1z M96,94h1v1h-1z M98,94h1v1h-1z M101,94h1v1h-1z M103,94h1v1h-1z M104,94h1v1h-1z M105,94h1v1h-1z M106,94h1v1h-1z M107,94h1v1h-1z M5,95h1v1h-1z M7,95h1v1h-1z M15,95h1v1h-1z M17,95h1v1h-1z M18,95h1v1h-1z M19,95h1v1h-1z M22,95h1v1h-1z M25,95h1v1h-1z M31,95h1v1h-1z M32,95h1v1h-1z M33,95h1v1h-1z M34,95h1v1h-1z M35,95h1v1h-1z M37,95h1v1h-1z M39,95h1v1h-1z M41,95h1v1h-1z M42,95h1v1h-1z M44,95h1v1h-1z M49,95h1v1h-1z M50,95h1v1h-1z M52,95h1v1h-1z M53,95h1v1h-1z M56,95h1v1h-1z M57,95h1v1h-1z M58,95h1v1h-1z M59,95h1v1h-1z M61,95h1v1h-1z M65,95h1v1h-1z M68,95h1v1h-1z M73,95h1v1h-1z M74,95h1v1h-1z M75,95h1v1h-1z M78,95h1v1h-1z M80,95h1v1h-1z M83,95h1v1h-1z M85,95h1v1h-1z M92,95h1v1h-1z M93,95h1v1h-1z M97,95h1v1h-1z M100,95h1v1h-1z M101,95h1v1h-1z M103,95h1v1h-1z M107,95h1v1h-1z M108,95h1v1h-1z M4,96h1v1h-1z M5,96h1v1h-1z M6,96h1v1h-1z M8,96h1v1h-1z M9,96h1v1h-1z M10,96h1v1h-1z M11,96h1v1h-1z M18,96h1v1h-1z M20,96h1v1h-1z M21,96h1v1h-1z M26,96h1v1h-1z M27,96h1v1h-1z M29,96h1v1h-1z M30,96h1v1h-1z M31,96h1v1h-1z M32,96h1v1h-1z M33,96h1v1h-1z M34,96h1v1h-1z M37,96h1v1h-1z M38,96h1v1h-1z M42,96h1v1h-1z M44,96h1v1h-1z M45,96h1v1h-1z M46,96h1v1h-1z M48,96h1v1h-1z M49,96h1v1h-1z M50,96h1v1h-1z M55,96h1v1h-1z M57,96h1v1h-1z M58,96h1v1h-1z M64,96h1v1h-1z M66,96h1v1h-1z M71,96h1v1h-1z M72,96h1v1h-1z M74,96h1v1h-1z M77,96h1v1h-1z M78,96h1v1h-1z M79,96h1v1h-1z M80,96h1v1h-1z M82,96h1v1h-1z M83,96h1v1h-1z M89,96h1v1h-1z M90,96h1v1h-1z M91,96h1v1h-1z M93,96h1v1h-1z M94,96h1v1h-1z M96,96h1v1h-1z M97,96h1v1h-1z M98,96h1v1h-1z M100,96h1v1h-1z M102,96h1v1h-1z M103,96h1v1h-1z M105,96h1v1h-1z M106,96h1v1h-1z M107,96h1v1h-1z M4,97h1v1h-1z M5,97h1v1h-1z M6,97h1v1h-1z M7,97h1v1h-1z M9,97h1v1h-1z M13,97h1v1h-1z M17,97h1v1h-1z M18,97h1v1h-1z M19,97h1v1h-1z M21,97h1v1h-1z M22,97h1v1h-1z M25,97h1v1h-1z M28,97h1v1h-1z M30,97h1v1h-1z M32,97h1v1h-1z M35,97h1v1h-1z M38,97h1v1h-1z M40,97h1v1h-1z M41,97h1v1h-1z M43,97h1v1h-1z M46,97h1v1h-1z M48,97h1v1h-1z M54,97h1v1h-1z M57,97h1v1h-1z M58,97h1v1h-1z M62,97h1v1h-1z M65,97h1v1h-1z M66,97h1v1h-1z M69,97h1v1h-1z M70,97h1v1h-1z M72,97h1v1h-1z M77,97h1v1h-1z M78,97h1v1h-1z M81,97h1v1h-1z M84,97h1v1h-1z M86,97h1v1h-1z M87,97h1v1h-1z M94,97h1v1h-1z M95,97h1v1h-1z M96,97h1v1h-1z M97,97h1v1h-1z M103,97h1v1h-1z M105,97h1v1h-1z M4,98h1v1h-1z M5,98h1v1h-1z M6,98h1v1h-1z M10,98h1v1h-1z M12,98h1v1h-1z M13,98h1v1h-1z M15,98h1v1h-1z M18,98h1v1h-1z M20,98h1v1h-1z M22,98h1v1h-1z M24,98h1v1h-1z M25,98h1v1h-1z M26,98h1v1h-1z M32,98h1v1h-1z M33,98h1v1h-1z M36,98h1v1h-1z M38,98h1v1h-1z M41,98h1v1h-1z M44,98h1v1h-1z M47,98h1v1h-1z M48,98h1v1h-1z M50,98h1v1h-1z M52,98h1v1h-1z M54,98h1v1h-1z M56,98h1v1h-1z M59,98h1v1h-1z M60,98h1v1h-1z M62,98h1v1h-1z M63,98h1v1h-1z M64,98h1v1h-1z M67,98h1v1h-1z M68,98h1v1h-1z M71,98h1v1h-1z M72,98h1v1h-1z M73,98h1v1h-1z M74,98h1v1h-1z M75,98h1v1h-1z M77,98h1v1h-1z M78,98h1v1h-1z M80,98h1v1h-1z M83,98h1v1h-1z M84,98h1v1h-1z M86,98h1v1h-1z M89,98h1v1h-1z M91,98h1v1h-1z M96,98h1v1h-1z M98,98h1v1h-1z M99,98h1v1h-1z M101,98h1v1h-1z M106,98h1v1h-1z M6,99h1v1h-1z M8,99h1v1h-1z M9,99h1v1h-1z M12,99h1v1h-1z M13,99h1v1h-1z M15,99h1v1h-1z M16,99h1v1h-1z M17,99h1v1h-1z M19,99h1v1h-1z M20,99h1v1h-1z M24,99h1v1h-1z M27,99h1v1h-1z M28,99h1v1h-1z M31,99h1v1h-1z M34,99h1v1h-1z M35,99h1v1h-1z M37,99h1v1h-1z M41,99h1v1h-1z M42,99h1v1h-1z M44,99h1v1h-1z M47,99h1v1h-1z M49,99h1v1h-1z M50,99h1v1h-1z M52,99h1v1h-1z M55,99h1v1h-1z M58,99h1v1h-1z M65,99h1v1h-1z M66,99h1v1h-1z M68,99h1v1h-1z M69,99h1v1h-1z M70,99h1v1h-1z M71,99h1v1h-1z M75,99h1v1h-1z M76,99h1v1h-1z M79,99h1v1h-1z M85,99h1v1h-1z M92,99h1v1h-1z M93,99h1v1h-1z M97,99h1v1h-1z M100,99h1v1h-1z M101,99h1v1h-1z M102,99h1v1h-1z M104,99h1v1h-1z M107,99h1v1h-1z M7,100h1v1h-1z M8,100h1v1h-1z M10,100h1v1h-1z M14,100h1v1h-1z M17,100h1v1h-1z M20,100h1v1h-1z M24,100h1v1h-1z M25,100h1v1h-1z M27,100h1v1h-1z M28,100h1v1h-1z M29,100h1v1h-1z M30,100h1v1h-1z M31,100h1v1h-1z M32,100h1v1h-1z M33,100h1v1h-1z M34,100h1v1h-1z M35,100h1v1h-1z M36,100h1v1h-1z M38,100h1v1h-1z M40,100h1v1h-1z M41,100h1v1h-1z M42,100h1v1h-1z M44,100h1v1h-1z M46,100h1v1h-1z M49,100h1v1h-1z M50,100h1v1h-1z M52,100h1v1h-1z M53,100h1v1h-1z M54,100h1v1h-1z M55,100h1v1h-1z M56,100h1v1h-1z M57,100h1v1h-1z M59,100h1v1h-1z M60,100h1v1h-1z M63,100h1v1h-1z M65,100h1v1h-1z M71,100h1v1h-1z M75,100h1v1h-1z M76,100h1v1h-1z M77,100h1v1h-1z M78,100h1v1h-1z M79,100h1v1h-1z M80,100h1v1h-1z M83,100h1v1h-1z M84,100h1v1h-1z M85,100h1v1h-1z M89,100h1v1h-1z M90,100h1v1h-1z M91,100h1v1h-1z M92,100h1v1h-1z M93,100h1v1h-1z M94,100h1v1h-1z M95,100h1v1h-1z M96,100h1v1h-1z M98,100h1v1h-1z M100,100h1v1h-1z M101,100h1v1h-1z M102,100h1v1h-1z M103,100h1v1h-1z M104,100h1v1h-1z M106,100h1v1h-1z M108,100h1v1h-1z M12,101h1v1h-1z M14,101h1v1h-1z M15,101h1v1h-1z M17,101h1v1h-1z M19,101h1v1h-1z M21,101h1v1h-1z M24,101h1v1h-1z M25,101h1v1h-1z M28,101h1v1h-1z M32,101h1v1h-1z M33,101h1v1h-1z M34,101h1v1h-1z M36,101h1v1h-1z M37,101h1v1h-1z M38,101h1v1h-1z M40,101h1v1h-1z M42,101h1v1h-1z M43,101h1v1h-1z M48,101h1v1h-1z M49,101h1v1h-1z M51,101h1v1h-1z M52,101h1v1h-1z M56,101h1v1h-1z M57,101h1v1h-1z M58,101h1v1h-1z M59,101h1v1h-1z M60,101h1v1h-1z M62,101h1v1h-1z M63,101h1v1h-1z M64,101h1v1h-1z M65,101h1v1h-1z M66,101h1v1h-1z M70,101h1v1h-1z M71,101h1v1h-1z M72,101h1v1h-1z M73,101h1v1h-1z M76,101h1v1h-1z M80,101h1v1h-1z M81,101h1v1h-1z M83,101h1v1h-1z M84,101h1v1h-1z M85,101h1v1h-1z M86,101h1v1h-1z M88,101h1v1h-1z M89,101h1v1h-1z M91,101h1v1h-1z M92,101h1v1h-1z M93,101h1v1h-1z M96,101h1v1h-1z M97,101h1v1h-1z M98,101h1v1h-1z M100,101h1v1h-1z M104,101h1v1h-1z M107,101h1v1h-1z M108,101h1v1h-1z M4,102h1v1h-1z M5,102h1v1h-1z M6,102h1v1h-1z M7,102h1v1h-1z M8,102h1v1h-1z M9,102h1v1h-1z M10,102h1v1h-1z M14,102h1v1h-1z M16,102h1v1h-1z M19,102h1v1h-1z M22,102h1v1h-1z M23,102h1v1h-1z M24,102h1v1h-1z M25,102h1v1h-1z M27,102h1v1h-1z M28,102h1v1h-1z M30,102h1v1h-1z M32,102h1v1h-1z M36,102h1v1h-1z M38,102h1v1h-1z M39,102h1v1h-1z M40,102h1v1h-1z M41,102h1v1h-1z M43,102h1v1h-1z M44,102h1v1h-1z M47,102h1v1h-1z M48,102h1v1h-1z M50,102h1v1h-1z M51,102h1v1h-1z M52,102h1v1h-1z M54,102h1v1h-1z M56,102h1v1h-1z M59,102h1v1h-1z M62,102h1v1h-1z M63,102h1v1h-1z M65,102h1v1h-1z M67,102h1v1h-1z M68,102h1v1h-1z M74,102h1v1h-1z M75,102h1v1h-1z M76,102h1v1h-1z M78,102h1v1h-1z M80,102h1v1h-1z M83,102h1v1h-1z M84,102h1v1h-1z M86,102h1v1h-1z M87,102h1v1h-1z M88,102h1v1h-1z M89,102h1v1h-1z M95,102h1v1h-1z M96,102h1v1h-1z M98,102h1v1h-1z M99,102h1v1h-1z M100,102h1v1h-1z M102,102h1v1h-1z M104,102h1v1h-1z M105,102h1v1h-1z M106,102h1v1h-1z M107,102h1v1h-1z M4,103h1v1h-1z M10,103h1v1h-1z M12,103h1v1h-1z M13,103h1v1h-1z M15,103h1v1h-1z M16,103h1v1h-1z M19,103h1v1h-1z M20,103h1v1h-1z M22,103h1v1h-1z M23,103h1v1h-1z M25,103h1v1h-1z M26,103h1v1h-1z M27,103h1v1h-1z M28,103h1v1h-1z M32,103h1v1h-1z M33,103h1v1h-1z M35,103h1v1h-1z M37,103h1v1h-1z M44,103h1v1h-1z M45,103h1v1h-1z M51,103h1v1h-1z M52,103h1v1h-1z M56,103h1v1h-1z M59,103h1v1h-1z M62,103h1v1h-1z M65,103h1v1h-1z M66,103h1v1h-1z M68,103h1v1h-1z M71,103h1v1h-1z M73,103h1v1h-1z M76,103h1v1h-1z M80,103h1v1h-1z M81,103h1v1h-1z M82,103h1v1h-1z M83,103h1v1h-1z M86,103h1v1h-1z M90,103h1v1h-1z M92,103h1v1h-1z M93,103h1v1h-1z M97,103h1v1h-1z M100,103h1v1h-1z M104,103h1v1h-1z M107,103h1v1h-1z M4,104h1v1h-1z M6,104h1v1h-1z M7,104h1v1h-1z M8,104h1v1h-1z M10,104h1v1h-1z M12,104h1v1h-1z M17,104h1v1h-1z M18,104h1v1h-1z M19,104h1v1h-1z M20,104h1v1h-1z M21,104h1v1h-1z M22,104h1v1h-1z M26,104h1v1h-1z M27,104h1v1h-1z M28,104h1v1h-1z M29,104h1v1h-1z M30,104h1v1h-1z M31,104h1v1h-1z M32,104h1v1h-1z M38,104h1v1h-1z M40,104h1v1h-1z M43,104h1v1h-1z M50,104h1v1h-1z M52,104h1v1h-1z M53,104h1v1h-1z M54,104h1v1h-1z M55,104h1v1h-1z M56,104h1v1h-1z M57,104h1v1h-1z M58,104h1v1h-1z M62,104h1v1h-1z M63,104h1v1h-1z M65,104h1v1h-1z M66,104h1v1h-1z M69,104h1v1h-1z M72,104h1v1h-1z M74,104h1v1h-1z M75,104h1v1h-1z M76,104h1v1h-1z M77,104h1v1h-1z M78,104h1v1h-1z M79,104h1v1h-1z M80,104h1v1h-1z M82,104h1v1h-1z M83,104h1v1h-1z M85,104h1v1h-1z M86,104h1v1h-1z M87,104h1v1h-1z M88,104h1v1h-1z M90,104h1v1h-1z M95,104h1v1h-1z M97,104h1v1h-1z M100,104h1v1h-1z M101,104h1v1h-1z M102,104h1v1h-1z M103,104h1v1h-1z M104,104h1v1h-1z M107,104h1v1h-1z M4,105h1v1h-1z M6,105h1v1h-1z M7,105h1v1h-1z M8,105h1v1h-1z M10,105h1v1h-1z M13,105h1v1h-1z M14,105h1v1h-1z M15,105h1v1h-1z M17,105h1v1h-1z M18,105h1v1h-1z M19,105h1v1h-1z M20,105h1v1h-1z M22,105h1v1h-1z M23,105h1v1h-1z M24,105h1v1h-1z M26,105h1v1h-1z M27,105h1v1h-1z M28,105h1v1h-1z M29,105h1v1h-1z M31,105h1v1h-1z M35,105h1v1h-1z M36,105h1v1h-1z M38,105h1v1h-1z M39,105h1v1h-1z M40,105h1v1h-1z M43,105h1v1h-1z M44,105h1v1h-1z M45,105h1v1h-1z M46,105h1v1h-1z M49,105h1v1h-1z M51,105h1v1h-1z M55,105h1v1h-1z M56,105h1v1h-1z M57,105h1v1h-1z M61,105h1v1h-1z M64,105h1v1h-1z M66,105h1v1h-1z M67,105h1v1h-1z M69,105h1v1h-1z M71,105h1v1h-1z M72,105h1v1h-1z M74,105h1v1h-1z M75,105h1v1h-1z M76,105h1v1h-1z M78,105h1v1h-1z M79,105h1v1h-1z M80,105h1v1h-1z M81,105h1v1h-1z M82,105h1v1h-1z M83,105h1v1h-1z M85,105h1v1h-1z M86,105h1v1h-1z M87,105h1v1h-1z M89,105h1v1h-1z M90,105h1v1h-1z M91,105h1v1h-1z M92,105h1v1h-1z M94,105h1v1h-1z M96,105h1v1h-1z M98,105h1v1h-1z M102,105h1v1h-1z M103,105h1v1h-1z M104,105h1v1h-1z M106,105h1v1h-1z M107,105h1v1h-1z M108,105h1v1h-1z M4,106h1v1h-1z M6,106h1v1h-1z M7,106h1v1h-1z M8,106h1v1h-1z M10,106h1v1h-1z M14,106h1v1h-1z M17,106h1v1h-1z M20,106h1v1h-1z M22,106h1v1h-1z M25,106h1v1h-1z M28,106h1v1h-1z M29,106h1v1h-1z M32,106h1v1h-1z M35,106h1v1h-1z M38,106h1v1h-1z M39,106h1v1h-1z M40,106h1v1h-1z M44,106h1v1h-1z M47,106h1v1h-1z M48,106h1v1h-1z M49,106h1v1h-1z M50,106h1v1h-1z M51,106h1v1h-1z M52,106h1v1h-1z M53,106h1v1h-1z M56,106h1v1h-1z M57,106h1v1h-1z M59,106h1v1h-1z M60,106h1v1h-1z M62,106h1v1h-1z M63,106h1v1h-1z M65,106h1v1h-1z M71,106h1v1h-1z M72,106h1v1h-1z M74,106h1v1h-1z M76,106h1v1h-1z M77,106h1v1h-1z M80,106h1v1h-1z M83,106h1v1h-1z M85,106h1v1h-1z M86,106h1v1h-1z M88,106h1v1h-1z M91,106h1v1h-1z M92,106h1v1h-1z M95,106h1v1h-1z M96,106h1v1h-1z M98,106h1v1h-1z M101,106h1v1h-1z M104,106h1v1h-1z M105,106h1v1h-1z M106,106h1v1h-1z M4,107h1v1h-1z M10,107h1v1h-1z M12,107h1v1h-1z M16,107h1v1h-1z M18,107h1v1h-1z M20,107h1v1h-1z M25,107h1v1h-1z M27,107h1v1h-1z M29,107h1v1h-1z M30,107h1v1h-1z M32,107h1v1h-1z M33,107h1v1h-1z M34,107h1v1h-1z M35,107h1v1h-1z M37,107h1v1h-1z M38,107h1v1h-1z M41,107h1v1h-1z M42,107h1v1h-1z M44,107h1v1h-1z M46,107h1v1h-1z M47,107h1v1h-1z M51,107h1v1h-1z M53,107h1v1h-1z M56,107h1v1h-1z M58,107h1v1h-1z M62,107h1v1h-1z M68,107h1v1h-1z M70,107h1v1h-1z M73,107h1v1h-1z M75,107h1v1h-1z M77,107h1v1h-1z M78,107h1v1h-1z M80,107h1v1h-1z M82,107h1v1h-1z M83,107h1v1h-1z M89,107h1v1h-1z M90,107h1v1h-1z M92,107h1v1h-1z M93,107h1v1h-1z M94,107h1v1h-1z M97,107h1v1h-1z M98,107h1v1h-1z M99,107h1v1h-1z M101,107h1v1h-1z M103,107h1v1h-1z M104,107h1v1h-1z M4,108h1v1h-1z M5,108h1v1h-1z M6,108h1v1h-1z M7,108h1v1h-1z M8,108h1v1h-1z M9,108h1v1h-1z M10,108h1v1h-1z M12,108h1v1h-1z M15,108h1v1h-1z M16,108h1v1h-1z M17,108h1v1h-1z M19,108h1v1h-1z M20,108h1v1h-1z M21,108h1v1h-1z M22,108h1v1h-1z M23,108h1v1h-1z M25,108h1v1h-1z M26,108h1v1h-1z M27,108h1v1h-1z M30,108h1v1h-1z M33,108h1v1h-1z M34,108h1v1h-1z M35,108h1v1h-1z M42,108h1v1h-1z M48,108h1v1h-1z M54,108h1v1h-1z M55,108h1v1h-1z M56,108h1v1h-1z M59,108h1v1h-1z M64,108h1v1h-1z M65,108h1v1h-1z M68,108h1v1h-1z M69,108h1v1h-1z M74,108h1v1h-1z M75,108h1v1h-1z M81,108h1v1h-1z M82,108h1v1h-1z M87,108h1v1h-1z M90,108h1v1h-1z M91,108h1v1h-1z M94,108h1v1h-1z M97,108h1v1h-1z M100,108h1v1h-1z M103,108h1v1h-1z M108,108h1v1h-1z" fill="#000000"/>
</svg>
