<?xml version="1.0" encoding="UTF-8"?>
<!DOCTYPE svg PUBLIC "-//W3C//DTD SVG 1.1//EN" "http://www.w3.org/Graphics/SVG/1.1/DTD/svg11.dtd">
<svg xmlns="http://www.w3.org/2000/svg" version="1.1" viewBox="0 0 113 113" stroke="none">
	<rect width="100%" height="100%" fill="#FFFFFF"/>
	<path d="M4,4h1v1h-1z M5,4h1v1h-1z M6,4h1v1h-1z M7,4h1v1h-1z M8,4h1v1h-1z M9,4h1v1h-1z M10,4h1v1h-1z M13,4h1v1h-1z M14,4h1v1h-1z M16,4h1v1h-1z M18,4h1v1h-1z M23,4h1v1h-1z M24,4h1v1h-1z M25,4h1v1h-1z M27,4h1v1h-1z M28,4h1v1h-1z M29,4h1v1h-1z M31,4h1v1h-1z M35,4h1v1h-1z M38,4h1v1h-1z M39,4h1v1h-1z M40,4h1v1h-1z M41,4h1v1h-1z M42,4h1v1h-1z M43,4h1v1h-1z M45,4h1v1h-1z M46,4h1v1h-1z M47,4h1v1h-1z M48,4h1v1h-1z M51,4h1v1h-1z M54,4h1v1h-1z M56,4h1v1h-1z M59,4h1v1h-1z M62,4h1v1h-1z M63,4h1v1h-1z M65,4h1v1h-1z M67,4h1v1h-1z M68,4h1v1h-1z M69,4h1v1h-1z M72,4h1v1h-1z M73,4h1v1h-1z M74,4h1v1h-1z M76,4h1v1h-1z M77,4h1v1h-1z M78,4h1v1h-1z M79,4h1v1h-1z M80,4h1v1h-1z M81,4h1v1h-1z M82,4h1v1h-1z M84,4h1v1h-1z M85,4h1v1h-1z M88,4h1v1h-1z M90,4h1v1h-1z M92,4h1v1h-1z M93,4h1v1h-1z M94,4h1v1h-1z M95,4h1v1h-1z M96,4h1v1h-1z M97,4h1v1h-1z M98,4h1v1h-1z M102,4h1v1h-1z M103,4h1v1h-1z M104,4h1v1h-1z M105,4h1v1h-1z M106,4h1v1h-1z M107,4h1v1h-1z M108,4h1v1h-1z M4,5h1v1h-1z M10,5h1v1h-1z M13,5h1v1h-1z M15,5h1v1h-1z M16,5h1v1h-1z M17,5h1v1h-1z M19,5h1v1h-1z M20,5h1v1h-1z M21,5h1v1h-1z M22,5h1v1h-1z M29,5h1v1h-1z M31,5h1v1h-1z M32,5h1v1h-1z M34,5h1v1h-1z M35,5h1v1h-1z M36,5h1v1h-1z M37,5h1v1h-1z M39,5h1v1h-1z M40,5h1v1h-1z M41,5h1v1h-1z M43,5h1v1h-1z M45,5h1v1h-1z M46,5h1v1h-1z M47,5h1v1h-1z M48,5h1v1h-1z M49,5h1v1h-1z M53,5h1v1h-1z M56,5h1v1h-1z M58,5h1v1h-1z M61,5h1v1h-1z M63,5h1v1h-1z M65,5h1v1h-1z M68,5h1v1h-1z M69,5h1v1h-1z M70,5h1v1h-1z M71,5h1v1h-1z M72,5h1v1h-1z M75,5h1v1h-1z M76,5h1v1h-1z M79,5h1v1h-1z M80,5h1v1h-1z M81,5h1v1h-1z M82,5h1v1h-1z M84,5h1v1h-1z M85,5h1v1h-1z M88,5h1v1h-1z M89,5h1v1h-1z M93,5h1v1h-1z M94,5h1v1h-1z M95,5h1v1h-1z M96,5h1v1h-1z M97,5h1v1h-1z M98,5h1v1h-1z M102,5h1v1h-1z M108,5h1v1h-1z M4,6h1v1h-1z M6,6h1v1h-1z M7,6h1v1h-1z M8,6h1v1h-1z M10,6h1v1h-1z M13,6h1v1h-1z M14,6h1v1h-1z M15,6h1v1h-1z M16,6h1v1h-1z M18,6h1v1h-1z M25,6h1v1h-1z M27,6h1v1h-1z M28,6h1v1h-1z M31,6h1v1h-1z M33,6h1v1h-1z M39,6h1v1h-1z M40,6h1v1h-1z M41,6h1v1h-1z M46,6h1v1h-1z M47,6h1v1h-1z M51,6h1v1h-1z M52,6h1v1h-1z M54,6h1v1h-1z M57,6h1v1h-1z M59,6h1v1h-1z M61,6h1v1h-1z M63,6h1v1h-1z M64,6h1v1h-1z M65,6h1v1h-1z M66,6h1v1h-1z M67,6h1v1h-1z M71,6h1v1h-1z M73,6h1v1h-1z M74,6h1v1h-1z M75,6h1v1h-1z M76,6h1v1h-1z M77,6h1v1h-1z M78,6h1v1h-1z M79,6h1v1h-1z M82,6h1v1h-1z M83,6h1v1h-1z M85,6h1v1h-1z M86,6h1v1h-1z M87,6h1v1h-1z M88,6h1v1h-1z M89,6h1v1h-1z M90,6h1v1h-1z M94,6h1v1h-1z M95,6h1v1h-1z M98,6h1v1h-1z M99,6h1v1h-1z M102,6h1v1h-1z M104,6h1v1h-1z M105,6h1v1h-1z M106,6h1v1h-1z M108,6h1v1h-1z M4,7h1v1h-1z M6,7h1v1h-1z M7,7h1v1h-1z M8,7h1v1h-1z M10,7h1v1h-1z M12,7h1v1h-1z M15,7h1v1h-1z M16,7h1v1h-1z M17,7h1v1h-1z M18,7h1v1h-1z M21,7h1v1h-1z M22,7h1v1h-1z M24,7h1v1h-1z M26,7h1v1h-1z M28,7h1v1h-1z M31,7h1v1h-1z M32,7h1v1h-1z M33,7h1v1h-1z M34,7h1v1h-1z M35,7h1v1h-1z M38,7h1v1h-1z M39,7h1v1h-1z M43,7h1v1h-1z M46,7h1v1h-1z M48,7h1v1h-1z M52,7h1v1h-1z M55,7h1v1h-1z M56,7h1v1h-1z M58,7h1v1h-1z M59,7h1v1h-1z M62,7h1v1h-1z M64,7h1v1h-1z M66,7h1v1h-1z M67,7h1v1h-1z M68,7h1v1h-1z M70,7h1v1h-1z M72,7h1v1h-1z M73,7h1v1h-1z M74,7h1v1h-1z M76,7h1v1h-1z M79,7h1v1h-1z M80,7h1v1h-1z M82,7h1v1h-1z M84,7h1v1h-1z M90,7h1v1h-1z M94,7h1v1h-1z M96,7h1v1h-1z M100,7h1v1h-1z M102,7h1v1h-1z M104,7h1v1h-1z M105,7h1v1h-1z M106,7h1v1h-1z M108,7h1v1h-1z M4,8h1v1h-1z M6,8h1v1h-1z M7,8h1v1h-1z M8,8h1v1h-1z M10,8h1v1h-1z M12,8h1v1h-1z M14,8h1v1h-1z M15,8h1v1h-1z M16,8h1v1h-1z M20,8h1v1h-1z M22,8h1v1h-1z M23,8h1v1h-1z M24,8h1v1h-1z M28,8h1v1h-1z M29,8h1v1h-1z M30,8h1v1h-1z M31,8h1v1h-1z M32,8h1v1h-1z M33,8h1v1h-1z M34,8h1v1h-1z M36,8h1v1h-1z M37,8h1v1h-1z M38,8h1v1h-1z M39,8h1v1h-1z M43,8h1v1h-1z M45,8h1v1h-1z M46,8h1v1h-1z M51,8h1v1h-1z M52,8h1v1h-1z M53,8h1v1h-1z M54,8h1v1h-1z M55,8h1v1h-1z M56,8h1v1h-1z M57,8h1v1h-1z M58,8h1v1h-1z M61,8h1v1h-1z M63,8h1v1h-1z M64,8h1v1h-1z M65,8h1v1h-1z M67,8h1v1h-1z M68,8h1v1h-1z M69,8h1v1h-1z M70,8h1v1h-1z M71,8h1v1h-1z M73,8h1v1h-1z M76,8h1v1h-1z M77,8h1v1h-1z M78,8h1v1h-1z M79,8h1v1h-1z M80,8h1v1h-1z M83,8h1v1h-1z M87,8h1v1h-1z M88,8h1v1h-1z M89,8h1v1h-1z M90,8h1v1h-1z M93,8h1v1h-1z M94,8h1v1h-1z M95,8h1v1h-1z M96,8h1v1h-1z M97,8h1v1h-1z M99,8h1v1h-1z M100,8h1v1h-1z M102,8h1v1h-1z M104,8h1v1h-1z M105,8h1v1h-1z M106,8h1v1h-1z M108,8h1v1h-1z M4,9h1v1h-1z M10,9h1v1h-1z M17,9h1v1h-1z M18,9h1v1h-1z M19,9h1v1h-1z M20,9h1v1h-1z M22,9h1v1h-1z M25,9h1v1h-1z M27,9h1v1h-1z M28,9h1v1h-1z M32,9h1v1h-1z M33,9h1v1h-1z M34,9h1v1h-1z M40,9h1v1h-1z M41,9h1v1h-1z M44,9h1v1h-1z M45,9h1v1h-1z M46,9h1v1h-1z M49,9h1v1h-1z M51,9h1v1h-1z M52,9h1v1h-1z M56,9h1v1h-1z M57,9h1v1h-1z M58,9h1v1h-1z M60,9h1v1h-1z M61,9h1v1h-1z M65,9h1v1h-1z M67,9h1v1h-1z M68,9h1v1h-1z M69,9h1v1h-1z M70,9h1v1h-1z M71,9h1v1h-1z M73,9h1v1h-1z M76,9h1v1h-1z M80,9h1v1h-1z M81,9h1v1h-1z M82,9h1v1h-1z M85,9h1v1h-1z M87,9h1v1h-1z M88,9h1v1h-1z M89,9h1v1h-1z M92,9h1v1h-1z M93,9h1v1h-1z M94,9h1v1h-1z M97,9h1v1h-1z M99,9h1v1h-1z M102,9h1v1h-1z M108,9h1v1h-1z M4,10h1v1h-1z M5,10h1v1h-1z M6,10h1v1h-1z M7,10h1v1h-1z M8,10h1v1h-1z M9,10h1v1h-1z M10,10h1v1h-1z M12,10h1v1h-1z M14,10h1v1h-1z M16,10h1v1h-1z M18,10h1v1h-1z M20,10h1v1h-1z M22,10h1v1h-1z M24,10h1v1h-1z M26,10h1v1h-1z M28,10h1v1h-1z M30,10h1v1h-1z M32,10h1v1h-1z M34,10h1v1h-1z M36,10h1v1h-1z M38,10h1v1h-1z M40,10h1v1h-1z M42,10h1v1h-1z M44,10h1v1h-1z M46,10h1v1h-1z M48,10h1v1h-1z M50,10h1v1h-1z M52,10h1v1h-1z M54,10h1v1h-1z M56,10h1v1h-1z M58,10h1v1h-1z M60,10h1v1h-1z M62,10h1v1h-1z M64,10h1v1h-1z M66,10h1v1h-1z M68,10h1v1h-1z M70,10h1v1h-1z M72,10h1v1h-1z M74,10h1v1h-1z M76,10h1v1h-1z M78,10h1v1h-1z M80,10h1v1h-1z M82,10h1v1h-1z M84,10h1v1h-1z M86,10h1v1h-1z M88,10h1v1h-1z M90,10h1v1h-1z M92,10h1v1h-1z M94,10h1v1h-1z M96,10h1v1h-1z M98,10h1v1h-1z M100,10h1v1h-1z M102,10h1v1h-1z M103,10h1v1h-1z M104,10h1v1h-1z M105,10h1v1h-1z M106,10h1v1h-1z M107,10h1v1h-1z M108,10h1v1h-1z M13,11h1v1h-1z M14,11h1v1h-1z M17,11h1v1h-1z M18,11h1v1h-1z M19,11h1v1h-1z M21,11h1v1h-1z M24,11h1v1h-1z M26,11h1v1h-1z M28,11h1v1h-1z M32,11h1v1h-1z M34,11h1v1h-1z M35,11h1v1h-1z M37,11h1v1h-1z M38,11h1v1h-1z M39,11h1v1h-1z M40,11h1v1h-1z M43,11h1v1h-1z M47,11h1v1h-1z M50,11h1v1h-1z M51,11h1v1h-1z M52,11h1v1h-1z M56,11h1v1h-1z M58,11h1v1h-1z M62,11h1v1h-1z M63,11h1v1h-1z M64,11h1v1h-1z M65,11h1v1h-1z M66,11h1v1h-1z M69,11h1v1h-1z M71,11h1v1h-1z M75,11h1v1h-1z M76,11h1v1h-1z M80,11h1v1h-1z M81,11h1v1h-1z M83,11h1v1h-1z M86,11h1v1h-1z M87,11h1v1h-1z M88,11h1v1h-1z M89,11h1v1h-1z M90,11h1v1h-1z M91,11h1v1h-1z M93,11h1v1h-1z M94,11h1v1h-1z M95,11h1v1h-1z M99,11h1v1h-1z M100,11h1v1h-1z M4,12h1v1h-1z M5,12h1v1h-1z M9,12h1v1h-1z M10,12h1v1h-1z M11,12h1v1h-1z M13,12h1v1h-1z M16,12h1v1h-1z M19,12h1v1h-1z M20,12h1v1h-1z M25,12h1v1h-1z M26,12h1v1h-1z M28,12h1v1h-1z M29,12h1v1h-1z M30,12h1v1h-1z M31,12h1v1h-1z M32,12h1v1h-1z M34,12h1v1h-1z M35,12h1v1h-1z M36,12h1v1h-1z M37,12h1v1h-1z M39,12h1v1h-1z M41,12h1v1h-1z M43,12h1v1h-1z M44,12h1v1h-1z M45,12h1v1h-1z M46,12h1v1h-1z M47,12h1v1h-1z M49,12h1v1h-1z M51,12h1v1h-1z M52,12h1v1h-1z M53,12h1v1h-1z M54,12h1v1h-1z M55,12h1v1h-1z M56,12h1v1h-1z M58,12h1v1h-1z M59,12h1v1h-1z M64,12h1v1h-1z M68,12h1v1h-1z M71,12h1v1h-1z M72,12h1v1h-1z M73,12h1v1h-1z M76,12h1v1h-1z M77,12h1v1h-1z M78,12h1v1h-1z M79,12h1v1h-1z M80,12h1v1h-1z M82,12h1v1h-1z M83,12h1v1h-1z M84,12h1v1h-1z M85,12h1v1h-1z M86,12h1v1h-1z M89,12h1v1h-1z M91,12h1v1h-1z M92,12h1v1h-1z M93,12h1v1h-1z M99,12h1v1h-1z M100,12h1v1h-1z M104,12h1v1h-1z M105,12h1v1h-1z M5,13h1v1h-1z M9,13h1v1h-1z M11,13h1v1h-1z M13,13h1v1h-1z M14,13h1v1h-1z M18,13h1v1h-1z M20,13h1v1h-1z M22,13h1v1h-1z M23,13h1v1h-1z M25,13h1v1h-1z M27,13h1v1h-1z M28,13h1v1h-1z M30,13h1v1h-1z M31,13h1v1h-1z M32,13h1v1h-1z M33,13h1v1h-1z M34,13h1v1h-1z M36,13h1v1h-1z M38,13h1v1h-1z M40,13h1v1h-1z M42,13h1v1h-1z M43,13h1v1h-1z M44,13h1v1h-1z M45,13h1v1h-1z M48,13h1v1h-1z M52,13h1v1h-1z M54,13h1v1h-1z M56,13h1v1h-1z M57,13h1v1h-1z M60,13h1v1h-1z M61,13h1v1h-1z M63,13h1v1h-1z M64,13h1v1h-1z M65,13h1v1h-1z M67,13h1v1h-1z M68,13h1v1h-1z M75,13h1v1h-1z M76,13h1v1h-1z M80,13h1v1h-1z M82,13h1v1h-1z M83,13h1v1h-1z M88,13h1v1h-1z M92,13h1v1h-1z M93,13h1v1h-1z M95,13h1v1h-1z M96,13h1v1h-1z M97,13h1v1h-1z M99,13h1v1h-1z M101,13h1v1h-1z M102,13h1v1h-1z M106,13h1v1h-1z M5,14h1v1h-1z M6,14h1v1h-1z M9,14h1v1h-1z M10,14h1v1h-1z M12,14h1v1h-1z M13,14h1v1h-1z M14,14h1v1h-1z M15,14h1v1h-1z M17,14h1v1h-1z M21,14h1v1h-1z M25,14h1v1h-1z M27,14h1v1h-1z M28,14h1v1h-1z M29,14h1v1h-1z M33,14h1v1h-1z M34,14h1v1h-1z M35,14h1v1h-1z M36,14h1v1h-1z M41,14h1v1h-1z M45,14h1v1h-1z M46,14h1v1h-1z M47,14h1v1h-1z M51,14h1v1h-1z M53,14h1v1h-1z M55,14h1v1h-1z M57,14h1v1h-1z M58,14h1v1h-1z M60,14h1v1h-1z M63,14h1v1h-1z M64,14h1v1h-1z M65,14h1v1h-1z M68,14h1v1h-1z M69,14h1v1h-1z M70,14h1v1h-1z M73,14h1v1h-1z M75,14h1v1h-1z M76,14h1v1h-1z M77,14h1v1h-1z M80,14h1v1h-1z M81,14h1v1h-1z M82,14h1v1h-1z M84,14h1v1h-1z M85,14h1v1h-1z M88,14h1v1h-1z M89,14h1v1h-1z M92,14h1v1h-1z M93,14h1v1h-1z M94,14h1v1h-1z M95,14h1v1h-1z M99,14h1v1h-1z M100,14h1v1h-1z M101,14h1v1h-1z M102,14h1v1h-1z M106,14h1v1h-1z M107,14h1v1h-1z M4,15h1v1h-1z M5,15h1v1h-1z M6,15h1v1h-1z M8,15h1v1h-1z M9,15h1v1h-1z M11,15h1v1h-1z M14,15h1v1h-1z M15,15h1v1h-1z M16,15h1v1h-1z M19,15h1v1h-1z M22,15h1v1h-1z M24,15h1v1h-1z M25,15h1v1h-1z M26,15h1v1h-1z M27,15h1v1h-1z M31,15h1v1h-1z M35,15h1v1h-1z M37,15h1v1h-1z M38,15h1v1h-1z M39,15h1v1h-1z M40,15h1v1h-1z M41,15h1v1h-1z M43,15h1v1h-1z M47,15h1v1h-1z M49,15h1v1h-1z M50,15h1v1h-1z M55,15h1v1h-1z M58,15h1v1h-1z M59,15h1v1h-1z M61,15h1v1h-1z M63,15h1v1h-1z M64,15h1v1h-1z M66,15h1v1h-1z M69,15h1v1h-1z M71,15h1v1h-1z M73,15h1v1h-1z M74,15h1v1h-1z M79,15h1v1h-1z M83,15h1v1h-1z M85,15h1v1h-1z M86,15h1v1h-1z M87,15h1v1h-1z M88,15h1v1h-1z M90,15h1v1h-1z M93,15h1v1h-1z M95,15h1v1h-1z M97,15h1v1h-1z M98,15h1v1h-1z M99,15h1v1h-1z M101,15h1v1h-1z M103,15h1v1h-1z M105,15h1v1h-1z M106,15h1v1h-1z M107,15h1v1h-1z M108,15h1v1h-1z M8,16h1v1h-1z M9,16h1v1h-1z M10,16h1v1h-1z M14,16h1v1h-1z M17,16h1v1h-1z M19,16h1v1h-1z M22,16h1v1h-1z M25,16h1v1h-1z M26,16h1v1h-1z M27,16h1v1h-1z M28,16h1v1h-1z M29,16h1v1h-1z M32,16h1v1h-1z M33,16h1v1h-1z M35,16h1v1h-1z M38,16h1v1h-1z M40,16h1v1h-1z M43,16h1v1h-1z M46,16h1v1h-1z M48,16h1v1h-1z M50,16h1v1h-1z M54,16h1v1h-1z M56,16h1v1h-1z M58,16h1v1h-1z M62,16h1v1h-1z M64,16h1v1h-1z M66,16h1v1h-1z M67,16h1v1h-1z M70,16h1v1h-1z M74,16h1v1h-1z M75,16h1v1h-1z M77,16h1v1h-1z M80,16h1v1h-1z M81,16h1v1h-1z M83,16h1v1h-1z M85,16h1v1h-1z M86,16h1v1h-1z M87,16h1v1h-1z M89,16h1v1h-1z M90,16h1v1h-1z M91,16h1v1h-1z M93,16h1v1h-1z M94,16h1v1h-1z M95,16h1v1h-1z M96,16h1v1h-1z M97,16h1v1h-1z M98,16h1v1h-1z M100,16h1v1h-1z M101,16h1v1h-1z M103,16h1v1h-1z M104,16h1v1h-1z M108,16h1v1h-1z M5,17h1v1h-1z M7,17h1v1h-1z M8,17h1v1h-1z M11,17h1v1h-1z M12,17h1v1h-1z M13,17h1v1h-1z M14,17h1v1h-1z M15,17h1v1h-1z M16,17h1v1h-1z M19,17h1v1h-1z M20,17h1v1h-1z M22,17h1v1h-1z M23,17h1v1h-1z M27,17h1v1h-1z M28,17h1v1h-1z M29,17h1v1h-1z M34,17h1v1h-1z M39,17h1v1h-1z M40,17h1v1h-1z M43,17h1v1h-1z M44,17h1v1h-1z M46,17h1v1h-1z M50,17h1v1h-1z M51,17h1v1h-1z M52,17h1v1h-1z M53,17h1v1h-1z M55,17h1v1h-1z M57,17h1v1h-1z M60,17h1v1h-1z M64,17h1v1h-1z M66,17h1v1h-1z M72,17h1v1h-1z M76,17h1v1h-1z M78,17h1v1h-1z M82,17h1v1h-1z M85,17h1v1h-1z M86,17h1v1h-1z M94,17h1v1h-1z M95,17h1v1h-1z M97,17h1v1h-1z M99,17h1v1h-1z M100,17h1v1h-1z M101,17h1v1h-1z M103,17h1v1h-1z M104,17h1v1h-1z M106,17h1v1h-1z M107,17h1v1h-1z M4,18h1v1h-1z M8,18h1v1h-1z M9,18h1v1h-1z M10,18h1v1h-1z M12,18h1v1h-1z M15,18h1v1h-1z M18,18h1v1h-1z M23,18h1v1h-1z M27,18h1v1h-1z M28,18h1v1h-1z M29,18h1v1h-1z M32,18h1v1h-1z M33,18h1v1h-1z M34,18h1v1h-1z M36,18h1v1h-1z M37,18h1v1h-1z M39,18h1v1h-1z M41,18h1v1h-1z M46,18h1v1h-1z M47,18h1v1h-1z M52,18h1v1h-1z M53,18h1v1h-1z M55,18h1v1h-1z M58,18h1v1h-1z M59,18h1v1h-1z M65,18h1v1h-1z M67,18h1v1h-1z M68,18h1v1h-1z M69,18h1v1h-1z M70,18h1v1h-1z M71,18h1v1h-1z M75,18h1v1h-1z M77,18h1v1h-1z M80,18h1v1h-1z M81,18h1v1h-1z M82,18h1v1h-1z M87,18h1v1h-1z M88,18h1v1h-1z M89,18h1v1h-1z M94,18h1v1h-1z M105,18h1v1h-1z M107,18h1v1h-1z M8,19h1v1h-1z M15,19h1v1h-1z M16,19h1v1h-1z M17,19h1v1h-1z M19,19h1v1h-1z M21,19h1v1h-1z M22,19h1v1h-1z M24,19h1v1h-1z M25,19h1v1h-1z M28,19h1v1h-1z M30,19h1v1h-1z M32,19h1v1h-1z M33,19h1v1h-1z M34,19h1v1h-1z M35,19h1v1h-1z M36,19h1v1h-1z M37,19h1v1h-1z M40,19h1v1h-1z M41,19h1v1h-1z M42,19h1v1h-1z M43,19h1v1h-1z M44,19h1v1h-1z M47,19h1v1h-1z M48,19h1v1h-1z M50,19h1v1h-1z M55,19h1v1h-1z M56,19h1v1h-1z M57,19h1v1h-1z M59,19h1v1h-1z M60,19h1v1h-1z M62,19h1v1h-1z M63,19h1v1h-1z M64,19h1v1h-1z M65,19h1v1h-1z M67,19h1v1h-1z M68,19h1v1h-1z M69,19h1v1h-1z M71,19h1v1h-1z M72,19h1v1h-1z M73,19h1v1h-1z M74,19h1v1h-1z M75,19h1v1h-1z M76,19h1v1h-1z M78,19h1v1h-1z M80,19h1v1h-1z M81,19h1v1h-1z M82,19h1v1h-1z M83,19h1v1h-1z M84,19h1v1h-1z M86,19h1v1h-1z M87,19h1v1h-1z M88,19h1v1h-1z M89,19h1v1h-1z M90,19h1v1h-1z M91,19h1v1h-1z M92,19h1v1h-1z M93,19h1v1h-1z M95,19h1v1h-1z M96,19h1v1h-1z M97,19h1v1h-1z M100,19h1v1h-1z M101,19h1v1h-1z M102,19h1v1h-1z M103,19h1v1h-1z M105,19h1v1h-1z M106,19h1v1h-1z M107,19h1v1h-1z M6,20h1v1h-1z M7,20h1v1h-1z M8,20h1v1h-1z M10,20h1v1h-1z M18,20h1v1h-1z M19,20h1v1h-1z M20,20h1v1h-1z M24,20h1v1h-1z M25,20h1v1h-1z M27,20h1v1h-1z M30,20h1v1h-1z M31,20h1v1h-1z M34,20h1v1h-1z M35,20h1v1h-1z M36,20h1v1h-1z M38,20h1v1h-1z M41,20h1v1h-1z M43,20h1v1h-1z M44,20h1v1h-1z M47,20h1v1h-1z M49,20h1v1h-1z M52,20h1v1h-1z M53,20h1v1h-1z M54,20h1v1h-1z M55,20h1v1h-1z M56,20h1v1h-1z M57,20h1v1h-1z M59,20h1v1h-1z M63,20h1v1h-1z M68,20h1v1h-1z M70,20h1v1h-1z M71,20h1v1h-1z M75,20h1v1h-1z M78,20h1v1h-1z M83,20h1v1h-1z M84,20h1v1h-1z M88,20h1v1h-1z M89,20h1v1h-1z M91,20h1v1h-1z M92,20h1v1h-1z M93,20h1v1h-1z M94,20h1v1h-1z M95,20h1v1h-1z M97,20h1v1h-1z M98,20h1v1h-1z M99,20h1v1h-1z M100,20h1v1h-1z M102,20h1v1h-1z M105,20h1v1h-1z M106,20h1v1h-1z M5,21h1v1h-1z M6,21h1v1h-1z M7,21h1v1h-1z M12,21h1v1h-1z M13,21h1v1h-1z M17,21h1v1h-1z M18,21h1v1h-1z M21,21h1v1h-1z M23,21h1v1h-1z M26,21h1v1h-1z M27,21h1v1h-1z M28,21h1v1h-1z M32,21h1v1h-1z M33,21h1v1h-1z M34,21h1v1h-1z M36,21h1v1h-1z M39,21h1v1h-1z M41,21h1v1h-1z M43,21h1v1h-1z M45,21h1v1h-1z M46,21h1v1h-1z M47,21h1v1h-1z M48,21h1v1h-1z M49,21h1v1h-1z M50,21h1v1h-1z M51,21h1v1h-1z M52,21h1v1h-1z M53,21h1v1h-1z M58,21h1v1h-1z M60,21h1v1h-1z M62,21h1v1h-1z M63,21h1v1h-1z M64,21h1v1h-1z M66,21h1v1h-1z M68,21h1v1h-1z M71,21h1v1h-1z M73,21h1v1h-1z M74,21h1v1h-1z M76,21h1v1h-1z M77,21h1v1h-1z M78,21h1v1h-1z M82,21h1v1h-1z M83,21h1v1h-1z M84,21h1v1h-1z M89,21h1v1h-1z M93,21h1v1h-1z M97,21h1v1h-1z M98,21h1v1h-1z M100,21h1v1h-1z M103,21h1v1h-1z M104,21h1v1h-1z M4,22h1v1h-1z M5,22h1v1h-1z M6,22h1v1h-1z M7,22h1v1h-1z M9,22h1v1h-1z M10,22h1v1h-1z M11,22h1v1h-1z M12,22h1v1h-1z M15,22h1v1h-1z M16,22h1v1h-1z M17,22h1v1h-1z M19,22h1v1h-1z M20,22h1v1h-1z M23,22h1v1h-1z M24,22h1v1h-1z M25,22h1v1h-1z M26,22h1v1h-1z M27,22h1v1h-1z M30,22h1v1h-1z M31,22h1v1h-1z M34,22h1v1h-1z M38,22h1v1h-1z M39,22h1v1h-1z M42,22h1v1h-1z M43,22h1v1h-1z M44,22h1v1h-1z M46,22h1v1h-1z M48,22h1v1h-1z M50,22h1v1h-1z M54,22h1v1h-1z M56,22h1v1h-1z M58,22h1v1h-1z M59,22h1v1h-1z M60,22h1v1h-1z M62,22h1v1h-1z M63,22h1v1h-1z M64,22h1v1h-1z M66,22h1v1h-1z M68,22h1v1h-1z M70,22h1v1h-1z M74,22h1v1h-1z M76,22h1v1h-1z M78,22h1v1h-1z M79,22h1v1h-1z M80,22h1v1h-1z M82,22h1v1h-1z M84,22h1v1h-1z M86,22h1v1h-1z M87,22h1v1h-1z M90,22h1v1h-1z M92,22h1v1h-1z M93,22h1v1h-1z M94,22h1v1h-1z M98,22h1v1h-1z M100,22h1v1h-1z M101,22h1v1h-1z M104,22h1v1h-1z M106,22h1v1h-1z M108,22h1v1h-1z M5,23h1v1h-1z M6,23h1v1h-1z M7,23h1v1h-1z M8,23h1v1h-1z M12,23h1v1h-1z M13,23h1v1h-1z M14,23h1v1h-1z M20,23h1v1h-1z M23,23h1v1h-1z M25,23h1v1h-1z M26,23h1v1h-1z M27,23h1v1h-1z M28,23h1v1h-1z M31,23h1v1h-1z M35,23h1v1h-1z M37,23h1v1h-1z M39,23h1v1h-1z M40,23h1v1h-1z M43,23h1v1h-1z M47,23h1v1h-1z M49,23h1v1h-1z M50,23h1v1h-1z M55,23h1v1h-1z M57,23h1v1h-1z M58,23h1v1h-1z M59,23h1v1h-1z M61,23h1v1h-1z M62,23h1v1h-1z M63,23h1v1h-1z M64,23h1v1h-1z M66,23h1v1h-1z M67,23h1v1h-1z M69,23h1v1h-1z M73,23h1v1h-1z M79,23h1v1h-1z M81,23h1v1h-1z M83,23h1v1h-1z M85,23h1v1h-1z M87,23h1v1h-1z M88,23h1v1h-1z M89,23h1v1h-1z M90,23h1v1h-1z M91,23h1v1h-1z M93,23h1v1h-1z M95,23h1v1h-1z M100,23h1v1h-1z M101,23h1v1h-1z M103,23h1v1h-1z M104,23h1v1h-1z M106,23h1v1h-1z M107,23h1v1h-1z M108,23h1v1h-1z M5,24h1v1h-1z M7,24h1v1h-1z M8,24h1v1h-1z M10,24h1v1h-1z M12,24h1v1h-1z M15,24h1v1h-1z M16,24h1v1h-1z M19,24h1v1h-1z M20,24h1v1h-1z M21,24h1v1h-1z M25,24h1v1h-1z M31,24h1v1h-1z M33,24h1v1h-1z M34,24h1v1h-1z M37,24h1v1h-1z M39,24h1v1h-1z M40,24h1v1h-1z M43,24h1v1h-1z M44,24h1v1h-1z M46,24h1v1h-1z M48,24h1v1h-1z M49,24h1v1h-1z M50,24h1v1h-1z M51,24h1v1h-1z M52,24h1v1h-1z M54,24h1v1h-1z M56,24h1v1h-1z M58,24h1v1h-1z M60,24h1v1h-1z M63,24h1v1h-1z M64,24h1v1h-1z M65,24h1v1h-1z M73,24h1v1h-1z M75,24h1v1h-1z M77,24h1v1h-1z M80,24h1v1h-1z M81,24h1v1h-1z M82,24h1v1h-1z M84,24h1v1h-1z M85,24h1v1h-1z M87,24h1v1h-1z M89,24h1v1h-1z M91,24h1v1h-1z M92,24h1v1h-1z M93,24h1v1h-1z M95,24h1v1h-1z M96,24h1v1h-1z M97,24h1v1h-1z M98,24h1v1h-1z M99,24h1v1h-1z M100,24h1v1h-1z M101,24h1v1h-1z M102,24h1v1h-1z M103,24h1v1h-1z M105,24h1v1h-1z M108,24h1v1h-1z M4,25h1v1h-1z M5,25h1v1h-1z M8,25h1v1h-1z M9,25h1v1h-1z M11,25h1v1h-1z M12,25h1v1h-1z M15,25h1v1h-1z M18,25h1v1h-1z M19,25h1v1h-1z M20,25h1v1h-1z M21,25h1v1h-1z M24,25h1v1h-1z M25,25h1v1h-1z M27,25h1v1h-1z M28,25h1v1h-1z M30,25h1v1h-1z M31,25h1v1h-1z M32,25h1v1h-1z M33,25h1v1h-1z M35,25h1v1h-1z M36,25h1v1h-1z M39,25h1v1h-1z M40,25h1v1h-1z M41,25h1v1h-1z M42,25h1v1h-1z M43,25h1v1h-1z M44,25h1v1h-1z M50,25h1v1h-1z M51,25h1v1h-1z M52,25h1v1h-1z M57,25h1v1h-1z M58,25h1v1h-1z M61,25h1v1h-1z M65,25h1v1h-1z M67,25h1v1h-1z M68,25h1v1h-1z M69,25h1v1h-1z M70,25h1v1h-1z M71,25h1v1h-1z M73,25h1v1h-1z M76,25h1v1h-1z M77,25h1v1h-1z M78,25h1v1h-1z M82,25h1v1h-1z M84,25h1v1h-1z M86,25h1v1h-1z M87,25h1v1h-1z M88,25h1v1h-1z M93,25h1v1h-1z M94,25h1v1h-1z M95,25h1v1h-1z M96,25h1v1h-1z M97,25h1v1h-1z M100,25h1v1h-1z M103,25h1v1h-1z M104,25h1v1h-1z M105,25h1v1h-1z M106,25h1v1h-1z M107,25h1v1h-1z M108,25h1v1h-1z M4,26h1v1h-1z M5,26h1v1h-1z M8,26h1v1h-1z M9,26h1v1h-1z M10,26h1v1h-1z M13,26h1v1h-1z M16,26h1v1h-1z M19,26h1v1h-1z M22,26h1v1h-1z M23,26h1v1h-1z M27,26h1v1h-1z M29,26h1v1h-1z M32,26h1v1h-1z M33,26h1v1h-1z M34,26h1v1h-1z M35,26h1v1h-1z M36,26h1v1h-1z M39,26h1v1h-1z M41,26h1v1h-1z M43,26h1v1h-1z M44,26h1v1h-1z M45,26h1v1h-1z M46,26h1v1h-1z M48,26h1v1h-1z M51,26h1v1h-1z M52,26h1v1h-1z M55,26h1v1h-1z M56,26h1v1h-1z M57,26h1v1h-1z M58,26h1v1h-1z M59,26h1v1h-1z M60,26h1v1h-1z M63,26h1v1h-1z M65,26h1v1h-1z M69,26h1v1h-1z M70,26h1v1h-1z M71,26h1v1h-1z M75,26h1v1h-1z M76,26h1v1h-1z M77,26h1v1h-1z M80,26h1v1h-1z M81,26h1v1h-1z M82,26h1v1h-1z M83,26h1v1h-1z M84,26h1v1h-1z M85,26h1v1h-1z M87,26h1v1h-1z M89,26h1v1h-1z M92,26h1v1h-1z M93,26h1v1h-1z M94,26h1v1h-1z M95,26h1v1h-1z M96,26h1v1h-1z M105,26h1v1h-1z M107,26h1v1h-1z M7,27h1v1h-1z M8,27h1v1h-1z M12,27h1v1h-1z M17,27h1v1h-1z M18,27h1v1h-1z M19,27h1v1h-1z M20,27h1v1h-1z M22,27h1v1h-1z M23,27h1v1h-1z M25,27h1v1h-1z M27,27h1v1h-1z M28,27h1v1h-1z M29,27h1v1h-1z M31,27h1v1h-1z M33,27h1v1h-1z M38,27h1v1h-1z M39,27h1v1h-1z M40,27h1v1h-1z M41,27h1v1h-1z M42,27h1v1h-1z M43,27h1v1h-1z M45,27h1v1h-1z M46,27h1v1h-1z M47,27h1v1h-1z M49,27h1v1h-1z M51,27h1v1h-1z M53,27h1v1h-1z M54,27h1v1h-1z M55,27h1v1h-1z M59,27h1v1h-1z M61,27h1v1h-1z M64,27h1v1h-1z M66,27h1v1h-1z M67,27h1v1h-1z M69,27h1v1h-1z M70,27h1v1h-1z M71,27h1v1h-1z M73,27h1v1h-1z M75,27h1v1h-1z M76,27h1v1h-1z M79,27h1v1h-1z M82,27h1v1h-1z M83,27h1v1h-1z M85,27h1v1h-1z M86,27h1v1h-1z M87,27h1v1h-1z M88,27h1v1h-1z M90,27h1v1h-1z M91,27h1v1h-1z M101,27h1v1h-1z M106,27h1v1h-1z M107,27h1v1h-1z M108,27h1v1h-1z M5,28h1v1h-1z M8,28h1v1h-1z M9,28h1v1h-1z M10,28h1v1h-1z M11,28h1v1h-1z M12,28h1v1h-1z M13,28h1v1h-1z M15,28h1v1h-1z M17,28h1v1h-1z M18,28h1v1h-1z M21,28h1v1h-1z M22,28h1v1h-1z M23,28h1v1h-1z M24,28h1v1h-1z M26,28h1v1h-1z M28,28h1v1h-1z M29,28h1v1h-1z M30,28h1v1h-1z M31,28h1v1h-1z M32,28h1v1h-1z M34,28h1v1h-1z M35,28h1v1h-1z M36,28h1v1h-1z M37,28h1v1h-1z M40,28h1v1h-1z M41,28h1v1h-1z M42,28h1v1h-1z M43,28h1v1h-1z M45,28h1v1h-1z M46,28h1v1h-1z M47,28h1v1h-1z M48,28h1v1h-1z M50,28h1v1h-1z M52,28h1v1h-1z M53,28h1v1h-1z M54,28h1v1h-1z M55,28h1v1h-1z M56,28h1v1h-1z M58,28h1v1h-1z M59,28h1v1h-1z M60,28h1v1h-1z M61,28h1v1h-1z M62,28h1v1h-1z M64,28h1v1h-1z M65,28h1v1h-1z M66,28h1v1h-1z M68,28h1v1h-1z M70,28h1v1h-1z M72,28h1v1h-1z M73,28h1v1h-1z M75,28h1v1h-1z M76,28h1v1h-1z M77,28h1v1h-1z M78,28h1v1h-1z M79,28h1v1h-1z M80,28h1v1h-1z M81,28h1v1h-1z M82,28h1v1h-1z M84,28h1v1h-1z M86,28h1v1h-1z M87,28h1v1h-1z M88,28h1v1h-1z M89,28h1v1h-1z M92,28h1v1h-1z M94,28h1v1h-1z M97,28h1v1h-1z M100,28h1v1h-1z M101,28h1v1h-1z M102,28h1v1h-1z M103,28h1v1h-1z M104,28h1v1h-1z M5,29h1v1h-1z M7,29h1v1h-1z M8,29h1v1h-1z M12,29h1v1h-1z M13,29h1v1h-1z M20,29h1v1h-1z M23,29h1v1h-1z M27,29h1v1h-1z M28,29h1v1h-1z M32,29h1v1h-1z M36,29h1v1h-1z M38,29h1v1h-1z M39,29h1v1h-1z M44,29h1v1h-1z M45,29h1v1h-1z M47,29h1v1h-1z M48,29h1v1h-1z M49,29h1v1h-1z M50,29h1v1h-1z M51,29h1v1h-1z M52,29h1v1h-1z M56,29h1v1h-1z M57,29h1v1h-1z M58,29h1v1h-1z M61,29h1v1h-1z M62,29h1v1h-1z M64,29h1v1h-1z M66,29h1v1h-1z M67,29h1v1h-1z M69,29h1v1h-1z M70,29h1v1h-1z M72,29h1v1h-1z M73,29h1v1h-1z M74,29h1v1h-1z M76,29h1v1h-1z M80,29h1v1h-1z M84,29h1v1h-1z M88,29h1v1h-1z M91,29h1v1h-1z M96,29h1v1h-1z M98,29h1v1h-1z M100,29h1v1h-1z M104,29h1v1h-1z M105,29h1v1h-1z M108,29h1v1h-1z M4,30h1v1h-1z M6,30h1v1h-1z M8,30h1v1h-1z M10,30h1v1h-1z M12,30h1v1h-1z M13,30h1v1h-1z M16,30h1v1h-1z M18,30h1v1h-1z M19,30h1v1h-1z M20,30h1v1h-1z M21,30h1v1h-1z M24,30h1v1h-1z M25,30h1v1h-1z M27,30h1v1h-1z M28,30h1v1h-1z M30,30h1v1h-1z M32,30h1v1h-1z M33,30h1v1h-1z M34,30h1v1h-1z M39,30h1v1h-1z M41,30h1v1h-1z M44,30h1v1h-1z M45,30h1v1h-1z M46,30h1v1h-1z M52,30h1v1h-1z M54,30h1v1h-1z M56,30h1v1h-1z M58,30h1v1h-1z M60,30h1v1h-1z M63,30h1v1h-1z M65,30h1v1h-1z M68,30h1v1h-1z M69,30h1v1h-1z M70,30h1v1h-1z M72,30h1v1h-1z M73,30h1v1h-1z M75,30h1v1h-1z M76,30h1v1h-1z M78,30h1v1h-1z M80,30h1v1h-1z M81,30h1v1h-1z M82,30h1v1h-1z M83,30h1v1h-1z M84,30h1v1h-1z M88,30h1v1h-1z M92,30h1v1h-1z M93,30h1v1h-1z M94,30h1v1h-1z M96,30h1v1h-1z M97,30h1v1h-1z M99,30h1v1h-1z M100,30h1v1h-1z M102,30h1v1h-1z M104,30h1v1h-1z M105,30h1v1h-1z M107,30h1v1h-1z M5,31h1v1h-1z M8,31h1v1h-1z M12,31h1v1h-1z M13,31h1v1h-1z M17,31h1v1h-1z M20,31h1v1h-1z M21,31h1v1h-1z M23,31h1v1h-1z M24,31h1v1h-1z M25,31h1v1h-1z M28,31h1v1h-1z M32,31h1v1h-1z M33,31h1v1h-1z M35,31h1v1h-1z M36,31h1v1h-1z M40,31h1v1h-1z M41,31h1v1h-1z M43,31h1v1h-1z M44,31h1v1h-1z M46,31h1v1h-1z M47,31h1v1h-1z M48,31h1v1h-1z M52,31h1v1h-1z M56,31h1v1h-1z M57,31h1v1h-1z M59,31h1v1h-1z M60,31h1v1h-1z M61,31h1v1h-1z M62,31h1v1h-1z M64,31h1v1h-1z M65,31h1v1h-1z M67,31h1v1h-1z M68,31h1v1h-1z M69,31h1v1h-1z M71,31h1v1h-1z M72,31h1v1h-1z M73,31h1v1h-1z M76,31h1v1h-1z M80,31h1v1h-1z M83,31h1v1h-1z M84,31h1v1h-1z M85,31h1v1h-1z M86,31h1v1h-1z M87,31h1v1h-1z M88,31h1v1h-1z M91,31h1v1h-1z M92,31h1v1h-1z M94,31h1v1h-1z M95,31h1v1h-1z M96,31h1v1h-1z M100,31h1v1h-1z M104,31h1v1h-1z M105,31h1v1h-1z M106,31h1v1h-1z M4,32h1v1h-1z M5,32h1v1h-1z M7,32h1v1h-1z M8,32h1v1h-1z M9,32h1v1h-1z M10,32h1v1h-1z M11,32h1v1h-1z M12,32h1v1h-1z M13,32h1v1h-1z M14,32h1v1h-1z M17,32h1v1h-1z M18,32h1v1h-1z M19,32h1v1h-1z M20,32h1v1h-1z M21,32h1v1h-1z M23,32h1v1h-1z M26,32h1v1h-1z M27,32h1v1h-1z M28,32h1v1h-1z M29,32h1v1h-1z M30,32h1v1h-1z M31,32h1v1h-1z M32,32h1v1h-1z M33,32h1v1h-1z M39,32h1v1h-1z M42,32h1v1h-1z M44,32h1v1h-1z M47,32h1v1h-1z M49,32h1v1h-1z M51,32h1v1h-1z M52,32h1v1h-1z M53,32h1v1h-1z M54,32h1v1h-1z M55,32h1v1h-1z M56,32h1v1h-1z M59,32h1v1h-1z M61,32h1v1h-1z M62,32h1v1h-1z M64,32h1v1h-1z M65,32h1v1h-1z M67,32h1v1h-1z M68,32h1v1h-1z M69,32h1v1h-1z M70,32h1v1h-1z M76,32h1v1h-1z M77,32h1v1h-1z M78,32h1v1h-1z M79,32h1v1h-1z M80,32h1v1h-1z M81,32h1v1h-1z M83,32h1v1h-1z M85,32h1v1h-1z M86,32h1v1h-1z M90,32h1v1h-1z M91,32h1v1h-1z M93,32h1v1h-1z M94,32h1v1h-1z M96,32h1v1h-1z M97,32h1v1h-1z M100,32h1v1h-1z M101,32h1v1h-1z M102,32h1v1h-1z M103,32h1v1h-1z M104,32h1v1h-1z M106,32h1v1h-1z M107,32h1v1h-1z M5,33h1v1h-1z M7,33h1v1h-1z M13,33h1v1h-1z M15,33h1v1h-1z M17,33h1v1h-1z M21,33h1v1h-1z M24,33h1v1h-1z M26,33h1v1h-1z M27,33h1v1h-1z M28,33h1v1h-1z M30,33h1v1h-1z M31,33h1v1h-1z M32,33h1v1h-1z M35,33h1v1h-1z M38,33h1v1h-1z M39,33h1v1h-1z M40,33h1v1h-1z M41,33h1v1h-1z M43,33h1v1h-1z M46,33h1v1h-1z M47,33h1v1h-1z M49,33h1v1h-1z M52,33h1v1h-1z M53,33h1v1h-1z M57,33h1v1h-1z M60,33h1v1h-1z M61,33h1v1h-1z M62,33h1v1h-1z M64,33h1v1h-1z M66,33h1v1h-1z M67,33h1v1h-1z M69,33h1v1h-1z M72,33h1v1h-1z M73,33h1v1h-1z M74,33h1v1h-1z M75,33h1v1h-1z M76,33h1v1h-1z M77,33h1v1h-1z M82,33h1v1h-1z M84,33h1v1h-1z M87,33h1v1h-1z M92,33h1v1h-1z M94,33h1v1h-1z M95,33h1v1h-1z M97,33h1v1h-1z M100,33h1v1h-1z M101,33h1v1h-1z M102,33h1v1h-1z M104,33h1v1h-1z M106,33h1v1h-1z M108,33h1v1h-1z M4,34h1v1h-1z M6,34h1v1h-1z M7,34h1v1h-1z M8,34h1v1h-1z M9,34h1v1h-1z M10,34h1v1h-1z M13,34h1v1h-1z M14,34h1v1h-1z M17,34h1v1h-1z M19,34h1v1h-1z M23,34h1v1h-1z M24,34h1v1h-1z M29,34h1v1h-1z M30,34h1v1h-1z M32,34h1v1h-1z M33,34h1v1h-1z M34,34h1v1h-1z M35,34h1v1h-1z M36,34h1v1h-1z M38,34h1v1h-1z M39,34h1v1h-1z M42,34h1v1h-1z M45,34h1v1h-1z M46,34h1v1h-1z M50,34h1v1h-1z M55,34h1v1h-1z M57,34h1v1h-1z M58,34h1v1h-1z M59,34h1v1h-1z M62,34h1v1h-1z M66,34h1v1h-1z M70,34h1v1h-1z M74,34h1v1h-1z M79,34h1v1h-1z M80,34h1v1h-1z M82,34h1v1h-1z M84,34h1v1h-1z M86,34h1v1h-1z M87,34h1v1h-1z M88,34h1v1h-1z M90,34h1v1h-1z M94,34h1v1h-1z M98,34h1v1h-1z M102,34h1v1h-1z M105,34h1v1h-1z M108,34h1v1h-1z M4,35h1v1h-1z M5,35h1v1h-1z M6,35h1v1h-1z M8,35h1v1h-1z M9,35h1v1h-1z M11,35h1v1h-1z M12,35h1v1h-1z M14,35h1v1h-1z M16,35h1v1h-1z M17,35h1v1h-1z M20,35h1v1h-1z M23,35h1v1h-1z M29,35h1v1h-1z M32,35h1v1h-1z M33,35h1v1h-1z M35,35h1v1h-1z M38,35h1v1h-1z M39,35h1v1h-1z M40,35h1v1h-1z M42,35h1v1h-1z M45,35h1v1h-1z M47,35h1v1h-1z M49,35h1v1h-1z M57,35h1v1h-1z M59,35h1v1h-1z M64,35h1v1h-1z M73,35h1v1h-1z M77,35h1v1h-1z M80,35h1v1h-1z M82,35h1v1h-1z M83,35h1v1h-1z M85,35h1v1h-1z M86,35h1v1h-1z M87,35h1v1h-1z M88,35h1v1h-1z M89,35h1v1h-1z M93,35h1v1h-1z M94,35h1v1h-1z M95,35h1v1h-1z M98,35h1v1h-1z M102,35h1v1h-1z M103,35h1v1h-1z M105,35h1v1h-1z M106,35h1v1h-1z M108,35h1v1h-1z M10,36h1v1h-1z M11,36h1v1h-1z M12,36h1v1h-1z M13,36h1v1h-1z M15,36h1v1h-1z M17,36h1v1h-1z M19,36h1v1h-1z M21,36h1v1h-1z M22,36h1v1h-1z M24,36h1v1h-1z M33,36h1v1h-1z M34,36h1v1h-1z M35,36h1v1h-1z M41,36h1v1h-1z M46,36h1v1h-1z M48,36h1v1h-1z M50,36h1v1h-1z M53,36h1v1h-1z M54,36h1v1h-1z M59,36h1v1h-1z M60,36h1v1h-1z M61,36h1v1h-1z M62,36h1v1h-1z M63,36h1v1h-1z M64,36h1v1h-1z M66,36h1v1h-1z M67,36h1v1h-1z M68,36h1v1h-1z M69,36h1v1h-1z M70,36h1v1h-1z M71,36h1v1h-1z M73,36h1v1h-1z M77,36h1v1h-1z M79,36h1v1h-1z M81,36h1v1h-1z M85,36h1v1h-1z M87,36h1v1h-1z M88,36h1v1h-1z M89,36h1v1h-1z M91,36h1v1h-1z M93,36h1v1h-1z M94,36h1v1h-1z M95,36h1v1h-1z M97,36h1v1h-1z M98,36h1v1h-1z M99,36h1v1h-1z M100,36h1v1h-1z M101,36h1v1h-1z M103,36h1v1h-1z M105,36h1v1h-1z M108,36h1v1h-1z M4,37h1v1h-1z M5,37h1v1h-1z M6,37h1v1h-1z M7,37h1v1h-1z M12,37h1v1h-1z M14,37h1v1h-1z M16,37h1v1h-1z M17,37h1v1h-1z M18,37h1v1h-1z M20,37h1v1h-1z M23,37h1v1h-1z M24,37h1v1h-1z M27,37h1v1h-1z M28,37h1v1h-1z M29,37h1v1h-1z M30,37h1v1h-1z M31,37h1v1h-1z M32,37h1v1h-1z M33,37h1v1h-1z M38,37h1v1h-1z M40,37h1v1h-1z M42,37h1v1h-1z M45,37h1v1h-1z M47,37h1v1h-1z M48,37h1v1h-1z M50,37h1v1h-1z M52,37h1v1h-1z M54,37h1v1h-1z M56,37h1v1h-1z M58,37h1v1h-1z M60,37h1v1h-1z M65,37h1v1h-1z M68,37h1v1h-1z M69,37h1v1h-1z M70,37h1v1h-1z M71,37h1v1h-1z M72,37h1v1h-1z M79,37h1v1h-1z M81,37h1v1h-1z M87,37h1v1h-1z M90,37h1v1h-1z M91,37h1v1h-1z M92,37h1v1h-1z M97,37h1v1h-1z M98,37h1v1h-1z M102,37h1v1h-1z M103,37h1v1h-1z M104,37h1v1h-1z M108,37h1v1h-1z M10,38h1v1h-1z M13,38h1v1h-1z M21,38h1v1h-1z M22,38h1v1h-1z M25,38h1v1h-1z M27,38h1v1h-1z M31,38h1v1h-1z M34,38h1v1h-1z M39,38h1v1h-1z M41,38h1v1h-1z M43,38h1v1h-1z M45,38h1v1h-1z M46,38h1v1h-1z M47,38h1v1h-1z M48,38h1v1h-1z M49,38h1v1h-1z M52,38h1v1h-1z M54,38h1v1h-1z M55,38h1v1h-1z M56,38h1v1h-1z M57,38h1v1h-1z M58,38h1v1h-1z M60,38h1v1h-1z M63,38h1v1h-1z M64,38h1v1h-1z M65,38h1v1h-1z M68,38h1v1h-1z M69,38h1v1h-1z M70,38h1v1h-1z M77,38h1v1h-1z M80,38h1v1h-1z M81,38h1v1h-1z M82,38h1v1h-1z M88,38h1v1h-1z M92,38h1v1h-1z M93,38h1v1h-1z M94,38h1v1h-1z M95,38h1v1h-1z M97,38h1v1h-1z M99,38h1v1h-1z M100,38h1v1h-1z M101,38h1v1h-1z M103,38h1v1h-1z M104,38h1v1h-1z M106,38h1v1h-1z M107,38h1v1h-1z M8,39h1v1h-1z M9,39h1v1h-1z M11,39h1v1h-1z M14,39h1v1h-1z M15,39h1v1h-1z M16,39h1v1h-1z M17,39h1v1h-1z M18,39h1v1h-1z M19,39h1v1h-1z M24,39h1v1h-1z M27,39h1v1h-1z M29,39h1v1h-1z M32,39h1v1h-1z M33,39h1v1h-1z M35,39h1v1h-1z M38,39h1v1h-1z M40,39h1v1h-1z M43,39h1v1h-1z M49,39h1v1h-1z M50,39h1v1h-1z M58,39h1v1h-1z M59,39h1v1h-1z M61,39h1v1h-1z M62,39h1v1h-1z M63,39h1v1h-1z M64,39h1v1h-1z M69,39h1v1h-1z M71,39h1v1h-1z M73,39h1v1h-1z M74,39h1v1h-1z M75,39h1v1h-1z M76,39h1v1h-1z M77,39h1v1h-1z M79,39h1v1h-1z M83,39h1v1h-1z M85,39h1v1h-1z M86,39h1v1h-1z M87,39h1v1h-1z M88,39h1v1h-1z M90,39h1v1h-1z M95,39h1v1h-1z M97,39h1v1h-1z M98,39h1v1h-1z M101,39h1v1h-1z M102,39h1v1h-1z M103,39h1v1h-1z M105,39h1v1h-1z M106,39h1v1h-1z M108,39h1v1h-1z M6,40h1v1h-1z M7,40h1v1h-1z M8,40h1v1h-1z M9,40h1v1h-1z M10,40h1v1h-1z M11,40h1v1h-1z M14,40h1v1h-1z M18,40h1v1h-1z M20,40h1v1h-1z M25,40h1v1h-1z M26,40h1v1h-1z M27,40h1v1h-1z M28,40h1v1h-1z M29,40h1v1h-1z M32,40h1v1h-1z M34,40h1v1h-1z M37,40h1v1h-1z M38,40h1v1h-1z M39,40h1v1h-1z M42,40h1v1h-1z M44,40h1v1h-1z M45,40h1v1h-1z M46,40h1v1h-1z M50,40h1v1h-1z M51,40h1v1h-1z M56,40h1v1h-1z M57,40h1v1h-1z M58,40h1v1h-1z M59,40h1v1h-1z M61,40h1v1h-1z M62,40h1v1h-1z M64,40h1v1h-1z M66,40h1v1h-1z M70,40h1v1h-1z M73,40h1v1h-1z M75,40h1v1h-1z M76,40h1v1h-1z M77,40h1v1h-1z M80,40h1v1h-1z M81,40h1v1h-1z M82,40h1v1h-1z M85,40h1v1h-1z M86,40h1v1h-1z M88,40h1v1h-1z M90,40h1v1h-1z M93,40h1v1h-1z M95,40h1v1h-1z M97,40h1v1h-1z M98,40h1v1h-1z M100,40h1v1h-1z M102,40h1v1h-1z M103,40h1v1h-1z M105,40h1v1h-1z M106,40h1v1h-1z M107,40h1v1h-1z M108,40h1v1h-1z M4,41h1v1h-1z M6,41h1v1h-1z M7,41h1v1h-1z M8,41h1v1h-1z M11,41h1v1h-1z M12,41h1v1h-1z M13,41h1v1h-1z M15,41h1v1h-1z M17,41h1v1h-1z M18,41h1v1h-1z M21,41h1v1h-1z M23,41h1v1h-1z M24,41h1v1h-1z M28,41h1v1h-1z M29,41h1v1h-1z M33,41h1v1h-1z M34,41h1v1h-1z M35,41h1v1h-1z M40,41h1v1h-1z M42,41h1v1h-1z M44,41h1v1h-1z M47,41h1v1h-1z M50,41h1v1h-1z M51,41h1v1h-1z M52,41h1v1h-1z M53,41h1v1h-1z M58,41h1v1h-1z M59,41h1v1h-1z M60,41h1v1h-1z M62,41h1v1h-1z M64,41h1v1h-1z M65,41h1v1h-1z M66,41h1v1h-1z M70,41h1v1h-1z M71,41h1v1h-1z M73,41h1v1h-1z M74,41h1v1h-1z M75,41h1v1h-1z M76,41h1v1h-1z M77,41h1v1h-1z M80,41h1v1h-1z M83,41h1v1h-1z M84,41h1v1h-1z M85,41h1v1h-1z M86,41h1v1h-1z M87,41h1v1h-1z M88,41h1v1h-1z M94,41h1v1h-1z M95,41h1v1h-1z M97,41h1v1h-1z M102,41h1v1h-1z M103,41h1v1h-1z M105,41h1v1h-1z M106,41h1v1h-1z M107,41h1v1h-1z M108,41h1v1h-1z M4,42h1v1h-1z M5,42h1v1h-1z M8,42h1v1h-1z M10,42h1v1h-1z M11,42h1v1h-1z M13,42h1v1h-1z M17,42h1v1h-1z M19,42h1v1h-1z M20,42h1v1h-1z M25,42h1v1h-1z M26,42h1v1h-1z M28,42h1v1h-1z M33,42h1v1h-1z M34,42h1v1h-1z M41,42h1v1h-1z M44,42h1v1h-1z M46,42h1v1h-1z M47,42h1v1h-1z M48,42h1v1h-1z M52,42h1v1h-1z M54,42h1v1h-1z M58,42h1v1h-1z M60,42h1v1h-1z M64,42h1v1h-1z M65,42h1v1h-1z M68,42h1v1h-1z M69,42h1v1h-1z M70,42h1v1h-1z M71,42h1v1h-1z M72,42h1v1h-1z M76,42h1v1h-1z M79,42h1v1h-1z M81,42h1v1h-1z M82,42h1v1h-1z M83,42h1v1h-1z M87,42h1v1h-1z M91,42h1v1h-1z M92,42h1v1h-1z M93,42h1v1h-1z M94,42h1v1h-1z M99,42h1v1h-1z M103,42h1v1h-1z M104,42h1v1h-1z M106,42h1v1h-1z M107,42h1v1h-1z M5,43h1v1h-1z M6,43h1v1h-1z M11,43h1v1h-1z M15,43h1v1h-1z M16,43h1v1h-1z M18,43h1v1h-1z M19,43h1v1h-1z M20,43h1v1h-1z M21,43h1v1h-1z M22,43h1v1h-1z M25,43h1v1h-1z M27,43h1v1h-1z M29,43h1v1h-1z M30,43h1v1h-1z M31,43h1v1h-1z M34,43h1v1h-1z M35,43h1v1h-1z M36,43h1v1h-1z M37,43h1v1h-1z M38,43h1v1h-1z M40,43h1v1h-1z M43,43h1v1h-1z M44,43h1v1h-1z M45,43h1v1h-1z M48,43h1v1h-1z M49,43h1v1h-1z M51,43h1v1h-1z M53,43h1v1h-1z M54,43h1v1h-1z M56,43h1v1h-1z M57,43h1v1h-1z M59,43h1v1h-1z M60,43h1v1h-1z M62,43h1v1h-1z M63,43h1v1h-1z M64,43h1v1h-1z M66,43h1v1h-1z M68,43h1v1h-1z M69,43h1v1h-1z M72,43h1v1h-1z M75,43h1v1h-1z M77,43h1v1h-1z M78,43h1v1h-1z M80,43h1v1h-1z M81,43h1v1h-1z M83,43h1v1h-1z M84,43h1v1h-1z M86,43h1v1h-1z M87,43h1v1h-1z M88,43h1v1h-1z M89,43h1v1h-1z M91,43h1v1h-1z M92,43h1v1h-1z M95,43h1v1h-1z M96,43h1v1h-1z M98,43h1v1h-1z M101,43h1v1h-1z M102,43h1v1h-1z M103,43h1v1h-1z M104,43h1v1h-1z M106,43h1v1h-1z M5,44h1v1h-1z M6,44h1v1h-1z M8,44h1v1h-1z M9,44h1v1h-1z M10,44h1v1h-1z M11,44h1v1h-1z M15,44h1v1h-1z M17,44h1v1h-1z M18,44h1v1h-1z M20,44h1v1h-1z M21,44h1v1h-1z M23,44h1v1h-1z M26,44h1v1h-1z M27,44h1v1h-1z M28,44h1v1h-1z M30,44h1v1h-1z M31,44h1v1h-1z M34,44h1v1h-1z M35,44h1v1h-1z M36,44h1v1h-1z M37,44h1v1h-1z M38,44h1v1h-1z M39,44h1v1h-1z M41,44h1v1h-1z M42,44h1v1h-1z M46,44h1v1h-1z M47,44h1v1h-1z M48,44h1v1h-1z M49,44h1v1h-1z M54,44h1v1h-1z M57,44h1v1h-1z M58,44h1v1h-1z M62,44h1v1h-1z M63,44h1v1h-1z M64,44h1v1h-1z M65,44h1v1h-1z M67,44h1v1h-1z M68,44h1v1h-1z M70,44h1v1h-1z M72,44h1v1h-1z M77,44h1v1h-1z M83,44h1v1h-1z M84,44h1v1h-1z M86,44h1v1h-1z M87,44h1v1h-1z M90,44h1v1h-1z M91,44h1v1h-1z M92,44h1v1h-1z M94,44h1v1h-1z M95,44h1v1h-1z M96,44h1v1h-1z M97,44h1v1h-1z M99,44h1v1h-1z M101,44h1v1h-1z M103,44h1v1h-1z M104,44h1v1h-1z M105,44h1v1h-1z M4,45h1v1h-1z M5,45h1v1h-1z M7,45h1v1h-1z M9,45h1v1h-1z M11,45h1v1h-1z M13,45h1v1h-1z M14,45h1v1h-1z M15,45h1v1h-1z M16,45h1v1h-1z M17,45h1v1h-1z M18,45h1v1h-1z M21,45h1v1h-1z M23,45h1v1h-1z M24,45h1v1h-1z M25,45h1v1h-1z M26,45h1v1h-1z M27,45h1v1h-1z M28,45h1v1h-1z M29,45h1v1h-1z M37,45h1v1h-1z M39,45h1v1h-1z M40,45h1v1h-1z M42,45h1v1h-1z M44,45h1v1h-1z M45,45h1v1h-1z M46,45h1v1h-1z M48,45h1v1h-1z M49,45h1v1h-1z M50,45h1v1h-1z M51,45h1v1h-1z M54,45h1v1h-1z M56,45h1v1h-1z M59,45h1v1h-1z M64,45h1v1h-1z M65,45h1v1h-1z M66,45h1v1h-1z M68,45h1v1h-1z M70,45h1v1h-1z M71,45h1v1h-1z M73,45h1v1h-1z M76,45h1v1h-1z M78,45h1v1h-1z M79,45h1v1h-1z M81,45h1v1h-1z M82,45h1v1h-1z M83,45h1v1h-1z M84,45h1v1h-1z M86,45h1v1h-1z M91,45h1v1h-1z M92,45h1v1h-1z M93,45h1v1h-1z M95,45h1v1h-1z M96,45h1v1h-1z M97,45h1v1h-1z M98,45h1v1h-1z M100,45h1v1h-1z M103,45h1v1h-1z M105,45h1v1h-1z M106,45h1v1h-1z M107,45h1v1h-1z M108,45h1v1h-1z M7,46h1v1h-1z M10,46h1v1h-1z M11,46h1v1h-1z M12,46h1v1h-1z M13,46h1v1h-1z M17,46h1v1h-1z M18,46h1v1h-1z M19,46h1v1h-1z M20,46h1v1h-1z M22,46h1v1h-1z M24,46h1v1h-1z M25,46h1v1h-1z M27,46h1v1h-1z M30,46h1v1h-1z M31,46h1v1h-1z M34,46h1v1h-1z M35,46h1v1h-1z M36,46h1v1h-1z M38,46h1v1h-1z M42,46h1v1h-1z M46,46h1v1h-1z M49,46h1v1h-1z M50,46h1v1h-1z M52,46h1v1h-1z M53,46h1v1h-1z M56,46h1v1h-1z M58,46h1v1h-1z M62,46h1v1h-1z M66,46h1v1h-1z M67,46h1v1h-1z M69,46h1v1h-1z M70,46h1v1h-1z M71,46h1v1h-1z M72,46h1v1h-1z M74,46h1v1h-1z M77,46h1v1h-1z M78,46h1v1h-1z M82,46h1v1h-1z M83,46h1v1h-1z M84,46h1v1h-1z M86,46h1v1h-1z M88,46h1v1h-1z M90,46h1v1h-1z M91,46h1v1h-1z M92,46h1v1h-1z M94,46h1v1h-1z M95,46h1v1h-1z M96,46h1v1h-1z M98,46h1v1h-1z M102,46h1v1h-1z M104,46h1v1h-1z M106,46h1v1h-1z M107,46h1v1h-1z M108,46h1v1h-1z M5,47h1v1h-1z M11,47h1v1h-1z M15,47h1v1h-1z M16,47h1v1h-1z M18,47h1v1h-1z M21,47h1v1h-1z M26,47h1v1h-1z M27,47h1v1h-1z M29,47h1v1h-1z M33,47h1v1h-1z M35,47h1v1h-1z M38,47h1v1h-1z M40,47h1v1h-1z M42,47h1v1h-1z M45,47h1v1h-1z M46,47h1v1h-1z M49,47h1v1h-1z M50,47h1v1h-1z M51,47h1v1h-1z M53,47h1v1h-1z M55,47h1v1h-1z M56,47h1v1h-1z M57,47h1v1h-1z M58,47h1v1h-1z M59,47h1v1h-1z M61,47h1v1h-1z M63,47h1v1h-1z M64,47h1v1h-1z M67,47h1v1h-1z M69,47h1v1h-1z M71,47h1v1h-1z M74,47h1v1h-1z M77,47h1v1h-1z M79,47h1v1h-1z M80,47h1v1h-1z M81,47h1v1h-1z M82,47h1v1h-1z M83,47h1v1h-1z M86,47h1v1h-1z M87,47h1v1h-1z M88,47h1v1h-1z M89,47h1v1h-1z M91,47h1v1h-1z M93,47h1v1h-1z M95,47h1v1h-1z M97,47h1v1h-1z M101,47h1v1h-1z M103,47h1v1h-1z M105,47h1v1h-1z M106,47h1v1h-1z M108,47h1v1h-1z M4,48h1v1h-1z M5,48h1v1h-1z M10,48h1v1h-1z M11,48h1v1h-1z M12,48h1v1h-1z M14,48h1v1h-1z M17,48h1v1h-1z M18,48h1v1h-1z M21,48h1v1h-1z M24,48h1v1h-1z M25,48h1v1h-1z M30,48h1v1h-1z M35,48h1v1h-1z M36,48h1v1h-1z M37,48h1v1h-1z M38,48h1v1h-1z M39,48h1v1h-1z M42,48h1v1h-1z M45,48h1v1h-1z M48,48h1v1h-1z M49,48h1v1h-1z M50,48h1v1h-1z M52,48h1v1h-1z M55,48h1v1h-1z M59,48h1v1h-1z M60,48h1v1h-1z M61,48h1v1h-1z M62,48h1v1h-1z M65,48h1v1h-1z M69,48h1v1h-1z M70,48h1v1h-1z M71,48h1v1h-1z M72,48h1v1h-1z M73,48h1v1h-1z M76,48h1v1h-1z M77,48h1v1h-1z M78,48h1v1h-1z M79,48h1v1h-1z M82,48h1v1h-1z M83,48h1v1h-1z M84,48h1v1h-1z M87,48h1v1h-1z M89,48h1v1h-1z M93,48h1v1h-1z M94,48h1v1h-1z M95,48h1v1h-1z M96,48h1v1h-1z M97,48h1v1h-1z M100,48h1v1h-1z M101,48h1v1h-1z M106,48h1v1h-1z M4,49h1v1h-1z M5,49h1v1h-1z M9,49h1v1h-1z M11,49h1v1h-1z M15,49h1v1h-1z M18,49h1v1h-1z M20,49h1v1h-1z M21,49h1v1h-1z M22,49h1v1h-1z M25,49h1v1h-1z M26,49h1v1h-1z M31,49h1v1h-1z M33,49h1v1h-1z M35,49h1v1h-1z M38,49h1v1h-1z M39,49h1v1h-1z M40,49h1v1h-1z M41,49h1v1h-1z M42,49h1v1h-1z M43,49h1v1h-1z M44,49h1v1h-1z M48,49h1v1h-1z M50,49h1v1h-1z M51,49h1v1h-1z M54,49h1v1h-1z M55,49h1v1h-1z M57,49h1v1h-1z M59,49h1v1h-1z M60,49h1v1h-1z M61,49h1v1h-1z M62,49h1v1h-1z M64,49h1v1h-1z M67,49h1v1h-1z M68,49h1v1h-1z M69,49h1v1h-1z M70,49h1v1h-1z M72,49h1v1h-1z M74,49h1v1h-1z M75,49h1v1h-1z M76,49h1v1h-1z M77,49h1v1h-1z M78,49h1v1h-1z M79,49h1v1h-1z M81,49h1v1h-1z M82,49h1v1h-1z M84,49h1v1h-1z M86,49h1v1h-1z M87,49h1v1h-1z M92,49h1v1h-1z M95,49h1v1h-1z M100,49h1v1h-1z M101,49h1v1h-1z M102,49h1v1h-1z M104,49h1v1h-1z M105,49h1v1h-1z M106,49h1v1h-1z M4,50h1v1h-1z M6,50h1v1h-1z M7,50h1v1h-1z M8,50h1v1h-1z M10,50h1v1h-1z M11,50h1v1h-1z M16,50h1v1h-1z M17,50h1v1h-1z M18,50h1v1h-1z M19,50h1v1h-1z M20,50h1v1h-1z M21,50h1v1h-1z M23,50h1v1h-1z M24,50h1v1h-1z M26,50h1v1h-1z M28,50h1v1h-1z M29,50h1v1h-1z M30,50h1v1h-1z M31,50h1v1h-1z M33,50h1v1h-1z M34,50h1v1h-1z M35,50h1v1h-1z M39,50h1v1h-1z M41,50h1v1h-1z M43,50h1v1h-1z M45,50h1v1h-1z M46,50h1v1h-1z M48,50h1v1h-1z M51,50h1v1h-1z M52,50h1v1h-1z M54,50h1v1h-1z M57,50h1v1h-1z M58,50h1v1h-1z M60,50h1v1h-1z M61,50h1v1h-1z M63,50h1v1h-1z M68,50h1v1h-1z M69,50h1v1h-1z M70,50h1v1h-1z M72,50h1v1h-1z M78,50h1v1h-1z M81,50h1v1h-1z M82,50h1v1h-1z M84,50h1v1h-1z M93,50h1v1h-1z M94,50h1v1h-1z M95,50h1v1h-1z M96,50h1v1h-1z M97,50h1v1h-1z M101,50h1v1h-1z M103,50h1v1h-1z M105,50h1v1h-1z M107,50h1v1h-1z M5,51h1v1h-1z M7,51h1v1h-1z M11,51h1v1h-1z M12,51h1v1h-1z M13,51h1v1h-1z M17,51h1v1h-1z M18,51h1v1h-1z M20,51h1v1h-1z M21,51h1v1h-1z M22,51h1v1h-1z M25,51h1v1h-1z M27,51h1v1h-1z M29,51h1v1h-1z M31,51h1v1h-1z M34,51h1v1h-1z M35,51h1v1h-1z M40,51h1v1h-1z M41,51h1v1h-1z M43,51h1v1h-1z M45,51h1v1h-1z M46,51h1v1h-1z M47,51h1v1h-1z M53,51h1v1h-1z M55,51h1v1h-1z M59,51h1v1h-1z M61,51h1v1h-1z M62,51h1v1h-1z M63,51h1v1h-1z M64,51h1v1h-1z M65,51h1v1h-1z M66,51h1v1h-1z M67,51h1v1h-1z M69,51h1v1h-1z M73,51h1v1h-1z M77,51h1v1h-1z M79,51h1v1h-1z M83,51h1v1h-1z M85,51h1v1h-1z M86,51h1v1h-1z M87,51h1v1h-1z M88,51h1v1h-1z M90,51h1v1h-1z M91,51h1v1h-1z M93,51h1v1h-1z M94,51h1v1h-1z M95,51h1v1h-1z M97,51h1v1h-1z M98,51h1v1h-1z M100,51h1v1h-1z M101,51h1v1h-1z M102,51h1v1h-1z M103,51h1v1h-1z M105,51h1v1h-1z M106,51h1v1h-1z M107,51h1v1h-1z M108,51h1v1h-1z M6,52h1v1h-1z M8,52h1v1h-1z M9,52h1v1h-1z M10,52h1v1h-1z M11,52h1v1h-1z M12,52h1v1h-1z M13,52h1v1h-1z M16,52h1v1h-1z M20,52h1v1h-1z M21,52h1v1h-1z M22,52h1v1h-1z M23,52h1v1h-1z M24,52h1v1h-1z M26,52h1v1h-1z M27,52h1v1h-1z M28,52h1v1h-1z M29,52h1v1h-1z M30,52h1v1h-1z M31,52h1v1h-1z M32,52h1v1h-1z M33,52h1v1h-1z M34,52h1v1h-1z M35,52h1v1h-1z M36,52h1v1h-1z M37,52h1v1h-1z M38,52h1v1h-1z M42,52h1v1h-1z M44,52h1v1h-1z M47,52h1v1h-1z M48,52h1v1h-1z M49,52h1v1h-1z M50,52h1v1h-1z M51,52h1v1h-1z M52,52h1v1h-1z M53,52h1v1h-1z M54,52h1v1h-1z M55,52h1v1h-1z M56,52h1v1h-1z M58,52h1v1h-1z M59,52h1v1h-1z M60,52h1v1h-1z M63,52h1v1h-1z M64,52h1v1h-1z M66,52h1v1h-1z M67,52h1v1h-1z M68,52h1v1h-1z M70,52h1v1h-1z M73,52h1v1h-1z M74,52h1v1h-1z M75,52h1v1h-1z M76,52h1v1h-1z M77,52h1v1h-1z M78,52h1v1h-1z M79,52h1v1h-1z M80,52h1v1h-1z M82,52h1v1h-1z M83,52h1v1h-1z M85,52h1v1h-1z M86,52h1v1h-1z M90,52h1v1h-1z M92,52h1v1h-1z M94,52h1v1h-1z M96,52h1v1h-1z M97,52h1v1h-1z M99,52h1v1h-1z M100,52h1v1h-1z M101,52h1v1h-1z M102,52h1v1h-1z M103,52h1v1h-1z M104,52h1v1h-1z M105,52h1v1h-1z M107,52h1v1h-1z M4,53h1v1h-1z M5,53h1v1h-1z M8,53h1v1h-1z M12,53h1v1h-1z M15,53h1v1h-1z M16,53h1v1h-1z M17,53h1v1h-1z M19,53h1v1h-1z M20,53h1v1h-1z M28,53h1v1h-1z M32,53h1v1h-1z M33,53h1v1h-1z M34,53h1v1h-1z M35,53h1v1h-1z M37,53h1v1h-1z M40,53h1v1h-1z M43,53h1v1h-1z M45,53h1v1h-1z M47,53h1v1h-1z M48,53h1v1h-1z M49,53h1v1h-1z M52,53h1v1h-1z M56,53h1v1h-1z M58,53h1v1h-1z M59,53h1v1h-1z M62,53h1v1h-1z M65,53h1v1h-1z M66,53h1v1h-1z M68,53h1v1h-1z M69,53h1v1h-1z M70,53h1v1h-1z M71,53h1v1h-1z M72,53h1v1h-1z M74,53h1v1h-1z M76,53h1v1h-1z M80,53h1v1h-1z M82,53h1v1h-1z M85,53h1v1h-1z M94,53h1v1h-1z M96,53h1v1h-1z M97,53h1v1h-1z M99,53h1v1h-1z M100,53h1v1h-1z M104,53h1v1h-1z M105,53h1v1h-1z M106,53h1v1h-1z M108,53h1v1h-1z M5,54h1v1h-1z M6,54h1v1h-1z M7,54h1v1h-1z M8,54h1v1h-1z M10,54h1v1h-1z M12,54h1v1h-1z M13,54h1v1h-1z M15,54h1v1h-1z M16,54h1v1h-1z M17,54h1v1h-1z M19,54h1v1h-1z M21,54h1v1h-1z M23,54h1v1h-1z M24,54h1v1h-1z M25,54h1v1h-1z M27,54h1v1h-1z M28,54h1v1h-1z M30,54h1v1h-1z M32,54h1v1h-1z M33,54h1v1h-1z M34,54h1v1h-1z M41,54h1v1h-1z M43,54h1v1h-1z M45,54h1v1h-1z M46,54h1v1h-1z M51,54h1v1h-1z M52,54h1v1h-1z M54,54h1v1h-1z M56,54h1v1h-1z M57,54h1v1h-1z M58,54h1v1h-1z M60,54h1v1h-1z M61,54h1v1h-1z M63,54h1v1h-1z M65,54h1v1h-1z M67,54h1v1h-1z M68,54h1v1h-1z M69,54h1v1h-1z M70,54h1v1h-1z M71,54h1v1h-1z M72,54h1v1h-1z M76,54h1v1h-1z M78,54h1v1h-1z M80,54h1v1h-1z M81,54h1v1h-1z M82,54h1v1h-1z M84,54h1v1h-1z M87,54h1v1h-1z M89,54h1v1h-1z M91,54h1v1h-1z M92,54h1v1h-1z M93,54h1v1h-1z M94,54h1v1h-1z M95,54h1v1h-1z M96,54h1v1h-1z M100,54h1v1h-1z M102,54h1v1h-1z M104,54h1v1h-1z M106,54h1v1h-1z M107,54h1v1h-1z M4,55h1v1h-1z M5,55h1v1h-1z M7,55h1v1h-1z M8,55h1v1h-1z M12,55h1v1h-1z M15,55h1v1h-1z M16,55h1v1h-1z M18,55h1v1h-1z M19,55h1v1h-1z M21,55h1v1h-1z M25,55h1v1h-1z M26,55h1v1h-1z M28,55h1v1h-1z M32,55h1v1h-1z M34,55h1v1h-1z M35,55h1v1h-1z M36,55h1v1h-1z M38,55h1v1h-1z M39,55h1v1h-1z M40,55h1v1h-1z M41,55h1v1h-1z M42,55h1v1h-1z M43,55h1v1h-1z M44,55h1v1h-1z M47,55h1v1h-1z M48,55h1v1h-1z M52,55h1v1h-1z M56,55h1v1h-1z M59,55h1v1h-1z M60,55h1v1h-1z M61,55h1v1h-1z M64,55h1v1h-1z M65,55h1v1h-1z M67,55h1v1h-1z M68,55h1v1h-1z M70,55h1v1h-1z M72,55h1v1h-1z M73,55h1v1h-1z M74,55h1v1h-1z M76,55h1v1h-1z M80,55h1v1h-1z M84,55h1v1h-1z M85,55h1v1h-1z M86,55h1v1h-1z M87,55h1v1h-1z M88,55h1v1h-1z M90,55h1v1h-1z M91,55h1v1h-1z M92,55h1v1h-1z M96,55h1v1h-1z M97,55h1v1h-1z M99,55h1v1h-1z M100,55h1v1h-1z M104,55h1v1h-1z M105,55h1v1h-1z M106,55h1v1h-1z M107,55h1v1h-1z M108,55h1v1h-1z M5,56h1v1h-1z M7,56h1v1h-1z M8,56h1v1h-1z M9,56h1v1h-1z M10,56h1v1h-1z M11,56h1v1h-1z M12,56h1v1h-1z M14,56h1v1h-1z M15,56h1v1h-1z M16,56h1v1h-1z M20,56h1v1h-1z M23,56h1v1h-1z M24,56h1v1h-1z M26,56h1v1h-1z M28,56h1v1h-1z M29,56h1v1h-1z M30,56h1v1h-1z M31,56h1v1h-1z M32,56h1v1h-1z M33,56h1v1h-1z M34,56h1v1h-1z M35,56h1v1h-1z M37,56h1v1h-1z M39,56h1v1h-1z M41,56h1v1h-1z M42,56h1v1h-1z M43,56h1v1h-1z M44,56h1v1h-1z M48,56h1v1h-1z M49,56h1v1h-1z M52,56h1v1h-1z M53,56h1v1h-1z M54,56h1v1h-1z M55,56h1v1h-1z M56,56h1v1h-1z M60,56h1v1h-1z M61,56h1v1h-1z M63,56h1v1h-1z M64,56h1v1h-1z M67,56h1v1h-1z M70,56h1v1h-1z M71,56h1v1h-1z M76,56h1v1h-1z M77,56h1v1h-1z M78,56h1v1h-1z M79,56h1v1h-1z M80,56h1v1h-1z M82,56h1v1h-1z M83,56h1v1h-1z M88,56h1v1h-1z M89,56h1v1h-1z M94,56h1v1h-1z M95,56h1v1h-1z M96,56h1v1h-1z M97,56h1v1h-1z M99,56h1v1h-1z M100,56h1v1h-1z M101,56h1v1h-1z M102,56h1v1h-1z M103,56h1v1h-1z M104,56h1v1h-1z M105,56h1v1h-1z M7,57h1v1h-1z M11,57h1v1h-1z M12,57h1v1h-1z M13,57h1v1h-1z M14,57h1v1h-1z M21,57h1v1h-1z M25,57h1v1h-1z M30,57h1v1h-1z M31,57h1v1h-1z M34,57h1v1h-1z M35,57h1v1h-1z M37,57h1v1h-1z M39,57h1v1h-1z M41,57h1v1h-1z M48,57h1v1h-1z M51,57h1v1h-1z M55,57h1v1h-1z M58,57h1v1h-1z M59,57h1v1h-1z M62,57h1v1h-1z M63,57h1v1h-1z M64,57h1v1h-1z M66,57h1v1h-1z M68,57h1v1h-1z M69,57h1v1h-1z M70,57h1v1h-1z M74,57h1v1h-1z M75,57h1v1h-1z M78,57h1v1h-1z M79,57h1v1h-1z M82,57h1v1h-1z M85,57h1v1h-1z M86,57h1v1h-1z M87,57h1v1h-1z M94,57h1v1h-1z M95,57h1v1h-1z M97,57h1v1h-1z M100,57h1v1h-1z M101,57h1v1h-1z M103,57h1v1h-1z M104,57h1v1h-1z M105,57h1v1h-1z M106,57h1v1h-1z M108,57h1v1h-1z M6,58h1v1h-1z M8,58h1v1h-1z M9,58h1v1h-1z M10,58h1v1h-1z M15,58h1v1h-1z M18,58h1v1h-1z M19,58h1v1h-1z M25,58h1v1h-1z M28,58h1v1h-1z M31,58h1v1h-1z M34,58h1v1h-1z M35,58h1v1h-1z M38,58h1v1h-1z M39,58h1v1h-1z M42,58h1v1h-1z M44,58h1v1h-1z M46,58h1v1h-1z M48,58h1v1h-1z M50,58h1v1h-1z M52,58h1v1h-1z M55,58h1v1h-1z M58,58h1v1h-1z M59,58h1v1h-1z M62,58h1v1h-1z M64,58h1v1h-1z M66,58h1v1h-1z M67,58h1v1h-1z M70,58h1v1h-1z M71,58h1v1h-1z M74,58h1v1h-1z M76,58h1v1h-1z M77,58h1v1h-1z M78,58h1v1h-1z M80,58h1v1h-1z M82,58h1v1h-1z M84,58h1v1h-1z M86,58h1v1h-1z M87,58h1v1h-1z M89,58h1v1h-1z M90,58h1v1h-1z M91,58h1v1h-1z M92,58h1v1h-1z M94,58h1v1h-1z M95,58h1v1h-1z M98,58h1v1h-1z M99,58h1v1h-1z M101,58h1v1h-1z M102,58h1v1h-1z M105,58h1v1h-1z M108,58h1v1h-1z M6,59h1v1h-1z M7,59h1v1h-1z M9,59h1v1h-1z M15,59h1v1h-1z M16,59h1v1h-1z M20,59h1v1h-1z M22,59h1v1h-1z M23,59h1v1h-1z M29,59h1v1h-1z M30,59h1v1h-1z M32,59h1v1h-1z M35,59h1v1h-1z M39,59h1v1h-1z M40,59h1v1h-1z M43,59h1v1h-1z M45,59h1v1h-1z M46,59h1v1h-1z M47,59h1v1h-1z M50,59h1v1h-1z M52,59h1v1h-1z M55,59h1v1h-1z M58,59h1v1h-1z M59,59h1v1h-1z M61,59h1v1h-1z M62,59h1v1h-1z M63,59h1v1h-1z M64,59h1v1h-1z M67,59h1v1h-1z M69,59h1v1h-1z M71,59h1v1h-1z M75,59h1v1h-1z M76,59h1v1h-1z M78,59h1v1h-1z M81,59h1v1h-1z M82,59h1v1h-1z M83,59h1v1h-1z M85,59h1v1h-1z M87,59h1v1h-1z M88,59h1v1h-1z M89,59h1v1h-1z M90,59h1v1h-1z M91,59h1v1h-1z M93,59h1v1h-1z M94,59h1v1h-1z M95,59h1v1h-1z M97,59h1v1h-1z M98,59h1v1h-1z M102,59h1v1h-1z M103,59h1v1h-1z M104,59h1v1h-1z M105,59h1v1h-1z M106,59h1v1h-1z M4,60h1v1h-1z M5,60h1v1h-1z M7,60h1v1h-1z M10,60h1v1h-1z M11,60h1v1h-1z M13,60h1v1h-1z M15,60h1v1h-1z M17,60h1v1h-1z M18,60h1v1h-1z M19,60h1v1h-1z M20,60h1v1h-1z M22,60h1v1h-1z M23,60h1v1h-1z M25,60h1v1h-1z M26,60h1v1h-1z M28,60h1v1h-1z M29,60h1v1h-1z M32,60h1v1h-1z M33,60h1v1h-1z M34,60h1v1h-1z M51,60h1v1h-1z M52,60h1v1h-1z M53,60h1v1h-1z M55,60h1v1h-1z M57,60h1v1h-1z M58,60h1v1h-1z M60,60h1v1h-1z M63,60h1v1h-1z M66,60h1v1h-1z M68,60h1v1h-1z M70,60h1v1h-1z M71,60h1v1h-1z M72,60h1v1h-1z M75,60h1v1h-1z M76,60h1v1h-1z M77,60h1v1h-1z M80,60h1v1h-1z M81,60h1v1h-1z M82,60h1v1h-1z M83,60h1v1h-1z M84,60h1v1h-1z M85,60h1v1h-1z M86,60h1v1h-1z M87,60h1v1h-1z M90,60h1v1h-1z M91,60h1v1h-1z M95,60h1v1h-1z M96,60h1v1h-1z M99,60h1v1h-1z M101,60h1v1h-1z M102,60h1v1h-1z M106,60h1v1h-1z M107,60h1v1h-1z M5,61h1v1h-1z M9,61h1v1h-1z M11,61h1v1h-1z M12,61h1v1h-1z M13,61h1v1h-1z M14,61h1v1h-1z M16,61h1v1h-1z M17,61h1v1h-1z M18,61h1v1h-1z M19,61h1v1h-1z M21,61h1v1h-1z M22,61h1v1h-1z M27,61h1v1h-1z M28,61h1v1h-1z M29,61h1v1h-1z M32,61h1v1h-1z M34,61h1v1h-1z M35,61h1v1h-1z M36,61h1v1h-1z M37,61h1v1h-1z M40,61h1v1h-1z M42,61h1v1h-1z M45,61h1v1h-1z M46,61h1v1h-1z M47,61h1v1h-1z M48,61h1v1h-1z M55,61h1v1h-1z M56,61h1v1h-1z M57,61h1v1h-1z M59,61h1v1h-1z M63,61h1v1h-1z M64,61h1v1h-1z M65,61h1v1h-1z M67,61h1v1h-1z M68,61h1v1h-1z M72,61h1v1h-1z M73,61h1v1h-1z M75,61h1v1h-1z M77,61h1v1h-1z M79,61h1v1h-1z M80,61h1v1h-1z M81,61h1v1h-1z M83,61h1v1h-1z M84,61h1v1h-1z M86,61h1v1h-1z M87,61h1v1h-1z M88,61h1v1h-1z M93,61h1v1h-1z M96,61h1v1h-1z M97,61h1v1h-1z M100,61h1v1h-1z M101,61h1v1h-1z M102,61h1v1h-1z M105,61h1v1h-1z M106,61h1v1h-1z M5,62h1v1h-1z M10,62h1v1h-1z M11,62h1v1h-1z M13,62h1v1h-1z M15,62h1v1h-1z M18,62h1v1h-1z M26,62h1v1h-1z M27,62h1v1h-1z M28,62h1v1h-1z M29,62h1v1h-1z M30,62h1v1h-1z M33,62h1v1h-1z M34,62h1v1h-1z M35,62h1v1h-1z M36,62h1v1h-1z M40,62h1v1h-1z M41,62h1v1h-1z M43,62h1v1h-1z M45,62h1v1h-1z M46,62h1v1h-1z M48,62h1v1h-1z M51,62h1v1h-1z M52,62h1v1h-1z M54,62h1v1h-1z M55,62h1v1h-1z M56,62h1v1h-1z M57,62h1v1h-1z M58,62h1v1h-1z M59,62h1v1h-1z M60,62h1v1h-1z M63,62h1v1h-1z M64,62h1v1h-1z M65,62h1v1h-1z M69,62h1v1h-1z M70,62h1v1h-1z M75,62h1v1h-1z M76,62h1v1h-1z M77,62h1v1h-1z M79,62h1v1h-1z M80,62h1v1h-1z M81,62h1v1h-1z M82,62h1v1h-1z M83,62h1v1h-1z M84,62h1v1h-1z M87,62h1v1h-1z M89,62h1v1h-1z M93,62h1v1h-1z M94,62h1v1h-1z M96,62h1v1h-1z M100,62h1v1h-1z M104,62h1v1h-1z M106,62h1v1h-1z M107,62h1v1h-1z M7,63h1v1h-1z M8,63h1v1h-1z M11,63h1v1h-1z M13,63h1v1h-1z M14,63h1v1h-1z M17,63h1v1h-1z M18,63h1v1h-1z M19,63h1v1h-1z M20,63h1v1h-1z M23,63h1v1h-1z M24,63h1v1h-1z M28,63h1v1h-1z M29,63h1v1h-1z M30,63h1v1h-1z M31,63h1v1h-1z M32,63h1v1h-1z M33,63h1v1h-1z M34,63h1v1h-1z M35,63h1v1h-1z M37,63h1v1h-1z M39,63h1v1h-1z M40,63h1v1h-1z M42,63h1v1h-1z M43,63h1v1h-1z M46,63h1v1h-1z M47,63h1v1h-1z M49,63h1v1h-1z M50,63h1v1h-1z M52,63h1v1h-1z M53,63h1v1h-1z M54,63h1v1h-1z M55,63h1v1h-1z M57,63h1v1h-1z M58,63h1v1h-1z M63,63h1v1h-1z M64,63h1v1h-1z M66,63h1v1h-1z M67,63h1v1h-1z M71,63h1v1h-1z M73,63h1v1h-1z M74,63h1v1h-1z M75,63h1v1h-1z M77,63h1v1h-1z M78,63h1v1h-1z M79,63h1v1h-1z M88,63h1v1h-1z M89,63h1v1h-1z M90,63h1v1h-1z M91,63h1v1h-1z M94,63h1v1h-1z M97,63h1v1h-1z M98,63h1v1h-1z M99,63h1v1h-1z M100,63h1v1h-1z M101,63h1v1h-1z M103,63h1v1h-1z M105,63h1v1h-1z M106,63h1v1h-1z M108,63h1v1h-1z M4,64h1v1h-1z M8,64h1v1h-1z M9,64h1v1h-1z M10,64h1v1h-1z M13,64h1v1h-1z M14,64h1v1h-1z M15,64h1v1h-1z M17,64h1v1h-1z M18,64h1v1h-1z M20,64h1v1h-1z M21,64h1v1h-1z M24,64h1v1h-1z M27,64h1v1h-1z M30,64h1v1h-1z M31,64h1v1h-1z M34,64h1v1h-1z M37,64h1v1h-1z M42,64h1v1h-1z M43,64h1v1h-1z M44,64h1v1h-1z M45,64h1v1h-1z M50,64h1v1h-1z M52,64h1v1h-1z M54,64h1v1h-1z M55,64h1v1h-1z M56,64h1v1h-1z M57,64h1v1h-1z M58,64h1v1h-1z M61,64h1v1h-1z M62,64h1v1h-1z M65,64h1v1h-1z M67,64h1v1h-1z M69,64h1v1h-1z M70,64h1v1h-1z M71,64h1v1h-1z M73,64h1v1h-1z M75,64h1v1h-1z M78,64h1v1h-1z M79,64h1v1h-1z M80,64h1v1h-1z M82,64h1v1h-1z M83,64h1v1h-1z M84,64h1v1h-1z M85,64h1v1h-1z M91,64h1v1h-1z M93,64h1v1h-1z M94,64h1v1h-1z M95,64h1v1h-1z M101,64h1v1h-1z M104,64h1v1h-1z M105,64h1v1h-1z M107,64h1v1h-1z M4,65h1v1h-1z M5,65h1v1h-1z M8,65h1v1h-1z M11,65h1v1h-1z M12,65h1v1h-1z M13,65h1v1h-1z M15,65h1v1h-1z M17,65h1v1h-1z M18,65h1v1h-1z M20,65h1v1h-1z M21,65h1v1h-1z M28,65h1v1h-1z M29,65h1v1h-1z M30,65h1v1h-1z M31,65h1v1h-1z M38,65h1v1h-1z M39,65h1v1h-1z M45,65h1v1h-1z M49,65h1v1h-1z M50,65h1v1h-1z M55,65h1v1h-1z M57,65h1v1h-1z M58,65h1v1h-1z M59,65h1v1h-1z M61,65h1v1h-1z M62,65h1v1h-1z M63,65h1v1h-1z M64,65h1v1h-1z M75,65h1v1h-1z M77,65h1v1h-1z M79,65h1v1h-1z M82,65h1v1h-1z M84,65h1v1h-1z M88,65h1v1h-1z M89,65h1v1h-1z M90,65h1v1h-1z M91,65h1v1h-1z M97,65h1v1h-1z M98,65h1v1h-1z M99,65h1v1h-1z M100,65h1v1h-1z M104,65h1v1h-1z M106,65h1v1h-1z M108,65h1v1h-1z M4,66h1v1h-1z M5,66h1v1h-1z M10,66h1v1h-1z M13,66h1v1h-1z M14,66h1v1h-1z M16,66h1v1h-1z M17,66h1v1h-1z M21,66h1v1h-1z M22,66h1v1h-1z M27,66h1v1h-1z M28,66h1v1h-1z M31,66h1v1h-1z M32,66h1v1h-1z M33,66h1v1h-1z M34,66h1v1h-1z M35,66h1v1h-1z M39,66h1v1h-1z M41,66h1v1h-1z M44,66h1v1h-1z M45,66h1v1h-1z M46,66h1v1h-1z M47,66h1v1h-1z M48,66h1v1h-1z M51,66h1v1h-1z M52,66h1v1h-1z M53,66h1v1h-1z M54,66h1v1h-1z M55,66h1v1h-1z M56,66h1v1h-1z M57,66h1v1h-1z M58,66h1v1h-1z M59,66h1v1h-1z M60,66h1v1h-1z M63,66h1v1h-1z M68,66h1v1h-1z M69,66h1v1h-1z M70,66h1v1h-1z M72,66h1v1h-1z M75,66h1v1h-1z M76,66h1v1h-1z M79,66h1v1h-1z M80,66h1v1h-1z M81,66h1v1h-1z M82,66h1v1h-1z M84,66h1v1h-1z M88,66h1v1h-1z M89,66h1v1h-1z M91,66h1v1h-1z M94,66h1v1h-1z M101,66h1v1h-1z M102,66h1v1h-1z M103,66h1v1h-1z M105,66h1v1h-1z M107,66h1v1h-1z M4,67h1v1h-1z M7,67h1v1h-1z M8,67h1v1h-1z M11,67h1v1h-1z M13,67h1v1h-1z M15,67h1v1h-1z M20,67h1v1h-1z M21,67h1v1h-1z M22,67h1v1h-1z M23,67h1v1h-1z M24,67h1v1h-1z M25,67h1v1h-1z M26,67h1v1h-1z M29,67h1v1h-1z M30,67h1v1h-1z M31,67h1v1h-1z M32,67h1v1h-1z M33,67h1v1h-1z M34,67h1v1h-1z M35,67h1v1h-1z M36,67h1v1h-1z M39,67h1v1h-1z M40,67h1v1h-1z M41,67h1v1h-1z M42,67h1v1h-1z M43,67h1v1h-1z M44,67h1v1h-1z M48,67h1v1h-1z M50,67h1v1h-1z M51,67h1v1h-1z M52,67h1v1h-1z M55,67h1v1h-1z M56,67h1v1h-1z M57,67h1v1h-1z M58,67h1v1h-1z M59,67h1v1h-1z M60,67h1v1h-1z M61,67h1v1h-1z M62,67h1v1h-1z M64,67h1v1h-1z M65,67h1v1h-1z M67,67h1v1h-1z M68,67h1v1h-1z M69,67h1v1h-1z M71,67h1v1h-1z M72,67h1v1h-1z M73,67h1v1h-1z M74,67h1v1h-1z M81,67h1v1h-1z M82,67h1v1h-1z M83,67h1v1h-1z M84,67h1v1h-1z M87,67h1v1h-1z M88,67h1v1h-1z M90,67h1v1h-1z M91,67h1v1h-1z M92,67h1v1h-1z M93,67h1v1h-1z M95,67h1v1h-1z M96,67h1v1h-1z M97,67h1v1h-1z M103,67h1v1h-1z M105,67h1v1h-1z M106,67h1v1h-1z M108,67h1v1h-1z M6,68h1v1h-1z M8,68h1v1h-1z M9,68h1v1h-1z M10,68h1v1h-1z M12,68h1v1h-1z M13,68h1v1h-1z M14,68h1v1h-1z M17,68h1v1h-1z M19,68h1v1h-1z M20,68h1v1h-1z M24,68h1v1h-1z M26,68h1v1h-1z M27,68h1v1h-1z M28,68h1v1h-1z M29,68h1v1h-1z M32,68h1v1h-1z M37,68h1v1h-1z M38,68h1v1h-1z M41,68h1v1h-1z M43,68h1v1h-1z M44,68h1v1h-1z M45,68h1v1h-1z M46,68h1v1h-1z M52,68h1v1h-1z M53,68h1v1h-1z M55,68h1v1h-1z M56,68h1v1h-1z M60,68h1v1h-1z M61,68h1v1h-1z M63,68h1v1h-1z M64,68h1v1h-1z M65,68h1v1h-1z M67,68h1v1h-1z M71,68h1v1h-1z M72,68h1v1h-1z M73,68h1v1h-1z M75,68h1v1h-1z M76,68h1v1h-1z M77,68h1v1h-1z M79,68h1v1h-1z M80,68h1v1h-1z M82,68h1v1h-1z M85,68h1v1h-1z M89,68h1v1h-1z M91,68h1v1h-1z M93,68h1v1h-1z M94,68h1v1h-1z M95,68h1v1h-1z M96,68h1v1h-1z M97,68h1v1h-1z M98,68h1v1h-1z M108,68h1v1h-1z M5,69h1v1h-1z M7,69h1v1h-1z M9,69h1v1h-1z M11,69h1v1h-1z M12,69h1v1h-1z M14,69h1v1h-1z M15,69h1v1h-1z M16,69h1v1h-1z M18,69h1v1h-1z M20,69h1v1h-1z M24,69h1v1h-1z M25,69h1v1h-1z M30,69h1v1h-1z M31,69h1v1h-1z M34,69h1v1h-1z M35,69h1v1h-1z M37,69h1v1h-1z M40,69h1v1h-1z M41,69h1v1h-1z M44,69h1v1h-1z M46,69h1v1h-1z M47,69h1v1h-1z M51,69h1v1h-1z M55,69h1v1h-1z M57,69h1v1h-1z M58,69h1v1h-1z M60,69h1v1h-1z M61,69h1v1h-1z M64,69h1v1h-1z M65,69h1v1h-1z M66,69h1v1h-1z M67,69h1v1h-1z M71,69h1v1h-1z M74,69h1v1h-1z M77,69h1v1h-1z M81,69h1v1h-1z M82,69h1v1h-1z M84,69h1v1h-1z M85,69h1v1h-1z M88,69h1v1h-1z M91,69h1v1h-1z M92,69h1v1h-1z M94,69h1v1h-1z M96,69h1v1h-1z M97,69h1v1h-1z M98,69h1v1h-1z M99,69h1v1h-1z M100,69h1v1h-1z M101,69h1v1h-1z M103,69h1v1h-1z M105,69h1v1h-1z M106,69h1v1h-1z M108,69h1v1h-1z M5,70h1v1h-1z M9,70h1v1h-1z M10,70h1v1h-1z M11,70h1v1h-1z M13,70h1v1h-1z M14,70h1v1h-1z M15,70h1v1h-1z M16,70h1v1h-1z M17,70h1v1h-1z M18,70h1v1h-1z M22,70h1v1h-1z M23,70h1v1h-1z M24,70h1v1h-1z M26,70h1v1h-1z M28,70h1v1h-1z M29,70h1v1h-1z M30,70h1v1h-1z M31,70h1v1h-1z M34,70h1v1h-1z M35,70h1v1h-1z M36,70h1v1h-1z M38,70h1v1h-1z M39,70h1v1h-1z M42,70h1v1h-1z M46,70h1v1h-1z M47,70h1v1h-1z M50,70h1v1h-1z M52,70h1v1h-1z M53,70h1v1h-1z M54,70h1v1h-1z M55,70h1v1h-1z M56,70h1v1h-1z M58,70h1v1h-1z M62,70h1v1h-1z M66,70h1v1h-1z M68,70h1v1h-1z M70,70h1v1h-1z M72,70h1v1h-1z M74,70h1v1h-1z M76,70h1v1h-1z M79,70h1v1h-1z M80,70h1v1h-1z M82,70h1v1h-1z M83,70h1v1h-1z M84,70h1v1h-1z M86,70h1v1h-1z M87,70h1v1h-1z M90,70h1v1h-1z M92,70h1v1h-1z M94,70h1v1h-1z M95,70h1v1h-1z M96,70h1v1h-1z M98,70h1v1h-1z M99,70h1v1h-1z M103,70h1v1h-1z M104,70h1v1h-1z M105,70h1v1h-1z M4,71h1v1h-1z M6,71h1v1h-1z M7,71h1v1h-1z M12,71h1v1h-1z M13,71h1v1h-1z M20,71h1v1h-1z M21,71h1v1h-1z M24,71h1v1h-1z M25,71h1v1h-1z M26,71h1v1h-1z M29,71h1v1h-1z M30,71h1v1h-1z M31,71h1v1h-1z M34,71h1v1h-1z M35,71h1v1h-1z M38,71h1v1h-1z M39,71h1v1h-1z M40,71h1v1h-1z M45,71h1v1h-1z M46,71h1v1h-1z M47,71h1v1h-1z M49,71h1v1h-1z M50,71h1v1h-1z M55,71h1v1h-1z M56,71h1v1h-1z M58,71h1v1h-1z M59,71h1v1h-1z M63,71h1v1h-1z M64,71h1v1h-1z M66,71h1v1h-1z M67,71h1v1h-1z M69,71h1v1h-1z M70,71h1v1h-1z M71,71h1v1h-1z M73,71h1v1h-1z M74,71h1v1h-1z M76,71h1v1h-1z M79,71h1v1h-1z M82,71h1v1h-1z M83,71h1v1h-1z M87,71h1v1h-1z M88,71h1v1h-1z M89,71h1v1h-1z M90,71h1v1h-1z M91,71h1v1h-1z M94,71h1v1h-1z M95,71h1v1h-1z M98,71h1v1h-1z M100,71h1v1h-1z M103,71h1v1h-1z M104,71h1v1h-1z M105,71h1v1h-1z M106,71h1v1h-1z M107,71h1v1h-1z M108,71h1v1h-1z M8,72h1v1h-1z M10,72h1v1h-1z M11,72h1v1h-1z M14,72h1v1h-1z M20,72h1v1h-1z M21,72h1v1h-1z M23,72h1v1h-1z M24,72h1v1h-1z M25,72h1v1h-1z M27,72h1v1h-1z M28,72h1v1h-1z M29,72h1v1h-1z M31,72h1v1h-1z M32,72h1v1h-1z M35,72h1v1h-1z M36,72h1v1h-1z M37,72h1v1h-1z M39,72h1v1h-1z M40,72h1v1h-1z M42,72h1v1h-1z M44,72h1v1h-1z M45,72h1v1h-1z M46,72h1v1h-1z M48,72h1v1h-1z M52,72h1v1h-1z M53,72h1v1h-1z M56,72h1v1h-1z M58,72h1v1h-1z M59,72h1v1h-1z M61,72h1v1h-1z M63,72h1v1h-1z M70,72h1v1h-1z M71,72h1v1h-1z M73,72h1v1h-1z M74,72h1v1h-1z M75,72h1v1h-1z M76,72h1v1h-1z M77,72h1v1h-1z M80,72h1v1h-1z M81,72h1v1h-1z M82,72h1v1h-1z M87,72h1v1h-1z M90,72h1v1h-1z M91,72h1v1h-1z M92,72h1v1h-1z M95,72h1v1h-1z M96,72h1v1h-1z M99,72h1v1h-1z M105,72h1v1h-1z M5,73h1v1h-1z M6,73h1v1h-1z M9,73h1v1h-1z M11,73h1v1h-1z M13,73h1v1h-1z M14,73h1v1h-1z M16,73h1v1h-1z M18,73h1v1h-1z M20,73h1v1h-1z M24,73h1v1h-1z M25,73h1v1h-1z M26,73h1v1h-1z M31,73h1v1h-1z M32,73h1v1h-1z M34,73h1v1h-1z M36,73h1v1h-1z M37,73h1v1h-1z M40,73h1v1h-1z M43,73h1v1h-1z M44,73h1v1h-1z M45,73h1v1h-1z M46,73h1v1h-1z M48,73h1v1h-1z M51,73h1v1h-1z M53,73h1v1h-1z M54,73h1v1h-1z M56,73h1v1h-1z M61,73h1v1h-1z M62,73h1v1h-1z M63,73h1v1h-1z M68,73h1v1h-1z M72,73h1v1h-1z M74,73h1v1h-1z M75,73h1v1h-1z M76,73h1v1h-1z M78,73h1v1h-1z M79,73h1v1h-1z M80,73h1v1h-1z M84,73h1v1h-1z M85,73h1v1h-1z M87,73h1v1h-1z M88,73h1v1h-1z M89,73h1v1h-1z M91,73h1v1h-1z M92,73h1v1h-1z M93,73h1v1h-1z M94,73h1v1h-1z M95,73h1v1h-1z M96,73h1v1h-1z M98,73h1v1h-1z M99,73h1v1h-1z M100,73h1v1h-1z M101,73h1v1h-1z M102,73h1v1h-1z M103,73h1v1h-1z M104,73h1v1h-1z M107,73h1v1h-1z M108,73h1v1h-1z M6,74h1v1h-1z M9,74h1v1h-1z M10,74h1v1h-1z M11,74h1v1h-1z M12,74h1v1h-1z M13,74h1v1h-1z M14,74h1v1h-1z M16,74h1v1h-1z M21,74h1v1h-1z M22,74h1v1h-1z M23,74h1v1h-1z M27,74h1v1h-1z M28,74h1v1h-1z M31,74h1v1h-1z M32,74h1v1h-1z M33,74h1v1h-1z M34,74h1v1h-1z M36,74h1v1h-1z M37,74h1v1h-1z M39,74h1v1h-1z M40,74h1v1h-1z M41,74h1v1h-1z M46,74h1v1h-1z M48,74h1v1h-1z M52,74h1v1h-1z M56,74h1v1h-1z M57,74h1v1h-1z M58,74h1v1h-1z M63,74h1v1h-1z M65,74h1v1h-1z M68,74h1v1h-1z M69,74h1v1h-1z M70,74h1v1h-1z M71,74h1v1h-1z M72,74h1v1h-1z M73,74h1v1h-1z M75,74h1v1h-1z M76,74h1v1h-1z M78,74h1v1h-1z M81,74h1v1h-1z M82,74h1v1h-1z M84,74h1v1h-1z M87,74h1v1h-1z M88,74h1v1h-1z M89,74h1v1h-1z M92,74h1v1h-1z M94,74h1v1h-1z M99,74h1v1h-1z M102,74h1v1h-1z M103,74h1v1h-1z M107,74h1v1h-1z M11,75h1v1h-1z M12,75h1v1h-1z M15,75h1v1h-1z M16,75h1v1h-1z M18,75h1v1h-1z M19,75h1v1h-1z M20,75h1v1h-1z M21,75h1v1h-1z M23,75h1v1h-1z M24,75h1v1h-1z M28,75h1v1h-1z M29,75h1v1h-1z M30,75h1v1h-1z M35,75h1v1h-1z M37,75h1v1h-1z M38,75h1v1h-1z M39,75h1v1h-1z M40,75h1v1h-1z M41,75h1v1h-1z M42,75h1v1h-1z M43,75h1v1h-1z M45,75h1v1h-1z M47,75h1v1h-1z M50,75h1v1h-1z M52,75h1v1h-1z M55,75h1v1h-1z M57,75h1v1h-1z M58,75h1v1h-1z M59,75h1v1h-1z M64,75h1v1h-1z M71,75h1v1h-1z M74,75h1v1h-1z M77,75h1v1h-1z M79,75h1v1h-1z M81,75h1v1h-1z M82,75h1v1h-1z M85,75h1v1h-1z M86,75h1v1h-1z M87,75h1v1h-1z M88,75h1v1h-1z M89,75h1v1h-1z M90,75h1v1h-1z M93,75h1v1h-1z M95,75h1v1h-1z M98,75h1v1h-1z M99,75h1v1h-1z M100,75h1v1h-1z M102,75h1v1h-1z M104,75h1v1h-1z M106,75h1v1h-1z M5,76h1v1h-1z M7,76h1v1h-1z M8,76h1v1h-1z M9,76h1v1h-1z M10,76h1v1h-1z M11,76h1v1h-1z M12,76h1v1h-1z M14,76h1v1h-1z M17,76h1v1h-1z M18,76h1v1h-1z M27,76h1v1h-1z M28,76h1v1h-1z M29,76h1v1h-1z M30,76h1v1h-1z M31,76h1v1h-1z M32,76h1v1h-1z M35,76h1v1h-1z M37,76h1v1h-1z M38,76h1v1h-1z M40,76h1v1h-1z M46,76h1v1h-1z M48,76h1v1h-1z M50,76h1v1h-1z M51,76h1v1h-1z M52,76h1v1h-1z M53,76h1v1h-1z M54,76h1v1h-1z M55,76h1v1h-1z M56,76h1v1h-1z M58,76h1v1h-1z M60,76h1v1h-1z M62,76h1v1h-1z M63,76h1v1h-1z M67,76h1v1h-1z M69,76h1v1h-1z M71,76h1v1h-1z M75,76h1v1h-1z M76,76h1v1h-1z M77,76h1v1h-1z M78,76h1v1h-1z M79,76h1v1h-1z M80,76h1v1h-1z M82,76h1v1h-1z M84,76h1v1h-1z M85,76h1v1h-1z M88,76h1v1h-1z M89,76h1v1h-1z M91,76h1v1h-1z M92,76h1v1h-1z M93,76h1v1h-1z M94,76h1v1h-1z M97,76h1v1h-1z M100,76h1v1h-1z M101,76h1v1h-1z M102,76h1v1h-1z M103,76h1v1h-1z M104,76h1v1h-1z M107,76h1v1h-1z M5,77h1v1h-1z M6,77h1v1h-1z M8,77h1v1h-1z M12,77h1v1h-1z M13,77h1v1h-1z M14,77h1v1h-1z M15,77h1v1h-1z M17,77h1v1h-1z M20,77h1v1h-1z M23,77h1v1h-1z M27,77h1v1h-1z M28,77h1v1h-1z M32,77h1v1h-1z M33,77h1v1h-1z M34,77h1v1h-1z M35,77h1v1h-1z M37,77h1v1h-1z M40,77h1v1h-1z M41,77h1v1h-1z M42,77h1v1h-1z M43,77h1v1h-1z M48,77h1v1h-1z M49,77h1v1h-1z M50,77h1v1h-1z M51,77h1v1h-1z M52,77h1v1h-1z M56,77h1v1h-1z M61,77h1v1h-1z M62,77h1v1h-1z M63,77h1v1h-1z M64,77h1v1h-1z M65,77h1v1h-1z M67,77h1v1h-1z M71,77h1v1h-1z M74,77h1v1h-1z M75,77h1v1h-1z M76,77h1v1h-1z M80,77h1v1h-1z M81,77h1v1h-1z M85,77h1v1h-1z M87,77h1v1h-1z M88,77h1v1h-1z M91,77h1v1h-1z M95,77h1v1h-1z M96,77h1v1h-1z M98,77h1v1h-1z M100,77h1v1h-1z M104,77h1v1h-1z M106,77h1v1h-1z M107,77h1v1h-1z M4,78h1v1h-1z M6,78h1v1h-1z M7,78h1v1h-1z M8,78h1v1h-1z M10,78h1v1h-1z M12,78h1v1h-1z M14,78h1v1h-1z M15,78h1v1h-1z M17,78h1v1h-1z M18,78h1v1h-1z M19,78h1v1h-1z M20,78h1v1h-1z M21,78h1v1h-1z M22,78h1v1h-1z M23,78h1v1h-1z M25,78h1v1h-1z M27,78h1v1h-1z M28,78h1v1h-1z M30,78h1v1h-1z M32,78h1v1h-1z M33,78h1v1h-1z M34,78h1v1h-1z M35,78h1v1h-1z M36,78h1v1h-1z M40,78h1v1h-1z M45,78h1v1h-1z M46,78h1v1h-1z M51,78h1v1h-1z M52,78h1v1h-1z M54,78h1v1h-1z M56,78h1v1h-1z M57,78h1v1h-1z M58,78h1v1h-1z M61,78h1v1h-1z M63,78h1v1h-1z M65,78h1v1h-1z M67,78h1v1h-1z M68,78h1v1h-1z M69,78h1v1h-1z M70,78h1v1h-1z M75,78h1v1h-1z M76,78h1v1h-1z M78,78h1v1h-1z M80,78h1v1h-1z M81,78h1v1h-1z M82,78h1v1h-1z M89,78h1v1h-1z M91,78h1v1h-1z M93,78h1v1h-1z M94,78h1v1h-1z M96,78h1v1h-1z M99,78h1v1h-1z M100,78h1v1h-1z M102,78h1v1h-1z M104,78h1v1h-1z M105,78h1v1h-1z M107,78h1v1h-1z M5,79h1v1h-1z M6,79h1v1h-1z M8,79h1v1h-1z M12,79h1v1h-1z M22,79h1v1h-1z M28,79h1v1h-1z M32,79h1v1h-1z M33,79h1v1h-1z M34,79h1v1h-1z M36,79h1v1h-1z M39,79h1v1h-1z M40,79h1v1h-1z M41,79h1v1h-1z M43,79h1v1h-1z M44,79h1v1h-1z M45,79h1v1h-1z M46,79h1v1h-1z M47,79h1v1h-1z M48,79h1v1h-1z M49,79h1v1h-1z M50,79h1v1h-1z M51,79h1v1h-1z M52,79h1v1h-1z M56,79h1v1h-1z M59,79h1v1h-1z M60,79h1v1h-1z M61,79h1v1h-1z M63,79h1v1h-1z M64,79h1v1h-1z M65,79h1v1h-1z M66,79h1v1h-1z M67,79h1v1h-1z M68,79h1v1h-1z M69,79h1v1h-1z M71,79h1v1h-1z M72,79h1v1h-1z M73,79h1v1h-1z M74,79h1v1h-1z M76,79h1v1h-1z M80,79h1v1h-1z M81,79h1v1h-1z M83,79h1v1h-1z M84,79h1v1h-1z M86,79h1v1h-1z M88,79h1v1h-1z M89,79h1v1h-1z M91,79h1v1h-1z M92,79h1v1h-1z M94,79h1v1h-1z M95,79h1v1h-1z M96,79h1v1h-1z M97,79h1v1h-1z M100,79h1v1h-1z M104,79h1v1h-1z M106,79h1v1h-1z M107,79h1v1h-1z M4,80h1v1h-1z M5,80h1v1h-1z M6,80h1v1h-1z M7,80h1v1h-1z M8,80h1v1h-1z M9,80h1v1h-1z M10,80h1v1h-1z M11,80h1v1h-1z M12,80h1v1h-1z M15,80h1v1h-1z M18,80h1v1h-1z M21,80h1v1h-1z M22,80h1v1h-1z M23,80h1v1h-1z M27,80h1v1h-1z M28,80h1v1h-1z M29,80h1v1h-1z M30,80h1v1h-1z M31,80h1v1h-1z M32,80h1v1h-1z M34,80h1v1h-1z M36,80h1v1h-1z M37,80h1v1h-1z M44,80h1v1h-1z M45,80h1v1h-1z M46,80h1v1h-1z M48,80h1v1h-1z M52,80h1v1h-1z M53,80h1v1h-1z M54,80h1v1h-1z M55,80h1v1h-1z M56,80h1v1h-1z M58,80h1v1h-1z M59,80h1v1h-1z M63,80h1v1h-1z M64,80h1v1h-1z M66,80h1v1h-1z M67,80h1v1h-1z M70,80h1v1h-1z M71,80h1v1h-1z M72,80h1v1h-1z M75,80h1v1h-1z M76,80h1v1h-1z M77,80h1v1h-1z M78,80h1v1h-1z M79,80h1v1h-1z M80,80h1v1h-1z M82,80h1v1h-1z M83,80h1v1h-1z M84,80h1v1h-1z M85,80h1v1h-1z M88,80h1v1h-1z M89,80h1v1h-1z M91,80h1v1h-1z M92,80h1v1h-1z M95,80h1v1h-1z M96,80h1v1h-1z M97,80h1v1h-1z M99,80h1v1h-1z M100,80h1v1h-1z M101,80h1v1h-1z M102,80h1v1h-1z M103,80h1v1h-1z M104,80h1v1h-1z M4,81h1v1h-1z M6,81h1v1h-1z M7,81h1v1h-1z M8,81h1v1h-1z M11,81h1v1h-1z M14,81h1v1h-1z M16,81h1v1h-1z M17,81h1v1h-1z M18,81h1v1h-1z M19,81h1v1h-1z M20,81h1v1h-1z M22,81h1v1h-1z M25,81h1v1h-1z M26,81h1v1h-1z M28,81h1v1h-1z M29,81h1v1h-1z M37,81h1v1h-1z M38,81h1v1h-1z M40,81h1v1h-1z M42,81h1v1h-1z M43,81h1v1h-1z M45,81h1v1h-1z M46,81h1v1h-1z M49,81h1v1h-1z M52,81h1v1h-1z M55,81h1v1h-1z M56,81h1v1h-1z M59,81h1v1h-1z M63,81h1v1h-1z M64,81h1v1h-1z M66,81h1v1h-1z M67,81h1v1h-1z M69,81h1v1h-1z M70,81h1v1h-1z M73,81h1v1h-1z M74,81h1v1h-1z M76,81h1v1h-1z M77,81h1v1h-1z M81,81h1v1h-1z M82,81h1v1h-1z M83,81h1v1h-1z M86,81h1v1h-1z M87,81h1v1h-1z M88,81h1v1h-1z M89,81h1v1h-1z M90,81h1v1h-1z M92,81h1v1h-1z M95,81h1v1h-1z M97,81h1v1h-1z M98,81h1v1h-1z M103,81h1v1h-1z M105,81h1v1h-1z M108,81h1v1h-1z M4,82h1v1h-1z M5,82h1v1h-1z M6,82h1v1h-1z M7,82h1v1h-1z M8,82h1v1h-1z M10,82h1v1h-1z M12,82h1v1h-1z M14,82h1v1h-1z M15,82h1v1h-1z M17,82h1v1h-1z M18,82h1v1h-1z M19,82h1v1h-1z M21,82h1v1h-1z M23,82h1v1h-1z M24,82h1v1h-1z M25,82h1v1h-1z M27,82h1v1h-1z M28,82h1v1h-1z M29,82h1v1h-1z M32,82h1v1h-1z M33,82h1v1h-1z M34,82h1v1h-1z M35,82h1v1h-1z M38,82h1v1h-1z M40,82h1v1h-1z M42,82h1v1h-1z M43,82h1v1h-1z M46,82h1v1h-1z M50,82h1v1h-1z M55,82h1v1h-1z M56,82h1v1h-1z M58,82h1v1h-1z M60,82h1v1h-1z M61,82h1v1h-1z M62,82h1v1h-1z M66,82h1v1h-1z M67,82h1v1h-1z M70,82h1v1h-1z M74,82h1v1h-1z M75,82h1v1h-1z M77,82h1v1h-1z M80,82h1v1h-1z M82,82h1v1h-1z M83,82h1v1h-1z M86,82h1v1h-1z M87,82h1v1h-1z M90,82h1v1h-1z M91,82h1v1h-1z M92,82h1v1h-1z M93,82h1v1h-1z M94,82h1v1h-1z M95,82h1v1h-1z M98,82h1v1h-1z M99,82h1v1h-1z M101,82h1v1h-1z M102,82h1v1h-1z M105,82h1v1h-1z M108,82h1v1h-1z M4,83h1v1h-1z M7,83h1v1h-1z M11,83h1v1h-1z M12,83h1v1h-1z M15,83h1v1h-1z M18,83h1v1h-1z M19,83h1v1h-1z M21,83h1v1h-1z M23,83h1v1h-1z M24,83h1v1h-1z M25,83h1v1h-1z M27,83h1v1h-1z M30,83h1v1h-1z M31,83h1v1h-1z M32,83h1v1h-1z M33,83h1v1h-1z M37,83h1v1h-1z M39,83h1v1h-1z M40,83h1v1h-1z M43,83h1v1h-1z M45,83h1v1h-1z M47,83h1v1h-1z M52,83h1v1h-1z M53,83h1v1h-1z M56,83h1v1h-1z M57,83h1v1h-1z M58,83h1v1h-1z M59,83h1v1h-1z M61,83h1v1h-1z M62,83h1v1h-1z M63,83h1v1h-1z M64,83h1v1h-1z M67,83h1v1h-1z M70,83h1v1h-1z M71,83h1v1h-1z M74,83h1v1h-1z M79,83h1v1h-1z M81,83h1v1h-1z M83,83h1v1h-1z M86,83h1v1h-1z M87,83h1v1h-1z M88,83h1v1h-1z M89,83h1v1h-1z M90,83h1v1h-1z M91,83h1v1h-1z M93,83h1v1h-1z M97,83h1v1h-1z M101,83h1v1h-1z M102,83h1v1h-1z M104,83h1v1h-1z M105,83h1v1h-1z M106,83h1v1h-1z M107,83h1v1h-1z M108,83h1v1h-1z M5,84h1v1h-1z M6,84h1v1h-1z M7,84h1v1h-1z M8,84h1v1h-1z M10,84h1v1h-1z M11,84h1v1h-1z M12,84h1v1h-1z M13,84h1v1h-1z M14,84h1v1h-1z M15,84h1v1h-1z M16,84h1v1h-1z M18,84h1v1h-1z M20,84h1v1h-1z M23,84h1v1h-1z M24,84h1v1h-1z M27,84h1v1h-1z M28,84h1v1h-1z M29,84h1v1h-1z M30,84h1v1h-1z M31,84h1v1h-1z M32,84h1v1h-1z M33,84h1v1h-1z M35,84h1v1h-1z M37,84h1v1h-1z M38,84h1v1h-1z M39,84h1v1h-1z M43,84h1v1h-1z M46,84h1v1h-1z M48,84h1v1h-1z M49,84h1v1h-1z M51,84h1v1h-1z M54,84h1v1h-1z M57,84h1v1h-1z M60,84h1v1h-1z M61,84h1v1h-1z M63,84h1v1h-1z M65,84h1v1h-1z M67,84h1v1h-1z M71,84h1v1h-1z M73,84h1v1h-1z M75,84h1v1h-1z M76,84h1v1h-1z M77,84h1v1h-1z M78,84h1v1h-1z M81,84h1v1h-1z M83,84h1v1h-1z M84,84h1v1h-1z M89,84h1v1h-1z M90,84h1v1h-1z M93,84h1v1h-1z M94,84h1v1h-1z M97,84h1v1h-1z M101,84h1v1h-1z M102,84h1v1h-1z M104,84h1v1h-1z M107,84h1v1h-1z M5,85h1v1h-1z M11,85h1v1h-1z M13,85h1v1h-1z M20,85h1v1h-1z M21,85h1v1h-1z M23,85h1v1h-1z M25,85h1v1h-1z M28,85h1v1h-1z M29,85h1v1h-1z M30,85h1v1h-1z M31,85h1v1h-1z M34,85h1v1h-1z M35,85h1v1h-1z M36,85h1v1h-1z M42,85h1v1h-1z M43,85h1v1h-1z M45,85h1v1h-1z M46,85h1v1h-1z M47,85h1v1h-1z M48,85h1v1h-1z M49,85h1v1h-1z M50,85h1v1h-1z M54,85h1v1h-1z M55,85h1v1h-1z M57,85h1v1h-1z M58,85h1v1h-1z M60,85h1v1h-1z M61,85h1v1h-1z M62,85h1v1h-1z M63,85h1v1h-1z M69,85h1v1h-1z M70,85h1v1h-1z M73,85h1v1h-1z M74,85h1v1h-1z M77,85h1v1h-1z M78,85h1v1h-1z M79,85h1v1h-1z M80,85h1v1h-1z M81,85h1v1h-1z M83,85h1v1h-1z M84,85h1v1h-1z M86,85h1v1h-1z M88,85h1v1h-1z M89,85h1v1h-1z M92,85h1v1h-1z M93,85h1v1h-1z M94,85h1v1h-1z M95,85h1v1h-1z M96,85h1v1h-1z M97,85h1v1h-1z M98,85h1v1h-1z M102,85h1v1h-1z M103,85h1v1h-1z M104,85h1v1h-1z M105,85h1v1h-1z M108,85h1v1h-1z M4,86h1v1h-1z M5,86h1v1h-1z M6,86h1v1h-1z M10,86h1v1h-1z M11,86h1v1h-1z M14,86h1v1h-1z M18,86h1v1h-1z M20,86h1v1h-1z M22,86h1v1h-1z M25,86h1v1h-1z M26,86h1v1h-1z M27,86h1v1h-1z M28,86h1v1h-1z M33,86h1v1h-1z M34,86h1v1h-1z M36,86h1v1h-1z M39,86h1v1h-1z M40,86h1v1h-1z M41,86h1v1h-1z M43,86h1v1h-1z M44,86h1v1h-1z M45,86h1v1h-1z M46,86h1v1h-1z M48,86h1v1h-1z M52,86h1v1h-1z M53,86h1v1h-1z M54,86h1v1h-1z M58,86h1v1h-1z M59,86h1v1h-1z M63,86h1v1h-1z M69,86h1v1h-1z M70,86h1v1h-1z M76,86h1v1h-1z M77,86h1v1h-1z M81,86h1v1h-1z M82,86h1v1h-1z M84,86h1v1h-1z M85,86h1v1h-1z M88,86h1v1h-1z M92,86h1v1h-1z M93,86h1v1h-1z M94,86h1v1h-1z M100,86h1v1h-1z M101,86h1v1h-1z M103,86h1v1h-1z M104,86h1v1h-1z M105,86h1v1h-1z M107,86h1v1h-1z M4,87h1v1h-1z M6,87h1v1h-1z M8,87h1v1h-1z M9,87h1v1h-1z M11,87h1v1h-1z M12,87h1v1h-1z M14,87h1v1h-1z M15,87h1v1h-1z M16,87h1v1h-1z M18,87h1v1h-1z M20,87h1v1h-1z M21,87h1v1h-1z M23,87h1v1h-1z M26,87h1v1h-1z M27,87h1v1h-1z M29,87h1v1h-1z M34,87h1v1h-1z M35,87h1v1h-1z M38,87h1v1h-1z M39,87h1v1h-1z M40,87h1v1h-1z M42,87h1v1h-1z M43,87h1v1h-1z M45,87h1v1h-1z M46,87h1v1h-1z M47,87h1v1h-1z M52,87h1v1h-1z M55,87h1v1h-1z M56,87h1v1h-1z M57,87h1v1h-1z M59,87h1v1h-1z M61,87h1v1h-1z M62,87h1v1h-1z M63,87h1v1h-1z M64,87h1v1h-1z M65,87h1v1h-1z M66,87h1v1h-1z M67,87h1v1h-1z M70,87h1v1h-1z M71,87h1v1h-1z M80,87h1v1h-1z M81,87h1v1h-1z M82,87h1v1h-1z M83,87h1v1h-1z M85,87h1v1h-1z M86,87h1v1h-1z M87,87h1v1h-1z M88,87h1v1h-1z M90,87h1v1h-1z M93,87h1v1h-1z M95,87h1v1h-1z M97,87h1v1h-1z M101,87h1v1h-1z M102,87h1v1h-1z M105,87h1v1h-1z M106,87h1v1h-1z M107,87h1v1h-1z M108,87h1v1h-1z M5,88h1v1h-1z M8,88h1v1h-1z M10,88h1v1h-1z M12,88h1v1h-1z M13,88h1v1h-1z M18,88h1v1h-1z M21,88h1v1h-1z M28,88h1v1h-1z M32,88h1v1h-1z M36,88h1v1h-1z M37,88h1v1h-1z M40,88h1v1h-1z M41,88h1v1h-1z M44,88h1v1h-1z M48,88h1v1h-1z M49,88h1v1h-1z M50,88h1v1h-1z M51,88h1v1h-1z M55,88h1v1h-1z M56,88h1v1h-1z M57,88h1v1h-1z M59,88h1v1h-1z M60,88h1v1h-1z M61,88h1v1h-1z M62,88h1v1h-1z M63,88h1v1h-1z M65,88h1v1h-1z M66,88h1v1h-1z M67,88h1v1h-1z M68,88h1v1h-1z M70,88h1v1h-1z M71,88h1v1h-1z M74,88h1v1h-1z M76,88h1v1h-1z M78,88h1v1h-1z M79,88h1v1h-1z M80,88h1v1h-1z M82,88h1v1h-1z M83,88h1v1h-1z M85,88h1v1h-1z M86,88h1v1h-1z M87,88h1v1h-1z M88,88h1v1h-1z M89,88h1v1h-1z M91,88h1v1h-1z M92,88h1v1h-1z M94,88h1v1h-1z M95,88h1v1h-1z M96,88h1v1h-1z M97,88h1v1h-1z M99,88h1v1h-1z M102,88h1v1h-1z M107,88h1v1h-1z M108,88h1v1h-1z M5,89h1v1h-1z M6,89h1v1h-1z M7,89h1v1h-1z M9,89h1v1h-1z M11,89h1v1h-1z M12,89h1v1h-1z M14,89h1v1h-1z M16,89h1v1h-1z M19,89h1v1h-1z M22,89h1v1h-1z M23,89h1v1h-1z M25,89h1v1h-1z M26,89h1v1h-1z M29,89h1v1h-1z M31,89h1v1h-1z M32,89h1v1h-1z M34,89h1v1h-1z M38,89h1v1h-1z M39,89h1v1h-1z M44,89h1v1h-1z M46,89h1v1h-1z M48,89h1v1h-1z M50,89h1v1h-1z M55,89h1v1h-1z M58,89h1v1h-1z M59,89h1v1h-1z M62,89h1v1h-1z M64,89h1v1h-1z M65,89h1v1h-1z M66,89h1v1h-1z M73,89h1v1h-1z M76,89h1v1h-1z M77,89h1v1h-1z M80,89h1v1h-1z M84,89h1v1h-1z M85,89h1v1h-1z M86,89h1v1h-1z M87,89h1v1h-1z M88,89h1v1h-1z M89,89h1v1h-1z M91,89h1v1h-1z M92,89h1v1h-1z M93,89h1v1h-1z M94,89h1v1h-1z M95,89h1v1h-1z M96,89h1v1h-1z M97,89h1v1h-1z M100,89h1v1h-1z M101,89h1v1h-1z M102,89h1v1h-1z M103,89h1v1h-1z M105,89h1v1h-1z M106,89h1v1h-1z M107,89h1v1h-1z M4,90h1v1h-1z M5,90h1v1h-1z M10,90h1v1h-1z M11,90h1v1h-1z M12,90h1v1h-1z M13,90h1v1h-1z M14,90h1v1h-1z M17,90h1v1h-1z M18,90h1v1h-1z M19,90h1v1h-1z M21,90h1v1h-1z M22,90h1v1h-1z M23,90h1v1h-1z M26,90h1v1h-1z M27,90h1v1h-1z M28,90h1v1h-1z M29,90h1v1h-1z M33,90h1v1h-1z M34,90h1v1h-1z M36,90h1v1h-1z M37,90h1v1h-1z M40,90h1v1h-1z M41,90h1v1h-1z M43,90h1v1h-1z M45,90h1v1h-1z M46,90h1v1h-1z M47,90h1v1h-1z M51,90h1v1h-1z M53,90h1v1h-1z M54,90h1v1h-1z M58,90h1v1h-1z M59,90h1v1h-1z M60,90h1v1h-1z M63,90h1v1h-1z M65,90h1v1h-1z M68,90h1v1h-1z M69,90h1v1h-1z M70,90h1v1h-1z M71,90h1v1h-1z M72,90h1v1h-1z M75,90h1v1h-1z M77,90h1v1h-1z M78,90h1v1h-1z M81,90h1v1h-1z M82,90h1v1h-1z M83,90h1v1h-1z M84,90h1v1h-1z M89,90h1v1h-1z M92,90h1v1h-1z M93,90h1v1h-1z M94,90h1v1h-1z M95,90h1v1h-1z M96,90h1v1h-1z M101,90h1v1h-1z M103,90h1v1h-1z M105,90h1v1h-1z M106,90h1v1h-1z M107,90h1v1h-1z M5,91h1v1h-1z M6,91h1v1h-1z M8,91h1v1h-1z M9,91h1v1h-1z M14,91h1v1h-1z M15,91h1v1h-1z M16,91h1v1h-1z M18,91h1v1h-1z M20,91h1v1h-1z M25,91h1v1h-1z M27,91h1v1h-1z M32,91h1v1h-1z M33,91h1v1h-1z M35,91h1v1h-1z M36,91h1v1h-1z M39,91h1v1h-1z M40,91h1v1h-1z M42,91h1v1h-1z M43,91h1v1h-1z M44,91h1v1h-1z M45,91h1v1h-1z M46,91h1v1h-1z M47,91h1v1h-1z M48,91h1v1h-1z M55,91h1v1h-1z M57,91h1v1h-1z M59,91h1v1h-1z M60,91h1v1h-1z M61,91h1v1h-1z M63,91h1v1h-1z M64,91h1v1h-1z M68,91h1v1h-1z M70,91h1v1h-1z M72,91h1v1h-1z M74,91h1v1h-1z M77,91h1v1h-1z M78,91h1v1h-1z M82,91h1v1h-1z M84,91h1v1h-1z M86,91h1v1h-1z M87,91h1v1h-1z M88,91h1v1h-1z M89,91h1v1h-1z M92,91h1v1h-1z M94,91h1v1h-1z M96,91h1v1h-1z M97,91h1v1h-1z M98,91h1v1h-1z M99,91h1v1h-1z M100,91h1v1h-1z M101,91h1v1h-1z M103,91h1v1h-1z M104,91h1v1h-1z M105,91h1v1h-1z M106,91h1v1h-1z M108,91h1v1h-1z M6,92h1v1h-1z M9,92h1v1h-1z M10,92h1v1h-1z M13,92h1v1h-1z M14,92h1v1h-1z M16,92h1v1h-1z M17,92h1v1h-1z M22,92h1v1h-1z M23,92h1v1h-1z M27,92h1v1h-1z M30,92h1v1h-1z M33,92h1v1h-1z M34,92h1v1h-1z M35,92h1v1h-1z M36,92h1v1h-1z M37,92h1v1h-1z M38,92h1v1h-1z M39,92h1v1h-1z M43,92h1v1h-1z M48,92h1v1h-1z M49,92h1v1h-1z M50,92h1v1h-1z M51,92h1v1h-1z M54,92h1v1h-1z M57,92h1v1h-1z M60,92h1v1h-1z M61,92h1v1h-1z M62,92h1v1h-1z M63,92h1v1h-1z M64,92h1v1h-1z M65,92h1v1h-1z M66,92h1v1h-1z M68,92h1v1h-1z M69,92h1v1h-1z M70,92h1v1h-1z M71,92h1v1h-1z M72,92h1v1h-1z M73,92h1v1h-1z M77,92h1v1h-1z M82,92h1v1h-1z M85,92h1v1h-1z M88,92h1v1h-1z M89,92h1v1h-1z M92,92h1v1h-1z M94,92h1v1h-1z M96,92h1v1h-1z M101,92h1v1h-1z M103,92h1v1h-1z M104,92h1v1h-1z M106,92h1v1h-1z M108,92h1v1h-1z M4,93h1v1h-1z M6,93h1v1h-1z M8,93h1v1h-1z M12,93h1v1h-1z M13,93h1v1h-1z M15,93h1v1h-1z M16,93h1v1h-1z M17,93h1v1h-1z M18,93h1v1h-1z M21,93h1v1h-1z M22,93h1v1h-1z M25,93h1v1h-1z M28,93h1v1h-1z M31,93h1v1h-1z M33,93h1v1h-1z M34,93h1v1h-1z M36,93h1v1h-1z M37,93h1v1h-1z M38,93h1v1h-1z M39,93h1v1h-1z M42,93h1v1h-1z M44,93h1v1h-1z M46,93h1v1h-1z M52,93h1v1h-1z M53,93h1v1h-1z M55,93h1v1h-1z M56,93h1v1h-1z M57,93h1v1h-1z M58,93h1v1h-1z M61,93h1v1h-1z M63,93h1v1h-1z M64,93h1v1h-1z M68,93h1v1h-1z M69,93h1v1h-1z M71,93h1v1h-1z M74,93h1v1h-1z M76,93h1v1h-1z M77,93h1v1h-1z M80,93h1v1h-1z M81,93h1v1h-1z M82,93h1v1h-1z M83,93h1v1h-1z M85,93h1v1h-1z M86,93h1v1h-1z M87,93h1v1h-1z M88,93h1v1h-1z M91,93h1v1h-1z M93,93h1v1h-1z M97,93h1v1h-1z M98,93h1v1h-1z M103,93h1v1h-1z M105,93h1v1h-1z M106,93h1v1h-1z M4,94h1v1h-1z M5,94h1v1h-1z M6,94h1v1h-1z M7,94h1v1h-1z M8,94h1v1h-1z M10,94h1v1h-1z M11,94h1v1h-1z M13,94h1v1h-1z M19,94h1v1h-1z M20,94h1v1h-1z M22,94h1v1h-1z M25,94h1v1h-1z M26,94h1v1h-1z M27,94h1v1h-1z M32,94h1v1h-1z M33,94h1v1h-1z M34,94h1v1h-1z M35,94h1v1h-1z M36,94h1v1h-1z M38,94h1v1h-1z M42,94h1v1h-1z M46,94h1v1h-1z M47,94h1v1h-1z M50,94h1v1h-1z M51,94h1v1h-1z M52,94h1v1h-1z M54,94h1v1h-1z M55,94h1v1h-1z M56,94h1v1h-1z M58,94h1v1h-1z M59,94h1v1h-1z M62,94h1v1h-1z M63,94h1v1h-1z M64,94h1v1h-1z M66,94h1v1h-1z M70,94h1v1h-1z M71,94h1v1h-1z M73,94h1v1h-1z M74,94h1v1h-1z M75,94h1v1h-1z M80,94h1v1h-1z M82,94h1v1h-1z M83,94h1v1h-1z M86,94h1v1h-1z M88,94h1v1h-1z M90,94h1v1h-1z M91,94h1v1h-1z M92,94h1v1h-1z M94,94h1v1h-1z M96,94h1v1h-1z M98,94h1v1h-1z M99,94h1v1h-1z M100,94h1v1h-1z M102,94h1v1h-1z M106,94h1v1h-1z M108,94h1v1h-1z M5,95h1v1h-1z M8,95h1v1h-1z M9,95h1v1h-1z M11,95h1v1h-1z M12,95h1v1h-1z M15,95h1v1h-1z M18,95h1v1h-1z M19,95h1v1h-1z M20,95h1v1h-1z M22,95h1v1h-1z M23,95h1v1h-1z M24,95h1v1h-1z M27,95h1v1h-1z M29,95h1v1h-1z M30,95h1v1h-1z M35,95h1v1h-1z M40,95h1v1h-1z M43,95h1v1h-1z M47,95h1v1h-1z M51,95h1v1h-1z M54,95h1v1h-1z M55,95h1v1h-1z M57,95h1v1h-1z M58,95h1v1h-1z M59,95h1v1h-1z M63,95h1v1h-1z M64,95h1v1h-1z M65,95h1v1h-1z M66,95h1v1h-1z M67,95h1v1h-1z M69,95h1v1h-1z M71,95h1v1h-1z M73,95h1v1h-1z M74,95h1v1h-1z M75,95h1v1h-1z M76,95h1v1h-1z M78,95h1v1h-1z M80,95h1v1h-1z M83,95h1v1h-1z M86,95h1v1h-1z M87,95h1v1h-1z M88,95h1v1h-1z M90,95h1v1h-1z M91,95h1v1h-1z M95,95h1v1h-1z M98,95h1v1h-1z M105,95h1v1h-1z M106,95h1v1h-1z M107,95h1v1h-1z M4,96h1v1h-1z M7,96h1v1h-1z M10,96h1v1h-1z M12,96h1v1h-1z M13,96h1v1h-1z M16,96h1v1h-1z M19,96h1v1h-1z M23,96h1v1h-1z M24,96h1v1h-1z M25,96h1v1h-1z M27,96h1v1h-1z M28,96h1v1h-1z M29,96h1v1h-1z M31,96h1v1h-1z M32,96h1v1h-1z M33,96h1v1h-1z M34,96h1v1h-1z M35,96h1v1h-1z M39,96h1v1h-1z M41,96h1v1h-1z M42,96h1v1h-1z M43,96h1v1h-1z M44,96h1v1h-1z M47,96h1v1h-1z M58,96h1v1h-1z M59,96h1v1h-1z M61,96h1v1h-1z M62,96h1v1h-1z M64,96h1v1h-1z M65,96h1v1h-1z M66,96h1v1h-1z M69,96h1v1h-1z M70,96h1v1h-1z M73,96h1v1h-1z M75,96h1v1h-1z M78,96h1v1h-1z M79,96h1v1h-1z M81,96h1v1h-1z M84,96h1v1h-1z M85,96h1v1h-1z M87,96h1v1h-1z M90,96h1v1h-1z M92,96h1v1h-1z M94,96h1v1h-1z M102,96h1v1h-1z M103,96h1v1h-1z M104,96h1v1h-1z M4,97h1v1h-1z M6,97h1v1h-1z M8,97h1v1h-1z M9,97h1v1h-1z M11,97h1v1h-1z M14,97h1v1h-1z M15,97h1v1h-1z M16,97h1v1h-1z M17,97h1v1h-1z M21,97h1v1h-1z M22,97h1v1h-1z M24,97h1v1h-1z M25,97h1v1h-1z M26,97h1v1h-1z M28,97h1v1h-1z M30,97h1v1h-1z M31,97h1v1h-1z M32,97h1v1h-1z M36,97h1v1h-1z M38,97h1v1h-1z M42,97h1v1h-1z M43,97h1v1h-1z M44,97h1v1h-1z M46,97h1v1h-1z M52,97h1v1h-1z M53,97h1v1h-1z M54,97h1v1h-1z M55,97h1v1h-1z M57,97h1v1h-1z M59,97h1v1h-1z M60,97h1v1h-1z M63,97h1v1h-1z M64,97h1v1h-1z M65,97h1v1h-1z M66,97h1v1h-1z M67,97h1v1h-1z M68,97h1v1h-1z M69,97h1v1h-1z M74,97h1v1h-1z M77,97h1v1h-1z M78,97h1v1h-1z M81,97h1v1h-1z M82,97h1v1h-1z M84,97h1v1h-1z M85,97h1v1h-1z M86,97h1v1h-1z M87,97h1v1h-1z M90,97h1v1h-1z M92,97h1v1h-1z M93,97h1v1h-1z M94,97h1v1h-1z M96,97h1v1h-1z M98,97h1v1h-1z M100,97h1v1h-1z M102,97h1v1h-1z M104,97h1v1h-1z M108,97h1v1h-1z M4,98h1v1h-1z M5,98h1v1h-1z M6,98h1v1h-1z M10,98h1v1h-1z M16,98h1v1h-1z M17,98h1v1h-1z M19,98h1v1h-1z M20,98h1v1h-1z M21,98h1v1h-1z M24,98h1v1h-1z M25,98h1v1h-1z M27,98h1v1h-1z M28,98h1v1h-1z M29,98h1v1h-1z M30,98h1v1h-1z M33,98h1v1h-1z M34,98h1v1h-1z M40,98h1v1h-1z M44,98h1v1h-1z M45,98h1v1h-1z M46,98h1v1h-1z M52,98h1v1h-1z M57,98h1v1h-1z M58,98h1v1h-1z M59,98h1v1h-1z M60,98h1v1h-1z M65,98h1v1h-1z M68,98h1v1h-1z M69,98h1v1h-1z M70,98h1v1h-1z M73,98h1v1h-1z M76,98h1v1h-1z M81,98h1v1h-1z M82,98h1v1h-1z M83,98h1v1h-1z M84,98h1v1h-1z M87,98h1v1h-1z M88,98h1v1h-1z M89,98h1v1h-1z M92,98h1v1h-1z M93,98h1v1h-1z M94,98h1v1h-1z M96,98h1v1h-1z M99,98h1v1h-1z M104,98h1v1h-1z M105,98h1v1h-1z M106,98h1v1h-1z M107,98h1v1h-1z M6,99h1v1h-1z M8,99h1v1h-1z M9,99h1v1h-1z M12,99h1v1h-1z M13,99h1v1h-1z M14,99h1v1h-1z M17,99h1v1h-1z M18,99h1v1h-1z M19,99h1v1h-1z M21,99h1v1h-1z M22,99h1v1h-1z M25,99h1v1h-1z M28,99h1v1h-1z M29,99h1v1h-1z M32,99h1v1h-1z M33,99h1v1h-1z M35,99h1v1h-1z M37,99h1v1h-1z M39,99h1v1h-1z M40,99h1v1h-1z M42,99h1v1h-1z M43,99h1v1h-1z M46,99h1v1h-1z M47,99h1v1h-1z M50,99h1v1h-1z M52,99h1v1h-1z M54,99h1v1h-1z M56,99h1v1h-1z M57,99h1v1h-1z M58,99h1v1h-1z M59,99h1v1h-1z M61,99h1v1h-1z M62,99h1v1h-1z M63,99h1v1h-1z M64,99h1v1h-1z M66,99h1v1h-1z M67,99h1v1h-1z M70,99h1v1h-1z M71,99h1v1h-1z M73,99h1v1h-1z M74,99h1v1h-1z M76,99h1v1h-1z M82,99h1v1h-1z M83,99h1v1h-1z M85,99h1v1h-1z M87,99h1v1h-1z M88,99h1v1h-1z M94,99h1v1h-1z M95,99h1v1h-1z M99,99h1v1h-1z M100,99h1v1h-1z M101,99h1v1h-1z M102,99h1v1h-1z M104,99h1v1h-1z M105,99h1v1h-1z M106,99h1v1h-1z M108,99h1v1h-1z M7,100h1v1h-1z M8,100h1v1h-1z M10,100h1v1h-1z M16,100h1v1h-1z M18,100h1v1h-1z M20,100h1v1h-1z M22,100h1v1h-1z M24,100h1v1h-1z M27,100h1v1h-1z M28,100h1v1h-1z M29,100h1v1h-1z M30,100h1v1h-1z M31,100h1v1h-1z M32,100h1v1h-1z M34,100h1v1h-1z M37,100h1v1h-1z M38,100h1v1h-1z M40,100h1v1h-1z M42,100h1v1h-1z M43,100h1v1h-1z M44,100h1v1h-1z M45,100h1v1h-1z M46,100h1v1h-1z M48,100h1v1h-1z M51,100h1v1h-1z M52,100h1v1h-1z M53,100h1v1h-1z M54,100h1v1h-1z M55,100h1v1h-1z M56,100h1v1h-1z M57,100h1v1h-1z M58,100h1v1h-1z M59,100h1v1h-1z M60,100h1v1h-1z M61,100h1v1h-1z M62,100h1v1h-1z M64,100h1v1h-1z M66,100h1v1h-1z M67,100h1v1h-1z M70,100h1v1h-1z M71,100h1v1h-1z M73,100h1v1h-1z M75,100h1v1h-1z M76,100h1v1h-1z M77,100h1v1h-1z M78,100h1v1h-1z M79,100h1v1h-1z M80,100h1v1h-1z M81,100h1v1h-1z M82,100h1v1h-1z M83,100h1v1h-1z M85,100h1v1h-1z M86,100h1v1h-1z M87,100h1v1h-1z M89,100h1v1h-1z M91,100h1v1h-1z M92,100h1v1h-1z M93,100h1v1h-1z M94,100h1v1h-1z M95,100h1v1h-1z M96,100h1v1h-1z M98,100h1v1h-1z M99,100h1v1h-1z M100,100h1v1h-1z M101,100h1v1h-1z M102,100h1v1h-1z M103,100h1v1h-1z M104,100h1v1h-1z M106,100h1v1h-1z M107,100h1v1h-1z M12,101h1v1h-1z M16,101h1v1h-1z M20,101h1v1h-1z M21,101h1v1h-1z M24,101h1v1h-1z M25,101h1v1h-1z M26,101h1v1h-1z M27,101h1v1h-1z M28,101h1v1h-1z M32,101h1v1h-1z M34,101h1v1h-1z M38,101h1v1h-1z M39,101h1v1h-1z M42,101h1v1h-1z M44,101h1v1h-1z M48,101h1v1h-1z M49,101h1v1h-1z M51,101h1v1h-1z M52,101h1v1h-1z M56,101h1v1h-1z M58,101h1v1h-1z M62,101h1v1h-1z M63,101h1v1h-1z M68,101h1v1h-1z M70,101h1v1h-1z M72,101h1v1h-1z M73,101h1v1h-1z M75,101h1v1h-1z M76,101h1v1h-1z M80,101h1v1h-1z M81,101h1v1h-1z M84,101h1v1h-1z M85,101h1v1h-1z M86,101h1v1h-1z M100,101h1v1h-1z M104,101h1v1h-1z M106,101h1v1h-1z M4,102h1v1h-1z M5,102h1v1h-1z M6,102h1v1h-1z M7,102h1v1h-1z M8,102h1v1h-1z M9,102h1v1h-1z M10,102h1v1h-1z M12,102h1v1h-1z M13,102h1v1h-1z M16,102h1v1h-1z M17,102h1v1h-1z M20,102h1v1h-1z M21,102h1v1h-1z M24,102h1v1h-1z M25,102h1v1h-1z M28,102h1v1h-1z M30,102h1v1h-1z M32,102h1v1h-1z M33,102h1v1h-1z M34,102h1v1h-1z M40,102h1v1h-1z M43,102h1v1h-1z M46,102h1v1h-1z M47,102h1v1h-1z M48,102h1v1h-1z M52,102h1v1h-1z M54,102h1v1h-1z M56,102h1v1h-1z M57,102h1v1h-1z M58,102h1v1h-1z M64,102h1v1h-1z M65,102h1v1h-1z M69,102h1v1h-1z M70,102h1v1h-1z M71,102h1v1h-1z M72,102h1v1h-1z M76,102h1v1h-1z M78,102h1v1h-1z M80,102h1v1h-1z M81,102h1v1h-1z M82,102h1v1h-1z M87,102h1v1h-1z M89,102h1v1h-1z M91,102h1v1h-1z M92,102h1v1h-1z M93,102h1v1h-1z M94,102h1v1h-1z M96,102h1v1h-1z M100,102h1v1h-1z M102,102h1v1h-1z M104,102h1v1h-1z M105,102h1v1h-1z M107,102h1v1h-1z M4,103h1v1h-1z M10,103h1v1h-1z M12,103h1v1h-1z M14,103h1v1h-1z M16,103h1v1h-1z M18,103h1v1h-1z M19,103h1v1h-1z M24,103h1v1h-1z M27,103h1v1h-1z M28,103h1v1h-1z M32,103h1v1h-1z M35,103h1v1h-1z M36,103h1v1h-1z M38,103h1v1h-1z M39,103h1v1h-1z M40,103h1v1h-1z M41,103h1v1h-1z M43,103h1v1h-1z M44,103h1v1h-1z M45,103h1v1h-1z M48,103h1v1h-1z M51,103h1v1h-1z M52,103h1v1h-1z M56,103h1v1h-1z M59,103h1v1h-1z M60,103h1v1h-1z M61,103h1v1h-1z M62,103h1v1h-1z M63,103h1v1h-1z M64,103h1v1h-1z M65,103h1v1h-1z M66,103h1v1h-1z M67,103h1v1h-1z M68,103h1v1h-1z M69,103h1v1h-1z M70,103h1v1h-1z M72,103h1v1h-1z M73,103h1v1h-1z M74,103h1v1h-1z M76,103h1v1h-1z M80,103h1v1h-1z M81,103h1v1h-1z M82,103h1v1h-1z M83,103h1v1h-1z M84,103h1v1h-1z M85,103h1v1h-1z M88,103h1v1h-1z M89,103h1v1h-1z M91,103h1v1h-1z M92,103h1v1h-1z M94,103h1v1h-1z M96,103h1v1h-1z M97,103h1v1h-1z M100,103h1v1h-1z M104,103h1v1h-1z M105,103h1v1h-1z M106,103h1v1h-1z M108,103h1v1h-1z M4,104h1v1h-1z M6,104h1v1h-1z M7,104h1v1h-1z M8,104h1v1h-1z M10,104h1v1h-1z M13,104h1v1h-1z M14,104h1v1h-1z M15,104h1v1h-1z M18,104h1v1h-1z M20,104h1v1h-1z M22,104h1v1h-1z M24,104h1v1h-1z M25,104h1v1h-1z M28,104h1v1h-1z M29,104h1v1h-1z M30,104h1v1h-1z M31,104h1v1h-1z M32,104h1v1h-1z M33,104h1v1h-1z M36,104h1v1h-1z M40,104h1v1h-1z M42,104h1v1h-1z M43,104h1v1h-1z M44,104h1v1h-1z M47,104h1v1h-1z M52,104h1v1h-1z M53,104h1v1h-1z M54,104h1v1h-1z M55,104h1v1h-1z M56,104h1v1h-1z M57,104h1v1h-1z M60,104h1v1h-1z M64,104h1v1h-1z M65,104h1v1h-1z M66,104h1v1h-1z M69,104h1v1h-1z M70,104h1v1h-1z M76,104h1v1h-1z M77,104h1v1h-1z M78,104h1v1h-1z M79,104h1v1h-1z M80,104h1v1h-1z M81,104h1v1h-1z M82,104h1v1h-1z M87,104h1v1h-1z M88,104h1v1h-1z M92,104h1v1h-1z M93,104h1v1h-1z M94,104h1v1h-1z M96,104h1v1h-1z M97,104h1v1h-1z M98,104h1v1h-1z M100,104h1v1h-1z M101,104h1v1h-1z M102,104h1v1h-1z M103,104h1v1h-1z M104,104h1v1h-1z M108,104h1v1h-1z M4,105h1v1h-1z M6,105h1v1h-1z M7,105h1v1h-1z M8,105h1v1h-1z M10,105h1v1h-1z M13,105h1v1h-1z M16,105h1v1h-1z M18,105h1v1h-1z M22,105h1v1h-1z M26,105h1v1h-1z M27,105h1v1h-1z M30,105h1v1h-1z M35,105h1v1h-1z M36,105h1v1h-1z M37,105h1v1h-1z M40,105h1v1h-1z M42,105h1v1h-1z M43,105h1v1h-1z M45,105h1v1h-1z M46,105h1v1h-1z M50,105h1v1h-1z M51,105h1v1h-1z M53,105h1v1h-1z M55,105h1v1h-1z M56,105h1v1h-1z M57,105h1v1h-1z M58,105h1v1h-1z M61,105h1v1h-1z M67,105h1v1h-1z M69,105h1v1h-1z M70,105h1v1h-1z M71,105h1v1h-1z M73,105h1v1h-1z M75,105h1v1h-1z M76,105h1v1h-1z M81,105h1v1h-1z M83,105h1v1h-1z M87,105h1v1h-1z M88,105h1v1h-1z M90,105h1v1h-1z M91,105h1v1h-1z M93,105h1v1h-1z M94,105h1v1h-1z M95,105h1v1h-1z M97,105h1v1h-1z M98,105h1v1h-1z M99,105h1v1h-1z M100,105h1v1h-1z M101,105h1v1h-1z M105,105h1v1h-1z M106,105h1v1h-1z M4,106h1v1h-1z M6,106h1v1h-1z M7,106h1v1h-1z M8,106h1v1h-1z M10,106h1v1h-1z M14,106h1v1h-1z M17,106h1v1h-1z M20,106h1v1h-1z M22,106h1v1h-1z M23,106h1v1h-1z M27,106h1v1h-1z M30,106h1v1h-1z M31,106h1v1h-1z M34,106h1v1h-1z M35,106h1v1h-1z M38,106h1v1h-1z M42,106h1v1h-1z M46,106h1v1h-1z M47,106h1v1h-1z M49,106h1v1h-1z M50,106h1v1h-1z M51,106h1v1h-1z M54,106h1v1h-1z M55,106h1v1h-1z M58,106h1v1h-1z M62,106h1v1h-1z M63,106h1v1h-1z M64,106h1v1h-1z M66,106h1v1h-1z M68,106h1v1h-1z M70,106h1v1h-1z M74,106h1v1h-1z M77,106h1v1h-1z M78,106h1v1h-1z M82,106h1v1h-1z M85,106h1v1h-1z M86,106h1v1h-1z M87,106h1v1h-1z M88,106h1v1h-1z M90,106h1v1h-1z M91,106h1v1h-1z M94,106h1v1h-1z M96,106h1v1h-1z M98,106h1v1h-1z M100,106h1v1h-1z M104,106h1v1h-1z M106,106h1v1h-1z M107,106h1v1h-1z M108,106h1v1h-1z M4,107h1v1h-1z M10,107h1v1h-1z M12,107h1v1h-1z M16,107h1v1h-1z M21,107h1v1h-1z M24,107h1v1h-1z M25,107h1v1h-1z M27,107h1v1h-1z M28,107h1v1h-1z M29,107h1v1h-1z M30,107h1v1h-1z M31,107h1v1h-1z M34,107h1v1h-1z M35,107h1v1h-1z M37,107h1v1h-1z M38,107h1v1h-1z M39,107h1v1h-1z M40,107h1v1h-1z M41,107h1v1h-1z M42,107h1v1h-1z M43,107h1v1h-1z M46,107h1v1h-1z M47,107h1v1h-1z M49,107h1v1h-1z M50,107h1v1h-1z M51,107h1v1h-1z M52,107h1v1h-1z M53,107h1v1h-1z M55,107h1v1h-1z M57,107h1v1h-1z M58,107h1v1h-1z M59,107h1v1h-1z M63,107h1v1h-1z M64,107h1v1h-1z M66,107h1v1h-1z M67,107h1v1h-1z M69,107h1v1h-1z M70,107h1v1h-1z M73,107h1v1h-1z M76,107h1v1h-1z M77,107h1v1h-1z M78,107h1v1h-1z M85,107h1v1h-1z M86,107h1v1h-1z M87,107h1v1h-1z M88,107h1v1h-1z M89,107h1v1h-1z M91,107h1v1h-1z M93,107h1v1h-1z M94,107h1v1h-1z M95,107h1v1h-1z M99,107h1v1h-1z M100,107h1v1h-1z M101,107h1v1h-1z M103,107h1v1h-1z M105,107h1v1h-1z M106,107h1v1h-1z M4,108h1v1h-1z M5,108h1v1h-1z M6,108h1v1h-1z M7,108h1v1h-1z M8,108h1v1h-1z M9,108h1v1h-1z M10,108h1v1h-1z M12,108h1v1h-1z M13,108h1v1h-1z M15,108h1v1h-1z M16,108h1v1h-1z M18,108h1v1h-1z M19,108h1v1h-1z M20,108h1v1h-1z M21,108h1v1h-1z M23,108h1v1h-1z M24,108h1v1h-1z M25,108h1v1h-1z M29,108h1v1h-1z M33,108h1v1h-1z M34,108h1v1h-1z M35,108h1v1h-1z M39,108h1v1h-1z M40,108h1v1h-1z M43,108h1v1h-1z M44,108h1v1h-1z M46,108h1v1h-1z M48,108h1v1h-1z M49,108h1v1h-1z M50,108h1v1h-1z M52,108h1v1h-1z M53,108h1v1h-1z M56,108h1v1h-1z M58,108h1v1h-1z M59,108h1v1h-1z M60,108h1v1h-1z M61,108h1v1h-1z M71,108h1v1h-1z M72,108h1v1h-1z M73,108h1v1h-1z M74,108h1v1h-1z M75,108h1v1h-1z M76,108h1v1h-1z M78,108h1v1h-1z M80,108h1v1h-1z M82,108h1v1h-1z M83,108h1v1h-1z M85,108h1v1h-1z M90,108h1v1h-1z M92,108h1v1h-1z M93,108h1v1h-1z M94,108h1v1h-1z M98,108h1v1h-1z M102,108h1v1h-1z M103,108h1v1h-1z M106,108h1v1h-1z M107,108h1v1h-1z" fill="#000000"/>
</svg>
