<?xml version="1.0" encoding="UTF-8"?>
<!DOCTYPE svg PUBLIC "-//W3C//DTD SVG 1.1//EN" "http://www.w3.org/Graphics/SVG/1.1/DTD/svg11.dtd">
<svg xmlns="http://www.w3.org/2000/svg" version="1.1" viewBox="0 0 113 113" stroke="none">
	<rect width="100%" height="100%" fill="#FFFFFF"/>
	<path d="M4,4h1v1h-1z M5,4h1v1h-1z M6,4h1v1h-1z M7,4h1v1h-1z M8,4h1v1h-1z M9,4h1v1h-1z M10,4h1v1h-1z M12,4h1v1h-1z M14,4h1v1h-1z M17,4h1v1h-1z M18,4h1v1h-1z M20,4h1v1h-1z M21,4h1v1h-1z M22,4h1v1h-1z M23,4h1v1h-1z M24,4h1v1h-1z M25,4h1v1h-1z M31,4h1v1h-1z M32,4h1v1h-1z M36,4h1v1h-1z M37,4h1v1h-1z M39,4h1v1h-1z M41,4h1v1h-1z M42,4h1v1h-1z M44,4h1v1h-1z M45,4h1v1h-1z M46,4h1v1h-1z M47,4h1v1h-1z M49,4h1v1h-1z M50,4h1v1h-1z M52,4h1v1h-1z M53,4h1v1h-1z M54,4h1v1h-1z M56,4h1v1h-1z M57,4h1v1h-1z M58,4h1v1h-1z M59,4h1v1h-1z M61,4h1v1h-1z M62,4h1v1h-1z M63,4h1v1h-1z M65,4h1v1h-1z M66,4h1v1h-1z M67,4h1v1h-1z M68,4h1v1h-1z M71,4h1v1h-1z M72,4h1v1h-1z M75,4h1v1h-1z M76,4h1v1h-1z M78,4h1v1h-1z M79,4h1v1h-1z M80,4h1v1h-1z M84,4h1v1h-1z M85,4h1v1h-1z M88,4h1v1h-1z M90,4h1v1h-1z M95,4h1v1h-1z M97,4h1v1h-1z M98,4h1v1h-1z M102,4h1v1h-1z M103,4h1v1h-1z M104,4h1v1h-1z M105,4h1v1h-1z M106,4h1v1h-1z M107,4h1v1h-1z M108,4h1v1h-1z M4,5h1v1h-1z M10,5h1v1h-1z M14,5h1v1h-1z M15,5h1v1h-1z M16,5h1v1h-1z M22,5h1v1h-1z M27,5h1v1h-1z M30,5h1v1h-1z M32,5h1v1h-1z M33,5h1v1h-1z M34,5h1v1h-1z M35,5h1v1h-1z M36,5h1v1h-1z M37,5h1v1h-1z M39,5h1v1h-1z M42,5h1v1h-1z M43,5h1v1h-1z M46,5h1v1h-1z M49,5h1v1h-1z M52,5h1v1h-1z M53,5h1v1h-1z M54,5h1v1h-1z M56,5h1v1h-1z M57,5h1v1h-1z M58,5h1v1h-1z M61,5h1v1h-1z M64,5h1v1h-1z M66,5h1v1h-1z M69,5h1v1h-1z M70,5h1v1h-1z M73,5h1v1h-1z M78,5h1v1h-1z M81,5h1v1h-1z M82,5h1v1h-1z M83,5h1v1h-1z M84,5h1v1h-1z M85,5h1v1h-1z M88,5h1v1h-1z M90,5h1v1h-1z M92,5h1v1h-1z M93,5h1v1h-1z M94,5h1v1h-1z M95,5h1v1h-1z M96,5h1v1h-1z M98,5h1v1h-1z M102,5h1v1h-1z M108,5h1v1h-1z M4,6h1v1h-1z M6,6h1v1h-1z M7,6h1v1h-1z M8,6h1v1h-1z M10,6h1v1h-1z M14,6h1v1h-1z M16,6h1v1h-1z M17,6h1v1h-1z M18,6h1v1h-1z M19,6h1v1h-1z M20,6h1v1h-1z M23,6h1v1h-1z M24,6h1v1h-1z M25,6h1v1h-1z M26,6h1v1h-1z M27,6h1v1h-1z M28,6h1v1h-1z M29,6h1v1h-1z M30,6h1v1h-1z M32,6h1v1h-1z M33,6h1v1h-1z M37,6h1v1h-1z M39,6h1v1h-1z M40,6h1v1h-1z M44,6h1v1h-1z M50,6h1v1h-1z M51,6h1v1h-1z M52,6h1v1h-1z M53,6h1v1h-1z M54,6h1v1h-1z M56,6h1v1h-1z M58,6h1v1h-1z M59,6h1v1h-1z M61,6h1v1h-1z M63,6h1v1h-1z M64,6h1v1h-1z M65,6h1v1h-1z M68,6h1v1h-1z M70,6h1v1h-1z M71,6h1v1h-1z M73,6h1v1h-1z M74,6h1v1h-1z M75,6h1v1h-1z M76,6h1v1h-1z M77,6h1v1h-1z M80,6h1v1h-1z M81,6h1v1h-1z M82,6h1v1h-1z M85,6h1v1h-1z M86,6h1v1h-1z M87,6h1v1h-1z M88,6h1v1h-1z M89,6h1v1h-1z M92,6h1v1h-1z M93,6h1v1h-1z M94,6h1v1h-1z M97,6h1v1h-1z M98,6h1v1h-1z M99,6h1v1h-1z M102,6h1v1h-1z M104,6h1v1h-1z M105,6h1v1h-1z M106,6h1v1h-1z M108,6h1v1h-1z M4,7h1v1h-1z M6,7h1v1h-1z M7,7h1v1h-1z M8,7h1v1h-1z M10,7h1v1h-1z M15,7h1v1h-1z M16,7h1v1h-1z M17,7h1v1h-1z M18,7h1v1h-1z M20,7h1v1h-1z M21,7h1v1h-1z M26,7h1v1h-1z M28,7h1v1h-1z M29,7h1v1h-1z M30,7h1v1h-1z M32,7h1v1h-1z M33,7h1v1h-1z M34,7h1v1h-1z M35,7h1v1h-1z M36,7h1v1h-1z M37,7h1v1h-1z M40,7h1v1h-1z M43,7h1v1h-1z M44,7h1v1h-1z M46,7h1v1h-1z M47,7h1v1h-1z M49,7h1v1h-1z M50,7h1v1h-1z M51,7h1v1h-1z M53,7h1v1h-1z M54,7h1v1h-1z M56,7h1v1h-1z M57,7h1v1h-1z M59,7h1v1h-1z M60,7h1v1h-1z M62,7h1v1h-1z M66,7h1v1h-1z M67,7h1v1h-1z M68,7h1v1h-1z M70,7h1v1h-1z M71,7h1v1h-1z M75,7h1v1h-1z M76,7h1v1h-1z M78,7h1v1h-1z M79,7h1v1h-1z M81,7h1v1h-1z M82,7h1v1h-1z M83,7h1v1h-1z M84,7h1v1h-1z M85,7h1v1h-1z M88,7h1v1h-1z M90,7h1v1h-1z M92,7h1v1h-1z M93,7h1v1h-1z M94,7h1v1h-1z M95,7h1v1h-1z M97,7h1v1h-1z M100,7h1v1h-1z M102,7h1v1h-1z M104,7h1v1h-1z M105,7h1v1h-1z M106,7h1v1h-1z M108,7h1v1h-1z M4,8h1v1h-1z M6,8h1v1h-1z M7,8h1v1h-1z M8,8h1v1h-1z M10,8h1v1h-1z M15,8h1v1h-1z M16,8h1v1h-1z M17,8h1v1h-1z M18,8h1v1h-1z M19,8h1v1h-1z M21,8h1v1h-1z M23,8h1v1h-1z M24,8h1v1h-1z M25,8h1v1h-1z M26,8h1v1h-1z M28,8h1v1h-1z M29,8h1v1h-1z M30,8h1v1h-1z M31,8h1v1h-1z M32,8h1v1h-1z M33,8h1v1h-1z M35,8h1v1h-1z M36,8h1v1h-1z M38,8h1v1h-1z M40,8h1v1h-1z M41,8h1v1h-1z M43,8h1v1h-1z M45,8h1v1h-1z M46,8h1v1h-1z M47,8h1v1h-1z M48,8h1v1h-1z M49,8h1v1h-1z M50,8h1v1h-1z M52,8h1v1h-1z M53,8h1v1h-1z M54,8h1v1h-1z M55,8h1v1h-1z M56,8h1v1h-1z M57,8h1v1h-1z M58,8h1v1h-1z M61,8h1v1h-1z M62,8h1v1h-1z M63,8h1v1h-1z M65,8h1v1h-1z M67,8h1v1h-1z M69,8h1v1h-1z M71,8h1v1h-1z M73,8h1v1h-1z M75,8h1v1h-1z M76,8h1v1h-1z M77,8h1v1h-1z M78,8h1v1h-1z M79,8h1v1h-1z M80,8h1v1h-1z M83,8h1v1h-1z M84,8h1v1h-1z M86,8h1v1h-1z M88,8h1v1h-1z M89,8h1v1h-1z M90,8h1v1h-1z M95,8h1v1h-1z M96,8h1v1h-1z M97,8h1v1h-1z M99,8h1v1h-1z M100,8h1v1h-1z M102,8h1v1h-1z M104,8h1v1h-1z M105,8h1v1h-1z M106,8h1v1h-1z M108,8h1v1h-1z M4,9h1v1h-1z M10,9h1v1h-1z M13,9h1v1h-1z M14,9h1v1h-1z M15,9h1v1h-1z M17,9h1v1h-1z M21,9h1v1h-1z M24,9h1v1h-1z M25,9h1v1h-1z M26,9h1v1h-1z M27,9h1v1h-1z M28,9h1v1h-1z M32,9h1v1h-1z M33,9h1v1h-1z M34,9h1v1h-1z M36,9h1v1h-1z M37,9h1v1h-1z M38,9h1v1h-1z M39,9h1v1h-1z M41,9h1v1h-1z M43,9h1v1h-1z M44,9h1v1h-1z M46,9h1v1h-1z M48,9h1v1h-1z M49,9h1v1h-1z M50,9h1v1h-1z M51,9h1v1h-1z M52,9h1v1h-1z M56,9h1v1h-1z M58,9h1v1h-1z M59,9h1v1h-1z M60,9h1v1h-1z M61,9h1v1h-1z M62,9h1v1h-1z M63,9h1v1h-1z M65,9h1v1h-1z M67,9h1v1h-1z M68,9h1v1h-1z M69,9h1v1h-1z M70,9h1v1h-1z M72,9h1v1h-1z M73,9h1v1h-1z M74,9h1v1h-1z M76,9h1v1h-1z M80,9h1v1h-1z M82,9h1v1h-1z M84,9h1v1h-1z M85,9h1v1h-1z M86,9h1v1h-1z M87,9h1v1h-1z M89,9h1v1h-1z M91,9h1v1h-1z M94,9h1v1h-1z M96,9h1v1h-1z M97,9h1v1h-1z M99,9h1v1h-1z M102,9h1v1h-1z M108,9h1v1h-1z M4,10h1v1h-1z M5,10h1v1h-1z M6,10h1v1h-1z M7,10h1v1h-1z M8,10h1v1h-1z M9,10h1v1h-1z M10,10h1v1h-1z M12,10h1v1h-1z M14,10h1v1h-1z M16,10h1v1h-1z M18,10h1v1h-1z M20,10h1v1h-1z M22,10h1v1h-1z M24,10h1v1h-1z M26,10h1v1h-1z M28,10h1v1h-1z M30,10h1v1h-1z M32,10h1v1h-1z M34,10h1v1h-1z M36,10h1v1h-1z M38,10h1v1h-1z M40,10h1v1h-1z M42,10h1v1h-1z M44,10h1v1h-1z M46,10h1v1h-1z M48,10h1v1h-1z M50,10h1v1h-1z M52,10h1v1h-1z M54,10h1v1h-1z M56,10h1v1h-1z M58,10h1v1h-1z M60,10h1v1h-1z M62,10h1v1h-1z M64,10h1v1h-1z M66,10h1v1h-1z M68,10h1v1h-1z M70,10h1v1h-1z M72,10h1v1h-1z M74,10h1v1h-1z M76,10h1v1h-1z M78,10h1v1h-1z M80,10h1v1h-1z M82,10h1v1h-1z M84,10h1v1h-1z M86,10h1v1h-1z M88,10h1v1h-1z M90,10h1v1h-1z M92,10h1v1h-1z M94,10h1v1h-1z M96,10h1v1h-1z M98,10h1v1h-1z M100,10h1v1h-1z M102,10h1v1h-1z M103,10h1v1h-1z M104,10h1v1h-1z M105,10h1v1h-1z M106,10h1v1h-1z M107,10h1v1h-1z M108,10h1v1h-1z M12,11h1v1h-1z M13,11h1v1h-1z M17,11h1v1h-1z M18,11h1v1h-1z M21,11h1v1h-1z M22,11h1v1h-1z M24,11h1v1h-1z M25,11h1v1h-1z M26,11h1v1h-1z M27,11h1v1h-1z M28,11h1v1h-1z M32,11h1v1h-1z M33,11h1v1h-1z M36,11h1v1h-1z M37,11h1v1h-1z M40,11h1v1h-1z M41,11h1v1h-1z M43,11h1v1h-1z M48,11h1v1h-1z M49,11h1v1h-1z M50,11h1v1h-1z M52,11h1v1h-1z M56,11h1v1h-1z M58,11h1v1h-1z M60,11h1v1h-1z M61,11h1v1h-1z M63,11h1v1h-1z M64,11h1v1h-1z M65,11h1v1h-1z M67,11h1v1h-1z M69,11h1v1h-1z M72,11h1v1h-1z M75,11h1v1h-1z M76,11h1v1h-1z M80,11h1v1h-1z M81,11h1v1h-1z M82,11h1v1h-1z M84,11h1v1h-1z M86,11h1v1h-1z M87,11h1v1h-1z M88,11h1v1h-1z M91,11h1v1h-1z M96,11h1v1h-1z M100,11h1v1h-1z M4,12h1v1h-1z M5,12h1v1h-1z M7,12h1v1h-1z M8,12h1v1h-1z M10,12h1v1h-1z M13,12h1v1h-1z M16,12h1v1h-1z M17,12h1v1h-1z M24,12h1v1h-1z M25,12h1v1h-1z M27,12h1v1h-1z M28,12h1v1h-1z M29,12h1v1h-1z M30,12h1v1h-1z M31,12h1v1h-1z M32,12h1v1h-1z M36,12h1v1h-1z M37,12h1v1h-1z M41,12h1v1h-1z M42,12h1v1h-1z M45,12h1v1h-1z M46,12h1v1h-1z M49,12h1v1h-1z M50,12h1v1h-1z M52,12h1v1h-1z M53,12h1v1h-1z M54,12h1v1h-1z M55,12h1v1h-1z M56,12h1v1h-1z M58,12h1v1h-1z M61,12h1v1h-1z M62,12h1v1h-1z M63,12h1v1h-1z M64,12h1v1h-1z M65,12h1v1h-1z M69,12h1v1h-1z M71,12h1v1h-1z M74,12h1v1h-1z M75,12h1v1h-1z M76,12h1v1h-1z M77,12h1v1h-1z M78,12h1v1h-1z M79,12h1v1h-1z M80,12h1v1h-1z M82,12h1v1h-1z M83,12h1v1h-1z M85,12h1v1h-1z M86,12h1v1h-1z M88,12h1v1h-1z M89,12h1v1h-1z M91,12h1v1h-1z M94,12h1v1h-1z M96,12h1v1h-1z M97,12h1v1h-1z M98,12h1v1h-1z M99,12h1v1h-1z M100,12h1v1h-1z M102,12h1v1h-1z M108,12h1v1h-1z M5,13h1v1h-1z M6,13h1v1h-1z M7,13h1v1h-1z M8,13h1v1h-1z M14,13h1v1h-1z M15,13h1v1h-1z M19,13h1v1h-1z M21,13h1v1h-1z M23,13h1v1h-1z M25,13h1v1h-1z M26,13h1v1h-1z M27,13h1v1h-1z M28,13h1v1h-1z M30,13h1v1h-1z M31,13h1v1h-1z M34,13h1v1h-1z M40,13h1v1h-1z M42,13h1v1h-1z M43,13h1v1h-1z M47,13h1v1h-1z M49,13h1v1h-1z M50,13h1v1h-1z M51,13h1v1h-1z M52,13h1v1h-1z M55,13h1v1h-1z M56,13h1v1h-1z M60,13h1v1h-1z M61,13h1v1h-1z M65,13h1v1h-1z M66,13h1v1h-1z M68,13h1v1h-1z M70,13h1v1h-1z M72,13h1v1h-1z M76,13h1v1h-1z M78,13h1v1h-1z M80,13h1v1h-1z M83,13h1v1h-1z M84,13h1v1h-1z M88,13h1v1h-1z M89,13h1v1h-1z M91,13h1v1h-1z M92,13h1v1h-1z M93,13h1v1h-1z M94,13h1v1h-1z M100,13h1v1h-1z M103,13h1v1h-1z M105,13h1v1h-1z M106,13h1v1h-1z M4,14h1v1h-1z M6,14h1v1h-1z M9,14h1v1h-1z M10,14h1v1h-1z M11,14h1v1h-1z M12,14h1v1h-1z M13,14h1v1h-1z M15,14h1v1h-1z M19,14h1v1h-1z M20,14h1v1h-1z M21,14h1v1h-1z M25,14h1v1h-1z M29,14h1v1h-1z M30,14h1v1h-1z M32,14h1v1h-1z M33,14h1v1h-1z M34,14h1v1h-1z M41,14h1v1h-1z M42,14h1v1h-1z M45,14h1v1h-1z M46,14h1v1h-1z M47,14h1v1h-1z M54,14h1v1h-1z M55,14h1v1h-1z M56,14h1v1h-1z M58,14h1v1h-1z M59,14h1v1h-1z M61,14h1v1h-1z M64,14h1v1h-1z M65,14h1v1h-1z M66,14h1v1h-1z M67,14h1v1h-1z M70,14h1v1h-1z M75,14h1v1h-1z M77,14h1v1h-1z M78,14h1v1h-1z M79,14h1v1h-1z M81,14h1v1h-1z M82,14h1v1h-1z M83,14h1v1h-1z M88,14h1v1h-1z M89,14h1v1h-1z M90,14h1v1h-1z M91,14h1v1h-1z M93,14h1v1h-1z M94,14h1v1h-1z M99,14h1v1h-1z M103,14h1v1h-1z M106,14h1v1h-1z M107,14h1v1h-1z M108,14h1v1h-1z M4,15h1v1h-1z M8,15h1v1h-1z M11,15h1v1h-1z M12,15h1v1h-1z M15,15h1v1h-1z M16,15h1v1h-1z M17,15h1v1h-1z M18,15h1v1h-1z M19,15h1v1h-1z M20,15h1v1h-1z M22,15h1v1h-1z M23,15h1v1h-1z M24,15h1v1h-1z M25,15h1v1h-1z M30,15h1v1h-1z M31,15h1v1h-1z M32,15h1v1h-1z M35,15h1v1h-1z M38,15h1v1h-1z M39,15h1v1h-1z M40,15h1v1h-1z M43,15h1v1h-1z M44,15h1v1h-1z M49,15h1v1h-1z M50,15h1v1h-1z M52,15h1v1h-1z M53,15h1v1h-1z M54,15h1v1h-1z M55,15h1v1h-1z M56,15h1v1h-1z M57,15h1v1h-1z M58,15h1v1h-1z M59,15h1v1h-1z M61,15h1v1h-1z M64,15h1v1h-1z M66,15h1v1h-1z M67,15h1v1h-1z M68,15h1v1h-1z M71,15h1v1h-1z M74,15h1v1h-1z M75,15h1v1h-1z M77,15h1v1h-1z M78,15h1v1h-1z M79,15h1v1h-1z M80,15h1v1h-1z M83,15h1v1h-1z M88,15h1v1h-1z M90,15h1v1h-1z M91,15h1v1h-1z M92,15h1v1h-1z M93,15h1v1h-1z M95,15h1v1h-1z M98,15h1v1h-1z M100,15h1v1h-1z M101,15h1v1h-1z M106,15h1v1h-1z M107,15h1v1h-1z M108,15h1v1h-1z M4,16h1v1h-1z M5,16h1v1h-1z M7,16h1v1h-1z M10,16h1v1h-1z M11,16h1v1h-1z M12,16h1v1h-1z M14,16h1v1h-1z M17,16h1v1h-1z M19,16h1v1h-1z M21,16h1v1h-1z M22,16h1v1h-1z M23,16h1v1h-1z M31,16h1v1h-1z M36,16h1v1h-1z M37,16h1v1h-1z M39,16h1v1h-1z M42,16h1v1h-1z M46,16h1v1h-1z M47,16h1v1h-1z M48,16h1v1h-1z M51,16h1v1h-1z M55,16h1v1h-1z M56,16h1v1h-1z M57,16h1v1h-1z M61,16h1v1h-1z M62,16h1v1h-1z M64,16h1v1h-1z M65,16h1v1h-1z M66,16h1v1h-1z M67,16h1v1h-1z M73,16h1v1h-1z M74,16h1v1h-1z M77,16h1v1h-1z M78,16h1v1h-1z M81,16h1v1h-1z M83,16h1v1h-1z M84,16h1v1h-1z M86,16h1v1h-1z M88,16h1v1h-1z M89,16h1v1h-1z M90,16h1v1h-1z M92,16h1v1h-1z M94,16h1v1h-1z M95,16h1v1h-1z M96,16h1v1h-1z M97,16h1v1h-1z M100,16h1v1h-1z M101,16h1v1h-1z M102,16h1v1h-1z M103,16h1v1h-1z M104,16h1v1h-1z M106,16h1v1h-1z M108,16h1v1h-1z M7,17h1v1h-1z M8,17h1v1h-1z M9,17h1v1h-1z M12,17h1v1h-1z M18,17h1v1h-1z M19,17h1v1h-1z M20,17h1v1h-1z M24,17h1v1h-1z M25,17h1v1h-1z M26,17h1v1h-1z M27,17h1v1h-1z M28,17h1v1h-1z M29,17h1v1h-1z M34,17h1v1h-1z M35,17h1v1h-1z M36,17h1v1h-1z M39,17h1v1h-1z M41,17h1v1h-1z M44,17h1v1h-1z M45,17h1v1h-1z M46,17h1v1h-1z M48,17h1v1h-1z M49,17h1v1h-1z M50,17h1v1h-1z M51,17h1v1h-1z M52,17h1v1h-1z M54,17h1v1h-1z M57,17h1v1h-1z M58,17h1v1h-1z M59,17h1v1h-1z M60,17h1v1h-1z M62,17h1v1h-1z M63,17h1v1h-1z M66,17h1v1h-1z M68,17h1v1h-1z M70,17h1v1h-1z M74,17h1v1h-1z M75,17h1v1h-1z M76,17h1v1h-1z M77,17h1v1h-1z M79,17h1v1h-1z M84,17h1v1h-1z M86,17h1v1h-1z M90,17h1v1h-1z M95,17h1v1h-1z M100,17h1v1h-1z M101,17h1v1h-1z M102,17h1v1h-1z M104,17h1v1h-1z M106,17h1v1h-1z M107,17h1v1h-1z M108,17h1v1h-1z M4,18h1v1h-1z M5,18h1v1h-1z M6,18h1v1h-1z M7,18h1v1h-1z M8,18h1v1h-1z M10,18h1v1h-1z M12,18h1v1h-1z M15,18h1v1h-1z M17,18h1v1h-1z M19,18h1v1h-1z M23,18h1v1h-1z M26,18h1v1h-1z M27,18h1v1h-1z M29,18h1v1h-1z M31,18h1v1h-1z M33,18h1v1h-1z M34,18h1v1h-1z M35,18h1v1h-1z M38,18h1v1h-1z M40,18h1v1h-1z M44,18h1v1h-1z M45,18h1v1h-1z M46,18h1v1h-1z M50,18h1v1h-1z M51,18h1v1h-1z M52,18h1v1h-1z M55,18h1v1h-1z M57,18h1v1h-1z M58,18h1v1h-1z M59,18h1v1h-1z M62,18h1v1h-1z M63,18h1v1h-1z M67,18h1v1h-1z M69,18h1v1h-1z M70,18h1v1h-1z M71,18h1v1h-1z M72,18h1v1h-1z M74,18h1v1h-1z M75,18h1v1h-1z M79,18h1v1h-1z M80,18h1v1h-1z M81,18h1v1h-1z M82,18h1v1h-1z M83,18h1v1h-1z M86,18h1v1h-1z M92,18h1v1h-1z M93,18h1v1h-1z M94,18h1v1h-1z M98,18h1v1h-1z M104,18h1v1h-1z M105,18h1v1h-1z M106,18h1v1h-1z M5,19h1v1h-1z M8,19h1v1h-1z M12,19h1v1h-1z M15,19h1v1h-1z M17,19h1v1h-1z M20,19h1v1h-1z M22,19h1v1h-1z M27,19h1v1h-1z M28,19h1v1h-1z M29,19h1v1h-1z M31,19h1v1h-1z M32,19h1v1h-1z M33,19h1v1h-1z M35,19h1v1h-1z M36,19h1v1h-1z M38,19h1v1h-1z M39,19h1v1h-1z M40,19h1v1h-1z M41,19h1v1h-1z M42,19h1v1h-1z M43,19h1v1h-1z M44,19h1v1h-1z M47,19h1v1h-1z M48,19h1v1h-1z M49,19h1v1h-1z M52,19h1v1h-1z M55,19h1v1h-1z M56,19h1v1h-1z M57,19h1v1h-1z M59,19h1v1h-1z M60,19h1v1h-1z M64,19h1v1h-1z M66,19h1v1h-1z M67,19h1v1h-1z M68,19h1v1h-1z M70,19h1v1h-1z M71,19h1v1h-1z M72,19h1v1h-1z M76,19h1v1h-1z M77,19h1v1h-1z M79,19h1v1h-1z M80,19h1v1h-1z M83,19h1v1h-1z M84,19h1v1h-1z M87,19h1v1h-1z M88,19h1v1h-1z M89,19h1v1h-1z M91,19h1v1h-1z M92,19h1v1h-1z M94,19h1v1h-1z M95,19h1v1h-1z M96,19h1v1h-1z M97,19h1v1h-1z M98,19h1v1h-1z M99,19h1v1h-1z M101,19h1v1h-1z M102,19h1v1h-1z M103,19h1v1h-1z M105,19h1v1h-1z M106,19h1v1h-1z M4,20h1v1h-1z M6,20h1v1h-1z M7,20h1v1h-1z M10,20h1v1h-1z M12,20h1v1h-1z M13,20h1v1h-1z M15,20h1v1h-1z M18,20h1v1h-1z M22,20h1v1h-1z M23,20h1v1h-1z M24,20h1v1h-1z M27,20h1v1h-1z M31,20h1v1h-1z M32,20h1v1h-1z M33,20h1v1h-1z M34,20h1v1h-1z M35,20h1v1h-1z M37,20h1v1h-1z M38,20h1v1h-1z M39,20h1v1h-1z M41,20h1v1h-1z M42,20h1v1h-1z M43,20h1v1h-1z M44,20h1v1h-1z M52,20h1v1h-1z M56,20h1v1h-1z M57,20h1v1h-1z M59,20h1v1h-1z M60,20h1v1h-1z M61,20h1v1h-1z M62,20h1v1h-1z M63,20h1v1h-1z M64,20h1v1h-1z M65,20h1v1h-1z M66,20h1v1h-1z M67,20h1v1h-1z M68,20h1v1h-1z M69,20h1v1h-1z M70,20h1v1h-1z M71,20h1v1h-1z M72,20h1v1h-1z M73,20h1v1h-1z M75,20h1v1h-1z M76,20h1v1h-1z M80,20h1v1h-1z M82,20h1v1h-1z M83,20h1v1h-1z M84,20h1v1h-1z M90,20h1v1h-1z M92,20h1v1h-1z M94,20h1v1h-1z M97,20h1v1h-1z M98,20h1v1h-1z M99,20h1v1h-1z M100,20h1v1h-1z M104,20h1v1h-1z M106,20h1v1h-1z M107,20h1v1h-1z M5,21h1v1h-1z M6,21h1v1h-1z M11,21h1v1h-1z M12,21h1v1h-1z M16,21h1v1h-1z M17,21h1v1h-1z M19,21h1v1h-1z M22,21h1v1h-1z M23,21h1v1h-1z M24,21h1v1h-1z M27,21h1v1h-1z M28,21h1v1h-1z M30,21h1v1h-1z M32,21h1v1h-1z M40,21h1v1h-1z M41,21h1v1h-1z M42,21h1v1h-1z M43,21h1v1h-1z M45,21h1v1h-1z M48,21h1v1h-1z M49,21h1v1h-1z M50,21h1v1h-1z M52,21h1v1h-1z M54,21h1v1h-1z M55,21h1v1h-1z M56,21h1v1h-1z M60,21h1v1h-1z M61,21h1v1h-1z M62,21h1v1h-1z M63,21h1v1h-1z M66,21h1v1h-1z M68,21h1v1h-1z M69,21h1v1h-1z M71,21h1v1h-1z M73,21h1v1h-1z M74,21h1v1h-1z M76,21h1v1h-1z M77,21h1v1h-1z M79,21h1v1h-1z M81,21h1v1h-1z M85,21h1v1h-1z M86,21h1v1h-1z M87,21h1v1h-1z M89,21h1v1h-1z M90,21h1v1h-1z M92,21h1v1h-1z M94,21h1v1h-1z M95,21h1v1h-1z M98,21h1v1h-1z M99,21h1v1h-1z M102,21h1v1h-1z M104,21h1v1h-1z M106,21h1v1h-1z M108,21h1v1h-1z M4,22h1v1h-1z M7,22h1v1h-1z M8,22h1v1h-1z M10,22h1v1h-1z M11,22h1v1h-1z M12,22h1v1h-1z M13,22h1v1h-1z M14,22h1v1h-1z M15,22h1v1h-1z M16,22h1v1h-1z M20,22h1v1h-1z M21,22h1v1h-1z M22,22h1v1h-1z M23,22h1v1h-1z M25,22h1v1h-1z M26,22h1v1h-1z M27,22h1v1h-1z M28,22h1v1h-1z M30,22h1v1h-1z M34,22h1v1h-1z M35,22h1v1h-1z M36,22h1v1h-1z M38,22h1v1h-1z M42,22h1v1h-1z M43,22h1v1h-1z M46,22h1v1h-1z M47,22h1v1h-1z M50,22h1v1h-1z M51,22h1v1h-1z M52,22h1v1h-1z M54,22h1v1h-1z M57,22h1v1h-1z M58,22h1v1h-1z M59,22h1v1h-1z M60,22h1v1h-1z M62,22h1v1h-1z M65,22h1v1h-1z M66,22h1v1h-1z M70,22h1v1h-1z M74,22h1v1h-1z M78,22h1v1h-1z M82,22h1v1h-1z M84,22h1v1h-1z M85,22h1v1h-1z M86,22h1v1h-1z M87,22h1v1h-1z M88,22h1v1h-1z M90,22h1v1h-1z M91,22h1v1h-1z M93,22h1v1h-1z M94,22h1v1h-1z M98,22h1v1h-1z M100,22h1v1h-1z M104,22h1v1h-1z M105,22h1v1h-1z M106,22h1v1h-1z M108,22h1v1h-1z M4,23h1v1h-1z M13,23h1v1h-1z M15,23h1v1h-1z M16,23h1v1h-1z M19,23h1v1h-1z M20,23h1v1h-1z M23,23h1v1h-1z M24,23h1v1h-1z M25,23h1v1h-1z M26,23h1v1h-1z M29,23h1v1h-1z M30,23h1v1h-1z M31,23h1v1h-1z M36,23h1v1h-1z M38,23h1v1h-1z M39,23h1v1h-1z M40,23h1v1h-1z M42,23h1v1h-1z M43,23h1v1h-1z M45,23h1v1h-1z M46,23h1v1h-1z M48,23h1v1h-1z M50,23h1v1h-1z M52,23h1v1h-1z M54,23h1v1h-1z M57,23h1v1h-1z M60,23h1v1h-1z M61,23h1v1h-1z M62,23h1v1h-1z M63,23h1v1h-1z M64,23h1v1h-1z M70,23h1v1h-1z M72,23h1v1h-1z M75,23h1v1h-1z M76,23h1v1h-1z M77,23h1v1h-1z M79,23h1v1h-1z M82,23h1v1h-1z M84,23h1v1h-1z M85,23h1v1h-1z M86,23h1v1h-1z M87,23h1v1h-1z M88,23h1v1h-1z M89,23h1v1h-1z M91,23h1v1h-1z M96,23h1v1h-1z M97,23h1v1h-1z M98,23h1v1h-1z M99,23h1v1h-1z M102,23h1v1h-1z M104,23h1v1h-1z M106,23h1v1h-1z M107,23h1v1h-1z M108,23h1v1h-1z M5,24h1v1h-1z M10,24h1v1h-1z M15,24h1v1h-1z M16,24h1v1h-1z M17,24h1v1h-1z M20,24h1v1h-1z M21,24h1v1h-1z M25,24h1v1h-1z M26,24h1v1h-1z M28,24h1v1h-1z M32,24h1v1h-1z M33,24h1v1h-1z M36,24h1v1h-1z M37,24h1v1h-1z M39,24h1v1h-1z M41,24h1v1h-1z M42,24h1v1h-1z M44,24h1v1h-1z M50,24h1v1h-1z M51,24h1v1h-1z M55,24h1v1h-1z M57,24h1v1h-1z M58,24h1v1h-1z M59,24h1v1h-1z M61,24h1v1h-1z M63,24h1v1h-1z M64,24h1v1h-1z M68,24h1v1h-1z M69,24h1v1h-1z M73,24h1v1h-1z M74,24h1v1h-1z M75,24h1v1h-1z M77,24h1v1h-1z M78,24h1v1h-1z M79,24h1v1h-1z M80,24h1v1h-1z M81,24h1v1h-1z M82,24h1v1h-1z M84,24h1v1h-1z M85,24h1v1h-1z M87,24h1v1h-1z M92,24h1v1h-1z M93,24h1v1h-1z M94,24h1v1h-1z M99,24h1v1h-1z M100,24h1v1h-1z M102,24h1v1h-1z M104,24h1v1h-1z M105,24h1v1h-1z M108,24h1v1h-1z M5,25h1v1h-1z M8,25h1v1h-1z M12,25h1v1h-1z M14,25h1v1h-1z M15,25h1v1h-1z M17,25h1v1h-1z M18,25h1v1h-1z M20,25h1v1h-1z M21,25h1v1h-1z M25,25h1v1h-1z M27,25h1v1h-1z M28,25h1v1h-1z M30,25h1v1h-1z M31,25h1v1h-1z M32,25h1v1h-1z M34,25h1v1h-1z M35,25h1v1h-1z M37,25h1v1h-1z M38,25h1v1h-1z M40,25h1v1h-1z M42,25h1v1h-1z M43,25h1v1h-1z M45,25h1v1h-1z M46,25h1v1h-1z M48,25h1v1h-1z M52,25h1v1h-1z M53,25h1v1h-1z M56,25h1v1h-1z M57,25h1v1h-1z M60,25h1v1h-1z M62,25h1v1h-1z M64,25h1v1h-1z M71,25h1v1h-1z M72,25h1v1h-1z M73,25h1v1h-1z M74,25h1v1h-1z M75,25h1v1h-1z M76,25h1v1h-1z M78,25h1v1h-1z M80,25h1v1h-1z M85,25h1v1h-1z M86,25h1v1h-1z M87,25h1v1h-1z M89,25h1v1h-1z M90,25h1v1h-1z M94,25h1v1h-1z M98,25h1v1h-1z M99,25h1v1h-1z M100,25h1v1h-1z M102,25h1v1h-1z M105,25h1v1h-1z M107,25h1v1h-1z M5,26h1v1h-1z M7,26h1v1h-1z M8,26h1v1h-1z M10,26h1v1h-1z M11,26h1v1h-1z M13,26h1v1h-1z M14,26h1v1h-1z M16,26h1v1h-1z M17,26h1v1h-1z M22,26h1v1h-1z M28,26h1v1h-1z M29,26h1v1h-1z M30,26h1v1h-1z M32,26h1v1h-1z M34,26h1v1h-1z M39,26h1v1h-1z M41,26h1v1h-1z M42,26h1v1h-1z M44,26h1v1h-1z M46,26h1v1h-1z M47,26h1v1h-1z M48,26h1v1h-1z M52,26h1v1h-1z M53,26h1v1h-1z M54,26h1v1h-1z M55,26h1v1h-1z M57,26h1v1h-1z M58,26h1v1h-1z M59,26h1v1h-1z M66,26h1v1h-1z M67,26h1v1h-1z M70,26h1v1h-1z M72,26h1v1h-1z M75,26h1v1h-1z M76,26h1v1h-1z M77,26h1v1h-1z M78,26h1v1h-1z M80,26h1v1h-1z M81,26h1v1h-1z M82,26h1v1h-1z M88,26h1v1h-1z M89,26h1v1h-1z M90,26h1v1h-1z M91,26h1v1h-1z M94,26h1v1h-1z M95,26h1v1h-1z M99,26h1v1h-1z M101,26h1v1h-1z M102,26h1v1h-1z M107,26h1v1h-1z M108,26h1v1h-1z M4,27h1v1h-1z M5,27h1v1h-1z M12,27h1v1h-1z M13,27h1v1h-1z M14,27h1v1h-1z M15,27h1v1h-1z M17,27h1v1h-1z M18,27h1v1h-1z M19,27h1v1h-1z M21,27h1v1h-1z M22,27h1v1h-1z M23,27h1v1h-1z M29,27h1v1h-1z M32,27h1v1h-1z M33,27h1v1h-1z M35,27h1v1h-1z M37,27h1v1h-1z M38,27h1v1h-1z M40,27h1v1h-1z M41,27h1v1h-1z M42,27h1v1h-1z M44,27h1v1h-1z M45,27h1v1h-1z M46,27h1v1h-1z M47,27h1v1h-1z M49,27h1v1h-1z M50,27h1v1h-1z M51,27h1v1h-1z M54,27h1v1h-1z M55,27h1v1h-1z M56,27h1v1h-1z M61,27h1v1h-1z M64,27h1v1h-1z M66,27h1v1h-1z M67,27h1v1h-1z M68,27h1v1h-1z M70,27h1v1h-1z M71,27h1v1h-1z M74,27h1v1h-1z M75,27h1v1h-1z M77,27h1v1h-1z M78,27h1v1h-1z M79,27h1v1h-1z M80,27h1v1h-1z M83,27h1v1h-1z M85,27h1v1h-1z M86,27h1v1h-1z M88,27h1v1h-1z M90,27h1v1h-1z M91,27h1v1h-1z M92,27h1v1h-1z M93,27h1v1h-1z M95,27h1v1h-1z M98,27h1v1h-1z M99,27h1v1h-1z M100,27h1v1h-1z M101,27h1v1h-1z M106,27h1v1h-1z M4,28h1v1h-1z M7,28h1v1h-1z M8,28h1v1h-1z M9,28h1v1h-1z M10,28h1v1h-1z M11,28h1v1h-1z M12,28h1v1h-1z M14,28h1v1h-1z M17,28h1v1h-1z M18,28h1v1h-1z M20,28h1v1h-1z M23,28h1v1h-1z M24,28h1v1h-1z M25,28h1v1h-1z M28,28h1v1h-1z M29,28h1v1h-1z M30,28h1v1h-1z M31,28h1v1h-1z M32,28h1v1h-1z M34,28h1v1h-1z M36,28h1v1h-1z M38,28h1v1h-1z M40,28h1v1h-1z M42,28h1v1h-1z M43,28h1v1h-1z M44,28h1v1h-1z M46,28h1v1h-1z M47,28h1v1h-1z M50,28h1v1h-1z M51,28h1v1h-1z M52,28h1v1h-1z M53,28h1v1h-1z M54,28h1v1h-1z M55,28h1v1h-1z M56,28h1v1h-1z M57,28h1v1h-1z M59,28h1v1h-1z M61,28h1v1h-1z M62,28h1v1h-1z M63,28h1v1h-1z M64,28h1v1h-1z M65,28h1v1h-1z M67,28h1v1h-1z M70,28h1v1h-1z M72,28h1v1h-1z M73,28h1v1h-1z M74,28h1v1h-1z M76,28h1v1h-1z M77,28h1v1h-1z M78,28h1v1h-1z M79,28h1v1h-1z M80,28h1v1h-1z M81,28h1v1h-1z M82,28h1v1h-1z M86,28h1v1h-1z M89,28h1v1h-1z M90,28h1v1h-1z M95,28h1v1h-1z M96,28h1v1h-1z M98,28h1v1h-1z M100,28h1v1h-1z M101,28h1v1h-1z M102,28h1v1h-1z M103,28h1v1h-1z M104,28h1v1h-1z M106,28h1v1h-1z M107,28h1v1h-1z M4,29h1v1h-1z M8,29h1v1h-1z M12,29h1v1h-1z M15,29h1v1h-1z M17,29h1v1h-1z M18,29h1v1h-1z M21,29h1v1h-1z M23,29h1v1h-1z M24,29h1v1h-1z M26,29h1v1h-1z M28,29h1v1h-1z M32,29h1v1h-1z M35,29h1v1h-1z M38,29h1v1h-1z M39,29h1v1h-1z M40,29h1v1h-1z M42,29h1v1h-1z M43,29h1v1h-1z M44,29h1v1h-1z M45,29h1v1h-1z M48,29h1v1h-1z M50,29h1v1h-1z M52,29h1v1h-1z M56,29h1v1h-1z M57,29h1v1h-1z M58,29h1v1h-1z M60,29h1v1h-1z M61,29h1v1h-1z M66,29h1v1h-1z M69,29h1v1h-1z M70,29h1v1h-1z M72,29h1v1h-1z M73,29h1v1h-1z M75,29h1v1h-1z M76,29h1v1h-1z M80,29h1v1h-1z M81,29h1v1h-1z M89,29h1v1h-1z M93,29h1v1h-1z M95,29h1v1h-1z M97,29h1v1h-1z M98,29h1v1h-1z M100,29h1v1h-1z M104,29h1v1h-1z M105,29h1v1h-1z M106,29h1v1h-1z M5,30h1v1h-1z M8,30h1v1h-1z M10,30h1v1h-1z M12,30h1v1h-1z M14,30h1v1h-1z M16,30h1v1h-1z M17,30h1v1h-1z M18,30h1v1h-1z M19,30h1v1h-1z M20,30h1v1h-1z M21,30h1v1h-1z M22,30h1v1h-1z M23,30h1v1h-1z M24,30h1v1h-1z M25,30h1v1h-1z M26,30h1v1h-1z M27,30h1v1h-1z M28,30h1v1h-1z M30,30h1v1h-1z M32,30h1v1h-1z M33,30h1v1h-1z M34,30h1v1h-1z M36,30h1v1h-1z M38,30h1v1h-1z M45,30h1v1h-1z M46,30h1v1h-1z M50,30h1v1h-1z M51,30h1v1h-1z M52,30h1v1h-1z M54,30h1v1h-1z M56,30h1v1h-1z M58,30h1v1h-1z M59,30h1v1h-1z M60,30h1v1h-1z M62,30h1v1h-1z M64,30h1v1h-1z M69,30h1v1h-1z M70,30h1v1h-1z M71,30h1v1h-1z M72,30h1v1h-1z M74,30h1v1h-1z M76,30h1v1h-1z M78,30h1v1h-1z M80,30h1v1h-1z M81,30h1v1h-1z M82,30h1v1h-1z M83,30h1v1h-1z M86,30h1v1h-1z M91,30h1v1h-1z M93,30h1v1h-1z M94,30h1v1h-1z M96,30h1v1h-1z M98,30h1v1h-1z M99,30h1v1h-1z M100,30h1v1h-1z M102,30h1v1h-1z M104,30h1v1h-1z M107,30h1v1h-1z M6,31h1v1h-1z M8,31h1v1h-1z M12,31h1v1h-1z M13,31h1v1h-1z M15,31h1v1h-1z M16,31h1v1h-1z M18,31h1v1h-1z M19,31h1v1h-1z M20,31h1v1h-1z M21,31h1v1h-1z M23,31h1v1h-1z M25,31h1v1h-1z M28,31h1v1h-1z M32,31h1v1h-1z M35,31h1v1h-1z M36,31h1v1h-1z M39,31h1v1h-1z M40,31h1v1h-1z M41,31h1v1h-1z M43,31h1v1h-1z M44,31h1v1h-1z M47,31h1v1h-1z M48,31h1v1h-1z M50,31h1v1h-1z M52,31h1v1h-1z M56,31h1v1h-1z M57,31h1v1h-1z M59,31h1v1h-1z M60,31h1v1h-1z M61,31h1v1h-1z M62,31h1v1h-1z M63,31h1v1h-1z M64,31h1v1h-1z M67,31h1v1h-1z M68,31h1v1h-1z M69,31h1v1h-1z M71,31h1v1h-1z M72,31h1v1h-1z M73,31h1v1h-1z M74,31h1v1h-1z M76,31h1v1h-1z M80,31h1v1h-1z M81,31h1v1h-1z M83,31h1v1h-1z M84,31h1v1h-1z M86,31h1v1h-1z M87,31h1v1h-1z M88,31h1v1h-1z M91,31h1v1h-1z M92,31h1v1h-1z M93,31h1v1h-1z M96,31h1v1h-1z M97,31h1v1h-1z M98,31h1v1h-1z M99,31h1v1h-1z M100,31h1v1h-1z M104,31h1v1h-1z M105,31h1v1h-1z M106,31h1v1h-1z M108,31h1v1h-1z M5,32h1v1h-1z M6,32h1v1h-1z M8,32h1v1h-1z M9,32h1v1h-1z M10,32h1v1h-1z M11,32h1v1h-1z M12,32h1v1h-1z M14,32h1v1h-1z M15,32h1v1h-1z M16,32h1v1h-1z M18,32h1v1h-1z M20,32h1v1h-1z M26,32h1v1h-1z M28,32h1v1h-1z M29,32h1v1h-1z M30,32h1v1h-1z M31,32h1v1h-1z M32,32h1v1h-1z M34,32h1v1h-1z M38,32h1v1h-1z M39,32h1v1h-1z M40,32h1v1h-1z M46,32h1v1h-1z M47,32h1v1h-1z M49,32h1v1h-1z M50,32h1v1h-1z M51,32h1v1h-1z M52,32h1v1h-1z M53,32h1v1h-1z M54,32h1v1h-1z M55,32h1v1h-1z M56,32h1v1h-1z M57,32h1v1h-1z M59,32h1v1h-1z M60,32h1v1h-1z M65,32h1v1h-1z M66,32h1v1h-1z M68,32h1v1h-1z M72,32h1v1h-1z M73,32h1v1h-1z M75,32h1v1h-1z M76,32h1v1h-1z M77,32h1v1h-1z M78,32h1v1h-1z M79,32h1v1h-1z M80,32h1v1h-1z M81,32h1v1h-1z M83,32h1v1h-1z M85,32h1v1h-1z M90,32h1v1h-1z M91,32h1v1h-1z M93,32h1v1h-1z M94,32h1v1h-1z M96,32h1v1h-1z M100,32h1v1h-1z M101,32h1v1h-1z M102,32h1v1h-1z M103,32h1v1h-1z M104,32h1v1h-1z M105,32h1v1h-1z M106,32h1v1h-1z M108,32h1v1h-1z M4,33h1v1h-1z M6,33h1v1h-1z M7,33h1v1h-1z M9,33h1v1h-1z M11,33h1v1h-1z M12,33h1v1h-1z M13,33h1v1h-1z M15,33h1v1h-1z M16,33h1v1h-1z M19,33h1v1h-1z M23,33h1v1h-1z M24,33h1v1h-1z M27,33h1v1h-1z M28,33h1v1h-1z M31,33h1v1h-1z M33,33h1v1h-1z M36,33h1v1h-1z M37,33h1v1h-1z M40,33h1v1h-1z M41,33h1v1h-1z M47,33h1v1h-1z M50,33h1v1h-1z M52,33h1v1h-1z M55,33h1v1h-1z M56,33h1v1h-1z M58,33h1v1h-1z M59,33h1v1h-1z M61,33h1v1h-1z M68,33h1v1h-1z M69,33h1v1h-1z M70,33h1v1h-1z M76,33h1v1h-1z M81,33h1v1h-1z M83,33h1v1h-1z M84,33h1v1h-1z M87,33h1v1h-1z M88,33h1v1h-1z M90,33h1v1h-1z M93,33h1v1h-1z M96,33h1v1h-1z M97,33h1v1h-1z M98,33h1v1h-1z M99,33h1v1h-1z M101,33h1v1h-1z M102,33h1v1h-1z M103,33h1v1h-1z M104,33h1v1h-1z M105,33h1v1h-1z M106,33h1v1h-1z M5,34h1v1h-1z M9,34h1v1h-1z M10,34h1v1h-1z M12,34h1v1h-1z M14,34h1v1h-1z M15,34h1v1h-1z M17,34h1v1h-1z M18,34h1v1h-1z M19,34h1v1h-1z M21,34h1v1h-1z M22,34h1v1h-1z M27,34h1v1h-1z M31,34h1v1h-1z M32,34h1v1h-1z M33,34h1v1h-1z M34,34h1v1h-1z M38,34h1v1h-1z M39,34h1v1h-1z M40,34h1v1h-1z M42,34h1v1h-1z M43,34h1v1h-1z M46,34h1v1h-1z M50,34h1v1h-1z M51,34h1v1h-1z M53,34h1v1h-1z M55,34h1v1h-1z M56,34h1v1h-1z M58,34h1v1h-1z M59,34h1v1h-1z M62,34h1v1h-1z M63,34h1v1h-1z M66,34h1v1h-1z M67,34h1v1h-1z M70,34h1v1h-1z M71,34h1v1h-1z M73,34h1v1h-1z M74,34h1v1h-1z M77,34h1v1h-1z M78,34h1v1h-1z M80,34h1v1h-1z M82,34h1v1h-1z M86,34h1v1h-1z M87,34h1v1h-1z M88,34h1v1h-1z M89,34h1v1h-1z M90,34h1v1h-1z M91,34h1v1h-1z M92,34h1v1h-1z M93,34h1v1h-1z M94,34h1v1h-1z M97,34h1v1h-1z M98,34h1v1h-1z M99,34h1v1h-1z M101,34h1v1h-1z M103,34h1v1h-1z M104,34h1v1h-1z M108,34h1v1h-1z M5,35h1v1h-1z M7,35h1v1h-1z M13,35h1v1h-1z M16,35h1v1h-1z M17,35h1v1h-1z M18,35h1v1h-1z M19,35h1v1h-1z M20,35h1v1h-1z M21,35h1v1h-1z M22,35h1v1h-1z M27,35h1v1h-1z M28,35h1v1h-1z M30,35h1v1h-1z M33,35h1v1h-1z M35,35h1v1h-1z M36,35h1v1h-1z M38,35h1v1h-1z M39,35h1v1h-1z M40,35h1v1h-1z M42,35h1v1h-1z M43,35h1v1h-1z M45,35h1v1h-1z M48,35h1v1h-1z M50,35h1v1h-1z M54,35h1v1h-1z M55,35h1v1h-1z M56,35h1v1h-1z M60,35h1v1h-1z M62,35h1v1h-1z M63,35h1v1h-1z M64,35h1v1h-1z M65,35h1v1h-1z M67,35h1v1h-1z M69,35h1v1h-1z M70,35h1v1h-1z M72,35h1v1h-1z M73,35h1v1h-1z M74,35h1v1h-1z M75,35h1v1h-1z M77,35h1v1h-1z M78,35h1v1h-1z M80,35h1v1h-1z M83,35h1v1h-1z M84,35h1v1h-1z M86,35h1v1h-1z M87,35h1v1h-1z M88,35h1v1h-1z M91,35h1v1h-1z M95,35h1v1h-1z M96,35h1v1h-1z M97,35h1v1h-1z M98,35h1v1h-1z M100,35h1v1h-1z M103,35h1v1h-1z M105,35h1v1h-1z M106,35h1v1h-1z M107,35h1v1h-1z M7,36h1v1h-1z M8,36h1v1h-1z M10,36h1v1h-1z M11,36h1v1h-1z M12,36h1v1h-1z M13,36h1v1h-1z M15,36h1v1h-1z M16,36h1v1h-1z M17,36h1v1h-1z M18,36h1v1h-1z M29,36h1v1h-1z M32,36h1v1h-1z M33,36h1v1h-1z M37,36h1v1h-1z M38,36h1v1h-1z M39,36h1v1h-1z M43,36h1v1h-1z M45,36h1v1h-1z M46,36h1v1h-1z M49,36h1v1h-1z M50,36h1v1h-1z M52,36h1v1h-1z M54,36h1v1h-1z M56,36h1v1h-1z M58,36h1v1h-1z M60,36h1v1h-1z M63,36h1v1h-1z M64,36h1v1h-1z M67,36h1v1h-1z M69,36h1v1h-1z M70,36h1v1h-1z M71,36h1v1h-1z M73,36h1v1h-1z M74,36h1v1h-1z M78,36h1v1h-1z M80,36h1v1h-1z M81,36h1v1h-1z M87,36h1v1h-1z M88,36h1v1h-1z M90,36h1v1h-1z M92,36h1v1h-1z M93,36h1v1h-1z M94,36h1v1h-1z M95,36h1v1h-1z M96,36h1v1h-1z M97,36h1v1h-1z M99,36h1v1h-1z M100,36h1v1h-1z M101,36h1v1h-1z M103,36h1v1h-1z M104,36h1v1h-1z M106,36h1v1h-1z M107,36h1v1h-1z M108,36h1v1h-1z M4,37h1v1h-1z M5,37h1v1h-1z M6,37h1v1h-1z M7,37h1v1h-1z M8,37h1v1h-1z M9,37h1v1h-1z M12,37h1v1h-1z M13,37h1v1h-1z M17,37h1v1h-1z M19,37h1v1h-1z M20,37h1v1h-1z M21,37h1v1h-1z M24,37h1v1h-1z M27,37h1v1h-1z M28,37h1v1h-1z M30,37h1v1h-1z M31,37h1v1h-1z M32,37h1v1h-1z M34,37h1v1h-1z M36,37h1v1h-1z M37,37h1v1h-1z M39,37h1v1h-1z M41,37h1v1h-1z M45,37h1v1h-1z M48,37h1v1h-1z M49,37h1v1h-1z M50,37h1v1h-1z M51,37h1v1h-1z M52,37h1v1h-1z M53,37h1v1h-1z M55,37h1v1h-1z M56,37h1v1h-1z M57,37h1v1h-1z M59,37h1v1h-1z M60,37h1v1h-1z M61,37h1v1h-1z M62,37h1v1h-1z M64,37h1v1h-1z M66,37h1v1h-1z M67,37h1v1h-1z M68,37h1v1h-1z M69,37h1v1h-1z M70,37h1v1h-1z M71,37h1v1h-1z M73,37h1v1h-1z M74,37h1v1h-1z M77,37h1v1h-1z M78,37h1v1h-1z M79,37h1v1h-1z M82,37h1v1h-1z M84,37h1v1h-1z M85,37h1v1h-1z M86,37h1v1h-1z M88,37h1v1h-1z M90,37h1v1h-1z M91,37h1v1h-1z M92,37h1v1h-1z M93,37h1v1h-1z M94,37h1v1h-1z M95,37h1v1h-1z M96,37h1v1h-1z M97,37h1v1h-1z M98,37h1v1h-1z M100,37h1v1h-1z M101,37h1v1h-1z M106,37h1v1h-1z M9,38h1v1h-1z M10,38h1v1h-1z M11,38h1v1h-1z M13,38h1v1h-1z M15,38h1v1h-1z M16,38h1v1h-1z M17,38h1v1h-1z M19,38h1v1h-1z M25,38h1v1h-1z M27,38h1v1h-1z M28,38h1v1h-1z M29,38h1v1h-1z M31,38h1v1h-1z M34,38h1v1h-1z M35,38h1v1h-1z M39,38h1v1h-1z M41,38h1v1h-1z M42,38h1v1h-1z M44,38h1v1h-1z M46,38h1v1h-1z M47,38h1v1h-1z M51,38h1v1h-1z M54,38h1v1h-1z M55,38h1v1h-1z M58,38h1v1h-1z M59,38h1v1h-1z M64,38h1v1h-1z M66,38h1v1h-1z M70,38h1v1h-1z M71,38h1v1h-1z M72,38h1v1h-1z M75,38h1v1h-1z M77,38h1v1h-1z M79,38h1v1h-1z M82,38h1v1h-1z M87,38h1v1h-1z M89,38h1v1h-1z M90,38h1v1h-1z M91,38h1v1h-1z M94,38h1v1h-1z M99,38h1v1h-1z M104,38h1v1h-1z M105,38h1v1h-1z M107,38h1v1h-1z M108,38h1v1h-1z M4,39h1v1h-1z M7,39h1v1h-1z M8,39h1v1h-1z M12,39h1v1h-1z M13,39h1v1h-1z M14,39h1v1h-1z M17,39h1v1h-1z M19,39h1v1h-1z M20,39h1v1h-1z M23,39h1v1h-1z M25,39h1v1h-1z M27,39h1v1h-1z M29,39h1v1h-1z M33,39h1v1h-1z M35,39h1v1h-1z M40,39h1v1h-1z M41,39h1v1h-1z M44,39h1v1h-1z M47,39h1v1h-1z M50,39h1v1h-1z M53,39h1v1h-1z M56,39h1v1h-1z M57,39h1v1h-1z M58,39h1v1h-1z M59,39h1v1h-1z M64,39h1v1h-1z M65,39h1v1h-1z M66,39h1v1h-1z M67,39h1v1h-1z M68,39h1v1h-1z M69,39h1v1h-1z M71,39h1v1h-1z M73,39h1v1h-1z M74,39h1v1h-1z M76,39h1v1h-1z M79,39h1v1h-1z M80,39h1v1h-1z M81,39h1v1h-1z M83,39h1v1h-1z M85,39h1v1h-1z M86,39h1v1h-1z M88,39h1v1h-1z M89,39h1v1h-1z M91,39h1v1h-1z M92,39h1v1h-1z M93,39h1v1h-1z M99,39h1v1h-1z M100,39h1v1h-1z M101,39h1v1h-1z M103,39h1v1h-1z M104,39h1v1h-1z M106,39h1v1h-1z M107,39h1v1h-1z M108,39h1v1h-1z M5,40h1v1h-1z M6,40h1v1h-1z M7,40h1v1h-1z M10,40h1v1h-1z M15,40h1v1h-1z M16,40h1v1h-1z M17,40h1v1h-1z M20,40h1v1h-1z M22,40h1v1h-1z M26,40h1v1h-1z M27,40h1v1h-1z M29,40h1v1h-1z M32,40h1v1h-1z M33,40h1v1h-1z M35,40h1v1h-1z M37,40h1v1h-1z M39,40h1v1h-1z M40,40h1v1h-1z M41,40h1v1h-1z M42,40h1v1h-1z M43,40h1v1h-1z M49,40h1v1h-1z M51,40h1v1h-1z M54,40h1v1h-1z M56,40h1v1h-1z M57,40h1v1h-1z M59,40h1v1h-1z M62,40h1v1h-1z M63,40h1v1h-1z M66,40h1v1h-1z M67,40h1v1h-1z M68,40h1v1h-1z M69,40h1v1h-1z M71,40h1v1h-1z M73,40h1v1h-1z M75,40h1v1h-1z M80,40h1v1h-1z M81,40h1v1h-1z M86,40h1v1h-1z M88,40h1v1h-1z M89,40h1v1h-1z M90,40h1v1h-1z M91,40h1v1h-1z M92,40h1v1h-1z M94,40h1v1h-1z M96,40h1v1h-1z M97,40h1v1h-1z M98,40h1v1h-1z M102,40h1v1h-1z M106,40h1v1h-1z M108,40h1v1h-1z M4,41h1v1h-1z M5,41h1v1h-1z M7,41h1v1h-1z M11,41h1v1h-1z M13,41h1v1h-1z M14,41h1v1h-1z M17,41h1v1h-1z M18,41h1v1h-1z M21,41h1v1h-1z M22,41h1v1h-1z M26,41h1v1h-1z M27,41h1v1h-1z M28,41h1v1h-1z M29,41h1v1h-1z M30,41h1v1h-1z M31,41h1v1h-1z M33,41h1v1h-1z M34,41h1v1h-1z M35,41h1v1h-1z M36,41h1v1h-1z M38,41h1v1h-1z M40,41h1v1h-1z M42,41h1v1h-1z M45,41h1v1h-1z M48,41h1v1h-1z M52,41h1v1h-1z M53,41h1v1h-1z M55,41h1v1h-1z M57,41h1v1h-1z M58,41h1v1h-1z M59,41h1v1h-1z M62,41h1v1h-1z M63,41h1v1h-1z M66,41h1v1h-1z M67,41h1v1h-1z M68,41h1v1h-1z M69,41h1v1h-1z M74,41h1v1h-1z M78,41h1v1h-1z M79,41h1v1h-1z M83,41h1v1h-1z M85,41h1v1h-1z M86,41h1v1h-1z M87,41h1v1h-1z M89,41h1v1h-1z M92,41h1v1h-1z M93,41h1v1h-1z M94,41h1v1h-1z M95,41h1v1h-1z M98,41h1v1h-1z M100,41h1v1h-1z M102,41h1v1h-1z M107,41h1v1h-1z M108,41h1v1h-1z M4,42h1v1h-1z M7,42h1v1h-1z M10,42h1v1h-1z M11,42h1v1h-1z M15,42h1v1h-1z M16,42h1v1h-1z M23,42h1v1h-1z M25,42h1v1h-1z M26,42h1v1h-1z M27,42h1v1h-1z M28,42h1v1h-1z M30,42h1v1h-1z M32,42h1v1h-1z M33,42h1v1h-1z M34,42h1v1h-1z M35,42h1v1h-1z M36,42h1v1h-1z M38,42h1v1h-1z M39,42h1v1h-1z M40,42h1v1h-1z M44,42h1v1h-1z M46,42h1v1h-1z M48,42h1v1h-1z M50,42h1v1h-1z M51,42h1v1h-1z M52,42h1v1h-1z M54,42h1v1h-1z M55,42h1v1h-1z M57,42h1v1h-1z M58,42h1v1h-1z M59,42h1v1h-1z M62,42h1v1h-1z M63,42h1v1h-1z M64,42h1v1h-1z M65,42h1v1h-1z M67,42h1v1h-1z M68,42h1v1h-1z M69,42h1v1h-1z M70,42h1v1h-1z M71,42h1v1h-1z M74,42h1v1h-1z M76,42h1v1h-1z M80,42h1v1h-1z M81,42h1v1h-1z M82,42h1v1h-1z M84,42h1v1h-1z M86,42h1v1h-1z M87,42h1v1h-1z M93,42h1v1h-1z M94,42h1v1h-1z M96,42h1v1h-1z M98,42h1v1h-1z M99,42h1v1h-1z M102,42h1v1h-1z M103,42h1v1h-1z M104,42h1v1h-1z M4,43h1v1h-1z M5,43h1v1h-1z M6,43h1v1h-1z M8,43h1v1h-1z M9,43h1v1h-1z M12,43h1v1h-1z M13,43h1v1h-1z M14,43h1v1h-1z M18,43h1v1h-1z M19,43h1v1h-1z M24,43h1v1h-1z M25,43h1v1h-1z M26,43h1v1h-1z M27,43h1v1h-1z M28,43h1v1h-1z M29,43h1v1h-1z M30,43h1v1h-1z M31,43h1v1h-1z M34,43h1v1h-1z M35,43h1v1h-1z M36,43h1v1h-1z M38,43h1v1h-1z M39,43h1v1h-1z M40,43h1v1h-1z M41,43h1v1h-1z M42,43h1v1h-1z M43,43h1v1h-1z M44,43h1v1h-1z M45,43h1v1h-1z M47,43h1v1h-1z M48,43h1v1h-1z M49,43h1v1h-1z M53,43h1v1h-1z M54,43h1v1h-1z M55,43h1v1h-1z M56,43h1v1h-1z M57,43h1v1h-1z M58,43h1v1h-1z M59,43h1v1h-1z M60,43h1v1h-1z M62,43h1v1h-1z M63,43h1v1h-1z M64,43h1v1h-1z M67,43h1v1h-1z M68,43h1v1h-1z M70,43h1v1h-1z M71,43h1v1h-1z M72,43h1v1h-1z M73,43h1v1h-1z M74,43h1v1h-1z M78,43h1v1h-1z M79,43h1v1h-1z M82,43h1v1h-1z M84,43h1v1h-1z M86,43h1v1h-1z M88,43h1v1h-1z M89,43h1v1h-1z M90,43h1v1h-1z M92,43h1v1h-1z M96,43h1v1h-1z M97,43h1v1h-1z M98,43h1v1h-1z M100,43h1v1h-1z M103,43h1v1h-1z M104,43h1v1h-1z M105,43h1v1h-1z M106,43h1v1h-1z M108,43h1v1h-1z M8,44h1v1h-1z M9,44h1v1h-1z M10,44h1v1h-1z M11,44h1v1h-1z M12,44h1v1h-1z M15,44h1v1h-1z M19,44h1v1h-1z M20,44h1v1h-1z M22,44h1v1h-1z M23,44h1v1h-1z M25,44h1v1h-1z M26,44h1v1h-1z M28,44h1v1h-1z M33,44h1v1h-1z M34,44h1v1h-1z M37,44h1v1h-1z M40,44h1v1h-1z M41,44h1v1h-1z M42,44h1v1h-1z M45,44h1v1h-1z M47,44h1v1h-1z M49,44h1v1h-1z M51,44h1v1h-1z M52,44h1v1h-1z M54,44h1v1h-1z M59,44h1v1h-1z M60,44h1v1h-1z M61,44h1v1h-1z M66,44h1v1h-1z M67,44h1v1h-1z M68,44h1v1h-1z M69,44h1v1h-1z M70,44h1v1h-1z M71,44h1v1h-1z M73,44h1v1h-1z M74,44h1v1h-1z M75,44h1v1h-1z M77,44h1v1h-1z M82,44h1v1h-1z M83,44h1v1h-1z M84,44h1v1h-1z M91,44h1v1h-1z M92,44h1v1h-1z M93,44h1v1h-1z M95,44h1v1h-1z M97,44h1v1h-1z M98,44h1v1h-1z M100,44h1v1h-1z M101,44h1v1h-1z M102,44h1v1h-1z M103,44h1v1h-1z M104,44h1v1h-1z M4,45h1v1h-1z M6,45h1v1h-1z M7,45h1v1h-1z M8,45h1v1h-1z M9,45h1v1h-1z M11,45h1v1h-1z M13,45h1v1h-1z M16,45h1v1h-1z M18,45h1v1h-1z M19,45h1v1h-1z M22,45h1v1h-1z M24,45h1v1h-1z M25,45h1v1h-1z M27,45h1v1h-1z M28,45h1v1h-1z M31,45h1v1h-1z M34,45h1v1h-1z M35,45h1v1h-1z M41,45h1v1h-1z M42,45h1v1h-1z M43,45h1v1h-1z M45,45h1v1h-1z M47,45h1v1h-1z M48,45h1v1h-1z M50,45h1v1h-1z M52,45h1v1h-1z M54,45h1v1h-1z M57,45h1v1h-1z M59,45h1v1h-1z M63,45h1v1h-1z M66,45h1v1h-1z M67,45h1v1h-1z M68,45h1v1h-1z M69,45h1v1h-1z M70,45h1v1h-1z M73,45h1v1h-1z M75,45h1v1h-1z M76,45h1v1h-1z M77,45h1v1h-1z M79,45h1v1h-1z M81,45h1v1h-1z M83,45h1v1h-1z M84,45h1v1h-1z M85,45h1v1h-1z M86,45h1v1h-1z M87,45h1v1h-1z M88,45h1v1h-1z M91,45h1v1h-1z M92,45h1v1h-1z M94,45h1v1h-1z M95,45h1v1h-1z M96,45h1v1h-1z M97,45h1v1h-1z M98,45h1v1h-1z M99,45h1v1h-1z M101,45h1v1h-1z M103,45h1v1h-1z M104,45h1v1h-1z M106,45h1v1h-1z M107,45h1v1h-1z M5,46h1v1h-1z M7,46h1v1h-1z M8,46h1v1h-1z M10,46h1v1h-1z M13,46h1v1h-1z M14,46h1v1h-1z M15,46h1v1h-1z M16,46h1v1h-1z M19,46h1v1h-1z M21,46h1v1h-1z M22,46h1v1h-1z M24,46h1v1h-1z M30,46h1v1h-1z M31,46h1v1h-1z M34,46h1v1h-1z M35,46h1v1h-1z M36,46h1v1h-1z M37,46h1v1h-1z M38,46h1v1h-1z M42,46h1v1h-1z M43,46h1v1h-1z M45,46h1v1h-1z M46,46h1v1h-1z M47,46h1v1h-1z M50,46h1v1h-1z M52,46h1v1h-1z M53,46h1v1h-1z M55,46h1v1h-1z M56,46h1v1h-1z M57,46h1v1h-1z M58,46h1v1h-1z M59,46h1v1h-1z M62,46h1v1h-1z M64,46h1v1h-1z M65,46h1v1h-1z M66,46h1v1h-1z M67,46h1v1h-1z M70,46h1v1h-1z M73,46h1v1h-1z M74,46h1v1h-1z M75,46h1v1h-1z M76,46h1v1h-1z M77,46h1v1h-1z M78,46h1v1h-1z M79,46h1v1h-1z M81,46h1v1h-1z M82,46h1v1h-1z M85,46h1v1h-1z M86,46h1v1h-1z M90,46h1v1h-1z M92,46h1v1h-1z M94,46h1v1h-1z M95,46h1v1h-1z M98,46h1v1h-1z M100,46h1v1h-1z M101,46h1v1h-1z M102,46h1v1h-1z M108,46h1v1h-1z M4,47h1v1h-1z M5,47h1v1h-1z M7,47h1v1h-1z M8,47h1v1h-1z M12,47h1v1h-1z M17,47h1v1h-1z M19,47h1v1h-1z M20,47h1v1h-1z M24,47h1v1h-1z M30,47h1v1h-1z M31,47h1v1h-1z M32,47h1v1h-1z M33,47h1v1h-1z M36,47h1v1h-1z M37,47h1v1h-1z M38,47h1v1h-1z M40,47h1v1h-1z M41,47h1v1h-1z M45,47h1v1h-1z M48,47h1v1h-1z M54,47h1v1h-1z M56,47h1v1h-1z M57,47h1v1h-1z M60,47h1v1h-1z M61,47h1v1h-1z M62,47h1v1h-1z M63,47h1v1h-1z M64,47h1v1h-1z M67,47h1v1h-1z M69,47h1v1h-1z M71,47h1v1h-1z M72,47h1v1h-1z M73,47h1v1h-1z M74,47h1v1h-1z M78,47h1v1h-1z M81,47h1v1h-1z M83,47h1v1h-1z M84,47h1v1h-1z M86,47h1v1h-1z M87,47h1v1h-1z M88,47h1v1h-1z M91,47h1v1h-1z M96,47h1v1h-1z M100,47h1v1h-1z M102,47h1v1h-1z M103,47h1v1h-1z M105,47h1v1h-1z M106,47h1v1h-1z M107,47h1v1h-1z M108,47h1v1h-1z M4,48h1v1h-1z M5,48h1v1h-1z M6,48h1v1h-1z M7,48h1v1h-1z M10,48h1v1h-1z M12,48h1v1h-1z M17,48h1v1h-1z M19,48h1v1h-1z M20,48h1v1h-1z M21,48h1v1h-1z M22,48h1v1h-1z M23,48h1v1h-1z M24,48h1v1h-1z M25,48h1v1h-1z M28,48h1v1h-1z M29,48h1v1h-1z M30,48h1v1h-1z M32,48h1v1h-1z M34,48h1v1h-1z M36,48h1v1h-1z M37,48h1v1h-1z M41,48h1v1h-1z M44,48h1v1h-1z M45,48h1v1h-1z M46,48h1v1h-1z M49,48h1v1h-1z M56,48h1v1h-1z M57,48h1v1h-1z M59,48h1v1h-1z M60,48h1v1h-1z M61,48h1v1h-1z M62,48h1v1h-1z M65,48h1v1h-1z M68,48h1v1h-1z M69,48h1v1h-1z M70,48h1v1h-1z M73,48h1v1h-1z M74,48h1v1h-1z M77,48h1v1h-1z M78,48h1v1h-1z M80,48h1v1h-1z M81,48h1v1h-1z M82,48h1v1h-1z M83,48h1v1h-1z M86,48h1v1h-1z M87,48h1v1h-1z M88,48h1v1h-1z M89,48h1v1h-1z M90,48h1v1h-1z M96,48h1v1h-1z M99,48h1v1h-1z M100,48h1v1h-1z M103,48h1v1h-1z M6,49h1v1h-1z M8,49h1v1h-1z M9,49h1v1h-1z M11,49h1v1h-1z M18,49h1v1h-1z M20,49h1v1h-1z M21,49h1v1h-1z M24,49h1v1h-1z M25,49h1v1h-1z M28,49h1v1h-1z M30,49h1v1h-1z M31,49h1v1h-1z M36,49h1v1h-1z M37,49h1v1h-1z M43,49h1v1h-1z M44,49h1v1h-1z M45,49h1v1h-1z M48,49h1v1h-1z M49,49h1v1h-1z M50,49h1v1h-1z M51,49h1v1h-1z M55,49h1v1h-1z M62,49h1v1h-1z M64,49h1v1h-1z M69,49h1v1h-1z M73,49h1v1h-1z M76,49h1v1h-1z M85,49h1v1h-1z M86,49h1v1h-1z M87,49h1v1h-1z M90,49h1v1h-1z M91,49h1v1h-1z M92,49h1v1h-1z M93,49h1v1h-1z M98,49h1v1h-1z M103,49h1v1h-1z M106,49h1v1h-1z M108,49h1v1h-1z M4,50h1v1h-1z M7,50h1v1h-1z M9,50h1v1h-1z M10,50h1v1h-1z M11,50h1v1h-1z M12,50h1v1h-1z M15,50h1v1h-1z M16,50h1v1h-1z M17,50h1v1h-1z M20,50h1v1h-1z M21,50h1v1h-1z M26,50h1v1h-1z M27,50h1v1h-1z M28,50h1v1h-1z M29,50h1v1h-1z M30,50h1v1h-1z M34,50h1v1h-1z M35,50h1v1h-1z M39,50h1v1h-1z M40,50h1v1h-1z M41,50h1v1h-1z M42,50h1v1h-1z M43,50h1v1h-1z M46,50h1v1h-1z M47,50h1v1h-1z M49,50h1v1h-1z M51,50h1v1h-1z M53,50h1v1h-1z M58,50h1v1h-1z M60,50h1v1h-1z M63,50h1v1h-1z M66,50h1v1h-1z M70,50h1v1h-1z M72,50h1v1h-1z M75,50h1v1h-1z M76,50h1v1h-1z M77,50h1v1h-1z M78,50h1v1h-1z M80,50h1v1h-1z M82,50h1v1h-1z M83,50h1v1h-1z M87,50h1v1h-1z M89,50h1v1h-1z M90,50h1v1h-1z M91,50h1v1h-1z M94,50h1v1h-1z M96,50h1v1h-1z M101,50h1v1h-1z M102,50h1v1h-1z M103,50h1v1h-1z M105,50h1v1h-1z M107,50h1v1h-1z M108,50h1v1h-1z M6,51h1v1h-1z M7,51h1v1h-1z M8,51h1v1h-1z M12,51h1v1h-1z M14,51h1v1h-1z M15,51h1v1h-1z M17,51h1v1h-1z M19,51h1v1h-1z M21,51h1v1h-1z M23,51h1v1h-1z M26,51h1v1h-1z M27,51h1v1h-1z M29,51h1v1h-1z M33,51h1v1h-1z M38,51h1v1h-1z M40,51h1v1h-1z M42,51h1v1h-1z M43,51h1v1h-1z M44,51h1v1h-1z M45,51h1v1h-1z M49,51h1v1h-1z M51,51h1v1h-1z M53,51h1v1h-1z M55,51h1v1h-1z M58,51h1v1h-1z M59,51h1v1h-1z M62,51h1v1h-1z M64,51h1v1h-1z M65,51h1v1h-1z M66,51h1v1h-1z M67,51h1v1h-1z M68,51h1v1h-1z M69,51h1v1h-1z M71,51h1v1h-1z M73,51h1v1h-1z M77,51h1v1h-1z M79,51h1v1h-1z M80,51h1v1h-1z M81,51h1v1h-1z M83,51h1v1h-1z M85,51h1v1h-1z M86,51h1v1h-1z M88,51h1v1h-1z M91,51h1v1h-1z M92,51h1v1h-1z M93,51h1v1h-1z M94,51h1v1h-1z M95,51h1v1h-1z M99,51h1v1h-1z M100,51h1v1h-1z M103,51h1v1h-1z M104,51h1v1h-1z M106,51h1v1h-1z M7,52h1v1h-1z M8,52h1v1h-1z M9,52h1v1h-1z M10,52h1v1h-1z M11,52h1v1h-1z M12,52h1v1h-1z M13,52h1v1h-1z M14,52h1v1h-1z M15,52h1v1h-1z M18,52h1v1h-1z M22,52h1v1h-1z M24,52h1v1h-1z M25,52h1v1h-1z M27,52h1v1h-1z M28,52h1v1h-1z M29,52h1v1h-1z M30,52h1v1h-1z M31,52h1v1h-1z M32,52h1v1h-1z M33,52h1v1h-1z M40,52h1v1h-1z M42,52h1v1h-1z M46,52h1v1h-1z M47,52h1v1h-1z M49,52h1v1h-1z M51,52h1v1h-1z M52,52h1v1h-1z M53,52h1v1h-1z M54,52h1v1h-1z M55,52h1v1h-1z M56,52h1v1h-1z M57,52h1v1h-1z M59,52h1v1h-1z M64,52h1v1h-1z M65,52h1v1h-1z M70,52h1v1h-1z M73,52h1v1h-1z M74,52h1v1h-1z M75,52h1v1h-1z M76,52h1v1h-1z M77,52h1v1h-1z M78,52h1v1h-1z M79,52h1v1h-1z M80,52h1v1h-1z M83,52h1v1h-1z M84,52h1v1h-1z M87,52h1v1h-1z M88,52h1v1h-1z M90,52h1v1h-1z M91,52h1v1h-1z M93,52h1v1h-1z M94,52h1v1h-1z M97,52h1v1h-1z M99,52h1v1h-1z M100,52h1v1h-1z M101,52h1v1h-1z M102,52h1v1h-1z M103,52h1v1h-1z M104,52h1v1h-1z M105,52h1v1h-1z M106,52h1v1h-1z M107,52h1v1h-1z M4,53h1v1h-1z M5,53h1v1h-1z M7,53h1v1h-1z M8,53h1v1h-1z M12,53h1v1h-1z M13,53h1v1h-1z M14,53h1v1h-1z M15,53h1v1h-1z M16,53h1v1h-1z M18,53h1v1h-1z M19,53h1v1h-1z M20,53h1v1h-1z M21,53h1v1h-1z M24,53h1v1h-1z M26,53h1v1h-1z M27,53h1v1h-1z M28,53h1v1h-1z M32,53h1v1h-1z M33,53h1v1h-1z M34,53h1v1h-1z M36,53h1v1h-1z M38,53h1v1h-1z M41,53h1v1h-1z M48,53h1v1h-1z M50,53h1v1h-1z M51,53h1v1h-1z M52,53h1v1h-1z M56,53h1v1h-1z M57,53h1v1h-1z M58,53h1v1h-1z M60,53h1v1h-1z M64,53h1v1h-1z M67,53h1v1h-1z M69,53h1v1h-1z M70,53h1v1h-1z M71,53h1v1h-1z M72,53h1v1h-1z M74,53h1v1h-1z M76,53h1v1h-1z M80,53h1v1h-1z M82,53h1v1h-1z M83,53h1v1h-1z M84,53h1v1h-1z M85,53h1v1h-1z M93,53h1v1h-1z M95,53h1v1h-1z M98,53h1v1h-1z M100,53h1v1h-1z M104,53h1v1h-1z M105,53h1v1h-1z M106,53h1v1h-1z M107,53h1v1h-1z M4,54h1v1h-1z M8,54h1v1h-1z M10,54h1v1h-1z M12,54h1v1h-1z M15,54h1v1h-1z M20,54h1v1h-1z M21,54h1v1h-1z M22,54h1v1h-1z M25,54h1v1h-1z M26,54h1v1h-1z M27,54h1v1h-1z M28,54h1v1h-1z M30,54h1v1h-1z M32,54h1v1h-1z M33,54h1v1h-1z M34,54h1v1h-1z M36,54h1v1h-1z M38,54h1v1h-1z M39,54h1v1h-1z M40,54h1v1h-1z M43,54h1v1h-1z M44,54h1v1h-1z M46,54h1v1h-1z M48,54h1v1h-1z M50,54h1v1h-1z M52,54h1v1h-1z M54,54h1v1h-1z M56,54h1v1h-1z M57,54h1v1h-1z M58,54h1v1h-1z M59,54h1v1h-1z M62,54h1v1h-1z M67,54h1v1h-1z M69,54h1v1h-1z M70,54h1v1h-1z M71,54h1v1h-1z M72,54h1v1h-1z M73,54h1v1h-1z M74,54h1v1h-1z M75,54h1v1h-1z M76,54h1v1h-1z M78,54h1v1h-1z M80,54h1v1h-1z M81,54h1v1h-1z M82,54h1v1h-1z M83,54h1v1h-1z M86,54h1v1h-1z M88,54h1v1h-1z M92,54h1v1h-1z M94,54h1v1h-1z M96,54h1v1h-1z M98,54h1v1h-1z M99,54h1v1h-1z M100,54h1v1h-1z M102,54h1v1h-1z M104,54h1v1h-1z M106,54h1v1h-1z M4,55h1v1h-1z M7,55h1v1h-1z M8,55h1v1h-1z M12,55h1v1h-1z M14,55h1v1h-1z M18,55h1v1h-1z M19,55h1v1h-1z M20,55h1v1h-1z M21,55h1v1h-1z M23,55h1v1h-1z M25,55h1v1h-1z M26,55h1v1h-1z M27,55h1v1h-1z M28,55h1v1h-1z M32,55h1v1h-1z M33,55h1v1h-1z M34,55h1v1h-1z M36,55h1v1h-1z M38,55h1v1h-1z M39,55h1v1h-1z M40,55h1v1h-1z M43,55h1v1h-1z M44,55h1v1h-1z M45,55h1v1h-1z M47,55h1v1h-1z M48,55h1v1h-1z M50,55h1v1h-1z M52,55h1v1h-1z M56,55h1v1h-1z M57,55h1v1h-1z M59,55h1v1h-1z M60,55h1v1h-1z M63,55h1v1h-1z M64,55h1v1h-1z M66,55h1v1h-1z M67,55h1v1h-1z M68,55h1v1h-1z M71,55h1v1h-1z M72,55h1v1h-1z M73,55h1v1h-1z M75,55h1v1h-1z M76,55h1v1h-1z M80,55h1v1h-1z M81,55h1v1h-1z M82,55h1v1h-1z M83,55h1v1h-1z M84,55h1v1h-1z M86,55h1v1h-1z M87,55h1v1h-1z M88,55h1v1h-1z M91,55h1v1h-1z M92,55h1v1h-1z M93,55h1v1h-1z M96,55h1v1h-1z M97,55h1v1h-1z M98,55h1v1h-1z M99,55h1v1h-1z M100,55h1v1h-1z M104,55h1v1h-1z M105,55h1v1h-1z M106,55h1v1h-1z M108,55h1v1h-1z M5,56h1v1h-1z M7,56h1v1h-1z M8,56h1v1h-1z M9,56h1v1h-1z M10,56h1v1h-1z M11,56h1v1h-1z M12,56h1v1h-1z M14,56h1v1h-1z M17,56h1v1h-1z M18,56h1v1h-1z M19,56h1v1h-1z M25,56h1v1h-1z M26,56h1v1h-1z M27,56h1v1h-1z M28,56h1v1h-1z M29,56h1v1h-1z M30,56h1v1h-1z M31,56h1v1h-1z M32,56h1v1h-1z M34,56h1v1h-1z M35,56h1v1h-1z M37,56h1v1h-1z M41,56h1v1h-1z M42,56h1v1h-1z M45,56h1v1h-1z M47,56h1v1h-1z M52,56h1v1h-1z M53,56h1v1h-1z M54,56h1v1h-1z M55,56h1v1h-1z M56,56h1v1h-1z M57,56h1v1h-1z M58,56h1v1h-1z M59,56h1v1h-1z M60,56h1v1h-1z M63,56h1v1h-1z M64,56h1v1h-1z M67,56h1v1h-1z M70,56h1v1h-1z M71,56h1v1h-1z M73,56h1v1h-1z M74,56h1v1h-1z M76,56h1v1h-1z M77,56h1v1h-1z M78,56h1v1h-1z M79,56h1v1h-1z M80,56h1v1h-1z M81,56h1v1h-1z M83,56h1v1h-1z M85,56h1v1h-1z M87,56h1v1h-1z M89,56h1v1h-1z M91,56h1v1h-1z M92,56h1v1h-1z M96,56h1v1h-1z M97,56h1v1h-1z M99,56h1v1h-1z M100,56h1v1h-1z M101,56h1v1h-1z M102,56h1v1h-1z M103,56h1v1h-1z M104,56h1v1h-1z M105,56h1v1h-1z M106,56h1v1h-1z M107,56h1v1h-1z M108,56h1v1h-1z M5,57h1v1h-1z M6,57h1v1h-1z M8,57h1v1h-1z M12,57h1v1h-1z M17,57h1v1h-1z M18,57h1v1h-1z M21,57h1v1h-1z M22,57h1v1h-1z M24,57h1v1h-1z M26,57h1v1h-1z M27,57h1v1h-1z M28,57h1v1h-1z M29,57h1v1h-1z M31,57h1v1h-1z M32,57h1v1h-1z M33,57h1v1h-1z M34,57h1v1h-1z M35,57h1v1h-1z M40,57h1v1h-1z M41,57h1v1h-1z M42,57h1v1h-1z M44,57h1v1h-1z M46,57h1v1h-1z M47,57h1v1h-1z M50,57h1v1h-1z M51,57h1v1h-1z M52,57h1v1h-1z M54,57h1v1h-1z M56,57h1v1h-1z M59,57h1v1h-1z M62,57h1v1h-1z M64,57h1v1h-1z M65,57h1v1h-1z M70,57h1v1h-1z M75,57h1v1h-1z M76,57h1v1h-1z M79,57h1v1h-1z M80,57h1v1h-1z M84,57h1v1h-1z M87,57h1v1h-1z M89,57h1v1h-1z M92,57h1v1h-1z M100,57h1v1h-1z M101,57h1v1h-1z M104,57h1v1h-1z M105,57h1v1h-1z M106,57h1v1h-1z M108,57h1v1h-1z M6,58h1v1h-1z M8,58h1v1h-1z M10,58h1v1h-1z M11,58h1v1h-1z M13,58h1v1h-1z M14,58h1v1h-1z M16,58h1v1h-1z M17,58h1v1h-1z M19,58h1v1h-1z M20,58h1v1h-1z M22,58h1v1h-1z M23,58h1v1h-1z M28,58h1v1h-1z M30,58h1v1h-1z M34,58h1v1h-1z M35,58h1v1h-1z M37,58h1v1h-1z M38,58h1v1h-1z M40,58h1v1h-1z M42,58h1v1h-1z M43,58h1v1h-1z M44,58h1v1h-1z M45,58h1v1h-1z M46,58h1v1h-1z M50,58h1v1h-1z M52,58h1v1h-1z M53,58h1v1h-1z M58,58h1v1h-1z M62,58h1v1h-1z M64,58h1v1h-1z M65,58h1v1h-1z M66,58h1v1h-1z M70,58h1v1h-1z M71,58h1v1h-1z M74,58h1v1h-1z M76,58h1v1h-1z M77,58h1v1h-1z M79,58h1v1h-1z M80,58h1v1h-1z M82,58h1v1h-1z M83,58h1v1h-1z M86,58h1v1h-1z M87,58h1v1h-1z M90,58h1v1h-1z M93,58h1v1h-1z M94,58h1v1h-1z M97,58h1v1h-1z M98,58h1v1h-1z M100,58h1v1h-1z M101,58h1v1h-1z M102,58h1v1h-1z M103,58h1v1h-1z M104,58h1v1h-1z M105,58h1v1h-1z M108,58h1v1h-1z M5,59h1v1h-1z M8,59h1v1h-1z M11,59h1v1h-1z M13,59h1v1h-1z M15,59h1v1h-1z M16,59h1v1h-1z M18,59h1v1h-1z M20,59h1v1h-1z M21,59h1v1h-1z M24,59h1v1h-1z M25,59h1v1h-1z M28,59h1v1h-1z M30,59h1v1h-1z M32,59h1v1h-1z M33,59h1v1h-1z M35,59h1v1h-1z M36,59h1v1h-1z M38,59h1v1h-1z M39,59h1v1h-1z M40,59h1v1h-1z M43,59h1v1h-1z M48,59h1v1h-1z M49,59h1v1h-1z M52,59h1v1h-1z M53,59h1v1h-1z M54,59h1v1h-1z M55,59h1v1h-1z M57,59h1v1h-1z M58,59h1v1h-1z M59,59h1v1h-1z M60,59h1v1h-1z M63,59h1v1h-1z M64,59h1v1h-1z M72,59h1v1h-1z M77,59h1v1h-1z M78,59h1v1h-1z M79,59h1v1h-1z M80,59h1v1h-1z M84,59h1v1h-1z M88,59h1v1h-1z M89,59h1v1h-1z M90,59h1v1h-1z M93,59h1v1h-1z M95,59h1v1h-1z M96,59h1v1h-1z M97,59h1v1h-1z M98,59h1v1h-1z M100,59h1v1h-1z M101,59h1v1h-1z M103,59h1v1h-1z M104,59h1v1h-1z M105,59h1v1h-1z M106,59h1v1h-1z M107,59h1v1h-1z M7,60h1v1h-1z M9,60h1v1h-1z M10,60h1v1h-1z M11,60h1v1h-1z M13,60h1v1h-1z M14,60h1v1h-1z M15,60h1v1h-1z M16,60h1v1h-1z M19,60h1v1h-1z M20,60h1v1h-1z M21,60h1v1h-1z M22,60h1v1h-1z M24,60h1v1h-1z M26,60h1v1h-1z M27,60h1v1h-1z M28,60h1v1h-1z M32,60h1v1h-1z M37,60h1v1h-1z M47,60h1v1h-1z M48,60h1v1h-1z M49,60h1v1h-1z M50,60h1v1h-1z M51,60h1v1h-1z M57,60h1v1h-1z M58,60h1v1h-1z M60,60h1v1h-1z M62,60h1v1h-1z M64,60h1v1h-1z M65,60h1v1h-1z M66,60h1v1h-1z M68,60h1v1h-1z M69,60h1v1h-1z M70,60h1v1h-1z M71,60h1v1h-1z M73,60h1v1h-1z M74,60h1v1h-1z M75,60h1v1h-1z M81,60h1v1h-1z M82,60h1v1h-1z M83,60h1v1h-1z M84,60h1v1h-1z M85,60h1v1h-1z M88,60h1v1h-1z M93,60h1v1h-1z M94,60h1v1h-1z M96,60h1v1h-1z M99,60h1v1h-1z M100,60h1v1h-1z M101,60h1v1h-1z M103,60h1v1h-1z M104,60h1v1h-1z M108,60h1v1h-1z M5,61h1v1h-1z M6,61h1v1h-1z M7,61h1v1h-1z M8,61h1v1h-1z M9,61h1v1h-1z M12,61h1v1h-1z M13,61h1v1h-1z M21,61h1v1h-1z M24,61h1v1h-1z M25,61h1v1h-1z M26,61h1v1h-1z M28,61h1v1h-1z M31,61h1v1h-1z M32,61h1v1h-1z M33,61h1v1h-1z M34,61h1v1h-1z M35,61h1v1h-1z M36,61h1v1h-1z M37,61h1v1h-1z M38,61h1v1h-1z M41,61h1v1h-1z M42,61h1v1h-1z M43,61h1v1h-1z M44,61h1v1h-1z M45,61h1v1h-1z M47,61h1v1h-1z M48,61h1v1h-1z M49,61h1v1h-1z M51,61h1v1h-1z M53,61h1v1h-1z M54,61h1v1h-1z M55,61h1v1h-1z M56,61h1v1h-1z M57,61h1v1h-1z M59,61h1v1h-1z M60,61h1v1h-1z M65,61h1v1h-1z M67,61h1v1h-1z M68,61h1v1h-1z M69,61h1v1h-1z M70,61h1v1h-1z M73,61h1v1h-1z M75,61h1v1h-1z M78,61h1v1h-1z M80,61h1v1h-1z M84,61h1v1h-1z M86,61h1v1h-1z M87,61h1v1h-1z M88,61h1v1h-1z M89,61h1v1h-1z M92,61h1v1h-1z M95,61h1v1h-1z M96,61h1v1h-1z M97,61h1v1h-1z M98,61h1v1h-1z M99,61h1v1h-1z M100,61h1v1h-1z M101,61h1v1h-1z M102,61h1v1h-1z M103,61h1v1h-1z M105,61h1v1h-1z M106,61h1v1h-1z M4,62h1v1h-1z M6,62h1v1h-1z M7,62h1v1h-1z M10,62h1v1h-1z M12,62h1v1h-1z M13,62h1v1h-1z M15,62h1v1h-1z M17,62h1v1h-1z M18,62h1v1h-1z M20,62h1v1h-1z M21,62h1v1h-1z M23,62h1v1h-1z M26,62h1v1h-1z M28,62h1v1h-1z M29,62h1v1h-1z M30,62h1v1h-1z M34,62h1v1h-1z M39,62h1v1h-1z M40,62h1v1h-1z M41,62h1v1h-1z M42,62h1v1h-1z M43,62h1v1h-1z M44,62h1v1h-1z M45,62h1v1h-1z M46,62h1v1h-1z M48,62h1v1h-1z M52,62h1v1h-1z M55,62h1v1h-1z M58,62h1v1h-1z M63,62h1v1h-1z M65,62h1v1h-1z M66,62h1v1h-1z M67,62h1v1h-1z M69,62h1v1h-1z M70,62h1v1h-1z M76,62h1v1h-1z M82,62h1v1h-1z M87,62h1v1h-1z M90,62h1v1h-1z M94,62h1v1h-1z M96,62h1v1h-1z M99,62h1v1h-1z M101,62h1v1h-1z M102,62h1v1h-1z M103,62h1v1h-1z M105,62h1v1h-1z M107,62h1v1h-1z M108,62h1v1h-1z M5,63h1v1h-1z M7,63h1v1h-1z M11,63h1v1h-1z M12,63h1v1h-1z M13,63h1v1h-1z M14,63h1v1h-1z M17,63h1v1h-1z M18,63h1v1h-1z M19,63h1v1h-1z M20,63h1v1h-1z M21,63h1v1h-1z M22,63h1v1h-1z M23,63h1v1h-1z M26,63h1v1h-1z M28,63h1v1h-1z M30,63h1v1h-1z M32,63h1v1h-1z M35,63h1v1h-1z M38,63h1v1h-1z M40,63h1v1h-1z M41,63h1v1h-1z M43,63h1v1h-1z M44,63h1v1h-1z M47,63h1v1h-1z M51,63h1v1h-1z M54,63h1v1h-1z M58,63h1v1h-1z M59,63h1v1h-1z M62,63h1v1h-1z M64,63h1v1h-1z M67,63h1v1h-1z M68,63h1v1h-1z M71,63h1v1h-1z M77,63h1v1h-1z M79,63h1v1h-1z M80,63h1v1h-1z M81,63h1v1h-1z M85,63h1v1h-1z M88,63h1v1h-1z M89,63h1v1h-1z M90,63h1v1h-1z M91,63h1v1h-1z M92,63h1v1h-1z M94,63h1v1h-1z M95,63h1v1h-1z M100,63h1v1h-1z M102,63h1v1h-1z M106,63h1v1h-1z M108,63h1v1h-1z M4,64h1v1h-1z M5,64h1v1h-1z M6,64h1v1h-1z M7,64h1v1h-1z M8,64h1v1h-1z M9,64h1v1h-1z M10,64h1v1h-1z M11,64h1v1h-1z M12,64h1v1h-1z M13,64h1v1h-1z M14,64h1v1h-1z M17,64h1v1h-1z M19,64h1v1h-1z M20,64h1v1h-1z M22,64h1v1h-1z M24,64h1v1h-1z M26,64h1v1h-1z M28,64h1v1h-1z M30,64h1v1h-1z M32,64h1v1h-1z M36,64h1v1h-1z M37,64h1v1h-1z M41,64h1v1h-1z M43,64h1v1h-1z M44,64h1v1h-1z M46,64h1v1h-1z M47,64h1v1h-1z M48,64h1v1h-1z M50,64h1v1h-1z M51,64h1v1h-1z M52,64h1v1h-1z M54,64h1v1h-1z M57,64h1v1h-1z M61,64h1v1h-1z M62,64h1v1h-1z M65,64h1v1h-1z M67,64h1v1h-1z M69,64h1v1h-1z M70,64h1v1h-1z M74,64h1v1h-1z M78,64h1v1h-1z M79,64h1v1h-1z M82,64h1v1h-1z M92,64h1v1h-1z M93,64h1v1h-1z M94,64h1v1h-1z M97,64h1v1h-1z M98,64h1v1h-1z M100,64h1v1h-1z M102,64h1v1h-1z M103,64h1v1h-1z M104,64h1v1h-1z M105,64h1v1h-1z M107,64h1v1h-1z M108,64h1v1h-1z M7,65h1v1h-1z M8,65h1v1h-1z M9,65h1v1h-1z M12,65h1v1h-1z M14,65h1v1h-1z M15,65h1v1h-1z M20,65h1v1h-1z M22,65h1v1h-1z M24,65h1v1h-1z M25,65h1v1h-1z M26,65h1v1h-1z M28,65h1v1h-1z M31,65h1v1h-1z M34,65h1v1h-1z M38,65h1v1h-1z M39,65h1v1h-1z M40,65h1v1h-1z M41,65h1v1h-1z M42,65h1v1h-1z M43,65h1v1h-1z M45,65h1v1h-1z M46,65h1v1h-1z M47,65h1v1h-1z M49,65h1v1h-1z M51,65h1v1h-1z M53,65h1v1h-1z M54,65h1v1h-1z M58,65h1v1h-1z M60,65h1v1h-1z M64,65h1v1h-1z M65,65h1v1h-1z M66,65h1v1h-1z M68,65h1v1h-1z M70,65h1v1h-1z M71,65h1v1h-1z M72,65h1v1h-1z M73,65h1v1h-1z M74,65h1v1h-1z M75,65h1v1h-1z M76,65h1v1h-1z M78,65h1v1h-1z M79,65h1v1h-1z M81,65h1v1h-1z M82,65h1v1h-1z M84,65h1v1h-1z M87,65h1v1h-1z M88,65h1v1h-1z M89,65h1v1h-1z M91,65h1v1h-1z M93,65h1v1h-1z M95,65h1v1h-1z M96,65h1v1h-1z M97,65h1v1h-1z M98,65h1v1h-1z M99,65h1v1h-1z M100,65h1v1h-1z M102,65h1v1h-1z M103,65h1v1h-1z M5,66h1v1h-1z M7,66h1v1h-1z M8,66h1v1h-1z M10,66h1v1h-1z M12,66h1v1h-1z M14,66h1v1h-1z M15,66h1v1h-1z M16,66h1v1h-1z M19,66h1v1h-1z M24,66h1v1h-1z M25,66h1v1h-1z M26,66h1v1h-1z M27,66h1v1h-1z M28,66h1v1h-1z M29,66h1v1h-1z M30,66h1v1h-1z M31,66h1v1h-1z M33,66h1v1h-1z M34,66h1v1h-1z M36,66h1v1h-1z M38,66h1v1h-1z M39,66h1v1h-1z M45,66h1v1h-1z M46,66h1v1h-1z M48,66h1v1h-1z M50,66h1v1h-1z M51,66h1v1h-1z M52,66h1v1h-1z M53,66h1v1h-1z M55,66h1v1h-1z M58,66h1v1h-1z M60,66h1v1h-1z M62,66h1v1h-1z M67,66h1v1h-1z M69,66h1v1h-1z M70,66h1v1h-1z M72,66h1v1h-1z M73,66h1v1h-1z M74,66h1v1h-1z M75,66h1v1h-1z M76,66h1v1h-1z M82,66h1v1h-1z M83,66h1v1h-1z M86,66h1v1h-1z M87,66h1v1h-1z M93,66h1v1h-1z M94,66h1v1h-1z M95,66h1v1h-1z M98,66h1v1h-1z M100,66h1v1h-1z M102,66h1v1h-1z M104,66h1v1h-1z M106,66h1v1h-1z M107,66h1v1h-1z M5,67h1v1h-1z M9,67h1v1h-1z M12,67h1v1h-1z M13,67h1v1h-1z M15,67h1v1h-1z M16,67h1v1h-1z M18,67h1v1h-1z M22,67h1v1h-1z M23,67h1v1h-1z M24,67h1v1h-1z M26,67h1v1h-1z M27,67h1v1h-1z M28,67h1v1h-1z M30,67h1v1h-1z M32,67h1v1h-1z M35,67h1v1h-1z M36,67h1v1h-1z M39,67h1v1h-1z M40,67h1v1h-1z M41,67h1v1h-1z M42,67h1v1h-1z M43,67h1v1h-1z M44,67h1v1h-1z M46,67h1v1h-1z M48,67h1v1h-1z M50,67h1v1h-1z M52,67h1v1h-1z M53,67h1v1h-1z M55,67h1v1h-1z M57,67h1v1h-1z M59,67h1v1h-1z M60,67h1v1h-1z M62,67h1v1h-1z M63,67h1v1h-1z M64,67h1v1h-1z M65,67h1v1h-1z M67,67h1v1h-1z M68,67h1v1h-1z M70,67h1v1h-1z M72,67h1v1h-1z M73,67h1v1h-1z M75,67h1v1h-1z M76,67h1v1h-1z M78,67h1v1h-1z M80,67h1v1h-1z M81,67h1v1h-1z M83,67h1v1h-1z M84,67h1v1h-1z M85,67h1v1h-1z M86,67h1v1h-1z M88,67h1v1h-1z M90,67h1v1h-1z M92,67h1v1h-1z M93,67h1v1h-1z M94,67h1v1h-1z M95,67h1v1h-1z M96,67h1v1h-1z M97,67h1v1h-1z M101,67h1v1h-1z M102,67h1v1h-1z M103,67h1v1h-1z M105,67h1v1h-1z M106,67h1v1h-1z M107,67h1v1h-1z M4,68h1v1h-1z M5,68h1v1h-1z M6,68h1v1h-1z M7,68h1v1h-1z M8,68h1v1h-1z M10,68h1v1h-1z M11,68h1v1h-1z M12,68h1v1h-1z M14,68h1v1h-1z M16,68h1v1h-1z M19,68h1v1h-1z M20,68h1v1h-1z M21,68h1v1h-1z M23,68h1v1h-1z M24,68h1v1h-1z M29,68h1v1h-1z M30,68h1v1h-1z M31,68h1v1h-1z M33,68h1v1h-1z M34,68h1v1h-1z M37,68h1v1h-1z M38,68h1v1h-1z M39,68h1v1h-1z M40,68h1v1h-1z M41,68h1v1h-1z M42,68h1v1h-1z M43,68h1v1h-1z M45,68h1v1h-1z M46,68h1v1h-1z M47,68h1v1h-1z M48,68h1v1h-1z M49,68h1v1h-1z M50,68h1v1h-1z M51,68h1v1h-1z M53,68h1v1h-1z M54,68h1v1h-1z M56,68h1v1h-1z M57,68h1v1h-1z M58,68h1v1h-1z M61,68h1v1h-1z M62,68h1v1h-1z M65,68h1v1h-1z M66,68h1v1h-1z M67,68h1v1h-1z M69,68h1v1h-1z M71,68h1v1h-1z M72,68h1v1h-1z M75,68h1v1h-1z M76,68h1v1h-1z M77,68h1v1h-1z M78,68h1v1h-1z M80,68h1v1h-1z M81,68h1v1h-1z M84,68h1v1h-1z M85,68h1v1h-1z M86,68h1v1h-1z M87,68h1v1h-1z M90,68h1v1h-1z M91,68h1v1h-1z M95,68h1v1h-1z M97,68h1v1h-1z M98,68h1v1h-1z M99,68h1v1h-1z M101,68h1v1h-1z M102,68h1v1h-1z M103,68h1v1h-1z M4,69h1v1h-1z M5,69h1v1h-1z M6,69h1v1h-1z M11,69h1v1h-1z M15,69h1v1h-1z M17,69h1v1h-1z M18,69h1v1h-1z M21,69h1v1h-1z M23,69h1v1h-1z M24,69h1v1h-1z M25,69h1v1h-1z M26,69h1v1h-1z M27,69h1v1h-1z M29,69h1v1h-1z M30,69h1v1h-1z M31,69h1v1h-1z M32,69h1v1h-1z M34,69h1v1h-1z M38,69h1v1h-1z M41,69h1v1h-1z M44,69h1v1h-1z M45,69h1v1h-1z M48,69h1v1h-1z M49,69h1v1h-1z M50,69h1v1h-1z M56,69h1v1h-1z M58,69h1v1h-1z M59,69h1v1h-1z M61,69h1v1h-1z M63,69h1v1h-1z M64,69h1v1h-1z M65,69h1v1h-1z M66,69h1v1h-1z M67,69h1v1h-1z M68,69h1v1h-1z M70,69h1v1h-1z M73,69h1v1h-1z M75,69h1v1h-1z M76,69h1v1h-1z M78,69h1v1h-1z M79,69h1v1h-1z M80,69h1v1h-1z M82,69h1v1h-1z M85,69h1v1h-1z M86,69h1v1h-1z M87,69h1v1h-1z M88,69h1v1h-1z M95,69h1v1h-1z M96,69h1v1h-1z M98,69h1v1h-1z M100,69h1v1h-1z M101,69h1v1h-1z M104,69h1v1h-1z M105,69h1v1h-1z M108,69h1v1h-1z M4,70h1v1h-1z M7,70h1v1h-1z M8,70h1v1h-1z M9,70h1v1h-1z M10,70h1v1h-1z M11,70h1v1h-1z M14,70h1v1h-1z M16,70h1v1h-1z M20,70h1v1h-1z M25,70h1v1h-1z M26,70h1v1h-1z M28,70h1v1h-1z M29,70h1v1h-1z M31,70h1v1h-1z M32,70h1v1h-1z M34,70h1v1h-1z M38,70h1v1h-1z M39,70h1v1h-1z M41,70h1v1h-1z M42,70h1v1h-1z M44,70h1v1h-1z M45,70h1v1h-1z M46,70h1v1h-1z M50,70h1v1h-1z M51,70h1v1h-1z M52,70h1v1h-1z M53,70h1v1h-1z M55,70h1v1h-1z M57,70h1v1h-1z M58,70h1v1h-1z M60,70h1v1h-1z M61,70h1v1h-1z M62,70h1v1h-1z M63,70h1v1h-1z M66,70h1v1h-1z M68,70h1v1h-1z M70,70h1v1h-1z M71,70h1v1h-1z M72,70h1v1h-1z M73,70h1v1h-1z M74,70h1v1h-1z M76,70h1v1h-1z M78,70h1v1h-1z M80,70h1v1h-1z M82,70h1v1h-1z M83,70h1v1h-1z M84,70h1v1h-1z M86,70h1v1h-1z M90,70h1v1h-1z M94,70h1v1h-1z M96,70h1v1h-1z M98,70h1v1h-1z M103,70h1v1h-1z M5,71h1v1h-1z M6,71h1v1h-1z M7,71h1v1h-1z M13,71h1v1h-1z M15,71h1v1h-1z M17,71h1v1h-1z M19,71h1v1h-1z M21,71h1v1h-1z M22,71h1v1h-1z M26,71h1v1h-1z M27,71h1v1h-1z M29,71h1v1h-1z M32,71h1v1h-1z M33,71h1v1h-1z M35,71h1v1h-1z M36,71h1v1h-1z M38,71h1v1h-1z M40,71h1v1h-1z M43,71h1v1h-1z M48,71h1v1h-1z M49,71h1v1h-1z M51,71h1v1h-1z M52,71h1v1h-1z M54,71h1v1h-1z M56,71h1v1h-1z M57,71h1v1h-1z M60,71h1v1h-1z M61,71h1v1h-1z M62,71h1v1h-1z M63,71h1v1h-1z M64,71h1v1h-1z M65,71h1v1h-1z M66,71h1v1h-1z M67,71h1v1h-1z M70,71h1v1h-1z M72,71h1v1h-1z M73,71h1v1h-1z M74,71h1v1h-1z M75,71h1v1h-1z M79,71h1v1h-1z M80,71h1v1h-1z M82,71h1v1h-1z M84,71h1v1h-1z M87,71h1v1h-1z M88,71h1v1h-1z M89,71h1v1h-1z M90,71h1v1h-1z M96,71h1v1h-1z M97,71h1v1h-1z M99,71h1v1h-1z M100,71h1v1h-1z M101,71h1v1h-1z M103,71h1v1h-1z M104,71h1v1h-1z M105,71h1v1h-1z M106,71h1v1h-1z M5,72h1v1h-1z M6,72h1v1h-1z M7,72h1v1h-1z M8,72h1v1h-1z M9,72h1v1h-1z M10,72h1v1h-1z M11,72h1v1h-1z M13,72h1v1h-1z M15,72h1v1h-1z M16,72h1v1h-1z M17,72h1v1h-1z M18,72h1v1h-1z M28,72h1v1h-1z M33,72h1v1h-1z M34,72h1v1h-1z M35,72h1v1h-1z M37,72h1v1h-1z M38,72h1v1h-1z M41,72h1v1h-1z M42,72h1v1h-1z M43,72h1v1h-1z M44,72h1v1h-1z M48,72h1v1h-1z M49,72h1v1h-1z M51,72h1v1h-1z M52,72h1v1h-1z M55,72h1v1h-1z M56,72h1v1h-1z M58,72h1v1h-1z M59,72h1v1h-1z M60,72h1v1h-1z M61,72h1v1h-1z M63,72h1v1h-1z M64,72h1v1h-1z M65,72h1v1h-1z M66,72h1v1h-1z M67,72h1v1h-1z M71,72h1v1h-1z M73,72h1v1h-1z M75,72h1v1h-1z M76,72h1v1h-1z M79,72h1v1h-1z M83,72h1v1h-1z M85,72h1v1h-1z M86,72h1v1h-1z M87,72h1v1h-1z M88,72h1v1h-1z M89,72h1v1h-1z M90,72h1v1h-1z M91,72h1v1h-1z M92,72h1v1h-1z M93,72h1v1h-1z M94,72h1v1h-1z M96,72h1v1h-1z M98,72h1v1h-1z M99,72h1v1h-1z M101,72h1v1h-1z M104,72h1v1h-1z M106,72h1v1h-1z M107,72h1v1h-1z M4,73h1v1h-1z M6,73h1v1h-1z M7,73h1v1h-1z M8,73h1v1h-1z M9,73h1v1h-1z M13,73h1v1h-1z M15,73h1v1h-1z M18,73h1v1h-1z M20,73h1v1h-1z M21,73h1v1h-1z M22,73h1v1h-1z M25,73h1v1h-1z M26,73h1v1h-1z M27,73h1v1h-1z M28,73h1v1h-1z M32,73h1v1h-1z M33,73h1v1h-1z M34,73h1v1h-1z M37,73h1v1h-1z M38,73h1v1h-1z M40,73h1v1h-1z M41,73h1v1h-1z M42,73h1v1h-1z M43,73h1v1h-1z M44,73h1v1h-1z M45,73h1v1h-1z M46,73h1v1h-1z M47,73h1v1h-1z M53,73h1v1h-1z M54,73h1v1h-1z M55,73h1v1h-1z M56,73h1v1h-1z M57,73h1v1h-1z M58,73h1v1h-1z M60,73h1v1h-1z M61,73h1v1h-1z M62,73h1v1h-1z M66,73h1v1h-1z M67,73h1v1h-1z M68,73h1v1h-1z M69,73h1v1h-1z M70,73h1v1h-1z M79,73h1v1h-1z M80,73h1v1h-1z M81,73h1v1h-1z M84,73h1v1h-1z M85,73h1v1h-1z M88,73h1v1h-1z M91,73h1v1h-1z M92,73h1v1h-1z M95,73h1v1h-1z M96,73h1v1h-1z M98,73h1v1h-1z M99,73h1v1h-1z M100,73h1v1h-1z M101,73h1v1h-1z M102,73h1v1h-1z M104,73h1v1h-1z M105,73h1v1h-1z M106,73h1v1h-1z M107,73h1v1h-1z M4,74h1v1h-1z M6,74h1v1h-1z M7,74h1v1h-1z M10,74h1v1h-1z M15,74h1v1h-1z M16,74h1v1h-1z M19,74h1v1h-1z M21,74h1v1h-1z M28,74h1v1h-1z M29,74h1v1h-1z M30,74h1v1h-1z M32,74h1v1h-1z M34,74h1v1h-1z M35,74h1v1h-1z M36,74h1v1h-1z M41,74h1v1h-1z M42,74h1v1h-1z M46,74h1v1h-1z M49,74h1v1h-1z M52,74h1v1h-1z M55,74h1v1h-1z M56,74h1v1h-1z M57,74h1v1h-1z M58,74h1v1h-1z M63,74h1v1h-1z M66,74h1v1h-1z M67,74h1v1h-1z M68,74h1v1h-1z M70,74h1v1h-1z M72,74h1v1h-1z M76,74h1v1h-1z M78,74h1v1h-1z M79,74h1v1h-1z M82,74h1v1h-1z M84,74h1v1h-1z M87,74h1v1h-1z M89,74h1v1h-1z M90,74h1v1h-1z M91,74h1v1h-1z M92,74h1v1h-1z M94,74h1v1h-1z M95,74h1v1h-1z M102,74h1v1h-1z M104,74h1v1h-1z M106,74h1v1h-1z M108,74h1v1h-1z M4,75h1v1h-1z M5,75h1v1h-1z M6,75h1v1h-1z M7,75h1v1h-1z M8,75h1v1h-1z M9,75h1v1h-1z M11,75h1v1h-1z M12,75h1v1h-1z M15,75h1v1h-1z M17,75h1v1h-1z M18,75h1v1h-1z M19,75h1v1h-1z M20,75h1v1h-1z M23,75h1v1h-1z M25,75h1v1h-1z M26,75h1v1h-1z M31,75h1v1h-1z M33,75h1v1h-1z M35,75h1v1h-1z M38,75h1v1h-1z M39,75h1v1h-1z M40,75h1v1h-1z M42,75h1v1h-1z M43,75h1v1h-1z M44,75h1v1h-1z M47,75h1v1h-1z M49,75h1v1h-1z M51,75h1v1h-1z M53,75h1v1h-1z M59,75h1v1h-1z M61,75h1v1h-1z M64,75h1v1h-1z M65,75h1v1h-1z M66,75h1v1h-1z M67,75h1v1h-1z M68,75h1v1h-1z M69,75h1v1h-1z M71,75h1v1h-1z M73,75h1v1h-1z M76,75h1v1h-1z M79,75h1v1h-1z M80,75h1v1h-1z M81,75h1v1h-1z M83,75h1v1h-1z M86,75h1v1h-1z M88,75h1v1h-1z M90,75h1v1h-1z M91,75h1v1h-1z M92,75h1v1h-1z M99,75h1v1h-1z M100,75h1v1h-1z M101,75h1v1h-1z M103,75h1v1h-1z M106,75h1v1h-1z M107,75h1v1h-1z M108,75h1v1h-1z M5,76h1v1h-1z M8,76h1v1h-1z M9,76h1v1h-1z M10,76h1v1h-1z M11,76h1v1h-1z M12,76h1v1h-1z M14,76h1v1h-1z M20,76h1v1h-1z M21,76h1v1h-1z M22,76h1v1h-1z M24,76h1v1h-1z M25,76h1v1h-1z M26,76h1v1h-1z M27,76h1v1h-1z M28,76h1v1h-1z M29,76h1v1h-1z M30,76h1v1h-1z M31,76h1v1h-1z M32,76h1v1h-1z M34,76h1v1h-1z M35,76h1v1h-1z M39,76h1v1h-1z M40,76h1v1h-1z M41,76h1v1h-1z M42,76h1v1h-1z M45,76h1v1h-1z M46,76h1v1h-1z M48,76h1v1h-1z M49,76h1v1h-1z M51,76h1v1h-1z M52,76h1v1h-1z M53,76h1v1h-1z M54,76h1v1h-1z M55,76h1v1h-1z M56,76h1v1h-1z M57,76h1v1h-1z M61,76h1v1h-1z M62,76h1v1h-1z M67,76h1v1h-1z M70,76h1v1h-1z M73,76h1v1h-1z M74,76h1v1h-1z M75,76h1v1h-1z M76,76h1v1h-1z M77,76h1v1h-1z M78,76h1v1h-1z M79,76h1v1h-1z M80,76h1v1h-1z M83,76h1v1h-1z M84,76h1v1h-1z M85,76h1v1h-1z M90,76h1v1h-1z M91,76h1v1h-1z M96,76h1v1h-1z M98,76h1v1h-1z M99,76h1v1h-1z M100,76h1v1h-1z M101,76h1v1h-1z M102,76h1v1h-1z M103,76h1v1h-1z M104,76h1v1h-1z M105,76h1v1h-1z M107,76h1v1h-1z M108,76h1v1h-1z M4,77h1v1h-1z M5,77h1v1h-1z M7,77h1v1h-1z M8,77h1v1h-1z M12,77h1v1h-1z M14,77h1v1h-1z M15,77h1v1h-1z M17,77h1v1h-1z M18,77h1v1h-1z M23,77h1v1h-1z M24,77h1v1h-1z M25,77h1v1h-1z M28,77h1v1h-1z M32,77h1v1h-1z M33,77h1v1h-1z M35,77h1v1h-1z M36,77h1v1h-1z M38,77h1v1h-1z M39,77h1v1h-1z M40,77h1v1h-1z M42,77h1v1h-1z M43,77h1v1h-1z M44,77h1v1h-1z M46,77h1v1h-1z M48,77h1v1h-1z M52,77h1v1h-1z M56,77h1v1h-1z M57,77h1v1h-1z M58,77h1v1h-1z M60,77h1v1h-1z M61,77h1v1h-1z M63,77h1v1h-1z M64,77h1v1h-1z M68,77h1v1h-1z M70,77h1v1h-1z M71,77h1v1h-1z M72,77h1v1h-1z M73,77h1v1h-1z M74,77h1v1h-1z M75,77h1v1h-1z M76,77h1v1h-1z M80,77h1v1h-1z M81,77h1v1h-1z M82,77h1v1h-1z M85,77h1v1h-1z M86,77h1v1h-1z M88,77h1v1h-1z M89,77h1v1h-1z M91,77h1v1h-1z M94,77h1v1h-1z M95,77h1v1h-1z M99,77h1v1h-1z M100,77h1v1h-1z M104,77h1v1h-1z M105,77h1v1h-1z M106,77h1v1h-1z M4,78h1v1h-1z M5,78h1v1h-1z M8,78h1v1h-1z M10,78h1v1h-1z M12,78h1v1h-1z M14,78h1v1h-1z M16,78h1v1h-1z M17,78h1v1h-1z M18,78h1v1h-1z M19,78h1v1h-1z M20,78h1v1h-1z M24,78h1v1h-1z M25,78h1v1h-1z M28,78h1v1h-1z M30,78h1v1h-1z M32,78h1v1h-1z M34,78h1v1h-1z M35,78h1v1h-1z M38,78h1v1h-1z M40,78h1v1h-1z M43,78h1v1h-1z M44,78h1v1h-1z M45,78h1v1h-1z M46,78h1v1h-1z M47,78h1v1h-1z M48,78h1v1h-1z M50,78h1v1h-1z M52,78h1v1h-1z M54,78h1v1h-1z M56,78h1v1h-1z M57,78h1v1h-1z M58,78h1v1h-1z M62,78h1v1h-1z M67,78h1v1h-1z M68,78h1v1h-1z M69,78h1v1h-1z M70,78h1v1h-1z M74,78h1v1h-1z M75,78h1v1h-1z M76,78h1v1h-1z M78,78h1v1h-1z M80,78h1v1h-1z M81,78h1v1h-1z M82,78h1v1h-1z M83,78h1v1h-1z M85,78h1v1h-1z M86,78h1v1h-1z M87,78h1v1h-1z M93,78h1v1h-1z M94,78h1v1h-1z M95,78h1v1h-1z M98,78h1v1h-1z M99,78h1v1h-1z M100,78h1v1h-1z M102,78h1v1h-1z M104,78h1v1h-1z M107,78h1v1h-1z M4,79h1v1h-1z M5,79h1v1h-1z M8,79h1v1h-1z M12,79h1v1h-1z M13,79h1v1h-1z M16,79h1v1h-1z M19,79h1v1h-1z M22,79h1v1h-1z M24,79h1v1h-1z M27,79h1v1h-1z M28,79h1v1h-1z M32,79h1v1h-1z M33,79h1v1h-1z M35,79h1v1h-1z M36,79h1v1h-1z M39,79h1v1h-1z M40,79h1v1h-1z M43,79h1v1h-1z M44,79h1v1h-1z M45,79h1v1h-1z M48,79h1v1h-1z M50,79h1v1h-1z M51,79h1v1h-1z M52,79h1v1h-1z M56,79h1v1h-1z M57,79h1v1h-1z M59,79h1v1h-1z M60,79h1v1h-1z M61,79h1v1h-1z M64,79h1v1h-1z M66,79h1v1h-1z M67,79h1v1h-1z M68,79h1v1h-1z M70,79h1v1h-1z M71,79h1v1h-1z M72,79h1v1h-1z M75,79h1v1h-1z M76,79h1v1h-1z M80,79h1v1h-1z M83,79h1v1h-1z M84,79h1v1h-1z M87,79h1v1h-1z M88,79h1v1h-1z M89,79h1v1h-1z M91,79h1v1h-1z M92,79h1v1h-1z M93,79h1v1h-1z M94,79h1v1h-1z M95,79h1v1h-1z M96,79h1v1h-1z M98,79h1v1h-1z M100,79h1v1h-1z M104,79h1v1h-1z M105,79h1v1h-1z M106,79h1v1h-1z M4,80h1v1h-1z M5,80h1v1h-1z M6,80h1v1h-1z M7,80h1v1h-1z M8,80h1v1h-1z M9,80h1v1h-1z M10,80h1v1h-1z M11,80h1v1h-1z M12,80h1v1h-1z M13,80h1v1h-1z M14,80h1v1h-1z M15,80h1v1h-1z M19,80h1v1h-1z M20,80h1v1h-1z M22,80h1v1h-1z M23,80h1v1h-1z M26,80h1v1h-1z M28,80h1v1h-1z M29,80h1v1h-1z M30,80h1v1h-1z M31,80h1v1h-1z M32,80h1v1h-1z M33,80h1v1h-1z M34,80h1v1h-1z M39,80h1v1h-1z M41,80h1v1h-1z M46,80h1v1h-1z M48,80h1v1h-1z M49,80h1v1h-1z M50,80h1v1h-1z M52,80h1v1h-1z M53,80h1v1h-1z M54,80h1v1h-1z M55,80h1v1h-1z M56,80h1v1h-1z M58,80h1v1h-1z M59,80h1v1h-1z M61,80h1v1h-1z M62,80h1v1h-1z M64,80h1v1h-1z M67,80h1v1h-1z M70,80h1v1h-1z M72,80h1v1h-1z M75,80h1v1h-1z M76,80h1v1h-1z M77,80h1v1h-1z M78,80h1v1h-1z M79,80h1v1h-1z M80,80h1v1h-1z M81,80h1v1h-1z M84,80h1v1h-1z M86,80h1v1h-1z M87,80h1v1h-1z M89,80h1v1h-1z M90,80h1v1h-1z M91,80h1v1h-1z M92,80h1v1h-1z M95,80h1v1h-1z M96,80h1v1h-1z M99,80h1v1h-1z M100,80h1v1h-1z M101,80h1v1h-1z M102,80h1v1h-1z M103,80h1v1h-1z M104,80h1v1h-1z M106,80h1v1h-1z M107,80h1v1h-1z M108,80h1v1h-1z M4,81h1v1h-1z M5,81h1v1h-1z M7,81h1v1h-1z M8,81h1v1h-1z M11,81h1v1h-1z M12,81h1v1h-1z M15,81h1v1h-1z M16,81h1v1h-1z M17,81h1v1h-1z M20,81h1v1h-1z M23,81h1v1h-1z M25,81h1v1h-1z M27,81h1v1h-1z M29,81h1v1h-1z M32,81h1v1h-1z M33,81h1v1h-1z M34,81h1v1h-1z M37,81h1v1h-1z M38,81h1v1h-1z M41,81h1v1h-1z M44,81h1v1h-1z M47,81h1v1h-1z M49,81h1v1h-1z M50,81h1v1h-1z M51,81h1v1h-1z M52,81h1v1h-1z M53,81h1v1h-1z M55,81h1v1h-1z M57,81h1v1h-1z M62,81h1v1h-1z M64,81h1v1h-1z M65,81h1v1h-1z M69,81h1v1h-1z M70,81h1v1h-1z M71,81h1v1h-1z M72,81h1v1h-1z M73,81h1v1h-1z M74,81h1v1h-1z M75,81h1v1h-1z M76,81h1v1h-1z M77,81h1v1h-1z M82,81h1v1h-1z M83,81h1v1h-1z M85,81h1v1h-1z M87,81h1v1h-1z M91,81h1v1h-1z M92,81h1v1h-1z M94,81h1v1h-1z M95,81h1v1h-1z M96,81h1v1h-1z M97,81h1v1h-1z M100,81h1v1h-1z M104,81h1v1h-1z M106,81h1v1h-1z M107,81h1v1h-1z M7,82h1v1h-1z M8,82h1v1h-1z M10,82h1v1h-1z M11,82h1v1h-1z M12,82h1v1h-1z M16,82h1v1h-1z M19,82h1v1h-1z M22,82h1v1h-1z M25,82h1v1h-1z M26,82h1v1h-1z M29,82h1v1h-1z M32,82h1v1h-1z M33,82h1v1h-1z M34,82h1v1h-1z M35,82h1v1h-1z M36,82h1v1h-1z M38,82h1v1h-1z M39,82h1v1h-1z M40,82h1v1h-1z M42,82h1v1h-1z M45,82h1v1h-1z M46,82h1v1h-1z M48,82h1v1h-1z M49,82h1v1h-1z M50,82h1v1h-1z M54,82h1v1h-1z M55,82h1v1h-1z M56,82h1v1h-1z M58,82h1v1h-1z M62,82h1v1h-1z M63,82h1v1h-1z M66,82h1v1h-1z M68,82h1v1h-1z M70,82h1v1h-1z M71,82h1v1h-1z M74,82h1v1h-1z M76,82h1v1h-1z M78,82h1v1h-1z M80,82h1v1h-1z M82,82h1v1h-1z M83,82h1v1h-1z M84,82h1v1h-1z M86,82h1v1h-1z M87,82h1v1h-1z M90,82h1v1h-1z M91,82h1v1h-1z M94,82h1v1h-1z M95,82h1v1h-1z M97,82h1v1h-1z M98,82h1v1h-1z M99,82h1v1h-1z M100,82h1v1h-1z M102,82h1v1h-1z M103,82h1v1h-1z M105,82h1v1h-1z M106,82h1v1h-1z M108,82h1v1h-1z M5,83h1v1h-1z M6,83h1v1h-1z M7,83h1v1h-1z M8,83h1v1h-1z M9,83h1v1h-1z M11,83h1v1h-1z M13,83h1v1h-1z M17,83h1v1h-1z M21,83h1v1h-1z M23,83h1v1h-1z M29,83h1v1h-1z M33,83h1v1h-1z M36,83h1v1h-1z M37,83h1v1h-1z M39,83h1v1h-1z M40,83h1v1h-1z M42,83h1v1h-1z M43,83h1v1h-1z M45,83h1v1h-1z M48,83h1v1h-1z M49,83h1v1h-1z M50,83h1v1h-1z M51,83h1v1h-1z M53,83h1v1h-1z M54,83h1v1h-1z M55,83h1v1h-1z M60,83h1v1h-1z M62,83h1v1h-1z M63,83h1v1h-1z M64,83h1v1h-1z M65,83h1v1h-1z M66,83h1v1h-1z M67,83h1v1h-1z M69,83h1v1h-1z M70,83h1v1h-1z M72,83h1v1h-1z M73,83h1v1h-1z M75,83h1v1h-1z M76,83h1v1h-1z M77,83h1v1h-1z M78,83h1v1h-1z M79,83h1v1h-1z M81,83h1v1h-1z M84,83h1v1h-1z M85,83h1v1h-1z M87,83h1v1h-1z M88,83h1v1h-1z M90,83h1v1h-1z M91,83h1v1h-1z M93,83h1v1h-1z M94,83h1v1h-1z M96,83h1v1h-1z M97,83h1v1h-1z M98,83h1v1h-1z M102,83h1v1h-1z M103,83h1v1h-1z M104,83h1v1h-1z M105,83h1v1h-1z M106,83h1v1h-1z M107,83h1v1h-1z M5,84h1v1h-1z M6,84h1v1h-1z M7,84h1v1h-1z M9,84h1v1h-1z M10,84h1v1h-1z M13,84h1v1h-1z M14,84h1v1h-1z M15,84h1v1h-1z M16,84h1v1h-1z M17,84h1v1h-1z M19,84h1v1h-1z M21,84h1v1h-1z M22,84h1v1h-1z M23,84h1v1h-1z M27,84h1v1h-1z M29,84h1v1h-1z M31,84h1v1h-1z M33,84h1v1h-1z M35,84h1v1h-1z M37,84h1v1h-1z M38,84h1v1h-1z M45,84h1v1h-1z M46,84h1v1h-1z M47,84h1v1h-1z M49,84h1v1h-1z M50,84h1v1h-1z M51,84h1v1h-1z M54,84h1v1h-1z M56,84h1v1h-1z M58,84h1v1h-1z M59,84h1v1h-1z M61,84h1v1h-1z M65,84h1v1h-1z M68,84h1v1h-1z M69,84h1v1h-1z M70,84h1v1h-1z M73,84h1v1h-1z M74,84h1v1h-1z M75,84h1v1h-1z M77,84h1v1h-1z M78,84h1v1h-1z M79,84h1v1h-1z M81,84h1v1h-1z M82,84h1v1h-1z M83,84h1v1h-1z M85,84h1v1h-1z M86,84h1v1h-1z M87,84h1v1h-1z M90,84h1v1h-1z M91,84h1v1h-1z M93,84h1v1h-1z M94,84h1v1h-1z M95,84h1v1h-1z M96,84h1v1h-1z M100,84h1v1h-1z M104,84h1v1h-1z M4,85h1v1h-1z M5,85h1v1h-1z M9,85h1v1h-1z M13,85h1v1h-1z M16,85h1v1h-1z M18,85h1v1h-1z M20,85h1v1h-1z M21,85h1v1h-1z M23,85h1v1h-1z M24,85h1v1h-1z M28,85h1v1h-1z M29,85h1v1h-1z M30,85h1v1h-1z M33,85h1v1h-1z M35,85h1v1h-1z M36,85h1v1h-1z M37,85h1v1h-1z M40,85h1v1h-1z M41,85h1v1h-1z M44,85h1v1h-1z M46,85h1v1h-1z M48,85h1v1h-1z M49,85h1v1h-1z M50,85h1v1h-1z M52,85h1v1h-1z M53,85h1v1h-1z M54,85h1v1h-1z M55,85h1v1h-1z M59,85h1v1h-1z M60,85h1v1h-1z M64,85h1v1h-1z M65,85h1v1h-1z M68,85h1v1h-1z M73,85h1v1h-1z M77,85h1v1h-1z M78,85h1v1h-1z M79,85h1v1h-1z M81,85h1v1h-1z M84,85h1v1h-1z M87,85h1v1h-1z M88,85h1v1h-1z M89,85h1v1h-1z M92,85h1v1h-1z M93,85h1v1h-1z M94,85h1v1h-1z M95,85h1v1h-1z M96,85h1v1h-1z M97,85h1v1h-1z M98,85h1v1h-1z M99,85h1v1h-1z M100,85h1v1h-1z M102,85h1v1h-1z M103,85h1v1h-1z M104,85h1v1h-1z M105,85h1v1h-1z M107,85h1v1h-1z M108,85h1v1h-1z M5,86h1v1h-1z M6,86h1v1h-1z M8,86h1v1h-1z M10,86h1v1h-1z M11,86h1v1h-1z M13,86h1v1h-1z M17,86h1v1h-1z M18,86h1v1h-1z M21,86h1v1h-1z M23,86h1v1h-1z M25,86h1v1h-1z M26,86h1v1h-1z M27,86h1v1h-1z M28,86h1v1h-1z M29,86h1v1h-1z M34,86h1v1h-1z M36,86h1v1h-1z M42,86h1v1h-1z M46,86h1v1h-1z M47,86h1v1h-1z M48,86h1v1h-1z M54,86h1v1h-1z M58,86h1v1h-1z M61,86h1v1h-1z M63,86h1v1h-1z M64,86h1v1h-1z M65,86h1v1h-1z M66,86h1v1h-1z M68,86h1v1h-1z M70,86h1v1h-1z M71,86h1v1h-1z M72,86h1v1h-1z M76,86h1v1h-1z M77,86h1v1h-1z M78,86h1v1h-1z M79,86h1v1h-1z M81,86h1v1h-1z M82,86h1v1h-1z M83,86h1v1h-1z M89,86h1v1h-1z M90,86h1v1h-1z M92,86h1v1h-1z M94,86h1v1h-1z M101,86h1v1h-1z M102,86h1v1h-1z M103,86h1v1h-1z M107,86h1v1h-1z M108,86h1v1h-1z M4,87h1v1h-1z M6,87h1v1h-1z M7,87h1v1h-1z M11,87h1v1h-1z M12,87h1v1h-1z M14,87h1v1h-1z M15,87h1v1h-1z M17,87h1v1h-1z M21,87h1v1h-1z M22,87h1v1h-1z M29,87h1v1h-1z M32,87h1v1h-1z M33,87h1v1h-1z M35,87h1v1h-1z M38,87h1v1h-1z M39,87h1v1h-1z M40,87h1v1h-1z M41,87h1v1h-1z M42,87h1v1h-1z M43,87h1v1h-1z M44,87h1v1h-1z M45,87h1v1h-1z M46,87h1v1h-1z M47,87h1v1h-1z M49,87h1v1h-1z M51,87h1v1h-1z M52,87h1v1h-1z M54,87h1v1h-1z M58,87h1v1h-1z M59,87h1v1h-1z M61,87h1v1h-1z M64,87h1v1h-1z M68,87h1v1h-1z M71,87h1v1h-1z M74,87h1v1h-1z M75,87h1v1h-1z M76,87h1v1h-1z M78,87h1v1h-1z M79,87h1v1h-1z M80,87h1v1h-1z M85,87h1v1h-1z M86,87h1v1h-1z M88,87h1v1h-1z M89,87h1v1h-1z M90,87h1v1h-1z M92,87h1v1h-1z M93,87h1v1h-1z M101,87h1v1h-1z M102,87h1v1h-1z M103,87h1v1h-1z M104,87h1v1h-1z M105,87h1v1h-1z M106,87h1v1h-1z M108,87h1v1h-1z M4,88h1v1h-1z M7,88h1v1h-1z M8,88h1v1h-1z M10,88h1v1h-1z M18,88h1v1h-1z M22,88h1v1h-1z M23,88h1v1h-1z M25,88h1v1h-1z M26,88h1v1h-1z M28,88h1v1h-1z M29,88h1v1h-1z M31,88h1v1h-1z M32,88h1v1h-1z M34,88h1v1h-1z M36,88h1v1h-1z M37,88h1v1h-1z M38,88h1v1h-1z M41,88h1v1h-1z M44,88h1v1h-1z M46,88h1v1h-1z M48,88h1v1h-1z M49,88h1v1h-1z M53,88h1v1h-1z M55,88h1v1h-1z M56,88h1v1h-1z M57,88h1v1h-1z M58,88h1v1h-1z M60,88h1v1h-1z M61,88h1v1h-1z M62,88h1v1h-1z M63,88h1v1h-1z M64,88h1v1h-1z M65,88h1v1h-1z M66,88h1v1h-1z M68,88h1v1h-1z M69,88h1v1h-1z M74,88h1v1h-1z M75,88h1v1h-1z M78,88h1v1h-1z M79,88h1v1h-1z M81,88h1v1h-1z M84,88h1v1h-1z M87,88h1v1h-1z M88,88h1v1h-1z M94,88h1v1h-1z M95,88h1v1h-1z M97,88h1v1h-1z M99,88h1v1h-1z M101,88h1v1h-1z M102,88h1v1h-1z M105,88h1v1h-1z M107,88h1v1h-1z M5,89h1v1h-1z M6,89h1v1h-1z M7,89h1v1h-1z M8,89h1v1h-1z M11,89h1v1h-1z M13,89h1v1h-1z M16,89h1v1h-1z M17,89h1v1h-1z M18,89h1v1h-1z M19,89h1v1h-1z M22,89h1v1h-1z M23,89h1v1h-1z M25,89h1v1h-1z M30,89h1v1h-1z M32,89h1v1h-1z M35,89h1v1h-1z M36,89h1v1h-1z M37,89h1v1h-1z M39,89h1v1h-1z M40,89h1v1h-1z M41,89h1v1h-1z M42,89h1v1h-1z M43,89h1v1h-1z M46,89h1v1h-1z M47,89h1v1h-1z M48,89h1v1h-1z M49,89h1v1h-1z M50,89h1v1h-1z M54,89h1v1h-1z M56,89h1v1h-1z M59,89h1v1h-1z M60,89h1v1h-1z M61,89h1v1h-1z M62,89h1v1h-1z M63,89h1v1h-1z M66,89h1v1h-1z M68,89h1v1h-1z M73,89h1v1h-1z M76,89h1v1h-1z M78,89h1v1h-1z M80,89h1v1h-1z M81,89h1v1h-1z M82,89h1v1h-1z M83,89h1v1h-1z M87,89h1v1h-1z M88,89h1v1h-1z M89,89h1v1h-1z M90,89h1v1h-1z M92,89h1v1h-1z M93,89h1v1h-1z M95,89h1v1h-1z M96,89h1v1h-1z M98,89h1v1h-1z M99,89h1v1h-1z M100,89h1v1h-1z M101,89h1v1h-1z M107,89h1v1h-1z M4,90h1v1h-1z M6,90h1v1h-1z M9,90h1v1h-1z M10,90h1v1h-1z M12,90h1v1h-1z M15,90h1v1h-1z M20,90h1v1h-1z M22,90h1v1h-1z M25,90h1v1h-1z M30,90h1v1h-1z M31,90h1v1h-1z M32,90h1v1h-1z M33,90h1v1h-1z M34,90h1v1h-1z M38,90h1v1h-1z M45,90h1v1h-1z M46,90h1v1h-1z M50,90h1v1h-1z M52,90h1v1h-1z M56,90h1v1h-1z M57,90h1v1h-1z M58,90h1v1h-1z M59,90h1v1h-1z M62,90h1v1h-1z M67,90h1v1h-1z M69,90h1v1h-1z M70,90h1v1h-1z M72,90h1v1h-1z M74,90h1v1h-1z M77,90h1v1h-1z M78,90h1v1h-1z M79,90h1v1h-1z M80,90h1v1h-1z M81,90h1v1h-1z M82,90h1v1h-1z M83,90h1v1h-1z M86,90h1v1h-1z M88,90h1v1h-1z M91,90h1v1h-1z M93,90h1v1h-1z M94,90h1v1h-1z M98,90h1v1h-1z M105,90h1v1h-1z M7,91h1v1h-1z M8,91h1v1h-1z M11,91h1v1h-1z M14,91h1v1h-1z M15,91h1v1h-1z M17,91h1v1h-1z M18,91h1v1h-1z M22,91h1v1h-1z M24,91h1v1h-1z M25,91h1v1h-1z M26,91h1v1h-1z M28,91h1v1h-1z M30,91h1v1h-1z M32,91h1v1h-1z M33,91h1v1h-1z M34,91h1v1h-1z M35,91h1v1h-1z M36,91h1v1h-1z M39,91h1v1h-1z M40,91h1v1h-1z M41,91h1v1h-1z M42,91h1v1h-1z M43,91h1v1h-1z M44,91h1v1h-1z M47,91h1v1h-1z M48,91h1v1h-1z M49,91h1v1h-1z M51,91h1v1h-1z M52,91h1v1h-1z M55,91h1v1h-1z M56,91h1v1h-1z M57,91h1v1h-1z M58,91h1v1h-1z M59,91h1v1h-1z M60,91h1v1h-1z M63,91h1v1h-1z M64,91h1v1h-1z M67,91h1v1h-1z M68,91h1v1h-1z M71,91h1v1h-1z M72,91h1v1h-1z M74,91h1v1h-1z M76,91h1v1h-1z M77,91h1v1h-1z M79,91h1v1h-1z M80,91h1v1h-1z M83,91h1v1h-1z M84,91h1v1h-1z M85,91h1v1h-1z M87,91h1v1h-1z M88,91h1v1h-1z M90,91h1v1h-1z M91,91h1v1h-1z M92,91h1v1h-1z M95,91h1v1h-1z M96,91h1v1h-1z M97,91h1v1h-1z M98,91h1v1h-1z M102,91h1v1h-1z M103,91h1v1h-1z M105,91h1v1h-1z M106,91h1v1h-1z M108,91h1v1h-1z M5,92h1v1h-1z M6,92h1v1h-1z M8,92h1v1h-1z M9,92h1v1h-1z M10,92h1v1h-1z M11,92h1v1h-1z M12,92h1v1h-1z M14,92h1v1h-1z M15,92h1v1h-1z M16,92h1v1h-1z M17,92h1v1h-1z M26,92h1v1h-1z M29,92h1v1h-1z M30,92h1v1h-1z M34,92h1v1h-1z M35,92h1v1h-1z M38,92h1v1h-1z M40,92h1v1h-1z M41,92h1v1h-1z M42,92h1v1h-1z M49,92h1v1h-1z M53,92h1v1h-1z M54,92h1v1h-1z M55,92h1v1h-1z M57,92h1v1h-1z M59,92h1v1h-1z M63,92h1v1h-1z M64,92h1v1h-1z M70,92h1v1h-1z M72,92h1v1h-1z M73,92h1v1h-1z M78,92h1v1h-1z M79,92h1v1h-1z M80,92h1v1h-1z M81,92h1v1h-1z M85,92h1v1h-1z M90,92h1v1h-1z M92,92h1v1h-1z M94,92h1v1h-1z M95,92h1v1h-1z M97,92h1v1h-1z M98,92h1v1h-1z M99,92h1v1h-1z M101,92h1v1h-1z M103,92h1v1h-1z M106,92h1v1h-1z M108,92h1v1h-1z M6,93h1v1h-1z M7,93h1v1h-1z M8,93h1v1h-1z M9,93h1v1h-1z M11,93h1v1h-1z M13,93h1v1h-1z M17,93h1v1h-1z M18,93h1v1h-1z M19,93h1v1h-1z M21,93h1v1h-1z M22,93h1v1h-1z M23,93h1v1h-1z M24,93h1v1h-1z M25,93h1v1h-1z M27,93h1v1h-1z M28,93h1v1h-1z M29,93h1v1h-1z M31,93h1v1h-1z M33,93h1v1h-1z M36,93h1v1h-1z M37,93h1v1h-1z M39,93h1v1h-1z M41,93h1v1h-1z M43,93h1v1h-1z M48,93h1v1h-1z M49,93h1v1h-1z M50,93h1v1h-1z M51,93h1v1h-1z M53,93h1v1h-1z M55,93h1v1h-1z M57,93h1v1h-1z M58,93h1v1h-1z M59,93h1v1h-1z M60,93h1v1h-1z M61,93h1v1h-1z M63,93h1v1h-1z M68,93h1v1h-1z M70,93h1v1h-1z M71,93h1v1h-1z M73,93h1v1h-1z M75,93h1v1h-1z M77,93h1v1h-1z M80,93h1v1h-1z M81,93h1v1h-1z M89,93h1v1h-1z M90,93h1v1h-1z M93,93h1v1h-1z M95,93h1v1h-1z M97,93h1v1h-1z M98,93h1v1h-1z M99,93h1v1h-1z M102,93h1v1h-1z M103,93h1v1h-1z M104,93h1v1h-1z M105,93h1v1h-1z M106,93h1v1h-1z M108,93h1v1h-1z M6,94h1v1h-1z M10,94h1v1h-1z M11,94h1v1h-1z M13,94h1v1h-1z M21,94h1v1h-1z M22,94h1v1h-1z M24,94h1v1h-1z M25,94h1v1h-1z M26,94h1v1h-1z M27,94h1v1h-1z M29,94h1v1h-1z M32,94h1v1h-1z M34,94h1v1h-1z M36,94h1v1h-1z M38,94h1v1h-1z M40,94h1v1h-1z M42,94h1v1h-1z M44,94h1v1h-1z M46,94h1v1h-1z M48,94h1v1h-1z M50,94h1v1h-1z M51,94h1v1h-1z M52,94h1v1h-1z M53,94h1v1h-1z M54,94h1v1h-1z M56,94h1v1h-1z M58,94h1v1h-1z M62,94h1v1h-1z M66,94h1v1h-1z M68,94h1v1h-1z M70,94h1v1h-1z M71,94h1v1h-1z M72,94h1v1h-1z M74,94h1v1h-1z M75,94h1v1h-1z M76,94h1v1h-1z M77,94h1v1h-1z M78,94h1v1h-1z M80,94h1v1h-1z M82,94h1v1h-1z M83,94h1v1h-1z M86,94h1v1h-1z M89,94h1v1h-1z M90,94h1v1h-1z M93,94h1v1h-1z M94,94h1v1h-1z M97,94h1v1h-1z M98,94h1v1h-1z M99,94h1v1h-1z M100,94h1v1h-1z M102,94h1v1h-1z M103,94h1v1h-1z M104,94h1v1h-1z M106,94h1v1h-1z M108,94h1v1h-1z M5,95h1v1h-1z M7,95h1v1h-1z M8,95h1v1h-1z M11,95h1v1h-1z M12,95h1v1h-1z M13,95h1v1h-1z M14,95h1v1h-1z M18,95h1v1h-1z M20,95h1v1h-1z M21,95h1v1h-1z M26,95h1v1h-1z M27,95h1v1h-1z M28,95h1v1h-1z M29,95h1v1h-1z M30,95h1v1h-1z M31,95h1v1h-1z M32,95h1v1h-1z M36,95h1v1h-1z M38,95h1v1h-1z M39,95h1v1h-1z M40,95h1v1h-1z M42,95h1v1h-1z M43,95h1v1h-1z M46,95h1v1h-1z M48,95h1v1h-1z M49,95h1v1h-1z M52,95h1v1h-1z M60,95h1v1h-1z M62,95h1v1h-1z M64,95h1v1h-1z M65,95h1v1h-1z M66,95h1v1h-1z M67,95h1v1h-1z M70,95h1v1h-1z M72,95h1v1h-1z M75,95h1v1h-1z M76,95h1v1h-1z M78,95h1v1h-1z M79,95h1v1h-1z M80,95h1v1h-1z M81,95h1v1h-1z M82,95h1v1h-1z M84,95h1v1h-1z M85,95h1v1h-1z M87,95h1v1h-1z M88,95h1v1h-1z M91,95h1v1h-1z M96,95h1v1h-1z M97,95h1v1h-1z M98,95h1v1h-1z M101,95h1v1h-1z M103,95h1v1h-1z M104,95h1v1h-1z M105,95h1v1h-1z M106,95h1v1h-1z M107,95h1v1h-1z M108,95h1v1h-1z M4,96h1v1h-1z M5,96h1v1h-1z M6,96h1v1h-1z M9,96h1v1h-1z M10,96h1v1h-1z M14,96h1v1h-1z M15,96h1v1h-1z M16,96h1v1h-1z M18,96h1v1h-1z M21,96h1v1h-1z M23,96h1v1h-1z M26,96h1v1h-1z M29,96h1v1h-1z M31,96h1v1h-1z M32,96h1v1h-1z M36,96h1v1h-1z M38,96h1v1h-1z M40,96h1v1h-1z M41,96h1v1h-1z M44,96h1v1h-1z M45,96h1v1h-1z M46,96h1v1h-1z M56,96h1v1h-1z M57,96h1v1h-1z M58,96h1v1h-1z M59,96h1v1h-1z M60,96h1v1h-1z M62,96h1v1h-1z M63,96h1v1h-1z M66,96h1v1h-1z M69,96h1v1h-1z M70,96h1v1h-1z M71,96h1v1h-1z M73,96h1v1h-1z M74,96h1v1h-1z M79,96h1v1h-1z M80,96h1v1h-1z M81,96h1v1h-1z M82,96h1v1h-1z M86,96h1v1h-1z M89,96h1v1h-1z M90,96h1v1h-1z M91,96h1v1h-1z M93,96h1v1h-1z M94,96h1v1h-1z M95,96h1v1h-1z M96,96h1v1h-1z M101,96h1v1h-1z M102,96h1v1h-1z M107,96h1v1h-1z M108,96h1v1h-1z M4,97h1v1h-1z M6,97h1v1h-1z M7,97h1v1h-1z M8,97h1v1h-1z M11,97h1v1h-1z M12,97h1v1h-1z M15,97h1v1h-1z M16,97h1v1h-1z M18,97h1v1h-1z M19,97h1v1h-1z M24,97h1v1h-1z M25,97h1v1h-1z M29,97h1v1h-1z M30,97h1v1h-1z M34,97h1v1h-1z M35,97h1v1h-1z M36,97h1v1h-1z M37,97h1v1h-1z M38,97h1v1h-1z M39,97h1v1h-1z M40,97h1v1h-1z M43,97h1v1h-1z M45,97h1v1h-1z M47,97h1v1h-1z M48,97h1v1h-1z M49,97h1v1h-1z M53,97h1v1h-1z M54,97h1v1h-1z M56,97h1v1h-1z M57,97h1v1h-1z M58,97h1v1h-1z M60,97h1v1h-1z M62,97h1v1h-1z M64,97h1v1h-1z M65,97h1v1h-1z M68,97h1v1h-1z M70,97h1v1h-1z M71,97h1v1h-1z M72,97h1v1h-1z M73,97h1v1h-1z M77,97h1v1h-1z M78,97h1v1h-1z M80,97h1v1h-1z M81,97h1v1h-1z M83,97h1v1h-1z M84,97h1v1h-1z M86,97h1v1h-1z M90,97h1v1h-1z M91,97h1v1h-1z M92,97h1v1h-1z M93,97h1v1h-1z M94,97h1v1h-1z M95,97h1v1h-1z M97,97h1v1h-1z M100,97h1v1h-1z M101,97h1v1h-1z M102,97h1v1h-1z M103,97h1v1h-1z M104,97h1v1h-1z M105,97h1v1h-1z M106,97h1v1h-1z M108,97h1v1h-1z M4,98h1v1h-1z M5,98h1v1h-1z M6,98h1v1h-1z M10,98h1v1h-1z M11,98h1v1h-1z M13,98h1v1h-1z M16,98h1v1h-1z M19,98h1v1h-1z M20,98h1v1h-1z M22,98h1v1h-1z M24,98h1v1h-1z M27,98h1v1h-1z M29,98h1v1h-1z M30,98h1v1h-1z M31,98h1v1h-1z M34,98h1v1h-1z M36,98h1v1h-1z M42,98h1v1h-1z M43,98h1v1h-1z M46,98h1v1h-1z M47,98h1v1h-1z M48,98h1v1h-1z M51,98h1v1h-1z M53,98h1v1h-1z M54,98h1v1h-1z M58,98h1v1h-1z M59,98h1v1h-1z M64,98h1v1h-1z M65,98h1v1h-1z M66,98h1v1h-1z M67,98h1v1h-1z M68,98h1v1h-1z M70,98h1v1h-1z M71,98h1v1h-1z M72,98h1v1h-1z M75,98h1v1h-1z M77,98h1v1h-1z M82,98h1v1h-1z M83,98h1v1h-1z M87,98h1v1h-1z M90,98h1v1h-1z M91,98h1v1h-1z M94,98h1v1h-1z M97,98h1v1h-1z M99,98h1v1h-1z M102,98h1v1h-1z M103,98h1v1h-1z M104,98h1v1h-1z M106,98h1v1h-1z M107,98h1v1h-1z M108,98h1v1h-1z M6,99h1v1h-1z M8,99h1v1h-1z M9,99h1v1h-1z M13,99h1v1h-1z M14,99h1v1h-1z M16,99h1v1h-1z M17,99h1v1h-1z M18,99h1v1h-1z M19,99h1v1h-1z M23,99h1v1h-1z M24,99h1v1h-1z M25,99h1v1h-1z M27,99h1v1h-1z M29,99h1v1h-1z M30,99h1v1h-1z M31,99h1v1h-1z M32,99h1v1h-1z M33,99h1v1h-1z M34,99h1v1h-1z M35,99h1v1h-1z M39,99h1v1h-1z M40,99h1v1h-1z M41,99h1v1h-1z M42,99h1v1h-1z M43,99h1v1h-1z M44,99h1v1h-1z M45,99h1v1h-1z M46,99h1v1h-1z M47,99h1v1h-1z M49,99h1v1h-1z M50,99h1v1h-1z M51,99h1v1h-1z M55,99h1v1h-1z M56,99h1v1h-1z M57,99h1v1h-1z M59,99h1v1h-1z M62,99h1v1h-1z M64,99h1v1h-1z M65,99h1v1h-1z M67,99h1v1h-1z M68,99h1v1h-1z M69,99h1v1h-1z M71,99h1v1h-1z M73,99h1v1h-1z M74,99h1v1h-1z M76,99h1v1h-1z M78,99h1v1h-1z M79,99h1v1h-1z M80,99h1v1h-1z M81,99h1v1h-1z M83,99h1v1h-1z M85,99h1v1h-1z M88,99h1v1h-1z M89,99h1v1h-1z M90,99h1v1h-1z M91,99h1v1h-1z M92,99h1v1h-1z M93,99h1v1h-1z M95,99h1v1h-1z M97,99h1v1h-1z M99,99h1v1h-1z M101,99h1v1h-1z M102,99h1v1h-1z M106,99h1v1h-1z M7,100h1v1h-1z M8,100h1v1h-1z M10,100h1v1h-1z M11,100h1v1h-1z M12,100h1v1h-1z M14,100h1v1h-1z M15,100h1v1h-1z M16,100h1v1h-1z M18,100h1v1h-1z M20,100h1v1h-1z M21,100h1v1h-1z M23,100h1v1h-1z M26,100h1v1h-1z M28,100h1v1h-1z M29,100h1v1h-1z M30,100h1v1h-1z M31,100h1v1h-1z M32,100h1v1h-1z M33,100h1v1h-1z M36,100h1v1h-1z M38,100h1v1h-1z M41,100h1v1h-1z M42,100h1v1h-1z M43,100h1v1h-1z M44,100h1v1h-1z M48,100h1v1h-1z M50,100h1v1h-1z M52,100h1v1h-1z M53,100h1v1h-1z M54,100h1v1h-1z M55,100h1v1h-1z M56,100h1v1h-1z M58,100h1v1h-1z M61,100h1v1h-1z M63,100h1v1h-1z M65,100h1v1h-1z M66,100h1v1h-1z M68,100h1v1h-1z M72,100h1v1h-1z M73,100h1v1h-1z M76,100h1v1h-1z M77,100h1v1h-1z M78,100h1v1h-1z M79,100h1v1h-1z M80,100h1v1h-1z M82,100h1v1h-1z M83,100h1v1h-1z M84,100h1v1h-1z M85,100h1v1h-1z M87,100h1v1h-1z M91,100h1v1h-1z M92,100h1v1h-1z M94,100h1v1h-1z M96,100h1v1h-1z M97,100h1v1h-1z M99,100h1v1h-1z M100,100h1v1h-1z M101,100h1v1h-1z M102,100h1v1h-1z M103,100h1v1h-1z M104,100h1v1h-1z M105,100h1v1h-1z M108,100h1v1h-1z M12,101h1v1h-1z M15,101h1v1h-1z M17,101h1v1h-1z M18,101h1v1h-1z M19,101h1v1h-1z M20,101h1v1h-1z M22,101h1v1h-1z M23,101h1v1h-1z M24,101h1v1h-1z M26,101h1v1h-1z M28,101h1v1h-1z M32,101h1v1h-1z M33,101h1v1h-1z M35,101h1v1h-1z M38,101h1v1h-1z M39,101h1v1h-1z M40,101h1v1h-1z M41,101h1v1h-1z M42,101h1v1h-1z M45,101h1v1h-1z M47,101h1v1h-1z M51,101h1v1h-1z M52,101h1v1h-1z M56,101h1v1h-1z M59,101h1v1h-1z M60,101h1v1h-1z M62,101h1v1h-1z M64,101h1v1h-1z M66,101h1v1h-1z M67,101h1v1h-1z M69,101h1v1h-1z M71,101h1v1h-1z M72,101h1v1h-1z M73,101h1v1h-1z M76,101h1v1h-1z M80,101h1v1h-1z M81,101h1v1h-1z M83,101h1v1h-1z M85,101h1v1h-1z M87,101h1v1h-1z M88,101h1v1h-1z M89,101h1v1h-1z M90,101h1v1h-1z M91,101h1v1h-1z M94,101h1v1h-1z M95,101h1v1h-1z M98,101h1v1h-1z M100,101h1v1h-1z M104,101h1v1h-1z M106,101h1v1h-1z M107,101h1v1h-1z M4,102h1v1h-1z M5,102h1v1h-1z M6,102h1v1h-1z M7,102h1v1h-1z M8,102h1v1h-1z M9,102h1v1h-1z M10,102h1v1h-1z M15,102h1v1h-1z M16,102h1v1h-1z M18,102h1v1h-1z M20,102h1v1h-1z M23,102h1v1h-1z M25,102h1v1h-1z M28,102h1v1h-1z M30,102h1v1h-1z M32,102h1v1h-1z M33,102h1v1h-1z M34,102h1v1h-1z M36,102h1v1h-1z M38,102h1v1h-1z M45,102h1v1h-1z M46,102h1v1h-1z M50,102h1v1h-1z M52,102h1v1h-1z M54,102h1v1h-1z M56,102h1v1h-1z M57,102h1v1h-1z M58,102h1v1h-1z M60,102h1v1h-1z M62,102h1v1h-1z M63,102h1v1h-1z M64,102h1v1h-1z M67,102h1v1h-1z M68,102h1v1h-1z M69,102h1v1h-1z M70,102h1v1h-1z M71,102h1v1h-1z M72,102h1v1h-1z M74,102h1v1h-1z M76,102h1v1h-1z M78,102h1v1h-1z M80,102h1v1h-1z M81,102h1v1h-1z M82,102h1v1h-1z M84,102h1v1h-1z M86,102h1v1h-1z M92,102h1v1h-1z M94,102h1v1h-1z M95,102h1v1h-1z M96,102h1v1h-1z M98,102h1v1h-1z M100,102h1v1h-1z M102,102h1v1h-1z M104,102h1v1h-1z M4,103h1v1h-1z M10,103h1v1h-1z M14,103h1v1h-1z M16,103h1v1h-1z M17,103h1v1h-1z M18,103h1v1h-1z M19,103h1v1h-1z M20,103h1v1h-1z M21,103h1v1h-1z M24,103h1v1h-1z M26,103h1v1h-1z M28,103h1v1h-1z M32,103h1v1h-1z M33,103h1v1h-1z M36,103h1v1h-1z M39,103h1v1h-1z M40,103h1v1h-1z M42,103h1v1h-1z M44,103h1v1h-1z M45,103h1v1h-1z M46,103h1v1h-1z M47,103h1v1h-1z M48,103h1v1h-1z M49,103h1v1h-1z M51,103h1v1h-1z M52,103h1v1h-1z M56,103h1v1h-1z M59,103h1v1h-1z M60,103h1v1h-1z M61,103h1v1h-1z M63,103h1v1h-1z M64,103h1v1h-1z M66,103h1v1h-1z M67,103h1v1h-1z M68,103h1v1h-1z M69,103h1v1h-1z M71,103h1v1h-1z M72,103h1v1h-1z M76,103h1v1h-1z M80,103h1v1h-1z M82,103h1v1h-1z M83,103h1v1h-1z M84,103h1v1h-1z M85,103h1v1h-1z M87,103h1v1h-1z M88,103h1v1h-1z M90,103h1v1h-1z M91,103h1v1h-1z M92,103h1v1h-1z M93,103h1v1h-1z M96,103h1v1h-1z M98,103h1v1h-1z M100,103h1v1h-1z M104,103h1v1h-1z M105,103h1v1h-1z M106,103h1v1h-1z M107,103h1v1h-1z M108,103h1v1h-1z M4,104h1v1h-1z M6,104h1v1h-1z M7,104h1v1h-1z M8,104h1v1h-1z M10,104h1v1h-1z M12,104h1v1h-1z M14,104h1v1h-1z M15,104h1v1h-1z M17,104h1v1h-1z M19,104h1v1h-1z M21,104h1v1h-1z M23,104h1v1h-1z M26,104h1v1h-1z M28,104h1v1h-1z M29,104h1v1h-1z M30,104h1v1h-1z M31,104h1v1h-1z M32,104h1v1h-1z M33,104h1v1h-1z M35,104h1v1h-1z M37,104h1v1h-1z M38,104h1v1h-1z M41,104h1v1h-1z M42,104h1v1h-1z M45,104h1v1h-1z M48,104h1v1h-1z M49,104h1v1h-1z M51,104h1v1h-1z M52,104h1v1h-1z M53,104h1v1h-1z M54,104h1v1h-1z M55,104h1v1h-1z M56,104h1v1h-1z M58,104h1v1h-1z M61,104h1v1h-1z M63,104h1v1h-1z M64,104h1v1h-1z M66,104h1v1h-1z M70,104h1v1h-1z M72,104h1v1h-1z M73,104h1v1h-1z M74,104h1v1h-1z M76,104h1v1h-1z M77,104h1v1h-1z M78,104h1v1h-1z M79,104h1v1h-1z M80,104h1v1h-1z M82,104h1v1h-1z M83,104h1v1h-1z M86,104h1v1h-1z M89,104h1v1h-1z M91,104h1v1h-1z M94,104h1v1h-1z M95,104h1v1h-1z M97,104h1v1h-1z M99,104h1v1h-1z M100,104h1v1h-1z M101,104h1v1h-1z M102,104h1v1h-1z M103,104h1v1h-1z M104,104h1v1h-1z M105,104h1v1h-1z M108,104h1v1h-1z M4,105h1v1h-1z M6,105h1v1h-1z M7,105h1v1h-1z M8,105h1v1h-1z M10,105h1v1h-1z M12,105h1v1h-1z M13,105h1v1h-1z M19,105h1v1h-1z M20,105h1v1h-1z M22,105h1v1h-1z M23,105h1v1h-1z M24,105h1v1h-1z M26,105h1v1h-1z M27,105h1v1h-1z M32,105h1v1h-1z M33,105h1v1h-1z M34,105h1v1h-1z M38,105h1v1h-1z M39,105h1v1h-1z M42,105h1v1h-1z M47,105h1v1h-1z M53,105h1v1h-1z M55,105h1v1h-1z M56,105h1v1h-1z M57,105h1v1h-1z M60,105h1v1h-1z M62,105h1v1h-1z M64,105h1v1h-1z M66,105h1v1h-1z M67,105h1v1h-1z M71,105h1v1h-1z M72,105h1v1h-1z M73,105h1v1h-1z M74,105h1v1h-1z M75,105h1v1h-1z M77,105h1v1h-1z M81,105h1v1h-1z M82,105h1v1h-1z M83,105h1v1h-1z M84,105h1v1h-1z M85,105h1v1h-1z M87,105h1v1h-1z M88,105h1v1h-1z M89,105h1v1h-1z M90,105h1v1h-1z M91,105h1v1h-1z M92,105h1v1h-1z M93,105h1v1h-1z M96,105h1v1h-1z M97,105h1v1h-1z M99,105h1v1h-1z M102,105h1v1h-1z M104,105h1v1h-1z M4,106h1v1h-1z M6,106h1v1h-1z M7,106h1v1h-1z M8,106h1v1h-1z M10,106h1v1h-1z M13,106h1v1h-1z M14,106h1v1h-1z M15,106h1v1h-1z M17,106h1v1h-1z M18,106h1v1h-1z M20,106h1v1h-1z M22,106h1v1h-1z M24,106h1v1h-1z M27,106h1v1h-1z M30,106h1v1h-1z M33,106h1v1h-1z M34,106h1v1h-1z M35,106h1v1h-1z M37,106h1v1h-1z M38,106h1v1h-1z M40,106h1v1h-1z M41,106h1v1h-1z M42,106h1v1h-1z M43,106h1v1h-1z M44,106h1v1h-1z M46,106h1v1h-1z M47,106h1v1h-1z M49,106h1v1h-1z M50,106h1v1h-1z M51,106h1v1h-1z M54,106h1v1h-1z M58,106h1v1h-1z M59,106h1v1h-1z M60,106h1v1h-1z M62,106h1v1h-1z M63,106h1v1h-1z M66,106h1v1h-1z M67,106h1v1h-1z M68,106h1v1h-1z M70,106h1v1h-1z M71,106h1v1h-1z M74,106h1v1h-1z M78,106h1v1h-1z M80,106h1v1h-1z M82,106h1v1h-1z M86,106h1v1h-1z M87,106h1v1h-1z M88,106h1v1h-1z M90,106h1v1h-1z M94,106h1v1h-1z M98,106h1v1h-1z M100,106h1v1h-1z M101,106h1v1h-1z M104,106h1v1h-1z M106,106h1v1h-1z M107,106h1v1h-1z M108,106h1v1h-1z M4,107h1v1h-1z M10,107h1v1h-1z M12,107h1v1h-1z M14,107h1v1h-1z M16,107h1v1h-1z M17,107h1v1h-1z M18,107h1v1h-1z M19,107h1v1h-1z M20,107h1v1h-1z M21,107h1v1h-1z M23,107h1v1h-1z M25,107h1v1h-1z M26,107h1v1h-1z M27,107h1v1h-1z M28,107h1v1h-1z M29,107h1v1h-1z M33,107h1v1h-1z M36,107h1v1h-1z M37,107h1v1h-1z M38,107h1v1h-1z M39,107h1v1h-1z M40,107h1v1h-1z M43,107h1v1h-1z M46,107h1v1h-1z M47,107h1v1h-1z M48,107h1v1h-1z M49,107h1v1h-1z M50,107h1v1h-1z M51,107h1v1h-1z M52,107h1v1h-1z M53,107h1v1h-1z M55,107h1v1h-1z M58,107h1v1h-1z M60,107h1v1h-1z M61,107h1v1h-1z M63,107h1v1h-1z M64,107h1v1h-1z M66,107h1v1h-1z M67,107h1v1h-1z M70,107h1v1h-1z M72,107h1v1h-1z M73,107h1v1h-1z M74,107h1v1h-1z M76,107h1v1h-1z M78,107h1v1h-1z M79,107h1v1h-1z M81,107h1v1h-1z M82,107h1v1h-1z M84,107h1v1h-1z M86,107h1v1h-1z M87,107h1v1h-1z M88,107h1v1h-1z M89,107h1v1h-1z M90,107h1v1h-1z M93,107h1v1h-1z M95,107h1v1h-1z M96,107h1v1h-1z M99,107h1v1h-1z M100,107h1v1h-1z M102,107h1v1h-1z M105,107h1v1h-1z M106,107h1v1h-1z M107,107h1v1h-1z M108,107h1v1h-1z M4,108h1v1h-1z M5,108h1v1h-1z M6,108h1v1h-1z M7,108h1v1h-1z M8,108h1v1h-1z M9,108h1v1h-1z M10,108h1v1h-1z M12,108h1v1h-1z M16,108h1v1h-1z M20,108h1v1h-1z M24,108h1v1h-1z M28,108h1v1h-1z M29,108h1v1h-1z M30,108h1v1h-1z M31,108h1v1h-1z M32,108h1v1h-1z M33,108h1v1h-1z M35,108h1v1h-1z M39,108h1v1h-1z M40,108h1v1h-1z M42,108h1v1h-1z M45,108h1v1h-1z M46,108h1v1h-1z M47,108h1v1h-1z M48,108h1v1h-1z M50,108h1v1h-1z M52,108h1v1h-1z M53,108h1v1h-1z M54,108h1v1h-1z M55,108h1v1h-1z M58,108h1v1h-1z M59,108h1v1h-1z M60,108h1v1h-1z M62,108h1v1h-1z M64,108h1v1h-1z M65,108h1v1h-1z M66,108h1v1h-1z M71,108h1v1h-1z M72,108h1v1h-1z M73,108h1v1h-1z M79,108h1v1h-1z M82,108h1v1h-1z M84,108h1v1h-1z M87,108h1v1h-1z M88,108h1v1h-1z M90,108h1v1h-1z M91,108h1v1h-1z M94,108h1v1h-1z M97,108h1v1h-1z M98,108h1v1h-1z M102,108h1v1h-1z M104,108h1v1h-1z" fill="#000000"/>
</svg>
