<?xml version="1.0" encoding="UTF-8"?>
<!DOCTYPE svg PUBLIC "-//W3C//DTD SVG 1.1//EN" "http://www.w3.org/Graphics/SVG/1.1/DTD/svg11.dtd">
<svg xmlns="http://www.w3.org/2000/svg" version="1.1" viewBox="0 0 113 113" stroke="none">
	<rect width="100%" height="100%" fill="#FFFFFF"/>
	<path d="M4,4h1v1h-1z M5,4h1v1h-1z M6,4h1v1h-1z M7,4h1v1h-1z M8,4h1v1h-1z M9,4h1v1h-1z M10,4h1v1h-1z M12,4h1v1h-1z M15,4h1v1h-1z M16,4h1v1h-1z M17,4h1v1h-1z M22,4h1v1h-1z M23,4h1v1h-1z M24,4h1v1h-1z M27,4h1v1h-1z M28,4h1v1h-1z M30,4h1v1h-1z M34,4h1v1h-1z M35,4h1v1h-1z M38,4h1v1h-1z M39,4h1v1h-1z M40,4h1v1h-1z M41,4h1v1h-1z M42,4h1v1h-1z M48,4h1v1h-1z M49,4h1v1h-1z M52,4h1v1h-1z M53,4h1v1h-1z M54,4h1v1h-1z M57,4h1v1h-1z M59,4h1v1h-1z M60,4h1v1h-1z M61,4h1v1h-1z M63,4h1v1h-1z M64,4h1v1h-1z M65,4h1v1h-1z M66,4h1v1h-1z M69,4h1v1h-1z M72,4h1v1h-1z M74,4h1v1h-1z M76,4h1v1h-1z M78,4h1v1h-1z M82,4h1v1h-1z M83,4h1v1h-1z M86,4h1v1h-1z M87,4h1v1h-1z M88,4h1v1h-1z M90,4h1v1h-1z M93,4h1v1h-1z M96,4h1v1h-1z M98,4h1v1h-1z M102,4h1v1h-1z M103,4h1v1h-1z M104,4h1v1h-1z M105,4h1v1h-1z M106,4h1v1h-1z M107,4h1v1h-1z M108,4h1v1h-1z M4,5h1v1h-1z M10,5h1v1h-1z M12,5h1v1h-1z M19,5h1v1h-1z M20,5h1v1h-1z M22,5h1v1h-1z M24,5h1v1h-1z M27,5h1v1h-1z M30,5h1v1h-1z M32,5h1v1h-1z M33,5h1v1h-1z M34,5h1v1h-1z M35,5h1v1h-1z M37,5h1v1h-1z M40,5h1v1h-1z M42,5h1v1h-1z M43,5h1v1h-1z M44,5h1v1h-1z M45,5h1v1h-1z M46,5h1v1h-1z M51,5h1v1h-1z M54,5h1v1h-1z M56,5h1v1h-1z M57,5h1v1h-1z M58,5h1v1h-1z M59,5h1v1h-1z M60,5h1v1h-1z M61,5h1v1h-1z M66,5h1v1h-1z M68,5h1v1h-1z M69,5h1v1h-1z M70,5h1v1h-1z M73,5h1v1h-1z M78,5h1v1h-1z M79,5h1v1h-1z M80,5h1v1h-1z M81,5h1v1h-1z M82,5h1v1h-1z M83,5h1v1h-1z M90,5h1v1h-1z M92,5h1v1h-1z M94,5h1v1h-1z M97,5h1v1h-1z M98,5h1v1h-1z M102,5h1v1h-1z M108,5h1v1h-1z M4,6h1v1h-1z M6,6h1v1h-1z M7,6h1v1h-1z M8,6h1v1h-1z M10,6h1v1h-1z M12,6h1v1h-1z M13,6h1v1h-1z M17,6h1v1h-1z M19,6h1v1h-1z M20,6h1v1h-1z M21,6h1v1h-1z M23,6h1v1h-1z M25,6h1v1h-1z M26,6h1v1h-1z M29,6h1v1h-1z M30,6h1v1h-1z M31,6h1v1h-1z M32,6h1v1h-1z M33,6h1v1h-1z M35,6h1v1h-1z M37,6h1v1h-1z M42,6h1v1h-1z M43,6h1v1h-1z M44,6h1v1h-1z M45,6h1v1h-1z M47,6h1v1h-1z M54,6h1v1h-1z M56,6h1v1h-1z M57,6h1v1h-1z M59,6h1v1h-1z M61,6h1v1h-1z M62,6h1v1h-1z M66,6h1v1h-1z M68,6h1v1h-1z M69,6h1v1h-1z M77,6h1v1h-1z M79,6h1v1h-1z M80,6h1v1h-1z M81,6h1v1h-1z M82,6h1v1h-1z M90,6h1v1h-1z M91,6h1v1h-1z M92,6h1v1h-1z M94,6h1v1h-1z M97,6h1v1h-1z M98,6h1v1h-1z M99,6h1v1h-1z M102,6h1v1h-1z M104,6h1v1h-1z M105,6h1v1h-1z M106,6h1v1h-1z M108,6h1v1h-1z M4,7h1v1h-1z M6,7h1v1h-1z M7,7h1v1h-1z M8,7h1v1h-1z M10,7h1v1h-1z M12,7h1v1h-1z M13,7h1v1h-1z M14,7h1v1h-1z M19,7h1v1h-1z M20,7h1v1h-1z M23,7h1v1h-1z M24,7h1v1h-1z M25,7h1v1h-1z M26,7h1v1h-1z M29,7h1v1h-1z M31,7h1v1h-1z M32,7h1v1h-1z M33,7h1v1h-1z M35,7h1v1h-1z M38,7h1v1h-1z M39,7h1v1h-1z M41,7h1v1h-1z M45,7h1v1h-1z M47,7h1v1h-1z M50,7h1v1h-1z M52,7h1v1h-1z M60,7h1v1h-1z M62,7h1v1h-1z M63,7h1v1h-1z M65,7h1v1h-1z M67,7h1v1h-1z M68,7h1v1h-1z M69,7h1v1h-1z M73,7h1v1h-1z M74,7h1v1h-1z M75,7h1v1h-1z M77,7h1v1h-1z M85,7h1v1h-1z M86,7h1v1h-1z M87,7h1v1h-1z M89,7h1v1h-1z M100,7h1v1h-1z M102,7h1v1h-1z M104,7h1v1h-1z M105,7h1v1h-1z M106,7h1v1h-1z M108,7h1v1h-1z M4,8h1v1h-1z M6,8h1v1h-1z M7,8h1v1h-1z M8,8h1v1h-1z M10,8h1v1h-1z M14,8h1v1h-1z M16,8h1v1h-1z M17,8h1v1h-1z M18,8h1v1h-1z M19,8h1v1h-1z M20,8h1v1h-1z M22,8h1v1h-1z M24,8h1v1h-1z M28,8h1v1h-1z M29,8h1v1h-1z M30,8h1v1h-1z M31,8h1v1h-1z M32,8h1v1h-1z M36,8h1v1h-1z M41,8h1v1h-1z M46,8h1v1h-1z M47,8h1v1h-1z M50,8h1v1h-1z M51,8h1v1h-1z M52,8h1v1h-1z M53,8h1v1h-1z M54,8h1v1h-1z M55,8h1v1h-1z M56,8h1v1h-1z M57,8h1v1h-1z M58,8h1v1h-1z M59,8h1v1h-1z M60,8h1v1h-1z M61,8h1v1h-1z M62,8h1v1h-1z M63,8h1v1h-1z M64,8h1v1h-1z M65,8h1v1h-1z M66,8h1v1h-1z M67,8h1v1h-1z M69,8h1v1h-1z M70,8h1v1h-1z M72,8h1v1h-1z M73,8h1v1h-1z M76,8h1v1h-1z M77,8h1v1h-1z M78,8h1v1h-1z M79,8h1v1h-1z M80,8h1v1h-1z M83,8h1v1h-1z M84,8h1v1h-1z M87,8h1v1h-1z M88,8h1v1h-1z M89,8h1v1h-1z M90,8h1v1h-1z M91,8h1v1h-1z M96,8h1v1h-1z M99,8h1v1h-1z M100,8h1v1h-1z M102,8h1v1h-1z M104,8h1v1h-1z M105,8h1v1h-1z M106,8h1v1h-1z M108,8h1v1h-1z M4,9h1v1h-1z M10,9h1v1h-1z M12,9h1v1h-1z M15,9h1v1h-1z M16,9h1v1h-1z M18,9h1v1h-1z M19,9h1v1h-1z M20,9h1v1h-1z M21,9h1v1h-1z M22,9h1v1h-1z M23,9h1v1h-1z M25,9h1v1h-1z M28,9h1v1h-1z M32,9h1v1h-1z M33,9h1v1h-1z M34,9h1v1h-1z M36,9h1v1h-1z M37,9h1v1h-1z M41,9h1v1h-1z M42,9h1v1h-1z M43,9h1v1h-1z M44,9h1v1h-1z M46,9h1v1h-1z M47,9h1v1h-1z M48,9h1v1h-1z M49,9h1v1h-1z M52,9h1v1h-1z M56,9h1v1h-1z M57,9h1v1h-1z M58,9h1v1h-1z M59,9h1v1h-1z M61,9h1v1h-1z M63,9h1v1h-1z M66,9h1v1h-1z M67,9h1v1h-1z M68,9h1v1h-1z M70,9h1v1h-1z M73,9h1v1h-1z M75,9h1v1h-1z M76,9h1v1h-1z M80,9h1v1h-1z M81,9h1v1h-1z M82,9h1v1h-1z M83,9h1v1h-1z M85,9h1v1h-1z M88,9h1v1h-1z M89,9h1v1h-1z M90,9h1v1h-1z M91,9h1v1h-1z M92,9h1v1h-1z M93,9h1v1h-1z M94,9h1v1h-1z M96,9h1v1h-1z M97,9h1v1h-1z M99,9h1v1h-1z M102,9h1v1h-1z M108,9h1v1h-1z M4,10h1v1h-1z M5,10h1v1h-1z M6,10h1v1h-1z M7,10h1v1h-1z M8,10h1v1h-1z M9,10h1v1h-1z M10,10h1v1h-1z M12,10h1v1h-1z M14,10h1v1h-1z M16,10h1v1h-1z M18,10h1v1h-1z M20,10h1v1h-1z M22,10h1v1h-1z M24,10h1v1h-1z M26,10h1v1h-1z M28,10h1v1h-1z M30,10h1v1h-1z M32,10h1v1h-1z M34,10h1v1h-1z M36,10h1v1h-1z M38,10h1v1h-1z M40,10h1v1h-1z M42,10h1v1h-1z M44,10h1v1h-1z M46,10h1v1h-1z M48,10h1v1h-1z M50,10h1v1h-1z M52,10h1v1h-1z M54,10h1v1h-1z M56,10h1v1h-1z M58,10h1v1h-1z M60,10h1v1h-1z M62,10h1v1h-1z M64,10h1v1h-1z M66,10h1v1h-1z M68,10h1v1h-1z M70,10h1v1h-1z M72,10h1v1h-1z M74,10h1v1h-1z M76,10h1v1h-1z M78,10h1v1h-1z M80,10h1v1h-1z M82,10h1v1h-1z M84,10h1v1h-1z M86,10h1v1h-1z M88,10h1v1h-1z M90,10h1v1h-1z M92,10h1v1h-1z M94,10h1v1h-1z M96,10h1v1h-1z M98,10h1v1h-1z M100,10h1v1h-1z M102,10h1v1h-1z M103,10h1v1h-1z M104,10h1v1h-1z M105,10h1v1h-1z M106,10h1v1h-1z M107,10h1v1h-1z M108,10h1v1h-1z M13,11h1v1h-1z M16,11h1v1h-1z M18,11h1v1h-1z M19,11h1v1h-1z M25,11h1v1h-1z M26,11h1v1h-1z M28,11h1v1h-1z M32,11h1v1h-1z M33,11h1v1h-1z M34,11h1v1h-1z M35,11h1v1h-1z M41,11h1v1h-1z M42,11h1v1h-1z M43,11h1v1h-1z M44,11h1v1h-1z M46,11h1v1h-1z M47,11h1v1h-1z M52,11h1v1h-1z M56,11h1v1h-1z M57,11h1v1h-1z M58,11h1v1h-1z M59,11h1v1h-1z M61,11h1v1h-1z M63,11h1v1h-1z M65,11h1v1h-1z M66,11h1v1h-1z M68,11h1v1h-1z M69,11h1v1h-1z M70,11h1v1h-1z M71,11h1v1h-1z M75,11h1v1h-1z M76,11h1v1h-1z M80,11h1v1h-1z M81,11h1v1h-1z M83,11h1v1h-1z M85,11h1v1h-1z M89,11h1v1h-1z M90,11h1v1h-1z M92,11h1v1h-1z M93,11h1v1h-1z M95,11h1v1h-1z M97,11h1v1h-1z M98,11h1v1h-1z M100,11h1v1h-1z M4,12h1v1h-1z M5,12h1v1h-1z M8,12h1v1h-1z M9,12h1v1h-1z M10,12h1v1h-1z M14,12h1v1h-1z M15,12h1v1h-1z M16,12h1v1h-1z M19,12h1v1h-1z M20,12h1v1h-1z M21,12h1v1h-1z M24,12h1v1h-1z M27,12h1v1h-1z M28,12h1v1h-1z M29,12h1v1h-1z M30,12h1v1h-1z M31,12h1v1h-1z M32,12h1v1h-1z M33,12h1v1h-1z M34,12h1v1h-1z M36,12h1v1h-1z M37,12h1v1h-1z M38,12h1v1h-1z M40,12h1v1h-1z M41,12h1v1h-1z M42,12h1v1h-1z M43,12h1v1h-1z M45,12h1v1h-1z M46,12h1v1h-1z M51,12h1v1h-1z M52,12h1v1h-1z M53,12h1v1h-1z M54,12h1v1h-1z M55,12h1v1h-1z M56,12h1v1h-1z M57,12h1v1h-1z M58,12h1v1h-1z M59,12h1v1h-1z M60,12h1v1h-1z M61,12h1v1h-1z M64,12h1v1h-1z M65,12h1v1h-1z M66,12h1v1h-1z M67,12h1v1h-1z M72,12h1v1h-1z M76,12h1v1h-1z M77,12h1v1h-1z M78,12h1v1h-1z M79,12h1v1h-1z M80,12h1v1h-1z M81,12h1v1h-1z M82,12h1v1h-1z M83,12h1v1h-1z M85,12h1v1h-1z M88,12h1v1h-1z M90,12h1v1h-1z M91,12h1v1h-1z M92,12h1v1h-1z M94,12h1v1h-1z M96,12h1v1h-1z M98,12h1v1h-1z M99,12h1v1h-1z M100,12h1v1h-1z M103,12h1v1h-1z M105,12h1v1h-1z M106,12h1v1h-1z M107,12h1v1h-1z M108,12h1v1h-1z M4,13h1v1h-1z M6,13h1v1h-1z M11,13h1v1h-1z M15,13h1v1h-1z M16,13h1v1h-1z M21,13h1v1h-1z M22,13h1v1h-1z M23,13h1v1h-1z M25,13h1v1h-1z M27,13h1v1h-1z M28,13h1v1h-1z M29,13h1v1h-1z M32,13h1v1h-1z M33,13h1v1h-1z M35,13h1v1h-1z M39,13h1v1h-1z M40,13h1v1h-1z M42,13h1v1h-1z M46,13h1v1h-1z M47,13h1v1h-1z M48,13h1v1h-1z M49,13h1v1h-1z M52,13h1v1h-1z M53,13h1v1h-1z M55,13h1v1h-1z M56,13h1v1h-1z M57,13h1v1h-1z M60,13h1v1h-1z M62,13h1v1h-1z M64,13h1v1h-1z M65,13h1v1h-1z M68,13h1v1h-1z M70,13h1v1h-1z M72,13h1v1h-1z M73,13h1v1h-1z M75,13h1v1h-1z M76,13h1v1h-1z M77,13h1v1h-1z M78,13h1v1h-1z M79,13h1v1h-1z M81,13h1v1h-1z M84,13h1v1h-1z M89,13h1v1h-1z M90,13h1v1h-1z M91,13h1v1h-1z M95,13h1v1h-1z M97,13h1v1h-1z M99,13h1v1h-1z M101,13h1v1h-1z M102,13h1v1h-1z M105,13h1v1h-1z M106,13h1v1h-1z M107,13h1v1h-1z M108,13h1v1h-1z M4,14h1v1h-1z M5,14h1v1h-1z M7,14h1v1h-1z M9,14h1v1h-1z M10,14h1v1h-1z M13,14h1v1h-1z M14,14h1v1h-1z M16,14h1v1h-1z M17,14h1v1h-1z M19,14h1v1h-1z M21,14h1v1h-1z M24,14h1v1h-1z M25,14h1v1h-1z M26,14h1v1h-1z M27,14h1v1h-1z M28,14h1v1h-1z M29,14h1v1h-1z M32,14h1v1h-1z M35,14h1v1h-1z M38,14h1v1h-1z M39,14h1v1h-1z M40,14h1v1h-1z M41,14h1v1h-1z M43,14h1v1h-1z M45,14h1v1h-1z M50,14h1v1h-1z M51,14h1v1h-1z M53,14h1v1h-1z M59,14h1v1h-1z M62,14h1v1h-1z M63,14h1v1h-1z M65,14h1v1h-1z M68,14h1v1h-1z M72,14h1v1h-1z M73,14h1v1h-1z M74,14h1v1h-1z M76,14h1v1h-1z M77,14h1v1h-1z M79,14h1v1h-1z M80,14h1v1h-1z M83,14h1v1h-1z M84,14h1v1h-1z M86,14h1v1h-1z M88,14h1v1h-1z M89,14h1v1h-1z M91,14h1v1h-1z M92,14h1v1h-1z M95,14h1v1h-1z M96,14h1v1h-1z M98,14h1v1h-1z M100,14h1v1h-1z M101,14h1v1h-1z M104,14h1v1h-1z M105,14h1v1h-1z M107,14h1v1h-1z M4,15h1v1h-1z M5,15h1v1h-1z M6,15h1v1h-1z M8,15h1v1h-1z M9,15h1v1h-1z M14,15h1v1h-1z M15,15h1v1h-1z M17,15h1v1h-1z M19,15h1v1h-1z M20,15h1v1h-1z M21,15h1v1h-1z M22,15h1v1h-1z M24,15h1v1h-1z M30,15h1v1h-1z M32,15h1v1h-1z M33,15h1v1h-1z M35,15h1v1h-1z M38,15h1v1h-1z M44,15h1v1h-1z M46,15h1v1h-1z M47,15h1v1h-1z M49,15h1v1h-1z M51,15h1v1h-1z M52,15h1v1h-1z M54,15h1v1h-1z M56,15h1v1h-1z M59,15h1v1h-1z M68,15h1v1h-1z M69,15h1v1h-1z M70,15h1v1h-1z M71,15h1v1h-1z M73,15h1v1h-1z M77,15h1v1h-1z M80,15h1v1h-1z M85,15h1v1h-1z M87,15h1v1h-1z M92,15h1v1h-1z M93,15h1v1h-1z M94,15h1v1h-1z M95,15h1v1h-1z M98,15h1v1h-1z M100,15h1v1h-1z M101,15h1v1h-1z M4,16h1v1h-1z M5,16h1v1h-1z M6,16h1v1h-1z M7,16h1v1h-1z M8,16h1v1h-1z M10,16h1v1h-1z M11,16h1v1h-1z M12,16h1v1h-1z M13,16h1v1h-1z M14,16h1v1h-1z M15,16h1v1h-1z M16,16h1v1h-1z M17,16h1v1h-1z M18,16h1v1h-1z M21,16h1v1h-1z M22,16h1v1h-1z M23,16h1v1h-1z M24,16h1v1h-1z M27,16h1v1h-1z M30,16h1v1h-1z M32,16h1v1h-1z M34,16h1v1h-1z M36,16h1v1h-1z M38,16h1v1h-1z M39,16h1v1h-1z M40,16h1v1h-1z M41,16h1v1h-1z M43,16h1v1h-1z M48,16h1v1h-1z M49,16h1v1h-1z M51,16h1v1h-1z M52,16h1v1h-1z M58,16h1v1h-1z M60,16h1v1h-1z M61,16h1v1h-1z M63,16h1v1h-1z M66,16h1v1h-1z M67,16h1v1h-1z M69,16h1v1h-1z M70,16h1v1h-1z M72,16h1v1h-1z M76,16h1v1h-1z M78,16h1v1h-1z M81,16h1v1h-1z M82,16h1v1h-1z M84,16h1v1h-1z M85,16h1v1h-1z M87,16h1v1h-1z M90,16h1v1h-1z M92,16h1v1h-1z M95,16h1v1h-1z M97,16h1v1h-1z M99,16h1v1h-1z M100,16h1v1h-1z M101,16h1v1h-1z M102,16h1v1h-1z M104,16h1v1h-1z M105,16h1v1h-1z M107,16h1v1h-1z M108,16h1v1h-1z M4,17h1v1h-1z M5,17h1v1h-1z M7,17h1v1h-1z M8,17h1v1h-1z M13,17h1v1h-1z M17,17h1v1h-1z M18,17h1v1h-1z M19,17h1v1h-1z M20,17h1v1h-1z M21,17h1v1h-1z M23,17h1v1h-1z M26,17h1v1h-1z M28,17h1v1h-1z M34,17h1v1h-1z M35,17h1v1h-1z M37,17h1v1h-1z M38,17h1v1h-1z M41,17h1v1h-1z M42,17h1v1h-1z M45,17h1v1h-1z M46,17h1v1h-1z M48,17h1v1h-1z M49,17h1v1h-1z M50,17h1v1h-1z M51,17h1v1h-1z M52,17h1v1h-1z M56,17h1v1h-1z M57,17h1v1h-1z M59,17h1v1h-1z M60,17h1v1h-1z M61,17h1v1h-1z M63,17h1v1h-1z M65,17h1v1h-1z M66,17h1v1h-1z M67,17h1v1h-1z M68,17h1v1h-1z M70,17h1v1h-1z M71,17h1v1h-1z M72,17h1v1h-1z M75,17h1v1h-1z M76,17h1v1h-1z M77,17h1v1h-1z M78,17h1v1h-1z M80,17h1v1h-1z M81,17h1v1h-1z M82,17h1v1h-1z M83,17h1v1h-1z M84,17h1v1h-1z M88,17h1v1h-1z M93,17h1v1h-1z M94,17h1v1h-1z M96,17h1v1h-1z M97,17h1v1h-1z M98,17h1v1h-1z M100,17h1v1h-1z M101,17h1v1h-1z M102,17h1v1h-1z M103,17h1v1h-1z M104,17h1v1h-1z M106,17h1v1h-1z M4,18h1v1h-1z M6,18h1v1h-1z M7,18h1v1h-1z M10,18h1v1h-1z M14,18h1v1h-1z M15,18h1v1h-1z M16,18h1v1h-1z M18,18h1v1h-1z M20,18h1v1h-1z M21,18h1v1h-1z M23,18h1v1h-1z M24,18h1v1h-1z M25,18h1v1h-1z M26,18h1v1h-1z M28,18h1v1h-1z M31,18h1v1h-1z M32,18h1v1h-1z M35,18h1v1h-1z M36,18h1v1h-1z M38,18h1v1h-1z M39,18h1v1h-1z M40,18h1v1h-1z M41,18h1v1h-1z M43,18h1v1h-1z M47,18h1v1h-1z M49,18h1v1h-1z M50,18h1v1h-1z M53,18h1v1h-1z M55,18h1v1h-1z M56,18h1v1h-1z M60,18h1v1h-1z M62,18h1v1h-1z M63,18h1v1h-1z M65,18h1v1h-1z M68,18h1v1h-1z M69,18h1v1h-1z M73,18h1v1h-1z M74,18h1v1h-1z M75,18h1v1h-1z M79,18h1v1h-1z M80,18h1v1h-1z M83,18h1v1h-1z M84,18h1v1h-1z M85,18h1v1h-1z M86,18h1v1h-1z M87,18h1v1h-1z M89,18h1v1h-1z M91,18h1v1h-1z M93,18h1v1h-1z M95,18h1v1h-1z M96,18h1v1h-1z M98,18h1v1h-1z M99,18h1v1h-1z M101,18h1v1h-1z M104,18h1v1h-1z M105,18h1v1h-1z M106,18h1v1h-1z M5,19h1v1h-1z M8,19h1v1h-1z M13,19h1v1h-1z M15,19h1v1h-1z M18,19h1v1h-1z M19,19h1v1h-1z M24,19h1v1h-1z M27,19h1v1h-1z M30,19h1v1h-1z M32,19h1v1h-1z M34,19h1v1h-1z M37,19h1v1h-1z M39,19h1v1h-1z M41,19h1v1h-1z M44,19h1v1h-1z M45,19h1v1h-1z M46,19h1v1h-1z M47,19h1v1h-1z M51,19h1v1h-1z M53,19h1v1h-1z M54,19h1v1h-1z M56,19h1v1h-1z M57,19h1v1h-1z M61,19h1v1h-1z M62,19h1v1h-1z M66,19h1v1h-1z M68,19h1v1h-1z M69,19h1v1h-1z M70,19h1v1h-1z M71,19h1v1h-1z M75,19h1v1h-1z M76,19h1v1h-1z M77,19h1v1h-1z M78,19h1v1h-1z M80,19h1v1h-1z M92,19h1v1h-1z M93,19h1v1h-1z M94,19h1v1h-1z M100,19h1v1h-1z M101,19h1v1h-1z M107,19h1v1h-1z M108,19h1v1h-1z M5,20h1v1h-1z M7,20h1v1h-1z M10,20h1v1h-1z M11,20h1v1h-1z M12,20h1v1h-1z M15,20h1v1h-1z M16,20h1v1h-1z M17,20h1v1h-1z M20,20h1v1h-1z M22,20h1v1h-1z M24,20h1v1h-1z M25,20h1v1h-1z M27,20h1v1h-1z M28,20h1v1h-1z M29,20h1v1h-1z M30,20h1v1h-1z M31,20h1v1h-1z M33,20h1v1h-1z M34,20h1v1h-1z M35,20h1v1h-1z M37,20h1v1h-1z M40,20h1v1h-1z M41,20h1v1h-1z M44,20h1v1h-1z M45,20h1v1h-1z M46,20h1v1h-1z M48,20h1v1h-1z M52,20h1v1h-1z M53,20h1v1h-1z M56,20h1v1h-1z M58,20h1v1h-1z M59,20h1v1h-1z M60,20h1v1h-1z M61,20h1v1h-1z M63,20h1v1h-1z M64,20h1v1h-1z M65,20h1v1h-1z M66,20h1v1h-1z M68,20h1v1h-1z M69,20h1v1h-1z M70,20h1v1h-1z M72,20h1v1h-1z M75,20h1v1h-1z M76,20h1v1h-1z M78,20h1v1h-1z M79,20h1v1h-1z M80,20h1v1h-1z M81,20h1v1h-1z M82,20h1v1h-1z M84,20h1v1h-1z M85,20h1v1h-1z M87,20h1v1h-1z M90,20h1v1h-1z M91,20h1v1h-1z M95,20h1v1h-1z M96,20h1v1h-1z M100,20h1v1h-1z M101,20h1v1h-1z M103,20h1v1h-1z M104,20h1v1h-1z M106,20h1v1h-1z M107,20h1v1h-1z M108,20h1v1h-1z M7,21h1v1h-1z M9,21h1v1h-1z M14,21h1v1h-1z M15,21h1v1h-1z M17,21h1v1h-1z M19,21h1v1h-1z M20,21h1v1h-1z M24,21h1v1h-1z M25,21h1v1h-1z M26,21h1v1h-1z M27,21h1v1h-1z M28,21h1v1h-1z M32,21h1v1h-1z M35,21h1v1h-1z M36,21h1v1h-1z M38,21h1v1h-1z M40,21h1v1h-1z M43,21h1v1h-1z M45,21h1v1h-1z M46,21h1v1h-1z M47,21h1v1h-1z M50,21h1v1h-1z M51,21h1v1h-1z M52,21h1v1h-1z M55,21h1v1h-1z M56,21h1v1h-1z M57,21h1v1h-1z M59,21h1v1h-1z M60,21h1v1h-1z M62,21h1v1h-1z M66,21h1v1h-1z M73,21h1v1h-1z M75,21h1v1h-1z M76,21h1v1h-1z M79,21h1v1h-1z M80,21h1v1h-1z M82,21h1v1h-1z M84,21h1v1h-1z M87,21h1v1h-1z M88,21h1v1h-1z M92,21h1v1h-1z M94,21h1v1h-1z M95,21h1v1h-1z M96,21h1v1h-1z M97,21h1v1h-1z M98,21h1v1h-1z M101,21h1v1h-1z M4,22h1v1h-1z M5,22h1v1h-1z M6,22h1v1h-1z M9,22h1v1h-1z M10,22h1v1h-1z M11,22h1v1h-1z M12,22h1v1h-1z M17,22h1v1h-1z M19,22h1v1h-1z M21,22h1v1h-1z M23,22h1v1h-1z M24,22h1v1h-1z M26,22h1v1h-1z M28,22h1v1h-1z M29,22h1v1h-1z M35,22h1v1h-1z M36,22h1v1h-1z M38,22h1v1h-1z M41,22h1v1h-1z M43,22h1v1h-1z M45,22h1v1h-1z M47,22h1v1h-1z M50,22h1v1h-1z M53,22h1v1h-1z M55,22h1v1h-1z M59,22h1v1h-1z M61,22h1v1h-1z M62,22h1v1h-1z M64,22h1v1h-1z M65,22h1v1h-1z M69,22h1v1h-1z M71,22h1v1h-1z M72,22h1v1h-1z M73,22h1v1h-1z M74,22h1v1h-1z M77,22h1v1h-1z M84,22h1v1h-1z M86,22h1v1h-1z M87,22h1v1h-1z M88,22h1v1h-1z M89,22h1v1h-1z M91,22h1v1h-1z M95,22h1v1h-1z M96,22h1v1h-1z M97,22h1v1h-1z M98,22h1v1h-1z M99,22h1v1h-1z M104,22h1v1h-1z M107,22h1v1h-1z M4,23h1v1h-1z M5,23h1v1h-1z M7,23h1v1h-1z M11,23h1v1h-1z M12,23h1v1h-1z M14,23h1v1h-1z M15,23h1v1h-1z M17,23h1v1h-1z M18,23h1v1h-1z M20,23h1v1h-1z M24,23h1v1h-1z M26,23h1v1h-1z M29,23h1v1h-1z M31,23h1v1h-1z M32,23h1v1h-1z M34,23h1v1h-1z M35,23h1v1h-1z M41,23h1v1h-1z M44,23h1v1h-1z M46,23h1v1h-1z M47,23h1v1h-1z M49,23h1v1h-1z M54,23h1v1h-1z M56,23h1v1h-1z M58,23h1v1h-1z M59,23h1v1h-1z M65,23h1v1h-1z M67,23h1v1h-1z M68,23h1v1h-1z M70,23h1v1h-1z M71,23h1v1h-1z M79,23h1v1h-1z M80,23h1v1h-1z M81,23h1v1h-1z M83,23h1v1h-1z M89,23h1v1h-1z M90,23h1v1h-1z M92,23h1v1h-1z M94,23h1v1h-1z M95,23h1v1h-1z M99,23h1v1h-1z M101,23h1v1h-1z M103,23h1v1h-1z M104,23h1v1h-1z M105,23h1v1h-1z M108,23h1v1h-1z M4,24h1v1h-1z M5,24h1v1h-1z M7,24h1v1h-1z M9,24h1v1h-1z M10,24h1v1h-1z M11,24h1v1h-1z M12,24h1v1h-1z M13,24h1v1h-1z M14,24h1v1h-1z M15,24h1v1h-1z M16,24h1v1h-1z M18,24h1v1h-1z M19,24h1v1h-1z M20,24h1v1h-1z M22,24h1v1h-1z M23,24h1v1h-1z M27,24h1v1h-1z M36,24h1v1h-1z M37,24h1v1h-1z M38,24h1v1h-1z M41,24h1v1h-1z M42,24h1v1h-1z M44,24h1v1h-1z M45,24h1v1h-1z M46,24h1v1h-1z M49,24h1v1h-1z M50,24h1v1h-1z M53,24h1v1h-1z M55,24h1v1h-1z M59,24h1v1h-1z M60,24h1v1h-1z M64,24h1v1h-1z M65,24h1v1h-1z M66,24h1v1h-1z M67,24h1v1h-1z M69,24h1v1h-1z M70,24h1v1h-1z M71,24h1v1h-1z M72,24h1v1h-1z M76,24h1v1h-1z M77,24h1v1h-1z M82,24h1v1h-1z M83,24h1v1h-1z M86,24h1v1h-1z M87,24h1v1h-1z M88,24h1v1h-1z M90,24h1v1h-1z M91,24h1v1h-1z M94,24h1v1h-1z M95,24h1v1h-1z M97,24h1v1h-1z M99,24h1v1h-1z M100,24h1v1h-1z M102,24h1v1h-1z M103,24h1v1h-1z M105,24h1v1h-1z M108,24h1v1h-1z M4,25h1v1h-1z M5,25h1v1h-1z M9,25h1v1h-1z M12,25h1v1h-1z M14,25h1v1h-1z M18,25h1v1h-1z M20,25h1v1h-1z M21,25h1v1h-1z M22,25h1v1h-1z M25,25h1v1h-1z M26,25h1v1h-1z M28,25h1v1h-1z M29,25h1v1h-1z M30,25h1v1h-1z M34,25h1v1h-1z M36,25h1v1h-1z M37,25h1v1h-1z M38,25h1v1h-1z M42,25h1v1h-1z M43,25h1v1h-1z M45,25h1v1h-1z M46,25h1v1h-1z M48,25h1v1h-1z M50,25h1v1h-1z M51,25h1v1h-1z M52,25h1v1h-1z M53,25h1v1h-1z M54,25h1v1h-1z M55,25h1v1h-1z M56,25h1v1h-1z M57,25h1v1h-1z M60,25h1v1h-1z M61,25h1v1h-1z M62,25h1v1h-1z M65,25h1v1h-1z M67,25h1v1h-1z M72,25h1v1h-1z M75,25h1v1h-1z M76,25h1v1h-1z M77,25h1v1h-1z M78,25h1v1h-1z M83,25h1v1h-1z M84,25h1v1h-1z M85,25h1v1h-1z M86,25h1v1h-1z M88,25h1v1h-1z M89,25h1v1h-1z M90,25h1v1h-1z M92,25h1v1h-1z M93,25h1v1h-1z M96,25h1v1h-1z M101,25h1v1h-1z M104,25h1v1h-1z M105,25h1v1h-1z M107,25h1v1h-1z M108,25h1v1h-1z M4,26h1v1h-1z M6,26h1v1h-1z M7,26h1v1h-1z M9,26h1v1h-1z M10,26h1v1h-1z M15,26h1v1h-1z M21,26h1v1h-1z M24,26h1v1h-1z M26,26h1v1h-1z M28,26h1v1h-1z M29,26h1v1h-1z M31,26h1v1h-1z M35,26h1v1h-1z M38,26h1v1h-1z M39,26h1v1h-1z M40,26h1v1h-1z M41,26h1v1h-1z M48,26h1v1h-1z M49,26h1v1h-1z M50,26h1v1h-1z M53,26h1v1h-1z M55,26h1v1h-1z M59,26h1v1h-1z M62,26h1v1h-1z M64,26h1v1h-1z M65,26h1v1h-1z M69,26h1v1h-1z M71,26h1v1h-1z M72,26h1v1h-1z M74,26h1v1h-1z M75,26h1v1h-1z M77,26h1v1h-1z M79,26h1v1h-1z M83,26h1v1h-1z M84,26h1v1h-1z M86,26h1v1h-1z M87,26h1v1h-1z M89,26h1v1h-1z M92,26h1v1h-1z M95,26h1v1h-1z M96,26h1v1h-1z M98,26h1v1h-1z M99,26h1v1h-1z M104,26h1v1h-1z M105,26h1v1h-1z M106,26h1v1h-1z M107,26h1v1h-1z M4,27h1v1h-1z M5,27h1v1h-1z M6,27h1v1h-1z M7,27h1v1h-1z M15,27h1v1h-1z M17,27h1v1h-1z M18,27h1v1h-1z M19,27h1v1h-1z M21,27h1v1h-1z M23,27h1v1h-1z M26,27h1v1h-1z M27,27h1v1h-1z M28,27h1v1h-1z M29,27h1v1h-1z M30,27h1v1h-1z M32,27h1v1h-1z M34,27h1v1h-1z M35,27h1v1h-1z M42,27h1v1h-1z M44,27h1v1h-1z M45,27h1v1h-1z M47,27h1v1h-1z M51,27h1v1h-1z M54,27h1v1h-1z M56,27h1v1h-1z M59,27h1v1h-1z M61,27h1v1h-1z M63,27h1v1h-1z M68,27h1v1h-1z M70,27h1v1h-1z M71,27h1v1h-1z M73,27h1v1h-1z M75,27h1v1h-1z M76,27h1v1h-1z M77,27h1v1h-1z M80,27h1v1h-1z M81,27h1v1h-1z M85,27h1v1h-1z M89,27h1v1h-1z M90,27h1v1h-1z M92,27h1v1h-1z M93,27h1v1h-1z M101,27h1v1h-1z M103,27h1v1h-1z M104,27h1v1h-1z M108,27h1v1h-1z M6,28h1v1h-1z M7,28h1v1h-1z M8,28h1v1h-1z M9,28h1v1h-1z M10,28h1v1h-1z M11,28h1v1h-1z M12,28h1v1h-1z M14,28h1v1h-1z M15,28h1v1h-1z M19,28h1v1h-1z M20,28h1v1h-1z M21,28h1v1h-1z M23,28h1v1h-1z M24,28h1v1h-1z M25,28h1v1h-1z M27,28h1v1h-1z M28,28h1v1h-1z M29,28h1v1h-1z M30,28h1v1h-1z M31,28h1v1h-1z M32,28h1v1h-1z M33,28h1v1h-1z M34,28h1v1h-1z M37,28h1v1h-1z M40,28h1v1h-1z M41,28h1v1h-1z M42,28h1v1h-1z M44,28h1v1h-1z M47,28h1v1h-1z M48,28h1v1h-1z M51,28h1v1h-1z M52,28h1v1h-1z M53,28h1v1h-1z M54,28h1v1h-1z M55,28h1v1h-1z M56,28h1v1h-1z M59,28h1v1h-1z M60,28h1v1h-1z M62,28h1v1h-1z M66,28h1v1h-1z M67,28h1v1h-1z M69,28h1v1h-1z M70,28h1v1h-1z M73,28h1v1h-1z M74,28h1v1h-1z M75,28h1v1h-1z M76,28h1v1h-1z M77,28h1v1h-1z M78,28h1v1h-1z M79,28h1v1h-1z M80,28h1v1h-1z M82,28h1v1h-1z M83,28h1v1h-1z M85,28h1v1h-1z M87,28h1v1h-1z M88,28h1v1h-1z M89,28h1v1h-1z M92,28h1v1h-1z M95,28h1v1h-1z M96,28h1v1h-1z M99,28h1v1h-1z M100,28h1v1h-1z M101,28h1v1h-1z M102,28h1v1h-1z M103,28h1v1h-1z M104,28h1v1h-1z M105,28h1v1h-1z M107,28h1v1h-1z M4,29h1v1h-1z M5,29h1v1h-1z M6,29h1v1h-1z M8,29h1v1h-1z M12,29h1v1h-1z M15,29h1v1h-1z M16,29h1v1h-1z M18,29h1v1h-1z M20,29h1v1h-1z M22,29h1v1h-1z M24,29h1v1h-1z M26,29h1v1h-1z M28,29h1v1h-1z M32,29h1v1h-1z M34,29h1v1h-1z M37,29h1v1h-1z M39,29h1v1h-1z M41,29h1v1h-1z M46,29h1v1h-1z M47,29h1v1h-1z M51,29h1v1h-1z M52,29h1v1h-1z M56,29h1v1h-1z M58,29h1v1h-1z M60,29h1v1h-1z M63,29h1v1h-1z M64,29h1v1h-1z M65,29h1v1h-1z M70,29h1v1h-1z M72,29h1v1h-1z M74,29h1v1h-1z M75,29h1v1h-1z M76,29h1v1h-1z M80,29h1v1h-1z M81,29h1v1h-1z M83,29h1v1h-1z M84,29h1v1h-1z M85,29h1v1h-1z M86,29h1v1h-1z M88,29h1v1h-1z M94,29h1v1h-1z M95,29h1v1h-1z M96,29h1v1h-1z M98,29h1v1h-1z M100,29h1v1h-1z M104,29h1v1h-1z M105,29h1v1h-1z M107,29h1v1h-1z M108,29h1v1h-1z M7,30h1v1h-1z M8,30h1v1h-1z M10,30h1v1h-1z M12,30h1v1h-1z M13,30h1v1h-1z M16,30h1v1h-1z M17,30h1v1h-1z M23,30h1v1h-1z M24,30h1v1h-1z M25,30h1v1h-1z M26,30h1v1h-1z M28,30h1v1h-1z M30,30h1v1h-1z M32,30h1v1h-1z M33,30h1v1h-1z M38,30h1v1h-1z M39,30h1v1h-1z M47,30h1v1h-1z M48,30h1v1h-1z M50,30h1v1h-1z M52,30h1v1h-1z M54,30h1v1h-1z M56,30h1v1h-1z M59,30h1v1h-1z M60,30h1v1h-1z M62,30h1v1h-1z M64,30h1v1h-1z M65,30h1v1h-1z M67,30h1v1h-1z M71,30h1v1h-1z M74,30h1v1h-1z M75,30h1v1h-1z M76,30h1v1h-1z M78,30h1v1h-1z M80,30h1v1h-1z M85,30h1v1h-1z M86,30h1v1h-1z M87,30h1v1h-1z M89,30h1v1h-1z M93,30h1v1h-1z M95,30h1v1h-1z M96,30h1v1h-1z M98,30h1v1h-1z M99,30h1v1h-1z M100,30h1v1h-1z M102,30h1v1h-1z M104,30h1v1h-1z M105,30h1v1h-1z M106,30h1v1h-1z M107,30h1v1h-1z M4,31h1v1h-1z M6,31h1v1h-1z M8,31h1v1h-1z M12,31h1v1h-1z M16,31h1v1h-1z M17,31h1v1h-1z M18,31h1v1h-1z M19,31h1v1h-1z M20,31h1v1h-1z M21,31h1v1h-1z M22,31h1v1h-1z M24,31h1v1h-1z M27,31h1v1h-1z M28,31h1v1h-1z M32,31h1v1h-1z M34,31h1v1h-1z M35,31h1v1h-1z M37,31h1v1h-1z M42,31h1v1h-1z M43,31h1v1h-1z M44,31h1v1h-1z M46,31h1v1h-1z M51,31h1v1h-1z M52,31h1v1h-1z M56,31h1v1h-1z M57,31h1v1h-1z M58,31h1v1h-1z M62,31h1v1h-1z M65,31h1v1h-1z M68,31h1v1h-1z M70,31h1v1h-1z M71,31h1v1h-1z M73,31h1v1h-1z M75,31h1v1h-1z M76,31h1v1h-1z M80,31h1v1h-1z M83,31h1v1h-1z M90,31h1v1h-1z M91,31h1v1h-1z M92,31h1v1h-1z M94,31h1v1h-1z M95,31h1v1h-1z M98,31h1v1h-1z M99,31h1v1h-1z M100,31h1v1h-1z M104,31h1v1h-1z M108,31h1v1h-1z M4,32h1v1h-1z M6,32h1v1h-1z M7,32h1v1h-1z M8,32h1v1h-1z M9,32h1v1h-1z M10,32h1v1h-1z M11,32h1v1h-1z M12,32h1v1h-1z M13,32h1v1h-1z M14,32h1v1h-1z M15,32h1v1h-1z M18,32h1v1h-1z M19,32h1v1h-1z M22,32h1v1h-1z M25,32h1v1h-1z M26,32h1v1h-1z M28,32h1v1h-1z M29,32h1v1h-1z M30,32h1v1h-1z M31,32h1v1h-1z M32,32h1v1h-1z M33,32h1v1h-1z M34,32h1v1h-1z M35,32h1v1h-1z M36,32h1v1h-1z M38,32h1v1h-1z M40,32h1v1h-1z M42,32h1v1h-1z M44,32h1v1h-1z M45,32h1v1h-1z M49,32h1v1h-1z M52,32h1v1h-1z M53,32h1v1h-1z M54,32h1v1h-1z M55,32h1v1h-1z M56,32h1v1h-1z M57,32h1v1h-1z M58,32h1v1h-1z M66,32h1v1h-1z M68,32h1v1h-1z M70,32h1v1h-1z M74,32h1v1h-1z M75,32h1v1h-1z M76,32h1v1h-1z M77,32h1v1h-1z M78,32h1v1h-1z M79,32h1v1h-1z M80,32h1v1h-1z M82,32h1v1h-1z M84,32h1v1h-1z M89,32h1v1h-1z M90,32h1v1h-1z M91,32h1v1h-1z M93,32h1v1h-1z M94,32h1v1h-1z M96,32h1v1h-1z M97,32h1v1h-1z M100,32h1v1h-1z M101,32h1v1h-1z M102,32h1v1h-1z M103,32h1v1h-1z M104,32h1v1h-1z M107,32h1v1h-1z M108,32h1v1h-1z M4,33h1v1h-1z M5,33h1v1h-1z M7,33h1v1h-1z M8,33h1v1h-1z M12,33h1v1h-1z M15,33h1v1h-1z M16,33h1v1h-1z M17,33h1v1h-1z M20,33h1v1h-1z M23,33h1v1h-1z M24,33h1v1h-1z M26,33h1v1h-1z M27,33h1v1h-1z M28,33h1v1h-1z M29,33h1v1h-1z M30,33h1v1h-1z M31,33h1v1h-1z M35,33h1v1h-1z M36,33h1v1h-1z M39,33h1v1h-1z M40,33h1v1h-1z M41,33h1v1h-1z M42,33h1v1h-1z M43,33h1v1h-1z M45,33h1v1h-1z M46,33h1v1h-1z M48,33h1v1h-1z M50,33h1v1h-1z M51,33h1v1h-1z M60,33h1v1h-1z M62,33h1v1h-1z M64,33h1v1h-1z M65,33h1v1h-1z M70,33h1v1h-1z M71,33h1v1h-1z M73,33h1v1h-1z M74,33h1v1h-1z M75,33h1v1h-1z M77,33h1v1h-1z M78,33h1v1h-1z M79,33h1v1h-1z M81,33h1v1h-1z M82,33h1v1h-1z M83,33h1v1h-1z M84,33h1v1h-1z M85,33h1v1h-1z M87,33h1v1h-1z M88,33h1v1h-1z M90,33h1v1h-1z M96,33h1v1h-1z M99,33h1v1h-1z M101,33h1v1h-1z M102,33h1v1h-1z M104,33h1v1h-1z M107,33h1v1h-1z M108,33h1v1h-1z M6,34h1v1h-1z M7,34h1v1h-1z M9,34h1v1h-1z M10,34h1v1h-1z M11,34h1v1h-1z M12,34h1v1h-1z M13,34h1v1h-1z M14,34h1v1h-1z M18,34h1v1h-1z M20,34h1v1h-1z M21,34h1v1h-1z M22,34h1v1h-1z M27,34h1v1h-1z M28,34h1v1h-1z M29,34h1v1h-1z M31,34h1v1h-1z M38,34h1v1h-1z M40,34h1v1h-1z M41,34h1v1h-1z M47,34h1v1h-1z M48,34h1v1h-1z M50,34h1v1h-1z M51,34h1v1h-1z M52,34h1v1h-1z M53,34h1v1h-1z M55,34h1v1h-1z M56,34h1v1h-1z M59,34h1v1h-1z M60,34h1v1h-1z M61,34h1v1h-1z M62,34h1v1h-1z M64,34h1v1h-1z M67,34h1v1h-1z M68,34h1v1h-1z M69,34h1v1h-1z M74,34h1v1h-1z M75,34h1v1h-1z M76,34h1v1h-1z M77,34h1v1h-1z M79,34h1v1h-1z M81,34h1v1h-1z M86,34h1v1h-1z M88,34h1v1h-1z M89,34h1v1h-1z M96,34h1v1h-1z M98,34h1v1h-1z M101,34h1v1h-1z M107,34h1v1h-1z M5,35h1v1h-1z M7,35h1v1h-1z M8,35h1v1h-1z M12,35h1v1h-1z M13,35h1v1h-1z M14,35h1v1h-1z M16,35h1v1h-1z M18,35h1v1h-1z M20,35h1v1h-1z M21,35h1v1h-1z M23,35h1v1h-1z M25,35h1v1h-1z M26,35h1v1h-1z M28,35h1v1h-1z M29,35h1v1h-1z M33,35h1v1h-1z M34,35h1v1h-1z M35,35h1v1h-1z M38,35h1v1h-1z M39,35h1v1h-1z M42,35h1v1h-1z M43,35h1v1h-1z M44,35h1v1h-1z M50,35h1v1h-1z M53,35h1v1h-1z M55,35h1v1h-1z M56,35h1v1h-1z M59,35h1v1h-1z M63,35h1v1h-1z M65,35h1v1h-1z M66,35h1v1h-1z M68,35h1v1h-1z M70,35h1v1h-1z M71,35h1v1h-1z M73,35h1v1h-1z M74,35h1v1h-1z M77,35h1v1h-1z M82,35h1v1h-1z M83,35h1v1h-1z M86,35h1v1h-1z M87,35h1v1h-1z M91,35h1v1h-1z M92,35h1v1h-1z M93,35h1v1h-1z M94,35h1v1h-1z M95,35h1v1h-1z M97,35h1v1h-1z M99,35h1v1h-1z M100,35h1v1h-1z M104,35h1v1h-1z M108,35h1v1h-1z M6,36h1v1h-1z M7,36h1v1h-1z M9,36h1v1h-1z M10,36h1v1h-1z M14,36h1v1h-1z M15,36h1v1h-1z M17,36h1v1h-1z M19,36h1v1h-1z M20,36h1v1h-1z M22,36h1v1h-1z M26,36h1v1h-1z M28,36h1v1h-1z M30,36h1v1h-1z M33,36h1v1h-1z M36,36h1v1h-1z M40,36h1v1h-1z M41,36h1v1h-1z M44,36h1v1h-1z M46,36h1v1h-1z M49,36h1v1h-1z M53,36h1v1h-1z M54,36h1v1h-1z M55,36h1v1h-1z M57,36h1v1h-1z M59,36h1v1h-1z M62,36h1v1h-1z M63,36h1v1h-1z M65,36h1v1h-1z M69,36h1v1h-1z M70,36h1v1h-1z M76,36h1v1h-1z M77,36h1v1h-1z M78,36h1v1h-1z M79,36h1v1h-1z M84,36h1v1h-1z M86,36h1v1h-1z M87,36h1v1h-1z M91,36h1v1h-1z M92,36h1v1h-1z M93,36h1v1h-1z M94,36h1v1h-1z M96,36h1v1h-1z M102,36h1v1h-1z M103,36h1v1h-1z M104,36h1v1h-1z M105,36h1v1h-1z M106,36h1v1h-1z M107,36h1v1h-1z M4,37h1v1h-1z M5,37h1v1h-1z M6,37h1v1h-1z M7,37h1v1h-1z M16,37h1v1h-1z M19,37h1v1h-1z M20,37h1v1h-1z M22,37h1v1h-1z M26,37h1v1h-1z M27,37h1v1h-1z M28,37h1v1h-1z M29,37h1v1h-1z M31,37h1v1h-1z M35,37h1v1h-1z M36,37h1v1h-1z M37,37h1v1h-1z M40,37h1v1h-1z M41,37h1v1h-1z M42,37h1v1h-1z M45,37h1v1h-1z M48,37h1v1h-1z M50,37h1v1h-1z M51,37h1v1h-1z M52,37h1v1h-1z M55,37h1v1h-1z M58,37h1v1h-1z M63,37h1v1h-1z M64,37h1v1h-1z M67,37h1v1h-1z M69,37h1v1h-1z M72,37h1v1h-1z M73,37h1v1h-1z M76,37h1v1h-1z M78,37h1v1h-1z M80,37h1v1h-1z M81,37h1v1h-1z M84,37h1v1h-1z M85,37h1v1h-1z M87,37h1v1h-1z M88,37h1v1h-1z M91,37h1v1h-1z M95,37h1v1h-1z M100,37h1v1h-1z M101,37h1v1h-1z M102,37h1v1h-1z M106,37h1v1h-1z M4,38h1v1h-1z M6,38h1v1h-1z M10,38h1v1h-1z M12,38h1v1h-1z M14,38h1v1h-1z M17,38h1v1h-1z M23,38h1v1h-1z M26,38h1v1h-1z M28,38h1v1h-1z M29,38h1v1h-1z M30,38h1v1h-1z M31,38h1v1h-1z M32,38h1v1h-1z M35,38h1v1h-1z M38,38h1v1h-1z M40,38h1v1h-1z M41,38h1v1h-1z M47,38h1v1h-1z M50,38h1v1h-1z M59,38h1v1h-1z M60,38h1v1h-1z M62,38h1v1h-1z M64,38h1v1h-1z M65,38h1v1h-1z M68,38h1v1h-1z M69,38h1v1h-1z M71,38h1v1h-1z M72,38h1v1h-1z M73,38h1v1h-1z M74,38h1v1h-1z M76,38h1v1h-1z M80,38h1v1h-1z M81,38h1v1h-1z M86,38h1v1h-1z M87,38h1v1h-1z M88,38h1v1h-1z M89,38h1v1h-1z M95,38h1v1h-1z M96,38h1v1h-1z M98,38h1v1h-1z M100,38h1v1h-1z M101,38h1v1h-1z M106,38h1v1h-1z M4,39h1v1h-1z M5,39h1v1h-1z M9,39h1v1h-1z M11,39h1v1h-1z M12,39h1v1h-1z M14,39h1v1h-1z M15,39h1v1h-1z M17,39h1v1h-1z M23,39h1v1h-1z M24,39h1v1h-1z M29,39h1v1h-1z M31,39h1v1h-1z M32,39h1v1h-1z M33,39h1v1h-1z M34,39h1v1h-1z M35,39h1v1h-1z M37,39h1v1h-1z M43,39h1v1h-1z M44,39h1v1h-1z M45,39h1v1h-1z M47,39h1v1h-1z M49,39h1v1h-1z M50,39h1v1h-1z M51,39h1v1h-1z M52,39h1v1h-1z M53,39h1v1h-1z M55,39h1v1h-1z M58,39h1v1h-1z M59,39h1v1h-1z M62,39h1v1h-1z M65,39h1v1h-1z M68,39h1v1h-1z M70,39h1v1h-1z M71,39h1v1h-1z M81,39h1v1h-1z M82,39h1v1h-1z M83,39h1v1h-1z M89,39h1v1h-1z M91,39h1v1h-1z M92,39h1v1h-1z M95,39h1v1h-1z M98,39h1v1h-1z M99,39h1v1h-1z M100,39h1v1h-1z M101,39h1v1h-1z M103,39h1v1h-1z M104,39h1v1h-1z M108,39h1v1h-1z M4,40h1v1h-1z M5,40h1v1h-1z M7,40h1v1h-1z M8,40h1v1h-1z M10,40h1v1h-1z M11,40h1v1h-1z M12,40h1v1h-1z M13,40h1v1h-1z M14,40h1v1h-1z M15,40h1v1h-1z M16,40h1v1h-1z M19,40h1v1h-1z M20,40h1v1h-1z M22,40h1v1h-1z M23,40h1v1h-1z M24,40h1v1h-1z M26,40h1v1h-1z M30,40h1v1h-1z M31,40h1v1h-1z M34,40h1v1h-1z M35,40h1v1h-1z M37,40h1v1h-1z M39,40h1v1h-1z M45,40h1v1h-1z M54,40h1v1h-1z M58,40h1v1h-1z M63,40h1v1h-1z M64,40h1v1h-1z M65,40h1v1h-1z M66,40h1v1h-1z M67,40h1v1h-1z M70,40h1v1h-1z M73,40h1v1h-1z M76,40h1v1h-1z M77,40h1v1h-1z M79,40h1v1h-1z M81,40h1v1h-1z M84,40h1v1h-1z M86,40h1v1h-1z M87,40h1v1h-1z M88,40h1v1h-1z M90,40h1v1h-1z M91,40h1v1h-1z M92,40h1v1h-1z M93,40h1v1h-1z M94,40h1v1h-1z M99,40h1v1h-1z M100,40h1v1h-1z M102,40h1v1h-1z M103,40h1v1h-1z M104,40h1v1h-1z M107,40h1v1h-1z M108,40h1v1h-1z M4,41h1v1h-1z M5,41h1v1h-1z M7,41h1v1h-1z M9,41h1v1h-1z M11,41h1v1h-1z M12,41h1v1h-1z M13,41h1v1h-1z M22,41h1v1h-1z M23,41h1v1h-1z M25,41h1v1h-1z M28,41h1v1h-1z M29,41h1v1h-1z M33,41h1v1h-1z M34,41h1v1h-1z M36,41h1v1h-1z M38,41h1v1h-1z M39,41h1v1h-1z M40,41h1v1h-1z M44,41h1v1h-1z M45,41h1v1h-1z M47,41h1v1h-1z M49,41h1v1h-1z M50,41h1v1h-1z M51,41h1v1h-1z M52,41h1v1h-1z M54,41h1v1h-1z M55,41h1v1h-1z M57,41h1v1h-1z M60,41h1v1h-1z M61,41h1v1h-1z M63,41h1v1h-1z M65,41h1v1h-1z M67,41h1v1h-1z M68,41h1v1h-1z M69,41h1v1h-1z M70,41h1v1h-1z M73,41h1v1h-1z M74,41h1v1h-1z M76,41h1v1h-1z M81,41h1v1h-1z M84,41h1v1h-1z M88,41h1v1h-1z M89,41h1v1h-1z M91,41h1v1h-1z M92,41h1v1h-1z M93,41h1v1h-1z M103,41h1v1h-1z M108,41h1v1h-1z M5,42h1v1h-1z M10,42h1v1h-1z M11,42h1v1h-1z M12,42h1v1h-1z M14,42h1v1h-1z M17,42h1v1h-1z M20,42h1v1h-1z M22,42h1v1h-1z M24,42h1v1h-1z M29,42h1v1h-1z M31,42h1v1h-1z M36,42h1v1h-1z M37,42h1v1h-1z M38,42h1v1h-1z M39,42h1v1h-1z M41,42h1v1h-1z M45,42h1v1h-1z M47,42h1v1h-1z M48,42h1v1h-1z M50,42h1v1h-1z M52,42h1v1h-1z M62,42h1v1h-1z M63,42h1v1h-1z M64,42h1v1h-1z M65,42h1v1h-1z M67,42h1v1h-1z M68,42h1v1h-1z M69,42h1v1h-1z M71,42h1v1h-1z M72,42h1v1h-1z M74,42h1v1h-1z M75,42h1v1h-1z M76,42h1v1h-1z M78,42h1v1h-1z M79,42h1v1h-1z M80,42h1v1h-1z M83,42h1v1h-1z M84,42h1v1h-1z M86,42h1v1h-1z M88,42h1v1h-1z M93,42h1v1h-1z M95,42h1v1h-1z M96,42h1v1h-1z M97,42h1v1h-1z M98,42h1v1h-1z M99,42h1v1h-1z M100,42h1v1h-1z M101,42h1v1h-1z M102,42h1v1h-1z M107,42h1v1h-1z M4,43h1v1h-1z M5,43h1v1h-1z M9,43h1v1h-1z M11,43h1v1h-1z M12,43h1v1h-1z M14,43h1v1h-1z M15,43h1v1h-1z M19,43h1v1h-1z M20,43h1v1h-1z M21,43h1v1h-1z M22,43h1v1h-1z M23,43h1v1h-1z M24,43h1v1h-1z M27,43h1v1h-1z M28,43h1v1h-1z M29,43h1v1h-1z M34,43h1v1h-1z M35,43h1v1h-1z M42,43h1v1h-1z M43,43h1v1h-1z M44,43h1v1h-1z M46,43h1v1h-1z M49,43h1v1h-1z M52,43h1v1h-1z M55,43h1v1h-1z M59,43h1v1h-1z M61,43h1v1h-1z M68,43h1v1h-1z M70,43h1v1h-1z M73,43h1v1h-1z M74,43h1v1h-1z M77,43h1v1h-1z M79,43h1v1h-1z M85,43h1v1h-1z M86,43h1v1h-1z M89,43h1v1h-1z M90,43h1v1h-1z M91,43h1v1h-1z M92,43h1v1h-1z M94,43h1v1h-1z M95,43h1v1h-1z M99,43h1v1h-1z M100,43h1v1h-1z M102,43h1v1h-1z M103,43h1v1h-1z M104,43h1v1h-1z M108,43h1v1h-1z M4,44h1v1h-1z M6,44h1v1h-1z M7,44h1v1h-1z M10,44h1v1h-1z M13,44h1v1h-1z M14,44h1v1h-1z M17,44h1v1h-1z M20,44h1v1h-1z M21,44h1v1h-1z M25,44h1v1h-1z M26,44h1v1h-1z M27,44h1v1h-1z M28,44h1v1h-1z M31,44h1v1h-1z M33,44h1v1h-1z M35,44h1v1h-1z M36,44h1v1h-1z M40,44h1v1h-1z M41,44h1v1h-1z M42,44h1v1h-1z M43,44h1v1h-1z M48,44h1v1h-1z M52,44h1v1h-1z M55,44h1v1h-1z M57,44h1v1h-1z M58,44h1v1h-1z M60,44h1v1h-1z M61,44h1v1h-1z M62,44h1v1h-1z M63,44h1v1h-1z M65,44h1v1h-1z M67,44h1v1h-1z M69,44h1v1h-1z M72,44h1v1h-1z M76,44h1v1h-1z M77,44h1v1h-1z M78,44h1v1h-1z M79,44h1v1h-1z M81,44h1v1h-1z M85,44h1v1h-1z M86,44h1v1h-1z M88,44h1v1h-1z M89,44h1v1h-1z M90,44h1v1h-1z M91,44h1v1h-1z M92,44h1v1h-1z M95,44h1v1h-1z M96,44h1v1h-1z M97,44h1v1h-1z M98,44h1v1h-1z M99,44h1v1h-1z M101,44h1v1h-1z M102,44h1v1h-1z M104,44h1v1h-1z M106,44h1v1h-1z M107,44h1v1h-1z M108,44h1v1h-1z M4,45h1v1h-1z M5,45h1v1h-1z M7,45h1v1h-1z M11,45h1v1h-1z M12,45h1v1h-1z M15,45h1v1h-1z M16,45h1v1h-1z M17,45h1v1h-1z M18,45h1v1h-1z M23,45h1v1h-1z M28,45h1v1h-1z M31,45h1v1h-1z M33,45h1v1h-1z M35,45h1v1h-1z M37,45h1v1h-1z M40,45h1v1h-1z M41,45h1v1h-1z M42,45h1v1h-1z M43,45h1v1h-1z M45,45h1v1h-1z M46,45h1v1h-1z M47,45h1v1h-1z M48,45h1v1h-1z M51,45h1v1h-1z M52,45h1v1h-1z M53,45h1v1h-1z M55,45h1v1h-1z M56,45h1v1h-1z M58,45h1v1h-1z M62,45h1v1h-1z M63,45h1v1h-1z M65,45h1v1h-1z M66,45h1v1h-1z M68,45h1v1h-1z M69,45h1v1h-1z M72,45h1v1h-1z M74,45h1v1h-1z M75,45h1v1h-1z M76,45h1v1h-1z M78,45h1v1h-1z M79,45h1v1h-1z M82,45h1v1h-1z M84,45h1v1h-1z M85,45h1v1h-1z M86,45h1v1h-1z M89,45h1v1h-1z M90,45h1v1h-1z M91,45h1v1h-1z M94,45h1v1h-1z M96,45h1v1h-1z M105,45h1v1h-1z M106,45h1v1h-1z M4,46h1v1h-1z M7,46h1v1h-1z M10,46h1v1h-1z M11,46h1v1h-1z M12,46h1v1h-1z M17,46h1v1h-1z M18,46h1v1h-1z M21,46h1v1h-1z M24,46h1v1h-1z M26,46h1v1h-1z M29,46h1v1h-1z M30,46h1v1h-1z M31,46h1v1h-1z M36,46h1v1h-1z M37,46h1v1h-1z M38,46h1v1h-1z M43,46h1v1h-1z M47,46h1v1h-1z M49,46h1v1h-1z M50,46h1v1h-1z M51,46h1v1h-1z M52,46h1v1h-1z M54,46h1v1h-1z M56,46h1v1h-1z M59,46h1v1h-1z M60,46h1v1h-1z M62,46h1v1h-1z M64,46h1v1h-1z M71,46h1v1h-1z M72,46h1v1h-1z M74,46h1v1h-1z M76,46h1v1h-1z M78,46h1v1h-1z M79,46h1v1h-1z M80,46h1v1h-1z M83,46h1v1h-1z M86,46h1v1h-1z M87,46h1v1h-1z M88,46h1v1h-1z M89,46h1v1h-1z M93,46h1v1h-1z M95,46h1v1h-1z M98,46h1v1h-1z M99,46h1v1h-1z M100,46h1v1h-1z M6,47h1v1h-1z M7,47h1v1h-1z M15,47h1v1h-1z M18,47h1v1h-1z M19,47h1v1h-1z M21,47h1v1h-1z M23,47h1v1h-1z M24,47h1v1h-1z M25,47h1v1h-1z M26,47h1v1h-1z M27,47h1v1h-1z M28,47h1v1h-1z M32,47h1v1h-1z M33,47h1v1h-1z M35,47h1v1h-1z M42,47h1v1h-1z M44,47h1v1h-1z M45,47h1v1h-1z M46,47h1v1h-1z M47,47h1v1h-1z M49,47h1v1h-1z M57,47h1v1h-1z M58,47h1v1h-1z M66,47h1v1h-1z M67,47h1v1h-1z M68,47h1v1h-1z M69,47h1v1h-1z M71,47h1v1h-1z M74,47h1v1h-1z M76,47h1v1h-1z M77,47h1v1h-1z M81,47h1v1h-1z M82,47h1v1h-1z M83,47h1v1h-1z M85,47h1v1h-1z M89,47h1v1h-1z M90,47h1v1h-1z M92,47h1v1h-1z M94,47h1v1h-1z M95,47h1v1h-1z M98,47h1v1h-1z M99,47h1v1h-1z M101,47h1v1h-1z M102,47h1v1h-1z M103,47h1v1h-1z M104,47h1v1h-1z M108,47h1v1h-1z M5,48h1v1h-1z M6,48h1v1h-1z M9,48h1v1h-1z M10,48h1v1h-1z M11,48h1v1h-1z M12,48h1v1h-1z M13,48h1v1h-1z M14,48h1v1h-1z M16,48h1v1h-1z M19,48h1v1h-1z M20,48h1v1h-1z M22,48h1v1h-1z M23,48h1v1h-1z M24,48h1v1h-1z M25,48h1v1h-1z M29,48h1v1h-1z M31,48h1v1h-1z M34,48h1v1h-1z M35,48h1v1h-1z M38,48h1v1h-1z M39,48h1v1h-1z M41,48h1v1h-1z M43,48h1v1h-1z M47,48h1v1h-1z M50,48h1v1h-1z M52,48h1v1h-1z M55,48h1v1h-1z M59,48h1v1h-1z M60,48h1v1h-1z M61,48h1v1h-1z M65,48h1v1h-1z M67,48h1v1h-1z M69,48h1v1h-1z M70,48h1v1h-1z M73,48h1v1h-1z M74,48h1v1h-1z M77,48h1v1h-1z M82,48h1v1h-1z M83,48h1v1h-1z M85,48h1v1h-1z M89,48h1v1h-1z M90,48h1v1h-1z M91,48h1v1h-1z M93,48h1v1h-1z M94,48h1v1h-1z M96,48h1v1h-1z M97,48h1v1h-1z M102,48h1v1h-1z M103,48h1v1h-1z M104,48h1v1h-1z M105,48h1v1h-1z M108,48h1v1h-1z M4,49h1v1h-1z M5,49h1v1h-1z M9,49h1v1h-1z M14,49h1v1h-1z M17,49h1v1h-1z M23,49h1v1h-1z M26,49h1v1h-1z M27,49h1v1h-1z M30,49h1v1h-1z M31,49h1v1h-1z M32,49h1v1h-1z M33,49h1v1h-1z M35,49h1v1h-1z M38,49h1v1h-1z M39,49h1v1h-1z M46,49h1v1h-1z M48,49h1v1h-1z M49,49h1v1h-1z M53,49h1v1h-1z M54,49h1v1h-1z M55,49h1v1h-1z M57,49h1v1h-1z M58,49h1v1h-1z M60,49h1v1h-1z M62,49h1v1h-1z M63,49h1v1h-1z M64,49h1v1h-1z M65,49h1v1h-1z M67,49h1v1h-1z M71,49h1v1h-1z M73,49h1v1h-1z M74,49h1v1h-1z M75,49h1v1h-1z M76,49h1v1h-1z M77,49h1v1h-1z M80,49h1v1h-1z M81,49h1v1h-1z M82,49h1v1h-1z M83,49h1v1h-1z M84,49h1v1h-1z M85,49h1v1h-1z M86,49h1v1h-1z M88,49h1v1h-1z M90,49h1v1h-1z M91,49h1v1h-1z M92,49h1v1h-1z M94,49h1v1h-1z M96,49h1v1h-1z M98,49h1v1h-1z M100,49h1v1h-1z M101,49h1v1h-1z M104,49h1v1h-1z M106,49h1v1h-1z M108,49h1v1h-1z M4,50h1v1h-1z M5,50h1v1h-1z M8,50h1v1h-1z M10,50h1v1h-1z M11,50h1v1h-1z M12,50h1v1h-1z M16,50h1v1h-1z M19,50h1v1h-1z M20,50h1v1h-1z M21,50h1v1h-1z M22,50h1v1h-1z M23,50h1v1h-1z M25,50h1v1h-1z M28,50h1v1h-1z M30,50h1v1h-1z M31,50h1v1h-1z M32,50h1v1h-1z M33,50h1v1h-1z M35,50h1v1h-1z M36,50h1v1h-1z M38,50h1v1h-1z M39,50h1v1h-1z M40,50h1v1h-1z M41,50h1v1h-1z M43,50h1v1h-1z M45,50h1v1h-1z M48,50h1v1h-1z M50,50h1v1h-1z M51,50h1v1h-1z M52,50h1v1h-1z M54,50h1v1h-1z M56,50h1v1h-1z M60,50h1v1h-1z M62,50h1v1h-1z M63,50h1v1h-1z M64,50h1v1h-1z M67,50h1v1h-1z M68,50h1v1h-1z M71,50h1v1h-1z M72,50h1v1h-1z M74,50h1v1h-1z M75,50h1v1h-1z M77,50h1v1h-1z M80,50h1v1h-1z M83,50h1v1h-1z M84,50h1v1h-1z M86,50h1v1h-1z M88,50h1v1h-1z M89,50h1v1h-1z M98,50h1v1h-1z M101,50h1v1h-1z M102,50h1v1h-1z M103,50h1v1h-1z M107,50h1v1h-1z M4,51h1v1h-1z M5,51h1v1h-1z M6,51h1v1h-1z M7,51h1v1h-1z M8,51h1v1h-1z M9,51h1v1h-1z M11,51h1v1h-1z M12,51h1v1h-1z M16,51h1v1h-1z M17,51h1v1h-1z M20,51h1v1h-1z M24,51h1v1h-1z M26,51h1v1h-1z M29,51h1v1h-1z M31,51h1v1h-1z M34,51h1v1h-1z M38,51h1v1h-1z M41,51h1v1h-1z M42,51h1v1h-1z M44,51h1v1h-1z M46,51h1v1h-1z M47,51h1v1h-1z M49,51h1v1h-1z M50,51h1v1h-1z M52,51h1v1h-1z M53,51h1v1h-1z M55,51h1v1h-1z M57,51h1v1h-1z M59,51h1v1h-1z M65,51h1v1h-1z M66,51h1v1h-1z M68,51h1v1h-1z M69,51h1v1h-1z M74,51h1v1h-1z M76,51h1v1h-1z M77,51h1v1h-1z M79,51h1v1h-1z M83,51h1v1h-1z M85,51h1v1h-1z M86,51h1v1h-1z M87,51h1v1h-1z M91,51h1v1h-1z M92,51h1v1h-1z M94,51h1v1h-1z M95,51h1v1h-1z M97,51h1v1h-1z M99,51h1v1h-1z M100,51h1v1h-1z M102,51h1v1h-1z M104,51h1v1h-1z M105,51h1v1h-1z M108,51h1v1h-1z M5,52h1v1h-1z M6,52h1v1h-1z M7,52h1v1h-1z M8,52h1v1h-1z M9,52h1v1h-1z M10,52h1v1h-1z M11,52h1v1h-1z M12,52h1v1h-1z M15,52h1v1h-1z M16,52h1v1h-1z M18,52h1v1h-1z M19,52h1v1h-1z M25,52h1v1h-1z M28,52h1v1h-1z M29,52h1v1h-1z M30,52h1v1h-1z M31,52h1v1h-1z M32,52h1v1h-1z M34,52h1v1h-1z M35,52h1v1h-1z M38,52h1v1h-1z M42,52h1v1h-1z M43,52h1v1h-1z M44,52h1v1h-1z M49,52h1v1h-1z M52,52h1v1h-1z M53,52h1v1h-1z M54,52h1v1h-1z M55,52h1v1h-1z M56,52h1v1h-1z M57,52h1v1h-1z M58,52h1v1h-1z M59,52h1v1h-1z M62,52h1v1h-1z M71,52h1v1h-1z M74,52h1v1h-1z M76,52h1v1h-1z M77,52h1v1h-1z M78,52h1v1h-1z M79,52h1v1h-1z M80,52h1v1h-1z M83,52h1v1h-1z M86,52h1v1h-1z M87,52h1v1h-1z M90,52h1v1h-1z M100,52h1v1h-1z M101,52h1v1h-1z M102,52h1v1h-1z M103,52h1v1h-1z M104,52h1v1h-1z M105,52h1v1h-1z M108,52h1v1h-1z M4,53h1v1h-1z M5,53h1v1h-1z M7,53h1v1h-1z M8,53h1v1h-1z M12,53h1v1h-1z M13,53h1v1h-1z M14,53h1v1h-1z M16,53h1v1h-1z M19,53h1v1h-1z M23,53h1v1h-1z M26,53h1v1h-1z M28,53h1v1h-1z M32,53h1v1h-1z M34,53h1v1h-1z M36,53h1v1h-1z M37,53h1v1h-1z M38,53h1v1h-1z M41,53h1v1h-1z M44,53h1v1h-1z M46,53h1v1h-1z M47,53h1v1h-1z M49,53h1v1h-1z M50,53h1v1h-1z M52,53h1v1h-1z M56,53h1v1h-1z M57,53h1v1h-1z M60,53h1v1h-1z M61,53h1v1h-1z M62,53h1v1h-1z M63,53h1v1h-1z M64,53h1v1h-1z M68,53h1v1h-1z M69,53h1v1h-1z M72,53h1v1h-1z M76,53h1v1h-1z M80,53h1v1h-1z M81,53h1v1h-1z M82,53h1v1h-1z M84,53h1v1h-1z M85,53h1v1h-1z M88,53h1v1h-1z M90,53h1v1h-1z M93,53h1v1h-1z M95,53h1v1h-1z M97,53h1v1h-1z M100,53h1v1h-1z M104,53h1v1h-1z M106,53h1v1h-1z M5,54h1v1h-1z M6,54h1v1h-1z M8,54h1v1h-1z M10,54h1v1h-1z M12,54h1v1h-1z M14,54h1v1h-1z M15,54h1v1h-1z M16,54h1v1h-1z M18,54h1v1h-1z M20,54h1v1h-1z M21,54h1v1h-1z M22,54h1v1h-1z M24,54h1v1h-1z M26,54h1v1h-1z M27,54h1v1h-1z M28,54h1v1h-1z M30,54h1v1h-1z M32,54h1v1h-1z M35,54h1v1h-1z M38,54h1v1h-1z M40,54h1v1h-1z M41,54h1v1h-1z M44,54h1v1h-1z M47,54h1v1h-1z M49,54h1v1h-1z M50,54h1v1h-1z M51,54h1v1h-1z M52,54h1v1h-1z M54,54h1v1h-1z M56,54h1v1h-1z M59,54h1v1h-1z M60,54h1v1h-1z M61,54h1v1h-1z M62,54h1v1h-1z M65,54h1v1h-1z M72,54h1v1h-1z M74,54h1v1h-1z M75,54h1v1h-1z M76,54h1v1h-1z M78,54h1v1h-1z M80,54h1v1h-1z M83,54h1v1h-1z M85,54h1v1h-1z M86,54h1v1h-1z M88,54h1v1h-1z M95,54h1v1h-1z M96,54h1v1h-1z M98,54h1v1h-1z M100,54h1v1h-1z M102,54h1v1h-1z M104,54h1v1h-1z M105,54h1v1h-1z M106,54h1v1h-1z M4,55h1v1h-1z M5,55h1v1h-1z M8,55h1v1h-1z M12,55h1v1h-1z M13,55h1v1h-1z M14,55h1v1h-1z M16,55h1v1h-1z M17,55h1v1h-1z M19,55h1v1h-1z M21,55h1v1h-1z M22,55h1v1h-1z M26,55h1v1h-1z M27,55h1v1h-1z M28,55h1v1h-1z M32,55h1v1h-1z M33,55h1v1h-1z M34,55h1v1h-1z M35,55h1v1h-1z M37,55h1v1h-1z M38,55h1v1h-1z M41,55h1v1h-1z M42,55h1v1h-1z M44,55h1v1h-1z M45,55h1v1h-1z M46,55h1v1h-1z M47,55h1v1h-1z M51,55h1v1h-1z M52,55h1v1h-1z M56,55h1v1h-1z M57,55h1v1h-1z M58,55h1v1h-1z M65,55h1v1h-1z M68,55h1v1h-1z M70,55h1v1h-1z M71,55h1v1h-1z M73,55h1v1h-1z M75,55h1v1h-1z M76,55h1v1h-1z M80,55h1v1h-1z M83,55h1v1h-1z M87,55h1v1h-1z M89,55h1v1h-1z M90,55h1v1h-1z M91,55h1v1h-1z M92,55h1v1h-1z M93,55h1v1h-1z M97,55h1v1h-1z M98,55h1v1h-1z M100,55h1v1h-1z M104,55h1v1h-1z M105,55h1v1h-1z M107,55h1v1h-1z M108,55h1v1h-1z M4,56h1v1h-1z M8,56h1v1h-1z M9,56h1v1h-1z M10,56h1v1h-1z M11,56h1v1h-1z M12,56h1v1h-1z M22,56h1v1h-1z M23,56h1v1h-1z M26,56h1v1h-1z M28,56h1v1h-1z M29,56h1v1h-1z M30,56h1v1h-1z M31,56h1v1h-1z M32,56h1v1h-1z M38,56h1v1h-1z M39,56h1v1h-1z M42,56h1v1h-1z M45,56h1v1h-1z M46,56h1v1h-1z M47,56h1v1h-1z M50,56h1v1h-1z M52,56h1v1h-1z M53,56h1v1h-1z M54,56h1v1h-1z M55,56h1v1h-1z M56,56h1v1h-1z M58,56h1v1h-1z M59,56h1v1h-1z M60,56h1v1h-1z M63,56h1v1h-1z M64,56h1v1h-1z M65,56h1v1h-1z M66,56h1v1h-1z M67,56h1v1h-1z M70,56h1v1h-1z M71,56h1v1h-1z M73,56h1v1h-1z M76,56h1v1h-1z M77,56h1v1h-1z M78,56h1v1h-1z M79,56h1v1h-1z M80,56h1v1h-1z M81,56h1v1h-1z M83,56h1v1h-1z M84,56h1v1h-1z M86,56h1v1h-1z M89,56h1v1h-1z M90,56h1v1h-1z M91,56h1v1h-1z M92,56h1v1h-1z M93,56h1v1h-1z M94,56h1v1h-1z M95,56h1v1h-1z M96,56h1v1h-1z M99,56h1v1h-1z M100,56h1v1h-1z M101,56h1v1h-1z M102,56h1v1h-1z M103,56h1v1h-1z M104,56h1v1h-1z M108,56h1v1h-1z M4,57h1v1h-1z M6,57h1v1h-1z M7,57h1v1h-1z M8,57h1v1h-1z M12,57h1v1h-1z M13,57h1v1h-1z M14,57h1v1h-1z M15,57h1v1h-1z M16,57h1v1h-1z M19,57h1v1h-1z M20,57h1v1h-1z M21,57h1v1h-1z M22,57h1v1h-1z M23,57h1v1h-1z M27,57h1v1h-1z M29,57h1v1h-1z M30,57h1v1h-1z M31,57h1v1h-1z M35,57h1v1h-1z M36,57h1v1h-1z M39,57h1v1h-1z M41,57h1v1h-1z M44,57h1v1h-1z M47,57h1v1h-1z M48,57h1v1h-1z M50,57h1v1h-1z M52,57h1v1h-1z M53,57h1v1h-1z M54,57h1v1h-1z M57,57h1v1h-1z M58,57h1v1h-1z M59,57h1v1h-1z M60,57h1v1h-1z M62,57h1v1h-1z M64,57h1v1h-1z M65,57h1v1h-1z M68,57h1v1h-1z M69,57h1v1h-1z M70,57h1v1h-1z M71,57h1v1h-1z M72,57h1v1h-1z M73,57h1v1h-1z M74,57h1v1h-1z M75,57h1v1h-1z M77,57h1v1h-1z M79,57h1v1h-1z M81,57h1v1h-1z M82,57h1v1h-1z M84,57h1v1h-1z M87,57h1v1h-1z M88,57h1v1h-1z M89,57h1v1h-1z M91,57h1v1h-1z M93,57h1v1h-1z M96,57h1v1h-1z M97,57h1v1h-1z M98,57h1v1h-1z M100,57h1v1h-1z M102,57h1v1h-1z M103,57h1v1h-1z M104,57h1v1h-1z M106,57h1v1h-1z M107,57h1v1h-1z M5,58h1v1h-1z M6,58h1v1h-1z M7,58h1v1h-1z M9,58h1v1h-1z M10,58h1v1h-1z M12,58h1v1h-1z M15,58h1v1h-1z M18,58h1v1h-1z M19,58h1v1h-1z M20,58h1v1h-1z M22,58h1v1h-1z M23,58h1v1h-1z M26,58h1v1h-1z M36,58h1v1h-1z M38,58h1v1h-1z M40,58h1v1h-1z M47,58h1v1h-1z M48,58h1v1h-1z M50,58h1v1h-1z M53,58h1v1h-1z M54,58h1v1h-1z M57,58h1v1h-1z M59,58h1v1h-1z M60,58h1v1h-1z M61,58h1v1h-1z M62,58h1v1h-1z M63,58h1v1h-1z M64,58h1v1h-1z M65,58h1v1h-1z M69,58h1v1h-1z M72,58h1v1h-1z M74,58h1v1h-1z M77,58h1v1h-1z M79,58h1v1h-1z M80,58h1v1h-1z M85,58h1v1h-1z M86,58h1v1h-1z M89,58h1v1h-1z M91,58h1v1h-1z M96,58h1v1h-1z M97,58h1v1h-1z M98,58h1v1h-1z M100,58h1v1h-1z M105,58h1v1h-1z M106,58h1v1h-1z M107,58h1v1h-1z M5,59h1v1h-1z M6,59h1v1h-1z M7,59h1v1h-1z M8,59h1v1h-1z M11,59h1v1h-1z M12,59h1v1h-1z M18,59h1v1h-1z M19,59h1v1h-1z M21,59h1v1h-1z M22,59h1v1h-1z M23,59h1v1h-1z M24,59h1v1h-1z M25,59h1v1h-1z M26,59h1v1h-1z M28,59h1v1h-1z M29,59h1v1h-1z M30,59h1v1h-1z M31,59h1v1h-1z M32,59h1v1h-1z M34,59h1v1h-1z M35,59h1v1h-1z M37,59h1v1h-1z M38,59h1v1h-1z M41,59h1v1h-1z M42,59h1v1h-1z M43,59h1v1h-1z M44,59h1v1h-1z M45,59h1v1h-1z M46,59h1v1h-1z M49,59h1v1h-1z M53,59h1v1h-1z M56,59h1v1h-1z M58,59h1v1h-1z M61,59h1v1h-1z M66,59h1v1h-1z M68,59h1v1h-1z M69,59h1v1h-1z M70,59h1v1h-1z M71,59h1v1h-1z M74,59h1v1h-1z M76,59h1v1h-1z M80,59h1v1h-1z M81,59h1v1h-1z M83,59h1v1h-1z M89,59h1v1h-1z M92,59h1v1h-1z M93,59h1v1h-1z M94,59h1v1h-1z M95,59h1v1h-1z M97,59h1v1h-1z M102,59h1v1h-1z M103,59h1v1h-1z M7,60h1v1h-1z M8,60h1v1h-1z M10,60h1v1h-1z M12,60h1v1h-1z M14,60h1v1h-1z M18,60h1v1h-1z M19,60h1v1h-1z M22,60h1v1h-1z M23,60h1v1h-1z M24,60h1v1h-1z M27,60h1v1h-1z M30,60h1v1h-1z M32,60h1v1h-1z M33,60h1v1h-1z M34,60h1v1h-1z M35,60h1v1h-1z M36,60h1v1h-1z M38,60h1v1h-1z M41,60h1v1h-1z M42,60h1v1h-1z M45,60h1v1h-1z M46,60h1v1h-1z M48,60h1v1h-1z M52,60h1v1h-1z M54,60h1v1h-1z M56,60h1v1h-1z M58,60h1v1h-1z M59,60h1v1h-1z M60,60h1v1h-1z M62,60h1v1h-1z M63,60h1v1h-1z M64,60h1v1h-1z M65,60h1v1h-1z M66,60h1v1h-1z M67,60h1v1h-1z M68,60h1v1h-1z M69,60h1v1h-1z M70,60h1v1h-1z M71,60h1v1h-1z M72,60h1v1h-1z M73,60h1v1h-1z M75,60h1v1h-1z M77,60h1v1h-1z M78,60h1v1h-1z M82,60h1v1h-1z M88,60h1v1h-1z M90,60h1v1h-1z M92,60h1v1h-1z M97,60h1v1h-1z M102,60h1v1h-1z M103,60h1v1h-1z M106,60h1v1h-1z M5,61h1v1h-1z M6,61h1v1h-1z M7,61h1v1h-1z M11,61h1v1h-1z M12,61h1v1h-1z M14,61h1v1h-1z M17,61h1v1h-1z M18,61h1v1h-1z M22,61h1v1h-1z M24,61h1v1h-1z M25,61h1v1h-1z M26,61h1v1h-1z M27,61h1v1h-1z M29,61h1v1h-1z M31,61h1v1h-1z M33,61h1v1h-1z M34,61h1v1h-1z M38,61h1v1h-1z M40,61h1v1h-1z M42,61h1v1h-1z M43,61h1v1h-1z M45,61h1v1h-1z M48,61h1v1h-1z M51,61h1v1h-1z M52,61h1v1h-1z M53,61h1v1h-1z M55,61h1v1h-1z M58,61h1v1h-1z M60,61h1v1h-1z M65,61h1v1h-1z M67,61h1v1h-1z M70,61h1v1h-1z M74,61h1v1h-1z M75,61h1v1h-1z M76,61h1v1h-1z M79,61h1v1h-1z M84,61h1v1h-1z M86,61h1v1h-1z M87,61h1v1h-1z M88,61h1v1h-1z M89,61h1v1h-1z M92,61h1v1h-1z M95,61h1v1h-1z M97,61h1v1h-1z M98,61h1v1h-1z M99,61h1v1h-1z M100,61h1v1h-1z M102,61h1v1h-1z M103,61h1v1h-1z M106,61h1v1h-1z M108,61h1v1h-1z M4,62h1v1h-1z M6,62h1v1h-1z M8,62h1v1h-1z M9,62h1v1h-1z M10,62h1v1h-1z M12,62h1v1h-1z M14,62h1v1h-1z M17,62h1v1h-1z M18,62h1v1h-1z M19,62h1v1h-1z M22,62h1v1h-1z M23,62h1v1h-1z M24,62h1v1h-1z M25,62h1v1h-1z M26,62h1v1h-1z M27,62h1v1h-1z M29,62h1v1h-1z M30,62h1v1h-1z M36,62h1v1h-1z M37,62h1v1h-1z M38,62h1v1h-1z M39,62h1v1h-1z M40,62h1v1h-1z M48,62h1v1h-1z M50,62h1v1h-1z M53,62h1v1h-1z M55,62h1v1h-1z M61,62h1v1h-1z M62,62h1v1h-1z M64,62h1v1h-1z M65,62h1v1h-1z M68,62h1v1h-1z M69,62h1v1h-1z M73,62h1v1h-1z M74,62h1v1h-1z M77,62h1v1h-1z M79,62h1v1h-1z M80,62h1v1h-1z M84,62h1v1h-1z M86,62h1v1h-1z M88,62h1v1h-1z M89,62h1v1h-1z M91,62h1v1h-1z M92,62h1v1h-1z M95,62h1v1h-1z M96,62h1v1h-1z M97,62h1v1h-1z M98,62h1v1h-1z M101,62h1v1h-1z M102,62h1v1h-1z M103,62h1v1h-1z M104,62h1v1h-1z M106,62h1v1h-1z M107,62h1v1h-1z M5,63h1v1h-1z M6,63h1v1h-1z M7,63h1v1h-1z M9,63h1v1h-1z M11,63h1v1h-1z M13,63h1v1h-1z M15,63h1v1h-1z M18,63h1v1h-1z M20,63h1v1h-1z M22,63h1v1h-1z M25,63h1v1h-1z M26,63h1v1h-1z M27,63h1v1h-1z M29,63h1v1h-1z M30,63h1v1h-1z M31,63h1v1h-1z M32,63h1v1h-1z M34,63h1v1h-1z M42,63h1v1h-1z M43,63h1v1h-1z M44,63h1v1h-1z M45,63h1v1h-1z M46,63h1v1h-1z M47,63h1v1h-1z M49,63h1v1h-1z M50,63h1v1h-1z M52,63h1v1h-1z M59,63h1v1h-1z M63,63h1v1h-1z M68,63h1v1h-1z M70,63h1v1h-1z M71,63h1v1h-1z M76,63h1v1h-1z M77,63h1v1h-1z M78,63h1v1h-1z M79,63h1v1h-1z M81,63h1v1h-1z M83,63h1v1h-1z M85,63h1v1h-1z M90,63h1v1h-1z M92,63h1v1h-1z M93,63h1v1h-1z M95,63h1v1h-1z M97,63h1v1h-1z M99,63h1v1h-1z M101,63h1v1h-1z M102,63h1v1h-1z M103,63h1v1h-1z M108,63h1v1h-1z M7,64h1v1h-1z M8,64h1v1h-1z M9,64h1v1h-1z M10,64h1v1h-1z M11,64h1v1h-1z M12,64h1v1h-1z M13,64h1v1h-1z M15,64h1v1h-1z M17,64h1v1h-1z M20,64h1v1h-1z M22,64h1v1h-1z M24,64h1v1h-1z M25,64h1v1h-1z M27,64h1v1h-1z M28,64h1v1h-1z M30,64h1v1h-1z M31,64h1v1h-1z M34,64h1v1h-1z M35,64h1v1h-1z M36,64h1v1h-1z M41,64h1v1h-1z M44,64h1v1h-1z M46,64h1v1h-1z M49,64h1v1h-1z M52,64h1v1h-1z M54,64h1v1h-1z M57,64h1v1h-1z M58,64h1v1h-1z M61,64h1v1h-1z M63,64h1v1h-1z M65,64h1v1h-1z M69,64h1v1h-1z M70,64h1v1h-1z M77,64h1v1h-1z M78,64h1v1h-1z M80,64h1v1h-1z M81,64h1v1h-1z M82,64h1v1h-1z M83,64h1v1h-1z M85,64h1v1h-1z M88,64h1v1h-1z M94,64h1v1h-1z M96,64h1v1h-1z M97,64h1v1h-1z M105,64h1v1h-1z M106,64h1v1h-1z M4,65h1v1h-1z M6,65h1v1h-1z M11,65h1v1h-1z M12,65h1v1h-1z M13,65h1v1h-1z M15,65h1v1h-1z M16,65h1v1h-1z M25,65h1v1h-1z M26,65h1v1h-1z M28,65h1v1h-1z M31,65h1v1h-1z M34,65h1v1h-1z M36,65h1v1h-1z M37,65h1v1h-1z M39,65h1v1h-1z M40,65h1v1h-1z M43,65h1v1h-1z M45,65h1v1h-1z M46,65h1v1h-1z M49,65h1v1h-1z M50,65h1v1h-1z M51,65h1v1h-1z M53,65h1v1h-1z M55,65h1v1h-1z M57,65h1v1h-1z M58,65h1v1h-1z M59,65h1v1h-1z M60,65h1v1h-1z M63,65h1v1h-1z M64,65h1v1h-1z M65,65h1v1h-1z M66,65h1v1h-1z M68,65h1v1h-1z M70,65h1v1h-1z M71,65h1v1h-1z M73,65h1v1h-1z M74,65h1v1h-1z M75,65h1v1h-1z M76,65h1v1h-1z M79,65h1v1h-1z M82,65h1v1h-1z M84,65h1v1h-1z M87,65h1v1h-1z M88,65h1v1h-1z M89,65h1v1h-1z M92,65h1v1h-1z M96,65h1v1h-1z M99,65h1v1h-1z M100,65h1v1h-1z M102,65h1v1h-1z M103,65h1v1h-1z M104,65h1v1h-1z M106,65h1v1h-1z M107,65h1v1h-1z M108,65h1v1h-1z M4,66h1v1h-1z M6,66h1v1h-1z M7,66h1v1h-1z M9,66h1v1h-1z M10,66h1v1h-1z M11,66h1v1h-1z M12,66h1v1h-1z M13,66h1v1h-1z M14,66h1v1h-1z M18,66h1v1h-1z M20,66h1v1h-1z M26,66h1v1h-1z M29,66h1v1h-1z M35,66h1v1h-1z M36,66h1v1h-1z M38,66h1v1h-1z M40,66h1v1h-1z M41,66h1v1h-1z M44,66h1v1h-1z M47,66h1v1h-1z M48,66h1v1h-1z M49,66h1v1h-1z M50,66h1v1h-1z M53,66h1v1h-1z M55,66h1v1h-1z M57,66h1v1h-1z M59,66h1v1h-1z M60,66h1v1h-1z M62,66h1v1h-1z M64,66h1v1h-1z M65,66h1v1h-1z M67,66h1v1h-1z M68,66h1v1h-1z M69,66h1v1h-1z M72,66h1v1h-1z M74,66h1v1h-1z M78,66h1v1h-1z M79,66h1v1h-1z M86,66h1v1h-1z M87,66h1v1h-1z M89,66h1v1h-1z M92,66h1v1h-1z M98,66h1v1h-1z M100,66h1v1h-1z M102,66h1v1h-1z M104,66h1v1h-1z M106,66h1v1h-1z M107,66h1v1h-1z M4,67h1v1h-1z M6,67h1v1h-1z M8,67h1v1h-1z M9,67h1v1h-1z M11,67h1v1h-1z M16,67h1v1h-1z M17,67h1v1h-1z M18,67h1v1h-1z M21,67h1v1h-1z M23,67h1v1h-1z M26,67h1v1h-1z M28,67h1v1h-1z M31,67h1v1h-1z M32,67h1v1h-1z M33,67h1v1h-1z M37,67h1v1h-1z M38,67h1v1h-1z M39,67h1v1h-1z M41,67h1v1h-1z M44,67h1v1h-1z M46,67h1v1h-1z M49,67h1v1h-1z M51,67h1v1h-1z M52,67h1v1h-1z M54,67h1v1h-1z M56,67h1v1h-1z M58,67h1v1h-1z M61,67h1v1h-1z M66,67h1v1h-1z M68,67h1v1h-1z M69,67h1v1h-1z M70,67h1v1h-1z M74,67h1v1h-1z M75,67h1v1h-1z M76,67h1v1h-1z M81,67h1v1h-1z M82,67h1v1h-1z M83,67h1v1h-1z M85,67h1v1h-1z M89,67h1v1h-1z M90,67h1v1h-1z M92,67h1v1h-1z M95,67h1v1h-1z M97,67h1v1h-1z M98,67h1v1h-1z M100,67h1v1h-1z M103,67h1v1h-1z M107,67h1v1h-1z M4,68h1v1h-1z M6,68h1v1h-1z M7,68h1v1h-1z M8,68h1v1h-1z M9,68h1v1h-1z M10,68h1v1h-1z M15,68h1v1h-1z M16,68h1v1h-1z M19,68h1v1h-1z M20,68h1v1h-1z M22,68h1v1h-1z M24,68h1v1h-1z M27,68h1v1h-1z M28,68h1v1h-1z M30,68h1v1h-1z M31,68h1v1h-1z M32,68h1v1h-1z M35,68h1v1h-1z M38,68h1v1h-1z M43,68h1v1h-1z M44,68h1v1h-1z M46,68h1v1h-1z M47,68h1v1h-1z M48,68h1v1h-1z M49,68h1v1h-1z M52,68h1v1h-1z M54,68h1v1h-1z M56,68h1v1h-1z M58,68h1v1h-1z M59,68h1v1h-1z M60,68h1v1h-1z M65,68h1v1h-1z M66,68h1v1h-1z M68,68h1v1h-1z M70,68h1v1h-1z M72,68h1v1h-1z M75,68h1v1h-1z M76,68h1v1h-1z M78,68h1v1h-1z M79,68h1v1h-1z M80,68h1v1h-1z M82,68h1v1h-1z M83,68h1v1h-1z M84,68h1v1h-1z M87,68h1v1h-1z M89,68h1v1h-1z M91,68h1v1h-1z M93,68h1v1h-1z M94,68h1v1h-1z M95,68h1v1h-1z M96,68h1v1h-1z M97,68h1v1h-1z M98,68h1v1h-1z M99,68h1v1h-1z M100,68h1v1h-1z M103,68h1v1h-1z M105,68h1v1h-1z M107,68h1v1h-1z M108,68h1v1h-1z M4,69h1v1h-1z M7,69h1v1h-1z M8,69h1v1h-1z M9,69h1v1h-1z M11,69h1v1h-1z M12,69h1v1h-1z M13,69h1v1h-1z M14,69h1v1h-1z M18,69h1v1h-1z M22,69h1v1h-1z M25,69h1v1h-1z M27,69h1v1h-1z M34,69h1v1h-1z M36,69h1v1h-1z M37,69h1v1h-1z M39,69h1v1h-1z M40,69h1v1h-1z M41,69h1v1h-1z M42,69h1v1h-1z M43,69h1v1h-1z M45,69h1v1h-1z M47,69h1v1h-1z M48,69h1v1h-1z M50,69h1v1h-1z M53,69h1v1h-1z M55,69h1v1h-1z M60,69h1v1h-1z M62,69h1v1h-1z M63,69h1v1h-1z M64,69h1v1h-1z M66,69h1v1h-1z M67,69h1v1h-1z M70,69h1v1h-1z M71,69h1v1h-1z M72,69h1v1h-1z M73,69h1v1h-1z M75,69h1v1h-1z M78,69h1v1h-1z M79,69h1v1h-1z M81,69h1v1h-1z M84,69h1v1h-1z M85,69h1v1h-1z M87,69h1v1h-1z M94,69h1v1h-1z M99,69h1v1h-1z M100,69h1v1h-1z M102,69h1v1h-1z M105,69h1v1h-1z M106,69h1v1h-1z M107,69h1v1h-1z M4,70h1v1h-1z M5,70h1v1h-1z M8,70h1v1h-1z M9,70h1v1h-1z M10,70h1v1h-1z M11,70h1v1h-1z M14,70h1v1h-1z M16,70h1v1h-1z M19,70h1v1h-1z M21,70h1v1h-1z M23,70h1v1h-1z M24,70h1v1h-1z M25,70h1v1h-1z M26,70h1v1h-1z M27,70h1v1h-1z M35,70h1v1h-1z M36,70h1v1h-1z M38,70h1v1h-1z M40,70h1v1h-1z M41,70h1v1h-1z M43,70h1v1h-1z M44,70h1v1h-1z M47,70h1v1h-1z M48,70h1v1h-1z M50,70h1v1h-1z M56,70h1v1h-1z M60,70h1v1h-1z M61,70h1v1h-1z M62,70h1v1h-1z M63,70h1v1h-1z M64,70h1v1h-1z M65,70h1v1h-1z M71,70h1v1h-1z M72,70h1v1h-1z M74,70h1v1h-1z M75,70h1v1h-1z M77,70h1v1h-1z M79,70h1v1h-1z M80,70h1v1h-1z M81,70h1v1h-1z M83,70h1v1h-1z M84,70h1v1h-1z M86,70h1v1h-1z M89,70h1v1h-1z M96,70h1v1h-1z M98,70h1v1h-1z M99,70h1v1h-1z M102,70h1v1h-1z M103,70h1v1h-1z M105,70h1v1h-1z M106,70h1v1h-1z M107,70h1v1h-1z M108,70h1v1h-1z M4,71h1v1h-1z M6,71h1v1h-1z M7,71h1v1h-1z M11,71h1v1h-1z M12,71h1v1h-1z M13,71h1v1h-1z M14,71h1v1h-1z M16,71h1v1h-1z M17,71h1v1h-1z M18,71h1v1h-1z M20,71h1v1h-1z M21,71h1v1h-1z M23,71h1v1h-1z M24,71h1v1h-1z M29,71h1v1h-1z M31,71h1v1h-1z M33,71h1v1h-1z M39,71h1v1h-1z M44,71h1v1h-1z M45,71h1v1h-1z M46,71h1v1h-1z M47,71h1v1h-1z M49,71h1v1h-1z M50,71h1v1h-1z M51,71h1v1h-1z M52,71h1v1h-1z M54,71h1v1h-1z M55,71h1v1h-1z M56,71h1v1h-1z M59,71h1v1h-1z M65,71h1v1h-1z M68,71h1v1h-1z M70,71h1v1h-1z M71,71h1v1h-1z M73,71h1v1h-1z M74,71h1v1h-1z M75,71h1v1h-1z M77,71h1v1h-1z M78,71h1v1h-1z M79,71h1v1h-1z M82,71h1v1h-1z M83,71h1v1h-1z M91,71h1v1h-1z M92,71h1v1h-1z M95,71h1v1h-1z M98,71h1v1h-1z M99,71h1v1h-1z M100,71h1v1h-1z M101,71h1v1h-1z M102,71h1v1h-1z M103,71h1v1h-1z M104,71h1v1h-1z M107,71h1v1h-1z M108,71h1v1h-1z M4,72h1v1h-1z M5,72h1v1h-1z M7,72h1v1h-1z M8,72h1v1h-1z M10,72h1v1h-1z M13,72h1v1h-1z M15,72h1v1h-1z M16,72h1v1h-1z M17,72h1v1h-1z M18,72h1v1h-1z M20,72h1v1h-1z M21,72h1v1h-1z M22,72h1v1h-1z M24,72h1v1h-1z M25,72h1v1h-1z M27,72h1v1h-1z M28,72h1v1h-1z M30,72h1v1h-1z M31,72h1v1h-1z M33,72h1v1h-1z M34,72h1v1h-1z M36,72h1v1h-1z M37,72h1v1h-1z M38,72h1v1h-1z M41,72h1v1h-1z M49,72h1v1h-1z M51,72h1v1h-1z M52,72h1v1h-1z M54,72h1v1h-1z M55,72h1v1h-1z M56,72h1v1h-1z M57,72h1v1h-1z M58,72h1v1h-1z M59,72h1v1h-1z M60,72h1v1h-1z M64,72h1v1h-1z M66,72h1v1h-1z M67,72h1v1h-1z M68,72h1v1h-1z M73,72h1v1h-1z M76,72h1v1h-1z M78,72h1v1h-1z M79,72h1v1h-1z M81,72h1v1h-1z M84,72h1v1h-1z M85,72h1v1h-1z M89,72h1v1h-1z M90,72h1v1h-1z M93,72h1v1h-1z M94,72h1v1h-1z M97,72h1v1h-1z M101,72h1v1h-1z M103,72h1v1h-1z M106,72h1v1h-1z M107,72h1v1h-1z M108,72h1v1h-1z M7,73h1v1h-1z M8,73h1v1h-1z M13,73h1v1h-1z M16,73h1v1h-1z M18,73h1v1h-1z M23,73h1v1h-1z M27,73h1v1h-1z M29,73h1v1h-1z M31,73h1v1h-1z M35,73h1v1h-1z M36,73h1v1h-1z M39,73h1v1h-1z M40,73h1v1h-1z M45,73h1v1h-1z M47,73h1v1h-1z M48,73h1v1h-1z M58,73h1v1h-1z M60,73h1v1h-1z M61,73h1v1h-1z M62,73h1v1h-1z M63,73h1v1h-1z M64,73h1v1h-1z M68,73h1v1h-1z M69,73h1v1h-1z M70,73h1v1h-1z M74,73h1v1h-1z M75,73h1v1h-1z M77,73h1v1h-1z M79,73h1v1h-1z M81,73h1v1h-1z M83,73h1v1h-1z M87,73h1v1h-1z M88,73h1v1h-1z M89,73h1v1h-1z M90,73h1v1h-1z M92,73h1v1h-1z M95,73h1v1h-1z M96,73h1v1h-1z M97,73h1v1h-1z M98,73h1v1h-1z M99,73h1v1h-1z M100,73h1v1h-1z M102,73h1v1h-1z M105,73h1v1h-1z M106,73h1v1h-1z M107,73h1v1h-1z M108,73h1v1h-1z M6,74h1v1h-1z M7,74h1v1h-1z M8,74h1v1h-1z M10,74h1v1h-1z M13,74h1v1h-1z M16,74h1v1h-1z M17,74h1v1h-1z M18,74h1v1h-1z M20,74h1v1h-1z M21,74h1v1h-1z M25,74h1v1h-1z M26,74h1v1h-1z M32,74h1v1h-1z M35,74h1v1h-1z M36,74h1v1h-1z M38,74h1v1h-1z M41,74h1v1h-1z M48,74h1v1h-1z M50,74h1v1h-1z M51,74h1v1h-1z M53,74h1v1h-1z M54,74h1v1h-1z M56,74h1v1h-1z M57,74h1v1h-1z M59,74h1v1h-1z M60,74h1v1h-1z M61,74h1v1h-1z M62,74h1v1h-1z M63,74h1v1h-1z M64,74h1v1h-1z M65,74h1v1h-1z M67,74h1v1h-1z M69,74h1v1h-1z M74,74h1v1h-1z M78,74h1v1h-1z M83,74h1v1h-1z M86,74h1v1h-1z M88,74h1v1h-1z M89,74h1v1h-1z M91,74h1v1h-1z M92,74h1v1h-1z M93,74h1v1h-1z M98,74h1v1h-1z M102,74h1v1h-1z M103,74h1v1h-1z M104,74h1v1h-1z M105,74h1v1h-1z M106,74h1v1h-1z M107,74h1v1h-1z M5,75h1v1h-1z M6,75h1v1h-1z M7,75h1v1h-1z M13,75h1v1h-1z M15,75h1v1h-1z M19,75h1v1h-1z M20,75h1v1h-1z M21,75h1v1h-1z M22,75h1v1h-1z M24,75h1v1h-1z M26,75h1v1h-1z M28,75h1v1h-1z M29,75h1v1h-1z M31,75h1v1h-1z M34,75h1v1h-1z M35,75h1v1h-1z M37,75h1v1h-1z M44,75h1v1h-1z M45,75h1v1h-1z M49,75h1v1h-1z M50,75h1v1h-1z M52,75h1v1h-1z M54,75h1v1h-1z M56,75h1v1h-1z M57,75h1v1h-1z M58,75h1v1h-1z M66,75h1v1h-1z M68,75h1v1h-1z M70,75h1v1h-1z M71,75h1v1h-1z M74,75h1v1h-1z M76,75h1v1h-1z M79,75h1v1h-1z M80,75h1v1h-1z M82,75h1v1h-1z M83,75h1v1h-1z M85,75h1v1h-1z M86,75h1v1h-1z M87,75h1v1h-1z M92,75h1v1h-1z M93,75h1v1h-1z M94,75h1v1h-1z M95,75h1v1h-1z M97,75h1v1h-1z M99,75h1v1h-1z M101,75h1v1h-1z M102,75h1v1h-1z M104,75h1v1h-1z M6,76h1v1h-1z M7,76h1v1h-1z M8,76h1v1h-1z M9,76h1v1h-1z M10,76h1v1h-1z M11,76h1v1h-1z M12,76h1v1h-1z M13,76h1v1h-1z M14,76h1v1h-1z M15,76h1v1h-1z M17,76h1v1h-1z M18,76h1v1h-1z M19,76h1v1h-1z M20,76h1v1h-1z M23,76h1v1h-1z M26,76h1v1h-1z M27,76h1v1h-1z M28,76h1v1h-1z M29,76h1v1h-1z M30,76h1v1h-1z M31,76h1v1h-1z M32,76h1v1h-1z M34,76h1v1h-1z M37,76h1v1h-1z M42,76h1v1h-1z M43,76h1v1h-1z M46,76h1v1h-1z M49,76h1v1h-1z M52,76h1v1h-1z M53,76h1v1h-1z M54,76h1v1h-1z M55,76h1v1h-1z M56,76h1v1h-1z M59,76h1v1h-1z M60,76h1v1h-1z M61,76h1v1h-1z M62,76h1v1h-1z M65,76h1v1h-1z M66,76h1v1h-1z M70,76h1v1h-1z M72,76h1v1h-1z M74,76h1v1h-1z M75,76h1v1h-1z M76,76h1v1h-1z M77,76h1v1h-1z M78,76h1v1h-1z M79,76h1v1h-1z M80,76h1v1h-1z M82,76h1v1h-1z M83,76h1v1h-1z M84,76h1v1h-1z M87,76h1v1h-1z M88,76h1v1h-1z M89,76h1v1h-1z M90,76h1v1h-1z M91,76h1v1h-1z M92,76h1v1h-1z M95,76h1v1h-1z M96,76h1v1h-1z M98,76h1v1h-1z M99,76h1v1h-1z M100,76h1v1h-1z M101,76h1v1h-1z M102,76h1v1h-1z M103,76h1v1h-1z M104,76h1v1h-1z M106,76h1v1h-1z M107,76h1v1h-1z M4,77h1v1h-1z M8,77h1v1h-1z M12,77h1v1h-1z M15,77h1v1h-1z M16,77h1v1h-1z M17,77h1v1h-1z M19,77h1v1h-1z M20,77h1v1h-1z M27,77h1v1h-1z M28,77h1v1h-1z M32,77h1v1h-1z M33,77h1v1h-1z M34,77h1v1h-1z M36,77h1v1h-1z M37,77h1v1h-1z M38,77h1v1h-1z M40,77h1v1h-1z M41,77h1v1h-1z M43,77h1v1h-1z M44,77h1v1h-1z M45,77h1v1h-1z M47,77h1v1h-1z M48,77h1v1h-1z M50,77h1v1h-1z M52,77h1v1h-1z M56,77h1v1h-1z M58,77h1v1h-1z M59,77h1v1h-1z M61,77h1v1h-1z M62,77h1v1h-1z M63,77h1v1h-1z M64,77h1v1h-1z M65,77h1v1h-1z M72,77h1v1h-1z M73,77h1v1h-1z M76,77h1v1h-1z M80,77h1v1h-1z M83,77h1v1h-1z M84,77h1v1h-1z M85,77h1v1h-1z M87,77h1v1h-1z M88,77h1v1h-1z M90,77h1v1h-1z M91,77h1v1h-1z M92,77h1v1h-1z M93,77h1v1h-1z M94,77h1v1h-1z M96,77h1v1h-1z M99,77h1v1h-1z M100,77h1v1h-1z M104,77h1v1h-1z M105,77h1v1h-1z M4,78h1v1h-1z M6,78h1v1h-1z M8,78h1v1h-1z M10,78h1v1h-1z M12,78h1v1h-1z M13,78h1v1h-1z M14,78h1v1h-1z M18,78h1v1h-1z M19,78h1v1h-1z M20,78h1v1h-1z M21,78h1v1h-1z M25,78h1v1h-1z M26,78h1v1h-1z M27,78h1v1h-1z M28,78h1v1h-1z M30,78h1v1h-1z M32,78h1v1h-1z M33,78h1v1h-1z M35,78h1v1h-1z M38,78h1v1h-1z M41,78h1v1h-1z M44,78h1v1h-1z M50,78h1v1h-1z M51,78h1v1h-1z M52,78h1v1h-1z M54,78h1v1h-1z M56,78h1v1h-1z M60,78h1v1h-1z M62,78h1v1h-1z M63,78h1v1h-1z M64,78h1v1h-1z M65,78h1v1h-1z M67,78h1v1h-1z M72,78h1v1h-1z M74,78h1v1h-1z M76,78h1v1h-1z M78,78h1v1h-1z M80,78h1v1h-1z M83,78h1v1h-1z M86,78h1v1h-1z M87,78h1v1h-1z M89,78h1v1h-1z M96,78h1v1h-1z M98,78h1v1h-1z M100,78h1v1h-1z M102,78h1v1h-1z M104,78h1v1h-1z M107,78h1v1h-1z M4,79h1v1h-1z M5,79h1v1h-1z M6,79h1v1h-1z M8,79h1v1h-1z M12,79h1v1h-1z M14,79h1v1h-1z M16,79h1v1h-1z M17,79h1v1h-1z M19,79h1v1h-1z M23,79h1v1h-1z M25,79h1v1h-1z M26,79h1v1h-1z M28,79h1v1h-1z M32,79h1v1h-1z M34,79h1v1h-1z M35,79h1v1h-1z M41,79h1v1h-1z M42,79h1v1h-1z M44,79h1v1h-1z M45,79h1v1h-1z M46,79h1v1h-1z M47,79h1v1h-1z M49,79h1v1h-1z M51,79h1v1h-1z M52,79h1v1h-1z M56,79h1v1h-1z M57,79h1v1h-1z M59,79h1v1h-1z M62,79h1v1h-1z M63,79h1v1h-1z M65,79h1v1h-1z M66,79h1v1h-1z M68,79h1v1h-1z M71,79h1v1h-1z M73,79h1v1h-1z M76,79h1v1h-1z M80,79h1v1h-1z M82,79h1v1h-1z M83,79h1v1h-1z M85,79h1v1h-1z M86,79h1v1h-1z M90,79h1v1h-1z M91,79h1v1h-1z M92,79h1v1h-1z M94,79h1v1h-1z M95,79h1v1h-1z M97,79h1v1h-1z M99,79h1v1h-1z M100,79h1v1h-1z M104,79h1v1h-1z M107,79h1v1h-1z M4,80h1v1h-1z M5,80h1v1h-1z M6,80h1v1h-1z M7,80h1v1h-1z M8,80h1v1h-1z M9,80h1v1h-1z M10,80h1v1h-1z M11,80h1v1h-1z M12,80h1v1h-1z M13,80h1v1h-1z M14,80h1v1h-1z M15,80h1v1h-1z M17,80h1v1h-1z M21,80h1v1h-1z M23,80h1v1h-1z M25,80h1v1h-1z M26,80h1v1h-1z M27,80h1v1h-1z M28,80h1v1h-1z M29,80h1v1h-1z M30,80h1v1h-1z M31,80h1v1h-1z M32,80h1v1h-1z M34,80h1v1h-1z M35,80h1v1h-1z M39,80h1v1h-1z M43,80h1v1h-1z M50,80h1v1h-1z M51,80h1v1h-1z M52,80h1v1h-1z M53,80h1v1h-1z M54,80h1v1h-1z M55,80h1v1h-1z M56,80h1v1h-1z M60,80h1v1h-1z M63,80h1v1h-1z M64,80h1v1h-1z M65,80h1v1h-1z M67,80h1v1h-1z M68,80h1v1h-1z M69,80h1v1h-1z M70,80h1v1h-1z M71,80h1v1h-1z M76,80h1v1h-1z M77,80h1v1h-1z M78,80h1v1h-1z M79,80h1v1h-1z M80,80h1v1h-1z M81,80h1v1h-1z M82,80h1v1h-1z M83,80h1v1h-1z M87,80h1v1h-1z M89,80h1v1h-1z M90,80h1v1h-1z M93,80h1v1h-1z M94,80h1v1h-1z M100,80h1v1h-1z M101,80h1v1h-1z M102,80h1v1h-1z M103,80h1v1h-1z M104,80h1v1h-1z M106,80h1v1h-1z M107,80h1v1h-1z M108,80h1v1h-1z M4,81h1v1h-1z M6,81h1v1h-1z M7,81h1v1h-1z M11,81h1v1h-1z M13,81h1v1h-1z M16,81h1v1h-1z M17,81h1v1h-1z M20,81h1v1h-1z M23,81h1v1h-1z M25,81h1v1h-1z M26,81h1v1h-1z M29,81h1v1h-1z M30,81h1v1h-1z M31,81h1v1h-1z M32,81h1v1h-1z M33,81h1v1h-1z M35,81h1v1h-1z M37,81h1v1h-1z M39,81h1v1h-1z M46,81h1v1h-1z M48,81h1v1h-1z M49,81h1v1h-1z M50,81h1v1h-1z M54,81h1v1h-1z M58,81h1v1h-1z M59,81h1v1h-1z M60,81h1v1h-1z M62,81h1v1h-1z M63,81h1v1h-1z M64,81h1v1h-1z M70,81h1v1h-1z M73,81h1v1h-1z M74,81h1v1h-1z M78,81h1v1h-1z M79,81h1v1h-1z M82,81h1v1h-1z M83,81h1v1h-1z M84,81h1v1h-1z M85,81h1v1h-1z M89,81h1v1h-1z M91,81h1v1h-1z M93,81h1v1h-1z M94,81h1v1h-1z M95,81h1v1h-1z M96,81h1v1h-1z M97,81h1v1h-1z M98,81h1v1h-1z M99,81h1v1h-1z M101,81h1v1h-1z M103,81h1v1h-1z M106,81h1v1h-1z M4,82h1v1h-1z M5,82h1v1h-1z M6,82h1v1h-1z M7,82h1v1h-1z M10,82h1v1h-1z M12,82h1v1h-1z M15,82h1v1h-1z M16,82h1v1h-1z M19,82h1v1h-1z M21,82h1v1h-1z M22,82h1v1h-1z M23,82h1v1h-1z M26,82h1v1h-1z M29,82h1v1h-1z M30,82h1v1h-1z M32,82h1v1h-1z M38,82h1v1h-1z M39,82h1v1h-1z M40,82h1v1h-1z M47,82h1v1h-1z M48,82h1v1h-1z M50,82h1v1h-1z M52,82h1v1h-1z M53,82h1v1h-1z M54,82h1v1h-1z M56,82h1v1h-1z M59,82h1v1h-1z M62,82h1v1h-1z M63,82h1v1h-1z M65,82h1v1h-1z M74,82h1v1h-1z M78,82h1v1h-1z M80,82h1v1h-1z M84,82h1v1h-1z M86,82h1v1h-1z M88,82h1v1h-1z M89,82h1v1h-1z M91,82h1v1h-1z M92,82h1v1h-1z M95,82h1v1h-1z M96,82h1v1h-1z M98,82h1v1h-1z M99,82h1v1h-1z M100,82h1v1h-1z M101,82h1v1h-1z M4,83h1v1h-1z M6,83h1v1h-1z M8,83h1v1h-1z M11,83h1v1h-1z M12,83h1v1h-1z M13,83h1v1h-1z M14,83h1v1h-1z M15,83h1v1h-1z M20,83h1v1h-1z M21,83h1v1h-1z M22,83h1v1h-1z M23,83h1v1h-1z M24,83h1v1h-1z M25,83h1v1h-1z M26,83h1v1h-1z M27,83h1v1h-1z M28,83h1v1h-1z M32,83h1v1h-1z M33,83h1v1h-1z M34,83h1v1h-1z M35,83h1v1h-1z M38,83h1v1h-1z M39,83h1v1h-1z M41,83h1v1h-1z M42,83h1v1h-1z M43,83h1v1h-1z M44,83h1v1h-1z M49,83h1v1h-1z M52,83h1v1h-1z M57,83h1v1h-1z M58,83h1v1h-1z M59,83h1v1h-1z M62,83h1v1h-1z M66,83h1v1h-1z M67,83h1v1h-1z M68,83h1v1h-1z M70,83h1v1h-1z M71,83h1v1h-1z M77,83h1v1h-1z M78,83h1v1h-1z M79,83h1v1h-1z M81,83h1v1h-1z M83,83h1v1h-1z M85,83h1v1h-1z M89,83h1v1h-1z M90,83h1v1h-1z M92,83h1v1h-1z M97,83h1v1h-1z M98,83h1v1h-1z M102,83h1v1h-1z M103,83h1v1h-1z M104,83h1v1h-1z M105,83h1v1h-1z M107,83h1v1h-1z M5,84h1v1h-1z M6,84h1v1h-1z M7,84h1v1h-1z M8,84h1v1h-1z M9,84h1v1h-1z M10,84h1v1h-1z M12,84h1v1h-1z M14,84h1v1h-1z M15,84h1v1h-1z M17,84h1v1h-1z M19,84h1v1h-1z M21,84h1v1h-1z M22,84h1v1h-1z M24,84h1v1h-1z M25,84h1v1h-1z M26,84h1v1h-1z M27,84h1v1h-1z M28,84h1v1h-1z M30,84h1v1h-1z M31,84h1v1h-1z M34,84h1v1h-1z M35,84h1v1h-1z M37,84h1v1h-1z M39,84h1v1h-1z M40,84h1v1h-1z M41,84h1v1h-1z M42,84h1v1h-1z M44,84h1v1h-1z M46,84h1v1h-1z M47,84h1v1h-1z M48,84h1v1h-1z M49,84h1v1h-1z M51,84h1v1h-1z M52,84h1v1h-1z M57,84h1v1h-1z M58,84h1v1h-1z M63,84h1v1h-1z M65,84h1v1h-1z M66,84h1v1h-1z M69,84h1v1h-1z M70,84h1v1h-1z M71,84h1v1h-1z M72,84h1v1h-1z M73,84h1v1h-1z M75,84h1v1h-1z M79,84h1v1h-1z M81,84h1v1h-1z M82,84h1v1h-1z M85,84h1v1h-1z M86,84h1v1h-1z M87,84h1v1h-1z M90,84h1v1h-1z M91,84h1v1h-1z M92,84h1v1h-1z M93,84h1v1h-1z M94,84h1v1h-1z M95,84h1v1h-1z M100,84h1v1h-1z M102,84h1v1h-1z M103,84h1v1h-1z M104,84h1v1h-1z M105,84h1v1h-1z M108,84h1v1h-1z M5,85h1v1h-1z M8,85h1v1h-1z M9,85h1v1h-1z M15,85h1v1h-1z M16,85h1v1h-1z M21,85h1v1h-1z M22,85h1v1h-1z M26,85h1v1h-1z M28,85h1v1h-1z M30,85h1v1h-1z M31,85h1v1h-1z M32,85h1v1h-1z M34,85h1v1h-1z M35,85h1v1h-1z M37,85h1v1h-1z M41,85h1v1h-1z M46,85h1v1h-1z M47,85h1v1h-1z M50,85h1v1h-1z M54,85h1v1h-1z M56,85h1v1h-1z M57,85h1v1h-1z M58,85h1v1h-1z M59,85h1v1h-1z M60,85h1v1h-1z M61,85h1v1h-1z M62,85h1v1h-1z M66,85h1v1h-1z M68,85h1v1h-1z M70,85h1v1h-1z M71,85h1v1h-1z M74,85h1v1h-1z M78,85h1v1h-1z M79,85h1v1h-1z M80,85h1v1h-1z M83,85h1v1h-1z M84,85h1v1h-1z M86,85h1v1h-1z M87,85h1v1h-1z M89,85h1v1h-1z M90,85h1v1h-1z M91,85h1v1h-1z M93,85h1v1h-1z M94,85h1v1h-1z M95,85h1v1h-1z M98,85h1v1h-1z M99,85h1v1h-1z M100,85h1v1h-1z M101,85h1v1h-1z M105,85h1v1h-1z M106,85h1v1h-1z M107,85h1v1h-1z M6,86h1v1h-1z M7,86h1v1h-1z M9,86h1v1h-1z M10,86h1v1h-1z M12,86h1v1h-1z M15,86h1v1h-1z M17,86h1v1h-1z M19,86h1v1h-1z M21,86h1v1h-1z M22,86h1v1h-1z M24,86h1v1h-1z M25,86h1v1h-1z M26,86h1v1h-1z M28,86h1v1h-1z M29,86h1v1h-1z M30,86h1v1h-1z M32,86h1v1h-1z M35,86h1v1h-1z M36,86h1v1h-1z M37,86h1v1h-1z M38,86h1v1h-1z M39,86h1v1h-1z M40,86h1v1h-1z M41,86h1v1h-1z M43,86h1v1h-1z M44,86h1v1h-1z M48,86h1v1h-1z M50,86h1v1h-1z M51,86h1v1h-1z M53,86h1v1h-1z M56,86h1v1h-1z M62,86h1v1h-1z M63,86h1v1h-1z M65,86h1v1h-1z M71,86h1v1h-1z M74,86h1v1h-1z M76,86h1v1h-1z M77,86h1v1h-1z M80,86h1v1h-1z M83,86h1v1h-1z M85,86h1v1h-1z M86,86h1v1h-1z M88,86h1v1h-1z M89,86h1v1h-1z M97,86h1v1h-1z M98,86h1v1h-1z M99,86h1v1h-1z M100,86h1v1h-1z M103,86h1v1h-1z M105,86h1v1h-1z M107,86h1v1h-1z M11,87h1v1h-1z M12,87h1v1h-1z M13,87h1v1h-1z M15,87h1v1h-1z M16,87h1v1h-1z M18,87h1v1h-1z M19,87h1v1h-1z M20,87h1v1h-1z M25,87h1v1h-1z M27,87h1v1h-1z M31,87h1v1h-1z M32,87h1v1h-1z M33,87h1v1h-1z M41,87h1v1h-1z M44,87h1v1h-1z M50,87h1v1h-1z M53,87h1v1h-1z M58,87h1v1h-1z M59,87h1v1h-1z M62,87h1v1h-1z M67,87h1v1h-1z M68,87h1v1h-1z M71,87h1v1h-1z M73,87h1v1h-1z M75,87h1v1h-1z M79,87h1v1h-1z M83,87h1v1h-1z M85,87h1v1h-1z M87,87h1v1h-1z M90,87h1v1h-1z M91,87h1v1h-1z M92,87h1v1h-1z M94,87h1v1h-1z M95,87h1v1h-1z M101,87h1v1h-1z M102,87h1v1h-1z M108,87h1v1h-1z M6,88h1v1h-1z M7,88h1v1h-1z M8,88h1v1h-1z M10,88h1v1h-1z M11,88h1v1h-1z M13,88h1v1h-1z M16,88h1v1h-1z M26,88h1v1h-1z M27,88h1v1h-1z M29,88h1v1h-1z M32,88h1v1h-1z M36,88h1v1h-1z M37,88h1v1h-1z M38,88h1v1h-1z M39,88h1v1h-1z M40,88h1v1h-1z M41,88h1v1h-1z M42,88h1v1h-1z M43,88h1v1h-1z M44,88h1v1h-1z M45,88h1v1h-1z M47,88h1v1h-1z M48,88h1v1h-1z M49,88h1v1h-1z M55,88h1v1h-1z M56,88h1v1h-1z M59,88h1v1h-1z M61,88h1v1h-1z M63,88h1v1h-1z M64,88h1v1h-1z M65,88h1v1h-1z M66,88h1v1h-1z M68,88h1v1h-1z M69,88h1v1h-1z M70,88h1v1h-1z M71,88h1v1h-1z M72,88h1v1h-1z M81,88h1v1h-1z M82,88h1v1h-1z M84,88h1v1h-1z M89,88h1v1h-1z M90,88h1v1h-1z M91,88h1v1h-1z M92,88h1v1h-1z M93,88h1v1h-1z M97,88h1v1h-1z M101,88h1v1h-1z M104,88h1v1h-1z M108,88h1v1h-1z M7,89h1v1h-1z M8,89h1v1h-1z M12,89h1v1h-1z M14,89h1v1h-1z M16,89h1v1h-1z M17,89h1v1h-1z M18,89h1v1h-1z M19,89h1v1h-1z M21,89h1v1h-1z M24,89h1v1h-1z M25,89h1v1h-1z M26,89h1v1h-1z M30,89h1v1h-1z M32,89h1v1h-1z M33,89h1v1h-1z M34,89h1v1h-1z M35,89h1v1h-1z M41,89h1v1h-1z M42,89h1v1h-1z M45,89h1v1h-1z M47,89h1v1h-1z M52,89h1v1h-1z M54,89h1v1h-1z M56,89h1v1h-1z M57,89h1v1h-1z M58,89h1v1h-1z M59,89h1v1h-1z M64,89h1v1h-1z M68,89h1v1h-1z M73,89h1v1h-1z M74,89h1v1h-1z M76,89h1v1h-1z M78,89h1v1h-1z M80,89h1v1h-1z M83,89h1v1h-1z M86,89h1v1h-1z M87,89h1v1h-1z M88,89h1v1h-1z M89,89h1v1h-1z M90,89h1v1h-1z M92,89h1v1h-1z M99,89h1v1h-1z M100,89h1v1h-1z M102,89h1v1h-1z M103,89h1v1h-1z M107,89h1v1h-1z M108,89h1v1h-1z M4,90h1v1h-1z M6,90h1v1h-1z M7,90h1v1h-1z M9,90h1v1h-1z M10,90h1v1h-1z M11,90h1v1h-1z M13,90h1v1h-1z M14,90h1v1h-1z M16,90h1v1h-1z M17,90h1v1h-1z M20,90h1v1h-1z M21,90h1v1h-1z M23,90h1v1h-1z M26,90h1v1h-1z M30,90h1v1h-1z M32,90h1v1h-1z M38,90h1v1h-1z M39,90h1v1h-1z M40,90h1v1h-1z M41,90h1v1h-1z M45,90h1v1h-1z M47,90h1v1h-1z M48,90h1v1h-1z M50,90h1v1h-1z M51,90h1v1h-1z M53,90h1v1h-1z M56,90h1v1h-1z M59,90h1v1h-1z M61,90h1v1h-1z M62,90h1v1h-1z M64,90h1v1h-1z M65,90h1v1h-1z M67,90h1v1h-1z M71,90h1v1h-1z M74,90h1v1h-1z M75,90h1v1h-1z M76,90h1v1h-1z M77,90h1v1h-1z M78,90h1v1h-1z M80,90h1v1h-1z M83,90h1v1h-1z M84,90h1v1h-1z M86,90h1v1h-1z M87,90h1v1h-1z M88,90h1v1h-1z M89,90h1v1h-1z M92,90h1v1h-1z M95,90h1v1h-1z M98,90h1v1h-1z M99,90h1v1h-1z M100,90h1v1h-1z M101,90h1v1h-1z M103,90h1v1h-1z M106,90h1v1h-1z M107,90h1v1h-1z M5,91h1v1h-1z M6,91h1v1h-1z M12,91h1v1h-1z M13,91h1v1h-1z M15,91h1v1h-1z M16,91h1v1h-1z M17,91h1v1h-1z M18,91h1v1h-1z M19,91h1v1h-1z M21,91h1v1h-1z M22,91h1v1h-1z M23,91h1v1h-1z M24,91h1v1h-1z M25,91h1v1h-1z M26,91h1v1h-1z M27,91h1v1h-1z M28,91h1v1h-1z M29,91h1v1h-1z M30,91h1v1h-1z M31,91h1v1h-1z M33,91h1v1h-1z M34,91h1v1h-1z M35,91h1v1h-1z M38,91h1v1h-1z M39,91h1v1h-1z M41,91h1v1h-1z M42,91h1v1h-1z M44,91h1v1h-1z M46,91h1v1h-1z M47,91h1v1h-1z M50,91h1v1h-1z M51,91h1v1h-1z M52,91h1v1h-1z M54,91h1v1h-1z M55,91h1v1h-1z M56,91h1v1h-1z M57,91h1v1h-1z M59,91h1v1h-1z M61,91h1v1h-1z M63,91h1v1h-1z M65,91h1v1h-1z M68,91h1v1h-1z M69,91h1v1h-1z M70,91h1v1h-1z M71,91h1v1h-1z M73,91h1v1h-1z M74,91h1v1h-1z M75,91h1v1h-1z M76,91h1v1h-1z M77,91h1v1h-1z M78,91h1v1h-1z M80,91h1v1h-1z M81,91h1v1h-1z M82,91h1v1h-1z M83,91h1v1h-1z M85,91h1v1h-1z M86,91h1v1h-1z M89,91h1v1h-1z M90,91h1v1h-1z M92,91h1v1h-1z M93,91h1v1h-1z M94,91h1v1h-1z M95,91h1v1h-1z M103,91h1v1h-1z M108,91h1v1h-1z M4,92h1v1h-1z M5,92h1v1h-1z M6,92h1v1h-1z M8,92h1v1h-1z M9,92h1v1h-1z M10,92h1v1h-1z M11,92h1v1h-1z M13,92h1v1h-1z M14,92h1v1h-1z M18,92h1v1h-1z M21,92h1v1h-1z M22,92h1v1h-1z M23,92h1v1h-1z M24,92h1v1h-1z M31,92h1v1h-1z M32,92h1v1h-1z M40,92h1v1h-1z M41,92h1v1h-1z M42,92h1v1h-1z M43,92h1v1h-1z M45,92h1v1h-1z M46,92h1v1h-1z M51,92h1v1h-1z M54,92h1v1h-1z M55,92h1v1h-1z M58,92h1v1h-1z M62,92h1v1h-1z M64,92h1v1h-1z M65,92h1v1h-1z M68,92h1v1h-1z M69,92h1v1h-1z M71,92h1v1h-1z M72,92h1v1h-1z M74,92h1v1h-1z M75,92h1v1h-1z M81,92h1v1h-1z M82,92h1v1h-1z M87,92h1v1h-1z M88,92h1v1h-1z M90,92h1v1h-1z M91,92h1v1h-1z M92,92h1v1h-1z M94,92h1v1h-1z M98,92h1v1h-1z M100,92h1v1h-1z M101,92h1v1h-1z M102,92h1v1h-1z M107,92h1v1h-1z M108,92h1v1h-1z M5,93h1v1h-1z M6,93h1v1h-1z M8,93h1v1h-1z M11,93h1v1h-1z M12,93h1v1h-1z M13,93h1v1h-1z M16,93h1v1h-1z M19,93h1v1h-1z M20,93h1v1h-1z M22,93h1v1h-1z M23,93h1v1h-1z M26,93h1v1h-1z M30,93h1v1h-1z M34,93h1v1h-1z M35,93h1v1h-1z M36,93h1v1h-1z M38,93h1v1h-1z M39,93h1v1h-1z M40,93h1v1h-1z M46,93h1v1h-1z M47,93h1v1h-1z M48,93h1v1h-1z M49,93h1v1h-1z M52,93h1v1h-1z M54,93h1v1h-1z M55,93h1v1h-1z M56,93h1v1h-1z M57,93h1v1h-1z M59,93h1v1h-1z M61,93h1v1h-1z M62,93h1v1h-1z M64,93h1v1h-1z M65,93h1v1h-1z M68,93h1v1h-1z M69,93h1v1h-1z M71,93h1v1h-1z M73,93h1v1h-1z M76,93h1v1h-1z M78,93h1v1h-1z M79,93h1v1h-1z M80,93h1v1h-1z M81,93h1v1h-1z M83,93h1v1h-1z M86,93h1v1h-1z M88,93h1v1h-1z M89,93h1v1h-1z M90,93h1v1h-1z M91,93h1v1h-1z M92,93h1v1h-1z M93,93h1v1h-1z M95,93h1v1h-1z M96,93h1v1h-1z M97,93h1v1h-1z M98,93h1v1h-1z M103,93h1v1h-1z M105,93h1v1h-1z M106,93h1v1h-1z M107,93h1v1h-1z M108,93h1v1h-1z M5,94h1v1h-1z M6,94h1v1h-1z M7,94h1v1h-1z M8,94h1v1h-1z M9,94h1v1h-1z M10,94h1v1h-1z M12,94h1v1h-1z M14,94h1v1h-1z M15,94h1v1h-1z M16,94h1v1h-1z M17,94h1v1h-1z M18,94h1v1h-1z M20,94h1v1h-1z M21,94h1v1h-1z M23,94h1v1h-1z M25,94h1v1h-1z M27,94h1v1h-1z M29,94h1v1h-1z M32,94h1v1h-1z M33,94h1v1h-1z M36,94h1v1h-1z M37,94h1v1h-1z M38,94h1v1h-1z M39,94h1v1h-1z M47,94h1v1h-1z M50,94h1v1h-1z M51,94h1v1h-1z M55,94h1v1h-1z M56,94h1v1h-1z M59,94h1v1h-1z M60,94h1v1h-1z M62,94h1v1h-1z M64,94h1v1h-1z M65,94h1v1h-1z M67,94h1v1h-1z M68,94h1v1h-1z M72,94h1v1h-1z M74,94h1v1h-1z M76,94h1v1h-1z M80,94h1v1h-1z M81,94h1v1h-1z M83,94h1v1h-1z M84,94h1v1h-1z M86,94h1v1h-1z M89,94h1v1h-1z M91,94h1v1h-1z M96,94h1v1h-1z M98,94h1v1h-1z M99,94h1v1h-1z M100,94h1v1h-1z M101,94h1v1h-1z M103,94h1v1h-1z M107,94h1v1h-1z M4,95h1v1h-1z M6,95h1v1h-1z M7,95h1v1h-1z M8,95h1v1h-1z M9,95h1v1h-1z M11,95h1v1h-1z M14,95h1v1h-1z M16,95h1v1h-1z M17,95h1v1h-1z M19,95h1v1h-1z M20,95h1v1h-1z M21,95h1v1h-1z M25,95h1v1h-1z M26,95h1v1h-1z M27,95h1v1h-1z M29,95h1v1h-1z M34,95h1v1h-1z M35,95h1v1h-1z M41,95h1v1h-1z M42,95h1v1h-1z M44,95h1v1h-1z M46,95h1v1h-1z M47,95h1v1h-1z M49,95h1v1h-1z M51,95h1v1h-1z M53,95h1v1h-1z M57,95h1v1h-1z M58,95h1v1h-1z M61,95h1v1h-1z M63,95h1v1h-1z M66,95h1v1h-1z M68,95h1v1h-1z M70,95h1v1h-1z M71,95h1v1h-1z M73,95h1v1h-1z M75,95h1v1h-1z M78,95h1v1h-1z M79,95h1v1h-1z M82,95h1v1h-1z M83,95h1v1h-1z M89,95h1v1h-1z M90,95h1v1h-1z M92,95h1v1h-1z M93,95h1v1h-1z M94,95h1v1h-1z M95,95h1v1h-1z M97,95h1v1h-1z M98,95h1v1h-1z M99,95h1v1h-1z M100,95h1v1h-1z M103,95h1v1h-1z M104,95h1v1h-1z M108,95h1v1h-1z M4,96h1v1h-1z M5,96h1v1h-1z M6,96h1v1h-1z M7,96h1v1h-1z M10,96h1v1h-1z M12,96h1v1h-1z M15,96h1v1h-1z M17,96h1v1h-1z M18,96h1v1h-1z M19,96h1v1h-1z M21,96h1v1h-1z M23,96h1v1h-1z M25,96h1v1h-1z M26,96h1v1h-1z M27,96h1v1h-1z M28,96h1v1h-1z M33,96h1v1h-1z M34,96h1v1h-1z M35,96h1v1h-1z M37,96h1v1h-1z M40,96h1v1h-1z M43,96h1v1h-1z M45,96h1v1h-1z M47,96h1v1h-1z M48,96h1v1h-1z M50,96h1v1h-1z M55,96h1v1h-1z M59,96h1v1h-1z M60,96h1v1h-1z M66,96h1v1h-1z M67,96h1v1h-1z M68,96h1v1h-1z M69,96h1v1h-1z M70,96h1v1h-1z M72,96h1v1h-1z M73,96h1v1h-1z M77,96h1v1h-1z M78,96h1v1h-1z M79,96h1v1h-1z M80,96h1v1h-1z M85,96h1v1h-1z M87,96h1v1h-1z M92,96h1v1h-1z M95,96h1v1h-1z M96,96h1v1h-1z M98,96h1v1h-1z M104,96h1v1h-1z M105,96h1v1h-1z M4,97h1v1h-1z M5,97h1v1h-1z M13,97h1v1h-1z M15,97h1v1h-1z M17,97h1v1h-1z M20,97h1v1h-1z M22,97h1v1h-1z M23,97h1v1h-1z M24,97h1v1h-1z M25,97h1v1h-1z M26,97h1v1h-1z M28,97h1v1h-1z M29,97h1v1h-1z M30,97h1v1h-1z M33,97h1v1h-1z M34,97h1v1h-1z M36,97h1v1h-1z M37,97h1v1h-1z M43,97h1v1h-1z M45,97h1v1h-1z M46,97h1v1h-1z M47,97h1v1h-1z M53,97h1v1h-1z M54,97h1v1h-1z M56,97h1v1h-1z M58,97h1v1h-1z M59,97h1v1h-1z M60,97h1v1h-1z M61,97h1v1h-1z M63,97h1v1h-1z M71,97h1v1h-1z M73,97h1v1h-1z M74,97h1v1h-1z M78,97h1v1h-1z M79,97h1v1h-1z M80,97h1v1h-1z M82,97h1v1h-1z M87,97h1v1h-1z M91,97h1v1h-1z M93,97h1v1h-1z M94,97h1v1h-1z M96,97h1v1h-1z M97,97h1v1h-1z M98,97h1v1h-1z M99,97h1v1h-1z M101,97h1v1h-1z M103,97h1v1h-1z M105,97h1v1h-1z M106,97h1v1h-1z M107,97h1v1h-1z M4,98h1v1h-1z M5,98h1v1h-1z M6,98h1v1h-1z M10,98h1v1h-1z M12,98h1v1h-1z M13,98h1v1h-1z M14,98h1v1h-1z M16,98h1v1h-1z M17,98h1v1h-1z M20,98h1v1h-1z M21,98h1v1h-1z M25,98h1v1h-1z M26,98h1v1h-1z M27,98h1v1h-1z M30,98h1v1h-1z M32,98h1v1h-1z M38,98h1v1h-1z M40,98h1v1h-1z M41,98h1v1h-1z M45,98h1v1h-1z M48,98h1v1h-1z M50,98h1v1h-1z M51,98h1v1h-1z M52,98h1v1h-1z M53,98h1v1h-1z M54,98h1v1h-1z M56,98h1v1h-1z M62,98h1v1h-1z M63,98h1v1h-1z M65,98h1v1h-1z M67,98h1v1h-1z M73,98h1v1h-1z M74,98h1v1h-1z M76,98h1v1h-1z M77,98h1v1h-1z M80,98h1v1h-1z M81,98h1v1h-1z M84,98h1v1h-1z M86,98h1v1h-1z M87,98h1v1h-1z M91,98h1v1h-1z M95,98h1v1h-1z M98,98h1v1h-1z M100,98h1v1h-1z M101,98h1v1h-1z M103,98h1v1h-1z M105,98h1v1h-1z M106,98h1v1h-1z M107,98h1v1h-1z M6,99h1v1h-1z M8,99h1v1h-1z M9,99h1v1h-1z M12,99h1v1h-1z M16,99h1v1h-1z M17,99h1v1h-1z M18,99h1v1h-1z M19,99h1v1h-1z M20,99h1v1h-1z M21,99h1v1h-1z M24,99h1v1h-1z M25,99h1v1h-1z M28,99h1v1h-1z M33,99h1v1h-1z M35,99h1v1h-1z M38,99h1v1h-1z M44,99h1v1h-1z M46,99h1v1h-1z M50,99h1v1h-1z M51,99h1v1h-1z M53,99h1v1h-1z M57,99h1v1h-1z M59,99h1v1h-1z M62,99h1v1h-1z M68,99h1v1h-1z M69,99h1v1h-1z M71,99h1v1h-1z M75,99h1v1h-1z M79,99h1v1h-1z M82,99h1v1h-1z M83,99h1v1h-1z M85,99h1v1h-1z M90,99h1v1h-1z M92,99h1v1h-1z M94,99h1v1h-1z M95,99h1v1h-1z M97,99h1v1h-1z M101,99h1v1h-1z M107,99h1v1h-1z M108,99h1v1h-1z M7,100h1v1h-1z M8,100h1v1h-1z M10,100h1v1h-1z M11,100h1v1h-1z M12,100h1v1h-1z M13,100h1v1h-1z M14,100h1v1h-1z M15,100h1v1h-1z M16,100h1v1h-1z M18,100h1v1h-1z M22,100h1v1h-1z M26,100h1v1h-1z M28,100h1v1h-1z M29,100h1v1h-1z M30,100h1v1h-1z M31,100h1v1h-1z M32,100h1v1h-1z M33,100h1v1h-1z M34,100h1v1h-1z M36,100h1v1h-1z M37,100h1v1h-1z M41,100h1v1h-1z M46,100h1v1h-1z M48,100h1v1h-1z M49,100h1v1h-1z M50,100h1v1h-1z M51,100h1v1h-1z M52,100h1v1h-1z M53,100h1v1h-1z M54,100h1v1h-1z M55,100h1v1h-1z M56,100h1v1h-1z M58,100h1v1h-1z M59,100h1v1h-1z M60,100h1v1h-1z M61,100h1v1h-1z M66,100h1v1h-1z M72,100h1v1h-1z M73,100h1v1h-1z M75,100h1v1h-1z M76,100h1v1h-1z M77,100h1v1h-1z M78,100h1v1h-1z M79,100h1v1h-1z M80,100h1v1h-1z M82,100h1v1h-1z M83,100h1v1h-1z M84,100h1v1h-1z M86,100h1v1h-1z M87,100h1v1h-1z M88,100h1v1h-1z M89,100h1v1h-1z M90,100h1v1h-1z M91,100h1v1h-1z M94,100h1v1h-1z M98,100h1v1h-1z M100,100h1v1h-1z M101,100h1v1h-1z M102,100h1v1h-1z M103,100h1v1h-1z M104,100h1v1h-1z M105,100h1v1h-1z M108,100h1v1h-1z M12,101h1v1h-1z M16,101h1v1h-1z M17,101h1v1h-1z M20,101h1v1h-1z M23,101h1v1h-1z M24,101h1v1h-1z M27,101h1v1h-1z M28,101h1v1h-1z M32,101h1v1h-1z M33,101h1v1h-1z M35,101h1v1h-1z M36,101h1v1h-1z M37,101h1v1h-1z M38,101h1v1h-1z M40,101h1v1h-1z M42,101h1v1h-1z M43,101h1v1h-1z M48,101h1v1h-1z M49,101h1v1h-1z M50,101h1v1h-1z M51,101h1v1h-1z M52,101h1v1h-1z M56,101h1v1h-1z M57,101h1v1h-1z M58,101h1v1h-1z M60,101h1v1h-1z M62,101h1v1h-1z M63,101h1v1h-1z M65,101h1v1h-1z M69,101h1v1h-1z M72,101h1v1h-1z M73,101h1v1h-1z M75,101h1v1h-1z M76,101h1v1h-1z M80,101h1v1h-1z M84,101h1v1h-1z M88,101h1v1h-1z M89,101h1v1h-1z M90,101h1v1h-1z M92,101h1v1h-1z M94,101h1v1h-1z M95,101h1v1h-1z M98,101h1v1h-1z M100,101h1v1h-1z M104,101h1v1h-1z M107,101h1v1h-1z M108,101h1v1h-1z M4,102h1v1h-1z M5,102h1v1h-1z M6,102h1v1h-1z M7,102h1v1h-1z M8,102h1v1h-1z M9,102h1v1h-1z M10,102h1v1h-1z M13,102h1v1h-1z M16,102h1v1h-1z M19,102h1v1h-1z M21,102h1v1h-1z M22,102h1v1h-1z M24,102h1v1h-1z M25,102h1v1h-1z M26,102h1v1h-1z M27,102h1v1h-1z M28,102h1v1h-1z M30,102h1v1h-1z M32,102h1v1h-1z M35,102h1v1h-1z M36,102h1v1h-1z M38,102h1v1h-1z M40,102h1v1h-1z M41,102h1v1h-1z M43,102h1v1h-1z M47,102h1v1h-1z M48,102h1v1h-1z M50,102h1v1h-1z M51,102h1v1h-1z M52,102h1v1h-1z M54,102h1v1h-1z M56,102h1v1h-1z M59,102h1v1h-1z M60,102h1v1h-1z M62,102h1v1h-1z M67,102h1v1h-1z M69,102h1v1h-1z M71,102h1v1h-1z M72,102h1v1h-1z M74,102h1v1h-1z M75,102h1v1h-1z M76,102h1v1h-1z M78,102h1v1h-1z M80,102h1v1h-1z M83,102h1v1h-1z M84,102h1v1h-1z M86,102h1v1h-1z M87,102h1v1h-1z M91,102h1v1h-1z M92,102h1v1h-1z M98,102h1v1h-1z M100,102h1v1h-1z M102,102h1v1h-1z M104,102h1v1h-1z M105,102h1v1h-1z M106,102h1v1h-1z M107,102h1v1h-1z M4,103h1v1h-1z M10,103h1v1h-1z M12,103h1v1h-1z M14,103h1v1h-1z M15,103h1v1h-1z M16,103h1v1h-1z M17,103h1v1h-1z M18,103h1v1h-1z M19,103h1v1h-1z M21,103h1v1h-1z M27,103h1v1h-1z M28,103h1v1h-1z M32,103h1v1h-1z M33,103h1v1h-1z M35,103h1v1h-1z M37,103h1v1h-1z M39,103h1v1h-1z M42,103h1v1h-1z M44,103h1v1h-1z M46,103h1v1h-1z M47,103h1v1h-1z M52,103h1v1h-1z M56,103h1v1h-1z M57,103h1v1h-1z M58,103h1v1h-1z M61,103h1v1h-1z M65,103h1v1h-1z M66,103h1v1h-1z M68,103h1v1h-1z M70,103h1v1h-1z M73,103h1v1h-1z M74,103h1v1h-1z M76,103h1v1h-1z M80,103h1v1h-1z M82,103h1v1h-1z M85,103h1v1h-1z M86,103h1v1h-1z M90,103h1v1h-1z M92,103h1v1h-1z M94,103h1v1h-1z M95,103h1v1h-1z M100,103h1v1h-1z M104,103h1v1h-1z M4,104h1v1h-1z M6,104h1v1h-1z M7,104h1v1h-1z M8,104h1v1h-1z M10,104h1v1h-1z M12,104h1v1h-1z M14,104h1v1h-1z M15,104h1v1h-1z M16,104h1v1h-1z M17,104h1v1h-1z M22,104h1v1h-1z M23,104h1v1h-1z M26,104h1v1h-1z M28,104h1v1h-1z M29,104h1v1h-1z M30,104h1v1h-1z M31,104h1v1h-1z M32,104h1v1h-1z M35,104h1v1h-1z M37,104h1v1h-1z M40,104h1v1h-1z M41,104h1v1h-1z M44,104h1v1h-1z M47,104h1v1h-1z M50,104h1v1h-1z M51,104h1v1h-1z M52,104h1v1h-1z M53,104h1v1h-1z M54,104h1v1h-1z M55,104h1v1h-1z M56,104h1v1h-1z M59,104h1v1h-1z M60,104h1v1h-1z M61,104h1v1h-1z M63,104h1v1h-1z M64,104h1v1h-1z M65,104h1v1h-1z M70,104h1v1h-1z M71,104h1v1h-1z M72,104h1v1h-1z M74,104h1v1h-1z M76,104h1v1h-1z M77,104h1v1h-1z M78,104h1v1h-1z M79,104h1v1h-1z M80,104h1v1h-1z M82,104h1v1h-1z M84,104h1v1h-1z M85,104h1v1h-1z M87,104h1v1h-1z M88,104h1v1h-1z M89,104h1v1h-1z M91,104h1v1h-1z M92,104h1v1h-1z M94,104h1v1h-1z M97,104h1v1h-1z M100,104h1v1h-1z M101,104h1v1h-1z M102,104h1v1h-1z M103,104h1v1h-1z M104,104h1v1h-1z M105,104h1v1h-1z M106,104h1v1h-1z M108,104h1v1h-1z M4,105h1v1h-1z M6,105h1v1h-1z M7,105h1v1h-1z M8,105h1v1h-1z M10,105h1v1h-1z M13,105h1v1h-1z M14,105h1v1h-1z M15,105h1v1h-1z M16,105h1v1h-1z M17,105h1v1h-1z M19,105h1v1h-1z M20,105h1v1h-1z M23,105h1v1h-1z M24,105h1v1h-1z M28,105h1v1h-1z M29,105h1v1h-1z M34,105h1v1h-1z M35,105h1v1h-1z M40,105h1v1h-1z M42,105h1v1h-1z M44,105h1v1h-1z M45,105h1v1h-1z M46,105h1v1h-1z M47,105h1v1h-1z M48,105h1v1h-1z M49,105h1v1h-1z M52,105h1v1h-1z M55,105h1v1h-1z M58,105h1v1h-1z M59,105h1v1h-1z M60,105h1v1h-1z M62,105h1v1h-1z M65,105h1v1h-1z M69,105h1v1h-1z M70,105h1v1h-1z M72,105h1v1h-1z M77,105h1v1h-1z M79,105h1v1h-1z M81,105h1v1h-1z M87,105h1v1h-1z M88,105h1v1h-1z M93,105h1v1h-1z M95,105h1v1h-1z M96,105h1v1h-1z M98,105h1v1h-1z M101,105h1v1h-1z M102,105h1v1h-1z M105,105h1v1h-1z M106,105h1v1h-1z M107,105h1v1h-1z M108,105h1v1h-1z M4,106h1v1h-1z M6,106h1v1h-1z M7,106h1v1h-1z M8,106h1v1h-1z M10,106h1v1h-1z M13,106h1v1h-1z M14,106h1v1h-1z M15,106h1v1h-1z M17,106h1v1h-1z M18,106h1v1h-1z M21,106h1v1h-1z M22,106h1v1h-1z M23,106h1v1h-1z M25,106h1v1h-1z M26,106h1v1h-1z M28,106h1v1h-1z M29,106h1v1h-1z M31,106h1v1h-1z M33,106h1v1h-1z M35,106h1v1h-1z M38,106h1v1h-1z M40,106h1v1h-1z M41,106h1v1h-1z M49,106h1v1h-1z M50,106h1v1h-1z M52,106h1v1h-1z M55,106h1v1h-1z M59,106h1v1h-1z M60,106h1v1h-1z M62,106h1v1h-1z M64,106h1v1h-1z M65,106h1v1h-1z M67,106h1v1h-1z M68,106h1v1h-1z M72,106h1v1h-1z M74,106h1v1h-1z M75,106h1v1h-1z M77,106h1v1h-1z M79,106h1v1h-1z M84,106h1v1h-1z M86,106h1v1h-1z M89,106h1v1h-1z M92,106h1v1h-1z M95,106h1v1h-1z M96,106h1v1h-1z M98,106h1v1h-1z M99,106h1v1h-1z M102,106h1v1h-1z M104,106h1v1h-1z M105,106h1v1h-1z M106,106h1v1h-1z M4,107h1v1h-1z M10,107h1v1h-1z M12,107h1v1h-1z M13,107h1v1h-1z M14,107h1v1h-1z M15,107h1v1h-1z M16,107h1v1h-1z M21,107h1v1h-1z M25,107h1v1h-1z M26,107h1v1h-1z M30,107h1v1h-1z M32,107h1v1h-1z M34,107h1v1h-1z M35,107h1v1h-1z M37,107h1v1h-1z M38,107h1v1h-1z M42,107h1v1h-1z M44,107h1v1h-1z M45,107h1v1h-1z M46,107h1v1h-1z M47,107h1v1h-1z M53,107h1v1h-1z M54,107h1v1h-1z M56,107h1v1h-1z M57,107h1v1h-1z M61,107h1v1h-1z M62,107h1v1h-1z M63,107h1v1h-1z M68,107h1v1h-1z M74,107h1v1h-1z M77,107h1v1h-1z M78,107h1v1h-1z M80,107h1v1h-1z M81,107h1v1h-1z M82,107h1v1h-1z M83,107h1v1h-1z M86,107h1v1h-1z M90,107h1v1h-1z M92,107h1v1h-1z M93,107h1v1h-1z M94,107h1v1h-1z M99,107h1v1h-1z M103,107h1v1h-1z M104,107h1v1h-1z M4,108h1v1h-1z M5,108h1v1h-1z M6,108h1v1h-1z M7,108h1v1h-1z M8,108h1v1h-1z M9,108h1v1h-1z M10,108h1v1h-1z M12,108h1v1h-1z M16,108h1v1h-1z M17,108h1v1h-1z M18,108h1v1h-1z M19,108h1v1h-1z M21,108h1v1h-1z M23,108h1v1h-1z M26,108h1v1h-1z M29,108h1v1h-1z M31,108h1v1h-1z M34,108h1v1h-1z M35,108h1v1h-1z M36,108h1v1h-1z M37,108h1v1h-1z M39,108h1v1h-1z M41,108h1v1h-1z M42,108h1v1h-1z M44,108h1v1h-1z M45,108h1v1h-1z M46,108h1v1h-1z M47,108h1v1h-1z M49,108h1v1h-1z M51,108h1v1h-1z M52,108h1v1h-1z M53,108h1v1h-1z M55,108h1v1h-1z M56,108h1v1h-1z M63,108h1v1h-1z M64,108h1v1h-1z M65,108h1v1h-1z M66,108h1v1h-1z M72,108h1v1h-1z M73,108h1v1h-1z M76,108h1v1h-1z M78,108h1v1h-1z M82,108h1v1h-1z M83,108h1v1h-1z M85,108h1v1h-1z M86,108h1v1h-1z M87,108h1v1h-1z M89,108h1v1h-1z M90,108h1v1h-1z M91,108h1v1h-1z M92,108h1v1h-1z M93,108h1v1h-1z M96,108h1v1h-1z M97,108h1v1h-1z M98,108h1v1h-1z M99,108h1v1h-1z M100,108h1v1h-1z M104,108h1v1h-1z M106,108h1v1h-1z M108,108h1v1h-1z" fill="#000000"/>
</svg>
