<?xml version="1.0" encoding="UTF-8"?>
<!DOCTYPE svg PUBLIC "-//W3C//DTD SVG 1.1//EN" "http://www.w3.org/Graphics/SVG/1.1/DTD/svg11.dtd">
<svg xmlns="http://www.w3.org/2000/svg" version="1.1" viewBox="0 0 113 113" stroke="none">
	<rect width="100%" height="100%" fill="#FFFFFF"/>
	<path d="M4,4h1v1h-1z M5,4h1v1h-1z M6,4h1v1h-1z M7,4h1v1h-1z M8,4h1v1h-1z M9,4h1v1h-1z M10,4h1v1h-1z M12,4h1v1h-1z M13,4h1v1h-1z M14,4h1v1h-1z M15,4h1v1h-1z M17,4h1v1h-1z M19,4h1v1h-1z M22,4h1v1h-1z M23,4h1v1h-1z M26,4h1v1h-1z M27,4h1v1h-1z M28,4h1v1h-1z M29,4h1v1h-1z M32,4h1v1h-1z M33,4h1v1h-1z M35,4h1v1h-1z M36,4h1v1h-1z M38,4h1v1h-1z M40,4h1v1h-1z M43,4h1v1h-1z M46,4h1v1h-1z M47,4h1v1h-1z M54,4h1v1h-1z M55,4h1v1h-1z M57,4h1v1h-1z M60,4h1v1h-1z M65,4h1v1h-1z M67,4h1v1h-1z M68,4h1v1h-1z M70,4h1v1h-1z M71,4h1v1h-1z M72,4h1v1h-1z M73,4h1v1h-1z M75,4h1v1h-1z M80,4h1v1h-1z M82,4h1v1h-1z M83,4h1v1h-1z M85,4h1v1h-1z M87,4h1v1h-1z M89,4h1v1h-1z M90,4h1v1h-1z M92,4h1v1h-1z M95,4h1v1h-1z M96,4h1v1h-1z M98,4h1v1h-1z M102,4h1v1h-1z M103,4h1v1h-1z M104,4h1v1h-1z M105,4h1v1h-1z M106,4h1v1h-1z M107,4h1v1h-1z M108,4h1v1h-1z M4,5h1v1h-1z M10,5h1v1h-1z M18,5h1v1h-1z M19,5h1v1h-1z M27,5h1v1h-1z M30,5h1v1h-1z M31,5h1v1h-1z M32,5h1v1h-1z M33,5h1v1h-1z M34,5h1v1h-1z M35,5h1v1h-1z M36,5h1v1h-1z M40,5h1v1h-1z M41,5h1v1h-1z M42,5h1v1h-1z M43,5h1v1h-1z M44,5h1v1h-1z M45,5h1v1h-1z M46,5h1v1h-1z M47,5h1v1h-1z M49,5h1v1h-1z M53,5h1v1h-1z M54,5h1v1h-1z M58,5h1v1h-1z M61,5h1v1h-1z M66,5h1v1h-1z M68,5h1v1h-1z M70,5h1v1h-1z M71,5h1v1h-1z M72,5h1v1h-1z M73,5h1v1h-1z M76,5h1v1h-1z M78,5h1v1h-1z M80,5h1v1h-1z M81,5h1v1h-1z M82,5h1v1h-1z M85,5h1v1h-1z M88,5h1v1h-1z M90,5h1v1h-1z M91,5h1v1h-1z M93,5h1v1h-1z M94,5h1v1h-1z M97,5h1v1h-1z M98,5h1v1h-1z M102,5h1v1h-1z M108,5h1v1h-1z M4,6h1v1h-1z M6,6h1v1h-1z M7,6h1v1h-1z M8,6h1v1h-1z M10,6h1v1h-1z M16,6h1v1h-1z M22,6h1v1h-1z M25,6h1v1h-1z M26,6h1v1h-1z M27,6h1v1h-1z M28,6h1v1h-1z M31,6h1v1h-1z M32,6h1v1h-1z M33,6h1v1h-1z M34,6h1v1h-1z M39,6h1v1h-1z M40,6h1v1h-1z M42,6h1v1h-1z M44,6h1v1h-1z M46,6h1v1h-1z M51,6h1v1h-1z M52,6h1v1h-1z M54,6h1v1h-1z M56,6h1v1h-1z M57,6h1v1h-1z M59,6h1v1h-1z M63,6h1v1h-1z M64,6h1v1h-1z M65,6h1v1h-1z M68,6h1v1h-1z M69,6h1v1h-1z M74,6h1v1h-1z M75,6h1v1h-1z M76,6h1v1h-1z M80,6h1v1h-1z M86,6h1v1h-1z M87,6h1v1h-1z M88,6h1v1h-1z M89,6h1v1h-1z M92,6h1v1h-1z M97,6h1v1h-1z M98,6h1v1h-1z M99,6h1v1h-1z M102,6h1v1h-1z M104,6h1v1h-1z M105,6h1v1h-1z M106,6h1v1h-1z M108,6h1v1h-1z M4,7h1v1h-1z M6,7h1v1h-1z M7,7h1v1h-1z M8,7h1v1h-1z M10,7h1v1h-1z M13,7h1v1h-1z M16,7h1v1h-1z M17,7h1v1h-1z M18,7h1v1h-1z M19,7h1v1h-1z M21,7h1v1h-1z M22,7h1v1h-1z M23,7h1v1h-1z M25,7h1v1h-1z M26,7h1v1h-1z M27,7h1v1h-1z M29,7h1v1h-1z M31,7h1v1h-1z M35,7h1v1h-1z M39,7h1v1h-1z M43,7h1v1h-1z M44,7h1v1h-1z M45,7h1v1h-1z M46,7h1v1h-1z M50,7h1v1h-1z M55,7h1v1h-1z M57,7h1v1h-1z M58,7h1v1h-1z M61,7h1v1h-1z M62,7h1v1h-1z M63,7h1v1h-1z M64,7h1v1h-1z M66,7h1v1h-1z M68,7h1v1h-1z M71,7h1v1h-1z M73,7h1v1h-1z M74,7h1v1h-1z M75,7h1v1h-1z M77,7h1v1h-1z M78,7h1v1h-1z M79,7h1v1h-1z M80,7h1v1h-1z M82,7h1v1h-1z M83,7h1v1h-1z M86,7h1v1h-1z M88,7h1v1h-1z M89,7h1v1h-1z M91,7h1v1h-1z M97,7h1v1h-1z M100,7h1v1h-1z M102,7h1v1h-1z M104,7h1v1h-1z M105,7h1v1h-1z M106,7h1v1h-1z M108,7h1v1h-1z M4,8h1v1h-1z M6,8h1v1h-1z M7,8h1v1h-1z M8,8h1v1h-1z M10,8h1v1h-1z M13,8h1v1h-1z M14,8h1v1h-1z M15,8h1v1h-1z M18,8h1v1h-1z M20,8h1v1h-1z M23,8h1v1h-1z M27,8h1v1h-1z M28,8h1v1h-1z M29,8h1v1h-1z M30,8h1v1h-1z M31,8h1v1h-1z M32,8h1v1h-1z M33,8h1v1h-1z M34,8h1v1h-1z M35,8h1v1h-1z M36,8h1v1h-1z M42,8h1v1h-1z M46,8h1v1h-1z M47,8h1v1h-1z M49,8h1v1h-1z M50,8h1v1h-1z M51,8h1v1h-1z M52,8h1v1h-1z M53,8h1v1h-1z M54,8h1v1h-1z M55,8h1v1h-1z M56,8h1v1h-1z M59,8h1v1h-1z M60,8h1v1h-1z M61,8h1v1h-1z M65,8h1v1h-1z M66,8h1v1h-1z M67,8h1v1h-1z M68,8h1v1h-1z M72,8h1v1h-1z M75,8h1v1h-1z M76,8h1v1h-1z M77,8h1v1h-1z M78,8h1v1h-1z M79,8h1v1h-1z M80,8h1v1h-1z M81,8h1v1h-1z M84,8h1v1h-1z M88,8h1v1h-1z M89,8h1v1h-1z M91,8h1v1h-1z M93,8h1v1h-1z M95,8h1v1h-1z M97,8h1v1h-1z M99,8h1v1h-1z M100,8h1v1h-1z M102,8h1v1h-1z M104,8h1v1h-1z M105,8h1v1h-1z M106,8h1v1h-1z M108,8h1v1h-1z M4,9h1v1h-1z M10,9h1v1h-1z M14,9h1v1h-1z M15,9h1v1h-1z M17,9h1v1h-1z M19,9h1v1h-1z M20,9h1v1h-1z M21,9h1v1h-1z M22,9h1v1h-1z M25,9h1v1h-1z M26,9h1v1h-1z M27,9h1v1h-1z M28,9h1v1h-1z M32,9h1v1h-1z M34,9h1v1h-1z M35,9h1v1h-1z M38,9h1v1h-1z M39,9h1v1h-1z M41,9h1v1h-1z M43,9h1v1h-1z M45,9h1v1h-1z M46,9h1v1h-1z M48,9h1v1h-1z M50,9h1v1h-1z M51,9h1v1h-1z M52,9h1v1h-1z M56,9h1v1h-1z M57,9h1v1h-1z M58,9h1v1h-1z M61,9h1v1h-1z M62,9h1v1h-1z M67,9h1v1h-1z M68,9h1v1h-1z M70,9h1v1h-1z M71,9h1v1h-1z M72,9h1v1h-1z M73,9h1v1h-1z M74,9h1v1h-1z M75,9h1v1h-1z M76,9h1v1h-1z M80,9h1v1h-1z M81,9h1v1h-1z M82,9h1v1h-1z M86,9h1v1h-1z M87,9h1v1h-1z M88,9h1v1h-1z M89,9h1v1h-1z M92,9h1v1h-1z M93,9h1v1h-1z M94,9h1v1h-1z M95,9h1v1h-1z M96,9h1v1h-1z M97,9h1v1h-1z M99,9h1v1h-1z M102,9h1v1h-1z M108,9h1v1h-1z M4,10h1v1h-1z M5,10h1v1h-1z M6,10h1v1h-1z M7,10h1v1h-1z M8,10h1v1h-1z M9,10h1v1h-1z M10,10h1v1h-1z M12,10h1v1h-1z M14,10h1v1h-1z M16,10h1v1h-1z M18,10h1v1h-1z M20,10h1v1h-1z M22,10h1v1h-1z M24,10h1v1h-1z M26,10h1v1h-1z M28,10h1v1h-1z M30,10h1v1h-1z M32,10h1v1h-1z M34,10h1v1h-1z M36,10h1v1h-1z M38,10h1v1h-1z M40,10h1v1h-1z M42,10h1v1h-1z M44,10h1v1h-1z M46,10h1v1h-1z M48,10h1v1h-1z M50,10h1v1h-1z M52,10h1v1h-1z M54,10h1v1h-1z M56,10h1v1h-1z M58,10h1v1h-1z M60,10h1v1h-1z M62,10h1v1h-1z M64,10h1v1h-1z M66,10h1v1h-1z M68,10h1v1h-1z M70,10h1v1h-1z M72,10h1v1h-1z M74,10h1v1h-1z M76,10h1v1h-1z M78,10h1v1h-1z M80,10h1v1h-1z M82,10h1v1h-1z M84,10h1v1h-1z M86,10h1v1h-1z M88,10h1v1h-1z M90,10h1v1h-1z M92,10h1v1h-1z M94,10h1v1h-1z M96,10h1v1h-1z M98,10h1v1h-1z M100,10h1v1h-1z M102,10h1v1h-1z M103,10h1v1h-1z M104,10h1v1h-1z M105,10h1v1h-1z M106,10h1v1h-1z M107,10h1v1h-1z M108,10h1v1h-1z M12,11h1v1h-1z M15,11h1v1h-1z M18,11h1v1h-1z M19,11h1v1h-1z M26,11h1v1h-1z M28,11h1v1h-1z M32,11h1v1h-1z M36,11h1v1h-1z M37,11h1v1h-1z M38,11h1v1h-1z M39,11h1v1h-1z M40,11h1v1h-1z M41,11h1v1h-1z M42,11h1v1h-1z M45,11h1v1h-1z M47,11h1v1h-1z M48,11h1v1h-1z M49,11h1v1h-1z M50,11h1v1h-1z M52,11h1v1h-1z M56,11h1v1h-1z M57,11h1v1h-1z M60,11h1v1h-1z M61,11h1v1h-1z M62,11h1v1h-1z M63,11h1v1h-1z M64,11h1v1h-1z M67,11h1v1h-1z M70,11h1v1h-1z M71,11h1v1h-1z M72,11h1v1h-1z M74,11h1v1h-1z M75,11h1v1h-1z M76,11h1v1h-1z M80,11h1v1h-1z M84,11h1v1h-1z M85,11h1v1h-1z M86,11h1v1h-1z M87,11h1v1h-1z M88,11h1v1h-1z M89,11h1v1h-1z M90,11h1v1h-1z M91,11h1v1h-1z M96,11h1v1h-1z M97,11h1v1h-1z M99,11h1v1h-1z M4,12h1v1h-1z M5,12h1v1h-1z M7,12h1v1h-1z M8,12h1v1h-1z M10,12h1v1h-1z M13,12h1v1h-1z M15,12h1v1h-1z M16,12h1v1h-1z M23,12h1v1h-1z M24,12h1v1h-1z M25,12h1v1h-1z M26,12h1v1h-1z M28,12h1v1h-1z M29,12h1v1h-1z M30,12h1v1h-1z M31,12h1v1h-1z M32,12h1v1h-1z M38,12h1v1h-1z M41,12h1v1h-1z M43,12h1v1h-1z M45,12h1v1h-1z M46,12h1v1h-1z M51,12h1v1h-1z M52,12h1v1h-1z M53,12h1v1h-1z M54,12h1v1h-1z M55,12h1v1h-1z M56,12h1v1h-1z M58,12h1v1h-1z M59,12h1v1h-1z M60,12h1v1h-1z M61,12h1v1h-1z M63,12h1v1h-1z M66,12h1v1h-1z M68,12h1v1h-1z M69,12h1v1h-1z M70,12h1v1h-1z M73,12h1v1h-1z M75,12h1v1h-1z M76,12h1v1h-1z M77,12h1v1h-1z M78,12h1v1h-1z M79,12h1v1h-1z M80,12h1v1h-1z M81,12h1v1h-1z M82,12h1v1h-1z M84,12h1v1h-1z M87,12h1v1h-1z M89,12h1v1h-1z M91,12h1v1h-1z M93,12h1v1h-1z M94,12h1v1h-1z M96,12h1v1h-1z M97,12h1v1h-1z M98,12h1v1h-1z M99,12h1v1h-1z M100,12h1v1h-1z M102,12h1v1h-1z M108,12h1v1h-1z M4,13h1v1h-1z M6,13h1v1h-1z M12,13h1v1h-1z M13,13h1v1h-1z M16,13h1v1h-1z M18,13h1v1h-1z M20,13h1v1h-1z M22,13h1v1h-1z M24,13h1v1h-1z M25,13h1v1h-1z M26,13h1v1h-1z M27,13h1v1h-1z M28,13h1v1h-1z M29,13h1v1h-1z M33,13h1v1h-1z M34,13h1v1h-1z M36,13h1v1h-1z M37,13h1v1h-1z M38,13h1v1h-1z M41,13h1v1h-1z M42,13h1v1h-1z M44,13h1v1h-1z M45,13h1v1h-1z M46,13h1v1h-1z M51,13h1v1h-1z M52,13h1v1h-1z M54,13h1v1h-1z M57,13h1v1h-1z M58,13h1v1h-1z M59,13h1v1h-1z M60,13h1v1h-1z M62,13h1v1h-1z M65,13h1v1h-1z M66,13h1v1h-1z M67,13h1v1h-1z M71,13h1v1h-1z M72,13h1v1h-1z M73,13h1v1h-1z M74,13h1v1h-1z M75,13h1v1h-1z M76,13h1v1h-1z M77,13h1v1h-1z M78,13h1v1h-1z M81,13h1v1h-1z M82,13h1v1h-1z M84,13h1v1h-1z M88,13h1v1h-1z M89,13h1v1h-1z M93,13h1v1h-1z M94,13h1v1h-1z M96,13h1v1h-1z M99,13h1v1h-1z M100,13h1v1h-1z M101,13h1v1h-1z M102,13h1v1h-1z M104,13h1v1h-1z M106,13h1v1h-1z M107,13h1v1h-1z M9,14h1v1h-1z M10,14h1v1h-1z M11,14h1v1h-1z M13,14h1v1h-1z M15,14h1v1h-1z M17,14h1v1h-1z M18,14h1v1h-1z M19,14h1v1h-1z M20,14h1v1h-1z M21,14h1v1h-1z M23,14h1v1h-1z M24,14h1v1h-1z M27,14h1v1h-1z M28,14h1v1h-1z M29,14h1v1h-1z M30,14h1v1h-1z M31,14h1v1h-1z M32,14h1v1h-1z M34,14h1v1h-1z M37,14h1v1h-1z M42,14h1v1h-1z M44,14h1v1h-1z M46,14h1v1h-1z M47,14h1v1h-1z M53,14h1v1h-1z M54,14h1v1h-1z M55,14h1v1h-1z M58,14h1v1h-1z M60,14h1v1h-1z M61,14h1v1h-1z M64,14h1v1h-1z M65,14h1v1h-1z M66,14h1v1h-1z M67,14h1v1h-1z M68,14h1v1h-1z M70,14h1v1h-1z M71,14h1v1h-1z M76,14h1v1h-1z M77,14h1v1h-1z M78,14h1v1h-1z M80,14h1v1h-1z M82,14h1v1h-1z M83,14h1v1h-1z M84,14h1v1h-1z M89,14h1v1h-1z M90,14h1v1h-1z M91,14h1v1h-1z M92,14h1v1h-1z M94,14h1v1h-1z M96,14h1v1h-1z M99,14h1v1h-1z M100,14h1v1h-1z M102,14h1v1h-1z M106,14h1v1h-1z M107,14h1v1h-1z M108,14h1v1h-1z M4,15h1v1h-1z M5,15h1v1h-1z M7,15h1v1h-1z M9,15h1v1h-1z M12,15h1v1h-1z M13,15h1v1h-1z M15,15h1v1h-1z M16,15h1v1h-1z M17,15h1v1h-1z M18,15h1v1h-1z M19,15h1v1h-1z M20,15h1v1h-1z M22,15h1v1h-1z M23,15h1v1h-1z M24,15h1v1h-1z M25,15h1v1h-1z M27,15h1v1h-1z M28,15h1v1h-1z M30,15h1v1h-1z M31,15h1v1h-1z M32,15h1v1h-1z M33,15h1v1h-1z M35,15h1v1h-1z M37,15h1v1h-1z M39,15h1v1h-1z M40,15h1v1h-1z M41,15h1v1h-1z M42,15h1v1h-1z M44,15h1v1h-1z M45,15h1v1h-1z M46,15h1v1h-1z M47,15h1v1h-1z M49,15h1v1h-1z M52,15h1v1h-1z M53,15h1v1h-1z M54,15h1v1h-1z M55,15h1v1h-1z M56,15h1v1h-1z M58,15h1v1h-1z M59,15h1v1h-1z M61,15h1v1h-1z M64,15h1v1h-1z M67,15h1v1h-1z M68,15h1v1h-1z M69,15h1v1h-1z M70,15h1v1h-1z M77,15h1v1h-1z M78,15h1v1h-1z M80,15h1v1h-1z M81,15h1v1h-1z M83,15h1v1h-1z M88,15h1v1h-1z M89,15h1v1h-1z M90,15h1v1h-1z M92,15h1v1h-1z M95,15h1v1h-1z M98,15h1v1h-1z M99,15h1v1h-1z M101,15h1v1h-1z M104,15h1v1h-1z M105,15h1v1h-1z M106,15h1v1h-1z M4,16h1v1h-1z M5,16h1v1h-1z M7,16h1v1h-1z M10,16h1v1h-1z M11,16h1v1h-1z M12,16h1v1h-1z M20,16h1v1h-1z M21,16h1v1h-1z M23,16h1v1h-1z M24,16h1v1h-1z M26,16h1v1h-1z M29,16h1v1h-1z M32,16h1v1h-1z M34,16h1v1h-1z M35,16h1v1h-1z M36,16h1v1h-1z M42,16h1v1h-1z M43,16h1v1h-1z M44,16h1v1h-1z M46,16h1v1h-1z M47,16h1v1h-1z M50,16h1v1h-1z M53,16h1v1h-1z M56,16h1v1h-1z M64,16h1v1h-1z M66,16h1v1h-1z M68,16h1v1h-1z M75,16h1v1h-1z M77,16h1v1h-1z M80,16h1v1h-1z M82,16h1v1h-1z M84,16h1v1h-1z M88,16h1v1h-1z M92,16h1v1h-1z M94,16h1v1h-1z M96,16h1v1h-1z M97,16h1v1h-1z M100,16h1v1h-1z M104,16h1v1h-1z M108,16h1v1h-1z M4,17h1v1h-1z M5,17h1v1h-1z M6,17h1v1h-1z M7,17h1v1h-1z M8,17h1v1h-1z M11,17h1v1h-1z M12,17h1v1h-1z M14,17h1v1h-1z M17,17h1v1h-1z M19,17h1v1h-1z M22,17h1v1h-1z M23,17h1v1h-1z M24,17h1v1h-1z M25,17h1v1h-1z M26,17h1v1h-1z M28,17h1v1h-1z M30,17h1v1h-1z M32,17h1v1h-1z M33,17h1v1h-1z M36,17h1v1h-1z M37,17h1v1h-1z M38,17h1v1h-1z M39,17h1v1h-1z M40,17h1v1h-1z M42,17h1v1h-1z M43,17h1v1h-1z M45,17h1v1h-1z M46,17h1v1h-1z M47,17h1v1h-1z M49,17h1v1h-1z M50,17h1v1h-1z M52,17h1v1h-1z M53,17h1v1h-1z M54,17h1v1h-1z M57,17h1v1h-1z M60,17h1v1h-1z M61,17h1v1h-1z M62,17h1v1h-1z M66,17h1v1h-1z M67,17h1v1h-1z M70,17h1v1h-1z M71,17h1v1h-1z M72,17h1v1h-1z M74,17h1v1h-1z M75,17h1v1h-1z M76,17h1v1h-1z M77,17h1v1h-1z M78,17h1v1h-1z M80,17h1v1h-1z M84,17h1v1h-1z M88,17h1v1h-1z M90,17h1v1h-1z M91,17h1v1h-1z M92,17h1v1h-1z M93,17h1v1h-1z M94,17h1v1h-1z M96,17h1v1h-1z M97,17h1v1h-1z M99,17h1v1h-1z M100,17h1v1h-1z M101,17h1v1h-1z M102,17h1v1h-1z M104,17h1v1h-1z M107,17h1v1h-1z M5,18h1v1h-1z M7,18h1v1h-1z M10,18h1v1h-1z M11,18h1v1h-1z M13,18h1v1h-1z M17,18h1v1h-1z M18,18h1v1h-1z M19,18h1v1h-1z M20,18h1v1h-1z M22,18h1v1h-1z M23,18h1v1h-1z M24,18h1v1h-1z M26,18h1v1h-1z M28,18h1v1h-1z M33,18h1v1h-1z M34,18h1v1h-1z M35,18h1v1h-1z M38,18h1v1h-1z M39,18h1v1h-1z M45,18h1v1h-1z M46,18h1v1h-1z M47,18h1v1h-1z M50,18h1v1h-1z M55,18h1v1h-1z M56,18h1v1h-1z M57,18h1v1h-1z M58,18h1v1h-1z M59,18h1v1h-1z M60,18h1v1h-1z M62,18h1v1h-1z M63,18h1v1h-1z M64,18h1v1h-1z M67,18h1v1h-1z M68,18h1v1h-1z M69,18h1v1h-1z M70,18h1v1h-1z M72,18h1v1h-1z M74,18h1v1h-1z M76,18h1v1h-1z M81,18h1v1h-1z M82,18h1v1h-1z M86,18h1v1h-1z M87,18h1v1h-1z M91,18h1v1h-1z M92,18h1v1h-1z M94,18h1v1h-1z M95,18h1v1h-1z M98,18h1v1h-1z M100,18h1v1h-1z M104,18h1v1h-1z M105,18h1v1h-1z M4,19h1v1h-1z M5,19h1v1h-1z M6,19h1v1h-1z M11,19h1v1h-1z M15,19h1v1h-1z M19,19h1v1h-1z M22,19h1v1h-1z M23,19h1v1h-1z M25,19h1v1h-1z M26,19h1v1h-1z M29,19h1v1h-1z M32,19h1v1h-1z M33,19h1v1h-1z M34,19h1v1h-1z M35,19h1v1h-1z M36,19h1v1h-1z M37,19h1v1h-1z M39,19h1v1h-1z M40,19h1v1h-1z M41,19h1v1h-1z M42,19h1v1h-1z M44,19h1v1h-1z M45,19h1v1h-1z M46,19h1v1h-1z M47,19h1v1h-1z M48,19h1v1h-1z M49,19h1v1h-1z M50,19h1v1h-1z M51,19h1v1h-1z M53,19h1v1h-1z M54,19h1v1h-1z M55,19h1v1h-1z M56,19h1v1h-1z M57,19h1v1h-1z M58,19h1v1h-1z M59,19h1v1h-1z M60,19h1v1h-1z M61,19h1v1h-1z M62,19h1v1h-1z M63,19h1v1h-1z M64,19h1v1h-1z M66,19h1v1h-1z M67,19h1v1h-1z M68,19h1v1h-1z M70,19h1v1h-1z M71,19h1v1h-1z M72,19h1v1h-1z M74,19h1v1h-1z M75,19h1v1h-1z M76,19h1v1h-1z M78,19h1v1h-1z M79,19h1v1h-1z M80,19h1v1h-1z M83,19h1v1h-1z M84,19h1v1h-1z M87,19h1v1h-1z M88,19h1v1h-1z M89,19h1v1h-1z M91,19h1v1h-1z M92,19h1v1h-1z M93,19h1v1h-1z M95,19h1v1h-1z M96,19h1v1h-1z M98,19h1v1h-1z M100,19h1v1h-1z M101,19h1v1h-1z M102,19h1v1h-1z M103,19h1v1h-1z M104,19h1v1h-1z M106,19h1v1h-1z M107,19h1v1h-1z M108,19h1v1h-1z M4,20h1v1h-1z M5,20h1v1h-1z M8,20h1v1h-1z M9,20h1v1h-1z M10,20h1v1h-1z M11,20h1v1h-1z M13,20h1v1h-1z M14,20h1v1h-1z M16,20h1v1h-1z M19,20h1v1h-1z M25,20h1v1h-1z M26,20h1v1h-1z M27,20h1v1h-1z M29,20h1v1h-1z M34,20h1v1h-1z M36,20h1v1h-1z M37,20h1v1h-1z M38,20h1v1h-1z M45,20h1v1h-1z M46,20h1v1h-1z M48,20h1v1h-1z M51,20h1v1h-1z M52,20h1v1h-1z M54,20h1v1h-1z M55,20h1v1h-1z M57,20h1v1h-1z M59,20h1v1h-1z M60,20h1v1h-1z M61,20h1v1h-1z M63,20h1v1h-1z M64,20h1v1h-1z M66,20h1v1h-1z M67,20h1v1h-1z M68,20h1v1h-1z M69,20h1v1h-1z M70,20h1v1h-1z M72,20h1v1h-1z M73,20h1v1h-1z M76,20h1v1h-1z M81,20h1v1h-1z M86,20h1v1h-1z M87,20h1v1h-1z M89,20h1v1h-1z M91,20h1v1h-1z M92,20h1v1h-1z M93,20h1v1h-1z M94,20h1v1h-1z M95,20h1v1h-1z M96,20h1v1h-1z M97,20h1v1h-1z M98,20h1v1h-1z M100,20h1v1h-1z M102,20h1v1h-1z M103,20h1v1h-1z M104,20h1v1h-1z M105,20h1v1h-1z M108,20h1v1h-1z M5,21h1v1h-1z M11,21h1v1h-1z M12,21h1v1h-1z M13,21h1v1h-1z M16,21h1v1h-1z M17,21h1v1h-1z M18,21h1v1h-1z M19,21h1v1h-1z M20,21h1v1h-1z M21,21h1v1h-1z M22,21h1v1h-1z M25,21h1v1h-1z M26,21h1v1h-1z M28,21h1v1h-1z M29,21h1v1h-1z M34,21h1v1h-1z M35,21h1v1h-1z M38,21h1v1h-1z M41,21h1v1h-1z M42,21h1v1h-1z M46,21h1v1h-1z M49,21h1v1h-1z M50,21h1v1h-1z M52,21h1v1h-1z M53,21h1v1h-1z M55,21h1v1h-1z M57,21h1v1h-1z M61,21h1v1h-1z M62,21h1v1h-1z M64,21h1v1h-1z M65,21h1v1h-1z M66,21h1v1h-1z M67,21h1v1h-1z M69,21h1v1h-1z M70,21h1v1h-1z M73,21h1v1h-1z M74,21h1v1h-1z M76,21h1v1h-1z M78,21h1v1h-1z M79,21h1v1h-1z M81,21h1v1h-1z M82,21h1v1h-1z M87,21h1v1h-1z M89,21h1v1h-1z M90,21h1v1h-1z M93,21h1v1h-1z M97,21h1v1h-1z M98,21h1v1h-1z M99,21h1v1h-1z M100,21h1v1h-1z M102,21h1v1h-1z M105,21h1v1h-1z M106,21h1v1h-1z M4,22h1v1h-1z M6,22h1v1h-1z M9,22h1v1h-1z M10,22h1v1h-1z M13,22h1v1h-1z M15,22h1v1h-1z M18,22h1v1h-1z M19,22h1v1h-1z M23,22h1v1h-1z M24,22h1v1h-1z M26,22h1v1h-1z M27,22h1v1h-1z M30,22h1v1h-1z M34,22h1v1h-1z M36,22h1v1h-1z M38,22h1v1h-1z M40,22h1v1h-1z M42,22h1v1h-1z M43,22h1v1h-1z M44,22h1v1h-1z M46,22h1v1h-1z M50,22h1v1h-1z M51,22h1v1h-1z M52,22h1v1h-1z M54,22h1v1h-1z M55,22h1v1h-1z M56,22h1v1h-1z M58,22h1v1h-1z M60,22h1v1h-1z M62,22h1v1h-1z M66,22h1v1h-1z M67,22h1v1h-1z M68,22h1v1h-1z M70,22h1v1h-1z M72,22h1v1h-1z M74,22h1v1h-1z M75,22h1v1h-1z M78,22h1v1h-1z M80,22h1v1h-1z M82,22h1v1h-1z M83,22h1v1h-1z M84,22h1v1h-1z M86,22h1v1h-1z M87,22h1v1h-1z M90,22h1v1h-1z M91,22h1v1h-1z M94,22h1v1h-1z M97,22h1v1h-1z M98,22h1v1h-1z M99,22h1v1h-1z M101,22h1v1h-1z M102,22h1v1h-1z M104,22h1v1h-1z M105,22h1v1h-1z M108,22h1v1h-1z M5,23h1v1h-1z M6,23h1v1h-1z M8,23h1v1h-1z M13,23h1v1h-1z M14,23h1v1h-1z M15,23h1v1h-1z M16,23h1v1h-1z M17,23h1v1h-1z M18,23h1v1h-1z M19,23h1v1h-1z M20,23h1v1h-1z M22,23h1v1h-1z M23,23h1v1h-1z M25,23h1v1h-1z M27,23h1v1h-1z M28,23h1v1h-1z M29,23h1v1h-1z M30,23h1v1h-1z M31,23h1v1h-1z M33,23h1v1h-1z M36,23h1v1h-1z M38,23h1v1h-1z M39,23h1v1h-1z M40,23h1v1h-1z M41,23h1v1h-1z M43,23h1v1h-1z M46,23h1v1h-1z M48,23h1v1h-1z M49,23h1v1h-1z M51,23h1v1h-1z M52,23h1v1h-1z M53,23h1v1h-1z M55,23h1v1h-1z M60,23h1v1h-1z M64,23h1v1h-1z M65,23h1v1h-1z M66,23h1v1h-1z M67,23h1v1h-1z M69,23h1v1h-1z M70,23h1v1h-1z M72,23h1v1h-1z M73,23h1v1h-1z M75,23h1v1h-1z M76,23h1v1h-1z M77,23h1v1h-1z M78,23h1v1h-1z M79,23h1v1h-1z M84,23h1v1h-1z M86,23h1v1h-1z M87,23h1v1h-1z M88,23h1v1h-1z M89,23h1v1h-1z M91,23h1v1h-1z M93,23h1v1h-1z M95,23h1v1h-1z M96,23h1v1h-1z M97,23h1v1h-1z M98,23h1v1h-1z M100,23h1v1h-1z M101,23h1v1h-1z M102,23h1v1h-1z M103,23h1v1h-1z M106,23h1v1h-1z M107,23h1v1h-1z M108,23h1v1h-1z M4,24h1v1h-1z M7,24h1v1h-1z M9,24h1v1h-1z M10,24h1v1h-1z M11,24h1v1h-1z M14,24h1v1h-1z M15,24h1v1h-1z M16,24h1v1h-1z M17,24h1v1h-1z M18,24h1v1h-1z M22,24h1v1h-1z M23,24h1v1h-1z M24,24h1v1h-1z M28,24h1v1h-1z M29,24h1v1h-1z M30,24h1v1h-1z M31,24h1v1h-1z M32,24h1v1h-1z M34,24h1v1h-1z M38,24h1v1h-1z M40,24h1v1h-1z M43,24h1v1h-1z M44,24h1v1h-1z M45,24h1v1h-1z M46,24h1v1h-1z M47,24h1v1h-1z M50,24h1v1h-1z M52,24h1v1h-1z M56,24h1v1h-1z M57,24h1v1h-1z M58,24h1v1h-1z M59,24h1v1h-1z M60,24h1v1h-1z M62,24h1v1h-1z M63,24h1v1h-1z M65,24h1v1h-1z M66,24h1v1h-1z M68,24h1v1h-1z M69,24h1v1h-1z M70,24h1v1h-1z M71,24h1v1h-1z M72,24h1v1h-1z M73,24h1v1h-1z M75,24h1v1h-1z M76,24h1v1h-1z M78,24h1v1h-1z M81,24h1v1h-1z M82,24h1v1h-1z M83,24h1v1h-1z M85,24h1v1h-1z M86,24h1v1h-1z M87,24h1v1h-1z M89,24h1v1h-1z M90,24h1v1h-1z M91,24h1v1h-1z M94,24h1v1h-1z M96,24h1v1h-1z M97,24h1v1h-1z M98,24h1v1h-1z M99,24h1v1h-1z M100,24h1v1h-1z M102,24h1v1h-1z M103,24h1v1h-1z M105,24h1v1h-1z M107,24h1v1h-1z M4,25h1v1h-1z M5,25h1v1h-1z M8,25h1v1h-1z M9,25h1v1h-1z M11,25h1v1h-1z M13,25h1v1h-1z M14,25h1v1h-1z M16,25h1v1h-1z M20,25h1v1h-1z M21,25h1v1h-1z M22,25h1v1h-1z M23,25h1v1h-1z M24,25h1v1h-1z M27,25h1v1h-1z M28,25h1v1h-1z M29,25h1v1h-1z M33,25h1v1h-1z M34,25h1v1h-1z M36,25h1v1h-1z M37,25h1v1h-1z M39,25h1v1h-1z M40,25h1v1h-1z M45,25h1v1h-1z M49,25h1v1h-1z M51,25h1v1h-1z M52,25h1v1h-1z M53,25h1v1h-1z M54,25h1v1h-1z M57,25h1v1h-1z M59,25h1v1h-1z M61,25h1v1h-1z M63,25h1v1h-1z M64,25h1v1h-1z M69,25h1v1h-1z M70,25h1v1h-1z M73,25h1v1h-1z M74,25h1v1h-1z M75,25h1v1h-1z M76,25h1v1h-1z M77,25h1v1h-1z M82,25h1v1h-1z M86,25h1v1h-1z M87,25h1v1h-1z M88,25h1v1h-1z M91,25h1v1h-1z M92,25h1v1h-1z M93,25h1v1h-1z M95,25h1v1h-1z M96,25h1v1h-1z M97,25h1v1h-1z M100,25h1v1h-1z M101,25h1v1h-1z M102,25h1v1h-1z M104,25h1v1h-1z M107,25h1v1h-1z M6,26h1v1h-1z M7,26h1v1h-1z M8,26h1v1h-1z M10,26h1v1h-1z M12,26h1v1h-1z M13,26h1v1h-1z M14,26h1v1h-1z M17,26h1v1h-1z M18,26h1v1h-1z M19,26h1v1h-1z M20,26h1v1h-1z M21,26h1v1h-1z M23,26h1v1h-1z M24,26h1v1h-1z M29,26h1v1h-1z M30,26h1v1h-1z M31,26h1v1h-1z M32,26h1v1h-1z M34,26h1v1h-1z M35,26h1v1h-1z M36,26h1v1h-1z M37,26h1v1h-1z M39,26h1v1h-1z M41,26h1v1h-1z M42,26h1v1h-1z M46,26h1v1h-1z M47,26h1v1h-1z M48,26h1v1h-1z M51,26h1v1h-1z M53,26h1v1h-1z M54,26h1v1h-1z M55,26h1v1h-1z M58,26h1v1h-1z M61,26h1v1h-1z M63,26h1v1h-1z M65,26h1v1h-1z M66,26h1v1h-1z M67,26h1v1h-1z M68,26h1v1h-1z M70,26h1v1h-1z M72,26h1v1h-1z M75,26h1v1h-1z M77,26h1v1h-1z M78,26h1v1h-1z M79,26h1v1h-1z M80,26h1v1h-1z M82,26h1v1h-1z M84,26h1v1h-1z M87,26h1v1h-1z M88,26h1v1h-1z M89,26h1v1h-1z M90,26h1v1h-1z M91,26h1v1h-1z M93,26h1v1h-1z M94,26h1v1h-1z M101,26h1v1h-1z M102,26h1v1h-1z M105,26h1v1h-1z M108,26h1v1h-1z M4,27h1v1h-1z M5,27h1v1h-1z M7,27h1v1h-1z M16,27h1v1h-1z M20,27h1v1h-1z M26,27h1v1h-1z M27,27h1v1h-1z M30,27h1v1h-1z M31,27h1v1h-1z M32,27h1v1h-1z M33,27h1v1h-1z M34,27h1v1h-1z M35,27h1v1h-1z M37,27h1v1h-1z M40,27h1v1h-1z M42,27h1v1h-1z M43,27h1v1h-1z M44,27h1v1h-1z M45,27h1v1h-1z M47,27h1v1h-1z M49,27h1v1h-1z M50,27h1v1h-1z M54,27h1v1h-1z M55,27h1v1h-1z M56,27h1v1h-1z M58,27h1v1h-1z M59,27h1v1h-1z M61,27h1v1h-1z M63,27h1v1h-1z M64,27h1v1h-1z M67,27h1v1h-1z M68,27h1v1h-1z M71,27h1v1h-1z M74,27h1v1h-1z M77,27h1v1h-1z M78,27h1v1h-1z M80,27h1v1h-1z M81,27h1v1h-1z M83,27h1v1h-1z M85,27h1v1h-1z M86,27h1v1h-1z M88,27h1v1h-1z M89,27h1v1h-1z M90,27h1v1h-1z M91,27h1v1h-1z M92,27h1v1h-1z M95,27h1v1h-1z M98,27h1v1h-1z M100,27h1v1h-1z M103,27h1v1h-1z M106,27h1v1h-1z M108,27h1v1h-1z M4,28h1v1h-1z M6,28h1v1h-1z M7,28h1v1h-1z M8,28h1v1h-1z M9,28h1v1h-1z M10,28h1v1h-1z M11,28h1v1h-1z M12,28h1v1h-1z M13,28h1v1h-1z M17,28h1v1h-1z M21,28h1v1h-1z M23,28h1v1h-1z M25,28h1v1h-1z M28,28h1v1h-1z M29,28h1v1h-1z M30,28h1v1h-1z M31,28h1v1h-1z M32,28h1v1h-1z M33,28h1v1h-1z M34,28h1v1h-1z M37,28h1v1h-1z M40,28h1v1h-1z M41,28h1v1h-1z M42,28h1v1h-1z M43,28h1v1h-1z M45,28h1v1h-1z M46,28h1v1h-1z M48,28h1v1h-1z M49,28h1v1h-1z M50,28h1v1h-1z M52,28h1v1h-1z M53,28h1v1h-1z M54,28h1v1h-1z M55,28h1v1h-1z M56,28h1v1h-1z M57,28h1v1h-1z M59,28h1v1h-1z M61,28h1v1h-1z M63,28h1v1h-1z M66,28h1v1h-1z M70,28h1v1h-1z M73,28h1v1h-1z M75,28h1v1h-1z M76,28h1v1h-1z M77,28h1v1h-1z M78,28h1v1h-1z M79,28h1v1h-1z M80,28h1v1h-1z M82,28h1v1h-1z M84,28h1v1h-1z M85,28h1v1h-1z M86,28h1v1h-1z M87,28h1v1h-1z M88,28h1v1h-1z M91,28h1v1h-1z M93,28h1v1h-1z M98,28h1v1h-1z M100,28h1v1h-1z M101,28h1v1h-1z M102,28h1v1h-1z M103,28h1v1h-1z M104,28h1v1h-1z M105,28h1v1h-1z M107,28h1v1h-1z M108,28h1v1h-1z M5,29h1v1h-1z M7,29h1v1h-1z M8,29h1v1h-1z M12,29h1v1h-1z M13,29h1v1h-1z M14,29h1v1h-1z M15,29h1v1h-1z M16,29h1v1h-1z M17,29h1v1h-1z M18,29h1v1h-1z M20,29h1v1h-1z M21,29h1v1h-1z M28,29h1v1h-1z M32,29h1v1h-1z M36,29h1v1h-1z M39,29h1v1h-1z M40,29h1v1h-1z M41,29h1v1h-1z M42,29h1v1h-1z M47,29h1v1h-1z M49,29h1v1h-1z M50,29h1v1h-1z M51,29h1v1h-1z M52,29h1v1h-1z M56,29h1v1h-1z M58,29h1v1h-1z M59,29h1v1h-1z M62,29h1v1h-1z M64,29h1v1h-1z M65,29h1v1h-1z M68,29h1v1h-1z M70,29h1v1h-1z M72,29h1v1h-1z M73,29h1v1h-1z M75,29h1v1h-1z M76,29h1v1h-1z M80,29h1v1h-1z M84,29h1v1h-1z M85,29h1v1h-1z M93,29h1v1h-1z M97,29h1v1h-1z M100,29h1v1h-1z M104,29h1v1h-1z M105,29h1v1h-1z M106,29h1v1h-1z M107,29h1v1h-1z M108,29h1v1h-1z M5,30h1v1h-1z M6,30h1v1h-1z M7,30h1v1h-1z M8,30h1v1h-1z M10,30h1v1h-1z M12,30h1v1h-1z M14,30h1v1h-1z M17,30h1v1h-1z M19,30h1v1h-1z M20,30h1v1h-1z M21,30h1v1h-1z M22,30h1v1h-1z M23,30h1v1h-1z M24,30h1v1h-1z M26,30h1v1h-1z M27,30h1v1h-1z M28,30h1v1h-1z M30,30h1v1h-1z M32,30h1v1h-1z M33,30h1v1h-1z M34,30h1v1h-1z M35,30h1v1h-1z M38,30h1v1h-1z M39,30h1v1h-1z M45,30h1v1h-1z M46,30h1v1h-1z M47,30h1v1h-1z M48,30h1v1h-1z M50,30h1v1h-1z M52,30h1v1h-1z M54,30h1v1h-1z M56,30h1v1h-1z M57,30h1v1h-1z M58,30h1v1h-1z M59,30h1v1h-1z M62,30h1v1h-1z M67,30h1v1h-1z M68,30h1v1h-1z M69,30h1v1h-1z M70,30h1v1h-1z M72,30h1v1h-1z M74,30h1v1h-1z M75,30h1v1h-1z M76,30h1v1h-1z M78,30h1v1h-1z M80,30h1v1h-1z M81,30h1v1h-1z M82,30h1v1h-1z M83,30h1v1h-1z M84,30h1v1h-1z M86,30h1v1h-1z M88,30h1v1h-1z M92,30h1v1h-1z M93,30h1v1h-1z M94,30h1v1h-1z M96,30h1v1h-1z M98,30h1v1h-1z M100,30h1v1h-1z M102,30h1v1h-1z M104,30h1v1h-1z M5,31h1v1h-1z M7,31h1v1h-1z M8,31h1v1h-1z M12,31h1v1h-1z M14,31h1v1h-1z M15,31h1v1h-1z M16,31h1v1h-1z M20,31h1v1h-1z M21,31h1v1h-1z M22,31h1v1h-1z M26,31h1v1h-1z M28,31h1v1h-1z M32,31h1v1h-1z M34,31h1v1h-1z M35,31h1v1h-1z M36,31h1v1h-1z M40,31h1v1h-1z M41,31h1v1h-1z M44,31h1v1h-1z M45,31h1v1h-1z M47,31h1v1h-1z M48,31h1v1h-1z M52,31h1v1h-1z M56,31h1v1h-1z M59,31h1v1h-1z M60,31h1v1h-1z M61,31h1v1h-1z M62,31h1v1h-1z M63,31h1v1h-1z M64,31h1v1h-1z M66,31h1v1h-1z M67,31h1v1h-1z M68,31h1v1h-1z M69,31h1v1h-1z M71,31h1v1h-1z M72,31h1v1h-1z M74,31h1v1h-1z M76,31h1v1h-1z M80,31h1v1h-1z M83,31h1v1h-1z M84,31h1v1h-1z M86,31h1v1h-1z M87,31h1v1h-1z M88,31h1v1h-1z M91,31h1v1h-1z M92,31h1v1h-1z M94,31h1v1h-1z M95,31h1v1h-1z M96,31h1v1h-1z M98,31h1v1h-1z M99,31h1v1h-1z M100,31h1v1h-1z M104,31h1v1h-1z M105,31h1v1h-1z M106,31h1v1h-1z M107,31h1v1h-1z M4,32h1v1h-1z M6,32h1v1h-1z M8,32h1v1h-1z M9,32h1v1h-1z M10,32h1v1h-1z M11,32h1v1h-1z M12,32h1v1h-1z M13,32h1v1h-1z M16,32h1v1h-1z M19,32h1v1h-1z M20,32h1v1h-1z M21,32h1v1h-1z M23,32h1v1h-1z M24,32h1v1h-1z M26,32h1v1h-1z M28,32h1v1h-1z M29,32h1v1h-1z M30,32h1v1h-1z M31,32h1v1h-1z M32,32h1v1h-1z M33,32h1v1h-1z M34,32h1v1h-1z M35,32h1v1h-1z M36,32h1v1h-1z M42,32h1v1h-1z M48,32h1v1h-1z M50,32h1v1h-1z M52,32h1v1h-1z M53,32h1v1h-1z M54,32h1v1h-1z M55,32h1v1h-1z M56,32h1v1h-1z M58,32h1v1h-1z M59,32h1v1h-1z M60,32h1v1h-1z M64,32h1v1h-1z M67,32h1v1h-1z M69,32h1v1h-1z M71,32h1v1h-1z M76,32h1v1h-1z M77,32h1v1h-1z M78,32h1v1h-1z M79,32h1v1h-1z M80,32h1v1h-1z M81,32h1v1h-1z M82,32h1v1h-1z M83,32h1v1h-1z M85,32h1v1h-1z M86,32h1v1h-1z M87,32h1v1h-1z M88,32h1v1h-1z M90,32h1v1h-1z M91,32h1v1h-1z M92,32h1v1h-1z M93,32h1v1h-1z M94,32h1v1h-1z M95,32h1v1h-1z M96,32h1v1h-1z M97,32h1v1h-1z M98,32h1v1h-1z M99,32h1v1h-1z M100,32h1v1h-1z M101,32h1v1h-1z M102,32h1v1h-1z M103,32h1v1h-1z M104,32h1v1h-1z M106,32h1v1h-1z M108,32h1v1h-1z M4,33h1v1h-1z M7,33h1v1h-1z M11,33h1v1h-1z M12,33h1v1h-1z M13,33h1v1h-1z M14,33h1v1h-1z M15,33h1v1h-1z M17,33h1v1h-1z M20,33h1v1h-1z M23,33h1v1h-1z M24,33h1v1h-1z M27,33h1v1h-1z M29,33h1v1h-1z M33,33h1v1h-1z M37,33h1v1h-1z M38,33h1v1h-1z M41,33h1v1h-1z M42,33h1v1h-1z M48,33h1v1h-1z M50,33h1v1h-1z M51,33h1v1h-1z M52,33h1v1h-1z M55,33h1v1h-1z M58,33h1v1h-1z M61,33h1v1h-1z M62,33h1v1h-1z M66,33h1v1h-1z M69,33h1v1h-1z M70,33h1v1h-1z M73,33h1v1h-1z M74,33h1v1h-1z M76,33h1v1h-1z M77,33h1v1h-1z M79,33h1v1h-1z M80,33h1v1h-1z M81,33h1v1h-1z M85,33h1v1h-1z M87,33h1v1h-1z M90,33h1v1h-1z M93,33h1v1h-1z M94,33h1v1h-1z M96,33h1v1h-1z M101,33h1v1h-1z M102,33h1v1h-1z M103,33h1v1h-1z M104,33h1v1h-1z M106,33h1v1h-1z M107,33h1v1h-1z M108,33h1v1h-1z M4,34h1v1h-1z M5,34h1v1h-1z M6,34h1v1h-1z M8,34h1v1h-1z M9,34h1v1h-1z M10,34h1v1h-1z M13,34h1v1h-1z M15,34h1v1h-1z M17,34h1v1h-1z M18,34h1v1h-1z M22,34h1v1h-1z M23,34h1v1h-1z M24,34h1v1h-1z M27,34h1v1h-1z M28,34h1v1h-1z M30,34h1v1h-1z M32,34h1v1h-1z M34,34h1v1h-1z M38,34h1v1h-1z M40,34h1v1h-1z M41,34h1v1h-1z M42,34h1v1h-1z M43,34h1v1h-1z M44,34h1v1h-1z M46,34h1v1h-1z M48,34h1v1h-1z M49,34h1v1h-1z M50,34h1v1h-1z M52,34h1v1h-1z M56,34h1v1h-1z M58,34h1v1h-1z M60,34h1v1h-1z M62,34h1v1h-1z M66,34h1v1h-1z M70,34h1v1h-1z M71,34h1v1h-1z M74,34h1v1h-1z M77,34h1v1h-1z M80,34h1v1h-1z M81,34h1v1h-1z M82,34h1v1h-1z M83,34h1v1h-1z M84,34h1v1h-1z M86,34h1v1h-1z M87,34h1v1h-1z M88,34h1v1h-1z M89,34h1v1h-1z M90,34h1v1h-1z M91,34h1v1h-1z M93,34h1v1h-1z M94,34h1v1h-1z M95,34h1v1h-1z M96,34h1v1h-1z M97,34h1v1h-1z M98,34h1v1h-1z M99,34h1v1h-1z M101,34h1v1h-1z M102,34h1v1h-1z M104,34h1v1h-1z M105,34h1v1h-1z M106,34h1v1h-1z M108,34h1v1h-1z M4,35h1v1h-1z M5,35h1v1h-1z M6,35h1v1h-1z M7,35h1v1h-1z M9,35h1v1h-1z M13,35h1v1h-1z M14,35h1v1h-1z M15,35h1v1h-1z M16,35h1v1h-1z M17,35h1v1h-1z M21,35h1v1h-1z M22,35h1v1h-1z M23,35h1v1h-1z M24,35h1v1h-1z M27,35h1v1h-1z M30,35h1v1h-1z M35,35h1v1h-1z M36,35h1v1h-1z M38,35h1v1h-1z M39,35h1v1h-1z M40,35h1v1h-1z M43,35h1v1h-1z M45,35h1v1h-1z M48,35h1v1h-1z M50,35h1v1h-1z M51,35h1v1h-1z M54,35h1v1h-1z M56,35h1v1h-1z M58,35h1v1h-1z M60,35h1v1h-1z M64,35h1v1h-1z M65,35h1v1h-1z M66,35h1v1h-1z M71,35h1v1h-1z M72,35h1v1h-1z M73,35h1v1h-1z M75,35h1v1h-1z M76,35h1v1h-1z M78,35h1v1h-1z M79,35h1v1h-1z M81,35h1v1h-1z M84,35h1v1h-1z M87,35h1v1h-1z M88,35h1v1h-1z M89,35h1v1h-1z M93,35h1v1h-1z M96,35h1v1h-1z M97,35h1v1h-1z M98,35h1v1h-1z M101,35h1v1h-1z M102,35h1v1h-1z M103,35h1v1h-1z M105,35h1v1h-1z M106,35h1v1h-1z M107,35h1v1h-1z M4,36h1v1h-1z M7,36h1v1h-1z M10,36h1v1h-1z M12,36h1v1h-1z M13,36h1v1h-1z M16,36h1v1h-1z M17,36h1v1h-1z M18,36h1v1h-1z M24,36h1v1h-1z M28,36h1v1h-1z M32,36h1v1h-1z M33,36h1v1h-1z M36,36h1v1h-1z M38,36h1v1h-1z M40,36h1v1h-1z M41,36h1v1h-1z M45,36h1v1h-1z M46,36h1v1h-1z M52,36h1v1h-1z M53,36h1v1h-1z M56,36h1v1h-1z M63,36h1v1h-1z M64,36h1v1h-1z M65,36h1v1h-1z M66,36h1v1h-1z M68,36h1v1h-1z M69,36h1v1h-1z M70,36h1v1h-1z M76,36h1v1h-1z M77,36h1v1h-1z M78,36h1v1h-1z M80,36h1v1h-1z M82,36h1v1h-1z M83,36h1v1h-1z M86,36h1v1h-1z M87,36h1v1h-1z M89,36h1v1h-1z M92,36h1v1h-1z M100,36h1v1h-1z M101,36h1v1h-1z M103,36h1v1h-1z M104,36h1v1h-1z M106,36h1v1h-1z M107,36h1v1h-1z M108,36h1v1h-1z M8,37h1v1h-1z M9,37h1v1h-1z M11,37h1v1h-1z M12,37h1v1h-1z M13,37h1v1h-1z M14,37h1v1h-1z M16,37h1v1h-1z M17,37h1v1h-1z M18,37h1v1h-1z M24,37h1v1h-1z M27,37h1v1h-1z M28,37h1v1h-1z M30,37h1v1h-1z M32,37h1v1h-1z M36,37h1v1h-1z M38,37h1v1h-1z M39,37h1v1h-1z M40,37h1v1h-1z M42,37h1v1h-1z M43,37h1v1h-1z M44,37h1v1h-1z M45,37h1v1h-1z M48,37h1v1h-1z M49,37h1v1h-1z M51,37h1v1h-1z M53,37h1v1h-1z M54,37h1v1h-1z M57,37h1v1h-1z M58,37h1v1h-1z M59,37h1v1h-1z M64,37h1v1h-1z M68,37h1v1h-1z M70,37h1v1h-1z M72,37h1v1h-1z M73,37h1v1h-1z M74,37h1v1h-1z M75,37h1v1h-1z M76,37h1v1h-1z M77,37h1v1h-1z M78,37h1v1h-1z M79,37h1v1h-1z M80,37h1v1h-1z M82,37h1v1h-1z M87,37h1v1h-1z M88,37h1v1h-1z M90,37h1v1h-1z M92,37h1v1h-1z M94,37h1v1h-1z M96,37h1v1h-1z M97,37h1v1h-1z M99,37h1v1h-1z M101,37h1v1h-1z M107,37h1v1h-1z M4,38h1v1h-1z M5,38h1v1h-1z M6,38h1v1h-1z M9,38h1v1h-1z M10,38h1v1h-1z M14,38h1v1h-1z M15,38h1v1h-1z M18,38h1v1h-1z M19,38h1v1h-1z M20,38h1v1h-1z M21,38h1v1h-1z M22,38h1v1h-1z M27,38h1v1h-1z M29,38h1v1h-1z M31,38h1v1h-1z M32,38h1v1h-1z M34,38h1v1h-1z M35,38h1v1h-1z M40,38h1v1h-1z M41,38h1v1h-1z M42,38h1v1h-1z M43,38h1v1h-1z M44,38h1v1h-1z M46,38h1v1h-1z M47,38h1v1h-1z M51,38h1v1h-1z M53,38h1v1h-1z M54,38h1v1h-1z M58,38h1v1h-1z M63,38h1v1h-1z M66,38h1v1h-1z M67,38h1v1h-1z M68,38h1v1h-1z M70,38h1v1h-1z M72,38h1v1h-1z M75,38h1v1h-1z M77,38h1v1h-1z M78,38h1v1h-1z M79,38h1v1h-1z M80,38h1v1h-1z M81,38h1v1h-1z M82,38h1v1h-1z M83,38h1v1h-1z M84,38h1v1h-1z M87,38h1v1h-1z M88,38h1v1h-1z M89,38h1v1h-1z M90,38h1v1h-1z M91,38h1v1h-1z M94,38h1v1h-1z M95,38h1v1h-1z M96,38h1v1h-1z M100,38h1v1h-1z M101,38h1v1h-1z M104,38h1v1h-1z M105,38h1v1h-1z M106,38h1v1h-1z M108,38h1v1h-1z M4,39h1v1h-1z M8,39h1v1h-1z M9,39h1v1h-1z M11,39h1v1h-1z M12,39h1v1h-1z M13,39h1v1h-1z M14,39h1v1h-1z M18,39h1v1h-1z M20,39h1v1h-1z M21,39h1v1h-1z M22,39h1v1h-1z M24,39h1v1h-1z M25,39h1v1h-1z M27,39h1v1h-1z M29,39h1v1h-1z M33,39h1v1h-1z M34,39h1v1h-1z M35,39h1v1h-1z M37,39h1v1h-1z M40,39h1v1h-1z M43,39h1v1h-1z M44,39h1v1h-1z M45,39h1v1h-1z M50,39h1v1h-1z M53,39h1v1h-1z M55,39h1v1h-1z M56,39h1v1h-1z M57,39h1v1h-1z M58,39h1v1h-1z M59,39h1v1h-1z M61,39h1v1h-1z M62,39h1v1h-1z M63,39h1v1h-1z M64,39h1v1h-1z M66,39h1v1h-1z M67,39h1v1h-1z M68,39h1v1h-1z M69,39h1v1h-1z M71,39h1v1h-1z M73,39h1v1h-1z M74,39h1v1h-1z M75,39h1v1h-1z M77,39h1v1h-1z M83,39h1v1h-1z M85,39h1v1h-1z M88,39h1v1h-1z M91,39h1v1h-1z M92,39h1v1h-1z M94,39h1v1h-1z M95,39h1v1h-1z M98,39h1v1h-1z M99,39h1v1h-1z M100,39h1v1h-1z M101,39h1v1h-1z M103,39h1v1h-1z M104,39h1v1h-1z M106,39h1v1h-1z M107,39h1v1h-1z M4,40h1v1h-1z M5,40h1v1h-1z M7,40h1v1h-1z M10,40h1v1h-1z M11,40h1v1h-1z M12,40h1v1h-1z M13,40h1v1h-1z M15,40h1v1h-1z M16,40h1v1h-1z M19,40h1v1h-1z M20,40h1v1h-1z M24,40h1v1h-1z M25,40h1v1h-1z M26,40h1v1h-1z M27,40h1v1h-1z M30,40h1v1h-1z M32,40h1v1h-1z M33,40h1v1h-1z M35,40h1v1h-1z M37,40h1v1h-1z M38,40h1v1h-1z M40,40h1v1h-1z M41,40h1v1h-1z M44,40h1v1h-1z M45,40h1v1h-1z M46,40h1v1h-1z M48,40h1v1h-1z M49,40h1v1h-1z M50,40h1v1h-1z M51,40h1v1h-1z M52,40h1v1h-1z M53,40h1v1h-1z M56,40h1v1h-1z M58,40h1v1h-1z M59,40h1v1h-1z M61,40h1v1h-1z M62,40h1v1h-1z M63,40h1v1h-1z M64,40h1v1h-1z M65,40h1v1h-1z M67,40h1v1h-1z M69,40h1v1h-1z M70,40h1v1h-1z M72,40h1v1h-1z M73,40h1v1h-1z M74,40h1v1h-1z M75,40h1v1h-1z M77,40h1v1h-1z M78,40h1v1h-1z M80,40h1v1h-1z M82,40h1v1h-1z M83,40h1v1h-1z M84,40h1v1h-1z M85,40h1v1h-1z M87,40h1v1h-1z M88,40h1v1h-1z M90,40h1v1h-1z M93,40h1v1h-1z M95,40h1v1h-1z M96,40h1v1h-1z M97,40h1v1h-1z M98,40h1v1h-1z M99,40h1v1h-1z M100,40h1v1h-1z M102,40h1v1h-1z M103,40h1v1h-1z M104,40h1v1h-1z M105,40h1v1h-1z M106,40h1v1h-1z M107,40h1v1h-1z M4,41h1v1h-1z M5,41h1v1h-1z M7,41h1v1h-1z M17,41h1v1h-1z M22,41h1v1h-1z M24,41h1v1h-1z M26,41h1v1h-1z M27,41h1v1h-1z M30,41h1v1h-1z M31,41h1v1h-1z M32,41h1v1h-1z M34,41h1v1h-1z M36,41h1v1h-1z M37,41h1v1h-1z M42,41h1v1h-1z M43,41h1v1h-1z M45,41h1v1h-1z M46,41h1v1h-1z M48,41h1v1h-1z M52,41h1v1h-1z M54,41h1v1h-1z M55,41h1v1h-1z M57,41h1v1h-1z M59,41h1v1h-1z M60,41h1v1h-1z M61,41h1v1h-1z M64,41h1v1h-1z M65,41h1v1h-1z M67,41h1v1h-1z M72,41h1v1h-1z M74,41h1v1h-1z M75,41h1v1h-1z M77,41h1v1h-1z M78,41h1v1h-1z M79,41h1v1h-1z M81,41h1v1h-1z M82,41h1v1h-1z M85,41h1v1h-1z M87,41h1v1h-1z M88,41h1v1h-1z M93,41h1v1h-1z M94,41h1v1h-1z M95,41h1v1h-1z M97,41h1v1h-1z M101,41h1v1h-1z M102,41h1v1h-1z M103,41h1v1h-1z M105,41h1v1h-1z M106,41h1v1h-1z M107,41h1v1h-1z M5,42h1v1h-1z M6,42h1v1h-1z M10,42h1v1h-1z M15,42h1v1h-1z M17,42h1v1h-1z M18,42h1v1h-1z M20,42h1v1h-1z M22,42h1v1h-1z M23,42h1v1h-1z M25,42h1v1h-1z M28,42h1v1h-1z M29,42h1v1h-1z M32,42h1v1h-1z M34,42h1v1h-1z M36,42h1v1h-1z M38,42h1v1h-1z M40,42h1v1h-1z M43,42h1v1h-1z M45,42h1v1h-1z M46,42h1v1h-1z M47,42h1v1h-1z M50,42h1v1h-1z M51,42h1v1h-1z M52,42h1v1h-1z M55,42h1v1h-1z M56,42h1v1h-1z M57,42h1v1h-1z M58,42h1v1h-1z M62,42h1v1h-1z M67,42h1v1h-1z M68,42h1v1h-1z M69,42h1v1h-1z M70,42h1v1h-1z M72,42h1v1h-1z M74,42h1v1h-1z M75,42h1v1h-1z M76,42h1v1h-1z M77,42h1v1h-1z M79,42h1v1h-1z M80,42h1v1h-1z M81,42h1v1h-1z M82,42h1v1h-1z M84,42h1v1h-1z M86,42h1v1h-1z M87,42h1v1h-1z M91,42h1v1h-1z M93,42h1v1h-1z M94,42h1v1h-1z M95,42h1v1h-1z M97,42h1v1h-1z M98,42h1v1h-1z M99,42h1v1h-1z M103,42h1v1h-1z M107,42h1v1h-1z M4,43h1v1h-1z M5,43h1v1h-1z M6,43h1v1h-1z M9,43h1v1h-1z M12,43h1v1h-1z M16,43h1v1h-1z M17,43h1v1h-1z M18,43h1v1h-1z M20,43h1v1h-1z M21,43h1v1h-1z M22,43h1v1h-1z M23,43h1v1h-1z M24,43h1v1h-1z M27,43h1v1h-1z M29,43h1v1h-1z M30,43h1v1h-1z M33,43h1v1h-1z M36,43h1v1h-1z M37,43h1v1h-1z M38,43h1v1h-1z M39,43h1v1h-1z M40,43h1v1h-1z M41,43h1v1h-1z M42,43h1v1h-1z M43,43h1v1h-1z M44,43h1v1h-1z M46,43h1v1h-1z M47,43h1v1h-1z M48,43h1v1h-1z M51,43h1v1h-1z M52,43h1v1h-1z M54,43h1v1h-1z M57,43h1v1h-1z M59,43h1v1h-1z M60,43h1v1h-1z M62,43h1v1h-1z M63,43h1v1h-1z M64,43h1v1h-1z M67,43h1v1h-1z M68,43h1v1h-1z M69,43h1v1h-1z M70,43h1v1h-1z M72,43h1v1h-1z M74,43h1v1h-1z M78,43h1v1h-1z M79,43h1v1h-1z M81,43h1v1h-1z M84,43h1v1h-1z M85,43h1v1h-1z M87,43h1v1h-1z M88,43h1v1h-1z M89,43h1v1h-1z M91,43h1v1h-1z M92,43h1v1h-1z M95,43h1v1h-1z M96,43h1v1h-1z M97,43h1v1h-1z M101,43h1v1h-1z M103,43h1v1h-1z M104,43h1v1h-1z M106,43h1v1h-1z M108,43h1v1h-1z M4,44h1v1h-1z M6,44h1v1h-1z M8,44h1v1h-1z M10,44h1v1h-1z M13,44h1v1h-1z M15,44h1v1h-1z M18,44h1v1h-1z M19,44h1v1h-1z M20,44h1v1h-1z M21,44h1v1h-1z M25,44h1v1h-1z M30,44h1v1h-1z M35,44h1v1h-1z M37,44h1v1h-1z M38,44h1v1h-1z M39,44h1v1h-1z M40,44h1v1h-1z M41,44h1v1h-1z M45,44h1v1h-1z M46,44h1v1h-1z M49,44h1v1h-1z M51,44h1v1h-1z M53,44h1v1h-1z M57,44h1v1h-1z M58,44h1v1h-1z M63,44h1v1h-1z M66,44h1v1h-1z M67,44h1v1h-1z M69,44h1v1h-1z M71,44h1v1h-1z M72,44h1v1h-1z M74,44h1v1h-1z M75,44h1v1h-1z M77,44h1v1h-1z M81,44h1v1h-1z M85,44h1v1h-1z M88,44h1v1h-1z M89,44h1v1h-1z M90,44h1v1h-1z M91,44h1v1h-1z M93,44h1v1h-1z M95,44h1v1h-1z M96,44h1v1h-1z M97,44h1v1h-1z M99,44h1v1h-1z M100,44h1v1h-1z M101,44h1v1h-1z M102,44h1v1h-1z M103,44h1v1h-1z M107,44h1v1h-1z M108,44h1v1h-1z M4,45h1v1h-1z M5,45h1v1h-1z M11,45h1v1h-1z M12,45h1v1h-1z M13,45h1v1h-1z M14,45h1v1h-1z M16,45h1v1h-1z M17,45h1v1h-1z M20,45h1v1h-1z M26,45h1v1h-1z M29,45h1v1h-1z M33,45h1v1h-1z M38,45h1v1h-1z M41,45h1v1h-1z M44,45h1v1h-1z M50,45h1v1h-1z M51,45h1v1h-1z M52,45h1v1h-1z M54,45h1v1h-1z M59,45h1v1h-1z M61,45h1v1h-1z M62,45h1v1h-1z M64,45h1v1h-1z M66,45h1v1h-1z M67,45h1v1h-1z M70,45h1v1h-1z M72,45h1v1h-1z M74,45h1v1h-1z M75,45h1v1h-1z M76,45h1v1h-1z M79,45h1v1h-1z M80,45h1v1h-1z M87,45h1v1h-1z M91,45h1v1h-1z M97,45h1v1h-1z M98,45h1v1h-1z M99,45h1v1h-1z M100,45h1v1h-1z M102,45h1v1h-1z M103,45h1v1h-1z M104,45h1v1h-1z M105,45h1v1h-1z M107,45h1v1h-1z M108,45h1v1h-1z M5,46h1v1h-1z M7,46h1v1h-1z M9,46h1v1h-1z M10,46h1v1h-1z M12,46h1v1h-1z M13,46h1v1h-1z M15,46h1v1h-1z M19,46h1v1h-1z M20,46h1v1h-1z M21,46h1v1h-1z M25,46h1v1h-1z M27,46h1v1h-1z M32,46h1v1h-1z M33,46h1v1h-1z M34,46h1v1h-1z M36,46h1v1h-1z M38,46h1v1h-1z M39,46h1v1h-1z M40,46h1v1h-1z M42,46h1v1h-1z M45,46h1v1h-1z M46,46h1v1h-1z M50,46h1v1h-1z M51,46h1v1h-1z M54,46h1v1h-1z M56,46h1v1h-1z M58,46h1v1h-1z M59,46h1v1h-1z M62,46h1v1h-1z M63,46h1v1h-1z M66,46h1v1h-1z M67,46h1v1h-1z M68,46h1v1h-1z M70,46h1v1h-1z M71,46h1v1h-1z M72,46h1v1h-1z M74,46h1v1h-1z M76,46h1v1h-1z M79,46h1v1h-1z M81,46h1v1h-1z M82,46h1v1h-1z M83,46h1v1h-1z M84,46h1v1h-1z M85,46h1v1h-1z M86,46h1v1h-1z M90,46h1v1h-1z M94,46h1v1h-1z M96,46h1v1h-1z M98,46h1v1h-1z M103,46h1v1h-1z M104,46h1v1h-1z M105,46h1v1h-1z M106,46h1v1h-1z M108,46h1v1h-1z M8,47h1v1h-1z M9,47h1v1h-1z M11,47h1v1h-1z M13,47h1v1h-1z M14,47h1v1h-1z M15,47h1v1h-1z M16,47h1v1h-1z M18,47h1v1h-1z M21,47h1v1h-1z M25,47h1v1h-1z M27,47h1v1h-1z M28,47h1v1h-1z M30,47h1v1h-1z M31,47h1v1h-1z M32,47h1v1h-1z M33,47h1v1h-1z M36,47h1v1h-1z M37,47h1v1h-1z M39,47h1v1h-1z M40,47h1v1h-1z M45,47h1v1h-1z M48,47h1v1h-1z M51,47h1v1h-1z M52,47h1v1h-1z M54,47h1v1h-1z M55,47h1v1h-1z M56,47h1v1h-1z M57,47h1v1h-1z M60,47h1v1h-1z M61,47h1v1h-1z M63,47h1v1h-1z M64,47h1v1h-1z M66,47h1v1h-1z M67,47h1v1h-1z M72,47h1v1h-1z M73,47h1v1h-1z M74,47h1v1h-1z M78,47h1v1h-1z M79,47h1v1h-1z M80,47h1v1h-1z M81,47h1v1h-1z M84,47h1v1h-1z M85,47h1v1h-1z M86,47h1v1h-1z M87,47h1v1h-1z M88,47h1v1h-1z M89,47h1v1h-1z M90,47h1v1h-1z M91,47h1v1h-1z M94,47h1v1h-1z M96,47h1v1h-1z M97,47h1v1h-1z M98,47h1v1h-1z M101,47h1v1h-1z M102,47h1v1h-1z M103,47h1v1h-1z M106,47h1v1h-1z M107,47h1v1h-1z M108,47h1v1h-1z M4,48h1v1h-1z M6,48h1v1h-1z M7,48h1v1h-1z M10,48h1v1h-1z M11,48h1v1h-1z M13,48h1v1h-1z M21,48h1v1h-1z M22,48h1v1h-1z M26,48h1v1h-1z M29,48h1v1h-1z M30,48h1v1h-1z M32,48h1v1h-1z M35,48h1v1h-1z M38,48h1v1h-1z M39,48h1v1h-1z M41,48h1v1h-1z M44,48h1v1h-1z M47,48h1v1h-1z M49,48h1v1h-1z M50,48h1v1h-1z M53,48h1v1h-1z M55,48h1v1h-1z M56,48h1v1h-1z M57,48h1v1h-1z M58,48h1v1h-1z M61,48h1v1h-1z M62,48h1v1h-1z M68,48h1v1h-1z M69,48h1v1h-1z M70,48h1v1h-1z M72,48h1v1h-1z M73,48h1v1h-1z M77,48h1v1h-1z M80,48h1v1h-1z M81,48h1v1h-1z M84,48h1v1h-1z M86,48h1v1h-1z M87,48h1v1h-1z M88,48h1v1h-1z M89,48h1v1h-1z M91,48h1v1h-1z M92,48h1v1h-1z M93,48h1v1h-1z M94,48h1v1h-1z M97,48h1v1h-1z M99,48h1v1h-1z M100,48h1v1h-1z M104,48h1v1h-1z M105,48h1v1h-1z M4,49h1v1h-1z M12,49h1v1h-1z M16,49h1v1h-1z M17,49h1v1h-1z M18,49h1v1h-1z M21,49h1v1h-1z M22,49h1v1h-1z M24,49h1v1h-1z M25,49h1v1h-1z M28,49h1v1h-1z M32,49h1v1h-1z M34,49h1v1h-1z M35,49h1v1h-1z M36,49h1v1h-1z M41,49h1v1h-1z M42,49h1v1h-1z M43,49h1v1h-1z M44,49h1v1h-1z M46,49h1v1h-1z M55,49h1v1h-1z M56,49h1v1h-1z M57,49h1v1h-1z M59,49h1v1h-1z M60,49h1v1h-1z M62,49h1v1h-1z M65,49h1v1h-1z M67,49h1v1h-1z M68,49h1v1h-1z M71,49h1v1h-1z M73,49h1v1h-1z M77,49h1v1h-1z M78,49h1v1h-1z M80,49h1v1h-1z M83,49h1v1h-1z M84,49h1v1h-1z M87,49h1v1h-1z M88,49h1v1h-1z M90,49h1v1h-1z M91,49h1v1h-1z M92,49h1v1h-1z M99,49h1v1h-1z M101,49h1v1h-1z M103,49h1v1h-1z M104,49h1v1h-1z M105,49h1v1h-1z M106,49h1v1h-1z M107,49h1v1h-1z M108,49h1v1h-1z M4,50h1v1h-1z M7,50h1v1h-1z M8,50h1v1h-1z M9,50h1v1h-1z M10,50h1v1h-1z M11,50h1v1h-1z M14,50h1v1h-1z M18,50h1v1h-1z M21,50h1v1h-1z M22,50h1v1h-1z M23,50h1v1h-1z M25,50h1v1h-1z M26,50h1v1h-1z M27,50h1v1h-1z M30,50h1v1h-1z M33,50h1v1h-1z M34,50h1v1h-1z M35,50h1v1h-1z M36,50h1v1h-1z M37,50h1v1h-1z M41,50h1v1h-1z M42,50h1v1h-1z M44,50h1v1h-1z M45,50h1v1h-1z M46,50h1v1h-1z M51,50h1v1h-1z M54,50h1v1h-1z M55,50h1v1h-1z M58,50h1v1h-1z M59,50h1v1h-1z M64,50h1v1h-1z M65,50h1v1h-1z M66,50h1v1h-1z M68,50h1v1h-1z M70,50h1v1h-1z M71,50h1v1h-1z M76,50h1v1h-1z M77,50h1v1h-1z M79,50h1v1h-1z M80,50h1v1h-1z M81,50h1v1h-1z M82,50h1v1h-1z M84,50h1v1h-1z M85,50h1v1h-1z M87,50h1v1h-1z M88,50h1v1h-1z M89,50h1v1h-1z M90,50h1v1h-1z M91,50h1v1h-1z M92,50h1v1h-1z M93,50h1v1h-1z M94,50h1v1h-1z M96,50h1v1h-1z M99,50h1v1h-1z M101,50h1v1h-1z M102,50h1v1h-1z M103,50h1v1h-1z M104,50h1v1h-1z M105,50h1v1h-1z M107,50h1v1h-1z M108,50h1v1h-1z M4,51h1v1h-1z M5,51h1v1h-1z M6,51h1v1h-1z M7,51h1v1h-1z M9,51h1v1h-1z M11,51h1v1h-1z M12,51h1v1h-1z M13,51h1v1h-1z M14,51h1v1h-1z M16,51h1v1h-1z M18,51h1v1h-1z M19,51h1v1h-1z M21,51h1v1h-1z M22,51h1v1h-1z M24,51h1v1h-1z M28,51h1v1h-1z M29,51h1v1h-1z M33,51h1v1h-1z M35,51h1v1h-1z M37,51h1v1h-1z M40,51h1v1h-1z M44,51h1v1h-1z M47,51h1v1h-1z M50,51h1v1h-1z M51,51h1v1h-1z M53,51h1v1h-1z M57,51h1v1h-1z M59,51h1v1h-1z M64,51h1v1h-1z M66,51h1v1h-1z M67,51h1v1h-1z M68,51h1v1h-1z M71,51h1v1h-1z M74,51h1v1h-1z M75,51h1v1h-1z M77,51h1v1h-1z M79,51h1v1h-1z M80,51h1v1h-1z M81,51h1v1h-1z M83,51h1v1h-1z M85,51h1v1h-1z M88,51h1v1h-1z M89,51h1v1h-1z M90,51h1v1h-1z M91,51h1v1h-1z M92,51h1v1h-1z M95,51h1v1h-1z M97,51h1v1h-1z M99,51h1v1h-1z M101,51h1v1h-1z M103,51h1v1h-1z M104,51h1v1h-1z M106,51h1v1h-1z M5,52h1v1h-1z M8,52h1v1h-1z M9,52h1v1h-1z M10,52h1v1h-1z M11,52h1v1h-1z M12,52h1v1h-1z M14,52h1v1h-1z M15,52h1v1h-1z M17,52h1v1h-1z M20,52h1v1h-1z M24,52h1v1h-1z M25,52h1v1h-1z M26,52h1v1h-1z M27,52h1v1h-1z M28,52h1v1h-1z M29,52h1v1h-1z M30,52h1v1h-1z M31,52h1v1h-1z M32,52h1v1h-1z M33,52h1v1h-1z M34,52h1v1h-1z M38,52h1v1h-1z M39,52h1v1h-1z M40,52h1v1h-1z M41,52h1v1h-1z M46,52h1v1h-1z M48,52h1v1h-1z M50,52h1v1h-1z M51,52h1v1h-1z M52,52h1v1h-1z M53,52h1v1h-1z M54,52h1v1h-1z M55,52h1v1h-1z M56,52h1v1h-1z M57,52h1v1h-1z M58,52h1v1h-1z M59,52h1v1h-1z M62,52h1v1h-1z M66,52h1v1h-1z M67,52h1v1h-1z M68,52h1v1h-1z M71,52h1v1h-1z M74,52h1v1h-1z M75,52h1v1h-1z M76,52h1v1h-1z M77,52h1v1h-1z M78,52h1v1h-1z M79,52h1v1h-1z M80,52h1v1h-1z M81,52h1v1h-1z M86,52h1v1h-1z M90,52h1v1h-1z M92,52h1v1h-1z M94,52h1v1h-1z M95,52h1v1h-1z M100,52h1v1h-1z M101,52h1v1h-1z M102,52h1v1h-1z M103,52h1v1h-1z M104,52h1v1h-1z M107,52h1v1h-1z M108,52h1v1h-1z M4,53h1v1h-1z M5,53h1v1h-1z M7,53h1v1h-1z M8,53h1v1h-1z M12,53h1v1h-1z M17,53h1v1h-1z M22,53h1v1h-1z M24,53h1v1h-1z M25,53h1v1h-1z M26,53h1v1h-1z M28,53h1v1h-1z M32,53h1v1h-1z M33,53h1v1h-1z M34,53h1v1h-1z M35,53h1v1h-1z M36,53h1v1h-1z M37,53h1v1h-1z M38,53h1v1h-1z M39,53h1v1h-1z M40,53h1v1h-1z M42,53h1v1h-1z M46,53h1v1h-1z M48,53h1v1h-1z M49,53h1v1h-1z M50,53h1v1h-1z M51,53h1v1h-1z M52,53h1v1h-1z M56,53h1v1h-1z M58,53h1v1h-1z M62,53h1v1h-1z M64,53h1v1h-1z M65,53h1v1h-1z M66,53h1v1h-1z M69,53h1v1h-1z M70,53h1v1h-1z M72,53h1v1h-1z M73,53h1v1h-1z M75,53h1v1h-1z M76,53h1v1h-1z M80,53h1v1h-1z M81,53h1v1h-1z M82,53h1v1h-1z M84,53h1v1h-1z M86,53h1v1h-1z M87,53h1v1h-1z M88,53h1v1h-1z M90,53h1v1h-1z M94,53h1v1h-1z M95,53h1v1h-1z M96,53h1v1h-1z M97,53h1v1h-1z M100,53h1v1h-1z M104,53h1v1h-1z M4,54h1v1h-1z M5,54h1v1h-1z M7,54h1v1h-1z M8,54h1v1h-1z M10,54h1v1h-1z M12,54h1v1h-1z M13,54h1v1h-1z M14,54h1v1h-1z M15,54h1v1h-1z M16,54h1v1h-1z M17,54h1v1h-1z M20,54h1v1h-1z M22,54h1v1h-1z M23,54h1v1h-1z M24,54h1v1h-1z M25,54h1v1h-1z M26,54h1v1h-1z M28,54h1v1h-1z M30,54h1v1h-1z M32,54h1v1h-1z M34,54h1v1h-1z M35,54h1v1h-1z M37,54h1v1h-1z M38,54h1v1h-1z M40,54h1v1h-1z M45,54h1v1h-1z M46,54h1v1h-1z M50,54h1v1h-1z M52,54h1v1h-1z M54,54h1v1h-1z M56,54h1v1h-1z M57,54h1v1h-1z M58,54h1v1h-1z M62,54h1v1h-1z M63,54h1v1h-1z M64,54h1v1h-1z M65,54h1v1h-1z M67,54h1v1h-1z M68,54h1v1h-1z M69,54h1v1h-1z M70,54h1v1h-1z M73,54h1v1h-1z M74,54h1v1h-1z M76,54h1v1h-1z M78,54h1v1h-1z M80,54h1v1h-1z M81,54h1v1h-1z M82,54h1v1h-1z M84,54h1v1h-1z M85,54h1v1h-1z M86,54h1v1h-1z M92,54h1v1h-1z M93,54h1v1h-1z M94,54h1v1h-1z M95,54h1v1h-1z M97,54h1v1h-1z M98,54h1v1h-1z M99,54h1v1h-1z M100,54h1v1h-1z M102,54h1v1h-1z M104,54h1v1h-1z M105,54h1v1h-1z M4,55h1v1h-1z M5,55h1v1h-1z M8,55h1v1h-1z M12,55h1v1h-1z M14,55h1v1h-1z M15,55h1v1h-1z M16,55h1v1h-1z M17,55h1v1h-1z M18,55h1v1h-1z M19,55h1v1h-1z M23,55h1v1h-1z M28,55h1v1h-1z M32,55h1v1h-1z M33,55h1v1h-1z M35,55h1v1h-1z M36,55h1v1h-1z M37,55h1v1h-1z M39,55h1v1h-1z M40,55h1v1h-1z M41,55h1v1h-1z M44,55h1v1h-1z M47,55h1v1h-1z M48,55h1v1h-1z M50,55h1v1h-1z M52,55h1v1h-1z M56,55h1v1h-1z M57,55h1v1h-1z M58,55h1v1h-1z M59,55h1v1h-1z M60,55h1v1h-1z M63,55h1v1h-1z M64,55h1v1h-1z M65,55h1v1h-1z M67,55h1v1h-1z M68,55h1v1h-1z M69,55h1v1h-1z M71,55h1v1h-1z M72,55h1v1h-1z M73,55h1v1h-1z M76,55h1v1h-1z M80,55h1v1h-1z M83,55h1v1h-1z M84,55h1v1h-1z M85,55h1v1h-1z M87,55h1v1h-1z M88,55h1v1h-1z M89,55h1v1h-1z M90,55h1v1h-1z M91,55h1v1h-1z M92,55h1v1h-1z M94,55h1v1h-1z M95,55h1v1h-1z M96,55h1v1h-1z M97,55h1v1h-1z M99,55h1v1h-1z M100,55h1v1h-1z M104,55h1v1h-1z M105,55h1v1h-1z M106,55h1v1h-1z M6,56h1v1h-1z M8,56h1v1h-1z M9,56h1v1h-1z M10,56h1v1h-1z M11,56h1v1h-1z M12,56h1v1h-1z M13,56h1v1h-1z M15,56h1v1h-1z M17,56h1v1h-1z M18,56h1v1h-1z M19,56h1v1h-1z M21,56h1v1h-1z M22,56h1v1h-1z M23,56h1v1h-1z M24,56h1v1h-1z M25,56h1v1h-1z M26,56h1v1h-1z M28,56h1v1h-1z M29,56h1v1h-1z M30,56h1v1h-1z M31,56h1v1h-1z M32,56h1v1h-1z M33,56h1v1h-1z M35,56h1v1h-1z M36,56h1v1h-1z M38,56h1v1h-1z M47,56h1v1h-1z M48,56h1v1h-1z M49,56h1v1h-1z M51,56h1v1h-1z M52,56h1v1h-1z M53,56h1v1h-1z M54,56h1v1h-1z M55,56h1v1h-1z M56,56h1v1h-1z M58,56h1v1h-1z M62,56h1v1h-1z M64,56h1v1h-1z M65,56h1v1h-1z M68,56h1v1h-1z M69,56h1v1h-1z M70,56h1v1h-1z M73,56h1v1h-1z M74,56h1v1h-1z M76,56h1v1h-1z M77,56h1v1h-1z M78,56h1v1h-1z M79,56h1v1h-1z M80,56h1v1h-1z M82,56h1v1h-1z M84,56h1v1h-1z M87,56h1v1h-1z M89,56h1v1h-1z M90,56h1v1h-1z M91,56h1v1h-1z M92,56h1v1h-1z M93,56h1v1h-1z M96,56h1v1h-1z M99,56h1v1h-1z M100,56h1v1h-1z M101,56h1v1h-1z M102,56h1v1h-1z M103,56h1v1h-1z M104,56h1v1h-1z M105,56h1v1h-1z M106,56h1v1h-1z M108,56h1v1h-1z M6,57h1v1h-1z M8,57h1v1h-1z M9,57h1v1h-1z M11,57h1v1h-1z M14,57h1v1h-1z M16,57h1v1h-1z M17,57h1v1h-1z M18,57h1v1h-1z M24,57h1v1h-1z M26,57h1v1h-1z M28,57h1v1h-1z M30,57h1v1h-1z M31,57h1v1h-1z M32,57h1v1h-1z M34,57h1v1h-1z M35,57h1v1h-1z M38,57h1v1h-1z M39,57h1v1h-1z M40,57h1v1h-1z M41,57h1v1h-1z M42,57h1v1h-1z M44,57h1v1h-1z M46,57h1v1h-1z M47,57h1v1h-1z M48,57h1v1h-1z M50,57h1v1h-1z M51,57h1v1h-1z M54,57h1v1h-1z M56,57h1v1h-1z M58,57h1v1h-1z M64,57h1v1h-1z M65,57h1v1h-1z M66,57h1v1h-1z M67,57h1v1h-1z M68,57h1v1h-1z M69,57h1v1h-1z M71,57h1v1h-1z M72,57h1v1h-1z M73,57h1v1h-1z M74,57h1v1h-1z M76,57h1v1h-1z M77,57h1v1h-1z M78,57h1v1h-1z M79,57h1v1h-1z M80,57h1v1h-1z M82,57h1v1h-1z M84,57h1v1h-1z M88,57h1v1h-1z M89,57h1v1h-1z M90,57h1v1h-1z M91,57h1v1h-1z M92,57h1v1h-1z M93,57h1v1h-1z M94,57h1v1h-1z M95,57h1v1h-1z M98,57h1v1h-1z M100,57h1v1h-1z M101,57h1v1h-1z M103,57h1v1h-1z M104,57h1v1h-1z M105,57h1v1h-1z M106,57h1v1h-1z M107,57h1v1h-1z M7,58h1v1h-1z M9,58h1v1h-1z M10,58h1v1h-1z M13,58h1v1h-1z M15,58h1v1h-1z M16,58h1v1h-1z M17,58h1v1h-1z M19,58h1v1h-1z M22,58h1v1h-1z M23,58h1v1h-1z M24,58h1v1h-1z M25,58h1v1h-1z M26,58h1v1h-1z M28,58h1v1h-1z M29,58h1v1h-1z M34,58h1v1h-1z M35,58h1v1h-1z M36,58h1v1h-1z M37,58h1v1h-1z M38,58h1v1h-1z M39,58h1v1h-1z M40,58h1v1h-1z M42,58h1v1h-1z M46,58h1v1h-1z M50,58h1v1h-1z M52,58h1v1h-1z M54,58h1v1h-1z M55,58h1v1h-1z M58,58h1v1h-1z M59,58h1v1h-1z M62,58h1v1h-1z M64,58h1v1h-1z M65,58h1v1h-1z M66,58h1v1h-1z M67,58h1v1h-1z M69,58h1v1h-1z M70,58h1v1h-1z M71,58h1v1h-1z M72,58h1v1h-1z M74,58h1v1h-1z M76,58h1v1h-1z M77,58h1v1h-1z M78,58h1v1h-1z M79,58h1v1h-1z M80,58h1v1h-1z M81,58h1v1h-1z M82,58h1v1h-1z M83,58h1v1h-1z M86,58h1v1h-1z M90,58h1v1h-1z M91,58h1v1h-1z M92,58h1v1h-1z M94,58h1v1h-1z M98,58h1v1h-1z M100,58h1v1h-1z M102,58h1v1h-1z M103,58h1v1h-1z M105,58h1v1h-1z M108,58h1v1h-1z M5,59h1v1h-1z M14,59h1v1h-1z M16,59h1v1h-1z M17,59h1v1h-1z M18,59h1v1h-1z M19,59h1v1h-1z M20,59h1v1h-1z M21,59h1v1h-1z M23,59h1v1h-1z M25,59h1v1h-1z M26,59h1v1h-1z M27,59h1v1h-1z M28,59h1v1h-1z M30,59h1v1h-1z M32,59h1v1h-1z M33,59h1v1h-1z M36,59h1v1h-1z M37,59h1v1h-1z M38,59h1v1h-1z M39,59h1v1h-1z M40,59h1v1h-1z M42,59h1v1h-1z M43,59h1v1h-1z M48,59h1v1h-1z M50,59h1v1h-1z M51,59h1v1h-1z M53,59h1v1h-1z M54,59h1v1h-1z M56,59h1v1h-1z M60,59h1v1h-1z M63,59h1v1h-1z M64,59h1v1h-1z M67,59h1v1h-1z M72,59h1v1h-1z M75,59h1v1h-1z M76,59h1v1h-1z M77,59h1v1h-1z M78,59h1v1h-1z M80,59h1v1h-1z M81,59h1v1h-1z M84,59h1v1h-1z M86,59h1v1h-1z M88,59h1v1h-1z M90,59h1v1h-1z M91,59h1v1h-1z M96,59h1v1h-1z M98,59h1v1h-1z M99,59h1v1h-1z M100,59h1v1h-1z M102,59h1v1h-1z M103,59h1v1h-1z M105,59h1v1h-1z M106,59h1v1h-1z M107,59h1v1h-1z M108,59h1v1h-1z M4,60h1v1h-1z M5,60h1v1h-1z M7,60h1v1h-1z M10,60h1v1h-1z M16,60h1v1h-1z M19,60h1v1h-1z M21,60h1v1h-1z M22,60h1v1h-1z M25,60h1v1h-1z M31,60h1v1h-1z M32,60h1v1h-1z M33,60h1v1h-1z M38,60h1v1h-1z M39,60h1v1h-1z M43,60h1v1h-1z M47,60h1v1h-1z M48,60h1v1h-1z M50,60h1v1h-1z M55,60h1v1h-1z M56,60h1v1h-1z M62,60h1v1h-1z M67,60h1v1h-1z M68,60h1v1h-1z M70,60h1v1h-1z M72,60h1v1h-1z M74,60h1v1h-1z M76,60h1v1h-1z M77,60h1v1h-1z M79,60h1v1h-1z M80,60h1v1h-1z M81,60h1v1h-1z M82,60h1v1h-1z M83,60h1v1h-1z M85,60h1v1h-1z M87,60h1v1h-1z M88,60h1v1h-1z M89,60h1v1h-1z M91,60h1v1h-1z M94,60h1v1h-1z M95,60h1v1h-1z M97,60h1v1h-1z M98,60h1v1h-1z M100,60h1v1h-1z M104,60h1v1h-1z M4,61h1v1h-1z M5,61h1v1h-1z M7,61h1v1h-1z M9,61h1v1h-1z M11,61h1v1h-1z M14,61h1v1h-1z M15,61h1v1h-1z M17,61h1v1h-1z M18,61h1v1h-1z M19,61h1v1h-1z M22,61h1v1h-1z M24,61h1v1h-1z M25,61h1v1h-1z M26,61h1v1h-1z M27,61h1v1h-1z M31,61h1v1h-1z M32,61h1v1h-1z M33,61h1v1h-1z M35,61h1v1h-1z M40,61h1v1h-1z M41,61h1v1h-1z M42,61h1v1h-1z M45,61h1v1h-1z M46,61h1v1h-1z M47,61h1v1h-1z M49,61h1v1h-1z M50,61h1v1h-1z M52,61h1v1h-1z M53,61h1v1h-1z M54,61h1v1h-1z M55,61h1v1h-1z M56,61h1v1h-1z M57,61h1v1h-1z M58,61h1v1h-1z M61,61h1v1h-1z M64,61h1v1h-1z M65,61h1v1h-1z M66,61h1v1h-1z M68,61h1v1h-1z M70,61h1v1h-1z M71,61h1v1h-1z M72,61h1v1h-1z M73,61h1v1h-1z M76,61h1v1h-1z M77,61h1v1h-1z M79,61h1v1h-1z M80,61h1v1h-1z M82,61h1v1h-1z M83,61h1v1h-1z M84,61h1v1h-1z M86,61h1v1h-1z M89,61h1v1h-1z M90,61h1v1h-1z M93,61h1v1h-1z M94,61h1v1h-1z M96,61h1v1h-1z M99,61h1v1h-1z M100,61h1v1h-1z M102,61h1v1h-1z M103,61h1v1h-1z M107,61h1v1h-1z M108,61h1v1h-1z M4,62h1v1h-1z M8,62h1v1h-1z M10,62h1v1h-1z M11,62h1v1h-1z M14,62h1v1h-1z M16,62h1v1h-1z M18,62h1v1h-1z M19,62h1v1h-1z M20,62h1v1h-1z M21,62h1v1h-1z M23,62h1v1h-1z M24,62h1v1h-1z M26,62h1v1h-1z M27,62h1v1h-1z M28,62h1v1h-1z M31,62h1v1h-1z M32,62h1v1h-1z M34,62h1v1h-1z M36,62h1v1h-1z M40,62h1v1h-1z M41,62h1v1h-1z M42,62h1v1h-1z M43,62h1v1h-1z M44,62h1v1h-1z M46,62h1v1h-1z M48,62h1v1h-1z M49,62h1v1h-1z M52,62h1v1h-1z M53,62h1v1h-1z M54,62h1v1h-1z M58,62h1v1h-1z M59,62h1v1h-1z M60,62h1v1h-1z M63,62h1v1h-1z M64,62h1v1h-1z M65,62h1v1h-1z M66,62h1v1h-1z M67,62h1v1h-1z M68,62h1v1h-1z M70,62h1v1h-1z M76,62h1v1h-1z M79,62h1v1h-1z M80,62h1v1h-1z M82,62h1v1h-1z M87,62h1v1h-1z M88,62h1v1h-1z M89,62h1v1h-1z M90,62h1v1h-1z M91,62h1v1h-1z M94,62h1v1h-1z M100,62h1v1h-1z M101,62h1v1h-1z M104,62h1v1h-1z M105,62h1v1h-1z M107,62h1v1h-1z M108,62h1v1h-1z M4,63h1v1h-1z M5,63h1v1h-1z M6,63h1v1h-1z M8,63h1v1h-1z M9,63h1v1h-1z M12,63h1v1h-1z M13,63h1v1h-1z M15,63h1v1h-1z M16,63h1v1h-1z M17,63h1v1h-1z M18,63h1v1h-1z M20,63h1v1h-1z M23,63h1v1h-1z M25,63h1v1h-1z M30,63h1v1h-1z M31,63h1v1h-1z M32,63h1v1h-1z M33,63h1v1h-1z M35,63h1v1h-1z M38,63h1v1h-1z M40,63h1v1h-1z M43,63h1v1h-1z M44,63h1v1h-1z M46,63h1v1h-1z M47,63h1v1h-1z M49,63h1v1h-1z M52,63h1v1h-1z M54,63h1v1h-1z M57,63h1v1h-1z M59,63h1v1h-1z M61,63h1v1h-1z M62,63h1v1h-1z M64,63h1v1h-1z M66,63h1v1h-1z M68,63h1v1h-1z M69,63h1v1h-1z M71,63h1v1h-1z M74,63h1v1h-1z M75,63h1v1h-1z M76,63h1v1h-1z M78,63h1v1h-1z M81,63h1v1h-1z M83,63h1v1h-1z M85,63h1v1h-1z M88,63h1v1h-1z M89,63h1v1h-1z M90,63h1v1h-1z M91,63h1v1h-1z M92,63h1v1h-1z M93,63h1v1h-1z M94,63h1v1h-1z M95,63h1v1h-1z M97,63h1v1h-1z M99,63h1v1h-1z M100,63h1v1h-1z M102,63h1v1h-1z M106,63h1v1h-1z M108,63h1v1h-1z M5,64h1v1h-1z M7,64h1v1h-1z M10,64h1v1h-1z M11,64h1v1h-1z M12,64h1v1h-1z M17,64h1v1h-1z M18,64h1v1h-1z M27,64h1v1h-1z M30,64h1v1h-1z M31,64h1v1h-1z M34,64h1v1h-1z M39,64h1v1h-1z M42,64h1v1h-1z M44,64h1v1h-1z M45,64h1v1h-1z M46,64h1v1h-1z M50,64h1v1h-1z M51,64h1v1h-1z M52,64h1v1h-1z M54,64h1v1h-1z M55,64h1v1h-1z M57,64h1v1h-1z M58,64h1v1h-1z M59,64h1v1h-1z M60,64h1v1h-1z M61,64h1v1h-1z M63,64h1v1h-1z M69,64h1v1h-1z M73,64h1v1h-1z M74,64h1v1h-1z M76,64h1v1h-1z M78,64h1v1h-1z M79,64h1v1h-1z M80,64h1v1h-1z M83,64h1v1h-1z M86,64h1v1h-1z M87,64h1v1h-1z M88,64h1v1h-1z M90,64h1v1h-1z M91,64h1v1h-1z M93,64h1v1h-1z M95,64h1v1h-1z M99,64h1v1h-1z M100,64h1v1h-1z M102,64h1v1h-1z M104,64h1v1h-1z M105,64h1v1h-1z M107,64h1v1h-1z M108,64h1v1h-1z M4,65h1v1h-1z M5,65h1v1h-1z M6,65h1v1h-1z M7,65h1v1h-1z M11,65h1v1h-1z M13,65h1v1h-1z M17,65h1v1h-1z M20,65h1v1h-1z M23,65h1v1h-1z M24,65h1v1h-1z M25,65h1v1h-1z M26,65h1v1h-1z M28,65h1v1h-1z M29,65h1v1h-1z M31,65h1v1h-1z M33,65h1v1h-1z M36,65h1v1h-1z M40,65h1v1h-1z M43,65h1v1h-1z M44,65h1v1h-1z M45,65h1v1h-1z M48,65h1v1h-1z M50,65h1v1h-1z M53,65h1v1h-1z M55,65h1v1h-1z M57,65h1v1h-1z M59,65h1v1h-1z M61,65h1v1h-1z M63,65h1v1h-1z M64,65h1v1h-1z M66,65h1v1h-1z M70,65h1v1h-1z M71,65h1v1h-1z M72,65h1v1h-1z M73,65h1v1h-1z M78,65h1v1h-1z M79,65h1v1h-1z M83,65h1v1h-1z M84,65h1v1h-1z M86,65h1v1h-1z M90,65h1v1h-1z M92,65h1v1h-1z M93,65h1v1h-1z M95,65h1v1h-1z M96,65h1v1h-1z M99,65h1v1h-1z M100,65h1v1h-1z M102,65h1v1h-1z M106,65h1v1h-1z M4,66h1v1h-1z M9,66h1v1h-1z M10,66h1v1h-1z M11,66h1v1h-1z M12,66h1v1h-1z M13,66h1v1h-1z M14,66h1v1h-1z M17,66h1v1h-1z M19,66h1v1h-1z M20,66h1v1h-1z M22,66h1v1h-1z M25,66h1v1h-1z M27,66h1v1h-1z M28,66h1v1h-1z M30,66h1v1h-1z M31,66h1v1h-1z M32,66h1v1h-1z M33,66h1v1h-1z M34,66h1v1h-1z M35,66h1v1h-1z M36,66h1v1h-1z M38,66h1v1h-1z M40,66h1v1h-1z M43,66h1v1h-1z M44,66h1v1h-1z M45,66h1v1h-1z M46,66h1v1h-1z M48,66h1v1h-1z M49,66h1v1h-1z M50,66h1v1h-1z M51,66h1v1h-1z M52,66h1v1h-1z M54,66h1v1h-1z M56,66h1v1h-1z M57,66h1v1h-1z M58,66h1v1h-1z M60,66h1v1h-1z M61,66h1v1h-1z M62,66h1v1h-1z M64,66h1v1h-1z M69,66h1v1h-1z M70,66h1v1h-1z M72,66h1v1h-1z M74,66h1v1h-1z M75,66h1v1h-1z M76,66h1v1h-1z M78,66h1v1h-1z M81,66h1v1h-1z M82,66h1v1h-1z M83,66h1v1h-1z M84,66h1v1h-1z M86,66h1v1h-1z M93,66h1v1h-1z M94,66h1v1h-1z M96,66h1v1h-1z M98,66h1v1h-1z M100,66h1v1h-1z M101,66h1v1h-1z M102,66h1v1h-1z M104,66h1v1h-1z M106,66h1v1h-1z M107,66h1v1h-1z M4,67h1v1h-1z M6,67h1v1h-1z M7,67h1v1h-1z M8,67h1v1h-1z M9,67h1v1h-1z M11,67h1v1h-1z M13,67h1v1h-1z M16,67h1v1h-1z M19,67h1v1h-1z M20,67h1v1h-1z M26,67h1v1h-1z M27,67h1v1h-1z M28,67h1v1h-1z M29,67h1v1h-1z M34,67h1v1h-1z M35,67h1v1h-1z M36,67h1v1h-1z M38,67h1v1h-1z M39,67h1v1h-1z M40,67h1v1h-1z M41,67h1v1h-1z M42,67h1v1h-1z M43,67h1v1h-1z M44,67h1v1h-1z M45,67h1v1h-1z M48,67h1v1h-1z M49,67h1v1h-1z M52,67h1v1h-1z M53,67h1v1h-1z M54,67h1v1h-1z M55,67h1v1h-1z M56,67h1v1h-1z M60,67h1v1h-1z M61,67h1v1h-1z M63,67h1v1h-1z M64,67h1v1h-1z M66,67h1v1h-1z M67,67h1v1h-1z M68,67h1v1h-1z M71,67h1v1h-1z M72,67h1v1h-1z M73,67h1v1h-1z M76,67h1v1h-1z M77,67h1v1h-1z M80,67h1v1h-1z M81,67h1v1h-1z M83,67h1v1h-1z M84,67h1v1h-1z M87,67h1v1h-1z M88,67h1v1h-1z M91,67h1v1h-1z M92,67h1v1h-1z M93,67h1v1h-1z M94,67h1v1h-1z M96,67h1v1h-1z M99,67h1v1h-1z M102,67h1v1h-1z M103,67h1v1h-1z M104,67h1v1h-1z M105,67h1v1h-1z M106,67h1v1h-1z M4,68h1v1h-1z M5,68h1v1h-1z M6,68h1v1h-1z M7,68h1v1h-1z M8,68h1v1h-1z M9,68h1v1h-1z M10,68h1v1h-1z M11,68h1v1h-1z M13,68h1v1h-1z M15,68h1v1h-1z M18,68h1v1h-1z M19,68h1v1h-1z M20,68h1v1h-1z M21,68h1v1h-1z M22,68h1v1h-1z M23,68h1v1h-1z M24,68h1v1h-1z M27,68h1v1h-1z M28,68h1v1h-1z M29,68h1v1h-1z M30,68h1v1h-1z M33,68h1v1h-1z M35,68h1v1h-1z M37,68h1v1h-1z M39,68h1v1h-1z M42,68h1v1h-1z M44,68h1v1h-1z M46,68h1v1h-1z M50,68h1v1h-1z M52,68h1v1h-1z M53,68h1v1h-1z M54,68h1v1h-1z M55,68h1v1h-1z M59,68h1v1h-1z M62,68h1v1h-1z M64,68h1v1h-1z M66,68h1v1h-1z M70,68h1v1h-1z M71,68h1v1h-1z M75,68h1v1h-1z M77,68h1v1h-1z M78,68h1v1h-1z M79,68h1v1h-1z M80,68h1v1h-1z M81,68h1v1h-1z M82,68h1v1h-1z M84,68h1v1h-1z M86,68h1v1h-1z M89,68h1v1h-1z M91,68h1v1h-1z M92,68h1v1h-1z M94,68h1v1h-1z M99,68h1v1h-1z M100,68h1v1h-1z M102,68h1v1h-1z M4,69h1v1h-1z M5,69h1v1h-1z M6,69h1v1h-1z M8,69h1v1h-1z M11,69h1v1h-1z M13,69h1v1h-1z M16,69h1v1h-1z M17,69h1v1h-1z M18,69h1v1h-1z M19,69h1v1h-1z M23,69h1v1h-1z M26,69h1v1h-1z M27,69h1v1h-1z M31,69h1v1h-1z M32,69h1v1h-1z M33,69h1v1h-1z M40,69h1v1h-1z M41,69h1v1h-1z M42,69h1v1h-1z M49,69h1v1h-1z M55,69h1v1h-1z M56,69h1v1h-1z M59,69h1v1h-1z M61,69h1v1h-1z M62,69h1v1h-1z M63,69h1v1h-1z M65,69h1v1h-1z M66,69h1v1h-1z M70,69h1v1h-1z M73,69h1v1h-1z M75,69h1v1h-1z M76,69h1v1h-1z M77,69h1v1h-1z M79,69h1v1h-1z M80,69h1v1h-1z M82,69h1v1h-1z M83,69h1v1h-1z M85,69h1v1h-1z M88,69h1v1h-1z M89,69h1v1h-1z M90,69h1v1h-1z M93,69h1v1h-1z M97,69h1v1h-1z M100,69h1v1h-1z M101,69h1v1h-1z M104,69h1v1h-1z M108,69h1v1h-1z M4,70h1v1h-1z M8,70h1v1h-1z M10,70h1v1h-1z M12,70h1v1h-1z M13,70h1v1h-1z M17,70h1v1h-1z M19,70h1v1h-1z M20,70h1v1h-1z M23,70h1v1h-1z M24,70h1v1h-1z M28,70h1v1h-1z M29,70h1v1h-1z M30,70h1v1h-1z M34,70h1v1h-1z M35,70h1v1h-1z M36,70h1v1h-1z M38,70h1v1h-1z M41,70h1v1h-1z M42,70h1v1h-1z M46,70h1v1h-1z M48,70h1v1h-1z M50,70h1v1h-1z M51,70h1v1h-1z M52,70h1v1h-1z M54,70h1v1h-1z M58,70h1v1h-1z M59,70h1v1h-1z M60,70h1v1h-1z M62,70h1v1h-1z M64,70h1v1h-1z M66,70h1v1h-1z M67,70h1v1h-1z M70,70h1v1h-1z M71,70h1v1h-1z M72,70h1v1h-1z M74,70h1v1h-1z M76,70h1v1h-1z M78,70h1v1h-1z M80,70h1v1h-1z M82,70h1v1h-1z M86,70h1v1h-1z M87,70h1v1h-1z M88,70h1v1h-1z M90,70h1v1h-1z M91,70h1v1h-1z M92,70h1v1h-1z M94,70h1v1h-1z M95,70h1v1h-1z M96,70h1v1h-1z M98,70h1v1h-1z M103,70h1v1h-1z M4,71h1v1h-1z M5,71h1v1h-1z M6,71h1v1h-1z M8,71h1v1h-1z M9,71h1v1h-1z M11,71h1v1h-1z M12,71h1v1h-1z M14,71h1v1h-1z M15,71h1v1h-1z M18,71h1v1h-1z M21,71h1v1h-1z M23,71h1v1h-1z M25,71h1v1h-1z M29,71h1v1h-1z M31,71h1v1h-1z M32,71h1v1h-1z M36,71h1v1h-1z M37,71h1v1h-1z M38,71h1v1h-1z M40,71h1v1h-1z M43,71h1v1h-1z M46,71h1v1h-1z M48,71h1v1h-1z M49,71h1v1h-1z M50,71h1v1h-1z M51,71h1v1h-1z M52,71h1v1h-1z M56,71h1v1h-1z M57,71h1v1h-1z M60,71h1v1h-1z M62,71h1v1h-1z M63,71h1v1h-1z M64,71h1v1h-1z M67,71h1v1h-1z M72,71h1v1h-1z M73,71h1v1h-1z M75,71h1v1h-1z M77,71h1v1h-1z M80,71h1v1h-1z M81,71h1v1h-1z M84,71h1v1h-1z M85,71h1v1h-1z M86,71h1v1h-1z M87,71h1v1h-1z M88,71h1v1h-1z M91,71h1v1h-1z M96,71h1v1h-1z M99,71h1v1h-1z M100,71h1v1h-1z M102,71h1v1h-1z M103,71h1v1h-1z M104,71h1v1h-1z M105,71h1v1h-1z M106,71h1v1h-1z M4,72h1v1h-1z M5,72h1v1h-1z M7,72h1v1h-1z M8,72h1v1h-1z M9,72h1v1h-1z M10,72h1v1h-1z M11,72h1v1h-1z M14,72h1v1h-1z M15,72h1v1h-1z M18,72h1v1h-1z M19,72h1v1h-1z M20,72h1v1h-1z M22,72h1v1h-1z M23,72h1v1h-1z M24,72h1v1h-1z M27,72h1v1h-1z M32,72h1v1h-1z M33,72h1v1h-1z M35,72h1v1h-1z M38,72h1v1h-1z M40,72h1v1h-1z M41,72h1v1h-1z M47,72h1v1h-1z M50,72h1v1h-1z M59,72h1v1h-1z M62,72h1v1h-1z M66,72h1v1h-1z M69,72h1v1h-1z M70,72h1v1h-1z M71,72h1v1h-1z M74,72h1v1h-1z M77,72h1v1h-1z M81,72h1v1h-1z M82,72h1v1h-1z M84,72h1v1h-1z M85,72h1v1h-1z M87,72h1v1h-1z M92,72h1v1h-1z M93,72h1v1h-1z M94,72h1v1h-1z M96,72h1v1h-1z M97,72h1v1h-1z M98,72h1v1h-1z M99,72h1v1h-1z M104,72h1v1h-1z M106,72h1v1h-1z M107,72h1v1h-1z M6,73h1v1h-1z M9,73h1v1h-1z M11,73h1v1h-1z M12,73h1v1h-1z M13,73h1v1h-1z M14,73h1v1h-1z M16,73h1v1h-1z M17,73h1v1h-1z M22,73h1v1h-1z M24,73h1v1h-1z M25,73h1v1h-1z M27,73h1v1h-1z M29,73h1v1h-1z M30,73h1v1h-1z M31,73h1v1h-1z M32,73h1v1h-1z M33,73h1v1h-1z M34,73h1v1h-1z M40,73h1v1h-1z M43,73h1v1h-1z M44,73h1v1h-1z M51,73h1v1h-1z M53,73h1v1h-1z M54,73h1v1h-1z M55,73h1v1h-1z M56,73h1v1h-1z M57,73h1v1h-1z M58,73h1v1h-1z M59,73h1v1h-1z M60,73h1v1h-1z M61,73h1v1h-1z M62,73h1v1h-1z M63,73h1v1h-1z M64,73h1v1h-1z M65,73h1v1h-1z M69,73h1v1h-1z M73,73h1v1h-1z M75,73h1v1h-1z M77,73h1v1h-1z M79,73h1v1h-1z M80,73h1v1h-1z M82,73h1v1h-1z M83,73h1v1h-1z M84,73h1v1h-1z M86,73h1v1h-1z M87,73h1v1h-1z M89,73h1v1h-1z M90,73h1v1h-1z M91,73h1v1h-1z M92,73h1v1h-1z M93,73h1v1h-1z M94,73h1v1h-1z M95,73h1v1h-1z M100,73h1v1h-1z M101,73h1v1h-1z M102,73h1v1h-1z M103,73h1v1h-1z M104,73h1v1h-1z M105,73h1v1h-1z M106,73h1v1h-1z M108,73h1v1h-1z M4,74h1v1h-1z M5,74h1v1h-1z M6,74h1v1h-1z M7,74h1v1h-1z M8,74h1v1h-1z M9,74h1v1h-1z M10,74h1v1h-1z M12,74h1v1h-1z M15,74h1v1h-1z M16,74h1v1h-1z M17,74h1v1h-1z M18,74h1v1h-1z M19,74h1v1h-1z M20,74h1v1h-1z M21,74h1v1h-1z M23,74h1v1h-1z M24,74h1v1h-1z M27,74h1v1h-1z M28,74h1v1h-1z M29,74h1v1h-1z M30,74h1v1h-1z M32,74h1v1h-1z M34,74h1v1h-1z M35,74h1v1h-1z M36,74h1v1h-1z M39,74h1v1h-1z M40,74h1v1h-1z M41,74h1v1h-1z M42,74h1v1h-1z M44,74h1v1h-1z M46,74h1v1h-1z M47,74h1v1h-1z M48,74h1v1h-1z M51,74h1v1h-1z M52,74h1v1h-1z M58,74h1v1h-1z M65,74h1v1h-1z M66,74h1v1h-1z M67,74h1v1h-1z M68,74h1v1h-1z M70,74h1v1h-1z M71,74h1v1h-1z M72,74h1v1h-1z M76,74h1v1h-1z M78,74h1v1h-1z M81,74h1v1h-1z M82,74h1v1h-1z M88,74h1v1h-1z M89,74h1v1h-1z M90,74h1v1h-1z M91,74h1v1h-1z M94,74h1v1h-1z M95,74h1v1h-1z M99,74h1v1h-1z M100,74h1v1h-1z M107,74h1v1h-1z M108,74h1v1h-1z M5,75h1v1h-1z M6,75h1v1h-1z M14,75h1v1h-1z M16,75h1v1h-1z M18,75h1v1h-1z M19,75h1v1h-1z M21,75h1v1h-1z M22,75h1v1h-1z M23,75h1v1h-1z M24,75h1v1h-1z M26,75h1v1h-1z M27,75h1v1h-1z M28,75h1v1h-1z M30,75h1v1h-1z M33,75h1v1h-1z M34,75h1v1h-1z M35,75h1v1h-1z M37,75h1v1h-1z M38,75h1v1h-1z M40,75h1v1h-1z M43,75h1v1h-1z M44,75h1v1h-1z M45,75h1v1h-1z M46,75h1v1h-1z M47,75h1v1h-1z M50,75h1v1h-1z M51,75h1v1h-1z M54,75h1v1h-1z M56,75h1v1h-1z M57,75h1v1h-1z M59,75h1v1h-1z M62,75h1v1h-1z M64,75h1v1h-1z M65,75h1v1h-1z M66,75h1v1h-1z M67,75h1v1h-1z M68,75h1v1h-1z M71,75h1v1h-1z M73,75h1v1h-1z M75,75h1v1h-1z M77,75h1v1h-1z M78,75h1v1h-1z M83,75h1v1h-1z M86,75h1v1h-1z M88,75h1v1h-1z M89,75h1v1h-1z M91,75h1v1h-1z M92,75h1v1h-1z M93,75h1v1h-1z M95,75h1v1h-1z M97,75h1v1h-1z M100,75h1v1h-1z M104,75h1v1h-1z M105,75h1v1h-1z M106,75h1v1h-1z M7,76h1v1h-1z M8,76h1v1h-1z M9,76h1v1h-1z M10,76h1v1h-1z M11,76h1v1h-1z M12,76h1v1h-1z M13,76h1v1h-1z M14,76h1v1h-1z M16,76h1v1h-1z M18,76h1v1h-1z M22,76h1v1h-1z M23,76h1v1h-1z M24,76h1v1h-1z M28,76h1v1h-1z M29,76h1v1h-1z M30,76h1v1h-1z M31,76h1v1h-1z M32,76h1v1h-1z M33,76h1v1h-1z M37,76h1v1h-1z M38,76h1v1h-1z M39,76h1v1h-1z M40,76h1v1h-1z M41,76h1v1h-1z M42,76h1v1h-1z M44,76h1v1h-1z M45,76h1v1h-1z M46,76h1v1h-1z M47,76h1v1h-1z M49,76h1v1h-1z M52,76h1v1h-1z M53,76h1v1h-1z M54,76h1v1h-1z M55,76h1v1h-1z M56,76h1v1h-1z M57,76h1v1h-1z M58,76h1v1h-1z M59,76h1v1h-1z M65,76h1v1h-1z M66,76h1v1h-1z M69,76h1v1h-1z M70,76h1v1h-1z M72,76h1v1h-1z M73,76h1v1h-1z M74,76h1v1h-1z M75,76h1v1h-1z M76,76h1v1h-1z M77,76h1v1h-1z M78,76h1v1h-1z M79,76h1v1h-1z M80,76h1v1h-1z M82,76h1v1h-1z M84,76h1v1h-1z M86,76h1v1h-1z M88,76h1v1h-1z M90,76h1v1h-1z M92,76h1v1h-1z M93,76h1v1h-1z M94,76h1v1h-1z M95,76h1v1h-1z M96,76h1v1h-1z M97,76h1v1h-1z M100,76h1v1h-1z M101,76h1v1h-1z M102,76h1v1h-1z M103,76h1v1h-1z M104,76h1v1h-1z M105,76h1v1h-1z M108,76h1v1h-1z M4,77h1v1h-1z M6,77h1v1h-1z M8,77h1v1h-1z M12,77h1v1h-1z M14,77h1v1h-1z M15,77h1v1h-1z M17,77h1v1h-1z M18,77h1v1h-1z M19,77h1v1h-1z M21,77h1v1h-1z M24,77h1v1h-1z M26,77h1v1h-1z M28,77h1v1h-1z M32,77h1v1h-1z M34,77h1v1h-1z M36,77h1v1h-1z M38,77h1v1h-1z M39,77h1v1h-1z M40,77h1v1h-1z M44,77h1v1h-1z M47,77h1v1h-1z M49,77h1v1h-1z M50,77h1v1h-1z M51,77h1v1h-1z M52,77h1v1h-1z M56,77h1v1h-1z M57,77h1v1h-1z M59,77h1v1h-1z M61,77h1v1h-1z M62,77h1v1h-1z M63,77h1v1h-1z M70,77h1v1h-1z M71,77h1v1h-1z M72,77h1v1h-1z M74,77h1v1h-1z M75,77h1v1h-1z M76,77h1v1h-1z M80,77h1v1h-1z M81,77h1v1h-1z M84,77h1v1h-1z M85,77h1v1h-1z M86,77h1v1h-1z M90,77h1v1h-1z M95,77h1v1h-1z M96,77h1v1h-1z M100,77h1v1h-1z M104,77h1v1h-1z M106,77h1v1h-1z M107,77h1v1h-1z M8,78h1v1h-1z M10,78h1v1h-1z M12,78h1v1h-1z M17,78h1v1h-1z M19,78h1v1h-1z M20,78h1v1h-1z M23,78h1v1h-1z M24,78h1v1h-1z M25,78h1v1h-1z M28,78h1v1h-1z M30,78h1v1h-1z M32,78h1v1h-1z M33,78h1v1h-1z M34,78h1v1h-1z M36,78h1v1h-1z M38,78h1v1h-1z M43,78h1v1h-1z M44,78h1v1h-1z M45,78h1v1h-1z M46,78h1v1h-1z M47,78h1v1h-1z M48,78h1v1h-1z M50,78h1v1h-1z M51,78h1v1h-1z M52,78h1v1h-1z M54,78h1v1h-1z M56,78h1v1h-1z M57,78h1v1h-1z M58,78h1v1h-1z M61,78h1v1h-1z M62,78h1v1h-1z M63,78h1v1h-1z M65,78h1v1h-1z M67,78h1v1h-1z M69,78h1v1h-1z M70,78h1v1h-1z M72,78h1v1h-1z M74,78h1v1h-1z M76,78h1v1h-1z M78,78h1v1h-1z M80,78h1v1h-1z M82,78h1v1h-1z M83,78h1v1h-1z M86,78h1v1h-1z M89,78h1v1h-1z M91,78h1v1h-1z M93,78h1v1h-1z M94,78h1v1h-1z M96,78h1v1h-1z M98,78h1v1h-1z M99,78h1v1h-1z M100,78h1v1h-1z M102,78h1v1h-1z M104,78h1v1h-1z M105,78h1v1h-1z M106,78h1v1h-1z M5,79h1v1h-1z M6,79h1v1h-1z M8,79h1v1h-1z M12,79h1v1h-1z M16,79h1v1h-1z M17,79h1v1h-1z M18,79h1v1h-1z M19,79h1v1h-1z M21,79h1v1h-1z M22,79h1v1h-1z M25,79h1v1h-1z M27,79h1v1h-1z M28,79h1v1h-1z M32,79h1v1h-1z M34,79h1v1h-1z M36,79h1v1h-1z M39,79h1v1h-1z M40,79h1v1h-1z M43,79h1v1h-1z M44,79h1v1h-1z M47,79h1v1h-1z M48,79h1v1h-1z M50,79h1v1h-1z M52,79h1v1h-1z M56,79h1v1h-1z M59,79h1v1h-1z M60,79h1v1h-1z M61,79h1v1h-1z M64,79h1v1h-1z M65,79h1v1h-1z M67,79h1v1h-1z M68,79h1v1h-1z M69,79h1v1h-1z M71,79h1v1h-1z M72,79h1v1h-1z M74,79h1v1h-1z M76,79h1v1h-1z M80,79h1v1h-1z M81,79h1v1h-1z M83,79h1v1h-1z M84,79h1v1h-1z M85,79h1v1h-1z M87,79h1v1h-1z M88,79h1v1h-1z M89,79h1v1h-1z M91,79h1v1h-1z M92,79h1v1h-1z M93,79h1v1h-1z M94,79h1v1h-1z M95,79h1v1h-1z M96,79h1v1h-1z M100,79h1v1h-1z M104,79h1v1h-1z M106,79h1v1h-1z M107,79h1v1h-1z M5,80h1v1h-1z M6,80h1v1h-1z M7,80h1v1h-1z M8,80h1v1h-1z M9,80h1v1h-1z M10,80h1v1h-1z M11,80h1v1h-1z M12,80h1v1h-1z M13,80h1v1h-1z M16,80h1v1h-1z M17,80h1v1h-1z M18,80h1v1h-1z M19,80h1v1h-1z M20,80h1v1h-1z M22,80h1v1h-1z M26,80h1v1h-1z M28,80h1v1h-1z M29,80h1v1h-1z M30,80h1v1h-1z M31,80h1v1h-1z M32,80h1v1h-1z M34,80h1v1h-1z M35,80h1v1h-1z M36,80h1v1h-1z M37,80h1v1h-1z M39,80h1v1h-1z M42,80h1v1h-1z M43,80h1v1h-1z M44,80h1v1h-1z M45,80h1v1h-1z M46,80h1v1h-1z M47,80h1v1h-1z M50,80h1v1h-1z M52,80h1v1h-1z M53,80h1v1h-1z M54,80h1v1h-1z M55,80h1v1h-1z M56,80h1v1h-1z M57,80h1v1h-1z M58,80h1v1h-1z M59,80h1v1h-1z M60,80h1v1h-1z M61,80h1v1h-1z M62,80h1v1h-1z M64,80h1v1h-1z M66,80h1v1h-1z M67,80h1v1h-1z M69,80h1v1h-1z M70,80h1v1h-1z M72,80h1v1h-1z M76,80h1v1h-1z M77,80h1v1h-1z M78,80h1v1h-1z M79,80h1v1h-1z M80,80h1v1h-1z M82,80h1v1h-1z M87,80h1v1h-1z M89,80h1v1h-1z M90,80h1v1h-1z M92,80h1v1h-1z M94,80h1v1h-1z M95,80h1v1h-1z M96,80h1v1h-1z M97,80h1v1h-1z M98,80h1v1h-1z M100,80h1v1h-1z M101,80h1v1h-1z M102,80h1v1h-1z M103,80h1v1h-1z M104,80h1v1h-1z M108,80h1v1h-1z M12,81h1v1h-1z M13,81h1v1h-1z M15,81h1v1h-1z M16,81h1v1h-1z M17,81h1v1h-1z M21,81h1v1h-1z M22,81h1v1h-1z M23,81h1v1h-1z M27,81h1v1h-1z M28,81h1v1h-1z M31,81h1v1h-1z M32,81h1v1h-1z M34,81h1v1h-1z M35,81h1v1h-1z M38,81h1v1h-1z M39,81h1v1h-1z M43,81h1v1h-1z M45,81h1v1h-1z M47,81h1v1h-1z M51,81h1v1h-1z M58,81h1v1h-1z M60,81h1v1h-1z M62,81h1v1h-1z M63,81h1v1h-1z M64,81h1v1h-1z M69,81h1v1h-1z M71,81h1v1h-1z M72,81h1v1h-1z M73,81h1v1h-1z M75,81h1v1h-1z M76,81h1v1h-1z M77,81h1v1h-1z M83,81h1v1h-1z M86,81h1v1h-1z M88,81h1v1h-1z M91,81h1v1h-1z M92,81h1v1h-1z M95,81h1v1h-1z M98,81h1v1h-1z M99,81h1v1h-1z M101,81h1v1h-1z M103,81h1v1h-1z M104,81h1v1h-1z M105,81h1v1h-1z M106,81h1v1h-1z M107,81h1v1h-1z M4,82h1v1h-1z M7,82h1v1h-1z M9,82h1v1h-1z M10,82h1v1h-1z M11,82h1v1h-1z M12,82h1v1h-1z M14,82h1v1h-1z M15,82h1v1h-1z M17,82h1v1h-1z M18,82h1v1h-1z M19,82h1v1h-1z M22,82h1v1h-1z M23,82h1v1h-1z M24,82h1v1h-1z M25,82h1v1h-1z M28,82h1v1h-1z M32,82h1v1h-1z M34,82h1v1h-1z M35,82h1v1h-1z M38,82h1v1h-1z M39,82h1v1h-1z M42,82h1v1h-1z M43,82h1v1h-1z M45,82h1v1h-1z M46,82h1v1h-1z M47,82h1v1h-1z M50,82h1v1h-1z M51,82h1v1h-1z M56,82h1v1h-1z M57,82h1v1h-1z M58,82h1v1h-1z M59,82h1v1h-1z M60,82h1v1h-1z M62,82h1v1h-1z M64,82h1v1h-1z M66,82h1v1h-1z M69,82h1v1h-1z M70,82h1v1h-1z M71,82h1v1h-1z M74,82h1v1h-1z M75,82h1v1h-1z M76,82h1v1h-1z M78,82h1v1h-1z M80,82h1v1h-1z M82,82h1v1h-1z M83,82h1v1h-1z M86,82h1v1h-1z M87,82h1v1h-1z M90,82h1v1h-1z M94,82h1v1h-1z M97,82h1v1h-1z M98,82h1v1h-1z M99,82h1v1h-1z M102,82h1v1h-1z M103,82h1v1h-1z M105,82h1v1h-1z M108,82h1v1h-1z M11,83h1v1h-1z M12,83h1v1h-1z M13,83h1v1h-1z M14,83h1v1h-1z M15,83h1v1h-1z M16,83h1v1h-1z M17,83h1v1h-1z M21,83h1v1h-1z M22,83h1v1h-1z M23,83h1v1h-1z M24,83h1v1h-1z M25,83h1v1h-1z M28,83h1v1h-1z M29,83h1v1h-1z M30,83h1v1h-1z M31,83h1v1h-1z M32,83h1v1h-1z M34,83h1v1h-1z M36,83h1v1h-1z M38,83h1v1h-1z M39,83h1v1h-1z M40,83h1v1h-1z M43,83h1v1h-1z M45,83h1v1h-1z M48,83h1v1h-1z M49,83h1v1h-1z M53,83h1v1h-1z M54,83h1v1h-1z M56,83h1v1h-1z M57,83h1v1h-1z M60,83h1v1h-1z M63,83h1v1h-1z M64,83h1v1h-1z M66,83h1v1h-1z M69,83h1v1h-1z M72,83h1v1h-1z M73,83h1v1h-1z M75,83h1v1h-1z M76,83h1v1h-1z M77,83h1v1h-1z M78,83h1v1h-1z M82,83h1v1h-1z M84,83h1v1h-1z M86,83h1v1h-1z M87,83h1v1h-1z M88,83h1v1h-1z M90,83h1v1h-1z M91,83h1v1h-1z M94,83h1v1h-1z M95,83h1v1h-1z M96,83h1v1h-1z M98,83h1v1h-1z M99,83h1v1h-1z M100,83h1v1h-1z M101,83h1v1h-1z M102,83h1v1h-1z M105,83h1v1h-1z M106,83h1v1h-1z M107,83h1v1h-1z M4,84h1v1h-1z M6,84h1v1h-1z M8,84h1v1h-1z M9,84h1v1h-1z M10,84h1v1h-1z M11,84h1v1h-1z M13,84h1v1h-1z M14,84h1v1h-1z M15,84h1v1h-1z M17,84h1v1h-1z M18,84h1v1h-1z M19,84h1v1h-1z M20,84h1v1h-1z M22,84h1v1h-1z M24,84h1v1h-1z M26,84h1v1h-1z M31,84h1v1h-1z M32,84h1v1h-1z M33,84h1v1h-1z M38,84h1v1h-1z M42,84h1v1h-1z M44,84h1v1h-1z M46,84h1v1h-1z M48,84h1v1h-1z M49,84h1v1h-1z M54,84h1v1h-1z M56,84h1v1h-1z M57,84h1v1h-1z M62,84h1v1h-1z M63,84h1v1h-1z M65,84h1v1h-1z M69,84h1v1h-1z M70,84h1v1h-1z M71,84h1v1h-1z M74,84h1v1h-1z M78,84h1v1h-1z M79,84h1v1h-1z M81,84h1v1h-1z M83,84h1v1h-1z M84,84h1v1h-1z M86,84h1v1h-1z M88,84h1v1h-1z M91,84h1v1h-1z M92,84h1v1h-1z M93,84h1v1h-1z M94,84h1v1h-1z M95,84h1v1h-1z M98,84h1v1h-1z M106,84h1v1h-1z M107,84h1v1h-1z M108,84h1v1h-1z M7,85h1v1h-1z M8,85h1v1h-1z M11,85h1v1h-1z M12,85h1v1h-1z M14,85h1v1h-1z M15,85h1v1h-1z M16,85h1v1h-1z M17,85h1v1h-1z M18,85h1v1h-1z M21,85h1v1h-1z M24,85h1v1h-1z M30,85h1v1h-1z M32,85h1v1h-1z M33,85h1v1h-1z M35,85h1v1h-1z M36,85h1v1h-1z M37,85h1v1h-1z M40,85h1v1h-1z M42,85h1v1h-1z M44,85h1v1h-1z M45,85h1v1h-1z M48,85h1v1h-1z M49,85h1v1h-1z M50,85h1v1h-1z M53,85h1v1h-1z M54,85h1v1h-1z M55,85h1v1h-1z M61,85h1v1h-1z M63,85h1v1h-1z M65,85h1v1h-1z M68,85h1v1h-1z M69,85h1v1h-1z M70,85h1v1h-1z M72,85h1v1h-1z M74,85h1v1h-1z M76,85h1v1h-1z M77,85h1v1h-1z M78,85h1v1h-1z M79,85h1v1h-1z M80,85h1v1h-1z M81,85h1v1h-1z M83,85h1v1h-1z M86,85h1v1h-1z M89,85h1v1h-1z M90,85h1v1h-1z M100,85h1v1h-1z M102,85h1v1h-1z M104,85h1v1h-1z M106,85h1v1h-1z M107,85h1v1h-1z M5,86h1v1h-1z M6,86h1v1h-1z M7,86h1v1h-1z M10,86h1v1h-1z M11,86h1v1h-1z M13,86h1v1h-1z M19,86h1v1h-1z M20,86h1v1h-1z M21,86h1v1h-1z M22,86h1v1h-1z M25,86h1v1h-1z M26,86h1v1h-1z M27,86h1v1h-1z M29,86h1v1h-1z M34,86h1v1h-1z M39,86h1v1h-1z M41,86h1v1h-1z M42,86h1v1h-1z M43,86h1v1h-1z M44,86h1v1h-1z M46,86h1v1h-1z M48,86h1v1h-1z M51,86h1v1h-1z M55,86h1v1h-1z M57,86h1v1h-1z M58,86h1v1h-1z M61,86h1v1h-1z M63,86h1v1h-1z M64,86h1v1h-1z M65,86h1v1h-1z M66,86h1v1h-1z M68,86h1v1h-1z M70,86h1v1h-1z M71,86h1v1h-1z M82,86h1v1h-1z M88,86h1v1h-1z M89,86h1v1h-1z M90,86h1v1h-1z M92,86h1v1h-1z M94,86h1v1h-1z M96,86h1v1h-1z M100,86h1v1h-1z M102,86h1v1h-1z M104,86h1v1h-1z M107,86h1v1h-1z M108,86h1v1h-1z M4,87h1v1h-1z M11,87h1v1h-1z M13,87h1v1h-1z M14,87h1v1h-1z M15,87h1v1h-1z M17,87h1v1h-1z M19,87h1v1h-1z M20,87h1v1h-1z M22,87h1v1h-1z M23,87h1v1h-1z M24,87h1v1h-1z M25,87h1v1h-1z M29,87h1v1h-1z M31,87h1v1h-1z M32,87h1v1h-1z M35,87h1v1h-1z M38,87h1v1h-1z M40,87h1v1h-1z M42,87h1v1h-1z M43,87h1v1h-1z M44,87h1v1h-1z M46,87h1v1h-1z M47,87h1v1h-1z M49,87h1v1h-1z M51,87h1v1h-1z M52,87h1v1h-1z M54,87h1v1h-1z M55,87h1v1h-1z M56,87h1v1h-1z M57,87h1v1h-1z M59,87h1v1h-1z M61,87h1v1h-1z M64,87h1v1h-1z M68,87h1v1h-1z M69,87h1v1h-1z M74,87h1v1h-1z M76,87h1v1h-1z M79,87h1v1h-1z M80,87h1v1h-1z M81,87h1v1h-1z M83,87h1v1h-1z M85,87h1v1h-1z M86,87h1v1h-1z M88,87h1v1h-1z M91,87h1v1h-1z M92,87h1v1h-1z M95,87h1v1h-1z M97,87h1v1h-1z M98,87h1v1h-1z M99,87h1v1h-1z M101,87h1v1h-1z M102,87h1v1h-1z M104,87h1v1h-1z M106,87h1v1h-1z M108,87h1v1h-1z M4,88h1v1h-1z M5,88h1v1h-1z M6,88h1v1h-1z M8,88h1v1h-1z M9,88h1v1h-1z M10,88h1v1h-1z M11,88h1v1h-1z M14,88h1v1h-1z M16,88h1v1h-1z M18,88h1v1h-1z M21,88h1v1h-1z M23,88h1v1h-1z M24,88h1v1h-1z M25,88h1v1h-1z M30,88h1v1h-1z M32,88h1v1h-1z M33,88h1v1h-1z M34,88h1v1h-1z M35,88h1v1h-1z M36,88h1v1h-1z M37,88h1v1h-1z M38,88h1v1h-1z M39,88h1v1h-1z M40,88h1v1h-1z M42,88h1v1h-1z M43,88h1v1h-1z M44,88h1v1h-1z M45,88h1v1h-1z M46,88h1v1h-1z M48,88h1v1h-1z M49,88h1v1h-1z M50,88h1v1h-1z M54,88h1v1h-1z M55,88h1v1h-1z M57,88h1v1h-1z M60,88h1v1h-1z M62,88h1v1h-1z M63,88h1v1h-1z M65,88h1v1h-1z M66,88h1v1h-1z M69,88h1v1h-1z M71,88h1v1h-1z M73,88h1v1h-1z M75,88h1v1h-1z M77,88h1v1h-1z M79,88h1v1h-1z M80,88h1v1h-1z M81,88h1v1h-1z M83,88h1v1h-1z M84,88h1v1h-1z M85,88h1v1h-1z M88,88h1v1h-1z M90,88h1v1h-1z M91,88h1v1h-1z M94,88h1v1h-1z M95,88h1v1h-1z M98,88h1v1h-1z M99,88h1v1h-1z M100,88h1v1h-1z M103,88h1v1h-1z M105,88h1v1h-1z M106,88h1v1h-1z M108,88h1v1h-1z M4,89h1v1h-1z M5,89h1v1h-1z M6,89h1v1h-1z M7,89h1v1h-1z M8,89h1v1h-1z M11,89h1v1h-1z M13,89h1v1h-1z M19,89h1v1h-1z M20,89h1v1h-1z M22,89h1v1h-1z M28,89h1v1h-1z M30,89h1v1h-1z M31,89h1v1h-1z M35,89h1v1h-1z M37,89h1v1h-1z M38,89h1v1h-1z M39,89h1v1h-1z M40,89h1v1h-1z M42,89h1v1h-1z M47,89h1v1h-1z M48,89h1v1h-1z M49,89h1v1h-1z M50,89h1v1h-1z M52,89h1v1h-1z M54,89h1v1h-1z M55,89h1v1h-1z M57,89h1v1h-1z M58,89h1v1h-1z M59,89h1v1h-1z M60,89h1v1h-1z M61,89h1v1h-1z M62,89h1v1h-1z M67,89h1v1h-1z M68,89h1v1h-1z M70,89h1v1h-1z M71,89h1v1h-1z M73,89h1v1h-1z M76,89h1v1h-1z M78,89h1v1h-1z M80,89h1v1h-1z M83,89h1v1h-1z M84,89h1v1h-1z M85,89h1v1h-1z M87,89h1v1h-1z M88,89h1v1h-1z M89,89h1v1h-1z M91,89h1v1h-1z M95,89h1v1h-1z M97,89h1v1h-1z M100,89h1v1h-1z M102,89h1v1h-1z M103,89h1v1h-1z M106,89h1v1h-1z M6,90h1v1h-1z M8,90h1v1h-1z M10,90h1v1h-1z M12,90h1v1h-1z M13,90h1v1h-1z M16,90h1v1h-1z M17,90h1v1h-1z M18,90h1v1h-1z M19,90h1v1h-1z M20,90h1v1h-1z M21,90h1v1h-1z M23,90h1v1h-1z M24,90h1v1h-1z M28,90h1v1h-1z M29,90h1v1h-1z M30,90h1v1h-1z M32,90h1v1h-1z M33,90h1v1h-1z M34,90h1v1h-1z M36,90h1v1h-1z M38,90h1v1h-1z M39,90h1v1h-1z M41,90h1v1h-1z M43,90h1v1h-1z M44,90h1v1h-1z M46,90h1v1h-1z M47,90h1v1h-1z M48,90h1v1h-1z M50,90h1v1h-1z M51,90h1v1h-1z M53,90h1v1h-1z M54,90h1v1h-1z M56,90h1v1h-1z M57,90h1v1h-1z M58,90h1v1h-1z M60,90h1v1h-1z M62,90h1v1h-1z M64,90h1v1h-1z M68,90h1v1h-1z M70,90h1v1h-1z M71,90h1v1h-1z M73,90h1v1h-1z M74,90h1v1h-1z M75,90h1v1h-1z M77,90h1v1h-1z M78,90h1v1h-1z M80,90h1v1h-1z M81,90h1v1h-1z M82,90h1v1h-1z M84,90h1v1h-1z M86,90h1v1h-1z M87,90h1v1h-1z M93,90h1v1h-1z M94,90h1v1h-1z M96,90h1v1h-1z M98,90h1v1h-1z M100,90h1v1h-1z M101,90h1v1h-1z M107,90h1v1h-1z M6,91h1v1h-1z M7,91h1v1h-1z M9,91h1v1h-1z M12,91h1v1h-1z M13,91h1v1h-1z M14,91h1v1h-1z M16,91h1v1h-1z M18,91h1v1h-1z M19,91h1v1h-1z M22,91h1v1h-1z M23,91h1v1h-1z M24,91h1v1h-1z M25,91h1v1h-1z M26,91h1v1h-1z M30,91h1v1h-1z M32,91h1v1h-1z M34,91h1v1h-1z M36,91h1v1h-1z M38,91h1v1h-1z M39,91h1v1h-1z M40,91h1v1h-1z M41,91h1v1h-1z M43,91h1v1h-1z M44,91h1v1h-1z M45,91h1v1h-1z M47,91h1v1h-1z M48,91h1v1h-1z M50,91h1v1h-1z M52,91h1v1h-1z M54,91h1v1h-1z M55,91h1v1h-1z M57,91h1v1h-1z M58,91h1v1h-1z M60,91h1v1h-1z M61,91h1v1h-1z M63,91h1v1h-1z M64,91h1v1h-1z M66,91h1v1h-1z M67,91h1v1h-1z M68,91h1v1h-1z M71,91h1v1h-1z M72,91h1v1h-1z M78,91h1v1h-1z M80,91h1v1h-1z M81,91h1v1h-1z M83,91h1v1h-1z M84,91h1v1h-1z M86,91h1v1h-1z M87,91h1v1h-1z M88,91h1v1h-1z M90,91h1v1h-1z M92,91h1v1h-1z M93,91h1v1h-1z M94,91h1v1h-1z M96,91h1v1h-1z M98,91h1v1h-1z M101,91h1v1h-1z M104,91h1v1h-1z M105,91h1v1h-1z M106,91h1v1h-1z M108,91h1v1h-1z M5,92h1v1h-1z M8,92h1v1h-1z M9,92h1v1h-1z M10,92h1v1h-1z M11,92h1v1h-1z M13,92h1v1h-1z M16,92h1v1h-1z M17,92h1v1h-1z M18,92h1v1h-1z M19,92h1v1h-1z M20,92h1v1h-1z M21,92h1v1h-1z M22,92h1v1h-1z M24,92h1v1h-1z M29,92h1v1h-1z M31,92h1v1h-1z M33,92h1v1h-1z M37,92h1v1h-1z M40,92h1v1h-1z M50,92h1v1h-1z M51,92h1v1h-1z M53,92h1v1h-1z M54,92h1v1h-1z M55,92h1v1h-1z M56,92h1v1h-1z M58,92h1v1h-1z M59,92h1v1h-1z M60,92h1v1h-1z M62,92h1v1h-1z M63,92h1v1h-1z M66,92h1v1h-1z M68,92h1v1h-1z M71,92h1v1h-1z M76,92h1v1h-1z M79,92h1v1h-1z M80,92h1v1h-1z M82,92h1v1h-1z M87,92h1v1h-1z M88,92h1v1h-1z M90,92h1v1h-1z M91,92h1v1h-1z M95,92h1v1h-1z M96,92h1v1h-1z M98,92h1v1h-1z M99,92h1v1h-1z M100,92h1v1h-1z M103,92h1v1h-1z M107,92h1v1h-1z M108,92h1v1h-1z M5,93h1v1h-1z M9,93h1v1h-1z M11,93h1v1h-1z M13,93h1v1h-1z M14,93h1v1h-1z M15,93h1v1h-1z M17,93h1v1h-1z M18,93h1v1h-1z M19,93h1v1h-1z M20,93h1v1h-1z M23,93h1v1h-1z M24,93h1v1h-1z M26,93h1v1h-1z M27,93h1v1h-1z M31,93h1v1h-1z M32,93h1v1h-1z M34,93h1v1h-1z M36,93h1v1h-1z M37,93h1v1h-1z M38,93h1v1h-1z M40,93h1v1h-1z M41,93h1v1h-1z M43,93h1v1h-1z M44,93h1v1h-1z M46,93h1v1h-1z M47,93h1v1h-1z M48,93h1v1h-1z M49,93h1v1h-1z M51,93h1v1h-1z M56,93h1v1h-1z M59,93h1v1h-1z M61,93h1v1h-1z M62,93h1v1h-1z M63,93h1v1h-1z M66,93h1v1h-1z M72,93h1v1h-1z M74,93h1v1h-1z M75,93h1v1h-1z M76,93h1v1h-1z M77,93h1v1h-1z M80,93h1v1h-1z M82,93h1v1h-1z M84,93h1v1h-1z M90,93h1v1h-1z M92,93h1v1h-1z M93,93h1v1h-1z M94,93h1v1h-1z M96,93h1v1h-1z M97,93h1v1h-1z M98,93h1v1h-1z M103,93h1v1h-1z M104,93h1v1h-1z M105,93h1v1h-1z M108,93h1v1h-1z M4,94h1v1h-1z M5,94h1v1h-1z M8,94h1v1h-1z M9,94h1v1h-1z M10,94h1v1h-1z M11,94h1v1h-1z M12,94h1v1h-1z M14,94h1v1h-1z M17,94h1v1h-1z M22,94h1v1h-1z M23,94h1v1h-1z M24,94h1v1h-1z M25,94h1v1h-1z M26,94h1v1h-1z M28,94h1v1h-1z M32,94h1v1h-1z M34,94h1v1h-1z M35,94h1v1h-1z M37,94h1v1h-1z M38,94h1v1h-1z M42,94h1v1h-1z M43,94h1v1h-1z M46,94h1v1h-1z M47,94h1v1h-1z M50,94h1v1h-1z M51,94h1v1h-1z M56,94h1v1h-1z M58,94h1v1h-1z M62,94h1v1h-1z M64,94h1v1h-1z M66,94h1v1h-1z M68,94h1v1h-1z M69,94h1v1h-1z M70,94h1v1h-1z M74,94h1v1h-1z M75,94h1v1h-1z M76,94h1v1h-1z M77,94h1v1h-1z M78,94h1v1h-1z M80,94h1v1h-1z M82,94h1v1h-1z M83,94h1v1h-1z M84,94h1v1h-1z M86,94h1v1h-1z M90,94h1v1h-1z M91,94h1v1h-1z M92,94h1v1h-1z M94,94h1v1h-1z M98,94h1v1h-1z M100,94h1v1h-1z M101,94h1v1h-1z M102,94h1v1h-1z M108,94h1v1h-1z M5,95h1v1h-1z M14,95h1v1h-1z M15,95h1v1h-1z M19,95h1v1h-1z M21,95h1v1h-1z M22,95h1v1h-1z M23,95h1v1h-1z M29,95h1v1h-1z M30,95h1v1h-1z M31,95h1v1h-1z M32,95h1v1h-1z M36,95h1v1h-1z M37,95h1v1h-1z M38,95h1v1h-1z M39,95h1v1h-1z M40,95h1v1h-1z M43,95h1v1h-1z M45,95h1v1h-1z M46,95h1v1h-1z M48,95h1v1h-1z M50,95h1v1h-1z M52,95h1v1h-1z M55,95h1v1h-1z M57,95h1v1h-1z M58,95h1v1h-1z M60,95h1v1h-1z M62,95h1v1h-1z M63,95h1v1h-1z M64,95h1v1h-1z M65,95h1v1h-1z M66,95h1v1h-1z M67,95h1v1h-1z M72,95h1v1h-1z M73,95h1v1h-1z M76,95h1v1h-1z M77,95h1v1h-1z M78,95h1v1h-1z M80,95h1v1h-1z M82,95h1v1h-1z M84,95h1v1h-1z M85,95h1v1h-1z M86,95h1v1h-1z M87,95h1v1h-1z M88,95h1v1h-1z M89,95h1v1h-1z M90,95h1v1h-1z M91,95h1v1h-1z M94,95h1v1h-1z M96,95h1v1h-1z M97,95h1v1h-1z M98,95h1v1h-1z M99,95h1v1h-1z M103,95h1v1h-1z M104,95h1v1h-1z M105,95h1v1h-1z M106,95h1v1h-1z M4,96h1v1h-1z M5,96h1v1h-1z M6,96h1v1h-1z M9,96h1v1h-1z M10,96h1v1h-1z M14,96h1v1h-1z M15,96h1v1h-1z M16,96h1v1h-1z M18,96h1v1h-1z M19,96h1v1h-1z M22,96h1v1h-1z M27,96h1v1h-1z M28,96h1v1h-1z M30,96h1v1h-1z M34,96h1v1h-1z M36,96h1v1h-1z M37,96h1v1h-1z M38,96h1v1h-1z M39,96h1v1h-1z M40,96h1v1h-1z M42,96h1v1h-1z M43,96h1v1h-1z M45,96h1v1h-1z M46,96h1v1h-1z M49,96h1v1h-1z M53,96h1v1h-1z M56,96h1v1h-1z M57,96h1v1h-1z M61,96h1v1h-1z M62,96h1v1h-1z M67,96h1v1h-1z M68,96h1v1h-1z M72,96h1v1h-1z M73,96h1v1h-1z M78,96h1v1h-1z M80,96h1v1h-1z M82,96h1v1h-1z M83,96h1v1h-1z M84,96h1v1h-1z M86,96h1v1h-1z M87,96h1v1h-1z M88,96h1v1h-1z M89,96h1v1h-1z M96,96h1v1h-1z M98,96h1v1h-1z M101,96h1v1h-1z M102,96h1v1h-1z M104,96h1v1h-1z M105,96h1v1h-1z M106,96h1v1h-1z M107,96h1v1h-1z M4,97h1v1h-1z M8,97h1v1h-1z M12,97h1v1h-1z M15,97h1v1h-1z M16,97h1v1h-1z M20,97h1v1h-1z M21,97h1v1h-1z M22,97h1v1h-1z M26,97h1v1h-1z M28,97h1v1h-1z M30,97h1v1h-1z M32,97h1v1h-1z M36,97h1v1h-1z M37,97h1v1h-1z M38,97h1v1h-1z M40,97h1v1h-1z M41,97h1v1h-1z M44,97h1v1h-1z M50,97h1v1h-1z M52,97h1v1h-1z M53,97h1v1h-1z M54,97h1v1h-1z M55,97h1v1h-1z M56,97h1v1h-1z M57,97h1v1h-1z M58,97h1v1h-1z M60,97h1v1h-1z M61,97h1v1h-1z M62,97h1v1h-1z M63,97h1v1h-1z M65,97h1v1h-1z M69,97h1v1h-1z M72,97h1v1h-1z M73,97h1v1h-1z M76,97h1v1h-1z M77,97h1v1h-1z M78,97h1v1h-1z M79,97h1v1h-1z M81,97h1v1h-1z M82,97h1v1h-1z M85,97h1v1h-1z M86,97h1v1h-1z M88,97h1v1h-1z M89,97h1v1h-1z M90,97h1v1h-1z M92,97h1v1h-1z M93,97h1v1h-1z M95,97h1v1h-1z M96,97h1v1h-1z M100,97h1v1h-1z M101,97h1v1h-1z M102,97h1v1h-1z M103,97h1v1h-1z M104,97h1v1h-1z M105,97h1v1h-1z M106,97h1v1h-1z M107,97h1v1h-1z M4,98h1v1h-1z M5,98h1v1h-1z M6,98h1v1h-1z M10,98h1v1h-1z M11,98h1v1h-1z M14,98h1v1h-1z M16,98h1v1h-1z M18,98h1v1h-1z M21,98h1v1h-1z M26,98h1v1h-1z M28,98h1v1h-1z M29,98h1v1h-1z M34,98h1v1h-1z M35,98h1v1h-1z M40,98h1v1h-1z M41,98h1v1h-1z M42,98h1v1h-1z M43,98h1v1h-1z M46,98h1v1h-1z M51,98h1v1h-1z M52,98h1v1h-1z M54,98h1v1h-1z M57,98h1v1h-1z M58,98h1v1h-1z M59,98h1v1h-1z M64,98h1v1h-1z M65,98h1v1h-1z M66,98h1v1h-1z M68,98h1v1h-1z M70,98h1v1h-1z M72,98h1v1h-1z M73,98h1v1h-1z M75,98h1v1h-1z M76,98h1v1h-1z M77,98h1v1h-1z M82,98h1v1h-1z M84,98h1v1h-1z M88,98h1v1h-1z M89,98h1v1h-1z M90,98h1v1h-1z M94,98h1v1h-1z M99,98h1v1h-1z M100,98h1v1h-1z M102,98h1v1h-1z M104,98h1v1h-1z M105,98h1v1h-1z M108,98h1v1h-1z M6,99h1v1h-1z M8,99h1v1h-1z M9,99h1v1h-1z M11,99h1v1h-1z M15,99h1v1h-1z M16,99h1v1h-1z M21,99h1v1h-1z M23,99h1v1h-1z M26,99h1v1h-1z M27,99h1v1h-1z M28,99h1v1h-1z M30,99h1v1h-1z M31,99h1v1h-1z M32,99h1v1h-1z M33,99h1v1h-1z M34,99h1v1h-1z M35,99h1v1h-1z M38,99h1v1h-1z M40,99h1v1h-1z M43,99h1v1h-1z M44,99h1v1h-1z M47,99h1v1h-1z M49,99h1v1h-1z M51,99h1v1h-1z M52,99h1v1h-1z M54,99h1v1h-1z M55,99h1v1h-1z M56,99h1v1h-1z M61,99h1v1h-1z M62,99h1v1h-1z M64,99h1v1h-1z M68,99h1v1h-1z M69,99h1v1h-1z M70,99h1v1h-1z M71,99h1v1h-1z M73,99h1v1h-1z M76,99h1v1h-1z M79,99h1v1h-1z M81,99h1v1h-1z M83,99h1v1h-1z M86,99h1v1h-1z M88,99h1v1h-1z M89,99h1v1h-1z M91,99h1v1h-1z M92,99h1v1h-1z M93,99h1v1h-1z M94,99h1v1h-1z M95,99h1v1h-1z M101,99h1v1h-1z M102,99h1v1h-1z M103,99h1v1h-1z M104,99h1v1h-1z M106,99h1v1h-1z M108,99h1v1h-1z M7,100h1v1h-1z M8,100h1v1h-1z M10,100h1v1h-1z M11,100h1v1h-1z M12,100h1v1h-1z M13,100h1v1h-1z M14,100h1v1h-1z M19,100h1v1h-1z M20,100h1v1h-1z M22,100h1v1h-1z M24,100h1v1h-1z M26,100h1v1h-1z M28,100h1v1h-1z M29,100h1v1h-1z M30,100h1v1h-1z M31,100h1v1h-1z M32,100h1v1h-1z M36,100h1v1h-1z M37,100h1v1h-1z M38,100h1v1h-1z M39,100h1v1h-1z M40,100h1v1h-1z M42,100h1v1h-1z M43,100h1v1h-1z M44,100h1v1h-1z M45,100h1v1h-1z M46,100h1v1h-1z M47,100h1v1h-1z M49,100h1v1h-1z M50,100h1v1h-1z M51,100h1v1h-1z M52,100h1v1h-1z M53,100h1v1h-1z M54,100h1v1h-1z M55,100h1v1h-1z M56,100h1v1h-1z M58,100h1v1h-1z M61,100h1v1h-1z M62,100h1v1h-1z M64,100h1v1h-1z M66,100h1v1h-1z M67,100h1v1h-1z M68,100h1v1h-1z M69,100h1v1h-1z M72,100h1v1h-1z M73,100h1v1h-1z M75,100h1v1h-1z M76,100h1v1h-1z M77,100h1v1h-1z M78,100h1v1h-1z M79,100h1v1h-1z M80,100h1v1h-1z M81,100h1v1h-1z M82,100h1v1h-1z M84,100h1v1h-1z M85,100h1v1h-1z M87,100h1v1h-1z M88,100h1v1h-1z M91,100h1v1h-1z M92,100h1v1h-1z M93,100h1v1h-1z M98,100h1v1h-1z M99,100h1v1h-1z M100,100h1v1h-1z M101,100h1v1h-1z M102,100h1v1h-1z M103,100h1v1h-1z M104,100h1v1h-1z M105,100h1v1h-1z M107,100h1v1h-1z M108,100h1v1h-1z M12,101h1v1h-1z M14,101h1v1h-1z M17,101h1v1h-1z M18,101h1v1h-1z M19,101h1v1h-1z M20,101h1v1h-1z M23,101h1v1h-1z M25,101h1v1h-1z M26,101h1v1h-1z M27,101h1v1h-1z M28,101h1v1h-1z M32,101h1v1h-1z M33,101h1v1h-1z M34,101h1v1h-1z M37,101h1v1h-1z M40,101h1v1h-1z M41,101h1v1h-1z M42,101h1v1h-1z M44,101h1v1h-1z M45,101h1v1h-1z M47,101h1v1h-1z M48,101h1v1h-1z M51,101h1v1h-1z M52,101h1v1h-1z M56,101h1v1h-1z M57,101h1v1h-1z M58,101h1v1h-1z M60,101h1v1h-1z M61,101h1v1h-1z M62,101h1v1h-1z M64,101h1v1h-1z M70,101h1v1h-1z M71,101h1v1h-1z M73,101h1v1h-1z M75,101h1v1h-1z M76,101h1v1h-1z M80,101h1v1h-1z M81,101h1v1h-1z M82,101h1v1h-1z M84,101h1v1h-1z M85,101h1v1h-1z M87,101h1v1h-1z M88,101h1v1h-1z M89,101h1v1h-1z M92,101h1v1h-1z M93,101h1v1h-1z M94,101h1v1h-1z M98,101h1v1h-1z M99,101h1v1h-1z M100,101h1v1h-1z M104,101h1v1h-1z M107,101h1v1h-1z M108,101h1v1h-1z M4,102h1v1h-1z M5,102h1v1h-1z M6,102h1v1h-1z M7,102h1v1h-1z M8,102h1v1h-1z M9,102h1v1h-1z M10,102h1v1h-1z M13,102h1v1h-1z M14,102h1v1h-1z M18,102h1v1h-1z M20,102h1v1h-1z M21,102h1v1h-1z M22,102h1v1h-1z M25,102h1v1h-1z M26,102h1v1h-1z M28,102h1v1h-1z M30,102h1v1h-1z M32,102h1v1h-1z M33,102h1v1h-1z M34,102h1v1h-1z M38,102h1v1h-1z M39,102h1v1h-1z M40,102h1v1h-1z M43,102h1v1h-1z M44,102h1v1h-1z M45,102h1v1h-1z M46,102h1v1h-1z M48,102h1v1h-1z M50,102h1v1h-1z M52,102h1v1h-1z M54,102h1v1h-1z M56,102h1v1h-1z M58,102h1v1h-1z M60,102h1v1h-1z M62,102h1v1h-1z M64,102h1v1h-1z M67,102h1v1h-1z M68,102h1v1h-1z M69,102h1v1h-1z M70,102h1v1h-1z M71,102h1v1h-1z M72,102h1v1h-1z M74,102h1v1h-1z M76,102h1v1h-1z M78,102h1v1h-1z M80,102h1v1h-1z M81,102h1v1h-1z M82,102h1v1h-1z M83,102h1v1h-1z M86,102h1v1h-1z M87,102h1v1h-1z M88,102h1v1h-1z M91,102h1v1h-1z M92,102h1v1h-1z M93,102h1v1h-1z M94,102h1v1h-1z M95,102h1v1h-1z M98,102h1v1h-1z M100,102h1v1h-1z M102,102h1v1h-1z M104,102h1v1h-1z M106,102h1v1h-1z M4,103h1v1h-1z M10,103h1v1h-1z M15,103h1v1h-1z M16,103h1v1h-1z M18,103h1v1h-1z M21,103h1v1h-1z M22,103h1v1h-1z M23,103h1v1h-1z M27,103h1v1h-1z M28,103h1v1h-1z M32,103h1v1h-1z M35,103h1v1h-1z M36,103h1v1h-1z M39,103h1v1h-1z M40,103h1v1h-1z M41,103h1v1h-1z M43,103h1v1h-1z M44,103h1v1h-1z M46,103h1v1h-1z M48,103h1v1h-1z M49,103h1v1h-1z M51,103h1v1h-1z M52,103h1v1h-1z M56,103h1v1h-1z M60,103h1v1h-1z M61,103h1v1h-1z M63,103h1v1h-1z M64,103h1v1h-1z M66,103h1v1h-1z M67,103h1v1h-1z M68,103h1v1h-1z M70,103h1v1h-1z M71,103h1v1h-1z M72,103h1v1h-1z M76,103h1v1h-1z M80,103h1v1h-1z M82,103h1v1h-1z M83,103h1v1h-1z M84,103h1v1h-1z M85,103h1v1h-1z M86,103h1v1h-1z M87,103h1v1h-1z M88,103h1v1h-1z M89,103h1v1h-1z M91,103h1v1h-1z M92,103h1v1h-1z M93,103h1v1h-1z M95,103h1v1h-1z M96,103h1v1h-1z M97,103h1v1h-1z M98,103h1v1h-1z M100,103h1v1h-1z M104,103h1v1h-1z M105,103h1v1h-1z M106,103h1v1h-1z M107,103h1v1h-1z M4,104h1v1h-1z M6,104h1v1h-1z M7,104h1v1h-1z M8,104h1v1h-1z M10,104h1v1h-1z M12,104h1v1h-1z M14,104h1v1h-1z M15,104h1v1h-1z M16,104h1v1h-1z M18,104h1v1h-1z M19,104h1v1h-1z M20,104h1v1h-1z M24,104h1v1h-1z M27,104h1v1h-1z M28,104h1v1h-1z M29,104h1v1h-1z M30,104h1v1h-1z M31,104h1v1h-1z M32,104h1v1h-1z M33,104h1v1h-1z M34,104h1v1h-1z M35,104h1v1h-1z M37,104h1v1h-1z M39,104h1v1h-1z M40,104h1v1h-1z M41,104h1v1h-1z M42,104h1v1h-1z M43,104h1v1h-1z M45,104h1v1h-1z M46,104h1v1h-1z M49,104h1v1h-1z M50,104h1v1h-1z M51,104h1v1h-1z M52,104h1v1h-1z M53,104h1v1h-1z M54,104h1v1h-1z M55,104h1v1h-1z M56,104h1v1h-1z M58,104h1v1h-1z M60,104h1v1h-1z M61,104h1v1h-1z M62,104h1v1h-1z M63,104h1v1h-1z M65,104h1v1h-1z M66,104h1v1h-1z M71,104h1v1h-1z M72,104h1v1h-1z M73,104h1v1h-1z M74,104h1v1h-1z M75,104h1v1h-1z M76,104h1v1h-1z M77,104h1v1h-1z M78,104h1v1h-1z M79,104h1v1h-1z M80,104h1v1h-1z M81,104h1v1h-1z M84,104h1v1h-1z M90,104h1v1h-1z M91,104h1v1h-1z M93,104h1v1h-1z M96,104h1v1h-1z M98,104h1v1h-1z M99,104h1v1h-1z M100,104h1v1h-1z M101,104h1v1h-1z M102,104h1v1h-1z M103,104h1v1h-1z M104,104h1v1h-1z M107,104h1v1h-1z M108,104h1v1h-1z M4,105h1v1h-1z M6,105h1v1h-1z M7,105h1v1h-1z M8,105h1v1h-1z M10,105h1v1h-1z M12,105h1v1h-1z M14,105h1v1h-1z M15,105h1v1h-1z M16,105h1v1h-1z M17,105h1v1h-1z M19,105h1v1h-1z M21,105h1v1h-1z M22,105h1v1h-1z M23,105h1v1h-1z M24,105h1v1h-1z M25,105h1v1h-1z M26,105h1v1h-1z M30,105h1v1h-1z M31,105h1v1h-1z M34,105h1v1h-1z M35,105h1v1h-1z M37,105h1v1h-1z M38,105h1v1h-1z M45,105h1v1h-1z M47,105h1v1h-1z M48,105h1v1h-1z M49,105h1v1h-1z M50,105h1v1h-1z M51,105h1v1h-1z M54,105h1v1h-1z M56,105h1v1h-1z M58,105h1v1h-1z M59,105h1v1h-1z M61,105h1v1h-1z M62,105h1v1h-1z M63,105h1v1h-1z M64,105h1v1h-1z M69,105h1v1h-1z M70,105h1v1h-1z M72,105h1v1h-1z M75,105h1v1h-1z M78,105h1v1h-1z M80,105h1v1h-1z M81,105h1v1h-1z M82,105h1v1h-1z M84,105h1v1h-1z M85,105h1v1h-1z M86,105h1v1h-1z M87,105h1v1h-1z M88,105h1v1h-1z M90,105h1v1h-1z M92,105h1v1h-1z M95,105h1v1h-1z M96,105h1v1h-1z M97,105h1v1h-1z M99,105h1v1h-1z M100,105h1v1h-1z M102,105h1v1h-1z M104,105h1v1h-1z M4,106h1v1h-1z M6,106h1v1h-1z M7,106h1v1h-1z M8,106h1v1h-1z M10,106h1v1h-1z M13,106h1v1h-1z M15,106h1v1h-1z M17,106h1v1h-1z M20,106h1v1h-1z M22,106h1v1h-1z M24,106h1v1h-1z M26,106h1v1h-1z M30,106h1v1h-1z M31,106h1v1h-1z M32,106h1v1h-1z M34,106h1v1h-1z M35,106h1v1h-1z M37,106h1v1h-1z M38,106h1v1h-1z M40,106h1v1h-1z M42,106h1v1h-1z M43,106h1v1h-1z M44,106h1v1h-1z M46,106h1v1h-1z M47,106h1v1h-1z M50,106h1v1h-1z M54,106h1v1h-1z M56,106h1v1h-1z M58,106h1v1h-1z M59,106h1v1h-1z M60,106h1v1h-1z M62,106h1v1h-1z M63,106h1v1h-1z M65,106h1v1h-1z M66,106h1v1h-1z M67,106h1v1h-1z M68,106h1v1h-1z M70,106h1v1h-1z M74,106h1v1h-1z M77,106h1v1h-1z M78,106h1v1h-1z M79,106h1v1h-1z M82,106h1v1h-1z M83,106h1v1h-1z M84,106h1v1h-1z M85,106h1v1h-1z M86,106h1v1h-1z M87,106h1v1h-1z M88,106h1v1h-1z M90,106h1v1h-1z M93,106h1v1h-1z M94,106h1v1h-1z M95,106h1v1h-1z M98,106h1v1h-1z M100,106h1v1h-1z M102,106h1v1h-1z M104,106h1v1h-1z M106,106h1v1h-1z M107,106h1v1h-1z M108,106h1v1h-1z M4,107h1v1h-1z M10,107h1v1h-1z M12,107h1v1h-1z M13,107h1v1h-1z M19,107h1v1h-1z M23,107h1v1h-1z M25,107h1v1h-1z M26,107h1v1h-1z M28,107h1v1h-1z M29,107h1v1h-1z M30,107h1v1h-1z M31,107h1v1h-1z M33,107h1v1h-1z M36,107h1v1h-1z M37,107h1v1h-1z M38,107h1v1h-1z M39,107h1v1h-1z M40,107h1v1h-1z M42,107h1v1h-1z M43,107h1v1h-1z M45,107h1v1h-1z M48,107h1v1h-1z M50,107h1v1h-1z M52,107h1v1h-1z M54,107h1v1h-1z M55,107h1v1h-1z M58,107h1v1h-1z M60,107h1v1h-1z M62,107h1v1h-1z M63,107h1v1h-1z M64,107h1v1h-1z M65,107h1v1h-1z M67,107h1v1h-1z M69,107h1v1h-1z M70,107h1v1h-1z M72,107h1v1h-1z M73,107h1v1h-1z M74,107h1v1h-1z M76,107h1v1h-1z M77,107h1v1h-1z M79,107h1v1h-1z M81,107h1v1h-1z M84,107h1v1h-1z M85,107h1v1h-1z M86,107h1v1h-1z M87,107h1v1h-1z M88,107h1v1h-1z M89,107h1v1h-1z M93,107h1v1h-1z M95,107h1v1h-1z M96,107h1v1h-1z M97,107h1v1h-1z M100,107h1v1h-1z M102,107h1v1h-1z M103,107h1v1h-1z M104,107h1v1h-1z M105,107h1v1h-1z M106,107h1v1h-1z M107,107h1v1h-1z M108,107h1v1h-1z M4,108h1v1h-1z M5,108h1v1h-1z M6,108h1v1h-1z M7,108h1v1h-1z M8,108h1v1h-1z M9,108h1v1h-1z M10,108h1v1h-1z M12,108h1v1h-1z M13,108h1v1h-1z M14,108h1v1h-1z M15,108h1v1h-1z M17,108h1v1h-1z M19,108h1v1h-1z M20,108h1v1h-1z M24,108h1v1h-1z M26,108h1v1h-1z M27,108h1v1h-1z M31,108h1v1h-1z M32,108h1v1h-1z M35,108h1v1h-1z M36,108h1v1h-1z M37,108h1v1h-1z M38,108h1v1h-1z M39,108h1v1h-1z M40,108h1v1h-1z M41,108h1v1h-1z M44,108h1v1h-1z M45,108h1v1h-1z M47,108h1v1h-1z M48,108h1v1h-1z M54,108h1v1h-1z M55,108h1v1h-1z M57,108h1v1h-1z M62,108h1v1h-1z M63,108h1v1h-1z M64,108h1v1h-1z M65,108h1v1h-1z M67,108h1v1h-1z M70,108h1v1h-1z M72,108h1v1h-1z M74,108h1v1h-1z M76,108h1v1h-1z M77,108h1v1h-1z M81,108h1v1h-1z M82,108h1v1h-1z M85,108h1v1h-1z M86,108h1v1h-1z M92,108h1v1h-1z M93,108h1v1h-1z M94,108h1v1h-1z M95,108h1v1h-1z M96,108h1v1h-1z M98,108h1v1h-1z M99,108h1v1h-1z M101,108h1v1h-1z M102,108h1v1h-1z M106,108h1v1h-1z" fill="#000000"/>
</svg>
