<?xml version="1.0" encoding="UTF-8"?>
<!DOCTYPE svg PUBLIC "-//W3C//DTD SVG 1.1//EN" "http://www.w3.org/Graphics/SVG/1.1/DTD/svg11.dtd">
<svg xmlns="http://www.w3.org/2000/svg" version="1.1" viewBox="0 0 113 113" stroke="none">
	<rect width="100%" height="100%" fill="#FFFFFF"/>
	<path d="M4,4h1v1h-1z M5,4h1v1h-1z M6,4h1v1h-1z M7,4h1v1h-1z M8,4h1v1h-1z M9,4h1v1h-1z M10,4h1v1h-1z M12,4h1v1h-1z M13,4h1v1h-1z M14,4h1v1h-1z M15,4h1v1h-1z M19,4h1v1h-1z M22,4h1v1h-1z M25,4h1v1h-1z M27,4h1v1h-1z M30,4h1v1h-1z M31,4h1v1h-1z M33,4h1v1h-1z M35,4h1v1h-1z M36,4h1v1h-1z M37,4h1v1h-1z M38,4h1v1h-1z M39,4h1v1h-1z M41,4h1v1h-1z M45,4h1v1h-1z M46,4h1v1h-1z M47,4h1v1h-1z M48,4h1v1h-1z M50,4h1v1h-1z M51,4h1v1h-1z M52,4h1v1h-1z M53,4h1v1h-1z M55,4h1v1h-1z M57,4h1v1h-1z M58,4h1v1h-1z M60,4h1v1h-1z M62,4h1v1h-1z M65,4h1v1h-1z M71,4h1v1h-1z M73,4h1v1h-1z M76,4h1v1h-1z M77,4h1v1h-1z M78,4h1v1h-1z M79,4h1v1h-1z M80,4h1v1h-1z M81,4h1v1h-1z M82,4h1v1h-1z M83,4h1v1h-1z M84,4h1v1h-1z M86,4h1v1h-1z M90,4h1v1h-1z M93,4h1v1h-1z M94,4h1v1h-1z M95,4h1v1h-1z M97,4h1v1h-1z M98,4h1v1h-1z M102,4h1v1h-1z M103,4h1v1h-1z M104,4h1v1h-1z M105,4h1v1h-1z M106,4h1v1h-1z M107,4h1v1h-1z M108,4h1v1h-1z M4,5h1v1h-1z M10,5h1v1h-1z M12,5h1v1h-1z M13,5h1v1h-1z M16,5h1v1h-1z M17,5h1v1h-1z M18,5h1v1h-1z M20,5h1v1h-1z M21,5h1v1h-1z M24,5h1v1h-1z M28,5h1v1h-1z M30,5h1v1h-1z M31,5h1v1h-1z M32,5h1v1h-1z M33,5h1v1h-1z M34,5h1v1h-1z M36,5h1v1h-1z M37,5h1v1h-1z M39,5h1v1h-1z M41,5h1v1h-1z M42,5h1v1h-1z M46,5h1v1h-1z M47,5h1v1h-1z M48,5h1v1h-1z M49,5h1v1h-1z M52,5h1v1h-1z M54,5h1v1h-1z M55,5h1v1h-1z M58,5h1v1h-1z M59,5h1v1h-1z M60,5h1v1h-1z M61,5h1v1h-1z M66,5h1v1h-1z M67,5h1v1h-1z M69,5h1v1h-1z M70,5h1v1h-1z M72,5h1v1h-1z M78,5h1v1h-1z M79,5h1v1h-1z M81,5h1v1h-1z M82,5h1v1h-1z M87,5h1v1h-1z M90,5h1v1h-1z M91,5h1v1h-1z M93,5h1v1h-1z M94,5h1v1h-1z M96,5h1v1h-1z M98,5h1v1h-1z M102,5h1v1h-1z M108,5h1v1h-1z M4,6h1v1h-1z M6,6h1v1h-1z M7,6h1v1h-1z M8,6h1v1h-1z M10,6h1v1h-1z M12,6h1v1h-1z M14,6h1v1h-1z M15,6h1v1h-1z M16,6h1v1h-1z M17,6h1v1h-1z M19,6h1v1h-1z M21,6h1v1h-1z M22,6h1v1h-1z M23,6h1v1h-1z M24,6h1v1h-1z M25,6h1v1h-1z M26,6h1v1h-1z M29,6h1v1h-1z M32,6h1v1h-1z M33,6h1v1h-1z M34,6h1v1h-1z M35,6h1v1h-1z M41,6h1v1h-1z M42,6h1v1h-1z M44,6h1v1h-1z M46,6h1v1h-1z M47,6h1v1h-1z M50,6h1v1h-1z M54,6h1v1h-1z M56,6h1v1h-1z M58,6h1v1h-1z M59,6h1v1h-1z M61,6h1v1h-1z M62,6h1v1h-1z M65,6h1v1h-1z M66,6h1v1h-1z M68,6h1v1h-1z M70,6h1v1h-1z M71,6h1v1h-1z M78,6h1v1h-1z M80,6h1v1h-1z M82,6h1v1h-1z M87,6h1v1h-1z M92,6h1v1h-1z M94,6h1v1h-1z M95,6h1v1h-1z M97,6h1v1h-1z M98,6h1v1h-1z M99,6h1v1h-1z M102,6h1v1h-1z M104,6h1v1h-1z M105,6h1v1h-1z M106,6h1v1h-1z M108,6h1v1h-1z M4,7h1v1h-1z M6,7h1v1h-1z M7,7h1v1h-1z M8,7h1v1h-1z M10,7h1v1h-1z M12,7h1v1h-1z M13,7h1v1h-1z M14,7h1v1h-1z M18,7h1v1h-1z M19,7h1v1h-1z M20,7h1v1h-1z M23,7h1v1h-1z M24,7h1v1h-1z M25,7h1v1h-1z M27,7h1v1h-1z M32,7h1v1h-1z M33,7h1v1h-1z M35,7h1v1h-1z M36,7h1v1h-1z M37,7h1v1h-1z M38,7h1v1h-1z M40,7h1v1h-1z M45,7h1v1h-1z M46,7h1v1h-1z M47,7h1v1h-1z M52,7h1v1h-1z M53,7h1v1h-1z M54,7h1v1h-1z M56,7h1v1h-1z M59,7h1v1h-1z M61,7h1v1h-1z M62,7h1v1h-1z M63,7h1v1h-1z M65,7h1v1h-1z M73,7h1v1h-1z M74,7h1v1h-1z M75,7h1v1h-1z M80,7h1v1h-1z M83,7h1v1h-1z M87,7h1v1h-1z M91,7h1v1h-1z M95,7h1v1h-1z M100,7h1v1h-1z M102,7h1v1h-1z M104,7h1v1h-1z M105,7h1v1h-1z M106,7h1v1h-1z M108,7h1v1h-1z M4,8h1v1h-1z M6,8h1v1h-1z M7,8h1v1h-1z M8,8h1v1h-1z M10,8h1v1h-1z M14,8h1v1h-1z M15,8h1v1h-1z M19,8h1v1h-1z M20,8h1v1h-1z M22,8h1v1h-1z M24,8h1v1h-1z M25,8h1v1h-1z M28,8h1v1h-1z M29,8h1v1h-1z M30,8h1v1h-1z M31,8h1v1h-1z M32,8h1v1h-1z M35,8h1v1h-1z M36,8h1v1h-1z M43,8h1v1h-1z M45,8h1v1h-1z M46,8h1v1h-1z M50,8h1v1h-1z M51,8h1v1h-1z M52,8h1v1h-1z M53,8h1v1h-1z M54,8h1v1h-1z M55,8h1v1h-1z M56,8h1v1h-1z M57,8h1v1h-1z M58,8h1v1h-1z M61,8h1v1h-1z M65,8h1v1h-1z M68,8h1v1h-1z M69,8h1v1h-1z M70,8h1v1h-1z M72,8h1v1h-1z M73,8h1v1h-1z M75,8h1v1h-1z M76,8h1v1h-1z M77,8h1v1h-1z M78,8h1v1h-1z M79,8h1v1h-1z M80,8h1v1h-1z M81,8h1v1h-1z M85,8h1v1h-1z M86,8h1v1h-1z M87,8h1v1h-1z M88,8h1v1h-1z M90,8h1v1h-1z M91,8h1v1h-1z M92,8h1v1h-1z M93,8h1v1h-1z M95,8h1v1h-1z M96,8h1v1h-1z M99,8h1v1h-1z M100,8h1v1h-1z M102,8h1v1h-1z M104,8h1v1h-1z M105,8h1v1h-1z M106,8h1v1h-1z M108,8h1v1h-1z M4,9h1v1h-1z M10,9h1v1h-1z M12,9h1v1h-1z M14,9h1v1h-1z M15,9h1v1h-1z M18,9h1v1h-1z M19,9h1v1h-1z M20,9h1v1h-1z M21,9h1v1h-1z M25,9h1v1h-1z M27,9h1v1h-1z M28,9h1v1h-1z M32,9h1v1h-1z M33,9h1v1h-1z M34,9h1v1h-1z M35,9h1v1h-1z M37,9h1v1h-1z M40,9h1v1h-1z M42,9h1v1h-1z M44,9h1v1h-1z M45,9h1v1h-1z M46,9h1v1h-1z M47,9h1v1h-1z M49,9h1v1h-1z M52,9h1v1h-1z M56,9h1v1h-1z M57,9h1v1h-1z M58,9h1v1h-1z M59,9h1v1h-1z M60,9h1v1h-1z M61,9h1v1h-1z M64,9h1v1h-1z M66,9h1v1h-1z M67,9h1v1h-1z M70,9h1v1h-1z M73,9h1v1h-1z M75,9h1v1h-1z M76,9h1v1h-1z M80,9h1v1h-1z M81,9h1v1h-1z M82,9h1v1h-1z M83,9h1v1h-1z M85,9h1v1h-1z M90,9h1v1h-1z M93,9h1v1h-1z M94,9h1v1h-1z M95,9h1v1h-1z M99,9h1v1h-1z M102,9h1v1h-1z M108,9h1v1h-1z M4,10h1v1h-1z M5,10h1v1h-1z M6,10h1v1h-1z M7,10h1v1h-1z M8,10h1v1h-1z M9,10h1v1h-1z M10,10h1v1h-1z M12,10h1v1h-1z M14,10h1v1h-1z M16,10h1v1h-1z M18,10h1v1h-1z M20,10h1v1h-1z M22,10h1v1h-1z M24,10h1v1h-1z M26,10h1v1h-1z M28,10h1v1h-1z M30,10h1v1h-1z M32,10h1v1h-1z M34,10h1v1h-1z M36,10h1v1h-1z M38,10h1v1h-1z M40,10h1v1h-1z M42,10h1v1h-1z M44,10h1v1h-1z M46,10h1v1h-1z M48,10h1v1h-1z M50,10h1v1h-1z M52,10h1v1h-1z M54,10h1v1h-1z M56,10h1v1h-1z M58,10h1v1h-1z M60,10h1v1h-1z M62,10h1v1h-1z M64,10h1v1h-1z M66,10h1v1h-1z M68,10h1v1h-1z M70,10h1v1h-1z M72,10h1v1h-1z M74,10h1v1h-1z M76,10h1v1h-1z M78,10h1v1h-1z M80,10h1v1h-1z M82,10h1v1h-1z M84,10h1v1h-1z M86,10h1v1h-1z M88,10h1v1h-1z M90,10h1v1h-1z M92,10h1v1h-1z M94,10h1v1h-1z M96,10h1v1h-1z M98,10h1v1h-1z M100,10h1v1h-1z M102,10h1v1h-1z M103,10h1v1h-1z M104,10h1v1h-1z M105,10h1v1h-1z M106,10h1v1h-1z M107,10h1v1h-1z M108,10h1v1h-1z M13,11h1v1h-1z M14,11h1v1h-1z M16,11h1v1h-1z M18,11h1v1h-1z M19,11h1v1h-1z M24,11h1v1h-1z M25,11h1v1h-1z M27,11h1v1h-1z M28,11h1v1h-1z M32,11h1v1h-1z M33,11h1v1h-1z M34,11h1v1h-1z M35,11h1v1h-1z M37,11h1v1h-1z M44,11h1v1h-1z M45,11h1v1h-1z M46,11h1v1h-1z M47,11h1v1h-1z M49,11h1v1h-1z M52,11h1v1h-1z M56,11h1v1h-1z M59,11h1v1h-1z M61,11h1v1h-1z M66,11h1v1h-1z M68,11h1v1h-1z M69,11h1v1h-1z M70,11h1v1h-1z M76,11h1v1h-1z M80,11h1v1h-1z M81,11h1v1h-1z M83,11h1v1h-1z M85,11h1v1h-1z M86,11h1v1h-1z M89,11h1v1h-1z M92,11h1v1h-1z M93,11h1v1h-1z M94,11h1v1h-1z M95,11h1v1h-1z M99,11h1v1h-1z M100,11h1v1h-1z M4,12h1v1h-1z M5,12h1v1h-1z M8,12h1v1h-1z M9,12h1v1h-1z M10,12h1v1h-1z M13,12h1v1h-1z M17,12h1v1h-1z M25,12h1v1h-1z M27,12h1v1h-1z M28,12h1v1h-1z M29,12h1v1h-1z M30,12h1v1h-1z M31,12h1v1h-1z M32,12h1v1h-1z M34,12h1v1h-1z M35,12h1v1h-1z M36,12h1v1h-1z M37,12h1v1h-1z M42,12h1v1h-1z M48,12h1v1h-1z M49,12h1v1h-1z M52,12h1v1h-1z M53,12h1v1h-1z M54,12h1v1h-1z M55,12h1v1h-1z M56,12h1v1h-1z M58,12h1v1h-1z M60,12h1v1h-1z M61,12h1v1h-1z M65,12h1v1h-1z M67,12h1v1h-1z M68,12h1v1h-1z M71,12h1v1h-1z M72,12h1v1h-1z M73,12h1v1h-1z M76,12h1v1h-1z M77,12h1v1h-1z M78,12h1v1h-1z M79,12h1v1h-1z M80,12h1v1h-1z M81,12h1v1h-1z M82,12h1v1h-1z M85,12h1v1h-1z M86,12h1v1h-1z M87,12h1v1h-1z M88,12h1v1h-1z M94,12h1v1h-1z M96,12h1v1h-1z M99,12h1v1h-1z M100,12h1v1h-1z M103,12h1v1h-1z M105,12h1v1h-1z M106,12h1v1h-1z M107,12h1v1h-1z M108,12h1v1h-1z M4,13h1v1h-1z M7,13h1v1h-1z M8,13h1v1h-1z M9,13h1v1h-1z M11,13h1v1h-1z M12,13h1v1h-1z M14,13h1v1h-1z M15,13h1v1h-1z M16,13h1v1h-1z M19,13h1v1h-1z M20,13h1v1h-1z M22,13h1v1h-1z M23,13h1v1h-1z M26,13h1v1h-1z M27,13h1v1h-1z M28,13h1v1h-1z M32,13h1v1h-1z M33,13h1v1h-1z M34,13h1v1h-1z M35,13h1v1h-1z M37,13h1v1h-1z M39,13h1v1h-1z M40,13h1v1h-1z M43,13h1v1h-1z M46,13h1v1h-1z M49,13h1v1h-1z M50,13h1v1h-1z M51,13h1v1h-1z M52,13h1v1h-1z M53,13h1v1h-1z M54,13h1v1h-1z M56,13h1v1h-1z M58,13h1v1h-1z M59,13h1v1h-1z M64,13h1v1h-1z M67,13h1v1h-1z M69,13h1v1h-1z M70,13h1v1h-1z M72,13h1v1h-1z M73,13h1v1h-1z M74,13h1v1h-1z M75,13h1v1h-1z M76,13h1v1h-1z M78,13h1v1h-1z M79,13h1v1h-1z M80,13h1v1h-1z M82,13h1v1h-1z M84,13h1v1h-1z M85,13h1v1h-1z M89,13h1v1h-1z M90,13h1v1h-1z M91,13h1v1h-1z M92,13h1v1h-1z M93,13h1v1h-1z M94,13h1v1h-1z M95,13h1v1h-1z M96,13h1v1h-1z M98,13h1v1h-1z M99,13h1v1h-1z M100,13h1v1h-1z M102,13h1v1h-1z M103,13h1v1h-1z M105,13h1v1h-1z M106,13h1v1h-1z M5,14h1v1h-1z M8,14h1v1h-1z M10,14h1v1h-1z M12,14h1v1h-1z M14,14h1v1h-1z M17,14h1v1h-1z M20,14h1v1h-1z M21,14h1v1h-1z M26,14h1v1h-1z M27,14h1v1h-1z M31,14h1v1h-1z M35,14h1v1h-1z M38,14h1v1h-1z M39,14h1v1h-1z M41,14h1v1h-1z M50,14h1v1h-1z M52,14h1v1h-1z M53,14h1v1h-1z M56,14h1v1h-1z M59,14h1v1h-1z M60,14h1v1h-1z M62,14h1v1h-1z M64,14h1v1h-1z M74,14h1v1h-1z M77,14h1v1h-1z M79,14h1v1h-1z M80,14h1v1h-1z M86,14h1v1h-1z M87,14h1v1h-1z M89,14h1v1h-1z M96,14h1v1h-1z M98,14h1v1h-1z M99,14h1v1h-1z M100,14h1v1h-1z M101,14h1v1h-1z M102,14h1v1h-1z M104,14h1v1h-1z M105,14h1v1h-1z M4,15h1v1h-1z M6,15h1v1h-1z M9,15h1v1h-1z M13,15h1v1h-1z M14,15h1v1h-1z M16,15h1v1h-1z M18,15h1v1h-1z M19,15h1v1h-1z M20,15h1v1h-1z M21,15h1v1h-1z M22,15h1v1h-1z M23,15h1v1h-1z M24,15h1v1h-1z M26,15h1v1h-1z M27,15h1v1h-1z M28,15h1v1h-1z M29,15h1v1h-1z M30,15h1v1h-1z M32,15h1v1h-1z M35,15h1v1h-1z M37,15h1v1h-1z M38,15h1v1h-1z M44,15h1v1h-1z M46,15h1v1h-1z M47,15h1v1h-1z M51,15h1v1h-1z M56,15h1v1h-1z M57,15h1v1h-1z M58,15h1v1h-1z M65,15h1v1h-1z M66,15h1v1h-1z M67,15h1v1h-1z M68,15h1v1h-1z M71,15h1v1h-1z M74,15h1v1h-1z M75,15h1v1h-1z M76,15h1v1h-1z M80,15h1v1h-1z M82,15h1v1h-1z M83,15h1v1h-1z M86,15h1v1h-1z M92,15h1v1h-1z M95,15h1v1h-1z M97,15h1v1h-1z M98,15h1v1h-1z M104,15h1v1h-1z M105,15h1v1h-1z M107,15h1v1h-1z M5,16h1v1h-1z M6,16h1v1h-1z M8,16h1v1h-1z M10,16h1v1h-1z M19,16h1v1h-1z M22,16h1v1h-1z M26,16h1v1h-1z M28,16h1v1h-1z M32,16h1v1h-1z M35,16h1v1h-1z M38,16h1v1h-1z M39,16h1v1h-1z M40,16h1v1h-1z M41,16h1v1h-1z M42,16h1v1h-1z M43,16h1v1h-1z M44,16h1v1h-1z M45,16h1v1h-1z M46,16h1v1h-1z M47,16h1v1h-1z M48,16h1v1h-1z M51,16h1v1h-1z M56,16h1v1h-1z M57,16h1v1h-1z M58,16h1v1h-1z M60,16h1v1h-1z M62,16h1v1h-1z M63,16h1v1h-1z M65,16h1v1h-1z M66,16h1v1h-1z M67,16h1v1h-1z M71,16h1v1h-1z M72,16h1v1h-1z M78,16h1v1h-1z M79,16h1v1h-1z M82,16h1v1h-1z M83,16h1v1h-1z M85,16h1v1h-1z M88,16h1v1h-1z M89,16h1v1h-1z M90,16h1v1h-1z M91,16h1v1h-1z M94,16h1v1h-1z M95,16h1v1h-1z M99,16h1v1h-1z M100,16h1v1h-1z M103,16h1v1h-1z M105,16h1v1h-1z M107,16h1v1h-1z M7,17h1v1h-1z M8,17h1v1h-1z M11,17h1v1h-1z M14,17h1v1h-1z M17,17h1v1h-1z M22,17h1v1h-1z M24,17h1v1h-1z M25,17h1v1h-1z M26,17h1v1h-1z M27,17h1v1h-1z M28,17h1v1h-1z M35,17h1v1h-1z M38,17h1v1h-1z M40,17h1v1h-1z M42,17h1v1h-1z M44,17h1v1h-1z M45,17h1v1h-1z M47,17h1v1h-1z M48,17h1v1h-1z M50,17h1v1h-1z M52,17h1v1h-1z M54,17h1v1h-1z M58,17h1v1h-1z M60,17h1v1h-1z M62,17h1v1h-1z M64,17h1v1h-1z M72,17h1v1h-1z M73,17h1v1h-1z M74,17h1v1h-1z M75,17h1v1h-1z M76,17h1v1h-1z M77,17h1v1h-1z M78,17h1v1h-1z M79,17h1v1h-1z M81,17h1v1h-1z M82,17h1v1h-1z M84,17h1v1h-1z M85,17h1v1h-1z M86,17h1v1h-1z M87,17h1v1h-1z M88,17h1v1h-1z M95,17h1v1h-1z M96,17h1v1h-1z M98,17h1v1h-1z M100,17h1v1h-1z M101,17h1v1h-1z M102,17h1v1h-1z M104,17h1v1h-1z M105,17h1v1h-1z M108,17h1v1h-1z M6,18h1v1h-1z M9,18h1v1h-1z M10,18h1v1h-1z M11,18h1v1h-1z M13,18h1v1h-1z M15,18h1v1h-1z M16,18h1v1h-1z M17,18h1v1h-1z M19,18h1v1h-1z M21,18h1v1h-1z M22,18h1v1h-1z M23,18h1v1h-1z M26,18h1v1h-1z M27,18h1v1h-1z M28,18h1v1h-1z M29,18h1v1h-1z M35,18h1v1h-1z M36,18h1v1h-1z M38,18h1v1h-1z M40,18h1v1h-1z M41,18h1v1h-1z M44,18h1v1h-1z M48,18h1v1h-1z M50,18h1v1h-1z M55,18h1v1h-1z M56,18h1v1h-1z M59,18h1v1h-1z M60,18h1v1h-1z M62,18h1v1h-1z M71,18h1v1h-1z M74,18h1v1h-1z M79,18h1v1h-1z M80,18h1v1h-1z M85,18h1v1h-1z M86,18h1v1h-1z M87,18h1v1h-1z M88,18h1v1h-1z M89,18h1v1h-1z M91,18h1v1h-1z M92,18h1v1h-1z M93,18h1v1h-1z M95,18h1v1h-1z M96,18h1v1h-1z M97,18h1v1h-1z M98,18h1v1h-1z M102,18h1v1h-1z M104,18h1v1h-1z M105,18h1v1h-1z M106,18h1v1h-1z M107,18h1v1h-1z M4,19h1v1h-1z M5,19h1v1h-1z M6,19h1v1h-1z M11,19h1v1h-1z M16,19h1v1h-1z M17,19h1v1h-1z M18,19h1v1h-1z M26,19h1v1h-1z M27,19h1v1h-1z M29,19h1v1h-1z M31,19h1v1h-1z M32,19h1v1h-1z M33,19h1v1h-1z M34,19h1v1h-1z M41,19h1v1h-1z M44,19h1v1h-1z M45,19h1v1h-1z M46,19h1v1h-1z M50,19h1v1h-1z M51,19h1v1h-1z M53,19h1v1h-1z M54,19h1v1h-1z M56,19h1v1h-1z M57,19h1v1h-1z M58,19h1v1h-1z M59,19h1v1h-1z M65,19h1v1h-1z M66,19h1v1h-1z M67,19h1v1h-1z M68,19h1v1h-1z M69,19h1v1h-1z M70,19h1v1h-1z M71,19h1v1h-1z M73,19h1v1h-1z M75,19h1v1h-1z M77,19h1v1h-1z M78,19h1v1h-1z M80,19h1v1h-1z M81,19h1v1h-1z M83,19h1v1h-1z M90,19h1v1h-1z M92,19h1v1h-1z M94,19h1v1h-1z M100,19h1v1h-1z M101,19h1v1h-1z M104,19h1v1h-1z M105,19h1v1h-1z M107,19h1v1h-1z M5,20h1v1h-1z M6,20h1v1h-1z M8,20h1v1h-1z M9,20h1v1h-1z M10,20h1v1h-1z M13,20h1v1h-1z M15,20h1v1h-1z M17,20h1v1h-1z M26,20h1v1h-1z M28,20h1v1h-1z M31,20h1v1h-1z M33,20h1v1h-1z M34,20h1v1h-1z M36,20h1v1h-1z M38,20h1v1h-1z M41,20h1v1h-1z M42,20h1v1h-1z M45,20h1v1h-1z M49,20h1v1h-1z M50,20h1v1h-1z M55,20h1v1h-1z M56,20h1v1h-1z M57,20h1v1h-1z M58,20h1v1h-1z M59,20h1v1h-1z M61,20h1v1h-1z M63,20h1v1h-1z M65,20h1v1h-1z M66,20h1v1h-1z M69,20h1v1h-1z M75,20h1v1h-1z M78,20h1v1h-1z M79,20h1v1h-1z M80,20h1v1h-1z M83,20h1v1h-1z M84,20h1v1h-1z M87,20h1v1h-1z M89,20h1v1h-1z M91,20h1v1h-1z M94,20h1v1h-1z M96,20h1v1h-1z M97,20h1v1h-1z M100,20h1v1h-1z M102,20h1v1h-1z M103,20h1v1h-1z M105,20h1v1h-1z M107,20h1v1h-1z M6,21h1v1h-1z M7,21h1v1h-1z M8,21h1v1h-1z M12,21h1v1h-1z M13,21h1v1h-1z M14,21h1v1h-1z M15,21h1v1h-1z M17,21h1v1h-1z M21,21h1v1h-1z M23,21h1v1h-1z M24,21h1v1h-1z M25,21h1v1h-1z M27,21h1v1h-1z M28,21h1v1h-1z M30,21h1v1h-1z M32,21h1v1h-1z M35,21h1v1h-1z M36,21h1v1h-1z M37,21h1v1h-1z M39,21h1v1h-1z M40,21h1v1h-1z M41,21h1v1h-1z M42,21h1v1h-1z M43,21h1v1h-1z M45,21h1v1h-1z M46,21h1v1h-1z M48,21h1v1h-1z M49,21h1v1h-1z M50,21h1v1h-1z M51,21h1v1h-1z M52,21h1v1h-1z M53,21h1v1h-1z M54,21h1v1h-1z M55,21h1v1h-1z M57,21h1v1h-1z M58,21h1v1h-1z M61,21h1v1h-1z M62,21h1v1h-1z M63,21h1v1h-1z M66,21h1v1h-1z M67,21h1v1h-1z M70,21h1v1h-1z M73,21h1v1h-1z M76,21h1v1h-1z M77,21h1v1h-1z M79,21h1v1h-1z M82,21h1v1h-1z M83,21h1v1h-1z M84,21h1v1h-1z M85,21h1v1h-1z M86,21h1v1h-1z M88,21h1v1h-1z M89,21h1v1h-1z M92,21h1v1h-1z M95,21h1v1h-1z M99,21h1v1h-1z M101,21h1v1h-1z M102,21h1v1h-1z M103,21h1v1h-1z M104,21h1v1h-1z M6,22h1v1h-1z M8,22h1v1h-1z M10,22h1v1h-1z M12,22h1v1h-1z M15,22h1v1h-1z M16,22h1v1h-1z M17,22h1v1h-1z M18,22h1v1h-1z M19,22h1v1h-1z M22,22h1v1h-1z M24,22h1v1h-1z M25,22h1v1h-1z M26,22h1v1h-1z M29,22h1v1h-1z M35,22h1v1h-1z M36,22h1v1h-1z M38,22h1v1h-1z M39,22h1v1h-1z M44,22h1v1h-1z M50,22h1v1h-1z M51,22h1v1h-1z M53,22h1v1h-1z M55,22h1v1h-1z M62,22h1v1h-1z M64,22h1v1h-1z M65,22h1v1h-1z M72,22h1v1h-1z M74,22h1v1h-1z M75,22h1v1h-1z M76,22h1v1h-1z M77,22h1v1h-1z M79,22h1v1h-1z M83,22h1v1h-1z M86,22h1v1h-1z M89,22h1v1h-1z M91,22h1v1h-1z M96,22h1v1h-1z M98,22h1v1h-1z M99,22h1v1h-1z M101,22h1v1h-1z M104,22h1v1h-1z M106,22h1v1h-1z M4,23h1v1h-1z M5,23h1v1h-1z M6,23h1v1h-1z M8,23h1v1h-1z M11,23h1v1h-1z M14,23h1v1h-1z M16,23h1v1h-1z M17,23h1v1h-1z M18,23h1v1h-1z M20,23h1v1h-1z M23,23h1v1h-1z M24,23h1v1h-1z M27,23h1v1h-1z M28,23h1v1h-1z M29,23h1v1h-1z M31,23h1v1h-1z M32,23h1v1h-1z M35,23h1v1h-1z M41,23h1v1h-1z M42,23h1v1h-1z M44,23h1v1h-1z M46,23h1v1h-1z M47,23h1v1h-1z M50,23h1v1h-1z M54,23h1v1h-1z M56,23h1v1h-1z M58,23h1v1h-1z M59,23h1v1h-1z M63,23h1v1h-1z M67,23h1v1h-1z M68,23h1v1h-1z M71,23h1v1h-1z M73,23h1v1h-1z M75,23h1v1h-1z M77,23h1v1h-1z M80,23h1v1h-1z M81,23h1v1h-1z M83,23h1v1h-1z M85,23h1v1h-1z M90,23h1v1h-1z M92,23h1v1h-1z M94,23h1v1h-1z M95,23h1v1h-1z M97,23h1v1h-1z M99,23h1v1h-1z M100,23h1v1h-1z M101,23h1v1h-1z M108,23h1v1h-1z M5,24h1v1h-1z M7,24h1v1h-1z M8,24h1v1h-1z M9,24h1v1h-1z M10,24h1v1h-1z M11,24h1v1h-1z M14,24h1v1h-1z M16,24h1v1h-1z M18,24h1v1h-1z M20,24h1v1h-1z M22,24h1v1h-1z M24,24h1v1h-1z M25,24h1v1h-1z M26,24h1v1h-1z M27,24h1v1h-1z M32,24h1v1h-1z M33,24h1v1h-1z M34,24h1v1h-1z M36,24h1v1h-1z M38,24h1v1h-1z M40,24h1v1h-1z M41,24h1v1h-1z M43,24h1v1h-1z M44,24h1v1h-1z M48,24h1v1h-1z M49,24h1v1h-1z M52,24h1v1h-1z M54,24h1v1h-1z M55,24h1v1h-1z M56,24h1v1h-1z M60,24h1v1h-1z M64,24h1v1h-1z M66,24h1v1h-1z M71,24h1v1h-1z M72,24h1v1h-1z M73,24h1v1h-1z M75,24h1v1h-1z M76,24h1v1h-1z M77,24h1v1h-1z M80,24h1v1h-1z M81,24h1v1h-1z M83,24h1v1h-1z M85,24h1v1h-1z M86,24h1v1h-1z M87,24h1v1h-1z M89,24h1v1h-1z M90,24h1v1h-1z M93,24h1v1h-1z M94,24h1v1h-1z M100,24h1v1h-1z M102,24h1v1h-1z M103,24h1v1h-1z M105,24h1v1h-1z M108,24h1v1h-1z M6,25h1v1h-1z M9,25h1v1h-1z M13,25h1v1h-1z M15,25h1v1h-1z M16,25h1v1h-1z M17,25h1v1h-1z M18,25h1v1h-1z M21,25h1v1h-1z M23,25h1v1h-1z M24,25h1v1h-1z M27,25h1v1h-1z M28,25h1v1h-1z M31,25h1v1h-1z M32,25h1v1h-1z M33,25h1v1h-1z M36,25h1v1h-1z M41,25h1v1h-1z M44,25h1v1h-1z M45,25h1v1h-1z M48,25h1v1h-1z M49,25h1v1h-1z M51,25h1v1h-1z M52,25h1v1h-1z M55,25h1v1h-1z M57,25h1v1h-1z M58,25h1v1h-1z M60,25h1v1h-1z M62,25h1v1h-1z M63,25h1v1h-1z M64,25h1v1h-1z M66,25h1v1h-1z M68,25h1v1h-1z M70,25h1v1h-1z M72,25h1v1h-1z M73,25h1v1h-1z M74,25h1v1h-1z M75,25h1v1h-1z M76,25h1v1h-1z M78,25h1v1h-1z M84,25h1v1h-1z M85,25h1v1h-1z M90,25h1v1h-1z M92,25h1v1h-1z M93,25h1v1h-1z M94,25h1v1h-1z M96,25h1v1h-1z M98,25h1v1h-1z M99,25h1v1h-1z M101,25h1v1h-1z M104,25h1v1h-1z M107,25h1v1h-1z M7,26h1v1h-1z M10,26h1v1h-1z M12,26h1v1h-1z M14,26h1v1h-1z M16,26h1v1h-1z M17,26h1v1h-1z M24,26h1v1h-1z M25,26h1v1h-1z M26,26h1v1h-1z M29,26h1v1h-1z M31,26h1v1h-1z M33,26h1v1h-1z M36,26h1v1h-1z M38,26h1v1h-1z M40,26h1v1h-1z M41,26h1v1h-1z M44,26h1v1h-1z M45,26h1v1h-1z M47,26h1v1h-1z M48,26h1v1h-1z M50,26h1v1h-1z M52,26h1v1h-1z M53,26h1v1h-1z M62,26h1v1h-1z M64,26h1v1h-1z M67,26h1v1h-1z M68,26h1v1h-1z M72,26h1v1h-1z M73,26h1v1h-1z M74,26h1v1h-1z M77,26h1v1h-1z M79,26h1v1h-1z M83,26h1v1h-1z M86,26h1v1h-1z M89,26h1v1h-1z M91,26h1v1h-1z M92,26h1v1h-1z M95,26h1v1h-1z M98,26h1v1h-1z M99,26h1v1h-1z M104,26h1v1h-1z M105,26h1v1h-1z M106,26h1v1h-1z M107,26h1v1h-1z M4,27h1v1h-1z M5,27h1v1h-1z M6,27h1v1h-1z M12,27h1v1h-1z M14,27h1v1h-1z M17,27h1v1h-1z M18,27h1v1h-1z M22,27h1v1h-1z M23,27h1v1h-1z M27,27h1v1h-1z M28,27h1v1h-1z M30,27h1v1h-1z M31,27h1v1h-1z M32,27h1v1h-1z M34,27h1v1h-1z M35,27h1v1h-1z M38,27h1v1h-1z M41,27h1v1h-1z M44,27h1v1h-1z M46,27h1v1h-1z M49,27h1v1h-1z M52,27h1v1h-1z M53,27h1v1h-1z M55,27h1v1h-1z M56,27h1v1h-1z M58,27h1v1h-1z M59,27h1v1h-1z M61,27h1v1h-1z M65,27h1v1h-1z M66,27h1v1h-1z M68,27h1v1h-1z M70,27h1v1h-1z M71,27h1v1h-1z M75,27h1v1h-1z M77,27h1v1h-1z M78,27h1v1h-1z M80,27h1v1h-1z M81,27h1v1h-1z M83,27h1v1h-1z M85,27h1v1h-1z M89,27h1v1h-1z M92,27h1v1h-1z M93,27h1v1h-1z M94,27h1v1h-1z M95,27h1v1h-1z M97,27h1v1h-1z M98,27h1v1h-1z M100,27h1v1h-1z M101,27h1v1h-1z M105,27h1v1h-1z M108,27h1v1h-1z M4,28h1v1h-1z M7,28h1v1h-1z M8,28h1v1h-1z M9,28h1v1h-1z M10,28h1v1h-1z M11,28h1v1h-1z M12,28h1v1h-1z M13,28h1v1h-1z M15,28h1v1h-1z M16,28h1v1h-1z M17,28h1v1h-1z M18,28h1v1h-1z M21,28h1v1h-1z M24,28h1v1h-1z M25,28h1v1h-1z M27,28h1v1h-1z M28,28h1v1h-1z M29,28h1v1h-1z M30,28h1v1h-1z M31,28h1v1h-1z M32,28h1v1h-1z M33,28h1v1h-1z M34,28h1v1h-1z M36,28h1v1h-1z M37,28h1v1h-1z M41,28h1v1h-1z M45,28h1v1h-1z M46,28h1v1h-1z M48,28h1v1h-1z M50,28h1v1h-1z M52,28h1v1h-1z M53,28h1v1h-1z M54,28h1v1h-1z M55,28h1v1h-1z M56,28h1v1h-1z M60,28h1v1h-1z M62,28h1v1h-1z M64,28h1v1h-1z M65,28h1v1h-1z M66,28h1v1h-1z M67,28h1v1h-1z M68,28h1v1h-1z M71,28h1v1h-1z M73,28h1v1h-1z M75,28h1v1h-1z M76,28h1v1h-1z M77,28h1v1h-1z M78,28h1v1h-1z M79,28h1v1h-1z M80,28h1v1h-1z M81,28h1v1h-1z M83,28h1v1h-1z M87,28h1v1h-1z M89,28h1v1h-1z M97,28h1v1h-1z M98,28h1v1h-1z M99,28h1v1h-1z M100,28h1v1h-1z M101,28h1v1h-1z M102,28h1v1h-1z M103,28h1v1h-1z M104,28h1v1h-1z M105,28h1v1h-1z M108,28h1v1h-1z M4,29h1v1h-1z M8,29h1v1h-1z M12,29h1v1h-1z M17,29h1v1h-1z M23,29h1v1h-1z M25,29h1v1h-1z M26,29h1v1h-1z M27,29h1v1h-1z M28,29h1v1h-1z M32,29h1v1h-1z M33,29h1v1h-1z M34,29h1v1h-1z M35,29h1v1h-1z M36,29h1v1h-1z M38,29h1v1h-1z M39,29h1v1h-1z M42,29h1v1h-1z M43,29h1v1h-1z M45,29h1v1h-1z M48,29h1v1h-1z M49,29h1v1h-1z M52,29h1v1h-1z M56,29h1v1h-1z M58,29h1v1h-1z M59,29h1v1h-1z M60,29h1v1h-1z M63,29h1v1h-1z M64,29h1v1h-1z M66,29h1v1h-1z M68,29h1v1h-1z M70,29h1v1h-1z M71,29h1v1h-1z M72,29h1v1h-1z M73,29h1v1h-1z M74,29h1v1h-1z M76,29h1v1h-1z M80,29h1v1h-1z M81,29h1v1h-1z M82,29h1v1h-1z M83,29h1v1h-1z M84,29h1v1h-1z M85,29h1v1h-1z M90,29h1v1h-1z M91,29h1v1h-1z M92,29h1v1h-1z M95,29h1v1h-1z M96,29h1v1h-1z M97,29h1v1h-1z M98,29h1v1h-1z M100,29h1v1h-1z M104,29h1v1h-1z M105,29h1v1h-1z M107,29h1v1h-1z M5,30h1v1h-1z M6,30h1v1h-1z M7,30h1v1h-1z M8,30h1v1h-1z M10,30h1v1h-1z M12,30h1v1h-1z M15,30h1v1h-1z M17,30h1v1h-1z M18,30h1v1h-1z M21,30h1v1h-1z M22,30h1v1h-1z M23,30h1v1h-1z M26,30h1v1h-1z M28,30h1v1h-1z M30,30h1v1h-1z M32,30h1v1h-1z M35,30h1v1h-1z M36,30h1v1h-1z M38,30h1v1h-1z M40,30h1v1h-1z M41,30h1v1h-1z M47,30h1v1h-1z M48,30h1v1h-1z M49,30h1v1h-1z M50,30h1v1h-1z M52,30h1v1h-1z M54,30h1v1h-1z M56,30h1v1h-1z M59,30h1v1h-1z M60,30h1v1h-1z M62,30h1v1h-1z M64,30h1v1h-1z M65,30h1v1h-1z M67,30h1v1h-1z M71,30h1v1h-1z M72,30h1v1h-1z M74,30h1v1h-1z M76,30h1v1h-1z M78,30h1v1h-1z M80,30h1v1h-1z M83,30h1v1h-1z M84,30h1v1h-1z M86,30h1v1h-1z M87,30h1v1h-1z M88,30h1v1h-1z M91,30h1v1h-1z M92,30h1v1h-1z M93,30h1v1h-1z M98,30h1v1h-1z M100,30h1v1h-1z M102,30h1v1h-1z M104,30h1v1h-1z M106,30h1v1h-1z M8,31h1v1h-1z M12,31h1v1h-1z M16,31h1v1h-1z M24,31h1v1h-1z M25,31h1v1h-1z M26,31h1v1h-1z M27,31h1v1h-1z M28,31h1v1h-1z M32,31h1v1h-1z M38,31h1v1h-1z M39,31h1v1h-1z M41,31h1v1h-1z M42,31h1v1h-1z M44,31h1v1h-1z M47,31h1v1h-1z M49,31h1v1h-1z M51,31h1v1h-1z M52,31h1v1h-1z M56,31h1v1h-1z M57,31h1v1h-1z M59,31h1v1h-1z M67,31h1v1h-1z M68,31h1v1h-1z M69,31h1v1h-1z M74,31h1v1h-1z M75,31h1v1h-1z M76,31h1v1h-1z M80,31h1v1h-1z M82,31h1v1h-1z M85,31h1v1h-1z M90,31h1v1h-1z M92,31h1v1h-1z M94,31h1v1h-1z M95,31h1v1h-1z M97,31h1v1h-1z M98,31h1v1h-1z M99,31h1v1h-1z M100,31h1v1h-1z M104,31h1v1h-1z M108,31h1v1h-1z M4,32h1v1h-1z M8,32h1v1h-1z M9,32h1v1h-1z M10,32h1v1h-1z M11,32h1v1h-1z M12,32h1v1h-1z M15,32h1v1h-1z M16,32h1v1h-1z M17,32h1v1h-1z M21,32h1v1h-1z M23,32h1v1h-1z M24,32h1v1h-1z M25,32h1v1h-1z M26,32h1v1h-1z M27,32h1v1h-1z M28,32h1v1h-1z M29,32h1v1h-1z M30,32h1v1h-1z M31,32h1v1h-1z M32,32h1v1h-1z M33,32h1v1h-1z M34,32h1v1h-1z M35,32h1v1h-1z M36,32h1v1h-1z M37,32h1v1h-1z M42,32h1v1h-1z M43,32h1v1h-1z M45,32h1v1h-1z M46,32h1v1h-1z M47,32h1v1h-1z M52,32h1v1h-1z M53,32h1v1h-1z M54,32h1v1h-1z M55,32h1v1h-1z M56,32h1v1h-1z M59,32h1v1h-1z M60,32h1v1h-1z M61,32h1v1h-1z M64,32h1v1h-1z M66,32h1v1h-1z M67,32h1v1h-1z M69,32h1v1h-1z M70,32h1v1h-1z M75,32h1v1h-1z M76,32h1v1h-1z M77,32h1v1h-1z M78,32h1v1h-1z M79,32h1v1h-1z M80,32h1v1h-1z M81,32h1v1h-1z M82,32h1v1h-1z M87,32h1v1h-1z M88,32h1v1h-1z M89,32h1v1h-1z M93,32h1v1h-1z M94,32h1v1h-1z M95,32h1v1h-1z M96,32h1v1h-1z M100,32h1v1h-1z M101,32h1v1h-1z M102,32h1v1h-1z M103,32h1v1h-1z M104,32h1v1h-1z M106,32h1v1h-1z M107,32h1v1h-1z M108,32h1v1h-1z M4,33h1v1h-1z M5,33h1v1h-1z M6,33h1v1h-1z M11,33h1v1h-1z M12,33h1v1h-1z M16,33h1v1h-1z M18,33h1v1h-1z M19,33h1v1h-1z M21,33h1v1h-1z M23,33h1v1h-1z M26,33h1v1h-1z M27,33h1v1h-1z M29,33h1v1h-1z M31,33h1v1h-1z M34,33h1v1h-1z M36,33h1v1h-1z M38,33h1v1h-1z M40,33h1v1h-1z M43,33h1v1h-1z M45,33h1v1h-1z M46,33h1v1h-1z M47,33h1v1h-1z M52,33h1v1h-1z M53,33h1v1h-1z M55,33h1v1h-1z M56,33h1v1h-1z M57,33h1v1h-1z M60,33h1v1h-1z M61,33h1v1h-1z M62,33h1v1h-1z M69,33h1v1h-1z M70,33h1v1h-1z M75,33h1v1h-1z M77,33h1v1h-1z M78,33h1v1h-1z M83,33h1v1h-1z M85,33h1v1h-1z M86,33h1v1h-1z M88,33h1v1h-1z M92,33h1v1h-1z M94,33h1v1h-1z M95,33h1v1h-1z M97,33h1v1h-1z M99,33h1v1h-1z M100,33h1v1h-1z M104,33h1v1h-1z M107,33h1v1h-1z M108,33h1v1h-1z M4,34h1v1h-1z M6,34h1v1h-1z M10,34h1v1h-1z M11,34h1v1h-1z M12,34h1v1h-1z M14,34h1v1h-1z M17,34h1v1h-1z M18,34h1v1h-1z M19,34h1v1h-1z M20,34h1v1h-1z M22,34h1v1h-1z M23,34h1v1h-1z M28,34h1v1h-1z M32,34h1v1h-1z M35,34h1v1h-1z M36,34h1v1h-1z M38,34h1v1h-1z M41,34h1v1h-1z M44,34h1v1h-1z M45,34h1v1h-1z M48,34h1v1h-1z M50,34h1v1h-1z M53,34h1v1h-1z M54,34h1v1h-1z M56,34h1v1h-1z M59,34h1v1h-1z M60,34h1v1h-1z M61,34h1v1h-1z M62,34h1v1h-1z M65,34h1v1h-1z M71,34h1v1h-1z M72,34h1v1h-1z M74,34h1v1h-1z M77,34h1v1h-1z M78,34h1v1h-1z M80,34h1v1h-1z M86,34h1v1h-1z M87,34h1v1h-1z M88,34h1v1h-1z M89,34h1v1h-1z M98,34h1v1h-1z M99,34h1v1h-1z M100,34h1v1h-1z M107,34h1v1h-1z M4,35h1v1h-1z M6,35h1v1h-1z M9,35h1v1h-1z M15,35h1v1h-1z M17,35h1v1h-1z M19,35h1v1h-1z M22,35h1v1h-1z M24,35h1v1h-1z M25,35h1v1h-1z M26,35h1v1h-1z M29,35h1v1h-1z M31,35h1v1h-1z M35,35h1v1h-1z M37,35h1v1h-1z M38,35h1v1h-1z M42,35h1v1h-1z M44,35h1v1h-1z M46,35h1v1h-1z M47,35h1v1h-1z M49,35h1v1h-1z M50,35h1v1h-1z M52,35h1v1h-1z M53,35h1v1h-1z M55,35h1v1h-1z M56,35h1v1h-1z M57,35h1v1h-1z M58,35h1v1h-1z M59,35h1v1h-1z M61,35h1v1h-1z M65,35h1v1h-1z M66,35h1v1h-1z M68,35h1v1h-1z M69,35h1v1h-1z M70,35h1v1h-1z M71,35h1v1h-1z M73,35h1v1h-1z M74,35h1v1h-1z M75,35h1v1h-1z M76,35h1v1h-1z M77,35h1v1h-1z M79,35h1v1h-1z M80,35h1v1h-1z M81,35h1v1h-1z M82,35h1v1h-1z M83,35h1v1h-1z M85,35h1v1h-1z M87,35h1v1h-1z M89,35h1v1h-1z M92,35h1v1h-1z M94,35h1v1h-1z M95,35h1v1h-1z M99,35h1v1h-1z M100,35h1v1h-1z M101,35h1v1h-1z M103,35h1v1h-1z M104,35h1v1h-1z M108,35h1v1h-1z M5,36h1v1h-1z M6,36h1v1h-1z M7,36h1v1h-1z M10,36h1v1h-1z M11,36h1v1h-1z M13,36h1v1h-1z M16,36h1v1h-1z M17,36h1v1h-1z M18,36h1v1h-1z M21,36h1v1h-1z M24,36h1v1h-1z M25,36h1v1h-1z M28,36h1v1h-1z M29,36h1v1h-1z M30,36h1v1h-1z M31,36h1v1h-1z M33,36h1v1h-1z M34,36h1v1h-1z M35,36h1v1h-1z M36,36h1v1h-1z M37,36h1v1h-1z M40,36h1v1h-1z M41,36h1v1h-1z M44,36h1v1h-1z M47,36h1v1h-1z M49,36h1v1h-1z M52,36h1v1h-1z M54,36h1v1h-1z M55,36h1v1h-1z M57,36h1v1h-1z M58,36h1v1h-1z M59,36h1v1h-1z M60,36h1v1h-1z M66,36h1v1h-1z M70,36h1v1h-1z M72,36h1v1h-1z M74,36h1v1h-1z M77,36h1v1h-1z M78,36h1v1h-1z M79,36h1v1h-1z M81,36h1v1h-1z M82,36h1v1h-1z M83,36h1v1h-1z M86,36h1v1h-1z M88,36h1v1h-1z M90,36h1v1h-1z M91,36h1v1h-1z M94,36h1v1h-1z M95,36h1v1h-1z M96,36h1v1h-1z M97,36h1v1h-1z M102,36h1v1h-1z M104,36h1v1h-1z M107,36h1v1h-1z M5,37h1v1h-1z M6,37h1v1h-1z M7,37h1v1h-1z M8,37h1v1h-1z M9,37h1v1h-1z M13,37h1v1h-1z M14,37h1v1h-1z M16,37h1v1h-1z M22,37h1v1h-1z M23,37h1v1h-1z M25,37h1v1h-1z M26,37h1v1h-1z M29,37h1v1h-1z M30,37h1v1h-1z M32,37h1v1h-1z M34,37h1v1h-1z M37,37h1v1h-1z M38,37h1v1h-1z M41,37h1v1h-1z M42,37h1v1h-1z M50,37h1v1h-1z M51,37h1v1h-1z M54,37h1v1h-1z M55,37h1v1h-1z M57,37h1v1h-1z M60,37h1v1h-1z M61,37h1v1h-1z M63,37h1v1h-1z M65,37h1v1h-1z M67,37h1v1h-1z M71,37h1v1h-1z M73,37h1v1h-1z M74,37h1v1h-1z M75,37h1v1h-1z M77,37h1v1h-1z M79,37h1v1h-1z M81,37h1v1h-1z M83,37h1v1h-1z M85,37h1v1h-1z M90,37h1v1h-1z M91,37h1v1h-1z M92,37h1v1h-1z M93,37h1v1h-1z M96,37h1v1h-1z M98,37h1v1h-1z M99,37h1v1h-1z M100,37h1v1h-1z M101,37h1v1h-1z M102,37h1v1h-1z M103,37h1v1h-1z M106,37h1v1h-1z M107,37h1v1h-1z M4,38h1v1h-1z M5,38h1v1h-1z M7,38h1v1h-1z M8,38h1v1h-1z M9,38h1v1h-1z M10,38h1v1h-1z M11,38h1v1h-1z M12,38h1v1h-1z M13,38h1v1h-1z M15,38h1v1h-1z M17,38h1v1h-1z M19,38h1v1h-1z M23,38h1v1h-1z M24,38h1v1h-1z M26,38h1v1h-1z M27,38h1v1h-1z M28,38h1v1h-1z M30,38h1v1h-1z M31,38h1v1h-1z M32,38h1v1h-1z M35,38h1v1h-1z M38,38h1v1h-1z M39,38h1v1h-1z M40,38h1v1h-1z M47,38h1v1h-1z M50,38h1v1h-1z M54,38h1v1h-1z M55,38h1v1h-1z M56,38h1v1h-1z M59,38h1v1h-1z M60,38h1v1h-1z M62,38h1v1h-1z M64,38h1v1h-1z M65,38h1v1h-1z M68,38h1v1h-1z M72,38h1v1h-1z M74,38h1v1h-1z M78,38h1v1h-1z M79,38h1v1h-1z M84,38h1v1h-1z M86,38h1v1h-1z M91,38h1v1h-1z M92,38h1v1h-1z M98,38h1v1h-1z M99,38h1v1h-1z M100,38h1v1h-1z M101,38h1v1h-1z M106,38h1v1h-1z M107,38h1v1h-1z M5,39h1v1h-1z M8,39h1v1h-1z M13,39h1v1h-1z M16,39h1v1h-1z M17,39h1v1h-1z M22,39h1v1h-1z M24,39h1v1h-1z M26,39h1v1h-1z M29,39h1v1h-1z M31,39h1v1h-1z M35,39h1v1h-1z M38,39h1v1h-1z M39,39h1v1h-1z M42,39h1v1h-1z M44,39h1v1h-1z M45,39h1v1h-1z M46,39h1v1h-1z M47,39h1v1h-1z M49,39h1v1h-1z M52,39h1v1h-1z M53,39h1v1h-1z M55,39h1v1h-1z M56,39h1v1h-1z M57,39h1v1h-1z M59,39h1v1h-1z M66,39h1v1h-1z M68,39h1v1h-1z M70,39h1v1h-1z M71,39h1v1h-1z M73,39h1v1h-1z M74,39h1v1h-1z M75,39h1v1h-1z M76,39h1v1h-1z M77,39h1v1h-1z M79,39h1v1h-1z M80,39h1v1h-1z M81,39h1v1h-1z M82,39h1v1h-1z M83,39h1v1h-1z M85,39h1v1h-1z M86,39h1v1h-1z M90,39h1v1h-1z M92,39h1v1h-1z M93,39h1v1h-1z M95,39h1v1h-1z M99,39h1v1h-1z M100,39h1v1h-1z M101,39h1v1h-1z M102,39h1v1h-1z M104,39h1v1h-1z M105,39h1v1h-1z M107,39h1v1h-1z M4,40h1v1h-1z M5,40h1v1h-1z M7,40h1v1h-1z M8,40h1v1h-1z M10,40h1v1h-1z M12,40h1v1h-1z M14,40h1v1h-1z M16,40h1v1h-1z M17,40h1v1h-1z M19,40h1v1h-1z M21,40h1v1h-1z M22,40h1v1h-1z M26,40h1v1h-1z M28,40h1v1h-1z M29,40h1v1h-1z M31,40h1v1h-1z M33,40h1v1h-1z M35,40h1v1h-1z M40,40h1v1h-1z M41,40h1v1h-1z M43,40h1v1h-1z M44,40h1v1h-1z M45,40h1v1h-1z M46,40h1v1h-1z M47,40h1v1h-1z M52,40h1v1h-1z M53,40h1v1h-1z M55,40h1v1h-1z M58,40h1v1h-1z M62,40h1v1h-1z M63,40h1v1h-1z M64,40h1v1h-1z M65,40h1v1h-1z M67,40h1v1h-1z M68,40h1v1h-1z M69,40h1v1h-1z M70,40h1v1h-1z M71,40h1v1h-1z M72,40h1v1h-1z M73,40h1v1h-1z M76,40h1v1h-1z M79,40h1v1h-1z M83,40h1v1h-1z M87,40h1v1h-1z M91,40h1v1h-1z M92,40h1v1h-1z M94,40h1v1h-1z M95,40h1v1h-1z M97,40h1v1h-1z M98,40h1v1h-1z M100,40h1v1h-1z M102,40h1v1h-1z M104,40h1v1h-1z M108,40h1v1h-1z M4,41h1v1h-1z M7,41h1v1h-1z M9,41h1v1h-1z M12,41h1v1h-1z M13,41h1v1h-1z M14,41h1v1h-1z M15,41h1v1h-1z M17,41h1v1h-1z M19,41h1v1h-1z M20,41h1v1h-1z M22,41h1v1h-1z M24,41h1v1h-1z M26,41h1v1h-1z M27,41h1v1h-1z M28,41h1v1h-1z M30,41h1v1h-1z M31,41h1v1h-1z M32,41h1v1h-1z M34,41h1v1h-1z M37,41h1v1h-1z M38,41h1v1h-1z M42,41h1v1h-1z M43,41h1v1h-1z M47,41h1v1h-1z M51,41h1v1h-1z M53,41h1v1h-1z M59,41h1v1h-1z M66,41h1v1h-1z M69,41h1v1h-1z M70,41h1v1h-1z M72,41h1v1h-1z M73,41h1v1h-1z M75,41h1v1h-1z M76,41h1v1h-1z M77,41h1v1h-1z M78,41h1v1h-1z M79,41h1v1h-1z M83,41h1v1h-1z M84,41h1v1h-1z M85,41h1v1h-1z M86,41h1v1h-1z M87,41h1v1h-1z M90,41h1v1h-1z M91,41h1v1h-1z M96,41h1v1h-1z M98,41h1v1h-1z M102,41h1v1h-1z M105,41h1v1h-1z M106,41h1v1h-1z M107,41h1v1h-1z M108,41h1v1h-1z M9,42h1v1h-1z M10,42h1v1h-1z M11,42h1v1h-1z M12,42h1v1h-1z M13,42h1v1h-1z M18,42h1v1h-1z M19,42h1v1h-1z M23,42h1v1h-1z M24,42h1v1h-1z M25,42h1v1h-1z M27,42h1v1h-1z M32,42h1v1h-1z M33,42h1v1h-1z M35,42h1v1h-1z M38,42h1v1h-1z M39,42h1v1h-1z M40,42h1v1h-1z M41,42h1v1h-1z M48,42h1v1h-1z M49,42h1v1h-1z M50,42h1v1h-1z M51,42h1v1h-1z M56,42h1v1h-1z M62,42h1v1h-1z M67,42h1v1h-1z M74,42h1v1h-1z M76,42h1v1h-1z M78,42h1v1h-1z M80,42h1v1h-1z M85,42h1v1h-1z M86,42h1v1h-1z M89,42h1v1h-1z M91,42h1v1h-1z M92,42h1v1h-1z M93,42h1v1h-1z M96,42h1v1h-1z M98,42h1v1h-1z M99,42h1v1h-1z M100,42h1v1h-1z M102,42h1v1h-1z M103,42h1v1h-1z M105,42h1v1h-1z M107,42h1v1h-1z M4,43h1v1h-1z M6,43h1v1h-1z M7,43h1v1h-1z M11,43h1v1h-1z M12,43h1v1h-1z M13,43h1v1h-1z M15,43h1v1h-1z M18,43h1v1h-1z M21,43h1v1h-1z M23,43h1v1h-1z M25,43h1v1h-1z M26,43h1v1h-1z M27,43h1v1h-1z M28,43h1v1h-1z M29,43h1v1h-1z M34,43h1v1h-1z M35,43h1v1h-1z M37,43h1v1h-1z M38,43h1v1h-1z M42,43h1v1h-1z M43,43h1v1h-1z M44,43h1v1h-1z M45,43h1v1h-1z M47,43h1v1h-1z M51,43h1v1h-1z M52,43h1v1h-1z M53,43h1v1h-1z M55,43h1v1h-1z M56,43h1v1h-1z M59,43h1v1h-1z M62,43h1v1h-1z M66,43h1v1h-1z M68,43h1v1h-1z M70,43h1v1h-1z M71,43h1v1h-1z M74,43h1v1h-1z M76,43h1v1h-1z M77,43h1v1h-1z M80,43h1v1h-1z M81,43h1v1h-1z M82,43h1v1h-1z M83,43h1v1h-1z M90,43h1v1h-1z M92,43h1v1h-1z M93,43h1v1h-1z M94,43h1v1h-1z M95,43h1v1h-1z M97,43h1v1h-1z M99,43h1v1h-1z M104,43h1v1h-1z M105,43h1v1h-1z M107,43h1v1h-1z M5,44h1v1h-1z M6,44h1v1h-1z M7,44h1v1h-1z M10,44h1v1h-1z M11,44h1v1h-1z M13,44h1v1h-1z M15,44h1v1h-1z M16,44h1v1h-1z M18,44h1v1h-1z M19,44h1v1h-1z M21,44h1v1h-1z M23,44h1v1h-1z M24,44h1v1h-1z M25,44h1v1h-1z M29,44h1v1h-1z M31,44h1v1h-1z M33,44h1v1h-1z M34,44h1v1h-1z M36,44h1v1h-1z M38,44h1v1h-1z M40,44h1v1h-1z M41,44h1v1h-1z M42,44h1v1h-1z M44,44h1v1h-1z M45,44h1v1h-1z M46,44h1v1h-1z M50,44h1v1h-1z M53,44h1v1h-1z M55,44h1v1h-1z M58,44h1v1h-1z M59,44h1v1h-1z M61,44h1v1h-1z M62,44h1v1h-1z M64,44h1v1h-1z M65,44h1v1h-1z M67,44h1v1h-1z M68,44h1v1h-1z M72,44h1v1h-1z M79,44h1v1h-1z M82,44h1v1h-1z M83,44h1v1h-1z M84,44h1v1h-1z M86,44h1v1h-1z M87,44h1v1h-1z M88,44h1v1h-1z M90,44h1v1h-1z M92,44h1v1h-1z M99,44h1v1h-1z M100,44h1v1h-1z M102,44h1v1h-1z M103,44h1v1h-1z M104,44h1v1h-1z M105,44h1v1h-1z M108,44h1v1h-1z M4,45h1v1h-1z M5,45h1v1h-1z M8,45h1v1h-1z M9,45h1v1h-1z M11,45h1v1h-1z M12,45h1v1h-1z M14,45h1v1h-1z M15,45h1v1h-1z M16,45h1v1h-1z M17,45h1v1h-1z M20,45h1v1h-1z M21,45h1v1h-1z M24,45h1v1h-1z M28,45h1v1h-1z M30,45h1v1h-1z M31,45h1v1h-1z M32,45h1v1h-1z M36,45h1v1h-1z M37,45h1v1h-1z M38,45h1v1h-1z M39,45h1v1h-1z M40,45h1v1h-1z M43,45h1v1h-1z M46,45h1v1h-1z M48,45h1v1h-1z M53,45h1v1h-1z M54,45h1v1h-1z M55,45h1v1h-1z M56,45h1v1h-1z M58,45h1v1h-1z M60,45h1v1h-1z M64,45h1v1h-1z M65,45h1v1h-1z M66,45h1v1h-1z M69,45h1v1h-1z M71,45h1v1h-1z M78,45h1v1h-1z M79,45h1v1h-1z M83,45h1v1h-1z M87,45h1v1h-1z M90,45h1v1h-1z M92,45h1v1h-1z M93,45h1v1h-1z M95,45h1v1h-1z M96,45h1v1h-1z M98,45h1v1h-1z M100,45h1v1h-1z M101,45h1v1h-1z M102,45h1v1h-1z M105,45h1v1h-1z M106,45h1v1h-1z M7,46h1v1h-1z M9,46h1v1h-1z M10,46h1v1h-1z M14,46h1v1h-1z M16,46h1v1h-1z M17,46h1v1h-1z M19,46h1v1h-1z M22,46h1v1h-1z M24,46h1v1h-1z M25,46h1v1h-1z M27,46h1v1h-1z M28,46h1v1h-1z M30,46h1v1h-1z M31,46h1v1h-1z M32,46h1v1h-1z M35,46h1v1h-1z M36,46h1v1h-1z M37,46h1v1h-1z M38,46h1v1h-1z M39,46h1v1h-1z M41,46h1v1h-1z M45,46h1v1h-1z M49,46h1v1h-1z M50,46h1v1h-1z M51,46h1v1h-1z M53,46h1v1h-1z M54,46h1v1h-1z M60,46h1v1h-1z M62,46h1v1h-1z M63,46h1v1h-1z M64,46h1v1h-1z M65,46h1v1h-1z M68,46h1v1h-1z M71,46h1v1h-1z M72,46h1v1h-1z M74,46h1v1h-1z M75,46h1v1h-1z M77,46h1v1h-1z M79,46h1v1h-1z M83,46h1v1h-1z M84,46h1v1h-1z M86,46h1v1h-1z M87,46h1v1h-1z M88,46h1v1h-1z M89,46h1v1h-1z M91,46h1v1h-1z M92,46h1v1h-1z M96,46h1v1h-1z M98,46h1v1h-1z M99,46h1v1h-1z M100,46h1v1h-1z M102,46h1v1h-1z M104,46h1v1h-1z M4,47h1v1h-1z M6,47h1v1h-1z M7,47h1v1h-1z M11,47h1v1h-1z M12,47h1v1h-1z M13,47h1v1h-1z M15,47h1v1h-1z M17,47h1v1h-1z M18,47h1v1h-1z M21,47h1v1h-1z M22,47h1v1h-1z M23,47h1v1h-1z M26,47h1v1h-1z M28,47h1v1h-1z M29,47h1v1h-1z M31,47h1v1h-1z M32,47h1v1h-1z M33,47h1v1h-1z M34,47h1v1h-1z M35,47h1v1h-1z M43,47h1v1h-1z M44,47h1v1h-1z M46,47h1v1h-1z M47,47h1v1h-1z M52,47h1v1h-1z M53,47h1v1h-1z M55,47h1v1h-1z M57,47h1v1h-1z M58,47h1v1h-1z M59,47h1v1h-1z M62,47h1v1h-1z M68,47h1v1h-1z M69,47h1v1h-1z M73,47h1v1h-1z M74,47h1v1h-1z M76,47h1v1h-1z M77,47h1v1h-1z M79,47h1v1h-1z M82,47h1v1h-1z M85,47h1v1h-1z M86,47h1v1h-1z M89,47h1v1h-1z M90,47h1v1h-1z M92,47h1v1h-1z M93,47h1v1h-1z M95,47h1v1h-1z M97,47h1v1h-1z M99,47h1v1h-1z M100,47h1v1h-1z M102,47h1v1h-1z M104,47h1v1h-1z M105,47h1v1h-1z M107,47h1v1h-1z M108,47h1v1h-1z M9,48h1v1h-1z M10,48h1v1h-1z M13,48h1v1h-1z M16,48h1v1h-1z M18,48h1v1h-1z M21,48h1v1h-1z M22,48h1v1h-1z M23,48h1v1h-1z M24,48h1v1h-1z M25,48h1v1h-1z M28,48h1v1h-1z M31,48h1v1h-1z M34,48h1v1h-1z M38,48h1v1h-1z M39,48h1v1h-1z M41,48h1v1h-1z M42,48h1v1h-1z M43,48h1v1h-1z M44,48h1v1h-1z M49,48h1v1h-1z M52,48h1v1h-1z M55,48h1v1h-1z M57,48h1v1h-1z M58,48h1v1h-1z M61,48h1v1h-1z M63,48h1v1h-1z M64,48h1v1h-1z M65,48h1v1h-1z M66,48h1v1h-1z M67,48h1v1h-1z M69,48h1v1h-1z M70,48h1v1h-1z M71,48h1v1h-1z M72,48h1v1h-1z M76,48h1v1h-1z M77,48h1v1h-1z M79,48h1v1h-1z M88,48h1v1h-1z M90,48h1v1h-1z M98,48h1v1h-1z M100,48h1v1h-1z M102,48h1v1h-1z M103,48h1v1h-1z M104,48h1v1h-1z M105,48h1v1h-1z M107,48h1v1h-1z M108,48h1v1h-1z M7,49h1v1h-1z M9,49h1v1h-1z M11,49h1v1h-1z M13,49h1v1h-1z M14,49h1v1h-1z M15,49h1v1h-1z M16,49h1v1h-1z M17,49h1v1h-1z M18,49h1v1h-1z M19,49h1v1h-1z M23,49h1v1h-1z M24,49h1v1h-1z M28,49h1v1h-1z M30,49h1v1h-1z M31,49h1v1h-1z M32,49h1v1h-1z M33,49h1v1h-1z M34,49h1v1h-1z M35,49h1v1h-1z M36,49h1v1h-1z M38,49h1v1h-1z M41,49h1v1h-1z M45,49h1v1h-1z M46,49h1v1h-1z M51,49h1v1h-1z M53,49h1v1h-1z M55,49h1v1h-1z M58,49h1v1h-1z M60,49h1v1h-1z M65,49h1v1h-1z M66,49h1v1h-1z M70,49h1v1h-1z M71,49h1v1h-1z M72,49h1v1h-1z M79,49h1v1h-1z M81,49h1v1h-1z M82,49h1v1h-1z M84,49h1v1h-1z M86,49h1v1h-1z M87,49h1v1h-1z M88,49h1v1h-1z M89,49h1v1h-1z M90,49h1v1h-1z M91,49h1v1h-1z M92,49h1v1h-1z M93,49h1v1h-1z M94,49h1v1h-1z M95,49h1v1h-1z M97,49h1v1h-1z M101,49h1v1h-1z M102,49h1v1h-1z M106,49h1v1h-1z M4,50h1v1h-1z M6,50h1v1h-1z M8,50h1v1h-1z M9,50h1v1h-1z M10,50h1v1h-1z M11,50h1v1h-1z M12,50h1v1h-1z M15,50h1v1h-1z M20,50h1v1h-1z M22,50h1v1h-1z M23,50h1v1h-1z M24,50h1v1h-1z M25,50h1v1h-1z M30,50h1v1h-1z M31,50h1v1h-1z M32,50h1v1h-1z M38,50h1v1h-1z M39,50h1v1h-1z M40,50h1v1h-1z M43,50h1v1h-1z M47,50h1v1h-1z M50,50h1v1h-1z M51,50h1v1h-1z M52,50h1v1h-1z M59,50h1v1h-1z M60,50h1v1h-1z M62,50h1v1h-1z M63,50h1v1h-1z M64,50h1v1h-1z M65,50h1v1h-1z M72,50h1v1h-1z M74,50h1v1h-1z M76,50h1v1h-1z M80,50h1v1h-1z M86,50h1v1h-1z M89,50h1v1h-1z M91,50h1v1h-1z M92,50h1v1h-1z M95,50h1v1h-1z M96,50h1v1h-1z M97,50h1v1h-1z M98,50h1v1h-1z M99,50h1v1h-1z M100,50h1v1h-1z M101,50h1v1h-1z M103,50h1v1h-1z M104,50h1v1h-1z M105,50h1v1h-1z M5,51h1v1h-1z M8,51h1v1h-1z M9,51h1v1h-1z M14,51h1v1h-1z M17,51h1v1h-1z M21,51h1v1h-1z M23,51h1v1h-1z M28,51h1v1h-1z M29,51h1v1h-1z M33,51h1v1h-1z M35,51h1v1h-1z M37,51h1v1h-1z M42,51h1v1h-1z M43,51h1v1h-1z M44,51h1v1h-1z M45,51h1v1h-1z M47,51h1v1h-1z M52,51h1v1h-1z M57,51h1v1h-1z M58,51h1v1h-1z M61,51h1v1h-1z M65,51h1v1h-1z M68,51h1v1h-1z M69,51h1v1h-1z M70,51h1v1h-1z M71,51h1v1h-1z M73,51h1v1h-1z M74,51h1v1h-1z M77,51h1v1h-1z M79,51h1v1h-1z M81,51h1v1h-1z M83,51h1v1h-1z M85,51h1v1h-1z M86,51h1v1h-1z M89,51h1v1h-1z M90,51h1v1h-1z M92,51h1v1h-1z M93,51h1v1h-1z M95,51h1v1h-1z M99,51h1v1h-1z M100,51h1v1h-1z M102,51h1v1h-1z M104,51h1v1h-1z M108,51h1v1h-1z M4,52h1v1h-1z M5,52h1v1h-1z M7,52h1v1h-1z M8,52h1v1h-1z M9,52h1v1h-1z M10,52h1v1h-1z M11,52h1v1h-1z M12,52h1v1h-1z M13,52h1v1h-1z M14,52h1v1h-1z M15,52h1v1h-1z M17,52h1v1h-1z M19,52h1v1h-1z M20,52h1v1h-1z M22,52h1v1h-1z M26,52h1v1h-1z M28,52h1v1h-1z M29,52h1v1h-1z M30,52h1v1h-1z M31,52h1v1h-1z M32,52h1v1h-1z M34,52h1v1h-1z M35,52h1v1h-1z M36,52h1v1h-1z M38,52h1v1h-1z M40,52h1v1h-1z M42,52h1v1h-1z M48,52h1v1h-1z M50,52h1v1h-1z M52,52h1v1h-1z M53,52h1v1h-1z M54,52h1v1h-1z M55,52h1v1h-1z M56,52h1v1h-1z M60,52h1v1h-1z M63,52h1v1h-1z M64,52h1v1h-1z M66,52h1v1h-1z M67,52h1v1h-1z M68,52h1v1h-1z M69,52h1v1h-1z M71,52h1v1h-1z M76,52h1v1h-1z M77,52h1v1h-1z M78,52h1v1h-1z M79,52h1v1h-1z M80,52h1v1h-1z M82,52h1v1h-1z M84,52h1v1h-1z M85,52h1v1h-1z M87,52h1v1h-1z M88,52h1v1h-1z M93,52h1v1h-1z M94,52h1v1h-1z M95,52h1v1h-1z M97,52h1v1h-1z M99,52h1v1h-1z M100,52h1v1h-1z M101,52h1v1h-1z M102,52h1v1h-1z M103,52h1v1h-1z M104,52h1v1h-1z M107,52h1v1h-1z M5,53h1v1h-1z M6,53h1v1h-1z M7,53h1v1h-1z M8,53h1v1h-1z M12,53h1v1h-1z M14,53h1v1h-1z M15,53h1v1h-1z M16,53h1v1h-1z M18,53h1v1h-1z M20,53h1v1h-1z M21,53h1v1h-1z M23,53h1v1h-1z M24,53h1v1h-1z M25,53h1v1h-1z M27,53h1v1h-1z M28,53h1v1h-1z M32,53h1v1h-1z M33,53h1v1h-1z M34,53h1v1h-1z M35,53h1v1h-1z M39,53h1v1h-1z M40,53h1v1h-1z M45,53h1v1h-1z M47,53h1v1h-1z M50,53h1v1h-1z M52,53h1v1h-1z M56,53h1v1h-1z M57,53h1v1h-1z M59,53h1v1h-1z M60,53h1v1h-1z M61,53h1v1h-1z M64,53h1v1h-1z M65,53h1v1h-1z M66,53h1v1h-1z M68,53h1v1h-1z M69,53h1v1h-1z M71,53h1v1h-1z M72,53h1v1h-1z M73,53h1v1h-1z M75,53h1v1h-1z M76,53h1v1h-1z M80,53h1v1h-1z M81,53h1v1h-1z M82,53h1v1h-1z M86,53h1v1h-1z M90,53h1v1h-1z M91,53h1v1h-1z M92,53h1v1h-1z M93,53h1v1h-1z M95,53h1v1h-1z M97,53h1v1h-1z M100,53h1v1h-1z M104,53h1v1h-1z M108,53h1v1h-1z M4,54h1v1h-1z M8,54h1v1h-1z M10,54h1v1h-1z M12,54h1v1h-1z M13,54h1v1h-1z M15,54h1v1h-1z M16,54h1v1h-1z M17,54h1v1h-1z M18,54h1v1h-1z M19,54h1v1h-1z M20,54h1v1h-1z M21,54h1v1h-1z M23,54h1v1h-1z M24,54h1v1h-1z M27,54h1v1h-1z M28,54h1v1h-1z M30,54h1v1h-1z M32,54h1v1h-1z M36,54h1v1h-1z M38,54h1v1h-1z M40,54h1v1h-1z M41,54h1v1h-1z M43,54h1v1h-1z M44,54h1v1h-1z M48,54h1v1h-1z M50,54h1v1h-1z M52,54h1v1h-1z M54,54h1v1h-1z M56,54h1v1h-1z M60,54h1v1h-1z M61,54h1v1h-1z M62,54h1v1h-1z M63,54h1v1h-1z M64,54h1v1h-1z M65,54h1v1h-1z M68,54h1v1h-1z M74,54h1v1h-1z M76,54h1v1h-1z M78,54h1v1h-1z M80,54h1v1h-1z M83,54h1v1h-1z M84,54h1v1h-1z M86,54h1v1h-1z M87,54h1v1h-1z M95,54h1v1h-1z M96,54h1v1h-1z M98,54h1v1h-1z M99,54h1v1h-1z M100,54h1v1h-1z M102,54h1v1h-1z M104,54h1v1h-1z M107,54h1v1h-1z M8,55h1v1h-1z M12,55h1v1h-1z M13,55h1v1h-1z M17,55h1v1h-1z M18,55h1v1h-1z M21,55h1v1h-1z M22,55h1v1h-1z M28,55h1v1h-1z M32,55h1v1h-1z M35,55h1v1h-1z M38,55h1v1h-1z M41,55h1v1h-1z M42,55h1v1h-1z M44,55h1v1h-1z M45,55h1v1h-1z M47,55h1v1h-1z M52,55h1v1h-1z M56,55h1v1h-1z M57,55h1v1h-1z M58,55h1v1h-1z M59,55h1v1h-1z M63,55h1v1h-1z M65,55h1v1h-1z M66,55h1v1h-1z M68,55h1v1h-1z M69,55h1v1h-1z M71,55h1v1h-1z M73,55h1v1h-1z M74,55h1v1h-1z M75,55h1v1h-1z M76,55h1v1h-1z M80,55h1v1h-1z M81,55h1v1h-1z M89,55h1v1h-1z M90,55h1v1h-1z M91,55h1v1h-1z M92,55h1v1h-1z M93,55h1v1h-1z M94,55h1v1h-1z M97,55h1v1h-1z M98,55h1v1h-1z M100,55h1v1h-1z M104,55h1v1h-1z M108,55h1v1h-1z M6,56h1v1h-1z M8,56h1v1h-1z M9,56h1v1h-1z M10,56h1v1h-1z M11,56h1v1h-1z M12,56h1v1h-1z M14,56h1v1h-1z M15,56h1v1h-1z M18,56h1v1h-1z M21,56h1v1h-1z M24,56h1v1h-1z M26,56h1v1h-1z M27,56h1v1h-1z M28,56h1v1h-1z M29,56h1v1h-1z M30,56h1v1h-1z M31,56h1v1h-1z M32,56h1v1h-1z M33,56h1v1h-1z M34,56h1v1h-1z M35,56h1v1h-1z M36,56h1v1h-1z M38,56h1v1h-1z M42,56h1v1h-1z M43,56h1v1h-1z M44,56h1v1h-1z M48,56h1v1h-1z M49,56h1v1h-1z M51,56h1v1h-1z M52,56h1v1h-1z M53,56h1v1h-1z M54,56h1v1h-1z M55,56h1v1h-1z M56,56h1v1h-1z M58,56h1v1h-1z M60,56h1v1h-1z M63,56h1v1h-1z M64,56h1v1h-1z M65,56h1v1h-1z M66,56h1v1h-1z M70,56h1v1h-1z M72,56h1v1h-1z M73,56h1v1h-1z M75,56h1v1h-1z M76,56h1v1h-1z M77,56h1v1h-1z M78,56h1v1h-1z M79,56h1v1h-1z M80,56h1v1h-1z M81,56h1v1h-1z M84,56h1v1h-1z M85,56h1v1h-1z M87,56h1v1h-1z M88,56h1v1h-1z M89,56h1v1h-1z M91,56h1v1h-1z M94,56h1v1h-1z M96,56h1v1h-1z M98,56h1v1h-1z M99,56h1v1h-1z M100,56h1v1h-1z M101,56h1v1h-1z M102,56h1v1h-1z M103,56h1v1h-1z M104,56h1v1h-1z M107,56h1v1h-1z M108,56h1v1h-1z M7,57h1v1h-1z M11,57h1v1h-1z M12,57h1v1h-1z M14,57h1v1h-1z M15,57h1v1h-1z M17,57h1v1h-1z M18,57h1v1h-1z M19,57h1v1h-1z M20,57h1v1h-1z M22,57h1v1h-1z M24,57h1v1h-1z M25,57h1v1h-1z M27,57h1v1h-1z M28,57h1v1h-1z M29,57h1v1h-1z M30,57h1v1h-1z M31,57h1v1h-1z M36,57h1v1h-1z M37,57h1v1h-1z M39,57h1v1h-1z M40,57h1v1h-1z M41,57h1v1h-1z M43,57h1v1h-1z M44,57h1v1h-1z M46,57h1v1h-1z M47,57h1v1h-1z M49,57h1v1h-1z M50,57h1v1h-1z M51,57h1v1h-1z M52,57h1v1h-1z M57,57h1v1h-1z M61,57h1v1h-1z M62,57h1v1h-1z M63,57h1v1h-1z M64,57h1v1h-1z M65,57h1v1h-1z M69,57h1v1h-1z M70,57h1v1h-1z M71,57h1v1h-1z M72,57h1v1h-1z M73,57h1v1h-1z M76,57h1v1h-1z M77,57h1v1h-1z M79,57h1v1h-1z M81,57h1v1h-1z M82,57h1v1h-1z M83,57h1v1h-1z M93,57h1v1h-1z M94,57h1v1h-1z M96,57h1v1h-1z M99,57h1v1h-1z M100,57h1v1h-1z M102,57h1v1h-1z M104,57h1v1h-1z M106,57h1v1h-1z M108,57h1v1h-1z M4,58h1v1h-1z M5,58h1v1h-1z M8,58h1v1h-1z M10,58h1v1h-1z M11,58h1v1h-1z M12,58h1v1h-1z M14,58h1v1h-1z M15,58h1v1h-1z M16,58h1v1h-1z M17,58h1v1h-1z M18,58h1v1h-1z M21,58h1v1h-1z M22,58h1v1h-1z M23,58h1v1h-1z M36,58h1v1h-1z M38,58h1v1h-1z M39,58h1v1h-1z M40,58h1v1h-1z M41,58h1v1h-1z M43,58h1v1h-1z M47,58h1v1h-1z M50,58h1v1h-1z M53,58h1v1h-1z M56,58h1v1h-1z M59,58h1v1h-1z M60,58h1v1h-1z M62,58h1v1h-1z M64,58h1v1h-1z M67,58h1v1h-1z M71,58h1v1h-1z M72,58h1v1h-1z M73,58h1v1h-1z M74,58h1v1h-1z M78,58h1v1h-1z M79,58h1v1h-1z M81,58h1v1h-1z M83,58h1v1h-1z M84,58h1v1h-1z M86,58h1v1h-1z M87,58h1v1h-1z M88,58h1v1h-1z M89,58h1v1h-1z M91,58h1v1h-1z M92,58h1v1h-1z M98,58h1v1h-1z M99,58h1v1h-1z M103,58h1v1h-1z M104,58h1v1h-1z M105,58h1v1h-1z M106,58h1v1h-1z M107,58h1v1h-1z M4,59h1v1h-1z M5,59h1v1h-1z M6,59h1v1h-1z M7,59h1v1h-1z M11,59h1v1h-1z M12,59h1v1h-1z M18,59h1v1h-1z M19,59h1v1h-1z M20,59h1v1h-1z M21,59h1v1h-1z M22,59h1v1h-1z M23,59h1v1h-1z M28,59h1v1h-1z M29,59h1v1h-1z M30,59h1v1h-1z M31,59h1v1h-1z M34,59h1v1h-1z M35,59h1v1h-1z M37,59h1v1h-1z M42,59h1v1h-1z M43,59h1v1h-1z M44,59h1v1h-1z M46,59h1v1h-1z M47,59h1v1h-1z M49,59h1v1h-1z M50,59h1v1h-1z M51,59h1v1h-1z M52,59h1v1h-1z M53,59h1v1h-1z M54,59h1v1h-1z M55,59h1v1h-1z M56,59h1v1h-1z M61,59h1v1h-1z M62,59h1v1h-1z M63,59h1v1h-1z M66,59h1v1h-1z M68,59h1v1h-1z M75,59h1v1h-1z M76,59h1v1h-1z M78,59h1v1h-1z M82,59h1v1h-1z M86,59h1v1h-1z M87,59h1v1h-1z M90,59h1v1h-1z M92,59h1v1h-1z M95,59h1v1h-1z M97,59h1v1h-1z M98,59h1v1h-1z M107,59h1v1h-1z M5,60h1v1h-1z M6,60h1v1h-1z M7,60h1v1h-1z M8,60h1v1h-1z M10,60h1v1h-1z M12,60h1v1h-1z M17,60h1v1h-1z M18,60h1v1h-1z M23,60h1v1h-1z M28,60h1v1h-1z M30,60h1v1h-1z M33,60h1v1h-1z M34,60h1v1h-1z M35,60h1v1h-1z M39,60h1v1h-1z M40,60h1v1h-1z M41,60h1v1h-1z M42,60h1v1h-1z M48,60h1v1h-1z M49,60h1v1h-1z M50,60h1v1h-1z M52,60h1v1h-1z M54,60h1v1h-1z M55,60h1v1h-1z M56,60h1v1h-1z M60,60h1v1h-1z M62,60h1v1h-1z M64,60h1v1h-1z M65,60h1v1h-1z M66,60h1v1h-1z M71,60h1v1h-1z M72,60h1v1h-1z M73,60h1v1h-1z M75,60h1v1h-1z M77,60h1v1h-1z M78,60h1v1h-1z M80,60h1v1h-1z M83,60h1v1h-1z M89,60h1v1h-1z M90,60h1v1h-1z M91,60h1v1h-1z M94,60h1v1h-1z M95,60h1v1h-1z M96,60h1v1h-1z M98,60h1v1h-1z M102,60h1v1h-1z M103,60h1v1h-1z M105,60h1v1h-1z M106,60h1v1h-1z M107,60h1v1h-1z M4,61h1v1h-1z M8,61h1v1h-1z M13,61h1v1h-1z M14,61h1v1h-1z M15,61h1v1h-1z M18,61h1v1h-1z M19,61h1v1h-1z M20,61h1v1h-1z M22,61h1v1h-1z M23,61h1v1h-1z M24,61h1v1h-1z M25,61h1v1h-1z M27,61h1v1h-1z M28,61h1v1h-1z M29,61h1v1h-1z M31,61h1v1h-1z M33,61h1v1h-1z M36,61h1v1h-1z M38,61h1v1h-1z M39,61h1v1h-1z M40,61h1v1h-1z M41,61h1v1h-1z M42,61h1v1h-1z M43,61h1v1h-1z M46,61h1v1h-1z M47,61h1v1h-1z M49,61h1v1h-1z M50,61h1v1h-1z M51,61h1v1h-1z M55,61h1v1h-1z M58,61h1v1h-1z M60,61h1v1h-1z M62,61h1v1h-1z M63,61h1v1h-1z M64,61h1v1h-1z M66,61h1v1h-1z M67,61h1v1h-1z M70,61h1v1h-1z M72,61h1v1h-1z M75,61h1v1h-1z M77,61h1v1h-1z M79,61h1v1h-1z M81,61h1v1h-1z M83,61h1v1h-1z M84,61h1v1h-1z M85,61h1v1h-1z M88,61h1v1h-1z M89,61h1v1h-1z M90,61h1v1h-1z M93,61h1v1h-1z M94,61h1v1h-1z M95,61h1v1h-1z M96,61h1v1h-1z M97,61h1v1h-1z M99,61h1v1h-1z M100,61h1v1h-1z M101,61h1v1h-1z M102,61h1v1h-1z M103,61h1v1h-1z M106,61h1v1h-1z M108,61h1v1h-1z M6,62h1v1h-1z M8,62h1v1h-1z M9,62h1v1h-1z M10,62h1v1h-1z M11,62h1v1h-1z M14,62h1v1h-1z M15,62h1v1h-1z M19,62h1v1h-1z M21,62h1v1h-1z M22,62h1v1h-1z M23,62h1v1h-1z M25,62h1v1h-1z M26,62h1v1h-1z M38,62h1v1h-1z M39,62h1v1h-1z M40,62h1v1h-1z M41,62h1v1h-1z M43,62h1v1h-1z M44,62h1v1h-1z M47,62h1v1h-1z M48,62h1v1h-1z M49,62h1v1h-1z M50,62h1v1h-1z M51,62h1v1h-1z M54,62h1v1h-1z M59,62h1v1h-1z M62,62h1v1h-1z M63,62h1v1h-1z M64,62h1v1h-1z M65,62h1v1h-1z M67,62h1v1h-1z M68,62h1v1h-1z M71,62h1v1h-1z M72,62h1v1h-1z M74,62h1v1h-1z M81,62h1v1h-1z M84,62h1v1h-1z M86,62h1v1h-1z M87,62h1v1h-1z M88,62h1v1h-1z M91,62h1v1h-1z M92,62h1v1h-1z M98,62h1v1h-1z M99,62h1v1h-1z M101,62h1v1h-1z M102,62h1v1h-1z M103,62h1v1h-1z M104,62h1v1h-1z M105,62h1v1h-1z M107,62h1v1h-1z M6,63h1v1h-1z M12,63h1v1h-1z M13,63h1v1h-1z M14,63h1v1h-1z M18,63h1v1h-1z M24,63h1v1h-1z M26,63h1v1h-1z M32,63h1v1h-1z M33,63h1v1h-1z M34,63h1v1h-1z M35,63h1v1h-1z M38,63h1v1h-1z M41,63h1v1h-1z M44,63h1v1h-1z M47,63h1v1h-1z M51,63h1v1h-1z M55,63h1v1h-1z M59,63h1v1h-1z M61,63h1v1h-1z M68,63h1v1h-1z M69,63h1v1h-1z M71,63h1v1h-1z M73,63h1v1h-1z M75,63h1v1h-1z M79,63h1v1h-1z M82,63h1v1h-1z M83,63h1v1h-1z M85,63h1v1h-1z M90,63h1v1h-1z M92,63h1v1h-1z M95,63h1v1h-1z M101,63h1v1h-1z M103,63h1v1h-1z M104,63h1v1h-1z M108,63h1v1h-1z M4,64h1v1h-1z M6,64h1v1h-1z M7,64h1v1h-1z M9,64h1v1h-1z M10,64h1v1h-1z M12,64h1v1h-1z M16,64h1v1h-1z M18,64h1v1h-1z M20,64h1v1h-1z M23,64h1v1h-1z M25,64h1v1h-1z M26,64h1v1h-1z M27,64h1v1h-1z M28,64h1v1h-1z M30,64h1v1h-1z M32,64h1v1h-1z M33,64h1v1h-1z M34,64h1v1h-1z M36,64h1v1h-1z M37,64h1v1h-1z M39,64h1v1h-1z M40,64h1v1h-1z M41,64h1v1h-1z M42,64h1v1h-1z M43,64h1v1h-1z M45,64h1v1h-1z M46,64h1v1h-1z M50,64h1v1h-1z M51,64h1v1h-1z M52,64h1v1h-1z M53,64h1v1h-1z M54,64h1v1h-1z M57,64h1v1h-1z M62,64h1v1h-1z M63,64h1v1h-1z M64,64h1v1h-1z M65,64h1v1h-1z M66,64h1v1h-1z M67,64h1v1h-1z M68,64h1v1h-1z M69,64h1v1h-1z M70,64h1v1h-1z M73,64h1v1h-1z M75,64h1v1h-1z M76,64h1v1h-1z M77,64h1v1h-1z M78,64h1v1h-1z M79,64h1v1h-1z M83,64h1v1h-1z M85,64h1v1h-1z M86,64h1v1h-1z M88,64h1v1h-1z M89,64h1v1h-1z M92,64h1v1h-1z M93,64h1v1h-1z M94,64h1v1h-1z M96,64h1v1h-1z M98,64h1v1h-1z M103,64h1v1h-1z M106,64h1v1h-1z M107,64h1v1h-1z M8,65h1v1h-1z M12,65h1v1h-1z M14,65h1v1h-1z M16,65h1v1h-1z M17,65h1v1h-1z M18,65h1v1h-1z M24,65h1v1h-1z M25,65h1v1h-1z M26,65h1v1h-1z M30,65h1v1h-1z M31,65h1v1h-1z M33,65h1v1h-1z M34,65h1v1h-1z M35,65h1v1h-1z M38,65h1v1h-1z M39,65h1v1h-1z M41,65h1v1h-1z M42,65h1v1h-1z M47,65h1v1h-1z M48,65h1v1h-1z M49,65h1v1h-1z M50,65h1v1h-1z M55,65h1v1h-1z M58,65h1v1h-1z M59,65h1v1h-1z M60,65h1v1h-1z M66,65h1v1h-1z M68,65h1v1h-1z M70,65h1v1h-1z M71,65h1v1h-1z M72,65h1v1h-1z M74,65h1v1h-1z M75,65h1v1h-1z M79,65h1v1h-1z M83,65h1v1h-1z M84,65h1v1h-1z M88,65h1v1h-1z M95,65h1v1h-1z M97,65h1v1h-1z M98,65h1v1h-1z M99,65h1v1h-1z M100,65h1v1h-1z M102,65h1v1h-1z M103,65h1v1h-1z M104,65h1v1h-1z M106,65h1v1h-1z M107,65h1v1h-1z M4,66h1v1h-1z M5,66h1v1h-1z M6,66h1v1h-1z M7,66h1v1h-1z M10,66h1v1h-1z M11,66h1v1h-1z M14,66h1v1h-1z M15,66h1v1h-1z M16,66h1v1h-1z M17,66h1v1h-1z M18,66h1v1h-1z M19,66h1v1h-1z M20,66h1v1h-1z M23,66h1v1h-1z M24,66h1v1h-1z M25,66h1v1h-1z M26,66h1v1h-1z M30,66h1v1h-1z M32,66h1v1h-1z M33,66h1v1h-1z M35,66h1v1h-1z M36,66h1v1h-1z M37,66h1v1h-1z M38,66h1v1h-1z M39,66h1v1h-1z M40,66h1v1h-1z M43,66h1v1h-1z M47,66h1v1h-1z M50,66h1v1h-1z M51,66h1v1h-1z M53,66h1v1h-1z M54,66h1v1h-1z M55,66h1v1h-1z M59,66h1v1h-1z M60,66h1v1h-1z M62,66h1v1h-1z M65,66h1v1h-1z M67,66h1v1h-1z M68,66h1v1h-1z M72,66h1v1h-1z M74,66h1v1h-1z M75,66h1v1h-1z M77,66h1v1h-1z M80,66h1v1h-1z M84,66h1v1h-1z M86,66h1v1h-1z M88,66h1v1h-1z M91,66h1v1h-1z M95,66h1v1h-1z M98,66h1v1h-1z M100,66h1v1h-1z M102,66h1v1h-1z M103,66h1v1h-1z M107,66h1v1h-1z M4,67h1v1h-1z M6,67h1v1h-1z M8,67h1v1h-1z M12,67h1v1h-1z M15,67h1v1h-1z M17,67h1v1h-1z M19,67h1v1h-1z M22,67h1v1h-1z M24,67h1v1h-1z M25,67h1v1h-1z M26,67h1v1h-1z M29,67h1v1h-1z M32,67h1v1h-1z M34,67h1v1h-1z M35,67h1v1h-1z M41,67h1v1h-1z M42,67h1v1h-1z M44,67h1v1h-1z M45,67h1v1h-1z M46,67h1v1h-1z M47,67h1v1h-1z M49,67h1v1h-1z M51,67h1v1h-1z M52,67h1v1h-1z M53,67h1v1h-1z M56,67h1v1h-1z M66,67h1v1h-1z M68,67h1v1h-1z M69,67h1v1h-1z M76,67h1v1h-1z M80,67h1v1h-1z M81,67h1v1h-1z M82,67h1v1h-1z M83,67h1v1h-1z M87,67h1v1h-1z M89,67h1v1h-1z M90,67h1v1h-1z M92,67h1v1h-1z M95,67h1v1h-1z M97,67h1v1h-1z M102,67h1v1h-1z M108,67h1v1h-1z M4,68h1v1h-1z M5,68h1v1h-1z M6,68h1v1h-1z M8,68h1v1h-1z M9,68h1v1h-1z M10,68h1v1h-1z M12,68h1v1h-1z M13,68h1v1h-1z M16,68h1v1h-1z M19,68h1v1h-1z M20,68h1v1h-1z M22,68h1v1h-1z M23,68h1v1h-1z M24,68h1v1h-1z M26,68h1v1h-1z M28,68h1v1h-1z M30,68h1v1h-1z M32,68h1v1h-1z M34,68h1v1h-1z M38,68h1v1h-1z M39,68h1v1h-1z M40,68h1v1h-1z M42,68h1v1h-1z M43,68h1v1h-1z M44,68h1v1h-1z M45,68h1v1h-1z M46,68h1v1h-1z M48,68h1v1h-1z M52,68h1v1h-1z M54,68h1v1h-1z M55,68h1v1h-1z M56,68h1v1h-1z M57,68h1v1h-1z M59,68h1v1h-1z M61,68h1v1h-1z M62,68h1v1h-1z M66,68h1v1h-1z M69,68h1v1h-1z M72,68h1v1h-1z M73,68h1v1h-1z M75,68h1v1h-1z M78,68h1v1h-1z M79,68h1v1h-1z M83,68h1v1h-1z M85,68h1v1h-1z M86,68h1v1h-1z M87,68h1v1h-1z M89,68h1v1h-1z M90,68h1v1h-1z M94,68h1v1h-1z M95,68h1v1h-1z M99,68h1v1h-1z M102,68h1v1h-1z M103,68h1v1h-1z M106,68h1v1h-1z M107,68h1v1h-1z M4,69h1v1h-1z M7,69h1v1h-1z M12,69h1v1h-1z M17,69h1v1h-1z M19,69h1v1h-1z M20,69h1v1h-1z M21,69h1v1h-1z M22,69h1v1h-1z M23,69h1v1h-1z M24,69h1v1h-1z M25,69h1v1h-1z M26,69h1v1h-1z M29,69h1v1h-1z M31,69h1v1h-1z M33,69h1v1h-1z M34,69h1v1h-1z M36,69h1v1h-1z M39,69h1v1h-1z M40,69h1v1h-1z M43,69h1v1h-1z M44,69h1v1h-1z M45,69h1v1h-1z M46,69h1v1h-1z M47,69h1v1h-1z M48,69h1v1h-1z M49,69h1v1h-1z M50,69h1v1h-1z M55,69h1v1h-1z M59,69h1v1h-1z M61,69h1v1h-1z M62,69h1v1h-1z M63,69h1v1h-1z M64,69h1v1h-1z M65,69h1v1h-1z M66,69h1v1h-1z M69,69h1v1h-1z M70,69h1v1h-1z M71,69h1v1h-1z M72,69h1v1h-1z M73,69h1v1h-1z M74,69h1v1h-1z M78,69h1v1h-1z M79,69h1v1h-1z M82,69h1v1h-1z M84,69h1v1h-1z M85,69h1v1h-1z M86,69h1v1h-1z M88,69h1v1h-1z M90,69h1v1h-1z M92,69h1v1h-1z M93,69h1v1h-1z M94,69h1v1h-1z M95,69h1v1h-1z M96,69h1v1h-1z M97,69h1v1h-1z M99,69h1v1h-1z M100,69h1v1h-1z M102,69h1v1h-1z M103,69h1v1h-1z M105,69h1v1h-1z M106,69h1v1h-1z M107,69h1v1h-1z M5,70h1v1h-1z M9,70h1v1h-1z M10,70h1v1h-1z M12,70h1v1h-1z M16,70h1v1h-1z M18,70h1v1h-1z M22,70h1v1h-1z M23,70h1v1h-1z M30,70h1v1h-1z M36,70h1v1h-1z M38,70h1v1h-1z M40,70h1v1h-1z M41,70h1v1h-1z M48,70h1v1h-1z M50,70h1v1h-1z M55,70h1v1h-1z M59,70h1v1h-1z M60,70h1v1h-1z M62,70h1v1h-1z M63,70h1v1h-1z M64,70h1v1h-1z M65,70h1v1h-1z M68,70h1v1h-1z M71,70h1v1h-1z M72,70h1v1h-1z M74,70h1v1h-1z M79,70h1v1h-1z M80,70h1v1h-1z M84,70h1v1h-1z M86,70h1v1h-1z M88,70h1v1h-1z M89,70h1v1h-1z M91,70h1v1h-1z M93,70h1v1h-1z M98,70h1v1h-1z M100,70h1v1h-1z M102,70h1v1h-1z M103,70h1v1h-1z M104,70h1v1h-1z M107,70h1v1h-1z M108,70h1v1h-1z M4,71h1v1h-1z M5,71h1v1h-1z M8,71h1v1h-1z M12,71h1v1h-1z M13,71h1v1h-1z M14,71h1v1h-1z M15,71h1v1h-1z M16,71h1v1h-1z M17,71h1v1h-1z M20,71h1v1h-1z M21,71h1v1h-1z M22,71h1v1h-1z M25,71h1v1h-1z M26,71h1v1h-1z M28,71h1v1h-1z M30,71h1v1h-1z M31,71h1v1h-1z M33,71h1v1h-1z M35,71h1v1h-1z M39,71h1v1h-1z M41,71h1v1h-1z M44,71h1v1h-1z M45,71h1v1h-1z M47,71h1v1h-1z M50,71h1v1h-1z M52,71h1v1h-1z M54,71h1v1h-1z M55,71h1v1h-1z M57,71h1v1h-1z M58,71h1v1h-1z M61,71h1v1h-1z M62,71h1v1h-1z M68,71h1v1h-1z M70,71h1v1h-1z M76,71h1v1h-1z M79,71h1v1h-1z M81,71h1v1h-1z M82,71h1v1h-1z M83,71h1v1h-1z M85,71h1v1h-1z M86,71h1v1h-1z M87,71h1v1h-1z M89,71h1v1h-1z M90,71h1v1h-1z M92,71h1v1h-1z M94,71h1v1h-1z M95,71h1v1h-1z M99,71h1v1h-1z M103,71h1v1h-1z M107,71h1v1h-1z M108,71h1v1h-1z M4,72h1v1h-1z M6,72h1v1h-1z M7,72h1v1h-1z M9,72h1v1h-1z M10,72h1v1h-1z M11,72h1v1h-1z M12,72h1v1h-1z M14,72h1v1h-1z M15,72h1v1h-1z M18,72h1v1h-1z M19,72h1v1h-1z M20,72h1v1h-1z M21,72h1v1h-1z M22,72h1v1h-1z M23,72h1v1h-1z M24,72h1v1h-1z M25,72h1v1h-1z M28,72h1v1h-1z M30,72h1v1h-1z M31,72h1v1h-1z M32,72h1v1h-1z M33,72h1v1h-1z M34,72h1v1h-1z M35,72h1v1h-1z M38,72h1v1h-1z M39,72h1v1h-1z M41,72h1v1h-1z M43,72h1v1h-1z M44,72h1v1h-1z M45,72h1v1h-1z M47,72h1v1h-1z M48,72h1v1h-1z M51,72h1v1h-1z M52,72h1v1h-1z M54,72h1v1h-1z M57,72h1v1h-1z M59,72h1v1h-1z M60,72h1v1h-1z M61,72h1v1h-1z M63,72h1v1h-1z M65,72h1v1h-1z M70,72h1v1h-1z M75,72h1v1h-1z M78,72h1v1h-1z M82,72h1v1h-1z M83,72h1v1h-1z M84,72h1v1h-1z M85,72h1v1h-1z M88,72h1v1h-1z M89,72h1v1h-1z M92,72h1v1h-1z M100,72h1v1h-1z M101,72h1v1h-1z M102,72h1v1h-1z M103,72h1v1h-1z M105,72h1v1h-1z M107,72h1v1h-1z M108,72h1v1h-1z M5,73h1v1h-1z M6,73h1v1h-1z M9,73h1v1h-1z M14,73h1v1h-1z M15,73h1v1h-1z M16,73h1v1h-1z M18,73h1v1h-1z M26,73h1v1h-1z M27,73h1v1h-1z M28,73h1v1h-1z M29,73h1v1h-1z M31,73h1v1h-1z M34,73h1v1h-1z M35,73h1v1h-1z M38,73h1v1h-1z M39,73h1v1h-1z M40,73h1v1h-1z M43,73h1v1h-1z M44,73h1v1h-1z M46,73h1v1h-1z M47,73h1v1h-1z M48,73h1v1h-1z M49,73h1v1h-1z M53,73h1v1h-1z M55,73h1v1h-1z M58,73h1v1h-1z M59,73h1v1h-1z M65,73h1v1h-1z M67,73h1v1h-1z M70,73h1v1h-1z M72,73h1v1h-1z M74,73h1v1h-1z M77,73h1v1h-1z M79,73h1v1h-1z M81,73h1v1h-1z M83,73h1v1h-1z M85,73h1v1h-1z M86,73h1v1h-1z M88,73h1v1h-1z M91,73h1v1h-1z M92,73h1v1h-1z M99,73h1v1h-1z M100,73h1v1h-1z M102,73h1v1h-1z M104,73h1v1h-1z M105,73h1v1h-1z M108,73h1v1h-1z M7,74h1v1h-1z M9,74h1v1h-1z M10,74h1v1h-1z M12,74h1v1h-1z M19,74h1v1h-1z M20,74h1v1h-1z M21,74h1v1h-1z M22,74h1v1h-1z M23,74h1v1h-1z M24,74h1v1h-1z M26,74h1v1h-1z M29,74h1v1h-1z M30,74h1v1h-1z M31,74h1v1h-1z M32,74h1v1h-1z M33,74h1v1h-1z M38,74h1v1h-1z M39,74h1v1h-1z M40,74h1v1h-1z M41,74h1v1h-1z M43,74h1v1h-1z M44,74h1v1h-1z M48,74h1v1h-1z M50,74h1v1h-1z M53,74h1v1h-1z M55,74h1v1h-1z M60,74h1v1h-1z M62,74h1v1h-1z M63,74h1v1h-1z M65,74h1v1h-1z M67,74h1v1h-1z M72,74h1v1h-1z M73,74h1v1h-1z M74,74h1v1h-1z M79,74h1v1h-1z M80,74h1v1h-1z M83,74h1v1h-1z M85,74h1v1h-1z M86,74h1v1h-1z M87,74h1v1h-1z M88,74h1v1h-1z M89,74h1v1h-1z M95,74h1v1h-1z M98,74h1v1h-1z M100,74h1v1h-1z M102,74h1v1h-1z M103,74h1v1h-1z M106,74h1v1h-1z M107,74h1v1h-1z M4,75h1v1h-1z M7,75h1v1h-1z M9,75h1v1h-1z M14,75h1v1h-1z M16,75h1v1h-1z M18,75h1v1h-1z M19,75h1v1h-1z M20,75h1v1h-1z M21,75h1v1h-1z M25,75h1v1h-1z M26,75h1v1h-1z M27,75h1v1h-1z M28,75h1v1h-1z M29,75h1v1h-1z M32,75h1v1h-1z M34,75h1v1h-1z M35,75h1v1h-1z M38,75h1v1h-1z M44,75h1v1h-1z M47,75h1v1h-1z M49,75h1v1h-1z M53,75h1v1h-1z M56,75h1v1h-1z M57,75h1v1h-1z M58,75h1v1h-1z M61,75h1v1h-1z M65,75h1v1h-1z M68,75h1v1h-1z M71,75h1v1h-1z M75,75h1v1h-1z M77,75h1v1h-1z M79,75h1v1h-1z M83,75h1v1h-1z M85,75h1v1h-1z M87,75h1v1h-1z M92,75h1v1h-1z M93,75h1v1h-1z M95,75h1v1h-1z M102,75h1v1h-1z M107,75h1v1h-1z M4,76h1v1h-1z M5,76h1v1h-1z M7,76h1v1h-1z M8,76h1v1h-1z M9,76h1v1h-1z M10,76h1v1h-1z M11,76h1v1h-1z M12,76h1v1h-1z M13,76h1v1h-1z M15,76h1v1h-1z M16,76h1v1h-1z M18,76h1v1h-1z M19,76h1v1h-1z M21,76h1v1h-1z M24,76h1v1h-1z M25,76h1v1h-1z M27,76h1v1h-1z M28,76h1v1h-1z M29,76h1v1h-1z M30,76h1v1h-1z M31,76h1v1h-1z M32,76h1v1h-1z M34,76h1v1h-1z M35,76h1v1h-1z M36,76h1v1h-1z M37,76h1v1h-1z M40,76h1v1h-1z M43,76h1v1h-1z M44,76h1v1h-1z M45,76h1v1h-1z M47,76h1v1h-1z M48,76h1v1h-1z M49,76h1v1h-1z M51,76h1v1h-1z M52,76h1v1h-1z M53,76h1v1h-1z M54,76h1v1h-1z M55,76h1v1h-1z M56,76h1v1h-1z M58,76h1v1h-1z M59,76h1v1h-1z M60,76h1v1h-1z M63,76h1v1h-1z M64,76h1v1h-1z M65,76h1v1h-1z M70,76h1v1h-1z M75,76h1v1h-1z M76,76h1v1h-1z M77,76h1v1h-1z M78,76h1v1h-1z M79,76h1v1h-1z M80,76h1v1h-1z M87,76h1v1h-1z M89,76h1v1h-1z M90,76h1v1h-1z M91,76h1v1h-1z M92,76h1v1h-1z M95,76h1v1h-1z M98,76h1v1h-1z M99,76h1v1h-1z M100,76h1v1h-1z M101,76h1v1h-1z M102,76h1v1h-1z M103,76h1v1h-1z M104,76h1v1h-1z M106,76h1v1h-1z M107,76h1v1h-1z M4,77h1v1h-1z M6,77h1v1h-1z M8,77h1v1h-1z M12,77h1v1h-1z M16,77h1v1h-1z M19,77h1v1h-1z M20,77h1v1h-1z M22,77h1v1h-1z M23,77h1v1h-1z M26,77h1v1h-1z M27,77h1v1h-1z M28,77h1v1h-1z M32,77h1v1h-1z M33,77h1v1h-1z M34,77h1v1h-1z M35,77h1v1h-1z M38,77h1v1h-1z M39,77h1v1h-1z M40,77h1v1h-1z M47,77h1v1h-1z M49,77h1v1h-1z M50,77h1v1h-1z M52,77h1v1h-1z M56,77h1v1h-1z M57,77h1v1h-1z M59,77h1v1h-1z M62,77h1v1h-1z M68,77h1v1h-1z M70,77h1v1h-1z M71,77h1v1h-1z M76,77h1v1h-1z M80,77h1v1h-1z M82,77h1v1h-1z M86,77h1v1h-1z M87,77h1v1h-1z M88,77h1v1h-1z M90,77h1v1h-1z M91,77h1v1h-1z M92,77h1v1h-1z M93,77h1v1h-1z M95,77h1v1h-1z M96,77h1v1h-1z M100,77h1v1h-1z M104,77h1v1h-1z M105,77h1v1h-1z M106,77h1v1h-1z M8,78h1v1h-1z M10,78h1v1h-1z M12,78h1v1h-1z M13,78h1v1h-1z M14,78h1v1h-1z M15,78h1v1h-1z M17,78h1v1h-1z M20,78h1v1h-1z M28,78h1v1h-1z M30,78h1v1h-1z M32,78h1v1h-1z M35,78h1v1h-1z M36,78h1v1h-1z M38,78h1v1h-1z M40,78h1v1h-1z M41,78h1v1h-1z M45,78h1v1h-1z M50,78h1v1h-1z M52,78h1v1h-1z M54,78h1v1h-1z M56,78h1v1h-1z M62,78h1v1h-1z M65,78h1v1h-1z M73,78h1v1h-1z M74,78h1v1h-1z M76,78h1v1h-1z M78,78h1v1h-1z M80,78h1v1h-1z M85,78h1v1h-1z M86,78h1v1h-1z M87,78h1v1h-1z M89,78h1v1h-1z M91,78h1v1h-1z M96,78h1v1h-1z M97,78h1v1h-1z M98,78h1v1h-1z M100,78h1v1h-1z M102,78h1v1h-1z M104,78h1v1h-1z M106,78h1v1h-1z M4,79h1v1h-1z M5,79h1v1h-1z M6,79h1v1h-1z M7,79h1v1h-1z M8,79h1v1h-1z M12,79h1v1h-1z M13,79h1v1h-1z M14,79h1v1h-1z M16,79h1v1h-1z M17,79h1v1h-1z M19,79h1v1h-1z M20,79h1v1h-1z M23,79h1v1h-1z M26,79h1v1h-1z M28,79h1v1h-1z M32,79h1v1h-1z M33,79h1v1h-1z M34,79h1v1h-1z M35,79h1v1h-1z M38,79h1v1h-1z M39,79h1v1h-1z M42,79h1v1h-1z M43,79h1v1h-1z M44,79h1v1h-1z M45,79h1v1h-1z M46,79h1v1h-1z M47,79h1v1h-1z M49,79h1v1h-1z M50,79h1v1h-1z M52,79h1v1h-1z M56,79h1v1h-1z M57,79h1v1h-1z M58,79h1v1h-1z M59,79h1v1h-1z M67,79h1v1h-1z M68,79h1v1h-1z M70,79h1v1h-1z M71,79h1v1h-1z M75,79h1v1h-1z M76,79h1v1h-1z M80,79h1v1h-1z M81,79h1v1h-1z M83,79h1v1h-1z M85,79h1v1h-1z M92,79h1v1h-1z M93,79h1v1h-1z M95,79h1v1h-1z M99,79h1v1h-1z M100,79h1v1h-1z M104,79h1v1h-1z M108,79h1v1h-1z M6,80h1v1h-1z M8,80h1v1h-1z M9,80h1v1h-1z M10,80h1v1h-1z M11,80h1v1h-1z M12,80h1v1h-1z M13,80h1v1h-1z M14,80h1v1h-1z M16,80h1v1h-1z M24,80h1v1h-1z M25,80h1v1h-1z M27,80h1v1h-1z M28,80h1v1h-1z M29,80h1v1h-1z M30,80h1v1h-1z M31,80h1v1h-1z M32,80h1v1h-1z M33,80h1v1h-1z M35,80h1v1h-1z M39,80h1v1h-1z M42,80h1v1h-1z M44,80h1v1h-1z M46,80h1v1h-1z M49,80h1v1h-1z M52,80h1v1h-1z M53,80h1v1h-1z M54,80h1v1h-1z M55,80h1v1h-1z M56,80h1v1h-1z M57,80h1v1h-1z M60,80h1v1h-1z M63,80h1v1h-1z M64,80h1v1h-1z M66,80h1v1h-1z M67,80h1v1h-1z M70,80h1v1h-1z M75,80h1v1h-1z M76,80h1v1h-1z M77,80h1v1h-1z M78,80h1v1h-1z M79,80h1v1h-1z M80,80h1v1h-1z M81,80h1v1h-1z M82,80h1v1h-1z M83,80h1v1h-1z M86,80h1v1h-1z M89,80h1v1h-1z M90,80h1v1h-1z M91,80h1v1h-1z M92,80h1v1h-1z M94,80h1v1h-1z M96,80h1v1h-1z M99,80h1v1h-1z M100,80h1v1h-1z M101,80h1v1h-1z M102,80h1v1h-1z M103,80h1v1h-1z M104,80h1v1h-1z M107,80h1v1h-1z M108,80h1v1h-1z M4,81h1v1h-1z M6,81h1v1h-1z M7,81h1v1h-1z M8,81h1v1h-1z M12,81h1v1h-1z M15,81h1v1h-1z M17,81h1v1h-1z M19,81h1v1h-1z M21,81h1v1h-1z M25,81h1v1h-1z M28,81h1v1h-1z M30,81h1v1h-1z M31,81h1v1h-1z M32,81h1v1h-1z M35,81h1v1h-1z M36,81h1v1h-1z M41,81h1v1h-1z M48,81h1v1h-1z M50,81h1v1h-1z M52,81h1v1h-1z M54,81h1v1h-1z M55,81h1v1h-1z M56,81h1v1h-1z M58,81h1v1h-1z M59,81h1v1h-1z M61,81h1v1h-1z M64,81h1v1h-1z M65,81h1v1h-1z M66,81h1v1h-1z M68,81h1v1h-1z M69,81h1v1h-1z M74,81h1v1h-1z M78,81h1v1h-1z M79,81h1v1h-1z M81,81h1v1h-1z M82,81h1v1h-1z M83,81h1v1h-1z M84,81h1v1h-1z M85,81h1v1h-1z M88,81h1v1h-1z M89,81h1v1h-1z M90,81h1v1h-1z M91,81h1v1h-1z M93,81h1v1h-1z M95,81h1v1h-1z M97,81h1v1h-1z M98,81h1v1h-1z M101,81h1v1h-1z M105,81h1v1h-1z M106,81h1v1h-1z M107,81h1v1h-1z M108,81h1v1h-1z M4,82h1v1h-1z M5,82h1v1h-1z M6,82h1v1h-1z M7,82h1v1h-1z M10,82h1v1h-1z M11,82h1v1h-1z M13,82h1v1h-1z M15,82h1v1h-1z M16,82h1v1h-1z M18,82h1v1h-1z M19,82h1v1h-1z M20,82h1v1h-1z M22,82h1v1h-1z M23,82h1v1h-1z M24,82h1v1h-1z M25,82h1v1h-1z M26,82h1v1h-1z M28,82h1v1h-1z M31,82h1v1h-1z M32,82h1v1h-1z M33,82h1v1h-1z M35,82h1v1h-1z M36,82h1v1h-1z M38,82h1v1h-1z M39,82h1v1h-1z M40,82h1v1h-1z M44,82h1v1h-1z M48,82h1v1h-1z M50,82h1v1h-1z M51,82h1v1h-1z M52,82h1v1h-1z M53,82h1v1h-1z M54,82h1v1h-1z M55,82h1v1h-1z M56,82h1v1h-1z M57,82h1v1h-1z M62,82h1v1h-1z M63,82h1v1h-1z M64,82h1v1h-1z M65,82h1v1h-1z M71,82h1v1h-1z M72,82h1v1h-1z M74,82h1v1h-1z M77,82h1v1h-1z M78,82h1v1h-1z M80,82h1v1h-1z M83,82h1v1h-1z M84,82h1v1h-1z M85,82h1v1h-1z M86,82h1v1h-1z M91,82h1v1h-1z M98,82h1v1h-1z M99,82h1v1h-1z M100,82h1v1h-1z M101,82h1v1h-1z M104,82h1v1h-1z M105,82h1v1h-1z M107,82h1v1h-1z M5,83h1v1h-1z M6,83h1v1h-1z M11,83h1v1h-1z M12,83h1v1h-1z M14,83h1v1h-1z M15,83h1v1h-1z M18,83h1v1h-1z M22,83h1v1h-1z M23,83h1v1h-1z M25,83h1v1h-1z M26,83h1v1h-1z M27,83h1v1h-1z M30,83h1v1h-1z M31,83h1v1h-1z M33,83h1v1h-1z M34,83h1v1h-1z M39,83h1v1h-1z M41,83h1v1h-1z M42,83h1v1h-1z M44,83h1v1h-1z M45,83h1v1h-1z M47,83h1v1h-1z M51,83h1v1h-1z M54,83h1v1h-1z M55,83h1v1h-1z M56,83h1v1h-1z M58,83h1v1h-1z M59,83h1v1h-1z M61,83h1v1h-1z M62,83h1v1h-1z M65,83h1v1h-1z M68,83h1v1h-1z M69,83h1v1h-1z M70,83h1v1h-1z M71,83h1v1h-1z M73,83h1v1h-1z M74,83h1v1h-1z M75,83h1v1h-1z M76,83h1v1h-1z M78,83h1v1h-1z M79,83h1v1h-1z M80,83h1v1h-1z M83,83h1v1h-1z M89,83h1v1h-1z M90,83h1v1h-1z M92,83h1v1h-1z M95,83h1v1h-1z M97,83h1v1h-1z M101,83h1v1h-1z M102,83h1v1h-1z M103,83h1v1h-1z M107,83h1v1h-1z M4,84h1v1h-1z M6,84h1v1h-1z M7,84h1v1h-1z M9,84h1v1h-1z M10,84h1v1h-1z M14,84h1v1h-1z M19,84h1v1h-1z M23,84h1v1h-1z M24,84h1v1h-1z M25,84h1v1h-1z M30,84h1v1h-1z M31,84h1v1h-1z M35,84h1v1h-1z M37,84h1v1h-1z M38,84h1v1h-1z M40,84h1v1h-1z M41,84h1v1h-1z M43,84h1v1h-1z M45,84h1v1h-1z M46,84h1v1h-1z M47,84h1v1h-1z M48,84h1v1h-1z M51,84h1v1h-1z M54,84h1v1h-1z M56,84h1v1h-1z M57,84h1v1h-1z M58,84h1v1h-1z M59,84h1v1h-1z M60,84h1v1h-1z M62,84h1v1h-1z M66,84h1v1h-1z M68,84h1v1h-1z M69,84h1v1h-1z M73,84h1v1h-1z M77,84h1v1h-1z M80,84h1v1h-1z M81,84h1v1h-1z M82,84h1v1h-1z M83,84h1v1h-1z M84,84h1v1h-1z M89,84h1v1h-1z M91,84h1v1h-1z M92,84h1v1h-1z M93,84h1v1h-1z M94,84h1v1h-1z M95,84h1v1h-1z M100,84h1v1h-1z M101,84h1v1h-1z M102,84h1v1h-1z M103,84h1v1h-1z M104,84h1v1h-1z M107,84h1v1h-1z M5,85h1v1h-1z M6,85h1v1h-1z M7,85h1v1h-1z M9,85h1v1h-1z M12,85h1v1h-1z M14,85h1v1h-1z M16,85h1v1h-1z M17,85h1v1h-1z M18,85h1v1h-1z M19,85h1v1h-1z M21,85h1v1h-1z M22,85h1v1h-1z M23,85h1v1h-1z M26,85h1v1h-1z M30,85h1v1h-1z M32,85h1v1h-1z M33,85h1v1h-1z M34,85h1v1h-1z M36,85h1v1h-1z M37,85h1v1h-1z M38,85h1v1h-1z M46,85h1v1h-1z M48,85h1v1h-1z M49,85h1v1h-1z M54,85h1v1h-1z M55,85h1v1h-1z M56,85h1v1h-1z M59,85h1v1h-1z M60,85h1v1h-1z M64,85h1v1h-1z M65,85h1v1h-1z M67,85h1v1h-1z M72,85h1v1h-1z M74,85h1v1h-1z M76,85h1v1h-1z M78,85h1v1h-1z M79,85h1v1h-1z M81,85h1v1h-1z M82,85h1v1h-1z M83,85h1v1h-1z M84,85h1v1h-1z M86,85h1v1h-1z M88,85h1v1h-1z M89,85h1v1h-1z M90,85h1v1h-1z M91,85h1v1h-1z M94,85h1v1h-1z M95,85h1v1h-1z M96,85h1v1h-1z M99,85h1v1h-1z M100,85h1v1h-1z M105,85h1v1h-1z M107,85h1v1h-1z M108,85h1v1h-1z M7,86h1v1h-1z M8,86h1v1h-1z M9,86h1v1h-1z M10,86h1v1h-1z M12,86h1v1h-1z M14,86h1v1h-1z M15,86h1v1h-1z M16,86h1v1h-1z M20,86h1v1h-1z M23,86h1v1h-1z M27,86h1v1h-1z M28,86h1v1h-1z M29,86h1v1h-1z M32,86h1v1h-1z M36,86h1v1h-1z M38,86h1v1h-1z M40,86h1v1h-1z M41,86h1v1h-1z M45,86h1v1h-1z M50,86h1v1h-1z M53,86h1v1h-1z M56,86h1v1h-1z M61,86h1v1h-1z M62,86h1v1h-1z M64,86h1v1h-1z M65,86h1v1h-1z M67,86h1v1h-1z M72,86h1v1h-1z M73,86h1v1h-1z M74,86h1v1h-1z M75,86h1v1h-1z M76,86h1v1h-1z M78,86h1v1h-1z M80,86h1v1h-1z M85,86h1v1h-1z M86,86h1v1h-1z M89,86h1v1h-1z M91,86h1v1h-1z M92,86h1v1h-1z M95,86h1v1h-1z M98,86h1v1h-1z M100,86h1v1h-1z M103,86h1v1h-1z M106,86h1v1h-1z M107,86h1v1h-1z M4,87h1v1h-1z M5,87h1v1h-1z M7,87h1v1h-1z M11,87h1v1h-1z M12,87h1v1h-1z M13,87h1v1h-1z M14,87h1v1h-1z M16,87h1v1h-1z M18,87h1v1h-1z M22,87h1v1h-1z M24,87h1v1h-1z M25,87h1v1h-1z M27,87h1v1h-1z M28,87h1v1h-1z M30,87h1v1h-1z M31,87h1v1h-1z M33,87h1v1h-1z M34,87h1v1h-1z M35,87h1v1h-1z M37,87h1v1h-1z M42,87h1v1h-1z M44,87h1v1h-1z M45,87h1v1h-1z M46,87h1v1h-1z M47,87h1v1h-1z M52,87h1v1h-1z M56,87h1v1h-1z M59,87h1v1h-1z M68,87h1v1h-1z M69,87h1v1h-1z M70,87h1v1h-1z M71,87h1v1h-1z M73,87h1v1h-1z M77,87h1v1h-1z M79,87h1v1h-1z M83,87h1v1h-1z M85,87h1v1h-1z M90,87h1v1h-1z M92,87h1v1h-1z M93,87h1v1h-1z M94,87h1v1h-1z M95,87h1v1h-1z M97,87h1v1h-1z M98,87h1v1h-1z M101,87h1v1h-1z M102,87h1v1h-1z M103,87h1v1h-1z M104,87h1v1h-1z M107,87h1v1h-1z M108,87h1v1h-1z M4,88h1v1h-1z M5,88h1v1h-1z M6,88h1v1h-1z M7,88h1v1h-1z M8,88h1v1h-1z M9,88h1v1h-1z M10,88h1v1h-1z M11,88h1v1h-1z M14,88h1v1h-1z M18,88h1v1h-1z M19,88h1v1h-1z M20,88h1v1h-1z M21,88h1v1h-1z M22,88h1v1h-1z M24,88h1v1h-1z M25,88h1v1h-1z M29,88h1v1h-1z M33,88h1v1h-1z M34,88h1v1h-1z M35,88h1v1h-1z M37,88h1v1h-1z M42,88h1v1h-1z M45,88h1v1h-1z M47,88h1v1h-1z M48,88h1v1h-1z M49,88h1v1h-1z M51,88h1v1h-1z M52,88h1v1h-1z M55,88h1v1h-1z M65,88h1v1h-1z M66,88h1v1h-1z M67,88h1v1h-1z M69,88h1v1h-1z M70,88h1v1h-1z M71,88h1v1h-1z M72,88h1v1h-1z M80,88h1v1h-1z M82,88h1v1h-1z M83,88h1v1h-1z M85,88h1v1h-1z M87,88h1v1h-1z M88,88h1v1h-1z M90,88h1v1h-1z M91,88h1v1h-1z M95,88h1v1h-1z M96,88h1v1h-1z M97,88h1v1h-1z M98,88h1v1h-1z M101,88h1v1h-1z M102,88h1v1h-1z M104,88h1v1h-1z M105,88h1v1h-1z M106,88h1v1h-1z M107,88h1v1h-1z M108,88h1v1h-1z M4,89h1v1h-1z M6,89h1v1h-1z M7,89h1v1h-1z M11,89h1v1h-1z M12,89h1v1h-1z M13,89h1v1h-1z M14,89h1v1h-1z M15,89h1v1h-1z M16,89h1v1h-1z M21,89h1v1h-1z M22,89h1v1h-1z M23,89h1v1h-1z M25,89h1v1h-1z M28,89h1v1h-1z M30,89h1v1h-1z M31,89h1v1h-1z M32,89h1v1h-1z M33,89h1v1h-1z M34,89h1v1h-1z M35,89h1v1h-1z M37,89h1v1h-1z M38,89h1v1h-1z M39,89h1v1h-1z M40,89h1v1h-1z M42,89h1v1h-1z M43,89h1v1h-1z M45,89h1v1h-1z M46,89h1v1h-1z M48,89h1v1h-1z M50,89h1v1h-1z M54,89h1v1h-1z M56,89h1v1h-1z M58,89h1v1h-1z M59,89h1v1h-1z M66,89h1v1h-1z M71,89h1v1h-1z M73,89h1v1h-1z M74,89h1v1h-1z M78,89h1v1h-1z M80,89h1v1h-1z M85,89h1v1h-1z M86,89h1v1h-1z M90,89h1v1h-1z M94,89h1v1h-1z M96,89h1v1h-1z M97,89h1v1h-1z M98,89h1v1h-1z M99,89h1v1h-1z M102,89h1v1h-1z M103,89h1v1h-1z M105,89h1v1h-1z M106,89h1v1h-1z M107,89h1v1h-1z M4,90h1v1h-1z M6,90h1v1h-1z M8,90h1v1h-1z M9,90h1v1h-1z M10,90h1v1h-1z M13,90h1v1h-1z M14,90h1v1h-1z M15,90h1v1h-1z M18,90h1v1h-1z M19,90h1v1h-1z M20,90h1v1h-1z M22,90h1v1h-1z M23,90h1v1h-1z M24,90h1v1h-1z M27,90h1v1h-1z M28,90h1v1h-1z M29,90h1v1h-1z M30,90h1v1h-1z M32,90h1v1h-1z M33,90h1v1h-1z M38,90h1v1h-1z M39,90h1v1h-1z M40,90h1v1h-1z M43,90h1v1h-1z M48,90h1v1h-1z M50,90h1v1h-1z M51,90h1v1h-1z M54,90h1v1h-1z M56,90h1v1h-1z M60,90h1v1h-1z M61,90h1v1h-1z M62,90h1v1h-1z M65,90h1v1h-1z M68,90h1v1h-1z M71,90h1v1h-1z M74,90h1v1h-1z M76,90h1v1h-1z M80,90h1v1h-1z M83,90h1v1h-1z M86,90h1v1h-1z M87,90h1v1h-1z M89,90h1v1h-1z M98,90h1v1h-1z M99,90h1v1h-1z M100,90h1v1h-1z M101,90h1v1h-1z M105,90h1v1h-1z M106,90h1v1h-1z M107,90h1v1h-1z M4,91h1v1h-1z M5,91h1v1h-1z M6,91h1v1h-1z M7,91h1v1h-1z M8,91h1v1h-1z M12,91h1v1h-1z M13,91h1v1h-1z M14,91h1v1h-1z M18,91h1v1h-1z M20,91h1v1h-1z M22,91h1v1h-1z M23,91h1v1h-1z M25,91h1v1h-1z M26,91h1v1h-1z M27,91h1v1h-1z M30,91h1v1h-1z M32,91h1v1h-1z M34,91h1v1h-1z M35,91h1v1h-1z M41,91h1v1h-1z M42,91h1v1h-1z M43,91h1v1h-1z M44,91h1v1h-1z M46,91h1v1h-1z M47,91h1v1h-1z M49,91h1v1h-1z M50,91h1v1h-1z M51,91h1v1h-1z M54,91h1v1h-1z M57,91h1v1h-1z M59,91h1v1h-1z M65,91h1v1h-1z M66,91h1v1h-1z M68,91h1v1h-1z M69,91h1v1h-1z M70,91h1v1h-1z M71,91h1v1h-1z M74,91h1v1h-1z M75,91h1v1h-1z M77,91h1v1h-1z M78,91h1v1h-1z M80,91h1v1h-1z M82,91h1v1h-1z M83,91h1v1h-1z M92,91h1v1h-1z M94,91h1v1h-1z M95,91h1v1h-1z M98,91h1v1h-1z M103,91h1v1h-1z M104,91h1v1h-1z M107,91h1v1h-1z M4,92h1v1h-1z M5,92h1v1h-1z M8,92h1v1h-1z M9,92h1v1h-1z M10,92h1v1h-1z M14,92h1v1h-1z M15,92h1v1h-1z M18,92h1v1h-1z M19,92h1v1h-1z M22,92h1v1h-1z M23,92h1v1h-1z M24,92h1v1h-1z M25,92h1v1h-1z M26,92h1v1h-1z M29,92h1v1h-1z M32,92h1v1h-1z M33,92h1v1h-1z M34,92h1v1h-1z M36,92h1v1h-1z M37,92h1v1h-1z M39,92h1v1h-1z M40,92h1v1h-1z M41,92h1v1h-1z M44,92h1v1h-1z M46,92h1v1h-1z M48,92h1v1h-1z M49,92h1v1h-1z M50,92h1v1h-1z M53,92h1v1h-1z M55,92h1v1h-1z M57,92h1v1h-1z M58,92h1v1h-1z M59,92h1v1h-1z M61,92h1v1h-1z M65,92h1v1h-1z M68,92h1v1h-1z M70,92h1v1h-1z M71,92h1v1h-1z M77,92h1v1h-1z M78,92h1v1h-1z M82,92h1v1h-1z M83,92h1v1h-1z M84,92h1v1h-1z M85,92h1v1h-1z M87,92h1v1h-1z M89,92h1v1h-1z M91,92h1v1h-1z M95,92h1v1h-1z M96,92h1v1h-1z M100,92h1v1h-1z M107,92h1v1h-1z M108,92h1v1h-1z M4,93h1v1h-1z M5,93h1v1h-1z M7,93h1v1h-1z M8,93h1v1h-1z M12,93h1v1h-1z M13,93h1v1h-1z M16,93h1v1h-1z M18,93h1v1h-1z M20,93h1v1h-1z M22,93h1v1h-1z M23,93h1v1h-1z M24,93h1v1h-1z M25,93h1v1h-1z M26,93h1v1h-1z M28,93h1v1h-1z M30,93h1v1h-1z M31,93h1v1h-1z M32,93h1v1h-1z M33,93h1v1h-1z M35,93h1v1h-1z M36,93h1v1h-1z M42,93h1v1h-1z M43,93h1v1h-1z M46,93h1v1h-1z M47,93h1v1h-1z M48,93h1v1h-1z M49,93h1v1h-1z M53,93h1v1h-1z M54,93h1v1h-1z M56,93h1v1h-1z M60,93h1v1h-1z M63,93h1v1h-1z M64,93h1v1h-1z M68,93h1v1h-1z M69,93h1v1h-1z M70,93h1v1h-1z M71,93h1v1h-1z M74,93h1v1h-1z M76,93h1v1h-1z M78,93h1v1h-1z M82,93h1v1h-1z M84,93h1v1h-1z M86,93h1v1h-1z M87,93h1v1h-1z M88,93h1v1h-1z M89,93h1v1h-1z M90,93h1v1h-1z M92,93h1v1h-1z M96,93h1v1h-1z M97,93h1v1h-1z M100,93h1v1h-1z M102,93h1v1h-1z M103,93h1v1h-1z M106,93h1v1h-1z M107,93h1v1h-1z M7,94h1v1h-1z M8,94h1v1h-1z M9,94h1v1h-1z M10,94h1v1h-1z M11,94h1v1h-1z M13,94h1v1h-1z M14,94h1v1h-1z M16,94h1v1h-1z M17,94h1v1h-1z M19,94h1v1h-1z M20,94h1v1h-1z M22,94h1v1h-1z M23,94h1v1h-1z M26,94h1v1h-1z M28,94h1v1h-1z M30,94h1v1h-1z M32,94h1v1h-1z M36,94h1v1h-1z M38,94h1v1h-1z M39,94h1v1h-1z M47,94h1v1h-1z M48,94h1v1h-1z M49,94h1v1h-1z M50,94h1v1h-1z M51,94h1v1h-1z M53,94h1v1h-1z M54,94h1v1h-1z M56,94h1v1h-1z M59,94h1v1h-1z M60,94h1v1h-1z M62,94h1v1h-1z M64,94h1v1h-1z M65,94h1v1h-1z M67,94h1v1h-1z M68,94h1v1h-1z M71,94h1v1h-1z M74,94h1v1h-1z M75,94h1v1h-1z M76,94h1v1h-1z M77,94h1v1h-1z M80,94h1v1h-1z M83,94h1v1h-1z M84,94h1v1h-1z M86,94h1v1h-1z M88,94h1v1h-1z M89,94h1v1h-1z M95,94h1v1h-1z M96,94h1v1h-1z M97,94h1v1h-1z M98,94h1v1h-1z M101,94h1v1h-1z M103,94h1v1h-1z M106,94h1v1h-1z M107,94h1v1h-1z M4,95h1v1h-1z M8,95h1v1h-1z M9,95h1v1h-1z M11,95h1v1h-1z M12,95h1v1h-1z M15,95h1v1h-1z M16,95h1v1h-1z M19,95h1v1h-1z M20,95h1v1h-1z M21,95h1v1h-1z M23,95h1v1h-1z M27,95h1v1h-1z M28,95h1v1h-1z M34,95h1v1h-1z M35,95h1v1h-1z M41,95h1v1h-1z M42,95h1v1h-1z M44,95h1v1h-1z M51,95h1v1h-1z M52,95h1v1h-1z M53,95h1v1h-1z M55,95h1v1h-1z M57,95h1v1h-1z M59,95h1v1h-1z M61,95h1v1h-1z M62,95h1v1h-1z M63,95h1v1h-1z M65,95h1v1h-1z M68,95h1v1h-1z M69,95h1v1h-1z M70,95h1v1h-1z M71,95h1v1h-1z M74,95h1v1h-1z M75,95h1v1h-1z M78,95h1v1h-1z M79,95h1v1h-1z M80,95h1v1h-1z M81,95h1v1h-1z M82,95h1v1h-1z M83,95h1v1h-1z M85,95h1v1h-1z M86,95h1v1h-1z M89,95h1v1h-1z M91,95h1v1h-1z M92,95h1v1h-1z M94,95h1v1h-1z M100,95h1v1h-1z M102,95h1v1h-1z M107,95h1v1h-1z M108,95h1v1h-1z M4,96h1v1h-1z M5,96h1v1h-1z M10,96h1v1h-1z M11,96h1v1h-1z M12,96h1v1h-1z M13,96h1v1h-1z M16,96h1v1h-1z M18,96h1v1h-1z M20,96h1v1h-1z M21,96h1v1h-1z M24,96h1v1h-1z M25,96h1v1h-1z M26,96h1v1h-1z M29,96h1v1h-1z M31,96h1v1h-1z M32,96h1v1h-1z M35,96h1v1h-1z M36,96h1v1h-1z M38,96h1v1h-1z M41,96h1v1h-1z M43,96h1v1h-1z M44,96h1v1h-1z M47,96h1v1h-1z M48,96h1v1h-1z M49,96h1v1h-1z M54,96h1v1h-1z M55,96h1v1h-1z M57,96h1v1h-1z M58,96h1v1h-1z M59,96h1v1h-1z M60,96h1v1h-1z M64,96h1v1h-1z M68,96h1v1h-1z M70,96h1v1h-1z M74,96h1v1h-1z M80,96h1v1h-1z M82,96h1v1h-1z M85,96h1v1h-1z M86,96h1v1h-1z M87,96h1v1h-1z M89,96h1v1h-1z M92,96h1v1h-1z M95,96h1v1h-1z M98,96h1v1h-1z M100,96h1v1h-1z M101,96h1v1h-1z M102,96h1v1h-1z M103,96h1v1h-1z M105,96h1v1h-1z M106,96h1v1h-1z M4,97h1v1h-1z M5,97h1v1h-1z M7,97h1v1h-1z M8,97h1v1h-1z M12,97h1v1h-1z M13,97h1v1h-1z M14,97h1v1h-1z M15,97h1v1h-1z M17,97h1v1h-1z M18,97h1v1h-1z M19,97h1v1h-1z M21,97h1v1h-1z M24,97h1v1h-1z M25,97h1v1h-1z M28,97h1v1h-1z M30,97h1v1h-1z M34,97h1v1h-1z M39,97h1v1h-1z M42,97h1v1h-1z M44,97h1v1h-1z M48,97h1v1h-1z M49,97h1v1h-1z M50,97h1v1h-1z M54,97h1v1h-1z M55,97h1v1h-1z M56,97h1v1h-1z M57,97h1v1h-1z M60,97h1v1h-1z M61,97h1v1h-1z M68,97h1v1h-1z M69,97h1v1h-1z M70,97h1v1h-1z M73,97h1v1h-1z M78,97h1v1h-1z M81,97h1v1h-1z M82,97h1v1h-1z M83,97h1v1h-1z M85,97h1v1h-1z M87,97h1v1h-1z M92,97h1v1h-1z M103,97h1v1h-1z M105,97h1v1h-1z M108,97h1v1h-1z M4,98h1v1h-1z M5,98h1v1h-1z M6,98h1v1h-1z M10,98h1v1h-1z M17,98h1v1h-1z M19,98h1v1h-1z M20,98h1v1h-1z M25,98h1v1h-1z M32,98h1v1h-1z M35,98h1v1h-1z M36,98h1v1h-1z M38,98h1v1h-1z M39,98h1v1h-1z M40,98h1v1h-1z M43,98h1v1h-1z M44,98h1v1h-1z M48,98h1v1h-1z M49,98h1v1h-1z M50,98h1v1h-1z M52,98h1v1h-1z M53,98h1v1h-1z M54,98h1v1h-1z M55,98h1v1h-1z M56,98h1v1h-1z M57,98h1v1h-1z M59,98h1v1h-1z M60,98h1v1h-1z M61,98h1v1h-1z M62,98h1v1h-1z M63,98h1v1h-1z M65,98h1v1h-1z M67,98h1v1h-1z M71,98h1v1h-1z M72,98h1v1h-1z M74,98h1v1h-1z M76,98h1v1h-1z M78,98h1v1h-1z M80,98h1v1h-1z M81,98h1v1h-1z M84,98h1v1h-1z M85,98h1v1h-1z M86,98h1v1h-1z M88,98h1v1h-1z M89,98h1v1h-1z M91,98h1v1h-1z M95,98h1v1h-1z M96,98h1v1h-1z M98,98h1v1h-1z M101,98h1v1h-1z M106,98h1v1h-1z M107,98h1v1h-1z M6,99h1v1h-1z M8,99h1v1h-1z M9,99h1v1h-1z M14,99h1v1h-1z M15,99h1v1h-1z M16,99h1v1h-1z M18,99h1v1h-1z M19,99h1v1h-1z M28,99h1v1h-1z M30,99h1v1h-1z M32,99h1v1h-1z M34,99h1v1h-1z M35,99h1v1h-1z M38,99h1v1h-1z M41,99h1v1h-1z M42,99h1v1h-1z M44,99h1v1h-1z M45,99h1v1h-1z M46,99h1v1h-1z M47,99h1v1h-1z M52,99h1v1h-1z M53,99h1v1h-1z M55,99h1v1h-1z M58,99h1v1h-1z M59,99h1v1h-1z M65,99h1v1h-1z M67,99h1v1h-1z M68,99h1v1h-1z M71,99h1v1h-1z M73,99h1v1h-1z M77,99h1v1h-1z M78,99h1v1h-1z M79,99h1v1h-1z M82,99h1v1h-1z M83,99h1v1h-1z M90,99h1v1h-1z M92,99h1v1h-1z M95,99h1v1h-1z M100,99h1v1h-1z M101,99h1v1h-1z M103,99h1v1h-1z M107,99h1v1h-1z M108,99h1v1h-1z M7,100h1v1h-1z M8,100h1v1h-1z M10,100h1v1h-1z M12,100h1v1h-1z M15,100h1v1h-1z M16,100h1v1h-1z M18,100h1v1h-1z M19,100h1v1h-1z M24,100h1v1h-1z M25,100h1v1h-1z M27,100h1v1h-1z M28,100h1v1h-1z M29,100h1v1h-1z M30,100h1v1h-1z M31,100h1v1h-1z M32,100h1v1h-1z M33,100h1v1h-1z M34,100h1v1h-1z M36,100h1v1h-1z M42,100h1v1h-1z M43,100h1v1h-1z M45,100h1v1h-1z M48,100h1v1h-1z M50,100h1v1h-1z M52,100h1v1h-1z M53,100h1v1h-1z M54,100h1v1h-1z M55,100h1v1h-1z M56,100h1v1h-1z M58,100h1v1h-1z M59,100h1v1h-1z M60,100h1v1h-1z M61,100h1v1h-1z M64,100h1v1h-1z M65,100h1v1h-1z M67,100h1v1h-1z M68,100h1v1h-1z M72,100h1v1h-1z M73,100h1v1h-1z M76,100h1v1h-1z M77,100h1v1h-1z M78,100h1v1h-1z M79,100h1v1h-1z M80,100h1v1h-1z M83,100h1v1h-1z M86,100h1v1h-1z M87,100h1v1h-1z M88,100h1v1h-1z M89,100h1v1h-1z M92,100h1v1h-1z M95,100h1v1h-1z M97,100h1v1h-1z M98,100h1v1h-1z M100,100h1v1h-1z M101,100h1v1h-1z M102,100h1v1h-1z M103,100h1v1h-1z M104,100h1v1h-1z M108,100h1v1h-1z M12,101h1v1h-1z M14,101h1v1h-1z M17,101h1v1h-1z M20,101h1v1h-1z M21,101h1v1h-1z M22,101h1v1h-1z M26,101h1v1h-1z M28,101h1v1h-1z M32,101h1v1h-1z M34,101h1v1h-1z M35,101h1v1h-1z M37,101h1v1h-1z M38,101h1v1h-1z M39,101h1v1h-1z M40,101h1v1h-1z M44,101h1v1h-1z M45,101h1v1h-1z M46,101h1v1h-1z M47,101h1v1h-1z M48,101h1v1h-1z M51,101h1v1h-1z M52,101h1v1h-1z M56,101h1v1h-1z M57,101h1v1h-1z M60,101h1v1h-1z M61,101h1v1h-1z M63,101h1v1h-1z M64,101h1v1h-1z M65,101h1v1h-1z M66,101h1v1h-1z M68,101h1v1h-1z M69,101h1v1h-1z M70,101h1v1h-1z M72,101h1v1h-1z M73,101h1v1h-1z M74,101h1v1h-1z M75,101h1v1h-1z M76,101h1v1h-1z M80,101h1v1h-1z M81,101h1v1h-1z M83,101h1v1h-1z M84,101h1v1h-1z M85,101h1v1h-1z M88,101h1v1h-1z M89,101h1v1h-1z M90,101h1v1h-1z M93,101h1v1h-1z M94,101h1v1h-1z M95,101h1v1h-1z M98,101h1v1h-1z M99,101h1v1h-1z M100,101h1v1h-1z M104,101h1v1h-1z M107,101h1v1h-1z M108,101h1v1h-1z M4,102h1v1h-1z M5,102h1v1h-1z M6,102h1v1h-1z M7,102h1v1h-1z M8,102h1v1h-1z M9,102h1v1h-1z M10,102h1v1h-1z M13,102h1v1h-1z M15,102h1v1h-1z M16,102h1v1h-1z M17,102h1v1h-1z M20,102h1v1h-1z M25,102h1v1h-1z M26,102h1v1h-1z M27,102h1v1h-1z M28,102h1v1h-1z M30,102h1v1h-1z M32,102h1v1h-1z M35,102h1v1h-1z M38,102h1v1h-1z M40,102h1v1h-1z M41,102h1v1h-1z M43,102h1v1h-1z M48,102h1v1h-1z M50,102h1v1h-1z M51,102h1v1h-1z M52,102h1v1h-1z M54,102h1v1h-1z M56,102h1v1h-1z M59,102h1v1h-1z M61,102h1v1h-1z M62,102h1v1h-1z M64,102h1v1h-1z M65,102h1v1h-1z M74,102h1v1h-1z M75,102h1v1h-1z M76,102h1v1h-1z M78,102h1v1h-1z M80,102h1v1h-1z M83,102h1v1h-1z M86,102h1v1h-1z M87,102h1v1h-1z M88,102h1v1h-1z M89,102h1v1h-1z M91,102h1v1h-1z M92,102h1v1h-1z M95,102h1v1h-1z M96,102h1v1h-1z M97,102h1v1h-1z M98,102h1v1h-1z M99,102h1v1h-1z M100,102h1v1h-1z M102,102h1v1h-1z M104,102h1v1h-1z M107,102h1v1h-1z M4,103h1v1h-1z M10,103h1v1h-1z M12,103h1v1h-1z M13,103h1v1h-1z M15,103h1v1h-1z M16,103h1v1h-1z M17,103h1v1h-1z M18,103h1v1h-1z M19,103h1v1h-1z M21,103h1v1h-1z M24,103h1v1h-1z M25,103h1v1h-1z M26,103h1v1h-1z M27,103h1v1h-1z M28,103h1v1h-1z M32,103h1v1h-1z M33,103h1v1h-1z M34,103h1v1h-1z M35,103h1v1h-1z M39,103h1v1h-1z M42,103h1v1h-1z M44,103h1v1h-1z M45,103h1v1h-1z M47,103h1v1h-1z M49,103h1v1h-1z M50,103h1v1h-1z M51,103h1v1h-1z M52,103h1v1h-1z M56,103h1v1h-1z M58,103h1v1h-1z M59,103h1v1h-1z M67,103h1v1h-1z M68,103h1v1h-1z M69,103h1v1h-1z M71,103h1v1h-1z M73,103h1v1h-1z M76,103h1v1h-1z M80,103h1v1h-1z M81,103h1v1h-1z M83,103h1v1h-1z M85,103h1v1h-1z M90,103h1v1h-1z M92,103h1v1h-1z M95,103h1v1h-1z M100,103h1v1h-1z M104,103h1v1h-1z M105,103h1v1h-1z M4,104h1v1h-1z M6,104h1v1h-1z M7,104h1v1h-1z M8,104h1v1h-1z M10,104h1v1h-1z M12,104h1v1h-1z M14,104h1v1h-1z M15,104h1v1h-1z M16,104h1v1h-1z M17,104h1v1h-1z M19,104h1v1h-1z M21,104h1v1h-1z M22,104h1v1h-1z M27,104h1v1h-1z M28,104h1v1h-1z M29,104h1v1h-1z M30,104h1v1h-1z M31,104h1v1h-1z M32,104h1v1h-1z M33,104h1v1h-1z M35,104h1v1h-1z M41,104h1v1h-1z M42,104h1v1h-1z M43,104h1v1h-1z M44,104h1v1h-1z M45,104h1v1h-1z M46,104h1v1h-1z M48,104h1v1h-1z M49,104h1v1h-1z M52,104h1v1h-1z M53,104h1v1h-1z M54,104h1v1h-1z M55,104h1v1h-1z M56,104h1v1h-1z M58,104h1v1h-1z M59,104h1v1h-1z M60,104h1v1h-1z M61,104h1v1h-1z M63,104h1v1h-1z M67,104h1v1h-1z M68,104h1v1h-1z M69,104h1v1h-1z M70,104h1v1h-1z M71,104h1v1h-1z M72,104h1v1h-1z M73,104h1v1h-1z M76,104h1v1h-1z M77,104h1v1h-1z M78,104h1v1h-1z M79,104h1v1h-1z M80,104h1v1h-1z M88,104h1v1h-1z M89,104h1v1h-1z M91,104h1v1h-1z M92,104h1v1h-1z M93,104h1v1h-1z M94,104h1v1h-1z M95,104h1v1h-1z M98,104h1v1h-1z M99,104h1v1h-1z M100,104h1v1h-1z M101,104h1v1h-1z M102,104h1v1h-1z M103,104h1v1h-1z M104,104h1v1h-1z M105,104h1v1h-1z M107,104h1v1h-1z M4,105h1v1h-1z M6,105h1v1h-1z M7,105h1v1h-1z M8,105h1v1h-1z M10,105h1v1h-1z M13,105h1v1h-1z M17,105h1v1h-1z M18,105h1v1h-1z M20,105h1v1h-1z M21,105h1v1h-1z M26,105h1v1h-1z M29,105h1v1h-1z M32,105h1v1h-1z M33,105h1v1h-1z M34,105h1v1h-1z M35,105h1v1h-1z M36,105h1v1h-1z M41,105h1v1h-1z M42,105h1v1h-1z M44,105h1v1h-1z M46,105h1v1h-1z M49,105h1v1h-1z M50,105h1v1h-1z M52,105h1v1h-1z M53,105h1v1h-1z M56,105h1v1h-1z M57,105h1v1h-1z M59,105h1v1h-1z M63,105h1v1h-1z M66,105h1v1h-1z M69,105h1v1h-1z M71,105h1v1h-1z M73,105h1v1h-1z M76,105h1v1h-1z M80,105h1v1h-1z M82,105h1v1h-1z M85,105h1v1h-1z M90,105h1v1h-1z M91,105h1v1h-1z M93,105h1v1h-1z M96,105h1v1h-1z M97,105h1v1h-1z M101,105h1v1h-1z M107,105h1v1h-1z M108,105h1v1h-1z M4,106h1v1h-1z M6,106h1v1h-1z M7,106h1v1h-1z M8,106h1v1h-1z M10,106h1v1h-1z M13,106h1v1h-1z M14,106h1v1h-1z M15,106h1v1h-1z M16,106h1v1h-1z M20,106h1v1h-1z M24,106h1v1h-1z M25,106h1v1h-1z M26,106h1v1h-1z M29,106h1v1h-1z M32,106h1v1h-1z M36,106h1v1h-1z M38,106h1v1h-1z M40,106h1v1h-1z M43,106h1v1h-1z M47,106h1v1h-1z M50,106h1v1h-1z M53,106h1v1h-1z M55,106h1v1h-1z M60,106h1v1h-1z M62,106h1v1h-1z M63,106h1v1h-1z M65,106h1v1h-1z M71,106h1v1h-1z M72,106h1v1h-1z M74,106h1v1h-1z M75,106h1v1h-1z M77,106h1v1h-1z M79,106h1v1h-1z M80,106h1v1h-1z M83,106h1v1h-1z M86,106h1v1h-1z M89,106h1v1h-1z M91,106h1v1h-1z M93,106h1v1h-1z M96,106h1v1h-1z M98,106h1v1h-1z M104,106h1v1h-1z M4,107h1v1h-1z M10,107h1v1h-1z M12,107h1v1h-1z M15,107h1v1h-1z M20,107h1v1h-1z M22,107h1v1h-1z M23,107h1v1h-1z M24,107h1v1h-1z M26,107h1v1h-1z M29,107h1v1h-1z M32,107h1v1h-1z M35,107h1v1h-1z M41,107h1v1h-1z M42,107h1v1h-1z M44,107h1v1h-1z M46,107h1v1h-1z M47,107h1v1h-1z M49,107h1v1h-1z M50,107h1v1h-1z M56,107h1v1h-1z M59,107h1v1h-1z M61,107h1v1h-1z M62,107h1v1h-1z M65,107h1v1h-1z M66,107h1v1h-1z M67,107h1v1h-1z M68,107h1v1h-1z M73,107h1v1h-1z M74,107h1v1h-1z M78,107h1v1h-1z M80,107h1v1h-1z M81,107h1v1h-1z M83,107h1v1h-1z M85,107h1v1h-1z M90,107h1v1h-1z M92,107h1v1h-1z M93,107h1v1h-1z M94,107h1v1h-1z M98,107h1v1h-1z M101,107h1v1h-1z M104,107h1v1h-1z M4,108h1v1h-1z M5,108h1v1h-1z M6,108h1v1h-1z M7,108h1v1h-1z M8,108h1v1h-1z M9,108h1v1h-1z M10,108h1v1h-1z M12,108h1v1h-1z M13,108h1v1h-1z M14,108h1v1h-1z M16,108h1v1h-1z M19,108h1v1h-1z M23,108h1v1h-1z M25,108h1v1h-1z M27,108h1v1h-1z M30,108h1v1h-1z M31,108h1v1h-1z M35,108h1v1h-1z M39,108h1v1h-1z M40,108h1v1h-1z M41,108h1v1h-1z M42,108h1v1h-1z M43,108h1v1h-1z M47,108h1v1h-1z M48,108h1v1h-1z M49,108h1v1h-1z M52,108h1v1h-1z M53,108h1v1h-1z M57,108h1v1h-1z M64,108h1v1h-1z M66,108h1v1h-1z M73,108h1v1h-1z M75,108h1v1h-1z M76,108h1v1h-1z M78,108h1v1h-1z M79,108h1v1h-1z M82,108h1v1h-1z M86,108h1v1h-1z M91,108h1v1h-1z M94,108h1v1h-1z M95,108h1v1h-1z M96,108h1v1h-1z M97,108h1v1h-1z M100,108h1v1h-1z M102,108h1v1h-1z M108,108h1v1h-1z" fill="#000000"/>
</svg>
