<?xml version="1.0" encoding="UTF-8"?>
<!DOCTYPE svg PUBLIC "-//W3C//DTD SVG 1.1//EN" "http://www.w3.org/Graphics/SVG/1.1/DTD/svg11.dtd">
<svg xmlns="http://www.w3.org/2000/svg" version="1.1" viewBox="0 0 113 113" stroke="none">
	<rect width="100%" height="100%" fill="#FFFFFF"/>
	<path d="M4,4h1v1h-1z M5,4h1v1h-1z M6,4h1v1h-1z M7,4h1v1h-1z M8,4h1v1h-1z M9,4h1v1h-1z M10,4h1v1h-1z M12,4h1v1h-1z M17,4h1v1h-1z M22,4h1v1h-1z M23,4h1v1h-1z M25,4h1v1h-1z M27,4h1v1h-1z M28,4h1v1h-1z M31,4h1v1h-1z M32,4h1v1h-1z M33,4h1v1h-1z M35,4h1v1h-1z M36,4h1v1h-1z M38,4h1v1h-1z M40,4h1v1h-1z M43,4h1v1h-1z M48,4h1v1h-1z M49,4h1v1h-1z M50,4h1v1h-1z M54,4h1v1h-1z M58,4h1v1h-1z M60,4h1v1h-1z M62,4h1v1h-1z M63,4h1v1h-1z M66,4h1v1h-1z M71,4h1v1h-1z M72,4h1v1h-1z M73,4h1v1h-1z M74,4h1v1h-1z M75,4h1v1h-1z M76,4h1v1h-1z M78,4h1v1h-1z M79,4h1v1h-1z M81,4h1v1h-1z M87,4h1v1h-1z M88,4h1v1h-1z M89,4h1v1h-1z M90,4h1v1h-1z M91,4h1v1h-1z M93,4h1v1h-1z M94,4h1v1h-1z M98,4h1v1h-1z M102,4h1v1h-1z M103,4h1v1h-1z M104,4h1v1h-1z M105,4h1v1h-1z M106,4h1v1h-1z M107,4h1v1h-1z M108,4h1v1h-1z M4,5h1v1h-1z M10,5h1v1h-1z M12,5h1v1h-1z M13,5h1v1h-1z M14,5h1v1h-1z M16,5h1v1h-1z M18,5h1v1h-1z M19,5h1v1h-1z M27,5h1v1h-1z M28,5h1v1h-1z M30,5h1v1h-1z M32,5h1v1h-1z M33,5h1v1h-1z M34,5h1v1h-1z M37,5h1v1h-1z M42,5h1v1h-1z M43,5h1v1h-1z M45,5h1v1h-1z M46,5h1v1h-1z M47,5h1v1h-1z M48,5h1v1h-1z M49,5h1v1h-1z M52,5h1v1h-1z M53,5h1v1h-1z M54,5h1v1h-1z M55,5h1v1h-1z M57,5h1v1h-1z M58,5h1v1h-1z M61,5h1v1h-1z M64,5h1v1h-1z M66,5h1v1h-1z M68,5h1v1h-1z M69,5h1v1h-1z M70,5h1v1h-1z M71,5h1v1h-1z M76,5h1v1h-1z M78,5h1v1h-1z M79,5h1v1h-1z M80,5h1v1h-1z M81,5h1v1h-1z M82,5h1v1h-1z M83,5h1v1h-1z M84,5h1v1h-1z M85,5h1v1h-1z M87,5h1v1h-1z M90,5h1v1h-1z M91,5h1v1h-1z M92,5h1v1h-1z M93,5h1v1h-1z M94,5h1v1h-1z M95,5h1v1h-1z M98,5h1v1h-1z M102,5h1v1h-1z M108,5h1v1h-1z M4,6h1v1h-1z M6,6h1v1h-1z M7,6h1v1h-1z M8,6h1v1h-1z M10,6h1v1h-1z M12,6h1v1h-1z M13,6h1v1h-1z M14,6h1v1h-1z M15,6h1v1h-1z M16,6h1v1h-1z M17,6h1v1h-1z M19,6h1v1h-1z M20,6h1v1h-1z M21,6h1v1h-1z M24,6h1v1h-1z M25,6h1v1h-1z M26,6h1v1h-1z M31,6h1v1h-1z M32,6h1v1h-1z M34,6h1v1h-1z M35,6h1v1h-1z M37,6h1v1h-1z M38,6h1v1h-1z M44,6h1v1h-1z M46,6h1v1h-1z M47,6h1v1h-1z M50,6h1v1h-1z M53,6h1v1h-1z M54,6h1v1h-1z M56,6h1v1h-1z M57,6h1v1h-1z M58,6h1v1h-1z M59,6h1v1h-1z M62,6h1v1h-1z M65,6h1v1h-1z M66,6h1v1h-1z M68,6h1v1h-1z M69,6h1v1h-1z M71,6h1v1h-1z M73,6h1v1h-1z M77,6h1v1h-1z M79,6h1v1h-1z M80,6h1v1h-1z M81,6h1v1h-1z M83,6h1v1h-1z M85,6h1v1h-1z M86,6h1v1h-1z M87,6h1v1h-1z M89,6h1v1h-1z M90,6h1v1h-1z M92,6h1v1h-1z M93,6h1v1h-1z M94,6h1v1h-1z M98,6h1v1h-1z M99,6h1v1h-1z M102,6h1v1h-1z M104,6h1v1h-1z M105,6h1v1h-1z M106,6h1v1h-1z M108,6h1v1h-1z M4,7h1v1h-1z M6,7h1v1h-1z M7,7h1v1h-1z M8,7h1v1h-1z M10,7h1v1h-1z M12,7h1v1h-1z M14,7h1v1h-1z M15,7h1v1h-1z M16,7h1v1h-1z M23,7h1v1h-1z M25,7h1v1h-1z M26,7h1v1h-1z M29,7h1v1h-1z M33,7h1v1h-1z M35,7h1v1h-1z M36,7h1v1h-1z M38,7h1v1h-1z M41,7h1v1h-1z M43,7h1v1h-1z M47,7h1v1h-1z M50,7h1v1h-1z M51,7h1v1h-1z M52,7h1v1h-1z M57,7h1v1h-1z M59,7h1v1h-1z M61,7h1v1h-1z M62,7h1v1h-1z M63,7h1v1h-1z M65,7h1v1h-1z M67,7h1v1h-1z M68,7h1v1h-1z M69,7h1v1h-1z M76,7h1v1h-1z M78,7h1v1h-1z M82,7h1v1h-1z M86,7h1v1h-1z M87,7h1v1h-1z M89,7h1v1h-1z M91,7h1v1h-1z M95,7h1v1h-1z M96,7h1v1h-1z M100,7h1v1h-1z M102,7h1v1h-1z M104,7h1v1h-1z M105,7h1v1h-1z M106,7h1v1h-1z M108,7h1v1h-1z M4,8h1v1h-1z M6,8h1v1h-1z M7,8h1v1h-1z M8,8h1v1h-1z M10,8h1v1h-1z M13,8h1v1h-1z M16,8h1v1h-1z M18,8h1v1h-1z M19,8h1v1h-1z M20,8h1v1h-1z M21,8h1v1h-1z M26,8h1v1h-1z M27,8h1v1h-1z M28,8h1v1h-1z M29,8h1v1h-1z M30,8h1v1h-1z M31,8h1v1h-1z M32,8h1v1h-1z M33,8h1v1h-1z M34,8h1v1h-1z M35,8h1v1h-1z M37,8h1v1h-1z M39,8h1v1h-1z M40,8h1v1h-1z M41,8h1v1h-1z M42,8h1v1h-1z M43,8h1v1h-1z M45,8h1v1h-1z M46,8h1v1h-1z M49,8h1v1h-1z M50,8h1v1h-1z M52,8h1v1h-1z M53,8h1v1h-1z M54,8h1v1h-1z M55,8h1v1h-1z M56,8h1v1h-1z M58,8h1v1h-1z M59,8h1v1h-1z M60,8h1v1h-1z M61,8h1v1h-1z M65,8h1v1h-1z M68,8h1v1h-1z M71,8h1v1h-1z M73,8h1v1h-1z M75,8h1v1h-1z M76,8h1v1h-1z M77,8h1v1h-1z M78,8h1v1h-1z M79,8h1v1h-1z M80,8h1v1h-1z M81,8h1v1h-1z M83,8h1v1h-1z M86,8h1v1h-1z M92,8h1v1h-1z M94,8h1v1h-1z M99,8h1v1h-1z M100,8h1v1h-1z M102,8h1v1h-1z M104,8h1v1h-1z M105,8h1v1h-1z M106,8h1v1h-1z M108,8h1v1h-1z M4,9h1v1h-1z M10,9h1v1h-1z M12,9h1v1h-1z M13,9h1v1h-1z M14,9h1v1h-1z M15,9h1v1h-1z M16,9h1v1h-1z M18,9h1v1h-1z M20,9h1v1h-1z M22,9h1v1h-1z M23,9h1v1h-1z M25,9h1v1h-1z M27,9h1v1h-1z M28,9h1v1h-1z M32,9h1v1h-1z M33,9h1v1h-1z M34,9h1v1h-1z M35,9h1v1h-1z M36,9h1v1h-1z M37,9h1v1h-1z M39,9h1v1h-1z M40,9h1v1h-1z M41,9h1v1h-1z M42,9h1v1h-1z M44,9h1v1h-1z M45,9h1v1h-1z M46,9h1v1h-1z M49,9h1v1h-1z M51,9h1v1h-1z M52,9h1v1h-1z M56,9h1v1h-1z M58,9h1v1h-1z M61,9h1v1h-1z M63,9h1v1h-1z M64,9h1v1h-1z M66,9h1v1h-1z M68,9h1v1h-1z M69,9h1v1h-1z M70,9h1v1h-1z M71,9h1v1h-1z M73,9h1v1h-1z M76,9h1v1h-1z M80,9h1v1h-1z M81,9h1v1h-1z M82,9h1v1h-1z M83,9h1v1h-1z M84,9h1v1h-1z M87,9h1v1h-1z M88,9h1v1h-1z M90,9h1v1h-1z M91,9h1v1h-1z M92,9h1v1h-1z M93,9h1v1h-1z M94,9h1v1h-1z M95,9h1v1h-1z M96,9h1v1h-1z M97,9h1v1h-1z M99,9h1v1h-1z M102,9h1v1h-1z M108,9h1v1h-1z M4,10h1v1h-1z M5,10h1v1h-1z M6,10h1v1h-1z M7,10h1v1h-1z M8,10h1v1h-1z M9,10h1v1h-1z M10,10h1v1h-1z M12,10h1v1h-1z M14,10h1v1h-1z M16,10h1v1h-1z M18,10h1v1h-1z M20,10h1v1h-1z M22,10h1v1h-1z M24,10h1v1h-1z M26,10h1v1h-1z M28,10h1v1h-1z M30,10h1v1h-1z M32,10h1v1h-1z M34,10h1v1h-1z M36,10h1v1h-1z M38,10h1v1h-1z M40,10h1v1h-1z M42,10h1v1h-1z M44,10h1v1h-1z M46,10h1v1h-1z M48,10h1v1h-1z M50,10h1v1h-1z M52,10h1v1h-1z M54,10h1v1h-1z M56,10h1v1h-1z M58,10h1v1h-1z M60,10h1v1h-1z M62,10h1v1h-1z M64,10h1v1h-1z M66,10h1v1h-1z M68,10h1v1h-1z M70,10h1v1h-1z M72,10h1v1h-1z M74,10h1v1h-1z M76,10h1v1h-1z M78,10h1v1h-1z M80,10h1v1h-1z M82,10h1v1h-1z M84,10h1v1h-1z M86,10h1v1h-1z M88,10h1v1h-1z M90,10h1v1h-1z M92,10h1v1h-1z M94,10h1v1h-1z M96,10h1v1h-1z M98,10h1v1h-1z M100,10h1v1h-1z M102,10h1v1h-1z M103,10h1v1h-1z M104,10h1v1h-1z M105,10h1v1h-1z M106,10h1v1h-1z M107,10h1v1h-1z M108,10h1v1h-1z M14,11h1v1h-1z M15,11h1v1h-1z M17,11h1v1h-1z M20,11h1v1h-1z M21,11h1v1h-1z M22,11h1v1h-1z M23,11h1v1h-1z M25,11h1v1h-1z M27,11h1v1h-1z M28,11h1v1h-1z M32,11h1v1h-1z M34,11h1v1h-1z M35,11h1v1h-1z M37,11h1v1h-1z M41,11h1v1h-1z M42,11h1v1h-1z M44,11h1v1h-1z M45,11h1v1h-1z M49,11h1v1h-1z M51,11h1v1h-1z M52,11h1v1h-1z M56,11h1v1h-1z M57,11h1v1h-1z M58,11h1v1h-1z M59,11h1v1h-1z M61,11h1v1h-1z M62,11h1v1h-1z M66,11h1v1h-1z M68,11h1v1h-1z M70,11h1v1h-1z M71,11h1v1h-1z M76,11h1v1h-1z M80,11h1v1h-1z M83,11h1v1h-1z M90,11h1v1h-1z M92,11h1v1h-1z M93,11h1v1h-1z M95,11h1v1h-1z M97,11h1v1h-1z M98,11h1v1h-1z M100,11h1v1h-1z M4,12h1v1h-1z M5,12h1v1h-1z M8,12h1v1h-1z M9,12h1v1h-1z M10,12h1v1h-1z M13,12h1v1h-1z M14,12h1v1h-1z M17,12h1v1h-1z M18,12h1v1h-1z M21,12h1v1h-1z M22,12h1v1h-1z M23,12h1v1h-1z M24,12h1v1h-1z M28,12h1v1h-1z M29,12h1v1h-1z M30,12h1v1h-1z M31,12h1v1h-1z M32,12h1v1h-1z M33,12h1v1h-1z M34,12h1v1h-1z M35,12h1v1h-1z M36,12h1v1h-1z M38,12h1v1h-1z M39,12h1v1h-1z M40,12h1v1h-1z M41,12h1v1h-1z M42,12h1v1h-1z M43,12h1v1h-1z M45,12h1v1h-1z M46,12h1v1h-1z M47,12h1v1h-1z M48,12h1v1h-1z M52,12h1v1h-1z M53,12h1v1h-1z M54,12h1v1h-1z M55,12h1v1h-1z M56,12h1v1h-1z M59,12h1v1h-1z M60,12h1v1h-1z M62,12h1v1h-1z M63,12h1v1h-1z M69,12h1v1h-1z M70,12h1v1h-1z M71,12h1v1h-1z M73,12h1v1h-1z M74,12h1v1h-1z M75,12h1v1h-1z M76,12h1v1h-1z M77,12h1v1h-1z M78,12h1v1h-1z M79,12h1v1h-1z M80,12h1v1h-1z M81,12h1v1h-1z M83,12h1v1h-1z M84,12h1v1h-1z M86,12h1v1h-1z M88,12h1v1h-1z M90,12h1v1h-1z M91,12h1v1h-1z M93,12h1v1h-1z M94,12h1v1h-1z M96,12h1v1h-1z M97,12h1v1h-1z M98,12h1v1h-1z M100,12h1v1h-1z M103,12h1v1h-1z M105,12h1v1h-1z M106,12h1v1h-1z M107,12h1v1h-1z M108,12h1v1h-1z M4,13h1v1h-1z M6,13h1v1h-1z M11,13h1v1h-1z M14,13h1v1h-1z M18,13h1v1h-1z M20,13h1v1h-1z M21,13h1v1h-1z M22,13h1v1h-1z M23,13h1v1h-1z M25,13h1v1h-1z M26,13h1v1h-1z M27,13h1v1h-1z M28,13h1v1h-1z M29,13h1v1h-1z M30,13h1v1h-1z M34,13h1v1h-1z M35,13h1v1h-1z M37,13h1v1h-1z M40,13h1v1h-1z M42,13h1v1h-1z M46,13h1v1h-1z M47,13h1v1h-1z M48,13h1v1h-1z M50,13h1v1h-1z M51,13h1v1h-1z M52,13h1v1h-1z M54,13h1v1h-1z M55,13h1v1h-1z M57,13h1v1h-1z M58,13h1v1h-1z M60,13h1v1h-1z M61,13h1v1h-1z M64,13h1v1h-1z M68,13h1v1h-1z M70,13h1v1h-1z M72,13h1v1h-1z M73,13h1v1h-1z M74,13h1v1h-1z M76,13h1v1h-1z M77,13h1v1h-1z M81,13h1v1h-1z M84,13h1v1h-1z M85,13h1v1h-1z M86,13h1v1h-1z M87,13h1v1h-1z M88,13h1v1h-1z M89,13h1v1h-1z M90,13h1v1h-1z M93,13h1v1h-1z M94,13h1v1h-1z M95,13h1v1h-1z M97,13h1v1h-1z M103,13h1v1h-1z M104,13h1v1h-1z M4,14h1v1h-1z M5,14h1v1h-1z M6,14h1v1h-1z M7,14h1v1h-1z M9,14h1v1h-1z M10,14h1v1h-1z M13,14h1v1h-1z M18,14h1v1h-1z M21,14h1v1h-1z M23,14h1v1h-1z M24,14h1v1h-1z M26,14h1v1h-1z M29,14h1v1h-1z M35,14h1v1h-1z M37,14h1v1h-1z M38,14h1v1h-1z M40,14h1v1h-1z M41,14h1v1h-1z M43,14h1v1h-1z M48,14h1v1h-1z M50,14h1v1h-1z M53,14h1v1h-1z M59,14h1v1h-1z M62,14h1v1h-1z M63,14h1v1h-1z M64,14h1v1h-1z M65,14h1v1h-1z M67,14h1v1h-1z M68,14h1v1h-1z M72,14h1v1h-1z M73,14h1v1h-1z M74,14h1v1h-1z M76,14h1v1h-1z M77,14h1v1h-1z M79,14h1v1h-1z M84,14h1v1h-1z M86,14h1v1h-1z M87,14h1v1h-1z M88,14h1v1h-1z M91,14h1v1h-1z M92,14h1v1h-1z M96,14h1v1h-1z M98,14h1v1h-1z M99,14h1v1h-1z M101,14h1v1h-1z M102,14h1v1h-1z M103,14h1v1h-1z M104,14h1v1h-1z M5,15h1v1h-1z M12,15h1v1h-1z M14,15h1v1h-1z M15,15h1v1h-1z M16,15h1v1h-1z M17,15h1v1h-1z M19,15h1v1h-1z M22,15h1v1h-1z M23,15h1v1h-1z M26,15h1v1h-1z M27,15h1v1h-1z M30,15h1v1h-1z M32,15h1v1h-1z M34,15h1v1h-1z M35,15h1v1h-1z M41,15h1v1h-1z M44,15h1v1h-1z M46,15h1v1h-1z M47,15h1v1h-1z M49,15h1v1h-1z M50,15h1v1h-1z M51,15h1v1h-1z M53,15h1v1h-1z M54,15h1v1h-1z M56,15h1v1h-1z M59,15h1v1h-1z M61,15h1v1h-1z M65,15h1v1h-1z M66,15h1v1h-1z M68,15h1v1h-1z M69,15h1v1h-1z M70,15h1v1h-1z M71,15h1v1h-1z M73,15h1v1h-1z M77,15h1v1h-1z M78,15h1v1h-1z M80,15h1v1h-1z M82,15h1v1h-1z M83,15h1v1h-1z M90,15h1v1h-1z M92,15h1v1h-1z M93,15h1v1h-1z M94,15h1v1h-1z M95,15h1v1h-1z M97,15h1v1h-1z M99,15h1v1h-1z M100,15h1v1h-1z M101,15h1v1h-1z M107,15h1v1h-1z M4,16h1v1h-1z M5,16h1v1h-1z M6,16h1v1h-1z M10,16h1v1h-1z M11,16h1v1h-1z M13,16h1v1h-1z M17,16h1v1h-1z M19,16h1v1h-1z M20,16h1v1h-1z M23,16h1v1h-1z M26,16h1v1h-1z M28,16h1v1h-1z M30,16h1v1h-1z M31,16h1v1h-1z M32,16h1v1h-1z M36,16h1v1h-1z M39,16h1v1h-1z M41,16h1v1h-1z M42,16h1v1h-1z M45,16h1v1h-1z M47,16h1v1h-1z M48,16h1v1h-1z M51,16h1v1h-1z M54,16h1v1h-1z M57,16h1v1h-1z M58,16h1v1h-1z M63,16h1v1h-1z M66,16h1v1h-1z M69,16h1v1h-1z M70,16h1v1h-1z M71,16h1v1h-1z M72,16h1v1h-1z M75,16h1v1h-1z M76,16h1v1h-1z M78,16h1v1h-1z M82,16h1v1h-1z M83,16h1v1h-1z M84,16h1v1h-1z M88,16h1v1h-1z M89,16h1v1h-1z M90,16h1v1h-1z M91,16h1v1h-1z M92,16h1v1h-1z M99,16h1v1h-1z M100,16h1v1h-1z M101,16h1v1h-1z M108,16h1v1h-1z M4,17h1v1h-1z M7,17h1v1h-1z M8,17h1v1h-1z M13,17h1v1h-1z M15,17h1v1h-1z M17,17h1v1h-1z M18,17h1v1h-1z M20,17h1v1h-1z M21,17h1v1h-1z M23,17h1v1h-1z M24,17h1v1h-1z M25,17h1v1h-1z M27,17h1v1h-1z M28,17h1v1h-1z M29,17h1v1h-1z M30,17h1v1h-1z M31,17h1v1h-1z M32,17h1v1h-1z M35,17h1v1h-1z M37,17h1v1h-1z M38,17h1v1h-1z M39,17h1v1h-1z M42,17h1v1h-1z M45,17h1v1h-1z M47,17h1v1h-1z M49,17h1v1h-1z M51,17h1v1h-1z M52,17h1v1h-1z M54,17h1v1h-1z M55,17h1v1h-1z M57,17h1v1h-1z M60,17h1v1h-1z M63,17h1v1h-1z M65,17h1v1h-1z M68,17h1v1h-1z M70,17h1v1h-1z M71,17h1v1h-1z M75,17h1v1h-1z M76,17h1v1h-1z M80,17h1v1h-1z M82,17h1v1h-1z M83,17h1v1h-1z M87,17h1v1h-1z M91,17h1v1h-1z M92,17h1v1h-1z M96,17h1v1h-1z M99,17h1v1h-1z M101,17h1v1h-1z M104,17h1v1h-1z M105,17h1v1h-1z M106,17h1v1h-1z M107,17h1v1h-1z M6,18h1v1h-1z M9,18h1v1h-1z M10,18h1v1h-1z M11,18h1v1h-1z M12,18h1v1h-1z M14,18h1v1h-1z M15,18h1v1h-1z M17,18h1v1h-1z M18,18h1v1h-1z M19,18h1v1h-1z M21,18h1v1h-1z M24,18h1v1h-1z M26,18h1v1h-1z M28,18h1v1h-1z M29,18h1v1h-1z M31,18h1v1h-1z M36,18h1v1h-1z M38,18h1v1h-1z M40,18h1v1h-1z M41,18h1v1h-1z M43,18h1v1h-1z M48,18h1v1h-1z M50,18h1v1h-1z M51,18h1v1h-1z M55,18h1v1h-1z M56,18h1v1h-1z M59,18h1v1h-1z M61,18h1v1h-1z M62,18h1v1h-1z M63,18h1v1h-1z M64,18h1v1h-1z M68,18h1v1h-1z M72,18h1v1h-1z M74,18h1v1h-1z M75,18h1v1h-1z M81,18h1v1h-1z M83,18h1v1h-1z M86,18h1v1h-1z M87,18h1v1h-1z M91,18h1v1h-1z M92,18h1v1h-1z M93,18h1v1h-1z M95,18h1v1h-1z M97,18h1v1h-1z M98,18h1v1h-1z M99,18h1v1h-1z M102,18h1v1h-1z M104,18h1v1h-1z M105,18h1v1h-1z M106,18h1v1h-1z M107,18h1v1h-1z M5,19h1v1h-1z M12,19h1v1h-1z M13,19h1v1h-1z M14,19h1v1h-1z M15,19h1v1h-1z M17,19h1v1h-1z M20,19h1v1h-1z M22,19h1v1h-1z M23,19h1v1h-1z M24,19h1v1h-1z M25,19h1v1h-1z M27,19h1v1h-1z M29,19h1v1h-1z M30,19h1v1h-1z M32,19h1v1h-1z M33,19h1v1h-1z M35,19h1v1h-1z M37,19h1v1h-1z M38,19h1v1h-1z M42,19h1v1h-1z M44,19h1v1h-1z M46,19h1v1h-1z M47,19h1v1h-1z M49,19h1v1h-1z M50,19h1v1h-1z M52,19h1v1h-1z M53,19h1v1h-1z M54,19h1v1h-1z M56,19h1v1h-1z M57,19h1v1h-1z M59,19h1v1h-1z M65,19h1v1h-1z M66,19h1v1h-1z M68,19h1v1h-1z M70,19h1v1h-1z M71,19h1v1h-1z M75,19h1v1h-1z M78,19h1v1h-1z M79,19h1v1h-1z M80,19h1v1h-1z M82,19h1v1h-1z M83,19h1v1h-1z M89,19h1v1h-1z M90,19h1v1h-1z M92,19h1v1h-1z M93,19h1v1h-1z M94,19h1v1h-1z M95,19h1v1h-1z M100,19h1v1h-1z M101,19h1v1h-1z M103,19h1v1h-1z M107,19h1v1h-1z M10,20h1v1h-1z M12,20h1v1h-1z M13,20h1v1h-1z M18,20h1v1h-1z M19,20h1v1h-1z M22,20h1v1h-1z M23,20h1v1h-1z M25,20h1v1h-1z M28,20h1v1h-1z M29,20h1v1h-1z M31,20h1v1h-1z M34,20h1v1h-1z M35,20h1v1h-1z M40,20h1v1h-1z M42,20h1v1h-1z M43,20h1v1h-1z M45,20h1v1h-1z M46,20h1v1h-1z M47,20h1v1h-1z M48,20h1v1h-1z M51,20h1v1h-1z M54,20h1v1h-1z M58,20h1v1h-1z M61,20h1v1h-1z M64,20h1v1h-1z M66,20h1v1h-1z M67,20h1v1h-1z M68,20h1v1h-1z M72,20h1v1h-1z M74,20h1v1h-1z M78,20h1v1h-1z M79,20h1v1h-1z M80,20h1v1h-1z M84,20h1v1h-1z M90,20h1v1h-1z M91,20h1v1h-1z M92,20h1v1h-1z M96,20h1v1h-1z M97,20h1v1h-1z M100,20h1v1h-1z M101,20h1v1h-1z M104,20h1v1h-1z M106,20h1v1h-1z M107,20h1v1h-1z M7,21h1v1h-1z M8,21h1v1h-1z M11,21h1v1h-1z M13,21h1v1h-1z M14,21h1v1h-1z M15,21h1v1h-1z M16,21h1v1h-1z M17,21h1v1h-1z M19,21h1v1h-1z M22,21h1v1h-1z M25,21h1v1h-1z M27,21h1v1h-1z M28,21h1v1h-1z M29,21h1v1h-1z M32,21h1v1h-1z M34,21h1v1h-1z M36,21h1v1h-1z M37,21h1v1h-1z M41,21h1v1h-1z M44,21h1v1h-1z M45,21h1v1h-1z M46,21h1v1h-1z M48,21h1v1h-1z M50,21h1v1h-1z M52,21h1v1h-1z M53,21h1v1h-1z M56,21h1v1h-1z M58,21h1v1h-1z M59,21h1v1h-1z M61,21h1v1h-1z M69,21h1v1h-1z M70,21h1v1h-1z M71,21h1v1h-1z M72,21h1v1h-1z M75,21h1v1h-1z M76,21h1v1h-1z M80,21h1v1h-1z M81,21h1v1h-1z M82,21h1v1h-1z M83,21h1v1h-1z M86,21h1v1h-1z M87,21h1v1h-1z M88,21h1v1h-1z M90,21h1v1h-1z M93,21h1v1h-1z M96,21h1v1h-1z M97,21h1v1h-1z M102,21h1v1h-1z M104,21h1v1h-1z M105,21h1v1h-1z M106,21h1v1h-1z M107,21h1v1h-1z M108,21h1v1h-1z M4,22h1v1h-1z M5,22h1v1h-1z M7,22h1v1h-1z M9,22h1v1h-1z M10,22h1v1h-1z M11,22h1v1h-1z M15,22h1v1h-1z M17,22h1v1h-1z M18,22h1v1h-1z M19,22h1v1h-1z M20,22h1v1h-1z M21,22h1v1h-1z M24,22h1v1h-1z M26,22h1v1h-1z M28,22h1v1h-1z M29,22h1v1h-1z M35,22h1v1h-1z M36,22h1v1h-1z M38,22h1v1h-1z M40,22h1v1h-1z M43,22h1v1h-1z M49,22h1v1h-1z M50,22h1v1h-1z M53,22h1v1h-1z M59,22h1v1h-1z M62,22h1v1h-1z M63,22h1v1h-1z M65,22h1v1h-1z M68,22h1v1h-1z M73,22h1v1h-1z M74,22h1v1h-1z M77,22h1v1h-1z M79,22h1v1h-1z M83,22h1v1h-1z M85,22h1v1h-1z M86,22h1v1h-1z M87,22h1v1h-1z M89,22h1v1h-1z M92,22h1v1h-1z M98,22h1v1h-1z M99,22h1v1h-1z M104,22h1v1h-1z M105,22h1v1h-1z M107,22h1v1h-1z M5,23h1v1h-1z M9,23h1v1h-1z M12,23h1v1h-1z M14,23h1v1h-1z M15,23h1v1h-1z M20,23h1v1h-1z M22,23h1v1h-1z M24,23h1v1h-1z M25,23h1v1h-1z M27,23h1v1h-1z M28,23h1v1h-1z M30,23h1v1h-1z M31,23h1v1h-1z M32,23h1v1h-1z M34,23h1v1h-1z M37,23h1v1h-1z M38,23h1v1h-1z M41,23h1v1h-1z M42,23h1v1h-1z M44,23h1v1h-1z M45,23h1v1h-1z M47,23h1v1h-1z M53,23h1v1h-1z M56,23h1v1h-1z M57,23h1v1h-1z M58,23h1v1h-1z M59,23h1v1h-1z M62,23h1v1h-1z M65,23h1v1h-1z M66,23h1v1h-1z M68,23h1v1h-1z M70,23h1v1h-1z M71,23h1v1h-1z M75,23h1v1h-1z M76,23h1v1h-1z M78,23h1v1h-1z M79,23h1v1h-1z M80,23h1v1h-1z M82,23h1v1h-1z M83,23h1v1h-1z M89,23h1v1h-1z M92,23h1v1h-1z M94,23h1v1h-1z M95,23h1v1h-1z M97,23h1v1h-1z M98,23h1v1h-1z M99,23h1v1h-1z M104,23h1v1h-1z M4,24h1v1h-1z M5,24h1v1h-1z M6,24h1v1h-1z M9,24h1v1h-1z M10,24h1v1h-1z M11,24h1v1h-1z M13,24h1v1h-1z M14,24h1v1h-1z M21,24h1v1h-1z M23,24h1v1h-1z M25,24h1v1h-1z M27,24h1v1h-1z M28,24h1v1h-1z M29,24h1v1h-1z M33,24h1v1h-1z M36,24h1v1h-1z M37,24h1v1h-1z M39,24h1v1h-1z M40,24h1v1h-1z M41,24h1v1h-1z M43,24h1v1h-1z M49,24h1v1h-1z M51,24h1v1h-1z M53,24h1v1h-1z M54,24h1v1h-1z M55,24h1v1h-1z M56,24h1v1h-1z M58,24h1v1h-1z M59,24h1v1h-1z M62,24h1v1h-1z M64,24h1v1h-1z M66,24h1v1h-1z M68,24h1v1h-1z M69,24h1v1h-1z M72,24h1v1h-1z M74,24h1v1h-1z M75,24h1v1h-1z M77,24h1v1h-1z M78,24h1v1h-1z M80,24h1v1h-1z M86,24h1v1h-1z M87,24h1v1h-1z M89,24h1v1h-1z M90,24h1v1h-1z M91,24h1v1h-1z M92,24h1v1h-1z M93,24h1v1h-1z M94,24h1v1h-1z M95,24h1v1h-1z M99,24h1v1h-1z M100,24h1v1h-1z M105,24h1v1h-1z M107,24h1v1h-1z M4,25h1v1h-1z M6,25h1v1h-1z M7,25h1v1h-1z M13,25h1v1h-1z M17,25h1v1h-1z M18,25h1v1h-1z M22,25h1v1h-1z M24,25h1v1h-1z M26,25h1v1h-1z M27,25h1v1h-1z M28,25h1v1h-1z M30,25h1v1h-1z M32,25h1v1h-1z M35,25h1v1h-1z M37,25h1v1h-1z M40,25h1v1h-1z M41,25h1v1h-1z M43,25h1v1h-1z M46,25h1v1h-1z M47,25h1v1h-1z M49,25h1v1h-1z M52,25h1v1h-1z M53,25h1v1h-1z M55,25h1v1h-1z M56,25h1v1h-1z M57,25h1v1h-1z M59,25h1v1h-1z M62,25h1v1h-1z M64,25h1v1h-1z M71,25h1v1h-1z M72,25h1v1h-1z M73,25h1v1h-1z M75,25h1v1h-1z M76,25h1v1h-1z M79,25h1v1h-1z M80,25h1v1h-1z M85,25h1v1h-1z M86,25h1v1h-1z M87,25h1v1h-1z M88,25h1v1h-1z M90,25h1v1h-1z M91,25h1v1h-1z M92,25h1v1h-1z M93,25h1v1h-1z M94,25h1v1h-1z M98,25h1v1h-1z M99,25h1v1h-1z M100,25h1v1h-1z M101,25h1v1h-1z M104,25h1v1h-1z M105,25h1v1h-1z M106,25h1v1h-1z M107,25h1v1h-1z M108,25h1v1h-1z M4,26h1v1h-1z M5,26h1v1h-1z M6,26h1v1h-1z M9,26h1v1h-1z M10,26h1v1h-1z M16,26h1v1h-1z M18,26h1v1h-1z M21,26h1v1h-1z M22,26h1v1h-1z M23,26h1v1h-1z M24,26h1v1h-1z M26,26h1v1h-1z M29,26h1v1h-1z M31,26h1v1h-1z M35,26h1v1h-1z M38,26h1v1h-1z M40,26h1v1h-1z M41,26h1v1h-1z M48,26h1v1h-1z M50,26h1v1h-1z M53,26h1v1h-1z M56,26h1v1h-1z M62,26h1v1h-1z M65,26h1v1h-1z M69,26h1v1h-1z M74,26h1v1h-1z M76,26h1v1h-1z M77,26h1v1h-1z M79,26h1v1h-1z M83,26h1v1h-1z M84,26h1v1h-1z M86,26h1v1h-1z M88,26h1v1h-1z M89,26h1v1h-1z M95,26h1v1h-1z M98,26h1v1h-1z M99,26h1v1h-1z M101,26h1v1h-1z M102,26h1v1h-1z M104,26h1v1h-1z M105,26h1v1h-1z M106,26h1v1h-1z M107,26h1v1h-1z M4,27h1v1h-1z M6,27h1v1h-1z M7,27h1v1h-1z M8,27h1v1h-1z M11,27h1v1h-1z M12,27h1v1h-1z M13,27h1v1h-1z M16,27h1v1h-1z M18,27h1v1h-1z M19,27h1v1h-1z M20,27h1v1h-1z M21,27h1v1h-1z M23,27h1v1h-1z M24,27h1v1h-1z M26,27h1v1h-1z M27,27h1v1h-1z M29,27h1v1h-1z M30,27h1v1h-1z M32,27h1v1h-1z M33,27h1v1h-1z M35,27h1v1h-1z M39,27h1v1h-1z M43,27h1v1h-1z M44,27h1v1h-1z M45,27h1v1h-1z M49,27h1v1h-1z M50,27h1v1h-1z M51,27h1v1h-1z M53,27h1v1h-1z M54,27h1v1h-1z M56,27h1v1h-1z M57,27h1v1h-1z M58,27h1v1h-1z M59,27h1v1h-1z M61,27h1v1h-1z M65,27h1v1h-1z M68,27h1v1h-1z M70,27h1v1h-1z M71,27h1v1h-1z M73,27h1v1h-1z M74,27h1v1h-1z M76,27h1v1h-1z M80,27h1v1h-1z M81,27h1v1h-1z M82,27h1v1h-1z M83,27h1v1h-1z M89,27h1v1h-1z M92,27h1v1h-1z M93,27h1v1h-1z M95,27h1v1h-1z M100,27h1v1h-1z M101,27h1v1h-1z M103,27h1v1h-1z M104,27h1v1h-1z M105,27h1v1h-1z M108,27h1v1h-1z M6,28h1v1h-1z M8,28h1v1h-1z M9,28h1v1h-1z M10,28h1v1h-1z M11,28h1v1h-1z M12,28h1v1h-1z M14,28h1v1h-1z M15,28h1v1h-1z M16,28h1v1h-1z M18,28h1v1h-1z M20,28h1v1h-1z M21,28h1v1h-1z M22,28h1v1h-1z M25,28h1v1h-1z M27,28h1v1h-1z M28,28h1v1h-1z M29,28h1v1h-1z M30,28h1v1h-1z M31,28h1v1h-1z M32,28h1v1h-1z M34,28h1v1h-1z M36,28h1v1h-1z M38,28h1v1h-1z M40,28h1v1h-1z M41,28h1v1h-1z M43,28h1v1h-1z M44,28h1v1h-1z M47,28h1v1h-1z M51,28h1v1h-1z M52,28h1v1h-1z M53,28h1v1h-1z M54,28h1v1h-1z M55,28h1v1h-1z M56,28h1v1h-1z M60,28h1v1h-1z M62,28h1v1h-1z M64,28h1v1h-1z M65,28h1v1h-1z M69,28h1v1h-1z M75,28h1v1h-1z M76,28h1v1h-1z M77,28h1v1h-1z M78,28h1v1h-1z M79,28h1v1h-1z M80,28h1v1h-1z M86,28h1v1h-1z M89,28h1v1h-1z M90,28h1v1h-1z M93,28h1v1h-1z M95,28h1v1h-1z M96,28h1v1h-1z M100,28h1v1h-1z M101,28h1v1h-1z M102,28h1v1h-1z M103,28h1v1h-1z M104,28h1v1h-1z M105,28h1v1h-1z M107,28h1v1h-1z M108,28h1v1h-1z M4,29h1v1h-1z M8,29h1v1h-1z M12,29h1v1h-1z M15,29h1v1h-1z M16,29h1v1h-1z M17,29h1v1h-1z M18,29h1v1h-1z M22,29h1v1h-1z M23,29h1v1h-1z M24,29h1v1h-1z M25,29h1v1h-1z M26,29h1v1h-1z M28,29h1v1h-1z M32,29h1v1h-1z M34,29h1v1h-1z M35,29h1v1h-1z M41,29h1v1h-1z M42,29h1v1h-1z M45,29h1v1h-1z M48,29h1v1h-1z M51,29h1v1h-1z M52,29h1v1h-1z M56,29h1v1h-1z M57,29h1v1h-1z M58,29h1v1h-1z M59,29h1v1h-1z M60,29h1v1h-1z M62,29h1v1h-1z M63,29h1v1h-1z M64,29h1v1h-1z M66,29h1v1h-1z M67,29h1v1h-1z M68,29h1v1h-1z M69,29h1v1h-1z M70,29h1v1h-1z M72,29h1v1h-1z M74,29h1v1h-1z M75,29h1v1h-1z M76,29h1v1h-1z M80,29h1v1h-1z M81,29h1v1h-1z M82,29h1v1h-1z M84,29h1v1h-1z M85,29h1v1h-1z M86,29h1v1h-1z M87,29h1v1h-1z M89,29h1v1h-1z M91,29h1v1h-1z M94,29h1v1h-1z M98,29h1v1h-1z M100,29h1v1h-1z M104,29h1v1h-1z M106,29h1v1h-1z M5,30h1v1h-1z M8,30h1v1h-1z M10,30h1v1h-1z M12,30h1v1h-1z M16,30h1v1h-1z M20,30h1v1h-1z M21,30h1v1h-1z M22,30h1v1h-1z M23,30h1v1h-1z M24,30h1v1h-1z M26,30h1v1h-1z M28,30h1v1h-1z M30,30h1v1h-1z M32,30h1v1h-1z M36,30h1v1h-1z M37,30h1v1h-1z M38,30h1v1h-1z M40,30h1v1h-1z M48,30h1v1h-1z M49,30h1v1h-1z M50,30h1v1h-1z M52,30h1v1h-1z M54,30h1v1h-1z M56,30h1v1h-1z M57,30h1v1h-1z M59,30h1v1h-1z M62,30h1v1h-1z M63,30h1v1h-1z M65,30h1v1h-1z M67,30h1v1h-1z M72,30h1v1h-1z M74,30h1v1h-1z M76,30h1v1h-1z M78,30h1v1h-1z M80,30h1v1h-1z M84,30h1v1h-1z M86,30h1v1h-1z M87,30h1v1h-1z M88,30h1v1h-1z M89,30h1v1h-1z M91,30h1v1h-1z M98,30h1v1h-1z M100,30h1v1h-1z M102,30h1v1h-1z M104,30h1v1h-1z M5,31h1v1h-1z M6,31h1v1h-1z M8,31h1v1h-1z M12,31h1v1h-1z M14,31h1v1h-1z M16,31h1v1h-1z M17,31h1v1h-1z M18,31h1v1h-1z M19,31h1v1h-1z M20,31h1v1h-1z M21,31h1v1h-1z M24,31h1v1h-1z M25,31h1v1h-1z M27,31h1v1h-1z M28,31h1v1h-1z M32,31h1v1h-1z M34,31h1v1h-1z M35,31h1v1h-1z M41,31h1v1h-1z M42,31h1v1h-1z M43,31h1v1h-1z M44,31h1v1h-1z M47,31h1v1h-1z M51,31h1v1h-1z M52,31h1v1h-1z M56,31h1v1h-1z M58,31h1v1h-1z M59,31h1v1h-1z M61,31h1v1h-1z M65,31h1v1h-1z M67,31h1v1h-1z M68,31h1v1h-1z M69,31h1v1h-1z M71,31h1v1h-1z M74,31h1v1h-1z M75,31h1v1h-1z M76,31h1v1h-1z M80,31h1v1h-1z M81,31h1v1h-1z M83,31h1v1h-1z M86,31h1v1h-1z M87,31h1v1h-1z M90,31h1v1h-1z M92,31h1v1h-1z M95,31h1v1h-1z M97,31h1v1h-1z M98,31h1v1h-1z M100,31h1v1h-1z M104,31h1v1h-1z M105,31h1v1h-1z M108,31h1v1h-1z M4,32h1v1h-1z M7,32h1v1h-1z M8,32h1v1h-1z M9,32h1v1h-1z M10,32h1v1h-1z M11,32h1v1h-1z M12,32h1v1h-1z M14,32h1v1h-1z M15,32h1v1h-1z M16,32h1v1h-1z M18,32h1v1h-1z M19,32h1v1h-1z M21,32h1v1h-1z M22,32h1v1h-1z M24,32h1v1h-1z M25,32h1v1h-1z M26,32h1v1h-1z M27,32h1v1h-1z M28,32h1v1h-1z M29,32h1v1h-1z M30,32h1v1h-1z M31,32h1v1h-1z M32,32h1v1h-1z M33,32h1v1h-1z M34,32h1v1h-1z M35,32h1v1h-1z M36,32h1v1h-1z M42,32h1v1h-1z M43,32h1v1h-1z M44,32h1v1h-1z M46,32h1v1h-1z M48,32h1v1h-1z M49,32h1v1h-1z M50,32h1v1h-1z M51,32h1v1h-1z M52,32h1v1h-1z M53,32h1v1h-1z M54,32h1v1h-1z M55,32h1v1h-1z M56,32h1v1h-1z M57,32h1v1h-1z M58,32h1v1h-1z M59,32h1v1h-1z M64,32h1v1h-1z M66,32h1v1h-1z M67,32h1v1h-1z M69,32h1v1h-1z M70,32h1v1h-1z M72,32h1v1h-1z M74,32h1v1h-1z M76,32h1v1h-1z M77,32h1v1h-1z M78,32h1v1h-1z M79,32h1v1h-1z M80,32h1v1h-1z M81,32h1v1h-1z M82,32h1v1h-1z M85,32h1v1h-1z M87,32h1v1h-1z M89,32h1v1h-1z M90,32h1v1h-1z M95,32h1v1h-1z M96,32h1v1h-1z M100,32h1v1h-1z M101,32h1v1h-1z M102,32h1v1h-1z M103,32h1v1h-1z M104,32h1v1h-1z M105,32h1v1h-1z M107,32h1v1h-1z M5,33h1v1h-1z M6,33h1v1h-1z M8,33h1v1h-1z M9,33h1v1h-1z M12,33h1v1h-1z M14,33h1v1h-1z M15,33h1v1h-1z M16,33h1v1h-1z M19,33h1v1h-1z M21,33h1v1h-1z M26,33h1v1h-1z M28,33h1v1h-1z M29,33h1v1h-1z M30,33h1v1h-1z M32,33h1v1h-1z M36,33h1v1h-1z M37,33h1v1h-1z M38,33h1v1h-1z M40,33h1v1h-1z M44,33h1v1h-1z M45,33h1v1h-1z M46,33h1v1h-1z M48,33h1v1h-1z M50,33h1v1h-1z M51,33h1v1h-1z M52,33h1v1h-1z M54,33h1v1h-1z M55,33h1v1h-1z M56,33h1v1h-1z M58,33h1v1h-1z M59,33h1v1h-1z M61,33h1v1h-1z M66,33h1v1h-1z M70,33h1v1h-1z M71,33h1v1h-1z M73,33h1v1h-1z M76,33h1v1h-1z M81,33h1v1h-1z M82,33h1v1h-1z M83,33h1v1h-1z M84,33h1v1h-1z M85,33h1v1h-1z M87,33h1v1h-1z M88,33h1v1h-1z M89,33h1v1h-1z M92,33h1v1h-1z M93,33h1v1h-1z M94,33h1v1h-1z M95,33h1v1h-1z M96,33h1v1h-1z M97,33h1v1h-1z M98,33h1v1h-1z M101,33h1v1h-1z M102,33h1v1h-1z M105,33h1v1h-1z M8,34h1v1h-1z M9,34h1v1h-1z M10,34h1v1h-1z M13,34h1v1h-1z M14,34h1v1h-1z M17,34h1v1h-1z M18,34h1v1h-1z M20,34h1v1h-1z M21,34h1v1h-1z M22,34h1v1h-1z M23,34h1v1h-1z M29,34h1v1h-1z M31,34h1v1h-1z M32,34h1v1h-1z M36,34h1v1h-1z M38,34h1v1h-1z M39,34h1v1h-1z M41,34h1v1h-1z M43,34h1v1h-1z M44,34h1v1h-1z M45,34h1v1h-1z M50,34h1v1h-1z M52,34h1v1h-1z M53,34h1v1h-1z M54,34h1v1h-1z M55,34h1v1h-1z M56,34h1v1h-1z M59,34h1v1h-1z M60,34h1v1h-1z M61,34h1v1h-1z M62,34h1v1h-1z M64,34h1v1h-1z M65,34h1v1h-1z M67,34h1v1h-1z M68,34h1v1h-1z M71,34h1v1h-1z M72,34h1v1h-1z M74,34h1v1h-1z M75,34h1v1h-1z M77,34h1v1h-1z M78,34h1v1h-1z M80,34h1v1h-1z M84,34h1v1h-1z M86,34h1v1h-1z M87,34h1v1h-1z M88,34h1v1h-1z M89,34h1v1h-1z M91,34h1v1h-1z M93,34h1v1h-1z M95,34h1v1h-1z M96,34h1v1h-1z M98,34h1v1h-1z M100,34h1v1h-1z M102,34h1v1h-1z M107,34h1v1h-1z M4,35h1v1h-1z M7,35h1v1h-1z M9,35h1v1h-1z M11,35h1v1h-1z M12,35h1v1h-1z M13,35h1v1h-1z M15,35h1v1h-1z M16,35h1v1h-1z M19,35h1v1h-1z M22,35h1v1h-1z M24,35h1v1h-1z M25,35h1v1h-1z M26,35h1v1h-1z M29,35h1v1h-1z M34,35h1v1h-1z M35,35h1v1h-1z M42,35h1v1h-1z M44,35h1v1h-1z M46,35h1v1h-1z M47,35h1v1h-1z M50,35h1v1h-1z M51,35h1v1h-1z M52,35h1v1h-1z M53,35h1v1h-1z M55,35h1v1h-1z M56,35h1v1h-1z M57,35h1v1h-1z M58,35h1v1h-1z M63,35h1v1h-1z M68,35h1v1h-1z M70,35h1v1h-1z M76,35h1v1h-1z M77,35h1v1h-1z M85,35h1v1h-1z M86,35h1v1h-1z M90,35h1v1h-1z M92,35h1v1h-1z M94,35h1v1h-1z M95,35h1v1h-1z M99,35h1v1h-1z M100,35h1v1h-1z M102,35h1v1h-1z M104,35h1v1h-1z M108,35h1v1h-1z M6,36h1v1h-1z M9,36h1v1h-1z M10,36h1v1h-1z M12,36h1v1h-1z M15,36h1v1h-1z M16,36h1v1h-1z M18,36h1v1h-1z M19,36h1v1h-1z M23,36h1v1h-1z M25,36h1v1h-1z M26,36h1v1h-1z M29,36h1v1h-1z M30,36h1v1h-1z M31,36h1v1h-1z M36,36h1v1h-1z M38,36h1v1h-1z M41,36h1v1h-1z M42,36h1v1h-1z M44,36h1v1h-1z M45,36h1v1h-1z M47,36h1v1h-1z M48,36h1v1h-1z M50,36h1v1h-1z M52,36h1v1h-1z M53,36h1v1h-1z M54,36h1v1h-1z M55,36h1v1h-1z M60,36h1v1h-1z M62,36h1v1h-1z M63,36h1v1h-1z M66,36h1v1h-1z M67,36h1v1h-1z M68,36h1v1h-1z M74,36h1v1h-1z M79,36h1v1h-1z M82,36h1v1h-1z M83,36h1v1h-1z M86,36h1v1h-1z M88,36h1v1h-1z M90,36h1v1h-1z M91,36h1v1h-1z M95,36h1v1h-1z M99,36h1v1h-1z M100,36h1v1h-1z M102,36h1v1h-1z M103,36h1v1h-1z M104,36h1v1h-1z M107,36h1v1h-1z M6,37h1v1h-1z M7,37h1v1h-1z M8,37h1v1h-1z M9,37h1v1h-1z M11,37h1v1h-1z M18,37h1v1h-1z M20,37h1v1h-1z M22,37h1v1h-1z M24,37h1v1h-1z M25,37h1v1h-1z M28,37h1v1h-1z M29,37h1v1h-1z M30,37h1v1h-1z M32,37h1v1h-1z M34,37h1v1h-1z M35,37h1v1h-1z M37,37h1v1h-1z M39,37h1v1h-1z M40,37h1v1h-1z M44,37h1v1h-1z M45,37h1v1h-1z M47,37h1v1h-1z M48,37h1v1h-1z M50,37h1v1h-1z M57,37h1v1h-1z M58,37h1v1h-1z M60,37h1v1h-1z M61,37h1v1h-1z M62,37h1v1h-1z M63,37h1v1h-1z M64,37h1v1h-1z M66,37h1v1h-1z M68,37h1v1h-1z M71,37h1v1h-1z M72,37h1v1h-1z M73,37h1v1h-1z M74,37h1v1h-1z M78,37h1v1h-1z M80,37h1v1h-1z M81,37h1v1h-1z M82,37h1v1h-1z M84,37h1v1h-1z M87,37h1v1h-1z M88,37h1v1h-1z M89,37h1v1h-1z M91,37h1v1h-1z M92,37h1v1h-1z M93,37h1v1h-1z M96,37h1v1h-1z M97,37h1v1h-1z M103,37h1v1h-1z M104,37h1v1h-1z M106,37h1v1h-1z M107,37h1v1h-1z M108,37h1v1h-1z M9,38h1v1h-1z M10,38h1v1h-1z M13,38h1v1h-1z M15,38h1v1h-1z M18,38h1v1h-1z M22,38h1v1h-1z M25,38h1v1h-1z M29,38h1v1h-1z M30,38h1v1h-1z M31,38h1v1h-1z M32,38h1v1h-1z M33,38h1v1h-1z M35,38h1v1h-1z M38,38h1v1h-1z M40,38h1v1h-1z M41,38h1v1h-1z M43,38h1v1h-1z M44,38h1v1h-1z M50,38h1v1h-1z M51,38h1v1h-1z M53,38h1v1h-1z M54,38h1v1h-1z M56,38h1v1h-1z M60,38h1v1h-1z M62,38h1v1h-1z M63,38h1v1h-1z M65,38h1v1h-1z M67,38h1v1h-1z M68,38h1v1h-1z M74,38h1v1h-1z M77,38h1v1h-1z M78,38h1v1h-1z M79,38h1v1h-1z M80,38h1v1h-1z M86,38h1v1h-1z M87,38h1v1h-1z M89,38h1v1h-1z M91,38h1v1h-1z M93,38h1v1h-1z M96,38h1v1h-1z M97,38h1v1h-1z M98,38h1v1h-1z M103,38h1v1h-1z M107,38h1v1h-1z M4,39h1v1h-1z M6,39h1v1h-1z M7,39h1v1h-1z M9,39h1v1h-1z M13,39h1v1h-1z M14,39h1v1h-1z M15,39h1v1h-1z M16,39h1v1h-1z M17,39h1v1h-1z M18,39h1v1h-1z M19,39h1v1h-1z M21,39h1v1h-1z M22,39h1v1h-1z M24,39h1v1h-1z M26,39h1v1h-1z M28,39h1v1h-1z M29,39h1v1h-1z M31,39h1v1h-1z M34,39h1v1h-1z M35,39h1v1h-1z M37,39h1v1h-1z M38,39h1v1h-1z M42,39h1v1h-1z M44,39h1v1h-1z M45,39h1v1h-1z M47,39h1v1h-1z M49,39h1v1h-1z M50,39h1v1h-1z M51,39h1v1h-1z M52,39h1v1h-1z M59,39h1v1h-1z M65,39h1v1h-1z M66,39h1v1h-1z M68,39h1v1h-1z M69,39h1v1h-1z M71,39h1v1h-1z M73,39h1v1h-1z M75,39h1v1h-1z M76,39h1v1h-1z M79,39h1v1h-1z M81,39h1v1h-1z M82,39h1v1h-1z M83,39h1v1h-1z M86,39h1v1h-1z M89,39h1v1h-1z M92,39h1v1h-1z M94,39h1v1h-1z M95,39h1v1h-1z M99,39h1v1h-1z M100,39h1v1h-1z M101,39h1v1h-1z M102,39h1v1h-1z M104,39h1v1h-1z M107,39h1v1h-1z M108,39h1v1h-1z M4,40h1v1h-1z M5,40h1v1h-1z M7,40h1v1h-1z M9,40h1v1h-1z M10,40h1v1h-1z M12,40h1v1h-1z M13,40h1v1h-1z M14,40h1v1h-1z M15,40h1v1h-1z M18,40h1v1h-1z M20,40h1v1h-1z M21,40h1v1h-1z M22,40h1v1h-1z M24,40h1v1h-1z M25,40h1v1h-1z M28,40h1v1h-1z M31,40h1v1h-1z M35,40h1v1h-1z M39,40h1v1h-1z M40,40h1v1h-1z M41,40h1v1h-1z M45,40h1v1h-1z M46,40h1v1h-1z M49,40h1v1h-1z M55,40h1v1h-1z M58,40h1v1h-1z M59,40h1v1h-1z M60,40h1v1h-1z M63,40h1v1h-1z M66,40h1v1h-1z M67,40h1v1h-1z M68,40h1v1h-1z M69,40h1v1h-1z M71,40h1v1h-1z M73,40h1v1h-1z M74,40h1v1h-1z M79,40h1v1h-1z M81,40h1v1h-1z M84,40h1v1h-1z M86,40h1v1h-1z M87,40h1v1h-1z M88,40h1v1h-1z M89,40h1v1h-1z M97,40h1v1h-1z M99,40h1v1h-1z M102,40h1v1h-1z M104,40h1v1h-1z M105,40h1v1h-1z M107,40h1v1h-1z M6,41h1v1h-1z M11,41h1v1h-1z M14,41h1v1h-1z M22,41h1v1h-1z M24,41h1v1h-1z M25,41h1v1h-1z M26,41h1v1h-1z M29,41h1v1h-1z M30,41h1v1h-1z M32,41h1v1h-1z M34,41h1v1h-1z M35,41h1v1h-1z M38,41h1v1h-1z M40,41h1v1h-1z M41,41h1v1h-1z M43,41h1v1h-1z M44,41h1v1h-1z M46,41h1v1h-1z M48,41h1v1h-1z M50,41h1v1h-1z M51,41h1v1h-1z M54,41h1v1h-1z M55,41h1v1h-1z M56,41h1v1h-1z M57,41h1v1h-1z M58,41h1v1h-1z M59,41h1v1h-1z M63,41h1v1h-1z M64,41h1v1h-1z M71,41h1v1h-1z M72,41h1v1h-1z M73,41h1v1h-1z M74,41h1v1h-1z M75,41h1v1h-1z M79,41h1v1h-1z M80,41h1v1h-1z M81,41h1v1h-1z M82,41h1v1h-1z M83,41h1v1h-1z M84,41h1v1h-1z M85,41h1v1h-1z M86,41h1v1h-1z M87,41h1v1h-1z M89,41h1v1h-1z M90,41h1v1h-1z M93,41h1v1h-1z M94,41h1v1h-1z M96,41h1v1h-1z M97,41h1v1h-1z M98,41h1v1h-1z M99,41h1v1h-1z M100,41h1v1h-1z M101,41h1v1h-1z M102,41h1v1h-1z M103,41h1v1h-1z M105,41h1v1h-1z M106,41h1v1h-1z M107,41h1v1h-1z M108,41h1v1h-1z M5,42h1v1h-1z M8,42h1v1h-1z M10,42h1v1h-1z M11,42h1v1h-1z M12,42h1v1h-1z M16,42h1v1h-1z M17,42h1v1h-1z M19,42h1v1h-1z M20,42h1v1h-1z M23,42h1v1h-1z M27,42h1v1h-1z M31,42h1v1h-1z M32,42h1v1h-1z M36,42h1v1h-1z M38,42h1v1h-1z M39,42h1v1h-1z M41,42h1v1h-1z M45,42h1v1h-1z M48,42h1v1h-1z M50,42h1v1h-1z M51,42h1v1h-1z M53,42h1v1h-1z M55,42h1v1h-1z M56,42h1v1h-1z M57,42h1v1h-1z M59,42h1v1h-1z M60,42h1v1h-1z M62,42h1v1h-1z M64,42h1v1h-1z M65,42h1v1h-1z M71,42h1v1h-1z M72,42h1v1h-1z M73,42h1v1h-1z M74,42h1v1h-1z M76,42h1v1h-1z M78,42h1v1h-1z M79,42h1v1h-1z M83,42h1v1h-1z M84,42h1v1h-1z M86,42h1v1h-1z M88,42h1v1h-1z M98,42h1v1h-1z M99,42h1v1h-1z M100,42h1v1h-1z M101,42h1v1h-1z M106,42h1v1h-1z M107,42h1v1h-1z M7,43h1v1h-1z M8,43h1v1h-1z M9,43h1v1h-1z M15,43h1v1h-1z M20,43h1v1h-1z M21,43h1v1h-1z M23,43h1v1h-1z M24,43h1v1h-1z M28,43h1v1h-1z M29,43h1v1h-1z M34,43h1v1h-1z M35,43h1v1h-1z M41,43h1v1h-1z M42,43h1v1h-1z M43,43h1v1h-1z M44,43h1v1h-1z M46,43h1v1h-1z M47,43h1v1h-1z M49,43h1v1h-1z M50,43h1v1h-1z M52,43h1v1h-1z M53,43h1v1h-1z M55,43h1v1h-1z M56,43h1v1h-1z M58,43h1v1h-1z M59,43h1v1h-1z M61,43h1v1h-1z M62,43h1v1h-1z M65,43h1v1h-1z M68,43h1v1h-1z M69,43h1v1h-1z M70,43h1v1h-1z M71,43h1v1h-1z M76,43h1v1h-1z M77,43h1v1h-1z M79,43h1v1h-1z M81,43h1v1h-1z M82,43h1v1h-1z M85,43h1v1h-1z M86,43h1v1h-1z M90,43h1v1h-1z M92,43h1v1h-1z M93,43h1v1h-1z M94,43h1v1h-1z M95,43h1v1h-1z M97,43h1v1h-1z M99,43h1v1h-1z M101,43h1v1h-1z M104,43h1v1h-1z M108,43h1v1h-1z M4,44h1v1h-1z M6,44h1v1h-1z M7,44h1v1h-1z M8,44h1v1h-1z M9,44h1v1h-1z M10,44h1v1h-1z M12,44h1v1h-1z M15,44h1v1h-1z M16,44h1v1h-1z M18,44h1v1h-1z M21,44h1v1h-1z M22,44h1v1h-1z M24,44h1v1h-1z M26,44h1v1h-1z M27,44h1v1h-1z M34,44h1v1h-1z M36,44h1v1h-1z M37,44h1v1h-1z M40,44h1v1h-1z M42,44h1v1h-1z M43,44h1v1h-1z M44,44h1v1h-1z M45,44h1v1h-1z M46,44h1v1h-1z M47,44h1v1h-1z M52,44h1v1h-1z M54,44h1v1h-1z M55,44h1v1h-1z M57,44h1v1h-1z M60,44h1v1h-1z M61,44h1v1h-1z M62,44h1v1h-1z M63,44h1v1h-1z M65,44h1v1h-1z M66,44h1v1h-1z M68,44h1v1h-1z M74,44h1v1h-1z M76,44h1v1h-1z M79,44h1v1h-1z M82,44h1v1h-1z M83,44h1v1h-1z M86,44h1v1h-1z M88,44h1v1h-1z M90,44h1v1h-1z M92,44h1v1h-1z M93,44h1v1h-1z M94,44h1v1h-1z M101,44h1v1h-1z M102,44h1v1h-1z M106,44h1v1h-1z M108,44h1v1h-1z M5,45h1v1h-1z M7,45h1v1h-1z M8,45h1v1h-1z M11,45h1v1h-1z M14,45h1v1h-1z M16,45h1v1h-1z M20,45h1v1h-1z M23,45h1v1h-1z M25,45h1v1h-1z M26,45h1v1h-1z M28,45h1v1h-1z M31,45h1v1h-1z M32,45h1v1h-1z M33,45h1v1h-1z M35,45h1v1h-1z M37,45h1v1h-1z M39,45h1v1h-1z M40,45h1v1h-1z M45,45h1v1h-1z M46,45h1v1h-1z M48,45h1v1h-1z M49,45h1v1h-1z M52,45h1v1h-1z M53,45h1v1h-1z M54,45h1v1h-1z M55,45h1v1h-1z M57,45h1v1h-1z M59,45h1v1h-1z M62,45h1v1h-1z M63,45h1v1h-1z M66,45h1v1h-1z M67,45h1v1h-1z M69,45h1v1h-1z M70,45h1v1h-1z M71,45h1v1h-1z M72,45h1v1h-1z M73,45h1v1h-1z M75,45h1v1h-1z M76,45h1v1h-1z M77,45h1v1h-1z M79,45h1v1h-1z M80,45h1v1h-1z M81,45h1v1h-1z M84,45h1v1h-1z M88,45h1v1h-1z M90,45h1v1h-1z M91,45h1v1h-1z M94,45h1v1h-1z M95,45h1v1h-1z M97,45h1v1h-1z M104,45h1v1h-1z M105,45h1v1h-1z M106,45h1v1h-1z M107,45h1v1h-1z M108,45h1v1h-1z M4,46h1v1h-1z M5,46h1v1h-1z M6,46h1v1h-1z M8,46h1v1h-1z M9,46h1v1h-1z M10,46h1v1h-1z M12,46h1v1h-1z M14,46h1v1h-1z M15,46h1v1h-1z M17,46h1v1h-1z M18,46h1v1h-1z M20,46h1v1h-1z M21,46h1v1h-1z M22,46h1v1h-1z M26,46h1v1h-1z M27,46h1v1h-1z M29,46h1v1h-1z M30,46h1v1h-1z M31,46h1v1h-1z M32,46h1v1h-1z M35,46h1v1h-1z M36,46h1v1h-1z M37,46h1v1h-1z M38,46h1v1h-1z M41,46h1v1h-1z M44,46h1v1h-1z M47,46h1v1h-1z M50,46h1v1h-1z M51,46h1v1h-1z M53,46h1v1h-1z M54,46h1v1h-1z M56,46h1v1h-1z M59,46h1v1h-1z M62,46h1v1h-1z M64,46h1v1h-1z M65,46h1v1h-1z M67,46h1v1h-1z M71,46h1v1h-1z M74,46h1v1h-1z M75,46h1v1h-1z M76,46h1v1h-1z M79,46h1v1h-1z M83,46h1v1h-1z M84,46h1v1h-1z M86,46h1v1h-1z M88,46h1v1h-1z M89,46h1v1h-1z M98,46h1v1h-1z M101,46h1v1h-1z M102,46h1v1h-1z M103,46h1v1h-1z M105,46h1v1h-1z M106,46h1v1h-1z M107,46h1v1h-1z M6,47h1v1h-1z M8,47h1v1h-1z M11,47h1v1h-1z M12,47h1v1h-1z M13,47h1v1h-1z M14,47h1v1h-1z M15,47h1v1h-1z M18,47h1v1h-1z M20,47h1v1h-1z M23,47h1v1h-1z M24,47h1v1h-1z M26,47h1v1h-1z M28,47h1v1h-1z M31,47h1v1h-1z M33,47h1v1h-1z M34,47h1v1h-1z M35,47h1v1h-1z M41,47h1v1h-1z M44,47h1v1h-1z M47,47h1v1h-1z M49,47h1v1h-1z M50,47h1v1h-1z M52,47h1v1h-1z M53,47h1v1h-1z M55,47h1v1h-1z M59,47h1v1h-1z M61,47h1v1h-1z M68,47h1v1h-1z M71,47h1v1h-1z M82,47h1v1h-1z M85,47h1v1h-1z M86,47h1v1h-1z M87,47h1v1h-1z M89,47h1v1h-1z M91,47h1v1h-1z M92,47h1v1h-1z M93,47h1v1h-1z M95,47h1v1h-1z M99,47h1v1h-1z M100,47h1v1h-1z M104,47h1v1h-1z M105,47h1v1h-1z M107,47h1v1h-1z M7,48h1v1h-1z M8,48h1v1h-1z M10,48h1v1h-1z M13,48h1v1h-1z M19,48h1v1h-1z M21,48h1v1h-1z M23,48h1v1h-1z M24,48h1v1h-1z M31,48h1v1h-1z M33,48h1v1h-1z M34,48h1v1h-1z M37,48h1v1h-1z M42,48h1v1h-1z M43,48h1v1h-1z M45,48h1v1h-1z M46,48h1v1h-1z M48,48h1v1h-1z M50,48h1v1h-1z M53,48h1v1h-1z M54,48h1v1h-1z M55,48h1v1h-1z M58,48h1v1h-1z M60,48h1v1h-1z M61,48h1v1h-1z M66,48h1v1h-1z M68,48h1v1h-1z M71,48h1v1h-1z M72,48h1v1h-1z M73,48h1v1h-1z M74,48h1v1h-1z M77,48h1v1h-1z M79,48h1v1h-1z M82,48h1v1h-1z M83,48h1v1h-1z M91,48h1v1h-1z M92,48h1v1h-1z M93,48h1v1h-1z M95,48h1v1h-1z M96,48h1v1h-1z M98,48h1v1h-1z M99,48h1v1h-1z M101,48h1v1h-1z M102,48h1v1h-1z M103,48h1v1h-1z M104,48h1v1h-1z M105,48h1v1h-1z M108,48h1v1h-1z M6,49h1v1h-1z M7,49h1v1h-1z M8,49h1v1h-1z M9,49h1v1h-1z M11,49h1v1h-1z M12,49h1v1h-1z M14,49h1v1h-1z M16,49h1v1h-1z M19,49h1v1h-1z M20,49h1v1h-1z M21,49h1v1h-1z M23,49h1v1h-1z M24,49h1v1h-1z M25,49h1v1h-1z M26,49h1v1h-1z M30,49h1v1h-1z M31,49h1v1h-1z M32,49h1v1h-1z M34,49h1v1h-1z M37,49h1v1h-1z M39,49h1v1h-1z M40,49h1v1h-1z M42,49h1v1h-1z M43,49h1v1h-1z M44,49h1v1h-1z M45,49h1v1h-1z M46,49h1v1h-1z M48,49h1v1h-1z M53,49h1v1h-1z M55,49h1v1h-1z M57,49h1v1h-1z M59,49h1v1h-1z M60,49h1v1h-1z M64,49h1v1h-1z M67,49h1v1h-1z M69,49h1v1h-1z M70,49h1v1h-1z M72,49h1v1h-1z M73,49h1v1h-1z M74,49h1v1h-1z M75,49h1v1h-1z M76,49h1v1h-1z M77,49h1v1h-1z M80,49h1v1h-1z M82,49h1v1h-1z M83,49h1v1h-1z M84,49h1v1h-1z M87,49h1v1h-1z M91,49h1v1h-1z M93,49h1v1h-1z M95,49h1v1h-1z M96,49h1v1h-1z M98,49h1v1h-1z M101,49h1v1h-1z M104,49h1v1h-1z M106,49h1v1h-1z M5,50h1v1h-1z M10,50h1v1h-1z M14,50h1v1h-1z M15,50h1v1h-1z M16,50h1v1h-1z M17,50h1v1h-1z M18,50h1v1h-1z M21,50h1v1h-1z M22,50h1v1h-1z M23,50h1v1h-1z M28,50h1v1h-1z M29,50h1v1h-1z M30,50h1v1h-1z M31,50h1v1h-1z M32,50h1v1h-1z M38,50h1v1h-1z M39,50h1v1h-1z M41,50h1v1h-1z M44,50h1v1h-1z M48,50h1v1h-1z M49,50h1v1h-1z M50,50h1v1h-1z M55,50h1v1h-1z M56,50h1v1h-1z M59,50h1v1h-1z M62,50h1v1h-1z M63,50h1v1h-1z M64,50h1v1h-1z M65,50h1v1h-1z M71,50h1v1h-1z M72,50h1v1h-1z M74,50h1v1h-1z M77,50h1v1h-1z M80,50h1v1h-1z M81,50h1v1h-1z M83,50h1v1h-1z M86,50h1v1h-1z M87,50h1v1h-1z M89,50h1v1h-1z M91,50h1v1h-1z M95,50h1v1h-1z M96,50h1v1h-1z M98,50h1v1h-1z M100,50h1v1h-1z M103,50h1v1h-1z M8,51h1v1h-1z M12,51h1v1h-1z M14,51h1v1h-1z M15,51h1v1h-1z M16,51h1v1h-1z M19,51h1v1h-1z M20,51h1v1h-1z M22,51h1v1h-1z M25,51h1v1h-1z M27,51h1v1h-1z M28,51h1v1h-1z M31,51h1v1h-1z M34,51h1v1h-1z M35,51h1v1h-1z M38,51h1v1h-1z M41,51h1v1h-1z M44,51h1v1h-1z M46,51h1v1h-1z M47,51h1v1h-1z M49,51h1v1h-1z M52,51h1v1h-1z M53,51h1v1h-1z M55,51h1v1h-1z M56,51h1v1h-1z M58,51h1v1h-1z M59,51h1v1h-1z M62,51h1v1h-1z M63,51h1v1h-1z M68,51h1v1h-1z M74,51h1v1h-1z M75,51h1v1h-1z M76,51h1v1h-1z M77,51h1v1h-1z M79,51h1v1h-1z M80,51h1v1h-1z M82,51h1v1h-1z M83,51h1v1h-1z M86,51h1v1h-1z M89,51h1v1h-1z M90,51h1v1h-1z M91,51h1v1h-1z M92,51h1v1h-1z M94,51h1v1h-1z M95,51h1v1h-1z M97,51h1v1h-1z M98,51h1v1h-1z M99,51h1v1h-1z M100,51h1v1h-1z M102,51h1v1h-1z M104,51h1v1h-1z M105,51h1v1h-1z M107,51h1v1h-1z M4,52h1v1h-1z M5,52h1v1h-1z M6,52h1v1h-1z M8,52h1v1h-1z M9,52h1v1h-1z M10,52h1v1h-1z M11,52h1v1h-1z M12,52h1v1h-1z M16,52h1v1h-1z M17,52h1v1h-1z M18,52h1v1h-1z M21,52h1v1h-1z M24,52h1v1h-1z M25,52h1v1h-1z M26,52h1v1h-1z M28,52h1v1h-1z M29,52h1v1h-1z M30,52h1v1h-1z M31,52h1v1h-1z M32,52h1v1h-1z M37,52h1v1h-1z M38,52h1v1h-1z M41,52h1v1h-1z M42,52h1v1h-1z M43,52h1v1h-1z M46,52h1v1h-1z M47,52h1v1h-1z M49,52h1v1h-1z M52,52h1v1h-1z M53,52h1v1h-1z M54,52h1v1h-1z M55,52h1v1h-1z M56,52h1v1h-1z M57,52h1v1h-1z M59,52h1v1h-1z M60,52h1v1h-1z M62,52h1v1h-1z M66,52h1v1h-1z M67,52h1v1h-1z M68,52h1v1h-1z M72,52h1v1h-1z M74,52h1v1h-1z M76,52h1v1h-1z M77,52h1v1h-1z M78,52h1v1h-1z M79,52h1v1h-1z M80,52h1v1h-1z M83,52h1v1h-1z M85,52h1v1h-1z M87,52h1v1h-1z M88,52h1v1h-1z M89,52h1v1h-1z M90,52h1v1h-1z M95,52h1v1h-1z M98,52h1v1h-1z M99,52h1v1h-1z M100,52h1v1h-1z M101,52h1v1h-1z M102,52h1v1h-1z M103,52h1v1h-1z M104,52h1v1h-1z M105,52h1v1h-1z M4,53h1v1h-1z M5,53h1v1h-1z M6,53h1v1h-1z M8,53h1v1h-1z M12,53h1v1h-1z M14,53h1v1h-1z M16,53h1v1h-1z M17,53h1v1h-1z M19,53h1v1h-1z M20,53h1v1h-1z M22,53h1v1h-1z M23,53h1v1h-1z M26,53h1v1h-1z M28,53h1v1h-1z M32,53h1v1h-1z M35,53h1v1h-1z M36,53h1v1h-1z M37,53h1v1h-1z M42,53h1v1h-1z M44,53h1v1h-1z M46,53h1v1h-1z M48,53h1v1h-1z M51,53h1v1h-1z M52,53h1v1h-1z M56,53h1v1h-1z M57,53h1v1h-1z M58,53h1v1h-1z M59,53h1v1h-1z M61,53h1v1h-1z M64,53h1v1h-1z M65,53h1v1h-1z M66,53h1v1h-1z M70,53h1v1h-1z M71,53h1v1h-1z M72,53h1v1h-1z M73,53h1v1h-1z M75,53h1v1h-1z M76,53h1v1h-1z M80,53h1v1h-1z M82,53h1v1h-1z M92,53h1v1h-1z M93,53h1v1h-1z M95,53h1v1h-1z M99,53h1v1h-1z M100,53h1v1h-1z M104,53h1v1h-1z M105,53h1v1h-1z M108,53h1v1h-1z M4,54h1v1h-1z M6,54h1v1h-1z M8,54h1v1h-1z M10,54h1v1h-1z M12,54h1v1h-1z M13,54h1v1h-1z M15,54h1v1h-1z M16,54h1v1h-1z M20,54h1v1h-1z M21,54h1v1h-1z M22,54h1v1h-1z M24,54h1v1h-1z M25,54h1v1h-1z M26,54h1v1h-1z M27,54h1v1h-1z M28,54h1v1h-1z M30,54h1v1h-1z M32,54h1v1h-1z M35,54h1v1h-1z M36,54h1v1h-1z M38,54h1v1h-1z M41,54h1v1h-1z M43,54h1v1h-1z M44,54h1v1h-1z M47,54h1v1h-1z M48,54h1v1h-1z M49,54h1v1h-1z M50,54h1v1h-1z M52,54h1v1h-1z M54,54h1v1h-1z M56,54h1v1h-1z M60,54h1v1h-1z M62,54h1v1h-1z M63,54h1v1h-1z M64,54h1v1h-1z M68,54h1v1h-1z M71,54h1v1h-1z M74,54h1v1h-1z M75,54h1v1h-1z M76,54h1v1h-1z M78,54h1v1h-1z M80,54h1v1h-1z M86,54h1v1h-1z M89,54h1v1h-1z M91,54h1v1h-1z M95,54h1v1h-1z M97,54h1v1h-1z M98,54h1v1h-1z M100,54h1v1h-1z M102,54h1v1h-1z M104,54h1v1h-1z M107,54h1v1h-1z M4,55h1v1h-1z M7,55h1v1h-1z M8,55h1v1h-1z M12,55h1v1h-1z M13,55h1v1h-1z M17,55h1v1h-1z M18,55h1v1h-1z M19,55h1v1h-1z M22,55h1v1h-1z M23,55h1v1h-1z M24,55h1v1h-1z M25,55h1v1h-1z M27,55h1v1h-1z M28,55h1v1h-1z M32,55h1v1h-1z M33,55h1v1h-1z M34,55h1v1h-1z M37,55h1v1h-1z M41,55h1v1h-1z M42,55h1v1h-1z M44,55h1v1h-1z M45,55h1v1h-1z M46,55h1v1h-1z M47,55h1v1h-1z M52,55h1v1h-1z M56,55h1v1h-1z M58,55h1v1h-1z M59,55h1v1h-1z M66,55h1v1h-1z M68,55h1v1h-1z M69,55h1v1h-1z M71,55h1v1h-1z M73,55h1v1h-1z M74,55h1v1h-1z M75,55h1v1h-1z M76,55h1v1h-1z M80,55h1v1h-1z M83,55h1v1h-1z M86,55h1v1h-1z M89,55h1v1h-1z M92,55h1v1h-1z M94,55h1v1h-1z M95,55h1v1h-1z M99,55h1v1h-1z M100,55h1v1h-1z M104,55h1v1h-1z M5,56h1v1h-1z M8,56h1v1h-1z M9,56h1v1h-1z M10,56h1v1h-1z M11,56h1v1h-1z M12,56h1v1h-1z M13,56h1v1h-1z M15,56h1v1h-1z M16,56h1v1h-1z M18,56h1v1h-1z M19,56h1v1h-1z M22,56h1v1h-1z M23,56h1v1h-1z M24,56h1v1h-1z M25,56h1v1h-1z M26,56h1v1h-1z M28,56h1v1h-1z M29,56h1v1h-1z M30,56h1v1h-1z M31,56h1v1h-1z M32,56h1v1h-1z M35,56h1v1h-1z M36,56h1v1h-1z M37,56h1v1h-1z M38,56h1v1h-1z M41,56h1v1h-1z M44,56h1v1h-1z M45,56h1v1h-1z M47,56h1v1h-1z M52,56h1v1h-1z M53,56h1v1h-1z M54,56h1v1h-1z M55,56h1v1h-1z M56,56h1v1h-1z M57,56h1v1h-1z M58,56h1v1h-1z M66,56h1v1h-1z M70,56h1v1h-1z M73,56h1v1h-1z M76,56h1v1h-1z M77,56h1v1h-1z M78,56h1v1h-1z M79,56h1v1h-1z M80,56h1v1h-1z M82,56h1v1h-1z M85,56h1v1h-1z M87,56h1v1h-1z M89,56h1v1h-1z M91,56h1v1h-1z M92,56h1v1h-1z M94,56h1v1h-1z M100,56h1v1h-1z M101,56h1v1h-1z M102,56h1v1h-1z M103,56h1v1h-1z M104,56h1v1h-1z M105,56h1v1h-1z M108,56h1v1h-1z M4,57h1v1h-1z M5,57h1v1h-1z M8,57h1v1h-1z M9,57h1v1h-1z M11,57h1v1h-1z M16,57h1v1h-1z M17,57h1v1h-1z M18,57h1v1h-1z M25,57h1v1h-1z M27,57h1v1h-1z M31,57h1v1h-1z M34,57h1v1h-1z M35,57h1v1h-1z M37,57h1v1h-1z M39,57h1v1h-1z M40,57h1v1h-1z M41,57h1v1h-1z M42,57h1v1h-1z M46,57h1v1h-1z M47,57h1v1h-1z M49,57h1v1h-1z M50,57h1v1h-1z M52,57h1v1h-1z M53,57h1v1h-1z M55,57h1v1h-1z M60,57h1v1h-1z M61,57h1v1h-1z M62,57h1v1h-1z M65,57h1v1h-1z M66,57h1v1h-1z M67,57h1v1h-1z M70,57h1v1h-1z M71,57h1v1h-1z M73,57h1v1h-1z M74,57h1v1h-1z M75,57h1v1h-1z M77,57h1v1h-1z M78,57h1v1h-1z M79,57h1v1h-1z M81,57h1v1h-1z M82,57h1v1h-1z M84,57h1v1h-1z M86,57h1v1h-1z M87,57h1v1h-1z M88,57h1v1h-1z M89,57h1v1h-1z M90,57h1v1h-1z M91,57h1v1h-1z M94,57h1v1h-1z M96,57h1v1h-1z M97,57h1v1h-1z M99,57h1v1h-1z M100,57h1v1h-1z M101,57h1v1h-1z M102,57h1v1h-1z M103,57h1v1h-1z M104,57h1v1h-1z M105,57h1v1h-1z M106,57h1v1h-1z M108,57h1v1h-1z M4,58h1v1h-1z M6,58h1v1h-1z M7,58h1v1h-1z M10,58h1v1h-1z M14,58h1v1h-1z M15,58h1v1h-1z M16,58h1v1h-1z M21,58h1v1h-1z M24,58h1v1h-1z M26,58h1v1h-1z M27,58h1v1h-1z M31,58h1v1h-1z M38,58h1v1h-1z M39,58h1v1h-1z M41,58h1v1h-1z M44,58h1v1h-1z M48,58h1v1h-1z M50,58h1v1h-1z M55,58h1v1h-1z M56,58h1v1h-1z M61,58h1v1h-1z M62,58h1v1h-1z M65,58h1v1h-1z M68,58h1v1h-1z M71,58h1v1h-1z M73,58h1v1h-1z M74,58h1v1h-1z M75,58h1v1h-1z M84,58h1v1h-1z M86,58h1v1h-1z M87,58h1v1h-1z M91,58h1v1h-1z M93,58h1v1h-1z M96,58h1v1h-1z M98,58h1v1h-1z M100,58h1v1h-1z M102,58h1v1h-1z M103,58h1v1h-1z M105,58h1v1h-1z M106,58h1v1h-1z M107,58h1v1h-1z M4,59h1v1h-1z M7,59h1v1h-1z M8,59h1v1h-1z M9,59h1v1h-1z M11,59h1v1h-1z M13,59h1v1h-1z M14,59h1v1h-1z M15,59h1v1h-1z M16,59h1v1h-1z M18,59h1v1h-1z M19,59h1v1h-1z M20,59h1v1h-1z M21,59h1v1h-1z M29,59h1v1h-1z M35,59h1v1h-1z M44,59h1v1h-1z M47,59h1v1h-1z M49,59h1v1h-1z M50,59h1v1h-1z M52,59h1v1h-1z M54,59h1v1h-1z M56,59h1v1h-1z M59,59h1v1h-1z M65,59h1v1h-1z M68,59h1v1h-1z M70,59h1v1h-1z M71,59h1v1h-1z M76,59h1v1h-1z M78,59h1v1h-1z M80,59h1v1h-1z M81,59h1v1h-1z M82,59h1v1h-1z M85,59h1v1h-1z M86,59h1v1h-1z M90,59h1v1h-1z M91,59h1v1h-1z M92,59h1v1h-1z M94,59h1v1h-1z M95,59h1v1h-1z M97,59h1v1h-1z M100,59h1v1h-1z M101,59h1v1h-1z M107,59h1v1h-1z M108,59h1v1h-1z M6,60h1v1h-1z M9,60h1v1h-1z M10,60h1v1h-1z M12,60h1v1h-1z M13,60h1v1h-1z M16,60h1v1h-1z M17,60h1v1h-1z M19,60h1v1h-1z M20,60h1v1h-1z M21,60h1v1h-1z M22,60h1v1h-1z M23,60h1v1h-1z M26,60h1v1h-1z M27,60h1v1h-1z M28,60h1v1h-1z M30,60h1v1h-1z M32,60h1v1h-1z M33,60h1v1h-1z M34,60h1v1h-1z M35,60h1v1h-1z M38,60h1v1h-1z M39,60h1v1h-1z M44,60h1v1h-1z M46,60h1v1h-1z M49,60h1v1h-1z M50,60h1v1h-1z M51,60h1v1h-1z M54,60h1v1h-1z M56,60h1v1h-1z M60,60h1v1h-1z M61,60h1v1h-1z M62,60h1v1h-1z M64,60h1v1h-1z M65,60h1v1h-1z M66,60h1v1h-1z M67,60h1v1h-1z M70,60h1v1h-1z M73,60h1v1h-1z M77,60h1v1h-1z M78,60h1v1h-1z M84,60h1v1h-1z M86,60h1v1h-1z M87,60h1v1h-1z M89,60h1v1h-1z M90,60h1v1h-1z M91,60h1v1h-1z M95,60h1v1h-1z M99,60h1v1h-1z M100,60h1v1h-1z M103,60h1v1h-1z M106,60h1v1h-1z M4,61h1v1h-1z M6,61h1v1h-1z M9,61h1v1h-1z M12,61h1v1h-1z M13,61h1v1h-1z M14,61h1v1h-1z M16,61h1v1h-1z M18,61h1v1h-1z M19,61h1v1h-1z M22,61h1v1h-1z M26,61h1v1h-1z M31,61h1v1h-1z M36,61h1v1h-1z M37,61h1v1h-1z M39,61h1v1h-1z M42,61h1v1h-1z M45,61h1v1h-1z M46,61h1v1h-1z M48,61h1v1h-1z M51,61h1v1h-1z M54,61h1v1h-1z M55,61h1v1h-1z M58,61h1v1h-1z M60,61h1v1h-1z M61,61h1v1h-1z M62,61h1v1h-1z M65,61h1v1h-1z M67,61h1v1h-1z M68,61h1v1h-1z M69,61h1v1h-1z M75,61h1v1h-1z M76,61h1v1h-1z M79,61h1v1h-1z M81,61h1v1h-1z M82,61h1v1h-1z M83,61h1v1h-1z M84,61h1v1h-1z M86,61h1v1h-1z M87,61h1v1h-1z M88,61h1v1h-1z M89,61h1v1h-1z M92,61h1v1h-1z M93,61h1v1h-1z M94,61h1v1h-1z M96,61h1v1h-1z M97,61h1v1h-1z M99,61h1v1h-1z M100,61h1v1h-1z M101,61h1v1h-1z M102,61h1v1h-1z M104,61h1v1h-1z M105,61h1v1h-1z M106,61h1v1h-1z M107,61h1v1h-1z M108,61h1v1h-1z M5,62h1v1h-1z M7,62h1v1h-1z M10,62h1v1h-1z M11,62h1v1h-1z M13,62h1v1h-1z M17,62h1v1h-1z M18,62h1v1h-1z M19,62h1v1h-1z M20,62h1v1h-1z M21,62h1v1h-1z M23,62h1v1h-1z M24,62h1v1h-1z M25,62h1v1h-1z M26,62h1v1h-1z M27,62h1v1h-1z M29,62h1v1h-1z M32,62h1v1h-1z M36,62h1v1h-1z M38,62h1v1h-1z M39,62h1v1h-1z M41,62h1v1h-1z M50,62h1v1h-1z M53,62h1v1h-1z M56,62h1v1h-1z M59,62h1v1h-1z M62,62h1v1h-1z M63,62h1v1h-1z M64,62h1v1h-1z M67,62h1v1h-1z M69,62h1v1h-1z M71,62h1v1h-1z M72,62h1v1h-1z M74,62h1v1h-1z M77,62h1v1h-1z M78,62h1v1h-1z M79,62h1v1h-1z M80,62h1v1h-1z M83,62h1v1h-1z M84,62h1v1h-1z M86,62h1v1h-1z M87,62h1v1h-1z M88,62h1v1h-1z M89,62h1v1h-1z M96,62h1v1h-1z M97,62h1v1h-1z M98,62h1v1h-1z M99,62h1v1h-1z M100,62h1v1h-1z M101,62h1v1h-1z M102,62h1v1h-1z M103,62h1v1h-1z M107,62h1v1h-1z M4,63h1v1h-1z M5,63h1v1h-1z M6,63h1v1h-1z M8,63h1v1h-1z M11,63h1v1h-1z M14,63h1v1h-1z M15,63h1v1h-1z M17,63h1v1h-1z M22,63h1v1h-1z M24,63h1v1h-1z M25,63h1v1h-1z M33,63h1v1h-1z M34,63h1v1h-1z M35,63h1v1h-1z M42,63h1v1h-1z M43,63h1v1h-1z M44,63h1v1h-1z M45,63h1v1h-1z M46,63h1v1h-1z M47,63h1v1h-1z M50,63h1v1h-1z M53,63h1v1h-1z M55,63h1v1h-1z M56,63h1v1h-1z M57,63h1v1h-1z M58,63h1v1h-1z M59,63h1v1h-1z M61,63h1v1h-1z M62,63h1v1h-1z M65,63h1v1h-1z M66,63h1v1h-1z M68,63h1v1h-1z M70,63h1v1h-1z M77,63h1v1h-1z M78,63h1v1h-1z M79,63h1v1h-1z M80,63h1v1h-1z M83,63h1v1h-1z M89,63h1v1h-1z M92,63h1v1h-1z M93,63h1v1h-1z M95,63h1v1h-1z M100,63h1v1h-1z M101,63h1v1h-1z M102,63h1v1h-1z M103,63h1v1h-1z M104,63h1v1h-1z M107,63h1v1h-1z M108,63h1v1h-1z M10,64h1v1h-1z M12,64h1v1h-1z M17,64h1v1h-1z M19,64h1v1h-1z M21,64h1v1h-1z M22,64h1v1h-1z M24,64h1v1h-1z M25,64h1v1h-1z M26,64h1v1h-1z M28,64h1v1h-1z M30,64h1v1h-1z M34,64h1v1h-1z M35,64h1v1h-1z M36,64h1v1h-1z M40,64h1v1h-1z M41,64h1v1h-1z M42,64h1v1h-1z M43,64h1v1h-1z M44,64h1v1h-1z M47,64h1v1h-1z M48,64h1v1h-1z M51,64h1v1h-1z M52,64h1v1h-1z M54,64h1v1h-1z M55,64h1v1h-1z M56,64h1v1h-1z M57,64h1v1h-1z M58,64h1v1h-1z M59,64h1v1h-1z M60,64h1v1h-1z M61,64h1v1h-1z M62,64h1v1h-1z M63,64h1v1h-1z M66,64h1v1h-1z M68,64h1v1h-1z M72,64h1v1h-1z M73,64h1v1h-1z M75,64h1v1h-1z M76,64h1v1h-1z M77,64h1v1h-1z M78,64h1v1h-1z M83,64h1v1h-1z M86,64h1v1h-1z M87,64h1v1h-1z M88,64h1v1h-1z M90,64h1v1h-1z M95,64h1v1h-1z M96,64h1v1h-1z M98,64h1v1h-1z M101,64h1v1h-1z M103,64h1v1h-1z M106,64h1v1h-1z M108,64h1v1h-1z M4,65h1v1h-1z M6,65h1v1h-1z M7,65h1v1h-1z M9,65h1v1h-1z M14,65h1v1h-1z M18,65h1v1h-1z M20,65h1v1h-1z M21,65h1v1h-1z M23,65h1v1h-1z M25,65h1v1h-1z M27,65h1v1h-1z M29,65h1v1h-1z M31,65h1v1h-1z M33,65h1v1h-1z M34,65h1v1h-1z M35,65h1v1h-1z M36,65h1v1h-1z M39,65h1v1h-1z M40,65h1v1h-1z M42,65h1v1h-1z M46,65h1v1h-1z M47,65h1v1h-1z M48,65h1v1h-1z M49,65h1v1h-1z M51,65h1v1h-1z M52,65h1v1h-1z M53,65h1v1h-1z M54,65h1v1h-1z M55,65h1v1h-1z M58,65h1v1h-1z M59,65h1v1h-1z M61,65h1v1h-1z M63,65h1v1h-1z M64,65h1v1h-1z M66,65h1v1h-1z M67,65h1v1h-1z M68,65h1v1h-1z M70,65h1v1h-1z M71,65h1v1h-1z M79,65h1v1h-1z M81,65h1v1h-1z M82,65h1v1h-1z M83,65h1v1h-1z M86,65h1v1h-1z M87,65h1v1h-1z M88,65h1v1h-1z M89,65h1v1h-1z M91,65h1v1h-1z M94,65h1v1h-1z M95,65h1v1h-1z M99,65h1v1h-1z M100,65h1v1h-1z M102,65h1v1h-1z M103,65h1v1h-1z M105,65h1v1h-1z M106,65h1v1h-1z M107,65h1v1h-1z M5,66h1v1h-1z M6,66h1v1h-1z M9,66h1v1h-1z M10,66h1v1h-1z M12,66h1v1h-1z M14,66h1v1h-1z M18,66h1v1h-1z M20,66h1v1h-1z M22,66h1v1h-1z M29,66h1v1h-1z M32,66h1v1h-1z M35,66h1v1h-1z M36,66h1v1h-1z M38,66h1v1h-1z M40,66h1v1h-1z M41,66h1v1h-1z M43,66h1v1h-1z M50,66h1v1h-1z M56,66h1v1h-1z M57,66h1v1h-1z M62,66h1v1h-1z M64,66h1v1h-1z M67,66h1v1h-1z M68,66h1v1h-1z M71,66h1v1h-1z M72,66h1v1h-1z M74,66h1v1h-1z M78,66h1v1h-1z M79,66h1v1h-1z M83,66h1v1h-1z M85,66h1v1h-1z M86,66h1v1h-1z M88,66h1v1h-1z M95,66h1v1h-1z M98,66h1v1h-1z M101,66h1v1h-1z M103,66h1v1h-1z M105,66h1v1h-1z M107,66h1v1h-1z M5,67h1v1h-1z M6,67h1v1h-1z M7,67h1v1h-1z M8,67h1v1h-1z M9,67h1v1h-1z M11,67h1v1h-1z M14,67h1v1h-1z M16,67h1v1h-1z M21,67h1v1h-1z M22,67h1v1h-1z M23,67h1v1h-1z M24,67h1v1h-1z M25,67h1v1h-1z M26,67h1v1h-1z M27,67h1v1h-1z M32,67h1v1h-1z M33,67h1v1h-1z M35,67h1v1h-1z M37,67h1v1h-1z M38,67h1v1h-1z M41,67h1v1h-1z M42,67h1v1h-1z M43,67h1v1h-1z M44,67h1v1h-1z M45,67h1v1h-1z M47,67h1v1h-1z M49,67h1v1h-1z M50,67h1v1h-1z M52,67h1v1h-1z M55,67h1v1h-1z M58,67h1v1h-1z M59,67h1v1h-1z M61,67h1v1h-1z M62,67h1v1h-1z M65,67h1v1h-1z M66,67h1v1h-1z M68,67h1v1h-1z M69,67h1v1h-1z M76,67h1v1h-1z M77,67h1v1h-1z M82,67h1v1h-1z M83,67h1v1h-1z M87,67h1v1h-1z M89,67h1v1h-1z M90,67h1v1h-1z M91,67h1v1h-1z M92,67h1v1h-1z M93,67h1v1h-1z M95,67h1v1h-1z M98,67h1v1h-1z M99,67h1v1h-1z M101,67h1v1h-1z M104,67h1v1h-1z M105,67h1v1h-1z M107,67h1v1h-1z M4,68h1v1h-1z M5,68h1v1h-1z M6,68h1v1h-1z M7,68h1v1h-1z M8,68h1v1h-1z M10,68h1v1h-1z M11,68h1v1h-1z M12,68h1v1h-1z M17,68h1v1h-1z M18,68h1v1h-1z M19,68h1v1h-1z M20,68h1v1h-1z M21,68h1v1h-1z M24,68h1v1h-1z M25,68h1v1h-1z M26,68h1v1h-1z M30,68h1v1h-1z M31,68h1v1h-1z M32,68h1v1h-1z M34,68h1v1h-1z M37,68h1v1h-1z M39,68h1v1h-1z M41,68h1v1h-1z M42,68h1v1h-1z M43,68h1v1h-1z M45,68h1v1h-1z M46,68h1v1h-1z M47,68h1v1h-1z M51,68h1v1h-1z M52,68h1v1h-1z M54,68h1v1h-1z M56,68h1v1h-1z M57,68h1v1h-1z M61,68h1v1h-1z M67,68h1v1h-1z M69,68h1v1h-1z M70,68h1v1h-1z M71,68h1v1h-1z M73,68h1v1h-1z M76,68h1v1h-1z M77,68h1v1h-1z M78,68h1v1h-1z M80,68h1v1h-1z M82,68h1v1h-1z M85,68h1v1h-1z M86,68h1v1h-1z M90,68h1v1h-1z M91,68h1v1h-1z M92,68h1v1h-1z M93,68h1v1h-1z M94,68h1v1h-1z M95,68h1v1h-1z M97,68h1v1h-1z M99,68h1v1h-1z M100,68h1v1h-1z M101,68h1v1h-1z M102,68h1v1h-1z M103,68h1v1h-1z M105,68h1v1h-1z M108,68h1v1h-1z M6,69h1v1h-1z M8,69h1v1h-1z M11,69h1v1h-1z M13,69h1v1h-1z M14,69h1v1h-1z M15,69h1v1h-1z M16,69h1v1h-1z M18,69h1v1h-1z M20,69h1v1h-1z M21,69h1v1h-1z M25,69h1v1h-1z M26,69h1v1h-1z M27,69h1v1h-1z M31,69h1v1h-1z M33,69h1v1h-1z M35,69h1v1h-1z M36,69h1v1h-1z M37,69h1v1h-1z M39,69h1v1h-1z M41,69h1v1h-1z M46,69h1v1h-1z M47,69h1v1h-1z M48,69h1v1h-1z M49,69h1v1h-1z M50,69h1v1h-1z M52,69h1v1h-1z M53,69h1v1h-1z M54,69h1v1h-1z M58,69h1v1h-1z M59,69h1v1h-1z M60,69h1v1h-1z M67,69h1v1h-1z M69,69h1v1h-1z M70,69h1v1h-1z M75,69h1v1h-1z M76,69h1v1h-1z M79,69h1v1h-1z M83,69h1v1h-1z M84,69h1v1h-1z M85,69h1v1h-1z M86,69h1v1h-1z M87,69h1v1h-1z M88,69h1v1h-1z M95,69h1v1h-1z M99,69h1v1h-1z M100,69h1v1h-1z M102,69h1v1h-1z M103,69h1v1h-1z M107,69h1v1h-1z M4,70h1v1h-1z M8,70h1v1h-1z M10,70h1v1h-1z M11,70h1v1h-1z M13,70h1v1h-1z M14,70h1v1h-1z M18,70h1v1h-1z M25,70h1v1h-1z M30,70h1v1h-1z M31,70h1v1h-1z M35,70h1v1h-1z M37,70h1v1h-1z M38,70h1v1h-1z M39,70h1v1h-1z M40,70h1v1h-1z M41,70h1v1h-1z M43,70h1v1h-1z M47,70h1v1h-1z M48,70h1v1h-1z M49,70h1v1h-1z M50,70h1v1h-1z M55,70h1v1h-1z M59,70h1v1h-1z M60,70h1v1h-1z M62,70h1v1h-1z M63,70h1v1h-1z M64,70h1v1h-1z M65,70h1v1h-1z M67,70h1v1h-1z M72,70h1v1h-1z M74,70h1v1h-1z M80,70h1v1h-1z M83,70h1v1h-1z M84,70h1v1h-1z M86,70h1v1h-1z M89,70h1v1h-1z M91,70h1v1h-1z M92,70h1v1h-1z M96,70h1v1h-1z M98,70h1v1h-1z M102,70h1v1h-1z M103,70h1v1h-1z M106,70h1v1h-1z M107,70h1v1h-1z M108,70h1v1h-1z M4,71h1v1h-1z M8,71h1v1h-1z M12,71h1v1h-1z M14,71h1v1h-1z M16,71h1v1h-1z M18,71h1v1h-1z M21,71h1v1h-1z M22,71h1v1h-1z M24,71h1v1h-1z M25,71h1v1h-1z M26,71h1v1h-1z M30,71h1v1h-1z M34,71h1v1h-1z M35,71h1v1h-1z M37,71h1v1h-1z M42,71h1v1h-1z M44,71h1v1h-1z M45,71h1v1h-1z M46,71h1v1h-1z M47,71h1v1h-1z M52,71h1v1h-1z M53,71h1v1h-1z M54,71h1v1h-1z M55,71h1v1h-1z M57,71h1v1h-1z M58,71h1v1h-1z M62,71h1v1h-1z M65,71h1v1h-1z M66,71h1v1h-1z M67,71h1v1h-1z M68,71h1v1h-1z M71,71h1v1h-1z M73,71h1v1h-1z M77,71h1v1h-1z M79,71h1v1h-1z M81,71h1v1h-1z M82,71h1v1h-1z M83,71h1v1h-1z M86,71h1v1h-1z M90,71h1v1h-1z M92,71h1v1h-1z M93,71h1v1h-1z M94,71h1v1h-1z M95,71h1v1h-1z M100,71h1v1h-1z M101,71h1v1h-1z M105,71h1v1h-1z M107,71h1v1h-1z M108,71h1v1h-1z M8,72h1v1h-1z M10,72h1v1h-1z M14,72h1v1h-1z M15,72h1v1h-1z M16,72h1v1h-1z M17,72h1v1h-1z M18,72h1v1h-1z M20,72h1v1h-1z M21,72h1v1h-1z M22,72h1v1h-1z M23,72h1v1h-1z M26,72h1v1h-1z M28,72h1v1h-1z M30,72h1v1h-1z M32,72h1v1h-1z M33,72h1v1h-1z M34,72h1v1h-1z M35,72h1v1h-1z M36,72h1v1h-1z M37,72h1v1h-1z M38,72h1v1h-1z M39,72h1v1h-1z M41,72h1v1h-1z M42,72h1v1h-1z M43,72h1v1h-1z M47,72h1v1h-1z M48,72h1v1h-1z M49,72h1v1h-1z M50,72h1v1h-1z M51,72h1v1h-1z M52,72h1v1h-1z M53,72h1v1h-1z M54,72h1v1h-1z M55,72h1v1h-1z M56,72h1v1h-1z M58,72h1v1h-1z M59,72h1v1h-1z M60,72h1v1h-1z M63,72h1v1h-1z M64,72h1v1h-1z M65,72h1v1h-1z M66,72h1v1h-1z M67,72h1v1h-1z M68,72h1v1h-1z M73,72h1v1h-1z M74,72h1v1h-1z M78,72h1v1h-1z M79,72h1v1h-1z M80,72h1v1h-1z M84,72h1v1h-1z M90,72h1v1h-1z M91,72h1v1h-1z M92,72h1v1h-1z M94,72h1v1h-1z M96,72h1v1h-1z M97,72h1v1h-1z M99,72h1v1h-1z M100,72h1v1h-1z M101,72h1v1h-1z M102,72h1v1h-1z M105,72h1v1h-1z M107,72h1v1h-1z M108,72h1v1h-1z M7,73h1v1h-1z M8,73h1v1h-1z M9,73h1v1h-1z M11,73h1v1h-1z M14,73h1v1h-1z M17,73h1v1h-1z M19,73h1v1h-1z M20,73h1v1h-1z M22,73h1v1h-1z M24,73h1v1h-1z M25,73h1v1h-1z M28,73h1v1h-1z M29,73h1v1h-1z M30,73h1v1h-1z M31,73h1v1h-1z M35,73h1v1h-1z M36,73h1v1h-1z M38,73h1v1h-1z M42,73h1v1h-1z M45,73h1v1h-1z M46,73h1v1h-1z M47,73h1v1h-1z M48,73h1v1h-1z M51,73h1v1h-1z M52,73h1v1h-1z M55,73h1v1h-1z M58,73h1v1h-1z M59,73h1v1h-1z M61,73h1v1h-1z M62,73h1v1h-1z M65,73h1v1h-1z M66,73h1v1h-1z M67,73h1v1h-1z M69,73h1v1h-1z M70,73h1v1h-1z M71,73h1v1h-1z M72,73h1v1h-1z M73,73h1v1h-1z M74,73h1v1h-1z M79,73h1v1h-1z M84,73h1v1h-1z M85,73h1v1h-1z M86,73h1v1h-1z M88,73h1v1h-1z M90,73h1v1h-1z M92,73h1v1h-1z M95,73h1v1h-1z M97,73h1v1h-1z M98,73h1v1h-1z M99,73h1v1h-1z M100,73h1v1h-1z M102,73h1v1h-1z M103,73h1v1h-1z M104,73h1v1h-1z M105,73h1v1h-1z M106,73h1v1h-1z M107,73h1v1h-1z M108,73h1v1h-1z M4,74h1v1h-1z M10,74h1v1h-1z M13,74h1v1h-1z M15,74h1v1h-1z M16,74h1v1h-1z M17,74h1v1h-1z M19,74h1v1h-1z M20,74h1v1h-1z M21,74h1v1h-1z M22,74h1v1h-1z M24,74h1v1h-1z M25,74h1v1h-1z M26,74h1v1h-1z M31,74h1v1h-1z M33,74h1v1h-1z M36,74h1v1h-1z M37,74h1v1h-1z M38,74h1v1h-1z M39,74h1v1h-1z M40,74h1v1h-1z M41,74h1v1h-1z M43,74h1v1h-1z M48,74h1v1h-1z M50,74h1v1h-1z M55,74h1v1h-1z M57,74h1v1h-1z M62,74h1v1h-1z M64,74h1v1h-1z M65,74h1v1h-1z M69,74h1v1h-1z M74,74h1v1h-1z M80,74h1v1h-1z M83,74h1v1h-1z M84,74h1v1h-1z M85,74h1v1h-1z M86,74h1v1h-1z M87,74h1v1h-1z M88,74h1v1h-1z M92,74h1v1h-1z M95,74h1v1h-1z M96,74h1v1h-1z M98,74h1v1h-1z M99,74h1v1h-1z M102,74h1v1h-1z M103,74h1v1h-1z M105,74h1v1h-1z M106,74h1v1h-1z M107,74h1v1h-1z M6,75h1v1h-1z M8,75h1v1h-1z M12,75h1v1h-1z M13,75h1v1h-1z M14,75h1v1h-1z M21,75h1v1h-1z M23,75h1v1h-1z M25,75h1v1h-1z M27,75h1v1h-1z M29,75h1v1h-1z M32,75h1v1h-1z M34,75h1v1h-1z M35,75h1v1h-1z M37,75h1v1h-1z M41,75h1v1h-1z M44,75h1v1h-1z M45,75h1v1h-1z M47,75h1v1h-1z M49,75h1v1h-1z M50,75h1v1h-1z M53,75h1v1h-1z M54,75h1v1h-1z M55,75h1v1h-1z M56,75h1v1h-1z M58,75h1v1h-1z M59,75h1v1h-1z M61,75h1v1h-1z M62,75h1v1h-1z M65,75h1v1h-1z M66,75h1v1h-1z M67,75h1v1h-1z M68,75h1v1h-1z M70,75h1v1h-1z M71,75h1v1h-1z M79,75h1v1h-1z M80,75h1v1h-1z M82,75h1v1h-1z M83,75h1v1h-1z M85,75h1v1h-1z M90,75h1v1h-1z M92,75h1v1h-1z M93,75h1v1h-1z M95,75h1v1h-1z M97,75h1v1h-1z M98,75h1v1h-1z M99,75h1v1h-1z M100,75h1v1h-1z M101,75h1v1h-1z M103,75h1v1h-1z M108,75h1v1h-1z M8,76h1v1h-1z M9,76h1v1h-1z M10,76h1v1h-1z M11,76h1v1h-1z M12,76h1v1h-1z M13,76h1v1h-1z M14,76h1v1h-1z M15,76h1v1h-1z M17,76h1v1h-1z M18,76h1v1h-1z M22,76h1v1h-1z M25,76h1v1h-1z M26,76h1v1h-1z M28,76h1v1h-1z M29,76h1v1h-1z M30,76h1v1h-1z M31,76h1v1h-1z M32,76h1v1h-1z M35,76h1v1h-1z M38,76h1v1h-1z M40,76h1v1h-1z M41,76h1v1h-1z M42,76h1v1h-1z M46,76h1v1h-1z M47,76h1v1h-1z M48,76h1v1h-1z M50,76h1v1h-1z M52,76h1v1h-1z M53,76h1v1h-1z M54,76h1v1h-1z M55,76h1v1h-1z M56,76h1v1h-1z M57,76h1v1h-1z M58,76h1v1h-1z M59,76h1v1h-1z M62,76h1v1h-1z M63,76h1v1h-1z M64,76h1v1h-1z M66,76h1v1h-1z M69,76h1v1h-1z M70,76h1v1h-1z M71,76h1v1h-1z M73,76h1v1h-1z M75,76h1v1h-1z M76,76h1v1h-1z M77,76h1v1h-1z M78,76h1v1h-1z M79,76h1v1h-1z M80,76h1v1h-1z M82,76h1v1h-1z M83,76h1v1h-1z M84,76h1v1h-1z M85,76h1v1h-1z M86,76h1v1h-1z M89,76h1v1h-1z M92,76h1v1h-1z M93,76h1v1h-1z M94,76h1v1h-1z M95,76h1v1h-1z M100,76h1v1h-1z M101,76h1v1h-1z M102,76h1v1h-1z M103,76h1v1h-1z M104,76h1v1h-1z M105,76h1v1h-1z M106,76h1v1h-1z M108,76h1v1h-1z M4,77h1v1h-1z M8,77h1v1h-1z M12,77h1v1h-1z M13,77h1v1h-1z M16,77h1v1h-1z M22,77h1v1h-1z M23,77h1v1h-1z M24,77h1v1h-1z M26,77h1v1h-1z M27,77h1v1h-1z M28,77h1v1h-1z M32,77h1v1h-1z M33,77h1v1h-1z M34,77h1v1h-1z M35,77h1v1h-1z M39,77h1v1h-1z M40,77h1v1h-1z M41,77h1v1h-1z M46,77h1v1h-1z M47,77h1v1h-1z M50,77h1v1h-1z M51,77h1v1h-1z M52,77h1v1h-1z M56,77h1v1h-1z M57,77h1v1h-1z M59,77h1v1h-1z M60,77h1v1h-1z M64,77h1v1h-1z M66,77h1v1h-1z M70,77h1v1h-1z M71,77h1v1h-1z M72,77h1v1h-1z M73,77h1v1h-1z M76,77h1v1h-1z M80,77h1v1h-1z M81,77h1v1h-1z M84,77h1v1h-1z M86,77h1v1h-1z M87,77h1v1h-1z M88,77h1v1h-1z M92,77h1v1h-1z M93,77h1v1h-1z M94,77h1v1h-1z M95,77h1v1h-1z M96,77h1v1h-1z M97,77h1v1h-1z M99,77h1v1h-1z M100,77h1v1h-1z M104,77h1v1h-1z M105,77h1v1h-1z M106,77h1v1h-1z M107,77h1v1h-1z M108,77h1v1h-1z M4,78h1v1h-1z M5,78h1v1h-1z M8,78h1v1h-1z M10,78h1v1h-1z M12,78h1v1h-1z M13,78h1v1h-1z M16,78h1v1h-1z M17,78h1v1h-1z M18,78h1v1h-1z M19,78h1v1h-1z M20,78h1v1h-1z M21,78h1v1h-1z M23,78h1v1h-1z M25,78h1v1h-1z M26,78h1v1h-1z M27,78h1v1h-1z M28,78h1v1h-1z M30,78h1v1h-1z M32,78h1v1h-1z M35,78h1v1h-1z M36,78h1v1h-1z M38,78h1v1h-1z M44,78h1v1h-1z M45,78h1v1h-1z M50,78h1v1h-1z M52,78h1v1h-1z M54,78h1v1h-1z M56,78h1v1h-1z M59,78h1v1h-1z M62,78h1v1h-1z M63,78h1v1h-1z M65,78h1v1h-1z M74,78h1v1h-1z M75,78h1v1h-1z M76,78h1v1h-1z M78,78h1v1h-1z M80,78h1v1h-1z M81,78h1v1h-1z M83,78h1v1h-1z M84,78h1v1h-1z M85,78h1v1h-1z M86,78h1v1h-1z M88,78h1v1h-1z M89,78h1v1h-1z M91,78h1v1h-1z M92,78h1v1h-1z M96,78h1v1h-1z M97,78h1v1h-1z M98,78h1v1h-1z M99,78h1v1h-1z M100,78h1v1h-1z M102,78h1v1h-1z M104,78h1v1h-1z M105,78h1v1h-1z M106,78h1v1h-1z M107,78h1v1h-1z M4,79h1v1h-1z M5,79h1v1h-1z M7,79h1v1h-1z M8,79h1v1h-1z M12,79h1v1h-1z M14,79h1v1h-1z M15,79h1v1h-1z M18,79h1v1h-1z M19,79h1v1h-1z M20,79h1v1h-1z M21,79h1v1h-1z M24,79h1v1h-1z M26,79h1v1h-1z M27,79h1v1h-1z M28,79h1v1h-1z M32,79h1v1h-1z M33,79h1v1h-1z M34,79h1v1h-1z M41,79h1v1h-1z M42,79h1v1h-1z M44,79h1v1h-1z M46,79h1v1h-1z M47,79h1v1h-1z M49,79h1v1h-1z M52,79h1v1h-1z M56,79h1v1h-1z M57,79h1v1h-1z M58,79h1v1h-1z M59,79h1v1h-1z M61,79h1v1h-1z M62,79h1v1h-1z M65,79h1v1h-1z M68,79h1v1h-1z M69,79h1v1h-1z M70,79h1v1h-1z M71,79h1v1h-1z M75,79h1v1h-1z M76,79h1v1h-1z M80,79h1v1h-1z M81,79h1v1h-1z M82,79h1v1h-1z M83,79h1v1h-1z M87,79h1v1h-1z M92,79h1v1h-1z M94,79h1v1h-1z M99,79h1v1h-1z M100,79h1v1h-1z M104,79h1v1h-1z M107,79h1v1h-1z M108,79h1v1h-1z M8,80h1v1h-1z M9,80h1v1h-1z M10,80h1v1h-1z M11,80h1v1h-1z M12,80h1v1h-1z M13,80h1v1h-1z M15,80h1v1h-1z M16,80h1v1h-1z M17,80h1v1h-1z M20,80h1v1h-1z M21,80h1v1h-1z M22,80h1v1h-1z M23,80h1v1h-1z M26,80h1v1h-1z M27,80h1v1h-1z M28,80h1v1h-1z M29,80h1v1h-1z M30,80h1v1h-1z M31,80h1v1h-1z M32,80h1v1h-1z M34,80h1v1h-1z M35,80h1v1h-1z M39,80h1v1h-1z M41,80h1v1h-1z M44,80h1v1h-1z M46,80h1v1h-1z M50,80h1v1h-1z M51,80h1v1h-1z M52,80h1v1h-1z M53,80h1v1h-1z M54,80h1v1h-1z M55,80h1v1h-1z M56,80h1v1h-1z M57,80h1v1h-1z M58,80h1v1h-1z M60,80h1v1h-1z M63,80h1v1h-1z M66,80h1v1h-1z M70,80h1v1h-1z M71,80h1v1h-1z M72,80h1v1h-1z M75,80h1v1h-1z M76,80h1v1h-1z M77,80h1v1h-1z M78,80h1v1h-1z M79,80h1v1h-1z M80,80h1v1h-1z M83,80h1v1h-1z M84,80h1v1h-1z M87,80h1v1h-1z M90,80h1v1h-1z M96,80h1v1h-1z M97,80h1v1h-1z M99,80h1v1h-1z M100,80h1v1h-1z M101,80h1v1h-1z M102,80h1v1h-1z M103,80h1v1h-1z M104,80h1v1h-1z M107,80h1v1h-1z M108,80h1v1h-1z M4,81h1v1h-1z M5,81h1v1h-1z M7,81h1v1h-1z M8,81h1v1h-1z M11,81h1v1h-1z M13,81h1v1h-1z M18,81h1v1h-1z M25,81h1v1h-1z M26,81h1v1h-1z M30,81h1v1h-1z M31,81h1v1h-1z M33,81h1v1h-1z M34,81h1v1h-1z M36,81h1v1h-1z M38,81h1v1h-1z M40,81h1v1h-1z M41,81h1v1h-1z M42,81h1v1h-1z M43,81h1v1h-1z M46,81h1v1h-1z M48,81h1v1h-1z M54,81h1v1h-1z M61,81h1v1h-1z M63,81h1v1h-1z M64,81h1v1h-1z M66,81h1v1h-1z M67,81h1v1h-1z M72,81h1v1h-1z M74,81h1v1h-1z M78,81h1v1h-1z M79,81h1v1h-1z M80,81h1v1h-1z M82,81h1v1h-1z M84,81h1v1h-1z M85,81h1v1h-1z M87,81h1v1h-1z M88,81h1v1h-1z M89,81h1v1h-1z M90,81h1v1h-1z M91,81h1v1h-1z M93,81h1v1h-1z M94,81h1v1h-1z M95,81h1v1h-1z M96,81h1v1h-1z M97,81h1v1h-1z M98,81h1v1h-1z M99,81h1v1h-1z M101,81h1v1h-1z M105,81h1v1h-1z M106,81h1v1h-1z M4,82h1v1h-1z M5,82h1v1h-1z M6,82h1v1h-1z M10,82h1v1h-1z M15,82h1v1h-1z M16,82h1v1h-1z M19,82h1v1h-1z M21,82h1v1h-1z M22,82h1v1h-1z M25,82h1v1h-1z M30,82h1v1h-1z M32,82h1v1h-1z M36,82h1v1h-1z M38,82h1v1h-1z M39,82h1v1h-1z M40,82h1v1h-1z M43,82h1v1h-1z M47,82h1v1h-1z M48,82h1v1h-1z M50,82h1v1h-1z M54,82h1v1h-1z M56,82h1v1h-1z M59,82h1v1h-1z M62,82h1v1h-1z M65,82h1v1h-1z M68,82h1v1h-1z M72,82h1v1h-1z M74,82h1v1h-1z M75,82h1v1h-1z M79,82h1v1h-1z M80,82h1v1h-1z M84,82h1v1h-1z M86,82h1v1h-1z M87,82h1v1h-1z M88,82h1v1h-1z M89,82h1v1h-1z M95,82h1v1h-1z M96,82h1v1h-1z M98,82h1v1h-1z M103,82h1v1h-1z M104,82h1v1h-1z M105,82h1v1h-1z M107,82h1v1h-1z M5,83h1v1h-1z M6,83h1v1h-1z M7,83h1v1h-1z M9,83h1v1h-1z M11,83h1v1h-1z M12,83h1v1h-1z M14,83h1v1h-1z M15,83h1v1h-1z M18,83h1v1h-1z M23,83h1v1h-1z M25,83h1v1h-1z M26,83h1v1h-1z M28,83h1v1h-1z M33,83h1v1h-1z M41,83h1v1h-1z M42,83h1v1h-1z M44,83h1v1h-1z M45,83h1v1h-1z M47,83h1v1h-1z M49,83h1v1h-1z M50,83h1v1h-1z M51,83h1v1h-1z M52,83h1v1h-1z M53,83h1v1h-1z M55,83h1v1h-1z M57,83h1v1h-1z M58,83h1v1h-1z M59,83h1v1h-1z M61,83h1v1h-1z M68,83h1v1h-1z M71,83h1v1h-1z M75,83h1v1h-1z M76,83h1v1h-1z M77,83h1v1h-1z M79,83h1v1h-1z M80,83h1v1h-1z M83,83h1v1h-1z M86,83h1v1h-1z M90,83h1v1h-1z M91,83h1v1h-1z M92,83h1v1h-1z M97,83h1v1h-1z M98,83h1v1h-1z M100,83h1v1h-1z M102,83h1v1h-1z M103,83h1v1h-1z M107,83h1v1h-1z M6,84h1v1h-1z M7,84h1v1h-1z M8,84h1v1h-1z M10,84h1v1h-1z M11,84h1v1h-1z M14,84h1v1h-1z M18,84h1v1h-1z M21,84h1v1h-1z M23,84h1v1h-1z M24,84h1v1h-1z M25,84h1v1h-1z M29,84h1v1h-1z M33,84h1v1h-1z M34,84h1v1h-1z M35,84h1v1h-1z M36,84h1v1h-1z M40,84h1v1h-1z M42,84h1v1h-1z M43,84h1v1h-1z M44,84h1v1h-1z M47,84h1v1h-1z M48,84h1v1h-1z M50,84h1v1h-1z M51,84h1v1h-1z M54,84h1v1h-1z M60,84h1v1h-1z M63,84h1v1h-1z M64,84h1v1h-1z M65,84h1v1h-1z M66,84h1v1h-1z M67,84h1v1h-1z M69,84h1v1h-1z M70,84h1v1h-1z M71,84h1v1h-1z M73,84h1v1h-1z M80,84h1v1h-1z M81,84h1v1h-1z M82,84h1v1h-1z M84,84h1v1h-1z M86,84h1v1h-1z M90,84h1v1h-1z M91,84h1v1h-1z M96,84h1v1h-1z M100,84h1v1h-1z M101,84h1v1h-1z M103,84h1v1h-1z M106,84h1v1h-1z M107,84h1v1h-1z M8,85h1v1h-1z M9,85h1v1h-1z M11,85h1v1h-1z M12,85h1v1h-1z M15,85h1v1h-1z M16,85h1v1h-1z M17,85h1v1h-1z M18,85h1v1h-1z M19,85h1v1h-1z M20,85h1v1h-1z M22,85h1v1h-1z M23,85h1v1h-1z M24,85h1v1h-1z M29,85h1v1h-1z M30,85h1v1h-1z M31,85h1v1h-1z M32,85h1v1h-1z M33,85h1v1h-1z M34,85h1v1h-1z M36,85h1v1h-1z M39,85h1v1h-1z M40,85h1v1h-1z M42,85h1v1h-1z M48,85h1v1h-1z M49,85h1v1h-1z M50,85h1v1h-1z M54,85h1v1h-1z M55,85h1v1h-1z M60,85h1v1h-1z M61,85h1v1h-1z M63,85h1v1h-1z M64,85h1v1h-1z M66,85h1v1h-1z M67,85h1v1h-1z M68,85h1v1h-1z M72,85h1v1h-1z M74,85h1v1h-1z M76,85h1v1h-1z M77,85h1v1h-1z M78,85h1v1h-1z M84,85h1v1h-1z M85,85h1v1h-1z M87,85h1v1h-1z M89,85h1v1h-1z M91,85h1v1h-1z M93,85h1v1h-1z M94,85h1v1h-1z M95,85h1v1h-1z M96,85h1v1h-1z M97,85h1v1h-1z M103,85h1v1h-1z M105,85h1v1h-1z M106,85h1v1h-1z M107,85h1v1h-1z M5,86h1v1h-1z M6,86h1v1h-1z M9,86h1v1h-1z M10,86h1v1h-1z M12,86h1v1h-1z M13,86h1v1h-1z M14,86h1v1h-1z M17,86h1v1h-1z M19,86h1v1h-1z M21,86h1v1h-1z M22,86h1v1h-1z M29,86h1v1h-1z M30,86h1v1h-1z M32,86h1v1h-1z M38,86h1v1h-1z M41,86h1v1h-1z M43,86h1v1h-1z M44,86h1v1h-1z M47,86h1v1h-1z M48,86h1v1h-1z M50,86h1v1h-1z M56,86h1v1h-1z M61,86h1v1h-1z M62,86h1v1h-1z M63,86h1v1h-1z M65,86h1v1h-1z M67,86h1v1h-1z M69,86h1v1h-1z M72,86h1v1h-1z M73,86h1v1h-1z M74,86h1v1h-1z M75,86h1v1h-1z M77,86h1v1h-1z M78,86h1v1h-1z M80,86h1v1h-1z M81,86h1v1h-1z M86,86h1v1h-1z M89,86h1v1h-1z M91,86h1v1h-1z M92,86h1v1h-1z M95,86h1v1h-1z M97,86h1v1h-1z M98,86h1v1h-1z M99,86h1v1h-1z M101,86h1v1h-1z M104,86h1v1h-1z M107,86h1v1h-1z M4,87h1v1h-1z M5,87h1v1h-1z M6,87h1v1h-1z M7,87h1v1h-1z M8,87h1v1h-1z M11,87h1v1h-1z M13,87h1v1h-1z M14,87h1v1h-1z M15,87h1v1h-1z M21,87h1v1h-1z M23,87h1v1h-1z M24,87h1v1h-1z M25,87h1v1h-1z M26,87h1v1h-1z M27,87h1v1h-1z M29,87h1v1h-1z M32,87h1v1h-1z M34,87h1v1h-1z M35,87h1v1h-1z M38,87h1v1h-1z M44,87h1v1h-1z M45,87h1v1h-1z M46,87h1v1h-1z M47,87h1v1h-1z M51,87h1v1h-1z M59,87h1v1h-1z M66,87h1v1h-1z M68,87h1v1h-1z M70,87h1v1h-1z M71,87h1v1h-1z M75,87h1v1h-1z M79,87h1v1h-1z M80,87h1v1h-1z M82,87h1v1h-1z M83,87h1v1h-1z M85,87h1v1h-1z M92,87h1v1h-1z M93,87h1v1h-1z M94,87h1v1h-1z M95,87h1v1h-1z M100,87h1v1h-1z M103,87h1v1h-1z M104,87h1v1h-1z M107,87h1v1h-1z M4,88h1v1h-1z M5,88h1v1h-1z M6,88h1v1h-1z M7,88h1v1h-1z M10,88h1v1h-1z M11,88h1v1h-1z M12,88h1v1h-1z M14,88h1v1h-1z M16,88h1v1h-1z M17,88h1v1h-1z M18,88h1v1h-1z M19,88h1v1h-1z M25,88h1v1h-1z M26,88h1v1h-1z M27,88h1v1h-1z M32,88h1v1h-1z M37,88h1v1h-1z M40,88h1v1h-1z M42,88h1v1h-1z M43,88h1v1h-1z M45,88h1v1h-1z M48,88h1v1h-1z M50,88h1v1h-1z M51,88h1v1h-1z M54,88h1v1h-1z M56,88h1v1h-1z M58,88h1v1h-1z M61,88h1v1h-1z M63,88h1v1h-1z M64,88h1v1h-1z M69,88h1v1h-1z M71,88h1v1h-1z M72,88h1v1h-1z M75,88h1v1h-1z M76,88h1v1h-1z M79,88h1v1h-1z M80,88h1v1h-1z M81,88h1v1h-1z M82,88h1v1h-1z M84,88h1v1h-1z M85,88h1v1h-1z M89,88h1v1h-1z M90,88h1v1h-1z M91,88h1v1h-1z M94,88h1v1h-1z M96,88h1v1h-1z M101,88h1v1h-1z M102,88h1v1h-1z M104,88h1v1h-1z M107,88h1v1h-1z M108,88h1v1h-1z M4,89h1v1h-1z M7,89h1v1h-1z M8,89h1v1h-1z M9,89h1v1h-1z M13,89h1v1h-1z M14,89h1v1h-1z M15,89h1v1h-1z M17,89h1v1h-1z M19,89h1v1h-1z M22,89h1v1h-1z M23,89h1v1h-1z M25,89h1v1h-1z M28,89h1v1h-1z M30,89h1v1h-1z M31,89h1v1h-1z M32,89h1v1h-1z M34,89h1v1h-1z M37,89h1v1h-1z M38,89h1v1h-1z M39,89h1v1h-1z M40,89h1v1h-1z M41,89h1v1h-1z M45,89h1v1h-1z M47,89h1v1h-1z M49,89h1v1h-1z M54,89h1v1h-1z M55,89h1v1h-1z M56,89h1v1h-1z M58,89h1v1h-1z M60,89h1v1h-1z M62,89h1v1h-1z M63,89h1v1h-1z M64,89h1v1h-1z M68,89h1v1h-1z M69,89h1v1h-1z M72,89h1v1h-1z M74,89h1v1h-1z M77,89h1v1h-1z M78,89h1v1h-1z M81,89h1v1h-1z M82,89h1v1h-1z M90,89h1v1h-1z M92,89h1v1h-1z M95,89h1v1h-1z M97,89h1v1h-1z M99,89h1v1h-1z M101,89h1v1h-1z M103,89h1v1h-1z M106,89h1v1h-1z M4,90h1v1h-1z M7,90h1v1h-1z M9,90h1v1h-1z M10,90h1v1h-1z M12,90h1v1h-1z M13,90h1v1h-1z M14,90h1v1h-1z M17,90h1v1h-1z M22,90h1v1h-1z M23,90h1v1h-1z M24,90h1v1h-1z M27,90h1v1h-1z M28,90h1v1h-1z M31,90h1v1h-1z M32,90h1v1h-1z M35,90h1v1h-1z M38,90h1v1h-1z M41,90h1v1h-1z M48,90h1v1h-1z M50,90h1v1h-1z M51,90h1v1h-1z M52,90h1v1h-1z M53,90h1v1h-1z M55,90h1v1h-1z M56,90h1v1h-1z M62,90h1v1h-1z M63,90h1v1h-1z M64,90h1v1h-1z M65,90h1v1h-1z M72,90h1v1h-1z M74,90h1v1h-1z M75,90h1v1h-1z M77,90h1v1h-1z M78,90h1v1h-1z M80,90h1v1h-1z M84,90h1v1h-1z M86,90h1v1h-1z M89,90h1v1h-1z M92,90h1v1h-1z M95,90h1v1h-1z M97,90h1v1h-1z M98,90h1v1h-1z M101,90h1v1h-1z M104,90h1v1h-1z M105,90h1v1h-1z M4,91h1v1h-1z M5,91h1v1h-1z M7,91h1v1h-1z M8,91h1v1h-1z M9,91h1v1h-1z M12,91h1v1h-1z M13,91h1v1h-1z M14,91h1v1h-1z M16,91h1v1h-1z M17,91h1v1h-1z M20,91h1v1h-1z M22,91h1v1h-1z M25,91h1v1h-1z M26,91h1v1h-1z M27,91h1v1h-1z M28,91h1v1h-1z M29,91h1v1h-1z M31,91h1v1h-1z M33,91h1v1h-1z M34,91h1v1h-1z M35,91h1v1h-1z M37,91h1v1h-1z M38,91h1v1h-1z M44,91h1v1h-1z M45,91h1v1h-1z M47,91h1v1h-1z M49,91h1v1h-1z M53,91h1v1h-1z M54,91h1v1h-1z M56,91h1v1h-1z M57,91h1v1h-1z M58,91h1v1h-1z M59,91h1v1h-1z M61,91h1v1h-1z M62,91h1v1h-1z M66,91h1v1h-1z M67,91h1v1h-1z M68,91h1v1h-1z M71,91h1v1h-1z M73,91h1v1h-1z M74,91h1v1h-1z M75,91h1v1h-1z M77,91h1v1h-1z M78,91h1v1h-1z M80,91h1v1h-1z M81,91h1v1h-1z M83,91h1v1h-1z M92,91h1v1h-1z M93,91h1v1h-1z M94,91h1v1h-1z M95,91h1v1h-1z M99,91h1v1h-1z M100,91h1v1h-1z M108,91h1v1h-1z M4,92h1v1h-1z M8,92h1v1h-1z M9,92h1v1h-1z M10,92h1v1h-1z M13,92h1v1h-1z M15,92h1v1h-1z M16,92h1v1h-1z M17,92h1v1h-1z M18,92h1v1h-1z M19,92h1v1h-1z M20,92h1v1h-1z M23,92h1v1h-1z M25,92h1v1h-1z M31,92h1v1h-1z M34,92h1v1h-1z M35,92h1v1h-1z M38,92h1v1h-1z M39,92h1v1h-1z M40,92h1v1h-1z M41,92h1v1h-1z M42,92h1v1h-1z M44,92h1v1h-1z M45,92h1v1h-1z M46,92h1v1h-1z M49,92h1v1h-1z M54,92h1v1h-1z M60,92h1v1h-1z M61,92h1v1h-1z M64,92h1v1h-1z M65,92h1v1h-1z M66,92h1v1h-1z M68,92h1v1h-1z M71,92h1v1h-1z M72,92h1v1h-1z M73,92h1v1h-1z M75,92h1v1h-1z M81,92h1v1h-1z M82,92h1v1h-1z M83,92h1v1h-1z M84,92h1v1h-1z M85,92h1v1h-1z M88,92h1v1h-1z M94,92h1v1h-1z M96,92h1v1h-1z M98,92h1v1h-1z M104,92h1v1h-1z M107,92h1v1h-1z M108,92h1v1h-1z M5,93h1v1h-1z M14,93h1v1h-1z M15,93h1v1h-1z M16,93h1v1h-1z M17,93h1v1h-1z M18,93h1v1h-1z M19,93h1v1h-1z M23,93h1v1h-1z M26,93h1v1h-1z M30,93h1v1h-1z M33,93h1v1h-1z M34,93h1v1h-1z M35,93h1v1h-1z M40,93h1v1h-1z M42,93h1v1h-1z M43,93h1v1h-1z M44,93h1v1h-1z M45,93h1v1h-1z M46,93h1v1h-1z M49,93h1v1h-1z M52,93h1v1h-1z M54,93h1v1h-1z M57,93h1v1h-1z M58,93h1v1h-1z M60,93h1v1h-1z M61,93h1v1h-1z M66,93h1v1h-1z M69,93h1v1h-1z M70,93h1v1h-1z M72,93h1v1h-1z M73,93h1v1h-1z M74,93h1v1h-1z M76,93h1v1h-1z M78,93h1v1h-1z M79,93h1v1h-1z M84,93h1v1h-1z M86,93h1v1h-1z M92,93h1v1h-1z M93,93h1v1h-1z M95,93h1v1h-1z M96,93h1v1h-1z M98,93h1v1h-1z M99,93h1v1h-1z M100,93h1v1h-1z M103,93h1v1h-1z M107,93h1v1h-1z M108,93h1v1h-1z M10,94h1v1h-1z M16,94h1v1h-1z M17,94h1v1h-1z M20,94h1v1h-1z M24,94h1v1h-1z M25,94h1v1h-1z M32,94h1v1h-1z M36,94h1v1h-1z M37,94h1v1h-1z M38,94h1v1h-1z M39,94h1v1h-1z M40,94h1v1h-1z M41,94h1v1h-1z M43,94h1v1h-1z M44,94h1v1h-1z M45,94h1v1h-1z M47,94h1v1h-1z M50,94h1v1h-1z M52,94h1v1h-1z M53,94h1v1h-1z M56,94h1v1h-1z M60,94h1v1h-1z M62,94h1v1h-1z M63,94h1v1h-1z M64,94h1v1h-1z M65,94h1v1h-1z M67,94h1v1h-1z M68,94h1v1h-1z M69,94h1v1h-1z M73,94h1v1h-1z M74,94h1v1h-1z M76,94h1v1h-1z M77,94h1v1h-1z M78,94h1v1h-1z M80,94h1v1h-1z M86,94h1v1h-1z M88,94h1v1h-1z M89,94h1v1h-1z M98,94h1v1h-1z M101,94h1v1h-1z M104,94h1v1h-1z M105,94h1v1h-1z M107,94h1v1h-1z M7,95h1v1h-1z M14,95h1v1h-1z M17,95h1v1h-1z M19,95h1v1h-1z M22,95h1v1h-1z M28,95h1v1h-1z M29,95h1v1h-1z M35,95h1v1h-1z M37,95h1v1h-1z M39,95h1v1h-1z M44,95h1v1h-1z M46,95h1v1h-1z M47,95h1v1h-1z M49,95h1v1h-1z M51,95h1v1h-1z M54,95h1v1h-1z M55,95h1v1h-1z M56,95h1v1h-1z M57,95h1v1h-1z M58,95h1v1h-1z M59,95h1v1h-1z M62,95h1v1h-1z M66,95h1v1h-1z M68,95h1v1h-1z M70,95h1v1h-1z M71,95h1v1h-1z M75,95h1v1h-1z M78,95h1v1h-1z M81,95h1v1h-1z M83,95h1v1h-1z M85,95h1v1h-1z M86,95h1v1h-1z M90,95h1v1h-1z M91,95h1v1h-1z M92,95h1v1h-1z M93,95h1v1h-1z M95,95h1v1h-1z M104,95h1v1h-1z M107,95h1v1h-1z M108,95h1v1h-1z M4,96h1v1h-1z M5,96h1v1h-1z M9,96h1v1h-1z M10,96h1v1h-1z M12,96h1v1h-1z M16,96h1v1h-1z M19,96h1v1h-1z M20,96h1v1h-1z M23,96h1v1h-1z M24,96h1v1h-1z M26,96h1v1h-1z M27,96h1v1h-1z M30,96h1v1h-1z M32,96h1v1h-1z M34,96h1v1h-1z M36,96h1v1h-1z M37,96h1v1h-1z M40,96h1v1h-1z M42,96h1v1h-1z M44,96h1v1h-1z M46,96h1v1h-1z M48,96h1v1h-1z M49,96h1v1h-1z M51,96h1v1h-1z M52,96h1v1h-1z M56,96h1v1h-1z M57,96h1v1h-1z M58,96h1v1h-1z M59,96h1v1h-1z M61,96h1v1h-1z M63,96h1v1h-1z M65,96h1v1h-1z M66,96h1v1h-1z M72,96h1v1h-1z M73,96h1v1h-1z M75,96h1v1h-1z M76,96h1v1h-1z M78,96h1v1h-1z M79,96h1v1h-1z M82,96h1v1h-1z M84,96h1v1h-1z M90,96h1v1h-1z M91,96h1v1h-1z M92,96h1v1h-1z M93,96h1v1h-1z M94,96h1v1h-1z M96,96h1v1h-1z M97,96h1v1h-1z M100,96h1v1h-1z M104,96h1v1h-1z M107,96h1v1h-1z M4,97h1v1h-1z M5,97h1v1h-1z M7,97h1v1h-1z M8,97h1v1h-1z M9,97h1v1h-1z M12,97h1v1h-1z M13,97h1v1h-1z M14,97h1v1h-1z M16,97h1v1h-1z M19,97h1v1h-1z M21,97h1v1h-1z M24,97h1v1h-1z M25,97h1v1h-1z M30,97h1v1h-1z M32,97h1v1h-1z M33,97h1v1h-1z M34,97h1v1h-1z M36,97h1v1h-1z M42,97h1v1h-1z M43,97h1v1h-1z M45,97h1v1h-1z M46,97h1v1h-1z M47,97h1v1h-1z M50,97h1v1h-1z M52,97h1v1h-1z M54,97h1v1h-1z M55,97h1v1h-1z M56,97h1v1h-1z M59,97h1v1h-1z M60,97h1v1h-1z M64,97h1v1h-1z M66,97h1v1h-1z M67,97h1v1h-1z M70,97h1v1h-1z M71,97h1v1h-1z M74,97h1v1h-1z M78,97h1v1h-1z M79,97h1v1h-1z M80,97h1v1h-1z M83,97h1v1h-1z M84,97h1v1h-1z M85,97h1v1h-1z M86,97h1v1h-1z M88,97h1v1h-1z M90,97h1v1h-1z M91,97h1v1h-1z M94,97h1v1h-1z M95,97h1v1h-1z M97,97h1v1h-1z M98,97h1v1h-1z M99,97h1v1h-1z M100,97h1v1h-1z M103,97h1v1h-1z M105,97h1v1h-1z M106,97h1v1h-1z M4,98h1v1h-1z M5,98h1v1h-1z M6,98h1v1h-1z M10,98h1v1h-1z M11,98h1v1h-1z M12,98h1v1h-1z M13,98h1v1h-1z M16,98h1v1h-1z M18,98h1v1h-1z M19,98h1v1h-1z M21,98h1v1h-1z M22,98h1v1h-1z M23,98h1v1h-1z M24,98h1v1h-1z M25,98h1v1h-1z M32,98h1v1h-1z M35,98h1v1h-1z M36,98h1v1h-1z M38,98h1v1h-1z M39,98h1v1h-1z M41,98h1v1h-1z M43,98h1v1h-1z M47,98h1v1h-1z M50,98h1v1h-1z M53,98h1v1h-1z M54,98h1v1h-1z M55,98h1v1h-1z M56,98h1v1h-1z M59,98h1v1h-1z M60,98h1v1h-1z M62,98h1v1h-1z M64,98h1v1h-1z M65,98h1v1h-1z M67,98h1v1h-1z M71,98h1v1h-1z M72,98h1v1h-1z M74,98h1v1h-1z M76,98h1v1h-1z M77,98h1v1h-1z M80,98h1v1h-1z M84,98h1v1h-1z M86,98h1v1h-1z M88,98h1v1h-1z M89,98h1v1h-1z M91,98h1v1h-1z M92,98h1v1h-1z M95,98h1v1h-1z M96,98h1v1h-1z M98,98h1v1h-1z M99,98h1v1h-1z M101,98h1v1h-1z M107,98h1v1h-1z M6,99h1v1h-1z M8,99h1v1h-1z M9,99h1v1h-1z M11,99h1v1h-1z M13,99h1v1h-1z M14,99h1v1h-1z M15,99h1v1h-1z M17,99h1v1h-1z M18,99h1v1h-1z M20,99h1v1h-1z M21,99h1v1h-1z M23,99h1v1h-1z M27,99h1v1h-1z M28,99h1v1h-1z M35,99h1v1h-1z M41,99h1v1h-1z M44,99h1v1h-1z M45,99h1v1h-1z M46,99h1v1h-1z M47,99h1v1h-1z M50,99h1v1h-1z M51,99h1v1h-1z M54,99h1v1h-1z M56,99h1v1h-1z M63,99h1v1h-1z M68,99h1v1h-1z M69,99h1v1h-1z M71,99h1v1h-1z M73,99h1v1h-1z M74,99h1v1h-1z M75,99h1v1h-1z M76,99h1v1h-1z M77,99h1v1h-1z M81,99h1v1h-1z M83,99h1v1h-1z M86,99h1v1h-1z M87,99h1v1h-1z M90,99h1v1h-1z M92,99h1v1h-1z M95,99h1v1h-1z M97,99h1v1h-1z M98,99h1v1h-1z M99,99h1v1h-1z M100,99h1v1h-1z M102,99h1v1h-1z M103,99h1v1h-1z M104,99h1v1h-1z M107,99h1v1h-1z M108,99h1v1h-1z M7,100h1v1h-1z M8,100h1v1h-1z M10,100h1v1h-1z M11,100h1v1h-1z M13,100h1v1h-1z M14,100h1v1h-1z M17,100h1v1h-1z M22,100h1v1h-1z M24,100h1v1h-1z M26,100h1v1h-1z M28,100h1v1h-1z M29,100h1v1h-1z M30,100h1v1h-1z M31,100h1v1h-1z M32,100h1v1h-1z M33,100h1v1h-1z M35,100h1v1h-1z M36,100h1v1h-1z M37,100h1v1h-1z M38,100h1v1h-1z M39,100h1v1h-1z M42,100h1v1h-1z M44,100h1v1h-1z M52,100h1v1h-1z M53,100h1v1h-1z M54,100h1v1h-1z M55,100h1v1h-1z M56,100h1v1h-1z M59,100h1v1h-1z M60,100h1v1h-1z M61,100h1v1h-1z M62,100h1v1h-1z M63,100h1v1h-1z M64,100h1v1h-1z M65,100h1v1h-1z M66,100h1v1h-1z M67,100h1v1h-1z M69,100h1v1h-1z M70,100h1v1h-1z M73,100h1v1h-1z M75,100h1v1h-1z M76,100h1v1h-1z M77,100h1v1h-1z M78,100h1v1h-1z M79,100h1v1h-1z M80,100h1v1h-1z M82,100h1v1h-1z M83,100h1v1h-1z M85,100h1v1h-1z M88,100h1v1h-1z M89,100h1v1h-1z M90,100h1v1h-1z M92,100h1v1h-1z M95,100h1v1h-1z M100,100h1v1h-1z M101,100h1v1h-1z M102,100h1v1h-1z M103,100h1v1h-1z M104,100h1v1h-1z M12,101h1v1h-1z M13,101h1v1h-1z M14,101h1v1h-1z M15,101h1v1h-1z M16,101h1v1h-1z M18,101h1v1h-1z M22,101h1v1h-1z M23,101h1v1h-1z M26,101h1v1h-1z M27,101h1v1h-1z M28,101h1v1h-1z M32,101h1v1h-1z M34,101h1v1h-1z M35,101h1v1h-1z M37,101h1v1h-1z M40,101h1v1h-1z M44,101h1v1h-1z M45,101h1v1h-1z M46,101h1v1h-1z M50,101h1v1h-1z M51,101h1v1h-1z M52,101h1v1h-1z M56,101h1v1h-1z M57,101h1v1h-1z M58,101h1v1h-1z M60,101h1v1h-1z M61,101h1v1h-1z M62,101h1v1h-1z M63,101h1v1h-1z M64,101h1v1h-1z M65,101h1v1h-1z M66,101h1v1h-1z M67,101h1v1h-1z M69,101h1v1h-1z M70,101h1v1h-1z M71,101h1v1h-1z M72,101h1v1h-1z M75,101h1v1h-1z M76,101h1v1h-1z M80,101h1v1h-1z M81,101h1v1h-1z M82,101h1v1h-1z M84,101h1v1h-1z M87,101h1v1h-1z M89,101h1v1h-1z M90,101h1v1h-1z M92,101h1v1h-1z M93,101h1v1h-1z M94,101h1v1h-1z M98,101h1v1h-1z M100,101h1v1h-1z M104,101h1v1h-1z M105,101h1v1h-1z M106,101h1v1h-1z M107,101h1v1h-1z M4,102h1v1h-1z M5,102h1v1h-1z M6,102h1v1h-1z M7,102h1v1h-1z M8,102h1v1h-1z M9,102h1v1h-1z M10,102h1v1h-1z M15,102h1v1h-1z M16,102h1v1h-1z M20,102h1v1h-1z M21,102h1v1h-1z M22,102h1v1h-1z M24,102h1v1h-1z M26,102h1v1h-1z M27,102h1v1h-1z M28,102h1v1h-1z M30,102h1v1h-1z M32,102h1v1h-1z M38,102h1v1h-1z M39,102h1v1h-1z M40,102h1v1h-1z M41,102h1v1h-1z M47,102h1v1h-1z M50,102h1v1h-1z M51,102h1v1h-1z M52,102h1v1h-1z M54,102h1v1h-1z M56,102h1v1h-1z M62,102h1v1h-1z M64,102h1v1h-1z M74,102h1v1h-1z M75,102h1v1h-1z M76,102h1v1h-1z M78,102h1v1h-1z M80,102h1v1h-1z M84,102h1v1h-1z M86,102h1v1h-1z M87,102h1v1h-1z M89,102h1v1h-1z M91,102h1v1h-1z M98,102h1v1h-1z M99,102h1v1h-1z M100,102h1v1h-1z M102,102h1v1h-1z M104,102h1v1h-1z M106,102h1v1h-1z M107,102h1v1h-1z M4,103h1v1h-1z M10,103h1v1h-1z M12,103h1v1h-1z M14,103h1v1h-1z M15,103h1v1h-1z M17,103h1v1h-1z M18,103h1v1h-1z M20,103h1v1h-1z M22,103h1v1h-1z M25,103h1v1h-1z M27,103h1v1h-1z M28,103h1v1h-1z M32,103h1v1h-1z M33,103h1v1h-1z M34,103h1v1h-1z M35,103h1v1h-1z M41,103h1v1h-1z M42,103h1v1h-1z M43,103h1v1h-1z M44,103h1v1h-1z M45,103h1v1h-1z M47,103h1v1h-1z M51,103h1v1h-1z M52,103h1v1h-1z M56,103h1v1h-1z M57,103h1v1h-1z M59,103h1v1h-1z M61,103h1v1h-1z M62,103h1v1h-1z M65,103h1v1h-1z M66,103h1v1h-1z M67,103h1v1h-1z M68,103h1v1h-1z M69,103h1v1h-1z M71,103h1v1h-1z M74,103h1v1h-1z M75,103h1v1h-1z M76,103h1v1h-1z M80,103h1v1h-1z M83,103h1v1h-1z M89,103h1v1h-1z M90,103h1v1h-1z M92,103h1v1h-1z M94,103h1v1h-1z M95,103h1v1h-1z M97,103h1v1h-1z M100,103h1v1h-1z M104,103h1v1h-1z M105,103h1v1h-1z M108,103h1v1h-1z M4,104h1v1h-1z M6,104h1v1h-1z M7,104h1v1h-1z M8,104h1v1h-1z M10,104h1v1h-1z M12,104h1v1h-1z M13,104h1v1h-1z M14,104h1v1h-1z M15,104h1v1h-1z M16,104h1v1h-1z M19,104h1v1h-1z M21,104h1v1h-1z M22,104h1v1h-1z M23,104h1v1h-1z M24,104h1v1h-1z M26,104h1v1h-1z M28,104h1v1h-1z M29,104h1v1h-1z M30,104h1v1h-1z M31,104h1v1h-1z M32,104h1v1h-1z M33,104h1v1h-1z M34,104h1v1h-1z M36,104h1v1h-1z M38,104h1v1h-1z M42,104h1v1h-1z M45,104h1v1h-1z M46,104h1v1h-1z M48,104h1v1h-1z M49,104h1v1h-1z M51,104h1v1h-1z M52,104h1v1h-1z M53,104h1v1h-1z M54,104h1v1h-1z M55,104h1v1h-1z M56,104h1v1h-1z M59,104h1v1h-1z M61,104h1v1h-1z M63,104h1v1h-1z M66,104h1v1h-1z M70,104h1v1h-1z M72,104h1v1h-1z M73,104h1v1h-1z M74,104h1v1h-1z M75,104h1v1h-1z M76,104h1v1h-1z M77,104h1v1h-1z M78,104h1v1h-1z M79,104h1v1h-1z M80,104h1v1h-1z M81,104h1v1h-1z M87,104h1v1h-1z M92,104h1v1h-1z M93,104h1v1h-1z M94,104h1v1h-1z M97,104h1v1h-1z M99,104h1v1h-1z M100,104h1v1h-1z M101,104h1v1h-1z M102,104h1v1h-1z M103,104h1v1h-1z M104,104h1v1h-1z M105,104h1v1h-1z M107,104h1v1h-1z M108,104h1v1h-1z M4,105h1v1h-1z M6,105h1v1h-1z M7,105h1v1h-1z M8,105h1v1h-1z M10,105h1v1h-1z M13,105h1v1h-1z M15,105h1v1h-1z M16,105h1v1h-1z M17,105h1v1h-1z M19,105h1v1h-1z M21,105h1v1h-1z M22,105h1v1h-1z M23,105h1v1h-1z M25,105h1v1h-1z M29,105h1v1h-1z M30,105h1v1h-1z M31,105h1v1h-1z M33,105h1v1h-1z M34,105h1v1h-1z M36,105h1v1h-1z M37,105h1v1h-1z M38,105h1v1h-1z M39,105h1v1h-1z M40,105h1v1h-1z M42,105h1v1h-1z M43,105h1v1h-1z M45,105h1v1h-1z M47,105h1v1h-1z M48,105h1v1h-1z M50,105h1v1h-1z M51,105h1v1h-1z M52,105h1v1h-1z M53,105h1v1h-1z M55,105h1v1h-1z M57,105h1v1h-1z M59,105h1v1h-1z M63,105h1v1h-1z M64,105h1v1h-1z M65,105h1v1h-1z M66,105h1v1h-1z M67,105h1v1h-1z M68,105h1v1h-1z M69,105h1v1h-1z M70,105h1v1h-1z M71,105h1v1h-1z M76,105h1v1h-1z M79,105h1v1h-1z M80,105h1v1h-1z M82,105h1v1h-1z M84,105h1v1h-1z M85,105h1v1h-1z M86,105h1v1h-1z M91,105h1v1h-1z M93,105h1v1h-1z M96,105h1v1h-1z M97,105h1v1h-1z M99,105h1v1h-1z M102,105h1v1h-1z M104,105h1v1h-1z M106,105h1v1h-1z M107,105h1v1h-1z M108,105h1v1h-1z M4,106h1v1h-1z M6,106h1v1h-1z M7,106h1v1h-1z M8,106h1v1h-1z M10,106h1v1h-1z M13,106h1v1h-1z M17,106h1v1h-1z M20,106h1v1h-1z M21,106h1v1h-1z M22,106h1v1h-1z M29,106h1v1h-1z M31,106h1v1h-1z M35,106h1v1h-1z M36,106h1v1h-1z M38,106h1v1h-1z M39,106h1v1h-1z M41,106h1v1h-1z M47,106h1v1h-1z M50,106h1v1h-1z M52,106h1v1h-1z M53,106h1v1h-1z M55,106h1v1h-1z M56,106h1v1h-1z M59,106h1v1h-1z M62,106h1v1h-1z M65,106h1v1h-1z M68,106h1v1h-1z M71,106h1v1h-1z M72,106h1v1h-1z M74,106h1v1h-1z M76,106h1v1h-1z M80,106h1v1h-1z M83,106h1v1h-1z M84,106h1v1h-1z M86,106h1v1h-1z M89,106h1v1h-1z M91,106h1v1h-1z M92,106h1v1h-1z M95,106h1v1h-1z M96,106h1v1h-1z M98,106h1v1h-1z M101,106h1v1h-1z M102,106h1v1h-1z M104,106h1v1h-1z M105,106h1v1h-1z M4,107h1v1h-1z M10,107h1v1h-1z M12,107h1v1h-1z M13,107h1v1h-1z M14,107h1v1h-1z M19,107h1v1h-1z M20,107h1v1h-1z M22,107h1v1h-1z M23,107h1v1h-1z M24,107h1v1h-1z M26,107h1v1h-1z M32,107h1v1h-1z M33,107h1v1h-1z M35,107h1v1h-1z M37,107h1v1h-1z M38,107h1v1h-1z M41,107h1v1h-1z M42,107h1v1h-1z M44,107h1v1h-1z M46,107h1v1h-1z M47,107h1v1h-1z M50,107h1v1h-1z M56,107h1v1h-1z M57,107h1v1h-1z M59,107h1v1h-1z M62,107h1v1h-1z M68,107h1v1h-1z M70,107h1v1h-1z M71,107h1v1h-1z M73,107h1v1h-1z M74,107h1v1h-1z M77,107h1v1h-1z M78,107h1v1h-1z M80,107h1v1h-1z M81,107h1v1h-1z M92,107h1v1h-1z M98,107h1v1h-1z M99,107h1v1h-1z M101,107h1v1h-1z M104,107h1v1h-1z M4,108h1v1h-1z M5,108h1v1h-1z M6,108h1v1h-1z M7,108h1v1h-1z M8,108h1v1h-1z M9,108h1v1h-1z M10,108h1v1h-1z M12,108h1v1h-1z M15,108h1v1h-1z M17,108h1v1h-1z M18,108h1v1h-1z M19,108h1v1h-1z M20,108h1v1h-1z M21,108h1v1h-1z M24,108h1v1h-1z M25,108h1v1h-1z M27,108h1v1h-1z M28,108h1v1h-1z M38,108h1v1h-1z M41,108h1v1h-1z M42,108h1v1h-1z M44,108h1v1h-1z M45,108h1v1h-1z M48,108h1v1h-1z M50,108h1v1h-1z M52,108h1v1h-1z M59,108h1v1h-1z M64,108h1v1h-1z M65,108h1v1h-1z M67,108h1v1h-1z M71,108h1v1h-1z M72,108h1v1h-1z M74,108h1v1h-1z M75,108h1v1h-1z M78,108h1v1h-1z M80,108h1v1h-1z M82,108h1v1h-1z M85,108h1v1h-1z M86,108h1v1h-1z M87,108h1v1h-1z M93,108h1v1h-1z M96,108h1v1h-1z M101,108h1v1h-1z M105,108h1v1h-1z M108,108h1v1h-1z" fill="#000000"/>
</svg>
