<?xml version="1.0" encoding="UTF-8"?>
<!DOCTYPE svg PUBLIC "-//W3C//DTD SVG 1.1//EN" "http://www.w3.org/Graphics/SVG/1.1/DTD/svg11.dtd">
<svg xmlns="http://www.w3.org/2000/svg" version="1.1" viewBox="0 0 113 113" stroke="none">
	<rect width="100%" height="100%" fill="#FFFFFF"/>
	<path d="M4,4h1v1h-1z M5,4h1v1h-1z M6,4h1v1h-1z M7,4h1v1h-1z M8,4h1v1h-1z M9,4h1v1h-1z M10,4h1v1h-1z M12,4h1v1h-1z M13,4h1v1h-1z M14,4h1v1h-1z M17,4h1v1h-1z M18,4h1v1h-1z M21,4h1v1h-1z M25,4h1v1h-1z M26,4h1v1h-1z M28,4h1v1h-1z M30,4h1v1h-1z M31,4h1v1h-1z M34,4h1v1h-1z M35,4h1v1h-1z M37,4h1v1h-1z M40,4h1v1h-1z M41,4h1v1h-1z M42,4h1v1h-1z M44,4h1v1h-1z M48,4h1v1h-1z M49,4h1v1h-1z M52,4h1v1h-1z M55,4h1v1h-1z M56,4h1v1h-1z M57,4h1v1h-1z M60,4h1v1h-1z M62,4h1v1h-1z M63,4h1v1h-1z M64,4h1v1h-1z M65,4h1v1h-1z M69,4h1v1h-1z M71,4h1v1h-1z M72,4h1v1h-1z M73,4h1v1h-1z M74,4h1v1h-1z M77,4h1v1h-1z M78,4h1v1h-1z M80,4h1v1h-1z M81,4h1v1h-1z M83,4h1v1h-1z M84,4h1v1h-1z M94,4h1v1h-1z M95,4h1v1h-1z M98,4h1v1h-1z M102,4h1v1h-1z M103,4h1v1h-1z M104,4h1v1h-1z M105,4h1v1h-1z M106,4h1v1h-1z M107,4h1v1h-1z M108,4h1v1h-1z M4,5h1v1h-1z M10,5h1v1h-1z M12,5h1v1h-1z M13,5h1v1h-1z M14,5h1v1h-1z M15,5h1v1h-1z M17,5h1v1h-1z M22,5h1v1h-1z M24,5h1v1h-1z M27,5h1v1h-1z M30,5h1v1h-1z M31,5h1v1h-1z M32,5h1v1h-1z M34,5h1v1h-1z M35,5h1v1h-1z M37,5h1v1h-1z M40,5h1v1h-1z M42,5h1v1h-1z M43,5h1v1h-1z M44,5h1v1h-1z M45,5h1v1h-1z M46,5h1v1h-1z M47,5h1v1h-1z M49,5h1v1h-1z M51,5h1v1h-1z M52,5h1v1h-1z M54,5h1v1h-1z M56,5h1v1h-1z M57,5h1v1h-1z M58,5h1v1h-1z M60,5h1v1h-1z M61,5h1v1h-1z M63,5h1v1h-1z M64,5h1v1h-1z M66,5h1v1h-1z M67,5h1v1h-1z M68,5h1v1h-1z M69,5h1v1h-1z M70,5h1v1h-1z M75,5h1v1h-1z M78,5h1v1h-1z M79,5h1v1h-1z M80,5h1v1h-1z M81,5h1v1h-1z M82,5h1v1h-1z M83,5h1v1h-1z M85,5h1v1h-1z M87,5h1v1h-1z M88,5h1v1h-1z M90,5h1v1h-1z M91,5h1v1h-1z M92,5h1v1h-1z M94,5h1v1h-1z M95,5h1v1h-1z M98,5h1v1h-1z M102,5h1v1h-1z M108,5h1v1h-1z M4,6h1v1h-1z M6,6h1v1h-1z M7,6h1v1h-1z M8,6h1v1h-1z M10,6h1v1h-1z M12,6h1v1h-1z M18,6h1v1h-1z M19,6h1v1h-1z M21,6h1v1h-1z M25,6h1v1h-1z M26,6h1v1h-1z M29,6h1v1h-1z M32,6h1v1h-1z M34,6h1v1h-1z M35,6h1v1h-1z M38,6h1v1h-1z M41,6h1v1h-1z M43,6h1v1h-1z M44,6h1v1h-1z M46,6h1v1h-1z M47,6h1v1h-1z M50,6h1v1h-1z M55,6h1v1h-1z M56,6h1v1h-1z M59,6h1v1h-1z M61,6h1v1h-1z M67,6h1v1h-1z M68,6h1v1h-1z M70,6h1v1h-1z M75,6h1v1h-1z M77,6h1v1h-1z M80,6h1v1h-1z M81,6h1v1h-1z M82,6h1v1h-1z M83,6h1v1h-1z M92,6h1v1h-1z M94,6h1v1h-1z M95,6h1v1h-1z M98,6h1v1h-1z M99,6h1v1h-1z M102,6h1v1h-1z M104,6h1v1h-1z M105,6h1v1h-1z M106,6h1v1h-1z M108,6h1v1h-1z M4,7h1v1h-1z M6,7h1v1h-1z M7,7h1v1h-1z M8,7h1v1h-1z M10,7h1v1h-1z M12,7h1v1h-1z M16,7h1v1h-1z M19,7h1v1h-1z M21,7h1v1h-1z M22,7h1v1h-1z M23,7h1v1h-1z M24,7h1v1h-1z M28,7h1v1h-1z M29,7h1v1h-1z M31,7h1v1h-1z M32,7h1v1h-1z M35,7h1v1h-1z M36,7h1v1h-1z M37,7h1v1h-1z M40,7h1v1h-1z M42,7h1v1h-1z M44,7h1v1h-1z M49,7h1v1h-1z M51,7h1v1h-1z M52,7h1v1h-1z M53,7h1v1h-1z M56,7h1v1h-1z M59,7h1v1h-1z M61,7h1v1h-1z M62,7h1v1h-1z M64,7h1v1h-1z M66,7h1v1h-1z M67,7h1v1h-1z M71,7h1v1h-1z M72,7h1v1h-1z M74,7h1v1h-1z M78,7h1v1h-1z M79,7h1v1h-1z M83,7h1v1h-1z M84,7h1v1h-1z M86,7h1v1h-1z M87,7h1v1h-1z M89,7h1v1h-1z M91,7h1v1h-1z M93,7h1v1h-1z M95,7h1v1h-1z M96,7h1v1h-1z M97,7h1v1h-1z M100,7h1v1h-1z M102,7h1v1h-1z M104,7h1v1h-1z M105,7h1v1h-1z M106,7h1v1h-1z M108,7h1v1h-1z M4,8h1v1h-1z M6,8h1v1h-1z M7,8h1v1h-1z M8,8h1v1h-1z M10,8h1v1h-1z M14,8h1v1h-1z M18,8h1v1h-1z M19,8h1v1h-1z M21,8h1v1h-1z M25,8h1v1h-1z M26,8h1v1h-1z M27,8h1v1h-1z M28,8h1v1h-1z M29,8h1v1h-1z M30,8h1v1h-1z M31,8h1v1h-1z M32,8h1v1h-1z M35,8h1v1h-1z M37,8h1v1h-1z M38,8h1v1h-1z M39,8h1v1h-1z M40,8h1v1h-1z M41,8h1v1h-1z M44,8h1v1h-1z M45,8h1v1h-1z M47,8h1v1h-1z M51,8h1v1h-1z M52,8h1v1h-1z M53,8h1v1h-1z M54,8h1v1h-1z M55,8h1v1h-1z M56,8h1v1h-1z M57,8h1v1h-1z M59,8h1v1h-1z M61,8h1v1h-1z M62,8h1v1h-1z M63,8h1v1h-1z M66,8h1v1h-1z M67,8h1v1h-1z M69,8h1v1h-1z M71,8h1v1h-1z M72,8h1v1h-1z M73,8h1v1h-1z M74,8h1v1h-1z M76,8h1v1h-1z M77,8h1v1h-1z M78,8h1v1h-1z M79,8h1v1h-1z M80,8h1v1h-1z M81,8h1v1h-1z M83,8h1v1h-1z M84,8h1v1h-1z M85,8h1v1h-1z M87,8h1v1h-1z M89,8h1v1h-1z M90,8h1v1h-1z M91,8h1v1h-1z M92,8h1v1h-1z M93,8h1v1h-1z M94,8h1v1h-1z M95,8h1v1h-1z M96,8h1v1h-1z M99,8h1v1h-1z M100,8h1v1h-1z M102,8h1v1h-1z M104,8h1v1h-1z M105,8h1v1h-1z M106,8h1v1h-1z M108,8h1v1h-1z M4,9h1v1h-1z M10,9h1v1h-1z M12,9h1v1h-1z M14,9h1v1h-1z M17,9h1v1h-1z M18,9h1v1h-1z M20,9h1v1h-1z M22,9h1v1h-1z M25,9h1v1h-1z M27,9h1v1h-1z M28,9h1v1h-1z M32,9h1v1h-1z M33,9h1v1h-1z M34,9h1v1h-1z M35,9h1v1h-1z M36,9h1v1h-1z M37,9h1v1h-1z M40,9h1v1h-1z M42,9h1v1h-1z M43,9h1v1h-1z M44,9h1v1h-1z M45,9h1v1h-1z M46,9h1v1h-1z M49,9h1v1h-1z M52,9h1v1h-1z M56,9h1v1h-1z M58,9h1v1h-1z M60,9h1v1h-1z M61,9h1v1h-1z M64,9h1v1h-1z M65,9h1v1h-1z M66,9h1v1h-1z M67,9h1v1h-1z M68,9h1v1h-1z M70,9h1v1h-1z M73,9h1v1h-1z M76,9h1v1h-1z M80,9h1v1h-1z M82,9h1v1h-1z M84,9h1v1h-1z M87,9h1v1h-1z M90,9h1v1h-1z M91,9h1v1h-1z M93,9h1v1h-1z M94,9h1v1h-1z M97,9h1v1h-1z M99,9h1v1h-1z M102,9h1v1h-1z M108,9h1v1h-1z M4,10h1v1h-1z M5,10h1v1h-1z M6,10h1v1h-1z M7,10h1v1h-1z M8,10h1v1h-1z M9,10h1v1h-1z M10,10h1v1h-1z M12,10h1v1h-1z M14,10h1v1h-1z M16,10h1v1h-1z M18,10h1v1h-1z M20,10h1v1h-1z M22,10h1v1h-1z M24,10h1v1h-1z M26,10h1v1h-1z M28,10h1v1h-1z M30,10h1v1h-1z M32,10h1v1h-1z M34,10h1v1h-1z M36,10h1v1h-1z M38,10h1v1h-1z M40,10h1v1h-1z M42,10h1v1h-1z M44,10h1v1h-1z M46,10h1v1h-1z M48,10h1v1h-1z M50,10h1v1h-1z M52,10h1v1h-1z M54,10h1v1h-1z M56,10h1v1h-1z M58,10h1v1h-1z M60,10h1v1h-1z M62,10h1v1h-1z M64,10h1v1h-1z M66,10h1v1h-1z M68,10h1v1h-1z M70,10h1v1h-1z M72,10h1v1h-1z M74,10h1v1h-1z M76,10h1v1h-1z M78,10h1v1h-1z M80,10h1v1h-1z M82,10h1v1h-1z M84,10h1v1h-1z M86,10h1v1h-1z M88,10h1v1h-1z M90,10h1v1h-1z M92,10h1v1h-1z M94,10h1v1h-1z M96,10h1v1h-1z M98,10h1v1h-1z M100,10h1v1h-1z M102,10h1v1h-1z M103,10h1v1h-1z M104,10h1v1h-1z M105,10h1v1h-1z M106,10h1v1h-1z M107,10h1v1h-1z M108,10h1v1h-1z M14,11h1v1h-1z M15,11h1v1h-1z M18,11h1v1h-1z M19,11h1v1h-1z M23,11h1v1h-1z M25,11h1v1h-1z M28,11h1v1h-1z M32,11h1v1h-1z M33,11h1v1h-1z M35,11h1v1h-1z M37,11h1v1h-1z M38,11h1v1h-1z M41,11h1v1h-1z M43,11h1v1h-1z M44,11h1v1h-1z M45,11h1v1h-1z M47,11h1v1h-1z M49,11h1v1h-1z M50,11h1v1h-1z M52,11h1v1h-1z M56,11h1v1h-1z M58,11h1v1h-1z M59,11h1v1h-1z M62,11h1v1h-1z M65,11h1v1h-1z M66,11h1v1h-1z M67,11h1v1h-1z M68,11h1v1h-1z M70,11h1v1h-1z M71,11h1v1h-1z M74,11h1v1h-1z M75,11h1v1h-1z M76,11h1v1h-1z M80,11h1v1h-1z M81,11h1v1h-1z M82,11h1v1h-1z M83,11h1v1h-1z M89,11h1v1h-1z M92,11h1v1h-1z M93,11h1v1h-1z M94,11h1v1h-1z M95,11h1v1h-1z M100,11h1v1h-1z M4,12h1v1h-1z M5,12h1v1h-1z M8,12h1v1h-1z M9,12h1v1h-1z M10,12h1v1h-1z M13,12h1v1h-1z M16,12h1v1h-1z M17,12h1v1h-1z M18,12h1v1h-1z M20,12h1v1h-1z M21,12h1v1h-1z M23,12h1v1h-1z M25,12h1v1h-1z M26,12h1v1h-1z M28,12h1v1h-1z M29,12h1v1h-1z M30,12h1v1h-1z M31,12h1v1h-1z M32,12h1v1h-1z M33,12h1v1h-1z M34,12h1v1h-1z M37,12h1v1h-1z M44,12h1v1h-1z M45,12h1v1h-1z M47,12h1v1h-1z M52,12h1v1h-1z M53,12h1v1h-1z M54,12h1v1h-1z M55,12h1v1h-1z M56,12h1v1h-1z M57,12h1v1h-1z M58,12h1v1h-1z M60,12h1v1h-1z M65,12h1v1h-1z M66,12h1v1h-1z M67,12h1v1h-1z M68,12h1v1h-1z M70,12h1v1h-1z M72,12h1v1h-1z M73,12h1v1h-1z M75,12h1v1h-1z M76,12h1v1h-1z M77,12h1v1h-1z M78,12h1v1h-1z M79,12h1v1h-1z M80,12h1v1h-1z M83,12h1v1h-1z M84,12h1v1h-1z M85,12h1v1h-1z M86,12h1v1h-1z M87,12h1v1h-1z M89,12h1v1h-1z M91,12h1v1h-1z M94,12h1v1h-1z M96,12h1v1h-1z M98,12h1v1h-1z M100,12h1v1h-1z M103,12h1v1h-1z M105,12h1v1h-1z M106,12h1v1h-1z M107,12h1v1h-1z M108,12h1v1h-1z M4,13h1v1h-1z M5,13h1v1h-1z M7,13h1v1h-1z M15,13h1v1h-1z M16,13h1v1h-1z M17,13h1v1h-1z M18,13h1v1h-1z M22,13h1v1h-1z M25,13h1v1h-1z M26,13h1v1h-1z M27,13h1v1h-1z M28,13h1v1h-1z M29,13h1v1h-1z M31,13h1v1h-1z M33,13h1v1h-1z M34,13h1v1h-1z M36,13h1v1h-1z M37,13h1v1h-1z M42,13h1v1h-1z M44,13h1v1h-1z M45,13h1v1h-1z M50,13h1v1h-1z M51,13h1v1h-1z M52,13h1v1h-1z M55,13h1v1h-1z M59,13h1v1h-1z M60,13h1v1h-1z M64,13h1v1h-1z M66,13h1v1h-1z M67,13h1v1h-1z M72,13h1v1h-1z M73,13h1v1h-1z M75,13h1v1h-1z M76,13h1v1h-1z M78,13h1v1h-1z M80,13h1v1h-1z M81,13h1v1h-1z M83,13h1v1h-1z M85,13h1v1h-1z M87,13h1v1h-1z M90,13h1v1h-1z M91,13h1v1h-1z M92,13h1v1h-1z M93,13h1v1h-1z M94,13h1v1h-1z M97,13h1v1h-1z M100,13h1v1h-1z M102,13h1v1h-1z M103,13h1v1h-1z M106,13h1v1h-1z M107,13h1v1h-1z M108,13h1v1h-1z M7,14h1v1h-1z M8,14h1v1h-1z M10,14h1v1h-1z M12,14h1v1h-1z M15,14h1v1h-1z M17,14h1v1h-1z M21,14h1v1h-1z M23,14h1v1h-1z M26,14h1v1h-1z M28,14h1v1h-1z M29,14h1v1h-1z M38,14h1v1h-1z M39,14h1v1h-1z M41,14h1v1h-1z M47,14h1v1h-1z M49,14h1v1h-1z M50,14h1v1h-1z M52,14h1v1h-1z M53,14h1v1h-1z M56,14h1v1h-1z M59,14h1v1h-1z M61,14h1v1h-1z M62,14h1v1h-1z M63,14h1v1h-1z M65,14h1v1h-1z M67,14h1v1h-1z M68,14h1v1h-1z M71,14h1v1h-1z M74,14h1v1h-1z M75,14h1v1h-1z M76,14h1v1h-1z M77,14h1v1h-1z M83,14h1v1h-1z M84,14h1v1h-1z M86,14h1v1h-1z M88,14h1v1h-1z M89,14h1v1h-1z M91,14h1v1h-1z M92,14h1v1h-1z M95,14h1v1h-1z M96,14h1v1h-1z M98,14h1v1h-1z M101,14h1v1h-1z M104,14h1v1h-1z M105,14h1v1h-1z M107,14h1v1h-1z M5,15h1v1h-1z M9,15h1v1h-1z M11,15h1v1h-1z M13,15h1v1h-1z M14,15h1v1h-1z M15,15h1v1h-1z M16,15h1v1h-1z M17,15h1v1h-1z M19,15h1v1h-1z M21,15h1v1h-1z M22,15h1v1h-1z M23,15h1v1h-1z M24,15h1v1h-1z M26,15h1v1h-1z M32,15h1v1h-1z M33,15h1v1h-1z M35,15h1v1h-1z M37,15h1v1h-1z M38,15h1v1h-1z M42,15h1v1h-1z M44,15h1v1h-1z M46,15h1v1h-1z M47,15h1v1h-1z M56,15h1v1h-1z M57,15h1v1h-1z M59,15h1v1h-1z M65,15h1v1h-1z M68,15h1v1h-1z M69,15h1v1h-1z M70,15h1v1h-1z M71,15h1v1h-1z M73,15h1v1h-1z M74,15h1v1h-1z M79,15h1v1h-1z M80,15h1v1h-1z M83,15h1v1h-1z M85,15h1v1h-1z M87,15h1v1h-1z M90,15h1v1h-1z M92,15h1v1h-1z M93,15h1v1h-1z M94,15h1v1h-1z M95,15h1v1h-1z M97,15h1v1h-1z M100,15h1v1h-1z M101,15h1v1h-1z M103,15h1v1h-1z M107,15h1v1h-1z M6,16h1v1h-1z M7,16h1v1h-1z M10,16h1v1h-1z M11,16h1v1h-1z M13,16h1v1h-1z M16,16h1v1h-1z M17,16h1v1h-1z M24,16h1v1h-1z M25,16h1v1h-1z M28,16h1v1h-1z M30,16h1v1h-1z M33,16h1v1h-1z M34,16h1v1h-1z M35,16h1v1h-1z M36,16h1v1h-1z M38,16h1v1h-1z M40,16h1v1h-1z M41,16h1v1h-1z M43,16h1v1h-1z M44,16h1v1h-1z M46,16h1v1h-1z M47,16h1v1h-1z M48,16h1v1h-1z M49,16h1v1h-1z M52,16h1v1h-1z M53,16h1v1h-1z M54,16h1v1h-1z M55,16h1v1h-1z M56,16h1v1h-1z M59,16h1v1h-1z M60,16h1v1h-1z M62,16h1v1h-1z M63,16h1v1h-1z M64,16h1v1h-1z M65,16h1v1h-1z M67,16h1v1h-1z M69,16h1v1h-1z M71,16h1v1h-1z M72,16h1v1h-1z M74,16h1v1h-1z M77,16h1v1h-1z M78,16h1v1h-1z M79,16h1v1h-1z M85,16h1v1h-1z M88,16h1v1h-1z M91,16h1v1h-1z M93,16h1v1h-1z M94,16h1v1h-1z M95,16h1v1h-1z M99,16h1v1h-1z M100,16h1v1h-1z M101,16h1v1h-1z M102,16h1v1h-1z M105,16h1v1h-1z M107,16h1v1h-1z M4,17h1v1h-1z M7,17h1v1h-1z M13,17h1v1h-1z M14,17h1v1h-1z M16,17h1v1h-1z M18,17h1v1h-1z M19,17h1v1h-1z M20,17h1v1h-1z M22,17h1v1h-1z M23,17h1v1h-1z M27,17h1v1h-1z M28,17h1v1h-1z M31,17h1v1h-1z M33,17h1v1h-1z M35,17h1v1h-1z M40,17h1v1h-1z M41,17h1v1h-1z M42,17h1v1h-1z M43,17h1v1h-1z M47,17h1v1h-1z M49,17h1v1h-1z M51,17h1v1h-1z M52,17h1v1h-1z M53,17h1v1h-1z M54,17h1v1h-1z M57,17h1v1h-1z M58,17h1v1h-1z M59,17h1v1h-1z M61,17h1v1h-1z M63,17h1v1h-1z M64,17h1v1h-1z M65,17h1v1h-1z M67,17h1v1h-1z M69,17h1v1h-1z M70,17h1v1h-1z M71,17h1v1h-1z M72,17h1v1h-1z M76,17h1v1h-1z M77,17h1v1h-1z M81,17h1v1h-1z M83,17h1v1h-1z M86,17h1v1h-1z M90,17h1v1h-1z M93,17h1v1h-1z M94,17h1v1h-1z M95,17h1v1h-1z M98,17h1v1h-1z M99,17h1v1h-1z M101,17h1v1h-1z M106,17h1v1h-1z M107,17h1v1h-1z M4,18h1v1h-1z M5,18h1v1h-1z M6,18h1v1h-1z M8,18h1v1h-1z M9,18h1v1h-1z M10,18h1v1h-1z M17,18h1v1h-1z M18,18h1v1h-1z M21,18h1v1h-1z M22,18h1v1h-1z M23,18h1v1h-1z M24,18h1v1h-1z M26,18h1v1h-1z M27,18h1v1h-1z M28,18h1v1h-1z M29,18h1v1h-1z M32,18h1v1h-1z M36,18h1v1h-1z M38,18h1v1h-1z M40,18h1v1h-1z M41,18h1v1h-1z M43,18h1v1h-1z M44,18h1v1h-1z M48,18h1v1h-1z M49,18h1v1h-1z M50,18h1v1h-1z M52,18h1v1h-1z M53,18h1v1h-1z M56,18h1v1h-1z M57,18h1v1h-1z M59,18h1v1h-1z M62,18h1v1h-1z M64,18h1v1h-1z M65,18h1v1h-1z M67,18h1v1h-1z M68,18h1v1h-1z M72,18h1v1h-1z M73,18h1v1h-1z M74,18h1v1h-1z M75,18h1v1h-1z M77,18h1v1h-1z M83,18h1v1h-1z M84,18h1v1h-1z M85,18h1v1h-1z M86,18h1v1h-1z M87,18h1v1h-1z M92,18h1v1h-1z M96,18h1v1h-1z M98,18h1v1h-1z M101,18h1v1h-1z M104,18h1v1h-1z M105,18h1v1h-1z M106,18h1v1h-1z M107,18h1v1h-1z M4,19h1v1h-1z M6,19h1v1h-1z M7,19h1v1h-1z M9,19h1v1h-1z M14,19h1v1h-1z M15,19h1v1h-1z M16,19h1v1h-1z M17,19h1v1h-1z M19,19h1v1h-1z M22,19h1v1h-1z M24,19h1v1h-1z M25,19h1v1h-1z M27,19h1v1h-1z M32,19h1v1h-1z M34,19h1v1h-1z M35,19h1v1h-1z M37,19h1v1h-1z M39,19h1v1h-1z M41,19h1v1h-1z M44,19h1v1h-1z M47,19h1v1h-1z M56,19h1v1h-1z M58,19h1v1h-1z M59,19h1v1h-1z M62,19h1v1h-1z M63,19h1v1h-1z M65,19h1v1h-1z M68,19h1v1h-1z M69,19h1v1h-1z M71,19h1v1h-1z M75,19h1v1h-1z M78,19h1v1h-1z M79,19h1v1h-1z M80,19h1v1h-1z M82,19h1v1h-1z M89,19h1v1h-1z M90,19h1v1h-1z M92,19h1v1h-1z M94,19h1v1h-1z M95,19h1v1h-1z M100,19h1v1h-1z M101,19h1v1h-1z M104,19h1v1h-1z M105,19h1v1h-1z M4,20h1v1h-1z M5,20h1v1h-1z M7,20h1v1h-1z M9,20h1v1h-1z M10,20h1v1h-1z M11,20h1v1h-1z M12,20h1v1h-1z M14,20h1v1h-1z M19,20h1v1h-1z M21,20h1v1h-1z M22,20h1v1h-1z M23,20h1v1h-1z M30,20h1v1h-1z M33,20h1v1h-1z M34,20h1v1h-1z M36,20h1v1h-1z M38,20h1v1h-1z M41,20h1v1h-1z M44,20h1v1h-1z M49,20h1v1h-1z M52,20h1v1h-1z M53,20h1v1h-1z M55,20h1v1h-1z M56,20h1v1h-1z M57,20h1v1h-1z M58,20h1v1h-1z M61,20h1v1h-1z M62,20h1v1h-1z M65,20h1v1h-1z M67,20h1v1h-1z M68,20h1v1h-1z M70,20h1v1h-1z M71,20h1v1h-1z M72,20h1v1h-1z M73,20h1v1h-1z M82,20h1v1h-1z M88,20h1v1h-1z M89,20h1v1h-1z M92,20h1v1h-1z M93,20h1v1h-1z M94,20h1v1h-1z M96,20h1v1h-1z M98,20h1v1h-1z M99,20h1v1h-1z M100,20h1v1h-1z M105,20h1v1h-1z M108,20h1v1h-1z M4,21h1v1h-1z M5,21h1v1h-1z M6,21h1v1h-1z M9,21h1v1h-1z M12,21h1v1h-1z M13,21h1v1h-1z M16,21h1v1h-1z M18,21h1v1h-1z M19,21h1v1h-1z M20,21h1v1h-1z M24,21h1v1h-1z M26,21h1v1h-1z M27,21h1v1h-1z M28,21h1v1h-1z M32,21h1v1h-1z M35,21h1v1h-1z M40,21h1v1h-1z M45,21h1v1h-1z M47,21h1v1h-1z M49,21h1v1h-1z M50,21h1v1h-1z M51,21h1v1h-1z M52,21h1v1h-1z M54,21h1v1h-1z M56,21h1v1h-1z M57,21h1v1h-1z M58,21h1v1h-1z M60,21h1v1h-1z M61,21h1v1h-1z M63,21h1v1h-1z M64,21h1v1h-1z M67,21h1v1h-1z M71,21h1v1h-1z M73,21h1v1h-1z M74,21h1v1h-1z M75,21h1v1h-1z M76,21h1v1h-1z M80,21h1v1h-1z M81,21h1v1h-1z M84,21h1v1h-1z M86,21h1v1h-1z M90,21h1v1h-1z M95,21h1v1h-1z M98,21h1v1h-1z M99,21h1v1h-1z M100,21h1v1h-1z M102,21h1v1h-1z M103,21h1v1h-1z M104,21h1v1h-1z M105,21h1v1h-1z M106,21h1v1h-1z M107,21h1v1h-1z M5,22h1v1h-1z M7,22h1v1h-1z M8,22h1v1h-1z M10,22h1v1h-1z M12,22h1v1h-1z M16,22h1v1h-1z M19,22h1v1h-1z M21,22h1v1h-1z M22,22h1v1h-1z M24,22h1v1h-1z M25,22h1v1h-1z M26,22h1v1h-1z M27,22h1v1h-1z M29,22h1v1h-1z M35,22h1v1h-1z M36,22h1v1h-1z M38,22h1v1h-1z M39,22h1v1h-1z M40,22h1v1h-1z M41,22h1v1h-1z M43,22h1v1h-1z M48,22h1v1h-1z M50,22h1v1h-1z M53,22h1v1h-1z M62,22h1v1h-1z M63,22h1v1h-1z M64,22h1v1h-1z M65,22h1v1h-1z M67,22h1v1h-1z M68,22h1v1h-1z M71,22h1v1h-1z M73,22h1v1h-1z M74,22h1v1h-1z M75,22h1v1h-1z M77,22h1v1h-1z M81,22h1v1h-1z M83,22h1v1h-1z M84,22h1v1h-1z M86,22h1v1h-1z M87,22h1v1h-1z M88,22h1v1h-1z M92,22h1v1h-1z M98,22h1v1h-1z M99,22h1v1h-1z M100,22h1v1h-1z M102,22h1v1h-1z M103,22h1v1h-1z M104,22h1v1h-1z M107,22h1v1h-1z M7,23h1v1h-1z M8,23h1v1h-1z M11,23h1v1h-1z M13,23h1v1h-1z M14,23h1v1h-1z M15,23h1v1h-1z M17,23h1v1h-1z M18,23h1v1h-1z M19,23h1v1h-1z M22,23h1v1h-1z M30,23h1v1h-1z M32,23h1v1h-1z M33,23h1v1h-1z M34,23h1v1h-1z M35,23h1v1h-1z M37,23h1v1h-1z M41,23h1v1h-1z M44,23h1v1h-1z M45,23h1v1h-1z M49,23h1v1h-1z M50,23h1v1h-1z M54,23h1v1h-1z M56,23h1v1h-1z M57,23h1v1h-1z M58,23h1v1h-1z M59,23h1v1h-1z M61,23h1v1h-1z M62,23h1v1h-1z M66,23h1v1h-1z M68,23h1v1h-1z M69,23h1v1h-1z M71,23h1v1h-1z M75,23h1v1h-1z M76,23h1v1h-1z M77,23h1v1h-1z M78,23h1v1h-1z M80,23h1v1h-1z M82,23h1v1h-1z M83,23h1v1h-1z M85,23h1v1h-1z M86,23h1v1h-1z M90,23h1v1h-1z M92,23h1v1h-1z M93,23h1v1h-1z M95,23h1v1h-1z M97,23h1v1h-1z M100,23h1v1h-1z M101,23h1v1h-1z M103,23h1v1h-1z M104,23h1v1h-1z M5,24h1v1h-1z M6,24h1v1h-1z M7,24h1v1h-1z M8,24h1v1h-1z M10,24h1v1h-1z M12,24h1v1h-1z M13,24h1v1h-1z M14,24h1v1h-1z M15,24h1v1h-1z M16,24h1v1h-1z M17,24h1v1h-1z M21,24h1v1h-1z M22,24h1v1h-1z M24,24h1v1h-1z M26,24h1v1h-1z M30,24h1v1h-1z M33,24h1v1h-1z M36,24h1v1h-1z M38,24h1v1h-1z M39,24h1v1h-1z M43,24h1v1h-1z M44,24h1v1h-1z M45,24h1v1h-1z M46,24h1v1h-1z M47,24h1v1h-1z M50,24h1v1h-1z M54,24h1v1h-1z M55,24h1v1h-1z M60,24h1v1h-1z M63,24h1v1h-1z M66,24h1v1h-1z M69,24h1v1h-1z M70,24h1v1h-1z M71,24h1v1h-1z M74,24h1v1h-1z M75,24h1v1h-1z M76,24h1v1h-1z M77,24h1v1h-1z M83,24h1v1h-1z M84,24h1v1h-1z M88,24h1v1h-1z M89,24h1v1h-1z M91,24h1v1h-1z M95,24h1v1h-1z M98,24h1v1h-1z M99,24h1v1h-1z M100,24h1v1h-1z M103,24h1v1h-1z M104,24h1v1h-1z M6,25h1v1h-1z M7,25h1v1h-1z M8,25h1v1h-1z M9,25h1v1h-1z M11,25h1v1h-1z M13,25h1v1h-1z M14,25h1v1h-1z M22,25h1v1h-1z M25,25h1v1h-1z M28,25h1v1h-1z M29,25h1v1h-1z M32,25h1v1h-1z M33,25h1v1h-1z M34,25h1v1h-1z M35,25h1v1h-1z M36,25h1v1h-1z M37,25h1v1h-1z M39,25h1v1h-1z M40,25h1v1h-1z M41,25h1v1h-1z M43,25h1v1h-1z M46,25h1v1h-1z M47,25h1v1h-1z M49,25h1v1h-1z M51,25h1v1h-1z M52,25h1v1h-1z M53,25h1v1h-1z M56,25h1v1h-1z M59,25h1v1h-1z M60,25h1v1h-1z M62,25h1v1h-1z M64,25h1v1h-1z M65,25h1v1h-1z M68,25h1v1h-1z M71,25h1v1h-1z M72,25h1v1h-1z M73,25h1v1h-1z M74,25h1v1h-1z M75,25h1v1h-1z M76,25h1v1h-1z M77,25h1v1h-1z M78,25h1v1h-1z M81,25h1v1h-1z M82,25h1v1h-1z M84,25h1v1h-1z M85,25h1v1h-1z M87,25h1v1h-1z M90,25h1v1h-1z M93,25h1v1h-1z M94,25h1v1h-1z M96,25h1v1h-1z M99,25h1v1h-1z M102,25h1v1h-1z M104,25h1v1h-1z M107,25h1v1h-1z M4,26h1v1h-1z M6,26h1v1h-1z M7,26h1v1h-1z M8,26h1v1h-1z M10,26h1v1h-1z M12,26h1v1h-1z M13,26h1v1h-1z M14,26h1v1h-1z M21,26h1v1h-1z M22,26h1v1h-1z M23,26h1v1h-1z M26,26h1v1h-1z M28,26h1v1h-1z M29,26h1v1h-1z M32,26h1v1h-1z M35,26h1v1h-1z M36,26h1v1h-1z M38,26h1v1h-1z M40,26h1v1h-1z M41,26h1v1h-1z M47,26h1v1h-1z M48,26h1v1h-1z M50,26h1v1h-1z M53,26h1v1h-1z M55,26h1v1h-1z M59,26h1v1h-1z M60,26h1v1h-1z M61,26h1v1h-1z M62,26h1v1h-1z M64,26h1v1h-1z M65,26h1v1h-1z M67,26h1v1h-1z M68,26h1v1h-1z M74,26h1v1h-1z M76,26h1v1h-1z M77,26h1v1h-1z M80,26h1v1h-1z M86,26h1v1h-1z M88,26h1v1h-1z M91,26h1v1h-1z M95,26h1v1h-1z M96,26h1v1h-1z M98,26h1v1h-1z M104,26h1v1h-1z M105,26h1v1h-1z M107,26h1v1h-1z M4,27h1v1h-1z M5,27h1v1h-1z M8,27h1v1h-1z M9,27h1v1h-1z M16,27h1v1h-1z M20,27h1v1h-1z M23,27h1v1h-1z M24,27h1v1h-1z M25,27h1v1h-1z M26,27h1v1h-1z M32,27h1v1h-1z M33,27h1v1h-1z M34,27h1v1h-1z M35,27h1v1h-1z M38,27h1v1h-1z M43,27h1v1h-1z M44,27h1v1h-1z M46,27h1v1h-1z M47,27h1v1h-1z M49,27h1v1h-1z M50,27h1v1h-1z M52,27h1v1h-1z M54,27h1v1h-1z M56,27h1v1h-1z M57,27h1v1h-1z M58,27h1v1h-1z M65,27h1v1h-1z M68,27h1v1h-1z M70,27h1v1h-1z M71,27h1v1h-1z M74,27h1v1h-1z M78,27h1v1h-1z M80,27h1v1h-1z M83,27h1v1h-1z M85,27h1v1h-1z M86,27h1v1h-1z M89,27h1v1h-1z M90,27h1v1h-1z M92,27h1v1h-1z M93,27h1v1h-1z M94,27h1v1h-1z M97,27h1v1h-1z M98,27h1v1h-1z M100,27h1v1h-1z M103,27h1v1h-1z M4,28h1v1h-1z M7,28h1v1h-1z M8,28h1v1h-1z M9,28h1v1h-1z M10,28h1v1h-1z M11,28h1v1h-1z M12,28h1v1h-1z M13,28h1v1h-1z M17,28h1v1h-1z M18,28h1v1h-1z M20,28h1v1h-1z M21,28h1v1h-1z M25,28h1v1h-1z M28,28h1v1h-1z M29,28h1v1h-1z M30,28h1v1h-1z M31,28h1v1h-1z M32,28h1v1h-1z M34,28h1v1h-1z M36,28h1v1h-1z M37,28h1v1h-1z M38,28h1v1h-1z M40,28h1v1h-1z M41,28h1v1h-1z M45,28h1v1h-1z M46,28h1v1h-1z M50,28h1v1h-1z M51,28h1v1h-1z M52,28h1v1h-1z M53,28h1v1h-1z M54,28h1v1h-1z M55,28h1v1h-1z M56,28h1v1h-1z M61,28h1v1h-1z M62,28h1v1h-1z M67,28h1v1h-1z M68,28h1v1h-1z M70,28h1v1h-1z M71,28h1v1h-1z M72,28h1v1h-1z M74,28h1v1h-1z M75,28h1v1h-1z M76,28h1v1h-1z M77,28h1v1h-1z M78,28h1v1h-1z M79,28h1v1h-1z M80,28h1v1h-1z M85,28h1v1h-1z M87,28h1v1h-1z M88,28h1v1h-1z M91,28h1v1h-1z M92,28h1v1h-1z M99,28h1v1h-1z M100,28h1v1h-1z M101,28h1v1h-1z M102,28h1v1h-1z M103,28h1v1h-1z M104,28h1v1h-1z M106,28h1v1h-1z M108,28h1v1h-1z M6,29h1v1h-1z M7,29h1v1h-1z M8,29h1v1h-1z M12,29h1v1h-1z M13,29h1v1h-1z M21,29h1v1h-1z M22,29h1v1h-1z M24,29h1v1h-1z M28,29h1v1h-1z M32,29h1v1h-1z M33,29h1v1h-1z M34,29h1v1h-1z M37,29h1v1h-1z M38,29h1v1h-1z M41,29h1v1h-1z M47,29h1v1h-1z M48,29h1v1h-1z M52,29h1v1h-1z M56,29h1v1h-1z M59,29h1v1h-1z M64,29h1v1h-1z M66,29h1v1h-1z M67,29h1v1h-1z M69,29h1v1h-1z M72,29h1v1h-1z M73,29h1v1h-1z M74,29h1v1h-1z M76,29h1v1h-1z M80,29h1v1h-1z M81,29h1v1h-1z M82,29h1v1h-1z M85,29h1v1h-1z M92,29h1v1h-1z M100,29h1v1h-1z M104,29h1v1h-1z M106,29h1v1h-1z M5,30h1v1h-1z M7,30h1v1h-1z M8,30h1v1h-1z M10,30h1v1h-1z M12,30h1v1h-1z M14,30h1v1h-1z M15,30h1v1h-1z M16,30h1v1h-1z M20,30h1v1h-1z M23,30h1v1h-1z M26,30h1v1h-1z M28,30h1v1h-1z M30,30h1v1h-1z M32,30h1v1h-1z M35,30h1v1h-1z M36,30h1v1h-1z M38,30h1v1h-1z M40,30h1v1h-1z M41,30h1v1h-1z M43,30h1v1h-1z M44,30h1v1h-1z M48,30h1v1h-1z M50,30h1v1h-1z M52,30h1v1h-1z M54,30h1v1h-1z M56,30h1v1h-1z M59,30h1v1h-1z M60,30h1v1h-1z M61,30h1v1h-1z M62,30h1v1h-1z M64,30h1v1h-1z M65,30h1v1h-1z M72,30h1v1h-1z M74,30h1v1h-1z M76,30h1v1h-1z M78,30h1v1h-1z M80,30h1v1h-1z M84,30h1v1h-1z M86,30h1v1h-1z M87,30h1v1h-1z M89,30h1v1h-1z M92,30h1v1h-1z M96,30h1v1h-1z M97,30h1v1h-1z M98,30h1v1h-1z M99,30h1v1h-1z M100,30h1v1h-1z M102,30h1v1h-1z M104,30h1v1h-1z M105,30h1v1h-1z M5,31h1v1h-1z M7,31h1v1h-1z M8,31h1v1h-1z M12,31h1v1h-1z M16,31h1v1h-1z M20,31h1v1h-1z M22,31h1v1h-1z M24,31h1v1h-1z M25,31h1v1h-1z M26,31h1v1h-1z M27,31h1v1h-1z M28,31h1v1h-1z M32,31h1v1h-1z M33,31h1v1h-1z M34,31h1v1h-1z M35,31h1v1h-1z M38,31h1v1h-1z M39,31h1v1h-1z M41,31h1v1h-1z M42,31h1v1h-1z M44,31h1v1h-1z M46,31h1v1h-1z M47,31h1v1h-1z M49,31h1v1h-1z M50,31h1v1h-1z M51,31h1v1h-1z M52,31h1v1h-1z M56,31h1v1h-1z M67,31h1v1h-1z M68,31h1v1h-1z M69,31h1v1h-1z M71,31h1v1h-1z M73,31h1v1h-1z M74,31h1v1h-1z M75,31h1v1h-1z M76,31h1v1h-1z M80,31h1v1h-1z M82,31h1v1h-1z M83,31h1v1h-1z M86,31h1v1h-1z M92,31h1v1h-1z M95,31h1v1h-1z M97,31h1v1h-1z M100,31h1v1h-1z M104,31h1v1h-1z M105,31h1v1h-1z M107,31h1v1h-1z M8,32h1v1h-1z M9,32h1v1h-1z M10,32h1v1h-1z M11,32h1v1h-1z M12,32h1v1h-1z M13,32h1v1h-1z M16,32h1v1h-1z M18,32h1v1h-1z M20,32h1v1h-1z M22,32h1v1h-1z M25,32h1v1h-1z M26,32h1v1h-1z M28,32h1v1h-1z M29,32h1v1h-1z M30,32h1v1h-1z M31,32h1v1h-1z M32,32h1v1h-1z M35,32h1v1h-1z M36,32h1v1h-1z M40,32h1v1h-1z M41,32h1v1h-1z M42,32h1v1h-1z M43,32h1v1h-1z M44,32h1v1h-1z M50,32h1v1h-1z M52,32h1v1h-1z M53,32h1v1h-1z M54,32h1v1h-1z M55,32h1v1h-1z M56,32h1v1h-1z M59,32h1v1h-1z M60,32h1v1h-1z M61,32h1v1h-1z M64,32h1v1h-1z M66,32h1v1h-1z M67,32h1v1h-1z M68,32h1v1h-1z M71,32h1v1h-1z M73,32h1v1h-1z M76,32h1v1h-1z M77,32h1v1h-1z M78,32h1v1h-1z M79,32h1v1h-1z M80,32h1v1h-1z M81,32h1v1h-1z M82,32h1v1h-1z M84,32h1v1h-1z M87,32h1v1h-1z M90,32h1v1h-1z M92,32h1v1h-1z M93,32h1v1h-1z M94,32h1v1h-1z M95,32h1v1h-1z M96,32h1v1h-1z M97,32h1v1h-1z M100,32h1v1h-1z M101,32h1v1h-1z M102,32h1v1h-1z M103,32h1v1h-1z M104,32h1v1h-1z M105,32h1v1h-1z M107,32h1v1h-1z M9,33h1v1h-1z M16,33h1v1h-1z M17,33h1v1h-1z M18,33h1v1h-1z M19,33h1v1h-1z M22,33h1v1h-1z M24,33h1v1h-1z M26,33h1v1h-1z M27,33h1v1h-1z M28,33h1v1h-1z M30,33h1v1h-1z M31,33h1v1h-1z M32,33h1v1h-1z M33,33h1v1h-1z M34,33h1v1h-1z M35,33h1v1h-1z M38,33h1v1h-1z M39,33h1v1h-1z M40,33h1v1h-1z M41,33h1v1h-1z M42,33h1v1h-1z M47,33h1v1h-1z M48,33h1v1h-1z M52,33h1v1h-1z M54,33h1v1h-1z M55,33h1v1h-1z M56,33h1v1h-1z M59,33h1v1h-1z M61,33h1v1h-1z M63,33h1v1h-1z M68,33h1v1h-1z M70,33h1v1h-1z M72,33h1v1h-1z M73,33h1v1h-1z M76,33h1v1h-1z M77,33h1v1h-1z M78,33h1v1h-1z M79,33h1v1h-1z M80,33h1v1h-1z M81,33h1v1h-1z M82,33h1v1h-1z M83,33h1v1h-1z M85,33h1v1h-1z M86,33h1v1h-1z M87,33h1v1h-1z M88,33h1v1h-1z M90,33h1v1h-1z M92,33h1v1h-1z M93,33h1v1h-1z M94,33h1v1h-1z M96,33h1v1h-1z M100,33h1v1h-1z M103,33h1v1h-1z M105,33h1v1h-1z M107,33h1v1h-1z M108,33h1v1h-1z M4,34h1v1h-1z M6,34h1v1h-1z M7,34h1v1h-1z M8,34h1v1h-1z M9,34h1v1h-1z M10,34h1v1h-1z M13,34h1v1h-1z M14,34h1v1h-1z M15,34h1v1h-1z M17,34h1v1h-1z M19,34h1v1h-1z M23,34h1v1h-1z M24,34h1v1h-1z M27,34h1v1h-1z M31,34h1v1h-1z M36,34h1v1h-1z M38,34h1v1h-1z M39,34h1v1h-1z M40,34h1v1h-1z M43,34h1v1h-1z M45,34h1v1h-1z M47,34h1v1h-1z M50,34h1v1h-1z M51,34h1v1h-1z M53,34h1v1h-1z M54,34h1v1h-1z M61,34h1v1h-1z M62,34h1v1h-1z M65,34h1v1h-1z M67,34h1v1h-1z M68,34h1v1h-1z M69,34h1v1h-1z M74,34h1v1h-1z M76,34h1v1h-1z M77,34h1v1h-1z M80,34h1v1h-1z M85,34h1v1h-1z M86,34h1v1h-1z M87,34h1v1h-1z M89,34h1v1h-1z M95,34h1v1h-1z M96,34h1v1h-1z M98,34h1v1h-1z M99,34h1v1h-1z M100,34h1v1h-1z M102,34h1v1h-1z M103,34h1v1h-1z M104,34h1v1h-1z M107,34h1v1h-1z M5,35h1v1h-1z M6,35h1v1h-1z M7,35h1v1h-1z M8,35h1v1h-1z M11,35h1v1h-1z M13,35h1v1h-1z M17,35h1v1h-1z M18,35h1v1h-1z M21,35h1v1h-1z M25,35h1v1h-1z M26,35h1v1h-1z M27,35h1v1h-1z M28,35h1v1h-1z M33,35h1v1h-1z M34,35h1v1h-1z M35,35h1v1h-1z M41,35h1v1h-1z M42,35h1v1h-1z M44,35h1v1h-1z M46,35h1v1h-1z M47,35h1v1h-1z M49,35h1v1h-1z M50,35h1v1h-1z M52,35h1v1h-1z M53,35h1v1h-1z M55,35h1v1h-1z M56,35h1v1h-1z M59,35h1v1h-1z M66,35h1v1h-1z M68,35h1v1h-1z M69,35h1v1h-1z M70,35h1v1h-1z M71,35h1v1h-1z M74,35h1v1h-1z M75,35h1v1h-1z M76,35h1v1h-1z M77,35h1v1h-1z M79,35h1v1h-1z M80,35h1v1h-1z M81,35h1v1h-1z M82,35h1v1h-1z M83,35h1v1h-1z M89,35h1v1h-1z M92,35h1v1h-1z M93,35h1v1h-1z M95,35h1v1h-1z M98,35h1v1h-1z M99,35h1v1h-1z M100,35h1v1h-1z M104,35h1v1h-1z M105,35h1v1h-1z M108,35h1v1h-1z M4,36h1v1h-1z M9,36h1v1h-1z M10,36h1v1h-1z M11,36h1v1h-1z M15,36h1v1h-1z M16,36h1v1h-1z M22,36h1v1h-1z M23,36h1v1h-1z M24,36h1v1h-1z M28,36h1v1h-1z M29,36h1v1h-1z M33,36h1v1h-1z M35,36h1v1h-1z M37,36h1v1h-1z M38,36h1v1h-1z M41,36h1v1h-1z M43,36h1v1h-1z M44,36h1v1h-1z M46,36h1v1h-1z M47,36h1v1h-1z M49,36h1v1h-1z M54,36h1v1h-1z M55,36h1v1h-1z M58,36h1v1h-1z M59,36h1v1h-1z M60,36h1v1h-1z M61,36h1v1h-1z M63,36h1v1h-1z M64,36h1v1h-1z M65,36h1v1h-1z M66,36h1v1h-1z M70,36h1v1h-1z M71,36h1v1h-1z M72,36h1v1h-1z M73,36h1v1h-1z M76,36h1v1h-1z M77,36h1v1h-1z M78,36h1v1h-1z M79,36h1v1h-1z M81,36h1v1h-1z M82,36h1v1h-1z M83,36h1v1h-1z M84,36h1v1h-1z M86,36h1v1h-1z M87,36h1v1h-1z M88,36h1v1h-1z M89,36h1v1h-1z M90,36h1v1h-1z M93,36h1v1h-1z M94,36h1v1h-1z M96,36h1v1h-1z M98,36h1v1h-1z M99,36h1v1h-1z M101,36h1v1h-1z M102,36h1v1h-1z M105,36h1v1h-1z M107,36h1v1h-1z M6,37h1v1h-1z M8,37h1v1h-1z M9,37h1v1h-1z M13,37h1v1h-1z M16,37h1v1h-1z M17,37h1v1h-1z M19,37h1v1h-1z M20,37h1v1h-1z M21,37h1v1h-1z M23,37h1v1h-1z M24,37h1v1h-1z M26,37h1v1h-1z M27,37h1v1h-1z M28,37h1v1h-1z M30,37h1v1h-1z M32,37h1v1h-1z M36,37h1v1h-1z M37,37h1v1h-1z M38,37h1v1h-1z M40,37h1v1h-1z M42,37h1v1h-1z M45,37h1v1h-1z M47,37h1v1h-1z M48,37h1v1h-1z M51,37h1v1h-1z M52,37h1v1h-1z M54,37h1v1h-1z M55,37h1v1h-1z M56,37h1v1h-1z M57,37h1v1h-1z M63,37h1v1h-1z M64,37h1v1h-1z M66,37h1v1h-1z M68,37h1v1h-1z M74,37h1v1h-1z M78,37h1v1h-1z M79,37h1v1h-1z M84,37h1v1h-1z M88,37h1v1h-1z M90,37h1v1h-1z M91,37h1v1h-1z M96,37h1v1h-1z M97,37h1v1h-1z M99,37h1v1h-1z M104,37h1v1h-1z M107,37h1v1h-1z M108,37h1v1h-1z M7,38h1v1h-1z M9,38h1v1h-1z M10,38h1v1h-1z M17,38h1v1h-1z M18,38h1v1h-1z M20,38h1v1h-1z M21,38h1v1h-1z M24,38h1v1h-1z M25,38h1v1h-1z M26,38h1v1h-1z M27,38h1v1h-1z M29,38h1v1h-1z M32,38h1v1h-1z M35,38h1v1h-1z M36,38h1v1h-1z M38,38h1v1h-1z M39,38h1v1h-1z M40,38h1v1h-1z M41,38h1v1h-1z M43,38h1v1h-1z M45,38h1v1h-1z M49,38h1v1h-1z M50,38h1v1h-1z M51,38h1v1h-1z M52,38h1v1h-1z M54,38h1v1h-1z M55,38h1v1h-1z M62,38h1v1h-1z M63,38h1v1h-1z M67,38h1v1h-1z M71,38h1v1h-1z M72,38h1v1h-1z M74,38h1v1h-1z M77,38h1v1h-1z M83,38h1v1h-1z M86,38h1v1h-1z M89,38h1v1h-1z M93,38h1v1h-1z M96,38h1v1h-1z M97,38h1v1h-1z M98,38h1v1h-1z M102,38h1v1h-1z M105,38h1v1h-1z M107,38h1v1h-1z M5,39h1v1h-1z M8,39h1v1h-1z M15,39h1v1h-1z M17,39h1v1h-1z M20,39h1v1h-1z M21,39h1v1h-1z M22,39h1v1h-1z M23,39h1v1h-1z M28,39h1v1h-1z M29,39h1v1h-1z M32,39h1v1h-1z M33,39h1v1h-1z M34,39h1v1h-1z M38,39h1v1h-1z M42,39h1v1h-1z M44,39h1v1h-1z M45,39h1v1h-1z M46,39h1v1h-1z M47,39h1v1h-1z M53,39h1v1h-1z M56,39h1v1h-1z M59,39h1v1h-1z M61,39h1v1h-1z M62,39h1v1h-1z M65,39h1v1h-1z M66,39h1v1h-1z M68,39h1v1h-1z M71,39h1v1h-1z M75,39h1v1h-1z M76,39h1v1h-1z M77,39h1v1h-1z M79,39h1v1h-1z M80,39h1v1h-1z M83,39h1v1h-1z M86,39h1v1h-1z M89,39h1v1h-1z M91,39h1v1h-1z M92,39h1v1h-1z M94,39h1v1h-1z M95,39h1v1h-1z M99,39h1v1h-1z M103,39h1v1h-1z M104,39h1v1h-1z M108,39h1v1h-1z M5,40h1v1h-1z M7,40h1v1h-1z M10,40h1v1h-1z M13,40h1v1h-1z M15,40h1v1h-1z M16,40h1v1h-1z M17,40h1v1h-1z M18,40h1v1h-1z M19,40h1v1h-1z M20,40h1v1h-1z M22,40h1v1h-1z M25,40h1v1h-1z M28,40h1v1h-1z M30,40h1v1h-1z M31,40h1v1h-1z M33,40h1v1h-1z M34,40h1v1h-1z M35,40h1v1h-1z M41,40h1v1h-1z M46,40h1v1h-1z M47,40h1v1h-1z M48,40h1v1h-1z M49,40h1v1h-1z M52,40h1v1h-1z M55,40h1v1h-1z M58,40h1v1h-1z M61,40h1v1h-1z M66,40h1v1h-1z M68,40h1v1h-1z M70,40h1v1h-1z M71,40h1v1h-1z M74,40h1v1h-1z M78,40h1v1h-1z M79,40h1v1h-1z M86,40h1v1h-1z M93,40h1v1h-1z M94,40h1v1h-1z M97,40h1v1h-1z M99,40h1v1h-1z M102,40h1v1h-1z M106,40h1v1h-1z M4,41h1v1h-1z M5,41h1v1h-1z M8,41h1v1h-1z M17,41h1v1h-1z M18,41h1v1h-1z M20,41h1v1h-1z M22,41h1v1h-1z M23,41h1v1h-1z M25,41h1v1h-1z M28,41h1v1h-1z M29,41h1v1h-1z M30,41h1v1h-1z M31,41h1v1h-1z M32,41h1v1h-1z M33,41h1v1h-1z M34,41h1v1h-1z M36,41h1v1h-1z M40,41h1v1h-1z M41,41h1v1h-1z M42,41h1v1h-1z M43,41h1v1h-1z M44,41h1v1h-1z M48,41h1v1h-1z M52,41h1v1h-1z M53,41h1v1h-1z M55,41h1v1h-1z M60,41h1v1h-1z M61,41h1v1h-1z M62,41h1v1h-1z M63,41h1v1h-1z M65,41h1v1h-1z M66,41h1v1h-1z M67,41h1v1h-1z M68,41h1v1h-1z M69,41h1v1h-1z M70,41h1v1h-1z M72,41h1v1h-1z M75,41h1v1h-1z M76,41h1v1h-1z M77,41h1v1h-1z M80,41h1v1h-1z M81,41h1v1h-1z M82,41h1v1h-1z M84,41h1v1h-1z M87,41h1v1h-1z M89,41h1v1h-1z M91,41h1v1h-1z M92,41h1v1h-1z M93,41h1v1h-1z M94,41h1v1h-1z M95,41h1v1h-1z M101,41h1v1h-1z M4,42h1v1h-1z M5,42h1v1h-1z M7,42h1v1h-1z M9,42h1v1h-1z M10,42h1v1h-1z M11,42h1v1h-1z M13,42h1v1h-1z M16,42h1v1h-1z M17,42h1v1h-1z M18,42h1v1h-1z M21,42h1v1h-1z M22,42h1v1h-1z M24,42h1v1h-1z M26,42h1v1h-1z M29,42h1v1h-1z M31,42h1v1h-1z M32,42h1v1h-1z M36,42h1v1h-1z M38,42h1v1h-1z M41,42h1v1h-1z M45,42h1v1h-1z M47,42h1v1h-1z M48,42h1v1h-1z M50,42h1v1h-1z M51,42h1v1h-1z M53,42h1v1h-1z M55,42h1v1h-1z M56,42h1v1h-1z M60,42h1v1h-1z M62,42h1v1h-1z M63,42h1v1h-1z M64,42h1v1h-1z M65,42h1v1h-1z M74,42h1v1h-1z M77,42h1v1h-1z M79,42h1v1h-1z M80,42h1v1h-1z M83,42h1v1h-1z M84,42h1v1h-1z M86,42h1v1h-1z M87,42h1v1h-1z M89,42h1v1h-1z M91,42h1v1h-1z M95,42h1v1h-1z M96,42h1v1h-1z M98,42h1v1h-1z M100,42h1v1h-1z M101,42h1v1h-1z M103,42h1v1h-1z M107,42h1v1h-1z M4,43h1v1h-1z M12,43h1v1h-1z M15,43h1v1h-1z M17,43h1v1h-1z M18,43h1v1h-1z M19,43h1v1h-1z M20,43h1v1h-1z M21,43h1v1h-1z M23,43h1v1h-1z M29,43h1v1h-1z M31,43h1v1h-1z M33,43h1v1h-1z M35,43h1v1h-1z M37,43h1v1h-1z M38,43h1v1h-1z M42,43h1v1h-1z M43,43h1v1h-1z M44,43h1v1h-1z M45,43h1v1h-1z M46,43h1v1h-1z M47,43h1v1h-1z M49,43h1v1h-1z M52,43h1v1h-1z M53,43h1v1h-1z M58,43h1v1h-1z M59,43h1v1h-1z M62,43h1v1h-1z M63,43h1v1h-1z M65,43h1v1h-1z M66,43h1v1h-1z M68,43h1v1h-1z M69,43h1v1h-1z M71,43h1v1h-1z M73,43h1v1h-1z M74,43h1v1h-1z M76,43h1v1h-1z M77,43h1v1h-1z M80,43h1v1h-1z M82,43h1v1h-1z M83,43h1v1h-1z M85,43h1v1h-1z M86,43h1v1h-1z M90,43h1v1h-1z M92,43h1v1h-1z M97,43h1v1h-1z M99,43h1v1h-1z M100,43h1v1h-1z M101,43h1v1h-1z M104,43h1v1h-1z M107,43h1v1h-1z M108,43h1v1h-1z M5,44h1v1h-1z M7,44h1v1h-1z M8,44h1v1h-1z M9,44h1v1h-1z M10,44h1v1h-1z M11,44h1v1h-1z M12,44h1v1h-1z M13,44h1v1h-1z M14,44h1v1h-1z M15,44h1v1h-1z M18,44h1v1h-1z M20,44h1v1h-1z M21,44h1v1h-1z M22,44h1v1h-1z M23,44h1v1h-1z M26,44h1v1h-1z M27,44h1v1h-1z M29,44h1v1h-1z M31,44h1v1h-1z M34,44h1v1h-1z M36,44h1v1h-1z M37,44h1v1h-1z M38,44h1v1h-1z M39,44h1v1h-1z M40,44h1v1h-1z M41,44h1v1h-1z M44,44h1v1h-1z M46,44h1v1h-1z M48,44h1v1h-1z M53,44h1v1h-1z M55,44h1v1h-1z M57,44h1v1h-1z M58,44h1v1h-1z M59,44h1v1h-1z M60,44h1v1h-1z M62,44h1v1h-1z M65,44h1v1h-1z M69,44h1v1h-1z M70,44h1v1h-1z M72,44h1v1h-1z M77,44h1v1h-1z M79,44h1v1h-1z M85,44h1v1h-1z M88,44h1v1h-1z M90,44h1v1h-1z M91,44h1v1h-1z M92,44h1v1h-1z M93,44h1v1h-1z M97,44h1v1h-1z M99,44h1v1h-1z M100,44h1v1h-1z M101,44h1v1h-1z M102,44h1v1h-1z M103,44h1v1h-1z M104,44h1v1h-1z M5,45h1v1h-1z M6,45h1v1h-1z M7,45h1v1h-1z M11,45h1v1h-1z M14,45h1v1h-1z M18,45h1v1h-1z M19,45h1v1h-1z M20,45h1v1h-1z M21,45h1v1h-1z M24,45h1v1h-1z M26,45h1v1h-1z M28,45h1v1h-1z M29,45h1v1h-1z M30,45h1v1h-1z M33,45h1v1h-1z M34,45h1v1h-1z M36,45h1v1h-1z M38,45h1v1h-1z M41,45h1v1h-1z M47,45h1v1h-1z M49,45h1v1h-1z M52,45h1v1h-1z M53,45h1v1h-1z M55,45h1v1h-1z M59,45h1v1h-1z M61,45h1v1h-1z M64,45h1v1h-1z M65,45h1v1h-1z M66,45h1v1h-1z M68,45h1v1h-1z M70,45h1v1h-1z M72,45h1v1h-1z M74,45h1v1h-1z M76,45h1v1h-1z M78,45h1v1h-1z M79,45h1v1h-1z M81,45h1v1h-1z M83,45h1v1h-1z M84,45h1v1h-1z M87,45h1v1h-1z M88,45h1v1h-1z M89,45h1v1h-1z M90,45h1v1h-1z M92,45h1v1h-1z M97,45h1v1h-1z M101,45h1v1h-1z M103,45h1v1h-1z M105,45h1v1h-1z M106,45h1v1h-1z M108,45h1v1h-1z M6,46h1v1h-1z M7,46h1v1h-1z M10,46h1v1h-1z M11,46h1v1h-1z M13,46h1v1h-1z M14,46h1v1h-1z M17,46h1v1h-1z M21,46h1v1h-1z M23,46h1v1h-1z M25,46h1v1h-1z M26,46h1v1h-1z M27,46h1v1h-1z M29,46h1v1h-1z M30,46h1v1h-1z M31,46h1v1h-1z M32,46h1v1h-1z M38,46h1v1h-1z M39,46h1v1h-1z M40,46h1v1h-1z M41,46h1v1h-1z M43,46h1v1h-1z M44,46h1v1h-1z M50,46h1v1h-1z M52,46h1v1h-1z M53,46h1v1h-1z M54,46h1v1h-1z M55,46h1v1h-1z M56,46h1v1h-1z M59,46h1v1h-1z M60,46h1v1h-1z M62,46h1v1h-1z M64,46h1v1h-1z M65,46h1v1h-1z M68,46h1v1h-1z M71,46h1v1h-1z M72,46h1v1h-1z M74,46h1v1h-1z M76,46h1v1h-1z M78,46h1v1h-1z M86,46h1v1h-1z M87,46h1v1h-1z M88,46h1v1h-1z M89,46h1v1h-1z M91,46h1v1h-1z M92,46h1v1h-1z M96,46h1v1h-1z M98,46h1v1h-1z M100,46h1v1h-1z M101,46h1v1h-1z M103,46h1v1h-1z M105,46h1v1h-1z M107,46h1v1h-1z M4,47h1v1h-1z M5,47h1v1h-1z M6,47h1v1h-1z M7,47h1v1h-1z M11,47h1v1h-1z M12,47h1v1h-1z M17,47h1v1h-1z M18,47h1v1h-1z M19,47h1v1h-1z M27,47h1v1h-1z M28,47h1v1h-1z M29,47h1v1h-1z M31,47h1v1h-1z M32,47h1v1h-1z M33,47h1v1h-1z M35,47h1v1h-1z M37,47h1v1h-1z M38,47h1v1h-1z M42,47h1v1h-1z M44,47h1v1h-1z M47,47h1v1h-1z M49,47h1v1h-1z M51,47h1v1h-1z M52,47h1v1h-1z M53,47h1v1h-1z M55,47h1v1h-1z M57,47h1v1h-1z M59,47h1v1h-1z M61,47h1v1h-1z M65,47h1v1h-1z M68,47h1v1h-1z M71,47h1v1h-1z M75,47h1v1h-1z M76,47h1v1h-1z M77,47h1v1h-1z M81,47h1v1h-1z M83,47h1v1h-1z M85,47h1v1h-1z M87,47h1v1h-1z M89,47h1v1h-1z M92,47h1v1h-1z M94,47h1v1h-1z M95,47h1v1h-1z M97,47h1v1h-1z M98,47h1v1h-1z M99,47h1v1h-1z M100,47h1v1h-1z M104,47h1v1h-1z M107,47h1v1h-1z M5,48h1v1h-1z M8,48h1v1h-1z M10,48h1v1h-1z M13,48h1v1h-1z M14,48h1v1h-1z M19,48h1v1h-1z M21,48h1v1h-1z M22,48h1v1h-1z M24,48h1v1h-1z M25,48h1v1h-1z M26,48h1v1h-1z M30,48h1v1h-1z M31,48h1v1h-1z M35,48h1v1h-1z M36,48h1v1h-1z M37,48h1v1h-1z M39,48h1v1h-1z M44,48h1v1h-1z M46,48h1v1h-1z M52,48h1v1h-1z M59,48h1v1h-1z M60,48h1v1h-1z M62,48h1v1h-1z M63,48h1v1h-1z M64,48h1v1h-1z M65,48h1v1h-1z M66,48h1v1h-1z M67,48h1v1h-1z M69,48h1v1h-1z M70,48h1v1h-1z M71,48h1v1h-1z M72,48h1v1h-1z M73,48h1v1h-1z M74,48h1v1h-1z M76,48h1v1h-1z M78,48h1v1h-1z M81,48h1v1h-1z M82,48h1v1h-1z M83,48h1v1h-1z M84,48h1v1h-1z M85,48h1v1h-1z M89,48h1v1h-1z M92,48h1v1h-1z M93,48h1v1h-1z M94,48h1v1h-1z M99,48h1v1h-1z M101,48h1v1h-1z M102,48h1v1h-1z M103,48h1v1h-1z M104,48h1v1h-1z M108,48h1v1h-1z M9,49h1v1h-1z M13,49h1v1h-1z M14,49h1v1h-1z M15,49h1v1h-1z M17,49h1v1h-1z M18,49h1v1h-1z M19,49h1v1h-1z M20,49h1v1h-1z M25,49h1v1h-1z M28,49h1v1h-1z M30,49h1v1h-1z M31,49h1v1h-1z M32,49h1v1h-1z M34,49h1v1h-1z M36,49h1v1h-1z M37,49h1v1h-1z M38,49h1v1h-1z M44,49h1v1h-1z M46,49h1v1h-1z M47,49h1v1h-1z M49,49h1v1h-1z M51,49h1v1h-1z M52,49h1v1h-1z M58,49h1v1h-1z M59,49h1v1h-1z M64,49h1v1h-1z M65,49h1v1h-1z M66,49h1v1h-1z M68,49h1v1h-1z M71,49h1v1h-1z M73,49h1v1h-1z M75,49h1v1h-1z M76,49h1v1h-1z M77,49h1v1h-1z M78,49h1v1h-1z M80,49h1v1h-1z M81,49h1v1h-1z M83,49h1v1h-1z M84,49h1v1h-1z M85,49h1v1h-1z M86,49h1v1h-1z M88,49h1v1h-1z M89,49h1v1h-1z M91,49h1v1h-1z M93,49h1v1h-1z M94,49h1v1h-1z M96,49h1v1h-1z M97,49h1v1h-1z M104,49h1v1h-1z M105,49h1v1h-1z M106,49h1v1h-1z M5,50h1v1h-1z M8,50h1v1h-1z M9,50h1v1h-1z M10,50h1v1h-1z M12,50h1v1h-1z M14,50h1v1h-1z M16,50h1v1h-1z M19,50h1v1h-1z M22,50h1v1h-1z M27,50h1v1h-1z M28,50h1v1h-1z M29,50h1v1h-1z M32,50h1v1h-1z M35,50h1v1h-1z M36,50h1v1h-1z M38,50h1v1h-1z M40,50h1v1h-1z M41,50h1v1h-1z M45,50h1v1h-1z M47,50h1v1h-1z M50,50h1v1h-1z M52,50h1v1h-1z M53,50h1v1h-1z M54,50h1v1h-1z M59,50h1v1h-1z M60,50h1v1h-1z M62,50h1v1h-1z M68,50h1v1h-1z M71,50h1v1h-1z M74,50h1v1h-1z M78,50h1v1h-1z M79,50h1v1h-1z M80,50h1v1h-1z M81,50h1v1h-1z M84,50h1v1h-1z M86,50h1v1h-1z M88,50h1v1h-1z M89,50h1v1h-1z M96,50h1v1h-1z M98,50h1v1h-1z M99,50h1v1h-1z M100,50h1v1h-1z M101,50h1v1h-1z M107,50h1v1h-1z M4,51h1v1h-1z M5,51h1v1h-1z M11,51h1v1h-1z M12,51h1v1h-1z M13,51h1v1h-1z M16,51h1v1h-1z M17,51h1v1h-1z M19,51h1v1h-1z M24,51h1v1h-1z M32,51h1v1h-1z M34,51h1v1h-1z M38,51h1v1h-1z M39,51h1v1h-1z M44,51h1v1h-1z M45,51h1v1h-1z M46,51h1v1h-1z M47,51h1v1h-1z M49,51h1v1h-1z M50,51h1v1h-1z M51,51h1v1h-1z M52,51h1v1h-1z M53,51h1v1h-1z M58,51h1v1h-1z M61,51h1v1h-1z M65,51h1v1h-1z M66,51h1v1h-1z M68,51h1v1h-1z M69,51h1v1h-1z M71,51h1v1h-1z M73,51h1v1h-1z M75,51h1v1h-1z M76,51h1v1h-1z M77,51h1v1h-1z M79,51h1v1h-1z M82,51h1v1h-1z M83,51h1v1h-1z M86,51h1v1h-1z M90,51h1v1h-1z M91,51h1v1h-1z M92,51h1v1h-1z M93,51h1v1h-1z M95,51h1v1h-1z M97,51h1v1h-1z M99,51h1v1h-1z M100,51h1v1h-1z M103,51h1v1h-1z M104,51h1v1h-1z M108,51h1v1h-1z M7,52h1v1h-1z M8,52h1v1h-1z M9,52h1v1h-1z M10,52h1v1h-1z M11,52h1v1h-1z M12,52h1v1h-1z M13,52h1v1h-1z M16,52h1v1h-1z M19,52h1v1h-1z M20,52h1v1h-1z M22,52h1v1h-1z M25,52h1v1h-1z M26,52h1v1h-1z M28,52h1v1h-1z M29,52h1v1h-1z M30,52h1v1h-1z M31,52h1v1h-1z M32,52h1v1h-1z M34,52h1v1h-1z M35,52h1v1h-1z M36,52h1v1h-1z M37,52h1v1h-1z M40,52h1v1h-1z M42,52h1v1h-1z M44,52h1v1h-1z M47,52h1v1h-1z M52,52h1v1h-1z M53,52h1v1h-1z M54,52h1v1h-1z M55,52h1v1h-1z M56,52h1v1h-1z M58,52h1v1h-1z M63,52h1v1h-1z M64,52h1v1h-1z M66,52h1v1h-1z M68,52h1v1h-1z M69,52h1v1h-1z M70,52h1v1h-1z M74,52h1v1h-1z M76,52h1v1h-1z M77,52h1v1h-1z M78,52h1v1h-1z M79,52h1v1h-1z M80,52h1v1h-1z M81,52h1v1h-1z M82,52h1v1h-1z M83,52h1v1h-1z M86,52h1v1h-1z M87,52h1v1h-1z M89,52h1v1h-1z M90,52h1v1h-1z M91,52h1v1h-1z M94,52h1v1h-1z M97,52h1v1h-1z M100,52h1v1h-1z M101,52h1v1h-1z M102,52h1v1h-1z M103,52h1v1h-1z M104,52h1v1h-1z M105,52h1v1h-1z M106,52h1v1h-1z M107,52h1v1h-1z M108,52h1v1h-1z M8,53h1v1h-1z M12,53h1v1h-1z M13,53h1v1h-1z M17,53h1v1h-1z M18,53h1v1h-1z M20,53h1v1h-1z M23,53h1v1h-1z M26,53h1v1h-1z M28,53h1v1h-1z M32,53h1v1h-1z M35,53h1v1h-1z M36,53h1v1h-1z M38,53h1v1h-1z M40,53h1v1h-1z M43,53h1v1h-1z M44,53h1v1h-1z M46,53h1v1h-1z M47,53h1v1h-1z M48,53h1v1h-1z M49,53h1v1h-1z M52,53h1v1h-1z M56,53h1v1h-1z M57,53h1v1h-1z M60,53h1v1h-1z M61,53h1v1h-1z M64,53h1v1h-1z M65,53h1v1h-1z M67,53h1v1h-1z M70,53h1v1h-1z M71,53h1v1h-1z M73,53h1v1h-1z M76,53h1v1h-1z M80,53h1v1h-1z M82,53h1v1h-1z M85,53h1v1h-1z M87,53h1v1h-1z M89,53h1v1h-1z M90,53h1v1h-1z M93,53h1v1h-1z M94,53h1v1h-1z M96,53h1v1h-1z M97,53h1v1h-1z M98,53h1v1h-1z M99,53h1v1h-1z M100,53h1v1h-1z M104,53h1v1h-1z M108,53h1v1h-1z M7,54h1v1h-1z M8,54h1v1h-1z M10,54h1v1h-1z M12,54h1v1h-1z M14,54h1v1h-1z M15,54h1v1h-1z M22,54h1v1h-1z M24,54h1v1h-1z M26,54h1v1h-1z M27,54h1v1h-1z M28,54h1v1h-1z M30,54h1v1h-1z M32,54h1v1h-1z M33,54h1v1h-1z M37,54h1v1h-1z M38,54h1v1h-1z M41,54h1v1h-1z M44,54h1v1h-1z M45,54h1v1h-1z M48,54h1v1h-1z M50,54h1v1h-1z M52,54h1v1h-1z M54,54h1v1h-1z M56,54h1v1h-1z M59,54h1v1h-1z M62,54h1v1h-1z M71,54h1v1h-1z M74,54h1v1h-1z M76,54h1v1h-1z M78,54h1v1h-1z M80,54h1v1h-1z M83,54h1v1h-1z M84,54h1v1h-1z M85,54h1v1h-1z M86,54h1v1h-1z M88,54h1v1h-1z M89,54h1v1h-1z M91,54h1v1h-1z M95,54h1v1h-1z M98,54h1v1h-1z M99,54h1v1h-1z M100,54h1v1h-1z M102,54h1v1h-1z M104,54h1v1h-1z M107,54h1v1h-1z M4,55h1v1h-1z M8,55h1v1h-1z M12,55h1v1h-1z M15,55h1v1h-1z M19,55h1v1h-1z M23,55h1v1h-1z M25,55h1v1h-1z M26,55h1v1h-1z M27,55h1v1h-1z M28,55h1v1h-1z M32,55h1v1h-1z M33,55h1v1h-1z M34,55h1v1h-1z M35,55h1v1h-1z M41,55h1v1h-1z M44,55h1v1h-1z M46,55h1v1h-1z M47,55h1v1h-1z M50,55h1v1h-1z M52,55h1v1h-1z M56,55h1v1h-1z M57,55h1v1h-1z M59,55h1v1h-1z M62,55h1v1h-1z M65,55h1v1h-1z M66,55h1v1h-1z M67,55h1v1h-1z M68,55h1v1h-1z M70,55h1v1h-1z M71,55h1v1h-1z M73,55h1v1h-1z M75,55h1v1h-1z M76,55h1v1h-1z M80,55h1v1h-1z M82,55h1v1h-1z M87,55h1v1h-1z M92,55h1v1h-1z M94,55h1v1h-1z M95,55h1v1h-1z M97,55h1v1h-1z M98,55h1v1h-1z M100,55h1v1h-1z M104,55h1v1h-1z M107,55h1v1h-1z M108,55h1v1h-1z M5,56h1v1h-1z M7,56h1v1h-1z M8,56h1v1h-1z M9,56h1v1h-1z M10,56h1v1h-1z M11,56h1v1h-1z M12,56h1v1h-1z M13,56h1v1h-1z M14,56h1v1h-1z M17,56h1v1h-1z M18,56h1v1h-1z M20,56h1v1h-1z M21,56h1v1h-1z M24,56h1v1h-1z M25,56h1v1h-1z M26,56h1v1h-1z M27,56h1v1h-1z M28,56h1v1h-1z M29,56h1v1h-1z M30,56h1v1h-1z M31,56h1v1h-1z M32,56h1v1h-1z M36,56h1v1h-1z M38,56h1v1h-1z M39,56h1v1h-1z M42,56h1v1h-1z M43,56h1v1h-1z M44,56h1v1h-1z M45,56h1v1h-1z M46,56h1v1h-1z M47,56h1v1h-1z M49,56h1v1h-1z M50,56h1v1h-1z M52,56h1v1h-1z M53,56h1v1h-1z M54,56h1v1h-1z M55,56h1v1h-1z M56,56h1v1h-1z M58,56h1v1h-1z M61,56h1v1h-1z M62,56h1v1h-1z M68,56h1v1h-1z M71,56h1v1h-1z M72,56h1v1h-1z M76,56h1v1h-1z M77,56h1v1h-1z M78,56h1v1h-1z M79,56h1v1h-1z M80,56h1v1h-1z M83,56h1v1h-1z M85,56h1v1h-1z M87,56h1v1h-1z M91,56h1v1h-1z M98,56h1v1h-1z M99,56h1v1h-1z M100,56h1v1h-1z M101,56h1v1h-1z M102,56h1v1h-1z M103,56h1v1h-1z M104,56h1v1h-1z M4,57h1v1h-1z M7,57h1v1h-1z M13,57h1v1h-1z M14,57h1v1h-1z M15,57h1v1h-1z M16,57h1v1h-1z M17,57h1v1h-1z M23,57h1v1h-1z M24,57h1v1h-1z M26,57h1v1h-1z M27,57h1v1h-1z M31,57h1v1h-1z M33,57h1v1h-1z M35,57h1v1h-1z M36,57h1v1h-1z M37,57h1v1h-1z M38,57h1v1h-1z M40,57h1v1h-1z M41,57h1v1h-1z M42,57h1v1h-1z M44,57h1v1h-1z M45,57h1v1h-1z M49,57h1v1h-1z M50,57h1v1h-1z M51,57h1v1h-1z M54,57h1v1h-1z M59,57h1v1h-1z M60,57h1v1h-1z M61,57h1v1h-1z M63,57h1v1h-1z M64,57h1v1h-1z M67,57h1v1h-1z M69,57h1v1h-1z M70,57h1v1h-1z M71,57h1v1h-1z M73,57h1v1h-1z M74,57h1v1h-1z M75,57h1v1h-1z M77,57h1v1h-1z M79,57h1v1h-1z M81,57h1v1h-1z M82,57h1v1h-1z M83,57h1v1h-1z M84,57h1v1h-1z M85,57h1v1h-1z M86,57h1v1h-1z M88,57h1v1h-1z M95,57h1v1h-1z M96,57h1v1h-1z M97,57h1v1h-1z M98,57h1v1h-1z M99,57h1v1h-1z M100,57h1v1h-1z M102,57h1v1h-1z M104,57h1v1h-1z M106,57h1v1h-1z M107,57h1v1h-1z M108,57h1v1h-1z M7,58h1v1h-1z M9,58h1v1h-1z M10,58h1v1h-1z M12,58h1v1h-1z M13,58h1v1h-1z M14,58h1v1h-1z M18,58h1v1h-1z M23,58h1v1h-1z M26,58h1v1h-1z M31,58h1v1h-1z M38,58h1v1h-1z M40,58h1v1h-1z M48,58h1v1h-1z M50,58h1v1h-1z M51,58h1v1h-1z M53,58h1v1h-1z M54,58h1v1h-1z M56,58h1v1h-1z M60,58h1v1h-1z M61,58h1v1h-1z M62,58h1v1h-1z M63,58h1v1h-1z M64,58h1v1h-1z M65,58h1v1h-1z M71,58h1v1h-1z M72,58h1v1h-1z M74,58h1v1h-1z M77,58h1v1h-1z M78,58h1v1h-1z M80,58h1v1h-1z M86,58h1v1h-1z M87,58h1v1h-1z M98,58h1v1h-1z M99,58h1v1h-1z M100,58h1v1h-1z M101,58h1v1h-1z M103,58h1v1h-1z M107,58h1v1h-1z M5,59h1v1h-1z M7,59h1v1h-1z M8,59h1v1h-1z M11,59h1v1h-1z M12,59h1v1h-1z M13,59h1v1h-1z M16,59h1v1h-1z M17,59h1v1h-1z M18,59h1v1h-1z M19,59h1v1h-1z M21,59h1v1h-1z M26,59h1v1h-1z M28,59h1v1h-1z M29,59h1v1h-1z M30,59h1v1h-1z M31,59h1v1h-1z M32,59h1v1h-1z M34,59h1v1h-1z M35,59h1v1h-1z M37,59h1v1h-1z M38,59h1v1h-1z M39,59h1v1h-1z M41,59h1v1h-1z M42,59h1v1h-1z M44,59h1v1h-1z M45,59h1v1h-1z M47,59h1v1h-1z M50,59h1v1h-1z M52,59h1v1h-1z M53,59h1v1h-1z M55,59h1v1h-1z M57,59h1v1h-1z M58,59h1v1h-1z M59,59h1v1h-1z M66,59h1v1h-1z M67,59h1v1h-1z M68,59h1v1h-1z M69,59h1v1h-1z M71,59h1v1h-1z M73,59h1v1h-1z M74,59h1v1h-1z M75,59h1v1h-1z M78,59h1v1h-1z M79,59h1v1h-1z M83,59h1v1h-1z M86,59h1v1h-1z M89,59h1v1h-1z M90,59h1v1h-1z M91,59h1v1h-1z M92,59h1v1h-1z M94,59h1v1h-1z M95,59h1v1h-1z M98,59h1v1h-1z M99,59h1v1h-1z M101,59h1v1h-1z M102,59h1v1h-1z M104,59h1v1h-1z M108,59h1v1h-1z M4,60h1v1h-1z M6,60h1v1h-1z M7,60h1v1h-1z M8,60h1v1h-1z M10,60h1v1h-1z M11,60h1v1h-1z M12,60h1v1h-1z M13,60h1v1h-1z M22,60h1v1h-1z M23,60h1v1h-1z M26,60h1v1h-1z M30,60h1v1h-1z M31,60h1v1h-1z M35,60h1v1h-1z M36,60h1v1h-1z M40,60h1v1h-1z M41,60h1v1h-1z M45,60h1v1h-1z M46,60h1v1h-1z M47,60h1v1h-1z M49,60h1v1h-1z M50,60h1v1h-1z M51,60h1v1h-1z M54,60h1v1h-1z M60,60h1v1h-1z M61,60h1v1h-1z M63,60h1v1h-1z M66,60h1v1h-1z M68,60h1v1h-1z M69,60h1v1h-1z M70,60h1v1h-1z M71,60h1v1h-1z M74,60h1v1h-1z M77,60h1v1h-1z M78,60h1v1h-1z M79,60h1v1h-1z M81,60h1v1h-1z M82,60h1v1h-1z M90,60h1v1h-1z M92,60h1v1h-1z M93,60h1v1h-1z M94,60h1v1h-1z M95,60h1v1h-1z M96,60h1v1h-1z M98,60h1v1h-1z M99,60h1v1h-1z M100,60h1v1h-1z M101,60h1v1h-1z M103,60h1v1h-1z M106,60h1v1h-1z M107,60h1v1h-1z M108,60h1v1h-1z M6,61h1v1h-1z M7,61h1v1h-1z M9,61h1v1h-1z M12,61h1v1h-1z M14,61h1v1h-1z M15,61h1v1h-1z M17,61h1v1h-1z M18,61h1v1h-1z M22,61h1v1h-1z M26,61h1v1h-1z M29,61h1v1h-1z M30,61h1v1h-1z M31,61h1v1h-1z M33,61h1v1h-1z M34,61h1v1h-1z M35,61h1v1h-1z M38,61h1v1h-1z M39,61h1v1h-1z M40,61h1v1h-1z M44,61h1v1h-1z M48,61h1v1h-1z M49,61h1v1h-1z M51,61h1v1h-1z M53,61h1v1h-1z M55,61h1v1h-1z M57,61h1v1h-1z M59,61h1v1h-1z M61,61h1v1h-1z M62,61h1v1h-1z M66,61h1v1h-1z M67,61h1v1h-1z M70,61h1v1h-1z M71,61h1v1h-1z M72,61h1v1h-1z M73,61h1v1h-1z M76,61h1v1h-1z M79,61h1v1h-1z M82,61h1v1h-1z M83,61h1v1h-1z M84,61h1v1h-1z M85,61h1v1h-1z M86,61h1v1h-1z M87,61h1v1h-1z M88,61h1v1h-1z M89,61h1v1h-1z M90,61h1v1h-1z M91,61h1v1h-1z M93,61h1v1h-1z M94,61h1v1h-1z M95,61h1v1h-1z M97,61h1v1h-1z M99,61h1v1h-1z M100,61h1v1h-1z M102,61h1v1h-1z M103,61h1v1h-1z M105,61h1v1h-1z M4,62h1v1h-1z M5,62h1v1h-1z M7,62h1v1h-1z M8,62h1v1h-1z M9,62h1v1h-1z M10,62h1v1h-1z M12,62h1v1h-1z M15,62h1v1h-1z M17,62h1v1h-1z M19,62h1v1h-1z M21,62h1v1h-1z M22,62h1v1h-1z M23,62h1v1h-1z M25,62h1v1h-1z M26,62h1v1h-1z M32,62h1v1h-1z M36,62h1v1h-1z M38,62h1v1h-1z M40,62h1v1h-1z M41,62h1v1h-1z M48,62h1v1h-1z M50,62h1v1h-1z M53,62h1v1h-1z M55,62h1v1h-1z M56,62h1v1h-1z M60,62h1v1h-1z M62,62h1v1h-1z M65,62h1v1h-1z M71,62h1v1h-1z M74,62h1v1h-1z M77,62h1v1h-1z M78,62h1v1h-1z M79,62h1v1h-1z M81,62h1v1h-1z M86,62h1v1h-1z M88,62h1v1h-1z M89,62h1v1h-1z M91,62h1v1h-1z M96,62h1v1h-1z M97,62h1v1h-1z M98,62h1v1h-1z M100,62h1v1h-1z M101,62h1v1h-1z M102,62h1v1h-1z M103,62h1v1h-1z M5,63h1v1h-1z M6,63h1v1h-1z M7,63h1v1h-1z M12,63h1v1h-1z M13,63h1v1h-1z M14,63h1v1h-1z M15,63h1v1h-1z M16,63h1v1h-1z M17,63h1v1h-1z M18,63h1v1h-1z M22,63h1v1h-1z M25,63h1v1h-1z M29,63h1v1h-1z M32,63h1v1h-1z M35,63h1v1h-1z M37,63h1v1h-1z M39,63h1v1h-1z M42,63h1v1h-1z M44,63h1v1h-1z M45,63h1v1h-1z M46,63h1v1h-1z M47,63h1v1h-1z M50,63h1v1h-1z M52,63h1v1h-1z M57,63h1v1h-1z M61,63h1v1h-1z M65,63h1v1h-1z M67,63h1v1h-1z M68,63h1v1h-1z M69,63h1v1h-1z M70,63h1v1h-1z M71,63h1v1h-1z M77,63h1v1h-1z M78,63h1v1h-1z M79,63h1v1h-1z M82,63h1v1h-1z M83,63h1v1h-1z M87,63h1v1h-1z M91,63h1v1h-1z M92,63h1v1h-1z M97,63h1v1h-1z M100,63h1v1h-1z M101,63h1v1h-1z M108,63h1v1h-1z M4,64h1v1h-1z M5,64h1v1h-1z M7,64h1v1h-1z M8,64h1v1h-1z M9,64h1v1h-1z M10,64h1v1h-1z M11,64h1v1h-1z M13,64h1v1h-1z M16,64h1v1h-1z M18,64h1v1h-1z M19,64h1v1h-1z M21,64h1v1h-1z M22,64h1v1h-1z M24,64h1v1h-1z M27,64h1v1h-1z M28,64h1v1h-1z M30,64h1v1h-1z M32,64h1v1h-1z M33,64h1v1h-1z M36,64h1v1h-1z M38,64h1v1h-1z M42,64h1v1h-1z M44,64h1v1h-1z M46,64h1v1h-1z M47,64h1v1h-1z M50,64h1v1h-1z M54,64h1v1h-1z M56,64h1v1h-1z M58,64h1v1h-1z M60,64h1v1h-1z M62,64h1v1h-1z M63,64h1v1h-1z M67,64h1v1h-1z M68,64h1v1h-1z M71,64h1v1h-1z M72,64h1v1h-1z M74,64h1v1h-1z M76,64h1v1h-1z M78,64h1v1h-1z M79,64h1v1h-1z M83,64h1v1h-1z M85,64h1v1h-1z M87,64h1v1h-1z M89,64h1v1h-1z M94,64h1v1h-1z M98,64h1v1h-1z M99,64h1v1h-1z M100,64h1v1h-1z M103,64h1v1h-1z M105,64h1v1h-1z M106,64h1v1h-1z M108,64h1v1h-1z M6,65h1v1h-1z M8,65h1v1h-1z M9,65h1v1h-1z M11,65h1v1h-1z M15,65h1v1h-1z M19,65h1v1h-1z M20,65h1v1h-1z M21,65h1v1h-1z M23,65h1v1h-1z M27,65h1v1h-1z M31,65h1v1h-1z M38,65h1v1h-1z M39,65h1v1h-1z M40,65h1v1h-1z M41,65h1v1h-1z M45,65h1v1h-1z M46,65h1v1h-1z M47,65h1v1h-1z M48,65h1v1h-1z M49,65h1v1h-1z M50,65h1v1h-1z M59,65h1v1h-1z M71,65h1v1h-1z M72,65h1v1h-1z M73,65h1v1h-1z M75,65h1v1h-1z M77,65h1v1h-1z M78,65h1v1h-1z M79,65h1v1h-1z M82,65h1v1h-1z M83,65h1v1h-1z M84,65h1v1h-1z M86,65h1v1h-1z M87,65h1v1h-1z M88,65h1v1h-1z M90,65h1v1h-1z M91,65h1v1h-1z M94,65h1v1h-1z M96,65h1v1h-1z M97,65h1v1h-1z M98,65h1v1h-1z M99,65h1v1h-1z M100,65h1v1h-1z M102,65h1v1h-1z M104,65h1v1h-1z M106,65h1v1h-1z M107,65h1v1h-1z M108,65h1v1h-1z M5,66h1v1h-1z M6,66h1v1h-1z M8,66h1v1h-1z M9,66h1v1h-1z M10,66h1v1h-1z M11,66h1v1h-1z M14,66h1v1h-1z M18,66h1v1h-1z M20,66h1v1h-1z M23,66h1v1h-1z M24,66h1v1h-1z M25,66h1v1h-1z M27,66h1v1h-1z M29,66h1v1h-1z M31,66h1v1h-1z M36,66h1v1h-1z M37,66h1v1h-1z M38,66h1v1h-1z M40,66h1v1h-1z M50,66h1v1h-1z M53,66h1v1h-1z M55,66h1v1h-1z M56,66h1v1h-1z M57,66h1v1h-1z M59,66h1v1h-1z M60,66h1v1h-1z M62,66h1v1h-1z M63,66h1v1h-1z M64,66h1v1h-1z M65,66h1v1h-1z M67,66h1v1h-1z M74,66h1v1h-1z M78,66h1v1h-1z M79,66h1v1h-1z M80,66h1v1h-1z M86,66h1v1h-1z M88,66h1v1h-1z M89,66h1v1h-1z M91,66h1v1h-1z M95,66h1v1h-1z M98,66h1v1h-1z M101,66h1v1h-1z M102,66h1v1h-1z M105,66h1v1h-1z M106,66h1v1h-1z M107,66h1v1h-1z M4,67h1v1h-1z M7,67h1v1h-1z M8,67h1v1h-1z M9,67h1v1h-1z M14,67h1v1h-1z M15,67h1v1h-1z M16,67h1v1h-1z M19,67h1v1h-1z M21,67h1v1h-1z M22,67h1v1h-1z M23,67h1v1h-1z M24,67h1v1h-1z M25,67h1v1h-1z M26,67h1v1h-1z M28,67h1v1h-1z M29,67h1v1h-1z M30,67h1v1h-1z M31,67h1v1h-1z M35,67h1v1h-1z M39,67h1v1h-1z M42,67h1v1h-1z M44,67h1v1h-1z M45,67h1v1h-1z M46,67h1v1h-1z M47,67h1v1h-1z M49,67h1v1h-1z M50,67h1v1h-1z M54,67h1v1h-1z M56,67h1v1h-1z M57,67h1v1h-1z M58,67h1v1h-1z M59,67h1v1h-1z M61,67h1v1h-1z M62,67h1v1h-1z M66,67h1v1h-1z M68,67h1v1h-1z M69,67h1v1h-1z M71,67h1v1h-1z M75,67h1v1h-1z M76,67h1v1h-1z M78,67h1v1h-1z M79,67h1v1h-1z M81,67h1v1h-1z M82,67h1v1h-1z M83,67h1v1h-1z M86,67h1v1h-1z M90,67h1v1h-1z M92,67h1v1h-1z M93,67h1v1h-1z M95,67h1v1h-1z M100,67h1v1h-1z M103,67h1v1h-1z M104,67h1v1h-1z M105,67h1v1h-1z M7,68h1v1h-1z M10,68h1v1h-1z M13,68h1v1h-1z M14,68h1v1h-1z M22,68h1v1h-1z M24,68h1v1h-1z M25,68h1v1h-1z M28,68h1v1h-1z M30,68h1v1h-1z M31,68h1v1h-1z M32,68h1v1h-1z M40,68h1v1h-1z M42,68h1v1h-1z M43,68h1v1h-1z M44,68h1v1h-1z M45,68h1v1h-1z M46,68h1v1h-1z M49,68h1v1h-1z M54,68h1v1h-1z M55,68h1v1h-1z M62,68h1v1h-1z M63,68h1v1h-1z M64,68h1v1h-1z M66,68h1v1h-1z M68,68h1v1h-1z M69,68h1v1h-1z M71,68h1v1h-1z M72,68h1v1h-1z M76,68h1v1h-1z M78,68h1v1h-1z M79,68h1v1h-1z M81,68h1v1h-1z M84,68h1v1h-1z M89,68h1v1h-1z M90,68h1v1h-1z M91,68h1v1h-1z M95,68h1v1h-1z M99,68h1v1h-1z M101,68h1v1h-1z M102,68h1v1h-1z M103,68h1v1h-1z M107,68h1v1h-1z M5,69h1v1h-1z M6,69h1v1h-1z M7,69h1v1h-1z M11,69h1v1h-1z M13,69h1v1h-1z M19,69h1v1h-1z M23,69h1v1h-1z M26,69h1v1h-1z M27,69h1v1h-1z M28,69h1v1h-1z M29,69h1v1h-1z M30,69h1v1h-1z M35,69h1v1h-1z M40,69h1v1h-1z M41,69h1v1h-1z M42,69h1v1h-1z M48,69h1v1h-1z M49,69h1v1h-1z M51,69h1v1h-1z M54,69h1v1h-1z M55,69h1v1h-1z M58,69h1v1h-1z M64,69h1v1h-1z M67,69h1v1h-1z M68,69h1v1h-1z M69,69h1v1h-1z M71,69h1v1h-1z M72,69h1v1h-1z M74,69h1v1h-1z M75,69h1v1h-1z M77,69h1v1h-1z M78,69h1v1h-1z M79,69h1v1h-1z M82,69h1v1h-1z M83,69h1v1h-1z M85,69h1v1h-1z M87,69h1v1h-1z M88,69h1v1h-1z M90,69h1v1h-1z M96,69h1v1h-1z M98,69h1v1h-1z M99,69h1v1h-1z M100,69h1v1h-1z M102,69h1v1h-1z M103,69h1v1h-1z M104,69h1v1h-1z M106,69h1v1h-1z M107,69h1v1h-1z M9,70h1v1h-1z M10,70h1v1h-1z M11,70h1v1h-1z M13,70h1v1h-1z M14,70h1v1h-1z M15,70h1v1h-1z M17,70h1v1h-1z M21,70h1v1h-1z M22,70h1v1h-1z M23,70h1v1h-1z M24,70h1v1h-1z M32,70h1v1h-1z M33,70h1v1h-1z M35,70h1v1h-1z M38,70h1v1h-1z M39,70h1v1h-1z M40,70h1v1h-1z M43,70h1v1h-1z M47,70h1v1h-1z M50,70h1v1h-1z M53,70h1v1h-1z M56,70h1v1h-1z M62,70h1v1h-1z M63,70h1v1h-1z M65,70h1v1h-1z M67,70h1v1h-1z M68,70h1v1h-1z M72,70h1v1h-1z M74,70h1v1h-1z M77,70h1v1h-1z M84,70h1v1h-1z M86,70h1v1h-1z M88,70h1v1h-1z M89,70h1v1h-1z M91,70h1v1h-1z M92,70h1v1h-1z M95,70h1v1h-1z M96,70h1v1h-1z M98,70h1v1h-1z M101,70h1v1h-1z M103,70h1v1h-1z M105,70h1v1h-1z M107,70h1v1h-1z M108,70h1v1h-1z M4,71h1v1h-1z M8,71h1v1h-1z M14,71h1v1h-1z M15,71h1v1h-1z M16,71h1v1h-1z M17,71h1v1h-1z M19,71h1v1h-1z M20,71h1v1h-1z M21,71h1v1h-1z M23,71h1v1h-1z M24,71h1v1h-1z M26,71h1v1h-1z M29,71h1v1h-1z M31,71h1v1h-1z M32,71h1v1h-1z M34,71h1v1h-1z M35,71h1v1h-1z M37,71h1v1h-1z M38,71h1v1h-1z M41,71h1v1h-1z M42,71h1v1h-1z M44,71h1v1h-1z M45,71h1v1h-1z M46,71h1v1h-1z M47,71h1v1h-1z M49,71h1v1h-1z M51,71h1v1h-1z M53,71h1v1h-1z M54,71h1v1h-1z M56,71h1v1h-1z M58,71h1v1h-1z M59,71h1v1h-1z M62,71h1v1h-1z M68,71h1v1h-1z M70,71h1v1h-1z M71,71h1v1h-1z M74,71h1v1h-1z M76,71h1v1h-1z M78,71h1v1h-1z M83,71h1v1h-1z M86,71h1v1h-1z M89,71h1v1h-1z M92,71h1v1h-1z M101,71h1v1h-1z M103,71h1v1h-1z M104,71h1v1h-1z M105,71h1v1h-1z M107,71h1v1h-1z M108,71h1v1h-1z M6,72h1v1h-1z M8,72h1v1h-1z M10,72h1v1h-1z M12,72h1v1h-1z M13,72h1v1h-1z M14,72h1v1h-1z M16,72h1v1h-1z M17,72h1v1h-1z M20,72h1v1h-1z M21,72h1v1h-1z M22,72h1v1h-1z M25,72h1v1h-1z M26,72h1v1h-1z M28,72h1v1h-1z M30,72h1v1h-1z M32,72h1v1h-1z M33,72h1v1h-1z M34,72h1v1h-1z M38,72h1v1h-1z M39,72h1v1h-1z M41,72h1v1h-1z M42,72h1v1h-1z M43,72h1v1h-1z M44,72h1v1h-1z M47,72h1v1h-1z M48,72h1v1h-1z M53,72h1v1h-1z M54,72h1v1h-1z M56,72h1v1h-1z M57,72h1v1h-1z M58,72h1v1h-1z M59,72h1v1h-1z M60,72h1v1h-1z M61,72h1v1h-1z M65,72h1v1h-1z M70,72h1v1h-1z M71,72h1v1h-1z M72,72h1v1h-1z M76,72h1v1h-1z M78,72h1v1h-1z M80,72h1v1h-1z M84,72h1v1h-1z M88,72h1v1h-1z M89,72h1v1h-1z M90,72h1v1h-1z M93,72h1v1h-1z M94,72h1v1h-1z M97,72h1v1h-1z M100,72h1v1h-1z M102,72h1v1h-1z M103,72h1v1h-1z M105,72h1v1h-1z M107,72h1v1h-1z M108,72h1v1h-1z M8,73h1v1h-1z M9,73h1v1h-1z M14,73h1v1h-1z M16,73h1v1h-1z M18,73h1v1h-1z M19,73h1v1h-1z M21,73h1v1h-1z M22,73h1v1h-1z M23,73h1v1h-1z M25,73h1v1h-1z M28,73h1v1h-1z M30,73h1v1h-1z M34,73h1v1h-1z M36,73h1v1h-1z M40,73h1v1h-1z M43,73h1v1h-1z M45,73h1v1h-1z M48,73h1v1h-1z M51,73h1v1h-1z M52,73h1v1h-1z M55,73h1v1h-1z M57,73h1v1h-1z M60,73h1v1h-1z M61,73h1v1h-1z M62,73h1v1h-1z M64,73h1v1h-1z M65,73h1v1h-1z M66,73h1v1h-1z M71,73h1v1h-1z M76,73h1v1h-1z M79,73h1v1h-1z M82,73h1v1h-1z M83,73h1v1h-1z M84,73h1v1h-1z M85,73h1v1h-1z M86,73h1v1h-1z M87,73h1v1h-1z M88,73h1v1h-1z M89,73h1v1h-1z M91,73h1v1h-1z M93,73h1v1h-1z M96,73h1v1h-1z M98,73h1v1h-1z M99,73h1v1h-1z M100,73h1v1h-1z M102,73h1v1h-1z M104,73h1v1h-1z M105,73h1v1h-1z M106,73h1v1h-1z M107,73h1v1h-1z M108,73h1v1h-1z M5,74h1v1h-1z M6,74h1v1h-1z M7,74h1v1h-1z M9,74h1v1h-1z M10,74h1v1h-1z M14,74h1v1h-1z M16,74h1v1h-1z M19,74h1v1h-1z M20,74h1v1h-1z M21,74h1v1h-1z M22,74h1v1h-1z M24,74h1v1h-1z M29,74h1v1h-1z M30,74h1v1h-1z M32,74h1v1h-1z M38,74h1v1h-1z M40,74h1v1h-1z M41,74h1v1h-1z M43,74h1v1h-1z M44,74h1v1h-1z M48,74h1v1h-1z M50,74h1v1h-1z M53,74h1v1h-1z M55,74h1v1h-1z M56,74h1v1h-1z M57,74h1v1h-1z M60,74h1v1h-1z M62,74h1v1h-1z M63,74h1v1h-1z M65,74h1v1h-1z M67,74h1v1h-1z M72,74h1v1h-1z M74,74h1v1h-1z M77,74h1v1h-1z M78,74h1v1h-1z M80,74h1v1h-1z M83,74h1v1h-1z M86,74h1v1h-1z M87,74h1v1h-1z M89,74h1v1h-1z M91,74h1v1h-1z M93,74h1v1h-1z M96,74h1v1h-1z M98,74h1v1h-1z M102,74h1v1h-1z M104,74h1v1h-1z M105,74h1v1h-1z M107,74h1v1h-1z M8,75h1v1h-1z M9,75h1v1h-1z M13,75h1v1h-1z M17,75h1v1h-1z M18,75h1v1h-1z M20,75h1v1h-1z M21,75h1v1h-1z M24,75h1v1h-1z M25,75h1v1h-1z M27,75h1v1h-1z M28,75h1v1h-1z M29,75h1v1h-1z M30,75h1v1h-1z M31,75h1v1h-1z M32,75h1v1h-1z M34,75h1v1h-1z M35,75h1v1h-1z M37,75h1v1h-1z M38,75h1v1h-1z M39,75h1v1h-1z M42,75h1v1h-1z M44,75h1v1h-1z M45,75h1v1h-1z M47,75h1v1h-1z M49,75h1v1h-1z M50,75h1v1h-1z M54,75h1v1h-1z M56,75h1v1h-1z M58,75h1v1h-1z M59,75h1v1h-1z M61,75h1v1h-1z M65,75h1v1h-1z M68,75h1v1h-1z M69,75h1v1h-1z M71,75h1v1h-1z M73,75h1v1h-1z M74,75h1v1h-1z M77,75h1v1h-1z M81,75h1v1h-1z M83,75h1v1h-1z M86,75h1v1h-1z M89,75h1v1h-1z M92,75h1v1h-1z M93,75h1v1h-1z M94,75h1v1h-1z M95,75h1v1h-1z M97,75h1v1h-1z M99,75h1v1h-1z M101,75h1v1h-1z M108,75h1v1h-1z M4,76h1v1h-1z M6,76h1v1h-1z M7,76h1v1h-1z M8,76h1v1h-1z M9,76h1v1h-1z M10,76h1v1h-1z M11,76h1v1h-1z M12,76h1v1h-1z M14,76h1v1h-1z M15,76h1v1h-1z M16,76h1v1h-1z M18,76h1v1h-1z M20,76h1v1h-1z M21,76h1v1h-1z M22,76h1v1h-1z M23,76h1v1h-1z M24,76h1v1h-1z M28,76h1v1h-1z M29,76h1v1h-1z M30,76h1v1h-1z M31,76h1v1h-1z M32,76h1v1h-1z M33,76h1v1h-1z M35,76h1v1h-1z M36,76h1v1h-1z M38,76h1v1h-1z M43,76h1v1h-1z M44,76h1v1h-1z M45,76h1v1h-1z M50,76h1v1h-1z M52,76h1v1h-1z M53,76h1v1h-1z M54,76h1v1h-1z M55,76h1v1h-1z M56,76h1v1h-1z M58,76h1v1h-1z M65,76h1v1h-1z M67,76h1v1h-1z M68,76h1v1h-1z M69,76h1v1h-1z M70,76h1v1h-1z M74,76h1v1h-1z M76,76h1v1h-1z M77,76h1v1h-1z M78,76h1v1h-1z M79,76h1v1h-1z M80,76h1v1h-1z M82,76h1v1h-1z M83,76h1v1h-1z M85,76h1v1h-1z M87,76h1v1h-1z M88,76h1v1h-1z M89,76h1v1h-1z M90,76h1v1h-1z M91,76h1v1h-1z M92,76h1v1h-1z M94,76h1v1h-1z M95,76h1v1h-1z M99,76h1v1h-1z M100,76h1v1h-1z M101,76h1v1h-1z M102,76h1v1h-1z M103,76h1v1h-1z M104,76h1v1h-1z M105,76h1v1h-1z M106,76h1v1h-1z M107,76h1v1h-1z M108,76h1v1h-1z M4,77h1v1h-1z M5,77h1v1h-1z M6,77h1v1h-1z M8,77h1v1h-1z M12,77h1v1h-1z M14,77h1v1h-1z M18,77h1v1h-1z M20,77h1v1h-1z M25,77h1v1h-1z M26,77h1v1h-1z M27,77h1v1h-1z M28,77h1v1h-1z M32,77h1v1h-1z M35,77h1v1h-1z M36,77h1v1h-1z M38,77h1v1h-1z M43,77h1v1h-1z M45,77h1v1h-1z M52,77h1v1h-1z M56,77h1v1h-1z M58,77h1v1h-1z M59,77h1v1h-1z M60,77h1v1h-1z M62,77h1v1h-1z M64,77h1v1h-1z M65,77h1v1h-1z M66,77h1v1h-1z M67,77h1v1h-1z M68,77h1v1h-1z M69,77h1v1h-1z M70,77h1v1h-1z M76,77h1v1h-1z M80,77h1v1h-1z M81,77h1v1h-1z M83,77h1v1h-1z M85,77h1v1h-1z M86,77h1v1h-1z M90,77h1v1h-1z M92,77h1v1h-1z M93,77h1v1h-1z M96,77h1v1h-1z M97,77h1v1h-1z M98,77h1v1h-1z M100,77h1v1h-1z M104,77h1v1h-1z M105,77h1v1h-1z M107,77h1v1h-1z M4,78h1v1h-1z M6,78h1v1h-1z M8,78h1v1h-1z M10,78h1v1h-1z M12,78h1v1h-1z M15,78h1v1h-1z M16,78h1v1h-1z M18,78h1v1h-1z M20,78h1v1h-1z M23,78h1v1h-1z M24,78h1v1h-1z M25,78h1v1h-1z M26,78h1v1h-1z M27,78h1v1h-1z M28,78h1v1h-1z M30,78h1v1h-1z M32,78h1v1h-1z M35,78h1v1h-1z M36,78h1v1h-1z M38,78h1v1h-1z M39,78h1v1h-1z M41,78h1v1h-1z M43,78h1v1h-1z M44,78h1v1h-1z M50,78h1v1h-1z M52,78h1v1h-1z M54,78h1v1h-1z M56,78h1v1h-1z M59,78h1v1h-1z M60,78h1v1h-1z M61,78h1v1h-1z M62,78h1v1h-1z M65,78h1v1h-1z M67,78h1v1h-1z M68,78h1v1h-1z M73,78h1v1h-1z M74,78h1v1h-1z M75,78h1v1h-1z M76,78h1v1h-1z M78,78h1v1h-1z M80,78h1v1h-1z M83,78h1v1h-1z M84,78h1v1h-1z M86,78h1v1h-1z M91,78h1v1h-1z M92,78h1v1h-1z M98,78h1v1h-1z M100,78h1v1h-1z M102,78h1v1h-1z M104,78h1v1h-1z M107,78h1v1h-1z M5,79h1v1h-1z M6,79h1v1h-1z M8,79h1v1h-1z M12,79h1v1h-1z M13,79h1v1h-1z M19,79h1v1h-1z M22,79h1v1h-1z M24,79h1v1h-1z M27,79h1v1h-1z M28,79h1v1h-1z M32,79h1v1h-1z M33,79h1v1h-1z M34,79h1v1h-1z M35,79h1v1h-1z M41,79h1v1h-1z M42,79h1v1h-1z M44,79h1v1h-1z M45,79h1v1h-1z M47,79h1v1h-1z M50,79h1v1h-1z M51,79h1v1h-1z M52,79h1v1h-1z M56,79h1v1h-1z M58,79h1v1h-1z M68,79h1v1h-1z M69,79h1v1h-1z M70,79h1v1h-1z M71,79h1v1h-1z M76,79h1v1h-1z M80,79h1v1h-1z M82,79h1v1h-1z M83,79h1v1h-1z M89,79h1v1h-1z M90,79h1v1h-1z M92,79h1v1h-1z M93,79h1v1h-1z M94,79h1v1h-1z M95,79h1v1h-1z M98,79h1v1h-1z M99,79h1v1h-1z M100,79h1v1h-1z M104,79h1v1h-1z M107,79h1v1h-1z M5,80h1v1h-1z M7,80h1v1h-1z M8,80h1v1h-1z M9,80h1v1h-1z M10,80h1v1h-1z M11,80h1v1h-1z M12,80h1v1h-1z M15,80h1v1h-1z M16,80h1v1h-1z M17,80h1v1h-1z M20,80h1v1h-1z M21,80h1v1h-1z M23,80h1v1h-1z M24,80h1v1h-1z M25,80h1v1h-1z M27,80h1v1h-1z M28,80h1v1h-1z M29,80h1v1h-1z M30,80h1v1h-1z M31,80h1v1h-1z M32,80h1v1h-1z M34,80h1v1h-1z M36,80h1v1h-1z M39,80h1v1h-1z M47,80h1v1h-1z M49,80h1v1h-1z M50,80h1v1h-1z M51,80h1v1h-1z M52,80h1v1h-1z M53,80h1v1h-1z M54,80h1v1h-1z M55,80h1v1h-1z M56,80h1v1h-1z M57,80h1v1h-1z M58,80h1v1h-1z M59,80h1v1h-1z M61,80h1v1h-1z M62,80h1v1h-1z M63,80h1v1h-1z M65,80h1v1h-1z M66,80h1v1h-1z M67,80h1v1h-1z M68,80h1v1h-1z M71,80h1v1h-1z M76,80h1v1h-1z M77,80h1v1h-1z M78,80h1v1h-1z M79,80h1v1h-1z M80,80h1v1h-1z M83,80h1v1h-1z M85,80h1v1h-1z M87,80h1v1h-1z M88,80h1v1h-1z M90,80h1v1h-1z M94,80h1v1h-1z M95,80h1v1h-1z M97,80h1v1h-1z M98,80h1v1h-1z M100,80h1v1h-1z M101,80h1v1h-1z M102,80h1v1h-1z M103,80h1v1h-1z M104,80h1v1h-1z M105,80h1v1h-1z M106,80h1v1h-1z M4,81h1v1h-1z M5,81h1v1h-1z M6,81h1v1h-1z M7,81h1v1h-1z M8,81h1v1h-1z M9,81h1v1h-1z M11,81h1v1h-1z M12,81h1v1h-1z M14,81h1v1h-1z M15,81h1v1h-1z M16,81h1v1h-1z M17,81h1v1h-1z M18,81h1v1h-1z M23,81h1v1h-1z M28,81h1v1h-1z M30,81h1v1h-1z M31,81h1v1h-1z M32,81h1v1h-1z M33,81h1v1h-1z M34,81h1v1h-1z M36,81h1v1h-1z M37,81h1v1h-1z M38,81h1v1h-1z M40,81h1v1h-1z M41,81h1v1h-1z M42,81h1v1h-1z M44,81h1v1h-1z M45,81h1v1h-1z M46,81h1v1h-1z M47,81h1v1h-1z M49,81h1v1h-1z M52,81h1v1h-1z M54,81h1v1h-1z M56,81h1v1h-1z M57,81h1v1h-1z M58,81h1v1h-1z M62,81h1v1h-1z M64,81h1v1h-1z M65,81h1v1h-1z M66,81h1v1h-1z M68,81h1v1h-1z M70,81h1v1h-1z M71,81h1v1h-1z M73,81h1v1h-1z M76,81h1v1h-1z M78,81h1v1h-1z M80,81h1v1h-1z M81,81h1v1h-1z M82,81h1v1h-1z M83,81h1v1h-1z M84,81h1v1h-1z M85,81h1v1h-1z M87,81h1v1h-1z M88,81h1v1h-1z M89,81h1v1h-1z M91,81h1v1h-1z M93,81h1v1h-1z M94,81h1v1h-1z M95,81h1v1h-1z M96,81h1v1h-1z M97,81h1v1h-1z M98,81h1v1h-1z M99,81h1v1h-1z M101,81h1v1h-1z M102,81h1v1h-1z M103,81h1v1h-1z M105,81h1v1h-1z M4,82h1v1h-1z M5,82h1v1h-1z M8,82h1v1h-1z M10,82h1v1h-1z M11,82h1v1h-1z M14,82h1v1h-1z M16,82h1v1h-1z M17,82h1v1h-1z M18,82h1v1h-1z M24,82h1v1h-1z M25,82h1v1h-1z M30,82h1v1h-1z M31,82h1v1h-1z M32,82h1v1h-1z M38,82h1v1h-1z M39,82h1v1h-1z M40,82h1v1h-1z M45,82h1v1h-1z M48,82h1v1h-1z M50,82h1v1h-1z M51,82h1v1h-1z M53,82h1v1h-1z M55,82h1v1h-1z M56,82h1v1h-1z M60,82h1v1h-1z M62,82h1v1h-1z M63,82h1v1h-1z M64,82h1v1h-1z M71,82h1v1h-1z M72,82h1v1h-1z M73,82h1v1h-1z M74,82h1v1h-1z M75,82h1v1h-1z M80,82h1v1h-1z M81,82h1v1h-1z M83,82h1v1h-1z M84,82h1v1h-1z M86,82h1v1h-1z M87,82h1v1h-1z M89,82h1v1h-1z M98,82h1v1h-1z M99,82h1v1h-1z M101,82h1v1h-1z M103,82h1v1h-1z M104,82h1v1h-1z M105,82h1v1h-1z M107,82h1v1h-1z M4,83h1v1h-1z M5,83h1v1h-1z M6,83h1v1h-1z M8,83h1v1h-1z M11,83h1v1h-1z M12,83h1v1h-1z M13,83h1v1h-1z M14,83h1v1h-1z M15,83h1v1h-1z M17,83h1v1h-1z M20,83h1v1h-1z M22,83h1v1h-1z M25,83h1v1h-1z M29,83h1v1h-1z M31,83h1v1h-1z M32,83h1v1h-1z M35,83h1v1h-1z M41,83h1v1h-1z M42,83h1v1h-1z M44,83h1v1h-1z M46,83h1v1h-1z M47,83h1v1h-1z M54,83h1v1h-1z M57,83h1v1h-1z M58,83h1v1h-1z M59,83h1v1h-1z M61,83h1v1h-1z M62,83h1v1h-1z M66,83h1v1h-1z M67,83h1v1h-1z M68,83h1v1h-1z M69,83h1v1h-1z M70,83h1v1h-1z M71,83h1v1h-1z M76,83h1v1h-1z M78,83h1v1h-1z M80,83h1v1h-1z M82,83h1v1h-1z M83,83h1v1h-1z M85,83h1v1h-1z M86,83h1v1h-1z M89,83h1v1h-1z M92,83h1v1h-1z M93,83h1v1h-1z M95,83h1v1h-1z M99,83h1v1h-1z M100,83h1v1h-1z M103,83h1v1h-1z M104,83h1v1h-1z M105,83h1v1h-1z M4,84h1v1h-1z M5,84h1v1h-1z M6,84h1v1h-1z M7,84h1v1h-1z M8,84h1v1h-1z M9,84h1v1h-1z M10,84h1v1h-1z M12,84h1v1h-1z M13,84h1v1h-1z M15,84h1v1h-1z M17,84h1v1h-1z M18,84h1v1h-1z M19,84h1v1h-1z M21,84h1v1h-1z M22,84h1v1h-1z M23,84h1v1h-1z M25,84h1v1h-1z M27,84h1v1h-1z M32,84h1v1h-1z M33,84h1v1h-1z M34,84h1v1h-1z M35,84h1v1h-1z M37,84h1v1h-1z M40,84h1v1h-1z M42,84h1v1h-1z M43,84h1v1h-1z M44,84h1v1h-1z M48,84h1v1h-1z M51,84h1v1h-1z M53,84h1v1h-1z M54,84h1v1h-1z M55,84h1v1h-1z M58,84h1v1h-1z M62,84h1v1h-1z M64,84h1v1h-1z M65,84h1v1h-1z M66,84h1v1h-1z M67,84h1v1h-1z M68,84h1v1h-1z M70,84h1v1h-1z M71,84h1v1h-1z M74,84h1v1h-1z M75,84h1v1h-1z M78,84h1v1h-1z M81,84h1v1h-1z M82,84h1v1h-1z M85,84h1v1h-1z M88,84h1v1h-1z M89,84h1v1h-1z M91,84h1v1h-1z M92,84h1v1h-1z M96,84h1v1h-1z M101,84h1v1h-1z M102,84h1v1h-1z M103,84h1v1h-1z M105,84h1v1h-1z M108,84h1v1h-1z M7,85h1v1h-1z M11,85h1v1h-1z M12,85h1v1h-1z M16,85h1v1h-1z M18,85h1v1h-1z M20,85h1v1h-1z M24,85h1v1h-1z M26,85h1v1h-1z M28,85h1v1h-1z M30,85h1v1h-1z M34,85h1v1h-1z M35,85h1v1h-1z M36,85h1v1h-1z M39,85h1v1h-1z M40,85h1v1h-1z M44,85h1v1h-1z M45,85h1v1h-1z M47,85h1v1h-1z M48,85h1v1h-1z M49,85h1v1h-1z M50,85h1v1h-1z M52,85h1v1h-1z M53,85h1v1h-1z M54,85h1v1h-1z M55,85h1v1h-1z M58,85h1v1h-1z M59,85h1v1h-1z M66,85h1v1h-1z M69,85h1v1h-1z M70,85h1v1h-1z M71,85h1v1h-1z M72,85h1v1h-1z M73,85h1v1h-1z M74,85h1v1h-1z M78,85h1v1h-1z M82,85h1v1h-1z M85,85h1v1h-1z M86,85h1v1h-1z M87,85h1v1h-1z M88,85h1v1h-1z M90,85h1v1h-1z M92,85h1v1h-1z M94,85h1v1h-1z M96,85h1v1h-1z M97,85h1v1h-1z M99,85h1v1h-1z M102,85h1v1h-1z M103,85h1v1h-1z M106,85h1v1h-1z M4,86h1v1h-1z M7,86h1v1h-1z M10,86h1v1h-1z M11,86h1v1h-1z M13,86h1v1h-1z M15,86h1v1h-1z M16,86h1v1h-1z M18,86h1v1h-1z M19,86h1v1h-1z M21,86h1v1h-1z M23,86h1v1h-1z M27,86h1v1h-1z M28,86h1v1h-1z M30,86h1v1h-1z M32,86h1v1h-1z M35,86h1v1h-1z M38,86h1v1h-1z M40,86h1v1h-1z M41,86h1v1h-1z M43,86h1v1h-1z M47,86h1v1h-1z M50,86h1v1h-1z M51,86h1v1h-1z M54,86h1v1h-1z M56,86h1v1h-1z M59,86h1v1h-1z M61,86h1v1h-1z M62,86h1v1h-1z M64,86h1v1h-1z M65,86h1v1h-1z M67,86h1v1h-1z M68,86h1v1h-1z M72,86h1v1h-1z M74,86h1v1h-1z M75,86h1v1h-1z M77,86h1v1h-1z M80,86h1v1h-1z M81,86h1v1h-1z M84,86h1v1h-1z M86,86h1v1h-1z M87,86h1v1h-1z M88,86h1v1h-1z M89,86h1v1h-1z M96,86h1v1h-1z M98,86h1v1h-1z M99,86h1v1h-1z M100,86h1v1h-1z M101,86h1v1h-1z M103,86h1v1h-1z M106,86h1v1h-1z M5,87h1v1h-1z M6,87h1v1h-1z M7,87h1v1h-1z M8,87h1v1h-1z M12,87h1v1h-1z M13,87h1v1h-1z M16,87h1v1h-1z M17,87h1v1h-1z M18,87h1v1h-1z M19,87h1v1h-1z M21,87h1v1h-1z M27,87h1v1h-1z M28,87h1v1h-1z M31,87h1v1h-1z M32,87h1v1h-1z M34,87h1v1h-1z M35,87h1v1h-1z M37,87h1v1h-1z M44,87h1v1h-1z M45,87h1v1h-1z M47,87h1v1h-1z M49,87h1v1h-1z M51,87h1v1h-1z M52,87h1v1h-1z M53,87h1v1h-1z M54,87h1v1h-1z M55,87h1v1h-1z M57,87h1v1h-1z M58,87h1v1h-1z M59,87h1v1h-1z M61,87h1v1h-1z M63,87h1v1h-1z M66,87h1v1h-1z M68,87h1v1h-1z M71,87h1v1h-1z M73,87h1v1h-1z M74,87h1v1h-1z M75,87h1v1h-1z M76,87h1v1h-1z M77,87h1v1h-1z M79,87h1v1h-1z M82,87h1v1h-1z M83,87h1v1h-1z M87,87h1v1h-1z M90,87h1v1h-1z M91,87h1v1h-1z M92,87h1v1h-1z M93,87h1v1h-1z M95,87h1v1h-1z M98,87h1v1h-1z M100,87h1v1h-1z M102,87h1v1h-1z M103,87h1v1h-1z M104,87h1v1h-1z M4,88h1v1h-1z M7,88h1v1h-1z M10,88h1v1h-1z M11,88h1v1h-1z M14,88h1v1h-1z M15,88h1v1h-1z M17,88h1v1h-1z M21,88h1v1h-1z M22,88h1v1h-1z M24,88h1v1h-1z M27,88h1v1h-1z M28,88h1v1h-1z M30,88h1v1h-1z M32,88h1v1h-1z M33,88h1v1h-1z M35,88h1v1h-1z M38,88h1v1h-1z M39,88h1v1h-1z M40,88h1v1h-1z M41,88h1v1h-1z M42,88h1v1h-1z M45,88h1v1h-1z M46,88h1v1h-1z M48,88h1v1h-1z M50,88h1v1h-1z M51,88h1v1h-1z M55,88h1v1h-1z M59,88h1v1h-1z M61,88h1v1h-1z M64,88h1v1h-1z M65,88h1v1h-1z M66,88h1v1h-1z M68,88h1v1h-1z M69,88h1v1h-1z M70,88h1v1h-1z M72,88h1v1h-1z M74,88h1v1h-1z M78,88h1v1h-1z M79,88h1v1h-1z M83,88h1v1h-1z M84,88h1v1h-1z M85,88h1v1h-1z M88,88h1v1h-1z M89,88h1v1h-1z M91,88h1v1h-1z M92,88h1v1h-1z M93,88h1v1h-1z M94,88h1v1h-1z M95,88h1v1h-1z M96,88h1v1h-1z M97,88h1v1h-1z M100,88h1v1h-1z M107,88h1v1h-1z M5,89h1v1h-1z M8,89h1v1h-1z M9,89h1v1h-1z M19,89h1v1h-1z M20,89h1v1h-1z M22,89h1v1h-1z M24,89h1v1h-1z M26,89h1v1h-1z M28,89h1v1h-1z M30,89h1v1h-1z M31,89h1v1h-1z M33,89h1v1h-1z M35,89h1v1h-1z M36,89h1v1h-1z M37,89h1v1h-1z M40,89h1v1h-1z M41,89h1v1h-1z M42,89h1v1h-1z M44,89h1v1h-1z M45,89h1v1h-1z M47,89h1v1h-1z M48,89h1v1h-1z M49,89h1v1h-1z M54,89h1v1h-1z M57,89h1v1h-1z M58,89h1v1h-1z M60,89h1v1h-1z M63,89h1v1h-1z M64,89h1v1h-1z M65,89h1v1h-1z M67,89h1v1h-1z M71,89h1v1h-1z M73,89h1v1h-1z M74,89h1v1h-1z M78,89h1v1h-1z M81,89h1v1h-1z M82,89h1v1h-1z M83,89h1v1h-1z M87,89h1v1h-1z M90,89h1v1h-1z M92,89h1v1h-1z M93,89h1v1h-1z M95,89h1v1h-1z M97,89h1v1h-1z M99,89h1v1h-1z M103,89h1v1h-1z M105,89h1v1h-1z M107,89h1v1h-1z M4,90h1v1h-1z M5,90h1v1h-1z M6,90h1v1h-1z M9,90h1v1h-1z M10,90h1v1h-1z M12,90h1v1h-1z M16,90h1v1h-1z M18,90h1v1h-1z M20,90h1v1h-1z M21,90h1v1h-1z M22,90h1v1h-1z M23,90h1v1h-1z M24,90h1v1h-1z M25,90h1v1h-1z M27,90h1v1h-1z M28,90h1v1h-1z M32,90h1v1h-1z M35,90h1v1h-1z M36,90h1v1h-1z M38,90h1v1h-1z M39,90h1v1h-1z M40,90h1v1h-1z M41,90h1v1h-1z M43,90h1v1h-1z M48,90h1v1h-1z M50,90h1v1h-1z M52,90h1v1h-1z M53,90h1v1h-1z M56,90h1v1h-1z M60,90h1v1h-1z M62,90h1v1h-1z M63,90h1v1h-1z M65,90h1v1h-1z M67,90h1v1h-1z M74,90h1v1h-1z M80,90h1v1h-1z M83,90h1v1h-1z M86,90h1v1h-1z M92,90h1v1h-1z M95,90h1v1h-1z M96,90h1v1h-1z M98,90h1v1h-1z M100,90h1v1h-1z M101,90h1v1h-1z M106,90h1v1h-1z M107,90h1v1h-1z M6,91h1v1h-1z M7,91h1v1h-1z M9,91h1v1h-1z M11,91h1v1h-1z M14,91h1v1h-1z M15,91h1v1h-1z M16,91h1v1h-1z M21,91h1v1h-1z M23,91h1v1h-1z M26,91h1v1h-1z M29,91h1v1h-1z M32,91h1v1h-1z M33,91h1v1h-1z M38,91h1v1h-1z M42,91h1v1h-1z M43,91h1v1h-1z M44,91h1v1h-1z M47,91h1v1h-1z M49,91h1v1h-1z M53,91h1v1h-1z M56,91h1v1h-1z M57,91h1v1h-1z M59,91h1v1h-1z M62,91h1v1h-1z M66,91h1v1h-1z M68,91h1v1h-1z M70,91h1v1h-1z M71,91h1v1h-1z M74,91h1v1h-1z M75,91h1v1h-1z M76,91h1v1h-1z M77,91h1v1h-1z M79,91h1v1h-1z M80,91h1v1h-1z M82,91h1v1h-1z M83,91h1v1h-1z M89,91h1v1h-1z M90,91h1v1h-1z M92,91h1v1h-1z M93,91h1v1h-1z M95,91h1v1h-1z M100,91h1v1h-1z M101,91h1v1h-1z M102,91h1v1h-1z M103,91h1v1h-1z M104,91h1v1h-1z M108,91h1v1h-1z M4,92h1v1h-1z M5,92h1v1h-1z M6,92h1v1h-1z M8,92h1v1h-1z M9,92h1v1h-1z M10,92h1v1h-1z M13,92h1v1h-1z M14,92h1v1h-1z M17,92h1v1h-1z M18,92h1v1h-1z M22,92h1v1h-1z M23,92h1v1h-1z M24,92h1v1h-1z M25,92h1v1h-1z M31,92h1v1h-1z M34,92h1v1h-1z M35,92h1v1h-1z M36,92h1v1h-1z M37,92h1v1h-1z M38,92h1v1h-1z M39,92h1v1h-1z M40,92h1v1h-1z M41,92h1v1h-1z M42,92h1v1h-1z M44,92h1v1h-1z M45,92h1v1h-1z M50,92h1v1h-1z M51,92h1v1h-1z M53,92h1v1h-1z M56,92h1v1h-1z M57,92h1v1h-1z M58,92h1v1h-1z M66,92h1v1h-1z M69,92h1v1h-1z M71,92h1v1h-1z M78,92h1v1h-1z M79,92h1v1h-1z M82,92h1v1h-1z M84,92h1v1h-1z M87,92h1v1h-1z M89,92h1v1h-1z M91,92h1v1h-1z M92,92h1v1h-1z M94,92h1v1h-1z M97,92h1v1h-1z M101,92h1v1h-1z M102,92h1v1h-1z M104,92h1v1h-1z M106,92h1v1h-1z M107,92h1v1h-1z M6,93h1v1h-1z M8,93h1v1h-1z M9,93h1v1h-1z M12,93h1v1h-1z M14,93h1v1h-1z M15,93h1v1h-1z M17,93h1v1h-1z M19,93h1v1h-1z M20,93h1v1h-1z M22,93h1v1h-1z M23,93h1v1h-1z M26,93h1v1h-1z M28,93h1v1h-1z M30,93h1v1h-1z M33,93h1v1h-1z M34,93h1v1h-1z M35,93h1v1h-1z M37,93h1v1h-1z M41,93h1v1h-1z M42,93h1v1h-1z M47,93h1v1h-1z M52,93h1v1h-1z M53,93h1v1h-1z M54,93h1v1h-1z M58,93h1v1h-1z M59,93h1v1h-1z M60,93h1v1h-1z M61,93h1v1h-1z M68,93h1v1h-1z M69,93h1v1h-1z M72,93h1v1h-1z M73,93h1v1h-1z M74,93h1v1h-1z M78,93h1v1h-1z M79,93h1v1h-1z M80,93h1v1h-1z M82,93h1v1h-1z M84,93h1v1h-1z M85,93h1v1h-1z M87,93h1v1h-1z M88,93h1v1h-1z M90,93h1v1h-1z M91,93h1v1h-1z M94,93h1v1h-1z M95,93h1v1h-1z M96,93h1v1h-1z M98,93h1v1h-1z M99,93h1v1h-1z M102,93h1v1h-1z M108,93h1v1h-1z M4,94h1v1h-1z M5,94h1v1h-1z M9,94h1v1h-1z M10,94h1v1h-1z M11,94h1v1h-1z M14,94h1v1h-1z M16,94h1v1h-1z M17,94h1v1h-1z M18,94h1v1h-1z M19,94h1v1h-1z M20,94h1v1h-1z M26,94h1v1h-1z M32,94h1v1h-1z M33,94h1v1h-1z M36,94h1v1h-1z M37,94h1v1h-1z M38,94h1v1h-1z M39,94h1v1h-1z M40,94h1v1h-1z M41,94h1v1h-1z M44,94h1v1h-1z M48,94h1v1h-1z M49,94h1v1h-1z M50,94h1v1h-1z M51,94h1v1h-1z M52,94h1v1h-1z M53,94h1v1h-1z M54,94h1v1h-1z M56,94h1v1h-1z M60,94h1v1h-1z M61,94h1v1h-1z M62,94h1v1h-1z M63,94h1v1h-1z M72,94h1v1h-1z M74,94h1v1h-1z M75,94h1v1h-1z M76,94h1v1h-1z M79,94h1v1h-1z M80,94h1v1h-1z M83,94h1v1h-1z M84,94h1v1h-1z M86,94h1v1h-1z M87,94h1v1h-1z M88,94h1v1h-1z M89,94h1v1h-1z M91,94h1v1h-1z M93,94h1v1h-1z M96,94h1v1h-1z M98,94h1v1h-1z M99,94h1v1h-1z M100,94h1v1h-1z M103,94h1v1h-1z M104,94h1v1h-1z M105,94h1v1h-1z M107,94h1v1h-1z M5,95h1v1h-1z M12,95h1v1h-1z M13,95h1v1h-1z M15,95h1v1h-1z M17,95h1v1h-1z M19,95h1v1h-1z M21,95h1v1h-1z M22,95h1v1h-1z M24,95h1v1h-1z M26,95h1v1h-1z M27,95h1v1h-1z M32,95h1v1h-1z M34,95h1v1h-1z M35,95h1v1h-1z M42,95h1v1h-1z M44,95h1v1h-1z M45,95h1v1h-1z M46,95h1v1h-1z M47,95h1v1h-1z M51,95h1v1h-1z M54,95h1v1h-1z M56,95h1v1h-1z M59,95h1v1h-1z M65,95h1v1h-1z M66,95h1v1h-1z M67,95h1v1h-1z M68,95h1v1h-1z M71,95h1v1h-1z M73,95h1v1h-1z M74,95h1v1h-1z M75,95h1v1h-1z M76,95h1v1h-1z M78,95h1v1h-1z M80,95h1v1h-1z M81,95h1v1h-1z M82,95h1v1h-1z M83,95h1v1h-1z M92,95h1v1h-1z M93,95h1v1h-1z M94,95h1v1h-1z M95,95h1v1h-1z M97,95h1v1h-1z M99,95h1v1h-1z M100,95h1v1h-1z M101,95h1v1h-1z M102,95h1v1h-1z M103,95h1v1h-1z M107,95h1v1h-1z M108,95h1v1h-1z M4,96h1v1h-1z M5,96h1v1h-1z M8,96h1v1h-1z M10,96h1v1h-1z M11,96h1v1h-1z M16,96h1v1h-1z M17,96h1v1h-1z M18,96h1v1h-1z M20,96h1v1h-1z M21,96h1v1h-1z M22,96h1v1h-1z M25,96h1v1h-1z M26,96h1v1h-1z M27,96h1v1h-1z M28,96h1v1h-1z M30,96h1v1h-1z M31,96h1v1h-1z M35,96h1v1h-1z M36,96h1v1h-1z M38,96h1v1h-1z M39,96h1v1h-1z M42,96h1v1h-1z M43,96h1v1h-1z M44,96h1v1h-1z M45,96h1v1h-1z M46,96h1v1h-1z M51,96h1v1h-1z M52,96h1v1h-1z M53,96h1v1h-1z M54,96h1v1h-1z M55,96h1v1h-1z M57,96h1v1h-1z M58,96h1v1h-1z M62,96h1v1h-1z M66,96h1v1h-1z M69,96h1v1h-1z M70,96h1v1h-1z M71,96h1v1h-1z M75,96h1v1h-1z M84,96h1v1h-1z M86,96h1v1h-1z M87,96h1v1h-1z M88,96h1v1h-1z M89,96h1v1h-1z M98,96h1v1h-1z M102,96h1v1h-1z M105,96h1v1h-1z M107,96h1v1h-1z M108,96h1v1h-1z M4,97h1v1h-1z M5,97h1v1h-1z M7,97h1v1h-1z M8,97h1v1h-1z M11,97h1v1h-1z M12,97h1v1h-1z M13,97h1v1h-1z M20,97h1v1h-1z M24,97h1v1h-1z M25,97h1v1h-1z M28,97h1v1h-1z M30,97h1v1h-1z M31,97h1v1h-1z M34,97h1v1h-1z M36,97h1v1h-1z M37,97h1v1h-1z M38,97h1v1h-1z M39,97h1v1h-1z M41,97h1v1h-1z M43,97h1v1h-1z M44,97h1v1h-1z M48,97h1v1h-1z M52,97h1v1h-1z M54,97h1v1h-1z M58,97h1v1h-1z M62,97h1v1h-1z M63,97h1v1h-1z M67,97h1v1h-1z M69,97h1v1h-1z M71,97h1v1h-1z M73,97h1v1h-1z M76,97h1v1h-1z M78,97h1v1h-1z M79,97h1v1h-1z M82,97h1v1h-1z M83,97h1v1h-1z M84,97h1v1h-1z M88,97h1v1h-1z M89,97h1v1h-1z M91,97h1v1h-1z M92,97h1v1h-1z M93,97h1v1h-1z M94,97h1v1h-1z M96,97h1v1h-1z M97,97h1v1h-1z M98,97h1v1h-1z M99,97h1v1h-1z M100,97h1v1h-1z M102,97h1v1h-1z M103,97h1v1h-1z M106,97h1v1h-1z M4,98h1v1h-1z M5,98h1v1h-1z M6,98h1v1h-1z M10,98h1v1h-1z M14,98h1v1h-1z M15,98h1v1h-1z M16,98h1v1h-1z M17,98h1v1h-1z M18,98h1v1h-1z M19,98h1v1h-1z M22,98h1v1h-1z M24,98h1v1h-1z M29,98h1v1h-1z M32,98h1v1h-1z M36,98h1v1h-1z M37,98h1v1h-1z M38,98h1v1h-1z M40,98h1v1h-1z M41,98h1v1h-1z M43,98h1v1h-1z M45,98h1v1h-1z M50,98h1v1h-1z M52,98h1v1h-1z M56,98h1v1h-1z M62,98h1v1h-1z M63,98h1v1h-1z M64,98h1v1h-1z M65,98h1v1h-1z M68,98h1v1h-1z M71,98h1v1h-1z M72,98h1v1h-1z M74,98h1v1h-1z M76,98h1v1h-1z M77,98h1v1h-1z M78,98h1v1h-1z M80,98h1v1h-1z M83,98h1v1h-1z M84,98h1v1h-1z M86,98h1v1h-1z M89,98h1v1h-1z M91,98h1v1h-1z M92,98h1v1h-1z M98,98h1v1h-1z M103,98h1v1h-1z M105,98h1v1h-1z M106,98h1v1h-1z M107,98h1v1h-1z M6,99h1v1h-1z M8,99h1v1h-1z M9,99h1v1h-1z M12,99h1v1h-1z M13,99h1v1h-1z M17,99h1v1h-1z M18,99h1v1h-1z M20,99h1v1h-1z M24,99h1v1h-1z M26,99h1v1h-1z M27,99h1v1h-1z M32,99h1v1h-1z M33,99h1v1h-1z M35,99h1v1h-1z M42,99h1v1h-1z M44,99h1v1h-1z M45,99h1v1h-1z M46,99h1v1h-1z M47,99h1v1h-1z M49,99h1v1h-1z M50,99h1v1h-1z M51,99h1v1h-1z M54,99h1v1h-1z M56,99h1v1h-1z M57,99h1v1h-1z M59,99h1v1h-1z M61,99h1v1h-1z M62,99h1v1h-1z M65,99h1v1h-1z M68,99h1v1h-1z M70,99h1v1h-1z M73,99h1v1h-1z M75,99h1v1h-1z M76,99h1v1h-1z M79,99h1v1h-1z M80,99h1v1h-1z M81,99h1v1h-1z M83,99h1v1h-1z M85,99h1v1h-1z M86,99h1v1h-1z M90,99h1v1h-1z M92,99h1v1h-1z M93,99h1v1h-1z M94,99h1v1h-1z M95,99h1v1h-1z M97,99h1v1h-1z M101,99h1v1h-1z M102,99h1v1h-1z M103,99h1v1h-1z M104,99h1v1h-1z M7,100h1v1h-1z M8,100h1v1h-1z M10,100h1v1h-1z M11,100h1v1h-1z M12,100h1v1h-1z M18,100h1v1h-1z M20,100h1v1h-1z M21,100h1v1h-1z M25,100h1v1h-1z M28,100h1v1h-1z M29,100h1v1h-1z M30,100h1v1h-1z M31,100h1v1h-1z M32,100h1v1h-1z M34,100h1v1h-1z M36,100h1v1h-1z M37,100h1v1h-1z M41,100h1v1h-1z M45,100h1v1h-1z M47,100h1v1h-1z M50,100h1v1h-1z M51,100h1v1h-1z M52,100h1v1h-1z M53,100h1v1h-1z M54,100h1v1h-1z M55,100h1v1h-1z M56,100h1v1h-1z M57,100h1v1h-1z M59,100h1v1h-1z M61,100h1v1h-1z M62,100h1v1h-1z M63,100h1v1h-1z M68,100h1v1h-1z M69,100h1v1h-1z M71,100h1v1h-1z M74,100h1v1h-1z M75,100h1v1h-1z M76,100h1v1h-1z M77,100h1v1h-1z M78,100h1v1h-1z M79,100h1v1h-1z M80,100h1v1h-1z M83,100h1v1h-1z M85,100h1v1h-1z M87,100h1v1h-1z M89,100h1v1h-1z M91,100h1v1h-1z M93,100h1v1h-1z M94,100h1v1h-1z M95,100h1v1h-1z M96,100h1v1h-1z M98,100h1v1h-1z M100,100h1v1h-1z M101,100h1v1h-1z M102,100h1v1h-1z M103,100h1v1h-1z M104,100h1v1h-1z M105,100h1v1h-1z M106,100h1v1h-1z M12,101h1v1h-1z M14,101h1v1h-1z M15,101h1v1h-1z M16,101h1v1h-1z M17,101h1v1h-1z M18,101h1v1h-1z M19,101h1v1h-1z M21,101h1v1h-1z M25,101h1v1h-1z M27,101h1v1h-1z M28,101h1v1h-1z M32,101h1v1h-1z M33,101h1v1h-1z M34,101h1v1h-1z M35,101h1v1h-1z M36,101h1v1h-1z M39,101h1v1h-1z M40,101h1v1h-1z M45,101h1v1h-1z M47,101h1v1h-1z M48,101h1v1h-1z M50,101h1v1h-1z M51,101h1v1h-1z M52,101h1v1h-1z M56,101h1v1h-1z M57,101h1v1h-1z M59,101h1v1h-1z M60,101h1v1h-1z M62,101h1v1h-1z M65,101h1v1h-1z M66,101h1v1h-1z M68,101h1v1h-1z M71,101h1v1h-1z M72,101h1v1h-1z M73,101h1v1h-1z M76,101h1v1h-1z M80,101h1v1h-1z M83,101h1v1h-1z M86,101h1v1h-1z M87,101h1v1h-1z M88,101h1v1h-1z M90,101h1v1h-1z M92,101h1v1h-1z M93,101h1v1h-1z M94,101h1v1h-1z M96,101h1v1h-1z M98,101h1v1h-1z M100,101h1v1h-1z M104,101h1v1h-1z M108,101h1v1h-1z M4,102h1v1h-1z M5,102h1v1h-1z M6,102h1v1h-1z M7,102h1v1h-1z M8,102h1v1h-1z M9,102h1v1h-1z M10,102h1v1h-1z M13,102h1v1h-1z M19,102h1v1h-1z M21,102h1v1h-1z M22,102h1v1h-1z M25,102h1v1h-1z M27,102h1v1h-1z M28,102h1v1h-1z M30,102h1v1h-1z M32,102h1v1h-1z M38,102h1v1h-1z M41,102h1v1h-1z M43,102h1v1h-1z M44,102h1v1h-1z M45,102h1v1h-1z M47,102h1v1h-1z M48,102h1v1h-1z M50,102h1v1h-1z M51,102h1v1h-1z M52,102h1v1h-1z M54,102h1v1h-1z M56,102h1v1h-1z M62,102h1v1h-1z M64,102h1v1h-1z M65,102h1v1h-1z M67,102h1v1h-1z M71,102h1v1h-1z M74,102h1v1h-1z M75,102h1v1h-1z M76,102h1v1h-1z M78,102h1v1h-1z M80,102h1v1h-1z M83,102h1v1h-1z M84,102h1v1h-1z M86,102h1v1h-1z M89,102h1v1h-1z M91,102h1v1h-1z M95,102h1v1h-1z M96,102h1v1h-1z M97,102h1v1h-1z M98,102h1v1h-1z M99,102h1v1h-1z M100,102h1v1h-1z M102,102h1v1h-1z M104,102h1v1h-1z M106,102h1v1h-1z M107,102h1v1h-1z M4,103h1v1h-1z M10,103h1v1h-1z M12,103h1v1h-1z M13,103h1v1h-1z M15,103h1v1h-1z M16,103h1v1h-1z M17,103h1v1h-1z M19,103h1v1h-1z M20,103h1v1h-1z M21,103h1v1h-1z M25,103h1v1h-1z M26,103h1v1h-1z M28,103h1v1h-1z M32,103h1v1h-1z M35,103h1v1h-1z M38,103h1v1h-1z M44,103h1v1h-1z M46,103h1v1h-1z M50,103h1v1h-1z M51,103h1v1h-1z M52,103h1v1h-1z M56,103h1v1h-1z M57,103h1v1h-1z M59,103h1v1h-1z M61,103h1v1h-1z M62,103h1v1h-1z M65,103h1v1h-1z M68,103h1v1h-1z M69,103h1v1h-1z M70,103h1v1h-1z M71,103h1v1h-1z M73,103h1v1h-1z M74,103h1v1h-1z M75,103h1v1h-1z M76,103h1v1h-1z M80,103h1v1h-1z M81,103h1v1h-1z M83,103h1v1h-1z M89,103h1v1h-1z M90,103h1v1h-1z M92,103h1v1h-1z M94,103h1v1h-1z M99,103h1v1h-1z M100,103h1v1h-1z M104,103h1v1h-1z M108,103h1v1h-1z M4,104h1v1h-1z M6,104h1v1h-1z M7,104h1v1h-1z M8,104h1v1h-1z M10,104h1v1h-1z M12,104h1v1h-1z M14,104h1v1h-1z M15,104h1v1h-1z M17,104h1v1h-1z M19,104h1v1h-1z M24,104h1v1h-1z M25,104h1v1h-1z M28,104h1v1h-1z M29,104h1v1h-1z M30,104h1v1h-1z M31,104h1v1h-1z M32,104h1v1h-1z M34,104h1v1h-1z M35,104h1v1h-1z M36,104h1v1h-1z M37,104h1v1h-1z M39,104h1v1h-1z M41,104h1v1h-1z M43,104h1v1h-1z M45,104h1v1h-1z M48,104h1v1h-1z M50,104h1v1h-1z M52,104h1v1h-1z M53,104h1v1h-1z M54,104h1v1h-1z M55,104h1v1h-1z M56,104h1v1h-1z M59,104h1v1h-1z M60,104h1v1h-1z M66,104h1v1h-1z M68,104h1v1h-1z M69,104h1v1h-1z M70,104h1v1h-1z M71,104h1v1h-1z M72,104h1v1h-1z M73,104h1v1h-1z M76,104h1v1h-1z M77,104h1v1h-1z M78,104h1v1h-1z M79,104h1v1h-1z M80,104h1v1h-1z M81,104h1v1h-1z M82,104h1v1h-1z M87,104h1v1h-1z M89,104h1v1h-1z M90,104h1v1h-1z M94,104h1v1h-1z M95,104h1v1h-1z M98,104h1v1h-1z M100,104h1v1h-1z M101,104h1v1h-1z M102,104h1v1h-1z M103,104h1v1h-1z M104,104h1v1h-1z M106,104h1v1h-1z M107,104h1v1h-1z M4,105h1v1h-1z M6,105h1v1h-1z M7,105h1v1h-1z M8,105h1v1h-1z M10,105h1v1h-1z M15,105h1v1h-1z M16,105h1v1h-1z M18,105h1v1h-1z M19,105h1v1h-1z M20,105h1v1h-1z M23,105h1v1h-1z M25,105h1v1h-1z M28,105h1v1h-1z M29,105h1v1h-1z M32,105h1v1h-1z M34,105h1v1h-1z M35,105h1v1h-1z M37,105h1v1h-1z M38,105h1v1h-1z M39,105h1v1h-1z M40,105h1v1h-1z M41,105h1v1h-1z M42,105h1v1h-1z M46,105h1v1h-1z M47,105h1v1h-1z M48,105h1v1h-1z M49,105h1v1h-1z M51,105h1v1h-1z M52,105h1v1h-1z M53,105h1v1h-1z M54,105h1v1h-1z M56,105h1v1h-1z M59,105h1v1h-1z M64,105h1v1h-1z M65,105h1v1h-1z M71,105h1v1h-1z M74,105h1v1h-1z M75,105h1v1h-1z M77,105h1v1h-1z M84,105h1v1h-1z M86,105h1v1h-1z M87,105h1v1h-1z M88,105h1v1h-1z M89,105h1v1h-1z M90,105h1v1h-1z M91,105h1v1h-1z M92,105h1v1h-1z M94,105h1v1h-1z M95,105h1v1h-1z M97,105h1v1h-1z M100,105h1v1h-1z M101,105h1v1h-1z M102,105h1v1h-1z M104,105h1v1h-1z M105,105h1v1h-1z M106,105h1v1h-1z M107,105h1v1h-1z M108,105h1v1h-1z M4,106h1v1h-1z M6,106h1v1h-1z M7,106h1v1h-1z M8,106h1v1h-1z M10,106h1v1h-1z M16,106h1v1h-1z M17,106h1v1h-1z M18,106h1v1h-1z M23,106h1v1h-1z M28,106h1v1h-1z M31,106h1v1h-1z M35,106h1v1h-1z M36,106h1v1h-1z M38,106h1v1h-1z M40,106h1v1h-1z M41,106h1v1h-1z M43,106h1v1h-1z M44,106h1v1h-1z M47,106h1v1h-1z M48,106h1v1h-1z M50,106h1v1h-1z M51,106h1v1h-1z M52,106h1v1h-1z M53,106h1v1h-1z M55,106h1v1h-1z M62,106h1v1h-1z M63,106h1v1h-1z M64,106h1v1h-1z M65,106h1v1h-1z M72,106h1v1h-1z M73,106h1v1h-1z M74,106h1v1h-1z M75,106h1v1h-1z M80,106h1v1h-1z M83,106h1v1h-1z M86,106h1v1h-1z M87,106h1v1h-1z M88,106h1v1h-1z M89,106h1v1h-1z M91,106h1v1h-1z M92,106h1v1h-1z M95,106h1v1h-1z M96,106h1v1h-1z M97,106h1v1h-1z M98,106h1v1h-1z M101,106h1v1h-1z M104,106h1v1h-1z M105,106h1v1h-1z M4,107h1v1h-1z M10,107h1v1h-1z M12,107h1v1h-1z M14,107h1v1h-1z M15,107h1v1h-1z M16,107h1v1h-1z M17,107h1v1h-1z M18,107h1v1h-1z M20,107h1v1h-1z M21,107h1v1h-1z M23,107h1v1h-1z M24,107h1v1h-1z M26,107h1v1h-1z M29,107h1v1h-1z M30,107h1v1h-1z M32,107h1v1h-1z M33,107h1v1h-1z M34,107h1v1h-1z M39,107h1v1h-1z M41,107h1v1h-1z M44,107h1v1h-1z M49,107h1v1h-1z M50,107h1v1h-1z M53,107h1v1h-1z M56,107h1v1h-1z M59,107h1v1h-1z M61,107h1v1h-1z M62,107h1v1h-1z M66,107h1v1h-1z M68,107h1v1h-1z M69,107h1v1h-1z M71,107h1v1h-1z M73,107h1v1h-1z M77,107h1v1h-1z M78,107h1v1h-1z M80,107h1v1h-1z M81,107h1v1h-1z M83,107h1v1h-1z M86,107h1v1h-1z M92,107h1v1h-1z M93,107h1v1h-1z M99,107h1v1h-1z M100,107h1v1h-1z M104,107h1v1h-1z M4,108h1v1h-1z M5,108h1v1h-1z M6,108h1v1h-1z M7,108h1v1h-1z M8,108h1v1h-1z M9,108h1v1h-1z M10,108h1v1h-1z M12,108h1v1h-1z M16,108h1v1h-1z M17,108h1v1h-1z M19,108h1v1h-1z M21,108h1v1h-1z M23,108h1v1h-1z M28,108h1v1h-1z M30,108h1v1h-1z M31,108h1v1h-1z M35,108h1v1h-1z M36,108h1v1h-1z M38,108h1v1h-1z M39,108h1v1h-1z M40,108h1v1h-1z M41,108h1v1h-1z M43,108h1v1h-1z M44,108h1v1h-1z M45,108h1v1h-1z M48,108h1v1h-1z M50,108h1v1h-1z M53,108h1v1h-1z M54,108h1v1h-1z M56,108h1v1h-1z M58,108h1v1h-1z M62,108h1v1h-1z M64,108h1v1h-1z M65,108h1v1h-1z M66,108h1v1h-1z M67,108h1v1h-1z M68,108h1v1h-1z M69,108h1v1h-1z M72,108h1v1h-1z M78,108h1v1h-1z M79,108h1v1h-1z M81,108h1v1h-1z M83,108h1v1h-1z M84,108h1v1h-1z M85,108h1v1h-1z M87,108h1v1h-1z M88,108h1v1h-1z M89,108h1v1h-1z M90,108h1v1h-1z M91,108h1v1h-1z M92,108h1v1h-1z M93,108h1v1h-1z M95,108h1v1h-1z M97,108h1v1h-1z M99,108h1v1h-1z M100,108h1v1h-1z M108,108h1v1h-1z" fill="#000000"/>
</svg>
