<?xml version="1.0" encoding="UTF-8"?>
<!DOCTYPE svg PUBLIC "-//W3C//DTD SVG 1.1//EN" "http://www.w3.org/Graphics/SVG/1.1/DTD/svg11.dtd">
<svg xmlns="http://www.w3.org/2000/svg" version="1.1" viewBox="0 0 113 113" stroke="none">
	<rect width="100%" height="100%" fill="#FFFFFF"/>
	<path d="M4,4h1v1h-1z M5,4h1v1h-1z M6,4h1v1h-1z M7,4h1v1h-1z M8,4h1v1h-1z M9,4h1v1h-1z M10,4h1v1h-1z M12,4h1v1h-1z M13,4h1v1h-1z M17,4h1v1h-1z M21,4h1v1h-1z M22,4h1v1h-1z M30,4h1v1h-1z M31,4h1v1h-1z M33,4h1v1h-1z M34,4h1v1h-1z M36,4h1v1h-1z M37,4h1v1h-1z M47,4h1v1h-1z M48,4h1v1h-1z M50,4h1v1h-1z M54,4h1v1h-1z M55,4h1v1h-1z M57,4h1v1h-1z M60,4h1v1h-1z M61,4h1v1h-1z M62,4h1v1h-1z M64,4h1v1h-1z M66,4h1v1h-1z M68,4h1v1h-1z M72,4h1v1h-1z M73,4h1v1h-1z M74,4h1v1h-1z M75,4h1v1h-1z M78,4h1v1h-1z M80,4h1v1h-1z M81,4h1v1h-1z M83,4h1v1h-1z M84,4h1v1h-1z M85,4h1v1h-1z M86,4h1v1h-1z M87,4h1v1h-1z M90,4h1v1h-1z M91,4h1v1h-1z M92,4h1v1h-1z M93,4h1v1h-1z M96,4h1v1h-1z M98,4h1v1h-1z M102,4h1v1h-1z M103,4h1v1h-1z M104,4h1v1h-1z M105,4h1v1h-1z M106,4h1v1h-1z M107,4h1v1h-1z M108,4h1v1h-1z M4,5h1v1h-1z M10,5h1v1h-1z M12,5h1v1h-1z M14,5h1v1h-1z M15,5h1v1h-1z M18,5h1v1h-1z M19,5h1v1h-1z M20,5h1v1h-1z M21,5h1v1h-1z M23,5h1v1h-1z M30,5h1v1h-1z M31,5h1v1h-1z M33,5h1v1h-1z M34,5h1v1h-1z M39,5h1v1h-1z M40,5h1v1h-1z M42,5h1v1h-1z M43,5h1v1h-1z M45,5h1v1h-1z M46,5h1v1h-1z M47,5h1v1h-1z M49,5h1v1h-1z M54,5h1v1h-1z M56,5h1v1h-1z M57,5h1v1h-1z M58,5h1v1h-1z M59,5h1v1h-1z M60,5h1v1h-1z M61,5h1v1h-1z M66,5h1v1h-1z M68,5h1v1h-1z M69,5h1v1h-1z M70,5h1v1h-1z M71,5h1v1h-1z M72,5h1v1h-1z M73,5h1v1h-1z M77,5h1v1h-1z M78,5h1v1h-1z M79,5h1v1h-1z M81,5h1v1h-1z M82,5h1v1h-1z M83,5h1v1h-1z M85,5h1v1h-1z M90,5h1v1h-1z M92,5h1v1h-1z M94,5h1v1h-1z M95,5h1v1h-1z M96,5h1v1h-1z M98,5h1v1h-1z M102,5h1v1h-1z M108,5h1v1h-1z M4,6h1v1h-1z M6,6h1v1h-1z M7,6h1v1h-1z M8,6h1v1h-1z M10,6h1v1h-1z M12,6h1v1h-1z M13,6h1v1h-1z M21,6h1v1h-1z M24,6h1v1h-1z M25,6h1v1h-1z M26,6h1v1h-1z M32,6h1v1h-1z M44,6h1v1h-1z M45,6h1v1h-1z M46,6h1v1h-1z M47,6h1v1h-1z M49,6h1v1h-1z M56,6h1v1h-1z M59,6h1v1h-1z M61,6h1v1h-1z M62,6h1v1h-1z M67,6h1v1h-1z M68,6h1v1h-1z M71,6h1v1h-1z M73,6h1v1h-1z M74,6h1v1h-1z M75,6h1v1h-1z M78,6h1v1h-1z M80,6h1v1h-1z M81,6h1v1h-1z M82,6h1v1h-1z M83,6h1v1h-1z M85,6h1v1h-1z M92,6h1v1h-1z M94,6h1v1h-1z M95,6h1v1h-1z M97,6h1v1h-1z M98,6h1v1h-1z M99,6h1v1h-1z M102,6h1v1h-1z M104,6h1v1h-1z M105,6h1v1h-1z M106,6h1v1h-1z M108,6h1v1h-1z M4,7h1v1h-1z M6,7h1v1h-1z M7,7h1v1h-1z M8,7h1v1h-1z M10,7h1v1h-1z M12,7h1v1h-1z M13,7h1v1h-1z M14,7h1v1h-1z M15,7h1v1h-1z M16,7h1v1h-1z M23,7h1v1h-1z M24,7h1v1h-1z M25,7h1v1h-1z M29,7h1v1h-1z M31,7h1v1h-1z M32,7h1v1h-1z M33,7h1v1h-1z M34,7h1v1h-1z M35,7h1v1h-1z M36,7h1v1h-1z M38,7h1v1h-1z M39,7h1v1h-1z M42,7h1v1h-1z M45,7h1v1h-1z M48,7h1v1h-1z M52,7h1v1h-1z M53,7h1v1h-1z M54,7h1v1h-1z M55,7h1v1h-1z M57,7h1v1h-1z M60,7h1v1h-1z M61,7h1v1h-1z M65,7h1v1h-1z M67,7h1v1h-1z M69,7h1v1h-1z M70,7h1v1h-1z M71,7h1v1h-1z M77,7h1v1h-1z M79,7h1v1h-1z M81,7h1v1h-1z M83,7h1v1h-1z M84,7h1v1h-1z M85,7h1v1h-1z M89,7h1v1h-1z M93,7h1v1h-1z M100,7h1v1h-1z M102,7h1v1h-1z M104,7h1v1h-1z M105,7h1v1h-1z M106,7h1v1h-1z M108,7h1v1h-1z M4,8h1v1h-1z M6,8h1v1h-1z M7,8h1v1h-1z M8,8h1v1h-1z M10,8h1v1h-1z M14,8h1v1h-1z M15,8h1v1h-1z M16,8h1v1h-1z M20,8h1v1h-1z M21,8h1v1h-1z M22,8h1v1h-1z M24,8h1v1h-1z M26,8h1v1h-1z M28,8h1v1h-1z M29,8h1v1h-1z M30,8h1v1h-1z M31,8h1v1h-1z M32,8h1v1h-1z M34,8h1v1h-1z M36,8h1v1h-1z M37,8h1v1h-1z M39,8h1v1h-1z M40,8h1v1h-1z M41,8h1v1h-1z M43,8h1v1h-1z M45,8h1v1h-1z M46,8h1v1h-1z M47,8h1v1h-1z M49,8h1v1h-1z M52,8h1v1h-1z M53,8h1v1h-1z M54,8h1v1h-1z M55,8h1v1h-1z M56,8h1v1h-1z M57,8h1v1h-1z M58,8h1v1h-1z M59,8h1v1h-1z M60,8h1v1h-1z M61,8h1v1h-1z M64,8h1v1h-1z M65,8h1v1h-1z M69,8h1v1h-1z M70,8h1v1h-1z M71,8h1v1h-1z M74,8h1v1h-1z M76,8h1v1h-1z M77,8h1v1h-1z M78,8h1v1h-1z M79,8h1v1h-1z M80,8h1v1h-1z M83,8h1v1h-1z M85,8h1v1h-1z M87,8h1v1h-1z M88,8h1v1h-1z M89,8h1v1h-1z M91,8h1v1h-1z M99,8h1v1h-1z M100,8h1v1h-1z M102,8h1v1h-1z M104,8h1v1h-1z M105,8h1v1h-1z M106,8h1v1h-1z M108,8h1v1h-1z M4,9h1v1h-1z M10,9h1v1h-1z M12,9h1v1h-1z M15,9h1v1h-1z M16,9h1v1h-1z M18,9h1v1h-1z M24,9h1v1h-1z M27,9h1v1h-1z M28,9h1v1h-1z M32,9h1v1h-1z M33,9h1v1h-1z M34,9h1v1h-1z M35,9h1v1h-1z M36,9h1v1h-1z M37,9h1v1h-1z M42,9h1v1h-1z M46,9h1v1h-1z M47,9h1v1h-1z M49,9h1v1h-1z M51,9h1v1h-1z M52,9h1v1h-1z M56,9h1v1h-1z M57,9h1v1h-1z M58,9h1v1h-1z M61,9h1v1h-1z M63,9h1v1h-1z M64,9h1v1h-1z M66,9h1v1h-1z M69,9h1v1h-1z M70,9h1v1h-1z M73,9h1v1h-1z M75,9h1v1h-1z M76,9h1v1h-1z M80,9h1v1h-1z M81,9h1v1h-1z M82,9h1v1h-1z M83,9h1v1h-1z M87,9h1v1h-1z M88,9h1v1h-1z M90,9h1v1h-1z M92,9h1v1h-1z M94,9h1v1h-1z M95,9h1v1h-1z M97,9h1v1h-1z M99,9h1v1h-1z M102,9h1v1h-1z M108,9h1v1h-1z M4,10h1v1h-1z M5,10h1v1h-1z M6,10h1v1h-1z M7,10h1v1h-1z M8,10h1v1h-1z M9,10h1v1h-1z M10,10h1v1h-1z M12,10h1v1h-1z M14,10h1v1h-1z M16,10h1v1h-1z M18,10h1v1h-1z M20,10h1v1h-1z M22,10h1v1h-1z M24,10h1v1h-1z M26,10h1v1h-1z M28,10h1v1h-1z M30,10h1v1h-1z M32,10h1v1h-1z M34,10h1v1h-1z M36,10h1v1h-1z M38,10h1v1h-1z M40,10h1v1h-1z M42,10h1v1h-1z M44,10h1v1h-1z M46,10h1v1h-1z M48,10h1v1h-1z M50,10h1v1h-1z M52,10h1v1h-1z M54,10h1v1h-1z M56,10h1v1h-1z M58,10h1v1h-1z M60,10h1v1h-1z M62,10h1v1h-1z M64,10h1v1h-1z M66,10h1v1h-1z M68,10h1v1h-1z M70,10h1v1h-1z M72,10h1v1h-1z M74,10h1v1h-1z M76,10h1v1h-1z M78,10h1v1h-1z M80,10h1v1h-1z M82,10h1v1h-1z M84,10h1v1h-1z M86,10h1v1h-1z M88,10h1v1h-1z M90,10h1v1h-1z M92,10h1v1h-1z M94,10h1v1h-1z M96,10h1v1h-1z M98,10h1v1h-1z M100,10h1v1h-1z M102,10h1v1h-1z M103,10h1v1h-1z M104,10h1v1h-1z M105,10h1v1h-1z M106,10h1v1h-1z M107,10h1v1h-1z M108,10h1v1h-1z M13,11h1v1h-1z M14,11h1v1h-1z M19,11h1v1h-1z M20,11h1v1h-1z M22,11h1v1h-1z M27,11h1v1h-1z M28,11h1v1h-1z M32,11h1v1h-1z M33,11h1v1h-1z M34,11h1v1h-1z M35,11h1v1h-1z M37,11h1v1h-1z M41,11h1v1h-1z M42,11h1v1h-1z M44,11h1v1h-1z M46,11h1v1h-1z M49,11h1v1h-1z M51,11h1v1h-1z M52,11h1v1h-1z M56,11h1v1h-1z M59,11h1v1h-1z M61,11h1v1h-1z M65,11h1v1h-1z M66,11h1v1h-1z M68,11h1v1h-1z M69,11h1v1h-1z M71,11h1v1h-1z M73,11h1v1h-1z M74,11h1v1h-1z M75,11h1v1h-1z M76,11h1v1h-1z M80,11h1v1h-1z M81,11h1v1h-1z M83,11h1v1h-1z M90,11h1v1h-1z M91,11h1v1h-1z M92,11h1v1h-1z M93,11h1v1h-1z M94,11h1v1h-1z M95,11h1v1h-1z M97,11h1v1h-1z M99,11h1v1h-1z M100,11h1v1h-1z M4,12h1v1h-1z M5,12h1v1h-1z M8,12h1v1h-1z M9,12h1v1h-1z M10,12h1v1h-1z M14,12h1v1h-1z M16,12h1v1h-1z M19,12h1v1h-1z M21,12h1v1h-1z M22,12h1v1h-1z M27,12h1v1h-1z M28,12h1v1h-1z M29,12h1v1h-1z M30,12h1v1h-1z M31,12h1v1h-1z M32,12h1v1h-1z M36,12h1v1h-1z M38,12h1v1h-1z M40,12h1v1h-1z M42,12h1v1h-1z M45,12h1v1h-1z M46,12h1v1h-1z M49,12h1v1h-1z M50,12h1v1h-1z M51,12h1v1h-1z M52,12h1v1h-1z M53,12h1v1h-1z M54,12h1v1h-1z M55,12h1v1h-1z M56,12h1v1h-1z M57,12h1v1h-1z M58,12h1v1h-1z M61,12h1v1h-1z M64,12h1v1h-1z M65,12h1v1h-1z M66,12h1v1h-1z M68,12h1v1h-1z M71,12h1v1h-1z M72,12h1v1h-1z M76,12h1v1h-1z M77,12h1v1h-1z M78,12h1v1h-1z M79,12h1v1h-1z M80,12h1v1h-1z M83,12h1v1h-1z M84,12h1v1h-1z M85,12h1v1h-1z M86,12h1v1h-1z M87,12h1v1h-1z M89,12h1v1h-1z M93,12h1v1h-1z M94,12h1v1h-1z M95,12h1v1h-1z M98,12h1v1h-1z M99,12h1v1h-1z M100,12h1v1h-1z M103,12h1v1h-1z M105,12h1v1h-1z M106,12h1v1h-1z M107,12h1v1h-1z M108,12h1v1h-1z M4,13h1v1h-1z M7,13h1v1h-1z M8,13h1v1h-1z M11,13h1v1h-1z M12,13h1v1h-1z M13,13h1v1h-1z M14,13h1v1h-1z M15,13h1v1h-1z M16,13h1v1h-1z M17,13h1v1h-1z M18,13h1v1h-1z M26,13h1v1h-1z M27,13h1v1h-1z M28,13h1v1h-1z M29,13h1v1h-1z M34,13h1v1h-1z M35,13h1v1h-1z M36,13h1v1h-1z M37,13h1v1h-1z M41,13h1v1h-1z M42,13h1v1h-1z M44,13h1v1h-1z M45,13h1v1h-1z M51,13h1v1h-1z M52,13h1v1h-1z M53,13h1v1h-1z M54,13h1v1h-1z M56,13h1v1h-1z M57,13h1v1h-1z M58,13h1v1h-1z M60,13h1v1h-1z M61,13h1v1h-1z M63,13h1v1h-1z M64,13h1v1h-1z M68,13h1v1h-1z M71,13h1v1h-1z M72,13h1v1h-1z M73,13h1v1h-1z M75,13h1v1h-1z M76,13h1v1h-1z M78,13h1v1h-1z M80,13h1v1h-1z M88,13h1v1h-1z M91,13h1v1h-1z M93,13h1v1h-1z M98,13h1v1h-1z M99,13h1v1h-1z M100,13h1v1h-1z M101,13h1v1h-1z M102,13h1v1h-1z M103,13h1v1h-1z M104,13h1v1h-1z M106,13h1v1h-1z M107,13h1v1h-1z M108,13h1v1h-1z M5,14h1v1h-1z M6,14h1v1h-1z M8,14h1v1h-1z M9,14h1v1h-1z M10,14h1v1h-1z M11,14h1v1h-1z M14,14h1v1h-1z M15,14h1v1h-1z M16,14h1v1h-1z M17,14h1v1h-1z M18,14h1v1h-1z M19,14h1v1h-1z M22,14h1v1h-1z M23,14h1v1h-1z M26,14h1v1h-1z M27,14h1v1h-1z M28,14h1v1h-1z M29,14h1v1h-1z M31,14h1v1h-1z M35,14h1v1h-1z M36,14h1v1h-1z M37,14h1v1h-1z M38,14h1v1h-1z M39,14h1v1h-1z M41,14h1v1h-1z M43,14h1v1h-1z M44,14h1v1h-1z M47,14h1v1h-1z M48,14h1v1h-1z M50,14h1v1h-1z M52,14h1v1h-1z M53,14h1v1h-1z M55,14h1v1h-1z M61,14h1v1h-1z M62,14h1v1h-1z M64,14h1v1h-1z M65,14h1v1h-1z M72,14h1v1h-1z M74,14h1v1h-1z M76,14h1v1h-1z M77,14h1v1h-1z M79,14h1v1h-1z M80,14h1v1h-1z M86,14h1v1h-1z M87,14h1v1h-1z M89,14h1v1h-1z M92,14h1v1h-1z M96,14h1v1h-1z M98,14h1v1h-1z M99,14h1v1h-1z M101,14h1v1h-1z M104,14h1v1h-1z M105,14h1v1h-1z M107,14h1v1h-1z M4,15h1v1h-1z M6,15h1v1h-1z M9,15h1v1h-1z M11,15h1v1h-1z M12,15h1v1h-1z M13,15h1v1h-1z M14,15h1v1h-1z M17,15h1v1h-1z M18,15h1v1h-1z M22,15h1v1h-1z M23,15h1v1h-1z M25,15h1v1h-1z M27,15h1v1h-1z M28,15h1v1h-1z M32,15h1v1h-1z M33,15h1v1h-1z M35,15h1v1h-1z M41,15h1v1h-1z M44,15h1v1h-1z M47,15h1v1h-1z M52,15h1v1h-1z M53,15h1v1h-1z M54,15h1v1h-1z M56,15h1v1h-1z M57,15h1v1h-1z M58,15h1v1h-1z M59,15h1v1h-1z M63,15h1v1h-1z M66,15h1v1h-1z M68,15h1v1h-1z M69,15h1v1h-1z M71,15h1v1h-1z M73,15h1v1h-1z M74,15h1v1h-1z M78,15h1v1h-1z M80,15h1v1h-1z M81,15h1v1h-1z M82,15h1v1h-1z M83,15h1v1h-1z M86,15h1v1h-1z M90,15h1v1h-1z M92,15h1v1h-1z M93,15h1v1h-1z M95,15h1v1h-1z M97,15h1v1h-1z M101,15h1v1h-1z M103,15h1v1h-1z M104,15h1v1h-1z M108,15h1v1h-1z M5,16h1v1h-1z M7,16h1v1h-1z M8,16h1v1h-1z M10,16h1v1h-1z M12,16h1v1h-1z M15,16h1v1h-1z M18,16h1v1h-1z M19,16h1v1h-1z M20,16h1v1h-1z M22,16h1v1h-1z M24,16h1v1h-1z M26,16h1v1h-1z M28,16h1v1h-1z M29,16h1v1h-1z M31,16h1v1h-1z M33,16h1v1h-1z M34,16h1v1h-1z M37,16h1v1h-1z M38,16h1v1h-1z M39,16h1v1h-1z M40,16h1v1h-1z M41,16h1v1h-1z M42,16h1v1h-1z M43,16h1v1h-1z M44,16h1v1h-1z M49,16h1v1h-1z M50,16h1v1h-1z M51,16h1v1h-1z M52,16h1v1h-1z M54,16h1v1h-1z M55,16h1v1h-1z M56,16h1v1h-1z M57,16h1v1h-1z M58,16h1v1h-1z M60,16h1v1h-1z M61,16h1v1h-1z M63,16h1v1h-1z M64,16h1v1h-1z M67,16h1v1h-1z M68,16h1v1h-1z M70,16h1v1h-1z M72,16h1v1h-1z M75,16h1v1h-1z M77,16h1v1h-1z M78,16h1v1h-1z M80,16h1v1h-1z M81,16h1v1h-1z M82,16h1v1h-1z M84,16h1v1h-1z M86,16h1v1h-1z M87,16h1v1h-1z M91,16h1v1h-1z M92,16h1v1h-1z M93,16h1v1h-1z M94,16h1v1h-1z M95,16h1v1h-1z M96,16h1v1h-1z M99,16h1v1h-1z M100,16h1v1h-1z M102,16h1v1h-1z M105,16h1v1h-1z M106,16h1v1h-1z M107,16h1v1h-1z M108,16h1v1h-1z M7,17h1v1h-1z M11,17h1v1h-1z M12,17h1v1h-1z M14,17h1v1h-1z M16,17h1v1h-1z M17,17h1v1h-1z M18,17h1v1h-1z M20,17h1v1h-1z M23,17h1v1h-1z M24,17h1v1h-1z M27,17h1v1h-1z M28,17h1v1h-1z M29,17h1v1h-1z M30,17h1v1h-1z M31,17h1v1h-1z M36,17h1v1h-1z M37,17h1v1h-1z M45,17h1v1h-1z M46,17h1v1h-1z M48,17h1v1h-1z M50,17h1v1h-1z M51,17h1v1h-1z M52,17h1v1h-1z M53,17h1v1h-1z M54,17h1v1h-1z M55,17h1v1h-1z M59,17h1v1h-1z M61,17h1v1h-1z M62,17h1v1h-1z M63,17h1v1h-1z M65,17h1v1h-1z M67,17h1v1h-1z M70,17h1v1h-1z M71,17h1v1h-1z M73,17h1v1h-1z M76,17h1v1h-1z M77,17h1v1h-1z M78,17h1v1h-1z M83,17h1v1h-1z M85,17h1v1h-1z M86,17h1v1h-1z M88,17h1v1h-1z M91,17h1v1h-1z M92,17h1v1h-1z M96,17h1v1h-1z M97,17h1v1h-1z M101,17h1v1h-1z M103,17h1v1h-1z M104,17h1v1h-1z M4,18h1v1h-1z M6,18h1v1h-1z M7,18h1v1h-1z M8,18h1v1h-1z M10,18h1v1h-1z M13,18h1v1h-1z M15,18h1v1h-1z M18,18h1v1h-1z M19,18h1v1h-1z M20,18h1v1h-1z M26,18h1v1h-1z M27,18h1v1h-1z M28,18h1v1h-1z M29,18h1v1h-1z M31,18h1v1h-1z M35,18h1v1h-1z M38,18h1v1h-1z M39,18h1v1h-1z M40,18h1v1h-1z M41,18h1v1h-1z M44,18h1v1h-1z M50,18h1v1h-1z M51,18h1v1h-1z M52,18h1v1h-1z M53,18h1v1h-1z M56,18h1v1h-1z M57,18h1v1h-1z M59,18h1v1h-1z M60,18h1v1h-1z M61,18h1v1h-1z M62,18h1v1h-1z M63,18h1v1h-1z M65,18h1v1h-1z M71,18h1v1h-1z M72,18h1v1h-1z M74,18h1v1h-1z M75,18h1v1h-1z M77,18h1v1h-1z M79,18h1v1h-1z M80,18h1v1h-1z M83,18h1v1h-1z M84,18h1v1h-1z M86,18h1v1h-1z M88,18h1v1h-1z M92,18h1v1h-1z M93,18h1v1h-1z M96,18h1v1h-1z M98,18h1v1h-1z M99,18h1v1h-1z M101,18h1v1h-1z M104,18h1v1h-1z M105,18h1v1h-1z M107,18h1v1h-1z M4,19h1v1h-1z M6,19h1v1h-1z M12,19h1v1h-1z M14,19h1v1h-1z M17,19h1v1h-1z M20,19h1v1h-1z M23,19h1v1h-1z M24,19h1v1h-1z M25,19h1v1h-1z M28,19h1v1h-1z M32,19h1v1h-1z M34,19h1v1h-1z M35,19h1v1h-1z M37,19h1v1h-1z M42,19h1v1h-1z M44,19h1v1h-1z M47,19h1v1h-1z M52,19h1v1h-1z M56,19h1v1h-1z M58,19h1v1h-1z M65,19h1v1h-1z M68,19h1v1h-1z M71,19h1v1h-1z M73,19h1v1h-1z M75,19h1v1h-1z M76,19h1v1h-1z M77,19h1v1h-1z M78,19h1v1h-1z M80,19h1v1h-1z M81,19h1v1h-1z M83,19h1v1h-1z M85,19h1v1h-1z M86,19h1v1h-1z M90,19h1v1h-1z M92,19h1v1h-1z M94,19h1v1h-1z M99,19h1v1h-1z M101,19h1v1h-1z M104,19h1v1h-1z M107,19h1v1h-1z M108,19h1v1h-1z M6,20h1v1h-1z M8,20h1v1h-1z M9,20h1v1h-1z M10,20h1v1h-1z M12,20h1v1h-1z M13,20h1v1h-1z M16,20h1v1h-1z M17,20h1v1h-1z M18,20h1v1h-1z M19,20h1v1h-1z M20,20h1v1h-1z M22,20h1v1h-1z M25,20h1v1h-1z M28,20h1v1h-1z M29,20h1v1h-1z M31,20h1v1h-1z M34,20h1v1h-1z M36,20h1v1h-1z M41,20h1v1h-1z M42,20h1v1h-1z M43,20h1v1h-1z M44,20h1v1h-1z M46,20h1v1h-1z M51,20h1v1h-1z M53,20h1v1h-1z M55,20h1v1h-1z M57,20h1v1h-1z M58,20h1v1h-1z M59,20h1v1h-1z M60,20h1v1h-1z M63,20h1v1h-1z M66,20h1v1h-1z M67,20h1v1h-1z M70,20h1v1h-1z M72,20h1v1h-1z M74,20h1v1h-1z M75,20h1v1h-1z M78,20h1v1h-1z M79,20h1v1h-1z M80,20h1v1h-1z M81,20h1v1h-1z M82,20h1v1h-1z M84,20h1v1h-1z M87,20h1v1h-1z M88,20h1v1h-1z M89,20h1v1h-1z M92,20h1v1h-1z M96,20h1v1h-1z M98,20h1v1h-1z M99,20h1v1h-1z M100,20h1v1h-1z M101,20h1v1h-1z M102,20h1v1h-1z M103,20h1v1h-1z M106,20h1v1h-1z M107,20h1v1h-1z M108,20h1v1h-1z M4,21h1v1h-1z M7,21h1v1h-1z M8,21h1v1h-1z M14,21h1v1h-1z M16,21h1v1h-1z M19,21h1v1h-1z M22,21h1v1h-1z M25,21h1v1h-1z M26,21h1v1h-1z M27,21h1v1h-1z M28,21h1v1h-1z M29,21h1v1h-1z M31,21h1v1h-1z M32,21h1v1h-1z M33,21h1v1h-1z M34,21h1v1h-1z M35,21h1v1h-1z M36,21h1v1h-1z M37,21h1v1h-1z M40,21h1v1h-1z M41,21h1v1h-1z M43,21h1v1h-1z M45,21h1v1h-1z M47,21h1v1h-1z M48,21h1v1h-1z M49,21h1v1h-1z M50,21h1v1h-1z M51,21h1v1h-1z M52,21h1v1h-1z M54,21h1v1h-1z M55,21h1v1h-1z M57,21h1v1h-1z M59,21h1v1h-1z M60,21h1v1h-1z M61,21h1v1h-1z M64,21h1v1h-1z M65,21h1v1h-1z M69,21h1v1h-1z M70,21h1v1h-1z M72,21h1v1h-1z M73,21h1v1h-1z M76,21h1v1h-1z M84,21h1v1h-1z M85,21h1v1h-1z M87,21h1v1h-1z M88,21h1v1h-1z M90,21h1v1h-1z M92,21h1v1h-1z M93,21h1v1h-1z M94,21h1v1h-1z M95,21h1v1h-1z M96,21h1v1h-1z M97,21h1v1h-1z M99,21h1v1h-1z M102,21h1v1h-1z M103,21h1v1h-1z M104,21h1v1h-1z M105,21h1v1h-1z M106,21h1v1h-1z M107,21h1v1h-1z M108,21h1v1h-1z M4,22h1v1h-1z M5,22h1v1h-1z M7,22h1v1h-1z M10,22h1v1h-1z M11,22h1v1h-1z M12,22h1v1h-1z M14,22h1v1h-1z M15,22h1v1h-1z M16,22h1v1h-1z M17,22h1v1h-1z M18,22h1v1h-1z M19,22h1v1h-1z M20,22h1v1h-1z M21,22h1v1h-1z M26,22h1v1h-1z M27,22h1v1h-1z M31,22h1v1h-1z M33,22h1v1h-1z M35,22h1v1h-1z M38,22h1v1h-1z M41,22h1v1h-1z M50,22h1v1h-1z M51,22h1v1h-1z M53,22h1v1h-1z M55,22h1v1h-1z M56,22h1v1h-1z M61,22h1v1h-1z M62,22h1v1h-1z M64,22h1v1h-1z M65,22h1v1h-1z M69,22h1v1h-1z M71,22h1v1h-1z M72,22h1v1h-1z M74,22h1v1h-1z M77,22h1v1h-1z M80,22h1v1h-1z M83,22h1v1h-1z M84,22h1v1h-1z M86,22h1v1h-1z M88,22h1v1h-1z M89,22h1v1h-1z M93,22h1v1h-1z M95,22h1v1h-1z M98,22h1v1h-1z M100,22h1v1h-1z M103,22h1v1h-1z M104,22h1v1h-1z M105,22h1v1h-1z M106,22h1v1h-1z M107,22h1v1h-1z M5,23h1v1h-1z M7,23h1v1h-1z M8,23h1v1h-1z M11,23h1v1h-1z M16,23h1v1h-1z M20,23h1v1h-1z M21,23h1v1h-1z M22,23h1v1h-1z M24,23h1v1h-1z M26,23h1v1h-1z M27,23h1v1h-1z M28,23h1v1h-1z M29,23h1v1h-1z M30,23h1v1h-1z M32,23h1v1h-1z M34,23h1v1h-1z M35,23h1v1h-1z M37,23h1v1h-1z M42,23h1v1h-1z M44,23h1v1h-1z M45,23h1v1h-1z M46,23h1v1h-1z M47,23h1v1h-1z M49,23h1v1h-1z M50,23h1v1h-1z M53,23h1v1h-1z M54,23h1v1h-1z M56,23h1v1h-1z M59,23h1v1h-1z M63,23h1v1h-1z M66,23h1v1h-1z M68,23h1v1h-1z M70,23h1v1h-1z M73,23h1v1h-1z M74,23h1v1h-1z M77,23h1v1h-1z M78,23h1v1h-1z M80,23h1v1h-1z M81,23h1v1h-1z M87,23h1v1h-1z M89,23h1v1h-1z M91,23h1v1h-1z M92,23h1v1h-1z M93,23h1v1h-1z M94,23h1v1h-1z M95,23h1v1h-1z M97,23h1v1h-1z M98,23h1v1h-1z M101,23h1v1h-1z M104,23h1v1h-1z M105,23h1v1h-1z M108,23h1v1h-1z M4,24h1v1h-1z M5,24h1v1h-1z M6,24h1v1h-1z M9,24h1v1h-1z M10,24h1v1h-1z M12,24h1v1h-1z M13,24h1v1h-1z M14,24h1v1h-1z M16,24h1v1h-1z M20,24h1v1h-1z M21,24h1v1h-1z M22,24h1v1h-1z M23,24h1v1h-1z M26,24h1v1h-1z M27,24h1v1h-1z M28,24h1v1h-1z M29,24h1v1h-1z M32,24h1v1h-1z M35,24h1v1h-1z M40,24h1v1h-1z M42,24h1v1h-1z M44,24h1v1h-1z M45,24h1v1h-1z M51,24h1v1h-1z M53,24h1v1h-1z M54,24h1v1h-1z M56,24h1v1h-1z M57,24h1v1h-1z M58,24h1v1h-1z M59,24h1v1h-1z M60,24h1v1h-1z M61,24h1v1h-1z M65,24h1v1h-1z M69,24h1v1h-1z M70,24h1v1h-1z M71,24h1v1h-1z M72,24h1v1h-1z M74,24h1v1h-1z M75,24h1v1h-1z M76,24h1v1h-1z M77,24h1v1h-1z M78,24h1v1h-1z M79,24h1v1h-1z M80,24h1v1h-1z M86,24h1v1h-1z M87,24h1v1h-1z M89,24h1v1h-1z M90,24h1v1h-1z M92,24h1v1h-1z M93,24h1v1h-1z M95,24h1v1h-1z M97,24h1v1h-1z M99,24h1v1h-1z M100,24h1v1h-1z M102,24h1v1h-1z M104,24h1v1h-1z M105,24h1v1h-1z M107,24h1v1h-1z M108,24h1v1h-1z M5,25h1v1h-1z M6,25h1v1h-1z M9,25h1v1h-1z M13,25h1v1h-1z M14,25h1v1h-1z M15,25h1v1h-1z M18,25h1v1h-1z M19,25h1v1h-1z M23,25h1v1h-1z M27,25h1v1h-1z M28,25h1v1h-1z M31,25h1v1h-1z M32,25h1v1h-1z M33,25h1v1h-1z M34,25h1v1h-1z M35,25h1v1h-1z M37,25h1v1h-1z M40,25h1v1h-1z M42,25h1v1h-1z M43,25h1v1h-1z M45,25h1v1h-1z M46,25h1v1h-1z M47,25h1v1h-1z M48,25h1v1h-1z M49,25h1v1h-1z M52,25h1v1h-1z M56,25h1v1h-1z M57,25h1v1h-1z M60,25h1v1h-1z M63,25h1v1h-1z M64,25h1v1h-1z M65,25h1v1h-1z M66,25h1v1h-1z M67,25h1v1h-1z M69,25h1v1h-1z M70,25h1v1h-1z M72,25h1v1h-1z M73,25h1v1h-1z M75,25h1v1h-1z M76,25h1v1h-1z M78,25h1v1h-1z M80,25h1v1h-1z M81,25h1v1h-1z M82,25h1v1h-1z M83,25h1v1h-1z M84,25h1v1h-1z M87,25h1v1h-1z M90,25h1v1h-1z M93,25h1v1h-1z M96,25h1v1h-1z M97,25h1v1h-1z M99,25h1v1h-1z M100,25h1v1h-1z M101,25h1v1h-1z M103,25h1v1h-1z M104,25h1v1h-1z M106,25h1v1h-1z M4,26h1v1h-1z M6,26h1v1h-1z M8,26h1v1h-1z M10,26h1v1h-1z M11,26h1v1h-1z M14,26h1v1h-1z M17,26h1v1h-1z M18,26h1v1h-1z M19,26h1v1h-1z M20,26h1v1h-1z M21,26h1v1h-1z M24,26h1v1h-1z M26,26h1v1h-1z M28,26h1v1h-1z M29,26h1v1h-1z M31,26h1v1h-1z M38,26h1v1h-1z M39,26h1v1h-1z M41,26h1v1h-1z M43,26h1v1h-1z M45,26h1v1h-1z M47,26h1v1h-1z M48,26h1v1h-1z M50,26h1v1h-1z M51,26h1v1h-1z M52,26h1v1h-1z M61,26h1v1h-1z M62,26h1v1h-1z M64,26h1v1h-1z M67,26h1v1h-1z M68,26h1v1h-1z M71,26h1v1h-1z M72,26h1v1h-1z M74,26h1v1h-1z M76,26h1v1h-1z M77,26h1v1h-1z M85,26h1v1h-1z M86,26h1v1h-1z M87,26h1v1h-1z M89,26h1v1h-1z M91,26h1v1h-1z M95,26h1v1h-1z M96,26h1v1h-1z M98,26h1v1h-1z M99,26h1v1h-1z M103,26h1v1h-1z M104,26h1v1h-1z M105,26h1v1h-1z M4,27h1v1h-1z M5,27h1v1h-1z M6,27h1v1h-1z M8,27h1v1h-1z M9,27h1v1h-1z M11,27h1v1h-1z M12,27h1v1h-1z M13,27h1v1h-1z M14,27h1v1h-1z M15,27h1v1h-1z M16,27h1v1h-1z M19,27h1v1h-1z M20,27h1v1h-1z M21,27h1v1h-1z M23,27h1v1h-1z M27,27h1v1h-1z M32,27h1v1h-1z M33,27h1v1h-1z M34,27h1v1h-1z M35,27h1v1h-1z M37,27h1v1h-1z M38,27h1v1h-1z M41,27h1v1h-1z M42,27h1v1h-1z M44,27h1v1h-1z M46,27h1v1h-1z M47,27h1v1h-1z M50,27h1v1h-1z M51,27h1v1h-1z M53,27h1v1h-1z M54,27h1v1h-1z M55,27h1v1h-1z M56,27h1v1h-1z M57,27h1v1h-1z M59,27h1v1h-1z M61,27h1v1h-1z M66,27h1v1h-1z M68,27h1v1h-1z M73,27h1v1h-1z M77,27h1v1h-1z M80,27h1v1h-1z M81,27h1v1h-1z M82,27h1v1h-1z M83,27h1v1h-1z M89,27h1v1h-1z M91,27h1v1h-1z M92,27h1v1h-1z M94,27h1v1h-1z M97,27h1v1h-1z M99,27h1v1h-1z M100,27h1v1h-1z M101,27h1v1h-1z M5,28h1v1h-1z M6,28h1v1h-1z M8,28h1v1h-1z M9,28h1v1h-1z M10,28h1v1h-1z M11,28h1v1h-1z M12,28h1v1h-1z M13,28h1v1h-1z M14,28h1v1h-1z M17,28h1v1h-1z M18,28h1v1h-1z M19,28h1v1h-1z M20,28h1v1h-1z M22,28h1v1h-1z M23,28h1v1h-1z M25,28h1v1h-1z M26,28h1v1h-1z M27,28h1v1h-1z M28,28h1v1h-1z M29,28h1v1h-1z M30,28h1v1h-1z M31,28h1v1h-1z M32,28h1v1h-1z M36,28h1v1h-1z M38,28h1v1h-1z M40,28h1v1h-1z M42,28h1v1h-1z M43,28h1v1h-1z M46,28h1v1h-1z M49,28h1v1h-1z M52,28h1v1h-1z M53,28h1v1h-1z M54,28h1v1h-1z M55,28h1v1h-1z M56,28h1v1h-1z M59,28h1v1h-1z M60,28h1v1h-1z M62,28h1v1h-1z M64,28h1v1h-1z M65,28h1v1h-1z M67,28h1v1h-1z M68,28h1v1h-1z M69,28h1v1h-1z M76,28h1v1h-1z M77,28h1v1h-1z M78,28h1v1h-1z M79,28h1v1h-1z M80,28h1v1h-1z M85,28h1v1h-1z M86,28h1v1h-1z M87,28h1v1h-1z M88,28h1v1h-1z M89,28h1v1h-1z M91,28h1v1h-1z M92,28h1v1h-1z M93,28h1v1h-1z M94,28h1v1h-1z M97,28h1v1h-1z M99,28h1v1h-1z M100,28h1v1h-1z M101,28h1v1h-1z M102,28h1v1h-1z M103,28h1v1h-1z M104,28h1v1h-1z M106,28h1v1h-1z M107,28h1v1h-1z M108,28h1v1h-1z M4,29h1v1h-1z M5,29h1v1h-1z M8,29h1v1h-1z M12,29h1v1h-1z M13,29h1v1h-1z M15,29h1v1h-1z M16,29h1v1h-1z M17,29h1v1h-1z M19,29h1v1h-1z M23,29h1v1h-1z M28,29h1v1h-1z M32,29h1v1h-1z M34,29h1v1h-1z M36,29h1v1h-1z M37,29h1v1h-1z M38,29h1v1h-1z M42,29h1v1h-1z M43,29h1v1h-1z M45,29h1v1h-1z M47,29h1v1h-1z M48,29h1v1h-1z M52,29h1v1h-1z M56,29h1v1h-1z M57,29h1v1h-1z M58,29h1v1h-1z M63,29h1v1h-1z M64,29h1v1h-1z M66,29h1v1h-1z M69,29h1v1h-1z M71,29h1v1h-1z M76,29h1v1h-1z M80,29h1v1h-1z M85,29h1v1h-1z M90,29h1v1h-1z M91,29h1v1h-1z M92,29h1v1h-1z M93,29h1v1h-1z M96,29h1v1h-1z M98,29h1v1h-1z M100,29h1v1h-1z M104,29h1v1h-1z M105,29h1v1h-1z M106,29h1v1h-1z M4,30h1v1h-1z M5,30h1v1h-1z M7,30h1v1h-1z M8,30h1v1h-1z M10,30h1v1h-1z M12,30h1v1h-1z M14,30h1v1h-1z M15,30h1v1h-1z M19,30h1v1h-1z M22,30h1v1h-1z M23,30h1v1h-1z M24,30h1v1h-1z M26,30h1v1h-1z M28,30h1v1h-1z M30,30h1v1h-1z M32,30h1v1h-1z M38,30h1v1h-1z M40,30h1v1h-1z M41,30h1v1h-1z M44,30h1v1h-1z M47,30h1v1h-1z M48,30h1v1h-1z M50,30h1v1h-1z M52,30h1v1h-1z M54,30h1v1h-1z M56,30h1v1h-1z M57,30h1v1h-1z M59,30h1v1h-1z M60,30h1v1h-1z M62,30h1v1h-1z M64,30h1v1h-1z M65,30h1v1h-1z M67,30h1v1h-1z M74,30h1v1h-1z M76,30h1v1h-1z M78,30h1v1h-1z M80,30h1v1h-1z M86,30h1v1h-1z M87,30h1v1h-1z M88,30h1v1h-1z M89,30h1v1h-1z M91,30h1v1h-1z M95,30h1v1h-1z M96,30h1v1h-1z M98,30h1v1h-1z M100,30h1v1h-1z M102,30h1v1h-1z M104,30h1v1h-1z M4,31h1v1h-1z M5,31h1v1h-1z M6,31h1v1h-1z M7,31h1v1h-1z M8,31h1v1h-1z M12,31h1v1h-1z M13,31h1v1h-1z M14,31h1v1h-1z M15,31h1v1h-1z M17,31h1v1h-1z M18,31h1v1h-1z M19,31h1v1h-1z M25,31h1v1h-1z M27,31h1v1h-1z M28,31h1v1h-1z M32,31h1v1h-1z M34,31h1v1h-1z M35,31h1v1h-1z M37,31h1v1h-1z M41,31h1v1h-1z M42,31h1v1h-1z M44,31h1v1h-1z M47,31h1v1h-1z M49,31h1v1h-1z M51,31h1v1h-1z M52,31h1v1h-1z M56,31h1v1h-1z M58,31h1v1h-1z M59,31h1v1h-1z M62,31h1v1h-1z M68,31h1v1h-1z M69,31h1v1h-1z M70,31h1v1h-1z M71,31h1v1h-1z M73,31h1v1h-1z M74,31h1v1h-1z M75,31h1v1h-1z M76,31h1v1h-1z M80,31h1v1h-1z M81,31h1v1h-1z M83,31h1v1h-1z M92,31h1v1h-1z M95,31h1v1h-1z M97,31h1v1h-1z M98,31h1v1h-1z M100,31h1v1h-1z M104,31h1v1h-1z M108,31h1v1h-1z M4,32h1v1h-1z M5,32h1v1h-1z M8,32h1v1h-1z M9,32h1v1h-1z M10,32h1v1h-1z M11,32h1v1h-1z M12,32h1v1h-1z M13,32h1v1h-1z M14,32h1v1h-1z M18,32h1v1h-1z M19,32h1v1h-1z M21,32h1v1h-1z M22,32h1v1h-1z M24,32h1v1h-1z M25,32h1v1h-1z M26,32h1v1h-1z M27,32h1v1h-1z M28,32h1v1h-1z M29,32h1v1h-1z M30,32h1v1h-1z M31,32h1v1h-1z M32,32h1v1h-1z M33,32h1v1h-1z M34,32h1v1h-1z M40,32h1v1h-1z M42,32h1v1h-1z M43,32h1v1h-1z M44,32h1v1h-1z M47,32h1v1h-1z M48,32h1v1h-1z M49,32h1v1h-1z M51,32h1v1h-1z M52,32h1v1h-1z M53,32h1v1h-1z M54,32h1v1h-1z M55,32h1v1h-1z M56,32h1v1h-1z M58,32h1v1h-1z M61,32h1v1h-1z M64,32h1v1h-1z M65,32h1v1h-1z M66,32h1v1h-1z M67,32h1v1h-1z M69,32h1v1h-1z M70,32h1v1h-1z M71,32h1v1h-1z M72,32h1v1h-1z M75,32h1v1h-1z M76,32h1v1h-1z M77,32h1v1h-1z M78,32h1v1h-1z M79,32h1v1h-1z M80,32h1v1h-1z M83,32h1v1h-1z M84,32h1v1h-1z M89,32h1v1h-1z M93,32h1v1h-1z M95,32h1v1h-1z M100,32h1v1h-1z M101,32h1v1h-1z M102,32h1v1h-1z M103,32h1v1h-1z M104,32h1v1h-1z M105,32h1v1h-1z M106,32h1v1h-1z M108,32h1v1h-1z M4,33h1v1h-1z M11,33h1v1h-1z M13,33h1v1h-1z M16,33h1v1h-1z M17,33h1v1h-1z M18,33h1v1h-1z M19,33h1v1h-1z M22,33h1v1h-1z M24,33h1v1h-1z M26,33h1v1h-1z M27,33h1v1h-1z M28,33h1v1h-1z M34,33h1v1h-1z M36,33h1v1h-1z M37,33h1v1h-1z M38,33h1v1h-1z M39,33h1v1h-1z M40,33h1v1h-1z M41,33h1v1h-1z M45,33h1v1h-1z M47,33h1v1h-1z M50,33h1v1h-1z M51,33h1v1h-1z M52,33h1v1h-1z M55,33h1v1h-1z M56,33h1v1h-1z M57,33h1v1h-1z M58,33h1v1h-1z M59,33h1v1h-1z M66,33h1v1h-1z M67,33h1v1h-1z M72,33h1v1h-1z M74,33h1v1h-1z M75,33h1v1h-1z M78,33h1v1h-1z M82,33h1v1h-1z M84,33h1v1h-1z M86,33h1v1h-1z M91,33h1v1h-1z M93,33h1v1h-1z M96,33h1v1h-1z M97,33h1v1h-1z M98,33h1v1h-1z M99,33h1v1h-1z M101,33h1v1h-1z M102,33h1v1h-1z M103,33h1v1h-1z M4,34h1v1h-1z M9,34h1v1h-1z M10,34h1v1h-1z M11,34h1v1h-1z M12,34h1v1h-1z M13,34h1v1h-1z M15,34h1v1h-1z M16,34h1v1h-1z M17,34h1v1h-1z M27,34h1v1h-1z M31,34h1v1h-1z M32,34h1v1h-1z M33,34h1v1h-1z M36,34h1v1h-1z M38,34h1v1h-1z M39,34h1v1h-1z M41,34h1v1h-1z M43,34h1v1h-1z M44,34h1v1h-1z M45,34h1v1h-1z M48,34h1v1h-1z M50,34h1v1h-1z M51,34h1v1h-1z M56,34h1v1h-1z M59,34h1v1h-1z M60,34h1v1h-1z M62,34h1v1h-1z M63,34h1v1h-1z M65,34h1v1h-1z M67,34h1v1h-1z M69,34h1v1h-1z M72,34h1v1h-1z M73,34h1v1h-1z M74,34h1v1h-1z M76,34h1v1h-1z M86,34h1v1h-1z M87,34h1v1h-1z M89,34h1v1h-1z M91,34h1v1h-1z M92,34h1v1h-1z M95,34h1v1h-1z M96,34h1v1h-1z M98,34h1v1h-1z M99,34h1v1h-1z M100,34h1v1h-1z M105,34h1v1h-1z M107,34h1v1h-1z M5,35h1v1h-1z M6,35h1v1h-1z M7,35h1v1h-1z M8,35h1v1h-1z M14,35h1v1h-1z M15,35h1v1h-1z M20,35h1v1h-1z M21,35h1v1h-1z M22,35h1v1h-1z M25,35h1v1h-1z M26,35h1v1h-1z M28,35h1v1h-1z M31,35h1v1h-1z M32,35h1v1h-1z M34,35h1v1h-1z M35,35h1v1h-1z M37,35h1v1h-1z M44,35h1v1h-1z M45,35h1v1h-1z M46,35h1v1h-1z M47,35h1v1h-1z M49,35h1v1h-1z M52,35h1v1h-1z M53,35h1v1h-1z M55,35h1v1h-1z M57,35h1v1h-1z M58,35h1v1h-1z M59,35h1v1h-1z M65,35h1v1h-1z M66,35h1v1h-1z M68,35h1v1h-1z M70,35h1v1h-1z M71,35h1v1h-1z M80,35h1v1h-1z M81,35h1v1h-1z M83,35h1v1h-1z M85,35h1v1h-1z M86,35h1v1h-1z M90,35h1v1h-1z M92,35h1v1h-1z M94,35h1v1h-1z M97,35h1v1h-1z M98,35h1v1h-1z M99,35h1v1h-1z M100,35h1v1h-1z M101,35h1v1h-1z M104,35h1v1h-1z M108,35h1v1h-1z M6,36h1v1h-1z M9,36h1v1h-1z M10,36h1v1h-1z M13,36h1v1h-1z M14,36h1v1h-1z M15,36h1v1h-1z M16,36h1v1h-1z M17,36h1v1h-1z M18,36h1v1h-1z M21,36h1v1h-1z M24,36h1v1h-1z M29,36h1v1h-1z M31,36h1v1h-1z M34,36h1v1h-1z M39,36h1v1h-1z M42,36h1v1h-1z M43,36h1v1h-1z M44,36h1v1h-1z M47,36h1v1h-1z M49,36h1v1h-1z M53,36h1v1h-1z M55,36h1v1h-1z M60,36h1v1h-1z M61,36h1v1h-1z M62,36h1v1h-1z M64,36h1v1h-1z M67,36h1v1h-1z M69,36h1v1h-1z M71,36h1v1h-1z M72,36h1v1h-1z M74,36h1v1h-1z M77,36h1v1h-1z M79,36h1v1h-1z M81,36h1v1h-1z M82,36h1v1h-1z M84,36h1v1h-1z M86,36h1v1h-1z M87,36h1v1h-1z M89,36h1v1h-1z M91,36h1v1h-1z M92,36h1v1h-1z M94,36h1v1h-1z M95,36h1v1h-1z M98,36h1v1h-1z M102,36h1v1h-1z M104,36h1v1h-1z M106,36h1v1h-1z M107,36h1v1h-1z M6,37h1v1h-1z M8,37h1v1h-1z M13,37h1v1h-1z M15,37h1v1h-1z M16,37h1v1h-1z M18,37h1v1h-1z M19,37h1v1h-1z M20,37h1v1h-1z M21,37h1v1h-1z M24,37h1v1h-1z M26,37h1v1h-1z M28,37h1v1h-1z M31,37h1v1h-1z M36,37h1v1h-1z M39,37h1v1h-1z M43,37h1v1h-1z M44,37h1v1h-1z M48,37h1v1h-1z M49,37h1v1h-1z M50,37h1v1h-1z M52,37h1v1h-1z M53,37h1v1h-1z M54,37h1v1h-1z M55,37h1v1h-1z M56,37h1v1h-1z M59,37h1v1h-1z M60,37h1v1h-1z M63,37h1v1h-1z M67,37h1v1h-1z M70,37h1v1h-1z M72,37h1v1h-1z M73,37h1v1h-1z M74,37h1v1h-1z M75,37h1v1h-1z M76,37h1v1h-1z M78,37h1v1h-1z M79,37h1v1h-1z M81,37h1v1h-1z M82,37h1v1h-1z M83,37h1v1h-1z M84,37h1v1h-1z M85,37h1v1h-1z M86,37h1v1h-1z M87,37h1v1h-1z M88,37h1v1h-1z M92,37h1v1h-1z M93,37h1v1h-1z M96,37h1v1h-1z M98,37h1v1h-1z M99,37h1v1h-1z M10,38h1v1h-1z M11,38h1v1h-1z M12,38h1v1h-1z M13,38h1v1h-1z M18,38h1v1h-1z M19,38h1v1h-1z M20,38h1v1h-1z M21,38h1v1h-1z M23,38h1v1h-1z M24,38h1v1h-1z M25,38h1v1h-1z M27,38h1v1h-1z M31,38h1v1h-1z M35,38h1v1h-1z M36,38h1v1h-1z M38,38h1v1h-1z M41,38h1v1h-1z M43,38h1v1h-1z M48,38h1v1h-1z M50,38h1v1h-1z M53,38h1v1h-1z M54,38h1v1h-1z M56,38h1v1h-1z M59,38h1v1h-1z M62,38h1v1h-1z M64,38h1v1h-1z M65,38h1v1h-1z M68,38h1v1h-1z M74,38h1v1h-1z M75,38h1v1h-1z M77,38h1v1h-1z M78,38h1v1h-1z M79,38h1v1h-1z M83,38h1v1h-1z M85,38h1v1h-1z M86,38h1v1h-1z M87,38h1v1h-1z M88,38h1v1h-1z M89,38h1v1h-1z M91,38h1v1h-1z M96,38h1v1h-1z M98,38h1v1h-1z M101,38h1v1h-1z M106,38h1v1h-1z M107,38h1v1h-1z M4,39h1v1h-1z M7,39h1v1h-1z M9,39h1v1h-1z M12,39h1v1h-1z M14,39h1v1h-1z M16,39h1v1h-1z M18,39h1v1h-1z M20,39h1v1h-1z M23,39h1v1h-1z M26,39h1v1h-1z M27,39h1v1h-1z M28,39h1v1h-1z M31,39h1v1h-1z M32,39h1v1h-1z M33,39h1v1h-1z M35,39h1v1h-1z M37,39h1v1h-1z M42,39h1v1h-1z M44,39h1v1h-1z M45,39h1v1h-1z M46,39h1v1h-1z M47,39h1v1h-1z M49,39h1v1h-1z M50,39h1v1h-1z M52,39h1v1h-1z M53,39h1v1h-1z M56,39h1v1h-1z M58,39h1v1h-1z M59,39h1v1h-1z M61,39h1v1h-1z M62,39h1v1h-1z M65,39h1v1h-1z M66,39h1v1h-1z M68,39h1v1h-1z M71,39h1v1h-1z M73,39h1v1h-1z M74,39h1v1h-1z M76,39h1v1h-1z M77,39h1v1h-1z M83,39h1v1h-1z M90,39h1v1h-1z M92,39h1v1h-1z M93,39h1v1h-1z M94,39h1v1h-1z M95,39h1v1h-1z M99,39h1v1h-1z M100,39h1v1h-1z M101,39h1v1h-1z M103,39h1v1h-1z M104,39h1v1h-1z M4,40h1v1h-1z M6,40h1v1h-1z M7,40h1v1h-1z M8,40h1v1h-1z M9,40h1v1h-1z M10,40h1v1h-1z M12,40h1v1h-1z M14,40h1v1h-1z M18,40h1v1h-1z M19,40h1v1h-1z M20,40h1v1h-1z M21,40h1v1h-1z M22,40h1v1h-1z M23,40h1v1h-1z M31,40h1v1h-1z M40,40h1v1h-1z M43,40h1v1h-1z M45,40h1v1h-1z M47,40h1v1h-1z M50,40h1v1h-1z M52,40h1v1h-1z M55,40h1v1h-1z M59,40h1v1h-1z M61,40h1v1h-1z M64,40h1v1h-1z M66,40h1v1h-1z M67,40h1v1h-1z M69,40h1v1h-1z M70,40h1v1h-1z M77,40h1v1h-1z M82,40h1v1h-1z M83,40h1v1h-1z M85,40h1v1h-1z M89,40h1v1h-1z M90,40h1v1h-1z M91,40h1v1h-1z M92,40h1v1h-1z M97,40h1v1h-1z M98,40h1v1h-1z M99,40h1v1h-1z M100,40h1v1h-1z M102,40h1v1h-1z M104,40h1v1h-1z M105,40h1v1h-1z M107,40h1v1h-1z M6,41h1v1h-1z M7,41h1v1h-1z M8,41h1v1h-1z M11,41h1v1h-1z M12,41h1v1h-1z M15,41h1v1h-1z M16,41h1v1h-1z M17,41h1v1h-1z M19,41h1v1h-1z M21,41h1v1h-1z M23,41h1v1h-1z M25,41h1v1h-1z M27,41h1v1h-1z M28,41h1v1h-1z M29,41h1v1h-1z M30,41h1v1h-1z M31,41h1v1h-1z M34,41h1v1h-1z M36,41h1v1h-1z M37,41h1v1h-1z M38,41h1v1h-1z M44,41h1v1h-1z M45,41h1v1h-1z M47,41h1v1h-1z M56,41h1v1h-1z M59,41h1v1h-1z M61,41h1v1h-1z M62,41h1v1h-1z M63,41h1v1h-1z M64,41h1v1h-1z M68,41h1v1h-1z M69,41h1v1h-1z M70,41h1v1h-1z M71,41h1v1h-1z M72,41h1v1h-1z M73,41h1v1h-1z M75,41h1v1h-1z M79,41h1v1h-1z M80,41h1v1h-1z M81,41h1v1h-1z M82,41h1v1h-1z M86,41h1v1h-1z M88,41h1v1h-1z M89,41h1v1h-1z M91,41h1v1h-1z M92,41h1v1h-1z M94,41h1v1h-1z M95,41h1v1h-1z M97,41h1v1h-1z M99,41h1v1h-1z M100,41h1v1h-1z M101,41h1v1h-1z M103,41h1v1h-1z M106,41h1v1h-1z M4,42h1v1h-1z M7,42h1v1h-1z M9,42h1v1h-1z M10,42h1v1h-1z M11,42h1v1h-1z M12,42h1v1h-1z M20,42h1v1h-1z M23,42h1v1h-1z M25,42h1v1h-1z M26,42h1v1h-1z M27,42h1v1h-1z M30,42h1v1h-1z M31,42h1v1h-1z M35,42h1v1h-1z M36,42h1v1h-1z M38,42h1v1h-1z M40,42h1v1h-1z M41,42h1v1h-1z M43,42h1v1h-1z M48,42h1v1h-1z M49,42h1v1h-1z M50,42h1v1h-1z M51,42h1v1h-1z M54,42h1v1h-1z M55,42h1v1h-1z M56,42h1v1h-1z M62,42h1v1h-1z M71,42h1v1h-1z M74,42h1v1h-1z M75,42h1v1h-1z M77,42h1v1h-1z M78,42h1v1h-1z M79,42h1v1h-1z M80,42h1v1h-1z M84,42h1v1h-1z M85,42h1v1h-1z M86,42h1v1h-1z M87,42h1v1h-1z M89,42h1v1h-1z M92,42h1v1h-1z M98,42h1v1h-1z M99,42h1v1h-1z M100,42h1v1h-1z M105,42h1v1h-1z M106,42h1v1h-1z M6,43h1v1h-1z M7,43h1v1h-1z M8,43h1v1h-1z M11,43h1v1h-1z M12,43h1v1h-1z M15,43h1v1h-1z M17,43h1v1h-1z M19,43h1v1h-1z M21,43h1v1h-1z M22,43h1v1h-1z M23,43h1v1h-1z M24,43h1v1h-1z M25,43h1v1h-1z M26,43h1v1h-1z M35,43h1v1h-1z M37,43h1v1h-1z M38,43h1v1h-1z M39,43h1v1h-1z M41,43h1v1h-1z M42,43h1v1h-1z M44,43h1v1h-1z M46,43h1v1h-1z M47,43h1v1h-1z M52,43h1v1h-1z M53,43h1v1h-1z M55,43h1v1h-1z M59,43h1v1h-1z M61,43h1v1h-1z M62,43h1v1h-1z M66,43h1v1h-1z M67,43h1v1h-1z M68,43h1v1h-1z M69,43h1v1h-1z M70,43h1v1h-1z M71,43h1v1h-1z M73,43h1v1h-1z M74,43h1v1h-1z M77,43h1v1h-1z M79,43h1v1h-1z M80,43h1v1h-1z M81,43h1v1h-1z M82,43h1v1h-1z M90,43h1v1h-1z M92,43h1v1h-1z M93,43h1v1h-1z M94,43h1v1h-1z M95,43h1v1h-1z M99,43h1v1h-1z M102,43h1v1h-1z M103,43h1v1h-1z M104,43h1v1h-1z M4,44h1v1h-1z M5,44h1v1h-1z M6,44h1v1h-1z M7,44h1v1h-1z M9,44h1v1h-1z M10,44h1v1h-1z M12,44h1v1h-1z M15,44h1v1h-1z M16,44h1v1h-1z M24,44h1v1h-1z M33,44h1v1h-1z M35,44h1v1h-1z M37,44h1v1h-1z M38,44h1v1h-1z M39,44h1v1h-1z M40,44h1v1h-1z M41,44h1v1h-1z M42,44h1v1h-1z M43,44h1v1h-1z M45,44h1v1h-1z M46,44h1v1h-1z M47,44h1v1h-1z M48,44h1v1h-1z M49,44h1v1h-1z M52,44h1v1h-1z M54,44h1v1h-1z M55,44h1v1h-1z M58,44h1v1h-1z M66,44h1v1h-1z M67,44h1v1h-1z M69,44h1v1h-1z M73,44h1v1h-1z M76,44h1v1h-1z M77,44h1v1h-1z M78,44h1v1h-1z M79,44h1v1h-1z M81,44h1v1h-1z M82,44h1v1h-1z M83,44h1v1h-1z M85,44h1v1h-1z M88,44h1v1h-1z M92,44h1v1h-1z M93,44h1v1h-1z M97,44h1v1h-1z M102,44h1v1h-1z M107,44h1v1h-1z M4,45h1v1h-1z M5,45h1v1h-1z M6,45h1v1h-1z M7,45h1v1h-1z M9,45h1v1h-1z M11,45h1v1h-1z M12,45h1v1h-1z M13,45h1v1h-1z M14,45h1v1h-1z M17,45h1v1h-1z M20,45h1v1h-1z M21,45h1v1h-1z M22,45h1v1h-1z M24,45h1v1h-1z M25,45h1v1h-1z M29,45h1v1h-1z M30,45h1v1h-1z M32,45h1v1h-1z M34,45h1v1h-1z M35,45h1v1h-1z M40,45h1v1h-1z M45,45h1v1h-1z M46,45h1v1h-1z M48,45h1v1h-1z M50,45h1v1h-1z M51,45h1v1h-1z M53,45h1v1h-1z M55,45h1v1h-1z M58,45h1v1h-1z M60,45h1v1h-1z M61,45h1v1h-1z M62,45h1v1h-1z M64,45h1v1h-1z M65,45h1v1h-1z M67,45h1v1h-1z M72,45h1v1h-1z M73,45h1v1h-1z M74,45h1v1h-1z M76,45h1v1h-1z M77,45h1v1h-1z M79,45h1v1h-1z M81,45h1v1h-1z M83,45h1v1h-1z M84,45h1v1h-1z M85,45h1v1h-1z M86,45h1v1h-1z M88,45h1v1h-1z M93,45h1v1h-1z M95,45h1v1h-1z M99,45h1v1h-1z M106,45h1v1h-1z M4,46h1v1h-1z M5,46h1v1h-1z M7,46h1v1h-1z M10,46h1v1h-1z M13,46h1v1h-1z M14,46h1v1h-1z M15,46h1v1h-1z M16,46h1v1h-1z M17,46h1v1h-1z M21,46h1v1h-1z M22,46h1v1h-1z M23,46h1v1h-1z M27,46h1v1h-1z M31,46h1v1h-1z M32,46h1v1h-1z M33,46h1v1h-1z M38,46h1v1h-1z M39,46h1v1h-1z M40,46h1v1h-1z M41,46h1v1h-1z M48,46h1v1h-1z M49,46h1v1h-1z M50,46h1v1h-1z M54,46h1v1h-1z M55,46h1v1h-1z M59,46h1v1h-1z M60,46h1v1h-1z M62,46h1v1h-1z M65,46h1v1h-1z M67,46h1v1h-1z M71,46h1v1h-1z M74,46h1v1h-1z M76,46h1v1h-1z M78,46h1v1h-1z M79,46h1v1h-1z M86,46h1v1h-1z M87,46h1v1h-1z M88,46h1v1h-1z M89,46h1v1h-1z M91,46h1v1h-1z M92,46h1v1h-1z M98,46h1v1h-1z M99,46h1v1h-1z M100,46h1v1h-1z M103,46h1v1h-1z M104,46h1v1h-1z M4,47h1v1h-1z M5,47h1v1h-1z M6,47h1v1h-1z M8,47h1v1h-1z M13,47h1v1h-1z M16,47h1v1h-1z M19,47h1v1h-1z M20,47h1v1h-1z M23,47h1v1h-1z M24,47h1v1h-1z M26,47h1v1h-1z M28,47h1v1h-1z M29,47h1v1h-1z M32,47h1v1h-1z M33,47h1v1h-1z M34,47h1v1h-1z M35,47h1v1h-1z M42,47h1v1h-1z M44,47h1v1h-1z M45,47h1v1h-1z M49,47h1v1h-1z M51,47h1v1h-1z M52,47h1v1h-1z M53,47h1v1h-1z M58,47h1v1h-1z M59,47h1v1h-1z M61,47h1v1h-1z M68,47h1v1h-1z M69,47h1v1h-1z M70,47h1v1h-1z M71,47h1v1h-1z M77,47h1v1h-1z M81,47h1v1h-1z M82,47h1v1h-1z M83,47h1v1h-1z M85,47h1v1h-1z M90,47h1v1h-1z M92,47h1v1h-1z M93,47h1v1h-1z M95,47h1v1h-1z M98,47h1v1h-1z M99,47h1v1h-1z M101,47h1v1h-1z M104,47h1v1h-1z M6,48h1v1h-1z M10,48h1v1h-1z M11,48h1v1h-1z M13,48h1v1h-1z M15,48h1v1h-1z M21,48h1v1h-1z M22,48h1v1h-1z M25,48h1v1h-1z M28,48h1v1h-1z M29,48h1v1h-1z M30,48h1v1h-1z M31,48h1v1h-1z M36,48h1v1h-1z M37,48h1v1h-1z M40,48h1v1h-1z M41,48h1v1h-1z M42,48h1v1h-1z M43,48h1v1h-1z M48,48h1v1h-1z M50,48h1v1h-1z M53,48h1v1h-1z M54,48h1v1h-1z M55,48h1v1h-1z M58,48h1v1h-1z M59,48h1v1h-1z M61,48h1v1h-1z M63,48h1v1h-1z M67,48h1v1h-1z M68,48h1v1h-1z M69,48h1v1h-1z M72,48h1v1h-1z M74,48h1v1h-1z M76,48h1v1h-1z M77,48h1v1h-1z M78,48h1v1h-1z M82,48h1v1h-1z M86,48h1v1h-1z M87,48h1v1h-1z M88,48h1v1h-1z M89,48h1v1h-1z M90,48h1v1h-1z M92,48h1v1h-1z M93,48h1v1h-1z M95,48h1v1h-1z M96,48h1v1h-1z M97,48h1v1h-1z M98,48h1v1h-1z M99,48h1v1h-1z M100,48h1v1h-1z M102,48h1v1h-1z M104,48h1v1h-1z M105,48h1v1h-1z M106,48h1v1h-1z M6,49h1v1h-1z M9,49h1v1h-1z M11,49h1v1h-1z M12,49h1v1h-1z M13,49h1v1h-1z M15,49h1v1h-1z M16,49h1v1h-1z M17,49h1v1h-1z M19,49h1v1h-1z M25,49h1v1h-1z M27,49h1v1h-1z M28,49h1v1h-1z M29,49h1v1h-1z M30,49h1v1h-1z M32,49h1v1h-1z M33,49h1v1h-1z M34,49h1v1h-1z M36,49h1v1h-1z M37,49h1v1h-1z M42,49h1v1h-1z M43,49h1v1h-1z M44,49h1v1h-1z M47,49h1v1h-1z M48,49h1v1h-1z M49,49h1v1h-1z M52,49h1v1h-1z M53,49h1v1h-1z M56,49h1v1h-1z M59,49h1v1h-1z M61,49h1v1h-1z M63,49h1v1h-1z M64,49h1v1h-1z M65,49h1v1h-1z M67,49h1v1h-1z M69,49h1v1h-1z M71,49h1v1h-1z M73,49h1v1h-1z M74,49h1v1h-1z M77,49h1v1h-1z M83,49h1v1h-1z M86,49h1v1h-1z M91,49h1v1h-1z M92,49h1v1h-1z M95,49h1v1h-1z M97,49h1v1h-1z M98,49h1v1h-1z M99,49h1v1h-1z M100,49h1v1h-1z M104,49h1v1h-1z M106,49h1v1h-1z M4,50h1v1h-1z M5,50h1v1h-1z M6,50h1v1h-1z M7,50h1v1h-1z M8,50h1v1h-1z M9,50h1v1h-1z M10,50h1v1h-1z M11,50h1v1h-1z M13,50h1v1h-1z M15,50h1v1h-1z M17,50h1v1h-1z M20,50h1v1h-1z M22,50h1v1h-1z M24,50h1v1h-1z M25,50h1v1h-1z M26,50h1v1h-1z M27,50h1v1h-1z M28,50h1v1h-1z M29,50h1v1h-1z M31,50h1v1h-1z M33,50h1v1h-1z M36,50h1v1h-1z M38,50h1v1h-1z M39,50h1v1h-1z M40,50h1v1h-1z M41,50h1v1h-1z M47,50h1v1h-1z M48,50h1v1h-1z M49,50h1v1h-1z M50,50h1v1h-1z M54,50h1v1h-1z M55,50h1v1h-1z M60,50h1v1h-1z M62,50h1v1h-1z M63,50h1v1h-1z M65,50h1v1h-1z M67,50h1v1h-1z M71,50h1v1h-1z M74,50h1v1h-1z M75,50h1v1h-1z M76,50h1v1h-1z M77,50h1v1h-1z M78,50h1v1h-1z M79,50h1v1h-1z M80,50h1v1h-1z M83,50h1v1h-1z M84,50h1v1h-1z M86,50h1v1h-1z M87,50h1v1h-1z M89,50h1v1h-1z M91,50h1v1h-1z M96,50h1v1h-1z M98,50h1v1h-1z M100,50h1v1h-1z M102,50h1v1h-1z M106,50h1v1h-1z M107,50h1v1h-1z M4,51h1v1h-1z M5,51h1v1h-1z M6,51h1v1h-1z M7,51h1v1h-1z M12,51h1v1h-1z M14,51h1v1h-1z M15,51h1v1h-1z M16,51h1v1h-1z M17,51h1v1h-1z M18,51h1v1h-1z M19,51h1v1h-1z M20,51h1v1h-1z M22,51h1v1h-1z M23,51h1v1h-1z M24,51h1v1h-1z M25,51h1v1h-1z M28,51h1v1h-1z M34,51h1v1h-1z M35,51h1v1h-1z M38,51h1v1h-1z M43,51h1v1h-1z M44,51h1v1h-1z M45,51h1v1h-1z M47,51h1v1h-1z M52,51h1v1h-1z M53,51h1v1h-1z M55,51h1v1h-1z M56,51h1v1h-1z M59,51h1v1h-1z M61,51h1v1h-1z M62,51h1v1h-1z M65,51h1v1h-1z M66,51h1v1h-1z M68,51h1v1h-1z M70,51h1v1h-1z M71,51h1v1h-1z M73,51h1v1h-1z M74,51h1v1h-1z M80,51h1v1h-1z M81,51h1v1h-1z M82,51h1v1h-1z M86,51h1v1h-1z M89,51h1v1h-1z M92,51h1v1h-1z M93,51h1v1h-1z M94,51h1v1h-1z M95,51h1v1h-1z M97,51h1v1h-1z M99,51h1v1h-1z M100,51h1v1h-1z M102,51h1v1h-1z M104,51h1v1h-1z M107,51h1v1h-1z M108,51h1v1h-1z M6,52h1v1h-1z M7,52h1v1h-1z M8,52h1v1h-1z M9,52h1v1h-1z M10,52h1v1h-1z M11,52h1v1h-1z M12,52h1v1h-1z M13,52h1v1h-1z M14,52h1v1h-1z M15,52h1v1h-1z M17,52h1v1h-1z M18,52h1v1h-1z M21,52h1v1h-1z M23,52h1v1h-1z M24,52h1v1h-1z M28,52h1v1h-1z M29,52h1v1h-1z M30,52h1v1h-1z M31,52h1v1h-1z M32,52h1v1h-1z M33,52h1v1h-1z M34,52h1v1h-1z M41,52h1v1h-1z M43,52h1v1h-1z M46,52h1v1h-1z M49,52h1v1h-1z M52,52h1v1h-1z M53,52h1v1h-1z M54,52h1v1h-1z M55,52h1v1h-1z M56,52h1v1h-1z M57,52h1v1h-1z M58,52h1v1h-1z M60,52h1v1h-1z M62,52h1v1h-1z M66,52h1v1h-1z M72,52h1v1h-1z M73,52h1v1h-1z M74,52h1v1h-1z M76,52h1v1h-1z M77,52h1v1h-1z M78,52h1v1h-1z M79,52h1v1h-1z M80,52h1v1h-1z M81,52h1v1h-1z M82,52h1v1h-1z M86,52h1v1h-1z M88,52h1v1h-1z M89,52h1v1h-1z M91,52h1v1h-1z M92,52h1v1h-1z M93,52h1v1h-1z M94,52h1v1h-1z M96,52h1v1h-1z M100,52h1v1h-1z M101,52h1v1h-1z M102,52h1v1h-1z M103,52h1v1h-1z M104,52h1v1h-1z M105,52h1v1h-1z M106,52h1v1h-1z M107,52h1v1h-1z M4,53h1v1h-1z M5,53h1v1h-1z M7,53h1v1h-1z M8,53h1v1h-1z M12,53h1v1h-1z M14,53h1v1h-1z M15,53h1v1h-1z M21,53h1v1h-1z M22,53h1v1h-1z M23,53h1v1h-1z M25,53h1v1h-1z M28,53h1v1h-1z M32,53h1v1h-1z M35,53h1v1h-1z M38,53h1v1h-1z M39,53h1v1h-1z M40,53h1v1h-1z M45,53h1v1h-1z M46,53h1v1h-1z M47,53h1v1h-1z M48,53h1v1h-1z M50,53h1v1h-1z M52,53h1v1h-1z M56,53h1v1h-1z M59,53h1v1h-1z M61,53h1v1h-1z M63,53h1v1h-1z M66,53h1v1h-1z M67,53h1v1h-1z M72,53h1v1h-1z M74,53h1v1h-1z M75,53h1v1h-1z M76,53h1v1h-1z M80,53h1v1h-1z M81,53h1v1h-1z M84,53h1v1h-1z M92,53h1v1h-1z M94,53h1v1h-1z M95,53h1v1h-1z M96,53h1v1h-1z M97,53h1v1h-1z M100,53h1v1h-1z M104,53h1v1h-1z M5,54h1v1h-1z M6,54h1v1h-1z M8,54h1v1h-1z M10,54h1v1h-1z M12,54h1v1h-1z M14,54h1v1h-1z M17,54h1v1h-1z M18,54h1v1h-1z M22,54h1v1h-1z M25,54h1v1h-1z M27,54h1v1h-1z M28,54h1v1h-1z M30,54h1v1h-1z M32,54h1v1h-1z M36,54h1v1h-1z M38,54h1v1h-1z M39,54h1v1h-1z M41,54h1v1h-1z M47,54h1v1h-1z M48,54h1v1h-1z M50,54h1v1h-1z M51,54h1v1h-1z M52,54h1v1h-1z M54,54h1v1h-1z M56,54h1v1h-1z M57,54h1v1h-1z M59,54h1v1h-1z M62,54h1v1h-1z M64,54h1v1h-1z M67,54h1v1h-1z M68,54h1v1h-1z M72,54h1v1h-1z M74,54h1v1h-1z M75,54h1v1h-1z M76,54h1v1h-1z M78,54h1v1h-1z M80,54h1v1h-1z M81,54h1v1h-1z M86,54h1v1h-1z M88,54h1v1h-1z M89,54h1v1h-1z M92,54h1v1h-1z M95,54h1v1h-1z M96,54h1v1h-1z M98,54h1v1h-1z M100,54h1v1h-1z M102,54h1v1h-1z M104,54h1v1h-1z M105,54h1v1h-1z M106,54h1v1h-1z M6,55h1v1h-1z M7,55h1v1h-1z M8,55h1v1h-1z M12,55h1v1h-1z M14,55h1v1h-1z M16,55h1v1h-1z M17,55h1v1h-1z M18,55h1v1h-1z M19,55h1v1h-1z M21,55h1v1h-1z M22,55h1v1h-1z M24,55h1v1h-1z M25,55h1v1h-1z M28,55h1v1h-1z M32,55h1v1h-1z M33,55h1v1h-1z M34,55h1v1h-1z M35,55h1v1h-1z M38,55h1v1h-1z M41,55h1v1h-1z M42,55h1v1h-1z M43,55h1v1h-1z M44,55h1v1h-1z M45,55h1v1h-1z M47,55h1v1h-1z M49,55h1v1h-1z M52,55h1v1h-1z M56,55h1v1h-1z M57,55h1v1h-1z M58,55h1v1h-1z M59,55h1v1h-1z M65,55h1v1h-1z M66,55h1v1h-1z M68,55h1v1h-1z M70,55h1v1h-1z M71,55h1v1h-1z M74,55h1v1h-1z M76,55h1v1h-1z M80,55h1v1h-1z M81,55h1v1h-1z M82,55h1v1h-1z M83,55h1v1h-1z M85,55h1v1h-1z M86,55h1v1h-1z M89,55h1v1h-1z M92,55h1v1h-1z M93,55h1v1h-1z M94,55h1v1h-1z M95,55h1v1h-1z M98,55h1v1h-1z M99,55h1v1h-1z M100,55h1v1h-1z M104,55h1v1h-1z M8,56h1v1h-1z M9,56h1v1h-1z M10,56h1v1h-1z M11,56h1v1h-1z M12,56h1v1h-1z M13,56h1v1h-1z M17,56h1v1h-1z M19,56h1v1h-1z M20,56h1v1h-1z M24,56h1v1h-1z M26,56h1v1h-1z M27,56h1v1h-1z M28,56h1v1h-1z M29,56h1v1h-1z M30,56h1v1h-1z M31,56h1v1h-1z M32,56h1v1h-1z M33,56h1v1h-1z M34,56h1v1h-1z M35,56h1v1h-1z M36,56h1v1h-1z M37,56h1v1h-1z M39,56h1v1h-1z M40,56h1v1h-1z M41,56h1v1h-1z M43,56h1v1h-1z M45,56h1v1h-1z M46,56h1v1h-1z M47,56h1v1h-1z M48,56h1v1h-1z M50,56h1v1h-1z M52,56h1v1h-1z M53,56h1v1h-1z M54,56h1v1h-1z M55,56h1v1h-1z M56,56h1v1h-1z M58,56h1v1h-1z M60,56h1v1h-1z M61,56h1v1h-1z M64,56h1v1h-1z M65,56h1v1h-1z M67,56h1v1h-1z M70,56h1v1h-1z M71,56h1v1h-1z M72,56h1v1h-1z M76,56h1v1h-1z M77,56h1v1h-1z M78,56h1v1h-1z M79,56h1v1h-1z M80,56h1v1h-1z M81,56h1v1h-1z M82,56h1v1h-1z M83,56h1v1h-1z M84,56h1v1h-1z M85,56h1v1h-1z M87,56h1v1h-1z M89,56h1v1h-1z M92,56h1v1h-1z M93,56h1v1h-1z M96,56h1v1h-1z M100,56h1v1h-1z M101,56h1v1h-1z M102,56h1v1h-1z M103,56h1v1h-1z M104,56h1v1h-1z M105,56h1v1h-1z M106,56h1v1h-1z M5,57h1v1h-1z M6,57h1v1h-1z M9,57h1v1h-1z M12,57h1v1h-1z M13,57h1v1h-1z M14,57h1v1h-1z M15,57h1v1h-1z M16,57h1v1h-1z M19,57h1v1h-1z M20,57h1v1h-1z M24,57h1v1h-1z M26,57h1v1h-1z M31,57h1v1h-1z M34,57h1v1h-1z M35,57h1v1h-1z M39,57h1v1h-1z M40,57h1v1h-1z M41,57h1v1h-1z M42,57h1v1h-1z M45,57h1v1h-1z M46,57h1v1h-1z M47,57h1v1h-1z M48,57h1v1h-1z M53,57h1v1h-1z M55,57h1v1h-1z M57,57h1v1h-1z M58,57h1v1h-1z M59,57h1v1h-1z M61,57h1v1h-1z M72,57h1v1h-1z M74,57h1v1h-1z M76,57h1v1h-1z M79,57h1v1h-1z M82,57h1v1h-1z M83,57h1v1h-1z M85,57h1v1h-1z M88,57h1v1h-1z M89,57h1v1h-1z M90,57h1v1h-1z M91,57h1v1h-1z M93,57h1v1h-1z M95,57h1v1h-1z M98,57h1v1h-1z M99,57h1v1h-1z M100,57h1v1h-1z M102,57h1v1h-1z M107,57h1v1h-1z M8,58h1v1h-1z M9,58h1v1h-1z M10,58h1v1h-1z M12,58h1v1h-1z M13,58h1v1h-1z M14,58h1v1h-1z M15,58h1v1h-1z M17,58h1v1h-1z M18,58h1v1h-1z M21,58h1v1h-1z M23,58h1v1h-1z M24,58h1v1h-1z M29,58h1v1h-1z M35,58h1v1h-1z M36,58h1v1h-1z M38,58h1v1h-1z M40,58h1v1h-1z M41,58h1v1h-1z M43,58h1v1h-1z M44,58h1v1h-1z M48,58h1v1h-1z M50,58h1v1h-1z M54,58h1v1h-1z M55,58h1v1h-1z M59,58h1v1h-1z M60,58h1v1h-1z M62,58h1v1h-1z M63,58h1v1h-1z M64,58h1v1h-1z M65,58h1v1h-1z M71,58h1v1h-1z M74,58h1v1h-1z M77,58h1v1h-1z M84,58h1v1h-1z M86,58h1v1h-1z M87,58h1v1h-1z M88,58h1v1h-1z M93,58h1v1h-1z M95,58h1v1h-1z M98,58h1v1h-1z M100,58h1v1h-1z M101,58h1v1h-1z M102,58h1v1h-1z M103,58h1v1h-1z M105,58h1v1h-1z M107,58h1v1h-1z M4,59h1v1h-1z M12,59h1v1h-1z M13,59h1v1h-1z M15,59h1v1h-1z M17,59h1v1h-1z M18,59h1v1h-1z M19,59h1v1h-1z M21,59h1v1h-1z M22,59h1v1h-1z M26,59h1v1h-1z M31,59h1v1h-1z M32,59h1v1h-1z M33,59h1v1h-1z M35,59h1v1h-1z M37,59h1v1h-1z M42,59h1v1h-1z M44,59h1v1h-1z M45,59h1v1h-1z M46,59h1v1h-1z M47,59h1v1h-1z M49,59h1v1h-1z M52,59h1v1h-1z M57,59h1v1h-1z M61,59h1v1h-1z M62,59h1v1h-1z M66,59h1v1h-1z M68,59h1v1h-1z M70,59h1v1h-1z M71,59h1v1h-1z M73,59h1v1h-1z M75,59h1v1h-1z M78,59h1v1h-1z M79,59h1v1h-1z M80,59h1v1h-1z M82,59h1v1h-1z M83,59h1v1h-1z M85,59h1v1h-1z M87,59h1v1h-1z M90,59h1v1h-1z M91,59h1v1h-1z M92,59h1v1h-1z M94,59h1v1h-1z M95,59h1v1h-1z M97,59h1v1h-1z M104,59h1v1h-1z M7,60h1v1h-1z M8,60h1v1h-1z M10,60h1v1h-1z M15,60h1v1h-1z M18,60h1v1h-1z M21,60h1v1h-1z M22,60h1v1h-1z M23,60h1v1h-1z M25,60h1v1h-1z M30,60h1v1h-1z M31,60h1v1h-1z M32,60h1v1h-1z M37,60h1v1h-1z M38,60h1v1h-1z M39,60h1v1h-1z M40,60h1v1h-1z M41,60h1v1h-1z M42,60h1v1h-1z M46,60h1v1h-1z M47,60h1v1h-1z M50,60h1v1h-1z M54,60h1v1h-1z M55,60h1v1h-1z M57,60h1v1h-1z M59,60h1v1h-1z M60,60h1v1h-1z M61,60h1v1h-1z M62,60h1v1h-1z M63,60h1v1h-1z M68,60h1v1h-1z M70,60h1v1h-1z M71,60h1v1h-1z M73,60h1v1h-1z M74,60h1v1h-1z M76,60h1v1h-1z M77,60h1v1h-1z M78,60h1v1h-1z M79,60h1v1h-1z M80,60h1v1h-1z M81,60h1v1h-1z M82,60h1v1h-1z M85,60h1v1h-1z M87,60h1v1h-1z M89,60h1v1h-1z M90,60h1v1h-1z M91,60h1v1h-1z M94,60h1v1h-1z M95,60h1v1h-1z M96,60h1v1h-1z M103,60h1v1h-1z M106,60h1v1h-1z M108,60h1v1h-1z M4,61h1v1h-1z M5,61h1v1h-1z M6,61h1v1h-1z M9,61h1v1h-1z M14,61h1v1h-1z M16,61h1v1h-1z M18,61h1v1h-1z M24,61h1v1h-1z M25,61h1v1h-1z M26,61h1v1h-1z M28,61h1v1h-1z M29,61h1v1h-1z M30,61h1v1h-1z M35,61h1v1h-1z M37,61h1v1h-1z M38,61h1v1h-1z M40,61h1v1h-1z M41,61h1v1h-1z M42,61h1v1h-1z M43,61h1v1h-1z M47,61h1v1h-1z M48,61h1v1h-1z M49,61h1v1h-1z M51,61h1v1h-1z M53,61h1v1h-1z M54,61h1v1h-1z M55,61h1v1h-1z M57,61h1v1h-1z M60,61h1v1h-1z M61,61h1v1h-1z M62,61h1v1h-1z M64,61h1v1h-1z M67,61h1v1h-1z M68,61h1v1h-1z M71,61h1v1h-1z M72,61h1v1h-1z M73,61h1v1h-1z M74,61h1v1h-1z M75,61h1v1h-1z M82,61h1v1h-1z M84,61h1v1h-1z M87,61h1v1h-1z M92,61h1v1h-1z M93,61h1v1h-1z M94,61h1v1h-1z M95,61h1v1h-1z M98,61h1v1h-1z M100,61h1v1h-1z M102,61h1v1h-1z M108,61h1v1h-1z M4,62h1v1h-1z M5,62h1v1h-1z M8,62h1v1h-1z M9,62h1v1h-1z M10,62h1v1h-1z M11,62h1v1h-1z M15,62h1v1h-1z M18,62h1v1h-1z M21,62h1v1h-1z M24,62h1v1h-1z M29,62h1v1h-1z M30,62h1v1h-1z M31,62h1v1h-1z M32,62h1v1h-1z M33,62h1v1h-1z M35,62h1v1h-1z M36,62h1v1h-1z M38,62h1v1h-1z M40,62h1v1h-1z M41,62h1v1h-1z M44,62h1v1h-1z M50,62h1v1h-1z M51,62h1v1h-1z M54,62h1v1h-1z M60,62h1v1h-1z M62,62h1v1h-1z M63,62h1v1h-1z M65,62h1v1h-1z M67,62h1v1h-1z M72,62h1v1h-1z M74,62h1v1h-1z M80,62h1v1h-1z M81,62h1v1h-1z M86,62h1v1h-1z M88,62h1v1h-1z M89,62h1v1h-1z M91,62h1v1h-1z M92,62h1v1h-1z M98,62h1v1h-1z M102,62h1v1h-1z M103,62h1v1h-1z M104,62h1v1h-1z M107,62h1v1h-1z M5,63h1v1h-1z M8,63h1v1h-1z M9,63h1v1h-1z M11,63h1v1h-1z M13,63h1v1h-1z M16,63h1v1h-1z M18,63h1v1h-1z M25,63h1v1h-1z M26,63h1v1h-1z M28,63h1v1h-1z M30,63h1v1h-1z M31,63h1v1h-1z M34,63h1v1h-1z M38,63h1v1h-1z M39,63h1v1h-1z M41,63h1v1h-1z M42,63h1v1h-1z M44,63h1v1h-1z M45,63h1v1h-1z M46,63h1v1h-1z M47,63h1v1h-1z M49,63h1v1h-1z M52,63h1v1h-1z M57,63h1v1h-1z M59,63h1v1h-1z M66,63h1v1h-1z M68,63h1v1h-1z M70,63h1v1h-1z M71,63h1v1h-1z M73,63h1v1h-1z M76,63h1v1h-1z M82,63h1v1h-1z M83,63h1v1h-1z M86,63h1v1h-1z M89,63h1v1h-1z M92,63h1v1h-1z M94,63h1v1h-1z M95,63h1v1h-1z M97,63h1v1h-1z M99,63h1v1h-1z M101,63h1v1h-1z M102,63h1v1h-1z M105,63h1v1h-1z M5,64h1v1h-1z M6,64h1v1h-1z M7,64h1v1h-1z M8,64h1v1h-1z M10,64h1v1h-1z M11,64h1v1h-1z M12,64h1v1h-1z M13,64h1v1h-1z M19,64h1v1h-1z M22,64h1v1h-1z M23,64h1v1h-1z M24,64h1v1h-1z M27,64h1v1h-1z M28,64h1v1h-1z M30,64h1v1h-1z M33,64h1v1h-1z M34,64h1v1h-1z M37,64h1v1h-1z M38,64h1v1h-1z M40,64h1v1h-1z M42,64h1v1h-1z M46,64h1v1h-1z M47,64h1v1h-1z M51,64h1v1h-1z M52,64h1v1h-1z M54,64h1v1h-1z M55,64h1v1h-1z M56,64h1v1h-1z M58,64h1v1h-1z M60,64h1v1h-1z M61,64h1v1h-1z M68,64h1v1h-1z M69,64h1v1h-1z M71,64h1v1h-1z M72,64h1v1h-1z M73,64h1v1h-1z M76,64h1v1h-1z M78,64h1v1h-1z M79,64h1v1h-1z M80,64h1v1h-1z M81,64h1v1h-1z M82,64h1v1h-1z M83,64h1v1h-1z M89,64h1v1h-1z M90,64h1v1h-1z M91,64h1v1h-1z M94,64h1v1h-1z M95,64h1v1h-1z M100,64h1v1h-1z M101,64h1v1h-1z M105,64h1v1h-1z M5,65h1v1h-1z M6,65h1v1h-1z M7,65h1v1h-1z M9,65h1v1h-1z M12,65h1v1h-1z M13,65h1v1h-1z M14,65h1v1h-1z M15,65h1v1h-1z M16,65h1v1h-1z M18,65h1v1h-1z M19,65h1v1h-1z M20,65h1v1h-1z M21,65h1v1h-1z M22,65h1v1h-1z M23,65h1v1h-1z M28,65h1v1h-1z M29,65h1v1h-1z M30,65h1v1h-1z M31,65h1v1h-1z M34,65h1v1h-1z M35,65h1v1h-1z M39,65h1v1h-1z M40,65h1v1h-1z M41,65h1v1h-1z M42,65h1v1h-1z M43,65h1v1h-1z M45,65h1v1h-1z M47,65h1v1h-1z M48,65h1v1h-1z M49,65h1v1h-1z M50,65h1v1h-1z M51,65h1v1h-1z M53,65h1v1h-1z M55,65h1v1h-1z M57,65h1v1h-1z M58,65h1v1h-1z M61,65h1v1h-1z M63,65h1v1h-1z M64,65h1v1h-1z M70,65h1v1h-1z M72,65h1v1h-1z M76,65h1v1h-1z M78,65h1v1h-1z M79,65h1v1h-1z M83,65h1v1h-1z M85,65h1v1h-1z M90,65h1v1h-1z M94,65h1v1h-1z M95,65h1v1h-1z M97,65h1v1h-1z M98,65h1v1h-1z M99,65h1v1h-1z M100,65h1v1h-1z M102,65h1v1h-1z M104,65h1v1h-1z M105,65h1v1h-1z M106,65h1v1h-1z M108,65h1v1h-1z M6,66h1v1h-1z M7,66h1v1h-1z M8,66h1v1h-1z M10,66h1v1h-1z M12,66h1v1h-1z M14,66h1v1h-1z M16,66h1v1h-1z M17,66h1v1h-1z M18,66h1v1h-1z M19,66h1v1h-1z M20,66h1v1h-1z M23,66h1v1h-1z M24,66h1v1h-1z M25,66h1v1h-1z M29,66h1v1h-1z M35,66h1v1h-1z M36,66h1v1h-1z M38,66h1v1h-1z M39,66h1v1h-1z M40,66h1v1h-1z M41,66h1v1h-1z M43,66h1v1h-1z M47,66h1v1h-1z M48,66h1v1h-1z M50,66h1v1h-1z M51,66h1v1h-1z M53,66h1v1h-1z M55,66h1v1h-1z M56,66h1v1h-1z M57,66h1v1h-1z M60,66h1v1h-1z M62,66h1v1h-1z M63,66h1v1h-1z M64,66h1v1h-1z M65,66h1v1h-1z M72,66h1v1h-1z M74,66h1v1h-1z M78,66h1v1h-1z M80,66h1v1h-1z M81,66h1v1h-1z M83,66h1v1h-1z M86,66h1v1h-1z M89,66h1v1h-1z M95,66h1v1h-1z M98,66h1v1h-1z M99,66h1v1h-1z M100,66h1v1h-1z M104,66h1v1h-1z M105,66h1v1h-1z M106,66h1v1h-1z M107,66h1v1h-1z M4,67h1v1h-1z M5,67h1v1h-1z M6,67h1v1h-1z M9,67h1v1h-1z M13,67h1v1h-1z M14,67h1v1h-1z M16,67h1v1h-1z M17,67h1v1h-1z M23,67h1v1h-1z M24,67h1v1h-1z M26,67h1v1h-1z M27,67h1v1h-1z M28,67h1v1h-1z M29,67h1v1h-1z M30,67h1v1h-1z M31,67h1v1h-1z M32,67h1v1h-1z M33,67h1v1h-1z M35,67h1v1h-1z M37,67h1v1h-1z M41,67h1v1h-1z M42,67h1v1h-1z M44,67h1v1h-1z M45,67h1v1h-1z M47,67h1v1h-1z M51,67h1v1h-1z M52,67h1v1h-1z M54,67h1v1h-1z M55,67h1v1h-1z M57,67h1v1h-1z M58,67h1v1h-1z M59,67h1v1h-1z M67,67h1v1h-1z M68,67h1v1h-1z M69,67h1v1h-1z M70,67h1v1h-1z M71,67h1v1h-1z M73,67h1v1h-1z M74,67h1v1h-1z M78,67h1v1h-1z M79,67h1v1h-1z M81,67h1v1h-1z M82,67h1v1h-1z M83,67h1v1h-1z M85,67h1v1h-1z M86,67h1v1h-1z M90,67h1v1h-1z M92,67h1v1h-1z M94,67h1v1h-1z M95,67h1v1h-1z M97,67h1v1h-1z M99,67h1v1h-1z M100,67h1v1h-1z M102,67h1v1h-1z M103,67h1v1h-1z M104,67h1v1h-1z M105,67h1v1h-1z M107,67h1v1h-1z M108,67h1v1h-1z M7,68h1v1h-1z M8,68h1v1h-1z M10,68h1v1h-1z M11,68h1v1h-1z M13,68h1v1h-1z M18,68h1v1h-1z M28,68h1v1h-1z M30,68h1v1h-1z M32,68h1v1h-1z M34,68h1v1h-1z M35,68h1v1h-1z M36,68h1v1h-1z M37,68h1v1h-1z M40,68h1v1h-1z M43,68h1v1h-1z M48,68h1v1h-1z M49,68h1v1h-1z M54,68h1v1h-1z M58,68h1v1h-1z M59,68h1v1h-1z M61,68h1v1h-1z M63,68h1v1h-1z M64,68h1v1h-1z M65,68h1v1h-1z M66,68h1v1h-1z M67,68h1v1h-1z M69,68h1v1h-1z M70,68h1v1h-1z M71,68h1v1h-1z M72,68h1v1h-1z M78,68h1v1h-1z M83,68h1v1h-1z M84,68h1v1h-1z M85,68h1v1h-1z M86,68h1v1h-1z M87,68h1v1h-1z M88,68h1v1h-1z M89,68h1v1h-1z M90,68h1v1h-1z M94,68h1v1h-1z M96,68h1v1h-1z M98,68h1v1h-1z M102,68h1v1h-1z M103,68h1v1h-1z M105,68h1v1h-1z M107,68h1v1h-1z M108,68h1v1h-1z M4,69h1v1h-1z M5,69h1v1h-1z M12,69h1v1h-1z M13,69h1v1h-1z M14,69h1v1h-1z M18,69h1v1h-1z M19,69h1v1h-1z M20,69h1v1h-1z M21,69h1v1h-1z M25,69h1v1h-1z M26,69h1v1h-1z M27,69h1v1h-1z M29,69h1v1h-1z M31,69h1v1h-1z M33,69h1v1h-1z M35,69h1v1h-1z M37,69h1v1h-1z M38,69h1v1h-1z M40,69h1v1h-1z M43,69h1v1h-1z M45,69h1v1h-1z M47,69h1v1h-1z M48,69h1v1h-1z M49,69h1v1h-1z M51,69h1v1h-1z M52,69h1v1h-1z M54,69h1v1h-1z M55,69h1v1h-1z M57,69h1v1h-1z M60,69h1v1h-1z M65,69h1v1h-1z M67,69h1v1h-1z M70,69h1v1h-1z M72,69h1v1h-1z M73,69h1v1h-1z M74,69h1v1h-1z M78,69h1v1h-1z M79,69h1v1h-1z M81,69h1v1h-1z M82,69h1v1h-1z M85,69h1v1h-1z M86,69h1v1h-1z M90,69h1v1h-1z M92,69h1v1h-1z M93,69h1v1h-1z M96,69h1v1h-1z M98,69h1v1h-1z M99,69h1v1h-1z M100,69h1v1h-1z M102,69h1v1h-1z M103,69h1v1h-1z M104,69h1v1h-1z M106,69h1v1h-1z M107,69h1v1h-1z M6,70h1v1h-1z M7,70h1v1h-1z M8,70h1v1h-1z M9,70h1v1h-1z M10,70h1v1h-1z M11,70h1v1h-1z M12,70h1v1h-1z M17,70h1v1h-1z M21,70h1v1h-1z M24,70h1v1h-1z M25,70h1v1h-1z M26,70h1v1h-1z M27,70h1v1h-1z M29,70h1v1h-1z M30,70h1v1h-1z M32,70h1v1h-1z M36,70h1v1h-1z M37,70h1v1h-1z M38,70h1v1h-1z M39,70h1v1h-1z M41,70h1v1h-1z M43,70h1v1h-1z M45,70h1v1h-1z M50,70h1v1h-1z M55,70h1v1h-1z M56,70h1v1h-1z M57,70h1v1h-1z M59,70h1v1h-1z M60,70h1v1h-1z M62,70h1v1h-1z M63,70h1v1h-1z M65,70h1v1h-1z M71,70h1v1h-1z M73,70h1v1h-1z M74,70h1v1h-1z M77,70h1v1h-1z M79,70h1v1h-1z M84,70h1v1h-1z M86,70h1v1h-1z M89,70h1v1h-1z M91,70h1v1h-1z M95,70h1v1h-1z M98,70h1v1h-1z M99,70h1v1h-1z M100,70h1v1h-1z M102,70h1v1h-1z M103,70h1v1h-1z M104,70h1v1h-1z M107,70h1v1h-1z M108,70h1v1h-1z M4,71h1v1h-1z M6,71h1v1h-1z M7,71h1v1h-1z M8,71h1v1h-1z M9,71h1v1h-1z M11,71h1v1h-1z M14,71h1v1h-1z M16,71h1v1h-1z M22,71h1v1h-1z M23,71h1v1h-1z M25,71h1v1h-1z M26,71h1v1h-1z M28,71h1v1h-1z M29,71h1v1h-1z M32,71h1v1h-1z M33,71h1v1h-1z M35,71h1v1h-1z M41,71h1v1h-1z M42,71h1v1h-1z M43,71h1v1h-1z M44,71h1v1h-1z M46,71h1v1h-1z M47,71h1v1h-1z M58,71h1v1h-1z M59,71h1v1h-1z M65,71h1v1h-1z M67,71h1v1h-1z M68,71h1v1h-1z M71,71h1v1h-1z M73,71h1v1h-1z M79,71h1v1h-1z M81,71h1v1h-1z M83,71h1v1h-1z M89,71h1v1h-1z M90,71h1v1h-1z M92,71h1v1h-1z M93,71h1v1h-1z M94,71h1v1h-1z M95,71h1v1h-1z M98,71h1v1h-1z M100,71h1v1h-1z M103,71h1v1h-1z M107,71h1v1h-1z M108,71h1v1h-1z M4,72h1v1h-1z M5,72h1v1h-1z M6,72h1v1h-1z M9,72h1v1h-1z M10,72h1v1h-1z M19,72h1v1h-1z M20,72h1v1h-1z M21,72h1v1h-1z M22,72h1v1h-1z M24,72h1v1h-1z M26,72h1v1h-1z M28,72h1v1h-1z M30,72h1v1h-1z M31,72h1v1h-1z M33,72h1v1h-1z M34,72h1v1h-1z M36,72h1v1h-1z M40,72h1v1h-1z M41,72h1v1h-1z M43,72h1v1h-1z M44,72h1v1h-1z M46,72h1v1h-1z M48,72h1v1h-1z M50,72h1v1h-1z M52,72h1v1h-1z M54,72h1v1h-1z M55,72h1v1h-1z M56,72h1v1h-1z M57,72h1v1h-1z M58,72h1v1h-1z M62,72h1v1h-1z M63,72h1v1h-1z M66,72h1v1h-1z M68,72h1v1h-1z M69,72h1v1h-1z M70,72h1v1h-1z M72,72h1v1h-1z M74,72h1v1h-1z M76,72h1v1h-1z M78,72h1v1h-1z M82,72h1v1h-1z M87,72h1v1h-1z M89,72h1v1h-1z M94,72h1v1h-1z M96,72h1v1h-1z M98,72h1v1h-1z M102,72h1v1h-1z M103,72h1v1h-1z M105,72h1v1h-1z M107,72h1v1h-1z M108,72h1v1h-1z M4,73h1v1h-1z M5,73h1v1h-1z M11,73h1v1h-1z M13,73h1v1h-1z M16,73h1v1h-1z M17,73h1v1h-1z M18,73h1v1h-1z M19,73h1v1h-1z M20,73h1v1h-1z M21,73h1v1h-1z M22,73h1v1h-1z M24,73h1v1h-1z M25,73h1v1h-1z M26,73h1v1h-1z M28,73h1v1h-1z M29,73h1v1h-1z M31,73h1v1h-1z M33,73h1v1h-1z M34,73h1v1h-1z M35,73h1v1h-1z M36,73h1v1h-1z M37,73h1v1h-1z M38,73h1v1h-1z M41,73h1v1h-1z M42,73h1v1h-1z M43,73h1v1h-1z M48,73h1v1h-1z M50,73h1v1h-1z M51,73h1v1h-1z M54,73h1v1h-1z M55,73h1v1h-1z M58,73h1v1h-1z M63,73h1v1h-1z M64,73h1v1h-1z M67,73h1v1h-1z M72,73h1v1h-1z M74,73h1v1h-1z M79,73h1v1h-1z M83,73h1v1h-1z M84,73h1v1h-1z M85,73h1v1h-1z M88,73h1v1h-1z M90,73h1v1h-1z M91,73h1v1h-1z M93,73h1v1h-1z M95,73h1v1h-1z M98,73h1v1h-1z M99,73h1v1h-1z M100,73h1v1h-1z M102,73h1v1h-1z M103,73h1v1h-1z M104,73h1v1h-1z M106,73h1v1h-1z M4,74h1v1h-1z M8,74h1v1h-1z M9,74h1v1h-1z M10,74h1v1h-1z M11,74h1v1h-1z M12,74h1v1h-1z M13,74h1v1h-1z M14,74h1v1h-1z M15,74h1v1h-1z M16,74h1v1h-1z M17,74h1v1h-1z M20,74h1v1h-1z M22,74h1v1h-1z M29,74h1v1h-1z M30,74h1v1h-1z M35,74h1v1h-1z M36,74h1v1h-1z M38,74h1v1h-1z M40,74h1v1h-1z M41,74h1v1h-1z M49,74h1v1h-1z M50,74h1v1h-1z M51,74h1v1h-1z M53,74h1v1h-1z M55,74h1v1h-1z M59,74h1v1h-1z M62,74h1v1h-1z M63,74h1v1h-1z M65,74h1v1h-1z M67,74h1v1h-1z M68,74h1v1h-1z M71,74h1v1h-1z M72,74h1v1h-1z M74,74h1v1h-1z M77,74h1v1h-1z M78,74h1v1h-1z M80,74h1v1h-1z M86,74h1v1h-1z M89,74h1v1h-1z M91,74h1v1h-1z M98,74h1v1h-1z M99,74h1v1h-1z M100,74h1v1h-1z M102,74h1v1h-1z M103,74h1v1h-1z M105,74h1v1h-1z M4,75h1v1h-1z M6,75h1v1h-1z M7,75h1v1h-1z M8,75h1v1h-1z M9,75h1v1h-1z M16,75h1v1h-1z M20,75h1v1h-1z M21,75h1v1h-1z M24,75h1v1h-1z M26,75h1v1h-1z M28,75h1v1h-1z M29,75h1v1h-1z M30,75h1v1h-1z M37,75h1v1h-1z M38,75h1v1h-1z M43,75h1v1h-1z M44,75h1v1h-1z M45,75h1v1h-1z M47,75h1v1h-1z M51,75h1v1h-1z M53,75h1v1h-1z M54,75h1v1h-1z M55,75h1v1h-1z M57,75h1v1h-1z M59,75h1v1h-1z M61,75h1v1h-1z M68,75h1v1h-1z M69,75h1v1h-1z M71,75h1v1h-1z M73,75h1v1h-1z M74,75h1v1h-1z M75,75h1v1h-1z M77,75h1v1h-1z M78,75h1v1h-1z M79,75h1v1h-1z M80,75h1v1h-1z M81,75h1v1h-1z M83,75h1v1h-1z M85,75h1v1h-1z M86,75h1v1h-1z M91,75h1v1h-1z M92,75h1v1h-1z M94,75h1v1h-1z M95,75h1v1h-1z M97,75h1v1h-1z M98,75h1v1h-1z M99,75h1v1h-1z M101,75h1v1h-1z M107,75h1v1h-1z M4,76h1v1h-1z M6,76h1v1h-1z M8,76h1v1h-1z M9,76h1v1h-1z M10,76h1v1h-1z M11,76h1v1h-1z M12,76h1v1h-1z M16,76h1v1h-1z M21,76h1v1h-1z M22,76h1v1h-1z M23,76h1v1h-1z M28,76h1v1h-1z M29,76h1v1h-1z M30,76h1v1h-1z M31,76h1v1h-1z M32,76h1v1h-1z M33,76h1v1h-1z M34,76h1v1h-1z M35,76h1v1h-1z M36,76h1v1h-1z M37,76h1v1h-1z M38,76h1v1h-1z M40,76h1v1h-1z M41,76h1v1h-1z M43,76h1v1h-1z M44,76h1v1h-1z M45,76h1v1h-1z M46,76h1v1h-1z M47,76h1v1h-1z M49,76h1v1h-1z M52,76h1v1h-1z M53,76h1v1h-1z M54,76h1v1h-1z M55,76h1v1h-1z M56,76h1v1h-1z M58,76h1v1h-1z M62,76h1v1h-1z M65,76h1v1h-1z M67,76h1v1h-1z M68,76h1v1h-1z M70,76h1v1h-1z M72,76h1v1h-1z M76,76h1v1h-1z M77,76h1v1h-1z M78,76h1v1h-1z M79,76h1v1h-1z M80,76h1v1h-1z M81,76h1v1h-1z M82,76h1v1h-1z M84,76h1v1h-1z M87,76h1v1h-1z M89,76h1v1h-1z M91,76h1v1h-1z M93,76h1v1h-1z M94,76h1v1h-1z M98,76h1v1h-1z M100,76h1v1h-1z M101,76h1v1h-1z M102,76h1v1h-1z M103,76h1v1h-1z M104,76h1v1h-1z M105,76h1v1h-1z M108,76h1v1h-1z M6,77h1v1h-1z M7,77h1v1h-1z M8,77h1v1h-1z M12,77h1v1h-1z M13,77h1v1h-1z M14,77h1v1h-1z M15,77h1v1h-1z M16,77h1v1h-1z M18,77h1v1h-1z M19,77h1v1h-1z M20,77h1v1h-1z M21,77h1v1h-1z M23,77h1v1h-1z M28,77h1v1h-1z M32,77h1v1h-1z M33,77h1v1h-1z M35,77h1v1h-1z M36,77h1v1h-1z M37,77h1v1h-1z M39,77h1v1h-1z M40,77h1v1h-1z M41,77h1v1h-1z M44,77h1v1h-1z M45,77h1v1h-1z M47,77h1v1h-1z M48,77h1v1h-1z M51,77h1v1h-1z M52,77h1v1h-1z M56,77h1v1h-1z M57,77h1v1h-1z M60,77h1v1h-1z M61,77h1v1h-1z M63,77h1v1h-1z M64,77h1v1h-1z M67,77h1v1h-1z M69,77h1v1h-1z M71,77h1v1h-1z M74,77h1v1h-1z M76,77h1v1h-1z M80,77h1v1h-1z M84,77h1v1h-1z M86,77h1v1h-1z M87,77h1v1h-1z M88,77h1v1h-1z M89,77h1v1h-1z M90,77h1v1h-1z M92,77h1v1h-1z M96,77h1v1h-1z M100,77h1v1h-1z M104,77h1v1h-1z M105,77h1v1h-1z M106,77h1v1h-1z M107,77h1v1h-1z M4,78h1v1h-1z M6,78h1v1h-1z M8,78h1v1h-1z M10,78h1v1h-1z M12,78h1v1h-1z M13,78h1v1h-1z M17,78h1v1h-1z M19,78h1v1h-1z M20,78h1v1h-1z M21,78h1v1h-1z M22,78h1v1h-1z M23,78h1v1h-1z M24,78h1v1h-1z M25,78h1v1h-1z M26,78h1v1h-1z M27,78h1v1h-1z M28,78h1v1h-1z M30,78h1v1h-1z M32,78h1v1h-1z M38,78h1v1h-1z M40,78h1v1h-1z M41,78h1v1h-1z M48,78h1v1h-1z M50,78h1v1h-1z M51,78h1v1h-1z M52,78h1v1h-1z M54,78h1v1h-1z M56,78h1v1h-1z M57,78h1v1h-1z M59,78h1v1h-1z M60,78h1v1h-1z M62,78h1v1h-1z M73,78h1v1h-1z M74,78h1v1h-1z M76,78h1v1h-1z M78,78h1v1h-1z M80,78h1v1h-1z M81,78h1v1h-1z M86,78h1v1h-1z M89,78h1v1h-1z M98,78h1v1h-1z M100,78h1v1h-1z M102,78h1v1h-1z M104,78h1v1h-1z M106,78h1v1h-1z M107,78h1v1h-1z M6,79h1v1h-1z M7,79h1v1h-1z M8,79h1v1h-1z M12,79h1v1h-1z M15,79h1v1h-1z M17,79h1v1h-1z M21,79h1v1h-1z M23,79h1v1h-1z M24,79h1v1h-1z M26,79h1v1h-1z M28,79h1v1h-1z M32,79h1v1h-1z M35,79h1v1h-1z M37,79h1v1h-1z M43,79h1v1h-1z M44,79h1v1h-1z M45,79h1v1h-1z M47,79h1v1h-1z M49,79h1v1h-1z M52,79h1v1h-1z M56,79h1v1h-1z M58,79h1v1h-1z M59,79h1v1h-1z M62,79h1v1h-1z M65,79h1v1h-1z M66,79h1v1h-1z M68,79h1v1h-1z M69,79h1v1h-1z M71,79h1v1h-1z M76,79h1v1h-1z M80,79h1v1h-1z M82,79h1v1h-1z M83,79h1v1h-1z M85,79h1v1h-1z M89,79h1v1h-1z M90,79h1v1h-1z M91,79h1v1h-1z M92,79h1v1h-1z M94,79h1v1h-1z M95,79h1v1h-1z M99,79h1v1h-1z M100,79h1v1h-1z M104,79h1v1h-1z M5,80h1v1h-1z M6,80h1v1h-1z M8,80h1v1h-1z M9,80h1v1h-1z M10,80h1v1h-1z M11,80h1v1h-1z M12,80h1v1h-1z M13,80h1v1h-1z M14,80h1v1h-1z M15,80h1v1h-1z M17,80h1v1h-1z M18,80h1v1h-1z M19,80h1v1h-1z M21,80h1v1h-1z M25,80h1v1h-1z M27,80h1v1h-1z M28,80h1v1h-1z M29,80h1v1h-1z M30,80h1v1h-1z M31,80h1v1h-1z M32,80h1v1h-1z M33,80h1v1h-1z M36,80h1v1h-1z M45,80h1v1h-1z M48,80h1v1h-1z M50,80h1v1h-1z M51,80h1v1h-1z M52,80h1v1h-1z M53,80h1v1h-1z M54,80h1v1h-1z M55,80h1v1h-1z M56,80h1v1h-1z M58,80h1v1h-1z M61,80h1v1h-1z M62,80h1v1h-1z M63,80h1v1h-1z M64,80h1v1h-1z M66,80h1v1h-1z M68,80h1v1h-1z M74,80h1v1h-1z M76,80h1v1h-1z M77,80h1v1h-1z M78,80h1v1h-1z M79,80h1v1h-1z M80,80h1v1h-1z M83,80h1v1h-1z M84,80h1v1h-1z M87,80h1v1h-1z M89,80h1v1h-1z M91,80h1v1h-1z M92,80h1v1h-1z M93,80h1v1h-1z M94,80h1v1h-1z M97,80h1v1h-1z M100,80h1v1h-1z M101,80h1v1h-1z M102,80h1v1h-1z M103,80h1v1h-1z M104,80h1v1h-1z M105,80h1v1h-1z M106,80h1v1h-1z M108,80h1v1h-1z M4,81h1v1h-1z M6,81h1v1h-1z M7,81h1v1h-1z M9,81h1v1h-1z M13,81h1v1h-1z M15,81h1v1h-1z M16,81h1v1h-1z M18,81h1v1h-1z M19,81h1v1h-1z M21,81h1v1h-1z M28,81h1v1h-1z M30,81h1v1h-1z M32,81h1v1h-1z M33,81h1v1h-1z M36,81h1v1h-1z M38,81h1v1h-1z M39,81h1v1h-1z M40,81h1v1h-1z M43,81h1v1h-1z M46,81h1v1h-1z M47,81h1v1h-1z M48,81h1v1h-1z M49,81h1v1h-1z M50,81h1v1h-1z M52,81h1v1h-1z M54,81h1v1h-1z M55,81h1v1h-1z M56,81h1v1h-1z M58,81h1v1h-1z M62,81h1v1h-1z M67,81h1v1h-1z M69,81h1v1h-1z M70,81h1v1h-1z M71,81h1v1h-1z M76,81h1v1h-1z M78,81h1v1h-1z M79,81h1v1h-1z M80,81h1v1h-1z M82,81h1v1h-1z M83,81h1v1h-1z M84,81h1v1h-1z M86,81h1v1h-1z M88,81h1v1h-1z M91,81h1v1h-1z M93,81h1v1h-1z M95,81h1v1h-1z M96,81h1v1h-1z M101,81h1v1h-1z M102,81h1v1h-1z M103,81h1v1h-1z M105,81h1v1h-1z M106,81h1v1h-1z M107,81h1v1h-1z M108,81h1v1h-1z M5,82h1v1h-1z M8,82h1v1h-1z M9,82h1v1h-1z M10,82h1v1h-1z M12,82h1v1h-1z M13,82h1v1h-1z M17,82h1v1h-1z M18,82h1v1h-1z M19,82h1v1h-1z M22,82h1v1h-1z M23,82h1v1h-1z M24,82h1v1h-1z M26,82h1v1h-1z M29,82h1v1h-1z M30,82h1v1h-1z M32,82h1v1h-1z M35,82h1v1h-1z M36,82h1v1h-1z M38,82h1v1h-1z M40,82h1v1h-1z M41,82h1v1h-1z M43,82h1v1h-1z M47,82h1v1h-1z M50,82h1v1h-1z M51,82h1v1h-1z M55,82h1v1h-1z M56,82h1v1h-1z M60,82h1v1h-1z M62,82h1v1h-1z M64,82h1v1h-1z M65,82h1v1h-1z M71,82h1v1h-1z M73,82h1v1h-1z M74,82h1v1h-1z M78,82h1v1h-1z M80,82h1v1h-1z M86,82h1v1h-1z M88,82h1v1h-1z M89,82h1v1h-1z M91,82h1v1h-1z M92,82h1v1h-1z M98,82h1v1h-1z M104,82h1v1h-1z M106,82h1v1h-1z M107,82h1v1h-1z M4,83h1v1h-1z M5,83h1v1h-1z M7,83h1v1h-1z M15,83h1v1h-1z M16,83h1v1h-1z M17,83h1v1h-1z M19,83h1v1h-1z M21,83h1v1h-1z M23,83h1v1h-1z M26,83h1v1h-1z M27,83h1v1h-1z M30,83h1v1h-1z M31,83h1v1h-1z M33,83h1v1h-1z M34,83h1v1h-1z M37,83h1v1h-1z M38,83h1v1h-1z M39,83h1v1h-1z M41,83h1v1h-1z M44,83h1v1h-1z M45,83h1v1h-1z M46,83h1v1h-1z M47,83h1v1h-1z M53,83h1v1h-1z M56,83h1v1h-1z M59,83h1v1h-1z M61,83h1v1h-1z M62,83h1v1h-1z M68,83h1v1h-1z M69,83h1v1h-1z M71,83h1v1h-1z M77,83h1v1h-1z M78,83h1v1h-1z M79,83h1v1h-1z M80,83h1v1h-1z M82,83h1v1h-1z M83,83h1v1h-1z M85,83h1v1h-1z M90,83h1v1h-1z M92,83h1v1h-1z M93,83h1v1h-1z M94,83h1v1h-1z M95,83h1v1h-1z M97,83h1v1h-1z M100,83h1v1h-1z M101,83h1v1h-1z M102,83h1v1h-1z M103,83h1v1h-1z M108,83h1v1h-1z M6,84h1v1h-1z M7,84h1v1h-1z M8,84h1v1h-1z M9,84h1v1h-1z M10,84h1v1h-1z M13,84h1v1h-1z M15,84h1v1h-1z M16,84h1v1h-1z M17,84h1v1h-1z M20,84h1v1h-1z M23,84h1v1h-1z M27,84h1v1h-1z M29,84h1v1h-1z M30,84h1v1h-1z M32,84h1v1h-1z M33,84h1v1h-1z M34,84h1v1h-1z M35,84h1v1h-1z M36,84h1v1h-1z M40,84h1v1h-1z M42,84h1v1h-1z M44,84h1v1h-1z M45,84h1v1h-1z M48,84h1v1h-1z M51,84h1v1h-1z M55,84h1v1h-1z M56,84h1v1h-1z M58,84h1v1h-1z M59,84h1v1h-1z M62,84h1v1h-1z M65,84h1v1h-1z M66,84h1v1h-1z M69,84h1v1h-1z M70,84h1v1h-1z M71,84h1v1h-1z M74,84h1v1h-1z M77,84h1v1h-1z M81,84h1v1h-1z M83,84h1v1h-1z M84,84h1v1h-1z M85,84h1v1h-1z M87,84h1v1h-1z M88,84h1v1h-1z M90,84h1v1h-1z M91,84h1v1h-1z M92,84h1v1h-1z M93,84h1v1h-1z M94,84h1v1h-1z M95,84h1v1h-1z M96,84h1v1h-1z M97,84h1v1h-1z M98,84h1v1h-1z M103,84h1v1h-1z M104,84h1v1h-1z M105,84h1v1h-1z M106,84h1v1h-1z M108,84h1v1h-1z M4,85h1v1h-1z M5,85h1v1h-1z M6,85h1v1h-1z M13,85h1v1h-1z M14,85h1v1h-1z M16,85h1v1h-1z M17,85h1v1h-1z M19,85h1v1h-1z M21,85h1v1h-1z M22,85h1v1h-1z M25,85h1v1h-1z M30,85h1v1h-1z M31,85h1v1h-1z M32,85h1v1h-1z M33,85h1v1h-1z M36,85h1v1h-1z M37,85h1v1h-1z M39,85h1v1h-1z M40,85h1v1h-1z M41,85h1v1h-1z M42,85h1v1h-1z M43,85h1v1h-1z M45,85h1v1h-1z M47,85h1v1h-1z M48,85h1v1h-1z M54,85h1v1h-1z M57,85h1v1h-1z M58,85h1v1h-1z M59,85h1v1h-1z M60,85h1v1h-1z M62,85h1v1h-1z M63,85h1v1h-1z M67,85h1v1h-1z M70,85h1v1h-1z M73,85h1v1h-1z M74,85h1v1h-1z M76,85h1v1h-1z M78,85h1v1h-1z M79,85h1v1h-1z M80,85h1v1h-1z M82,85h1v1h-1z M83,85h1v1h-1z M85,85h1v1h-1z M86,85h1v1h-1z M87,85h1v1h-1z M89,85h1v1h-1z M91,85h1v1h-1z M92,85h1v1h-1z M93,85h1v1h-1z M100,85h1v1h-1z M102,85h1v1h-1z M103,85h1v1h-1z M105,85h1v1h-1z M106,85h1v1h-1z M107,85h1v1h-1z M5,86h1v1h-1z M7,86h1v1h-1z M8,86h1v1h-1z M10,86h1v1h-1z M12,86h1v1h-1z M16,86h1v1h-1z M17,86h1v1h-1z M19,86h1v1h-1z M23,86h1v1h-1z M25,86h1v1h-1z M27,86h1v1h-1z M28,86h1v1h-1z M31,86h1v1h-1z M32,86h1v1h-1z M33,86h1v1h-1z M36,86h1v1h-1z M38,86h1v1h-1z M40,86h1v1h-1z M41,86h1v1h-1z M44,86h1v1h-1z M47,86h1v1h-1z M48,86h1v1h-1z M50,86h1v1h-1z M54,86h1v1h-1z M56,86h1v1h-1z M62,86h1v1h-1z M63,86h1v1h-1z M65,86h1v1h-1z M71,86h1v1h-1z M72,86h1v1h-1z M73,86h1v1h-1z M74,86h1v1h-1z M75,86h1v1h-1z M77,86h1v1h-1z M78,86h1v1h-1z M80,86h1v1h-1z M83,86h1v1h-1z M84,86h1v1h-1z M86,86h1v1h-1z M89,86h1v1h-1z M91,86h1v1h-1z M95,86h1v1h-1z M98,86h1v1h-1z M101,86h1v1h-1z M103,86h1v1h-1z M104,86h1v1h-1z M106,86h1v1h-1z M4,87h1v1h-1z M6,87h1v1h-1z M7,87h1v1h-1z M8,87h1v1h-1z M12,87h1v1h-1z M13,87h1v1h-1z M14,87h1v1h-1z M16,87h1v1h-1z M17,87h1v1h-1z M19,87h1v1h-1z M22,87h1v1h-1z M24,87h1v1h-1z M28,87h1v1h-1z M31,87h1v1h-1z M34,87h1v1h-1z M38,87h1v1h-1z M44,87h1v1h-1z M45,87h1v1h-1z M46,87h1v1h-1z M50,87h1v1h-1z M51,87h1v1h-1z M52,87h1v1h-1z M59,87h1v1h-1z M65,87h1v1h-1z M67,87h1v1h-1z M68,87h1v1h-1z M69,87h1v1h-1z M76,87h1v1h-1z M78,87h1v1h-1z M79,87h1v1h-1z M82,87h1v1h-1z M86,87h1v1h-1z M92,87h1v1h-1z M93,87h1v1h-1z M95,87h1v1h-1z M97,87h1v1h-1z M100,87h1v1h-1z M101,87h1v1h-1z M102,87h1v1h-1z M103,87h1v1h-1z M105,87h1v1h-1z M4,88h1v1h-1z M5,88h1v1h-1z M7,88h1v1h-1z M9,88h1v1h-1z M10,88h1v1h-1z M11,88h1v1h-1z M12,88h1v1h-1z M14,88h1v1h-1z M15,88h1v1h-1z M19,88h1v1h-1z M20,88h1v1h-1z M21,88h1v1h-1z M22,88h1v1h-1z M23,88h1v1h-1z M24,88h1v1h-1z M25,88h1v1h-1z M27,88h1v1h-1z M31,88h1v1h-1z M35,88h1v1h-1z M36,88h1v1h-1z M37,88h1v1h-1z M39,88h1v1h-1z M41,88h1v1h-1z M43,88h1v1h-1z M45,88h1v1h-1z M46,88h1v1h-1z M47,88h1v1h-1z M49,88h1v1h-1z M50,88h1v1h-1z M51,88h1v1h-1z M54,88h1v1h-1z M55,88h1v1h-1z M62,88h1v1h-1z M63,88h1v1h-1z M65,88h1v1h-1z M66,88h1v1h-1z M67,88h1v1h-1z M68,88h1v1h-1z M71,88h1v1h-1z M73,88h1v1h-1z M75,88h1v1h-1z M78,88h1v1h-1z M81,88h1v1h-1z M87,88h1v1h-1z M89,88h1v1h-1z M91,88h1v1h-1z M92,88h1v1h-1z M93,88h1v1h-1z M95,88h1v1h-1z M97,88h1v1h-1z M100,88h1v1h-1z M101,88h1v1h-1z M103,88h1v1h-1z M105,88h1v1h-1z M107,88h1v1h-1z M4,89h1v1h-1z M8,89h1v1h-1z M12,89h1v1h-1z M17,89h1v1h-1z M18,89h1v1h-1z M23,89h1v1h-1z M24,89h1v1h-1z M25,89h1v1h-1z M30,89h1v1h-1z M31,89h1v1h-1z M32,89h1v1h-1z M33,89h1v1h-1z M34,89h1v1h-1z M35,89h1v1h-1z M40,89h1v1h-1z M42,89h1v1h-1z M44,89h1v1h-1z M45,89h1v1h-1z M46,89h1v1h-1z M50,89h1v1h-1z M52,89h1v1h-1z M54,89h1v1h-1z M55,89h1v1h-1z M57,89h1v1h-1z M59,89h1v1h-1z M60,89h1v1h-1z M62,89h1v1h-1z M65,89h1v1h-1z M66,89h1v1h-1z M67,89h1v1h-1z M71,89h1v1h-1z M72,89h1v1h-1z M73,89h1v1h-1z M76,89h1v1h-1z M78,89h1v1h-1z M79,89h1v1h-1z M80,89h1v1h-1z M81,89h1v1h-1z M84,89h1v1h-1z M85,89h1v1h-1z M86,89h1v1h-1z M87,89h1v1h-1z M88,89h1v1h-1z M89,89h1v1h-1z M93,89h1v1h-1z M95,89h1v1h-1z M96,89h1v1h-1z M98,89h1v1h-1z M100,89h1v1h-1z M102,89h1v1h-1z M103,89h1v1h-1z M106,89h1v1h-1z M107,89h1v1h-1z M5,90h1v1h-1z M6,90h1v1h-1z M7,90h1v1h-1z M10,90h1v1h-1z M11,90h1v1h-1z M12,90h1v1h-1z M13,90h1v1h-1z M14,90h1v1h-1z M15,90h1v1h-1z M16,90h1v1h-1z M18,90h1v1h-1z M19,90h1v1h-1z M22,90h1v1h-1z M25,90h1v1h-1z M26,90h1v1h-1z M28,90h1v1h-1z M31,90h1v1h-1z M32,90h1v1h-1z M33,90h1v1h-1z M36,90h1v1h-1z M38,90h1v1h-1z M40,90h1v1h-1z M41,90h1v1h-1z M47,90h1v1h-1z M48,90h1v1h-1z M50,90h1v1h-1z M51,90h1v1h-1z M52,90h1v1h-1z M56,90h1v1h-1z M62,90h1v1h-1z M63,90h1v1h-1z M65,90h1v1h-1z M71,90h1v1h-1z M72,90h1v1h-1z M74,90h1v1h-1z M75,90h1v1h-1z M76,90h1v1h-1z M77,90h1v1h-1z M78,90h1v1h-1z M79,90h1v1h-1z M80,90h1v1h-1z M83,90h1v1h-1z M84,90h1v1h-1z M86,90h1v1h-1z M88,90h1v1h-1z M89,90h1v1h-1z M93,90h1v1h-1z M95,90h1v1h-1z M96,90h1v1h-1z M97,90h1v1h-1z M98,90h1v1h-1z M101,90h1v1h-1z M105,90h1v1h-1z M107,90h1v1h-1z M6,91h1v1h-1z M7,91h1v1h-1z M8,91h1v1h-1z M9,91h1v1h-1z M14,91h1v1h-1z M22,91h1v1h-1z M23,91h1v1h-1z M25,91h1v1h-1z M26,91h1v1h-1z M27,91h1v1h-1z M30,91h1v1h-1z M31,91h1v1h-1z M32,91h1v1h-1z M34,91h1v1h-1z M35,91h1v1h-1z M44,91h1v1h-1z M45,91h1v1h-1z M46,91h1v1h-1z M47,91h1v1h-1z M49,91h1v1h-1z M54,91h1v1h-1z M56,91h1v1h-1z M57,91h1v1h-1z M59,91h1v1h-1z M68,91h1v1h-1z M69,91h1v1h-1z M70,91h1v1h-1z M71,91h1v1h-1z M73,91h1v1h-1z M74,91h1v1h-1z M75,91h1v1h-1z M76,91h1v1h-1z M78,91h1v1h-1z M79,91h1v1h-1z M80,91h1v1h-1z M83,91h1v1h-1z M86,91h1v1h-1z M87,91h1v1h-1z M89,91h1v1h-1z M90,91h1v1h-1z M91,91h1v1h-1z M92,91h1v1h-1z M93,91h1v1h-1z M94,91h1v1h-1z M99,91h1v1h-1z M100,91h1v1h-1z M101,91h1v1h-1z M103,91h1v1h-1z M104,91h1v1h-1z M108,91h1v1h-1z M5,92h1v1h-1z M8,92h1v1h-1z M10,92h1v1h-1z M11,92h1v1h-1z M12,92h1v1h-1z M14,92h1v1h-1z M15,92h1v1h-1z M16,92h1v1h-1z M17,92h1v1h-1z M18,92h1v1h-1z M19,92h1v1h-1z M20,92h1v1h-1z M23,92h1v1h-1z M25,92h1v1h-1z M26,92h1v1h-1z M27,92h1v1h-1z M29,92h1v1h-1z M30,92h1v1h-1z M33,92h1v1h-1z M38,92h1v1h-1z M41,92h1v1h-1z M42,92h1v1h-1z M43,92h1v1h-1z M44,92h1v1h-1z M45,92h1v1h-1z M53,92h1v1h-1z M54,92h1v1h-1z M60,92h1v1h-1z M61,92h1v1h-1z M64,92h1v1h-1z M67,92h1v1h-1z M68,92h1v1h-1z M70,92h1v1h-1z M75,92h1v1h-1z M81,92h1v1h-1z M82,92h1v1h-1z M84,92h1v1h-1z M87,92h1v1h-1z M89,92h1v1h-1z M91,92h1v1h-1z M92,92h1v1h-1z M94,92h1v1h-1z M100,92h1v1h-1z M101,92h1v1h-1z M104,92h1v1h-1z M107,92h1v1h-1z M6,93h1v1h-1z M9,93h1v1h-1z M12,93h1v1h-1z M13,93h1v1h-1z M14,93h1v1h-1z M15,93h1v1h-1z M16,93h1v1h-1z M17,93h1v1h-1z M18,93h1v1h-1z M19,93h1v1h-1z M21,93h1v1h-1z M23,93h1v1h-1z M24,93h1v1h-1z M25,93h1v1h-1z M26,93h1v1h-1z M30,93h1v1h-1z M34,93h1v1h-1z M36,93h1v1h-1z M38,93h1v1h-1z M39,93h1v1h-1z M45,93h1v1h-1z M46,93h1v1h-1z M48,93h1v1h-1z M49,93h1v1h-1z M50,93h1v1h-1z M54,93h1v1h-1z M58,93h1v1h-1z M60,93h1v1h-1z M61,93h1v1h-1z M62,93h1v1h-1z M67,93h1v1h-1z M71,93h1v1h-1z M72,93h1v1h-1z M73,93h1v1h-1z M78,93h1v1h-1z M79,93h1v1h-1z M82,93h1v1h-1z M83,93h1v1h-1z M84,93h1v1h-1z M86,93h1v1h-1z M87,93h1v1h-1z M88,93h1v1h-1z M91,93h1v1h-1z M92,93h1v1h-1z M93,93h1v1h-1z M95,93h1v1h-1z M96,93h1v1h-1z M98,93h1v1h-1z M99,93h1v1h-1z M100,93h1v1h-1z M101,93h1v1h-1z M102,93h1v1h-1z M103,93h1v1h-1z M106,93h1v1h-1z M107,93h1v1h-1z M108,93h1v1h-1z M4,94h1v1h-1z M9,94h1v1h-1z M10,94h1v1h-1z M11,94h1v1h-1z M13,94h1v1h-1z M15,94h1v1h-1z M18,94h1v1h-1z M19,94h1v1h-1z M25,94h1v1h-1z M30,94h1v1h-1z M32,94h1v1h-1z M36,94h1v1h-1z M38,94h1v1h-1z M40,94h1v1h-1z M41,94h1v1h-1z M43,94h1v1h-1z M44,94h1v1h-1z M50,94h1v1h-1z M56,94h1v1h-1z M59,94h1v1h-1z M60,94h1v1h-1z M61,94h1v1h-1z M62,94h1v1h-1z M64,94h1v1h-1z M65,94h1v1h-1z M67,94h1v1h-1z M74,94h1v1h-1z M75,94h1v1h-1z M76,94h1v1h-1z M80,94h1v1h-1z M81,94h1v1h-1z M83,94h1v1h-1z M84,94h1v1h-1z M86,94h1v1h-1z M87,94h1v1h-1z M88,94h1v1h-1z M89,94h1v1h-1z M91,94h1v1h-1z M92,94h1v1h-1z M95,94h1v1h-1z M96,94h1v1h-1z M98,94h1v1h-1z M99,94h1v1h-1z M101,94h1v1h-1z M104,94h1v1h-1z M107,94h1v1h-1z M5,95h1v1h-1z M7,95h1v1h-1z M8,95h1v1h-1z M9,95h1v1h-1z M11,95h1v1h-1z M12,95h1v1h-1z M13,95h1v1h-1z M15,95h1v1h-1z M17,95h1v1h-1z M22,95h1v1h-1z M24,95h1v1h-1z M25,95h1v1h-1z M26,95h1v1h-1z M27,95h1v1h-1z M28,95h1v1h-1z M29,95h1v1h-1z M32,95h1v1h-1z M38,95h1v1h-1z M39,95h1v1h-1z M42,95h1v1h-1z M44,95h1v1h-1z M46,95h1v1h-1z M47,95h1v1h-1z M49,95h1v1h-1z M53,95h1v1h-1z M55,95h1v1h-1z M56,95h1v1h-1z M57,95h1v1h-1z M58,95h1v1h-1z M66,95h1v1h-1z M68,95h1v1h-1z M69,95h1v1h-1z M70,95h1v1h-1z M71,95h1v1h-1z M73,95h1v1h-1z M76,95h1v1h-1z M82,95h1v1h-1z M85,95h1v1h-1z M87,95h1v1h-1z M89,95h1v1h-1z M90,95h1v1h-1z M92,95h1v1h-1z M95,95h1v1h-1z M98,95h1v1h-1z M100,95h1v1h-1z M102,95h1v1h-1z M103,95h1v1h-1z M107,95h1v1h-1z M108,95h1v1h-1z M4,96h1v1h-1z M5,96h1v1h-1z M6,96h1v1h-1z M7,96h1v1h-1z M8,96h1v1h-1z M10,96h1v1h-1z M12,96h1v1h-1z M13,96h1v1h-1z M15,96h1v1h-1z M19,96h1v1h-1z M20,96h1v1h-1z M23,96h1v1h-1z M24,96h1v1h-1z M26,96h1v1h-1z M29,96h1v1h-1z M30,96h1v1h-1z M34,96h1v1h-1z M35,96h1v1h-1z M36,96h1v1h-1z M37,96h1v1h-1z M39,96h1v1h-1z M40,96h1v1h-1z M41,96h1v1h-1z M42,96h1v1h-1z M44,96h1v1h-1z M47,96h1v1h-1z M48,96h1v1h-1z M50,96h1v1h-1z M51,96h1v1h-1z M52,96h1v1h-1z M53,96h1v1h-1z M55,96h1v1h-1z M57,96h1v1h-1z M58,96h1v1h-1z M59,96h1v1h-1z M62,96h1v1h-1z M64,96h1v1h-1z M65,96h1v1h-1z M66,96h1v1h-1z M67,96h1v1h-1z M68,96h1v1h-1z M70,96h1v1h-1z M71,96h1v1h-1z M73,96h1v1h-1z M75,96h1v1h-1z M77,96h1v1h-1z M81,96h1v1h-1z M82,96h1v1h-1z M84,96h1v1h-1z M89,96h1v1h-1z M90,96h1v1h-1z M92,96h1v1h-1z M93,96h1v1h-1z M94,96h1v1h-1z M100,96h1v1h-1z M102,96h1v1h-1z M103,96h1v1h-1z M105,96h1v1h-1z M106,96h1v1h-1z M107,96h1v1h-1z M108,96h1v1h-1z M4,97h1v1h-1z M5,97h1v1h-1z M7,97h1v1h-1z M8,97h1v1h-1z M9,97h1v1h-1z M15,97h1v1h-1z M17,97h1v1h-1z M19,97h1v1h-1z M23,97h1v1h-1z M28,97h1v1h-1z M30,97h1v1h-1z M36,97h1v1h-1z M38,97h1v1h-1z M39,97h1v1h-1z M40,97h1v1h-1z M43,97h1v1h-1z M44,97h1v1h-1z M48,97h1v1h-1z M54,97h1v1h-1z M56,97h1v1h-1z M59,97h1v1h-1z M60,97h1v1h-1z M62,97h1v1h-1z M63,97h1v1h-1z M64,97h1v1h-1z M65,97h1v1h-1z M68,97h1v1h-1z M69,97h1v1h-1z M72,97h1v1h-1z M73,97h1v1h-1z M74,97h1v1h-1z M77,97h1v1h-1z M78,97h1v1h-1z M79,97h1v1h-1z M80,97h1v1h-1z M83,97h1v1h-1z M84,97h1v1h-1z M86,97h1v1h-1z M88,97h1v1h-1z M93,97h1v1h-1z M96,97h1v1h-1z M97,97h1v1h-1z M99,97h1v1h-1z M103,97h1v1h-1z M106,97h1v1h-1z M107,97h1v1h-1z M4,98h1v1h-1z M5,98h1v1h-1z M6,98h1v1h-1z M10,98h1v1h-1z M12,98h1v1h-1z M15,98h1v1h-1z M16,98h1v1h-1z M17,98h1v1h-1z M19,98h1v1h-1z M20,98h1v1h-1z M22,98h1v1h-1z M25,98h1v1h-1z M26,98h1v1h-1z M32,98h1v1h-1z M38,98h1v1h-1z M39,98h1v1h-1z M41,98h1v1h-1z M43,98h1v1h-1z M44,98h1v1h-1z M45,98h1v1h-1z M47,98h1v1h-1z M50,98h1v1h-1z M52,98h1v1h-1z M54,98h1v1h-1z M56,98h1v1h-1z M60,98h1v1h-1z M62,98h1v1h-1z M64,98h1v1h-1z M65,98h1v1h-1z M71,98h1v1h-1z M72,98h1v1h-1z M74,98h1v1h-1z M75,98h1v1h-1z M76,98h1v1h-1z M77,98h1v1h-1z M78,98h1v1h-1z M79,98h1v1h-1z M80,98h1v1h-1z M86,98h1v1h-1z M87,98h1v1h-1z M88,98h1v1h-1z M89,98h1v1h-1z M95,98h1v1h-1z M96,98h1v1h-1z M98,98h1v1h-1z M99,98h1v1h-1z M101,98h1v1h-1z M105,98h1v1h-1z M106,98h1v1h-1z M107,98h1v1h-1z M6,99h1v1h-1z M8,99h1v1h-1z M9,99h1v1h-1z M13,99h1v1h-1z M14,99h1v1h-1z M15,99h1v1h-1z M20,99h1v1h-1z M21,99h1v1h-1z M22,99h1v1h-1z M23,99h1v1h-1z M24,99h1v1h-1z M26,99h1v1h-1z M27,99h1v1h-1z M28,99h1v1h-1z M29,99h1v1h-1z M31,99h1v1h-1z M32,99h1v1h-1z M33,99h1v1h-1z M34,99h1v1h-1z M35,99h1v1h-1z M37,99h1v1h-1z M42,99h1v1h-1z M44,99h1v1h-1z M46,99h1v1h-1z M47,99h1v1h-1z M49,99h1v1h-1z M51,99h1v1h-1z M52,99h1v1h-1z M54,99h1v1h-1z M57,99h1v1h-1z M58,99h1v1h-1z M59,99h1v1h-1z M61,99h1v1h-1z M63,99h1v1h-1z M67,99h1v1h-1z M68,99h1v1h-1z M70,99h1v1h-1z M73,99h1v1h-1z M75,99h1v1h-1z M77,99h1v1h-1z M79,99h1v1h-1z M80,99h1v1h-1z M81,99h1v1h-1z M82,99h1v1h-1z M83,99h1v1h-1z M86,99h1v1h-1z M91,99h1v1h-1z M92,99h1v1h-1z M93,99h1v1h-1z M94,99h1v1h-1z M95,99h1v1h-1z M97,99h1v1h-1z M98,99h1v1h-1z M100,99h1v1h-1z M104,99h1v1h-1z M105,99h1v1h-1z M107,99h1v1h-1z M108,99h1v1h-1z M7,100h1v1h-1z M8,100h1v1h-1z M10,100h1v1h-1z M11,100h1v1h-1z M16,100h1v1h-1z M17,100h1v1h-1z M18,100h1v1h-1z M25,100h1v1h-1z M26,100h1v1h-1z M27,100h1v1h-1z M28,100h1v1h-1z M29,100h1v1h-1z M30,100h1v1h-1z M31,100h1v1h-1z M32,100h1v1h-1z M33,100h1v1h-1z M36,100h1v1h-1z M37,100h1v1h-1z M40,100h1v1h-1z M42,100h1v1h-1z M45,100h1v1h-1z M47,100h1v1h-1z M51,100h1v1h-1z M52,100h1v1h-1z M53,100h1v1h-1z M54,100h1v1h-1z M55,100h1v1h-1z M56,100h1v1h-1z M57,100h1v1h-1z M60,100h1v1h-1z M62,100h1v1h-1z M63,100h1v1h-1z M67,100h1v1h-1z M68,100h1v1h-1z M70,100h1v1h-1z M72,100h1v1h-1z M73,100h1v1h-1z M75,100h1v1h-1z M76,100h1v1h-1z M77,100h1v1h-1z M78,100h1v1h-1z M79,100h1v1h-1z M80,100h1v1h-1z M84,100h1v1h-1z M85,100h1v1h-1z M86,100h1v1h-1z M89,100h1v1h-1z M91,100h1v1h-1z M93,100h1v1h-1z M94,100h1v1h-1z M98,100h1v1h-1z M100,100h1v1h-1z M101,100h1v1h-1z M102,100h1v1h-1z M103,100h1v1h-1z M104,100h1v1h-1z M12,101h1v1h-1z M13,101h1v1h-1z M14,101h1v1h-1z M15,101h1v1h-1z M17,101h1v1h-1z M19,101h1v1h-1z M20,101h1v1h-1z M25,101h1v1h-1z M26,101h1v1h-1z M27,101h1v1h-1z M28,101h1v1h-1z M32,101h1v1h-1z M36,101h1v1h-1z M37,101h1v1h-1z M40,101h1v1h-1z M41,101h1v1h-1z M44,101h1v1h-1z M47,101h1v1h-1z M50,101h1v1h-1z M52,101h1v1h-1z M56,101h1v1h-1z M57,101h1v1h-1z M60,101h1v1h-1z M62,101h1v1h-1z M63,101h1v1h-1z M65,101h1v1h-1z M66,101h1v1h-1z M67,101h1v1h-1z M69,101h1v1h-1z M70,101h1v1h-1z M72,101h1v1h-1z M73,101h1v1h-1z M74,101h1v1h-1z M75,101h1v1h-1z M76,101h1v1h-1z M80,101h1v1h-1z M81,101h1v1h-1z M84,101h1v1h-1z M85,101h1v1h-1z M86,101h1v1h-1z M88,101h1v1h-1z M89,101h1v1h-1z M90,101h1v1h-1z M91,101h1v1h-1z M92,101h1v1h-1z M93,101h1v1h-1z M95,101h1v1h-1z M98,101h1v1h-1z M100,101h1v1h-1z M104,101h1v1h-1z M106,101h1v1h-1z M108,101h1v1h-1z M4,102h1v1h-1z M5,102h1v1h-1z M6,102h1v1h-1z M7,102h1v1h-1z M8,102h1v1h-1z M9,102h1v1h-1z M10,102h1v1h-1z M13,102h1v1h-1z M14,102h1v1h-1z M15,102h1v1h-1z M16,102h1v1h-1z M17,102h1v1h-1z M24,102h1v1h-1z M25,102h1v1h-1z M26,102h1v1h-1z M27,102h1v1h-1z M28,102h1v1h-1z M30,102h1v1h-1z M32,102h1v1h-1z M36,102h1v1h-1z M37,102h1v1h-1z M38,102h1v1h-1z M40,102h1v1h-1z M47,102h1v1h-1z M48,102h1v1h-1z M50,102h1v1h-1z M51,102h1v1h-1z M52,102h1v1h-1z M54,102h1v1h-1z M56,102h1v1h-1z M59,102h1v1h-1z M60,102h1v1h-1z M61,102h1v1h-1z M62,102h1v1h-1z M64,102h1v1h-1z M65,102h1v1h-1z M69,102h1v1h-1z M71,102h1v1h-1z M74,102h1v1h-1z M75,102h1v1h-1z M76,102h1v1h-1z M78,102h1v1h-1z M80,102h1v1h-1z M84,102h1v1h-1z M86,102h1v1h-1z M87,102h1v1h-1z M88,102h1v1h-1z M89,102h1v1h-1z M95,102h1v1h-1z M98,102h1v1h-1z M100,102h1v1h-1z M102,102h1v1h-1z M104,102h1v1h-1z M106,102h1v1h-1z M107,102h1v1h-1z M4,103h1v1h-1z M10,103h1v1h-1z M12,103h1v1h-1z M13,103h1v1h-1z M14,103h1v1h-1z M18,103h1v1h-1z M19,103h1v1h-1z M20,103h1v1h-1z M22,103h1v1h-1z M23,103h1v1h-1z M25,103h1v1h-1z M28,103h1v1h-1z M32,103h1v1h-1z M33,103h1v1h-1z M35,103h1v1h-1z M41,103h1v1h-1z M42,103h1v1h-1z M43,103h1v1h-1z M44,103h1v1h-1z M46,103h1v1h-1z M50,103h1v1h-1z M52,103h1v1h-1z M56,103h1v1h-1z M57,103h1v1h-1z M58,103h1v1h-1z M59,103h1v1h-1z M61,103h1v1h-1z M68,103h1v1h-1z M70,103h1v1h-1z M71,103h1v1h-1z M73,103h1v1h-1z M75,103h1v1h-1z M76,103h1v1h-1z M80,103h1v1h-1z M81,103h1v1h-1z M82,103h1v1h-1z M83,103h1v1h-1z M89,103h1v1h-1z M92,103h1v1h-1z M94,103h1v1h-1z M95,103h1v1h-1z M97,103h1v1h-1z M98,103h1v1h-1z M99,103h1v1h-1z M100,103h1v1h-1z M104,103h1v1h-1z M105,103h1v1h-1z M107,103h1v1h-1z M108,103h1v1h-1z M4,104h1v1h-1z M6,104h1v1h-1z M7,104h1v1h-1z M8,104h1v1h-1z M10,104h1v1h-1z M12,104h1v1h-1z M14,104h1v1h-1z M15,104h1v1h-1z M19,104h1v1h-1z M22,104h1v1h-1z M23,104h1v1h-1z M28,104h1v1h-1z M29,104h1v1h-1z M30,104h1v1h-1z M31,104h1v1h-1z M32,104h1v1h-1z M33,104h1v1h-1z M34,104h1v1h-1z M35,104h1v1h-1z M37,104h1v1h-1z M39,104h1v1h-1z M42,104h1v1h-1z M43,104h1v1h-1z M45,104h1v1h-1z M46,104h1v1h-1z M49,104h1v1h-1z M52,104h1v1h-1z M53,104h1v1h-1z M54,104h1v1h-1z M55,104h1v1h-1z M56,104h1v1h-1z M58,104h1v1h-1z M59,104h1v1h-1z M60,104h1v1h-1z M62,104h1v1h-1z M63,104h1v1h-1z M64,104h1v1h-1z M66,104h1v1h-1z M67,104h1v1h-1z M68,104h1v1h-1z M69,104h1v1h-1z M70,104h1v1h-1z M72,104h1v1h-1z M73,104h1v1h-1z M74,104h1v1h-1z M75,104h1v1h-1z M76,104h1v1h-1z M77,104h1v1h-1z M78,104h1v1h-1z M79,104h1v1h-1z M80,104h1v1h-1z M82,104h1v1h-1z M83,104h1v1h-1z M86,104h1v1h-1z M88,104h1v1h-1z M89,104h1v1h-1z M90,104h1v1h-1z M91,104h1v1h-1z M92,104h1v1h-1z M94,104h1v1h-1z M95,104h1v1h-1z M96,104h1v1h-1z M98,104h1v1h-1z M100,104h1v1h-1z M101,104h1v1h-1z M102,104h1v1h-1z M103,104h1v1h-1z M104,104h1v1h-1z M105,104h1v1h-1z M4,105h1v1h-1z M6,105h1v1h-1z M7,105h1v1h-1z M8,105h1v1h-1z M10,105h1v1h-1z M13,105h1v1h-1z M14,105h1v1h-1z M18,105h1v1h-1z M20,105h1v1h-1z M23,105h1v1h-1z M24,105h1v1h-1z M25,105h1v1h-1z M27,105h1v1h-1z M29,105h1v1h-1z M30,105h1v1h-1z M35,105h1v1h-1z M36,105h1v1h-1z M37,105h1v1h-1z M40,105h1v1h-1z M42,105h1v1h-1z M48,105h1v1h-1z M49,105h1v1h-1z M54,105h1v1h-1z M55,105h1v1h-1z M57,105h1v1h-1z M58,105h1v1h-1z M59,105h1v1h-1z M60,105h1v1h-1z M61,105h1v1h-1z M65,105h1v1h-1z M66,105h1v1h-1z M72,105h1v1h-1z M73,105h1v1h-1z M74,105h1v1h-1z M75,105h1v1h-1z M76,105h1v1h-1z M78,105h1v1h-1z M80,105h1v1h-1z M84,105h1v1h-1z M85,105h1v1h-1z M88,105h1v1h-1z M89,105h1v1h-1z M90,105h1v1h-1z M91,105h1v1h-1z M93,105h1v1h-1z M94,105h1v1h-1z M95,105h1v1h-1z M96,105h1v1h-1z M99,105h1v1h-1z M102,105h1v1h-1z M103,105h1v1h-1z M104,105h1v1h-1z M106,105h1v1h-1z M107,105h1v1h-1z M108,105h1v1h-1z M4,106h1v1h-1z M6,106h1v1h-1z M7,106h1v1h-1z M8,106h1v1h-1z M10,106h1v1h-1z M14,106h1v1h-1z M15,106h1v1h-1z M19,106h1v1h-1z M22,106h1v1h-1z M24,106h1v1h-1z M26,106h1v1h-1z M27,106h1v1h-1z M28,106h1v1h-1z M29,106h1v1h-1z M35,106h1v1h-1z M36,106h1v1h-1z M38,106h1v1h-1z M39,106h1v1h-1z M45,106h1v1h-1z M47,106h1v1h-1z M50,106h1v1h-1z M53,106h1v1h-1z M55,106h1v1h-1z M56,106h1v1h-1z M57,106h1v1h-1z M60,106h1v1h-1z M61,106h1v1h-1z M62,106h1v1h-1z M63,106h1v1h-1z M65,106h1v1h-1z M74,106h1v1h-1z M77,106h1v1h-1z M79,106h1v1h-1z M81,106h1v1h-1z M83,106h1v1h-1z M86,106h1v1h-1z M87,106h1v1h-1z M88,106h1v1h-1z M89,106h1v1h-1z M91,106h1v1h-1z M92,106h1v1h-1z M93,106h1v1h-1z M95,106h1v1h-1z M96,106h1v1h-1z M98,106h1v1h-1z M102,106h1v1h-1z M103,106h1v1h-1z M104,106h1v1h-1z M105,106h1v1h-1z M106,106h1v1h-1z M4,107h1v1h-1z M10,107h1v1h-1z M12,107h1v1h-1z M17,107h1v1h-1z M18,107h1v1h-1z M19,107h1v1h-1z M21,107h1v1h-1z M22,107h1v1h-1z M25,107h1v1h-1z M26,107h1v1h-1z M29,107h1v1h-1z M32,107h1v1h-1z M33,107h1v1h-1z M35,107h1v1h-1z M38,107h1v1h-1z M41,107h1v1h-1z M42,107h1v1h-1z M44,107h1v1h-1z M45,107h1v1h-1z M46,107h1v1h-1z M47,107h1v1h-1z M50,107h1v1h-1z M53,107h1v1h-1z M54,107h1v1h-1z M56,107h1v1h-1z M58,107h1v1h-1z M65,107h1v1h-1z M68,107h1v1h-1z M69,107h1v1h-1z M71,107h1v1h-1z M77,107h1v1h-1z M78,107h1v1h-1z M80,107h1v1h-1z M82,107h1v1h-1z M83,107h1v1h-1z M85,107h1v1h-1z M90,107h1v1h-1z M92,107h1v1h-1z M94,107h1v1h-1z M97,107h1v1h-1z M98,107h1v1h-1z M100,107h1v1h-1z M101,107h1v1h-1z M103,107h1v1h-1z M104,107h1v1h-1z M4,108h1v1h-1z M5,108h1v1h-1z M6,108h1v1h-1z M7,108h1v1h-1z M8,108h1v1h-1z M9,108h1v1h-1z M10,108h1v1h-1z M12,108h1v1h-1z M13,108h1v1h-1z M14,108h1v1h-1z M15,108h1v1h-1z M18,108h1v1h-1z M19,108h1v1h-1z M21,108h1v1h-1z M23,108h1v1h-1z M24,108h1v1h-1z M25,108h1v1h-1z M27,108h1v1h-1z M28,108h1v1h-1z M31,108h1v1h-1z M32,108h1v1h-1z M34,108h1v1h-1z M37,108h1v1h-1z M47,108h1v1h-1z M48,108h1v1h-1z M49,108h1v1h-1z M53,108h1v1h-1z M54,108h1v1h-1z M55,108h1v1h-1z M56,108h1v1h-1z M58,108h1v1h-1z M59,108h1v1h-1z M60,108h1v1h-1z M62,108h1v1h-1z M63,108h1v1h-1z M65,108h1v1h-1z M66,108h1v1h-1z M67,108h1v1h-1z M71,108h1v1h-1z M72,108h1v1h-1z M73,108h1v1h-1z M75,108h1v1h-1z M76,108h1v1h-1z M78,108h1v1h-1z M79,108h1v1h-1z M81,108h1v1h-1z M85,108h1v1h-1z M86,108h1v1h-1z M87,108h1v1h-1z M88,108h1v1h-1z M89,108h1v1h-1z M94,108h1v1h-1z M95,108h1v1h-1z M96,108h1v1h-1z M98,108h1v1h-1z M99,108h1v1h-1z M101,108h1v1h-1z M108,108h1v1h-1z" fill="#000000"/>
</svg>
