<?xml version="1.0" encoding="UTF-8"?>
<!DOCTYPE svg PUBLIC "-//W3C//DTD SVG 1.1//EN" "http://www.w3.org/Graphics/SVG/1.1/DTD/svg11.dtd">
<svg xmlns="http://www.w3.org/2000/svg" version="1.1" viewBox="0 0 113 113" stroke="none">
	<rect width="100%" height="100%" fill="#FFFFFF"/>
	<path d="M4,4h1v1h-1z M5,4h1v1h-1z M6,4h1v1h-1z M7,4h1v1h-1z M8,4h1v1h-1z M9,4h1v1h-1z M10,4h1v1h-1z M12,4h1v1h-1z M14,4h1v1h-1z M17,4h1v1h-1z M18,4h1v1h-1z M19,4h1v1h-1z M21,4h1v1h-1z M27,4h1v1h-1z M29,4h1v1h-1z M33,4h1v1h-1z M34,4h1v1h-1z M35,4h1v1h-1z M36,4h1v1h-1z M44,4h1v1h-1z M47,4h1v1h-1z M48,4h1v1h-1z M49,4h1v1h-1z M51,4h1v1h-1z M52,4h1v1h-1z M53,4h1v1h-1z M55,4h1v1h-1z M58,4h1v1h-1z M59,4h1v1h-1z M61,4h1v1h-1z M62,4h1v1h-1z M64,4h1v1h-1z M65,4h1v1h-1z M66,4h1v1h-1z M70,4h1v1h-1z M73,4h1v1h-1z M74,4h1v1h-1z M75,4h1v1h-1z M79,4h1v1h-1z M81,4h1v1h-1z M82,4h1v1h-1z M83,4h1v1h-1z M85,4h1v1h-1z M88,4h1v1h-1z M90,4h1v1h-1z M93,4h1v1h-1z M95,4h1v1h-1z M98,4h1v1h-1z M102,4h1v1h-1z M103,4h1v1h-1z M104,4h1v1h-1z M105,4h1v1h-1z M106,4h1v1h-1z M107,4h1v1h-1z M108,4h1v1h-1z M4,5h1v1h-1z M10,5h1v1h-1z M12,5h1v1h-1z M14,5h1v1h-1z M16,5h1v1h-1z M19,5h1v1h-1z M23,5h1v1h-1z M30,5h1v1h-1z M31,5h1v1h-1z M33,5h1v1h-1z M34,5h1v1h-1z M40,5h1v1h-1z M42,5h1v1h-1z M44,5h1v1h-1z M46,5h1v1h-1z M49,5h1v1h-1z M51,5h1v1h-1z M52,5h1v1h-1z M53,5h1v1h-1z M54,5h1v1h-1z M57,5h1v1h-1z M58,5h1v1h-1z M59,5h1v1h-1z M61,5h1v1h-1z M64,5h1v1h-1z M65,5h1v1h-1z M66,5h1v1h-1z M68,5h1v1h-1z M70,5h1v1h-1z M71,5h1v1h-1z M76,5h1v1h-1z M77,5h1v1h-1z M78,5h1v1h-1z M79,5h1v1h-1z M80,5h1v1h-1z M81,5h1v1h-1z M82,5h1v1h-1z M83,5h1v1h-1z M85,5h1v1h-1z M87,5h1v1h-1z M88,5h1v1h-1z M90,5h1v1h-1z M92,5h1v1h-1z M93,5h1v1h-1z M94,5h1v1h-1z M95,5h1v1h-1z M96,5h1v1h-1z M97,5h1v1h-1z M98,5h1v1h-1z M102,5h1v1h-1z M108,5h1v1h-1z M4,6h1v1h-1z M6,6h1v1h-1z M7,6h1v1h-1z M8,6h1v1h-1z M10,6h1v1h-1z M12,6h1v1h-1z M13,6h1v1h-1z M17,6h1v1h-1z M18,6h1v1h-1z M23,6h1v1h-1z M25,6h1v1h-1z M26,6h1v1h-1z M27,6h1v1h-1z M32,6h1v1h-1z M33,6h1v1h-1z M34,6h1v1h-1z M42,6h1v1h-1z M44,6h1v1h-1z M46,6h1v1h-1z M53,6h1v1h-1z M54,6h1v1h-1z M56,6h1v1h-1z M57,6h1v1h-1z M59,6h1v1h-1z M61,6h1v1h-1z M62,6h1v1h-1z M66,6h1v1h-1z M68,6h1v1h-1z M70,6h1v1h-1z M71,6h1v1h-1z M73,6h1v1h-1z M77,6h1v1h-1z M78,6h1v1h-1z M80,6h1v1h-1z M81,6h1v1h-1z M82,6h1v1h-1z M83,6h1v1h-1z M85,6h1v1h-1z M86,6h1v1h-1z M92,6h1v1h-1z M93,6h1v1h-1z M95,6h1v1h-1z M98,6h1v1h-1z M99,6h1v1h-1z M102,6h1v1h-1z M104,6h1v1h-1z M105,6h1v1h-1z M106,6h1v1h-1z M108,6h1v1h-1z M4,7h1v1h-1z M6,7h1v1h-1z M7,7h1v1h-1z M8,7h1v1h-1z M10,7h1v1h-1z M12,7h1v1h-1z M13,7h1v1h-1z M17,7h1v1h-1z M18,7h1v1h-1z M19,7h1v1h-1z M21,7h1v1h-1z M22,7h1v1h-1z M26,7h1v1h-1z M29,7h1v1h-1z M33,7h1v1h-1z M36,7h1v1h-1z M38,7h1v1h-1z M42,7h1v1h-1z M44,7h1v1h-1z M48,7h1v1h-1z M50,7h1v1h-1z M52,7h1v1h-1z M54,7h1v1h-1z M55,7h1v1h-1z M56,7h1v1h-1z M57,7h1v1h-1z M59,7h1v1h-1z M61,7h1v1h-1z M62,7h1v1h-1z M65,7h1v1h-1z M69,7h1v1h-1z M71,7h1v1h-1z M73,7h1v1h-1z M75,7h1v1h-1z M76,7h1v1h-1z M80,7h1v1h-1z M82,7h1v1h-1z M84,7h1v1h-1z M85,7h1v1h-1z M86,7h1v1h-1z M87,7h1v1h-1z M89,7h1v1h-1z M95,7h1v1h-1z M97,7h1v1h-1z M100,7h1v1h-1z M102,7h1v1h-1z M104,7h1v1h-1z M105,7h1v1h-1z M106,7h1v1h-1z M108,7h1v1h-1z M4,8h1v1h-1z M6,8h1v1h-1z M7,8h1v1h-1z M8,8h1v1h-1z M10,8h1v1h-1z M14,8h1v1h-1z M15,8h1v1h-1z M20,8h1v1h-1z M21,8h1v1h-1z M23,8h1v1h-1z M28,8h1v1h-1z M29,8h1v1h-1z M30,8h1v1h-1z M31,8h1v1h-1z M32,8h1v1h-1z M33,8h1v1h-1z M34,8h1v1h-1z M36,8h1v1h-1z M42,8h1v1h-1z M44,8h1v1h-1z M47,8h1v1h-1z M48,8h1v1h-1z M49,8h1v1h-1z M50,8h1v1h-1z M52,8h1v1h-1z M53,8h1v1h-1z M54,8h1v1h-1z M55,8h1v1h-1z M56,8h1v1h-1z M57,8h1v1h-1z M58,8h1v1h-1z M60,8h1v1h-1z M67,8h1v1h-1z M71,8h1v1h-1z M72,8h1v1h-1z M76,8h1v1h-1z M77,8h1v1h-1z M78,8h1v1h-1z M79,8h1v1h-1z M80,8h1v1h-1z M81,8h1v1h-1z M84,8h1v1h-1z M86,8h1v1h-1z M89,8h1v1h-1z M90,8h1v1h-1z M91,8h1v1h-1z M92,8h1v1h-1z M93,8h1v1h-1z M95,8h1v1h-1z M96,8h1v1h-1z M99,8h1v1h-1z M100,8h1v1h-1z M102,8h1v1h-1z M104,8h1v1h-1z M105,8h1v1h-1z M106,8h1v1h-1z M108,8h1v1h-1z M4,9h1v1h-1z M10,9h1v1h-1z M12,9h1v1h-1z M16,9h1v1h-1z M17,9h1v1h-1z M22,9h1v1h-1z M23,9h1v1h-1z M25,9h1v1h-1z M28,9h1v1h-1z M32,9h1v1h-1z M33,9h1v1h-1z M34,9h1v1h-1z M35,9h1v1h-1z M36,9h1v1h-1z M37,9h1v1h-1z M39,9h1v1h-1z M42,9h1v1h-1z M43,9h1v1h-1z M46,9h1v1h-1z M52,9h1v1h-1z M56,9h1v1h-1z M57,9h1v1h-1z M58,9h1v1h-1z M59,9h1v1h-1z M61,9h1v1h-1z M63,9h1v1h-1z M66,9h1v1h-1z M67,9h1v1h-1z M68,9h1v1h-1z M69,9h1v1h-1z M70,9h1v1h-1z M71,9h1v1h-1z M72,9h1v1h-1z M73,9h1v1h-1z M76,9h1v1h-1z M80,9h1v1h-1z M81,9h1v1h-1z M82,9h1v1h-1z M85,9h1v1h-1z M89,9h1v1h-1z M90,9h1v1h-1z M92,9h1v1h-1z M93,9h1v1h-1z M94,9h1v1h-1z M97,9h1v1h-1z M99,9h1v1h-1z M102,9h1v1h-1z M108,9h1v1h-1z M4,10h1v1h-1z M5,10h1v1h-1z M6,10h1v1h-1z M7,10h1v1h-1z M8,10h1v1h-1z M9,10h1v1h-1z M10,10h1v1h-1z M12,10h1v1h-1z M14,10h1v1h-1z M16,10h1v1h-1z M18,10h1v1h-1z M20,10h1v1h-1z M22,10h1v1h-1z M24,10h1v1h-1z M26,10h1v1h-1z M28,10h1v1h-1z M30,10h1v1h-1z M32,10h1v1h-1z M34,10h1v1h-1z M36,10h1v1h-1z M38,10h1v1h-1z M40,10h1v1h-1z M42,10h1v1h-1z M44,10h1v1h-1z M46,10h1v1h-1z M48,10h1v1h-1z M50,10h1v1h-1z M52,10h1v1h-1z M54,10h1v1h-1z M56,10h1v1h-1z M58,10h1v1h-1z M60,10h1v1h-1z M62,10h1v1h-1z M64,10h1v1h-1z M66,10h1v1h-1z M68,10h1v1h-1z M70,10h1v1h-1z M72,10h1v1h-1z M74,10h1v1h-1z M76,10h1v1h-1z M78,10h1v1h-1z M80,10h1v1h-1z M82,10h1v1h-1z M84,10h1v1h-1z M86,10h1v1h-1z M88,10h1v1h-1z M90,10h1v1h-1z M92,10h1v1h-1z M94,10h1v1h-1z M96,10h1v1h-1z M98,10h1v1h-1z M100,10h1v1h-1z M102,10h1v1h-1z M103,10h1v1h-1z M104,10h1v1h-1z M105,10h1v1h-1z M106,10h1v1h-1z M107,10h1v1h-1z M108,10h1v1h-1z M14,11h1v1h-1z M15,11h1v1h-1z M16,11h1v1h-1z M18,11h1v1h-1z M19,11h1v1h-1z M21,11h1v1h-1z M23,11h1v1h-1z M24,11h1v1h-1z M26,11h1v1h-1z M28,11h1v1h-1z M32,11h1v1h-1z M33,11h1v1h-1z M35,11h1v1h-1z M37,11h1v1h-1z M38,11h1v1h-1z M41,11h1v1h-1z M44,11h1v1h-1z M45,11h1v1h-1z M46,11h1v1h-1z M51,11h1v1h-1z M52,11h1v1h-1z M56,11h1v1h-1z M59,11h1v1h-1z M61,11h1v1h-1z M62,11h1v1h-1z M68,11h1v1h-1z M69,11h1v1h-1z M70,11h1v1h-1z M71,11h1v1h-1z M74,11h1v1h-1z M76,11h1v1h-1z M80,11h1v1h-1z M83,11h1v1h-1z M85,11h1v1h-1z M86,11h1v1h-1z M89,11h1v1h-1z M90,11h1v1h-1z M92,11h1v1h-1z M93,11h1v1h-1z M94,11h1v1h-1z M95,11h1v1h-1z M97,11h1v1h-1z M98,11h1v1h-1z M99,11h1v1h-1z M100,11h1v1h-1z M4,12h1v1h-1z M5,12h1v1h-1z M8,12h1v1h-1z M9,12h1v1h-1z M10,12h1v1h-1z M16,12h1v1h-1z M17,12h1v1h-1z M18,12h1v1h-1z M19,12h1v1h-1z M21,12h1v1h-1z M25,12h1v1h-1z M28,12h1v1h-1z M29,12h1v1h-1z M30,12h1v1h-1z M31,12h1v1h-1z M32,12h1v1h-1z M34,12h1v1h-1z M35,12h1v1h-1z M43,12h1v1h-1z M47,12h1v1h-1z M48,12h1v1h-1z M49,12h1v1h-1z M51,12h1v1h-1z M52,12h1v1h-1z M53,12h1v1h-1z M54,12h1v1h-1z M55,12h1v1h-1z M56,12h1v1h-1z M58,12h1v1h-1z M59,12h1v1h-1z M62,12h1v1h-1z M63,12h1v1h-1z M71,12h1v1h-1z M73,12h1v1h-1z M74,12h1v1h-1z M76,12h1v1h-1z M77,12h1v1h-1z M78,12h1v1h-1z M79,12h1v1h-1z M80,12h1v1h-1z M81,12h1v1h-1z M82,12h1v1h-1z M85,12h1v1h-1z M87,12h1v1h-1z M88,12h1v1h-1z M89,12h1v1h-1z M91,12h1v1h-1z M92,12h1v1h-1z M94,12h1v1h-1z M96,12h1v1h-1z M99,12h1v1h-1z M100,12h1v1h-1z M103,12h1v1h-1z M105,12h1v1h-1z M106,12h1v1h-1z M107,12h1v1h-1z M108,12h1v1h-1z M4,13h1v1h-1z M7,13h1v1h-1z M8,13h1v1h-1z M11,13h1v1h-1z M13,13h1v1h-1z M14,13h1v1h-1z M15,13h1v1h-1z M16,13h1v1h-1z M19,13h1v1h-1z M21,13h1v1h-1z M25,13h1v1h-1z M27,13h1v1h-1z M28,13h1v1h-1z M33,13h1v1h-1z M35,13h1v1h-1z M36,13h1v1h-1z M37,13h1v1h-1z M38,13h1v1h-1z M39,13h1v1h-1z M40,13h1v1h-1z M41,13h1v1h-1z M42,13h1v1h-1z M44,13h1v1h-1z M46,13h1v1h-1z M48,13h1v1h-1z M51,13h1v1h-1z M52,13h1v1h-1z M53,13h1v1h-1z M55,13h1v1h-1z M57,13h1v1h-1z M58,13h1v1h-1z M61,13h1v1h-1z M63,13h1v1h-1z M68,13h1v1h-1z M71,13h1v1h-1z M75,13h1v1h-1z M76,13h1v1h-1z M78,13h1v1h-1z M82,13h1v1h-1z M83,13h1v1h-1z M84,13h1v1h-1z M85,13h1v1h-1z M86,13h1v1h-1z M92,13h1v1h-1z M94,13h1v1h-1z M96,13h1v1h-1z M97,13h1v1h-1z M98,13h1v1h-1z M99,13h1v1h-1z M100,13h1v1h-1z M101,13h1v1h-1z M102,13h1v1h-1z M106,13h1v1h-1z M107,13h1v1h-1z M5,14h1v1h-1z M7,14h1v1h-1z M10,14h1v1h-1z M11,14h1v1h-1z M14,14h1v1h-1z M15,14h1v1h-1z M17,14h1v1h-1z M20,14h1v1h-1z M24,14h1v1h-1z M26,14h1v1h-1z M27,14h1v1h-1z M28,14h1v1h-1z M32,14h1v1h-1z M36,14h1v1h-1z M38,14h1v1h-1z M39,14h1v1h-1z M40,14h1v1h-1z M41,14h1v1h-1z M47,14h1v1h-1z M50,14h1v1h-1z M53,14h1v1h-1z M55,14h1v1h-1z M60,14h1v1h-1z M62,14h1v1h-1z M63,14h1v1h-1z M64,14h1v1h-1z M65,14h1v1h-1z M68,14h1v1h-1z M69,14h1v1h-1z M72,14h1v1h-1z M74,14h1v1h-1z M76,14h1v1h-1z M77,14h1v1h-1z M84,14h1v1h-1z M86,14h1v1h-1z M89,14h1v1h-1z M91,14h1v1h-1z M92,14h1v1h-1z M96,14h1v1h-1z M98,14h1v1h-1z M101,14h1v1h-1z M104,14h1v1h-1z M105,14h1v1h-1z M5,15h1v1h-1z M12,15h1v1h-1z M14,15h1v1h-1z M18,15h1v1h-1z M19,15h1v1h-1z M20,15h1v1h-1z M23,15h1v1h-1z M24,15h1v1h-1z M25,15h1v1h-1z M26,15h1v1h-1z M27,15h1v1h-1z M29,15h1v1h-1z M30,15h1v1h-1z M32,15h1v1h-1z M34,15h1v1h-1z M35,15h1v1h-1z M38,15h1v1h-1z M42,15h1v1h-1z M44,15h1v1h-1z M45,15h1v1h-1z M46,15h1v1h-1z M47,15h1v1h-1z M50,15h1v1h-1z M53,15h1v1h-1z M56,15h1v1h-1z M58,15h1v1h-1z M59,15h1v1h-1z M61,15h1v1h-1z M63,15h1v1h-1z M66,15h1v1h-1z M68,15h1v1h-1z M69,15h1v1h-1z M70,15h1v1h-1z M73,15h1v1h-1z M75,15h1v1h-1z M79,15h1v1h-1z M80,15h1v1h-1z M81,15h1v1h-1z M82,15h1v1h-1z M83,15h1v1h-1z M85,15h1v1h-1z M86,15h1v1h-1z M92,15h1v1h-1z M93,15h1v1h-1z M95,15h1v1h-1z M97,15h1v1h-1z M101,15h1v1h-1z M103,15h1v1h-1z M104,15h1v1h-1z M7,16h1v1h-1z M9,16h1v1h-1z M10,16h1v1h-1z M11,16h1v1h-1z M13,16h1v1h-1z M15,16h1v1h-1z M18,16h1v1h-1z M23,16h1v1h-1z M25,16h1v1h-1z M28,16h1v1h-1z M30,16h1v1h-1z M32,16h1v1h-1z M35,16h1v1h-1z M41,16h1v1h-1z M46,16h1v1h-1z M47,16h1v1h-1z M51,16h1v1h-1z M53,16h1v1h-1z M54,16h1v1h-1z M55,16h1v1h-1z M56,16h1v1h-1z M59,16h1v1h-1z M60,16h1v1h-1z M61,16h1v1h-1z M62,16h1v1h-1z M63,16h1v1h-1z M64,16h1v1h-1z M66,16h1v1h-1z M67,16h1v1h-1z M69,16h1v1h-1z M70,16h1v1h-1z M78,16h1v1h-1z M82,16h1v1h-1z M84,16h1v1h-1z M88,16h1v1h-1z M89,16h1v1h-1z M90,16h1v1h-1z M91,16h1v1h-1z M92,16h1v1h-1z M95,16h1v1h-1z M96,16h1v1h-1z M97,16h1v1h-1z M99,16h1v1h-1z M100,16h1v1h-1z M101,16h1v1h-1z M102,16h1v1h-1z M103,16h1v1h-1z M104,16h1v1h-1z M105,16h1v1h-1z M107,16h1v1h-1z M7,17h1v1h-1z M8,17h1v1h-1z M13,17h1v1h-1z M14,17h1v1h-1z M16,17h1v1h-1z M17,17h1v1h-1z M18,17h1v1h-1z M19,17h1v1h-1z M20,17h1v1h-1z M22,17h1v1h-1z M24,17h1v1h-1z M25,17h1v1h-1z M27,17h1v1h-1z M28,17h1v1h-1z M34,17h1v1h-1z M35,17h1v1h-1z M39,17h1v1h-1z M42,17h1v1h-1z M43,17h1v1h-1z M45,17h1v1h-1z M48,17h1v1h-1z M50,17h1v1h-1z M51,17h1v1h-1z M52,17h1v1h-1z M54,17h1v1h-1z M57,17h1v1h-1z M58,17h1v1h-1z M62,17h1v1h-1z M65,17h1v1h-1z M66,17h1v1h-1z M69,17h1v1h-1z M73,17h1v1h-1z M75,17h1v1h-1z M76,17h1v1h-1z M80,17h1v1h-1z M81,17h1v1h-1z M82,17h1v1h-1z M84,17h1v1h-1z M87,17h1v1h-1z M89,17h1v1h-1z M91,17h1v1h-1z M94,17h1v1h-1z M95,17h1v1h-1z M96,17h1v1h-1z M97,17h1v1h-1z M99,17h1v1h-1z M101,17h1v1h-1z M102,17h1v1h-1z M105,17h1v1h-1z M106,17h1v1h-1z M4,18h1v1h-1z M5,18h1v1h-1z M8,18h1v1h-1z M9,18h1v1h-1z M10,18h1v1h-1z M11,18h1v1h-1z M13,18h1v1h-1z M15,18h1v1h-1z M17,18h1v1h-1z M18,18h1v1h-1z M21,18h1v1h-1z M23,18h1v1h-1z M26,18h1v1h-1z M28,18h1v1h-1z M32,18h1v1h-1z M36,18h1v1h-1z M38,18h1v1h-1z M41,18h1v1h-1z M43,18h1v1h-1z M47,18h1v1h-1z M48,18h1v1h-1z M50,18h1v1h-1z M51,18h1v1h-1z M55,18h1v1h-1z M59,18h1v1h-1z M62,18h1v1h-1z M64,18h1v1h-1z M65,18h1v1h-1z M68,18h1v1h-1z M72,18h1v1h-1z M74,18h1v1h-1z M75,18h1v1h-1z M76,18h1v1h-1z M77,18h1v1h-1z M81,18h1v1h-1z M84,18h1v1h-1z M86,18h1v1h-1z M87,18h1v1h-1z M89,18h1v1h-1z M98,18h1v1h-1z M100,18h1v1h-1z M102,18h1v1h-1z M104,18h1v1h-1z M4,19h1v1h-1z M7,19h1v1h-1z M8,19h1v1h-1z M9,19h1v1h-1z M11,19h1v1h-1z M13,19h1v1h-1z M15,19h1v1h-1z M17,19h1v1h-1z M19,19h1v1h-1z M20,19h1v1h-1z M21,19h1v1h-1z M24,19h1v1h-1z M26,19h1v1h-1z M27,19h1v1h-1z M29,19h1v1h-1z M30,19h1v1h-1z M32,19h1v1h-1z M33,19h1v1h-1z M35,19h1v1h-1z M37,19h1v1h-1z M41,19h1v1h-1z M42,19h1v1h-1z M44,19h1v1h-1z M45,19h1v1h-1z M49,19h1v1h-1z M52,19h1v1h-1z M53,19h1v1h-1z M54,19h1v1h-1z M56,19h1v1h-1z M59,19h1v1h-1z M62,19h1v1h-1z M65,19h1v1h-1z M66,19h1v1h-1z M68,19h1v1h-1z M71,19h1v1h-1z M73,19h1v1h-1z M74,19h1v1h-1z M76,19h1v1h-1z M77,19h1v1h-1z M79,19h1v1h-1z M80,19h1v1h-1z M82,19h1v1h-1z M83,19h1v1h-1z M85,19h1v1h-1z M86,19h1v1h-1z M90,19h1v1h-1z M92,19h1v1h-1z M94,19h1v1h-1z M95,19h1v1h-1z M98,19h1v1h-1z M100,19h1v1h-1z M101,19h1v1h-1z M103,19h1v1h-1z M107,19h1v1h-1z M4,20h1v1h-1z M5,20h1v1h-1z M6,20h1v1h-1z M8,20h1v1h-1z M9,20h1v1h-1z M10,20h1v1h-1z M12,20h1v1h-1z M13,20h1v1h-1z M14,20h1v1h-1z M18,20h1v1h-1z M30,20h1v1h-1z M31,20h1v1h-1z M34,20h1v1h-1z M36,20h1v1h-1z M38,20h1v1h-1z M39,20h1v1h-1z M40,20h1v1h-1z M41,20h1v1h-1z M42,20h1v1h-1z M43,20h1v1h-1z M50,20h1v1h-1z M59,20h1v1h-1z M60,20h1v1h-1z M61,20h1v1h-1z M62,20h1v1h-1z M63,20h1v1h-1z M64,20h1v1h-1z M65,20h1v1h-1z M66,20h1v1h-1z M67,20h1v1h-1z M68,20h1v1h-1z M71,20h1v1h-1z M74,20h1v1h-1z M76,20h1v1h-1z M78,20h1v1h-1z M79,20h1v1h-1z M80,20h1v1h-1z M81,20h1v1h-1z M82,20h1v1h-1z M84,20h1v1h-1z M86,20h1v1h-1z M88,20h1v1h-1z M89,20h1v1h-1z M91,20h1v1h-1z M92,20h1v1h-1z M93,20h1v1h-1z M94,20h1v1h-1z M95,20h1v1h-1z M96,20h1v1h-1z M98,20h1v1h-1z M99,20h1v1h-1z M100,20h1v1h-1z M102,20h1v1h-1z M105,20h1v1h-1z M106,20h1v1h-1z M108,20h1v1h-1z M4,21h1v1h-1z M5,21h1v1h-1z M7,21h1v1h-1z M12,21h1v1h-1z M13,21h1v1h-1z M14,21h1v1h-1z M15,21h1v1h-1z M16,21h1v1h-1z M17,21h1v1h-1z M18,21h1v1h-1z M19,21h1v1h-1z M22,21h1v1h-1z M25,21h1v1h-1z M27,21h1v1h-1z M28,21h1v1h-1z M30,21h1v1h-1z M32,21h1v1h-1z M35,21h1v1h-1z M36,21h1v1h-1z M40,21h1v1h-1z M45,21h1v1h-1z M46,21h1v1h-1z M48,21h1v1h-1z M49,21h1v1h-1z M51,21h1v1h-1z M52,21h1v1h-1z M55,21h1v1h-1z M56,21h1v1h-1z M57,21h1v1h-1z M58,21h1v1h-1z M60,21h1v1h-1z M62,21h1v1h-1z M65,21h1v1h-1z M66,21h1v1h-1z M67,21h1v1h-1z M69,21h1v1h-1z M72,21h1v1h-1z M73,21h1v1h-1z M74,21h1v1h-1z M75,21h1v1h-1z M76,21h1v1h-1z M82,21h1v1h-1z M84,21h1v1h-1z M88,21h1v1h-1z M89,21h1v1h-1z M90,21h1v1h-1z M91,21h1v1h-1z M95,21h1v1h-1z M99,21h1v1h-1z M101,21h1v1h-1z M105,21h1v1h-1z M106,21h1v1h-1z M5,22h1v1h-1z M6,22h1v1h-1z M8,22h1v1h-1z M9,22h1v1h-1z M10,22h1v1h-1z M11,22h1v1h-1z M12,22h1v1h-1z M13,22h1v1h-1z M22,22h1v1h-1z M26,22h1v1h-1z M27,22h1v1h-1z M29,22h1v1h-1z M31,22h1v1h-1z M32,22h1v1h-1z M35,22h1v1h-1z M36,22h1v1h-1z M38,22h1v1h-1z M39,22h1v1h-1z M40,22h1v1h-1z M41,22h1v1h-1z M43,22h1v1h-1z M47,22h1v1h-1z M50,22h1v1h-1z M52,22h1v1h-1z M53,22h1v1h-1z M59,22h1v1h-1z M60,22h1v1h-1z M61,22h1v1h-1z M62,22h1v1h-1z M63,22h1v1h-1z M65,22h1v1h-1z M68,22h1v1h-1z M69,22h1v1h-1z M72,22h1v1h-1z M74,22h1v1h-1z M76,22h1v1h-1z M77,22h1v1h-1z M79,22h1v1h-1z M83,22h1v1h-1z M84,22h1v1h-1z M86,22h1v1h-1z M88,22h1v1h-1z M89,22h1v1h-1z M91,22h1v1h-1z M95,22h1v1h-1z M96,22h1v1h-1z M98,22h1v1h-1z M100,22h1v1h-1z M104,22h1v1h-1z M105,22h1v1h-1z M106,22h1v1h-1z M107,22h1v1h-1z M4,23h1v1h-1z M5,23h1v1h-1z M7,23h1v1h-1z M12,23h1v1h-1z M13,23h1v1h-1z M17,23h1v1h-1z M20,23h1v1h-1z M21,23h1v1h-1z M24,23h1v1h-1z M25,23h1v1h-1z M26,23h1v1h-1z M29,23h1v1h-1z M32,23h1v1h-1z M42,23h1v1h-1z M44,23h1v1h-1z M46,23h1v1h-1z M47,23h1v1h-1z M51,23h1v1h-1z M53,23h1v1h-1z M54,23h1v1h-1z M56,23h1v1h-1z M57,23h1v1h-1z M58,23h1v1h-1z M65,23h1v1h-1z M66,23h1v1h-1z M68,23h1v1h-1z M69,23h1v1h-1z M70,23h1v1h-1z M74,23h1v1h-1z M75,23h1v1h-1z M76,23h1v1h-1z M78,23h1v1h-1z M80,23h1v1h-1z M85,23h1v1h-1z M86,23h1v1h-1z M89,23h1v1h-1z M90,23h1v1h-1z M92,23h1v1h-1z M93,23h1v1h-1z M97,23h1v1h-1z M99,23h1v1h-1z M100,23h1v1h-1z M101,23h1v1h-1z M104,23h1v1h-1z M105,23h1v1h-1z M108,23h1v1h-1z M4,24h1v1h-1z M6,24h1v1h-1z M8,24h1v1h-1z M10,24h1v1h-1z M11,24h1v1h-1z M12,24h1v1h-1z M13,24h1v1h-1z M14,24h1v1h-1z M17,24h1v1h-1z M18,24h1v1h-1z M20,24h1v1h-1z M21,24h1v1h-1z M28,24h1v1h-1z M30,24h1v1h-1z M31,24h1v1h-1z M32,24h1v1h-1z M34,24h1v1h-1z M35,24h1v1h-1z M36,24h1v1h-1z M40,24h1v1h-1z M42,24h1v1h-1z M45,24h1v1h-1z M46,24h1v1h-1z M48,24h1v1h-1z M49,24h1v1h-1z M50,24h1v1h-1z M51,24h1v1h-1z M53,24h1v1h-1z M54,24h1v1h-1z M55,24h1v1h-1z M56,24h1v1h-1z M59,24h1v1h-1z M60,24h1v1h-1z M62,24h1v1h-1z M63,24h1v1h-1z M65,24h1v1h-1z M66,24h1v1h-1z M67,24h1v1h-1z M70,24h1v1h-1z M72,24h1v1h-1z M74,24h1v1h-1z M76,24h1v1h-1z M77,24h1v1h-1z M78,24h1v1h-1z M81,24h1v1h-1z M82,24h1v1h-1z M84,24h1v1h-1z M86,24h1v1h-1z M89,24h1v1h-1z M92,24h1v1h-1z M96,24h1v1h-1z M99,24h1v1h-1z M100,24h1v1h-1z M101,24h1v1h-1z M102,24h1v1h-1z M103,24h1v1h-1z M105,24h1v1h-1z M5,25h1v1h-1z M6,25h1v1h-1z M9,25h1v1h-1z M11,25h1v1h-1z M12,25h1v1h-1z M13,25h1v1h-1z M15,25h1v1h-1z M18,25h1v1h-1z M19,25h1v1h-1z M25,25h1v1h-1z M26,25h1v1h-1z M27,25h1v1h-1z M28,25h1v1h-1z M30,25h1v1h-1z M35,25h1v1h-1z M36,25h1v1h-1z M38,25h1v1h-1z M42,25h1v1h-1z M44,25h1v1h-1z M45,25h1v1h-1z M46,25h1v1h-1z M50,25h1v1h-1z M51,25h1v1h-1z M52,25h1v1h-1z M57,25h1v1h-1z M58,25h1v1h-1z M59,25h1v1h-1z M60,25h1v1h-1z M61,25h1v1h-1z M64,25h1v1h-1z M65,25h1v1h-1z M67,25h1v1h-1z M68,25h1v1h-1z M69,25h1v1h-1z M70,25h1v1h-1z M71,25h1v1h-1z M72,25h1v1h-1z M74,25h1v1h-1z M75,25h1v1h-1z M76,25h1v1h-1z M80,25h1v1h-1z M81,25h1v1h-1z M82,25h1v1h-1z M84,25h1v1h-1z M87,25h1v1h-1z M89,25h1v1h-1z M90,25h1v1h-1z M91,25h1v1h-1z M96,25h1v1h-1z M97,25h1v1h-1z M101,25h1v1h-1z M102,25h1v1h-1z M105,25h1v1h-1z M106,25h1v1h-1z M107,25h1v1h-1z M5,26h1v1h-1z M6,26h1v1h-1z M7,26h1v1h-1z M10,26h1v1h-1z M14,26h1v1h-1z M15,26h1v1h-1z M19,26h1v1h-1z M20,26h1v1h-1z M22,26h1v1h-1z M26,26h1v1h-1z M28,26h1v1h-1z M35,26h1v1h-1z M36,26h1v1h-1z M38,26h1v1h-1z M40,26h1v1h-1z M41,26h1v1h-1z M48,26h1v1h-1z M50,26h1v1h-1z M51,26h1v1h-1z M52,26h1v1h-1z M56,26h1v1h-1z M57,26h1v1h-1z M60,26h1v1h-1z M62,26h1v1h-1z M63,26h1v1h-1z M64,26h1v1h-1z M65,26h1v1h-1z M68,26h1v1h-1z M71,26h1v1h-1z M72,26h1v1h-1z M74,26h1v1h-1z M76,26h1v1h-1z M77,26h1v1h-1z M79,26h1v1h-1z M83,26h1v1h-1z M84,26h1v1h-1z M86,26h1v1h-1z M89,26h1v1h-1z M91,26h1v1h-1z M95,26h1v1h-1z M98,26h1v1h-1z M102,26h1v1h-1z M104,26h1v1h-1z M105,26h1v1h-1z M106,26h1v1h-1z M4,27h1v1h-1z M5,27h1v1h-1z M7,27h1v1h-1z M8,27h1v1h-1z M12,27h1v1h-1z M13,27h1v1h-1z M14,27h1v1h-1z M16,27h1v1h-1z M20,27h1v1h-1z M22,27h1v1h-1z M23,27h1v1h-1z M29,27h1v1h-1z M30,27h1v1h-1z M31,27h1v1h-1z M32,27h1v1h-1z M33,27h1v1h-1z M35,27h1v1h-1z M37,27h1v1h-1z M44,27h1v1h-1z M45,27h1v1h-1z M47,27h1v1h-1z M50,27h1v1h-1z M53,27h1v1h-1z M54,27h1v1h-1z M56,27h1v1h-1z M57,27h1v1h-1z M58,27h1v1h-1z M59,27h1v1h-1z M65,27h1v1h-1z M66,27h1v1h-1z M68,27h1v1h-1z M69,27h1v1h-1z M70,27h1v1h-1z M71,27h1v1h-1z M74,27h1v1h-1z M75,27h1v1h-1z M78,27h1v1h-1z M80,27h1v1h-1z M81,27h1v1h-1z M86,27h1v1h-1z M92,27h1v1h-1z M93,27h1v1h-1z M95,27h1v1h-1z M101,27h1v1h-1z M103,27h1v1h-1z M107,27h1v1h-1z M108,27h1v1h-1z M5,28h1v1h-1z M7,28h1v1h-1z M8,28h1v1h-1z M9,28h1v1h-1z M10,28h1v1h-1z M11,28h1v1h-1z M12,28h1v1h-1z M15,28h1v1h-1z M16,28h1v1h-1z M17,28h1v1h-1z M18,28h1v1h-1z M21,28h1v1h-1z M22,28h1v1h-1z M24,28h1v1h-1z M26,28h1v1h-1z M27,28h1v1h-1z M28,28h1v1h-1z M29,28h1v1h-1z M30,28h1v1h-1z M31,28h1v1h-1z M32,28h1v1h-1z M34,28h1v1h-1z M36,28h1v1h-1z M38,28h1v1h-1z M42,28h1v1h-1z M46,28h1v1h-1z M51,28h1v1h-1z M52,28h1v1h-1z M53,28h1v1h-1z M54,28h1v1h-1z M55,28h1v1h-1z M56,28h1v1h-1z M60,28h1v1h-1z M61,28h1v1h-1z M62,28h1v1h-1z M66,28h1v1h-1z M71,28h1v1h-1z M72,28h1v1h-1z M73,28h1v1h-1z M74,28h1v1h-1z M75,28h1v1h-1z M76,28h1v1h-1z M77,28h1v1h-1z M78,28h1v1h-1z M79,28h1v1h-1z M80,28h1v1h-1z M82,28h1v1h-1z M83,28h1v1h-1z M85,28h1v1h-1z M87,28h1v1h-1z M88,28h1v1h-1z M90,28h1v1h-1z M91,28h1v1h-1z M93,28h1v1h-1z M94,28h1v1h-1z M96,28h1v1h-1z M99,28h1v1h-1z M100,28h1v1h-1z M101,28h1v1h-1z M102,28h1v1h-1z M103,28h1v1h-1z M104,28h1v1h-1z M107,28h1v1h-1z M108,28h1v1h-1z M5,29h1v1h-1z M7,29h1v1h-1z M8,29h1v1h-1z M12,29h1v1h-1z M16,29h1v1h-1z M17,29h1v1h-1z M18,29h1v1h-1z M19,29h1v1h-1z M21,29h1v1h-1z M25,29h1v1h-1z M26,29h1v1h-1z M27,29h1v1h-1z M28,29h1v1h-1z M32,29h1v1h-1z M33,29h1v1h-1z M35,29h1v1h-1z M36,29h1v1h-1z M37,29h1v1h-1z M38,29h1v1h-1z M40,29h1v1h-1z M41,29h1v1h-1z M42,29h1v1h-1z M45,29h1v1h-1z M46,29h1v1h-1z M48,29h1v1h-1z M49,29h1v1h-1z M52,29h1v1h-1z M56,29h1v1h-1z M57,29h1v1h-1z M61,29h1v1h-1z M62,29h1v1h-1z M65,29h1v1h-1z M66,29h1v1h-1z M69,29h1v1h-1z M71,29h1v1h-1z M73,29h1v1h-1z M75,29h1v1h-1z M76,29h1v1h-1z M80,29h1v1h-1z M81,29h1v1h-1z M83,29h1v1h-1z M84,29h1v1h-1z M87,29h1v1h-1z M88,29h1v1h-1z M90,29h1v1h-1z M91,29h1v1h-1z M93,29h1v1h-1z M96,29h1v1h-1z M97,29h1v1h-1z M98,29h1v1h-1z M100,29h1v1h-1z M104,29h1v1h-1z M105,29h1v1h-1z M106,29h1v1h-1z M107,29h1v1h-1z M7,30h1v1h-1z M8,30h1v1h-1z M10,30h1v1h-1z M12,30h1v1h-1z M13,30h1v1h-1z M19,30h1v1h-1z M20,30h1v1h-1z M21,30h1v1h-1z M22,30h1v1h-1z M24,30h1v1h-1z M26,30h1v1h-1z M28,30h1v1h-1z M30,30h1v1h-1z M32,30h1v1h-1z M33,30h1v1h-1z M36,30h1v1h-1z M38,30h1v1h-1z M39,30h1v1h-1z M40,30h1v1h-1z M41,30h1v1h-1z M43,30h1v1h-1z M44,30h1v1h-1z M48,30h1v1h-1z M50,30h1v1h-1z M52,30h1v1h-1z M54,30h1v1h-1z M56,30h1v1h-1z M59,30h1v1h-1z M60,30h1v1h-1z M61,30h1v1h-1z M62,30h1v1h-1z M63,30h1v1h-1z M65,30h1v1h-1z M67,30h1v1h-1z M74,30h1v1h-1z M75,30h1v1h-1z M76,30h1v1h-1z M78,30h1v1h-1z M80,30h1v1h-1z M86,30h1v1h-1z M89,30h1v1h-1z M91,30h1v1h-1z M93,30h1v1h-1z M95,30h1v1h-1z M96,30h1v1h-1z M98,30h1v1h-1z M100,30h1v1h-1z M102,30h1v1h-1z M104,30h1v1h-1z M105,30h1v1h-1z M106,30h1v1h-1z M107,30h1v1h-1z M4,31h1v1h-1z M5,31h1v1h-1z M6,31h1v1h-1z M8,31h1v1h-1z M12,31h1v1h-1z M13,31h1v1h-1z M14,31h1v1h-1z M20,31h1v1h-1z M22,31h1v1h-1z M23,31h1v1h-1z M24,31h1v1h-1z M27,31h1v1h-1z M28,31h1v1h-1z M32,31h1v1h-1z M33,31h1v1h-1z M34,31h1v1h-1z M35,31h1v1h-1z M41,31h1v1h-1z M44,31h1v1h-1z M45,31h1v1h-1z M46,31h1v1h-1z M47,31h1v1h-1z M50,31h1v1h-1z M51,31h1v1h-1z M52,31h1v1h-1z M56,31h1v1h-1z M58,31h1v1h-1z M59,31h1v1h-1z M65,31h1v1h-1z M67,31h1v1h-1z M68,31h1v1h-1z M71,31h1v1h-1z M74,31h1v1h-1z M75,31h1v1h-1z M76,31h1v1h-1z M80,31h1v1h-1z M82,31h1v1h-1z M83,31h1v1h-1z M85,31h1v1h-1z M90,31h1v1h-1z M92,31h1v1h-1z M94,31h1v1h-1z M95,31h1v1h-1z M100,31h1v1h-1z M104,31h1v1h-1z M105,31h1v1h-1z M107,31h1v1h-1z M108,31h1v1h-1z M5,32h1v1h-1z M6,32h1v1h-1z M8,32h1v1h-1z M9,32h1v1h-1z M10,32h1v1h-1z M11,32h1v1h-1z M12,32h1v1h-1z M13,32h1v1h-1z M16,32h1v1h-1z M17,32h1v1h-1z M18,32h1v1h-1z M20,32h1v1h-1z M22,32h1v1h-1z M23,32h1v1h-1z M25,32h1v1h-1z M26,32h1v1h-1z M27,32h1v1h-1z M28,32h1v1h-1z M29,32h1v1h-1z M30,32h1v1h-1z M31,32h1v1h-1z M32,32h1v1h-1z M33,32h1v1h-1z M34,32h1v1h-1z M36,32h1v1h-1z M37,32h1v1h-1z M41,32h1v1h-1z M46,32h1v1h-1z M47,32h1v1h-1z M49,32h1v1h-1z M51,32h1v1h-1z M52,32h1v1h-1z M53,32h1v1h-1z M54,32h1v1h-1z M55,32h1v1h-1z M56,32h1v1h-1z M61,32h1v1h-1z M65,32h1v1h-1z M70,32h1v1h-1z M72,32h1v1h-1z M75,32h1v1h-1z M76,32h1v1h-1z M77,32h1v1h-1z M78,32h1v1h-1z M79,32h1v1h-1z M80,32h1v1h-1z M82,32h1v1h-1z M85,32h1v1h-1z M87,32h1v1h-1z M90,32h1v1h-1z M93,32h1v1h-1z M94,32h1v1h-1z M96,32h1v1h-1z M98,32h1v1h-1z M100,32h1v1h-1z M101,32h1v1h-1z M102,32h1v1h-1z M103,32h1v1h-1z M104,32h1v1h-1z M4,33h1v1h-1z M6,33h1v1h-1z M8,33h1v1h-1z M9,33h1v1h-1z M11,33h1v1h-1z M14,33h1v1h-1z M15,33h1v1h-1z M17,33h1v1h-1z M18,33h1v1h-1z M20,33h1v1h-1z M22,33h1v1h-1z M24,33h1v1h-1z M26,33h1v1h-1z M28,33h1v1h-1z M30,33h1v1h-1z M31,33h1v1h-1z M33,33h1v1h-1z M35,33h1v1h-1z M36,33h1v1h-1z M39,33h1v1h-1z M40,33h1v1h-1z M41,33h1v1h-1z M43,33h1v1h-1z M45,33h1v1h-1z M46,33h1v1h-1z M49,33h1v1h-1z M53,33h1v1h-1z M56,33h1v1h-1z M60,33h1v1h-1z M61,33h1v1h-1z M62,33h1v1h-1z M66,33h1v1h-1z M67,33h1v1h-1z M69,33h1v1h-1z M71,33h1v1h-1z M73,33h1v1h-1z M74,33h1v1h-1z M76,33h1v1h-1z M77,33h1v1h-1z M78,33h1v1h-1z M79,33h1v1h-1z M81,33h1v1h-1z M82,33h1v1h-1z M84,33h1v1h-1z M85,33h1v1h-1z M86,33h1v1h-1z M87,33h1v1h-1z M88,33h1v1h-1z M90,33h1v1h-1z M91,33h1v1h-1z M92,33h1v1h-1z M94,33h1v1h-1z M95,33h1v1h-1z M97,33h1v1h-1z M100,33h1v1h-1z M101,33h1v1h-1z M102,33h1v1h-1z M103,33h1v1h-1z M105,33h1v1h-1z M107,33h1v1h-1z M108,33h1v1h-1z M10,34h1v1h-1z M11,34h1v1h-1z M12,34h1v1h-1z M13,34h1v1h-1z M17,34h1v1h-1z M18,34h1v1h-1z M27,34h1v1h-1z M28,34h1v1h-1z M30,34h1v1h-1z M31,34h1v1h-1z M32,34h1v1h-1z M33,34h1v1h-1z M35,34h1v1h-1z M38,34h1v1h-1z M40,34h1v1h-1z M41,34h1v1h-1z M43,34h1v1h-1z M44,34h1v1h-1z M45,34h1v1h-1z M47,34h1v1h-1z M48,34h1v1h-1z M50,34h1v1h-1z M51,34h1v1h-1z M53,34h1v1h-1z M56,34h1v1h-1z M60,34h1v1h-1z M62,34h1v1h-1z M65,34h1v1h-1z M71,34h1v1h-1z M74,34h1v1h-1z M75,34h1v1h-1z M78,34h1v1h-1z M79,34h1v1h-1z M80,34h1v1h-1z M84,34h1v1h-1z M86,34h1v1h-1z M89,34h1v1h-1z M92,34h1v1h-1z M96,34h1v1h-1z M97,34h1v1h-1z M98,34h1v1h-1z M99,34h1v1h-1z M100,34h1v1h-1z M102,34h1v1h-1z M103,34h1v1h-1z M106,34h1v1h-1z M107,34h1v1h-1z M6,35h1v1h-1z M8,35h1v1h-1z M9,35h1v1h-1z M13,35h1v1h-1z M21,35h1v1h-1z M25,35h1v1h-1z M26,35h1v1h-1z M29,35h1v1h-1z M31,35h1v1h-1z M32,35h1v1h-1z M34,35h1v1h-1z M35,35h1v1h-1z M38,35h1v1h-1z M39,35h1v1h-1z M41,35h1v1h-1z M44,35h1v1h-1z M46,35h1v1h-1z M47,35h1v1h-1z M49,35h1v1h-1z M51,35h1v1h-1z M52,35h1v1h-1z M53,35h1v1h-1z M55,35h1v1h-1z M58,35h1v1h-1z M59,35h1v1h-1z M61,35h1v1h-1z M62,35h1v1h-1z M68,35h1v1h-1z M69,35h1v1h-1z M70,35h1v1h-1z M71,35h1v1h-1z M73,35h1v1h-1z M74,35h1v1h-1z M76,35h1v1h-1z M77,35h1v1h-1z M79,35h1v1h-1z M80,35h1v1h-1z M81,35h1v1h-1z M85,35h1v1h-1z M86,35h1v1h-1z M89,35h1v1h-1z M92,35h1v1h-1z M95,35h1v1h-1z M99,35h1v1h-1z M101,35h1v1h-1z M104,35h1v1h-1z M108,35h1v1h-1z M4,36h1v1h-1z M5,36h1v1h-1z M6,36h1v1h-1z M9,36h1v1h-1z M10,36h1v1h-1z M12,36h1v1h-1z M16,36h1v1h-1z M17,36h1v1h-1z M18,36h1v1h-1z M19,36h1v1h-1z M20,36h1v1h-1z M21,36h1v1h-1z M22,36h1v1h-1z M23,36h1v1h-1z M30,36h1v1h-1z M31,36h1v1h-1z M33,36h1v1h-1z M34,36h1v1h-1z M35,36h1v1h-1z M36,36h1v1h-1z M37,36h1v1h-1z M40,36h1v1h-1z M41,36h1v1h-1z M42,36h1v1h-1z M43,36h1v1h-1z M44,36h1v1h-1z M47,36h1v1h-1z M48,36h1v1h-1z M50,36h1v1h-1z M58,36h1v1h-1z M59,36h1v1h-1z M60,36h1v1h-1z M61,36h1v1h-1z M62,36h1v1h-1z M63,36h1v1h-1z M66,36h1v1h-1z M68,36h1v1h-1z M73,36h1v1h-1z M74,36h1v1h-1z M76,36h1v1h-1z M78,36h1v1h-1z M79,36h1v1h-1z M81,36h1v1h-1z M89,36h1v1h-1z M90,36h1v1h-1z M92,36h1v1h-1z M93,36h1v1h-1z M94,36h1v1h-1z M95,36h1v1h-1z M96,36h1v1h-1z M99,36h1v1h-1z M100,36h1v1h-1z M102,36h1v1h-1z M106,36h1v1h-1z M107,36h1v1h-1z M4,37h1v1h-1z M6,37h1v1h-1z M7,37h1v1h-1z M8,37h1v1h-1z M9,37h1v1h-1z M12,37h1v1h-1z M15,37h1v1h-1z M16,37h1v1h-1z M19,37h1v1h-1z M20,37h1v1h-1z M21,37h1v1h-1z M23,37h1v1h-1z M27,37h1v1h-1z M30,37h1v1h-1z M34,37h1v1h-1z M35,37h1v1h-1z M37,37h1v1h-1z M38,37h1v1h-1z M39,37h1v1h-1z M40,37h1v1h-1z M43,37h1v1h-1z M45,37h1v1h-1z M46,37h1v1h-1z M47,37h1v1h-1z M48,37h1v1h-1z M49,37h1v1h-1z M52,37h1v1h-1z M54,37h1v1h-1z M60,37h1v1h-1z M64,37h1v1h-1z M66,37h1v1h-1z M67,37h1v1h-1z M69,37h1v1h-1z M70,37h1v1h-1z M71,37h1v1h-1z M72,37h1v1h-1z M73,37h1v1h-1z M74,37h1v1h-1z M76,37h1v1h-1z M78,37h1v1h-1z M79,37h1v1h-1z M81,37h1v1h-1z M83,37h1v1h-1z M84,37h1v1h-1z M90,37h1v1h-1z M94,37h1v1h-1z M96,37h1v1h-1z M97,37h1v1h-1z M99,37h1v1h-1z M100,37h1v1h-1z M102,37h1v1h-1z M106,37h1v1h-1z M107,37h1v1h-1z M4,38h1v1h-1z M5,38h1v1h-1z M9,38h1v1h-1z M10,38h1v1h-1z M13,38h1v1h-1z M15,38h1v1h-1z M16,38h1v1h-1z M18,38h1v1h-1z M19,38h1v1h-1z M20,38h1v1h-1z M21,38h1v1h-1z M22,38h1v1h-1z M25,38h1v1h-1z M26,38h1v1h-1z M27,38h1v1h-1z M28,38h1v1h-1z M29,38h1v1h-1z M35,38h1v1h-1z M36,38h1v1h-1z M38,38h1v1h-1z M40,38h1v1h-1z M41,38h1v1h-1z M43,38h1v1h-1z M47,38h1v1h-1z M48,38h1v1h-1z M49,38h1v1h-1z M50,38h1v1h-1z M51,38h1v1h-1z M52,38h1v1h-1z M53,38h1v1h-1z M54,38h1v1h-1z M56,38h1v1h-1z M60,38h1v1h-1z M62,38h1v1h-1z M64,38h1v1h-1z M65,38h1v1h-1z M68,38h1v1h-1z M72,38h1v1h-1z M73,38h1v1h-1z M74,38h1v1h-1z M76,38h1v1h-1z M79,38h1v1h-1z M80,38h1v1h-1z M81,38h1v1h-1z M83,38h1v1h-1z M84,38h1v1h-1z M85,38h1v1h-1z M86,38h1v1h-1z M87,38h1v1h-1z M89,38h1v1h-1z M92,38h1v1h-1z M93,38h1v1h-1z M96,38h1v1h-1z M98,38h1v1h-1z M99,38h1v1h-1z M100,38h1v1h-1z M105,38h1v1h-1z M106,38h1v1h-1z M107,38h1v1h-1z M5,39h1v1h-1z M6,39h1v1h-1z M7,39h1v1h-1z M12,39h1v1h-1z M13,39h1v1h-1z M15,39h1v1h-1z M16,39h1v1h-1z M18,39h1v1h-1z M19,39h1v1h-1z M20,39h1v1h-1z M21,39h1v1h-1z M22,39h1v1h-1z M23,39h1v1h-1z M24,39h1v1h-1z M25,39h1v1h-1z M27,39h1v1h-1z M28,39h1v1h-1z M33,39h1v1h-1z M34,39h1v1h-1z M39,39h1v1h-1z M43,39h1v1h-1z M44,39h1v1h-1z M45,39h1v1h-1z M46,39h1v1h-1z M51,39h1v1h-1z M52,39h1v1h-1z M53,39h1v1h-1z M55,39h1v1h-1z M56,39h1v1h-1z M57,39h1v1h-1z M59,39h1v1h-1z M62,39h1v1h-1z M66,39h1v1h-1z M68,39h1v1h-1z M70,39h1v1h-1z M71,39h1v1h-1z M76,39h1v1h-1z M77,39h1v1h-1z M79,39h1v1h-1z M80,39h1v1h-1z M82,39h1v1h-1z M83,39h1v1h-1z M85,39h1v1h-1z M89,39h1v1h-1z M90,39h1v1h-1z M92,39h1v1h-1z M94,39h1v1h-1z M95,39h1v1h-1z M97,39h1v1h-1z M99,39h1v1h-1z M100,39h1v1h-1z M101,39h1v1h-1z M102,39h1v1h-1z M103,39h1v1h-1z M104,39h1v1h-1z M4,40h1v1h-1z M6,40h1v1h-1z M9,40h1v1h-1z M10,40h1v1h-1z M11,40h1v1h-1z M12,40h1v1h-1z M13,40h1v1h-1z M16,40h1v1h-1z M17,40h1v1h-1z M18,40h1v1h-1z M21,40h1v1h-1z M26,40h1v1h-1z M31,40h1v1h-1z M34,40h1v1h-1z M35,40h1v1h-1z M36,40h1v1h-1z M40,40h1v1h-1z M44,40h1v1h-1z M46,40h1v1h-1z M47,40h1v1h-1z M48,40h1v1h-1z M52,40h1v1h-1z M53,40h1v1h-1z M55,40h1v1h-1z M58,40h1v1h-1z M61,40h1v1h-1z M63,40h1v1h-1z M70,40h1v1h-1z M71,40h1v1h-1z M72,40h1v1h-1z M74,40h1v1h-1z M77,40h1v1h-1z M78,40h1v1h-1z M79,40h1v1h-1z M81,40h1v1h-1z M83,40h1v1h-1z M85,40h1v1h-1z M86,40h1v1h-1z M87,40h1v1h-1z M88,40h1v1h-1z M91,40h1v1h-1z M92,40h1v1h-1z M93,40h1v1h-1z M94,40h1v1h-1z M95,40h1v1h-1z M97,40h1v1h-1z M99,40h1v1h-1z M100,40h1v1h-1z M102,40h1v1h-1z M103,40h1v1h-1z M104,40h1v1h-1z M105,40h1v1h-1z M106,40h1v1h-1z M108,40h1v1h-1z M8,41h1v1h-1z M11,41h1v1h-1z M13,41h1v1h-1z M14,41h1v1h-1z M17,41h1v1h-1z M18,41h1v1h-1z M19,41h1v1h-1z M20,41h1v1h-1z M21,41h1v1h-1z M24,41h1v1h-1z M26,41h1v1h-1z M28,41h1v1h-1z M30,41h1v1h-1z M31,41h1v1h-1z M33,41h1v1h-1z M35,41h1v1h-1z M37,41h1v1h-1z M42,41h1v1h-1z M43,41h1v1h-1z M48,41h1v1h-1z M49,41h1v1h-1z M50,41h1v1h-1z M51,41h1v1h-1z M52,41h1v1h-1z M53,41h1v1h-1z M54,41h1v1h-1z M55,41h1v1h-1z M59,41h1v1h-1z M60,41h1v1h-1z M62,41h1v1h-1z M63,41h1v1h-1z M68,41h1v1h-1z M71,41h1v1h-1z M73,41h1v1h-1z M74,41h1v1h-1z M75,41h1v1h-1z M77,41h1v1h-1z M78,41h1v1h-1z M80,41h1v1h-1z M81,41h1v1h-1z M84,41h1v1h-1z M86,41h1v1h-1z M87,41h1v1h-1z M90,41h1v1h-1z M91,41h1v1h-1z M95,41h1v1h-1z M97,41h1v1h-1z M102,41h1v1h-1z M105,41h1v1h-1z M106,41h1v1h-1z M108,41h1v1h-1z M6,42h1v1h-1z M10,42h1v1h-1z M12,42h1v1h-1z M13,42h1v1h-1z M14,42h1v1h-1z M16,42h1v1h-1z M21,42h1v1h-1z M27,42h1v1h-1z M36,42h1v1h-1z M38,42h1v1h-1z M39,42h1v1h-1z M40,42h1v1h-1z M41,42h1v1h-1z M43,42h1v1h-1z M44,42h1v1h-1z M48,42h1v1h-1z M50,42h1v1h-1z M53,42h1v1h-1z M54,42h1v1h-1z M55,42h1v1h-1z M57,42h1v1h-1z M60,42h1v1h-1z M61,42h1v1h-1z M62,42h1v1h-1z M64,42h1v1h-1z M65,42h1v1h-1z M67,42h1v1h-1z M71,42h1v1h-1z M72,42h1v1h-1z M74,42h1v1h-1z M77,42h1v1h-1z M79,42h1v1h-1z M81,42h1v1h-1z M84,42h1v1h-1z M85,42h1v1h-1z M86,42h1v1h-1z M88,42h1v1h-1z M89,42h1v1h-1z M91,42h1v1h-1z M95,42h1v1h-1z M98,42h1v1h-1z M102,42h1v1h-1z M103,42h1v1h-1z M104,42h1v1h-1z M105,42h1v1h-1z M107,42h1v1h-1z M5,43h1v1h-1z M12,43h1v1h-1z M13,43h1v1h-1z M18,43h1v1h-1z M19,43h1v1h-1z M21,43h1v1h-1z M23,43h1v1h-1z M25,43h1v1h-1z M29,43h1v1h-1z M31,43h1v1h-1z M32,43h1v1h-1z M33,43h1v1h-1z M34,43h1v1h-1z M35,43h1v1h-1z M38,43h1v1h-1z M42,43h1v1h-1z M44,43h1v1h-1z M45,43h1v1h-1z M47,43h1v1h-1z M50,43h1v1h-1z M51,43h1v1h-1z M52,43h1v1h-1z M53,43h1v1h-1z M55,43h1v1h-1z M58,43h1v1h-1z M59,43h1v1h-1z M63,43h1v1h-1z M66,43h1v1h-1z M68,43h1v1h-1z M69,43h1v1h-1z M71,43h1v1h-1z M73,43h1v1h-1z M76,43h1v1h-1z M77,43h1v1h-1z M80,43h1v1h-1z M82,43h1v1h-1z M83,43h1v1h-1z M91,43h1v1h-1z M92,43h1v1h-1z M95,43h1v1h-1z M97,43h1v1h-1z M99,43h1v1h-1z M101,43h1v1h-1z M104,43h1v1h-1z M108,43h1v1h-1z M4,44h1v1h-1z M5,44h1v1h-1z M6,44h1v1h-1z M7,44h1v1h-1z M9,44h1v1h-1z M10,44h1v1h-1z M11,44h1v1h-1z M13,44h1v1h-1z M15,44h1v1h-1z M16,44h1v1h-1z M18,44h1v1h-1z M19,44h1v1h-1z M21,44h1v1h-1z M23,44h1v1h-1z M25,44h1v1h-1z M26,44h1v1h-1z M30,44h1v1h-1z M31,44h1v1h-1z M33,44h1v1h-1z M36,44h1v1h-1z M41,44h1v1h-1z M45,44h1v1h-1z M48,44h1v1h-1z M49,44h1v1h-1z M53,44h1v1h-1z M54,44h1v1h-1z M55,44h1v1h-1z M58,44h1v1h-1z M60,44h1v1h-1z M61,44h1v1h-1z M64,44h1v1h-1z M66,44h1v1h-1z M70,44h1v1h-1z M72,44h1v1h-1z M73,44h1v1h-1z M76,44h1v1h-1z M77,44h1v1h-1z M79,44h1v1h-1z M83,44h1v1h-1z M84,44h1v1h-1z M85,44h1v1h-1z M87,44h1v1h-1z M89,44h1v1h-1z M92,44h1v1h-1z M94,44h1v1h-1z M96,44h1v1h-1z M98,44h1v1h-1z M99,44h1v1h-1z M100,44h1v1h-1z M102,44h1v1h-1z M106,44h1v1h-1z M108,44h1v1h-1z M5,45h1v1h-1z M7,45h1v1h-1z M12,45h1v1h-1z M13,45h1v1h-1z M14,45h1v1h-1z M17,45h1v1h-1z M18,45h1v1h-1z M20,45h1v1h-1z M22,45h1v1h-1z M25,45h1v1h-1z M26,45h1v1h-1z M28,45h1v1h-1z M29,45h1v1h-1z M36,45h1v1h-1z M38,45h1v1h-1z M40,45h1v1h-1z M42,45h1v1h-1z M44,45h1v1h-1z M45,45h1v1h-1z M47,45h1v1h-1z M48,45h1v1h-1z M54,45h1v1h-1z M56,45h1v1h-1z M57,45h1v1h-1z M58,45h1v1h-1z M59,45h1v1h-1z M62,45h1v1h-1z M65,45h1v1h-1z M66,45h1v1h-1z M67,45h1v1h-1z M69,45h1v1h-1z M70,45h1v1h-1z M71,45h1v1h-1z M72,45h1v1h-1z M73,45h1v1h-1z M76,45h1v1h-1z M78,45h1v1h-1z M79,45h1v1h-1z M80,45h1v1h-1z M88,45h1v1h-1z M89,45h1v1h-1z M90,45h1v1h-1z M93,45h1v1h-1z M95,45h1v1h-1z M98,45h1v1h-1z M99,45h1v1h-1z M101,45h1v1h-1z M102,45h1v1h-1z M103,45h1v1h-1z M8,46h1v1h-1z M10,46h1v1h-1z M12,46h1v1h-1z M18,46h1v1h-1z M20,46h1v1h-1z M21,46h1v1h-1z M22,46h1v1h-1z M23,46h1v1h-1z M27,46h1v1h-1z M28,46h1v1h-1z M35,46h1v1h-1z M38,46h1v1h-1z M40,46h1v1h-1z M41,46h1v1h-1z M47,46h1v1h-1z M49,46h1v1h-1z M50,46h1v1h-1z M51,46h1v1h-1z M52,46h1v1h-1z M53,46h1v1h-1z M54,46h1v1h-1z M55,46h1v1h-1z M60,46h1v1h-1z M62,46h1v1h-1z M63,46h1v1h-1z M64,46h1v1h-1z M65,46h1v1h-1z M72,46h1v1h-1z M74,46h1v1h-1z M76,46h1v1h-1z M77,46h1v1h-1z M79,46h1v1h-1z M84,46h1v1h-1z M86,46h1v1h-1z M88,46h1v1h-1z M89,46h1v1h-1z M91,46h1v1h-1z M92,46h1v1h-1z M95,46h1v1h-1z M96,46h1v1h-1z M98,46h1v1h-1z M99,46h1v1h-1z M100,46h1v1h-1z M101,46h1v1h-1z M104,46h1v1h-1z M106,46h1v1h-1z M4,47h1v1h-1z M5,47h1v1h-1z M7,47h1v1h-1z M8,47h1v1h-1z M9,47h1v1h-1z M12,47h1v1h-1z M13,47h1v1h-1z M14,47h1v1h-1z M17,47h1v1h-1z M22,47h1v1h-1z M23,47h1v1h-1z M24,47h1v1h-1z M26,47h1v1h-1z M28,47h1v1h-1z M33,47h1v1h-1z M34,47h1v1h-1z M35,47h1v1h-1z M37,47h1v1h-1z M44,47h1v1h-1z M46,47h1v1h-1z M47,47h1v1h-1z M51,47h1v1h-1z M52,47h1v1h-1z M53,47h1v1h-1z M57,47h1v1h-1z M58,47h1v1h-1z M59,47h1v1h-1z M61,47h1v1h-1z M63,47h1v1h-1z M67,47h1v1h-1z M68,47h1v1h-1z M69,47h1v1h-1z M70,47h1v1h-1z M71,47h1v1h-1z M75,47h1v1h-1z M76,47h1v1h-1z M77,47h1v1h-1z M82,47h1v1h-1z M83,47h1v1h-1z M85,47h1v1h-1z M87,47h1v1h-1z M89,47h1v1h-1z M92,47h1v1h-1z M94,47h1v1h-1z M95,47h1v1h-1z M99,47h1v1h-1z M100,47h1v1h-1z M102,47h1v1h-1z M104,47h1v1h-1z M8,48h1v1h-1z M10,48h1v1h-1z M12,48h1v1h-1z M15,48h1v1h-1z M18,48h1v1h-1z M21,48h1v1h-1z M22,48h1v1h-1z M24,48h1v1h-1z M26,48h1v1h-1z M29,48h1v1h-1z M33,48h1v1h-1z M34,48h1v1h-1z M37,48h1v1h-1z M44,48h1v1h-1z M46,48h1v1h-1z M47,48h1v1h-1z M49,48h1v1h-1z M55,48h1v1h-1z M58,48h1v1h-1z M63,48h1v1h-1z M64,48h1v1h-1z M68,48h1v1h-1z M69,48h1v1h-1z M71,48h1v1h-1z M72,48h1v1h-1z M73,48h1v1h-1z M78,48h1v1h-1z M85,48h1v1h-1z M86,48h1v1h-1z M88,48h1v1h-1z M90,48h1v1h-1z M93,48h1v1h-1z M94,48h1v1h-1z M97,48h1v1h-1z M99,48h1v1h-1z M102,48h1v1h-1z M103,48h1v1h-1z M106,48h1v1h-1z M108,48h1v1h-1z M5,49h1v1h-1z M7,49h1v1h-1z M9,49h1v1h-1z M14,49h1v1h-1z M15,49h1v1h-1z M16,49h1v1h-1z M28,49h1v1h-1z M29,49h1v1h-1z M30,49h1v1h-1z M31,49h1v1h-1z M32,49h1v1h-1z M34,49h1v1h-1z M35,49h1v1h-1z M36,49h1v1h-1z M38,49h1v1h-1z M40,49h1v1h-1z M44,49h1v1h-1z M45,49h1v1h-1z M46,49h1v1h-1z M47,49h1v1h-1z M51,49h1v1h-1z M52,49h1v1h-1z M53,49h1v1h-1z M54,49h1v1h-1z M58,49h1v1h-1z M60,49h1v1h-1z M61,49h1v1h-1z M63,49h1v1h-1z M64,49h1v1h-1z M65,49h1v1h-1z M67,49h1v1h-1z M68,49h1v1h-1z M69,49h1v1h-1z M71,49h1v1h-1z M74,49h1v1h-1z M75,49h1v1h-1z M78,49h1v1h-1z M79,49h1v1h-1z M82,49h1v1h-1z M84,49h1v1h-1z M85,49h1v1h-1z M89,49h1v1h-1z M93,49h1v1h-1z M94,49h1v1h-1z M95,49h1v1h-1z M96,49h1v1h-1z M98,49h1v1h-1z M102,49h1v1h-1z M103,49h1v1h-1z M106,49h1v1h-1z M108,49h1v1h-1z M4,50h1v1h-1z M6,50h1v1h-1z M8,50h1v1h-1z M9,50h1v1h-1z M10,50h1v1h-1z M11,50h1v1h-1z M12,50h1v1h-1z M15,50h1v1h-1z M16,50h1v1h-1z M17,50h1v1h-1z M22,50h1v1h-1z M23,50h1v1h-1z M25,50h1v1h-1z M26,50h1v1h-1z M27,50h1v1h-1z M28,50h1v1h-1z M30,50h1v1h-1z M32,50h1v1h-1z M33,50h1v1h-1z M38,50h1v1h-1z M39,50h1v1h-1z M40,50h1v1h-1z M41,50h1v1h-1z M50,50h1v1h-1z M51,50h1v1h-1z M53,50h1v1h-1z M54,50h1v1h-1z M55,50h1v1h-1z M56,50h1v1h-1z M57,50h1v1h-1z M60,50h1v1h-1z M62,50h1v1h-1z M65,50h1v1h-1z M68,50h1v1h-1z M73,50h1v1h-1z M74,50h1v1h-1z M75,50h1v1h-1z M76,50h1v1h-1z M79,50h1v1h-1z M80,50h1v1h-1z M84,50h1v1h-1z M85,50h1v1h-1z M86,50h1v1h-1z M87,50h1v1h-1z M89,50h1v1h-1z M91,50h1v1h-1z M92,50h1v1h-1z M95,50h1v1h-1z M96,50h1v1h-1z M97,50h1v1h-1z M98,50h1v1h-1z M99,50h1v1h-1z M100,50h1v1h-1z M101,50h1v1h-1z M102,50h1v1h-1z M104,50h1v1h-1z M105,50h1v1h-1z M107,50h1v1h-1z M8,51h1v1h-1z M11,51h1v1h-1z M12,51h1v1h-1z M13,51h1v1h-1z M14,51h1v1h-1z M15,51h1v1h-1z M16,51h1v1h-1z M17,51h1v1h-1z M18,51h1v1h-1z M20,51h1v1h-1z M22,51h1v1h-1z M23,51h1v1h-1z M28,51h1v1h-1z M29,51h1v1h-1z M34,51h1v1h-1z M35,51h1v1h-1z M37,51h1v1h-1z M41,51h1v1h-1z M42,51h1v1h-1z M44,51h1v1h-1z M47,51h1v1h-1z M49,51h1v1h-1z M50,51h1v1h-1z M51,51h1v1h-1z M52,51h1v1h-1z M53,51h1v1h-1z M58,51h1v1h-1z M59,51h1v1h-1z M65,51h1v1h-1z M68,51h1v1h-1z M69,51h1v1h-1z M70,51h1v1h-1z M71,51h1v1h-1z M75,51h1v1h-1z M76,51h1v1h-1z M77,51h1v1h-1z M83,51h1v1h-1z M90,51h1v1h-1z M92,51h1v1h-1z M99,51h1v1h-1z M101,51h1v1h-1z M104,51h1v1h-1z M107,51h1v1h-1z M108,51h1v1h-1z M6,52h1v1h-1z M8,52h1v1h-1z M9,52h1v1h-1z M10,52h1v1h-1z M11,52h1v1h-1z M12,52h1v1h-1z M14,52h1v1h-1z M17,52h1v1h-1z M18,52h1v1h-1z M19,52h1v1h-1z M21,52h1v1h-1z M22,52h1v1h-1z M25,52h1v1h-1z M26,52h1v1h-1z M28,52h1v1h-1z M29,52h1v1h-1z M30,52h1v1h-1z M31,52h1v1h-1z M32,52h1v1h-1z M34,52h1v1h-1z M37,52h1v1h-1z M38,52h1v1h-1z M41,52h1v1h-1z M44,52h1v1h-1z M50,52h1v1h-1z M52,52h1v1h-1z M53,52h1v1h-1z M54,52h1v1h-1z M55,52h1v1h-1z M56,52h1v1h-1z M58,52h1v1h-1z M59,52h1v1h-1z M63,52h1v1h-1z M65,52h1v1h-1z M66,52h1v1h-1z M68,52h1v1h-1z M69,52h1v1h-1z M70,52h1v1h-1z M71,52h1v1h-1z M72,52h1v1h-1z M76,52h1v1h-1z M77,52h1v1h-1z M78,52h1v1h-1z M79,52h1v1h-1z M80,52h1v1h-1z M85,52h1v1h-1z M86,52h1v1h-1z M87,52h1v1h-1z M89,52h1v1h-1z M91,52h1v1h-1z M92,52h1v1h-1z M97,52h1v1h-1z M100,52h1v1h-1z M101,52h1v1h-1z M102,52h1v1h-1z M103,52h1v1h-1z M104,52h1v1h-1z M105,52h1v1h-1z M106,52h1v1h-1z M108,52h1v1h-1z M4,53h1v1h-1z M5,53h1v1h-1z M6,53h1v1h-1z M7,53h1v1h-1z M8,53h1v1h-1z M12,53h1v1h-1z M13,53h1v1h-1z M14,53h1v1h-1z M15,53h1v1h-1z M16,53h1v1h-1z M19,53h1v1h-1z M20,53h1v1h-1z M21,53h1v1h-1z M23,53h1v1h-1z M24,53h1v1h-1z M25,53h1v1h-1z M26,53h1v1h-1z M27,53h1v1h-1z M28,53h1v1h-1z M32,53h1v1h-1z M35,53h1v1h-1z M36,53h1v1h-1z M38,53h1v1h-1z M39,53h1v1h-1z M40,53h1v1h-1z M41,53h1v1h-1z M45,53h1v1h-1z M48,53h1v1h-1z M49,53h1v1h-1z M50,53h1v1h-1z M51,53h1v1h-1z M52,53h1v1h-1z M56,53h1v1h-1z M57,53h1v1h-1z M58,53h1v1h-1z M59,53h1v1h-1z M60,53h1v1h-1z M62,53h1v1h-1z M64,53h1v1h-1z M66,53h1v1h-1z M69,53h1v1h-1z M72,53h1v1h-1z M74,53h1v1h-1z M75,53h1v1h-1z M76,53h1v1h-1z M80,53h1v1h-1z M82,53h1v1h-1z M92,53h1v1h-1z M96,53h1v1h-1z M98,53h1v1h-1z M100,53h1v1h-1z M104,53h1v1h-1z M105,53h1v1h-1z M106,53h1v1h-1z M107,53h1v1h-1z M108,53h1v1h-1z M4,54h1v1h-1z M5,54h1v1h-1z M6,54h1v1h-1z M8,54h1v1h-1z M10,54h1v1h-1z M12,54h1v1h-1z M13,54h1v1h-1z M14,54h1v1h-1z M19,54h1v1h-1z M23,54h1v1h-1z M25,54h1v1h-1z M27,54h1v1h-1z M28,54h1v1h-1z M30,54h1v1h-1z M32,54h1v1h-1z M38,54h1v1h-1z M39,54h1v1h-1z M40,54h1v1h-1z M41,54h1v1h-1z M44,54h1v1h-1z M45,54h1v1h-1z M47,54h1v1h-1z M50,54h1v1h-1z M51,54h1v1h-1z M52,54h1v1h-1z M54,54h1v1h-1z M56,54h1v1h-1z M57,54h1v1h-1z M59,54h1v1h-1z M60,54h1v1h-1z M62,54h1v1h-1z M65,54h1v1h-1z M72,54h1v1h-1z M73,54h1v1h-1z M74,54h1v1h-1z M76,54h1v1h-1z M78,54h1v1h-1z M80,54h1v1h-1z M83,54h1v1h-1z M86,54h1v1h-1z M88,54h1v1h-1z M89,54h1v1h-1z M95,54h1v1h-1z M97,54h1v1h-1z M98,54h1v1h-1z M100,54h1v1h-1z M102,54h1v1h-1z M104,54h1v1h-1z M105,54h1v1h-1z M106,54h1v1h-1z M107,54h1v1h-1z M4,55h1v1h-1z M8,55h1v1h-1z M12,55h1v1h-1z M14,55h1v1h-1z M20,55h1v1h-1z M27,55h1v1h-1z M28,55h1v1h-1z M32,55h1v1h-1z M34,55h1v1h-1z M35,55h1v1h-1z M37,55h1v1h-1z M42,55h1v1h-1z M44,55h1v1h-1z M46,55h1v1h-1z M47,55h1v1h-1z M49,55h1v1h-1z M50,55h1v1h-1z M51,55h1v1h-1z M52,55h1v1h-1z M56,55h1v1h-1z M58,55h1v1h-1z M62,55h1v1h-1z M68,55h1v1h-1z M69,55h1v1h-1z M70,55h1v1h-1z M71,55h1v1h-1z M73,55h1v1h-1z M76,55h1v1h-1z M80,55h1v1h-1z M81,55h1v1h-1z M82,55h1v1h-1z M83,55h1v1h-1z M86,55h1v1h-1z M92,55h1v1h-1z M94,55h1v1h-1z M95,55h1v1h-1z M99,55h1v1h-1z M100,55h1v1h-1z M104,55h1v1h-1z M105,55h1v1h-1z M107,55h1v1h-1z M108,55h1v1h-1z M4,56h1v1h-1z M8,56h1v1h-1z M9,56h1v1h-1z M10,56h1v1h-1z M11,56h1v1h-1z M12,56h1v1h-1z M13,56h1v1h-1z M14,56h1v1h-1z M16,56h1v1h-1z M17,56h1v1h-1z M19,56h1v1h-1z M22,56h1v1h-1z M25,56h1v1h-1z M28,56h1v1h-1z M29,56h1v1h-1z M30,56h1v1h-1z M31,56h1v1h-1z M32,56h1v1h-1z M33,56h1v1h-1z M34,56h1v1h-1z M35,56h1v1h-1z M36,56h1v1h-1z M37,56h1v1h-1z M39,56h1v1h-1z M40,56h1v1h-1z M42,56h1v1h-1z M46,56h1v1h-1z M48,56h1v1h-1z M51,56h1v1h-1z M52,56h1v1h-1z M53,56h1v1h-1z M54,56h1v1h-1z M55,56h1v1h-1z M56,56h1v1h-1z M57,56h1v1h-1z M58,56h1v1h-1z M61,56h1v1h-1z M64,56h1v1h-1z M65,56h1v1h-1z M66,56h1v1h-1z M68,56h1v1h-1z M69,56h1v1h-1z M72,56h1v1h-1z M75,56h1v1h-1z M76,56h1v1h-1z M77,56h1v1h-1z M78,56h1v1h-1z M79,56h1v1h-1z M80,56h1v1h-1z M82,56h1v1h-1z M83,56h1v1h-1z M87,56h1v1h-1z M88,56h1v1h-1z M89,56h1v1h-1z M90,56h1v1h-1z M91,56h1v1h-1z M93,56h1v1h-1z M94,56h1v1h-1z M95,56h1v1h-1z M96,56h1v1h-1z M97,56h1v1h-1z M99,56h1v1h-1z M100,56h1v1h-1z M101,56h1v1h-1z M102,56h1v1h-1z M103,56h1v1h-1z M104,56h1v1h-1z M105,56h1v1h-1z M107,56h1v1h-1z M108,56h1v1h-1z M9,57h1v1h-1z M11,57h1v1h-1z M12,57h1v1h-1z M14,57h1v1h-1z M16,57h1v1h-1z M17,57h1v1h-1z M18,57h1v1h-1z M19,57h1v1h-1z M21,57h1v1h-1z M22,57h1v1h-1z M23,57h1v1h-1z M26,57h1v1h-1z M29,57h1v1h-1z M30,57h1v1h-1z M33,57h1v1h-1z M35,57h1v1h-1z M37,57h1v1h-1z M40,57h1v1h-1z M42,57h1v1h-1z M43,57h1v1h-1z M48,57h1v1h-1z M49,57h1v1h-1z M50,57h1v1h-1z M52,57h1v1h-1z M53,57h1v1h-1z M54,57h1v1h-1z M57,57h1v1h-1z M59,57h1v1h-1z M60,57h1v1h-1z M61,57h1v1h-1z M62,57h1v1h-1z M63,57h1v1h-1z M64,57h1v1h-1z M66,57h1v1h-1z M69,57h1v1h-1z M71,57h1v1h-1z M73,57h1v1h-1z M74,57h1v1h-1z M76,57h1v1h-1z M77,57h1v1h-1z M79,57h1v1h-1z M83,57h1v1h-1z M85,57h1v1h-1z M87,57h1v1h-1z M88,57h1v1h-1z M90,57h1v1h-1z M92,57h1v1h-1z M93,57h1v1h-1z M94,57h1v1h-1z M95,57h1v1h-1z M97,57h1v1h-1z M98,57h1v1h-1z M100,57h1v1h-1z M101,57h1v1h-1z M102,57h1v1h-1z M103,57h1v1h-1z M104,57h1v1h-1z M107,57h1v1h-1z M5,58h1v1h-1z M6,58h1v1h-1z M7,58h1v1h-1z M8,58h1v1h-1z M9,58h1v1h-1z M10,58h1v1h-1z M12,58h1v1h-1z M14,58h1v1h-1z M18,58h1v1h-1z M20,58h1v1h-1z M22,58h1v1h-1z M31,58h1v1h-1z M32,58h1v1h-1z M35,58h1v1h-1z M38,58h1v1h-1z M44,58h1v1h-1z M48,58h1v1h-1z M50,58h1v1h-1z M53,58h1v1h-1z M55,58h1v1h-1z M59,58h1v1h-1z M60,58h1v1h-1z M62,58h1v1h-1z M63,58h1v1h-1z M65,58h1v1h-1z M67,58h1v1h-1z M69,58h1v1h-1z M71,58h1v1h-1z M72,58h1v1h-1z M74,58h1v1h-1z M77,58h1v1h-1z M78,58h1v1h-1z M79,58h1v1h-1z M80,58h1v1h-1z M83,58h1v1h-1z M86,58h1v1h-1z M87,58h1v1h-1z M88,58h1v1h-1z M89,58h1v1h-1z M95,58h1v1h-1z M98,58h1v1h-1z M99,58h1v1h-1z M101,58h1v1h-1z M102,58h1v1h-1z M103,58h1v1h-1z M105,58h1v1h-1z M107,58h1v1h-1z M4,59h1v1h-1z M7,59h1v1h-1z M8,59h1v1h-1z M9,59h1v1h-1z M11,59h1v1h-1z M15,59h1v1h-1z M17,59h1v1h-1z M18,59h1v1h-1z M19,59h1v1h-1z M20,59h1v1h-1z M26,59h1v1h-1z M30,59h1v1h-1z M31,59h1v1h-1z M32,59h1v1h-1z M33,59h1v1h-1z M35,59h1v1h-1z M37,59h1v1h-1z M38,59h1v1h-1z M41,59h1v1h-1z M42,59h1v1h-1z M44,59h1v1h-1z M45,59h1v1h-1z M46,59h1v1h-1z M47,59h1v1h-1z M50,59h1v1h-1z M52,59h1v1h-1z M55,59h1v1h-1z M56,59h1v1h-1z M58,59h1v1h-1z M59,59h1v1h-1z M62,59h1v1h-1z M68,59h1v1h-1z M70,59h1v1h-1z M73,59h1v1h-1z M75,59h1v1h-1z M77,59h1v1h-1z M78,59h1v1h-1z M79,59h1v1h-1z M81,59h1v1h-1z M83,59h1v1h-1z M85,59h1v1h-1z M86,59h1v1h-1z M90,59h1v1h-1z M91,59h1v1h-1z M92,59h1v1h-1z M93,59h1v1h-1z M95,59h1v1h-1z M102,59h1v1h-1z M103,59h1v1h-1z M104,59h1v1h-1z M105,59h1v1h-1z M107,59h1v1h-1z M5,60h1v1h-1z M7,60h1v1h-1z M10,60h1v1h-1z M11,60h1v1h-1z M12,60h1v1h-1z M14,60h1v1h-1z M15,60h1v1h-1z M16,60h1v1h-1z M17,60h1v1h-1z M18,60h1v1h-1z M20,60h1v1h-1z M21,60h1v1h-1z M22,60h1v1h-1z M24,60h1v1h-1z M25,60h1v1h-1z M26,60h1v1h-1z M27,60h1v1h-1z M28,60h1v1h-1z M30,60h1v1h-1z M31,60h1v1h-1z M33,60h1v1h-1z M34,60h1v1h-1z M37,60h1v1h-1z M39,60h1v1h-1z M42,60h1v1h-1z M47,60h1v1h-1z M48,60h1v1h-1z M51,60h1v1h-1z M54,60h1v1h-1z M55,60h1v1h-1z M56,60h1v1h-1z M57,60h1v1h-1z M59,60h1v1h-1z M60,60h1v1h-1z M62,60h1v1h-1z M66,60h1v1h-1z M67,60h1v1h-1z M68,60h1v1h-1z M69,60h1v1h-1z M75,60h1v1h-1z M76,60h1v1h-1z M78,60h1v1h-1z M83,60h1v1h-1z M85,60h1v1h-1z M87,60h1v1h-1z M89,60h1v1h-1z M94,60h1v1h-1z M101,60h1v1h-1z M103,60h1v1h-1z M105,60h1v1h-1z M107,60h1v1h-1z M4,61h1v1h-1z M7,61h1v1h-1z M8,61h1v1h-1z M14,61h1v1h-1z M15,61h1v1h-1z M16,61h1v1h-1z M18,61h1v1h-1z M23,61h1v1h-1z M25,61h1v1h-1z M26,61h1v1h-1z M27,61h1v1h-1z M30,61h1v1h-1z M31,61h1v1h-1z M33,61h1v1h-1z M34,61h1v1h-1z M36,61h1v1h-1z M37,61h1v1h-1z M38,61h1v1h-1z M39,61h1v1h-1z M41,61h1v1h-1z M43,61h1v1h-1z M46,61h1v1h-1z M49,61h1v1h-1z M53,61h1v1h-1z M57,61h1v1h-1z M59,61h1v1h-1z M60,61h1v1h-1z M61,61h1v1h-1z M64,61h1v1h-1z M65,61h1v1h-1z M67,61h1v1h-1z M69,61h1v1h-1z M70,61h1v1h-1z M72,61h1v1h-1z M74,61h1v1h-1z M77,61h1v1h-1z M79,61h1v1h-1z M82,61h1v1h-1z M84,61h1v1h-1z M85,61h1v1h-1z M86,61h1v1h-1z M87,61h1v1h-1z M88,61h1v1h-1z M89,61h1v1h-1z M90,61h1v1h-1z M91,61h1v1h-1z M93,61h1v1h-1z M94,61h1v1h-1z M98,61h1v1h-1z M99,61h1v1h-1z M100,61h1v1h-1z M102,61h1v1h-1z M103,61h1v1h-1z M105,61h1v1h-1z M4,62h1v1h-1z M5,62h1v1h-1z M7,62h1v1h-1z M9,62h1v1h-1z M10,62h1v1h-1z M13,62h1v1h-1z M17,62h1v1h-1z M19,62h1v1h-1z M20,62h1v1h-1z M21,62h1v1h-1z M22,62h1v1h-1z M23,62h1v1h-1z M30,62h1v1h-1z M35,62h1v1h-1z M38,62h1v1h-1z M40,62h1v1h-1z M41,62h1v1h-1z M47,62h1v1h-1z M48,62h1v1h-1z M50,62h1v1h-1z M54,62h1v1h-1z M57,62h1v1h-1z M62,62h1v1h-1z M68,62h1v1h-1z M71,62h1v1h-1z M72,62h1v1h-1z M73,62h1v1h-1z M74,62h1v1h-1z M75,62h1v1h-1z M78,62h1v1h-1z M81,62h1v1h-1z M86,62h1v1h-1z M88,62h1v1h-1z M92,62h1v1h-1z M98,62h1v1h-1z M103,62h1v1h-1z M106,62h1v1h-1z M107,62h1v1h-1z M5,63h1v1h-1z M6,63h1v1h-1z M8,63h1v1h-1z M12,63h1v1h-1z M16,63h1v1h-1z M20,63h1v1h-1z M24,63h1v1h-1z M27,63h1v1h-1z M29,63h1v1h-1z M32,63h1v1h-1z M34,63h1v1h-1z M35,63h1v1h-1z M39,63h1v1h-1z M42,63h1v1h-1z M43,63h1v1h-1z M44,63h1v1h-1z M46,63h1v1h-1z M49,63h1v1h-1z M58,63h1v1h-1z M59,63h1v1h-1z M61,63h1v1h-1z M62,63h1v1h-1z M65,63h1v1h-1z M66,63h1v1h-1z M68,63h1v1h-1z M71,63h1v1h-1z M73,63h1v1h-1z M75,63h1v1h-1z M77,63h1v1h-1z M79,63h1v1h-1z M82,63h1v1h-1z M83,63h1v1h-1z M85,63h1v1h-1z M89,63h1v1h-1z M90,63h1v1h-1z M92,63h1v1h-1z M93,63h1v1h-1z M95,63h1v1h-1z M97,63h1v1h-1z M98,63h1v1h-1z M99,63h1v1h-1z M100,63h1v1h-1z M107,63h1v1h-1z M7,64h1v1h-1z M8,64h1v1h-1z M10,64h1v1h-1z M13,64h1v1h-1z M15,64h1v1h-1z M16,64h1v1h-1z M18,64h1v1h-1z M21,64h1v1h-1z M23,64h1v1h-1z M27,64h1v1h-1z M28,64h1v1h-1z M29,64h1v1h-1z M30,64h1v1h-1z M31,64h1v1h-1z M33,64h1v1h-1z M36,64h1v1h-1z M41,64h1v1h-1z M43,64h1v1h-1z M45,64h1v1h-1z M46,64h1v1h-1z M50,64h1v1h-1z M53,64h1v1h-1z M54,64h1v1h-1z M56,64h1v1h-1z M58,64h1v1h-1z M60,64h1v1h-1z M61,64h1v1h-1z M63,64h1v1h-1z M64,64h1v1h-1z M65,64h1v1h-1z M66,64h1v1h-1z M68,64h1v1h-1z M70,64h1v1h-1z M72,64h1v1h-1z M73,64h1v1h-1z M78,64h1v1h-1z M80,64h1v1h-1z M82,64h1v1h-1z M83,64h1v1h-1z M84,64h1v1h-1z M89,64h1v1h-1z M92,64h1v1h-1z M94,64h1v1h-1z M95,64h1v1h-1z M96,64h1v1h-1z M98,64h1v1h-1z M102,64h1v1h-1z M103,64h1v1h-1z M106,64h1v1h-1z M107,64h1v1h-1z M4,65h1v1h-1z M8,65h1v1h-1z M9,65h1v1h-1z M11,65h1v1h-1z M13,65h1v1h-1z M14,65h1v1h-1z M18,65h1v1h-1z M21,65h1v1h-1z M22,65h1v1h-1z M24,65h1v1h-1z M27,65h1v1h-1z M31,65h1v1h-1z M33,65h1v1h-1z M36,65h1v1h-1z M38,65h1v1h-1z M40,65h1v1h-1z M41,65h1v1h-1z M42,65h1v1h-1z M45,65h1v1h-1z M46,65h1v1h-1z M48,65h1v1h-1z M49,65h1v1h-1z M52,65h1v1h-1z M53,65h1v1h-1z M55,65h1v1h-1z M59,65h1v1h-1z M62,65h1v1h-1z M66,65h1v1h-1z M69,65h1v1h-1z M72,65h1v1h-1z M74,65h1v1h-1z M75,65h1v1h-1z M77,65h1v1h-1z M78,65h1v1h-1z M79,65h1v1h-1z M82,65h1v1h-1z M84,65h1v1h-1z M86,65h1v1h-1z M87,65h1v1h-1z M88,65h1v1h-1z M89,65h1v1h-1z M90,65h1v1h-1z M91,65h1v1h-1z M95,65h1v1h-1z M97,65h1v1h-1z M99,65h1v1h-1z M100,65h1v1h-1z M102,65h1v1h-1z M104,65h1v1h-1z M107,65h1v1h-1z M4,66h1v1h-1z M5,66h1v1h-1z M8,66h1v1h-1z M10,66h1v1h-1z M11,66h1v1h-1z M12,66h1v1h-1z M13,66h1v1h-1z M14,66h1v1h-1z M19,66h1v1h-1z M22,66h1v1h-1z M23,66h1v1h-1z M24,66h1v1h-1z M26,66h1v1h-1z M32,66h1v1h-1z M36,66h1v1h-1z M38,66h1v1h-1z M40,66h1v1h-1z M43,66h1v1h-1z M44,66h1v1h-1z M45,66h1v1h-1z M49,66h1v1h-1z M50,66h1v1h-1z M55,66h1v1h-1z M59,66h1v1h-1z M60,66h1v1h-1z M62,66h1v1h-1z M65,66h1v1h-1z M67,66h1v1h-1z M71,66h1v1h-1z M72,66h1v1h-1z M74,66h1v1h-1z M77,66h1v1h-1z M80,66h1v1h-1z M81,66h1v1h-1z M85,66h1v1h-1z M86,66h1v1h-1z M87,66h1v1h-1z M89,66h1v1h-1z M91,66h1v1h-1z M92,66h1v1h-1z M93,66h1v1h-1z M96,66h1v1h-1z M97,66h1v1h-1z M98,66h1v1h-1z M101,66h1v1h-1z M102,66h1v1h-1z M106,66h1v1h-1z M5,67h1v1h-1z M6,67h1v1h-1z M7,67h1v1h-1z M8,67h1v1h-1z M9,67h1v1h-1z M12,67h1v1h-1z M14,67h1v1h-1z M15,67h1v1h-1z M19,67h1v1h-1z M20,67h1v1h-1z M22,67h1v1h-1z M23,67h1v1h-1z M24,67h1v1h-1z M29,67h1v1h-1z M31,67h1v1h-1z M32,67h1v1h-1z M33,67h1v1h-1z M35,67h1v1h-1z M38,67h1v1h-1z M39,67h1v1h-1z M41,67h1v1h-1z M42,67h1v1h-1z M44,67h1v1h-1z M46,67h1v1h-1z M47,67h1v1h-1z M51,67h1v1h-1z M53,67h1v1h-1z M54,67h1v1h-1z M56,67h1v1h-1z M58,67h1v1h-1z M59,67h1v1h-1z M62,67h1v1h-1z M65,67h1v1h-1z M68,67h1v1h-1z M70,67h1v1h-1z M71,67h1v1h-1z M73,67h1v1h-1z M75,67h1v1h-1z M76,67h1v1h-1z M77,67h1v1h-1z M78,67h1v1h-1z M79,67h1v1h-1z M80,67h1v1h-1z M82,67h1v1h-1z M83,67h1v1h-1z M92,67h1v1h-1z M94,67h1v1h-1z M95,67h1v1h-1z M99,67h1v1h-1z M101,67h1v1h-1z M102,67h1v1h-1z M107,67h1v1h-1z M4,68h1v1h-1z M7,68h1v1h-1z M8,68h1v1h-1z M10,68h1v1h-1z M11,68h1v1h-1z M13,68h1v1h-1z M17,68h1v1h-1z M18,68h1v1h-1z M23,68h1v1h-1z M24,68h1v1h-1z M26,68h1v1h-1z M27,68h1v1h-1z M28,68h1v1h-1z M29,68h1v1h-1z M30,68h1v1h-1z M31,68h1v1h-1z M32,68h1v1h-1z M34,68h1v1h-1z M35,68h1v1h-1z M37,68h1v1h-1z M41,68h1v1h-1z M42,68h1v1h-1z M43,68h1v1h-1z M44,68h1v1h-1z M45,68h1v1h-1z M46,68h1v1h-1z M47,68h1v1h-1z M49,68h1v1h-1z M50,68h1v1h-1z M51,68h1v1h-1z M52,68h1v1h-1z M54,68h1v1h-1z M60,68h1v1h-1z M61,68h1v1h-1z M64,68h1v1h-1z M65,68h1v1h-1z M66,68h1v1h-1z M67,68h1v1h-1z M69,68h1v1h-1z M70,68h1v1h-1z M71,68h1v1h-1z M76,68h1v1h-1z M78,68h1v1h-1z M79,68h1v1h-1z M80,68h1v1h-1z M81,68h1v1h-1z M84,68h1v1h-1z M85,68h1v1h-1z M86,68h1v1h-1z M89,68h1v1h-1z M90,68h1v1h-1z M94,68h1v1h-1z M95,68h1v1h-1z M100,68h1v1h-1z M102,68h1v1h-1z M103,68h1v1h-1z M105,68h1v1h-1z M106,68h1v1h-1z M108,68h1v1h-1z M4,69h1v1h-1z M5,69h1v1h-1z M7,69h1v1h-1z M8,69h1v1h-1z M11,69h1v1h-1z M12,69h1v1h-1z M13,69h1v1h-1z M14,69h1v1h-1z M15,69h1v1h-1z M17,69h1v1h-1z M23,69h1v1h-1z M26,69h1v1h-1z M28,69h1v1h-1z M33,69h1v1h-1z M34,69h1v1h-1z M35,69h1v1h-1z M36,69h1v1h-1z M41,69h1v1h-1z M43,69h1v1h-1z M44,69h1v1h-1z M47,69h1v1h-1z M48,69h1v1h-1z M49,69h1v1h-1z M50,69h1v1h-1z M51,69h1v1h-1z M52,69h1v1h-1z M53,69h1v1h-1z M55,69h1v1h-1z M58,69h1v1h-1z M59,69h1v1h-1z M60,69h1v1h-1z M65,69h1v1h-1z M71,69h1v1h-1z M72,69h1v1h-1z M73,69h1v1h-1z M75,69h1v1h-1z M77,69h1v1h-1z M78,69h1v1h-1z M79,69h1v1h-1z M81,69h1v1h-1z M82,69h1v1h-1z M84,69h1v1h-1z M85,69h1v1h-1z M87,69h1v1h-1z M88,69h1v1h-1z M90,69h1v1h-1z M92,69h1v1h-1z M94,69h1v1h-1z M97,69h1v1h-1z M98,69h1v1h-1z M99,69h1v1h-1z M100,69h1v1h-1z M102,69h1v1h-1z M103,69h1v1h-1z M105,69h1v1h-1z M106,69h1v1h-1z M107,69h1v1h-1z M7,70h1v1h-1z M8,70h1v1h-1z M10,70h1v1h-1z M13,70h1v1h-1z M16,70h1v1h-1z M17,70h1v1h-1z M22,70h1v1h-1z M23,70h1v1h-1z M24,70h1v1h-1z M25,70h1v1h-1z M26,70h1v1h-1z M29,70h1v1h-1z M32,70h1v1h-1z M35,70h1v1h-1z M37,70h1v1h-1z M38,70h1v1h-1z M40,70h1v1h-1z M41,70h1v1h-1z M47,70h1v1h-1z M48,70h1v1h-1z M50,70h1v1h-1z M55,70h1v1h-1z M59,70h1v1h-1z M62,70h1v1h-1z M65,70h1v1h-1z M67,70h1v1h-1z M68,70h1v1h-1z M71,70h1v1h-1z M74,70h1v1h-1z M75,70h1v1h-1z M80,70h1v1h-1z M83,70h1v1h-1z M84,70h1v1h-1z M86,70h1v1h-1z M89,70h1v1h-1z M96,70h1v1h-1z M98,70h1v1h-1z M101,70h1v1h-1z M107,70h1v1h-1z M108,70h1v1h-1z M4,71h1v1h-1z M8,71h1v1h-1z M11,71h1v1h-1z M13,71h1v1h-1z M19,71h1v1h-1z M22,71h1v1h-1z M23,71h1v1h-1z M25,71h1v1h-1z M26,71h1v1h-1z M29,71h1v1h-1z M30,71h1v1h-1z M31,71h1v1h-1z M33,71h1v1h-1z M34,71h1v1h-1z M35,71h1v1h-1z M39,71h1v1h-1z M42,71h1v1h-1z M43,71h1v1h-1z M44,71h1v1h-1z M45,71h1v1h-1z M46,71h1v1h-1z M47,71h1v1h-1z M49,71h1v1h-1z M51,71h1v1h-1z M53,71h1v1h-1z M54,71h1v1h-1z M57,71h1v1h-1z M59,71h1v1h-1z M62,71h1v1h-1z M65,71h1v1h-1z M66,71h1v1h-1z M68,71h1v1h-1z M69,71h1v1h-1z M71,71h1v1h-1z M73,71h1v1h-1z M74,71h1v1h-1z M76,71h1v1h-1z M77,71h1v1h-1z M79,71h1v1h-1z M82,71h1v1h-1z M85,71h1v1h-1z M91,71h1v1h-1z M92,71h1v1h-1z M93,71h1v1h-1z M94,71h1v1h-1z M95,71h1v1h-1z M97,71h1v1h-1z M101,71h1v1h-1z M104,71h1v1h-1z M107,71h1v1h-1z M108,71h1v1h-1z M4,72h1v1h-1z M10,72h1v1h-1z M11,72h1v1h-1z M12,72h1v1h-1z M15,72h1v1h-1z M16,72h1v1h-1z M17,72h1v1h-1z M19,72h1v1h-1z M20,72h1v1h-1z M21,72h1v1h-1z M22,72h1v1h-1z M23,72h1v1h-1z M26,72h1v1h-1z M30,72h1v1h-1z M31,72h1v1h-1z M32,72h1v1h-1z M33,72h1v1h-1z M38,72h1v1h-1z M42,72h1v1h-1z M43,72h1v1h-1z M44,72h1v1h-1z M45,72h1v1h-1z M46,72h1v1h-1z M47,72h1v1h-1z M54,72h1v1h-1z M55,72h1v1h-1z M58,72h1v1h-1z M59,72h1v1h-1z M60,72h1v1h-1z M62,72h1v1h-1z M65,72h1v1h-1z M67,72h1v1h-1z M68,72h1v1h-1z M69,72h1v1h-1z M70,72h1v1h-1z M76,72h1v1h-1z M77,72h1v1h-1z M78,72h1v1h-1z M79,72h1v1h-1z M80,72h1v1h-1z M82,72h1v1h-1z M84,72h1v1h-1z M85,72h1v1h-1z M86,72h1v1h-1z M89,72h1v1h-1z M90,72h1v1h-1z M91,72h1v1h-1z M93,72h1v1h-1z M94,72h1v1h-1z M97,72h1v1h-1z M98,72h1v1h-1z M99,72h1v1h-1z M100,72h1v1h-1z M102,72h1v1h-1z M103,72h1v1h-1z M105,72h1v1h-1z M107,72h1v1h-1z M108,72h1v1h-1z M5,73h1v1h-1z M8,73h1v1h-1z M9,73h1v1h-1z M11,73h1v1h-1z M15,73h1v1h-1z M18,73h1v1h-1z M20,73h1v1h-1z M24,73h1v1h-1z M25,73h1v1h-1z M26,73h1v1h-1z M29,73h1v1h-1z M34,73h1v1h-1z M36,73h1v1h-1z M37,73h1v1h-1z M39,73h1v1h-1z M40,73h1v1h-1z M43,73h1v1h-1z M44,73h1v1h-1z M45,73h1v1h-1z M47,73h1v1h-1z M48,73h1v1h-1z M49,73h1v1h-1z M52,73h1v1h-1z M55,73h1v1h-1z M60,73h1v1h-1z M64,73h1v1h-1z M66,73h1v1h-1z M67,73h1v1h-1z M70,73h1v1h-1z M72,73h1v1h-1z M73,73h1v1h-1z M75,73h1v1h-1z M81,73h1v1h-1z M82,73h1v1h-1z M83,73h1v1h-1z M84,73h1v1h-1z M85,73h1v1h-1z M86,73h1v1h-1z M89,73h1v1h-1z M91,73h1v1h-1z M93,73h1v1h-1z M96,73h1v1h-1z M97,73h1v1h-1z M99,73h1v1h-1z M100,73h1v1h-1z M102,73h1v1h-1z M103,73h1v1h-1z M107,73h1v1h-1z M108,73h1v1h-1z M4,74h1v1h-1z M5,74h1v1h-1z M8,74h1v1h-1z M10,74h1v1h-1z M14,74h1v1h-1z M15,74h1v1h-1z M16,74h1v1h-1z M17,74h1v1h-1z M18,74h1v1h-1z M19,74h1v1h-1z M20,74h1v1h-1z M23,74h1v1h-1z M24,74h1v1h-1z M25,74h1v1h-1z M26,74h1v1h-1z M29,74h1v1h-1z M32,74h1v1h-1z M36,74h1v1h-1z M38,74h1v1h-1z M41,74h1v1h-1z M47,74h1v1h-1z M50,74h1v1h-1z M53,74h1v1h-1z M62,74h1v1h-1z M63,74h1v1h-1z M64,74h1v1h-1z M67,74h1v1h-1z M68,74h1v1h-1z M72,74h1v1h-1z M74,74h1v1h-1z M79,74h1v1h-1z M86,74h1v1h-1z M87,74h1v1h-1z M88,74h1v1h-1z M89,74h1v1h-1z M92,74h1v1h-1z M95,74h1v1h-1z M96,74h1v1h-1z M98,74h1v1h-1z M99,74h1v1h-1z M102,74h1v1h-1z M104,74h1v1h-1z M105,74h1v1h-1z M107,74h1v1h-1z M4,75h1v1h-1z M5,75h1v1h-1z M7,75h1v1h-1z M8,75h1v1h-1z M9,75h1v1h-1z M12,75h1v1h-1z M13,75h1v1h-1z M16,75h1v1h-1z M19,75h1v1h-1z M22,75h1v1h-1z M23,75h1v1h-1z M26,75h1v1h-1z M27,75h1v1h-1z M28,75h1v1h-1z M29,75h1v1h-1z M31,75h1v1h-1z M34,75h1v1h-1z M35,75h1v1h-1z M37,75h1v1h-1z M38,75h1v1h-1z M41,75h1v1h-1z M42,75h1v1h-1z M44,75h1v1h-1z M45,75h1v1h-1z M47,75h1v1h-1z M50,75h1v1h-1z M52,75h1v1h-1z M54,75h1v1h-1z M55,75h1v1h-1z M57,75h1v1h-1z M58,75h1v1h-1z M59,75h1v1h-1z M61,75h1v1h-1z M63,75h1v1h-1z M65,75h1v1h-1z M66,75h1v1h-1z M68,75h1v1h-1z M69,75h1v1h-1z M71,75h1v1h-1z M74,75h1v1h-1z M77,75h1v1h-1z M80,75h1v1h-1z M81,75h1v1h-1z M82,75h1v1h-1z M83,75h1v1h-1z M85,75h1v1h-1z M86,75h1v1h-1z M90,75h1v1h-1z M92,75h1v1h-1z M94,75h1v1h-1z M95,75h1v1h-1z M97,75h1v1h-1z M98,75h1v1h-1z M104,75h1v1h-1z M107,75h1v1h-1z M108,75h1v1h-1z M4,76h1v1h-1z M7,76h1v1h-1z M8,76h1v1h-1z M9,76h1v1h-1z M10,76h1v1h-1z M11,76h1v1h-1z M12,76h1v1h-1z M14,76h1v1h-1z M17,76h1v1h-1z M18,76h1v1h-1z M20,76h1v1h-1z M24,76h1v1h-1z M25,76h1v1h-1z M28,76h1v1h-1z M29,76h1v1h-1z M30,76h1v1h-1z M31,76h1v1h-1z M32,76h1v1h-1z M33,76h1v1h-1z M34,76h1v1h-1z M37,76h1v1h-1z M39,76h1v1h-1z M42,76h1v1h-1z M43,76h1v1h-1z M44,76h1v1h-1z M46,76h1v1h-1z M47,76h1v1h-1z M48,76h1v1h-1z M50,76h1v1h-1z M52,76h1v1h-1z M53,76h1v1h-1z M54,76h1v1h-1z M55,76h1v1h-1z M56,76h1v1h-1z M58,76h1v1h-1z M59,76h1v1h-1z M60,76h1v1h-1z M61,76h1v1h-1z M64,76h1v1h-1z M65,76h1v1h-1z M66,76h1v1h-1z M67,76h1v1h-1z M69,76h1v1h-1z M72,76h1v1h-1z M74,76h1v1h-1z M75,76h1v1h-1z M76,76h1v1h-1z M77,76h1v1h-1z M78,76h1v1h-1z M79,76h1v1h-1z M80,76h1v1h-1z M81,76h1v1h-1z M82,76h1v1h-1z M83,76h1v1h-1z M84,76h1v1h-1z M90,76h1v1h-1z M91,76h1v1h-1z M92,76h1v1h-1z M94,76h1v1h-1z M95,76h1v1h-1z M96,76h1v1h-1z M98,76h1v1h-1z M100,76h1v1h-1z M101,76h1v1h-1z M102,76h1v1h-1z M103,76h1v1h-1z M104,76h1v1h-1z M105,76h1v1h-1z M108,76h1v1h-1z M8,77h1v1h-1z M12,77h1v1h-1z M14,77h1v1h-1z M18,77h1v1h-1z M21,77h1v1h-1z M24,77h1v1h-1z M25,77h1v1h-1z M28,77h1v1h-1z M32,77h1v1h-1z M33,77h1v1h-1z M35,77h1v1h-1z M36,77h1v1h-1z M37,77h1v1h-1z M39,77h1v1h-1z M40,77h1v1h-1z M41,77h1v1h-1z M42,77h1v1h-1z M45,77h1v1h-1z M46,77h1v1h-1z M47,77h1v1h-1z M50,77h1v1h-1z M52,77h1v1h-1z M56,77h1v1h-1z M62,77h1v1h-1z M63,77h1v1h-1z M68,77h1v1h-1z M71,77h1v1h-1z M72,77h1v1h-1z M73,77h1v1h-1z M76,77h1v1h-1z M80,77h1v1h-1z M82,77h1v1h-1z M83,77h1v1h-1z M86,77h1v1h-1z M87,77h1v1h-1z M88,77h1v1h-1z M89,77h1v1h-1z M90,77h1v1h-1z M91,77h1v1h-1z M93,77h1v1h-1z M94,77h1v1h-1z M96,77h1v1h-1z M98,77h1v1h-1z M99,77h1v1h-1z M100,77h1v1h-1z M104,77h1v1h-1z M106,77h1v1h-1z M6,78h1v1h-1z M7,78h1v1h-1z M8,78h1v1h-1z M10,78h1v1h-1z M12,78h1v1h-1z M13,78h1v1h-1z M14,78h1v1h-1z M15,78h1v1h-1z M16,78h1v1h-1z M18,78h1v1h-1z M19,78h1v1h-1z M20,78h1v1h-1z M22,78h1v1h-1z M27,78h1v1h-1z M28,78h1v1h-1z M30,78h1v1h-1z M32,78h1v1h-1z M35,78h1v1h-1z M38,78h1v1h-1z M39,78h1v1h-1z M41,78h1v1h-1z M44,78h1v1h-1z M45,78h1v1h-1z M47,78h1v1h-1z M50,78h1v1h-1z M51,78h1v1h-1z M52,78h1v1h-1z M54,78h1v1h-1z M56,78h1v1h-1z M59,78h1v1h-1z M62,78h1v1h-1z M63,78h1v1h-1z M64,78h1v1h-1z M65,78h1v1h-1z M71,78h1v1h-1z M72,78h1v1h-1z M74,78h1v1h-1z M75,78h1v1h-1z M76,78h1v1h-1z M78,78h1v1h-1z M80,78h1v1h-1z M85,78h1v1h-1z M86,78h1v1h-1z M87,78h1v1h-1z M88,78h1v1h-1z M89,78h1v1h-1z M91,78h1v1h-1z M92,78h1v1h-1z M95,78h1v1h-1z M97,78h1v1h-1z M98,78h1v1h-1z M100,78h1v1h-1z M102,78h1v1h-1z M104,78h1v1h-1z M107,78h1v1h-1z M4,79h1v1h-1z M6,79h1v1h-1z M7,79h1v1h-1z M8,79h1v1h-1z M12,79h1v1h-1z M13,79h1v1h-1z M16,79h1v1h-1z M18,79h1v1h-1z M19,79h1v1h-1z M20,79h1v1h-1z M23,79h1v1h-1z M25,79h1v1h-1z M26,79h1v1h-1z M28,79h1v1h-1z M32,79h1v1h-1z M33,79h1v1h-1z M35,79h1v1h-1z M44,79h1v1h-1z M46,79h1v1h-1z M47,79h1v1h-1z M50,79h1v1h-1z M51,79h1v1h-1z M52,79h1v1h-1z M56,79h1v1h-1z M57,79h1v1h-1z M59,79h1v1h-1z M67,79h1v1h-1z M68,79h1v1h-1z M71,79h1v1h-1z M75,79h1v1h-1z M76,79h1v1h-1z M80,79h1v1h-1z M81,79h1v1h-1z M83,79h1v1h-1z M92,79h1v1h-1z M95,79h1v1h-1z M97,79h1v1h-1z M99,79h1v1h-1z M100,79h1v1h-1z M104,79h1v1h-1z M105,79h1v1h-1z M107,79h1v1h-1z M108,79h1v1h-1z M4,80h1v1h-1z M5,80h1v1h-1z M6,80h1v1h-1z M7,80h1v1h-1z M8,80h1v1h-1z M9,80h1v1h-1z M10,80h1v1h-1z M11,80h1v1h-1z M12,80h1v1h-1z M20,80h1v1h-1z M25,80h1v1h-1z M26,80h1v1h-1z M27,80h1v1h-1z M28,80h1v1h-1z M29,80h1v1h-1z M30,80h1v1h-1z M31,80h1v1h-1z M32,80h1v1h-1z M33,80h1v1h-1z M36,80h1v1h-1z M37,80h1v1h-1z M38,80h1v1h-1z M39,80h1v1h-1z M41,80h1v1h-1z M45,80h1v1h-1z M46,80h1v1h-1z M47,80h1v1h-1z M48,80h1v1h-1z M49,80h1v1h-1z M51,80h1v1h-1z M52,80h1v1h-1z M53,80h1v1h-1z M54,80h1v1h-1z M55,80h1v1h-1z M56,80h1v1h-1z M57,80h1v1h-1z M58,80h1v1h-1z M62,80h1v1h-1z M67,80h1v1h-1z M70,80h1v1h-1z M72,80h1v1h-1z M73,80h1v1h-1z M75,80h1v1h-1z M76,80h1v1h-1z M77,80h1v1h-1z M78,80h1v1h-1z M79,80h1v1h-1z M80,80h1v1h-1z M82,80h1v1h-1z M83,80h1v1h-1z M85,80h1v1h-1z M87,80h1v1h-1z M89,80h1v1h-1z M90,80h1v1h-1z M94,80h1v1h-1z M95,80h1v1h-1z M98,80h1v1h-1z M99,80h1v1h-1z M100,80h1v1h-1z M101,80h1v1h-1z M102,80h1v1h-1z M103,80h1v1h-1z M104,80h1v1h-1z M105,80h1v1h-1z M107,80h1v1h-1z M108,80h1v1h-1z M5,81h1v1h-1z M6,81h1v1h-1z M7,81h1v1h-1z M11,81h1v1h-1z M12,81h1v1h-1z M14,81h1v1h-1z M19,81h1v1h-1z M20,81h1v1h-1z M23,81h1v1h-1z M24,81h1v1h-1z M25,81h1v1h-1z M26,81h1v1h-1z M28,81h1v1h-1z M29,81h1v1h-1z M30,81h1v1h-1z M32,81h1v1h-1z M34,81h1v1h-1z M36,81h1v1h-1z M37,81h1v1h-1z M38,81h1v1h-1z M40,81h1v1h-1z M41,81h1v1h-1z M44,81h1v1h-1z M45,81h1v1h-1z M48,81h1v1h-1z M49,81h1v1h-1z M52,81h1v1h-1z M54,81h1v1h-1z M55,81h1v1h-1z M57,81h1v1h-1z M59,81h1v1h-1z M60,81h1v1h-1z M64,81h1v1h-1z M66,81h1v1h-1z M69,81h1v1h-1z M71,81h1v1h-1z M78,81h1v1h-1z M79,81h1v1h-1z M81,81h1v1h-1z M82,81h1v1h-1z M83,81h1v1h-1z M85,81h1v1h-1z M86,81h1v1h-1z M87,81h1v1h-1z M92,81h1v1h-1z M93,81h1v1h-1z M94,81h1v1h-1z M95,81h1v1h-1z M99,81h1v1h-1z M102,81h1v1h-1z M103,81h1v1h-1z M105,81h1v1h-1z M106,81h1v1h-1z M108,81h1v1h-1z M4,82h1v1h-1z M7,82h1v1h-1z M8,82h1v1h-1z M10,82h1v1h-1z M11,82h1v1h-1z M12,82h1v1h-1z M14,82h1v1h-1z M21,82h1v1h-1z M22,82h1v1h-1z M28,82h1v1h-1z M30,82h1v1h-1z M32,82h1v1h-1z M36,82h1v1h-1z M38,82h1v1h-1z M39,82h1v1h-1z M41,82h1v1h-1z M43,82h1v1h-1z M48,82h1v1h-1z M50,82h1v1h-1z M51,82h1v1h-1z M52,82h1v1h-1z M54,82h1v1h-1z M56,82h1v1h-1z M57,82h1v1h-1z M59,82h1v1h-1z M60,82h1v1h-1z M61,82h1v1h-1z M62,82h1v1h-1z M65,82h1v1h-1z M67,82h1v1h-1z M74,82h1v1h-1z M75,82h1v1h-1z M76,82h1v1h-1z M77,82h1v1h-1z M80,82h1v1h-1z M83,82h1v1h-1z M84,82h1v1h-1z M86,82h1v1h-1z M87,82h1v1h-1z M88,82h1v1h-1z M89,82h1v1h-1z M92,82h1v1h-1z M95,82h1v1h-1z M96,82h1v1h-1z M98,82h1v1h-1z M99,82h1v1h-1z M101,82h1v1h-1z M104,82h1v1h-1z M106,82h1v1h-1z M107,82h1v1h-1z M4,83h1v1h-1z M5,83h1v1h-1z M8,83h1v1h-1z M9,83h1v1h-1z M13,83h1v1h-1z M17,83h1v1h-1z M18,83h1v1h-1z M20,83h1v1h-1z M22,83h1v1h-1z M24,83h1v1h-1z M25,83h1v1h-1z M27,83h1v1h-1z M29,83h1v1h-1z M34,83h1v1h-1z M35,83h1v1h-1z M37,83h1v1h-1z M38,83h1v1h-1z M41,83h1v1h-1z M44,83h1v1h-1z M45,83h1v1h-1z M47,83h1v1h-1z M51,83h1v1h-1z M53,83h1v1h-1z M58,83h1v1h-1z M59,83h1v1h-1z M68,83h1v1h-1z M69,83h1v1h-1z M70,83h1v1h-1z M71,83h1v1h-1z M75,83h1v1h-1z M77,83h1v1h-1z M78,83h1v1h-1z M79,83h1v1h-1z M85,83h1v1h-1z M86,83h1v1h-1z M92,83h1v1h-1z M94,83h1v1h-1z M97,83h1v1h-1z M100,83h1v1h-1z M102,83h1v1h-1z M104,83h1v1h-1z M107,83h1v1h-1z M6,84h1v1h-1z M7,84h1v1h-1z M8,84h1v1h-1z M9,84h1v1h-1z M10,84h1v1h-1z M11,84h1v1h-1z M13,84h1v1h-1z M14,84h1v1h-1z M15,84h1v1h-1z M16,84h1v1h-1z M20,84h1v1h-1z M22,84h1v1h-1z M23,84h1v1h-1z M24,84h1v1h-1z M25,84h1v1h-1z M26,84h1v1h-1z M30,84h1v1h-1z M33,84h1v1h-1z M34,84h1v1h-1z M35,84h1v1h-1z M36,84h1v1h-1z M38,84h1v1h-1z M39,84h1v1h-1z M40,84h1v1h-1z M42,84h1v1h-1z M49,84h1v1h-1z M50,84h1v1h-1z M55,84h1v1h-1z M56,84h1v1h-1z M58,84h1v1h-1z M62,84h1v1h-1z M63,84h1v1h-1z M66,84h1v1h-1z M67,84h1v1h-1z M68,84h1v1h-1z M69,84h1v1h-1z M71,84h1v1h-1z M74,84h1v1h-1z M75,84h1v1h-1z M83,84h1v1h-1z M86,84h1v1h-1z M87,84h1v1h-1z M88,84h1v1h-1z M91,84h1v1h-1z M94,84h1v1h-1z M97,84h1v1h-1z M100,84h1v1h-1z M102,84h1v1h-1z M104,84h1v1h-1z M106,84h1v1h-1z M107,84h1v1h-1z M108,84h1v1h-1z M4,85h1v1h-1z M7,85h1v1h-1z M11,85h1v1h-1z M12,85h1v1h-1z M13,85h1v1h-1z M16,85h1v1h-1z M17,85h1v1h-1z M24,85h1v1h-1z M30,85h1v1h-1z M32,85h1v1h-1z M35,85h1v1h-1z M38,85h1v1h-1z M43,85h1v1h-1z M45,85h1v1h-1z M46,85h1v1h-1z M47,85h1v1h-1z M52,85h1v1h-1z M54,85h1v1h-1z M55,85h1v1h-1z M56,85h1v1h-1z M57,85h1v1h-1z M61,85h1v1h-1z M64,85h1v1h-1z M66,85h1v1h-1z M70,85h1v1h-1z M72,85h1v1h-1z M78,85h1v1h-1z M79,85h1v1h-1z M84,85h1v1h-1z M85,85h1v1h-1z M88,85h1v1h-1z M89,85h1v1h-1z M90,85h1v1h-1z M91,85h1v1h-1z M95,85h1v1h-1z M96,85h1v1h-1z M97,85h1v1h-1z M98,85h1v1h-1z M99,85h1v1h-1z M100,85h1v1h-1z M102,85h1v1h-1z M103,85h1v1h-1z M106,85h1v1h-1z M108,85h1v1h-1z M4,86h1v1h-1z M6,86h1v1h-1z M7,86h1v1h-1z M8,86h1v1h-1z M10,86h1v1h-1z M11,86h1v1h-1z M12,86h1v1h-1z M13,86h1v1h-1z M14,86h1v1h-1z M16,86h1v1h-1z M18,86h1v1h-1z M19,86h1v1h-1z M24,86h1v1h-1z M25,86h1v1h-1z M28,86h1v1h-1z M29,86h1v1h-1z M30,86h1v1h-1z M32,86h1v1h-1z M33,86h1v1h-1z M36,86h1v1h-1z M38,86h1v1h-1z M40,86h1v1h-1z M41,86h1v1h-1z M44,86h1v1h-1z M48,86h1v1h-1z M50,86h1v1h-1z M53,86h1v1h-1z M54,86h1v1h-1z M56,86h1v1h-1z M59,86h1v1h-1z M60,86h1v1h-1z M62,86h1v1h-1z M64,86h1v1h-1z M72,86h1v1h-1z M74,86h1v1h-1z M76,86h1v1h-1z M77,86h1v1h-1z M80,86h1v1h-1z M84,86h1v1h-1z M86,86h1v1h-1z M87,86h1v1h-1z M88,86h1v1h-1z M89,86h1v1h-1z M91,86h1v1h-1z M95,86h1v1h-1z M96,86h1v1h-1z M98,86h1v1h-1z M100,86h1v1h-1z M101,86h1v1h-1z M105,86h1v1h-1z M106,86h1v1h-1z M107,86h1v1h-1z M7,87h1v1h-1z M11,87h1v1h-1z M12,87h1v1h-1z M14,87h1v1h-1z M15,87h1v1h-1z M17,87h1v1h-1z M21,87h1v1h-1z M24,87h1v1h-1z M25,87h1v1h-1z M28,87h1v1h-1z M32,87h1v1h-1z M33,87h1v1h-1z M34,87h1v1h-1z M35,87h1v1h-1z M37,87h1v1h-1z M42,87h1v1h-1z M44,87h1v1h-1z M46,87h1v1h-1z M47,87h1v1h-1z M49,87h1v1h-1z M50,87h1v1h-1z M51,87h1v1h-1z M54,87h1v1h-1z M56,87h1v1h-1z M58,87h1v1h-1z M59,87h1v1h-1z M63,87h1v1h-1z M65,87h1v1h-1z M66,87h1v1h-1z M67,87h1v1h-1z M68,87h1v1h-1z M69,87h1v1h-1z M71,87h1v1h-1z M74,87h1v1h-1z M75,87h1v1h-1z M76,87h1v1h-1z M77,87h1v1h-1z M80,87h1v1h-1z M81,87h1v1h-1z M82,87h1v1h-1z M85,87h1v1h-1z M91,87h1v1h-1z M92,87h1v1h-1z M93,87h1v1h-1z M95,87h1v1h-1z M101,87h1v1h-1z M102,87h1v1h-1z M107,87h1v1h-1z M108,87h1v1h-1z M4,88h1v1h-1z M6,88h1v1h-1z M7,88h1v1h-1z M8,88h1v1h-1z M10,88h1v1h-1z M11,88h1v1h-1z M12,88h1v1h-1z M14,88h1v1h-1z M17,88h1v1h-1z M21,88h1v1h-1z M22,88h1v1h-1z M23,88h1v1h-1z M31,88h1v1h-1z M34,88h1v1h-1z M38,88h1v1h-1z M39,88h1v1h-1z M40,88h1v1h-1z M41,88h1v1h-1z M43,88h1v1h-1z M44,88h1v1h-1z M48,88h1v1h-1z M49,88h1v1h-1z M50,88h1v1h-1z M53,88h1v1h-1z M54,88h1v1h-1z M58,88h1v1h-1z M59,88h1v1h-1z M65,88h1v1h-1z M66,88h1v1h-1z M67,88h1v1h-1z M69,88h1v1h-1z M70,88h1v1h-1z M72,88h1v1h-1z M74,88h1v1h-1z M75,88h1v1h-1z M77,88h1v1h-1z M82,88h1v1h-1z M85,88h1v1h-1z M87,88h1v1h-1z M88,88h1v1h-1z M89,88h1v1h-1z M91,88h1v1h-1z M92,88h1v1h-1z M95,88h1v1h-1z M100,88h1v1h-1z M101,88h1v1h-1z M103,88h1v1h-1z M104,88h1v1h-1z M105,88h1v1h-1z M106,88h1v1h-1z M107,88h1v1h-1z M108,88h1v1h-1z M7,89h1v1h-1z M8,89h1v1h-1z M11,89h1v1h-1z M12,89h1v1h-1z M14,89h1v1h-1z M18,89h1v1h-1z M19,89h1v1h-1z M25,89h1v1h-1z M26,89h1v1h-1z M30,89h1v1h-1z M33,89h1v1h-1z M34,89h1v1h-1z M37,89h1v1h-1z M41,89h1v1h-1z M46,89h1v1h-1z M48,89h1v1h-1z M49,89h1v1h-1z M50,89h1v1h-1z M54,89h1v1h-1z M59,89h1v1h-1z M60,89h1v1h-1z M61,89h1v1h-1z M62,89h1v1h-1z M63,89h1v1h-1z M64,89h1v1h-1z M69,89h1v1h-1z M70,89h1v1h-1z M71,89h1v1h-1z M72,89h1v1h-1z M73,89h1v1h-1z M74,89h1v1h-1z M76,89h1v1h-1z M77,89h1v1h-1z M78,89h1v1h-1z M81,89h1v1h-1z M83,89h1v1h-1z M84,89h1v1h-1z M88,89h1v1h-1z M92,89h1v1h-1z M94,89h1v1h-1z M95,89h1v1h-1z M96,89h1v1h-1z M97,89h1v1h-1z M98,89h1v1h-1z M100,89h1v1h-1z M105,89h1v1h-1z M106,89h1v1h-1z M5,90h1v1h-1z M6,90h1v1h-1z M9,90h1v1h-1z M10,90h1v1h-1z M11,90h1v1h-1z M12,90h1v1h-1z M17,90h1v1h-1z M19,90h1v1h-1z M21,90h1v1h-1z M22,90h1v1h-1z M23,90h1v1h-1z M24,90h1v1h-1z M26,90h1v1h-1z M27,90h1v1h-1z M30,90h1v1h-1z M32,90h1v1h-1z M35,90h1v1h-1z M37,90h1v1h-1z M38,90h1v1h-1z M40,90h1v1h-1z M41,90h1v1h-1z M47,90h1v1h-1z M48,90h1v1h-1z M50,90h1v1h-1z M54,90h1v1h-1z M56,90h1v1h-1z M59,90h1v1h-1z M60,90h1v1h-1z M62,90h1v1h-1z M64,90h1v1h-1z M65,90h1v1h-1z M67,90h1v1h-1z M71,90h1v1h-1z M72,90h1v1h-1z M74,90h1v1h-1z M77,90h1v1h-1z M78,90h1v1h-1z M80,90h1v1h-1z M83,90h1v1h-1z M86,90h1v1h-1z M91,90h1v1h-1z M95,90h1v1h-1z M96,90h1v1h-1z M97,90h1v1h-1z M98,90h1v1h-1z M99,90h1v1h-1z M100,90h1v1h-1z M101,90h1v1h-1z M103,90h1v1h-1z M104,90h1v1h-1z M105,90h1v1h-1z M106,90h1v1h-1z M107,90h1v1h-1z M4,91h1v1h-1z M5,91h1v1h-1z M9,91h1v1h-1z M13,91h1v1h-1z M14,91h1v1h-1z M20,91h1v1h-1z M21,91h1v1h-1z M23,91h1v1h-1z M24,91h1v1h-1z M25,91h1v1h-1z M26,91h1v1h-1z M27,91h1v1h-1z M30,91h1v1h-1z M34,91h1v1h-1z M35,91h1v1h-1z M39,91h1v1h-1z M42,91h1v1h-1z M43,91h1v1h-1z M44,91h1v1h-1z M45,91h1v1h-1z M49,91h1v1h-1z M51,91h1v1h-1z M52,91h1v1h-1z M53,91h1v1h-1z M56,91h1v1h-1z M61,91h1v1h-1z M62,91h1v1h-1z M63,91h1v1h-1z M66,91h1v1h-1z M68,91h1v1h-1z M69,91h1v1h-1z M70,91h1v1h-1z M71,91h1v1h-1z M73,91h1v1h-1z M74,91h1v1h-1z M75,91h1v1h-1z M78,91h1v1h-1z M80,91h1v1h-1z M81,91h1v1h-1z M82,91h1v1h-1z M83,91h1v1h-1z M86,91h1v1h-1z M89,91h1v1h-1z M90,91h1v1h-1z M92,91h1v1h-1z M94,91h1v1h-1z M95,91h1v1h-1z M99,91h1v1h-1z M100,91h1v1h-1z M101,91h1v1h-1z M102,91h1v1h-1z M103,91h1v1h-1z M104,91h1v1h-1z M105,91h1v1h-1z M108,91h1v1h-1z M5,92h1v1h-1z M6,92h1v1h-1z M7,92h1v1h-1z M8,92h1v1h-1z M9,92h1v1h-1z M10,92h1v1h-1z M12,92h1v1h-1z M15,92h1v1h-1z M16,92h1v1h-1z M17,92h1v1h-1z M18,92h1v1h-1z M19,92h1v1h-1z M25,92h1v1h-1z M31,92h1v1h-1z M32,92h1v1h-1z M33,92h1v1h-1z M34,92h1v1h-1z M35,92h1v1h-1z M36,92h1v1h-1z M37,92h1v1h-1z M38,92h1v1h-1z M42,92h1v1h-1z M45,92h1v1h-1z M46,92h1v1h-1z M48,92h1v1h-1z M49,92h1v1h-1z M51,92h1v1h-1z M53,92h1v1h-1z M56,92h1v1h-1z M57,92h1v1h-1z M58,92h1v1h-1z M60,92h1v1h-1z M62,92h1v1h-1z M63,92h1v1h-1z M64,92h1v1h-1z M65,92h1v1h-1z M68,92h1v1h-1z M71,92h1v1h-1z M75,92h1v1h-1z M77,92h1v1h-1z M79,92h1v1h-1z M81,92h1v1h-1z M82,92h1v1h-1z M83,92h1v1h-1z M85,92h1v1h-1z M88,92h1v1h-1z M90,92h1v1h-1z M91,92h1v1h-1z M93,92h1v1h-1z M96,92h1v1h-1z M97,92h1v1h-1z M101,92h1v1h-1z M103,92h1v1h-1z M104,92h1v1h-1z M108,92h1v1h-1z M5,93h1v1h-1z M6,93h1v1h-1z M8,93h1v1h-1z M11,93h1v1h-1z M14,93h1v1h-1z M15,93h1v1h-1z M17,93h1v1h-1z M18,93h1v1h-1z M20,93h1v1h-1z M21,93h1v1h-1z M23,93h1v1h-1z M24,93h1v1h-1z M25,93h1v1h-1z M26,93h1v1h-1z M29,93h1v1h-1z M30,93h1v1h-1z M31,93h1v1h-1z M35,93h1v1h-1z M36,93h1v1h-1z M39,93h1v1h-1z M41,93h1v1h-1z M42,93h1v1h-1z M43,93h1v1h-1z M45,93h1v1h-1z M47,93h1v1h-1z M48,93h1v1h-1z M50,93h1v1h-1z M52,93h1v1h-1z M54,93h1v1h-1z M55,93h1v1h-1z M56,93h1v1h-1z M57,93h1v1h-1z M59,93h1v1h-1z M64,93h1v1h-1z M68,93h1v1h-1z M70,93h1v1h-1z M71,93h1v1h-1z M73,93h1v1h-1z M78,93h1v1h-1z M83,93h1v1h-1z M88,93h1v1h-1z M90,93h1v1h-1z M93,93h1v1h-1z M94,93h1v1h-1z M95,93h1v1h-1z M97,93h1v1h-1z M98,93h1v1h-1z M99,93h1v1h-1z M100,93h1v1h-1z M102,93h1v1h-1z M106,93h1v1h-1z M107,93h1v1h-1z M108,93h1v1h-1z M8,94h1v1h-1z M10,94h1v1h-1z M11,94h1v1h-1z M14,94h1v1h-1z M15,94h1v1h-1z M16,94h1v1h-1z M17,94h1v1h-1z M19,94h1v1h-1z M22,94h1v1h-1z M24,94h1v1h-1z M25,94h1v1h-1z M28,94h1v1h-1z M29,94h1v1h-1z M30,94h1v1h-1z M32,94h1v1h-1z M36,94h1v1h-1z M38,94h1v1h-1z M39,94h1v1h-1z M43,94h1v1h-1z M44,94h1v1h-1z M50,94h1v1h-1z M53,94h1v1h-1z M56,94h1v1h-1z M59,94h1v1h-1z M60,94h1v1h-1z M62,94h1v1h-1z M63,94h1v1h-1z M64,94h1v1h-1z M65,94h1v1h-1z M67,94h1v1h-1z M68,94h1v1h-1z M74,94h1v1h-1z M77,94h1v1h-1z M80,94h1v1h-1z M84,94h1v1h-1z M86,94h1v1h-1z M89,94h1v1h-1z M92,94h1v1h-1z M96,94h1v1h-1z M98,94h1v1h-1z M99,94h1v1h-1z M100,94h1v1h-1z M101,94h1v1h-1z M104,94h1v1h-1z M105,94h1v1h-1z M107,94h1v1h-1z M7,95h1v1h-1z M9,95h1v1h-1z M15,95h1v1h-1z M17,95h1v1h-1z M19,95h1v1h-1z M22,95h1v1h-1z M23,95h1v1h-1z M24,95h1v1h-1z M29,95h1v1h-1z M31,95h1v1h-1z M32,95h1v1h-1z M33,95h1v1h-1z M34,95h1v1h-1z M35,95h1v1h-1z M37,95h1v1h-1z M38,95h1v1h-1z M41,95h1v1h-1z M42,95h1v1h-1z M44,95h1v1h-1z M47,95h1v1h-1z M49,95h1v1h-1z M51,95h1v1h-1z M53,95h1v1h-1z M54,95h1v1h-1z M57,95h1v1h-1z M58,95h1v1h-1z M61,95h1v1h-1z M62,95h1v1h-1z M66,95h1v1h-1z M68,95h1v1h-1z M69,95h1v1h-1z M71,95h1v1h-1z M73,95h1v1h-1z M74,95h1v1h-1z M75,95h1v1h-1z M76,95h1v1h-1z M77,95h1v1h-1z M79,95h1v1h-1z M80,95h1v1h-1z M83,95h1v1h-1z M85,95h1v1h-1z M89,95h1v1h-1z M90,95h1v1h-1z M92,95h1v1h-1z M93,95h1v1h-1z M95,95h1v1h-1z M97,95h1v1h-1z M98,95h1v1h-1z M100,95h1v1h-1z M101,95h1v1h-1z M105,95h1v1h-1z M4,96h1v1h-1z M5,96h1v1h-1z M6,96h1v1h-1z M8,96h1v1h-1z M9,96h1v1h-1z M10,96h1v1h-1z M11,96h1v1h-1z M12,96h1v1h-1z M13,96h1v1h-1z M14,96h1v1h-1z M15,96h1v1h-1z M17,96h1v1h-1z M18,96h1v1h-1z M23,96h1v1h-1z M25,96h1v1h-1z M29,96h1v1h-1z M34,96h1v1h-1z M35,96h1v1h-1z M36,96h1v1h-1z M37,96h1v1h-1z M39,96h1v1h-1z M40,96h1v1h-1z M41,96h1v1h-1z M42,96h1v1h-1z M43,96h1v1h-1z M46,96h1v1h-1z M47,96h1v1h-1z M55,96h1v1h-1z M57,96h1v1h-1z M58,96h1v1h-1z M61,96h1v1h-1z M63,96h1v1h-1z M64,96h1v1h-1z M65,96h1v1h-1z M66,96h1v1h-1z M70,96h1v1h-1z M71,96h1v1h-1z M72,96h1v1h-1z M74,96h1v1h-1z M75,96h1v1h-1z M77,96h1v1h-1z M82,96h1v1h-1z M85,96h1v1h-1z M86,96h1v1h-1z M87,96h1v1h-1z M88,96h1v1h-1z M89,96h1v1h-1z M91,96h1v1h-1z M92,96h1v1h-1z M94,96h1v1h-1z M95,96h1v1h-1z M96,96h1v1h-1z M97,96h1v1h-1z M101,96h1v1h-1z M104,96h1v1h-1z M105,96h1v1h-1z M107,96h1v1h-1z M108,96h1v1h-1z M4,97h1v1h-1z M5,97h1v1h-1z M6,97h1v1h-1z M7,97h1v1h-1z M8,97h1v1h-1z M9,97h1v1h-1z M11,97h1v1h-1z M12,97h1v1h-1z M13,97h1v1h-1z M17,97h1v1h-1z M19,97h1v1h-1z M21,97h1v1h-1z M22,97h1v1h-1z M25,97h1v1h-1z M26,97h1v1h-1z M30,97h1v1h-1z M31,97h1v1h-1z M32,97h1v1h-1z M34,97h1v1h-1z M36,97h1v1h-1z M37,97h1v1h-1z M38,97h1v1h-1z M39,97h1v1h-1z M42,97h1v1h-1z M44,97h1v1h-1z M45,97h1v1h-1z M49,97h1v1h-1z M50,97h1v1h-1z M54,97h1v1h-1z M55,97h1v1h-1z M56,97h1v1h-1z M57,97h1v1h-1z M58,97h1v1h-1z M59,97h1v1h-1z M60,97h1v1h-1z M63,97h1v1h-1z M64,97h1v1h-1z M66,97h1v1h-1z M68,97h1v1h-1z M70,97h1v1h-1z M71,97h1v1h-1z M72,97h1v1h-1z M73,97h1v1h-1z M74,97h1v1h-1z M78,97h1v1h-1z M81,97h1v1h-1z M82,97h1v1h-1z M84,97h1v1h-1z M90,97h1v1h-1z M92,97h1v1h-1z M93,97h1v1h-1z M94,97h1v1h-1z M96,97h1v1h-1z M98,97h1v1h-1z M100,97h1v1h-1z M101,97h1v1h-1z M102,97h1v1h-1z M103,97h1v1h-1z M106,97h1v1h-1z M108,97h1v1h-1z M4,98h1v1h-1z M5,98h1v1h-1z M6,98h1v1h-1z M10,98h1v1h-1z M11,98h1v1h-1z M15,98h1v1h-1z M16,98h1v1h-1z M21,98h1v1h-1z M23,98h1v1h-1z M26,98h1v1h-1z M27,98h1v1h-1z M31,98h1v1h-1z M32,98h1v1h-1z M35,98h1v1h-1z M38,98h1v1h-1z M40,98h1v1h-1z M43,98h1v1h-1z M47,98h1v1h-1z M48,98h1v1h-1z M50,98h1v1h-1z M53,98h1v1h-1z M56,98h1v1h-1z M59,98h1v1h-1z M60,98h1v1h-1z M62,98h1v1h-1z M64,98h1v1h-1z M65,98h1v1h-1z M72,98h1v1h-1z M74,98h1v1h-1z M75,98h1v1h-1z M76,98h1v1h-1z M78,98h1v1h-1z M80,98h1v1h-1z M83,98h1v1h-1z M84,98h1v1h-1z M86,98h1v1h-1z M88,98h1v1h-1z M89,98h1v1h-1z M95,98h1v1h-1z M96,98h1v1h-1z M98,98h1v1h-1z M100,98h1v1h-1z M101,98h1v1h-1z M103,98h1v1h-1z M104,98h1v1h-1z M105,98h1v1h-1z M106,98h1v1h-1z M107,98h1v1h-1z M6,99h1v1h-1z M8,99h1v1h-1z M9,99h1v1h-1z M13,99h1v1h-1z M15,99h1v1h-1z M17,99h1v1h-1z M20,99h1v1h-1z M21,99h1v1h-1z M22,99h1v1h-1z M23,99h1v1h-1z M25,99h1v1h-1z M28,99h1v1h-1z M31,99h1v1h-1z M32,99h1v1h-1z M33,99h1v1h-1z M35,99h1v1h-1z M38,99h1v1h-1z M41,99h1v1h-1z M42,99h1v1h-1z M44,99h1v1h-1z M49,99h1v1h-1z M50,99h1v1h-1z M51,99h1v1h-1z M53,99h1v1h-1z M56,99h1v1h-1z M57,99h1v1h-1z M58,99h1v1h-1z M61,99h1v1h-1z M67,99h1v1h-1z M68,99h1v1h-1z M69,99h1v1h-1z M71,99h1v1h-1z M75,99h1v1h-1z M76,99h1v1h-1z M80,99h1v1h-1z M81,99h1v1h-1z M82,99h1v1h-1z M83,99h1v1h-1z M85,99h1v1h-1z M87,99h1v1h-1z M89,99h1v1h-1z M90,99h1v1h-1z M91,99h1v1h-1z M92,99h1v1h-1z M94,99h1v1h-1z M95,99h1v1h-1z M98,99h1v1h-1z M99,99h1v1h-1z M100,99h1v1h-1z M101,99h1v1h-1z M103,99h1v1h-1z M7,100h1v1h-1z M8,100h1v1h-1z M10,100h1v1h-1z M12,100h1v1h-1z M13,100h1v1h-1z M14,100h1v1h-1z M16,100h1v1h-1z M17,100h1v1h-1z M18,100h1v1h-1z M22,100h1v1h-1z M24,100h1v1h-1z M25,100h1v1h-1z M26,100h1v1h-1z M27,100h1v1h-1z M28,100h1v1h-1z M29,100h1v1h-1z M30,100h1v1h-1z M31,100h1v1h-1z M32,100h1v1h-1z M33,100h1v1h-1z M34,100h1v1h-1z M35,100h1v1h-1z M38,100h1v1h-1z M42,100h1v1h-1z M43,100h1v1h-1z M46,100h1v1h-1z M47,100h1v1h-1z M48,100h1v1h-1z M49,100h1v1h-1z M51,100h1v1h-1z M52,100h1v1h-1z M53,100h1v1h-1z M54,100h1v1h-1z M55,100h1v1h-1z M56,100h1v1h-1z M58,100h1v1h-1z M59,100h1v1h-1z M60,100h1v1h-1z M64,100h1v1h-1z M66,100h1v1h-1z M70,100h1v1h-1z M75,100h1v1h-1z M76,100h1v1h-1z M77,100h1v1h-1z M78,100h1v1h-1z M79,100h1v1h-1z M80,100h1v1h-1z M81,100h1v1h-1z M82,100h1v1h-1z M85,100h1v1h-1z M87,100h1v1h-1z M88,100h1v1h-1z M89,100h1v1h-1z M90,100h1v1h-1z M92,100h1v1h-1z M94,100h1v1h-1z M96,100h1v1h-1z M100,100h1v1h-1z M101,100h1v1h-1z M102,100h1v1h-1z M103,100h1v1h-1z M104,100h1v1h-1z M108,100h1v1h-1z M12,101h1v1h-1z M13,101h1v1h-1z M14,101h1v1h-1z M17,101h1v1h-1z M18,101h1v1h-1z M19,101h1v1h-1z M21,101h1v1h-1z M23,101h1v1h-1z M24,101h1v1h-1z M26,101h1v1h-1z M28,101h1v1h-1z M32,101h1v1h-1z M33,101h1v1h-1z M35,101h1v1h-1z M36,101h1v1h-1z M37,101h1v1h-1z M45,101h1v1h-1z M47,101h1v1h-1z M49,101h1v1h-1z M51,101h1v1h-1z M52,101h1v1h-1z M56,101h1v1h-1z M58,101h1v1h-1z M60,101h1v1h-1z M61,101h1v1h-1z M63,101h1v1h-1z M64,101h1v1h-1z M65,101h1v1h-1z M67,101h1v1h-1z M70,101h1v1h-1z M71,101h1v1h-1z M72,101h1v1h-1z M73,101h1v1h-1z M75,101h1v1h-1z M76,101h1v1h-1z M80,101h1v1h-1z M82,101h1v1h-1z M85,101h1v1h-1z M88,101h1v1h-1z M90,101h1v1h-1z M91,101h1v1h-1z M93,101h1v1h-1z M95,101h1v1h-1z M96,101h1v1h-1z M99,101h1v1h-1z M100,101h1v1h-1z M104,101h1v1h-1z M105,101h1v1h-1z M106,101h1v1h-1z M107,101h1v1h-1z M4,102h1v1h-1z M5,102h1v1h-1z M6,102h1v1h-1z M7,102h1v1h-1z M8,102h1v1h-1z M9,102h1v1h-1z M10,102h1v1h-1z M13,102h1v1h-1z M16,102h1v1h-1z M20,102h1v1h-1z M22,102h1v1h-1z M26,102h1v1h-1z M27,102h1v1h-1z M28,102h1v1h-1z M30,102h1v1h-1z M32,102h1v1h-1z M35,102h1v1h-1z M38,102h1v1h-1z M39,102h1v1h-1z M41,102h1v1h-1z M43,102h1v1h-1z M50,102h1v1h-1z M51,102h1v1h-1z M52,102h1v1h-1z M54,102h1v1h-1z M56,102h1v1h-1z M59,102h1v1h-1z M60,102h1v1h-1z M62,102h1v1h-1z M63,102h1v1h-1z M64,102h1v1h-1z M65,102h1v1h-1z M67,102h1v1h-1z M71,102h1v1h-1z M72,102h1v1h-1z M74,102h1v1h-1z M75,102h1v1h-1z M76,102h1v1h-1z M78,102h1v1h-1z M80,102h1v1h-1z M84,102h1v1h-1z M86,102h1v1h-1z M88,102h1v1h-1z M89,102h1v1h-1z M92,102h1v1h-1z M98,102h1v1h-1z M99,102h1v1h-1z M100,102h1v1h-1z M102,102h1v1h-1z M104,102h1v1h-1z M107,102h1v1h-1z M4,103h1v1h-1z M10,103h1v1h-1z M12,103h1v1h-1z M15,103h1v1h-1z M17,103h1v1h-1z M18,103h1v1h-1z M19,103h1v1h-1z M20,103h1v1h-1z M24,103h1v1h-1z M25,103h1v1h-1z M28,103h1v1h-1z M32,103h1v1h-1z M33,103h1v1h-1z M34,103h1v1h-1z M35,103h1v1h-1z M37,103h1v1h-1z M38,103h1v1h-1z M41,103h1v1h-1z M42,103h1v1h-1z M43,103h1v1h-1z M44,103h1v1h-1z M45,103h1v1h-1z M46,103h1v1h-1z M47,103h1v1h-1z M50,103h1v1h-1z M52,103h1v1h-1z M56,103h1v1h-1z M57,103h1v1h-1z M59,103h1v1h-1z M61,103h1v1h-1z M65,103h1v1h-1z M66,103h1v1h-1z M68,103h1v1h-1z M70,103h1v1h-1z M71,103h1v1h-1z M76,103h1v1h-1z M80,103h1v1h-1z M83,103h1v1h-1z M86,103h1v1h-1z M90,103h1v1h-1z M92,103h1v1h-1z M94,103h1v1h-1z M95,103h1v1h-1z M98,103h1v1h-1z M99,103h1v1h-1z M100,103h1v1h-1z M104,103h1v1h-1z M108,103h1v1h-1z M4,104h1v1h-1z M6,104h1v1h-1z M7,104h1v1h-1z M8,104h1v1h-1z M10,104h1v1h-1z M12,104h1v1h-1z M13,104h1v1h-1z M15,104h1v1h-1z M16,104h1v1h-1z M17,104h1v1h-1z M18,104h1v1h-1z M22,104h1v1h-1z M24,104h1v1h-1z M25,104h1v1h-1z M27,104h1v1h-1z M28,104h1v1h-1z M29,104h1v1h-1z M30,104h1v1h-1z M31,104h1v1h-1z M32,104h1v1h-1z M33,104h1v1h-1z M35,104h1v1h-1z M37,104h1v1h-1z M39,104h1v1h-1z M40,104h1v1h-1z M44,104h1v1h-1z M48,104h1v1h-1z M51,104h1v1h-1z M52,104h1v1h-1z M53,104h1v1h-1z M54,104h1v1h-1z M55,104h1v1h-1z M56,104h1v1h-1z M60,104h1v1h-1z M61,104h1v1h-1z M64,104h1v1h-1z M65,104h1v1h-1z M67,104h1v1h-1z M68,104h1v1h-1z M70,104h1v1h-1z M71,104h1v1h-1z M72,104h1v1h-1z M73,104h1v1h-1z M75,104h1v1h-1z M76,104h1v1h-1z M77,104h1v1h-1z M78,104h1v1h-1z M79,104h1v1h-1z M80,104h1v1h-1z M82,104h1v1h-1z M86,104h1v1h-1z M90,104h1v1h-1z M91,104h1v1h-1z M92,104h1v1h-1z M93,104h1v1h-1z M94,104h1v1h-1z M99,104h1v1h-1z M100,104h1v1h-1z M101,104h1v1h-1z M102,104h1v1h-1z M103,104h1v1h-1z M104,104h1v1h-1z M107,104h1v1h-1z M4,105h1v1h-1z M6,105h1v1h-1z M7,105h1v1h-1z M8,105h1v1h-1z M10,105h1v1h-1z M13,105h1v1h-1z M14,105h1v1h-1z M15,105h1v1h-1z M17,105h1v1h-1z M19,105h1v1h-1z M21,105h1v1h-1z M22,105h1v1h-1z M25,105h1v1h-1z M26,105h1v1h-1z M27,105h1v1h-1z M28,105h1v1h-1z M30,105h1v1h-1z M31,105h1v1h-1z M35,105h1v1h-1z M36,105h1v1h-1z M38,105h1v1h-1z M39,105h1v1h-1z M41,105h1v1h-1z M42,105h1v1h-1z M45,105h1v1h-1z M46,105h1v1h-1z M47,105h1v1h-1z M48,105h1v1h-1z M50,105h1v1h-1z M52,105h1v1h-1z M53,105h1v1h-1z M58,105h1v1h-1z M59,105h1v1h-1z M63,105h1v1h-1z M65,105h1v1h-1z M69,105h1v1h-1z M71,105h1v1h-1z M72,105h1v1h-1z M73,105h1v1h-1z M75,105h1v1h-1z M78,105h1v1h-1z M80,105h1v1h-1z M82,105h1v1h-1z M84,105h1v1h-1z M86,105h1v1h-1z M87,105h1v1h-1z M88,105h1v1h-1z M89,105h1v1h-1z M97,105h1v1h-1z M98,105h1v1h-1z M101,105h1v1h-1z M103,105h1v1h-1z M104,105h1v1h-1z M107,105h1v1h-1z M108,105h1v1h-1z M4,106h1v1h-1z M6,106h1v1h-1z M7,106h1v1h-1z M8,106h1v1h-1z M10,106h1v1h-1z M13,106h1v1h-1z M14,106h1v1h-1z M15,106h1v1h-1z M16,106h1v1h-1z M18,106h1v1h-1z M20,106h1v1h-1z M22,106h1v1h-1z M24,106h1v1h-1z M25,106h1v1h-1z M26,106h1v1h-1z M29,106h1v1h-1z M31,106h1v1h-1z M32,106h1v1h-1z M33,106h1v1h-1z M35,106h1v1h-1z M38,106h1v1h-1z M39,106h1v1h-1z M40,106h1v1h-1z M41,106h1v1h-1z M43,106h1v1h-1z M48,106h1v1h-1z M50,106h1v1h-1z M52,106h1v1h-1z M53,106h1v1h-1z M55,106h1v1h-1z M56,106h1v1h-1z M57,106h1v1h-1z M60,106h1v1h-1z M62,106h1v1h-1z M63,106h1v1h-1z M65,106h1v1h-1z M67,106h1v1h-1z M71,106h1v1h-1z M73,106h1v1h-1z M74,106h1v1h-1z M79,106h1v1h-1z M84,106h1v1h-1z M86,106h1v1h-1z M87,106h1v1h-1z M89,106h1v1h-1z M93,106h1v1h-1z M95,106h1v1h-1z M96,106h1v1h-1z M97,106h1v1h-1z M98,106h1v1h-1z M101,106h1v1h-1z M104,106h1v1h-1z M4,107h1v1h-1z M10,107h1v1h-1z M12,107h1v1h-1z M17,107h1v1h-1z M18,107h1v1h-1z M20,107h1v1h-1z M23,107h1v1h-1z M24,107h1v1h-1z M25,107h1v1h-1z M30,107h1v1h-1z M32,107h1v1h-1z M34,107h1v1h-1z M35,107h1v1h-1z M37,107h1v1h-1z M43,107h1v1h-1z M44,107h1v1h-1z M45,107h1v1h-1z M46,107h1v1h-1z M47,107h1v1h-1z M49,107h1v1h-1z M51,107h1v1h-1z M56,107h1v1h-1z M58,107h1v1h-1z M59,107h1v1h-1z M61,107h1v1h-1z M62,107h1v1h-1z M66,107h1v1h-1z M68,107h1v1h-1z M69,107h1v1h-1z M71,107h1v1h-1z M77,107h1v1h-1z M78,107h1v1h-1z M80,107h1v1h-1z M81,107h1v1h-1z M83,107h1v1h-1z M89,107h1v1h-1z M90,107h1v1h-1z M92,107h1v1h-1z M94,107h1v1h-1z M95,107h1v1h-1z M99,107h1v1h-1z M100,107h1v1h-1z M103,107h1v1h-1z M104,107h1v1h-1z M4,108h1v1h-1z M5,108h1v1h-1z M6,108h1v1h-1z M7,108h1v1h-1z M8,108h1v1h-1z M9,108h1v1h-1z M10,108h1v1h-1z M12,108h1v1h-1z M15,108h1v1h-1z M16,108h1v1h-1z M18,108h1v1h-1z M19,108h1v1h-1z M22,108h1v1h-1z M25,108h1v1h-1z M26,108h1v1h-1z M30,108h1v1h-1z M32,108h1v1h-1z M34,108h1v1h-1z M37,108h1v1h-1z M38,108h1v1h-1z M41,108h1v1h-1z M43,108h1v1h-1z M44,108h1v1h-1z M47,108h1v1h-1z M48,108h1v1h-1z M50,108h1v1h-1z M51,108h1v1h-1z M55,108h1v1h-1z M56,108h1v1h-1z M60,108h1v1h-1z M61,108h1v1h-1z M64,108h1v1h-1z M65,108h1v1h-1z M68,108h1v1h-1z M69,108h1v1h-1z M71,108h1v1h-1z M72,108h1v1h-1z M73,108h1v1h-1z M76,108h1v1h-1z M77,108h1v1h-1z M79,108h1v1h-1z M81,108h1v1h-1z M82,108h1v1h-1z M83,108h1v1h-1z M85,108h1v1h-1z M86,108h1v1h-1z M87,108h1v1h-1z M90,108h1v1h-1z M91,108h1v1h-1z M94,108h1v1h-1z M96,108h1v1h-1z M97,108h1v1h-1z M104,108h1v1h-1z M108,108h1v1h-1z" fill="#000000"/>
</svg>
