<?xml version="1.0" encoding="UTF-8"?>
<!DOCTYPE svg PUBLIC "-//W3C//DTD SVG 1.1//EN" "http://www.w3.org/Graphics/SVG/1.1/DTD/svg11.dtd">
<svg xmlns="http://www.w3.org/2000/svg" version="1.1" viewBox="0 0 113 113" stroke="none">
	<rect width="100%" height="100%" fill="#FFFFFF"/>
	<path d="M4,4h1v1h-1z M5,4h1v1h-1z M6,4h1v1h-1z M7,4h1v1h-1z M8,4h1v1h-1z M9,4h1v1h-1z M10,4h1v1h-1z M12,4h1v1h-1z M16,4h1v1h-1z M18,4h1v1h-1z M19,4h1v1h-1z M22,4h1v1h-1z M23,4h1v1h-1z M24,4h1v1h-1z M27,4h1v1h-1z M29,4h1v1h-1z M30,4h1v1h-1z M31,4h1v1h-1z M34,4h1v1h-1z M37,4h1v1h-1z M38,4h1v1h-1z M43,4h1v1h-1z M45,4h1v1h-1z M48,4h1v1h-1z M50,4h1v1h-1z M52,4h1v1h-1z M56,4h1v1h-1z M58,4h1v1h-1z M59,4h1v1h-1z M64,4h1v1h-1z M65,4h1v1h-1z M68,4h1v1h-1z M70,4h1v1h-1z M73,4h1v1h-1z M74,4h1v1h-1z M76,4h1v1h-1z M77,4h1v1h-1z M78,4h1v1h-1z M81,4h1v1h-1z M83,4h1v1h-1z M84,4h1v1h-1z M86,4h1v1h-1z M87,4h1v1h-1z M89,4h1v1h-1z M90,4h1v1h-1z M92,4h1v1h-1z M93,4h1v1h-1z M94,4h1v1h-1z M96,4h1v1h-1z M97,4h1v1h-1z M98,4h1v1h-1z M102,4h1v1h-1z M103,4h1v1h-1z M104,4h1v1h-1z M105,4h1v1h-1z M106,4h1v1h-1z M107,4h1v1h-1z M108,4h1v1h-1z M4,5h1v1h-1z M10,5h1v1h-1z M12,5h1v1h-1z M14,5h1v1h-1z M15,5h1v1h-1z M16,5h1v1h-1z M18,5h1v1h-1z M19,5h1v1h-1z M28,5h1v1h-1z M29,5h1v1h-1z M30,5h1v1h-1z M34,5h1v1h-1z M35,5h1v1h-1z M37,5h1v1h-1z M42,5h1v1h-1z M43,5h1v1h-1z M45,5h1v1h-1z M46,5h1v1h-1z M49,5h1v1h-1z M51,5h1v1h-1z M54,5h1v1h-1z M55,5h1v1h-1z M57,5h1v1h-1z M58,5h1v1h-1z M63,5h1v1h-1z M64,5h1v1h-1z M66,5h1v1h-1z M68,5h1v1h-1z M69,5h1v1h-1z M70,5h1v1h-1z M71,5h1v1h-1z M73,5h1v1h-1z M76,5h1v1h-1z M78,5h1v1h-1z M80,5h1v1h-1z M82,5h1v1h-1z M83,5h1v1h-1z M85,5h1v1h-1z M90,5h1v1h-1z M91,5h1v1h-1z M92,5h1v1h-1z M93,5h1v1h-1z M94,5h1v1h-1z M96,5h1v1h-1z M98,5h1v1h-1z M102,5h1v1h-1z M108,5h1v1h-1z M4,6h1v1h-1z M6,6h1v1h-1z M7,6h1v1h-1z M8,6h1v1h-1z M10,6h1v1h-1z M12,6h1v1h-1z M14,6h1v1h-1z M16,6h1v1h-1z M18,6h1v1h-1z M20,6h1v1h-1z M22,6h1v1h-1z M25,6h1v1h-1z M26,6h1v1h-1z M29,6h1v1h-1z M30,6h1v1h-1z M32,6h1v1h-1z M34,6h1v1h-1z M35,6h1v1h-1z M41,6h1v1h-1z M44,6h1v1h-1z M45,6h1v1h-1z M46,6h1v1h-1z M47,6h1v1h-1z M49,6h1v1h-1z M53,6h1v1h-1z M54,6h1v1h-1z M56,6h1v1h-1z M58,6h1v1h-1z M65,6h1v1h-1z M66,6h1v1h-1z M68,6h1v1h-1z M70,6h1v1h-1z M71,6h1v1h-1z M74,6h1v1h-1z M77,6h1v1h-1z M80,6h1v1h-1z M82,6h1v1h-1z M86,6h1v1h-1z M89,6h1v1h-1z M90,6h1v1h-1z M91,6h1v1h-1z M92,6h1v1h-1z M93,6h1v1h-1z M94,6h1v1h-1z M95,6h1v1h-1z M98,6h1v1h-1z M99,6h1v1h-1z M102,6h1v1h-1z M104,6h1v1h-1z M105,6h1v1h-1z M106,6h1v1h-1z M108,6h1v1h-1z M4,7h1v1h-1z M6,7h1v1h-1z M7,7h1v1h-1z M8,7h1v1h-1z M10,7h1v1h-1z M12,7h1v1h-1z M14,7h1v1h-1z M16,7h1v1h-1z M18,7h1v1h-1z M20,7h1v1h-1z M22,7h1v1h-1z M25,7h1v1h-1z M26,7h1v1h-1z M27,7h1v1h-1z M31,7h1v1h-1z M32,7h1v1h-1z M33,7h1v1h-1z M34,7h1v1h-1z M35,7h1v1h-1z M36,7h1v1h-1z M38,7h1v1h-1z M40,7h1v1h-1z M42,7h1v1h-1z M45,7h1v1h-1z M46,7h1v1h-1z M48,7h1v1h-1z M49,7h1v1h-1z M51,7h1v1h-1z M52,7h1v1h-1z M55,7h1v1h-1z M56,7h1v1h-1z M58,7h1v1h-1z M59,7h1v1h-1z M61,7h1v1h-1z M62,7h1v1h-1z M63,7h1v1h-1z M64,7h1v1h-1z M67,7h1v1h-1z M70,7h1v1h-1z M71,7h1v1h-1z M73,7h1v1h-1z M75,7h1v1h-1z M79,7h1v1h-1z M82,7h1v1h-1z M87,7h1v1h-1z M93,7h1v1h-1z M96,7h1v1h-1z M97,7h1v1h-1z M100,7h1v1h-1z M102,7h1v1h-1z M104,7h1v1h-1z M105,7h1v1h-1z M106,7h1v1h-1z M108,7h1v1h-1z M4,8h1v1h-1z M6,8h1v1h-1z M7,8h1v1h-1z M8,8h1v1h-1z M10,8h1v1h-1z M14,8h1v1h-1z M20,8h1v1h-1z M21,8h1v1h-1z M25,8h1v1h-1z M27,8h1v1h-1z M28,8h1v1h-1z M29,8h1v1h-1z M30,8h1v1h-1z M31,8h1v1h-1z M32,8h1v1h-1z M36,8h1v1h-1z M41,8h1v1h-1z M42,8h1v1h-1z M44,8h1v1h-1z M45,8h1v1h-1z M46,8h1v1h-1z M49,8h1v1h-1z M50,8h1v1h-1z M51,8h1v1h-1z M52,8h1v1h-1z M53,8h1v1h-1z M54,8h1v1h-1z M55,8h1v1h-1z M56,8h1v1h-1z M57,8h1v1h-1z M58,8h1v1h-1z M59,8h1v1h-1z M61,8h1v1h-1z M62,8h1v1h-1z M64,8h1v1h-1z M65,8h1v1h-1z M66,8h1v1h-1z M68,8h1v1h-1z M69,8h1v1h-1z M71,8h1v1h-1z M72,8h1v1h-1z M74,8h1v1h-1z M76,8h1v1h-1z M77,8h1v1h-1z M78,8h1v1h-1z M79,8h1v1h-1z M80,8h1v1h-1z M81,8h1v1h-1z M82,8h1v1h-1z M83,8h1v1h-1z M85,8h1v1h-1z M91,8h1v1h-1z M96,8h1v1h-1z M99,8h1v1h-1z M100,8h1v1h-1z M102,8h1v1h-1z M104,8h1v1h-1z M105,8h1v1h-1z M106,8h1v1h-1z M108,8h1v1h-1z M4,9h1v1h-1z M10,9h1v1h-1z M12,9h1v1h-1z M16,9h1v1h-1z M18,9h1v1h-1z M19,9h1v1h-1z M22,9h1v1h-1z M25,9h1v1h-1z M27,9h1v1h-1z M28,9h1v1h-1z M32,9h1v1h-1z M33,9h1v1h-1z M34,9h1v1h-1z M36,9h1v1h-1z M37,9h1v1h-1z M39,9h1v1h-1z M42,9h1v1h-1z M44,9h1v1h-1z M45,9h1v1h-1z M46,9h1v1h-1z M47,9h1v1h-1z M48,9h1v1h-1z M49,9h1v1h-1z M51,9h1v1h-1z M52,9h1v1h-1z M56,9h1v1h-1z M57,9h1v1h-1z M58,9h1v1h-1z M59,9h1v1h-1z M61,9h1v1h-1z M63,9h1v1h-1z M64,9h1v1h-1z M65,9h1v1h-1z M66,9h1v1h-1z M69,9h1v1h-1z M70,9h1v1h-1z M73,9h1v1h-1z M75,9h1v1h-1z M76,9h1v1h-1z M80,9h1v1h-1z M81,9h1v1h-1z M82,9h1v1h-1z M83,9h1v1h-1z M85,9h1v1h-1z M87,9h1v1h-1z M88,9h1v1h-1z M90,9h1v1h-1z M93,9h1v1h-1z M94,9h1v1h-1z M95,9h1v1h-1z M97,9h1v1h-1z M99,9h1v1h-1z M102,9h1v1h-1z M108,9h1v1h-1z M4,10h1v1h-1z M5,10h1v1h-1z M6,10h1v1h-1z M7,10h1v1h-1z M8,10h1v1h-1z M9,10h1v1h-1z M10,10h1v1h-1z M12,10h1v1h-1z M14,10h1v1h-1z M16,10h1v1h-1z M18,10h1v1h-1z M20,10h1v1h-1z M22,10h1v1h-1z M24,10h1v1h-1z M26,10h1v1h-1z M28,10h1v1h-1z M30,10h1v1h-1z M32,10h1v1h-1z M34,10h1v1h-1z M36,10h1v1h-1z M38,10h1v1h-1z M40,10h1v1h-1z M42,10h1v1h-1z M44,10h1v1h-1z M46,10h1v1h-1z M48,10h1v1h-1z M50,10h1v1h-1z M52,10h1v1h-1z M54,10h1v1h-1z M56,10h1v1h-1z M58,10h1v1h-1z M60,10h1v1h-1z M62,10h1v1h-1z M64,10h1v1h-1z M66,10h1v1h-1z M68,10h1v1h-1z M70,10h1v1h-1z M72,10h1v1h-1z M74,10h1v1h-1z M76,10h1v1h-1z M78,10h1v1h-1z M80,10h1v1h-1z M82,10h1v1h-1z M84,10h1v1h-1z M86,10h1v1h-1z M88,10h1v1h-1z M90,10h1v1h-1z M92,10h1v1h-1z M94,10h1v1h-1z M96,10h1v1h-1z M98,10h1v1h-1z M100,10h1v1h-1z M102,10h1v1h-1z M103,10h1v1h-1z M104,10h1v1h-1z M105,10h1v1h-1z M106,10h1v1h-1z M107,10h1v1h-1z M108,10h1v1h-1z M13,11h1v1h-1z M16,11h1v1h-1z M18,11h1v1h-1z M19,11h1v1h-1z M22,11h1v1h-1z M23,11h1v1h-1z M25,11h1v1h-1z M27,11h1v1h-1z M28,11h1v1h-1z M32,11h1v1h-1z M35,11h1v1h-1z M37,11h1v1h-1z M38,11h1v1h-1z M39,11h1v1h-1z M41,11h1v1h-1z M44,11h1v1h-1z M45,11h1v1h-1z M46,11h1v1h-1z M47,11h1v1h-1z M49,11h1v1h-1z M50,11h1v1h-1z M51,11h1v1h-1z M52,11h1v1h-1z M56,11h1v1h-1z M58,11h1v1h-1z M59,11h1v1h-1z M61,11h1v1h-1z M62,11h1v1h-1z M65,11h1v1h-1z M66,11h1v1h-1z M68,11h1v1h-1z M69,11h1v1h-1z M70,11h1v1h-1z M71,11h1v1h-1z M74,11h1v1h-1z M75,11h1v1h-1z M76,11h1v1h-1z M80,11h1v1h-1z M81,11h1v1h-1z M83,11h1v1h-1z M85,11h1v1h-1z M86,11h1v1h-1z M90,11h1v1h-1z M92,11h1v1h-1z M95,11h1v1h-1z M99,11h1v1h-1z M100,11h1v1h-1z M4,12h1v1h-1z M5,12h1v1h-1z M8,12h1v1h-1z M9,12h1v1h-1z M10,12h1v1h-1z M13,12h1v1h-1z M15,12h1v1h-1z M17,12h1v1h-1z M20,12h1v1h-1z M21,12h1v1h-1z M22,12h1v1h-1z M24,12h1v1h-1z M26,12h1v1h-1z M28,12h1v1h-1z M29,12h1v1h-1z M30,12h1v1h-1z M31,12h1v1h-1z M32,12h1v1h-1z M36,12h1v1h-1z M39,12h1v1h-1z M40,12h1v1h-1z M44,12h1v1h-1z M45,12h1v1h-1z M46,12h1v1h-1z M47,12h1v1h-1z M50,12h1v1h-1z M52,12h1v1h-1z M53,12h1v1h-1z M54,12h1v1h-1z M55,12h1v1h-1z M56,12h1v1h-1z M57,12h1v1h-1z M58,12h1v1h-1z M61,12h1v1h-1z M62,12h1v1h-1z M63,12h1v1h-1z M64,12h1v1h-1z M65,12h1v1h-1z M68,12h1v1h-1z M74,12h1v1h-1z M75,12h1v1h-1z M76,12h1v1h-1z M77,12h1v1h-1z M78,12h1v1h-1z M79,12h1v1h-1z M80,12h1v1h-1z M84,12h1v1h-1z M86,12h1v1h-1z M88,12h1v1h-1z M91,12h1v1h-1z M92,12h1v1h-1z M93,12h1v1h-1z M94,12h1v1h-1z M97,12h1v1h-1z M99,12h1v1h-1z M100,12h1v1h-1z M103,12h1v1h-1z M105,12h1v1h-1z M106,12h1v1h-1z M107,12h1v1h-1z M108,12h1v1h-1z M6,13h1v1h-1z M9,13h1v1h-1z M13,13h1v1h-1z M20,13h1v1h-1z M21,13h1v1h-1z M25,13h1v1h-1z M27,13h1v1h-1z M28,13h1v1h-1z M31,13h1v1h-1z M32,13h1v1h-1z M33,13h1v1h-1z M34,13h1v1h-1z M35,13h1v1h-1z M41,13h1v1h-1z M42,13h1v1h-1z M43,13h1v1h-1z M47,13h1v1h-1z M51,13h1v1h-1z M52,13h1v1h-1z M53,13h1v1h-1z M56,13h1v1h-1z M57,13h1v1h-1z M58,13h1v1h-1z M60,13h1v1h-1z M61,13h1v1h-1z M62,13h1v1h-1z M64,13h1v1h-1z M65,13h1v1h-1z M66,13h1v1h-1z M67,13h1v1h-1z M68,13h1v1h-1z M71,13h1v1h-1z M72,13h1v1h-1z M74,13h1v1h-1z M75,13h1v1h-1z M76,13h1v1h-1z M78,13h1v1h-1z M79,13h1v1h-1z M80,13h1v1h-1z M82,13h1v1h-1z M83,13h1v1h-1z M87,13h1v1h-1z M89,13h1v1h-1z M94,13h1v1h-1z M96,13h1v1h-1z M97,13h1v1h-1z M98,13h1v1h-1z M99,13h1v1h-1z M102,13h1v1h-1z M105,13h1v1h-1z M107,13h1v1h-1z M108,13h1v1h-1z M5,14h1v1h-1z M6,14h1v1h-1z M7,14h1v1h-1z M8,14h1v1h-1z M10,14h1v1h-1z M12,14h1v1h-1z M16,14h1v1h-1z M18,14h1v1h-1z M20,14h1v1h-1z M21,14h1v1h-1z M22,14h1v1h-1z M26,14h1v1h-1z M28,14h1v1h-1z M29,14h1v1h-1z M36,14h1v1h-1z M37,14h1v1h-1z M38,14h1v1h-1z M39,14h1v1h-1z M41,14h1v1h-1z M48,14h1v1h-1z M50,14h1v1h-1z M53,14h1v1h-1z M55,14h1v1h-1z M56,14h1v1h-1z M59,14h1v1h-1z M62,14h1v1h-1z M63,14h1v1h-1z M67,14h1v1h-1z M68,14h1v1h-1z M74,14h1v1h-1z M77,14h1v1h-1z M85,14h1v1h-1z M86,14h1v1h-1z M95,14h1v1h-1z M96,14h1v1h-1z M98,14h1v1h-1z M99,14h1v1h-1z M102,14h1v1h-1z M104,14h1v1h-1z M105,14h1v1h-1z M106,14h1v1h-1z M107,14h1v1h-1z M8,15h1v1h-1z M9,15h1v1h-1z M11,15h1v1h-1z M12,15h1v1h-1z M13,15h1v1h-1z M15,15h1v1h-1z M16,15h1v1h-1z M17,15h1v1h-1z M18,15h1v1h-1z M19,15h1v1h-1z M23,15h1v1h-1z M24,15h1v1h-1z M25,15h1v1h-1z M31,15h1v1h-1z M32,15h1v1h-1z M33,15h1v1h-1z M34,15h1v1h-1z M41,15h1v1h-1z M44,15h1v1h-1z M45,15h1v1h-1z M47,15h1v1h-1z M50,15h1v1h-1z M51,15h1v1h-1z M53,15h1v1h-1z M54,15h1v1h-1z M56,15h1v1h-1z M57,15h1v1h-1z M59,15h1v1h-1z M61,15h1v1h-1z M62,15h1v1h-1z M65,15h1v1h-1z M66,15h1v1h-1z M68,15h1v1h-1z M69,15h1v1h-1z M71,15h1v1h-1z M77,15h1v1h-1z M80,15h1v1h-1z M82,15h1v1h-1z M83,15h1v1h-1z M89,15h1v1h-1z M90,15h1v1h-1z M91,15h1v1h-1z M92,15h1v1h-1z M93,15h1v1h-1z M98,15h1v1h-1z M101,15h1v1h-1z M107,15h1v1h-1z M108,15h1v1h-1z M5,16h1v1h-1z M8,16h1v1h-1z M9,16h1v1h-1z M10,16h1v1h-1z M11,16h1v1h-1z M13,16h1v1h-1z M15,16h1v1h-1z M16,16h1v1h-1z M18,16h1v1h-1z M22,16h1v1h-1z M24,16h1v1h-1z M25,16h1v1h-1z M27,16h1v1h-1z M29,16h1v1h-1z M31,16h1v1h-1z M32,16h1v1h-1z M33,16h1v1h-1z M34,16h1v1h-1z M36,16h1v1h-1z M39,16h1v1h-1z M44,16h1v1h-1z M47,16h1v1h-1z M48,16h1v1h-1z M50,16h1v1h-1z M51,16h1v1h-1z M52,16h1v1h-1z M53,16h1v1h-1z M54,16h1v1h-1z M55,16h1v1h-1z M56,16h1v1h-1z M59,16h1v1h-1z M60,16h1v1h-1z M62,16h1v1h-1z M63,16h1v1h-1z M64,16h1v1h-1z M65,16h1v1h-1z M66,16h1v1h-1z M67,16h1v1h-1z M73,16h1v1h-1z M75,16h1v1h-1z M76,16h1v1h-1z M77,16h1v1h-1z M78,16h1v1h-1z M79,16h1v1h-1z M81,16h1v1h-1z M87,16h1v1h-1z M88,16h1v1h-1z M89,16h1v1h-1z M90,16h1v1h-1z M91,16h1v1h-1z M92,16h1v1h-1z M96,16h1v1h-1z M99,16h1v1h-1z M100,16h1v1h-1z M104,16h1v1h-1z M105,16h1v1h-1z M106,16h1v1h-1z M107,16h1v1h-1z M6,17h1v1h-1z M9,17h1v1h-1z M11,17h1v1h-1z M12,17h1v1h-1z M16,17h1v1h-1z M17,17h1v1h-1z M20,17h1v1h-1z M21,17h1v1h-1z M23,17h1v1h-1z M24,17h1v1h-1z M25,17h1v1h-1z M26,17h1v1h-1z M27,17h1v1h-1z M28,17h1v1h-1z M29,17h1v1h-1z M30,17h1v1h-1z M31,17h1v1h-1z M33,17h1v1h-1z M34,17h1v1h-1z M35,17h1v1h-1z M36,17h1v1h-1z M38,17h1v1h-1z M40,17h1v1h-1z M43,17h1v1h-1z M44,17h1v1h-1z M47,17h1v1h-1z M51,17h1v1h-1z M52,17h1v1h-1z M55,17h1v1h-1z M56,17h1v1h-1z M58,17h1v1h-1z M60,17h1v1h-1z M64,17h1v1h-1z M65,17h1v1h-1z M67,17h1v1h-1z M70,17h1v1h-1z M71,17h1v1h-1z M72,17h1v1h-1z M75,17h1v1h-1z M76,17h1v1h-1z M77,17h1v1h-1z M80,17h1v1h-1z M82,17h1v1h-1z M86,17h1v1h-1z M87,17h1v1h-1z M88,17h1v1h-1z M91,17h1v1h-1z M93,17h1v1h-1z M94,17h1v1h-1z M95,17h1v1h-1z M97,17h1v1h-1z M98,17h1v1h-1z M99,17h1v1h-1z M102,17h1v1h-1z M103,17h1v1h-1z M104,17h1v1h-1z M107,17h1v1h-1z M5,18h1v1h-1z M6,18h1v1h-1z M8,18h1v1h-1z M10,18h1v1h-1z M15,18h1v1h-1z M16,18h1v1h-1z M18,18h1v1h-1z M19,18h1v1h-1z M20,18h1v1h-1z M21,18h1v1h-1z M24,18h1v1h-1z M26,18h1v1h-1z M27,18h1v1h-1z M29,18h1v1h-1z M36,18h1v1h-1z M38,18h1v1h-1z M40,18h1v1h-1z M41,18h1v1h-1z M43,18h1v1h-1z M44,18h1v1h-1z M48,18h1v1h-1z M50,18h1v1h-1z M53,18h1v1h-1z M55,18h1v1h-1z M62,18h1v1h-1z M63,18h1v1h-1z M65,18h1v1h-1z M68,18h1v1h-1z M74,18h1v1h-1z M76,18h1v1h-1z M79,18h1v1h-1z M80,18h1v1h-1z M83,18h1v1h-1z M84,18h1v1h-1z M86,18h1v1h-1z M87,18h1v1h-1z M89,18h1v1h-1z M91,18h1v1h-1z M98,18h1v1h-1z M101,18h1v1h-1z M102,18h1v1h-1z M104,18h1v1h-1z M107,18h1v1h-1z M6,19h1v1h-1z M7,19h1v1h-1z M8,19h1v1h-1z M12,19h1v1h-1z M13,19h1v1h-1z M15,19h1v1h-1z M16,19h1v1h-1z M17,19h1v1h-1z M20,19h1v1h-1z M21,19h1v1h-1z M22,19h1v1h-1z M23,19h1v1h-1z M24,19h1v1h-1z M30,19h1v1h-1z M32,19h1v1h-1z M35,19h1v1h-1z M39,19h1v1h-1z M42,19h1v1h-1z M44,19h1v1h-1z M45,19h1v1h-1z M46,19h1v1h-1z M47,19h1v1h-1z M49,19h1v1h-1z M56,19h1v1h-1z M57,19h1v1h-1z M59,19h1v1h-1z M61,19h1v1h-1z M68,19h1v1h-1z M69,19h1v1h-1z M70,19h1v1h-1z M71,19h1v1h-1z M74,19h1v1h-1z M75,19h1v1h-1z M76,19h1v1h-1z M77,19h1v1h-1z M78,19h1v1h-1z M80,19h1v1h-1z M86,19h1v1h-1z M89,19h1v1h-1z M90,19h1v1h-1z M92,19h1v1h-1z M93,19h1v1h-1z M94,19h1v1h-1z M95,19h1v1h-1z M97,19h1v1h-1z M98,19h1v1h-1z M99,19h1v1h-1z M100,19h1v1h-1z M104,19h1v1h-1z M108,19h1v1h-1z M4,20h1v1h-1z M5,20h1v1h-1z M6,20h1v1h-1z M8,20h1v1h-1z M10,20h1v1h-1z M15,20h1v1h-1z M16,20h1v1h-1z M17,20h1v1h-1z M18,20h1v1h-1z M19,20h1v1h-1z M25,20h1v1h-1z M32,20h1v1h-1z M34,20h1v1h-1z M38,20h1v1h-1z M39,20h1v1h-1z M43,20h1v1h-1z M46,20h1v1h-1z M50,20h1v1h-1z M51,20h1v1h-1z M52,20h1v1h-1z M56,20h1v1h-1z M59,20h1v1h-1z M62,20h1v1h-1z M63,20h1v1h-1z M64,20h1v1h-1z M66,20h1v1h-1z M70,20h1v1h-1z M72,20h1v1h-1z M78,20h1v1h-1z M79,20h1v1h-1z M80,20h1v1h-1z M82,20h1v1h-1z M83,20h1v1h-1z M85,20h1v1h-1z M88,20h1v1h-1z M91,20h1v1h-1z M98,20h1v1h-1z M99,20h1v1h-1z M100,20h1v1h-1z M101,20h1v1h-1z M104,20h1v1h-1z M106,20h1v1h-1z M108,20h1v1h-1z M4,21h1v1h-1z M9,21h1v1h-1z M11,21h1v1h-1z M12,21h1v1h-1z M13,21h1v1h-1z M14,21h1v1h-1z M15,21h1v1h-1z M16,21h1v1h-1z M19,21h1v1h-1z M20,21h1v1h-1z M21,21h1v1h-1z M22,21h1v1h-1z M24,21h1v1h-1z M27,21h1v1h-1z M28,21h1v1h-1z M29,21h1v1h-1z M30,21h1v1h-1z M31,21h1v1h-1z M36,21h1v1h-1z M38,21h1v1h-1z M39,21h1v1h-1z M40,21h1v1h-1z M42,21h1v1h-1z M43,21h1v1h-1z M44,21h1v1h-1z M46,21h1v1h-1z M48,21h1v1h-1z M49,21h1v1h-1z M50,21h1v1h-1z M51,21h1v1h-1z M52,21h1v1h-1z M55,21h1v1h-1z M56,21h1v1h-1z M57,21h1v1h-1z M58,21h1v1h-1z M59,21h1v1h-1z M60,21h1v1h-1z M61,21h1v1h-1z M62,21h1v1h-1z M64,21h1v1h-1z M69,21h1v1h-1z M70,21h1v1h-1z M71,21h1v1h-1z M74,21h1v1h-1z M75,21h1v1h-1z M76,21h1v1h-1z M77,21h1v1h-1z M78,21h1v1h-1z M80,21h1v1h-1z M81,21h1v1h-1z M82,21h1v1h-1z M84,21h1v1h-1z M85,21h1v1h-1z M86,21h1v1h-1z M87,21h1v1h-1z M88,21h1v1h-1z M89,21h1v1h-1z M93,21h1v1h-1z M94,21h1v1h-1z M97,21h1v1h-1z M101,21h1v1h-1z M102,21h1v1h-1z M103,21h1v1h-1z M106,21h1v1h-1z M108,21h1v1h-1z M4,22h1v1h-1z M5,22h1v1h-1z M9,22h1v1h-1z M10,22h1v1h-1z M12,22h1v1h-1z M13,22h1v1h-1z M19,22h1v1h-1z M21,22h1v1h-1z M22,22h1v1h-1z M25,22h1v1h-1z M26,22h1v1h-1z M27,22h1v1h-1z M29,22h1v1h-1z M32,22h1v1h-1z M35,22h1v1h-1z M38,22h1v1h-1z M41,22h1v1h-1z M43,22h1v1h-1z M47,22h1v1h-1z M49,22h1v1h-1z M50,22h1v1h-1z M51,22h1v1h-1z M52,22h1v1h-1z M53,22h1v1h-1z M55,22h1v1h-1z M56,22h1v1h-1z M57,22h1v1h-1z M59,22h1v1h-1z M62,22h1v1h-1z M63,22h1v1h-1z M65,22h1v1h-1z M71,22h1v1h-1z M72,22h1v1h-1z M74,22h1v1h-1z M77,22h1v1h-1z M80,22h1v1h-1z M85,22h1v1h-1z M86,22h1v1h-1z M89,22h1v1h-1z M91,22h1v1h-1z M98,22h1v1h-1z M99,22h1v1h-1z M100,22h1v1h-1z M102,22h1v1h-1z M104,22h1v1h-1z M107,22h1v1h-1z M4,23h1v1h-1z M5,23h1v1h-1z M6,23h1v1h-1z M7,23h1v1h-1z M9,23h1v1h-1z M14,23h1v1h-1z M17,23h1v1h-1z M19,23h1v1h-1z M21,23h1v1h-1z M23,23h1v1h-1z M24,23h1v1h-1z M29,23h1v1h-1z M30,23h1v1h-1z M32,23h1v1h-1z M34,23h1v1h-1z M35,23h1v1h-1z M37,23h1v1h-1z M44,23h1v1h-1z M45,23h1v1h-1z M46,23h1v1h-1z M47,23h1v1h-1z M52,23h1v1h-1z M53,23h1v1h-1z M54,23h1v1h-1z M56,23h1v1h-1z M58,23h1v1h-1z M59,23h1v1h-1z M61,23h1v1h-1z M68,23h1v1h-1z M70,23h1v1h-1z M78,23h1v1h-1z M80,23h1v1h-1z M81,23h1v1h-1z M83,23h1v1h-1z M89,23h1v1h-1z M90,23h1v1h-1z M92,23h1v1h-1z M93,23h1v1h-1z M94,23h1v1h-1z M95,23h1v1h-1z M97,23h1v1h-1z M99,23h1v1h-1z M100,23h1v1h-1z M101,23h1v1h-1z M103,23h1v1h-1z M107,23h1v1h-1z M108,23h1v1h-1z M4,24h1v1h-1z M7,24h1v1h-1z M8,24h1v1h-1z M9,24h1v1h-1z M10,24h1v1h-1z M12,24h1v1h-1z M13,24h1v1h-1z M14,24h1v1h-1z M17,24h1v1h-1z M18,24h1v1h-1z M19,24h1v1h-1z M20,24h1v1h-1z M21,24h1v1h-1z M25,24h1v1h-1z M27,24h1v1h-1z M29,24h1v1h-1z M31,24h1v1h-1z M32,24h1v1h-1z M33,24h1v1h-1z M34,24h1v1h-1z M36,24h1v1h-1z M37,24h1v1h-1z M43,24h1v1h-1z M46,24h1v1h-1z M52,24h1v1h-1z M54,24h1v1h-1z M56,24h1v1h-1z M58,24h1v1h-1z M59,24h1v1h-1z M60,24h1v1h-1z M63,24h1v1h-1z M64,24h1v1h-1z M66,24h1v1h-1z M67,24h1v1h-1z M68,24h1v1h-1z M71,24h1v1h-1z M72,24h1v1h-1z M75,24h1v1h-1z M76,24h1v1h-1z M77,24h1v1h-1z M87,24h1v1h-1z M90,24h1v1h-1z M91,24h1v1h-1z M93,24h1v1h-1z M95,24h1v1h-1z M98,24h1v1h-1z M99,24h1v1h-1z M100,24h1v1h-1z M101,24h1v1h-1z M103,24h1v1h-1z M106,24h1v1h-1z M108,24h1v1h-1z M4,25h1v1h-1z M6,25h1v1h-1z M7,25h1v1h-1z M8,25h1v1h-1z M16,25h1v1h-1z M19,25h1v1h-1z M24,25h1v1h-1z M26,25h1v1h-1z M28,25h1v1h-1z M29,25h1v1h-1z M31,25h1v1h-1z M33,25h1v1h-1z M34,25h1v1h-1z M36,25h1v1h-1z M37,25h1v1h-1z M38,25h1v1h-1z M41,25h1v1h-1z M44,25h1v1h-1z M45,25h1v1h-1z M51,25h1v1h-1z M52,25h1v1h-1z M54,25h1v1h-1z M55,25h1v1h-1z M57,25h1v1h-1z M60,25h1v1h-1z M61,25h1v1h-1z M66,25h1v1h-1z M67,25h1v1h-1z M68,25h1v1h-1z M71,25h1v1h-1z M73,25h1v1h-1z M75,25h1v1h-1z M76,25h1v1h-1z M77,25h1v1h-1z M78,25h1v1h-1z M81,25h1v1h-1z M82,25h1v1h-1z M85,25h1v1h-1z M86,25h1v1h-1z M87,25h1v1h-1z M88,25h1v1h-1z M89,25h1v1h-1z M91,25h1v1h-1z M93,25h1v1h-1z M95,25h1v1h-1z M98,25h1v1h-1z M99,25h1v1h-1z M102,25h1v1h-1z M103,25h1v1h-1z M107,25h1v1h-1z M108,25h1v1h-1z M4,26h1v1h-1z M5,26h1v1h-1z M7,26h1v1h-1z M9,26h1v1h-1z M10,26h1v1h-1z M14,26h1v1h-1z M15,26h1v1h-1z M16,26h1v1h-1z M17,26h1v1h-1z M18,26h1v1h-1z M19,26h1v1h-1z M20,26h1v1h-1z M23,26h1v1h-1z M26,26h1v1h-1z M28,26h1v1h-1z M29,26h1v1h-1z M35,26h1v1h-1z M36,26h1v1h-1z M38,26h1v1h-1z M39,26h1v1h-1z M41,26h1v1h-1z M43,26h1v1h-1z M49,26h1v1h-1z M50,26h1v1h-1z M51,26h1v1h-1z M52,26h1v1h-1z M53,26h1v1h-1z M59,26h1v1h-1z M62,26h1v1h-1z M64,26h1v1h-1z M65,26h1v1h-1z M71,26h1v1h-1z M72,26h1v1h-1z M73,26h1v1h-1z M74,26h1v1h-1z M77,26h1v1h-1z M86,26h1v1h-1z M87,26h1v1h-1z M95,26h1v1h-1z M97,26h1v1h-1z M98,26h1v1h-1z M104,26h1v1h-1z M105,26h1v1h-1z M107,26h1v1h-1z M4,27h1v1h-1z M8,27h1v1h-1z M9,27h1v1h-1z M11,27h1v1h-1z M12,27h1v1h-1z M13,27h1v1h-1z M15,27h1v1h-1z M18,27h1v1h-1z M20,27h1v1h-1z M21,27h1v1h-1z M22,27h1v1h-1z M23,27h1v1h-1z M32,27h1v1h-1z M33,27h1v1h-1z M34,27h1v1h-1z M37,27h1v1h-1z M42,27h1v1h-1z M43,27h1v1h-1z M44,27h1v1h-1z M45,27h1v1h-1z M46,27h1v1h-1z M47,27h1v1h-1z M49,27h1v1h-1z M56,27h1v1h-1z M59,27h1v1h-1z M61,27h1v1h-1z M63,27h1v1h-1z M66,27h1v1h-1z M67,27h1v1h-1z M68,27h1v1h-1z M69,27h1v1h-1z M70,27h1v1h-1z M75,27h1v1h-1z M77,27h1v1h-1z M78,27h1v1h-1z M80,27h1v1h-1z M83,27h1v1h-1z M85,27h1v1h-1z M90,27h1v1h-1z M92,27h1v1h-1z M93,27h1v1h-1z M94,27h1v1h-1z M95,27h1v1h-1z M99,27h1v1h-1z M100,27h1v1h-1z M107,27h1v1h-1z M8,28h1v1h-1z M9,28h1v1h-1z M10,28h1v1h-1z M11,28h1v1h-1z M12,28h1v1h-1z M13,28h1v1h-1z M14,28h1v1h-1z M15,28h1v1h-1z M16,28h1v1h-1z M18,28h1v1h-1z M20,28h1v1h-1z M23,28h1v1h-1z M27,28h1v1h-1z M28,28h1v1h-1z M29,28h1v1h-1z M30,28h1v1h-1z M31,28h1v1h-1z M32,28h1v1h-1z M33,28h1v1h-1z M35,28h1v1h-1z M36,28h1v1h-1z M37,28h1v1h-1z M38,28h1v1h-1z M39,28h1v1h-1z M41,28h1v1h-1z M44,28h1v1h-1z M45,28h1v1h-1z M50,28h1v1h-1z M51,28h1v1h-1z M52,28h1v1h-1z M53,28h1v1h-1z M54,28h1v1h-1z M55,28h1v1h-1z M56,28h1v1h-1z M60,28h1v1h-1z M63,28h1v1h-1z M66,28h1v1h-1z M67,28h1v1h-1z M68,28h1v1h-1z M69,28h1v1h-1z M71,28h1v1h-1z M72,28h1v1h-1z M74,28h1v1h-1z M76,28h1v1h-1z M77,28h1v1h-1z M78,28h1v1h-1z M79,28h1v1h-1z M80,28h1v1h-1z M81,28h1v1h-1z M84,28h1v1h-1z M87,28h1v1h-1z M90,28h1v1h-1z M92,28h1v1h-1z M93,28h1v1h-1z M94,28h1v1h-1z M95,28h1v1h-1z M97,28h1v1h-1z M98,28h1v1h-1z M99,28h1v1h-1z M100,28h1v1h-1z M101,28h1v1h-1z M102,28h1v1h-1z M103,28h1v1h-1z M104,28h1v1h-1z M105,28h1v1h-1z M106,28h1v1h-1z M107,28h1v1h-1z M108,28h1v1h-1z M4,29h1v1h-1z M6,29h1v1h-1z M8,29h1v1h-1z M12,29h1v1h-1z M13,29h1v1h-1z M15,29h1v1h-1z M16,29h1v1h-1z M18,29h1v1h-1z M20,29h1v1h-1z M21,29h1v1h-1z M22,29h1v1h-1z M23,29h1v1h-1z M25,29h1v1h-1z M27,29h1v1h-1z M28,29h1v1h-1z M32,29h1v1h-1z M33,29h1v1h-1z M35,29h1v1h-1z M39,29h1v1h-1z M40,29h1v1h-1z M41,29h1v1h-1z M42,29h1v1h-1z M44,29h1v1h-1z M46,29h1v1h-1z M47,29h1v1h-1z M48,29h1v1h-1z M50,29h1v1h-1z M51,29h1v1h-1z M52,29h1v1h-1z M56,29h1v1h-1z M57,29h1v1h-1z M58,29h1v1h-1z M62,29h1v1h-1z M65,29h1v1h-1z M66,29h1v1h-1z M67,29h1v1h-1z M70,29h1v1h-1z M72,29h1v1h-1z M73,29h1v1h-1z M75,29h1v1h-1z M76,29h1v1h-1z M80,29h1v1h-1z M81,29h1v1h-1z M82,29h1v1h-1z M83,29h1v1h-1z M85,29h1v1h-1z M86,29h1v1h-1z M87,29h1v1h-1z M88,29h1v1h-1z M90,29h1v1h-1z M94,29h1v1h-1z M96,29h1v1h-1z M100,29h1v1h-1z M104,29h1v1h-1z M5,30h1v1h-1z M8,30h1v1h-1z M10,30h1v1h-1z M12,30h1v1h-1z M17,30h1v1h-1z M18,30h1v1h-1z M19,30h1v1h-1z M20,30h1v1h-1z M22,30h1v1h-1z M26,30h1v1h-1z M28,30h1v1h-1z M30,30h1v1h-1z M32,30h1v1h-1z M35,30h1v1h-1z M36,30h1v1h-1z M38,30h1v1h-1z M40,30h1v1h-1z M41,30h1v1h-1z M43,30h1v1h-1z M44,30h1v1h-1z M47,30h1v1h-1z M48,30h1v1h-1z M49,30h1v1h-1z M50,30h1v1h-1z M51,30h1v1h-1z M52,30h1v1h-1z M54,30h1v1h-1z M56,30h1v1h-1z M62,30h1v1h-1z M63,30h1v1h-1z M64,30h1v1h-1z M67,30h1v1h-1z M74,30h1v1h-1z M76,30h1v1h-1z M78,30h1v1h-1z M80,30h1v1h-1z M83,30h1v1h-1z M86,30h1v1h-1z M88,30h1v1h-1z M91,30h1v1h-1z M95,30h1v1h-1z M96,30h1v1h-1z M98,30h1v1h-1z M100,30h1v1h-1z M102,30h1v1h-1z M104,30h1v1h-1z M105,30h1v1h-1z M4,31h1v1h-1z M8,31h1v1h-1z M12,31h1v1h-1z M13,31h1v1h-1z M16,31h1v1h-1z M17,31h1v1h-1z M21,31h1v1h-1z M25,31h1v1h-1z M26,31h1v1h-1z M27,31h1v1h-1z M28,31h1v1h-1z M32,31h1v1h-1z M33,31h1v1h-1z M34,31h1v1h-1z M35,31h1v1h-1z M38,31h1v1h-1z M39,31h1v1h-1z M41,31h1v1h-1z M42,31h1v1h-1z M44,31h1v1h-1z M45,31h1v1h-1z M46,31h1v1h-1z M51,31h1v1h-1z M52,31h1v1h-1z M56,31h1v1h-1z M57,31h1v1h-1z M58,31h1v1h-1z M59,31h1v1h-1z M63,31h1v1h-1z M65,31h1v1h-1z M66,31h1v1h-1z M68,31h1v1h-1z M69,31h1v1h-1z M70,31h1v1h-1z M71,31h1v1h-1z M75,31h1v1h-1z M76,31h1v1h-1z M80,31h1v1h-1z M81,31h1v1h-1z M82,31h1v1h-1z M83,31h1v1h-1z M90,31h1v1h-1z M92,31h1v1h-1z M93,31h1v1h-1z M94,31h1v1h-1z M95,31h1v1h-1z M98,31h1v1h-1z M100,31h1v1h-1z M104,31h1v1h-1z M107,31h1v1h-1z M5,32h1v1h-1z M7,32h1v1h-1z M8,32h1v1h-1z M9,32h1v1h-1z M10,32h1v1h-1z M11,32h1v1h-1z M12,32h1v1h-1z M13,32h1v1h-1z M18,32h1v1h-1z M19,32h1v1h-1z M20,32h1v1h-1z M21,32h1v1h-1z M25,32h1v1h-1z M26,32h1v1h-1z M27,32h1v1h-1z M28,32h1v1h-1z M29,32h1v1h-1z M30,32h1v1h-1z M31,32h1v1h-1z M32,32h1v1h-1z M35,32h1v1h-1z M36,32h1v1h-1z M47,32h1v1h-1z M50,32h1v1h-1z M52,32h1v1h-1z M53,32h1v1h-1z M54,32h1v1h-1z M55,32h1v1h-1z M56,32h1v1h-1z M60,32h1v1h-1z M61,32h1v1h-1z M66,32h1v1h-1z M70,32h1v1h-1z M74,32h1v1h-1z M76,32h1v1h-1z M77,32h1v1h-1z M78,32h1v1h-1z M79,32h1v1h-1z M80,32h1v1h-1z M81,32h1v1h-1z M84,32h1v1h-1z M85,32h1v1h-1z M87,32h1v1h-1z M88,32h1v1h-1z M89,32h1v1h-1z M91,32h1v1h-1z M93,32h1v1h-1z M99,32h1v1h-1z M100,32h1v1h-1z M101,32h1v1h-1z M102,32h1v1h-1z M103,32h1v1h-1z M104,32h1v1h-1z M105,32h1v1h-1z M5,33h1v1h-1z M6,33h1v1h-1z M9,33h1v1h-1z M13,33h1v1h-1z M18,33h1v1h-1z M22,33h1v1h-1z M23,33h1v1h-1z M26,33h1v1h-1z M28,33h1v1h-1z M29,33h1v1h-1z M31,33h1v1h-1z M32,33h1v1h-1z M34,33h1v1h-1z M36,33h1v1h-1z M37,33h1v1h-1z M40,33h1v1h-1z M41,33h1v1h-1z M44,33h1v1h-1z M45,33h1v1h-1z M47,33h1v1h-1z M48,33h1v1h-1z M53,33h1v1h-1z M54,33h1v1h-1z M55,33h1v1h-1z M56,33h1v1h-1z M57,33h1v1h-1z M59,33h1v1h-1z M60,33h1v1h-1z M64,33h1v1h-1z M68,33h1v1h-1z M69,33h1v1h-1z M70,33h1v1h-1z M71,33h1v1h-1z M72,33h1v1h-1z M75,33h1v1h-1z M77,33h1v1h-1z M78,33h1v1h-1z M80,33h1v1h-1z M81,33h1v1h-1z M82,33h1v1h-1z M84,33h1v1h-1z M85,33h1v1h-1z M86,33h1v1h-1z M89,33h1v1h-1z M92,33h1v1h-1z M94,33h1v1h-1z M96,33h1v1h-1z M98,33h1v1h-1z M100,33h1v1h-1z M103,33h1v1h-1z M105,33h1v1h-1z M107,33h1v1h-1z M108,33h1v1h-1z M5,34h1v1h-1z M6,34h1v1h-1z M7,34h1v1h-1z M9,34h1v1h-1z M10,34h1v1h-1z M12,34h1v1h-1z M13,34h1v1h-1z M15,34h1v1h-1z M16,34h1v1h-1z M17,34h1v1h-1z M20,34h1v1h-1z M23,34h1v1h-1z M24,34h1v1h-1z M35,34h1v1h-1z M36,34h1v1h-1z M38,34h1v1h-1z M40,34h1v1h-1z M41,34h1v1h-1z M47,34h1v1h-1z M50,34h1v1h-1z M51,34h1v1h-1z M52,34h1v1h-1z M53,34h1v1h-1z M54,34h1v1h-1z M56,34h1v1h-1z M60,34h1v1h-1z M62,34h1v1h-1z M63,34h1v1h-1z M65,34h1v1h-1z M68,34h1v1h-1z M72,34h1v1h-1z M74,34h1v1h-1z M75,34h1v1h-1z M77,34h1v1h-1z M78,34h1v1h-1z M79,34h1v1h-1z M80,34h1v1h-1z M86,34h1v1h-1z M87,34h1v1h-1z M88,34h1v1h-1z M89,34h1v1h-1z M92,34h1v1h-1z M95,34h1v1h-1z M96,34h1v1h-1z M98,34h1v1h-1z M100,34h1v1h-1z M103,34h1v1h-1z M105,34h1v1h-1z M107,34h1v1h-1z M4,35h1v1h-1z M5,35h1v1h-1z M7,35h1v1h-1z M9,35h1v1h-1z M11,35h1v1h-1z M13,35h1v1h-1z M15,35h1v1h-1z M19,35h1v1h-1z M20,35h1v1h-1z M21,35h1v1h-1z M23,35h1v1h-1z M25,35h1v1h-1z M26,35h1v1h-1z M28,35h1v1h-1z M31,35h1v1h-1z M32,35h1v1h-1z M33,35h1v1h-1z M34,35h1v1h-1z M35,35h1v1h-1z M43,35h1v1h-1z M44,35h1v1h-1z M45,35h1v1h-1z M46,35h1v1h-1z M47,35h1v1h-1z M50,35h1v1h-1z M52,35h1v1h-1z M55,35h1v1h-1z M59,35h1v1h-1z M62,35h1v1h-1z M66,35h1v1h-1z M68,35h1v1h-1z M69,35h1v1h-1z M70,35h1v1h-1z M73,35h1v1h-1z M74,35h1v1h-1z M75,35h1v1h-1z M76,35h1v1h-1z M77,35h1v1h-1z M79,35h1v1h-1z M80,35h1v1h-1z M82,35h1v1h-1z M83,35h1v1h-1z M85,35h1v1h-1z M92,35h1v1h-1z M94,35h1v1h-1z M95,35h1v1h-1z M97,35h1v1h-1z M98,35h1v1h-1z M99,35h1v1h-1z M101,35h1v1h-1z M102,35h1v1h-1z M104,35h1v1h-1z M108,35h1v1h-1z M4,36h1v1h-1z M7,36h1v1h-1z M9,36h1v1h-1z M10,36h1v1h-1z M11,36h1v1h-1z M13,36h1v1h-1z M18,36h1v1h-1z M19,36h1v1h-1z M20,36h1v1h-1z M24,36h1v1h-1z M25,36h1v1h-1z M26,36h1v1h-1z M28,36h1v1h-1z M31,36h1v1h-1z M33,36h1v1h-1z M35,36h1v1h-1z M36,36h1v1h-1z M38,36h1v1h-1z M41,36h1v1h-1z M42,36h1v1h-1z M43,36h1v1h-1z M44,36h1v1h-1z M45,36h1v1h-1z M46,36h1v1h-1z M52,36h1v1h-1z M57,36h1v1h-1z M58,36h1v1h-1z M63,36h1v1h-1z M64,36h1v1h-1z M65,36h1v1h-1z M67,36h1v1h-1z M68,36h1v1h-1z M70,36h1v1h-1z M72,36h1v1h-1z M77,36h1v1h-1z M79,36h1v1h-1z M81,36h1v1h-1z M83,36h1v1h-1z M90,36h1v1h-1z M91,36h1v1h-1z M93,36h1v1h-1z M94,36h1v1h-1z M98,36h1v1h-1z M99,36h1v1h-1z M102,36h1v1h-1z M103,36h1v1h-1z M104,36h1v1h-1z M107,36h1v1h-1z M5,37h1v1h-1z M12,37h1v1h-1z M13,37h1v1h-1z M14,37h1v1h-1z M16,37h1v1h-1z M17,37h1v1h-1z M18,37h1v1h-1z M19,37h1v1h-1z M20,37h1v1h-1z M22,37h1v1h-1z M23,37h1v1h-1z M25,37h1v1h-1z M26,37h1v1h-1z M29,37h1v1h-1z M30,37h1v1h-1z M31,37h1v1h-1z M32,37h1v1h-1z M33,37h1v1h-1z M35,37h1v1h-1z M37,37h1v1h-1z M38,37h1v1h-1z M40,37h1v1h-1z M44,37h1v1h-1z M46,37h1v1h-1z M48,37h1v1h-1z M49,37h1v1h-1z M53,37h1v1h-1z M54,37h1v1h-1z M55,37h1v1h-1z M57,37h1v1h-1z M59,37h1v1h-1z M63,37h1v1h-1z M66,37h1v1h-1z M67,37h1v1h-1z M69,37h1v1h-1z M71,37h1v1h-1z M72,37h1v1h-1z M73,37h1v1h-1z M77,37h1v1h-1z M78,37h1v1h-1z M80,37h1v1h-1z M81,37h1v1h-1z M83,37h1v1h-1z M86,37h1v1h-1z M87,37h1v1h-1z M88,37h1v1h-1z M89,37h1v1h-1z M90,37h1v1h-1z M92,37h1v1h-1z M93,37h1v1h-1z M96,37h1v1h-1z M99,37h1v1h-1z M101,37h1v1h-1z M103,37h1v1h-1z M104,37h1v1h-1z M106,37h1v1h-1z M4,38h1v1h-1z M5,38h1v1h-1z M6,38h1v1h-1z M7,38h1v1h-1z M9,38h1v1h-1z M10,38h1v1h-1z M16,38h1v1h-1z M17,38h1v1h-1z M18,38h1v1h-1z M22,38h1v1h-1z M23,38h1v1h-1z M26,38h1v1h-1z M27,38h1v1h-1z M32,38h1v1h-1z M38,38h1v1h-1z M39,38h1v1h-1z M40,38h1v1h-1z M41,38h1v1h-1z M48,38h1v1h-1z M50,38h1v1h-1z M53,38h1v1h-1z M55,38h1v1h-1z M56,38h1v1h-1z M57,38h1v1h-1z M59,38h1v1h-1z M60,38h1v1h-1z M62,38h1v1h-1z M64,38h1v1h-1z M65,38h1v1h-1z M72,38h1v1h-1z M74,38h1v1h-1z M75,38h1v1h-1z M76,38h1v1h-1z M77,38h1v1h-1z M79,38h1v1h-1z M80,38h1v1h-1z M83,38h1v1h-1z M84,38h1v1h-1z M85,38h1v1h-1z M86,38h1v1h-1z M87,38h1v1h-1z M88,38h1v1h-1z M89,38h1v1h-1z M92,38h1v1h-1z M93,38h1v1h-1z M95,38h1v1h-1z M96,38h1v1h-1z M98,38h1v1h-1z M101,38h1v1h-1z M105,38h1v1h-1z M106,38h1v1h-1z M5,39h1v1h-1z M7,39h1v1h-1z M8,39h1v1h-1z M15,39h1v1h-1z M16,39h1v1h-1z M17,39h1v1h-1z M18,39h1v1h-1z M24,39h1v1h-1z M25,39h1v1h-1z M26,39h1v1h-1z M28,39h1v1h-1z M29,39h1v1h-1z M33,39h1v1h-1z M34,39h1v1h-1z M35,39h1v1h-1z M39,39h1v1h-1z M43,39h1v1h-1z M44,39h1v1h-1z M46,39h1v1h-1z M47,39h1v1h-1z M49,39h1v1h-1z M50,39h1v1h-1z M52,39h1v1h-1z M55,39h1v1h-1z M58,39h1v1h-1z M59,39h1v1h-1z M61,39h1v1h-1z M63,39h1v1h-1z M65,39h1v1h-1z M68,39h1v1h-1z M70,39h1v1h-1z M71,39h1v1h-1z M73,39h1v1h-1z M74,39h1v1h-1z M75,39h1v1h-1z M76,39h1v1h-1z M80,39h1v1h-1z M81,39h1v1h-1z M82,39h1v1h-1z M83,39h1v1h-1z M92,39h1v1h-1z M94,39h1v1h-1z M97,39h1v1h-1z M99,39h1v1h-1z M101,39h1v1h-1z M103,39h1v1h-1z M104,39h1v1h-1z M108,39h1v1h-1z M4,40h1v1h-1z M5,40h1v1h-1z M6,40h1v1h-1z M10,40h1v1h-1z M14,40h1v1h-1z M17,40h1v1h-1z M20,40h1v1h-1z M23,40h1v1h-1z M25,40h1v1h-1z M26,40h1v1h-1z M30,40h1v1h-1z M31,40h1v1h-1z M42,40h1v1h-1z M43,40h1v1h-1z M45,40h1v1h-1z M46,40h1v1h-1z M47,40h1v1h-1z M50,40h1v1h-1z M52,40h1v1h-1z M55,40h1v1h-1z M61,40h1v1h-1z M64,40h1v1h-1z M65,40h1v1h-1z M66,40h1v1h-1z M67,40h1v1h-1z M70,40h1v1h-1z M72,40h1v1h-1z M73,40h1v1h-1z M79,40h1v1h-1z M81,40h1v1h-1z M82,40h1v1h-1z M84,40h1v1h-1z M86,40h1v1h-1z M87,40h1v1h-1z M88,40h1v1h-1z M89,40h1v1h-1z M90,40h1v1h-1z M92,40h1v1h-1z M95,40h1v1h-1z M98,40h1v1h-1z M100,40h1v1h-1z M102,40h1v1h-1z M105,40h1v1h-1z M107,40h1v1h-1z M108,40h1v1h-1z M4,41h1v1h-1z M5,41h1v1h-1z M7,41h1v1h-1z M11,41h1v1h-1z M12,41h1v1h-1z M13,41h1v1h-1z M14,41h1v1h-1z M17,41h1v1h-1z M18,41h1v1h-1z M20,41h1v1h-1z M22,41h1v1h-1z M24,41h1v1h-1z M25,41h1v1h-1z M29,41h1v1h-1z M30,41h1v1h-1z M31,41h1v1h-1z M32,41h1v1h-1z M34,41h1v1h-1z M36,41h1v1h-1z M38,41h1v1h-1z M39,41h1v1h-1z M42,41h1v1h-1z M48,41h1v1h-1z M50,41h1v1h-1z M52,41h1v1h-1z M55,41h1v1h-1z M57,41h1v1h-1z M58,41h1v1h-1z M59,41h1v1h-1z M62,41h1v1h-1z M63,41h1v1h-1z M64,41h1v1h-1z M69,41h1v1h-1z M71,41h1v1h-1z M72,41h1v1h-1z M75,41h1v1h-1z M76,41h1v1h-1z M77,41h1v1h-1z M78,41h1v1h-1z M80,41h1v1h-1z M81,41h1v1h-1z M82,41h1v1h-1z M85,41h1v1h-1z M88,41h1v1h-1z M89,41h1v1h-1z M91,41h1v1h-1z M92,41h1v1h-1z M93,41h1v1h-1z M94,41h1v1h-1z M96,41h1v1h-1z M97,41h1v1h-1z M99,41h1v1h-1z M103,41h1v1h-1z M107,41h1v1h-1z M108,41h1v1h-1z M4,42h1v1h-1z M7,42h1v1h-1z M8,42h1v1h-1z M9,42h1v1h-1z M10,42h1v1h-1z M11,42h1v1h-1z M15,42h1v1h-1z M18,42h1v1h-1z M20,42h1v1h-1z M21,42h1v1h-1z M22,42h1v1h-1z M24,42h1v1h-1z M25,42h1v1h-1z M26,42h1v1h-1z M27,42h1v1h-1z M31,42h1v1h-1z M35,42h1v1h-1z M38,42h1v1h-1z M39,42h1v1h-1z M40,42h1v1h-1z M41,42h1v1h-1z M43,42h1v1h-1z M45,42h1v1h-1z M50,42h1v1h-1z M52,42h1v1h-1z M53,42h1v1h-1z M55,42h1v1h-1z M56,42h1v1h-1z M57,42h1v1h-1z M59,42h1v1h-1z M61,42h1v1h-1z M62,42h1v1h-1z M65,42h1v1h-1z M68,42h1v1h-1z M72,42h1v1h-1z M74,42h1v1h-1z M77,42h1v1h-1z M79,42h1v1h-1z M80,42h1v1h-1z M84,42h1v1h-1z M86,42h1v1h-1z M87,42h1v1h-1z M89,42h1v1h-1z M91,42h1v1h-1z M95,42h1v1h-1z M96,42h1v1h-1z M98,42h1v1h-1z M100,42h1v1h-1z M102,42h1v1h-1z M103,42h1v1h-1z M105,42h1v1h-1z M107,42h1v1h-1z M5,43h1v1h-1z M6,43h1v1h-1z M7,43h1v1h-1z M12,43h1v1h-1z M13,43h1v1h-1z M16,43h1v1h-1z M17,43h1v1h-1z M18,43h1v1h-1z M20,43h1v1h-1z M23,43h1v1h-1z M25,43h1v1h-1z M28,43h1v1h-1z M29,43h1v1h-1z M31,43h1v1h-1z M33,43h1v1h-1z M34,43h1v1h-1z M35,43h1v1h-1z M37,43h1v1h-1z M41,43h1v1h-1z M42,43h1v1h-1z M43,43h1v1h-1z M44,43h1v1h-1z M46,43h1v1h-1z M47,43h1v1h-1z M56,43h1v1h-1z M58,43h1v1h-1z M59,43h1v1h-1z M61,43h1v1h-1z M66,43h1v1h-1z M68,43h1v1h-1z M69,43h1v1h-1z M70,43h1v1h-1z M71,43h1v1h-1z M75,43h1v1h-1z M76,43h1v1h-1z M77,43h1v1h-1z M79,43h1v1h-1z M81,43h1v1h-1z M83,43h1v1h-1z M85,43h1v1h-1z M90,43h1v1h-1z M92,43h1v1h-1z M93,43h1v1h-1z M94,43h1v1h-1z M97,43h1v1h-1z M98,43h1v1h-1z M99,43h1v1h-1z M102,43h1v1h-1z M104,43h1v1h-1z M107,43h1v1h-1z M108,43h1v1h-1z M4,44h1v1h-1z M5,44h1v1h-1z M7,44h1v1h-1z M8,44h1v1h-1z M9,44h1v1h-1z M10,44h1v1h-1z M12,44h1v1h-1z M13,44h1v1h-1z M14,44h1v1h-1z M17,44h1v1h-1z M21,44h1v1h-1z M22,44h1v1h-1z M23,44h1v1h-1z M25,44h1v1h-1z M28,44h1v1h-1z M29,44h1v1h-1z M30,44h1v1h-1z M31,44h1v1h-1z M35,44h1v1h-1z M36,44h1v1h-1z M37,44h1v1h-1z M38,44h1v1h-1z M39,44h1v1h-1z M41,44h1v1h-1z M43,44h1v1h-1z M44,44h1v1h-1z M48,44h1v1h-1z M50,44h1v1h-1z M52,44h1v1h-1z M55,44h1v1h-1z M57,44h1v1h-1z M58,44h1v1h-1z M59,44h1v1h-1z M60,44h1v1h-1z M61,44h1v1h-1z M62,44h1v1h-1z M63,44h1v1h-1z M64,44h1v1h-1z M65,44h1v1h-1z M68,44h1v1h-1z M71,44h1v1h-1z M72,44h1v1h-1z M74,44h1v1h-1z M76,44h1v1h-1z M77,44h1v1h-1z M79,44h1v1h-1z M82,44h1v1h-1z M83,44h1v1h-1z M84,44h1v1h-1z M85,44h1v1h-1z M87,44h1v1h-1z M90,44h1v1h-1z M92,44h1v1h-1z M93,44h1v1h-1z M94,44h1v1h-1z M95,44h1v1h-1z M96,44h1v1h-1z M100,44h1v1h-1z M102,44h1v1h-1z M104,44h1v1h-1z M105,44h1v1h-1z M106,44h1v1h-1z M107,44h1v1h-1z M4,45h1v1h-1z M9,45h1v1h-1z M15,45h1v1h-1z M22,45h1v1h-1z M23,45h1v1h-1z M25,45h1v1h-1z M27,45h1v1h-1z M31,45h1v1h-1z M34,45h1v1h-1z M35,45h1v1h-1z M37,45h1v1h-1z M39,45h1v1h-1z M40,45h1v1h-1z M41,45h1v1h-1z M44,45h1v1h-1z M50,45h1v1h-1z M54,45h1v1h-1z M55,45h1v1h-1z M59,45h1v1h-1z M60,45h1v1h-1z M62,45h1v1h-1z M63,45h1v1h-1z M64,45h1v1h-1z M65,45h1v1h-1z M66,45h1v1h-1z M70,45h1v1h-1z M74,45h1v1h-1z M75,45h1v1h-1z M77,45h1v1h-1z M78,45h1v1h-1z M79,45h1v1h-1z M80,45h1v1h-1z M81,45h1v1h-1z M83,45h1v1h-1z M87,45h1v1h-1z M88,45h1v1h-1z M90,45h1v1h-1z M96,45h1v1h-1z M98,45h1v1h-1z M100,45h1v1h-1z M102,45h1v1h-1z M103,45h1v1h-1z M104,45h1v1h-1z M105,45h1v1h-1z M106,45h1v1h-1z M107,45h1v1h-1z M108,45h1v1h-1z M4,46h1v1h-1z M5,46h1v1h-1z M9,46h1v1h-1z M10,46h1v1h-1z M11,46h1v1h-1z M13,46h1v1h-1z M18,46h1v1h-1z M23,46h1v1h-1z M25,46h1v1h-1z M27,46h1v1h-1z M29,46h1v1h-1z M32,46h1v1h-1z M35,46h1v1h-1z M38,46h1v1h-1z M39,46h1v1h-1z M41,46h1v1h-1z M45,46h1v1h-1z M48,46h1v1h-1z M50,46h1v1h-1z M51,46h1v1h-1z M55,46h1v1h-1z M59,46h1v1h-1z M60,46h1v1h-1z M62,46h1v1h-1z M63,46h1v1h-1z M64,46h1v1h-1z M65,46h1v1h-1z M67,46h1v1h-1z M69,46h1v1h-1z M72,46h1v1h-1z M74,46h1v1h-1z M75,46h1v1h-1z M76,46h1v1h-1z M77,46h1v1h-1z M79,46h1v1h-1z M80,46h1v1h-1z M86,46h1v1h-1z M87,46h1v1h-1z M95,46h1v1h-1z M96,46h1v1h-1z M97,46h1v1h-1z M98,46h1v1h-1z M100,46h1v1h-1z M102,46h1v1h-1z M107,46h1v1h-1z M5,47h1v1h-1z M6,47h1v1h-1z M8,47h1v1h-1z M9,47h1v1h-1z M11,47h1v1h-1z M12,47h1v1h-1z M15,47h1v1h-1z M17,47h1v1h-1z M18,47h1v1h-1z M20,47h1v1h-1z M23,47h1v1h-1z M26,47h1v1h-1z M28,47h1v1h-1z M29,47h1v1h-1z M33,47h1v1h-1z M35,47h1v1h-1z M37,47h1v1h-1z M42,47h1v1h-1z M43,47h1v1h-1z M44,47h1v1h-1z M46,47h1v1h-1z M47,47h1v1h-1z M49,47h1v1h-1z M52,47h1v1h-1z M53,47h1v1h-1z M55,47h1v1h-1z M57,47h1v1h-1z M59,47h1v1h-1z M61,47h1v1h-1z M68,47h1v1h-1z M70,47h1v1h-1z M71,47h1v1h-1z M74,47h1v1h-1z M77,47h1v1h-1z M81,47h1v1h-1z M83,47h1v1h-1z M85,47h1v1h-1z M89,47h1v1h-1z M90,47h1v1h-1z M91,47h1v1h-1z M92,47h1v1h-1z M93,47h1v1h-1z M94,47h1v1h-1z M95,47h1v1h-1z M99,47h1v1h-1z M100,47h1v1h-1z M102,47h1v1h-1z M104,47h1v1h-1z M4,48h1v1h-1z M5,48h1v1h-1z M9,48h1v1h-1z M10,48h1v1h-1z M11,48h1v1h-1z M13,48h1v1h-1z M14,48h1v1h-1z M15,48h1v1h-1z M19,48h1v1h-1z M21,48h1v1h-1z M24,48h1v1h-1z M26,48h1v1h-1z M28,48h1v1h-1z M30,48h1v1h-1z M33,48h1v1h-1z M34,48h1v1h-1z M35,48h1v1h-1z M36,48h1v1h-1z M38,48h1v1h-1z M40,48h1v1h-1z M41,48h1v1h-1z M42,48h1v1h-1z M44,48h1v1h-1z M46,48h1v1h-1z M47,48h1v1h-1z M50,48h1v1h-1z M53,48h1v1h-1z M55,48h1v1h-1z M57,48h1v1h-1z M58,48h1v1h-1z M63,48h1v1h-1z M65,48h1v1h-1z M68,48h1v1h-1z M76,48h1v1h-1z M77,48h1v1h-1z M79,48h1v1h-1z M82,48h1v1h-1z M83,48h1v1h-1z M84,48h1v1h-1z M88,48h1v1h-1z M90,48h1v1h-1z M92,48h1v1h-1z M93,48h1v1h-1z M94,48h1v1h-1z M95,48h1v1h-1z M98,48h1v1h-1z M100,48h1v1h-1z M102,48h1v1h-1z M106,48h1v1h-1z M107,48h1v1h-1z M108,48h1v1h-1z M8,49h1v1h-1z M9,49h1v1h-1z M11,49h1v1h-1z M12,49h1v1h-1z M13,49h1v1h-1z M14,49h1v1h-1z M19,49h1v1h-1z M23,49h1v1h-1z M24,49h1v1h-1z M26,49h1v1h-1z M27,49h1v1h-1z M30,49h1v1h-1z M31,49h1v1h-1z M33,49h1v1h-1z M34,49h1v1h-1z M36,49h1v1h-1z M42,49h1v1h-1z M50,49h1v1h-1z M52,49h1v1h-1z M54,49h1v1h-1z M55,49h1v1h-1z M56,49h1v1h-1z M57,49h1v1h-1z M59,49h1v1h-1z M60,49h1v1h-1z M61,49h1v1h-1z M64,49h1v1h-1z M66,49h1v1h-1z M67,49h1v1h-1z M69,49h1v1h-1z M71,49h1v1h-1z M76,49h1v1h-1z M77,49h1v1h-1z M78,49h1v1h-1z M81,49h1v1h-1z M85,49h1v1h-1z M86,49h1v1h-1z M90,49h1v1h-1z M91,49h1v1h-1z M95,49h1v1h-1z M96,49h1v1h-1z M97,49h1v1h-1z M103,49h1v1h-1z M106,49h1v1h-1z M107,49h1v1h-1z M5,50h1v1h-1z M10,50h1v1h-1z M17,50h1v1h-1z M19,50h1v1h-1z M27,50h1v1h-1z M29,50h1v1h-1z M31,50h1v1h-1z M35,50h1v1h-1z M38,50h1v1h-1z M39,50h1v1h-1z M40,50h1v1h-1z M41,50h1v1h-1z M43,50h1v1h-1z M47,50h1v1h-1z M48,50h1v1h-1z M50,50h1v1h-1z M53,50h1v1h-1z M54,50h1v1h-1z M56,50h1v1h-1z M59,50h1v1h-1z M60,50h1v1h-1z M62,50h1v1h-1z M65,50h1v1h-1z M68,50h1v1h-1z M71,50h1v1h-1z M72,50h1v1h-1z M74,50h1v1h-1z M77,50h1v1h-1z M80,50h1v1h-1z M84,50h1v1h-1z M86,50h1v1h-1z M87,50h1v1h-1z M91,50h1v1h-1z M95,50h1v1h-1z M96,50h1v1h-1z M98,50h1v1h-1z M101,50h1v1h-1z M102,50h1v1h-1z M103,50h1v1h-1z M104,50h1v1h-1z M105,50h1v1h-1z M4,51h1v1h-1z M5,51h1v1h-1z M6,51h1v1h-1z M7,51h1v1h-1z M11,51h1v1h-1z M12,51h1v1h-1z M13,51h1v1h-1z M19,51h1v1h-1z M21,51h1v1h-1z M22,51h1v1h-1z M26,51h1v1h-1z M28,51h1v1h-1z M29,51h1v1h-1z M31,51h1v1h-1z M35,51h1v1h-1z M37,51h1v1h-1z M44,51h1v1h-1z M45,51h1v1h-1z M46,51h1v1h-1z M52,51h1v1h-1z M53,51h1v1h-1z M61,51h1v1h-1z M62,51h1v1h-1z M65,51h1v1h-1z M68,51h1v1h-1z M69,51h1v1h-1z M70,51h1v1h-1z M73,51h1v1h-1z M76,51h1v1h-1z M79,51h1v1h-1z M80,51h1v1h-1z M89,51h1v1h-1z M90,51h1v1h-1z M92,51h1v1h-1z M94,51h1v1h-1z M95,51h1v1h-1z M97,51h1v1h-1z M99,51h1v1h-1z M100,51h1v1h-1z M102,51h1v1h-1z M104,51h1v1h-1z M108,51h1v1h-1z M5,52h1v1h-1z M8,52h1v1h-1z M9,52h1v1h-1z M10,52h1v1h-1z M11,52h1v1h-1z M12,52h1v1h-1z M14,52h1v1h-1z M15,52h1v1h-1z M22,52h1v1h-1z M23,52h1v1h-1z M25,52h1v1h-1z M28,52h1v1h-1z M29,52h1v1h-1z M30,52h1v1h-1z M31,52h1v1h-1z M32,52h1v1h-1z M33,52h1v1h-1z M34,52h1v1h-1z M35,52h1v1h-1z M40,52h1v1h-1z M41,52h1v1h-1z M45,52h1v1h-1z M48,52h1v1h-1z M49,52h1v1h-1z M52,52h1v1h-1z M53,52h1v1h-1z M54,52h1v1h-1z M55,52h1v1h-1z M56,52h1v1h-1z M57,52h1v1h-1z M58,52h1v1h-1z M59,52h1v1h-1z M62,52h1v1h-1z M63,52h1v1h-1z M66,52h1v1h-1z M71,52h1v1h-1z M72,52h1v1h-1z M73,52h1v1h-1z M76,52h1v1h-1z M77,52h1v1h-1z M78,52h1v1h-1z M79,52h1v1h-1z M80,52h1v1h-1z M82,52h1v1h-1z M83,52h1v1h-1z M85,52h1v1h-1z M87,52h1v1h-1z M88,52h1v1h-1z M89,52h1v1h-1z M90,52h1v1h-1z M96,52h1v1h-1z M97,52h1v1h-1z M99,52h1v1h-1z M100,52h1v1h-1z M101,52h1v1h-1z M102,52h1v1h-1z M103,52h1v1h-1z M104,52h1v1h-1z M105,52h1v1h-1z M106,52h1v1h-1z M107,52h1v1h-1z M4,53h1v1h-1z M6,53h1v1h-1z M7,53h1v1h-1z M8,53h1v1h-1z M12,53h1v1h-1z M15,53h1v1h-1z M18,53h1v1h-1z M20,53h1v1h-1z M22,53h1v1h-1z M24,53h1v1h-1z M28,53h1v1h-1z M32,53h1v1h-1z M35,53h1v1h-1z M36,53h1v1h-1z M38,53h1v1h-1z M40,53h1v1h-1z M42,53h1v1h-1z M45,53h1v1h-1z M46,53h1v1h-1z M47,53h1v1h-1z M49,53h1v1h-1z M50,53h1v1h-1z M52,53h1v1h-1z M56,53h1v1h-1z M57,53h1v1h-1z M58,53h1v1h-1z M59,53h1v1h-1z M60,53h1v1h-1z M62,53h1v1h-1z M63,53h1v1h-1z M64,53h1v1h-1z M66,53h1v1h-1z M68,53h1v1h-1z M69,53h1v1h-1z M70,53h1v1h-1z M73,53h1v1h-1z M75,53h1v1h-1z M76,53h1v1h-1z M80,53h1v1h-1z M83,53h1v1h-1z M84,53h1v1h-1z M85,53h1v1h-1z M86,53h1v1h-1z M87,53h1v1h-1z M89,53h1v1h-1z M90,53h1v1h-1z M92,53h1v1h-1z M93,53h1v1h-1z M94,53h1v1h-1z M95,53h1v1h-1z M96,53h1v1h-1z M97,53h1v1h-1z M98,53h1v1h-1z M100,53h1v1h-1z M104,53h1v1h-1z M105,53h1v1h-1z M107,53h1v1h-1z M4,54h1v1h-1z M5,54h1v1h-1z M6,54h1v1h-1z M7,54h1v1h-1z M8,54h1v1h-1z M10,54h1v1h-1z M12,54h1v1h-1z M14,54h1v1h-1z M16,54h1v1h-1z M18,54h1v1h-1z M19,54h1v1h-1z M22,54h1v1h-1z M24,54h1v1h-1z M25,54h1v1h-1z M26,54h1v1h-1z M27,54h1v1h-1z M28,54h1v1h-1z M30,54h1v1h-1z M32,54h1v1h-1z M35,54h1v1h-1z M38,54h1v1h-1z M40,54h1v1h-1z M41,54h1v1h-1z M43,54h1v1h-1z M44,54h1v1h-1z M45,54h1v1h-1z M47,54h1v1h-1z M50,54h1v1h-1z M51,54h1v1h-1z M52,54h1v1h-1z M54,54h1v1h-1z M56,54h1v1h-1z M59,54h1v1h-1z M60,54h1v1h-1z M61,54h1v1h-1z M62,54h1v1h-1z M65,54h1v1h-1z M69,54h1v1h-1z M71,54h1v1h-1z M72,54h1v1h-1z M74,54h1v1h-1z M76,54h1v1h-1z M78,54h1v1h-1z M80,54h1v1h-1z M84,54h1v1h-1z M86,54h1v1h-1z M92,54h1v1h-1z M96,54h1v1h-1z M98,54h1v1h-1z M99,54h1v1h-1z M100,54h1v1h-1z M102,54h1v1h-1z M104,54h1v1h-1z M105,54h1v1h-1z M106,54h1v1h-1z M107,54h1v1h-1z M8,55h1v1h-1z M12,55h1v1h-1z M13,55h1v1h-1z M14,55h1v1h-1z M15,55h1v1h-1z M16,55h1v1h-1z M17,55h1v1h-1z M18,55h1v1h-1z M22,55h1v1h-1z M23,55h1v1h-1z M24,55h1v1h-1z M25,55h1v1h-1z M28,55h1v1h-1z M32,55h1v1h-1z M34,55h1v1h-1z M35,55h1v1h-1z M37,55h1v1h-1z M39,55h1v1h-1z M42,55h1v1h-1z M44,55h1v1h-1z M45,55h1v1h-1z M46,55h1v1h-1z M47,55h1v1h-1z M49,55h1v1h-1z M50,55h1v1h-1z M52,55h1v1h-1z M56,55h1v1h-1z M57,55h1v1h-1z M65,55h1v1h-1z M68,55h1v1h-1z M70,55h1v1h-1z M71,55h1v1h-1z M73,55h1v1h-1z M75,55h1v1h-1z M76,55h1v1h-1z M80,55h1v1h-1z M81,55h1v1h-1z M82,55h1v1h-1z M83,55h1v1h-1z M85,55h1v1h-1z M86,55h1v1h-1z M89,55h1v1h-1z M90,55h1v1h-1z M92,55h1v1h-1z M94,55h1v1h-1z M97,55h1v1h-1z M98,55h1v1h-1z M100,55h1v1h-1z M104,55h1v1h-1z M108,55h1v1h-1z M6,56h1v1h-1z M8,56h1v1h-1z M9,56h1v1h-1z M10,56h1v1h-1z M11,56h1v1h-1z M12,56h1v1h-1z M13,56h1v1h-1z M14,56h1v1h-1z M15,56h1v1h-1z M16,56h1v1h-1z M17,56h1v1h-1z M18,56h1v1h-1z M21,56h1v1h-1z M22,56h1v1h-1z M23,56h1v1h-1z M24,56h1v1h-1z M28,56h1v1h-1z M29,56h1v1h-1z M30,56h1v1h-1z M31,56h1v1h-1z M32,56h1v1h-1z M34,56h1v1h-1z M36,56h1v1h-1z M37,56h1v1h-1z M38,56h1v1h-1z M40,56h1v1h-1z M43,56h1v1h-1z M44,56h1v1h-1z M47,56h1v1h-1z M48,56h1v1h-1z M49,56h1v1h-1z M51,56h1v1h-1z M52,56h1v1h-1z M53,56h1v1h-1z M54,56h1v1h-1z M55,56h1v1h-1z M56,56h1v1h-1z M57,56h1v1h-1z M58,56h1v1h-1z M59,56h1v1h-1z M60,56h1v1h-1z M62,56h1v1h-1z M66,56h1v1h-1z M69,56h1v1h-1z M70,56h1v1h-1z M72,56h1v1h-1z M74,56h1v1h-1z M76,56h1v1h-1z M77,56h1v1h-1z M78,56h1v1h-1z M79,56h1v1h-1z M80,56h1v1h-1z M83,56h1v1h-1z M87,56h1v1h-1z M89,56h1v1h-1z M90,56h1v1h-1z M91,56h1v1h-1z M94,56h1v1h-1z M95,56h1v1h-1z M96,56h1v1h-1z M97,56h1v1h-1z M100,56h1v1h-1z M101,56h1v1h-1z M102,56h1v1h-1z M103,56h1v1h-1z M104,56h1v1h-1z M108,56h1v1h-1z M4,57h1v1h-1z M5,57h1v1h-1z M8,57h1v1h-1z M9,57h1v1h-1z M11,57h1v1h-1z M14,57h1v1h-1z M15,57h1v1h-1z M17,57h1v1h-1z M18,57h1v1h-1z M20,57h1v1h-1z M22,57h1v1h-1z M25,57h1v1h-1z M26,57h1v1h-1z M27,57h1v1h-1z M29,57h1v1h-1z M31,57h1v1h-1z M34,57h1v1h-1z M35,57h1v1h-1z M37,57h1v1h-1z M42,57h1v1h-1z M46,57h1v1h-1z M48,57h1v1h-1z M51,57h1v1h-1z M53,57h1v1h-1z M54,57h1v1h-1z M57,57h1v1h-1z M60,57h1v1h-1z M61,57h1v1h-1z M62,57h1v1h-1z M64,57h1v1h-1z M65,57h1v1h-1z M66,57h1v1h-1z M70,57h1v1h-1z M71,57h1v1h-1z M72,57h1v1h-1z M79,57h1v1h-1z M84,57h1v1h-1z M86,57h1v1h-1z M87,57h1v1h-1z M89,57h1v1h-1z M90,57h1v1h-1z M95,57h1v1h-1z M99,57h1v1h-1z M100,57h1v1h-1z M102,57h1v1h-1z M105,57h1v1h-1z M107,57h1v1h-1z M108,57h1v1h-1z M8,58h1v1h-1z M10,58h1v1h-1z M11,58h1v1h-1z M14,58h1v1h-1z M18,58h1v1h-1z M19,58h1v1h-1z M20,58h1v1h-1z M22,58h1v1h-1z M23,58h1v1h-1z M30,58h1v1h-1z M32,58h1v1h-1z M33,58h1v1h-1z M35,58h1v1h-1z M36,58h1v1h-1z M38,58h1v1h-1z M39,58h1v1h-1z M40,58h1v1h-1z M41,58h1v1h-1z M43,58h1v1h-1z M48,58h1v1h-1z M50,58h1v1h-1z M55,58h1v1h-1z M56,58h1v1h-1z M57,58h1v1h-1z M59,58h1v1h-1z M62,58h1v1h-1z M64,58h1v1h-1z M65,58h1v1h-1z M67,58h1v1h-1z M71,58h1v1h-1z M72,58h1v1h-1z M74,58h1v1h-1z M75,58h1v1h-1z M77,58h1v1h-1z M80,58h1v1h-1z M84,58h1v1h-1z M86,58h1v1h-1z M88,58h1v1h-1z M89,58h1v1h-1z M91,58h1v1h-1z M92,58h1v1h-1z M97,58h1v1h-1z M98,58h1v1h-1z M99,58h1v1h-1z M102,58h1v1h-1z M103,58h1v1h-1z M104,58h1v1h-1z M106,58h1v1h-1z M107,58h1v1h-1z M4,59h1v1h-1z M5,59h1v1h-1z M6,59h1v1h-1z M7,59h1v1h-1z M8,59h1v1h-1z M12,59h1v1h-1z M13,59h1v1h-1z M15,59h1v1h-1z M16,59h1v1h-1z M17,59h1v1h-1z M23,59h1v1h-1z M24,59h1v1h-1z M29,59h1v1h-1z M32,59h1v1h-1z M34,59h1v1h-1z M35,59h1v1h-1z M37,59h1v1h-1z M38,59h1v1h-1z M42,59h1v1h-1z M44,59h1v1h-1z M46,59h1v1h-1z M47,59h1v1h-1z M52,59h1v1h-1z M53,59h1v1h-1z M56,59h1v1h-1z M58,59h1v1h-1z M59,59h1v1h-1z M61,59h1v1h-1z M62,59h1v1h-1z M65,59h1v1h-1z M67,59h1v1h-1z M68,59h1v1h-1z M69,59h1v1h-1z M73,59h1v1h-1z M74,59h1v1h-1z M75,59h1v1h-1z M76,59h1v1h-1z M79,59h1v1h-1z M80,59h1v1h-1z M86,59h1v1h-1z M89,59h1v1h-1z M92,59h1v1h-1z M93,59h1v1h-1z M94,59h1v1h-1z M95,59h1v1h-1z M97,59h1v1h-1z M101,59h1v1h-1z M103,59h1v1h-1z M107,59h1v1h-1z M4,60h1v1h-1z M5,60h1v1h-1z M8,60h1v1h-1z M10,60h1v1h-1z M14,60h1v1h-1z M17,60h1v1h-1z M20,60h1v1h-1z M21,60h1v1h-1z M23,60h1v1h-1z M24,60h1v1h-1z M26,60h1v1h-1z M27,60h1v1h-1z M28,60h1v1h-1z M30,60h1v1h-1z M31,60h1v1h-1z M32,60h1v1h-1z M34,60h1v1h-1z M35,60h1v1h-1z M36,60h1v1h-1z M37,60h1v1h-1z M39,60h1v1h-1z M40,60h1v1h-1z M41,60h1v1h-1z M43,60h1v1h-1z M45,60h1v1h-1z M46,60h1v1h-1z M48,60h1v1h-1z M49,60h1v1h-1z M50,60h1v1h-1z M52,60h1v1h-1z M54,60h1v1h-1z M59,60h1v1h-1z M60,60h1v1h-1z M61,60h1v1h-1z M63,60h1v1h-1z M64,60h1v1h-1z M66,60h1v1h-1z M67,60h1v1h-1z M68,60h1v1h-1z M70,60h1v1h-1z M71,60h1v1h-1z M73,60h1v1h-1z M76,60h1v1h-1z M78,60h1v1h-1z M82,60h1v1h-1z M83,60h1v1h-1z M84,60h1v1h-1z M87,60h1v1h-1z M88,60h1v1h-1z M89,60h1v1h-1z M91,60h1v1h-1z M96,60h1v1h-1z M97,60h1v1h-1z M99,60h1v1h-1z M100,60h1v1h-1z M101,60h1v1h-1z M102,60h1v1h-1z M103,60h1v1h-1z M107,60h1v1h-1z M4,61h1v1h-1z M6,61h1v1h-1z M8,61h1v1h-1z M9,61h1v1h-1z M11,61h1v1h-1z M13,61h1v1h-1z M14,61h1v1h-1z M18,61h1v1h-1z M21,61h1v1h-1z M22,61h1v1h-1z M27,61h1v1h-1z M28,61h1v1h-1z M31,61h1v1h-1z M33,61h1v1h-1z M36,61h1v1h-1z M39,61h1v1h-1z M40,61h1v1h-1z M41,61h1v1h-1z M42,61h1v1h-1z M43,61h1v1h-1z M45,61h1v1h-1z M47,61h1v1h-1z M48,61h1v1h-1z M49,61h1v1h-1z M50,61h1v1h-1z M52,61h1v1h-1z M53,61h1v1h-1z M55,61h1v1h-1z M57,61h1v1h-1z M58,61h1v1h-1z M59,61h1v1h-1z M61,61h1v1h-1z M65,61h1v1h-1z M69,61h1v1h-1z M70,61h1v1h-1z M72,61h1v1h-1z M73,61h1v1h-1z M74,61h1v1h-1z M79,61h1v1h-1z M81,61h1v1h-1z M83,61h1v1h-1z M85,61h1v1h-1z M88,61h1v1h-1z M93,61h1v1h-1z M94,61h1v1h-1z M95,61h1v1h-1z M97,61h1v1h-1z M99,61h1v1h-1z M100,61h1v1h-1z M102,61h1v1h-1z M103,61h1v1h-1z M106,61h1v1h-1z M4,62h1v1h-1z M7,62h1v1h-1z M10,62h1v1h-1z M13,62h1v1h-1z M17,62h1v1h-1z M18,62h1v1h-1z M19,62h1v1h-1z M22,62h1v1h-1z M23,62h1v1h-1z M24,62h1v1h-1z M29,62h1v1h-1z M35,62h1v1h-1z M38,62h1v1h-1z M39,62h1v1h-1z M40,62h1v1h-1z M41,62h1v1h-1z M44,62h1v1h-1z M47,62h1v1h-1z M48,62h1v1h-1z M49,62h1v1h-1z M50,62h1v1h-1z M53,62h1v1h-1z M55,62h1v1h-1z M56,62h1v1h-1z M60,62h1v1h-1z M62,62h1v1h-1z M63,62h1v1h-1z M65,62h1v1h-1z M67,62h1v1h-1z M72,62h1v1h-1z M74,62h1v1h-1z M78,62h1v1h-1z M80,62h1v1h-1z M81,62h1v1h-1z M83,62h1v1h-1z M86,62h1v1h-1z M88,62h1v1h-1z M89,62h1v1h-1z M93,62h1v1h-1z M96,62h1v1h-1z M97,62h1v1h-1z M98,62h1v1h-1z M103,62h1v1h-1z M106,62h1v1h-1z M107,62h1v1h-1z M5,63h1v1h-1z M6,63h1v1h-1z M9,63h1v1h-1z M12,63h1v1h-1z M13,63h1v1h-1z M19,63h1v1h-1z M23,63h1v1h-1z M24,63h1v1h-1z M25,63h1v1h-1z M32,63h1v1h-1z M34,63h1v1h-1z M35,63h1v1h-1z M37,63h1v1h-1z M41,63h1v1h-1z M42,63h1v1h-1z M44,63h1v1h-1z M45,63h1v1h-1z M47,63h1v1h-1z M51,63h1v1h-1z M53,63h1v1h-1z M54,63h1v1h-1z M55,63h1v1h-1z M59,63h1v1h-1z M61,63h1v1h-1z M62,63h1v1h-1z M68,63h1v1h-1z M70,63h1v1h-1z M71,63h1v1h-1z M73,63h1v1h-1z M76,63h1v1h-1z M79,63h1v1h-1z M80,63h1v1h-1z M82,63h1v1h-1z M83,63h1v1h-1z M86,63h1v1h-1z M92,63h1v1h-1z M94,63h1v1h-1z M95,63h1v1h-1z M99,63h1v1h-1z M101,63h1v1h-1z M102,63h1v1h-1z M5,64h1v1h-1z M8,64h1v1h-1z M10,64h1v1h-1z M11,64h1v1h-1z M13,64h1v1h-1z M15,64h1v1h-1z M16,64h1v1h-1z M20,64h1v1h-1z M21,64h1v1h-1z M24,64h1v1h-1z M25,64h1v1h-1z M26,64h1v1h-1z M27,64h1v1h-1z M28,64h1v1h-1z M30,64h1v1h-1z M31,64h1v1h-1z M32,64h1v1h-1z M33,64h1v1h-1z M34,64h1v1h-1z M35,64h1v1h-1z M38,64h1v1h-1z M41,64h1v1h-1z M48,64h1v1h-1z M49,64h1v1h-1z M52,64h1v1h-1z M54,64h1v1h-1z M57,64h1v1h-1z M58,64h1v1h-1z M64,64h1v1h-1z M66,64h1v1h-1z M67,64h1v1h-1z M70,64h1v1h-1z M75,64h1v1h-1z M76,64h1v1h-1z M78,64h1v1h-1z M80,64h1v1h-1z M83,64h1v1h-1z M84,64h1v1h-1z M85,64h1v1h-1z M87,64h1v1h-1z M89,64h1v1h-1z M91,64h1v1h-1z M93,64h1v1h-1z M96,64h1v1h-1z M98,64h1v1h-1z M99,64h1v1h-1z M105,64h1v1h-1z M108,64h1v1h-1z M4,65h1v1h-1z M5,65h1v1h-1z M6,65h1v1h-1z M9,65h1v1h-1z M14,65h1v1h-1z M15,65h1v1h-1z M17,65h1v1h-1z M18,65h1v1h-1z M20,65h1v1h-1z M25,65h1v1h-1z M28,65h1v1h-1z M31,65h1v1h-1z M34,65h1v1h-1z M36,65h1v1h-1z M42,65h1v1h-1z M43,65h1v1h-1z M44,65h1v1h-1z M47,65h1v1h-1z M48,65h1v1h-1z M52,65h1v1h-1z M53,65h1v1h-1z M55,65h1v1h-1z M57,65h1v1h-1z M59,65h1v1h-1z M60,65h1v1h-1z M61,65h1v1h-1z M63,65h1v1h-1z M64,65h1v1h-1z M65,65h1v1h-1z M68,65h1v1h-1z M71,65h1v1h-1z M72,65h1v1h-1z M74,65h1v1h-1z M81,65h1v1h-1z M83,65h1v1h-1z M87,65h1v1h-1z M93,65h1v1h-1z M96,65h1v1h-1z M97,65h1v1h-1z M99,65h1v1h-1z M100,65h1v1h-1z M101,65h1v1h-1z M102,65h1v1h-1z M104,65h1v1h-1z M105,65h1v1h-1z M106,65h1v1h-1z M107,65h1v1h-1z M108,65h1v1h-1z M4,66h1v1h-1z M6,66h1v1h-1z M10,66h1v1h-1z M11,66h1v1h-1z M12,66h1v1h-1z M14,66h1v1h-1z M20,66h1v1h-1z M22,66h1v1h-1z M24,66h1v1h-1z M25,66h1v1h-1z M30,66h1v1h-1z M32,66h1v1h-1z M35,66h1v1h-1z M36,66h1v1h-1z M38,66h1v1h-1z M39,66h1v1h-1z M40,66h1v1h-1z M43,66h1v1h-1z M48,66h1v1h-1z M50,66h1v1h-1z M55,66h1v1h-1z M59,66h1v1h-1z M62,66h1v1h-1z M64,66h1v1h-1z M65,66h1v1h-1z M68,66h1v1h-1z M69,66h1v1h-1z M74,66h1v1h-1z M79,66h1v1h-1z M81,66h1v1h-1z M83,66h1v1h-1z M86,66h1v1h-1z M89,66h1v1h-1z M95,66h1v1h-1z M98,66h1v1h-1z M101,66h1v1h-1z M102,66h1v1h-1z M105,66h1v1h-1z M106,66h1v1h-1z M107,66h1v1h-1z M5,67h1v1h-1z M6,67h1v1h-1z M7,67h1v1h-1z M9,67h1v1h-1z M11,67h1v1h-1z M14,67h1v1h-1z M16,67h1v1h-1z M17,67h1v1h-1z M19,67h1v1h-1z M20,67h1v1h-1z M21,67h1v1h-1z M22,67h1v1h-1z M23,67h1v1h-1z M24,67h1v1h-1z M32,67h1v1h-1z M33,67h1v1h-1z M34,67h1v1h-1z M41,67h1v1h-1z M42,67h1v1h-1z M44,67h1v1h-1z M45,67h1v1h-1z M47,67h1v1h-1z M49,67h1v1h-1z M51,67h1v1h-1z M52,67h1v1h-1z M56,67h1v1h-1z M57,67h1v1h-1z M58,67h1v1h-1z M59,67h1v1h-1z M61,67h1v1h-1z M62,67h1v1h-1z M66,67h1v1h-1z M68,67h1v1h-1z M70,67h1v1h-1z M71,67h1v1h-1z M73,67h1v1h-1z M75,67h1v1h-1z M78,67h1v1h-1z M79,67h1v1h-1z M80,67h1v1h-1z M82,67h1v1h-1z M83,67h1v1h-1z M85,67h1v1h-1z M89,67h1v1h-1z M90,67h1v1h-1z M92,67h1v1h-1z M93,67h1v1h-1z M94,67h1v1h-1z M95,67h1v1h-1z M97,67h1v1h-1z M99,67h1v1h-1z M101,67h1v1h-1z M102,67h1v1h-1z M104,67h1v1h-1z M5,68h1v1h-1z M8,68h1v1h-1z M9,68h1v1h-1z M10,68h1v1h-1z M11,68h1v1h-1z M16,68h1v1h-1z M18,68h1v1h-1z M21,68h1v1h-1z M22,68h1v1h-1z M23,68h1v1h-1z M25,68h1v1h-1z M26,68h1v1h-1z M28,68h1v1h-1z M30,68h1v1h-1z M31,68h1v1h-1z M33,68h1v1h-1z M34,68h1v1h-1z M35,68h1v1h-1z M37,68h1v1h-1z M45,68h1v1h-1z M46,68h1v1h-1z M50,68h1v1h-1z M51,68h1v1h-1z M52,68h1v1h-1z M54,68h1v1h-1z M56,68h1v1h-1z M58,68h1v1h-1z M59,68h1v1h-1z M60,68h1v1h-1z M62,68h1v1h-1z M63,68h1v1h-1z M64,68h1v1h-1z M69,68h1v1h-1z M70,68h1v1h-1z M71,68h1v1h-1z M72,68h1v1h-1z M74,68h1v1h-1z M75,68h1v1h-1z M76,68h1v1h-1z M78,68h1v1h-1z M79,68h1v1h-1z M80,68h1v1h-1z M91,68h1v1h-1z M99,68h1v1h-1z M103,68h1v1h-1z M105,68h1v1h-1z M106,68h1v1h-1z M107,68h1v1h-1z M4,69h1v1h-1z M5,69h1v1h-1z M6,69h1v1h-1z M7,69h1v1h-1z M8,69h1v1h-1z M16,69h1v1h-1z M17,69h1v1h-1z M18,69h1v1h-1z M19,69h1v1h-1z M20,69h1v1h-1z M22,69h1v1h-1z M24,69h1v1h-1z M25,69h1v1h-1z M27,69h1v1h-1z M29,69h1v1h-1z M30,69h1v1h-1z M31,69h1v1h-1z M33,69h1v1h-1z M35,69h1v1h-1z M36,69h1v1h-1z M37,69h1v1h-1z M38,69h1v1h-1z M39,69h1v1h-1z M41,69h1v1h-1z M42,69h1v1h-1z M45,69h1v1h-1z M48,69h1v1h-1z M51,69h1v1h-1z M52,69h1v1h-1z M53,69h1v1h-1z M55,69h1v1h-1z M57,69h1v1h-1z M58,69h1v1h-1z M60,69h1v1h-1z M62,69h1v1h-1z M64,69h1v1h-1z M66,69h1v1h-1z M68,69h1v1h-1z M71,69h1v1h-1z M75,69h1v1h-1z M78,69h1v1h-1z M79,69h1v1h-1z M85,69h1v1h-1z M86,69h1v1h-1z M89,69h1v1h-1z M91,69h1v1h-1z M94,69h1v1h-1z M95,69h1v1h-1z M97,69h1v1h-1z M98,69h1v1h-1z M100,69h1v1h-1z M102,69h1v1h-1z M104,69h1v1h-1z M107,69h1v1h-1z M4,70h1v1h-1z M9,70h1v1h-1z M10,70h1v1h-1z M12,70h1v1h-1z M14,70h1v1h-1z M16,70h1v1h-1z M19,70h1v1h-1z M20,70h1v1h-1z M21,70h1v1h-1z M23,70h1v1h-1z M26,70h1v1h-1z M27,70h1v1h-1z M29,70h1v1h-1z M31,70h1v1h-1z M32,70h1v1h-1z M35,70h1v1h-1z M36,70h1v1h-1z M38,70h1v1h-1z M39,70h1v1h-1z M40,70h1v1h-1z M41,70h1v1h-1z M43,70h1v1h-1z M48,70h1v1h-1z M50,70h1v1h-1z M53,70h1v1h-1z M56,70h1v1h-1z M62,70h1v1h-1z M63,70h1v1h-1z M65,70h1v1h-1z M71,70h1v1h-1z M73,70h1v1h-1z M74,70h1v1h-1z M77,70h1v1h-1z M80,70h1v1h-1z M83,70h1v1h-1z M84,70h1v1h-1z M85,70h1v1h-1z M86,70h1v1h-1z M87,70h1v1h-1z M88,70h1v1h-1z M89,70h1v1h-1z M95,70h1v1h-1z M96,70h1v1h-1z M98,70h1v1h-1z M99,70h1v1h-1z M100,70h1v1h-1z M101,70h1v1h-1z M102,70h1v1h-1z M104,70h1v1h-1z M107,70h1v1h-1z M108,70h1v1h-1z M5,71h1v1h-1z M6,71h1v1h-1z M8,71h1v1h-1z M11,71h1v1h-1z M12,71h1v1h-1z M14,71h1v1h-1z M15,71h1v1h-1z M17,71h1v1h-1z M20,71h1v1h-1z M21,71h1v1h-1z M23,71h1v1h-1z M24,71h1v1h-1z M25,71h1v1h-1z M26,71h1v1h-1z M27,71h1v1h-1z M28,71h1v1h-1z M29,71h1v1h-1z M30,71h1v1h-1z M32,71h1v1h-1z M33,71h1v1h-1z M34,71h1v1h-1z M37,71h1v1h-1z M41,71h1v1h-1z M43,71h1v1h-1z M44,71h1v1h-1z M45,71h1v1h-1z M46,71h1v1h-1z M47,71h1v1h-1z M53,71h1v1h-1z M54,71h1v1h-1z M55,71h1v1h-1z M57,71h1v1h-1z M58,71h1v1h-1z M59,71h1v1h-1z M62,71h1v1h-1z M65,71h1v1h-1z M68,71h1v1h-1z M69,71h1v1h-1z M71,71h1v1h-1z M75,71h1v1h-1z M76,71h1v1h-1z M77,71h1v1h-1z M79,71h1v1h-1z M82,71h1v1h-1z M83,71h1v1h-1z M89,71h1v1h-1z M91,71h1v1h-1z M92,71h1v1h-1z M93,71h1v1h-1z M94,71h1v1h-1z M95,71h1v1h-1z M97,71h1v1h-1z M99,71h1v1h-1z M100,71h1v1h-1z M107,71h1v1h-1z M108,71h1v1h-1z M6,72h1v1h-1z M7,72h1v1h-1z M10,72h1v1h-1z M11,72h1v1h-1z M16,72h1v1h-1z M17,72h1v1h-1z M18,72h1v1h-1z M22,72h1v1h-1z M23,72h1v1h-1z M25,72h1v1h-1z M26,72h1v1h-1z M28,72h1v1h-1z M30,72h1v1h-1z M32,72h1v1h-1z M33,72h1v1h-1z M34,72h1v1h-1z M35,72h1v1h-1z M36,72h1v1h-1z M39,72h1v1h-1z M40,72h1v1h-1z M42,72h1v1h-1z M45,72h1v1h-1z M46,72h1v1h-1z M47,72h1v1h-1z M49,72h1v1h-1z M51,72h1v1h-1z M54,72h1v1h-1z M57,72h1v1h-1z M58,72h1v1h-1z M59,72h1v1h-1z M60,72h1v1h-1z M64,72h1v1h-1z M65,72h1v1h-1z M68,72h1v1h-1z M70,72h1v1h-1z M73,72h1v1h-1z M74,72h1v1h-1z M78,72h1v1h-1z M79,72h1v1h-1z M81,72h1v1h-1z M83,72h1v1h-1z M85,72h1v1h-1z M87,72h1v1h-1z M91,72h1v1h-1z M92,72h1v1h-1z M93,72h1v1h-1z M94,72h1v1h-1z M95,72h1v1h-1z M98,72h1v1h-1z M100,72h1v1h-1z M102,72h1v1h-1z M103,72h1v1h-1z M106,72h1v1h-1z M107,72h1v1h-1z M108,72h1v1h-1z M5,73h1v1h-1z M6,73h1v1h-1z M7,73h1v1h-1z M8,73h1v1h-1z M9,73h1v1h-1z M13,73h1v1h-1z M14,73h1v1h-1z M16,73h1v1h-1z M17,73h1v1h-1z M21,73h1v1h-1z M23,73h1v1h-1z M27,73h1v1h-1z M29,73h1v1h-1z M35,73h1v1h-1z M36,73h1v1h-1z M38,73h1v1h-1z M41,73h1v1h-1z M42,73h1v1h-1z M44,73h1v1h-1z M45,73h1v1h-1z M48,73h1v1h-1z M49,73h1v1h-1z M54,73h1v1h-1z M55,73h1v1h-1z M58,73h1v1h-1z M61,73h1v1h-1z M62,73h1v1h-1z M63,73h1v1h-1z M64,73h1v1h-1z M65,73h1v1h-1z M66,73h1v1h-1z M67,73h1v1h-1z M68,73h1v1h-1z M69,73h1v1h-1z M71,73h1v1h-1z M73,73h1v1h-1z M77,73h1v1h-1z M78,73h1v1h-1z M79,73h1v1h-1z M81,73h1v1h-1z M82,73h1v1h-1z M83,73h1v1h-1z M84,73h1v1h-1z M85,73h1v1h-1z M88,73h1v1h-1z M89,73h1v1h-1z M91,73h1v1h-1z M92,73h1v1h-1z M97,73h1v1h-1z M99,73h1v1h-1z M100,73h1v1h-1z M102,73h1v1h-1z M103,73h1v1h-1z M105,73h1v1h-1z M106,73h1v1h-1z M4,74h1v1h-1z M5,74h1v1h-1z M7,74h1v1h-1z M9,74h1v1h-1z M10,74h1v1h-1z M12,74h1v1h-1z M14,74h1v1h-1z M15,74h1v1h-1z M16,74h1v1h-1z M18,74h1v1h-1z M19,74h1v1h-1z M21,74h1v1h-1z M22,74h1v1h-1z M23,74h1v1h-1z M24,74h1v1h-1z M25,74h1v1h-1z M27,74h1v1h-1z M29,74h1v1h-1z M31,74h1v1h-1z M35,74h1v1h-1z M36,74h1v1h-1z M38,74h1v1h-1z M39,74h1v1h-1z M40,74h1v1h-1z M41,74h1v1h-1z M48,74h1v1h-1z M49,74h1v1h-1z M50,74h1v1h-1z M56,74h1v1h-1z M57,74h1v1h-1z M62,74h1v1h-1z M64,74h1v1h-1z M65,74h1v1h-1z M67,74h1v1h-1z M68,74h1v1h-1z M74,74h1v1h-1z M78,74h1v1h-1z M84,74h1v1h-1z M86,74h1v1h-1z M87,74h1v1h-1z M89,74h1v1h-1z M91,74h1v1h-1z M93,74h1v1h-1z M96,74h1v1h-1z M98,74h1v1h-1z M100,74h1v1h-1z M101,74h1v1h-1z M102,74h1v1h-1z M103,74h1v1h-1z M104,74h1v1h-1z M105,74h1v1h-1z M4,75h1v1h-1z M6,75h1v1h-1z M11,75h1v1h-1z M13,75h1v1h-1z M14,75h1v1h-1z M15,75h1v1h-1z M22,75h1v1h-1z M23,75h1v1h-1z M25,75h1v1h-1z M26,75h1v1h-1z M29,75h1v1h-1z M31,75h1v1h-1z M32,75h1v1h-1z M33,75h1v1h-1z M38,75h1v1h-1z M41,75h1v1h-1z M43,75h1v1h-1z M44,75h1v1h-1z M46,75h1v1h-1z M47,75h1v1h-1z M51,75h1v1h-1z M53,75h1v1h-1z M54,75h1v1h-1z M55,75h1v1h-1z M56,75h1v1h-1z M58,75h1v1h-1z M59,75h1v1h-1z M63,75h1v1h-1z M66,75h1v1h-1z M68,75h1v1h-1z M70,75h1v1h-1z M71,75h1v1h-1z M74,75h1v1h-1z M75,75h1v1h-1z M79,75h1v1h-1z M80,75h1v1h-1z M82,75h1v1h-1z M83,75h1v1h-1z M86,75h1v1h-1z M92,75h1v1h-1z M94,75h1v1h-1z M95,75h1v1h-1z M97,75h1v1h-1z M98,75h1v1h-1z M103,75h1v1h-1z M107,75h1v1h-1z M108,75h1v1h-1z M5,76h1v1h-1z M8,76h1v1h-1z M9,76h1v1h-1z M10,76h1v1h-1z M11,76h1v1h-1z M12,76h1v1h-1z M17,76h1v1h-1z M18,76h1v1h-1z M22,76h1v1h-1z M26,76h1v1h-1z M28,76h1v1h-1z M29,76h1v1h-1z M30,76h1v1h-1z M31,76h1v1h-1z M32,76h1v1h-1z M34,76h1v1h-1z M35,76h1v1h-1z M38,76h1v1h-1z M39,76h1v1h-1z M40,76h1v1h-1z M41,76h1v1h-1z M42,76h1v1h-1z M46,76h1v1h-1z M48,76h1v1h-1z M50,76h1v1h-1z M52,76h1v1h-1z M53,76h1v1h-1z M54,76h1v1h-1z M55,76h1v1h-1z M56,76h1v1h-1z M58,76h1v1h-1z M59,76h1v1h-1z M60,76h1v1h-1z M61,76h1v1h-1z M62,76h1v1h-1z M63,76h1v1h-1z M64,76h1v1h-1z M66,76h1v1h-1z M68,76h1v1h-1z M72,76h1v1h-1z M75,76h1v1h-1z M76,76h1v1h-1z M77,76h1v1h-1z M78,76h1v1h-1z M79,76h1v1h-1z M80,76h1v1h-1z M81,76h1v1h-1z M82,76h1v1h-1z M83,76h1v1h-1z M85,76h1v1h-1z M89,76h1v1h-1z M91,76h1v1h-1z M92,76h1v1h-1z M93,76h1v1h-1z M95,76h1v1h-1z M96,76h1v1h-1z M98,76h1v1h-1z M100,76h1v1h-1z M101,76h1v1h-1z M102,76h1v1h-1z M103,76h1v1h-1z M104,76h1v1h-1z M108,76h1v1h-1z M5,77h1v1h-1z M8,77h1v1h-1z M12,77h1v1h-1z M15,77h1v1h-1z M16,77h1v1h-1z M20,77h1v1h-1z M25,77h1v1h-1z M27,77h1v1h-1z M28,77h1v1h-1z M32,77h1v1h-1z M33,77h1v1h-1z M34,77h1v1h-1z M35,77h1v1h-1z M36,77h1v1h-1z M39,77h1v1h-1z M40,77h1v1h-1z M41,77h1v1h-1z M43,77h1v1h-1z M45,77h1v1h-1z M46,77h1v1h-1z M48,77h1v1h-1z M50,77h1v1h-1z M51,77h1v1h-1z M52,77h1v1h-1z M56,77h1v1h-1z M57,77h1v1h-1z M59,77h1v1h-1z M61,77h1v1h-1z M62,77h1v1h-1z M63,77h1v1h-1z M64,77h1v1h-1z M65,77h1v1h-1z M66,77h1v1h-1z M67,77h1v1h-1z M70,77h1v1h-1z M72,77h1v1h-1z M73,77h1v1h-1z M74,77h1v1h-1z M76,77h1v1h-1z M80,77h1v1h-1z M82,77h1v1h-1z M83,77h1v1h-1z M87,77h1v1h-1z M88,77h1v1h-1z M89,77h1v1h-1z M91,77h1v1h-1z M93,77h1v1h-1z M95,77h1v1h-1z M96,77h1v1h-1z M99,77h1v1h-1z M100,77h1v1h-1z M104,77h1v1h-1z M106,77h1v1h-1z M107,77h1v1h-1z M4,78h1v1h-1z M6,78h1v1h-1z M7,78h1v1h-1z M8,78h1v1h-1z M10,78h1v1h-1z M12,78h1v1h-1z M15,78h1v1h-1z M17,78h1v1h-1z M18,78h1v1h-1z M22,78h1v1h-1z M23,78h1v1h-1z M24,78h1v1h-1z M25,78h1v1h-1z M26,78h1v1h-1z M27,78h1v1h-1z M28,78h1v1h-1z M30,78h1v1h-1z M32,78h1v1h-1z M33,78h1v1h-1z M36,78h1v1h-1z M38,78h1v1h-1z M40,78h1v1h-1z M41,78h1v1h-1z M43,78h1v1h-1z M45,78h1v1h-1z M48,78h1v1h-1z M50,78h1v1h-1z M52,78h1v1h-1z M54,78h1v1h-1z M56,78h1v1h-1z M59,78h1v1h-1z M61,78h1v1h-1z M62,78h1v1h-1z M63,78h1v1h-1z M67,78h1v1h-1z M68,78h1v1h-1z M74,78h1v1h-1z M75,78h1v1h-1z M76,78h1v1h-1z M78,78h1v1h-1z M80,78h1v1h-1z M81,78h1v1h-1z M86,78h1v1h-1z M88,78h1v1h-1z M89,78h1v1h-1z M95,78h1v1h-1z M96,78h1v1h-1z M98,78h1v1h-1z M100,78h1v1h-1z M102,78h1v1h-1z M104,78h1v1h-1z M105,78h1v1h-1z M106,78h1v1h-1z M107,78h1v1h-1z M5,79h1v1h-1z M8,79h1v1h-1z M12,79h1v1h-1z M15,79h1v1h-1z M17,79h1v1h-1z M18,79h1v1h-1z M20,79h1v1h-1z M21,79h1v1h-1z M25,79h1v1h-1z M26,79h1v1h-1z M27,79h1v1h-1z M28,79h1v1h-1z M32,79h1v1h-1z M34,79h1v1h-1z M35,79h1v1h-1z M42,79h1v1h-1z M43,79h1v1h-1z M44,79h1v1h-1z M46,79h1v1h-1z M47,79h1v1h-1z M49,79h1v1h-1z M50,79h1v1h-1z M52,79h1v1h-1z M56,79h1v1h-1z M59,79h1v1h-1z M65,79h1v1h-1z M66,79h1v1h-1z M68,79h1v1h-1z M69,79h1v1h-1z M70,79h1v1h-1z M71,79h1v1h-1z M73,79h1v1h-1z M74,79h1v1h-1z M75,79h1v1h-1z M76,79h1v1h-1z M80,79h1v1h-1z M82,79h1v1h-1z M83,79h1v1h-1z M86,79h1v1h-1z M87,79h1v1h-1z M90,79h1v1h-1z M91,79h1v1h-1z M92,79h1v1h-1z M93,79h1v1h-1z M94,79h1v1h-1z M95,79h1v1h-1z M97,79h1v1h-1z M98,79h1v1h-1z M99,79h1v1h-1z M100,79h1v1h-1z M104,79h1v1h-1z M4,80h1v1h-1z M5,80h1v1h-1z M8,80h1v1h-1z M9,80h1v1h-1z M10,80h1v1h-1z M11,80h1v1h-1z M12,80h1v1h-1z M13,80h1v1h-1z M14,80h1v1h-1z M15,80h1v1h-1z M17,80h1v1h-1z M19,80h1v1h-1z M21,80h1v1h-1z M22,80h1v1h-1z M25,80h1v1h-1z M26,80h1v1h-1z M27,80h1v1h-1z M28,80h1v1h-1z M29,80h1v1h-1z M30,80h1v1h-1z M31,80h1v1h-1z M32,80h1v1h-1z M33,80h1v1h-1z M34,80h1v1h-1z M37,80h1v1h-1z M38,80h1v1h-1z M42,80h1v1h-1z M43,80h1v1h-1z M44,80h1v1h-1z M46,80h1v1h-1z M47,80h1v1h-1z M50,80h1v1h-1z M51,80h1v1h-1z M52,80h1v1h-1z M53,80h1v1h-1z M54,80h1v1h-1z M55,80h1v1h-1z M56,80h1v1h-1z M57,80h1v1h-1z M58,80h1v1h-1z M61,80h1v1h-1z M62,80h1v1h-1z M64,80h1v1h-1z M65,80h1v1h-1z M66,80h1v1h-1z M67,80h1v1h-1z M68,80h1v1h-1z M69,80h1v1h-1z M70,80h1v1h-1z M73,80h1v1h-1z M75,80h1v1h-1z M76,80h1v1h-1z M77,80h1v1h-1z M78,80h1v1h-1z M79,80h1v1h-1z M80,80h1v1h-1z M81,80h1v1h-1z M82,80h1v1h-1z M86,80h1v1h-1z M89,80h1v1h-1z M91,80h1v1h-1z M92,80h1v1h-1z M94,80h1v1h-1z M97,80h1v1h-1z M100,80h1v1h-1z M101,80h1v1h-1z M102,80h1v1h-1z M103,80h1v1h-1z M104,80h1v1h-1z M105,80h1v1h-1z M107,80h1v1h-1z M8,81h1v1h-1z M9,81h1v1h-1z M11,81h1v1h-1z M14,81h1v1h-1z M15,81h1v1h-1z M18,81h1v1h-1z M19,81h1v1h-1z M21,81h1v1h-1z M22,81h1v1h-1z M24,81h1v1h-1z M26,81h1v1h-1z M30,81h1v1h-1z M31,81h1v1h-1z M32,81h1v1h-1z M33,81h1v1h-1z M35,81h1v1h-1z M37,81h1v1h-1z M38,81h1v1h-1z M40,81h1v1h-1z M41,81h1v1h-1z M44,81h1v1h-1z M45,81h1v1h-1z M48,81h1v1h-1z M50,81h1v1h-1z M53,81h1v1h-1z M54,81h1v1h-1z M57,81h1v1h-1z M58,81h1v1h-1z M59,81h1v1h-1z M61,81h1v1h-1z M63,81h1v1h-1z M66,81h1v1h-1z M70,81h1v1h-1z M72,81h1v1h-1z M78,81h1v1h-1z M80,81h1v1h-1z M87,81h1v1h-1z M88,81h1v1h-1z M90,81h1v1h-1z M93,81h1v1h-1z M94,81h1v1h-1z M95,81h1v1h-1z M96,81h1v1h-1z M98,81h1v1h-1z M99,81h1v1h-1z M105,81h1v1h-1z M106,81h1v1h-1z M7,82h1v1h-1z M8,82h1v1h-1z M9,82h1v1h-1z M10,82h1v1h-1z M11,82h1v1h-1z M12,82h1v1h-1z M13,82h1v1h-1z M14,82h1v1h-1z M20,82h1v1h-1z M23,82h1v1h-1z M25,82h1v1h-1z M26,82h1v1h-1z M27,82h1v1h-1z M30,82h1v1h-1z M32,82h1v1h-1z M38,82h1v1h-1z M39,82h1v1h-1z M41,82h1v1h-1z M43,82h1v1h-1z M48,82h1v1h-1z M49,82h1v1h-1z M50,82h1v1h-1z M54,82h1v1h-1z M56,82h1v1h-1z M62,82h1v1h-1z M65,82h1v1h-1z M74,82h1v1h-1z M75,82h1v1h-1z M78,82h1v1h-1z M80,82h1v1h-1z M84,82h1v1h-1z M86,82h1v1h-1z M88,82h1v1h-1z M89,82h1v1h-1z M91,82h1v1h-1z M92,82h1v1h-1z M95,82h1v1h-1z M98,82h1v1h-1z M99,82h1v1h-1z M100,82h1v1h-1z M101,82h1v1h-1z M104,82h1v1h-1z M105,82h1v1h-1z M106,82h1v1h-1z M107,82h1v1h-1z M5,83h1v1h-1z M7,83h1v1h-1z M8,83h1v1h-1z M9,83h1v1h-1z M12,83h1v1h-1z M13,83h1v1h-1z M15,83h1v1h-1z M16,83h1v1h-1z M17,83h1v1h-1z M19,83h1v1h-1z M21,83h1v1h-1z M22,83h1v1h-1z M23,83h1v1h-1z M26,83h1v1h-1z M27,83h1v1h-1z M28,83h1v1h-1z M30,83h1v1h-1z M31,83h1v1h-1z M33,83h1v1h-1z M34,83h1v1h-1z M35,83h1v1h-1z M42,83h1v1h-1z M44,83h1v1h-1z M45,83h1v1h-1z M47,83h1v1h-1z M49,83h1v1h-1z M51,83h1v1h-1z M52,83h1v1h-1z M55,83h1v1h-1z M59,83h1v1h-1z M61,83h1v1h-1z M62,83h1v1h-1z M65,83h1v1h-1z M67,83h1v1h-1z M68,83h1v1h-1z M70,83h1v1h-1z M71,83h1v1h-1z M73,83h1v1h-1z M77,83h1v1h-1z M79,83h1v1h-1z M82,83h1v1h-1z M83,83h1v1h-1z M86,83h1v1h-1z M87,83h1v1h-1z M90,83h1v1h-1z M92,83h1v1h-1z M95,83h1v1h-1z M98,83h1v1h-1z M102,83h1v1h-1z M103,83h1v1h-1z M104,83h1v1h-1z M108,83h1v1h-1z M5,84h1v1h-1z M8,84h1v1h-1z M10,84h1v1h-1z M11,84h1v1h-1z M13,84h1v1h-1z M16,84h1v1h-1z M22,84h1v1h-1z M24,84h1v1h-1z M25,84h1v1h-1z M29,84h1v1h-1z M30,84h1v1h-1z M35,84h1v1h-1z M37,84h1v1h-1z M38,84h1v1h-1z M40,84h1v1h-1z M44,84h1v1h-1z M47,84h1v1h-1z M49,84h1v1h-1z M51,84h1v1h-1z M52,84h1v1h-1z M55,84h1v1h-1z M58,84h1v1h-1z M61,84h1v1h-1z M63,84h1v1h-1z M64,84h1v1h-1z M65,84h1v1h-1z M66,84h1v1h-1z M68,84h1v1h-1z M70,84h1v1h-1z M72,84h1v1h-1z M73,84h1v1h-1z M74,84h1v1h-1z M79,84h1v1h-1z M82,84h1v1h-1z M83,84h1v1h-1z M84,84h1v1h-1z M87,84h1v1h-1z M90,84h1v1h-1z M91,84h1v1h-1z M93,84h1v1h-1z M94,84h1v1h-1z M97,84h1v1h-1z M101,84h1v1h-1z M105,84h1v1h-1z M106,84h1v1h-1z M108,84h1v1h-1z M5,85h1v1h-1z M6,85h1v1h-1z M8,85h1v1h-1z M11,85h1v1h-1z M16,85h1v1h-1z M17,85h1v1h-1z M19,85h1v1h-1z M21,85h1v1h-1z M25,85h1v1h-1z M28,85h1v1h-1z M30,85h1v1h-1z M32,85h1v1h-1z M34,85h1v1h-1z M37,85h1v1h-1z M38,85h1v1h-1z M39,85h1v1h-1z M42,85h1v1h-1z M43,85h1v1h-1z M44,85h1v1h-1z M48,85h1v1h-1z M49,85h1v1h-1z M50,85h1v1h-1z M54,85h1v1h-1z M55,85h1v1h-1z M56,85h1v1h-1z M57,85h1v1h-1z M63,85h1v1h-1z M64,85h1v1h-1z M67,85h1v1h-1z M68,85h1v1h-1z M69,85h1v1h-1z M71,85h1v1h-1z M72,85h1v1h-1z M78,85h1v1h-1z M79,85h1v1h-1z M80,85h1v1h-1z M83,85h1v1h-1z M86,85h1v1h-1z M87,85h1v1h-1z M88,85h1v1h-1z M91,85h1v1h-1z M92,85h1v1h-1z M93,85h1v1h-1z M95,85h1v1h-1z M96,85h1v1h-1z M97,85h1v1h-1z M99,85h1v1h-1z M100,85h1v1h-1z M102,85h1v1h-1z M103,85h1v1h-1z M107,85h1v1h-1z M108,85h1v1h-1z M4,86h1v1h-1z M8,86h1v1h-1z M10,86h1v1h-1z M11,86h1v1h-1z M12,86h1v1h-1z M13,86h1v1h-1z M14,86h1v1h-1z M18,86h1v1h-1z M19,86h1v1h-1z M20,86h1v1h-1z M25,86h1v1h-1z M26,86h1v1h-1z M30,86h1v1h-1z M32,86h1v1h-1z M33,86h1v1h-1z M38,86h1v1h-1z M40,86h1v1h-1z M41,86h1v1h-1z M50,86h1v1h-1z M51,86h1v1h-1z M56,86h1v1h-1z M57,86h1v1h-1z M59,86h1v1h-1z M62,86h1v1h-1z M67,86h1v1h-1z M72,86h1v1h-1z M74,86h1v1h-1z M75,86h1v1h-1z M79,86h1v1h-1z M80,86h1v1h-1z M81,86h1v1h-1z M83,86h1v1h-1z M86,86h1v1h-1z M87,86h1v1h-1z M88,86h1v1h-1z M89,86h1v1h-1z M93,86h1v1h-1z M97,86h1v1h-1z M98,86h1v1h-1z M100,86h1v1h-1z M103,86h1v1h-1z M107,86h1v1h-1z M4,87h1v1h-1z M7,87h1v1h-1z M9,87h1v1h-1z M11,87h1v1h-1z M13,87h1v1h-1z M14,87h1v1h-1z M18,87h1v1h-1z M22,87h1v1h-1z M26,87h1v1h-1z M29,87h1v1h-1z M30,87h1v1h-1z M33,87h1v1h-1z M34,87h1v1h-1z M35,87h1v1h-1z M38,87h1v1h-1z M41,87h1v1h-1z M42,87h1v1h-1z M44,87h1v1h-1z M46,87h1v1h-1z M47,87h1v1h-1z M49,87h1v1h-1z M50,87h1v1h-1z M51,87h1v1h-1z M55,87h1v1h-1z M56,87h1v1h-1z M58,87h1v1h-1z M59,87h1v1h-1z M62,87h1v1h-1z M65,87h1v1h-1z M66,87h1v1h-1z M68,87h1v1h-1z M69,87h1v1h-1z M71,87h1v1h-1z M73,87h1v1h-1z M76,87h1v1h-1z M77,87h1v1h-1z M79,87h1v1h-1z M82,87h1v1h-1z M83,87h1v1h-1z M86,87h1v1h-1z M90,87h1v1h-1z M91,87h1v1h-1z M92,87h1v1h-1z M94,87h1v1h-1z M95,87h1v1h-1z M99,87h1v1h-1z M100,87h1v1h-1z M101,87h1v1h-1z M102,87h1v1h-1z M104,87h1v1h-1z M7,88h1v1h-1z M8,88h1v1h-1z M10,88h1v1h-1z M11,88h1v1h-1z M12,88h1v1h-1z M16,88h1v1h-1z M17,88h1v1h-1z M18,88h1v1h-1z M20,88h1v1h-1z M21,88h1v1h-1z M22,88h1v1h-1z M24,88h1v1h-1z M26,88h1v1h-1z M31,88h1v1h-1z M33,88h1v1h-1z M34,88h1v1h-1z M36,88h1v1h-1z M37,88h1v1h-1z M38,88h1v1h-1z M40,88h1v1h-1z M41,88h1v1h-1z M42,88h1v1h-1z M43,88h1v1h-1z M44,88h1v1h-1z M48,88h1v1h-1z M49,88h1v1h-1z M50,88h1v1h-1z M51,88h1v1h-1z M58,88h1v1h-1z M62,88h1v1h-1z M64,88h1v1h-1z M65,88h1v1h-1z M67,88h1v1h-1z M68,88h1v1h-1z M70,88h1v1h-1z M73,88h1v1h-1z M77,88h1v1h-1z M79,88h1v1h-1z M80,88h1v1h-1z M82,88h1v1h-1z M84,88h1v1h-1z M87,88h1v1h-1z M89,88h1v1h-1z M93,88h1v1h-1z M94,88h1v1h-1z M95,88h1v1h-1z M96,88h1v1h-1z M97,88h1v1h-1z M100,88h1v1h-1z M102,88h1v1h-1z M104,88h1v1h-1z M105,88h1v1h-1z M106,88h1v1h-1z M107,88h1v1h-1z M108,88h1v1h-1z M5,89h1v1h-1z M6,89h1v1h-1z M12,89h1v1h-1z M14,89h1v1h-1z M16,89h1v1h-1z M17,89h1v1h-1z M20,89h1v1h-1z M21,89h1v1h-1z M22,89h1v1h-1z M23,89h1v1h-1z M24,89h1v1h-1z M25,89h1v1h-1z M26,89h1v1h-1z M30,89h1v1h-1z M31,89h1v1h-1z M32,89h1v1h-1z M33,89h1v1h-1z M35,89h1v1h-1z M36,89h1v1h-1z M37,89h1v1h-1z M38,89h1v1h-1z M42,89h1v1h-1z M43,89h1v1h-1z M45,89h1v1h-1z M48,89h1v1h-1z M49,89h1v1h-1z M54,89h1v1h-1z M55,89h1v1h-1z M56,89h1v1h-1z M57,89h1v1h-1z M59,89h1v1h-1z M60,89h1v1h-1z M61,89h1v1h-1z M63,89h1v1h-1z M66,89h1v1h-1z M67,89h1v1h-1z M69,89h1v1h-1z M70,89h1v1h-1z M71,89h1v1h-1z M72,89h1v1h-1z M74,89h1v1h-1z M76,89h1v1h-1z M78,89h1v1h-1z M79,89h1v1h-1z M80,89h1v1h-1z M81,89h1v1h-1z M82,89h1v1h-1z M83,89h1v1h-1z M86,89h1v1h-1z M90,89h1v1h-1z M91,89h1v1h-1z M95,89h1v1h-1z M98,89h1v1h-1z M100,89h1v1h-1z M101,89h1v1h-1z M103,89h1v1h-1z M105,89h1v1h-1z M106,89h1v1h-1z M107,89h1v1h-1z M7,90h1v1h-1z M8,90h1v1h-1z M9,90h1v1h-1z M10,90h1v1h-1z M11,90h1v1h-1z M12,90h1v1h-1z M18,90h1v1h-1z M19,90h1v1h-1z M21,90h1v1h-1z M24,90h1v1h-1z M28,90h1v1h-1z M30,90h1v1h-1z M31,90h1v1h-1z M32,90h1v1h-1z M35,90h1v1h-1z M36,90h1v1h-1z M38,90h1v1h-1z M40,90h1v1h-1z M41,90h1v1h-1z M47,90h1v1h-1z M50,90h1v1h-1z M51,90h1v1h-1z M52,90h1v1h-1z M53,90h1v1h-1z M56,90h1v1h-1z M59,90h1v1h-1z M62,90h1v1h-1z M64,90h1v1h-1z M65,90h1v1h-1z M74,90h1v1h-1z M75,90h1v1h-1z M76,90h1v1h-1z M78,90h1v1h-1z M80,90h1v1h-1z M84,90h1v1h-1z M86,90h1v1h-1z M87,90h1v1h-1z M88,90h1v1h-1z M89,90h1v1h-1z M92,90h1v1h-1z M95,90h1v1h-1z M98,90h1v1h-1z M100,90h1v1h-1z M104,90h1v1h-1z M107,90h1v1h-1z M4,91h1v1h-1z M6,91h1v1h-1z M8,91h1v1h-1z M11,91h1v1h-1z M15,91h1v1h-1z M17,91h1v1h-1z M20,91h1v1h-1z M23,91h1v1h-1z M24,91h1v1h-1z M25,91h1v1h-1z M27,91h1v1h-1z M28,91h1v1h-1z M35,91h1v1h-1z M42,91h1v1h-1z M44,91h1v1h-1z M47,91h1v1h-1z M49,91h1v1h-1z M54,91h1v1h-1z M55,91h1v1h-1z M56,91h1v1h-1z M59,91h1v1h-1z M62,91h1v1h-1z M67,91h1v1h-1z M68,91h1v1h-1z M71,91h1v1h-1z M73,91h1v1h-1z M74,91h1v1h-1z M76,91h1v1h-1z M77,91h1v1h-1z M79,91h1v1h-1z M80,91h1v1h-1z M81,91h1v1h-1z M82,91h1v1h-1z M83,91h1v1h-1z M85,91h1v1h-1z M87,91h1v1h-1z M89,91h1v1h-1z M90,91h1v1h-1z M92,91h1v1h-1z M93,91h1v1h-1z M94,91h1v1h-1z M95,91h1v1h-1z M97,91h1v1h-1z M98,91h1v1h-1z M99,91h1v1h-1z M100,91h1v1h-1z M102,91h1v1h-1z M103,91h1v1h-1z M107,91h1v1h-1z M5,92h1v1h-1z M6,92h1v1h-1z M8,92h1v1h-1z M9,92h1v1h-1z M10,92h1v1h-1z M11,92h1v1h-1z M12,92h1v1h-1z M13,92h1v1h-1z M17,92h1v1h-1z M18,92h1v1h-1z M21,92h1v1h-1z M23,92h1v1h-1z M24,92h1v1h-1z M26,92h1v1h-1z M27,92h1v1h-1z M32,92h1v1h-1z M34,92h1v1h-1z M35,92h1v1h-1z M37,92h1v1h-1z M38,92h1v1h-1z M39,92h1v1h-1z M45,92h1v1h-1z M46,92h1v1h-1z M47,92h1v1h-1z M48,92h1v1h-1z M51,92h1v1h-1z M53,92h1v1h-1z M58,92h1v1h-1z M59,92h1v1h-1z M60,92h1v1h-1z M61,92h1v1h-1z M62,92h1v1h-1z M64,92h1v1h-1z M65,92h1v1h-1z M67,92h1v1h-1z M69,92h1v1h-1z M70,92h1v1h-1z M71,92h1v1h-1z M72,92h1v1h-1z M73,92h1v1h-1z M77,92h1v1h-1z M78,92h1v1h-1z M80,92h1v1h-1z M81,92h1v1h-1z M82,92h1v1h-1z M83,92h1v1h-1z M84,92h1v1h-1z M88,92h1v1h-1z M89,92h1v1h-1z M91,92h1v1h-1z M93,92h1v1h-1z M95,92h1v1h-1z M97,92h1v1h-1z M98,92h1v1h-1z M101,92h1v1h-1z M102,92h1v1h-1z M103,92h1v1h-1z M106,92h1v1h-1z M107,92h1v1h-1z M108,92h1v1h-1z M4,93h1v1h-1z M5,93h1v1h-1z M8,93h1v1h-1z M9,93h1v1h-1z M11,93h1v1h-1z M12,93h1v1h-1z M13,93h1v1h-1z M16,93h1v1h-1z M18,93h1v1h-1z M20,93h1v1h-1z M21,93h1v1h-1z M22,93h1v1h-1z M23,93h1v1h-1z M30,93h1v1h-1z M31,93h1v1h-1z M32,93h1v1h-1z M34,93h1v1h-1z M35,93h1v1h-1z M38,93h1v1h-1z M39,93h1v1h-1z M44,93h1v1h-1z M49,93h1v1h-1z M50,93h1v1h-1z M54,93h1v1h-1z M55,93h1v1h-1z M57,93h1v1h-1z M60,93h1v1h-1z M61,93h1v1h-1z M66,93h1v1h-1z M67,93h1v1h-1z M70,93h1v1h-1z M73,93h1v1h-1z M78,93h1v1h-1z M79,93h1v1h-1z M85,93h1v1h-1z M86,93h1v1h-1z M89,93h1v1h-1z M90,93h1v1h-1z M92,93h1v1h-1z M93,93h1v1h-1z M96,93h1v1h-1z M97,93h1v1h-1z M98,93h1v1h-1z M100,93h1v1h-1z M102,93h1v1h-1z M103,93h1v1h-1z M105,93h1v1h-1z M4,94h1v1h-1z M7,94h1v1h-1z M8,94h1v1h-1z M9,94h1v1h-1z M10,94h1v1h-1z M15,94h1v1h-1z M18,94h1v1h-1z M20,94h1v1h-1z M24,94h1v1h-1z M27,94h1v1h-1z M29,94h1v1h-1z M32,94h1v1h-1z M33,94h1v1h-1z M38,94h1v1h-1z M39,94h1v1h-1z M40,94h1v1h-1z M43,94h1v1h-1z M50,94h1v1h-1z M53,94h1v1h-1z M54,94h1v1h-1z M56,94h1v1h-1z M59,94h1v1h-1z M60,94h1v1h-1z M62,94h1v1h-1z M64,94h1v1h-1z M65,94h1v1h-1z M67,94h1v1h-1z M74,94h1v1h-1z M76,94h1v1h-1z M77,94h1v1h-1z M78,94h1v1h-1z M80,94h1v1h-1z M86,94h1v1h-1z M88,94h1v1h-1z M91,94h1v1h-1z M92,94h1v1h-1z M93,94h1v1h-1z M95,94h1v1h-1z M96,94h1v1h-1z M98,94h1v1h-1z M100,94h1v1h-1z M101,94h1v1h-1z M103,94h1v1h-1z M105,94h1v1h-1z M107,94h1v1h-1z M6,95h1v1h-1z M7,95h1v1h-1z M9,95h1v1h-1z M11,95h1v1h-1z M13,95h1v1h-1z M14,95h1v1h-1z M15,95h1v1h-1z M16,95h1v1h-1z M17,95h1v1h-1z M20,95h1v1h-1z M21,95h1v1h-1z M24,95h1v1h-1z M26,95h1v1h-1z M28,95h1v1h-1z M29,95h1v1h-1z M34,95h1v1h-1z M35,95h1v1h-1z M38,95h1v1h-1z M41,95h1v1h-1z M42,95h1v1h-1z M44,95h1v1h-1z M45,95h1v1h-1z M46,95h1v1h-1z M47,95h1v1h-1z M49,95h1v1h-1z M53,95h1v1h-1z M54,95h1v1h-1z M56,95h1v1h-1z M59,95h1v1h-1z M61,95h1v1h-1z M62,95h1v1h-1z M63,95h1v1h-1z M68,95h1v1h-1z M71,95h1v1h-1z M73,95h1v1h-1z M77,95h1v1h-1z M79,95h1v1h-1z M80,95h1v1h-1z M81,95h1v1h-1z M82,95h1v1h-1z M83,95h1v1h-1z M85,95h1v1h-1z M90,95h1v1h-1z M92,95h1v1h-1z M94,95h1v1h-1z M95,95h1v1h-1z M97,95h1v1h-1z M98,95h1v1h-1z M103,95h1v1h-1z M104,95h1v1h-1z M108,95h1v1h-1z M4,96h1v1h-1z M5,96h1v1h-1z M10,96h1v1h-1z M11,96h1v1h-1z M12,96h1v1h-1z M15,96h1v1h-1z M18,96h1v1h-1z M20,96h1v1h-1z M22,96h1v1h-1z M23,96h1v1h-1z M24,96h1v1h-1z M25,96h1v1h-1z M27,96h1v1h-1z M28,96h1v1h-1z M29,96h1v1h-1z M30,96h1v1h-1z M31,96h1v1h-1z M34,96h1v1h-1z M35,96h1v1h-1z M39,96h1v1h-1z M41,96h1v1h-1z M42,96h1v1h-1z M43,96h1v1h-1z M44,96h1v1h-1z M48,96h1v1h-1z M50,96h1v1h-1z M51,96h1v1h-1z M53,96h1v1h-1z M56,96h1v1h-1z M58,96h1v1h-1z M59,96h1v1h-1z M62,96h1v1h-1z M63,96h1v1h-1z M65,96h1v1h-1z M68,96h1v1h-1z M70,96h1v1h-1z M71,96h1v1h-1z M74,96h1v1h-1z M82,96h1v1h-1z M83,96h1v1h-1z M86,96h1v1h-1z M89,96h1v1h-1z M90,96h1v1h-1z M92,96h1v1h-1z M93,96h1v1h-1z M94,96h1v1h-1z M95,96h1v1h-1z M96,96h1v1h-1z M97,96h1v1h-1z M100,96h1v1h-1z M103,96h1v1h-1z M104,96h1v1h-1z M4,97h1v1h-1z M5,97h1v1h-1z M9,97h1v1h-1z M12,97h1v1h-1z M13,97h1v1h-1z M14,97h1v1h-1z M17,97h1v1h-1z M19,97h1v1h-1z M20,97h1v1h-1z M21,97h1v1h-1z M23,97h1v1h-1z M25,97h1v1h-1z M26,97h1v1h-1z M28,97h1v1h-1z M30,97h1v1h-1z M32,97h1v1h-1z M34,97h1v1h-1z M35,97h1v1h-1z M36,97h1v1h-1z M37,97h1v1h-1z M40,97h1v1h-1z M41,97h1v1h-1z M46,97h1v1h-1z M47,97h1v1h-1z M48,97h1v1h-1z M49,97h1v1h-1z M53,97h1v1h-1z M54,97h1v1h-1z M57,97h1v1h-1z M60,97h1v1h-1z M62,97h1v1h-1z M64,97h1v1h-1z M67,97h1v1h-1z M68,97h1v1h-1z M69,97h1v1h-1z M70,97h1v1h-1z M71,97h1v1h-1z M73,97h1v1h-1z M74,97h1v1h-1z M76,97h1v1h-1z M77,97h1v1h-1z M78,97h1v1h-1z M79,97h1v1h-1z M83,97h1v1h-1z M84,97h1v1h-1z M85,97h1v1h-1z M87,97h1v1h-1z M88,97h1v1h-1z M89,97h1v1h-1z M91,97h1v1h-1z M94,97h1v1h-1z M96,97h1v1h-1z M100,97h1v1h-1z M101,97h1v1h-1z M102,97h1v1h-1z M106,97h1v1h-1z M4,98h1v1h-1z M5,98h1v1h-1z M6,98h1v1h-1z M10,98h1v1h-1z M11,98h1v1h-1z M13,98h1v1h-1z M15,98h1v1h-1z M18,98h1v1h-1z M19,98h1v1h-1z M21,98h1v1h-1z M22,98h1v1h-1z M23,98h1v1h-1z M24,98h1v1h-1z M27,98h1v1h-1z M28,98h1v1h-1z M29,98h1v1h-1z M30,98h1v1h-1z M32,98h1v1h-1z M35,98h1v1h-1z M36,98h1v1h-1z M38,98h1v1h-1z M39,98h1v1h-1z M40,98h1v1h-1z M41,98h1v1h-1z M43,98h1v1h-1z M48,98h1v1h-1z M50,98h1v1h-1z M53,98h1v1h-1z M54,98h1v1h-1z M56,98h1v1h-1z M62,98h1v1h-1z M64,98h1v1h-1z M65,98h1v1h-1z M72,98h1v1h-1z M74,98h1v1h-1z M76,98h1v1h-1z M77,98h1v1h-1z M78,98h1v1h-1z M80,98h1v1h-1z M83,98h1v1h-1z M84,98h1v1h-1z M86,98h1v1h-1z M87,98h1v1h-1z M88,98h1v1h-1z M89,98h1v1h-1z M95,98h1v1h-1z M96,98h1v1h-1z M98,98h1v1h-1z M100,98h1v1h-1z M101,98h1v1h-1z M105,98h1v1h-1z M107,98h1v1h-1z M6,99h1v1h-1z M8,99h1v1h-1z M9,99h1v1h-1z M11,99h1v1h-1z M12,99h1v1h-1z M13,99h1v1h-1z M15,99h1v1h-1z M16,99h1v1h-1z M18,99h1v1h-1z M19,99h1v1h-1z M21,99h1v1h-1z M22,99h1v1h-1z M23,99h1v1h-1z M24,99h1v1h-1z M25,99h1v1h-1z M26,99h1v1h-1z M28,99h1v1h-1z M30,99h1v1h-1z M32,99h1v1h-1z M35,99h1v1h-1z M37,99h1v1h-1z M42,99h1v1h-1z M44,99h1v1h-1z M45,99h1v1h-1z M47,99h1v1h-1z M49,99h1v1h-1z M51,99h1v1h-1z M52,99h1v1h-1z M56,99h1v1h-1z M57,99h1v1h-1z M59,99h1v1h-1z M61,99h1v1h-1z M62,99h1v1h-1z M65,99h1v1h-1z M66,99h1v1h-1z M67,99h1v1h-1z M68,99h1v1h-1z M69,99h1v1h-1z M71,99h1v1h-1z M73,99h1v1h-1z M74,99h1v1h-1z M75,99h1v1h-1z M76,99h1v1h-1z M78,99h1v1h-1z M87,99h1v1h-1z M89,99h1v1h-1z M90,99h1v1h-1z M91,99h1v1h-1z M92,99h1v1h-1z M93,99h1v1h-1z M95,99h1v1h-1z M99,99h1v1h-1z M100,99h1v1h-1z M102,99h1v1h-1z M104,99h1v1h-1z M7,100h1v1h-1z M8,100h1v1h-1z M10,100h1v1h-1z M13,100h1v1h-1z M14,100h1v1h-1z M15,100h1v1h-1z M16,100h1v1h-1z M17,100h1v1h-1z M20,100h1v1h-1z M22,100h1v1h-1z M25,100h1v1h-1z M26,100h1v1h-1z M27,100h1v1h-1z M28,100h1v1h-1z M29,100h1v1h-1z M30,100h1v1h-1z M31,100h1v1h-1z M32,100h1v1h-1z M33,100h1v1h-1z M34,100h1v1h-1z M35,100h1v1h-1z M36,100h1v1h-1z M38,100h1v1h-1z M42,100h1v1h-1z M43,100h1v1h-1z M49,100h1v1h-1z M51,100h1v1h-1z M52,100h1v1h-1z M53,100h1v1h-1z M54,100h1v1h-1z M55,100h1v1h-1z M56,100h1v1h-1z M57,100h1v1h-1z M61,100h1v1h-1z M63,100h1v1h-1z M64,100h1v1h-1z M65,100h1v1h-1z M66,100h1v1h-1z M68,100h1v1h-1z M69,100h1v1h-1z M70,100h1v1h-1z M72,100h1v1h-1z M74,100h1v1h-1z M75,100h1v1h-1z M76,100h1v1h-1z M77,100h1v1h-1z M78,100h1v1h-1z M79,100h1v1h-1z M80,100h1v1h-1z M82,100h1v1h-1z M84,100h1v1h-1z M85,100h1v1h-1z M86,100h1v1h-1z M88,100h1v1h-1z M89,100h1v1h-1z M90,100h1v1h-1z M91,100h1v1h-1z M93,100h1v1h-1z M94,100h1v1h-1z M97,100h1v1h-1z M100,100h1v1h-1z M101,100h1v1h-1z M102,100h1v1h-1z M103,100h1v1h-1z M104,100h1v1h-1z M106,100h1v1h-1z M12,101h1v1h-1z M13,101h1v1h-1z M15,101h1v1h-1z M16,101h1v1h-1z M17,101h1v1h-1z M20,101h1v1h-1z M22,101h1v1h-1z M24,101h1v1h-1z M26,101h1v1h-1z M27,101h1v1h-1z M28,101h1v1h-1z M32,101h1v1h-1z M33,101h1v1h-1z M35,101h1v1h-1z M36,101h1v1h-1z M39,101h1v1h-1z M40,101h1v1h-1z M41,101h1v1h-1z M44,101h1v1h-1z M45,101h1v1h-1z M47,101h1v1h-1z M50,101h1v1h-1z M51,101h1v1h-1z M52,101h1v1h-1z M56,101h1v1h-1z M58,101h1v1h-1z M67,101h1v1h-1z M70,101h1v1h-1z M71,101h1v1h-1z M73,101h1v1h-1z M74,101h1v1h-1z M75,101h1v1h-1z M76,101h1v1h-1z M80,101h1v1h-1z M83,101h1v1h-1z M85,101h1v1h-1z M86,101h1v1h-1z M87,101h1v1h-1z M88,101h1v1h-1z M89,101h1v1h-1z M90,101h1v1h-1z M93,101h1v1h-1z M96,101h1v1h-1z M97,101h1v1h-1z M98,101h1v1h-1z M99,101h1v1h-1z M100,101h1v1h-1z M104,101h1v1h-1z M106,101h1v1h-1z M107,101h1v1h-1z M108,101h1v1h-1z M4,102h1v1h-1z M5,102h1v1h-1z M6,102h1v1h-1z M7,102h1v1h-1z M8,102h1v1h-1z M9,102h1v1h-1z M10,102h1v1h-1z M17,102h1v1h-1z M19,102h1v1h-1z M20,102h1v1h-1z M21,102h1v1h-1z M24,102h1v1h-1z M25,102h1v1h-1z M27,102h1v1h-1z M28,102h1v1h-1z M30,102h1v1h-1z M32,102h1v1h-1z M33,102h1v1h-1z M35,102h1v1h-1z M36,102h1v1h-1z M38,102h1v1h-1z M39,102h1v1h-1z M41,102h1v1h-1z M44,102h1v1h-1z M47,102h1v1h-1z M48,102h1v1h-1z M49,102h1v1h-1z M50,102h1v1h-1z M51,102h1v1h-1z M52,102h1v1h-1z M54,102h1v1h-1z M56,102h1v1h-1z M59,102h1v1h-1z M60,102h1v1h-1z M62,102h1v1h-1z M64,102h1v1h-1z M65,102h1v1h-1z M67,102h1v1h-1z M68,102h1v1h-1z M71,102h1v1h-1z M74,102h1v1h-1z M75,102h1v1h-1z M76,102h1v1h-1z M78,102h1v1h-1z M80,102h1v1h-1z M84,102h1v1h-1z M86,102h1v1h-1z M89,102h1v1h-1z M97,102h1v1h-1z M98,102h1v1h-1z M100,102h1v1h-1z M102,102h1v1h-1z M104,102h1v1h-1z M106,102h1v1h-1z M107,102h1v1h-1z M4,103h1v1h-1z M10,103h1v1h-1z M12,103h1v1h-1z M14,103h1v1h-1z M15,103h1v1h-1z M16,103h1v1h-1z M17,103h1v1h-1z M18,103h1v1h-1z M19,103h1v1h-1z M21,103h1v1h-1z M22,103h1v1h-1z M23,103h1v1h-1z M25,103h1v1h-1z M26,103h1v1h-1z M28,103h1v1h-1z M32,103h1v1h-1z M34,103h1v1h-1z M35,103h1v1h-1z M37,103h1v1h-1z M44,103h1v1h-1z M45,103h1v1h-1z M47,103h1v1h-1z M52,103h1v1h-1z M56,103h1v1h-1z M57,103h1v1h-1z M58,103h1v1h-1z M61,103h1v1h-1z M68,103h1v1h-1z M70,103h1v1h-1z M71,103h1v1h-1z M73,103h1v1h-1z M75,103h1v1h-1z M76,103h1v1h-1z M80,103h1v1h-1z M81,103h1v1h-1z M82,103h1v1h-1z M85,103h1v1h-1z M86,103h1v1h-1z M90,103h1v1h-1z M92,103h1v1h-1z M93,103h1v1h-1z M94,103h1v1h-1z M95,103h1v1h-1z M99,103h1v1h-1z M100,103h1v1h-1z M104,103h1v1h-1z M107,103h1v1h-1z M4,104h1v1h-1z M6,104h1v1h-1z M7,104h1v1h-1z M8,104h1v1h-1z M10,104h1v1h-1z M12,104h1v1h-1z M17,104h1v1h-1z M18,104h1v1h-1z M19,104h1v1h-1z M20,104h1v1h-1z M21,104h1v1h-1z M22,104h1v1h-1z M23,104h1v1h-1z M25,104h1v1h-1z M26,104h1v1h-1z M27,104h1v1h-1z M28,104h1v1h-1z M29,104h1v1h-1z M30,104h1v1h-1z M31,104h1v1h-1z M32,104h1v1h-1z M35,104h1v1h-1z M36,104h1v1h-1z M38,104h1v1h-1z M39,104h1v1h-1z M40,104h1v1h-1z M41,104h1v1h-1z M43,104h1v1h-1z M45,104h1v1h-1z M52,104h1v1h-1z M53,104h1v1h-1z M54,104h1v1h-1z M55,104h1v1h-1z M56,104h1v1h-1z M57,104h1v1h-1z M59,104h1v1h-1z M63,104h1v1h-1z M65,104h1v1h-1z M66,104h1v1h-1z M68,104h1v1h-1z M69,104h1v1h-1z M71,104h1v1h-1z M74,104h1v1h-1z M76,104h1v1h-1z M77,104h1v1h-1z M78,104h1v1h-1z M79,104h1v1h-1z M80,104h1v1h-1z M86,104h1v1h-1z M87,104h1v1h-1z M88,104h1v1h-1z M89,104h1v1h-1z M90,104h1v1h-1z M96,104h1v1h-1z M100,104h1v1h-1z M101,104h1v1h-1z M102,104h1v1h-1z M103,104h1v1h-1z M104,104h1v1h-1z M105,104h1v1h-1z M108,104h1v1h-1z M4,105h1v1h-1z M6,105h1v1h-1z M7,105h1v1h-1z M8,105h1v1h-1z M10,105h1v1h-1z M14,105h1v1h-1z M15,105h1v1h-1z M17,105h1v1h-1z M19,105h1v1h-1z M23,105h1v1h-1z M26,105h1v1h-1z M28,105h1v1h-1z M30,105h1v1h-1z M32,105h1v1h-1z M33,105h1v1h-1z M35,105h1v1h-1z M36,105h1v1h-1z M37,105h1v1h-1z M38,105h1v1h-1z M39,105h1v1h-1z M41,105h1v1h-1z M43,105h1v1h-1z M45,105h1v1h-1z M48,105h1v1h-1z M54,105h1v1h-1z M56,105h1v1h-1z M58,105h1v1h-1z M59,105h1v1h-1z M60,105h1v1h-1z M63,105h1v1h-1z M64,105h1v1h-1z M65,105h1v1h-1z M66,105h1v1h-1z M68,105h1v1h-1z M70,105h1v1h-1z M71,105h1v1h-1z M72,105h1v1h-1z M73,105h1v1h-1z M77,105h1v1h-1z M78,105h1v1h-1z M79,105h1v1h-1z M81,105h1v1h-1z M82,105h1v1h-1z M84,105h1v1h-1z M85,105h1v1h-1z M88,105h1v1h-1z M89,105h1v1h-1z M90,105h1v1h-1z M91,105h1v1h-1z M96,105h1v1h-1z M97,105h1v1h-1z M98,105h1v1h-1z M99,105h1v1h-1z M102,105h1v1h-1z M105,105h1v1h-1z M106,105h1v1h-1z M107,105h1v1h-1z M108,105h1v1h-1z M4,106h1v1h-1z M6,106h1v1h-1z M7,106h1v1h-1z M8,106h1v1h-1z M10,106h1v1h-1z M13,106h1v1h-1z M14,106h1v1h-1z M15,106h1v1h-1z M16,106h1v1h-1z M18,106h1v1h-1z M21,106h1v1h-1z M22,106h1v1h-1z M23,106h1v1h-1z M24,106h1v1h-1z M25,106h1v1h-1z M27,106h1v1h-1z M29,106h1v1h-1z M31,106h1v1h-1z M35,106h1v1h-1z M36,106h1v1h-1z M38,106h1v1h-1z M39,106h1v1h-1z M41,106h1v1h-1z M43,106h1v1h-1z M44,106h1v1h-1z M47,106h1v1h-1z M48,106h1v1h-1z M50,106h1v1h-1z M53,106h1v1h-1z M60,106h1v1h-1z M61,106h1v1h-1z M62,106h1v1h-1z M64,106h1v1h-1z M65,106h1v1h-1z M67,106h1v1h-1z M68,106h1v1h-1z M72,106h1v1h-1z M74,106h1v1h-1z M76,106h1v1h-1z M77,106h1v1h-1z M79,106h1v1h-1z M83,106h1v1h-1z M84,106h1v1h-1z M86,106h1v1h-1z M88,106h1v1h-1z M89,106h1v1h-1z M91,106h1v1h-1z M92,106h1v1h-1z M96,106h1v1h-1z M98,106h1v1h-1z M102,106h1v1h-1z M104,106h1v1h-1z M105,106h1v1h-1z M106,106h1v1h-1z M4,107h1v1h-1z M10,107h1v1h-1z M12,107h1v1h-1z M13,107h1v1h-1z M15,107h1v1h-1z M23,107h1v1h-1z M24,107h1v1h-1z M32,107h1v1h-1z M33,107h1v1h-1z M34,107h1v1h-1z M35,107h1v1h-1z M37,107h1v1h-1z M42,107h1v1h-1z M44,107h1v1h-1z M50,107h1v1h-1z M56,107h1v1h-1z M57,107h1v1h-1z M58,107h1v1h-1z M59,107h1v1h-1z M63,107h1v1h-1z M68,107h1v1h-1z M69,107h1v1h-1z M70,107h1v1h-1z M71,107h1v1h-1z M75,107h1v1h-1z M78,107h1v1h-1z M80,107h1v1h-1z M81,107h1v1h-1z M82,107h1v1h-1z M85,107h1v1h-1z M90,107h1v1h-1z M92,107h1v1h-1z M95,107h1v1h-1z M101,107h1v1h-1z M4,108h1v1h-1z M5,108h1v1h-1z M6,108h1v1h-1z M7,108h1v1h-1z M8,108h1v1h-1z M9,108h1v1h-1z M10,108h1v1h-1z M12,108h1v1h-1z M13,108h1v1h-1z M15,108h1v1h-1z M17,108h1v1h-1z M18,108h1v1h-1z M19,108h1v1h-1z M20,108h1v1h-1z M21,108h1v1h-1z M24,108h1v1h-1z M25,108h1v1h-1z M28,108h1v1h-1z M29,108h1v1h-1z M31,108h1v1h-1z M32,108h1v1h-1z M33,108h1v1h-1z M34,108h1v1h-1z M36,108h1v1h-1z M42,108h1v1h-1z M44,108h1v1h-1z M48,108h1v1h-1z M51,108h1v1h-1z M53,108h1v1h-1z M54,108h1v1h-1z M56,108h1v1h-1z M58,108h1v1h-1z M59,108h1v1h-1z M60,108h1v1h-1z M63,108h1v1h-1z M64,108h1v1h-1z M66,108h1v1h-1z M67,108h1v1h-1z M72,108h1v1h-1z M73,108h1v1h-1z M75,108h1v1h-1z M76,108h1v1h-1z M77,108h1v1h-1z M78,108h1v1h-1z M79,108h1v1h-1z M81,108h1v1h-1z M82,108h1v1h-1z M84,108h1v1h-1z M86,108h1v1h-1z M89,108h1v1h-1z M90,108h1v1h-1z M94,108h1v1h-1z M95,108h1v1h-1z M96,108h1v1h-1z M98,108h1v1h-1z M99,108h1v1h-1z M100,108h1v1h-1z M101,108h1v1h-1z M102,108h1v1h-1z M104,108h1v1h-1z M106,108h1v1h-1z M108,108h1v1h-1z" fill="#000000"/>
</svg>
