<?xml version="1.0" encoding="UTF-8"?>
<!DOCTYPE svg PUBLIC "-//W3C//DTD SVG 1.1//EN" "http://www.w3.org/Graphics/SVG/1.1/DTD/svg11.dtd">
<svg xmlns="http://www.w3.org/2000/svg" version="1.1" viewBox="0 0 113 113" stroke="none">
	<rect width="100%" height="100%" fill="#FFFFFF"/>
	<path d="M4,4h1v1h-1z M5,4h1v1h-1z M6,4h1v1h-1z M7,4h1v1h-1z M8,4h1v1h-1z M9,4h1v1h-1z M10,4h1v1h-1z M12,4h1v1h-1z M13,4h1v1h-1z M14,4h1v1h-1z M16,4h1v1h-1z M19,4h1v1h-1z M23,4h1v1h-1z M24,4h1v1h-1z M25,4h1v1h-1z M26,4h1v1h-1z M27,4h1v1h-1z M29,4h1v1h-1z M30,4h1v1h-1z M32,4h1v1h-1z M35,4h1v1h-1z M38,4h1v1h-1z M40,4h1v1h-1z M42,4h1v1h-1z M45,4h1v1h-1z M47,4h1v1h-1z M49,4h1v1h-1z M52,4h1v1h-1z M54,4h1v1h-1z M55,4h1v1h-1z M60,4h1v1h-1z M62,4h1v1h-1z M63,4h1v1h-1z M67,4h1v1h-1z M71,4h1v1h-1z M76,4h1v1h-1z M77,4h1v1h-1z M79,4h1v1h-1z M80,4h1v1h-1z M83,4h1v1h-1z M87,4h1v1h-1z M90,4h1v1h-1z M92,4h1v1h-1z M94,4h1v1h-1z M95,4h1v1h-1z M97,4h1v1h-1z M98,4h1v1h-1z M102,4h1v1h-1z M103,4h1v1h-1z M104,4h1v1h-1z M105,4h1v1h-1z M106,4h1v1h-1z M107,4h1v1h-1z M108,4h1v1h-1z M4,5h1v1h-1z M10,5h1v1h-1z M12,5h1v1h-1z M15,5h1v1h-1z M16,5h1v1h-1z M17,5h1v1h-1z M19,5h1v1h-1z M22,5h1v1h-1z M27,5h1v1h-1z M28,5h1v1h-1z M30,5h1v1h-1z M34,5h1v1h-1z M35,5h1v1h-1z M36,5h1v1h-1z M37,5h1v1h-1z M40,5h1v1h-1z M42,5h1v1h-1z M45,5h1v1h-1z M46,5h1v1h-1z M47,5h1v1h-1z M48,5h1v1h-1z M53,5h1v1h-1z M54,5h1v1h-1z M56,5h1v1h-1z M57,5h1v1h-1z M58,5h1v1h-1z M60,5h1v1h-1z M66,5h1v1h-1z M70,5h1v1h-1z M73,5h1v1h-1z M77,5h1v1h-1z M78,5h1v1h-1z M80,5h1v1h-1z M81,5h1v1h-1z M82,5h1v1h-1z M83,5h1v1h-1z M84,5h1v1h-1z M85,5h1v1h-1z M90,5h1v1h-1z M92,5h1v1h-1z M94,5h1v1h-1z M96,5h1v1h-1z M98,5h1v1h-1z M102,5h1v1h-1z M108,5h1v1h-1z M4,6h1v1h-1z M6,6h1v1h-1z M7,6h1v1h-1z M8,6h1v1h-1z M10,6h1v1h-1z M12,6h1v1h-1z M14,6h1v1h-1z M16,6h1v1h-1z M19,6h1v1h-1z M20,6h1v1h-1z M22,6h1v1h-1z M25,6h1v1h-1z M26,6h1v1h-1z M32,6h1v1h-1z M33,6h1v1h-1z M34,6h1v1h-1z M35,6h1v1h-1z M38,6h1v1h-1z M44,6h1v1h-1z M45,6h1v1h-1z M46,6h1v1h-1z M47,6h1v1h-1z M49,6h1v1h-1z M53,6h1v1h-1z M54,6h1v1h-1z M56,6h1v1h-1z M58,6h1v1h-1z M59,6h1v1h-1z M63,6h1v1h-1z M65,6h1v1h-1z M68,6h1v1h-1z M70,6h1v1h-1z M73,6h1v1h-1z M74,6h1v1h-1z M77,6h1v1h-1z M78,6h1v1h-1z M80,6h1v1h-1z M81,6h1v1h-1z M83,6h1v1h-1z M86,6h1v1h-1z M89,6h1v1h-1z M90,6h1v1h-1z M92,6h1v1h-1z M94,6h1v1h-1z M95,6h1v1h-1z M98,6h1v1h-1z M99,6h1v1h-1z M102,6h1v1h-1z M104,6h1v1h-1z M105,6h1v1h-1z M106,6h1v1h-1z M108,6h1v1h-1z M4,7h1v1h-1z M6,7h1v1h-1z M7,7h1v1h-1z M8,7h1v1h-1z M10,7h1v1h-1z M12,7h1v1h-1z M25,7h1v1h-1z M26,7h1v1h-1z M27,7h1v1h-1z M29,7h1v1h-1z M30,7h1v1h-1z M32,7h1v1h-1z M34,7h1v1h-1z M37,7h1v1h-1z M39,7h1v1h-1z M40,7h1v1h-1z M41,7h1v1h-1z M42,7h1v1h-1z M48,7h1v1h-1z M50,7h1v1h-1z M52,7h1v1h-1z M53,7h1v1h-1z M56,7h1v1h-1z M57,7h1v1h-1z M59,7h1v1h-1z M60,7h1v1h-1z M65,7h1v1h-1z M69,7h1v1h-1z M71,7h1v1h-1z M73,7h1v1h-1z M74,7h1v1h-1z M75,7h1v1h-1z M78,7h1v1h-1z M79,7h1v1h-1z M83,7h1v1h-1z M88,7h1v1h-1z M89,7h1v1h-1z M93,7h1v1h-1z M96,7h1v1h-1z M100,7h1v1h-1z M102,7h1v1h-1z M104,7h1v1h-1z M105,7h1v1h-1z M106,7h1v1h-1z M108,7h1v1h-1z M4,8h1v1h-1z M6,8h1v1h-1z M7,8h1v1h-1z M8,8h1v1h-1z M10,8h1v1h-1z M13,8h1v1h-1z M14,8h1v1h-1z M17,8h1v1h-1z M18,8h1v1h-1z M25,8h1v1h-1z M26,8h1v1h-1z M27,8h1v1h-1z M28,8h1v1h-1z M29,8h1v1h-1z M30,8h1v1h-1z M31,8h1v1h-1z M32,8h1v1h-1z M35,8h1v1h-1z M36,8h1v1h-1z M46,8h1v1h-1z M48,8h1v1h-1z M51,8h1v1h-1z M52,8h1v1h-1z M53,8h1v1h-1z M54,8h1v1h-1z M55,8h1v1h-1z M56,8h1v1h-1z M57,8h1v1h-1z M58,8h1v1h-1z M59,8h1v1h-1z M61,8h1v1h-1z M62,8h1v1h-1z M64,8h1v1h-1z M66,8h1v1h-1z M68,8h1v1h-1z M70,8h1v1h-1z M72,8h1v1h-1z M73,8h1v1h-1z M74,8h1v1h-1z M76,8h1v1h-1z M77,8h1v1h-1z M78,8h1v1h-1z M79,8h1v1h-1z M80,8h1v1h-1z M84,8h1v1h-1z M85,8h1v1h-1z M86,8h1v1h-1z M87,8h1v1h-1z M88,8h1v1h-1z M90,8h1v1h-1z M92,8h1v1h-1z M93,8h1v1h-1z M94,8h1v1h-1z M95,8h1v1h-1z M99,8h1v1h-1z M100,8h1v1h-1z M102,8h1v1h-1z M104,8h1v1h-1z M105,8h1v1h-1z M106,8h1v1h-1z M108,8h1v1h-1z M4,9h1v1h-1z M10,9h1v1h-1z M12,9h1v1h-1z M13,9h1v1h-1z M15,9h1v1h-1z M18,9h1v1h-1z M19,9h1v1h-1z M20,9h1v1h-1z M21,9h1v1h-1z M24,9h1v1h-1z M28,9h1v1h-1z M32,9h1v1h-1z M33,9h1v1h-1z M34,9h1v1h-1z M37,9h1v1h-1z M40,9h1v1h-1z M42,9h1v1h-1z M44,9h1v1h-1z M46,9h1v1h-1z M49,9h1v1h-1z M51,9h1v1h-1z M52,9h1v1h-1z M56,9h1v1h-1z M57,9h1v1h-1z M58,9h1v1h-1z M61,9h1v1h-1z M66,9h1v1h-1z M69,9h1v1h-1z M70,9h1v1h-1z M71,9h1v1h-1z M72,9h1v1h-1z M75,9h1v1h-1z M76,9h1v1h-1z M80,9h1v1h-1z M81,9h1v1h-1z M82,9h1v1h-1z M83,9h1v1h-1z M84,9h1v1h-1z M85,9h1v1h-1z M87,9h1v1h-1z M88,9h1v1h-1z M90,9h1v1h-1z M92,9h1v1h-1z M93,9h1v1h-1z M94,9h1v1h-1z M95,9h1v1h-1z M97,9h1v1h-1z M99,9h1v1h-1z M102,9h1v1h-1z M108,9h1v1h-1z M4,10h1v1h-1z M5,10h1v1h-1z M6,10h1v1h-1z M7,10h1v1h-1z M8,10h1v1h-1z M9,10h1v1h-1z M10,10h1v1h-1z M12,10h1v1h-1z M14,10h1v1h-1z M16,10h1v1h-1z M18,10h1v1h-1z M20,10h1v1h-1z M22,10h1v1h-1z M24,10h1v1h-1z M26,10h1v1h-1z M28,10h1v1h-1z M30,10h1v1h-1z M32,10h1v1h-1z M34,10h1v1h-1z M36,10h1v1h-1z M38,10h1v1h-1z M40,10h1v1h-1z M42,10h1v1h-1z M44,10h1v1h-1z M46,10h1v1h-1z M48,10h1v1h-1z M50,10h1v1h-1z M52,10h1v1h-1z M54,10h1v1h-1z M56,10h1v1h-1z M58,10h1v1h-1z M60,10h1v1h-1z M62,10h1v1h-1z M64,10h1v1h-1z M66,10h1v1h-1z M68,10h1v1h-1z M70,10h1v1h-1z M72,10h1v1h-1z M74,10h1v1h-1z M76,10h1v1h-1z M78,10h1v1h-1z M80,10h1v1h-1z M82,10h1v1h-1z M84,10h1v1h-1z M86,10h1v1h-1z M88,10h1v1h-1z M90,10h1v1h-1z M92,10h1v1h-1z M94,10h1v1h-1z M96,10h1v1h-1z M98,10h1v1h-1z M100,10h1v1h-1z M102,10h1v1h-1z M103,10h1v1h-1z M104,10h1v1h-1z M105,10h1v1h-1z M106,10h1v1h-1z M107,10h1v1h-1z M108,10h1v1h-1z M14,11h1v1h-1z M15,11h1v1h-1z M19,11h1v1h-1z M20,11h1v1h-1z M28,11h1v1h-1z M32,11h1v1h-1z M33,11h1v1h-1z M37,11h1v1h-1z M38,11h1v1h-1z M44,11h1v1h-1z M46,11h1v1h-1z M50,11h1v1h-1z M51,11h1v1h-1z M52,11h1v1h-1z M56,11h1v1h-1z M61,11h1v1h-1z M65,11h1v1h-1z M68,11h1v1h-1z M70,11h1v1h-1z M71,11h1v1h-1z M76,11h1v1h-1z M80,11h1v1h-1z M81,11h1v1h-1z M82,11h1v1h-1z M83,11h1v1h-1z M85,11h1v1h-1z M89,11h1v1h-1z M90,11h1v1h-1z M92,11h1v1h-1z M93,11h1v1h-1z M94,11h1v1h-1z M97,11h1v1h-1z M99,11h1v1h-1z M4,12h1v1h-1z M5,12h1v1h-1z M8,12h1v1h-1z M9,12h1v1h-1z M10,12h1v1h-1z M13,12h1v1h-1z M14,12h1v1h-1z M15,12h1v1h-1z M17,12h1v1h-1z M18,12h1v1h-1z M21,12h1v1h-1z M22,12h1v1h-1z M23,12h1v1h-1z M26,12h1v1h-1z M28,12h1v1h-1z M29,12h1v1h-1z M30,12h1v1h-1z M31,12h1v1h-1z M32,12h1v1h-1z M37,12h1v1h-1z M39,12h1v1h-1z M41,12h1v1h-1z M42,12h1v1h-1z M44,12h1v1h-1z M47,12h1v1h-1z M48,12h1v1h-1z M52,12h1v1h-1z M53,12h1v1h-1z M54,12h1v1h-1z M55,12h1v1h-1z M56,12h1v1h-1z M57,12h1v1h-1z M58,12h1v1h-1z M62,12h1v1h-1z M65,12h1v1h-1z M66,12h1v1h-1z M70,12h1v1h-1z M72,12h1v1h-1z M73,12h1v1h-1z M75,12h1v1h-1z M76,12h1v1h-1z M77,12h1v1h-1z M78,12h1v1h-1z M79,12h1v1h-1z M80,12h1v1h-1z M82,12h1v1h-1z M86,12h1v1h-1z M89,12h1v1h-1z M90,12h1v1h-1z M93,12h1v1h-1z M98,12h1v1h-1z M99,12h1v1h-1z M100,12h1v1h-1z M103,12h1v1h-1z M105,12h1v1h-1z M106,12h1v1h-1z M107,12h1v1h-1z M108,12h1v1h-1z M4,13h1v1h-1z M7,13h1v1h-1z M8,13h1v1h-1z M9,13h1v1h-1z M11,13h1v1h-1z M14,13h1v1h-1z M16,13h1v1h-1z M19,13h1v1h-1z M22,13h1v1h-1z M25,13h1v1h-1z M26,13h1v1h-1z M27,13h1v1h-1z M28,13h1v1h-1z M33,13h1v1h-1z M36,13h1v1h-1z M37,13h1v1h-1z M38,13h1v1h-1z M39,13h1v1h-1z M40,13h1v1h-1z M41,13h1v1h-1z M42,13h1v1h-1z M46,13h1v1h-1z M48,13h1v1h-1z M49,13h1v1h-1z M50,13h1v1h-1z M51,13h1v1h-1z M52,13h1v1h-1z M57,13h1v1h-1z M58,13h1v1h-1z M60,13h1v1h-1z M64,13h1v1h-1z M66,13h1v1h-1z M67,13h1v1h-1z M69,13h1v1h-1z M70,13h1v1h-1z M71,13h1v1h-1z M75,13h1v1h-1z M76,13h1v1h-1z M81,13h1v1h-1z M82,13h1v1h-1z M83,13h1v1h-1z M84,13h1v1h-1z M86,13h1v1h-1z M90,13h1v1h-1z M91,13h1v1h-1z M96,13h1v1h-1z M97,13h1v1h-1z M98,13h1v1h-1z M100,13h1v1h-1z M103,13h1v1h-1z M104,13h1v1h-1z M107,13h1v1h-1z M108,13h1v1h-1z M5,14h1v1h-1z M8,14h1v1h-1z M10,14h1v1h-1z M14,14h1v1h-1z M16,14h1v1h-1z M17,14h1v1h-1z M19,14h1v1h-1z M20,14h1v1h-1z M22,14h1v1h-1z M24,14h1v1h-1z M26,14h1v1h-1z M28,14h1v1h-1z M29,14h1v1h-1z M36,14h1v1h-1z M37,14h1v1h-1z M38,14h1v1h-1z M39,14h1v1h-1z M40,14h1v1h-1z M43,14h1v1h-1z M50,14h1v1h-1z M52,14h1v1h-1z M55,14h1v1h-1z M59,14h1v1h-1z M60,14h1v1h-1z M62,14h1v1h-1z M63,14h1v1h-1z M65,14h1v1h-1z M67,14h1v1h-1z M68,14h1v1h-1z M72,14h1v1h-1z M74,14h1v1h-1z M76,14h1v1h-1z M77,14h1v1h-1z M79,14h1v1h-1z M80,14h1v1h-1z M81,14h1v1h-1z M86,14h1v1h-1z M89,14h1v1h-1z M91,14h1v1h-1z M95,14h1v1h-1z M96,14h1v1h-1z M98,14h1v1h-1z M100,14h1v1h-1z M103,14h1v1h-1z M104,14h1v1h-1z M107,14h1v1h-1z M8,15h1v1h-1z M9,15h1v1h-1z M11,15h1v1h-1z M13,15h1v1h-1z M14,15h1v1h-1z M15,15h1v1h-1z M18,15h1v1h-1z M19,15h1v1h-1z M20,15h1v1h-1z M26,15h1v1h-1z M27,15h1v1h-1z M31,15h1v1h-1z M32,15h1v1h-1z M33,15h1v1h-1z M35,15h1v1h-1z M37,15h1v1h-1z M42,15h1v1h-1z M43,15h1v1h-1z M44,15h1v1h-1z M47,15h1v1h-1z M51,15h1v1h-1z M52,15h1v1h-1z M53,15h1v1h-1z M54,15h1v1h-1z M56,15h1v1h-1z M57,15h1v1h-1z M59,15h1v1h-1z M62,15h1v1h-1z M66,15h1v1h-1z M68,15h1v1h-1z M69,15h1v1h-1z M70,15h1v1h-1z M73,15h1v1h-1z M75,15h1v1h-1z M76,15h1v1h-1z M77,15h1v1h-1z M80,15h1v1h-1z M82,15h1v1h-1z M83,15h1v1h-1z M85,15h1v1h-1z M89,15h1v1h-1z M90,15h1v1h-1z M92,15h1v1h-1z M94,15h1v1h-1z M95,15h1v1h-1z M97,15h1v1h-1z M98,15h1v1h-1z M100,15h1v1h-1z M101,15h1v1h-1z M103,15h1v1h-1z M105,15h1v1h-1z M108,15h1v1h-1z M5,16h1v1h-1z M6,16h1v1h-1z M10,16h1v1h-1z M14,16h1v1h-1z M15,16h1v1h-1z M16,16h1v1h-1z M17,16h1v1h-1z M18,16h1v1h-1z M19,16h1v1h-1z M22,16h1v1h-1z M24,16h1v1h-1z M26,16h1v1h-1z M30,16h1v1h-1z M33,16h1v1h-1z M34,16h1v1h-1z M36,16h1v1h-1z M45,16h1v1h-1z M48,16h1v1h-1z M50,16h1v1h-1z M54,16h1v1h-1z M55,16h1v1h-1z M60,16h1v1h-1z M62,16h1v1h-1z M63,16h1v1h-1z M65,16h1v1h-1z M66,16h1v1h-1z M67,16h1v1h-1z M68,16h1v1h-1z M71,16h1v1h-1z M72,16h1v1h-1z M73,16h1v1h-1z M74,16h1v1h-1z M75,16h1v1h-1z M78,16h1v1h-1z M82,16h1v1h-1z M84,16h1v1h-1z M85,16h1v1h-1z M87,16h1v1h-1z M88,16h1v1h-1z M90,16h1v1h-1z M91,16h1v1h-1z M95,16h1v1h-1z M99,16h1v1h-1z M100,16h1v1h-1z M101,16h1v1h-1z M102,16h1v1h-1z M108,16h1v1h-1z M12,17h1v1h-1z M15,17h1v1h-1z M16,17h1v1h-1z M17,17h1v1h-1z M18,17h1v1h-1z M20,17h1v1h-1z M22,17h1v1h-1z M24,17h1v1h-1z M25,17h1v1h-1z M27,17h1v1h-1z M28,17h1v1h-1z M30,17h1v1h-1z M33,17h1v1h-1z M34,17h1v1h-1z M35,17h1v1h-1z M36,17h1v1h-1z M37,17h1v1h-1z M45,17h1v1h-1z M46,17h1v1h-1z M48,17h1v1h-1z M50,17h1v1h-1z M51,17h1v1h-1z M52,17h1v1h-1z M54,17h1v1h-1z M58,17h1v1h-1z M59,17h1v1h-1z M62,17h1v1h-1z M63,17h1v1h-1z M67,17h1v1h-1z M68,17h1v1h-1z M69,17h1v1h-1z M70,17h1v1h-1z M71,17h1v1h-1z M73,17h1v1h-1z M74,17h1v1h-1z M76,17h1v1h-1z M77,17h1v1h-1z M79,17h1v1h-1z M83,17h1v1h-1z M84,17h1v1h-1z M86,17h1v1h-1z M87,17h1v1h-1z M88,17h1v1h-1z M89,17h1v1h-1z M91,17h1v1h-1z M93,17h1v1h-1z M94,17h1v1h-1z M95,17h1v1h-1z M96,17h1v1h-1z M97,17h1v1h-1z M98,17h1v1h-1z M99,17h1v1h-1z M100,17h1v1h-1z M101,17h1v1h-1z M102,17h1v1h-1z M107,17h1v1h-1z M108,17h1v1h-1z M4,18h1v1h-1z M5,18h1v1h-1z M6,18h1v1h-1z M7,18h1v1h-1z M9,18h1v1h-1z M10,18h1v1h-1z M11,18h1v1h-1z M12,18h1v1h-1z M13,18h1v1h-1z M15,18h1v1h-1z M16,18h1v1h-1z M17,18h1v1h-1z M21,18h1v1h-1z M23,18h1v1h-1z M24,18h1v1h-1z M26,18h1v1h-1z M27,18h1v1h-1z M28,18h1v1h-1z M29,18h1v1h-1z M31,18h1v1h-1z M32,18h1v1h-1z M35,18h1v1h-1z M36,18h1v1h-1z M37,18h1v1h-1z M38,18h1v1h-1z M39,18h1v1h-1z M41,18h1v1h-1z M48,18h1v1h-1z M50,18h1v1h-1z M53,18h1v1h-1z M60,18h1v1h-1z M62,18h1v1h-1z M64,18h1v1h-1z M65,18h1v1h-1z M67,18h1v1h-1z M71,18h1v1h-1z M72,18h1v1h-1z M74,18h1v1h-1z M76,18h1v1h-1z M77,18h1v1h-1z M79,18h1v1h-1z M80,18h1v1h-1z M83,18h1v1h-1z M85,18h1v1h-1z M86,18h1v1h-1z M87,18h1v1h-1z M88,18h1v1h-1z M89,18h1v1h-1z M95,18h1v1h-1z M96,18h1v1h-1z M98,18h1v1h-1z M100,18h1v1h-1z M101,18h1v1h-1z M104,18h1v1h-1z M105,18h1v1h-1z M106,18h1v1h-1z M107,18h1v1h-1z M4,19h1v1h-1z M8,19h1v1h-1z M16,19h1v1h-1z M17,19h1v1h-1z M18,19h1v1h-1z M22,19h1v1h-1z M24,19h1v1h-1z M25,19h1v1h-1z M26,19h1v1h-1z M27,19h1v1h-1z M28,19h1v1h-1z M29,19h1v1h-1z M30,19h1v1h-1z M32,19h1v1h-1z M35,19h1v1h-1z M43,19h1v1h-1z M44,19h1v1h-1z M45,19h1v1h-1z M47,19h1v1h-1z M50,19h1v1h-1z M51,19h1v1h-1z M52,19h1v1h-1z M53,19h1v1h-1z M55,19h1v1h-1z M56,19h1v1h-1z M57,19h1v1h-1z M59,19h1v1h-1z M61,19h1v1h-1z M62,19h1v1h-1z M63,19h1v1h-1z M65,19h1v1h-1z M68,19h1v1h-1z M71,19h1v1h-1z M74,19h1v1h-1z M78,19h1v1h-1z M80,19h1v1h-1z M81,19h1v1h-1z M82,19h1v1h-1z M83,19h1v1h-1z M91,19h1v1h-1z M92,19h1v1h-1z M93,19h1v1h-1z M94,19h1v1h-1z M97,19h1v1h-1z M98,19h1v1h-1z M99,19h1v1h-1z M100,19h1v1h-1z M103,19h1v1h-1z M4,20h1v1h-1z M9,20h1v1h-1z M10,20h1v1h-1z M11,20h1v1h-1z M12,20h1v1h-1z M13,20h1v1h-1z M14,20h1v1h-1z M16,20h1v1h-1z M23,20h1v1h-1z M25,20h1v1h-1z M27,20h1v1h-1z M28,20h1v1h-1z M29,20h1v1h-1z M31,20h1v1h-1z M34,20h1v1h-1z M35,20h1v1h-1z M36,20h1v1h-1z M38,20h1v1h-1z M39,20h1v1h-1z M42,20h1v1h-1z M43,20h1v1h-1z M44,20h1v1h-1z M46,20h1v1h-1z M48,20h1v1h-1z M49,20h1v1h-1z M51,20h1v1h-1z M54,20h1v1h-1z M57,20h1v1h-1z M58,20h1v1h-1z M61,20h1v1h-1z M63,20h1v1h-1z M64,20h1v1h-1z M65,20h1v1h-1z M67,20h1v1h-1z M70,20h1v1h-1z M71,20h1v1h-1z M73,20h1v1h-1z M74,20h1v1h-1z M75,20h1v1h-1z M76,20h1v1h-1z M77,20h1v1h-1z M78,20h1v1h-1z M79,20h1v1h-1z M80,20h1v1h-1z M82,20h1v1h-1z M84,20h1v1h-1z M85,20h1v1h-1z M88,20h1v1h-1z M89,20h1v1h-1z M91,20h1v1h-1z M92,20h1v1h-1z M93,20h1v1h-1z M99,20h1v1h-1z M100,20h1v1h-1z M104,20h1v1h-1z M108,20h1v1h-1z M9,21h1v1h-1z M11,21h1v1h-1z M12,21h1v1h-1z M13,21h1v1h-1z M15,21h1v1h-1z M16,21h1v1h-1z M18,21h1v1h-1z M21,21h1v1h-1z M22,21h1v1h-1z M24,21h1v1h-1z M26,21h1v1h-1z M27,21h1v1h-1z M28,21h1v1h-1z M29,21h1v1h-1z M30,21h1v1h-1z M31,21h1v1h-1z M33,21h1v1h-1z M36,21h1v1h-1z M38,21h1v1h-1z M41,21h1v1h-1z M42,21h1v1h-1z M43,21h1v1h-1z M45,21h1v1h-1z M47,21h1v1h-1z M48,21h1v1h-1z M49,21h1v1h-1z M50,21h1v1h-1z M52,21h1v1h-1z M55,21h1v1h-1z M57,21h1v1h-1z M58,21h1v1h-1z M59,21h1v1h-1z M60,21h1v1h-1z M62,21h1v1h-1z M64,21h1v1h-1z M65,21h1v1h-1z M66,21h1v1h-1z M67,21h1v1h-1z M68,21h1v1h-1z M71,21h1v1h-1z M72,21h1v1h-1z M73,21h1v1h-1z M74,21h1v1h-1z M75,21h1v1h-1z M76,21h1v1h-1z M80,21h1v1h-1z M81,21h1v1h-1z M82,21h1v1h-1z M84,21h1v1h-1z M85,21h1v1h-1z M87,21h1v1h-1z M88,21h1v1h-1z M89,21h1v1h-1z M91,21h1v1h-1z M92,21h1v1h-1z M95,21h1v1h-1z M96,21h1v1h-1z M97,21h1v1h-1z M98,21h1v1h-1z M99,21h1v1h-1z M102,21h1v1h-1z M103,21h1v1h-1z M104,21h1v1h-1z M105,21h1v1h-1z M106,21h1v1h-1z M107,21h1v1h-1z M5,22h1v1h-1z M8,22h1v1h-1z M9,22h1v1h-1z M10,22h1v1h-1z M11,22h1v1h-1z M12,22h1v1h-1z M13,22h1v1h-1z M14,22h1v1h-1z M16,22h1v1h-1z M22,22h1v1h-1z M24,22h1v1h-1z M26,22h1v1h-1z M28,22h1v1h-1z M29,22h1v1h-1z M31,22h1v1h-1z M36,22h1v1h-1z M38,22h1v1h-1z M39,22h1v1h-1z M40,22h1v1h-1z M45,22h1v1h-1z M50,22h1v1h-1z M52,22h1v1h-1z M53,22h1v1h-1z M55,22h1v1h-1z M56,22h1v1h-1z M59,22h1v1h-1z M60,22h1v1h-1z M61,22h1v1h-1z M62,22h1v1h-1z M64,22h1v1h-1z M65,22h1v1h-1z M71,22h1v1h-1z M72,22h1v1h-1z M74,22h1v1h-1z M76,22h1v1h-1z M77,22h1v1h-1z M84,22h1v1h-1z M86,22h1v1h-1z M88,22h1v1h-1z M89,22h1v1h-1z M98,22h1v1h-1z M99,22h1v1h-1z M101,22h1v1h-1z M102,22h1v1h-1z M103,22h1v1h-1z M104,22h1v1h-1z M107,22h1v1h-1z M4,23h1v1h-1z M6,23h1v1h-1z M7,23h1v1h-1z M13,23h1v1h-1z M17,23h1v1h-1z M20,23h1v1h-1z M21,23h1v1h-1z M23,23h1v1h-1z M24,23h1v1h-1z M25,23h1v1h-1z M26,23h1v1h-1z M32,23h1v1h-1z M33,23h1v1h-1z M34,23h1v1h-1z M35,23h1v1h-1z M37,23h1v1h-1z M41,23h1v1h-1z M42,23h1v1h-1z M43,23h1v1h-1z M44,23h1v1h-1z M46,23h1v1h-1z M47,23h1v1h-1z M50,23h1v1h-1z M52,23h1v1h-1z M53,23h1v1h-1z M56,23h1v1h-1z M57,23h1v1h-1z M58,23h1v1h-1z M63,23h1v1h-1z M65,23h1v1h-1z M67,23h1v1h-1z M68,23h1v1h-1z M69,23h1v1h-1z M70,23h1v1h-1z M74,23h1v1h-1z M76,23h1v1h-1z M78,23h1v1h-1z M79,23h1v1h-1z M80,23h1v1h-1z M81,23h1v1h-1z M83,23h1v1h-1z M85,23h1v1h-1z M86,23h1v1h-1z M89,23h1v1h-1z M92,23h1v1h-1z M93,23h1v1h-1z M94,23h1v1h-1z M95,23h1v1h-1z M97,23h1v1h-1z M99,23h1v1h-1z M100,23h1v1h-1z M101,23h1v1h-1z M103,23h1v1h-1z M105,23h1v1h-1z M107,23h1v1h-1z M5,24h1v1h-1z M7,24h1v1h-1z M8,24h1v1h-1z M9,24h1v1h-1z M10,24h1v1h-1z M11,24h1v1h-1z M13,24h1v1h-1z M14,24h1v1h-1z M18,24h1v1h-1z M19,24h1v1h-1z M20,24h1v1h-1z M21,24h1v1h-1z M22,24h1v1h-1z M24,24h1v1h-1z M29,24h1v1h-1z M33,24h1v1h-1z M34,24h1v1h-1z M35,24h1v1h-1z M36,24h1v1h-1z M37,24h1v1h-1z M38,24h1v1h-1z M39,24h1v1h-1z M42,24h1v1h-1z M43,24h1v1h-1z M44,24h1v1h-1z M47,24h1v1h-1z M51,24h1v1h-1z M54,24h1v1h-1z M55,24h1v1h-1z M59,24h1v1h-1z M64,24h1v1h-1z M65,24h1v1h-1z M68,24h1v1h-1z M69,24h1v1h-1z M70,24h1v1h-1z M71,24h1v1h-1z M72,24h1v1h-1z M73,24h1v1h-1z M76,24h1v1h-1z M80,24h1v1h-1z M83,24h1v1h-1z M84,24h1v1h-1z M88,24h1v1h-1z M89,24h1v1h-1z M90,24h1v1h-1z M94,24h1v1h-1z M95,24h1v1h-1z M99,24h1v1h-1z M100,24h1v1h-1z M101,24h1v1h-1z M102,24h1v1h-1z M103,24h1v1h-1z M105,24h1v1h-1z M107,24h1v1h-1z M5,25h1v1h-1z M7,25h1v1h-1z M9,25h1v1h-1z M11,25h1v1h-1z M14,25h1v1h-1z M17,25h1v1h-1z M18,25h1v1h-1z M20,25h1v1h-1z M24,25h1v1h-1z M27,25h1v1h-1z M28,25h1v1h-1z M30,25h1v1h-1z M31,25h1v1h-1z M32,25h1v1h-1z M37,25h1v1h-1z M40,25h1v1h-1z M42,25h1v1h-1z M44,25h1v1h-1z M45,25h1v1h-1z M47,25h1v1h-1z M48,25h1v1h-1z M51,25h1v1h-1z M52,25h1v1h-1z M53,25h1v1h-1z M56,25h1v1h-1z M58,25h1v1h-1z M59,25h1v1h-1z M61,25h1v1h-1z M64,25h1v1h-1z M65,25h1v1h-1z M66,25h1v1h-1z M67,25h1v1h-1z M69,25h1v1h-1z M71,25h1v1h-1z M75,25h1v1h-1z M76,25h1v1h-1z M77,25h1v1h-1z M78,25h1v1h-1z M80,25h1v1h-1z M82,25h1v1h-1z M83,25h1v1h-1z M84,25h1v1h-1z M85,25h1v1h-1z M86,25h1v1h-1z M87,25h1v1h-1z M88,25h1v1h-1z M90,25h1v1h-1z M91,25h1v1h-1z M94,25h1v1h-1z M95,25h1v1h-1z M96,25h1v1h-1z M97,25h1v1h-1z M99,25h1v1h-1z M100,25h1v1h-1z M101,25h1v1h-1z M102,25h1v1h-1z M4,26h1v1h-1z M7,26h1v1h-1z M8,26h1v1h-1z M10,26h1v1h-1z M11,26h1v1h-1z M12,26h1v1h-1z M13,26h1v1h-1z M14,26h1v1h-1z M16,26h1v1h-1z M17,26h1v1h-1z M18,26h1v1h-1z M19,26h1v1h-1z M20,26h1v1h-1z M24,26h1v1h-1z M26,26h1v1h-1z M27,26h1v1h-1z M29,26h1v1h-1z M35,26h1v1h-1z M36,26h1v1h-1z M38,26h1v1h-1z M39,26h1v1h-1z M40,26h1v1h-1z M41,26h1v1h-1z M43,26h1v1h-1z M44,26h1v1h-1z M45,26h1v1h-1z M50,26h1v1h-1z M52,26h1v1h-1z M53,26h1v1h-1z M62,26h1v1h-1z M63,26h1v1h-1z M65,26h1v1h-1z M71,26h1v1h-1z M74,26h1v1h-1z M77,26h1v1h-1z M79,26h1v1h-1z M86,26h1v1h-1z M87,26h1v1h-1z M89,26h1v1h-1z M92,26h1v1h-1z M95,26h1v1h-1z M96,26h1v1h-1z M98,26h1v1h-1z M99,26h1v1h-1z M100,26h1v1h-1z M102,26h1v1h-1z M104,26h1v1h-1z M105,26h1v1h-1z M4,27h1v1h-1z M5,27h1v1h-1z M6,27h1v1h-1z M7,27h1v1h-1z M8,27h1v1h-1z M9,27h1v1h-1z M13,27h1v1h-1z M15,27h1v1h-1z M17,27h1v1h-1z M18,27h1v1h-1z M21,27h1v1h-1z M23,27h1v1h-1z M24,27h1v1h-1z M25,27h1v1h-1z M30,27h1v1h-1z M31,27h1v1h-1z M32,27h1v1h-1z M37,27h1v1h-1z M42,27h1v1h-1z M44,27h1v1h-1z M46,27h1v1h-1z M47,27h1v1h-1z M51,27h1v1h-1z M56,27h1v1h-1z M57,27h1v1h-1z M59,27h1v1h-1z M67,27h1v1h-1z M68,27h1v1h-1z M69,27h1v1h-1z M71,27h1v1h-1z M74,27h1v1h-1z M75,27h1v1h-1z M78,27h1v1h-1z M80,27h1v1h-1z M81,27h1v1h-1z M82,27h1v1h-1z M83,27h1v1h-1z M85,27h1v1h-1z M92,27h1v1h-1z M93,27h1v1h-1z M95,27h1v1h-1z M97,27h1v1h-1z M100,27h1v1h-1z M101,27h1v1h-1z M107,27h1v1h-1z M5,28h1v1h-1z M6,28h1v1h-1z M7,28h1v1h-1z M8,28h1v1h-1z M9,28h1v1h-1z M10,28h1v1h-1z M11,28h1v1h-1z M12,28h1v1h-1z M13,28h1v1h-1z M15,28h1v1h-1z M19,28h1v1h-1z M21,28h1v1h-1z M23,28h1v1h-1z M26,28h1v1h-1z M28,28h1v1h-1z M29,28h1v1h-1z M30,28h1v1h-1z M31,28h1v1h-1z M32,28h1v1h-1z M34,28h1v1h-1z M35,28h1v1h-1z M39,28h1v1h-1z M40,28h1v1h-1z M41,28h1v1h-1z M43,28h1v1h-1z M44,28h1v1h-1z M45,28h1v1h-1z M46,28h1v1h-1z M48,28h1v1h-1z M49,28h1v1h-1z M50,28h1v1h-1z M51,28h1v1h-1z M52,28h1v1h-1z M53,28h1v1h-1z M54,28h1v1h-1z M55,28h1v1h-1z M56,28h1v1h-1z M58,28h1v1h-1z M59,28h1v1h-1z M60,28h1v1h-1z M61,28h1v1h-1z M62,28h1v1h-1z M63,28h1v1h-1z M65,28h1v1h-1z M66,28h1v1h-1z M68,28h1v1h-1z M69,28h1v1h-1z M71,28h1v1h-1z M72,28h1v1h-1z M73,28h1v1h-1z M76,28h1v1h-1z M77,28h1v1h-1z M78,28h1v1h-1z M79,28h1v1h-1z M80,28h1v1h-1z M81,28h1v1h-1z M84,28h1v1h-1z M85,28h1v1h-1z M89,28h1v1h-1z M90,28h1v1h-1z M92,28h1v1h-1z M94,28h1v1h-1z M98,28h1v1h-1z M99,28h1v1h-1z M100,28h1v1h-1z M101,28h1v1h-1z M102,28h1v1h-1z M103,28h1v1h-1z M104,28h1v1h-1z M105,28h1v1h-1z M106,28h1v1h-1z M108,28h1v1h-1z M4,29h1v1h-1z M5,29h1v1h-1z M6,29h1v1h-1z M8,29h1v1h-1z M12,29h1v1h-1z M14,29h1v1h-1z M16,29h1v1h-1z M20,29h1v1h-1z M21,29h1v1h-1z M22,29h1v1h-1z M25,29h1v1h-1z M27,29h1v1h-1z M28,29h1v1h-1z M32,29h1v1h-1z M33,29h1v1h-1z M35,29h1v1h-1z M36,29h1v1h-1z M38,29h1v1h-1z M43,29h1v1h-1z M44,29h1v1h-1z M45,29h1v1h-1z M47,29h1v1h-1z M48,29h1v1h-1z M49,29h1v1h-1z M50,29h1v1h-1z M51,29h1v1h-1z M52,29h1v1h-1z M56,29h1v1h-1z M60,29h1v1h-1z M62,29h1v1h-1z M63,29h1v1h-1z M64,29h1v1h-1z M66,29h1v1h-1z M69,29h1v1h-1z M71,29h1v1h-1z M72,29h1v1h-1z M75,29h1v1h-1z M76,29h1v1h-1z M80,29h1v1h-1z M81,29h1v1h-1z M82,29h1v1h-1z M83,29h1v1h-1z M84,29h1v1h-1z M85,29h1v1h-1z M88,29h1v1h-1z M89,29h1v1h-1z M93,29h1v1h-1z M94,29h1v1h-1z M96,29h1v1h-1z M97,29h1v1h-1z M98,29h1v1h-1z M100,29h1v1h-1z M104,29h1v1h-1z M106,29h1v1h-1z M4,30h1v1h-1z M5,30h1v1h-1z M6,30h1v1h-1z M8,30h1v1h-1z M10,30h1v1h-1z M12,30h1v1h-1z M13,30h1v1h-1z M14,30h1v1h-1z M18,30h1v1h-1z M23,30h1v1h-1z M26,30h1v1h-1z M28,30h1v1h-1z M30,30h1v1h-1z M32,30h1v1h-1z M33,30h1v1h-1z M36,30h1v1h-1z M38,30h1v1h-1z M40,30h1v1h-1z M41,30h1v1h-1z M44,30h1v1h-1z M45,30h1v1h-1z M49,30h1v1h-1z M50,30h1v1h-1z M52,30h1v1h-1z M54,30h1v1h-1z M56,30h1v1h-1z M57,30h1v1h-1z M59,30h1v1h-1z M62,30h1v1h-1z M65,30h1v1h-1z M67,30h1v1h-1z M68,30h1v1h-1z M74,30h1v1h-1z M75,30h1v1h-1z M76,30h1v1h-1z M78,30h1v1h-1z M80,30h1v1h-1z M84,30h1v1h-1z M86,30h1v1h-1z M87,30h1v1h-1z M89,30h1v1h-1z M97,30h1v1h-1z M98,30h1v1h-1z M99,30h1v1h-1z M100,30h1v1h-1z M102,30h1v1h-1z M104,30h1v1h-1z M106,30h1v1h-1z M4,31h1v1h-1z M7,31h1v1h-1z M8,31h1v1h-1z M12,31h1v1h-1z M13,31h1v1h-1z M15,31h1v1h-1z M20,31h1v1h-1z M22,31h1v1h-1z M23,31h1v1h-1z M24,31h1v1h-1z M27,31h1v1h-1z M28,31h1v1h-1z M32,31h1v1h-1z M34,31h1v1h-1z M35,31h1v1h-1z M38,31h1v1h-1z M44,31h1v1h-1z M46,31h1v1h-1z M47,31h1v1h-1z M49,31h1v1h-1z M51,31h1v1h-1z M52,31h1v1h-1z M56,31h1v1h-1z M58,31h1v1h-1z M59,31h1v1h-1z M61,31h1v1h-1z M62,31h1v1h-1z M68,31h1v1h-1z M70,31h1v1h-1z M71,31h1v1h-1z M73,31h1v1h-1z M74,31h1v1h-1z M75,31h1v1h-1z M76,31h1v1h-1z M80,31h1v1h-1z M81,31h1v1h-1z M83,31h1v1h-1z M85,31h1v1h-1z M86,31h1v1h-1z M91,31h1v1h-1z M92,31h1v1h-1z M93,31h1v1h-1z M95,31h1v1h-1z M97,31h1v1h-1z M99,31h1v1h-1z M100,31h1v1h-1z M104,31h1v1h-1z M107,31h1v1h-1z M108,31h1v1h-1z M4,32h1v1h-1z M5,32h1v1h-1z M7,32h1v1h-1z M8,32h1v1h-1z M9,32h1v1h-1z M10,32h1v1h-1z M11,32h1v1h-1z M12,32h1v1h-1z M14,32h1v1h-1z M15,32h1v1h-1z M16,32h1v1h-1z M17,32h1v1h-1z M18,32h1v1h-1z M21,32h1v1h-1z M23,32h1v1h-1z M24,32h1v1h-1z M25,32h1v1h-1z M26,32h1v1h-1z M28,32h1v1h-1z M29,32h1v1h-1z M30,32h1v1h-1z M31,32h1v1h-1z M32,32h1v1h-1z M33,32h1v1h-1z M34,32h1v1h-1z M35,32h1v1h-1z M37,32h1v1h-1z M46,32h1v1h-1z M48,32h1v1h-1z M49,32h1v1h-1z M50,32h1v1h-1z M51,32h1v1h-1z M52,32h1v1h-1z M53,32h1v1h-1z M54,32h1v1h-1z M55,32h1v1h-1z M56,32h1v1h-1z M59,32h1v1h-1z M61,32h1v1h-1z M62,32h1v1h-1z M63,32h1v1h-1z M64,32h1v1h-1z M65,32h1v1h-1z M69,32h1v1h-1z M70,32h1v1h-1z M74,32h1v1h-1z M75,32h1v1h-1z M76,32h1v1h-1z M77,32h1v1h-1z M78,32h1v1h-1z M79,32h1v1h-1z M80,32h1v1h-1z M81,32h1v1h-1z M82,32h1v1h-1z M83,32h1v1h-1z M84,32h1v1h-1z M86,32h1v1h-1z M90,32h1v1h-1z M91,32h1v1h-1z M92,32h1v1h-1z M98,32h1v1h-1z M100,32h1v1h-1z M101,32h1v1h-1z M102,32h1v1h-1z M103,32h1v1h-1z M104,32h1v1h-1z M107,32h1v1h-1z M108,32h1v1h-1z M4,33h1v1h-1z M6,33h1v1h-1z M7,33h1v1h-1z M9,33h1v1h-1z M12,33h1v1h-1z M13,33h1v1h-1z M14,33h1v1h-1z M15,33h1v1h-1z M18,33h1v1h-1z M20,33h1v1h-1z M21,33h1v1h-1z M22,33h1v1h-1z M26,33h1v1h-1z M27,33h1v1h-1z M34,33h1v1h-1z M35,33h1v1h-1z M36,33h1v1h-1z M38,33h1v1h-1z M39,33h1v1h-1z M40,33h1v1h-1z M41,33h1v1h-1z M42,33h1v1h-1z M47,33h1v1h-1z M48,33h1v1h-1z M52,33h1v1h-1z M53,33h1v1h-1z M55,33h1v1h-1z M58,33h1v1h-1z M59,33h1v1h-1z M60,33h1v1h-1z M61,33h1v1h-1z M62,33h1v1h-1z M64,33h1v1h-1z M67,33h1v1h-1z M69,33h1v1h-1z M72,33h1v1h-1z M76,33h1v1h-1z M78,33h1v1h-1z M79,33h1v1h-1z M80,33h1v1h-1z M82,33h1v1h-1z M83,33h1v1h-1z M84,33h1v1h-1z M88,33h1v1h-1z M93,33h1v1h-1z M95,33h1v1h-1z M96,33h1v1h-1z M100,33h1v1h-1z M101,33h1v1h-1z M106,33h1v1h-1z M6,34h1v1h-1z M7,34h1v1h-1z M8,34h1v1h-1z M9,34h1v1h-1z M10,34h1v1h-1z M11,34h1v1h-1z M12,34h1v1h-1z M13,34h1v1h-1z M14,34h1v1h-1z M15,34h1v1h-1z M16,34h1v1h-1z M18,34h1v1h-1z M23,34h1v1h-1z M27,34h1v1h-1z M28,34h1v1h-1z M30,34h1v1h-1z M32,34h1v1h-1z M38,34h1v1h-1z M39,34h1v1h-1z M43,34h1v1h-1z M44,34h1v1h-1z M47,34h1v1h-1z M50,34h1v1h-1z M52,34h1v1h-1z M55,34h1v1h-1z M56,34h1v1h-1z M59,34h1v1h-1z M60,34h1v1h-1z M61,34h1v1h-1z M62,34h1v1h-1z M63,34h1v1h-1z M64,34h1v1h-1z M65,34h1v1h-1z M67,34h1v1h-1z M68,34h1v1h-1z M71,34h1v1h-1z M72,34h1v1h-1z M74,34h1v1h-1z M75,34h1v1h-1z M76,34h1v1h-1z M77,34h1v1h-1z M78,34h1v1h-1z M79,34h1v1h-1z M81,34h1v1h-1z M83,34h1v1h-1z M84,34h1v1h-1z M86,34h1v1h-1z M87,34h1v1h-1z M88,34h1v1h-1z M92,34h1v1h-1z M95,34h1v1h-1z M96,34h1v1h-1z M98,34h1v1h-1z M99,34h1v1h-1z M100,34h1v1h-1z M102,34h1v1h-1z M103,34h1v1h-1z M105,34h1v1h-1z M106,34h1v1h-1z M107,34h1v1h-1z M4,35h1v1h-1z M5,35h1v1h-1z M6,35h1v1h-1z M11,35h1v1h-1z M12,35h1v1h-1z M13,35h1v1h-1z M17,35h1v1h-1z M18,35h1v1h-1z M22,35h1v1h-1z M23,35h1v1h-1z M25,35h1v1h-1z M26,35h1v1h-1z M27,35h1v1h-1z M28,35h1v1h-1z M29,35h1v1h-1z M33,35h1v1h-1z M34,35h1v1h-1z M35,35h1v1h-1z M37,35h1v1h-1z M38,35h1v1h-1z M42,35h1v1h-1z M44,35h1v1h-1z M45,35h1v1h-1z M46,35h1v1h-1z M47,35h1v1h-1z M49,35h1v1h-1z M52,35h1v1h-1z M53,35h1v1h-1z M57,35h1v1h-1z M58,35h1v1h-1z M63,35h1v1h-1z M65,35h1v1h-1z M68,35h1v1h-1z M70,35h1v1h-1z M73,35h1v1h-1z M74,35h1v1h-1z M77,35h1v1h-1z M80,35h1v1h-1z M82,35h1v1h-1z M89,35h1v1h-1z M90,35h1v1h-1z M92,35h1v1h-1z M94,35h1v1h-1z M95,35h1v1h-1z M98,35h1v1h-1z M99,35h1v1h-1z M100,35h1v1h-1z M104,35h1v1h-1z M108,35h1v1h-1z M5,36h1v1h-1z M6,36h1v1h-1z M10,36h1v1h-1z M13,36h1v1h-1z M17,36h1v1h-1z M18,36h1v1h-1z M20,36h1v1h-1z M21,36h1v1h-1z M23,36h1v1h-1z M28,36h1v1h-1z M29,36h1v1h-1z M30,36h1v1h-1z M33,36h1v1h-1z M35,36h1v1h-1z M36,36h1v1h-1z M37,36h1v1h-1z M40,36h1v1h-1z M41,36h1v1h-1z M45,36h1v1h-1z M46,36h1v1h-1z M47,36h1v1h-1z M50,36h1v1h-1z M52,36h1v1h-1z M53,36h1v1h-1z M54,36h1v1h-1z M55,36h1v1h-1z M57,36h1v1h-1z M58,36h1v1h-1z M59,36h1v1h-1z M62,36h1v1h-1z M64,36h1v1h-1z M66,36h1v1h-1z M67,36h1v1h-1z M70,36h1v1h-1z M72,36h1v1h-1z M73,36h1v1h-1z M74,36h1v1h-1z M76,36h1v1h-1z M77,36h1v1h-1z M79,36h1v1h-1z M82,36h1v1h-1z M85,36h1v1h-1z M86,36h1v1h-1z M87,36h1v1h-1z M94,36h1v1h-1z M95,36h1v1h-1z M96,36h1v1h-1z M97,36h1v1h-1z M99,36h1v1h-1z M102,36h1v1h-1z M103,36h1v1h-1z M104,36h1v1h-1z M105,36h1v1h-1z M106,36h1v1h-1z M107,36h1v1h-1z M4,37h1v1h-1z M7,37h1v1h-1z M8,37h1v1h-1z M9,37h1v1h-1z M11,37h1v1h-1z M12,37h1v1h-1z M13,37h1v1h-1z M14,37h1v1h-1z M18,37h1v1h-1z M20,37h1v1h-1z M21,37h1v1h-1z M22,37h1v1h-1z M23,37h1v1h-1z M24,37h1v1h-1z M25,37h1v1h-1z M28,37h1v1h-1z M30,37h1v1h-1z M33,37h1v1h-1z M35,37h1v1h-1z M36,37h1v1h-1z M37,37h1v1h-1z M38,37h1v1h-1z M40,37h1v1h-1z M42,37h1v1h-1z M44,37h1v1h-1z M48,37h1v1h-1z M49,37h1v1h-1z M50,37h1v1h-1z M51,37h1v1h-1z M52,37h1v1h-1z M54,37h1v1h-1z M57,37h1v1h-1z M59,37h1v1h-1z M60,37h1v1h-1z M61,37h1v1h-1z M62,37h1v1h-1z M63,37h1v1h-1z M66,37h1v1h-1z M68,37h1v1h-1z M69,37h1v1h-1z M70,37h1v1h-1z M74,37h1v1h-1z M75,37h1v1h-1z M76,37h1v1h-1z M78,37h1v1h-1z M79,37h1v1h-1z M80,37h1v1h-1z M83,37h1v1h-1z M84,37h1v1h-1z M85,37h1v1h-1z M86,37h1v1h-1z M89,37h1v1h-1z M91,37h1v1h-1z M92,37h1v1h-1z M94,37h1v1h-1z M96,37h1v1h-1z M97,37h1v1h-1z M98,37h1v1h-1z M100,37h1v1h-1z M101,37h1v1h-1z M102,37h1v1h-1z M105,37h1v1h-1z M106,37h1v1h-1z M108,37h1v1h-1z M8,38h1v1h-1z M10,38h1v1h-1z M13,38h1v1h-1z M15,38h1v1h-1z M17,38h1v1h-1z M18,38h1v1h-1z M19,38h1v1h-1z M20,38h1v1h-1z M28,38h1v1h-1z M31,38h1v1h-1z M32,38h1v1h-1z M36,38h1v1h-1z M38,38h1v1h-1z M40,38h1v1h-1z M41,38h1v1h-1z M43,38h1v1h-1z M48,38h1v1h-1z M50,38h1v1h-1z M52,38h1v1h-1z M55,38h1v1h-1z M57,38h1v1h-1z M60,38h1v1h-1z M62,38h1v1h-1z M63,38h1v1h-1z M64,38h1v1h-1z M65,38h1v1h-1z M69,38h1v1h-1z M74,38h1v1h-1z M77,38h1v1h-1z M78,38h1v1h-1z M79,38h1v1h-1z M81,38h1v1h-1z M83,38h1v1h-1z M84,38h1v1h-1z M85,38h1v1h-1z M86,38h1v1h-1z M87,38h1v1h-1z M98,38h1v1h-1z M100,38h1v1h-1z M101,38h1v1h-1z M102,38h1v1h-1z M106,38h1v1h-1z M107,38h1v1h-1z M5,39h1v1h-1z M6,39h1v1h-1z M7,39h1v1h-1z M9,39h1v1h-1z M11,39h1v1h-1z M14,39h1v1h-1z M15,39h1v1h-1z M17,39h1v1h-1z M18,39h1v1h-1z M20,39h1v1h-1z M22,39h1v1h-1z M24,39h1v1h-1z M25,39h1v1h-1z M26,39h1v1h-1z M28,39h1v1h-1z M29,39h1v1h-1z M31,39h1v1h-1z M32,39h1v1h-1z M33,39h1v1h-1z M35,39h1v1h-1z M37,39h1v1h-1z M42,39h1v1h-1z M44,39h1v1h-1z M46,39h1v1h-1z M47,39h1v1h-1z M49,39h1v1h-1z M52,39h1v1h-1z M53,39h1v1h-1z M57,39h1v1h-1z M58,39h1v1h-1z M59,39h1v1h-1z M61,39h1v1h-1z M65,39h1v1h-1z M67,39h1v1h-1z M68,39h1v1h-1z M70,39h1v1h-1z M71,39h1v1h-1z M75,39h1v1h-1z M76,39h1v1h-1z M77,39h1v1h-1z M82,39h1v1h-1z M83,39h1v1h-1z M90,39h1v1h-1z M91,39h1v1h-1z M92,39h1v1h-1z M93,39h1v1h-1z M94,39h1v1h-1z M95,39h1v1h-1z M97,39h1v1h-1z M98,39h1v1h-1z M99,39h1v1h-1z M101,39h1v1h-1z M104,39h1v1h-1z M5,40h1v1h-1z M7,40h1v1h-1z M9,40h1v1h-1z M10,40h1v1h-1z M12,40h1v1h-1z M13,40h1v1h-1z M14,40h1v1h-1z M17,40h1v1h-1z M18,40h1v1h-1z M24,40h1v1h-1z M26,40h1v1h-1z M28,40h1v1h-1z M31,40h1v1h-1z M33,40h1v1h-1z M36,40h1v1h-1z M37,40h1v1h-1z M39,40h1v1h-1z M43,40h1v1h-1z M47,40h1v1h-1z M48,40h1v1h-1z M50,40h1v1h-1z M52,40h1v1h-1z M53,40h1v1h-1z M55,40h1v1h-1z M58,40h1v1h-1z M62,40h1v1h-1z M63,40h1v1h-1z M64,40h1v1h-1z M66,40h1v1h-1z M67,40h1v1h-1z M68,40h1v1h-1z M69,40h1v1h-1z M70,40h1v1h-1z M73,40h1v1h-1z M76,40h1v1h-1z M78,40h1v1h-1z M81,40h1v1h-1z M82,40h1v1h-1z M83,40h1v1h-1z M85,40h1v1h-1z M87,40h1v1h-1z M89,40h1v1h-1z M91,40h1v1h-1z M95,40h1v1h-1z M99,40h1v1h-1z M102,40h1v1h-1z M103,40h1v1h-1z M105,40h1v1h-1z M108,40h1v1h-1z M4,41h1v1h-1z M5,41h1v1h-1z M6,41h1v1h-1z M8,41h1v1h-1z M16,41h1v1h-1z M17,41h1v1h-1z M18,41h1v1h-1z M28,41h1v1h-1z M29,41h1v1h-1z M31,41h1v1h-1z M33,41h1v1h-1z M36,41h1v1h-1z M37,41h1v1h-1z M40,41h1v1h-1z M42,41h1v1h-1z M43,41h1v1h-1z M44,41h1v1h-1z M45,41h1v1h-1z M46,41h1v1h-1z M48,41h1v1h-1z M49,41h1v1h-1z M50,41h1v1h-1z M51,41h1v1h-1z M54,41h1v1h-1z M55,41h1v1h-1z M56,41h1v1h-1z M57,41h1v1h-1z M58,41h1v1h-1z M59,41h1v1h-1z M61,41h1v1h-1z M66,41h1v1h-1z M68,41h1v1h-1z M72,41h1v1h-1z M73,41h1v1h-1z M74,41h1v1h-1z M76,41h1v1h-1z M77,41h1v1h-1z M78,41h1v1h-1z M79,41h1v1h-1z M80,41h1v1h-1z M81,41h1v1h-1z M84,41h1v1h-1z M86,41h1v1h-1z M87,41h1v1h-1z M88,41h1v1h-1z M89,41h1v1h-1z M90,41h1v1h-1z M91,41h1v1h-1z M94,41h1v1h-1z M95,41h1v1h-1z M98,41h1v1h-1z M100,41h1v1h-1z M101,41h1v1h-1z M104,41h1v1h-1z M106,41h1v1h-1z M4,42h1v1h-1z M6,42h1v1h-1z M8,42h1v1h-1z M9,42h1v1h-1z M10,42h1v1h-1z M11,42h1v1h-1z M12,42h1v1h-1z M14,42h1v1h-1z M17,42h1v1h-1z M20,42h1v1h-1z M21,42h1v1h-1z M24,42h1v1h-1z M25,42h1v1h-1z M26,42h1v1h-1z M29,42h1v1h-1z M31,42h1v1h-1z M35,42h1v1h-1z M36,42h1v1h-1z M38,42h1v1h-1z M39,42h1v1h-1z M40,42h1v1h-1z M43,42h1v1h-1z M47,42h1v1h-1z M48,42h1v1h-1z M50,42h1v1h-1z M54,42h1v1h-1z M55,42h1v1h-1z M56,42h1v1h-1z M60,42h1v1h-1z M62,42h1v1h-1z M67,42h1v1h-1z M68,42h1v1h-1z M71,42h1v1h-1z M74,42h1v1h-1z M76,42h1v1h-1z M77,42h1v1h-1z M78,42h1v1h-1z M83,42h1v1h-1z M86,42h1v1h-1z M89,42h1v1h-1z M91,42h1v1h-1z M96,42h1v1h-1z M97,42h1v1h-1z M98,42h1v1h-1z M102,42h1v1h-1z M103,42h1v1h-1z M107,42h1v1h-1z M4,43h1v1h-1z M5,43h1v1h-1z M6,43h1v1h-1z M13,43h1v1h-1z M14,43h1v1h-1z M16,43h1v1h-1z M17,43h1v1h-1z M18,43h1v1h-1z M22,43h1v1h-1z M23,43h1v1h-1z M25,43h1v1h-1z M28,43h1v1h-1z M29,43h1v1h-1z M31,43h1v1h-1z M33,43h1v1h-1z M35,43h1v1h-1z M37,43h1v1h-1z M38,43h1v1h-1z M41,43h1v1h-1z M42,43h1v1h-1z M44,43h1v1h-1z M45,43h1v1h-1z M46,43h1v1h-1z M49,43h1v1h-1z M50,43h1v1h-1z M52,43h1v1h-1z M53,43h1v1h-1z M55,43h1v1h-1z M56,43h1v1h-1z M57,43h1v1h-1z M58,43h1v1h-1z M59,43h1v1h-1z M61,43h1v1h-1z M65,43h1v1h-1z M66,43h1v1h-1z M68,43h1v1h-1z M69,43h1v1h-1z M71,43h1v1h-1z M73,43h1v1h-1z M75,43h1v1h-1z M76,43h1v1h-1z M77,43h1v1h-1z M79,43h1v1h-1z M80,43h1v1h-1z M82,43h1v1h-1z M83,43h1v1h-1z M85,43h1v1h-1z M89,43h1v1h-1z M91,43h1v1h-1z M92,43h1v1h-1z M93,43h1v1h-1z M94,43h1v1h-1z M95,43h1v1h-1z M99,43h1v1h-1z M101,43h1v1h-1z M104,43h1v1h-1z M107,43h1v1h-1z M5,44h1v1h-1z M7,44h1v1h-1z M10,44h1v1h-1z M14,44h1v1h-1z M16,44h1v1h-1z M23,44h1v1h-1z M24,44h1v1h-1z M25,44h1v1h-1z M30,44h1v1h-1z M35,44h1v1h-1z M37,44h1v1h-1z M38,44h1v1h-1z M39,44h1v1h-1z M41,44h1v1h-1z M46,44h1v1h-1z M47,44h1v1h-1z M50,44h1v1h-1z M52,44h1v1h-1z M54,44h1v1h-1z M55,44h1v1h-1z M58,44h1v1h-1z M59,44h1v1h-1z M60,44h1v1h-1z M61,44h1v1h-1z M62,44h1v1h-1z M63,44h1v1h-1z M64,44h1v1h-1z M65,44h1v1h-1z M66,44h1v1h-1z M70,44h1v1h-1z M71,44h1v1h-1z M72,44h1v1h-1z M79,44h1v1h-1z M85,44h1v1h-1z M86,44h1v1h-1z M87,44h1v1h-1z M88,44h1v1h-1z M90,44h1v1h-1z M91,44h1v1h-1z M93,44h1v1h-1z M95,44h1v1h-1z M97,44h1v1h-1z M99,44h1v1h-1z M102,44h1v1h-1z M103,44h1v1h-1z M106,44h1v1h-1z M107,44h1v1h-1z M4,45h1v1h-1z M8,45h1v1h-1z M9,45h1v1h-1z M11,45h1v1h-1z M12,45h1v1h-1z M13,45h1v1h-1z M14,45h1v1h-1z M20,45h1v1h-1z M22,45h1v1h-1z M24,45h1v1h-1z M26,45h1v1h-1z M27,45h1v1h-1z M28,45h1v1h-1z M29,45h1v1h-1z M33,45h1v1h-1z M34,45h1v1h-1z M36,45h1v1h-1z M39,45h1v1h-1z M40,45h1v1h-1z M42,45h1v1h-1z M43,45h1v1h-1z M44,45h1v1h-1z M46,45h1v1h-1z M47,45h1v1h-1z M48,45h1v1h-1z M53,45h1v1h-1z M54,45h1v1h-1z M55,45h1v1h-1z M57,45h1v1h-1z M59,45h1v1h-1z M60,45h1v1h-1z M63,45h1v1h-1z M64,45h1v1h-1z M68,45h1v1h-1z M70,45h1v1h-1z M72,45h1v1h-1z M75,45h1v1h-1z M76,45h1v1h-1z M77,45h1v1h-1z M81,45h1v1h-1z M83,45h1v1h-1z M84,45h1v1h-1z M85,45h1v1h-1z M89,45h1v1h-1z M90,45h1v1h-1z M91,45h1v1h-1z M96,45h1v1h-1z M100,45h1v1h-1z M102,45h1v1h-1z M104,45h1v1h-1z M105,45h1v1h-1z M106,45h1v1h-1z M6,46h1v1h-1z M8,46h1v1h-1z M10,46h1v1h-1z M11,46h1v1h-1z M12,46h1v1h-1z M13,46h1v1h-1z M14,46h1v1h-1z M15,46h1v1h-1z M17,46h1v1h-1z M20,46h1v1h-1z M21,46h1v1h-1z M22,46h1v1h-1z M23,46h1v1h-1z M25,46h1v1h-1z M26,46h1v1h-1z M27,46h1v1h-1z M28,46h1v1h-1z M29,46h1v1h-1z M30,46h1v1h-1z M32,46h1v1h-1z M35,46h1v1h-1z M36,46h1v1h-1z M37,46h1v1h-1z M38,46h1v1h-1z M40,46h1v1h-1z M41,46h1v1h-1z M44,46h1v1h-1z M47,46h1v1h-1z M48,46h1v1h-1z M50,46h1v1h-1z M51,46h1v1h-1z M53,46h1v1h-1z M56,46h1v1h-1z M62,46h1v1h-1z M64,46h1v1h-1z M65,46h1v1h-1z M72,46h1v1h-1z M73,46h1v1h-1z M74,46h1v1h-1z M75,46h1v1h-1z M78,46h1v1h-1z M83,46h1v1h-1z M86,46h1v1h-1z M87,46h1v1h-1z M89,46h1v1h-1z M91,46h1v1h-1z M92,46h1v1h-1z M95,46h1v1h-1z M98,46h1v1h-1z M102,46h1v1h-1z M7,47h1v1h-1z M8,47h1v1h-1z M9,47h1v1h-1z M11,47h1v1h-1z M15,47h1v1h-1z M18,47h1v1h-1z M19,47h1v1h-1z M20,47h1v1h-1z M21,47h1v1h-1z M24,47h1v1h-1z M27,47h1v1h-1z M28,47h1v1h-1z M29,47h1v1h-1z M31,47h1v1h-1z M32,47h1v1h-1z M33,47h1v1h-1z M34,47h1v1h-1z M37,47h1v1h-1z M42,47h1v1h-1z M44,47h1v1h-1z M46,47h1v1h-1z M47,47h1v1h-1z M49,47h1v1h-1z M56,47h1v1h-1z M57,47h1v1h-1z M59,47h1v1h-1z M62,47h1v1h-1z M67,47h1v1h-1z M68,47h1v1h-1z M69,47h1v1h-1z M70,47h1v1h-1z M71,47h1v1h-1z M73,47h1v1h-1z M75,47h1v1h-1z M76,47h1v1h-1z M79,47h1v1h-1z M80,47h1v1h-1z M81,47h1v1h-1z M82,47h1v1h-1z M83,47h1v1h-1z M85,47h1v1h-1z M86,47h1v1h-1z M90,47h1v1h-1z M92,47h1v1h-1z M93,47h1v1h-1z M94,47h1v1h-1z M95,47h1v1h-1z M97,47h1v1h-1z M98,47h1v1h-1z M99,47h1v1h-1z M101,47h1v1h-1z M102,47h1v1h-1z M103,47h1v1h-1z M104,47h1v1h-1z M4,48h1v1h-1z M5,48h1v1h-1z M7,48h1v1h-1z M9,48h1v1h-1z M10,48h1v1h-1z M15,48h1v1h-1z M19,48h1v1h-1z M22,48h1v1h-1z M24,48h1v1h-1z M29,48h1v1h-1z M31,48h1v1h-1z M34,48h1v1h-1z M35,48h1v1h-1z M38,48h1v1h-1z M40,48h1v1h-1z M47,48h1v1h-1z M48,48h1v1h-1z M49,48h1v1h-1z M55,48h1v1h-1z M58,48h1v1h-1z M59,48h1v1h-1z M60,48h1v1h-1z M61,48h1v1h-1z M66,48h1v1h-1z M67,48h1v1h-1z M69,48h1v1h-1z M71,48h1v1h-1z M72,48h1v1h-1z M74,48h1v1h-1z M76,48h1v1h-1z M79,48h1v1h-1z M83,48h1v1h-1z M84,48h1v1h-1z M86,48h1v1h-1z M88,48h1v1h-1z M90,48h1v1h-1z M91,48h1v1h-1z M92,48h1v1h-1z M93,48h1v1h-1z M94,48h1v1h-1z M96,48h1v1h-1z M97,48h1v1h-1z M100,48h1v1h-1z M102,48h1v1h-1z M103,48h1v1h-1z M105,48h1v1h-1z M107,48h1v1h-1z M4,49h1v1h-1z M5,49h1v1h-1z M8,49h1v1h-1z M11,49h1v1h-1z M13,49h1v1h-1z M14,49h1v1h-1z M16,49h1v1h-1z M17,49h1v1h-1z M18,49h1v1h-1z M19,49h1v1h-1z M21,49h1v1h-1z M22,49h1v1h-1z M27,49h1v1h-1z M28,49h1v1h-1z M32,49h1v1h-1z M33,49h1v1h-1z M35,49h1v1h-1z M36,49h1v1h-1z M37,49h1v1h-1z M38,49h1v1h-1z M39,49h1v1h-1z M40,49h1v1h-1z M43,49h1v1h-1z M45,49h1v1h-1z M46,49h1v1h-1z M48,49h1v1h-1z M49,49h1v1h-1z M50,49h1v1h-1z M52,49h1v1h-1z M54,49h1v1h-1z M55,49h1v1h-1z M59,49h1v1h-1z M61,49h1v1h-1z M62,49h1v1h-1z M64,49h1v1h-1z M65,49h1v1h-1z M67,49h1v1h-1z M72,49h1v1h-1z M74,49h1v1h-1z M76,49h1v1h-1z M77,49h1v1h-1z M82,49h1v1h-1z M83,49h1v1h-1z M86,49h1v1h-1z M91,49h1v1h-1z M94,49h1v1h-1z M96,49h1v1h-1z M97,49h1v1h-1z M98,49h1v1h-1z M99,49h1v1h-1z M100,49h1v1h-1z M101,49h1v1h-1z M102,49h1v1h-1z M105,49h1v1h-1z M107,49h1v1h-1z M4,50h1v1h-1z M10,50h1v1h-1z M11,50h1v1h-1z M12,50h1v1h-1z M14,50h1v1h-1z M17,50h1v1h-1z M22,50h1v1h-1z M24,50h1v1h-1z M25,50h1v1h-1z M27,50h1v1h-1z M28,50h1v1h-1z M30,50h1v1h-1z M31,50h1v1h-1z M32,50h1v1h-1z M36,50h1v1h-1z M37,50h1v1h-1z M38,50h1v1h-1z M39,50h1v1h-1z M41,50h1v1h-1z M47,50h1v1h-1z M48,50h1v1h-1z M50,50h1v1h-1z M51,50h1v1h-1z M53,50h1v1h-1z M54,50h1v1h-1z M55,50h1v1h-1z M57,50h1v1h-1z M62,50h1v1h-1z M63,50h1v1h-1z M65,50h1v1h-1z M67,50h1v1h-1z M72,50h1v1h-1z M74,50h1v1h-1z M77,50h1v1h-1z M80,50h1v1h-1z M81,50h1v1h-1z M83,50h1v1h-1z M84,50h1v1h-1z M86,50h1v1h-1z M88,50h1v1h-1z M89,50h1v1h-1z M92,50h1v1h-1z M95,50h1v1h-1z M96,50h1v1h-1z M98,50h1v1h-1z M100,50h1v1h-1z M101,50h1v1h-1z M103,50h1v1h-1z M104,50h1v1h-1z M106,50h1v1h-1z M107,50h1v1h-1z M5,51h1v1h-1z M6,51h1v1h-1z M8,51h1v1h-1z M12,51h1v1h-1z M13,51h1v1h-1z M16,51h1v1h-1z M23,51h1v1h-1z M24,51h1v1h-1z M25,51h1v1h-1z M27,51h1v1h-1z M28,51h1v1h-1z M35,51h1v1h-1z M41,51h1v1h-1z M44,51h1v1h-1z M49,51h1v1h-1z M50,51h1v1h-1z M53,51h1v1h-1z M56,51h1v1h-1z M57,51h1v1h-1z M58,51h1v1h-1z M59,51h1v1h-1z M62,51h1v1h-1z M65,51h1v1h-1z M66,51h1v1h-1z M67,51h1v1h-1z M68,51h1v1h-1z M69,51h1v1h-1z M71,51h1v1h-1z M74,51h1v1h-1z M77,51h1v1h-1z M79,51h1v1h-1z M82,51h1v1h-1z M83,51h1v1h-1z M85,51h1v1h-1z M86,51h1v1h-1z M87,51h1v1h-1z M90,51h1v1h-1z M92,51h1v1h-1z M93,51h1v1h-1z M94,51h1v1h-1z M98,51h1v1h-1z M99,51h1v1h-1z M101,51h1v1h-1z M102,51h1v1h-1z M104,51h1v1h-1z M108,51h1v1h-1z M6,52h1v1h-1z M7,52h1v1h-1z M8,52h1v1h-1z M9,52h1v1h-1z M10,52h1v1h-1z M11,52h1v1h-1z M12,52h1v1h-1z M15,52h1v1h-1z M17,52h1v1h-1z M18,52h1v1h-1z M21,52h1v1h-1z M23,52h1v1h-1z M24,52h1v1h-1z M26,52h1v1h-1z M28,52h1v1h-1z M29,52h1v1h-1z M30,52h1v1h-1z M31,52h1v1h-1z M32,52h1v1h-1z M34,52h1v1h-1z M35,52h1v1h-1z M40,52h1v1h-1z M43,52h1v1h-1z M44,52h1v1h-1z M48,52h1v1h-1z M52,52h1v1h-1z M53,52h1v1h-1z M54,52h1v1h-1z M55,52h1v1h-1z M56,52h1v1h-1z M57,52h1v1h-1z M61,52h1v1h-1z M64,52h1v1h-1z M66,52h1v1h-1z M67,52h1v1h-1z M68,52h1v1h-1z M69,52h1v1h-1z M70,52h1v1h-1z M71,52h1v1h-1z M72,52h1v1h-1z M73,52h1v1h-1z M76,52h1v1h-1z M77,52h1v1h-1z M78,52h1v1h-1z M79,52h1v1h-1z M80,52h1v1h-1z M81,52h1v1h-1z M82,52h1v1h-1z M83,52h1v1h-1z M84,52h1v1h-1z M88,52h1v1h-1z M89,52h1v1h-1z M91,52h1v1h-1z M92,52h1v1h-1z M93,52h1v1h-1z M94,52h1v1h-1z M96,52h1v1h-1z M98,52h1v1h-1z M100,52h1v1h-1z M101,52h1v1h-1z M102,52h1v1h-1z M103,52h1v1h-1z M104,52h1v1h-1z M106,52h1v1h-1z M107,52h1v1h-1z M108,52h1v1h-1z M4,53h1v1h-1z M5,53h1v1h-1z M7,53h1v1h-1z M8,53h1v1h-1z M12,53h1v1h-1z M13,53h1v1h-1z M15,53h1v1h-1z M19,53h1v1h-1z M20,53h1v1h-1z M21,53h1v1h-1z M22,53h1v1h-1z M24,53h1v1h-1z M27,53h1v1h-1z M28,53h1v1h-1z M32,53h1v1h-1z M33,53h1v1h-1z M35,53h1v1h-1z M37,53h1v1h-1z M40,53h1v1h-1z M42,53h1v1h-1z M47,53h1v1h-1z M48,53h1v1h-1z M52,53h1v1h-1z M56,53h1v1h-1z M57,53h1v1h-1z M58,53h1v1h-1z M59,53h1v1h-1z M60,53h1v1h-1z M61,53h1v1h-1z M62,53h1v1h-1z M66,53h1v1h-1z M69,53h1v1h-1z M70,53h1v1h-1z M71,53h1v1h-1z M74,53h1v1h-1z M76,53h1v1h-1z M80,53h1v1h-1z M81,53h1v1h-1z M82,53h1v1h-1z M84,53h1v1h-1z M85,53h1v1h-1z M88,53h1v1h-1z M93,53h1v1h-1z M97,53h1v1h-1z M98,53h1v1h-1z M100,53h1v1h-1z M104,53h1v1h-1z M4,54h1v1h-1z M8,54h1v1h-1z M10,54h1v1h-1z M12,54h1v1h-1z M16,54h1v1h-1z M17,54h1v1h-1z M18,54h1v1h-1z M19,54h1v1h-1z M21,54h1v1h-1z M23,54h1v1h-1z M25,54h1v1h-1z M26,54h1v1h-1z M27,54h1v1h-1z M28,54h1v1h-1z M30,54h1v1h-1z M32,54h1v1h-1z M33,54h1v1h-1z M35,54h1v1h-1z M36,54h1v1h-1z M38,54h1v1h-1z M39,54h1v1h-1z M47,54h1v1h-1z M49,54h1v1h-1z M50,54h1v1h-1z M52,54h1v1h-1z M54,54h1v1h-1z M56,54h1v1h-1z M59,54h1v1h-1z M61,54h1v1h-1z M62,54h1v1h-1z M65,54h1v1h-1z M67,54h1v1h-1z M68,54h1v1h-1z M71,54h1v1h-1z M72,54h1v1h-1z M74,54h1v1h-1z M76,54h1v1h-1z M78,54h1v1h-1z M80,54h1v1h-1z M84,54h1v1h-1z M85,54h1v1h-1z M86,54h1v1h-1z M88,54h1v1h-1z M89,54h1v1h-1z M91,54h1v1h-1z M92,54h1v1h-1z M93,54h1v1h-1z M97,54h1v1h-1z M98,54h1v1h-1z M99,54h1v1h-1z M100,54h1v1h-1z M102,54h1v1h-1z M104,54h1v1h-1z M4,55h1v1h-1z M8,55h1v1h-1z M12,55h1v1h-1z M15,55h1v1h-1z M17,55h1v1h-1z M18,55h1v1h-1z M19,55h1v1h-1z M21,55h1v1h-1z M23,55h1v1h-1z M25,55h1v1h-1z M27,55h1v1h-1z M28,55h1v1h-1z M32,55h1v1h-1z M34,55h1v1h-1z M37,55h1v1h-1z M38,55h1v1h-1z M41,55h1v1h-1z M42,55h1v1h-1z M44,55h1v1h-1z M45,55h1v1h-1z M47,55h1v1h-1z M51,55h1v1h-1z M52,55h1v1h-1z M56,55h1v1h-1z M57,55h1v1h-1z M59,55h1v1h-1z M68,55h1v1h-1z M73,55h1v1h-1z M76,55h1v1h-1z M80,55h1v1h-1z M83,55h1v1h-1z M89,55h1v1h-1z M92,55h1v1h-1z M94,55h1v1h-1z M95,55h1v1h-1z M99,55h1v1h-1z M100,55h1v1h-1z M104,55h1v1h-1z M108,55h1v1h-1z M7,56h1v1h-1z M8,56h1v1h-1z M9,56h1v1h-1z M10,56h1v1h-1z M11,56h1v1h-1z M12,56h1v1h-1z M16,56h1v1h-1z M23,56h1v1h-1z M24,56h1v1h-1z M25,56h1v1h-1z M26,56h1v1h-1z M28,56h1v1h-1z M29,56h1v1h-1z M30,56h1v1h-1z M31,56h1v1h-1z M32,56h1v1h-1z M33,56h1v1h-1z M35,56h1v1h-1z M36,56h1v1h-1z M38,56h1v1h-1z M40,56h1v1h-1z M41,56h1v1h-1z M42,56h1v1h-1z M43,56h1v1h-1z M46,56h1v1h-1z M48,56h1v1h-1z M52,56h1v1h-1z M53,56h1v1h-1z M54,56h1v1h-1z M55,56h1v1h-1z M56,56h1v1h-1z M57,56h1v1h-1z M59,56h1v1h-1z M60,56h1v1h-1z M66,56h1v1h-1z M70,56h1v1h-1z M72,56h1v1h-1z M73,56h1v1h-1z M75,56h1v1h-1z M76,56h1v1h-1z M77,56h1v1h-1z M78,56h1v1h-1z M79,56h1v1h-1z M80,56h1v1h-1z M81,56h1v1h-1z M82,56h1v1h-1z M84,56h1v1h-1z M85,56h1v1h-1z M87,56h1v1h-1z M90,56h1v1h-1z M91,56h1v1h-1z M96,56h1v1h-1z M98,56h1v1h-1z M100,56h1v1h-1z M101,56h1v1h-1z M102,56h1v1h-1z M103,56h1v1h-1z M104,56h1v1h-1z M108,56h1v1h-1z M5,57h1v1h-1z M6,57h1v1h-1z M7,57h1v1h-1z M11,57h1v1h-1z M13,57h1v1h-1z M17,57h1v1h-1z M19,57h1v1h-1z M20,57h1v1h-1z M26,57h1v1h-1z M28,57h1v1h-1z M31,57h1v1h-1z M33,57h1v1h-1z M35,57h1v1h-1z M37,57h1v1h-1z M38,57h1v1h-1z M40,57h1v1h-1z M41,57h1v1h-1z M46,57h1v1h-1z M50,57h1v1h-1z M53,57h1v1h-1z M55,57h1v1h-1z M58,57h1v1h-1z M59,57h1v1h-1z M61,57h1v1h-1z M62,57h1v1h-1z M63,57h1v1h-1z M64,57h1v1h-1z M65,57h1v1h-1z M66,57h1v1h-1z M68,57h1v1h-1z M69,57h1v1h-1z M71,57h1v1h-1z M73,57h1v1h-1z M76,57h1v1h-1z M77,57h1v1h-1z M79,57h1v1h-1z M82,57h1v1h-1z M83,57h1v1h-1z M86,57h1v1h-1z M87,57h1v1h-1z M92,57h1v1h-1z M95,57h1v1h-1z M96,57h1v1h-1z M98,57h1v1h-1z M99,57h1v1h-1z M100,57h1v1h-1z M102,57h1v1h-1z M104,57h1v1h-1z M107,57h1v1h-1z M108,57h1v1h-1z M9,58h1v1h-1z M10,58h1v1h-1z M13,58h1v1h-1z M14,58h1v1h-1z M17,58h1v1h-1z M20,58h1v1h-1z M22,58h1v1h-1z M23,58h1v1h-1z M24,58h1v1h-1z M25,58h1v1h-1z M29,58h1v1h-1z M31,58h1v1h-1z M32,58h1v1h-1z M36,58h1v1h-1z M38,58h1v1h-1z M41,58h1v1h-1z M43,58h1v1h-1z M44,58h1v1h-1z M47,58h1v1h-1z M48,58h1v1h-1z M50,58h1v1h-1z M53,58h1v1h-1z M56,58h1v1h-1z M62,58h1v1h-1z M64,58h1v1h-1z M65,58h1v1h-1z M72,58h1v1h-1z M74,58h1v1h-1z M79,58h1v1h-1z M83,58h1v1h-1z M84,58h1v1h-1z M86,58h1v1h-1z M88,58h1v1h-1z M89,58h1v1h-1z M92,58h1v1h-1z M95,58h1v1h-1z M98,58h1v1h-1z M99,58h1v1h-1z M100,58h1v1h-1z M102,58h1v1h-1z M104,58h1v1h-1z M105,58h1v1h-1z M107,58h1v1h-1z M4,59h1v1h-1z M5,59h1v1h-1z M6,59h1v1h-1z M11,59h1v1h-1z M12,59h1v1h-1z M16,59h1v1h-1z M18,59h1v1h-1z M20,59h1v1h-1z M22,59h1v1h-1z M27,59h1v1h-1z M29,59h1v1h-1z M31,59h1v1h-1z M33,59h1v1h-1z M35,59h1v1h-1z M37,59h1v1h-1z M38,59h1v1h-1z M41,59h1v1h-1z M42,59h1v1h-1z M44,59h1v1h-1z M45,59h1v1h-1z M46,59h1v1h-1z M54,59h1v1h-1z M56,59h1v1h-1z M57,59h1v1h-1z M58,59h1v1h-1z M59,59h1v1h-1z M65,59h1v1h-1z M67,59h1v1h-1z M68,59h1v1h-1z M69,59h1v1h-1z M70,59h1v1h-1z M71,59h1v1h-1z M73,59h1v1h-1z M75,59h1v1h-1z M76,59h1v1h-1z M77,59h1v1h-1z M80,59h1v1h-1z M82,59h1v1h-1z M83,59h1v1h-1z M86,59h1v1h-1z M87,59h1v1h-1z M90,59h1v1h-1z M92,59h1v1h-1z M93,59h1v1h-1z M94,59h1v1h-1z M95,59h1v1h-1z M98,59h1v1h-1z M99,59h1v1h-1z M100,59h1v1h-1z M101,59h1v1h-1z M102,59h1v1h-1z M108,59h1v1h-1z M4,60h1v1h-1z M6,60h1v1h-1z M10,60h1v1h-1z M11,60h1v1h-1z M12,60h1v1h-1z M14,60h1v1h-1z M18,60h1v1h-1z M19,60h1v1h-1z M20,60h1v1h-1z M22,60h1v1h-1z M23,60h1v1h-1z M24,60h1v1h-1z M26,60h1v1h-1z M27,60h1v1h-1z M28,60h1v1h-1z M30,60h1v1h-1z M31,60h1v1h-1z M33,60h1v1h-1z M34,60h1v1h-1z M35,60h1v1h-1z M36,60h1v1h-1z M39,60h1v1h-1z M41,60h1v1h-1z M43,60h1v1h-1z M46,60h1v1h-1z M48,60h1v1h-1z M54,60h1v1h-1z M55,60h1v1h-1z M56,60h1v1h-1z M62,60h1v1h-1z M63,60h1v1h-1z M65,60h1v1h-1z M68,60h1v1h-1z M69,60h1v1h-1z M70,60h1v1h-1z M73,60h1v1h-1z M75,60h1v1h-1z M78,60h1v1h-1z M83,60h1v1h-1z M85,60h1v1h-1z M86,60h1v1h-1z M90,60h1v1h-1z M91,60h1v1h-1z M92,60h1v1h-1z M98,60h1v1h-1z M99,60h1v1h-1z M103,60h1v1h-1z M106,60h1v1h-1z M6,61h1v1h-1z M13,61h1v1h-1z M15,61h1v1h-1z M19,61h1v1h-1z M20,61h1v1h-1z M21,61h1v1h-1z M23,61h1v1h-1z M25,61h1v1h-1z M26,61h1v1h-1z M28,61h1v1h-1z M30,61h1v1h-1z M31,61h1v1h-1z M34,61h1v1h-1z M36,61h1v1h-1z M37,61h1v1h-1z M39,61h1v1h-1z M41,61h1v1h-1z M44,61h1v1h-1z M48,61h1v1h-1z M49,61h1v1h-1z M53,61h1v1h-1z M55,61h1v1h-1z M57,61h1v1h-1z M58,61h1v1h-1z M60,61h1v1h-1z M61,61h1v1h-1z M64,61h1v1h-1z M65,61h1v1h-1z M66,61h1v1h-1z M67,61h1v1h-1z M68,61h1v1h-1z M69,61h1v1h-1z M71,61h1v1h-1z M72,61h1v1h-1z M74,61h1v1h-1z M77,61h1v1h-1z M78,61h1v1h-1z M79,61h1v1h-1z M82,61h1v1h-1z M89,61h1v1h-1z M90,61h1v1h-1z M95,61h1v1h-1z M97,61h1v1h-1z M98,61h1v1h-1z M100,61h1v1h-1z M102,61h1v1h-1z M103,61h1v1h-1z M106,61h1v1h-1z M107,61h1v1h-1z M6,62h1v1h-1z M7,62h1v1h-1z M8,62h1v1h-1z M10,62h1v1h-1z M11,62h1v1h-1z M12,62h1v1h-1z M13,62h1v1h-1z M18,62h1v1h-1z M19,62h1v1h-1z M20,62h1v1h-1z M21,62h1v1h-1z M23,62h1v1h-1z M24,62h1v1h-1z M25,62h1v1h-1z M26,62h1v1h-1z M35,62h1v1h-1z M36,62h1v1h-1z M38,62h1v1h-1z M40,62h1v1h-1z M41,62h1v1h-1z M43,62h1v1h-1z M45,62h1v1h-1z M47,62h1v1h-1z M49,62h1v1h-1z M50,62h1v1h-1z M51,62h1v1h-1z M56,62h1v1h-1z M62,62h1v1h-1z M71,62h1v1h-1z M72,62h1v1h-1z M74,62h1v1h-1z M75,62h1v1h-1z M78,62h1v1h-1z M80,62h1v1h-1z M83,62h1v1h-1z M84,62h1v1h-1z M86,62h1v1h-1z M87,62h1v1h-1z M91,62h1v1h-1z M95,62h1v1h-1z M96,62h1v1h-1z M98,62h1v1h-1z M99,62h1v1h-1z M100,62h1v1h-1z M101,62h1v1h-1z M103,62h1v1h-1z M104,62h1v1h-1z M106,62h1v1h-1z M107,62h1v1h-1z M7,63h1v1h-1z M8,63h1v1h-1z M13,63h1v1h-1z M15,63h1v1h-1z M16,63h1v1h-1z M19,63h1v1h-1z M21,63h1v1h-1z M28,63h1v1h-1z M30,63h1v1h-1z M31,63h1v1h-1z M32,63h1v1h-1z M34,63h1v1h-1z M37,63h1v1h-1z M39,63h1v1h-1z M42,63h1v1h-1z M44,63h1v1h-1z M46,63h1v1h-1z M47,63h1v1h-1z M49,63h1v1h-1z M52,63h1v1h-1z M54,63h1v1h-1z M55,63h1v1h-1z M57,63h1v1h-1z M59,63h1v1h-1z M62,63h1v1h-1z M65,63h1v1h-1z M66,63h1v1h-1z M67,63h1v1h-1z M68,63h1v1h-1z M69,63h1v1h-1z M70,63h1v1h-1z M71,63h1v1h-1z M73,63h1v1h-1z M74,63h1v1h-1z M75,63h1v1h-1z M77,63h1v1h-1z M79,63h1v1h-1z M80,63h1v1h-1z M81,63h1v1h-1z M82,63h1v1h-1z M86,63h1v1h-1z M89,63h1v1h-1z M90,63h1v1h-1z M92,63h1v1h-1z M93,63h1v1h-1z M94,63h1v1h-1z M95,63h1v1h-1z M97,63h1v1h-1z M102,63h1v1h-1z M103,63h1v1h-1z M4,64h1v1h-1z M7,64h1v1h-1z M9,64h1v1h-1z M10,64h1v1h-1z M11,64h1v1h-1z M12,64h1v1h-1z M15,64h1v1h-1z M16,64h1v1h-1z M17,64h1v1h-1z M18,64h1v1h-1z M19,64h1v1h-1z M22,64h1v1h-1z M24,64h1v1h-1z M26,64h1v1h-1z M30,64h1v1h-1z M35,64h1v1h-1z M36,64h1v1h-1z M37,64h1v1h-1z M39,64h1v1h-1z M40,64h1v1h-1z M45,64h1v1h-1z M46,64h1v1h-1z M48,64h1v1h-1z M50,64h1v1h-1z M52,64h1v1h-1z M53,64h1v1h-1z M54,64h1v1h-1z M55,64h1v1h-1z M56,64h1v1h-1z M58,64h1v1h-1z M59,64h1v1h-1z M63,64h1v1h-1z M64,64h1v1h-1z M66,64h1v1h-1z M68,64h1v1h-1z M70,64h1v1h-1z M72,64h1v1h-1z M78,64h1v1h-1z M80,64h1v1h-1z M84,64h1v1h-1z M85,64h1v1h-1z M90,64h1v1h-1z M92,64h1v1h-1z M93,64h1v1h-1z M95,64h1v1h-1z M97,64h1v1h-1z M98,64h1v1h-1z M100,64h1v1h-1z M101,64h1v1h-1z M102,64h1v1h-1z M103,64h1v1h-1z M105,64h1v1h-1z M108,64h1v1h-1z M4,65h1v1h-1z M5,65h1v1h-1z M6,65h1v1h-1z M9,65h1v1h-1z M15,65h1v1h-1z M17,65h1v1h-1z M20,65h1v1h-1z M21,65h1v1h-1z M23,65h1v1h-1z M24,65h1v1h-1z M25,65h1v1h-1z M28,65h1v1h-1z M29,65h1v1h-1z M30,65h1v1h-1z M31,65h1v1h-1z M34,65h1v1h-1z M36,65h1v1h-1z M39,65h1v1h-1z M40,65h1v1h-1z M42,65h1v1h-1z M43,65h1v1h-1z M47,65h1v1h-1z M49,65h1v1h-1z M50,65h1v1h-1z M57,65h1v1h-1z M58,65h1v1h-1z M59,65h1v1h-1z M60,65h1v1h-1z M62,65h1v1h-1z M63,65h1v1h-1z M64,65h1v1h-1z M65,65h1v1h-1z M68,65h1v1h-1z M69,65h1v1h-1z M71,65h1v1h-1z M72,65h1v1h-1z M74,65h1v1h-1z M75,65h1v1h-1z M78,65h1v1h-1z M81,65h1v1h-1z M83,65h1v1h-1z M85,65h1v1h-1z M86,65h1v1h-1z M90,65h1v1h-1z M93,65h1v1h-1z M95,65h1v1h-1z M96,65h1v1h-1z M97,65h1v1h-1z M98,65h1v1h-1z M99,65h1v1h-1z M100,65h1v1h-1z M102,65h1v1h-1z M104,65h1v1h-1z M105,65h1v1h-1z M106,65h1v1h-1z M108,65h1v1h-1z M4,66h1v1h-1z M5,66h1v1h-1z M7,66h1v1h-1z M10,66h1v1h-1z M15,66h1v1h-1z M17,66h1v1h-1z M20,66h1v1h-1z M21,66h1v1h-1z M29,66h1v1h-1z M30,66h1v1h-1z M32,66h1v1h-1z M33,66h1v1h-1z M35,66h1v1h-1z M38,66h1v1h-1z M40,66h1v1h-1z M41,66h1v1h-1z M44,66h1v1h-1z M45,66h1v1h-1z M50,66h1v1h-1z M60,66h1v1h-1z M62,66h1v1h-1z M63,66h1v1h-1z M68,66h1v1h-1z M71,66h1v1h-1z M72,66h1v1h-1z M74,66h1v1h-1z M78,66h1v1h-1z M79,66h1v1h-1z M83,66h1v1h-1z M84,66h1v1h-1z M86,66h1v1h-1z M87,66h1v1h-1z M88,66h1v1h-1z M91,66h1v1h-1z M95,66h1v1h-1z M96,66h1v1h-1z M98,66h1v1h-1z M101,66h1v1h-1z M102,66h1v1h-1z M104,66h1v1h-1z M106,66h1v1h-1z M107,66h1v1h-1z M4,67h1v1h-1z M5,67h1v1h-1z M6,67h1v1h-1z M12,67h1v1h-1z M15,67h1v1h-1z M17,67h1v1h-1z M18,67h1v1h-1z M22,67h1v1h-1z M24,67h1v1h-1z M27,67h1v1h-1z M29,67h1v1h-1z M34,67h1v1h-1z M35,67h1v1h-1z M41,67h1v1h-1z M44,67h1v1h-1z M46,67h1v1h-1z M47,67h1v1h-1z M49,67h1v1h-1z M51,67h1v1h-1z M57,67h1v1h-1z M59,67h1v1h-1z M61,67h1v1h-1z M62,67h1v1h-1z M65,67h1v1h-1z M66,67h1v1h-1z M68,67h1v1h-1z M71,67h1v1h-1z M73,67h1v1h-1z M74,67h1v1h-1z M75,67h1v1h-1z M76,67h1v1h-1z M77,67h1v1h-1z M78,67h1v1h-1z M79,67h1v1h-1z M80,67h1v1h-1z M85,67h1v1h-1z M86,67h1v1h-1z M89,67h1v1h-1z M90,67h1v1h-1z M92,67h1v1h-1z M93,67h1v1h-1z M95,67h1v1h-1z M97,67h1v1h-1z M98,67h1v1h-1z M99,67h1v1h-1z M102,67h1v1h-1z M104,67h1v1h-1z M107,67h1v1h-1z M108,67h1v1h-1z M7,68h1v1h-1z M8,68h1v1h-1z M9,68h1v1h-1z M10,68h1v1h-1z M12,68h1v1h-1z M14,68h1v1h-1z M17,68h1v1h-1z M20,68h1v1h-1z M22,68h1v1h-1z M25,68h1v1h-1z M26,68h1v1h-1z M28,68h1v1h-1z M30,68h1v1h-1z M32,68h1v1h-1z M34,68h1v1h-1z M35,68h1v1h-1z M36,68h1v1h-1z M37,68h1v1h-1z M38,68h1v1h-1z M39,68h1v1h-1z M41,68h1v1h-1z M44,68h1v1h-1z M45,68h1v1h-1z M50,68h1v1h-1z M51,68h1v1h-1z M54,68h1v1h-1z M58,68h1v1h-1z M64,68h1v1h-1z M65,68h1v1h-1z M66,68h1v1h-1z M68,68h1v1h-1z M74,68h1v1h-1z M75,68h1v1h-1z M76,68h1v1h-1z M78,68h1v1h-1z M79,68h1v1h-1z M80,68h1v1h-1z M81,68h1v1h-1z M82,68h1v1h-1z M83,68h1v1h-1z M86,68h1v1h-1z M90,68h1v1h-1z M92,68h1v1h-1z M93,68h1v1h-1z M94,68h1v1h-1z M95,68h1v1h-1z M96,68h1v1h-1z M97,68h1v1h-1z M99,68h1v1h-1z M100,68h1v1h-1z M103,68h1v1h-1z M106,68h1v1h-1z M107,68h1v1h-1z M4,69h1v1h-1z M5,69h1v1h-1z M7,69h1v1h-1z M8,69h1v1h-1z M9,69h1v1h-1z M12,69h1v1h-1z M15,69h1v1h-1z M17,69h1v1h-1z M21,69h1v1h-1z M25,69h1v1h-1z M27,69h1v1h-1z M28,69h1v1h-1z M29,69h1v1h-1z M31,69h1v1h-1z M35,69h1v1h-1z M37,69h1v1h-1z M40,69h1v1h-1z M44,69h1v1h-1z M46,69h1v1h-1z M47,69h1v1h-1z M50,69h1v1h-1z M51,69h1v1h-1z M52,69h1v1h-1z M53,69h1v1h-1z M54,69h1v1h-1z M55,69h1v1h-1z M57,69h1v1h-1z M58,69h1v1h-1z M60,69h1v1h-1z M65,69h1v1h-1z M67,69h1v1h-1z M68,69h1v1h-1z M69,69h1v1h-1z M70,69h1v1h-1z M72,69h1v1h-1z M73,69h1v1h-1z M76,69h1v1h-1z M77,69h1v1h-1z M79,69h1v1h-1z M82,69h1v1h-1z M83,69h1v1h-1z M84,69h1v1h-1z M89,69h1v1h-1z M90,69h1v1h-1z M91,69h1v1h-1z M93,69h1v1h-1z M95,69h1v1h-1z M97,69h1v1h-1z M99,69h1v1h-1z M100,69h1v1h-1z M102,69h1v1h-1z M106,69h1v1h-1z M107,69h1v1h-1z M5,70h1v1h-1z M6,70h1v1h-1z M9,70h1v1h-1z M10,70h1v1h-1z M11,70h1v1h-1z M12,70h1v1h-1z M13,70h1v1h-1z M14,70h1v1h-1z M15,70h1v1h-1z M19,70h1v1h-1z M22,70h1v1h-1z M25,70h1v1h-1z M26,70h1v1h-1z M29,70h1v1h-1z M31,70h1v1h-1z M32,70h1v1h-1z M35,70h1v1h-1z M38,70h1v1h-1z M41,70h1v1h-1z M44,70h1v1h-1z M45,70h1v1h-1z M48,70h1v1h-1z M49,70h1v1h-1z M50,70h1v1h-1z M54,70h1v1h-1z M56,70h1v1h-1z M60,70h1v1h-1z M62,70h1v1h-1z M63,70h1v1h-1z M65,70h1v1h-1z M72,70h1v1h-1z M74,70h1v1h-1z M79,70h1v1h-1z M80,70h1v1h-1z M83,70h1v1h-1z M86,70h1v1h-1z M87,70h1v1h-1z M89,70h1v1h-1z M91,70h1v1h-1z M93,70h1v1h-1z M96,70h1v1h-1z M98,70h1v1h-1z M100,70h1v1h-1z M102,70h1v1h-1z M104,70h1v1h-1z M105,70h1v1h-1z M107,70h1v1h-1z M108,70h1v1h-1z M4,71h1v1h-1z M6,71h1v1h-1z M7,71h1v1h-1z M8,71h1v1h-1z M12,71h1v1h-1z M13,71h1v1h-1z M14,71h1v1h-1z M17,71h1v1h-1z M20,71h1v1h-1z M25,71h1v1h-1z M26,71h1v1h-1z M28,71h1v1h-1z M29,71h1v1h-1z M32,71h1v1h-1z M33,71h1v1h-1z M35,71h1v1h-1z M38,71h1v1h-1z M44,71h1v1h-1z M46,71h1v1h-1z M47,71h1v1h-1z M52,71h1v1h-1z M55,71h1v1h-1z M57,71h1v1h-1z M59,71h1v1h-1z M61,71h1v1h-1z M68,71h1v1h-1z M71,71h1v1h-1z M75,71h1v1h-1z M78,71h1v1h-1z M79,71h1v1h-1z M81,71h1v1h-1z M82,71h1v1h-1z M83,71h1v1h-1z M86,71h1v1h-1z M90,71h1v1h-1z M92,71h1v1h-1z M94,71h1v1h-1z M95,71h1v1h-1z M97,71h1v1h-1z M101,71h1v1h-1z M102,71h1v1h-1z M103,71h1v1h-1z M107,71h1v1h-1z M108,71h1v1h-1z M5,72h1v1h-1z M7,72h1v1h-1z M8,72h1v1h-1z M10,72h1v1h-1z M11,72h1v1h-1z M13,72h1v1h-1z M14,72h1v1h-1z M16,72h1v1h-1z M17,72h1v1h-1z M18,72h1v1h-1z M19,72h1v1h-1z M21,72h1v1h-1z M22,72h1v1h-1z M23,72h1v1h-1z M24,72h1v1h-1z M25,72h1v1h-1z M30,72h1v1h-1z M33,72h1v1h-1z M34,72h1v1h-1z M35,72h1v1h-1z M36,72h1v1h-1z M37,72h1v1h-1z M39,72h1v1h-1z M40,72h1v1h-1z M41,72h1v1h-1z M43,72h1v1h-1z M44,72h1v1h-1z M49,72h1v1h-1z M50,72h1v1h-1z M51,72h1v1h-1z M52,72h1v1h-1z M54,72h1v1h-1z M55,72h1v1h-1z M56,72h1v1h-1z M59,72h1v1h-1z M62,72h1v1h-1z M65,72h1v1h-1z M66,72h1v1h-1z M67,72h1v1h-1z M70,72h1v1h-1z M78,72h1v1h-1z M80,72h1v1h-1z M82,72h1v1h-1z M84,72h1v1h-1z M86,72h1v1h-1z M92,72h1v1h-1z M93,72h1v1h-1z M94,72h1v1h-1z M98,72h1v1h-1z M99,72h1v1h-1z M102,72h1v1h-1z M103,72h1v1h-1z M106,72h1v1h-1z M107,72h1v1h-1z M108,72h1v1h-1z M7,73h1v1h-1z M8,73h1v1h-1z M9,73h1v1h-1z M11,73h1v1h-1z M12,73h1v1h-1z M13,73h1v1h-1z M14,73h1v1h-1z M17,73h1v1h-1z M18,73h1v1h-1z M24,73h1v1h-1z M26,73h1v1h-1z M27,73h1v1h-1z M30,73h1v1h-1z M31,73h1v1h-1z M33,73h1v1h-1z M35,73h1v1h-1z M37,73h1v1h-1z M38,73h1v1h-1z M39,73h1v1h-1z M40,73h1v1h-1z M42,73h1v1h-1z M43,73h1v1h-1z M46,73h1v1h-1z M48,73h1v1h-1z M55,73h1v1h-1z M57,73h1v1h-1z M59,73h1v1h-1z M60,73h1v1h-1z M61,73h1v1h-1z M62,73h1v1h-1z M63,73h1v1h-1z M65,73h1v1h-1z M68,73h1v1h-1z M74,73h1v1h-1z M75,73h1v1h-1z M77,73h1v1h-1z M78,73h1v1h-1z M82,73h1v1h-1z M84,73h1v1h-1z M91,73h1v1h-1z M93,73h1v1h-1z M99,73h1v1h-1z M100,73h1v1h-1z M102,73h1v1h-1z M103,73h1v1h-1z M106,73h1v1h-1z M5,74h1v1h-1z M6,74h1v1h-1z M8,74h1v1h-1z M10,74h1v1h-1z M11,74h1v1h-1z M13,74h1v1h-1z M16,74h1v1h-1z M17,74h1v1h-1z M19,74h1v1h-1z M21,74h1v1h-1z M23,74h1v1h-1z M29,74h1v1h-1z M32,74h1v1h-1z M33,74h1v1h-1z M38,74h1v1h-1z M39,74h1v1h-1z M41,74h1v1h-1z M43,74h1v1h-1z M47,74h1v1h-1z M50,74h1v1h-1z M53,74h1v1h-1z M56,74h1v1h-1z M60,74h1v1h-1z M62,74h1v1h-1z M64,74h1v1h-1z M65,74h1v1h-1z M67,74h1v1h-1z M69,74h1v1h-1z M71,74h1v1h-1z M72,74h1v1h-1z M74,74h1v1h-1z M77,74h1v1h-1z M78,74h1v1h-1z M79,74h1v1h-1z M84,74h1v1h-1z M86,74h1v1h-1z M87,74h1v1h-1z M89,74h1v1h-1z M92,74h1v1h-1z M98,74h1v1h-1z M100,74h1v1h-1z M101,74h1v1h-1z M103,74h1v1h-1z M104,74h1v1h-1z M105,74h1v1h-1z M6,75h1v1h-1z M7,75h1v1h-1z M9,75h1v1h-1z M11,75h1v1h-1z M20,75h1v1h-1z M21,75h1v1h-1z M24,75h1v1h-1z M27,75h1v1h-1z M29,75h1v1h-1z M30,75h1v1h-1z M32,75h1v1h-1z M34,75h1v1h-1z M35,75h1v1h-1z M41,75h1v1h-1z M44,75h1v1h-1z M45,75h1v1h-1z M46,75h1v1h-1z M47,75h1v1h-1z M49,75h1v1h-1z M50,75h1v1h-1z M51,75h1v1h-1z M52,75h1v1h-1z M55,75h1v1h-1z M57,75h1v1h-1z M59,75h1v1h-1z M65,75h1v1h-1z M68,75h1v1h-1z M70,75h1v1h-1z M71,75h1v1h-1z M73,75h1v1h-1z M74,75h1v1h-1z M78,75h1v1h-1z M80,75h1v1h-1z M81,75h1v1h-1z M83,75h1v1h-1z M86,75h1v1h-1z M92,75h1v1h-1z M93,75h1v1h-1z M95,75h1v1h-1z M98,75h1v1h-1z M100,75h1v1h-1z M4,76h1v1h-1z M6,76h1v1h-1z M8,76h1v1h-1z M9,76h1v1h-1z M10,76h1v1h-1z M11,76h1v1h-1z M12,76h1v1h-1z M14,76h1v1h-1z M15,76h1v1h-1z M16,76h1v1h-1z M19,76h1v1h-1z M20,76h1v1h-1z M23,76h1v1h-1z M27,76h1v1h-1z M28,76h1v1h-1z M29,76h1v1h-1z M30,76h1v1h-1z M31,76h1v1h-1z M32,76h1v1h-1z M33,76h1v1h-1z M34,76h1v1h-1z M36,76h1v1h-1z M38,76h1v1h-1z M39,76h1v1h-1z M40,76h1v1h-1z M41,76h1v1h-1z M43,76h1v1h-1z M46,76h1v1h-1z M47,76h1v1h-1z M49,76h1v1h-1z M52,76h1v1h-1z M53,76h1v1h-1z M54,76h1v1h-1z M55,76h1v1h-1z M56,76h1v1h-1z M58,76h1v1h-1z M59,76h1v1h-1z M62,76h1v1h-1z M63,76h1v1h-1z M64,76h1v1h-1z M66,76h1v1h-1z M67,76h1v1h-1z M68,76h1v1h-1z M69,76h1v1h-1z M73,76h1v1h-1z M74,76h1v1h-1z M76,76h1v1h-1z M77,76h1v1h-1z M78,76h1v1h-1z M79,76h1v1h-1z M80,76h1v1h-1z M81,76h1v1h-1z M82,76h1v1h-1z M86,76h1v1h-1z M89,76h1v1h-1z M92,76h1v1h-1z M94,76h1v1h-1z M96,76h1v1h-1z M97,76h1v1h-1z M99,76h1v1h-1z M100,76h1v1h-1z M101,76h1v1h-1z M102,76h1v1h-1z M103,76h1v1h-1z M104,76h1v1h-1z M107,76h1v1h-1z M108,76h1v1h-1z M4,77h1v1h-1z M6,77h1v1h-1z M8,77h1v1h-1z M12,77h1v1h-1z M13,77h1v1h-1z M14,77h1v1h-1z M15,77h1v1h-1z M16,77h1v1h-1z M20,77h1v1h-1z M23,77h1v1h-1z M24,77h1v1h-1z M26,77h1v1h-1z M28,77h1v1h-1z M32,77h1v1h-1z M33,77h1v1h-1z M34,77h1v1h-1z M35,77h1v1h-1z M42,77h1v1h-1z M44,77h1v1h-1z M45,77h1v1h-1z M48,77h1v1h-1z M49,77h1v1h-1z M50,77h1v1h-1z M52,77h1v1h-1z M56,77h1v1h-1z M57,77h1v1h-1z M58,77h1v1h-1z M59,77h1v1h-1z M63,77h1v1h-1z M64,77h1v1h-1z M65,77h1v1h-1z M66,77h1v1h-1z M67,77h1v1h-1z M69,77h1v1h-1z M73,77h1v1h-1z M75,77h1v1h-1z M76,77h1v1h-1z M80,77h1v1h-1z M81,77h1v1h-1z M82,77h1v1h-1z M83,77h1v1h-1z M86,77h1v1h-1z M89,77h1v1h-1z M90,77h1v1h-1z M92,77h1v1h-1z M93,77h1v1h-1z M96,77h1v1h-1z M98,77h1v1h-1z M99,77h1v1h-1z M100,77h1v1h-1z M104,77h1v1h-1z M6,78h1v1h-1z M8,78h1v1h-1z M10,78h1v1h-1z M12,78h1v1h-1z M14,78h1v1h-1z M19,78h1v1h-1z M20,78h1v1h-1z M23,78h1v1h-1z M25,78h1v1h-1z M28,78h1v1h-1z M30,78h1v1h-1z M32,78h1v1h-1z M36,78h1v1h-1z M37,78h1v1h-1z M38,78h1v1h-1z M40,78h1v1h-1z M41,78h1v1h-1z M43,78h1v1h-1z M44,78h1v1h-1z M48,78h1v1h-1z M50,78h1v1h-1z M51,78h1v1h-1z M52,78h1v1h-1z M54,78h1v1h-1z M56,78h1v1h-1z M59,78h1v1h-1z M62,78h1v1h-1z M64,78h1v1h-1z M65,78h1v1h-1z M67,78h1v1h-1z M71,78h1v1h-1z M72,78h1v1h-1z M74,78h1v1h-1z M76,78h1v1h-1z M78,78h1v1h-1z M80,78h1v1h-1z M86,78h1v1h-1z M95,78h1v1h-1z M98,78h1v1h-1z M99,78h1v1h-1z M100,78h1v1h-1z M102,78h1v1h-1z M104,78h1v1h-1z M107,78h1v1h-1z M4,79h1v1h-1z M5,79h1v1h-1z M6,79h1v1h-1z M8,79h1v1h-1z M12,79h1v1h-1z M15,79h1v1h-1z M16,79h1v1h-1z M17,79h1v1h-1z M18,79h1v1h-1z M19,79h1v1h-1z M20,79h1v1h-1z M22,79h1v1h-1z M25,79h1v1h-1z M26,79h1v1h-1z M27,79h1v1h-1z M28,79h1v1h-1z M32,79h1v1h-1z M34,79h1v1h-1z M35,79h1v1h-1z M39,79h1v1h-1z M44,79h1v1h-1z M47,79h1v1h-1z M52,79h1v1h-1z M56,79h1v1h-1z M57,79h1v1h-1z M59,79h1v1h-1z M62,79h1v1h-1z M66,79h1v1h-1z M68,79h1v1h-1z M71,79h1v1h-1z M73,79h1v1h-1z M74,79h1v1h-1z M75,79h1v1h-1z M76,79h1v1h-1z M80,79h1v1h-1z M83,79h1v1h-1z M85,79h1v1h-1z M90,79h1v1h-1z M91,79h1v1h-1z M92,79h1v1h-1z M93,79h1v1h-1z M94,79h1v1h-1z M95,79h1v1h-1z M99,79h1v1h-1z M100,79h1v1h-1z M104,79h1v1h-1z M107,79h1v1h-1z M108,79h1v1h-1z M5,80h1v1h-1z M8,80h1v1h-1z M9,80h1v1h-1z M10,80h1v1h-1z M11,80h1v1h-1z M12,80h1v1h-1z M13,80h1v1h-1z M17,80h1v1h-1z M19,80h1v1h-1z M22,80h1v1h-1z M25,80h1v1h-1z M27,80h1v1h-1z M28,80h1v1h-1z M29,80h1v1h-1z M30,80h1v1h-1z M31,80h1v1h-1z M32,80h1v1h-1z M34,80h1v1h-1z M37,80h1v1h-1z M38,80h1v1h-1z M41,80h1v1h-1z M43,80h1v1h-1z M45,80h1v1h-1z M46,80h1v1h-1z M47,80h1v1h-1z M48,80h1v1h-1z M49,80h1v1h-1z M51,80h1v1h-1z M52,80h1v1h-1z M53,80h1v1h-1z M54,80h1v1h-1z M55,80h1v1h-1z M56,80h1v1h-1z M58,80h1v1h-1z M59,80h1v1h-1z M60,80h1v1h-1z M62,80h1v1h-1z M63,80h1v1h-1z M66,80h1v1h-1z M68,80h1v1h-1z M71,80h1v1h-1z M74,80h1v1h-1z M75,80h1v1h-1z M76,80h1v1h-1z M77,80h1v1h-1z M78,80h1v1h-1z M79,80h1v1h-1z M80,80h1v1h-1z M81,80h1v1h-1z M82,80h1v1h-1z M83,80h1v1h-1z M84,80h1v1h-1z M85,80h1v1h-1z M86,80h1v1h-1z M87,80h1v1h-1z M90,80h1v1h-1z M91,80h1v1h-1z M92,80h1v1h-1z M94,80h1v1h-1z M95,80h1v1h-1z M96,80h1v1h-1z M97,80h1v1h-1z M98,80h1v1h-1z M100,80h1v1h-1z M101,80h1v1h-1z M102,80h1v1h-1z M103,80h1v1h-1z M104,80h1v1h-1z M105,80h1v1h-1z M5,81h1v1h-1z M7,81h1v1h-1z M11,81h1v1h-1z M12,81h1v1h-1z M15,81h1v1h-1z M16,81h1v1h-1z M20,81h1v1h-1z M21,81h1v1h-1z M23,81h1v1h-1z M25,81h1v1h-1z M26,81h1v1h-1z M28,81h1v1h-1z M30,81h1v1h-1z M31,81h1v1h-1z M32,81h1v1h-1z M33,81h1v1h-1z M35,81h1v1h-1z M36,81h1v1h-1z M37,81h1v1h-1z M38,81h1v1h-1z M39,81h1v1h-1z M40,81h1v1h-1z M41,81h1v1h-1z M43,81h1v1h-1z M44,81h1v1h-1z M45,81h1v1h-1z M50,81h1v1h-1z M53,81h1v1h-1z M54,81h1v1h-1z M55,81h1v1h-1z M57,81h1v1h-1z M59,81h1v1h-1z M61,81h1v1h-1z M63,81h1v1h-1z M67,81h1v1h-1z M68,81h1v1h-1z M69,81h1v1h-1z M70,81h1v1h-1z M72,81h1v1h-1z M73,81h1v1h-1z M74,81h1v1h-1z M78,81h1v1h-1z M80,81h1v1h-1z M86,81h1v1h-1z M87,81h1v1h-1z M88,81h1v1h-1z M91,81h1v1h-1z M96,81h1v1h-1z M97,81h1v1h-1z M100,81h1v1h-1z M102,81h1v1h-1z M103,81h1v1h-1z M5,82h1v1h-1z M7,82h1v1h-1z M8,82h1v1h-1z M9,82h1v1h-1z M10,82h1v1h-1z M15,82h1v1h-1z M16,82h1v1h-1z M17,82h1v1h-1z M18,82h1v1h-1z M19,82h1v1h-1z M20,82h1v1h-1z M21,82h1v1h-1z M22,82h1v1h-1z M24,82h1v1h-1z M26,82h1v1h-1z M28,82h1v1h-1z M30,82h1v1h-1z M31,82h1v1h-1z M32,82h1v1h-1z M33,82h1v1h-1z M35,82h1v1h-1z M36,82h1v1h-1z M38,82h1v1h-1z M41,82h1v1h-1z M47,82h1v1h-1z M48,82h1v1h-1z M50,82h1v1h-1z M51,82h1v1h-1z M53,82h1v1h-1z M54,82h1v1h-1z M56,82h1v1h-1z M59,82h1v1h-1z M62,82h1v1h-1z M63,82h1v1h-1z M64,82h1v1h-1z M65,82h1v1h-1z M71,82h1v1h-1z M74,82h1v1h-1z M75,82h1v1h-1z M78,82h1v1h-1z M79,82h1v1h-1z M80,82h1v1h-1z M83,82h1v1h-1z M84,82h1v1h-1z M86,82h1v1h-1z M88,82h1v1h-1z M89,82h1v1h-1z M95,82h1v1h-1z M98,82h1v1h-1z M99,82h1v1h-1z M100,82h1v1h-1z M101,82h1v1h-1z M103,82h1v1h-1z M105,82h1v1h-1z M107,82h1v1h-1z M8,83h1v1h-1z M9,83h1v1h-1z M11,83h1v1h-1z M13,83h1v1h-1z M16,83h1v1h-1z M20,83h1v1h-1z M21,83h1v1h-1z M24,83h1v1h-1z M25,83h1v1h-1z M26,83h1v1h-1z M27,83h1v1h-1z M28,83h1v1h-1z M30,83h1v1h-1z M31,83h1v1h-1z M32,83h1v1h-1z M34,83h1v1h-1z M35,83h1v1h-1z M37,83h1v1h-1z M38,83h1v1h-1z M41,83h1v1h-1z M42,83h1v1h-1z M44,83h1v1h-1z M45,83h1v1h-1z M46,83h1v1h-1z M49,83h1v1h-1z M50,83h1v1h-1z M51,83h1v1h-1z M53,83h1v1h-1z M55,83h1v1h-1z M56,83h1v1h-1z M59,83h1v1h-1z M65,83h1v1h-1z M66,83h1v1h-1z M67,83h1v1h-1z M68,83h1v1h-1z M71,83h1v1h-1z M73,83h1v1h-1z M74,83h1v1h-1z M79,83h1v1h-1z M80,83h1v1h-1z M81,83h1v1h-1z M85,83h1v1h-1z M87,83h1v1h-1z M90,83h1v1h-1z M92,83h1v1h-1z M93,83h1v1h-1z M95,83h1v1h-1z M97,83h1v1h-1z M100,83h1v1h-1z M104,83h1v1h-1z M105,83h1v1h-1z M107,83h1v1h-1z M108,83h1v1h-1z M4,84h1v1h-1z M8,84h1v1h-1z M9,84h1v1h-1z M10,84h1v1h-1z M11,84h1v1h-1z M13,84h1v1h-1z M15,84h1v1h-1z M17,84h1v1h-1z M18,84h1v1h-1z M19,84h1v1h-1z M20,84h1v1h-1z M21,84h1v1h-1z M23,84h1v1h-1z M27,84h1v1h-1z M28,84h1v1h-1z M30,84h1v1h-1z M31,84h1v1h-1z M33,84h1v1h-1z M34,84h1v1h-1z M36,84h1v1h-1z M39,84h1v1h-1z M41,84h1v1h-1z M42,84h1v1h-1z M45,84h1v1h-1z M46,84h1v1h-1z M50,84h1v1h-1z M53,84h1v1h-1z M55,84h1v1h-1z M63,84h1v1h-1z M64,84h1v1h-1z M65,84h1v1h-1z M67,84h1v1h-1z M68,84h1v1h-1z M69,84h1v1h-1z M70,84h1v1h-1z M71,84h1v1h-1z M72,84h1v1h-1z M73,84h1v1h-1z M81,84h1v1h-1z M82,84h1v1h-1z M84,84h1v1h-1z M85,84h1v1h-1z M87,84h1v1h-1z M88,84h1v1h-1z M89,84h1v1h-1z M91,84h1v1h-1z M92,84h1v1h-1z M94,84h1v1h-1z M95,84h1v1h-1z M96,84h1v1h-1z M100,84h1v1h-1z M104,84h1v1h-1z M108,84h1v1h-1z M4,85h1v1h-1z M5,85h1v1h-1z M6,85h1v1h-1z M9,85h1v1h-1z M14,85h1v1h-1z M15,85h1v1h-1z M16,85h1v1h-1z M17,85h1v1h-1z M19,85h1v1h-1z M22,85h1v1h-1z M24,85h1v1h-1z M25,85h1v1h-1z M28,85h1v1h-1z M29,85h1v1h-1z M30,85h1v1h-1z M34,85h1v1h-1z M35,85h1v1h-1z M36,85h1v1h-1z M37,85h1v1h-1z M38,85h1v1h-1z M40,85h1v1h-1z M41,85h1v1h-1z M42,85h1v1h-1z M43,85h1v1h-1z M45,85h1v1h-1z M46,85h1v1h-1z M50,85h1v1h-1z M52,85h1v1h-1z M53,85h1v1h-1z M54,85h1v1h-1z M55,85h1v1h-1z M57,85h1v1h-1z M59,85h1v1h-1z M60,85h1v1h-1z M62,85h1v1h-1z M65,85h1v1h-1z M66,85h1v1h-1z M67,85h1v1h-1z M72,85h1v1h-1z M77,85h1v1h-1z M78,85h1v1h-1z M81,85h1v1h-1z M82,85h1v1h-1z M84,85h1v1h-1z M85,85h1v1h-1z M89,85h1v1h-1z M91,85h1v1h-1z M93,85h1v1h-1z M95,85h1v1h-1z M98,85h1v1h-1z M100,85h1v1h-1z M102,85h1v1h-1z M103,85h1v1h-1z M105,85h1v1h-1z M106,85h1v1h-1z M4,86h1v1h-1z M6,86h1v1h-1z M7,86h1v1h-1z M8,86h1v1h-1z M9,86h1v1h-1z M10,86h1v1h-1z M11,86h1v1h-1z M12,86h1v1h-1z M13,86h1v1h-1z M18,86h1v1h-1z M20,86h1v1h-1z M21,86h1v1h-1z M22,86h1v1h-1z M23,86h1v1h-1z M27,86h1v1h-1z M28,86h1v1h-1z M30,86h1v1h-1z M32,86h1v1h-1z M35,86h1v1h-1z M37,86h1v1h-1z M38,86h1v1h-1z M43,86h1v1h-1z M44,86h1v1h-1z M47,86h1v1h-1z M48,86h1v1h-1z M50,86h1v1h-1z M51,86h1v1h-1z M53,86h1v1h-1z M54,86h1v1h-1z M56,86h1v1h-1z M57,86h1v1h-1z M59,86h1v1h-1z M60,86h1v1h-1z M62,86h1v1h-1z M64,86h1v1h-1z M65,86h1v1h-1z M69,86h1v1h-1z M71,86h1v1h-1z M72,86h1v1h-1z M74,86h1v1h-1z M77,86h1v1h-1z M78,86h1v1h-1z M80,86h1v1h-1z M83,86h1v1h-1z M84,86h1v1h-1z M86,86h1v1h-1z M88,86h1v1h-1z M89,86h1v1h-1z M96,86h1v1h-1z M98,86h1v1h-1z M99,86h1v1h-1z M100,86h1v1h-1z M101,86h1v1h-1z M103,86h1v1h-1z M104,86h1v1h-1z M105,86h1v1h-1z M5,87h1v1h-1z M12,87h1v1h-1z M15,87h1v1h-1z M17,87h1v1h-1z M18,87h1v1h-1z M20,87h1v1h-1z M24,87h1v1h-1z M26,87h1v1h-1z M27,87h1v1h-1z M28,87h1v1h-1z M30,87h1v1h-1z M32,87h1v1h-1z M34,87h1v1h-1z M35,87h1v1h-1z M41,87h1v1h-1z M42,87h1v1h-1z M44,87h1v1h-1z M47,87h1v1h-1z M52,87h1v1h-1z M53,87h1v1h-1z M58,87h1v1h-1z M61,87h1v1h-1z M66,87h1v1h-1z M67,87h1v1h-1z M68,87h1v1h-1z M70,87h1v1h-1z M74,87h1v1h-1z M75,87h1v1h-1z M77,87h1v1h-1z M80,87h1v1h-1z M85,87h1v1h-1z M86,87h1v1h-1z M87,87h1v1h-1z M89,87h1v1h-1z M91,87h1v1h-1z M92,87h1v1h-1z M94,87h1v1h-1z M95,87h1v1h-1z M97,87h1v1h-1z M98,87h1v1h-1z M100,87h1v1h-1z M101,87h1v1h-1z M102,87h1v1h-1z M104,87h1v1h-1z M107,87h1v1h-1z M4,88h1v1h-1z M5,88h1v1h-1z M7,88h1v1h-1z M8,88h1v1h-1z M9,88h1v1h-1z M10,88h1v1h-1z M12,88h1v1h-1z M14,88h1v1h-1z M18,88h1v1h-1z M21,88h1v1h-1z M27,88h1v1h-1z M28,88h1v1h-1z M29,88h1v1h-1z M32,88h1v1h-1z M34,88h1v1h-1z M36,88h1v1h-1z M37,88h1v1h-1z M38,88h1v1h-1z M40,88h1v1h-1z M41,88h1v1h-1z M43,88h1v1h-1z M46,88h1v1h-1z M50,88h1v1h-1z M51,88h1v1h-1z M53,88h1v1h-1z M54,88h1v1h-1z M57,88h1v1h-1z M59,88h1v1h-1z M60,88h1v1h-1z M61,88h1v1h-1z M65,88h1v1h-1z M66,88h1v1h-1z M72,88h1v1h-1z M73,88h1v1h-1z M77,88h1v1h-1z M78,88h1v1h-1z M80,88h1v1h-1z M82,88h1v1h-1z M83,88h1v1h-1z M85,88h1v1h-1z M89,88h1v1h-1z M90,88h1v1h-1z M93,88h1v1h-1z M94,88h1v1h-1z M96,88h1v1h-1z M97,88h1v1h-1z M100,88h1v1h-1z M102,88h1v1h-1z M103,88h1v1h-1z M106,88h1v1h-1z M108,88h1v1h-1z M6,89h1v1h-1z M7,89h1v1h-1z M8,89h1v1h-1z M9,89h1v1h-1z M12,89h1v1h-1z M13,89h1v1h-1z M17,89h1v1h-1z M20,89h1v1h-1z M21,89h1v1h-1z M24,89h1v1h-1z M30,89h1v1h-1z M31,89h1v1h-1z M34,89h1v1h-1z M35,89h1v1h-1z M36,89h1v1h-1z M38,89h1v1h-1z M39,89h1v1h-1z M40,89h1v1h-1z M41,89h1v1h-1z M42,89h1v1h-1z M43,89h1v1h-1z M52,89h1v1h-1z M54,89h1v1h-1z M55,89h1v1h-1z M56,89h1v1h-1z M57,89h1v1h-1z M59,89h1v1h-1z M60,89h1v1h-1z M63,89h1v1h-1z M64,89h1v1h-1z M66,89h1v1h-1z M67,89h1v1h-1z M72,89h1v1h-1z M73,89h1v1h-1z M74,89h1v1h-1z M76,89h1v1h-1z M78,89h1v1h-1z M84,89h1v1h-1z M86,89h1v1h-1z M90,89h1v1h-1z M91,89h1v1h-1z M95,89h1v1h-1z M97,89h1v1h-1z M99,89h1v1h-1z M100,89h1v1h-1z M101,89h1v1h-1z M103,89h1v1h-1z M106,89h1v1h-1z M4,90h1v1h-1z M5,90h1v1h-1z M9,90h1v1h-1z M10,90h1v1h-1z M11,90h1v1h-1z M12,90h1v1h-1z M13,90h1v1h-1z M14,90h1v1h-1z M15,90h1v1h-1z M16,90h1v1h-1z M23,90h1v1h-1z M24,90h1v1h-1z M25,90h1v1h-1z M26,90h1v1h-1z M28,90h1v1h-1z M30,90h1v1h-1z M32,90h1v1h-1z M38,90h1v1h-1z M40,90h1v1h-1z M41,90h1v1h-1z M48,90h1v1h-1z M50,90h1v1h-1z M52,90h1v1h-1z M53,90h1v1h-1z M55,90h1v1h-1z M56,90h1v1h-1z M60,90h1v1h-1z M62,90h1v1h-1z M64,90h1v1h-1z M65,90h1v1h-1z M72,90h1v1h-1z M74,90h1v1h-1z M75,90h1v1h-1z M76,90h1v1h-1z M80,90h1v1h-1z M83,90h1v1h-1z M84,90h1v1h-1z M86,90h1v1h-1z M87,90h1v1h-1z M88,90h1v1h-1z M89,90h1v1h-1z M91,90h1v1h-1z M92,90h1v1h-1z M95,90h1v1h-1z M96,90h1v1h-1z M98,90h1v1h-1z M100,90h1v1h-1z M101,90h1v1h-1z M103,90h1v1h-1z M6,91h1v1h-1z M9,91h1v1h-1z M16,91h1v1h-1z M17,91h1v1h-1z M18,91h1v1h-1z M21,91h1v1h-1z M23,91h1v1h-1z M25,91h1v1h-1z M28,91h1v1h-1z M29,91h1v1h-1z M31,91h1v1h-1z M32,91h1v1h-1z M33,91h1v1h-1z M35,91h1v1h-1z M38,91h1v1h-1z M42,91h1v1h-1z M43,91h1v1h-1z M44,91h1v1h-1z M46,91h1v1h-1z M47,91h1v1h-1z M49,91h1v1h-1z M50,91h1v1h-1z M51,91h1v1h-1z M54,91h1v1h-1z M55,91h1v1h-1z M56,91h1v1h-1z M57,91h1v1h-1z M58,91h1v1h-1z M59,91h1v1h-1z M61,91h1v1h-1z M66,91h1v1h-1z M67,91h1v1h-1z M68,91h1v1h-1z M70,91h1v1h-1z M71,91h1v1h-1z M73,91h1v1h-1z M74,91h1v1h-1z M75,91h1v1h-1z M79,91h1v1h-1z M81,91h1v1h-1z M82,91h1v1h-1z M83,91h1v1h-1z M85,91h1v1h-1z M90,91h1v1h-1z M92,91h1v1h-1z M93,91h1v1h-1z M94,91h1v1h-1z M95,91h1v1h-1z M98,91h1v1h-1z M100,91h1v1h-1z M101,91h1v1h-1z M102,91h1v1h-1z M103,91h1v1h-1z M4,92h1v1h-1z M6,92h1v1h-1z M7,92h1v1h-1z M10,92h1v1h-1z M11,92h1v1h-1z M12,92h1v1h-1z M14,92h1v1h-1z M18,92h1v1h-1z M20,92h1v1h-1z M21,92h1v1h-1z M22,92h1v1h-1z M23,92h1v1h-1z M24,92h1v1h-1z M25,92h1v1h-1z M27,92h1v1h-1z M28,92h1v1h-1z M29,92h1v1h-1z M33,92h1v1h-1z M34,92h1v1h-1z M36,92h1v1h-1z M40,92h1v1h-1z M42,92h1v1h-1z M43,92h1v1h-1z M45,92h1v1h-1z M48,92h1v1h-1z M49,92h1v1h-1z M51,92h1v1h-1z M53,92h1v1h-1z M54,92h1v1h-1z M55,92h1v1h-1z M57,92h1v1h-1z M63,92h1v1h-1z M64,92h1v1h-1z M66,92h1v1h-1z M68,92h1v1h-1z M69,92h1v1h-1z M70,92h1v1h-1z M71,92h1v1h-1z M74,92h1v1h-1z M75,92h1v1h-1z M79,92h1v1h-1z M82,92h1v1h-1z M84,92h1v1h-1z M86,92h1v1h-1z M87,92h1v1h-1z M88,92h1v1h-1z M91,92h1v1h-1z M92,92h1v1h-1z M93,92h1v1h-1z M95,92h1v1h-1z M98,92h1v1h-1z M100,92h1v1h-1z M102,92h1v1h-1z M103,92h1v1h-1z M104,92h1v1h-1z M105,92h1v1h-1z M106,92h1v1h-1z M107,92h1v1h-1z M108,92h1v1h-1z M4,93h1v1h-1z M5,93h1v1h-1z M9,93h1v1h-1z M11,93h1v1h-1z M12,93h1v1h-1z M13,93h1v1h-1z M19,93h1v1h-1z M20,93h1v1h-1z M21,93h1v1h-1z M22,93h1v1h-1z M24,93h1v1h-1z M25,93h1v1h-1z M30,93h1v1h-1z M31,93h1v1h-1z M32,93h1v1h-1z M33,93h1v1h-1z M34,93h1v1h-1z M35,93h1v1h-1z M36,93h1v1h-1z M38,93h1v1h-1z M39,93h1v1h-1z M43,93h1v1h-1z M45,93h1v1h-1z M47,93h1v1h-1z M48,93h1v1h-1z M52,93h1v1h-1z M54,93h1v1h-1z M55,93h1v1h-1z M58,93h1v1h-1z M59,93h1v1h-1z M61,93h1v1h-1z M65,93h1v1h-1z M66,93h1v1h-1z M68,93h1v1h-1z M69,93h1v1h-1z M71,93h1v1h-1z M73,93h1v1h-1z M74,93h1v1h-1z M78,93h1v1h-1z M80,93h1v1h-1z M89,93h1v1h-1z M91,93h1v1h-1z M92,93h1v1h-1z M93,93h1v1h-1z M94,93h1v1h-1z M95,93h1v1h-1z M96,93h1v1h-1z M98,93h1v1h-1z M99,93h1v1h-1z M100,93h1v1h-1z M105,93h1v1h-1z M107,93h1v1h-1z M108,93h1v1h-1z M4,94h1v1h-1z M6,94h1v1h-1z M7,94h1v1h-1z M9,94h1v1h-1z M10,94h1v1h-1z M14,94h1v1h-1z M15,94h1v1h-1z M21,94h1v1h-1z M22,94h1v1h-1z M24,94h1v1h-1z M26,94h1v1h-1z M27,94h1v1h-1z M28,94h1v1h-1z M32,94h1v1h-1z M35,94h1v1h-1z M38,94h1v1h-1z M39,94h1v1h-1z M43,94h1v1h-1z M49,94h1v1h-1z M50,94h1v1h-1z M51,94h1v1h-1z M53,94h1v1h-1z M54,94h1v1h-1z M56,94h1v1h-1z M60,94h1v1h-1z M61,94h1v1h-1z M62,94h1v1h-1z M65,94h1v1h-1z M67,94h1v1h-1z M68,94h1v1h-1z M71,94h1v1h-1z M74,94h1v1h-1z M75,94h1v1h-1z M76,94h1v1h-1z M77,94h1v1h-1z M78,94h1v1h-1z M80,94h1v1h-1z M84,94h1v1h-1z M86,94h1v1h-1z M87,94h1v1h-1z M89,94h1v1h-1z M91,94h1v1h-1z M96,94h1v1h-1z M98,94h1v1h-1z M99,94h1v1h-1z M101,94h1v1h-1z M107,94h1v1h-1z M4,95h1v1h-1z M7,95h1v1h-1z M8,95h1v1h-1z M11,95h1v1h-1z M14,95h1v1h-1z M15,95h1v1h-1z M17,95h1v1h-1z M18,95h1v1h-1z M20,95h1v1h-1z M22,95h1v1h-1z M26,95h1v1h-1z M29,95h1v1h-1z M31,95h1v1h-1z M32,95h1v1h-1z M33,95h1v1h-1z M35,95h1v1h-1z M37,95h1v1h-1z M41,95h1v1h-1z M42,95h1v1h-1z M44,95h1v1h-1z M46,95h1v1h-1z M47,95h1v1h-1z M49,95h1v1h-1z M51,95h1v1h-1z M52,95h1v1h-1z M54,95h1v1h-1z M56,95h1v1h-1z M57,95h1v1h-1z M59,95h1v1h-1z M66,95h1v1h-1z M68,95h1v1h-1z M69,95h1v1h-1z M71,95h1v1h-1z M73,95h1v1h-1z M74,95h1v1h-1z M75,95h1v1h-1z M78,95h1v1h-1z M80,95h1v1h-1z M83,95h1v1h-1z M85,95h1v1h-1z M86,95h1v1h-1z M90,95h1v1h-1z M92,95h1v1h-1z M94,95h1v1h-1z M95,95h1v1h-1z M97,95h1v1h-1z M98,95h1v1h-1z M100,95h1v1h-1z M101,95h1v1h-1z M102,95h1v1h-1z M107,95h1v1h-1z M4,96h1v1h-1z M5,96h1v1h-1z M7,96h1v1h-1z M9,96h1v1h-1z M10,96h1v1h-1z M14,96h1v1h-1z M17,96h1v1h-1z M20,96h1v1h-1z M23,96h1v1h-1z M31,96h1v1h-1z M33,96h1v1h-1z M34,96h1v1h-1z M35,96h1v1h-1z M37,96h1v1h-1z M39,96h1v1h-1z M46,96h1v1h-1z M48,96h1v1h-1z M50,96h1v1h-1z M53,96h1v1h-1z M55,96h1v1h-1z M57,96h1v1h-1z M59,96h1v1h-1z M60,96h1v1h-1z M62,96h1v1h-1z M63,96h1v1h-1z M65,96h1v1h-1z M66,96h1v1h-1z M67,96h1v1h-1z M68,96h1v1h-1z M69,96h1v1h-1z M72,96h1v1h-1z M74,96h1v1h-1z M77,96h1v1h-1z M79,96h1v1h-1z M81,96h1v1h-1z M85,96h1v1h-1z M90,96h1v1h-1z M91,96h1v1h-1z M92,96h1v1h-1z M93,96h1v1h-1z M94,96h1v1h-1z M95,96h1v1h-1z M96,96h1v1h-1z M97,96h1v1h-1z M98,96h1v1h-1z M100,96h1v1h-1z M103,96h1v1h-1z M104,96h1v1h-1z M106,96h1v1h-1z M107,96h1v1h-1z M108,96h1v1h-1z M4,97h1v1h-1z M5,97h1v1h-1z M6,97h1v1h-1z M7,97h1v1h-1z M8,97h1v1h-1z M9,97h1v1h-1z M11,97h1v1h-1z M13,97h1v1h-1z M14,97h1v1h-1z M15,97h1v1h-1z M16,97h1v1h-1z M19,97h1v1h-1z M22,97h1v1h-1z M23,97h1v1h-1z M24,97h1v1h-1z M25,97h1v1h-1z M26,97h1v1h-1z M28,97h1v1h-1z M30,97h1v1h-1z M31,97h1v1h-1z M34,97h1v1h-1z M35,97h1v1h-1z M36,97h1v1h-1z M37,97h1v1h-1z M38,97h1v1h-1z M40,97h1v1h-1z M45,97h1v1h-1z M46,97h1v1h-1z M47,97h1v1h-1z M49,97h1v1h-1z M50,97h1v1h-1z M54,97h1v1h-1z M55,97h1v1h-1z M56,97h1v1h-1z M57,97h1v1h-1z M58,97h1v1h-1z M64,97h1v1h-1z M65,97h1v1h-1z M66,97h1v1h-1z M69,97h1v1h-1z M71,97h1v1h-1z M72,97h1v1h-1z M73,97h1v1h-1z M76,97h1v1h-1z M78,97h1v1h-1z M79,97h1v1h-1z M80,97h1v1h-1z M82,97h1v1h-1z M88,97h1v1h-1z M89,97h1v1h-1z M90,97h1v1h-1z M97,97h1v1h-1z M98,97h1v1h-1z M99,97h1v1h-1z M101,97h1v1h-1z M102,97h1v1h-1z M105,97h1v1h-1z M106,97h1v1h-1z M107,97h1v1h-1z M4,98h1v1h-1z M5,98h1v1h-1z M6,98h1v1h-1z M10,98h1v1h-1z M11,98h1v1h-1z M14,98h1v1h-1z M16,98h1v1h-1z M17,98h1v1h-1z M18,98h1v1h-1z M19,98h1v1h-1z M20,98h1v1h-1z M21,98h1v1h-1z M22,98h1v1h-1z M24,98h1v1h-1z M27,98h1v1h-1z M29,98h1v1h-1z M30,98h1v1h-1z M32,98h1v1h-1z M37,98h1v1h-1z M38,98h1v1h-1z M40,98h1v1h-1z M48,98h1v1h-1z M50,98h1v1h-1z M52,98h1v1h-1z M53,98h1v1h-1z M54,98h1v1h-1z M56,98h1v1h-1z M59,98h1v1h-1z M60,98h1v1h-1z M62,98h1v1h-1z M63,98h1v1h-1z M64,98h1v1h-1z M65,98h1v1h-1z M67,98h1v1h-1z M68,98h1v1h-1z M72,98h1v1h-1z M74,98h1v1h-1z M78,98h1v1h-1z M79,98h1v1h-1z M80,98h1v1h-1z M86,98h1v1h-1z M87,98h1v1h-1z M88,98h1v1h-1z M89,98h1v1h-1z M91,98h1v1h-1z M92,98h1v1h-1z M93,98h1v1h-1z M95,98h1v1h-1z M96,98h1v1h-1z M98,98h1v1h-1z M99,98h1v1h-1z M100,98h1v1h-1z M104,98h1v1h-1z M105,98h1v1h-1z M106,98h1v1h-1z M107,98h1v1h-1z M6,99h1v1h-1z M8,99h1v1h-1z M9,99h1v1h-1z M13,99h1v1h-1z M16,99h1v1h-1z M17,99h1v1h-1z M19,99h1v1h-1z M20,99h1v1h-1z M21,99h1v1h-1z M22,99h1v1h-1z M25,99h1v1h-1z M26,99h1v1h-1z M27,99h1v1h-1z M31,99h1v1h-1z M35,99h1v1h-1z M41,99h1v1h-1z M42,99h1v1h-1z M44,99h1v1h-1z M46,99h1v1h-1z M47,99h1v1h-1z M49,99h1v1h-1z M50,99h1v1h-1z M51,99h1v1h-1z M52,99h1v1h-1z M55,99h1v1h-1z M57,99h1v1h-1z M58,99h1v1h-1z M59,99h1v1h-1z M61,99h1v1h-1z M62,99h1v1h-1z M65,99h1v1h-1z M68,99h1v1h-1z M69,99h1v1h-1z M71,99h1v1h-1z M76,99h1v1h-1z M77,99h1v1h-1z M78,99h1v1h-1z M80,99h1v1h-1z M83,99h1v1h-1z M86,99h1v1h-1z M89,99h1v1h-1z M92,99h1v1h-1z M94,99h1v1h-1z M97,99h1v1h-1z M98,99h1v1h-1z M100,99h1v1h-1z M102,99h1v1h-1z M103,99h1v1h-1z M105,99h1v1h-1z M107,99h1v1h-1z M7,100h1v1h-1z M8,100h1v1h-1z M10,100h1v1h-1z M11,100h1v1h-1z M12,100h1v1h-1z M13,100h1v1h-1z M15,100h1v1h-1z M16,100h1v1h-1z M17,100h1v1h-1z M19,100h1v1h-1z M20,100h1v1h-1z M23,100h1v1h-1z M24,100h1v1h-1z M25,100h1v1h-1z M26,100h1v1h-1z M27,100h1v1h-1z M28,100h1v1h-1z M29,100h1v1h-1z M30,100h1v1h-1z M31,100h1v1h-1z M32,100h1v1h-1z M33,100h1v1h-1z M34,100h1v1h-1z M36,100h1v1h-1z M39,100h1v1h-1z M42,100h1v1h-1z M44,100h1v1h-1z M45,100h1v1h-1z M46,100h1v1h-1z M47,100h1v1h-1z M48,100h1v1h-1z M50,100h1v1h-1z M52,100h1v1h-1z M53,100h1v1h-1z M54,100h1v1h-1z M55,100h1v1h-1z M56,100h1v1h-1z M60,100h1v1h-1z M62,100h1v1h-1z M63,100h1v1h-1z M64,100h1v1h-1z M66,100h1v1h-1z M67,100h1v1h-1z M68,100h1v1h-1z M72,100h1v1h-1z M74,100h1v1h-1z M75,100h1v1h-1z M76,100h1v1h-1z M77,100h1v1h-1z M78,100h1v1h-1z M79,100h1v1h-1z M80,100h1v1h-1z M82,100h1v1h-1z M86,100h1v1h-1z M88,100h1v1h-1z M89,100h1v1h-1z M90,100h1v1h-1z M91,100h1v1h-1z M92,100h1v1h-1z M95,100h1v1h-1z M96,100h1v1h-1z M97,100h1v1h-1z M100,100h1v1h-1z M101,100h1v1h-1z M102,100h1v1h-1z M103,100h1v1h-1z M104,100h1v1h-1z M105,100h1v1h-1z M107,100h1v1h-1z M12,101h1v1h-1z M13,101h1v1h-1z M17,101h1v1h-1z M19,101h1v1h-1z M20,101h1v1h-1z M28,101h1v1h-1z M32,101h1v1h-1z M33,101h1v1h-1z M35,101h1v1h-1z M36,101h1v1h-1z M37,101h1v1h-1z M38,101h1v1h-1z M39,101h1v1h-1z M40,101h1v1h-1z M42,101h1v1h-1z M45,101h1v1h-1z M46,101h1v1h-1z M47,101h1v1h-1z M50,101h1v1h-1z M51,101h1v1h-1z M52,101h1v1h-1z M56,101h1v1h-1z M57,101h1v1h-1z M58,101h1v1h-1z M59,101h1v1h-1z M60,101h1v1h-1z M63,101h1v1h-1z M64,101h1v1h-1z M65,101h1v1h-1z M66,101h1v1h-1z M70,101h1v1h-1z M71,101h1v1h-1z M73,101h1v1h-1z M74,101h1v1h-1z M75,101h1v1h-1z M76,101h1v1h-1z M80,101h1v1h-1z M81,101h1v1h-1z M85,101h1v1h-1z M89,101h1v1h-1z M90,101h1v1h-1z M93,101h1v1h-1z M94,101h1v1h-1z M96,101h1v1h-1z M97,101h1v1h-1z M100,101h1v1h-1z M104,101h1v1h-1z M106,101h1v1h-1z M107,101h1v1h-1z M4,102h1v1h-1z M5,102h1v1h-1z M6,102h1v1h-1z M7,102h1v1h-1z M8,102h1v1h-1z M9,102h1v1h-1z M10,102h1v1h-1z M13,102h1v1h-1z M15,102h1v1h-1z M16,102h1v1h-1z M17,102h1v1h-1z M18,102h1v1h-1z M20,102h1v1h-1z M21,102h1v1h-1z M22,102h1v1h-1z M23,102h1v1h-1z M26,102h1v1h-1z M27,102h1v1h-1z M28,102h1v1h-1z M30,102h1v1h-1z M32,102h1v1h-1z M33,102h1v1h-1z M35,102h1v1h-1z M36,102h1v1h-1z M38,102h1v1h-1z M39,102h1v1h-1z M43,102h1v1h-1z M44,102h1v1h-1z M50,102h1v1h-1z M51,102h1v1h-1z M52,102h1v1h-1z M54,102h1v1h-1z M56,102h1v1h-1z M59,102h1v1h-1z M60,102h1v1h-1z M62,102h1v1h-1z M64,102h1v1h-1z M65,102h1v1h-1z M67,102h1v1h-1z M68,102h1v1h-1z M71,102h1v1h-1z M72,102h1v1h-1z M74,102h1v1h-1z M75,102h1v1h-1z M76,102h1v1h-1z M78,102h1v1h-1z M80,102h1v1h-1z M81,102h1v1h-1z M83,102h1v1h-1z M84,102h1v1h-1z M86,102h1v1h-1z M87,102h1v1h-1z M88,102h1v1h-1z M91,102h1v1h-1z M95,102h1v1h-1z M96,102h1v1h-1z M98,102h1v1h-1z M99,102h1v1h-1z M100,102h1v1h-1z M102,102h1v1h-1z M104,102h1v1h-1z M107,102h1v1h-1z M4,103h1v1h-1z M10,103h1v1h-1z M12,103h1v1h-1z M15,103h1v1h-1z M16,103h1v1h-1z M19,103h1v1h-1z M20,103h1v1h-1z M23,103h1v1h-1z M24,103h1v1h-1z M28,103h1v1h-1z M32,103h1v1h-1z M34,103h1v1h-1z M37,103h1v1h-1z M38,103h1v1h-1z M41,103h1v1h-1z M42,103h1v1h-1z M44,103h1v1h-1z M45,103h1v1h-1z M46,103h1v1h-1z M47,103h1v1h-1z M49,103h1v1h-1z M50,103h1v1h-1z M52,103h1v1h-1z M56,103h1v1h-1z M58,103h1v1h-1z M61,103h1v1h-1z M62,103h1v1h-1z M63,103h1v1h-1z M66,103h1v1h-1z M68,103h1v1h-1z M69,103h1v1h-1z M71,103h1v1h-1z M75,103h1v1h-1z M76,103h1v1h-1z M80,103h1v1h-1z M82,103h1v1h-1z M83,103h1v1h-1z M85,103h1v1h-1z M86,103h1v1h-1z M89,103h1v1h-1z M90,103h1v1h-1z M92,103h1v1h-1z M94,103h1v1h-1z M98,103h1v1h-1z M100,103h1v1h-1z M104,103h1v1h-1z M108,103h1v1h-1z M4,104h1v1h-1z M6,104h1v1h-1z M7,104h1v1h-1z M8,104h1v1h-1z M10,104h1v1h-1z M12,104h1v1h-1z M13,104h1v1h-1z M14,104h1v1h-1z M17,104h1v1h-1z M19,104h1v1h-1z M20,104h1v1h-1z M23,104h1v1h-1z M26,104h1v1h-1z M28,104h1v1h-1z M29,104h1v1h-1z M30,104h1v1h-1z M31,104h1v1h-1z M32,104h1v1h-1z M35,104h1v1h-1z M37,104h1v1h-1z M39,104h1v1h-1z M40,104h1v1h-1z M41,104h1v1h-1z M43,104h1v1h-1z M45,104h1v1h-1z M46,104h1v1h-1z M47,104h1v1h-1z M48,104h1v1h-1z M49,104h1v1h-1z M52,104h1v1h-1z M53,104h1v1h-1z M54,104h1v1h-1z M55,104h1v1h-1z M56,104h1v1h-1z M58,104h1v1h-1z M61,104h1v1h-1z M62,104h1v1h-1z M65,104h1v1h-1z M67,104h1v1h-1z M68,104h1v1h-1z M70,104h1v1h-1z M74,104h1v1h-1z M75,104h1v1h-1z M76,104h1v1h-1z M77,104h1v1h-1z M78,104h1v1h-1z M79,104h1v1h-1z M80,104h1v1h-1z M81,104h1v1h-1z M86,104h1v1h-1z M87,104h1v1h-1z M91,104h1v1h-1z M92,104h1v1h-1z M95,104h1v1h-1z M97,104h1v1h-1z M99,104h1v1h-1z M100,104h1v1h-1z M101,104h1v1h-1z M102,104h1v1h-1z M103,104h1v1h-1z M104,104h1v1h-1z M108,104h1v1h-1z M4,105h1v1h-1z M6,105h1v1h-1z M7,105h1v1h-1z M8,105h1v1h-1z M10,105h1v1h-1z M13,105h1v1h-1z M14,105h1v1h-1z M16,105h1v1h-1z M18,105h1v1h-1z M20,105h1v1h-1z M23,105h1v1h-1z M24,105h1v1h-1z M27,105h1v1h-1z M29,105h1v1h-1z M30,105h1v1h-1z M31,105h1v1h-1z M33,105h1v1h-1z M36,105h1v1h-1z M37,105h1v1h-1z M38,105h1v1h-1z M40,105h1v1h-1z M42,105h1v1h-1z M43,105h1v1h-1z M45,105h1v1h-1z M46,105h1v1h-1z M48,105h1v1h-1z M49,105h1v1h-1z M55,105h1v1h-1z M60,105h1v1h-1z M61,105h1v1h-1z M63,105h1v1h-1z M64,105h1v1h-1z M65,105h1v1h-1z M66,105h1v1h-1z M69,105h1v1h-1z M70,105h1v1h-1z M72,105h1v1h-1z M73,105h1v1h-1z M75,105h1v1h-1z M76,105h1v1h-1z M83,105h1v1h-1z M84,105h1v1h-1z M85,105h1v1h-1z M87,105h1v1h-1z M92,105h1v1h-1z M93,105h1v1h-1z M94,105h1v1h-1z M95,105h1v1h-1z M96,105h1v1h-1z M98,105h1v1h-1z M99,105h1v1h-1z M101,105h1v1h-1z M102,105h1v1h-1z M104,105h1v1h-1z M105,105h1v1h-1z M106,105h1v1h-1z M107,105h1v1h-1z M108,105h1v1h-1z M4,106h1v1h-1z M6,106h1v1h-1z M7,106h1v1h-1z M8,106h1v1h-1z M10,106h1v1h-1z M15,106h1v1h-1z M16,106h1v1h-1z M19,106h1v1h-1z M20,106h1v1h-1z M22,106h1v1h-1z M24,106h1v1h-1z M25,106h1v1h-1z M31,106h1v1h-1z M36,106h1v1h-1z M38,106h1v1h-1z M40,106h1v1h-1z M43,106h1v1h-1z M44,106h1v1h-1z M48,106h1v1h-1z M50,106h1v1h-1z M51,106h1v1h-1z M53,106h1v1h-1z M60,106h1v1h-1z M62,106h1v1h-1z M63,106h1v1h-1z M64,106h1v1h-1z M65,106h1v1h-1z M72,106h1v1h-1z M74,106h1v1h-1z M75,106h1v1h-1z M76,106h1v1h-1z M77,106h1v1h-1z M80,106h1v1h-1z M84,106h1v1h-1z M86,106h1v1h-1z M87,106h1v1h-1z M89,106h1v1h-1z M96,106h1v1h-1z M97,106h1v1h-1z M98,106h1v1h-1z M99,106h1v1h-1z M102,106h1v1h-1z M104,106h1v1h-1z M105,106h1v1h-1z M106,106h1v1h-1z M4,107h1v1h-1z M10,107h1v1h-1z M12,107h1v1h-1z M14,107h1v1h-1z M16,107h1v1h-1z M18,107h1v1h-1z M21,107h1v1h-1z M22,107h1v1h-1z M25,107h1v1h-1z M26,107h1v1h-1z M30,107h1v1h-1z M32,107h1v1h-1z M33,107h1v1h-1z M34,107h1v1h-1z M35,107h1v1h-1z M38,107h1v1h-1z M41,107h1v1h-1z M42,107h1v1h-1z M44,107h1v1h-1z M46,107h1v1h-1z M47,107h1v1h-1z M49,107h1v1h-1z M50,107h1v1h-1z M54,107h1v1h-1z M55,107h1v1h-1z M56,107h1v1h-1z M57,107h1v1h-1z M59,107h1v1h-1z M61,107h1v1h-1z M62,107h1v1h-1z M68,107h1v1h-1z M69,107h1v1h-1z M70,107h1v1h-1z M73,107h1v1h-1z M77,107h1v1h-1z M78,107h1v1h-1z M80,107h1v1h-1z M82,107h1v1h-1z M83,107h1v1h-1z M85,107h1v1h-1z M92,107h1v1h-1z M95,107h1v1h-1z M99,107h1v1h-1z M101,107h1v1h-1z M4,108h1v1h-1z M5,108h1v1h-1z M6,108h1v1h-1z M7,108h1v1h-1z M8,108h1v1h-1z M9,108h1v1h-1z M10,108h1v1h-1z M12,108h1v1h-1z M14,108h1v1h-1z M15,108h1v1h-1z M16,108h1v1h-1z M17,108h1v1h-1z M21,108h1v1h-1z M25,108h1v1h-1z M27,108h1v1h-1z M29,108h1v1h-1z M34,108h1v1h-1z M35,108h1v1h-1z M38,108h1v1h-1z M39,108h1v1h-1z M40,108h1v1h-1z M41,108h1v1h-1z M44,108h1v1h-1z M50,108h1v1h-1z M51,108h1v1h-1z M52,108h1v1h-1z M53,108h1v1h-1z M54,108h1v1h-1z M55,108h1v1h-1z M56,108h1v1h-1z M60,108h1v1h-1z M62,108h1v1h-1z M65,108h1v1h-1z M67,108h1v1h-1z M68,108h1v1h-1z M70,108h1v1h-1z M74,108h1v1h-1z M75,108h1v1h-1z M76,108h1v1h-1z M77,108h1v1h-1z M78,108h1v1h-1z M81,108h1v1h-1z M84,108h1v1h-1z M85,108h1v1h-1z M87,108h1v1h-1z M88,108h1v1h-1z M89,108h1v1h-1z M90,108h1v1h-1z M92,108h1v1h-1z M93,108h1v1h-1z M95,108h1v1h-1z M96,108h1v1h-1z M98,108h1v1h-1z M99,108h1v1h-1z M100,108h1v1h-1z M101,108h1v1h-1z M103,108h1v1h-1z M104,108h1v1h-1z M106,108h1v1h-1z M108,108h1v1h-1z" fill="#000000"/>
</svg>
